<?xml version="1.0"?>
<!DOCTYPE svg PUBLIC "-//W3C//DTD SVG 1.1//EN" "http://www.w3.org/Graphics/SVG/1.1/DTD/svg11.dtd">
<svg width="217.18986961929176mm" height="217.24505763260115mm" viewBox="0 0 217.18986961929176 217.24505763260115" xmlns="http://www.w3.org/2000/svg" version="1.1">
<g id="InvoluteGear" transform="translate(108.566803,108.622529) scale(1,-1)">
<path id="InvoluteGear_w0000"  d="M 100.44849605471413 -3.217085691442324 C 100.9163880862469 -3.1111432887787114 101.43228955389345 -2.980357129620625 101.99414586911647 -2.8190895965474474 C 103.26954286247985 -2.4529672731207324 104.77920688189711 -1.9307578974242676 106.49375443290492 -1.1885888087396501 A 106.5 106.5 0 0 1 106.494 1.18859C 104.77920688189711 1.9307578974242676 103.26954286247985 2.4529672731207324 101.99414586911647 2.8190895965474474 C 101.43228955389345 2.980357129620625 100.9163880862469 3.1111432887787114 100.44851121703074 3.2170808472932118 A 1.125 1.125 0 0 0 99.6571 4.30469A 99.75 99.75 0 0 1 99.6356 4.77544A 1.125 1.125 0 0 0 100.325 5.93051C 100.78118698584466 6.078564523102694 101.28305797109759 6.255722243534064 101.8279215862171 6.467413946485328 C 103.06474112593317 6.94799741745398 104.52066333191814 7.6053242872137545 106.16061819854554 8.500330597968587 A 106.5 106.5 0 0 1 105.944 10.8677C 104.16951692481015 11.450841214057252 102.61862064347447 11.833605904340367 101.3152145376204 12.082233275347788 C 100.74102124067112 12.191740324974731 100.21536421266829 12.275071187555357 99.7397924137003 12.33802351140344 A 1.125 1.125 0 0 0 98.8527 13.3492A 99.75 99.75 0 0 1 98.7886 13.816A 1.125 1.125 0 0 0 99.3699 15.029C 99.81088123035933 15.21790343498117 100.29456307217714 15.439964732020819 100.81791907568055 15.700326460729983 C 102.00591248552306 16.29138881324664 103.39602864815329 17.078386359610377 104.94780164789302 18.118813588273966 A 106.5 106.5 0 0 1 104.517 20.4567C 102.69664554365558 20.87603925409769 101.11736821542317 21.116187550197033 99.79675343056223 21.245259764087045 C 99.21498109837987 21.30209892036673 98.68392426970361 21.33728398059859 98.20459827868517 21.35672942699884 A 1.125 1.125 0 0 0 97.2293 22.283A 99.75 99.75 0 0 1 97.1229 22.7421A 1.125 1.125 0 0 0 97.5916 24.0029C 98.01351107886597 24.231142006317498 98.47499583717807 24.49626681012285 98.97250753639625 24.803141125308297 C 100.10183072882822 25.49978463057264 101.41462190778122 26.40993154401658 102.86535456084682 27.58715838290325 A 106.5 106.5 0 0 1 102.224 29.8762C 100.37279741455924 30.128251858242812 98.77822542874458 30.22379381574533 97.45134499489453 30.23224133950404 C 96.86681437624516 30.23594161528678 96.3347582510273 30.222689318679713 95.85564991407742 30.19846675653917 A 1.125 1.125 0 0 0 94.8001 31.0322A 99.75 99.75 0 0 1 94.6525 31.4797A 1.125 1.125 0 0 0 95.0045 32.7779C 95.40397010649812 33.04359370370781 95.83943377325853 33.349585106656946 96.30697862956693 33.700429151097 C 97.3682736769503 34.49688120162564 98.59286167107085 35.522635718186095 99.9305327498097 36.82690729495662 A 106.5 106.5 0 0 1 99.0837 39.0481C 97.21722867498444 39.13081227899116 95.6205751572516 39.080956207147295 94.29842402357097 38.9687090419324 C 93.71597872325098 38.9192397755677 93.18733208610922 38.85765993482504 92.7124114457968 38.78997007992217 A 1.125 1.125 0 0 0 91.5854 39.5243A 99.75 99.75 0 0 1 91.3977 39.9565A 1.125 1.125 0 0 0 91.6302 41.2813C 92.00388179159367 41.58223577702101 92.40971597771602 41.92655823798109 92.84341976718812 42.31846480742977 C 93.82789244451925 43.20812575069984 94.95412993202007 44.34098814540462 96.1676550725917 45.761496855010584 A 106.5 106.5 0 0 1 95.1223 47.8965C 93.25608736131244 47.809122465457605 91.67058268555454 47.614281487380175 90.36411661273124 47.38226974855342 C 89.78858295593264 47.2800408579621 89.26772633939265 47.170643743037985 88.80092873771339 47.06004749482856 A 1.125 1.125 0 0 0 87.6119 47.6888A 99.75 99.75 0 0 1 87.3856 48.1022A 1.125 1.125 0 0 0 87.4967 49.4427C 87.8414203367433 49.776314348903824 88.21426217234921 50.15611470352347 88.61053108879611 50.58583633672046 C 89.51002374542384 51.56133416196896 90.52857836778968 52.79191718023531 91.60790191869546 54.316892240138245 A 106.5 106.5 0 0 1 90.3728 56.348C 88.52219673797806 56.091271206316655 86.9609788952724 55.753059835712634 85.68102367264026 55.403206045611 C 85.1171707125001 55.24906463157615 84.60842009852355 55.09275674141804 84.15361356741673 54.94017053524557 A 1.125 1.125 0 0 0 82.9123 55.4582A 99.75 99.75 0 0 1 82.6494 55.8493A 1.125 1.125 0 0 0 82.6381 57.1943C 82.95107720847477 57.5579307036916 83.28783720869274 57.970061806619285 83.64338764307304 58.43403769477671 C 84.45044679956108 59.487289119803314 85.35287849241057 60.80539576318585 86.28905683878882 62.422200749768436 A 106.5 106.5 0 0 1 84.8743 64.3326C 83.05478331356325 63.90863000874699 81.53078904663967 63.42985077154845 80.28795078627861 62.965053928858616 C 79.74045078600273 62.76027725568173 79.24802184240136 62.55835380669462 78.80897505201914 62.36504201991847 A 1.125 1.125 0 0 0 77.5257 62.7681A 99.75 99.75 0 0 1 77.2283 63.1336A 1.125 1.125 0 0 0 77.0948 64.4721C 77.37337533009861 64.86260391755019 77.67126299550867 65.30365072067174 77.98314874494713 65.79803621345718 C 78.69108685495206 66.92031366524634 79.46991778506919 68.3150216869775 80.25519345830467 70.01025924492932 A 106.5 106.5 0 0 1 78.6726 71.7841C 76.89915179759316 71.19642177573664 75.42500940290947 70.58104198748828 74.22958665406051 70.00515354523046 C 73.70297637107916 69.75143845691723 73.23094951916374 69.50557265039257 72.81130054948326 69.273137125359 A 1.125 1.125 0 0 0 71.4967 69.5578A 99.75 99.75 0 0 1 71.1673 69.8948A 1.125 1.125 0 0 0 70.9126 71.2155C 71.15453329600336 71.6298051677181 71.4110802355941 72.09611301832092 71.67671691654654 72.6168114818409 C 72.27966778193303 73.79881541598048 72.92844431094818 75.25856782614714 73.55631026950017 77.01819068317006 A 106.5 106.5 0 0 1 71.819 78.6407C 70.10630969144484 77.89425756950949 68.69423437714528 77.14737646094257 67.55613278918817 76.46516841211783 C 67.05477588215517 76.1646172717943 66.60706248507935 75.87684642923716 66.21028867962636 75.60721319990913 A 1.125 1.125 0 0 0 64.8752 75.7712A 99.75 99.75 0 0 1 64.5165 76.0768A 1.125 1.125 0 0 0 64.1428 77.3689C 64.34608238982663 77.80345929339485 64.5591627748605 78.29116421777128 64.77634923812973 78.8338609805699 C 65.26931661813568 80.06579694020489 65.78266277940575 81.57849777060648 66.24791632820349 83.38792513753695 A 106.5 106.5 0 0 1 64.3702 84.8458C 62.73254462412674 83.94663701328247 61.39423729098028 83.07444347648301 60.32288753210305 82.29156881183646 C 59.85093840224587 81.94667208090597 59.43124835421933 81.61938076214749 59.06063750570451 81.31478409438066 A 1.125 1.125 0 0 0 57.7162 81.3566A 99.75 99.75 0 0 1 57.3312 81.6284A 1.125 1.125 0 0 0 56.8415 82.8812C 57.004439580009695 83.33240945218331 57.172287759309405 83.83747017373366 57.339224329460734 84.39766827951911 C 57.718123341121775 85.66932805530587 58.09178538668284 87.2224425904563 58.39057128829546 89.06668098227644 A 106.5 106.5 0 0 1 56.3881 90.3477C 54.83895793525766 89.30340818486661 53.585508219309155 88.31312949016649 52.58978783102148 87.43607535572554 C 52.151157197464336 87.0496909571213 51.762968182400904 86.6855912011048 51.42159128903411 86.34855507881704 A 1.125 1.125 0 0 0 50.0789 86.268A 99.75 99.75 0 0 1 49.6708 86.5036A 1.125 1.125 0 0 0 49.0692 87.7067C 49.19044003102915 88.17084102179719 49.31166516171943 88.68907244832043 49.4269685497581 89.26212991916108 C 49.68865951653431 90.5629761377048 49.91954116499684 92.14363478143267 50.04938358534488 94.00740225800907 A 106.5 106.5 0 0 1 47.9387 95.1011C 46.490958370123536 93.92018319128908 45.33275275047695 92.82002509982794 44.420912585505306 91.85605904236729 C 44.019235079818856 91.43138867890288 43.6657637541524 91.03349753087518 43.35644957238428 90.6668147415209 A 1.125 1.125 0 0 0 42.0267 90.4645A 99.75 99.75 0 0 1 41.5988 90.662A 1.125 1.125 0 0 0 40.8903 91.8054C 40.96883300406495 92.27866123444979 41.04243057653464 92.80576913713553 41.105145342274064 93.38693743835105 C 41.24745981039859 94.70619087820035 41.33364790371029 96.30129579517592 41.29347092760655 98.16914859222845 A 106.5 106.5 0 0 1 39.0921 99.0663C 37.757720082214526 97.75870598085368 36.70435581539598 96.55778474905776 35.88395166851948 95.51489449491805 C 35.52255571701892 95.0554571189695 35.20673105547509 94.6270716302938 34.93204266003021 94.23378062294753 A 1.125 1.125 0 0 0 33.6262 93.9114A 99.75 99.75 0 0 1 33.1821 94.0692A 1.125 1.125 0 0 0 32.3726 95.1434C 32.4077453242303 95.62183139815477 32.43310548581532 96.15344799491561 32.442711954955385 96.73791138293076 C 32.46447066192526 98.0646402946014 32.405251018401124 99.66097394312517 32.19538756492282 101.51743444412162 A 106.5 106.5 0 0 1 29.9216 102.211C 28.711609434403577 100.78716934483343 27.771815028471252 99.49543618424387 27.04964502682648 98.38226345051557 C 26.731525270182864 97.8918661048738 26.455964295372077 97.43653601262366 26.218177840804636 97.01989572043414 A 1.125 1.125 0 0 0 24.947 96.5801A 99.75 99.75 0 0 1 24.4905 96.6968A 1.125 1.125 0 0 0 23.5866 97.693C 23.57811686024301 98.17264895204791 23.55502946865761 98.70436910033736 23.5114480389696 99.28728452744994 C 23.41247068528625 100.61049521734388 23.20833401754297 102.19482987405976 22.83052308135938 104.02451486262089 A 106.5 106.5 0 0 1 20.5031 104.508C 19.427585348472814 102.98047848201941 18.609148235850235 101.60863710041936 17.99119650750883 100.43440598695335 C 17.71898898621338 99.91711225846858 17.48597508315724 99.43861057118865 17.287060942917506 99.00207340683238 A 1.125 1.125 0 0 0 16.0612 98.4485A 99.75 99.75 0 0 1 15.5959 98.5232A 1.125 1.125 0 0 0 14.6052 99.4331C 14.55311269433181 99.90997701853097 14.481769058973743 100.43739471774202 14.385360859909444 101.01393196314137 C 14.16646760309712 102.32265989075422 13.819105451853797 103.88186725973117 13.27647769336875 105.66961538980635 A 106.5 106.5 0 0 1 10.9147 105.94C 9.982578171880352 104.3204589421469 9.292280180238789 102.87987684926777 8.783667267837604 101.65431740487901 C 8.559627579139978 101.11441375230035 8.371091574423891 100.6167054856693 8.212698013723312 100.16388873357182 A 1.125 1.125 0 0 0 7.04223 99.5011A 99.75 99.75 0 0 1 6.57209 99.5333A 1.125 1.125 0 0 0 5.50278 100.349C 5.407516853322637 100.81941955009628 5.288508150023223 101.33816445106997 5.140072050282587 101.90354614556784 C 4.803076708804806 103.18694677912464 4.315367426243812 104.70810677705128 3.6124192299576467 106.43910420460682 A 106.5 106.5 0 0 1 1.23586 106.493C 0.45485220867309173 104.7960072251139 -0.10158663542837898 103.29862153786985 -0.4966462051161873 102.03188913408843 C -0.6706615977970714 101.47384936911679 -0.8131574354610716 100.96105869057862 -0.9297179176945534 100.49571453295653 A 1.125 1.125 0 0 0 -2.03506 99.7292A 99.75 99.75 0 0 1 -2.50618 99.7185A 1.125 1.125 0 0 0 -3.64526 100.434C -3.7828873753599463 100.89344061951029 -3.9485750030049296 101.39921423862518 -4.14780901515144 101.94875545144137 C -4.600113991762915 103.19619412910222 -5.224129092928609 104.66670194516628 -6.0815728768771145 106.3266050803624 A 106.5 106.5 0 0 1 -8.45321 106.164C -9.076642803184974 104.40318278808003 -9.494611672240982 102.86140131585759 -9.772844311202132 101.5639924963221 C -9.895393461518644 100.99244071219735 -9.990668366742472 100.46881676681117 -10.064429913643869 99.99480119190858 A 1.125 1.125 0 0 0 -11.0955 99.131A 99.75 99.75 0 0 1 -11.5637 99.0775A 1.125 1.125 0 0 0 -12.7631 99.6863C -12.941945407879333 100.13142686487983 -13.152939020006063 100.62003820264115 -13.401320028787655 101.14918526221545 C -13.965186699049072 102.35032531423272 -14.720336833165804 103.75799585755308 -15.725171155542135 105.33305022024673 A 106.5 106.5 0 0 1 -18.0722 104.956C -18.53292589420576 103.14524069804548 -18.808961366533474 101.57183912768744 -18.968061551495797 100.25450463047851 C -19.03812897859316 99.67417688528667 -19.08539347350655 99.14405858597247 -19.115744873667992 98.66529943612802 A 1.125 1.125 0 0 0 -20.064 97.7113A 99.75 99.75 0 0 1 -20.5254 97.6154A 1.125 1.125 0 0 0 -21.7752 98.1126C -21.993762404852397 98.53969257216205 -22.248313641941113 99.00709284114336 -22.543783484094668 99.51146106829218 C -23.214539471193802 100.65634946991148 -24.094567226425614 101.98951833903874 -25.23846571357511 103.46667253273786 A 106.5 106.5 0 0 1 -27.5415 102.878C -27.83563932456426 101.0326046593407 -27.9674540833062 99.4406206917813 -28.006103460030573 98.11427636542011 C -28.02310856314104 97.52998143762449 -28.021970999253796 96.9977615115642 -28.00866075141478 96.5182259358725 A 1.125 1.125 0 0 0 -28.8662 95.482A 99.75 99.75 0 0 1 -29.317 95.3445A 1.125 1.125 0 0 0 -30.6068 95.726C -30.863332159890682 96.13142735300232 -31.15933173022328 96.57374352737324 -31.499442049582346 97.04915356812224 C -32.27152925816425 98.12830341348011 -33.269142447378044 99.37592355130055 -34.54262639618031 100.74293741114572 A 106.5 106.5 0 0 1 -36.7825 99.9469C -36.90769788100842 98.08278063952953 -36.894199667560315 96.48540595529853 -36.81207797513909 95.1610423065881 C -36.77587984462274 94.57762184797647 -36.7263496481475 94.04771043709317 -36.669488045213505 93.5713720183578 A 1.125 1.125 0 0 0 -37.4293 92.4614A 99.75 99.75 0 0 1 -37.8657 92.2836A 1.125 1.125 0 0 0 -39.1848 92.5462C -39.47715862464875 92.92658685145834 -39.812153782564266 93.3401537600963 -40.194086317909324 93.78266621712365 C -41.06110699020493 94.78713533073731 -42.16803907632962 95.93886856386727 -43.560555997717735 97.18441458249268 A 106.5 106.5 0 0 1 -45.7188 96.188C -45.67392762921315 94.32021180944868 -45.51522829402273 92.73068275825192 -45.31301601866245 91.4192738814765 C -45.223914603628884 90.84156229770956 -45.12640219737253 90.3183504148425 -45.02646041249328 89.8491562432177 A 1.125 1.125 0 0 0 -45.6822 88.6747A 99.75 99.75 0 0 1 -46.1006 88.4579A 1.125 1.125 0 0 0 -47.4382 88.5995C -47.7638649202276 88.95172738524846 -48.13507979034517 89.333118082501 -48.5556697284037 89.73906615822426 C -49.510439458065505 90.66053119267389 -50.71751805322169 91.70683389682033 -52.21752911343002 92.82059108764717 A 106.5 106.5 0 0 1 -54.2762 91.632C -54.06168882867538 89.77607599939607 -53.759103404414304 88.20756391955317 -53.43847614071272 86.9199765616768 C -53.29720976354824 86.35276095288039 -53.15252316601926 85.84058409646974 -53.010329348299635 85.38242206262818 A 1.125 1.125 0 0 0 -53.5565 84.1532A 99.75 99.75 0 0 1 -53.9535 83.8993A 1.125 1.125 0 0 0 -55.2984 83.9186C -55.654784788472085 84.2397858917398 -56.059143367468664 84.58584005417548 -56.51490556755459 84.95185993499116 C -57.549512831910384 85.78268534079793 -58.84673570270494 86.7148875222349 -60.44181133767971 87.68762694241674 A 106.5 106.5 0 0 1 -62.3839 86.3168C -62.001477848480484 84.48802734981001 -61.5575136532695 82.95352942639694 -61.121128219711025 81.70043294177584 C -60.92886745810681 81.14841343512155 -60.73820558801948 80.65151566390297 -60.554938000215195 80.20818224274917 A 1.125 1.125 0 0 0 -60.9871 78.9344A 99.75 99.75 0 0 1 -61.3593 78.6454A 1.125 1.125 0 0 0 -62.7004 78.5424C -63.08453158221182 78.829807002112 -63.51868322755438 79.13765711595563 -64.00584110054145 79.46071584585812 C -65.11171281796273 80.19401714205189 -66.48833076714486 81.00439427991914 -68.16525367782644 81.82805550426875 A 106.5 106.5 0 0 1 -69.9746 80.2863C -69.42750309627753 78.49988429720285 -68.84583895725889 77.01211586328309 -68.29731138097988 75.8038938040352 C -68.05564936815658 75.27164460700651 -67.82059210981292 74.79414337240374 -67.59776936487425 74.36931216428749 A 1.125 1.125 0 0 0 -67.9123 73.0615A 99.75 99.75 0 0 1 -68.2567 72.7399A 1.125 1.125 0 0 0 -69.5829 72.5153C -69.99154007961216 72.76661950524671 -70.45188727403702 73.03371462750162 -70.96640407636565 73.3111352401118 C -72.134376645522 73.94083606120866 -73.57898258321696 74.62267311532412 -75.32385725824246 75.29043102753518 A 106.5 106.5 0 0 1 -76.9855 73.5905C -76.2782301881336 71.8612664807959 -75.56368595755075 70.43255565416614 -74.90756151079984 69.27921972878814 C -74.61850073430402 68.77115122585657 -74.34099584617489 68.31700325348233 -74.08046432354149 67.9141945435891 A 1.125 1.125 0 0 0 -74.2748 66.5832A 99.75 99.75 0 0 1 -74.5885 66.2316A 1.125 1.125 0 0 0 -75.8888 65.8874C -76.31857663299155 66.10046488226466 -76.80130479466534 66.32459177862972 -77.3389170780711 66.55407547938152 C -78.5593123104168 67.07495792606181 -80.05993577686506 67.62260497985939 -81.85830363515174 68.12892632756972 A 106.5 106.5 0 0 1 -83.3585 66.2849C -82.4968918418186 64.62718357856194 -81.65538845820248 63.269369107085446 -80.89710399478328 62.180476220283076 C -80.56303970324488 61.70079842707346 -80.24538667822986 61.27376693005481 -79.94930522414928 60.89631851821412 A 1.125 1.125 0 0 0 -80.0218 59.5532A 99.75 99.75 0 0 1 -80.3022 59.1745A 1.125 1.125 0 0 0 -81.5658 58.7134C -82.01321342485117 58.886580989790176 -82.51432251619735 59.065882474216274 -83.07057545598597 59.245527688892345 C -84.33328077227826 59.65327556515775 -85.87748712883507 60.062194642675415 -87.71444632793671 60.40288388773857 A 106.5 106.5 0 0 1 -89.0408 58.4301C -88.03195826838382 56.8575794797087 -87.0704686937916 55.58191264172205 -86.21630759757979 54.56648570288797 C -85.84000795292769 54.11917338066309 -85.4848389640327 53.722796876472316 -85.15566100268046 53.373836419097124 A 1.125 1.125 0 0 0 -85.1057 52.0297A 99.75 99.75 0 0 1 -85.3505 51.627A 1.125 1.125 0 0 0 -86.567 51.053C -87.02826290128222 51.1847443416748 -87.54360057455213 51.31773466559332 -88.1138848836799 51.44605279736797 C -89.40843710999545 51.73728737590088 -90.98343057646277 52.004090044878595 -92.84375949392928 52.17632412891436 A 106.5 106.5 0 0 1 -93.9852 50.0911C -92.83756416422186 48.61683557073464 -91.76405560407719 47.433886943412006 -90.82109572292285 46.50034009995683 C -90.40567886252333 46.089099819493825 -90.01593695184617 45.726662808678256 -89.65639015548032 45.40908190201891 A 1.125 1.125 0 0 0 -89.4844 44.075A 99.75 99.75 0 0 1 -89.6916 43.6518A 1.125 1.125 0 0 0 -90.8508 42.9695C -91.32216878289863 43.05877478197773 -91.84746478783269 43.14435194568111 -92.42705491091061 43.22027971010233 C -93.74272697979983 43.3925877294645 -95.33545666429089 43.51506317896109 -97.20374002882589 43.517414916106276 A 106.5 106.5 0 0 1 -98.1508 41.337C -96.87388876541701 39.973237250984205 -95.69725664973676 38.8928091192058 -94.67331164618801 38.048878034282794 C -94.22221984497644 37.67711746206032 -93.80113453673316 37.35162321183638 -93.41419822334294 37.06805343130342 A 1.125 1.125 0 0 0 -93.1216 35.7552A 99.75 99.75 0 0 1 -93.2895 35.3149A 1.125 1.125 0 0 0 -94.3818 34.53C -94.85935041325581 34.57600665363849 -95.390251981722 34.61346153779687 -95.9743452524559 34.636369773496206 C -97.30023509080227 34.68832343517305 -98.89750313354195 34.66545679504195 -100.75825976079547 34.49790669806191 A 106.5 106.5 0 0 1 -101.503 32.2404C -100.10748581513609 30.998408098323157 -98.83748008819568 30.02945322985563 -97.74103469303007 29.282130982219527 C -97.25800583973674 28.952930643420174 -96.80906637940672 28.66707630165536 -96.39794682514544 28.41986739575688 A 1.125 1.125 0 0 0 -95.9872 27.139A 99.75 99.75 0 0 1 -96.1143 26.6853A 1.125 1.125 0 0 0 -97.1308 25.8043C -97.61049759137542 25.80673084490555 -98.14260550577696 25.795753086552875 -98.72636194337299 25.765451968674668 C -100.05148281040425 25.696620768263394 -101.64005374535174 25.528601518686273 -103.47786481988932 25.192537960452313 A 106.5 106.5 0 0 1 -104.014 22.8767C -102.51156070984595 21.76671637361568 -101.15870503907053 20.91726383365883 -99.99884474414354 20.272742970812928 C -99.48788136797047 19.98883072312132 -99.01480780930963 19.744984968917606 -98.58291168028062 19.5361853885031 A 1.125 1.125 0 0 0 -98.0574 18.298A 99.75 99.75 0 0 1 -98.1427 17.8346A 1.125 1.125 0 0 0 -99.0749 16.8649C -99.55281344530174 16.823612336898947 -100.08171849187941 16.76429290119823 -100.66030090664921 16.68103351434816 C -101.97367243353165 16.49198780885287 -103.54038286162027 16.180208210247194 -105.34001970208374 15.67841591924166 A 106.5 106.5 0 0 1 -105.664 13.3234C -104.06619252783703 12.354658781893438 -102.64169710137887 11.631747401717325 -101.42803287437712 11.095368626514592 C -100.89336897878052 10.859097056229563 -100.40008135828428 10.659280472302306 -99.95098748183271 10.490620396453785 A 1.125 1.125 0 0 0 -99.315 9.30537A 99.75 99.75 0 0 1 -99.3579 8.83608A 1.125 1.125 0 0 0 -100.198 7.78562C -100.67020333416208 7.70108807869185 -101.19152283912825 7.593918505169182 -101.76013691496601 7.458390762848156 C -103.0508760915987 7.15069704452205 -104.58274375680634 6.697740600832781 -106.32929400556347 6.0343775860118765 A 106.5 106.5 0 0 1 -106.437 3.65966C -104.75849910025448 2.8402265965660254 -103.27416773584343 2.249846647538285 -102.01675638077955 1.8260545634355374 C -101.46282235918375 1.639381491199111 -100.95340821343002 1.4852498206923634 -100.49083792285244 1.3581268199155936 A 1.125 1.125 0 0 0 -99.7497 0.235619A 99.75 99.75 0 0 1 -99.7497 -0.235619A 1.125 1.125 0 0 0 -100.491 -1.35812C -100.95340821343002 -1.4852498206923377 -101.46282235918375 -1.639381491199086 -102.01675638077954 -1.8260545634355116 C -103.27416773584343 -2.2498466475382592 -104.75849910025448 -2.8402265965659987 -106.4374902918909 -3.659663500343953 A 106.5 106.5 0 0 1 -106.329 -6.03438C -104.58274375680634 -6.697740600832755 -103.0508760915987 -7.150697044522024 -101.76013691496603 -7.45839076284813 C -101.19152283912825 -7.593918505169158 -100.67020333416208 -7.701088078691824 -100.19798963256666 -7.785620623176675 A 1.125 1.125 0 0 0 -99.3579 -8.83608A 99.75 99.75 0 0 1 -99.315 -9.30537A 1.125 1.125 0 0 0 -99.951 -10.4906C -100.40008135828428 -10.659280472302285 -100.89336897878052 -10.85909705622954 -101.42803287437712 -11.095368626514567 C -102.64169710137887 -11.631747401717304 -104.06619252783703 -12.354658781893416 -105.66371201256248 -13.323379462372767 A 106.5 106.5 0 0 1 -105.34 -15.6784C -103.54038286162027 -16.18020821024717 -101.97367243353165 -16.491987808852848 -100.66030090664921 -16.68103351434814 C -100.08171849187941 -16.764292901198203 -99.55281344530174 -16.823612336898925 -99.07486924413745 -16.864853961805835 A 1.125 1.125 0 0 0 -98.1427 -17.8346A 99.75 99.75 0 0 1 -98.0574 -18.298A 1.125 1.125 0 0 0 -98.5829 -19.5362C -99.01480780930964 -19.744984968917585 -99.48788136797047 -19.9888307231213 -99.99884474414355 -20.272742970812907 C -101.15870503907054 -20.917263833658808 -102.51156070984597 -21.766716373615658 -104.01437093809211 -22.87669370615203 A 106.5 106.5 0 0 1 -103.478 -25.1925C -101.64005374535175 -25.52860151868625 -100.05148281040427 -25.696620768263372 -98.726361943373 -25.765451968674647 C -98.14260550577696 -25.795753086552853 -97.61049759137543 -25.80673084490553 -97.13078328681542 -25.804339809142007 A 1.125 1.125 0 0 0 -96.1143 -26.6853A 99.75 99.75 0 0 1 -95.9872 -27.139A 1.125 1.125 0 0 0 -96.3979 -28.4199C -96.80906637940673 -28.667076301655293 -97.25800583973675 -28.952930643420107 -97.74103469303009 -29.282130982219456 C -98.83748008819569 -30.02945322985556 -100.10748581513612 -30.998408098323083 -101.50313402806128 -32.24044446116622 A 106.5 106.5 0 0 1 -100.758 -34.4979C -98.89750313354197 -34.66545679504188 -97.30023509080229 -34.688323435172975 -95.97434525245595 -34.63636977349614 C -95.39025198172205 -34.61346153779681 -94.85935041325583 -34.57600665363842 -94.38184106910741 -34.53000277007983 A 1.125 1.125 0 0 0 -93.2895 -35.3149A 99.75 99.75 0 0 1 -93.1216 -35.7552A 1.125 1.125 0 0 0 -93.4142 -37.068C -93.80113453673317 -37.35162321183632 -94.22221984497646 -37.67711746206027 -94.67331164618805 -38.04887803428273 C -95.69725664973679 -38.89280911920574 -96.87388876541704 -39.97323725098414 -98.15081018238776 -41.33704073966839 A 106.5 106.5 0 0 1 -97.2037 -43.5174C -95.33545666429092 -43.51506317896103 -93.74272697979985 -43.39258772946444 -92.42705491091066 -43.22027971010227 C -91.84746478783272 -43.14435194568105 -91.32216878289867 -43.05877478197767 -90.85082119197278 -42.9695392532915 A 1.125 1.125 0 0 0 -89.6916 -43.6518A 99.75 99.75 0 0 1 -89.4844 -44.075A 1.125 1.125 0 0 0 -89.6564 -45.4091C -90.0159369518462 -45.726662808678235 -90.40567886252335 -46.08909981949381 -90.82109572292288 -46.500340099956816 C -91.76405560407721 -47.433886943411984 -92.83756416422187 -48.616835570734615 -93.9851778122274 -50.09110528004065 A 106.5 106.5 0 0 1 -92.8438 -52.1763C -90.98343057646278 -52.00409004487857 -89.40843710999548 -51.73728737590087 -88.11388488367993 -51.446052797367955 C -87.54360057455214 -51.317734665593306 -87.02826290128225 -51.184744341674794 -86.56698279816209 -51.05301660155529 A 1.125 1.125 0 0 0 -85.3505 -51.627A 99.75 99.75 0 0 1 -85.1057 -52.0297A 1.125 1.125 0 0 0 -85.1557 -53.3738C -85.48483896403272 -53.7227968764723 -85.8400079529277 -54.11917338066308 -86.21630759757979 -54.56648570288796 C -87.07046869379161 -55.58191264172204 -88.03195826838382 -56.85757947970869 -89.04075465931085 -58.43009914652321 A 106.5 106.5 0 0 1 -87.7144 -60.4029C -85.87748712883507 -60.06219464267541 -84.33328077227827 -59.65327556515774 -83.07057545598597 -59.24552768889234 C -82.51432251619737 -59.06588247421626 -82.01321342485119 -58.88658098979016 -81.56582312174535 -58.71345257577791 A 1.125 1.125 0 0 0 -80.3022 -59.1745A 99.75 99.75 0 0 1 -80.0218 -59.5532A 1.125 1.125 0 0 0 -79.9493 -60.8963C -80.24538667822986 -61.2737669300548 -80.5630397032449 -61.700798427073444 -80.8971039947833 -62.18047622028306 C -81.6553884582025 -63.26936910708543 -82.4968918418186 -64.62718357856194 -83.35851177106466 -66.28492280968119 A 106.5 106.5 0 0 1 -81.8583 -68.1289C -80.05993577686506 -67.62260497985939 -78.55931231041681 -67.0749579260618 -77.33891707807112 -66.55407547938151 C -76.80130479466536 -66.32459177862971 -76.31857663299155 -66.10046488226465 -75.88878334685131 -65.88737039092268 A 1.125 1.125 0 0 0 -74.5885 -66.2316A 99.75 99.75 0 0 1 -74.2748 -66.5832A 1.125 1.125 0 0 0 -74.0805 -67.9142C -74.3409958461749 -68.31700325348231 -74.61850073430404 -68.77115122585656 -74.90756151079987 -69.27921972878812 C -75.56368595755077 -70.43255565416612 -76.27823018813363 -71.86126648079589 -76.98553400160905 -73.5904887268675 A 106.5 106.5 0 0 1 -75.3239 -75.2904C -73.57898258321698 -74.6226731153241 -72.13437664552202 -73.94083606120864 -70.96640407636568 -73.31113524011178 C -70.45188727403703 -73.03371462750161 -69.99154007961218 -72.7666195052467 -69.58290521296428 -72.51532470464157 A 1.125 1.125 0 0 0 -68.2567 -72.7399A 99.75 99.75 0 0 1 -67.9123 -73.0615A 1.125 1.125 0 0 0 -67.5978 -74.3693C -67.82059210981299 -74.7941433724037 -68.05564936815665 -75.27164460700646 -68.29731138097995 -75.80389380403514 C -68.84583895725896 -77.01211586328304 -69.4275030962776 -78.49988429720281 -69.97462985182781 -80.28626067809988 A 106.5 106.5 0 0 1 -68.1653 -81.8281C -66.48833076714493 -81.0043942799191 -65.1117128179628 -80.19401714205185 -64.00584110054152 -79.46071584585806 C -63.518683227554455 -79.13765711595559 -63.084531582211895 -78.82980700211196 -62.70044121225556 -78.54239420010353 A 1.125 1.125 0 0 0 -61.3593 -78.6454A 99.75 99.75 0 0 1 -60.9871 -78.9344A 1.125 1.125 0 0 0 -60.5549 -80.2082C -60.73820558801952 -80.65151566390294 -60.928867458106836 -81.14841343512154 -61.12112821971106 -81.70043294177582 C -61.55751365326954 -82.95352942639691 -62.00147784848052 -84.48802734981 -62.38389388149863 -86.31675538824449 A 106.5 106.5 0 0 1 -60.4418 -87.6876C -58.846735702704976 -86.71488752223489 -57.54951283191042 -85.7826853407979 -56.51490556755463 -84.95185993499113 C -56.05914336746869 -84.58584005417546 -55.65478478847212 -84.23978589173977 -55.29842160897707 -83.9186366813224 A 1.125 1.125 0 0 0 -53.9535 -83.8993A 99.75 99.75 0 0 1 -53.5565 -84.1532A 1.125 1.125 0 0 0 -53.0103 -85.3824C -53.15252316601932 -85.8405840964697 -53.2972097635483 -86.35276095288035 -53.43847614071279 -86.91997656167676 C -53.75910340441436 -88.20756391955311 -54.06168882867545 -89.77607599939601 -54.27622531947493 -91.63200227890749 A 106.5 106.5 0 0 1 -52.2175 -92.8206C -50.71751805322176 -91.70683389682027 -49.510439458065576 -90.66053119267386 -48.555669728403764 -89.73906615822422 C -48.13507979034524 -89.33311808250096 -47.76386492022766 -88.95172738524842 -47.43818186873113 -88.59950290992134 A 1.125 1.125 0 0 0 -46.1006 -88.4579A 99.75 99.75 0 0 1 -45.6822 -88.6747A 1.125 1.125 0 0 0 -45.0265 -89.8491C -45.12640219737254 -90.31835041484248 -45.223914603628906 -90.84156229770954 -45.31301601866247 -91.41927388147649 C -45.51522829402275 -92.7306827582519 -45.673927629213175 -94.32021180944867 -45.7188068608658 -96.18795754038533 A 106.5 106.5 0 0 1 -43.5606 -97.1844C -42.16803907632964 -95.93886856386726 -41.06110699020495 -94.7871353307373 -40.194086317909345 -93.78266621712363 C -39.81215378256429 -93.34015376009629 -39.47715862464878 -92.92658685145832 -39.184854413485084 -92.54620575415262 A 1.125 1.125 0 0 0 -37.8657 -92.2836A 99.75 99.75 0 0 1 -37.4293 -92.4614A 1.125 1.125 0 0 0 -36.6695 -93.5714C -36.72634964814752 -94.04771043709317 -36.775879844622764 -94.57762184797646 -36.81207797513911 -95.16104230658809 C -36.89419966756034 -96.48540595529852 -36.90769788100844 -98.08278063952952 -36.782547970066595 -99.94686909254271 A 106.5 106.5 0 0 1 -34.5426 -100.743C -33.269142447378066 -99.37592355130053 -32.27152925816428 -98.1283034134801 -31.499442049582367 -97.04915356812222 C -31.1593317302233 -96.57374352737322 -30.863332159890703 -96.13142735300232 -30.60682891381093 -95.72604159128632 A 1.125 1.125 0 0 0 -29.317 -95.3445A 99.75 99.75 0 0 1 -28.8662 -95.482A 1.125 1.125 0 0 0 -28.0087 -96.5182C -28.02197099925386 -96.99776151156418 -28.0231085631411 -97.52998143762446 -28.006103460030637 -98.11427636542007 C -27.96745408330627 -99.44062069178129 -27.835639324564326 -101.03260465934068 -27.541497302604416 -102.87758941043842 A 106.5 106.5 0 0 1 -25.2385 -103.467C -24.09456722642568 -101.98951833903871 -23.21453947119387 -100.65634946991146 -22.54378348409473 -99.51146106829216 C -22.24831364194118 -99.00709284114333 -21.99376240485246 -98.53969257216202 -21.775185590535983 -98.11266130012825 A 1.125 1.125 0 0 0 -20.5254 -97.6154A 99.75 99.75 0 0 1 -20.064 -97.7113A 1.125 1.125 0 0 0 -19.1157 -98.6653C -19.08539347350657 -99.14405858597247 -19.038128978593186 -99.67417688528667 -18.968061551495822 -100.25450463047851 C -18.808961366533502 -101.57183912768744 -18.53292589420579 -103.14524069804548 -18.072229114657954 -104.95583362252631 A 106.5 106.5 0 0 1 -15.7252 -105.333C -14.720336833165833 -103.75799585755308 -13.9651866990491 -102.35032531423272 -13.40132002878768 -101.14918526221545 C -13.152939020006087 -100.62003820264115 -12.941945407879357 -100.13142686487983 -12.763106221647512 -99.68628859813627 A 1.125 1.125 0 0 0 -11.5637 -99.0775A 99.75 99.75 0 0 1 -11.0955 -99.131A 1.125 1.125 0 0 0 -10.0644 -99.9948C -9.990668366742518 -100.46881676681117 -9.89539346151869 -100.99244071219735 -9.772844311202178 -101.5639924963221 C -9.49461167224103 -102.86140131585759 -9.076642803185022 -104.40318278808003 -8.453208744655035 -106.16438074274915 A 106.5 106.5 0 0 1 -6.08157 -106.327C -5.224129092928658 -104.66670194516628 -4.600113991762962 -103.19619412910222 -4.147809015151488 -101.94875545144137 C -3.9485750030049758 -101.39921423862518 -3.7828873753599925 -100.89344061951029 -3.6452677350329634 -100.43388391392568 A 1.125 1.125 0 0 0 -2.50618 -99.7185A 99.75 99.75 0 0 1 -2.03506 -99.7292A 1.125 1.125 0 0 0 -0.929723 -100.496C -0.8131574354610516 -100.96105869057862 -0.6706615977970514 -101.47384936911679 -0.49664620511616686 -102.03188913408843 C -0.10158663542835855 -103.29862153786985 0.45485220867311216 -104.7960072251139 1.2358575752338623 -106.49321636905262 A 106.5 106.5 0 0 1 3.61242 -106.439C 4.315367426243832 -104.70810677705128 4.803076708804825 -103.18694677912464 5.140072050282607 -101.90354614556784 C 5.288508150023244 -101.33816445106997 5.407516853322656 -100.81941955009628 5.502776588063613 -100.34925243726448 A 1.125 1.125 0 0 0 6.57209 -99.5333A 99.75 99.75 0 0 1 7.04223 -99.5011A 1.125 1.125 0 0 0 8.21269 -100.164C 8.37109157442387 -100.61670548566931 8.559627579139955 -101.11441375230036 8.783667267837583 -101.65431740487901 C 9.292280180238766 -102.87987684926779 9.982578171880329 -104.32045894214691 10.91468319003708 -105.93961566587468 A 106.5 106.5 0 0 1 13.2765 -105.67C 13.819105451853774 -103.88186725973118 14.166467603097097 -102.32265989075424 14.385360859909422 -101.01393196314137 C 14.48176905897372 -100.43739471774204 14.553112694331789 -99.90997701853098 14.605223171323798 -99.43309545122186 A 1.125 1.125 0 0 0 15.5959 -98.5232A 99.75 99.75 0 0 1 16.0612 -98.4485A 1.125 1.125 0 0 0 17.2871 -99.0021C 17.485975083157168 -99.43861057118866 17.718988986213308 -99.9171122584686 17.991196507508757 -100.43440598695338 C 18.609148235850164 -101.60863710041937 19.427585348472743 -102.98047848201944 20.503066302490748 -104.50816594299121 A 106.5 106.5 0 0 1 22.8305 -104.025C 23.2083340175429 -102.19482987405979 23.41247068528618 -100.6104952173439 23.51144803896953 -99.28728452744997 C 23.55502946865754 -98.70436910033739 23.57811686024294 -98.17264895204792 23.586646275662137 -97.69300452111587 A 1.125 1.125 0 0 0 24.4905 -96.6968A 99.75 99.75 0 0 1 24.947 -96.5801A 1.125 1.125 0 0 0 26.2182 -97.0199C 26.455964295372077 -97.43653601262366 26.731525270182864 -97.8918661048738 27.04964502682648 -98.38226345051557 C 27.771815028471252 -99.49543618424387 28.711609434403577 -100.78716934483343 29.921554550389168 -102.21072864362236 A 106.5 106.5 0 0 1 32.1954 -101.517C 32.405251018401124 -99.66097394312517 32.46447066192526 -98.0646402946014 32.442711954955385 -96.73791138293076 C 32.43310548581532 -96.15344799491561 32.4077453242303 -95.62183139815477 32.372623000654286 -95.14339858841223 A 1.125 1.125 0 0 0 33.1821 -94.0692A 99.75 99.75 0 0 1 33.6262 -93.9114A 1.125 1.125 0 0 0 34.932 -94.2338C 35.20673105547507 -94.62707163029381 35.522555717018896 -95.05545711896951 35.88395166851946 -95.51489449491807 C 36.70435581539596 -96.55778474905777 37.7577200822145 -97.75870598085369 39.09210337388021 -99.06634105677863 A 106.5 106.5 0 0 1 41.2935 -98.1691C 41.333647903710265 -96.30129579517593 41.24745981039857 -94.70619087820036 41.10514534227404 -93.38693743835107 C 41.04243057653462 -92.80576913713554 40.968833004064926 -92.2786612344498 40.89034997612818 -91.80540449083446 A 1.125 1.125 0 0 0 41.5988 -90.662A 99.75 99.75 0 0 1 42.0267 -90.4645A 1.125 1.125 0 0 0 43.3564 -90.6668C 43.665763754152344 -91.03349753087521 44.0192350798188 -91.4313886789029 44.42091258550525 -91.85605904236733 C 45.33275275047689 -92.82002509982799 46.49095837012347 -93.92018319128911 47.93872271726797 -95.10105856828837 A 106.5 106.5 0 0 1 50.0494 -94.0074C 49.919541164996794 -92.1436347814327 49.68865951653425 -90.56297613770484 49.426968549758044 -89.26212991916113 C 49.311665161719375 -88.68907244832046 49.19044003102909 -88.17084102179722 49.06924663381828 -87.7066818987327 A 1.125 1.125 0 0 0 49.6708 -86.5036A 99.75 99.75 0 0 1 50.0789 -86.268A 1.125 1.125 0 0 0 51.4216 -86.3485C 51.76296818240088 -86.68559120110483 52.151157197464315 -87.04969095712133 52.58978783102146 -87.43607535572556 C 53.585508219309126 -88.31312949016652 54.83895793525764 -89.30340818486663 56.38810670654601 -90.3477387576651 A 106.5 106.5 0 0 1 58.3906 -89.0667C 58.091785386682815 -87.22244259045631 57.718123341121746 -85.6693280553059 57.33922432946071 -84.39766827951914 C 57.172287759309384 -83.83747017373369 57.004439580009674 -83.33240945218334 56.84154006018239 -82.8811941183442 A 1.125 1.125 0 0 0 57.3312 -81.6284A 99.75 99.75 0 0 1 57.7162 -81.3566A 1.125 1.125 0 0 0 59.0606 -81.3148C 59.431248354219285 -81.61938076214751 59.85093840224583 -81.946672080906 60.322887532103 -82.2915688118365 C 61.394237290980236 -83.07444347648305 62.732544624126696 -83.94663701328251 64.3702410849559 -84.8457691298557 A 106.5 106.5 0 0 1 66.2479 -83.3879C 65.78266277940571 -81.57849777060652 65.26931661813563 -80.06579694020493 64.77634923812968 -78.83386098056994 C 64.55916277486045 -78.29116421777131 64.34608238982659 -77.80345929339488 64.1428265841072 -77.3689266611417 A 1.125 1.125 0 0 0 64.5165 -76.0768A 99.75 99.75 0 0 1 64.8752 -75.7712A 1.125 1.125 0 0 0 66.2103 -75.6072C 66.60706248507928 -75.87684642923722 67.05477588215508 -76.16461727179434 67.5561327891881 -76.46516841211789 C 68.69423437714521 -77.14737646094262 70.10630969144476 -77.89425756950956 71.81898337316923 -78.64074073796964 A 106.5 106.5 0 0 1 73.5563 -77.0182C 72.92844431094811 -75.25856782614721 72.27966778193296 -73.79881541598054 71.67671691654647 -72.61681148184095 C 71.41108023559404 -72.09611301832099 71.1545332960033 -71.62980516771816 70.91260544601072 -71.21555591129217 A 1.125 1.125 0 0 0 71.1673 -69.8948A 99.75 99.75 0 0 1 71.4967 -69.5578A 1.125 1.125 0 0 0 72.8113 -69.2731C 73.23094951916372 -69.50557265039258 73.70297637107913 -69.75143845691724 74.22958665406048 -70.00515354523047 C 75.42500940290945 -70.58104198748829 76.89915179759313 -71.19642177573665 78.67261094670191 -71.78407040145464 A 106.5 106.5 0 0 1 80.2552 -70.0103C 79.46991778506916 -68.31502168697752 78.69108685495205 -66.92031366524635 77.9831487449471 -65.7980362134572 C 77.67126299550864 -65.30365072067175 77.37337533009858 -64.8626039175502 77.0947801261899 -64.47207063675252 A 1.125 1.125 0 0 0 77.2283 -63.1336A 99.75 99.75 0 0 1 77.5257 -62.7681A 1.125 1.125 0 0 0 78.809 -62.365C 79.24802184240133 -62.558353806694655 79.7404507860027 -62.76027725568178 80.28795078627857 -62.96505392885866 C 81.53078904663963 -63.4298507715485 83.0547833135632 -63.90863000874704 84.87433248901897 -64.33257465013799 A 106.5 106.5 0 0 1 86.2891 -62.4222C 85.35287849241053 -60.8053957631859 84.45044679956104 -59.487289119803364 83.643387643073 -58.434037694776755 C 83.28783720869271 -57.970061806619334 82.95107720847474 -57.55793070369165 82.63812317824944 -57.19434948028033 A 1.125 1.125 0 0 0 82.6494 -55.8493A 99.75 99.75 0 0 1 82.9123 -55.4582A 1.125 1.125 0 0 0 84.1536 -54.9402C 84.60842009852355 -55.09275674141804 85.1171707125001 -55.24906463157615 85.68102367264026 -55.403206045611 C 86.9609788952724 -55.753059835712634 88.52219673797806 -56.091271206316655 90.37275858226974 -56.347998924566156 A 106.5 106.5 0 0 1 91.6079 -54.3169C 90.52857836778968 -52.79191718023531 89.51002374542384 -51.56133416196896 88.61053108879611 -50.58583633672046 C 88.21426217234921 -50.15611470352347 87.8414203367433 -49.776314348903824 87.49670071585663 -49.44269793140121 A 1.125 1.125 0 0 0 87.3856 -48.1022A 99.75 99.75 0 0 1 87.6119 -47.6888A 1.125 1.125 0 0 0 88.8009 -47.06C 89.26772633939265 -47.17064374303801 89.78858295593263 -47.28004085796213 90.36411661273122 -47.38226974855345 C 91.67058268555452 -47.614281487380204 93.25608736131242 -47.809122465457634 95.12232753618797 -47.89650593383923 A 106.5 106.5 0 0 1 96.1677 -45.7615C 94.95412993202005 -44.34098814540465 93.82789244451924 -43.20812575069987 92.84341976718811 -42.3184648074298 C 92.409715977716 -41.92655823798112 92.00388179159367 -41.58223577702104 91.63025303538922 -41.28134861613069 A 1.125 1.125 0 0 0 91.3977 -39.9565A 99.75 99.75 0 0 1 91.5854 -39.5243A 1.125 1.125 0 0 0 92.7124 -38.79C 93.1873320861092 -38.8576599348251 93.71597872325097 -38.91923977556777 94.29842402357094 -38.968709041932456 C 95.62057515725158 -39.08095620714735 97.21722867498441 -39.13081227899122 99.0836829266068 -39.04812741056563 A 106.5 106.5 0 0 1 99.9305 -36.8269C 98.59286167107082 -35.52263571818616 97.36827367695028 -34.4968812016257 96.3069786295669 -33.700429151097055 C 95.83943377325852 -33.34958510665701 95.40397010649812 -33.04359370370788 95.00452822051932 -32.77792904520542 A 1.125 1.125 0 0 0 94.6525 -31.4797A 99.75 99.75 0 0 1 94.8001 -31.0322A 1.125 1.125 0 0 0 95.8556 -30.1985C 96.33475825102728 -30.222689318679723 96.86681437624515 -30.23594161528679 97.45134499489451 -30.23224133950405 C 98.77822542874456 -30.223793815745342 100.37279741455923 -30.128251858242827 102.22399971518414 -29.876183805870337 A 106.5 106.5 0 0 1 102.865 -27.5872C 101.41462190778121 -26.409931544016594 100.1018307288282 -25.499784630572652 98.97250753639624 -24.803141125308308 C 98.47499583717806 -24.49626681012286 98.01351107886596 -24.23114200631751 97.59156596437904 -24.0029012312309 A 1.125 1.125 0 0 0 97.1229 -22.7421A 99.75 99.75 0 0 1 97.2293 -22.283A 1.125 1.125 0 0 0 98.2046 -21.3567C 98.68392426970361 -21.337283980598635 99.21498109837985 -21.30209892036678 99.79675343056222 -21.24525976408709 C 101.11736821542316 -21.11618755019708 102.69664554365556 -20.87603925409774 104.51725624800805 -20.456676733045857 A 106.5 106.5 0 0 1 104.948 -18.1188C 103.39602864815328 -17.078386359610427 102.00591248552304 -16.291388813246687 100.81791907568054 -15.700326460730029 C 100.29456307217713 -15.43996473202087 99.81088123035933 -15.217903434981217 99.369929257469 -15.02897781825428 A 1.125 1.125 0 0 0 98.7886 -13.816A 99.75 99.75 0 0 1 98.8527 -13.3492A 1.125 1.125 0 0 0 99.7398 -12.338C 100.21536421266829 -12.275071187555348 100.74102124067112 -12.19174032497472 101.3152145376204 -12.082233275347779 C 102.61862064347447 -11.83360590434036 104.16951692481015 -11.450841214057244 105.94444987921639 -10.86765919424814 A 106.5 106.5 0 0 1 106.161 -8.50033C 104.52066333191814 -7.605324287213746 103.06474112593317 -6.947997417453973 101.8279215862171 -6.467413946485319 C 101.28305797109759 -6.255722243534055 100.78118698584466 -6.078564523102685 100.32488202147037 -5.93051956189527 A 1.125 1.125 0 0 0 99.6356 -4.77544A 99.75 99.75 0 0 1 99.6571 -4.30469A 1.125 1.125 0 0 0 100.448 -3.21709" stroke="#191919" stroke-width="0.35 px" style="stroke-width:0.35;stroke-miterlimit:4;stroke-dasharray:none;fill:none;fill-rule: evenodd "/>
<title>b'InvoluteGear'</title>
</g>
</svg>