<?xml version="1.0"?>
<!DOCTYPE svg PUBLIC "-//W3C//DTD SVG 1.1//EN" "http://www.w3.org/Graphics/SVG/1.1/DTD/svg11.dtd">
<svg width="296.7696849623087mm" height="296.8094619038541mm" viewBox="0 0 296.7696849623087 296.8094619038541" xmlns="http://www.w3.org/2000/svg" version="1.1">
<g id="InvoluteGear" transform="translate(148.365040,148.404731) scale(1,-1)">
<path id="InvoluteGear_w0000"  d="M 139.46136277877318 -3.283030899552189 C 139.943847437031 -3.154363488898521 140.45549353507212 -3.0080230909919647 140.99530504677827 -2.841678881195078 C 142.32972528390775 -2.430455482923077 143.8353271345804 -1.8973874279032361 145.49513833472338 -1.2080819912966372 A 145.5 145.5 0 0 1 145.495 1.20808C 143.8353271345804 1.8973874279032361 142.32972528390775 2.430455482923077 140.99530504677827 2.841678881195078 C 140.45549353507212 3.0080230909919647 139.943847437031 3.154363488898521 139.46136701793614 3.2830293152396752 A 1.125 1.125 0 0 0 138.681 4.38088A 138.75 138.75 0 0 1 138.667 4.79419A 1.125 1.125 0 0 0 139.373 5.94123C 139.84635174425168 6.101503775475614 140.3472074707823 6.281339208306896 140.8748449672676 6.4829961858855665 C 142.1791696696317 6.981513109720508 143.64624893415706 7.612921785327123 145.25687456918584 8.410418035376964 A 145.5 145.5 0 0 1 145.097 10.8213C 143.39545004655233 11.399399848677982 141.85790922354371 11.831796312138975 140.49922853181923 12.153928009558067 C 139.9496034632846 12.28423207066794 139.42940429193774 12.396437524324217 138.93947515525304 12.492934626381098 A 1.125 1.125 0 0 0 138.088 13.5368A 138.75 138.75 0 0 1 138.047 13.9483A 1.125 1.125 0 0 0 138.676 15.1395C 139.1373435374577 15.33069071629126 139.62521877782225 15.543234809456381 140.13837503456534 15.779322760162993 C 141.4069007221098 16.362953321894366 142.82904223614418 17.08994162860341 144.38343944996046 17.992141443908015 A 145.5 145.5 0 0 1 144.065 20.3872C 142.3285411406576 20.851565594349818 140.7657846201239 21.181399706535146 139.3887846387699 21.41303110315091 C 138.83174938398625 21.506725229068785 138.30527183795175 21.584305092575224 137.81003631913558 21.648211513073026 A 1.125 1.125 0 0 0 136.892 22.6335A 138.75 138.75 0 0 1 136.823 23.0414A 1.125 1.125 0 0 0 137.372 24.2716C 137.81992312913914 24.492840447307938 138.29268452904526 24.737163799566687 138.78911564430163 25.006650370862438 C 140.0162953769554 25.672842502541325 141.38728047750408 26.492231505460673 142.87865228658882 27.49518979578123 A 145.5 145.5 0 0 1 142.402 29.8639C 140.63926573807987 30.212552749098805 139.0581270566615 30.438382229358066 137.66882905623598 30.578500460008833 C 137.10681938864175 30.63517495016137 136.5763656202728 30.67778998651409 136.07798925824238 30.70882627893616 A 1.125 1.125 0 0 0 135.096 31.6313A 138.75 138.75 0 0 1 135.001 32.0338A 1.125 1.125 0 0 0 135.468 33.2975C 135.8998512635403 33.547889218946835 136.35543155767445 33.82292346644481 136.83296676448782 34.12463026212093 C 138.01343439752063 34.870470875059794 139.32726811556898 35.778677594563014 140.74909313046206 36.87800867848619 A 145.5 145.5 0 0 1 140.117 39.2101C 138.33501061033968 39.441428097883865 136.74240368518937 39.56226545135938 135.3468827123586 39.610257814673844 C 134.78235615723386 39.62966484593573 134.25024570589216 39.637128710423625 133.750907773673 39.63515916096001 A 1.125 1.125 0 0 0 132.71 40.4907A 138.75 138.75 0 0 1 132.589 40.8861A 1.125 1.125 0 0 0 132.971 42.1779C 133.38552392639104 42.45624160687399 133.82193097804375 42.76078409482594 134.2784821364576 43.093391827830466 C 135.40707578526545 43.91561955079878 136.6580130602531 44.90867262998337 138.0040740019301 46.09956941239029 A 145.5 145.5 0 0 1 137.22 48.3848C 135.42585167882146 48.49783611697717 133.82874057480396 48.51315295266775 132.43309888770918 48.468809590252214 C 131.86852397604272 48.45086430061362 131.3370836253431 48.42314435565636 130.8389676006625 48.38817757664573 A 1.125 1.125 0 0 0 129.744 49.1731A 138.75 138.75 0 0 1 129.597 49.5596A 1.125 1.125 0 0 0 129.893 50.8738C 130.28793563139754 51.17894365271633 130.70326114357022 51.51166269430948 131.13683187153256 51.87371695565388 C 132.2086164832458 52.76873639602472 133.3911872847547 53.842293466445405 134.65559817120607 55.11954845871544 A 145.5 145.5 0 0 1 133.722 57.348C 131.9245099553336 57.34217543840149 130.3298784329417 57.25190477968185 128.94021881757695 57.115419593777524 C 128.3780642918084 57.06020045342407 127.8496178951861 56.99741791128798 127.35490191268053 56.92960680355809 A 1.125 1.125 0 0 0 126.211 57.6405A 138.75 138.75 0 0 1 126.038 58.0164A 1.125 1.125 0 0 0 126.246 59.3472C 126.62063134403094 59.67785319981035 127.01305920393327 60.03729389933203 127.42175360696739 60.42721151785165 C 128.4320425401813 61.39110898333881 129.54107578698677 62.540475653079866 130.71830767111967 63.89850374411347 A 145.5 145.5 0 0 1 129.639 66.0603C 127.84629591636002 65.93577201663628 126.26111689350702 65.74030859412873 124.88351597778869 65.51227839972663 C 124.32623999662604 65.42002686790927 123.8030983157169 65.32245626067687 123.31394564250355 65.22209734494812 A 1.125 1.125 0 0 0 122.125 65.8558A 138.75 138.75 0 0 1 121.928 66.2195A 1.125 1.125 0 0 0 122.048 67.5612C 122.39964725283998 67.91580667914829 122.767461473289 68.30039729387471 123.14949243475763 68.71647325903345 C 124.0938679530227 69.74503387127207 125.12451412491622 70.96518425232875 126.20941927123333 72.39804713081718 A 145.5 145.5 0 0 1 124.99 74.4838C 123.2090425542424 74.24104824037855 121.64024761546615 73.94124676589651 120.28072929768527 73.62266868101727 C 119.73076868720223 73.4937881502124 119.21521928746994 73.36185612932348 118.73376886372999 73.2293882495993 A 1.125 1.125 0 0 0 117.506 73.7831A 138.75 138.75 0 0 1 117.285 74.133A 1.125 1.125 0 0 0 117.316 75.4797C 117.64344064727862 75.85678161620972 117.98503287027407 76.26484042923694 118.33872986598574 76.70525534670452 C 119.21306245544515 77.79398147184172 120.16081479895213 79.07958015704975 121.1486491932892 80.58101227819947 A 145.5 145.5 0 0 1 119.794 82.5816C 118.03302739804191 82.22168724987597 116.48747648444935 81.81885867898659 115.15198559229707 81.41112576453722 C 114.61174519031263 81.24617979651397 114.10604243810712 81.08046326712743 113.63439952404451 80.91646567174102 A 1.125 1.125 0 0 0 112.373 81.3878A 138.75 138.75 0 0 1 112.129 81.7224A 1.125 1.125 0 0 0 112.071 83.0682C 112.37280920867543 83.46605414807706 112.68668573834002 83.89579682204123 113.01050214132628 84.35862486944163 C 113.81096856802938 85.502755785145 114.67168280329541 86.84818117855855 115.5581268971882 88.4116171617245 A 145.5 145.5 0 0 1 114.074 90.3183C 112.34088384506397 89.8427917413143 110.82533525755406 89.33869754086335 109.51971155290273 88.84359270913615 C 108.99155369323735 88.64330257064427 108.49790889802422 88.4445261689786 108.03813586809846 88.24971597768746 A 1.125 1.125 0 0 0 106.748 88.6367A 138.75 138.75 0 0 1 106.483 88.9544A 1.125 1.125 0 0 0 106.336 90.2934C 106.61080006726488 90.71035086205312 106.89558840139635 91.15989824158366 107.188108244918 91.64311558962643 C 107.91120827284954 92.83764830251148 108.68112071552184 94.23701720121186 109.46229831449239 95.85562053863646 A 145.5 145.5 0 0 1 107.855 97.6601C 106.15750219077074 97.07103656384758 104.67858303770419 96.46788100951316 103.40853568081457 95.88756922796401 C 102.89476986340533 95.65281073681778 102.41534160827231 95.42184366150128 101.96944893295975 95.1970727297049 A 1.125 1.125 0 0 0 100.656 95.4979A 138.75 138.75 0 0 1 100.371 95.7975A 1.125 1.125 0 0 0 100.136 97.1238C 100.38260902295085 97.55799429182878 100.6370638546249 98.02538062061673 100.89700802383423 98.52687428278755 C 101.53957972055586 99.76658540523476 102.21532373941727 101.21377872507998 102.8878189525862 102.88047167620215 A 145.5 145.5 0 0 1 101.165 104.575C 99.50992078985195 103.87481444200381 98.07409800839254 103.1752349795596 96.84518059320855 102.51225380395611 C 96.3480533852537 102.24405349930593 95.88493808797591 101.98190571059226 95.45487554249388 101.72815690438523 A 1.125 1.125 0 0 0 94.1248 101.942A 138.75 138.75 0 0 1 93.8206 102.222A 1.125 1.125 0 0 0 93.4981 103.529C 93.71547037048444 103.97904143498322 93.93847903346503 104.46222295153343 94.16471085864967 104.97980002364642 C 94.723944421626 106.25926861434642 95.30256516001667 107.74795814716913 95.86343733692485 109.45545268778285 A 145.5 145.5 0 0 1 94.0327 111.032C 92.42720782437947 110.22437418625836 91.04075990222329 109.43142989869433 89.85834617191881 108.6886783770301 C 89.38003138421092 108.38820903056798 88.93525413014945 108.09602683403698 88.52290226858523 107.81440973238558 A 1.125 1.125 0 0 0 87.1817 107.939A 138.75 138.75 0 0 1 86.8596 108.199A 1.125 1.125 0 0 0 86.4514 109.482C 86.63853781082251 109.94541468611494 86.82912514496822 110.44227856059506 87.0206553719185 110.9736758098049 C 87.49410541506863 112.28730707815544 87.97307271172242 113.81098316340707 88.41986930104717 115.551812854337 A 145.5 145.5 0 0 1 86.4889 117.004C 84.94033419604322 116.091950787416 83.60932371718947 115.20910901834688 82.47858406615667 114.38983501404228 C 82.02117324756112 114.05841050176961 81.59667893447993 113.73747153582455 81.20384086660638 113.42921757866037 A 1.125 1.125 0 0 0 79.8573 113.465A 138.75 138.75 0 0 1 79.5187 113.703A 1.125 1.125 0 0 0 79.0266 114.957C 79.18275696941109 115.43102461306614 79.34008958480223 115.93939818617389 79.49608070056817 116.48229194751723 C 79.88167694731692 117.82434171821889 80.25889640011282 119.37634170805907 80.58966367405084 121.1428943439992 A 145.5 145.5 0 0 1 78.5669 122.464C 77.08203809827812 121.45188682593172 75.81228523289178 120.48300801778554 74.73816409792201 119.59079400760733 C 74.30365738956601 119.22986356458946 73.90130222308892 118.8815712136695 73.52969572982408 118.54802831711584 A 1.125 1.125 0 0 0 72.1837 118.495A 138.75 138.75 0 0 1 71.8302 118.71A 1.125 1.125 0 0 0 71.2562 119.928C 71.38073007883905 120.4118840393714 71.50411999997986 120.9295443228209 71.62388989510222 121.48156066001195 C 71.91994623117269 122.8461604908853 72.19376835542245 124.41969788424555 72.4070599528444 126.20424877999623 A 145.5 145.5 0 0 1 70.3014 127.389C 68.88668186047413 126.28074466527806 67.68373891476271 125.23006547856372 66.67093315428244 124.26881288736564 C 66.26123054344684 123.87995477059562 65.88277392034259 123.50583202853268 65.53402394233088 123.14845869081032 A 1.125 1.125 0 0 0 64.1945 123.007A 138.75 138.75 0 0 1 63.8276 123.197A 1.125 1.125 0 0 0 63.1743 124.375C 63.26657341757024 124.86621293407714 63.355481091730624 125.39089633116109 63.43850604293199 125.94962141721096 C 63.64372788929439 127.33080426040107 63.812955330519266 128.91899837862718 63.90783858153905 130.7137441471781 A 145.5 145.5 0 0 1 61.7285 131.757C 60.39010169025277 130.5574089387663 59.25922882764403 129.42952372623506 58.312167183548 128.40343586701968 C 57.92906019550625 127.98835045410203 57.57615701029411 127.59003326445628 57.25178854245428 127.21039218824187 A 1.125 1.125 0 0 0 55.9245 126.98A 138.75 138.75 0 0 1 55.5458 127.146A 1.125 1.125 0 0 0 54.8161 128.279C 54.87576812813831 128.77453365027537 54.92980478468059 129.30394585399745 54.975721744974024 129.8669365262655 C 55.08921171871036 131.25866282062384 55.1531044883677 132.8545688949331 55.129164492670455 134.65166156968903 A 145.5 145.5 0 0 1 52.8856 135.549C 51.629450970849405 134.2631788816725 50.575593210635006 133.06301959838237 49.698416942524815 131.97658329228275 C 49.34358080665883 131.53708564611486 49.0177742151759 131.1163157486098 48.71920563828628 130.7160670077347 A 1.125 1.125 0 0 0 47.4101 130.399A 138.75 138.75 0 0 1 47.0212 130.54A 1.125 1.125 0 0 0 46.2183 131.621C 46.24500506713794 132.11975609589769 46.26393441751202 132.6515821213934 46.27254260371315 133.21637656491575 C 46.29380444204438 134.61256064546455 46.2520831533092 136.20920018465236 46.10942459440488 138.00078153659447 A 145.5 145.5 0 0 1 43.8115 138.747C 42.64303779882145 137.3818501049233 41.67080339284583 136.11466474205457 40.86734816935535 134.9726306986071 C 40.54233449380362 134.51064263057094 40.245049165377026 134.06925994490865 39.97358604385732 133.6501537252784 A 1.125 1.125 0 0 0 38.6883 133.247A 138.75 138.75 0 0 1 38.291 133.362A 1.125 1.125 0 0 0 37.4183 134.388C 37.41202436544475 134.88725246433953 37.39576363641778 135.4191667717159 37.36702540711861 135.983295284096 C 37.29596613743553 137.37783199309263 37.148813226887995 138.9682232986992 36.88805991435699 140.74645919842104 A 145.5 145.5 0 0 1 34.5458 141.34C 33.47015747248932 139.8997854527665 32.58379775443686 138.5711150894914 31.857576880829235 137.37847713299178 C 31.56380686769927 136.89601879936177 31.296342755429674 136.43595337972235 31.053172128439858 135.999822326199 A 1.125 1.125 0 0 0 29.7973 135.513A 138.75 138.75 0 0 1 29.3933 135.601A 1.125 1.125 0 0 0 28.4547 136.567C 28.415450400225268 137.06492119813677 28.36407069582794 137.59459786146658 28.2981117159931 138.15559365225522 C 28.13504206240188 139.54238503549377 27.8831009922786 141.11957373099494 27.505393134011168 142.87668840535702 A 145.5 145.5 0 0 1 25.1291 143.314C 24.150920663594825 141.80597463458327 23.354311458989372 140.42162920833684 22.70850051436703 139.18360244111688 C 22.44725874518013 138.68278350943046 22.210785401577567 138.20604710483607 21.996970592397734 137.7547983075486 A 1.125 1.125 0 0 0 20.776 137.186A 138.75 138.75 0 0 1 20.3671 137.247A 1.125 1.125 0 0 0 19.3667 138.149C 19.294622900363148 138.64323990599715 19.208348890969873 139.16836278400132 19.105457582435736 139.72377276134378 C 18.85109060704049 141.09675473295715 18.495463051537843 142.65384417348355 18.00245226789513 144.3821542070908 A 145.5 145.5 0 0 1 15.6025 144.661C 14.726078023539483 143.09208237008767 14.022702701745494 141.6581152711894 13.460125653050714 140.3801132693017 C 13.232554471593808 139.86312369332 13.028105934422163 139.3718009507683 12.844581900810343 138.90740760589256 A 1.125 1.125 0 0 0 11.6639 138.259A 138.75 138.75 0 0 1 11.2518 138.293A 1.125 1.125 0 0 0 10.194 139.127C 10.089424923834306 139.61530700179483 9.968633863736807 140.1335798657388 9.829260144016192 140.6809753631213 C 9.484708128879815 142.0341442222858 9.026949156813004 143.564325651896 8.420791258511429 145.2562735847184 A 145.5 145.5 0 0 1 6.0076 145.376C 5.236841991154411 143.75248483738642 4.629776233488995 142.2751664391047 4.152893087014996 140.9627775801318 C 3.9599876041619413 140.43187802372904 3.788457874854877 139.92811737256224 3.636027120714648 139.45261015403634 A 1.125 1.125 0 0 0 2.50082 138.727A 138.75 138.75 0 0 1 2.08734 138.734A 1.125 1.125 0 0 0 0.976736 139.497C 0.8401084592420873 139.97687188345012 0.6853285370123903 140.48602845796796 0.5100818519197206 141.02301585415847 C 0.07685143533743322 142.35045453774993 -0.4810372897797608 143.84703686238785 -1.1976917284802586 145.4952242366103 A 145.5 145.5 0 0 1 -3.61353 145.455C -4.27529341880874 143.7842942645212 -4.7833950682476365 142.27008450432643 -5.172499023838304 140.92904753082763 C -5.329895281493386 140.3865594826832 -5.467756147073214 139.8725637400532 -5.588427080838104 139.38802191995683 A 1.125 1.125 0 0 0 -6.67322 138.589A 138.75 138.75 0 0 1 -7.08625 138.569A 1.125 1.125 0 0 0 -8.24481 139.256C -8.412881585887295 139.72635351973133 -8.600973557031102 140.22416739267123 -8.811326898331252 140.74839857841593 C -9.331341309977821 142.04430253482124 -9.986920282698302 143.500741580768 -10.810937514281083 145.09796129236378 A 145.5 145.5 0 0 1 -13.2188 144.898C -13.768734058446652 143.18737155696064 -14.175649800426173 141.64289168886236 -14.475273112538368 140.27907061431264 C -14.59647189120827 139.72736623663167 -14.700061062572658 139.20538297514122 -14.788444512672072 138.71392533156802 A 1.125 1.125 0 0 0 -15.8181 137.845A 138.75 138.75 0 0 1 -16.2289 137.798A 1.125 1.125 0 0 0 -17.4303 138.407C -17.629084240394526 138.86484736370173 -17.849665782120297 139.34914172165983 -18.09420595798821 139.85832436736754 C -18.69873047398812 141.117026938312 -19.44913301426809 142.52695406819245 -20.376909821040368 144.0662218817554 A 145.5 145.5 0 0 1 -22.7664 143.708C -23.201967527329895 141.9643269058254 -23.505918022845 140.39633054731314 -23.714750514970277 139.01568901426415 C -23.799221843233397 138.457180769916 -23.868086351292952 137.92949248955543 -23.923795839387672 137.4332680417355 A 1.125 1.125 0 0 0 -24.8938 136.499A 138.75 138.75 0 0 1 -25.3005 136.424A 1.125 1.125 0 0 0 -26.5396 136.952C -26.768199395019504 137.39612056258204 -27.020305960369495 137.86477770955366 -27.2979636588363 138.35668528906993 C -27.984354847294828 139.57268248847194 -28.826299635756218 140.92993244968554 -29.853779085803236 142.4045175387145 A 145.5 145.5 0 0 1 -32.2143 141.889C -32.53374469566787 140.12050837418636 -32.7334008465381 138.53585197437874 -32.850529347323224 137.14442717696753 C -32.89790385355374 136.58155728039918 -32.93174257133643 136.05047142775481 -32.95453449400961 135.5516500389403 A 1.125 1.125 0 0 0 -33.8606 134.555A 138.75 138.75 0 0 1 -34.2615 134.453A 1.125 1.125 0 0 0 -35.5328 134.899C -35.79026402452511 135.32659548497438 -36.07279321563442 135.7775661024998 -36.38235431023127 136.25004762913915 C -37.147610757124966 137.4180222106411 -38.077416183430216 138.71666009444277 -39.20010537054627 140.12011447353325 A 145.5 145.5 0 0 1 -41.5214 139.45C -41.72326007625796 137.66397851134576 -41.81774883693558 136.06959136948305 -41.84266117324851 134.6734676543179 C -41.85273170078453 134.10869739237188 -41.851396660187326 133.57653627074913 -41.841171354160224 133.07729915995446 A 1.125 1.125 0 0 0 -42.6794 132.023A 138.75 138.75 0 0 1 -43.0727 131.895A 1.125 1.125 0 0 0 -44.3707 132.255C -44.655826935838526 132.6653216374782 -44.96754332444047 133.09663374579088 -45.30765418326466 133.5476231780543 C -46.14842961686124 134.6624678859879 -47.16202987845852 135.89681507933403 -48.375019568482635 137.22300179957773 A 145.5 145.5 0 0 1 -50.647 136.401C -50.73033025649861 134.60547909736033 -50.71923845167466 133.00833306274194 -50.651825688207325 131.613615323603 C -50.62454820119426 131.04941429293604 -50.58804524001001 130.51850490751804 -50.5448474179442 130.02103511160396 A 1.125 1.125 0 0 0 -51.3116 128.913A 138.75 138.75 0 0 1 -51.6956 128.76A 1.125 1.125 0 0 0 -53.0145 129.034C -53.32612127808071 129.42393609350063 -53.66566180772029 129.83370367449285 -54.03483521252315 130.26122895034177 C -54.94745313577634 131.31806885245754 -56.04041601661966 132.48272786913594 -57.33840211426748 133.7258478534369 A 145.5 145.5 0 0 1 -59.5511 132.755C -59.51556961022851 130.95838417197035 -59.39894574154333 129.3654631578317 -59.23950265715803 127.9782501405237 C -59.174996433106166 127.41708544868894 -59.103485169496416 126.8897493311348 -59.027503724476624 126.39622215894394 A 1.125 1.125 0 0 0 -59.7193 125.24A 138.75 138.75 0 0 1 -60.0924 125.062A 1.125 1.125 0 0 0 -61.4265 125.248C -61.7632340601414 125.61661260729527 -62.12911400647435 126.00304385159565 -62.52573565588826 126.40523551177724 C -63.506205422823946 127.39944931608302 -64.67375167432617 128.4893273985467 -66.05105841664908 129.64394479951 A 145.5 145.5 0 0 1 -68.1947 128.529C -68.0405625210485 126.73864155332666 -67.81891655500634 125.15691099796369 -67.56814035374279 123.78326863205221 C -67.46668746195711 123.2275941094657 -67.36048059648246 122.70613716644336 -67.25204777603524 122.21871068672785 A 1.125 1.125 0 0 0 -67.866 121.02A 138.75 138.75 0 0 1 -68.2264 120.817A 1.125 1.125 0 0 0 -69.5699 120.914C -69.93027193454303 121.25999963574125 -70.32089139765765 121.6214047778411 -70.74322696612516 121.99650414055803 C -71.78726123192084 122.92374440305288 -73.02428547139175 123.93407579175316 -74.47489024644415 124.99514176126242 A 145.5 145.5 0 0 1 -76.5402 123.741C -76.26803136403797 121.9647031022396 -75.94233250205326 120.40107951091927 -75.60131976443272 119.04701438496424 C -75.46336383259558 118.4992598549288 -75.32292578085573 117.98596228497186 -75.18251573411551 117.50676788970789 A 1.125 1.125 0 0 0 -75.7159 116.27A 138.75 138.75 0 0 1 -76.0621 116.044A 1.125 1.125 0 0 0 -77.4091 116.052C -77.79152252266192 116.37314753887723 -78.20517342303427 116.70794624604515 -78.65137614457248 117.05431309722364 C -79.75440961302536 117.91052523216443 -81.05550264821117 118.83689200500474 -82.57306233040006 119.79976677155032 A 145.5 145.5 0 0 1 -84.551 118.412C -84.16199951132346 116.65744403688656 -83.73367195164968 115.11876473772917 -83.3039138396073 113.79019783400138 C -83.13005811390744 113.25275848770748 -82.95600297576996 112.74986481048724 -82.78422968014554 112.28099789484024 A 1.125 1.125 0 0 0 -83.2347 111.011A 138.75 138.75 0 0 1 -83.5652 110.763A 1.125 1.125 0 0 0 -84.9098 110.682C -85.31261057587348 110.97742527752419 -85.74748412336453 111.2841535601991 -86.21560286700293 111.60027332572768 C -87.3728122534086 112.38171333530083 -88.73228473551336 113.22006472608605 -90.3101634224727 114.08053788330534 A 145.5 145.5 0 0 1 -92.1921 112.565C -91.68794864871879 110.8400716507944 -91.15886535879176 109.33306489687736 -90.6422410952049 108.03580570040951 C -90.43324580249538 107.5110316233738 -90.22633467679317 107.02074086498567 -90.02394925320075 106.56425166468044 A 1.125 1.125 0 0 0 -90.3895 105.268A 138.75 138.75 0 0 1 -90.7028 104.998A 1.125 1.125 0 0 0 -92.0392 104.829C -92.46064828976834 105.09642697225658 -92.91484289300308 105.37374358570155 -93.40283069458269 105.6582339542783 C -94.60915581673191 106.36148480014963 -96.02106311849224 107.1081549115559 -97.65236114819552 107.86246382926907 A 145.5 145.5 0 0 1 -99.43 106.226C -98.81296971553024 104.53802383324945 -98.18544424195815 103.06927938166855 -97.58421289328288 101.80900047685535 C -97.34099191680247 101.29918637259443 -97.10212957324227 100.82364244977649 -96.87001700164477 100.38152707593795 A 1.125 1.125 0 0 0 -97.1491 99.0637A 138.75 138.75 0 0 1 -97.4439 98.7737A 1.125 1.125 0 0 0 -98.7662 98.5165C -99.20437911415274 98.75586873231666 -99.6759086956954 99.00256104154084 -100.18163170872234 99.254178009169 C -101.43179761379035 99.87616455432293 -102.88996582381787 100.52788838793401 -104.5675499450447 101.1727346651684 A 145.5 145.5 0 0 1 -106.233 99.4224C -105.50590680750548 97.77885783588033 -104.78268315951821 96.35479813241857 -104.09947375746646 95.13701039824848 C -103.82309064066075 94.64438555412448 -103.55332156349542 94.18566789945496 -103.29249681311025 93.75985961012216 A 1.125 1.125 0 0 0 -103.484 92.4265A 138.75 138.75 0 0 1 -103.759 92.1176A 1.125 1.125 0 0 0 -105.061 91.7736C -105.51431442999011 91.98347620561144 -106.00111711095542 92.19846548791442 -106.52236393736864 92.41610879761535 C -107.81090396794174 92.95411125314665 -109.30895688766675 93.50803898646117 -111.02549145189538 94.04060287451955 A 145.5 145.5 0 0 1 -112.572 92.184C -111.73749341367589 90.5921297718078 -110.92173406427086 89.21898186721417 -110.15953410972365 88.0490103795978 C -109.85119740564022 87.57572891871179 -109.55170122640477 87.13584338777956 -109.2633048175018 86.72820413426014 A 1.125 1.125 0 0 0 -109.366 85.3851A 138.75 138.75 0 0 1 -109.62 85.0587A 1.125 1.125 0 0 0 -110.897 84.6294C -111.36286249562866 84.80886334150935 -111.86280961175365 84.99120950346091 -112.397300971806 85.17392745641794 C -113.71858067018347 85.6255932744766 -115.24996769534893 86.07930272245679 -116.99794673368085 86.49725545496092 A 145.5 145.5 0 0 1 -118.418 84.5425C -117.48048039136226 83.00926537428262 -116.57575244861461 81.69303369496352 -115.7378948480409 80.57599444153152 C -115.39895283463423 80.1241259032914 -115.07103917391743 79.70499600359983 -114.75633219061389 79.3173082886307 A 1.125 1.125 0 0 0 -114.77 77.9703A 138.75 138.75 0 0 1 -115.002 77.6279A 1.125 1.125 0 0 0 -116.248 77.1151C -116.72444909846759 77.26340289657422 -117.23535450821876 77.41230858480388 -117.78075320718742 77.55930220189903 C -119.12899495343142 77.92265636278341 -120.68701971821862 78.27416356945399 -122.45879976307072 78.5756775454475 A 145.5 145.5 0 0 1 -123.747 76.5314C -122.70975511974267 75.0634225799498 -121.72001472874926 73.80986267214013 -120.81016322025391 72.75064018133104 C -120.4420980047091 72.32216047188219 -120.08720074551569 71.92561895184026 -119.74755932137629 71.55957803515666 A 1.125 1.125 0 0 0 -119.672 70.2146A 138.75 138.75 0 0 1 -119.881 69.8576A 1.125 1.125 0 0 0 -121.09 69.2636C -121.5756293844817 69.38008924948318 -122.09525902849573 69.49490333730351 -122.64918017664002 69.60552985284991 C -124.01848845263754 69.87898350126544 -125.59633811117008 70.12675141504823 -127.38417161921356 70.31050819063059 A 145.5 145.5 0 0 1 -128.534 68.1856C -127.40245131095382 66.78934653762806 -126.33202635461734 65.60393989985197 -125.35415948734664 64.60716588211213 C -124.95858052520161 64.20394863420263 -124.57825154294686 63.83172946898244 -124.21516084350186 63.488935954378476 A 1.125 1.125 0 0 0 -124.051 62.1519A 138.75 138.75 0 0 1 -124.236 61.7819A 1.125 1.125 0 0 0 -125.403 61.1093C -125.89519037660263 61.19339412500408 -126.42127204665954 61.27361455962207 -126.98129348773696 61.34739023201477 C -128.3656806568005 61.52974762473379 -129.95645567398586 61.67269281958331 -131.752524904182 61.737888873129506 A 145.5 145.5 0 0 1 -132.76 59.5416C -131.5380489985496 58.223217676614986 -130.39162017284784 57.11114779048749 -129.35001390980628 56.18118088497973 C -128.92865096721238 55.80498926504111 -128.52455334376572 55.458720074345614 -128.13960107225986 55.140672910641115 A 1.125 1.125 0 0 0 -127.888 53.8174A 138.75 138.75 0 0 1 -128.047 53.436A 1.125 1.125 0 0 0 -129.168 52.6877C -129.6642437336704 52.739115857913504 -130.19447700848195 52.784391855779646 -130.75814991122115 52.82099408277459 C -132.1515624005005 52.91145781731729 -133.74830672194133 52.94895523026709 -135.544757920534 52.89530547602329 A 145.5 145.5 0 0 1 -136.404 50.6372C -135.09846426609357 49.40249349887482 -133.88104461258672 48.36862316305564 -132.78025363293887 47.50952987843924 C -132.33494922283353 47.1620088767082 -131.90884997428464 46.84320380760444 -131.50371942905494 46.55129373412313 A 1.125 1.125 0 0 0 -131.165 45.2476A 138.75 138.75 0 0 1 -131.299 44.8564A 1.125 1.125 0 0 0 -132.367 44.0357C -132.86630834434317 44.05422285598766 -133.3983746487099 44.06435643668319 -133.96323421492673 44.0636251660547 C -135.3595789861427 44.06179966752732 -136.95531045519317 43.9936853319313 -138.74428819817552 43.82142436662231 A 145.5 145.5 0 0 1 -139.453 41.5115C -138.06812832352404 40.36574478691344 -136.78504130859966 39.41459485332566 -135.62987909121694 38.63013178594867 C -135.16258041648334 38.31280102334339 -134.71634276643056 38.02285412928258 -134.29280548027083 37.75835759450291 A 1.125 1.125 0 0 0 -133.869 36.4799A 138.75 138.75 0 0 1 -133.977 36.0807A 1.125 1.125 0 0 0 -134.988 35.1912C -135.487382394804 35.176691946561135 -136.0189551381545 35.15163879851604 -136.58253138068744 35.113577227924516 C -137.97570257343807 35.01947047876763 -139.56344346239794 34.84604224128452 -141.33712500528304 34.55592331828197 A 145.5 145.5 0 0 1 -141.891 32.2042C -140.4340555855119 31.152486943560117 -139.09091182222073 30.288216548855075 -137.8864295975631 29.581813956114267 C -137.39918003640756 29.296061039318765 -136.9347552685549 29.03624018429524 -136.49466326225374 28.800313764265958 A 1.125 1.125 0 0 0 -135.987 27.5527A 138.75 138.75 0 0 1 -136.068 27.1472A 1.125 1.125 0 0 0 -137.019 26.1928C -137.51600459512986 26.14534231352351 -138.04475934510958 26.085211987779743 -138.60458788844494 26.009986550789087 C -139.98849351957938 25.824010055872463 -141.56130104152217 25.546026274058118 -143.31193052621416 25.139318009595158 A 145.5 145.5 0 0 1 -143.71 22.7561C -142.18590045412125 21.80300720116497 -140.78857316839395 21.029395579875867 -139.5400378307644 20.40414238057395 C -139.03496800154318 20.1512168343871 -138.5543869272334 19.922658148891703 -138.09966461115846 19.716333489819057 A 1.125 1.125 0 0 0 -137.51 18.505A 138.75 138.75 0 0 1 -137.565 18.0951A 1.125 1.125 0 0 0 -138.45 17.0799C -138.9433042965964 16.999665750905734 -139.46692894321873 16.904721182078347 -140.0205617995779 16.792660820384345 C -141.38915040188877 16.515627807600858 -142.94014706970228 16.13430403380364 -144.66006943889047 15.612784859638907 A 145.5 145.5 0 0 1 -144.899 13.2085C -143.31600255747674 12.35818845578291 -141.87060190600127 11.67861841469379 -140.58347298275694 11.137248681983428 C -140.06279142732458 10.918256485464946 -139.5681555053177 10.721959398475436 -139.10079126445873 10.546138705596812 A 1.125 1.125 0 0 0 -138.433 9.37638A 138.75 138.75 0 0 1 -138.46 8.96374A 1.125 1.125 0 0 0 -139.277 7.8923C -139.76304028076774 7.779653975312475 -140.27924514668277 7.650310331843494 -140.82426142044991 7.501905056895468 C -142.1715485041996 7.135026921122414 -143.6939522040873 6.652030587182054 -145.3756466748641 6.0179809739701104 A 145.5 145.5 0 0 1 -145.456 3.60314C -143.81942024662087 2.8593304966708324 -142.3322665986819 2.276773622663248 -141.0121723771102 1.8216546286407889 C -140.47815590342768 1.637553378946214 -139.97162805075672 1.474376247678646 -139.493665550024 1.329828340148615 A 1.125 1.125 0 0 0 -138.75 0.206769A 138.75 138.75 0 0 1 -138.75 -0.206769A 1.125 1.125 0 0 0 -139.494 -1.32983C -139.97162805075672 -1.4743762476786735 -140.47815590342768 -1.6375533789462415 -141.0121723771102 -1.8216546286408164 C -142.3322665986819 -2.2767736226632755 -143.81942024662087 -2.85933049667086 -145.45553319695173 -3.6031380112974665 A 145.5 145.5 0 0 1 -145.376 -6.01798C -143.6939522040873 -6.6520305871820815 -142.1715485041996 -7.13502692112244 -140.82426142044991 -7.501905056895495 C -140.27924514668277 -7.650310331843521 -139.76304028076774 -7.7796539753125025 -139.27656952856535 -7.892297026272728 A 1.125 1.125 0 0 0 -138.46 -8.96374A 138.75 138.75 0 0 1 -138.433 -9.37638A 1.125 1.125 0 0 0 -139.101 -10.5461C -139.5681555053177 -10.721959398475464 -140.06279142732458 -10.918256485464974 -140.58347298275694 -11.137248681983456 C -141.87060190600127 -11.678618414693819 -143.31600255747674 -12.358188455782939 -144.8993796817185 -13.208501390815307 A 145.5 145.5 0 0 1 -144.66 -15.6128C -142.94014706970228 -16.13430403380367 -141.38915040188877 -16.515627807600886 -140.0205617995779 -16.792660820384373 C -139.46692894321873 -16.904721182078376 -138.9433042965964 -16.999665750905763 -138.4504525057473 -17.079911385894953 A 1.125 1.125 0 0 0 -137.565 -18.0951A 138.75 138.75 0 0 1 -137.51 -18.505A 1.125 1.125 0 0 0 -138.1 -19.7163C -138.5543869272334 -19.92265814889179 -139.03496800154318 -20.151216834387192 -139.54003783076436 -20.40414238057404 C -140.78857316839392 -21.029395579875956 -142.18590045412122 -21.803007201165062 -143.70961804698015 -22.756107354489835 A 145.5 145.5 0 0 1 -143.312 -25.1393C -141.56130104152214 -25.54602627405821 -139.98849351957935 -25.824010055872552 -138.6045878884449 -26.009986550789176 C -138.04475934510958 -26.08521198777983 -137.51600459512986 -26.1453423135236 -137.0189268811154 -26.19283963879745 A 1.125 1.125 0 0 0 -136.068 -27.1472A 138.75 138.75 0 0 1 -135.987 -27.5527A 1.125 1.125 0 0 0 -136.495 -28.8003C -136.9347552685549 -29.03624018429527 -137.39918003640756 -29.296061039318793 -137.8864295975631 -29.581813956114296 C -139.09091182222073 -30.288216548855104 -140.4340555855119 -31.152486943560138 -141.89145081764536 -32.2042066507113 A 145.5 145.5 0 0 1 -141.337 -34.5559C -139.56344346239794 -34.84604224128454 -137.97570257343807 -35.01947047876766 -136.58253138068744 -35.113577227924544 C -136.0189551381545 -35.15163879851607 -135.487382394804 -35.176691946561164 -134.98825235199237 -35.191233268401355 A 1.125 1.125 0 0 0 -133.977 -36.0807A 138.75 138.75 0 0 1 -133.869 -36.4799A 1.125 1.125 0 0 0 -134.293 -37.7584C -134.71634276643053 -38.02285412928267 -135.1625804164833 -38.312801023343496 -135.6298790912169 -38.63013178594876 C -136.78504130859963 -39.41459485332576 -138.068128323524 -40.36574478691353 -139.45282837639795 -41.51148514520868 A 145.5 145.5 0 0 1 -138.744 -43.8214C -136.95531045519314 -43.993685331931395 -135.35957898614268 -44.06179966752742 -133.9632342149267 -44.06362516605479 C -133.39837464870988 -44.06435643668328 -132.86630834434314 -44.05422285598775 -132.3673085414141 -44.03574458889374 A 1.125 1.125 0 0 0 -131.299 -44.8564A 138.75 138.75 0 0 1 -131.165 -45.2476A 1.125 1.125 0 0 0 -131.504 -46.5513C -131.90884997428464 -46.843203807604475 -132.3349492228335 -47.16200887670823 -132.78025363293884 -47.50952987843927 C -133.8810446125867 -48.368623163055666 -135.09846426609357 -49.40249349887485 -136.4044141986965 -50.63724447724654 A 145.5 145.5 0 0 1 -135.545 -52.8953C -133.74830672194133 -52.94895523026712 -132.15156240050047 -52.91145781731732 -130.75814991122112 -52.82099408277462 C -130.19447700848193 -52.784391855779674 -129.6642437336704 -52.73911585791354 -129.16755616979788 -52.68769880264576 A 1.125 1.125 0 0 0 -128.047 -53.436A 138.75 138.75 0 0 1 -127.888 -53.8174A 1.125 1.125 0 0 0 -128.14 -55.1407C -128.5245533437657 -55.45872007434565 -128.92865096721238 -55.80498926504114 -129.35001390980625 -56.18118088497977 C -130.3916201728478 -57.11114779048753 -131.53804899854958 -58.223217676615015 -132.75953822410892 -59.54158002320183 A 145.5 145.5 0 0 1 -131.753 -61.7379C -129.95645567398583 -61.67269281958334 -128.36568065680046 -61.52974762473382 -126.98129348773693 -61.3473902320148 C -126.42127204665952 -61.2736145596221 -125.89519037660261 -61.19339412500412 -125.4029869401275 -61.10926311526282 A 1.125 1.125 0 0 0 -124.236 -61.7819A 138.75 138.75 0 0 1 -124.051 -62.1519A 1.125 1.125 0 0 0 -124.215 -63.4889C -124.57825154294682 -63.83172946898252 -124.95858052520157 -64.20394863420272 -125.35415948734658 -64.60716588211221 C -126.33202635461728 -65.60393989985207 -127.40245131095378 -66.78934653762816 -128.53413856787887 -68.18555538932937 A 145.5 145.5 0 0 1 -127.384 -70.3105C -125.59633811117004 -70.12675141504833 -124.01848845263748 -69.87898350126554 -122.64918017663996 -69.60552985285 C -122.09525902849569 -69.4949033373036 -121.57562938448166 -69.38008924948326 -121.09006235579659 -69.26361216876798 A 1.125 1.125 0 0 0 -119.881 -69.8576A 138.75 138.75 0 0 1 -119.672 -70.2146A 1.125 1.125 0 0 0 -119.748 -71.5596C -120.08720074551567 -71.92561895184029 -120.44209800470908 -72.32216047188221 -120.8101632202539 -72.75064018133106 C -121.72001472874925 -73.80986267214016 -122.70975511974265 -75.06342257994983 -123.74669182760269 -76.5313726707049 A 145.5 145.5 0 0 1 -122.459 -78.5757C -120.68701971821861 -78.27416356945402 -119.1289949534314 -77.92265636278344 -117.7807532071874 -77.55930220189906 C -117.23535450821875 -77.41230858480391 -116.72444909846757 -77.26340289657425 -116.2476417386425 -77.11508906952277 A 1.125 1.125 0 0 0 -115.002 -77.6279A 138.75 138.75 0 0 1 -114.77 -77.9703A 1.125 1.125 0 0 0 -114.756 -79.3173C -115.07103917391736 -79.7049960035999 -115.39895283463417 -80.12412590329147 -115.73789484804082 -80.57599444153159 C -116.57575244861455 -81.6930336949636 -117.4804803913622 -83.0092653742827 -118.41813228976936 -84.54253773184638 A 145.5 145.5 0 0 1 -116.998 -86.4973C -115.24996769534887 -86.07930272245687 -113.71858067018341 -85.62559327447669 -112.39730097180593 -85.17392745641801 C -111.86280961175359 -84.99120950346098 -111.36286249562859 -84.80886334150942 -110.89689976193036 -84.62936130675085 A 1.125 1.125 0 0 0 -109.62 -85.0587A 138.75 138.75 0 0 1 -109.366 -85.3851A 1.125 1.125 0 0 0 -109.263 -86.7282C -109.55170122640475 -87.13584338777959 -109.85119740564018 -87.5757289187118 -110.15953410972361 -88.04901037959782 C -110.92173406427084 -89.2189818672142 -111.73749341367586 -90.59212977180782 -112.57176038945225 -92.18401978628255 A 145.5 145.5 0 0 1 -111.025 -94.0406C -109.30895688766672 -93.50803898646119 -107.81090396794171 -92.95411125314668 -106.5223639373686 -92.41610879761537 C -106.00111711095538 -92.19846548791443 -105.51431442999008 -91.98347620561147 -105.06123385889471 -91.77357087987176 A 1.125 1.125 0 0 0 -103.759 -92.1176A 138.75 138.75 0 0 1 -103.484 -92.4265A 1.125 1.125 0 0 0 -103.292 -93.7599C -103.55332156349539 -94.18566789945497 -103.82309064066074 -94.6443855541245 -104.09947375746644 -95.13701039824849 C -104.7826831595182 -96.3547981324186 -105.50590680750545 -97.77885783588034 -106.23314082343485 -99.42240457726943 A 145.5 145.5 0 0 1 -104.568 -101.173C -102.88996582381785 -100.52788838793403 -101.43179761379034 -99.87616455432295 -100.18163170872232 -99.25417800916901 C -99.67590869569538 -99.00256104154086 -99.20437911415272 -98.75586873231667 -98.76616191171692 -98.51647797817746 A 1.125 1.125 0 0 0 -97.4439 -98.7737A 138.75 138.75 0 0 1 -97.1491 -99.0637A 1.125 1.125 0 0 0 -96.87 -100.382C -97.10212957324221 -100.82364244977654 -97.34099191680241 -101.2991863725945 -97.58421289328282 -101.8090004768554 C -98.1854442419581 -103.06927938166861 -98.81296971553019 -104.53802383324953 -99.42999076229657 -106.22604048983285 A 145.5 145.5 0 0 1 -97.6524 -107.862C -96.02106311849218 -107.10815491155597 -94.60915581673186 -106.36148480014968 -93.40283069458263 -105.65823395427836 C -92.91484289300303 -105.37374358570162 -92.46064828976829 -105.09642697225664 -92.03921066831937 -104.82859758457582 A 1.125 1.125 0 0 0 -90.7028 -104.998A 138.75 138.75 0 0 1 -90.3895 -105.268A 1.125 1.125 0 0 0 -90.0239 -106.564C -90.22633467679312 -107.02074086498571 -90.43324580249532 -107.51103162337384 -90.64224109520484 -108.03580570040955 C -91.15886535879169 -109.33306489687742 -91.68794864871872 -110.84007165079444 -92.1920586502779 -112.56517695522761 A 145.5 145.5 0 0 1 -90.3102 -114.081C -88.73228473551329 -113.2200647260861 -87.37281225340853 -112.38171333530089 -86.21560286700287 -111.60027332572773 C -85.74748412336447 -111.28415356019914 -85.31261057587342 -110.97742527752423 -84.90979537490045 -110.68232840606825 A 1.125 1.125 0 0 0 -83.5652 -110.763A 138.75 138.75 0 0 1 -83.2347 -111.011A 1.125 1.125 0 0 0 -82.7842 -112.281C -82.95600297576995 -112.74986481048725 -83.13005811390741 -113.2527584877075 -83.30391383960729 -113.79019783400139 C -83.73367195164967 -115.11876473772918 -84.16199951132344 -116.65744403688657 -84.55099412290313 -118.41209454260485 A 145.5 145.5 0 0 1 -82.5731 -119.8C -81.05550264821116 -118.83689200500476 -79.75440961302535 -117.91052523216445 -78.65137614457247 -117.05431309722366 C -78.20517342303424 -116.70794624604517 -77.79152252266191 -116.37314753887725 -77.40909115054741 -116.05207356718127 A 1.125 1.125 0 0 0 -76.0621 -116.044A 138.75 138.75 0 0 1 -75.7159 -116.27A 1.125 1.125 0 0 0 -75.1825 -117.507C -75.32292578085571 -117.98596228497186 -75.46336383259556 -118.4992598549288 -75.6013197644327 -119.04701438496424 C -75.94233250205325 -120.40107951091927 -76.26803136403795 -121.9647031022396 -76.54020961117651 -123.74122616903047 A 145.5 145.5 0 0 1 -74.4749 -124.995C -73.02428547139174 -123.93407579175316 -71.78726123192082 -122.92374440305288 -70.74322696612515 -121.99650414055803 C -70.32089139765763 -121.6214047778411 -69.93027193454301 -121.25999963574125 -69.56989666637236 -120.91435253859022 A 1.125 1.125 0 0 0 -68.2264 -120.817A 138.75 138.75 0 0 1 -67.866 -121.02A 1.125 1.125 0 0 0 -67.252 -122.219C -67.36048059648243 -122.70613716644337 -67.46668746195708 -123.22759410946571 -67.56814035374276 -123.78326863205223 C -67.8189165550063 -125.1569109979637 -68.04056252104847 -126.73864155332667 -68.19473423752356 -128.52926889783322 A 145.5 145.5 0 0 1 -66.0511 -129.644C -64.67375167432614 -128.48932739854672 -63.5062054228239 -127.39944931608304 -62.525735655888234 -126.40523551177725 C -62.129114006474325 -126.00304385159566 -61.76323406014137 -125.61661260729528 -61.42649072526926 -125.24790381149944 A 1.125 1.125 0 0 0 -60.0924 -125.062A 138.75 138.75 0 0 1 -59.7193 -125.24A 1.125 1.125 0 0 0 -59.0275 -126.396C -59.10348516949633 -126.88974933113482 -59.17499643310608 -127.41708544868897 -59.23950265715794 -127.97825014052373 C -59.39894574154324 -129.36546315783175 -59.51556961022843 -130.95838417197038 -59.55106064235097 -132.75528583641793 A 145.5 145.5 0 0 1 -57.3384 -133.726C -56.04041601661957 -132.48272786913597 -54.94745313577625 -131.3180688524576 -54.03483521252306 -130.2612289503418 C -53.665661807720205 -129.83370367449288 -53.32612127808063 -129.42393609350066 -53.01448236943032 -129.03377786881066 A 1.125 1.125 0 0 0 -51.6956 -128.76A 138.75 138.75 0 0 1 -51.3116 -128.913A 1.125 1.125 0 0 0 -50.5448 -130.021C -50.588045240009926 -130.51850490751806 -50.62454820119417 -131.04941429293606 -50.65182568820724 -131.61361532360306 C -50.71923845167457 -133.00833306274197 -50.73033025649852 -134.6054790973604 -50.646985411015294 -136.40079768796951 A 145.5 145.5 0 0 1 -48.375 -137.223C -47.162029878458426 -135.8968150793341 -46.14842961686115 -134.66246788598792 -45.307654183264574 -133.54762317805435 C -44.967543324440385 -133.0966337457909 -44.65582693583844 -132.66532163747823 -44.37065517106481 -132.25542004653974 A 1.125 1.125 0 0 0 -43.0727 -131.895A 138.75 138.75 0 0 1 -42.6794 -132.023A 1.125 1.125 0 0 0 -41.8412 -133.077C -41.851396660187326 -133.57653627074913 -41.85273170078453 -134.10869739237188 -41.84266117324851 -134.6734676543179 C -41.81774883693558 -136.06959136948305 -41.72326007625796 -137.66397851134576 -41.5214437989722 -139.44986355671625 A 145.5 145.5 0 0 1 -39.2001 -140.12C -38.077416183430216 -138.71666009444277 -37.147610757124966 -137.4180222106411 -36.38235431023127 -136.25004762913915 C -36.07279321563442 -135.7775661024998 -35.79026402452511 -135.32659548497438 -35.53280638719711 -134.89874292315022 A 1.125 1.125 0 0 0 -34.2615 -134.453A 138.75 138.75 0 0 1 -33.8606 -134.555A 1.125 1.125 0 0 0 -32.9545 -135.552C -32.9317425713364 -136.05047142775481 -32.897903853553714 -136.58155728039918 -32.8505293473232 -137.14442717696753 C -32.733400846538075 -138.53585197437874 -32.53374469566784 -140.12050837418636 -32.21433947781049 -141.889150653411 A 145.5 145.5 0 0 1 -29.8538 -142.405C -28.82629963575619 -140.92993244968554 -27.9843548472948 -139.57268248847194 -27.297963658836274 -138.35668528906993 C -27.020305960369466 -137.86477770955366 -26.768199395019476 -137.39612056258204 -26.53958168187826 -136.95218792026333 A 1.125 1.125 0 0 0 -25.3005 -136.424A 138.75 138.75 0 0 1 -24.8938 -136.499A 1.125 1.125 0 0 0 -23.9238 -137.433C -23.868086351292888 -137.92949248955543 -23.799221843233337 -138.457180769916 -23.71475051497022 -139.01568901426415 C -23.50591802284494 -140.39633054731314 -23.201967527329835 -141.9643269058254 -22.76637004664989 -143.70799259622615 A 145.5 145.5 0 0 1 -20.3769 -144.066C -19.44913301426803 -142.52695406819245 -18.69873047398806 -141.117026938312 -18.09420595798815 -139.85832436736754 C -17.849665782120237 -139.34914172165983 -17.62908424039447 -138.86484736370173 -17.430306138530664 -138.40677584538017 A 1.125 1.125 0 0 0 -16.2289 -137.798A 138.75 138.75 0 0 1 -15.8181 -137.845A 1.125 1.125 0 0 0 -14.7884 -138.714C -14.70006106257257 -139.20538297514122 -14.596471891208177 -139.72736623663167 -14.475273112538275 -140.27907061431264 C -14.17564980042608 -141.64289168886236 -13.768734058446558 -143.18737155696064 -13.218849071894683 -144.8984360521274 A 145.5 145.5 0 0 1 -10.8109 -145.098C -9.986920282698208 -143.500741580768 -9.331341309977727 -142.04430253482124 -8.81132689833116 -140.74839857841593 C -8.60097355703101 -140.22416739267123 -8.412881585887202 -139.72635351973133 -8.24481230136365 -139.25614615560596 A 1.125 1.125 0 0 0 -7.08625 -138.569A 138.75 138.75 0 0 1 -6.67322 -138.589A 1.125 1.125 0 0 0 -5.58843 -139.388C -5.467756147073123 -139.8725637400532 -5.329895281493297 -140.3865594826832 -5.172499023838213 -140.92904753082766 C -4.783395068247545 -142.27008450432643 -4.275293418808648 -143.7842942645212 -3.613525433519643 -145.45527551477565 A 145.5 145.5 0 0 1 -1.19769 -145.495C -0.4810372897796684 -143.84703686238785 0.0768514353375247 -142.35045453774993 0.5100818519198111 -141.02301585415844 C 0.6853285370124804 -140.48602845796796 0.840108459242177 -139.97687188345012 0.9767340022073938 -139.49658477068584 A 1.125 1.125 0 0 0 2.08734 -138.734A 138.75 138.75 0 0 1 2.50082 -138.727A 1.125 1.125 0 0 0 3.63603 -139.453C 3.7884578748548745 -139.92811737256224 3.9599876041619386 -140.43187802372904 4.152893087014993 -140.9627775801318 C 4.629776233488992 -142.2751664391047 5.2368419911544075 -143.75248483738642 6.007599232159494 -145.3760760668816 A 145.5 145.5 0 0 1 8.42079 -145.256C 9.026949156813 -143.564325651896 9.484708128879813 -142.0341442222858 9.829260144016189 -140.6809753631213 C 9.968633863736805 -140.1335798657388 10.089424923834304 -139.61530700179483 10.194009296504467 -139.12704031373266 A 1.125 1.125 0 0 0 11.2518 -138.293A 138.75 138.75 0 0 1 11.6639 -138.259A 1.125 1.125 0 0 0 12.8446 -138.907C 13.028105934422191 -139.3718009507683 13.232554471593836 -139.86312369332 13.460125653050746 -140.3801132693017 C 14.022702701745526 -141.6581152711894 14.726078023539511 -143.09208237008767 15.602454194955353 -144.66118402747955 A 145.5 145.5 0 0 1 18.0025 -144.382C 18.49546305153787 -142.65384417348355 18.851090607040522 -141.09675473295715 19.10545758243577 -139.72377276134378 C 19.2083488909699 -139.16836278400132 19.294622900363176 -138.64323990599715 19.36670878188679 -138.14912870863066 A 1.125 1.125 0 0 0 20.3671 -137.247A 138.75 138.75 0 0 1 20.776 -137.186A 1.125 1.125 0 0 0 21.997 -137.755C 22.210785401577624 -138.20604710483607 22.447258745180182 -138.68278350943046 22.70850051436709 -139.18360244111688 C 23.35431145898943 -140.42162920833684 24.15092066359488 -141.80597463458327 25.129083595406872 -143.31372543756245 A 145.5 145.5 0 0 1 27.5054 -142.877C 27.883100992278656 -141.11957373099494 28.135042062401936 -139.54238503549377 28.29811171599315 -138.15559365225522 C 28.364070695827994 -137.59459786146658 28.415450400225318 -137.06492119813677 28.454722577383837 -136.56712611401153 A 1.125 1.125 0 0 0 29.3933 -135.601A 138.75 138.75 0 0 1 29.7973 -135.513A 1.125 1.125 0 0 0 31.0532 -136C 31.29634275542976 -136.43595337972232 31.563806867699356 -136.89601879936174 31.85757688082932 -137.37847713299175 C 32.583797754436944 -138.57111508949137 33.47015747248941 -139.89978545276648 34.54582990707812 -141.33959239069998 A 145.5 145.5 0 0 1 36.8881 -140.746C 37.14881322688809 -138.96822329869917 37.29596613743561 -137.3778319930926 37.367025407118696 -135.98329528409596 C 37.39576363641787 -135.41916677171588 37.412024365444836 -134.8872524643395 37.41831111099985 -134.38795022470072 A 1.125 1.125 0 0 0 38.291 -133.362A 138.75 138.75 0 0 1 38.6883 -133.247A 1.125 1.125 0 0 0 39.9736 -133.65C 40.245049165377154 -134.0692599449086 40.54233449380374 -134.51064263057089 40.86734816935547 -134.97263069860708 C 41.670803392845954 -136.11466474205452 42.64303779882158 -137.38185010492325 43.81151609432202 -138.74741726841242 A 145.5 145.5 0 0 1 46.1094 -138.001C 46.25208315330933 -136.2092001846523 46.293804442044504 -134.6125606454645 46.27254260371327 -133.21637656491572 C 46.26393441751214 -132.65158212139335 46.24500506713805 -132.11975609589763 46.21827889075085 -131.62113002239795 A 1.125 1.125 0 0 0 47.0212 -130.54A 138.75 138.75 0 0 1 47.4101 -130.399A 1.125 1.125 0 0 0 48.7192 -130.716C 49.0177742151759 -131.1163157486098 49.34358080665883 -131.53708564611486 49.698416942524815 -131.97658329228275 C 50.575593210635006 -133.06301959838237 51.629450970849405 -134.2631788816725 52.8856256689801 -135.54853499296294 A 145.5 145.5 0 0 1 55.1292 -134.652C 55.1531044883677 -132.8545688949331 55.08921171871036 -131.25866282062384 54.975721744974024 -129.8669365262655 C 54.92980478468059 -129.30394585399745 54.87576812813831 -128.77453365027537 54.81614589657808 -128.27876410786502 A 1.125 1.125 0 0 0 55.5458 -127.146A 138.75 138.75 0 0 1 55.9245 -126.98A 1.125 1.125 0 0 0 57.2518 -127.21C 57.576157010294146 -127.59003326445628 57.92906019550629 -127.98835045410203 58.31216718354803 -128.40343586701968 C 59.25922882764406 -129.42952372623506 60.390101690252806 -130.5574089387663 61.72847985867683 -131.75693346262625 A 145.5 145.5 0 0 1 63.9078 -130.714C 63.8129553305193 -128.91899837862718 63.64372788929442 -127.33080426040107 63.43850604293202 -125.94962141721096 C 63.35548109173066 -125.39089633116109 63.26657341757028 -124.86621293407714 63.174315843685505 -124.37546779682269 A 1.125 1.125 0 0 0 63.8276 -123.197A 138.75 138.75 0 0 1 64.1945 -123.007A 1.125 1.125 0 0 0 65.534 -123.148C 65.88277392034263 -123.50583202853267 66.26123054344689 -123.8799547705956 66.67093315428248 -124.26881288736563 C 67.68373891476276 -125.2300654785637 68.88668186047417 -126.28074466527804 70.30141111199468 -127.3891923861687 A 145.5 145.5 0 0 1 72.4071 -126.204C 72.19376835542249 -124.41969788424552 71.91994623117273 -122.84616049088528 71.62388989510227 -121.48156066001194 C 71.5041199999799 -120.92954432282089 71.3807300788391 -120.41188403937139 71.25624058152658 -119.92830921089406 A 1.125 1.125 0 0 0 71.8302 -118.71A 138.75 138.75 0 0 1 72.1837 -118.495A 1.125 1.125 0 0 0 73.5297 -118.548C 73.90130222308899 -118.88157121366947 74.30365738956608 -119.22986356458944 74.73816409792207 -119.5907940076073 C 75.81228523289184 -120.48300801778552 77.08203809827819 -121.45188682593168 78.56693218183851 -122.46441078400032 A 145.5 145.5 0 0 1 80.5897 -121.143C 80.25889640011289 -119.37634170805903 79.88167694731698 -117.82434171821885 79.49608070056823 -116.4822919475172 C 79.3400895848023 -115.93939818617386 79.18275696941113 -115.43102461306611 79.02657990956784 -114.95673464305123 A 1.125 1.125 0 0 0 79.5187 -113.703A 138.75 138.75 0 0 1 79.8573 -113.465A 1.125 1.125 0 0 0 81.2038 -113.429C 81.59667893448001 -113.7374715358245 82.0211732475612 -114.05841050176957 82.47858406615674 -114.38983501404223 C 83.60932371718955 -115.20910901834682 84.94033419604331 -116.09195078741594 86.48890004762887 -117.00412347301804 A 145.5 145.5 0 0 1 88.4199 -115.552C 87.97307271172251 -113.81098316340702 87.49410541506872 -112.28730707815538 87.02065537191856 -110.97367580980486 C 86.82912514496829 -110.44227856059501 86.6385378108226 -109.94541468611489 86.45135611099387 -109.48248352392419 A 1.125 1.125 0 0 0 86.8596 -108.199A 138.75 138.75 0 0 1 87.1817 -107.939A 1.125 1.125 0 0 0 88.5229 -107.814C 88.93525413014945 -108.09602683403698 89.38003138421092 -108.38820903056798 89.85834617191881 -108.6886783770301 C 91.04075990222329 -109.43142989869433 92.42720782437947 -110.22437418625836 94.03267395953458 -111.03220690033076 A 145.5 145.5 0 0 1 95.8634 -109.455C 95.30256516001667 -107.74795814716913 94.723944421626 -106.25926861434642 94.16471085864967 -104.97980002364642 C 93.93847903346503 -104.46222295153343 93.71547037048444 -103.97904143498322 93.49810252861761 -103.52949336080188 A 1.125 1.125 0 0 0 93.8206 -102.222A 138.75 138.75 0 0 1 94.1248 -101.942A 1.125 1.125 0 0 0 95.4549 -101.728C 95.88493808797594 -101.98190571059223 96.34805338525372 -102.2440534993059 96.84518059320857 -102.51225380395609 C 98.07409800839255 -103.17523497955958 99.50992078985196 -103.87481444200378 101.16526691365844 -104.57477473763083 A 145.5 145.5 0 0 1 102.888 -102.88C 102.21532373941729 -101.21377872507995 101.53957972055588 -99.76658540523474 100.89700802383425 -98.52687428278752 C 100.63706385462491 -98.0253806206167 100.38260902295085 -97.55799429182875 100.13600553331186 -97.12379506500322 A 1.125 1.125 0 0 0 100.371 -95.7975A 138.75 138.75 0 0 1 100.656 -95.4979A 1.125 1.125 0 0 0 101.969 -95.1971C 102.41534160827234 -95.42184366150123 102.89476986340536 -95.65281073681773 103.4085356808146 -95.88756922796397 C 104.67858303770421 -96.46788100951312 106.15750219077077 -97.07103656384754 107.85548989581146 -97.66006369275264 A 145.5 145.5 0 0 1 109.462 -95.8556C 108.68112071552187 -94.23701720121181 107.91120827284956 -92.83764830251141 107.18810824491803 -91.64311558962639 C 106.89558840139638 -91.1598982415836 106.6108000672649 -90.71035086205306 106.33603926416876 -90.2933991253257 A 1.125 1.125 0 0 0 106.483 -88.9544A 138.75 138.75 0 0 1 106.748 -88.6367A 1.125 1.125 0 0 0 108.038 -88.2497C 108.49790889802426 -88.44452616897853 108.99155369323739 -88.64330257064421 109.51971155290279 -88.84359270913609 C 110.8253352575541 -89.3386975408633 112.34088384506403 -89.84279174131423 114.07408826313657 -90.31831003773331 A 145.5 145.5 0 0 1 115.558 -88.4116C 114.67168280329547 -86.84818117855848 113.81096856802942 -85.50275578514494 113.01050214132631 -84.35862486944157 C 112.68668573834006 -83.89579682204118 112.37280920867548 -83.46605414807699 112.07109255120464 -83.06817312530433 A 1.125 1.125 0 0 0 112.129 -81.7224A 138.75 138.75 0 0 1 112.373 -81.3878A 1.125 1.125 0 0 0 113.634 -80.9165C 114.10604243810718 -81.08046326712733 114.6117451903127 -81.24617979651389 115.15198559229714 -81.41112576453712 C 116.4874764844494 -81.81885867898649 118.03302739804197 -82.22168724987587 119.79386966721843 -82.58161739328838 A 145.5 145.5 0 0 1 121.149 -80.581C 120.16081479895219 -79.07958015704965 119.21306245544521 -77.79398147184162 118.33872986598581 -76.70525534670442 C 117.98503287027414 -76.26484042923686 117.64344064727868 -75.85678161620962 117.31608746560823 -75.47971113986836 A 1.125 1.125 0 0 0 117.285 -74.133A 138.75 138.75 0 0 1 117.506 -73.7831A 1.125 1.125 0 0 0 118.734 -73.2294C 119.21521928746995 -73.36185612932347 119.73076868720224 -73.49378815021238 120.28072929768528 -73.62266868101726 C 121.64024761546617 -73.9412467658965 123.20904255424242 -74.24104824037853 124.98982295930409 -74.48381634784707 A 145.5 145.5 0 0 1 126.209 -72.398C 125.12451412491623 -70.96518425232874 124.09386795302271 -69.74503387127206 123.14949243475765 -68.71647325903344 C 122.76746147328902 -68.3003972938747 122.39964725284 -67.91580667914828 122.04808897914242 -67.56119558249057 A 1.125 1.125 0 0 0 121.928 -66.2195A 138.75 138.75 0 0 1 122.125 -65.8558A 1.125 1.125 0 0 0 123.314 -65.2221C 123.80309831571691 -65.32245626067683 124.32623999662606 -65.42002686790923 124.8835159777887 -65.51227839972658 C 126.26111689350704 -65.7403085941287 127.84629591636005 -65.93577201663624 129.63922755769298 -66.06031652499618 A 145.5 145.5 0 0 1 130.718 -63.8985C 129.5410757869868 -62.540475653079824 128.4320425401813 -61.391108983338775 127.4217536069674 -60.42721151785161 C 127.01305920393328 -60.037293899331985 126.62063134403095 -59.67785319981031 126.24640525318753 -59.34725210693546 A 1.125 1.125 0 0 0 126.038 -58.0164A 138.75 138.75 0 0 1 126.211 -57.6405A 1.125 1.125 0 0 0 127.355 -56.9296C 127.84961789518613 -56.997417911287926 128.37806429180844 -57.06020045342402 128.94021881757695 -57.11541959377747 C 130.32987843294174 -57.251904779681794 131.9245099553336 -57.34217543840143 133.7217527990594 -57.34795174620652 A 145.5 145.5 0 0 1 134.656 -55.1195C 133.3911872847547 -53.84229346644535 132.20861648324583 -52.768736396024664 131.13683187153256 -51.873716955653826 C 130.70326114357024 -51.51166269430942 130.28793563139757 -51.17894365271627 129.89267811888638 -50.87379819808609 A 1.125 1.125 0 0 0 129.597 -49.5596A 138.75 138.75 0 0 1 129.744 -49.1731A 1.125 1.125 0 0 0 130.839 -48.3882C 131.33708362534315 -48.42314435565628 131.86852397604275 -48.45086430061353 132.4330988877092 -48.46880959025213 C 133.828740574804 -48.51315295266767 135.42585167882152 -48.49783611697708 137.2195468392706 -48.384818965902994 A 145.5 145.5 0 0 1 138.004 -46.0996C 136.65801306025315 -44.908672629983286 135.40707578526548 -43.915619550798695 134.27848213645763 -43.09339182783038 C 133.82193097804378 -42.76078409482585 133.3855239263911 -42.4562416068739 132.970963352746 -42.17788611392102 A 1.125 1.125 0 0 0 132.589 -40.8861A 138.75 138.75 0 0 1 132.71 -40.4907A 1.125 1.125 0 0 0 133.751 -39.6352C 134.25024570589218 -39.63712871042351 134.7823561572339 -39.62966484593562 135.34688271235862 -39.61025781467374 C 136.74240368518943 -39.562265451359266 138.3350106103397 -39.44142809788375 140.11731471495887 -39.210111683176315 A 145.5 145.5 0 0 1 140.749 -36.878C 139.327268115569 -35.7786775945629 138.01343439752063 -34.87047087505968 136.83296676448785 -34.124630262120824 C 136.35543155767448 -33.822923466444706 135.89985126354034 -33.54788921894672 135.4678003966701 -33.297540865417744 A 1.125 1.125 0 0 0 135.001 -32.0338A 138.75 138.75 0 0 1 135.096 -31.6313A 1.125 1.125 0 0 0 136.078 -30.7088C 136.5763656202728 -30.677789986514078 137.10681938864175 -30.63517495016136 137.66882905623598 -30.578500460008822 C 139.0581270566615 -30.438382229358055 140.63926573807987 -30.212552749098794 142.4023852245047 -29.86394855858395 A 145.5 145.5 0 0 1 142.879 -27.4952C 141.38728047750408 -26.492231505460662 140.0162953769554 -25.672842502541315 138.78911564430163 -25.006650370862427 C 138.29268452904526 -24.737163799566677 137.81992312913914 -24.492840447307927 137.3722712175546 -24.271593942854807 A 1.125 1.125 0 0 0 136.823 -23.0414A 138.75 138.75 0 0 1 136.892 -22.6335A 1.125 1.125 0 0 0 137.81 -21.6482C 138.30527183795178 -21.584305092575185 138.83174938398625 -21.506725229068746 139.38878463876992 -21.41303110315087 C 140.76578462012392 -21.181399706535103 142.3285411406576 -20.851565594349776 144.0647663359777 -20.38719798545465 A 145.5 145.5 0 0 1 144.383 -17.9921C 142.82904223614418 -17.089941628603366 141.40690072210984 -16.36295332189433 140.13837503456537 -15.779322760162954 C 139.62521877782225 -15.543234809456342 139.13734353745772 -15.33069071629122 138.6760480490688 -15.139513515584518 A 1.125 1.125 0 0 0 138.047 -13.9483A 138.75 138.75 0 0 1 138.088 -13.5368A 1.125 1.125 0 0 0 138.939 -12.4929C 139.42940429193774 -12.396437524324153 139.9496034632846 -12.284232070667874 140.49922853181926 -12.153928009558001 C 141.85790922354374 -11.831796312138911 143.39545004655236 -11.399399848677916 145.09718887974958 -10.821299382803653 A 145.5 145.5 0 0 1 145.257 -8.41042C 143.6462489341571 -7.612921785327057 142.17916966963173 -6.981513109720444 140.87484496726762 -6.482996185885501 C 140.3472074707823 -6.2813392083068305 139.84635174425168 -6.10150377547555 139.37342980685824 -5.941231847771293 A 1.125 1.125 0 0 0 138.667 -4.79419A 138.75 138.75 0 0 1 138.681 -4.38088A 1.125 1.125 0 0 0 139.461 -3.28303" stroke="#191919" stroke-width="0.35 px" style="stroke-width:0.35;stroke-miterlimit:4;stroke-dasharray:none;fill:none;fill-rule: evenodd "/>
<title>b'InvoluteGear'</title>
</g>
</svg>