<?xml version="1.0"?>
<!DOCTYPE svg PUBLIC "-//W3C//DTD SVG 1.1//EN" "http://www.w3.org/Graphics/SVG/1.1/DTD/svg11.dtd">
<svg width="272.2848851564114mm" height="272.32840162137893mm" viewBox="0 0 272.2848851564114 272.32840162137893" xmlns="http://www.w3.org/2000/svg" version="1.1">
<g id="InvoluteGear" transform="translate(136.120650,136.164201) scale(1,-1)">
<path id="InvoluteGear_w0000"  d="M 127.45813280656881 -3.267167192394947 C 127.93762261235986 -3.143887369138729 128.45031282393063 -3.0011974052967685 128.99499110868453 -2.836156731247895 C 130.31489843626738 -2.436192881790288 131.82142467733618 -1.9054875911921267 133.49477569773043 -1.2032520821481398 A 133.5 133.5 0 0 1 133.495 1.20325C 131.82142467733618 1.9054875911921267 130.31489843626738 2.436192881790288 128.99499110868453 2.836156731247895 C 128.45031282393063 3.0011974052967685 127.93762261235986 3.143887369138729 127.45813874274987 3.267165050730949 A 1.125 1.125 0 0 0 126.675 4.36252A 126.75 126.75 0 0 1 126.659 4.78943A 1.125 1.125 0 0 0 127.362 5.93844C 127.83097470711249 6.095999747540297 128.33203226643258 6.275312326769701 128.86338173634573 6.4792255406523775 C 130.15098787732958 6.9733883275764255 131.6152924505147 7.61141774496006 133.23360969383344 8.432567942910415 A 133.5 133.5 0 0 1 133.06 10.8328C 131.340301033942 11.412458597352998 129.79940745523473 11.833072909516108 128.4540803266944 12.136752595193824 C 127.89891292747087 12.26206028375416 127.37726299301858 12.367383712807783 126.89013358600353 12.455741558051436 A 1.125 1.125 0 0 0 126.03 13.4917A 126.75 126.75 0 0 1 125.984 13.9164A 1.125 1.125 0 0 0 126.601 15.1131C 127.0578752900726 15.304105144202376 127.54468791503535 15.519105486059281 128.0599383600055 15.760828130697714 C 129.30853033217912 16.346613519132294 130.72297903146156 17.088640673349687 132.27782534093717 18.02442446329632 A 133.5 133.5 0 0 1 131.931 20.4059C 130.1744298762313 20.85993032876531 128.60720246551588 21.168260774229278 127.24346944873155 21.37407305086057 C 126.6807073207955 21.458994457666172 126.15281730467727 21.5264022443409 125.66058202742694 21.579379596343742 A 1.125 1.125 0 0 0 124.728 22.5506A 126.75 126.75 0 0 1 124.651 22.9708A 1.125 1.125 0 0 0 125.181 24.2089C 125.62235494362787 24.432422022992675 126.09238461861842 24.681989215247516 126.588849761405 24.960261060698826 C 127.79191798436838 25.6346150368683 129.14913652917062 26.47677134192258 130.6324056560951 27.52230998048619 A 133.5 133.5 0 0 1 130.115 29.8726C 128.32988951658018 30.19864804234004 126.74449907189353 30.39308712893028 125.36947003935735 30.499958986603268 C 124.80204716386477 30.544051370760716 124.2706692401926 30.57319208206905 123.77589437952 30.59051274144815 A 1.125 1.125 0 0 0 122.776 31.4919A 126.75 126.75 0 0 1 122.669 31.9055A 1.125 1.125 0 0 0 123.107 33.1786C 123.5318978061672 33.43335956644361 123.9826940141008 33.716192481314536 124.45778551533046 34.02956274702639 C 125.60905774843285 34.788969541549115 126.90197022970318 35.72686438441433 128.3059290956556 36.876706917255376 A 133.5 133.5 0 0 1 127.62 39.1835C 125.81629653433546 39.37992398808018 124.2210085473635 39.45945800043149 122.8418522637633 39.46683225876578 C 122.27272692084985 39.469865743000426 121.74063144807073 39.4605874527668 121.24589653100084 39.442161117624245 A 1.125 1.125 0 0 0 120.183 40.269A 126.75 126.75 0 0 1 120.047 40.6738A 1.125 1.125 0 0 0 120.392 41.9753C 120.79740255324862 42.25999105396083 121.22661505143192 42.5746151315915 121.67785600400165 42.92145005010016 C 122.77133004690003 43.7619504675821 123.99319581762603 44.79069409882653 125.3105248311627 46.03884577939715 A 133.5 133.5 0 0 1 124.46 48.2901C 122.64675563942276 48.35589124446499 121.04988720305394 48.32010552906407 119.67379395065356 48.227943742091256 C 119.10593329633174 48.18990251122092 118.57589437386142 48.14225359215443 118.08377871917183 48.0881763288696 A 1.125 1.125 0 0 0 116.964 48.8362A 126.75 126.75 0 0 1 116.799 49.2301A 1.125 1.125 0 0 0 117.05 50.5531C 117.43312557695135 50.86629851601566 117.83851665015962 51.21107345214756 118.26355449268351 51.58956478678495 C 119.29352947803596 52.506776847231215 120.43797829585675 53.62100587390678 121.66180951347168 54.96095941728352 A 133.5 133.5 0 0 1 120.651 57.145C 118.83779135045695 57.07975327441477 117.2476677973111 56.928834401411656 115.88181188914797 56.73761705801478 C 115.31817648592951 56.65869944140276 114.7929574912827 56.57292831290427 114.30602676212978 56.48348205528821 A 1.125 1.125 0 0 0 113.135 57.1487A 126.75 126.75 0 0 1 112.942 57.5297A 1.125 1.125 0 0 0 113.097 58.8673C 113.45660665964881 59.2074126505303 113.83606278653696 59.5805409482896 114.23268156851186 59.988715420491985 C 115.19378768366012 60.97785720492153 116.25485292236048 62.17176255281119 117.37880585476285 63.59653206166547 A 133.5 133.5 0 0 1 116.213 65.702C 114.40926184355347 65.50602790076667 112.83417334155239 65.24076269128433 111.48567571789137 64.95148671015139 C 110.92920409978524 64.83210414770902 110.41154328160478 64.7086579807274 109.93233610934388 64.58430906015049 A 1.125 1.125 0 0 0 108.717 65.1633A 126.75 126.75 0 0 1 108.496 65.5294A 1.125 1.125 0 0 0 108.554 66.8747C 108.8885775297048 67.23984675064264 109.24012040172904 67.63938309185663 109.6062523364745 68.07511266892537 C 110.49347881916081 69.13102725008234 111.46562857589745 70.39838444952323 112.48384345292827 71.90054183535531 A 133.5 133.5 0 0 1 111.17 73.9164C 109.38425542099321 73.59078442928651 107.8324137522638 73.21255585329989 106.50830485531183 72.82672938545134 C 105.96189820766851 72.66750428258077 105.45449440976486 72.50702666827064 104.98550915870206 72.34842338242679 A 1.125 1.125 0 0 0 103.731 72.8382A 126.75 126.75 0 0 1 103.485 73.1874A 1.125 1.125 0 0 0 103.446 74.5334C 103.75285377584137 74.92172342426008 104.07465061124394 75.34558481144532 104.40838685638438 75.80659780112404 C 105.21710811854577 76.92378012930862 106.09527405462731 78.25798176669474 107.00244237538774 79.82969547644771 A 133.5 133.5 0 0 1 105.546 81.7455C 103.78897013950501 81.29187268296715 102.26846588794963 80.80265264913803 100.97564900838547 80.3222872151257 C 100.44215604245987 80.12404969778638 99.94765463328912 79.92737729212189 99.49133637536643 79.7353465251044 A 1.125 1.125 0 0 0 98.2049 80.1334A 126.75 126.75 0 0 1 97.9343 80.4639A 1.125 1.125 0 0 0 97.7979 81.8035C 98.07621068368668 82.21299292339103 98.36658378277129 82.6589695395378 98.66618439205642 83.14286243356386 C 99.39218413549894 84.31548803741245 100.171787900357 85.70957820318971 100.96318010927413 87.34265404934078 A 133.5 133.5 0 0 1 99.3724 89.1484C 97.65257722572858 88.5691427535342 96.17133759646678 87.97148182859252 94.91655288287986 87.39908183136293 C 94.39875498396991 87.16286541817917 93.91973406490759 86.93102358001704 93.47846183223008 86.70656649132808 A 1.125 1.125 0 0 0 92.1667 87.0107A 126.75 126.75 0 0 1 91.8729 87.3209A 1.125 1.125 0 0 0 91.6402 88.6472C 91.88824364183372 89.07564194498656 92.14567913371488 89.54140867452142 92.40958212829376 90.04565867940516 C 93.04907532651904 91.26761403198704 93.72605242710817 92.71432458554489 94.39754257164772 94.40024846680495 A 133.5 133.5 0 0 1 92.6806 96.0865C 91.00706899094617 95.384654324477 89.57281648153781 94.68166843574694 88.36260580041439 94.02021810384392 C 87.863202527006 93.74725431781735 87.40215949132019 93.48145176315069 86.97823387298416 93.22573856811896 A 1.125 1.125 0 0 0 85.6479 93.4344A 126.75 126.75 0 0 1 85.3325 93.7226A 1.125 1.125 0 0 0 85.0048 95.0286C 85.2212138451878 95.47389181470092 85.44436958041274 95.95702036556281 85.67119909226817 96.47899855526464 C 86.22085172384898 97.7439129471806 86.79167271503142 99.2357014095717 87.33975995650378 100.96568369946719 A 133.5 133.5 0 0 1 85.5056 102.524C 83.88709203798503 101.7028744742912 82.50730417690376 100.8982286646889 81.34797700636422 100.15117649386772 C 80.8695720158833 99.8428884417867 80.42891052848262 99.54451094205939 80.0245416763693 99.25887481087939 A 1.125 1.125 0 0 0 78.6827 99.371A 126.75 126.75 0 0 1 78.3473 99.6357A 1.125 1.125 0 0 0 77.9261 100.915C 78.10988010003446 101.37438502033282 78.29759264792882 101.87235658396344 78.4861660930162 102.40934160589686 C 78.94311252364037 103.71062035920826 79.40480140907871 105.23970923614134 79.82662827439091 107.0047306080566 A 133.5 133.5 0 0 1 77.8848 108.426C 76.32976662987292 107.49086292867845 75.01163699213512 106.58875224887527 73.90923752723656 105.75999302324263 C 73.4543250017848 105.41798797626222 73.03634246762245 105.08859113359838 72.65363857368945 104.77452124079831 A 1.125 1.125 0 0 0 71.3072 104.79A 126.75 126.75 0 0 1 70.9536 105.029A 1.125 1.125 0 0 0 70.4412 106.275C 70.59131760771818 106.7463591224483 70.7426083219749 107.25657750569356 70.89194256566779 107.80576976859756 C 71.25380048822865 109.13662861842342 71.60395023585276 110.69504594851716 71.89731751505005 112.48590439828732 A 133.5 133.5 0 0 1 69.858 113.764C 68.37449316197485 112.71844379588399 67.12489386517032 111.7235714332548 66.0851695062722 110.81742591966785 C 65.65612114911647 110.44348693374245 65.26299673558465 110.08478807075713 64.9039530407293 109.74392183133241 A 1.125 1.125 0 0 0 63.5599 109.662A 126.75 126.75 0 0 1 63.1899 109.875A 1.125 1.125 0 0 0 62.589 111.08C 62.70472467170948 111.56180713549576 62.818804792597454 112.08161229595483 62.92812127529639 112.64014856566638 C 63.19300413013892 113.99364903019911 63.429789221296566 115.5732699470976 63.59316743322479 117.38062876799728 A 133.5 133.5 0 0 1 61.467 118.508C 60.06274674657519 117.35836288982381 58.88819262282814 116.27591564820575 57.91656401130804 115.29710806979446 C 57.515616681917756 114.89318468964946 57.14939995767791 114.50705389612382 56.81588834947508 114.14116842881351 A 1.125 1.125 0 0 0 55.4813 113.962A 126.75 126.75 0 0 1 55.0968 114.149A 1.125 1.125 0 0 0 54.4106 115.307C 54.491218335801115 115.79562354326045 54.56749310239322 116.32230545751517 54.63622189857486 116.88727378454632 C 54.80274870914417 118.25635933908318 54.92493465601006 119.8489484307469 54.95747202232221 121.66338489075596 A 133.5 133.5 0 0 1 52.7555 122.634C 51.437860980846885 121.38642982079122 50.3444756114978 120.22205107889015 49.44600836903726 119.1756844851453 C 49.075252421134856 118.74388258025377 48.73785267061567 118.33233296335284 48.43161192416268 117.94333582556538 A 1.125 1.125 0 0 0 47.1134 117.669A 126.75 126.75 0 0 1 46.7165 117.827A 1.125 1.125 0 0 0 45.9484 118.933C 45.993620018880186 119.42573518740133 46.03169176986136 119.95654797982343 46.05947455940631 120.52500288091765 C 46.12677713201999 121.90253574731301 46.13372691364365 123.49978999164395 46.03525379957774 125.31184445920911 A 133.5 133.5 0 0 1 43.769 126.121C 42.544802025540655 124.78164411294779 41.53828581562866 123.54140440237481 40.717664134407286 122.43293406421087 C 40.37903251783181 121.97550484976514 40.07220878710431 121.5406820386292 39.794835499852695 121.13060128132139 A 1.125 1.125 0 0 0 38.4999 120.761A 126.75 126.75 0 0 1 38.0926 120.891A 1.125 1.125 0 0 0 37.2467 121.938C 37.256232263878026 122.43321634667782 37.255902510767264 122.96539260515296 37.242594447075255 123.53437041967099 C 37.21032189728321 124.91316877940666 37.101999280721245 126.50676083236091 36.87302907949743 128.30698609453458 A 133.5 133.5 0 0 1 34.5542 128.951C 33.42993417224395 127.52630469108026 32.515534631234374 126.2166700474108 31.777036852720748 125.05187501590943 C 31.472295035922436 124.57120331602745 31.197646961848225 124.1153742754552 30.95058722968393 123.6863478698135 A 1.125 1.125 0 0 0 29.6856 123.225A 126.75 126.75 0 0 1 29.2701 123.324A 1.125 1.125 0 0 0 28.3509 124.308C 28.32460776482501 124.80238740689722 28.28587822680233 125.33315261083042 28.231548691955354 125.89968695190453 C 28.09986927388884 127.27256238876596 27.876839003106745 128.85418399926976 27.51856545933278 130.6331945151039 A 133.5 133.5 0 0 1 25.1594 131.108C 24.14077812143278 129.60610216581068 23.323262505132636 128.23390041766896 22.670738814792955 127.01885339478247 C 22.401475580498182 126.51744520913921 22.160435050963564 126.04298642068295 21.94497692893257 125.59725111173178 A 1.125 1.125 0 0 0 20.7166 125.046A 126.75 126.75 0 0 1 20.2951 125.115A 1.125 1.125 0 0 0 19.3072 126.03C 19.245311876196467 126.52089660716278 19.168384471139948 127.0474835925441 19.07331671417617 127.60862081244564 C 18.84291694334869 128.9684157895957 18.50634179490731 130.52982111491946 18.02063278094692 132.27834194733018 A 133.5 133.5 0 0 1 15.6333 132.582C 14.725763231543407 131.01019343612666 14.009393687837003 129.58257860804886 13.446246042050799 128.3236142863442 C 13.213865204084637 127.80408372504957 13.00768889280019 127.31346879714089 12.824955679785917 126.85334844238965 A 1.125 1.125 0 0 0 11.6396 126.214A 126.75 126.75 0 0 1 11.2142 126.253A 1.125 1.125 0 0 0 10.1628 127.094C 10.06567984271573 127.57978443623577 9.950955634495193 128.0994478223521 9.815645294679634 128.6522624114432 C 9.487726368812924 129.99188758750486 9.039361089689846 131.52493618326906 8.428748867441112 133.23385135426417 A 133.5 133.5 0 0 1 6.02577 133.364C 5.233975030721788 131.73125822028948 4.622486378705197 130.25567323495224 4.151650768540025 128.95935527145707 C 3.9573638529909587 128.4244109262964 3.787126667776684 127.92019769799708 3.638071050139755 127.4480911519232 A 1.125 1.125 0 0 0 2.50192 126.725A 126.75 126.75 0 0 1 2.0748 126.733A 1.125 1.125 0 0 0 0.965487 127.496C 0.8335700153061962 127.97353034327851 0.6816471228218739 128.48356084585743 0.5067996456127886 129.02517068484354 C 0.08307118214808007 130.33764187444342 -0.47474665870056665 131.8343411351263 -1.207078639846221 133.49474115229324 A 133.5 133.5 0 0 1 -3.61319 133.451C -4.285100692391677 131.76553722039336 -4.78852043402804 130.24967509466143 -5.164589289714572 128.92276189099567 C -5.3197693608306835 128.37519271408615 -5.4531798821170065 127.86000991969975 -5.567780797404337 127.37837852723219 A 1.125 1.125 0 0 0 -6.64881 126.575A 126.75 126.75 0 0 1 -7.07538 126.552A 1.125 1.125 0 0 0 -8.23688 127.234C -8.402885660190304 127.70008151945014 -8.59121518132275 128.19782007561363 -8.804688222139852 128.7254014615791 C -9.322017099195545 130.00387604765587 -9.98637929783726 131.45642287633774 -10.836612998026139 133.05965118281185 A 133.5 133.5 0 0 1 -13.2333 132.843C -13.781835884650466 131.11285172160416 -14.174562118475123 129.56461545870252 -14.453903570802844 128.2140249259017 C -14.56916776044915 127.65668568938756 -14.665056077123392 127.1332192534558 -14.744604813953153 126.6445740176623 A 1.125 1.125 0 0 0 -15.7649 125.766A 126.75 126.75 0 0 1 -16.1887 125.712A 1.125 1.125 0 0 0 -17.3963 126.308C -17.595532580692293 126.76086360030148 -17.819286867553007 127.24371523168855 -18.07027252238899 127.75451759957608 C -18.67850469981254 128.99233020761756 -19.44594757936715 130.39315169771498 -20.4096502737752 131.93084980345856 A 133.5 133.5 0 0 1 -22.7845 131.542C -23.206718966091465 129.7766045238958 -23.486704199367598 128.20406591081024 -23.66786189134919 126.83683940254039 C -23.74260926541233 126.27263581513279 -23.800475460191088 125.74361484926892 -23.844557288283372 125.25050334014855 A 1.125 1.125 0 0 0 -24.7988 124.3A 126.75 126.75 0 0 1 -25.2176 124.216A 1.125 1.125 0 0 0 -26.465 124.723C -26.696444541681835 125.16077323317138 -26.954457043025393 125.6262205749536 -27.24164678889131 126.11758083773687 C -27.937611225742963 127.30827808595642 -28.80413369439009 128.6500710028506 -29.876281083397597 130.11422206194976 A 133.5 133.5 0 0 1 -32.2168 129.555C -32.510612960387284 127.76376220142667 -32.676397479751806 126.175119726344 -32.758426939063796 124.79838532854431 C -32.79226779934612 124.23025888650142 -32.81181018468394 123.69844146106577 -32.82019528179854 123.20343453369878 A 1.125 1.125 0 0 0 -33.7034 122.187A 126.75 126.75 0 0 1 -34.115 122.073A 1.125 1.125 0 0 0 -35.3958 122.488C -35.65817360224324 122.90815254833474 -35.94909916035669 123.3537689735909 -36.27099572289675 123.82312540637719 C -37.05106398285928 124.96049955065814 -38.012148393678395 126.23626840737877 -39.18715079724182 127.61923901416583 A 133.5 133.5 0 0 1 -41.4812 126.892C -41.64501167228854 125.08481878204786 -41.695731154021665 123.48835489123465 -41.67820471704578 122.10929025957782 C -41.67096263297132 121.54020291110554 -41.65207932391988 121.00836167590374 -41.62472397404304 120.51404006720345 A 1.125 1.125 0 0 0 -42.4322 119.436A 126.75 126.75 0 0 1 -42.8345 119.293A 1.125 1.125 0 0 0 -44.142 119.615C -44.43399745665704 120.01474566699811 -44.75631932038936 120.43820793802331 -45.11124447997614 120.88311353370092 C -45.97134964834172 121.9612348319001 -47.021985352231404 123.16432836035497 -48.29371685188685 124.45890834645117 A 133.5 133.5 0 0 1 -50.5293 123.568C -50.56229257646593 121.75374103630108 -50.49768259267484 120.15777895326391 -50.38069163413811 118.78357389218296 C -50.33240436257987 118.21649259520834 -50.27519380796892 117.68740032417917 -50.21224062922839 117.1963411981247 A 1.125 1.125 0 0 0 -50.9399 116.063A 126.75 126.75 0 0 1 -51.3308 115.891A 1.125 1.125 0 0 0 -52.6581 116.118C -52.97816302286785 116.49563747288943 -53.330200755268116 116.8947378534808 -53.71630409646264 117.31287308028115 C -54.65196198314298 118.32612070715858 -55.78667145202519 119.45026653476584 -57.1485018285908 120.64970655956071 A 133.5 133.5 0 0 1 -59.314 119.6C -59.215965099306274 117.78789566114399 -59.03636249652973 116.20075599319613 -58.82051695311895 114.83857497157325 C -58.731436241552096 114.27645622539971 -58.63619671072283 113.7528713606556 -58.53797391184298 113.26763487215216 A 1.125 1.125 0 0 0 -59.182 112.085A 126.75 126.75 0 0 1 -59.5594 111.885A 1.125 1.125 0 0 0 -60.8996 112.016C -61.24612497786874 112.36917496665946 -61.626043217206345 112.74183273223039 -62.04131177596732 113.13101762669255 C -63.047644293984455 114.07410897829173 -64.26051167809966 115.11344632922612 -65.70534097856837 116.21149306781416 A 133.5 133.5 0 0 1 -67.7894 115.008C -67.56091299923646 113.207958738034 -67.26725414228288 111.63791609650146 -66.95367933271714 110.29486089544467 C -66.82426960672423 109.74063532693361 -66.69149763449107 109.22528759752073 -66.55851730366459 108.7484035449375 A 1.125 1.125 0 0 0 -67.1155 107.522A 126.75 126.75 0 0 1 -67.4775 107.296A 1.125 1.125 0 0 0 -68.8237 107.329C -69.19477799638966 107.6568716131153 -69.60059602488046 108.00114389863002 -70.04286478322678 108.35934943092087 C -71.11462538079984 109.22736766561971 -72.39932735120841 110.17647791618393 -73.91962290461542 111.16740666130521 A 133.5 133.5 0 0 1 -75.9115 109.817C -75.55362958191681 108.03780793741285 -75.14744547209175 106.49304779764248 -74.73777623023176 105.17612048508732 C -74.56871217220275 104.63267756972665 -74.39909997015073 104.12825376008166 -74.23205540524786 103.66220839605437 A 1.125 1.125 0 0 0 -74.6991 102.399A 126.75 126.75 0 0 1 -75.0438 102.147A 1.125 1.125 0 0 0 -76.3889 102.083C -76.78268148210363 102.38329517997681 -77.21228355245542 102.69738710914908 -77.67924672586734 103.02274576148527 C -78.81084773950423 103.81116543413164 -80.1606864549956 104.6651003629514 -81.74852214427685 105.54374487096443 A 133.5 133.5 0 0 1 -83.6377 104.053C -83.15244452399985 102.30439803158968 -82.63585281717411 100.79297405767083 -82.13222496875535 99.50904048284038 C -81.9243880004061 98.97921348035715 -81.71881984802017 98.48834342265721 -81.51858194205471 98.03556649191816 A 1.125 1.125 0 0 0 -81.8933 96.7422A 126.75 126.75 0 0 1 -82.2189 96.4656A 1.125 1.125 0 0 0 -83.5559 96.3051C -83.97027561970796 96.57593965291109 -84.42142198564709 96.85821369585804 -84.91064504435919 97.149029198879 C -86.09618683034668 97.85373985436637 -87.50412485688203 98.6080474401253 -89.15122244197858 99.36982686540927 A 133.5 133.5 0 0 1 -90.9279 97.7467C -90.31774112290175 96.03762036503876 -89.69343508903421 94.5674124217279 -89.09847431646058 93.32316641977393 C -88.85294800350805 92.8097176028302 -88.61249563794934 92.33496046626571 -88.38010833864563 91.89781253807978 A 1.125 1.125 0 0 0 -88.6605 90.5808A 126.75 126.75 0 0 1 -88.9653 90.2814A 1.125 1.125 0 0 0 -90.2872 90.0248C -90.72008762148324 90.26508189462217 -91.19042621475468 90.51406640518688 -91.69935857626663 90.76882258151791 C -92.93266026868103 91.38615018479487 -94.39135726931589 92.03689781701235 -96.0891295460843 92.67784059437501 A 133.5 133.5 0 0 1 -97.7441 90.9307C -97.01216283994536 89.27014701477046 -96.28339732162051 87.84882008552492 -95.60020547487198 86.65074857897109 C -95.31826987782445 86.15635483195318 -95.04418690638887 85.70018578040458 -94.78086177352183 85.28094594165417 A 1.125 1.125 0 0 0 -94.9655 83.9471A 126.75 126.75 0 0 1 -95.2479 83.6265A 1.125 1.125 0 0 0 -96.5478 83.2752C -96.99692709305748 83.48362379530812 -97.48400578601954 83.6980206835413 -98.00999411265242 83.91538935244026 C -99.28462584753238 84.44211544322816 -100.7864768515345 84.98591042506929 -102.52607242145324 85.50267497564904 A 133.5 133.5 0 0 1 -104.051 83.6407C -103.20080806005555 82.03726045325 -102.37138250324135 80.67222467855352 -101.60352142826453 79.52657385748486 C -101.28664642877868 79.05381272046768 -100.98036179316907 78.61861000814707 -100.68747168205248 78.21946398122832 A 1.125 1.125 0 0 0 -100.775 76.8758A 126.75 126.75 0 0 1 -101.034 76.5357A 1.125 1.125 0 0 0 -102.305 76.0915C -102.76806949982793 76.26692073744016 -103.26934888971044 76.44561223724001 -103.80965092188065 76.62446013911674 C -105.1189673595608 77.05783861147133 -106.65614241120625 77.49184584769742 -108.42849182846895 77.88173800040802 A 133.5 133.5 0 0 1 -109.815 75.9146C -108.85141205261965 74.37666960192297 -107.9256506981155 73.07504164624423 -107.07712366700808 71.98778440356435 C -106.72696130460673 71.53912063421087 -106.39007183109237 71.12715320654587 -106.06914373514695 70.75018195402419 A 1.125 1.125 0 0 0 -106.06 69.4036A 126.75 126.75 0 0 1 -106.293 69.0458A 1.125 1.125 0 0 0 -107.529 68.511C -108.00342677753176 68.65259726916949 -108.51629342570624 68.79465176579663 -109.06809227879727 68.93404647050374 C -110.40526724963205 69.27181788973994 -111.96975222996878 69.59377466758221 -113.76561528537525 69.85476170527355 A 133.5 133.5 0 0 1 -115.006 67.7927C -113.93451518485287 66.32831323435968 -112.91724452370043 65.09687918315913 -111.99247536350411 64.07368397469222 C -111.61085122260707 63.65145669814846 -111.24511329691094 63.26487236255116 -110.89782038662773 62.912041237985974 A 1.125 1.125 0 0 0 -110.791 61.5697A 126.75 126.75 0 0 1 -110.998 61.1959A 1.125 1.125 0 0 0 -112.192 60.5734C -112.67570419748148 60.68035094735445 -113.19748425471998 60.78502783443979 -113.75790310501449 60.884242602531714 C -115.115965197866 61.12464598486991 -116.69960360661923 61.332873770766255 -118.50961750174764 61.463595027870134 A 133.5 133.5 0 0 1 -119.598 59.3174C -118.42361651068305 57.934151753982576 -117.3201401210767 56.77933173420498 -116.32395014999145 55.82553302599186 C -115.9128538421637 55.43194353977134 -115.52017425248059 55.072757767965136 -115.1483271522847 54.74590626946645 A 1.125 1.125 0 0 0 -114.945 53.4147A 126.75 126.75 0 0 1 -115.125 53.027A 1.125 1.125 0 0 0 -116.271 52.3199C -116.76054266864156 52.3917453728808 -117.28851581532858 52.458498913604245 -117.85463289843518 52.51701648522014 C -119.22650180638279 52.65879847874022 -120.82103728617072 52.752211669431915 -122.63576544667329 52.751985625842444 A 133.5 133.5 0 0 1 -123.567 50.5328C -122.29531193441231 49.23794843195229 -121.11138283129831 48.16576314045764 -120.04896572256165 47.28633359731991 C -119.61054051359982 46.92343389475771 -119.19296650948559 46.593519315040886 -118.79850385797891 46.2943514949779 A 1.125 1.125 0 0 0 -118.5 44.9813A 126.75 126.75 0 0 1 -118.651 44.5816A 1.125 1.125 0 0 0 -119.743 43.7937C -120.23664573465024 43.82999349729196 -120.76805936326946 43.85847566960145 -121.33692320684938 43.87599096121865 C -122.71544664063157 43.91841238025656 -124.31256602178979 43.896523962620996 -126.12254729532194 43.76535179682478 A 133.5 133.5 0 0 1 -126.891 41.4848C -125.52941622883532 40.285041245735606 -124.27120687035563 39.301080560173496 -123.14810157483521 38.50060512054161 C -122.68463321077223 38.17028719265129 -122.2443418297326 37.871363826880206 -121.82932017252969 37.60143940774128 A 1.125 1.125 0 0 0 -121.437 36.3133A 126.75 126.75 0 0 1 -121.559 35.9038A 1.125 1.125 0 0 0 -122.591 35.0392C -123.08589060368192 35.03973233046865 -123.6179741696373 35.029794641506044 -124.18661898101449 35.00621633650426 C -125.56460995775339 34.94905601542378 -127.1559865993521 34.81198010553538 -128.95178458163997 34.55054568846747 A 133.5 133.5 0 0 1 -129.554 32.2205C -128.10906827166738 31.122106507883913 -126.78313837882098 30.23150034365973 -125.6052002474896 29.51415231582708 C -125.11910503777322 29.218138287335606 -124.65839175519821 28.951764583527137 -124.2249748230498 28.712490826248978 A 1.125 1.125 0 0 0 -123.741 27.4561A 126.75 126.75 0 0 1 -123.832 27.0389A 1.125 1.125 0 0 0 -124.8 26.102C -125.29342263229206 26.06679022392832 -125.8234020982445 26.018484484202357 -126.3888632266754 25.95393550894627 C -127.75913753947756 25.797491455194226 -129.33647474057202 25.545942703376095 -131.10872697245486 25.155609033033546 A 133.5 133.5 0 0 1 -131.541 22.7882C -130.02081895162863 21.796915517352762 -128.6340813089237 21.004307082624145 -127.40745156577049 20.37382638704995 C -126.90126378574463 20.113659538036753 -126.42253054736274 19.881224245341972 -125.97297797546551 19.67384861250268 A 1.125 1.125 0 0 0 -125.399 18.4557A 126.75 126.75 0 0 1 -125.461 18.0329A 1.125 1.125 0 0 0 -126.358 17.0287C -126.84773277065013 16.957947943020038 -127.37284506906367 16.871525996290355 -127.93217446205344 16.76634287924846 C -129.28758813513815 16.511430719681904 -130.84266238992558 16.146720584649906 -132.58212916888274 15.629522680051394 A 133.5 133.5 0 0 1 -132.842 13.2371C -131.25470128588296 12.358085502068462 -129.81438570127926 11.667607090207927 -128.5454594258114 11.127280761303721 C -128.021818104178 10.904317481252967 -127.52756080342355 10.707032409662096 -127.06421635072832 10.532636061788935 A 1.125 1.125 0 0 0 -126.404 9.35902A 126.75 126.75 0 0 1 -126.435 8.93294A 1.125 1.125 0 0 0 -127.257 7.86658C -127.74071756539607 7.760694773675523 -128.25822500389265 7.63660718395591 -128.80850657697584 7.4913383011968975 C -130.1419931110568 7.1392870297823325 -131.66669698242794 6.663316941306642 -133.36430953410954 6.021951232845543 A 133.5 133.5 0 0 1 -133.451 3.61702C -131.8042823832714 2.8548261512136124 -130.3178979953092 2.2700775969443066 -129.01329078156857 1.8227226459985064 C -128.4749259417139 1.638125362212378 -127.9677214072941 1.4770190647386214 -127.49300073723217 1.3365112236376318 A 1.125 1.125 0 0 0 -126.75 0.213597A 126.75 126.75 0 0 1 -126.75 -0.213597A 1.125 1.125 0 0 0 -127.493 -1.33651C -127.9677214072941 -1.4770190647385895 -128.4749259417139 -1.638125362212346 -129.01329078156857 -1.8227226459984744 C -130.3178979953092 -2.2700775969442737 -131.8042823832714 -2.8548261512135795 -133.45119014188853 -3.617015879708697 A 133.5 133.5 0 0 1 -133.364 -6.02195C -131.66669698242794 -6.66331694130661 -130.1419931110568 -7.139287029782299 -128.80850657697584 -7.4913383011968655 C -128.25822500389265 -7.636607183955878 -127.74071756539607 -7.760694773675491 -127.25709565172838 -7.866581565180983 A 1.125 1.125 0 0 0 -126.435 -8.93294A 126.75 126.75 0 0 1 -126.404 -9.35902A 1.125 1.125 0 0 0 -127.064 -10.5326C -127.52756080342355 -10.707032409662064 -128.021818104178 -10.904317481252935 -128.5454594258114 -11.12728076130369 C -129.81438570127926 -11.667607090207895 -131.25470128588296 -12.35808550206843 -132.8423180369596 -13.237125546274397 A 133.5 133.5 0 0 1 -132.582 -15.6295C -130.84266238992558 -16.146720584649874 -129.28758813513815 -16.511430719681872 -127.93217446205344 -16.766342879248427 C -127.37284506906367 -16.871525996290323 -126.84773277065013 -16.957947943020002 -126.35773099410025 -17.028661640228474 A 1.125 1.125 0 0 0 -125.461 -18.0329A 126.75 126.75 0 0 1 -125.399 -18.4557A 1.125 1.125 0 0 0 -125.973 -19.6738C -126.42253054736275 -19.88122424534189 -126.90126378574465 -20.11365953803667 -127.4074515657705 -20.373826387049867 C -128.63408130892373 -21.00430708262406 -130.02081895162866 -21.796915517352677 -131.54086759654822 -22.788222969506105 A 133.5 133.5 0 0 1 -131.109 -25.1556C -129.33647474057204 -25.54594270337601 -127.7591375394776 -25.797491455194148 -126.38886322667541 -25.953935508946188 C -125.82340209824451 -26.018484484202276 -125.29342263229208 -26.066790223928237 -124.79959563523454 -26.10196215836542 A 1.125 1.125 0 0 0 -123.832 -27.0389A 126.75 126.75 0 0 1 -123.741 -27.4561A 1.125 1.125 0 0 0 -124.225 -28.7125C -124.65839175519821 -28.95176458352711 -125.11910503777322 -29.218138287335577 -125.6052002474896 -29.51415231582705 C -126.78313837882098 -30.2315003436597 -128.10906827166738 -31.122106507883885 -129.55362398063238 -32.22051314994018 A 133.5 133.5 0 0 1 -128.952 -34.5505C -127.1559865993521 -34.811980105535355 -125.56460995775339 -34.94905601542375 -124.18661898101449 -35.00621633650423 C -123.6179741696373 -35.029794641506015 -123.08589060368192 -35.039732330468624 -122.59081297141974 -35.039179131954235 A 1.125 1.125 0 0 0 -121.559 -35.9038A 126.75 126.75 0 0 1 -121.437 -36.3133A 1.125 1.125 0 0 0 -121.829 -37.6014C -122.24434182973262 -37.87136382688013 -122.68463321077226 -38.17028719265121 -123.14810157483524 -38.50060512054153 C -124.27120687035564 -39.3010805601734 -125.52941622883534 -40.28504124573552 -126.89094775726036 -41.48482049406471 A 133.5 133.5 0 0 1 -126.123 -43.7654C -124.31256602178982 -43.89652396262091 -122.71544664063161 -43.918412380256484 -121.3369232068494 -43.87599096121857 C -120.76805936326949 -43.85847566960137 -120.23664573465028 -43.82999349729188 -119.74289857271935 -43.79371804994681 A 1.125 1.125 0 0 0 -118.651 -44.5816A 126.75 126.75 0 0 1 -118.5 -44.9813A 1.125 1.125 0 0 0 -118.798 -46.2943C -119.19296650948559 -46.59351931504086 -119.61054051359982 -46.92343389475768 -120.04896572256165 -47.28633359731988 C -121.11138283129831 -48.165763140457614 -122.29531193441231 -49.23794843195226 -123.56672088734614 -50.53284519309442 A 133.5 133.5 0 0 1 -122.636 -52.752C -120.82103728617072 -52.75221166943189 -119.22650180638279 -52.658798478740195 -117.85463289843518 -52.51701648522011 C -117.28851581532858 -52.45849891360422 -116.76054266864156 -52.39174537288077 -116.27070014612156 -52.31993680009066 A 1.125 1.125 0 0 0 -115.125 -53.027A 126.75 126.75 0 0 1 -114.945 -53.4147A 1.125 1.125 0 0 0 -115.148 -54.7459C -115.5201742524806 -55.072757767965115 -115.9128538421637 -55.43194353977132 -116.32395014999146 -55.82553302599184 C -117.32014012107672 -56.77933173420496 -118.42361651068306 -57.934151753982555 -119.59827435055307 -59.31741503580878 A 133.5 133.5 0 0 1 -118.51 -61.4636C -116.69960360661925 -61.332873770766234 -115.11596519786602 -61.124645984869886 -113.7579031050145 -60.88424260253169 C -113.19748425472001 -60.78502783443977 -112.6757041974815 -60.68035094735443 -112.19232012647012 -60.573383625767846 A 1.125 1.125 0 0 0 -110.998 -61.1959A 126.75 126.75 0 0 1 -110.791 -61.5697A 1.125 1.125 0 0 0 -110.898 -62.912C -111.24511329691099 -63.264872362551074 -111.61085122260711 -63.65145669814837 -111.99247536350416 -64.07368397469212 C -112.91724452370048 -65.09687918315905 -113.93451518485291 -66.3283132343596 -115.00629778959079 -67.79273134261899 A 133.5 133.5 0 0 1 -113.766 -69.8548C -111.96975222996882 -69.59377466758212 -110.40526724963209 -69.27181788973985 -109.06809227879731 -68.93404647050367 C -108.51629342570628 -68.79465176579654 -108.0034267775318 -68.6525972691694 -107.52902129875118 -68.5110288768714 A 1.125 1.125 0 0 0 -106.293 -69.0458A 126.75 126.75 0 0 1 -106.06 -69.4036A 1.125 1.125 0 0 0 -106.069 -70.7502C -106.39007183109238 -71.12715320654584 -106.72696130460675 -71.53912063421085 -107.0771236670081 -71.98778440356432 C -107.92565069811552 -73.0750416462442 -108.85141205261966 -74.37666960192294 -109.81473164399813 -75.91460773867722 A 133.5 133.5 0 0 1 -108.428 -77.8817C -106.65614241120626 -77.49184584769739 -105.11896735956081 -77.0578386114713 -103.80965092188066 -76.6244601391167 C -103.26934888971046 -76.44561223723998 -102.76806949982794 -76.26692073744013 -102.30511594377764 -76.09148934647689 A 1.125 1.125 0 0 0 -101.034 -76.5357A 126.75 126.75 0 0 1 -100.775 -76.8758A 1.125 1.125 0 0 0 -100.687 -78.2195C -100.98036179316912 -78.618610008147 -101.28664642877874 -79.05381272046759 -101.60352142826459 -79.52657385748479 C -102.3713825032414 -80.67222467855345 -103.2008080600556 -82.03726045324993 -104.05064233577674 -83.6407005211746 A 133.5 133.5 0 0 1 -102.526 -85.5027C -100.78647685153456 -84.98591042506922 -99.28462584753244 -84.44211544322809 -98.00999411265248 -83.91538935244019 C -97.4840057860196 -83.69802068354124 -96.99692709305754 -83.48362379530805 -96.54783908521468 -83.27524402372104 A 1.125 1.125 0 0 0 -95.2479 -83.6265A 126.75 126.75 0 0 1 -94.9655 -83.9471A 1.125 1.125 0 0 0 -94.7809 -85.2809C -95.0441869063889 -85.70018578040455 -95.31826987782448 -86.15635483195315 -95.60020547487201 -86.65074857897106 C -96.28339732162054 -87.84882008552489 -97.01216283994539 -89.27014701477042 -97.74408115759938 -90.93072941980164 A 133.5 133.5 0 0 1 -96.0891 -92.6778C -94.39135726931592 -92.0368978170123 -92.93266026868106 -91.38615018479484 -91.69935857626666 -90.76882258151788 C -91.19042621475471 -90.51406640518685 -90.72008762148327 -90.26508189462214 -90.28720649877688 -90.02484013805308 A 1.125 1.125 0 0 0 -88.9653 -90.2814A 126.75 126.75 0 0 1 -88.6605 -90.5808A 1.125 1.125 0 0 0 -88.3801 -91.8978C -88.61249563794937 -92.33496046626568 -88.85294800350808 -92.80971760283018 -89.09847431646061 -93.3231664197739 C -89.69343508903424 -94.56741242172787 -90.31774112290178 -96.03762036503872 -90.92792759928483 -97.74668759942594 A 133.5 133.5 0 0 1 -89.1512 -99.3698C -87.50412485688206 -98.60804744012526 -86.09618683034671 -97.85373985436634 -84.91064504435921 -97.14902919887898 C -84.42142198564711 -96.85821369585801 -83.97027561970799 -96.57593965291106 -83.55585822387236 -96.30508842063814 A 1.125 1.125 0 0 0 -82.2189 -96.4656A 126.75 126.75 0 0 1 -81.8933 -96.7422A 1.125 1.125 0 0 0 -81.5186 -98.0356C -81.7188198480202 -98.48834342265718 -81.92438800040613 -98.97921348035712 -82.13222496875538 -99.50904048284035 C -82.63585281717413 -100.7929740576708 -83.15244452399988 -102.30439803158964 -83.63771792936237 -104.05303981013225 A 133.5 133.5 0 0 1 -81.7485 -105.544C -80.16068645499563 -104.66510036295136 -78.81084773950427 -103.81116543413161 -77.67924672586737 -103.02274576148524 C -77.21228355245545 -102.69738710914905 -76.78268148210365 -102.38329517997678 -76.38888839355056 -102.08324656491126 A 1.125 1.125 0 0 0 -75.0438 -102.147A 126.75 126.75 0 0 1 -74.6991 -102.399A 1.125 1.125 0 0 0 -74.2321 -103.662C -74.39909997015077 -104.12825376008165 -74.5687121722028 -104.63267756972662 -74.7377762302318 -105.17612048508731 C -75.14744547209179 -106.49304779764246 -75.55362958191685 -108.03780793741284 -75.91145992542224 -109.81690765156142 A 133.5 133.5 0 0 1 -73.9196 -111.167C -72.39932735120846 -110.17647791618391 -71.11462538079988 -109.2273676656197 -70.04286478322682 -108.35934943092086 C -69.6005960248805 -108.00114389863002 -69.1947779963897 -107.65687161311529 -68.8236622699425 -107.32918992980282 A 1.125 1.125 0 0 0 -67.4775 -107.296A 126.75 126.75 0 0 1 -67.1155 -107.522A 1.125 1.125 0 0 0 -66.5585 -108.748C -66.69149763449116 -109.22528759752068 -66.82426960672431 -109.74063532693356 -66.95367933271723 -110.2948608954446 C -67.26725414228295 -111.6379160965014 -67.56091299923655 -113.20795873803394 -67.78943471916209 -115.00824098566596 A 133.5 133.5 0 0 1 -65.7053 -116.211C -64.26051167809975 -115.11344632922606 -63.04764429398454 -114.07410897829168 -62.04131177596741 -113.13101762669251 C -61.62604321720643 -112.74183273223034 -61.246124977868824 -112.3691749666594 -60.899621439085315 -112.01556859566838 A 1.125 1.125 0 0 0 -59.5594 -111.885A 126.75 126.75 0 0 1 -59.182 -112.085A 1.125 1.125 0 0 0 -58.538 -113.268C -58.6361967107228 -113.75287136065562 -58.73143624155207 -114.27645622539973 -58.82051695311892 -114.83857497157327 C -59.036362496529705 -116.20075599319614 -59.215965099306246 -117.787895661144 -59.313986789218 -119.59997460421563 A 133.5 133.5 0 0 1 -57.1485 -120.65C -55.78667145202516 -119.45026653476586 -54.651961983142954 -118.3261207071586 -53.716304096462615 -117.31287308028116 C -53.33020075526809 -116.89473785348082 -52.97816302286782 -116.49563747288944 -52.65807818075564 -116.1179499541058 A 1.125 1.125 0 0 0 -51.3308 -115.891A 126.75 126.75 0 0 1 -50.9399 -116.063A 1.125 1.125 0 0 0 -50.2122 -117.196C -50.27519380796895 -117.68740032417915 -50.3324043625799 -118.21649259520832 -50.380691634138145 -118.78357389218294 C -50.49768259267487 -120.1577789532639 -50.56229257646596 -121.75374103630107 -50.52930319666029 -123.56816933426072 A 133.5 133.5 0 0 1 -48.2937 -124.459C -47.02198535223143 -123.16432836035496 -45.97134964834175 -121.96123483190009 -45.11124447997618 -120.88311353370091 C -44.75631932038939 -120.4382079380233 -44.43399745665707 -120.0147456669981 -44.14200008537222 -119.61494608826186 A 1.125 1.125 0 0 0 -42.8345 -119.293A 126.75 126.75 0 0 1 -42.4322 -119.436A 1.125 1.125 0 0 0 -41.6247 -120.514C -41.652079323919935 -121.00836167590371 -41.670962632971374 -121.54020291110551 -41.67820471704584 -122.1092902595778 C -41.69573115402172 -123.48835489123462 -41.6450116722886 -125.08481878204785 -41.48118321411655 -126.89213684589542 A 133.5 133.5 0 0 1 -39.1872 -127.619C -38.01214839367845 -126.23626840737876 -37.05106398285934 -124.96049955065814 -36.27099572289681 -123.82312540637717 C -35.949099160356745 -123.3537689735909 -35.658173602243295 -122.90815254833474 -35.39578604087439 -122.48832527952791 A 1.125 1.125 0 0 0 -34.115 -122.073A 126.75 126.75 0 0 1 -33.7034 -122.187A 1.125 1.125 0 0 0 -32.8202 -123.203C -32.811810184684035 -123.69844146106574 -32.79226779934621 -124.23025888650139 -32.75842693906388 -124.79838532854428 C -32.6763974797519 -126.17511972634396 -32.51061296038738 -127.76376220142664 -32.216799549571405 -129.55454751163037 A 133.5 133.5 0 0 1 -29.8763 -130.114C -28.804133694390178 -128.6500710028506 -27.937611225743055 -127.30827808595639 -27.241646788891398 -126.11758083773684 C -26.95445704302549 -125.62622057495358 -26.696444541681924 -125.16077323317135 -26.46503475747908 -124.72310705927838 A 1.125 1.125 0 0 0 -25.2176 -124.216A 126.75 126.75 0 0 1 -24.7988 -124.3A 1.125 1.125 0 0 0 -23.8446 -125.25C -23.800475460191123 -125.74361484926892 -23.742609265412362 -126.27263581513279 -23.667861891349226 -126.83683940254039 C -23.48670419936763 -128.20406591081024 -23.2067189660915 -129.7766045238958 -22.784452409709427 -131.54152075504618 A 133.5 133.5 0 0 1 -20.4097 -131.931C -19.445947579367186 -130.39315169771498 -18.67850469981257 -128.99233020761756 -18.07027252238902 -127.75451759957608 C -17.81928686755304 -127.24371523168855 -17.59553258069232 -126.76086360030148 -17.396307037119342 -126.3076403100979 A 1.125 1.125 0 0 0 -16.1887 -125.712A 126.75 126.75 0 0 1 -15.7649 -125.766A 1.125 1.125 0 0 0 -14.7446 -126.645C -14.66505607712345 -127.1332192534558 -14.569167760449208 -127.65668568938756 -14.453903570802902 -128.21402492590167 C -14.174562118475183 -129.56461545870252 -13.781835884650526 -131.11285172160416 -13.233317685002769 -132.84269741769154 A 133.5 133.5 0 0 1 -10.8366 -133.06C -9.98637929783732 -131.45642287633774 -9.322017099195605 -130.00387604765587 -8.80468822213991 -128.72540146157914 C -8.59121518132281 -128.19782007561363 -8.402885660190362 -127.70008151945014 -8.236883026982847 -127.23366400931239 A 1.125 1.125 0 0 0 -7.07538 -126.552A 126.75 126.75 0 0 1 -6.64881 -126.575A 1.125 1.125 0 0 0 -5.56778 -127.378C -5.4531798821170945 -127.86000991969975 -5.319769360830772 -128.37519271408615 -5.164589289714661 -128.92276189099567 C -4.788520434028131 -130.24967509466143 -4.285100692391769 -131.76553722039336 -3.6131905693876654 -133.45129376693896 A 133.5 133.5 0 0 1 -1.20708 -133.495C -0.4747466587006577 -131.8343411351263 0.08307118214798992 -130.33764187444342 0.5067996456126997 -129.02517068484354 C 0.6816471228217851 -128.48356084585743 0.8335700153061079 -127.97353034327851 0.9654842772837884 -127.49635029813642 A 1.125 1.125 0 0 0 2.0748 -126.733A 126.75 126.75 0 0 1 2.50192 -126.725A 1.125 1.125 0 0 0 3.63807 -127.448C 3.7871266677766813 -127.92019769799708 3.957363852990956 -128.4244109262964 4.151650768540021 -128.95935527145707 C 4.622486378705194 -130.25567323495224 5.233975030721785 -131.73125822028948 6.0257740488193985 -133.36413686322544 A 133.5 133.5 0 0 1 8.42875 -133.234C 9.039361089689843 -131.52493618326906 9.487726368812922 -129.99188758750486 9.815645294679632 -128.6522624114432 C 9.950955634495191 -128.0994478223521 10.065679842715728 -127.57978443623577 10.162817993582662 -127.09432965189322 A 1.125 1.125 0 0 0 11.2142 -126.253A 126.75 126.75 0 0 1 11.6396 -126.214A 1.125 1.125 0 0 0 12.825 -126.853C 13.007688892800157 -127.31346879714089 13.213865204084605 -127.80408372504957 13.446246042050767 -128.3236142863442 C 14.00939368783697 -129.58257860804886 14.725763231543372 -131.01019343612666 15.633323071285506 -132.58168110229016 A 133.5 133.5 0 0 1 18.0206 -132.278C 18.506341794907275 -130.52982111491946 18.842916943348662 -128.9684157895957 19.073316714176137 -127.60862081244564 C 19.168384471139916 -127.0474835925441 19.245311876196435 -126.52089660716278 19.30716748261245 -126.02969802008234 A 1.125 1.125 0 0 0 20.2951 -125.115A 126.75 126.75 0 0 1 20.7166 -125.046A 1.125 1.125 0 0 0 21.945 -125.597C 22.160435050963507 -126.04298642068296 22.401475580498126 -126.51744520913923 22.670738814792898 -127.01885339478248 C 23.323262505132575 -128.233900417669 24.140778121432724 -129.6061021658107 25.159367186047746 -131.10800584616553 A 133.5 133.5 0 0 1 27.5186 -130.633C 27.87683900310669 -128.8541839992698 28.09986927388878 -127.27256238876599 28.231548691955297 -125.89968695190454 C 28.28587822680227 -125.33315261083044 28.324607764824954 -124.80238740689724 28.350858340299574 -124.30800589906934 A 1.125 1.125 0 0 0 29.2701 -123.324A 126.75 126.75 0 0 1 29.6856 -123.225A 1.125 1.125 0 0 0 30.9506 -123.686C 31.19764696184812 -124.11537427545522 31.47229503592233 -124.57120331602748 31.77703685272064 -125.05187501590946 C 32.51553463123427 -126.21667004741083 33.42993417224384 -127.52630469108028 34.55424200999216 -128.95079415527246 A 133.5 133.5 0 0 1 36.873 -128.307C 37.10199928072114 -126.50676083236094 37.2103218972831 -124.91316877940669 37.24259444707515 -123.53437041967102 C 37.25590251076716 -122.96539260515299 37.25623226387792 -122.43321634667785 37.24674095006557 -121.93822939436795 A 1.125 1.125 0 0 0 38.0926 -120.891A 126.75 126.75 0 0 1 38.4999 -120.761A 1.125 1.125 0 0 0 39.7948 -121.131C 40.07220878710428 -121.5406820386292 40.37903251783178 -121.97550484976514 40.71766413440726 -122.43293406421087 C 41.53828581562863 -123.54140440237481 42.544802025540626 -124.78164411294779 43.76896701595111 -126.1212927325007 A 133.5 133.5 0 0 1 46.0353 -125.312C 46.13372691364362 -123.49978999164395 46.12677713201996 -121.90253574731301 46.05947455940628 -120.52500288091765 C 46.03169176986133 -119.95654797982343 45.99362001888016 -119.42573518740133 45.94843629909623 -118.93272342338204 A 1.125 1.125 0 0 0 46.7165 -117.827A 126.75 126.75 0 0 1 47.1134 -117.669A 1.125 1.125 0 0 0 48.4316 -117.943C 48.73785267061562 -118.33233296335287 49.0752524211348 -118.7438825802538 49.4460083690372 -119.17568448514531 C 50.34447561149774 -120.22205107889017 51.43786098084682 -121.38642982079125 52.7555008944918 -122.634253288108 A 133.5 133.5 0 0 1 54.9575 -121.663C 54.924934656009995 -119.84894843074693 54.80274870914411 -118.2563593390832 54.6362218985748 -116.88727378454637 C 54.567493102393165 -116.3223054575152 54.49121833580106 -115.79562354326048 54.41057777703884 -115.30715730258726 A 1.125 1.125 0 0 0 55.0968 -114.149A 126.75 126.75 0 0 1 55.4813 -113.962A 1.125 1.125 0 0 0 56.8159 -114.141C 57.149399957677836 -114.50705389612385 57.515616681917685 -114.89318468964949 57.91656401130797 -115.29710806979449 C 58.888192622828065 -116.27591564820578 60.06274674657512 -117.35836288982384 61.46699201905944 -118.50785563113288 A 133.5 133.5 0 0 1 63.5932 -117.381C 63.429789221296495 -115.57326994709763 63.19300413013884 -113.99364903019914 62.92812127529632 -112.64014856566641 C 62.81880479259738 -112.08161229595486 62.70472467170941 -111.56180713549578 62.589047696502796 -111.08043305497007 A 1.125 1.125 0 0 0 63.1899 -109.875A 126.75 126.75 0 0 1 63.5599 -109.662A 1.125 1.125 0 0 0 64.9039 -109.744C 65.26299673558464 -110.08478807075714 65.65612114911646 -110.44348693374246 66.08516950627218 -110.81742591966787 C 67.1248938651703 -111.72357143325482 68.37449316197484 -112.718443795884 69.85802270866374 -113.76361288828856 A 133.5 133.5 0 0 1 71.8973 -112.486C 71.60395023585275 -110.69504594851718 71.25380048822863 -109.13662861842343 70.89194256566778 -107.80576976859757 C 70.74260832197488 -107.25657750569357 70.59131760771817 -106.74635912244831 70.44120730225329 -106.2745868636325 A 1.125 1.125 0 0 0 70.9536 -105.029A 126.75 126.75 0 0 1 71.3072 -104.79A 1.125 1.125 0 0 0 72.6536 -104.775C 73.0363424676224 -105.08859113359841 73.45432500178475 -105.41798797626227 73.90923752723651 -105.75999302324267 C 75.01163699213508 -106.58875224887531 76.32976662987288 -107.4908629286785 77.88484601463738 -108.42625934448158 A 133.5 133.5 0 0 1 79.8266 -107.005C 79.40480140907867 -105.23970923614138 78.94311252364032 -103.7106203592083 78.48616609301615 -102.4093416058969 C 78.29759264792878 -101.87235658396348 78.10988010003442 -101.37438502033288 77.92611906993754 -100.91467418533693 A 1.125 1.125 0 0 0 78.3473 -99.6357A 126.75 126.75 0 0 1 78.6827 -99.371A 1.125 1.125 0 0 0 80.0245 -99.2589C 80.42891052848253 -99.54451094205946 80.86957201588322 -99.84288844178676 81.34797700636413 -100.1511764938678 C 82.50730417690366 -100.89822866468897 83.88709203798494 -101.70287447429128 85.50561379697041 -102.52362148970303 A 133.5 133.5 0 0 1 87.3398 -100.966C 86.79167271503134 -99.2357014095718 86.22085172384888 -97.74391294718068 85.67119909226808 -96.47899855526471 C 85.44436958041265 -95.9570203655629 85.22121384518772 -95.47389181470099 85.00476013538179 -95.02863912295598 A 1.125 1.125 0 0 0 85.3325 -93.7226A 126.75 126.75 0 0 1 85.6479 -93.4344A 1.125 1.125 0 0 0 86.9782 -93.2257C 87.40215949132018 -93.48145176315069 87.86320252700598 -93.74725431781735 88.36260580041437 -94.02021810384392 C 89.5728164815378 -94.68166843574694 91.00706899094615 -95.384654324477 92.68059490113495 -96.08647294459438 A 133.5 133.5 0 0 1 94.3975 -94.4002C 93.72605242710816 -92.71432458554489 93.04907532651903 -91.26761403198704 92.40958212829375 -90.04565867940516 C 92.14567913371486 -89.54140867452142 91.88824364183371 -89.07564194498656 91.64022574173582 -88.64716873785925 A 1.125 1.125 0 0 0 91.8729 -87.3209A 126.75 126.75 0 0 1 92.1667 -87.0107A 1.125 1.125 0 0 0 93.4785 -86.7066C 93.91973406490757 -86.93102358001705 94.3987549839699 -87.16286541817918 94.91655288287984 -87.39908183136295 C 96.17133759646677 -87.97148182859253 97.65257722572856 -88.56914275353421 99.37238229792756 -89.14837402103915 A 133.5 133.5 0 0 1 100.963 -87.3427C 100.17178790035699 -85.70957820318972 99.39218413549892 -84.31548803741246 98.66618439205641 -83.14286243356388 C 98.36658378277127 -82.65896953953781 98.07621068368667 -82.21299292339104 97.79792164378674 -81.80353306178492 A 1.125 1.125 0 0 0 97.9343 -80.4639A 126.75 126.75 0 0 1 98.2049 -80.1334A 1.125 1.125 0 0 0 99.4913 -79.7353C 99.94765463328909 -79.92737729212195 100.44215604245984 -80.12404969778643 100.97564900838545 -80.32228721512575 C 102.26846588794959 -80.80265264913808 103.78897013950498 -81.29187268296721 105.5460881063992 -81.7454967542358 A 133.5 133.5 0 0 1 107.002 -79.8297C 106.09527405462728 -78.2579817666948 105.21710811854575 -76.92378012930868 104.40838685638435 -75.8065978011241 C 104.07465061124391 -75.34558481144538 103.75285377584134 -74.92172342426014 103.4457444663356 -74.533411642299 A 1.125 1.125 0 0 0 103.485 -73.1874A 126.75 126.75 0 0 1 103.731 -72.8382A 1.125 1.125 0 0 0 104.986 -72.3484C 105.4544944097648 -72.50702666827073 105.96189820766845 -72.66750428258085 106.50830485531176 -72.82672938545142 C 107.83241375226375 -73.21255585329997 109.38425542099316 -73.5907844292866 111.1695254831119 -73.91643631845548 A 133.5 133.5 0 0 1 112.484 -71.9005C 111.4656285758974 -70.39838444952332 110.49347881916076 -69.13102725008243 109.60625233647443 -68.07511266892547 C 109.24012040172899 -67.63938309185671 108.88857752970475 -67.23984675064273 108.55424907633031 -66.87470752615543 A 1.125 1.125 0 0 0 108.496 -65.5294A 126.75 126.75 0 0 1 108.717 -65.1633A 1.125 1.125 0 0 0 109.932 -64.5843C 110.41154328160478 -64.7086579807274 110.92920409978524 -64.83210414770902 111.48567571789137 -64.9514867101514 C 112.83417334155239 -65.24076269128435 114.40926184355347 -65.50602790076668 116.213376429437 -65.70200980967424 A 133.5 133.5 0 0 1 117.379 -63.5965C 116.25485292236048 -62.171762552811195 115.19378768366012 -60.977857204921534 114.23268156851186 -59.98871542049199 C 113.83606278653696 -59.58054094828961 113.45660665964881 -59.20741265053031 113.0968020961555 -58.86734965036076 A 1.125 1.125 0 0 0 112.942 -57.5297A 126.75 126.75 0 0 1 113.135 -57.1487A 1.125 1.125 0 0 0 114.306 -56.4835C 114.79295749128268 -56.57292831290432 115.31817648592948 -56.65869944140281 115.88181188914794 -56.73761705801483 C 117.24766779731107 -56.928834401411706 118.83779135045692 -57.07975327441482 120.65134464202426 -57.14504344413467 A 133.5 133.5 0 0 1 121.662 -54.961C 120.43797829585672 -53.62100587390683 119.29352947803594 -52.506776847231265 118.26355449268348 -51.589564786785 C 117.83851665015959 -51.21107345214761 117.43312557695133 -50.86629851601571 117.04972075773078 -50.55308467118542 A 1.125 1.125 0 0 0 116.799 -49.2301A 126.75 126.75 0 0 1 116.964 -48.8362A 1.125 1.125 0 0 0 118.084 -48.0882C 118.57589437386137 -48.14225359215451 119.1059332963317 -48.189902511221 119.67379395065352 -48.227943742091334 C 121.0498872030539 -48.32010552906415 122.64675563942272 -48.35589124446508 124.4602926095519 -48.29014928228399 A 133.5 133.5 0 0 1 125.311 -46.0388C 123.99319581762599 -44.79069409882661 122.77133004689999 -43.76195046758218 121.67785600400161 -42.92145005010024 C 121.22661505143188 -42.57461513159158 120.79740255324857 -42.25999105396091 120.392396373498 -41.97525931642755 A 1.125 1.125 0 0 0 120.047 -40.6738A 126.75 126.75 0 0 1 120.183 -40.269A 1.125 1.125 0 0 0 121.246 -39.4422C 121.74063144807073 -39.46058745276681 122.27272692084985 -39.46986574300043 122.8418522637633 -39.466832258765784 C 124.2210085473635 -39.459458000431496 125.81629653433546 -39.379923988080186 127.62036224099695 -39.18349264214809 A 133.5 133.5 0 0 1 128.306 -36.8767C 126.90197022970318 -35.726864384414334 125.60905774843285 -34.78896954154912 124.45778551533046 -34.0295627470264 C 123.9826940141008 -33.71619248131454 123.5318978061672 -33.43335956644362 123.10740178057542 -33.178594395645675 A 1.125 1.125 0 0 0 122.669 -31.9055A 126.75 126.75 0 0 1 122.776 -31.4919A 1.125 1.125 0 0 0 123.776 -30.5905C 124.2706692401926 -30.573192082069095 124.80204716386477 -30.544051370760762 125.36947003935735 -30.499958986603314 C 126.74449907189353 -30.393087128930325 128.32988951658018 -30.198648042340086 130.11507839652666 -29.872551414739906 A 133.5 133.5 0 0 1 130.632 -27.5223C 129.14913652917062 -26.476771341922625 127.79191798436838 -25.634615036868347 126.588849761405 -24.960261060698873 C 126.09238461861842 -24.68198921524756 125.62235494362787 -24.43242202299272 125.18058219791541 -24.208951646565332 A 1.125 1.125 0 0 0 124.651 -22.9708A 126.75 126.75 0 0 1 124.728 -22.5506A 1.125 1.125 0 0 0 125.661 -21.5794C 126.15281730467726 -21.52640224434097 126.68070732079549 -21.458994457666247 127.24346944873153 -21.374073050860645 C 128.60720246551588 -21.168260774229353 130.1744298762313 -20.859930328765383 131.93143478124924 -20.40586853631899 A 133.5 133.5 0 0 1 132.278 -18.0244C 130.72297903146156 -17.08864067334977 129.30853033217912 -16.34661351913237 128.0599383600055 -15.760828130697789 C 127.54468791503534 -15.519105486059356 127.05787529007259 -15.30410514420245 126.60112902277896 -15.11309463321349 A 1.125 1.125 0 0 0 125.984 -13.9164A 126.75 126.75 0 0 1 126.03 -13.4917A 1.125 1.125 0 0 0 126.89 -12.4557C 127.37726299301858 -12.367383712807781 127.89891292747087 -12.262060283754158 128.4540803266944 -12.136752595193823 C 129.79940745523473 -11.833072909516108 131.340301033942 -11.412458597352996 133.059961754013 -10.832798907999283 A 133.5 133.5 0 0 1 133.234 -8.43257C 131.6152924505147 -7.611417744960058 130.15098787732958 -6.973388327576424 128.86338173634573 -6.479225540652376 C 128.33203226643258 -6.275312326769699 127.83097470711249 -6.095999747540295 127.36163618178544 -5.938444942349338 A 1.125 1.125 0 0 0 126.659 -4.78943A 126.75 126.75 0 0 1 126.675 -4.36252A 1.125 1.125 0 0 0 127.458 -3.26717" stroke="#191919" stroke-width="0.35 px" style="stroke-width:0.35;stroke-miterlimit:4;stroke-dasharray:none;fill:none;fill-rule: evenodd "/>
<title>b'InvoluteGear'</title>
</g>
</svg>