<?xml version="1.0"?>
<!DOCTYPE svg PUBLIC "-//W3C//DTD SVG 1.1//EN" "http://www.w3.org/Graphics/SVG/1.1/DTD/svg11.dtd">
<svg width="152.98397772768115mm" height="152.98397772768115mm" viewBox="0 0 152.98397772768115 152.98397772768115" xmlns="http://www.w3.org/2000/svg" version="1.1">
<g id="InvoluteGear" transform="translate(76.491989,76.491989) scale(1,-1)">
<path id="InvoluteGear_w0000"  d="M 68.9300922654157 -3.1052182340828445 C 69.35503596752228 -3.0398823086413973 69.87760985438221 -2.9388534399074984 70.4930188439617 -2.7831864082947586 C 71.67563293295865 -2.4838662584960463 73.19281886410505 -1.9853495516644462 74.99214594494174 -1.158907694980174 A 75 75 0 0 1 74.9921 1.15891C 73.19281886410505 1.9853495516644464 71.67563293295865 2.4838662584960467 70.4930188439617 2.783186408294759 C 69.87760985438221 2.9388534399074984 69.35503596752228 3.0398823086413973 68.930177224242 3.1051993087324368 A 1.125 1.125 0 0 0 68.1221 4.17655A 68.25 68.25 0 0 1 68.0844 4.7509A 1.125 1.125 0 0 0 68.7457 5.91853C 69.15847828293983 6.038773062041734 69.6633945642151 6.207147194403828 70.25322001968634 6.441809465049394 C 71.38664756180266 6.892931003375521 72.8257842694856 7.585215333155079 74.5018455490676 8.639446177608965 A 75 75 0 0 1 74.1993 10.9374C 72.30750403507649 11.521944555212105 70.73822835239194 11.818163880026917 69.52666257145971 11.960561190547933 C 68.89619986620725 12.0345694770579 68.3649097578517 12.066524450209073 67.93516016070761 12.075827460317916 A 1.125 1.125 0 0 0 66.9941 13.0325A 68.25 68.25 0 0 1 66.8819 13.5971A 1.125 1.125 0 0 0 67.385 14.841C 67.77859986058363 15.014103351369135 68.2572192787124 15.246941819272577 68.81136912300174 15.55658419243955 C 69.87621685874636 16.151788304697817 71.21268031489329 17.025995080605323 72.73679792003497 18.289976730792212 A 75 75 0 0 1 72.1369 20.5288C 70.18498776458027 20.861395892933547 68.59047307237371 20.950249440956476 67.37068582592742 20.93328745473679 C 66.73595679668617 20.924370693842818 66.20504098789041 20.88670501296106 65.77775367163873 20.83983485600546 A 1.125 1.125 0 0 0 64.7199 21.6655A 68.25 68.25 0 0 1 64.5349 22.2106A 1.125 1.125 0 0 0 64.8714 23.5096C 65.23901080283477 23.73253816965874 65.68314404687447 24.02585704236268 66.19213662250677 24.405181451197087 C 67.17018471188952 25.134284030004995 68.38110765622811 26.175455331728774 69.72720351214029 27.627560711172038 A 75 75 0 0 1 68.8402 29.7689C 66.86158689447721 29.843902963055253 65.26911578121532 29.72387042544477 64.06197796723056 29.54783936677135 C 63.43384300367097 29.456150126724538 62.91238561112116 29.34950826205263 62.49487158020941 29.24726689941296 A 1.125 1.125 0 0 0 61.3383 29.9278A 68.25 68.25 0 0 1 61.0837 30.444A 1.125 1.125 0 0 0 61.2478 31.7758C 61.58316418257845 32.044902679962796 61.98521200958658 32.393683190231926 62.44033831247336 32.83619928893002 C 63.31485208151875 33.68672518701874 64.37951528674009 34.87704628491906 65.52455732011981 36.49242946797676 A 75 75 0 0 1 64.3656 38.4997C 62.39416573507564 38.315772579185975 60.8309858230227 37.9889077459399 59.657151904178605 37.656819555031674 C 59.04635856967908 37.483926664150275 58.543281873937055 37.310133287559474 58.14268490919088 37.154270097297164 A 1.125 1.125 0 0 0 56.9072 37.678A 68.25 68.25 0 0 1 56.5874 38.1566A 1.125 1.125 0 0 0 56.5763 39.4984C 56.873612549079425 39.808970020887195 57.22669580926714 40.20724443749057 57.620168502181166 40.70538065291498 C 58.3761847778398 41.66277713635789 59.276371561322144 42.98188130643034 60.20076778551267 44.732902638971524 A 75 75 0 0 1 58.7898 46.5717C 56.859163101016 46.13204870334772 55.35202083186261 45.60394432238695 54.23157543195884 45.1214811202626 C 53.648574569816574 44.87034282384457 53.1724863526257 44.63237158819296 52.79566077917836 44.425553432706835 A 1.125 1.125 0 0 0 51.5024 44.7836A 68.25 68.25 0 0 1 51.1229 45.2163A 1.125 1.125 0 0 0 50.9367 46.5452C 51.19093763652127 46.89189484762256 51.48901497741359 47.33284858486957 51.81410163348786 47.87808166826494 C 52.4386847676759 48.92596741778987 53.15899268397494 50.35128442195973 53.84692642328931 52.207983443509804 A 75 75 0 0 1 52.208 53.8469C 50.35128442195974 53.15899268397493 48.925967417789884 52.4386847676759 47.87808166826495 51.81410163348785 C 47.33284858486958 51.48901497741358 46.89189484762257 51.19093763652126 46.54528825551155 50.936703231792514 A 1.125 1.125 0 0 0 45.2163 51.1229A 68.25 68.25 0 0 1 44.7836 51.5024A 1.125 1.125 0 0 0 44.4255 52.7956C 44.632371588192974 53.17248635262569 44.87034282384458 53.64857456981657 45.12148112026262 54.23157543195883 C 45.603944322386965 55.3520208318626 46.132048703347735 56.85916310101599 46.57174922077502 58.789771176542 A 75 75 0 0 1 44.7329 60.2008C 42.98188130643035 59.27637156132213 41.6627771363579 58.376184777839796 40.705380652915004 57.62016850218116 C 40.20724443749059 57.226695809267135 39.80897002088721 56.87361254907942 39.498512945001025 56.57631191626006 A 1.125 1.125 0 0 0 38.1566 56.5874A 68.25 68.25 0 0 1 37.678 56.9072A 1.125 1.125 0 0 0 37.1542 58.1426C 37.31013328755949 58.54328187393705 37.48392666415029 59.04635856967907 37.65681955503169 59.6571519041786 C 37.98890774593991 60.830985823022694 38.31577257918599 62.39416573507563 38.49971647696498 64.36564962513964 A 75 75 0 0 1 36.4924 65.5246C 34.877046284919075 64.37951528674007 33.68672518701875 63.314852081518744 32.83619928893003 62.44033831247335 C 32.39368319023194 61.985212009586576 32.04490267996281 61.58316418257844 31.77590712694484 61.247884217923314 A 1.125 1.125 0 0 0 30.444 61.0837A 68.25 68.25 0 0 1 29.9278 61.3383A 1.125 1.125 0 0 0 29.2473 62.4948C 29.349508262052634 62.91238561112116 29.456150126724538 63.43384300367097 29.54783936677135 64.06197796723056 C 29.723870425444773 65.26911578121532 29.843902963055257 66.86158689447721 29.768942910096076 68.84021396312163 A 75 75 0 0 1 27.6276 69.7272C 26.175455331728777 68.38110765622811 25.134284030005 67.17018471188952 24.405181451197095 66.19213662250677 C 24.025857042362688 65.68314404687447 23.732538169658742 65.23901080283477 23.509606728000776 64.87148823949627 A 1.125 1.125 0 0 0 22.2106 64.5349A 68.25 68.25 0 0 1 21.6655 64.7199A 1.125 1.125 0 0 0 20.8398 65.7777C 20.886705012961073 66.20504098789038 20.92437069384283 66.73595679668615 20.933287454736806 67.37068582592741 C 20.95024944095649 68.59047307237371 20.861395892933565 70.18498776458026 20.528814476525195 72.13690315408152 A 75 75 0 0 1 18.29 72.7368C 17.02599508060534 71.21268031489328 16.15178830469783 69.87621685874636 15.556584192439567 68.81136912300173 C 15.24694181927259 68.25721927871238 15.014103351369151 67.77859986058363 14.841050439846232 67.385123111517 A 1.125 1.125 0 0 0 13.5971 66.8819A 68.25 68.25 0 0 1 13.0325 66.9941A 1.125 1.125 0 0 0 12.0758 67.9351C 12.066524450209084 68.3649097578517 12.034569477057907 68.89619986620725 11.960561190547944 69.52666257145971 C 11.818163880026928 70.73822835239194 11.521944555212116 72.30750403507649 10.937432335598297 74.19930993194704 A 75 75 0 0 1 8.63945 74.5018C 7.58521533315509 72.8257842694856 6.892931003375532 71.38664756180266 6.441809465049404 70.25322001968634 C 6.207147194403837 69.6633945642151 6.038773062041745 69.15847828293983 5.91855966394936 68.74577984441397 A 1.125 1.125 0 0 0 4.7509 68.0844A 68.25 68.25 0 0 1 4.17655 68.1221A 1.125 1.125 0 0 0 3.10522 68.9301C 3.0398823086414017 69.35503596752228 2.938853439907503 69.87760985438221 2.783186408294763 70.4930188439617 C 2.4838662584960507 71.67563293295865 1.9853495516644506 73.19281886410505 1.1589076949801786 74.99214594494174 A 75 75 0 0 1 -1.15891 74.9921C -1.9853495516644417 73.19281886410505 -2.483866258496042 71.67563293295865 -2.783186408294754 70.4930188439617 C -2.938853439907494 69.87760985438221 -3.039882308641393 69.35503596752228 -3.1051993087324323 68.930177224242 A 1.125 1.125 0 0 0 -4.17655 68.1221A 68.25 68.25 0 0 1 -4.7509 68.0844A 1.125 1.125 0 0 0 -5.91853 68.7457C -6.038773062041722 69.15847828293983 -6.207147194403813 69.66339456421511 -6.441809465049379 70.25322001968634 C -6.892931003375507 71.38664756180268 -7.585215333155065 72.82578426948561 -8.639446177608951 74.50184554906761 A 75 75 0 0 1 -10.9374 74.1993C -11.521944555212093 72.3075040350765 -11.818163880026903 70.73822835239196 -11.96056119054792 69.52666257145971 C -12.034569477057886 68.89619986620727 -12.06652445020906 68.3649097578517 -12.075827460317901 67.93516016070762 A 1.125 1.125 0 0 0 -13.0325 66.9941A 68.25 68.25 0 0 1 -13.5971 66.8819A 1.125 1.125 0 0 0 -14.841 67.385C -15.014103351369128 67.77859986058363 -15.24694181927257 68.2572192787124 -15.556584192439542 68.81136912300174 C -16.151788304697806 69.87621685874635 -17.025995080605316 71.21268031489329 -18.2899767307922 72.73679792003497 A 75 75 0 0 1 -20.5288 72.1369C -20.86139589293354 70.18498776458027 -20.950249440956465 68.59047307237373 -20.93328745473678 67.37068582592742 C -20.92437069384281 66.73595679668617 -20.886705012961052 66.20504098789041 -20.839834856005453 65.77775367163873 A 1.125 1.125 0 0 0 -21.6655 64.7199A 68.25 68.25 0 0 1 -22.2106 64.5349A 1.125 1.125 0 0 0 -23.5096 64.8714C -23.732538169658717 65.23901080283478 -24.02585704236266 65.68314404687449 -24.405181451197073 66.19213662250678 C -25.134284030004977 67.17018471188953 -26.17545533172875 68.38110765622812 -27.627560711172016 69.7272035121403 A 75 75 0 0 1 -29.7689 68.8402C -29.843902963055235 66.86158689447723 -29.72387042544475 65.26911578121533 -29.547839366771328 64.06197796723058 C -29.456150126724516 63.43384300367099 -29.34950826205261 62.912385611121174 -29.247266899412942 62.49487158020942 A 1.125 1.125 0 0 0 -29.9278 61.3383A 68.25 68.25 0 0 1 -30.444 61.0837A 1.125 1.125 0 0 0 -31.7758 61.2478C -32.04490267996279 61.583164182578464 -32.39368319023191 61.98521200958659 -32.83619928893001 62.440338312473365 C -33.68672518701873 63.31485208151876 -34.877046284919054 64.37951528674009 -36.492429467976756 65.52455732011983 A 75 75 0 0 1 -38.4997 64.3656C -38.31577257918597 62.394165735075646 -37.98890774593989 60.83098582302271 -37.65681955503167 59.65715190417861 C -37.483926664150275 59.046358569679086 -37.31013328755947 58.54328187393707 -37.15427009729716 58.14268490919089 A 1.125 1.125 0 0 0 -37.678 56.9072A 68.25 68.25 0 0 1 -38.1566 56.5874A 1.125 1.125 0 0 0 -39.4984 56.5763C -39.80897002088718 56.87361254907944 -40.20724443749055 57.22669580926716 -40.70538065291497 57.62016850218119 C -41.662777136357874 58.37618477783982 -42.98188130643032 59.27637156132216 -44.7329026389715 60.20076778551268 A 75 75 0 0 1 -46.5717 58.7898C -46.132048703347714 56.859163101016016 -45.60394432238694 55.352020831862625 -45.12148112026259 54.23157543195886 C -44.87034282384456 53.648574569816596 -44.632371588192946 53.17248635262571 -44.42555343270682 52.795660779178384 A 1.125 1.125 0 0 0 -44.7836 51.5024A 68.25 68.25 0 0 1 -45.2163 51.1229A 1.125 1.125 0 0 0 -46.5452 50.9367C -46.89189484762256 51.19093763652127 -47.33284858486957 51.48901497741359 -47.87808166826494 51.81410163348786 C -48.92596741778987 52.4386847676759 -50.35128442195973 53.15899268397494 -52.207983443509804 53.84692642328931 A 75 75 0 0 1 -53.8469 52.208C -53.15899268397493 50.35128442195974 -52.4386847676759 48.925967417789884 -51.81410163348785 47.87808166826495 C -51.48901497741358 47.33284858486958 -51.19093763652126 46.89189484762257 -50.936703231792514 46.54528825551155 A 1.125 1.125 0 0 0 -51.1229 45.2163A 68.25 68.25 0 0 1 -51.5024 44.7836A 1.125 1.125 0 0 0 -52.7956 44.4255C -53.17248635262568 44.63237158819298 -53.64857456981656 44.87034282384459 -54.231575431958824 45.12148112026263 C -55.352020831862596 45.60394432238697 -56.85916310101598 46.13204870334774 -58.78977117654199 46.571749220775025 A 75 75 0 0 1 -60.2008 44.7329C -59.27637156132212 42.98188130643036 -58.37618477783979 41.66277713635791 -57.62016850218115 40.70538065291501 C -57.22669580926713 40.207244437490594 -56.87361254907941 39.808970020887216 -56.576311916260046 39.49851294500103 A 1.125 1.125 0 0 0 -56.5874 38.1566A 68.25 68.25 0 0 1 -56.9072 37.678A 1.125 1.125 0 0 0 -58.1426 37.1542C -58.54328187393704 37.3101332875595 -59.046358569679064 37.4839266641503 -59.65715190417859 37.6568195550317 C -60.83098582302269 37.988907745939926 -62.394165735075624 38.315772579186 -64.36564962513962 38.499716476965 A 75 75 0 0 1 -65.5246 36.4924C -64.37951528674007 34.87704628491909 -63.31485208151874 33.686725187018766 -62.440338312473344 32.83619928893005 C -61.98521200958657 32.393683190231954 -61.583164182578436 32.044902679962824 -61.2478842179233 31.775907126944855 A 1.125 1.125 0 0 0 -61.0837 30.444A 68.25 68.25 0 0 1 -61.3383 29.9278A 1.125 1.125 0 0 0 -62.4948 29.2473C -62.91238561112116 29.349508262052634 -63.43384300367097 29.456150126724538 -64.06197796723056 29.54783936677135 C -65.26911578121532 29.723870425444773 -66.86158689447721 29.843902963055257 -68.84021396312163 29.768942910096076 A 75 75 0 0 1 -69.7272 27.6276C -68.38110765622811 26.175455331728777 -67.17018471188952 25.134284030005 -66.19213662250677 24.405181451197095 C -65.68314404687447 24.025857042362688 -65.23901080283477 23.732538169658742 -64.87148823949627 23.509606728000776 A 1.125 1.125 0 0 0 -64.5349 22.2106A 68.25 68.25 0 0 1 -64.7199 21.6655A 1.125 1.125 0 0 0 -65.7777 20.8398C -66.20504098789038 20.886705012961077 -66.73595679668615 20.924370693842835 -67.37068582592741 20.933287454736806 C -68.59047307237371 20.950249440956494 -70.18498776458026 20.86139589293357 -72.13690315408152 20.5288144765252 A 75 75 0 0 1 -72.7368 18.29C -71.21268031489328 17.025995080605345 -69.87621685874636 16.151788304697835 -68.81136912300173 15.556584192439571 C -68.25721927871238 15.246941819272594 -67.77859986058363 15.014103351369155 -67.385123111517 14.841050439846235 A 1.125 1.125 0 0 0 -66.8819 13.5971A 68.25 68.25 0 0 1 -66.9941 13.0325A 1.125 1.125 0 0 0 -67.9351 12.0758C -68.3649097578517 12.066524450209103 -68.89619986620725 12.034569477057929 -69.52666257145971 11.960561190547963 C -70.73822835239194 11.818163880026948 -72.30750403507649 11.521944555212137 -74.19930993194704 10.937432335598318 A 75 75 0 0 1 -74.5018 8.63945C -72.8257842694856 7.5852153331551095 -71.38664756180266 6.892931003375551 -70.25322001968634 6.441809465049424 C -69.6633945642151 6.2071471944038565 -69.15847828293983 6.038773062041765 -68.74577984441397 5.918559663949379 A 1.125 1.125 0 0 0 -68.0844 4.7509A 68.25 68.25 0 0 1 -68.1221 4.17655A 1.125 1.125 0 0 0 -68.9301 3.10522C -69.35503596752228 3.0398823086414057 -69.87760985438221 2.938853439907507 -70.4930188439617 2.783186408294767 C -71.67563293295865 2.483866258496055 -73.19281886410505 1.985349551664455 -74.99214594494174 1.158907694980183 A 75 75 0 0 1 -74.9921 -1.15891C -73.19281886410505 -1.9853495516644373 -71.67563293295865 -2.4838662584960374 -70.4930188439617 -2.78318640829475 C -69.87760985438221 -2.93885343990749 -69.35503596752228 -3.039882308641389 -68.930177224242 -3.1051993087324283 A 1.125 1.125 0 0 0 -68.1221 -4.17655A 68.25 68.25 0 0 1 -68.0844 -4.7509A 1.125 1.125 0 0 0 -68.7457 -5.91853C -69.15847828293983 -6.038773062041718 -69.66339456421511 -6.2071471944038095 -70.25322001968634 -6.441809465049375 C -71.38664756180268 -6.892931003375503 -72.82578426948561 -7.585215333155062 -74.50184554906761 -8.639446177608948 A 75 75 0 0 1 -74.1993 -10.9374C -72.3075040350765 -11.52194455521209 -70.73822835239196 -11.8181638800269 -69.52666257145971 -11.960561190547917 C -68.89619986620727 -12.034569477057882 -68.3649097578517 -12.066524450209057 -67.93516016070762 -12.075827460317898 A 1.125 1.125 0 0 0 -66.9941 -13.0325A 68.25 68.25 0 0 1 -66.8819 -13.5971A 1.125 1.125 0 0 0 -67.385 -14.841C -67.77859986058363 -15.014103351369107 -68.25721927871241 -15.246941819272548 -68.81136912300174 -15.556584192439525 C -69.87621685874636 -16.15178830469779 -71.21268031489329 -17.025995080605295 -72.73679792003499 -18.289976730792183 A 75 75 0 0 1 -72.1369 -20.5288C -70.18498776458027 -20.86139589293352 -68.59047307237374 -20.950249440956448 -67.37068582592742 -20.933287454736764 C -66.73595679668618 -20.92437069384279 -66.20504098789041 -20.88670501296103 -65.77775367163873 -20.839834856005435 A 1.125 1.125 0 0 0 -64.7199 -21.6655A 68.25 68.25 0 0 1 -64.5349 -22.2106A 1.125 1.125 0 0 0 -64.8714 -23.5096C -65.23901080283477 -23.7325381696587 -65.68314404687449 -24.02585704236264 -66.19213662250678 -24.40518145119705 C -67.17018471188955 -25.134284030004956 -68.38110765622811 -26.175455331728728 -69.7272035121403 -27.627560711171995 A 75 75 0 0 1 -68.8402 -29.7689C -66.86158689447724 -29.843902963055214 -65.26911578121535 -29.72387042544473 -64.06197796723058 -29.54783936677131 C -63.43384300367099 -29.4561501267245 -62.912385611121174 -29.34950826205259 -62.49487158020943 -29.24726689941292 A 1.125 1.125 0 0 0 -61.3383 -29.9278A 68.25 68.25 0 0 1 -61.0837 -30.444A 1.125 1.125 0 0 0 -61.2478 -31.7758C -61.583164182578464 -32.04490267996279 -61.98521200958659 -32.39368319023191 -62.440338312473365 -32.83619928893001 C -63.31485208151876 -33.68672518701873 -64.37951528674009 -34.877046284919054 -65.52455732011983 -36.492429467976756 A 75 75 0 0 1 -64.3656 -38.4997C -62.394165735075646 -38.31577257918597 -60.83098582302271 -37.98890774593989 -59.65715190417861 -37.65681955503167 C -59.046358569679086 -37.483926664150275 -58.54328187393707 -37.31013328755947 -58.14268490919089 -37.15427009729716 A 1.125 1.125 0 0 0 -56.9072 -37.678A 68.25 68.25 0 0 1 -56.5874 -38.1566A 1.125 1.125 0 0 0 -56.5763 -39.4984C -56.87361254907944 -39.80897002088718 -57.22669580926716 -40.20724443749055 -57.62016850218119 -40.70538065291497 C -58.37618477783982 -41.662777136357874 -59.27637156132216 -42.98188130643032 -60.20076778551268 -44.7329026389715 A 75 75 0 0 1 -58.7898 -46.5717C -56.859163101016016 -46.132048703347714 -55.352020831862625 -45.60394432238694 -54.23157543195886 -45.12148112026259 C -53.648574569816596 -44.87034282384456 -53.17248635262571 -44.632371588192946 -52.795660779178384 -44.42555343270682 A 1.125 1.125 0 0 0 -51.5024 -44.7836A 68.25 68.25 0 0 1 -51.1229 -45.2163A 1.125 1.125 0 0 0 -50.9367 -46.5452C -51.19093763652129 -46.89189484762253 -51.48901497741361 -47.33284858486955 -51.81410163348789 -47.87808166826492 C -52.43868476767593 -48.92596741778985 -53.158992683974965 -50.351284421959704 -53.84692642328933 -52.207983443509775 A 75 75 0 0 1 -52.208 -53.8469C -50.35128442195977 -53.158992683974915 -48.92596741778991 -52.43868476767588 -47.878081668264976 -51.81410163348783 C -47.3328485848696 -51.48901497741356 -46.89189484762259 -51.190937636521234 -46.54528825551157 -50.936703231792485 A 1.125 1.125 0 0 0 -45.2163 -51.1229A 68.25 68.25 0 0 1 -44.7836 -51.5024A 1.125 1.125 0 0 0 -44.4255 -52.7956C -44.63237158819298 -53.17248635262568 -44.87034282384459 -53.64857456981656 -45.12148112026263 -54.231575431958824 C -45.60394432238697 -55.352020831862596 -46.13204870334774 -56.85916310101598 -46.571749220775025 -58.78977117654199 A 75 75 0 0 1 -44.7329 -60.2008C -42.98188130643036 -59.27637156132212 -41.66277713635791 -58.37618477783979 -40.70538065291501 -57.62016850218115 C -40.207244437490594 -57.22669580926713 -39.808970020887216 -56.87361254907941 -39.49851294500103 -56.576311916260046 A 1.125 1.125 0 0 0 -38.1566 -56.5874A 68.25 68.25 0 0 1 -37.678 -56.9072A 1.125 1.125 0 0 0 -37.1542 -58.1426C -37.31013328755951 -58.54328187393703 -37.48392666415031 -59.04635856967906 -37.65681955503171 -59.657151904178576 C -37.98890774593993 -60.83098582302268 -38.31577257918602 -62.39416573507561 -38.499716476965006 -64.36564962513961 A 75 75 0 0 1 -36.4924 -65.5246C -34.8770462849191 -64.37951528674006 -33.68672518701877 -63.31485208151873 -32.836199288930054 -62.440338312473344 C -32.39368319023196 -61.98521200958656 -32.04490267996283 -61.58316418257843 -31.775907126944862 -61.24788421792329 A 1.125 1.125 0 0 0 -30.444 -61.0837A 68.25 68.25 0 0 1 -29.9278 -61.3383A 1.125 1.125 0 0 0 -29.2473 -62.4948C -29.349508262052666 -62.912385611121145 -29.45615012672457 -63.43384300367096 -29.547839366771385 -64.06197796723055 C -29.723870425444808 -65.2691157812153 -29.843902963055292 -66.8615868944772 -29.768942910096115 -68.84021396312161 A 75 75 0 0 1 -27.6276 -69.7272C -26.175455331728813 -68.3811076562281 -25.134284030005034 -67.1701847118895 -24.40518145119713 -66.19213662250675 C -24.02585704236272 -65.68314404687446 -23.732538169658774 -65.23901080283476 -23.50960672800081 -64.87148823949627 A 1.125 1.125 0 0 0 -22.2106 -64.5349A 68.25 68.25 0 0 1 -21.6655 -64.7199A 1.125 1.125 0 0 0 -20.8398 -65.7777C -20.88670501296111 -66.20504098789038 -20.924370693842867 -66.73595679668615 -20.93328745473684 -67.37068582592738 C -20.950249440956526 -68.5904730723737 -20.8613958929336 -70.18498776458026 -20.52881447652523 -72.1369031540815 A 75 75 0 0 1 -18.29 -72.7368C -17.025995080605377 -71.21268031489328 -16.151788304697867 -69.87621685874635 -15.556584192439603 -68.81136912300173 C -15.246941819272628 -68.25721927871238 -15.014103351369187 -67.77859986058363 -14.841050439846265 -67.385123111517 A 1.125 1.125 0 0 0 -13.5971 -66.8819A 68.25 68.25 0 0 1 -13.0325 -66.9941A 1.125 1.125 0 0 0 -12.0758 -67.9351C -12.066524450209137 -68.36490975785169 -12.034569477057964 -68.89619986620724 -11.960561190547999 -69.5266625714597 C -11.818163880026983 -70.73822835239194 -11.521944555212174 -72.30750403507649 -10.937432335598357 -74.19930993194703 A 75 75 0 0 1 -8.63945 -74.5018C -7.585215333155149 -72.8257842694856 -6.8929310033755895 -71.38664756180266 -6.4418094650494595 -70.25322001968632 C -6.207147194403895 -69.66339456421511 -6.038773062041801 -69.15847828293981 -5.918559663949415 -68.74577984441396 A 1.125 1.125 0 0 0 -4.7509 -68.0844A 68.25 68.25 0 0 1 -4.17655 -68.1221A 1.125 1.125 0 0 0 -3.10522 -68.9301C -3.03988230864141 -69.35503596752228 -2.9388534399075112 -69.87760985438221 -2.7831864082947715 -70.4930188439617 C -2.4838662584960596 -71.67563293295865 -1.9853495516644597 -73.19281886410505 -1.1589076949801878 -74.99214594494174 A 75 75 0 0 1 1.15891 -74.9921C 1.9853495516644326 -73.19281886410505 2.483866258496033 -71.67563293295865 2.7831864082947457 -70.4930188439617 C 2.9388534399074855 -69.87760985438221 3.0398823086413844 -69.35503596752228 3.105199308732424 -68.930177224242 A 1.125 1.125 0 0 0 4.17655 -68.1221A 68.25 68.25 0 0 1 4.7509 -68.0844A 1.125 1.125 0 0 0 5.91853 -68.7457C 6.038773062041711 -69.15847828293983 6.207147194403802 -69.66339456421511 6.44180946504937 -70.25322001968634 C 6.892931003375498 -71.38664756180268 7.5852153331550545 -72.82578426948561 8.63944617760894 -74.50184554906761 A 75 75 0 0 1 10.9374 -74.1993C 11.521944555212082 -72.3075040350765 11.818163880026894 -70.73822835239196 11.96056119054791 -69.52666257145971 C 12.034569477057875 -68.89619986620727 12.06652445020905 -68.3649097578517 12.075827460317893 -67.93516016070762 A 1.125 1.125 0 0 0 13.0325 -66.9941A 68.25 68.25 0 0 1 13.5971 -66.8819A 1.125 1.125 0 0 0 14.841 -67.385C 15.014103351369103 -67.77859986058363 15.246941819272545 -68.25721927871241 15.556584192439521 -68.81136912300174 C 16.151788304697785 -69.87621685874636 17.02599508060529 -71.21268031489329 18.289976730792176 -72.73679792003499 A 75 75 0 0 1 20.5288 -72.1369C 20.861395892933515 -70.18498776458027 20.950249440956444 -68.59047307237374 20.93328745473676 -67.37068582592742 C 20.92437069384279 -66.73595679668618 20.88670501296103 -66.20504098789041 20.83983485600543 -65.77775367163873 A 1.125 1.125 0 0 0 21.6655 -64.7199A 68.25 68.25 0 0 1 22.2106 -64.5349A 1.125 1.125 0 0 0 23.5096 -64.8714C 23.732538169658696 -65.23901080283477 24.025857042362635 -65.68314404687449 24.405181451197045 -66.19213662250678 C 25.134284030004952 -67.17018471188955 26.175455331728724 -68.38110765622811 27.62756071117199 -69.7272035121403 A 75 75 0 0 1 29.7689 -68.8402C 29.84390296305521 -66.86158689447724 29.723870425444726 -65.26911578121535 29.547839366771306 -64.06197796723058 C 29.45615012672449 -63.43384300367099 29.349508262052588 -62.912385611121174 29.247266899412917 -62.49487158020943 A 1.125 1.125 0 0 0 29.9278 -61.3383A 68.25 68.25 0 0 1 30.444 -61.0837A 1.125 1.125 0 0 0 31.7758 -61.2478C 32.04490267996275 -61.58316418257848 32.393683190231876 -61.9852120095866 32.836199288929976 -62.440338312473386 C 33.686725187018695 -63.31485208151877 34.87704628491902 -64.3795152867401 36.49242946797671 -65.52455732011984 A 75 75 0 0 1 38.4997 -64.3656C 38.31577257918593 -62.39416573507566 37.988907745939855 -60.830985823022736 37.65681955503163 -59.65715190417863 C 37.48392666415024 -59.04635856967911 37.31013328755943 -58.54328187393708 37.15427009729712 -58.142684909190905 A 1.125 1.125 0 0 0 37.678 -56.9072A 68.25 68.25 0 0 1 38.1566 -56.5874A 1.125 1.125 0 0 0 39.4984 -56.5763C 39.808970020887145 -56.87361254907946 40.207244437490516 -57.226695809267184 40.70538065291493 -57.62016850218121 C 41.66277713635784 -58.37618477783984 42.98188130643028 -59.27637156132218 44.732902638971474 -60.20076778551271 A 75 75 0 0 1 46.5717 -58.7898C 46.13204870334768 -56.85916310101604 45.6039443223869 -55.352020831862646 45.121481120262565 -54.23157543195888 C 44.870342823844524 -53.64857456981662 44.63237158819291 -53.17248635262573 44.42555343270679 -52.795660779178405 A 1.125 1.125 0 0 0 44.7836 -51.5024A 68.25 68.25 0 0 1 45.2163 -51.1229A 1.125 1.125 0 0 0 46.5452 -50.9367C 46.89189484762256 -51.19093763652128 47.33284858486957 -51.489014977413596 47.87808166826494 -51.814101633487866 C 48.92596741778987 -52.43868476767591 50.35128442195973 -53.15899268397495 52.207983443509804 -53.84692642328932 A 75 75 0 0 1 53.8469 -52.208C 53.15899268397493 -50.351284421959754 52.4386847676759 -48.92596741778989 51.81410163348785 -47.878081668264954 C 51.48901497741358 -47.33284858486959 51.19093763652126 -46.891894847622574 50.936703231792514 -46.54528825551156 A 1.125 1.125 0 0 0 51.1229 -45.2163A 68.25 68.25 0 0 1 51.5024 -44.7836A 1.125 1.125 0 0 0 52.7956 -44.4255C 53.17248635262568 -44.63237158819298 53.64857456981656 -44.87034282384459 54.231575431958824 -45.12148112026263 C 55.352020831862596 -45.60394432238697 56.85916310101598 -46.13204870334774 58.78977117654199 -46.571749220775025 A 75 75 0 0 1 60.2008 -44.7329C 59.27637156132212 -42.98188130643036 58.37618477783979 -41.66277713635791 57.62016850218115 -40.70538065291501 C 57.22669580926713 -40.207244437490594 56.87361254907941 -39.808970020887216 56.576311916260046 -39.49851294500103 A 1.125 1.125 0 0 0 56.5874 -38.1566A 68.25 68.25 0 0 1 56.9072 -37.678A 1.125 1.125 0 0 0 58.1426 -37.1542C 58.54328187393703 -37.31013328755951 59.04635856967906 -37.48392666415031 59.657151904178576 -37.65681955503171 C 60.83098582302268 -37.98890774593993 62.39416573507561 -38.31577257918602 64.36564962513961 -38.499716476965006 A 75 75 0 0 1 65.5246 -36.4924C 64.37951528674006 -34.8770462849191 63.31485208151873 -33.68672518701877 62.440338312473344 -32.836199288930054 C 61.98521200958656 -32.39368319023196 61.58316418257843 -32.04490267996283 61.24788421792329 -31.775907126944862 A 1.125 1.125 0 0 0 61.0837 -30.444A 68.25 68.25 0 0 1 61.3383 -29.9278A 1.125 1.125 0 0 0 62.4948 -29.2473C 62.912385611121145 -29.349508262052673 63.43384300367096 -29.456150126724577 64.06197796723055 -29.547839366771388 C 65.2691157812153 -29.723870425444815 66.8615868944772 -29.843902963055296 68.84021396312161 -29.76894291009612 A 75 75 0 0 1 69.7272 -27.6276C 68.3811076562281 -26.175455331728816 67.1701847118895 -25.13428403000504 66.19213662250675 -24.405181451197134 C 65.68314404687446 -24.025857042362727 65.23901080283476 -23.73253816965878 64.87148823949627 -23.509606728000815 A 1.125 1.125 0 0 0 64.5349 -22.2106A 68.25 68.25 0 0 1 64.7199 -21.6655A 1.125 1.125 0 0 0 65.7777 -20.8398C 66.20504098789038 -20.886705012961112 66.73595679668615 -20.92437069384287 67.37068582592738 -20.933287454736842 C 68.5904730723737 -20.95024944095653 70.18498776458026 -20.861395892933604 72.1369031540815 -20.528814476525234 A 75 75 0 0 1 72.7368 -18.29C 71.21268031489328 -17.02599508060538 69.87621685874635 -16.15178830469787 68.81136912300173 -15.556584192439606 C 68.25721927871238 -15.246941819272632 67.77859986058363 -15.01410335136919 67.385123111517 -14.841050439846272 A 1.125 1.125 0 0 0 66.8819 -13.5971A 68.25 68.25 0 0 1 66.9941 -13.0325A 1.125 1.125 0 0 0 67.9351 -12.0758C 68.36490975785169 -12.06652445020914 68.89619986620724 -12.034569477057968 69.5266625714597 -11.960561190548004 C 70.73822835239194 -11.81816388002699 72.30750403507649 -11.521944555212178 74.19930993194703 -10.937432335598363 A 75 75 0 0 1 74.5018 -8.63945C 72.8257842694856 -7.585215333155152 71.38664756180266 -6.892931003375595 70.25322001968632 -6.441809465049465 C 69.66339456421511 -6.207147194403898 69.15847828293981 -6.0387730620418045 68.74577984441396 -5.918559663949418 A 1.125 1.125 0 0 0 68.0844 -4.7509A 68.25 68.25 0 0 1 68.1221 -4.17655A 1.125 1.125 0 0 0 68.9301 -3.10522" stroke="#191919" stroke-width="0.35 px" style="stroke-width:0.35;stroke-miterlimit:4;stroke-dasharray:none;fill:none;fill-rule: evenodd "/>
<title>b'InvoluteGear'</title>
</g>
</svg>