<?xml version="1.0"?>
<!DOCTYPE svg PUBLIC "-//W3C//DTD SVG 1.1//EN" "http://www.w3.org/Graphics/SVG/1.1/DTD/svg11.dtd">
<svg width="131.45910063681714mm" height="131.55374575497356mm" viewBox="0 0 131.45910063681714 131.55374575497356" xmlns="http://www.w3.org/2000/svg" version="1.1">
<g id="InvoluteGear" transform="translate(65.678681,65.776873) scale(1,-1)">
<path id="InvoluteGear_w0000"  d="M 58.42110023584198 -3.037276285375314 C 58.79941006928079 -2.9978119000283927 59.32556082735254 -2.9189730713257864 59.99284440640125 -2.76314559880723 C 61.12355205531758 -2.498716474604448 62.64515453893367 -2.016864107180058 64.49160540975404 -1.1429449938145875 A 64.5 64.5 0 0 1 64.4916 1.14294C 62.64515453893367 2.016864107180058 61.12355205531758 2.498716474604448 59.99284440640125 2.76314559880723 C 59.32556082735254 2.9189730713257864 58.79941006928079 2.9978119000283927 58.42132229184647 3.037241306339073 A 1.125 1.125 0 0 0 57.6043 4.0996A 57.75 57.75 0 0 1 57.555 4.7417A 1.125 1.125 0 0 0 58.2001 5.91626C 58.56791974206547 6.013009044593962 59.075869545454864 6.1712404522453905 59.7115458915972 6.427102053535446 C 60.78863720950373 6.861033893730321 62.21885273785057 7.569510685597718 63.91026085983409 8.71504724108034 A 64.5 64.5 0 0 1 63.5613 10.9741C 61.603107013195014 11.555965314700282 60.02578264687517 11.799899046588367 58.86796149589628 11.888627460247474 C 58.184711245470766 11.940768340111939 57.652692060541156 11.938366674541626 57.2730164409817 11.919619156322499 A 1.125 1.125 0 0 0 56.3034 12.8448A 57.75 57.75 0 0 1 56.1567 13.4719A 1.125 1.125 0 0 0 56.6149 14.7311C 56.96364701596301 14.882890153601172 57.441489951796896 15.1168053301168 58.03065935025356 15.466703881102347 C 59.02888822955884 16.059967442738724 60.33419376284644 16.97846256352484 61.83091396318486 18.368766155175862 A 64.5 64.5 0 0 1 61.1412 20.5481C 59.11713487143939 20.824204489625952 57.52105976868419 20.82450198605092 56.363263462097976 20.735449970352896 C 55.68006134706957 20.68268211953181 55.154643814058296 20.599096252693982 54.78227962709804 20.522611235882447 A 1.125 1.125 0 0 0 53.6828 21.289A 57.75 57.75 0 0 1 53.4421 21.8862A 1.125 1.125 0 0 0 53.7027 23.2007C 54.02419468395476 23.403928931560728 54.460730518818075 23.70804510346033 54.98958333824607 24.143779278666532 C 55.885552140078744 24.88246896668653 57.03535242293252 25.989453669240504 58.30230284869112 27.59193675923831 A 64.5 64.5 0 0 1 57.288 29.6405C 55.24550719365726 29.60434196109206 53.66809200210477 29.36099624898985 52.53745830403498 29.096251107705672 C 51.87031800292467 28.93981135989832 51.36381746348228 28.777000473667577 51.00749261006232 28.644570702232 A 1.125 1.125 0 0 0 49.8039 29.2341A 57.75 57.75 0 0 1 49.4748 29.7876A 1.125 1.125 0 0 0 49.5317 31.1265C 49.81846101733871 31.376399451614816 50.20345772125287 31.743588393585984 50.65959809979967 32.254944953257166 C 51.432306074832724 33.12174650745795 52.39965076314811 34.39127400858864 53.4071351701645 36.16837575150536 A 64.5 64.5 0 0 1 52.092 38.0381C 50.078971651176396 37.690578748466876 48.55718964596147 37.20929364507891 47.48021965201017 36.7750607799327 C 46.844778368034106 36.518615950235514 46.369066765515164 36.28039619379298 46.03713319819273 36.09512570933354 A 1.125 1.125 0 0 0 44.7577 36.494A 57.75 57.75 0 0 1 44.3479 36.9908A 1.125 1.125 0 0 0 44.1998 38.3227C 44.44502484864578 38.61343376192604 44.76945842517912 39.03508887638389 45.142194818978254 39.61008205616708 C 45.77353034719381 40.5846783827851 46.535745701360035 41.98699203386762 47.26014950903794 43.89705867105088 A 64.5 64.5 0 0 1 45.675 45.5441C 43.738627458160074 44.893380315030825 42.30814791968234 44.18543673526217 41.31008489371031 43.59189419657425 C 40.72123683198982 43.24145513444277 40.287464443162925 42.93341017697376 39.9877024034222 42.699641562618204 A 1.125 1.125 0 0 0 38.6623 42.8985A 57.75 57.75 0 0 1 38.1816 43.327A 1.125 1.125 0 0 0 37.8319 44.6206C 38.02983496735685 44.945401912086545 38.28610096845257 45.411639960526486 38.566696752350104 46.03679240762919 C 39.04186186406198 47.09633979479807 39.58108220220116 48.598570552396986 40.005425999264794 50.59683174076862 A 64.5 64.5 0 0 1 38.1875 51.9826C 36.37308690866607 51.043919096875165 35.06743906488921 50.125910638210456 34.17167675830624 49.38697056002434 C 33.64322401832358 48.950751260056535 33.2615581003344 48.58010141427733 33.00099375632039 48.303314008213064 A 1.125 1.125 0 0 0 31.6608 48.2976A 57.75 57.75 0 0 1 31.1203 48.6476A 1.125 1.125 0 0 0 30.5772 49.8727C 30.723257987026486 50.223887935383935 30.905349754819902 50.72378069311557 31.087228001463224 51.38443936403235 C 31.39508522918417 52.50410291902757 31.698671683592284 54.0710397674165 31.81300921109561 56.11065795836873 A 64.5 64.5 0 0 1 29.8048 57.2027C 28.154992030431803 55.99803167790841 27.004779160198154 54.89147568055085 26.232313482257616 54.02445819200265 C 25.776642548342217 53.51268326486745 25.45602902682338 53.08811624901487 25.240769785915678 52.77479771344591 A 1.125 1.125 0 0 0 23.9172 52.5645A 57.75 57.75 0 0 1 23.3295 52.828A 1.125 1.125 0 0 0 22.6058 53.9558C 22.696553879306194 54.32516859326938 22.800203337094054 54.846998997740954 22.879100974534705 55.52767861317383 C 23.01243440577462 56.681214371249126 23.0732711672683 58.27612963877593 22.874922450474628 60.30929791061304 A 64.5 64.5 0 0 1 20.7236 61.082C 19.27696800206891 59.63959785814224 18.309150120181513 58.37043105679652 17.6780870116628 57.39565831296785 C 17.305878424296857 56.820323329196995 17.05383220845335 56.3517906342763 16.888923564813556 56.00928489011992 A 1.125 1.125 0 0 0 15.6129 55.5995A 57.75 57.75 0 0 1 14.992 55.7701A 1.125 1.125 0 0 0 14.1046 56.7742C 14.137861785361993 57.15311334320635 14.16063947770295 57.684650132019975 14.134707212189856 58.3693961387005 C 14.090391624328657 59.52976619937816 13.907052730781334 61.1152764239595 13.400666895499734 63.09433903562316 A 64.5 64.5 0 0 1 11.1566 63.5296C 9.94710818213795 61.883262412760345 9.184370119463864 60.4812330015541 8.709501164766355 59.421552849381264 C 8.429479177768354 58.796143173363 8.251908017275086 58.29462680863325 8.141215289740032 57.93096190023805 A 1.125 1.125 0 0 0 6.94273 57.3312A 57.75 57.75 0 0 1 6.303 57.405A 1.125 1.125 0 0 0 5.27274 58.2619C 5.247790193864885 58.64143755711115 5.1891622309559455 59.17022195844673 5.059007892813565 59.84298449034212 C 4.838082005670568 60.98299076288391 4.41486476535615 62.52193292867175 3.612311066372892 64.40050232992024 A 64.5 64.5 0 0 1 1.3281 64.4881C 0.3840965771956132 62.67643574624437 -0.15568373254289214 61.17440610627127 -0.4632280076013445 60.05465655037793 C -0.644499916191799 59.39383125484548 -0.7434339038352036 58.87108633883036 -0.7973161715509023 58.49478626342106 A 1.125 1.125 0 0 0 -1.89019 57.7191A 57.75 57.75 0 0 1 -2.5337 57.6944A 1.125 1.125 0 0 0 -3.6827 58.384C -3.765285151955703 58.755256176854964 -3.9039445803547115 59.268893932522055 -4.135270283754023 59.913904006091755 C -4.527628154632286 61.00682570969382 -5.180803888303127 62.46312831666899 -6.260714272496849 64.19717243293864 A 64.5 64.5 0 0 1 -8.53152 63.935C -9.187917925971028 62.000526547919996 -9.492088489810259 60.43370298087971 -9.625099508084725 59.2801300018003 C -9.703372478369218 58.5993782715914 -9.721350364344957 58.06765750206427 -9.717159217554535 57.687542414471295 A 1.125 1.125 0 0 0 -10.6788 56.7541A 57.75 57.75 0 0 1 -11.311 56.6315A 1.125 1.125 0 0 0 -12.5518 57.1376C -12.690105405122145 57.49190139045917 -12.90554623953183 57.97835326680413 -13.232621229762966 58.58049239260885 C -13.787214548430217 59.60071236885623 -14.655038889866319 60.94024091821609 -15.9869937751546 62.48911522512918 A 64.5 64.5 0 0 1 -18.1912 61.8834C -18.544575420271016 59.87137755652189 -18.606006737997593 58.27648507884776 -18.561366833954633 57.11612744948878 C -18.53480621385079 56.43140552818111 -18.471406611748943 55.90317198931407 -18.409240287380918 55.52815146501999 A 1.125 1.125 0 0 0 -19.2171 54.4588A 57.75 57.75 0 0 1 -19.8232 54.2412A 1.125 1.125 0 0 0 -21.1267 54.5519C -21.317480343227107 54.88098516334703 -21.60465283308809 55.32884914068582 -22.019810749595937 55.87400368796616 C -22.72364031871412 56.79760884531397 -23.785772200886022 57.98896592319327 -25.338551693670322 59.31636611976074 A 64.5 64.5 0 0 1 -27.4244 58.3813C -27.466563784373122 56.3388942198254 -27.283815957966308 54.75331575942594 -27.06257145312166 53.613371279146044 C -26.931799801052975 52.940728468231654 -26.7885087438118 52.42836350646575 -26.669824367819622 52.06722770870737 A 1.125 1.125 0 0 0 -27.305 50.8871A 57.75 57.75 0 0 1 -27.8708 50.5795A 1.125 1.125 0 0 0 -29.2064 50.6876C -29.445191609945343 50.983705158972064 -29.797364675491394 51.382483685267765 -30.29087456858455 51.857875693487046 C -31.127443219591814 52.663217509858484 -32.35898717140264 53.678478716099164 -34.09619543644696 54.75329166676572 A 64.5 64.5 0 0 1 -36.0149 53.5108C -35.74475917294949 51.48587495324864 -35.32211565657039 49.946775125361626 -34.92945233459945 48.85396312660643 C -34.697534827253506 48.209165603467575 -34.47771093580687 47.724678619246184 -34.30529036937158 47.38589226503845 A 1.125 1.125 0 0 0 -34.7529 46.1226A 57.75 57.75 0 0 1 -35.2651 45.7322A 1.125 1.125 0 0 0 -36.6016 45.6352C -36.88273254191357 45.8914103174555 -37.29165154497634 46.23175636204074 -37.85194596104028 46.62624304544988 C -38.80164523379972 47.29444499124528 -40.17373490882729 48.10981346366856 -42.054653256788434 48.90684646383978 A 64.5 64.5 0 0 1 -43.7612 47.386C -43.1851277023649 45.42607041517182 -42.532494901821394 43.9695244152824 -41.97761645818519 42.949459485078236 C -41.64998904537 42.34762075715223 -41.35878480541932 41.90236771475339 -41.13666944048127 41.59387166909693 A 1.125 1.125 0 0 0 -41.3862 40.2771A 57.75 57.75 0 0 1 -41.8328 39.8131A 1.125 1.125 0 0 0 -43.1388 39.5132C -43.45577348345384 39.72345971385348 -43.91185370918522 39.99739585390713 -44.525799821990944 40.30173077899841 C -45.56636957047686 40.81713076695003 -47.046844349667786 41.41349495963658 -49.02738564866202 41.914066231322295 A 64.5 64.5 0 0 1 -50.4818 40.1505C -49.61327344045382 38.30151728791526 -48.745948515444745 36.9616653197497 -48.041860830568936 36.03825691549361 C -47.62620282115678 35.493483572468186 -47.27044381327322 35.09790082582675 -47.00383984573031 34.82692597456263 A 1.125 1.125 0 0 0 -47.0494 33.4875A 57.75 57.75 0 0 1 -47.4199 32.9608A 1.125 1.125 0 0 0 -48.6649 32.465C -49.01024792594763 32.62442488260195 -49.50279924041214 32.825530287178644 -50.15600667343207 33.03258010125027 C -51.26305682468597 33.38309759247329 -52.817215634008264 33.74647923420139 -54.850957674616126 33.93885581105782 A 64.5 64.5 0 0 1 -56.0191 31.974C -54.87852609935912 30.279209058290675 -53.81683841101617 29.08745611637691 -52.9800447034772 28.282348148419977 C -52.4860987689133 27.807409215727183 -52.07412368271431 27.470768889144033 -51.769280083602695 27.24366665311824 A 1.125 1.125 0 0 0 -51.6099 25.913A 57.75 57.75 0 0 1 -51.8956 25.3359A 1.125 1.125 0 0 0 -53.0503 24.6559C -53.41596369621709 24.760701183282524 -53.93344111407083 24.884262112148022 -54.61059923870791 24.989173743045434 C -55.75818147547661 25.166592904630438 -57.34959614968369 25.288474637705974 -59.388869742193144 25.168147375822443 A 64.5 64.5 0 0 1 -60.2434 23.048C -58.857472619377276 21.547181831807293 -57.62630722727045 20.53146159502082 -56.67642123233957 19.863525111754093 C -56.11576504668095 19.469552755436673 -55.65723022901314 19.1997454128438 -55.321292273922545 19.021838875985864 A 1.125 1.125 0 0 0 -54.9606 17.7311A 57.75 57.75 0 0 1 -55.1549 17.1171A 1.125 1.125 0 0 0 -56.1923 16.2688C -56.56965455071866 16.316607634424088 -57.09992883988065 16.35972792413117 -57.78516564362602 16.360042332145106 C -58.94638161092524 16.36020460931805 -60.53775073887422 16.2377296292199 -62.53475703868501 15.807518897630292 A 64.5 64.5 0 0 1 -63.0556 13.5818C -61.45684986647777 12.31010692573077 -60.08506424391065 11.494227015537316 -59.044350484222996 10.979117882011852 C -58.43012535327135 10.675346480186402 -57.935778471624765 10.478696177016097 -57.576620261494696 10.354155317763372 A 1.125 1.125 0 0 0 -57.0232 9.13358A 57.75 57.75 0 0 1 -57.1215 8.49714A 1.125 1.125 0 0 0 -58.0172 7.50046C -58.39740064876722 7.490066631930115 -58.928042629339146 7.451735579435111 -59.6052967422928 7.347445395108201 C -60.75292852205008 7.170346984229695 -62.30695176016375 6.8063860006863806 -64.21488263219234 6.07637557430945 A 64.5 64.5 0 0 1 -64.3899 3.79719C -62.61573064111851 2.784493546877952 -61.13547828041251 2.1875774968647037 -60.028330204427085 1.8373694345840867 C -59.37493304465883 1.6309191314446934 -58.85636117095028 1.5120351841301938 -58.48240106981782 1.4437791346676283 A 1.125 1.125 0 0 0 -57.7491 0.321992A 57.75 57.75 0 0 1 -57.7491 -0.321992A 1.125 1.125 0 0 0 -58.4822 -1.44373C -58.85636117095028 -1.5120351841302053 -59.37493304465883 -1.630919131444705 -60.028330204427085 -1.8373694345840983 C -61.13547828041251 -2.187577496864716 -62.61573064111851 -2.7844935468779646 -64.38986580281178 -3.7971928423760883 A 64.5 64.5 0 0 1 -64.2149 -6.07638C -62.30695176016375 -6.806386000686393 -60.75292852205008 -7.170346984229708 -59.6052967422928 -7.347445395108212 C -58.928042629339146 -7.451735579435123 -58.39740064876722 -7.490066631930127 -58.017403964449024 -7.500438007654275 A 1.125 1.125 0 0 0 -57.1215 -8.49714A 57.75 57.75 0 0 1 -57.0232 -9.13358A 1.125 1.125 0 0 0 -57.5764 -10.3541C -57.93577847162476 -10.478696177016134 -58.43012535327134 -10.67534648018644 -59.04435048422299 -10.979117882011892 C -60.085064243910644 -11.494227015537355 -61.45684986647776 -12.31010692573081 -63.05560509333286 -13.581758277187774 A 64.5 64.5 0 0 1 -62.5348 -15.8075C -60.537750738874216 -16.237729629219942 -58.946381610925236 -16.36020460931809 -57.785165643626016 -16.36004233214514 C -57.09992883988064 -16.359727924131207 -56.56965455071865 -16.316607634424127 -56.192528083424875 -16.268851240153253 A 1.125 1.125 0 0 0 -55.1549 -17.1171A 57.75 57.75 0 0 1 -54.9606 -17.7311A 1.125 1.125 0 0 0 -55.3211 -19.0217C -55.65723022901314 -19.199745412843814 -56.11576504668095 -19.46955275543668 -56.67642123233957 -19.863525111754104 C -57.62630722727046 -20.53146159502083 -58.85747261937728 -21.547181831807308 -60.24337444391882 -23.04797880934666 A 64.5 64.5 0 0 1 -59.3889 -25.1681C -57.349596149683684 -25.28847463770599 -55.758181475476604 -25.16659290463045 -54.61059923870791 -24.989173743045445 C -53.93344111407083 -24.884262112148036 -53.41596369621709 -24.76070118328254 -53.050546970703536 -24.655936388421914 A 1.125 1.125 0 0 0 -51.8956 -25.3359A 57.75 57.75 0 0 1 -51.6099 -25.913A 1.125 1.125 0 0 0 -51.7691 -27.2435C -52.07412368271431 -27.470768889144043 -52.486098768913294 -27.807409215727194 -52.98004470347719 -28.28234814841999 C -53.816838411016164 -29.08745611637692 -54.878526099359114 -30.27920905829069 -56.01909015745576 -31.97397425277545 A 64.5 64.5 0 0 1 -54.851 -33.9389C -52.81721563400826 -33.7464792342014 -51.26305682468596 -33.3830975924733 -50.15600667343206 -33.03258010125028 C -49.50279924041213 -32.82553028717865 -49.01024792594762 -32.624424882601964 -48.66510600054747 -32.4651072851486 A 1.125 1.125 0 0 0 -47.4199 -32.9608A 57.75 57.75 0 0 1 -47.0494 -33.4875A 1.125 1.125 0 0 0 -47.0037 -34.8268C -47.27044381327321 -35.09790082582676 -47.626202821156774 -35.4934835724682 -48.04186083056893 -36.038256915493626 C -48.74594851544474 -36.96166531974971 -49.61327344045381 -38.301517287915274 -50.48176587728103 -40.15052683960309 A 64.5 64.5 0 0 1 -49.0274 -41.9141C -47.04684434966778 -41.413494959636594 -45.56636957047685 -40.817130766950044 -44.52579982199094 -40.301730778998426 C -43.911853709185216 -39.99739585390714 -43.45577348345383 -39.723459713853494 -43.13899619236974 -39.51332358326036 A 1.125 1.125 0 0 0 -41.8328 -39.8131A 57.75 57.75 0 0 1 -41.3862 -40.2771A 1.125 1.125 0 0 0 -41.1365 -41.5937C -41.35878480541932 -41.90236771475339 -41.64998904537 -42.34762075715223 -41.97761645818519 -42.949459485078236 C -42.532494901821394 -43.9695244152824 -43.1851277023649 -45.42607041517182 -43.761191791303524 -47.38598510731894 A 64.5 64.5 0 0 1 -42.0547 -48.9068C -40.17373490882729 -48.10981346366856 -38.80164523379972 -47.29444499124528 -37.85194596104028 -46.62624304544988 C -37.29165154497634 -46.23175636204074 -36.88273254191357 -45.8914103174555 -36.601744876360556 -45.635381066520566 A 1.125 1.125 0 0 0 -35.2651 -45.7322A 57.75 57.75 0 0 1 -34.7529 -46.1226A 1.125 1.125 0 0 0 -34.3052 -47.3857C -34.47771093580684 -47.724678619246205 -34.69753482725348 -48.209165603467596 -34.92945233459943 -48.85396312660646 C -35.32211565657036 -49.94677512536165 -35.744759172949465 -51.48587495324866 -36.01489246000405 -53.51075604661783 A 64.5 64.5 0 0 1 -34.0962 -54.7533C -32.35898717140261 -53.678478716099185 -31.127443219591786 -52.663217509858505 -30.290874568584528 -51.85787569348706 C -29.797364675491366 -51.382483685267786 -29.445191609945315 -50.983705158972086 -29.206579682649842 -50.687783896336946 A 1.125 1.125 0 0 0 -27.8708 -50.5795A 57.75 57.75 0 0 1 -27.305 -50.8871A 1.125 1.125 0 0 0 -26.6698 -52.067C -26.788508743811764 -52.42836350646577 -26.93179980105294 -52.94072846823168 -27.062571453121624 -53.613371279146065 C -27.283815957966276 -54.75331575942596 -27.46656378437309 -56.33889421982542 -27.424434574249435 -58.38128021779768 A 64.5 64.5 0 0 1 -25.3386 -59.3164C -23.785772200885983 -57.98896592319329 -22.723640318714082 -56.79760884531399 -22.0198107495959 -55.87400368796618 C -21.604652833088053 -55.32884914068583 -21.31748034322707 -54.88098516334705 -21.126837015526853 -54.552108032596635 A 1.125 1.125 0 0 0 -19.8232 -54.2412A 57.75 57.75 0 0 1 -19.2171 -54.4588A 1.125 1.125 0 0 0 -18.4092 -55.5279C -18.47140661174893 -55.90317198931407 -18.534806213850775 -56.43140552818111 -18.561366833954622 -57.11612744948878 C -18.606006737997582 -58.27648507884776 -18.544575420271002 -59.87137755652189 -18.191171185947354 -61.88339666235089 A 64.5 64.5 0 0 1 -15.987 -62.4891C -14.655038889866304 -60.94024091821609 -13.787214548430207 -59.60071236885623 -13.232621229762954 -58.58049239260885 C -12.905546239531816 -57.97835326680413 -12.69010540512213 -57.49190139045917 -12.551899195036674 -57.13777699279494 A 1.125 1.125 0 0 0 -11.311 -56.6315A 57.75 57.75 0 0 1 -10.6788 -56.7541A 1.125 1.125 0 0 0 -9.71717 -57.6873C -9.72135036434492 -58.06765750206428 -9.703372478369179 -58.599378271591405 -9.625099508084686 -59.28013000180031 C -9.49208848981022 -60.43370298087972 -9.18791792597099 -62.00052654792 -8.531522163168347 -63.935018739073435 A 64.5 64.5 0 0 1 -6.26071 -64.1972C -5.180803888303086 -62.463128316669 -4.527628154632245 -61.00682570969382 -4.135270283753984 -59.91390400609176 C -3.903944580354672 -59.26889393252206 -3.7652851519556645 -58.75525617685496 -3.6827554959112163 -58.38418488801626 A 1.125 1.125 0 0 0 -2.5337 -57.6944A 57.75 57.75 0 0 1 -1.89019 -57.7191A 1.125 1.125 0 0 0 -0.79736 -58.4946C -0.7434339038352049 -58.87108633883036 -0.6444999161917999 -59.39383125484548 -0.4632280076013462 -60.05465655037793 C -0.15568373254289325 -61.17440610627127 0.38409657719561174 -62.67643574624437 1.3280985081324015 -64.48805816536111 A 64.5 64.5 0 0 1 3.61231 -64.4005C 4.414864765356148 -62.52193292867175 4.838082005670566 -60.98299076288391 5.059007892813563 -59.84298449034212 C 5.189162230955944 -59.17022195844673 5.247790193864883 -58.64143755711115 5.272708870679535 -58.2621169736029 A 1.125 1.125 0 0 0 6.303 -57.405A 57.75 57.75 0 0 1 6.94273 -57.3312A 1.125 1.125 0 0 0 8.14114 -57.9308C 8.251908017275099 -58.29462680863325 8.429479177768368 -58.796143173363006 8.709501164766369 -59.421552849381264 C 9.184370119463876 -60.4812330015541 9.947108182137963 -61.883262412760345 11.156589676046679 -63.52955216579628 A 64.5 64.5 0 0 1 13.4007 -63.0943C 13.907052730781345 -61.1152764239595 14.090391624328669 -59.52976619937816 14.134707212189866 -58.3693961387005 C 14.160639477702961 -57.68465013201997 14.137861785362006 -57.15311334320635 14.104585410282413 -56.774434418008774 A 1.125 1.125 0 0 0 14.992 -55.7701A 57.75 57.75 0 0 1 15.6129 -55.5995A 1.125 1.125 0 0 0 16.8888 -56.0091C 17.05383220845339 -56.351790634276284 17.305878424296893 -56.82032332919698 17.67808701166284 -57.395658312967846 C 18.309150120181556 -58.370431056796505 19.276968002068944 -59.639597858142224 20.723579837841346 -61.0819673086167 A 64.5 64.5 0 0 1 22.8749 -60.3093C 23.073271167268334 -58.27612963877591 23.012434405774655 -56.68121437124911 22.879100974534737 -55.52767861317381 C 22.80020333709409 -54.84699899774094 22.696553879306233 -54.32516859326937 22.605862422360513 -53.95600723943571 A 1.125 1.125 0 0 0 23.3295 -52.828A 57.75 57.75 0 0 1 23.9172 -52.5645A 1.125 1.125 0 0 0 25.2406 -52.7746C 25.456029026823394 -53.08811624901486 25.77664254834223 -53.51268326486744 26.23231348225763 -54.02445819200264 C 27.004779160198165 -54.89147568055084 28.154992030431817 -55.99803167790841 29.80482685272873 -57.202672908397936 A 64.5 64.5 0 0 1 31.813 -56.1107C 31.6986716835923 -54.0710397674165 31.39508522918418 -52.50410291902756 31.087228001463238 -51.384439364032346 C 30.905349754819916 -50.723780693115565 30.7232579870265 -50.22388793538393 30.57727717909895 -49.87289698216141 A 1.125 1.125 0 0 0 31.1203 -48.6476A 57.75 57.75 0 0 1 31.6608 -48.2976A 1.125 1.125 0 0 0 33.0008 -48.3032C 33.26155810033441 -48.580101414277316 33.64322401832359 -48.95075126005652 34.17167675830625 -49.386970560024324 C 35.06743906488922 -50.12591063821044 36.37308690866608 -51.04391909687515 38.18747398758803 -51.98259633794363 A 64.5 64.5 0 0 1 40.0054 -50.5968C 39.58108220220117 -48.59857055239697 39.04186186406199 -47.096339794798055 38.56669675235011 -46.03679240762918 C 38.28610096845259 -45.41163996052647 38.02983496735686 -44.94540191208653 37.83198647485771 -44.62080828993255 A 1.125 1.125 0 0 0 38.1816 -43.327A 57.75 57.75 0 0 1 38.6623 -42.8985A 1.125 1.125 0 0 0 39.9875 -42.6995C 40.287464443162925 -42.933410176973766 40.72123683198982 -43.241455134442774 41.31008489371031 -43.59189419657426 C 42.30814791968234 -44.18543673526218 43.738627458160074 -44.89338031503083 45.67503909838029 -45.54409176773355 A 64.5 64.5 0 0 1 47.2601 -43.8971C 46.535745701360035 -41.98699203386763 45.77353034719381 -40.58467838278511 45.142194818978254 -39.61008205616709 C 44.76945842517912 -39.035088876383895 44.44502484864578 -38.613433761926046 44.199946072550595 -38.322845670231075 A 1.125 1.125 0 0 0 44.3479 -36.9908A 57.75 57.75 0 0 1 44.7577 -36.494A 1.125 1.125 0 0 0 46.0369 -36.095C 46.36906676551517 -36.28039619379297 46.84477836803411 -36.5186159502355 47.48021965201018 -36.77506077993269 C 48.55718964596148 -37.209293645078894 50.0789716511764 -37.69057874846686 52.09202000507453 -38.038072287869916 A 64.5 64.5 0 0 1 53.4071 -36.1684C 52.39965076314812 -34.391274008588624 51.43230607483273 -33.121746507457935 50.65959809979968 -32.25494495325715 C 50.203457721252875 -31.74358839358597 49.81846101733872 -31.3763994516148 49.53189639644003 -31.126628028957146 A 1.125 1.125 0 0 0 49.4748 -29.7876A 57.75 57.75 0 0 1 49.8039 -29.2341A 1.125 1.125 0 0 0 51.0073 -28.6445C 51.36381746348229 -28.777000473667545 51.87031800292469 -28.939811359898293 52.53745830403499 -29.096251107705644 C 53.668092002104785 -29.360996248989824 55.24550719365728 -29.60434196109203 57.28800811399861 -29.640472633153674 A 64.5 64.5 0 0 1 58.3023 -27.5919C 57.035352422932526 -25.989453669240472 55.88555214007876 -24.8824689666865 54.989583338246085 -24.143779278666504 C 54.46073051881808 -23.7080451034603 54.024194683954775 -23.403928931560696 53.702861050085545 -23.200828608391006 A 1.125 1.125 0 0 0 53.4421 -21.8862A 57.75 57.75 0 0 1 53.6828 -21.289A 1.125 1.125 0 0 0 54.7821 -20.5226C 55.154643814058296 -20.599096252693982 55.68006134706957 -20.68268211953181 56.363263462097976 -20.735449970352896 C 57.52105976868419 -20.82450198605092 59.11713487143939 -20.824204489625952 61.141213867794626 -20.548125422016007 A 64.5 64.5 0 0 1 61.8309 -18.3688C 60.33419376284644 -16.97846256352484 59.02888822955884 -16.059967442738724 58.03065935025356 -15.466703881102347 C 57.441489951796896 -15.1168053301168 56.96364701596301 -14.882890153601172 56.615076157151385 -14.731221429354694 A 1.125 1.125 0 0 0 56.1567 -13.4719A 57.75 57.75 0 0 1 56.3034 -12.8448A 1.125 1.125 0 0 0 57.2728 -11.9196C 57.652692060541156 -11.938366674541609 58.184711245470766 -11.940768340111921 58.86796149589628 -11.888627460247454 C 60.02578264687517 -11.799899046588349 61.603107013195014 -11.555965314700265 63.5613213894194 -10.974147566769737 A 64.5 64.5 0 0 1 63.9103 -8.71505C 62.21885273785057 -7.569510685597701 60.78863720950373 -6.861033893730303 59.7115458915972 -6.427102053535426 C 59.075869545454864 -6.171240452245373 58.56791974206547 -6.013009044593944 58.200281863807014 -5.916326905618563 A 1.125 1.125 0 0 0 57.555 -4.7417A 57.75 57.75 0 0 1 57.6043 -4.0996A 1.125 1.125 0 0 0 58.4211 -3.03728" stroke="#191919" stroke-width="0.35 px" style="stroke-width:0.35;stroke-miterlimit:4;stroke-dasharray:none;fill:none;fill-rule: evenodd "/>
<title>b'InvoluteGear'</title>
</g>
</svg>