<?xml version="1.0"?>
<!DOCTYPE svg PUBLIC "-//W3C//DTD SVG 1.1//EN" "http://www.w3.org/Graphics/SVG/1.1/DTD/svg11.dtd">
<svg width="140.74332023481224mm" height="140.74332023481224mm" viewBox="0 0 140.74332023481224 140.74332023481224" xmlns="http://www.w3.org/2000/svg" version="1.1">
<g id="InvoluteGear" transform="translate(70.371660,70.371660) scale(1,-1)">
<path id="InvoluteGear_w0000"  d="M 62.9251716451826 -3.069653632628026 C 63.32858732046919 -3.0177635956611013 63.853098101539736 -2.92774781084798 64.49287642835505 -2.7725071742532155 C 65.64787987702216 -2.491984848154864 67.16741797543034 -2.002038468589638 68.99182364451579 -1.1503514579862175 A 69 69 0 0 1 68.9918 1.15035C 67.16741797543034 2.002038468589638 65.64787987702216 2.491984848154864 64.49287642835505 2.7725071742532155 C 63.853098101539736 2.92774781084798 63.32858732046919 3.0177635956611013 62.925312108128 3.0696270054178045 A 1.125 1.125 0 0 0 62.1124 4.13618A 62.25 62.25 0 0 1 62.0689 4.74545A 1.125 1.125 0 0 0 62.7215 5.91678C 63.11346615189288 6.025550549075129 63.6198275876365 6.189295769971547 64.23100084747858 6.434006229835765 C 65.33432553694499 6.876047372136375 66.76867028873397 7.5772596227270235 68.45329843951039 8.679917685334523 A 69 69 0 0 1 68.1259 10.9572C 66.1988307269855 11.540580830088004 64.6250326956557 11.809287443228543 63.44186302724784 11.92258032752486 C 62.786503675224914 11.98519088916613 62.25452107576585 11.999644776101247 61.84796969083962 11.993588244503528 A 1.125 1.125 0 0 0 60.8916 12.9336A 62.25 62.25 0 0 1 60.7617 13.5305A 1.125 1.125 0 0 0 61.2411 14.7828C 61.61353681667093 14.946201860885079 62.091440848481675 15.180343137369565 62.66156731625828 15.509541821227092 C 63.69075273757209 16.10410309681411 65.01070501990415 17.00230655913731 66.52126148128818 18.333488735397466 A 69 69 0 0 1 65.8731 20.541C 63.882626186602835 20.84419024617268 62.28660621181054 20.886187001130875 61.099356246131144 20.829944127210585 C 60.441757095407475 20.798650043417293 59.91313230917375 20.737247793017975 59.51158096546221 20.673394613583568 A 1.125 1.125 0 0 0 58.4311 21.4677A 62.25 62.25 0 0 1 58.2177 22.04A 1.125 1.125 0 0 0 58.5139 23.3478C 58.85933355062942 23.562591604094372 59.29905143058106 23.862362494985383 59.81652497551721 24.269347866963493 C 60.75061988142617 25.004325722839102 61.929309272261094 26.081235564606835 63.23504347078403 27.613842824223394 A 69 69 0 0 1 62.2793 29.7066C 60.265955599342206 29.723472058526227 58.68020404523265 29.537904022479776 57.513042767836765 29.313270333064835 C 56.86659064076174 29.188708661138328 56.352084943973075 29.052700246153236 55.96370806885573 28.932350285478062 A 1.125 1.125 0 0 0 54.7812 29.5648A 62.25 62.25 0 0 1 54.4885 30.1009A 1.125 1.125 0 0 0 54.5956 31.4376C 54.906923989798614 31.699314931147423 55.29950432989698 32.058612965574284 55.753790682888265 32.5350999771484 C 56.573779594815306 33.39553238366808 57.58721137721521 34.6292258260535 58.66154233002163 36.33205870489503 A 69 69 0 0 1 57.4177 38.2675C 55.422443948743506 37.99766969518342 53.879242144028495 37.588314498212185 52.755929592708725 37.19986288742903 C 52.1337843903756 36.98456934380353 51.643871635306695 36.776723503345885 51.27657546197452 36.60232673956865 A 1.125 1.125 0 0 0 50.0161 37.0601A 62.25 62.25 0 0 1 49.6501 37.5491A 1.125 1.125 0 0 0 49.5659 38.8873C 49.83676779502906 39.19073161947788 50.17421879165796 39.60224252558963 50.55606999261113 40.13853127527916 C 51.2452603009622 41.10690230992835 52.07280392633334 42.472264912122576 52.89386135333874 44.310658643340396 A 69 69 0 0 1 51.3872 46.0494C 49.450691164478734 45.49834435307752 47.98145424767576 44.87353528650895 46.924857826611074 44.32917350895116 C 46.33968463122074 44.027530849319575 45.88433802877307 43.75207872532318 45.545599648120415 43.527185373635675 A 1.125 1.125 0 0 0 44.2328 43.8009A 62.25 62.25 0 0 1 43.8009 44.2328A 1.125 1.125 0 0 0 43.5271 45.5455C 43.75207872532319 45.884338028773065 44.02753084931958 46.339684631220734 44.329173508951165 46.92485782661107 C 44.873535286508954 47.98145424767575 45.49834435307753 49.45069116447872 46.04941389280218 51.387221353194974 A 69 69 0 0 1 44.3107 52.8939C 42.47226491212258 52.07280392633333 41.10690230992836 51.245260300962194 40.13853127527917 50.55606999261112 C 39.60224252558964 50.17421879165795 39.19073161947789 49.836767795029054 38.887446768094 49.56595603553276 A 1.125 1.125 0 0 0 37.5491 49.6501A 62.25 62.25 0 0 1 37.0601 50.0161A 1.125 1.125 0 0 0 36.6023 51.2764C 36.77672350334589 51.64387163530669 36.984569343803535 52.133784390375595 37.199862887429035 52.75592959270872 C 37.58831449821219 53.87924214402848 37.997669695183426 55.4224439487435 38.26753316095185 57.417688424807814 A 69 69 0 0 1 36.3321 58.6615C 34.629225826053506 57.587211377215205 33.39553238366809 56.573779594815306 32.535099977148406 55.75379068288826 C 32.05861296557429 55.299504329896976 31.69931493114743 54.90692398979861 31.437657614005207 54.595706768960234 A 1.125 1.125 0 0 0 30.1009 54.4885A 62.25 62.25 0 0 1 29.5648 54.7812A 1.125 1.125 0 0 0 28.9323 55.9636C 29.05270024615324 56.35208494397307 29.18870866113833 56.866590640761736 29.313270333064835 57.51304276783676 C 29.53790402247978 58.68020404523264 29.72347205852623 60.2659555993422 29.706635808397365 62.27929693903185 A 69 69 0 0 1 27.6138 63.235C 26.08123556460684 61.92930927226109 25.004325722839106 60.75061988142616 24.2693478669635 59.816524975517204 C 23.862362494985387 59.29905143058105 23.562591604094376 58.859333550629415 23.34788840961344 58.51404635358888 A 1.125 1.125 0 0 0 22.04 58.2177A 62.25 62.25 0 0 1 21.4677 58.4311A 1.125 1.125 0 0 0 20.6734 59.5114C 20.737247793017982 59.91313230917375 20.7986500434173 60.441757095407475 20.82994412721059 61.099356246131144 C 20.88618700113088 62.28660621181054 20.844190246172687 63.882626186602835 20.540997017647413 65.87307856623872 A 69 69 0 0 1 18.3335 66.5213C 17.002306559137317 65.01070501990415 16.104103096814118 63.69075273757209 15.5095418212271 62.66156731625828 C 15.180343137369572 62.091440848481675 14.946201860885086 61.61353681667093 14.782823526952185 61.241208695033926 A 1.125 1.125 0 0 0 13.5305 60.7617A 62.25 62.25 0 0 1 12.9336 60.8916A 1.125 1.125 0 0 0 11.9936 61.8478C 11.999644776101245 62.25452107576585 11.985190889166129 62.786503675224914 11.922580327524859 63.44186302724784 C 11.809287443228541 64.6250326956557 11.540580830088002 66.1988307269855 10.957202762962023 68.12587427610889 A 69 69 0 0 1 8.67992 68.4533C 7.577259622727022 66.76867028873397 6.876047372136373 65.33432553694499 6.434006229835763 64.23100084747858 C 6.189295769971546 63.6198275876365 6.0255505490751275 63.11346615189288 5.916822987424924 62.72167663251031 A 1.125 1.125 0 0 0 4.74545 62.0689A 62.25 62.25 0 0 1 4.13618 62.1124A 1.125 1.125 0 0 0 3.06965 62.9252C 3.0177635956611053 63.32858732046919 2.927747810847984 63.853098101539736 2.7725071742532195 64.49287642835505 C 2.491984848154868 65.64787987702216 2.002038468589642 67.16741797543034 1.1503514579862217 68.99182364451579 A 69 69 0 0 1 -1.15035 68.9918C -2.002038468589634 67.16741797543034 -2.49198484815486 65.64787987702216 -2.7725071742532115 64.49287642835505 C -2.927747810847976 63.853098101539736 -3.0177635956610973 63.32858732046919 -3.0696270054178005 62.925312108128 A 1.125 1.125 0 0 0 -4.13618 62.1124A 62.25 62.25 0 0 1 -4.74545 62.0689A 1.125 1.125 0 0 0 -5.91678 62.7215C -6.02555054907512 63.11346615189289 -6.1892957699715385 63.61982758763651 -6.434006229835756 64.23100084747858 C -6.876047372136365 65.33432553694499 -7.577259622727015 66.76867028873397 -8.679917685334514 68.4532984395104 A 69 69 0 0 1 -10.9572 68.1259C -11.540580830087995 66.1988307269855 -11.809287443228534 64.6250326956557 -11.922580327524852 63.44186302724785 C -11.985190889166121 62.78650367522492 -11.999644776101238 62.25452107576586 -11.99358824450352 61.847969690839626 A 1.125 1.125 0 0 0 -12.9336 60.8916A 62.25 62.25 0 0 1 -13.5305 60.7617A 1.125 1.125 0 0 0 -14.7828 61.2411C -14.946201860885079 61.61353681667093 -15.180343137369565 62.091440848481675 -15.509541821227092 62.66156731625828 C -16.10410309681411 63.69075273757209 -17.00230655913731 65.01070501990415 -18.333488735397466 66.52126148128818 A 69 69 0 0 1 -20.541 65.8731C -20.84419024617268 63.882626186602835 -20.886187001130875 62.28660621181054 -20.829944127210585 61.099356246131144 C -20.798650043417293 60.441757095407475 -20.737247793017975 59.91313230917375 -20.673394613583568 59.51158096546221 A 1.125 1.125 0 0 0 -21.4677 58.4311A 62.25 62.25 0 0 1 -22.04 58.2177A 1.125 1.125 0 0 0 -23.3478 58.5139C -23.562591604094365 58.85933355062942 -23.86236249498538 59.29905143058106 -24.26934786696349 59.81652497551721 C -25.004325722839095 60.75061988142617 -26.081235564606832 61.929309272261094 -27.61384282422339 63.23504347078403 A 69 69 0 0 1 -29.7066 62.2793C -29.723472058526223 60.265955599342206 -29.53790402247977 58.68020404523265 -29.313270333064832 57.513042767836765 C -29.188708661138325 56.86659064076174 -29.052700246153236 56.352084943973075 -28.93235028547806 55.96370806885573 A 1.125 1.125 0 0 0 -29.5648 54.7812A 62.25 62.25 0 0 1 -30.1009 54.4885A 1.125 1.125 0 0 0 -31.4376 54.5956C -31.699314931147423 54.906923989798614 -32.058612965574284 55.29950432989698 -32.5350999771484 55.753790682888265 C -33.39553238366808 56.573779594815306 -34.6292258260535 57.58721137721521 -36.33205870489503 58.66154233002163 A 69 69 0 0 1 -38.2675 57.4177C -37.99766969518342 55.422443948743506 -37.588314498212185 53.879242144028495 -37.19986288742903 52.755929592708725 C -36.98456934380353 52.1337843903756 -36.776723503345885 51.643871635306695 -36.60232673956865 51.27657546197452 A 1.125 1.125 0 0 0 -37.0601 50.0161A 62.25 62.25 0 0 1 -37.5491 49.6501A 1.125 1.125 0 0 0 -38.8873 49.5659C -39.19073161947787 49.83676779502907 -39.602242525589624 50.174218791657964 -40.138531275279156 50.556069992611135 C -41.106902309928344 51.24526030096221 -42.47226491212257 52.07280392633335 -44.31065864334039 52.89386135333875 A 69 69 0 0 1 -46.0494 51.3872C -45.49834435307751 49.45069116447874 -44.87353528650894 47.981454247675764 -44.32917350895115 46.92485782661108 C -44.02753084931957 46.33968463122075 -43.75207872532317 45.88433802877308 -43.52718537363567 45.54559964812043 A 1.125 1.125 0 0 0 -43.8009 44.2328A 62.25 62.25 0 0 1 -44.2328 43.8009A 1.125 1.125 0 0 0 -45.5455 43.5271C -45.884338028773065 43.75207872532319 -46.339684631220734 44.02753084931958 -46.92485782661107 44.329173508951165 C -47.98145424767575 44.873535286508954 -49.45069116447872 45.49834435307753 -51.387221353194974 46.04941389280218 A 69 69 0 0 1 -52.8939 44.3107C -52.07280392633333 42.47226491212258 -51.245260300962194 41.10690230992836 -50.55606999261112 40.13853127527917 C -50.17421879165795 39.60224252558964 -49.836767795029054 39.19073161947789 -49.56595603553276 38.887446768094 A 1.125 1.125 0 0 0 -49.6501 37.5491A 62.25 62.25 0 0 1 -50.0161 37.0601A 1.125 1.125 0 0 0 -51.2764 36.6023C -51.64387163530669 36.7767235033459 -52.133784390375595 36.98456934380354 -52.75592959270872 37.19986288742904 C -53.87924214402848 37.5883144982122 -55.4224439487435 37.99766969518343 -57.417688424807814 38.267533160951864 A 69 69 0 0 1 -58.6615 36.3321C -57.587211377215205 34.62922582605351 -56.573779594815306 33.3955323836681 -55.75379068288826 32.53509997714841 C -55.299504329896976 32.0586129655743 -54.90692398979861 31.699314931147438 -54.595706768960234 31.437657614005214 A 1.125 1.125 0 0 0 -54.4885 30.1009A 62.25 62.25 0 0 1 -54.7812 29.5648A 1.125 1.125 0 0 0 -55.9636 28.9323C -56.352084943973075 29.05270024615323 -56.86659064076174 29.18870866113832 -57.513042767836765 29.31327033306483 C -58.68020404523265 29.537904022479765 -60.265955599342206 29.72347205852622 -62.27929693903186 29.706635808397355 A 69 69 0 0 1 -63.235 27.6138C -61.929309272261094 26.08123556460683 -60.75061988142617 25.00432572283909 -59.81652497551721 24.269347866963486 C -59.29905143058106 23.862362494985376 -58.85933355062942 23.562591604094365 -58.51404635358889 23.34788840961343 A 1.125 1.125 0 0 0 -58.2177 22.04A 62.25 62.25 0 0 1 -58.4311 21.4677A 1.125 1.125 0 0 0 -59.5114 20.6734C -59.91313230917375 20.73724779301797 -60.441757095407475 20.79865004341729 -61.099356246131144 20.82994412721058 C -62.28660621181054 20.88618700113087 -63.882626186602835 20.844190246172676 -65.87307856623872 20.540997017647403 A 69 69 0 0 1 -66.5213 18.3335C -65.01070501990415 17.002306559137306 -63.69075273757209 16.104103096814107 -62.66156731625828 15.509541821227089 C -62.091440848481675 15.180343137369562 -61.61353681667093 14.946201860885076 -61.241208695033926 14.782823526952175 A 1.125 1.125 0 0 0 -60.7617 13.5305A 62.25 62.25 0 0 1 -60.8916 12.9336A 1.125 1.125 0 0 0 -61.8478 11.9936C -62.25452107576585 11.999644776101249 -62.786503675224914 11.985190889166132 -63.44186302724784 11.922580327524862 C -64.6250326956557 11.809287443228545 -66.1988307269855 11.540580830088006 -68.12587427610889 10.957202762962027 A 69 69 0 0 1 -68.4533 8.67992C -66.76867028873397 7.577259622727025 -65.33432553694499 6.876047372136377 -64.23100084747858 6.4340062298357665 C -63.6198275876365 6.189295769971549 -63.11346615189288 6.025550549075131 -62.72167663251031 5.916822987424927 A 1.125 1.125 0 0 0 -62.0689 4.74545A 62.25 62.25 0 0 1 -62.1124 4.13618A 1.125 1.125 0 0 0 -62.9252 3.06965C -63.32858732046919 3.017763595661109 -63.853098101539736 2.927747810847988 -64.49287642835505 2.7725071742532235 C -65.64787987702216 2.491984848154872 -67.16741797543034 2.0020384685896464 -68.99182364451579 1.150351457986226 A 69 69 0 0 1 -68.9918 -1.15035C -67.16741797543034 -2.0020384685896295 -65.64787987702216 -2.491984848154856 -64.49287642835505 -2.7725071742532075 C -63.853098101539736 -2.927747810847972 -63.32858732046919 -3.0177635956610938 -62.925312108128 -3.069627005417797 A 1.125 1.125 0 0 0 -62.1124 -4.13618A 62.25 62.25 0 0 1 -62.0689 -4.74545A 1.125 1.125 0 0 0 -62.7215 -5.91678C -63.11346615189289 -6.025550549075117 -63.61982758763651 -6.189295769971535 -64.23100084747858 -6.434006229835752 C -65.33432553694499 -6.8760473721363615 -66.76867028873397 -7.577259622727011 -68.4532984395104 -8.679917685334509 A 69 69 0 0 1 -68.1259 -10.9572C -66.1988307269855 -11.540580830087992 -64.6250326956557 -11.80928744322853 -63.44186302724785 -11.922580327524848 C -62.78650367522492 -11.985190889166118 -62.25452107576586 -11.999644776101235 -61.847969690839626 -11.993588244503517 A 1.125 1.125 0 0 0 -60.8916 -12.9336A 62.25 62.25 0 0 1 -60.7617 -13.5305A 1.125 1.125 0 0 0 -61.2411 -14.7828C -61.61353681667093 -14.946201860885065 -62.09144084848168 -15.180343137369551 -62.661567316258285 -15.509541821227078 C -63.6907527375721 -16.104103096814097 -65.01070501990417 -17.002306559137292 -66.52126148128818 -18.333488735397452 A 69 69 0 0 1 -65.8731 -20.541C -63.88262618660285 -20.844190246172662 -62.28660621181055 -20.88618700113086 -61.09935624613115 -20.82994412721057 C -60.44175709540748 -20.79865004341728 -59.91313230917376 -20.73724779301796 -59.511580965462215 -20.673394613583554 A 1.125 1.125 0 0 0 -58.4311 -21.4677A 62.25 62.25 0 0 1 -58.2177 -22.04A 1.125 1.125 0 0 0 -58.5139 -23.3478C -58.859333550629415 -23.56259160409438 -59.29905143058105 -23.86236249498539 -59.816524975517204 -24.2693478669635 C -60.75061988142616 -25.00432572283911 -61.92930927226109 -26.081235564606843 -63.23504347078402 -27.613842824223404 A 69 69 0 0 1 -62.2793 -29.7066C -60.2659555993422 -29.723472058526234 -58.68020404523264 -29.537904022479783 -57.51304276783676 -29.313270333064843 C -56.866590640761736 -29.188708661138335 -56.35208494397307 -29.052700246153243 -55.96370806885572 -28.93235028547807 A 1.125 1.125 0 0 0 -54.7812 -29.5648A 62.25 62.25 0 0 1 -54.4885 -30.1009A 1.125 1.125 0 0 0 -54.5956 -31.4376C -54.906923989798614 -31.699314931147423 -55.29950432989698 -32.058612965574284 -55.753790682888265 -32.5350999771484 C -56.573779594815306 -33.39553238366808 -57.58721137721521 -34.6292258260535 -58.66154233002163 -36.33205870489503 A 69 69 0 0 1 -57.4177 -38.2675C -55.422443948743506 -37.99766969518342 -53.879242144028495 -37.588314498212185 -52.755929592708725 -37.19986288742903 C -52.1337843903756 -36.98456934380353 -51.643871635306695 -36.776723503345885 -51.27657546197452 -36.60232673956865 A 1.125 1.125 0 0 0 -50.0161 -37.0601A 62.25 62.25 0 0 1 -49.6501 -37.5491A 1.125 1.125 0 0 0 -49.5659 -38.8873C -49.83676779502907 -39.19073161947787 -50.174218791657964 -39.602242525589624 -50.556069992611135 -40.138531275279156 C -51.24526030096221 -41.106902309928344 -52.07280392633335 -42.47226491212257 -52.89386135333875 -44.31065864334039 A 69 69 0 0 1 -51.3872 -46.0494C -49.45069116447874 -45.49834435307751 -47.981454247675764 -44.87353528650894 -46.92485782661108 -44.32917350895115 C -46.33968463122075 -44.02753084931957 -45.88433802877308 -43.75207872532317 -45.54559964812043 -43.52718537363567 A 1.125 1.125 0 0 0 -44.2328 -43.8009A 62.25 62.25 0 0 1 -43.8009 -44.2328A 1.125 1.125 0 0 0 -43.5271 -45.5455C -43.75207872532319 -45.884338028773065 -44.02753084931958 -46.339684631220734 -44.329173508951165 -46.92485782661107 C -44.873535286508954 -47.98145424767575 -45.49834435307753 -49.45069116447872 -46.04941389280218 -51.387221353194974 A 69 69 0 0 1 -44.3107 -52.8939C -42.47226491212258 -52.07280392633333 -41.10690230992836 -51.245260300962194 -40.13853127527917 -50.55606999261112 C -39.60224252558964 -50.17421879165795 -39.19073161947789 -49.836767795029054 -38.887446768094 -49.56595603553276 A 1.125 1.125 0 0 0 -37.5491 -49.6501A 62.25 62.25 0 0 1 -37.0601 -50.0161A 1.125 1.125 0 0 0 -36.6023 -51.2764C -36.77672350334588 -51.643871635306695 -36.98456934380352 -52.1337843903756 -37.19986288742902 -52.755929592708725 C -37.58831449821218 -53.879242144028495 -37.99766969518341 -55.422443948743506 -38.267533160951835 -57.41768842480782 A 69 69 0 0 1 -36.3321 -58.6615C -34.62922582605349 -57.58721137721521 -33.395532383668076 -56.573779594815306 -32.53509997714839 -55.753790682888265 C -32.05861296557428 -55.29950432989698 -31.699314931147416 -54.906923989798614 -31.437657614005193 -54.59570676896024 A 1.125 1.125 0 0 0 -30.1009 -54.4885A 62.25 62.25 0 0 1 -29.5648 -54.7812A 1.125 1.125 0 0 0 -28.9323 -55.9636C -29.052700246153236 -56.352084943973075 -29.188708661138325 -56.86659064076174 -29.313270333064832 -57.513042767836765 C -29.53790402247977 -58.68020404523265 -29.723472058526223 -60.265955599342206 -29.70663580839736 -62.27929693903186 A 69 69 0 0 1 -27.6138 -63.235C -26.081235564606832 -61.929309272261094 -25.004325722839095 -60.75061988142617 -24.26934786696349 -59.81652497551721 C -23.86236249498538 -59.29905143058106 -23.562591604094365 -58.85933355062942 -23.347888409613432 -58.51404635358889 A 1.125 1.125 0 0 0 -22.04 -58.2177A 62.25 62.25 0 0 1 -21.4677 -58.4311A 1.125 1.125 0 0 0 -20.6734 -59.5114C -20.737247793017975 -59.91313230917375 -20.798650043417293 -60.441757095407475 -20.829944127210585 -61.099356246131144 C -20.886187001130875 -62.28660621181054 -20.84419024617268 -63.882626186602835 -20.540997017647406 -65.87307856623872 A 69 69 0 0 1 -18.3335 -66.5213C -17.00230655913731 -65.01070501990415 -16.10410309681411 -63.69075273757209 -15.509541821227092 -62.66156731625828 C -15.180343137369565 -62.091440848481675 -14.946201860885079 -61.61353681667093 -14.782823526952178 -61.241208695033926 A 1.125 1.125 0 0 0 -13.5305 -60.7617A 62.25 62.25 0 0 1 -12.9336 -60.8916A 1.125 1.125 0 0 0 -11.9936 -61.8478C -11.999644776101254 -62.25452107576585 -11.985190889166137 -62.786503675224914 -11.922580327524868 -63.44186302724784 C -11.80928744322855 -64.6250326956557 -11.540580830088011 -66.1988307269855 -10.957202762962034 -68.12587427610889 A 69 69 0 0 1 -8.67992 -68.4533C -7.577259622727031 -66.76867028873397 -6.876047372136382 -65.33432553694499 -6.434006229835772 -64.23100084747858 C -6.1892957699715545 -63.6198275876365 -6.025550549075136 -63.11346615189288 -5.916822987424933 -62.72167663251031 A 1.125 1.125 0 0 0 -4.74545 -62.0689A 62.25 62.25 0 0 1 -4.13618 -62.1124A 1.125 1.125 0 0 0 -3.06965 -62.9252C -3.017763595661113 -63.32858732046919 -2.9277478108479915 -63.853098101539736 -2.7725071742532275 -64.49287642835505 C -2.491984848154876 -65.64787987702216 -2.0020384685896504 -67.16741797543034 -1.1503514579862302 -68.99182364451579 A 69 69 0 0 1 1.15035 -68.9918C 2.0020384685896255 -67.16741797543034 2.491984848154852 -65.64787987702216 2.7725071742532035 -64.49287642835505 C 2.9277478108479684 -63.853098101539736 3.0177635956610898 -63.32858732046919 3.069627005417793 -62.925312108128 A 1.125 1.125 0 0 0 4.13618 -62.1124A 62.25 62.25 0 0 1 4.74545 -62.0689A 1.125 1.125 0 0 0 5.91678 -62.7215C 6.025550549075112 -63.11346615189289 6.18929576997153 -63.61982758763651 6.434006229835747 -64.23100084747858 C 6.876047372136356 -65.33432553694499 7.577259622727006 -66.76867028873397 8.679917685334503 -68.4532984395104 A 69 69 0 0 1 10.9572 -68.1259C 11.540580830087986 -66.1988307269855 11.809287443228527 -64.6250326956557 11.922580327524843 -63.44186302724785 C 11.985190889166113 -62.78650367522492 11.99964477610123 -62.25452107576586 11.993588244503512 -61.847969690839626 A 1.125 1.125 0 0 0 12.9336 -60.8916A 62.25 62.25 0 0 1 13.5305 -60.7617A 1.125 1.125 0 0 0 14.7828 -61.2411C 14.946201860885061 -61.61353681667093 15.180343137369547 -62.09144084848168 15.509541821227074 -62.661567316258285 C 16.104103096814093 -63.6907527375721 17.00230655913729 -65.01070501990417 18.33348873539745 -66.52126148128818 A 69 69 0 0 1 20.541 -65.8731C 20.84419024617266 -63.88262618660285 20.886187001130857 -62.28660621181055 20.829944127210567 -61.09935624613115 C 20.798650043417275 -60.44175709540748 20.737247793017957 -59.91313230917376 20.67339461358355 -59.511580965462215 A 1.125 1.125 0 0 0 21.4677 -58.4311A 62.25 62.25 0 0 1 22.04 -58.2177A 1.125 1.125 0 0 0 23.3478 -58.5139C 23.562591604094347 -58.85933355062942 23.862362494985362 -59.299051430581066 24.26934786696347 -59.81652497551722 C 25.004325722839077 -60.750619881426175 26.081235564606814 -61.9293092722611 27.613842824223372 -63.235043470784035 A 69 69 0 0 1 29.7066 -62.2793C 29.723472058526205 -60.26595559934221 29.53790402247975 -58.68020404523266 29.313270333064814 -57.51304276783677 C 29.188708661138307 -56.86659064076175 29.05270024615322 -56.352084943973075 28.93235028547804 -55.96370806885574 A 1.125 1.125 0 0 0 29.5648 -54.7812A 62.25 62.25 0 0 1 30.1009 -54.4885A 1.125 1.125 0 0 0 31.4376 -54.5956C 31.69931493114739 -54.90692398979863 32.058612965574255 -55.29950432989699 32.53509997714837 -55.75379068288827 C 33.39553238366805 -56.57377959481533 34.629225826053464 -57.587211377215226 36.332058704895005 -58.661542330021646 A 69 69 0 0 1 38.2675 -57.4177C 37.99766969518338 -55.42244394874352 37.58831449821216 -53.87924214402852 37.199862887429 -52.755929592708746 C 36.9845693438035 -52.133784390375624 36.776723503345856 -51.64387163530671 36.602326739568625 -51.27657546197454 A 1.125 1.125 0 0 0 37.0601 -50.0161A 62.25 62.25 0 0 1 37.5491 -49.6501A 1.125 1.125 0 0 0 38.8873 -49.5659C 39.19073161947789 -49.836767795029054 39.60224252558964 -50.17421879165795 40.13853127527917 -50.55606999261112 C 41.10690230992836 -51.245260300962194 42.47226491212258 -52.07280392633333 44.3106586433404 -52.893861353338735 A 69 69 0 0 1 46.0494 -51.3872C 45.49834435307753 -49.45069116447872 44.873535286508954 -47.98145424767575 44.329173508951165 -46.92485782661107 C 44.02753084931958 -46.339684631220734 43.75207872532319 -45.884338028773065 43.52718537363568 -45.54559964812041 A 1.125 1.125 0 0 0 43.8009 -44.2328A 62.25 62.25 0 0 1 44.2328 -43.8009A 1.125 1.125 0 0 0 45.5455 -43.5271C 45.88433802877309 -43.75207872532317 46.33968463122075 -44.02753084931956 46.92485782661108 -44.32917350895114 C 47.981454247675764 -44.87353528650893 49.45069116447874 -45.498344353077506 51.38722135319499 -46.04941389280216 A 69 69 0 0 1 52.8939 -44.3107C 52.07280392633335 -42.47226491212256 51.24526030096221 -41.10690230992834 50.556069992611135 -40.13853127527915 C 50.174218791657964 -39.60224252558962 49.83676779502906 -39.19073161947786 49.565956035532764 -38.88744676809398 A 1.125 1.125 0 0 0 49.6501 -37.5491A 62.25 62.25 0 0 1 50.0161 -37.0601A 1.125 1.125 0 0 0 51.2764 -36.6023C 51.643871635306695 -36.77672350334588 52.1337843903756 -36.98456934380352 52.755929592708725 -37.19986288742902 C 53.879242144028495 -37.58831449821218 55.422443948743506 -37.99766969518341 57.41768842480782 -38.267533160951835 A 69 69 0 0 1 58.6615 -36.3321C 57.58721137721521 -34.62922582605349 56.573779594815306 -33.395532383668076 55.753790682888265 -32.53509997714839 C 55.29950432989698 -32.05861296557428 54.906923989798614 -31.699314931147416 54.59570676896024 -31.437657614005193 A 1.125 1.125 0 0 0 54.4885 -30.1009A 62.25 62.25 0 0 1 54.7812 -29.5648A 1.125 1.125 0 0 0 55.9636 -28.9323C 56.352084943973075 -29.052700246153236 56.86659064076174 -29.188708661138328 57.513042767836765 -29.313270333064835 C 58.68020404523265 -29.537904022479776 60.265955599342206 -29.723472058526227 62.27929693903186 -29.706635808397362 A 69 69 0 0 1 63.235 -27.6138C 61.929309272261094 -26.081235564606835 60.75061988142617 -25.004325722839102 59.81652497551721 -24.269347866963493 C 59.29905143058106 -23.862362494985383 58.85933355062942 -23.562591604094372 58.51404635358889 -23.347888409613436 A 1.125 1.125 0 0 0 58.2177 -22.04A 62.25 62.25 0 0 1 58.4311 -21.4677A 1.125 1.125 0 0 0 59.5114 -20.6734C 59.91313230917375 -20.73724779301798 60.441757095407475 -20.798650043417297 61.099356246131144 -20.829944127210588 C 62.28660621181054 -20.886187001130878 63.882626186602835 -20.844190246172683 65.87307856623872 -20.54099701764741 A 69 69 0 0 1 66.5213 -18.3335C 65.01070501990415 -17.002306559137313 63.69075273757209 -16.104103096814114 62.66156731625828 -15.509541821227096 C 62.091440848481675 -15.180343137369569 61.61353681667093 -14.946201860885083 61.241208695033926 -14.782823526952182 A 1.125 1.125 0 0 0 60.7617 -13.5305A 62.25 62.25 0 0 1 60.8916 -12.9336A 1.125 1.125 0 0 0 61.8478 -11.9936C 62.25452107576585 -11.999644776101258 62.786503675224914 -11.985190889166141 63.44186302724784 -11.922580327524871 C 64.6250326956557 -11.809287443228554 66.1988307269855 -11.540580830088016 68.12587427610889 -10.957202762962037 A 69 69 0 0 1 68.4533 -8.67992C 66.76867028873397 -7.577259622727036 65.33432553694499 -6.8760473721363855 64.23100084747858 -6.434006229835775 C 63.6198275876365 -6.189295769971558 63.11346615189288 -6.02555054907514 62.72167663251031 -5.916822987424936 A 1.125 1.125 0 0 0 62.0689 -4.74545A 62.25 62.25 0 0 1 62.1124 -4.13618A 1.125 1.125 0 0 0 62.9252 -3.06965" stroke="#191919" stroke-width="0.35 px" style="stroke-width:0.35;stroke-miterlimit:4;stroke-dasharray:none;fill:none;fill-rule: evenodd "/>
<title>b'InvoluteGear'</title>
</g>
</svg>