<?xml version="1.0"?>
<!DOCTYPE svg PUBLIC "-//W3C//DTD SVG 1.1//EN" "http://www.w3.org/Graphics/SVG/1.1/DTD/svg11.dtd">
<svg width="137.58498889095964mm" height="137.67503921285433mm" viewBox="0 0 137.58498889095964 137.67503921285433" xmlns="http://www.w3.org/2000/svg" version="1.1">
<g id="InvoluteGear" transform="translate(68.744369,68.837520) scale(1,-1)">
<path id="InvoluteGear_w0000"  d="M 61.42385128620697 -3.0594923059113137 C 61.82004706198895 -3.0114854952525487 62.34508757494833 -2.9248374984620105 62.99285584613032 -2.7695302847170353 C 64.14014542038693 -2.494164080381115 65.660340734064 -2.006732365004318 67.49174759059161 -1.1479869300331478 A 67.5 67.5 0 0 1 67.4917 1.14799C 65.660340734064 2.006732365004318 64.14014542038693 2.494164080381115 62.99285584613032 2.7695302847170353 C 62.34508757494833 2.9248374984620105 61.82004706198895 3.0114854952525487 61.424013367437105 3.0594631747803267 A 1.125 1.125 0 0 0 60.6098 4.12468A 60.75 60.75 0 0 1 60.5645 4.74414A 1.125 1.125 0 0 0 61.2147 5.9165C 61.59972937959577 6.02167783887605 62.106558679548286 6.183848971652834 62.724811011012726 6.431816950291433 C 63.819780701659155 6.871295380085149 65.25280522647448 7.574874927939321 66.93966111610847 8.69112400580114 A 67.5 67.5 0 0 1 66.6054 10.9626C 64.66844007512198 11.545569641576728 63.09347429640677 11.806464763717573 61.91831732394821 11.911849790027373 C 61.25483916912589 11.971186135254404 60.72277777014418 11.980464244441047 60.32397885474056 11.970267675108328 A 1.125 1.125 0 0 0 59.3634 12.9056A 60.75 60.75 0 0 1 59.2283 13.5118A 1.125 1.125 0 0 0 59.701 14.7664C 60.066520411860246 14.926499564406315 60.54433631220921 15.160737437027654 61.11989572888986 15.496081173604857 C 62.13920815800184 16.09030510912589 63.45451946415484 16.99503691291471 64.96087198224285 18.344998722548638 A 67.5 67.5 0 0 1 64.2994 20.5436C 62.29824389010521 20.83833314608221 60.70207530754799 20.867131148411797 59.5240973675064 20.80028889782392 C 58.85905021401605 20.762389723351298 58.33130789399278 20.694100198144923 57.938243464244394 20.62594670212426 A 1.125 1.125 0 0 0 56.8517 21.4114A 60.75 60.75 0 0 1 56.6298 21.9916A 1.125 1.125 0 0 0 56.9147 23.3016C 57.253097846048576 23.51318886636676 57.69171653043822 23.81450110524987 58.212315982626144 24.230073330227633 C 59.13424627545666 24.966377919952365 60.303810786034695 26.052979192028403 61.597554643907955 27.60788164119858 A 67.5 67.5 0 0 1 60.623 29.6868C 58.60026879568071 29.686963758055626 57.01691697143026 29.48305086115196 55.86122461845097 29.245405960189494 C 55.20878279174746 29.111079021122453 54.69660746199398 28.966677334191957 54.31765500380203 28.842019484926325 A 1.125 1.125 0 0 0 53.1283 29.4609A 60.75 60.75 0 0 1 52.8243 30.0026A 1.125 1.125 0 0 0 52.9155 31.3401C 53.21942489962681 31.598735370068642 53.60949797230732 31.96070002796503 54.064041786517976 32.447643540863766 C 54.86894059948483 33.3103357307976 55.8678310774846 34.555647451549575 56.92139237094622 36.28235049409618 A 67.5 67.5 0 0 1 55.6545 38.1972C 53.65333071074587 37.90286827855476 52.11654203999946 37.47059053179192 51.00776685013068 37.06720796893164 C 50.381836015013185 36.83931621076464 49.896143803469876 36.62188003336393 49.53938003056233 36.44337469648567 A 1.125 1.125 0 0 0 48.2726 36.8825A 60.75 60.75 0 0 1 47.893 37.3741A 1.125 1.125 0 0 0 47.7884 38.7107C 48.051472308385776 39.01080968950888 48.3846860390384 39.42571211816051 48.76348640302824 39.97364856340987 C 49.43419871535829 40.944341567287594 50.24112554446517 42.32182207943592 51.032049443685686 44.18352403782292 A 67.5 67.5 0 0 1 49.4999 45.8935C 47.562865031953415 45.310938966769626 46.10539349713203 44.65950961982075 45.06716708854552 44.098986794057296 C 44.48108787405461 43.782387333961346 44.03223046697588 43.496550940709845 43.705259179776746 43.26800264756244 A 1.125 1.125 0 0 0 42.388 43.518A 60.75 60.75 0 0 1 41.9409 43.9491A 1.125 1.125 0 0 0 41.6429 45.2562C 41.85938600946575 45.59143632904307 42.12863852593072 46.05043360351618 42.42362196759563 46.64768466708564 C 42.94585271080889 47.70568984879848 43.54361764660665 49.18598054673979 44.05504698183689 51.14300247591845 A 67.5 67.5 0 0 1 42.2903 52.6117C 40.458679461283495 51.753285657504456 39.1115885377623 50.89658879592056 38.16603890384008 50.19087227813324 C 37.63230257091107 49.79231288393606 37.22984658464493 49.44416838130102 36.939636608469584 49.17044824195874 A 1.125 1.125 0 0 0 35.6 49.226A 60.75 60.75 0 0 1 35.0949 49.5874A 1.125 1.125 0 0 0 34.6097 50.8372C 34.775139571936194 51.200360656805955 34.97469222428788 51.693670047083366 35.17957168370434 52.32750635947052 C 35.54219041618024 53.45027417542618 35.918053136872075 55.00182523294089 36.13908767974974 57.012456608174816 A 67.5 67.5 0 0 1 34.1793 58.2085C 32.49218738024156 57.09260091592789 31.284187972303222 56.04889554595919 30.45146786187615 55.21302645849477 C 29.98145007379897 54.7410017317247 29.63397315896862 54.33796921534861 29.386709815611127 54.02491109936225 A 1.125 1.125 0 0 0 28.0533 53.8848A 60.75 60.75 0 0 1 27.5009 54.1688A 1.125 1.125 0 0 0 26.839 55.3346C 26.94972140929704 55.71803818868645 27.075321079203942 56.235145661573604 27.185729906396016 56.892058102214975 C 27.381008039412432 58.055658705709966 27.52695768366094 59.64540150573285 27.452886466653776 61.666789210017036 A 67.5 67.5 0 0 1 25.3398 62.5648C 23.833180736508062 61.21508650715998 22.790019254264347 60.00661739673806 22.087876650758954 59.058410838001535 C 21.691595020664987 58.52298116620383 21.406503044437912 58.073650574448266 21.207456322775634 57.72792677204416 A 1.125 1.125 0 0 0 19.9087 57.3952A 60.75 60.75 0 0 1 19.3208 57.5957A 1.125 1.125 0 0 0 18.4962 58.6527C 18.549916723583493 59.048182471459384 18.598886472141444 59.57806677894794 18.612471494643838 60.244054399669935 C 18.636247013827685 61.423687664026204 18.549172918356224 63.01773959880709 18.181574640855978 65.00680126265742 A 67.5 67.5 0 0 1 15.9603 65.5875C 14.666211223357887 64.03287880807788 13.810120842717778 62.68540237820747 13.253520696702758 61.64506772476928 C 12.939421279533008 61.05764486181198 12.722790482419999 60.5715928961348 12.576202717750157 60.20057190993274 A 1.125 1.125 0 0 0 11.3397 59.6823A 60.75 60.75 0 0 1 10.7289 59.7951A 1.125 1.125 0 0 0 9.75914 60.7207C 9.754752768348773 61.11981726136816 9.726048890386098 61.65118483940277 9.642520567029814 62.31205327032424 C 9.49428673846757 63.48257736053259 9.176044736447396 65.04696398059525 8.522754117533152 66.96130620795661 A 67.5 67.5 0 0 1 6.24055 67.2124C 5.186656880727686 65.48592146789827 4.5358836818530275 64.02815683926053 4.136688959099217 62.91786701808148 C 3.9114662386068932 62.290970862434186 3.7679137299448042 61.778556876624585 3.6769091859729546 61.39014637479729 A 1.125 1.125 0 0 0 2.52904 60.6973A 60.75 60.75 0 0 1 1.90833 60.72A 1.125 1.125 0 0 0 0.814128 61.4946C 0.7516831935728687 61.88878925953509 0.6459174624140971 62.41031493072387 0.4670560543937574 63.051978908606614 C 0.14997222478502925 64.1884461358899 -0.3926549080267163 65.68982525643787 -1.3177141130234524 67.48864716631972 A 67.5 67.5 0 0 1 -3.61216 67.4048C -4.40344204849974 65.54324540502739 -4.835027964714968 64.00626229978337 -5.068309121754073 62.849681210771976 C -5.199854914302156 62.196672965606396 -5.267269562019912 61.66881817414425 -5.300751281436569 61.2712964521992 A 1.125 1.125 0 0 0 -6.33552 60.4187A 60.75 60.75 0 0 1 -6.95291 60.3508A 1.125 1.125 0 0 0 -8.14824 60.9578C -8.267407203439088 61.33870916287014 -8.447980574859503 61.83927751297862 -8.718362947162218 62.44806108415912 C -9.197538686494482 63.52624962264563 -9.952985794844132 64.9326219543441 -11.130097555010597 66.57758478076238 A 67.5 67.5 0 0 1 -13.3879 66.1606C -13.899689255500263 64.2036288592683 -14.102889384549918 62.62018540387273 -14.165284993023162 61.44196356494275 C -14.200350187442098 60.7767609672842 -14.190190148041374 60.24471567861429 -14.165435438182765 59.84655522189732 A 1.125 1.125 0 0 0 -15.065 58.8524A 60.75 60.75 0 0 1 -15.666 58.6953A 1.125 1.125 0 0 0 -16.9369 59.1218C -17.11029216937059 59.48130097361204 -17.361824573143323 59.95024325731951 -17.717965178887198 60.513171256917786 C -18.349020028980192 61.51010138980694 -19.301186069322938 62.79149254807942 -20.705262291134026 64.2475367642916 A 67.5 67.5 0 0 1 -22.8783 63.5062C -23.099688717968377 61.49562343151831 -23.070172201887715 59.89946797412723 -22.960352407728635 58.72471713820535 C -22.898189650277835 58.06149782653127 -22.810671467359096 57.536601662271075 -22.728207931887965 57.146288569650736 A 1.125 1.125 0 0 0 -23.4735 56.0318A 60.75 60.75 0 0 1 -24.0451 55.7888A 1.125 1.125 0 0 0 -25.3646 56.0257C -25.588500963749485 56.3561521225752 -25.90563142338615 56.783473649258674 -26.339939743873344 57.28854824429086 C -27.109423866203358 58.182972136620606 -28.238015072492576 59.31207149361605 -29.839130308967626 60.54816404506503 A 67.5 67.5 0 0 1 -31.881 59.4983C -31.807358419942656 57.47694555596568 -31.545754352026826 55.90209737898773 -31.266059773484272 54.75585532059771 C -31.1079939554149 54.108754663088085 -30.944982927102362 53.60219487368021 -30.806568133108186 53.22804799108354 A 1.125 1.125 0 0 0 -31.3816 52.0169A 60.75 60.75 0 0 1 -31.9118 51.6933A 1.125 1.125 0 0 0 -33.2518 51.7356C -33.521335285567645 52.02986973179159 -33.89730471590722 52.40646288500418 -34.40052422331103 52.84291928736253 C -35.292037399750626 53.61577384672209 -36.57299980982813 54.56851660993224 -38.33702906947825 55.55831232992625 A 67.5 67.5 0 0 1 -40.2043 54.2224C -39.83710949954819 52.23324637449932 -39.34899351632086 50.71327063265379 -38.905385357744656 49.619967511221795 C -38.65478537754287 49.002777334927494 -38.41975580089337 48.52535036281928 -38.22833981940126 48.175343981473645 A 1.125 1.125 0 0 0 -38.6209 46.8934A 60.75 60.75 0 0 1 -39.0983 46.496A 1.125 1.125 0 0 0 -40.4302 46.3428C -40.73972054384757 46.594660999344654 -41.16651580922176 46.91249934984792 -41.727921253406535 47.271035249070046 C -42.7224624284007 47.9058484223183 -44.12849455243886 48.661928533849874 -46.017840614214386 49.38433164505131 A 67.5 67.5 0 0 1 -47.6707 47.7908C -47.01780175337728 45.87628623132274 -46.31357719957826 44.44357856864083 -45.71551019869807 43.426516242061744 C -45.37771715986265 42.85239088405562 -45.07567828225582 42.41427225627261 -44.83534081258439 42.09586615453273 A 1.125 1.125 0 0 0 -45.0371 40.7704A 60.75 60.75 0 0 1 -45.4516 40.3078A 1.125 1.125 0 0 0 -46.7469 39.9622C -47.08980938901018 40.16636796302765 -47.55833408931823 40.418677338195735 -48.16596008792537 40.691651164061895 C -49.24233234300198 41.17489301054207 -50.743467047359914 41.71819593548645 -52.717861780142684 42.15780966978037 A 67.5 67.5 0 0 1 -54.1211 40.3406C -53.19639119280001 38.54155269524995 -52.29106739215393 37.22664878816601 -51.55128830875934 36.307504174157884 C -51.13350168345361 35.78868011967796 -50.77089093918078 35.39920757413161 -50.48675435723412 35.119188025255234 A 1.125 1.125 0 0 0 -50.4933 33.7785A 60.75 60.75 0 0 1 -50.8361 33.2604A 1.125 1.125 0 0 0 -52.0673 32.73C -52.436260702029 32.881998528427296 -52.93652904671312 33.06340139197547 -53.57742510651231 33.2449951813109 C -54.712687435798344 33.56636624004572 -56.27693064044799 33.88531241981318 -58.2942932483546 34.03276717368859 A 67.5 67.5 0 0 1 -59.418 32.0306C -58.24119191087451 30.385372877403107 -57.15406426841402 29.216297619825923 -56.288340209299975 28.41466069006321 C -55.79946439410199 27.962195773074242 -55.3840102016306 27.62967024089 -55.06213038534912 27.394005375405452 A 1.125 1.125 0 0 0 -54.8734 26.0666A 60.75 60.75 0 0 1 -55.1371 25.5042A 1.125 1.125 0 0 0 -56.2779 24.8001C -56.665124155409636 24.89680638328252 -57.18647379324386 25.003436448116872 -57.84698032741233 25.08977984457598 C -59.016936585344986 25.242430649396944 -60.61094916214044 25.330222299904246 -62.6282830636279 25.182375331285893 A 67.5 67.5 0 0 1 -63.4485 23.0379C -62.04468273882689 21.581581590246255 -60.79892149283413 20.583251791600816 -59.82570386329363 19.91620804547928 C -59.27615839744247 19.539745770139817 -58.81671544159418 19.271254455721927 -58.46395270043019 19.08496706108739 A 1.125 1.125 0 0 0 -58.084 17.7992A 60.75 60.75 0 0 1 -58.2629 17.2044A 1.125 1.125 0 0 0 -59.2891 16.3417C -59.686268866585515 16.38098203467394 -60.21758813518071 16.41056666608834 -60.883627593681204 16.39981941008071 C -62.06334219384248 16.380496474107787 -63.653150532154626 16.23526246874385 -65.62745975750741 15.795264879083287 A 67.5 67.5 0 0 1 -66.1267 13.5542C -64.52579887309079 12.317816360360911 -63.14795526169544 11.511509687054847 -62.08798650585013 10.993276003934916 C -61.48948399685694 10.700840010048761 -60.995844506573654 10.502105339622785 -60.61971736590596 10.369165808231992 A 1.125 1.125 0 0 0 -60.0566 9.1524A 60.75 60.75 0 0 1 -60.147 8.53791A 1.125 1.125 0 0 0 -61.0367 7.53498C -61.43530438119896 7.516025493841884 -61.96526913279508 7.467934146781098 -62.622646040914226 7.3603252974096804 C -63.78697541476344 7.169440455475613 -65.33869551000724 6.794276204916724 -67.22790108578435 6.071505778935654 A 67.5 67.5 0 0 1 -67.3955 3.78166C -65.63165963085468 2.7915182603340907 -64.15109999849014 2.1944197392394127 -63.02697151010589 1.8360413703452658 C -62.39226799985959 1.6338644234092845 -61.8749530438444 1.5091220814421114 -61.483478000663126 1.4323637886036606 A 1.125 1.125 0 0 0 -60.7492 0.310558A 60.75 60.75 0 0 1 -60.7492 -0.310558A 1.125 1.125 0 0 0 -61.4833 -1.43232C -61.8749530438444 -1.509122081442123 -62.39226799985959 -1.633864423409297 -63.02697151010589 -1.8360413703452783 C -64.15109999849014 -2.194419739239425 -65.63165963085468 -2.791518260334104 -67.39549642015312 -3.7816569258439285 A 67.5 67.5 0 0 1 -67.2279 -6.07151C -65.33869551000724 -6.794276204916736 -63.78697541476344 -7.169440455475625 -62.622646040914226 -7.360325297409693 C -61.96526913279508 -7.4679341467811104 -61.43530438119896 -7.516025493841895 -61.03682504639002 -7.534966578380079 A 1.125 1.125 0 0 0 -60.147 -8.53791A 60.75 60.75 0 0 1 -60.0566 -9.1524A 1.125 1.125 0 0 0 -60.6196 -10.3691C -60.99584450657366 -10.502105339622798 -61.48948399685694 -10.700840010048774 -62.08798650585013 -10.993276003934927 C -63.14795526169544 -11.511509687054861 -64.52579887309079 -12.317816360360924 -66.12667375703228 -13.554220178773623 A 67.5 67.5 0 0 1 -65.6275 -15.7953C -63.653150532154626 -16.235262468743866 -62.06334219384248 -16.380496474107797 -60.883627593681204 -16.39981941008072 C -60.21758813518071 -16.410566666088354 -59.68626886658551 -16.380982034673952 -59.28927813535038 -16.341702214579502 A 1.125 1.125 0 0 0 -58.2629 -17.2044A 60.75 60.75 0 0 1 -58.084 -17.7992A 1.125 1.125 0 0 0 -58.4638 -19.0849C -58.81671544159418 -19.271254455721913 -59.27615839744247 -19.539745770139803 -59.82570386329363 -19.916208045479266 C -60.798921492834126 -20.5832517916008 -62.04468273882689 -21.58158159024624 -63.448475848619516 -23.03789876075511 A 67.5 67.5 0 0 1 -62.6283 -25.1824C -60.61094916214044 -25.330222299904232 -59.01693658534499 -25.24243064939693 -57.84698032741233 -25.089779844575965 C -57.18647379324386 -25.003436448116858 -56.665124155409636 -24.896806383282506 -56.278083195949044 -24.80014283972507 A 1.125 1.125 0 0 0 -55.1371 -25.5042A 60.75 60.75 0 0 1 -54.8734 -26.0666A 1.125 1.125 0 0 0 -55.062 -27.3939C -55.3840102016306 -27.62967024089001 -55.79946439410198 -27.962195773074257 -56.28834020929997 -28.414660690063222 C -57.15406426841402 -29.216297619825934 -58.24119191087451 -30.38537287740312 -59.417983833578745 -32.03056452790414 A 67.5 67.5 0 0 1 -58.2943 -34.0328C -56.27693064044798 -33.8853124198132 -54.71268743579833 -33.566366240045724 -53.5774251065123 -33.244995181310905 C -52.93652904671311 -33.063401391975475 -52.43626070202899 -32.8819985284273 -52.0674186204326 -32.73001147701538 A 1.125 1.125 0 0 0 -50.8361 -33.2604A 60.75 60.75 0 0 1 -50.4933 -33.7785A 1.125 1.125 0 0 0 -50.4866 -35.1191C -50.77089093918079 -35.3992075741316 -51.133501683453616 -35.788680119677956 -51.55128830875935 -36.30750417415788 C -52.291067392153934 -37.226648788166 -53.196391192800014 -38.54155269524994 -54.12110065167098 -40.34055442201253 A 67.5 67.5 0 0 1 -52.7179 -42.1578C -50.74346704735992 -41.71819593548644 -49.24233234300199 -41.174893010542064 -48.16596008792538 -40.69165116406189 C -47.55833408931824 -40.41867733819573 -47.089809389010185 -40.166367963027646 -46.747027413881945 -39.96229674388972 A 1.125 1.125 0 0 0 -45.4516 -40.3078A 60.75 60.75 0 0 1 -45.0371 -40.7704A 1.125 1.125 0 0 0 -44.8352 -42.0957C -45.075678282255815 -42.41427225627261 -45.37771715986264 -42.85239088405562 -45.71551019869806 -43.426516242061744 C -46.313577199578255 -44.44357856864083 -47.01780175337727 -45.87628623132274 -47.67072017173366 -47.79075543587819 A 67.5 67.5 0 0 1 -46.0178 -49.3843C -44.12849455243885 -48.661928533849874 -42.722462428400696 -47.9058484223183 -41.72792125340653 -47.271035249070046 C -41.16651580922175 -46.91249934984792 -40.73972054384756 -46.594660999344654 -40.430304477866336 -46.34285503621837 A 1.125 1.125 0 0 0 -39.0983 -46.496A 60.75 60.75 0 0 1 -38.6209 -46.8934A 1.125 1.125 0 0 0 -38.2283 -48.1752C -38.41975580089336 -48.52535036281928 -38.654785377542865 -49.002777334927494 -38.90538535774465 -49.6199675112218 C -39.34899351632085 -50.71327063265379 -39.837109499548184 -52.23324637449932 -40.204321054867194 -54.222379469558675 A 67.5 67.5 0 0 1 -38.337 -55.5583C -36.572999809828126 -54.56851660993224 -35.29203739975062 -53.61577384672209 -34.400524223311024 -52.84291928736252 C -33.89730471590721 -52.40646288500418 -33.52133528556764 -52.02986973179159 -33.251879794987055 -51.735695831607984 A 1.125 1.125 0 0 0 -31.9118 -51.6933A 60.75 60.75 0 0 1 -31.3816 -52.0169A 1.125 1.125 0 0 0 -30.8065 -53.2279C -30.94498292710237 -53.602194873680205 -31.107993955414912 -54.10875466308808 -31.26605977348428 -54.7558553205977 C -31.545754352026833 -55.902097378987726 -31.807358419942666 -57.47694555596567 -31.88103663545709 -59.498347623041596 A 67.5 67.5 0 0 1 -29.8391 -60.5482C -28.238015072492587 -59.312071493616045 -27.10942386620337 -58.1829721366206 -26.33993974387336 -57.28854824429085 C -25.90563142338616 -56.78347364925867 -25.588500963749492 -56.356152122575196 -25.364749024536057 -56.025880091286616 A 1.125 1.125 0 0 0 -24.0451 -55.7888A 60.75 60.75 0 0 1 -23.4735 -56.0318A 1.125 1.125 0 0 0 -22.7282 -57.1461C -22.81067146735907 -57.53660166227109 -22.898189650277807 -58.06149782653128 -22.960352407728614 -58.724717138205364 C -23.070172201887686 -59.899467974127234 -23.09968871796835 -61.49562343151832 -22.878263270430942 -63.50621179500874 A 67.5 67.5 0 0 1 -20.7053 -64.2475C -19.30118606932291 -62.791492548079425 -18.349020028980163 -61.51010138980695 -17.71796517888717 -60.513171256917786 C -17.361824573143295 -59.950243257319514 -17.110292169370567 -59.48130097361204 -16.937012665641635 -59.121969986163556 A 1.125 1.125 0 0 0 -15.666 -58.6953A 60.75 60.75 0 0 1 -15.065 -58.8524A 1.125 1.125 0 0 0 -14.1654 -59.8464C -14.190190148041362 -60.24471567861429 -14.200350187442085 -60.7767609672842 -14.16528499302315 -61.44196356494275 C -14.102889384549906 -62.62018540387273 -13.89968925550025 -64.2036288592683 -13.387879443897438 -66.16055131888885 A 67.5 67.5 0 0 1 -11.1301 -66.5776C -9.95298579484412 -64.9326219543441 -9.19753868649447 -63.52624962264563 -8.718362947162206 -62.44806108415912 C -8.447980574859491 -61.83927751297862 -8.267407203439076 -61.33870916287014 -8.148293286977387 -60.957977735406615 A 1.125 1.125 0 0 0 -6.95291 -60.3508A 60.75 60.75 0 0 1 -6.33552 -60.4187A 1.125 1.125 0 0 0 -5.30077 -61.2711C -5.2672695620199 -61.66881817414425 -5.1998549143021435 -62.196672965606396 -5.06830912175406 -62.849681210771976 C -4.835027964714955 -64.00626229978337 -4.403442048499727 -65.54324540502739 -3.6121562103871034 -67.40479355606259 A 67.5 67.5 0 0 1 -1.31771 -67.4886C -0.392654908026703 -65.68982525643787 0.14997222478504213 -64.1884461358899 0.46705605439376985 -63.051978908606614 C 0.64591746241411 -62.41031493072387 0.7516831935728812 -61.88878925953509 0.8140928164376025 -61.494772021425966 A 1.125 1.125 0 0 0 1.90833 -60.72A 60.75 60.75 0 0 1 2.52904 -60.6973A 1.125 1.125 0 0 0 3.67686 -61.39C 3.7679137299448042 -61.778556876624585 3.9114662386068924 -62.290970862434186 4.136688959099217 -62.91786701808148 C 4.535883681853027 -64.02815683926053 5.186656880727686 -65.48592146789827 6.24055386150183 -67.21241964343606 A 67.5 67.5 0 0 1 8.52275 -66.9613C 9.176044736447395 -65.04696398059525 9.494286738467569 -63.48257736053259 9.642520567029813 -62.31205327032424 C 9.726048890386096 -61.65118483940277 9.754752768348773 -61.11981726136816 9.759127944857646 -60.720912005970625 A 1.125 1.125 0 0 0 10.7289 -59.7951A 60.75 60.75 0 0 1 11.3397 -59.6823A 1.125 1.125 0 0 0 12.5761 -60.2004C 12.722790482419986 -60.5715928961348 12.939421279532993 -61.05764486181198 13.253520696702743 -61.64506772476928 C 13.810120842717764 -62.68540237820747 14.666211223357873 -64.03287880807788 15.960257362371815 -65.58752969696688 A 67.5 67.5 0 0 1 18.1816 -65.0068C 18.54917291835621 -63.01773959880709 18.63624701382767 -61.423687664026204 18.612471494643824 -60.244054399669935 C 18.59888647214143 -59.57806677894794 18.54991672358348 -59.048182471459384 18.49616420444518 -58.65289117173278 A 1.125 1.125 0 0 0 19.3208 -57.5957A 60.75 60.75 0 0 1 19.9087 -57.3952A 1.125 1.125 0 0 0 21.2074 -57.7278C 21.40650304443794 -58.07365057444826 21.691595020665012 -58.52298116620382 22.08787665075898 -59.05841083800153 C 22.790019254264372 -60.00661739673805 23.83318073650809 -61.215086507159974 25.339795686967236 -62.56475542481097 A 67.5 67.5 0 0 1 27.4529 -61.6668C 27.526957683660967 -59.64540150573284 27.381008039412457 -58.05565870570996 27.18572990639604 -56.89205810221497 C 27.075321079203967 -56.2351456615736 26.949721409297062 -55.71803818868644 26.838986836134577 -55.33478579239938 A 1.125 1.125 0 0 0 27.5009 -54.1688A 60.75 60.75 0 0 1 28.0533 -53.8848A 1.125 1.125 0 0 0 29.3866 -54.0248C 29.633973158968626 -54.3379692153486 29.981450073798978 -54.741001731724694 30.451467861876157 -55.21302645849476 C 31.28418797230323 -56.04889554595918 32.49218738024157 -57.09260091592788 34.179260260186766 -58.208522012589135 A 67.5 67.5 0 0 1 36.1391 -57.0125C 35.91805313687208 -55.00182523294088 35.54219041618025 -53.45027417542617 35.179571683704346 -52.32750635947051 C 34.974692224287885 -51.69367004708336 34.775139571936194 -51.20036065680595 34.609783059924624 -50.83731552340154 A 1.125 1.125 0 0 0 35.0949 -49.5874A 60.75 60.75 0 0 1 35.6 -49.226A 1.125 1.125 0 0 0 36.9395 -49.1703C 37.229846584644925 -49.444168381301026 37.632302570911065 -49.79231288393607 38.166038903840075 -50.19087227813325 C 39.111588537762294 -50.896588795920565 40.45867946128349 -51.75328565750446 42.29025324129064 -52.6116750124073 A 67.5 67.5 0 0 1 44.055 -51.143C 43.54361764660664 -49.1859805467398 42.945852710808886 -47.705689848798485 42.42362196759562 -46.64768466708565 C 42.12863852593071 -46.05043360351619 41.859386009465744 -45.59143632904308 41.64293184557487 -45.25633613523896 A 1.125 1.125 0 0 0 41.9409 -43.9491A 60.75 60.75 0 0 1 42.388 -43.518A 1.125 1.125 0 0 0 43.7051 -43.2679C 44.032230466975875 -43.49655094070985 44.4810878740546 -43.78238733396135 45.06716708854551 -44.0989867940573 C 46.10539349713201 -44.65950961982076 47.56286503195341 -45.31093896676963 49.499902896788896 -45.893501501107174 A 67.5 67.5 0 0 1 51.032 -44.1835C 50.24112554446516 -42.321822079435925 49.43419871535829 -40.9443415672876 48.76348640302823 -39.973648563409874 C 48.38468603903839 -39.42571211816052 48.05147230838577 -39.01080968950889 47.78853383732199 -38.71079651415172 A 1.125 1.125 0 0 0 47.893 -37.3741A 60.75 60.75 0 0 1 48.2726 -36.8825A 1.125 1.125 0 0 0 49.5392 -36.4433C 49.8961438034699 -36.6218800333639 50.38183601501321 -36.839316210764615 51.0077668501307 -37.06720796893161 C 52.11654203999948 -37.47059053179189 53.65333071074589 -37.902868278554735 55.65454806130946 -38.19718768332364 A 67.5 67.5 0 0 1 56.9214 -36.2824C 55.867831077484624 -34.55564745154955 54.86894059948485 -33.31033573079757 54.064041786518 -32.44764354086374 C 53.60949797230734 -31.960700027965 53.21942489962683 -31.598735370068614 52.91560619840017 -31.340203473123182 A 1.125 1.125 0 0 0 52.8243 -30.0026A 60.75 60.75 0 0 1 53.1283 -29.4609A 1.125 1.125 0 0 0 54.3175 -28.842C 54.69660746199399 -28.96667733419194 55.20878279174747 -29.111079021122436 55.861224618450976 -29.24540596018948 C 57.01691697143027 -29.48305086115194 58.60026879568072 -29.68696375805561 60.623013158559054 -29.686767126125922 A 67.5 67.5 0 0 1 61.5976 -27.6079C 60.3038107860347 -26.05297919202838 59.13424627545667 -24.966377919952347 58.21231598262615 -24.23007333022761 C 57.69171653043823 -23.814501105249853 57.253097846048576 -23.513188866366743 56.91487428280079 -23.301648406366237 A 1.125 1.125 0 0 0 56.6298 -21.9916A 60.75 60.75 0 0 1 56.8517 -21.4114A 1.125 1.125 0 0 0 57.9381 -20.6259C 58.33130789399278 -20.694100198144913 58.85905021401605 -20.76238972335129 59.5240973675064 -20.800288897823908 C 60.70207530754799 -20.867131148411787 62.29824389010521 -20.8383331460822 64.29940398099163 -20.543624668322128 A 67.5 67.5 0 0 1 64.9609 -18.345C 63.45451946415484 -16.9950369129147 62.13920815800184 -16.09030510912588 61.11989572888986 -15.496081173604846 C 60.54433631220921 -15.160737437027644 60.066520411860246 -14.926499564406305 59.70110063463504 -14.766459158989619 A 1.125 1.125 0 0 0 59.2283 -13.5118A 60.75 60.75 0 0 1 59.3634 -12.9056A 1.125 1.125 0 0 0 60.3238 -11.9703C 60.72277777014417 -11.98046424444105 61.25483916912588 -11.971186135254408 61.9183173239482 -11.911849790027377 C 63.09347429640676 -11.806464763717576 64.66844007512196 -11.545569641576732 66.60536464099376 -10.962630517531544 A 67.5 67.5 0 0 1 66.9397 -8.69112C 65.25280522647446 -7.574874927939325 63.81978070165915 -6.871295380085153 62.72481101101272 -6.431816950291436 C 62.10655867954828 -6.1838489716528375 61.599729379595765 -6.0216778388760535 61.21490167652107 -5.916548471430456 A 1.125 1.125 0 0 0 60.5645 -4.74414A 60.75 60.75 0 0 1 60.6098 -4.12468A 1.125 1.125 0 0 0 61.4239 -3.05949" stroke="#191919" stroke-width="0.35 px" style="stroke-width:0.35;stroke-miterlimit:4;stroke-dasharray:none;fill:none;fill-rule: evenodd "/>
<title>b'InvoluteGear'</title>
</g>
</svg>