<?xml version="1.0"?>
<!DOCTYPE svg PUBLIC "-//W3C//DTD SVG 1.1//EN" "http://www.w3.org/Graphics/SVG/1.1/DTD/svg11.dtd">
<svg width="278.4061683877666mm" height="278.44868560168123mm" viewBox="0 0 278.4061683877666 278.44868560168123" xmlns="http://www.w3.org/2000/svg" version="1.1">
<g id="InvoluteGear" transform="translate(139.181825,139.224343) scale(1,-1)">
<path id="InvoluteGear_w0000"  d="M 130.45898915090982 -3.2714140249740336 C 130.93930974717966 -3.146687078667216 131.45172170831654 -3.0030147810397634 131.99507293339872 -2.837629722199339 C 133.3188452452784 -2.434677695473424 134.82512008255136 -1.9033235690270374 136.49487093541316 -1.20453617379814 A 136.5 136.5 0 0 1 136.495 1.20454C 134.82512008255136 1.9033235690270374 133.3188452452784 2.434677695473424 131.99507293339872 2.837629722199339 C 131.45172170831654 3.0030147810397634 130.93930974717966 3.146687078667216 130.4589945878749 3.2714120445417465 A 1.125 1.125 0 0 0 129.676 4.36743A 129.75 129.75 0 0 1 129.662 4.79069A 1.125 1.125 0 0 0 130.365 5.93918C 130.83510725078418 6.097473846988936 131.33610831229555 6.27693326687589 131.86643997324998 6.480233785505964 C 133.15849098508542 6.975559589756883 134.62353256266033 7.611841185491114 136.2398323726918 8.426670405914416 A 136.5 136.5 0 0 1 136.07 10.8297C 134.35501563610063 11.40900606126438 132.81501172460096 11.832785538892889 131.46611307974703 12.141356301365755 C 130.9124492390091 12.268001960372509 130.391179188862 12.375171367580613 129.9032625132794 12.46570471535248 A 1.125 1.125 0 0 0 129.045 13.5038A 129.75 129.75 0 0 1 129.001 13.9249A 1.125 1.125 0 0 0 129.621 15.1202C 130.07909083127103 15.311257464651636 130.56618503106958 15.5256099489953 131.0808550422379 15.765813094457535 C 132.33474782088027 16.351044987992324 133.7512573753115 17.08908413011039 135.30605381816144 18.015895737539104 A 136.5 136.5 0 0 1 134.967 20.401C 133.21556126001335 20.857849459194934 131.64950049630957 21.17194303996478 130.28219566367844 21.384595254167536 C 129.72097753268915 21.471870571037915 129.19344633470095 21.54200317523075 128.70035891917533 21.597893872315318 A 1.125 1.125 0 0 0 127.771 22.5729A 129.75 129.75 0 0 1 127.697 22.9898A 1.125 1.125 0 0 0 128.232 24.2259C 128.6750269244135 24.44876116780508 129.1457875836974 24.69693882331071 129.64223188497266 24.972847915617002 C 130.85171959967147 25.645070302580127 132.21264015161142 26.48119011720049 133.6981873096102 27.51536678282644 A 136.5 136.5 0 0 1 133.192 29.8706C 131.41243365867496 30.202780100301474 129.82811807871656 30.405622985792643 128.44921890220684 30.521297229090862 C 127.88324244146462 30.568767402586303 127.35207822952815 30.60151380665755 126.85627661076057 30.622483408413334 A 1.125 1.125 0 0 0 125.861 31.5295A 129.75 129.75 0 0 1 125.757 31.9402A 1.125 1.125 0 0 0 126.203 33.2108C 126.62991050596895 33.464462372630564 127.08199231881363 33.74522879070214 127.55773764965876 34.05546926463327 C 128.7167946934585 34.81133316690669 130.01534620517378 35.741368147171016 131.42424315710556 36.87775765486672 A 136.5 136.5 0 0 1 130.753 39.1914C 128.95461592309516 39.39724201019429 127.359938507408 39.487823647354574 125.97631459335635 39.50594363648674 C 125.40839946911919 39.51337217259071 124.8762484766199 39.50856923560248 124.38020271333549 39.49451327252833 A 1.125 1.125 0 0 0 123.323 40.3291A 129.75 129.75 0 0 1 123.191 40.7314A 1.125 1.125 0 0 0 123.546 42.0304C 123.9539302430616 42.313445309229174 124.3850809606159 42.625401725694864 124.83775718172335 42.968427978815264 C 125.94060919073412 43.80416772045897 127.1703223439125 44.82348447887776 128.49555003603237 46.05642539327802 A 136.5 136.5 0 0 1 127.663 48.317C 125.85435277760071 48.39542884213378 124.25725812885504 48.37329795780324 122.87580262200284 48.293773419894954 C 122.30877815885269 48.26112331001425 121.7782915352672 48.21879495995703 121.28447290250679 48.16978345815395 A 1.125 1.125 0 0 0 120.171 48.9277A 129.75 129.75 0 0 1 120.011 49.3197A 1.125 1.125 0 0 0 120.274 50.6405C 120.66041773475537 50.95162478972815 121.06848938583195 51.293217053412974 121.49584128703849 51.66732014618436 C 122.53699390802656 52.578772113844465 123.69174233359536 53.682292465600476 124.92669854820215 55.00564233708854 A 136.5 136.5 0 0 1 123.936 57.2018C 122.12708957723447 57.15251208194575 120.53553434063404 57.017778931076904 119.16312958282712 56.84100605337583 C 118.59982066811716 56.76843995871552 118.07364127111991 56.688797073300115 117.58450994847207 56.60507420560474 A 1.125 1.125 0 0 0 116.421 57.2826A 129.75 129.75 0 0 1 116.233 57.6623A 1.125 1.125 0 0 0 116.402 58.9983C 116.76578109469794 59.33596583846926 117.14874068685776 59.70549215389817 117.54863922248802 60.1088083235303 C 118.52290548546718 61.09143170935135 119.59693628485581 62.27365797156088 120.73546853220859 63.680823937643524 A 136.5 136.5 0 0 1 119.593 65.8017C 117.79139535977362 65.62486438142415 116.21330858344949 65.37820019779733 114.8567918261572 65.10505965388822 C 114.30000483656525 64.99293909508172 113.78075406544441 64.87637845115712 113.29874688055455 64.75836132068491 A 1.125 1.125 0 0 0 112.09 65.3521A 129.75 129.75 0 0 1 111.876 65.7176A 1.125 1.125 0 0 0 111.95 67.0623C 112.2894232067239 67.42469809009285 112.64536285454227 67.82031749575012 113.01581575020724 68.2508374413733 C 113.91834190966242 69.29973686507459 114.90630431545372 70.55477924596711 115.94274048516607 72.03875087658392 A 136.5 136.5 0 0 1 114.653 74.0737C 112.8688703357175 73.77027690758523 111.31211396860917 73.4129105597557 109.97824331008145 73.04476312208891 C 109.43075213038242 72.89364667812038 108.92101686636063 72.7407489749514 108.44853515477814 72.58902553710993 A 1.125 1.125 0 0 0 107.201 73.096A 129.75 129.75 0 0 1 106.962 73.4455A 1.125 1.125 0 0 0 106.941 74.7921C 107.25364506066346 75.17752388739689 107.58079149071929 75.5972654273038 107.91995316872712 76.05284432020476 C 108.74624288473035 77.16279421761865 109.64321491791468 78.4844001591831 110.57239153712341 80.03778438231636 A 136.5 136.5 0 0 1 109.143 81.9767C 107.38403827712544 81.54816962495032 105.85636800114662 81.08188149408687 104.55178871790852 80.62056125467852 C 104.01632092162001 80.43120178007038 103.51864064014218 80.24272874632325 103.05803828198763 80.05805487964794 A 1.125 1.125 0 0 0 101.778 80.4758A 129.75 129.75 0 0 1 101.515 80.8076A 1.125 1.125 0 0 0 101.399 82.1493C 101.683534649933 82.55581904223824 101.98025803516768 82.9975915851566 102.28643880909888 83.47595975420721 C 103.03237554784867 84.64143041077698 103.83388853887578 86.02301573869127 104.65117649640298 87.63807367227895 A 136.5 136.5 0 0 1 103.088 89.4713C 101.3642243414179 88.9197934632414 99.87325093303936 88.34690657335703 98.60446237345766 87.7947118064347 C 98.08368563420592 87.5680526805644 97.60053975340028 87.34494327941279 97.154111446453 87.12823901981801 A 1.125 1.125 0 0 0 95.8476 87.4546A 129.75 129.75 0 0 1 95.5616 87.767A 1.125 1.125 0 0 0 95.3516 89.0972C 95.60684198441372 89.52282525929495 95.87166406384767 89.98442791663778 96.14333855648789 90.4832021556825 C 96.80520609867352 91.69838725522206 97.50726695013945 93.13306898087839 98.20859455849157 94.80175448753522 A 136.5 136.5 0 0 1 96.5202 96.5202C 94.83941893881676 95.8484233633001 93.39257035256082 95.17179180806309 92.16589355741735 94.53147352017936 C 91.6624023587215 94.2686439474107 91.19619788706324 94.01200969866836 90.7661677146924 93.76435465587485 A 1.125 1.125 0 0 0 89.4398 93.9977A 129.75 129.75 0 0 1 89.1325 94.2892A 1.125 1.125 0 0 0 88.8293 95.6013C 89.05384084129828 96.04383326404474 89.2854422846527 96.52296635459247 89.52125702734524 97.03966179546147 C 90.09575798216453 98.29850734693056 90.69486906222201 99.77913795813839 91.27674234253209 101.49313773060766 A 136.5 136.5 0 0 1 89.4714 103.088C 87.8421283216301 102.29954123948494 86.44661268437476 101.5225359632679 85.26815889575921 100.797284187924 C 84.78446160544476 100.49959357196776 84.3375211501609 100.21071301455285 83.92603150105407 99.93334099352641 A 1.125 1.125 0 0 0 82.5866 100.073A 129.75 129.75 0 0 1 82.2595 100.342A 1.125 1.125 0 0 0 81.8644 101.629C 82.05717794265571 102.08635572262459 82.25440492318974 102.58063222942127 82.45318509874834 103.11267472141868 C 82.93745733134264 104.40890921960177 83.43063389872701 105.92811228913405 83.89015398758166 107.6788872667661 A 136.5 136.5 0 0 1 81.9768 109.143C 80.40721263973829 108.24100794703787 79.06998234019181 107.36749995104235 77.94562255560105 106.5609278561018 C 77.48412892923763 106.2298592766324 77.05867912519459 105.91017159895081 76.66778002008508 105.60446445314795 A 1.125 1.125 0 0 0 75.3218 105.649A 129.75 129.75 0 0 1 74.9766 105.894A 1.125 1.125 0 0 0 74.4917 107.151C 74.65171031110427 107.62028909209396 74.81358025392167 108.12724655444556 74.97433554951067 108.67198548863885 C 75.36596643997682 109.99915115846855 75.7507515138369 111.54935809305108 76.08562910526801 113.32818600297402 A 136.5 136.5 0 0 1 74.0737 114.653C 72.57171226908098 113.64322339768673 71.29942932133095 112.67756445480998 70.23476504465478 111.79369034187795 C 69.79777422027509 111.43089316590503 69.39593463699586 111.08199103588622 69.02757351556248 110.74947178292979 A 1.125 1.125 0 0 0 67.6818 110.699A 129.75 129.75 0 0 1 67.3201 110.919A 1.125 1.125 0 0 0 66.7478 112.138C 66.87433161387796 112.61806359477148 67.00003809106595 113.13517637610133 67.12196763188894 113.68989789052152 C 67.41900609483027 115.0413828593892 67.69348269528341 116.61487060605168 67.90204944597528 118.41288941709603 A 136.5 136.5 0 0 1 65.8017 119.593C 64.37466327836707 118.47927402579603 63.17366613206143 117.42627500031737 62.174001467172 116.46950228576428 C 61.763690511081805 116.07678395056931 61.38746309315712 115.7004055810747 61.043475111977756 115.34273081515671 A 1.125 1.125 0 0 0 59.7047 115.197A 129.75 129.75 0 0 1 59.3283 115.392A 1.125 1.125 0 0 0 58.6714 116.567C 58.76378836043234 117.05478056948049 58.8527051086448 117.57947243992353 58.93520144786264 118.14141293988915 C 59.13616765259827 119.51048417766165 59.29896835102756 121.09941369959907 59.38018519191954 122.90766577249128 A 136.5 136.5 0 0 1 57.2018 123.936C 55.85690295334424 122.72506687039731 54.73317491585389 121.58997375049421 53.80349014182703 120.56506902785681 C 53.421903202570306 120.1443860364314 53.07316229607146 119.74240652556541 52.75526118596521 119.36135816437807 A 1.125 1.125 0 0 0 51.43 119.122A 129.75 129.75 0 0 1 51.0409 119.289A 1.125 1.125 0 0 0 50.3028 120.415C 50.3604868692834 120.90833651542661 50.41217090975336 121.43799348647711 50.45482305475376 122.00435341268378 C 50.558715797760605 123.38419027532092 50.60902952927562 124.98064560558053 50.56249184215167 126.79012231945131 A 136.5 136.5 0 0 1 48.317 127.663C 47.060866347495406 126.35944960510862 46.020005775377875 125.14791736760748 45.16493253499323 124.0599866606597 C 44.81397065950695 123.61343483450612 44.494453674087914 123.18785682397171 44.20422320239441 122.78533323128313 A 1.125 1.125 0 0 0 42.8992 122.453A 129.75 129.75 0 0 1 42.4993 122.592A 1.125 1.125 0 0 0 41.6835 123.664C 41.7062919657611 124.15953321072692 41.72048581119874 124.69151655799766 41.72308127114078 125.25947433378178 C 41.72938296399915 126.6432025434418 41.66695906812032 128.23923022187242 41.4928987013968 130.0409168547527 A 136.5 136.5 0 0 1 39.1915 130.753C 38.03037487273683 129.36431591796062 37.077567281005535 128.0823803555268 36.301365506135205 126.93684368032606 C 35.98277716882912 126.46664771817996 35.694075922039055 126.01959141621839 35.432962002369244 125.5975979443198 A 1.125 1.125 0 0 0 34.1546 125.174A 129.75 129.75 0 0 1 33.7459 125.285A 1.125 1.125 0 0 0 32.8565 126.296C 32.844318413555555 126.79217335698559 32.820951350936866 127.32383276620004 32.78347719536968 127.89055885449181 C 32.69215644336273 129.2712847468378 32.51730591279931 130.8589334438281 32.21659002646773 132.6438540835405 A 136.5 136.5 0 0 1 29.8707 133.192C 28.81041798334819 131.72469571613203 27.950410211497463 130.37874336725423 27.256946900339717 129.18130772989417 C 26.972319292284805 128.6898101243874 26.715872079213117 128.22350274300743 26.485175567980363 127.78414174214892 A 1.125 1.125 0 0 0 25.2399 127.271A 129.75 129.75 0 0 1 24.8243 127.353A 1.125 1.125 0 0 0 23.8659 128.299C 23.818716119133086 128.79314127341976 23.75790456198865 129.32182804414452 23.680547485270246 129.8844990440792 C 23.492059243790912 131.25534391216817 23.205653175090927 132.8267040417709 22.77977992057051 134.5859663034726 A 136.5 136.5 0 0 1 20.401 134.967C 19.44692904077458 133.42882970619914 18.684005604264073 132.02556603777603 18.076735556152833 130.7821970023691 C 17.827486677775223 130.2718463698492 17.604571105537744 129.78861102896886 17.40544132115663 129.33407137355618 A 1.125 1.125 0 0 0 16.1994 128.735A 129.75 129.75 0 0 1 15.7791 128.787A 1.125 1.125 0 0 0 14.7564 129.663C 14.67445017912291 130.1524682385215 14.5764970875715 130.67554847985852 14.45964247876692 131.23136119281776 C 14.174925786752999 132.5854955564724 13.778391040544046 134.13273868156372 13.229482096966743 135.85757800916045 A 136.5 136.5 0 0 1 10.8298 136.07C 9.986556475930074 134.4682279783439 9.324518220944269 133.01464397938523 8.806466824712615 131.73153594792245 C 8.593838421386781 131.20487482956926 8.405565044151402 130.70711898334937 8.238994041191173 130.23966516708174 A 1.125 1.125 0 0 0 7.07828 129.557A 129.75 129.75 0 0 1 6.65534 129.579A 1.125 1.125 0 0 0 5.57331 130.381C 5.457076866467606 130.86338215372692 5.32247023788414 131.37824990622562 5.1667002607764845 131.92443530123163 C 4.787173562465905 133.2551129311673 4.282485654907292 134.77053076432668 3.61327565901905 136.45235409505042 A 136.5 136.5 0 0 1 1.20458 136.495C 0.47643138906152904 134.83771230265785 -0.08142344311477068 133.34104965552896 -0.5076752814695871 132.0245950076808 C -0.6826239057338079 131.48424720269406 -0.8353171194721383 130.9744506457226 -0.9684994926535047 130.49641149999903 A 1.125 1.125 0 0 0 -2.07816 129.733A 129.75 129.75 0 0 1 -2.50162 129.726A 1.125 1.125 0 0 0 -3.63751 130.449C -3.787483328637138 130.9223412816705 -3.9580728907999765 131.42643150008658 -4.1519821980202245 131.96026850897536 C -4.624428119707253 133.26086003617488 -5.234754858846639 134.7369028419853 -6.0209319365085925 136.3673314166007 A 136.5 136.5 0 0 1 -8.42663 136.24C -9.036067255022095 134.53544192682287 -9.486959459675937 133.00315692954732 -9.819288174936352 131.65991417614973 C -9.95568543489306 131.10857167011355 -10.072037775224196 130.5892741831938 -10.17116801074279 130.1030312749922 A 1.125 1.125 0 0 0 -11.2242 129.264A 129.75 129.75 0 0 1 -11.6461 129.226A 1.125 1.125 0 0 0 -12.8302 129.868C -13.013174472314812 130.3290518909426 -13.218897099439243 130.8198532231644 -13.449979690357447 131.3386822968105 C -14.01299113360383 132.60270823970703 -14.725916087209963 134.03202244715723 -15.625143551990623 135.60293355251858 A 136.5 136.5 0 0 1 -18.0159 135.306C -18.503548666569184 133.5629227466467 -18.845231921417554 132.00264916600466 -19.08198186864078 130.63931027488783 C -19.17914824000186 130.07971982843395 -19.258580045418977 129.5535085255243 -19.323164281427847 129.06148429255452 A 1.125 1.125 0 0 0 -20.3144 128.15A 129.75 129.75 0 0 1 -20.7326 128.083A 1.125 1.125 0 0 0 -21.959 128.639C -22.174034635353994 129.08646971944438 -22.413865427659843 129.56153701792286 -22.68097006043186 130.0627733759793 C -23.331742130547678 131.28393642090776 -24.14371354236291 132.6594012585129 -25.151511488265257 134.16296869451253 A 136.5 136.5 0 0 1 -27.5153 133.698C -27.87884632941622 131.9249998037658 -28.109618385670647 130.3445108442519 -28.249610088528506 128.96786790119336 C -28.307061493319452 128.40281736577774 -28.3491770385635 127.87231380512003 -28.378893519647534 127.37695948736119 A 1.125 1.125 0 0 0 -29.3034 126.398A 129.75 129.75 0 0 1 -29.7158 126.301A 1.125 1.125 0 0 0 -30.9784 126.77C -31.224424873227633 127.20078524905054 -31.497169005771493 127.65775175240127 -31.79896497855262 128.13889826054515 C -32.53425556181939 129.3111146346421 -33.441228231113456 130.62587760576918 -34.552575859464774 132.05461067507267 A 136.5 136.5 0 0 1 -36.8777 131.424C -37.11525298219864 129.62983314789153 -37.23396414508305 128.03700272600102 -37.2765001719537 126.65391409689593 C -37.29395039016574 126.08621852586309 -37.29853985770879 125.55406564951141 -37.29324053785401 125.05784907725747 A 1.125 1.125 0 0 0 -38.1463 124.016A 129.75 129.75 0 0 1 -38.5509 123.891A 1.125 1.125 0 0 0 -39.8434 124.269C -40.119256597019124 124.68139286493977 -40.42355527225211 125.11798198902915 -40.75853905268674 125.57664159955931 C -41.57468496840487 126.69407137981327 -42.57214040296145 127.94158240147473 -43.78150103577979 129.28836322779827 A 136.5 136.5 0 0 1 -46.0564 128.496C -46.166753311577665 126.68885718385317 -46.17281216804993 125.0916207006261 -46.11768060658713 123.7089768634531 C -46.095042702110895 123.141464487582 -46.062083227456505 122.61031345439821 -46.021794507607865 122.11570675365174 A 1.125 1.125 0 0 0 -46.7992 121.016A 129.75 129.75 0 0 1 -47.194 120.863A 1.125 1.125 0 0 0 -48.51 121.149C -48.81421620250416 121.54084405324035 -49.14855341973294 121.95488073301331 -49.51505613547716 122.38876842682134 C -50.40799138574791 123.44584463427552 -51.4909603127656 124.61988866931317 -52.79230897621093 125.87800765832515 A 136.5 136.5 0 0 1 -55.0056 124.927C -54.98825319821663 123.11672370596786 -54.881629563358565 121.52303851322026 -54.729105076228315 120.14772773002707 C -54.6664918299652 119.58322586742753 -54.59614761555819 119.05572284514126 -54.521070212091395 118.5651901216059 A 1.125 1.125 0 0 0 -55.219 117.413A 129.75 129.75 0 0 1 -55.602 117.233A 1.125 1.125 0 0 0 -56.9348 117.425C -57.26598583829796 117.79478487015786 -57.62869594632397 118.18420639570239 -58.02489169928359 118.591160566123 C -58.990167725606135 119.58261690028439 -60.153254848365506 120.67734492037187 -61.54010828885638 121.84053418655432 A 136.5 136.5 0 0 1 -63.6808 120.735C -63.53580437341522 118.93122890353871 -63.317029440812355 117.34903466073604 -63.06787189733732 115.98790866066429 C -62.96559524533066 115.42922963122051 -62.85821674250878 114.90800261335457 -62.74872468727139 114.42398767638439 A 1.125 1.125 0 0 0 -63.3637 113.226A 129.75 129.75 0 0 1 -63.7329 113.018A 1.125 1.125 0 0 0 -65.0761 113.117C -65.43245921321194 113.46187799410983 -65.82173520852189 113.82474428697422 -66.24565017138491 114.20273750880075 C -67.27845801715097 115.12363458408434 -68.51586889411149 116.13359270929206 -69.98131787756823 117.1960573022311 A 136.5 136.5 0 0 1 -72.0387 115.943C -71.76682336717349 114.1532247011346 -71.43698706253534 112.59040382040773 -71.09243775306413 111.25024366472307 C -70.95100723244954 110.7001707792573 -70.80712939551255 110.18781649259618 -70.66376817241614 109.7127306802605 A 1.125 1.125 0 0 0 -71.1927 108.474A 129.75 129.75 0 0 1 -71.5464 108.241A 1.125 1.125 0 0 0 -72.8931 108.244C -73.27295136767835 108.56370974920098 -73.68685389684475 108.89821302776689 -74.13637614658975 109.24536215778186 C -75.23157041506353 110.0911121112811 -76.53714032747985 111.01126878103172 -78.07388406078118 111.96771555556889 A 136.5 136.5 0 0 1 -80.0378 110.572C -79.64030365689732 108.80651487535108 -79.20104920810233 107.27085325171548 -78.76282465996334 105.95833555090145 C -78.58294487048036 105.41960924485959 -78.40328449157461 104.91868021268722 -78.22676831902136 104.45489037860557 A 1.125 1.125 0 0 0 -78.667 103.182A 129.75 129.75 0 0 1 -79.0034 102.925A 1.125 1.125 0 0 0 -80.347 102.833C -80.74840136417238 103.12468256324203 -81.18486838561489 103.42915634900166 -81.6577584250053 103.74373190770145 C -82.8098829134312 104.51012125569055 -84.17710757767182 105.33589229574065 -85.777490080839 106.18155628215594 A 136.5 136.5 0 0 1 -87.638 104.651C -87.11701995983145 102.91773646559244 -86.57053571044834 101.41688468801097 -86.04081913629706 100.13854833923135 C -85.82338623000868 99.61385251997132 -85.60883836810466 99.12684434552853 -85.40004664078721 98.67666106732493 A 1.125 1.125 0 0 0 -85.7494 97.3761A 129.75 129.75 0 0 1 -86.0668 97.0957A 1.125 1.125 0 0 0 -87.4005 96.9092C -87.82156688683807 97.17189339608207 -88.2784239438108 97.44482081595027 -88.77232585845746 97.72525560372507 C -89.97564074058776 98.40846623302289 -91.39770871214894 99.1357376935885 -93.0537569600529 99.86640583643978 A 136.5 136.5 0 0 1 -94.8017 98.2086C -94.1597236514449 96.51622706968159 -93.50873215851512 95.05766230621498 -92.89016257967842 93.81987591685713 C -92.63625979638653 93.31182459255751 -92.38789331814019 92.8411635260721 -92.14786622594147 92.40682959419367 A 1.125 1.125 0 0 0 -92.4046 91.0848A 129.75 129.75 0 0 1 -92.7015 90.7827A 1.125 1.125 0 0 0 -94.0187 90.5027C -94.45720978083247 90.73499874391754 -94.93218083445818 90.97502008721719 -95.44463402986636 91.21991699206063 C -96.69314445148689 91.81654518167855 -98.16297105926647 92.44169383292598 -99.86643470283788 93.05372598027928 A 136.5 136.5 0 0 1 -101.493 91.2768C -100.73332833620476 89.63387868542327 -99.9810728066002 88.22486743235513 -99.27673190560483 87.03379759194826 C -98.98762417620414 86.54492184875096 -98.70667643091687 86.09295269998117 -98.43660977673647 85.67663194422886 A 1.125 1.125 0 0 0 -98.5995 84.3398A 129.75 129.75 0 0 1 -98.8743 84.0175A 1.125 1.125 0 0 0 -100.168 83.6453C -100.62227160704074 83.84606689211982 -101.11299037542206 84.05198638459206 -101.64144183554941 84.26012534244288 C -102.9289277805416 84.76719872075151 -104.43919042231417 85.2871101035462 -106.1815828913676 85.77745714202958 A 136.5 136.5 0 0 1 -107.679 83.8902C -106.80508464623398 82.30497882627516 -105.95531277916355 80.95254070679283 -105.16870954694886 79.81412126536924 C -104.84583719160462 79.34685665763564 -104.53370784681135 78.91583111414592 -104.23494708913567 78.51959762358334 A 1.125 1.125 0 0 0 -104.303 77.1746A 129.75 129.75 0 0 1 -104.554 76.8338A 1.125 1.125 0 0 0 -105.819 76.3711C -106.28603833755668 76.53941815265088 -106.79006008447341 76.71020991374225 -107.33187709072749 76.88055398678213 C -108.65192436887592 77.29554633971733 -110.19509899212868 77.70763028170252 -111.96773977502828 78.07384932703546 A 136.5 136.5 0 0 1 -113.328 76.0857C -112.34474339701454 74.56603970268078 -111.40168871317515 73.27691249546581 -110.53674196747667 72.19681500141843 C -110.18171352002229 71.75348941792016 -109.8399575884182 71.34555482728692 -109.51399113831383 70.97138261723289 A 1.125 1.125 0 0 0 -109.487 69.625A 129.75 129.75 0 0 1 -109.714 69.2672A 1.125 1.125 0 0 0 -110.943 68.7165C -111.42029337142505 68.85145388199504 -111.93510708588713 68.98626703574287 -112.487590333197 69.11796757836852 C -113.83362253536234 69.43881143490272 -115.40202112174627 69.74101495460786 -117.1960790112782 69.98128152192788 A 136.5 136.5 0 0 1 -118.413 67.9021C -117.32470628730344 66.45561632007329 -116.29306703769288 65.23622239202696 -115.35408589968955 64.21982783674058 C -114.96867009399173 63.802649903234666 -114.59899018643723 63.419838575068724 -114.24744199236201 63.06959175265229 A 1.125 1.125 0 0 0 -114.126 61.7284A 129.75 129.75 0 0 1 -114.327 61.3556A 1.125 1.125 0 0 0 -115.514 60.7195C -115.99945810832793 60.82047513143239 -116.52249901430584 60.91863804548604 -117.08289605892415 61.01103893221882 C -118.44820732038268 61.23613586439768 -120.03401618703327 61.426953399088944 -121.84055327703571 61.54007049244342 A 136.5 136.5 0 0 1 -122.908 59.3802C -121.72016339248094 58.01411439977821 -120.60507915194772 56.87052871011268 -119.5967415784369 55.92290072013554 C -119.18285853665266 55.53394879610203 -118.7870963798517 55.17816787718429 -118.4117178372251 54.853591354456796 A 1.125 1.125 0 0 0 -118.196 53.5243A 129.75 129.75 0 0 1 -118.37 53.1382A 1.125 1.125 0 0 0 -119.509 52.4201C -120.00071937988503 52.48649183312783 -120.52938171389492 52.54751546478721 -121.09490068593423 52.60015635905732 C -122.47268909465859 52.72838494528746 -124.06800782157082 52.806865851605416 -125.87802403513298 52.79226992732523 A 136.5 136.5 0 0 1 -126.79 50.5625C -125.50921676634722 49.28358907974208 -124.31624282848728 48.22150891483915 -123.24357230653926 47.34736852515017 C -122.8032839731638 46.98858034950972 -122.38341123427415 46.661602322481926 -121.98607246011339 46.3643131233529 A 1.125 1.125 0 0 0 -121.677 45.0536A 129.75 129.75 0 0 1 -121.823 44.6562A 1.125 1.125 0 0 0 -122.909 43.8595C -123.40414310371109 43.89102347266128 -123.93579309659746 43.914603805263056 -124.50361660898554 43.92722245278317 C -125.88701809242832 43.95794386469807 -127.48389888195165 43.92369715471515 -129.28837680934416 43.781460928960875 A 136.5 136.5 0 0 1 -130.041 41.4929C -128.67298953558893 40.307535397950424 -127.40806923655225 39.3322519877674 -126.27640975675044 38.535954121817426 C -125.81190962611346 38.20911715921348 -125.37001808999999 37.91257101215877 -124.95269860609122 37.64405021646418 A 1.125 1.125 0 0 0 -124.552 36.3584A 129.75 129.75 0 0 1 -124.67 35.9517A 1.125 1.125 0 0 0 -125.697 35.0804C -126.19277359401136 35.07689224103952 -126.72476259225246 35.06291179855279 -127.29206177681294 35.0354453338557 C -128.6741842983709 34.968506518926546 -130.26467157073748 34.82170280802922 -132.054621393694 34.55253489452286 A 136.5 136.5 0 0 1 -132.644 32.2166C -131.19571994341229 31.130671602336854 -129.86515505250122 30.247043759765006 -128.68014448544977 29.532555533467196 C -128.19374667383704 29.23929806920704 -127.7320378219049 28.97466118011335 -127.29681669292512 28.73624654495032 A 1.125 1.125 0 0 0 -126.806 27.4821A 129.75 129.75 0 0 1 -126.895 27.0681A 1.125 1.125 0 0 0 -127.858 26.1265C -128.35271803395557 26.08800969669412 -128.88239569512203 26.036538128980112 -129.4463442958535 25.96912338861133 C -130.82030219064703 25.80485783264697 -132.39647221826985 25.546228489538485 -134.1629764968097 25.151469869285563 A 136.5 136.5 0 0 1 -134.586 22.7798C -133.0648398738227 21.798716366720726 -131.67525919839434 21.011146281223912 -130.4428012071305 20.382027238981834 C -129.93692892397289 20.123810267001126 -129.45770296649772 19.89240104353826 -129.00674844221922 19.68528033862657 A 1.125 1.125 0 0 0 -128.429 18.4689A 129.75 129.75 0 0 1 -128.488 18.0496A 1.125 1.125 0 0 0 -129.382 17.0424C -129.8732156889924 16.96915800030652 -130.39794318561985 16.880451736126496 -130.9557316389609 16.773424576931475 C -132.31467991787036 16.512650642668916 -133.86868030095562 16.143484145727182 -135.6029383996209 15.625101486316842 A 136.5 136.5 0 0 1 -135.858 13.2295C -134.27103746534644 12.35816102267432 -132.82936382642777 11.670572328802521 -131.5555984546694 11.129956710038977 C -131.03277193023553 10.908066654303411 -130.53841634683164 10.711037965582424 -130.0739750600107 10.536243055855449 A 1.125 1.125 0 0 0 -129.412 9.36365A 129.75 129.75 0 0 1 -129.442 8.94118A 1.125 1.125 0 0 0 -130.262 7.87346C -130.74669151628783 7.765766812336024 -131.26385468238269 7.640267781836062 -131.81270411431638 7.494161407738282 C -133.14987256537344 7.138178257800696 -134.67396135218115 6.660313775943839 -136.3673332843602 6.020889633709823 A 136.5 136.5 0 0 1 -136.452 3.61332C -134.80830350225608 2.856037942047392 -133.32171924539782 2.271856172086709 -132.01299232815472 1.8224372966205848 C -131.47581625789027 1.6379796022264288 -130.9687939032074 1.4763130352636873 -130.49317967697286 1.3347147401692365 A 1.125 1.125 0 0 0 -129.75 0.211763A 129.75 129.75 0 0 1 -129.75 -0.211763A 1.125 1.125 0 0 0 -130.493 -1.33471C -130.9687939032074 -1.4763130352636544 -131.47581625789027 -1.637979602226396 -132.01299232815472 -1.822437296620552 C -133.32171924539782 -2.2718561720866752 -134.80830350225608 -2.856037942047358 -136.45235297416195 -3.613317988192452 A 136.5 136.5 0 0 1 -136.367 -6.02089C -134.67396135218115 -6.660313775943806 -133.14987256537344 -7.1381782578006625 -131.81270411431638 -7.4941614077382495 C -131.26385468238269 -7.6402677818360285 -130.74669151628783 -7.7657668123359915 -130.26227383679063 -7.873463057214368 A 1.125 1.125 0 0 0 -129.442 -8.94118A 129.75 129.75 0 0 1 -129.412 -9.36365A 1.125 1.125 0 0 0 -130.074 -10.5362C -130.53841634683167 -10.711037965582392 -131.03277193023553 -10.908066654303378 -131.5555984546694 -11.129956710038943 C -132.82936382642777 -11.670572328802487 -134.27103746534644 -12.358161022674286 -135.85757390520828 -13.229524241632904 A 136.5 136.5 0 0 1 -135.603 -15.6251C -133.86868030095562 -16.14348414572715 -132.31467991787036 -16.512650642668884 -130.9557316389609 -16.77342457693144 C -130.39794318561985 -16.88045173612646 -129.87321568899242 -16.96915800030649 -129.38240790074488 -17.042415657694093 A 1.125 1.125 0 0 0 -128.488 -18.0496A 129.75 129.75 0 0 1 -128.429 -18.4689A 1.125 1.125 0 0 0 -129.007 -19.6853C -129.45770296649772 -19.892401043538232 -129.93692892397289 -20.123810267001097 -130.4428012071305 -20.382027238981806 C -131.67525919839434 -21.011146281223883 -133.0648398738227 -21.798716366720694 -134.58595923690237 -22.779821670766886 A 136.5 136.5 0 0 1 -134.163 -25.1515C -132.39647221826985 -25.546228489538453 -130.82030219064703 -25.80485783264694 -129.4463442958535 -25.9691233886113 C -128.88239569512203 -26.036538128980084 -128.35271803395557 -26.08800969669409 -127.85796531667037 -26.126463800626787 A 1.125 1.125 0 0 0 -126.895 -27.0681A 129.75 129.75 0 0 1 -126.806 -27.4821A 1.125 1.125 0 0 0 -127.297 -28.7362C -127.73203782190492 -28.974661180113262 -128.19374667383707 -29.239298069206953 -128.6801444854498 -29.53255553346711 C -129.86515505250125 -30.24704375976492 -131.1957199434123 -31.13067160233677 -132.64384408955755 -32.21663117419687 A 136.5 136.5 0 0 1 -132.055 -34.5525C -130.2646715707375 -34.82170280802914 -128.67418429837093 -34.96850651892646 -127.29206177681297 -35.03544533385561 C -126.72476259225249 -35.062911798552705 -126.19277359401138 -35.07689224103944 -125.69654078083923 -35.080351215105736 A 1.125 1.125 0 0 0 -124.67 -35.9517A 129.75 129.75 0 0 1 -124.552 -36.3584A 1.125 1.125 0 0 0 -124.953 -37.644C -125.37001809 -37.91257101215874 -125.81190962611348 -38.20911715921344 -126.27640975675045 -38.53595412181739 C -127.40806923655227 -39.332251987767364 -128.67298953558895 -40.307535397950396 -130.04090398314653 -41.49293904166283 A 136.5 136.5 0 0 1 -129.288 -43.7815C -127.48389888195169 -43.92369715471512 -125.88701809242833 -43.95794386469804 -124.50361660898555 -43.927222452783134 C -123.93579309659748 -43.91460380526302 -123.4041431037111 -43.89102347266125 -122.90890240156592 -43.85947008442635 A 1.125 1.125 0 0 0 -121.823 -44.6562A 129.75 129.75 0 0 1 -121.677 -45.0536A 1.125 1.125 0 0 0 -121.986 -46.3643C -122.38341123427416 -46.6616023224819 -122.80328397316381 -46.98858034950969 -123.24357230653928 -47.347368525150145 C -124.31624282848728 -48.22150891483912 -125.50921676634724 -49.28358907974204 -126.79010663434761 -50.56253117398145 A 136.5 136.5 0 0 1 -125.878 -52.7923C -124.06800782157083 -52.80686585160538 -122.47268909465862 -52.72838494528743 -121.09490068593425 -52.600156359057294 C -120.52938171389494 -52.54751546478718 -120.00071937988504 -52.4864918331278 -119.50893805303357 -52.420083279984695 A 1.125 1.125 0 0 0 -118.37 -53.1382A 129.75 129.75 0 0 1 -118.196 -53.5243A 1.125 1.125 0 0 0 -118.412 -54.8536C -118.78709637985172 -55.178167877184265 -119.18285853665267 -55.53394879610201 -119.59674157843692 -55.922900720135516 C -120.60507915194773 -56.87052871011265 -121.72016339248096 -58.01411439977818 -122.90764735203246 -59.3802233193638 A 136.5 136.5 0 0 1 -121.841 -61.5401C -120.03401618703329 -61.426953399088916 -118.44820732038269 -61.23613586439765 -117.08289605892416 -61.011038932218796 C -116.52249901430585 -60.91863804548602 -115.99945810832794 -60.820475131432374 -115.5135861866032 -60.71954225745237 A 1.125 1.125 0 0 0 -114.327 -61.3556A 129.75 129.75 0 0 1 -114.126 -61.7284A 1.125 1.125 0 0 0 -114.247 -63.0696C -114.59899018643725 -63.419838575068695 -114.96867009399175 -63.80264990323464 -115.35408589968957 -64.21982783674055 C -116.2930670376929 -65.23622239202692 -117.32470628730346 -66.45561632007326 -118.41286835305186 -67.90208617908506 A 136.5 136.5 0 0 1 -117.196 -69.9813C -115.40202112174629 -69.74101495460783 -113.83362253536235 -69.43881143490268 -112.48759033319702 -69.11796757836849 C -111.93510708588714 -68.98626703574284 -111.42029337142506 -68.85145388199501 -110.94275144430098 -68.7164995296792 A 1.125 1.125 0 0 0 -109.714 -69.2672A 129.75 129.75 0 0 1 -109.487 -69.625A 1.125 1.125 0 0 0 -109.514 -70.9714C -109.83995758841823 -71.34555482728685 -110.18171352002233 -71.7534894179201 -110.53674196747671 -72.19681500141836 C -111.40168871317518 -73.27691249546574 -112.3447433970146 -74.5660397026807 -113.32816240028454 -76.08566426104076 A 136.5 136.5 0 0 1 -111.968 -78.0738C -110.19509899212873 -77.70763028170244 -108.65192436887598 -77.29554633971726 -107.33187709072753 -76.88055398678206 C -106.79006008447345 -76.71020991374218 -106.28603833755673 -76.53941815265081 -105.81920549489317 -76.37111465779402 A 1.125 1.125 0 0 0 -104.554 -76.8338A 129.75 129.75 0 0 1 -104.303 -77.1746A 1.125 1.125 0 0 0 -104.235 -78.5196C -104.53370784681137 -78.9158311141459 -104.84583719160463 -79.34685665763563 -105.16870954694888 -79.81412126536922 C -105.95531277916356 -80.95254070679282 -106.805084646234 -82.30497882627515 -107.6788612430187 -83.89018739087314 A 136.5 136.5 0 0 1 -106.182 -85.7775C -104.43919042231418 -85.28711010354618 -102.92892778054161 -84.7671987207515 -101.64144183554943 -84.26012534244286 C -101.11299037542207 -84.05198638459204 -100.62227160704076 -83.84606689211981 -100.16847358657745 -83.64525273426752 A 1.125 1.125 0 0 0 -98.8743 -84.0175A 129.75 129.75 0 0 1 -98.5995 -84.3398A 1.125 1.125 0 0 0 -98.4366 -85.6766C -98.70667643091689 -86.09295269998115 -98.98762417620415 -86.54492184875095 -99.27673190560486 -87.03379759194824 C -99.98107280660021 -88.22486743235511 -100.73332833620478 -89.63387868542326 -101.49310941545133 -91.27677382692877 A 136.5 136.5 0 0 1 -99.8664 -93.0537C -98.16297105926648 -92.44169383292596 -96.6931444514869 -91.81654518167853 -95.44463402986639 -91.21991699206062 C -94.9321808344582 -90.97502008721717 -94.45720978083249 -90.73499874391753 -94.01870738148064 -90.50267436910285 A 1.125 1.125 0 0 0 -92.7015 -90.7827A 129.75 129.75 0 0 1 -92.4046 -91.0848A 1.125 1.125 0 0 0 -92.1479 -92.4068C -92.38789331814021 -92.84116352607207 -92.63625979638655 -93.31182459255749 -92.89016257967845 -93.8198759168571 C -93.50873215851516 -95.05766230621495 -94.15972365144493 -96.51622706968156 -94.80172402203469 -98.20862396713974 A 136.5 136.5 0 0 1 -93.0538 -99.8664C -91.39770871214897 -99.13573769358847 -89.9756407405878 -98.40846623302286 -88.77232585845749 -97.72525560372505 C -88.27842394381082 -97.44482081595024 -87.8215668868381 -97.17189339608204 -87.40054470549396 -96.90921623265406 A 1.125 1.125 0 0 0 -86.0668 -97.0957A 129.75 129.75 0 0 1 -85.7494 -97.3761A 1.125 1.125 0 0 0 -85.4 -98.6767C -85.60883836810476 -99.12684434552845 -85.82338623000877 -99.61385251997125 -86.04081913629716 -100.13854833923126 C -86.57053571044844 -101.4168846880109 -87.11701995983154 -102.91773646559237 -87.63804120821183 -104.65120368279025 A 136.5 136.5 0 0 1 -85.7775 -106.182C -84.1771075776719 -105.33589229574058 -82.8098829134313 -104.51012125569048 -81.6577584250054 -103.74373190770139 C -81.18486838561498 -103.42915634900159 -80.74840136417248 -103.12468256324196 -80.34695691216542 -102.8329612556158 A 1.125 1.125 0 0 0 -79.0034 -102.925A 129.75 129.75 0 0 1 -78.667 -103.182A 1.125 1.125 0 0 0 -78.2268 -104.455C -78.4032844915747 -104.91868021268716 -78.58294487048045 -105.41960924485953 -78.76282465996343 -105.95833555090138 C -79.20104920810242 -107.27085325171542 -79.6403036568974 -108.80651487535103 -80.03775008141695 -110.57241636580856 A 136.5 136.5 0 0 1 -78.0739 -111.968C -76.53714032747993 -111.01126878103166 -75.23157041506362 -110.09111211128105 -74.13637614658984 -109.24536215778178 C -73.68685389684484 -108.89821302776683 -73.27295136767843 -108.56370974920092 -72.8930846210751 -108.24439763825717 A 1.125 1.125 0 0 0 -71.5464 -108.241A 129.75 129.75 0 0 1 -71.1927 -108.474A 1.125 1.125 0 0 0 -70.6638 -109.713C -70.80712939551259 -110.18781649259617 -70.9510072324496 -110.70017077925729 -71.09243775306417 -111.25024366472306 C -71.43698706253538 -112.59040382040772 -71.76682336717353 -114.15322470113459 -72.03871490973754 -115.94276283245387 A 136.5 136.5 0 0 1 -69.9813 -117.196C -68.51586889411153 -116.13359270929205 -67.27845801715101 -115.12363458408433 -66.24565017138495 -114.20273750880074 C -65.82173520852194 -113.82474428697421 -65.43245921321198 -113.46187799410981 -65.07606264903609 -113.1165658767233 A 1.125 1.125 0 0 0 -63.7329 -113.018A 129.75 129.75 0 0 1 -63.3637 -113.226A 1.125 1.125 0 0 0 -62.7487 -114.424C -62.85821674250881 -114.90800261335455 -62.96559524533069 -115.4292296312205 -63.06787189733735 -115.98790866066427 C -63.317029440812384 -117.34903466073602 -63.535804373415246 -118.9312289035387 -63.68078648403522 -120.73548828676597 A 136.5 136.5 0 0 1 -61.5401 -121.841C -60.153254848365535 -120.67734492037185 -58.99016772560616 -119.58261690028438 -58.02489169928362 -118.59116056612298 C -57.628695946324 -118.18420639570238 -57.265985838297986 -117.79478487015784 -56.93483500630495 -117.42519307392763 A 1.125 1.125 0 0 0 -55.602 -117.233A 129.75 129.75 0 0 1 -55.219 -117.413A 1.125 1.125 0 0 0 -54.5211 -118.565C -54.59614761555819 -119.05572284514126 -54.6664918299652 -119.58322586742753 -54.729105076228315 -120.14772773002707 C -54.881629563358565 -121.52303851322026 -54.98825319821663 -123.11672370596786 -55.00560358331029 -124.9267156116129 A 136.5 136.5 0 0 1 -52.7923 -125.878C -51.4909603127656 -124.61988866931317 -50.40799138574791 -123.44584463427552 -49.51505613547716 -122.38876842682134 C -49.14855341973294 -121.95488073301331 -48.81421620250416 -121.54084405324035 -48.509960879481575 -121.14881386590426 A 1.125 1.125 0 0 0 -47.194 -120.863A 129.75 129.75 0 0 1 -46.7992 -121.016A 1.125 1.125 0 0 0 -46.0218 -122.116C -46.06208322745658 -122.61031345439818 -46.09504270211097 -123.14146448758197 -46.1176806065872 -123.70897686345307 C -46.17281216805001 -125.09162070062607 -46.16675331157775 -126.68885718385313 -46.05638553239931 -128.4955643232874 A 136.5 136.5 0 0 1 -43.7815 -129.288C -42.57214040296154 -127.94158240147469 -41.574684968404945 -126.69407137981324 -40.75853905268683 -125.57664159955928 C -40.42355527225219 -125.11798198902912 -40.1192565970192 -124.68139286493974 -39.84341256768187 -124.26887736117133 A 1.125 1.125 0 0 0 -38.5509 -123.891A 129.75 129.75 0 0 1 -38.1463 -124.016A 1.125 1.125 0 0 0 -37.2932 -125.058C -37.298539857708846 -125.55406564951139 -37.2939503901658 -126.08621852586307 -37.27650017195376 -126.65391409689592 C -37.23396414508311 -128.03700272600102 -37.1152529821987 -129.62983314789153 -36.87771688547235 -131.42425459702648 A 136.5 136.5 0 0 1 -34.5526 -132.055C -33.44122823111351 -130.62587760576918 -32.53425556181945 -129.3111146346421 -31.798964978552675 -128.13889826054515 C -31.49716900577155 -127.65775175240125 -31.22442487322769 -127.20078524905054 -30.97836637865438 -126.76983956033945 A 1.125 1.125 0 0 0 -29.7158 -126.301A 129.75 129.75 0 0 1 -29.3034 -126.398A 1.125 1.125 0 0 0 -28.3789 -127.377C -28.349177038563532 -127.87231380512003 -28.307061493319484 -128.40281736577774 -28.249610088528538 -128.96786790119336 C -28.10961838567068 -130.34451084425186 -27.878846329416255 -131.9249998037658 -27.515325308027464 -133.6981958452039 A 136.5 136.5 0 0 1 -25.1515 -134.163C -24.143713542362946 -132.6594012585129 -23.33174213054771 -131.28393642090774 -22.680970060431893 -130.0627733759793 C -22.413865427659875 -129.56153701792286 -22.174034635354026 -129.08646971944438 -21.95898752658759 -128.63924079553453 A 1.125 1.125 0 0 0 -20.7326 -128.083A 129.75 129.75 0 0 1 -20.3144 -128.15A 1.125 1.125 0 0 0 -19.3232 -129.061C -19.258580045419006 -129.5535085255243 -19.17914824000189 -130.07971982843395 -19.08198186864081 -130.63931027488783 C -18.845231921417582 -132.00264916600466 -18.503548666569216 -133.5629227466467 -18.01585376396088 -135.3060594069041 A 136.5 136.5 0 0 1 -15.6251 -135.603C -14.725916087209995 -134.03202244715723 -14.012991133603858 -132.60270823970703 -13.449979690357479 -131.3386822968105 C -13.218897099439271 -130.8198532231644 -13.01317447231484 -130.3290518909426 -12.830210103233956 -129.86776780383659 A 1.125 1.125 0 0 0 -11.6461 -129.226A 129.75 129.75 0 0 1 -11.2242 -129.264A 1.125 1.125 0 0 0 -10.1712 -130.103C -10.0720377752242 -130.5892741831938 -9.955685434893061 -131.10857167011355 -9.819288174936355 -131.65991417614973 C -9.486959459675939 -133.00315692954732 -9.036067255022097 -134.53544192682287 -8.426628142667212 -136.23983498674053 A 136.5 136.5 0 0 1 -6.02093 -136.367C -5.234754858846642 -134.7369028419853 -4.624428119707256 -133.26086003617488 -4.151982198020228 -131.96026850897536 C -3.958072890799979 -131.42643150008658 -3.7874833286371405 -130.9223412816705 -3.6375132185251804 -130.44930012548707 A 1.125 1.125 0 0 0 -2.50162 -129.726A 129.75 129.75 0 0 1 -2.07816 -129.733A 1.125 1.125 0 0 0 -0.968502 -130.496C -0.8353171194722293 -130.9744506457226 -0.682623905733899 -131.48424720269406 -0.5076752814696786 -132.02459500768083 C -0.08142344311486305 -133.34104965552896 0.47643138906143556 -134.83771230265785 1.2045785161608356 -136.49487056174488 A 136.5 136.5 0 0 1 3.61328 -136.452C 4.2824856549072 -134.77053076432668 4.787173562465813 -133.2551129311673 5.166700260776394 -131.92443530123165 C 5.322470237884049 -131.37824990622568 5.457076866467516 -130.86338215372692 5.573305574065701 -130.38094059571145 A 1.125 1.125 0 0 0 6.65534 -129.579A 129.75 129.75 0 0 1 7.07828 -129.557A 1.125 1.125 0 0 0 8.23899 -130.24C 8.405565044151341 -130.7071189833494 8.593838421386721 -131.20487482956926 8.806466824712555 -131.73153594792248 C 9.324518220944206 -133.01464397938526 9.986556475930012 -134.46822797834392 10.82978402541363 -136.06989555751113 A 136.5 136.5 0 0 1 13.2295 -135.858C 13.778391040543983 -134.13273868156375 14.17492578675294 -132.58549555647244 14.45964247876686 -131.2313611928178 C 14.57649708757144 -130.67554847985858 14.67445017912285 -130.15246823852152 14.756358438632487 -129.66302977824847 A 1.125 1.125 0 0 0 15.7791 -128.787A 129.75 129.75 0 0 1 16.1994 -128.735A 1.125 1.125 0 0 0 17.4054 -129.334C 17.60457110553771 -129.78861102896886 17.82748667777519 -130.2718463698492 18.0767355561528 -130.7821970023691 C 18.68400560426404 -132.02556603777603 19.44692904077455 -133.42882970619914 20.401036095406493 -134.9670271781334 A 136.5 136.5 0 0 1 22.7798 -134.586C 23.205653175090895 -132.8267040417709 23.49205924379088 -131.25534391216817 23.680547485270214 -129.8844990440792 C 23.757904561988617 -129.32182804414452 23.818716119133057 -128.79314127341976 23.86589586772537 -128.29914426867873 A 1.125 1.125 0 0 0 24.8243 -127.353A 129.75 129.75 0 0 1 25.2399 -127.271A 1.125 1.125 0 0 0 26.4852 -127.784C 26.715872079213113 -128.22350274300743 26.9723192922848 -128.6898101243874 27.256946900339713 -129.18130772989417 C 27.95041021149746 -130.37874336725423 28.810417983348188 -131.72469571613203 29.870651229775326 -133.19175985840192 A 136.5 136.5 0 0 1 32.2166 -132.644C 32.51730591279931 -130.8589334438281 32.69215644336273 -129.2712847468378 32.78347719536967 -127.89055885449181 C 32.820951350936866 -127.32383276620004 32.84431841355555 -126.79217335698559 32.856534604096275 -126.29607887600538 A 1.125 1.125 0 0 0 33.7459 -125.285A 129.75 129.75 0 0 1 34.1546 -125.174A 1.125 1.125 0 0 0 35.433 -125.598C 35.694075922039055 -126.01959141621839 35.98277716882912 -126.46664771817996 36.301365506135205 -126.93684368032606 C 37.077567281005535 -128.0823803555268 38.03037487273683 -129.36431591796062 39.191452282256805 -130.75293789080484 A 136.5 136.5 0 0 1 41.4929 -130.041C 41.66695906812032 -128.23923022187242 41.72938296399915 -126.6432025434418 41.72308127114078 -125.25947433378178 C 41.72048581119874 -124.69151655799766 41.7062919657611 -124.15953321072692 41.68348373780346 -123.66381277125748 A 1.125 1.125 0 0 0 42.4993 -122.592A 129.75 129.75 0 0 1 42.8992 -122.453A 1.125 1.125 0 0 0 44.2042 -122.785C 44.494453674087836 -123.18785682397174 44.81397065950687 -123.61343483450615 45.16493253499315 -124.05998666065973 C 46.0200057753778 -125.14791736760752 47.06086634749532 -126.35944960510864 48.31700349085789 -127.66271136370835 A 136.5 136.5 0 0 1 50.5625 -126.79C 50.60902952927553 -124.98064560558058 50.55871579776053 -123.38419027532096 50.45482305475368 -122.00435341268381 C 50.41217090975328 -121.43799348647714 50.36048686928332 -120.90833651542664 50.3027678522717 -120.41545977176189 A 1.125 1.125 0 0 0 51.0409 -119.289A 129.75 129.75 0 0 1 51.43 -119.122A 1.125 1.125 0 0 0 52.7553 -119.361C 53.07316229607141 -119.74240652556543 53.421903202570256 -120.14438603643141 53.80349014182698 -120.56506902785682 C 54.73317491585384 -121.58997375049422 55.85690295334419 -122.72506687039733 57.20184181848672 -123.93647563022722 A 136.5 136.5 0 0 1 59.3802 -122.908C 59.29896835102751 -121.09941369959908 59.13616765259822 -119.51048417766167 58.93520144786259 -118.14141293988916 C 58.85270510864475 -117.57947243992355 58.763788360432294 -117.0547805694805 58.6714461076061 -116.56720300876495 A 1.125 1.125 0 0 0 59.3283 -115.392A 129.75 129.75 0 0 1 59.7047 -115.197A 1.125 1.125 0 0 0 61.0435 -115.343C 61.387463093157095 -115.70040558107472 61.763690511081776 -116.07678395056932 62.17400146717197 -116.46950228576429 C 63.173666132061385 -117.42627500031739 64.37466327836702 -118.47927402579606 65.80170344751588 -119.59279460935036 A 136.5 136.5 0 0 1 67.902 -118.413C 67.69348269528336 -116.61487060605171 67.41900609483022 -115.04138285938922 67.12196763188891 -113.68989789052154 C 67.00003809106592 -113.13517637610134 66.87433161387793 -112.6180635947715 66.74782616969578 -112.13821430388671 A 1.125 1.125 0 0 0 67.3201 -110.919A 129.75 129.75 0 0 1 67.6818 -110.699A 1.125 1.125 0 0 0 69.0276 -110.749C 69.39593463699585 -111.08199103588623 69.79777422027507 -111.43089316590505 70.23476504465476 -111.79369034187796 C 71.29942932133093 -112.67756445481 72.57171226908096 -113.64322339768674 74.07374429989571 -114.65330830142997 A 136.5 136.5 0 0 1 76.0856 -113.328C 75.75075151383689 -111.5493580930511 75.3659664399768 -109.99915115846856 74.97433554951066 -108.67198548863887 C 74.81358025392166 -108.12724655444558 74.65171031110425 -107.62028909209397 74.49167191932565 -107.15055865607 A 1.125 1.125 0 0 0 74.9766 -105.894A 129.75 129.75 0 0 1 75.3218 -105.649A 1.125 1.125 0 0 0 76.6678 -105.604C 77.05867912519459 -105.91017159895081 77.48412892923763 -106.2298592766324 77.94562255560105 -106.5609278561018 C 79.06998234019181 -107.36749995104235 80.40721263973829 -108.24100794703787 81.97675348419595 -109.14262497878842 A 136.5 136.5 0 0 1 83.8902 -107.679C 83.43063389872701 -105.92811228913405 82.93745733134264 -104.40890921960177 82.45318509874834 -103.11267472141868 C 82.25440492318974 -102.58063222942127 82.05717794265571 -102.08635572262459 81.86440390649832 -101.62908431486554 A 1.125 1.125 0 0 0 82.2595 -100.342A 129.75 129.75 0 0 1 82.5866 -100.073A 1.125 1.125 0 0 0 83.926 -99.9333C 84.33752115016082 -100.21071301455292 84.78446160544469 -100.49959357196784 85.26815889575914 -100.79728418792408 C 86.44661268437468 -101.52253596326797 87.84212832163003 -102.29954123948501 89.47135860619377 -103.08819858854339 A 136.5 136.5 0 0 1 91.2767 -101.493C 90.69486906222194 -99.77913795813846 90.09575798216446 -98.29850734693063 89.52125702734517 -97.03966179546154 C 89.28544228465263 -96.52296635459254 89.05384084129821 -96.0438332640448 88.82929155131335 -95.60129898770268 A 1.125 1.125 0 0 0 89.1325 -94.2892A 129.75 129.75 0 0 1 89.4398 -93.9977A 1.125 1.125 0 0 0 90.7662 -93.7644C 91.19619788706319 -94.0120096986684 91.66240235872144 -94.26864394741074 92.1658935574173 -94.5314735201794 C 93.39257035256077 -95.17179180806313 94.83941893881672 -95.84842336330014 96.52022192016166 -96.52019197842402 A 136.5 136.5 0 0 1 98.2086 -94.8018C 97.50726695013941 -93.13306898087843 96.80520609867347 -91.6983872552221 96.14333855648785 -90.48320215568255 C 95.87166406384762 -89.98442791663783 95.60684198441368 -89.522825259295 95.35163613386885 -89.09723279787438 A 1.125 1.125 0 0 0 95.5616 -87.767A 129.75 129.75 0 0 1 95.8476 -87.4546A 1.125 1.125 0 0 0 97.1541 -87.1282C 97.60053975340027 -87.34494327941282 98.0836856342059 -87.56805268056443 98.60446237345765 -87.79471180643473 C 99.87325093303934 -88.34690657335706 101.36422434141788 -88.91979346324145 103.0882263436379 -89.47132662698127 A 136.5 136.5 0 0 1 104.651 -87.6381C 103.83388853887577 -86.02301573869131 103.03237554784866 -84.641430410777 102.28643880909887 -83.47595975420724 C 101.98025803516767 -82.99759158515663 101.68353464993298 -82.55581904223827 101.3989436615384 -82.14928867597402 A 1.125 1.125 0 0 0 101.515 -80.8076A 129.75 129.75 0 0 1 101.778 -80.4758A 1.125 1.125 0 0 0 103.058 -80.0581C 103.51864064014218 -80.24272874632327 104.01632092162001 -80.4312017800704 104.55178871790852 -80.62056125467853 C 105.85636800114662 -81.08188149408689 107.38403827712544 -81.54816962495033 109.14265040896542 -81.97671962682728 A 136.5 136.5 0 0 1 110.572 -80.0378C 109.64321491791468 -78.48440015918311 108.74624288473035 -77.16279421761867 107.91995316872712 -76.05284432020477 C 107.58079149071929 -75.59726542730381 107.25364506066346 -75.1775238873969 106.94108675240791 -74.79208093012465 A 1.125 1.125 0 0 0 106.962 -73.4455A 129.75 129.75 0 0 1 107.201 -73.096A 1.125 1.125 0 0 0 108.449 -72.589C 108.92101686636065 -72.74074897495139 109.43075213038243 -72.89364667812036 109.97824331008147 -73.0447631220889 C 111.31211396860918 -73.41291055975569 112.86887033571752 -73.77027690758521 114.65333127999749 -74.07370873304667 A 136.5 136.5 0 0 1 115.943 -72.0388C 114.90630431545374 -70.5547792459671 113.91834190966243 -69.29973686507458 113.01581575020725 -68.25083744137329 C 112.64536285454228 -67.8203174957501 112.28942320672391 -67.42469809009283 111.95045472837695 -67.06226279923733 A 1.125 1.125 0 0 0 111.876 -65.7176A 129.75 129.75 0 0 1 112.09 -65.3521A 1.125 1.125 0 0 0 113.299 -64.7584C 113.78075406544438 -64.8763784511572 114.30000483656522 -64.9929390950818 114.85679182615716 -65.1050596538883 C 116.21330858344946 -65.3782001977974 117.79139535977359 -65.62486438142422 119.59281502183028 -65.80166634837884 A 136.5 136.5 0 0 1 120.735 -63.6808C 119.59693628485579 -62.27365797156096 118.52290548546715 -61.09143170935142 117.548639222488 -60.108808323530376 C 117.14874068685774 -59.70549215389825 116.76578109469791 -59.33596583846933 116.40209117016806 -58.99834384841858 A 1.125 1.125 0 0 0 116.233 -57.6623A 129.75 129.75 0 0 1 116.421 -57.2826A 1.125 1.125 0 0 0 117.585 -56.6051C 118.07364127111988 -56.688797073300165 118.59982066811715 -56.768439958715575 119.16312958282711 -56.84100605337588 C 120.53553434063402 -57.017778931076954 122.12708957723444 -57.15251208194581 123.93649337492566 -57.20180337188762 A 136.5 136.5 0 0 1 124.927 -55.0056C 123.69174233359533 -53.68229246560053 122.53699390802653 -52.578772113844515 121.49584128703847 -51.66732014618441 C 121.06848938583194 -51.29321705341303 120.66041773475537 -50.9516247897282 120.27381824895247 -50.640498116253724 A 1.125 1.125 0 0 0 120.011 -49.3197A 129.75 129.75 0 0 1 120.171 -48.9277A 1.125 1.125 0 0 0 121.284 -48.1698C 121.7782915352672 -48.218794959957066 122.30877815885269 -48.26112331001428 122.87580262200284 -48.29377341989498 C 124.25725812885504 -48.37329795780327 125.85435277760071 -48.39542884213381 127.66272635222211 -48.31696388833575 A 136.5 136.5 0 0 1 128.496 -46.0564C 127.1703223439125 -44.82348447887779 125.94060919073412 -43.804167720459 124.83775718172335 -42.96842797881529 C 124.3850809606159 -42.62540172569489 123.9539302430616 -42.31344530922921 123.54634721517738 -42.03036396976812 A 1.125 1.125 0 0 0 123.191 -40.7314A 129.75 129.75 0 0 1 123.323 -40.3291A 1.125 1.125 0 0 0 124.38 -39.4945C 124.8762484766199 -39.50856923560249 125.40839946911919 -39.513372172590714 125.97631459335635 -39.50594363648675 C 127.359938507408 -39.48782364735458 128.95461592309516 -39.3972420101943 130.75295004846194 -39.191411721109276 A 136.5 136.5 0 0 1 131.424 -36.8778C 130.01534620517378 -35.74136814717102 128.7167946934585 -34.8113331669067 127.55773764965876 -34.055469264633274 C 127.08199231881363 -33.74522879070215 126.62991050596895 -33.46446237263057 126.20337449414627 -33.210836664176625 A 1.125 1.125 0 0 0 125.757 -31.9402A 129.75 129.75 0 0 1 125.861 -31.5295A 1.125 1.125 0 0 0 126.856 -30.6225C 127.35207822952816 -30.60151380665754 127.88324244146462 -30.568767402586293 128.44921890220684 -30.52129722909085 C 129.82811807871656 -30.40562298579263 131.41243365867496 -30.202780100301464 133.19176912463348 -29.870609912076127 A 136.5 136.5 0 0 1 133.698 -27.5154C 132.21264015161142 -26.48119011720048 130.85171959967147 -25.645070302580113 129.64223188497266 -24.972847915616992 C 129.1457875836974 -24.6969388233107 128.6750269244135 -24.44876116780507 128.23166290960785 -24.225854640880037 A 1.125 1.125 0 0 0 127.697 -22.9898A 129.75 129.75 0 0 1 127.771 -22.5729A 1.125 1.125 0 0 0 128.7 -21.5979C 129.19344633470095 -21.542003175230832 129.72097753268912 -21.471870571037996 130.28219566367844 -21.384595254167618 C 131.64950049630957 -21.171943039964862 133.21556126001335 -20.85784945919502 134.96703350677552 -20.400994226998442 A 136.5 136.5 0 0 1 135.306 -18.0159C 133.7512573753115 -17.089084130110475 132.33474782088027 -16.351044987992406 131.0808550422379 -15.765813094457616 C 130.5661850310696 -15.525609948995381 130.07909083127103 -15.311257464651717 129.6211076307023 -15.120180628360194 A 1.125 1.125 0 0 0 129.001 -13.9249A 129.75 129.75 0 0 1 129.045 -13.5038A 1.125 1.125 0 0 0 129.903 -12.4657C 130.391179188862 -12.37517136758067 130.9124492390091 -12.268001960372565 131.46611307974703 -12.141356301365812 C 132.81501172460096 -11.832785538892946 134.3550156361006 -11.409006061264439 136.06989891703478 -10.829741814882901 A 136.5 136.5 0 0 1 136.24 -8.42667C 134.62353256266036 -7.611841185491173 133.15849098508542 -6.97555958975694 131.86643997324998 -6.480233785506021 C 131.33610831229555 -6.276933266875947 130.83510725078418 -6.097473846988991 130.36478651372033 -5.939178636517926 A 1.125 1.125 0 0 0 129.662 -4.79069A 129.75 129.75 0 0 1 129.676 -4.36743A 1.125 1.125 0 0 0 130.459 -3.27141" stroke="#191919" stroke-width="0.35 px" style="stroke-width:0.35;stroke-miterlimit:4;stroke-dasharray:none;fill:none;fill-rule: evenodd "/>
<title>b'InvoluteGear'</title>
</g>
</svg>