<?xml version="1.0"?>
<!DOCTYPE svg PUBLIC "-//W3C//DTD SVG 1.1//EN" "http://www.w3.org/Graphics/SVG/1.1/DTD/svg11.dtd">
<svg width="89.74867741818565mm" height="89.61678240425752mm" viewBox="0 0 89.74867741818565 89.61678240425752" xmlns="http://www.w3.org/2000/svg" version="1.1">
<g id="InvoluteGear" transform="translate(44.874339,44.808391) scale(1,-1)">
<path id="InvoluteGear_w0000"  d="M 39.948329384240225 -2.0324810966523863 C 40.20693866030553 -2.0032321569918827 40.55733052256688 -1.947935248167036 40.99522957535808 -1.844275435282635 C 41.754696958462986 -1.6642715136473893 42.768618939516905 -1.3411118185544157 43.99444971479688 -0.7636802605482751 A 44 44 0 0 1 43.9944 0.76368C 42.768618939516905 1.3411118185544157 41.754696958462986 1.6642715136473893 40.99522957535808 1.844275435282635 C 40.55733052256688 1.947935248167036 40.20693866030553 2.0032321569918827 39.94845519704554 2.0324598222378225 A 0.75 0.75 0 0 0 39.4047 2.74167A 39.5 39.5 0 0 1 39.3732 3.16192A 0.75 0.75 0 0 0 39.8051 3.94421C 40.05642663580804 4.011675545019346 40.394663333866696 4.118578030261435 40.81222172261773 4.286345515866661 C 41.53637829014327 4.577531682285849 42.49081114710319 5.048199180369407 43.616888697468596 5.801881901657306 A 44 44 0 0 1 43.3892 7.31218C 42.09104645783718 7.700464595572301 41.04028469429036 7.868897634091636 40.26247174196258 7.933698320781134 C 39.814013966364165 7.970934872017558 39.45929411509792 7.973390962857406 39.199341541093716 7.9637672180978445 A 0.75 0.75 0 0 0 38.556 8.58402A 39.5 39.5 0 0 1 38.4622 8.99488A 0.75 0.75 0 0 0 38.7726 9.83279C 39.01112023151909 9.936969044449127 39.32964611645974 10.093089081239192 39.717536276760384 10.321216591164246 C 40.39020556762075 10.717080384580226 41.26382884761498 11.324741751501808 42.26499846137781 12.237839609501101 A 44 44 0 0 1 41.8148 13.6973C 40.473229551649915 13.887801718159803 39.40910028707628 13.897745584352192 38.63031682158342 13.845895495835213 C 38.1813181288305 13.815876982400585 37.83019414387974 13.76543739024464 37.57457937007588 13.717177214034747 A 0.75 0.75 0 0 0 36.846 14.2346A 39.5 39.5 0 0 1 36.692 14.6269A 0.75 0.75 0 0 0 36.8741 15.5017C 37.09436986519365 15.640287075772969 37.38606959509492 15.842137200469711 37.73562670173324 16.12552874311223 C 38.34178239552315 16.61722722052532 39.11508079809565 17.34830830547808 39.96897800046741 18.400424202889855 A 44 44 0 0 1 39.3063 19.7765C 37.951307577277376 19.764908299265134 36.897581701026816 19.616140863591585 36.13522445808705 19.448798245165907 C 35.69571473702771 19.352195231046256 35.35603014800132 19.249986693034366 35.11046318605388 19.16416813796313 A 0.75 0.75 0 0 0 34.3129 19.5672A 39.5 39.5 0 0 1 34.1022 19.9322A 0.75 0.75 0 0 0 34.1518 20.8244C 34.348992572680814 20.994226938620443 34.60735005759598 21.23729815298543 34.91076558243541 21.56962322957321 C 35.436867162597736 22.146172659505268 36.09256647927218 22.984342319126494 36.78011661777454 24.151973725371754 A 44 44 0 0 1 35.9197 25.4139C 34.58161610427641 25.20049948949268 33.561832111194775 24.896343970635357 32.83293089185796 24.617246979871254 C 32.41272806339272 24.456217416770343 32.09207086269765 24.30452310274716 31.862037272749358 24.18306321352398 A 0.75 0.75 0 0 0 31.0133 24.4628A 39.5 39.5 0 0 1 30.7505 24.7922A 0.75 0.75 0 0 0 30.6666 25.6819C 30.83631554609589 25.87919046357484 31.055559506734845 26.158052958342246 31.306055648329536 26.53188797581497 C 31.74035087492014 27.18040919672058 32.263803866472514 28.106944105847994 32.76964820715375 29.36400806476404 A 44 44 0 0 1 31.7308 30.4836C 30.43942847190633 30.07315316369683 29.476366651256747 29.62040389334513 28.797203904289848 29.235787095822378 C 28.405694605242346 29.013928118086532 28.11122774487206 28.816136628360038 27.901866097203285 28.66174861820373 A 0.75 0.75 0 0 0 27.0209 28.8118A 39.5 39.5 0 0 1 26.712 29.0985A 0.75 0.75 0 0 0 26.4964 29.9656C 26.634806185688742 30.1860556376479 26.810039074260555 30.494480085491027 27.002020162739697 30.901474187302124 C 27.334807598047803 31.607480306755303 27.714321189626872 32.601683206571856 28.027160005798756 33.92009898655216 A 44 44 0 0 1 26.833 34.8724C 25.61727430711528 34.27402229061365 24.732447868559305 33.682792939321594 24.11819496744691 33.20124803873672 C 23.76412486860823 32.92351560931764 23.502426251631558 32.68404527892773 23.318413339491514 32.500177920866676 A 0.75 0.75 0 0 0 22.4249 32.5173A 39.5 39.5 0 0 1 22.0767 32.7547A 0.75 0.75 0 0 0 21.7343 33.58C 21.83831926778563 33.818614209731315 21.965626671123236 34.1497109181414 22.094804166209403 34.580772528593926 C 22.31864988884491 35.328492536526085 22.54574637394212 36.36815457712071 22.65859136340196 37.718470948257014 A 44 44 0 0 1 21.3359 38.4822C 20.22287256557478 37.70926639567512 19.43604706961807 36.99276405017348 18.90042540914867 36.425047963876565 C 18.591703851443636 36.097646166308444 18.368619392519896 35.8218463667232 18.214065760293607 35.612606953704834 A 0.75 0.75 0 0 0 17.328 35.4963A 39.5 39.5 0 0 1 16.9483 35.6792A 0.75 0.75 0 0 0 16.4867 36.4443C 16.55400038417648 36.69572082394707 16.630538465258468 37.04209363957908 16.69402675517082 37.48759355460339 C 16.803930421583974 38.260324621607445 16.873536839987903 39.32222147098307 16.7838672321419 40.67427459687481 A 44 44 0 0 1 15.3621 41.2323C 14.376725268210311 40.30214780214416 13.705477096242555 39.47637794084694 13.260451579222885 38.83517250808326 C 13.003974892103614 38.465414957508585 12.824487929409182 38.159446600505305 12.702846049848398 37.92950919525873 A 0.75 0.75 0 0 0 11.844 37.6825A 39.5 39.5 0 0 1 11.4413 37.8067A 0.75 0.75 0 0 0 10.8709 38.4945C 10.89989248664702 38.75310567280916 10.923951511217393 39.107017199325725 10.920332372470527 39.557003686986626 C 10.913838916363998 40.337484277925356 10.824400375708647 41.397894915198634 10.534219241421514 42.72148216321394 A 44 44 0 0 1 9.04515 43.0614C 8.209425685177395 41.99474582400779 7.668749412156133 41.07815478107277 7.324261173253881 40.37778347165018 C 7.12575862209565 39.973929940742835 6.993878597783846 39.64462785381948 6.907865749470798 39.39912887801778 A 0.75 0.75 0 0 0 6.09544 39.0269A 39.5 39.5 0 0 1 5.67873 39.0897A 0.75 0.75 0 0 0 5.01214 39.6847C 5.002299002496 39.94481017852013 4.973341531702192 40.29835461724005 4.90269580987527 40.74277572298348 C 4.779950284328366 41.51357119116067 4.533464693819232 42.54880779497076 4.049254200121055 43.81436241315106 A 44 44 0 0 1 2.52616 43.9285C 1.8587410980051895 42.74925061839162 1.4607145384290718 41.76231352309686 1.224458875651635 41.018421474739114 C 1.088364679431727 40.589493384031684 1.0070375753204968 40.2442136316548 0.9585751431545426 39.98863712674254 A 0.75 0.75 0 0 0 0.210713 39.4994A 39.5 39.5 0 0 1 -0.210713 39.4994A 0.75 0.75 0 0 0 -0.958545 39.9885C -1.0070375753205012 40.2442136316548 -1.0883646794317319 40.589493384031684 -1.2244588756516401 41.018421474739114 C -1.460714538429077 41.76231352309686 -1.8587410980051946 42.74925061839162 -2.5261644888189543 43.928502207832814 A 44 44 0 0 1 -4.04925 43.8144C -4.533464693819237 42.54880779497076 -4.779950284328371 41.51357119116067 -4.902695809875275 40.74277572298348 C -4.973341531702197 40.29835461724005 -5.002299002496004 39.94481017852013 -5.0121284478620325 39.684865301289584 A 0.75 0.75 0 0 0 -5.67873 39.0897A 39.5 39.5 0 0 1 -6.09544 39.0269A 0.75 0.75 0 0 0 -6.90782 39.399C -6.993878597783841 39.64462785381948 -7.125758622095645 39.973929940742835 -7.324261173253876 40.37778347165018 C -7.66874941215613 41.07815478107277 -8.20942568517739 41.99474582400779 -9.045152837439908 43.061351852856355 A 44 44 0 0 1 -10.5342 42.7215C -10.824400375708642 41.397894915198634 -10.913838916363995 40.337484277925356 -10.920332372470522 39.557003686986626 C -10.923951511217386 39.107017199325725 -10.899892486647015 38.75310567280916 -10.870869371646313 38.49459916227168 A 0.75 0.75 0 0 0 -11.4413 37.8067A 39.5 39.5 0 0 1 -11.844 37.6825A 0.75 0.75 0 0 0 -12.7028 37.9294C -12.824487929409187 38.159446600505305 -13.003974892103619 38.465414957508585 -13.26045157922289 38.83517250808326 C -13.70547709624256 39.47637794084694 -14.376725268210318 40.30214780214416 -15.362087418337596 41.23228205422902 A 44 44 0 0 1 -16.7839 40.6743C -16.873536839987906 39.32222147098307 -16.803930421583978 38.260324621607445 -16.694026755170825 37.48759355460339 C -16.630538465258475 37.04209363957908 -16.554000384176486 36.69572082394707 -16.486773037238912 36.44442728837892 A 0.75 0.75 0 0 0 -16.9483 35.6792A 39.5 39.5 0 0 1 -17.328 35.4963A 0.75 0.75 0 0 0 -18.214 35.6125C -18.368619392519903 35.82184636672319 -18.591703851443643 36.09764616630844 -18.900425409148678 36.42504796387656 C -19.436047069618077 36.99276405017348 -20.222872565574786 37.70926639567512 -21.33585835139492 38.482151208805284 A 44 44 0 0 1 -22.6586 37.7185C -22.545746373942126 36.36815457712071 -22.318649888844917 35.328492536526085 -22.09480416620941 34.58077252859392 C -21.965626671123243 34.149710918141395 -21.838319267785636 33.81861420973131 -21.734389436751933 33.58014713146701 A 0.75 0.75 0 0 0 -22.0767 32.7547A 39.5 39.5 0 0 1 -22.4249 32.5173A 0.75 0.75 0 0 0 -23.3183 32.5001C -23.50242625163155 32.684045278927734 -23.76412486860822 32.92351560931765 -24.118194967446904 33.20124803873673 C -24.732447868559294 33.6827929393216 -25.61727430711527 34.27402229061366 -26.833021465326684 34.872392695217506 A 44 44 0 0 1 -28.0272 33.9201C -27.71432118962686 32.60168320657186 -27.334807598047792 31.60748030675531 -27.00202016273969 30.90147418730213 C -26.810039074260544 30.494480085491034 -26.634806185688735 30.186055637647907 -26.496495491245316 29.965741977160892 A 0.75 0.75 0 0 0 -26.712 29.0985A 39.5 39.5 0 0 1 -27.0209 28.8118A 0.75 0.75 0 0 0 -27.9018 28.6617C -28.111227744872068 28.816136628360034 -28.40569460524235 29.01392811808653 -28.797203904289855 29.235787095822374 C -29.476366651256754 29.620403893345124 -30.439428471906336 30.073153163696826 -31.73077921995629 30.483642553712837 A 44 44 0 0 1 -32.7696 29.364C -32.26380386647252 28.10694410584799 -31.740350874920146 27.18040919672057 -31.306055648329544 26.531887975814968 C -31.05555950673485 26.158052958342243 -30.836315546095896 25.879190463574837 -30.666713620605083 25.681951663983025 A 0.75 0.75 0 0 0 -30.7505 24.7922A 39.5 39.5 0 0 1 -31.0133 24.4628A 0.75 0.75 0 0 0 -31.8619 24.183C -32.09207086269766 24.304523102747154 -32.41272806339272 24.456217416770333 -32.83293089185797 24.617246979871243 C -33.56183211119478 24.89634397063535 -34.581616104276414 25.200499489492678 -35.919723800346354 25.413938210261197 A 44 44 0 0 1 -36.7801 24.152C -36.092566479272186 22.984342319126483 -35.43686716259774 22.14617265950526 -34.91076558243542 21.5696232295732 C -34.60735005759598 21.23729815298542 -34.34899257268082 20.994226938620436 -34.15188804289934 20.824468988779408 A 0.75 0.75 0 0 0 -34.1022 19.9322A 39.5 39.5 0 0 1 -34.3129 19.5672A 0.75 0.75 0 0 0 -35.1103 19.1641C -35.35603014800132 19.249986693034366 -35.6957147370277 19.352195231046263 -36.135224458087045 19.44879824516591 C -36.89758170102681 19.61614086359159 -37.95130757727737 19.76490829926514 -39.30628110659349 19.776528482461067 A 44 44 0 0 1 -39.969 18.4004C -39.11508079809564 17.34830830547809 -38.34178239552314 16.617227220525322 -37.73562670173323 16.125528743112234 C -37.38606959509491 15.842137200469718 -37.09436986519365 15.640287075772973 -36.87416572061138 15.501802087765608 A 0.75 0.75 0 0 0 -36.692 14.6269A 39.5 39.5 0 0 1 -36.846 14.2346A 0.75 0.75 0 0 0 -37.5745 13.7172C -37.83019414387974 13.765437390244639 -38.1813181288305 13.815876982400583 -38.63031682158342 13.845895495835212 C -39.40910028707628 13.89774558435219 -40.473229551649915 13.8878017181598 -41.81480104459366 13.697343788092313 A 44 44 0 0 1 -42.265 12.2378C -41.26382884761498 11.324741751501808 -40.39020556762075 10.717080384580225 -39.717536276760384 10.321216591164244 C -39.32964611645974 10.09308908123919 -39.01112023151909 9.936969044449125 -38.7727354688496 9.832850544067952 A 0.75 0.75 0 0 0 -38.4622 8.99488A 39.5 39.5 0 0 1 -38.556 8.58402A 0.75 0.75 0 0 0 -39.1992 7.96377C -39.45929411509792 7.973390962857398 -39.814013966364165 7.9709348720175495 -40.26247174196258 7.933698320781126 C -41.04028469429036 7.868897634091627 -42.09104645783718 7.700464595572294 -43.38924742413634 7.312183067676842 A 44 44 0 0 1 -43.6169 5.80188C -42.49081114710319 5.048199180369398 -41.53637829014327 4.57753168228584 -40.81222172261773 4.286345515866653 C -40.394663333866696 4.118578030261428 -40.05642663580804 4.011675545019338 -39.80518637673042 3.9442493675122288 A 0.75 0.75 0 0 0 -39.3732 3.16192A 39.5 39.5 0 0 1 -39.4047 2.74167A 0.75 0.75 0 0 0 -39.9483 2.03248C -40.20693866030553 2.0032321569918876 -40.55733052256688 1.947935248167041 -40.99522957535808 1.84427543528264 C -41.754696958462986 1.6642715136473945 -42.768618939516905 1.341111818554421 -43.99444971479688 0.7636802605482805 A 44 44 0 0 1 -43.9944 -0.76368C -42.768618939516905 -1.3411118185544104 -41.754696958462986 -1.6642715136473842 -40.99522957535808 -1.8442754352826298 C -40.55733052256688 -1.9479352481670311 -40.20693866030553 -2.003232156991878 -39.94845519704554 -2.0324598222378176 A 0.75 0.75 0 0 0 -39.4047 -2.74167A 39.5 39.5 0 0 1 -39.3732 -3.16192A 0.75 0.75 0 0 0 -39.8051 -3.94421C -40.05642663580804 -4.011675545019347 -40.394663333866696 -4.118578030261437 -40.81222172261773 -4.286345515866663 C -41.53637829014327 -4.57753168228585 -42.49081114710319 -5.048199180369409 -43.616888697468596 -5.801881901657307 A 44 44 0 0 1 -43.3892 -7.31218C -42.09104645783718 -7.700464595572303 -41.04028469429036 -7.868897634091637 -40.26247174196258 -7.933698320781136 C -39.814013966364165 -7.970934872017558 -39.45929411509792 -7.9733909628574064 -39.199341541093716 -7.963767218097845 A 0.75 0.75 0 0 0 -38.556 -8.58402A 39.5 39.5 0 0 1 -38.4622 -8.99488A 0.75 0.75 0 0 0 -38.7726 -9.83279C -39.01112023151909 -9.936969044449135 -39.329646116459735 -10.0930890812392 -39.71753627676038 -10.321216591164253 C -40.39020556762075 -10.717080384580234 -41.26382884761498 -11.324741751501817 -42.26499846137781 -12.23783960950111 A 44 44 0 0 1 -41.8148 -13.6973C -40.473229551649915 -13.887801718159809 -39.40910028707628 -13.897745584352199 -38.63031682158341 -13.84589549583522 C -38.18131812883049 -13.815876982400592 -37.83019414387974 -13.765437390244646 -37.574579370075874 -13.717177214034754 A 0.75 0.75 0 0 0 -36.846 -14.2346A 39.5 39.5 0 0 1 -36.692 -14.6269A 0.75 0.75 0 0 0 -36.8741 -15.5017C -37.09436986519365 -15.640287075772966 -37.38606959509492 -15.842137200469708 -37.73562670173324 -16.125528743112227 C -38.34178239552315 -16.617227220525315 -39.11508079809565 -17.348308305478078 -39.96897800046741 -18.400424202889848 A 44 44 0 0 1 -39.3063 -19.7765C -37.951307577277376 -19.76490829926513 -36.897581701026816 -19.616140863591582 -36.13522445808705 -19.448798245165904 C -35.69571473702771 -19.352195231046252 -35.35603014800132 -19.249986693034362 -35.11046318605388 -19.164168137963124 A 0.75 0.75 0 0 0 -34.3129 -19.5672A 39.5 39.5 0 0 1 -34.1022 -19.9322A 0.75 0.75 0 0 0 -34.1518 -20.8244C -34.348992572680814 -20.994226938620443 -34.60735005759598 -21.23729815298543 -34.91076558243541 -21.56962322957321 C -35.436867162597736 -22.146172659505268 -36.09256647927218 -22.984342319126494 -36.78011661777454 -24.151973725371754 A 44 44 0 0 1 -35.9197 -25.4139C -34.58161610427641 -25.20049948949268 -33.561832111194775 -24.896343970635357 -32.83293089185796 -24.617246979871254 C -32.41272806339272 -24.456217416770343 -32.09207086269765 -24.30452310274716 -31.862037272749358 -24.18306321352398 A 0.75 0.75 0 0 0 -31.0133 -24.4628A 39.5 39.5 0 0 1 -30.7505 -24.7922A 0.75 0.75 0 0 0 -30.6666 -25.6819C -30.83631554609589 -25.87919046357484 -31.055559506734845 -26.158052958342246 -31.306055648329536 -26.53188797581497 C -31.74035087492014 -27.18040919672058 -32.263803866472514 -28.106944105847994 -32.76964820715375 -29.36400806476404 A 44 44 0 0 1 -31.7308 -30.4836C -30.43942847190633 -30.07315316369683 -29.476366651256747 -29.62040389334513 -28.797203904289848 -29.235787095822378 C -28.405694605242346 -29.013928118086532 -28.11122774487206 -28.816136628360038 -27.901866097203285 -28.66174861820373 A 0.75 0.75 0 0 0 -27.0209 -28.8118A 39.5 39.5 0 0 1 -26.712 -29.0985A 0.75 0.75 0 0 0 -26.4964 -29.9656C -26.63480618568875 -30.1860556376479 -26.81003907426056 -30.494480085491023 -27.002020162739704 -30.901474187302124 C -27.334807598047806 -31.6074803067553 -27.714321189626876 -32.601683206571856 -28.02716000579876 -33.92009898655216 A 44 44 0 0 1 -26.833 -34.8724C -25.617274307115284 -34.27402229061365 -24.73244786855931 -33.682792939321594 -24.118194967446918 -33.20124803873672 C -23.764124868608235 -32.92351560931764 -23.502426251631565 -32.68404527892773 -23.318413339491517 -32.500177920866676 A 0.75 0.75 0 0 0 -22.4249 -32.5173A 39.5 39.5 0 0 1 -22.0767 -32.7547A 0.75 0.75 0 0 0 -21.7343 -33.58C -21.838319267785618 -33.81861420973132 -21.965626671123225 -34.14971091814141 -22.094804166209393 -34.58077252859393 C -22.3186498888449 -35.32849253652609 -22.54574637394211 -36.36815457712072 -22.65859136340195 -37.71847094825702 A 44 44 0 0 1 -21.3359 -38.4822C -20.222872565574768 -37.70926639567513 -19.43604706961806 -36.992764050173484 -18.90042540914866 -36.42504796387657 C -18.591703851443626 -36.09764616630845 -18.368619392519886 -35.82184636672321 -18.214065760293597 -35.61260695370484 A 0.75 0.75 0 0 0 -17.328 -35.4963A 39.5 39.5 0 0 1 -16.9483 -35.6792A 0.75 0.75 0 0 0 -16.4867 -36.4443C -16.554000384176476 -36.69572082394707 -16.630538465258464 -37.04209363957908 -16.694026755170817 -37.48759355460339 C -16.80393042158397 -38.260324621607445 -16.8735368399879 -39.32222147098307 -16.783867232141898 -40.67427459687481 A 44 44 0 0 1 -15.3621 -41.2323C -14.376725268210308 -40.30214780214416 -13.705477096242552 -39.47637794084694 -13.260451579222881 -38.83517250808326 C -13.00397489210361 -38.465414957508585 -12.824487929409178 -38.159446600505305 -12.702846049848395 -37.92950919525873 A 0.75 0.75 0 0 0 -11.844 -37.6825A 39.5 39.5 0 0 1 -11.4413 -37.8067A 0.75 0.75 0 0 0 -10.8709 -38.4945C -10.899892486647026 -38.753105672809156 -10.923951511217396 -39.10701719932572 -10.920332372470533 -39.55700368698662 C -10.913838916364003 -40.33748427792535 -10.824400375708652 -41.397894915198634 -10.534219241421521 -42.721482163213935 A 44 44 0 0 1 -9.04515 -43.0614C -8.2094256851774 -41.99474582400779 -7.668749412156139 -41.07815478107276 -7.324261173253888 -40.377783471650176 C -7.125758622095655 -39.97392994074283 -6.993878597783851 -39.64462785381947 -6.907865749470803 -39.39912887801777 A 0.75 0.75 0 0 0 -6.09544 -39.0269A 39.5 39.5 0 0 1 -5.67873 -39.0897A 0.75 0.75 0 0 0 -5.01214 -39.6847C -5.002299002495986 -39.94481017852013 -4.97334153170218 -40.29835461724005 -4.902695809875257 -40.74277572298348 C -4.779950284328352 -41.51357119116068 -4.5334646938192185 -42.54880779497076 -4.049254200121041 -43.81436241315106 A 44 44 0 0 1 -2.52616 -43.9285C -1.8587410980051762 -42.74925061839162 -1.4607145384290585 -41.76231352309685 -1.2244588756516221 -41.018421474739114 C -1.088364679431714 -40.589493384031684 -1.0070375753204839 -40.2442136316548 -0.9585751431545302 -39.98863712674254 A 0.75 0.75 0 0 0 -0.210713 -39.4994A 39.5 39.5 0 0 1 0.210713 -39.4994A 0.75 0.75 0 0 0 0.958545 -39.9885C 1.0070375753205048 -40.2442136316548 1.0883646794317354 -40.589493384031684 1.2244588756516441 -41.018421474739114 C 1.460714538429081 -41.76231352309686 1.8587410980051986 -42.74925061839162 2.5261644888189587 -43.928502207832814 A 44 44 0 0 1 4.04925 -43.8144C 4.533464693819241 -42.54880779497076 4.7799502843283745 -41.51357119116067 4.902695809875279 -40.74277572298348 C 4.973341531702201 -40.29835461724005 5.002299002496008 -39.94481017852013 5.012128447862037 -39.684865301289584 A 0.75 0.75 0 0 0 5.67873 -39.0897A 39.5 39.5 0 0 1 6.09544 -39.0269A 0.75 0.75 0 0 0 6.90782 -39.399C 6.993878597783835 -39.64462785381948 7.125758622095639 -39.973929940742835 7.324261173253871 -40.37778347165018 C 7.668749412156123 -41.07815478107277 8.209425685177385 -41.99474582400779 9.0451528374399 -43.061351852856355 A 44 44 0 0 1 10.5342 -42.7215C 10.824400375708636 -41.397894915198634 10.913838916363988 -40.337484277925356 10.920332372470517 -39.557003686986626 C 10.923951511217382 -39.107017199325725 10.89989248664701 -38.75310567280916 10.870869371646307 -38.49459916227168 A 0.75 0.75 0 0 0 11.4413 -37.8067A 39.5 39.5 0 0 1 11.844 -37.6825A 0.75 0.75 0 0 0 12.7028 -37.9294C 12.824487929409198 -38.159446600505305 13.00397489210363 -38.465414957508585 13.2604515792229 -38.83517250808326 C 13.705477096242571 -39.47637794084694 14.37672526821033 -40.302147802144155 15.362087418337607 -41.23228205422901 A 44 44 0 0 1 16.7839 -40.6743C 16.87353683998792 -39.32222147098306 16.80393042158399 -38.260324621607445 16.694026755170835 -37.48759355460338 C 16.630538465258482 -37.04209363957908 16.554000384176497 -36.69572082394707 16.486773037238923 -36.44442728837891 A 0.75 0.75 0 0 0 16.9483 -35.6792A 39.5 39.5 0 0 1 17.328 -35.4963A 0.75 0.75 0 0 0 18.214 -35.6125C 18.3686193925199 -35.82184636672319 18.59170385144364 -36.09764616630844 18.900425409148674 -36.42504796387656 C 19.436047069618073 -36.99276405017348 20.222872565574782 -37.70926639567512 21.335858351394915 -38.482151208805284 A 44 44 0 0 1 22.6586 -37.7185C 22.545746373942123 -36.36815457712071 22.318649888844913 -35.328492536526085 22.094804166209407 -34.58077252859392 C 21.96562667112324 -34.149710918141395 21.838319267785632 -33.81861420973131 21.73438943675193 -33.58014713146701 A 0.75 0.75 0 0 0 22.0767 -32.7547A 39.5 39.5 0 0 1 22.4249 -32.5173A 0.75 0.75 0 0 0 23.3183 -32.5001C 23.50242625163155 -32.684045278927734 23.76412486860822 -32.92351560931765 24.118194967446904 -33.20124803873673 C 24.732447868559294 -33.6827929393216 25.61727430711527 -34.27402229061366 26.833021465326684 -34.872392695217506 A 44 44 0 0 1 28.0272 -33.9201C 27.71432118962686 -32.60168320657186 27.334807598047792 -31.60748030675531 27.00202016273969 -30.90147418730213 C 26.810039074260544 -30.494480085491034 26.634806185688735 -30.186055637647907 26.496495491245316 -29.965741977160892 A 0.75 0.75 0 0 0 26.712 -29.0985A 39.5 39.5 0 0 1 27.0209 -28.8118A 0.75 0.75 0 0 0 27.9018 -28.6617C 28.11122774487208 -28.816136628360027 28.405694605242367 -29.01392811808652 28.79720390428987 -29.235787095822364 C 29.476366651256768 -29.620403893345117 30.43942847190635 -30.073153163696816 31.730779219956304 -30.483642553712826 A 44 44 0 0 1 32.7696 -29.364C 32.263803866472536 -28.10694410584798 31.74035087492016 -27.180409196720564 31.306055648329558 -26.531887975814957 C 31.05555950673486 -26.158052958342232 30.836315546095904 -25.879190463574822 30.666713620605094 -25.681951663983018 A 0.75 0.75 0 0 0 30.7505 -24.7922A 39.5 39.5 0 0 1 31.0133 -24.4628A 0.75 0.75 0 0 0 31.8619 -24.183C 32.09207086269765 -24.304523102747158 32.41272806339272 -24.456217416770336 32.83293089185796 -24.617246979871247 C 33.561832111194775 -24.896343970635353 34.58161610427641 -25.200499489492678 35.91972380034635 -25.4139382102612 A 44 44 0 0 1 36.7801 -24.152C 36.09256647927218 -22.98434231912649 35.436867162597736 -22.146172659505265 34.91076558243541 -21.569623229573203 C 34.60735005759598 -21.237298152985424 34.348992572680814 -20.99422693862044 34.15188804289934 -20.82446898877941 A 0.75 0.75 0 0 0 34.1022 -19.9322A 39.5 39.5 0 0 1 34.3129 -19.5672A 0.75 0.75 0 0 0 35.1103 -19.1641C 35.35603014800131 -19.249986693034373 35.6957147370277 -19.352195231046263 36.135224458087045 -19.448798245165914 C 36.89758170102681 -19.616140863591593 37.95130757727737 -19.76490829926514 39.30628110659349 -19.77652848246107 A 44 44 0 0 1 39.969 -18.4004C 39.11508079809564 -17.34830830547809 38.34178239552314 -16.617227220525326 37.73562670173323 -16.125528743112238 C 37.38606959509491 -15.842137200469718 37.094369865193656 -15.640287075772976 36.87416572061138 -15.501802087765608 A 0.75 0.75 0 0 0 36.692 -14.6269A 39.5 39.5 0 0 1 36.846 -14.2346A 0.75 0.75 0 0 0 37.5745 -13.7172C 37.830194143879744 -13.765437390244628 38.181318128830505 -13.815876982400574 38.63031682158343 -13.8458954958352 C 39.409100287076285 -13.897745584352178 40.47322955164992 -13.887801718159789 41.814801044593665 -13.6973437880923 A 44 44 0 0 1 42.265 -12.2378C 41.26382884761499 -11.324741751501794 40.390205567620754 -10.717080384580212 39.71753627676039 -10.321216591164232 C 39.32964611645975 -10.093089081239178 39.011120231519094 -9.936969044449114 38.77273546884961 -9.832850544067941 A 0.75 0.75 0 0 0 38.4622 -8.99488A 39.5 39.5 0 0 1 38.556 -8.58402A 0.75 0.75 0 0 0 39.1992 -7.96377C 39.45929411509792 -7.973390962857403 39.814013966364165 -7.970934872017555 40.26247174196258 -7.933698320781132 C 41.04028469429036 -7.868897634091633 42.09104645783718 -7.700464595572299 43.38924742413634 -7.312183067676848 A 44 44 0 0 1 43.6169 -5.80188C 42.49081114710319 -5.048199180369405 41.53637829014327 -4.577531682285846 40.81222172261773 -4.2863455158666595 C 40.394663333866696 -4.118578030261434 40.05642663580804 -4.011675545019344 39.80518637673042 -3.944249367512234 A 0.75 0.75 0 0 0 39.3732 -3.16192A 39.5 39.5 0 0 1 39.4047 -2.74167A 0.75 0.75 0 0 0 39.9483 -2.03248" stroke="#191919" stroke-width="0.35 px" style="stroke-width:0.35;stroke-miterlimit:4;stroke-dasharray:none;fill:none;fill-rule: evenodd "/>
<title>b'InvoluteGear'</title>
</g>
</svg>