<?xml version="1.0"?>
<!DOCTYPE svg PUBLIC "-//W3C//DTD SVG 1.1//EN" "http://www.w3.org/Graphics/SVG/1.1/DTD/svg11.dtd">
<svg width="85.66849586917402mm" height="85.66849586917402mm" viewBox="0 0 85.66849586917402 85.66849586917402" xmlns="http://www.w3.org/2000/svg" version="1.1">
<g id="InvoluteGear" transform="translate(42.834248,42.834248) scale(1,-1)">
<path id="InvoluteGear_w0000"  d="M 37.94644705278201 -2.0167191352321088 C 38.191129650581594 -1.9935516311884833 38.54228003555749 -1.9440620813279235 38.995239544013586 -1.8398109590214045 C 39.74308956737843 -1.6673958025216253 40.75799306025531 -1.3482288453119184 41.994360720183344 -0.7601688393450596 A 42 42 0 0 1 41.9944 0.760169C 40.75799306025531 1.3482288453119184 39.74308956737843 1.6673958025216253 38.995239544013586 1.8398109590214045 C 38.54228003555749 1.9440620813279235 38.191129650581594 1.9935516311884833 37.94662342817565 2.0166935897928666 A 0.75 0.75 0 0 0 37.4009 2.72392A 37.5 37.5 0 0 1 37.3666 3.16041A 0.75 0.75 0 0 0 37.7947 3.94424C 38.03279365299175 4.005401233671548 38.371878922770414 4.1092135076725 38.802953279486346 4.283039604058822 C 39.514624355305735 4.570321562210944 40.46710398983989 5.044324929525854 41.59625705979472 5.818555454463512 A 42 42 0 0 1 41.3584 7.32018C 40.04528507350353 7.707584751463108 38.992948014550144 7.864056348826708 38.22733359318701 7.917359270308022 C 37.763642299375356 7.949468409913912 37.40907328708165 7.943416638670114 37.16395714209408 7.928024481261117 A 0.75 0.75 0 0 0 36.5144 8.54118A 37.5 37.5 0 0 1 36.4121 8.96693A 0.75 0.75 0 0 0 36.7124 9.80808C 36.93796405205981 9.905727826994019 37.25663480193981 10.061306622416277 37.65520952559946 10.300427517493631 C 38.31317795008583 10.695502442054233 39.17978051657636 11.31267068344407 40.17391550053151 12.254007602304766 A 42 42 0 0 1 39.7041 13.6999C 38.34652926556056 13.877154341026051 37.28267067142856 13.86707772851699 36.51814382004969 13.799955920150715 C 36.0551383594393 13.759132443474757 35.705881385657534 13.697688365819298 35.466190891071776 13.644141098395973 A 0.75 0.75 0 0 0 34.7287 14.1481A 37.5 37.5 0 0 1 34.5611 14.5526A 0.75 0.75 0 0 0 34.7261 15.4304C 34.93359918609187 15.562142525990058 35.224008684603575 15.765656976553903 35.58026954271676 16.064184720288736 C 36.16833394958726 16.557324555436633 36.92772081675813 17.302460940534417 37.76235881206378 18.387725414257684 A 42 42 0 0 1 37.0721 19.7424C 35.70355464226527 19.705022335078155 34.654370242286426 19.52864563233877 33.90975614929192 19.342751855811393 C 33.45883725295003 19.230000972334697 33.123492183492175 19.114677545380662 32.89512931477207 19.02429367938016 A 0.75 0.75 0 0 0 32.0878 19.4067A 37.5 37.5 0 0 1 31.8591 19.78A 0.75 0.75 0 0 0 31.8847 20.6728C 32.06905317019365 20.835365628206276 32.32405057166983 21.08180453271309 32.62922523954782 21.432388381297866 C 33.13290553143141 22.01145038765444 33.76637807435237 22.86620718569318 34.42096752355939 24.06867640114966 A 42 42 0 0 1 33.5273 25.2987C 32.18144001037306 25.047687282020892 31.172764206518245 24.70935346883334 30.466397742110114 24.409265045869038 C 30.0386685297787 24.22736305654153 29.725492673201263 24.060999925797034 29.514080482067612 23.936005011967143 A 0.75 0.75 0 0 0 28.6569 24.1874A 37.5 37.5 0 0 1 28.3726 24.5204A 0.75 0.75 0 0 0 28.2582 25.4062C 28.414860634159748 25.595552880041986 28.6281670562882 25.878848094778977 28.87474112079118 26.272855510340456 C 29.28163501728265 26.923581259512595 29.773595039572143 27.866911521349405 30.232017777983234 29.156976695688027 A 42 42 0 0 1 29.157 30.232C 27.866911521349408 29.77359503957214 26.9235812595126 29.281635017282646 26.27285551034046 28.874741120791178 C 25.87884809477898 28.628167056288195 25.59555288004199 28.414860634159744 25.40629703627734 28.25833246211329 A 0.75 0.75 0 0 0 24.5204 28.3726A 37.5 37.5 0 0 1 24.1874 28.6569A 0.75 0.75 0 0 0 23.9359 29.5139C 24.060999925797038 29.72549267320126 24.227363056541535 30.038668529778697 24.40926504586904 30.46639774211011 C 24.709353468833346 31.172764206518245 25.047687282020895 32.18144001037306 25.29865542039853 33.52733545752077 A 42 42 0 0 1 24.0687 34.421C 22.866207185693185 33.76637807435237 22.011450387654445 33.13290553143141 21.43238838129787 32.629225239547814 C 21.081804532713093 32.32405057166982 20.83536562820628 32.06905317019365 20.67292623878825 31.884845983013637 A 0.75 0.75 0 0 0 19.78 31.8591A 37.5 37.5 0 0 1 19.4067 32.0878A 0.75 0.75 0 0 0 19.0242 32.895C 19.114677545380662 33.123492183492175 19.2300009723347 33.458837252950026 19.342751855811393 33.909756149291916 C 19.528645632338772 34.654370242286426 19.70502233507816 35.70355464226527 19.742356204939977 37.07213994954239 A 42 42 0 0 1 18.3877 37.7624C 17.30246094053442 36.92772081675813 16.557324555436637 36.16833394958726 16.064184720288736 35.580269542716756 C 15.765656976553906 35.22400868460357 15.562142525990058 34.93359918609187 15.430519387791552 34.72624877607527 A 0.75 0.75 0 0 0 14.5526 34.5611A 37.5 37.5 0 0 1 14.1481 34.7287A 0.75 0.75 0 0 0 13.6441 35.466C 13.697688365819301 35.705881385657534 13.759132443474758 36.0551383594393 13.799955920150717 36.51814382004969 C 13.867077728516993 37.28267067142856 13.877154341026053 38.34652926556056 13.699934658592053 39.704105320627704 A 42 42 0 0 1 12.254 40.1739C 11.312670683444072 39.17978051657636 10.695502442054234 38.31317795008583 10.300427517493633 37.65520952559946 C 10.061306622416279 37.25663480193981 9.905727826994022 36.93796405205981 9.808161938509633 36.7125760744578 A 0.75 0.75 0 0 0 8.96693 36.4121A 37.5 37.5 0 0 1 8.54118 36.5144A 0.75 0.75 0 0 0 7.92802 37.1638C 7.943416638670116 37.40907328708165 7.949468409913916 37.763642299375356 7.917359270308023 38.22733359318701 C 7.8640563488267095 38.992948014550144 7.707584751463111 40.04528507350353 7.320175253473222 41.35842384834832 A 42 42 0 0 1 5.81856 41.5963C 5.044324929525857 40.46710398983989 4.570321562210946 39.514624355305735 4.283039604058824 38.802953279486346 C 4.109213507672502 38.371878922770414 4.00540123367155 38.03279365299175 3.944294990878383 37.7949179078327 A 0.75 0.75 0 0 0 3.16041 37.3666A 37.5 37.5 0 0 1 2.72392 37.4009A 0.75 0.75 0 0 0 2.01672 37.9464C 1.9935516311884858 38.191129650581594 1.944062081327926 38.54228003555749 1.839810959021407 38.995239544013586 C 1.6673958025216278 39.74308956737843 1.3482288453119209 40.75799306025531 0.7601688393450622 41.994360720183344 A 42 42 0 0 1 -0.760169 41.9944C -1.348228845311916 40.75799306025531 -1.667395802521623 39.74308956737843 -1.839810959021402 38.995239544013586 C -1.944062081327921 38.54228003555749 -1.9935516311884809 38.191129650581594 -2.0166935897928644 37.94662342817565 A 0.75 0.75 0 0 0 -2.72392 37.4009A 37.5 37.5 0 0 1 -3.16041 37.3666A 0.75 0.75 0 0 0 -3.94424 37.7947C -4.005401233671546 38.03279365299175 -4.109213507672498 38.371878922770414 -4.2830396040588194 38.802953279486346 C -4.570321562210941 39.514624355305735 -5.044324929525852 40.467103989839885 -5.818555454463509 41.59625705979472 A 42 42 0 0 1 -7.32018 41.3584C -7.707584751463107 40.045285073503536 -7.864056348826706 38.992948014550144 -7.917359270308019 38.22733359318701 C -7.94946840991391 37.763642299375356 -7.943416638670112 37.40907328708165 -7.928024481261115 37.16395714209408 A 0.75 0.75 0 0 0 -8.54118 36.5144A 37.5 37.5 0 0 1 -8.96693 36.4121A 0.75 0.75 0 0 0 -9.80808 36.7124C -9.905727826994017 36.93796405205982 -10.061306622416273 37.25663480193981 -10.300427517493628 37.65520952559946 C -10.69550244205423 38.31317795008583 -11.312670683444066 39.17978051657636 -12.254007602304764 40.173915500531514 A 42 42 0 0 1 -13.6999 39.7041C -13.877154341026047 38.34652926556056 -13.867077728516989 37.28267067142856 -13.799955920150712 36.51814382004969 C -13.759132443474753 36.0551383594393 -13.697688365819296 35.70588138565754 -13.64414109839597 35.46619089107178 A 0.75 0.75 0 0 0 -14.1481 34.7287A 37.5 37.5 0 0 1 -14.5526 34.5611A 0.75 0.75 0 0 0 -15.4304 34.7261C -15.562142525990058 34.93359918609187 -15.765656976553903 35.224008684603575 -16.064184720288736 35.58026954271676 C -16.557324555436633 36.16833394958726 -17.302460940534417 36.92772081675813 -18.387725414257684 37.76235881206378 A 42 42 0 0 1 -19.7424 37.0721C -19.705022335078155 35.70355464226527 -19.52864563233877 34.654370242286426 -19.342751855811393 33.90975614929192 C -19.230000972334697 33.45883725295003 -19.114677545380662 33.123492183492175 -19.02429367938016 32.89512931477207 A 0.75 0.75 0 0 0 -19.4067 32.0878A 37.5 37.5 0 0 1 -19.78 31.8591A 0.75 0.75 0 0 0 -20.6728 31.8847C -20.83536562820627 32.06905317019365 -21.081804532713086 32.32405057166983 -21.43238838129786 32.62922523954782 C -22.011450387654435 33.13290553143141 -22.866207185693177 33.76637807435237 -24.068676401149652 34.42096752355939 A 42 42 0 0 1 -25.2987 33.5273C -25.04768728202089 32.18144001037306 -24.709353468833335 31.172764206518245 -24.40926504586903 30.466397742110114 C -24.227363056541527 30.0386685297787 -24.060999925797027 29.725492673201263 -23.93600501196714 29.514080482067612 A 0.75 0.75 0 0 0 -24.1874 28.6569A 37.5 37.5 0 0 1 -24.5204 28.3726A 0.75 0.75 0 0 0 -25.4062 28.2582C -25.595552880041986 28.414860634159748 -25.878848094778977 28.6281670562882 -26.272855510340456 28.87474112079118 C -26.923581259512595 29.28163501728265 -27.866911521349405 29.773595039572143 -29.156976695688027 30.232017777983234 A 42 42 0 0 1 -30.232 29.157C -29.77359503957214 27.866911521349408 -29.281635017282646 26.9235812595126 -28.874741120791178 26.27285551034046 C -28.628167056288195 25.87884809477898 -28.414860634159744 25.59555288004199 -28.25833246211329 25.40629703627734 A 0.75 0.75 0 0 0 -28.3726 24.5204A 37.5 37.5 0 0 1 -28.6569 24.1874A 0.75 0.75 0 0 0 -29.5139 23.9359C -29.72549267320126 24.060999925797038 -30.038668529778697 24.227363056541535 -30.46639774211011 24.40926504586904 C -31.172764206518245 24.709353468833346 -32.18144001037306 25.047687282020895 -33.52733545752077 25.29865542039853 A 42 42 0 0 1 -34.421 24.0687C -33.76637807435237 22.866207185693185 -33.13290553143141 22.011450387654445 -32.629225239547814 21.43238838129787 C -32.32405057166982 21.081804532713093 -32.06905317019365 20.83536562820628 -31.884845983013637 20.67292623878825 A 0.75 0.75 0 0 0 -31.8591 19.78A 37.5 37.5 0 0 1 -32.0878 19.4067A 0.75 0.75 0 0 0 -32.895 19.0242C -33.123492183492175 19.114677545380665 -33.458837252950026 19.2300009723347 -33.909756149291916 19.342751855811397 C -34.654370242286426 19.528645632338772 -35.70355464226527 19.70502233507816 -37.07213994954239 19.74235620493998 A 42 42 0 0 1 -37.7624 18.3877C -36.92772081675813 17.30246094053442 -36.16833394958726 16.557324555436637 -35.580269542716756 16.06418472028874 C -35.22400868460357 15.765656976553906 -34.93359918609187 15.562142525990062 -34.72624877607527 15.430519387791556 A 0.75 0.75 0 0 0 -34.5611 14.5526A 37.5 37.5 0 0 1 -34.7287 14.1481A 0.75 0.75 0 0 0 -35.466 13.6441C -35.705881385657534 13.697688365819303 -36.0551383594393 13.75913244347476 -36.51814382004969 13.799955920150719 C -37.28267067142856 13.867077728516996 -38.34652926556056 13.877154341026054 -39.704105320627704 13.699934658592056 A 42 42 0 0 1 -40.1739 12.254C -39.17978051657636 11.312670683444074 -38.31317795008583 10.695502442054238 -37.65520952559946 10.300427517493635 C -37.25663480193981 10.06130662241628 -36.93796405205981 9.905727826994024 -36.7125760744578 9.808161938509635 A 0.75 0.75 0 0 0 -36.4121 8.96693A 37.5 37.5 0 0 1 -36.5144 8.54118A 0.75 0.75 0 0 0 -37.1638 7.92802C -37.40907328708164 7.943416638670119 -37.76364229937535 7.949468409913917 -38.227333593187005 7.917359270308026 C -38.99294801455014 7.864056348826712 -40.04528507350352 7.707584751463113 -41.358423848348316 7.3201752534732245 A 42 42 0 0 1 -41.5963 5.81856C -40.467103989839885 5.0443249295258585 -39.51462435530573 4.570321562210949 -38.80295327948634 4.2830396040588266 C -38.37187892277041 4.1092135076725045 -38.03279365299174 4.005401233671552 -37.79491790783269 3.9442949908783858 A 0.75 0.75 0 0 0 -37.3666 3.16041A 37.5 37.5 0 0 1 -37.4009 2.72392A 0.75 0.75 0 0 0 -37.9464 2.01672C -38.191129650581594 1.993551631188488 -38.54228003555749 1.9440620813279281 -38.995239544013586 1.8398109590214093 C -39.74308956737843 1.6673958025216302 -40.75799306025531 1.3482288453119233 -41.994360720183344 0.7601688393450647 A 42 42 0 0 1 -41.9944 -0.760169C -40.75799306025531 -1.3482288453119136 -39.74308956737843 -1.6673958025216205 -38.995239544013586 -1.8398109590213996 C -38.54228003555749 -1.9440620813279188 -38.191129650581594 -1.9935516311884787 -37.94662342817565 -2.016693589792862 A 0.75 0.75 0 0 0 -37.4009 -2.72392A 37.5 37.5 0 0 1 -37.3666 -3.16041A 0.75 0.75 0 0 0 -37.7947 -3.94424C -38.03279365299175 -4.005401233671543 -38.371878922770414 -4.109213507672495 -38.802953279486346 -4.283039604058818 C -39.514624355305735 -4.570321562210939 -40.467103989839885 -5.04432492952585 -41.59625705979472 -5.818555454463507 A 42 42 0 0 1 -41.3584 -7.32018C -40.045285073503536 -7.707584751463104 -38.992948014550144 -7.864056348826704 -38.22733359318701 -7.917359270308017 C -37.763642299375356 -7.949468409913909 -37.40907328708165 -7.94341663867011 -37.16395714209408 -7.9280244812611125 A 0.75 0.75 0 0 0 -36.5144 -8.54118A 37.5 37.5 0 0 1 -36.4121 -8.96693A 0.75 0.75 0 0 0 -36.7124 -9.80808C -36.93796405205982 -9.905727826994015 -37.25663480193981 -10.061306622416271 -37.65520952559946 -10.300427517493626 C -38.31317795008583 -10.695502442054229 -39.17978051657636 -11.312670683444065 -40.173915500531514 -12.25400760230476 A 42 42 0 0 1 -39.7041 -13.6999C -38.34652926556056 -13.877154341026046 -37.28267067142856 -13.867077728516987 -36.51814382004969 -13.79995592015071 C -36.0551383594393 -13.759132443474751 -35.70588138565754 -13.697688365819294 -35.46619089107178 -13.644141098395968 A 0.75 0.75 0 0 0 -34.7287 -14.1481A 37.5 37.5 0 0 1 -34.5611 -14.5526A 0.75 0.75 0 0 0 -34.7261 -15.4304C -34.93359918609187 -15.562142525990055 -35.22400868460357 -15.765656976553903 -35.58026954271676 -16.064184720288733 C -36.16833394958726 -16.557324555436633 -36.92772081675813 -17.302460940534413 -37.76235881206378 -18.38772541425768 A 42 42 0 0 1 -37.0721 -19.7424C -35.70355464226527 -19.70502233507815 -34.654370242286426 -19.52864563233877 -33.90975614929192 -19.34275185581139 C -33.45883725295004 -19.230000972334697 -33.123492183492175 -19.11467754538066 -32.89512931477207 -19.024293679380158 A 0.75 0.75 0 0 0 -32.0878 -19.4067A 37.5 37.5 0 0 1 -31.8591 -19.78A 0.75 0.75 0 0 0 -31.8847 -20.6728C -32.06905317019365 -20.83536562820627 -32.32405057166983 -21.081804532713086 -32.62922523954782 -21.43238838129786 C -33.13290553143141 -22.011450387654435 -33.76637807435237 -22.866207185693177 -34.42096752355939 -24.068676401149652 A 42 42 0 0 1 -33.5273 -25.2987C -32.18144001037306 -25.04768728202089 -31.172764206518245 -24.709353468833335 -30.466397742110114 -24.40926504586903 C -30.0386685297787 -24.227363056541527 -29.725492673201263 -24.060999925797027 -29.514080482067612 -23.93600501196714 A 0.75 0.75 0 0 0 -28.6569 -24.1874A 37.5 37.5 0 0 1 -28.3726 -24.5204A 0.75 0.75 0 0 0 -28.2582 -25.4062C -28.41486063415975 -25.595552880041986 -28.628167056288202 -25.878848094778977 -28.87474112079119 -26.272855510340456 C -29.281635017282653 -26.923581259512595 -29.773595039572147 -27.866911521349405 -30.232017777983238 -29.156976695688027 A 42 42 0 0 1 -29.157 -30.232C -27.86691152134941 -29.77359503957214 -26.923581259512602 -29.281635017282646 -26.272855510340467 -28.874741120791178 C -25.878848094778984 -28.628167056288195 -25.595552880041993 -28.414860634159744 -25.406297036277344 -28.25833246211329 A 0.75 0.75 0 0 0 -24.5204 -28.3726A 37.5 37.5 0 0 1 -24.1874 -28.6569A 0.75 0.75 0 0 0 -23.9359 -29.5139C -24.060999925797038 -29.72549267320126 -24.227363056541535 -30.038668529778697 -24.40926504586904 -30.46639774211011 C -24.709353468833346 -31.172764206518245 -25.047687282020895 -32.18144001037306 -25.29865542039853 -33.52733545752077 A 42 42 0 0 1 -24.0687 -34.421C -22.866207185693185 -33.76637807435237 -22.011450387654445 -33.13290553143141 -21.43238838129787 -32.629225239547814 C -21.081804532713093 -32.32405057166982 -20.83536562820628 -32.06905317019365 -20.67292623878825 -31.884845983013637 A 0.75 0.75 0 0 0 -19.78 -31.8591A 37.5 37.5 0 0 1 -19.4067 -32.0878A 0.75 0.75 0 0 0 -19.0242 -32.895C -19.11467754538067 -33.123492183492175 -19.230000972334704 -33.458837252950026 -19.342751855811397 -33.909756149291916 C -19.528645632338776 -34.654370242286426 -19.705022335078162 -35.70355464226527 -19.742356204939984 -37.07213994954239 A 42 42 0 0 1 -18.3877 -37.7624C -17.302460940534424 -36.92772081675813 -16.55732455543664 -36.16833394958726 -16.06418472028874 -35.580269542716756 C -15.76565697655391 -35.22400868460357 -15.562142525990065 -34.93359918609187 -15.430519387791556 -34.72624877607527 A 0.75 0.75 0 0 0 -14.5526 -34.5611A 37.5 37.5 0 0 1 -14.1481 -34.7287A 0.75 0.75 0 0 0 -13.6441 -35.466C -13.697688365819305 -35.705881385657534 -13.759132443474762 -36.0551383594393 -13.79995592015072 -36.51814382004969 C -13.867077728516998 -37.28267067142856 -13.877154341026056 -38.34652926556056 -13.699934658592058 -39.704105320627704 A 42 42 0 0 1 -12.254 -40.1739C -11.312670683444075 -39.17978051657636 -10.69550244205424 -38.31317795008583 -10.300427517493636 -37.65520952559946 C -10.061306622416282 -37.25663480193981 -9.905727826994026 -36.93796405205981 -9.808161938509636 -36.7125760744578 A 0.75 0.75 0 0 0 -8.96693 -36.4121A 37.5 37.5 0 0 1 -8.54118 -36.5144A 0.75 0.75 0 0 0 -7.92802 -37.1638C -7.943416638670121 -37.40907328708164 -7.94946840991392 -37.76364229937535 -7.917359270308029 -38.227333593187005 C -7.864056348826715 -38.99294801455014 -7.707584751463116 -40.04528507350352 -7.320175253473228 -41.358423848348316 A 42 42 0 0 1 -5.81856 -41.5963C -5.044324929525862 -40.467103989839885 -4.570321562210951 -39.51462435530573 -4.283039604058829 -38.80295327948634 C -4.109213507672508 -38.37187892277041 -4.005401233671555 -38.03279365299174 -3.9442949908783884 -37.79491790783269 A 0.75 0.75 0 0 0 -3.16041 -37.3666A 37.5 37.5 0 0 1 -2.72392 -37.4009A 0.75 0.75 0 0 0 -2.01672 -37.9464C -1.9935516311884904 -38.191129650581594 -1.9440620813279306 -38.54228003555749 -1.8398109590214116 -38.995239544013586 C -1.6673958025216327 -39.74308956737843 -1.348228845311926 -40.75799306025531 -0.7601688393450673 -41.994360720183344 A 42 42 0 0 1 0.760169 -41.9944C 1.348228845311911 -40.75799306025531 1.667395802521618 -39.74308956737843 1.8398109590213974 -38.995239544013586 C 1.9440620813279164 -38.54228003555749 1.9935516311884762 -38.191129650581594 2.0166935897928595 -37.94662342817565 A 0.75 0.75 0 0 0 2.72392 -37.4009A 37.5 37.5 0 0 1 3.16041 -37.3666A 0.75 0.75 0 0 0 3.94424 -37.7947C 4.005401233671541 -38.03279365299175 4.109213507672493 -38.371878922770414 4.283039604058814 -38.802953279486346 C 4.570321562210935 -39.514624355305735 5.044324929525846 -40.467103989839885 5.818555454463504 -41.59625705979472 A 42 42 0 0 1 7.32018 -41.3584C 7.7075847514631 -40.045285073503536 7.864056348826701 -38.992948014550144 7.917359270308014 -38.22733359318701 C 7.949468409913905 -37.763642299375356 7.943416638670107 -37.40907328708165 7.92802448126111 -37.16395714209408 A 0.75 0.75 0 0 0 8.54118 -36.5144A 37.5 37.5 0 0 1 8.96693 -36.4121A 0.75 0.75 0 0 0 9.80808 -36.7124C 9.905727826994013 -36.93796405205982 10.06130662241627 -37.25663480193981 10.300427517493624 -37.65520952559946 C 10.695502442054226 -38.31317795008583 11.312670683444063 -39.17978051657636 12.254007602304759 -40.173915500531514 A 42 42 0 0 1 13.6999 -39.7041C 13.877154341026044 -38.34652926556056 13.867077728516984 -37.28267067142856 13.799955920150708 -36.51814382004969 C 13.75913244347475 -36.0551383594393 13.697688365819292 -35.70588138565754 13.644141098395966 -35.46619089107178 A 0.75 0.75 0 0 0 14.1481 -34.7287A 37.5 37.5 0 0 1 14.5526 -34.5611A 0.75 0.75 0 0 0 15.4304 -34.7261C 15.562142525990055 -34.933599186091875 15.765656976553899 -35.22400868460357 16.06418472028873 -35.58026954271676 C 16.55732455543663 -36.168333949587264 17.302460940534413 -36.92772081675814 18.387725414257677 -37.76235881206379 A 42 42 0 0 1 19.7424 -37.0721C 19.70502233507815 -35.703554642265274 19.528645632338765 -34.65437024228643 19.342751855811386 -33.90975614929192 C 19.230000972334693 -33.45883725295004 19.11467754538066 -33.12349218349218 19.024293679380154 -32.89512931477208 A 0.75 0.75 0 0 0 19.4067 -32.0878A 37.5 37.5 0 0 1 19.78 -31.8591A 0.75 0.75 0 0 0 20.6728 -31.8847C 20.835365628206265 -32.069053170193655 21.08180453271308 -32.32405057166983 21.432388381297855 -32.62922523954783 C 22.01145038765443 -33.13290553143142 22.86620718569317 -33.766378074352374 24.06867640114965 -34.4209675235594 A 42 42 0 0 1 25.2987 -33.5273C 25.04768728202088 -32.181440010373066 24.70935346883333 -31.172764206518252 24.409265045869027 -30.46639774211012 C 24.22736305654152 -30.038668529778704 24.060999925797024 -29.72549267320127 23.936005011967136 -29.51408048206762 A 0.75 0.75 0 0 0 24.1874 -28.6569A 37.5 37.5 0 0 1 24.5204 -28.3726A 0.75 0.75 0 0 0 25.4062 -28.2582C 25.595552880041986 -28.41486063415975 25.878848094778977 -28.628167056288202 26.272855510340456 -28.87474112079119 C 26.923581259512595 -29.281635017282653 27.866911521349405 -29.773595039572147 29.156976695688027 -30.232017777983238 A 42 42 0 0 1 30.232 -29.157C 29.77359503957214 -27.86691152134941 29.281635017282646 -26.923581259512602 28.874741120791178 -26.272855510340467 C 28.628167056288195 -25.878848094778984 28.414860634159744 -25.595552880041993 28.25833246211329 -25.406297036277344 A 0.75 0.75 0 0 0 28.3726 -24.5204A 37.5 37.5 0 0 1 28.6569 -24.1874A 0.75 0.75 0 0 0 29.5139 -23.9359C 29.72549267320126 -24.060999925797038 30.038668529778697 -24.227363056541535 30.46639774211011 -24.40926504586904 C 31.172764206518245 -24.709353468833346 32.18144001037306 -25.047687282020895 33.52733545752077 -25.29865542039853 A 42 42 0 0 1 34.421 -24.0687C 33.76637807435237 -22.866207185693185 33.13290553143141 -22.011450387654445 32.629225239547814 -21.43238838129787 C 32.32405057166982 -21.081804532713093 32.06905317019365 -20.83536562820628 31.884845983013637 -20.67292623878825 A 0.75 0.75 0 0 0 31.8591 -19.78A 37.5 37.5 0 0 1 32.0878 -19.4067A 0.75 0.75 0 0 0 32.895 -19.0242C 33.123492183492175 -19.11467754538067 33.458837252950026 -19.230000972334707 33.909756149291916 -19.3427518558114 C 34.654370242286426 -19.52864563233878 35.70355464226527 -19.705022335078166 37.07213994954239 -19.742356204939984 A 42 42 0 0 1 37.7624 -18.3877C 36.92772081675813 -17.302460940534427 36.16833394958726 -16.557324555436644 35.580269542716756 -16.064184720288743 C 35.22400868460357 -15.765656976553913 34.93359918609187 -15.562142525990065 34.72624877607527 -15.43051938779156 A 0.75 0.75 0 0 0 34.5611 -14.5526A 37.5 37.5 0 0 1 34.7287 -14.1481A 0.75 0.75 0 0 0 35.466 -13.6441C 35.705881385657534 -13.697688365819307 36.0551383594393 -13.759132443474764 36.51814382004969 -13.799955920150722 C 37.28267067142856 -13.867077728517 38.34652926556056 -13.87715434102606 39.704105320627704 -13.69993465859206 A 42 42 0 0 1 40.1739 -12.254C 39.17978051657636 -11.312670683444079 38.31317795008583 -10.695502442054241 37.65520952559946 -10.300427517493638 C 37.25663480193981 -10.061306622416284 36.93796405205981 -9.905727826994028 36.7125760744578 -9.808161938509638 A 0.75 0.75 0 0 0 36.4121 -8.96693A 37.5 37.5 0 0 1 36.5144 -8.54118A 0.75 0.75 0 0 0 37.1638 -7.92802C 37.40907328708164 -7.943416638670124 37.76364229937535 -7.949468409913922 38.227333593187005 -7.917359270308031 C 38.99294801455014 -7.8640563488267174 40.04528507350352 -7.707584751463119 41.358423848348316 -7.320175253473231 A 42 42 0 0 1 41.5963 -5.81856C 40.467103989839885 -5.044324929525865 39.51462435530573 -4.570321562210954 38.80295327948634 -4.283039604058832 C 38.37187892277041 -4.10921350767251 38.03279365299174 -4.005401233671558 37.79491790783269 -3.944294990878391 A 0.75 0.75 0 0 0 37.3666 -3.16041A 37.5 37.5 0 0 1 37.4009 -2.72392A 0.75 0.75 0 0 0 37.9464 -2.01672" stroke="#191919" stroke-width="0.35 px" style="stroke-width:0.35;stroke-miterlimit:4;stroke-dasharray:none;fill:none;fill-rule: evenodd "/>
<title>b'InvoluteGear'</title>
</g>
</svg>