<?xml version="1.0"?>
<!DOCTYPE svg PUBLIC "-//W3C//DTD SVG 1.1//EN" "http://www.w3.org/Graphics/SVG/1.1/DTD/svg11.dtd">
<svg width="34.41947824575951mm" height="34.60535286204187mm" viewBox="0 0 34.41947824575951 34.60535286204187" xmlns="http://www.w3.org/2000/svg" version="1.1">
<g id="InvoluteGear" transform="translate(17.092221,17.302676) scale(1,-1)">
<path id="InvoluteGear_w0000"  d="M 13.134218051921064 -1.5787071180528665 L 14.027850584841616 -1.6845572382205145 C 14.114761764739816 -1.6890217408432135 14.376017332081767 -1.6907002647232803 14.813388011053169 -1.5930594669923335 C 15.33530771426991 -1.4741819820909035 16.08234712608698 -1.214897104694925 16.989811728452946 -0.6552359194252335 A 17 17 0 0 1 16.9898 0.655236C 16.08234712608698 1.214897104694925 15.33530771426991 1.4741819820909035 14.813388011053169 1.5930594669923335 C 14.376017332081767 1.6907002647232803 14.114761764739816 1.6890217408432135 14.027850584841616 1.6845572382205145 L 13.134218051921065 1.578707118052861 A 0.75 0.75 0 0 0 12.3065 2.19072A 12.5 12.5 0 0 1 12.1336 3.00419A 0.75 0.75 0 0 0 12.6408 3.89995L 13.500250338414014 4.166721243332063 C 13.581463528838134 4.1979926787980135 13.820815082835514 4.302721483377363 14.18065898961957 4.56981547236968 C 14.609104534601297 4.890699326758853 15.18609833531442 5.431416151347164 15.78747378902088 6.3117911910456135 A 17 17 0 0 1 15.2545 7.50897C 14.197811995222175 7.651143614341556 13.409896873244328 7.584163833714276 12.884747669970398 7.480479952020459 C 12.445475582593685 7.391784577523554 12.207489462932907 7.283988957211846 12.129908026128307 7.244560469562694 L 11.356587207423248 6.784388476509182 A 0.75 0.75 0 0 0 10.3515 7.00684A 12.5 12.5 0 0 1 9.8627 7.67966A 0.75 0.75 0 0 0 9.96172 8.70426L 10.638334162550603 9.297535768438387 C 10.699806865077637 9.359136026708851 10.875868347603696 9.552163598004526 11.095965201638176 9.94252780108873 C 11.356854461351967 10.409934291403458 11.664035180993725 11.138588211954643 11.855338206770348 12.187452263761838 A 17 17 0 0 1 10.8815 13.0643C 9.858346187310723 12.764437884610915 9.165793037746239 12.382774858523037 8.728217402491921 12.07445749531733 C 8.362998041278964 11.814762184615269 8.189431331424728 11.61948830991628 8.134594172942471 11.551913380951781 L 7.615299263406093 10.816987433142677 A 0.75 0.75 0 0 0 6.60665 10.6114A 12.5 12.5 0 0 1 5.88643 11.0272A 0.75 0.75 0 0 0 5.56014 12.0035L 5.936953363750392 12.820721893720934 C 5.968056389651449 12.901999730520172 6.050385170909076 13.149949847854716 6.092678226614273 13.596086747970094 C 6.140901077951091 14.1291970457803 6.1251543794461965 14.919797179818005 5.873306946202774 15.95579212054571 A 17 17 0 0 1 4.62697 16.3608C 3.814282763349749 15.670644883353308 3.336840317406174 15.040291616315168 3.062499052756788 14.580651644671146 C 2.8344821631750414 14.194860076242149 2.7553461240652046 13.945872574098795 2.7327350867868176 13.861835522935865 L 2.557256893924109 12.979230993339998 A 0.75 0.75 0 0 0 1.71943 12.3812A 12.5 12.5 0 0 1 0.892338 12.4681A 0.75 0.75 0 0 0 0.197159 13.2273L 0.20901939282966397 14.127088730977219 C 0.20437474636432973 14.213990469936675 0.17873543214058163 14.473990305466847 0.035911835964719474 14.898758779556951 C -0.13686989016241946 15.405393271216239 -0.4728212595882084 16.12123767318861 -1.1242724426817832 16.96523056586643 A 17 17 0 0 1 -2.42757 16.8282C -2.8893048020654577 15.867255018424444 -3.069082408056026 15.097205316886589 -3.132753205130454 14.56571866359956 C -3.184141431403895 14.120537704431369 -3.1551634596788967 13.86088877594468 -3.1416387219931563 13.774920372182033 L -2.9429584244668963 12.897247602176959 A 0.75 0.75 0 0 0 -3.4651 12.0101A 12.5 12.5 0 0 1 -4.25605 11.7531A 0.75 0.75 0 0 0 -5.19991 12.1639L -5.555055929992884 12.990753586075494 C -5.594645147255465 13.068253127051564 -5.723819286605444 13.295346347189843 -6.027064037371923 13.625300067184051 C -6.390974810842932 14.01785704645467 -6.989041807393518 14.535169716018448 -7.927454912532164 15.041226522067674 A 17 17 0 0 1 -9.06236 14.386C -9.093305318693455 13.320272611323524 -8.94433290342697 12.543675064363766 -8.78632397368124 12.032240600191718 C -8.652198045476316 11.604646082466564 -8.520116617484344 11.379231386208351 -8.472794654848725 11.30619634785498 L -7.934309495329627 10.585212932781376 A 0.75 0.75 0 0 0 -8.05049 9.56241A 12.5 12.5 0 0 1 -8.66852 9.00593A 0.75 0.75 0 0 0 -9.69786 8.9973L -10.358611616420855 9.608199128849972 C -10.426300069159232 9.662896097146666 -10.636673651431616 9.817816221054006 -11.047905784489112 9.995903191229878 C -11.540022126545267 10.206505990127734 -12.296793533248959 10.435838867077281 -13.359908409338779 10.516457767350243 A 17 17 0 0 1 -14.1302 9.45626C -13.724990735633963 8.470094058847055 -13.273026983081905 7.821229437501965 -12.920659505935115 7.418278827536493 C -12.624211014734266 7.082205727943293 -12.411864209297235 6.9300015127248304 -12.338927418957969 6.882528261414525 L -11.55374637351098 6.442898783667319 A 0.75 0.75 0 0 0 -11.2439 5.46127A 12.5 12.5 0 0 1 -11.5821 4.70152A 0.75 0.75 0 0 0 -12.519 4.27497L -13.371069249337415 4.564299754497482 C -13.455152989142837 4.586736547389947 -13.710350510778735 4.642696478237626 -14.158464254394962 4.638123843582422 C -14.693694778758136 4.630357324911714 -15.47831794434347 4.532056671398671 -16.482312371213087 4.173297925638458 A 17 17 0 0 1 -16.7548 2.89146C -15.983500566756916 2.155359295207095 -15.30669411569733 1.7464221872572678 -14.820895629106191 1.5216292526527693 C -14.413383212188037 1.335187663239453 -14.157487721076174 1.2825114206038966 -14.07154753669286 1.268808512769158 L -13.17543554122163 1.1865489029592644 A 0.75 0.75 0 0 0 -12.4931 0.415822A 12.5 12.5 0 0 1 -12.4931 -0.415822A 0.75 0.75 0 0 0 -13.1754 -1.18655L -14.071547536692862 -1.2688085127691484 C -14.157487721076174 -1.282511420603887 -14.413383212188037 -1.3351876632394433 -14.820895629106193 -1.5216292526527588 C -15.306694115697328 -1.7464221872572574 -15.983500566756916 -2.1553592952070844 -16.75477478699755 -2.8914630406376443 A 17 17 0 0 1 -16.4823 -4.1733C -15.478317944343473 -4.53205667139866 -14.693694778758138 -4.630357324911704 -14.158464254394964 -4.638123843582411 C -13.710350510778738 -4.6426964782376166 -13.45515298914284 -4.586736547389937 -13.371069249337417 -4.564299754497473 L -12.518972208780827 -4.274966062528829 A 0.75 0.75 0 0 0 -11.5821 -4.70152A 12.5 12.5 0 0 1 -11.2439 -5.46127A 0.75 0.75 0 0 0 -11.5537 -6.4429L -12.338927418957969 -6.882528261414521 C -12.411864209297235 -6.930001512724827 -12.624211014734268 -7.08220572794329 -12.920659505935117 -7.418278827536489 C -13.273026983081907 -7.8212294375019615 -13.724990735633964 -8.470094058847051 -14.130184429759684 -9.456263779070426 A 17 17 0 0 1 -13.3599 -10.5165C -12.29679353324896 -10.435838867077278 -11.540022126545269 -10.206505990127733 -11.047905784489114 -9.995903191229875 C -10.636673651431618 -9.817816221054002 -10.426300069159236 -9.662896097146662 -10.358611616420855 -9.608199128849968 L -9.697864850149735 -8.997300558958239 A 0.75 0.75 0 0 0 -8.66852 -9.00593A 12.5 12.5 0 0 1 -8.05049 -9.56241A 0.75 0.75 0 0 0 -7.93431 -10.5852L -8.472794654848734 -11.306196347854971 C -8.520116617484353 -11.379231386208343 -8.652198045476325 -11.604646082466555 -8.786323973681249 -12.032240600191713 C -8.94433290342698 -12.54367506436376 -9.093305318693464 -13.320272611323515 -9.062356815920786 -14.385990602642432 A 17 17 0 0 1 -7.92745 -15.0412C -6.989041807393529 -14.535169716018443 -6.390974810842943 -14.017857046454663 -6.027064037371932 -13.625300067184046 C -5.723819286605455 -13.295346347189838 -5.594645147255475 -13.068253127051559 -5.5550559299928945 -12.990753586075488 L -5.199908556591443 -12.16392005083423 A 0.75 0.75 0 0 0 -4.25605 -11.7531A 12.5 12.5 0 0 1 -3.4651 -12.0101A 0.75 0.75 0 0 0 -2.94296 -12.8972L -3.1416387219931687 -13.77492037218203 C -3.1551634596789095 -13.860888775944677 -3.1841414314039076 -14.120537704431365 -3.1327532051304674 -14.565718663599556 C -3.0690824080560404 -15.097205316886585 -2.889304802065472 -15.867255018424443 -2.427565379682111 -16.828248958395857 A 17 17 0 0 1 -1.12427 -16.9652C -0.4728212595882231 -16.12123767318861 -0.13686989016243367 -15.405393271216239 0.03591183596470593 -14.898758779556951 C 0.17873543214056853 -14.473990305466847 0.20437474636431707 -14.213990469936675 0.2090193928296511 -14.12708873097722 L 0.1971591660877236 -13.227287260176501 A 0.75 0.75 0 0 0 0.892338 -12.4681A 12.5 12.5 0 0 1 1.71943 -12.3812A 0.75 0.75 0 0 0 2.55726 -12.9792L 2.7327350867868136 -13.861835522935866 C 2.7553461240652015 -13.945872574098795 2.8344821631750388 -14.19486007624215 3.062499052756785 -14.580651644671148 C 3.33684031740617 -15.04029161631517 3.8142827633497456 -15.67064488335331 4.626974164442742 -16.360750189400292 A 17 17 0 0 1 5.87331 -15.9558C 6.125154379446193 -14.919797179818007 6.140901077951089 -14.129197045780302 6.092678226614272 -13.596086747970096 C 6.050385170909072 -13.149949847854717 5.968056389651446 -12.901999730520172 5.936953363750389 -12.820721893720936 L 5.560136277815538 -12.003536336101938 A 0.75 0.75 0 0 0 5.88643 -11.0272A 12.5 12.5 0 0 1 6.60665 -10.6114A 0.75 0.75 0 0 0 7.6153 -10.817L 8.134594172942462 -11.551913380951786 C 8.18943133142472 -11.619488309916287 8.362998041278955 -11.814762184615276 8.728217402491913 -12.074457495317336 C 9.16579303774623 -12.382774858523046 9.858346187310712 -12.764437884610924 10.881467840794768 -13.064329079908068 A 17 17 0 0 1 11.8553 -12.1875C 11.664035180993718 -11.138588211954652 11.356854461351958 -10.409934291403466 11.09596520163817 -9.94252780108874 C 10.87586834760369 -9.552163598004537 10.699806865077631 -9.359136026708862 10.638334162550594 -9.297535768438395 L 9.961715314856713 -8.70426493081117 A 0.75 0.75 0 0 0 9.8627 -7.67966A 12.5 12.5 0 0 1 10.3515 -7.00684A 0.75 0.75 0 0 0 11.3566 -6.78439L 12.129908026128302 -7.244560469562704 C 12.207489462932902 -7.2839889572118555 12.445475582593682 -7.391784577523564 12.884747669970393 -7.4804799520204694 C 13.409896873244323 -7.584163833714287 14.197811995222168 -7.651143614341569 15.254456872441462 -7.508966786796018 A 17 17 0 0 1 15.7875 -6.31179C 15.186098335314416 -5.431416151347177 14.609104534601292 -4.890699326758867 14.180658989619564 -4.569815472369693 C 13.82081508283551 -4.3027214833773755 13.581463528838128 -4.197992678798025 13.50025033841401 -4.166721243332074 L 12.64082327461663 -3.899947043218728 A 0.75 0.75 0 0 0 12.1336 -3.00419A 12.5 12.5 0 0 1 12.3065 -2.19072A 0.75 0.75 0 0 0 13.1342 -1.57871" stroke="#191919" stroke-width="0.35 px" style="stroke-width:0.35;stroke-miterlimit:4;stroke-dasharray:none;fill:none;fill-rule: evenodd "/>
<title>b'InvoluteGear'</title>
</g>
</svg>