<?xml version="1.0"?>
<!DOCTYPE svg PUBLIC "-//W3C//DTD SVG 1.1//EN" "http://www.w3.org/Graphics/SVG/1.1/DTD/svg11.dtd">
<svg width="152.95591116834362mm" height="152.99063390325415mm" viewBox="0 0 152.95591116834362 152.99063390325415" xmlns="http://www.w3.org/2000/svg" version="1.1">
<g id="InvoluteGear" transform="translate(76.460337,76.495317) scale(1,-1)">
<path id="InvoluteGear_w0000"  d="M 70.96732860673997 -2.1536644174491713 C 71.28156051471264 -2.079907855682057 71.62493002929727 -1.990550230322831 71.99623391013971 -1.8824026102295872 C 72.85431902128333 -1.6324451085043457 73.860183835392 -1.282691121212041 74.9960063306733 -0.7949532406476567 A 75 75 0 0 1 74.996 0.794953C 73.860183835392 1.282691121212041 72.85431902128333 1.6324451085043457 71.99623391013971 1.8824026102295872 C 71.62493002929727 1.990550230322831 71.28156051471264 2.079907855682057 70.96733659025097 2.153661777946238 A 0.75 0.75 0 0 0 70.4411 2.8801A 70.5 70.5 0 0 1 70.428 3.18602A 0.75 0.75 0 0 0 70.8898 3.955C 71.19648750750515 4.055496602690196 71.53090431793434 4.174041132965927 71.89153680836854 4.313707472875399 C 72.72495789221077 4.636504789534532 73.69703263961296 5.071433015051888 74.78672222997206 5.655006127512979 A 75 75 0 0 1 74.65 7.23903C 73.47650007145836 7.627318661188653 72.44429226180577 7.889308954102148 71.56789608530609 8.064576043003159 C 71.18866981808138 8.140404256138526 70.83888978709287 8.19991340398657 70.51948882354738 8.246382105707806 A 0.75 0.75 0 0 0 69.9328 8.9249A 70.5 70.5 0 0 1 69.8934 9.22855A 0.75 0.75 0 0 0 70.2873 10.0344C 70.58430061625131 10.160875583109545 70.9072888174628 10.307729356074702 71.2545799207038 10.477880375084666 C 72.05716661912825 10.87112762828199 72.98825439849324 11.388010035610662 74.02374340345195 12.063097808818068 A 75 75 0 0 1 73.7514 13.6295C 72.5488220081611 13.91547620236182 71.49791330844948 14.08776311643011 70.6096945972605 14.18704217630123 C 70.22535360225648 14.229989576918623 69.87175270383625 14.259209662345237 69.54953943419247 14.278049105513949 A 0.75 0.75 0 0 0 68.9067 14.9036A 70.5 70.5 0 0 1 68.8413 15.2028A 0.75 0.75 0 0 0 69.1646 16.0395C 69.44953225850865 16.19102699568912 69.75870055886428 16.365102757388286 70.09007905309015 16.564478716884594 C 70.85588929498206 17.025264441542546 71.73909665815039 17.620274214179915 72.71271867940169 18.381878534453232 A 75 75 0 0 1 72.3067 19.9191C 71.08401784931483 20.100608426329444 70.02218881987628 20.181916409518657 69.12872363457528 20.20447241293528 C 68.74211343804983 20.214221033506504 68.38730960953573 20.2129357212224 68.0646695881096 20.20400642519271 A 0.75 0.75 0 0 0 67.3704 20.772A 70.5 70.5 0 0 1 67.2796 21.0644A 0.75 0.75 0 0 0 67.5297 21.9258C 67.80058386217736 22.101305709134536 68.09364328774977 22.301314663531826 68.4066557625284 22.528439453665882 C 69.13001975679023 23.053352153493833 69.95880774545205 23.722084047258896 70.86335442619102 24.564566262672734 A 75 75 0 0 1 70.3267 26.0612C 69.09293249242182 26.136922778092625 68.028044543889 26.126649854542393 67.13594778811196 26.07231580474688 C 66.7499307166972 26.048793469895962 66.3965508015006 26.017012275903596 66.07587274212892 25.98038035005922 A 0.75 0.75 0 0 0 65.3354 26.4866A 70.5 70.5 0 0 1 65.2197 26.7701A 0.75 0.75 0 0 0 65.3949 27.6498C 65.6496636642676 27.847954087675998 65.92444450560232 28.072415438450047 66.21677352608388 28.325607506739665 C 66.89233573878491 28.910760911758885 67.66056829663958 29.648263869678907 68.48934268971503 30.565386536668925 A 75 75 0 0 1 67.826 32.0103C 66.590307236845 31.979728498111477 65.53024442701735 31.87795072495358 64.64612087302687 31.747128892240802 C 64.263554862064 31.690509753105243 63.91421516144029 31.628467974245677 63.59787325227931 31.564404628549184 A 0.75 0.75 0 0 0 62.8166 32.0051A 70.5 70.5 0 0 1 62.677 32.2776A 0.75 0.75 0 0 0 62.7759 33.1691C 63.01269632538393 33.38842595729417 63.26716420126908 33.635677871135954 63.53664546566284 33.91306267209163 C 64.15940427053866 34.55412451121852 64.86139367250874 35.354938319422644 65.60825982227702 36.339911382635435 A 75 75 0 0 1 64.8232 37.7225C 63.594670644385154 37.58576749705284 62.54728130742326 37.393238401310825 61.67767669668547 37.18689734475966 C 61.30139413107163 37.09760058963633 60.95868103394099 37.00575756153372 60.64901735980782 36.91473709858286 A 0.75 0.75 0 0 0 59.8327 37.2866A 70.5 70.5 0 0 1 59.6702 37.5461A 0.75 0.75 0 0 0 59.6921 38.4429C 59.90920502910974 38.68170160270693 60.14147594842275 38.9499135129522 60.386114311730346 39.24943738655607 C 60.95145902047377 39.941661462221525 61.58200798263157 40.79985717545391 62.24143635342525 41.84538823894121 A 75 75 0 0 1 61.3404 43.1553C 60.128201360291804 42.91353462354901 59.10124000039726 42.63167962328776 58.25259258120216 42.35134701988852 C 57.88537932540348 42.23003377071016 57.55183015963232 42.109069467011544 57.251137362028444 41.99176577046874 A 0.75 0.75 0 0 0 56.4059 42.2921A 70.5 70.5 0 0 1 56.2217 42.5367A 0.75 0.75 0 0 0 56.1664 43.432C 56.3621669391866 43.688591462989834 56.570521249305315 43.97577762249423 56.78850549467625 44.2952229987803 C 57.29225049286046 45.033484326116 57.84669065129983 45.94270816357213 58.41379906617524 47.04105648113901 A 75 75 0 0 1 57.4035 48.2687C 56.2165639103335 47.92358495381712 55.2176337901128 47.554490804846175 54.39622665103652 47.20224213911468 C 54.040801423522296 47.049810556734435 53.71888567043539 46.90062055482271 53.429389973631146 46.757902100216214 A 0.75 0.75 0 0 0 52.5615 46.9845A 70.5 70.5 0 0 1 52.3569 47.2123A 0.75 0.75 0 0 0 52.2249 48.0995C 52.39784308463286 48.37202627737399 52.58073820314193 48.67606046029013 52.77045445148944 49.01306227745649 C 53.20887018739276 49.79189502788976 53.683096661162146 50.745415414386535 54.15368644782932 51.88844919936798 A 75 75 0 0 1 53.0416 53.0247C 51.8887186896282 52.57882582807424 50.92521553819657 52.12522517433789 50.13713009031176 51.70366837215426 C 49.796124335114165 51.52124700667696 49.48822534631896 51.344935857129286 49.21207007516783 51.17785928196422 A 0.75 0.75 0 0 0 48.3279 51.329A 70.5 70.5 0 0 1 48.1045 51.5384A 0.75 0.75 0 0 0 47.8967 52.411C 48.045583932272756 52.697331533083364 48.201665767704085 53.015962776693144 48.361709426301296 53.36802599119205 C 48.731550023203255 54.181663959528265 49.12205180540813 55.17242136373151 49.492638881731466 56.35167799389587 A 75 75 0 0 1 48.287 57.3881C 47.176707550010185 56.844791471612844 46.25576480760073 56.31004261365047 45.50683575983668 55.822298734088314 C 45.1827741642598 55.61123816948033 44.89117151614496 55.40911121836212 44.63040122765632 55.21891349914604 A 0.75 0.75 0 0 0 43.7365 55.2935A 70.5 70.5 0 0 1 43.4959 55.4829A 0.75 0.75 0 0 0 43.2139 56.3344C 43.33761208614886 56.63248418329584 43.46572506320117 56.96335345335082 43.59491122479417 57.32787151231821 C 43.89343851231115 58.1702908077067 44.19732446438061 59.190950008431194 44.46516513330402 60.39769868027432 A 75 75 0 0 1 43.1749 61.3267C 42.11541657336958 60.689898167338235 41.24385257783757 60.07796019860201 40.53962473883673 59.52764032669906 C 40.23490654155501 59.28950318153714 39.96175915810439 59.063056906076476 39.718304504258725 58.85114620017814 A 0.75 0.75 0 0 0 38.8213 58.8486A 70.5 70.5 0 0 1 38.5654 59.0166A 0.75 0.75 0 0 0 38.2111 59.8407C 38.30878372263545 60.14834973457799 38.40797933764942 60.48900739076369 38.50535155309604 60.8632815300246 C 38.73035533963677 61.72824517473889 38.945375596302036 62.77124956835971 39.108486859222026 63.99655593691948 A 75 75 0 0 1 37.7431 64.8112C 36.74231778730748 64.08567809055971 35.926585293542445 63.4010815856719 35.27227251983711 62.79226009721973 C 34.989153747771724 62.52880945560982 34.73648391664653 62.279720384803625 34.51214735052361 62.04766560494847 A 0.75 0.75 0 0 0 33.6187 61.968A 70.5 70.5 0 0 1 33.3492 62.1134A 0.75 0.75 0 0 0 32.9255 62.904C 32.99633052750377 63.21889794848127 33.06587437085133 63.5668218806969 33.13071173033594 63.94808110547125 C 33.28052616658678 64.82918521131002 33.40508879309647 65.88681275821193 33.46226303128998 67.1216050838325 A 75 75 0 0 1 32.0319 67.8158C 31.09719173535407 67.0069900748046 30.34333014134015 66.25480354676817 29.743776735782948 65.59198794305937 C 29.484353501267726 65.30517430137868 29.254031901496212 65.0352866035586 29.05047433254316 64.78480580214786 A 0.75 0.75 0 0 0 28.1672 64.6286A 70.5 70.5 0 0 1 27.8862 64.7504A 0.75 0.75 0 0 0 27.3961 65.5016C 27.439584045546734 65.82139556032024 27.478961238942986 66.17400986149953 27.510783709340558 66.55943146187798 C 27.584299621630958 67.4501526423128 27.61748239987902 68.51457303816983 27.568296315289977 69.74970935048815 A 75 75 0 0 1 26.0836 70.3184C 25.221832955742176 69.4322057482187 24.53542358896848 68.6179981229203 23.99506843520888 67.90609565878597 C 23.761261417107967 67.59804248489023 23.5549932692324 67.30935431414554 23.373721766471224 67.04230196339732 A 0.75 0.75 0 0 0 22.5071 66.8108A 70.5 70.5 0 0 1 22.2167 66.9079A 0.75 0.75 0 0 0 21.6638 67.6142C 21.679684483582207 67.93657458831062 21.688603492064118 68.29126862553655 21.687175470937536 68.67799907483703 C 21.68384857317385 69.57174274188387 21.625405829479774 70.63507539049307 21.470223578669774 71.86141117238888 A 75 75 0 0 1 19.9421 72.3004C 19.159740549268875 71.34336966246435 18.5458653445335 70.47316904829552 18.0687090430763 69.71745040050735 C 17.862249266749835 69.39043841231775 17.681561707970218 69.08508711486154 17.523918342186033 68.8034403769474 A 0.75 0.75 0 0 0 16.6804 68.4983A 70.5 70.5 0 0 1 16.3828 68.5701A 0.75 0.75 0 0 0 15.7712 69.2262C 15.759276122755448 69.54877498696521 15.7376709131047 69.90292272968267 15.703002973022759 70.28809881096363 C 15.622857896392059 71.1782479992051 15.473222320382833 72.2326203576635 15.213192818443382 73.4410762480648 A 75 75 0 0 1 13.653 73.7471C 12.95579612717219 72.72633222857789 12.419000001714952 71.80658128642952 12.00857525087384 71.01264153145304 C 11.830991272271827 70.66909181131874 11.677222050056344 70.34933810132435 11.544373957574862 70.05518219015227 A 0.75 0.75 0 0 0 10.7302 69.6786A 70.5 70.5 0 0 1 10.4275 69.7246A 0.75 0.75 0 0 0 9.76178 70.3257C 9.722191595201378 70.64606058859165 9.670222124831234 70.99704005081897 9.602570935093057 71.37781005513588 C 9.446201045702416 72.25777441141803 9.206480486829934 73.29538027567601 8.843528901217075 74.47700928997179 A 75 75 0 0 1 7.26282 74.6477C 6.655931523384149 73.57085447557584 6.200188727909494 72.60836271963107 5.8595341689447125 71.78207990963705 C 5.712140757713556 71.42453597948843 5.586428325584373 71.09274720155268 5.479359067202868 70.78825994457289 A 0.75 0.75 0 0 0 4.70062 70.3431A 70.5 70.5 0 0 1 4.39505 70.3629A 0.75 0.75 0 0 0 3.68011 70.9046C 3.613127362571988 71.22030747450198 3.531178395258545 71.56552012709771 3.4310448216038854 71.93906496655829 C 3.1996078274053428 72.80232954265963 2.8715770928166515 73.81548684192462 2.408390590084675 74.96154061230864 A 75 75 0 0 1 0.818852 74.9957C 0.3067887313025135 73.87068385621377 -0.06452657398223716 72.87257723868737 -0.3328888539006558 72.0200688825101 C -0.449000448512622 71.65117787251235 -0.5457253596909271 71.30981047466442 -0.6262230806436382 70.99724618899685 A 0.75 0.75 0 0 0 -1.36382 70.4868A 70.5 70.5 0 0 1 -1.66995 70.4802A 0.75 0.75 0 0 0 -2.42881 70.9584C -2.5226872009278516 71.26726412166417 -2.6340089437020238 71.60415413092781 -2.7658835473274817 71.96770821023254 C -3.07067416780156 72.80788169726134 -3.484586453315422 73.7890893693621 -4.044578602354987 74.89108291468736 A 75 75 0 0 1 -5.63117 74.7885C -6.0446254172097555 73.62360053865851 -6.328764143696068 72.59726869173986 -6.522847284139308 71.72484646298203 C -6.606817412509447 71.3473395131096 -6.67383868533558 70.99892086012918 -6.727168891897238 70.68059366238835 A 0.75 0.75 0 0 0 -7.41815 70.1086A 70.5 70.5 0 0 1 -7.72258 70.0758A 0.75 0.75 0 0 0 -8.51975 70.487C -8.639824671002614 70.78658287949138 -8.779695002002066 71.11265602966175 -8.942334282171942 71.46352772160384 C -9.318221965804423 72.27438976901297 -9.814951340496677 73.21638329563963 -10.467603149896355 74.26615784125018 A 75 75 0 0 1 -12.0395 74.0276C -12.351287273961354 72.8314338413464 -12.546145757929718 71.78447536694816 -12.664512835229655 70.89859837455782 C -12.715719811906078 70.51527041418949 -12.752541244324714 70.1623800758823 -12.778309098304533 69.84064674926735 A 0.75 0.75 0 0 0 -13.4176 69.2114A 70.5 70.5 0 0 1 -13.718 69.1525A 0.75 0.75 0 0 0 -14.5476 69.4936C -14.692995902021952 69.78182254372504 -14.860379270252288 70.09466470328127 -15.052579102638683 70.4302562766128 C -15.496780908531479 71.20580354549887 -16.07264976190222 72.10160873615484 -16.813129226007995 73.09139211859875 A 75 75 0 0 1 -18.3587 72.7186C -18.566504521071735 71.50004868934957 -18.670640098481833 70.44021490171767 -18.712414764211132 69.54744186900538 C -18.730479470654274 69.16113092424507 -18.73682844966247 68.80638157721046 -18.734843174884965 68.48362412270707 A 0.75 0.75 0 0 0 -19.3176 67.8018A 70.5 70.5 0 0 1 -19.6119 67.7172A 0.75 0.75 0 0 0 -20.4678 67.9858C -20.63738533200967 68.2604220083565 -20.831042489574795 68.55771700340304 -21.05137989386353 68.87554385552819 C -21.560607107258345 69.61003446525254 -22.211351907796 70.45301909172086 -23.0341767757266 71.37548330112926 A 75 75 0 0 1 -24.542 70.8712C -24.64426186455647 69.63930219252275 -24.656903552026993 68.57443973021759 -24.621776521176262 67.68138043636377 C -24.606565212619902 67.29494661828815 -24.582394732598395 66.94096470257571 -24.552671027343425 66.61957270345414 A 0.75 0.75 0 0 0 -25.0747 65.8901A 70.5 70.5 0 0 1 -25.3606 65.7806A 0.75 0.75 0 0 0 -26.2364 65.9746C -26.428982781385006 66.23364519065838 -26.647479958444993 66.5131919530663 -26.89432363358398 66.81090100516978 C -27.464806114355774 67.49889704423363 -28.185608975232732 68.28281994327429 -29.08468733954709 69.13113537738256 A 75 75 0 0 1 -30.5436 68.4991C -30.5395617154646 67.26297066691052 -30.460615918364446 66.20096339904042 -30.348847259180246 65.31422974260279 C -30.300472554830964 64.93053407199963 -30.245961565557327 64.5799403458659 -30.188719493739193 64.26229327604246 A 0.75 0.75 0 0 0 -30.6461 63.4907A 70.5 70.5 0 0 1 -30.9216 63.357A 0.75 0.75 0 0 0 -31.8108 63.475C -32.02490928893445 63.716497637082085 -32.26662880883578 63.9762265004273 -32.5381512106173 64.25161361884659 C -33.16566530607269 64.88802140528536 -33.951189655093756 65.60707868602435 -34.91986505414233 66.37496471415781 A 75 75 0 0 1 -36.319 65.6198C -36.20875733628394 64.38864763972327 -36.038808541674136 63.33735829653586 -35.85122575020465 62.46351534326588 C -35.77004579944863 62.08539856863702 -35.68559788121573 61.740788705368345 -35.60126124310694 61.42923831261309 A 0.75 0.75 0 0 0 -35.9906 60.6212A 70.5 70.5 0 0 1 -36.2536 60.4643A 0.75 0.75 0 0 0 -37.1496 60.5054C -37.3837345726385 60.7276154274419 -37.646886828626045 60.96560345009135 -37.94107770018463 61.216629764951136 C -38.62097751550873 61.796737558173525 -39.465407605224534 62.44560557208027 -40.496508305262466 63.12737703474628 A 75 75 0 0 1 -41.8256 62.2548C -41.609875986114936 61.03761359301714 -41.35018243541093 60.004825552995634 -41.088174309014754 59.150342930388575 C -40.97479013980503 58.78060449604193 -40.86103051545372 58.44452986649757 -40.75022371001604 58.141382760916564 A 0.75 0.75 0 0 0 -41.0687 57.3028A 70.5 70.5 0 0 1 -41.3172 57.1239A 0.75 0.75 0 0 0 -42.2134 57.0879C -42.46578376498463 57.289127199900115 -42.74842046982393 57.50361240179878 -43.0631017248749 57.72841940209021 C -43.790353519711054 58.24793228695706 -44.68743748517744 58.82180704227552 -45.773329577372046 59.412416342095376 A 75 75 0 0 1 -47.0224 58.4288C -46.70292967215943 57.234678410450314 -46.355414045551846 56.22803807490228 -46.02092040072823 55.39924207333874 C -45.876171469784 55.040619393282135 -45.73394237577201 54.71556817643707 -45.59748577782499 54.423068753138196 A 0.75 0.75 0 0 0 -45.8427 53.5602A 70.5 70.5 0 0 1 -46.0749 53.3606A 0.75 0.75 0 0 0 -46.9647 53.2477C -47.23343115180527 53.42649031827226 -47.53345976221957 53.61588472602706 -47.8663016108478 53.812808019373044 C -48.63552106735007 54.26787970424635 -49.57861721274879 54.76251243306927 -50.71126113196968 55.2575869054231 A 75 75 0 0 1 -51.8712 54.1702C -51.450211206828605 53.00799769358455 -51.017446388431836 52.03495787536192 -50.61294369909804 51.23798461046729 C -50.43790167686081 50.89313280155281 -50.268256127638615 50.58151156289115 -50.10716001409151 50.30182538526797 A 0.75 0.75 0 0 0 -50.2773 49.4211A 70.5 70.5 0 0 1 -50.4914 49.2023A 0.75 0.75 0 0 0 -51.3683 49.0133C -51.65137873990145 49.16830239461217 -51.96657794903003 49.331203798291355 -52.3151161466394 49.49878543352534 C -53.120608233078045 49.88604672686589 -54.10273420450887 50.29777534152583 -55.27374425145536 50.69364962823165 A 75 75 0 0 1 -56.3359 49.5106C -55.816573378567476 48.38886430766204 -55.30176340768584 47.45662905314226 -54.830246470230634 46.6973790361334 C -54.62620730659125 46.36885126050123 -54.430401298451535 46.07296713464734 -54.24585836856647 45.80816490130539 A 0.75 0.75 0 0 0 -54.3396 44.9161A 70.5 70.5 0 0 1 -54.5342 44.6797A 0.75 0.75 0 0 0 -55.3915 44.416C -55.68691759103476 44.546089562497755 -56.01495377421172 44.68129189710268 -56.37660786592991 44.81829115842905 C -57.212409000713826 45.13487491311175 -58.22629348109992 45.46065111899694 -59.426999907084806 45.754394305340206 A 75 75 0 0 1 -60.3835 44.4844C -59.76968916951217 43.41147670017961 -59.1766455190539 42.52694795302673 -58.641605279912966 41.81104240539136 C -58.41007960945197 41.501270967750514 -58.18956282157251 41.223314577251486 -57.98293936663647 40.97535679128028 A 0.75 0.75 0 0 0 -57.9997 40.0785A 70.5 70.5 0 0 1 -58.1732 39.8262A 0.75 0.75 0 0 0 -59.0047 39.4898C -59.31016998746222 39.59407306856803 -59.64861447955708 39.7005753433164 -60.02070690502065 39.80597793613613 C -60.88062910896899 40.04954027680422 -61.91876565234455 40.28695214086534 -63.14027884708003 40.47638945506606 A 75 75 0 0 1 -63.9841 39.1289C -63.28029109342005 38.11268570754835 -62.613404451085444 37.28241220913689 -62.01880216099524 36.61515144507641 C -61.76150411877305 36.326429784771705 -61.517909180299256 36.068459021494384 -61.29073496808141 35.83918147558846 A 0.75 0.75 0 0 0 -61.2303 34.9442A 70.5 70.5 0 0 1 -61.3815 34.678A 0.75 0.75 0 0 0 -62.181 34.2713C -62.494310636105155 34.3489159103859 -62.84065771250977 34.42592961969736 -63.220433629584264 34.49895518009033 C -64.0981103395593 34.66769285638847 -65.15281294616918 34.81498266424711 -66.3860892533313 34.89871157870923 A 75 75 0 0 1 -67.1109 33.4837C -66.32238788189807 32.53172172439385 -65.58659564306384 31.761850529218936 -64.9368335293472 31.148174713976427 C -64.65566806004773 30.88264042516592 -64.39079846267771 30.646565214385603 -64.14475541156403 30.437665399277694 A 0.75 0.75 0 0 0 -64.0076 29.5512A 70.5 70.5 0 0 1 -64.1354 29.2729A 0.75 0.75 0 0 0 -64.897 28.7991C -65.2157652736338 28.849451396431544 -65.56745070177064 28.89640635774707 -65.95209838243795 28.93651423001352 C -66.84103158715108 29.029177967222516 -67.90449160790392 29.085255236673476 -69.14040028119989 29.06265585180849 A 75 75 0 0 1 -69.7409 27.5905C -68.87345691466031 26.709904255439902 -68.07420662763177 26.006135220476366 -67.37409530164686 25.450587795081614 C -67.07114405603369 25.210206800737403 -66.78696080159663 24.99777496071925 -66.52387052825469 24.810799497552797 A 0.75 0.75 0 0 0 -66.311 23.9394A 70.5 70.5 0 0 1 -66.4144 23.6512A 0.75 0.75 0 0 0 -67.1324 23.1136C -67.45438520206513 23.136395637872937 -67.80880522606816 23.152944213087043 -68.195476873477 23.159837452573225 C -69.0890852224909 23.175741200802975 -70.15342917146496 23.140190755362948 -71.38281997548408 23.011430389109563 A 75 75 0 0 1 -71.8546 21.4931C -70.91461096912876 20.690336000351923 -70.05782000339798 20.057879585307518 -69.312542844455 19.564573628529207 C -68.99004876755731 19.351125625431497 -68.68865584944213 19.163909927195647 -68.41046618220855 19.000243116882974 A 0.75 0.75 0 0 0 -68.1235 18.1504A 70.5 70.5 0 0 1 -68.2017 17.8543A 0.75 0.75 0 0 0 -68.8709 17.257C -69.19359646267318 17.252046100724115 -69.54812708068536 17.238065769975755 -69.93395991324283 17.211693341548248 C -70.82562744298743 17.150719355011088 -71.88297528996573 17.023804397740093 -73.09674624532103 16.789836346800765 A 75 75 0 0 1 -73.4362 15.2366C -72.4307380548211 14.517583736428966 -71.52274979093356 13.96112242732365 -70.73782457036779 13.533710203873198 C -70.39817529550021 13.34877548635804 -70.08180412142448 13.188162009433219 -69.79057467926549 13.049015583775903 A 0.75 0.75 0 0 0 -69.4316 12.227A 70.5 70.5 0 0 1 -69.4841 11.9253A 0.75 0.75 0 0 0 -70.0994 11.2727C -70.42052254378092 11.239968450205366 -70.77253893514582 11.195562718972115 -71.15467638155069 11.136119874864093 C -72.0378014976028 10.99871958362342 -73.08032500905973 10.781379748461466 -74.26948978025887 10.443936230427129 A 75 75 0 0 1 -74.4742 8.86726C -73.41061329724106 8.237348361777121 -72.45815016262543 7.76100200345483 -71.63938819214876 7.402647923896283 C -71.28509836370957 7.247595683909195 -70.95609123515766 7.114773554284843 -70.65397817897076 7.001177704735401 A 0.75 0.75 0 0 0 -70.2257 6.21304A 70.5 70.5 0 0 1 -70.252 5.90797A 0.75 0.75 0 0 0 -70.809 5.20484C -71.12607971394748 5.144674005800242 -71.47297567246315 5.07017163857995 -71.84858852076036 4.97809847281197 C -72.71663287373902 4.7652891405519995 -73.73661357034266 4.459133535598106 -74.89236799747181 4.020712864215185 A 75 75 0 0 1 -74.9608 2.43228C -73.84698204292192 1.896126541849291 -72.85709574138939 1.5034218360881137 -72.01055884817163 1.2167790286494642 C -71.64425150409548 1.0927572187273047 -71.30504427473768 0.9887098049807865 -70.99428434389085 0.9015055554655933 A 0.75 0.75 0 0 0 -70.4998 0.1531A 70.5 70.5 0 0 1 -70.4998 -0.1531A 0.75 0.75 0 0 0 -70.9943 -0.901503C -71.30504427473768 -0.9887098049807688 -71.64425150409548 -1.092757218727287 -72.01055884817163 -1.2167790286494464 C -72.85709574138939 -1.5034218360880955 -73.84698204292192 -1.8961265418492728 -74.96076932456552 -2.4322784533197517 A 75 75 0 0 1 -74.8924 -4.02071C -73.73661357034266 -4.459133535598087 -72.71663287373902 -4.765289140551982 -71.84858852076036 -4.978098472811952 C -71.47297567246315 -5.070171638579932 -71.12607971394748 -5.1446740058002245 -70.80897366624333 -5.204841025527842 A 0.75 0.75 0 0 0 -70.252 -5.90797A 70.5 70.5 0 0 1 -70.2257 -6.21304A 0.75 0.75 0 0 0 -70.654 -7.00117C -70.95609123515766 -7.114773554284829 -71.28509836370957 -7.247595683909179 -71.63938819214876 -7.402647923896267 C -72.45815016262543 -7.761002003454814 -73.41061329724106 -8.237348361777105 -74.47418734204568 -8.867262032165664 A 75 75 0 0 1 -74.2695 -10.4439C -73.08032500905973 -10.78137974846145 -72.0378014976028 -10.998719583623405 -71.15467638155069 -11.136119874864077 C -70.77253893514582 -11.195562718972099 -70.42052254378092 -11.239968450205351 -70.09941812145104 -11.272652784581918 A 0.75 0.75 0 0 0 -69.4841 -11.9253A 70.5 70.5 0 0 1 -69.4316 -12.227A 0.75 0.75 0 0 0 -69.7906 -13.049C -70.08180412142448 -13.188162009433203 -70.39817529550021 -13.348775486358022 -70.73782457036779 -13.53371020387318 C -71.52274979093356 -13.961122427323634 -72.4307380548211 -14.51758373642895 -73.43622453267086 -15.236595505307433 A 75 75 0 0 1 -73.0967 -16.7898C -71.88297528996573 -17.02380439774008 -70.82562744298743 -17.15071935501107 -69.93395991324283 -17.211693341548234 C -69.54812708068536 -17.23806576997574 -69.19359646267318 -17.2520461007241 -68.87087101051594 -17.257005766373133 A 0.75 0.75 0 0 0 -68.2017 -17.8543A 70.5 70.5 0 0 1 -68.1235 -18.1504A 0.75 0.75 0 0 0 -68.4105 -19.0002C -68.68865584944213 -19.163909927195633 -68.99004876755733 -19.35112562543148 -69.312542844455 -19.56457362852919 C -70.05782000339798 -20.057879585307504 -70.91461096912877 -20.690336000351905 -71.85456560993043 -21.49312255614362 A 75 75 0 0 1 -71.3828 -23.0114C -70.15342917146498 -23.14019075536293 -69.0890852224909 -23.17574120080296 -68.195476873477 -23.159837452573214 C -67.80880522606817 -23.152944213087032 -67.45438520206513 -23.136395637872923 -67.13242806641661 -23.11359391516519 A 0.75 0.75 0 0 0 -66.4144 -23.6512A 70.5 70.5 0 0 1 -66.311 -23.9394A 0.75 0.75 0 0 0 -66.5239 -24.8108C -66.78696080159665 -24.997774960719237 -67.07114405603369 -25.210206800737385 -67.37409530164686 -25.450587795081596 C -68.07420662763177 -26.00613522047635 -68.87345691466032 -26.70990425543988 -69.74092062311456 -27.590522047356053 A 75 75 0 0 1 -69.1404 -29.0627C -67.90449160790394 -29.08525523667346 -66.84103158715108 -29.0291779672225 -65.95209838243795 -28.9365142300135 C -65.56745070177064 -28.89640635774705 -65.21576527363382 -28.84945139643153 -64.89696011248346 -28.79905710134434 A 0.75 0.75 0 0 0 -64.1354 -29.2729A 70.5 70.5 0 0 1 -64.0076 -29.5512A 0.75 0.75 0 0 0 -64.1447 -30.4377C -64.39079846267771 -30.646565214385596 -64.65566806004774 -30.882640425165913 -64.9368335293472 -31.148174713976413 C -65.58659564306384 -31.761850529218922 -66.32238788189807 -32.53172172439383 -67.11093826020634 -33.48365096640417 A 75 75 0 0 1 -66.3861 -34.8987C -65.15281294616918 -34.8149826642471 -64.0981103395593 -34.667692856388456 -63.22043362958427 -34.49895518009031 C -62.840657712509774 -34.42592961969735 -62.49431063610516 -34.34891591038589 -62.181017771326005 -34.27130214464866 A 0.75 0.75 0 0 0 -61.3815 -34.678A 70.5 70.5 0 0 1 -61.2303 -34.9442A 0.75 0.75 0 0 0 -61.2907 -35.8392C -61.51790918029926 -36.06845902149437 -61.761504118773054 -36.32642978477168 -62.01880216099526 -36.61515144507639 C -62.613404451085444 -37.28241220913688 -63.280291093420054 -38.11268570754834 -63.98408999047088 -39.128878648595716 A 75 75 0 0 1 -63.1403 -40.4764C -61.918765652344554 -40.286952140865324 -60.880629108969 -40.04954027680421 -60.02070690502067 -39.80597793613612 C -59.64861447955709 -39.70057534331638 -59.310169987462224 -39.594073068568015 -59.00470892981357 -39.489814457347585 A 0.75 0.75 0 0 0 -58.1732 -39.8262A 70.5 70.5 0 0 1 -57.9997 -40.0785A 0.75 0.75 0 0 0 -57.9829 -40.9753C -58.189562821572515 -41.22331457725147 -58.41007960945198 -41.5012709677505 -58.64160527991297 -41.81104240539135 C -59.17664551905391 -42.52694795302671 -59.76968916951217 -43.4114767001796 -60.383525904509334 -44.48440980326315 A 75 75 0 0 1 -59.427 -45.7544C -58.22629348109994 -45.46065111899693 -57.21240900071384 -45.13487491311174 -56.37660786592992 -44.818291158429034 C -56.014953774211726 -44.68129189710267 -55.686917591034764 -44.54608956249774 -55.39154986731602 -44.415958000074724 A 0.75 0.75 0 0 0 -54.5342 -44.6797A 70.5 70.5 0 0 1 -54.3396 -44.9161A 0.75 0.75 0 0 0 -54.2459 -45.8082C -54.43040129845154 -46.07296713464732 -54.626207306591255 -46.36885126050121 -54.83024647023064 -46.69737903613338 C -55.30176340768584 -47.456629053142244 -55.81657337856748 -48.388864307662026 -56.33590331908766 -49.51059395147278 A 75 75 0 0 1 -55.2737 -50.6936C -54.10273420450888 -50.29777534152581 -53.12060823307806 -49.88604672686588 -52.315116146639404 -49.49878543352532 C -51.96657794903004 -49.331203798291334 -51.65137873990146 -49.16830239461215 -51.36829114939898 -49.013261329545685 A 0.75 0.75 0 0 0 -50.4914 -49.2023A 70.5 70.5 0 0 1 -50.2773 -49.4211A 0.75 0.75 0 0 0 -50.1072 -50.3018C -50.26825612763864 -50.58151156289113 -50.43790167686083 -50.893132801552795 -50.61294369909806 -51.237984610467265 C -51.017446388431864 -52.034957875361904 -51.450211206828634 -53.007997693584535 -51.87118941568976 -54.17021898429838 A 75 75 0 0 1 -50.7113 -55.2576C -49.57861721274882 -54.762512433069254 -48.6355210673501 -54.26787970424633 -47.86630161084782 -53.81280801937302 C -47.53345976221959 -53.61588472602705 -47.23343115180529 -53.42649031827225 -46.96471957599551 -53.247687620364 A 0.75 0.75 0 0 0 -46.0749 -53.3606A 70.5 70.5 0 0 1 -45.8427 -53.5602A 0.75 0.75 0 0 0 -45.5975 -54.4231C -45.73394237577201 -54.715568176437074 -45.876171469784 -55.04061939328214 -46.02092040072823 -55.399242073338755 C -46.355414045551846 -56.22803807490229 -46.70292967215943 -57.23467841045032 -47.022439373990416 -58.428786668256265 A 75 75 0 0 1 -45.7733 -59.4124C -44.68743748517744 -58.82180704227553 -43.790353519711054 -58.24793228695707 -43.0631017248749 -57.728419402090225 C -42.74842046982393 -57.50361240179879 -42.46578376498463 -57.28912719990012 -42.21343765036094 -57.08788666176783 A 0.75 0.75 0 0 0 -41.3172 -57.1239A 70.5 70.5 0 0 1 -41.0687 -57.3028A 0.75 0.75 0 0 0 -40.7502 -58.1414C -40.86103051545373 -58.444529866497575 -40.97479013980503 -58.78060449604194 -41.088174309014754 -59.15034293038858 C -41.35018243541093 -60.00482555299564 -41.60987598611494 -61.03761359301715 -41.82555164287005 -62.25476805815612 A 75 75 0 0 1 -40.4965 -63.1274C -39.46540760522453 -62.445605572080275 -38.62097751550873 -61.79673755817353 -37.94107770018463 -61.21662976495114 C -37.646886828626045 -60.96560345009136 -37.383734572638495 -60.727615427441904 -37.149622201545434 -60.50542696362206 A 0.75 0.75 0 0 0 -36.2536 -60.4643A 70.5 70.5 0 0 1 -35.9906 -60.6212A 0.75 0.75 0 0 0 -35.6013 -61.4292C -35.68559788121571 -61.74078870536835 -35.77004579944862 -62.08539856863703 -35.851225750204634 -62.4635153432659 C -36.03880854167413 -63.337358296535875 -36.208757336283924 -64.38864763972327 -36.31900216085881 -65.61983692638026 A 75 75 0 0 1 -34.9199 -66.375C -33.95118965509374 -65.60707868602435 -33.16566530607267 -64.88802140528537 -32.538151210617286 -64.2516136188466 C -32.26662880883577 -63.976226500427316 -32.02490928893444 -63.71649763708209 -31.81076394745886 -63.47500625322389 A 0.75 0.75 0 0 0 -30.9216 -63.357A 70.5 70.5 0 0 1 -30.6461 -63.4907A 0.75 0.75 0 0 0 -30.1887 -64.2623C -30.245961565557327 -64.5799403458659 -30.300472554830964 -64.93053407199963 -30.348847259180246 -65.31422974260279 C -30.460615918364446 -66.20096339904042 -30.5395617154646 -67.26297066691052 -30.543559493749374 -68.49907948036234 A 75 75 0 0 1 -29.0847 -69.1311C -28.185608975232732 -68.28281994327429 -27.464806114355774 -67.49889704423363 -26.89432363358398 -66.81090100516978 C -26.647479958444993 -66.5131919530663 -26.428982781385006 -66.23364519065838 -26.236389926712334 -65.9746388044775 A 0.75 0.75 0 0 0 -25.3606 -65.7806A 70.5 70.5 0 0 1 -25.0747 -65.8901A 0.75 0.75 0 0 0 -24.5527 -66.6196C -24.582394732598395 -66.94096470257571 -24.606565212619902 -67.29494661828815 -24.621776521176262 -67.68138043636377 C -24.656903552026993 -68.57443973021759 -24.64426186455647 -69.63930219252275 -24.541982998399412 -70.87117881559104 A 75 75 0 0 1 -23.0342 -71.3755C -22.211351907796 -70.45301909172086 -21.560607107258345 -69.61003446525254 -21.05137989386353 -68.87554385552819 C -20.831042489574795 -68.55771700340304 -20.63738533200967 -68.2604220083565 -20.46777085425359 -67.98581821251787 A 0.75 0.75 0 0 0 -19.6119 -67.7172A 70.5 70.5 0 0 1 -19.3176 -67.8018A 0.75 0.75 0 0 0 -18.7348 -68.4836C -18.73682844966247 -68.80638157721046 -18.730479470654274 -69.16113092424507 -18.712414764211132 -69.54744186900538 C -18.670640098481833 -70.44021490171767 -18.566504521071735 -71.50004868934957 -18.35870624741365 -72.71857273851282 A 75 75 0 0 1 -16.8131 -73.0914C -16.07264976190222 -72.10160873615484 -15.496780908531479 -71.20580354549887 -15.052579102638683 -70.4302562766128 C -14.860379270252288 -70.09466470328127 -14.692995902021952 -69.78182254372504 -14.547615567432894 -69.49365440865766 A 0.75 0.75 0 0 0 -13.718 -69.1525A 70.5 70.5 0 0 1 -13.4176 -69.2114A 0.75 0.75 0 0 0 -12.7783 -69.8406C -12.752541244324718 -70.1623800758823 -12.71571981190608 -70.51527041418949 -12.664512835229656 -70.89859837455782 C -12.54614575792972 -71.78447536694816 -12.351287273961358 -72.8314338413464 -12.039508058518186 -74.02758379086866 A 75 75 0 0 1 -10.4676 -74.2662C -9.814951340496677 -73.21638329563963 -9.318221965804424 -72.27438976901297 -8.942334282171943 -71.46352772160384 C -8.779695002002068 -71.11265602966175 -8.639824671002614 -70.78658287949138 -8.519754824713766 -70.48698390124609 A 0.75 0.75 0 0 0 -7.72258 -70.0758A 70.5 70.5 0 0 1 -7.41815 -70.1086A 0.75 0.75 0 0 0 -6.72717 -70.6806C -6.673838685335581 -70.99892086012918 -6.606817412509448 -71.3473395131096 -6.522847284139309 -71.72484646298203 C -6.328764143696068 -72.59726869173986 -6.044625417209756 -73.62360053865851 -5.631173564210692 -74.78852051280958 A 75 75 0 0 1 -4.04458 -74.8911C -3.4845864533154227 -73.7890893693621 -3.070674167801561 -72.80788169726134 -2.7658835473274825 -71.96770821023254 C -2.6340089437020247 -71.60415413092781 -2.5226872009278525 -71.26726412166417 -2.428816798072393 -70.95845242625548 A 0.75 0.75 0 0 0 -1.66995 -70.4802A 70.5 70.5 0 0 1 -1.36382 -70.4868A 0.75 0.75 0 0 0 -0.626226 -70.9972C -0.5457253596909288 -71.30981047466442 -0.44900044851262355 -71.65117787251235 -0.3328888539006576 -72.0200688825101 C -0.06452657398223893 -72.87257723868737 0.3067887313025115 -73.87068385621377 0.8188521689919387 -74.99574919507468 A 75 75 0 0 1 2.40839 -74.9615C 2.8715770928166493 -73.81548684192462 3.199607827405341 -72.80232954265963 3.4310448216038836 -71.93906496655829 C 3.531178395258544 -71.56552012709771 3.613127362571986 -71.22030747450198 3.6801033383736783 -70.90456939567895 A 0.75 0.75 0 0 0 4.39505 -70.3629A 70.5 70.5 0 0 1 4.70062 -70.3431A 0.75 0.75 0 0 0 5.47936 -70.7883C 5.586428325584372 -71.09274720155268 5.712140757713554 -71.42453597948843 5.8595341689447125 -71.78207990963705 C 6.200188727909493 -72.60836271963107 6.655931523384149 -73.57085447557584 7.262815407226519 -74.64773558900336 A 75 75 0 0 1 8.84353 -74.477C 9.206480486829932 -73.29538027567601 9.446201045702415 -72.25777441141803 9.602570935093055 -71.37781005513588 C 9.670222124831232 -70.99704005081897 9.722191595201378 -70.64606058859165 9.761777277257298 -70.32573374062288 A 0.75 0.75 0 0 0 10.4275 -69.7246A 70.5 70.5 0 0 1 10.7302 -69.6786A 0.75 0.75 0 0 0 11.5444 -70.0552C 11.67722205005634 -70.34933810132435 11.830991272271826 -70.66909181131874 12.008575250873838 -71.01264153145304 C 12.419000001714949 -71.80658128642952 12.955796127172189 -72.72633222857789 13.653007301221523 -73.74705626557576 A 75 75 0 0 1 15.2132 -73.4411C 15.473222320382831 -72.2326203576635 15.622857896392055 -71.1782479992051 15.703002973022757 -70.28809881096363 C 15.737670913104699 -69.90292272968267 15.759276122755445 -69.54877498696521 15.771178432525463 -69.22623095776055 A 0.75 0.75 0 0 0 16.3828 -68.5701A 70.5 70.5 0 0 1 16.6804 -68.4983A 0.75 0.75 0 0 0 17.5239 -68.8034C 17.681561707970218 -69.08508711486154 17.862249266749835 -69.39043841231775 18.0687090430763 -69.71745040050735 C 18.5458653445335 -70.47316904829552 19.159740549268875 -71.34336966246435 19.94211710592524 -72.30037953938258 A 75 75 0 0 1 21.4702 -71.8614C 21.625405829479774 -70.63507539049307 21.68384857317385 -69.57174274188387 21.687175470937536 -68.67799907483703 C 21.688603492064118 -68.29126862553655 21.679684483582207 -67.93657458831062 21.66381530052904 -67.61420138101406 A 0.75 0.75 0 0 0 22.2167 -66.9079A 70.5 70.5 0 0 1 22.5071 -66.8108A 0.75 0.75 0 0 0 23.3737 -67.0423C 23.5549932692324 -67.30935431414554 23.761261417107967 -67.59804248489023 23.99506843520888 -67.90609565878597 C 24.53542358896848 -68.6179981229203 25.221832955742176 -69.4322057482187 26.083582452709557 -70.31841609875686 A 75 75 0 0 1 27.5683 -69.7497C 27.61748239987902 -68.51457303816983 27.584299621630958 -67.4501526423128 27.510783709340558 -66.55943146187798 C 27.478961238942986 -66.17400986149953 27.439584045546734 -65.82139556032024 27.39606085954956 -65.50157991337015 A 0.75 0.75 0 0 0 27.8862 -64.7504A 70.5 70.5 0 0 1 28.1672 -64.6286A 0.75 0.75 0 0 0 29.0505 -64.7848C 29.254031901496212 -65.0352866035586 29.484353501267726 -65.30517430137868 29.743776735782948 -65.59198794305937 C 30.34333014134015 -66.25480354676817 31.09719173535407 -67.0069900748046 32.031934080856544 -67.81583970758503 A 75 75 0 0 1 33.4623 -67.1216C 33.40508879309647 -65.88681275821193 33.28052616658678 -64.82918521131002 33.13071173033594 -63.94808110547125 C 33.06587437085133 -63.5668218806969 32.99633052750377 -63.21889794848127 32.925475569004305 -62.90400766503404 A 0.75 0.75 0 0 0 33.3492 -62.1134A 70.5 70.5 0 0 1 33.6187 -61.968A 0.75 0.75 0 0 0 34.5121 -62.0477C 34.73648391664653 -62.27972038480363 34.989153747771724 -62.52880945560983 35.27227251983711 -62.79226009721974 C 35.926585293542445 -63.40108158567192 36.74231778730748 -64.08567809055972 37.7431324760565 -64.81117856589289 A 75 75 0 0 1 39.1085 -63.9966C 38.945375596302036 -62.771249568359714 38.73035533963677 -61.7282451747389 38.50535155309604 -60.86328153002461 C 38.40797933764942 -60.48900739076369 38.30878372263545 -60.148349734578 38.21112157695644 -59.84071615212183 A 0.75 0.75 0 0 0 38.5654 -59.0166A 70.5 70.5 0 0 1 38.8213 -58.8486A 0.75 0.75 0 0 0 39.7183 -58.8511C 39.96175915810438 -59.06305690607648 40.23490654155499 -59.28950318153716 40.539624738836714 -59.527640326699064 C 41.24385257783756 -60.07796019860202 42.11541657336956 -60.68989816733824 43.17489392356391 -61.32667813353508 A 75 75 0 0 1 44.4652 -60.3977C 44.197324464380586 -59.1909500084312 43.893438512311135 -58.170290807706714 43.59491122479415 -57.32787151231822 C 43.46572506320115 -56.963353453350834 43.337612086148845 -56.632484183295844 43.21386580964793 -56.334384913243724 A 0.75 0.75 0 0 0 43.4959 -55.4829A 70.5 70.5 0 0 1 43.7365 -55.2935A 0.75 0.75 0 0 0 44.6304 -55.2189C 44.89117151614495 -55.40911121836213 45.18277416425979 -55.61123816948034 45.506835759836676 -55.82229873408832 C 46.25576480760072 -56.310042613650474 47.17670755001018 -56.84479147161285 48.287003562027515 -57.38813643259334 A 75 75 0 0 1 49.4926 -56.3517C 49.12205180540812 -55.172421363731516 48.73155002320325 -54.18166395952827 48.36170942630129 -53.368025991192056 C 48.20166576770408 -53.01596277669315 48.04558393227275 -52.69733153308337 47.89666969908611 -52.41097359813502 A 0.75 0.75 0 0 0 48.1045 -51.5384A 70.5 70.5 0 0 1 48.3279 -51.329A 0.75 0.75 0 0 0 49.2121 -51.1779C 49.48822534631895 -51.34493585712929 49.79612433511415 -51.521247006676965 50.13713009031174 -51.70366837215427 C 50.92521553819655 -52.1252251743379 51.888718689628185 -52.578825828074244 53.04161312025391 -53.024713047846966 A 75 75 0 0 1 54.1537 -51.8884C 53.68309666116213 -50.74541541438654 53.20887018739274 -49.791895027889765 52.77045445148943 -49.0130622774565 C 52.58073820314191 -48.67606046029014 52.39784308463285 -48.372026277374 52.224863403642516 -48.09952977149194 A 0.75 0.75 0 0 0 52.3569 -47.2123A 70.5 70.5 0 0 1 52.5615 -46.9845A 0.75 0.75 0 0 0 53.4294 -46.7579C 53.71888567043539 -46.900620554822716 54.040801423522296 -47.04981055673444 54.39622665103652 -47.20224213911469 C 55.2176337901128 -47.55449080484618 56.2165639103335 -47.92358495381713 57.40352113256555 -48.26871323940909 A 75 75 0 0 1 58.4138 -47.0411C 57.84669065129983 -45.942708163572135 57.29225049286046 -45.03348432611601 56.78850549467625 -44.295222998780304 C 56.570521249305315 -43.975777622494235 56.3621669391866 -43.68859146298984 56.16640249143036 -43.43197385496549 A 0.75 0.75 0 0 0 56.2217 -42.5367A 70.5 70.5 0 0 1 56.4059 -42.2921A 0.75 0.75 0 0 0 57.2511 -41.9918C 57.55183015963232 -42.10906946701155 57.88537932540348 -42.230033770710165 58.25259258120216 -42.35134701988853 C 59.10124000039726 -42.631679623287766 60.128201360291804 -42.91353462354902 61.34043355813656 -43.15534876588347 A 75 75 0 0 1 62.2414 -41.8454C 61.58200798263157 -40.799857175453916 60.95145902047377 -39.94166146222153 60.386114311730346 -39.249437386556075 C 60.14147594842275 -38.94991351295221 59.90920502910974 -38.68170160270694 59.69210518606681 -38.442862799527504 A 0.75 0.75 0 0 0 59.6702 -37.5461A 70.5 70.5 0 0 1 59.8327 -37.2866A 0.75 0.75 0 0 0 60.649 -36.9147C 60.958681033940984 -37.00575756153373 61.301394131071625 -37.097600589636336 61.67767669668546 -37.18689734475967 C 62.547281307423255 -37.39323840131083 63.594670644385154 -37.58576749705285 64.8232028747725 -37.72247718882326 A 75 75 0 0 1 65.6083 -36.3399C 64.86139367250874 -35.35493831942265 64.15940427053864 -34.554124511218525 63.536645465662836 -33.91306267209164 C 63.267164201269075 -33.63567787113596 63.01269632538392 -33.388425957294174 62.77586841833565 -33.16913423789605 A 0.75 0.75 0 0 0 62.677 -32.2776A 70.5 70.5 0 0 1 62.8166 -32.0051A 0.75 0.75 0 0 0 63.5979 -31.5644C 63.914215161440275 -31.628467974245687 64.263554862064 -31.690509753105253 64.64612087302686 -31.74712889224081 C 65.53024442701734 -31.87795072495359 66.590307236845 -31.97972849811149 67.82604387696678 -32.01032158859051 A 75 75 0 0 1 68.4893 -30.5654C 67.66056829663958 -29.64826386967892 66.8923357387849 -28.910760911758896 66.21677352608387 -28.32560750673968 C 65.92444450560232 -28.072415438450058 65.64966366426759 -27.84795408767601 65.39486108417897 -27.64983301122621 A 0.75 0.75 0 0 0 65.2197 -26.7701A 70.5 70.5 0 0 1 65.3354 -26.4866A 0.75 0.75 0 0 0 66.0759 -25.9804C 66.3965508015006 -26.017012275903603 66.74993071669718 -26.04879346989597 67.13594778811196 -26.072315804746886 C 68.028044543889 -26.1266498545424 69.09293249242182 -26.136922778092636 70.32672458054074 -26.061172766741933 A 75 75 0 0 1 70.8634 -24.5646C 69.95880774545205 -23.722084047258907 69.13001975679023 -23.05335215349384 68.4066557625284 -22.52843945366589 C 68.09364328774976 -22.301314663531834 67.80058386217736 -22.101305709134543 67.52969307820379 -21.925822094766627 A 0.75 0.75 0 0 0 67.2796 -21.0644A 70.5 70.5 0 0 1 67.3704 -20.772A 0.75 0.75 0 0 0 68.0647 -20.204C 68.38730960953573 -20.212935721222408 68.74211343804983 -20.214221033506515 69.12872363457528 -20.204472412935292 C 70.02218881987628 -20.181916409518667 71.08401784931483 -20.100608426329455 72.30673082047636 -19.91907613973048 A 75 75 0 0 1 72.7127 -18.3819C 71.73909665815039 -17.620274214179926 70.85588929498206 -17.025264441542557 70.09007905309015 -16.564478716884604 C 69.75870055886428 -16.365102757388296 69.44953225850865 -16.191026995689136 69.16455885123831 -16.03948006268757 A 0.75 0.75 0 0 0 68.8413 -15.2028A 70.5 70.5 0 0 1 68.9067 -14.9036A 0.75 0.75 0 0 0 69.5495 -14.2781C 69.87175270383625 -14.259209662345253 70.22535360225648 -14.229989576918639 70.6096945972605 -14.187042176301246 C 71.49791330844948 -14.087763116430128 72.5488220081611 -13.915476202361836 73.75140332331635 -13.629505642052004 A 75 75 0 0 1 74.0237 -12.0631C 72.98825439849324 -11.388010035610678 72.05716661912825 -10.871127628282007 71.2545799207038 -10.477880375084682 C 70.9072888174628 -10.307729356074718 70.58430061625131 -10.160875583109561 70.28735442908823 -10.034387331944686 A 0.75 0.75 0 0 0 69.8934 -9.22855A 70.5 70.5 0 0 1 69.9328 -8.9249A 0.75 0.75 0 0 0 70.5195 -8.24638C 70.83888978709285 -8.199913403986587 71.18866981808137 -8.140404256138543 71.56789608530607 -8.064576043003175 C 72.44429226180574 -7.889308954102164 73.47650007145836 -7.627318661188669 74.65004623929613 -7.239027053144222 A 75 75 0 0 1 74.7867 -5.65501C 73.69703263961296 -5.071433015051905 72.72495789221077 -4.63650478953455 71.89153680836853 -4.313707472875416 C 71.53090431793433 -4.174041132965944 71.19648750750514 -4.055496602690214 70.88976702612672 -3.9550035081193027 A 0.75 0.75 0 0 0 70.428 -3.18602A 70.5 70.5 0 0 1 70.4411 -2.8801A 0.75 0.75 0 0 0 70.9673 -2.15366" stroke="#191919" stroke-width="0.35 px" style="stroke-width:0.35;stroke-miterlimit:4;stroke-dasharray:none;fill:none;fill-rule: evenodd "/>
<title>b'InvoluteGear'</title>
</g>
</svg>