<?xml version="1.0"?>
<!DOCTYPE svg PUBLIC "-//W3C//DTD SVG 1.1//EN" "http://www.w3.org/Graphics/SVG/1.1/DTD/svg11.dtd">
<svg width="61.18602195185875mm" height="61.18602195185875mm" viewBox="0 0 61.18602195185875 61.18602195185875" xmlns="http://www.w3.org/2000/svg" version="1.1">
<g id="InvoluteGear" transform="translate(30.593011,30.593011) scale(1,-1)">
<path id="InvoluteGear_w0000"  d="M 26.173167274404562 -1.861535609661566 L 26.285556873401333 -1.8680102068001754 C 26.392759488022683 -1.8696996705676578 26.715838348955625 -1.8629766166085693 27.253704271275602 -1.7509209863632988 C 27.898413128410862 -1.6150408144128103 28.830670142518812 -1.3290633064130537 29.993148015617034 -0.7302357813958753 A 30 30 0 0 1 29.9931 0.730236C 28.830670142518812 1.3290633064130537 27.898413128410862 1.6150408144128103 27.253704271275602 1.7509209863632988 C 26.715838348955625 1.8629766166085693 26.392759488022683 1.8696996705676578 26.285556873401333 1.8680102068001754 L 26.173167274404562 1.8615356096615625 A 0.75 0.75 0 0 0 25.3737 2.53479A 25.5 25.5 0 0 1 25.3016 3.17494A 0.75 0.75 0 0 0 25.9312 4.00921L 26.042194458978848 4.027911374181053 C 26.1470852212875 4.050119094725615 26.46056780040092 4.128565397561776 26.960013577584846 4.357497986582931 C 27.558322054868285 4.633432575949174 28.403569457078806 5.119686732220964 29.40364992271045 5.962176062968337 A 30 30 0 0 1 29.0787 7.38603C 27.812080640618607 7.7111685611784635 26.839561274066874 7.782529314517001 26.180780431246298 7.771541469843951 C 25.631465207067894 7.761101204109276 25.314990587462443 7.695763887192755 25.210851707264645 7.670261955881116 L 25.10272068356604 7.638940651874813 A 0.75 0.75 0 0 0 24.1735 8.11742A 25.5 25.5 0 0 1 23.9607 8.72547A 0.75 0.75 0 0 0 24.3889 9.67893L 24.492967671649275 9.721856659767683 C 24.59028692083739 9.766847976784822 24.878453892625288 9.913083903310616 25.314435227901217 10.247413815154895 C 25.83634163996322 10.649566309423566 26.55219519608369 11.31171430015139 27.33973004372964 12.355619503656207 A 30 30 0 0 1 26.7061 13.6715C 25.398877282262813 13.706603625250619 24.434861745193427 13.559769297778988 23.795042938975794 13.402464412895553 C 23.261823372019883 13.270051769699618 22.96782235265187 13.13593036780256 22.87196916517683 13.087894742269517 L 22.77351885782048 13.033297312364777 A 0.75 0.75 0 0 0 21.7611 13.293A 25.5 25.5 0 0 1 21.4184 13.8385A 0.75 0.75 0 0 0 21.6237 14.8633L 21.71556121153701 14.928307457495475 C 21.800428954080502 14.993826318482574 22.04883042329695 15.200518988713945 22.399485392014633 15.623481525561342 C 22.81881917206302 16.131686319427235 23.369382995645434 16.936525279466778 23.904881939585582 18.129500589856793 A 30 30 0 0 1 22.9943 19.2713C 21.71206816049906 19.014732349760337 20.804896217319 18.657065827784717 20.216122634298728 18.361331826466948 C 19.725736580183487 18.11358652864665 19.468951599805365 17.917406448902373 19.38619058412114 17.849245835991457 L 19.30235770261058 17.774110023302715 A 0.75 0.75 0 0 0 18.2575 17.802A 25.5 25.5 0 0 1 17.802 18.2575A 0.75 0.75 0 0 0 17.7741 19.3024L 17.84924583599146 19.386190584121138 C 17.917406448902373 19.46895159980536 18.11358652864665 19.725736580183483 18.361331826466948 20.216122634298724 C 18.65706582778472 20.804896217318998 19.01473234976034 21.712068160499058 19.27134323689667 22.994292814280236 A 30 30 0 0 1 18.1295 23.9049C 16.93652527946678 23.36938299564543 16.13168631942724 22.818819172063016 15.623481525561342 22.39948539201463 C 15.200518988713945 22.048830423296945 14.993826318482574 21.8004289540805 14.928307457495478 21.715561211537008 L 14.863295732565263 21.6236546394523 A 0.75 0.75 0 0 0 13.8385 21.4184A 25.5 25.5 0 0 1 13.293 21.7611A 0.75 0.75 0 0 0 13.0333 22.7735L 13.087894742269519 22.87196916517683 C 13.135930367802562 22.967822352651865 13.27005176969962 23.261823372019883 13.402464412895553 23.795042938975794 C 13.55976929777899 24.434861745193427 13.70660362525062 25.398877282262813 13.671458914188369 26.706055181190695 A 30 30 0 0 1 12.3556 27.3397C 11.311714300151392 26.55219519608369 10.649566309423568 25.83634163996322 10.247413815154895 25.314435227901217 C 9.913083903310618 24.878453892625288 9.766847976784824 24.590286920837393 9.721856659767685 24.492967671649275 L 9.678926050771143 24.388898919461365 A 0.75 0.75 0 0 0 8.72547 23.9607A 25.5 25.5 0 0 1 8.11742 24.1735A 0.75 0.75 0 0 0 7.63894 25.1027L 7.6702619558811165 25.210851707264645 C 7.695763887192757 25.314990587462443 7.761101204109277 25.631465207067894 7.771541469843953 26.180780431246298 C 7.782529314517003 26.839561274066874 7.711168561178465 27.812080640618607 7.386030554481825 29.078664426541394 A 30 30 0 0 1 5.96218 29.4036C 5.119686732220965 28.403569457078806 4.6334325759491755 27.558322054868285 4.357497986582933 26.960013577584846 C 4.128565397561777 26.46056780040092 4.050119094725617 26.1470852212875 4.027911374181054 26.042194458978848 L 4.0092146011158825 25.9311819684757 A 0.75 0.75 0 0 0 3.17494 25.3016A 25.5 25.5 0 0 1 2.53479 25.3737A 0.75 0.75 0 0 0 1.86154 26.1732L 1.868010206800177 26.285556873401333 C 1.8696996705676594 26.392759488022683 1.8629766166085708 26.715838348955625 1.7509209863633006 27.253704271275602 C 1.615040814412812 27.898413128410862 1.3290633064130555 28.830670142518812 0.7302357813958772 29.993148015617034 A 30 30 0 0 1 -0.730236 29.9931C -1.329063306413052 28.830670142518812 -1.6150408144128086 27.898413128410862 -1.750920986363297 27.253704271275602 C -1.8629766166085677 26.715838348955625 -1.8696996705676563 26.392759488022683 -1.8680102068001738 26.285556873401333 L -1.8615356096615607 26.173167274404562 A 0.75 0.75 0 0 0 -2.53479 25.3737A 25.5 25.5 0 0 1 -3.17494 25.3016A 0.75 0.75 0 0 0 -4.00921 25.9312L -4.027911374181051 26.042194458978848 C -4.0501190947256145 26.1470852212875 -4.128565397561775 26.46056780040092 -4.35749798658293 26.960013577584846 C -4.633432575949174 27.558322054868285 -5.119686732220963 28.403569457078806 -5.962176062968336 29.40364992271045 A 30 30 0 0 1 -7.38603 29.0787C -7.711168561178463 27.812080640618607 -7.782529314516999 26.839561274066874 -7.7715414698439504 26.180780431246298 C -7.761101204109274 25.631465207067894 -7.695763887192754 25.314990587462443 -7.670261955881114 25.210851707264645 L -7.638940651874811 25.10272068356604 A 0.75 0.75 0 0 0 -8.11742 24.1735A 25.5 25.5 0 0 1 -8.72547 23.9607A 0.75 0.75 0 0 0 -9.67893 24.3889L -9.721856659767683 24.492967671649275 C -9.76684797678482 24.59028692083739 -9.913083903310614 24.878453892625288 -10.247413815154893 25.314435227901217 C -10.649566309423564 25.83634163996322 -11.311714300151388 26.55219519608369 -12.355619503656206 27.33973004372964 A 30 30 0 0 1 -13.6715 26.7061C -13.706603625250617 25.398877282262813 -13.559769297778987 24.434861745193427 -13.40246441289555 23.795042938975794 C -13.270051769699617 23.261823372019883 -13.135930367802558 22.96782235265187 -13.087894742269517 22.87196916517683 L -13.033297312364773 22.77351885782048 A 0.75 0.75 0 0 0 -13.293 21.7611A 25.5 25.5 0 0 1 -13.8385 21.4184A 0.75 0.75 0 0 0 -14.8633 21.6237L -14.928307457495475 21.715561211537008 C -14.99382631848257 21.800428954080505 -15.200518988713942 22.048830423296952 -15.623481525561338 22.399485392014636 C -16.131686319427235 22.818819172063023 -16.936525279466775 23.369382995645438 -18.12950058985679 23.904881939585586 A 30 30 0 0 1 -19.2713 22.9943C -19.014732349760333 21.712068160499065 -18.657065827784717 20.804896217319005 -18.361331826466945 20.21612263429873 C -18.113586528646646 19.72573658018349 -17.91740644890237 19.46895159980537 -17.849245835991457 19.386190584121145 L -17.774110023302715 19.302357702610582 A 0.75 0.75 0 0 0 -17.802 18.2575A 25.5 25.5 0 0 1 -18.2575 17.802A 0.75 0.75 0 0 0 -19.3024 17.7741L -19.386190584121138 17.84924583599146 C -19.46895159980536 17.917406448902373 -19.725736580183483 18.11358652864665 -20.216122634298724 18.361331826466948 C -20.804896217318998 18.65706582778472 -21.712068160499058 19.01473234976034 -22.994292814280236 19.27134323689667 A 30 30 0 0 1 -23.9049 18.1295C -23.36938299564543 16.93652527946678 -22.818819172063016 16.13168631942724 -22.39948539201463 15.623481525561342 C -22.048830423296945 15.200518988713945 -21.8004289540805 14.993826318482574 -21.715561211537008 14.928307457495478 L -21.6236546394523 14.863295732565263 A 0.75 0.75 0 0 0 -21.4184 13.8385A 25.5 25.5 0 0 1 -21.7611 13.293A 0.75 0.75 0 0 0 -22.7735 13.0333L -22.871969165176825 13.08789474226952 C -22.96782235265186 13.135930367802562 -23.26182337201988 13.270051769699622 -23.79504293897579 13.402464412895554 C -24.434861745193423 13.559769297778992 -25.39887728226281 13.706603625250622 -26.706055181190692 13.67145891418837 A 30 30 0 0 1 -27.3397 12.3556C -26.552195196083687 11.311714300151394 -25.836341639963216 10.64956630942357 -25.314435227901214 10.247413815154896 C -24.878453892625284 9.91308390331062 -24.59028692083739 9.766847976784824 -24.49296767164927 9.721856659767687 L -24.388898919461365 9.678926050771146 A 0.75 0.75 0 0 0 -23.9607 8.72547A 25.5 25.5 0 0 1 -24.1735 8.11742A 0.75 0.75 0 0 0 -25.1027 7.63894L -25.210851707264645 7.670261955881118 C -25.314990587462443 7.695763887192759 -25.631465207067894 7.761101204109279 -26.180780431246298 7.771541469843955 C -26.839561274066874 7.782529314517005 -27.812080640618607 7.711168561178467 -29.078664426541394 7.3860305544818265 A 30 30 0 0 1 -29.4036 5.96218C -28.403569457078806 5.119686732220967 -27.558322054868285 4.633432575949177 -26.960013577584846 4.357497986582935 C -26.46056780040092 4.128565397561779 -26.1470852212875 4.050119094725619 -26.042194458978848 4.0279113741810555 L -25.9311819684757 4.009214601115884 A 0.75 0.75 0 0 0 -25.3016 3.17494A 25.5 25.5 0 0 1 -25.3737 2.53479A 0.75 0.75 0 0 0 -26.1732 1.86154L -26.285556873401333 1.8680102068001785 C -26.392759488022683 1.8696996705676612 -26.715838348955625 1.8629766166085726 -27.253704271275602 1.7509209863633022 C -27.898413128410862 1.6150408144128137 -28.830670142518812 1.3290633064130573 -29.993148015617034 0.730235781395879 A 30 30 0 0 1 -29.9931 -0.730236C -28.830670142518812 -1.3290633064130501 -27.898413128410862 -1.615040814412807 -27.253704271275602 -1.7509209863632955 C -26.715838348955625 -1.862976616608566 -26.392759488022683 -1.8696996705676545 -26.285556873401333 -1.8680102068001723 L -26.173167274404562 -1.8615356096615594 A 0.75 0.75 0 0 0 -25.3737 -2.53479A 25.5 25.5 0 0 1 -25.3016 -3.17494A 0.75 0.75 0 0 0 -25.9312 -4.00921L -26.042194458978848 -4.027911374181049 C -26.1470852212875 -4.050119094725613 -26.46056780040092 -4.128565397561773 -26.960013577584846 -4.357497986582929 C -27.558322054868285 -4.633432575949172 -28.403569457078806 -5.119686732220961 -29.40364992271045 -5.962176062968334 A 30 30 0 0 1 -29.0787 -7.38603C -27.812080640618607 -7.711168561178461 -26.839561274066874 -7.782529314516998 -26.180780431246298 -7.771541469843949 C -25.631465207067894 -7.761101204109273 -25.314990587462443 -7.6957638871927525 -25.210851707264645 -7.670261955881112 L -25.10272068356604 -7.638940651874809 A 0.75 0.75 0 0 0 -24.1735 -8.11742A 25.5 25.5 0 0 1 -23.9607 -8.72547A 0.75 0.75 0 0 0 -24.3889 -9.67893L -24.492967671649275 -9.721856659767681 C -24.59028692083739 -9.766847976784819 -24.878453892625288 -9.913083903310612 -25.314435227901217 -10.247413815154891 C -25.83634163996322 -10.649566309423562 -26.55219519608369 -11.311714300151387 -27.33973004372964 -12.355619503656204 A 30 30 0 0 1 -26.7061 -13.6715C -25.398877282262813 -13.706603625250615 -24.434861745193427 -13.559769297778985 -23.795042938975794 -13.402464412895549 C -23.261823372019883 -13.270051769699615 -22.96782235265187 -13.135930367802557 -22.87196916517683 -13.087894742269516 L -22.77351885782048 -13.033297312364773 A 0.75 0.75 0 0 0 -21.7611 -13.293A 25.5 25.5 0 0 1 -21.4184 -13.8385A 0.75 0.75 0 0 0 -21.6237 -14.8633L -21.715561211537008 -14.928307457495475 C -21.800428954080505 -14.99382631848257 -22.048830423296952 -15.200518988713942 -22.399485392014636 -15.623481525561338 C -22.818819172063023 -16.131686319427235 -23.369382995645438 -16.936525279466775 -23.904881939585586 -18.12950058985679 A 30 30 0 0 1 -22.9943 -19.2713C -21.712068160499065 -19.014732349760333 -20.804896217319005 -18.657065827784717 -20.21612263429873 -18.361331826466945 C -19.72573658018349 -18.113586528646646 -19.46895159980537 -17.91740644890237 -19.386190584121145 -17.849245835991457 L -19.302357702610582 -17.774110023302715 A 0.75 0.75 0 0 0 -18.2575 -17.802A 25.5 25.5 0 0 1 -17.802 -18.2575A 0.75 0.75 0 0 0 -17.7741 -19.3024L -17.849245835991464 -19.386190584121138 C -17.917406448902376 -19.46895159980536 -18.113586528646653 -19.725736580183483 -18.36133182646695 -20.216122634298724 C -18.657065827784724 -20.804896217318994 -19.014732349760344 -21.712068160499054 -19.271343236896673 -22.994292814280236 A 30 30 0 0 1 -18.1295 -23.9049C -16.936525279466785 -23.369382995645434 -16.131686319427242 -22.81881917206302 -15.623481525561346 -22.39948539201463 C -15.200518988713949 -22.048830423296945 -14.993826318482578 -21.8004289540805 -14.928307457495482 -21.715561211537008 L -14.863295732565266 -21.623654639452305 A 0.75 0.75 0 0 0 -13.8385 -21.4184A 25.5 25.5 0 0 1 -13.293 -21.7611A 0.75 0.75 0 0 0 -13.0333 -22.7735L -13.087894742269523 -22.871969165176825 C -13.135930367802564 -22.96782235265186 -13.270051769699622 -23.26182337201988 -13.402464412895556 -23.79504293897579 C -13.559769297778994 -24.434861745193423 -13.706603625250624 -25.39887728226281 -13.671458914188372 -26.706055181190692 A 30 30 0 0 1 -12.3556 -27.3397C -11.311714300151396 -26.552195196083687 -10.649566309423571 -25.836341639963216 -10.247413815154898 -25.314435227901214 C -9.91308390331062 -24.878453892625284 -9.766847976784826 -24.59028692083739 -9.721856659767688 -24.49296767164927 L -9.678926050771146 -24.388898919461365 A 0.75 0.75 0 0 0 -8.72547 -23.9607A 25.5 25.5 0 0 1 -8.11742 -24.1735A 0.75 0.75 0 0 0 -7.63894 -25.1027L -7.67026195588112 -25.210851707264638 C -7.6957638871927605 -25.31499058746244 -7.761101204109281 -25.63146520706789 -7.771541469843957 -26.180780431246294 C -7.7825293145170065 -26.83956127406687 -7.71116856117847 -27.812080640618603 -7.386030554481829 -29.07866442654139 A 30 30 0 0 1 -5.96218 -29.4036C -5.11968673222097 -28.403569457078802 -4.633432575949181 -27.55832205486828 -4.357497986582937 -26.960013577584842 C -4.128565397561781 -26.460567800400916 -4.050119094725621 -26.147085221287497 -4.027911374181057 -26.042194458978848 L -4.009214601115885 -25.9311819684757 A 0.75 0.75 0 0 0 -3.17494 -25.3016A 25.5 25.5 0 0 1 -2.53479 -25.3737A 0.75 0.75 0 0 0 -1.86154 -26.1732L -1.8680102068001803 -26.285556873401333 C -1.8696996705676627 -26.392759488022683 -1.8629766166085742 -26.715838348955625 -1.750920986363304 -27.253704271275602 C -1.6150408144128154 -27.898413128410862 -1.329063306413059 -28.830670142518812 -0.7302357813958809 -29.993148015617034 A 30 30 0 0 1 0.730236 -29.9931C 1.3290633064130484 -28.830670142518812 1.6150408144128052 -27.898413128410862 1.7509209863632937 -27.253704271275602 C 1.8629766166085644 -26.715838348955625 1.869699670567653 -26.392759488022683 1.8680102068001705 -26.285556873401333 L 1.8615356096615576 -26.173167274404562 A 0.75 0.75 0 0 0 2.53479 -25.3737A 25.5 25.5 0 0 1 3.17494 -25.3016A 0.75 0.75 0 0 0 4.00921 -25.9312L 4.0279113741810475 -26.042194458978848 C 4.050119094725611 -26.1470852212875 4.128565397561771 -26.46056780040092 4.357497986582926 -26.960013577584842 C 4.633432575949168 -27.558322054868285 5.119686732220958 -28.403569457078806 5.962176062968331 -29.40364992271045 A 30 30 0 0 1 7.38603 -29.0787C 7.711168561178458 -27.812080640618607 7.782529314516996 -26.839561274066874 7.771541469843946 -26.1807804312463 C 7.761101204109271 -25.631465207067894 7.695763887192751 -25.314990587462443 7.67026195588111 -25.210851707264645 L 7.638940651874807 -25.10272068356604 A 0.75 0.75 0 0 0 8.11742 -24.1735A 25.5 25.5 0 0 1 8.72547 -23.9607A 0.75 0.75 0 0 0 9.67893 -24.3889L 9.721856659767678 -24.49296767164928 C 9.766847976784817 -24.590286920837393 9.91308390331061 -24.878453892625288 10.24741381515489 -25.314435227901217 C 10.64956630942356 -25.836341639963223 11.311714300151383 -26.552195196083694 12.355619503656202 -27.339730043729645 A 30 30 0 0 1 13.6715 -26.7061C 13.706603625250615 -25.398877282262816 13.559769297778983 -24.43486174519343 13.402464412895547 -23.795042938975794 C 13.270051769699613 -23.261823372019883 13.135930367802555 -22.967822352651872 13.087894742269516 -22.871969165176832 L 13.033297312364773 -22.773518857820484 A 0.75 0.75 0 0 0 13.293 -21.7611A 25.5 25.5 0 0 1 13.8385 -21.4184A 0.75 0.75 0 0 0 14.8633 -21.6237L 14.928307457495475 -21.715561211537008 C 14.99382631848257 -21.800428954080505 15.200518988713942 -22.048830423296952 15.623481525561338 -22.399485392014636 C 16.131686319427235 -22.818819172063023 16.936525279466775 -23.369382995645438 18.12950058985679 -23.904881939585586 A 30 30 0 0 1 19.2713 -22.9943C 19.014732349760333 -21.712068160499065 18.657065827784717 -20.804896217319005 18.361331826466945 -20.21612263429873 C 18.113586528646646 -19.72573658018349 17.91740644890237 -19.46895159980537 17.849245835991457 -19.386190584121145 L 17.774110023302715 -19.302357702610582 A 0.75 0.75 0 0 0 17.802 -18.2575A 25.5 25.5 0 0 1 18.2575 -17.802A 0.75 0.75 0 0 0 19.3024 -17.7741L 19.386190584121138 -17.849245835991464 C 19.46895159980536 -17.917406448902376 19.725736580183483 -18.113586528646653 20.216122634298724 -18.36133182646695 C 20.804896217318994 -18.657065827784724 21.712068160499054 -19.014732349760344 22.994292814280236 -19.271343236896673 A 30 30 0 0 1 23.9049 -18.1295C 23.369382995645434 -16.936525279466785 22.81881917206302 -16.131686319427242 22.39948539201463 -15.623481525561346 C 22.048830423296945 -15.200518988713949 21.8004289540805 -14.993826318482578 21.715561211537008 -14.928307457495482 L 21.623654639452305 -14.863295732565266 A 0.75 0.75 0 0 0 21.4184 -13.8385A 25.5 25.5 0 0 1 21.7611 -13.293A 0.75 0.75 0 0 0 22.7735 -13.0333L 22.871969165176825 -13.087894742269523 C 22.96782235265186 -13.135930367802564 23.26182337201988 -13.270051769699622 23.79504293897579 -13.402464412895556 C 24.434861745193423 -13.559769297778994 25.39887728226281 -13.706603625250624 26.706055181190692 -13.671458914188372 A 30 30 0 0 1 27.3397 -12.3556C 26.552195196083687 -11.311714300151396 25.836341639963216 -10.649566309423571 25.314435227901214 -10.247413815154898 C 24.878453892625284 -9.91308390331062 24.59028692083739 -9.766847976784826 24.49296767164927 -9.721856659767688 L 24.388898919461365 -9.678926050771146 A 0.75 0.75 0 0 0 23.9607 -8.72547A 25.5 25.5 0 0 1 24.1735 -8.11742A 0.75 0.75 0 0 0 25.1027 -7.63894L 25.210851707264638 -7.670261955881122 C 25.31499058746244 -7.695763887192762 25.63146520706789 -7.761101204109282 26.180780431246294 -7.771541469843958 C 26.83956127406687 -7.782529314517007 27.812080640618603 -7.7111685611784715 29.07866442654139 -7.386030554481831 A 30 30 0 0 1 29.4036 -5.96218C 28.403569457078802 -5.119686732220972 27.55832205486828 -4.633432575949182 26.960013577584842 -4.357497986582938 C 26.460567800400916 -4.128565397561783 26.147085221287497 -4.0501190947256225 26.042194458978848 -4.027911374181059 L 25.9311819684757 -4.009214601115887 A 0.75 0.75 0 0 0 25.3016 -3.17494A 25.5 25.5 0 0 1 25.3737 -2.53479A 0.75 0.75 0 0 0 26.1732 -1.86154" stroke="#191919" stroke-width="0.35 px" style="stroke-width:0.35;stroke-miterlimit:4;stroke-dasharray:none;fill:none;fill-rule: evenodd "/>
<title>b'InvoluteGear'</title>
</g>
</svg>