<?xml version="1.0"?>
<!DOCTYPE svg PUBLIC "-//W3C//DTD SVG 1.1//EN" "http://www.w3.org/Graphics/SVG/1.1/DTD/svg11.dtd">
<svg width="208.0736651638253mm" height="208.0736651638253mm" viewBox="0 0 208.0736651638253 208.0736651638253" xmlns="http://www.w3.org/2000/svg" version="1.1">
<g id="InvoluteGear" transform="translate(104.036833,104.036833) scale(1,-1)">
<path id="InvoluteGear_w0000"  d="M 97.9754285959514 -2.1944000181427255 C 98.29808403997924 -2.106695153917491 98.63880185262511 -2.007834182326679 98.99698940615737 -1.8964561370699287 C 99.89188732447907 -1.618177934599427 100.89530088545608 -1.2619953823459662 101.99689468814964 -0.807152743132963 A 102 102 0 0 1 101.997 0.807153C 100.89530088545608 1.2619953823459662 99.89188732447907 1.618177934599427 98.99698940615737 1.8964561370699287 C 98.63880185262511 2.007834182326679 98.29808403997924 2.106695153917491 97.97543092722036 2.194399130605357 A 0.75 0.75 0 0 0 97.456 2.92721A 97.5 97.5 0 0 1 97.4475 3.19789A 0.75 0.75 0 0 0 97.9199 3.96186C 98.23639570839215 4.069649693346436 98.57023366049698 4.18970943386138 98.92072092738667 4.323358482562935 C 99.79637973617974 4.65727867178459 100.77544840219892 5.0757632379298485 101.84630865553777 5.598877996274683 A 102 102 0 0 1 101.745 7.21C 100.61696571079673 7.594773483398509 99.59316726977102 7.887248331950758 98.68256199516432 8.108786310738171 C 98.31808775762296 8.197453794289277 97.97183474198341 8.274725837866372 97.64431133317845 8.341997194212432 A 0.75 0.75 0 0 0 97.0799 9.04075A 97.5 97.5 0 0 1 97.0545 9.31036A 0.75 0.75 0 0 0 97.4779 10.1025C 97.78701320288418 10.229933492516817 98.11265378856706 10.370718181010158 98.45405755569419 10.526110781419735 C 99.30702142969078 10.91435512695931 100.25788126402126 11.393490139601203 101.29378177181499 11.982812522115081 A 102 102 0 0 1 101.091 13.5844C 99.941541339996 13.89757848323404 98.90139848363928 14.125191363476889 97.97867959575049 14.289114809390018 C 97.60935708750318 14.354721801186223 97.25893537133472 14.410099959295838 96.92783425174702 14.456673205989953 A 0.75 0.75 0 0 0 96.3207 15.1186A 97.5 97.5 0 0 1 96.2783 15.3861A 0.75 0.75 0 0 0 96.6512 16.2032C 96.95171003090124 16.349844417804285 97.26786809554153 16.510798441428943 97.59884099820978 16.68732132994485 C 98.42574367868136 17.128357608742473 99.34464207196358 17.666252140882065 100.34149460816583 18.319456361356995 A 102 102 0 0 1 100.039 19.9052C 98.87169336447339 20.145536089995908 97.81931106144364 20.30738871787747 96.88812011017312 20.413050699964792 C 96.51540687843249 20.45533827918246 96.16219941615637 20.488603999534412 95.82882729063923 20.514295333249173 A 0.75 0.75 0 0 0 95.1813 21.1368A 97.5 97.5 0 0 1 95.1223 21.4011A 0.75 0.75 0 0 0 95.4431 22.24C 95.73378275244943 22.405229976708082 96.03921056460486 22.58571812346571 96.35844640397453 22.78267464489262 C 97.15602448381716 23.274762288246176 98.03933496389762 23.869293515905756 98.9932054069666 24.58380167570414 A 102 102 0 0 1 98.5917 26.1474C 97.41164398542124 26.313988469430537 96.35117550788078 26.409442086572003 95.41518747849248 26.456425605262584 C 95.04055445210774 26.475226882145904 94.68595519221245 26.486248880139623 94.35162772824204 26.49095690891811 A 0.75 0.75 0 0 0 93.6663 27.0716A 97.5 97.5 0 0 1 93.5908 27.3316A 0.75 0.75 0 0 0 93.8583 28.1891C 94.13803797007874 28.37219232886972 94.43153014571143 28.571502294502263 94.73776904376952 28.78811515143097 C 95.50287484668084 29.329312114225612 96.34711139064079 29.978133694265082 97.25423524971968 30.751125956107927 A 102 102 0 0 1 96.7554 32.2864C 95.56715535070556 32.37859155809413 94.5027858832533 32.40726945267725 93.56569469288696 32.39538908548755 C 93.1906203772597 32.39062985998614 92.83602876102303 32.37936463683102 92.50206539635997 32.363070780234544 A 0.75 0.75 0 0 0 91.7817 32.8995A 97.5 97.5 0 0 1 91.6899 33.1543A 0.75 0.75 0 0 0 91.9031 34.0269C 92.17077335941876 34.22718259993103 92.45117161899532 34.44452779906019 92.74320499071843 34.6799421195054 C 93.47281899363794 35.268112544578344 94.27464978553336 35.96866387463968 95.13144705717586 36.797089591216064 A 102 102 0 0 1 94.5372 38.298C 93.34550681430089 38.31541113824935 92.28143693696067 38.27720013172588 91.34694085642846 38.20650276503757 C 90.9729054985273 38.178201819640215 90.61972093706105 38.14469383402546 90.2874396725323 38.10746239646204 A 0.75 0.75 0 0 0 89.5348 38.5976A 97.5 97.5 0 0 1 89.4272 38.8462A 0.75 0.75 0 0 0 89.5851 39.7304C 89.83975281513005 39.947093818182736 90.1059505548217 40.18161648860313 90.38262587790899 40.43490319979262 C 91.07386862769611 41.06772584718562 91.83012920771306 41.817242171220514 92.6332185045214 42.69783192469882 A 102 102 0 0 1 91.9459 44.1585C 90.75546620800573 44.10101729528817 89.69589531845615 43.99606818904392 88.76768237685727 43.86683283306477 C 88.39616212335932 43.815101858673465 88.04577847477293 43.75948335130995 87.71649067272472 43.70146126825424 A 0.75 0.75 0 0 0 86.9345 44.1434A 97.5 97.5 0 0 1 86.8116 44.3847A 0.75 0.75 0 0 0 86.9137 45.2771C 87.15417581035894 45.509352107225254 87.4051224693013 45.76012669509995 87.66534783265348 46.03028619010034 C 88.31549130997355 46.705263597933296 89.02319706310527 47.50078691743224 89.76940895852157 48.43006542235867 A 102 102 0 0 1 88.9917 49.8447C 87.80725523881614 49.7125768849008 86.75636497928635 49.541303865111416 85.83809840904112 49.35404055274947 C 85.47055948065552 49.27908370788651 85.12435954913488 49.20157417961312 84.79936475808461 49.12299043771916 A 0.75 0.75 0 0 0 83.9912 49.5149A 97.5 97.5 0 0 1 83.8533 49.748A 0.75 0.75 0 0 0 83.8992 50.6451C 84.1246410906198 50.89200577474583 84.35934629699665 51.15804258734451 84.60209470999024 51.44400867005317 C 85.2085730955606 52.15847701086521 85.86493103051949 52.99686775872617 86.55132056710433 53.971167577388755 A 102 102 0 0 1 85.6863 55.3342C 84.51250914851802 55.12794364506475 83.4744469027563 54.89102264809215 82.5697506825014 54.646470422088804 C 82.2076435874659 54.54858352717635 81.86699366597702 54.449488872690445 81.54757449188897 54.350653606086 A 0.75 0.75 0 0 0 80.7164 54.6911A 97.5 97.5 0 0 1 80.5642 54.9151A 0.75 0.75 0 0 0 80.5536 55.8132C 80.76310484538872 56.07381194581933 80.9806423249771 56.354061057383305 81.2049557705272 56.65470515031726 C 81.7653755712336 57.40584474397674 82.36779534311181 58.283794174942194 82.99165365494584 59.299270191071926 A 102 102 0 0 1 82.0428 60.6053C 80.8842307947035 60.32574559722338 79.86309332014834 60.02411164200372 78.97553787254868 59.723235638269735 C 78.62029168213643 59.602805008161724 78.28653616029128 59.482516308792526 77.97395320471684 59.36381957512134 A 0.75 0.75 0 0 0 77.123 59.6514A 97.5 97.5 0 0 1 76.957 59.8654A 0.75 0.75 0 0 0 76.8901 60.7611C 77.08283352248577 61.034320398830566 77.28234475423716 61.32767579415014 77.48733796965327 61.64181139242581 C 77.99948746457378 62.42665783411959 78.5455915977511 63.340701082882454 79.10445660109126 64.39334567657052 A 102 102 0 0 1 78.0755 65.6372C 76.93673933443233 65.28546939172138 75.93655659418246 64.92031288967246 75.06964469510426 64.5643005283374 C 74.72266140373222 64.42180144771135 74.39711746209713 64.28079342800058 74.09260434715638 64.14270366904307 A 0.75 0.75 0 0 0 73.2253 64.3763A 97.5 97.5 0 0 1 73.0462 64.5794A 0.75 0.75 0 0 0 72.9232 65.4691C 73.09835147146644 65.75395427315625 73.27904907569713 66.05925821250742 73.46391304641048 66.38564556643331 C 73.9257710154675 67.20110142581827 74.41340428642155 68.14763118126233 74.90507039642077 69.23329004520501 A 102 102 0 0 1 73.8 70.4101C 72.68561371306095 69.98754126462411 71.7103329714521 69.56030332163537 70.86748592610664 69.15055962084287 C 70.53013491830428 68.98655446846837 70.21408733009001 68.8253836226494 69.91884582992881 68.66844581559695 A 0.75 0.75 0 0 0 69.0386 68.8471A 97.5 97.5 0 0 1 68.8471 69.0386A 0.75 0.75 0 0 0 68.6684 69.9188C 68.8253836226494 70.21408733009001 68.98655446846837 70.53013491830428 69.15055962084287 70.86748592610664 C 69.56030332163537 71.7103329714521 69.98754126462411 72.68561371306095 70.41006809976714 73.80000224771263 A 102 102 0 0 1 69.2333 74.9051C 68.14763118126233 74.41340428642155 67.20110142581827 73.9257710154675 66.38564556643331 73.46391304641048 C 66.05925821250742 73.27904907569713 65.75395427315625 73.09835147146644 65.46914957109271 72.92318497814546 A 0.75 0.75 0 0 0 64.5794 73.0462A 97.5 97.5 0 0 1 64.3763 73.2253A 0.75 0.75 0 0 0 64.1427 74.0926C 64.28079342800056 74.39711746209714 64.42180144771135 74.72266140373223 64.56430052833738 75.06964469510426 C 64.92031288967245 75.93655659418248 65.28546939172138 76.93673933443235 65.63718943162404 78.07545955736244 A 102 102 0 0 1 64.3933 79.1045C 63.340701082882454 78.54559159775111 62.426657834119574 77.99948746457379 61.641811392425794 77.48733796965327 C 61.32767579415013 77.28234475423717 61.03432039883055 77.08283352248579 60.76107648890885 76.89012964501943 A 0.75 0.75 0 0 0 59.8654 76.957A 97.5 97.5 0 0 1 59.6514 77.123A 0.75 0.75 0 0 0 59.3638 77.974C 59.482516308792526 78.28653616029128 59.602805008161724 78.62029168213643 59.723235638269735 78.97553787254868 C 60.02411164200372 79.86309332014834 60.32574559722338 80.8842307947035 60.60527076357377 82.04278869742389 A 102 102 0 0 1 59.2993 82.9917C 58.283794174942194 82.36779534311181 57.40584474397674 81.7653755712336 56.65470515031726 81.2049557705272 C 56.354061057383305 80.9806423249771 56.07381194581933 80.76310484538872 55.813207196918654 80.55362409794334 A 0.75 0.75 0 0 0 54.9151 80.5642A 97.5 97.5 0 0 1 54.6911 80.7164A 0.75 0.75 0 0 0 54.3507 81.5476C 54.449488872690445 81.86699366597702 54.54858352717635 82.2076435874659 54.646470422088804 82.5697506825014 C 54.89102264809215 83.4744469027563 55.12794364506475 84.51250914851802 55.33417077973418 85.68633243228145 A 102 102 0 0 1 53.9712 86.5513C 52.99686775872617 85.86493103051949 52.15847701086521 85.2085730955606 51.44400867005317 84.60209470999024 C 51.15804258734451 84.35934629699665 50.89200577474583 84.1246410906198 50.6450686747511 83.8992101980029 A 0.75 0.75 0 0 0 49.748 83.8533A 97.5 97.5 0 0 1 49.5149 83.9912A 0.75 0.75 0 0 0 49.123 84.7994C 49.201574179613104 85.1243595491349 49.2790837078865 85.47055948065552 49.35404055274945 85.83809840904112 C 49.54130386511141 86.75636497928636 49.71257688490079 87.80725523881615 49.844692103604956 88.99171135939042 A 102 102 0 0 1 48.4301 89.7694C 47.50078691743223 89.02319706310529 46.70526359793329 88.31549130997357 46.03028619010033 87.66534783265348 C 45.76012669509994 87.4051224693013 45.50935210722524 87.15417581035895 45.2770572040553 86.9136844453141 A 0.75 0.75 0 0 0 44.3847 86.8116A 97.5 97.5 0 0 1 44.1434 86.9345A 0.75 0.75 0 0 0 43.7015 87.7165C 43.759483351309946 88.04577847477294 43.81510185867346 88.39616212335933 43.86683283306476 88.76768237685728 C 43.99606818904391 89.69589531845617 44.101017295288166 90.75546620800574 44.158499199616536 91.94588065820949 A 102 102 0 0 1 42.6978 92.6332C 41.81724217122051 91.83012920771307 41.06772584718561 91.07386862769613 40.434903199792615 90.382625877909 C 40.181616488603126 90.10595055482172 39.94709381818273 89.83975281513007 39.730357873694956 89.58515008720507 A 0.75 0.75 0 0 0 38.8462 89.4272A 97.5 97.5 0 0 1 38.5976 89.5348A 0.75 0.75 0 0 0 38.1075 90.2874C 38.144693834025446 90.61972093706106 38.17820181964021 90.97290549852731 38.20650276503756 91.34694085642847 C 38.27720013172587 92.28143693696069 38.31541113824934 93.3455068143009 38.29803287338651 94.5371815721478 A 102 102 0 0 1 36.7971 95.1314C 35.96866387463967 94.27464978553337 35.26811254457834 93.47281899363796 34.67994211950539 92.74320499071844 C 34.44452779906018 92.45117161899533 34.22718259993101 92.17077335941877 34.026860971881064 91.90306406926379 A 0.75 0.75 0 0 0 33.1543 91.6899A 97.5 97.5 0 0 1 32.8995 91.7817A 0.75 0.75 0 0 0 32.3631 92.5021C 32.37936463683103 92.83602876102303 32.39062985998615 93.1906203772597 32.39538908548756 93.56569469288696 C 32.407269452677255 94.5027858832533 32.378591558094136 95.56715535070556 32.28642170811216 96.7553874203508 A 102 102 0 0 1 30.7511 97.2542C 29.97813369426509 96.34711139064079 29.32931211422562 95.50287484668084 28.788115151430976 94.73776904376952 C 28.571502294502267 94.43153014571143 28.372192328869726 94.13803797007874 28.18907559520526 93.8582786439573 A 0.75 0.75 0 0 0 27.3316 93.5908A 97.5 97.5 0 0 1 27.0716 93.6663A 0.75 0.75 0 0 0 26.491 94.3516C 26.486248880139616 94.68595519221245 26.475226882145897 95.04055445210774 26.456425605262577 95.41518747849248 C 26.409442086571996 96.35117550788078 26.31398846943053 97.41164398542124 26.147390786618875 98.5917439577375 A 102 102 0 0 1 24.5838 98.9932C 23.86929351590575 98.03933496389762 23.27476228824617 97.15602448381716 22.782674644892612 96.35844640397453 C 22.58571812346571 96.03921056460486 22.405229976708075 95.73378275244943 22.240040815518796 95.44307747261185 A 0.75 0.75 0 0 0 21.4011 95.1223A 97.5 97.5 0 0 1 21.1368 95.1813A 0.75 0.75 0 0 0 20.5143 95.8288C 20.4886039995344 96.16219941615637 20.45533827918245 96.51540687843249 20.41305069996478 96.88812011017312 C 20.30738871787746 97.81931106144364 20.145536089995893 98.87169336447339 19.90516805929738 100.03900392400637 A 102 102 0 0 1 18.3195 100.341C 17.666252140882058 99.34464207196358 17.128357608742462 98.42574367868136 16.68732132994484 97.59884099820978 C 16.510798441428932 97.26786809554153 16.349844417804274 96.95171003090124 16.203234755241642 96.65120607827643 A 0.75 0.75 0 0 0 15.3861 96.2783A 97.5 97.5 0 0 1 15.1186 96.3207A 0.75 0.75 0 0 0 14.4567 96.9278C 14.410099959295838 97.25893537133472 14.354721801186223 97.60935708750318 14.289114809390018 97.97867959575049 C 14.125191363476889 98.90139848363928 13.89757848323404 99.941541339996 13.584388727452124 101.09145564526068 A 102 102 0 0 1 11.9828 101.294C 11.393490139601203 100.25788126402126 10.91435512695931 99.30702142969078 10.526110781419735 98.45405755569419 C 10.370718181010158 98.11265378856706 10.229933492516817 97.78701320288418 10.102481929939385 97.47789652928594 A 0.75 0.75 0 0 0 9.31036 97.0545A 97.5 97.5 0 0 1 9.04075 97.0799A 0.75 0.75 0 0 0 8.342 97.6443C 8.274725837866363 97.97183474198341 8.19745379428927 98.31808775762296 8.108786310738164 98.68256199516432 C 7.88724833195075 99.59316726977102 7.594773483398501 100.61696571079673 7.209998019416467 101.74494557537611 A 102 102 0 0 1 5.59888 101.846C 5.0757632379298405 100.77544840219892 4.657278671784582 99.79637973617974 4.323358482562926 98.92072092738667 C 4.189709433861371 98.57023366049698 4.069649693346429 98.23639570839215 3.9618592238446073 97.91988625610921 A 0.75 0.75 0 0 0 3.19789 97.4475A 97.5 97.5 0 0 1 2.92721 97.456A 0.75 0.75 0 0 0 2.1944 97.9754C 2.106695153917475 98.29808403997924 2.007834182326663 98.63880185262511 1.8964561370699127 98.99698940615737 C 1.618177934599411 99.89188732447907 1.26199538234595 100.89530088545608 0.8071527431329466 101.99689468814964 A 102 102 0 0 1 -0.807153 101.997C -1.2619953823459824 100.89530088545608 -1.618177934599443 99.89188732447907 -1.8964561370699446 98.99698940615737 C -2.007834182326695 98.63880185262511 -2.106695153917507 98.29808403997924 -2.1943991306053725 97.97543092722036 A 0.75 0.75 0 0 0 -2.92721 97.456A 97.5 97.5 0 0 1 -3.19789 97.4475A 0.75 0.75 0 0 0 -3.96186 97.9199C -4.06964969334644 98.23639570839215 -4.189709433861383 98.57023366049698 -4.323358482562938 98.92072092738667 C -4.657278671784593 99.79637973617974 -5.075763237929852 100.77544840219892 -5.598877996274686 101.84630865553777 A 102 102 0 0 1 -7.21 101.745C -7.594773483398512 100.61696571079673 -7.887248331950761 99.59316726977102 -8.108786310738175 98.68256199516432 C -8.197453794289281 98.31808775762296 -8.274725837866374 97.97183474198341 -8.341997194212434 97.64431133317845 A 0.75 0.75 0 0 0 -9.04075 97.0799A 97.5 97.5 0 0 1 -9.31036 97.0545A 0.75 0.75 0 0 0 -10.1025 97.4779C -10.229933492516828 97.78701320288418 -10.370718181010169 98.11265378856704 -10.526110781419746 98.45405755569419 C -10.914355126959322 99.30702142969076 -11.393490139601214 100.25788126402126 -11.982812522115093 101.29378177181498 A 102 102 0 0 1 -13.5844 101.091C -13.897578483234051 99.941541339996 -14.125191363476901 98.90139848363927 -14.289114809390028 97.97867959575049 C -14.354721801186233 97.60935708750317 -14.410099959295849 97.25893537133472 -14.456673205989963 96.92783425174702 A 0.75 0.75 0 0 0 -15.1186 96.3207A 97.5 97.5 0 0 1 -15.3861 96.2783A 0.75 0.75 0 0 0 -16.2032 96.6512C -16.349844417804302 96.95171003090122 -16.510798441428964 97.26786809554152 -16.687321329944872 97.59884099820977 C -17.128357608742494 98.42574367868134 -17.666252140882087 99.34464207196358 -18.319456361357012 100.34149460816582 A 102 102 0 0 1 -19.9052 100.039C -20.14553608999593 98.87169336447339 -20.30738871787749 97.81931106144363 -20.413050699964813 96.8881201101731 C -20.45533827918248 96.51540687843247 -20.48860399953443 96.16219941615635 -20.51429533324919 95.82882729063921 A 0.75 0.75 0 0 0 -21.1368 95.1813A 97.5 97.5 0 0 1 -21.4011 95.1223A 0.75 0.75 0 0 0 -22.24 95.4431C -22.405229976708085 95.73378275244943 -22.585718123465718 96.03921056460486 -22.782674644892623 96.35844640397453 C -23.27476228824618 97.15602448381716 -23.869293515905763 98.03933496389762 -24.583801675704144 98.9932054069666 A 102 102 0 0 1 -26.1474 98.5917C -26.313988469430544 97.41164398542124 -26.409442086572007 96.35117550788078 -26.456425605262588 95.41518747849248 C -26.47522688214591 95.04055445210774 -26.486248880139627 94.68595519221245 -26.49095690891812 94.35162772824204 A 0.75 0.75 0 0 0 -27.0716 93.6663A 97.5 97.5 0 0 1 -27.3316 93.5908A 0.75 0.75 0 0 0 -28.1891 93.8583C -28.372192328869737 94.13803797007874 -28.571502294502277 94.43153014571143 -28.788115151430986 94.73776904376952 C -29.32931211422563 95.50287484668084 -29.9781336942651 96.34711139064079 -30.751125956107945 97.25423524971968 A 102 102 0 0 1 -32.2864 96.7554C -32.37859155809415 95.56715535070556 -32.40726945267726 94.5027858832533 -32.395389085487565 93.56569469288696 C -32.390629859986156 93.1906203772597 -32.37936463683104 92.83602876102303 -32.36307078023456 92.50206539635997 A 0.75 0.75 0 0 0 -32.8995 91.7817A 97.5 97.5 0 0 1 -33.1543 91.6899A 0.75 0.75 0 0 0 -34.0269 91.9031C -34.22718259993103 92.17077335941876 -34.44452779906019 92.45117161899532 -34.6799421195054 92.74320499071843 C -35.268112544578344 93.47281899363794 -35.96866387463968 94.27464978553336 -36.797089591216064 95.13144705717586 A 102 102 0 0 1 -38.298 94.5372C -38.31541113824935 93.34550681430089 -38.27720013172588 92.28143693696067 -38.20650276503757 91.34694085642846 C -38.178201819640215 90.9729054985273 -38.14469383402546 90.61972093706105 -38.10746239646204 90.2874396725323 A 0.75 0.75 0 0 0 -38.5976 89.5348A 97.5 97.5 0 0 1 -38.8462 89.4272A 0.75 0.75 0 0 0 -39.7304 89.5851C -39.94709381818274 89.83975281513005 -40.18161648860314 90.1059505548217 -40.43490319979262 90.38262587790899 C -41.06772584718562 91.07386862769611 -41.81724217122052 91.83012920771306 -42.697831924698825 92.6332185045214 A 102 102 0 0 1 -44.1585 91.9459C -44.10101729528818 90.75546620800573 -43.99606818904392 89.69589531845615 -43.86683283306477 88.76768237685727 C -43.81510185867347 88.39616212335932 -43.75948335130996 88.04577847477293 -43.70146126825424 87.71649067272472 A 0.75 0.75 0 0 0 -44.1434 86.9345A 97.5 97.5 0 0 1 -44.3847 86.8116A 0.75 0.75 0 0 0 -45.2771 86.9137C -45.50935210722526 87.15417581035892 -45.760126695099956 87.40512246930129 -46.03028619010035 87.66534783265347 C -46.7052635979333 88.31549130997355 -47.500786917432244 89.02319706310526 -48.43006542235868 89.76940895852157 A 102 102 0 0 1 -49.8447 88.9917C -49.712576884900805 87.80725523881613 -49.54130386511142 86.75636497928635 -49.35404055274946 85.83809840904111 C -49.279083707886514 85.47055948065551 -49.201574179613125 85.12435954913487 -49.12299043771916 84.7993647580846 A 0.75 0.75 0 0 0 -49.5149 83.9912A 97.5 97.5 0 0 1 -49.748 83.8533A 0.75 0.75 0 0 0 -50.6451 83.8992C -50.89200577474585 84.12464109061979 -51.158042587344525 84.35934629699665 -51.44400867005319 84.60209470999023 C -52.15847701086523 85.20857309556058 -52.996867758726175 85.86493103051947 -53.97116757738877 86.55132056710431 A 102 102 0 0 1 -55.3342 85.6863C -55.127943645064754 84.512509148518 -54.89102264809216 83.47444690275628 -54.64647042208882 82.56975068250138 C -54.54858352717636 82.2076435874659 -54.44948887269046 81.866993665977 -54.35065360608601 81.54757449188895 A 0.75 0.75 0 0 0 -54.6911 80.7164A 97.5 97.5 0 0 1 -54.9151 80.5642A 0.75 0.75 0 0 0 -55.8132 80.5536C -56.073811945819315 80.76310484538872 -56.3540610573833 80.9806423249771 -56.654705150317255 81.2049557705272 C -57.40584474397673 81.7653755712336 -58.28379417494219 82.36779534311181 -59.29927019107191 82.99165365494584 A 102 102 0 0 1 -60.6053 82.0428C -60.325745597223374 80.8842307947035 -60.0241116420037 79.86309332014834 -59.72323563826973 78.97553787254868 C -59.60280500816172 78.62029168213643 -59.48251630879251 78.28653616029128 -59.363819575121326 77.97395320471684 A 0.75 0.75 0 0 0 -59.6514 77.123A 97.5 97.5 0 0 1 -59.8654 76.957A 0.75 0.75 0 0 0 -60.7611 76.8901C -61.03432039883055 77.08283352248579 -61.32767579415013 77.28234475423717 -61.641811392425794 77.48733796965327 C -62.426657834119574 77.99948746457379 -63.340701082882454 78.54559159775111 -64.39334567657052 79.10445660109126 A 102 102 0 0 1 -65.6372 78.0755C -65.28546939172138 76.93673933443235 -64.92031288967245 75.93655659418248 -64.56430052833738 75.06964469510426 C -64.42180144771135 74.72266140373223 -64.28079342800056 74.39711746209714 -64.14270366904306 74.09260434715638 A 0.75 0.75 0 0 0 -64.3763 73.2253A 97.5 97.5 0 0 1 -64.5794 73.0462A 0.75 0.75 0 0 0 -65.4691 72.9232C -65.75395427315625 73.09835147146644 -66.05925821250742 73.27904907569713 -66.38564556643331 73.46391304641048 C -67.20110142581827 73.9257710154675 -68.14763118126233 74.41340428642155 -69.23329004520501 74.90507039642077 A 102 102 0 0 1 -70.4101 73.8C -69.98754126462411 72.68561371306095 -69.56030332163537 71.7103329714521 -69.15055962084287 70.86748592610664 C -68.98655446846837 70.53013491830428 -68.8253836226494 70.21408733009001 -68.66844581559695 69.91884582992881 A 0.75 0.75 0 0 0 -68.8471 69.0386A 97.5 97.5 0 0 1 -69.0386 68.8471A 0.75 0.75 0 0 0 -69.9188 68.6684C -70.21408733009002 68.82538362264937 -70.5301349183043 68.98655446846836 -70.86748592610665 69.15055962084284 C -71.71033297145212 69.56030332163535 -72.68561371306096 69.9875412646241 -73.80000224771264 70.41006809976713 A 102 102 0 0 1 -74.9051 69.2333C -74.41340428642157 68.14763118126231 -73.92577101546752 67.20110142581824 -73.4639130464105 66.38564556643328 C -73.27904907569715 66.0592582125074 -73.09835147146646 65.75395427315622 -72.92318497814547 65.4691495710927 A 0.75 0.75 0 0 0 -73.0462 64.5794A 97.5 97.5 0 0 1 -73.2253 64.3763A 0.75 0.75 0 0 0 -74.0926 64.1427C -74.39711746209716 64.28079342800056 -74.72266140373225 64.42180144771133 -75.06964469510429 64.56430052833738 C -75.93655659418249 64.92031288967243 -76.93673933443236 65.28546939172136 -78.07545955736246 65.63718943162402 A 102 102 0 0 1 -79.1045 64.3933C -78.54559159775113 63.34070108288244 -77.9994874645738 62.42665783411957 -77.4873379696533 61.64181139242579 C -77.28234475423719 61.32767579415012 -77.0828335224858 61.034320398830545 -76.89012964501946 60.76107648890884 A 0.75 0.75 0 0 0 -76.957 59.8654A 97.5 97.5 0 0 1 -77.123 59.6514A 0.75 0.75 0 0 0 -77.974 59.3638C -78.28653616029126 59.48251630879253 -78.62029168213641 59.60280500816174 -78.97553787254867 59.72323563826975 C -79.86309332014832 60.02411164200373 -80.88423079470348 60.325745597223396 -82.04278869742387 60.605270763573785 A 102 102 0 0 1 -82.9917 59.2993C -82.3677953431118 58.28379417494221 -81.76537557123359 57.40584474397676 -81.20495577052719 56.65470515031728 C -80.98064232497708 56.35406105738332 -80.76310484538871 56.07381194581934 -80.55362409794333 55.81320719691866 A 0.75 0.75 0 0 0 -80.5642 54.9151A 97.5 97.5 0 0 1 -80.7164 54.6911A 0.75 0.75 0 0 0 -81.5476 54.3507C -81.86699366597702 54.449488872690445 -82.2076435874659 54.54858352717635 -82.5697506825014 54.646470422088804 C -83.4744469027563 54.89102264809215 -84.51250914851802 55.12794364506475 -85.68633243228145 55.33417077973418 A 102 102 0 0 1 -86.5513 53.9712C -85.86493103051949 52.99686775872617 -85.2085730955606 52.15847701086521 -84.60209470999024 51.44400867005317 C -84.35934629699665 51.15804258734451 -84.1246410906198 50.89200577474583 -83.8992101980029 50.6450686747511 A 0.75 0.75 0 0 0 -83.8533 49.748A 97.5 97.5 0 0 1 -83.9912 49.5149A 0.75 0.75 0 0 0 -84.7994 49.123C -85.1243595491349 49.201574179613104 -85.47055948065552 49.2790837078865 -85.83809840904112 49.35404055274945 C -86.75636497928636 49.54130386511141 -87.80725523881615 49.71257688490079 -88.99171135939042 49.844692103604956 A 102 102 0 0 1 -89.7694 48.4301C -89.02319706310529 47.50078691743223 -88.31549130997357 46.70526359793329 -87.66534783265348 46.03028619010033 C -87.4051224693013 45.76012669509994 -87.15417581035895 45.50935210722524 -86.9136844453141 45.2770572040553 A 0.75 0.75 0 0 0 -86.8116 44.3847A 97.5 97.5 0 0 1 -86.9345 44.1434A 0.75 0.75 0 0 0 -87.7165 43.7015C -88.04577847477294 43.75948335130993 -88.39616212335933 43.815101858673444 -88.76768237685728 43.86683283306475 C -89.69589531845617 43.99606818904389 -90.75546620800574 44.10101729528815 -91.94588065820949 44.15849919961652 A 102 102 0 0 1 -92.6332 42.6978C -91.83012920771307 41.81724217122049 -91.07386862769613 41.06772584718559 -90.382625877909 40.4349031997926 C -90.10595055482172 40.18161648860311 -89.83975281513007 39.947093818182715 -89.58515008720507 39.73035787369494 A 0.75 0.75 0 0 0 -89.4272 38.8462A 97.5 97.5 0 0 1 -89.5348 38.5976A 0.75 0.75 0 0 0 -90.2874 38.1075C -90.61972093706106 38.14469383402543 -90.97290549852731 38.178201819640186 -91.34694085642847 38.20650276503754 C -92.28143693696069 38.27720013172585 -93.3455068143009 38.315411138249324 -94.5371815721478 38.29803287338649 A 102 102 0 0 1 -95.1314 36.7971C -94.27464978553337 35.96866387463965 -93.47281899363796 35.268112544578315 -92.74320499071844 34.67994211950537 C -92.45117161899533 34.44452779906016 -92.17077335941877 34.227182599931 -91.90306406926379 34.02686097188105 A 0.75 0.75 0 0 0 -91.6899 33.1543A 97.5 97.5 0 0 1 -91.7817 32.8995A 0.75 0.75 0 0 0 -92.5021 32.3631C -92.83602876102304 32.379364636831 -93.19062037725972 32.39062985998611 -93.56569469288698 32.39538908548752 C -94.50278588325331 32.40726945267722 -95.56715535070558 32.3785915580941 -96.75538742035081 32.28642170811212 A 102 102 0 0 1 -97.2542 30.7511C -96.3471113906408 29.978133694265054 -95.50287484668085 29.32931211422558 -94.73776904376953 28.78811515143094 C -94.43153014571145 28.571502294502235 -94.13803797007876 28.372192328869694 -93.85827864395732 28.189075595205228 A 0.75 0.75 0 0 0 -93.5908 27.3316A 97.5 97.5 0 0 1 -93.6663 27.0716A 0.75 0.75 0 0 0 -94.3516 26.491C -94.68595519221245 26.486248880139623 -95.04055445210774 26.475226882145904 -95.41518747849248 26.456425605262584 C -96.35117550788078 26.409442086572003 -97.41164398542124 26.313988469430537 -98.5917439577375 26.14739078661888 A 102 102 0 0 1 -98.9932 24.5838C -98.03933496389762 23.869293515905756 -97.15602448381716 23.274762288246176 -96.35844640397453 22.78267464489262 C -96.03921056460486 22.58571812346571 -95.73378275244943 22.405229976708082 -95.44307747261185 22.2400408155188 A 0.75 0.75 0 0 0 -95.1223 21.4011A 97.5 97.5 0 0 1 -95.1813 21.1368A 0.75 0.75 0 0 0 -95.8288 20.5143C -96.16219941615637 20.488603999534405 -96.51540687843249 20.455338279182453 -96.88812011017312 20.413050699964785 C -97.81931106144364 20.307388717877462 -98.87169336447339 20.1455360899959 -100.03900392400637 19.90516805929738 A 102 102 0 0 1 -100.341 18.3195C -99.34464207196358 17.666252140882058 -98.42574367868136 17.128357608742466 -97.59884099820978 16.687321329944844 C -97.26786809554153 16.510798441428935 -96.95171003090124 16.349844417804277 -96.65120607827643 16.203234755241645 A 0.75 0.75 0 0 0 -96.2783 15.3861A 97.5 97.5 0 0 1 -96.3207 15.1186A 0.75 0.75 0 0 0 -96.9278 14.4567C -97.25893537133472 14.41009995929582 -97.60935708750318 14.354721801186207 -97.97867959575049 14.28911480939 C -98.90139848363928 14.125191363476873 -99.941541339996 13.897578483234023 -101.09145564526068 13.584388727452108 A 102 102 0 0 1 -101.294 11.9828C -100.25788126402126 11.393490139601186 -99.30702142969078 10.914355126959293 -98.45405755569419 10.526110781419717 C -98.11265378856706 10.370718181010142 -97.78701320288418 10.229933492516803 -97.47789652928594 10.102481929939367 A 0.75 0.75 0 0 0 -97.0545 9.31036A 97.5 97.5 0 0 1 -97.0799 9.04075A 0.75 0.75 0 0 0 -97.6443 8.342C -97.97183474198341 8.274725837866349 -98.31808775762296 8.197453794289256 -98.68256199516432 8.108786310738148 C -99.59316726977102 7.887248331950734 -100.61696571079673 7.594773483398486 -101.74494557537611 7.209998019416451 A 102 102 0 0 1 -101.846 5.59888C -100.77544840219892 5.075763237929825 -99.79637973617974 4.6572786717845664 -98.92072092738667 4.323358482562911 C -98.57023366049698 4.189709433861357 -98.23639570839215 4.069649693346413 -97.91988625610921 3.961859223844592 A 0.75 0.75 0 0 0 -97.4475 3.19789A 97.5 97.5 0 0 1 -97.456 2.92721A 0.75 0.75 0 0 0 -97.9754 2.1944C -98.29808403997924 2.1066951539174594 -98.63880185262511 2.0078341823266475 -98.99698940615737 1.896456137069897 C -99.89188732447907 1.6181779345993947 -100.89530088545608 1.2619953823459338 -101.99689468814964 0.8071527431329303 A 102 102 0 0 1 -101.997 -0.807153C -100.89530088545608 -1.2619953823459986 -99.89188732447907 -1.6181779345994591 -98.99698940615737 -1.8964561370699604 C -98.63880185262511 -2.0078341823267105 -98.29808403997924 -2.1066951539175225 -97.97543092722036 -2.1943991306053885 A 0.75 0.75 0 0 0 -97.456 -2.92721A 97.5 97.5 0 0 1 -97.4475 -3.19789A 0.75 0.75 0 0 0 -97.9199 -3.96186C -98.23639570839215 -4.069649693346433 -98.57023366049698 -4.189709433861376 -98.92072092738667 -4.323358482562931 C -99.79637973617974 -4.657278671784586 -100.77544840219892 -5.075763237929845 -101.84630865553777 -5.598877996274679 A 102 102 0 0 1 -101.745 -7.21C -100.61696571079673 -7.594773483398505 -99.59316726977102 -7.887248331950754 -98.68256199516432 -8.108786310738168 C -98.31808775762296 -8.197453794289274 -97.97183474198341 -8.274725837866367 -97.64431133317845 -8.341997194212428 A 0.75 0.75 0 0 0 -97.0799 -9.04075A 97.5 97.5 0 0 1 -97.0545 -9.31036A 0.75 0.75 0 0 0 -97.4779 -10.1025C -97.78701320288418 -10.229933492516825 -98.11265378856706 -10.370718181010163 -98.45405755569419 -10.52611078141974 C -99.30702142969078 -10.914355126959315 -100.25788126402126 -11.393490139601209 -101.29378177181499 -11.982812522115086 A 102 102 0 0 1 -101.091 -13.5844C -99.941541339996 -13.897578483234046 -98.90139848363928 -14.125191363476894 -97.97867959575049 -14.289114809390023 C -97.60935708750318 -14.354721801186228 -97.25893537133472 -14.410099959295842 -96.92783425174702 -14.456673205989958 A 0.75 0.75 0 0 0 -96.3207 -15.1186A 97.5 97.5 0 0 1 -96.2783 -15.3861A 0.75 0.75 0 0 0 -96.6512 -16.2032C -96.95171003090122 -16.3498444178043 -97.26786809554152 -16.510798441428957 -97.59884099820977 -16.687321329944865 C -98.42574367868134 -17.128357608742487 -99.34464207196358 -17.66625214088208 -100.34149460816582 -18.31945636135701 A 102 102 0 0 1 -100.039 -19.9052C -98.87169336447339 -20.14553608999592 -97.81931106144363 -20.307388717877483 -96.8881201101731 -20.413050699964806 C -96.51540687843247 -20.455338279182474 -96.16219941615635 -20.488603999534426 -95.82882729063921 -20.514295333249187 A 0.75 0.75 0 0 0 -95.1813 -21.1368A 97.5 97.5 0 0 1 -95.1223 -21.4011A 0.75 0.75 0 0 0 -95.4431 -22.24C -95.73378275244943 -22.405229976708103 -96.03921056460486 -22.585718123465732 -96.35844640397453 -22.78267464489264 C -97.15602448381716 -23.274762288246198 -98.03933496389762 -23.869293515905778 -98.9932054069666 -24.583801675704162 A 102 102 0 0 1 -98.5917 -26.1474C -97.41164398542124 -26.31398846943056 -96.35117550788078 -26.409442086572025 -95.41518747849248 -26.456425605262606 C -95.04055445210774 -26.475226882145925 -94.68595519221245 -26.486248880139645 -94.35162772824204 -26.490956908918132 A 0.75 0.75 0 0 0 -93.6663 -27.0716A 97.5 97.5 0 0 1 -93.5908 -27.3316A 0.75 0.75 0 0 0 -93.8583 -28.1891C -94.13803797007874 -28.37219232886975 -94.43153014571142 -28.571502294502295 -94.73776904376952 -28.788115151431 C -95.50287484668083 -29.329312114225644 -96.34711139064078 -29.978133694265118 -97.25423524971967 -30.75112595610796 A 102 102 0 0 1 -96.7554 -32.2864C -95.56715535070555 -32.378591558094165 -94.50278588325328 -32.407269452677276 -93.56569469288696 -32.39538908548758 C -93.19062037725969 -32.39062985998618 -92.83602876102303 -32.379364636831056 -92.50206539635995 -32.36307078023458 A 0.75 0.75 0 0 0 -91.7817 -32.8995A 97.5 97.5 0 0 1 -91.6899 -33.1543A 0.75 0.75 0 0 0 -91.9031 -34.0269C -92.17077335941875 -34.22718259993107 -92.4511716189953 -34.444527799060225 -92.74320499071841 -34.67994211950544 C -93.47281899363793 -35.268112544578386 -94.27464978553336 -35.96866387463972 -95.13144705717585 -36.79708959121611 A 102 102 0 0 1 -94.5372 -38.298C -93.34550681430089 -38.31541113824939 -92.28143693696066 -38.27720013172592 -91.34694085642845 -38.20650276503761 C -90.97290549852728 -38.17820181964025 -90.61972093706103 -38.14469383402549 -90.2874396725323 -38.107462396462076 A 0.75 0.75 0 0 0 -89.5348 -38.5976A 97.5 97.5 0 0 1 -89.4272 -38.8462A 0.75 0.75 0 0 0 -89.5851 -39.7304C -89.83975281513005 -39.947093818182736 -90.1059505548217 -40.18161648860313 -90.38262587790899 -40.43490319979262 C -91.07386862769611 -41.06772584718562 -91.83012920771306 -41.817242171220514 -92.6332185045214 -42.69783192469882 A 102 102 0 0 1 -91.9459 -44.1585C -90.75546620800573 -44.10101729528817 -89.69589531845615 -43.99606818904392 -88.76768237685727 -43.86683283306477 C -88.39616212335932 -43.815101858673465 -88.04577847477293 -43.75948335130995 -87.71649067272472 -43.70146126825424 A 0.75 0.75 0 0 0 -86.9345 -44.1434A 97.5 97.5 0 0 1 -86.8116 -44.3847A 0.75 0.75 0 0 0 -86.9137 -45.2771C -87.15417581035892 -45.50935210722526 -87.40512246930129 -45.760126695099956 -87.66534783265347 -46.03028619010035 C -88.31549130997355 -46.7052635979333 -89.02319706310526 -47.500786917432244 -89.76940895852157 -48.43006542235868 A 102 102 0 0 1 -88.9917 -49.8447C -87.80725523881613 -49.712576884900805 -86.75636497928635 -49.54130386511142 -85.83809840904111 -49.35404055274946 C -85.47055948065551 -49.279083707886514 -85.12435954913487 -49.201574179613125 -84.7993647580846 -49.12299043771916 A 0.75 0.75 0 0 0 -83.9912 -49.5149A 97.5 97.5 0 0 1 -83.8533 -49.748A 0.75 0.75 0 0 0 -83.8992 -50.6451C -84.12464109061979 -50.89200577474585 -84.35934629699665 -51.158042587344525 -84.60209470999023 -51.44400867005319 C -85.20857309556058 -52.15847701086523 -85.86493103051947 -52.996867758726175 -86.55132056710431 -53.97116757738877 A 102 102 0 0 1 -85.6863 -55.3342C -84.512509148518 -55.127943645064754 -83.47444690275628 -54.89102264809216 -82.56975068250138 -54.64647042208882 C -82.2076435874659 -54.54858352717636 -81.866993665977 -54.44948887269046 -81.54757449188895 -54.35065360608601 A 0.75 0.75 0 0 0 -80.7164 -54.6911A 97.5 97.5 0 0 1 -80.5642 -54.9151A 0.75 0.75 0 0 0 -80.5536 -55.8132C -80.7631048453887 -56.07381194581935 -80.98064232497708 -56.354061057383326 -81.20495577052719 -56.654705150317284 C -81.76537557123358 -57.405844743976765 -82.36779534311178 -58.28379417494222 -82.99165365494582 -59.29927019107195 A 102 102 0 0 1 -82.0428 -60.6053C -80.88423079470347 -60.32574559722341 -79.86309332014831 -60.02411164200374 -78.97553787254867 -59.723235638269756 C -78.62029168213641 -59.602805008161745 -78.28653616029125 -59.48251630879255 -77.9739532047168 -59.36381957512136 A 0.75 0.75 0 0 0 -77.123 -59.6514A 97.5 97.5 0 0 1 -76.957 -59.8654A 0.75 0.75 0 0 0 -76.8901 -60.7611C -77.08283352248576 -61.03432039883059 -77.28234475423714 -61.32767579415017 -77.48733796965325 -61.64181139242583 C -77.99948746457376 -62.42665783411961 -78.54559159775108 -63.34070108288248 -79.10445660109124 -64.39334567657055 A 102 102 0 0 1 -78.0755 -65.6372C -76.93673933443232 -65.2854693917214 -75.93655659418245 -64.92031288967247 -75.06964469510424 -64.56430052833743 C -74.7226614037322 -64.42180144771137 -74.39711746209711 -64.2807934280006 -74.09260434715637 -64.1427036690431 A 0.75 0.75 0 0 0 -73.2253 -64.3763A 97.5 97.5 0 0 1 -73.0462 -64.5794A 0.75 0.75 0 0 0 -72.9232 -65.4691C -73.09835147146644 -65.75395427315625 -73.27904907569713 -66.05925821250742 -73.46391304641048 -66.38564556643331 C -73.9257710154675 -67.20110142581827 -74.41340428642155 -68.14763118126233 -74.90507039642077 -69.23329004520501 A 102 102 0 0 1 -73.8 -70.4101C -72.68561371306095 -69.98754126462411 -71.7103329714521 -69.56030332163537 -70.86748592610664 -69.15055962084287 C -70.53013491830428 -68.98655446846837 -70.21408733009001 -68.8253836226494 -69.91884582992881 -68.66844581559695 A 0.75 0.75 0 0 0 -69.0386 -68.8471A 97.5 97.5 0 0 1 -68.8471 -69.0386A 0.75 0.75 0 0 0 -68.6684 -69.9188C -68.82538362264938 -70.21408733009001 -68.98655446846837 -70.53013491830428 -69.15055962084286 -70.86748592610664 C -69.56030332163536 -71.7103329714521 -69.98754126462411 -72.68561371306095 -70.41006809976713 -73.80000224771263 A 102 102 0 0 1 -69.2333 -74.9051C -68.14763118126233 -74.41340428642155 -67.20110142581825 -73.9257710154675 -66.3856455664333 -73.46391304641048 C -66.05925821250742 -73.27904907569713 -65.75395427315624 -73.09835147146644 -65.46914957109271 -72.92318497814546 A 0.75 0.75 0 0 0 -64.5794 -73.0462A 97.5 97.5 0 0 1 -64.3763 -73.2253A 0.75 0.75 0 0 0 -64.1427 -74.0926C -64.28079342800056 -74.39711746209716 -64.42180144771135 -74.72266140373225 -64.56430052833738 -75.06964469510427 C -64.92031288967245 -75.93655659418248 -65.28546939172138 -76.93673933443236 -65.63718943162404 -78.07545955736245 A 102 102 0 0 1 -64.3933 -79.1045C -63.340701082882454 -78.54559159775113 -62.426657834119574 -77.99948746457379 -61.641811392425794 -77.48733796965328 C -61.32767579415013 -77.28234475423719 -61.03432039883055 -77.0828335224858 -60.76107648890885 -76.89012964501944 A 0.75 0.75 0 0 0 -59.8654 -76.957A 97.5 97.5 0 0 1 -59.6514 -77.123A 0.75 0.75 0 0 0 -59.3638 -77.974C -59.48251630879253 -78.28653616029126 -59.60280500816174 -78.62029168213641 -59.72323563826975 -78.97553787254867 C -60.02411164200373 -79.86309332014832 -60.325745597223396 -80.88423079470348 -60.605270763573785 -82.04278869742387 A 102 102 0 0 1 -59.2993 -82.9917C -58.28379417494221 -82.3677953431118 -57.40584474397676 -81.76537557123359 -56.65470515031728 -81.20495577052719 C -56.35406105738332 -80.98064232497708 -56.07381194581934 -80.76310484538871 -55.81320719691866 -80.55362409794333 A 0.75 0.75 0 0 0 -54.9151 -80.5642A 97.5 97.5 0 0 1 -54.6911 -80.7164A 0.75 0.75 0 0 0 -54.3507 -81.5476C -54.44948887269042 -81.86699366597705 -54.54858352717631 -82.20764358746592 -54.64647042208877 -82.56975068250141 C -54.89102264809212 -83.47444690275633 -55.12794364506471 -84.51250914851805 -55.334170779734144 -85.68633243228146 A 102 102 0 0 1 -53.9712 -86.5513C -52.99686775872613 -85.86493103051951 -52.158477010865184 -85.20857309556062 -51.44400867005314 -84.60209470999025 C -51.158042587344475 -84.35934629699668 -50.892005774745805 -84.12464109061983 -50.64506867475107 -83.89921019800292 A 0.75 0.75 0 0 0 -49.748 -83.8533A 97.5 97.5 0 0 1 -49.5149 -83.9912A 0.75 0.75 0 0 0 -49.123 -84.7994C -49.20157417961312 -85.12435954913488 -49.27908370788651 -85.47055948065552 -49.35404055274947 -85.83809840904112 C -49.541303865111416 -86.75636497928635 -49.7125768849008 -87.80725523881614 -49.84469210360496 -88.99171135939041 A 102 102 0 0 1 -48.4301 -89.7694C -47.50078691743224 -89.02319706310527 -46.705263597933296 -88.31549130997355 -46.03028619010034 -87.66534783265348 C -45.76012669509995 -87.4051224693013 -45.509352107225254 -87.15417581035894 -45.27705720405532 -86.91368444531409 A 0.75 0.75 0 0 0 -44.3847 -86.8116A 97.5 97.5 0 0 1 -44.1434 -86.9345A 0.75 0.75 0 0 0 -43.7015 -87.7165C -43.759483351309896 -88.04577847477296 -43.815101858673415 -88.39616212335936 -43.86683283306472 -88.7676823768573 C -43.99606818904386 -89.69589531845618 -44.101017295288116 -90.75546620800576 -44.158499199616486 -91.9458806582095 A 102 102 0 0 1 -42.6978 -92.6332C -41.81724217122046 -91.83012920771309 -41.067725847185564 -91.07386862769614 -40.43490319979256 -90.38262587790902 C -40.18161648860307 -90.10595055482175 -39.94709381818268 -89.83975281513008 -39.730357873694906 -89.58515008720507 A 0.75 0.75 0 0 0 -38.8462 -89.4272A 97.5 97.5 0 0 1 -38.5976 -89.5348A 0.75 0.75 0 0 0 -38.1075 -90.2874C -38.14469383402544 -90.61972093706106 -38.17820181964019 -90.97290549852731 -38.20650276503755 -91.34694085642847 C -38.277200131725856 -92.28143693696069 -38.315411138249324 -93.3455068143009 -38.2980328733865 -94.5371815721478 A 102 102 0 0 1 -36.7971 -95.1314C -35.96866387463965 -94.27464978553337 -35.26811254457832 -93.47281899363796 -34.67994211950538 -92.74320499071844 C -34.44452779906017 -92.45117161899533 -34.227182599931005 -92.17077335941877 -34.02686097188106 -91.90306406926379 A 0.75 0.75 0 0 0 -33.1543 -91.6899A 97.5 97.5 0 0 1 -32.8995 -91.7817A 0.75 0.75 0 0 0 -32.3631 -92.5021C -32.37936463683104 -92.83602876102303 -32.390629859986156 -93.1906203772597 -32.395389085487565 -93.56569469288696 C -32.40726945267726 -94.5027858832533 -32.37859155809415 -95.56715535070556 -32.28642170811217 -96.7553874203508 A 102 102 0 0 1 -30.7511 -97.2542C -29.9781336942651 -96.34711139064079 -29.32931211422563 -95.50287484668084 -28.788115151430986 -94.73776904376952 C -28.571502294502277 -94.43153014571143 -28.372192328869737 -94.13803797007874 -28.18907559520527 -93.8582786439573 A 0.75 0.75 0 0 0 -27.3316 -93.5908A 97.5 97.5 0 0 1 -27.0716 -93.6663A 0.75 0.75 0 0 0 -26.491 -94.3516C -26.486248880139588 -94.68595519221246 -26.47522688214587 -95.04055445210776 -26.456425605262552 -95.4151874784925 C -26.409442086571968 -96.3511755078808 -26.3139884694305 -97.41164398542124 -26.147390786618846 -98.59174395773752 A 102 102 0 0 1 -24.5838 -98.9932C -23.86929351590572 -98.03933496389762 -23.27476228824614 -97.15602448381718 -22.78267464489258 -96.35844640397454 C -22.585718123465675 -96.03921056460487 -22.405229976708046 -95.73378275244944 -22.240040815518764 -95.44307747261186 A 0.75 0.75 0 0 0 -21.4011 -95.1223A 97.5 97.5 0 0 1 -21.1368 -95.1813A 0.75 0.75 0 0 0 -20.5143 -95.8288C -20.488603999534412 -96.16219941615637 -20.45533827918246 -96.51540687843249 -20.413050699964792 -96.88812011017312 C -20.30738871787747 -97.81931106144364 -20.145536089995908 -98.87169336447339 -19.90516805929739 -100.03900392400637 A 102 102 0 0 1 -18.3195 -100.341C -17.666252140882065 -99.34464207196358 -17.128357608742473 -98.42574367868136 -16.68732132994485 -97.59884099820978 C -16.510798441428943 -97.26786809554153 -16.349844417804285 -96.95171003090124 -16.203234755241652 -96.65120607827643 A 0.75 0.75 0 0 0 -15.3861 -96.2783A 97.5 97.5 0 0 1 -15.1186 -96.3207A 0.75 0.75 0 0 0 -14.4567 -96.9278C -14.410099959295785 -97.25893537133472 -14.354721801186171 -97.60935708750318 -14.289114809389964 -97.9786795957505 C -14.125191363476837 -98.90139848363928 -13.897578483233987 -99.941541339996 -13.58438872745207 -101.09145564526068 A 102 102 0 0 1 -11.9828 -101.294C -11.39349013960115 -100.25788126402126 -10.914355126959258 -99.30702142969078 -10.526110781419682 -98.45405755569418 C -10.370718181010107 -98.11265378856706 -10.229933492516768 -97.78701320288418 -10.102481929939334 -97.47789652928594 A 0.75 0.75 0 0 0 -9.31036 -97.0545A 97.5 97.5 0 0 1 -9.04075 -97.0799A 0.75 0.75 0 0 0 -8.342 -97.6443C -8.274725837866354 -97.97183474198341 -8.19745379428926 -98.31808775762296 -8.108786310738154 -98.68256199516432 C -7.88724833195074 -99.59316726977102 -7.594773483398491 -100.61696571079673 -7.2099980194164575 -101.74494557537611 A 102 102 0 0 1 -5.59888 -101.846C -5.075763237929831 -100.77544840219892 -4.657278671784573 -99.79637973617974 -4.3233584825629165 -98.92072092738667 C -4.1897094338613625 -98.57023366049698 -4.069649693346419 -98.23639570839215 -3.9618592238445975 -97.91988625610921 A 0.75 0.75 0 0 0 -3.19789 -97.4475A 97.5 97.5 0 0 1 -2.92721 -97.456A 0.75 0.75 0 0 0 -2.1944 -97.9754C -2.106695153917509 -98.29808403997924 -2.007834182326697 -98.63880185262511 -1.8964561370699469 -98.99698940615737 C -1.6181779345994454 -99.89188732447907 -1.2619953823459846 -100.89530088545608 -0.8071527431329818 -101.99689468814964 A 102 102 0 0 1 0.807153 -101.997C 1.2619953823459478 -100.89530088545608 1.6181779345994085 -99.89188732447907 1.8964561370699105 -98.99698940615737 C 2.0078341823266608 -98.63880185262511 2.1066951539174728 -98.29808403997924 2.1943991306053388 -97.97543092722036 A 0.75 0.75 0 0 0 2.92721 -97.456A 97.5 97.5 0 0 1 3.19789 -97.4475A 0.75 0.75 0 0 0 3.96186 -97.9199C 4.06964969334647 -98.23639570839215 4.189709433861414 -98.57023366049698 4.323358482562969 -98.92072092738667 C 4.657278671784625 -99.79637973617974 5.075763237929884 -100.77544840219892 5.598877996274719 -101.84630865553777 A 102 102 0 0 1 7.21 -101.745C 7.594773483398544 -100.61696571079673 7.887248331950793 -99.59316726977102 8.108786310738207 -98.68256199516432 C 8.197453794289313 -98.31808775762296 8.274725837866406 -97.97183474198341 8.341997194212466 -97.64431133317845 A 0.75 0.75 0 0 0 9.04075 -97.0799A 97.5 97.5 0 0 1 9.31036 -97.0545A 0.75 0.75 0 0 0 10.1025 -97.4779C 10.229933492516814 -97.78701320288418 10.370718181010155 -98.11265378856706 10.526110781419732 -98.45405755569419 C 10.914355126959308 -99.30702142969078 11.3934901396012 -100.25788126402126 11.98281252211508 -101.29378177181499 A 102 102 0 0 1 13.5844 -101.091C 13.897578483234037 -99.941541339996 14.125191363476887 -98.90139848363928 14.289114809390014 -97.97867959575049 C 14.35472180118622 -97.60935708750318 14.410099959295835 -97.25893537133472 14.456673205989949 -96.92783425174702 A 0.75 0.75 0 0 0 15.1186 -96.3207A 97.5 97.5 0 0 1 15.3861 -96.2783A 0.75 0.75 0 0 0 16.2032 -96.6512C 16.349844417804334 -96.95171003090122 16.510798441428992 -97.26786809554152 16.6873213299449 -97.59884099820977 C 17.128357608742522 -98.42574367868134 17.666252140882115 -99.34464207196359 18.319456361357044 -100.34149460816582 A 102 102 0 0 1 19.9052 -100.039C 20.145536089995957 -98.87169336447337 20.30738871787752 -97.81931106144363 20.413050699964842 -96.8881201101731 C 20.45533827918251 -96.51540687843247 20.48860399953446 -96.16219941615635 20.514295333249223 -95.82882729063921 A 0.75 0.75 0 0 0 21.1368 -95.1813A 97.5 97.5 0 0 1 21.4011 -95.1223A 0.75 0.75 0 0 0 22.24 -95.4431C 22.4052299767081 -95.73378275244943 22.585718123465732 -96.03921056460486 22.782674644892637 -96.35844640397453 C 23.274762288246194 -97.15602448381716 23.869293515905774 -98.03933496389762 24.58380167570416 -98.9932054069666 A 102 102 0 0 1 26.1474 -98.5917C 26.313988469430555 -97.41164398542124 26.40944208657202 -96.35117550788078 26.456425605262602 -95.41518747849248 C 26.47522688214592 -95.04055445210774 26.48624888013964 -94.68595519221245 26.49095690891813 -94.35162772824204 A 0.75 0.75 0 0 0 27.0716 -93.6663A 97.5 97.5 0 0 1 27.3316 -93.5908A 0.75 0.75 0 0 0 28.1891 -93.8583C 28.372192328869705 -94.13803797007876 28.571502294502245 -94.43153014571145 28.78811515143095 -94.73776904376953 C 29.329312114225594 -95.50287484668085 29.97813369426507 -96.3471113906408 30.75112595610791 -97.2542352497197 A 102 102 0 0 1 32.2864 -96.7554C 32.378591558094115 -95.56715535070558 32.40726945267723 -94.50278588325331 32.39538908548753 -93.56569469288698 C 32.39062985998613 -93.19062037725972 32.379364636831006 -92.83602876102304 32.36307078023453 -92.50206539635998 A 0.75 0.75 0 0 0 32.8995 -91.7817A 97.5 97.5 0 0 1 33.1543 -91.6899A 0.75 0.75 0 0 0 34.0269 -91.9031C 34.227182599931055 -92.17077335941875 34.444527799060225 -92.4511716189953 34.679942119505434 -92.74320499071841 C 35.26811254457838 -93.47281899363793 35.96866387463971 -94.27464978553336 36.7970895912161 -95.13144705717585 A 102 102 0 0 1 38.298 -94.5372C 38.31541113824938 -93.34550681430089 38.27720013172591 -92.28143693696066 38.206502765037605 -91.34694085642845 C 38.17820181964025 -90.97290549852728 38.14469383402549 -90.61972093706103 38.107462396462076 -90.2874396725323 A 0.75 0.75 0 0 0 38.5976 -89.5348A 97.5 97.5 0 0 1 38.8462 -89.4272A 0.75 0.75 0 0 0 39.7304 -89.5851C 39.94709381818273 -89.83975281513007 40.181616488603126 -90.10595055482172 40.434903199792615 -90.382625877909 C 41.06772584718561 -91.07386862769613 41.81724217122051 -91.83012920771307 42.69783192469881 -92.63321850452141 A 102 102 0 0 1 44.1585 -91.9459C 44.101017295288166 -90.75546620800574 43.99606818904391 -89.69589531845617 43.86683283306476 -88.76768237685728 C 43.81510185867346 -88.39616212335933 43.759483351309946 -88.04577847477294 43.701461268254235 -87.71649067272473 A 0.75 0.75 0 0 0 44.1434 -86.9345A 97.5 97.5 0 0 1 44.3847 -86.8116A 0.75 0.75 0 0 0 45.2771 -86.9137C 45.50935210722529 -87.15417581035891 45.76012669509999 -87.40512246930128 46.030286190100384 -87.66534783265345 C 46.70526359793334 -88.31549130997354 47.50078691743228 -89.02319706310526 48.430065422358716 -89.76940895852155 A 102 102 0 0 1 49.8447 -88.9917C 49.71257688490084 -87.80725523881613 49.54130386511146 -86.75636497928633 49.354040552749495 -85.8380984090411 C 49.27908370788655 -85.4705594806555 49.201574179613154 -85.12435954913485 49.122990437719196 -84.79936475808458 A 0.75 0.75 0 0 0 49.5149 -83.9912A 97.5 97.5 0 0 1 49.748 -83.8533A 0.75 0.75 0 0 0 50.6451 -83.8992C 50.89200577474583 -84.1246410906198 51.15804258734451 -84.35934629699665 51.44400867005317 -84.60209470999024 C 52.15847701086521 -85.2085730955606 52.99686775872617 -85.86493103051949 53.971167577388755 -86.55132056710433 A 102 102 0 0 1 55.3342 -85.6863C 55.12794364506475 -84.51250914851802 54.89102264809215 -83.4744469027563 54.646470422088804 -82.5697506825014 C 54.54858352717635 -82.2076435874659 54.449488872690445 -81.86699366597702 54.350653606086 -81.54757449188897 A 0.75 0.75 0 0 0 54.6911 -80.7164A 97.5 97.5 0 0 1 54.9151 -80.5642A 0.75 0.75 0 0 0 55.8132 -80.5536C 56.073811945819386 -80.76310484538868 56.35406105738336 -80.98064232497705 56.65470515031732 -81.20495577052716 C 57.4058447439768 -81.76537557123356 58.28379417494225 -82.36779534311177 59.29927019107198 -82.9916536549458 A 102 102 0 0 1 60.6053 -82.0428C 60.32574559722344 -80.88423079470346 60.024111642003774 -79.8630933201483 59.72323563826979 -78.97553787254864 C 59.60280500816178 -78.62029168213638 59.48251630879258 -78.28653616029123 59.36381957512139 -77.97395320471679 A 0.75 0.75 0 0 0 59.6514 -77.123A 97.5 97.5 0 0 1 59.8654 -76.957A 0.75 0.75 0 0 0 60.7611 -76.8901C 61.03432039883059 -77.08283352248576 61.32767579415017 -77.28234475423714 61.64181139242583 -77.48733796965325 C 62.42665783411961 -77.99948746457376 63.34070108288248 -78.54559159775108 64.39334567657055 -79.10445660109124 A 102 102 0 0 1 65.6372 -78.0755C 65.2854693917214 -76.93673933443232 64.92031288967247 -75.93655659418245 64.56430052833743 -75.06964469510424 C 64.42180144771137 -74.7226614037322 64.2807934280006 -74.39711746209711 64.1427036690431 -74.09260434715637 A 0.75 0.75 0 0 0 64.3763 -73.2253A 97.5 97.5 0 0 1 64.5794 -73.0462A 0.75 0.75 0 0 0 65.4691 -72.9232C 65.75395427315624 -73.09835147146644 66.05925821250742 -73.27904907569713 66.3856455664333 -73.46391304641048 C 67.20110142581825 -73.9257710154675 68.14763118126233 -74.41340428642155 69.233290045205 -74.90507039642077 A 102 102 0 0 1 70.4101 -73.8C 69.98754126462411 -72.68561371306095 69.56030332163536 -71.7103329714521 69.15055962084286 -70.86748592610664 C 68.98655446846837 -70.53013491830428 68.82538362264938 -70.21408733009001 68.66844581559695 -69.91884582992881 A 0.75 0.75 0 0 0 68.8471 -69.0386A 97.5 97.5 0 0 1 69.0386 -68.8471A 0.75 0.75 0 0 0 69.9188 -68.6684C 70.21408733009005 -68.82538362264934 70.53013491830433 -68.98655446846833 70.86748592610667 -69.15055962084281 C 71.71033297145215 -69.56030332163532 72.68561371306097 -69.98754126462407 73.80000224771267 -70.4100680997671 A 102 102 0 0 1 74.9051 -69.2333C 74.41340428642158 -68.14763118126228 73.92577101546755 -67.20110142581821 73.46391304641051 -66.38564556643325 C 73.27904907569717 -66.05925821250737 73.09835147146649 -65.7539542731562 72.9231849781455 -65.46914957109267 A 0.75 0.75 0 0 0 73.0462 -64.5794A 97.5 97.5 0 0 1 73.2253 -64.3763A 0.75 0.75 0 0 0 74.0926 -64.1427C 74.39711746209716 -64.28079342800056 74.72266140373225 -64.42180144771135 75.06964469510427 -64.56430052833738 C 75.93655659418248 -64.92031288967245 76.93673933443236 -65.28546939172138 78.07545955736245 -65.63718943162404 A 102 102 0 0 1 79.1045 -64.3933C 78.54559159775113 -63.340701082882454 77.99948746457379 -62.426657834119574 77.48733796965328 -61.641811392425794 C 77.28234475423719 -61.32767579415013 77.0828335224858 -61.03432039883055 76.89012964501944 -60.76107648890885 A 0.75 0.75 0 0 0 76.957 -59.8654A 97.5 97.5 0 0 1 77.123 -59.6514A 0.75 0.75 0 0 0 77.974 -59.3638C 78.28653616029132 -59.48251630879247 78.62029168213647 -59.60280500816167 78.97553787254873 -59.72323563826968 C 79.86309332014838 -60.02411164200366 80.88423079470354 -60.32574559722333 82.04278869742393 -60.605270763573714 A 102 102 0 0 1 82.9917 -59.2993C 82.36779534311185 -58.283794174942145 81.76537557123365 -57.40584474397669 81.20495577052725 -56.654705150317206 C 80.98064232497714 -56.35406105738325 80.76310484538877 -56.07381194581927 80.55362409794338 -55.8132071969186 A 0.75 0.75 0 0 0 80.5642 -54.9151A 97.5 97.5 0 0 1 80.7164 -54.6911A 0.75 0.75 0 0 0 81.5476 -54.3507C 81.86699366597705 -54.44948887269042 82.20764358746592 -54.54858352717631 82.56975068250141 -54.64647042208877 C 83.47444690275633 -54.89102264809212 84.51250914851805 -55.12794364506471 85.68633243228146 -55.334170779734144 A 102 102 0 0 1 86.5513 -53.9712C 85.86493103051951 -52.99686775872613 85.20857309556062 -52.158477010865184 84.60209470999025 -51.44400867005314 C 84.35934629699668 -51.158042587344475 84.12464109061983 -50.892005774745805 83.89921019800292 -50.64506867475107 A 0.75 0.75 0 0 0 83.8533 -49.748A 97.5 97.5 0 0 1 83.9912 -49.5149A 0.75 0.75 0 0 0 84.7994 -49.123C 85.12435954913488 -49.20157417961312 85.47055948065552 -49.27908370788651 85.83809840904112 -49.35404055274947 C 86.75636497928635 -49.541303865111416 87.80725523881614 -49.7125768849008 88.99171135939041 -49.84469210360496 A 102 102 0 0 1 89.7694 -48.4301C 89.02319706310527 -47.50078691743224 88.31549130997355 -46.705263597933296 87.66534783265348 -46.03028619010034 C 87.4051224693013 -45.76012669509995 87.15417581035894 -45.509352107225254 86.91368444531409 -45.27705720405532 A 0.75 0.75 0 0 0 86.8116 -44.3847A 97.5 97.5 0 0 1 86.9345 -44.1434A 0.75 0.75 0 0 0 87.7165 -43.7015C 88.04577847477296 -43.7594833513099 88.39616212335936 -43.81510185867342 88.7676823768573 -43.86683283306472 C 89.69589531845618 -43.99606818904387 90.75546620800576 -44.10101729528812 91.9458806582095 -44.15849919961649 A 102 102 0 0 1 92.6332 -42.6978C 91.83012920771309 -41.817242171220464 91.07386862769614 -41.06772584718557 90.38262587790902 -40.43490319979257 C 90.10595055482175 -40.181616488603076 89.83975281513008 -39.94709381818269 89.58515008720507 -39.73035787369491 A 0.75 0.75 0 0 0 89.4272 -38.8462A 97.5 97.5 0 0 1 89.5348 -38.5976A 0.75 0.75 0 0 0 90.2874 -38.1075C 90.61972093706106 -38.144693834025446 90.97290549852731 -38.1782018196402 91.34694085642847 -38.206502765037555 C 92.28143693696069 -38.27720013172586 93.3455068143009 -38.31541113824933 94.5371815721478 -38.298032873386504 A 102 102 0 0 1 95.1314 -36.7971C 94.27464978553337 -35.96866387463966 93.47281899363796 -35.26811254457833 92.74320499071844 -34.679942119505384 C 92.45117161899533 -34.444527799060175 92.17077335941877 -34.22718259993101 91.90306406926379 -34.026860971881064 A 0.75 0.75 0 0 0 91.6899 -33.1543A 97.5 97.5 0 0 1 91.7817 -32.8995A 0.75 0.75 0 0 0 92.5021 -32.3631C 92.83602876102306 -32.379364636830964 93.19062037725973 -32.390629859986085 93.56569469288699 -32.39538908548749 C 94.50278588325332 -32.407269452677184 95.56715535070559 -32.37859155809407 96.75538742035083 -32.28642170811209 A 102 102 0 0 1 97.2542 -30.7511C 96.34711139064082 -29.97813369426502 95.50287484668087 -29.32931211422555 94.73776904376955 -28.788115151430908 C 94.43153014571146 -28.571502294502203 94.13803797007877 -28.37219232886966 93.85827864395733 -28.189075595205196 A 0.75 0.75 0 0 0 93.5908 -27.3316A 97.5 97.5 0 0 1 93.6663 -27.0716A 0.75 0.75 0 0 0 94.3516 -26.491C 94.68595519221246 -26.48624888013959 95.04055445210776 -26.475226882145876 95.4151874784925 -26.456425605262552 C 96.3511755078808 -26.40944208657197 97.41164398542124 -26.313988469430505 98.59174395773752 -26.14739078661885 A 102 102 0 0 1 98.9932 -24.5838C 98.03933496389762 -23.869293515905724 97.15602448381718 -23.274762288246144 96.35844640397454 -22.782674644892587 C 96.03921056460487 -22.585718123465682 95.73378275244944 -22.40522997670805 95.44307747261186 -22.24004081551877 A 0.75 0.75 0 0 0 95.1223 -21.4011A 97.5 97.5 0 0 1 95.1813 -21.1368A 0.75 0.75 0 0 0 95.8288 -20.5143C 96.16219941615637 -20.488603999534416 96.51540687843249 -20.455338279182467 96.88812011017312 -20.4130506999648 C 97.81931106144364 -20.307388717877476 98.87169336447339 -20.145536089995915 100.03900392400637 -19.905168059297395 A 102 102 0 0 1 100.341 -18.3195C 99.34464207196358 -17.666252140882072 98.42574367868136 -17.12835760874248 97.59884099820978 -16.687321329944858 C 97.26786809554153 -16.51079844142895 96.95171003090124 -16.349844417804288 96.65120607827643 -16.203234755241656 A 0.75 0.75 0 0 0 96.2783 -15.3861A 97.5 97.5 0 0 1 96.3207 -15.1186A 0.75 0.75 0 0 0 96.9278 -14.4567C 97.25893537133472 -14.410099959295792 97.60935708750318 -14.354721801186177 97.97867959575049 -14.28911480938997 C 98.90139848363928 -14.125191363476842 99.941541339996 -13.897578483233993 101.09145564526068 -13.584388727452076 A 102 102 0 0 1 101.294 -11.9828C 100.25788126402126 -11.393490139601155 99.30702142969078 -10.914355126959263 98.45405755569419 -10.526110781419687 C 98.11265378856706 -10.370718181010112 97.78701320288418 -10.229933492516771 97.47789652928594 -10.102481929939339 A 0.75 0.75 0 0 0 97.0545 -9.31036A 97.5 97.5 0 0 1 97.0799 -9.04075A 0.75 0.75 0 0 0 97.6443 -8.342C 97.97183474198341 -8.274725837866361 98.31808775762296 -8.197453794289267 98.68256199516432 -8.10878631073816 C 99.59316726977102 -7.887248331950747 100.61696571079673 -7.594773483398498 101.74494557537611 -7.209998019416464 A 102 102 0 0 1 101.846 -5.59888C 100.77544840219892 -5.075763237929838 99.79637973617974 -4.65727867178458 98.92072092738667 -4.323358482562924 C 98.57023366049698 -4.189709433861369 98.23639570839215 -4.069649693346426 97.91988625610921 -3.9618592238446046 A 0.75 0.75 0 0 0 97.4475 -3.19789A 97.5 97.5 0 0 1 97.456 -2.92721A 0.75 0.75 0 0 0 97.9754 -2.1944" stroke="#191919" stroke-width="0.35 px" style="stroke-width:0.35;stroke-miterlimit:4;stroke-dasharray:none;fill:none;fill-rule: evenodd "/>
<title>b'InvoluteGear'</title>
</g>
</svg>