<?xml version="1.0"?>
<!DOCTYPE svg PUBLIC "-//W3C//DTD SVG 1.1//EN" "http://www.w3.org/Graphics/SVG/1.1/DTD/svg11.dtd">
<svg width="50.844918324001526mm" height="50.96139696072677mm" viewBox="0 0 50.844918324001526 50.96139696072677" xmlns="http://www.w3.org/2000/svg" version="1.1">
<g id="InvoluteGear" transform="translate(25.354416,25.480698) scale(1,-1)">
<path id="InvoluteGear_w0000"  d="M 21.163300213714347 -1.7648580861356278 L 21.575713171515154 -1.7977477893529825 C 21.674894593755173 -1.8001782685443903 21.9735965469995 -1.7959111069172438 22.471429071831707 -1.6898237257675353 C 23.067499880065366 -1.5610710047909333 23.927153917747333 -1.2875413508193612 24.99202253959098 -0.710093912369451 A 25 25 0 0 1 24.992 0.710094C 23.927153917747333 1.2875413508193612 23.067499880065366 1.5610710047909333 22.471429071831707 1.6898237257675353 C 21.9735965469995 1.7959111069172438 21.674894593755173 1.8001782685443903 21.575713171515154 1.7977477893529825 L 21.163300213714347 1.7648580861356264 A 0.75 0.75 0 0 0 20.3563 2.42315A 20.5 20.5 0 0 1 20.2552 3.15877A 0.75 0.75 0 0 0 20.8547 4.01038L 21.260653748631672 4.089975324425591 C 21.35681299012853 4.114393801474764 21.64328699824304 4.1990915476970665 22.09403650971328 4.435558528752255 C 22.633266327047675 4.7203547290160905 23.387244643612746 5.215673045106273 24.25683159393354 6.059005282004242 A 25 25 0 0 1 23.8737 7.42653C 22.692495645248314 7.695264694864475 21.790922493768786 7.72671924359727 21.18221853964005 7.6898794849763075 C 20.674224962380418 7.657719250478139 20.385448421407894 7.58123935165321 20.290600650787443 7.552140173744146 L 19.902354619927163 7.409202425542439 A 0.75 0.75 0 0 0 18.9477 7.82535A 20.5 20.5 0 0 1 18.6518 8.50641A 0.75 0.75 0 0 0 18.9993 9.48818L 19.368788898231298 9.674363678783635 C 19.454794267942443 9.723820105337749 19.70779386427666 9.882666791784306 20.07803033316099 10.231975698524568 C 20.520426950856702 10.651693346757995 21.11281042378654 11.332064831392898 21.72262241657478 12.378735772716476 A 25 25 0 0 1 20.9847 13.5922C 19.774838782001176 13.53226545998502 18.898212072946592 13.319312063494511 18.32201976056521 13.119612061642222 C 17.84154069058752 12.951589388965619 17.584106796865957 12.800034593912203 17.50062710311232 12.746424870191117 L 17.165342431194063 12.504040115892494 A 0.75 0.75 0 0 0 16.1338 12.6472A 20.5 20.5 0 0 1 15.6652 13.2232A 0.75 0.75 0 0 0 15.7349 14.2623L 16.04042958156244 14.541248736355234 C 16.10990245466477 14.612075155504872 16.31066381655473 14.833289850117177 16.572928497675143 15.269534038911509 C 16.885681382427546 15.79304459722553 17.272535639509 16.60800920988222 17.57734570896383 17.780392060114384 A 25 25 0 0 1 16.5394 18.7497C 15.39057259016095 18.365640001933713 14.60390771624154 17.92407243944064 14.102960593512407 17.576323029927686 C 13.685630965391415 17.28489939205249 13.478632413136445 17.069509826602648 13.412712103241134 16.995365545029763 L 13.155255320555767 16.671510353024082 A 0.75 0.75 0 0 0 12.1233 16.531A 20.5 20.5 0 0 1 11.5167 16.9592A 0.75 0.75 0 0 0 11.3035 17.9786L 11.522424982911696 18.32967589693796 C 11.570212874224465 18.416619437184096 11.703846449880908 18.68379565805265 11.838688371619787 19.174620893102542 C 11.998602072716032 19.763097978288453 12.15123590344185 20.65221352186121 12.128437681125076 21.86335800829491 A 25 25 0 0 1 10.8675 22.5167C 9.864858036493173 21.836919042151468 9.226498332655208 21.19948635972875 8.83794935599054 20.729478525411018 C 8.51472059908797 20.336267480384006 8.373509523964975 20.07301760326545 8.330037605747576 19.983837706017514 L 8.169503104080464 19.602530934356913 A 0.75 0.75 0 0 0 7.21374 19.1889A 20.5 20.5 0 0 1 6.51407 19.4375A 0.75 0.75 0 0 0 6.03375 20.3616L 6.149854834865252 20.758674848932447 C 6.1724135351048455 20.855287305635258 6.229008333554263 21.148609814708117 6.226426887436982 21.657613833705962 C 6.22164133722327 22.26741279245906 6.128734588621823 23.164737634514054 5.78001891438776 24.324818711207847 A 25 25 0 0 1 4.38954 24.6138C 3.607512090981343 23.688653694270272 3.1648017761571534 22.90263135791272 2.9174678456628795 22.345223429718782 C 2.712312358205023 21.879387641928766 2.64736173965819 21.58780149223933 2.6295623264220964 21.490200044324336 L 2.577856215365408 21.079721471900474 A 0.75 0.75 0 0 0 1.76914 20.4235A 20.5 20.5 0 0 1 1.02834 20.4742A 0.75 0.75 0 0 0 0.316509 21.2344L 0.3211780874306911 21.648097852000078 C 0.3168345209995269 21.7472139212185 0.29219316494490055 22.04492832985892 0.15237980502064574 22.534360633254096 C -0.016750074136108184 23.120255466448267 -0.34830693354114195 23.959239128438288 -0.997077413402615 24.9822188889516 A 25 25 0 0 1 -2.41395 24.8853C -2.9173865230488945 23.783509270264847 -3.1316136500737253 22.90719296084718 -3.2193889082502904 22.303725334839584 C -3.29125568228259 21.79981371361002 -3.2751287540049487 21.50151690215429 -3.2659355612069145 21.40273255646718 L -3.204978475935823 20.993525501182216 A 0.75 0.75 0 0 0 -3.80666 20.1435A 20.5 20.5 0 0 1 -4.53367 19.9924A 0.75 0.75 0 0 0 -5.4242 20.5324L -5.5313189694566205 20.931980470842824 C -5.562242660106838 21.02624916714877 -5.666292634013638 21.306275359620688 -5.932968590442847 21.739836992474178 C -6.253899209123301 22.258374560621935 -6.799516123841557 22.976793462432045 -7.700225070766574 23.786802177748605 A 25 25 0 0 1 -9.03841 23.3112C -9.225915924819883 22.114450765999056 -9.195771618057819 21.212832855310413 -9.117478314562804 20.608061964629453 C -9.050726345308187 20.103447329664665 -8.954717930700635 19.820563166331205 -8.919213948922245 19.727922305883276 L -8.75011457547782 19.350335783029983 A 0.75 0.75 0 0 0 -9.10014 18.3695A 20.5 20.5 0 0 1 -9.75943 18.0279A 0.75 0.75 0 0 0 -10.7626 18.3075L -10.973583402479873 18.66343385560209 C -11.028793748680089 18.745863701041134 -11.204535429871354 18.987433415683505 -11.578295847078486 19.332969095099052 C -12.027225249454998 19.7456918389224 -12.74643630895312 20.290264137153137 -13.832282260817506 20.827227166401222 A 25 25 0 0 1 -14.9925 20.0082C -14.850201348203948 18.8052646152997 -14.577921272986503 17.945213979148374 -14.339366063972104 17.383992914113122 C -14.138946039620246 16.916100224430096 -13.970176643584955 16.66960893350441 -13.910995040734802 16.589982307111352 L -13.646294706067259 16.272020181746356 A 0.75 0.75 0 0 0 -13.7187 15.2331A 20.5 20.5 0 0 1 -14.2614 14.7263A 0.75 0.75 0 0 0 -15.3028 14.7249L -15.601987355344889 15.010705730820062 C -15.67738965828796 15.075183280847448 -15.91178909023443 15.260380397033147 -16.364913867915366 15.492263322389064 C -16.908547013929038 15.768561484059546 -17.748011624095717 16.098898742603627 -18.938462354064388 16.322991994346314 A 25 25 0 0 1 -19.8347 15.2213C -19.373115272742474 14.10137801644483 -18.87889319665007 13.346680676044304 -18.497768630651418 12.87063263563289 C -18.17854478754789 12.474163351558792 -17.949531264120186 12.282346064466214 -17.871061268943848 12.221639214740025 L -17.53039158595202 11.986883283121706 A 0.75 0.75 0 0 0 -17.3198 10.9669A 20.5 20.5 0 0 1 -17.7056 10.3325A 0.75 0.75 0 0 0 -18.7081 10.0502L -19.073263280406856 10.244702231392552 C -19.16326529622608 10.286445481087908 -19.438938145366336 10.40153477592988 -19.937821091668408 10.502567251446308 C -20.535839197835557 10.621949060292811 -21.43329810882979 10.713551675876426 -22.640063332210683 10.60815517879037 A 25 25 0 0 1 -23.2059 9.30554C -22.459213863606863 8.351656719622197 -21.779703977107708 7.758285124199377 -21.284276319656055 7.402716413794239 C -20.869924029891934 7.1070748484025525 -20.59765126443729 6.984157775821042 -20.505712637500658 6.946873052090552 L -20.114339518111947 6.812734087730117 A 0.75 0.75 0 0 0 -19.6364 5.88743A 20.5 20.5 0 0 1 -19.8367 5.17243A 0.75 0.75 0 0 0 -20.7259 4.63016L -21.129962522334633 4.718896033856852 C -21.22788921324852 4.734809077352938 -21.524390085481198 4.771254904351242 -22.0320313345148 4.733943813511951 C -22.640082133651813 4.687555266907763 -23.528974923646487 4.533629492587158 -24.662554384405 4.106560022704341 A 25 25 0 0 1 -24.8559 2.6996C -23.87961530627434 1.9825312501924106 -23.065213749099197 1.5944930564853816 -22.492226603117 1.3857745807186563 C -22.013476480488503 1.2128871164443142 -21.718137698455667 1.167986455339051 -21.619549107127394 1.1568890949970894 L -21.206498905193982 1.1333155712362224 A 0.75 0.75 0 0 0 -20.4966 0.371268A 20.5 20.5 0 0 1 -20.4966 -0.371268A 0.75 0.75 0 0 0 -21.2065 -1.13332L -21.619549107127394 -1.1568890949970845 C -21.718137698455667 -1.1679864553390462 -22.013476480488503 -1.2128871164443094 -22.492226603117 -1.3857745807186508 C -23.065213749099197 -1.5944930564853759 -23.87961530627434 -1.982531250192405 -24.855936601586983 -2.6995999040035974 A 25 25 0 0 1 -24.6626 -4.10656C -23.528974923646487 -4.533629492587153 -22.640082133651813 -4.687555266907758 -22.0320313345148 -4.733943813511947 C -21.524390085481198 -4.7712549043512364 -21.22788921324852 -4.734809077352932 -21.129962522334633 -4.718896033856848 L -20.725869281754974 -4.6301557766025 A 0.75 0.75 0 0 0 -19.8367 -5.17243A 20.5 20.5 0 0 1 -19.6364 -5.88743A 0.75 0.75 0 0 0 -20.1143 -6.81273L -20.505712637500665 -6.946873052090537 C -20.597651264437296 -6.9841577758210285 -20.86992402989194 -7.107074848402538 -21.28427631965606 -7.402716413794225 C -21.779703977107715 -7.758285124199363 -22.459213863606866 -8.35165671962218 -23.205867709373035 -9.305542855679388 A 25 25 0 0 1 -22.6401 -10.6082C -21.4332981088298 -10.713551675876413 -20.535839197835564 -10.621949060292797 -19.937821091668418 -10.502567251446296 C -19.438938145366343 -10.401534775929866 -19.163265296226086 -10.286445481087895 -19.073263280406863 -10.244702231392537 L -18.708096748231185 -10.050229652043868 A 0.75 0.75 0 0 0 -17.7056 -10.3325A 20.5 20.5 0 0 1 -17.3198 -10.9669A 0.75 0.75 0 0 0 -17.5304 -11.9869L -17.87106126894385 -12.221639214740023 C -17.94953126412019 -12.282346064466212 -18.178544787547892 -12.47416335155879 -18.49776863065142 -12.870632635632887 C -18.87889319665007 -13.346680676044302 -19.373115272742478 -14.101378016444828 -19.83472576893575 -15.221336263775394 A 25 25 0 0 1 -18.9385 -16.323C -17.74801162409572 -16.098898742603627 -16.908547013929038 -15.768561484059544 -16.36491386791537 -15.49226332238906 C -15.911789090234434 -15.260380397033146 -15.677389658287964 -15.075183280847446 -15.601987355344892 -15.01070573082006 L -15.302830262738937 -14.724923970934501 A 0.75 0.75 0 0 0 -14.2614 -14.7263A 20.5 20.5 0 0 1 -13.7187 -15.2331A 0.75 0.75 0 0 0 -13.6463 -16.272L -13.910995040734809 -16.58998230711135 C -13.970176643584962 -16.669608933504406 -14.138946039620253 -16.916100224430092 -14.339366063972111 -17.383992914113115 C -14.57792127298651 -17.94521397914837 -14.850201348203955 -18.805264615299695 -14.992532956049187 -20.008232794167174 A 25 25 0 0 1 -13.8323 -20.8272C -12.746436308953127 -20.290264137153134 -12.027225249455006 -19.745691838922397 -11.578295847078493 -19.332969095099052 C -11.204535429871362 -18.9874334156835 -11.028793748680096 -18.74586370104113 -10.97358340247988 -18.663433855602086 L -10.762622862449593 -18.307538040945794 A 0.75 0.75 0 0 0 -9.75943 -18.0279A 20.5 20.5 0 0 1 -9.10014 -18.3695A 0.75 0.75 0 0 0 -8.75011 -19.3503L -8.91921394892225 -19.727922305883276 C -8.95471793070064 -19.8205631663312 -9.050726345308192 -20.103447329664665 -9.117478314562808 -20.60806196462945 C -9.195771618057822 -21.21283285531041 -9.225915924819889 -22.114450765999052 -9.038412560086979 -23.31121022979008 A 25 25 0 0 1 -7.70023 -23.7868C -6.7995161238415625 -22.976793462432042 -6.253899209123307 -22.25837456062193 -5.932968590442852 -21.739836992474174 C -5.666292634013644 -21.306275359620688 -5.562242660106843 -21.026249167148766 -5.531318969456626 -20.931980470842824 L -5.424200960175803 -20.532365765873838 A 0.75 0.75 0 0 0 -4.53367 -19.9924A 20.5 20.5 0 0 1 -3.80666 -20.1435A 0.75 0.75 0 0 0 -3.20498 -20.9935L -3.2659355612069243 -21.40273255646718 C -3.2751287540049585 -21.50151690215429 -3.2912556822826 -21.799813713610018 -3.2193889082503 -22.303725334839584 C -3.131613650073736 -22.907192960847176 -2.917386523048905 -23.783509270264844 -2.4139544525292758 -24.885301844360292 A 25 25 0 0 1 -0.997077 -24.9822C -0.34830693354115283 -23.95923912843829 -0.016750074136118842 -23.12025546644827 0.15237980502063553 -22.534360633254096 C 0.29219316494489056 -22.044928329858923 0.3168345209995169 -21.7472139212185 0.3211780874306813 -21.648097852000078 L 0.3165091132459679 -21.234401851270317 A 0.75 0.75 0 0 0 1.02834 -20.4742A 20.5 20.5 0 0 1 1.76914 -20.4235A 0.75 0.75 0 0 0 2.57786 -21.0797L 2.6295623264220813 -21.49020004432434 C 2.6473617396581743 -21.587801492239336 2.7123123582050073 -21.879387641928773 2.9174678456628635 -22.34522342971879 C 3.1648017761571374 -22.902631357912725 3.607512090981327 -23.68865369427028 4.389535613665712 -24.613764463815123 A 25 25 0 0 1 5.78002 -24.3248C 6.128734588621807 -23.16473763451406 6.221641337223254 -22.267412792459062 6.226426887436966 -21.65761383370597 C 6.229008333554248 -21.148609814708124 6.17241353510483 -20.855287305635265 6.149854834865237 -20.75867484893245 L 6.033745153671134 -20.361579492282768 A 0.75 0.75 0 0 0 6.51407 -19.4375A 20.5 20.5 0 0 1 7.21374 -19.1889A 0.75 0.75 0 0 0 8.1695 -19.6025L 8.330037605747563 -19.983837706017518 C 8.37350952396496 -20.073017603265455 8.514720599087958 -20.33626748038401 8.837949355990528 -20.729478525411025 C 9.226498332655193 -21.199486359728756 9.86485803649316 -21.83691904215147 10.867473904184369 -22.516736773468743 A 25 25 0 0 1 12.1284 -21.8634C 12.151235903441837 -20.65221352186122 11.998602072716022 -19.76309797828846 11.838688371619774 -19.17462089310255 C 11.703846449880896 -18.68379565805266 11.570212874224454 -18.41661943718411 11.522424982911684 -18.32967589693797 L 11.303485918595909 -17.97863193038069 A 0.75 0.75 0 0 0 11.5167 -16.9592A 20.5 20.5 0 0 1 12.1233 -16.531A 0.75 0.75 0 0 0 13.1553 -16.6715L 13.412712103241116 -16.995365545029777 C 13.478632413136427 -17.06950982660266 13.6856309653914 -17.284899392052502 14.10296059351239 -17.576323029927696 C 14.603907716241524 -17.924072439440646 15.390572590160934 -18.365640001933727 16.539421370614704 -18.749745723850797 A 25 25 0 0 1 17.5773 -17.7804C 17.272535639508988 -16.608009209882233 16.885681382427528 -15.793044597225542 16.57292849767513 -15.269534038911521 C 16.310663816554715 -14.83328985011719 16.109902454664756 -14.612075155504883 16.040429581562424 -14.541248736355248 L 15.734898842945704 -14.262291484970635 A 0.75 0.75 0 0 0 15.6652 -13.2232A 20.5 20.5 0 0 1 16.1338 -12.6472A 0.75 0.75 0 0 0 17.1653 -12.504L 17.50062710311232 -12.746424870191117 C 17.584106796865957 -12.800034593912203 17.84154069058752 -12.951589388965619 18.32201976056521 -13.119612061642222 C 18.898212072946592 -13.319312063494511 19.774838782001176 -13.53226545998502 20.984715616804714 -13.592171808274061 A 25 25 0 0 1 21.7226 -12.3787C 21.11281042378654 -11.332064831392898 20.520426950856702 -10.651693346757995 20.07803033316099 -10.231975698524568 C 19.70779386427666 -9.882666791784306 19.454794267942443 -9.723820105337749 19.368788898231298 -9.674363678783635 L 18.999326302486708 -9.488182125762378 A 0.75 0.75 0 0 0 18.6518 -8.50641A 20.5 20.5 0 0 1 18.9477 -7.82535A 0.75 0.75 0 0 0 19.9024 -7.4092L 20.29060065078744 -7.552140173744148 C 20.38544842140789 -7.5812393516532115 20.674224962380414 -7.6577192504781415 21.182218539640047 -7.68987948497631 C 21.790922493768782 -7.726719243597271 22.692495645248314 -7.695264694864477 23.87366950438247 -7.426528689726201 A 25 25 0 0 1 24.2568 -6.05901C 23.387244643612746 -5.215673045106277 22.63326632704767 -4.720354729016094 22.094036509713277 -4.435558528752257 C 21.643286998243035 -4.199091547697069 21.356812990128528 -4.114393801474767 21.26065374863167 -4.089975324425595 L 20.854660646306677 -4.010377703831349 A 0.75 0.75 0 0 0 20.2552 -3.15877A 20.5 20.5 0 0 1 20.3563 -2.42315A 0.75 0.75 0 0 0 21.1633 -1.76486" stroke="#191919" stroke-width="0.35 px" style="stroke-width:0.35;stroke-miterlimit:4;stroke-dasharray:none;fill:none;fill-rule: evenodd "/>
<title>b'InvoluteGear'</title>
</g>
</svg>