<?xml version="1.0"?>
<!DOCTYPE svg PUBLIC "-//W3C//DTD SVG 1.1//EN" "http://www.w3.org/Graphics/SVG/1.1/DTD/svg11.dtd">
<svg width="17.6555646054313mm" height="18.10070748872308mm" viewBox="0 0 17.6555646054313 18.10070748872308" xmlns="http://www.w3.org/2000/svg" version="1.1">
<g id="InvoluteGear" transform="translate(8.492797,9.050354) scale(1,-1)">
<path id="InvoluteGear_w0000"  d="M 5.04807877905308 -1.23162520292253 L 6.420746199749737 -1.5644179046651414 C 6.497846595481665 -1.575566192746769 6.728461366097037 -1.5944752738992383 7.124306593784095 -1.5029909887933235 C 7.591086133401082 -1.389584784277191 8.24444125961112 -1.121950544414625 8.989673965320263 -0.5077091018198707 A 9 9 0 0 1 8.98967 0.507709C 8.24444125961112 1.121950544414625 7.591086133401082 1.389584784277191 7.124306593784095 1.5029909887933235 C 6.728461366097037 1.5944752738992383 6.497846595481665 1.575566192746769 6.420746199749737 1.5644179046651414 L 5.048078779053081 1.2316252029225292 A 0.75 0.75 0 0 0 4.17698 1.67416A 4.5 4.5 0 0 1 3.91322 2.22188A 0.75 0.75 0 0 0 4.11035 3.17884L 5.226380945471057 4.0445429104973805 C 5.283168338527026 4.097871583264268 5.4417380111132445 4.266383851992425 5.617018179443688 4.632907631976766 C 5.819385921113274 5.0685581834045745 6.017501304786404 5.74623900948998 6.001912999150488 6.711858675915045 A 9 9 0 0 1 5.20803 7.34496C 4.263148789995406 7.145288454754725 3.6465436573003673 6.801342067034367 3.26684683363494 6.50710673957319 C 2.9485160768107264 6.254661997176597 2.819513834123595 6.062570489926272 2.7801586062633046 5.995340129305228 L 2.1845022794731745 4.714652669176862 A 0.75 0.75 0 0 0 1.2954 4.30952A 4.5 4.5 0 0 1 0.702719 4.44479A 0.75 0.75 0 0 0 0.0774426 5.19558L 0.09644424051028189 6.607880420415457 C 0.09015656566743457 6.685528475730716 0.05727494253523435 6.9145689189633535 -0.1199994903075956 7.280132311775342 C -0.3344305836122443 7.709973459237953 -0.7407398671992282 8.28739338733429 -1.5054108720928734 8.877259973720058 A 9 9 0 0 1 -2.49537 8.65131C -2.9283816708740495 7.788078421342416 -3.0439205686822275 7.091550051220264 -3.0506152237723345 6.611238394666913 C -3.0517219570810172 6.204960664726737 -2.98197035193031 5.984335554290705 -2.953945122639817 5.9116489539273225 L -2.324048992275719 4.6474505141531335 A 0.75 0.75 0 0 0 -2.56165 3.69972A 4.5 4.5 0 0 1 -3.03694 3.32069A 0.75 0.75 0 0 0 -4.01378 3.29994L -5.106116944658713 4.1953491975646955 C -5.17074493999852 4.238846066044262 -5.370317325967717 4.355942558453613 -5.766655096313752 4.445268873171576 C -6.236414037737071 4.545621465468157 -6.941188810844228 4.587971512498892 -7.879129651864824 4.357903448211325 A 9 9 0 0 1 -8.3197 3.44304C -7.914781005475422 2.5662864888113974 -7.442250521783177 2.041676205578861 -7.0709017964690375 1.7369726938902599 C -6.753951113507506 1.4827973936068202 -6.537970041870888 1.3997738880754995 -6.463667924695847 1.3763655405798414 L -5.082543970881129 1.0806233312583506 A 0.75 0.75 0 0 0 -4.48972 0.30396A 4.5 4.5 0 0 1 -4.48972 -0.30396A 0.75 0.75 0 0 0 -5.08254 -1.08062L -6.463667924695848 -1.3763655405798398 C -6.537970041870887 -1.3997738880754982 -6.753951113507506 -1.4827973936068186 -7.070901796469038 -1.736972693890258 C -7.442250521783178 -2.0416762055788595 -7.914781005475423 -2.5662864888113956 -8.319703098828072 -3.443043258830517 A 9 9 0 0 1 -7.87913 -4.3579C -6.941188810844229 -4.58797151249889 -6.236414037737072 -4.545621465468155 -5.766655096313753 -4.445268873171575 C -5.370317325967719 -4.355942558453611 -5.170744939998521 -4.23884606604426 -5.106116944658714 -4.195349197564694 L -4.013779674410233 -3.299935260772746 A 0.75 0.75 0 0 0 -3.03694 -3.32069A 4.5 4.5 0 0 1 -2.56165 -3.69972A 0.75 0.75 0 0 0 -2.32405 -4.64745L -2.9539451226398183 -5.911648953927321 C -2.981970351930311 -5.984335554290704 -3.0517219570810186 -6.204960664726736 -3.0506152237723363 -6.611238394666911 C -3.043920568682229 -7.091550051220263 -2.9283816708740518 -7.788078421342415 -2.4953704213587864 -8.651308166689898 A 9 9 0 0 1 -1.50541 -8.87726C -0.7407398671992307 -8.28739338733429 -0.3344305836122463 -7.709973459237952 -0.1199994903075976 -7.280132311775342 C 0.057274942535232576 -6.914568918963354 0.0901565656674328 -6.685528475730715 0.09644424051028011 -6.607880420415457 L 0.07744258307583207 -5.195575295030046 A 0.75 0.75 0 0 0 0.702719 -4.44479A 4.5 4.5 0 0 1 1.2954 -4.30952A 0.75 0.75 0 0 0 2.1845 -4.71465L 2.7801586062633024 -5.99534012930523 C 2.819513834123592 -6.062570489926274 2.948516076810725 -6.254661997176599 3.266846833634939 -6.50710673957319 C 3.6465436573003656 -6.801342067034369 4.263148789995404 -7.145288454754727 5.208027079673803 -7.344961570506141 A 9 9 0 0 1 6.00191 -6.71186C 6.0175013047864025 -5.746239009489981 5.819385921113272 -5.068558183404576 5.617018179443687 -4.632907631976768 C 5.4417380111132445 -4.266383851992427 5.283168338527025 -4.097871583264269 5.226380945471055 -4.044542910497382 L 4.1103489959649915 -3.1788411617080827 A 0.75 0.75 0 0 0 3.91322 -2.22188A 4.5 4.5 0 0 1 4.17698 -1.67416A 0.75 0.75 0 0 0 5.04808 -1.23163" stroke="#191919" stroke-width="0.35 px" style="stroke-width:0.35;stroke-miterlimit:4;stroke-dasharray:none;fill:none;fill-rule: evenodd "/>
<title>b'InvoluteGear'</title>
</g>
</svg>