<?xml version="1.0"?>
<!DOCTYPE svg PUBLIC "-//W3C//DTD SVG 1.1//EN" "http://www.w3.org/Graphics/SVG/1.1/DTD/svg11.dtd">
<svg width="167.27240531251937mm" height="167.27240531251937mm" viewBox="0 0 167.27240531251937 167.27240531251937" xmlns="http://www.w3.org/2000/svg" version="1.1">
<g id="InvoluteGear" transform="translate(83.636203,83.636203) scale(1,-1)">
<path id="InvoluteGear_w0000"  d="M 77.96989171583098 -2.1670223398914024 C 78.28723816794195 -2.0886373469472277 78.62975225084557 -1.9961011079915314 78.9964573817061 -1.8869503463872621 C 79.86639633435541 -1.6279897649007933 80.87142019159042 -1.2759546539441087 81.99627711398007 -0.7988563861679849 A 82 82 0 0 1 81.9963 0.798856C 80.87142019159042 1.2759546539441087 79.86639633435541 1.6279897649007933 78.9964573817061 1.8869503463872621 C 78.62975225084557 1.9961011079915314 78.28723816794195 2.0886373469472277 77.96989722009262 2.167020429117387 A 0.75 0.75 0 0 0 77.4459 2.89552A 77.5 77.5 0 0 1 77.4343 3.18974A 0.75 0.75 0 0 0 77.8996 3.95711C 78.20977733725994 4.06014713863309 78.54397525392375 4.179271464465164 78.900986085194 4.316857103664709 C 79.74792549332717 4.643274019665475 80.72223084094996 5.073077186884428 81.80618750618687 5.636959976878394 A 82 82 0 0 1 81.6808 7.22975C 80.52201034427357 7.617119810033102 79.49246428371056 7.889216451204917 78.60488924947222 8.079124120079094 C 78.230750678095 8.159167053346485 77.88203214217017 8.224544688741219 77.55951958480844 8.277787858222402 A 0.75 0.75 0 0 0 76.98 8.96293A 77.5 77.5 0 0 1 76.9454 9.25533A 0.75 0.75 0 0 0 77.3489 10.0568C 77.65012722190366 10.183899466967805 77.97394853103933 10.328877438594645 78.31906397222639 10.494049694171935 C 79.13778217275632 10.885910475855212 80.0753620943094 11.390831819886472 81.11173554910022 12.038022607187912 A 82 82 0 0 1 80.8618 13.6161C 79.67615552689871 13.911322889543872 78.62843475682988 14.101803494656679 77.72869583623725 14.221487406989244 C 77.34943051304958 14.271929020619186 76.99665748983819 14.30974497759048 76.6709617201265 14.337519972537688 A 0.75 0.75 0 0 0 76.0394 14.9751A 77.5 77.5 0 0 1 75.982 15.2639A 0.75 0.75 0 0 0 76.3215 16.0946C 76.6117382509368 16.244864668598442 76.923186486492 16.4148024486149 77.2542787861384 16.606542978688953 C 78.03972810910741 17.061431674028732 78.93480211259745 17.63835818688296 79.91720276996423 18.36486682507539 A 82 82 0 0 1 79.5442 19.9184C 78.33907071569021 20.119758037456315 77.27963478306552 20.227448230238366 76.3732791657576 20.276170494910854 C 75.99122538759548 20.29669979958178 75.63657284009453 20.306720930179825 75.30970188075798 20.30885650851308 A 0.75 0.75 0 0 0 74.6301 20.8949A 77.5 77.5 0 0 1 74.5502 21.1783A 0.75 0.75 0 0 0 74.8234 22.0331C 75.10101243766475 22.2056748775815 75.39816741770025 22.399524743063733 75.71319528167932 22.61665140350644 C 76.4605331708229 23.131763472430112 77.30758282737605 23.77713821030803 78.22995386058477 24.578485532048347 A 82 82 0 0 1 77.7362 26.098C 76.51899948313499 26.204148186569377 75.45438016277727 26.22838402117154 74.5469958325286 26.205844249220444 C 74.16450908798015 26.196334674942374 73.81016356707896 26.17849919556467 73.4841326862775 26.1549821907334 A 0.75 0.75 0 0 0 72.7607 26.6859A 77.5 77.5 0 0 1 72.6587 26.9621A 0.75 0.75 0 0 0 72.8641 27.8357C 73.12726390909366 28.02957971680807 73.40829357434346 28.24614651887375 73.70531475111639 28.487320651621545 C 74.4099336198329 29.05948025693205 75.20373658664394 29.769324269965765 76.06039127155536 30.640569702540418 A 82 82 0 0 1 75.449 32.1167C 74.22716317361684 32.12698104834873 73.16392419765795 32.06761310279146 72.26110548060043 31.973950259406095 C 71.88054392763554 31.934460435866704 71.5286900913023 31.888878308174508 71.20550937783234 31.839853710333696 A 0.75 0.75 0 0 0 70.4426 32.3124A 77.5 77.5 0 0 1 70.3193 32.5798A 0.75 0.75 0 0 0 70.4555 33.4668C 70.70266148124014 33.68067287629942 70.96583319036614 33.91862140859805 71.24301644560855 34.182356094924 C 71.9005720842628 34.80803568239222 72.63623430207505 35.577972546194296 73.42189107769013 36.513744571792955 A 82 82 0 0 1 72.6965 37.9373C 71.47769172009689 37.851740388659714 70.42238831038644 37.70913468606921 69.52970138412842 37.54492623382511 C 69.15341131127067 37.475699628918214 68.80621845540963 37.40265188188635 68.4878804258382 37.32842194398401 A 0.75 0.75 0 0 0 67.6903 37.7396A 77.5 77.5 0 0 1 67.5464 37.9965A 0.75 0.75 0 0 0 67.6125 38.8915C 67.84215363433404 39.12411348754814 68.08584484623601 39.38197671825217 68.34148125300655 39.6666459461144 C 68.94791961242679 40.34198799302403 69.62090547903495 41.167270790799115 70.3307205100746 42.1618000637082 A 82 82 0 0 1 69.4959 43.5241C 68.28753652837807 43.34313116249367 67.24667498136095 43.118166914447606 66.36962355765132 42.8844252530577 C 65.99992491832903 42.78588867182274 65.65953360234994 42.68582566910249 65.34800091648748 42.586848043389764 A 0.75 0.75 0 0 0 64.5206 42.9342A 77.5 77.5 0 0 1 64.357 43.179A 0.75 0.75 0 0 0 64.3527 44.0764C 64.56337635046692 44.326340929058176 64.78608462778793 44.60252904560211 65.0185981026311 44.90637773454873 C 65.57018028867031 45.627218532606534 66.17634062241622 46.502759121471996 66.80593766317665 47.54991403800946 A 82 82 0 0 1 65.8668 48.8425C 64.67636596605162 48.56729711965717 63.65636353928676 48.26136130555297 62.80035493180189 47.9595275300867 C 62.439527041063755 47.83228848331373 62.10803589062121 47.705827146591204 61.80522925107119 47.582712063044 A 0.75 0.75 0 0 0 60.9531 47.8641A 77.5 77.5 0 0 1 60.7708 48.0953A 0.75 0.75 0 0 0 60.6961 48.9896C 60.88654438189791 49.255281738736464 61.08689665405026 49.54809194953992 61.29485367407509 49.869246771363635 C 61.78817899913664 50.6311420973457 62.32377661999398 51.55154247842438 62.86927399535664 52.64486698031544 A 82 82 0 0 1 61.8316 53.8598C 60.66644410047034 53.49202953981283 59.673589448103975 53.10700835567842 58.843901234560754 52.738943371731466 C 58.49416871634062 52.58378633045511 58.17362148460909 52.431706335923856 57.88140779499778 52.28521283997217 A 0.75 0.75 0 0 0 57.0098 52.4989A 77.5 77.5 0 0 1 56.81 52.7151A 0.75 0.75 0 0 0 56.6654 53.6007C 56.83432662038393 53.88054735745219 57.0110876489859 54.1881743901963 57.193206090011216 54.52465531862574 C 57.62523303941878 55.32290783449149 58.086965809950684 56.282493433369844 58.54500034720019 57.415246811493056 A 82 82 0 0 1 57.4152 58.545C 56.28249343336985 58.08696580995068 55.322907834491495 57.625233039418774 54.52465531862575 57.19320609001121 C 54.188174390196316 57.011087648985885 53.8805473574522 56.83432662038392 53.60072821234695 56.66535789314431 A 0.75 0.75 0 0 0 52.7151 56.81A 77.5 77.5 0 0 1 52.4989 57.0098A 0.75 0.75 0 0 0 52.2852 57.8814C 52.43170633592387 58.173621484609086 52.583786330455126 58.49416871634061 52.73894337173148 58.84390123456075 C 53.107008355678424 59.67358944810397 53.49202953981284 60.66644410047033 53.85977730371509 61.83164255357083 A 82 82 0 0 1 52.6449 62.8693C 51.55154247842439 62.323776619993964 50.63114209734571 61.78817899913663 49.86924677136365 61.294853674075085 C 49.54809194953994 61.08689665405025 49.25528173873648 60.886544381897906 48.98958231621617 60.69614217176162 A 0.75 0.75 0 0 0 48.0953 60.7708A 77.5 77.5 0 0 1 47.8641 60.9531A 0.75 0.75 0 0 0 47.5827 61.8052C 47.705827146591204 62.108035890621196 47.83228848331374 62.43952704106375 47.95952753008672 62.80035493180188 C 48.261361305552974 63.656363539286744 48.56729711965718 64.6763659660516 48.842490822959185 65.86682565819824 A 82 82 0 0 1 47.5499 66.8059C 46.502759121472 66.1763406224162 45.62721853260654 65.5701802886703 44.90637773454874 65.01859810263109 C 44.60252904560212 64.78608462778793 44.32634092905819 64.56337635046691 44.07639935441669 64.3527145503746 A 0.75 0.75 0 0 0 43.179 64.357A 77.5 77.5 0 0 1 42.9342 64.5206A 0.75 0.75 0 0 0 42.5868 65.348C 42.6858256691025 65.65953360234994 42.78588867182275 65.99992491832903 42.884425253057714 66.36962355765131 C 43.11816691444762 67.24667498136095 43.34313116249368 68.28753652837807 43.52407414450338 69.49591787970071 A 82 82 0 0 1 42.1618 70.3307C 41.16727079079912 69.62090547903495 40.34198799302404 68.94791961242679 39.666645946114414 68.34148125300653 C 39.381976718252176 68.08584484623601 39.124113487548144 67.84215363433404 38.89147073370712 67.61253104433543 A 0.75 0.75 0 0 0 37.9965 67.5464A 77.5 77.5 0 0 1 37.7396 67.6903A 0.75 0.75 0 0 0 37.3284 68.4879C 37.40265188188636 68.80621845540962 37.47569962891822 69.15341131127066 37.544926233825116 69.52970138412842 C 37.70913468606922 70.42238831038644 37.85174038865972 71.47769172009687 37.93731707572339 72.69654465773706 A 82 82 0 0 1 36.5137 73.4219C 35.5779725461943 72.63623430207504 34.80803568239223 71.9005720842628 34.18235609492401 71.24301644560855 C 33.91862140859806 70.96583319036613 33.680672876299425 70.70266148124013 33.46676326319788 70.45549380095981 A 0.75 0.75 0 0 0 32.5798 70.3193A 77.5 77.5 0 0 1 32.3124 70.4426A 0.75 0.75 0 0 0 31.8399 71.2055C 31.88887830817451 71.5286900913023 31.934460435866708 71.88054392763554 31.973950259406102 72.26110548060043 C 32.06761310279146 73.16392419765795 32.12698104834874 74.22716317361684 32.11666383173349 75.44897306390429 A 82 82 0 0 1 30.6406 76.0604C 29.769324269965768 75.20373658664394 29.059480256932055 74.4099336198329 28.487320651621552 73.70531475111639 C 28.246146518873754 73.40829357434346 28.029579716808072 73.12726390909366 27.83572206834294 72.86407500947216 A 0.75 0.75 0 0 0 26.9621 72.6587A 77.5 77.5 0 0 1 26.6859 72.7607A 0.75 0.75 0 0 0 26.155 73.4841C 26.17849919556467 73.81016356707896 26.196334674942378 74.16450908798015 26.205844249220448 74.5469958325286 C 26.228384021171543 75.45438016277727 26.20414818656938 76.51899948313499 26.098000675346473 77.73623346180304 A 82 82 0 0 1 24.5785 78.23C 23.777138210308035 77.30758282737605 23.131763472430116 76.4605331708229 22.616651403506445 75.71319528167932 C 22.399524743063736 75.39816741770025 22.205674877581508 75.10101243766475 22.03306439061978 74.82342496578742 A 0.75 0.75 0 0 0 21.1783 74.5502A 77.5 77.5 0 0 1 20.8949 74.6301A 0.75 0.75 0 0 0 20.3089 75.3097C 20.30672093017983 75.63657284009453 20.296699799581784 75.99122538759548 20.276170494910858 76.3732791657576 C 20.22744823023837 77.2796347830655 20.11975803745632 78.33907071569021 19.918434666330068 79.54422413048903 A 82 82 0 0 1 18.3649 79.9172C 17.638358186882968 78.93480211259745 17.061431674028736 78.03972810910743 16.606542978688957 77.2542787861384 C 16.414802448614903 76.923186486492 16.244864668598446 76.6117382509368 16.09456554419106 76.32146362587497 A 0.75 0.75 0 0 0 15.2639 75.982A 77.5 77.5 0 0 1 14.9751 76.0394A 0.75 0.75 0 0 0 14.3375 76.671C 14.309744977590487 76.99665748983819 14.27192902061919 77.34943051304958 14.22148740698925 77.72869583623725 C 14.101803494656682 78.62843475682988 13.911322889543877 79.67615552689871 13.616064884044087 80.86179820627189 A 82 82 0 0 1 12.038 81.1117C 11.390831819886477 80.0753620943094 10.885910475855216 79.13778217275632 10.49404969417194 78.31906397222639 C 10.328877438594649 77.97394853103933 10.183899466967809 77.65012722190366 10.056838349196262 77.34895508324696 A 0.75 0.75 0 0 0 9.25533 76.9454A 77.5 77.5 0 0 1 8.96293 76.98A 0.75 0.75 0 0 0 8.27779 77.5595C 8.224544688741222 77.88203214217017 8.159167053346488 78.230750678095 8.079124120079097 78.60488924947222 C 7.889216451204922 79.49246428371056 7.617119810033106 80.52201034427357 7.229747533946938 81.68083240683656 A 82 82 0 0 1 5.63696 81.8062C 5.073077186884433 80.72223084094996 4.64327401966548 79.74792549332717 4.316857103664715 78.900986085194 C 4.1792714644651685 78.54397525392375 4.060147138633094 78.20977733725994 3.9571074015405583 77.89956451139307 A 0.75 0.75 0 0 0 3.18974 77.4343A 77.5 77.5 0 0 1 2.89552 77.4459A 0.75 0.75 0 0 0 2.16702 77.9699C 2.0886373469472326 78.28723816794195 1.9961011079915363 78.62975225084557 1.886950346387267 78.9964573817061 C 1.6279897649007982 79.86639633435541 1.2759546539441136 80.87142019159042 0.7988563861679899 81.99627711398007 A 82 82 0 0 1 -0.798856 81.9963C -1.2759546539441038 80.87142019159042 -1.6279897649007884 79.86639633435541 -1.8869503463872572 78.9964573817061 C -1.9961011079915265 78.62975225084557 -2.088637346947223 78.28723816794195 -2.167020429117382 77.96989722009262 A 0.75 0.75 0 0 0 -2.89552 77.4459A 77.5 77.5 0 0 1 -3.18974 77.4343A 0.75 0.75 0 0 0 -3.95711 77.8996C -4.060147138633085 78.20977733725994 -4.17927146446516 78.54397525392375 -4.316857103664706 78.900986085194 C -4.643274019665471 79.74792549332717 -5.073077186884424 80.72223084094996 -5.636959976878389 81.80618750618687 A 82 82 0 0 1 -7.22975 81.6808C -7.617119810033097 80.52201034427357 -7.889216451204913 79.49246428371056 -8.079124120079088 78.60488924947222 C -8.15916705334648 78.230750678095 -8.224544688741215 77.88203214217017 -8.277787858222398 77.55951958480844 A 0.75 0.75 0 0 0 -8.96293 76.98A 77.5 77.5 0 0 1 -9.25533 76.9454A 0.75 0.75 0 0 0 -10.0568 77.3489C -10.183899466967802 77.65012722190366 -10.328877438594638 77.97394853103933 -10.494049694171931 78.31906397222639 C -10.885910475855207 79.13778217275632 -11.390831819886468 80.0753620943094 -12.038022607187909 81.11173554910022 A 82 82 0 0 1 -13.6161 80.8618C -13.911322889543868 79.67615552689871 -14.101803494656673 78.62843475682988 -14.22148740698924 77.72869583623725 C -14.271929020619183 77.34943051304958 -14.309744977590476 76.99665748983819 -14.337519972537683 76.6709617201265 A 0.75 0.75 0 0 0 -14.9751 76.0394A 77.5 77.5 0 0 1 -15.2639 75.982A 0.75 0.75 0 0 0 -16.0946 76.3215C -16.24486466859844 76.6117382509368 -16.414802448614896 76.923186486492 -16.606542978688946 77.25427878613841 C -17.06143167402873 78.03972810910741 -17.638358186882957 78.93480211259745 -18.36486682507538 79.91720276996425 A 82 82 0 0 1 -19.9184 79.5442C -20.11975803745631 78.33907071569021 -20.227448230238362 77.27963478306552 -20.276170494910847 76.37327916575761 C -20.296699799581777 75.99122538759548 -20.30672093017982 75.63657284009453 -20.308856508513077 75.309701880758 A 0.75 0.75 0 0 0 -20.8949 74.6301A 77.5 77.5 0 0 1 -21.1783 74.5502A 0.75 0.75 0 0 0 -22.0331 74.8234C -22.205674877581497 75.10101243766475 -22.39952474306373 75.39816741770025 -22.616651403506438 75.71319528167933 C -23.13176347243011 76.4605331708229 -23.777138210308024 77.30758282737607 -24.57848553204834 78.22995386058479 A 82 82 0 0 1 -26.098 77.7362C -26.20414818656937 76.518999483135 -26.228384021171536 75.45438016277727 -26.20584424922044 74.54699583252861 C -26.19633467494237 74.16450908798015 -26.178499195564665 73.81016356707896 -26.154982190733392 73.4841326862775 A 0.75 0.75 0 0 0 -26.6859 72.7607A 77.5 77.5 0 0 1 -26.9621 72.6587A 0.75 0.75 0 0 0 -27.8357 72.8641C -28.029579716808065 73.12726390909366 -28.246146518873747 73.40829357434346 -28.48732065162154 73.70531475111639 C -29.059480256932048 74.4099336198329 -29.76932426996576 75.20373658664394 -30.640569702540414 76.06039127155536 A 82 82 0 0 1 -32.1167 75.449C -32.126981048348725 74.22716317361684 -32.067613102791455 73.16392419765795 -31.97395025940609 72.26110548060043 C -31.9344604358667 71.88054392763554 -31.888878308174505 71.5286900913023 -31.839853710333692 71.20550937783234 A 0.75 0.75 0 0 0 -32.3124 70.4426A 77.5 77.5 0 0 1 -32.5798 70.3193A 0.75 0.75 0 0 0 -33.4668 70.4555C -33.68067287629942 70.70266148124014 -33.91862140859805 70.96583319036614 -34.182356094924 71.24301644560855 C -34.80803568239222 71.9005720842628 -35.577972546194296 72.63623430207505 -36.513744571792955 73.42189107769013 A 82 82 0 0 1 -37.9373 72.6965C -37.851740388659714 71.47769172009689 -37.70913468606921 70.42238831038644 -37.54492623382511 69.52970138412842 C -37.475699628918214 69.15341131127067 -37.40265188188635 68.80621845540963 -37.32842194398401 68.4878804258382 A 0.75 0.75 0 0 0 -37.7396 67.6903A 77.5 77.5 0 0 1 -37.9965 67.5464A 0.75 0.75 0 0 0 -38.8915 67.6125C -39.12411348754814 67.84215363433404 -39.38197671825217 68.08584484623601 -39.6666459461144 68.34148125300655 C -40.34198799302403 68.94791961242679 -41.167270790799115 69.62090547903495 -42.1618000637082 70.3307205100746 A 82 82 0 0 1 -43.5241 69.4959C -43.34313116249367 68.28753652837807 -43.118166914447606 67.24667498136095 -42.8844252530577 66.36962355765132 C -42.78588867182274 65.99992491832903 -42.68582566910249 65.65953360234994 -42.586848043389764 65.34800091648748 A 0.75 0.75 0 0 0 -42.9342 64.5206A 77.5 77.5 0 0 1 -43.179 64.357A 0.75 0.75 0 0 0 -44.0764 64.3527C -44.326340929058176 64.56337635046692 -44.602529045602104 64.78608462778793 -44.90637773454872 65.0185981026311 C -45.62721853260653 65.57018028867031 -46.50275912147198 66.17634062241622 -47.54991403800945 66.80593766317665 A 82 82 0 0 1 -48.8425 65.8668C -48.567297119657155 64.67636596605162 -48.26136130555296 63.65636353928676 -47.959527530086696 62.80035493180189 C -47.832288483313725 62.439527041063755 -47.70582714659119 62.10803589062121 -47.58271206304399 61.80522925107119 A 0.75 0.75 0 0 0 -47.8641 60.9531A 77.5 77.5 0 0 1 -48.0953 60.7708A 0.75 0.75 0 0 0 -48.9896 60.6961C -49.25528173873646 60.88654438189791 -49.548091949539916 61.08689665405026 -49.86924677136362 61.29485367407509 C -50.631142097345695 61.78817899913664 -51.551542478424366 62.32377661999398 -52.644866980315435 62.86927399535664 A 82 82 0 0 1 -53.8598 61.8316C -53.49202953981282 60.66644410047034 -53.10700835567841 59.673589448103975 -52.738943371731466 58.843901234560754 C -52.583786330455105 58.49416871634062 -52.43170633592385 58.17362148460909 -52.285212839972154 57.88140779499778 A 0.75 0.75 0 0 0 -52.4989 57.0098A 77.5 77.5 0 0 1 -52.7151 56.81A 0.75 0.75 0 0 0 -53.6007 56.6654C -53.88054735745219 56.83432662038393 -54.1881743901963 57.0110876489859 -54.52465531862574 57.193206090011216 C -55.32290783449149 57.62523303941878 -56.282493433369844 58.086965809950684 -57.415246811493056 58.54500034720019 A 82 82 0 0 1 -58.545 57.4152C -58.08696580995068 56.28249343336985 -57.625233039418774 55.322907834491495 -57.19320609001121 54.52465531862575 C -57.011087648985885 54.188174390196316 -56.83432662038392 53.8805473574522 -56.66535789314431 53.60072821234695 A 0.75 0.75 0 0 0 -56.81 52.7151A 77.5 77.5 0 0 1 -57.0098 52.4989A 0.75 0.75 0 0 0 -57.8814 52.2852C -58.173621484609086 52.43170633592387 -58.49416871634061 52.583786330455126 -58.84390123456075 52.73894337173148 C -59.67358944810397 53.107008355678424 -60.66644410047033 53.49202953981284 -61.83164255357083 53.85977730371509 A 82 82 0 0 1 -62.8693 52.6449C -62.323776619993964 51.55154247842439 -61.78817899913663 50.63114209734571 -61.294853674075085 49.86924677136365 C -61.08689665405025 49.54809194953994 -60.886544381897906 49.25528173873648 -60.69614217176162 48.98958231621617 A 0.75 0.75 0 0 0 -60.7708 48.0953A 77.5 77.5 0 0 1 -60.9531 47.8641A 0.75 0.75 0 0 0 -61.8052 47.5827C -62.108035890621196 47.705827146591204 -62.43952704106375 47.83228848331374 -62.80035493180188 47.95952753008672 C -63.656363539286744 48.261361305552974 -64.6763659660516 48.56729711965718 -65.86682565819824 48.842490822959185 A 82 82 0 0 1 -66.8059 47.5499C -66.1763406224162 46.502759121472 -65.5701802886703 45.62721853260654 -65.01859810263109 44.90637773454874 C -64.78608462778793 44.60252904560212 -64.56337635046691 44.32634092905819 -64.3527145503746 44.07639935441669 A 0.75 0.75 0 0 0 -64.357 43.179A 77.5 77.5 0 0 1 -64.5206 42.9342A 0.75 0.75 0 0 0 -65.348 42.5868C -65.65953360234994 42.6858256691025 -65.99992491832903 42.78588867182275 -66.36962355765131 42.884425253057714 C -67.24667498136095 43.11816691444762 -68.28753652837807 43.34313116249368 -69.49591787970071 43.52407414450338 A 82 82 0 0 1 -70.3307 42.1618C -69.62090547903495 41.16727079079912 -68.94791961242679 40.34198799302404 -68.34148125300653 39.666645946114414 C -68.08584484623601 39.381976718252176 -67.84215363433404 39.124113487548144 -67.61253104433543 38.89147073370712 A 0.75 0.75 0 0 0 -67.5464 37.9965A 77.5 77.5 0 0 1 -67.6903 37.7396A 0.75 0.75 0 0 0 -68.4879 37.3284C -68.80621845540962 37.40265188188636 -69.15341131127066 37.47569962891822 -69.52970138412842 37.544926233825116 C -70.42238831038644 37.70913468606922 -71.47769172009687 37.85174038865972 -72.69654465773706 37.9373170757234 A 82 82 0 0 1 -73.4219 36.5137C -72.63623430207504 35.5779725461943 -71.9005720842628 34.80803568239223 -71.24301644560855 34.18235609492401 C -70.96583319036613 33.91862140859806 -70.70266148124013 33.680672876299425 -70.45549380095981 33.46676326319788 A 0.75 0.75 0 0 0 -70.3193 32.5798A 77.5 77.5 0 0 1 -70.4426 32.3124A 0.75 0.75 0 0 0 -71.2055 31.8399C -71.5286900913023 31.88887830817451 -71.88054392763554 31.934460435866708 -72.26110548060043 31.973950259406102 C -73.16392419765795 32.06761310279146 -74.22716317361684 32.12698104834874 -75.44897306390429 32.11666383173349 A 82 82 0 0 1 -76.0604 30.6406C -75.20373658664394 29.769324269965768 -74.4099336198329 29.059480256932055 -73.70531475111639 28.487320651621552 C -73.40829357434346 28.246146518873754 -73.12726390909366 28.029579716808072 -72.86407500947216 27.83572206834294 A 0.75 0.75 0 0 0 -72.6587 26.9621A 77.5 77.5 0 0 1 -72.7607 26.6859A 0.75 0.75 0 0 0 -73.4841 26.155C -73.81016356707896 26.178499195564676 -74.16450908798015 26.19633467494238 -74.5469958325286 26.205844249220455 C -75.45438016277727 26.22838402117155 -76.51899948313499 26.204148186569384 -77.73623346180304 26.098000675346476 A 82 82 0 0 1 -78.23 24.5785C -77.30758282737605 23.77713821030804 -76.4605331708229 23.131763472430123 -75.71319528167932 22.616651403506452 C -75.39816741770025 22.39952474306374 -75.10101243766475 22.205674877581508 -74.82342496578742 22.033064390619785 A 0.75 0.75 0 0 0 -74.5502 21.1783A 77.5 77.5 0 0 1 -74.6301 20.8949A 0.75 0.75 0 0 0 -75.3097 20.3089C -75.63657284009453 20.306720930179832 -75.99122538759548 20.296699799581788 -76.3732791657576 20.27617049491086 C -77.2796347830655 20.227448230238373 -78.33907071569021 20.119758037456325 -79.54422413048903 19.91843466633007 A 82 82 0 0 1 -79.9172 18.3649C -78.93480211259745 17.63835818688297 -78.03972810910743 17.06143167402874 -77.2542787861384 16.60654297868896 C -76.923186486492 16.414802448614907 -76.6117382509368 16.24486466859845 -76.32146362587497 16.094565544191063 A 0.75 0.75 0 0 0 -75.982 15.2639A 77.5 77.5 0 0 1 -76.0394 14.9751A 0.75 0.75 0 0 0 -76.671 14.3375C -76.99665748983817 14.30974497759049 -77.34943051304958 14.271929020619195 -77.72869583623724 14.221487406989253 C -78.62843475682986 14.101803494656687 -79.67615552689871 13.91132288954388 -80.86179820627187 13.616064884044093 A 82 82 0 0 1 -81.1117 12.038C -80.0753620943094 11.39083181988648 -79.1377821727563 10.885910475855221 -78.31906397222637 10.494049694171943 C -77.97394853103933 10.328877438594654 -77.65012722190365 10.183899466967812 -77.34895508324695 10.056838349196267 A 0.75 0.75 0 0 0 -76.9454 9.25533A 77.5 77.5 0 0 1 -76.98 8.96293A 0.75 0.75 0 0 0 -77.5595 8.27779C -77.88203214217017 8.22454468874123 -78.230750678095 8.159167053346494 -78.60488924947222 8.079124120079102 C -79.49246428371056 7.889216451204927 -80.52201034427357 7.6171198100331114 -81.68083240683656 7.229747533946943 A 82 82 0 0 1 -81.8062 5.63696C -80.72223084094996 5.073077186884438 -79.74792549332717 4.643274019665485 -78.900986085194 4.31685710366472 C -78.54397525392375 4.179271464465174 -78.20977733725994 4.060147138633099 -77.89956451139307 3.9571074015405636 A 0.75 0.75 0 0 0 -77.4343 3.18974A 77.5 77.5 0 0 1 -77.4459 2.89552A 0.75 0.75 0 0 0 -77.9699 2.16702C -78.28723816794195 2.0886373469472375 -78.62975225084557 1.996101107991541 -78.9964573817061 1.8869503463872719 C -79.86639633435541 1.627989764900803 -80.87142019159042 1.2759546539441187 -81.99627711398007 0.7988563861679949 A 82 82 0 0 1 -81.9963 -0.798856C -80.87142019159042 -1.2759546539440987 -79.86639633435541 -1.6279897649007835 -78.9964573817061 -1.8869503463872523 C -78.62975225084557 -1.9961011079915219 -78.28723816794195 -2.088637346947218 -77.96989722009262 -2.167020429117377 A 0.75 0.75 0 0 0 -77.4459 -2.89552A 77.5 77.5 0 0 1 -77.4343 -3.18974A 0.75 0.75 0 0 0 -77.8996 -3.95711C -78.20977733725994 -4.06014713863308 -78.54397525392375 -4.179271464465154 -78.900986085194 -4.3168571036647005 C -79.74792549332717 -4.643274019665465 -80.72223084094995 -5.073077186884419 -81.80618750618687 -5.636959976878384 A 82 82 0 0 1 -81.6808 -7.22975C -80.52201034427358 -7.617119810033092 -79.49246428371056 -7.8892164512049066 -78.60488924947222 -8.079124120079083 C -78.230750678095 -8.159167053346474 -77.88203214217017 -8.224544688741208 -77.55951958480844 -8.277787858222393 A 0.75 0.75 0 0 0 -76.98 -8.96293A 77.5 77.5 0 0 1 -76.9454 -9.25533A 0.75 0.75 0 0 0 -77.3489 -10.0568C -77.65012722190366 -10.183899466967794 -77.97394853103933 -10.328877438594635 -78.31906397222639 -10.494049694171926 C -79.13778217275632 -10.885910475855203 -80.0753620943094 -11.390831819886463 -81.11173554910022 -12.038022607187903 A 82 82 0 0 1 -80.8618 -13.6161C -79.67615552689871 -13.911322889543863 -78.62843475682988 -14.10180349465667 -77.72869583623725 -14.221487406989235 C -77.34943051304958 -14.27192902061918 -76.99665748983819 -14.309744977590473 -76.6709617201265 -14.33751997253768 A 0.75 0.75 0 0 0 -76.0394 -14.9751A 77.5 77.5 0 0 1 -75.982 -15.2639A 0.75 0.75 0 0 0 -76.3215 -16.0946C -76.6117382509368 -16.244864668598435 -76.923186486492 -16.414802448614893 -77.25427878613841 -16.606542978688946 C -78.03972810910741 -17.061431674028725 -78.93480211259745 -17.638358186882954 -79.91720276996425 -18.36486682507538 A 82 82 0 0 1 -79.5442 -19.9184C -78.33907071569021 -20.119758037456307 -77.27963478306552 -20.22744823023836 -76.37327916575761 -20.276170494910847 C -75.99122538759548 -20.296699799581774 -75.63657284009453 -20.306720930179818 -75.309701880758 -20.308856508513074 A 0.75 0.75 0 0 0 -74.6301 -20.8949A 77.5 77.5 0 0 1 -74.5502 -21.1783A 0.75 0.75 0 0 0 -74.8234 -22.0331C -75.10101243766475 -22.205674877581494 -75.39816741770025 -22.399524743063722 -75.71319528167933 -22.61665140350643 C -76.4605331708229 -23.131763472430105 -77.30758282737607 -23.77713821030802 -78.22995386058479 -24.578485532048337 A 82 82 0 0 1 -77.7362 -26.098C -76.518999483135 -26.204148186569366 -75.45438016277727 -26.228384021171532 -74.54699583252861 -26.20584424922044 C -74.16450908798015 -26.196334674942364 -73.81016356707896 -26.17849919556466 -73.4841326862775 -26.15498219073339 A 0.75 0.75 0 0 0 -72.7607 -26.6859A 77.5 77.5 0 0 1 -72.6587 -26.9621A 0.75 0.75 0 0 0 -72.8641 -27.8357C -73.12726390909366 -28.029579716808062 -73.40829357434346 -28.24614651887374 -73.70531475111639 -28.487320651621538 C -74.4099336198329 -29.05948025693204 -75.20373658664394 -29.769324269965754 -76.06039127155536 -30.64056970254041 A 82 82 0 0 1 -75.449 -32.1167C -74.22716317361684 -32.126981048348725 -73.16392419765795 -32.06761310279145 -72.26110548060043 -31.973950259406088 C -71.88054392763554 -31.934460435866693 -71.5286900913023 -31.8888783081745 -71.20550937783234 -31.83985371033369 A 0.75 0.75 0 0 0 -70.4426 -32.3124A 77.5 77.5 0 0 1 -70.3193 -32.5798A 0.75 0.75 0 0 0 -70.4555 -33.4668C -70.70266148124014 -33.68067287629941 -70.96583319036614 -33.91862140859804 -71.24301644560855 -34.182356094923996 C -71.9005720842628 -34.80803568239222 -72.63623430207505 -35.57797254619429 -73.42189107769013 -36.513744571792955 A 82 82 0 0 1 -72.6965 -37.9373C -71.47769172009689 -37.85174038865971 -70.42238831038644 -37.70913468606921 -69.52970138412842 -37.5449262338251 C -69.15341131127067 -37.47569962891821 -68.80621845540963 -37.40265188188634 -68.4878804258382 -37.32842194398401 A 0.75 0.75 0 0 0 -67.6903 -37.7396A 77.5 77.5 0 0 1 -67.5464 -37.9965A 0.75 0.75 0 0 0 -67.6125 -38.8915C -67.84215363433404 -39.12411348754814 -68.08584484623601 -39.38197671825217 -68.34148125300655 -39.6666459461144 C -68.94791961242679 -40.34198799302403 -69.62090547903495 -41.167270790799115 -70.3307205100746 -42.1618000637082 A 82 82 0 0 1 -69.4959 -43.5241C -68.28753652837807 -43.34313116249367 -67.24667498136095 -43.118166914447606 -66.36962355765132 -42.8844252530577 C -65.99992491832903 -42.78588867182274 -65.65953360234994 -42.68582566910249 -65.34800091648748 -42.586848043389764 A 0.75 0.75 0 0 0 -64.5206 -42.9342A 77.5 77.5 0 0 1 -64.357 -43.179A 0.75 0.75 0 0 0 -64.3527 -44.0764C -64.56337635046692 -44.326340929058176 -64.78608462778793 -44.602529045602104 -65.0185981026311 -44.90637773454872 C -65.57018028867031 -45.62721853260653 -66.17634062241622 -46.50275912147198 -66.80593766317665 -47.54991403800945 A 82 82 0 0 1 -65.8668 -48.8425C -64.67636596605162 -48.567297119657155 -63.65636353928676 -48.26136130555296 -62.80035493180189 -47.959527530086696 C -62.439527041063755 -47.832288483313725 -62.10803589062121 -47.70582714659119 -61.80522925107119 -47.58271206304399 A 0.75 0.75 0 0 0 -60.9531 -47.8641A 77.5 77.5 0 0 1 -60.7708 -48.0953A 0.75 0.75 0 0 0 -60.6961 -48.9896C -60.88654438189791 -49.25528173873646 -61.08689665405026 -49.548091949539916 -61.29485367407509 -49.86924677136362 C -61.78817899913664 -50.631142097345695 -62.32377661999398 -51.551542478424366 -62.86927399535664 -52.644866980315435 A 82 82 0 0 1 -61.8316 -53.8598C -60.66644410047034 -53.49202953981282 -59.673589448103975 -53.10700835567841 -58.843901234560754 -52.738943371731466 C -58.49416871634062 -52.583786330455105 -58.17362148460909 -52.43170633592385 -57.88140779499778 -52.285212839972154 A 0.75 0.75 0 0 0 -57.0098 -52.4989A 77.5 77.5 0 0 1 -56.81 -52.7151A 0.75 0.75 0 0 0 -56.6654 -53.6007C -56.83432662038394 -53.88054735745219 -57.01108764898591 -54.1881743901963 -57.19320609001122 -54.52465531862573 C -57.62523303941879 -55.32290783449149 -58.0869658099507 -56.282493433369844 -58.545000347200194 -57.415246811493056 A 82 82 0 0 1 -57.4152 -58.545C -56.282493433369865 -58.08696580995068 -55.3229078344915 -57.625233039418774 -54.524655318625754 -57.193206090011216 C -54.18817439019632 -57.011087648985885 -53.88054735745221 -56.83432662038392 -53.60072821234696 -56.66535789314431 A 0.75 0.75 0 0 0 -52.7151 -56.81A 77.5 77.5 0 0 1 -52.4989 -57.0098A 0.75 0.75 0 0 0 -52.2852 -57.8814C -52.43170633592389 -58.17362148460905 -52.58378633045515 -58.494168716340575 -52.7389433717315 -58.84390123456071 C -53.10700835567845 -59.67358944810393 -53.49202953981286 -60.666444100470294 -53.85977730371511 -61.831642553570795 A 82 82 0 0 1 -52.6449 -62.8693C -51.55154247842442 -62.32377661999393 -50.63114209734574 -61.7881789991366 -49.86924677136367 -61.29485367407505 C -49.54809194953996 -61.086896654050214 -49.2552817387365 -60.88654438189787 -48.9895823162162 -60.696142171761586 A 0.75 0.75 0 0 0 -48.0953 -60.7708A 77.5 77.5 0 0 1 -47.8641 -60.9531A 0.75 0.75 0 0 0 -47.5827 -61.8052C -47.705827146591204 -62.108035890621196 -47.83228848331374 -62.43952704106375 -47.95952753008672 -62.80035493180188 C -48.261361305552974 -63.656363539286744 -48.56729711965718 -64.6763659660516 -48.842490822959185 -65.86682565819824 A 82 82 0 0 1 -47.5499 -66.8059C -46.502759121472 -66.1763406224162 -45.62721853260654 -65.5701802886703 -44.90637773454874 -65.01859810263109 C -44.60252904560212 -64.78608462778793 -44.32634092905819 -64.56337635046691 -44.07639935441669 -64.3527145503746 A 0.75 0.75 0 0 0 -43.179 -64.357A 77.5 77.5 0 0 1 -42.9342 -64.5206A 0.75 0.75 0 0 0 -42.5868 -65.348C -42.685825669102485 -65.65953360234995 -42.78588867182273 -65.99992491832904 -42.88442525305769 -66.36962355765132 C -43.1181669144476 -67.24667498136097 -43.34313116249366 -68.28753652837808 -43.524074144503366 -69.49591787970074 A 82 82 0 0 1 -42.1618 -70.3307C -41.16727079079911 -69.62090547903496 -40.34198799302402 -68.9479196124268 -39.66664594611439 -68.34148125300655 C -39.38197671825216 -68.08584484623603 -39.12411348754813 -67.84215363433405 -38.8914707337071 -67.61253104433544 A 0.75 0.75 0 0 0 -37.9965 -67.5464A 77.5 77.5 0 0 1 -37.7396 -67.6903A 0.75 0.75 0 0 0 -37.3284 -68.4879C -37.402651881886364 -68.80621845540962 -37.47569962891823 -69.15341131127066 -37.54492623382512 -69.52970138412842 C -37.70913468606923 -70.42238831038644 -37.85174038865973 -71.47769172009687 -37.9373170757234 -72.69654465773706 A 82 82 0 0 1 -36.5137 -73.4219C -35.57797254619431 -72.63623430207504 -34.80803568239224 -71.9005720842628 -34.18235609492402 -71.24301644560855 C -33.918621408598064 -70.96583319036613 -33.68067287629943 -70.70266148124013 -33.46676326319789 -70.45549380095981 A 0.75 0.75 0 0 0 -32.5798 -70.3193A 77.5 77.5 0 0 1 -32.3124 -70.4426A 0.75 0.75 0 0 0 -31.8399 -71.2055C -31.88887830817455 -71.52869009130228 -31.934460435866747 -71.88054392763553 -31.97395025940614 -72.26110548060042 C -32.067613102791505 -73.16392419765793 -32.126981048348775 -74.22716317361682 -32.11666383173353 -75.44897306390428 A 82 82 0 0 1 -30.6406 -76.0604C -29.769324269965807 -75.20373658664391 -29.059480256932094 -74.40993361983288 -28.48732065162159 -73.70531475111638 C -28.246146518873793 -73.40829357434345 -28.02957971680811 -73.12726390909364 -27.835722068342978 -72.86407500947213 A 0.75 0.75 0 0 0 -26.9621 -72.6587A 77.5 77.5 0 0 1 -26.6859 -72.7607A 0.75 0.75 0 0 0 -26.155 -73.4841C -26.178499195564683 -73.81016356707896 -26.196334674942385 -74.16450908798015 -26.20584424922046 -74.5469958325286 C -26.228384021171554 -75.45438016277727 -26.20414818656939 -76.51899948313499 -26.098000675346483 -77.73623346180304 A 82 82 0 0 1 -24.5785 -78.23C -23.777138210308046 -77.30758282737605 -23.131763472430126 -76.4605331708229 -22.616651403506456 -75.71319528167932 C -22.399524743063743 -75.39816741770025 -22.205674877581515 -75.10101243766475 -22.03306439061979 -74.82342496578742 A 0.75 0.75 0 0 0 -21.1783 -74.5502A 77.5 77.5 0 0 1 -20.8949 -74.6301A 0.75 0.75 0 0 0 -20.3089 -75.3097C -20.306720930179807 -75.63657284009453 -20.296699799581763 -75.99122538759548 -20.276170494910836 -76.37327916575761 C -20.22744823023835 -77.27963478306552 -20.119758037456297 -78.33907071569021 -19.918434666330047 -79.54422413048904 A 82 82 0 0 1 -18.3649 -79.9172C -17.638358186882943 -78.93480211259745 -17.061431674028714 -78.03972810910741 -16.606542978688935 -77.25427878613841 C -16.414802448614882 -76.923186486492 -16.244864668598424 -76.6117382509368 -16.09456554419104 -76.32146362587498 A 0.75 0.75 0 0 0 -15.2639 -75.982A 77.5 77.5 0 0 1 -14.9751 -76.0394A 0.75 0.75 0 0 0 -14.3375 -76.671C -14.309744977590498 -76.99665748983817 -14.271929020619202 -77.34943051304958 -14.22148740698926 -77.72869583623724 C -14.101803494656693 -78.62843475682986 -13.911322889543888 -79.67615552689871 -13.616064884044098 -80.86179820627187 A 82 82 0 0 1 -12.038 -81.1117C -11.390831819886488 -80.0753620943094 -10.885910475855226 -79.1377821727563 -10.49404969417195 -78.31906397222637 C -10.328877438594661 -77.97394853103933 -10.18389946696782 -77.65012722190365 -10.056838349196273 -77.34895508324695 A 0.75 0.75 0 0 0 -9.25533 -76.9454A 77.5 77.5 0 0 1 -8.96293 -76.98A 0.75 0.75 0 0 0 -8.27779 -77.5595C -8.224544688741268 -77.88203214217017 -8.159167053346533 -78.230750678095 -8.079124120079143 -78.60488924947222 C -7.889216451204967 -79.49246428371056 -7.617119810033152 -80.52201034427357 -7.229747533946984 -81.68083240683656 A 82 82 0 0 1 -5.63696 -81.8062C -5.073077186884479 -80.72223084094996 -4.643274019665525 -79.74792549332717 -4.316857103664759 -78.900986085194 C -4.179271464465213 -78.54397525392375 -4.0601471386331385 -78.20977733725994 -3.9571074015406027 -77.89956451139307 A 0.75 0.75 0 0 0 -3.18974 -77.4343A 77.5 77.5 0 0 1 -2.89552 -77.4459A 0.75 0.75 0 0 0 -2.16702 -77.9699C -2.088637346947242 -78.28723816794195 -1.9961011079915458 -78.62975225084557 -1.8869503463872765 -78.9964573817061 C -1.627989764900808 -79.86639633435541 -1.2759546539441236 -80.87142019159042 -0.798856386168 -81.99627711398007 A 82 82 0 0 1 0.798856 -81.9963C 1.2759546539440938 -80.87142019159042 1.6279897649007786 -79.86639633435541 1.8869503463872477 -78.9964573817061 C 1.996101107991517 -78.62975225084557 2.0886373469472135 -78.28723816794195 2.1670204291173727 -77.96989722009262 A 0.75 0.75 0 0 0 2.89552 -77.4459A 77.5 77.5 0 0 1 3.18974 -77.4343A 0.75 0.75 0 0 0 3.95711 -77.8996C 4.06014713863311 -78.20977733725994 4.1792714644651845 -78.54397525392375 4.316857103664731 -78.900986085194 C 4.643274019665496 -79.74792549332717 5.07307718688445 -80.72223084094996 5.6369599768784155 -81.80618750618687 A 82 82 0 0 1 7.22975 -81.6808C 7.617119810033123 -80.52201034427357 7.889216451204938 -79.49246428371056 8.079124120079115 -78.60488924947222 C 8.159167053346504 -78.230750678095 8.22454468874124 -77.88203214217017 8.277787858222423 -77.55951958480844 A 0.75 0.75 0 0 0 8.96293 -76.98A 77.5 77.5 0 0 1 9.25533 -76.9454A 0.75 0.75 0 0 0 10.0568 -77.3489C 10.183899466967791 -77.65012722190366 10.328877438594628 -77.97394853103933 10.49404969417192 -78.31906397222639 C 10.885910475855196 -79.13778217275632 11.390831819886456 -80.0753620943094 12.038022607187896 -81.11173554910022 A 82 82 0 0 1 13.6161 -80.8618C 13.911322889543856 -79.67615552689871 14.101803494656663 -78.62843475682988 14.22148740698923 -77.72869583623725 C 14.271929020619172 -77.34943051304958 14.309744977590466 -76.99665748983819 14.337519972537672 -76.6709617201265 A 0.75 0.75 0 0 0 14.9751 -76.0394A 77.5 77.5 0 0 1 15.2639 -75.982A 0.75 0.75 0 0 0 16.0946 -76.3215C 16.244864668598392 -76.61173825093681 16.41480244861485 -76.92318648649201 16.606542978688903 -77.25427878613843 C 17.061431674028682 -78.03972810910743 17.63835818688291 -78.93480211259747 18.36486682507534 -79.91720276996425 A 82 82 0 0 1 19.9184 -79.5442C 20.119758037456265 -78.33907071569023 20.227448230238316 -77.27963478306553 20.276170494910804 -76.37327916575762 C 20.29669979958173 -75.99122538759549 20.306720930179775 -75.63657284009454 20.30885650851303 -75.30970188075801 A 0.75 0.75 0 0 0 20.8949 -74.6301A 77.5 77.5 0 0 1 21.1783 -74.5502A 0.75 0.75 0 0 0 22.0331 -74.8234C 22.205674877581487 -75.10101243766475 22.39952474306372 -75.39816741770025 22.61665140350643 -75.71319528167933 C 23.131763472430098 -76.4605331708229 23.777138210308017 -77.30758282737607 24.578485532048333 -78.22995386058479 A 82 82 0 0 1 26.098 -77.7362C 26.204148186569363 -76.518999483135 26.228384021171525 -75.45438016277727 26.205844249220434 -74.54699583252861 C 26.19633467494236 -74.16450908798015 26.178499195564655 -73.81016356707896 26.154982190733385 -73.4841326862775 A 0.75 0.75 0 0 0 26.6859 -72.7607A 77.5 77.5 0 0 1 26.9621 -72.6587A 0.75 0.75 0 0 0 27.8357 -72.8641C 28.029579716808087 -73.12726390909364 28.24614651887377 -73.40829357434345 28.487320651621562 -73.70531475111638 C 29.05948025693207 -74.40993361983288 29.769324269965782 -75.20373658664393 30.640569702540436 -76.06039127155536 A 82 82 0 0 1 32.1167 -75.449C 32.12698104834875 -74.22716317361683 32.067613102791476 -73.16392419765793 31.973950259406113 -72.26110548060042 C 31.934460435866722 -71.88054392763553 31.888878308174526 -71.52869009130228 31.839853710333713 -71.20550937783233 A 0.75 0.75 0 0 0 32.3124 -70.4426A 77.5 77.5 0 0 1 32.5798 -70.3193A 0.75 0.75 0 0 0 33.4668 -70.4555C 33.68067287629941 -70.70266148124016 33.91862140859804 -70.96583319036615 34.182356094923996 -71.24301644560856 C 34.808035682392216 -71.90057208426282 35.57797254619429 -72.63623430207507 36.51374457179295 -73.42189107769015 A 82 82 0 0 1 37.9373 -72.6965C 37.85174038865971 -71.4776917200969 37.709134686069206 -70.42238831038645 37.5449262338251 -69.52970138412843 C 37.47569962891821 -69.15341131127069 37.40265188188634 -68.80621845540965 37.328421943984004 -68.48788042583821 A 0.75 0.75 0 0 0 37.7396 -67.6903A 77.5 77.5 0 0 1 37.9965 -67.5464A 0.75 0.75 0 0 0 38.8915 -67.6125C 39.124113487548094 -67.84215363433407 39.381976718252126 -68.08584484623604 39.66664594611436 -68.34148125300655 C 40.34198799302398 -68.94791961242682 41.16727079079907 -69.62090547903497 42.16180006370816 -70.33072051007463 A 82 82 0 0 1 43.5241 -69.4959C 43.34313116249363 -68.2875365283781 43.11816691444757 -67.24667498136098 42.88442525305766 -66.36962355765135 C 42.7858886718227 -65.99992491832906 42.68582566910245 -65.65953360234997 42.58684804338972 -65.3480009164875 A 0.75 0.75 0 0 0 42.9342 -64.5206A 77.5 77.5 0 0 1 43.179 -64.357A 0.75 0.75 0 0 0 44.0764 -64.3527C 44.32634092905816 -64.56337635046694 44.60252904560209 -64.78608462778794 44.90637773454871 -65.01859810263112 C 45.62721853260651 -65.57018028867033 46.502759121471975 -66.1763406224162 47.54991403800944 -66.80593766317665 A 82 82 0 0 1 48.8425 -65.8668C 48.56729711965715 -64.67636596605163 48.261361305552946 -63.65636353928677 47.95952753008669 -62.8003549318019 C 47.83228848331371 -62.43952704106376 47.70582714659119 -62.10803589062122 47.582712063043985 -61.805229251071204 A 0.75 0.75 0 0 0 47.8641 -60.9531A 77.5 77.5 0 0 1 48.0953 -60.7708A 0.75 0.75 0 0 0 48.9896 -60.6961C 49.25528173873648 -60.8865443818979 49.54809194953994 -61.08689665405024 49.86924677136365 -61.29485367407507 C 50.63114209734571 -61.788178999136626 51.55154247842439 -62.32377661999396 52.644866980315456 -62.86927399535663 A 82 82 0 0 1 53.8598 -61.8316C 53.49202953981284 -60.66644410047032 53.107008355678424 -59.67358944810396 52.73894337173148 -58.84390123456073 C 52.583786330455126 -58.4941687163406 52.43170633592387 -58.17362148460908 52.285212839972175 -57.88140779499776 A 0.75 0.75 0 0 0 52.4989 -57.0098A 77.5 77.5 0 0 1 52.7151 -56.81A 0.75 0.75 0 0 0 53.6007 -56.6654C 53.88054735745219 -56.83432662038394 54.1881743901963 -57.01108764898591 54.52465531862573 -57.19320609001122 C 55.32290783449149 -57.62523303941879 56.282493433369844 -58.0869658099507 57.415246811493056 -58.545000347200194 A 82 82 0 0 1 58.545 -57.4152C 58.08696580995068 -56.282493433369865 57.625233039418774 -55.3229078344915 57.193206090011216 -54.524655318625754 C 57.011087648985885 -54.18817439019632 56.83432662038392 -53.88054735745221 56.66535789314431 -53.60072821234696 A 0.75 0.75 0 0 0 56.81 -52.7151A 77.5 77.5 0 0 1 57.0098 -52.4989A 0.75 0.75 0 0 0 57.8814 -52.2852C 58.17362148460905 -52.43170633592389 58.494168716340575 -52.58378633045515 58.84390123456071 -52.7389433717315 C 59.67358944810393 -53.10700835567845 60.666444100470294 -53.49202953981286 61.831642553570795 -53.85977730371511 A 82 82 0 0 1 62.8693 -52.6449C 62.32377661999393 -51.55154247842442 61.7881789991366 -50.63114209734574 61.29485367407505 -49.86924677136367 C 61.086896654050214 -49.54809194953996 60.88654438189787 -49.2552817387365 60.696142171761586 -48.9895823162162 A 0.75 0.75 0 0 0 60.7708 -48.0953A 77.5 77.5 0 0 1 60.9531 -47.8641A 0.75 0.75 0 0 0 61.8052 -47.5827C 62.108035890621196 -47.705827146591204 62.43952704106375 -47.83228848331374 62.80035493180188 -47.95952753008672 C 63.656363539286744 -48.261361305552974 64.6763659660516 -48.56729711965718 65.86682565819824 -48.842490822959185 A 82 82 0 0 1 66.8059 -47.5499C 66.1763406224162 -46.502759121472 65.5701802886703 -45.62721853260654 65.01859810263109 -44.90637773454874 C 64.78608462778793 -44.60252904560212 64.56337635046691 -44.32634092905819 64.3527145503746 -44.07639935441669 A 0.75 0.75 0 0 0 64.357 -43.179A 77.5 77.5 0 0 1 64.5206 -42.9342A 0.75 0.75 0 0 0 65.348 -42.5868C 65.65953360234995 -42.685825669102485 65.99992491832904 -42.78588867182273 66.36962355765132 -42.88442525305769 C 67.24667498136097 -43.1181669144476 68.28753652837808 -43.34313116249366 69.49591787970074 -43.524074144503366 A 82 82 0 0 1 70.3307 -42.1618C 69.62090547903496 -41.16727079079911 68.9479196124268 -40.34198799302402 68.34148125300655 -39.66664594611439 C 68.08584484623603 -39.38197671825216 67.84215363433405 -39.12411348754813 67.61253104433544 -38.8914707337071 A 0.75 0.75 0 0 0 67.5464 -37.9965A 77.5 77.5 0 0 1 67.6903 -37.7396A 0.75 0.75 0 0 0 68.4879 -37.3284C 68.80621845540962 -37.40265188188637 69.15341131127066 -37.47569962891823 69.52970138412842 -37.54492623382512 C 70.42238831038644 -37.709134686069234 71.47769172009687 -37.851740388659735 72.69654465773706 -37.937317075723406 A 82 82 0 0 1 73.4219 -36.5137C 72.63623430207504 -35.57797254619432 71.9005720842628 -34.808035682392244 71.24301644560855 -34.18235609492402 C 70.96583319036613 -33.918621408598064 70.70266148124013 -33.68067287629944 70.45549380095981 -33.4667632631979 A 0.75 0.75 0 0 0 70.3193 -32.5798A 77.5 77.5 0 0 1 70.4426 -32.3124A 0.75 0.75 0 0 0 71.2055 -31.8399C 71.52869009130228 -31.888878308174554 71.88054392763553 -31.93446043586675 72.26110548060042 -31.973950259406145 C 73.16392419765793 -32.06761310279151 74.22716317361682 -32.12698104834878 75.44897306390428 -32.11666383173353 A 82 82 0 0 1 76.0604 -30.6406C 75.20373658664391 -29.769324269965814 74.40993361983288 -29.0594802569321 73.70531475111638 -28.487320651621594 C 73.40829357434345 -28.246146518873797 73.12726390909364 -28.029579716808115 72.86407500947213 -27.83572206834298 A 0.75 0.75 0 0 0 72.6587 -26.9621A 77.5 77.5 0 0 1 72.7607 -26.6859A 0.75 0.75 0 0 0 73.4841 -26.155C 73.81016356707896 -26.178499195564683 74.16450908798015 -26.196334674942392 74.5469958325286 -26.205844249220462 C 75.45438016277727 -26.228384021171557 76.51899948313499 -26.204148186569395 77.73623346180304 -26.098000675346487 A 82 82 0 0 1 78.23 -24.5785C 77.30758282737605 -23.77713821030805 76.4605331708229 -23.13176347243013 75.71319528167932 -22.61665140350646 C 75.39816741770025 -22.39952474306375 75.10101243766475 -22.205674877581522 74.82342496578742 -22.033064390619796 A 0.75 0.75 0 0 0 74.5502 -21.1783A 77.5 77.5 0 0 1 74.6301 -20.8949A 0.75 0.75 0 0 0 75.3097 -20.3089C 75.63657284009453 -20.30672093017981 75.99122538759548 -20.296699799581766 76.37327916575761 -20.27617049491084 C 77.27963478306552 -20.227448230238352 78.33907071569021 -20.119758037456304 79.54422413048904 -19.91843466633005 A 82 82 0 0 1 79.9172 -18.3649C 78.93480211259745 -17.63835818688295 78.03972810910741 -17.061431674028718 77.25427878613841 -16.60654297868894 C 76.923186486492 -16.414802448614886 76.6117382509368 -16.244864668598428 76.32146362587498 -16.094565544191042 A 0.75 0.75 0 0 0 75.982 -15.2639A 77.5 77.5 0 0 1 76.0394 -14.9751A 0.75 0.75 0 0 0 76.671 -14.3375C 76.99665748983817 -14.309744977590501 77.34943051304958 -14.271929020619206 77.72869583623724 -14.221487406989263 C 78.62843475682986 -14.101803494656698 79.67615552689871 -13.911322889543891 80.86179820627187 -13.616064884044103 A 82 82 0 0 1 81.1117 -12.038C 80.0753620943094 -11.390831819886492 79.1377821727563 -10.885910475855232 78.31906397222637 -10.494049694171954 C 77.97394853103933 -10.328877438594665 77.65012722190365 -10.183899466967823 77.34895508324695 -10.056838349196278 A 0.75 0.75 0 0 0 76.9454 -9.25533A 77.5 77.5 0 0 1 76.98 -8.96293A 0.75 0.75 0 0 0 77.5595 -8.27779C 77.88203214217017 -8.224544688741272 78.230750678095 -8.15916705334654 78.60488924947222 -8.079124120079149 C 79.49246428371056 -7.889216451204972 80.52201034427357 -7.617119810033158 81.68083240683656 -7.229747533946991 A 82 82 0 0 1 81.8062 -5.63696C 80.72223084094996 -5.073077186884484 79.74792549332717 -4.64327401966553 78.900986085194 -4.3168571036647645 C 78.54397525392375 -4.179271464465219 78.20977733725994 -4.060147138633144 77.89956451139307 -3.957107401540608 A 0.75 0.75 0 0 0 77.4343 -3.18974A 77.5 77.5 0 0 1 77.4459 -2.89552A 0.75 0.75 0 0 0 77.9699 -2.16702" stroke="#191919" stroke-width="0.35 px" style="stroke-width:0.35;stroke-miterlimit:4;stroke-dasharray:none;fill:none;fill-rule: evenodd "/>
<title>b'InvoluteGear'</title>
</g>
</svg>