<?xml version="1.0"?>
<!DOCTYPE svg PUBLIC "-//W3C//DTD SVG 1.1//EN" "http://www.w3.org/Graphics/SVG/1.1/DTD/svg11.dtd">
<svg width="185.60411225851118mm" height="185.63245706778758mm" viewBox="0 0 185.60411225851118 185.63245706778758" xmlns="http://www.w3.org/2000/svg" version="1.1">
<g id="InvoluteGear" transform="translate(92.787883,92.816229) scale(1,-1)">
<path id="InvoluteGear_w0000"  d="M 86.97265943393987 -2.180942683316022 C 87.29287316478644 -2.0977913857781325 87.63448113887766 -2.0020098540264955 87.99671528893246 -1.8917531481328798 C 88.8792301635189 -1.6231184636489362 89.88341338836756 -1.2688823793513446 90.99658062360879 -0.8030241158654152 A 91 91 0 0 1 90.9966 0.803024C 89.88341338836756 1.2688823793513446 88.8792301635189 1.6231184636489362 87.99671528893246 1.8917531481328798 C 87.63448113887766 2.0020098540264955 87.29287316478644 2.0977913857781325 86.9726630585833 2.18094136302782 A 0.75 0.75 0 0 0 86.451 2.91162A 86.5 86.5 0 0 1 86.441 3.19379A 0.75 0.75 0 0 0 86.9099 3.95945C 87.22340483385611 4.064982564659301 87.55740554153033 4.184622177917271 87.91095998216664 4.320155857003988 C 88.77232732339024 4.650373059837932 89.74902170844021 5.074560790327422 90.82655491512791 5.617780270609623 A 91 91 0 0 1 90.7133 7.21983C 89.57001042406705 7.6060040408429055 88.54334114973395 7.888523692595244 87.64407538649803 8.094237534243824 C 87.27496615933939 8.178667973581655 86.92745279257468 8.250114245053732 86.60217500885297 8.310469810234977 A 0.75 0.75 0 0 0 86.0303 9.00253A 86.5 86.5 0 0 1 86.0004 9.2833A 0.75 0.75 0 0 0 86.4141 10.0801C 86.71939388751402 10.207504976434436 87.04412335404635 10.350406632663542 87.38723669482526 10.510542062971702 C 88.22316521392014 10.900696658661557 89.16750491687431 11.392722753406938 90.20403587877432 12.010597158359415 A 91 91 0 0 1 89.978 13.6007C 88.81037417334223 13.90523297279661 87.76633366420634 14.114628693309834 86.85479710911893 14.256396836111676 C 86.48065168845937 14.314580380691925 86.12896422313396 14.36133545015382 85.80023927945024 14.398595914876871 A 0.75 0.75 0 0 0 85.1809 15.0486A 86.5 86.5 0 0 1 85.1314 15.3266A 0.75 0.75 0 0 0 85.4878 16.1506C 85.78335128294233 16.299174111870066 86.0971917224649 16.464625882207148 86.42815458998176 16.648565277078013 C 87.23447973311428 17.096713535053425 88.14176010107425 17.654126744800337 89.1321248730735 18.343577855217642 A 91 91 0 0 1 88.7945 19.9137C 87.60828910578329 20.135186733534297 86.55207871914433 20.27041532386174 85.6328126014712 20.34753148606056 C 85.25549496097638 20.37917826839085 84.9013854863521 20.40100920443836 84.5708510738404 20.414988938942216 A 0.75 0.75 0 0 0 83.9072 21.0197A 86.5 86.5 0 0 1 83.8382 21.2935A 0.75 0.75 0 0 0 84.1356 22.1406C 84.41994033731262 22.309641581753716 84.72132821254239 22.496819193801432 85.03849176643917 22.703646176422186 C 85.81119646230563 23.207555444604463 86.67689747011585 23.827578764780686 87.61616210473704 24.585171769911167 A 91 91 0 0 1 87.1686 26.1276C 85.9697439487301 26.264828006796176 84.90662567160531 26.325215764903025 83.98420972890423 26.33729575765781 C 83.60559964607943 26.342248115060446 83.25083231774661 26.33904615706831 82.92013514222369 26.329675515018884 A 0.75 0.75 0 0 0 82.2155 26.886A 86.5 86.5 0 0 1 82.1273 27.1543A 0.75 0.75 0 0 0 82.3642 28.0202C 82.6359534953744 28.208963539486128 82.92338730707723 28.416934483796574 83.22517145448221 28.64561865254351 C 83.96040612715605 29.20277848030598 84.78021489594165 29.882322985918513 85.6637000240216 30.704283595518692 A 91 91 0 0 1 85.1085 32.2113C 83.9029018517338 32.26361922808917 82.83817208590334 32.24886530520214 81.91720174800189 32.19584894659662 C 81.5391854392351 32.17408220667614 81.18552769017813 32.14586330663801 80.85631526833788 32.113188972102634 A 0.75 0.75 0 0 0 80.1142 32.6185A 86.5 86.5 0 0 1 80.0073 32.8798A 0.75 0.75 0 0 0 80.1825 33.7603C 80.44027848983691 33.96774985981878 80.71232625722128 34.19547803560865 80.99722752469232 34.44488009745624 C 81.69132927201767 35.05251474256297 82.46116155573021 35.788194977066986 83.28446569880145 36.67042822472571 A 91 91 0 0 1 82.6243 38.1345C 81.4180597181563 38.10167472129715 80.35702289375601 38.01185262071791 79.4420863885514 37.89400403558387 C 79.06654711207808 37.84562663914365 78.71576084741326 37.79253138220007 78.3896732989814 37.73671613706982 A 0.75 0.75 0 0 0 77.6138 38.1884A 86.5 86.5 0 0 1 77.4887 38.4415A 0.75 0.75 0 0 0 77.6014 39.3322C 77.84385406313196 39.55731055897951 78.09916045790514 39.80366143593211 78.36575948165867 40.072538882353534 C 79.01527032364474 40.72762113956756 79.73129085657051 41.51577198104059 80.49031235480574 42.4538826250957 A 91 91 0 0 1 79.7285 43.8678C 78.52759690651574 43.749909587616074 77.47553905563298 43.58546679853153 76.57119455077145 43.403373102592134 C 76.2000032243768 43.32862606338779 75.85383604362961 43.25091896743807 75.53249792036972 43.1722408804566 A 0.75 0.75 0 0 0 74.7267 43.5681A 86.5 86.5 0 0 1 74.5841 43.8117A 0.75 0.75 0 0 0 74.6336 44.7082C 74.85961547114925 44.94979872672857 75.0969085696948 45.213544997166736 75.3438771668048 45.500558294248876 C 75.94556127310824 46.19982457671639 76.60420287696913 47.03651949731141 77.29516032344405 48.02583391772263 A 91 91 0 0 1 76.4356 49.3825C 75.24591355714499 49.18018460505679 74.20807597907276 48.94194037317043 73.31882887338763 48.69650874805926 C 72.95383475358825 48.59576445208022 72.61401124424043 48.493832649967594 72.29902343651878 48.392683691406624 A 0.75 0.75 0 0 0 71.4673 48.7307A 86.5 86.5 0 0 1 71.3078 48.9637A 0.75 0.75 0 0 0 71.2941 49.8614C 71.5024300404423 50.1183492582646 71.72052766047949 50.39817695153585 71.94663544581806 50.701896213469844 C 72.49749525648684 51.44186281174576 73.0954766119431 52.3229334394554 73.71492769141561 53.358522921544264 A 91 91 0 0 1 72.7618 54.6511C 71.58935885141696 54.36544641663352 70.5709120007644 54.05458766272455 69.70119247860569 53.74704083645232 C 69.34421394774665 53.62080118671356 69.01242709342813 53.49515249754883 68.70535885465844 53.37203658643196 A 0.75 0.75 0 0 0 67.8518 53.6505A 86.5 86.5 0 0 1 67.6764 53.8717A 0.75 0.75 0 0 0 67.5993 54.7662C 67.78902309995532 55.03721269482549 67.98683869011175 55.331727723437716 68.19095920606591 55.65063983613814 C 68.68825036523242 56.4276202738513 69.22259235925051 57.34867715912751 69.767450997602 58.425382448185985 A 91 91 0 0 1 68.7255 59.6476C 67.57614956094525 59.27986230882758 66.58216728869289 58.89793771557133 65.73630824897177 58.529807870956446 C 65.38912375613727 58.37870178704291 65.06702650226687 58.22996218627518 64.76940763096869 58.085492679878676 A 0.75 0.75 0 0 0 63.8984 58.3031A 86.5 86.5 0 0 1 63.7077 58.5113A 0.75 0.75 0 0 0 63.5678 59.3982C 63.7378946562758 59.68188350619664 63.914442709231736 59.98961861109185 64.09555903765857 60.322134770455 C 64.5368040657823 61.13225817014802 65.00484463342629 62.08871265391892 65.47239637232772 63.20116965835683 A 91 91 0 0 1 64.3468 64.3468C 63.22627929254451 63.898948908866714 62.26171356837386 63.44786120537536 61.443929038278235 63.02098234678622 C 61.10826823914765 62.845762631607094 60.797465258042166 62.67467313244556 60.51077847646162 62.50956977058325 A 0.75 0.75 0 0 0 59.6266 62.6652A 86.5 86.5 0 0 1 59.4217 62.8595A 0.75 0.75 0 0 0 59.2195 63.7342C 59.36922722753218 64.02922217602983 59.52362818976844 64.34864423639497 59.68083801823015 64.69310786364098 C 60.06383865477632 65.53233823128703 60.46324604148132 66.5194253054256 60.85116156168806 67.66209182040512 A 91 91 0 0 1 59.6476 68.7255C 58.56141888108673 68.1996941596566 57.6310751229165 67.68169064217857 56.84543926383948 67.19818945861597 C 56.522974403629824 66.99972904797848 56.22501410010727 66.80714200970189 55.9506876673694 66.62222732901762 A 0.75 0.75 0 0 0 55.0577 66.7151A 86.5 86.5 0 0 1 54.8396 66.8944A 0.75 0.75 0 0 0 54.5763 67.7527C 54.704785295103804 68.05757048174974 54.83626994879313 68.38708815294748 54.96879006583221 68.74178314761245 C 55.29163822089505 69.60593947973449 55.62042259915132 70.61874152608935 55.92676932505444 71.78592484451076 A 91 91 0 0 1 54.6512 72.7617C 53.604808426492205 72.1606719646919 52.713321560127866 71.57833330069487 51.963748370400694 71.04061857073451 C 51.656085952825066 70.81990618442157 51.37245275012974 70.6067810659672 51.1118533467234 70.40297630209865 A 0.75 0.75 0 0 0 50.2145 70.4326A 86.5 86.5 0 0 1 49.9844 70.5961A 0.75 0.75 0 0 0 49.6611 71.4337C 49.7678068740695 71.74685939472931 49.87572016928109 72.08483103629702 49.98289036634043 72.44799032575924 C 50.24397762665117 73.332767438979 50.500501009224585 74.36623872870072 50.72375273684534 75.5521240019827 A 91 91 0 0 1 49.3825 76.4355C 48.38114151272065 75.76214893179113 47.532952880887294 75.11837630320662 46.82317669643652 74.52912689458529 C 46.53184948018339 74.28726211060332 46.26395642466391 74.05466069059082 46.01838234370834 73.83298118861987 A 0.75 0.75 0 0 0 45.1212 73.7992A 86.5 86.5 0 0 1 44.8801 73.9461A 0.75 0.75 0 0 0 44.4986 74.7588C 44.5828877425853 75.078709063181 44.66669206071061 75.42345091740086 44.74797842125927 75.79326526034768 C 44.94600406322015 76.69425523959278 45.12898846352224 77.7432470707011 45.26803296398352 78.94192627806405 A 91 91 0 0 1 43.8678 79.7285C 42.91644218557804 78.986182683864 42.11577742137428 78.28418333354487 41.449334311448006 77.64633485717616 C 41.17579367405454 77.38452263371283 40.924975395438096 77.13360372071647 40.69565007465186 76.89515387677116 A 0.75 0.75 0 0 0 39.8031 76.7982A 86.5 86.5 0 0 1 39.5522 76.9277A 0.75 0.75 0 0 0 39.1143 77.7115C 39.175858906954886 78.03652037965367 39.23513673909651 78.38631495994899 39.29013429857507 78.7609419599261 C 39.424111768398824 79.67365611844109 39.532645567351686 80.73294246639936 39.58679012794635 81.93844384832754 A 91 91 0 0 1 38.1346 82.6243C 37.237935302229495 81.81671124693152 36.48878327723592 81.05998250032944 35.86899342788469 80.37671268523786 C 35.61460213504687 80.0962573576209 35.38210819738099 79.82827101704359 35.17017412397682 79.57423877625206 A 0.75 0.75 0 0 0 34.2867 79.4146A 86.5 86.5 0 0 1 34.0273 79.5261A 0.75 0.75 0 0 0 33.5352 80.277C 33.57365791285559 80.60555767695108 33.60811393983555 80.95866232431804 33.636548703169154 81.33623560845584 C 33.705810531840385 82.25612685021392 33.739353019517054 83.32043040372034 33.708327894767784 84.52674821296758 A 91 91 0 0 1 32.2113 85.1085C 31.373910898330276 84.23963307007239 30.68000385025192 83.4319449117383 30.10995502332883 82.70665777377312 C 29.875980439671302 82.40895655633737 29.66296911605862 82.1252378826478 29.469482134929624 81.85688882085545 A 0.75 0.75 0 0 0 28.5995 81.6353A 86.5 86.5 0 0 1 28.3328 81.7282A 0.75 0.75 0 0 0 27.789 82.4425C 27.80419464384072 82.77302214048461 27.813657207465802 83.12767770533175 27.815387514093835 83.50631622252118 C 27.819588642666076 84.42880169562783 27.777972712080196 85.49282014791493 27.66193246759786 86.69394456983515 A 91 91 0 0 1 26.1276 87.1686C 25.353583248491223 86.24287727864038 24.718378187337024 85.38825357035115 24.200910337423473 84.62456245355068 C 23.988518112552747 84.3110984787866 23.796050614692714 84.0130609441456 23.62197466824618 83.73173196287988 A 0.75 0.75 0 0 0 22.7698 83.4493A 86.5 86.5 0 0 1 22.4972 83.5232A 0.75 0.75 0 0 0 21.9044 84.1974C 21.89621227570369 84.52811557132372 21.880634233957892 84.88255517746667 21.85565146357977 85.26037256966119 C 21.7947709622418 86.18085649789184 21.678203941866187 87.23928896255207 21.477726684311808 88.42923605569369 A 91 91 0 0 1 19.9138 88.7945C 19.206945322232137 87.81646381075468 18.633606807664982 86.91916224483613 18.17129793355982 86.12087181992943 C 17.98154619485654 85.79320674959156 17.81058138614209 85.48233516200494 17.656783711986925 85.18942782809928 A 0.75 0.75 0 0 0 16.8266 84.8476A 86.5 86.5 0 0 1 16.5496 84.9021A 0.75 0.75 0 0 0 15.9106 85.5328C 15.879144079422048 85.86209418227985 15.838603041325749 86.21455202942964 15.787031656846816 86.58966602938615 C 15.661372829193924 87.50356260811209 15.470435450060602 88.55113602784726 15.186519947046998 89.72397753564842 A 91 91 0 0 1 13.6007 89.978C 12.964619360516398 88.95255313746608 12.456003736176056 88.01704402518398 12.051157037435233 87.18813133491271 C 11.884991118516824 86.84789757989942 11.736380737025172 86.52574068597924 11.603627547437764 86.22271424903747 A 0.75 0.75 0 0 0 10.7996 85.8232A 86.5 86.5 0 0 1 10.5194 85.858A 0.75 0.75 0 0 0 9.83757 86.442C 9.782966786081928 86.76831215901434 9.71766472504765 87.11703231990566 9.639761652511266 87.48757412854516 C 9.449950524501983 88.39033037098159 9.185594027029348 89.42182578770914 8.819654731311154 90.57171867277366 A 91 91 0 0 1 7.21986 90.7133C 6.657704317286727 89.64548531889591 6.2163454806295215 88.67642931959011 5.870977883141755 87.82102396528163 C 5.729225614257865 87.46991655304615 5.603710029434279 87.13807932223291 5.492662694127462 86.82644344472118 A 0.75 0.75 0 0 0 4.71885 86.3712A 86.5 86.5 0 0 1 4.4369 86.3861A 0.75 0.75 0 0 0 3.71554 86.9206C 3.638051244311726 87.24225476915129 3.5483134919227455 87.58549993748373 3.4444668405176433 87.9496235341544 C 3.191449041643923 88.8367419541115 2.854990436604848 89.84702050955109 2.4088504393460224 90.96823606336696 A 91 91 0 0 1 0.803052 90.9966C 0.3176209260410328 89.89180820177187 -0.054282295409834425 88.89403310368594 -0.3384501876463784 88.01639667178719 C -0.45508260382252597 87.65616480179601 -0.5568780796480808 87.31630043048173 -0.6456663284356585 86.99760766666603 A 0.75 0.75 0 0 0 -1.38544 86.4889A 86.5 86.5 0 0 1 -1.66774 86.4839A 0.75 0.75 0 0 0 -2.42501 86.9662C -2.5249888857581038 87.28156085444701 -2.6387152605333295 87.6176210000577 -2.767988132013496 87.9735123393169 C -3.082952079804847 88.84057335744988 -3.489836572564439 89.82460189465685 -4.013954624339074 90.91155427773383 A 91 91 0 0 1 -5.61775 90.8266C -6.024044836681382 89.69029461788189 -6.3246396397839435 88.66877128636484 -6.546192116624221 87.77327611743314 C -6.637123623262024 87.40571444674232 -6.714691850149453 87.0595161221292 -6.780778673828516 86.73535418332813 A 0.75 0.75 0 0 0 -7.48282 86.1757A 86.5 86.5 0 0 1 -7.76408 86.1509A 0.75 0.75 0 0 0 -8.55347 86.5785C -8.675449648209886 86.88603459396171 -8.81259806629284 87.21323548210957 -8.966653126904976 87.559121531207 C -9.341994089069228 88.40180549313797 -9.81727739147332 89.35468163143813 -10.416762367993762 90.40195570167907 A 91 91 0 0 1 -12.0106 90.204C -12.33569911104611 89.04194849776445 -12.563487947611684 88.00176611066973 -12.721321245760507 87.0928735165919 C -12.786098826667889 86.71981321895593 -12.83905336361264 86.36900568368287 -12.882109520951888 86.04098952836969 A 0.75 0.75 0 0 0 -13.5429 85.4332A 86.5 86.5 0 0 1 -13.8217 85.3886A 0.75 0.75 0 0 0 -14.6393 85.7595C -14.782689756902672 86.05764647962958 -14.942576951773237 86.37435801194854 -15.120646706954584 86.70851558398618 C -15.554494753698458 87.52262428060514 -16.09580902824195 88.43960083900858 -16.767674325510185 89.44197912967503 A 91 91 0 0 1 -18.3436 89.1321C -18.58589755294413 87.94999986917718 -18.73974559044708 86.89634056283454 -18.833073392352322 85.97857860079557 C -18.871374328879615 85.60187824385179 -18.89945135904232 85.24820920341337 -18.919262346431683 84.91797299157416 A 0.75 0.75 0 0 0 -19.5356 84.2651A 86.5 86.5 0 0 1 -19.8105 84.2009A 0.75 0.75 0 0 0 -20.6522 84.5132C -20.816283248818433 84.80052349936702 -20.99811267051433 85.10516783493415 -21.199309985701756 85.42593217369674 C -21.689503707879595 86.20740975642804 -22.294152154075647 87.0839184038461 -23.03505057297653 88.03640711671513 A 91 91 0 0 1 -24.5851 87.6162C -24.743501988132408 86.41988876526102 -24.82264276338868 85.35800181733399 -24.851000114635784 84.43594273126394 C -24.862633593443803 84.05747901724203 -24.865693238472513 83.70271043300761 -24.862160358569337 83.37189938483834 A 0.75 0.75 0 0 0 -25.4309 82.6772A 86.5 86.5 0 0 1 -25.7006 82.5938A 0.75 0.75 0 0 0 -26.5623 82.8459C -26.746171064679427 83.1209285766265 -26.94903684816807 83.41198799268606 -27.172359368457837 83.71776106637286 C -27.716456645603245 84.4627142532088 -28.381426935307644 85.2943882676498 -29.187667357186545 86.19224215186553 A 91 91 0 0 1 -30.7043 85.6637C -30.777835541051758 84.45923812256876 -30.78187477869993 83.39441380041738 -30.745120404391397 82.47265124230206 C -30.730028468073904 82.09430965838796 -30.708055484970995 81.74020896959881 -30.681196338405243 81.41047116910119 A 0.75 0.75 0 0 0 -31.1995 80.6774A 86.5 86.5 0 0 1 -31.4627 80.5751A 0.75 0.75 0 0 0 -32.34 80.7659C -32.542810801669454 81.02722936882691 -32.76570227982196 81.30325382200884 -33.01003742365145 81.59251228454754 C -33.60532759049861 82.29722975618364 -34.32730687517707 83.07992577954208 -35.19487265080731 83.91867177221677 A 91 91 0 0 1 -36.6704 83.2845C -36.658835465477736 82.07781580397857 -36.58775304223902 81.01535900881348 -36.48607005081886 80.09848515335138 C -36.44432788664344 79.722150578285 -36.39743174370545 79.37048189676085 -36.34738014139426 79.0434600810706 A 0.75 0.75 0 0 0 -36.8127 78.2756A 86.5 86.5 0 0 1 -37.068 78.1551A 0.75 0.75 0 0 0 -37.9566 78.2835C -38.17732389219865 78.52985658010522 -38.41913063088265 78.78947093046823 -38.68326113285573 79.06077371074863 C -39.32677848373742 79.72174460018955 -40.10216989891034 80.4515632802479 -41.02673885923761 81.22702279103623 A 91 91 0 0 1 -42.4539 80.4903C -42.357202915610124 79.28748593569246 -42.21135296054154 78.23268977382399 -42.045247931558194 77.32527244044286 C -41.977063496887084 76.95281975414697 -41.90547782833918 76.60533507556971 -41.83248312484759 76.28265845092295 A 0.75 0.75 0 0 0 -42.2425 75.4839A 86.5 86.5 0 0 1 -42.4886 75.3456A 0.75 0.75 0 0 0 -43.384 75.411C -43.621639475474645 75.64125199607321 -43.88115680568126 75.88316285798278 -44.163766780923275 76.13515833920047 C -44.85230534476731 76.74908972272286 -45.67724592940766 77.42239513952802 -46.654211918378834 78.13070486815407 A 91 91 0 0 1 -48.0258 77.2952C -47.84454891144897 76.1021498007564 -47.6246580416902 75.06026921360512 -47.39495850204273 74.16682910981538 C -47.30067148829967 73.80011385283818 -47.20475293034169 73.45854432839747 -47.109178781610765 73.14182045350702 A 0.75 0.75 0 0 0 -47.4618 72.3162A 86.5 86.5 0 0 1 -47.6976 72.1609A 0.75 0.75 0 0 0 -48.5954 72.1629C -48.8486342451189 72.37580649946732 -49.124569264563156 72.59880868517789 -49.42425076439317 72.83024143852121 C -50.154380276709006 73.39407474085404 -51.0247602183199 74.00751252068778 -52.04925604052081 74.6451437037126 A 91 91 0 0 1 -53.3585 73.7149C -53.093535771264854 72.53767658356739 -52.80069947206819 71.51390216781031 -52.50854977330888 70.63889036726762 C -52.38862991365355 70.27973949657303 -52.26885632771639 69.94578680845815 -52.151178879347576 69.63659358573706 A 0.75 0.75 0 0 0 -52.4447 68.7881A 86.5 86.5 0 0 1 -52.6689 68.6166A 0.75 0.75 0 0 0 -53.5646 68.5553C -53.83226757611493 68.74978837549469 -54.12324559040991 68.95277089933441 -54.438505616670206 69.1624879384676 C -55.20658860895412 69.67341417046033 -56.11807171844788 70.22392819716042 -57.18499338722603 70.78770418810397 A 91 91 0 0 1 -58.4254 69.7675C -58.07801330655428 68.61182431039497 -57.7136904736322 67.61125645867396 -57.360546090864695 66.75903222615422 C -57.21559082000576 66.4092350133142 -57.072558912069766 66.08456289701903 -56.93336442719148 65.78444071154998 A 0.75 0.75 0 0 0 -57.1663 64.9174A 86.5 86.5 0 0 1 -57.3779 64.7304A 0.75 0.75 0 0 0 -58.267 64.6061C -58.54771125789206 64.7812622640547 -58.85228262920718 64.96321387730015 -59.18155057230498 65.15017040248337 C -59.98376049372517 65.60564415534856 -60.93180580809929 66.09049179572565 -62.03583797336861 66.57760389095985 A 91 91 0 0 1 -63.2011 65.4724C -62.773149100963245 64.34415137978772 -62.33915477234338 63.37177487080998 -61.926775053118924 62.54658394457142 C -61.75750653092432 62.207883061705 -61.591928878760115 61.8941090173814 -61.43191081729431 61.604553062795794 A 0.75 0.75 0 0 0 -61.6031 60.7232A 86.5 86.5 0 0 1 -61.801 60.5218A 0.75 0.75 0 0 0 -62.6791 60.3351C -62.97147318722166 60.48999916261168 -63.28812055630545 60.6500133914781 -63.629756019910914 60.813277994707065 C -64.46209630099125 61.211030121119 -65.44198070617763 61.62779588861729 -66.57762313522528 62.0358173201862 A 91 91 0 0 1 -67.6621 60.8512C -67.15555222413649 59.755919123615506 -66.65404853773344 58.816578288236734 -66.18448793706987 58.0225317279655 C -65.99174945080273 57.696614565833954 -65.80445095394457 57.39530179998745 -65.62440651782433 57.11775462948592 A 0.75 0.75 0 0 0 -65.733 56.2265A 86.5 86.5 0 0 1 -65.9162 56.0117A 0.75 0.75 0 0 0 -66.779 55.7635C -67.08151440469383 55.89737792807988 -67.40866025028136 56.034657589728006 -67.7609612236996 56.17341689496189 C -68.61928518702771 56.51146581383431 -69.62612694820943 56.858073402364106 -70.7877219275784 57.184971428019715 A 91 91 0 0 1 -71.7859 55.9268C -71.20338976415597 54.86998588418344 -70.636875186109 53.968360471195204 -70.11247303129922 53.20941417691283 C -69.89722479440304 52.89790443842376 -69.6891385645409 52.61055407609729 -69.48996472609046 52.34639841572225 A 0.75 0.75 0 0 0 -69.5354 51.4498A 86.5 86.5 0 0 1 -69.703 51.2225A 0.75 0.75 0 0 0 -70.5461 50.9141C -70.85735889170446 51.02627876843391 -71.19337338964893 51.140139942494805 -71.55458472715166 51.25370265785474 C -72.43461624591727 51.5303642264782 -73.46339932808577 51.80508685446832 -74.64515985001887 52.049232884690305 A 91 91 0 0 1 -75.5521 50.7238C -74.89649559800968 49.710693135120515 -74.26779247545007 48.851274996977196 -73.6911613116511 48.13121000094562 C -73.45447568001482 47.835659611946774 -73.22663839227879 47.56370321819129 -73.00932742554257 47.31425507815528 A 0.75 0.75 0 0 0 -72.9914 46.4166A 86.5 86.5 0 0 1 -73.1425 46.1781A 0.75 0.75 0 0 0 -73.9618 45.811C -74.28019558095004 45.900969254663345 -74.62340472392474 45.990844690495216 -74.991726888798 46.07864505224566 C -75.88908169024153 46.29254095660177 -76.93468074783084 46.494009969738556 -78.13071934085215 46.65418768128525 A 91 91 0 0 1 -78.9419 45.2681C -78.21647085820229 44.30374421338219 -77.52871135846188 43.49081492801797 -76.90272393312635 42.81321855782706 C -76.64578006266113 42.535099935489775 -76.39932679095814 42.279892383379156 -76.16496132824136 42.04639450176822 A 0.75 0.75 0 0 0 -76.0838 41.1523A 86.5 86.5 0 0 1 -76.2177 40.9037A 0.75 0.75 0 0 0 -77.0091 40.4797C -77.33297207221861 40.54698342095492 -77.6816660095372 40.61242536365734 -78.05526403928276 40.67402595481253 C -78.96547154692175 40.82409057626509 -80.02267745802217 40.95130226605927 -81.22703551802384 41.026713661628946 A 91 91 0 0 1 -81.9384 39.5868C -81.14677559498728 38.676076266518805 -80.40338610129845 37.91368580674178 -79.73116105229126 37.2819338134237 C -79.45523902443506 37.02263253073468 -79.1913975865678 36.7854452514562 -78.94114522481675 36.569060902971216 A 0.75 0.75 0 0 0 -78.7971 35.6829A 86.5 86.5 0 0 1 -78.9131 35.4255A 0.75 0.75 0 0 0 -79.6726 34.9467C -80.00047958659002 34.990994555418546 -80.3529211425966 35.03167697652478 -80.72993379062282 35.066770906038194 C -81.64845939643904 35.152256630191616 -82.71200521438053 35.20457723440359 -83.91868269008867 35.19484661821682 A 91 91 0 0 1 -84.5267 33.7084C -83.6728111775648 32.85572605316139 -82.87749521899148 32.147672609892766 -82.16238153769282 31.564912350100123 C -81.86885598210917 31.32572023300648 -81.58894082284942 31.10773488165463 -81.32404830674227 30.909542082235287 A 0.75 0.75 0 0 0 -81.1178 30.0357A 86.5 86.5 0 0 1 -81.2154 29.7708A 0.75 0.75 0 0 0 -81.9393 29.2396C -82.2694287358074 29.26068231510751 -82.62386206439828 29.27640253684201 -83.00241107265701 29.28481496852209 C -83.92467872828553 29.30529590979869 -84.9892659213011 29.28246476981008 -86.19225120622946 29.187640619307246 A 91 91 0 0 1 -86.6939 27.662C -85.78199302372593 26.87169026530029 -84.93871282436814 26.221501325178263 -84.18427317116694 25.690636081211622 C -83.87460641740893 25.472744772808984 -83.58001206 25.275047341439198 -83.30179907072748 25.096033477642802 A 0.75 0.75 0 0 0 -83.0345 24.239A 86.5 86.5 0 0 1 -83.1131 23.9678A 0.75 0.75 0 0 0 -83.7977 23.3869C -84.12851572934092 23.38459482735967 -84.48317506150161 23.375274532368504 -84.86137451787529 23.356963555903782 C -85.78278953224722 23.31233767928434 -86.84311438049164 23.21446853868613 -88.03641426246269 23.035023263015233 A 91 91 0 0 1 -88.4292 21.4778C -87.46381329560816 20.75378106822458 -86.57677003500078 20.16469583984334 -85.78676299029983 19.688370355644807 C -85.46249778255799 19.492865379471365 -85.15469188126993 19.31644078674224 -84.86454446195009 19.157497696633563 A 0.75 0.75 0 0 0 -84.5374 18.3214A 86.5 86.5 0 0 1 -84.5968 18.0454A 0.75 0.75 0 0 0 -85.2386 17.4176C -85.56847868930372 17.392006464462735 -85.92159713008132 17.35769208598672 -86.2975628639023 17.31274892574087 C -87.21353479376465 17.20323855509796 -88.26431481217989 17.03081899302564 -89.44198433120647 16.7676465795237 A 91 91 0 0 1 -89.724 15.1865C -88.7098932492151 14.532477577813825 -87.78350613226287 14.007430854149284 -86.9618674714203 13.588018159321235 C -86.62461928264855 13.415873511334093 -86.30513531099847 13.261600695692184 -86.0044989614795 13.123520225751061 A 0.75 0.75 0 0 0 -85.6192 12.3126A 86.5 86.5 0 0 1 -85.6589 12.0331A 0.75 0.75 0 0 0 -86.2549 11.3616C -86.58214379266161 11.312772000204335 -86.93196212374653 11.25363449075098 -87.30382109264058 11.182283051287634 C -88.20978661191356 11.00843376177926 -89.24578686730374 10.762322763818105 -90.40195893308062 10.416734324211218 A 91 91 0 0 1 -90.5717 8.81968C -89.51402497689759 8.238774015116224 -88.55290921761846 7.780381552535023 -87.70373230311291 7.419971140025996 C -87.35518128682364 7.272044436202283 -87.02561089788776 7.140691977054962 -86.71598337334048 7.02416203723698 A 0.75 0.75 0 0 0 -86.2745 6.24244A 86.5 86.5 0 0 1 -86.2944 5.96079A 0.75 0.75 0 0 0 -86.8415 5.24898C -87.16446101085855 5.177177874890672 -87.50923645492176 5.093511854557359 -87.87513607621091 4.996107605158842 C -88.76658171024893 4.75878550520045 -89.78264090145409 4.440209183962546 -90.91155552290681 4.0139264224732045 A 91 91 0 0 1 -90.9682 2.40888C -89.87220233483738 1.904025294698274 -88.8811461635985 1.514570781391151 -88.00866155210315 1.214958197747069 C -87.65054417192684 1.0919864014842982 -87.31252926880494 0.9842086901758029 -86.99545311798192 0.8898098267795023 A 0.75 0.75 0 0 0 -86.4999 0.141175A 86.5 86.5 0 0 1 -86.4999 -0.141175A 0.75 0.75 0 0 0 -86.9954 -0.889808C -87.31252926880494 -0.9842086901757812 -87.65054417192684 -1.0919864014842764 -88.00866155210315 -1.2149581977470472 C -88.8811461635985 -1.5145707813911289 -89.87220233483738 -1.9040252946982514 -90.96823531610801 -2.40887865879498 A 91 91 0 0 1 -90.9116 -4.01393C -89.78264090145409 -4.440209183962523 -88.76658171024893 -4.758785505200428 -87.87513607621091 -4.996107605158819 C -87.50923645492176 -5.093511854557338 -87.16446101085855 -5.17717787489065 -86.84151589119378 -5.248975371476235 A 0.75 0.75 0 0 0 -86.2944 -5.96079A 86.5 86.5 0 0 1 -86.2745 -6.24244A 0.75 0.75 0 0 0 -86.716 -7.02416C -87.02561089788776 -7.1406919770549395 -87.35518128682365 -7.272044436202262 -87.70373230311291 -7.4199711400259725 C -88.55290921761848 -7.780381552535 -89.5140249768976 -8.238774015116203 -90.57171593680556 -8.819682827755283 A 91 91 0 0 1 -90.402 -10.4167C -89.24578686730375 -10.762322763818084 -88.20978661191357 -11.008433761779237 -87.3038210926406 -11.182283051287612 C -86.93196212374654 -11.253634490750958 -86.58214379266161 -11.312772000204316 -86.25493860049662 -11.36161043846272 A 0.75 0.75 0 0 0 -85.6589 -12.0331A 86.5 86.5 0 0 1 -85.6192 -12.3126A 0.75 0.75 0 0 0 -86.0045 -13.1235C -86.30513531099847 -13.261600695692167 -86.62461928264855 -13.415873511334073 -86.9618674714203 -13.588018159321216 C -87.78350613226287 -14.007430854149263 -88.7098932492151 -14.532477577813806 -89.72397282460159 -15.18654778051127 A 91 91 0 0 1 -89.442 -16.7676C -88.26431481217989 -17.03081899302562 -87.21353479376465 -17.203238555097943 -86.2975628639023 -17.312748925740852 C -85.92159713008132 -17.357692085986702 -85.56847868930372 -17.392006464462714 -85.23864354444694 -17.417642533751184 A 0.75 0.75 0 0 0 -84.5968 -18.0454A 86.5 86.5 0 0 1 -84.5374 -18.3214A 0.75 0.75 0 0 0 -84.8645 -19.1575C -85.15469188126994 -19.316440786742188 -85.462497782558 -19.49286537947131 -85.78676299029985 -19.68837035564475 C -86.5767700350008 -20.164695839843283 -87.46381329560818 -20.753781068224523 -88.42922939303838 -21.477754116131262 A 91 91 0 0 1 -88.0364 -23.035C -86.84311438049166 -23.214468538686074 -85.78278953224725 -23.312337679284283 -84.8613745178753 -23.356963555903725 C -84.48317506150163 -23.37527453236845 -84.12851572934093 -23.384594827359617 -83.79769385389284 -23.386900810070486 A 0.75 0.75 0 0 0 -83.1131 -23.9678A 86.5 86.5 0 0 1 -83.0345 -24.239A 0.75 0.75 0 0 0 -83.3018 -25.096C -83.58001206000002 -25.275047341439176 -83.87460641740894 -25.472744772808966 -84.18427317116695 -25.690636081211604 C -84.93871282436814 -26.221501325178245 -85.78199302372595 -26.871690265300273 -86.69393598876437 -27.661959361108572 A 91 91 0 0 1 -86.1923 -29.1876C -84.98926592130111 -29.282464769810062 -83.92467872828553 -29.305295909798673 -83.00241107265703 -29.284814968522074 C -82.6238620643983 -29.276402536841992 -82.26942873580741 -29.260682315107488 -81.93926826771064 -29.239646722950894 A 0.75 0.75 0 0 0 -81.2154 -29.7708A 86.5 86.5 0 0 1 -81.1178 -30.0357A 0.75 0.75 0 0 0 -81.324 -30.9095C -81.58894082284944 -31.107734881654608 -81.86885598210917 -31.325720233006464 -82.16238153769284 -31.56491235010011 C -82.8774952189915 -32.147672609892744 -83.67281117756481 -32.85572605316137 -84.52673775623175 -33.708354115987646 A 91 91 0 0 1 -83.9187 -35.1948C -82.71200521438054 -35.204577234403565 -81.64845939643905 -35.152256630191594 -80.72993379062284 -35.06677090603818 C -80.3529211425966 -35.031676976524764 -80.00047958659003 -34.990994555418524 -79.67262536868908 -34.94672218665646 A 0.75 0.75 0 0 0 -78.9131 -35.4255A 86.5 86.5 0 0 1 -78.7971 -35.6829A 0.75 0.75 0 0 0 -78.9411 -36.5691C -79.1913975865678 -36.78544525145619 -79.45523902443507 -37.02263253073467 -79.73116105229127 -37.281933813423684 C -80.40338610129847 -37.91368580674177 -81.14677559498728 -38.67607626651879 -81.93843156802164 -39.58681554624255 A 91 91 0 0 1 -81.227 -41.0267C -80.02267745802217 -40.95130226605926 -78.96547154692176 -40.82409057626508 -78.05526403928278 -40.674025954812514 C -77.68166600953721 -40.61242536365732 -77.33297207221864 -40.54698342095491 -77.00905745773548 -40.47969483830158 A 0.75 0.75 0 0 0 -76.2177 -40.9037A 86.5 86.5 0 0 1 -76.0838 -41.1523A 0.75 0.75 0 0 0 -76.165 -42.0464C -76.39932679095816 -42.279892383379135 -76.64578006266113 -42.53509993548976 -76.90272393312637 -42.813218557827035 C -77.52871135846189 -43.490814928017954 -78.21647085820229 -44.30374421338217 -78.94191223536792 -45.2680574527234 A 91 91 0 0 1 -78.1307 -46.6542C -76.93468074783084 -46.494009969738535 -75.88908169024154 -46.292540956601755 -74.99172688879801 -46.07864505224564 C -74.62340472392474 -45.9908446904952 -74.28019558095005 -45.90096925466332 -73.96183429620068 -45.810999686452796 A 0.75 0.75 0 0 0 -73.1425 -46.1781A 86.5 86.5 0 0 1 -72.9914 -46.4166A 0.75 0.75 0 0 0 -73.0093 -47.3143C -73.22663839227882 -47.56370321819124 -73.45447568001485 -47.835659611946724 -73.69116131165113 -48.13121000094557 C -74.2677924754501 -48.851274996977146 -74.89649559800971 -49.710693135120465 -75.55210826685638 -50.72377617402719 A 91 91 0 0 1 -74.6452 -52.0492C -73.4633993280858 -51.80508685446827 -72.4346162459173 -51.53036422647815 -71.55458472715169 -51.25370265785469 C -71.19337338964895 -51.140139942494756 -70.8573588917045 -51.02627876843386 -70.54613699659545 -50.91407643852935 A 0.75 0.75 0 0 0 -69.703 -51.2225A 86.5 86.5 0 0 1 -69.5354 -51.4498A 0.75 0.75 0 0 0 -69.49 -52.3464C -69.68913856454091 -52.61055407609728 -69.89722479440306 -52.89790443842375 -70.11247303129923 -53.209414176912816 C -70.63687518610901 -53.9683604711952 -71.20338976415599 -54.86998588418343 -71.78590749534581 -55.92679159391545 A 91 91 0 0 1 -70.7877 -57.185C -69.62612694820945 -56.85807340236409 -68.61928518702773 -56.511465813834306 -67.76096122369961 -56.17341689496189 C -67.40866025028137 -56.034657589728 -67.08151440469385 -55.89737792807987 -66.77898239105166 -55.76350182284501 A 0.75 0.75 0 0 0 -65.9162 -56.0117A 86.5 86.5 0 0 1 -65.733 -56.2265A 0.75 0.75 0 0 0 -65.6244 -57.1178C -65.80445095394457 -57.395301799987436 -65.99174945080273 -57.69661456583395 -66.18448793706989 -58.02253172796549 C -66.65404853773344 -58.81657828823672 -67.1555522241365 -59.7559191236155 -67.66207294363423 -60.851182551285866 A 91 91 0 0 1 -66.5776 -62.0358C -65.44198070617765 -61.627795888617285 -64.46209630099125 -61.21103012111899 -63.62975601991093 -60.81327799470706 C -63.28812055630545 -60.65001339147809 -62.97147318722166 -60.48999916261168 -62.67913825432045 -60.33511624606858 A 0.75 0.75 0 0 0 -61.801 -60.5218A 86.5 86.5 0 0 1 -61.6031 -60.7232A 0.75 0.75 0 0 0 -61.4319 -61.6045C -61.59192887876013 -61.89410901738138 -61.75750653092434 -62.207883061704976 -61.926775053118945 -62.546583944571395 C -62.3391547723434 -63.371774870809965 -62.773149100963266 -64.34415137978769 -63.20114934802314 -65.47241597809318 A 91 91 0 0 1 -62.0358 -66.5776C -60.93180580809931 -66.09049179572563 -59.98376049372519 -65.60564415534856 -59.181550572305 -65.15017040248334 C -58.8522826292072 -64.96321387730012 -58.547711257892075 -64.78126226405469 -58.26702980366266 -64.60614415510271 A 0.75 0.75 0 0 0 -57.3779 -64.7304A 86.5 86.5 0 0 1 -57.1663 -64.9174A 0.75 0.75 0 0 0 -56.9334 -65.7844C -57.07255891206982 -66.08456289701897 -57.21559082000581 -66.40923501331415 -57.36054609086475 -66.75903222615418 C -57.713690473632255 -67.6112564586739 -58.07801330655434 -68.61182431039491 -58.425360805474554 -69.76746912186017 A 91 91 0 0 1 -57.185 -70.7877C -56.118071718447936 -70.22392819716036 -55.20658860895418 -69.67341417046028 -54.43850561667026 -69.16248793846756 C -54.12324559040997 -68.95277089933435 -53.83226757611499 -68.74978837549463 -53.564637941443635 -68.55530750374388 A 0.75 0.75 0 0 0 -52.6689 -68.6166A 86.5 86.5 0 0 1 -52.4447 -68.7881A 0.75 0.75 0 0 0 -52.1512 -69.6366C -52.26885632771645 -69.94578680845811 -52.38862991365361 -70.279739496573 -52.508549773308935 -70.63889036726759 C -52.800699472068246 -71.51390216781027 -53.09353577126491 -72.53767658356735 -53.35850005427797 -73.7149442438724 A 91 91 0 0 1 -52.0493 -74.6451C -51.024760218319955 -74.00751252068774 -50.15438027670906 -73.394074740854 -49.42425076439323 -72.83024143852118 C -49.12456926456321 -72.59880868517786 -48.84863424511896 -72.37580649946727 -48.59538974738343 -72.16293175883811 A 0.75 0.75 0 0 0 -47.6976 -72.1609A 86.5 86.5 0 0 1 -47.4618 -72.3162A 0.75 0.75 0 0 0 -47.1092 -73.1418C -47.20475293034172 -73.45854432839745 -47.3006714882997 -73.80011385283817 -47.39495850204276 -74.16682910981537 C -47.62465804169023 -75.06026921360512 -47.844548911449 -76.10214980075638 -48.02580993982503 -77.29517522163593 A 91 91 0 0 1 -46.6542 -78.1307C -45.6772459294077 -77.422395139528 -44.85230534476734 -76.74908972272286 -44.163766780923304 -76.13515833920046 C -43.881156805681286 -75.88316285798277 -43.62163947547467 -75.6412519960732 -43.38404176602408 -75.41104391781553 A 0.75 0.75 0 0 0 -42.4886 -75.3456A 86.5 86.5 0 0 1 -42.2425 -75.4839A 0.75 0.75 0 0 0 -41.8325 -76.2827C -41.905477828339194 -76.60533507556971 -41.977063496887105 -76.95281975414697 -42.045247931558215 -77.32527244044286 C -42.21135296054156 -78.23268977382399 -42.357202915610145 -79.28748593569244 -42.45385765602347 -80.49032552451067 A 91 91 0 0 1 -41.0267 -81.227C -40.10216989891036 -80.45156328024788 -39.32677848373744 -79.72174460018955 -38.683261132855755 -79.06077371074863 C -38.41913063088267 -78.78947093046823 -38.177323892198665 -78.52985658010522 -37.956556670869986 -78.28346204928509 A 0.75 0.75 0 0 0 -37.068 -78.1551A 86.5 86.5 0 0 1 -36.8127 -78.2756A 0.75 0.75 0 0 0 -36.3474 -79.0435C -36.39743174370545 -79.37048189676085 -36.44432788664344 -79.722150578285 -36.48607005081886 -80.09848515335138 C -36.58775304223902 -81.01535900881348 -36.658835465477736 -82.07781580397857 -36.670402388873526 -83.28447707440863 A 91 91 0 0 1 -35.1949 -83.9187C -34.32730687517707 -83.07992577954208 -33.60532759049861 -82.29722975618364 -33.01003742365145 -81.59251228454754 C -32.76570227982196 -81.30325382200884 -32.542810801669454 -81.02722936882691 -32.339973919654405 -80.76587591060286 A 0.75 0.75 0 0 0 -31.4627 -80.5751A 86.5 86.5 0 0 1 -31.1995 -80.6774A 0.75 0.75 0 0 0 -30.6812 -81.4105C -30.708055484971048 -81.7402089695988 -30.73002846807396 -82.09430965838794 -30.74512040439145 -82.47265124230204 C -30.781874778699983 -83.39441380041734 -30.777835541051815 -84.45923812256875 -30.70425702159953 -85.66370954885828 A 91 91 0 0 1 -29.1877 -86.1922C -28.3814269353077 -85.29438826764978 -27.716456645603298 -84.46271425320879 -27.17235936845789 -83.71776106637283 C -26.949036848168127 -83.41198799268605 -26.74617106467948 -83.12092857662648 -26.56227504512126 -82.84591824078089 A 0.75 0.75 0 0 0 -25.7006 -82.5938A 86.5 86.5 0 0 1 -25.4309 -82.6772A 0.75 0.75 0 0 0 -24.8622 -83.3719C -24.865693238472552 -83.70271043300758 -24.862633593443842 -84.05747901724202 -24.851000114635823 -84.43594273126394 C -24.822642763388718 -85.35800181733397 -24.743501988132447 -86.419888765261 -24.585144590314897 -87.61616973135101 A 91 91 0 0 1 -23.0351 -88.0364C -22.294152154075686 -87.08391840384608 -21.689503707879634 -86.20740975642802 -21.199309985701795 -85.42593217369674 C -20.99811267051437 -85.10516783493414 -20.816283248818472 -84.80052349936702 -20.65224425243627 -84.51322637355965 A 0.75 0.75 0 0 0 -19.8105 -84.2009A 86.5 86.5 0 0 1 -19.5356 -84.2651A 0.75 0.75 0 0 0 -18.9193 -84.918C -18.89945135904234 -85.24820920341337 -18.871374328879636 -85.60187824385179 -18.833073392352343 -85.97857860079556 C -18.739745590447097 -86.89634056283454 -18.585897552944154 -87.94999986917716 -18.343550205351637 -89.1321305634693 A 91 91 0 0 1 -16.7677 -89.442C -16.095809028241973 -88.43960083900856 -15.55449475369848 -87.52262428060514 -15.120646706954606 -86.70851558398617 C -14.942576951773258 -86.37435801194854 -14.782689756902693 -86.05764647962958 -14.639325017725074 -85.7594938636897 A 0.75 0.75 0 0 0 -13.8217 -85.3886A 86.5 86.5 0 0 1 -13.5429 -85.4332A 0.75 0.75 0 0 0 -12.8821 -86.041C -12.83905336361266 -86.36900568368287 -12.786098826667907 -86.71981321895593 -12.721321245760526 -87.0928735165919 C -12.563487947611703 -88.00176611066973 -12.335699111046129 -89.04194849776445 -12.010569175973913 -90.20403960460274 A 91 91 0 0 1 -10.4168 -90.402C -9.81727739147334 -89.35468163143813 -9.341994089069248 -88.40180549313797 -8.966653126904996 -87.559121531207 C -8.812598066292857 -87.21323548210957 -8.675449648209906 -86.88603459396171 -8.553473402155984 -86.57851186922443 A 0.75 0.75 0 0 0 -7.76408 -86.1509A 86.5 86.5 0 0 1 -7.48282 -86.1757A 0.75 0.75 0 0 0 -6.78078 -86.7354C -6.714691850149455 -87.0595161221292 -6.637123623262026 -87.40571444674232 -6.546192116624223 -87.77327611743314 C -6.324639639783945 -88.66877128636484 -6.024044836681384 -89.69029461788189 -5.617752095111464 -90.82655665782706 A 91 91 0 0 1 -4.01395 -90.9116C -3.4898365725644407 -89.82460189465685 -3.0829520798048486 -88.84057335744988 -2.767988132013498 -87.9735123393169 C -2.6387152605333313 -87.6176210000577 -2.5249888857581055 -87.28156085444701 -2.4250088123501317 -86.96620008365807 A 0.75 0.75 0 0 0 -1.66774 -86.4839A 86.5 86.5 0 0 1 -1.38544 -86.4889A 0.75 0.75 0 0 0 -0.645668 -86.9976C -0.5568780796481414 -87.31630043048173 -0.45508260382258636 -87.65616480179601 -0.3384501876464394 -88.0163966717872 C -0.054282295409896264 -88.89403310368593 0.3176209260409706 -89.89180820177188 0.8030523441072355 -90.99658037449662 A 91 91 0 0 1 2.40885 -90.9682C 2.854990436604786 -89.8470205095511 3.1914490416438617 -88.83674195411152 3.444466840517583 -87.94962353415441 C 3.548313491922685 -87.58549993748373 3.638051244311666 -87.24225476915129 3.715537049377123 -86.92062706380766 A 0.75 0.75 0 0 0 4.4369 -86.3861A 86.5 86.5 0 0 1 4.71885 -86.3712A 0.75 0.75 0 0 0 5.49266 -86.8264C 5.6037100294342395 -87.13807932223291 5.729225614257825 -87.46991655304615 5.870977883141715 -87.82102396528164 C 6.216345480629482 -88.67642931959013 6.6577043172866865 -89.64548531889592 7.219856016942433 -90.71326370500742 A 91 91 0 0 1 8.81965 -90.5717C 9.185594027029307 -89.42182578770915 9.449950524501944 -88.3903303709816 9.639761652511227 -87.48757412854518 C 9.71766472504761 -87.11703231990566 9.78296678608189 -86.76831215901434 9.837572292421648 -86.44201985216566 A 0.75 0.75 0 0 0 10.5194 -85.858A 86.5 86.5 0 0 1 10.7996 -85.8232A 0.75 0.75 0 0 0 11.6036 -86.2227C 11.73638073702515 -86.52574068597924 11.884991118516803 -86.84789757989942 12.051157037435212 -87.18813133491271 C 12.456003736176035 -88.01704402518398 12.964619360516375 -88.95255313746608 13.60069073027101 -89.97801811875563 A 91 91 0 0 1 15.1865 -89.724C 15.47043545006058 -88.55113602784726 15.661372829193903 -87.50356260811209 15.787031656846795 -86.58966602938615 C 15.838603041325728 -86.21455202942964 15.879144079422026 -85.86209418227985 15.910597245150242 -85.53276284578584 A 0.75 0.75 0 0 0 16.5496 -84.9021A 86.5 86.5 0 0 1 16.8266 -84.8476A 0.75 0.75 0 0 0 17.6568 -85.1894C 17.810581386142086 -85.48233516200494 17.98154619485654 -85.79320674959156 18.171297933559817 -86.12087181992943 C 18.63360680766498 -86.91916224483613 19.206945322232137 -87.81646381075468 19.9137674865169 -88.79450657226796 A 91 91 0 0 1 21.4777 -88.4292C 21.678203941866187 -87.23928896255207 21.794770962241795 -86.18085649789184 21.855651463579765 -85.26037256966119 C 21.880634233957892 -84.88255517746667 21.896212275703686 -84.52811557132372 21.904356402730844 -84.19738591733694 A 0.75 0.75 0 0 0 22.4972 -83.5232A 86.5 86.5 0 0 1 22.7698 -83.4493A 0.75 0.75 0 0 0 23.622 -83.7317C 23.796050614692714 -84.0130609441456 23.988518112552747 -84.3110984787866 24.200910337423473 -84.62456245355068 C 24.718378187337024 -85.38825357035115 25.353583248491223 -86.24287727864038 26.12763485483789 -87.16862526053659 A 91 91 0 0 1 27.6619 -86.6939C 27.777972712080196 -85.49282014791493 27.819588642666076 -84.42880169562783 27.815387514093835 -83.50631622252118 C 27.813657207465802 -83.12767770533175 27.80419464384072 -82.77302214048461 27.788989158535635 -82.442541847505 A 0.75 0.75 0 0 0 28.3328 -81.7282A 86.5 86.5 0 0 1 28.5995 -81.6353A 0.75 0.75 0 0 0 29.4695 -81.8569C 29.662969116058566 -82.12523788264782 29.87598043967125 -82.4089565563374 30.109955023328773 -82.70665777377314 C 30.680003850251865 -83.43194491173831 31.37391089833022 -84.23963307007241 32.21133566057194 -85.10847424247225 A 91 91 0 0 1 33.7083 -84.5267C 33.739353019517 -83.32043040372037 33.70581053184033 -82.25612685021393 33.636548703169105 -81.33623560845587 C 33.6081139398355 -80.95866232431807 33.57365791285553 -80.60555767695111 33.53517856818113 -80.27697318117461 A 0.75 0.75 0 0 0 34.0273 -79.5261A 86.5 86.5 0 0 1 34.2867 -79.4146A 0.75 0.75 0 0 0 35.1702 -79.5742C 35.38210819738095 -79.8282710170436 35.61460213504684 -80.09625735762091 35.86899342788466 -80.37671268523786 C 36.48878327723588 -81.05998250032944 37.23793530222946 -81.81671124693153 38.1345612123245 -82.62431708681817 A 91 91 0 0 1 39.5868 -81.9384C 39.53264556735165 -80.73294246639938 39.42411176839879 -79.67365611844109 39.29013429857504 -78.7609419599261 C 39.235136739096475 -78.386314959949 39.17585890695485 -78.03652037965368 39.11429740507074 -77.71146867250998 A 0.75 0.75 0 0 0 39.5522 -76.9277A 86.5 86.5 0 0 1 39.8031 -76.7982A 0.75 0.75 0 0 0 40.6956 -76.8952C 40.92497539543807 -77.13360372071648 41.17579367405451 -77.38452263371285 41.44933431144798 -77.64633485717617 C 42.115777421374254 -78.28418333354489 42.91644218557802 -78.98618268386402 43.86780229834393 -79.72852973956692 A 91 91 0 0 1 45.268 -78.9419C 45.12898846352222 -77.74324707070112 44.94600406322012 -76.69425523959279 44.74797842125924 -75.7932652603477 C 44.66669206071058 -75.42345091740087 44.58288774258527 -75.07870906318101 44.498550779797185 -74.7588095359245 A 0.75 0.75 0 0 0 44.8801 -73.9461A 86.5 86.5 0 0 1 45.1212 -73.7992A 0.75 0.75 0 0 0 46.0184 -73.833C 46.2639564246639 -74.05466069059082 46.53184948018338 -74.28726211060334 46.823176696436505 -74.52912689458529 C 47.53295288088728 -75.11837630320663 48.38114151272064 -75.76214893179113 49.382496199930486 -76.43553886762 A 91 91 0 0 1 50.7238 -75.5521C 50.50050100922457 -74.36623872870072 50.24397762665117 -73.33276743897902 49.98289036634041 -72.44799032575924 C 49.87572016928108 -72.08483103629703 49.76780687406949 -71.74685939472931 49.66111461288377 -71.43370577071336 A 0.75 0.75 0 0 0 49.9844 -70.5961A 86.5 86.5 0 0 1 50.2145 -70.4326A 0.75 0.75 0 0 0 51.1119 -70.403C 51.37245275012974 -70.6067810659672 51.656085952825066 -70.81990618442157 51.963748370400694 -71.04061857073451 C 52.713321560127866 -71.57833330069487 53.604808426492205 -72.1606719646919 54.65116898946398 -72.76174998585896 A 91 91 0 0 1 55.9268 -71.7859C 55.62042259915132 -70.61874152608935 55.29163822089505 -69.60593947973449 54.96879006583221 -68.74178314761245 C 54.83626994879313 -68.38708815294748 54.704785295103804 -68.05757048174974 54.576269270998885 -67.75272287657704 A 0.75 0.75 0 0 0 54.8396 -66.8944A 86.5 86.5 0 0 1 55.0577 -66.7151A 0.75 0.75 0 0 0 55.9507 -66.6222C 56.225014100107224 -66.80714200970193 56.522974403629775 -66.99972904797852 56.84543926383943 -67.19818945861603 C 57.63107512291645 -67.68169064217861 58.56141888108668 -68.19969415965664 59.6475724041292 -68.7254657256956 A 91 91 0 0 1 60.8512 -67.6621C 60.46324604148127 -66.51942530542564 60.06383865477627 -65.53233823128707 59.6808380182301 -64.69310786364103 C 59.52362818976839 -64.34864423639502 59.36922722753213 -64.02922217602988 59.21952770087556 -63.734199325135144 A 0.75 0.75 0 0 0 59.4217 -62.8595A 86.5 86.5 0 0 1 59.6266 -62.6652A 0.75 0.75 0 0 0 60.5108 -62.5096C 60.79746525804214 -62.67467313244559 61.10826823914761 -62.84576263160712 61.443929038278206 -63.02098234678625 C 62.26171356837383 -63.44786120537539 63.22627929254448 -63.89894890886674 64.34681461344113 -64.3467946522827 A 91 91 0 0 1 65.4724 -63.2012C 65.00484463342626 -62.08871265391895 64.53680406578228 -61.13225817014805 64.09555903765855 -60.32213477045503 C 63.914442709231714 -59.98961861109188 63.73789465627577 -59.68188350619667 63.56775742257924 -59.39815519858295 A 0.75 0.75 0 0 0 63.7077 -58.5113A 86.5 86.5 0 0 1 63.8984 -58.3031A 0.75 0.75 0 0 0 64.7694 -58.0855C 65.06702650226687 -58.2299621862752 65.38912375613725 -58.37870178704293 65.73630824897175 -58.52980787095647 C 66.58216728869287 -58.897937715571345 67.57614956094524 -59.2798623088276 68.72548422909196 -59.647551084654175 A 91 91 0 0 1 69.7675 -58.4254C 69.2225923592505 -57.34867715912753 68.6882503652324 -56.42762027385132 68.1909592060659 -55.65063983613816 C 67.98683869011174 -55.33172772343774 67.78902309995532 -55.03721269482551 67.59929577435894 -54.76619245064936 A 0.75 0.75 0 0 0 67.6764 -53.8717A 86.5 86.5 0 0 1 67.8518 -53.6505A 0.75 0.75 0 0 0 68.7054 -53.372C 69.01242709342813 -53.49515249754884 69.34421394774665 -53.620801186713564 69.70119247860569 -53.74704083645233 C 70.57091200076438 -54.054587662724565 71.58935885141696 -54.365446416633525 72.7617669393103 -54.65114641788485 A 91 91 0 0 1 73.7149 -53.3585C 73.0954766119431 -52.322933439455404 72.49749525648686 -51.44186281174577 71.94663544581806 -50.70189621346985 C 71.72052766047949 -50.39817695153586 71.5024300404423 -50.11834925826461 71.29405783493863 -49.86138728674978 A 0.75 0.75 0 0 0 71.3078 -48.9637A 86.5 86.5 0 0 1 71.4673 -48.7307A 0.75 0.75 0 0 0 72.299 -48.3927C 72.61401124424044 -48.49383264996759 72.95383475358827 -48.59576445208021 73.31882887338764 -48.696508748059244 C 74.20807597907277 -48.941940373170425 75.245913557145 -49.18018460505678 76.43555418666502 -49.382472488697786 A 91 91 0 0 1 77.2952 -48.0258C 76.60420287696914 -47.0365194973114 75.94556127310825 -46.19982457671638 75.34387716680482 -45.50055829424886 C 75.09690856969482 -45.21354499716673 74.85961547114927 -44.94979872672856 74.63363648558466 -44.70817519949157 A 0.75 0.75 0 0 0 74.5841 -43.8117A 86.5 86.5 0 0 1 74.7267 -43.5681A 0.75 0.75 0 0 0 75.5325 -43.1722C 75.8538360436296 -43.25091896743812 76.20000322437679 -43.32862606338784 76.57119455077144 -43.403373102592184 C 77.47553905563296 -43.58546679853158 78.52759690651571 -43.74990958761613 79.72854334788687 -43.8677775655859 A 91 91 0 0 1 80.4903 -42.4539C 79.73129085657051 -41.51577198104064 79.01527032364473 -40.72762113956761 78.36575948165866 -40.072538882353584 C 78.09916045790513 -39.80366143593216 77.84385406313194 -39.55731055897956 77.6013941134454 -39.33222923227907 A 0.75 0.75 0 0 0 77.4887 -38.4415A 86.5 86.5 0 0 1 77.6138 -38.1884A 0.75 0.75 0 0 0 78.3897 -37.7367C 78.71576084741326 -37.792531382200096 79.06654711207807 -37.84562663914369 79.44208638855139 -37.894004035583905 C 80.357022893756 -38.011852620717946 81.41805971815629 -38.10167472129719 82.62432891661713 -38.13453558125841 A 91 91 0 0 1 83.2845 -36.6704C 82.4611615557302 -35.78819497706702 81.69132927201765 -35.052514742563005 80.9972275246923 -34.44488009745628 C 80.71232625722126 -34.19547803560869 80.44027848983691 -33.96774985981881 80.18254549930165 -33.760332077502504 A 0.75 0.75 0 0 0 80.0073 -32.8798A 86.5 86.5 0 0 1 80.1142 -32.6185A 0.75 0.75 0 0 0 80.8563 -32.1132C 81.18552769017813 -32.14586330663803 81.5391854392351 -32.17408220667616 81.91720174800189 -32.19584894659664 C 82.83817208590334 -32.24886530520215 83.9029018517338 -32.26361922808919 85.10848423481475 -32.211309258890495 A 91 91 0 0 1 85.6637 -30.7043C 84.78021489594165 -29.882322985918535 83.96040612715605 -29.202778480305998 83.22517145448221 -28.645618652543533 C 82.92338730707723 -28.416934483796595 82.6359534953744 -28.20896353948615 82.36423147678494 -28.02024264651209 A 0.75 0.75 0 0 0 82.1273 -27.1543A 86.5 86.5 0 0 1 82.2155 -26.886A 0.75 0.75 0 0 0 82.9201 -26.3297C 83.25083231774661 -26.339046157068317 83.60559964607943 -26.34224811506045 83.98420972890423 -26.337295757657813 C 84.90662567160531 -26.32521576490303 85.9697439487301 -26.26482800679618 87.16863336564131 -26.127607814072846 A 91 91 0 0 1 87.6162 -24.5852C 86.67689747011585 -23.82757876478069 85.81119646230563 -23.20755544460447 85.03849176643917 -22.70364617642219 C 84.72132821254239 -22.496819193801436 84.41994033731262 -22.309641581753723 84.13558299609754 -22.140557776117767 A 0.75 0.75 0 0 0 83.8382 -21.2935A 86.5 86.5 0 0 1 83.9072 -21.0197A 0.75 0.75 0 0 0 84.5708 -20.415C 84.9013854863521 -20.401009204438353 85.25549496097638 -20.37917826839084 85.6328126014712 -20.34753148606055 C 86.55207871914433 -20.270415323861734 87.60828910578329 -20.13518673353429 88.79451274975567 -19.913739941384076 A 91 91 0 0 1 89.1321 -18.3436C 88.14176010107425 -17.65412674480033 87.23447973311428 -17.096713535053418 86.42815458998176 -16.648565277078003 C 86.0971917224649 -16.46462588220714 85.78335128294233 -16.29917411187006 85.48777527307192 -16.150569760586706 A 0.75 0.75 0 0 0 85.1314 -15.3266A 86.5 86.5 0 0 1 85.1809 -15.0486A 0.75 0.75 0 0 0 85.8002 -14.3986C 86.12896422313396 -14.361335450153874 86.48065168845937 -14.314580380691979 86.85479710911893 -14.25639683611173 C 87.76633366420634 -14.11462869330989 88.81037417334223 -13.905232972796664 89.97802233785036 -13.600662817998952 A 91 91 0 0 1 90.204 -12.0106C 89.16750491687431 -11.392722753406993 88.22316521392014 -10.900696658661612 87.38723669482526 -10.510542062971755 C 87.04412335404635 -10.350406632663596 86.71939388751402 -10.207504976434489 86.41407175380155 -10.080120418906809 A 0.75 0.75 0 0 0 86.0004 -9.2833A 86.5 86.5 0 0 1 86.0303 -9.00253A 0.75 0.75 0 0 0 86.6022 -8.31047C 86.92745279257468 -8.25011424505377 87.27496615933939 -8.178667973581694 87.64407538649803 -8.09423753424386 C 88.54334114973395 -7.888523692595282 89.57001042406705 -7.606004040842944 90.71326594468987 -7.219827876588591 A 91 91 0 0 1 90.8266 -5.61778C 89.74902170844021 -5.07456079032746 88.77232732339024 -4.650373059837971 87.91095998216664 -4.320155857004026 C 87.55740554153033 -4.1846221779173085 87.22340483385611 -4.0649825646593385 86.90985767581357 -3.9594524243452973 A 0.75 0.75 0 0 0 86.441 -3.19379A 86.5 86.5 0 0 1 86.451 -2.91162A 0.75 0.75 0 0 0 86.9727 -2.18094" stroke="#191919" stroke-width="0.35 px" style="stroke-width:0.35;stroke-miterlimit:4;stroke-dasharray:none;fill:none;fill-rule: evenodd "/>
<title>b'InvoluteGear'</title>
</g>
</svg>