<?xml version="1.0"?>
<!DOCTYPE svg PUBLIC "-//W3C//DTD SVG 1.1//EN" "http://www.w3.org/Graphics/SVG/1.1/DTD/svg11.dtd">
<svg width="546.7100383325027mm" height="546.7100383325027mm" viewBox="0 0 546.7100383325027 546.7100383325027" xmlns="http://www.w3.org/2000/svg" version="1.1">
<g id="InvoluteGear" transform="translate(273.355019,273.355019) scale(1,-1)">
<path id="InvoluteGear_w0000"  d="M 259.9620730584228 -4.440784971964403 C 260.61520167356724 -4.248078459596485 261.29311933971024 -4.038740293481015 261.99517954761643 -3.811401772034627 C 263.8341477304776 -3.2159046597532197 265.83830774444704 -2.4971080183735976 267.9951168296581 -1.6308283040114722 A 268 268 0 0 1 267.995 1.63083C 265.83830774444704 2.4971080183735976 263.8341477304776 3.2159046597532197 261.99517954761643 3.811401772034627 C 261.29311933971024 4.038740293481015 260.61520167356724 4.248078459596485 259.9620747689589 4.440784266629139 A 1.5 1.5 0 0 0 258.932 5.91475A 259 259 0 0 1 258.921 6.41245A 1.5 1.5 0 0 0 259.879 7.93374C 260.5221447579963 8.157303760841504 261.1893338623629 8.39866143914456 261.8797816717895 8.659147832871303 C 263.68833203397634 9.341472078186438 265.6560202931425 10.154816339856987 267.7691671967644 11.122739961470497 A 268 268 0 0 1 267.614 14.3807C 265.4183859260764 15.143375623787767 263.38229422434125 15.765996339294308 261.5170740752146 16.273317326050563 C 260.8049918610062 16.466992980345722 260.11788133464194 16.64383741599709 259.45632488979805 16.80524792331562 A 1.5 1.5 0 0 0 258.358 18.2286A 259 259 0 0 1 258.322 18.7251A 1.5 1.5 0 0 0 259.207 20.2903C 259.8389213917731 20.54420706459508 260.49387053645125 20.817037502315532 261.1711418610384 21.110081682859565 C 262.94517745428936 21.87768737733412 264.87193651186976 22.783736772943765 266.936634276506 23.85111164348857 A 268 268 0 0 1 266.627 27.098C 264.3972060960102 27.755338612789824 262.33379510909015 28.28037296624668 260.4465483172541 28.698368582271108 C 259.7260571919883 28.857942631765393 259.0313103317432 29.001892727426725 258.3628229847903 29.131642288316943 A 1.5 1.5 0 0 0 257.198 30.5011A 259 259 0 0 1 257.139 30.9954A 1.5 1.5 0 0 0 257.948 32.6009C 258.56707929557007 32.88457113163219 259.2083048100932 33.188256280077056 259.87086541245714 33.513194408116476 C 261.6063674755634 34.364342677964395 263.4878326025814 35.36104471421579 265.49940402371806 36.52545288630608 A 268 268 0 0 1 265.035 39.7539C 262.7770815550099 40.30442683277378 260.6910255724532 40.73068545250148 258.78602735889393 41.05840880328219 C 258.05875946670403 41.183519761429054 257.35795009767065 41.29424942383444 256.68404618745785 41.392044113809064 A 1.5 1.5 0 0 0 255.455 42.7045A 259 259 0 0 1 255.373 43.1954A 1.5 1.5 0 0 0 256.105 44.8376C 256.70949960080276 45.15044106826051 257.3355489031404 45.48429298289311 257.98189787041497 45.84038896905676 C 259.6749349330071 46.773151689688625 261.50684400580695 47.85824851589642 263.4607322271854 49.117052230509174 A 268 268 0 0 1 262.843 52.3198C 260.5616824062478 52.762212562708115 258.4577070158016 53.088729835833725 256.53927281418487 53.32543852257423 C 255.80687565076082 53.41580297281354 255.10159133156418 53.493061363663195 254.42379746719848 53.558679646295346 A 1.5 1.5 0 0 0 253.134 54.8112A 259 259 0 0 1 253.028 55.2976A 1.5 1.5 0 0 0 253.681 56.9728C 254.27039032294047 57.31403073395298 254.87984521006427 57.67729313280854 255.50851835395065 58.06374030515521 C 257.15525514254364 59.07600446900059 258.9334582978712 60.24703799184942 260.82523713423325 61.59738565369696 A 268 268 0 0 1 260.056 64.7671C 257.75602724134353 65.1004749110673 255.63889862397718 65.32651117094811 253.71137430480337 65.4716689723394 C 252.97550698528403 65.52708221012708 252.26734541175048 65.57069431431681 251.58719701433628 65.60398754309125 A 1.5 1.5 0 0 0 250.239 66.7937A 259 259 0 0 1 250.11 67.2745A 1.5 1.5 0 0 0 250.683 68.9789C 251.2552768289981 69.34778568589302 251.8467566895672 69.7396356628006 252.45632986319188 70.15555859419035 C 254.05303598931306 71.24503109733959 255.77350502509097 72.49934854925601 257.5988889889118 73.93818118656658 A 268 268 0 0 1 256.68 77.0677C 254.36647177163974 77.29126374522778 252.240985904612 77.41630694703426 250.30873793042136 77.46958503396849 C 249.5710674309654 77.48992153049818 248.86163281682786 77.49978855258486 248.1806706412441 77.50068130763019 A 1.5 1.5 0 0 0 246.777 78.6249A 259 259 0 0 1 246.626 79.0991A 1.5 1.5 0 0 0 247.117 80.8287C 247.6709893208023 81.2244455986499 248.24315426269257 81.64399548737953 248.83224658675786 82.08845197859783 C 250.3753049974766 83.25266481541993 252.03414249797748 84.58742476394423 253.78899650747357 86.11148295801685 A 268 268 0 0 1 252.722 89.1938C 250.4006944304714 89.30696300750824 248.2716662228996 89.33072988817014 246.3390717568303 89.29200756864437 C 245.6012691383789 89.27722125521049 244.89216858121662 89.25332084321555 244.2119352258116 89.22181110215442 A 1.5 1.5 0 0 0 242.757 90.278A 259 259 0 0 1 242.583 90.7444A 1.5 1.5 0 0 0 242.991 92.4955C 243.5256473623879 92.9171060175838 244.07720124797825 93.36340540269603 244.644478238898 93.83538861683796 C 246.13039341061398 95.07170447080706 247.72384157536072 96.48388325535169 249.40419032177985 98.08971452418787 A 268 268 0 0 1 248.192 101.118C 245.86767897904508 101.1203532744224 243.73993136458722 101.04278999431078 241.81136835469295 100.91215498683313 C 241.0751049774793 100.86227935919143 240.36794481812515 100.80466565523518 239.68998123023496 100.74082479776574 A 1.5 1.5 0 0 0 238.186 101.727A 259 259 0 0 1 237.99 102.184A 1.5 1.5 0 0 0 238.315 103.953C 238.8286414865735 104.39927930608887 239.3583348689146 104.87131717593135 239.90251146184883 105.36975791921103 C 241.32791731877734 106.67537613727674 242.85236647516967 108.16177471869 244.45440342814396 109.8457413379759 A 268 268 0 0 1 243.099 112.813C 240.7776941553301 112.70467341742787 238.6560471666889 112.52595568231916 236.7358844284785 112.30370391719825 C 236.00282816585928 112.21885195968702 235.2992103495209 112.12765547733947 234.6250523347283 112.03162812353725 A 1.5 1.5 0 0 0 233.076 112.945A 259 259 0 0 1 232.859 113.392A 1.5 1.5 0 0 0 233.098 115.174C 233.59061192238454 115.64495464860953 234.09724487559797 116.14166168558364 234.617088335538 116.66543082940207 C 235.9787558749541 118.03739376636928 237.43075265533815 119.59464497378796 238.9508486858996 121.35293221751003 A 268 268 0 0 1 237.456 124.252C 235.14227041206425 124.03368122548976 233.03153026206272 123.75421388853569 231.12411758172775 123.4408488375032 C 230.39592904191366 123.32121276709748 229.69744748925245 123.19664009572305 229.02862223229312 123.06864377843006 A 1.5 1.5 0 0 0 227.438 123.907A 259 259 0 0 1 227.199 124.344A 1.5 1.5 0 0 0 227.354 126.135C 227.8234244915122 126.62865697350357 228.3058493290086 127.14890797641272 228.80018204331836 127.69681901519718 C 230.0950266502867 129.13201873374373 231.4712818149434 130.75659489231813 232.90599341666822 132.58521967434442 A 268 268 0 0 1 231.275 135.41C 228.97417379656983 135.08171285212885 226.8791219905335 134.7021289967338 224.98878027128373 134.2983605324192 C 224.2671090355276 134.14421136329747 223.57534603191576 133.9865447000636 222.91336863711354 133.82686937210653 A 1.5 1.5 0 0 0 221.285 134.589A 259 259 0 0 1 221.026 135.014A 1.5 1.5 0 0 0 221.095 136.81C 221.54014372841095 137.3255046622732 221.9972676027691 137.86812109526542 222.46496974885648 138.43893283428625 C 223.6900581838763 139.93411814544064 224.98745407220727 141.6223390676527 226.33353116186552 143.51715896470398 A 268 268 0 0 1 224.57 146.261C 222.2873770315504 145.82374095228843 220.21275953565979 145.34490045797193 218.34377100948743 144.85164324581254 C 217.63025189525223 144.6633301754225 216.94677450638744 144.4729266860324 216.29314456545603 144.28193406338602 A 1.5 1.5 0 0 0 214.63 144.965A 259 259 0 0 1 214.351 145.378A 1.5 1.5 0 0 0 214.335 147.175C 214.7550032849258 147.71126591443365 215.18579066354374 148.27501857676424 215.6258027456189 148.86743794384014 C 216.77835978935477 150.41922177197017 217.99395738238633 152.16726309444186 219.24835066242585 154.1239857300129 A 268 268 0 0 1 217.356 156.781C 215.09702786237983 156.23543137732025 213.04754435253065 155.65841897181338 211.20414287957772 155.07679039804302 C 210.50039223714919 154.85474001605695 209.82674875914677 154.6320310256543 209.18294695413198 154.41015376803867 A 1.5 1.5 0 0 0 207.489 155.014A 259 259 0 0 1 207.191 155.412A 1.5 1.5 0 0 0 207.089 157.207C 207.483373686493 157.7624136403349 207.88684869740229 158.34602545090172 208.2981739465765 158.95871042562402 C 209.37558868662285 160.56357748125265 210.5066342648293 162.36747932815905 211.66650213101525 164.38167209613175 A 268 268 0 0 1 209.65 166.946C 207.41941474258698 166.29319829965823 205.39970795811251 165.61932110164616 203.58606943561583 164.95063874205596 C 202.8936814865492 164.69535406400803 202.23139793855347 164.4408440800869 201.59888268761222 164.1885848108537 A 1.5 1.5 0 0 0 199.878 164.711A 259 259 0 0 1 199.561 165.095A 1.5 1.5 0 0 0 199.374 166.883C 199.74172751295615 167.45617875758717 200.11697615548584 168.0583276479299 200.49868278777356 168.6898903017706 C 201.49851453321102 170.3442050448369 202.54244591457498 172.19988099829865 203.60516089313757 174.26698110422078 A 268 268 0 0 1 201.469 176.732C 199.2719299352694 175.97425764230357 197.2865751616429 175.20504220038165 195.50680806418367 174.45082083558705 C 194.8273512898791 174.16288016338126 194.17792795713913 173.87714573291424 193.55813211075318 173.59507590044356 A 1.5 1.5 0 0 0 191.815 174.035A 259 259 0 0 1 191.48 174.403A 1.5 1.5 0 0 0 191.208 176.18C 191.54760208287485 176.77060177035557 191.89377429815687 177.38992367956607 192.24499762526617 178.03893331998214 C 193.16498143561142 179.73894819550935 194.11943377979034 181.64219455264342 195.08258847949782 183.7575193499253 A 268 268 0 0 1 192.832 186.118C 190.6730301140237 185.25667869208755 188.72652481836496 184.39386752663756 186.9846608908525 183.55581571061302 C 186.31967447944015 183.2358713224834 185.68458251468127 182.91955972585745 185.0789101097901 182.60831830904303 A 1.5 1.5 0 0 0 183.317 182.965A 259 259 0 0 1 182.965 183.317A 1.5 1.5 0 0 0 182.608 185.079C 182.91955972585748 185.68458251468124 183.23587132248343 186.31967447944012 183.55581571061305 186.98466089085247 C 184.3938675266376 188.72652481836494 185.25667869208758 190.67303011402365 186.11809125776185 192.8317877116392 A 268 268 0 0 1 183.758 195.083C 181.64219455264345 194.11943377979028 179.73894819550938 193.1649814356114 178.03893331998216 192.24499762526614 C 177.3899236795661 191.89377429815684 176.7706017703556 191.54760208287482 176.1804248497611 191.20789414363156 A 1.5 1.5 0 0 0 174.403 191.48A 259 259 0 0 1 174.035 191.815A 1.5 1.5 0 0 0 173.595 193.558C 173.8771457329143 194.17792795713908 174.16288016338132 194.82735128987903 174.4508208355871 195.50680806418362 C 175.2050422003817 197.28657516164284 175.97425764230366 199.27192993526936 176.7319766974239 201.46923005293013 A 268 268 0 0 1 174.267 203.605C 172.19988099829874 202.54244591457493 170.34420504483697 201.49851453321097 168.68989030177065 200.4986827877735 C 168.05832764792996 200.1169761554858 167.45617875758722 199.7417275129561 166.88283426183548 199.37432259902798 A 1.5 1.5 0 0 0 165.095 199.561A 259 259 0 0 1 164.711 199.878A 1.5 1.5 0 0 0 164.189 201.599C 164.44084408008692 202.23139793855344 164.69535406400806 202.89368148654918 164.950638742056 203.5860694356158 C 165.6193211016462 205.3997079581125 166.29319829965826 207.41941474258692 166.9455073668565 209.65027978880002 A 268 268 0 0 1 164.382 211.667C 162.36747932815908 210.50663426482924 160.56357748125268 209.37558868662282 158.95871042562405 208.29817394657647 C 158.34602545090175 207.88684869740226 157.76241364033493 207.48337368649297 157.20720037911593 207.08910408817994 A 1.5 1.5 0 0 0 155.412 207.191A 259 259 0 0 1 155.014 207.489A 1.5 1.5 0 0 0 154.41 209.183C 154.63203102565433 209.82674875914674 154.85474001605698 210.50039223714916 155.07679039804304 211.2041428795777 C 155.6584189718134 213.04754435253062 156.23543137732028 215.0970278623798 156.7808527667545 217.35640421029353 A 268 268 0 0 1 154.124 219.248C 152.1672630944419 217.9939573823863 150.4192217719702 216.77835978935474 148.86743794384017 215.62580274561887 C 148.27501857676427 215.1857906635437 147.71126591443368 214.75500328492578 147.1754416243595 214.33476214967854 A 1.5 1.5 0 0 0 145.378 214.351A 259 259 0 0 1 144.965 214.63A 1.5 1.5 0 0 0 144.282 216.293C 144.47292668603242 216.9467745063874 144.66333017542252 217.6302518952522 144.85164324581257 218.3437710094874 C 145.34490045797196 220.21275953565976 145.82374095228846 222.28737703155036 146.26103910908552 224.57014646704454 A 268 268 0 0 1 143.517 226.334C 141.62233906765272 224.98745407220724 139.93411814544066 223.69005818387626 138.43893283428628 222.46496974885645 C 137.86812109526545 221.99726760276909 137.32550466227323 221.54014372841092 136.81028315770027 221.0948830375647 A 1.5 1.5 0 0 0 135.014 221.026A 259 259 0 0 1 134.589 221.285A 1.5 1.5 0 0 0 133.827 222.913C 133.98654470006366 223.5753460319157 134.14421136329753 224.26710903552757 134.29836053241925 224.9887802712837 C 134.70212899673385 226.87912199053346 135.0817128521289 228.9741737965698 135.4098971553137 231.27516511265674 A 268 268 0 0 1 132.585 232.906C 130.7565948923182 231.47128181494338 129.1320187337438 230.09502665028668 127.69681901519724 228.80018204331833 C 127.14890797641277 228.30584932900857 126.62865697350362 227.8234244915122 126.13520539685241 227.35415290374263 A 1.5 1.5 0 0 0 124.344 227.199A 259 259 0 0 1 123.907 227.438A 1.5 1.5 0 0 0 123.069 229.029C 123.19664009572308 229.69744748925245 123.3212127670975 230.39592904191366 123.44084883750322 231.12411758172775 C 123.75421388853572 233.03153026206272 124.03368122548979 235.14227041206425 124.25200823206042 237.45627112333602 A 268 268 0 0 1 121.353 238.951C 119.594644973788 237.43075265533815 118.0373937663693 235.9787558749541 116.6654308294021 234.617088335538 C 116.14166168558367 234.09724487559797 115.64495464860956 233.59061192238454 115.17439082641204 233.09839248877165 A 1.5 1.5 0 0 0 113.392 232.859A 259 259 0 0 1 112.945 233.076A 1.5 1.5 0 0 0 112.032 234.625C 112.12765547733949 235.29921034952088 112.21885195968703 236.00282816585926 112.30370391719826 236.73588442847847 C 112.52595568231918 238.65604716668886 112.70467341742788 240.77769415533007 112.81264854649308 243.0994623059144 A 268 268 0 0 1 109.846 244.454C 108.16177471869001 242.85236647516965 106.67537613727676 241.3279173187773 105.36975791921104 239.9025114618488 C 104.87131717593137 239.35833486891457 104.39927930608889 238.82864148657347 103.95266921675163 238.31458924244893 A 1.5 1.5 0 0 0 102.184 237.99A 259 259 0 0 1 101.727 238.186A 1.5 1.5 0 0 0 100.741 239.69C 100.80466565523518 240.36794481812515 100.86227935919143 241.0751049774793 100.91215498683313 241.81136835469295 C 101.04278999431078 243.73993136458722 101.1203532744224 245.86767897904508 101.11773192758635 248.1919550173213 A 268 268 0 0 1 98.0897 249.404C 96.48388325535169 247.72384157536072 95.07170447080706 246.13039341061398 93.83538861683796 244.644478238898 C 93.36340540269603 244.07720124797825 92.9171060175838 243.5256473623879 92.49546137660415 242.99092680142124 A 1.5 1.5 0 0 0 90.7444 242.583A 259 259 0 0 1 90.278 242.757A 1.5 1.5 0 0 0 89.2218 244.212C 89.25332084321559 244.89216858121662 89.27722125521055 245.6012691383789 89.29200756864441 246.3390717568303 C 89.33072988817018 248.2716662228996 89.30696300750829 250.4006944304714 89.19375112296467 252.7222131236467 A 268 268 0 0 1 86.1115 253.789C 84.58742476394427 252.03414249797748 83.25266481541998 250.3753049974766 82.08845197859787 248.83224658675786 C 81.64399548737958 248.24315426269257 81.22444559864994 247.6709893208023 80.82872156675496 247.11681175704848 A 1.5 1.5 0 0 0 79.0991 246.626A 259 259 0 0 1 78.6249 246.777A 1.5 1.5 0 0 0 77.5007 248.181C 77.49978855258489 248.86163281682786 77.48992153049821 249.5710674309654 77.46958503396851 250.30873793042136 C 77.41630694703429 252.240985904612 77.29126374522781 254.36647177163974 77.06771778430793 256.6799741331948 A 268 268 0 0 1 73.9382 257.599C 72.49934854925604 255.77350502509097 71.24503109733962 254.05303598931306 70.15555859419038 252.45632986319188 C 69.73963566280062 251.8467566895672 69.34778568589304 251.2552768289981 68.97887870529327 250.6828976528813 A 1.5 1.5 0 0 0 67.2745 250.11A 259 259 0 0 1 66.7937 250.239A 1.5 1.5 0 0 0 65.604 251.587C 65.57069431431684 252.26734541175048 65.52708221012709 252.97550698528403 65.47166897233942 253.71137430480337 C 65.32651117094814 255.63889862397718 65.10047491106731 257.75602724134353 64.7671012772726 260.05627244432844 A 268 268 0 0 1 61.5974 260.825C 60.24703799184944 258.9334582978712 59.07600446900061 257.15525514254364 58.06374030515523 255.50851835395065 C 57.677293132808565 254.87984521006427 57.314030733953004 254.27039032294047 56.97277649761253 253.68110615739127 A 1.5 1.5 0 0 0 55.2976 253.028A 259 259 0 0 1 54.8112 253.134A 1.5 1.5 0 0 0 53.5587 254.424C 53.4930613636632 255.10159133156418 53.415802972813545 255.80687565076082 53.32543852257424 256.53927281418487 C 53.08872983583373 258.4577070158016 52.76221256270812 260.5616824062478 52.31976645454345 262.8434596554407 A 268 268 0 0 1 49.1171 263.461C 47.85824851589643 261.50684400580695 46.77315168968863 259.6749349330071 45.84038896905677 257.98189787041497 C 45.484292982893116 257.3355489031404 45.15044106826052 256.70949960080276 44.8376126267836 256.1046453639899 A 1.5 1.5 0 0 0 43.1954 255.373A 259 259 0 0 1 42.7045 255.455A 1.5 1.5 0 0 0 41.392 256.684C 41.294249423834486 257.35795009767065 41.18351976142911 258.05875946670403 41.05840880328224 258.78602735889393 C 40.73068545250153 260.6910255724532 40.304426832773835 262.7770815550099 39.75391053297988 265.03522189104433 A 268 268 0 0 1 36.5255 265.499C 35.36104471421584 263.4878326025814 34.364342677964444 261.6063674755634 33.513194408116526 259.87086541245714 C 33.18825628007711 259.2083048100932 32.88457113163224 258.56707929557007 32.60087714205509 257.94802517688163 A 1.5 1.5 0 0 0 30.9954 257.139A 259 259 0 0 1 30.5011 257.198A 1.5 1.5 0 0 0 29.1316 258.363C 29.001892727426767 259.0313103317432 28.857942631765436 259.7260571919883 28.69836858227115 260.4465483172541 C 28.280372966246723 262.33379510909015 27.755338612789863 264.3972060960102 27.09799921785042 266.6265941047304 A 268 268 0 0 1 23.8511 266.937C 22.783736772943804 264.87193651186976 21.877687377334162 262.94517745428936 21.110081682859608 261.1711418610384 C 20.817037502315575 260.49387053645125 20.544207064595124 259.8389213917731 20.290290185049756 259.2070697478967 A 1.5 1.5 0 0 0 18.7251 258.322A 259 259 0 0 1 18.2286 258.358A 1.5 1.5 0 0 0 16.8052 259.456C 16.64383741599712 260.11788133464194 16.46699298034575 260.8049918610062 16.27331732605059 261.5170740752146 C 15.765996339294336 263.38229422434125 15.143375623787797 265.4183859260764 14.380702218855081 267.6139713265955 A 268 268 0 0 1 11.1227 267.769C 10.154816339857017 265.6560202931425 9.341472078186467 263.68833203397634 8.659147832871334 261.8797816717895 C 8.398661439144588 261.1893338623629 8.157303760841536 260.5221447579963 7.933739194728419 259.8789269361303 A 1.5 1.5 0 0 0 6.41245 258.921A 259 259 0 0 1 5.91475 258.932A 1.5 1.5 0 0 0 4.44078 259.962C 4.248078459596501 260.61520167356724 4.038740293481031 261.29311933971024 3.811401772034643 261.99517954761643 C 3.2159046597532357 263.8341477304776 2.497108018373614 265.83830774444704 1.6308283040114886 267.9951168296581 A 268 268 0 0 1 -1.63083 267.995C -2.497108018373581 265.83830774444704 -3.2159046597532037 263.8341477304776 -3.811401772034611 261.99517954761643 C -4.038740293480999 261.29311933971024 -4.248078459596469 260.61520167356724 -4.440784266629123 259.9620747689589 A 1.5 1.5 0 0 0 -5.91475 258.932A 259 259 0 0 1 -6.41245 258.921A 1.5 1.5 0 0 0 -7.93374 259.879C -8.1573037608415 260.5221447579963 -8.398661439144556 261.1893338623629 -8.6591478328713 261.8797816717895 C -9.341472078186435 263.68833203397634 -10.154816339856984 265.6560202931425 -11.122739961470494 267.7691671967644 A 268 268 0 0 1 -14.3807 267.614C -15.143375623787763 265.4183859260764 -15.765996339294304 263.38229422434125 -16.27331732605056 261.5170740752146 C -16.466992980345722 260.8049918610062 -16.643837415997087 260.11788133464194 -16.805247923315612 259.45632488979805 A 1.5 1.5 0 0 0 -18.2286 258.358A 259 259 0 0 1 -18.7251 258.322A 1.5 1.5 0 0 0 -20.2903 259.207C -20.544207064595035 259.8389213917731 -20.817037502315486 260.49387053645125 -21.11008168285952 261.1711418610384 C -21.877687377334077 262.94517745428936 -22.783736772943715 264.87193651186976 -23.85111164348852 266.936634276506 A 268 268 0 0 1 -27.098 266.627C -27.755338612789775 264.3972060960102 -28.28037296624663 262.33379510909015 -28.698368582271062 260.4465483172541 C -28.857942631765347 259.7260571919883 -29.00189272742668 259.0313103317432 -29.131642288316897 258.3628229847903 A 1.5 1.5 0 0 0 -30.5011 257.198A 259 259 0 0 1 -30.9954 257.139A 1.5 1.5 0 0 0 -32.6009 257.948C -32.88457113163216 258.5670792955701 -33.18825628007702 259.20830481009324 -33.51319440811644 259.8708654124572 C -34.36434267796436 261.60636747556345 -35.36104471421575 263.4878326025815 -36.52545288630604 265.4994040237181 A 268 268 0 0 1 -39.7539 265.035C -40.30442683277374 262.77708155500994 -40.73068545250145 260.69102557245327 -41.058408803282155 258.786027358894 C -41.18351976142902 258.0587594667041 -41.2942494238344 257.3579500976707 -41.392044113809035 256.6840461874579 A 1.5 1.5 0 0 0 -42.7045 255.455A 259 259 0 0 1 -43.1954 255.373A 1.5 1.5 0 0 0 -44.8376 256.105C -45.15044106826049 256.70949960080276 -45.48429298289309 257.3355489031404 -45.84038896905674 257.98189787041497 C -46.7731516896886 259.6749349330071 -47.8582485158964 261.50684400580695 -49.11705223050915 263.4607322271854 A 268 268 0 0 1 -52.3198 262.843C -52.76221256270809 260.5616824062478 -53.0887298358337 258.4577070158016 -53.32543852257421 256.53927281418487 C -53.415802972813516 255.80687565076082 -53.49306136366317 255.10159133156418 -53.558679646295325 254.42379746719848 A 1.5 1.5 0 0 0 -54.8112 253.134A 259 259 0 0 1 -55.2976 253.028A 1.5 1.5 0 0 0 -56.9728 253.681C -57.314030733952976 254.27039032294047 -57.677293132808536 254.87984521006427 -58.0637403051552 255.50851835395065 C -59.07600446900058 257.15525514254364 -60.24703799184941 258.9334582978712 -61.59738565369695 260.82523713423325 A 268 268 0 0 1 -64.7671 260.056C -65.10047491106728 257.75602724134353 -65.32651117094811 255.63889862397718 -65.47166897233939 253.71137430480337 C -65.52708221012706 252.97550698528403 -65.57069431431681 252.26734541175048 -65.60398754309125 251.58719701433628 A 1.5 1.5 0 0 0 -66.7937 250.239A 259 259 0 0 1 -67.2745 250.11A 1.5 1.5 0 0 0 -68.9789 250.683C -69.34778568589297 251.25527682899812 -69.73963566280055 251.84675668956726 -70.15555859419031 252.4563298631919 C -71.24503109733955 254.0530359893131 -72.49934854925597 255.773505025091 -73.93818118656654 257.5988889889118 A 268 268 0 0 1 -77.0677 256.68C -77.29126374522774 254.36647177163977 -77.41630694703422 252.24098590461202 -77.46958503396844 250.3087379304214 C -77.48992153049814 249.57106743096546 -77.49978855258482 248.8616328168279 -77.50068130763015 248.18067064124412 A 1.5 1.5 0 0 0 -78.6249 246.777A 259 259 0 0 1 -79.0991 246.626A 1.5 1.5 0 0 0 -80.8287 247.117C -81.22444559864985 247.67098932080233 -81.64399548737948 248.2431542626926 -82.08845197859779 248.8322465867579 C -83.25266481541988 250.37530499747663 -84.58742476394418 252.0341424979775 -86.11148295801681 253.7889965074736 A 268 268 0 0 1 -89.1938 252.722C -89.3069630075082 250.40069443047142 -89.33072988817011 248.27166622289963 -89.29200756864432 246.33907175683032 C -89.27722125521045 245.60126913837894 -89.2533208432155 244.89216858121665 -89.22181110215439 244.21193522581163 A 1.5 1.5 0 0 0 -90.278 242.757A 259 259 0 0 1 -90.7444 242.583A 1.5 1.5 0 0 0 -92.4955 242.991C -92.91710601758378 243.52564736238793 -93.36340540269599 244.07720124797828 -93.83538861683792 244.64447823889802 C -95.07170447080703 246.130393410614 -96.48388325535166 247.72384157536075 -98.08971452418783 249.40419032177988 A 268 268 0 0 1 -101.118 248.192C -101.12035327442237 245.8676789790451 -101.04278999431075 243.73993136458725 -100.91215498683309 241.81136835469297 C -100.86227935919139 241.07510497747933 -100.80466565523515 240.36794481812518 -100.74082479776571 239.689981230235 A 1.5 1.5 0 0 0 -101.727 238.186A 259 259 0 0 1 -102.184 237.99A 1.5 1.5 0 0 0 -103.953 238.315C -104.39927930608886 238.8286414865735 -104.87131717593134 239.3583348689146 -105.36975791921101 239.90251146184883 C -106.67537613727673 241.32791731877734 -108.16177471868997 242.85236647516967 -109.84574133797588 244.45440342814396 A 268 268 0 0 1 -112.813 243.099C -112.70467341742787 240.7776941553301 -112.52595568231915 238.6560471666889 -112.30370391719823 236.7358844284785 C -112.218851959687 236.00282816585928 -112.12765547733946 235.2992103495209 -112.03162812353723 234.6250523347283 A 1.5 1.5 0 0 0 -112.945 233.076A 259 259 0 0 1 -113.392 232.859A 1.5 1.5 0 0 0 -115.174 233.098C -115.64495464860953 233.59061192238454 -116.14166168558364 234.09724487559797 -116.66543082940207 234.617088335538 C -118.03739376636928 235.9787558749541 -119.59464497378796 237.43075265533815 -121.35293221751003 238.9508486858996 A 268 268 0 0 1 -124.252 237.456C -124.03368122548976 235.14227041206425 -123.75421388853569 233.03153026206272 -123.4408488375032 231.12411758172775 C -123.32121276709748 230.39592904191366 -123.19664009572305 229.69744748925245 -123.06864377843006 229.02862223229312 A 1.5 1.5 0 0 0 -123.907 227.438A 259 259 0 0 1 -124.344 227.199A 1.5 1.5 0 0 0 -126.135 227.354C -126.62865697350354 227.82342449151224 -127.14890797641269 228.30584932900862 -127.69681901519715 228.8001820433184 C -129.1320187337437 230.09502665028674 -130.7565948923181 231.47128181494344 -132.5852196743444 232.90599341666825 A 268 268 0 0 1 -135.41 231.275C -135.08171285212882 228.97417379656986 -134.70212899673376 226.87912199053352 -134.29836053241917 224.98878027128376 C -134.14421136329744 224.26710903552762 -133.98654470006358 223.57534603191579 -133.8268693721065 222.91336863711356 A 1.5 1.5 0 0 0 -134.589 221.285A 259 259 0 0 1 -135.014 221.026A 1.5 1.5 0 0 0 -136.81 221.095C -137.3255046622732 221.54014372841095 -137.86812109526542 221.9972676027691 -138.43893283428625 222.46496974885648 C -139.93411814544064 223.6900581838763 -141.6223390676527 224.98745407220727 -143.51715896470398 226.33353116186552 A 268 268 0 0 1 -146.261 224.57C -145.82374095228843 222.2873770315504 -145.34490045797193 220.21275953565979 -144.85164324581254 218.34377100948743 C -144.6633301754225 217.63025189525223 -144.4729266860324 216.94677450638744 -144.28193406338602 216.29314456545603 A 1.5 1.5 0 0 0 -144.965 214.63A 259 259 0 0 1 -145.378 214.351A 1.5 1.5 0 0 0 -147.175 214.335C -147.71126591443362 214.75500328492583 -148.2750185767642 215.18579066354377 -148.86743794384012 215.62580274561893 C -150.41922177197014 216.7783597893548 -152.16726309444184 217.99395738238636 -154.12398573001286 219.24835066242588 A 268 268 0 0 1 -156.781 217.356C -156.23543137732023 215.09702786237986 -155.65841897181335 213.04754435253068 -155.076790398043 211.20414287957774 C -154.85474001605692 210.5003922371492 -154.63203102565427 209.8267487591468 -154.41015376803864 209.182946954132 A 1.5 1.5 0 0 0 -155.014 207.489A 259 259 0 0 1 -155.412 207.191A 1.5 1.5 0 0 0 -157.207 207.089C -157.76241364033484 207.48337368649305 -158.34602545090166 207.88684869740234 -158.95871042562396 208.29817394657655 C -160.5635774812526 209.3755886866229 -162.367479328159 210.50663426482936 -164.3816720961317 211.6665021310153 A 268 268 0 0 1 -166.946 209.65C -166.29319829965817 207.41941474258704 -165.6193211016461 205.39970795811257 -164.9506387420559 203.58606943561588 C -164.69535406400797 202.89368148654927 -164.44084408008683 202.23139793855353 -164.18858481085365 201.59888268761227 A 1.5 1.5 0 0 0 -164.711 199.878A 259 259 0 0 1 -165.095 199.561A 1.5 1.5 0 0 0 -166.883 199.374C -167.45617875758717 199.74172751295615 -168.0583276479299 200.11697615548584 -168.6898903017706 200.49868278777356 C -170.3442050448369 201.49851453321102 -172.19988099829865 202.54244591457498 -174.26698110422078 203.60516089313757 A 268 268 0 0 1 -176.732 201.469C -175.97425764230357 199.2719299352694 -175.20504220038165 197.2865751616429 -174.45082083558705 195.50680806418367 C -174.16288016338126 194.8273512898791 -173.87714573291424 194.17792795713913 -173.59507590044356 193.55813211075318 A 1.5 1.5 0 0 0 -174.035 191.815A 259 259 0 0 1 -174.403 191.48A 1.5 1.5 0 0 0 -176.18 191.208C -176.77060177035554 191.54760208287487 -177.38992367956604 191.8937742981569 -178.0389333199821 192.2449976252662 C -179.73894819550932 193.16498143561145 -181.6421945526434 194.11943377979037 -183.75751934992527 195.08258847949784 A 268 268 0 0 1 -186.118 192.832C -185.25667869208752 190.67303011402373 -184.39386752663754 188.726524818365 -183.555815710613 186.98466089085252 C -183.23587132248338 186.31967447944018 -182.91955972585743 185.6845825146813 -182.608318309043 185.07891010979012 A 1.5 1.5 0 0 0 -182.965 183.317A 259 259 0 0 1 -183.317 182.965A 1.5 1.5 0 0 0 -185.079 182.608C -185.68458251468127 182.91955972585745 -186.31967447944015 183.2358713224834 -186.9846608908525 183.55581571061302 C -188.72652481836496 184.39386752663756 -190.6730301140237 185.25667869208755 -192.83178771163927 186.11809125776182 A 268 268 0 0 1 -195.083 183.758C -194.11943377979034 181.64219455264342 -193.16498143561142 179.73894819550935 -192.24499762526617 178.03893331998214 C -191.89377429815687 177.38992367956607 -191.54760208287485 176.77060177035557 -191.2078941436316 176.18042484976107 A 1.5 1.5 0 0 0 -191.48 174.403A 259 259 0 0 1 -191.815 174.035A 1.5 1.5 0 0 0 -193.558 173.595C -194.17792795713908 173.8771457329143 -194.82735128987903 174.16288016338132 -195.50680806418362 174.4508208355871 C -197.28657516164284 175.2050422003817 -199.27192993526936 175.97425764230366 -201.46923005293013 176.7319766974239 A 268 268 0 0 1 -203.605 174.267C -202.54244591457493 172.19988099829874 -201.49851453321097 170.34420504483697 -200.4986827877735 168.68989030177065 C -200.1169761554858 168.05832764792996 -199.7417275129561 167.45617875758722 -199.37432259902798 166.88283426183548 A 1.5 1.5 0 0 0 -199.561 165.095A 259 259 0 0 1 -199.878 164.711A 1.5 1.5 0 0 0 -201.599 164.189C -202.2313979385534 164.44084408008695 -202.89368148654916 164.6953540640081 -203.58606943561577 164.95063874205604 C -205.39970795811246 165.61932110164622 -207.4194147425869 166.2931982996583 -209.6502797888 166.94550736685653 A 268 268 0 0 1 -211.667 164.382C -210.50663426482922 162.3674793281591 -209.3755886866228 160.5635774812527 -208.29817394657644 158.9587104256241 C -207.88684869740223 158.34602545090178 -207.48337368649294 157.76241364033496 -207.0891040881799 157.20720037911596 A 1.5 1.5 0 0 0 -207.191 155.412A 259 259 0 0 1 -207.489 155.014A 1.5 1.5 0 0 0 -209.183 154.41C -209.82674875914677 154.63203102565433 -210.50039223714919 154.85474001605698 -211.20414287957772 155.07679039804304 C -213.04754435253065 155.6584189718134 -215.09702786237983 156.23543137732028 -217.35640421029356 156.7808527667545 A 268 268 0 0 1 -219.248 154.124C -217.99395738238633 152.1672630944419 -216.77835978935477 150.4192217719702 -215.6258027456189 148.86743794384017 C -215.18579066354374 148.27501857676427 -214.7550032849258 147.71126591443368 -214.33476214967857 147.1754416243595 A 1.5 1.5 0 0 0 -214.351 145.378A 259 259 0 0 1 -214.63 144.965A 1.5 1.5 0 0 0 -216.293 144.282C -216.9467745063874 144.47292668603245 -217.6302518952522 144.66333017542254 -218.3437710094874 144.8516432458126 C -220.21275953565976 145.344900457972 -222.28737703155036 145.8237409522885 -224.57014646704454 146.26103910908554 A 268 268 0 0 1 -226.334 143.517C -224.98745407220724 141.62233906765275 -223.69005818387626 139.9341181454407 -222.46496974885645 138.4389328342863 C -221.99726760276909 137.86812109526548 -221.54014372841092 137.32550466227326 -221.0948830375647 136.81028315770027 A 1.5 1.5 0 0 0 -221.026 135.014A 259 259 0 0 1 -221.285 134.589A 1.5 1.5 0 0 0 -222.913 133.827C -223.57534603191567 133.98654470006372 -224.26710903552754 134.1442113632976 -224.98878027128367 134.2983605324193 C -226.87912199053343 134.7021289967339 -228.97417379656977 135.08171285212896 -231.2751651126567 135.40989715531376 A 268 268 0 0 1 -232.906 132.585C -231.47128181494335 130.75659489231825 -230.09502665028666 129.13201873374385 -228.8001820433183 127.69681901519729 C -228.30584932900854 127.14890797641283 -227.82342449151218 126.62865697350368 -227.3541529037426 126.13520539685247 A 1.5 1.5 0 0 0 -227.199 124.344A 259 259 0 0 1 -227.438 123.907A 1.5 1.5 0 0 0 -229.029 123.069C -229.69744748925243 123.1966400957231 -230.39592904191363 123.32121276709752 -231.12411758172772 123.44084883750324 C -233.0315302620627 123.75421388853573 -235.14227041206422 124.0336812254898 -237.456271123336 124.25200823206043 A 268 268 0 0 1 -238.951 121.353C -237.43075265533813 119.59464497378801 -235.97875587495406 118.03739376636932 -234.61708833553797 116.66543082940211 C -234.09724487559794 116.14166168558368 -233.5906119223845 115.64495464860957 -233.09839248877162 115.17439082641205 A 1.5 1.5 0 0 0 -232.859 113.392A 259 259 0 0 1 -233.076 112.945A 1.5 1.5 0 0 0 -234.625 112.032C -235.29921034952085 112.12765547733956 -236.00282816585923 112.2188519596871 -236.73588442847844 112.30370391719833 C -238.65604716668884 112.52595568231925 -240.77769415533004 112.70467341742797 -243.09946230591436 112.81264854649316 A 268 268 0 0 1 -244.454 109.846C -242.85236647516962 108.1617747186901 -241.32791731877728 106.67537613727683 -239.90251146184877 105.36975791921111 C -239.35833486891454 104.87131717593144 -238.82864148657345 104.39927930608896 -238.3145892424489 103.9526692167517 A 1.5 1.5 0 0 0 -237.99 102.184A 259 259 0 0 1 -238.186 101.727A 1.5 1.5 0 0 0 -239.69 100.741C -240.36794481812515 100.8046656552352 -241.0751049774793 100.86227935919145 -241.81136835469295 100.91215498683314 C -243.73993136458722 101.0427899943108 -245.86767897904508 101.12035327442241 -248.1919550173213 101.11773192758636 A 268 268 0 0 1 -249.404 98.0897C -247.72384157536072 96.4838832553517 -246.13039341061398 95.07170447080708 -244.644478238898 93.83538861683797 C -244.07720124797825 93.36340540269605 -243.5256473623879 92.91710601758382 -242.99092680142124 92.49546137660417 A 1.5 1.5 0 0 0 -242.583 90.7444A 259 259 0 0 1 -242.757 90.278A 1.5 1.5 0 0 0 -244.212 89.2218C -244.89216858121662 89.2533208432156 -245.6012691383789 89.27722125521056 -246.3390717568303 89.29200756864442 C -248.2716662228996 89.3307298881702 -250.4006944304714 89.3069630075083 -252.7222131236467 89.19375112296468 A 268 268 0 0 1 -253.789 86.1115C -252.03414249797748 84.58742476394428 -250.3753049974766 83.25266481541999 -248.83224658675786 82.08845197859789 C -248.24315426269257 81.6439954873796 -247.6709893208023 81.22444559864995 -247.11681175704848 80.82872156675498 A 1.5 1.5 0 0 0 -246.626 79.0991A 259 259 0 0 1 -246.777 78.6249A 1.5 1.5 0 0 0 -248.181 77.5007C -248.8616328168278 77.49978855258496 -249.57106743096537 77.48992153049828 -250.30873793042133 77.46958503396858 C -252.24098590461196 77.41630694703436 -254.36647177163968 77.29126374522788 -256.6799741331947 77.067717784308 A 268 268 0 0 1 -257.599 73.9382C -255.77350502509097 72.49934854925611 -254.05303598931303 71.24503109733969 -252.45632986319185 70.15555859419045 C -251.84675668956717 69.7396356628007 -251.25527682899803 69.34778568589311 -250.68289765288128 68.97887870529334 A 1.5 1.5 0 0 0 -250.11 67.2745A 259 259 0 0 1 -250.239 66.7937A 1.5 1.5 0 0 0 -251.587 65.604C -252.26734541175048 65.57069431431685 -252.97550698528403 65.5270822101271 -253.71137430480337 65.47166897233943 C -255.63889862397718 65.32651117094815 -257.75602724134353 65.10047491106732 -260.05627244432844 64.76710127727262 A 268 268 0 0 1 -260.825 61.5974C -258.9334582978712 60.24703799184945 -257.15525514254364 59.07600446900062 -255.50851835395065 58.06374030515524 C -254.87984521006427 57.67729313280858 -254.27039032294047 57.31403073395302 -253.68110615739127 56.97277649761254 A 1.5 1.5 0 0 0 -253.028 55.2976A 259 259 0 0 1 -253.134 54.8112A 1.5 1.5 0 0 0 -254.424 53.5587C -255.10159133156415 53.49306136366328 -255.80687565076082 53.415802972813616 -256.53927281418487 53.325438522574316 C -258.4577070158016 53.0887298358338 -260.5616824062478 52.7622125627082 -262.8434596554407 52.31976645454352 A 268 268 0 0 1 -263.461 49.1171C -261.50684400580695 47.858248515896506 -259.6749349330071 46.7731516896887 -257.98189787041497 45.840388969056846 C -257.3355489031404 45.48429298289319 -256.70949960080276 45.1504410682606 -256.10464536398985 44.837612626783674 A 1.5 1.5 0 0 0 -255.373 43.1954A 259 259 0 0 1 -255.455 42.7045A 1.5 1.5 0 0 0 -256.684 41.392C -257.35795009767065 41.294249423834444 -258.05875946670403 41.18351976142907 -258.78602735889393 41.0584088032822 C -260.6910255724532 40.73068545250149 -262.7770815550099 40.304426832773785 -265.03522189104433 39.75391053297983 A 268 268 0 0 1 -265.499 36.5255C -263.4878326025814 35.361044714215794 -261.6063674755634 34.3643426779644 -259.87086541245714 33.51319440811648 C -259.2083048100932 33.18825628007707 -258.56707929557007 32.8845711316322 -257.94802517688163 32.60087714205505 A 1.5 1.5 0 0 0 -257.139 30.9954A 259 259 0 0 1 -257.198 30.5011A 1.5 1.5 0 0 0 -258.363 29.1316C -259.0313103317432 29.001892727426785 -259.7260571919883 28.857942631765454 -260.4465483172541 28.69836858227117 C -262.33379510909015 28.280372966246738 -264.3972060960102 27.75533861278988 -266.6265941047304 27.097999217850436 A 268 268 0 0 1 -266.937 23.8511C -264.87193651186976 22.783736772943822 -262.94517745428936 21.877687377334183 -261.1711418610384 21.110081682859626 C -260.49387053645125 20.817037502315593 -259.8389213917731 20.544207064595142 -259.2070697478967 20.290290185049773 A 1.5 1.5 0 0 0 -258.322 18.7251A 259 259 0 0 1 -258.358 18.2286A 1.5 1.5 0 0 0 -259.456 16.8052C -260.11788133464194 16.643837415997194 -260.80499186100616 16.46699298034583 -261.5170740752146 16.273317326050666 C -263.38229422434125 15.765996339294412 -265.4183859260764 15.143375623787872 -267.6139713265955 14.380702218855156 A 268 268 0 0 1 -267.769 11.1227C -265.6560202931425 10.154816339857092 -263.68833203397634 9.341472078186543 -261.8797816717895 8.659147832871408 C -261.18933386236296 8.398661439144663 -260.5221447579963 8.157303760841607 -259.8789269361303 7.933739194728494 A 1.5 1.5 0 0 0 -258.921 6.41245A 259 259 0 0 1 -258.932 5.91475A 1.5 1.5 0 0 0 -259.962 4.44078C -260.61520167356724 4.248078459596517 -261.29311933971024 4.038740293481047 -261.99517954761643 3.811401772034659 C -263.8341477304776 3.215904659753252 -265.83830774444704 2.49710801837363 -267.9951168296581 1.630828304011505 A 268 268 0 0 1 -267.995 -1.63083C -265.83830774444704 -2.497108018373565 -263.8341477304776 -3.2159046597531873 -261.99517954761643 -3.811401772034595 C -261.29311933971024 -4.038740293480983 -260.61520167356724 -4.248078459596453 -259.9620747689589 -4.440784266629107 A 1.5 1.5 0 0 0 -258.932 -5.91475A 259 259 0 0 1 -258.921 -6.41245A 1.5 1.5 0 0 0 -259.879 -7.93374C -260.5221447579963 -8.157303760841426 -261.1893338623629 -8.398661439144481 -261.8797816717895 -8.659147832871225 C -263.68833203397634 -9.34147207818636 -265.6560202931425 -10.15481633985691 -267.7691671967644 -11.122739961470415 A 268 268 0 0 1 -267.614 -14.3807C -265.4183859260764 -15.143375623787689 -263.38229422434125 -15.76599633929423 -261.5170740752146 -16.273317326050485 C -260.8049918610062 -16.466992980345644 -260.11788133464194 -16.643837415997012 -259.45632488979805 -16.80524792331554 A 1.5 1.5 0 0 0 -258.358 -18.2286A 259 259 0 0 1 -258.322 -18.7251A 1.5 1.5 0 0 0 -259.207 -20.2903C -259.8389213917731 -20.544207064595074 -260.49387053645125 -20.817037502315525 -261.1711418610384 -21.11008168285956 C -262.94517745428936 -21.877687377334112 -264.87193651186976 -22.783736772943758 -266.936634276506 -23.85111164348856 A 268 268 0 0 1 -266.627 -27.098C -264.3972060960102 -27.755338612789817 -262.33379510909015 -28.280372966246674 -260.4465483172541 -28.6983685822711 C -259.7260571919883 -28.857942631765386 -259.0313103317432 -29.001892727426718 -258.3628229847903 -29.131642288316936 A 1.5 1.5 0 0 0 -257.198 -30.5011A 259 259 0 0 1 -257.139 -30.9954A 1.5 1.5 0 0 0 -257.948 -32.6009C -258.5670792955701 -32.88457113163214 -259.20830481009324 -33.188256280077006 -259.8708654124572 -33.513194408116426 C -261.60636747556345 -34.364342677964345 -263.4878326025815 -35.36104471421574 -265.4994040237181 -36.52545288630603 A 268 268 0 0 1 -265.035 -39.7539C -262.77708155500994 -40.30442683277373 -260.69102557245327 -40.73068545250143 -258.786027358894 -41.05840880328214 C -258.0587594667041 -41.183519761429004 -257.3579500976707 -41.29424942383439 -256.6840461874579 -41.39204411380902 A 1.5 1.5 0 0 0 -255.455 -42.7045A 259 259 0 0 1 -255.373 -43.1954A 1.5 1.5 0 0 0 -256.105 -44.8376C -256.70949960080276 -45.15044106826042 -257.3355489031405 -45.48429298289302 -257.981897870415 -45.84038896905667 C -259.67493493300714 -46.773151689688525 -261.506844005807 -47.85824851589633 -263.4607322271855 -49.117052230509074 A 268 268 0 0 1 -262.843 -52.3198C -260.5616824062479 -52.76221256270802 -258.45770701580165 -53.088729835833625 -256.5392728141849 -53.32543852257414 C -255.80687565076087 -53.415802972813445 -255.1015913315642 -53.4930613636631 -254.42379746719854 -53.55867964629525 A 1.5 1.5 0 0 0 -253.134 -54.8112A 259 259 0 0 1 -253.028 -55.2976A 1.5 1.5 0 0 0 -253.681 -56.9728C -254.2703903229405 -57.31403073395296 -254.8798452100643 -57.67729313280852 -255.50851835395068 -58.063740305155186 C -257.15525514254364 -59.076004469000566 -258.93345829787125 -60.24703799184939 -260.82523713423325 -61.59738565369694 A 268 268 0 0 1 -260.056 -64.7671C -257.7560272413436 -65.10047491106727 -255.63889862397718 -65.3265111709481 -253.7113743048034 -65.47166897233939 C -252.97550698528406 -65.52708221012705 -252.2673454117505 -65.5706943143168 -251.5871970143363 -65.60398754309124 A 1.5 1.5 0 0 0 -250.239 -66.7937A 259 259 0 0 1 -250.11 -67.2745A 1.5 1.5 0 0 0 -250.683 -68.9789C -251.25527682899812 -69.34778568589296 -251.84675668956726 -69.73963566280054 -252.4563298631919 -70.1555585941903 C -254.0530359893131 -71.24503109733953 -255.773505025091 -72.49934854925596 -257.5988889889118 -73.93818118656652 A 268 268 0 0 1 -256.68 -77.0677C -254.36647177163977 -77.29126374522772 -252.24098590461202 -77.4163069470342 -250.3087379304214 -77.46958503396843 C -249.57106743096546 -77.48992153049812 -248.8616328168279 -77.4997885525848 -248.18067064124412 -77.50068130763013 A 1.5 1.5 0 0 0 -246.777 -78.6249A 259 259 0 0 1 -246.626 -79.0991A 1.5 1.5 0 0 0 -247.117 -80.8287C -247.6709893208023 -81.2244455986499 -248.24315426269257 -81.64399548737953 -248.83224658675786 -82.08845197859783 C -250.3753049974766 -83.25266481541993 -252.03414249797748 -84.58742476394423 -253.78899650747357 -86.11148295801685 A 268 268 0 0 1 -252.722 -89.1938C -250.4006944304714 -89.30696300750824 -248.2716662228996 -89.33072988817014 -246.3390717568303 -89.29200756864437 C -245.6012691383789 -89.27722125521049 -244.89216858121662 -89.25332084321555 -244.2119352258116 -89.22181110215442 A 1.5 1.5 0 0 0 -242.757 -90.278A 259 259 0 0 1 -242.583 -90.7444A 1.5 1.5 0 0 0 -242.991 -92.4955C -243.52564736238793 -92.91710601758376 -244.07720124797828 -93.36340540269597 -244.64447823889802 -93.8353886168379 C -246.130393410614 -95.07170447080702 -247.72384157536075 -96.48388325535164 -249.40419032177988 -98.08971452418781 A 268 268 0 0 1 -248.192 -101.118C -245.8676789790451 -101.12035327442236 -243.73993136458725 -101.04278999431074 -241.81136835469297 -100.91215498683307 C -241.07510497747933 -100.86227935919138 -240.36794481812518 -100.80466565523514 -239.689981230235 -100.7408247977657 A 1.5 1.5 0 0 0 -238.186 -101.727A 259 259 0 0 1 -237.99 -102.184A 1.5 1.5 0 0 0 -238.315 -103.953C -238.82864148657353 -104.3992793060888 -239.35833486891462 -104.87131717593128 -239.90251146184886 -105.36975791921095 C -241.32791731877737 -106.67537613727667 -242.8523664751697 -108.16177471868991 -244.454403428144 -109.84574133797582 A 268 268 0 0 1 -243.099 -112.813C -240.77769415533012 -112.70467341742781 -238.65604716668892 -112.5259556823191 -236.73588442847853 -112.30370391719818 C -236.0028281658593 -112.21885195968694 -235.29921034952093 -112.1276554773394 -234.62505233472834 -112.03162812353717 A 1.5 1.5 0 0 0 -233.076 -112.945A 259 259 0 0 1 -232.859 -113.392A 1.5 1.5 0 0 0 -233.098 -115.174C -233.59061192238454 -115.64495464860951 -234.09724487559797 -116.14166168558363 -234.617088335538 -116.66543082940206 C -235.9787558749541 -118.03739376636926 -237.43075265533815 -119.59464497378795 -238.9508486858996 -121.35293221751002 A 268 268 0 0 1 -237.456 -124.252C -235.14227041206425 -124.03368122548974 -233.03153026206272 -123.75421388853567 -231.12411758172775 -123.44084883750318 C -230.39592904191366 -123.32121276709746 -229.69744748925245 -123.19664009572304 -229.02862223229312 -123.06864377843004 A 1.5 1.5 0 0 0 -227.438 -123.907A 259 259 0 0 1 -227.199 -124.344A 1.5 1.5 0 0 0 -227.354 -126.135C -227.82342449151224 -126.62865697350354 -228.30584932900862 -127.14890797641269 -228.8001820433184 -127.69681901519715 C -230.09502665028674 -129.1320187337437 -231.47128181494344 -130.7565948923181 -232.90599341666825 -132.5852196743444 A 268 268 0 0 1 -231.275 -135.41C -228.97417379656986 -135.08171285212882 -226.87912199053352 -134.70212899673376 -224.98878027128376 -134.29836053241917 C -224.26710903552762 -134.14421136329744 -223.57534603191579 -133.98654470006358 -222.91336863711356 -133.8268693721065 A 1.5 1.5 0 0 0 -221.285 -134.589A 259 259 0 0 1 -221.026 -135.014A 1.5 1.5 0 0 0 -221.095 -136.81C -221.54014372841104 -137.32550466227312 -221.99726760276917 -137.86812109526534 -222.46496974885653 -138.43893283428616 C -223.69005818387635 -139.93411814544055 -224.98745407220733 -141.6223390676526 -226.33353116186558 -143.5171589647039 A 268 268 0 0 1 -224.57 -146.261C -222.28737703155045 -145.82374095228835 -220.21275953565984 -145.34490045797185 -218.34377100948748 -144.85164324581245 C -217.6302518952523 -144.6633301754224 -216.94677450638753 -144.4729266860323 -216.29314456545612 -144.28193406338593 A 1.5 1.5 0 0 0 -214.63 -144.965A 259 259 0 0 1 -214.351 -145.378A 1.5 1.5 0 0 0 -214.335 -147.175C -214.75500328492583 -147.71126591443362 -215.18579066354377 -148.2750185767642 -215.62580274561893 -148.86743794384012 C -216.7783597893548 -150.41922177197014 -217.99395738238636 -152.16726309444184 -219.24835066242588 -154.12398573001286 A 268 268 0 0 1 -217.356 -156.781C -215.09702786237986 -156.23543137732023 -213.04754435253068 -155.65841897181335 -211.20414287957774 -155.076790398043 C -210.5003922371492 -154.85474001605692 -209.8267487591468 -154.63203102565427 -209.182946954132 -154.41015376803864 A 1.5 1.5 0 0 0 -207.489 -155.014A 259 259 0 0 1 -207.191 -155.412A 1.5 1.5 0 0 0 -207.089 -157.207C -207.48337368649305 -157.76241364033484 -207.88684869740234 -158.34602545090166 -208.29817394657655 -158.95871042562396 C -209.3755886866229 -160.5635774812526 -210.50663426482936 -162.367479328159 -211.6665021310153 -164.3816720961317 A 268 268 0 0 1 -209.65 -166.946C -207.41941474258704 -166.29319829965817 -205.39970795811257 -165.6193211016461 -203.58606943561588 -164.9506387420559 C -202.89368148654927 -164.69535406400797 -202.23139793855353 -164.44084408008683 -201.59888268761227 -164.18858481085365 A 1.5 1.5 0 0 0 -199.878 -164.711A 259 259 0 0 1 -199.561 -165.095A 1.5 1.5 0 0 0 -199.374 -166.883C -199.74172751295615 -167.45617875758717 -200.11697615548584 -168.0583276479299 -200.49868278777356 -168.6898903017706 C -201.49851453321102 -170.3442050448369 -202.54244591457498 -172.19988099829865 -203.60516089313757 -174.26698110422078 A 268 268 0 0 1 -201.469 -176.732C -199.2719299352694 -175.97425764230357 -197.2865751616429 -175.20504220038165 -195.50680806418367 -174.45082083558705 C -194.8273512898791 -174.16288016338126 -194.17792795713913 -173.87714573291424 -193.55813211075318 -173.59507590044356 A 1.5 1.5 0 0 0 -191.815 -174.035A 259 259 0 0 1 -191.48 -174.403A 1.5 1.5 0 0 0 -191.208 -176.18C -191.54760208287487 -176.77060177035554 -191.8937742981569 -177.38992367956604 -192.2449976252662 -178.0389333199821 C -193.16498143561145 -179.73894819550932 -194.11943377979037 -181.6421945526434 -195.08258847949784 -183.75751934992527 A 268 268 0 0 1 -192.832 -186.118C -190.67303011402373 -185.25667869208752 -188.726524818365 -184.39386752663754 -186.98466089085252 -183.555815710613 C -186.31967447944018 -183.23587132248338 -185.6845825146813 -182.91955972585743 -185.07891010979012 -182.608318309043 A 1.5 1.5 0 0 0 -183.317 -182.965A 259 259 0 0 1 -182.965 -183.317A 1.5 1.5 0 0 0 -182.608 -185.079C -182.9195597258576 -185.68458251468118 -183.23587132248352 -186.31967447944007 -183.55581571061313 -186.9846608908524 C -184.39386752663768 -188.72652481836488 -185.25667869208766 -190.6730301140236 -186.11809125776196 -192.83178771163915 A 268 268 0 0 1 -183.758 -195.083C -181.64219455264353 -194.11943377979023 -179.73894819550947 -193.16498143561134 -178.03893331998225 -192.24499762526608 C -177.38992367956618 -191.89377429815679 -176.7706017703557 -191.54760208287476 -176.18042484976118 -191.2078941436315 A 1.5 1.5 0 0 0 -174.403 -191.48A 259 259 0 0 1 -174.035 -191.815A 1.5 1.5 0 0 0 -173.595 -193.558C -173.8771457329143 -194.17792795713908 -174.16288016338132 -194.82735128987903 -174.4508208355871 -195.50680806418362 C -175.2050422003817 -197.28657516164284 -175.97425764230366 -199.27192993526936 -176.7319766974239 -201.46923005293013 A 268 268 0 0 1 -174.267 -203.605C -172.19988099829874 -202.54244591457493 -170.34420504483697 -201.49851453321097 -168.68989030177065 -200.4986827877735 C -168.05832764792996 -200.1169761554858 -167.45617875758722 -199.7417275129561 -166.88283426183548 -199.37432259902798 A 1.5 1.5 0 0 0 -165.095 -199.561A 259 259 0 0 1 -164.711 -199.878A 1.5 1.5 0 0 0 -164.189 -201.599C -164.44084408008698 -202.23139793855339 -164.69535406400811 -202.89368148654913 -164.95063874205607 -203.58606943561574 C -165.61932110164625 -205.39970795811243 -166.29319829965831 -207.41941474258687 -166.94550736685656 -209.65027978879996 A 268 268 0 0 1 -164.382 -211.667C -162.36747932815913 -210.5066342648292 -160.56357748125274 -209.37558868662276 -158.95871042562413 -208.2981739465764 C -158.3460254509018 -207.8868486974022 -157.76241364033498 -207.4833736864929 -157.207200379116 -207.08910408817988 A 1.5 1.5 0 0 0 -155.412 -207.191A 259 259 0 0 1 -155.014 -207.489A 1.5 1.5 0 0 0 -154.41 -209.183C -154.63203102565433 -209.82674875914674 -154.85474001605698 -210.50039223714916 -155.07679039804304 -211.2041428795777 C -155.6584189718134 -213.04754435253062 -156.23543137732028 -215.0970278623798 -156.7808527667545 -217.35640421029353 A 268 268 0 0 1 -154.124 -219.248C -152.1672630944419 -217.9939573823863 -150.4192217719702 -216.77835978935474 -148.86743794384017 -215.62580274561887 C -148.27501857676427 -215.1857906635437 -147.71126591443368 -214.75500328492578 -147.1754416243595 -214.33476214967854 A 1.5 1.5 0 0 0 -145.378 -214.351A 259 259 0 0 1 -144.965 -214.63A 1.5 1.5 0 0 0 -144.282 -216.293C -144.47292668603257 -216.94677450638733 -144.66333017542266 -217.63025189525212 -144.8516432458127 -218.3437710094873 C -145.3449004579721 -220.21275953565967 -145.8237409522886 -222.28737703155028 -146.26103910908566 -224.57014646704445 A 268 268 0 0 1 -143.517 -226.334C -141.62233906765286 -224.98745407220716 -139.9341181454408 -223.69005818387618 -138.43893283428642 -222.46496974885636 C -137.8681210952656 -221.997267602769 -137.32550466227337 -221.54014372841084 -136.81028315770044 -221.0948830375646 A 1.5 1.5 0 0 0 -135.014 -221.026A 259 259 0 0 1 -134.589 -221.285A 1.5 1.5 0 0 0 -133.827 -222.913C -133.98654470006375 -223.57534603191564 -134.14421136329761 -224.2671090355275 -134.29836053241934 -224.98878027128364 C -134.70212899673393 -226.8791219905334 -135.081712852129 -228.97417379656974 -135.40989715531379 -231.27516511265668 A 268 268 0 0 1 -132.585 -232.906C -130.75659489231828 -231.47128181494332 -129.13201873374388 -230.09502665028663 -127.69681901519732 -228.80018204331827 C -127.14890797641286 -228.3058493290085 -126.62865697350371 -227.82342449151216 -126.1352053968525 -227.35415290374257 A 1.5 1.5 0 0 0 -124.344 -227.199A 259 259 0 0 1 -123.907 -227.438A 1.5 1.5 0 0 0 -123.069 -229.029C -123.19664009572311 -229.69744748925243 -123.32121276709753 -230.39592904191363 -123.44084883750325 -231.12411758172772 C -123.75421388853574 -233.0315302620627 -124.03368122548981 -235.14227041206422 -124.25200823206045 -237.456271123336 A 268 268 0 0 1 -121.353 -238.951C -119.59464497378802 -237.43075265533813 -118.03739376636933 -235.97875587495406 -116.66543082940213 -234.61708833553797 C -116.1416616855837 -234.09724487559794 -115.64495464860958 -233.5906119223845 -115.17439082641206 -233.09839248877162 A 1.5 1.5 0 0 0 -113.392 -232.859A 259 259 0 0 1 -112.945 -233.076A 1.5 1.5 0 0 0 -112.032 -234.625C -112.12765547733946 -235.2992103495209 -112.218851959687 -236.00282816585928 -112.30370391719823 -236.7358844284785 C -112.52595568231915 -238.6560471666889 -112.70467341742787 -240.7776941553301 -112.81264854649305 -243.09946230591441 A 268 268 0 0 1 -109.846 -244.454C -108.16177471868997 -242.85236647516967 -106.67537613727673 -241.32791731877734 -105.36975791921101 -239.90251146184883 C -104.87131717593134 -239.3583348689146 -104.39927930608886 -238.8286414865735 -103.9526692167516 -238.31458924244896 A 1.5 1.5 0 0 0 -102.184 -237.99A 259 259 0 0 1 -101.727 -238.186A 1.5 1.5 0 0 0 -100.741 -239.69C -100.80466565523531 -240.36794481812512 -100.86227935919156 -241.07510497747927 -100.91215498683326 -241.81136835469292 C -101.04278999431091 -243.7399313645872 -101.12035327442254 -245.86767897904505 -101.11773192758648 -248.19195501732128 A 268 268 0 0 1 -98.0897 -249.404C -96.48388325535183 -247.7238415753607 -95.07170447080719 -246.13039341061395 -93.83538861683809 -244.64447823889796 C -93.36340540269616 -244.07720124797822 -92.91710601758393 -243.52564736238787 -92.49546137660428 -242.9909268014212 A 1.5 1.5 0 0 0 -90.7444 -242.583A 259 259 0 0 1 -90.278 -242.757A 1.5 1.5 0 0 0 -89.2218 -244.212C -89.25332084321562 -244.8921685812166 -89.27722125521058 -245.60126913837888 -89.29200756864444 -246.33907175683026 C -89.33072988817021 -248.27166622289957 -89.30696300750832 -250.40069443047136 -89.1937511229647 -252.72221312364667 A 268 268 0 0 1 -86.1115 -253.789C -84.5874247639443 -252.03414249797746 -83.25266481542 -250.37530499747658 -82.0884519785979 -248.83224658675783 C -81.64399548737961 -248.24315426269254 -81.22444559864996 -247.67098932080228 -80.828721566755 -247.11681175704845 A 1.5 1.5 0 0 0 -79.0991 -246.626A 259 259 0 0 1 -78.6249 -246.777A 1.5 1.5 0 0 0 -77.5007 -248.181C -77.49978855258486 -248.86163281682786 -77.48992153049818 -249.5710674309654 -77.46958503396849 -250.30873793042136 C -77.41630694703426 -252.240985904612 -77.29126374522778 -254.36647177163974 -77.0677177843079 -256.6799741331948 A 268 268 0 0 1 -73.9382 -257.599C -72.49934854925601 -255.77350502509097 -71.24503109733959 -254.05303598931306 -70.15555859419035 -252.45632986319188 C -69.7396356628006 -251.8467566895672 -69.34778568589302 -251.2552768289981 -68.97887870529324 -250.6828976528813 A 1.5 1.5 0 0 0 -67.2745 -250.11A 259 259 0 0 1 -66.7937 -250.239A 1.5 1.5 0 0 0 -65.604 -251.587C -65.570694314317 -252.26734541175045 -65.52708221012725 -252.975506985284 -65.47166897233957 -253.71137430480334 C -65.3265111709483 -255.63889862397713 -65.10047491106747 -257.75602724134353 -64.76710127727276 -260.0562724443284 A 268 268 0 0 1 -61.5974 -260.825C -60.247037991849595 -258.9334582978712 -59.076004469000765 -257.1552551425436 -58.06374030515538 -255.50851835395062 C -57.67729313280872 -254.87984521006425 -57.31403073395316 -254.27039032294044 -56.972776497612685 -253.68110615739124 A 1.5 1.5 0 0 0 -55.2976 -253.028A 259 259 0 0 1 -54.8112 -253.134A 1.5 1.5 0 0 0 -53.5587 -254.424C -53.4930613636633 -255.10159133156415 -53.41580297281364 -255.80687565076082 -53.32543852257434 -256.53927281418487 C -53.088729835833824 -258.4577070158016 -52.76221256270822 -260.5616824062478 -52.31976645454354 -262.8434596554407 A 268 268 0 0 1 -49.1171 -263.461C -47.85824851589653 -261.50684400580695 -46.773151689688724 -259.6749349330071 -45.84038896905687 -257.98189787041497 C -45.48429298289321 -257.3355489031404 -45.15044106826062 -256.70949960080276 -44.837612626783695 -256.10464536398985 A 1.5 1.5 0 0 0 -43.1954 -255.373A 259 259 0 0 1 -42.7045 -255.455A 1.5 1.5 0 0 0 -41.392 -256.684C -41.294249423834465 -257.35795009767065 -41.18351976142909 -258.05875946670403 -41.05840880328222 -258.78602735889393 C -40.73068545250151 -260.6910255724532 -40.304426832773814 -262.7770815550099 -39.75391053297985 -265.03522189104433 A 268 268 0 0 1 -36.5255 -265.499C -35.36104471421582 -263.4878326025814 -34.36434267796442 -261.6063674755634 -33.513194408116505 -259.87086541245714 C -33.18825628007709 -259.2083048100932 -32.88457113163222 -258.56707929557007 -32.60087714205507 -257.94802517688163 A 1.5 1.5 0 0 0 -30.9954 -257.139A 259 259 0 0 1 -30.5011 -257.198A 1.5 1.5 0 0 0 -29.1316 -258.363C -29.001892727426913 -259.0313103317432 -28.85794263176558 -259.7260571919883 -28.6983685822713 -260.4465483172541 C -28.280372966246873 -262.33379510909015 -27.755338612790016 -264.3972060960102 -27.09799921785057 -266.6265941047304 A 268 268 0 0 1 -23.8511 -266.937C -22.783736772943957 -264.87193651186976 -21.87768737733431 -262.94517745428936 -21.110081682859757 -261.1711418610384 C -20.81703750231572 -260.49387053645125 -20.54420706459527 -259.8389213917731 -20.290290185049905 -259.20706974789675 A 1.5 1.5 0 0 0 -18.7251 -258.322A 259 259 0 0 1 -18.2286 -258.358A 1.5 1.5 0 0 0 -16.8052 -259.456C -16.643837415997208 -260.11788133464194 -16.466992980345843 -260.80499186100616 -16.27331732605068 -261.5170740752146 C -15.765996339294427 -263.38229422434125 -15.143375623787888 -265.4183859260764 -14.38070221885517 -267.6139713265955 A 268 268 0 0 1 -11.1227 -267.769C -10.154816339857108 -265.6560202931425 -9.341472078186557 -263.68833203397634 -8.659147832871422 -261.8797816717895 C -8.398661439144677 -261.18933386236296 -8.157303760841621 -260.5221447579963 -7.933739194728508 -259.8789269361303 A 1.5 1.5 0 0 0 -6.41245 -258.921A 259 259 0 0 1 -5.91475 -258.932A 1.5 1.5 0 0 0 -4.44078 -259.962C -4.248078459596533 -260.61520167356724 -4.038740293481063 -261.29311933971024 -3.811401772034675 -261.99517954761643 C -3.215904659753268 -263.8341477304776 -2.4971080183736465 -265.83830774444704 -1.6308283040115215 -267.9951168296581 A 268 268 0 0 1 1.63083 -267.995C 2.497108018373549 -265.83830774444704 3.2159046597531713 -263.8341477304776 3.811401772034579 -261.99517954761643 C 4.038740293480967 -261.29311933971024 4.248078459596437 -260.61520167356724 4.440784266629091 -259.9620747689589 A 1.5 1.5 0 0 0 5.91475 -258.932A 259 259 0 0 1 6.41245 -258.921A 1.5 1.5 0 0 0 7.93374 -259.879C 8.157303760841529 -260.5221447579963 8.398661439144583 -261.1893338623629 8.659147832871328 -261.8797816717895 C 9.341472078186461 -263.68833203397634 10.154816339857012 -265.6560202931425 11.122739961470522 -267.7691671967644 A 268 268 0 0 1 14.3807 -267.614C 15.143375623787792 -265.4183859260764 15.76599633929433 -263.38229422434125 16.273317326050588 -261.5170740752146 C 16.466992980345747 -260.8049918610062 16.643837415997112 -260.11788133464194 16.80524792331564 -259.45632488979805 A 1.5 1.5 0 0 0 18.2286 -258.358A 259 259 0 0 1 18.7251 -258.322A 1.5 1.5 0 0 0 20.2903 -259.207C 20.544207064594946 -259.8389213917731 20.817037502315397 -260.4938705364513 21.110081682859427 -261.1711418610384 C 21.87768737733398 -262.94517745428936 22.783736772943623 -264.87193651186976 23.851111643488426 -266.936634276506 A 268 268 0 0 1 27.098 -266.627C 27.755338612789682 -264.39720609601034 28.280372966246542 -262.33379510909015 28.69836858227097 -260.4465483172541 C 28.85794263176526 -259.72605719198833 29.00189272742659 -259.0313103317432 29.131642288316804 -258.36282298479034 A 1.5 1.5 0 0 0 30.5011 -257.198A 259 259 0 0 1 30.9954 -257.139A 1.5 1.5 0 0 0 32.6009 -257.948C 32.88457113163212 -258.5670792955701 33.188256280076985 -259.20830481009324 33.513194408116405 -259.8708654124572 C 34.36434267796432 -261.60636747556345 35.361044714215716 -263.4878326025815 36.525452886306006 -265.4994040237181 A 268 268 0 0 1 39.7539 -265.035C 40.30442683277371 -262.77708155500994 40.73068545250141 -260.69102557245327 41.05840880328212 -258.786027358894 C 41.18351976142898 -258.0587594667041 41.294249423834366 -257.3579500976707 41.39204411380899 -256.6840461874579 A 1.5 1.5 0 0 0 42.7045 -255.455A 259 259 0 0 1 43.1954 -255.373A 1.5 1.5 0 0 0 44.8376 -256.105C 45.15044106826051 -256.70949960080276 45.48429298289311 -257.3355489031404 45.84038896905676 -257.98189787041497 C 46.773151689688625 -259.6749349330071 47.85824851589642 -261.50684400580695 49.117052230509174 -263.4607322271854 A 268 268 0 0 1 52.3198 -262.843C 52.762212562708115 -260.5616824062478 53.088729835833725 -258.4577070158016 53.32543852257423 -256.53927281418487 C 53.41580297281354 -255.80687565076082 53.493061363663195 -255.10159133156418 53.558679646295346 -254.42379746719848 A 1.5 1.5 0 0 0 54.8112 -253.134A 259 259 0 0 1 55.2976 -253.028A 1.5 1.5 0 0 0 56.9728 -253.681C 57.31403073395283 -254.27039032294053 57.677293132808394 -254.87984521006433 58.06374030515505 -255.5085183539507 C 59.07600446900043 -257.1552551425437 60.24703799184926 -258.93345829787125 61.597385653696804 -260.8252371342333 A 268 268 0 0 1 64.7671 -260.056C 65.10047491106714 -257.7560272413436 65.32651117094795 -255.63889862397724 65.47166897233924 -253.71137430480343 C 65.52708221012693 -252.97550698528408 65.57069431431667 -252.26734541175054 65.6039875430911 -251.58719701433634 A 1.5 1.5 0 0 0 66.7937 -250.239A 259 259 0 0 1 67.2745 -250.11A 1.5 1.5 0 0 0 68.9789 -250.683C 69.34778568589294 -251.25527682899812 69.73963566280052 -251.84675668956726 70.15555859419028 -252.4563298631919 C 71.24503109733952 -254.0530359893131 72.49934854925594 -255.773505025091 73.93818118656651 -257.5988889889118 A 268 268 0 0 1 77.0677 -256.68C 77.29126374522771 -254.36647177163977 77.41630694703419 -252.24098590461202 77.46958503396841 -250.3087379304214 C 77.48992153049811 -249.57106743096546 77.49978855258479 -248.8616328168279 77.50068130763012 -248.18067064124412 A 1.5 1.5 0 0 0 78.6249 -246.777A 259 259 0 0 1 79.0991 -246.626A 1.5 1.5 0 0 0 80.8287 -247.117C 81.22444559864988 -247.67098932080233 81.64399548737951 -248.2431542626926 82.08845197859782 -248.8322465867579 C 83.2526648154199 -250.37530499747663 84.58742476394421 -252.0341424979775 86.11148295801684 -253.7889965074736 A 268 268 0 0 1 89.1938 -252.722C 89.30696300750823 -250.40069443047142 89.33072988817014 -248.27166622289963 89.29200756864435 -246.33907175683032 C 89.27722125521048 -245.60126913837894 89.25332084321553 -244.89216858121665 89.22181110215442 -244.21193522581163 A 1.5 1.5 0 0 0 90.278 -242.757A 259 259 0 0 1 90.7444 -242.583A 1.5 1.5 0 0 0 92.4955 -242.991C 92.91710601758363 -243.52564736238799 93.36340540269585 -244.07720124797834 93.83538861683778 -244.64447823889807 C 95.07170447080689 -246.13039341061406 96.48388325535151 -247.7238415753608 98.08971452418768 -249.40419032177994 A 268 268 0 0 1 101.118 -248.192C 101.12035327442223 -245.86767897904517 101.04278999431061 -243.7399313645873 100.91215498683295 -241.81136835469303 C 100.86227935919125 -241.07510497747938 100.80466565523501 -240.36794481812524 100.74082479776557 -239.68998123023505 A 1.5 1.5 0 0 0 101.727 -238.186A 259 259 0 0 1 102.184 -237.99A 1.5 1.5 0 0 0 103.953 -238.315C 104.39927930608879 -238.82864148657353 104.87131717593127 -239.35833486891462 105.36975791921094 -239.90251146184886 C 106.67537613727666 -241.32791731877737 108.1617747186899 -242.8523664751697 109.84574133797581 -244.454403428144 A 268 268 0 0 1 112.813 -243.099C 112.7046734174278 -240.77769415533012 112.52595568231908 -238.65604716668892 112.30370391719816 -236.73588442847853 C 112.21885195968693 -236.0028281658593 112.12765547733939 -235.29921034952093 112.03162812353716 -234.62505233472834 A 1.5 1.5 0 0 0 112.945 -233.076A 259 259 0 0 1 113.392 -232.859A 1.5 1.5 0 0 0 115.174 -233.098C 115.6449546486095 -233.59061192238457 116.14166168558361 -234.097244875598 116.66543082940204 -234.61708833553803 C 118.03739376636923 -235.97875587495412 119.59464497378792 -237.43075265533818 121.35293221751 -238.95084868589962 A 268 268 0 0 1 124.252 -237.456C 124.03368122548974 -235.14227041206428 123.75421388853567 -233.03153026206274 123.44084883750317 -231.12411758172777 C 123.32121276709745 -230.3959290419137 123.19664009572303 -229.69744748925248 123.06864377843003 -229.02862223229315 A 1.5 1.5 0 0 0 123.907 -227.438A 259 259 0 0 1 124.344 -227.199A 1.5 1.5 0 0 0 126.135 -227.354C 126.6286569735034 -227.8234244915123 127.14890797641254 -228.30584932900868 127.69681901519701 -228.80018204331844 C 129.13201873374356 -230.0950266502868 130.75659489231796 -231.4712818149435 132.58521967434424 -232.9059934166683 A 268 268 0 0 1 135.41 -231.275C 135.08171285212867 -228.97417379656991 134.70212899673362 -226.87912199053358 134.29836053241903 -224.98878027128382 C 134.1442113632973 -224.26710903552768 133.98654470006343 -223.57534603191584 133.82686937210636 -222.91336863711362 A 1.5 1.5 0 0 0 134.589 -221.285A 259 259 0 0 1 135.014 -221.026A 1.5 1.5 0 0 0 136.81 -221.095C 137.3255046622731 -221.54014372841104 137.86812109526528 -221.99726760276917 138.43893283428613 -222.46496974885653 C 139.93411814544052 -223.69005818387635 141.62233906765258 -224.98745407220733 143.51715896470387 -226.33353116186558 A 268 268 0 0 1 146.261 -224.57C 145.82374095228832 -222.28737703155045 145.34490045797182 -220.21275953565984 144.85164324581243 -218.34377100948748 C 144.6633301754224 -217.6302518952523 144.47292668603228 -216.94677450638753 144.2819340633859 -216.29314456545612 A 1.5 1.5 0 0 0 144.965 -214.63A 259 259 0 0 1 145.378 -214.351A 1.5 1.5 0 0 0 147.175 -214.335C 147.7112659144336 -214.75500328492586 148.27501857676418 -215.1857906635438 148.8674379438401 -215.62580274561896 C 150.41922177197011 -216.77835978935482 152.1672630944418 -217.99395738238638 154.12398573001283 -219.2483506624259 A 268 268 0 0 1 156.781 -217.356C 156.2354313773202 -215.0970278623799 155.65841897181332 -213.0475443525307 155.07679039804296 -211.20414287957777 C 154.8547400160569 -210.50039223714924 154.63203102565424 -209.82674875914682 154.4101537680386 -209.18294695413203 A 1.5 1.5 0 0 0 155.014 -207.489A 259 259 0 0 1 155.412 -207.191A 1.5 1.5 0 0 0 157.207 -207.089C 157.7624136403349 -207.483373686493 158.34602545090172 -207.88684869740229 158.95871042562402 -208.2981739465765 C 160.56357748125265 -209.37558868662285 162.36747932815905 -210.5066342648293 164.38167209613175 -211.66650213101525 A 268 268 0 0 1 166.946 -209.65C 166.29319829965823 -207.41941474258698 165.61932110164616 -205.39970795811251 164.95063874205596 -203.58606943561583 C 164.69535406400803 -202.8936814865492 164.4408440800869 -202.23139793855347 164.1885848108537 -201.59888268761222 A 1.5 1.5 0 0 0 164.711 -199.878A 259 259 0 0 1 165.095 -199.561A 1.5 1.5 0 0 0 166.883 -199.374C 167.45617875758705 -199.74172751295623 168.0583276479298 -200.11697615548593 168.68989030177048 -200.49868278777365 C 170.3442050448368 -201.4985145332111 172.19988099829854 -202.54244591457507 174.26698110422066 -203.60516089313765 A 268 268 0 0 1 176.732 -201.469C 175.97425764230346 -199.2719299352695 175.20504220038154 -197.286575161643 174.45082083558694 -195.50680806418376 C 174.16288016338115 -194.82735128987918 173.87714573291413 -194.17792795713922 173.59507590044345 -193.55813211075326 A 1.5 1.5 0 0 0 174.035 -191.815A 259 259 0 0 1 174.403 -191.48A 1.5 1.5 0 0 0 176.18 -191.208C 176.7706017703555 -191.5476020828749 177.389923679566 -191.89377429815693 178.03893331998208 -192.24499762526622 C 179.7389481955093 -193.16498143561148 181.64219455264333 -194.1194337797904 183.75751934992525 -195.08258847949787 A 268 268 0 0 1 186.118 -192.832C 185.25667869208746 -190.67303011402376 184.3938675266375 -188.72652481836502 183.55581571061296 -186.98466089085255 C 183.23587132248335 -186.3196744794402 182.9195597258574 -185.68458251468132 182.60831830904297 -185.07891010979014 A 1.5 1.5 0 0 0 182.965 -183.317A 259 259 0 0 1 183.317 -182.965A 1.5 1.5 0 0 0 185.079 -182.608C 185.68458251468124 -182.91955972585748 186.31967447944012 -183.23587132248343 186.98466089085247 -183.55581571061305 C 188.72652481836494 -184.3938675266376 190.67303011402365 -185.25667869208758 192.8317877116392 -186.11809125776185 A 268 268 0 0 1 195.083 -183.758C 194.11943377979028 -181.64219455264345 193.1649814356114 -179.73894819550938 192.24499762526614 -178.03893331998216 C 191.89377429815684 -177.3899236795661 191.54760208287482 -176.7706017703556 191.20789414363156 -176.1804248497611 A 1.5 1.5 0 0 0 191.48 -174.403A 259 259 0 0 1 191.815 -174.035A 1.5 1.5 0 0 0 193.558 -173.595C 194.177927957139 -173.87714573291439 194.82735128987895 -174.1628801633814 195.50680806418353 -174.4508208355872 C 197.28657516164276 -175.20504220038183 199.27192993526927 -175.97425764230374 201.46923005293002 -176.731976697424 A 268 268 0 0 1 203.605 -174.267C 202.54244591457484 -172.19988099829882 201.49851453321088 -170.34420504483708 200.49868278777342 -168.68989030177073 C 200.1169761554857 -168.05832764793004 199.741727512956 -167.4561787575873 199.3743225990279 -166.88283426183557 A 1.5 1.5 0 0 0 199.561 -165.095A 259 259 0 0 1 199.878 -164.711A 1.5 1.5 0 0 0 201.599 -164.189C 202.23139793855339 -164.44084408008698 202.89368148654913 -164.69535406400811 203.58606943561574 -164.95063874205607 C 205.39970795811243 -165.61932110164625 207.41941474258687 -166.29319829965831 209.65027978879996 -166.94550736685656 A 268 268 0 0 1 211.667 -164.382C 210.5066342648292 -162.36747932815913 209.37558868662276 -160.56357748125274 208.2981739465764 -158.95871042562413 C 207.8868486974022 -158.3460254509018 207.4833736864929 -157.76241364033498 207.08910408817988 -157.207200379116 A 1.5 1.5 0 0 0 207.191 -155.412A 259 259 0 0 1 207.489 -155.014A 1.5 1.5 0 0 0 209.183 -154.41C 209.82674875914674 -154.63203102565433 210.50039223714916 -154.85474001605698 211.2041428795777 -155.07679039804304 C 213.04754435253062 -155.6584189718134 215.0970278623798 -156.23543137732028 217.35640421029353 -156.7808527667545 A 268 268 0 0 1 219.248 -154.124C 217.9939573823863 -152.1672630944419 216.77835978935474 -150.4192217719702 215.62580274561887 -148.86743794384017 C 215.1857906635437 -148.27501857676427 214.75500328492578 -147.71126591443368 214.33476214967854 -147.1754416243595 A 1.5 1.5 0 0 0 214.351 -145.378A 259 259 0 0 1 214.63 -144.965A 1.5 1.5 0 0 0 216.293 -144.282C 216.94677450638733 -144.47292668603257 217.63025189525212 -144.66333017542266 218.3437710094873 -144.8516432458127 C 220.21275953565967 -145.3449004579721 222.28737703155028 -145.8237409522886 224.57014646704445 -146.26103910908566 A 268 268 0 0 1 226.334 -143.517C 224.98745407220716 -141.62233906765286 223.69005818387618 -139.9341181454408 222.46496974885636 -138.43893283428642 C 221.997267602769 -137.8681210952656 221.54014372841084 -137.32550466227337 221.0948830375646 -136.81028315770044 A 1.5 1.5 0 0 0 221.026 -135.014A 259 259 0 0 1 221.285 -134.589A 1.5 1.5 0 0 0 222.913 -133.827C 223.57534603191564 -133.98654470006375 224.2671090355275 -134.14421136329761 224.98878027128364 -134.29836053241934 C 226.8791219905334 -134.70212899673393 228.97417379656974 -135.081712852129 231.27516511265668 -135.40989715531379 A 268 268 0 0 1 232.906 -132.585C 231.47128181494332 -130.75659489231828 230.09502665028663 -129.13201873374388 228.80018204331827 -127.69681901519732 C 228.3058493290085 -127.14890797641286 227.82342449151216 -126.62865697350371 227.35415290374257 -126.1352053968525 A 1.5 1.5 0 0 0 227.199 -124.344A 259 259 0 0 1 227.438 -123.907A 1.5 1.5 0 0 0 229.029 -123.069C 229.69744748925243 -123.19664009572313 230.39592904191363 -123.32121276709755 231.12411758172772 -123.44084883750327 C 233.0315302620627 -123.75421388853576 235.14227041206422 -124.03368122548983 237.456271123336 -124.25200823206046 A 268 268 0 0 1 238.951 -121.353C 237.43075265533813 -119.59464497378804 235.97875587495406 -118.03739376636935 234.61708833553797 -116.66543082940214 C 234.09724487559794 -116.14166168558371 233.5906119223845 -115.6449546486096 233.09839248877162 -115.17439082641208 A 1.5 1.5 0 0 0 232.859 -113.392A 259 259 0 0 1 233.076 -112.945A 1.5 1.5 0 0 0 234.625 -112.032C 235.2992103495209 -112.12765547733947 236.00282816585928 -112.21885195968702 236.7358844284785 -112.30370391719825 C 238.6560471666889 -112.52595568231916 240.7776941553301 -112.70467341742787 243.09946230591441 -112.81264854649307 A 268 268 0 0 1 244.454 -109.846C 242.85236647516967 -108.16177471869 241.32791731877734 -106.67537613727674 239.90251146184883 -105.36975791921103 C 239.3583348689146 -104.87131717593135 238.8286414865735 -104.39927930608887 238.31458924244896 -103.95266921675162 A 1.5 1.5 0 0 0 237.99 -102.184A 259 259 0 0 1 238.186 -101.727A 1.5 1.5 0 0 0 239.69 -100.741C 240.3679448181251 -100.80466565523534 241.07510497747924 -100.86227935919158 241.8113683546929 -100.91215498683327 C 243.73993136458716 -101.04278999431092 245.86767897904502 -101.12035327442256 248.19195501732125 -101.11773192758649 A 268 268 0 0 1 249.404 -98.0897C 247.72384157536067 -96.48388325535184 246.13039341061392 -95.0717044708072 244.64447823889793 -93.8353886168381 C 244.0772012479782 -93.36340540269617 243.52564736238784 -92.91710601758396 242.99092680142118 -92.4954613766043 A 1.5 1.5 0 0 0 242.583 -90.7444A 259 259 0 0 1 242.757 -90.278A 1.5 1.5 0 0 0 244.212 -89.2218C 244.8921685812166 -89.25332084321563 245.60126913837888 -89.27722125521059 246.33907175683026 -89.29200756864445 C 248.27166622289957 -89.33072988817023 250.40069443047136 -89.30696300750833 252.72221312364667 -89.19375112296471 A 268 268 0 0 1 253.789 -86.1115C 252.03414249797746 -84.58742476394431 250.37530499747658 -83.25266481542002 248.83224658675783 -82.08845197859792 C 248.24315426269254 -81.64399548737963 247.67098932080228 -81.22444559864998 247.11681175704845 -80.82872156675501 A 1.5 1.5 0 0 0 246.626 -79.0991A 259 259 0 0 1 246.777 -78.6249A 1.5 1.5 0 0 0 248.181 -77.5007C 248.86163281682786 -77.49978855258487 249.5710674309654 -77.4899215304982 250.30873793042136 -77.4695850339685 C 252.240985904612 -77.41630694703427 254.36647177163974 -77.2912637452278 256.6799741331948 -77.06771778430792 A 268 268 0 0 1 257.599 -73.9382C 255.77350502509097 -72.49934854925603 254.05303598931306 -71.2450310973396 252.45632986319188 -70.15555859419037 C 251.8467566895672 -69.73963566280061 251.2552768289981 -69.34778568589303 250.6828976528813 -68.97887870529325 A 1.5 1.5 0 0 0 250.11 -67.2745A 259 259 0 0 1 250.239 -66.7937A 1.5 1.5 0 0 0 251.587 -65.604C 252.26734541175045 -65.57069431431701 252.975506985284 -65.52708221012726 253.71137430480334 -65.47166897233959 C 255.63889862397713 -65.32651117094831 257.75602724134353 -65.10047491106748 260.0562724443284 -64.76710127727277 A 268 268 0 0 1 260.825 -61.5974C 258.9334582978712 -60.24703799184961 257.1552551425436 -59.07600446900078 255.50851835395062 -58.06374030515539 C 254.87984521006425 -57.677293132808735 254.27039032294044 -57.314030733953174 253.68110615739124 -56.9727764976127 A 1.5 1.5 0 0 0 253.028 -55.2976A 259 259 0 0 1 253.134 -54.8112A 1.5 1.5 0 0 0 254.424 -53.5587C 255.10159133156415 -53.493061363663315 255.80687565076082 -53.41580297281365 256.53927281418487 -53.32543852257435 C 258.4577070158016 -53.08872983583384 260.5616824062478 -52.762212562708235 262.8434596554407 -52.319766454543554 A 268 268 0 0 1 263.461 -49.1171C 261.50684400580695 -47.85824851589654 259.6749349330071 -46.77315168968874 257.98189787041497 -45.84038896905688 C 257.3355489031404 -45.48429298289322 256.70949960080276 -45.15044106826063 256.10464536398985 -44.83761262678371 A 1.5 1.5 0 0 0 255.373 -43.1954A 259 259 0 0 1 255.455 -42.7045A 1.5 1.5 0 0 0 256.684 -41.392C 257.35795009767065 -41.29424942383448 258.05875946670403 -41.1835197614291 258.78602735889393 -41.058408803282234 C 260.6910255724532 -40.730685452501525 262.7770815550099 -40.30442683277383 265.03522189104433 -39.75391053297987 A 268 268 0 0 1 265.499 -36.5255C 263.4878326025814 -35.361044714215836 261.6063674755634 -34.36434267796444 259.87086541245714 -33.51319440811652 C 259.2083048100932 -33.188256280077105 258.56707929557007 -32.884571131632235 257.94802517688163 -32.60087714205508 A 1.5 1.5 0 0 0 257.139 -30.9954A 259 259 0 0 1 257.198 -30.5011A 1.5 1.5 0 0 0 258.363 -29.1316C 259.03131033174316 -29.001892727426927 259.7260571919883 -28.857942631765603 260.44654831725404 -28.698368582271318 C 262.3337951090901 -28.280372966246887 264.3972060960102 -27.755338612790034 266.6265941047303 -27.09799921785059 A 268 268 0 0 1 266.937 -23.8511C 264.87193651186976 -22.783736772943975 262.9451774542893 -21.877687377334333 261.17114186103834 -21.110081682859775 C 260.49387053645125 -20.817037502315742 259.83892139177306 -20.54420706459529 259.20706974789675 -20.290290185049923 A 1.5 1.5 0 0 0 258.322 -18.7251A 259 259 0 0 1 258.358 -18.2286A 1.5 1.5 0 0 0 259.456 -16.8052C 260.11788133464194 -16.643837415997226 260.80499186100616 -16.466992980345857 261.5170740752146 -16.273317326050698 C 263.38229422434125 -15.765996339294443 265.4183859260764 -15.143375623787904 267.6139713265955 -14.380702218855188 A 268 268 0 0 1 267.769 -11.1227C 265.6560202931425 -10.154816339857124 263.68833203397634 -9.341472078186573 261.8797816717895 -8.659147832871438 C 261.18933386236296 -8.398661439144695 260.5221447579963 -8.15730376084164 259.8789269361303 -7.933739194728524 A 1.5 1.5 0 0 0 258.921 -6.41245A 259 259 0 0 1 258.932 -5.91475A 1.5 1.5 0 0 0 259.962 -4.44078" stroke="#191919" stroke-width="0.35 px" style="stroke-width:0.35;stroke-miterlimit:4;stroke-dasharray:none;fill:none;fill-rule: evenodd "/>
<title>b'InvoluteGear'</title>
</g>
</svg>