<?xml version="1.0"?>
<!DOCTYPE svg PUBLIC "-//W3C//DTD SVG 1.1//EN" "http://www.w3.org/Graphics/SVG/1.1/DTD/svg11.dtd">
<svg width="509.9486095555669mm" height="509.9893809240718mm" viewBox="0 0 509.9486095555669 509.9893809240718" xmlns="http://www.w3.org/2000/svg" version="1.1">
<g id="InvoluteGear" transform="translate(254.954311,254.994690) scale(1,-1)">
<path id="InvoluteGear_w0000"  d="M 241.95946782701395 -4.428987341167043 C 242.61099462662776 -4.240172913472728 243.28971988253602 -4.033441354250868 243.99489036725774 -3.8071692446277265 C 245.82253771006071 -3.2207100744631223 247.82726244848953 -2.5032414120417084 249.99480244070904 -1.6270105235817507 A 250 250 0 0 1 249.995 1.62701C 247.82726244848953 2.5032414120417084 245.82253771006071 3.2207100744631223 243.99489036725774 3.8071692446277265 C 243.28971988253602 4.033441354250868 242.61099462662776 4.240172913472728 241.95947002252268 4.428986451592568 A 1.5 1.5 0 0 0 240.928 5.90104A 241 241 0 0 1 240.915 6.40857A 1.5 1.5 0 0 0 241.87 7.93138C 242.5110281818465 8.153219624258917 243.17831224321296 8.394337628630918 243.87100928499285 8.656321002961006 C 245.66632761264472 9.335335929396441 247.63180292608686 10.154231130673596 249.75177461656446 11.139994905284867 A 250 250 0 0 1 249.586 14.3898C 247.37616893969923 15.154183283729244 245.33742487422992 15.768353613474128 243.4822166395153 16.260727022353947 C 242.7664124211311 16.450697549171537 242.07801668737787 16.622503324209536 241.41770102852954 16.77780333261687 A 1.5 1.5 0 0 0 240.312 18.1953A 241 241 0 0 1 240.273 18.7015A 1.5 1.5 0 0 0 241.15 20.2711C 241.77837815407452 20.52534134291293 242.4324801529725 20.80021674309215 243.11089658431962 21.097227897418414 C 244.8692021162903 21.867027107710484 246.79030030406793 22.785212443763445 248.85717292871826 23.877937359391055 A 250 250 0 0 1 248.525 27.115C 246.27969925117523 27.765589621510838 244.21225470915158 28.274859318313908 242.33432560898484 28.67186241990361 C 241.60975510841448 28.825035752501726 240.9134848426857 28.96146752170531 240.24610081725424 29.08284884041012 A 1.5 1.5 0 0 0 239.07 30.442A 241 241 0 0 1 239.005 30.9456A 1.5 1.5 0 0 0 239.8 32.5579C 240.41495594358142 32.84391478955514 241.0541694025802 33.151830467007365 241.7165353124857 33.48309453314044 C 243.43324083040284 34.341669709044 245.3049499666921 35.35674973916798 247.31333129082978 36.55358500127271 A 250 250 0 0 1 246.817 39.7695C 244.54071394714168 40.30455870620217 242.4499626553162 40.7075991435721 240.55421199230062 41.00819620210884 C 239.82276553124976 41.12417272875182 239.12043722316966 41.224874557212715 238.44772595987655 41.31202051621362 A 1.5 1.5 0 0 0 237.203 42.6093A 241 241 0 0 1 237.113 43.1089A 1.5 1.5 0 0 0 237.825 44.7597C 238.4243185632409 45.076802212579025 239.04697584741032 45.416954850459106 239.69156319884323 45.78160759827369 C 241.36219001402137 46.72671881518557 243.17962702339454 47.83604531148226 245.12427740945878 49.13386851351809 A 250 250 0 0 1 244.464 52.3202C 242.16374984170213 52.73837779914147 240.05514633147644 53.03413749059569 238.14651990263795 53.237544282675465 C 237.41010574140805 53.316021433847325 236.7035516853416 53.38073060199304 236.02726821106364 53.433413847433215 A 1.5 1.5 0 0 0 234.718 54.6655A 241 241 0 0 1 234.603 55.1598A 1.5 1.5 0 0 0 235.229 56.8448C 235.8116593586904 57.19208940543013 236.41613602627015 57.56359158434396 237.0412631644285 57.96068167645647 C 238.66145280225643 58.98986324712311 240.41987619906826 60.19054210342487 242.295722276239 61.585967372841125 A 250 250 0 0 1 241.474 64.7344C 239.15500816280957 65.03460848598957 237.03405353998474 65.22231582826245 235.11753073375215 65.32800168878939 C 234.37807009280723 65.36877472656313 233.6691336076135 65.39732241556236 232.99104226871802 65.41540550286976 A 1.5 1.5 0 0 0 231.621 66.579A 241 241 0 0 1 231.48 67.0668A 1.5 1.5 0 0 0 232.02 68.7816C 232.58379445948515 69.15816896712717 233.16851349986771 69.5600514803075 233.77254953942412 69.98854295400675 C 235.33807511012756 71.09910986122064 237.0328973685098 72.38800864348302 238.8350452685529 73.87739547507933 A 250 250 0 0 1 237.853 76.9798C 235.5223383739708 77.16117130484913 233.39456596699043 77.24033659091687 231.47514677253957 77.2480257975479 C 230.7345688202614 77.25098834972334 230.02509944028492 77.24330008191505 229.34696929965173 77.22673583437955 A 1.5 1.5 0 0 0 227.919 78.3189A 241 241 0 0 1 227.754 78.7989A 1.5 1.5 0 0 0 228.205 80.5389C 228.74914499659457 80.94382276236217 229.3125809445659 81.37503714421844 229.8939500244611 81.83381211417407 C 231.40072725057536 83.02286701567711 233.02752677276803 84.39662313414168 234.7512748975788 85.97608588773028 A 250 250 0 0 1 233.612 89.0243C 231.27521769589217 89.08642943791806 229.1461786200203 89.05684613458821 227.22887058287318 88.96651862706119 C 226.48910740258114 88.93166296467801 225.78095605242822 88.88775879787505 225.10455627416638 88.83659042972721 A 1.5 1.5 0 0 0 223.623 89.8544A 241 241 0 0 1 223.433 90.3253A 1.5 1.5 0 0 0 223.795 92.0861C 224.31771513263297 92.51830336605121 224.85839804813705 92.97772462749656 225.41558344282143 93.46558620219416 C 226.85968131460504 94.73002698951278 228.4142139664003 96.18505647131983 230.05506525393596 97.85047450891723 A 250 250 0 0 1 228.762 100.837C 226.42472638149317 100.7792712483348 224.29997505658832 100.641016535068 222.3897802144986 100.4529079675366 C 221.65276176386507 100.38032502503818 220.94777592955265 100.30031950019881 220.2748711634533 100.2146805038688 A 1.5 1.5 0 0 0 218.743 101.156A 241 241 0 0 1 218.53 101.616A 1.5 1.5 0 0 0 218.801 103.393C 219.30106596214154 103.85141427985563 219.81758526518618 104.33784384327494 220.34913334158352 104.85351924756941 C 221.72678437257392 106.19004713906139 223.20499455577732 107.72255397842589 224.7586682123786 109.4695824145269 A 250 250 0 0 1 223.315 112.386C 220.9835188087913 112.20919144688658 218.8685984684594 111.96262601444406 216.97050030166696 111.67722714068302 C 216.238149377678 111.5671062786789 215.53816828675355 111.45120812108256 214.87051406452028 111.33132191893367 A 1.5 1.5 0 0 0 213.293 112.193A 241 241 0 0 1 213.056 112.642A 1.5 1.5 0 0 0 213.236 114.43C 213.71228535001285 114.91358871139842 214.2032935007118 115.42575753760052 214.70781751058215 115.96790143324107 C 216.01542756653754 117.37302958024023 217.41345879956089 118.97901564179756 218.87590146805377 120.80309667868536 A 250 250 0 0 1 217.285 123.642C 214.96579046707524 123.3463706768261 212.86621869700576 122.99213778626861 210.98516912690584 122.61019317935317 C 210.25939634950348 122.46282169059891 209.56624617271046 122.31133326530569 208.9055843279773 122.15751262675091 A 1.5 1.5 0 0 0 207.286 122.937A 241 241 0 0 1 207.026 123.374A 1.5 1.5 0 0 0 207.115 125.169C 207.56595378674558 125.67596671064976 208.0301698008962 126.21253860964572 208.5063534987036 126.77973660510979 C 209.7405111742889 128.249799188716 211.05471615327028 129.92507463820056 212.42211248771213 131.82144945672067 A 250 250 0 0 1 210.688 134.575C 208.38724092249342 134.16175330916843 206.30849526570867 133.70077711366167 204.4494017358543 133.22328322346144 C 203.73210056334716 133.03904558334455 203.04758965035398 132.85236210635932 202.39564377444052 132.66500833188164 A 1.5 1.5 0 0 0 200.738 133.361A 241 241 0 0 1 200.457 133.784A 1.5 1.5 0 0 0 200.454 135.581C 200.87810634960965 136.11047046224132 201.3143191406345 136.67004557921166 201.76092021748124 137.26081791969085 C 202.91840573623506 138.7919797144729 204.14535585043825 140.53217394951741 205.4141384699197 142.49589512429353 A 250 250 0 0 1 203.542 145.157C 201.26503285967902 144.6271232455095 199.2125365262496 144.060606379314 197.38024919939173 143.488808932869 C 196.67329098863854 143.2681857963566 195.99920515026082 143.04679430355554 195.3576760955191 142.8263961777608 A 1.5 1.5 0 0 0 193.667 143.437A 241 241 0 0 1 193.364 143.845A 1.5 1.5 0 0 0 193.269 145.64C 193.6661908689604 146.18987753728084 194.07326240749376 146.77099600463674 194.48911573216265 147.38380143254824 C 195.56690934652647 148.97206781220927 196.70340362319473 150.77264086474716 197.87026241872917 152.7985852714489 A 250 250 0 0 1 195.865 155.361C 193.61774730626524 154.71517753060525 191.59685502477413 154.0445979715409 189.79615412934083 153.37998872310192 C 189.101383253594 153.12355567076668 188.439481102818 152.86803374727646 187.8100425453031 152.6151662637101 A 1.5 1.5 0 0 0 186.09 153.139A 241 241 0 0 1 185.767 153.53A 1.5 1.5 0 0 0 185.581 155.318C 185.9490224088414 155.88789191356062 186.32589069171812 156.489037659572 186.7099113503665 157.1222774355236 C 187.70520121986127 158.76350479442488 188.74827467518998 160.6197591749487 189.81016544541004 162.70264135593823 A 250 250 0 0 1 187.676 165.159C 185.46533515710559 164.3995975826643 183.48131920477286 163.62670479623495 181.716902563799 162.87101763544715 C 181.03613160094554 162.57944367184356 180.38813996490765 162.29045794518737 179.7724340379478 162.0057808062421 A 1.5 1.5 0 0 0 178.028 162.441A 241 241 0 0 1 177.686 162.815A 1.5 1.5 0 0 0 177.408 164.591C 177.74673418063074 165.17921257887735 178.09241600153098 165.7988172829308 178.4436021281074 166.4508393566493 C 179.35379165510426 168.14074592000426 180.30072302954497 170.04783887277955 181.2548754226762 172.1822248262669 A 250 250 0 0 1 178.998 174.527C 176.82906512466738 173.6551178555231 174.88710157258078 172.78192823076083 173.16357234762438 171.93713465914348 C 172.49857735137692 171.61118046745108 171.8661867662689 171.28948486839386 171.2658197763271 170.9737407642211 A 1.5 1.5 0 0 0 169.502 171.319A 241 241 0 0 1 169.14 171.676A 1.5 1.5 0 0 0 168.773 173.435C 169.0807250177912 174.03959953848386 169.39431853231363 174.67604672265196 169.71175392231171 175.345150042994 C 170.53446852625876 177.0793270375298 171.38278738397477 179.03228317479164 172.22671212536713 181.2126045315251 A 250 250 0 0 1 169.853 183.439C 167.73146825138926 182.45759175357068 165.83662346072578 181.48638334250708 164.15847814274477 180.55468733003127 C 163.51099400912048 180.1952032875193 162.89585430977345 179.84163708314827 162.31239254577756 179.4956497540647 A 1.5 1.5 0 0 0 160.533 179.75A 241 241 0 0 1 160.154 180.088A 1.5 1.5 0 0 0 159.697 181.827C 159.97360354875698 182.44593705446792 160.2542906272279 183.09756630071573 160.53714712795943 183.78200525351568 C 161.27024044039126 185.5559284094592 162.01773361434246 187.54965269163105 162.74922900070368 189.77022124213664 A 250 250 0 0 1 160.265 191.872C 158.19627912876396 190.78405462746005 156.35349653323198 189.71736120194848 154.7251132117529 188.7011934371312 C 154.09682915292765 188.30911739662113 153.50054516858157 187.9246030007939 152.93551081565505 187.5492750882367 A 1.5 1.5 0 0 0 151.145 187.713A 241 241 0 0 1 150.75 188.031A 1.5 1.5 0 0 0 150.204 189.744C 150.44912921360378 190.376293952073 150.6961775754838 191.04140523409913 150.9437172466345 191.73939419627732 C 151.58527671080248 193.54843555065852 152.22999407664565 195.57772657872854 152.84715172003376 197.83274911319907 A 250 250 0 0 1 150.259 199.805C 148.24837397649924 198.61278368625594 146.46246118548441 197.45338812765013 144.88808812666673 196.3553996761653 C 144.2806432640135 195.93175451928025 143.7047706315007 195.51729508615222 143.1596377997556 195.11360577779098 A 1.5 1.5 0 0 0 141.363 195.185A 241 241 0 0 1 140.952 195.483A 1.5 1.5 0 0 0 140.32 197.166C 140.53215027838212 197.80998083562915 140.7449154027028 198.48683895404014 140.9564924415343 199.19655695208957 C 141.5048443020486 201.03599692256847 142.04510386578914 203.09556050794575 142.54631367237863 205.37915393006378 A 250 250 0 0 1 139.861 207.217C 137.91370574330085 205.92335466971613 136.1893219993622 204.67428170865048 134.6730665627569 203.49733709700138 C 134.0880456505652 203.04322806558451 133.53408675583165 202.59990487249442 133.01027763458356 202.16890734764198 A 1.5 1.5 0 0 0 131.213 202.149A 241 241 0 0 1 130.787 202.425A 1.5 1.5 0 0 0 130.07 204.073C 130.24853900882871 204.72760406482408 130.42646581567377 205.41444317407164 130.60152824184934 206.13403863476987 C 131.05524191131596 207.99907833248787 131.48963419743802 210.083541308936 131.87358856807086 212.3897479842004 A 250 250 0 0 1 129.098 214.088C 127.21923639859277 212.69669513285447 125.56088042203069 211.3612034580672 124.10669834494816 210.10837320036393 C 123.54562763598112 209.62498501302875 123.01502769453302 209.15395463956932 122.51390884197157 208.6967733215574 A 1.5 1.5 0 0 0 120.72 208.585A 241 241 0 0 1 120.28 208.839A 1.5 1.5 0 0 0 119.48 210.449C 119.62512417257875 211.11111635049647 119.7677484712246 211.80614456576677 119.9058395668627 212.53374014671917 C 120.26373135812227 214.4195138960523 120.59112308674963 216.52343813766643 120.85682032831215 218.8462414361806 A 250 250 0 0 1 117.998 220.401C 116.19286659181714 218.91513420377234 114.60486484402597 217.49670796055858 113.21654992146905 216.17126054789722 C 112.6808931851442 215.65985430923195 112.17503647164568 215.1623456198661 111.6979152496402 214.68017324255314 A 1.5 1.5 0 0 0 109.912 214.477A 241 241 0 0 1 109.46 214.708A 1.5 1.5 0 0 0 108.578 216.275C 108.68962104597506 216.94386383795253 108.79657074591115 217.64526790998917 108.89733024711026 218.37896539740078 C 109.15846646134294 220.28055342995177 109.3780035048367 222.39845003860842 109.52475044356257 224.7317900317806 A 250 250 0 0 1 106.59 226.138C 104.86336286282608 224.56244868494542 103.34985825905024 223.06478838541997 102.03103244613621 221.67018175876265 C 101.52218714971814 221.13209166925236 101.0423933865768 220.60940260734586 100.59051454991857 220.10349710341058 A 1.5 1.5 0 0 0 98.8171 219.809A 241 241 0 0 1 98.3539 220.017A 1.5 1.5 0 0 0 97.3935 221.537C 97.4705591080759 222.21062955497163 97.54155518974646 222.91657960063597 97.60472022647252 223.65446486153454 C 97.7684195891115 225.56690615124685 97.87952920039156 227.6932497765122 97.906942990273 230.03103904671738 A 250 250 0 0 1 94.9046 231.286C 93.26028259326314 229.623905377694 91.82522369420424 228.05091824657782 90.57932765689748 226.59079077537942 C 90.09862131966538 226.0274206506294 89.64614223402715 225.48091485226487 89.22068468300614 224.95259607140355 A 1.5 1.5 0 0 0 87.4646 224.568A 241 241 0 0 1 86.9914 224.752A 1.5 1.5 0 0 0 85.9547 226.221C 85.99720761050214 226.89767311114923 86.03206485323632 227.6063273873764 86.05747063512061 228.34647536336686 C 86.1233060732197 230.26478056927525 86.12569837999658 232.3940238234136 86.03370750158584 234.73016334537104 A 250 250 0 0 1 82.9712 235.83C 81.41389689472987 234.08629951941606 80.06102760520274 232.44208930053296 78.8913117440101 230.92025029065073 C 78.4399984739115 230.33306989899168 78.01601453204744 229.76417313539793 77.6180882368362 229.21481940098715 A 1.5 1.5 0 0 0 75.8839 228.741A 241 241 0 0 1 75.4019 228.901A 1.5 1.5 0 0 0 74.2916 230.314C 74.29949921730127 230.99276654500676 74.2981266825327 231.70227625370308 74.28570692879107 232.44275598322508 C 74.25350668520926 234.36192046607647 74.14717544622773 236.48850839655148 73.93601989322319 238.81690344898513 A 250 250 0 0 1 70.8214 239.759C 69.35511163491155 237.93798923330513 68.08796143642402 236.22684548338276 66.99747740647102 234.64726523903227 C 66.57673462829736 234.0378064670627 66.18235195590194 233.44800292494017 65.81299506077006 232.87904743814866 A 1.5 1.5 0 0 0 64.1053 232.318A 241 241 0 0 1 63.6157 232.452A 1.5 1.5 0 0 0 62.4347 233.807C 62.40795191404489 234.48522622534668 62.37035318256008 235.19374033669294 62.32014029491198 235.93261999267895 C 62.189988376408195 237.8476368714648 61.97521099773002 239.9660214531764 61.64544165086008 242.2805975192471 A 250 250 0 0 1 58.4867 243.062C 57.11538680769763 241.1689259006777 55.93726155043632 239.39531279838386 54.928854300047306 237.76211226406855 C 54.53977968366705 237.13196512013747 54.17602718010255 236.52279352958467 53.836203295016844 235.93572063031502 A 1.5 1.5 0 0 0 52.1594 235.288A 241 241 0 0 1 51.6636 235.397A 1.5 1.5 0 0 0 50.4149 236.69C 50.35358938988855 237.3659407236267 50.27986255248497 238.07161080520342 50.19198753062104 238.80696273499512 C 49.96422348869012 240.71283594933237 49.64156029997332 242.81749055878078 49.194037489811386 245.1122091738068 A 250 250 0 0 1 45.9995 245.732C 44.726654457649275 243.77068037667186 43.640627735893844 241.9392250760821 42.716928084446685 240.25666508551967 C 42.36053668111005 239.60747355157633 42.02836333512558 238.9805231717188 41.71895902180165 238.37686446613412 A 1.5 1.5 0 0 0 40.0774 237.644A 241 241 0 0 1 39.5767 237.728A 1.5 1.5 0 0 0 38.2636 238.956C 38.16786010030933 239.62739458463628 38.05819750188776 240.32837962377295 37.93288960170662 241.05828537814688 C 37.6081076467282 242.950042722429 37.17840043939095 245.03547655604436 36.614291701851286 247.3043510611666 A 250 250 0 0 1 33.3923 247.76C 32.2212353729415 245.73646498092418 31.230140506408144 243.85194553980492 30.393558280826866 242.1244156998987 C 30.070779875012935 241.45787344253148 29.771052288941128 240.814779915326 29.492874747905137 240.19611028006435 A 1.5 1.5 0 0 0 27.8909 239.381A 241 241 0 0 1 27.3865 239.439A 1.5 1.5 0 0 0 26.0125 240.598C 25.882555221675833 241.2636879334614 25.73724295943444 241.95815914022833 25.574829094940192 242.68071447841083 C 25.153876545951725 244.5534205737245 24.618246377034648 246.61419297274657 23.939023407404424 248.85130413343774 A 250 250 0 0 1 20.698 249.142C 19.631754764116682 247.06115120585238 18.738177406150513 245.12848412025397 17.99089515394199 243.36049135910952 C 17.70257183765719 242.67833731096314 17.43607196654766 242.02077839399473 17.189846931242283 241.3887118674958 A 1.5 1.5 0 0 0 15.6316 240.493A 241 241 0 0 1 15.1249 240.525A 1.5 1.5 0 0 0 13.6934 241.612C 13.529725711699335 242.27055186758446 13.349142888738783 242.95669744589682 13.150046779159727 243.67001730351086 C 12.634021853297797 245.51878647347613 11.993866120754184 247.54952111801163 11.201300934208529 249.7490325666834 A 250 250 0 0 1 7.94967 249.874C 6.991057148635875 247.74128309634625 6.19732854053653 245.76551047402606 5.541295835773237 243.96166728289057 C 5.28817981162944 243.26568110598933 5.055602923217378 242.59537229539336 4.841972766646131 241.95155786705632 A 1.5 1.5 0 0 0 3.33148 240.977A 241 241 0 0 1 2.82383 240.983A 1.5 1.5 0 0 0 1.33872 241.996C 1.141598692144202 242.64535959396346 0.9262164284309229 243.32138946835053 0.6909574927844626 244.0236128753333 C 0.0812064401617194 245.84362189227537 -0.6618047627942238 247.8390208275029 -1.565644454177483 249.99519428992247 A 250 250 0 0 1 -4.8194 249.954C -5.667879336717647 247.77508626595994 -6.359688447638343 245.76136267209895 -6.922760090534483 243.926375071898 C -7.140008471730681 243.2183725147108 -7.338055610898683 242.53706256963926 -7.518533552049266 241.88317987779794 A 1.5 1.5 0 0 0 -8.9773 240.833A 241 241 0 0 1 -9.48461 240.813A 1.5 1.5 0 0 0 -11.0195 241.749C -11.2495066280527 242.3871332820353 -11.499126424784693 243.0512837677428 -11.76993442279696 243.7405787034043 C -12.471820831304662 245.52707937160375 -13.315749073280296 247.48193682953288 -14.328505254945364 249.58914709532542 A 250 250 0 0 1 -17.5759 249.382C -18.31202897203135 247.16247252608346 -18.900113734792704 245.1160515356142 -19.36875532619603 243.2547067994807 C -19.549569288223175 242.5365349598406 -19.712569995773745 241.84600134014923 -19.859424875161896 241.18375629008733 A 1.5 1.5 0 0 0 -21.2626 240.06A 241 241 0 0 1 -21.7683 240.015A 1.5 1.5 0 0 0 -23.349 240.871C -23.611263269908356 241.4965466147639 -23.894469370110595 242.1470850190063 -24.200119923342292 242.821653191562 C -24.99231054623546 244.56998473475545 -25.9349541148059 246.47920071548106 -27.053984621509755 248.5319503136611 A 250 250 0 0 1 -30.2865 248.159C -30.90840461459629 245.9050401160169 -31.39123078319887 243.8312606076463 -31.764219690706184 241.94841477147133 C -31.908127510582407 241.2219472777082 -32.03565653628071 240.52399150676675 -32.14850522629378 239.85511182020576 A 1.5 1.5 0 0 0 -33.4925 238.661A 241 241 0 0 1 -33.9952 238.59A 1.5 1.5 0 0 0 -35.6175 239.365C -35.91142082179055 239.97592303107828 -36.22747437308364 240.61115217343644 -36.567170074140094 241.26923371154533 C -37.44759817653472 242.97483493235828 -38.48649782225915 244.833428509378 -39.70888323117898 246.82636205062371 A 250 250 0 0 1 -42.9182 246.289C -43.42414375859583 244.00606953334636 -43.80045169469411 241.91034176103082 -44.07681483283302 240.0109069546205 C -44.18344107148744 239.2780390774787 -44.275165706666506 238.574482042202 -44.35371379795711 237.9007127498725 A 1.5 1.5 0 0 0 -45.635 236.64A 241 241 0 0 1 -46.1334 236.543A 1.5 1.5 0 0 0 -47.7932 237.234C -48.11788957705936 237.82922966428595 -48.46596603181449 238.44749230445692 -48.838820653397576 239.08737034852476 C -49.80518929890042 240.74579152811515 -50.937634651223114 242.54891384299785 -52.26018589839713 244.47683199125018 A 250 250 0 0 1 -55.4378 243.776C -55.82659426963101 241.47051497550066 -56.09540222878595 239.35830645371112 -56.27441859768378 237.44723808560087 C -56.34348507943416 236.70988179369405 -56.399166024993775 236.00255899405613 -56.44320859456027 235.32565788311186 A 1.5 1.5 0 0 0 -57.6585 234.001A 241 241 0 0 1 -58.1513 233.879A 1.5 1.5 0 0 0 -59.8441 234.484C -60.1988242524482 235.06206699227462 -60.57801551893775 235.66175015362242 -60.983056325911726 236.28175533489258 C -62.03284436906516 237.88866984175877 -63.25588100736278 239.63161675426267 -64.67514770759396 241.4894897911996 A 250 250 0 0 1 -67.8128 240.627C -68.08339957041133 238.30499141481528 -68.24400626334959 236.18181265441643 -68.32520882973968 234.2640964837758 C -68.35653536802104 233.52417545547937 -68.37602735873182 232.81493221590344 -68.3854495045389 232.1366652440553 A 1.5 1.5 0 0 0 -69.5315 230.752A 241 241 0 0 1 -70.0174 230.605A 1.5 1.5 0 0 0 -71.7389 231.122C -72.12270706877139 231.6816542265053 -72.53202388027654 232.26119340413288 -72.96819416742295 232.85970819987864 C -74.09866283108559 234.41092377754725 -75.40909999241323 236.08914813818464 -76.92137944093038 237.8721290851818 A 250 250 0 0 1 -80.011 236.851C -80.16258305537009 234.51775734082563 -80.21456947756761 232.38914747278207 -80.19774639322586 230.46978660213836 C -80.19125126067664 229.72923120693207 -80.17450344416035 229.01991786204988 -80.14928058490543 228.342054550384 A 1.5 1.5 0 0 0 -81.2231 226.9A 241 241 0 0 1 -81.7009 226.729A 1.5 1.5 0 0 0 -83.4466 227.158C -83.85842997721183 227.6968104779134 -84.29680447290656 228.25469372027726 -84.76296632174747 228.83015667373402 C -85.97116634225097 230.32162637787835 -87.36558524567846 231.93074989090937 -88.96693207807012 233.63418715425414 A 250 250 0 0 1 -92.0003 232.456C -92.03263151397772 230.11869321481007 -91.97586203879473 227.99020553922614 -91.86105719322732 226.07420736194118 C -91.81675733490675 225.3349496242957 -91.76381340430449 224.6274166916357 -91.70401134354742 223.95172550813484 A 1.5 1.5 0 0 0 -92.7028 222.457A 241 241 0 0 1 -93.1713 222.261A 1.5 1.5 0 0 0 -94.9366 222.601C -95.37537581666805 223.11793174885582 -95.841664327546 223.6527036022749 -96.33660157504347 224.20361339630256 C -97.61938089648473 225.63144615275814 -99.09414366230561 227.1672707986646 -100.78038014752539 228.78672030503267 A 250 250 0 0 1 -103.75 227.456C -103.66257734510947 225.11927569279507 -103.49720007762485 222.9964631909889 -103.28471298356565 221.08882632754154 C -103.20272397274599 220.35279488648703 -103.11372205272761 219.64888823868557 -103.01949680721684 218.97713198449804 A 1.5 1.5 0 0 0 -103.941 217.434A 241 241 0 0 1 -104.399 217.214A 1.5 1.5 0 0 0 -106.179 217.463C -106.64349819043211 217.95696381112728 -107.13648422300851 218.4672291168954 -107.65890563439496 218.99214849074338 C -109.01291763199013 220.35261924687643 -110.56417677253452 221.8111382345152 -112.33090371212437 223.34237502505079 A 250 250 0 0 1 -115.228 221.861C -115.02207934798125 219.53254768426976 -114.74852573860336 217.42094853167907 -114.43891075061933 215.52664978883502 C -114.3194464872684 214.79576486636228 -114.19461877368114 214.09732091549247 -114.06621616632368 213.43125212598542 A 1.5 1.5 0 0 0 -114.907 211.843A 241 241 0 0 1 -115.353 211.6A 1.5 1.5 0 0 0 -117.144 211.758C -117.63339985380776 212.227371040806 -118.15179726381199 212.7117985750017 -118.70033990127439 213.20935807395813 C -120.12205211232076 214.49891751690234 -121.74576056961136 215.8763257367661 -123.58836877470804 217.31535498951695 A 250 250 0 0 1 -126.406 215.688C -126.08150187887806 213.3730843247244 -125.70048559773984 211.27820744243922 -125.29455046598324 209.40218882933038 C -125.13792261872392 208.67835722075085 -124.97759477281988 207.98719812733324 -124.81534979135755 207.32855449992775 A 1.5 1.5 0 0 0 -125.574 205.699A 241 241 0 0 1 -126.007 205.434A 1.5 1.5 0 0 0 -127.804 205.5C -128.31640940816527 205.94410129123355 -128.85886575594446 206.40142723773135 -129.4320985343734 206.87032878587405 C -130.91780187404126 208.08561260228265 -132.60972357810553 209.37831655359614 -134.52340589428812 210.72138400554795 A 250 250 0 0 1 -137.255 208.953C -136.81199216716462 206.65695495078594 -136.32450724223966 204.5842656334023 -135.82331100512025 202.73142146838944 C -135.62992819812246 202.01653156772386 -135.43451849694566 201.33446048691775 -135.23885442001017 200.68496034763479 A 1.5 1.5 0 0 0 -135.914 199.019A 241 241 0 0 1 -136.333 198.732A 1.5 1.5 0 0 0 -138.13 198.706C -138.66465610134685 199.12354689577265 -139.22975618022647 199.5525781433949 -139.82618360075392 199.99159843012313 C -141.37200203866539 201.1294360832784 -143.1277229589584 202.33406324903163 -145.1074868075653 203.5776649905516 A 250 250 0 0 1 -147.745 201.672C -147.18555558886956 199.40168117715373 -146.5928738126668 197.35658683444422 -145.9977240339413 195.53175097639894 C -145.76809078086845 194.82766784977315 -145.5381090260176 194.1564642271505 -145.3095363188451 193.51780204769454 A 1.5 1.5 0 0 0 -145.898 191.819A 241 241 0 0 1 -146.302 191.512A 1.5 1.5 0 0 0 -148.096 191.394C -148.65114253927683 191.7835019020806 -149.23741206767335 192.18311915728833 -149.8554781192583 192.59111282880076 C -151.457378791608 193.64853583018214 -153.2723184527143 194.7619434756421 -155.31299885591082 195.90283509177917 A 250 250 0 0 1 -157.85 193.865C -157.17512870146314 191.62619118470724 -156.47879631306512 189.61402723430626 -155.79124567055305 187.82196047162523 C -155.5259610583431 187.1305209915255 -155.26200724595773 186.4719359207007 -155.00112222864314 185.8457778977765 A 1.5 1.5 0 0 0 -155.502 184.119A 241 241 0 0 1 -155.89 183.791A 1.5 1.5 0 0 0 -157.675 183.582C -158.24981511908044 183.94311564947085 -158.8557245867336 184.31227635647298 -159.49381680561726 184.68817900386466 C -161.14762053645364 185.6624286575965 -163.01704396802435 186.68171202934334 -165.11331702364035 187.71691706413628 A 250 250 0 0 1 -167.543 185.552C -166.75464984928877 183.35077033904318 -165.95648350039073 181.37678628695156 -165.17832573521486 179.62216391720318 C -164.8780818611314 178.94517197028557 -164.58084461657012 178.30092362451225 -164.28832790833613 177.68890333290784 A 1.5 1.5 0 0 0 -164.701 175.939A 241 241 0 0 1 -165.071 175.592A 1.5 1.5 0 0 0 -166.844 175.292C -167.43563199995853 175.6228428104733 -168.05960065824905 175.9605838711354 -168.71605433468875 176.30341480731934 C -170.4174465389068 177.19194940729335 -172.3364766286569 178.11444931139042 -174.4828733996395 179.04126703310155 A 250 250 0 0 1 -176.798 176.755C -175.89912715544676 174.59700826827313 -175.00120917091954 172.66635401349635 -174.1344744078404 170.9537536461032 C -173.80005457386943 170.2929754270593 -173.47030935516526 169.66474457671228 -173.14692409870457 169.0684587074889 A 1.5 1.5 0 0 0 -173.47 167.3A 241 241 0 0 1 -173.822 166.934A 1.5 1.5 0 0 0 -175.576 166.544C -176.18462843449132 166.84439002692895 -176.82502842043348 167.14983031338653 -177.4981309417403 167.4586951315941 C -179.24267288134155 168.25919659249047 -181.20630309887872 169.08250633201757 -183.3972238811247 169.89851877903354 A 250 250 0 0 1 -185.593 167.497C -184.58470372274763 165.38774253814867 -183.58937666808993 163.50545493719824 -182.63632611914196 161.83934455097685 C -182.26860278844683 161.19650395473354 -181.90720986322552 160.58592958237088 -181.5537997337486 160.00693377727836 A 1.5 1.5 0 0 0 -181.786 158.224A 241 241 0 0 1 -182.119 157.841A 1.5 1.5 0 0 0 -183.851 157.362C -184.473979289928 157.63065927983988 -185.12913987307837 157.90300193326027 -185.81713519162798 158.1770948404465 C -187.60027555588115 158.88747474535373 -189.60338301417215 159.60944639920473 -191.83311194551655 160.31252468822234 A 250 250 0 0 1 -193.903 157.802C -192.78871987363294 155.74699907145998 -191.6985804434855 153.9179887977701 -190.66170050873302 152.30271508448413 C -190.26163302949743 151.67948920875847 -189.86953523063764 151.0881642332033 -189.48702223482047 150.52796902618826 A 1.5 1.5 0 0 0 -189.628 148.736A 241 241 0 0 1 -189.941 148.336A 1.5 1.5 0 0 0 -191.646 147.769C -192.28205859635213 148.00568814071556 -192.95027053755456 148.24422265021167 -193.65136375211512 148.4828285692772 C -195.46845053140606 149.10123361813353 -197.5058093518039 149.7199836446971 -199.7685293240519 150.30829352473668 A 250 250 0 0 1 -201.708 147.695C -200.48977226668714 145.69992946714626 -199.30766451035277 143.92896819968743 -198.1896602911562 142.36874522402545 C -197.7582923937544 141.76675999396815 -197.33651265964417 141.1962271145651 -196.92589473021812 140.65629399096045 A 1.5 1.5 0 0 0 -196.975 138.859A 241 241 0 0 1 -197.267 138.444A 1.5 1.5 0 0 0 -198.942 137.791C -199.58849596636773 137.99458706029364 -200.26801597696294 138.19869111656567 -200.98037801538746 138.4011875519113 C -202.82667063778115 138.9260043965528 -204.8929655837459 139.43991854765756 -207.1827734188438 139.91192518541445 A 250 250 0 0 1 -208.986 137.203C -207.66776973551097 135.27274538264635 -206.39677763715468 133.56445335715972 -205.20056587886992 132.0633515627213 C -204.73902295289327 131.48417748906394 -204.28866165870076 130.9359251609528 -203.85101005095996 130.41766274462924 A 1.5 1.5 0 0 0 -203.808 128.621A 241 241 0 0 1 -204.079 128.191A 1.5 1.5 0 0 0 -205.718 127.453C -206.3742297391141 127.62347385824093 -207.06328502898106 127.79261497711038 -207.78505742004762 127.95847363865703 C -209.65573911889913 128.38833309185878 -211.74557946284318 128.79607062416244 -214.0565013135959 129.15054260821168 A 250 250 0 0 1 -215.719 126.353C -214.30398570428093 124.4926501506769 -212.94742513716744 122.85148410600682 -211.67612661969025 121.41341969598021 C -211.18561277793435 120.8585677777517 -210.7078448648546 120.33402632865788 -210.24430136187326 119.83878670708526 A 1.5 1.5 0 0 0 -210.11 118.046A 241 241 0 0 1 -210.358 117.603A 1.5 1.5 0 0 0 -211.957 116.783C -212.62155670996287 116.91940558474366 -213.31834961252557 117.05314249634367 -214.04764933447677 117.18193067778084 C -215.93783971482534 117.51571128531016 -218.04577330190608 117.81620845814577 -220.37178023706252 118.05222101155405 A 250 250 0 0 1 -221.89 115.174C -220.38110704324748 113.3877678088433 -218.9425171190064 111.81800935981452 -217.59944851501393 110.44673408004947 C -217.08124345208583 109.91765186255236 -216.57731536205324 109.41818976122522 -216.08908929590393 108.9472649580305 A 1.5 1.5 0 0 0 -215.863 107.164A 241 241 0 0 1 -216.088 106.709A 1.5 1.5 0 0 0 -217.644 105.808C -218.31417831615727 105.91030793175345 -219.01689097829163 106.00829173175153 -219.75181537142322 106.09967343941871 C -221.65658314238556 106.33650440578108 -223.77711061455489 106.52897725633501 -226.11213434760114 106.64591464929805 A 250 250 0 0 1 -227.481 103.694C -225.88327923671363 101.98706972723711 -224.36641307220128 100.49281419441056 -222.95507829433188 99.19190554554187 C -222.41053394807292 98.68997334387181 -221.8817603719366 98.2168936299059 -221.37012546868104 97.77151223413115 A 1.5 1.5 0 0 0 -221.053 96.002A 241 241 0 0 1 -221.255 95.5361A 1.5 1.5 0 0 0 -222.762 94.5565C -223.43724315790143 94.62490237804516 -224.14404228250663 94.68687743789472 -224.88267401298944 94.74061426735044 C -226.79704985293452 94.87987772759563 -228.92463899613614 94.96382411617704 -231.2625877167621 94.96138127238832 A 250 250 0 0 1 -232.479 91.9433C -230.79614774565613 90.32029902543913 -229.20496267150227 88.90544475088812 -227.72904373104737 87.67829665504497 C -227.15958075548167 87.20482395300625 -226.60734120312725 86.75936083735982 -226.07363225981032 86.34068479821364 A 1.5 1.5 0 0 0 -225.667 84.5897A 241 241 0 0 1 -225.845 84.1141A 1.5 1.5 0 0 0 -227.3 83.0588C -227.97738574396692 83.09263125815826 -228.6864273728281 83.11843589200441 -229.42683943481313 83.13438764999617 C -231.34582895575505 83.1757202816573 -233.47492913283918 83.15092120172325 -235.80970339977608 83.0291044942833 A 250 250 0 0 1 -236.87 79.9528C -235.10689545707885 78.41789297611653 -233.44554269346293 77.08613115309748 -231.90889009442003 75.93594509954806 C -231.31599415343047 75.49216713335994 -230.74172935479618 75.07548277843938 -230.1873387571129 74.68460437390412 A 1.5 1.5 0 0 0 -229.692 72.9566A 241 241 0 0 1 -229.845 72.4726A 1.5 1.5 0 0 0 -231.244 71.3443C -231.92276136073323 71.34358095070739 -232.63219568519793 71.33314783720674 -233.37245642815463 71.31127290741931 C -235.2910532055405 71.25456687837966 -237.41610983724252 71.1210870278982 -239.74161849100886 70.88021426268787 A 250 250 0 0 1 -240.644 67.7538C -238.8042761223973 66.31090359765338 -237.07708994898888 65.06570864070405 -235.48371264253626 63.99548533353556 C -234.86893053393692 63.58255986924193 -234.2741386803137 63.19574135695289 -233.70051277003407 62.833680344156086 A 1.5 1.5 0 0 0 -233.117 61.1333A 241 241 0 0 1 -233.246 60.6421A 1.5 1.5 0 0 0 -234.586 59.4438C -235.26307697369307 59.408403386456335 -235.97105316061095 59.36175974441077 -236.7092313287827 59.302115196038315 C -238.6224299626828 59.14751844585304 -240.73789901888625 58.90570605851352 -243.04807507292736 58.5464056450748 A 250 250 0 0 1 -243.79 55.378C -241.87864369761695 54.030916642980806 -240.09013014593498 52.87553712356943 -238.44418507153577 51.88806865319384 C -237.8091206916531 51.50707296618385 -237.19535352707467 51.151129461858524 -236.6039888287028 50.818830416642996 A 1.5 1.5 0 0 0 -235.935 49.1504A 241 241 0 0 1 -236.038 48.6533A 1.5 1.5 0 0 0 -237.315 47.3882C -237.98961808080435 47.318236080930006 -238.69428910113933 47.235503598275926 -239.42845887196947 47.138245037135036 C -241.33126804559396 46.886160891073736 -243.43163050907225 46.53664682778499 -245.7204469778355 46.059856139872146 A 250 250 0 0 1 -246.299 42.8577C -244.32197750876048 41.60996919595354 -242.4768026064516 40.5474193673268 -240.78258384687345 39.6452819262357 C -240.1288940061639 39.29720999075525 -239.49775277908367 38.97307011035535 -238.8901920955965 38.67139996298867 A 1.5 1.5 0 0 0 -238.137 37.0393A 241 241 0 0 1 -238.214 36.5376A 1.5 1.5 0 0 0 -239.425 35.2089C -240.09527144763086 35.10462090019196 -240.79479889514914 34.98601541653035 -241.52304490353197 34.85139657910219 C -243.41050040500667 34.50248269591939 -245.49027666990875 34.04617879896554 -247.75176229256064 33.45314172904411 A 250 250 0 0 1 -248.166 30.2256C -246.12790317689078 29.08046609025633 -244.23088077459587 28.113518023596832 -242.49280835313925 27.299065185369344 C -241.82219845375994 26.984825081355794 -241.17532973957657 26.693334468819497 -240.553158127427 26.423080242271915 A 1.5 1.5 0 0 0 -239.717 24.8316A 241 241 0 0 1 -239.769 24.3266A 1.5 1.5 0 0 0 -240.91 22.9378C -241.57454366495887 22.799421771716766 -242.26710255242082 22.645252715212294 -242.98752488767042 22.47362480667316 C -244.85470256109883 22.02879146285161 -246.90846672861514 21.466888176999745 -249.13672154737918 20.759151891073106 A 250 250 0 0 1 -249.386 17.5147C -247.2917092481375 16.475095368892376 -245.34778846070506 15.606271721301377 -243.57039680986708 14.88162830039948 C -242.88461639647628 14.60203984440475 -242.22370780180665 14.343958965458206 -241.58854843569216 14.105825722149575 A 1.5 1.5 0 0 0 -240.673 12.5591A 241 241 0 0 1 -240.698 12.0521A 1.5 1.5 0 0 0 -241.767 10.6069C -242.4235754804743 10.434741555042018 -243.1073590008179 10.245411135160328 -243.8180781633183 10.03722191312738 C -245.66010675534184 9.497629628070735 -247.68250078925507 8.831592894836383 -249.87171154172773 8.01100379606627 A 250 250 0 0 1 -249.955 4.75804C -247.8103594853423 3.826743004811994 -245.82461178015288 3.058310437985115 -244.01253791181077 2.4253669463552687 C -243.31337610720567 2.1811595527380687 -242.64015186711168 1.9571617109271724 -241.993661805297 1.751770713299594 A 1.5 1.5 0 0 0 -241 0.253844A 241 241 0 0 1 -241 -0.253844A 1.5 1.5 0 0 0 -241.994 -1.75177C -242.64015186711168 -1.9571617109271138 -243.31337610720567 -2.18115955273801 -244.01253791181077 -2.42536694635521 C -245.82461178015288 -3.0583104379850554 -247.8103594853423 -3.8267430048119335 -249.95481477063112 -4.758044093160427 A 250 250 0 0 1 -249.872 -8.011C -247.68250078925507 -8.831592894836323 -245.66010675534184 -9.497629628070676 -243.8180781633183 -10.037221913127322 C -243.1073590008179 -10.245411135160268 -242.4235754804743 -10.43474155504196 -241.76744134171543 -10.6068544653269 A 1.5 1.5 0 0 0 -240.698 -12.0521A 241 241 0 0 1 -240.673 -12.5591A 1.5 1.5 0 0 0 -241.589 -14.1058C -242.22370780180665 -14.34395896545804 -242.88461639647628 -14.602039844404583 -243.57039680986708 -14.88162830039931 C -245.34778846070506 -15.606271721301207 -247.2917092481375 -16.475095368892205 -249.38581442725376 -17.5146787886141 A 250 250 0 0 1 -249.137 -20.7592C -246.90846672861514 -21.466888176999575 -244.85470256109883 -22.02879146285144 -242.98752488767042 -22.47362480667299 C -242.26710255242082 -22.645252715212127 -241.57454366495887 -22.7994217717166 -240.91047722830743 -22.937807571727554 A 1.5 1.5 0 0 0 -239.769 -24.3266A 241 241 0 0 1 -239.717 -24.8316A 1.5 1.5 0 0 0 -240.553 -26.4231C -241.1753297395766 -26.693334468819337 -241.82219845375997 -26.984825081355638 -242.49280835313928 -27.299065185369184 C -244.2308807745959 -28.113518023596665 -246.1279031768908 -29.080466090256166 -248.1661949685239 -30.225619686907443 A 250 250 0 0 1 -247.752 -33.4531C -245.49027666990878 -34.04617879896538 -243.4105004050067 -34.50248269591923 -241.523044903532 -34.85139657910204 C -240.79479889514917 -34.986015416530186 -240.0952714476309 -35.104620900191804 -239.42500518659807 -35.20891855717723 A 1.5 1.5 0 0 0 -238.214 -36.5376A 241 241 0 0 1 -238.137 -37.0393A 1.5 1.5 0 0 0 -238.89 -38.6714C -239.49775277908367 -38.97307011035531 -240.1288940061639 -39.297209990755206 -240.78258384687345 -39.64528192623565 C -242.4768026064516 -40.54741936732676 -244.32197750876048 -41.60996919595349 -246.2991382423551 -42.857705394552355 A 250 250 0 0 1 -245.72 -46.0599C -243.43163050907225 -46.53664682778494 -241.33126804559396 -46.88616089107369 -239.42845887196947 -47.138245037134986 C -238.69428910113933 -47.23550359827588 -237.98961808080435 -47.318236080929964 -237.31490064353517 -47.38817349421132 A 1.5 1.5 0 0 0 -236.038 -48.6533A 241 241 0 0 1 -235.935 -49.1504A 1.5 1.5 0 0 0 -236.604 -50.8188C -237.19535352707473 -51.15112946185837 -237.80912069165316 -51.50707296618369 -238.44418507153583 -51.888068653193685 C -240.09013014593503 -52.87553712356927 -241.878643697617 -54.03091664298065 -243.78951518656828 -55.377980242249556 A 250 250 0 0 1 -243.048 -58.5464C -240.7378990188863 -58.90570605851337 -238.62242996268284 -59.14751844585288 -236.70923132878275 -59.30211519603816 C -235.971053160611 -59.36175974441061 -235.26307697369313 -59.40840338645618 -234.5856686209432 -59.44379809730758 A 1.5 1.5 0 0 0 -233.246 -60.6421A 241 241 0 0 1 -233.117 -61.1333A 1.5 1.5 0 0 0 -233.701 -62.8337C -234.27413868031377 -63.19574135695273 -234.86893053393698 -63.58255986924177 -235.48371264253632 -63.995485333535406 C -237.07708994898894 -65.06570864070389 -238.80427612239737 -66.31090359765321 -240.64387312117105 -67.75378026246734 A 250 250 0 0 1 -239.742 -70.8802C -237.41610983724257 -71.12108702789803 -235.29105320554055 -71.2545668783795 -233.3724564281547 -71.31127290741915 C -232.63219568519798 -71.33314783720658 -231.9227613607333 -71.34358095070723 -231.24442937354954 -71.34434061836937 A 1.5 1.5 0 0 0 -229.845 -72.4726A 241 241 0 0 1 -229.692 -72.9566A 1.5 1.5 0 0 0 -230.187 -74.6846C -230.74172935479623 -75.07548277843924 -231.31599415343052 -75.49216713335979 -231.9088900944201 -75.93594509954791 C -233.44554269346298 -77.08613115309734 -235.1068954570789 -78.41789297611639 -236.87041866714753 -79.95281840600263 A 250 250 0 0 1 -235.81 -83.0291C -233.47492913283924 -83.15092120172311 -231.3458289557551 -83.17572028165716 -229.4268394348132 -83.13438764999601 C -228.68642737282815 -83.11843589200426 -227.97738574396698 -83.09263125815812 -227.29989981305306 -83.05875390074479 A 1.5 1.5 0 0 0 -225.845 -84.1141A 241 241 0 0 1 -225.667 -84.5897A 1.5 1.5 0 0 0 -226.074 -86.3407C -226.60734120312728 -86.75936083735978 -227.1595807554817 -87.20482395300623 -227.7290437310474 -87.67829665504493 C -229.2049626715023 -88.90544475088808 -230.79614774565616 -90.32029902543908 -232.47899633632102 -91.94326877520632 A 250 250 0 0 1 -231.263 -94.9614C -228.92463899613617 -94.963824116177 -226.79704985293455 -94.87987772759558 -224.88267401298947 -94.7406142673504 C -224.14404228250666 -94.6868774378947 -223.43724315790146 -94.62490237804512 -222.76237076669682 -94.55647637771375 A 1.5 1.5 0 0 0 -221.255 -95.5361A 241 241 0 0 1 -221.053 -96.002A 1.5 1.5 0 0 0 -221.37 -97.7715C -221.88176037193665 -98.21689362990575 -222.41053394807298 -98.68997334387166 -222.95507829433194 -99.19190554554172 C -224.3664130722013 -100.4928141944104 -225.8832792367137 -101.98706972723696 -227.48106284814682 -103.69384965411622 A 250 250 0 0 1 -226.112 -106.646C -223.77711061455494 -106.52897725633485 -221.65658314238559 -106.33650440578093 -219.75181537142328 -106.09967343941855 C -219.01689097829168 -106.00829173175137 -218.31417831615732 -105.91030793175331 -217.64368012967472 -105.807511804126 A 1.5 1.5 0 0 0 -216.088 -106.709A 241 241 0 0 1 -215.863 -107.164A 1.5 1.5 0 0 0 -216.089 -108.947C -216.57731536205333 -109.41818976122505 -217.08124345208591 -109.9176518625522 -217.59944851501402 -110.44673408004932 C -218.94251711900645 -111.81800935981437 -220.38110704324757 -113.38776780884314 -221.88965724043922 -115.1739051188827 A 250 250 0 0 1 -220.372 -118.052C -218.04577330190617 -117.81620845814561 -215.9378397148254 -117.51571128531 -214.04764933447686 -117.1819306777807 C -213.31834961252565 -117.05314249634351 -212.62155670996296 -116.91940558474352 -211.9571819814145 -116.78250751318014 A 1.5 1.5 0 0 0 -210.358 -117.603A 241 241 0 0 1 -210.11 -118.046A 1.5 1.5 0 0 0 -210.244 -119.839C -210.70784486485468 -120.3340263286577 -211.18561277793444 -120.85856777775155 -211.6761266196903 -121.41341969598005 C -212.94742513716753 -122.85148410600667 -214.30398570428102 -124.49265015067672 -215.7193668520106 -126.3534850155731 A 250 250 0 0 1 -214.057 -129.151C -211.74557946284327 -128.79607062416227 -209.65573911889922 -128.38833309185864 -207.78505742004768 -127.95847363865687 C -207.06328502898114 -127.79261497711022 -206.37422973911418 -127.62347385824077 -205.71771174630933 -127.45283099417922 A 1.5 1.5 0 0 0 -204.079 -128.191A 241 241 0 0 1 -203.808 -128.621A 1.5 1.5 0 0 0 -203.851 -130.418C -204.28866165870082 -130.9359251609527 -204.73902295289332 -131.4841774890639 -205.20056587886995 -132.06335156272124 C -206.39677763715474 -133.56445335715966 -207.66776973551103 -135.27274538264626 -208.98628926597019 -137.2034230967042 A 250 250 0 0 1 -207.183 -139.912C -204.89296558374596 -139.43991854765753 -202.8266706377812 -138.92600439655274 -200.9803780153875 -138.40118755191125 C -200.268015976963 -138.19869111656564 -199.5884959663678 -137.9945870602936 -198.9415474897896 -137.79064459148248 A 1.5 1.5 0 0 0 -197.267 -138.444A 241 241 0 0 1 -196.975 -138.859A 1.5 1.5 0 0 0 -196.926 -140.656C -197.33651265964426 -141.19622711456495 -197.7582923937545 -141.76675999396804 -198.18966029115631 -142.3687452240253 C -199.30766451035288 -143.9289681996873 -200.48977226668725 -145.69992946714612 -201.70799031296755 -147.69541311265147 A 250 250 0 0 1 -199.769 -150.308C -197.505809351804 -149.71998364469695 -195.46845053140618 -149.1012336181334 -193.65136375211523 -148.48282856927705 C -192.95027053755464 -148.24422265021155 -192.28205859635227 -148.00568814071542 -191.64636745070854 -147.76897812977003 A 1.5 1.5 0 0 0 -189.941 -148.336A 241 241 0 0 1 -189.628 -148.736A 1.5 1.5 0 0 0 -189.487 -150.528C -189.86953523063775 -151.08816423320317 -190.26163302949755 -151.67948920875835 -190.66170050873313 -152.30271508448402 C -191.6985804434856 -153.91798879777002 -192.78871987363306 -155.74699907145987 -193.903458243946 -157.80208265942272 A 250 250 0 0 1 -191.833 -160.313C -189.60338301417227 -159.60944639920461 -187.60027555588127 -158.88747474535364 -185.8171351916281 -158.1770948404464 C -185.1291398730785 -157.90300193326016 -184.4739792899281 -157.63065927983976 -183.8512039208356 -157.36179927615146 A 1.5 1.5 0 0 0 -182.119 -157.841A 241 241 0 0 1 -181.786 -158.224A 1.5 1.5 0 0 0 -181.554 -160.007C -181.90720986322557 -160.58592958237082 -182.26860278844688 -161.1965039547335 -182.636326119142 -161.8393445509768 C -183.58937666808998 -163.50545493719818 -184.5847037227477 -165.38774253814861 -185.59305419196423 -167.49706459013427 A 250 250 0 0 1 -183.397 -169.899C -181.20630309887878 -169.08250633201752 -179.2426728813416 -168.2591965924904 -177.49813094174036 -167.45869513159406 C -176.82502842043354 -167.14983031338647 -176.18462843449137 -166.8443900269289 -175.5763935917805 -166.54408145554928 A 1.5 1.5 0 0 0 -173.822 -166.934A 241 241 0 0 1 -173.47 -167.3A 1.5 1.5 0 0 0 -173.147 -169.068C -173.4703093551653 -169.66474457671222 -173.8000545738695 -170.29297542705925 -174.13447440784046 -170.95375364610314 C -175.0012091709196 -172.6663540134963 -175.89912715544682 -174.59700826827307 -176.79845905232472 -176.75506580388705 A 250 250 0 0 1 -174.483 -179.041C -172.33647662865695 -178.11444931139036 -170.41744653890686 -177.1919494072933 -168.7160543346888 -176.30341480731929 C -168.0596006582491 -175.96058387113536 -167.4356319999586 -175.62284281047323 -166.84352449888667 -175.29186914217627 A 1.5 1.5 0 0 0 -165.071 -175.592A 241 241 0 0 1 -164.701 -175.939A 1.5 1.5 0 0 0 -164.288 -177.689C -164.58084461657026 -178.30092362451214 -164.87808186113153 -178.94517197028546 -165.178325735215 -179.6221639172031 C -165.95648350039087 -181.37678628695144 -166.7546498492889 -183.3507703390431 -167.5426169195935 -185.55193323257862 A 250 250 0 0 1 -165.113 -187.717C -163.0170439680245 -186.68171202934326 -161.1476205364538 -185.6624286575964 -159.4938168056174 -184.68817900386458 C -158.85572458673374 -184.31227635647286 -158.24981511908058 -183.94311564947074 -157.67537970051194 -183.58234035676696 A 1.5 1.5 0 0 0 -155.89 -183.791A 241 241 0 0 1 -155.502 -184.119A 1.5 1.5 0 0 0 -155.001 -185.846C -155.2620072459578 -186.47193592070064 -155.52596105834317 -187.13052099152543 -155.79124567055308 -187.82196047162518 C -156.47879631306517 -189.61402723430623 -157.1751287014632 -191.62619118470718 -157.84967522907695 -193.86471685350048 A 250 250 0 0 1 -155.313 -195.903C -153.27231845271436 -194.76194347564206 -151.45737879160805 -193.6485358301821 -149.85547811925832 -192.5911128288007 C -149.2374120676734 -192.18311915728827 -148.6511425392769 -191.78350190208053 -148.0958778396305 -191.39386620651584 A 1.5 1.5 0 0 0 -146.302 -191.512A 241 241 0 0 1 -145.898 -191.819A 1.5 1.5 0 0 0 -145.31 -193.518C -145.53810902601776 -194.1564642271504 -145.7680907808686 -194.82766784977304 -145.99772403394147 -195.53175097639883 C -146.59287381266694 -197.35658683444413 -147.1855555888697 -199.40168117715362 -147.74492175892078 -201.67172956332618 A 250 250 0 0 1 -145.107 -203.578C -143.1277229589586 -202.33406324903152 -141.37200203866553 -201.1294360832783 -139.8261836007541 -199.99159843012302 C -139.22975618022662 -199.55257814339478 -138.66465610134702 -199.12354689577253 -138.13001074282494 -198.70606731238863 A 1.5 1.5 0 0 0 -136.333 -198.732A 241 241 0 0 1 -135.914 -199.019A 1.5 1.5 0 0 0 -135.239 -200.685C -135.4345184969458 -201.33446048691766 -135.62992819812263 -202.01653156772375 -135.8233110051204 -202.73142146838933 C -136.32450724223983 -204.5842656334022 -136.81199216716476 -206.6569549507858 -137.25471865718302 -208.95260375728876 A 250 250 0 0 1 -134.523 -210.721C -132.60972357810567 -209.37831655359605 -130.91780187404143 -208.08561260228254 -129.43209853437355 -206.87032878587394 C -128.85886575594463 -206.40142723773124 -128.3164094081654 -205.94410129123347 -127.80377821946308 -205.49986697659622 A 1.5 1.5 0 0 0 -126.007 -205.434A 241 241 0 0 1 -125.574 -205.699A 1.5 1.5 0 0 0 -124.815 -207.329C -124.97759477282005 -207.98719812733313 -125.13792261872408 -208.6783572207507 -125.2945504659834 -209.40218882933027 C -125.70048559774 -211.2782074424391 -126.08150187887823 -213.3730843247243 -126.40643366600105 -215.68834446593507 A 250 250 0 0 1 -123.588 -217.315C -121.74576056961153 -215.87632573676598 -120.12205211232094 -214.49891751690222 -118.70033990127456 -213.20935807395801 C -118.15179726381217 -212.7117985750016 -117.63339985380793 -212.22737104080588 -117.14412023116519 -211.75754095152018 A 1.5 1.5 0 0 0 -115.353 -211.6A 241 241 0 0 1 -114.907 -211.843A 1.5 1.5 0 0 0 -114.066 -213.431C -114.19461877368128 -214.09732091549242 -114.31944648726855 -214.79576486636222 -114.43891075061947 -215.526649788835 C -114.7485257386035 -217.42094853167902 -115.0220793479814 -219.5325476842697 -115.2283687222764 -221.86137891083274 A 250 250 0 0 1 -112.331 -223.342C -110.56417677253468 -221.81113823451514 -109.01291763199028 -220.35261924687637 -107.6589056343951 -218.99214849074335 C -107.13648422300867 -218.46722911689534 -106.64349819043225 -217.95696381112722 -106.17884660851942 -217.46276368025158 A 1.5 1.5 0 0 0 -104.399 -217.214A 241 241 0 0 1 -103.941 -217.434A 1.5 1.5 0 0 0 -103.019 -218.977C -103.11372205272771 -219.64888823868552 -103.20272397274609 -220.35279488648698 -103.28471298356574 -221.08882632754148 C -103.49720007762495 -222.99646319098883 -103.66257734510957 -225.11927569279501 -103.749686121153 -227.4556023499426 A 250 250 0 0 1 -100.78 -228.787C -99.09414366230571 -227.16727079866453 -97.61938089648483 -225.6314461527581 -96.33660157504356 -224.2036133963025 C -95.8416643275461 -223.65270360227484 -95.37537581666815 -223.11793174885577 -94.9365644984092 -222.6006508881046 A 1.5 1.5 0 0 0 -93.1713 -222.261A 241 241 0 0 1 -92.7028 -222.457A 1.5 1.5 0 0 0 -91.704 -223.952C -91.76381340430454 -224.62741669163566 -91.8167573349068 -225.33494962429566 -91.86105719322738 -226.07420736194115 C -91.97586203879479 -227.9902055392261 -92.03263151397778 -230.11869321481004 -92.0003324349189 -232.45642009305186 A 250 250 0 0 1 -88.9669 -233.634C -87.36558524567852 -231.93074989090934 -85.97116634225102 -230.32162637787832 -84.76296632174753 -228.830156673734 C -84.2968044729066 -228.25469372027723 -83.85842997721188 -227.69681047791337 -83.44660373123338 -227.15779841399007 A 1.5 1.5 0 0 0 -81.7009 -226.729A 241 241 0 0 1 -81.2231 -226.9A 1.5 1.5 0 0 0 -80.1493 -228.342C -80.17450344416041 -229.01991786204985 -80.1912512606767 -229.72923120693204 -80.19774639322591 -230.46978660213833 C -80.21456947756766 -232.38914747278204 -80.16258305537013 -234.5177573408256 -80.01096038581836 -236.85078557765434 A 250 250 0 0 1 -76.9214 -237.872C -75.4090999924133 -236.0891481381846 -74.09866283108565 -234.41092377754723 -72.96819416742301 -232.8597081998786 C -72.5320238802766 -232.26119340413285 -72.12270706877145 -231.68165422650526 -71.73894030272746 -231.12231718034099 A 1.5 1.5 0 0 0 -70.0174 -230.605A 241 241 0 0 1 -69.5315 -230.752A 1.5 1.5 0 0 0 -68.3854 -232.137C -68.37602735873202 -232.81493221590338 -68.35653536802126 -233.5241754554793 -68.32520882973989 -234.26409648377575 C -68.2440062633498 -236.18181265441638 -68.08339957041154 -238.30499141481522 -67.81284887659967 -240.62723440594257 A 250 250 0 0 1 -64.6751 -241.489C -63.255881007362994 -239.6316167542626 -62.03284436906538 -237.8886698417587 -60.98305632591194 -236.28175533489252 C -60.57801551893796 -235.66175015362236 -60.19882425244841 -235.06206699227457 -59.844118170013644 -234.48386421035858 A 1.5 1.5 0 0 0 -58.1513 -233.879A 241 241 0 0 1 -57.6585 -234.001A 1.5 1.5 0 0 0 -56.4432 -235.326C -56.399166024994 -236.00255899405607 -56.34348507943438 -236.709881793694 -56.274418597684004 -237.44723808560082 C -56.09540222878618 -239.35830645371107 -55.82659426963123 -241.4705149755006 -55.43782138742838 -243.77591425411285 A 250 250 0 0 1 -52.2602 -244.477C -50.93763465122335 -242.5489138429978 -49.80518929890065 -240.7457915281151 -48.8388206533978 -239.0873703485247 C -48.46596603181471 -238.44749230445686 -48.117889577059586 -237.8292296642859 -47.7931695659033 -237.23366961165792 A 1.5 1.5 0 0 0 -46.1334 -236.543A 241 241 0 0 1 -45.635 -236.64A 1.5 1.5 0 0 0 -44.3537 -237.901C -44.27516570666667 -238.57448204220196 -44.18344107148761 -239.27803907747867 -44.07681483283319 -240.01090695462048 C -43.80045169469428 -241.9103417610308 -43.424143758596 -244.00606953334633 -42.91816295206234 -246.28861057595253 A 250 250 0 0 1 -39.7089 -246.826C -38.486497822259324 -244.83342850937797 -37.44759817653489 -242.97483493235825 -36.567170074140265 -241.2692337115453 C -36.22747437308381 -240.6111521734364 -35.91142082179071 -239.97592303107825 -35.61753403934601 -239.3645594559154 A 1.5 1.5 0 0 0 -33.9952 -238.59A 241 241 0 0 1 -33.4925 -238.661A 1.5 1.5 0 0 0 -32.1485 -239.855C -32.03565653628088 -240.52399150676672 -31.90812751058257 -241.22194727770818 -31.764219690706348 -241.9484147714713 C -31.391230783199035 -243.83126060764627 -30.908404614596456 -245.90504011601686 -30.286535929884113 -248.15876803365387 A 250 250 0 0 1 -27.054 -248.532C -25.934954114806068 -246.47920071548103 -24.99231054623563 -244.56998473475542 -24.200119923342456 -242.82165319156198 C -23.89446937011076 -242.14708501900628 -23.611263269908523 -241.49654661476387 -23.348976433235247 -240.8709744948292 A 1.5 1.5 0 0 0 -21.7683 -240.015A 241 241 0 0 1 -21.2626 -240.06A 1.5 1.5 0 0 0 -19.8594 -241.184C -19.712569995773855 -241.84600134014923 -19.549569288223285 -242.5365349598406 -19.36875532619614 -243.2547067994807 C -18.900113734792818 -245.1160515356142 -18.312028972031463 -247.16247252608346 -17.575894793534847 -249.3815075999413 A 250 250 0 0 1 -14.3285 -249.589C -13.31574907328041 -247.48193682953288 -12.471820831304774 -245.52707937160375 -11.769934422797071 -243.7405787034043 C -11.499126424784805 -243.0512837677428 -11.24950662805281 -242.3871332820353 -11.019504013560343 -241.7489846635629 A 1.5 1.5 0 0 0 -9.48461 -240.813A 241 241 0 0 1 -8.9773 -240.833A 1.5 1.5 0 0 0 -7.51853 -241.883C -7.338055610898742 -242.53706256963926 -7.140008471730741 -243.2183725147108 -6.922760090534544 -243.926375071898 C -6.359688447638403 -245.76136267209895 -5.667879336717707 -247.77508626595994 -4.819400154457853 -249.95363928689696 A 250 250 0 0 1 -1.56564 -249.995C -0.6618047627942847 -247.8390208275029 0.08120644016165945 -245.84362189227537 0.6909574927844031 -244.0236128753333 C 0.9262164284308634 -243.32138946835053 1.1415986921441426 -242.64535959396346 1.3387170338959389 -241.99629933383608 A 1.5 1.5 0 0 0 2.82383 -240.983A 241 241 0 0 1 3.33148 -240.977A 1.5 1.5 0 0 0 4.84197 -241.952C 5.055602923217319 -242.59537229539336 5.288179811629381 -243.26568110598933 5.541295835773177 -243.96166728289057 C 6.197328540536471 -245.76551047402606 6.991057148635814 -247.74128309634625 7.949667749350439 -249.87367046827467 A 250 250 0 0 1 11.2013 -249.749C 11.993866120754124 -247.54952111801163 12.634021853297739 -245.51878647347613 13.150046779159666 -243.67001730351086 C 13.349142888738726 -242.95669744589682 13.529725711699278 -242.27055186758446 13.693445521463438 -241.61227328991205 A 1.5 1.5 0 0 0 15.1249 -240.525A 241 241 0 0 1 15.6316 -240.493A 1.5 1.5 0 0 0 17.1898 -241.389C 17.436071966547658 -242.02077839399473 17.70257183765718 -242.67833731096314 17.990895153941985 -243.36049135910952 C 18.73817740615051 -245.12848412025397 19.63175476411668 -247.06115120585238 20.697995877681493 -249.1418097735915 A 250 250 0 0 1 23.939 -248.851C 24.618246377034644 -246.61419297274657 25.15387654595172 -244.5534205737245 25.574829094940192 -242.68071447841083 C 25.73724295943444 -241.95815914022833 25.88255522167583 -241.2636879334614 26.012449373161957 -240.5979084118919 A 1.5 1.5 0 0 0 27.3865 -239.439A 241 241 0 0 1 27.8909 -239.381A 1.5 1.5 0 0 0 29.4929 -240.196C 29.7710522889409 -240.81477991532603 30.070779875012715 -241.45787344253148 30.393558280826646 -242.12441569989872 C 31.230140506407924 -243.85194553980494 32.22123537294127 -245.7364649809242 33.392325298032745 -247.75996654383727 A 250 250 0 0 1 36.6143 -247.304C 37.17840043939072 -245.0354765560444 37.60810764672798 -242.95004272242903 37.9328896017064 -241.0582853781469 C 38.05819750188754 -240.328379623773 38.167860100309106 -239.6273945846363 38.26358971450709 -238.9558510619238 A 1.5 1.5 0 0 0 39.5767 -237.728A 241 241 0 0 1 40.0774 -237.644A 1.5 1.5 0 0 0 41.719 -238.377C 42.02836333512542 -238.9805231717188 42.360536681109885 -239.60747355157636 42.71692808444652 -240.2566650855197 C 43.64062773589368 -241.93922507608212 44.726654457649104 -243.7706803766719 45.999537954365934 -245.73174585022144 A 250 250 0 0 1 49.194 -245.112C 49.64156029997315 -242.8174905587808 49.96422348868996 -240.7128359493324 50.19198753062088 -238.80696273499515 C 50.27986255248481 -238.07161080520345 50.353589389888384 -237.3659407236267 50.41490471916504 -236.69038518014614 A 1.5 1.5 0 0 0 51.6636 -235.397A 241 241 0 0 1 52.1594 -235.288A 1.5 1.5 0 0 0 53.8362 -235.936C 54.17602718010239 -236.5227935295847 54.53977968366688 -237.1319651201375 54.928854300047135 -237.76211226406858 C 55.93726155043615 -239.39531279838388 57.11538680769746 -241.16892590067772 58.48674306833257 -243.06243908895476 A 250 250 0 0 1 61.6454 -242.281C 61.975210997729846 -239.96602145317644 62.189988376408024 -237.84763687146483 62.32014029491181 -235.93261999267898 C 62.37035318255991 -235.19374033669297 62.40795191404472 -234.4852262253467 62.434692993706854 -233.80742110837716 A 1.5 1.5 0 0 0 63.6157 -232.452A 241 241 0 0 1 64.1053 -232.318A 1.5 1.5 0 0 0 65.813 -232.879C 66.18235195590182 -233.4480029249402 66.57673462829725 -234.03780646706272 66.99747740647092 -234.6472652390323 C 68.08796143642392 -236.2268454833828 69.35511163491144 -237.93798923330516 70.82136294756019 -239.75901017659987 A 250 250 0 0 1 73.936 -238.817C 74.14717544622762 -236.4885083965515 74.25350668520916 -234.3619204660765 74.28570692879097 -232.4427559832251 C 74.29812668253258 -231.7022762537031 74.29949921730116 -230.9927665450068 74.29159628292518 -230.31448017070767 A 1.5 1.5 0 0 0 75.4019 -228.901A 241 241 0 0 1 75.8839 -228.741A 1.5 1.5 0 0 0 77.6181 -229.215C 78.01601453204732 -229.76417313539795 78.4399984739114 -230.33306989899168 78.89131174401 -230.92025029065076 C 80.06102760520263 -232.44208930053296 81.41389689472976 -234.0862995194161 82.97121797713177 -235.83007738200882 A 250 250 0 0 1 86.0337 -234.73C 86.12569837999646 -232.39402382341362 86.12330607321958 -230.2647805692753 86.05747063512051 -228.3464753633669 C 86.03206485323622 -227.6063273873764 85.99720761050203 -226.89767311114926 85.95468127994141 -226.22067505122544 A 1.5 1.5 0 0 0 86.9914 -224.752A 241 241 0 0 1 87.4646 -224.568A 1.5 1.5 0 0 0 89.2207 -224.953C 89.6461422340271 -225.4809148522649 90.09862131966533 -226.02742065062944 90.57932765689742 -226.59079077537945 C 91.82522369420418 -228.05091824657785 93.2602825932631 -229.62390537769403 94.90461057252688 -231.28589084224313 A 250 250 0 0 1 97.9069 -230.031C 97.87952920039152 -227.69324977651223 97.76841958911145 -225.56690615124688 97.60472022647247 -223.65446486153456 C 97.5415551897464 -222.916579600636 97.47055910807585 -222.21062955497166 97.39352032767138 -221.53668602006283 A 1.5 1.5 0 0 0 98.3539 -220.017A 241 241 0 0 1 98.8171 -219.809A 1.5 1.5 0 0 0 100.591 -220.103C 101.04239338657675 -220.60940260734588 101.52218714971809 -221.1320916692524 102.03103244613615 -221.67018175876268 C 103.3498582590502 -223.06478838542 104.86336286282604 -224.56244868494545 106.59040787500055 -226.13830582113684 A 250 250 0 0 1 109.525 -224.732C 109.37800350483666 -222.39845003860844 109.1584664613429 -220.2805534299518 108.8973302471102 -218.3789653974008 C 108.79657074591111 -217.6452679099892 108.689621045975 -216.94386383795256 108.57827080110863 -216.2747330697915 A 1.5 1.5 0 0 0 109.46 -214.708A 241 241 0 0 1 109.912 -214.477A 1.5 1.5 0 0 0 111.698 -214.68C 112.1750364716455 -215.16234561986622 112.68089318514401 -215.65985430923206 113.21654992146885 -216.17126054789733 C 114.60486484402578 -217.4967079605587 116.19286659181694 -218.91513420377245 117.99812297365676 -220.40075178026677 A 250 250 0 0 1 120.857 -218.846C 120.59112308674943 -216.52343813766655 120.26373135812209 -214.41951389605242 119.9058395668625 -212.53374014671928 C 119.76774847122442 -211.80614456576689 119.62512417257857 -211.1111163504966 119.47975296332534 -210.44854403485712 A 1.5 1.5 0 0 0 120.28 -208.839A 241 241 0 0 1 120.72 -208.585A 1.5 1.5 0 0 0 122.514 -208.697C 123.01502769453279 -209.15395463956946 123.5456276359809 -209.62498501302886 124.10669834494794 -210.10837320036407 C 125.56088042203046 -211.36120345806734 127.21923639859254 -212.69669513285461 129.09799444231882 -214.08819734302028 A 250 250 0 0 1 131.874 -212.39C 131.4896341974378 -210.08354130893613 131.05524191131573 -207.999078332488 130.6015282418491 -206.13403863477 C 130.42646581567357 -205.41444317407175 130.2485390088285 -204.72760406482422 130.06952609207508 -204.07331877722635 A 1.5 1.5 0 0 0 130.787 -202.425A 241 241 0 0 1 131.213 -202.149A 1.5 1.5 0 0 0 133.01 -202.169C 133.53408675583148 -202.5999048724945 134.08804565056502 -203.04322806558463 134.67306656275673 -203.4973370970015 C 136.189321999362 -204.67428170865057 137.91370574330068 -205.92335466971625 139.8610639836911 -207.21711124316656 A 250 250 0 0 1 142.546 -205.379C 142.04510386578897 -203.09556050794586 141.50484430204847 -201.03599692256856 140.95649244153412 -199.19655695208968 C 140.74491540270262 -198.48683895404025 140.53215027838195 -197.8099808356293 140.31996267838878 -197.16568953168303 A 1.5 1.5 0 0 0 140.952 -195.483A 241 241 0 0 1 141.363 -195.185A 1.5 1.5 0 0 0 143.16 -195.114C 143.7047706315006 -195.5172950861523 144.28064326401338 -195.93175451928033 144.88808812666664 -196.35539967616538 C 146.4624611854843 -197.45338812765021 148.24837397649912 -198.61278368625602 150.2592519782508 -199.80541935980995 A 250 250 0 0 1 152.847 -197.833C 152.22999407664554 -195.57772657872863 151.58527671080236 -193.5484355506586 150.9437172466344 -191.7393941962774 C 150.6961775754837 -191.04140523409922 150.44912921360367 -190.3762939520731 150.20432050359182 -189.7436775142263 A 1.5 1.5 0 0 0 150.75 -188.031A 241 241 0 0 1 151.145 -187.713A 1.5 1.5 0 0 0 152.936 -187.549C 153.50054516858148 -187.92460300079398 154.09682915292757 -188.30911739662125 154.7251132117528 -188.70119343713128 C 156.3534965332319 -189.71736120194856 158.19627912876388 -190.78405462746016 160.26543074076923 -191.87245795081873 A 250 250 0 0 1 162.749 -189.77C 162.01773361434238 -187.54965269163117 161.27024044039118 -185.55592840945928 160.53714712795934 -183.78200525351576 C 160.25429062722782 -183.09756630071584 159.9736035487569 -182.445937054468 159.6968124066989 -181.82664590677587 A 1.5 1.5 0 0 0 160.154 -180.088A 241 241 0 0 1 160.533 -179.75A 1.5 1.5 0 0 0 162.312 -179.496C 162.89585430977337 -179.84163708314833 163.5109940091204 -180.19520328751935 164.15847814274466 -180.55468733003133 C 165.83662346072572 -181.4863833425071 167.73146825138917 -182.45759175357074 169.85349529334502 -183.4389232067355 A 250 250 0 0 1 172.227 -181.213C 171.3827873839747 -179.0322831747917 170.5344685262587 -177.07932703752982 169.71175392231166 -175.34515004299405 C 169.39431853231355 -174.67604672265202 169.0807250177911 -174.0395995384839 168.77267356017308 -173.435249340841 A 1.5 1.5 0 0 0 169.14 -171.676A 241 241 0 0 1 169.502 -171.319A 1.5 1.5 0 0 0 171.266 -170.974C 171.86618676626887 -171.28948486839388 172.4985773513769 -171.61118046745108 173.16357234762435 -171.9371346591435 C 174.88710157258075 -172.78192823076085 176.82906512466735 -173.65511785552312 178.99843147031098 -174.52681725677968 A 250 250 0 0 1 181.255 -172.182C 180.30072302954494 -170.04783887277958 179.35379165510423 -168.1407459200043 178.44360212810736 -166.45083935664934 C 178.09241600153095 -165.7988172829308 177.7467341806307 -165.17921257887738 177.40822607853266 -164.5913800119456 A 1.5 1.5 0 0 0 177.686 -162.815A 241 241 0 0 1 178.028 -162.441A 1.5 1.5 0 0 0 179.772 -162.006C 180.38813996490765 -162.29045794518737 181.03613160094554 -162.57944367184356 181.716902563799 -162.87101763544715 C 183.48131920477286 -163.62670479623495 185.46533515710559 -164.3995975826643 187.67638117733614 -165.1593907678041 A 250 250 0 0 1 189.81 -162.703C 188.74827467518998 -160.6197591749487 187.70520121986127 -158.76350479442488 186.7099113503665 -157.1222774355236 C 186.32589069171812 -156.489037659572 185.9490224088414 -155.88789191356062 185.5809407912514 -155.31811056538928 A 1.5 1.5 0 0 0 185.767 -153.53A 241 241 0 0 1 186.09 -153.139A 1.5 1.5 0 0 0 187.81 -152.615C 188.43948110281787 -152.8680337472766 189.10138325359384 -153.12355567076685 189.7961541293407 -153.37998872310206 C 191.596855024774 -154.04459797154107 193.6177473062651 -154.71517753060542 195.86470463446963 -155.3610822859604 A 250 250 0 0 1 197.87 -152.799C 196.7034036231946 -150.77264086474733 195.56690934652633 -148.97206781220945 194.4891157321625 -147.38380143254844 C 194.07326240749364 -146.7709960046369 193.66619086896026 -146.18987753728098 193.26949601879159 -145.6396339023507 A 1.5 1.5 0 0 0 193.364 -143.845A 241 241 0 0 1 193.667 -143.437A 1.5 1.5 0 0 0 195.358 -142.826C 195.9992051502607 -143.0467943035557 196.67329098863843 -143.26818579635673 197.38024919939164 -143.48880893286915 C 199.2125365262495 -144.06060637931418 201.2650328596789 -144.62712324550967 203.54203944074226 -145.15745447932156 A 250 250 0 0 1 205.414 -142.496C 204.14535585043814 -140.53217394951758 202.91840573623494 -138.79197971447306 201.76092021748116 -137.26081791969105 C 201.31431914063438 -136.6700455792118 200.87810634960954 -136.1104704622415 200.45383319843233 -135.5812000633698 A 1.5 1.5 0 0 0 200.457 -133.784A 241 241 0 0 1 200.738 -133.361A 1.5 1.5 0 0 0 202.396 -132.665C 203.0475896503539 -132.85236210635944 203.73210056334705 -133.0390455833447 204.4494017358542 -133.22328322346158 C 206.30849526570856 -133.7007771136618 208.3872409224933 -134.16175330916857 210.68835630623056 -134.57512744780075 A 250 250 0 0 1 212.422 -131.821C 211.05471615327016 -129.9250746382007 209.7405111742888 -128.2497991887161 208.50635349870353 -126.77973660510993 C 208.0301698008961 -126.21253860964586 207.5659537867455 -125.67596671064987 207.11520921476827 -125.16905035387623 A 1.5 1.5 0 0 0 207.026 -123.374A 241 241 0 0 1 207.286 -122.937A 1.5 1.5 0 0 0 208.906 -122.158C 209.5662461727104 -122.31133326530579 210.25939634950342 -122.46282169059903 210.9851691269058 -122.61019317935327 C 212.8662186970057 -122.99213778626871 214.96579046707518 -123.34637067682621 217.28501130618798 -123.64170927434941 A 250 250 0 0 1 218.876 -120.803C 217.41345879956083 -118.97901564179767 216.01542756653748 -117.37302958024033 214.7078175105821 -115.96790143324117 C 214.20329350071174 -115.42575753760063 213.7122853500128 -114.91358871139852 213.23624529835854 -114.43034888361875 A 1.5 1.5 0 0 0 213.056 -112.642A 241 241 0 0 1 213.293 -112.193A 1.5 1.5 0 0 0 214.871 -111.331C 215.53816828675352 -111.45120812108264 216.23814937767798 -111.56710627867898 216.97050030166693 -111.67722714068309 C 218.86859846845937 -111.96262601444414 220.98351880879127 -112.20919144688666 223.3147945209155 -112.38572399862124 A 250 250 0 0 1 224.759 -109.47C 223.2049945557773 -107.72255397842598 221.7267843725739 -106.19004713906148 220.3491333415835 -104.85351924756948 C 219.81758526518615 -104.33784384327501 219.3010659621415 -103.85141427985572 218.80097236495146 -103.39311169860491 A 1.5 1.5 0 0 0 218.53 -101.616A 241 241 0 0 1 218.743 -101.156A 1.5 1.5 0 0 0 220.275 -100.215C 220.9477759295526 -100.30031950019887 221.65276176386502 -100.38032502503823 222.38978021449853 -100.45290796753665 C 224.29997505658827 -100.64101653506806 226.42472638149312 -100.77927124833485 228.76197493447725 -100.83653720100956 A 250 250 0 0 1 230.055 -97.8505C 228.41421396640024 -96.18505647131988 226.85968131460498 -94.73002698951284 225.41558344282137 -93.4655862021942 C 224.858398048137 -92.97772462749661 224.3177151326329 -92.51830336605127 223.79487267700225 -92.08613369043567 A 1.5 1.5 0 0 0 223.433 -90.3253A 241 241 0 0 1 223.623 -89.8544A 1.5 1.5 0 0 0 225.105 -88.8366C 225.78095605242822 -88.8877587978751 226.48910740258114 -88.93166296467805 227.22887058287318 -88.96651862706123 C 229.1461786200203 -89.05684613458826 231.27521769589217 -89.0864294379181 233.61234147512494 -89.02427939120095 A 250 250 0 0 1 234.751 -85.9761C 233.02752677276803 -84.39662313414172 231.40072725057536 -83.02286701567715 229.8939500244611 -81.83381211417411 C 229.3125809445659 -81.37503714421848 228.74914499659457 -80.94382276236222 228.20491771879267 -80.53891347372101 A 1.5 1.5 0 0 0 227.754 -78.7989A 241 241 0 0 1 227.919 -78.3189A 1.5 1.5 0 0 0 229.347 -77.2267C 230.02509944028486 -77.24330008191527 230.7345688202613 -77.25098834972357 231.4751467725395 -77.24802579754811 C 233.39456596699034 -77.24033659091707 235.52233837397074 -77.16117130484936 237.85324009036134 -76.97976740111604 A 250 250 0 0 1 238.835 -73.8774C 237.03289736850974 -72.38800864348325 235.33807511012753 -71.09910986122087 233.7725495394241 -69.98854295400696 C 233.1685134998677 -69.56005148030772 232.5837944594851 -69.15816896712738 232.0196021863407 -68.78157642756271 A 1.5 1.5 0 0 0 231.48 -67.0668A 241 241 0 0 1 231.621 -66.579A 1.5 1.5 0 0 0 232.991 -65.4154C 233.66913360761347 -65.39732241556256 234.3780700928072 -65.36877472656332 235.11753073375212 -65.32800168878958 C 237.0340535399847 -65.22231582826265 239.15500816280954 -65.03460848598975 241.47360675991865 -64.73442398731268 A 250 250 0 0 1 242.296 -61.586C 240.41987619906823 -60.19054210342506 238.6614528022564 -58.9898632471233 237.04126316442847 -57.96068167645666 C 236.41613602627012 -57.56359158434415 235.81165935869038 -57.19208940543032 235.2289740034255 -56.844796101879176 A 1.5 1.5 0 0 0 234.603 -55.1598A 241 241 0 0 1 234.718 -54.6655A 1.5 1.5 0 0 0 236.027 -53.4334C 236.70355168534158 -53.38073060199321 237.41010574140802 -53.316021433847496 238.14651990263792 -53.23754428267563 C 240.0551463314764 -53.03413749059586 242.1637498417021 -52.73837779914164 244.46399636052385 -52.320195852603256 A 250 250 0 0 1 245.124 -49.1339C 243.17962702339452 -47.83604531148243 241.36219001402134 -46.72671881518574 239.6915631988432 -45.78160759827385 C 239.0469758474103 -45.41695485045928 238.42431856324086 -45.076802212579196 237.8246602854173 -44.759714193617114 A 1.5 1.5 0 0 0 237.113 -43.1089A 241 241 0 0 1 237.203 -42.6093A 1.5 1.5 0 0 0 238.448 -41.312C 239.12043722316963 -41.22487455721286 239.82276553124973 -41.12417272875197 240.5542119923006 -41.00819620210899 C 242.44996265531617 -40.707599143572246 244.54071394714165 -40.30455870620232 246.81660730714708 -39.76947030075378 A 250 250 0 0 1 247.313 -36.5536C 245.30494996669208 -35.35674973916813 243.4332408304028 -34.34166970904415 241.71653531248566 -33.48309453314059 C 241.05416940258016 -33.151830467007514 240.4149559435814 -32.8439147895553 239.7998891831779 -32.557859301619125 A 1.5 1.5 0 0 0 239.005 -30.9456A 241 241 0 0 1 239.07 -30.442A 1.5 1.5 0 0 0 240.246 -29.0828C 240.9134848426857 -28.961467521705426 241.60975510841448 -28.825035752501844 242.33432560898484 -28.67186241990373 C 244.21225470915158 -28.27485931831403 246.27969925117523 -27.76558962151096 248.52530190644606 -27.1149907417065 A 250 250 0 0 1 248.857 -23.8779C 246.79030030406793 -22.785212443763566 244.8692021162903 -21.867027107710605 243.11089658431962 -21.09722789741853 C 242.4324801529725 -20.800216743092268 241.77837815407452 -20.52534134291305 241.14950755004165 -20.271064672109446 A 1.5 1.5 0 0 0 240.273 -18.7015A 241 241 0 0 1 240.312 -18.1953A 1.5 1.5 0 0 0 241.418 -16.7778C 242.07801668737787 -16.622503324209625 242.7664124211311 -16.450697549171625 243.4822166395153 -16.260727022354036 C 245.33742487422992 -15.768353613474217 247.37616893969923 -15.154183283729335 249.58562236930734 -14.38977126776199 A 250 250 0 0 1 249.752 -11.14C 247.63180292608686 -10.154231130673686 245.66632761264472 -9.33533592939653 243.87100928499285 -8.656321002961095 C 243.17831224321296 -8.394337628631007 242.5110281818465 -8.153219624259004 241.86999438578673 -7.931385149389174 A 1.5 1.5 0 0 0 240.915 -6.40857A 241 241 0 0 1 240.928 -5.90104A 1.5 1.5 0 0 0 241.959 -4.42899" stroke="#191919" stroke-width="0.35 px" style="stroke-width:0.35;stroke-miterlimit:4;stroke-dasharray:none;fill:none;fill-rule: evenodd "/>
<title>b'InvoluteGear'</title>
</g>
</svg>