<?xml version="1.0"?>
<!DOCTYPE svg PUBLIC "-//W3C//DTD SVG 1.1//EN" "http://www.w3.org/Graphics/SVG/1.1/DTD/svg11.dtd">
<svg width="277.42246011313165mm" height="277.2648085884203mm" viewBox="0 0 277.42246011313165 277.2648085884203" xmlns="http://www.w3.org/2000/svg" version="1.1">
<g id="InvoluteGear" transform="translate(138.711230,138.632404) scale(1,-1)">
<path id="InvoluteGear_w0000"  d="M 127.92860769412584 -4.2744980339734875 C 128.5483176022539 -4.138510211513941 129.23712096806642 -3.967805137668308 129.9919816467255 -3.7537971354655744 C 131.6795711405911 -3.2752776650096997 133.69343761722823 -2.58180088168007 135.99140201624098 -1.580566247784887 A 136 136 0 0 1 135.991 1.58057C 133.69343761722823 2.58180088168007 131.6795711405911 3.2752776650096997 129.9919816467255 3.7537971354655744 C 129.23712096806642 3.967805137668308 128.5483176022539 4.138510211513941 127.92863215404127 4.274490448326893 A 1.5 1.5 0 0 0 126.871 5.72238A 127 127 0 0 1 126.84 6.36339A 1.5 1.5 0 0 0 127.756 7.90524C 128.35963127293164 8.099523727835546 129.02908913488014 8.33493075845838 129.7601889920149 8.619723785216403 C 131.39465078248188 9.256492062468338 133.3334791566387 10.138258908241346 135.52586479221122 11.353395277615768 A 136 136 0 0 1 135.225 14.5002C 132.84264760381518 15.278479483015234 130.7719809113651 15.777385970764117 129.04654678588702 16.093323087998908 C 128.27476142090265 16.234607976038447 127.5728504611707 16.3390651615238 126.94304525336891 16.41552482249566 A 1.5 1.5 0 0 0 125.753 17.7563A 127 127 0 0 1 125.661 18.3915A 1.5 1.5 0 0 0 126.426 20.0134C 127.00850024582111 20.264207126063475 127.65254988983966 20.562184230940513 128.35326797193025 20.91518315250221 C 129.91980011992146 21.704433564425408 131.76603206160664 22.766505055541497 133.8329843499239 24.18453869726558 A 136 136 0 0 1 133.235 27.2885C 130.7888140025091 27.836793808221135 128.68009937246356 28.136611825978633 126.93244641400344 28.287105414534594 C 126.15072577047295 28.354387690586346 125.44206383116655 28.39165100726406 124.8078424772652 28.407897661865 A 1.5 1.5 0 0 0 123.495 29.6295A 127 127 0 0 1 123.344 30.2531A 1.5 1.5 0 0 0 123.951 31.9403C 124.5071605727316 32.245374726567675 125.11996938551042 32.60322337889425 125.78395988109655 33.02123138236273 C 127.26837562889631 33.95581635500836 129.0052913757498 35.18857420757814 130.9280916768133 36.7966631894045 A 136 136 0 0 1 130.037 39.8297C 127.55053664844743 40.143013818065626 125.4228709270387 40.24102816743497 123.66882615141905 40.224715334069614 C 122.8842496125427 40.21738567942274 122.17525444592323 40.18711766492662 121.54236055271485 40.143004180936714 A 1.5 1.5 0 0 0 120.12 41.2343A 127 127 0 0 1 119.91 41.8407A 1.5 1.5 0 0 0 120.353 43.578C 120.87826477308468 43.93452322022828 121.45428306311942 44.34900268719469 122.07553277145162 44.82823422736039 C 123.46438902018036 45.89969001449212 125.07625879423063 47.291970182505445 126.83749393076096 49.075551401595916 A 136 136 0 0 1 125.663 52.0102C 123.15714188280819 52.08569247847425 121.0297935402865 51.98101552632964 119.28524184861594 51.79804400258805 C 118.50491466102449 51.71616879573005 117.80200703711145 51.61864356188649 117.17617218969897 51.51456943784789 A 1.5 1.5 0 0 0 115.656 52.4657A 127 127 0 0 1 115.39 53.0494A 1.5 1.5 0 0 0 115.666 54.821C 116.15467668919032 55.22579386817726 116.68868794564784 55.69315055954692 117.26157073316453 56.22926564137128 C 118.54228978556407 57.4278889734618 120.0145162445331 58.96708275211723 121.59823619839983 60.91000382075734 A 136 136 0 0 1 120.15 63.7197C 117.64841696892304 63.556675042128795 115.54065160130634 63.25025475915849 113.82139192385513 62.902281563493496 C 113.05238085139604 62.74660227897637 112.36192641047953 62.58270302940521 111.74881826615407 62.4196107767015 A 1.5 1.5 0 0 0 110.145 63.2219A 127 127 0 0 1 109.824 63.7777A 1.5 1.5 0 0 0 109.931 65.5675C 110.37917386620204 66.01693117493029 110.86634200045012 66.5329326361342 111.38566975191448 67.12107611841672 C 112.54665321792201 68.43601207695922 113.86590365101749 70.1081802890472 115.2577660090733 72.19284581317056 A 136 136 0 0 1 113.549 74.8522C 111.07424977265929 74.45207851460722 109.0051556295122 73.94668989034416 107.32675784815329 73.4368663219007 C 106.57602717418308 73.20879281543256 105.90427877859956 72.98000384711834 105.30944973965826 72.75937045444545 A 1.5 1.5 0 0 0 103.637 73.4056A 127 127 0 0 1 103.265 73.9284A 1.5 1.5 0 0 0 103.201 75.7202C 103.6040601520435 76.21020892998847 104.03997329401855 76.77018217188915 104.50104289689342 77.40502773617803 C 105.53177673045808 78.82436805750905 106.68610380146687 80.61436728875924 107.87350364266199 82.82189821456099 A 136 136 0 0 1 105.919 85.3067C 103.49417697018124 84.6732324348678 101.48249208847129 83.97345234695464 99.86015603341899 83.30639544691667 C 99.13450449117465 83.00799318749016 98.48754559841734 82.7163864487588 97.9163825287484 82.4402100062867 A 1.5 1.5 0 0 0 96.19 82.9246A 127 127 0 0 1 95.7698 83.4095A 1.5 1.5 0 0 0 95.536 85.1872C 95.89069202566245 85.71331523153388 96.27140247844794 86.31218904973866 96.67003841501128 86.98798743629543 C 97.56118813092318 88.49887835467473 98.54013807513832 90.3904980948607 99.51232212263746 92.70090268043212 A 136 136 0 0 1 97.3309 94.9887C 94.97684487459145 94.1275724502238 93.04078738412453 93.23973821550035 91.48920518191835 92.42148895445091 C 90.79520438413637 92.05546031913613 90.17889395412212 91.70367664576999 89.63656939493126 91.37445825012868 A 1.5 1.5 0 0 0 87.872 91.6925A 127 127 0 0 1 87.4075 92.1354A 1.5 1.5 0 0 0 87.0059 93.8828C 87.30892294325602 94.44018847730729 87.63098293403704 95.07253937778063 87.96357509551704 95.78317045176664 C 88.70707030395097 97.37192910507012 89.50177759908344 99.3480385529002 90.24994160360605 101.74039341653938 A 136 136 0 0 1 87.8609 103.81C 85.59938776428912 102.7294785934554 83.75649090150479 101.66163057623582 82.28971392083635 100.69959914619201 C 81.63364884621012 100.2692589469913 81.05356828163119 99.86048414641144 80.54499360810748 99.48120525037261 A 1.5 1.5 0 0 0 78.7582 99.6301A 127 127 0 0 1 78.2537 100.027A 1.5 1.5 0 0 0 77.6878 101.728C 77.93647073455426 102.31179675180525 78.1969636381821 102.9718980668705 78.4605000184612 103.71092624323579 C 79.0496075116765 105.36316458707378 79.65287516539813 107.4058677893803 80.17024363786317 109.85850739497678 A 136 136 0 0 1 77.5953 111.692C 75.44672934300026 110.40105067049137 73.71368266726753 109.16285946777998 72.34499426760982 108.06575817434656 C 71.73280634304933 107.57500363874371 71.19420894332626 107.1129396388445 70.72398988646786 106.68703505082344 A 1.5 1.5 0 0 0 68.9311 106.665A 127 127 0 0 1 68.3912 107.012A 1.5 1.5 0 0 0 67.6661 108.652C 67.85821377811934 109.25685355154522 68.05478053052039 109.9387273014739 68.24687450332921 110.69945982661199 C 68.67625923264174 112.40021493468726 69.08262395966213 114.49101285494969 69.36451153106647 116.98172571843456 A 136 136 0 0 1 66.6269 118.562C 64.61081365756613 117.07281373662975 63.00331190794938 115.67549259969695 61.74510714339632 114.45325696207757 C 61.18234043754606 113.90653243914221 60.690103824134574 113.39536376305915 60.26249876053562 112.92669054095795 A 1.5 1.5 0 0 0 58.4798 112.735A 127 127 0 0 1 57.9094 113.029A 1.5 1.5 0 0 0 57.0317 114.592C 57.1654223296054 115.21246336668005 57.29628279183082 115.90993439720208 57.41519472440508 116.68548195956296 C 57.68096811521434 118.41935153024833 57.88674981363845 120.53930957873271 57.93060366648408 123.04553941871785 A 136 136 0 0 1 55.0551 124.359C 53.18977243841706 122.68434727239554 51.72237339968862 121.14055055783793 50.58604676742583 119.8042493312347 C 50.07779778272055 119.20650604290896 49.63637972661645 118.65086191332907 49.255261113949175 118.1436644344229 A 1.5 1.5 0 0 0 47.4989 117.783A 127 127 0 0 1 46.9031 118.022A 1.5 1.5 0 0 0 45.8808 119.495C 45.954931964189946 120.12469127247493 46.01890104362957 120.83144317793183 46.063554051093924 121.61478229869425 C 46.163309218416714 123.36606414066125 46.16664429731754 125.49598364899691 45.97206728432215 127.99503365995209 A 136 136 0 0 1 42.9848 129.029C 41.287036403425695 127.18483236112135 39.973029068512645 125.50854093104877 38.96887131848643 124.07027586630124 C 38.519742836435924 123.426927068367 38.133140887910564 122.83183948457136 37.80196019534897 122.29071100777071 A 1.5 1.5 0 0 0 36.0878 121.765A 127 127 0 0 1 35.472 121.946A 1.5 1.5 0 0 0 34.3143 123.315C 34.328266618609504 123.94905137233766 34.32476500137407 124.65868369803037 34.29475469917823 125.44272033681364 C 34.2275882447718 127.1955545705087 34.028446501158356 129.31614665780197 33.597200741882645 131.7853850558405 A 136 136 0 0 1 30.5252 132.531C 29.010398573309136 130.53351191292634 27.861682796115513 128.7399065221097 26.99878773640779 127.21270277036504 C 26.61284713409478 126.52957472916141 26.284562420260798 125.9004328964605 26.0063188714413 125.33027396504707 A 1.5 1.5 0 0 0 24.3499 124.644A 127 127 0 0 1 23.7198 124.765A 1.5 1.5 0 0 0 22.4371 126.018C 22.39071917466737 126.65090966898707 22.319778571944802 127.35699587468484 22.215376738032663 128.13462967427705 C 21.98189693170911 129.87314236144678 21.58208182404943 131.96520261737325 20.918072746869434 134.38226759719151 A 136 136 0 0 1 17.7891 134.832C 16.471038081341366 132.7000597672335 15.498016809828478 130.80538358383868 14.784198951722562 129.20307173876608 C 14.464941367005968 128.4863509676192 14.197946885067989 127.82885249187497 13.975160296655794 127.23482655342292 A 1.5 1.5 0 0 0 12.3915 126.394A 127 127 0 0 1 11.7527 126.455A 1.5 1.5 0 0 0 10.3567 127.58C 10.250397910590785 128.2057977152956 10.112660771464762 128.90194337497948 9.934812885011254 129.666131963272 C 9.537134156051879 131.37457886380597 8.940266471873827 133.41916126672447 8.049507445816852 135.76216351357343 A 136 136 0 0 1 4.89196 135.913C 3.782513317905594 133.664855331176 2.9939983833843304 131.6862668361177 2.435722171940664 130.02335768191023 C 2.1860388509459394 129.2795349151106 1.9827525442775107 128.59963420433553 1.8174405061166308 127.98712084973069 A 1.5 1.5 0 0 0 0.32087 127A 127 127 0 0 1 -0.32087 127A 1.5 1.5 0 0 0 -1.81743 127.987C -1.9827525442774947 128.59963420433553 -2.1860388509459234 129.2795349151106 -2.435722171940648 130.02335768191023 C -2.9939983833843145 131.6862668361177 -3.782513317905577 133.664855331176 -4.891955441162113 135.9125762538853 A 136 136 0 0 1 -8.04951 135.762C -8.940266471873809 133.41916126672447 -9.537134156051863 131.37457886380597 -9.934812885011238 129.666131963272 C -10.112660771464746 128.90194337497948 -10.25039791059077 128.2057977152956 -10.356738307083548 127.58034396032731 A 1.5 1.5 0 0 0 -11.7527 126.455A 127 127 0 0 1 -12.3915 126.394A 1.5 1.5 0 0 0 -13.9751 127.235C -14.197946885067944 127.82885249187498 -14.464941367005926 128.48635096761922 -14.78419895172252 129.20307173876608 C -15.498016809828432 130.80538358383868 -16.471038081341323 132.7000597672335 -17.78911602212785 134.83214365705896 A 136 136 0 0 1 -20.9181 134.382C -21.582081824049386 131.96520261737325 -21.981896931709063 129.87314236144678 -22.21537673803262 128.13462967427705 C -22.31977857194476 127.35699587468486 -22.390719174667332 126.65090966898708 -22.437124894394152 126.01817971971424 A 1.5 1.5 0 0 0 -23.7198 124.765A 127 127 0 0 1 -24.3499 124.644A 1.5 1.5 0 0 0 -26.0063 125.33C -26.284562420260784 125.9004328964605 -26.612847134094764 126.52957472916141 -26.998787736407778 127.21270277036504 C -27.8616827961155 128.7399065221097 -29.01039857330912 130.53351191292634 -30.525175613684457 132.5306502880003 A 136 136 0 0 1 -33.5972 131.785C -34.02844650115834 129.31614665780197 -34.22758824477179 127.1955545705087 -34.29475469917821 125.44272033681364 C -34.324765001374054 124.65868369803037 -34.32826661860949 123.94905137233766 -34.314317404186404 123.31477532916153 A 1.5 1.5 0 0 0 -35.472 121.946A 127 127 0 0 1 -36.0878 121.765A 1.5 1.5 0 0 0 -37.8019 122.291C -38.13314088791052 122.83183948457138 -38.51974283643588 123.42692706836701 -38.968871318486386 124.07027586630126 C -39.9730290685126 125.50854093104878 -41.28703640342565 127.18483236112137 -42.984794487943134 129.02893882705465 A 136 136 0 0 1 -45.9721 127.995C -46.1666442973175 125.49598364899693 -46.16330921841667 123.36606414066127 -46.06355405109388 121.61478229869427 C -46.018901043629526 120.83144317793185 -45.9549319641899 120.12469127247495 -45.88075414186281 119.49461323746262 A 1.5 1.5 0 0 0 -46.9031 118.022A 127 127 0 0 1 -47.4989 117.783A 1.5 1.5 0 0 0 -49.2552 118.144C -49.63637972661643 118.65086191332908 -50.07779778272054 119.20650604290897 -50.58604676742581 119.80424933123471 C -51.72237339968861 121.14055055783794 -53.189772438417044 122.68434727239556 -55.05513640695893 124.35872131546567 A 136 136 0 0 1 -57.9306 123.046C -57.88674981363844 120.53930957873273 -57.68096811521433 118.41935153024835 -57.41519472440507 116.68548195956298 C -57.296282791830805 115.9099343972021 -57.165422329605384 115.21246336668007 -57.031687665220005 114.59228942408662 A 1.5 1.5 0 0 0 -57.9094 113.029A 127 127 0 0 1 -58.4798 112.735A 1.5 1.5 0 0 0 -60.2625 112.927C -60.69010382413453 113.39536376305918 -61.18234043754602 113.90653243914224 -61.745107143396275 114.45325696207759 C -63.00331190794934 115.67549259969698 -64.61081365756608 117.0728137366298 -66.6268904851745 118.56229196621948 A 136 136 0 0 1 -69.3645 116.982C -69.08262395966209 114.49101285494973 -68.6762592326417 112.40021493468728 -68.24687450332917 110.69945982661203 C -68.05478053052035 109.93872730147393 -67.8582137781193 109.25685355154525 -67.66613339350563 108.65220009263108 A 1.5 1.5 0 0 0 -68.3912 107.012A 127 127 0 0 1 -68.9311 106.665A 1.5 1.5 0 0 0 -70.724 106.687C -71.19420894332623 107.11293963884452 -71.7328063430493 107.57500363874374 -72.34499426760979 108.06575817434658 C -73.7136826672675 109.16285946778002 -75.44672934300023 110.4010506704914 -77.59526112572713 111.6921441411021 A 136 136 0 0 1 -80.1702 109.859C -79.6528751653981 107.40586778938032 -79.04960751167647 105.36316458707383 -78.46050001846118 103.71092624323582 C -78.19696363818207 102.97189806687052 -77.93647073455423 102.31179675180528 -77.68778413941972 101.72813961192726 A 1.5 1.5 0 0 0 -78.2537 100.027A 127 127 0 0 1 -78.7582 99.6301A 1.5 1.5 0 0 0 -80.545 99.4812C -81.05356828163116 99.86048414641147 -81.6336488462101 100.26925894699133 -82.28971392083632 100.69959914619204 C -83.75649090150476 101.66163057623585 -85.59938776428909 102.72947859345543 -87.86091706560174 103.8104949626865 A 136 136 0 0 1 -90.2499 101.74C -89.50177759908341 99.34803855290023 -88.70707030395094 97.37192910507015 -87.96357509551702 95.78317045176667 C -87.63098293403701 95.07253937778066 -87.308922943256 94.44018847730732 -87.00588228191624 93.88281334590572 A 1.5 1.5 0 0 0 -87.4075 92.1354A 127 127 0 0 1 -87.872 91.6925A 1.5 1.5 0 0 0 -89.6365 91.3744C -90.17889395412212 91.70367664576999 -90.79520438413637 92.05546031913613 -91.48920518191835 92.42148895445091 C -93.04078738412453 93.23973821550035 -94.97684487459145 94.1275724502238 -97.33089093493068 94.988721866436 A 136 136 0 0 1 -99.5123 92.7009C -98.54013807513832 90.3904980948607 -97.56118813092318 88.49887835467473 -96.67003841501128 86.98798743629543 C -96.27140247844794 86.31218904973866 -95.89069202566245 85.71331523153388 -95.53604168127356 85.18726978411034 A 1.5 1.5 0 0 0 -95.7698 83.4095A 127 127 0 0 1 -96.19 82.9246A 1.5 1.5 0 0 0 -97.9164 82.4402C -98.48754559841731 82.71638644875883 -99.13450449117462 83.00799318749019 -99.86015603341896 83.3063954469167 C -101.48249208847126 83.97345234695467 -103.4941769701812 84.67323243486783 -105.91942118389154 85.30671619559563 A 136 136 0 0 1 -107.874 82.8219C -106.68610380146683 80.61436728875927 -105.53177673045805 78.82436805750908 -104.5010428968934 77.40502773617806 C -104.03997329401852 76.77018217188918 -103.60406015204347 76.2102089299885 -103.2010118930432 75.72025711557505 A 1.5 1.5 0 0 0 -103.265 73.9284A 127 127 0 0 1 -103.637 73.4056A 1.5 1.5 0 0 0 -105.309 72.7594C -105.90427877859955 72.98000384711837 -106.57602717418307 73.20879281543259 -107.32675784815328 73.43686632190072 C -109.00515562951219 73.94668989034419 -111.07424977265927 74.45207851460725 -113.54872875258299 74.8521596928161 A 136 136 0 0 1 -115.258 72.1928C -113.86590365101748 70.10818028904723 -112.546653217922 68.43601207695924 -111.38566975191446 67.12107611841675 C -110.8663420004501 66.53293263613423 -110.37917386620202 66.01693117493032 -109.93137776003744 65.56751007302921 A 1.5 1.5 0 0 0 -109.824 63.7777A 127 127 0 0 1 -110.145 63.2219A 1.5 1.5 0 0 0 -111.749 62.4196C -112.36192641047951 62.58270302940523 -113.05238085139602 62.74660227897639 -113.82139192385512 62.90228156349352 C -115.54065160130632 63.25025475915851 -117.64841696892303 63.556675042128816 -120.14972145023539 63.71973044071478 A 136 136 0 0 1 -121.598 60.91C -120.01451624453308 58.96708275211725 -118.54228978556405 57.42788897346182 -117.26157073316452 56.2292656413713 C -116.68868794564783 55.69315055954694 -116.15467668919031 55.225793868177284 -115.6661880467418 54.82097350588188 A 1.5 1.5 0 0 0 -115.39 53.0494A 127 127 0 0 1 -115.656 52.4657A 1.5 1.5 0 0 0 -117.176 51.5146C -117.80200703711145 51.6186435618865 -118.50491466102449 51.716168795730056 -119.28524184861594 51.79804400258806 C -121.0297935402865 51.98101552632966 -123.15714188280819 52.08569247847426 -125.66261966478984 52.01024544249797 A 136 136 0 0 1 -126.837 49.0756C -125.07625879423063 47.29197018250545 -123.46438902018036 45.89969001449212 -122.07553277145162 44.8282342273604 C -121.45428306311942 44.3490026871947 -120.87826477308468 43.934523220228286 -120.35350742314256 43.577969713427535 A 1.5 1.5 0 0 0 -119.91 41.8407A 127 127 0 0 1 -120.12 41.2343A 1.5 1.5 0 0 0 -121.542 40.143C -122.17525444592322 40.18711766492667 -122.88424961254269 40.21738567942279 -123.66882615141904 40.224715334069664 C -125.42287092703867 40.24102816743502 -127.5505366484474 40.143013818065675 -130.0374977363219 39.82974760756821 A 136 136 0 0 1 -130.928 36.7967C -129.00529137574978 35.18857420757819 -127.26837562889631 33.95581635500841 -125.78395988109654 33.02123138236278 C -125.1199693855104 32.6032233788943 -124.50716057273159 32.245374726567725 -123.95088679911764 31.940317079032887 A 1.5 1.5 0 0 0 -123.344 30.2531A 127 127 0 0 1 -123.495 29.6295A 1.5 1.5 0 0 0 -124.808 28.4079C -125.44206383116654 28.3916510072641 -126.15072577047293 28.354387690586385 -126.93244641400342 28.287105414534633 C -128.68009937246356 28.136611825978676 -130.78881400250907 27.836793808221174 -133.23473609154917 27.288545410515262 A 136 136 0 0 1 -133.833 24.1845C -131.7660320616066 22.766505055541536 -129.91980011992146 21.70443356442545 -128.35326797193022 20.915183152502248 C -127.65254988983965 20.562184230940552 -127.0085002458211 20.264207126063518 -126.4257477499703 20.013407987090023 A 1.5 1.5 0 0 0 -125.661 18.3915A 127 127 0 0 1 -125.753 17.7563A 1.5 1.5 0 0 0 -126.943 16.4155C -127.5728504611707 16.339065161523827 -128.27476142090265 16.234607976038475 -129.04654678588702 16.093323087998936 C -130.7719809113651 15.777385970764147 -132.84264760381518 15.278479483015262 -135.2253800448221 14.500213920488894 A 136 136 0 0 1 -135.526 11.3534C -133.3334791566387 10.138258908241374 -131.39465078248188 9.256492062468368 -129.7601889920149 8.619723785216431 C -129.02908913488014 8.334930758458409 -128.35963127293164 8.099523727835575 -127.75567755168787 7.905254373263172 A 1.5 1.5 0 0 0 -126.84 6.36339A 127 127 0 0 1 -126.871 5.72238A 1.5 1.5 0 0 0 -127.929 4.2745C -128.5483176022539 4.138510211513957 -129.23712096806642 3.967805137668324 -129.9919816467255 3.7537971354655904 C -131.6795711405911 3.2752776650097157 -133.69343761722823 2.5818008816800866 -135.99140201624098 1.5805662477849036 A 136 136 0 0 1 -135.991 -1.58057C -133.69343761722823 -2.5818008816800537 -131.6795711405911 -3.2752776650096838 -129.9919816467255 -3.7537971354655584 C -129.23712096806642 -3.967805137668292 -128.5483176022539 -4.138510211513925 -127.92863215404127 -4.274490448326877 A 1.5 1.5 0 0 0 -126.871 -5.72238A 127 127 0 0 1 -126.84 -6.36339A 1.5 1.5 0 0 0 -127.756 -7.90524C -128.35963127293164 -8.099523727835543 -129.02908913488014 -8.334930758458377 -129.7601889920149 -8.619723785216399 C -131.39465078248188 -9.256492062468334 -133.3334791566387 -10.138258908241342 -135.52586479221122 -11.353395277615764 A 136 136 0 0 1 -135.225 -14.5002C -132.84264760381518 -15.27847948301523 -130.7719809113651 -15.777385970764113 -129.04654678588702 -16.093323087998904 C -128.27476142090265 -16.234607976038443 -127.5728504611707 -16.339065161523795 -126.94304525336891 -16.415524822495655 A 1.5 1.5 0 0 0 -125.753 -17.7563A 127 127 0 0 1 -125.661 -18.3915A 1.5 1.5 0 0 0 -126.426 -20.0134C -127.00850024582112 -20.26420712606343 -127.65254988983968 -20.562184230940467 -128.35326797193025 -20.915183152502163 C -129.9198001199215 -21.704433564425358 -131.76603206160664 -22.766505055541447 -133.83298434992392 -24.18453869726553 A 136 136 0 0 1 -133.235 -27.2885C -130.7888140025091 -27.836793808221085 -128.6800993724636 -28.13661182597859 -126.93244641400345 -28.287105414534548 C -126.15072577047296 -28.3543876905863 -125.44206383116656 -28.391651007264013 -124.80784247726523 -28.407897661864958 A 1.5 1.5 0 0 0 -123.495 -29.6295A 127 127 0 0 1 -123.344 -30.2531A 1.5 1.5 0 0 0 -123.951 -31.9403C -124.50716057273162 -32.24537472656765 -125.11996938551043 -32.60322337889422 -125.78395988109656 -33.0212313823627 C -127.26837562889632 -33.95581635500833 -129.0052913757498 -35.188574207578114 -130.92809167681332 -36.79666318940447 A 136 136 0 0 1 -130.037 -39.8297C -127.55053664844743 -40.1430138180656 -125.42287092703872 -40.24102816743494 -123.66882615141907 -40.224715334069586 C -122.88424961254272 -40.21738567942271 -122.17525444592324 -40.18711766492659 -121.54236055271487 -40.143004180936686 A 1.5 1.5 0 0 0 -120.12 -41.2343A 127 127 0 0 1 -119.91 -41.8407A 1.5 1.5 0 0 0 -120.353 -43.578C -120.8782647730847 -43.93452322022826 -121.45428306311943 -44.34900268719467 -122.07553277145163 -44.82823422736037 C -123.46438902018038 -45.899690014492094 -125.07625879423064 -47.29197018250542 -126.83749393076097 -49.075551401595895 A 136 136 0 0 1 -125.663 -52.0102C -123.1571418828082 -52.08569247847423 -121.02979354028652 -51.98101552632963 -119.28524184861595 -51.79804400258803 C -118.5049146610245 -51.71616879573003 -117.80200703711147 -51.61864356188647 -117.17617218969899 -51.51456943784787 A 1.5 1.5 0 0 0 -115.656 -52.4657A 127 127 0 0 1 -115.39 -53.0494A 1.5 1.5 0 0 0 -115.666 -54.821C -116.15467668919032 -55.225793868177256 -116.68868794564784 -55.693150559546915 -117.26157073316453 -56.22926564137127 C -118.54228978556407 -57.42788897346179 -120.01451624453308 -58.96708275211722 -121.59823619839983 -60.91000382075733 A 136 136 0 0 1 -120.15 -63.7197C -117.64841696892306 -63.55667504212879 -115.54065160130634 -63.25025475915848 -113.82139192385513 -62.90228156349349 C -113.05238085139604 -62.74660227897636 -112.36192641047953 -62.5827030294052 -111.74881826615407 -62.41961077670149 A 1.5 1.5 0 0 0 -110.145 -63.2219A 127 127 0 0 1 -109.824 -63.7777A 1.5 1.5 0 0 0 -109.931 -65.5675C -110.37917386620207 -66.01693117493025 -110.86634200045015 -66.53293263613416 -111.3856697519145 -67.12107611841668 C -112.54665321792204 -68.43601207695916 -113.8659036510175 -70.10818028904716 -115.25776600907332 -72.19284581317052 A 136 136 0 0 1 -113.549 -74.8522C -111.07424977265933 -74.45207851460718 -109.00515562951223 -73.9466898903441 -107.32675784815332 -73.43686632190065 C -106.57602717418311 -73.20879281543252 -105.90427877859959 -72.9800038471183 -105.30944973965829 -72.75937045444542 A 1.5 1.5 0 0 0 -103.637 -73.4056A 127 127 0 0 1 -103.265 -73.9284A 1.5 1.5 0 0 0 -103.201 -75.7202C -103.60406015204353 -76.21020892998844 -104.03997329401858 -76.77018217188912 -104.50104289689344 -77.405027736178 C -105.53177673045809 -78.824368057509 -106.6861038014669 -80.61436728875921 -107.87350364266202 -82.82189821456095 A 136 136 0 0 1 -105.919 -85.3067C -103.49417697018127 -84.67323243486777 -101.48249208847133 -83.97345234695463 -99.86015603341903 -83.30639544691664 C -99.13450449117468 -83.00799318749013 -98.48754559841737 -82.71638644875877 -97.91638252874843 -82.44021000628668 A 1.5 1.5 0 0 0 -96.19 -82.9246A 127 127 0 0 1 -95.7698 -83.4095A 1.5 1.5 0 0 0 -95.536 -85.1872C -95.89069202566246 -85.71331523153387 -96.27140247844795 -86.31218904973865 -96.67003841501129 -86.98798743629541 C -97.5611881309232 -88.49887835467472 -98.54013807513833 -90.39049809486069 -99.51232212263747 -92.70090268043211 A 136 136 0 0 1 -97.3309 -94.9887C -94.97684487459146 -94.12757245022378 -93.04078738412454 -93.23973821550034 -91.48920518191836 -92.4214889544509 C -90.79520438413638 -92.05546031913612 -90.17889395412213 -91.70367664576997 -89.63656939493127 -91.37445825012867 A 1.5 1.5 0 0 0 -87.872 -91.6925A 127 127 0 0 1 -87.4075 -92.1354A 1.5 1.5 0 0 0 -87.0059 -93.8828C -87.30892294325602 -94.44018847730729 -87.63098293403704 -95.07253937778063 -87.96357509551704 -95.78317045176664 C -88.70707030395097 -97.37192910507012 -89.50177759908344 -99.3480385529002 -90.24994160360605 -101.74039341653938 A 136 136 0 0 1 -87.8609 -103.81C -85.59938776428912 -102.7294785934554 -83.75649090150479 -101.66163057623582 -82.28971392083635 -100.69959914619201 C -81.63364884621012 -100.2692589469913 -81.05356828163119 -99.86048414641144 -80.54499360810748 -99.48120525037261 A 1.5 1.5 0 0 0 -78.7582 -99.6301A 127 127 0 0 1 -78.2537 -100.027A 1.5 1.5 0 0 0 -77.6878 -101.728C -77.93647073455426 -102.31179675180525 -78.1969636381821 -102.9718980668705 -78.4605000184612 -103.71092624323579 C -79.0496075116765 -105.36316458707378 -79.65287516539813 -107.4058677893803 -80.17024363786317 -109.85850739497678 A 136 136 0 0 1 -77.5953 -111.692C -75.44672934300026 -110.40105067049137 -73.71368266726753 -109.16285946777998 -72.34499426760982 -108.06575817434656 C -71.73280634304933 -107.57500363874371 -71.19420894332626 -107.1129396388445 -70.72398988646786 -106.68703505082344 A 1.5 1.5 0 0 0 -68.9311 -106.665A 127 127 0 0 1 -68.3912 -107.012A 1.5 1.5 0 0 0 -67.6661 -108.652C -67.85821377811938 -109.25685355154519 -68.05478053052043 -109.93872730147388 -68.24687450332925 -110.69945982661196 C -68.67625923264178 -112.40021493468723 -69.08262395966217 -114.49101285494966 -69.36451153106651 -116.98172571843453 A 136 136 0 0 1 -66.6269 -118.562C -64.61081365756617 -117.07281373662973 -63.003311907949424 -115.67549259969692 -61.74510714339636 -114.45325696207755 C -61.1823404375461 -113.90653243914218 -60.69010382413462 -113.39536376305912 -60.26249876053567 -112.92669054095792 A 1.5 1.5 0 0 0 -58.4798 -112.735A 127 127 0 0 1 -57.9094 -113.029A 1.5 1.5 0 0 0 -57.0317 -114.592C -57.165422329605384 -115.21246336668007 -57.296282791830805 -115.9099343972021 -57.41519472440507 -116.68548195956298 C -57.68096811521433 -118.41935153024835 -57.88674981363844 -120.53930957873273 -57.93060366648407 -123.04553941871787 A 136 136 0 0 1 -55.0551 -124.359C -53.189772438417044 -122.68434727239556 -51.72237339968861 -121.14055055783794 -50.58604676742581 -119.80424933123471 C -50.07779778272054 -119.20650604290897 -49.63637972661643 -118.65086191332908 -49.25526111394916 -118.14366443442292 A 1.5 1.5 0 0 0 -47.4989 -117.783A 127 127 0 0 1 -46.9031 -118.022A 1.5 1.5 0 0 0 -45.8808 -119.495C -45.95493196418997 -120.12469127247492 -46.018901043629576 -120.83144317793182 -46.06355405109394 -121.61478229869424 C -46.16330921841673 -123.36606414066124 -46.16664429731755 -125.4959836489969 -45.972067284322165 -127.99503365995206 A 136 136 0 0 1 -42.9848 -129.029C -41.28703640342571 -127.18483236112134 -39.97302906851266 -125.50854093104876 -38.96887131848644 -124.07027586630123 C -38.519742836435945 -123.42692706836698 -38.133140887910585 -122.83183948457135 -37.80196019534898 -122.2907110077707 A 1.5 1.5 0 0 0 -36.0878 -121.765A 127 127 0 0 1 -35.472 -121.946A 1.5 1.5 0 0 0 -34.3143 -123.315C -34.32826661860958 -123.94905137233765 -34.32476500137414 -124.65868369803036 -34.2947546991783 -125.44272033681362 C -34.22758824477188 -127.19555457050869 -34.028446501158435 -129.31614665780194 -33.59720074188272 -131.7853850558405 A 136 136 0 0 1 -30.5252 -132.531C -29.010398573309214 -130.53351191292631 -27.86168279611559 -128.73990652210966 -26.998787736407866 -127.21270277036503 C -26.612847134094853 -126.5295747291614 -26.284562420260873 -125.90043289646049 -26.00631887144138 -125.33027396504706 A 1.5 1.5 0 0 0 -24.3499 -124.644A 127 127 0 0 1 -23.7198 -124.765A 1.5 1.5 0 0 0 -22.4371 -126.018C -22.39071917466736 -126.65090966898707 -22.31977857194479 -127.35699587468484 -22.215376738032653 -128.13462967427705 C -21.981896931709098 -129.87314236144678 -21.582081824049418 -131.96520261737325 -20.918072746869424 -134.38226759719151 A 136 136 0 0 1 -17.7891 -134.832C -16.471038081341355 -132.7000597672335 -15.498016809828467 -130.80538358383868 -14.784198951722551 -129.20307173876608 C -14.464941367005958 -128.4863509676192 -14.197946885067978 -127.82885249187497 -13.975160296655783 -127.23482655342292 A 1.5 1.5 0 0 0 -12.3915 -126.394A 127 127 0 0 1 -11.7527 -126.455A 1.5 1.5 0 0 0 -10.3567 -127.58C -10.25039791059083 -128.2057977152956 -10.112660771464807 -128.90194337497948 -9.934812885011299 -129.666131963272 C -9.537134156051923 -131.37457886380597 -8.940266471873871 -133.41916126672447 -8.049507445816898 -135.76216351357343 A 136 136 0 0 1 -4.89196 -135.913C -3.7825133179056394 -133.664855331176 -2.9939983833843757 -131.6862668361177 -2.4357221719407085 -130.02335768191023 C -2.186038850945983 -129.2795349151106 -1.982752544277555 -128.59963420433553 -1.8174405061166743 -127.98712084973069 A 1.5 1.5 0 0 0 -0.32087 -127A 127 127 0 0 1 0.32087 -127A 1.5 1.5 0 0 0 1.81743 -127.987C 1.982752544277508 -128.59963420433553 2.1860388509459368 -129.2795349151106 2.4357221719406614 -130.02335768191023 C 2.9939983833843278 -131.6862668361177 3.7825133179055914 -133.664855331176 4.8919554411621275 -135.9125762538853 A 136 136 0 0 1 8.04951 -135.762C 8.940266471873823 -133.41916126672447 9.537134156051875 -131.37457886380597 9.934812885011253 -129.666131963272 C 10.11266077146476 -128.90194337497948 10.250397910590783 -128.2057977152956 10.35673830708356 -127.58034396032731 A 1.5 1.5 0 0 0 11.7527 -126.455A 127 127 0 0 1 12.3915 -126.394A 1.5 1.5 0 0 0 13.9751 -127.235C 14.197946885067926 -127.82885249187498 14.464941367005908 -128.48635096761922 14.784198951722502 -129.20307173876608 C 15.498016809828414 -130.80538358383868 16.4710380813413 -132.7000597672335 17.78911602212783 -134.83214365705896 A 136 136 0 0 1 20.9181 -134.382C 21.582081824049364 -131.96520261737325 21.981896931709045 -129.87314236144678 22.215376738032603 -128.13462967427705 C 22.319778571944745 -127.35699587468486 22.39071917466731 -126.65090966898708 22.437124894394135 -126.01817971971424 A 1.5 1.5 0 0 0 23.7198 -124.765A 127 127 0 0 1 24.3499 -124.644A 1.5 1.5 0 0 0 26.0063 -125.33C 26.28456242026071 -125.90043289646053 26.612847134094693 -126.52957472916144 26.998787736407706 -127.21270277036507 C 27.861682796115424 -128.73990652210972 29.010398573309047 -130.53351191292637 30.525175613684375 -132.53065028800032 A 136 136 0 0 1 33.5972 -131.785C 34.02844650115827 -129.316146657802 34.22758824477172 -127.19555457050875 34.29475469917814 -125.44272033681366 C 34.32476500137398 -124.6586836980304 34.32826661860942 -123.94905137233769 34.31431740418633 -123.31477532916158 A 1.5 1.5 0 0 0 35.472 -121.946A 127 127 0 0 1 36.0878 -121.765A 1.5 1.5 0 0 0 37.8019 -122.291C 38.133140887910535 -122.83183948457138 38.519742836435896 -123.42692706836701 38.9688713184864 -124.07027586630126 C 39.973029068512616 -125.50854093104878 41.28703640342567 -127.18483236112137 42.98479448794315 -129.02893882705465 A 136 136 0 0 1 45.9721 -127.995C 46.16664429731751 -125.49598364899693 46.163309218416686 -123.36606414066127 46.063554051093895 -121.61478229869427 C 46.01890104362954 -120.83144317793185 45.95493196418992 -120.12469127247495 45.88075414186282 -119.49461323746262 A 1.5 1.5 0 0 0 46.9031 -118.022A 127 127 0 0 1 47.4989 -117.783A 1.5 1.5 0 0 0 49.2552 -118.144C 49.6363797266164 -118.6508619133291 50.077797782720495 -119.20650604290897 50.58604676742578 -119.80424933123473 C 51.722373399688564 -121.14055055783795 53.18977243841701 -122.68434727239557 55.055136406958894 -124.35872131546569 A 136 136 0 0 1 57.9306 -123.046C 57.8867498136384 -120.53930957873274 57.680968115214284 -118.41935153024836 57.41519472440503 -116.68548195956299 C 57.29628279183076 -115.90993439720212 57.16542232960535 -115.21246336668008 57.03168766521997 -114.59228942408663 A 1.5 1.5 0 0 0 57.9094 -113.029A 127 127 0 0 1 58.4798 -112.735A 1.5 1.5 0 0 0 60.2625 -112.927C 60.69010382413446 -113.39536376305921 61.182340437545946 -113.90653243914227 61.745107143396204 -114.45325696207762 C 63.00331190794927 -115.67549259969702 64.61081365756601 -117.07281373662983 66.62689048517443 -118.5622919662195 A 136 136 0 0 1 69.3645 -116.982C 69.08262395966202 -114.49101285494976 68.67625923264163 -112.40021493468733 68.2468745033291 -110.69945982661206 C 68.05478053052028 -109.93872730147396 67.85821377811924 -109.25685355154528 67.66613339350556 -108.65220009263112 A 1.5 1.5 0 0 0 68.3912 -107.012A 127 127 0 0 1 68.9311 -106.665A 1.5 1.5 0 0 0 70.724 -106.687C 71.19420894332622 -107.11293963884454 71.73280634304929 -107.57500363874374 72.34499426760978 -108.0657581743466 C 73.71368266726749 -109.16285946778004 75.44672934300021 -110.40105067049141 77.59526112572712 -111.69214414110212 A 136 136 0 0 1 80.1702 -109.859C 79.65287516539809 -107.40586778938034 79.04960751167646 -105.36316458707384 78.46050001846116 -103.71092624323583 C 78.19696363818205 -102.97189806687055 77.93647073455422 -102.31179675180529 77.6877841394197 -101.72813961192728 A 1.5 1.5 0 0 0 78.2537 -100.027A 127 127 0 0 1 78.7582 -99.6301A 1.5 1.5 0 0 0 80.545 -99.4812C 81.0535682816311 -99.86048414641151 81.63364884621002 -100.26925894699137 82.28971392083626 -100.69959914619209 C 83.7564909015047 -101.6616305762359 85.59938776428903 -102.72947859345547 87.86091706560168 -103.81049496268655 A 136 136 0 0 1 90.2499 -101.74C 89.50177759908335 -99.34803855290028 88.70707030395089 -97.3719291050702 87.96357509551696 -95.78317045176671 C 87.63098293403696 -95.0725393777807 87.30892294325594 -94.44018847730736 87.00588228191619 -93.88281334590576 A 1.5 1.5 0 0 0 87.4075 -92.1354A 127 127 0 0 1 87.872 -91.6925A 1.5 1.5 0 0 0 89.6365 -91.3744C 90.1788939541221 -91.70367664577 90.79520438413635 -92.05546031913615 91.48920518191834 -92.42148895445092 C 93.04078738412451 -93.23973821550037 94.97684487459144 -94.12757245022381 97.33089093493066 -94.98872186643601 A 136 136 0 0 1 99.5123 -92.7009C 98.5401380751383 -90.39049809486072 97.56118813092317 -88.49887835467474 96.67003841501126 -86.98798743629544 C 96.27140247844792 -86.31218904973868 95.89069202566243 -85.7133152315339 95.53604168127355 -85.18726978411036 A 1.5 1.5 0 0 0 95.7698 -83.4095A 127 127 0 0 1 96.19 -82.9246A 1.5 1.5 0 0 0 97.9164 -82.4402C 98.48754559841728 -82.71638644875884 99.13450449117461 -83.0079931874902 99.86015603341895 -83.30639544691671 C 101.48249208847125 -83.97345234695469 103.49417697018119 -84.67323243486784 105.91942118389153 -85.30671619559564 A 136 136 0 0 1 107.874 -82.8219C 106.68610380146681 -80.61436728875928 105.53177673045803 -78.82436805750909 104.50104289689338 -77.40502773617807 C 104.03997329401851 -76.77018217188919 103.60406015204344 -76.21020892998851 103.20101189304319 -75.72025711557507 A 1.5 1.5 0 0 0 103.265 -73.9284A 127 127 0 0 1 103.637 -73.4056A 1.5 1.5 0 0 0 105.309 -72.7594C 105.9042787785995 -72.98000384711843 106.57602717418303 -73.20879281543264 107.32675784815324 -73.43686632190078 C 109.00515562951215 -73.94668989034425 111.07424977265921 -74.45207851460731 113.54872875258295 -74.85215969281617 A 136 136 0 0 1 115.258 -72.1928C 113.86590365101742 -70.10818028904728 112.54665321792196 -68.4360120769593 111.38566975191442 -67.12107611841681 C 110.86634200045006 -66.53293263613429 110.37917386620198 -66.01693117493038 109.93137776003739 -65.56751007302927 A 1.5 1.5 0 0 0 109.824 -63.7777A 127 127 0 0 1 110.145 -63.2219A 1.5 1.5 0 0 0 111.749 -62.4196C 112.36192641047951 -62.582703029405245 113.05238085139602 -62.746602278976404 113.82139192385512 -62.90228156349353 C 115.54065160130632 -63.25025475915852 117.64841696892303 -63.55667504212883 120.14972145023539 -63.71973044071479 A 136 136 0 0 1 121.598 -60.91C 120.01451624453308 -58.967082752117264 118.54228978556405 -57.42788897346183 117.26157073316452 -56.22926564137131 C 116.68868794564783 -55.69315055954696 116.15467668919031 -55.2257938681773 115.6661880467418 -54.820973505881895 A 1.5 1.5 0 0 0 115.39 -53.0494A 127 127 0 0 1 115.656 -52.4657A 1.5 1.5 0 0 0 117.176 -51.5146C 117.80200703711142 -51.618643561886564 118.50491466102446 -51.71616879573012 119.28524184861591 -51.79804400258812 C 121.02979354028648 -51.98101552632971 123.15714188280816 -52.08569247847433 125.66261966478982 -52.01024544249804 A 136 136 0 0 1 126.837 -49.0756C 125.0762587942306 -47.29197018250552 123.46438902018033 -45.899690014492194 122.07553277145159 -44.82823422736046 C 121.45428306311939 -44.34900268719476 120.87826477308465 -43.93452322022835 120.35350742314253 -43.5779697134276 A 1.5 1.5 0 0 0 119.91 -41.8407A 127 127 0 0 1 120.12 -41.2343A 1.5 1.5 0 0 0 121.542 -40.143C 122.17525444592323 -40.187117664926625 122.8842496125427 -40.21738567942275 123.66882615141905 -40.22471533406962 C 125.4228709270387 -40.241028167434976 127.55053664844743 -40.14301381806563 130.0374977363219 -39.82974760756816 A 136 136 0 0 1 130.928 -36.7967C 129.0052913757498 -35.18857420757815 127.26837562889631 -33.955816355008366 125.78395988109655 -33.021231382362735 C 125.11996938551042 -32.603223378894256 124.5071605727316 -32.24537472656768 123.95088679911765 -31.940317079032845 A 1.5 1.5 0 0 0 123.344 -30.2531A 127 127 0 0 1 123.495 -29.6295A 1.5 1.5 0 0 0 124.808 -28.4079C 125.44206383116654 -28.39165100726412 126.15072577047293 -28.354387690586403 126.93244641400342 -28.287105414534654 C 128.68009937246356 -28.136611825978694 130.78881400250907 -27.83679380822119 133.23473609154917 -27.28854541051528 A 136 136 0 0 1 133.833 -24.1845C 131.7660320616066 -22.766505055541554 129.91980011992146 -21.704433564425468 128.35326797193022 -20.91518315250227 C 127.65254988983965 -20.56218423094057 127.0085002458211 -20.264207126063535 126.4257477499703 -20.01340798709004 A 1.5 1.5 0 0 0 125.661 -18.3915A 127 127 0 0 1 125.753 -17.7563A 1.5 1.5 0 0 0 126.943 -16.4155C 127.57285046117067 -16.339065161523898 128.2747614209026 -16.23460797603855 129.046546785887 -16.09332308799901 C 130.77198091136506 -15.777385970764222 132.84264760381515 -15.278479483015339 135.2253800448221 -14.50021392048897 A 136 136 0 0 1 135.526 -11.3534C 133.33347915663867 -10.13825890824145 131.39465078248185 -9.256492062468443 129.76018899201486 -8.619723785216507 C 129.02908913488014 -8.334930758458484 128.35963127293164 -8.099523727835649 127.75567755168785 -7.9052543732632445 A 1.5 1.5 0 0 0 126.84 -6.36339A 127 127 0 0 1 126.871 -5.72238A 1.5 1.5 0 0 0 127.929 -4.2745" stroke="#191919" stroke-width="0.35 px" style="stroke-width:0.35;stroke-miterlimit:4;stroke-dasharray:none;fill:none;fill-rule: evenodd "/>
<title>b'InvoluteGear'</title>
</g>
</svg>