<?xml version="1.0"?>
<!DOCTYPE svg PUBLIC "-//W3C//DTD SVG 1.1//EN" "http://www.w3.org/Graphics/SVG/1.1/DTD/svg11.dtd">
<svg width="673.1615047333494mm" height="673.1921504975503mm" viewBox="0 0 673.1615047333494 673.1921504975503" xmlns="http://www.w3.org/2000/svg" version="1.1">
<g id="InvoluteGear" transform="translate(336.565919,336.596075) scale(1,-1)">
<path id="InvoluteGear_w0000"  d="M 321.96895536092524 -4.471217260940568 C 322.6257898694155 -4.2685592721882575 323.3015991631851 -4.052569951010819 323.9959716825612 -3.8224161502420637 C 325.8646069460737 -3.2030411832465937 327.86743886790833 -2.4811964065468244 329.99596306952293 -1.6408671770256635 A 330 330 0 0 1 329.996 1.64087C 327.86743886790833 2.4811964065468244 325.8646069460737 3.2030411832465937 323.9959716825612 3.8224161502420637 C 323.3015991631851 4.052569951010819 322.6257898694155 4.2685592721882575 321.96895618669816 4.471216905178174 A 1.5 1.5 0 0 0 320.945 5.95015A 321 321 0 0 1 320.936 6.42272A 1.5 1.5 0 0 0 321.902 7.94002C 322.55062755248116 8.16783647148915 323.2176111108747 8.40970941590566 323.9025982400928 8.666451700071445 C 325.74597616204267 9.357379290091526 327.71950211349036 10.15587218782497 329.8140608673956 11.07760540155109 A 330 330 0 0 1 329.688 14.3569C 327.52826338564415 15.114578690574982 325.4991010982601 15.758702902374953 323.60798472221796 16.30560504174556 C 322.90525844105207 16.50882841990838 322.2216274609142 16.69861322278714 321.5574717671245 16.875807515493975 A 1.5 1.5 0 0 0 320.477 18.3142A 321 321 0 0 1 320.45 18.786A 1.5 1.5 0 0 0 321.357 20.3395C 321.9962521786699 20.592097270915247 322.65341906506353 20.859494488245115 323.32800311961734 21.142443814123077 C 325.1433849957718 21.90389751692655 327.0846729118381 22.77785221581167 329.1421543347587 23.779619995880108 A 330 330 0 0 1 328.889 27.0516C 326.7024795792802 27.72550526427736 324.65000165017483 28.290951936655766 322.7392137907962 28.76456871658904 C 322.0291777873823 28.940559743431603 321.3387407905533 29.103858064971575 320.6682498209604 29.255325760060146 A 1.5 1.5 0 0 0 319.533 30.651A 321 321 0 0 1 319.488 31.1215A 1.5 1.5 0 0 0 320.334 32.7087C 320.963487382769 32.985764417631444 321.60986124515586 33.27828863616917 322.2730399963741 33.58702462630593 C 324.05772871618996 34.41787315109556 325.9638944278884 35.36599121774842 327.9812417222928 36.446305239043184 A 330 330 0 0 1 327.603 39.7061C 325.3913143147667 40.29524009009206 323.31857010778725 40.781169139647346 321.39094962016327 41.18079690829606 C 320.674658794088 41.329294114173756 319.97844156193537 41.46586334226643 319.3026114641195 41.59137940437491 A 1.5 1.5 0 0 0 318.115 42.9423A 321 321 0 0 1 318.051 43.4106A 1.5 1.5 0 0 0 318.836 45.0293C 319.45386754212154 45.33042465613002 320.0884880636769 45.647641273016404 320.73927622773283 45.98170523874431 C 322.4906202814502 46.88071419492417 324.3588318008088 47.90158701153971 326.3330477963889 49.05884225289416 A 330 330 0 0 1 325.829 52.3016C 323.5967155886686 52.80510832898461 321.50678457724564 53.21079781154624 319.56519532468155 53.53584284244309 C 318.84371386831367 53.65662560524612 318.14275076989327 53.76626283916312 317.4625856237706 53.86564078923776 A 1.5 1.5 0 0 0 316.223 55.1697A 321 321 0 0 1 316.142 55.6353A 1.5 1.5 0 0 0 316.864 57.283C 317.46963549700354 57.607737540404464 318.0915598228261 57.94917526731547 318.7289905245725 58.30807089022578 C 320.44438794255973 59.273904621333735 322.2718696701015 60.366015478467475 324.2000212766651 61.598492607242264 A 330 330 0 0 1 323.571 64.8195C 321.3213496340294 65.23652408563254 319.2173368260069 65.56137126885255 317.2646634251845 65.81135064300877 C 316.53906324260555 65.90423951594015 315.8343956979006 65.98678186778258 315.1509060239633 66.05987406012942 A 1.5 1.5 0 0 0 313.862 67.3153A 321 321 0 0 1 313.763 67.7773A 1.5 1.5 0 0 0 314.421 69.4516C 315.0137392184393 69.79946268232672 315.6220433563497 70.16461424566599 316.24516956580425 70.54780831498846 C 317.92207178430033 71.57903188307932 319.7061086327484 72.74075823302064 321.58533119790735 74.04662615951399 A 330 330 0 0 1 320.833 77.241C 318.5685969591523 77.57101802146641 316.4536282836816 77.8145402802981 314.4927718189875 77.98908260367563 C 313.7641309334653 78.05393958185506 313.05680586615034 78.10926441855582 312.37100712413707 78.15596226019771 A 1.5 1.5 0 0 0 311.035 79.3608A 321 321 0 0 1 310.918 79.8187A 1.5 1.5 0 0 0 311.511 81.5171C 312.0898274284046 81.88748685136858 312.68360762171926 82.27580974592315 313.2915035610655 82.68273295071666 C 314.92741920857844 83.77781426824767 316.6653606366574 85.00743013563687 318.4928622018382 86.38474873353225 A 330 330 0 0 1 317.618 89.5477C 315.3425473251832 89.79026479454262 313.219764988534 89.95210032827593 311.2536387019222 90.05094628356707 C 310.52303965429326 90.0876750090646 309.81410793632057 90.11570013458422 309.1270190165496 90.13593424659726 A 1.5 1.5 0 0 0 307.746 91.2884A 321 321 0 0 1 307.611 91.7414A 1.5 1.5 0 0 0 308.138 93.4614C 308.7022441789248 93.85385088540534 309.2806182491662 94.26476818034496 309.8723807681807 94.69481595532199 C 311.4648793669148 95.85212806137328 313.1541433172567 97.14780660748099 314.92720876570957 98.59452959629026 A 330 330 0 0 1 313.931 101.721C 311.64799366995777 101.87611028548062 309.5205514871462 101.95601865526906 307.55207644993885 101.97902138716381 C 306.8206046902783 101.9875672921587 306.1111195805991 101.98825106960385 305.42376129020414 101.98199139019358 A 1.5 1.5 0 0 0 303.999 103.08A 321 321 0 0 1 303.847 103.528A 1.5 1.5 0 0 0 304.307 105.267C 304.85602239812266 105.68077637262 305.4181310556706 106.11367756864252 305.99288097353195 106.56621099237108 C 307.5395965503458 107.78403446981947 309.1776732856493 109.14385070667862 310.89366837629393 110.6578286918984 A 330 330 0 0 1 309.778 113.744C 307.49042498714 113.81059856901499 305.3614836963096 113.80846105509524 303.3935844693644 113.75558638846408 C 302.66232674433473 113.73593677631618 301.9533423240736 113.70927818979958 301.2667358703919 113.67653401896372 A 1.5 1.5 0 0 0 299.801 114.719A 321 321 0 0 1 299.632 115.16A 1.5 1.5 0 0 0 300.024 116.916C 300.5568764128033 117.35069206486716 301.10188453354067 117.80493400121654 301.65876794502725 118.27928074536487 C 303.1574025465566 119.55580627541974 304.74185837830083 120.97773992577773 306.3982336594148 122.55672359224208 A 330 330 0 0 1 305.164 125.598C 302.876018171231 125.57599859109062 300.7487407377483 125.4918183691644 298.7843410264423 125.36314485983229 C 298.054383764715 125.31532892394534 297.3469533711229 125.26136758009505 296.662118844489 125.20218756580657 A 1.5 1.5 0 0 0 295.157 126.188A 321 321 0 0 1 294.971 126.622A 1.5 1.5 0 0 0 295.296 128.391C 295.811193458686 128.846259983254 296.33829132474125 129.32116779326347 296.87648086887737 129.81662312147745 C 298.324807975602 131.1499541717833 299.85328887977397 132.63189267062532 301.44758347671007 134.27353612431043 A 330 330 0 0 1 300.097 137.265C 297.8116288405649 137.15483051186746 295.6891757578056 136.98873264838335 293.73119406828994 136.78445146641934 C 293.0036217664399 136.70854024686847 292.29879642795225 136.62735631598437 291.6167512861508 136.54182838191514 A 1.5 1.5 0 0 0 290.075 137.468A 321 321 0 0 1 289.872 137.895A 1.5 1.5 0 0 0 290.129 139.676C 290.6260241908962 140.15040117715338 291.13442869364064 140.64526929089402 291.6531247829055 141.16109710582302 C 293.048992617086 142.5492527481352 294.5192277315516 144.08899438131948 296.049073002856 145.7908586346353 A 330 330 0 0 1 294.585 148.728C 292.3047811519252 148.529891675496 290.1903057457333 148.2821229418384 288.24165104891256 148.0025375875346 C 287.5175446601826 147.898643865522 286.8163715349079 147.7903579624669 286.13812909153813 147.6786091773598 A 1.5 1.5 0 0 0 284.562 148.545A 321 321 0 0 1 284.343 148.964A 1.5 1.5 0 0 0 284.53 150.753C 285.0090722088165 151.24632109837916 285.49802801232744 151.76041429092413 285.99646002060126 152.29584822783994 C 287.3377947431729 153.73676608108724 288.7475997414935 155.3320232564288 290.2107227979936 157.09157985182003 A 330 330 0 0 1 288.634 159.97C 286.363656621915 159.68428216808124 284.26030036571075 159.35521067394245 282.32386777538795 159.0007365269039 C 281.60430310371845 158.86901465720024 280.90782392367646 158.73378766220253 280.2343918426734 158.59598405108528 A 1.5 1.5 0 0 0 278.626 159.401A 321 321 0 0 1 278.391 159.811A 1.5 1.5 0 0 0 278.509 161.606C 278.96868261085865 162.1175345528251 279.4374632741209 162.65008903657247 279.9148906816033 163.20433360195645 C 281.19969947327564 164.69587289631798 282.5469798099594 166.34427554226156 283.941206891592 168.15891030873357 A 330 330 0 0 1 282.255 170.974C 279.9970819716879 170.60142992586358 277.9079698191843 170.19154457234364 275.98663629079465 169.76270827435948 C 275.2726823925025 169.60335395597895 274.58193191592477 169.44138677561298 273.9143107144741 169.2777330731353 A 1.5 1.5 0 0 0 272.276 170.02A 321 321 0 0 1 272.025 170.421A 1.5 1.5 0 0 0 272.075 172.219C 272.51382959616114 172.74789019249658 272.96173865234 173.29811475192753 273.4174521457393 173.87034650533423 C 274.6438261677256 175.41029126277854 275.9265801900909 177.10939034961078 277.2498398954551 178.97640728660036 A 330 330 0 0 1 275.456 181.725C 273.2145160130996 181.2651153563123 271.14275175556304 180.77502510955932 269.23937181188455 180.27246378217177 C 268.5320894073679 180.08571376762234 267.8480938813584 179.89724703632186 267.18727544342954 179.70798638258128 A 1.5 1.5 0 0 0 265.521 180.387A 321 321 0 0 1 265.255 180.778A 1.5 1.5 0 0 0 265.235 182.576C 265.65410313163363 183.12159451154798 266.0804751228143 183.6886716787348 266.5137976491732 184.27804045617637 C 267.6799148791497 185.86410278273704 268.8962368011779 187.61137396110695 270.1465631650136 189.52799924392676 A 330 330 0 0 1 268.248 192.205C 266.02603559576323 191.65949543555405 263.9746972507146 191.08992842202397 262.0920987409074 190.51438871995754 C 261.39253863873455 190.30052046349823 260.7163142745759 190.0858341860461 260.06328037728105 189.87124776535498 A 1.5 1.5 0 0 0 258.372 190.485A 321 321 0 0 1 258.092 190.866A 1.5 1.5 0 0 0 258.002 192.662C 258.3996947041547 193.22323531067397 258.8038961700125 193.8063225797911 259.21418394260513 194.41195275682492 C 260.31831188168724 196.04177624172178 261.46639461544663 197.8346235930632 262.6419300294661 199.7980096939697 A 330 330 0 0 1 260.642 202.4C 258.4423206358869 201.76912724633297 256.41445587409487 201.12092967101296 254.55543577236918 200.47326667287058 C 253.86463730809365 200.23259791829778 253.197188771463 199.99201105382323 252.55290962643244 199.7524176769537 A 1.5 1.5 0 0 0 250.84 200.301A 321 321 0 0 1 250.544 200.67A 1.5 1.5 0 0 0 250.386 202.462C 250.76138217909306 203.0378045949947 251.14281259802453 203.63603567402836 251.52945605282932 204.2570274666712 C 252.56995429954304 205.92819068322683 253.64809213997722 207.76395057651146 254.74709011271185 209.7711804952731 A 330 330 0 0 1 252.648 212.294C 250.47463824913535 211.5789909215333 248.4732598666959 210.85312581073606 246.64058011685105 210.1343017486099 C 245.95956960887207 209.86719005718604 245.30188852721102 209.60106004528737 244.6673213391505 209.3368156758146 A 1.5 1.5 0 0 0 242.934 209.819A 321 321 0 0 1 242.625 210.176A 1.5 1.5 0 0 0 242.398 211.961C 242.7505137876468 212.5507208714144 243.10860646896396 213.16320696921187 243.47103117029204 213.79863777074758 C 244.4463538577164 215.50865787389793 245.4529450168078 217.3846029229885 246.47377276836812 219.4326945206694 A 330 330 0 0 1 244.279 221.873C 242.13482601109092 221.0745119591768 240.1629074533199 220.27205772977376 238.35929086532795 219.48314055965807 C 237.6890800900906 219.1899827788832 237.04214357934518 218.89870500858046 236.4182311239185 218.61020223402787 A 1.5 1.5 0 0 0 234.668 219.025A 321 321 0 0 1 234.345 219.37A 1.5 1.5 0 0 0 234.049 221.145C 234.37899126679036 221.74785081232739 234.7132141926523 222.37368195907254 235.05088168658617 223.02260771076797 C 235.95957977904564 224.76894412582192 236.89312876559023 226.68228724154636 237.83426965348485 228.76819767106622 A 330 330 0 0 1 235.548 231.122C 233.43527437018247 230.2415828757418 231.4957453139717 229.3637317329604 229.72387151870217 228.50589354809088 C 229.06545620750234 228.18712522210677 228.4302254204232 227.87113244441264 227.8178946435714 227.55879989298523 A 1.5 1.5 0 0 0 226.053 227.906A 321 321 0 0 1 225.717 228.239A 1.5 1.5 0 0 0 225.353 230C 225.65925217687948 230.61553025348468 225.96910879271053 231.25377665263926 226.28151740708412 231.91523324633096 C 227.1222408529792 233.69529144349906 227.9813606944357 235.64318997442524 228.84141646684515 237.76382020131342 A 330 330 0 0 1 226.466 240.028C 224.38890823921184 239.06658416563369 222.4846502404119 238.11464033179954 220.74715170850752 237.1891556212758 C 220.10151006813516 236.84525034377873 219.4789287662943 236.50501202876086 218.87908940707328 236.16931373253283 A 1.5 1.5 0 0 0 217.102 236.448A 321 321 0 0 1 216.754 236.768A 1.5 1.5 0 0 0 216.322 238.514C 216.60425142318326 239.14058449482565 216.8892813754036 239.79029790452665 217.1759669651362 240.46330261499511 C 217.94746670271314 242.27443796407917 218.7308810058264 244.25399791983853 219.50857387898412 246.4061973264657 A 330 330 0 0 1 217.047 248.577C 215.00916779282744 247.5364045356667 213.14301000512376 246.51178231252234 211.44246813594228 245.520026067801 C 210.8105593953608 245.15149477842408 210.2015525470061 244.78751641771413 209.61509578598853 244.42895112321693 A 1.5 1.5 0 0 0 207.829 244.639A 321 321 0 0 1 207.468 244.945A 1.5 1.5 0 0 0 206.969 246.673C 207.227442008798 247.31034787411275 207.4872218287704 247.97056301597422 207.74775846544614 248.6541159609776 C 208.44888827852665 250.49363766049427 209.15543312566354 252.5019180113798 209.84960768225756 254.68248907782638 A 330 330 0 0 1 207.307 256.757C 205.30998849947377 255.63846038449574 203.48470347111666 254.54268205197414 201.82364475754898 253.4861277240459 C 201.20640774277015 253.09351794925675 200.61188014860113 252.706340305042 200.03967728385052 252.32544073227743 A 1.5 1.5 0 0 0 198.246 252.467A 321 321 0 0 1 197.874 252.758A 1.5 1.5 0 0 0 197.309 254.466C 197.54275504753784 255.11268258429035 197.7768987807143 255.78241857751618 198.01089938538362 256.47550420331396 C 198.6406176062967 258.3406792782153 199.26924328467695 260.37469632466536 199.87886819045195 262.580399379273 A 330 330 0 0 1 197.258 264.555C 195.30578041748382 263.36071449805695 193.52407997211702 262.1954080526322 191.90497224698007 261.0756253629175 C 191.3033239862512 260.6595204025589 190.724158935158 260.24971870417266 190.16706008774227 259.8470507551512 A 1.5 1.5 0 0 0 188.37 259.919A 321 321 0 0 1 187.987 260.196A 1.5 1.5 0 0 0 187.356 261.881C 187.56457906649638 262.5359967066087 187.77273884583053 263.2142585252861 187.97985576409286 263.91584711544607 C 188.53722682127906 265.8039044774968 189.08699938253224 267.86063628297404 189.61116891854155 270.0881943155215 A 330 330 0 0 1 186.916 271.96C 185.01140678607365 270.691693933241 183.27593799378153 269.4585906692162 181.701186763362 268.2772432774321 C 181.11602112473844 267.83826133811414 180.55307908150036 267.4064444274182 180.01191193246822 266.98260634539923 A 1.5 1.5 0 0 0 178.213 266.985A 321 321 0 0 1 177.82 267.247A 1.5 1.5 0 0 0 177.125 268.907C 177.30773862903038 269.5692614327232 177.489605191803 270.25504138413135 177.66953071031645 270.96409058937786 C 178.15372651830543 272.87222515415806 178.62382916603698 274.94861603483645 179.06176457426798 277.1947195651894 A 330 330 0 0 1 176.296 278.962C 174.44216194304684 277.6205070632306 172.7555031876055 276.32143900055587 171.22744805780246 275.0802820330189 C 170.6596344211288 274.61907530965016 170.1137517480231 274.1658847364792 169.58932030871918 273.72150621716185 A 1.5 1.5 0 0 0 167.792 273.655A 321 321 0 0 1 167.389 273.902A 1.5 1.5 0 0 0 166.63 275.533C 166.78747230992496 276.20202745018076 166.9427754572151 276.89430667191857 167.0952422608658 277.60976305874976 C 167.50554345056182 279.5351399131648 167.89527775386625 281.62810497775536 168.24632839424027 283.88941697275726 A 330 330 0 0 1 165.415 285.549C 163.6137486020162 284.1368597591761 161.9784057501922 282.7737569216189 160.49931695056733 281.47463436365626 C 159.94969891584097 280.9918880704787 159.42168663006044 280.51799713949055 158.91477004760665 280.0537383954755 A 1.5 1.5 0 0 0 157.121 279.918A 321 321 0 0 1 156.709 280.149A 1.5 1.5 0 0 0 155.888 281.75C 156.0194100554623 282.4244404669503 156.14791905358175 283.12219044065887 156.27270062263352 283.8429910564314 C 156.60849761008114 285.78274967053886 156.91728454120005 287.88917940350854 157.18092885822742 290.16234023480615 A 330 330 0 0 1 154.288 291.711C 152.54225452290228 290.23107068416977 150.96065720148943 288.8059582318811 149.5327322123901 287.450800188224 C 149.00212634642583 286.9472315407911 148.49276891515143 286.45334431113884 148.00412031486928 285.9698950910511 A 1.5 1.5 0 0 0 146.217 285.765A 321 321 0 0 1 145.796 285.98A 1.5 1.5 0 0 0 144.914 287.548C 145.01954996203048 288.22725585193115 145.12107388532422 288.92943993136265 145.21798483195877 289.6545138835189 C 145.47877872400113 291.6057723604144 145.70615951858386 293.7225372417896 145.88200581623826 296.00416967722873 A 330 330 0 0 1 142.931 297.44C 141.24412861036896 295.89408567679595 139.71862659649486 294.40908089753265 138.3439868842602 292.9999007247618 C 137.8331815075178 292.47625787437227 137.34323568243704 291.9631081136844 136.8735810489301 291.4611866774152 A 1.5 1.5 0 0 0 135.096 291.188A 321 321 0 0 1 134.667 291.386A 1.5 1.5 0 0 0 133.725 292.919C 133.80423450777192 293.60185236969056 133.87862252227634 294.3074273208518 133.94751886602356 295.0356973679438 C 134.13292220150714 296.99555672539134 134.2785590401965 299.11951188028155 134.36634606385738 301.4062261014565 A 330 330 0 0 1 131.362 302.728C 129.73615647570642 301.1174912028866 128.26901620577183 299.57480036635945 126.94970407087291 298.1136916816643 C 126.45945808625058 297.5707526038345 125.9896517792522 297.03910269805755 125.5396888778118 296.51945474964594 A 1.5 1.5 0 0 0 123.774 296.177A 321 321 0 0 1 123.337 296.359A 1.5 1.5 0 0 0 122.338 297.855C 122.3901262725843 298.540244989022 122.4372678601209 299.2481625401059 122.47804724177054 299.9785466922514 C 122.58778456719574 301.9440951696978 122.65146107752594 304.0720850406325 122.65105840212384 306.36048367913475 A 330 330 0 0 1 119.598 307.565C 118.03543549847001 305.8935268554992 116.62883670090687 304.2954419355208 115.36681224370356 302.7845755062148 C 114.89785400903676 302.2231468448416 114.44888521075325 301.673786665564 114.01928255068943 301.1371842453057 A 1.5 1.5 0 0 0 112.268 300.727A 321 321 0 0 1 111.825 300.892A 1.5 1.5 0 0 0 110.768 302.348C 110.7941831825471 303.0350967462954 110.81400830491928 303.74430514509714 110.82661013859594 304.47571827149085 C 110.86051841735804 306.44403565606444 110.84213999521864 308.57289869120035 110.75354821900795 310.8595818760851 A 330 330 0 0 1 107.657 311.946C 106.15934942492538 310.21509688454245 104.81538188177717 308.56399215384465 103.61252009039949 307.00561267225913 C 103.16554633634068 306.4265285411904 102.73808207914425 305.8602742721314 102.32947792058236 305.3075146095591 A 1.5 1.5 0 0 0 100.595 304.831A 321 321 0 0 1 100.146 304.978A 1.5 1.5 0 0 0 99.034 306.392C 99.03363331555222 307.0797296459751 99.02611251860091 307.78917522247923 99.01051808177633 308.52053066357007 C 98.96854693638869 310.48869262863747 98.86814088657812 312.6152659788725 98.691491630248 314.8968363878419 A 330 330 0 0 1 95.5551 315.863C 94.12554254103847 314.0757807389239 92.84620298317373 312.37410924170393 91.70429094785436 310.77053199025147 C 91.2799657427411 310.1746527340438 90.8746411097347 309.59234565845026 90.48764251535313 309.0242499878914 A 1.5 1.5 0 0 0 88.7728 308.481A 321 321 0 0 1 88.3185 308.611A 1.5 1.5 0 0 0 87.1528 309.981C 87.12594930557057 310.6681345821093 87.09109376293421 311.37676331392555 87.04732622424332 312.1069744958655 C 86.92953801118328 314.07205694569984 86.74725350684193 316.1931811637138 86.48280921796773 318.4662490705148 A 330 330 0 0 1 83.3115 319.311C 81.95189345838244 317.4698426055543 80.7390825989542 315.72013251298995 79.65981685695083 314.0737399243523 C 79.25877062020038 313.46195084005825 78.87618780167546 312.8644560908114 78.51136973479335 312.28186843128066 A 1.5 1.5 0 0 0 76.8188 311.673A 321 321 0 0 1 76.3597 311.785A 1.5 1.5 0 0 0 75.1421 313.11C 75.08882238358214 313.7949802660509 75.02668388009609 314.5017393443743 74.95480826491543 315.22972139333945 C 74.76137798198121 317.1888048074459 74.49748584296522 319.3013285416875 74.14563940609038 321.5625168522236 A 330 330 0 0 1 70.9442 322.284C 69.65648855190732 320.3922399310374 68.512008262466 318.59709078518665 67.49699227751803 316.91032890273755 C 67.11982084301395 316.2835389246211 66.76054824177712 315.6717441989095 66.4184527121322 315.07553010015135 A 1.5 1.5 0 0 0 64.7506 314.402A 321 321 0 0 1 64.2876 314.497A 1.5 1.5 0 0 0 63.0198 315.773C 62.94013609373634 316.4556211471466 62.85080694849613 317.15946054091387 62.75093004233571 317.8841318949006 C 62.482145068652514 319.83430566554387 62.137037359176986 321.93509034218954 61.69831151210501 324.18103961186534 A 330 330 0 0 1 58.4714 324.779C 57.257595089035334 322.8386309133861 56.183145722490494 321.0007097650504 55.23388750255509 319.276084608772 C 54.88115123341764 318.63522495790596 54.54572262031532 318.01003919837507 54.22685787880063 317.40108445491717 A 1.5 1.5 0 0 0 52.5862 316.663A 321 321 0 0 1 52.1199 316.74A 1.5 1.5 0 0 0 50.8039 317.967C 50.69793972379367 318.64610431462523 50.581552652996706 319.3459783305447 50.45382284284891 320.06626234624457 C 50.11008251191008 322.0046291027355 49.6842719580598 324.09055358866453 49.15931851522336 326.3179270135084 A 330 330 0 0 1 45.9118 326.791C 44.77363409000558 324.805380952631 43.77081195441376 322.9274183989214 42.888721811220236 321.1674922422137 C 42.56094476727557 320.51351504296593 42.249858488171384 319.875867087303 41.954698271727615 319.2550764224328 A 1.5 1.5 0 0 0 40.3437 318.455A 321 321 0 0 1 39.8747 318.514A 1.5 1.5 0 0 0 38.5124 319.689C 38.38042148932152 320.36317537043243 38.237149409090776 321.05804420656943 38.08175646297199 321.7728707589369 C 37.663571469349755 323.6965506722521 37.1576906973227 325.7645159121103 36.54728958138375 327.97000428625944 A 330 330 0 0 1 33.284 328.317C 32.22315295978719 326.2895680507417 31.29344794671905 324.3743541782344 30.479836400470596 322.58174174114873 C 30.177505559655785 321.9156186066118 29.891223795038727 321.2664558075731 29.62020662282381 320.6347515291914 A 1.5 1.5 0 0 0 28.0412 319.773A 321 321 0 0 1 27.5703 319.814A 1.5 1.5 0 0 0 26.1638 320.935C 26.00588151148566 321.6042832642858 25.835937280968405 322.2931145548947 25.653112065980924 323.00142162703077 C 25.16110370658813 324.90755668837096 24.57590430280351 326.9544903088332 23.88096238592322 329.13481694101694 A 330 330 0 0 1 20.6067 329.356C 19.62479793222369 327.2889871528354 18.769591303233994 325.33936739234343 18.02566713556948 323.5167319568963 C 17.749231670429968 322.83945254536354 17.488179748753396 322.17973936329344 17.241708270635208 321.5380599936428 A 1.5 1.5 0 0 0 15.6971 320.616A 321 321 0 0 1 15.225 320.639A 1.5 1.5 0 0 0 13.7763 321.705C 13.592704628583189 322.36758408376687 13.396340733706435 323.0493544330758 13.186354873039502 323.7500896940646 C 12.621254124069564 325.63584796099514 11.957605518536859 327.6587088353864 11.179155275036749 329.8106344171018 A 330 330 0 0 1 7.89879 329.905C 6.997286367346724 327.8021534232239 6.217848701835829 325.8210243223444 5.5447171599444305 323.9710737756827 C 5.29458777029899 323.2836443203139 5.0591535360707285 322.6143608902475 4.837593934410642 321.9636597715507 A 1.5 1.5 0 0 0 3.32968 320.983A 321 321 0 0 1 2.85704 320.987A 1.5 1.5 0 0 0 1.36831 321.997C 1.1593330817120986 322.65194379381956 0.9368412600645675 323.3256402964882 0.7000067294441479 324.0177626648443 C 0.06265316036066793 325.8803424687077 -0.6784586650314415 327.87612523520113 -1.539260692615259 329.99645265335016 A 330 330 0 0 1 -4.82084 329.965C -5.6406210569814705 327.82830445143236 -6.343131749465825 325.81860937114936 -6.944470594908946 323.94409218244607 C -7.1679222921444365 323.24753399630816 -7.377389054582206 322.56967467178583 -7.573707608965959 321.9109185498669 A 1.5 1.5 0 0 0 -9.0427 320.873A 321 321 0 0 1 -9.51516 320.859A 1.5 1.5 0 0 0 -11.0417 321.811C -11.275760884843123 322.45693992158436 -11.524050077445152 323.1215616675761 -11.787381413258313 323.8040428579776 C -12.496040887068842 325.6406769663295 -13.313514863424512 327.6064164930089 -14.255389782615108 329.6919955798446 A 330 330 0 0 1 -17.5333 329.534C -18.270148217783557 327.3674013849114 -18.894688217999562 325.3321261266481 -19.423340958636995 323.43582726370494 C -19.619782981560313 322.73117522240875 -19.802971067705208 322.04574709816626 -19.973756904586214 321.37991468615706 A 1.5 1.5 0 0 0 -21.4016 320.286A 321 321 0 0 1 -21.8732 320.254A 1.5 1.5 0 0 0 -23.4353 321.146C -23.69410246780127 321.78286218406623 -23.967820148420316 322.43742174569877 -24.25725705839571 323.1092477967097 C -25.036169582454892 324.91720752459275 -25.928791189727768 326.8499833147448 -26.950339658156334 328.897715528072 A 330 330 0 0 1 -30.2197 328.613C -30.872531442629068 326.42012898676046 -31.418172872293194 324.362297356378 -31.873354089420936 322.44703414800244 C -32.04249458436862 321.7353351521889 -32.19913183191418 321.0433565679181 -32.344131214991926 320.371437092186 A 1.5 1.5 0 0 0 -33.7288 319.223A 321 321 0 0 1 -34.1988 319.173A 1.5 1.5 0 0 0 -35.7941 320.004C -36.07724175287602 320.63071205770194 -36.375981259502325 321.27423695666755 -36.69109372759115 321.9344097371789 C -37.53910207255323 323.71100900112606 -38.50554514395733 325.6079495322191 -39.60524944836434 327.6147925588944 A 330 330 0 0 1 -42.8613 327.205C -43.42904738679855 324.987894618376 -43.89497958713313 322.9105639337088 -44.27601301859616 320.9791818840121 C -44.41760069375012 320.2614933039737 -44.54745438693699 319.5639923313767 -44.66645189081256 318.88698406183164 A 1.5 1.5 0 0 0 -46.0058 317.686A 321 321 0 0 1 -46.4736 317.618A 1.5 1.5 0 0 0 -48.0997 318.387C -48.40678112579048 319.00220129046795 -48.730098621519225 319.63373544264323 -49.07041848552864 320.28127413479507 C -49.98626276647468 322.0238734435409 -51.02509145876873 323.8821604334418 -52.20131776986861 325.84513270933445 A 330 330 0 0 1 -55.4391 325.31C -55.92104085053333 323.0728261485364 -56.30657158666126 320.9790826971391 -56.61289113157536 319.0344512579747 C -56.72671563030679 318.31183936272134 -56.829592845668266 317.60985227810545 -56.9224116759016 316.92876104507195 A 1.5 1.5 0 0 0 -58.2145 315.677A 321 321 0 0 1 -58.6793 315.591A 1.5 1.5 0 0 0 -60.3339 316.297C -60.664402605588805 316.8997493587388 -61.011817738028036 317.5183544946375 -61.37683938516918 318.15229705101893 C -62.359158933416495 319.85830742698806 -63.468829860134335 321.6751800210809 -64.71983065999355 323.5913651607786 A 330 330 0 0 1 -67.9346 322.932C -68.32995249504155 320.6777687920303 -68.63450898443881 318.5707232458841 -68.86565954424591 316.6157315537063 C -68.95155175764191 315.88926992681127 -69.02729965063006 315.1838396714948 -69.09380190640319 314.49967737135097 A 1.5 1.5 0 0 0 -70.3367 313.199A 321 321 0 0 1 -70.7978 313.095A 1.5 1.5 0 0 0 -72.4784 313.737C -72.83189505963746 314.32647987267376 -73.20289167456706 314.93123693143275 -73.5920727926433 315.5506415043946 C -74.63940817728914 317.21752833014244 -75.81827270174715 318.99028720312623 -77.14218938006937 320.8568383328055 A 330 330 0 0 1 -80.3291 320.074C -80.63734641608455 317.80628088252416 -80.8604761795624 315.68906367651556 -81.01611433416998 313.7266162599937 C -81.0739466522784 312.9973842045715 -81.12245268434499 312.28955883538697 -81.16253956334116 311.6033419271915 A 1.5 1.5 0 0 0 -82.3544 310.256A 321 321 0 0 1 -82.8112 310.134A 1.5 1.5 0 0 0 -84.5152 310.711C -84.89118125988188 311.28621593547365 -85.28520816810311 311.8762264303003 -85.69797055122261 312.4801727712567 C -86.80876574741886 314.10545955514755 -88.05507243209324 315.8314709214208 -89.44993804755431 317.64561490844363 A 330 330 0 0 1 -92.6043 316.74C -92.82493753417621 314.462628585951 -92.96630906812904 312.3383852669886 -93.04620358612881 310.37139773175187 C -93.07589008754826 309.64047866693926 -93.0970821933432 308.93130979913695 -93.11069413853727 308.24405779447704 A 1.5 1.5 0 0 0 -94.2498 306.852A 321 321 0 0 1 -94.7015 306.713A 1.5 1.5 0 0 0 -96.4265 307.223C -96.82434474016087 307.7834744634008 -97.2408165363977 308.3578618164539 -97.6765469440131 308.94545264309465 C -98.84915164475036 310.52672469862205 -100.16104885338576 312.2034242252944 -101.62479105591589 313.96246579824793 A 330 330 0 0 1 -104.742 312.936C -104.87461876070226 310.6517795622726 -104.93402202962194 308.5236661159521 -104.93805421183023 306.5550608128784 C -104.93955079136332 305.82354066419987 -104.93339748580196 305.1140819090641 -104.92051427394432 304.4268158573685 A 1.5 1.5 0 0 0 -106.005 302.992A 321 321 0 0 1 -106.451 302.835A 1.5 1.5 0 0 0 -108.194 303.279C -108.61365641467809 303.8234594750028 -109.0519543473128 304.3813703197228 -109.51000541531207 304.9517326491046 C -110.7426774832787 306.48664068238793 -112.11821613186177 308.1115372991063 -113.6486602415334 309.8128630521643 A 330 330 0 0 1 -116.724 308.667C -116.76848789959897 306.3793955850339 -116.74583464812449 304.2505737467942 -116.67399850393332 302.2832754302771 C -116.64730293811371 301.55224101628653 -116.61381336315434 300.84354641578705 -116.5744541348164 300.15728738735413 A 1.5 1.5 0 0 0 -117.603 298.681A 321 321 0 0 1 -118.043 298.508A 1.5 1.5 0 0 0 -119.802 298.884C -120.2416009180817 299.4120543595084 -120.70107380843359 299.9526598084633 -121.18076501092787 300.50494625399915 C -122.47167306680122 301.9912098541268 -123.90880951931226 303.5618894540556 -125.50368175725932 305.20297172971163 A 330 330 0 0 1 -128.533 303.94C -128.48887424462276 301.65182412967266 -128.384198128661 299.52545668740976 -128.23660038493838 297.56238817005465 C -128.18175233533427 296.8329255876505 -128.12097624639574 296.1260480484534 -128.055199477533 295.44181561744836 A 1.5 1.5 0 0 0 -129.026 293.927A 321 321 0 0 1 -129.459 293.737A 1.5 1.5 0 0 0 -131.231 294.045C -131.69090262802067 294.5558131358836 -132.17086783780124 295.07831001224594 -132.67148649818142 295.6117000426666 C -134.0187126415057 297.04711106969916 -135.5153117461461 298.56124009615564 -137.1722426127143 300.13964074056133 A 330 330 0 0 1 -140.15 298.761C -140.01836483269614 296.47608894308405 -139.83182136941937 294.35533503820085 -139.6086813119453 292.39941284840563 C -139.52576226623418 291.6726058592183 -139.43778995827452 290.96859558838395 -139.34569337334875 290.28740631805886 A 1.5 1.5 0 0 0 -140.257 288.737A 321 321 0 0 1 -140.682 288.53A 1.5 1.5 0 0 0 -142.465 288.769C -142.944551331515 289.2619507155345 -143.44429577702286 289.7655627463598 -143.96509812678238 290.2792639047759 C -145.3666407853909 291.6616897703773 -146.9204790467755 293.1170186837937 -148.63700684188495 294.6303926691203 A 330 330 0 0 1 -151.56 293.138C -151.33983031432493 290.8598796084479 -151.07169665111914 288.74789004232207 -150.77334579879306 286.802020091195 C -150.6624789496956 286.0789485114435 -150.5474411230608 285.37885145613535 -150.42916154985102 284.7017173885222 A 1.5 1.5 0 0 0 -151.28 283.117A 321 321 0 0 1 -151.697 282.894A 1.5 1.5 0 0 0 -153.488 283.064C -153.98582749700722 283.53833218312184 -154.50460870855574 284.02231115265704 -155.04482099230628 284.51556023391123 C -156.49859789605475 285.8429470697321 -158.107366778656 287.2373136897939 -159.880941259146 288.6834125982373 A 330 330 0 0 1 -162.744 287.079C -162.43645040265068 284.81154012082567 -162.08712490535808 282.71145267366785 -161.7140065176616 280.77852593771905 C -161.57535657991446 280.06026403392923 -161.4334241461571 279.36512032745134 -161.2891373124747 278.69304747977264 A 1.5 1.5 0 0 0 -162.079 277.077A 321 321 0 0 1 -162.487 276.838A 1.5 1.5 0 0 0 -164.283 276.939C -164.79832711454947 277.3934611114155 -165.33537433955277 277.85708797272133 -165.89419396459186 278.32915215728127 C -167.39804523898445 279.59952786638894 -169.0593545969208 280.930860584383 -170.88734076544276 282.30753594863535 A 330 330 0 0 1 -173.686 280.594C -173.29173886332978 278.34005649049686 -172.86174052439716 276.2549912595548 -172.41440894284403 274.3378794855759 C -172.24818190848325 273.62549437854415 -172.07956573643958 272.9363367950167 -171.90948600904977 272.270323665047 A 1.5 1.5 0 0 0 -172.636 270.625A 321 321 0 0 1 -173.034 270.37A 1.5 1.5 0 0 0 -174.833 270.402C -175.36598606721986 270.83646692754667 -175.92050141529927 271.2790528707853 -176.49709814402112 271.72923081349273 C -178.04878951913324 272.9407080003129 -179.76017114720582 274.20702885691446 -181.6398531670354 275.51223535213893 A 330 330 0 0 1 -184.371 273.692C -183.8895680081106 271.45504339245554 -183.37953567552287 269.3880981564893 -182.85865550007455 267.4896495950034 C -182.66509833239354 266.78419967437657 -182.47004893489577 266.10205209434434 -182.27442900103307 265.4430881769432 A 1.5 1.5 0 0 0 -182.937 263.771A 321 321 0 0 1 -183.325 263.501A 1.5 1.5 0 0 0 -185.124 263.464C -185.67310399756087 263.87709134942986 -186.24426362596935 264.2979788252287 -186.8377808093479 264.7256016972871 C -188.43500693927828 265.876380471705 -190.1939182399801 267.075808095629 -192.12250346993255 268.3076065781966 A 330 330 0 0 1 -194.781 266.384C -194.21419265571953 264.16672988189964 -193.62488408386415 262.1209754988159 -193.03122918553444 260.24401067243474 C -192.8106294521709 259.5465440242622 -192.5894366138607 258.87241991351675 -192.36856710581188 258.2214842305377 A 1.5 1.5 0 0 0 -192.966 256.525A 321 321 0 0 1 -193.344 256.24A 1.5 1.5 0 0 0 -195.14 256.134C -195.7043676335802 256.5256739125051 -196.2913229711847 256.924237608877 -196.90087882149592 257.3286700915295 C -198.54126670941594 258.4170407429844 -200.34509447046597 259.54779314613626 -202.31971761391944 260.7043535346092 A 330 330 0 0 1 -204.902 258.679C -204.25027352445673 256.4859441969366 -203.582564248329 254.46442004141892 -202.91701661944487 252.6117275543964 C -202.66970206514188 251.92328040398976 -202.42269441193764 251.25818130786456 -202.17690347524976 250.61624095362347 A 1.5 1.5 0 0 0 -202.709 248.898A 321 321 0 0 1 -203.075 248.599A 1.5 1.5 0 0 0 -204.865 248.423C -205.44487353965954 248.79313660830294 -206.04675254766198 249.1687843796714 -206.67144144855473 249.54942560809317 C -208.35255397226686 250.5737711456933 -210.19861824905604 251.6341683706667 -212.21634561091926 252.71377236474754 A 330 330 0 0 1 -214.719 250.591C -213.9829000217474 248.42409767108404 -213.2377820561691 246.42980711899767 -212.5013304999958 244.60413951420404 C -212.227668559672 243.92573468661854 -211.9552130705297 243.27064874199428 -211.68486587648462 242.63865744645847 A 1.5 1.5 0 0 0 -212.15 240.901A 321 321 0 0 1 -212.505 240.588A 1.5 1.5 0 0 0 -214.287 240.344C -214.88015025856998 240.69096765765602 -215.4960587260941 241.04314140460508 -216.13495257806338 241.39942586060758 C -217.85429211083047 242.3582244154913 -219.73985020801214 243.34669103147857 -221.7976840533113 244.34773466488718 A 330 330 0 0 1 -224.217 242.13C -223.39761239679027 239.99316777946606 -222.5761927625746 238.0290737457463 -221.7699314242519 236.23314341521868 C -221.47032867710377 235.56578881564332 -221.17283013879694 234.92168928287424 -220.8783283418768 234.30058599470723 A 1.5 1.5 0 0 0 -221.276 232.546A 321 321 0 0 1 -221.619 232.22A 1.5 1.5 0 0 0 -223.39 231.907C -223.99617981169774 232.23120444266314 -224.62520268431712 232.5593809411052 -225.27735228358003 232.8907792933254 C -227.03236440484636 233.78260637969996 -228.954614951155 234.6976738231076 -231.04949795876496 235.6186698465918 A 330 330 0 0 1 -233.381 233.309C -232.48042322339091 231.20568034389316 -231.58392230264315 229.27470088054642 -230.70904904361535 227.51117603569134 C -230.38395060906305 226.85586315200544 -230.06185101479144 226.2237069689477 -229.74363215594113 225.61441446051433 A 1.5 1.5 0 0 0 -230.074 223.846A 321 321 0 0 1 -230.403 223.507A 1.5 1.5 0 0 0 -232.161 223.126C -232.7794185255367 223.4264156227671 -233.42062126477 223.73010730129607 -234.0850577134969 224.03612719162393 C -235.87313500398727 224.85965782312195 -237.82922211423255 225.69996657941385 -239.95804191913487 226.5395466703536 A 330 330 0 0 1 -242.199 224.142C -241.21783818106314 222.07469092326556 -240.24758790406025 220.17969488402315 -239.30540252241497 218.4511955914584 C -238.955291398789 217.8088980211793 -238.6090692915099 217.1896243814696 -238.26760614808305 216.5930478778742 A 1.5 1.5 0 0 0 -238.529 214.813A 321 321 0 0 1 -238.845 214.462A 1.5 1.5 0 0 0 -240.587 214.013C -241.21681715350715 214.28968246151263 -241.8692471252607 214.5684381257882 -242.54498327106523 214.84862490086206 C -244.36346918662474 215.60263555907238 -246.35048670467626 216.36693718259866 -248.5100805219959 217.12385397792133 A 330 330 0 0 1 -250.657 214.642C -249.59687610352336 212.61376541694543 -248.5543179698672 210.7575681950113 -247.54622026922686 209.06666248393608 C -247.17161661617808 208.43833448774654 -246.8017863776357 207.83286344544334 -246.43758626098992 207.24988927963813 A 1.5 1.5 0 0 0 -246.631 205.461A 321 321 0 0 1 -246.933 205.098A 1.5 1.5 0 0 0 -248.656 204.583C -249.29584026320504 204.83457939173007 -249.95852815310008 205.08798489481654 -250.64456005565043 205.34192228150124 C -252.49075287406848 206.0252927337485 -254.50574869052838 206.71245170255978 -256.6929080144792 207.38558065194576 A 330 330 0 0 1 -258.743 204.823C -257.60508826479344 202.83695990991745 -256.49177120177643 201.02231925514204 -255.41925891161205 199.37151930201952 C -255.020719277311 198.75809438602386 -254.62783036382007 198.16732548868418 -254.24143436560522 197.5988197846454 A 1.5 1.5 0 0 0 -254.365 195.804A 321 321 0 0 1 -254.653 195.429A 1.5 1.5 0 0 0 -256.356 194.848C -257.00448486027767 195.07515384801758 -257.6764461137595 195.3028327056815 -258.371754536331 195.53014342952477 C -260.24291137128677 196.1418583931978 -262.2828918094348 196.7508537960885 -264.4943671801927 197.33919483271438 A 330 330 0 0 1 -266.444 194.699C -265.2305768742566 192.75879978968152 -264.04815493562245 190.9884117113763 -262.9128214860786 189.380170107596 C -262.49093798035284 188.7825596364113 -262.0755741064721 188.2073705886341 -261.667556294731 187.65417797456274 A 1.5 1.5 0 0 0 -261.722 185.856A 321 321 0 0 1 -261.996 185.471A 1.5 1.5 0 0 0 -263.674 184.824C -264.33129822125716 185.02590539648557 -265.01153450634666 185.2275193465379 -265.7150864301008 185.42786569228664 C -267.6084273062658 185.96701634324228 -269.67036156976104 186.49694339651742 -271.9028674011819 186.99962242285378 A 330 330 0 0 1 -273.749 184.286C -272.46201275319 182.3942581659028 -271.2122426617082 180.67075292738275 -270.01577481624605 179.10745903544873 C -269.57117423088306 178.5265508781915 -269.1339525021915 177.96779623761304 -268.70491906846775 177.43073859107187 A 1.5 1.5 0 0 0 -268.69 175.632A 321 321 0 0 1 -268.949 175.236A 1.5 1.5 0 0 0 -270.601 174.525C -271.2653949088571 174.70176419276993 -271.9528955993712 174.8770136976216 -272.6636457581102 175.0500980109649 C -274.5763577413542 175.51588333376716 -276.6571824170854 175.96595472547807 -278.9074018780966 176.38222491193517 A 330 330 0 0 1 -280.648 173.6C -279.2886521665109 171.75873362488187 -277.97339070401597 170.08467183568646 -276.7175660533909 168.56864823934458 C -276.2509089309146 168.0053054505248 -275.792478927178 167.46381535820353 -275.3430672858982 166.94369058505455 A 1.5 1.5 0 0 0 -275.259 165.147A 321 321 0 0 1 -275.502 164.741A 1.5 1.5 0 0 0 -277.126 163.967C -277.7964729444533 164.11806880031847 -278.49021662149084 164.26669349200316 -279.20710905460845 164.41225862179692 C -281.136350431172 164.8039865997845 -283.2329740405665 165.17353365943725 -285.49756398297853 165.5027765539288 A 330 330 0 0 1 -287.129 162.655C -285.7003527847307 160.86802735189454 -284.3215540335036 159.2458961634936 -283.0082383548009 157.77939521707162 C -282.5202180071043 157.23445475435372 -282.04126081719585 156.7110337014307 -281.57213865866345 156.20861455038747 A 1.5 1.5 0 0 0 -281.419 154.416A 321 321 0 0 1 -281.646 154.002A 1.5 1.5 0 0 0 -283.239 153.166C -283.91482911371935 153.29054340190706 -284.61378508318245 153.41232246890945 -285.33575470450296 153.53015214922561 C -287.27865920292805 153.84724079264015 -289.38796679495755 154.1357144846385 -291.6635627203748 154.37744093141518 A 330 330 0 0 1 -293.184 151.469C -291.68758875240025 149.73831965539117 -290.24730119199097 148.17052906602697 -288.8784456766431 146.75572954811474 C -288.36978715493575 146.23000102885067 -287.87101436494294 145.72542666131815 -287.38287866335196 145.241459575874 A 1.5 1.5 0 0 0 -287.161 143.456A 321 321 0 0 1 -287.372 143.033A 1.5 1.5 0 0 0 -288.931 142.137C -289.61137338268117 142.2352744382407 -290.31450320657535 142.330026953556 -291.0404773867512 142.41994612498846 C -292.99415843629714 142.66192433563592 -295.1130162153565 142.86889607498279 -297.3962372738084 143.02274694137023 A 330 330 0 0 1 -298.804 140.058C -297.2414648406619 138.38614592793255 -295.7418283044661 136.87502520208855 -294.3194666593702 135.51402907852932 C -293.7909256769705 135.00829357691117 -293.2730783129927 134.52331554026483 -292.7666542909337 134.05851954970268 A 1.5 1.5 0 0 0 -292.476 132.283A 321 321 0 0 1 -292.67 131.852A 1.5 1.5 0 0 0 -294.194 130.896C -294.8776424027676 130.96868670835008 -295.5839014420083 131.03627189828677 -296.3128016021239 131.09814696803696 C -298.27435662134155 131.26465523919774 -300.3996166031248 131.38981752824336 -302.6870706159906 131.45556423820517 A 330 330 0 0 1 -303.979 128.439C -302.35372966287906 126.82837207957894 -300.7969721589901 125.37616628739448 -299.3232175850323 124.07099558839707 C -298.77557939460513 123.58600447501593 -298.239426821812 123.12134330050768 -297.7154668728101 122.67640895163922 A 1.5 1.5 0 0 0 -297.356 120.914A 321 321 0 0 1 -297.534 120.476A 1.5 1.5 0 0 0 -299.02 119.462C -299.70581208479734 119.50751896728748 -300.4141510512288 119.54783642061494 -301.1448942652438 119.58157546097046 C -303.11140897433745 119.67236641151798 -305.2399136627943 119.71553329680881 -307.5282021625581 119.6930781705417 A 330 330 0 0 1 -308.703 116.629C -307.0167879337113 115.0821694802284 -305.4052223347717 113.69103616200086 -303.8822643872469 112.44362997801177 C -303.3163426141548 111.98010380354762 -302.76268139374145 111.53644983769307 -302.2219639644261 111.11203816891421 A 1.5 1.5 0 0 0 -301.795 109.364A 321 321 0 0 1 -301.956 108.92A 1.5 1.5 0 0 0 -303.402 107.849C -304.08870922321813 107.8687990573804 -304.79807573853935 107.88178887450952 -305.5295763421907 107.88734175942105 C -307.4981290927596 107.90228050135565 -309.62671617118315 107.86338784990514 -311.9124394505328 107.75276424896157 A 330 330 0 0 1 -312.969 104.646C -311.2237117534198 103.1649894481346 -309.55973236038886 101.83699540886451 -307.9898336959817 100.64920700966385 C -307.4064691294828 100.20783443436422 -306.8361218352198 99.78584681329586 -306.2794502687876 99.38258837248277 A 1.5 1.5 0 0 0 -305.786 97.6528A 321 321 0 0 1 -305.929 97.2024A 1.5 1.5 0 0 0 -307.332 96.0768C -308.0198221533292 96.06981860998754 -308.7291623126111 96.05546149196354 -309.4603335163827 96.03281997151703 C -311.4279996321106 95.97188431036882 -313.55350666138725 95.85098990493975 -315.8332688241555 95.65236218266288 A 330 330 0 0 1 -316.769 92.5068C -314.9682509006394 91.0945373225054 -313.2543298855838 89.8316555612469 -311.6398229007421 88.70524964254781 C -311.0398822448305 88.2866864130861 -310.45369624096713 87.88699208327553 -309.8818975836559 87.50548599098055 A 1.5 1.5 0 0 0 -309.322 85.796A 321 321 0 0 1 -309.448 85.3404A 1.5 1.5 0 0 0 -310.807 84.1616C -311.4933104256528 84.12810735534423 -312.20157036312344 84.08642463251907 -312.9313258668885 84.03562234519266 C -314.8951819887312 83.89890281299586 -317.0144511057725 83.69618626625251 -319.28486511221536 83.40984952359656 A 330 330 0 0 1 -320.099 80.2306C -318.24484211832436 78.88874615870304 -316.4835258515151 77.69285293728169 -314.8268092172116 76.62950299892408 C -314.21118380295616 76.23437097415767 -313.6100299852924 75.85756376096204 -313.0239537576397 75.49837682030098 A 1.5 1.5 0 0 0 -312.399 73.8117A 321 321 0 0 1 -312.507 73.3516A 1.5 1.5 0 0 0 -313.819 72.1213C -314.50401348308327 72.06140707866447 -315.2101409378549 71.99246067900643 -315.9373965447902 71.91357310169373 C -317.8945249742066 71.70127282248332 -320.00440758358235 71.41703531014122 -322.2621002824997 71.04341495724036 A 330 330 0 0 1 -322.953 67.8352C -321.04861737907225 66.56575008512647 -319.24252264584544 65.43862214057943 -317.5460577438754 64.43990800021352 C -316.9156622051708 64.06879422728875 -316.30043370716845 63.71543395270516 -315.70095064187984 63.379099807258676 A 1.5 1.5 0 0 0 -315.011 61.7178A 321 321 0 0 1 -315.102 61.2539A 1.5 1.5 0 0 0 -316.366 59.9739C -317.04745832791957 59.88764526119322 -317.7504042073312 59.79153761828052 -318.47407943470694 59.68468195415477 C -320.42157246848035 59.39711634218541 -322.51893392028273 59.03178015555493 -324.76055106050507 58.571431279692 A 330 330 0 0 1 -325.327 55.3389C -323.3754111175465 54.14385736135995 -321.5272212305488 53.08716926624005 -319.79352849665815 52.15457471219324 C -319.149299411354 51.80803055437024 -318.5209102772096 51.478642205308965 -317.9089110255122 51.16566054628893 A 1.5 1.5 0 0 0 -317.155 49.5322A 321 321 0 0 1 -317.228 49.0651A 1.5 1.5 0 0 0 -318.442 47.7374C -319.1198661673925 47.624908445370565 -319.81858610564564 47.50178234620597 -320.5376057900975 47.367117350591364 C -322.4725700403058 47.00471364172681 -324.5542942872951 46.55882156031547 -326.7765055010898 46.0124281012295 A 330 330 0 0 1 -327.218 42.7605C -325.22176641925057 41.64152317761525 -323.3342272318452 40.65684485208068 -321.5658824111224 39.79175543889506 C -320.90877690955085 39.470295756388126 -320.26816073620137 39.165368704700185 -319.64455454460466 38.8762045285591 A 1.5 1.5 0 0 0 -318.829 37.273A 321 321 0 0 1 -318.883 36.8035A 1.5 1.5 0 0 0 -320.045 35.4299C -320.7181580278123 35.29141536367791 -321.411613937584 35.141453736550275 -322.1249098324817 34.97917948105942 C -324.04447052520095 34.54247609802872 -326.1074647523125 34.01669058313447 -328.3069685033072 33.385064316892276 A 330 330 0 0 1 -328.623 30.1186C -326.5849401564628 29.07732223587841 -324.6608559832183 28.16611661526431 -322.86048630331305 27.369817605180163 C -322.19148064628155 27.07391999023049 -321.5395891963605 26.79390726564853 -320.9053025557897 26.5289901832349 A 1.5 1.5 0 0 0 -320.028 24.9584A 321 321 0 0 1 -320.065 24.4871A 1.5 1.5 0 0 0 -321.173 23.0699C -321.8399593289959 22.905489871091277 -322.52712094372345 22.728915513799166 -323.2336333062638 22.53927308908694 C -325.1349385526155 22.02891884155053 -327.17613777195163 21.424021052043713 -329.34966626022253 20.708100384985247 A 330 330 0 0 1 -329.539 17.4319C -327.4629070636963 16.4699211534995 -325.50513651402036 15.633542014836824 -323.67541678187496 14.907216468280048 C -322.9955049102368 14.637320535597617 -322.33330669804167 14.382638152670204 -321.6892819673516 14.142361750956226 A 1.5 1.5 0 0 0 -320.752 12.6067A 321 321 0 0 1 -320.771 12.1344A 1.5 1.5 0 0 0 -321.823 10.6755C -322.48360341217784 10.485533721352676 -323.1634498167246 10.282608970194012 -323.86212898238966 10.065880127769471 C -325.742354015589 9.482633248383433 -327.758725620067 8.799521880140126 -329.90304963710525 8.000370454689362 A 330 330 0 0 1 -329.966 4.71925C -327.85436274663437 3.8380507302224487 -325.86581447774114 3.077740680933129 -324.00946310563324 2.4224676988439264 C -323.31965516359077 2.178974432472451 -322.6481340161627 1.9500007724917925 -321.995328022076 1.734722029821726 A 1.5 1.5 0 0 0 -321 0.23633A 321 321 0 0 1 -321 -0.23633A 1.5 1.5 0 0 0 -321.995 -1.73472C -322.6481340161627 -1.9500007724918573 -323.31965516359077 -2.1789744324725158 -324.00946310563324 -2.422467698843992 C -325.86581447774114 -3.0777406809331938 -327.85436274663437 -3.8380507302225144 -329.9662964729765 -4.719245615809788 A 330 330 0 0 1 -329.903 -8.00037C -327.758725620067 -8.799521880140192 -325.742354015589 -9.482633248383497 -323.86212898238966 -10.065880127769537 C -323.1634498167246 -10.282608970194076 -322.48360341217784 -10.485533721352741 -321.82298602772926 -10.675494965624877 A 1.5 1.5 0 0 0 -320.771 -12.1344A 321 321 0 0 1 -320.752 -12.6067A 1.5 1.5 0 0 0 -321.689 -14.1424C -322.33330669804167 -14.382638152670268 -322.9955049102368 -14.637320535597677 -323.675416781875 -14.907216468280112 C -325.50513651402036 -15.63354201483689 -327.46290706369626 -16.469921153499563 -329.53931280209287 -17.431850309103236 A 330 330 0 0 1 -329.35 -20.7081C -327.1761377719516 -21.42402105204377 -325.1349385526155 -22.028918841550595 -323.23363330626376 -22.539273089087004 C -322.52712094372345 -22.728915513799226 -321.8399593289959 -22.90548987109134 -321.1725120325928 -23.069851391786678 A 1.5 1.5 0 0 0 -320.065 -24.4871A 321 321 0 0 1 -320.028 -24.9584A 1.5 1.5 0 0 0 -320.905 -26.529C -321.5395891963605 -26.793907265648595 -322.19148064628155 -27.073919990230554 -322.86048630331305 -27.369817605180224 C -324.6608559832183 -28.166116615264375 -326.5849401564628 -29.077322235878473 -328.6227329935507 -30.118556524576217 A 330 330 0 0 1 -328.307 -33.3851C -326.1074647523125 -34.01669058313453 -324.04447052520095 -34.542476098028786 -322.1249098324817 -34.97917948105948 C -321.411613937584 -35.14145373655034 -320.7181580278123 -35.291415363677984 -320.04487244505356 -35.42993296909438 A 1.5 1.5 0 0 0 -318.883 -36.8035A 321 321 0 0 1 -318.829 -37.273A 1.5 1.5 0 0 0 -319.645 -38.8762C -320.26816073620137 -39.165368704700256 -320.90877690955085 -39.4702957563882 -321.5658824111224 -39.79175543889513 C -323.3342272318452 -40.65684485208075 -325.22176641925057 -41.641523177615326 -327.21791880880505 -42.76051563894949 A 330 330 0 0 1 -326.777 -46.0124C -324.5542942872951 -46.55882156031555 -322.4725700403058 -47.00471364172688 -320.5376057900975 -47.367117350591435 C -319.81858610564564 -47.50178234620604 -319.1198661673925 -47.624908445370636 -318.4417425978116 -47.737376340078015 A 1.5 1.5 0 0 0 -317.228 -49.0651A 321 321 0 0 1 -317.155 -49.5322A 1.5 1.5 0 0 0 -317.909 -51.1657C -318.52091027720957 -51.478642205309185 -319.149299411354 -51.808030554370454 -319.79352849665815 -52.15457471219345 C -321.5272212305488 -53.087169266240274 -323.37541111754643 -54.14385736136017 -325.3269573785026 -55.338945509654984 A 330 330 0 0 1 -324.761 -58.5714C -322.5189339202827 -59.03178015555515 -320.42157246848024 -59.39711634218563 -318.47407943470694 -59.68468195415498 C -317.7504042073312 -59.791537618280735 -317.0474583279195 -59.88764526119344 -316.3655042588408 -59.973896351783765 A 1.5 1.5 0 0 0 -315.102 -61.2539A 321 321 0 0 1 -315.011 -61.7178A 1.5 1.5 0 0 0 -315.701 -63.3791C -316.30043370716845 -63.71543395270523 -316.9156622051708 -64.06879422728882 -317.5460577438754 -64.43990800021359 C -319.24252264584544 -65.4386221405795 -321.04861737907225 -66.56575008512654 -322.95265810163374 -67.83515837944097 A 330 330 0 0 1 -322.262 -71.0434C -320.00440758358235 -71.41703531014129 -317.8945249742066 -71.70127282248339 -315.9373965447902 -71.9135731016938 C -315.2101409378549 -71.9924606790065 -314.50401348308327 -72.06140707866454 -313.81924209279924 -72.12131322200226 A 1.5 1.5 0 0 0 -312.507 -73.3516A 321 321 0 0 1 -312.399 -73.8117A 1.5 1.5 0 0 0 -313.024 -75.4984C -313.6100299852924 -75.85756376096211 -314.2111838029562 -76.23437097415774 -314.8268092172116 -76.62950299892415 C -316.4835258515151 -77.69285293728176 -318.24484211832436 -78.88874615870311 -320.09854847161273 -80.23058864074973 A 330 330 0 0 1 -319.285 -83.4098C -317.0144511057725 -83.69618626625258 -314.8951819887312 -83.89890281299593 -312.9313258668885 -84.03562234519273 C -312.2015703631234 -84.08642463251914 -311.4933104256528 -84.1281073553443 -310.8067390781466 -84.16157954894851 A 1.5 1.5 0 0 0 -309.448 -85.3404A 321 321 0 0 1 -309.322 -85.796A 1.5 1.5 0 0 0 -309.882 -87.5055C -310.4536962409671 -87.8869920832756 -311.03988224483044 -88.28668641308617 -311.6398229007421 -88.70524964254788 C -313.2543298855838 -89.83165556124698 -314.96825090063936 -91.09453732250547 -316.76886883548457 -92.50682041861631 A 330 330 0 0 1 -315.833 -95.6524C -313.5535066613872 -95.85098990493982 -311.4279996321106 -95.97188431036889 -309.4603335163827 -96.0328199715171 C -308.72916231261104 -96.05546149196361 -308.01982215332913 -96.0698186099876 -307.3324708867781 -96.07680712426288 A 1.5 1.5 0 0 0 -305.929 -97.2024A 321 321 0 0 1 -305.786 -97.6528A 1.5 1.5 0 0 0 -306.279 -99.3826C -306.8361218352198 -99.78584681329593 -307.4064691294828 -100.20783443436429 -307.9898336959817 -100.64920700966393 C -309.55973236038886 -101.83699540886458 -311.2237117534198 -103.16498944813466 -312.96856609404756 -104.64561493111113 A 330 330 0 0 1 -311.912 -107.753C -309.62671617118315 -107.86338784990522 -307.4981290927596 -107.90228050135572 -305.5295763421907 -107.88734175942112 C -304.79807573853935 -107.8817888745096 -304.08870922321813 -107.86879905738047 -303.40159923452416 -107.84929350950003 A 1.5 1.5 0 0 0 -301.956 -108.92A 321 321 0 0 1 -301.795 -109.364A 1.5 1.5 0 0 0 -302.222 -111.112C -302.76268139374145 -111.53644983769314 -303.31634261415473 -111.98010380354769 -303.8822643872469 -112.44362997801184 C -305.4052223347716 -113.69103616200093 -307.01678793371127 -115.08216948022847 -308.70328635224814 -116.62893758667472 A 330 330 0 0 1 -307.528 -119.693C -305.23991366279427 -119.71553329680889 -303.1114089743374 -119.67236641151806 -301.1448942652438 -119.58157546097053 C -300.41415105122877 -119.54783642061501 -299.70581208479734 -119.50751896728755 -299.0199642123963 -119.46154833661906 A 1.5 1.5 0 0 0 -297.534 -120.476A 321 321 0 0 1 -297.356 -120.914A 1.5 1.5 0 0 0 -297.715 -122.676C -298.23942682181195 -123.12134330050773 -298.7755793946051 -123.58600447501598 -299.32321758503224 -124.07099558839711 C -300.7969721589901 -125.37616628739454 -302.353729662879 -126.828372079579 -303.97936653077085 -128.43898477808773 A 330 330 0 0 1 -302.687 -131.456C -300.39961660312474 -131.3898175282434 -298.27435662134155 -131.2646552391978 -296.31280160212384 -131.098146968037 C -295.58390144200825 -131.03627189828683 -294.87764240276755 -130.96868670835013 -294.19407560997064 -130.89631929340106 A 1.5 1.5 0 0 0 -292.67 -131.852A 321 321 0 0 1 -292.476 -132.283A 1.5 1.5 0 0 0 -292.767 -134.059C -293.2730783129927 -134.52331554026492 -293.79092567697046 -135.00829357691123 -294.3194666593702 -135.5140290785294 C -295.741828304466 -136.8750252020886 -297.2414648406618 -138.3861459279326 -298.8038249512828 -140.05821033326728 A 330 330 0 0 1 -297.396 -143.023C -295.1130162153564 -142.86889607498284 -292.9941584362971 -142.66192433563597 -291.0404773867512 -142.41994612498854 C -290.3145032065753 -142.33002695355606 -289.61137338268117 -142.2352744382408 -288.9311032438025 -142.13661775518744 A 1.5 1.5 0 0 0 -287.372 -143.033A 321 321 0 0 1 -287.161 -143.456A 1.5 1.5 0 0 0 -287.383 -145.241C -287.87101436494294 -145.72542666131818 -288.3697871549357 -146.23000102885072 -288.878445676643 -146.7557295481148 C -290.24730119199097 -148.17052906602703 -291.68758875240025 -149.73831965539122 -293.1843509093222 -151.46935158359273 A 330 330 0 0 1 -291.664 -154.377C -289.38796679495755 -154.13571448463856 -287.27865920292805 -153.8472407926402 -285.3357547045029 -153.53015214922567 C -284.6137850831824 -153.4123224689095 -283.91482911371935 -153.2905434019071 -283.23886630523856 -153.16574402485793 A 1.5 1.5 0 0 0 -281.646 -154.002A 321 321 0 0 1 -281.419 -154.416A 1.5 1.5 0 0 0 -281.572 -156.209C -282.04126081719573 -156.7110337014309 -282.5202180071042 -157.23445475435392 -283.00823835480077 -157.77939521707182 C -284.3215540335035 -159.2458961634938 -285.7003527847306 -160.86802735189474 -287.12929325032184 -162.65545501103023 A 330 330 0 0 1 -285.498 -165.503C -283.23297404056643 -165.17353365943745 -281.1363504311719 -164.8039865997847 -279.20710905460834 -164.41225862179712 C -278.49021662149073 -164.26669349200336 -277.79647294445317 -164.11806880031867 -277.1258217434546 -163.96731214354935 A 1.5 1.5 0 0 0 -275.502 -164.741A 321 321 0 0 1 -275.259 -165.147A 1.5 1.5 0 0 0 -275.343 -166.944C -275.7924789271779 -167.46381535820373 -276.2509089309145 -168.005305450525 -276.7175660533908 -168.56864823934478 C -277.97339070401586 -170.08467183568666 -279.2886521665108 -171.75873362488207 -280.64764796574 -173.5999014359531 A 330 330 0 0 1 -278.907 -176.382C -276.6571824170853 -175.96595472547827 -274.57635774135406 -175.51588333376736 -272.6636457581101 -175.0500980109651 C -271.95289559937106 -174.8770136976218 -271.265394908857 -174.70176419277013 -270.60105170097654 -174.52527423525376 A 1.5 1.5 0 0 0 -268.949 -175.236A 321 321 0 0 1 -268.69 -175.632A 1.5 1.5 0 0 0 -268.705 -177.431C -269.13395250219145 -177.96779623761313 -269.571174230883 -178.52655087819159 -270.015774816246 -179.1074590354488 C -271.21224266170816 -180.6707529273828 -272.4620127531899 -182.3942581659029 -273.7490448277277 -184.28643070823557 A 330 330 0 0 1 -271.903 -187C -269.670361569761 -186.4969433965175 -267.60842730626575 -185.96701634324234 -265.71508643010077 -185.42786569228673 C -265.0115345063466 -185.22751934653797 -264.3312982212571 -185.02590539648565 -263.6742500203532 -184.82394434912757 A 1.5 1.5 0 0 0 -261.996 -185.471A 321 321 0 0 1 -261.722 -185.856A 1.5 1.5 0 0 0 -261.668 -187.654C -262.0755741064721 -188.20737058863415 -262.49093798035284 -188.78255963641138 -262.9128214860786 -189.3801701075961 C -264.04815493562245 -190.98841171137636 -265.2305768742566 -192.7587997896816 -266.44373308218763 -194.69916586493778 A 330 330 0 0 1 -264.494 -197.339C -262.2828918094348 -196.7508537960886 -260.24291137128677 -196.14185839319785 -258.371754536331 -195.53014342952486 C -257.6764461137595 -195.3028327056816 -257.00448486027767 -195.07515384801764 -256.3557078420262 -194.8480217640888 A 1.5 1.5 0 0 0 -254.653 -195.429A 321 321 0 0 1 -254.365 -195.804A 1.5 1.5 0 0 0 -254.241 -197.599C -254.62783036382004 -198.1673254886842 -255.02071927731097 -198.7580943860239 -255.419258911612 -199.37151930201955 C -256.4917712017764 -201.0223192551421 -257.6050882647934 -202.83695990991748 -258.74256622148346 -204.82263671868847 A 330 330 0 0 1 -256.693 -207.386C -254.50574869052832 -206.7124517025598 -252.49075287406842 -206.02529273374856 -250.64456005565037 -205.34192228150127 C -249.95852815310005 -205.0879848948166 -249.295840263205 -204.8345793917301 -248.65629831479646 -204.58261372107862 A 1.5 1.5 0 0 0 -246.933 -205.098A 321 321 0 0 1 -246.631 -205.461A 1.5 1.5 0 0 0 -246.438 -207.25C -246.80178637763564 -207.8328634454434 -247.17161661617803 -208.43833448774657 -247.54622026922684 -209.0666624839361 C -248.55431796986716 -210.75756819501132 -249.5968761035233 -212.61376541694545 -250.65698585941968 -214.64180284172338 A 330 330 0 0 1 -248.51 -217.124C -246.3504867046762 -216.3669371825987 -244.36346918662468 -215.6026355590724 -242.5449832710652 -214.8486249008621 C -241.86924712526064 -214.56843812578822 -241.2168171535071 -214.28968246151268 -240.5874604416003 -214.01325754921473 A 1.5 1.5 0 0 0 -238.845 -214.462A 321 321 0 0 1 -238.529 -214.813A 1.5 1.5 0 0 0 -238.268 -216.593C -238.60906929150983 -217.18962438146963 -238.95529139878892 -217.80889802117932 -239.30540252241488 -218.45119559145843 C -240.2475879040602 -220.17969488402318 -241.21783818106306 -222.0746909232656 -242.1990047324505 -224.14207591142943 A 330 330 0 0 1 -239.958 -226.54C -237.82922211423246 -225.69996657941388 -235.87313500398722 -224.85965782312198 -234.0850577134968 -224.03612719162396 C -233.42062126476992 -223.7301073012961 -232.7794185255366 -223.42641562276714 -232.1611820845975 -223.12594215296318 A 1.5 1.5 0 0 0 -230.403 -223.507A 321 321 0 0 1 -230.074 -223.846A 1.5 1.5 0 0 0 -229.744 -225.614C -230.0618510147914 -226.22370696894774 -230.38395060906302 -226.85586315200547 -230.70904904361532 -227.51117603569136 C -231.5839223026431 -229.27470088054645 -232.4804232233909 -231.2056803438932 -233.38118885237267 -233.3093413841969 A 330 330 0 0 1 -231.049 -235.619C -228.95461495115498 -234.69767382310764 -227.0323644048463 -233.78260637969998 -225.27735228358 -232.89077929332544 C -224.6252026843171 -232.55938094110522 -223.9961798116977 -232.23120444266317 -223.38998215481982 -231.9071288284049 A 1.5 1.5 0 0 0 -221.619 -232.22A 321 321 0 0 1 -221.276 -232.546A 1.5 1.5 0 0 0 -220.878 -234.301C -221.1728301387969 -234.92168928287424 -221.47032867710374 -235.56578881564332 -221.76993142425184 -236.23314341521868 C -222.57619276257458 -238.0290737457463 -223.3976123967902 -239.99316777946606 -224.21663883701765 -242.12997946537922 A 330 330 0 0 1 -221.798 -244.348C -219.7398502080121 -243.34669103147857 -217.85429211083044 -242.3582244154913 -216.13495257806332 -241.39942586060758 C -215.49605872609408 -241.04314140460508 -214.88015025856996 -240.69096765765602 -214.28689201284072 -240.34377137767112 A 1.5 1.5 0 0 0 -212.505 -240.588A 321 321 0 0 1 -212.15 -240.901A 1.5 1.5 0 0 0 -211.685 -242.639C -211.9552130705297 -243.27064874199434 -212.227668559672 -243.92573468661857 -212.5013304999958 -244.6041395142041 C -213.2377820561691 -246.42980711899773 -213.9829000217474 -248.4240976710841 -214.71897044668057 -250.59088534420422 A 330 330 0 0 1 -212.216 -252.714C -210.19861824905604 -251.63416837066677 -208.35255397226686 -250.57377114569337 -206.67144144855473 -249.54942560809323 C -206.04675254766198 -249.16878437967142 -205.44487353965954 -248.793136608303 -204.8654361080996 -248.42333549166284 A 1.5 1.5 0 0 0 -203.075 -248.599A 321 321 0 0 1 -202.709 -248.898A 1.5 1.5 0 0 0 -202.177 -250.616C -202.4226944119375 -251.25818130786467 -202.66970206514173 -251.92328040398988 -202.91701661944472 -252.6117275543965 C -203.58256424832885 -254.46442004141903 -204.2502735244566 -256.4859441969367 -204.90229435520183 -258.67948866357534 A 330 330 0 0 1 -202.32 -260.704C -200.34509447046582 -259.54779314613637 -198.5412667094158 -258.4170407429845 -196.90087882149578 -257.3286700915296 C -196.29132297118457 -256.9242376088771 -195.70436763358006 -256.5256739125052 -195.13961188564411 -256.13381737225814 A 1.5 1.5 0 0 0 -193.344 -256.24A 321 321 0 0 1 -192.966 -256.525A 1.5 1.5 0 0 0 -192.369 -258.221C -192.58943661386064 -258.8724199135168 -192.81062945217084 -259.54654402426223 -193.03122918553441 -260.24401067243474 C -193.62488408386412 -262.12097549881594 -194.2141926557195 -264.16672988189964 -194.78119518575832 -266.3837721958342 A 330 330 0 0 1 -192.123 -268.308C -190.19391823998006 -267.075808095629 -188.43500693927825 -265.87638047170503 -186.83778080934786 -264.7256016972871 C -186.2442636259693 -264.29797882522877 -185.67310399756082 -263.8770913494299 -185.1238689901449 -263.4637615663391 A 1.5 1.5 0 0 0 -183.325 -263.501A 321 321 0 0 1 -182.937 -263.771A 1.5 1.5 0 0 0 -182.274 -265.443C -182.47004893489563 -266.1020520943444 -182.6650983323934 -266.7841996743767 -182.8586555000744 -267.4896495950035 C -183.37953567552273 -269.3880981564894 -183.88956800811044 -271.45504339245565 -184.3707098425056 -273.69228969674174 A 330 330 0 0 1 -181.64 -275.512C -179.76017114720568 -274.2070288569146 -178.0487895191331 -272.94070800031295 -176.49709814402098 -271.72923081349285 C -175.92050141529913 -271.2790528707854 -175.36598606721972 -270.8364669275467 -174.83308779807535 -270.4022779851449 A 1.5 1.5 0 0 0 -173.034 -270.37A 321 321 0 0 1 -172.636 -270.625A 1.5 1.5 0 0 0 -171.909 -272.27C -172.07956573643955 -272.9363367950167 -172.24818190848322 -273.62549437854415 -172.414408942844 -274.33787948557597 C -172.8617405243971 -276.2549912595548 -173.29173886332975 -278.34005649049686 -173.68630517027012 -280.59418291114724 A 330 330 0 0 1 -170.887 -282.308C -169.05935459692077 -280.930860584383 -167.3980452389844 -279.59952786638894 -165.89419396459184 -278.3291521572812 C -165.33537433955274 -277.85708797272133 -164.79832711454944 -277.3934611114155 -164.28255730995693 -276.9390580836618 A 1.5 1.5 0 0 0 -162.487 -276.838A 321 321 0 0 1 -162.079 -277.077A 1.5 1.5 0 0 0 -161.289 -278.693C -161.43342414615694 -279.36512032745145 -161.57535657991428 -280.0602640339293 -161.71400651766143 -280.7785259377191 C -162.08712490535794 -282.71145267366796 -162.4364504026505 -284.8115401208257 -162.74385497547607 -287.0791977050859 A 330 330 0 0 1 -159.881 -288.683C -158.10736677865583 -287.23731368979395 -156.49859789605455 -285.8429470697322 -155.04482099230611 -284.5155602339113 C -154.50460870855557 -284.0223111526571 -153.98582749700705 -283.53833218312195 -153.48795243550873 -283.0643901760165 A 1.5 1.5 0 0 0 -151.697 -282.894A 321 321 0 0 1 -151.28 -283.117A 1.5 1.5 0 0 0 -150.429 -284.702C -150.54744112306074 -285.37885145613535 -150.66247894969555 -286.07894851144357 -150.773345798793 -286.80202009119506 C -151.07169665111905 -288.7478900423221 -151.33983031432484 -290.85987960844795 -151.55961644245292 -293.1376993003308 A 330 330 0 0 1 -148.637 -294.63C -146.92047904677543 -293.11701868379373 -145.3666407853908 -291.66168977037734 -143.96509812678232 -290.279263904776 C -143.4442957770228 -289.7655627463599 -142.94455133151493 -289.2619507155345 -142.46531070545603 -288.7691738641141 A 1.5 1.5 0 0 0 -140.682 -288.53A 321 321 0 0 1 -140.257 -288.737A 1.5 1.5 0 0 0 -139.346 -290.287C -139.43778995827458 -290.9685955883839 -139.52576226623424 -291.67260585921827 -139.60868131194533 -292.3994128484056 C -139.83182136941943 -294.3553350382008 -140.0183648326962 -296.476088943084 -140.1502059801559 -298.760686588772 A 330 330 0 0 1 -137.172 -300.14C -135.51531174614615 -298.5612400961556 -134.01871264150574 -297.0471110696991 -132.6714864981815 -295.61170004266654 C -132.1708678378013 -295.0783100122459 -131.69090262802072 -294.55581313588357 -131.23100844458952 -294.0449335580893 A 1.5 1.5 0 0 0 -129.459 -293.737A 321 321 0 0 1 -129.026 -293.927A 1.5 1.5 0 0 0 -128.055 -295.442C -128.12097624639563 -296.12604804845347 -128.18175233533415 -296.83292558765055 -128.23660038493827 -297.5623881700547 C -128.38419812866087 -299.5254566874098 -128.48887424462265 -301.6518241296728 -128.53257453518899 -303.9398055053511 A 330 330 0 0 1 -125.504 -305.203C -123.90880951931213 -303.5618894540557 -122.47167306680109 -301.99120985412685 -121.18076501092774 -300.5049462539992 C -120.70107380843346 -299.95265980846335 -120.24160091808159 -299.41205435950843 -119.80173644148115 -298.88383106847886 A 1.5 1.5 0 0 0 -118.043 -298.508A 321 321 0 0 1 -117.603 -298.681A 1.5 1.5 0 0 0 -116.574 -300.157C -116.61381336315434 -300.84354641578705 -116.64730293811371 -301.55224101628653 -116.67399850393332 -302.2832754302771 C -116.74583464812449 -304.2505737467942 -116.76848789959897 -306.3793955850339 -116.72398240780589 -308.66736143968444 A 330 330 0 0 1 -113.649 -309.813C -112.11821613186177 -308.1115372991063 -110.7426774832787 -306.48664068238793 -109.51000541531207 -304.9517326491046 C -109.0519543473128 -304.3813703197228 -108.61365641467809 -303.8234594750028 -108.19447515100155 -303.27867725140914 A 1.5 1.5 0 0 0 -106.451 -302.835A 321 321 0 0 1 -106.005 -302.992A 1.5 1.5 0 0 0 -104.921 -304.427C -104.93339748580182 -305.11408190906417 -104.93955079136316 -305.82354066419987 -104.93805421183009 -306.5550608128785 C -104.9340220296218 -308.52366611595215 -104.87461876070212 -310.6517795622727 -104.74197360830212 -312.9363306679369 A 330 330 0 0 1 -101.625 -313.962C -100.16104885338562 -312.20342422529444 -98.84915164475022 -310.5267246986221 -97.67654694401296 -308.9454526430947 C -97.24081653639755 -308.3578618164539 -96.82434474016073 -307.78347446340086 -96.42646946647807 -307.22294268949946 A 1.5 1.5 0 0 0 -94.7015 -306.713A 321 321 0 0 1 -94.2498 -306.852A 1.5 1.5 0 0 0 -93.1107 -308.244C -93.09708219334313 -308.93130979913695 -93.07589008754819 -309.64047866693926 -93.04620358612874 -310.37139773175187 C -92.96630906812896 -312.3383852669886 -92.82493753417614 -314.462628585951 -92.60434979190336 -316.7403707879584 A 330 330 0 0 1 -89.4499 -317.646C -88.05507243209317 -315.8314709214208 -86.80876574741879 -314.10545955514755 -85.69797055122254 -312.4801727712567 C -85.28520816810304 -311.8762264303003 -84.8911812598818 -311.28621593547365 -84.51520309898079 -310.71076739260764 A 1.5 1.5 0 0 0 -82.8112 -310.134A 321 321 0 0 1 -82.3544 -310.256A 1.5 1.5 0 0 0 -81.1625 -311.603C -81.1224526843448 -312.289558835387 -81.0739466522782 -312.9973842045716 -81.01611433416979 -313.7266162599937 C -80.8604761795622 -315.6890636765156 -80.63734641608434 -317.8062808825242 -80.32914381086674 -320.073830142184 A 330 330 0 0 1 -77.1422 -320.857C -75.81827270174693 -318.9902872031263 -74.63940817728894 -317.2175283301425 -73.5920727926431 -315.5506415043946 C -73.20289167456686 -314.9312369314328 -72.83189505963726 -314.3264798726738 -72.47837260179308 -313.73696950401103 A 1.5 1.5 0 0 0 -70.7978 -313.095A 321 321 0 0 1 -70.3367 -313.199A 1.5 1.5 0 0 0 -69.0938 -314.5C -69.02729965062998 -315.1838396714948 -68.95155175764184 -315.88926992681127 -68.86565954424586 -316.6157315537063 C -68.63450898443874 -318.5707232458841 -68.3299524950415 -320.6777687920303 -67.93459292309741 -322.9317562142931 A 330 330 0 0 1 -64.7198 -323.591C -63.46882986013428 -321.6751800210809 -62.359158933416424 -319.85830742698806 -61.37683938516912 -318.15229705101893 C -61.011817738027965 -317.5183544946375 -60.664402605588734 -316.8997493587388 -60.3338610786671 -316.29705299908375 A 1.5 1.5 0 0 0 -58.6793 -315.591A 321 321 0 0 1 -58.2145 -315.677A 1.5 1.5 0 0 0 -56.9224 -316.929C -56.82959284566807 -317.6098522781055 -56.72671563030659 -318.3118393627214 -56.61289113157516 -319.0344512579747 C -56.306571586661065 -320.9790826971392 -55.92104085053313 -323.0728261485365 -55.439111697075475 -325.30990298715744 A 330 330 0 0 1 -52.2013 -325.845C -51.02509145876853 -323.88216043344187 -49.98626276647448 -322.02387344354094 -49.07041848552844 -320.28127413479507 C -48.730098621519026 -319.6337354426433 -48.40678112579028 -319.002201290468 -48.099711614917105 -318.3872143650353 A 1.5 1.5 0 0 0 -46.4736 -317.618A 321 321 0 0 1 -46.0058 -317.686A 1.5 1.5 0 0 0 -44.6665 -318.887C -44.54745438693693 -319.5639923313767 -44.417600693750046 -320.2614933039737 -44.276013018596096 -320.9791818840121 C -43.894979587133065 -322.9105639337088 -43.42904738679849 -324.987894618376 -42.86126465335725 -327.20473725114283 A 330 330 0 0 1 -39.6052 -327.615C -38.505545143957264 -325.6079495322191 -37.53910207255316 -323.71100900112606 -36.69109372759109 -321.9344097371789 C -36.37598125950227 -321.27423695666755 -36.077241752875956 -320.63071205770194 -35.79410047083277 -320.004348251784 A 1.5 1.5 0 0 0 -34.1988 -319.173A 321 321 0 0 1 -33.7288 -319.223A 1.5 1.5 0 0 0 -32.3441 -320.371C -32.19913183191418 -321.0433565679181 -32.042494584368626 -321.7353351521889 -31.873354089420943 -322.44703414800244 C -31.418172872293198 -324.362297356378 -30.87253144262907 -326.42012898676046 -30.219738683288774 -328.61344385339487 A 330 330 0 0 1 -26.9503 -328.898C -25.92879118972777 -326.8499833147448 -25.036169582454896 -324.91720752459275 -24.257257058395716 -323.1092477967097 C -23.96782014842032 -322.43742174569877 -23.694102467801272 -321.78286218406623 -23.43531007723047 -321.1460520855724 A 1.5 1.5 0 0 0 -21.8732 -320.254A 321 321 0 0 1 -21.4016 -320.286A 1.5 1.5 0 0 0 -19.9738 -321.38C -19.802971067705073 -322.04574709816626 -19.619782981560178 -322.73117522240875 -19.42334095863686 -323.43582726370494 C -18.894688217999423 -325.3321261266481 -18.27014821778342 -327.3674013849114 -17.533315285915865 -329.53392988030726 A 330 330 0 0 1 -14.2554 -329.692C -13.313514863424373 -327.6064164930089 -12.496040887068704 -325.6406769663295 -11.787381413258174 -323.8040428579776 C -11.524050077445015 -323.1215616675761 -11.275760884842988 -322.45693992158436 -11.041701873269906 -321.81062963846756 A 1.5 1.5 0 0 0 -9.51516 -320.859A 321 321 0 0 1 -9.0427 -320.873A 1.5 1.5 0 0 0 -7.57371 -321.911C -7.377389054582213 -322.56967467178583 -7.167922292144444 -323.24753399630816 -6.944470594908953 -323.94409218244607 C -6.343131749465833 -325.81860937114936 -5.6406210569814785 -327.82830445143236 -4.820842664335851 -329.9648277669611 A 330 330 0 0 1 -1.53926 -329.996C -0.678458665031449 -327.87612523520113 0.06265316036066038 -325.8803424687077 0.7000067294441403 -324.0177626648443 C 0.9368412600645604 -323.3256402964882 1.1593330817120915 -322.65194379381956 1.3683109731118215 -321.9970935484449 A 1.5 1.5 0 0 0 2.85704 -320.987A 321 321 0 0 1 3.32968 -320.983A 1.5 1.5 0 0 0 4.83759 -321.964C 5.059153536070865 -322.6143608902475 5.294587770299125 -323.2836443203139 5.544717159944567 -323.9710737756827 C 6.217848701835965 -325.8210243223444 6.99728636734686 -327.8021534232239 7.8987922770558585 -329.90549732891463 A 330 330 0 0 1 11.1792 -329.811C 11.957605518536997 -327.6587088353864 12.6212541240697 -325.63584796099514 13.186354873039637 -323.7500896940646 C 13.39634073370657 -323.0493544330758 13.592704628583324 -322.36758408376687 13.776290921622394 -321.7051667863106 A 1.5 1.5 0 0 0 15.225 -320.639A 321 321 0 0 1 15.6971 -320.616A 1.5 1.5 0 0 0 17.2417 -321.538C 17.488179748753396 -322.17973936329344 17.749231670429964 -322.83945254536354 18.025667135569478 -323.5167319568963 C 18.76959130323399 -325.33936739234343 19.624797932223686 -327.2889871528354 20.606691992813253 -329.3560267133242 A 330 330 0 0 1 23.881 -329.135C 24.575904302803508 -326.9544903088332 25.161103706588126 -324.90755668837096 25.65311206598092 -323.00142162703077 C 25.835937280968402 -322.2931145548947 26.005881511485654 -321.6042832642858 26.163803452242128 -320.9352830672837 A 1.5 1.5 0 0 0 27.5703 -319.814A 321 321 0 0 1 28.0412 -319.773A 1.5 1.5 0 0 0 29.6202 -320.635C 29.891223795038933 -321.2664558075731 30.17750555965599 -321.9156186066118 30.479836400470802 -322.58174174114873 C 31.293447946719255 -324.3743541782344 32.2231529597874 -326.2895680507417 33.28397637250128 -328.317232267984 A 330 330 0 0 1 36.5473 -327.97C 37.157690697322906 -325.7645159121103 37.66357146934996 -323.6965506722521 38.081756462972194 -321.7728707589369 C 38.23714940909098 -321.05804420656943 38.380421489321726 -320.36317537043243 38.512444453369184 -319.68858620662587 A 1.5 1.5 0 0 0 39.8747 -318.514A 321 321 0 0 1 40.3437 -318.455A 1.5 1.5 0 0 0 41.9547 -319.255C 42.24985848817145 -319.875867087303 42.560944767275636 -320.51351504296593 42.8887218112203 -321.1674922422137 C 43.77081195441382 -322.9274183989214 44.77363409000564 -324.805380952631 45.911810790849565 -326.79065732847965 A 330 330 0 0 1 49.1593 -326.318C 49.68427195805987 -324.09055358866453 50.11008251191014 -322.0046291027355 50.45382284284897 -320.06626234624457 C 50.58155265299677 -319.3459783305447 50.69793972379373 -318.64610431462523 50.803867564782514 -317.9669284202764 A 1.5 1.5 0 0 0 52.1199 -316.74A 321 321 0 0 1 52.5862 -316.663A 1.5 1.5 0 0 0 54.2269 -317.401C 54.54572262031552 -318.010039198375 54.881151233417846 -318.635224957906 55.233887502555305 -319.27608460877195 C 56.183145722490714 -321.0007097650503 57.25759508903555 -322.83863091338605 58.47143409033352 -324.77856992525597 A 330 330 0 0 1 61.6983 -324.181C 62.1370373591772 -321.9350903421895 62.48214506865272 -319.8343056655438 62.75093004233592 -317.8841318949005 C 62.850806948496334 -317.1594605409138 62.94013609373655 -316.45562114714653 63.0198114348081 -315.7728675730173 A 1.5 1.5 0 0 0 64.2876 -314.497A 321 321 0 0 1 64.7506 -314.402A 1.5 1.5 0 0 0 66.4185 -315.076C 66.76054824177716 -315.6717441989095 67.11982084301401 -316.2835389246211 67.49699227751809 -316.91032890273755 C 68.51200826246604 -318.59709078518665 69.65648855190737 -320.3922399310374 70.94418645459987 -322.28395941400737 A 330 330 0 0 1 74.1456 -321.563C 74.49748584296528 -319.3013285416875 74.76137798198125 -317.1888048074459 74.95480826491548 -315.22972139333945 C 75.02668388009614 -314.5017393443743 75.08882238358218 -313.7949802660509 75.14212685118368 -313.10966337825755 A 1.5 1.5 0 0 0 76.3597 -311.785A 321 321 0 0 1 76.8188 -311.673A 1.5 1.5 0 0 0 78.5114 -312.282C 78.87618780167546 -312.8644560908114 79.25877062020038 -313.46195084005825 79.65981685695083 -314.0737399243523 C 80.7390825989542 -315.72013251298995 81.95189345838244 -317.4698426055543 83.31153713133419 -319.3105320343958 A 330 330 0 0 1 86.4828 -318.466C 86.74725350684193 -316.1931811637138 86.92953801118328 -314.07205694569984 87.04732622424332 -312.1069744958655 C 87.09109376293421 -311.37676331392555 87.12594930557057 -310.6681345821093 87.15280370532231 -309.9812725550798 A 1.5 1.5 0 0 0 88.3185 -308.611A 321 321 0 0 1 88.7728 -308.481A 1.5 1.5 0 0 0 90.4876 -309.024C 90.87464110973484 -309.5923456584502 91.27996574274124 -310.1746527340437 91.7042909478545 -310.7705319902514 C 92.84620298317387 -312.3741092417039 94.12554254103861 -314.07578073892387 95.555111963375 -315.86270540369503 A 330 330 0 0 1 98.6915 -314.897C 98.86814088657826 -312.61526597887246 98.96854693638883 -310.4886926286374 99.01051808177647 -308.52053066357 C 99.02611251860105 -307.7891752224792 99.03363331555236 -307.079729645975 99.03399774990682 -306.3923429497489 A 1.5 1.5 0 0 0 100.146 -304.978A 321 321 0 0 1 100.595 -304.831A 1.5 1.5 0 0 0 102.329 -305.308C 102.73808207914425 -305.8602742721314 103.16554633634068 -306.4265285411904 103.61252009039949 -307.00561267225913 C 104.81538188177717 -308.56399215384465 106.15934942492538 -310.21509688454245 107.65672068717488 -311.94560195354285 A 330 330 0 0 1 110.754 -310.86C 110.84213999521864 -308.57289869120035 110.86051841735804 -306.44403565606444 110.82661013859594 -304.47571827149085 C 110.81400830491928 -303.74430514509714 110.7941831825471 -303.0350967462954 110.76805711006462 -302.3482066304124 A 1.5 1.5 0 0 0 111.825 -300.892A 321 321 0 0 1 112.268 -300.727A 1.5 1.5 0 0 0 114.019 -301.137C 114.44888521075337 -301.67378666556397 114.89785400903689 -302.22314684484155 115.36681224370369 -302.78457550621476 C 116.628836700907 -304.29544193552067 118.03543549847015 -305.8935268554991 119.598383958054 -307.56504131954995 A 330 330 0 0 1 122.651 -306.36C 122.65146107752605 -304.0720850406324 122.58778456719587 -301.9440951696977 122.47804724177067 -299.97854669225137 C 122.43726786012103 -299.24816254010585 122.39012627258442 -298.54024498902197 122.33754850873763 -297.85487196525315 A 1.5 1.5 0 0 0 123.337 -296.359A 321 321 0 0 1 123.774 -296.177A 1.5 1.5 0 0 0 125.54 -296.519C 125.9896517792522 -297.03910269805755 126.45945808625058 -297.5707526038345 126.94970407087291 -298.1136916816643 C 128.26901620577183 -299.57480036635945 129.73615647570642 -301.1174912028866 131.36236006208722 -302.7275316950758 A 330 330 0 0 1 134.366 -301.406C 134.2785590401965 -299.11951188028155 134.13292220150714 -296.99555672539134 133.94751886602356 -295.0356973679438 C 133.87862252227634 -294.3074273208518 133.80423450777192 -293.60185236969056 133.72528316727767 -292.9190146958652 A 1.5 1.5 0 0 0 134.667 -291.386A 321 321 0 0 1 135.096 -291.188A 1.5 1.5 0 0 0 136.874 -291.461C 137.34323568243724 -291.9631081136843 137.833181507518 -292.47625787437215 138.3439868842604 -292.9999007247617 C 139.71862659649508 -294.40908089753253 141.24412861036916 -295.89408567679584 142.9311712749481 -297.4402601620131 A 330 330 0 0 1 145.882 -296.004C 145.70615951858406 -293.7225372417895 145.4787787240013 -291.6057723604143 145.21798483195897 -289.6545138835188 C 145.12107388532442 -288.92943993136254 145.01954996203068 -288.22725585193103 144.91434234279504 -287.54796801911215 A 1.5 1.5 0 0 0 145.796 -285.98A 321 321 0 0 1 146.217 -285.765A 1.5 1.5 0 0 0 148.004 -285.97C 148.49276891515152 -286.4533443111388 149.00212634642588 -286.94723154079105 149.53273221239016 -287.4508001882239 C 150.9606572014895 -288.8059582318811 152.54225452290237 -290.2310706841697 154.28762982853968 -291.7110820129501 A 330 330 0 0 1 157.181 -290.162C 156.91728454120013 -287.8891794035085 156.60849761008123 -285.78274967053886 156.27270062263358 -283.84299105643134 C 156.1479190535818 -283.1221904406588 156.01941005546237 -282.4244404669502 155.8881024643114 -281.74971169220646 A 1.5 1.5 0 0 0 156.709 -280.149A 321 321 0 0 1 157.121 -279.918A 1.5 1.5 0 0 0 158.915 -280.054C 159.4216866300606 -280.51799713949043 159.94969891584117 -280.9918880704786 160.4993169505675 -281.47463436365615 C 161.97840575019237 -282.77375692161877 163.61374860201636 -284.136859759176 165.4148634468416 -285.5485090805717 A 330 330 0 0 1 168.246 -283.889C 167.89527775386642 -281.62810497775524 167.505543450562 -279.5351399131647 167.09524226086597 -277.60976305874965 C 166.9427754572153 -276.89430667191846 166.78747230992514 -276.20202745018065 166.63025983037988 -275.5328601771941 A 1.5 1.5 0 0 0 167.389 -273.902A 321 321 0 0 1 167.792 -273.655A 1.5 1.5 0 0 0 169.589 -273.722C 170.11375174802316 -274.16588473647914 170.65963442112883 -274.6190753096501 171.2274480578025 -275.0802820330188 C 172.75550318760554 -276.3214390005558 174.44216194304687 -277.6205070632306 176.29634041302717 -278.96169709164127 A 330 330 0 0 1 179.062 -277.195C 178.623829166037 -274.94861603483645 178.15372651830546 -272.872225154158 177.66953071031648 -270.9640905893778 C 177.48960519180304 -270.2550413841313 177.30773862903044 -269.5692614327231 177.12485483147168 -268.9066498424597 A 1.5 1.5 0 0 0 177.82 -267.247A 321 321 0 0 1 178.213 -266.985A 1.5 1.5 0 0 0 180.012 -266.983C 180.55307908150033 -267.4064444274182 181.1160211247384 -267.8382613381142 181.70118676336196 -268.2772432774321 C 183.2759379937815 -269.4585906692163 185.01140678607362 -270.6916939332411 186.91589413061575 -271.9604320643483 A 330 330 0 0 1 189.611 -270.088C 189.0869993825322 -267.8606362829741 188.53722682127903 -265.80390447749687 187.97985576409283 -263.91584711544607 C 187.7727388458305 -263.21425852528614 187.56457906649635 -262.5359967066087 187.35629566114937 -261.8809252402647 A 1.5 1.5 0 0 0 187.987 -260.196A 321 321 0 0 1 188.37 -259.919A 1.5 1.5 0 0 0 190.167 -259.847C 190.7241589351581 -260.24971870417266 191.3033239862513 -260.6595204025589 191.90497224698018 -261.07562536291744 C 193.52407997211714 -262.19540805263216 195.3057804174839 -263.3607144980569 197.25774714216374 -264.55511576923396 A 330 330 0 0 1 199.879 -262.58C 199.26924328467703 -260.3746963246653 198.64061760629681 -258.34067927821525 198.01089938538374 -256.4755042033139 C 197.77689878071442 -255.78241857751618 197.54275504753795 -255.1126825842903 197.30938148079306 -254.4661244807096 A 1.5 1.5 0 0 0 197.874 -252.758A 321 321 0 0 1 198.246 -252.467A 1.5 1.5 0 0 0 200.04 -252.325C 200.61188014860113 -252.70634030504206 201.20640774277015 -253.09351794925678 201.82364475754898 -253.48612772404593 C 203.48470347111666 -254.54268205197417 205.30998849947377 -255.63846038449577 207.30653456981253 -256.75675027529405 A 330 330 0 0 1 209.85 -254.682C 209.15543312566354 -252.50191801137981 208.44888827852665 -250.4936376604943 207.74775846544614 -248.65411596097763 C 207.4872218287704 -247.97056301597425 207.227442008798 -247.3103478741128 206.9693250034663 -246.67326372384719 A 1.5 1.5 0 0 0 207.468 -244.945A 321 321 0 0 1 207.829 -244.639A 1.5 1.5 0 0 0 209.615 -244.429C 210.20155254700614 -244.78751641771404 210.81055939536085 -245.151494778424 211.44246813594233 -245.52002606780093 C 213.1430100051238 -246.51178231252226 215.00916779282753 -247.53640453566663 217.0473269428693 -248.57692160421848 A 330 330 0 0 1 219.509 -246.406C 218.7308810058265 -244.25399791983847 217.9474667027132 -242.27443796407908 217.17596696513627 -240.46330261499503 C 216.88928137540367 -239.79029790452657 216.6042514231833 -239.14058449482556 216.32177446337116 -238.5139208129863 A 1.5 1.5 0 0 0 216.754 -236.768A 321 321 0 0 1 217.102 -236.448A 1.5 1.5 0 0 0 218.879 -236.169C 219.4789287662943 -236.50501202876086 220.10151006813516 -236.84525034377873 220.74715170850752 -237.1891556212758 C 222.4846502404119 -238.11464033179954 224.38890823921184 -239.06658416563369 226.46565237850115 -240.0277825170545 A 330 330 0 0 1 228.841 -237.764C 227.9813606944357 -235.64318997442524 227.1222408529792 -233.69529144349906 226.28151740708412 -231.91523324633096 C 225.96910879271053 -231.25377665263926 225.65925217687948 -230.61553025348468 225.35283493824656 -230.0002180735064 A 1.5 1.5 0 0 0 225.717 -228.239A 321 321 0 0 1 226.053 -227.906A 1.5 1.5 0 0 0 227.818 -227.559C 228.43022542042334 -227.87113244441252 229.06545620750248 -228.18712522210666 229.7238715187023 -228.5058935480908 C 231.49574531397184 -229.3637317329603 233.4352743701826 -230.2415828757417 235.54751808259462 -231.12203445886405 A 330 330 0 0 1 237.834 -228.768C 236.89312876559038 -226.68228724154625 235.95957977904578 -224.76894412582183 235.0508816865863 -223.0226077107679 C 234.71321419265243 -222.37368195907243 234.3789912667905 -221.74785081232727 234.0490889930383 -221.1448043027327 A 1.5 1.5 0 0 0 234.345 -219.37A 321 321 0 0 1 234.668 -219.025A 1.5 1.5 0 0 0 236.418 -218.61C 237.0421435793452 -218.8987050085804 237.68908009009067 -219.18998277888312 238.35929086532798 -219.483140559658 C 240.16290745331992 -220.27205772977368 242.13482601109095 -221.07451195917673 244.27943113883015 -221.872908688204 A 330 330 0 0 1 246.474 -219.433C 245.45294501680783 -217.38460292298845 244.44635385771642 -215.50865787389785 243.47103117029206 -213.79863777074752 C 243.10860646896396 -213.16320696921179 242.75051378764684 -212.55072087141434 242.39761661416367 -211.96083597763536 A 1.5 1.5 0 0 0 242.625 -210.176A 321 321 0 0 1 242.934 -209.819A 1.5 1.5 0 0 0 244.667 -209.337C 245.30188852721116 -209.60106004528723 245.95956960887221 -209.86719005718587 246.6405801168512 -210.1343017486097 C 248.47325986669605 -210.8531258107359 250.4746382491355 -211.57899092153312 252.6484185550928 -212.29414661946106 A 330 330 0 0 1 254.747 -209.771C 253.64809213997736 -207.7639505765113 252.56995429954318 -205.92819068322666 251.52945605282946 -204.257027466671 C 251.14281259802468 -203.6360356740282 250.7613821790932 -203.0378045949945 250.3860144047606 -202.4619577082671 A 1.5 1.5 0 0 0 250.544 -200.67A 321 321 0 0 1 250.84 -200.301A 1.5 1.5 0 0 0 252.553 -199.752C 253.19718877146306 -199.99201105382315 253.86463730809365 -200.2325979182977 254.55543577236924 -200.47326667287052 C 256.4144558740949 -201.12092967101287 258.442320635887 -201.7691272463329 260.6420465374282 -202.39997940725118 A 330 330 0 0 1 262.642 -199.798C 261.4663946154467 -197.83462359306316 260.3183118816873 -196.0417762417217 259.2141839426052 -194.41195275682486 C 258.8038961700125 -193.80632257979101 258.39969470415474 -193.22323531067389 258.00241401239725 -192.66228196598487 A 1.5 1.5 0 0 0 258.092 -190.866A 321 321 0 0 1 258.372 -190.485A 1.5 1.5 0 0 0 260.063 -189.871C 260.7163142745759 -190.08583418604613 261.39253863873455 -190.30052046349826 262.0920987409074 -190.5143887199576 C 263.9746972507146 -191.08992842202403 266.02603559576323 -191.65949543555408 268.2484389629159 -192.2051068032101 A 330 330 0 0 1 270.147 -189.528C 268.8962368011779 -187.61137396110698 267.6799148791497 -185.8641027827371 266.5137976491732 -184.27804045617643 C 266.0804751228143 -183.68867167873483 265.65410313163363 -183.121594511548 265.23549976186956 -182.57636811656766 A 1.5 1.5 0 0 0 265.255 -180.778A 321 321 0 0 1 265.521 -180.387A 1.5 1.5 0 0 0 267.187 -179.708C 267.84809388135847 -179.8972470363218 268.53208940736795 -180.08571376762228 269.2393718118846 -180.27246378217168 C 271.1427517555631 -180.77502510955924 273.2145160130997 -181.2651153563122 275.4562950240093 -181.72467531659132 A 330 330 0 0 1 277.25 -178.976C 275.92658019009093 -177.1093903496107 274.64382616772565 -175.41029126277846 273.41745214573933 -173.87034650533414 C 272.96173865234005 -173.29811475192747 272.5138295961612 -172.74789019249653 272.0745254668842 -172.21920078938606 A 1.5 1.5 0 0 0 272.025 -170.421A 321 321 0 0 1 272.276 -170.02A 1.5 1.5 0 0 0 273.914 -169.278C 274.58193191592477 -169.44138677561298 275.2726823925025 -169.60335395597895 275.98663629079465 -169.76270827435948 C 277.9079698191843 -170.19154457234364 279.9970819716879 -170.60142992586358 282.25490601813095 -170.97425571111765 A 330 330 0 0 1 283.941 -168.159C 282.5469798099594 -166.34427554226156 281.19969947327564 -164.69587289631798 279.9148906816033 -163.20433360195645 C 279.4374632741209 -162.65008903657247 278.96868261085865 -162.1175345528251 278.50933039565456 -161.60616761475794 A 1.5 1.5 0 0 0 278.391 -159.811A 321 321 0 0 1 278.626 -159.401A 1.5 1.5 0 0 0 280.234 -158.596C 280.9078239236766 -158.73378766220242 281.6043031037185 -158.8690146572001 282.323867775388 -159.00073652690378 C 284.2603003657108 -159.35521067394234 286.36365662191514 -159.68428216808113 288.63417125757906 -159.96981987151545 A 330 330 0 0 1 290.211 -157.092C 288.7475997414936 -155.3320232564287 287.33779474317294 -153.73676608108713 285.9964600206013 -152.29584822783983 C 285.4980280123275 -151.760414290924 285.00907220881663 -151.24632109837904 284.53035436668705 -150.75303636256427 A 1.5 1.5 0 0 0 284.343 -148.964A 321 321 0 0 1 284.562 -148.545A 1.5 1.5 0 0 0 286.138 -147.679C 286.8163715349079 -147.79035796246689 287.51754466018264 -147.89864386552196 288.24165104891256 -148.00253758753453 C 290.1903057457334 -148.28212294183837 292.3047811519252 -148.52989167549597 294.5846130761053 -148.72771707410794 A 330 330 0 0 1 296.049 -145.791C 294.5192277315516 -144.08899438131945 293.04899261708607 -142.54925274813516 291.6531247829055 -141.16109710582296 C 291.1344286936407 -140.645269290894 290.6260241908962 -140.15040117715336 290.1286519523299 -139.6759315160952 A 1.5 1.5 0 0 0 289.872 -137.895A 321 321 0 0 1 290.075 -137.468A 1.5 1.5 0 0 0 291.617 -136.542C 292.2987964279523 -136.6273563159842 293.00362176643995 -136.7085402468683 293.73119406829005 -136.78445146641917 C 295.68917575780563 -136.98873264838318 297.81162884056494 -137.15483051186732 300.0973909098728 -137.26464969671397 A 330 330 0 0 1 301.448 -134.274C 299.853288879774 -132.63189267062518 298.3248079756021 -131.14995417178312 296.8764808688775 -129.81662312147728 C 296.3382913247413 -129.3211677932633 295.81119345868603 -128.84625998325382 295.29590576898494 -128.39131031592393 A 1.5 1.5 0 0 0 294.971 -126.622A 321 321 0 0 1 295.157 -126.188A 1.5 1.5 0 0 0 296.662 -125.202C 297.3469533711229 -125.26136758009501 298.054383764715 -125.31532892394532 298.7843410264423 -125.36314485983225 C 300.7487407377483 -125.49181836916436 302.876018171231 -125.57599859109058 305.164314431869 -125.59764840394878 A 330 330 0 0 1 306.398 -122.557C 304.74185837830083 -120.97773992577768 303.1574025465566 -119.5558062754197 301.65876794502725 -118.27928074536483 C 301.10188453354067 -117.80493400121651 300.5568764128033 -117.35069206486712 300.0244388342322 -116.91593830940728 A 1.5 1.5 0 0 0 299.632 -115.16A 321 321 0 0 1 299.801 -114.719A 1.5 1.5 0 0 0 301.267 -113.677C 301.95334232407373 -113.70927818979936 302.66232674433485 -113.73593677631597 303.39358446936444 -113.75558638846387 C 305.3614836963097 -113.80846105509502 307.4904249871401 -113.81059856901476 309.77785572026596 -113.74404684478505 A 330 330 0 0 1 310.894 -110.658C 309.1776732856494 -109.14385070667839 307.53959655034583 -107.78403446981926 305.992880973532 -106.56621099237084 C 305.4181310556707 -106.1136775686423 304.8560223981228 -105.68077637261979 304.30722597251463 -105.26686444213121 A 1.5 1.5 0 0 0 303.847 -103.528A 321 321 0 0 1 303.999 -103.08A 1.5 1.5 0 0 0 305.424 -101.982C 306.11111958059917 -101.98825106960376 306.8206046902783 -101.98756729215863 307.55207644993885 -101.97902138716373 C 309.52055148714624 -101.95601865526898 311.6479936699578 -101.87611028548055 313.93116044264235 -101.72145589997491 A 330 330 0 0 1 314.927 -98.5945C 313.15414331725674 -97.14780660748092 311.46487936691483 -95.8521280613732 309.8723807681807 -94.6948159553219 C 309.2806182491662 -94.26476818034489 308.70224417892484 -93.85385088540525 308.13790425243076 -93.46139572831632 A 1.5 1.5 0 0 0 307.611 -91.7414A 321 321 0 0 1 307.746 -91.2884A 1.5 1.5 0 0 0 309.127 -90.1359C 309.81410793632057 -90.11570013458424 310.52303965429326 -90.08767500906464 311.2536387019222 -90.05094628356711 C 313.219764988534 -89.95210032827598 315.3425473251832 -89.79026479454267 317.61805803945765 -89.54773751758485 A 330 330 0 0 1 318.493 -86.3847C 316.6653606366574 -85.00743013563691 314.92741920857844 -83.77781426824771 313.2915035610655 -82.6827329507167 C 312.68360762171926 -82.2758097459232 312.0898274284046 -81.8874868513686 311.5107824401352 -81.51707153780677 A 1.5 1.5 0 0 0 310.918 -79.8187A 321 321 0 0 1 311.035 -79.3608A 1.5 1.5 0 0 0 312.371 -78.156C 313.0568058661504 -78.1092644185557 313.76413093346537 -78.05393958185495 314.49277181898753 -77.98908260367551 C 316.45362828368167 -77.81454028029799 318.56859695915233 -77.5710180214663 320.83307089164447 -77.24097817552307 A 330 330 0 0 1 321.585 -74.0466C 319.70610863274845 -72.74075823302053 317.9220717843004 -71.57903188307921 316.2451695658043 -70.54780831498834 C 315.62204335634976 -70.16461424566587 315.01373921843935 -69.79946268232659 314.4208494547967 -69.45163753785182 A 1.5 1.5 0 0 0 313.763 -67.7773A 321 321 0 0 1 313.862 -67.3153A 1.5 1.5 0 0 0 315.151 -66.0599C 315.8343956979006 -65.9867818677826 316.53906324260555 -65.90423951594018 317.2646634251845 -65.81135064300878 C 319.2173368260069 -65.56137126885257 321.3213496340294 -65.23652408563255 323.57142245869943 -64.819462010483 A 330 330 0 0 1 324.2 -61.5985C 322.2718696701015 -60.36601547846749 320.44438794255973 -59.27390462133375 318.7289905245725 -58.30807089022579 C 318.0915598228261 -57.94917526731549 317.46963549700354 -57.607737540404486 316.86378181355514 -57.283019328391276 A 1.5 1.5 0 0 0 316.142 -55.6353A 321 321 0 0 1 316.223 -55.1697A 1.5 1.5 0 0 0 317.463 -53.8656C 318.1427507698933 -53.76626283916298 318.8437138683137 -53.65662560524597 319.56519532468155 -53.53584284244294 C 321.50678457724564 -53.210797811546094 323.5967155886686 -52.80510832898446 325.82904437518437 -52.301643653222875 A 330 330 0 0 1 326.333 -49.0588C 324.3588318008088 -47.90158701153956 322.4906202814502 -46.88071419492402 320.73927622773283 -45.98170523874416 C 320.08848806367695 -45.647641273016255 319.4538675421216 -45.33042465612988 318.83595005491384 -45.0292958100126 A 1.5 1.5 0 0 0 318.051 -43.4106A 321 321 0 0 1 318.115 -42.9423A 1.5 1.5 0 0 0 319.303 -41.5914C 319.97844156193537 -41.46586334226641 320.674658794088 -41.329294114173734 321.39094962016327 -41.18079690829604 C 323.31857010778725 -40.781169139647325 325.3913143147667 -40.29524009009204 327.6025824950909 -39.706120810546494 A 330 330 0 0 1 327.981 -36.4463C 325.9638944278884 -35.3659912177484 324.05772871618996 -34.41787315109554 322.2730399963741 -33.58702462630591 C 321.60986124515586 -33.27828863616915 320.963487382769 -32.98576441763142 320.3344241310263 -32.70867232415352 A 1.5 1.5 0 0 0 319.488 -31.1215A 321 321 0 0 1 319.533 -30.651A 1.5 1.5 0 0 0 320.668 -29.2553C 321.3387407905533 -29.103858064971398 322.0291777873823 -28.94055974343143 322.7392137907962 -28.764568716588865 C 324.65000165017483 -28.290951936655592 326.7024795792802 -27.72550526427718 328.88940187509144 -27.05160663471158 A 330 330 0 0 1 329.142 -23.7796C 327.0846729118381 -22.777852215811492 325.1433849957718 -21.903897516926374 323.32800311961734 -21.142443814122903 C 322.65341906506353 -20.85949448824494 321.9962521786699 -20.592097270915076 321.3569777608648 -20.3394536054472 A 1.5 1.5 0 0 0 320.45 -18.786A 321 321 0 0 1 320.477 -18.3142A 1.5 1.5 0 0 0 321.557 -16.8758C 322.2216274609142 -16.698613222787092 322.90525844105207 -16.50882841990833 323.60798472221796 -16.305605041745512 C 325.4991010982601 -15.758702902374903 327.52826338564415 -15.114578690574932 329.68759068927056 -14.356901921325624 A 330 330 0 0 1 329.814 -11.0776C 327.71950211349036 -10.15587218782492 325.74597616204267 -9.357379290091476 323.9025982400928 -8.666451700071395 C 323.2176111108747 -8.40970941590561 322.55062755248116 -8.1678364714891 321.9020917378027 -7.940016586403531 A 1.5 1.5 0 0 0 320.936 -6.42272A 321 321 0 0 1 320.945 -5.95015A 1.5 1.5 0 0 0 321.969 -4.47122" stroke="#191919" stroke-width="0.35 px" style="stroke-width:0.35;stroke-miterlimit:4;stroke-dasharray:none;fill:none;fill-rule: evenodd "/>
<title>b'InvoluteGear'</title>
</g>
</svg>