<?xml version="1.0"?>
<!DOCTYPE svg PUBLIC "-//W3C//DTD SVG 1.1//EN" "http://www.w3.org/Graphics/SVG/1.1/DTD/svg11.dtd">
<svg width="473.26867058714237mm" height="473.18191770719613mm" viewBox="0 0 473.26867058714237 473.18191770719613" xmlns="http://www.w3.org/2000/svg" version="1.1">
<g id="InvoluteGear" transform="translate(236.634335,236.590959) scale(1,-1)">
<path id="InvoluteGear_w0000"  d="M 223.95648117239696 -4.41526226602763 C 224.60602097213035 -4.231000223403542 225.2856789358093 -4.027322286934196 225.99456635135073 -3.802271948706713 C 227.80916481052003 -3.2261773941627454 229.81457806962095 -2.510352672419269 231.99444636624622 -1.6226198021721858 A 232 232 0 0 1 231.994 1.62262C 229.81457806962095 2.510352672419269 227.80916481052003 3.2261773941627454 225.99456635135073 3.802271948706713 C 225.2856789358093 4.027322286934196 224.60602097213035 4.231000223403542 223.9564840554953 4.415261121919941 A 1.5 1.5 0 0 0 222.922 5.88511A 223 223 0 0 1 222.908 6.40412A 1.5 1.5 0 0 0 223.86 7.9287C 224.4980367466784 8.148467138703538 225.16544249955453 8.389276628600559 225.86085596210455 8.653036251654402 C 227.64096322457044 9.328218181145278 229.6038981158648 10.15342965984399 231.7315531026879 11.159898584647838 A 232 232 0 0 1 231.553 14.4002C 229.32731870301092 15.166511146123227 227.28551745026016 15.770775174758285 225.4419386702682 16.246032774127478 C 224.7217301695176 16.43169035704805 224.03188409393346 16.597618176890872 223.37318296821184 16.745817744255014 A 1.5 1.5 0 0 0 222.26 18.1565A 223 223 0 0 1 222.217 18.6739A 1.5 1.5 0 0 0 223.083 20.2486C 223.70825936212128 20.503187873923046 224.36138601485848 20.780397586741525 225.04121357658724 21.082065465315406 C 226.78142351509973 21.854284264424287 228.6959186698377 22.786376359939343 230.76489872859253 23.908524726254573 A 232 232 0 0 1 230.408 27.1341C 228.14359980671654 27.77660942394856 226.0716114436134 28.267477629480354 224.2046512309614 28.64045493196561 C 223.47530889454762 28.786155923601886 222.77736974691692 28.913829709482805 222.11150486577827 29.02551786847942 A 1.5 1.5 0 0 0 220.922 30.3727A 223 223 0 0 1 220.851 30.887A 1.5 1.5 0 0 0 221.629 32.507C 222.2390873464185 32.7956411014402 222.8759513748385 33.108409160393244 223.53812842178462 33.44706913905474 C 225.2331560759553 34.313979604668965 227.093397235275 35.35012158394102 229.0974189415235 36.584541464060365 A 232 232 0 0 1 228.563 39.7855C 226.26701629612103 40.30235105187697 224.17113338322494 40.67833268369849 222.28646163471802 40.947896969490664 C 221.5502004513457 41.05319888071974 220.84628784992088 41.14223089154724 220.1752814231245 41.21706844890828 A 1.5 1.5 0 0 0 218.913 42.4967A 223 223 0 0 1 218.814 43.0062A 1.5 1.5 0 0 0 219.501 44.6667C 220.09498252669505 44.98849504481455 220.7136497956751 45.335871583586766 221.35616531791058 45.7104951631113 C 223.0008629444636 46.66946451663921 224.801200617104 47.806509650531716 226.73417782278977 49.14945215185048 A 232 232 0 0 1 226.025 52.3161C 223.70326729366903 52.70569576426339 221.5898549585019 52.96564897851604 219.69319536029744 53.13098158973886 C 218.95225133098205 53.195564622117246 218.24450303519842 53.245684470600644 217.57039288720873 53.28344414712405 A 1.5 1.5 0 0 0 216.24 54.4916A 223 223 0 0 1 216.112 54.9949A 1.5 1.5 0 0 0 216.708 56.6907C 217.28245647881892 57.04472040735813 217.88104811619667 57.42565045481837 218.5019508151978 57.835099915707524 C 220.09132352149695 58.88321579874057 221.82629014111728 60.117710918552724 223.68235245799713 61.565097568832414 A 232 232 0 0 1 222.799 64.6879C 220.46013882081922 64.94897501087247 218.3356154271822 65.09211033818836 216.43272807214316 65.15270916513545 C 215.68935141954938 65.17637718211645 214.97991683771994 65.18743265592316 214.3047502189007 65.18799977671237 A 1.5 1.5 0 0 0 212.91 66.321A 223 223 0 0 1 212.755 66.8165A 1.5 1.5 0 0 0 213.256 68.5425C 213.81005075195927 68.92770282889241 214.38674885460566 69.34102951300643 214.9841530692825 69.78406137070472 C 216.51337398265613 70.91814068975417 218.17770051265512 72.2463366743808 219.95121114047512 73.79377180793523 A 232 232 0 0 1 218.897 76.8632C 216.54748015215296 76.99500635502763 214.41829780776655 77.02088909812205 212.51496170224868 76.97657010414768 C 211.7714100368382 76.95925122674161 211.06244369847118 76.93120875076103 210.38827106765328 76.89458159348885 A 1.5 1.5 0 0 0 208.933 77.949A 223 223 0 0 1 208.751 78.4352A 1.5 1.5 0 0 0 209.156 80.1862C 209.68831092818223 80.60135408235683 210.2413640829137 81.04582214356961 210.81345551630102 81.52109092488618 C 212.27788044309548 82.73768951833343 213.86651237850236 84.15555268022257 215.55208522377518 85.79833678741012 A 232 232 0 0 1 214.331 88.805C 211.97717390345105 88.80720639544913 209.84979886511613 88.71575794928201 207.95179437831564 88.56665572971426 C 207.2103258420582 88.50840255478258 206.50398085462197 88.4413472930926 205.83284965192738 88.36763709323186 A 1.5 1.5 0 0 0 204.322 89.3403A 223 223 0 0 1 204.113 89.8158A 1.5 1.5 0 0 0 204.421 91.5864C 204.929754595865 92.03022167256823 205.45748319842755 92.50448127598604 206.00252442764486 93.01054360525251 C 207.39770595748826 94.30596670315475 208.90581867532816 95.80919103848414 210.49833470872179 97.54233503796405 A 232 232 0 0 1 209.113 100.477C 206.7630999445802 100.34970186884148 204.64399298036852 100.14119995933822 202.75708428953084 99.8877673327174 C 202.01995069800154 99.78875677323781 201.3183722080077 99.68289237046433 200.65232063684118 99.57232298346936 A 1.5 1.5 0 0 0 199.09 100.46A 223 223 0 0 1 198.855 100.924A 1.5 1.5 0 0 0 199.065 102.708C 199.54883333419104 103.1795965042835 200.04963469016334 103.68220733907808 200.56597044291118 104.21752632163303 C 201.88767145535226 105.58783976661816 203.31068486686766 107.1718600324873 204.80530766952938 108.99010042289576 A 232 232 0 0 1 203.261 111.844C 200.92109324678447 111.58743859581492 198.81669001489846 111.26251643642193 196.94660759970128 110.90552306930563 C 196.21604760339048 110.7660558170931 195.52136628165465 110.62170377994792 194.86241711874698 110.47461100141302 A 1.5 1.5 0 0 0 193.253 111.275A 223 223 0 0 1 192.994 111.725A 1.5 1.5 0 0 0 193.105 113.518C 193.56188882417928 114.01561829258112 194.03424201630298 114.54505394616632 194.5203041978704 115.10800383585386 C 195.76451073037427 116.54904603102705 197.0981031906041 118.20905160994991 198.4902936422054 120.1068664549807 A 232 232 0 0 1 196.791 122.872C 194.46889579239797 122.4862879392762 192.3855872962882 122.04593230791244 190.5380105355632 121.58646237742342 C 189.81624282116866 121.40696198993913 189.13056839203307 121.22456071081469 188.48072284433457 121.04139125667382 A 1.5 1.5 0 0 0 186.83 121.752A 223 223 0 0 1 186.546 122.187A 1.5 1.5 0 0 0 186.558 123.984C 186.98710321953598 124.5053783954336 187.4295737266912 125.06003098913024 187.88388618220804 125.64890212563765 C 189.04681962042835 127.15629667321434 190.28694105290157 128.88724618280654 191.57247111679757 130.8588718811501 A 232 232 0 0 1 189.723 133.526C 187.4261026930277 133.01315045197768 185.37021587212556 132.45869869422262 183.55075579577138 131.89814759543853 C 182.83997234811963 131.6791592094597 182.1653871822898 131.45926263504577 181.5266188093706 131.240572784911 A 1.5 1.5 0 0 0 179.839 131.859A 223 223 0 0 1 179.532 132.278A 1.5 1.5 0 0 0 179.445 134.073C 179.84444392805133 134.6170197561717 180.25568798185034 135.1952048282823 180.67687097932097 135.8082088293222 C 181.75499953262755 137.37737782160443 182.89788372931235 139.17401442509578 184.07284929295002 141.21346321430693 A 232 232 0 0 1 182.08 143.774C 179.8141026798436 143.13605639845088 177.791881194854 142.46919236606985 176.00606344332303 141.8092624742543 C 175.30842288838355 141.5514511503117 174.64697567883675 141.29472709927754 174.0212243992512 141.04118100703613 A 1.5 1.5 0 0 0 172.302 141.566A 223 223 0 0 1 171.972 141.967A 1.5 1.5 0 0 0 171.787 143.754C 172.15560297123835 144.31983365231835 172.53437163700607 144.91979527378192 172.92114605751 145.55507046635057 C 173.91119548492088 147.181248388682 174.95337154407468 149.03811575975715 176.01420427565444 151.13919390089285 A 232 232 0 0 1 173.883 153.586C 171.6560131467047 152.82426284604207 169.67359841781405 152.04701178318388 167.92684646092385 151.2897072837286 C 167.2444675101329 150.99385598633967 166.598167050305 150.70108412119063 165.9873332501229 150.41345179799146 A 1.5 1.5 0 0 0 164.242 150.843A 223 223 0 0 1 163.89 151.225A 1.5 1.5 0 0 0 163.607 152.999C 163.94393110637674 153.58435295696987 164.289074076124 154.2042690640607 164.64026529845813 154.85988613827766 C 165.53922885240192 156.53813434175518 166.47753171958587 158.44959323523713 167.4210099049679 160.6059198230381 A 232 232 0 0 1 165.158 162.932C 162.97660994339444 162.04834703018875 161.04002249897903 161.16306942278564 159.33764116501288 160.31069022456546 C 158.67259618081647 159.97769744439674 158.0434052639622 159.6497669036648 157.44934402535867 159.32892187942 A 1.5 1.5 0 0 0 155.683 159.661A 223 223 0 0 1 155.311 160.023A 1.5 1.5 0 0 0 154.93 161.78C 155.23436691102998 162.38244162949152 155.54483599690133 163.02042955736698 155.8593774648659 163.6943974257257 C 156.66452502257513 165.41961912571378 157.4961051028205 167.37986450376624 158.31936342976473 169.58489084525652 A 232 232 0 0 1 155.932 171.783C 153.80225213217838 170.78029571038823 151.9173733246578 169.78968011743774 150.2645326897754 168.84481486806283 C 149.61884139193273 168.47569189324332 149.00867085018726 168.11359859120276 148.43318631761912 167.76051526170582 A 1.5 1.5 0 0 0 146.651 167.995A 223 223 0 0 1 146.26 168.336A 1.5 1.5 0 0 0 145.783 170.069C 146.05336104540527 170.68738016374846 146.32821336299105 171.34150236404008 146.60514982448578 172.03177420827546 C 147.31403617929018 173.7987299631734 148.03636799122447 175.80180862500987 148.7369062512497 178.0488381276622 A 232 232 0 0 1 146.232 180.112C 144.16080193619902 178.99359024548846 142.33335608056208 177.90064513398823 140.73507576744825 176.86616335816638 C 140.11069909920923 176.4620312030388 139.52140200045352 176.0668748051471 138.96624190153196 175.68262547286506 A 1.5 1.5 0 0 0 137.174 175.819A 223 223 0 0 1 136.764 176.138A 1.5 1.5 0 0 0 136.193 177.841C 136.42879592256782 178.47394673436747 136.66719675441297 179.14221665945178 136.90568716250624 179.84669614665972 C 137.51615944984502 181.65001976991383 138.127049295496 183.6898484314728 138.70273997693087 185.97205694053986 A 232 232 0 0 1 136.088 187.894C 134.08154012281952 186.66328712992964 132.3170771120678 185.47133173826185 130.77821104550338 184.3503751231463 C 130.17704521828827 183.91246112378332 129.61041123844308 183.48544170703343 129.0772615761422 183.07119332455946 A 1.5 1.5 0 0 0 127.28 183.108A 223 223 0 0 1 126.854 183.404A 1.5 1.5 0 0 0 126.189 185.074C 126.3899010304686 185.71849379459186 126.59112636108223 186.39888193067011 126.79044642824307 187.1154295798019 C 127.30065066384373 188.94964443683747 127.79824329082804 191.02002820551607 128.24733803999405 193.33048472876436 A 232 232 0 0 1 125.531 195.105C 123.5950770788957 193.76609374635095 121.89895552920092 192.47874800386452 120.42417719485267 191.2747208578533 C 119.84804792952043 190.80435494467824 119.30579791735917 190.34676935300413 118.79627784968066 189.9037799790608 A 1.5 1.5 0 0 0 117 189.842A 223 223 0 0 1 116.558 190.114A 1.5 1.5 0 0 0 115.802 191.744C 115.96716416295031 192.39901989310349 116.13060287761694 193.08945992376854 116.29014727535237 193.81589960316424 C 116.69853398572006 195.67543524374497 117.08131822158374 197.7700864320842 117.40245315248794 200.10177418898957 A 232 232 0 0 1 114.592 201.724C 112.73325984803726 200.2804391045035 111.11063082480003 198.9016126379077 109.70441907599842 197.61817155187097 C 109.15507605819242 197.11678221070272 108.6388568091801 196.63002011650704 108.15451373182323 196.1596350952635 A 1.5 1.5 0 0 0 106.365 195.999A 223 223 0 0 1 105.908 196.246A 1.5 1.5 0 0 0 105.063 197.832C 105.19223882931925 198.49523649170766 105.31739457003414 199.19363157327876 105.4366787672519 199.92775710950772 C 105.74200769536957 201.8069661850098 106.00882103696912 203.9195234061949 106.20102087338095 206.2653611376743 A 232 232 0 0 1 103.305 207.731C 101.52907541218292 206.18653935163928 99.98486678641645 204.72041961159573 98.65149224202513 203.3614623539294 C 98.13060380843541 202.83057228771816 97.64198306346489 202.3161119714827 97.18428791043688 201.81975984678846 A 1.5 1.5 0 0 0 95.4059 201.561A 223 223 0 0 1 94.9363 201.782A 1.5 1.5 0 0 0 94.0057 203.32C 94.09784812367823 203.98862958095648 94.18434079657025 204.69285871052486 94.26300253108388 205.43244058846173 C 94.46434640303193 207.32561600268616 94.61437854701822 209.449663489869 94.67705958435144 211.80252696383172 A 232 232 0 0 1 91.7052 213.106C 90.0165505112206 211.46645785542137 88.5554519937684 209.91749739939416 87.29896406845518 208.48715107862537 C 86.8081121401347 207.9283725830537 86.34857382434913 207.3877764438503 85.91891660078683 206.86696462079462 A 1.5 1.5 0 0 0 84.1575 206.51A 223 223 0 0 1 83.6764 206.706A 1.5 1.5 0 0 0 82.6625 208.19C 82.717685345965 208.86251590658728 82.76525227562931 209.57044036343203 82.80305265433641 210.31323249722112 C 82.89979999539324 212.21462473865716 82.93259529907601 214.34371182942945 82.86556717708037 216.6964554768358 A 232 232 0 0 1 79.8264 217.834C 78.23064830489659 216.10415967688684 76.85709720393479 214.4770626468719 75.68131181023229 212.97967117776614 C 75.2219870883547 212.39470124475983 74.79292680451566 211.82961105529571 74.39261236528563 211.28592122226794 A 1.5 1.5 0 0 0 72.6535 210.833A 223 223 0 0 1 72.1624 211.001A 1.5 1.5 0 0 0 71.0683 212.427C 71.08631167650782 213.1020936360173 71.09480840374238 213.8115634768301 71.09163262813523 214.55531003117412 C 71.0834896198058 216.45914463407695 70.99894848492563 218.58680536091993 70.80241476580466 220.93228397663947 A 232 232 0 0 1 67.7051 221.901C 66.20716219084856 220.0855602680296 64.92532993592677 218.3852681042298 63.83381789543158 216.82537901546456 C 63.40741533408075 216.21599417948426 63.010136124168504 215.62812610009217 62.640380211065704 215.06320942524593 A 1.5 1.5 0 0 0 60.9288 214.515A 223 223 0 0 1 60.4292 214.656A 1.5 1.5 0 0 0 59.2582 216.02C 59.239051214856744 216.69448731102293 59.208451935380246 217.4033478992151 59.164309650184954 218.145790140273 C 59.051301022517954 220.0462852215262 58.84968019772288 222.1660579487415 58.524237747922115 224.49714839130627 A 232 232 0 0 1 55.3783 225.294C 53.98260710123339 223.3985682461096 52.79638657478031 221.63024467994353 51.79246277368507 220.0125953034131 C 51.40027734342544 219.38064624617718 51.03598573134323 218.771785612893 50.69791128092312 218.18735772960292 A 1.5 1.5 0 0 0 49.0192 217.546A 223 223 0 0 1 48.5125 217.659A 1.5 1.5 0 0 0 47.2682 218.956C 47.211883701654294 219.62878695008305 47.14228134447277 220.33488549934611 47.05730660835869 221.0737686544333 C 46.83977556484211 222.96515247293803 46.521687365950456 225.07059952042292 46.06832454349376 227.38022234477393 A 232 232 0 0 1 42.8833 228.002C 41.59410860807827 226.0331221147848 40.50710232284566 224.20213748680408 39.59381564473871 222.53164057049827 C 39.23703839983215 221.87904650052354 38.906840727232854 221.2510424030794 38.601474460489996 220.64887819961876 A 1.5 1.5 0 0 0 36.9606 219.916A 223 223 0 0 1 36.4485 220.001A 1.5 1.5 0 0 0 35.1346 221.227C 35.04133524934554 221.89608118163437 34.93294119453017 222.5972732938813 34.807392072978026 223.33035339914048 C 34.48599924824153 225.2068818844033 34.05240969865884 227.29160907867345 33.4725033515375 229.57275003620268 A 232 232 0 0 1 30.258 230.018C 29.079290174138716 227.98122082054493 28.094799332488584 226.09313577088642 27.274923398994673 224.37486455903647 C 26.9546378602079 223.70360738306488 26.659536926570706 223.0583670492643 26.38780623082084 222.44029527852797 A 1.5 1.5 0 0 0 24.7898 221.618A 223 223 0 0 1 24.2738 221.675A 1.5 1.5 0 0 0 22.8944 222.827C 22.764367413575215 223.48948430761402 22.61751085030793 224.18364048544575 22.4517686318735 224.90869120069107 C 22.0274900853627 226.7646653973774 21.479715982300426 228.82234149046184 20.775027267031085 231.06807283105474 A 232 232 0 0 1 17.5409 231.336C 16.476158891678637 229.23694805164803 15.597173359940184 227.2974966325526 14.873198107322777 225.5366694583551 C 14.590376971310375 224.84878776236806 14.331268988471763 224.18827076589793 14.093999100907002 223.5561684915397 A 1.5 1.5 0 0 0 12.5438 222.647A 223 223 0 0 1 12.0254 222.676A 1.5 1.5 0 0 0 10.5846 223.75C 10.418264942157954 224.4041572150982 10.233391868994715 225.0891693290172 10.027959907348 225.80398869905645 C 9.502084159064047 227.6337720745306 8.841789074469702 229.65814797176347 8.014458107519886 231.86164948314826 A 232 232 0 0 1 4.77045 231.951C 3.822990056180388 229.79649020576483 3.0521792845242053 227.811562467449 2.426303401830871 226.0135269051595 C 2.1818055870875357 225.31110976325945 1.9594774574753817 224.63732207252903 1.7573889589460032 223.99310896838108 A 1.5 1.5 0 0 0 0.259605 223A 223 223 0 0 1 -0.259605 223A 1.5 1.5 0 0 0 -1.75739 223.993C -1.9594774574753542 224.63732207252903 -2.1818055870875073 225.31110976325945 -2.4263034018308427 226.0135269051595 C -3.052179284524176 227.811562467449 -3.8229900561803594 229.79649020576483 -4.770450697855604 231.95106992627308 A 232 232 0 0 1 -8.01446 231.862C -8.841789074469673 229.65814797176347 -9.502084159064019 227.6337720745306 -10.027959907347972 225.80398869905645 C -10.233391868994687 225.0891693290172 -10.418264942157926 224.4041572150982 -10.58455831552386 223.74978973518466 A 1.5 1.5 0 0 0 -12.0254 222.676A 223 223 0 0 1 -12.5438 222.647A 1.5 1.5 0 0 0 -14.094 223.556C -14.331268988471738 224.18827076589793 -14.59037697131035 224.84878776236806 -14.873198107322752 225.5366694583551 C -15.597173359940156 227.2974966325526 -16.47615889167861 229.23694805164803 -17.540871801250358 231.33606259348238 A 232 232 0 0 1 -20.775 231.068C -21.4797159823004 228.82234149046184 -22.027490085362672 226.7646653973774 -22.451768631873477 224.90869120069107 C -22.61751085030791 224.18364048544575 -22.76436741357519 223.48948430761402 -22.894360634268267 222.82694974446454 A 1.5 1.5 0 0 0 -24.2738 221.675A 223 223 0 0 1 -24.7898 221.618A 1.5 1.5 0 0 0 -26.3878 222.44C -26.65953692657068 223.0583670492643 -26.954637860207875 223.70360738306488 -27.27492339899465 224.37486455903647 C -28.09479933248856 226.09313577088642 -29.07929017413869 227.98122082054493 -30.258021853494096 230.0184952418326 A 232 232 0 0 1 -33.4725 229.573C -34.05240969865881 227.29160907867345 -34.4859992482415 225.2068818844033 -34.807392072978 223.33035339914048 C -34.93294119453015 222.5972732938813 -35.041335249345515 221.89608118163437 -35.134633532226935 221.22739163094195 A 1.5 1.5 0 0 0 -36.4485 220.001A 223 223 0 0 1 -36.9606 219.916A 1.5 1.5 0 0 0 -38.6015 220.649C -38.906840727232826 221.2510424030794 -39.23703839983213 221.87904650052354 -39.59381564473868 222.53164057049827 C -40.50710232284564 224.20213748680408 -41.59410860807825 226.0331221147848 -42.883279287848055 228.00236928006672 A 232 232 0 0 1 -46.0683 227.38C -46.521687365950434 225.07059952042292 -46.839775564842085 222.96515247293803 -47.05730660835866 221.0737686544333 C -47.14228134447275 220.33488549934611 -47.211883701654266 219.62878695008305 -47.26820370290532 218.9559732000356 A 1.5 1.5 0 0 0 -48.5125 217.659A 223 223 0 0 1 -49.0192 217.546A 1.5 1.5 0 0 0 -50.6979 218.187C -51.0359857313432 218.771785612893 -51.40027734342541 219.38064624617718 -51.79246277368504 220.0125953034131 C -52.79638657478028 221.63024467994353 -53.98260710123336 223.3985682461096 -55.37830161243381 225.29380761646735 A 232 232 0 0 1 -58.5242 224.497C -58.849680197722854 222.1660579487415 -59.051301022517926 220.0462852215262 -59.164309650184926 218.145790140273 C -59.20845193538022 217.4033478992151 -59.23905121485673 216.69448731102293 -59.258221892484656 216.0195926748662 A 1.5 1.5 0 0 0 -60.4292 214.656A 223 223 0 0 1 -60.9288 214.515A 1.5 1.5 0 0 0 -62.6404 215.063C -63.010136124168476 215.62812610009217 -63.40741533408074 216.21599417948426 -63.83381789543155 216.82537901546456 C -64.92532993592675 218.3852681042298 -66.20716219084854 220.0855602680296 -67.70514185512087 221.90103606378554 A 232 232 0 0 1 -70.8024 220.932C -70.9989484849256 218.58680536091993 -71.08348961980579 216.45914463407695 -71.0916326281352 214.55531003117412 C -71.09480840374236 213.8115634768301 -71.08631167650779 213.1020936360173 -71.06827480979472 212.4271677465798 A 1.5 1.5 0 0 0 -72.1624 211.001A 223 223 0 0 1 -72.6535 210.833A 1.5 1.5 0 0 0 -74.3926 211.286C -74.79292680451563 211.82961105529571 -75.22198708835467 212.39470124475983 -75.68131181023226 212.97967117776614 C -76.85709720393477 214.4770626468719 -78.23064830489656 216.10415967688684 -79.82636380723396 217.8343583577178 A 232 232 0 0 1 -82.8656 216.696C -82.93259529907598 214.34371182942945 -82.89979999539322 212.21462473865716 -82.80305265433638 210.31323249722112 C -82.76525227562928 209.57044036343203 -82.71768534596497 208.86251590658728 -82.6624957122823 208.1896084916127 A 1.5 1.5 0 0 0 -83.6764 206.706A 223 223 0 0 1 -84.1575 206.51A 1.5 1.5 0 0 0 -85.9189 206.867C -86.3485738243491 207.3877764438503 -86.80811214013467 207.9283725830537 -87.29896406845515 208.48715107862537 C -88.55545199376839 209.91749739939416 -90.01655051122057 211.46645785542137 -91.70515571608823 213.10612486479948 A 232 232 0 0 1 -94.6771 211.803C -94.61437854701819 209.449663489869 -94.46434640303191 207.32561600268616 -94.26300253108386 205.43244058846173 C -94.18434079657023 204.69285871052486 -94.0978481236782 203.98862958095648 -94.00567333212952 203.3197842381479 A 1.5 1.5 0 0 0 -94.9363 201.782A 223 223 0 0 1 -95.4059 201.561A 1.5 1.5 0 0 0 -97.1843 201.82C -97.64198306346483 202.31611197148277 -98.13060380843535 202.8305722877182 -98.65149224202507 203.36146235392943 C -99.98486678641638 204.7204196115958 -101.52907541218286 206.18653935163934 -103.30544208107233 207.73069507474747 A 232 232 0 0 1 -106.201 206.265C -106.00882103696907 203.91952340619497 -105.7420076953695 201.80696618500986 -105.43667876725185 199.92775710950775 C -105.31739457003408 199.19363157327882 -105.1922388293192 198.49523649170771 -105.06335881171698 197.83248448238848 A 1.5 1.5 0 0 0 -105.908 196.246A 223 223 0 0 1 -106.365 195.999A 1.5 1.5 0 0 0 -108.155 196.16C -108.63885680918001 196.6300201165071 -109.15507605819234 197.11678221070278 -109.70441907599833 197.61817155187103 C -111.11063082479994 198.90161263790776 -112.73325984803718 200.28043910450356 -114.59199321375826 201.72439399116183 A 232 232 0 0 1 -117.402 200.102C -117.08131822158366 197.77008643208427 -116.69853398571998 195.67543524374503 -116.29014727535228 193.8158996031643 C -116.13060287761685 193.0894599237686 -115.96716416295023 192.39901989310354 -115.80197032367207 191.7443739733436 A 1.5 1.5 0 0 0 -116.558 190.114A 223 223 0 0 1 -117 189.842A 1.5 1.5 0 0 0 -118.796 189.904C -119.30579791735913 190.3467693530042 -119.84804792952038 190.8043549446783 -120.42417719485263 191.27472085785337 C -121.89895552920088 192.47874800386458 -123.59507707889564 193.76609374635098 -125.53053222930696 195.1054625530265 A 232 232 0 0 1 -128.247 193.33C -127.79824329082798 191.0200282055161 -127.30065066384368 188.94964443683753 -126.79044642824303 187.11542957980197 C -126.59112636108217 186.39888193067017 -126.38990103046855 185.71849379459192 -126.18889505777496 185.07394210253352 A 1.5 1.5 0 0 0 -126.854 183.404A 223 223 0 0 1 -127.28 183.108A 1.5 1.5 0 0 0 -129.077 183.071C -129.610411238443 183.4854417070335 -130.17704521828819 183.91246112378337 -130.7782110455033 184.35037512314636 C -132.31707711206775 185.47133173826188 -134.08154012281946 186.66328712992967 -136.08783914424106 187.89400223757718 A 232 232 0 0 1 -138.703 185.972C -138.12704929549594 183.68984843147283 -137.51615944984496 181.65001976991385 -136.90568716250615 179.84669614665978 C -136.66719675441288 179.14221665945183 -136.42879592256773 178.47394673436753 -136.19258826499143 177.84144675231528 A 1.5 1.5 0 0 0 -136.764 176.138A 223 223 0 0 1 -137.174 175.819A 1.5 1.5 0 0 0 -138.966 175.683C -139.52140200045346 176.06687480514714 -140.11069909920917 176.46203120303883 -140.7350757674482 176.86616335816643 C -142.33335608056206 177.90064513398826 -144.16080193619896 178.99359024548852 -146.23185176444315 180.1119140127755 A 232 232 0 0 1 -148.737 178.049C -148.0363679912244 175.80180862500993 -147.31403617929016 173.79872996317343 -146.60514982448572 172.03177420827552 C -146.328213362991 171.34150236404017 -146.0533610454052 170.68738016374854 -145.78266905783886 170.0688527733597 A 1.5 1.5 0 0 0 -146.26 168.336A 223 223 0 0 1 -146.651 167.995A 1.5 1.5 0 0 0 -148.433 167.761C -149.0086708501872 168.1135985912028 -149.6188413919327 168.47569189324335 -150.26453268977534 168.84481486806285 C -151.91737332465777 169.78968011743777 -153.80225213217832 170.78029571038826 -155.93176305698512 171.782831824789 A 232 232 0 0 1 -158.319 169.585C -157.49610510282045 167.37986450376627 -156.6645250225751 165.4196191257138 -155.85937746486584 163.69439742572573 C -155.5448359969013 163.020429557367 -155.23436691102992 162.38244162949155 -154.930012676143 161.77976527812189 A 1.5 1.5 0 0 0 -155.311 160.023A 223 223 0 0 1 -155.683 159.661A 1.5 1.5 0 0 0 -157.449 159.329C -158.04340526396217 159.64976690366484 -158.6725961808164 159.97769744439677 -159.33764116501283 160.3106902245655 C -161.04002249897897 161.16306942278564 -162.9766099433944 162.04834703018878 -165.15811471007498 162.93205082247388 A 232 232 0 0 1 -167.421 160.606C -166.47753171958584 158.44959323523716 -165.53922885240186 156.53813434175518 -164.64026529845808 154.8598861382777 C -164.28907407612394 154.20426906406072 -163.9439311063767 153.5843529569699 -163.60683893797753 152.99935795289053 A 1.5 1.5 0 0 0 -163.89 151.225A 223 223 0 0 1 -164.242 150.843A 1.5 1.5 0 0 0 -165.987 150.413C -166.59816705030494 150.70108412119066 -167.24446751013286 150.99385598633972 -167.92684646092383 151.28970728372866 C -169.67359841781402 152.0470117831839 -171.65601314670468 152.82426284604213 -173.8828865969814 153.58645053683873 A 232 232 0 0 1 -176.014 151.139C -174.95337154407466 149.0381157597572 -173.91119548492085 147.18124838868204 -172.92114605750996 145.55507046635063 C -172.53437163700605 144.91979527378197 -172.15560297123835 144.31983365231838 -171.78679660716327 143.75429660612997 A 1.5 1.5 0 0 0 -171.972 141.967A 223 223 0 0 1 -172.302 141.566A 1.5 1.5 0 0 0 -174.021 141.041C -174.6469756788367 141.29472709927757 -175.3084228883835 141.55145115031172 -176.00606344332297 141.80926247425433 C -177.79188119485394 142.46919236606985 -179.81410267984353 143.1360563984509 -182.07958187223767 143.7744132487926 A 232 232 0 0 1 -184.073 141.213C -182.8978837293123 139.1740144250958 -181.7549995326275 137.37737782160443 -180.6768709793209 135.80820882932224 C -180.2556879818503 135.19520482828233 -179.84444392805128 134.61701975617171 -179.44504342110653 134.07265818529612 A 1.5 1.5 0 0 0 -179.532 132.278A 223 223 0 0 1 -179.839 131.859A 1.5 1.5 0 0 0 -181.527 131.241C -182.16538718228978 131.45926263504583 -182.8399723481196 131.67915920945975 -183.55075579577132 131.8981475954386 C -185.37021587212553 132.45869869422268 -187.4261026930277 133.01315045197774 -189.72330744169068 133.52573779309068 A 232 232 0 0 1 -191.572 130.859C -190.28694105290157 128.8872461828066 -189.04681962042832 127.1562966732144 -187.88388618220804 125.6489021256377 C -187.42957372669116 125.06003098913031 -186.98710321953595 124.50537839543365 -186.55832153593417 123.98384550807037 A 1.5 1.5 0 0 0 -186.546 122.187A 223 223 0 0 1 -186.83 121.752A 1.5 1.5 0 0 0 -188.481 121.041C -189.13056839203307 121.22456071081471 -189.81624282116866 121.40696198993916 -190.5380105355632 121.58646237742344 C -192.3855872962882 122.04593230791247 -194.46889579239797 122.48628793927622 -196.79084956200953 122.87154906025252 A 232 232 0 0 1 -198.49 120.107C -197.0981031906041 118.20905160994994 -195.76451073037427 116.54904603102707 -194.5203041978704 115.10800383585389 C -194.03424201630298 114.54505394616635 -193.56188882417928 114.01561829258115 -193.10502815980098 113.51849796696807 A 1.5 1.5 0 0 0 -192.994 111.725A 223 223 0 0 1 -193.253 111.275A 1.5 1.5 0 0 0 -194.862 110.475C -195.52136628165462 110.62170377994794 -196.21604760339048 110.76605581709313 -196.94660759970125 110.90552306930564 C -198.81669001489843 111.26251643642196 -200.92109324678447 111.58743859581494 -203.260744340061 111.8442034712924 A 232 232 0 0 1 -204.805 108.99C -203.31068486686766 107.17186003248733 -201.88767145535223 105.58783976661819 -200.56597044291115 104.21752632163304 C -200.04963469016334 103.6822073390781 -199.54883333419102 103.17959650428354 -199.06528115985842 102.70839847851084 A 1.5 1.5 0 0 0 -198.855 100.924A 223 223 0 0 1 -199.09 100.46A 1.5 1.5 0 0 0 -200.652 99.5723C -201.31837220800767 99.68289237046436 -202.0199506980015 99.78875677323785 -202.7570842895308 99.88776733271743 C -204.6439929803685 100.14119995933827 -206.76309994458018 100.3497018688415 -209.11334291804792 100.4771907123323 A 232 232 0 0 1 -210.498 97.5423C -208.90581867532813 95.80919103848417 -207.39770595748823 94.3059667031548 -206.00252442764483 93.01054360525254 C -205.45748319842752 92.50448127598608 -204.92975459586498 92.03022167256826 -204.42097944363886 91.58637695955358 A 1.5 1.5 0 0 0 -204.113 89.8158A 223 223 0 0 1 -204.322 89.3403A 1.5 1.5 0 0 0 -205.833 88.3676C -206.50398085462197 88.44134729309265 -207.2103258420582 88.50840255478262 -207.95179437831564 88.56665572971428 C -209.84979886511613 88.71575794928205 -211.97717390345105 88.80720639544917 -214.3308711464441 88.80503202752573 A 232 232 0 0 1 -215.552 85.7983C -213.86651237850236 84.15555268022261 -212.27788044309548 82.73768951833347 -210.81345551630102 81.52109092488621 C -210.2413640829137 81.04582214356965 -209.68831092818223 80.60135408235688 -209.15585793147815 80.1862106239059 A 1.5 1.5 0 0 0 -208.751 78.4352A 223 223 0 0 1 -208.933 77.949A 1.5 1.5 0 0 0 -210.388 76.8946C -211.06244369847118 76.93120875076107 -211.7714100368382 76.95925122674164 -212.51496170224868 76.97657010414771 C -214.41829780776655 77.02088909812208 -216.54748015215296 76.99500635502766 -218.8974835635025 76.86317537917392 A 232 232 0 0 1 -219.951 73.7938C -218.17770051265512 72.24633667438083 -216.51337398265613 70.9181406897542 -214.9841530692825 69.78406137070475 C -214.38674885460566 69.34102951300646 -213.81005075195927 68.92770282889245 -213.2555369530282 68.54252140204414 A 1.5 1.5 0 0 0 -212.755 66.8165A 223 223 0 0 1 -212.91 66.321A 1.5 1.5 0 0 0 -214.305 65.188C -214.97991683771994 65.1874326559232 -215.68935141954938 65.1763771821165 -216.43272807214316 65.15270916513549 C -218.3356154271822 65.09211033818839 -220.46013882081922 64.94897501087252 -222.7993115174017 64.6878877934293 A 232 232 0 0 1 -223.682 61.5651C -221.82629014111728 60.11771091855277 -220.09132352149695 58.88321579874061 -218.5019508151978 57.83509991570756 C -217.88104811619667 57.4256504548184 -217.28245647881892 57.04472040735816 -216.7075659178433 56.69067079544625 A 1.5 1.5 0 0 0 -216.112 54.9949A 223 223 0 0 1 -216.24 54.4916A 1.5 1.5 0 0 0 -217.57 53.2834C -218.24450303519842 53.24568447060067 -218.95225133098205 53.19556462211728 -219.69319536029744 53.13098158973889 C -221.5898549585019 52.96564897851607 -223.70326729366903 52.70569576426342 -226.0245052848856 52.316145218529044 A 232 232 0 0 1 -226.734 49.1495C -224.801200617104 47.806509650531744 -223.0008629444636 46.66946451663925 -221.35616531791058 45.710495163111325 C -220.7136497956751 45.3358715835868 -220.09498252669505 44.98849504481458 -219.50146112741382 44.666652484874014 A 1.5 1.5 0 0 0 -218.814 43.0062A 223 223 0 0 1 -218.913 42.4967A 1.5 1.5 0 0 0 -220.175 41.2171C -220.84628784992088 41.14223089154727 -221.5502004513457 41.053198880719776 -222.28646163471802 40.9478969694907 C -224.17113338322494 40.67833268369852 -226.26701629612103 40.302351051877 -228.56327005848365 39.785520230055646 A 232 232 0 0 1 -229.097 36.5845C -227.093397235275 35.350121583941046 -225.2331560759553 34.313979604668994 -223.53812842178462 33.447069139054776 C -222.8759513748385 33.10840916039328 -222.2390873464185 32.795641101440225 -221.62873761381422 32.506983018747675 A 1.5 1.5 0 0 0 -220.851 30.887A 223 223 0 0 1 -220.922 30.3727A 1.5 1.5 0 0 0 -222.112 29.0255C -222.77736974691692 28.913829709482837 -223.47530889454762 28.786155923601914 -224.2046512309614 28.640454931965643 C -226.0716114436134 28.267477629480386 -228.14359980671654 27.776609423948592 -230.4078956930191 27.13406792425964 A 232 232 0 0 1 -230.765 23.9085C -228.6959186698377 22.786376359939375 -226.78142351509973 21.85428426442432 -225.04121357658724 21.082065465315438 C -224.36138601485848 20.780397586741554 -223.70825936212128 20.50318787392308 -223.08293490827174 20.24859091358846 A 1.5 1.5 0 0 0 -222.217 18.6739A 223 223 0 0 1 -222.26 18.1565A 1.5 1.5 0 0 0 -223.373 16.7458C -224.03188409393346 16.5976181768909 -224.7217301695176 16.431690357048083 -225.4419386702682 16.24603277412751 C -227.28551745026016 15.770775174758313 -229.32731870301092 15.16651114612326 -231.55278012106643 14.400210345983092 A 232 232 0 0 1 -231.732 11.1599C -229.6038981158648 10.153429659844019 -227.64096322457044 9.32821818114531 -225.86085596210455 8.65303625165443 C -225.16544249955453 8.389276628600587 -224.4980367466784 8.148467138703566 -223.85963666139764 7.928704503327666 A 1.5 1.5 0 0 0 -222.908 6.40412A 223 223 0 0 1 -222.922 5.88511A 1.5 1.5 0 0 0 -223.956 4.41526C -224.60602097213035 4.231000223403569 -225.2856789358093 4.027322286934224 -225.99456635135073 3.8022719487067405 C -227.80916481052003 3.2261773941627734 -229.81457806962095 2.510352672419297 -231.99444636624622 1.6226198021722142 A 232 232 0 0 1 -231.994 -1.62262C -229.81457806962095 -2.510352672419241 -227.80916481052003 -3.2261773941627174 -225.99456635135073 -3.8022719487066854 C -225.2856789358093 -4.027322286934169 -224.60602097213035 -4.231000223403514 -223.9564840554953 -4.415261121919913 A 1.5 1.5 0 0 0 -222.922 -5.88511A 223 223 0 0 1 -222.908 -6.40412A 1.5 1.5 0 0 0 -223.86 -7.9287C -224.49803674667842 -8.14846713870351 -225.16544249955456 -8.38927662860053 -225.86085596210455 -8.653036251654374 C -227.64096322457044 -9.328218181145251 -229.60389811586484 -10.153429659843962 -231.73155310268794 -11.159898584647811 A 232 232 0 0 1 -231.553 -14.4002C -229.32731870301095 -15.166511146123202 -227.28551745026016 -15.770775174758258 -225.4419386702682 -16.246032774127453 C -224.72173016951763 -16.431690357048026 -224.03188409393348 -16.597618176890848 -223.37318296821186 -16.745817744254985 A 1.5 1.5 0 0 0 -222.26 -18.1565A 223 223 0 0 1 -222.217 -18.6739A 1.5 1.5 0 0 0 -223.083 -20.2486C -223.70825936212128 -20.50318787392302 -224.36138601485848 -20.7803975867415 -225.04121357658724 -21.08206546531538 C -226.78142351509973 -21.854284264424262 -228.6959186698377 -22.786376359939315 -230.76489872859253 -23.908524726254548 A 232 232 0 0 1 -230.408 -27.1341C -228.14359980671654 -27.776609423948532 -226.0716114436134 -28.26747762948033 -224.2046512309614 -28.640454931965586 C -223.47530889454762 -28.78615592360186 -222.77736974691692 -28.91382970948278 -222.11150486577827 -29.025517868479398 A 1.5 1.5 0 0 0 -220.922 -30.3727A 223 223 0 0 1 -220.851 -30.887A 1.5 1.5 0 0 0 -221.629 -32.507C -222.2390873464185 -32.79564110144017 -222.87595137483854 -33.10840916039323 -223.53812842178465 -33.447069139054726 C -225.23315607595532 -34.313979604668944 -227.093397235275 -35.350121583941 -229.09741894152353 -36.58454146406035 A 232 232 0 0 1 -228.563 -39.7855C -226.26701629612103 -40.30235105187695 -224.17113338322497 -40.67833268369847 -222.28646163471805 -40.94789696949065 C -221.55020045134572 -41.05319888071973 -220.84628784992088 -41.14223089154723 -220.17528142312452 -41.217068448908265 A 1.5 1.5 0 0 0 -218.913 -42.4967A 223 223 0 0 1 -218.814 -43.0062A 1.5 1.5 0 0 0 -219.501 -44.6667C -220.09498252669505 -44.98849504481453 -220.7136497956751 -45.33587158358675 -221.35616531791058 -45.710495163111275 C -223.0008629444636 -46.669464516639195 -224.801200617104 -47.806509650531694 -226.73417782278977 -49.14945215185046 A 232 232 0 0 1 -226.025 -52.3161C -223.70326729366903 -52.70569576426337 -221.5898549585019 -52.965648978516015 -219.69319536029744 -53.13098158973884 C -218.95225133098205 -53.19556462211723 -218.24450303519842 -53.24568447060062 -217.57039288720873 -53.28344414712403 A 1.5 1.5 0 0 0 -216.24 -54.4916A 223 223 0 0 1 -216.112 -54.9949A 1.5 1.5 0 0 0 -216.708 -56.6907C -217.28245647881892 -57.04472040735811 -217.88104811619667 -57.42565045481835 -218.5019508151978 -57.83509991570751 C -220.09132352149695 -58.88321579874056 -221.82629014111728 -60.11771091855271 -223.68235245799713 -61.5650975688324 A 232 232 0 0 1 -222.799 -64.6879C -220.46013882081922 -64.94897501087246 -218.3356154271822 -65.09211033818835 -216.43272807214316 -65.15270916513543 C -215.68935141954938 -65.17637718211644 -214.97991683771994 -65.18743265592315 -214.3047502189007 -65.18799977671236 A 1.5 1.5 0 0 0 -212.91 -66.321A 223 223 0 0 1 -212.755 -66.8165A 1.5 1.5 0 0 0 -213.256 -68.5425C -213.8100507519593 -68.92770282889241 -214.38674885460566 -69.34102951300642 -214.98415306928254 -69.7840613707047 C -216.51337398265616 -70.91814068975415 -218.17770051265515 -72.24633667438079 -219.95121114047515 -73.7937718079352 A 232 232 0 0 1 -218.897 -76.8632C -216.54748015215299 -76.99500635502761 -214.41829780776658 -77.02088909812204 -212.5149617022487 -76.97657010414767 C -211.7714100368382 -76.9592512267416 -211.0624436984712 -76.93120875076103 -210.38827106765328 -76.89458159348884 A 1.5 1.5 0 0 0 -208.933 -77.949A 223 223 0 0 1 -208.751 -78.4352A 1.5 1.5 0 0 0 -209.156 -80.1862C -209.68831092818223 -80.60135408235682 -210.2413640829137 -81.0458221435696 -210.81345551630102 -81.52109092488617 C -212.27788044309548 -82.73768951833343 -213.86651237850236 -84.15555268022256 -215.55208522377518 -85.79833678741011 A 232 232 0 0 1 -214.331 -88.805C -211.97717390345105 -88.80720639544911 -209.84979886511613 -88.71575794928201 -207.95179437831564 -88.56665572971424 C -207.2103258420582 -88.50840255478256 -206.50398085462197 -88.44134729309259 -205.83284965192738 -88.36763709323185 A 1.5 1.5 0 0 0 -204.322 -89.3403A 223 223 0 0 1 -204.113 -89.8158A 1.5 1.5 0 0 0 -204.421 -91.5864C -204.929754595865 -92.03022167256822 -205.45748319842755 -92.50448127598602 -206.00252442764486 -93.0105436052525 C -207.39770595748826 -94.30596670315474 -208.90581867532816 -95.80919103848413 -210.49833470872179 -97.54233503796404 A 232 232 0 0 1 -209.113 -100.477C -206.7630999445802 -100.34970186884146 -204.64399298036852 -100.14119995933821 -202.75708428953084 -99.88776733271739 C -202.01995069800154 -99.7887567732378 -201.3183722080077 -99.68289237046432 -200.65232063684118 -99.57232298346935 A 1.5 1.5 0 0 0 -199.09 -100.46A 223 223 0 0 1 -198.855 -100.924A 1.5 1.5 0 0 0 -199.065 -102.708C -199.54883333419104 -103.1795965042835 -200.04963469016334 -103.68220733907806 -200.56597044291118 -104.21752632163302 C -201.88767145535226 -105.58783976661815 -203.31068486686766 -107.17186003248729 -204.80530766952938 -108.99010042289575 A 232 232 0 0 1 -203.261 -111.844C -200.92109324678447 -111.5874385958149 -198.81669001489846 -111.26251643642192 -196.94660759970128 -110.90552306930562 C -196.21604760339048 -110.76605581709309 -195.52136628165465 -110.6217037799479 -194.86241711874698 -110.47461100141301 A 1.5 1.5 0 0 0 -193.253 -111.275A 223 223 0 0 1 -192.994 -111.725A 1.5 1.5 0 0 0 -193.105 -113.518C -193.56188882417928 -114.01561829258112 -194.03424201630298 -114.54505394616632 -194.5203041978704 -115.10800383585386 C -195.76451073037427 -116.54904603102705 -197.0981031906041 -118.20905160994991 -198.4902936422054 -120.1068664549807 A 232 232 0 0 1 -196.791 -122.872C -194.46889579239797 -122.4862879392762 -192.3855872962882 -122.04593230791244 -190.5380105355632 -121.58646237742342 C -189.81624282116866 -121.40696198993913 -189.13056839203307 -121.22456071081469 -188.48072284433457 -121.04139125667382 A 1.5 1.5 0 0 0 -186.83 -121.752A 223 223 0 0 1 -186.546 -122.187A 1.5 1.5 0 0 0 -186.558 -123.984C -186.98710321953598 -124.5053783954336 -187.4295737266912 -125.06003098913024 -187.88388618220804 -125.64890212563765 C -189.04681962042835 -127.15629667321434 -190.28694105290157 -128.88724618280654 -191.57247111679757 -130.8588718811501 A 232 232 0 0 1 -189.723 -133.526C -187.4261026930277 -133.01315045197768 -185.37021587212556 -132.45869869422262 -183.55075579577138 -131.89814759543853 C -182.83997234811963 -131.6791592094597 -182.1653871822898 -131.45926263504577 -181.5266188093706 -131.240572784911 A 1.5 1.5 0 0 0 -179.839 -131.859A 223 223 0 0 1 -179.532 -132.278A 1.5 1.5 0 0 0 -179.445 -134.073C -179.84444392805133 -134.6170197561717 -180.25568798185034 -135.1952048282823 -180.67687097932097 -135.8082088293222 C -181.75499953262755 -137.37737782160443 -182.89788372931235 -139.17401442509578 -184.07284929295002 -141.21346321430693 A 232 232 0 0 1 -182.08 -143.774C -179.8141026798436 -143.13605639845088 -177.791881194854 -142.46919236606985 -176.00606344332303 -141.8092624742543 C -175.30842288838355 -141.5514511503117 -174.64697567883675 -141.29472709927754 -174.0212243992512 -141.04118100703613 A 1.5 1.5 0 0 0 -172.302 -141.566A 223 223 0 0 1 -171.972 -141.967A 1.5 1.5 0 0 0 -171.787 -143.754C -172.15560297123835 -144.31983365231835 -172.53437163700607 -144.91979527378192 -172.92114605751 -145.55507046635057 C -173.91119548492088 -147.181248388682 -174.95337154407468 -149.03811575975715 -176.01420427565444 -151.13919390089285 A 232 232 0 0 1 -173.883 -153.586C -171.6560131467047 -152.82426284604207 -169.67359841781405 -152.04701178318388 -167.92684646092385 -151.2897072837286 C -167.2444675101329 -150.99385598633967 -166.598167050305 -150.70108412119063 -165.9873332501229 -150.41345179799146 A 1.5 1.5 0 0 0 -164.242 -150.843A 223 223 0 0 1 -163.89 -151.225A 1.5 1.5 0 0 0 -163.607 -152.999C -163.94393110637674 -153.58435295696987 -164.289074076124 -154.2042690640607 -164.64026529845813 -154.85988613827766 C -165.53922885240192 -156.53813434175518 -166.47753171958587 -158.44959323523713 -167.4210099049679 -160.6059198230381 A 232 232 0 0 1 -165.158 -162.932C -162.97660994339444 -162.04834703018875 -161.04002249897903 -161.16306942278564 -159.33764116501288 -160.31069022456546 C -158.67259618081647 -159.97769744439674 -158.0434052639622 -159.6497669036648 -157.44934402535867 -159.32892187942 A 1.5 1.5 0 0 0 -155.683 -159.661A 223 223 0 0 1 -155.311 -160.023A 1.5 1.5 0 0 0 -154.93 -161.78C -155.23436691102998 -162.38244162949152 -155.54483599690133 -163.02042955736698 -155.8593774648659 -163.6943974257257 C -156.66452502257513 -165.41961912571378 -157.4961051028205 -167.37986450376624 -158.31936342976473 -169.58489084525652 A 232 232 0 0 1 -155.932 -171.783C -153.80225213217838 -170.78029571038823 -151.9173733246578 -169.78968011743774 -150.2645326897754 -168.84481486806283 C -149.61884139193273 -168.47569189324332 -149.00867085018726 -168.11359859120276 -148.43318631761912 -167.76051526170582 A 1.5 1.5 0 0 0 -146.651 -167.995A 223 223 0 0 1 -146.26 -168.336A 1.5 1.5 0 0 0 -145.783 -170.069C -146.05336104540527 -170.68738016374846 -146.32821336299105 -171.34150236404008 -146.60514982448578 -172.03177420827546 C -147.31403617929018 -173.7987299631734 -148.03636799122447 -175.80180862500987 -148.7369062512497 -178.0488381276622 A 232 232 0 0 1 -146.232 -180.112C -144.16080193619902 -178.99359024548846 -142.33335608056208 -177.90064513398823 -140.73507576744825 -176.86616335816638 C -140.11069909920923 -176.4620312030388 -139.52140200045352 -176.0668748051471 -138.96624190153196 -175.68262547286506 A 1.5 1.5 0 0 0 -137.174 -175.819A 223 223 0 0 1 -136.764 -176.138A 1.5 1.5 0 0 0 -136.193 -177.841C -136.42879592256787 -178.47394673436744 -136.66719675441303 -179.14221665945175 -136.90568716250633 -179.8466961466597 C -137.5161594498451 -181.65001976991377 -138.12704929549608 -183.68984843147274 -138.70273997693096 -185.9720569405398 A 232 232 0 0 1 -136.088 -187.894C -134.0815401228196 -186.66328712992959 -132.3170771120679 -185.4713317382618 -130.77821104550347 -184.35037512314628 C -130.17704521828833 -183.9124611237833 -129.61041123844313 -183.4854417070334 -129.0772615761423 -183.0711933245594 A 1.5 1.5 0 0 0 -127.28 -183.108A 223 223 0 0 1 -126.854 -183.404A 1.5 1.5 0 0 0 -126.189 -185.074C -126.3899010304686 -185.71849379459186 -126.59112636108223 -186.39888193067011 -126.79044642824307 -187.1154295798019 C -127.30065066384373 -188.94964443683747 -127.79824329082804 -191.02002820551607 -128.24733803999405 -193.33048472876436 A 232 232 0 0 1 -125.531 -195.105C -123.5950770788957 -193.76609374635095 -121.89895552920092 -192.47874800386452 -120.42417719485267 -191.2747208578533 C -119.84804792952043 -190.80435494467824 -119.30579791735917 -190.34676935300413 -118.79627784968066 -189.9037799790608 A 1.5 1.5 0 0 0 -117 -189.842A 223 223 0 0 1 -116.558 -190.114A 1.5 1.5 0 0 0 -115.802 -191.744C -115.96716416295038 -192.39901989310346 -116.13060287761701 -193.08945992376852 -116.29014727535244 -193.81589960316418 C -116.69853398572013 -195.67543524374491 -117.08131822158381 -197.77008643208418 -117.40245315248801 -200.1017741889895 A 232 232 0 0 1 -114.592 -201.724C -112.73325984803733 -200.28043910450347 -111.1106308248001 -198.90161263790765 -109.70441907599849 -197.61817155187092 C -109.15507605819249 -197.1167822107027 -108.63885680918017 -196.630020116507 -108.1545137318233 -196.15963509526344 A 1.5 1.5 0 0 0 -106.365 -195.999A 223 223 0 0 1 -105.908 -196.246A 1.5 1.5 0 0 0 -105.063 -197.832C -105.19223882931925 -198.4952364917077 -105.31739457003412 -199.1936315732788 -105.43667876725189 -199.92775710950775 C -105.74200769536955 -201.80696618500983 -106.00882103696911 -203.91952340619494 -106.20102087338094 -206.26536113767432 A 232 232 0 0 1 -103.305 -207.731C -101.5290754121829 -206.1865393516393 -99.98486678641643 -204.72041961159576 -98.65149224202511 -203.36146235392943 C -98.1306038084354 -202.83057228771818 -97.64198306346489 -202.31611197148274 -97.18428791043686 -201.8197598467885 A 1.5 1.5 0 0 0 -95.4059 -201.561A 223 223 0 0 1 -94.9363 -201.782A 1.5 1.5 0 0 0 -94.0057 -203.32C -94.0978481236783 -203.98862958095646 -94.18434079657032 -204.69285871052483 -94.26300253108396 -205.4324405884617 C -94.46434640303201 -207.32561600268613 -94.61437854701829 -209.44966348986898 -94.67705958435151 -211.8025269638317 A 232 232 0 0 1 -91.7052 -213.106C -90.01655051122067 -211.46645785542134 -88.55545199376849 -209.91749739939414 -87.29896406845525 -208.48715107862535 C -86.80811214013477 -207.92837258305366 -86.3485738243492 -207.38777644385027 -85.9189166007869 -206.8669646207946 A 1.5 1.5 0 0 0 -84.1575 -206.51A 223 223 0 0 1 -83.6764 -206.706A 1.5 1.5 0 0 0 -82.6625 -208.19C -82.71768534596497 -208.86251590658728 -82.76525227562928 -209.57044036343203 -82.80305265433638 -210.31323249722112 C -82.89979999539322 -212.21462473865716 -82.93259529907598 -214.34371182942945 -82.86556717708034 -216.6964554768358 A 232 232 0 0 1 -79.8264 -217.834C -78.23064830489656 -216.10415967688684 -76.85709720393477 -214.4770626468719 -75.68131181023226 -212.97967117776614 C -75.22198708835467 -212.39470124475983 -74.79292680451563 -211.82961105529571 -74.3926123652856 -211.28592122226794 A 1.5 1.5 0 0 0 -72.6535 -210.833A 223 223 0 0 1 -72.1624 -211.001A 1.5 1.5 0 0 0 -71.0683 -212.427C -71.08631167650788 -213.1020936360173 -71.09480840374246 -213.81156347683006 -71.0916326281353 -214.5553100311741 C -71.08348961980589 -216.45914463407692 -70.9989484849257 -218.58680536091993 -70.80241476580471 -220.93228397663944 A 232 232 0 0 1 -67.7051 -221.901C -66.20716219084863 -220.0855602680296 -64.92532993592685 -218.38526810422977 -63.83381789543165 -216.82537901546453 C -63.40741533408084 -216.21599417948423 -63.010136124168575 -215.62812610009217 -62.640380211065775 -215.0632094252459 A 1.5 1.5 0 0 0 -60.9288 -214.515A 223 223 0 0 1 -60.4292 -214.656A 1.5 1.5 0 0 0 -59.2582 -216.02C -59.23905121485673 -216.69448731102293 -59.208451935380225 -217.4033478992151 -59.16430965018493 -218.145790140273 C -59.05130102251793 -220.0462852215262 -58.84968019772286 -222.1660579487415 -58.5242377479221 -224.49714839130627 A 232 232 0 0 1 -55.3783 -225.294C -53.98260710123337 -223.3985682461096 -52.796386574780286 -221.63024467994353 -51.792462773685045 -220.0125953034131 C -51.400277343425415 -219.38064624617718 -51.03598573134322 -218.771785612893 -50.69791128092311 -218.18735772960292 A 1.5 1.5 0 0 0 -49.0192 -217.546A 223 223 0 0 1 -48.5125 -217.659A 1.5 1.5 0 0 0 -47.2682 -218.956C -47.21188370165437 -219.62878695008303 -47.142281344472856 -220.3348854993461 -47.05730660835876 -221.0737686544333 C -46.83977556484219 -222.965152472938 -46.52168736595054 -225.0705995204229 -46.068324543493844 -227.3802223447739 A 232 232 0 0 1 -42.8833 -228.002C -41.59410860807836 -226.03312211478476 -40.507102322845746 -224.20213748680405 -39.5938156447388 -222.53164057049827 C -39.23703839983224 -221.87904650052351 -38.90684072723293 -221.25104240307937 -38.60147446049008 -220.64887819961874 A 1.5 1.5 0 0 0 -36.9606 -219.916A 223 223 0 0 1 -36.4485 -220.001A 1.5 1.5 0 0 0 -35.1346 -221.227C -35.04133524934552 -221.89608118163437 -34.93294119453016 -222.5972732938813 -34.807392072978004 -223.33035339914048 C -34.485999248241505 -225.2068818844033 -34.05240969865882 -227.29160907867345 -33.472503351537476 -229.57275003620268 A 232 232 0 0 1 -30.258 -230.018C -29.079290174138695 -227.98122082054493 -28.094799332488567 -226.09313577088642 -27.274923398994655 -224.37486455903647 C -26.95463786020788 -223.70360738306488 -26.659536926570684 -223.0583670492643 -26.38780623082082 -222.44029527852797 A 1.5 1.5 0 0 0 -24.7898 -221.618A 223 223 0 0 1 -24.2738 -221.675A 1.5 1.5 0 0 0 -22.8944 -222.827C -22.76436741357529 -223.48948430761402 -22.61751085030801 -224.18364048544575 -22.451768631873577 -224.90869120069107 C -22.02749008536278 -226.7646653973774 -21.479715982300508 -228.82234149046184 -20.775027267031167 -231.06807283105474 A 232 232 0 0 1 -17.5409 -231.336C -16.47615889167872 -229.23694805164803 -15.597173359940262 -227.2974966325526 -14.873198107322855 -225.5366694583551 C -14.590376971310453 -224.84878776236806 -14.331268988471837 -224.18827076589793 -14.09399910090708 -223.5561684915397 A 1.5 1.5 0 0 0 -12.5438 -222.647A 223 223 0 0 1 -12.0254 -222.676A 1.5 1.5 0 0 0 -10.5846 -223.75C -10.418264942157933 -224.4041572150982 -10.233391868994694 -225.0891693290172 -10.027959907347977 -225.80398869905645 C -9.502084159064024 -227.6337720745306 -8.841789074469679 -229.65814797176347 -8.014458107519863 -231.86164948314826 A 232 232 0 0 1 -4.77045 -231.951C -3.8229900561803647 -229.79649020576483 -3.052179284524182 -227.811562467449 -2.426303401830848 -226.0135269051595 C -2.1818055870875126 -225.31110976325945 -1.9594774574753595 -224.63732207252903 -1.757388958945981 -223.99310896838108 A 1.5 1.5 0 0 0 -0.259605 -223A 223 223 0 0 1 0.259605 -223A 1.5 1.5 0 0 0 1.75739 -223.993C 1.959477457475277 -224.63732207252903 2.18180558708743 -225.31110976325945 2.4263034018307654 -226.0135269051595 C 3.052179284524098 -227.811562467449 3.8229900561802803 -229.79649020576483 4.770450697855525 -231.95106992627308 A 232 232 0 0 1 8.01446 -231.862C 8.841789074469594 -229.65814797176347 9.50208415906394 -227.6337720745306 10.027959907347896 -225.80398869905645 C 10.23339186899461 -225.0891693290172 10.41826494215785 -224.4041572150982 10.584558315523783 -223.74978973518466 A 1.5 1.5 0 0 0 12.0254 -222.676A 223 223 0 0 1 12.5438 -222.647A 1.5 1.5 0 0 0 14.094 -223.556C 14.33126898847176 -224.18827076589793 14.590376971310372 -224.84878776236806 14.873198107322773 -225.5366694583551 C 15.59717335994018 -227.2974966325526 16.476158891678633 -229.23694805164803 17.540871801250383 -231.33606259348238 A 232 232 0 0 1 20.775 -231.068C 21.479715982300423 -228.82234149046184 22.0274900853627 -226.7646653973774 22.4517686318735 -224.90869120069107 C 22.61751085030793 -224.18364048544575 22.76436741357521 -223.48948430761402 22.894360634268292 -222.82694974446454 A 1.5 1.5 0 0 0 24.2738 -221.675A 223 223 0 0 1 24.7898 -221.618A 1.5 1.5 0 0 0 26.3878 -222.44C 26.659536926570595 -223.05836704926432 26.954637860207793 -223.7036073830649 27.274923398994567 -224.3748645590365 C 28.094799332488478 -226.09313577088645 29.079290174138606 -227.98122082054496 30.258021853494014 -230.01849524183262 A 232 232 0 0 1 33.4725 -229.573C 34.05240969865873 -227.29160907867347 34.48599924824142 -225.20688188440332 34.80739207297792 -223.3303533991405 C 34.932941194530066 -222.59727329388133 35.04133524934544 -221.8960811816344 35.13463353222686 -221.22739163094198 A 1.5 1.5 0 0 0 36.4485 -220.001A 223 223 0 0 1 36.9606 -219.916A 1.5 1.5 0 0 0 38.6015 -220.649C 38.90684072723285 -221.2510424030794 39.237038399832144 -221.87904650052354 39.59381564473871 -222.53164057049827 C 40.507102322845654 -224.20213748680408 41.594108608078265 -226.0331221147848 42.883279287848076 -228.00236928006672 A 232 232 0 0 1 46.0683 -227.38C 46.52168736595045 -225.07059952042292 46.8397755648421 -222.96515247293803 47.05730660835867 -221.0737686544333 C 47.142281344472764 -220.33488549934611 47.21188370165429 -219.62878695008305 47.26820370290534 -218.9559732000356 A 1.5 1.5 0 0 0 48.5125 -217.659A 223 223 0 0 1 49.0192 -217.546A 1.5 1.5 0 0 0 50.6979 -218.187C 51.03598573134312 -218.77178561289304 51.40027734342533 -219.3806462461772 51.79246277368496 -220.01259530341312 C 52.7963865747802 -221.63024467994356 53.982607101233285 -223.39856824610962 55.378301612433724 -225.29380761646738 A 232 232 0 0 1 58.5242 -224.497C 58.849680197722776 -222.16605794874152 59.05130102251785 -220.04628522152623 59.16430965018485 -218.14579014027302 C 59.20845193538014 -217.40334789921513 59.239051214856644 -216.69448731102295 59.25822189248457 -216.01959267486623 A 1.5 1.5 0 0 0 60.4292 -214.656A 223 223 0 0 1 60.9288 -214.515A 1.5 1.5 0 0 0 62.6404 -215.063C 63.010136124168504 -215.62812610009217 63.40741533408075 -216.21599417948426 63.83381789543158 -216.82537901546456 C 64.92532993592677 -218.3852681042298 66.20716219084856 -220.0855602680296 67.7051418551209 -221.90103606378554 A 232 232 0 0 1 70.8024 -220.932C 70.99894848492563 -218.58680536091993 71.0834896198058 -216.45914463407695 71.09163262813523 -214.55531003117412 C 71.09480840374238 -213.8115634768301 71.08631167650782 -213.1020936360173 71.06827480979474 -212.4271677465798 A 1.5 1.5 0 0 0 72.1624 -211.001A 223 223 0 0 1 72.6535 -210.833A 1.5 1.5 0 0 0 74.3926 -211.286C 74.79292680451556 -211.82961105529574 75.2219870883546 -212.39470124475986 75.68131181023219 -212.97967117776614 C 76.85709720393469 -214.47706264687193 78.23064830489648 -216.10415967688687 79.82636380723389 -217.83435835771783 A 232 232 0 0 1 82.8656 -216.696C 82.9325952990759 -214.34371182942948 82.89979999539314 -212.2146247386572 82.80305265433631 -210.31323249722112 C 82.76525227562921 -209.57044036343206 82.7176853459649 -208.8625159065873 82.66249571228222 -208.18960849161272 A 1.5 1.5 0 0 0 83.6764 -206.706A 223 223 0 0 1 84.1575 -206.51A 1.5 1.5 0 0 0 85.9189 -206.867C 86.34857382434913 -207.3877764438503 86.8081121401347 -207.9283725830537 87.29896406845518 -208.48715107862537 C 88.5554519937684 -209.91749739939416 90.0165505112206 -211.46645785542137 91.70515571608826 -213.10612486479948 A 232 232 0 0 1 94.6771 -211.803C 94.61437854701822 -209.449663489869 94.46434640303193 -207.32561600268616 94.26300253108388 -205.43244058846173 C 94.18434079657025 -204.69285871052486 94.09784812367823 -203.98862958095648 94.00567333212955 -203.3197842381479 A 1.5 1.5 0 0 0 94.9363 -201.782A 223 223 0 0 1 95.4059 -201.561A 1.5 1.5 0 0 0 97.1843 -201.82C 97.6419830634648 -202.31611197148277 98.13060380843532 -202.8305722877182 98.65149224202504 -203.36146235392943 C 99.98486678641636 -204.7204196115958 101.52907541218283 -206.18653935163934 103.3054420810723 -207.73069507474747 A 232 232 0 0 1 106.201 -206.265C 106.00882103696904 -203.91952340619497 105.74200769536948 -201.80696618500986 105.43667876725182 -199.92775710950775 C 105.31739457003405 -199.19363157327882 105.19223882931917 -198.49523649170771 105.06335881171695 -197.83248448238848 A 1.5 1.5 0 0 0 105.908 -196.246A 223 223 0 0 1 106.365 -195.999A 1.5 1.5 0 0 0 108.155 -196.16C 108.63885680918007 -196.63002011650704 109.15507605819239 -197.11678221070272 109.70441907599839 -197.61817155187097 C 111.1106308248 -198.9016126379077 112.73325984803724 -200.2804391045035 114.59199321375831 -201.72439399116178 A 232 232 0 0 1 117.402 -200.102C 117.08131822158371 -197.7700864320842 116.69853398572003 -195.67543524374497 116.29014727535234 -193.81589960316424 C 116.13060287761691 -193.08945992376854 115.96716416295028 -192.39901989310349 115.80197032367211 -191.74437397334353 A 1.5 1.5 0 0 0 116.558 -190.114A 223 223 0 0 1 117 -189.842A 1.5 1.5 0 0 0 118.796 -189.904C 119.3057979173591 -190.3467693530042 119.84804792952035 -190.8043549446783 120.4241771948526 -191.27472085785337 C 121.89895552920085 -192.47874800386458 123.59507707889561 -193.76609374635098 125.53053222930693 -195.1054625530265 A 232 232 0 0 1 128.247 -193.33C 127.79824329082795 -191.0200282055161 127.30065066384365 -188.94964443683753 126.790446428243 -187.11542957980197 C 126.59112636108215 -186.39888193067017 126.38990103046852 -185.71849379459192 126.18889505777493 -185.07394210253352 A 1.5 1.5 0 0 0 126.854 -183.404A 223 223 0 0 1 127.28 -183.108A 1.5 1.5 0 0 0 129.077 -183.071C 129.61041123844308 -183.48544170703343 130.17704521828827 -183.91246112378332 130.77821104550338 -184.3503751231463 C 132.3170771120678 -185.47133173826185 134.08154012281952 -186.66328712992964 136.08783914424114 -187.89400223757713 A 232 232 0 0 1 138.703 -185.972C 138.127049295496 -183.6898484314728 137.51615944984502 -181.65001976991383 136.90568716250624 -179.84669614665972 C 136.66719675441297 -179.14221665945178 136.42879592256782 -178.47394673436747 136.19258826499149 -177.8414467523152 A 1.5 1.5 0 0 0 136.764 -176.138A 223 223 0 0 1 137.174 -175.819A 1.5 1.5 0 0 0 138.966 -175.683C 139.52140200045343 -176.06687480514714 140.11069909920914 -176.46203120303883 140.73507576744817 -176.86616335816643 C 142.33335608056203 -177.90064513398826 144.16080193619894 -178.99359024548852 146.23185176444312 -180.1119140127755 A 232 232 0 0 1 148.737 -178.049C 148.03636799122438 -175.80180862500993 147.31403617929013 -173.79872996317343 146.6051498244857 -172.03177420827552 C 146.32821336299097 -171.34150236404017 146.05336104540518 -170.68738016374854 145.78266905783883 -170.0688527733597 A 1.5 1.5 0 0 0 146.26 -168.336A 223 223 0 0 1 146.651 -167.995A 1.5 1.5 0 0 0 148.433 -167.761C 149.00867085018726 -168.11359859120276 149.61884139193273 -168.47569189324332 150.2645326897754 -168.84481486806283 C 151.9173733246578 -169.78968011743774 153.80225213217838 -170.78029571038823 155.93176305698518 -171.78283182478899 A 232 232 0 0 1 158.319 -169.585C 157.4961051028205 -167.37986450376624 156.66452502257513 -165.41961912571378 155.8593774648659 -163.6943974257257 C 155.54483599690133 -163.02042955736698 155.23436691102998 -162.38244162949152 154.93001267614306 -161.77976527812186 A 1.5 1.5 0 0 0 155.311 -160.023A 223 223 0 0 1 155.683 -159.661A 1.5 1.5 0 0 0 157.449 -159.329C 158.04340526396217 -159.64976690366487 158.6725961808164 -159.97769744439677 159.33764116501283 -160.3106902245655 C 161.04002249897897 -161.16306942278567 162.9766099433944 -162.0483470301888 165.15811471007498 -162.9320508224739 A 232 232 0 0 1 167.421 -160.606C 166.47753171958584 -158.4495932352372 165.53922885240186 -156.5381343417552 164.64026529845808 -154.8598861382777 C 164.28907407612394 -154.20426906406078 163.9439311063767 -153.58435295696992 163.60683893797753 -152.99935795289056 A 1.5 1.5 0 0 0 163.89 -151.225A 223 223 0 0 1 164.242 -150.843A 1.5 1.5 0 0 0 165.987 -150.413C 166.59816705030502 -150.7010841211906 167.24446751013292 -150.99385598633964 167.92684646092388 -151.28970728372857 C 169.67359841781408 -152.04701178318385 171.65601314670474 -152.82426284604207 173.88288659698142 -153.58645053683867 A 232 232 0 0 1 176.014 -151.139C 174.9533715440747 -149.03811575975715 173.9111954849209 -147.18124838868198 172.92114605751001 -145.55507046635054 C 172.5343716370061 -144.9197952737819 172.15560297123838 -144.31983365231832 171.78679660716332 -143.75429660612988 A 1.5 1.5 0 0 0 171.972 -141.967A 223 223 0 0 1 172.302 -141.566A 1.5 1.5 0 0 0 174.021 -141.041C 174.6469756788367 -141.29472709927757 175.3084228883835 -141.55145115031172 176.00606344332297 -141.80926247425435 C 177.79188119485394 -142.46919236606988 179.81410267984353 -143.13605639845093 182.07958187223767 -143.77441324879263 A 232 232 0 0 1 184.073 -141.213C 182.8978837293123 -139.17401442509583 181.7549995326275 -137.37737782160445 180.6768709793209 -135.80820882932227 C 180.2556879818503 -135.19520482828233 179.84444392805128 -134.61701975617171 179.44504342110653 -134.07265818529615 A 1.5 1.5 0 0 0 179.532 -132.278A 223 223 0 0 1 179.839 -131.859A 1.5 1.5 0 0 0 181.527 -131.241C 182.1653871822898 -131.45926263504577 182.83997234811966 -131.6791592094597 183.5507557957714 -131.89814759543853 C 185.37021587212558 -132.45869869422262 187.42610269302773 -133.01315045197768 189.72330744169074 -133.52573779309063 A 232 232 0 0 1 191.572 -130.859C 190.2869410529016 -128.88724618280654 189.04681962042838 -127.15629667321434 187.88388618220807 -125.64890212563765 C 187.42957372669122 -125.06003098913024 186.98710321953598 -124.5053783954336 186.55832153593423 -123.98384550807032 A 1.5 1.5 0 0 0 186.546 -122.187A 223 223 0 0 1 186.83 -121.752A 1.5 1.5 0 0 0 188.481 -121.041C 189.13056839203304 -121.22456071081474 189.81624282116863 -121.40696198993918 190.53801053556316 -121.58646237742347 C 192.38558729628818 -122.0459323079125 194.46889579239794 -122.48628793927625 196.7908495620095 -122.87154906025255 A 232 232 0 0 1 198.49 -120.107C 197.09810319060406 -118.20905160994997 195.76451073037424 -116.5490460310271 194.52030419787036 -115.10800383585392 C 194.03424201630295 -114.54505394616639 193.56188882417925 -114.01561829258118 193.10502815980098 -113.5184979669681 A 1.5 1.5 0 0 0 192.994 -111.725A 223 223 0 0 1 193.253 -111.275A 1.5 1.5 0 0 0 194.862 -110.475C 195.52136628165465 -110.6217037799479 196.2160476033905 -110.76605581709308 196.94660759970128 -110.90552306930559 C 198.81669001489848 -111.26251643642189 200.9210932467845 -111.58743859581487 203.26074434006105 -111.84420347129235 A 232 232 0 0 1 204.805 -108.99C 203.3106848668677 -107.17186003248726 201.8876714553523 -105.58783976661812 200.56597044291118 -104.21752632163299 C 200.04963469016337 -103.68220733907805 199.54883333419104 -103.17959650428347 199.06528115985847 -102.70839847851079 A 1.5 1.5 0 0 0 198.855 -100.924A 223 223 0 0 1 199.09 -100.46A 1.5 1.5 0 0 0 200.652 -99.5723C 201.31837220800767 -99.68289237046439 202.0199506980015 -99.78875677323786 202.7570842895308 -99.88776733271746 C 204.6439929803685 -100.1411999593383 206.76309994458018 -100.34970186884154 209.11334291804792 -100.47719071233233 A 232 232 0 0 1 210.498 -97.5423C 208.90581867532813 -95.8091910384842 207.39770595748823 -94.30596670315482 206.00252442764483 -93.01054360525256 C 205.45748319842752 -92.5044812759861 204.92975459586498 -92.03022167256829 204.42097944363886 -91.58637695955359 A 1.5 1.5 0 0 0 204.113 -89.8158A 223 223 0 0 1 204.322 -89.3403A 1.5 1.5 0 0 0 205.833 -88.3676C 206.503980854622 -88.44134729309259 207.21032584205824 -88.50840255478255 207.95179437831564 -88.56665572971423 C 209.84979886511616 -88.715757949282 211.97717390345107 -88.8072063954491 214.33087114644414 -88.80503202752566 A 232 232 0 0 1 215.552 -85.7983C 213.8665123785024 -84.15555268022254 212.2778804430955 -82.73768951833341 210.81345551630102 -81.52109092488615 C 210.24136408291372 -81.04582214356958 209.68831092818226 -80.60135408235682 209.15585793147815 -80.18621062390584 A 1.5 1.5 0 0 0 208.751 -78.4352A 223 223 0 0 1 208.933 -77.949A 1.5 1.5 0 0 0 210.388 -76.8946C 211.06244369847118 -76.9312087507611 211.7714100368382 -76.95925122674167 212.51496170224868 -76.97657010414774 C 214.41829780776655 -77.02088909812211 216.54748015215296 -76.99500635502768 218.8974835635025 -76.86317537917395 A 232 232 0 0 1 219.951 -73.7938C 218.17770051265512 -72.24633667438086 216.51337398265613 -70.91814068975422 214.9841530692825 -69.78406137070478 C 214.38674885460566 -69.34102951300649 213.81005075195927 -68.92770282889248 213.25553695302824 -68.54252140204417 A 1.5 1.5 0 0 0 212.755 -66.8165A 223 223 0 0 1 212.91 -66.321A 1.5 1.5 0 0 0 214.305 -65.188C 214.97991683771994 -65.18743265592313 215.68935141954938 -65.17637718211643 216.43272807214316 -65.1527091651354 C 218.3356154271822 -65.09211033818832 220.46013882081922 -64.94897501087243 222.79931151740172 -64.68788779342921 A 232 232 0 0 1 223.682 -61.5651C 221.82629014111728 -60.11771091855269 220.09132352149695 -58.88321579874053 218.5019508151978 -57.83509991570748 C 217.88104811619667 -57.42565045481833 217.28245647881892 -57.04472040735809 216.7075659178433 -56.69067079544618 A 1.5 1.5 0 0 0 216.112 -54.9949A 223 223 0 0 1 216.24 -54.4916A 1.5 1.5 0 0 0 217.57 -53.2834C 218.24450303519842 -53.2456844706007 218.95225133098205 -53.19556462211731 219.69319536029744 -53.13098158973892 C 221.5898549585019 -52.9656489785161 223.70326729366903 -52.70569576426345 226.0245052848856 -52.31614521852908 A 232 232 0 0 1 226.734 -49.1495C 224.801200617104 -47.80650965053178 223.0008629444636 -46.66946451663928 221.35616531791058 -45.71049516311136 C 220.7136497956751 -45.33587158358683 220.09498252669505 -44.988495044814606 219.50146112741382 -44.66665248487405 A 1.5 1.5 0 0 0 218.814 -43.0062A 223 223 0 0 1 218.913 -42.4967A 1.5 1.5 0 0 0 220.175 -41.2171C 220.84628784992088 -41.142230891547214 221.55020045134572 -41.053198880719705 222.28646163471805 -40.94789696949063 C 224.17113338322497 -40.67833268369845 226.26701629612103 -40.30235105187693 228.56327005848368 -39.785520230055575 A 232 232 0 0 1 229.097 -36.5845C 227.093397235275 -35.35012158394098 225.23315607595532 -34.31397960466892 223.53812842178465 -33.447069139054705 C 222.87595137483854 -33.10840916039321 222.2390873464185 -32.795641101440154 221.62873761381425 -32.506983018747604 A 1.5 1.5 0 0 0 220.851 -30.887A 223 223 0 0 1 220.922 -30.3727A 1.5 1.5 0 0 0 222.112 -29.0255C 222.77736974691692 -28.91382970948286 223.47530889454762 -28.786155923601942 224.2046512309614 -28.64045493196567 C 226.0716114436134 -28.267477629480414 228.14359980671654 -27.77660942394862 230.4078956930191 -27.134067924259668 A 232 232 0 0 1 230.765 -23.9085C 228.6959186698377 -22.786376359939403 226.78142351509973 -21.854284264424347 225.04121357658724 -21.082065465315466 C 224.36138601485848 -20.780397586741582 223.70825936212128 -20.503187873923103 223.08293490827174 -20.248590913588487 A 1.5 1.5 0 0 0 222.217 -18.6739A 223 223 0 0 1 222.26 -18.1565A 1.5 1.5 0 0 0 223.373 -16.7458C 224.03188409393348 -16.59761817689083 224.72173016951763 -16.431690357048012 225.4419386702682 -16.246032774127436 C 227.28551745026016 -15.77077517475824 229.32731870301095 -15.166511146123185 231.55278012106646 -14.400210345983018 A 232 232 0 0 1 231.732 -11.1599C 229.60389811586484 -10.153429659843944 227.64096322457044 -9.328218181145234 225.86085596210455 -8.653036251654356 C 225.16544249955456 -8.389276628600514 224.49803674667842 -8.148467138703491 223.85963666139767 -7.928704503327593 A 1.5 1.5 0 0 0 222.908 -6.40412A 223 223 0 0 1 222.922 -5.88511A 1.5 1.5 0 0 0 223.956 -4.41526" stroke="#191919" stroke-width="0.35 px" style="stroke-width:0.35;stroke-miterlimit:4;stroke-dasharray:none;fill:none;fill-rule: evenodd "/>
<title>b'InvoluteGear'</title>
</g>
</svg>