<?xml version="1.0"?>
<!DOCTYPE svg PUBLIC "-//W3C//DTD SVG 1.1//EN" "http://www.w3.org/Graphics/SVG/1.1/DTD/svg11.dtd">
<svg width="354.8847196200867mm" height="354.9441380042969mm" viewBox="0 0 354.8847196200867 354.9441380042969" xmlns="http://www.w3.org/2000/svg" version="1.1">
<g id="InvoluteGear" transform="translate(177.412555,177.472069) scale(1,-1)">
<path id="InvoluteGear_w0000"  d="M 165.94298740078727 -4.350279588964537 C 166.58111295314382 -4.1879367986241345 167.26508797839517 -3.999063803176844 167.99320927722692 -3.7794865360476426 C 169.74769767054687 -3.250356188021317 171.7567550185942 -2.543673936001105 173.99290291540046 -1.6025483235437417 A 174 174 0 0 1 173.993 1.60255C 171.7567550185942 2.543673936001105 169.74769767054687 3.250356188021317 167.99320927722692 3.7794865360476426 C 167.26508797839517 3.999063803176844 166.58111295314382 4.1879367986241345 165.94299606580466 4.350276494398097 A 1.5 1.5 0 0 0 164.898 5.80981A 165 165 0 0 1 164.876 6.38416A 1.5 1.5 0 0 0 165.811 7.91691C 166.43549853394975 8.125935951811321 167.10365699391315 8.364806452200444 167.81357358357016 8.637557690111706 C 169.5241931597259 9.29481647717326 171.47557385006436 10.147942865487128 173.63611070952942 11.251643601061442 A 174 174 0 0 1 173.399 14.448C 171.09986035157308 15.221398072524721 169.04409912036797 15.777776534848062 167.2553243170814 16.1758885173656 C 166.51297505511735 16.341092558822837 165.81691909898288 16.47893649052295 165.16855560138026 16.593706319780754 A 1.5 1.5 0 0 0 164.018 17.9721A 165 165 0 0 1 163.955 18.5433A 1.5 1.5 0 0 0 164.774 20.1409C 165.3808711368634 20.3954276579216 166.02956378172888 20.682991035412925 166.71739834397735 21.007426571427153 C 168.37480629203816 21.78922407794768 170.2578525600205 22.784135122062207 172.3309782790307 24.04438295006781 A 174 174 0 0 1 171.859 27.2145C 169.50847757987995 27.815988211124402 167.41724032048228 28.2190241375259 165.60394877490845 28.483943404940064 C 164.85142600405533 28.593871933538956 164.14709073329772 28.679933945737304 163.49202176202147 28.74650707547046 A 1.5 1.5 0 0 0 162.243 30.0361A 165 165 0 0 1 162.138 30.6011A 1.5 1.5 0 0 0 162.836 32.2548C 163.42299077101282 32.553526610718905 164.04867466650236 32.888212293863376 164.71067048748472 33.262560173587886 C 166.30581461998028 34.164626492691916 168.1102419198777 35.29588833349103 170.08463380465687 36.70580021730948 A 174 174 0 0 1 169.38 39.8324C 166.99129828436742 40.25865706790899 164.87600660950645 40.50614921592004 163.04810189126925 40.63642887105868 C 162.28951562994794 40.690481495296126 161.5807478795726 40.724291547125944 160.9225511941846 40.74230437798551 A 1.5 1.5 0 0 0 159.582 41.9362A 165 165 0 0 1 159.435 42.4918A 1.5 1.5 0 0 0 160.009 44.1926C 160.5725507000191 44.5338294898062 161.17180857766485 44.91380954146197 161.8043500657683 45.33602520659091 C 163.3285182585975 46.353433564854456 165.04447143422206 47.614867642453156 166.90934604095855 49.16674313229241 A 174 174 0 0 1 165.975 52.2328C 163.56207042546137 52.481447100346635 161.43427732474214 52.572043753678045 159.6017428155472 52.56697225424208 C 158.8412361988609 52.564853757428395 158.13190701253993 52.54622719011095 157.4741774550918 52.515581342261115 A 1.5 1.5 0 0 0 156.049 53.6072A 165 165 0 0 1 155.861 54.1504A 1.5 1.5 0 0 0 156.309 55.889C 156.8451190390983 56.27090403528641 157.4146779601782 56.69410313617762 158.01431039314207 57.16188059116044 C 159.45917816817396 58.28907425693897 161.07728527832418 59.673791055834904 162.82245730860149 61.359154345915755 A 174 174 0 0 1 161.665 64.3478C 159.23952325656845 64.4176016677963 157.11084999804885 64.35080801894392 155.28369436591453 64.21041306370462 C 154.52542101728153 64.15213501633477 153.81940450505536 64.08117356172158 153.16573436630793 64.0020364121562 A 1.5 1.5 0 0 0 151.664 64.9854A 165 165 0 0 1 151.436 65.5133A 1.5 1.5 0 0 0 151.754 67.2802C 152.2610537274151 67.70064641607597 152.79780295860903 68.16475319946697 153.36125135201996 68.67553760605648 C 154.7189273425064 69.90636023842623 156.23035084726015 71.40679691564425 157.846288776625 73.21644313611237 A 174 174 0 0 1 156.471 76.1114C 154.04726503138855 76.00192963312973 151.92933769024336 75.77811048584147 150.11754022562667 75.50315886335935 C 149.36564157112954 75.38903955991888 148.6667937503615 75.26613078486766 148.02075314993846 75.13893455325513 A 1.5 1.5 0 0 0 146.45 76.0087A 165 165 0 0 1 146.185 76.5184A 1.5 1.5 0 0 0 146.371 78.3039C 146.84539134007835 78.76063134280076 147.34639934321493 79.26311101837973 147.87058633733602 79.81411264927266 C 149.13365538782034 81.14184192182994 150.53014041611345 82.74980361254786 152.0080185519569 84.67384910328093 A 174 174 0 0 1 150.423 87.4594C 148.01365406382013 87.17116141411593 145.9180400247496 86.79153919096014 144.1314961371225 86.3835325916518 C 143.39007878647502 86.2141953122028 142.70221652162158 86.04001050182157 142.0673339092539 85.86544988987093 A 1.5 1.5 0 0 0 140.437 86.6168A 165 165 0 0 1 140.134 87.1055A 1.5 1.5 0 0 0 140.188 88.8999C 140.62771034704986 89.39045301307948 141.09024079015128 89.92856121110403 141.5723034573938 90.51677068646414 C 142.73386712271875 91.934155002341 144.00778655758793 93.64085957739957 145.3395332420182 95.66879586913146 A 174 174 0 0 1 143.553 98.3296C 141.1716438446832 97.86429453993927 139.10978862486937 97.3309426058566 137.3582557974234 96.79210942028242 C 136.63136911509233 96.56847902632386 135.95824927131304 96.34396951764458 135.33799215567024 96.12299791488564 A 1.5 1.5 0 0 0 133.657 96.7519A 165 165 0 0 1 133.319 97.2169A 1.5 1.5 0 0 0 133.24 99.0104C 133.64196956579858 99.53205502706902 134.063496267977 100.10285278716219 134.50080174921808 100.72505751080939 C 135.5545159714409 102.22435560838112 136.698912106692 104.02048163922797 137.87725380113062 106.14123284716395 A 174 174 0 0 1 135.899 108.663C 133.5586030611801 108.0229268255411 131.54176779884077 107.33875816384428 129.8348122964977 106.67204131201177 C 129.12642628547823 106.39533919520682 128.471725209941 106.12173118131238 127.86948122030118 105.85555545801276 A 1.5 1.5 0 0 0 126.146 106.359A 165 165 0 0 1 125.775 106.797A 1.5 1.5 0 0 0 125.564 108.58C 125.9263226900153 109.1300474713883 126.30454341859696 109.73041729412091 126.69470330294317 110.38321899961754 C 127.63481306038022 111.95624223258918 128.64343560116654 113.83197990168927 129.66193661189385 116.03396321814782 A 174 174 0 0 1 127.503 118.403C 125.21611150208406 117.59157534410244 123.25531145204104 116.76032664677138 121.60225607383094 115.96936750492681 C 120.91623969286722 115.641104916285 120.28353313581493 115.31989274926785 119.70259152000838 115.00996666492601 A 1.5 1.5 0 0 0 117.947 115.384A 165 165 0 0 1 117.544 115.794A 1.5 1.5 0 0 0 117.202 117.557C 117.52290990736859 118.1320094396174 117.85575895189014 118.75867231320888 118.19664232134953 119.43850562401262 C 119.01801306050906 121.07666268496538 119.88535326027441 123.02176736362262 120.73845088795709 125.29295631931446 A 174 174 0 0 1 118.41 127.496C 116.18973296335203 126.5179794555502 114.29567733552891 125.54419071471631 112.70555049669495 124.6333092274103 C 112.04565052936881 124.25527902335867 111.43839411461138 123.88821705268776 110.88192777428962 123.53623331610282 A 1.5 1.5 0 0 0 109.103 123.78A 165 165 0 0 1 108.671 124.159A 1.5 1.5 0 0 0 108.2 125.892C 108.4776277444125 126.48877533711043 108.76328719881536 127.13830864625406 109.05303226663263 127.84146054856815 C 109.75117794536534 129.53580439170145 110.47249869270756 131.539652592668 111.15553361393317 133.86764274110092 A 174 174 0 0 1 108.671 135.892C 106.52876639447096 134.75338623605086 104.71179986390227 133.64237594813432 103.1932862858274 132.6165470341827 C 102.56310687692579 132.19081388460566 101.9846172284214 131.77990687547816 101.45566538976855 131.3877878997614 A 1.5 1.5 0 0 0 99.6639 131.499A 165 165 0 0 1 99.2052 131.846A 1.5 1.5 0 0 0 98.6075 133.539C 98.83987839567438 134.15470340642415 99.07678808707718 134.8235596254251 99.31381236616724 135.5461897473922 C 99.884919954873 137.28746645418514 100.45628164600363 139.33911385346494 100.96552336088953 141.711190519729 A 174 174 0 0 1 98.3382 143.547C 96.28597664469153 142.25281674957438 94.55602285249486 141.01065286750097 93.11741612976516 139.87547924870347 C 92.52039910069124 139.40436836043182 91.97383572829624 138.95186054444073 91.47528734282955 138.52174794746182 A 1.5 1.5 0 0 0 89.6802 138.501A 165 165 0 0 1 89.1972 138.812A 1.5 1.5 0 0 0 88.476 140.456C 88.66229990599949 141.08792500676992 88.84916591582135 141.77245107490035 89.0321748617651 142.51061266138186 C 89.47312516883827 144.28931198228713 89.89140722433235 146.37755319323836 90.2240744312224 148.78076091715118 A 174 174 0 0 1 87.4683 150.417C 85.51730627971865 148.9753117072452 83.88381363360821 147.6087784993917 82.53297093727534 146.3704601004082 C 81.97237698801331 145.85654451774587 81.46072503133509 145.36490733566524 80.99530299745359 144.89915024327803 A 1.5 1.5 0 0 0 79.2066 144.746A 165 165 0 0 1 78.702 145.021A 1.5 1.5 0 0 0 77.8614 146.607C 78.00047867980349 147.25057328601085 78.13628041069856 147.94703055926078 78.26427449209558 148.69669202764481 C 78.57265919986793 150.50309932377408 78.8355771081867 152.61652909704512 78.98985289415641 155.03774239138286 A 174 174 0 0 1 76.1208 156.466C 74.28157004281704 154.88415517277465 72.75346011317703 153.4007161696475 71.49775927761448 152.06601625615968 C 70.97665017791721 151.51210280780782 70.50270410251677 150.9840214114404 70.07295039397437 150.4851636273722 A 1.5 1.5 0 0 0 68.3005 150.2A 165 165 0 0 1 67.7769 150.437A 1.5 1.5 0 0 0 66.8214 151.957C 66.91264588740736 152.60898999627696 66.99664163741369 153.31357466653148 67.06892179497606 154.07064162583902 C 67.24305661311284 155.8948909269515 67.34917440781349 158.02196644199816 67.32421617201834 160.4479614793551 A 174 174 0 0 1 64.3575 161.661C 62.64013362907868 159.94707509217304 61.22575242243973 158.35483232319282 60.07205165016999 156.93104056329213 C 59.593273517234195 156.34015453242418 59.15962185222435 155.77851311923334 58.76788363475075 155.249279231711 A 1.5 1.5 0 0 0 57.0213 154.834A 165 165 0 0 1 56.4816 155.032A 1.5 1.5 0 0 0 55.4166 156.477C 55.459359426577876 157.13390932364337 55.49109044003625 157.84277319376352 55.507261904608114 158.60311080679207 C 55.54619576911762 160.43523869580292 55.49493387160414 162.56434260377137 55.290877927273236 164.98186944051955 A 174 174 0 0 1 52.2426 165.972C 50.65657852727616 164.13641955251728 49.36365090332171 162.4440692955436 48.3182513078923 160.93896194609215 C 47.884419061853414 160.31433054730624 47.493430262250385 159.7221966079295 47.141847074145744 159.16547710892343 A 1.5 1.5 0 0 0 45.4307 158.622A 165 165 0 0 1 44.8779 158.78A 1.5 1.5 0 0 0 43.709 160.142C 43.7031731762899 160.80061772785746 43.682466149408235 161.50988922919845 43.64244059805788 162.2693447955692 C 43.54596086567333 164.09934482527845 43.33759925065378 166.21884869893606 42.95556008059425 168.61470364182276 A 174 174 0 0 1 39.8425 169.377C 38.39635475981923 167.42930780711058 37.23194224088079 165.6460930923881 36.30055343236706 164.06789052780007 C 35.91403651451227 163.41292528119197 35.567846025555674 162.79353284587103 35.258338092274364 162.2123683442303 A 1.5 1.5 0 0 0 33.592 161.544A 165 165 0 0 1 33.0291 161.66A 1.5 1.5 0 0 0 31.7628 162.933C 31.708295349131276 163.58908891912563 31.635263376509783 164.29489425670235 31.539259414918966 165.04931989346935 C 31.307893024482222 166.86719723830674 30.943569690843947 168.96552508247933 30.385633860522336 171.3266228026209 A 174 174 0 0 1 27.2248 171.857C 25.926423417428627 169.8077552421864 24.896885620899464 167.94341537011877 24.084594521994354 166.30073718552617 C 23.747503953695897 165.61901528414953 23.448002547787404 164.97574725957838 23.18226029433245 164.3733118742796 A 1.5 1.5 0 0 0 21.5698 163.584A 165 165 0 0 1 20.9999 163.658A 1.5 1.5 0 0 0 19.643 164.834C 19.540237808311254 165.48409323476372 19.415279765258983 166.1825775445756 19.263821733774467 166.92785284052414 C 18.898832328278804 168.72367888482043 18.380537083733156 170.78937036046352 17.649751845178393 173.10281536087413 A 174 174 0 0 1 14.4583 173.399C 13.31489094087874 171.2587716026323 12.425850845189057 169.32348895110064 11.737093908195323 167.62530688511364 C 11.451270761243816 166.92055165759197 11.20009421120392 166.2569213506538 10.979569029611836 165.63650537486402 A 1.5 1.5 0 0 0 9.42981 164.73A 165 165 0 0 1 8.85595 164.762A 1.5 1.5 0 0 0 7.41598 165.834C 7.265458264581295 166.47528081833337 7.089256628597502 167.1626292212947 6.883171738465915 167.89468374119866 C 6.386552763476201 169.65865030584126 5.717116356918832 171.68042332243803 4.817473005688352 173.9335803687624 A 174 174 0 0 1 1.61292 173.993C 0.6306371472354924 171.77443194025878 -0.11304961890589293 169.7787763520048 -0.674510642439718 168.03436528618653 C -0.907505301130966 167.3104258611835 -1.1089851560868356 166.6300577904866 -1.28308883374606 165.995049721123 A 1.5 1.5 0 0 0 -2.76169 164.977A 165 165 0 0 1 -3.33634 164.966A 1.5 1.5 0 0 0 -4.85155 165.929C -5.049002692735396 166.5572381469688 -5.275485569416687 167.22969658445544 -5.535071753989829 167.9445321003828 C -6.160607937845544 169.66700501168913 -6.977529276903538 171.63381734611633 -8.041117200796055 173.81438047589828 A 174 174 0 0 1 -11.2413 173.637C -12.05706096781892 171.35191989711805 -12.651332645184773 169.30679095092813 -13.082431249846874 167.5256782536079 C -13.261324884248015 166.78650853722127 -13.412007631019577 166.09311863723553 -13.538738910832775 165.44698666817015 A 1.5 1.5 0 0 0 -14.9381 164.322A 165 165 0 0 1 -15.5104 164.269A 1.5 1.5 0 0 0 -17.0926 165.118C -17.33588774819499 165.72951759816146 -17.61141489463917 166.38341333537738 -17.92308460393084 167.07712566362477 C -18.674121534934503 168.7486973718579 -19.634066065424285 170.6498069771795 -20.8557896135606 172.74586671076145 A 174 174 0 0 1 -24.0341 172.332C -24.67890759691314 169.99354308747465 -25.12051847967822 167.91011056846023 -25.41890015438267 166.10202405955158 C -25.542715709497838 165.35166114044915 -25.64177837117472 164.64903646636043 -25.720445090838354 163.99530954634815 A 1.5 1.5 0 0 0 -27.0329 162.77A 165 165 0 0 1 -27.5998 162.675A 1.5 1.5 0 0 0 -29.2403 163.404C -29.528090196367014 163.996639894519 -29.851156778845187 164.62840157969998 -30.213207780981435 165.29720190409023 C -31.08564355585417 166.90874286423337 -32.18336839363168 168.73376653903586 -33.55655493565087 170.73387492500692 A 174 174 0 0 1 -36.6957 170.087C -37.165966590656666 167.7067204944163 -37.452504753317406 165.59636338852107 -37.61653984082726 163.77117820954265 C -37.684601079030124 163.0137203097841 -37.731502609706354 162.30569835391194 -37.76167511887701 161.64794691269591 A 1.5 1.5 0 0 0 -38.9801 160.33A 165 165 0 0 1 -39.5384 160.193A 1.5 1.5 0 0 0 -41.2282 160.799C -41.559020455388904 161.36806941314597 -41.92786199625788 161.97424658304453 -42.338316894214024 162.61448214812677 C -43.3273865712894 164.15719068229222 -44.55689632395048 165.8961607801302 -46.0740459911421 167.7893939200669 A 174 174 0 0 1 -49.1568 166.912C -49.450037962982876 164.5039419499412 -49.57993843345812 162.3781862958658 -49.6087310310081 160.5458709753428 C -49.6206662254173 159.78545506731172 -49.61515046519645 159.07590280005718 -49.596663972092 158.4177192479199 A 1.5 1.5 0 0 0 -50.7144 157.013A 165 165 0 0 1 -51.261 156.835A 1.5 1.5 0 0 0 -52.991 157.315C -53.36296975617048 157.8581624944981 -53.77557177083781 158.43544441961726 -54.2321888022953 159.0436184807505 C -55.332490425978385 160.5090688498921 -56.687069937613025 162.15248771911655 -58.33989658459925 163.92850543012807 A 174 174 0 0 1 -61.3494 162.826C -61.46403037582288 160.40269991982677 -61.43658368278867 158.27315585780204 -61.329976535195414 156.44371786662035 C -61.28572049991788 155.68449707831573 -61.22781757396957 154.97728982811006 -61.16077304540476 154.3222689353739 A 1.5 1.5 0 0 0 -62.1717 152.839A 165 165 0 0 1 -62.7037 152.621A 1.5 1.5 0 0 0 -64.4644 152.972C -64.87546902090497 153.4860890330291 -65.3295780202452 154.03132279967883 -65.82986330132002 154.60411372103863 C -67.03538740569559 155.98430214341667 -68.5076384327409 157.52319400005484 -70.28711489352922 159.1722962892761 A 174 174 0 0 1 -73.207 157.851C -73.14232756872882 155.42539396584732 -72.9576836165048 153.30369232707469 -72.71625897504012 151.48712342114504 C -72.6160534211938 150.73324435323644 -72.50607957522047 150.03224464084087 -72.39084318516119 149.38396390447932 A 1.5 1.5 0 0 0 -73.2895 147.83A 165 165 0 0 1 -73.804 147.574A 1.5 1.5 0 0 0 -75.5857 147.793C -76.03364097081594 148.27572777787464 -76.52677676894673 148.7859355082931 -77.0679979149184 149.32021490449463 C -78.37216034536983 150.6076032695562 -79.95404196325093 152.03356321993107 -81.85044935448434 153.5467432625201 A 174 174 0 0 1 -84.6648 152.013C -84.42114673213457 149.59920840713522 -84.0803139819585 147.49693719021985 -83.70539042429489 145.70315883897197 C -83.54978263986645 144.9587389175045 -83.388338512879 144.26777536026134 -83.22553964252704 143.6297754648511 A 1.5 1.5 0 0 0 -84.0069 142.014A 165 165 0 0 1 -84.5011 141.72A 1.5 1.5 0 0 0 -86.2942 141.807C -86.77654354004984 142.2555359154053 -87.3060128002473 142.72793103189443 -87.8852138488966 143.22078085414853 C -89.28089172247525 144.40833789307334 -90.96376424234683 145.7135778384184 -92.9667450444746 147.0825711697104 A 174 174 0 0 1 -95.6601 145.345C -95.23888686694355 142.9559638488566 -94.74372682910575 140.88460493017743 -94.23735205770234 139.12341412893443 C -94.02719191844999 138.39251911737543 -93.81515926228577 137.7153655186279 -93.60568706261698 137.09113099835741 A 1.5 1.5 0 0 0 -94.2656 135.422A 165 165 0 0 1 -94.7367 135.092A 1.5 1.5 0 0 0 -96.5314 135.047C -97.04550272010673 135.45839364594238 -97.60841366487654 135.89039609018917 -98.22243122092621 136.33912456367304 C -99.70200182906801 137.4203642517255 -101.47667398479891 138.59775542407934 -103.57528861125662 139.81508507722674 A 174 174 0 0 1 -106.133 137.884C -105.53646522782412 135.53194338910052 -104.88968229474388 133.50280981278289 -104.25462195300568 131.78382557497028 C -103.99105728073243 131.07044736841934 -103.72959414423255 130.41080210630608 -103.47459267976251 129.80374231365832 A 1.5 1.5 0 0 0 -104.009 128.09A 165 165 0 0 1 -104.455 127.727A 1.5 1.5 0 0 0 -106.241 127.549C -106.78443301692835 127.921424603506 -107.3777112218917 128.31067492796612 -108.02319173437445 128.7128312533638 C -109.57857417549073 129.681848234311 -111.4353533231722 130.724960131376 -113.61813986861006 131.7839774739487 A 174 174 0 0 1 -116.026 129.669C -115.25764001267675 127.36769445317869 -114.4627666884486 125.3918686431707 -113.70248925574131 123.7244794646005 C -113.3869595492904 123.03251428744248 -113.07749395343842 122.39398011563897 -112.77835595373881 121.8074106006903 A 1.5 1.5 0 0 0 -113.185 120.059A 165 165 0 0 1 -113.603 119.664A 1.5 1.5 0 0 0 -115.371 119.355C -115.9401437704176 119.68579309939932 -116.560548955751 120.03016535378151 -117.23396703394194 120.3835530927001 C -118.85666634850176 121.2350549318196 -120.78541140430738 122.13819043813561 -123.04044824554255 123.03311148464557 A 174 174 0 0 1 -125.286 120.746C -124.34931753585357 118.50780733764981 -123.41069514293497 116.59608056936543 -122.52935299095346 114.98939315152789 C -122.16358156416477 114.32262027760655 -121.80780370273136 113.70868464833367 -121.46616295582399 113.1458090503691 A 1.5 1.5 0 0 0 -121.743 111.372A 165 165 0 0 1 -122.13 110.947A 1.5 1.5 0 0 0 -123.871 110.508C -124.46262966337925 110.79647929701484 -125.10677339109928 111.09409263948416 -125.80445105897756 111.3967817106385 C -127.48560462603082 112.12611780016172 -129.47578145329976 112.88434430277492 -131.79075236108807 113.61028130479927 A 174 174 0 0 1 -133.861 111.164C -132.76184220745841 109.00067167358183 -131.68459717587191 107.16348513569693 -130.68700388982586 105.62627464811472 C -130.27298845939342 104.98833575964954 -129.87284146768405 104.40235177641897 -129.49056389685722 103.86624432676533 A 1.5 1.5 0 0 0 -129.635 102.077A 165 165 0 0 1 -129.99 101.625A 1.5 1.5 0 0 0 -131.694 101.058C -132.3053438332218 101.30203354577975 -132.9697080136584 101.5512625154635 -133.68783479773688 101.80159973611093 C -135.41826073947658 102.40478669522989 -137.45899968251504 103.01396302391441 -139.82126108852427 103.56695116528243 A 174 174 0 0 1 -141.705 100.974C -140.44926773495942 98.89821213916741 -139.2392836035096 97.14559990746784 -138.1308876919904 95.68626206076324 C -137.6708894666264 95.08064135874396 -137.22855880875022 94.52580946286949 -136.8077322815328 94.01939819450996 A 1.5 1.5 0 0 0 -136.82 92.2242A 165 165 0 0 1 -137.14 91.747A 1.5 1.5 0 0 0 -138.797 91.0564C -139.42545209477987 91.25431121598352 -140.1064082011621 91.45379461067482 -140.84106194197207 91.65041272572596 C -142.61130927196695 92.12415615643803 -144.69146452233835 92.58095520133166 -147.08811457393398 92.95797425257575 A 174 174 0 0 1 -148.775 90.2329C -147.36960806590596 88.25560486513778 -146.0334933483307 86.59713909987701 -144.82034848544689 85.22364429131183 C -144.31687981594396 84.65364946600083 -143.8347813485666 84.13299995689779 -143.37770427351956 83.65905071257113 A 1.5 1.5 0 0 0 -143.257 81.8678A 165 165 0 0 1 -143.542 81.3683A 1.5 1.5 0 0 0 -145.143 80.5572C -145.78406688578005 80.70818948272684 -146.4778957719911 80.85683779329905 -147.2250640455573 80.99866294279109 C -149.02546428676243 81.34037542275848 -151.1336747578279 81.64230230588292 -153.5516237835182 81.84129311968469 A 174 174 0 0 1 -155.033 78.9991C -153.48506670118783 77.13097608186995 -152.03011879274788 75.57571474794901 -150.7188507550564 74.29556452987866 C -150.17466141269875 73.76430869535379 -149.65542819047099 73.28068518009447 -149.16459696407685 72.84178650622104 A 1.5 1.5 0 0 0 -148.912 71.0644A 165 165 0 0 1 -149.159 70.5452A 1.5 1.5 0 0 0 -150.696 69.618C -151.34645965722072 69.72126760582164 -152.0493718704842 69.81826896674943 -152.80497390279317 69.90452655089676 C -154.62569389341866 70.1123417650501 -156.7504452706527 70.25774746646935 -159.17648727133545 70.27762322400817 A 174 174 0 0 1 -160.444 67.3338C -158.76224312640628 65.5850846540731 -157.19640844804297 64.14152204957747 -155.79417892685518 62.96170815857336 C -155.21224108512138 62.472092849978374 -154.65870897984766 62.02813671249622 -154.13680435205876 61.62668572143515 A 1.5 1.5 0 0 0 -153.754 59.8728A 165 165 0 0 1 -153.961 59.3368A 1.5 1.5 0 0 0 -155.426 58.2986C -156.08225054866398 58.35355234260724 -156.79040702622106 58.39837696609452 -157.55031598099362 58.42859587588421 C -159.38141157982463 58.50137880958819 -161.51109920800823 58.4894691737837 -163.931983983558 58.33012132056423 A 174 174 0 0 1 -164.979 55.3007C -163.17231523390157 53.68099023693885 -161.50414583164118 52.357010600227795 -160.01861331834846 51.28397677063664 C -159.40210531993054 50.838676097002406 -158.8172975320207 50.43681207176899 -158.26716996493226 50.07500134962165 A 1.5 1.5 0 0 0 -157.756 48.3541A 165 165 0 0 1 -157.923 47.8043A 1.5 1.5 0 0 0 -159.307 46.6608C -159.9655743124985 46.6671302118509 -160.6751073492373 46.65953328134809 -161.43517286727726 46.63354847157394 C -163.26664326512488 46.5709016096837 -165.38963552894805 46.401741682956306 -167.79214104621485 46.06404052169554 A 174 174 0 0 1 -168.612 42.9656C -166.6911967391102 41.48370886617209 -164.92980357575416 40.286543314902815 -163.36908153380367 39.32615008540423 C -162.72137053160156 38.92759612459251 -162.1084810783984 38.57001905355864 -161.5331351780133 38.249824685023725 A 1.5 1.5 0 0 0 -160.896 36.5714A 165 165 0 0 1 -161.022 36.0108A 1.5 1.5 0 0 0 -162.318 34.7682C -162.97522158095248 34.72582839871166 -163.6822559534722 34.665851406018774 -164.43832682048918 34.58380479670097 C -166.26016916114227 34.38607029465202 -168.3648710130533 34.06058396986164 -170.73587562002245 33.54637390719721 A 174 174 0 0 1 -171.325 30.3959C -169.29966873149885 29.05985786294933 -167.45467192570433 27.99604490021989 -165.8272844776751 27.15353760559632 C -165.1519080445751 26.8039071211339 -164.5142843157394 26.49256996626398 -163.91686242185193 26.215740741948125 A 1.5 1.5 0 0 0 -163.158 24.589A 165 165 0 0 1 -163.242 24.0205A 1.5 1.5 0 0 0 -164.443 22.6856C -165.09475470430573 22.594866152788974 -165.7954288360431 22.482836671441774 -166.54337565514535 22.345176372708977 C -168.34563966750235 22.013434187782806 -170.42055595583693 21.53339915836605 -172.74711004754218 20.845488631346793 A 174 174 0 0 1 -173.102 17.6601C -170.983484641589 16.477291993211924 -169.06496092611675 15.552641796524648 -167.37979629791832 14.832621919461744 C -166.68044310579657 14.533824471812835 -166.02156758102547 14.2704276486839 -165.4053326048511 14.038475513813815 A 1.5 1.5 0 0 0 -164.528 12.4722A 165 165 0 0 1 -164.57 11.8991A 1.5 1.5 0 0 0 -165.669 10.4792C -166.3125975276324 10.340498583197025 -167.00308457945368 10.177028479373998 -167.73882232448196 9.984506344041211 C -169.5116646674814 9.520568337013113 -171.54546291899462 8.888606387838152 -173.81485966376988 8.030752525214831 A 174 174 0 0 1 -173.933 4.82784C -171.7334480507793 3.804732868464039 -169.75187573687373 3.0242955565508223 -168.01813771333806 2.4306955959346763 C -167.2986273868142 2.1843631131438785 -166.62209861574465 1.9703452038653202 -165.9904162190305 1.7845370005672558 A 1.5 1.5 0 0 0 -165 0.287371A 165 165 0 0 1 -165 -0.287371A 1.5 1.5 0 0 0 -165.99 -1.78453C -166.62209861574465 -1.9703452038652784 -167.2986273868142 -2.184363113143837 -168.01813771333806 -2.4306955959346346 C -169.75187573687373 -3.0242955565507796 -171.7334480507793 -3.8047328684639963 -173.9332927905669 -4.827844766373064 A 174 174 0 0 1 -173.815 -8.03075C -171.54546291899462 -8.88860638783811 -169.5116646674814 -9.52056833701307 -167.73882232448196 -9.984506344041169 C -167.00308457945368 -10.177028479373957 -166.3125975276324 -10.340498583196984 -165.66891774057976 -10.479148034949617 A 1.5 1.5 0 0 0 -164.57 -11.8991A 165 165 0 0 1 -164.528 -12.4722A 1.5 1.5 0 0 0 -165.405 -14.0385C -166.02156758102547 -14.270427648683857 -166.68044310579657 -14.533824471812792 -167.37979629791832 -14.832621919461705 C -169.06496092611675 -15.552641796524606 -170.983484641589 -16.47729199321188 -173.1017625872639 -17.660074044006446 A 174 174 0 0 1 -172.747 -20.8455C -170.42055595583693 -21.533399158366006 -168.34563966750235 -22.013434187782764 -166.54337565514535 -22.345176372708938 C -165.7954288360431 -22.48283667144173 -165.09475470430573 -22.59486615278893 -164.44259308270168 -22.68559959777035 A 1.5 1.5 0 0 0 -163.242 -24.0205A 165 165 0 0 1 -163.158 -24.589A 1.5 1.5 0 0 0 -163.917 -26.2157C -164.5142843157394 -26.492569966263943 -165.1519080445751 -26.80390712113386 -165.8272844776751 -27.15353760559628 C -167.45467192570433 -27.99604490021985 -169.29966873149885 -29.059857862949293 -171.32481058348029 -30.395850121223106 A 174 174 0 0 1 -170.736 -33.5464C -168.3648710130533 -34.060583969861604 -166.26016916114227 -34.38607029465198 -164.43832682048918 -34.58380479670093 C -163.6822559534722 -34.66585140601873 -162.97522158095248 -34.72582839871163 -162.31814000542312 -34.768150282309115 A 1.5 1.5 0 0 0 -161.022 -36.0108A 165 165 0 0 1 -160.896 -36.5714A 1.5 1.5 0 0 0 -161.533 -38.2498C -162.1084810783984 -38.5700190535586 -162.72137053160156 -38.927596124592476 -163.36908153380367 -39.326150085404194 C -164.92980357575416 -40.28654331490278 -166.6911967391102 -41.48370886617205 -168.61214187486434 -42.965614605494565 A 174 174 0 0 1 -167.792 -46.064C -165.38963552894805 -46.40174168295627 -163.26664326512488 -46.570901609683666 -161.43517286727726 -46.6335484715739 C -160.6751073492373 -46.659533281348054 -159.9655743124985 -46.66713021185087 -159.30716153475214 -46.66080938661225 A 1.5 1.5 0 0 0 -157.923 -47.8043A 165 165 0 0 1 -157.756 -48.3541A 1.5 1.5 0 0 0 -158.267 -50.075C -158.81729753202072 -50.436812071768955 -159.40210531993057 -50.83867609700236 -160.01861331834849 -51.283976770636606 C -161.5041458316412 -52.35701060022775 -163.1723152339016 -53.68099023693881 -164.97857211722604 -55.300715802044635 A 174 174 0 0 1 -163.932 -58.3301C -161.51109920800826 -58.48946917378366 -159.38141157982466 -58.50137880958815 -157.55031598099364 -58.42859587588418 C -156.7904070262211 -58.398376966094474 -156.082250548664 -58.3535523426072 -155.42610259097387 -58.29862333068805 A 1.5 1.5 0 0 0 -153.961 -59.3368A 165 165 0 0 1 -153.754 -59.8728A 1.5 1.5 0 0 0 -154.137 -61.6267C -154.6587089798477 -62.02813671249612 -155.2122410851214 -62.47209284997825 -155.7941789268552 -62.961708158573245 C -157.196408448043 -64.14152204957738 -158.76224312640633 -65.585084654073 -160.44394660856295 -67.33378366560032 A 174 174 0 0 1 -159.176 -70.2776C -156.75044527065276 -70.25774746646925 -154.62569389341868 -70.11234176505 -152.8049739027932 -69.90452655089665 C -152.04937187048424 -69.81826896674932 -151.34645965722075 -69.72126760582154 -150.69616017219823 -69.61803041043713 A 1.5 1.5 0 0 0 -149.159 -70.5452A 165 165 0 0 1 -148.912 -71.0644A 1.5 1.5 0 0 0 -149.165 -72.8418C -149.65542819047099 -73.28068518009444 -150.17466141269878 -73.76430869535375 -150.71885075505642 -74.29556452987862 C -152.0301187927479 -75.57571474794898 -153.48506670118786 -77.1309760818699 -155.0330319009241 -78.99909775221684 A 174 174 0 0 1 -153.552 -81.8413C -151.13367475782792 -81.64230230588288 -149.02546428676246 -81.34037542275846 -147.22506404555733 -80.99866294279104 C -146.47789577199111 -80.85683779329901 -145.78406688578005 -80.70818948272681 -145.14316758370703 -80.55720794963862 A 1.5 1.5 0 0 0 -143.542 -81.3683A 165 165 0 0 1 -143.257 -81.8678A 1.5 1.5 0 0 0 -143.378 -83.659C -143.83478134856665 -84.13299995689769 -144.31687981594402 -84.65364946600073 -144.82034848544694 -85.22364429131173 C -146.03349334833072 -86.59713909987691 -147.36960806590602 -88.25560486513768 -148.77538053409125 -90.23294616155233 A 174 174 0 0 1 -147.088 -92.958C -144.6914645223384 -92.58095520133156 -142.61130927196703 -92.12415615643793 -140.84106194197213 -91.65041272572586 C -140.10640820116217 -91.45379461067472 -139.42545209477993 -91.25431121598342 -138.7974533453986 -91.05640995396905 A 1.5 1.5 0 0 0 -137.14 -91.747A 165 165 0 0 1 -136.82 -92.2242A 1.5 1.5 0 0 0 -136.808 -94.0194C -137.22855880875025 -94.52580946286945 -137.67088946662642 -95.08064135874393 -138.13088769199044 -95.6862620607632 C -139.2392836035096 -97.1455999074678 -140.44926773495942 -98.89821213916737 -141.70516962985434 -100.97397350917446 A 174 174 0 0 1 -139.821 -103.567C -137.45899968251504 -103.01396302391437 -135.41826073947658 -102.40478669522984 -133.6878347977369 -101.80159973611089 C -132.96970801365842 -101.55126251546348 -132.30534383322183 -101.30203354577971 -131.69367554792922 -101.05829342290578 A 1.5 1.5 0 0 0 -129.99 -101.625A 165 165 0 0 1 -129.635 -102.077A 1.5 1.5 0 0 0 -129.491 -103.866C -129.87284146768414 -104.40235177641887 -130.2729884593935 -104.98833575964946 -130.68700388982595 -105.62627464811463 C -131.684597175872 -107.16348513569683 -132.7618422074585 -109.00067167358173 -133.86101422842427 -111.16351602839333 A 174 174 0 0 1 -131.791 -113.61C -129.47578145329985 -112.88434430277482 -127.4856046260309 -112.12611780016162 -125.80445105897765 -111.39678171063842 C -125.10677339109937 -111.09409263948407 -124.46262966337932 -110.79647929701474 -123.87063256224056 -110.50823153731022 A 1.5 1.5 0 0 0 -122.13 -110.947A 165 165 0 0 1 -121.743 -111.372A 1.5 1.5 0 0 0 -121.466 -113.146C -121.80780370273139 -113.70868464833363 -122.1635815641648 -114.3226202776065 -122.5293529909535 -114.98939315152785 C -123.41069514293501 -116.5960805693654 -124.34931753585361 -118.50780733764978 -125.28575638647334 -120.74592197141286 A 174 174 0 0 1 -123.04 -123.033C -120.78541140430742 -122.13819043813558 -118.8566663485018 -121.23505493181958 -117.23396703394198 -120.38355309270005 C -116.56054895575103 -120.03016535378147 -115.94014377041763 -119.68579309939928 -115.37105113631134 -119.35461201217156 A 1.5 1.5 0 0 0 -113.603 -119.664A 165 165 0 0 1 -113.185 -120.059A 1.5 1.5 0 0 0 -112.778 -121.807C -113.07749395343848 -122.39398011563893 -113.38695954929045 -123.03251428744244 -113.70248925574137 -123.72447946460048 C -114.46276668844865 -125.39186864317065 -115.2576400126768 -127.36769445317866 -116.02623118867878 -129.6688555598781 A 174 174 0 0 1 -113.618 -131.784C -111.43535332317225 -130.72496013137598 -109.57857417549079 -129.68184823431093 -108.0231917343745 -128.71283125336376 C -107.37771122189176 -128.31067492796606 -106.7844330169284 -127.92142460350595 -106.24135303647692 -127.54911898500926 A 1.5 1.5 0 0 0 -104.455 -127.727A 165 165 0 0 1 -104.009 -128.09A 1.5 1.5 0 0 0 -103.475 -129.804C -103.72959414423259 -130.41080210630605 -103.99105728073248 -131.0704473684193 -104.25462195300572 -131.78382557497025 C -104.88968229474392 -133.50280981278286 -105.53646522782417 -135.53194338910046 -106.13301095073061 -137.8835828247488 A 174 174 0 0 1 -103.575 -139.815C -101.47667398479895 -138.59775542407928 -99.70200182906805 -137.42036425172546 -98.22243122092625 -136.339124563673 C -97.60841366487658 -135.89039609018914 -97.04550272010677 -135.45839364594235 -96.53140150783862 -135.04699690035994 A 1.5 1.5 0 0 0 -94.7367 -135.092A 165 165 0 0 1 -94.2656 -135.422A 1.5 1.5 0 0 0 -93.6057 -137.091C -93.81515926228583 -137.71536551862783 -94.02719191845004 -138.3925191173754 -94.2373520577024 -139.1234141289344 C -94.74372682910581 -140.8846049301774 -95.2388868669436 -142.95596384885658 -95.66012901088112 -145.34523777433796 A 174 174 0 0 1 -92.9667 -147.083C -90.96376424234688 -145.71357783841836 -89.2808917224753 -144.4083378930733 -87.88521384889665 -143.2207808541485 C -87.30601280024736 -142.7279310318944 -86.7765435400499 -142.25553591540523 -86.29422893851081 -141.80729494910076 A 1.5 1.5 0 0 0 -84.5011 -141.72A 165 165 0 0 1 -84.0069 -142.014A 1.5 1.5 0 0 0 -83.2255 -143.63C -83.3883385128791 -144.26777536026128 -83.54978263986655 -144.95873891750443 -83.70539042429499 -145.7031588389719 C -84.0803139819586 -147.4969371902198 -84.42114673213467 -149.59920840713517 -84.66478461858789 -152.01306743680092 A 174 174 0 0 1 -81.8504 -153.547C -79.95404196325103 -152.033563219931 -78.37216034536993 -150.60760326955614 -77.0679979149185 -149.3202149044946 C -76.52677676894683 -148.78593550829305 -76.03364097081604 -148.27572777787458 -75.58574721510664 -147.79309072756877 A 1.5 1.5 0 0 0 -73.804 -147.574A 165 165 0 0 1 -73.2895 -147.83A 1.5 1.5 0 0 0 -72.3908 -149.384C -72.50607957522047 -150.03224464084087 -72.6160534211938 -150.73324435323644 -72.71625897504012 -151.48712342114504 C -72.9576836165048 -153.30369232707469 -73.14232756872882 -155.42539396584732 -73.20703053204862 -157.85065443873512 A 174 174 0 0 1 -70.2871 -159.172C -68.5076384327409 -157.52319400005484 -67.03538740569559 -155.98430214341667 -65.82986330132002 -154.60411372103863 C -65.3295780202452 -154.03132279967883 -64.87546902090497 -153.4860890330291 -64.4644423514021 -152.9716918949259 A 1.5 1.5 0 0 0 -62.7037 -152.621A 165 165 0 0 1 -62.1717 -152.839A 1.5 1.5 0 0 0 -61.1608 -154.322C -61.2278175739696 -154.97728982811006 -61.285720499917915 -155.68449707831573 -61.32997653519545 -156.44371786662035 C -61.43658368278871 -158.27315585780204 -61.464030375822915 -160.40269991982674 -61.349445030860785 -162.82611590424509 A 174 174 0 0 1 -58.3399 -163.929C -56.68706993761306 -162.15248771911652 -55.33249042597842 -160.5090688498921 -54.23218880229533 -159.0436184807505 C -53.77557177083784 -158.43544441961726 -53.362969756170514 -157.8581624944981 -52.99105505801063 -157.3148147273875 A 1.5 1.5 0 0 0 -51.261 -156.835A 165 165 0 0 1 -50.7144 -157.013A 1.5 1.5 0 0 0 -49.5967 -158.418C -49.61515046519652 -159.07590280005718 -49.620666225417374 -159.7854550673117 -49.60873103100817 -160.5458709753428 C -49.57993843345819 -162.37818629586576 -49.45003796298295 -164.50394194994118 -49.15679013515814 -166.91227758815492 A 174 174 0 0 1 -46.074 -167.789C -44.55689632395055 -165.89616078013017 -43.32738657128947 -164.1571906822922 -42.338316894214095 -162.61448214812677 C -41.92786199625795 -161.9742465830445 -41.559020455388975 -161.36806941314597 -41.22824899768398 -160.79873859411444 A 1.5 1.5 0 0 0 -39.5384 -160.193A 165 165 0 0 1 -38.9801 -160.33A 1.5 1.5 0 0 0 -37.7617 -161.648C -37.73150260970648 -162.3056983539119 -37.684601079030244 -163.01372030978408 -37.61653984082737 -163.77117820954263 C -37.45250475331752 -165.59636338852107 -37.16596659065679 -167.70672049441623 -36.695657897914856 -170.08682229231184 A 174 174 0 0 1 -33.5566 -170.734C -32.1833683936318 -168.73376653903586 -31.085643555854283 -166.90874286423337 -30.21320778098155 -165.2972019040902 C -29.851156778845308 -164.62840157969995 -29.528090196367135 -163.99663989451898 -29.240268538116876 -163.4044355110723 A 1.5 1.5 0 0 0 -27.5998 -162.675A 165 165 0 0 1 -27.0329 -162.77A 1.5 1.5 0 0 0 -25.7204 -163.995C -25.641778371174684 -164.64903646636043 -25.542715709497806 -165.35166114044915 -25.418900154382637 -166.10202405955158 C -25.12051847967819 -167.91011056846023 -24.67890759691311 -169.99354308747465 -24.034106702244138 -172.3324117543836 A 174 174 0 0 1 -20.8558 -172.746C -19.634066065424253 -170.6498069771795 -18.67412153493447 -168.7486973718579 -17.923084603930807 -167.07712566362477 C -17.61141489463914 -166.38341333537738 -17.335887748194953 -165.72951759816146 -17.092587871488437 -165.11767406528236 A 1.5 1.5 0 0 0 -15.5104 -164.269A 165 165 0 0 1 -14.9381 -164.322A 1.5 1.5 0 0 0 -13.5387 -165.447C -13.41200763101958 -166.09311863723553 -13.261324884248019 -166.78650853722127 -13.082431249846877 -167.5256782536079 C -12.651332645184777 -169.30679095092813 -12.057060967818924 -171.35191989711805 -11.241289550110967 -173.63678134343493 A 174 174 0 0 1 -8.04112 -173.814C -6.9775292769035415 -171.63381734611633 -6.160607937845548 -169.66700501168913 -5.535071753989833 -167.9445321003828 C -5.2754855694166904 -167.22969658445544 -5.0490026927353995 -166.5572381469688 -4.851553417129701 -165.9290971418639 A 1.5 1.5 0 0 0 -3.33634 -164.966A 165 165 0 0 1 -2.76169 -164.977A 1.5 1.5 0 0 0 -1.28309 -165.995C -1.1089851560868769 -166.6300577904866 -0.9075053011310068 -167.3104258611835 -0.6745106424397598 -168.03436528618653 C -0.11304961890593468 -169.7787763520048 0.6306371472354502 -171.77443194025878 1.6129236273852126 -173.99280704508877 A 174 174 0 0 1 4.81747 -173.934C 5.71711635691879 -171.68042332243803 6.38655276347616 -169.65865030584126 6.883171738465873 -167.89468374119866 C 7.089256628597461 -167.1626292212947 7.2654582645812535 -166.47528081833337 7.415978539612567 -165.83427302935115 A 1.5 1.5 0 0 0 8.85595 -164.762A 165 165 0 0 1 9.42981 -164.73A 1.5 1.5 0 0 0 10.9796 -165.636C 11.200094211203847 -166.2569213506538 11.451270761243743 -166.920551657592 11.737093908195249 -167.62530688511367 C 12.42585084518898 -169.32348895110064 13.314890940878664 -171.25877160263232 14.458327575344683 -173.39854437042226 A 174 174 0 0 1 17.6498 -173.103C 18.38053708373308 -170.78937036046355 18.89883232827873 -168.72367888482043 19.263821733774392 -166.92785284052417 C 19.41527976525891 -166.18257754457562 19.54023780831118 -165.48409323476372 19.64300699322204 -164.8337196241643 A 1.5 1.5 0 0 0 20.9999 -163.658A 165 165 0 0 1 21.5698 -163.584A 1.5 1.5 0 0 0 23.1823 -164.373C 23.44800254778729 -164.97574725957838 23.747503953695787 -165.61901528414953 24.08459452199424 -166.3007371855262 C 24.896885620899354 -167.9434153701188 25.926423417428513 -169.80775524218643 27.22476515182466 -171.85723897609103 A 174 174 0 0 1 30.3856 -171.327C 30.943569690843834 -168.96552508247936 31.307893024482112 -166.86719723830677 31.53925941491886 -165.04931989346937 C 31.635263376509673 -164.2948942567024 31.70829534913117 -163.58908891912563 31.762752154271027 -162.932901602039 A 1.5 1.5 0 0 0 33.0291 -161.66A 165 165 0 0 1 33.592 -161.544A 1.5 1.5 0 0 0 35.2583 -162.212C 35.567846025555674 -162.79353284587103 35.91403651451226 -163.41292528119197 36.30055343236705 -164.06789052780007 C 37.231942240880784 -165.6460930923881 38.396354759819225 -167.42930780711058 39.842510501820236 -169.37730893767798 A 174 174 0 0 1 42.9556 -168.615C 43.337599250653774 -166.21884869893606 43.54596086567332 -164.09934482527845 43.642440598057874 -162.2693447955692 C 43.68246614940823 -161.50988922919845 43.7031731762899 -160.80061772785746 43.70902017747315 -160.14220057186242 A 1.5 1.5 0 0 0 44.8779 -158.78A 165 165 0 0 1 45.4307 -158.622A 1.5 1.5 0 0 0 47.1418 -159.165C 47.49343026225034 -159.72219660792953 47.88441906185338 -160.31433054730627 48.318251307892254 -160.93896194609212 C 49.36365090332167 -162.4440692955436 50.65657852727612 -164.1364195525173 52.24264987570489 -165.97229877308374 A 174 174 0 0 1 55.2909 -164.982C 55.4949338716041 -162.5643426037714 55.546195769117574 -160.43523869580292 55.50726190460807 -158.6031108067921 C 55.49109044003622 -157.84277319376355 55.459359426577834 -157.1339093236434 55.4165646895116 -156.47685837492568 A 1.5 1.5 0 0 0 56.4816 -155.032A 165 165 0 0 1 57.0213 -154.834A 1.5 1.5 0 0 0 58.7679 -155.249C 59.15962185222428 -155.77851311923334 59.59327351723412 -156.3401545324242 60.07205165016992 -156.93104056329213 C 61.22575242243965 -158.35483232319282 62.64013362907861 -159.94707509217307 64.35745801223449 -161.66080546706655 A 174 174 0 0 1 67.3242 -160.448C 67.34917440781342 -158.0219664419982 67.24305661311276 -155.8948909269515 67.068921794976 -154.07064162583902 C 66.9966416374136 -153.3135746665315 66.9126458874073 -152.60898999627696 66.82144314210541 -151.95689383927188 A 1.5 1.5 0 0 0 67.7769 -150.437A 165 165 0 0 1 68.3005 -150.2A 1.5 1.5 0 0 0 70.0729 -150.485C 70.50270410251667 -150.98402141144044 70.97665017791712 -151.51210280780785 71.49775927761439 -152.0660162561597 C 72.75346011317694 -153.40071616964752 74.28157004281694 -154.8841551727747 76.12076803043841 -156.46637690096057 A 174 174 0 0 1 78.9899 -155.038C 78.8355771081866 -152.61652909704517 78.57265919986784 -150.5030993237741 78.2642744920955 -148.69669202764484 C 78.13628041069848 -147.9470305592608 78.0004786798034 -147.25057328601088 77.86136604403421 -146.60699344379958 A 1.5 1.5 0 0 0 78.702 -145.021A 165 165 0 0 1 79.2066 -144.746A 1.5 1.5 0 0 0 80.9953 -144.899C 81.46072503133507 -145.36490733566527 81.9723769880133 -145.85654451774587 82.53297093727532 -146.37046010040822 C 83.88381363360818 -147.60877849939172 85.51730627971864 -148.9753117072452 87.46833281017891 -150.41738324231363 A 174 174 0 0 1 90.2241 -148.781C 89.89140722433234 -146.37755319323836 89.47312516883824 -144.28931198228716 89.03217486176509 -142.51061266138188 C 88.84916591582133 -141.77245107490035 88.66229990599948 -141.08792500676995 88.47603716473921 -140.45637648927536 A 1.5 1.5 0 0 0 89.1972 -138.812A 165 165 0 0 1 89.6802 -138.501A 1.5 1.5 0 0 0 91.4753 -138.522C 91.9738357282962 -138.95186054444076 92.5203991006912 -139.40436836043185 93.11741612976513 -139.87547924870353 C 94.55602285249482 -141.010652867501 96.28597664469147 -142.2528167495744 98.33817588764171 -143.54686199687023 A 174 174 0 0 1 100.966 -141.711C 100.4562816460036 -139.33911385346497 99.88491995487296 -137.28746645418516 99.31381236616721 -135.54618974739225 C 99.07678808707713 -134.82355962542513 98.83987839567433 -134.15470340642418 98.60748285142516 -133.53863551264578 A 1.5 1.5 0 0 0 99.2052 -131.846A 165 165 0 0 1 99.6639 -131.499A 1.5 1.5 0 0 0 101.456 -131.388C 101.98461722842133 -131.77990687547822 102.56310687692572 -132.19081388460572 103.19328628582733 -132.61654703418276 C 104.71179986390219 -133.64237594813437 106.52876639447089 -134.75338623605091 108.67092994929044 -135.89233756917153 A 174 174 0 0 1 111.156 -133.868C 110.47249869270749 -131.53965259266806 109.75117794536526 -129.5358043917015 109.05303226663256 -127.84146054856821 C 108.76328719881529 -127.13830864625412 108.47762774441243 -126.48877533711048 108.20036866104886 -125.8915528162493 A 1.5 1.5 0 0 0 108.671 -124.159A 165 165 0 0 1 109.103 -123.78A 1.5 1.5 0 0 0 110.882 -123.536C 111.4383941146113 -123.88821705268782 112.04565052936871 -124.25527902335872 112.70555049669487 -124.63330922741035 C 114.29567733552881 -125.54419071471636 116.18973296335191 -126.51797945555029 118.41016107554582 -127.49561631727013 A 174 174 0 0 1 120.738 -125.293C 119.88535326027433 -123.0217673636227 119.01801306050896 -121.07666268496547 118.19664232134944 -119.4385056240127 C 117.85575895189007 -118.75867231320896 117.5229099073685 -118.13200943961749 117.20230157785831 -117.55689411398264 A 1.5 1.5 0 0 0 117.544 -115.794A 165 165 0 0 1 117.947 -115.384A 1.5 1.5 0 0 0 119.703 -115.01C 120.28353313581493 -115.31989274926784 120.91623969286722 -115.64110491628497 121.60225607383094 -115.9693675049268 C 123.25531145204104 -116.76032664677136 125.21611150208406 -117.59157534410242 127.50267696328483 -118.40255822089948 A 174 174 0 0 1 129.662 -116.034C 128.64343560116654 -113.83197990168925 127.63481306038022 -111.95624223258916 126.69470330294317 -110.38321899961753 C 126.30454341859696 -109.73041729412088 125.9263226900153 -109.13004747138828 125.56411616587641 -108.58018042145474 A 1.5 1.5 0 0 0 125.775 -106.797A 165 165 0 0 1 126.146 -106.359A 1.5 1.5 0 0 0 127.869 -105.856C 128.471725209941 -106.12173118131241 129.12642628547823 -106.39533919520683 129.8348122964977 -106.67204131201179 C 131.54176779884077 -107.33875816384429 133.5586030611801 -108.02292682554112 135.89881744375458 -108.66282641016812 A 174 174 0 0 1 137.877 -106.141C 136.698912106692 -104.02048163922798 135.5545159714409 -102.22435560838113 134.50080174921808 -100.7250575108094 C 134.063496267977 -100.1028527871622 133.64196956579858 -99.53205502706902 133.24014309346288 -99.01043943598528 A 1.5 1.5 0 0 0 133.319 -97.2169A 165 165 0 0 1 133.657 -96.7519A 1.5 1.5 0 0 0 135.338 -96.123C 135.95824927131304 -96.34396951764462 136.6313691150923 -96.5684790263239 137.3582557974234 -96.79210942028244 C 139.10978862486934 -97.33094260585665 141.1716438446832 -97.86429453993931 143.55272570919362 -98.329615922764 A 174 174 0 0 1 145.34 -95.6688C 144.00778655758793 -93.64085957739961 142.73386712271872 -91.93415500234104 141.5723034573938 -90.51677068646417 C 141.09024079015126 -89.92856121110407 140.62771034704986 -89.39045301307952 140.18845856336728 -88.89993776432259 A 1.5 1.5 0 0 0 140.134 -87.1055A 165 165 0 0 1 140.437 -86.6168A 1.5 1.5 0 0 0 142.067 -85.8654C 142.70221652162152 -86.04001050182164 143.39007878647493 -86.21419531220289 144.13149613712244 -86.38353259165189 C 145.91804002474953 -86.79153919096022 148.01365406382007 -87.17116141411601 150.422598766814 -87.45936317110565 A 174 174 0 0 1 152.008 -84.6738C 150.5301404161134 -82.74980361254795 149.13365538782028 -81.14184192183002 147.87058633733596 -79.81411264927274 C 147.3463993432149 -79.26311101837982 146.8453913400783 -78.76063134280086 146.3711132859713 -78.30389546056271 A 1.5 1.5 0 0 0 146.185 -76.5184A 165 165 0 0 1 146.45 -76.0087A 1.5 1.5 0 0 0 148.021 -75.1389C 148.66679375036153 -75.26613078486763 149.36564157112957 -75.38903955991887 150.1175402256267 -75.50315886335933 C 151.92933769024336 -75.77811048584144 154.04726503138858 -76.00192963312972 156.47091575225176 -76.11143770622779 A 174 174 0 0 1 157.846 -73.2164C 156.23035084726018 -71.40679691564424 154.7189273425064 -69.9063602384262 153.36125135202 -68.67553760605647 C 152.79780295860905 -68.16475319946696 152.26105372741512 -67.70064641607594 151.75433974514905 -67.28018443336235 A 1.5 1.5 0 0 0 151.436 -65.5133A 165 165 0 0 1 151.664 -64.9854A 1.5 1.5 0 0 0 153.166 -64.002C 153.81940450505536 -64.08117356172158 154.52542101728153 -64.15213501633478 155.28369436591453 -64.21041306370464 C 157.11084999804885 -64.35080801894394 159.23952325656845 -64.41760166779632 161.66464285551672 -64.34781796188186 A 174 174 0 0 1 162.822 -61.3592C 161.07728527832418 -59.67379105583491 159.45917816817396 -58.289074256938974 158.01431039314207 -57.16188059116045 C 157.4146779601782 -56.69410313617763 156.8451190390983 -56.270904035286414 156.3087366247303 -55.88901236964269 A 1.5 1.5 0 0 0 155.861 -54.1504A 165 165 0 0 1 156.049 -53.6072A 1.5 1.5 0 0 0 157.474 -52.5156C 158.1319070125399 -52.54622719011099 158.84123619886088 -52.56485375742844 159.60174281554717 -52.566972254242124 C 161.4342773247421 -52.572043753678095 163.56207042546137 -52.481447100346685 165.97541374020787 -52.23275274982239 A 174 174 0 0 1 166.909 -49.1667C 165.04447143422206 -47.614867642453206 163.32851825859748 -46.353433564854505 161.80435006576826 -45.33602520659095 C 161.17180857766482 -44.913809541462015 160.57255070001906 -44.533829489806244 160.00942938829422 -44.192593901080954 A 1.5 1.5 0 0 0 159.435 -42.4918A 165 165 0 0 1 159.582 -41.9362A 1.5 1.5 0 0 0 160.923 -40.7423C 161.5807478795726 -40.72429154712603 162.2895156299479 -40.69048149529622 163.04810189126923 -40.636428871058776 C 164.87600660950642 -40.50614921592013 166.9912982843674 -40.258657067909084 169.3796844706058 -39.832410355077386 A 174 174 0 0 1 170.085 -36.7058C 168.11024191987767 -35.29588833349112 166.30581461998025 -34.16462649269201 164.7106704874847 -33.26256017358798 C 164.04867466650234 -32.88821229386347 163.42299077101282 -32.55352661071899 162.8362061352613 -32.25481080936695 A 1.5 1.5 0 0 0 162.138 -30.6011A 165 165 0 0 1 162.243 -30.0361A 1.5 1.5 0 0 0 163.492 -28.7465C 164.1470907332977 -28.679933945737424 164.85142600405533 -28.593871933539077 165.60394877490842 -28.483943404940185 C 167.41724032048228 -28.21902413752602 169.5084775798799 -27.815988211124527 171.85886210048548 -27.214517147720667 A 174 174 0 0 1 172.331 -24.0444C 170.2578525600205 -22.78413512206233 168.37480629203816 -21.7892240779478 166.71739834397732 -21.007426571427274 C 166.02956378172888 -20.682991035413046 165.38087113686336 -20.395427657921722 164.77362799128548 -20.140863126063774 A 1.5 1.5 0 0 0 163.955 -18.5433A 165 165 0 0 1 164.018 -17.9721A 1.5 1.5 0 0 0 165.169 -16.5937C 165.81691909898288 -16.47893649052296 166.51297505511735 -16.341092558822844 167.2553243170814 -16.175888517365607 C 169.04409912036797 -15.77777653484807 171.09986035157308 -15.221398072524728 173.39940622134077 -14.447987684923945 A 174 174 0 0 1 173.636 -11.2516C 171.47557385006436 -10.147942865487135 169.5241931597259 -9.294816477173267 167.81357358357016 -8.637557690111713 C 167.10365699391315 -8.364806452200451 166.43549853394975 -8.125935951811329 165.81111343003192 -7.916913032644733 A 1.5 1.5 0 0 0 164.876 -6.38416A 165 165 0 0 1 164.898 -5.80981A 1.5 1.5 0 0 0 165.943 -4.35028" stroke="#191919" stroke-width="0.35 px" style="stroke-width:0.35;stroke-miterlimit:4;stroke-dasharray:none;fill:none;fill-rule: evenodd "/>
<title>b'InvoluteGear'</title>
</g>
</svg>