<?xml version="1.0"?>
<!DOCTYPE svg PUBLIC "-//W3C//DTD SVG 1.1//EN" "http://www.w3.org/Graphics/SVG/1.1/DTD/svg11.dtd">
<svg width="616.0377961285932mm" height="616.0713594181792mm" viewBox="0 0 616.0377961285932 616.0713594181792" xmlns="http://www.w3.org/2000/svg" version="1.1">
<g id="InvoluteGear" transform="translate(308.002590,308.035680) scale(1,-1)">
<path id="InvoluteGear_w0000"  d="M 293.9661827432678 -4.459080998558424 C 294.6216105907043 -4.260376492420635 295.29826505791726 -4.047027503992158 295.9956477409919 -3.818007139110455 C 297.8523697516678 -3.208253438171986 299.8557078432681 -2.4875576828880925 301.995619524428 -1.636830312909674 A 302 302 0 0 1 301.996 1.63683C 299.8557078432681 2.4875576828880925 297.8523697516678 3.208253438171986 295.9956477409919 3.818007139110455 C 295.29826505791726 4.047027503992158 294.6216105907043 4.260376492420635 293.9661838659109 4.459080523167568 A 1.5 1.5 0 0 0 292.94 5.93603A 293 293 0 0 1 292.93 6.41858A 1.5 1.5 0 0 0 293.893 7.93748C 294.5393000540614 8.163636357734976 295.2063589342705 8.40532108873169 295.89346695244734 8.663537094316109 C 297.72283326952504 9.351021696818805 299.6940083962051 10.155530553761103 301.79615401904636 11.09571289860934 A 302 302 0 0 1 301.658 14.3665C 299.48427478442187 15.126223132755573 297.4523355899205 15.76182441562852 295.5715590696239 16.292763095174237 C 294.86514164261246 16.492180629502105 294.1800946553451 16.676814548646668 293.51687392005374 16.84771141721954 A 1.5 1.5 0 0 0 292.429 18.2801A 293 293 0 0 1 292.399 18.7618A 1.5 1.5 0 0 0 293.297 20.3199C 293.933309390547 20.573134560362167 294.5895866774061 20.842725327295206 295.26519837770354 21.12967787494749 C 297.0639564546303 21.893671056479544 298.999463938949 22.780562627691552 301.0601059652678 23.80852833751055 A 302 302 0 0 1 300.784 27.0706C 298.5803696140905 27.737994709894366 296.5234420304242 28.28737144447042 294.6219549525249 28.738551113026702 C 293.90775876598246 28.90801125970205 293.21553724720474 29.063601837192305 292.5457016836798 29.206387695195325 A 1.5 1.5 0 0 0 291.399 30.5916A 293 293 0 0 1 291.348 31.0716A 1.5 1.5 0 0 0 292.18 32.6662C 292.8047160294461 32.946054480516565 293.44904488588884 33.243071960840496 294.1119590553588 33.558250859402676 C 295.8769107659159 34.39739426796774 297.7733093461987 35.36509169260118 299.7887840296713 36.47901308187243 A 302 302 0 0 1 299.376 39.7265C 297.1455994426805 40.30044914468178 295.0673406120296 40.76262455917528 293.1485237511611 41.13324303575634 C 292.4278186198443 41.27244450082247 291.72965331415526 41.398715102289614 291.0543938655844 41.51313608167794 A 1.5 1.5 0 0 0 289.85 42.8488A 293 293 0 0 1 289.779 43.3262A 1.5 1.5 0 0 0 290.543 44.9545C 291.15552656856926 45.260397518105165 291.7867614014023 45.584313625579036 292.4357994028432 45.92715849847131 C 294.1638067272977 46.8399601677118 296.01772467607407 47.88674291505986 297.984448576264 49.08463947220359 A 302 302 0 0 1 297.435 52.3118C 295.18251523919764 52.79125085157448 293.0866202299211 53.16540321496462 291.1538851724386 53.45480155344408 C 290.4279524837702 53.56349684177601 289.72508470360526 53.66022296269861 289.0456019566457 53.746075627146475 A 1.5 1.5 0 0 0 287.786 55.0298A 293 293 0 0 1 287.695 55.5038A 1.5 1.5 0 0 0 288.389 57.1628C 288.988673206594 57.494269220594546 289.6056917033202 57.84450804419995 290.2396995708508 58.21440932574974 C 291.92769017524 59.19924632760864 293.7358312940521 60.323253256146785 295.6503076476364 61.60299516479923 A 302 302 0 0 1 294.965 64.8042C 292.6946072957169 65.18819164096455 290.5848025326557 65.47365572400317 288.6415856109601 65.68131938469621 C 287.911716046769 65.75931524003789 287.2053954653915 65.82632490490279 286.5228975155711 65.8834566115058 A 1.5 1.5 0 0 0 285.21 67.1129A 293 293 0 0 1 285.099 67.5826A 1.5 1.5 0 0 0 285.723 69.2695C 286.3080085297227 69.6259182105484 286.9097136539717 70.00185703843823 287.52756414474055 70.39815705766576 C 289.17253684336964 71.45327838789342 290.9316863232927 72.65251105432111 292.7905112611798 74.01182298007032 A 302 302 0 0 1 291.971 77.1813C 289.68629902177037 77.46923020453002 287.5663356608001 77.66549846249492 285.6160918436644 77.79105822699113 C 284.8835830854007 77.83821597555806 284.1750655150286 77.87539004362651 283.4907658187957 77.90369921429526 A 1.5 1.5 0 0 0 282.127 79.0767A 293 293 0 0 1 281.997 79.5414A 1.5 1.5 0 0 0 282.549 81.253C 283.11829866192556 81.63377485878301 283.70362060394456 82.03474528544041 284.30421520232613 82.45673943537366 C 285.903245293767 83.5802691267495 287.61027543122236 84.85259533914942 289.4101440305068 86.2890604749968 A 302 302 0 0 1 288.458 89.4211C 286.16293907968713 89.61253130387698 284.0365863382998 89.7192547789679 282.08278308806047 89.76248740658804 C 281.3489375095649 89.77872320362422 280.63948266858233 89.78599558075977 279.9545978858247 89.7854318828219 A 1.5 1.5 0 0 0 278.543 90.8999A 293 293 0 0 1 278.393 91.3586A 1.5 1.5 0 0 0 278.872 93.092C 279.42521479094535 93.49648963438055 279.99311286968157 93.92177874901952 280.5753837403974 94.36871673945976 C 282.12562820750094 95.55865719719347 283.77750396519883 96.90181480599098 285.51521612519366 98.41287916934591 A 302 302 0 0 1 284.432 101.502C 282.130791874866 101.59650459279628 280.0018303306388 101.61349353456919 278.04794143817475 101.57432215927903 C 277.3140637901056 101.55960713812982 276.6049330633298 101.53696489431134 275.9206808941975 101.50752933000118 A 1.5 1.5 0 0 0 274.463 102.562A 293 293 0 0 1 274.294 103.014A 1.5 1.5 0 0 0 274.7 104.766C 275.23532308513285 105.1929710633761 275.7847875985267 105.64182271747093 276.3476994852175 106.11290990898125 C 277.8464020498942 107.36714546236351 279.44018645301946 108.77874638234603 281.11265258491846 110.36172335591375 A 302 302 0 0 1 279.9 113.402C 277.59702641789215 113.39984300411145 275.46924128675846 113.32706720684786 273.51874069521716 113.2055614739232 C 272.7861357852513 113.15992179735919 272.0785899812361 113.1074051896699 271.39618700111566 113.0491500943466 A 1.5 1.5 0 0 0 269.896 114.041A 293 293 0 0 1 269.707 114.485A 1.5 1.5 0 0 0 270.039 116.253C 270.5560730190394 116.70242322862872 271.0861270392375 117.17403938031836 271.6286791051112 117.66843819706365 C 273.07317512889324 118.98473886105134 274.606034486939 120.46227331729672 276.2102810069931 122.11434842578582 A 302 302 0 0 1 274.87 125.101C 272.56970357829726 125.00156063286649 270.4468779845711 124.8391494892781 268.50323361282454 124.63552543147797 C 267.773203985757 124.55904224517857 267.06850109512146 124.47674464623044 266.38916059160846 124.38977359532761 A 1.5 1.5 0 0 0 264.848 125.317A 293 293 0 0 1 264.641 125.753A 1.5 1.5 0 0 0 264.899 127.533C 265.3957841285225 128.0043827442031 265.90548523882035 128.49792487718057 266.42671284610304 129.01475629610673 C 267.81443406777413 130.39078173615508 269.2836430127405 131.93162272631974 270.8168176291808 133.64985864047654 A 302 302 0 0 1 269.352 136.578C 267.05776175262804 136.38103004849904 264.9436700027466 136.12927231967228 263.01033757955855 135.84389197314061 C 262.2841812014252 135.73670126141994 261.5835741601922 135.62476899334064 260.9085039759107 135.5092366182129 A 1.5 1.5 0 0 0 259.33 136.371A 293 293 0 0 1 259.105 136.798A 1.5 1.5 0 0 0 259.287 138.587C 259.76363121891507 139.07875513852304 260.25207318933906 139.59334575288665 260.75104961436625 140.1316908665916 C 262.0795287162364 141.56499455968347 263.482475048235 143.1664025247169 264.9418518325436 144.94774428378958 A 302 302 0 0 1 263.355 147.811C 261.07100097230324 147.51801896965907 258.9694018442483 147.17736227164843 257.049818764114 146.81073303222695 C 256.32882671445554 146.67302537625875 255.63356117637701 146.53165745053616 254.96396156147944 146.38776916353044 A 1.5 1.5 0 0 0 253.35 147.182A 293 293 0 0 1 253.108 147.599A 1.5 1.5 0 0 0 253.214 149.395C 253.66962805255625 149.90585058160852 254.13594245110758 150.44057475402494 254.61178053200467 150.99947640454238 C 255.878655526711 152.487509989017 257.2128448583613 154.14663768399748 258.59582909187276 155.98791812734495 A 302 302 0 0 1 256.89 158.782C 254.62006547951526 158.39272623646707 252.53469553984286 157.96377624445003 250.63227475142742 157.516549965547 C 249.91772892779701 157.3485702045182 249.2290410496274 157.17801796816534 248.56610252779328 157.00602959740496 A 1.5 1.5 0 0 0 246.92 157.732A 293 293 0 0 1 246.66 158.138A 1.5 1.5 0 0 0 246.691 159.936C 247.12460954468725 160.46641889287503 247.56796728138258 161.0203259032794 248.01982099540652 161.59879038387064 C 249.22283942544044 163.1389081903177 250.4858996167994 164.85280574675016 251.79003240401573 166.75075114493796 A 302 302 0 0 1 249.968 169.47C 247.71642480215635 168.98581701625335 245.65099176251778 168.469336387662 243.76911570055796 167.94230822128074 C 243.06228653935406 167.74435501707637 242.38140078300847 167.54492170574548 241.72630203473702 167.34513904027733 A 1.5 1.5 0 0 0 240.052 168.001A 293 293 0 0 1 239.774 168.396A 1.5 1.5 0 0 0 239.729 170.194C 240.14021249936766 170.74168376725206 240.55982530033063 171.3137887891936 240.98689126806738 171.9107876111221 C 242.12391421056208 173.50025136628523 243.31359958670222 175.26587153685958 244.53656222711956 177.2171074122315 A 302 302 0 0 1 242.601 179.857C 240.3723533614162 179.2784571801852 238.3305294863821 178.6753641987293 236.4725440578407 178.06947118171672 C 235.77468827551766 177.84189648791 235.1028152310233 177.6139366867507 234.45672099798236 177.38671493286327 A 1.5 1.5 0 0 0 232.756 177.971A 293 293 0 0 1 232.462 178.354A 1.5 1.5 0 0 0 232.341 180.149C 232.72885491966252 180.71337615876817 233.12397672864589 181.30266201039575 233.52549564238976 181.91713373154235 C 234.59450151204686 183.5531174268692 235.7086968557847 185.36732100335496 236.8483149664579 187.36837812973107 A 302 302 0 0 1 234.803 189.925C 232.60090864830926 189.25234678966052 230.58632422621713 188.56371373265236 228.7555328613827 187.88003312068193 C 228.06789122005458 187.6232415567735 227.40622545316586 187.36716056999333 226.77028446732393 187.11290371967303 A 1.5 1.5 0 0 0 225.046 187.625A 293 293 0 0 1 224.737 187.996A 1.5 1.5 0 0 0 224.54 189.783C 224.9037139288857 190.36376676224836 225.27364223373235 190.96918571482257 225.6489002075073 191.60003782689103 C 226.64798835090178 193.27963274307325 227.68471266357645 195.13919413771717 228.73896004509285 197.18651470855133 A 302 302 0 0 1 226.588 199.654C 224.41590800793202 198.88975263293085 222.43214489636605 198.11680386481555 220.63180267547418 197.35655121706571 C 219.95559777688516 197.07099934908518 219.30531570518949 196.78725247933346 218.68065864641196 196.50641259198156 A 1.5 1.5 0 0 0 216.937 196.946A 293 293 0 0 1 216.612 197.303A 1.5 1.5 0 0 0 216.34 199.08C 216.67870234215601 199.6756975353714 217.02277942383964 200.29617317608813 217.37110926266263 200.94228404704486 C 218.29850333753527 202.66250392561494 219.25591336115198 204.56411690611833 220.22291560013994 206.65406086014852 A 302 302 0 0 1 217.97 209.029C 215.83190407272778 208.17353975410487 213.88248933010695 207.31764954958487 212.1157971959264 206.48217656751947 C 211.45223130770947 206.16837209626738 210.81448910899954 205.85746383512378 210.2022265947413 205.55054023381132 A 1.5 1.5 0 0 0 208.441 205.916A 293 293 0 0 1 208.102 206.259A 1.5 1.5 0 0 0 207.755 208.024C 208.06844392991914 208.632612205043 208.386058031945 209.26704135085603 208.70684041807414 209.92726221915103 C 209.56089155160325 211.6850485719409 210.43728504607884 213.62533213982 211.3153228478462 215.75418363296424 A 302 302 0 0 1 208.964 218.032C 206.86415888843726 217.0872019184743 204.95255850303388 216.14989201909924 203.2226575697074 215.24068414319146 C 202.57291048779624 214.89918500156605 201.94884204442823 214.56166813257286 201.35006265509634 214.22920651626242 A 1.5 1.5 0 0 0 199.575 214.52A 293 293 0 0 1 199.222 214.848A 1.5 1.5 0 0 0 198.801 216.597C 199.08824741741788 217.21858570384524 199.3788338335032 217.8658403628856 199.67149842756228 218.5389973799085 C 200.45068814799933 220.33122492692974 201.24450691768283 222.30672932880765 202.03201916306034 224.47070334079936 A 302 302 0 0 1 199.587 226.647C 197.52861677873807 225.6148909599973 195.65822950627737 224.59782786856306 193.96819547453507 223.61650163723652 C 193.33342242553013 223.2479149982493 192.72413730842223 222.88438961408258 192.1399056519197 222.52698108739543 A 1.5 1.5 0 0 0 190.354 222.743A 293 293 0 0 1 189.987 223.056A 1.5 1.5 0 0 0 189.493 224.785C 189.7540792663371 225.41835248422524 190.01712134443846 226.0772818613294 190.28114779945952 226.7621781784694 C 190.9840907359165 228.58566040454724 191.69392340000425 230.59287326568952 192.3895099209583 232.78812232970526 A 302 302 0 0 1 189.855 234.86C 187.84187599681937 233.74144495875905 186.0160273176157 232.64643697632647 184.36886500629163 231.59473715180894 C 183.75019459350926 231.19971834905314 183.15677608936505 230.81083078457988 182.5881309082567 230.42911080683353 A 1.5 1.5 0 0 0 180.795 230.569A 293 293 0 0 1 180.415 230.867A 1.5 1.5 0 0 0 179.849 232.574C 180.08253528701755 233.2173336600816 180.3175653479193 233.88676620286338 180.55248423450038 234.58218409946258 C 181.1779305800888 236.4336789197434 181.80251508200797 238.4690314889321 182.4049391510883 240.69165253224733 A 302 302 0 0 1 179.785 242.655C 177.821159214293 241.4524151983121 176.04309542066733 240.2814092091138 174.4417334242411 239.1612056753136 C 173.84026562109807 238.74045703780513 173.2637688063623 238.32689872092325 172.71172113102858 237.92154597630804 A 1.5 1.5 0 0 0 170.914 237.986A 293 293 0 0 1 170.522 238.267A 1.5 1.5 0 0 0 169.884 239.949C 170.09081113171078 240.60166292749193 170.2974113005416 241.28040840931988 170.50280494147526 241.98511145773597 C 171.0496426754171 243.86132698199592 171.58786852671625 245.92120047663923 172.09605905591235 248.167241760149 A 302 302 0 0 1 169.396 250.018C 167.48428289991233 248.734091854967 165.75716532440282 247.4891698649183 164.20445080606558 246.3024543028389 C 163.62125500036652 245.85672390630089 163.0627048653376 245.41923012860576 162.52823621639942 244.99096531950906 A 1.5 1.5 0 0 0 160.73 244.979A 293 293 0 0 1 160.326 245.244A 1.5 1.5 0 0 0 159.618 246.897C 159.79667172133685 247.55821121849516 159.974474670536 248.24506285467203 160.1499778834241 248.9577981186017 C 160.61723474818413 250.85539850410734 161.06814500294115 252.93613054430276 161.4811984480375 255.20159868856985 A 302 302 0 0 1 158.705 256.937C 156.84962564254062 255.57352837335853 155.17652503716877 254.25690380832677 153.67521866667093 253.00578615493075 C 153.11133175927577 252.53586649174218 152.5717213857107 252.07521510120512 152.05578202892147 251.62479966682886 A 1.5 1.5 0 0 0 150.259 251.538A 293 293 0 0 1 149.845 251.785A 1.5 1.5 0 0 0 149.067 253.407C 149.21841966010325 254.07461004409524 149.3671092625156 254.7683466374772 149.51241000905028 255.48784689963102 C 149.89925523897458 257.4034582821461 150.26204819521158 259.5013494022583 150.57923016225635 261.7822164875959 A 302 302 0 0 1 147.733 263.399C 145.93609547469075 261.95856448494857 144.31998655127646 260.57257825536277 142.87275759655753 259.25928295218085 C 142.32918215780973 258.76600952235407 141.80947095326067 258.2830195403369 141.3129782099686 257.8112543028864 A 1.5 1.5 0 0 0 139.522 257.648A 293 293 0 0 1 139.097 257.878A 1.5 1.5 0 0 0 138.252 259.465C 138.3748626941427 260.1392734849833 138.49417458508137 260.8386615972238 138.6090145258377 261.5636476123924 C 138.91476032422457 263.4938641047852 139.18879094930477 265.60518433096104 139.4095375003355 267.89739505892715 A 302 302 0 0 1 136.497 269.393C 134.7630962547337 267.87784782854 133.20685239596617 266.4249641673375 131.8162739772939 265.0518262054926 C 131.29397646448686 264.53607603118485 130.79508845650966 264.03160619624987 130.31892507269382 263.5393299371012 A 1.5 1.5 0 0 0 128.536 263.301A 293 293 0 0 1 128.102 263.512A 1.5 1.5 0 0 0 127.191 265.063C 127.28528027202677 265.74141879087904 127.37500231930363 266.4452149354374 127.45917727305785 267.1743977049427 C 127.68328003503541 269.1157874527292 127.86806111250758 271.23678293465485 127.9919797682122 273.5362618382248 A 302 302 0 0 1 125.019 274.908C 123.35049316754632 273.3208541343601 121.85688131821436 271.8036562156705 120.52542583327083 270.3731169843489 C 120.02533487232208 269.8358070505488 119.54815706558904 269.31075429165287 119.0931696423692 268.79884226003 A 1.5 1.5 0 0 0 117.322 268.486A 293 293 0 0 1 116.88 268.679A 1.5 1.5 0 0 0 115.904 270.189C 115.96938926660962 270.87108555186785 116.02936194769889 271.57803840488265 116.082722254455 272.31012146837054 C 116.22478353349061 274.25923275142634 116.31998652934223 276.38613243653646 116.3468569668731 278.6887911261347 A 302 302 0 0 1 113.319 279.934C 111.71857740493729 278.277905935829 110.29025315240267 276.69909128218455 109.02028788045124 275.21369422793475 C 108.54329261483953 274.6557798520966 108.08867341407736 274.11107769388434 107.65567090248817 273.5804400506985 A 1.5 1.5 0 0 0 105.899 273.193A 293 293 0 0 1 105.449 273.367A 1.5 1.5 0 0 0 104.411 274.835C 104.44730891914806 275.5191534076457 104.47742560481134 276.22800603274305 104.4998763918912 276.9616877732426 C 104.55964360821498 278.9150551428353 104.56509925499367 281.0440774811068 104.49487369969346 283.345821913614 A 302 302 0 0 1 101.417 284.462C 99.888030088649 282.7401897757413 98.52753294130888 281.1025654619806 97.32131583425823 279.56495156655853 C 96.86826434415883 278.9874247000825 96.43701204571606 278.4240416031133 96.02676430842153 277.8756218027294 A 1.5 1.5 0 0 0 94.2884 277.414A 293 293 0 0 1 93.8313 277.569A 1.5 1.5 0 0 0 92.7317 278.993C 92.73952506802456 279.67735826318693 92.73973221189378 280.3868503462675 92.73123356261728 281.12082630441836 C 92.70860045229968 283.0749767446491 92.62429905006458 285.20233641205897 92.45710236040783 287.4990741698717 A 302 302 0 0 1 89.3352 288.484C 87.8798855000776 286.69977187627177 86.58963437221131 285.0062495386628 85.4493100400593 283.41915262346237 C 85.0210078344884 282.8230400880414 84.61388918921398 282.24197772690223 84.22712563171986 281.6767508397119 A 1.5 1.5 0 0 0 82.5098 281.143A 293 293 0 0 1 82.0465 281.278A 1.5 1.5 0 0 0 80.8879 282.654C 80.86685372567422 283.3383069820037 80.83715095945516 284.0471770720355 80.79771798411056 284.78014226536897 C 80.69272478799577 286.7316013680678 80.51881622156364 288.853515996761 80.25494566716307 291.1411635639609 A 302 302 0 0 1 77.0943 291.994C 75.71549368208835 290.14961224494283 74.49778259311607 288.40320290440013 73.42537849091141 286.7694447698187 C 73.0225870755605 286.15580643178674 72.6403259255487 285.55809791415095 72.27773419934606 284.9770688929327 A 1.5 1.5 0 0 0 70.5844 284.371A 293 293 0 0 1 70.1159 284.487A 1.5 1.5 0 0 0 68.9003 285.812C 68.85040406847419 286.4954905308731 68.79084420260122 287.2024782827047 68.72054701157965 287.93312952585524 C 68.53338040373886 289.8784276679522 68.27017387619438 291.9911245711541 67.91009860926626 294.26561459384965 A 302 302 0 0 1 64.7163 294.984C 63.41648247941825 293.0835771914739 62.27347647521826 291.28738590007333 61.27089929831941 289.60987130845325 C 60.89433482162588 288.979798194382 60.5376108132516 288.36650622418176 60.199835593197555 287.7707081173319 A 1.5 1.5 0 0 0 58.5336 287.094A 293 293 0 0 1 58.0606 287.19A 1.5 1.5 0 0 0 56.7902 288.463C 56.71154090539862 289.1432955526603 56.622229835139734 289.8471439678691 56.5211934142815 290.57418218959 C 56.25218617011316 292.50986070197825 55.900149653057085 294.6095835816935 55.44450987428582 296.86687209962747 A 302 302 0 0 1 52.2233 297.45C 51.00471908515782 295.49645023325945 49.93845038869385 293.65367055356853 49.00748268273429 291.93538206463626 C 48.657814662595754 291.2899944215292 48.32726203812794 290.6622094095066 48.01490387623732 290.05270152431666 A 1.5 1.5 0 0 0 46.3787 289.306A 293 293 0 0 1 45.902 289.382A 1.5 1.5 0 0 0 44.5791 290.601C 44.471846692167915 291.27701434666295 44.35294320934683 291.97647200845216 44.22134719772107 292.6986045613171 C 43.870977602288455 294.6212218782403 43.43073700380124 296.704237503814 42.8803428240858 298.94031114037665 A 302 302 0 0 1 39.6374 299.388C 38.50227116167957 297.38394137008396 37.5146355597826 295.49784969712465 36.65693255136971 293.741842365108 C 36.33478268476553 293.08228766864244 36.030989154707626 292.4411257936392 35.744603412393374 291.8189918128862 A 1.5 1.5 0 0 0 34.1413 291.004A 293 293 0 0 1 33.6619 291.06A 1.5 1.5 0 0 0 32.2888 292.222C 32.15308315842986 292.89285323873105 32.00479866909988 293.5866765369035 31.842877039612933 294.3026194955861 C 31.41176803727066 296.20875727361687 30.884106089070723 298.2713621192823 30.239936089177107 300.4822452171489 A 302 302 0 0 1 26.981 300.792C 25.931367605139418 298.74269471158647 25.02412107786781 296.8166444475242 24.241207731650395 295.0260403893775 C 23.94714878928717 294.3534913037346 23.67065448744929 293.70009252816646 23.410750348110174 293.06643858336474 A 1.5 1.5 0 0 0 21.8432 292.185A 293 293 0 0 1 21.3619 292.22A 1.5 1.5 0 0 0 19.941 293.323C 19.777152616198773 293.98793932628143 19.599750764770576 294.67489466833257 19.407791408170667 295.3833751123793 C 18.89670949499245 297.26964430810904 18.282564360767715 299.3081711377213 17.54576385144803 301.4899328274255 A 302 302 0 0 1 14.2767 301.662C 13.314359023310882 299.5702944439108 12.489114621881985 297.6077100358277 11.782382929218748 295.78569288022186 C 11.516937737164909 295.10134517313253 11.268234260325606 294.436871216178 11.035273824036683 293.79282392091744 A 1.5 1.5 0 0 0 9.50631 292.846A 293 293 0 0 1 9.02389 292.861A 1.5 1.5 0 0 0 7.55784 293.903C 7.366059018343835 294.56032558621337 7.159855218835336 295.2391915906141 6.9381994318533255 295.93894986765 C 6.348053292829876 297.80199676328425 5.648516900216993 299.81282115053216 4.820395885888749 301.9615823394089 A 302 302 0 0 1 1.54692 301.996C 0.6736779970198853 299.86526912493446 -0.06809702413621577 297.86963997628743 -0.6973905200864791 296.01944920323416 C -0.9337500099663512 295.3245196199478 -1.1542204761011958 294.6501518920537 -1.3598230141856278 293.996856338922 A 1.5 1.5 0 0 0 -2.84751 292.986A 293 293 0 0 1 -3.33014 292.981A 1.5 1.5 0 0 0 -4.8388 293.96C -5.058131163636012 294.6089943366448 -5.292770288394285 295.27856400441317 -5.54372840985803 295.968355969758 C -6.211889516427734 297.80486813590454 -6.995573417250885 299.7844149084086 -7.913542567644838 301.89635517747877 A 302 302 0 0 1 -11.1856 301.793C -11.96820080416521 299.6270943004391 -12.6251875961305 297.601968567028 -13.175924034496802 295.72689374820277 C -13.382777583655171 295.02261784815835 -13.574623050642398 294.33955535053514 -13.752502136712682 293.67817307518504 A 1.5 1.5 0 0 0 -15.1963 292.606A 293 293 0 0 1 -15.6782 292.58A 1.5 1.5 0 0 0 -17.2268 293.495C -17.473328172993394 294.1338590463135 -17.73598544320031 294.7929419070148 -18.015799704764042 295.47154113572674 C -18.760787812815728 297.278253320774 -19.627225860472464 299.2230029166124 -20.633411031282183 301.2943673131486 A 302 302 0 0 1 -23.8982 301.053C -24.5888005810762 298.8561934365709 -25.15983104530998 296.8051717180468 -25.63103123680294 294.90854666805046 C -25.808011067178104 294.19617662809696 -25.97089044077843 293.5056338209385 -26.120729812310877 292.8373407369198 A 1.5 1.5 0 0 0 -27.518 291.705A 293 293 0 0 1 -27.9985 291.659A 1.5 1.5 0 0 0 -29.5843 292.508C -29.857458242513466 293.1357644884267 -30.14766666312775 293.78318871678647 -30.455839565245668 294.449388684201 C -31.276330113110077 296.22308861981634 -32.223981812370596 298.12958334517737 -33.3165940430811 300.1566890588728 A 302 302 0 0 1 -36.5683 299.778C -37.16568236787327 297.55393716693345 -37.64974123304877 295.4806661050639 -38.04056740092341 293.5658629540217 C -38.1873588488355 292.8466653420938 -38.32098253546662 292.1498699853112 -38.44251578352673 291.4758542933393 A 1.5 1.5 0 0 0 -39.7908 290.286A 293 293 0 0 1 -40.2689 290.22A 1.5 1.5 0 0 0 -41.8891 291.001C -42.18850284086669 291.6164852386846 -42.50574643190706 292.2510997380514 -42.84173005440537 292.9037159649381 C -43.73626423983056 294.6412500773636 -44.76344470055623 296.5061002541993 -45.940541366494024 298.4853431650703 A 302 302 0 0 1 -49.1734 297.97C -49.67648492770768 295.72264085565087 -50.072711554827364 293.63080665072397 -50.38246882441964 291.7012298487616 C -50.498810900031124 290.97648337196756 -50.60294132165453 290.27467434227697 -50.69595236456237 289.59613441765526 A 1.5 1.5 0 0 0 -51.9928 288.35A 293 293 0 0 1 -52.4678 288.264A 1.5 1.5 0 0 0 -54.1194 288.976C -54.44453782075421 289.57872252015034 -54.78825253469298 290.19939896910324 -55.15144951095191 290.83727112762665 C -56.11843688480045 292.53555014461824 -57.22331981761701 294.3554401373682 -58.48280808386585 296.28330122374774 A 302 302 0 0 1 -61.691 295.632C -62.09896451018497 293.3655604807351 -62.40665442276532 291.25888233762987 -62.63479205695386 289.31796260188514 C -62.720477908299976 288.58895583301256 -62.79492992482606 287.88338092125764 -62.85925339234159 287.2015231832102 A 1.5 1.5 0 0 0 -64.1025 285.902A 293 293 0 0 1 -64.5733 285.796A 1.5 1.5 0 0 0 -66.2535 286.438C -66.60377239924128 287.0260994005734 -66.97334712386024 287.6317342590364 -67.36311170291017 288.2537282357765 C -68.40083299691963 289.9097326792174 -69.58145396029302 291.6814267898878 -70.92109450267803 293.5544783851177 A 302 302 0 0 1 -74.099 292.768C -74.41103439994104 290.48688684507573 -74.62964053654602 288.3691103606517 -74.77575291494267 286.42029857558475 C -74.83063019570665 285.68832766206503 -74.87527143416702 284.98024135469035 -74.91079296151234 284.2962781213924 A 1.5 1.5 0 0 0 -76.0981 282.945A 293 293 0 0 1 -76.5641 282.82A 1.5 1.5 0 0 0 -78.2698 283.39C -78.6445879009744 283.9631543507074 -79.03936554590007 284.5526708220037 -79.45500474054313 285.1576807343683 C -80.5616149241223 286.7684662887906 -81.81587481706407 288.488814509907 -83.2332858035884 290.3037263966043 A 302 302 0 0 1 -86.3752 289.384C -86.59080418601636 287.0917381253456 -86.71993787291268 284.966628628908 -86.78376521304074 283.01338971075467 C -86.80773635342001 282.2797560701602 -86.82248744332178 281.57041731878013 -86.82914387451757 280.8855646519005 A 1.5 1.5 0 0 0 -87.9585 279.486A 293 293 0 0 1 -88.4187 279.341A 1.5 1.5 0 0 0 -90.147 279.838C -90.54557619539693 280.39533317507505 -90.96485486038327 280.9676831204319 -91.4056296792993 281.5546332828754 C -92.57916123992533 283.1173360303457 -93.90483003411754 284.7832796455518 -95.39749135977273 286.5368249766135 A 302 302 0 0 1 -98.4979 285.486C -98.61661868220762 283.1861507720692 -98.65605032441246 281.05748663075104 -98.63747914359041 279.10329336702824 C -98.63050152377218 278.36930137319956 -98.6153362382158 277.6599713562281 -98.59311573837033 276.9754468988162 A 1.5 1.5 0 0 0 -99.6624 275.529A 293 293 0 0 1 -100.116 275.365A 1.5 1.5 0 0 0 -101.864 275.789C -102.28557775962439 276.32897932952596 -102.72861198250577 276.8831451316273 -103.19373874415193 277.4509919681806 C -104.43210518553575 278.96283348024156 -105.82682589023995 280.5714105025847 -107.39208365766068 282.2604715384043 A 302 302 0 0 1 -110.445 281.08C -110.46709642919885 278.777068777034 -110.41675591869135 276.64863467799717 -110.31581923580099 274.69696155301347 C -110.27790526173867 273.96391621693 -110.2328505640484 273.2558560972517 -110.1817926403995 272.57287690881253 A 1.5 1.5 0 0 0 -111.189 271.083A 293 293 0 0 1 -111.636 270.899A 1.5 1.5 0 0 0 -113.4 271.25C -113.84371929930346 271.7713226428042 -114.30972138139926 272.30631901507707 -114.79837310736721 272.854052914787 C -116.09937265916773 274.31234519240195 -117.56066551186852 275.8606956306382 -119.19573674986529 277.48226928233294 A 302 302 0 0 1 -122.197 276.174C -122.1211677100154 273.87233132712646 -121.98114455038618 271.7479115485262 -121.7980218271662 269.8022285658753 C -121.72923890852205 269.07143321539354 -121.65437490430624 268.365901898062 -121.57457033597885 267.68568229066864 A 1.5 1.5 0 0 0 -122.518 266.155A 293 293 0 0 1 -122.957 265.952A 1.5 1.5 0 0 0 -124.734 266.228C -125.19945086056784 266.730466462176 -125.68759226718191 267.2453422005941 -126.19890015253529 267.77198931257556 C -127.56021968502677 269.17413956529236 -129.08548656035902 270.65951050884655 -130.78746417193932 272.21071367763983 A 302 302 0 0 1 -133.73 270.777C -133.55811201121202 268.480658866544 -133.328655158529 266.3640305492201 -133.06367198049858 264.42779706224144 C -132.96414241079185 263.7005510248257 -132.859602205518 262.9988029187762 -132.75119288212235 262.3225522980672 A 1.5 1.5 0 0 0 -133.629 260.753A 293 293 0 0 1 -134.059 260.533A 1.5 1.5 0 0 0 -135.846 260.733C -136.3325823671066 261.2153732459747 -136.84199520063171 261.70921292026446 -137.3750501586095 262.21383688517125 C -138.79426929534185 263.5573521410092 -140.38079832446277 264.9771026545493 -142.14665625554352 266.4551773578151 A 302 302 0 0 1 -145.027 264.899C -144.7575948631898 262.6116375921632 -144.4391122833635 260.50656402402166 -144.0927397809432 258.5832225851961 C -143.9626405201167 257.8608188777614 -143.82860998245476 257.16410166551765 -143.69178865181163 256.49302238041827 A 1.5 1.5 0 0 0 -144.503 254.888A 293 293 0 0 1 -144.923 254.65A 1.5 1.5 0 0 0 -146.717 254.775C -147.22331951738227 255.23584862867622 -147.75309806039047 255.7077742099185 -148.30695233873013 256.18947782475624 C -149.7815477598698 257.4719693626194 -151.42651815206284 258.82357518154333 -153.25311677168403 260.2258934563986 A 302 302 0 0 1 -156.065 258.549C -155.69970399414052 256.27570240963155 -155.2927619375755 254.18592633465624 -154.86561594843437 252.27889657487341 C -154.70517830822615 251.56261960484903 -154.54189573958092 250.87217202418893 -154.3769056650232 250.20745722917843 A 1.5 1.5 0 0 0 -155.12 248.57A 293 293 0 0 1 -155.529 248.314A 1.5 1.5 0 0 0 -157.327 248.363C -157.85229897817757 248.80252398683942 -158.40150130375253 249.25169640857274 -158.97517016975902 249.7096232218931 C -160.50252009845963 250.92881081862907 -162.2030071563974 252.20986883711495 -164.08709883887144 253.53393741284177 A 302 302 0 0 1 -166.826 251.74C -166.3649847333399 249.48411838048654 -165.87030672816218 247.4133553442764 -165.3631467022811 245.52602789285604 C -165.17265593496063 244.81715117455548 -164.9804116457805 244.134200816081 -164.78754617363975 243.47703234980744 A 1.5 1.5 0 0 0 -165.461 241.809A 293 293 0 0 1 -165.859 241.536A 1.5 1.5 0 0 0 -167.657 241.51C -168.20062281189468 241.92683753690596 -168.76827245834363 242.3524581869561 -169.36073594970807 242.78579402159616 C -170.938124813534 243.93951000614982 -172.69110513328337 245.1477425497904 -174.62934003235492 246.39120728078038 A 302 302 0 0 1 -177.29 244.484C -176.73447460084196 242.24896069328634 -176.15294016649244 240.20089243695145 -175.56666781588964 238.33662289322788 C -175.34646260708962 237.63640678358726 -175.12559840070514 236.96216790811292 -174.9052004387526 236.31371419212726 A 1.5 1.5 0 0 0 -175.508 234.619A 293 293 0 0 1 -175.894 234.33A 1.5 1.5 0 0 0 -177.689 234.227C -178.2498920763985 234.62101399846958 -178.8349797833653 235.02232613885295 -179.44518452162083 235.43030053951236 C -181.06980778073586 236.51649364696573 -182.87216462725982 237.6497525223905 -184.8610966320104 238.8104025737297 A 302 302 0 0 1 -187.439 236.793C -186.7897370220759 234.58309319436637 -186.12238010555694 232.56136110852634 -185.45803780107696 230.72346407571553 C -185.20850966762262 230.03315353342478 -184.9594182325328 229.3688249130661 -184.71187964030182 228.7302388744114 A 1.5 1.5 0 0 0 -185.242 227.012A 293 293 0 0 1 -185.616 226.706A 1.5 1.5 0 0 0 -187.406 226.528C -187.9822395376649 226.89804285916998 -188.58372504055816 227.27433297154607 -189.21058610394837 227.65622057462872 C -190.87955523748516 228.67295959327515 -192.728084086084 229.7292299075596 -194.7641769479913 230.8050016858124 A 302 302 0 0 1 -197.255 228.68C -196.51289410740358 226.50014551638907 -195.7609012449589 224.50834416691345 -195.01967016297525 222.70008735886933 C -194.74126275678188 222.02090973088116 -194.4643869684682 221.36767251768183 -194.19014786054234 220.7400895390308 A 1.5 1.5 0 0 0 -194.648 219.001A 293 293 0 0 1 -195.008 218.68A 1.5 1.5 0 0 0 -196.789 218.427C -197.38036143707046 218.77165527985835 -197.99717531661602 219.12225433413928 -198.63957816904625 219.47737615742315 C -200.3499258107911 220.42285336239138 -202.24134004463042 221.4002571054632 -204.32097366488904 222.38923792766602 A 302 302 0 0 1 -206.72 220.161C -205.8866584383547 218.01448884535472 -205.05136664585115 216.05615958235603 -204.23456466817785 214.28075801369457 C -203.92777298745378 213.61392085304632 -203.62360512096382 212.9729364789328 -203.3231530844692 212.3574723799192 A 1.5 1.5 0 0 0 -203.707 210.6A 293 293 0 0 1 -204.054 210.265A 1.5 1.5 0 0 0 -205.822 209.937C -206.4275482568436 210.25629968109462 -207.05859384047304 210.58058432495636 -207.71539631311487 210.90830897479904 C -209.46408152737644 211.78084334212195 -211.39501828097184 212.67764272579433 -213.5144951468971 213.57807422013616 A 302 302 0 0 1 -215.817 211.251C -214.89436380402537 209.1412103691576 -213.97725819978785 207.2198350306001 -213.0863375705336 205.48044530052064 C -212.75170707969139 204.82713421934903 -212.42078793439177 204.1995423311471 -212.09465716208481 203.59729138447875 A 1.5 1.5 0 0 0 -212.404 201.826A 293 293 0 0 1 -212.736 201.475A 1.5 1.5 0 0 0 -214.489 201.073C -215.1077144289778 201.36711605438234 -215.75186974067216 201.66450972156218 -216.42190406269793 201.96425451549592 C -218.2058177509801 202.76229471090977 -220.17284388924938 203.57689525860553 -222.32839564831974 204.38717649074886 A 302 302 0 0 1 -224.531 201.965C -223.51999483299383 199.89608645311552 -222.52270599731867 198.01508117423447 -221.55925074084996 196.31479585420155 C -221.19737640069062 195.6761724157676 -220.84029433874545 195.06308884895168 -220.48906467923788 194.47512183483389 A 1.5 1.5 0 0 0 -220.723 192.692A 293 293 0 0 1 -221.041 192.328A 1.5 1.5 0 0 0 -222.775 191.852C -223.4054269347846 192.11990904381668 -224.06154668990686 192.38988297922714 -224.7436215647436 192.66111498194695 C -226.5595919936089 193.38324211910725 -228.55921021586093 194.11419550077972 -230.74700437571133 194.8328858202634 A 302 302 0 0 1 -232.845 192.32C -231.74821546806592 190.29555459016882 -230.67251654410884 188.45826372970652 -229.63823964871233 186.80010586497062 C -229.24976485860677 186.1773055184426 -228.86715475889122 185.57982031322126 -228.4914506857002 185.0071826155484 A 1.5 1.5 0 0 0 -228.65 183.216A 293 293 0 0 1 -228.952 182.839A 1.5 1.5 0 0 0 -230.665 182.29C -231.30593274423677 182.53111984600423 -231.97285038580614 182.77319404584037 -232.6657531092173 183.01543101674346 C -234.5105515495135 183.6603611799529 -236.53920660752118 184.3063677871642 -238.75535334997457 184.93218938882737 A 302 302 0 0 1 -240.746 182.333C -239.56439623322467 180.3566841756178 -238.41219977441708 178.56637436967586 -237.30894014666882 176.95329210440931 C -236.89455560061728 176.34742216607552 -236.487097729926 175.76659762933963 -236.0875872311831 175.2103073770409 A 1.5 1.5 0 0 0 -236.171 173.414A 293 293 0 0 1 -236.456 173.024A 1.5 1.5 0 0 0 -238.144 172.404C -238.7951850463187 172.61779697821478 -239.47171481910624 172.83154104338328 -240.17421343533576 173.04435229397535 C -242.0445599027582 173.61093882093917 -244.09864492186014 174.17085007751638 -246.3392040188823 174.70269027338938 A 302 302 0 0 1 -248.218 172.022C -246.95464024430592 170.09714615835998 -245.72799481390436 168.35700051243958 -244.5577140091613 166.79186184804382 C -244.1181564677645 166.2039995325446 -243.68657527132223 165.64086834912442 -243.26396866211488 165.10191460596766 A 1.5 1.5 0 0 0 -243.271 163.303A 293 293 0 0 1 -243.54 162.902A 1.5 1.5 0 0 0 -245.201 162.212C -245.85986822374232 162.3975659667405 -246.54480728250067 162.58259986809364 -247.2556527746451 162.76560702773727 C -249.14822186142933 163.25284254828696 -251.22408475342127 163.72566295244877 -253.48507257270242 164.16257615007177 A 302 302 0 0 1 -255.25 161.405C -253.90580791714984 159.53518162258894 -252.60689444596565 157.84829405214535 -251.3716731807915 156.3338817480491 C -250.9077241613173 155.76507225312847 -250.45278697474166 155.2206356497178 -250.00783563419878 154.69997665579032 A 1.5 1.5 0 0 0 -249.939 152.903A 293 293 0 0 1 -250.191 152.491A 1.5 1.5 0 0 0 -251.821 151.731C -252.4874215276298 151.88859800935273 -253.17955207570796 152.04459276336632 -253.89748058642323 152.19747045201012 C -255.80890737379846 152.60448867917086 -257.9028573302129 152.98937757349327 -260.18025391792065 153.33058695714521 A 302 302 0 0 1 -261.827 150.501C -260.40554032930334 148.68956935581124 -259.03666823808703 147.0589390853852 -257.73870269081436 145.59794571139957 C -257.2511870776884 145.04920035958202 -256.7737027626951 144.52442632459355 -256.30719779806265 144.0229877925862 A 1.5 1.5 0 0 0 -256.163 142.23A 293 293 0 0 1 -256.397 141.808A 1.5 1.5 0 0 0 -257.994 140.98C -258.6660614100662 141.10957766757573 -259.36415286460766 141.23625592126993 -260.0878879432011 141.35873232796246 C -262.01477398409304 141.6848095981797 -264.12308803832207 141.98108266425436 -266.41284426643244 142.22598157610284 A 302 302 0 0 1 -267.939 139.33C -266.44228119373236 137.57959246084823 -265.00588428710785 136.00811869155388 -263.64748219311304 134.60314184058188 C -263.1372667713046 134.07543628107751 -262.63808427758084 133.5712578435949 -262.1508551176617 133.08993131291854 A 1.5 1.5 0 0 0 -261.931 131.305A 293 293 0 0 1 -262.147 130.873A 1.5 1.5 0 0 0 -263.707 129.978C -264.3848024748177 130.07966964621863 -265.08761365469167 130.1768061702812 -265.81586852660473 130.2686635364409 C -267.7547878879506 130.51322009622768 -269.8737175345444 130.720350571355 -272.17176230004407 130.86850359007187 A 302 302 0 0 1 -273.574 127.911C -272.0052974054787 126.22500407118282 -270.50392954472744 124.7154808260342 -269.0875060933615 123.36901849564501 C -268.5554980072713 122.86329096968106 -268.0355048630742 122.38060454056716 -267.5284177835343 121.9202457922283 A 1.5 1.5 0 0 0 -267.234 120.146A 293 293 0 0 1 -267.431 119.706A 1.5 1.5 0 0 0 -268.952 118.746C -269.6334770089652 118.81848471922872 -270.33975834154154 118.88590680846465 -271.07123819618823 118.94698181504667 C -273.0187435501205 119.10958285176432 -275.14452140949373 119.22720246551836 -277.44676887265194 119.27834618044285 A 302 302 0 0 1 -278.723 116.264C -277.0846981247291 114.64599223060873 -275.5210286871182 113.20110338684864 -274.04910222758804 111.91554953792921 C -273.49624736817856 111.43269921059135 -272.95636810234237 110.97236298870247 -272.430324685504 110.53379052375575 A 1.5 1.5 0 0 0 -272.061 108.774A 293 293 0 0 1 -272.24 108.325A 1.5 1.5 0 0 0 -273.719 107.302C -274.4027530607269 107.34604486245159 -275.1112488035707 107.3836326428467 -275.84465309646333 107.4138167007181 C -277.7972818495331 107.49417311565713 -279.9261283662276 107.52207274465692 -282.228485215071 107.47611622413032 A 302 302 0 0 1 -283.377 104.411C -281.67145236236735 102.86314399962538 -280.0482614950938 101.48545851688971 -278.52344905892943 100.2630988172697 C -277.9507303819654 99.80398417881928 -277.39192488012304 99.36681662515885 -276.84786041198436 98.95081020944215 A 1.5 1.5 0 0 0 -276.405 97.2077A 293 293 0 0 1 -276.565 96.7522A 1.5 1.5 0 0 0 -277.999 95.6677C -278.684151031328 95.68274765528903 -279.3936015048635 95.69043429714145 -280.12762626993344 95.68967374014888 C -282.08190671947506 95.68764266253596 -284.21003688207225 95.6257727022593 -286.5084096101434 95.482797655298 A 302 302 0 0 1 -287.527 92.3715C -285.7574050367433 90.89740885239618 -284.0775787139341 89.58937620519735 -282.502591362002 88.4323839658151 C -281.9110271403908 87.9978213053248 -281.334288938332 87.5845996878497 -280.7731707456629 87.19189896558882 A 1.5 1.5 0 0 0 -280.257 85.469A 293 293 0 0 1 -280.398 85.0072A 1.5 1.5 0 0 0 -281.785 83.8632C -282.47005875141787 83.84933001454645 -283.17920257859316 83.82710185128748 -283.9125427465949 83.79539803167349 C -285.8650002532865 83.71098307269054 -287.98863032401925 83.55945352566893 -290.2789325084822 83.31971415668885 A 302 302 0 0 1 -291.165 80.1683C -289.3352914731107 78.77006142934711 -287.6018163646658 77.53400725199779 -285.97945436700184 76.44443956283281 C -285.37009638034147 76.03520151685449 -284.7764508975426 75.64666052852085 -284.19927662801274 75.27796370726918 A 1.5 1.5 0 0 0 -283.611 73.5784A 293 293 0 0 1 -283.732 73.1111A 1.5 1.5 0 0 0 -285.07 71.9096C -285.75374501522924 71.86683132495202 -286.46132136419845 71.81472787744475 -287.1926730830751 71.75213716344366 C -289.1398362487209 71.58548840980717 -291.25519049082095 71.34456869004548 -293.5333500579718 71.00849124689586 A 302 302 0 0 1 -294.286 67.8225C -292.3987503199535 66.50266371163288 -290.614708481356 65.34078566335307 -288.94785633838706 64.32057973599508 C -288.32178800294054 63.937393914840165 -287.71229071940616 63.574224367346254 -287.1200865678039 63.23018697659707 A 1.5 1.5 0 0 0 -286.461 61.5569A 293 293 0 0 1 -286.562 61.0849A 1.5 1.5 0 0 0 -287.848 59.8281C -288.52937154841675 59.75655603189867 -289.23412237425293 59.67466993817137 -289.9621853273375 59.581303613788535 C -291.9005921668869 59.33271736090096 -294.0039095577075 59.00283581486903 -296.2658760229727 58.571017830979294 A 302 302 0 0 1 -296.883 55.3561C -294.9423348592368 54.11702668472161 -293.11089825177066 53.03139054228072 -291.4025195657785 52.0823602656382 C -290.7608540081992 51.72590795971309 -290.136588587857 51.388755555261184 -289.53040747155256 51.06998928094031 A 1.5 1.5 0 0 0 -288.801 49.426A 293 293 0 0 1 -288.882 48.9502A 1.5 1.5 0 0 0 -290.114 47.6402C -290.7920033882953 47.54003576291683 -291.4926756697487 47.42851261345587 -292.21615538767975 47.304536680608834 C -294.1423594845103 46.97445490575615 -296.2299004024869 46.55619805080446 -298.4716520720372 46.029407282791645 A 302 302 0 0 1 -298.953 42.7913C -296.96152269047286 41.63517155925775 -295.0859475415916 40.627707544098925 -293.339079747536 39.75154025937077 C -292.6829578257689 39.422455227867395 -292.045034189755 39.11191941112891 -291.4259538766518 38.81899100803933 A 1.5 1.5 0 0 0 -290.628 37.2072A 293 293 0 0 1 -290.689 36.7284A 1.5 1.5 0 0 0 -291.865 35.3676C -292.5376176580238 35.238991045227486 -293.2329656253475 35.098029124122796 -293.95057578758866 34.94366400749591 C -295.86115242110907 34.53267358402812 -297.9292052946702 34.02678506558132 -300.1467564158454 33.40595812820677 A 302 302 0 0 1 -300.491 30.1505C -298.4527237713839 29.07929061815425 -296.5363447852568 28.151789964531044 -294.7540937503272 27.350043465175528 C -294.0846820252054 27.048910809270588 -293.4342343784647 26.765543701595302 -292.8033555707675 26.498973985747888 A 1.5 1.5 0 0 0 -291.938 24.9222A 293 293 0 0 1 -291.979 24.4413A 1.5 1.5 0 0 0 -293.096 23.0322C -293.7631107191335 22.87529268743643 -294.45189806901703 22.705142619839613 -295.1623627908874 22.520662774976994 C -297.0539150255661 22.02949442886875 -299.09880293217196 21.43687369825126 -301.2882107800036 20.723114399153772 A 302 302 0 0 1 -301.495 17.456C -299.4132868008665 16.471707759522403 -297.4595112293965 15.62581952974967 -295.64504573089323 14.899919291784498 C -294.96353439203517 14.627274414350962 -294.3017192067469 14.371579832115398 -293.66016358395296 14.131842754736992 A 1.5 1.5 0 0 0 -292.729 12.593A 293 293 0 0 1 -292.75 12.1107A 1.5 1.5 0 0 0 -293.807 10.6558C -294.46630368968357 10.470922894035184 -295.1473057833546 10.271887200557133 -295.84936188450587 10.057620625890717 C -297.7185266094979 9.487147636537195 -299.7366138130748 8.808848351781531 -301.8939857003076 8.003425728947688 A 302 302 0 0 1 -301.963 4.73049C -299.8415039329081 3.834838805596113 -297.85380551776217 3.0720669580773903 -296.0103516091263 2.423303605635386 C -295.31795235882197 2.1796312593157 -294.64594631823394 1.952063818156013 -293.99485454282836 1.7395856230214681 A 1.5 1.5 0 0 0 -293 0.241331A 293 293 0 0 1 -293 -0.241331A 1.5 1.5 0 0 0 -293.995 -1.73959C -294.64594631823394 -1.9520638181560717 -295.31795235882197 -2.1796312593157596 -296.0103516091263 -2.4233036056354456 C -297.85380551776217 -3.07206695807745 -299.8415039329081 -3.8348388055961733 -301.96300413105547 -4.730492740135265 A 302 302 0 0 1 -301.894 -8.00343C -299.7366138130748 -8.808848351781592 -297.7185266094979 -9.487147636537255 -295.84936188450587 -10.057620625890777 C -295.1473057833546 -10.271887200557192 -294.46630368968357 -10.470922894035242 -293.80683337908266 -10.655764428448947 A 1.5 1.5 0 0 0 -292.75 -12.1107A 293 293 0 0 1 -292.729 -12.593A 1.5 1.5 0 0 0 -293.66 -14.1318C -294.3017192067469 -14.371579832115327 -294.96353439203517 -14.627274414350888 -295.64504573089323 -14.899919291784423 C -297.4595112293965 -15.625819529749595 -299.4132868008665 -16.471707759522324 -301.4951433599962 -17.45600056575616 A 302 302 0 0 1 -301.288 -20.7231C -299.09880293217196 -21.436873698251183 -297.0539150255661 -22.029494428868677 -295.1623627908874 -22.52066277497692 C -294.45189806901703 -22.705142619839542 -293.7631107191335 -22.87529268743636 -293.0964343874835 -23.032168919626457 A 1.5 1.5 0 0 0 -291.979 -24.4413A 293 293 0 0 1 -291.938 -24.9222A 1.5 1.5 0 0 0 -292.803 -26.499C -293.4342343784647 -26.76554370159536 -294.0846820252054 -27.048910809270645 -294.7540937503272 -27.350043465175585 C -296.5363447852568 -28.1517899645311 -298.4527237713839 -29.07929061815431 -300.4912352265069 -30.150472259393208 A 302 302 0 0 1 -300.147 -33.406C -297.9292052946702 -34.026785065581386 -295.86115242110907 -34.532673584028174 -293.95057578758866 -34.94366400749597 C -293.2329656253475 -35.09802912412285 -292.5376176580238 -35.23899104522754 -291.8649206315134 -35.36762305497808 A 1.5 1.5 0 0 0 -290.689 -36.7284A 293 293 0 0 1 -290.628 -37.2072A 1.5 1.5 0 0 0 -291.426 -38.819C -292.045034189755 -39.11191941112897 -292.6829578257689 -39.42245522786746 -293.339079747536 -39.751540259370834 C -295.0859475415916 -40.62770754409899 -296.96152269047286 -41.63517155925781 -298.95306464261336 -42.79133751363429 A 302 302 0 0 1 -298.472 -46.0294C -296.2299004024869 -46.556198050804525 -294.1423594845103 -46.97445490575621 -292.21615538767975 -47.3045366806089 C -291.4926756697487 -47.428512613455936 -290.7920033882953 -47.540035762916894 -290.11448169768886 -47.64019484720872 A 1.5 1.5 0 0 0 -288.882 -48.9502A 293 293 0 0 1 -288.801 -49.426A 1.5 1.5 0 0 0 -289.53 -51.07C -290.136588587857 -51.38875555526112 -290.7608540081992 -51.72590795971303 -291.4025195657785 -52.08236026563814 C -293.1108982517707 -53.03139054228065 -294.9423348592368 -54.11702668472154 -296.8833664194813 -55.35612133136068 A 302 302 0 0 1 -296.266 -58.571C -294.0039095577075 -59.00283581486896 -291.90059216688695 -59.33271736090089 -289.9621853273375 -59.58130361378847 C -289.23412237425293 -59.674669938171306 -288.52937154841675 -59.756556031898604 -287.84822980255535 -59.828064111534935 A 1.5 1.5 0 0 0 -286.562 -61.0849A 293 293 0 0 1 -286.461 -61.5569A 1.5 1.5 0 0 0 -287.12 -63.2302C -287.71229071940616 -63.574224367346325 -288.32178800294054 -63.937393914840236 -288.94785633838706 -64.32057973599515 C -290.614708481356 -65.34078566335313 -292.3987503199535 -66.50266371163295 -294.2858204050219 -67.82248398547132 A 302 302 0 0 1 -293.533 -71.0085C -291.25519049082095 -71.34456869004555 -289.1398362487209 -71.58548840980723 -287.1926730830751 -71.75213716344373 C -286.46132136419845 -71.81472787744482 -285.75374501522924 -71.8668313249521 -285.07019425928013 -71.90956126117689 A 1.5 1.5 0 0 0 -283.732 -73.1111A 293 293 0 0 1 -283.611 -73.5784A 1.5 1.5 0 0 0 -284.199 -75.278C -284.7764508975426 -75.64666052852081 -285.37009638034147 -76.03520151685444 -285.97945436700184 -76.44443956283276 C -287.6018163646658 -77.53400725199774 -289.3352914731107 -78.77006142934705 -291.16504494125667 -80.16826073810199 A 302 302 0 0 1 -290.279 -83.3197C -287.98863032401925 -83.55945352566887 -285.8650002532865 -83.71098307269048 -283.9125427465949 -83.79539803167343 C -283.17920257859316 -83.82710185128744 -282.47005875141787 -83.84933001454641 -281.78531431368026 -83.8632058350924 A 1.5 1.5 0 0 0 -280.398 -85.0072A 293 293 0 0 1 -280.257 -85.469A 1.5 1.5 0 0 0 -280.773 -87.1919C -281.33428893833207 -87.58459968784963 -281.91102714039084 -87.99782130532475 -282.5025913620021 -88.43238396581503 C -284.0775787139341 -89.58937620519728 -285.75740503674336 -90.89740885239611 -287.5265886530737 -92.37150124872113 A 302 302 0 0 1 -286.508 -95.4828C -284.2100368820723 -95.62577270225923 -282.08190671947506 -95.6876426625359 -280.1276262699335 -95.6896737401488 C -279.39360150486357 -95.6904342971414 -278.68415103132804 -95.68274765528896 -277.9994303624239 -95.66774468945363 A 1.5 1.5 0 0 0 -276.565 -96.7522A 293 293 0 0 1 -276.405 -97.2077A 1.5 1.5 0 0 0 -276.848 -98.9508C -277.39192488012304 -99.36681662515892 -277.9507303819654 -99.80398417881935 -278.52344905892943 -100.26309881726976 C -280.0482614950938 -101.48545851688978 -281.6714523623673 -102.86314399962545 -283.37692058297506 -104.41050860103395 A 302 302 0 0 1 -282.228 -107.476C -279.92612836622754 -107.522072744657 -277.7972818495331 -107.4941731156572 -275.84465309646333 -107.41381670071817 C -275.1112488035707 -107.38363264284678 -274.4027530607269 -107.34604486245166 -273.719273569018 -107.30218978496069 A 1.5 1.5 0 0 0 -272.24 -108.325A 293 293 0 0 1 -272.061 -108.774A 1.5 1.5 0 0 0 -272.43 -110.534C -272.9563681023424 -110.9723629887024 -273.4962473681786 -111.4326992105913 -274.04910222758804 -111.91554953792914 C -275.52102868711825 -113.20110338684857 -277.0846981247291 -114.64599223060866 -278.72341868935564 -116.26387787930734 A 302 302 0 0 1 -277.447 -119.278C -275.14452140949373 -119.22720246551829 -273.0187435501206 -119.10958285176424 -271.07123819618823 -118.9469818150466 C -270.3397583415416 -118.8859068084646 -269.63347700896526 -118.81848471922865 -268.9524538960456 -118.74585550280945 A 1.5 1.5 0 0 0 -267.431 -119.706A 293 293 0 0 1 -267.234 -120.146A 1.5 1.5 0 0 0 -267.528 -121.92C -268.0355048630742 -122.38060454056722 -268.5554980072713 -122.8632909696811 -269.0875060933615 -123.36901849564505 C -270.50392954472744 -124.71548082603425 -272.0052974054787 -126.22500407118288 -273.5743567287619 -127.91053422552986 A 302 302 0 0 1 -272.172 -130.869C -269.8737175345444 -130.72035057135506 -267.7547878879506 -130.51322009622774 -265.81586852660473 -130.26866353644095 C -265.08761365469167 -130.17680617028122 -264.3848024748177 -130.0796696462187 -263.7074465749295 -129.9783954229676 A 1.5 1.5 0 0 0 -262.147 -130.873A 293 293 0 0 1 -261.931 -131.305A 1.5 1.5 0 0 0 -262.151 -133.09C -262.6380842775808 -133.57125784359496 -263.1372667713046 -134.07543628107757 -263.647482193113 -134.60314184058194 C -265.0058842871078 -136.00811869155393 -266.4422811937323 -137.5795924608483 -267.9388895454552 -139.32977030973916 A 302 302 0 0 1 -266.413 -142.226C -264.123088038322 -141.98108266425442 -262.014773984093 -141.68480959817975 -260.08788794320105 -141.3587323279625 C -259.36415286460766 -141.23625592127 -258.66606141006616 -141.1095776675758 -257.9935770372808 -140.97983849936597 A 1.5 1.5 0 0 0 -256.397 -141.808A 293 293 0 0 1 -256.163 -142.23A 1.5 1.5 0 0 0 -256.307 -144.023C -256.7737027626951 -144.5244263245935 -257.2511870776885 -145.049200359582 -257.73870269081436 -145.59794571139955 C -259.0366682380871 -147.05893908538516 -260.4055403293034 -148.68956935581122 -261.8270367944322 -150.50128314689997 A 302 302 0 0 1 -260.18 -153.331C -257.90285733021295 -152.98937757349324 -255.80890737379852 -152.60448867917083 -253.89748058642326 -152.1974704520101 C -253.179552075708 -152.0445927633663 -252.48742152762983 -151.88859800935268 -251.82100433462094 -151.7306245676906 A 1.5 1.5 0 0 0 -250.191 -152.491A 293 293 0 0 1 -249.939 -152.903A 1.5 1.5 0 0 0 -250.008 -154.7C -250.4527869747416 -155.22063564971782 -250.90772416131728 -155.7650722531285 -251.37167318079148 -156.33388174804912 C -252.60689444596562 -157.8482940521454 -253.90580791714982 -159.53518162258896 -255.24966512684438 -161.40521019486988 A 302 302 0 0 1 -253.485 -164.163C -251.22408475342124 -163.7256629524488 -249.1482218614293 -163.25284254828702 -247.25565277464509 -162.7656070277373 C -246.54480728250064 -162.58259986809367 -245.85986822374227 -162.39756596674053 -245.20070307595952 -162.21163912264055 A 1.5 1.5 0 0 0 -243.54 -162.902A 293 293 0 0 1 -243.271 -163.303A 1.5 1.5 0 0 0 -243.264 -165.102C -243.6865752713222 -165.64086834912447 -244.11815646776446 -166.20399953254466 -244.55771400916126 -166.79186184804388 C -245.72799481390433 -168.35700051243964 -246.95464024430586 -170.09714615836006 -248.21846886948865 -172.0221646692746 A 302 302 0 0 1 -246.339 -174.703C -244.09864492186009 -174.17085007751646 -242.04455990275818 -173.61093882093923 -240.17421343533573 -173.0443522939754 C -239.4717148191062 -172.83154104338334 -238.79518504631866 -172.61779697821484 -238.14444391533993 -172.40424730282072 A 1.5 1.5 0 0 0 -236.456 -173.024A 293 293 0 0 1 -236.171 -173.414A 1.5 1.5 0 0 0 -236.088 -175.21C -236.48709772992606 -175.76659762933957 -236.89455560061734 -176.34742216607546 -237.3089401466689 -176.95329210440926 C -238.41219977441713 -178.5663743696758 -239.56439623322476 -180.35668417561774 -240.7459492327211 -182.3332700125032 A 302 302 0 0 1 -238.755 -184.932C -236.53920660752127 -184.30636778716413 -234.51055154951356 -183.66036117995284 -232.66575310921738 -183.0154310167434 C -231.9728503858062 -182.7731940458403 -231.30593274423683 -182.53111984600417 -230.66477262404547 -182.2903270228457 A 1.5 1.5 0 0 0 -228.952 -182.839A 293 293 0 0 1 -228.65 -183.216A 1.5 1.5 0 0 0 -228.491 -185.007C -228.86715475889113 -185.57982031322138 -229.2497648586067 -186.1773055184427 -229.63823964871227 -186.80010586497067 C -230.6725165441088 -188.45826372970657 -231.74821546806587 -190.2955545901689 -232.84539208376108 -192.32019345553886 A 302 302 0 0 1 -230.747 -194.833C -228.55921021586087 -194.1141955007798 -226.55959199360885 -193.3832421191073 -224.74362156474353 -192.661114981947 C -224.0615466899068 -192.38988297922722 -223.40542693478451 -192.11990904381673 -222.77498778467637 -191.85230119374626 A 1.5 1.5 0 0 0 -221.041 -192.328A 293 293 0 0 1 -220.723 -192.692A 1.5 1.5 0 0 0 -220.489 -194.475C -220.8402943387455 -195.06308884895165 -221.1973764006907 -195.67617241576758 -221.55925074085005 -196.31479585420152 C -222.52270599731872 -198.01508117423444 -223.5199948329939 -199.8960864531155 -224.53084432490456 -201.96517861295249 A 302 302 0 0 1 -222.328 -204.387C -220.17284388924944 -203.5768952586055 -218.20581775098015 -202.76229471090974 -216.42190406269802 -201.9642545154959 C -215.75186974067225 -201.66450972156215 -215.10771442897786 -201.3671160543823 -214.4891171467552 -201.07316897439142 A 1.5 1.5 0 0 0 -212.736 -201.475A 293 293 0 0 1 -212.404 -201.826A 1.5 1.5 0 0 0 -212.095 -203.597C -212.42078793439183 -204.19954233114703 -212.75170707969144 -204.82713421934898 -213.0863375705337 -205.48044530052059 C -213.9772581997879 -207.21983503060002 -214.89436380402546 -209.14121036915753 -215.8170889186439 -211.25107705310876 A 302 302 0 0 1 -213.514 -213.578C -211.39501828097193 -212.67764272579427 -209.4640815273765 -211.78084334212187 -207.71539631311495 -210.90830897479898 C -207.0585938404731 -210.5805843249563 -206.42754825684366 -210.25629968109456 -205.82189268589985 -209.93653599836446 A 1.5 1.5 0 0 0 -204.054 -210.265A 293 293 0 0 1 -203.707 -210.6A 1.5 1.5 0 0 0 -203.323 -212.357C -203.6236051209638 -212.97293647893284 -203.92777298745375 -213.61392085304638 -204.23456466817782 -214.2807580136946 C -205.05136664585112 -216.05615958235606 -205.88665843835463 -218.01448884535478 -206.71961860410008 -220.16137878745155 A 302 302 0 0 1 -204.321 -222.389C -202.24134004463036 -221.4002571054632 -200.34992581079106 -220.4228533623914 -198.63957816904622 -219.47737615742318 C -197.997175316616 -219.12225433413934 -197.38036143707043 -218.77165527985838 -196.78872441090834 -218.42664352254786 A 1.5 1.5 0 0 0 -195.008 -218.68A 293 293 0 0 1 -194.648 -219.001A 1.5 1.5 0 0 0 -194.19 -220.74C -194.46438696846818 -221.36767251768183 -194.74126275678185 -222.02090973088116 -195.0196701629752 -222.70008735886933 C -195.76090124495883 -224.50834416691345 -196.51289410740355 -226.50014551638907 -197.2546083514985 -228.68024162466085 A 302 302 0 0 1 -194.764 -230.805C -192.72808408608398 -229.7292299075596 -190.8795552374851 -228.67295959327515 -189.21058610394832 -227.65622057462872 C -188.58372504055814 -227.27433297154607 -187.98223953766487 -226.89804285916998 -187.40567296532646 -226.52839644559296 A 1.5 1.5 0 0 0 -185.616 -226.706A 293 293 0 0 1 -185.242 -227.012A 1.5 1.5 0 0 0 -184.712 -228.73C -184.9594182325329 -229.36882491306605 -185.2085096676227 -230.03315353342472 -185.45803780107698 -230.72346407571547 C -186.122380105557 -232.56136110852626 -186.78973702207597 -234.58309319436628 -187.43888660366179 -236.7925193374908 A 302 302 0 0 1 -184.861 -238.81C -182.87216462725988 -237.6497525223904 -181.0698077807359 -236.51649364696564 -179.44518452162092 -235.4303005395123 C -178.83497978336538 -235.0223261388529 -178.2498920763986 -234.62101399846952 -177.6894210722088 -234.22739014645987 A 1.5 1.5 0 0 0 -175.894 -234.33A 293 293 0 0 1 -175.508 -234.619A 1.5 1.5 0 0 0 -174.905 -236.314C -175.12559840070512 -236.96216790811292 -175.3464626070896 -237.63640678358726 -175.56666781588962 -238.33662289322788 C -176.1529401664924 -240.20089243695145 -176.73447460084193 -242.24896069328634 -177.28990535565202 -244.48378859220966 A 302 302 0 0 1 -174.629 -246.391C -172.69110513328334 -245.1477425497904 -170.93812481353396 -243.93951000614982 -169.36073594970804 -242.78579402159616 C -168.7682724583436 -242.3524581869561 -168.20062281189465 -241.92683753690596 -167.65724387284564 -241.50993609530806 A 1.5 1.5 0 0 0 -165.859 -241.536A 293 293 0 0 1 -165.461 -241.809A 1.5 1.5 0 0 0 -164.788 -243.477C -164.98041164578046 -244.134200816081 -165.1726559349606 -244.81715117455548 -165.36314670228109 -245.52602789285604 C -165.87030672816215 -247.4133553442764 -166.36498473333987 -249.48411838048654 -166.82570912576148 -251.74037459276 A 302 302 0 0 1 -164.087 -253.534C -162.20300715639738 -252.20986883711495 -160.5025200984596 -250.92881081862907 -158.975170169759 -249.7096232218931 C -158.4015013037525 -249.25169640857274 -157.85229897817754 -248.80252398683942 -157.3269782121934 -248.36308619120243 A 1.5 1.5 0 0 0 -155.529 -248.314A 293 293 0 0 1 -155.12 -248.57A 1.5 1.5 0 0 0 -154.377 -250.207C -154.541895739581 -250.8721720241889 -154.7051783082262 -251.562619604849 -154.86561594843442 -252.2788965748734 C -155.29276193757556 -254.18592633465622 -155.69970399414058 -256.27570240963155 -156.06490287301725 -258.54937539404733 A 302 302 0 0 1 -153.253 -260.226C -151.4265181520629 -258.82357518154333 -149.78154775986985 -257.4719693626194 -148.30695233873018 -256.18947782475624 C -147.75309806039053 -255.70777420991848 -147.22331951738235 -255.2358486286762 -146.71699092561454 -254.77465578336435 A 1.5 1.5 0 0 0 -144.923 -254.65A 293 293 0 0 1 -144.503 -254.888A 1.5 1.5 0 0 0 -143.692 -256.493C -143.8286099824547 -257.16410166551765 -143.96264052011665 -257.8608188777614 -144.09273978094313 -258.5832225851961 C -144.43911228336344 -260.50656402402166 -144.75759486318975 -262.6116375921632 -145.02661891824198 -264.89868484112816 A 302 302 0 0 1 -142.147 -266.455C -140.38079832446272 -264.9771026545493 -138.7942692953418 -263.5573521410092 -137.37505015860944 -262.21383688517125 C -136.84199520063166 -261.70921292026446 -136.33258236710654 -261.2153732459747 -135.84614618331375 -260.73324533503666 A 1.5 1.5 0 0 0 -134.059 -260.533A 293 293 0 0 1 -133.629 -260.753A 1.5 1.5 0 0 0 -132.751 -262.323C -132.85960220551797 -262.9988029187763 -132.96414241079182 -263.70055102482576 -133.06367198049853 -264.4277970622415 C -133.32865515852893 -266.36403054922016 -133.55811201121196 -268.48065886654405 -133.7304829274874 -270.7770140935108 A 302 302 0 0 1 -130.787 -272.211C -129.08548656035896 -270.6595105088466 -127.56021968502671 -269.1741395652924 -126.19890015253523 -267.7719893125756 C -125.68759226718187 -267.24534220059417 -125.1994508605678 -266.7304664621761 -124.73377195053324 -266.22826069144315 A 1.5 1.5 0 0 0 -122.957 -265.952A 293 293 0 0 1 -122.518 -266.155A 1.5 1.5 0 0 0 -121.575 -267.686C -121.65437490430628 -268.365901898062 -121.72923890852209 -269.0714332153935 -121.79802182716625 -269.8022285658752 C -121.9811445503862 -271.74791154852613 -122.12116771001546 -273.87233132712646 -122.1965790183153 -276.1739116963023 A 302 302 0 0 1 -119.196 -277.482C -117.56066551186858 -275.8606956306382 -116.09937265916778 -274.3123451924019 -114.79837310736727 -272.85405291478696 C -114.3097213813993 -272.306319015077 -113.8437192993035 -271.7713226428042 -113.39962562313525 -271.24993191580967 A 1.5 1.5 0 0 0 -111.636 -270.899A 293 293 0 0 1 -111.189 -271.083A 1.5 1.5 0 0 0 -110.182 -272.573C -110.2328505640484 -273.2558560972517 -110.27790526173867 -273.96391621693 -110.31581923580099 -274.69696155301347 C -110.41675591869135 -276.64863467799717 -110.46709642919885 -278.777068777034 -110.44541405096892 -281.0797821625141 A 302 302 0 0 1 -107.392 -282.26C -105.82682589023995 -280.5714105025847 -104.43210518553575 -278.96283348024156 -103.19373874415193 -277.4509919681806 C -102.72861198250577 -276.8831451316273 -102.28557775962439 -276.32897932952596 -101.86385889967232 -275.78933065995557 A 1.5 1.5 0 0 0 -100.116 -275.365A 293 293 0 0 1 -99.6624 -275.529A 1.5 1.5 0 0 0 -98.5931 -276.975C -98.61533623821573 -277.6599713562281 -98.63050152377212 -278.36930137319956 -98.63747914359035 -279.10329336702824 C -98.6560503244124 -281.05748663075104 -98.61661868220756 -283.1861507720692 -98.4978811679251 -285.48590303348715 A 302 302 0 0 1 -95.3975 -286.537C -93.90483003411748 -284.7832796455518 -92.57916123992527 -283.1173360303457 -91.40562967929924 -281.5546332828754 C -90.96485486038321 -280.9676831204319 -90.54557619539686 -280.39533317507505 -90.1469819524042 -279.8383860385697 A 1.5 1.5 0 0 0 -88.4187 -279.341A 293 293 0 0 1 -87.9585 -279.486A 1.5 1.5 0 0 0 -86.8291 -280.886C -86.82248744332182 -281.57041731878013 -86.80773635342007 -282.2797560701602 -86.78376521304078 -283.01338971075467 C -86.71993787291274 -284.966628628908 -86.59080418601641 -287.0917381253456 -86.37522264664872 -289.3844403871055 A 302 302 0 0 1 -83.2333 -290.304C -81.81587481706413 -288.488814509907 -80.56161492412235 -286.7684662887906 -79.45500474054317 -285.1576807343683 C -79.03936554590013 -284.5526708220037 -78.64458790097444 -283.9631543507074 -78.26982696095932 -283.3898989789511 A 1.5 1.5 0 0 0 -76.5641 -282.82A 293 293 0 0 1 -76.0981 -282.945A 1.5 1.5 0 0 0 -74.9108 -284.296C -74.87527143416702 -284.98024135469035 -74.83063019570666 -285.68832766206503 -74.77575291494269 -286.42029857558475 C -74.62964053654602 -288.3691103606517 -74.41103439994106 -290.48688684507573 -74.09899213159791 -292.7684627662237 A 302 302 0 0 1 -70.9211 -293.554C -69.58145396029303 -291.6814267898878 -68.40083299691963 -289.9097326792174 -67.36311170291019 -288.2537282357765 C -66.97334712386025 -287.6317342590364 -66.60377239924131 -287.0260994005734 -66.2535110734789 -286.4375550206974 A 1.5 1.5 0 0 0 -64.5733 -285.796A 293 293 0 0 1 -64.1025 -285.902A 1.5 1.5 0 0 0 -62.8593 -287.202C -62.794929924826 -287.88338092125764 -62.72047790829992 -288.58895583301256 -62.634792056953806 -289.31796260188514 C -62.40665442276526 -291.25888233762987 -62.09896451018491 -293.3655604807351 -61.69101631263208 -295.63195350254495 A 302 302 0 0 1 -58.4828 -296.283C -57.223319817616954 -294.3554401373682 -56.11843688480039 -292.53555014461824 -55.151449510951856 -290.83727112762665 C -54.78825253469292 -290.19939896910324 -54.44453782075416 -289.57872252015034 -54.11939886109962 -288.9759355425843 A 1.5 1.5 0 0 0 -52.4678 -288.264A 293 293 0 0 1 -51.9928 -288.35A 1.5 1.5 0 0 0 -50.696 -289.596C -50.60294132165467 -290.27467434227697 -50.49881090003126 -290.97648337196756 -50.38246882441978 -291.7012298487616 C -50.07271155482751 -293.63080665072397 -49.676484927707826 -295.72264085565087 -49.1733561179533 -297.96982141403726 A 302 302 0 0 1 -45.9405 -298.485C -44.76344470055637 -296.5061002541993 -43.7362642398307 -294.6412500773636 -42.84173005440551 -292.9037159649381 C -42.5057464319072 -292.2510997380514 -42.18850284086683 -291.6164852386846 -41.88906433252511 -291.0005273966771 A 1.5 1.5 0 0 0 -40.2689 -290.22A 293 293 0 0 1 -39.7908 -290.286A 1.5 1.5 0 0 0 -38.4425 -291.476C -38.32098253546663 -292.14986998531117 -38.1873588488355 -292.8466653420938 -38.040567400923415 -293.5658629540217 C -37.64974123304877 -295.48066610506385 -37.16568236787328 -297.55393716693345 -36.568267490580105 -299.77790985687005 A 302 302 0 0 1 -33.3166 -300.157C -32.2239818123706 -298.12958334517737 -31.276330113110077 -296.2230886198163 -30.455839565245675 -294.449388684201 C -30.14766666312775 -293.78318871678647 -29.857458242513474 -293.1357644884266 -29.584252576224994 -292.5077309325426 A 1.5 1.5 0 0 0 -27.9985 -291.659A 293 293 0 0 1 -27.518 -291.705A 1.5 1.5 0 0 0 -26.1207 -292.837C -25.97089044077837 -293.5056338209385 -25.808011067178043 -294.19617662809696 -25.631031236802876 -294.90854666805046 C -25.159831045309918 -296.8051717180468 -24.588800581076136 -298.8561934365709 -23.89816181809468 -301.0530041157744 A 302 302 0 0 1 -20.6334 -301.294C -19.6272258604724 -299.2230029166124 -18.760787812815668 -297.278253320774 -18.015799704763978 -295.47154113572674 C -17.73598544320025 -294.7929419070148 -17.473328172993334 -294.1338590463135 -17.226841098462657 -293.4948663972965 A 1.5 1.5 0 0 0 -15.6782 -292.58A 293 293 0 0 1 -15.1963 -292.606A 1.5 1.5 0 0 0 -13.7525 -293.678C -13.574623050642536 -294.33955535053514 -13.382777583655308 -295.02261784815835 -13.175924034496939 -295.72689374820277 C -12.625187596130639 -297.601968567028 -11.96820080416535 -299.6270943004391 -11.185566086012715 -301.79283711969003 A 302 302 0 0 1 -7.91354 -301.896C -6.995573417251025 -299.7844149084086 -6.211889516427872 -297.80486813590454 -5.543728409858167 -295.968355969758 C -5.292770288394422 -295.27856400441317 -5.058131163636149 -294.6089943366448 -4.838800925886738 -293.96017870010604 A 1.5 1.5 0 0 0 -3.33014 -292.981A 293 293 0 0 1 -2.84751 -292.986A 1.5 1.5 0 0 0 -1.35982 -293.997C -1.1542204761012025 -294.6501518920537 -0.9337500099663578 -295.3245196199478 -0.6973905200864854 -296.01944920323416 C -0.0680970241362222 -297.86963997628743 0.6736779970198787 -299.86526912493446 1.5469171743755152 -301.99609347253477 A 302 302 0 0 1 4.8204 -301.962C 5.648516900216986 -299.81282115053216 6.348053292829869 -297.80199676328425 6.938199431853319 -295.93894986765 C 7.159855218835329 -295.2391915906141 7.366059018343829 -294.56032558621337 7.557842458153276 -293.9028405326773 A 1.5 1.5 0 0 0 9.02389 -292.861A 293 293 0 0 1 9.50631 -292.846A 1.5 1.5 0 0 0 11.0353 -293.793C 11.268234260325665 -294.436871216178 11.516937737164968 -295.10134517313253 11.782382929218809 -295.78569288022186 C 12.489114621882045 -297.6077100358277 13.314359023310942 -299.5702944439108 14.276650072479367 -301.6624117919306 A 302 302 0 0 1 17.5458 -301.49C 18.282564360767775 -299.3081711377213 18.89670949499251 -297.26964430810904 19.407791408170727 -295.3833751123793 C 19.599750764770633 -294.67489466833257 19.777152616198833 -293.98793932628143 19.94104827411109 -293.32295384017976 A 1.5 1.5 0 0 0 21.3619 -292.22A 293 293 0 0 1 21.8432 -292.185A 1.5 1.5 0 0 0 23.4107 -293.066C 23.670654487449156 -293.7000925281665 23.947148789287034 -294.35349130373464 24.24120773165026 -295.02604038937756 C 25.024121077867676 -296.81664444752425 25.93136760513928 -298.7426947115865 26.980999607751958 -300.7923853517286 A 302 302 0 0 1 30.2399 -300.482C 30.884106089070585 -298.27136211928234 31.411768037270527 -296.2087572736169 31.842877039612798 -294.30261949558616 C 32.00479866909974 -293.58667653690355 32.15308315842972 -292.8928532387311 32.28879963394607 -292.22154963999066 A 1.5 1.5 0 0 0 33.6619 -291.06A 293 293 0 0 1 34.1413 -291.004A 1.5 1.5 0 0 0 35.7446 -291.819C 36.030989154707555 -292.4411257936392 36.33478268476545 -293.0822876686425 36.656932551369636 -293.741842365108 C 37.51463555978252 -295.49784969712465 38.502271161679495 -297.383941370084 39.637377910340014 -299.3875610271897 A 302 302 0 0 1 42.8803 -298.94C 43.43073700380116 -296.70423750381406 43.87097760228838 -294.6212218782403 44.221347197721 -292.6986045613171 C 44.352943209346755 -291.9764720084522 44.471846692167844 -291.27701434666295 44.57914268634751 -290.60058618858443 A 1.5 1.5 0 0 0 45.902 -289.382A 293 293 0 0 1 46.3787 -289.306A 1.5 1.5 0 0 0 48.0149 -290.053C 48.327262038128 -290.6622094095066 48.65781466259581 -291.2899944215292 49.00748268273435 -291.93538206463626 C 49.93845038869391 -293.65367055356853 51.00471908515787 -295.49645023325945 52.22328240149057 -297.45043654469646 A 302 302 0 0 1 55.4445 -296.867C 55.90014965305714 -294.6095835816935 56.25218617011322 -292.50986070197825 56.521193414281555 -290.57418218959 C 56.62222983513979 -289.8471439678691 56.71154090539868 -289.1432955526603 56.79022564987955 -288.462945499824 A 1.5 1.5 0 0 0 58.0606 -287.19A 293 293 0 0 1 58.5336 -287.094A 1.5 1.5 0 0 0 60.1998 -287.771C 60.537610813251725 -288.3665062241817 60.894334821625996 -288.979798194382 61.27089929831952 -289.60987130845325 C 62.273476475218374 -291.2873859000733 63.41648247941836 -293.0835771914739 64.71633580231584 -294.9844560408874 A 302 302 0 0 1 67.9101 -294.266C 68.27017387619449 -291.9911245711541 68.53338040373897 -289.87842766795217 68.72054701157977 -287.93312952585524 C 68.79084420260133 -287.2024782827047 68.85040406847432 -286.49549053087304 68.90033766465217 -285.81242822084477 A 1.5 1.5 0 0 0 70.1159 -284.487A 293 293 0 0 1 70.5844 -284.371A 1.5 1.5 0 0 0 72.2777 -284.977C 72.64032592554865 -285.55809791415095 73.02258707556044 -286.1558064317868 73.42537849091136 -286.7694447698187 C 74.49778259311601 -288.4032029044002 75.7154936820883 -290.1496122449429 77.09432591977799 -291.99400393910724 A 302 302 0 0 1 80.2549 -291.141C 80.51881622156358 -288.8535159967611 80.69272478799572 -286.73160136806786 80.7977179841105 -284.78014226536897 C 80.8371509594551 -284.04717707203554 80.86685372567418 -283.3383069820037 80.88794739343724 -282.65374687464373 A 1.5 1.5 0 0 0 82.0465 -281.278A 293 293 0 0 1 82.5098 -281.143A 1.5 1.5 0 0 0 84.2271 -281.677C 84.61388918921404 -282.24197772690223 85.02100783448847 -282.8230400880414 85.44931004005937 -283.41915262346237 C 86.58963437221136 -285.0062495386628 87.87988550007768 -286.69977187627177 89.33524513915872 -288.48439715406226 A 302 302 0 0 1 92.4571 -287.499C 92.62429905006465 -285.20233641205897 92.70860045229973 -283.0749767446491 92.73123356261735 -281.12082630441836 C 92.73973221189385 -280.3868503462675 92.73952506802462 -279.67735826318693 92.73174130360138 -278.9925174813844 A 1.5 1.5 0 0 0 93.8313 -277.569A 293 293 0 0 1 94.2884 -277.414A 1.5 1.5 0 0 0 96.0268 -277.876C 96.4370120457162 -278.42404160311327 96.86826434415897 -278.98742470008244 97.32131583425837 -279.5649515665585 C 98.527532941309 -281.10256546198053 99.88803008864915 -282.7401897757412 101.41732955279369 -284.4618756385403 A 302 302 0 0 1 104.495 -283.346C 104.56509925499381 -281.0440774811067 104.55964360821511 -278.91505514283523 104.49987639189135 -276.96168777324255 C 104.47742560481146 -276.228006032743 104.4473089191482 -275.51915340764566 104.41066156178773 -274.83524957331883 A 1.5 1.5 0 0 0 105.449 -273.367A 293 293 0 0 1 105.899 -273.193A 1.5 1.5 0 0 0 107.656 -273.58C 108.08867341407729 -274.11107769388434 108.54329261483946 -274.6557798520966 109.02028788045116 -275.2136942279348 C 110.2902531524026 -276.6990912821846 111.71857740493722 -278.27790593582904 113.31909765550675 -279.93359128900204 A 302 302 0 0 1 116.347 -278.689C 116.31998652934216 -276.3861324365365 116.22478353349054 -274.2592327514264 116.08272225445494 -272.3101214683706 C 116.02936194769882 -271.57803840488265 115.96938926660955 -270.87108555186796 115.90394347397587 -270.18933462107645 A 1.5 1.5 0 0 0 116.88 -268.679A 293 293 0 0 1 117.322 -268.486A 1.5 1.5 0 0 0 119.093 -268.799C 119.54815706558904 -269.31075429165287 120.02533487232208 -269.8358070505488 120.52542583327083 -270.3731169843489 C 121.85688131821436 -271.8036562156705 123.35049316754632 -273.3208541343601 125.01938853794313 -274.90759522977015 A 302 302 0 0 1 127.992 -273.536C 127.86806111250758 -271.23678293465485 127.68328003503541 -269.1157874527292 127.45917727305785 -267.1743977049427 C 127.37500231930363 -266.4452149354374 127.28528027202677 -265.74141879087904 127.19115240435089 -265.06303289189884 A 1.5 1.5 0 0 0 128.102 -263.512A 293 293 0 0 1 128.536 -263.301A 1.5 1.5 0 0 0 130.319 -263.539C 130.79508845650977 -264.0316061962498 131.29397646448697 -264.5360760311848 131.816273977294 -265.05182620549255 C 133.20685239596628 -266.42496416733746 134.76309625473382 -267.87784782853987 136.49739950989232 -269.39282349842426 A 302 302 0 0 1 139.41 -267.897C 139.1887909493049 -265.6051843309609 138.9147603242247 -263.49386410478513 138.6090145258378 -261.56364761239234 C 138.49417458508148 -260.83866159722373 138.37486269414282 -260.1392734849832 138.25222010733845 -259.4654587631862 A 1.5 1.5 0 0 0 139.097 -257.878A 293 293 0 0 1 139.522 -257.648A 1.5 1.5 0 0 0 141.313 -257.811C 141.8094709532606 -258.28301954033697 142.32918215780967 -258.7660095223541 142.87275759655745 -259.2592829521809 C 144.31998655127637 -260.5725782553628 145.93609547469066 -261.9585644849487 147.73272308671315 -263.3990811578523 A 302 302 0 0 1 150.579 -261.782C 150.2620481952115 -259.5013494022584 149.8992552389745 -257.4034582821462 149.5124100090502 -255.48784689963108 C 149.36710926251556 -254.76834663747726 149.21841966010317 -254.0746100440953 149.06748040821404 -253.40656451746742 A 1.5 1.5 0 0 0 149.845 -251.785A 293 293 0 0 1 150.259 -251.538A 1.5 1.5 0 0 0 152.056 -251.625C 152.57172138571065 -252.07521510120515 153.1113317592757 -252.5358664917422 153.67521866667087 -253.00578615493077 C 155.17652503716874 -254.2569038083268 156.84962564254056 -255.57352837335856 158.70538327309723 -256.9370248632058 A 302 302 0 0 1 161.481 -255.202C 161.0681450029411 -252.93613054430278 160.6172347481841 -250.85539850410737 160.14997788342404 -248.95779811860172 C 159.97447467053595 -248.24506285467206 159.7966717213368 -247.5582112184952 159.61770416884457 -246.8971226476037 A 1.5 1.5 0 0 0 160.326 -245.244A 293 293 0 0 1 160.73 -244.979A 1.5 1.5 0 0 0 162.528 -244.991C 163.06270486533768 -245.41923012860573 163.62125500036657 -245.85672390630086 164.20445080606564 -246.30245430283887 C 165.75716532440288 -247.48916986491824 167.48428289991242 -248.73409185496698 169.39587107965826 -250.01814391475696 A 302 302 0 0 1 172.096 -248.167C 171.58786852671633 -245.9212004766392 171.04964267541715 -243.86132698199586 170.50280494147532 -241.98511145773594 C 170.29741130054165 -241.28040840931985 170.09081113171086 -240.6016629274919 169.88413347639275 -239.9487067036908 A 1.5 1.5 0 0 0 170.522 -238.267A 293 293 0 0 1 170.914 -237.986A 1.5 1.5 0 0 0 172.712 -237.922C 173.2637688063622 -238.3268987209233 173.840265621098 -238.74045703780521 174.44173342424105 -239.16120567531365 C 176.04309542066727 -240.28140920911386 177.82115921429295 -241.45241519831217 179.78517920920402 -242.65473983034153 A 302 302 0 0 1 182.405 -240.692C 181.80251508200791 -238.46903148893216 181.17793058008874 -236.43367891974344 180.55248423450033 -234.58218409946264 C 180.31756534791924 -233.88676620286347 180.08253528701746 -233.21733366008166 179.8485149942024 -232.5736707157085 A 1.5 1.5 0 0 0 180.415 -230.867A 293 293 0 0 1 180.795 -230.569A 1.5 1.5 0 0 0 182.588 -230.429C 183.15677608936505 -230.81083078457988 183.75019459350926 -231.19971834905314 184.36886500629163 -231.59473715180894 C 186.0160273176157 -232.64643697632647 187.84187599681937 -233.74144495875905 189.85483585101764 -234.8599044737085 A 302 302 0 0 1 192.39 -232.788C 191.69392340000425 -230.59287326568952 190.9840907359165 -228.58566040454724 190.28114779945952 -226.7621781784694 C 190.01712134443846 -226.0772818613294 189.7540792663371 -225.41835248422524 189.49313241556553 -224.78512722850593 A 1.5 1.5 0 0 0 189.987 -223.056A 293 293 0 0 1 190.354 -222.743A 1.5 1.5 0 0 0 192.14 -222.527C 192.72413730842229 -222.88438961408255 193.3334224255302 -223.24791499824926 193.96819547453515 -223.61650163723647 C 195.65822950627742 -224.59782786856303 197.52861677873813 -225.61489095999727 199.58693752306186 -226.6474967776651 A 302 302 0 0 1 202.032 -224.471C 201.24450691768288 -222.30672932880762 200.4506881479994 -220.3312249269297 199.67149842756237 -218.53899737990844 C 199.37883383350325 -217.86584036288554 199.08824741741793 -217.2185857038452 198.80083796266783 -216.5969239881761 A 1.5 1.5 0 0 0 199.222 -214.848A 293 293 0 0 1 199.575 -214.52A 1.5 1.5 0 0 0 201.35 -214.229C 201.94884204442815 -214.56166813257298 202.57291048779612 -214.89918500156617 203.22265756970728 -215.24068414319157 C 204.95255850303377 -216.14989201909933 206.86415888843715 -217.08720191847436 208.96418090371725 -218.03211810339977 A 302 302 0 0 1 211.315 -215.754C 210.43728504607873 -213.6253321398201 209.56089155160313 -211.685048571941 208.70684041807402 -209.92726221915115 C 208.38605803194488 -209.26704135085615 208.06844392991906 -208.6326122050431 207.75508287471254 -208.02361932126834 A 1.5 1.5 0 0 0 208.102 -206.259A 293 293 0 0 1 208.441 -205.916A 1.5 1.5 0 0 0 210.202 -205.551C 210.81448910899954 -205.85746383512378 211.45223130770947 -206.16837209626738 212.1157971959264 -206.48217656751947 C 213.88248933010695 -207.31764954958487 215.83190407272778 -208.17353975410487 217.96989359645718 -209.0290862797938 A 302 302 0 0 1 220.223 -206.654C 219.25591336115198 -204.56411690611833 218.29850333753527 -202.66250392561494 217.37110926266263 -200.94228404704486 C 217.02277942383964 -200.29617317608813 216.67870234215601 -199.6756975353714 216.33994683101375 -199.08045625061442 A 1.5 1.5 0 0 0 216.612 -197.303A 293 293 0 0 1 216.937 -196.946A 1.5 1.5 0 0 0 218.681 -196.506C 219.30531570518957 -196.78725247933338 219.95559777688524 -197.0709993490851 220.63180267547423 -197.35655121706566 C 222.43214489636614 -198.11680386481547 224.41590800793207 -198.8897526329308 226.58806377275923 -199.65440836888206 A 302 302 0 0 1 228.739 -197.187C 227.6847126635765 -195.1391941377171 226.64798835090187 -193.27963274307317 225.64890020750735 -191.60003782689097 C 225.27364223373243 -190.9691857148225 224.9037139288858 -190.36376676224828 224.54016625674436 -189.7833353937912 A 1.5 1.5 0 0 0 224.737 -187.996A 293 293 0 0 1 225.046 -187.625A 1.5 1.5 0 0 0 226.77 -187.113C 227.4062254531658 -187.3671605699934 228.06789122005452 -187.62324155677356 228.75553286138262 -187.88003312068196 C 230.58632422621704 -188.56371373265245 232.6009086483092 -189.2523467896606 234.80336864055275 -189.92475220588025 A 302 302 0 0 1 236.848 -187.368C 235.70869685578464 -185.36732100335504 234.59450151204678 -183.55311742686928 233.52549564238967 -181.91713373154244 C 233.12397672864583 -181.3026620103958 232.72885491966247 -180.71337615876823 232.34116146101601 -180.14878669240247 A 1.5 1.5 0 0 0 232.462 -178.354A 293 293 0 0 1 232.756 -177.971A 1.5 1.5 0 0 0 234.457 -177.387C 235.1028152310233 -177.6139366867507 235.77468827551766 -177.84189648791 236.4725440578407 -178.06947118171672 C 238.3305294863821 -178.6753641987293 240.3723533614162 -179.2784571801852 242.60120168758434 -179.85741676438133 A 302 302 0 0 1 244.537 -177.217C 243.31359958670222 -175.26587153685958 242.12391421056208 -173.50025136628523 240.98689126806738 -171.9107876111221 C 240.55982530033063 -171.3137887891936 240.14021249936766 -170.74168376725206 239.72906255903757 -170.19394002244522 A 1.5 1.5 0 0 0 239.774 -168.396A 293 293 0 0 1 240.052 -168.001A 1.5 1.5 0 0 0 241.726 -167.345C 242.3814007830085 -167.5449217057454 243.06228653935412 -167.74435501707632 243.769115700558 -167.94230822128065 C 245.6509917625178 -168.46933638766194 247.71642480215638 -168.98581701625326 249.96769865126254 -169.47030139941313 A 302 302 0 0 1 251.79 -166.751C 250.48589961679943 -164.85280574675008 249.22283942544047 -163.13890819031764 248.01982099540655 -161.59879038387055 C 247.56796728138264 -161.02032590327934 247.12460954468727 -160.46641889287494 246.69073413226334 -159.93649473801653 A 1.5 1.5 0 0 0 246.66 -158.138A 293 293 0 0 1 246.92 -157.732A 1.5 1.5 0 0 0 248.566 -157.006C 249.22904104962734 -157.17801796816542 249.91772892779696 -157.34857020451832 250.63227475142736 -157.51654996554709 C 252.5346955398428 -157.96377624445012 254.6200654795152 -158.39272623646715 256.8897621688114 -158.78187402303777 A 302 302 0 0 1 258.596 -155.988C 257.2128448583612 -154.14663768399762 255.87865552671093 -152.4875099890171 254.61178053200462 -150.99947640454246 C 254.13594245110752 -150.44057475402505 253.6696280525562 -149.9058505816086 253.21379858268827 -149.39468820250744 A 1.5 1.5 0 0 0 253.108 -147.599A 293 293 0 0 1 253.35 -147.182A 1.5 1.5 0 0 0 254.964 -146.388C 255.63356117637701 -146.53165745053616 256.3288267144555 -146.67302537625878 257.0498187641139 -146.81073303222698 C 258.96940184424824 -147.17736227164846 261.0710009723032 -147.5180189696591 263.35508506390397 -147.8111382690771 A 302 302 0 0 1 264.942 -144.948C 263.48247504823496 -143.16640252471691 262.0795287162363 -141.5649945596835 260.7510496143662 -140.13169086659164 C 260.252073189339 -139.59334575288668 259.76363121891507 -139.07875513852304 259.286658139766 -138.58726336323528 A 1.5 1.5 0 0 0 259.105 -136.798A 293 293 0 0 1 259.33 -136.371A 1.5 1.5 0 0 0 260.909 -135.509C 261.5835741601922 -135.62476899334058 262.2841812014252 -135.73670126141985 263.0103375795586 -135.84389197314056 C 264.94367000274667 -136.1292723196722 267.05776175262804 -136.38103004849896 269.3521722283716 -136.5775997053468 A 302 302 0 0 1 270.817 -133.65C 269.2836430127405 -131.93162272631966 267.8144340677742 -130.390781736155 266.4267128461031 -129.01475629610667 C 265.90548523882035 -128.49792487718048 265.3957841285225 -128.00438274420304 264.8985154808209 -127.53343542716915 A 1.5 1.5 0 0 0 264.641 -125.753A 293 293 0 0 1 264.848 -125.317A 1.5 1.5 0 0 0 266.389 -124.39C 267.0685010951214 -124.47674464623056 267.773203985757 -124.55904224517869 268.50323361282454 -124.63552543147809 C 270.446877984571 -124.83914948927821 272.5697035782972 -125.0015606328666 274.8703610600876 -125.10123115346788 A 302 302 0 0 1 276.21 -122.114C 274.60603448693894 -120.46227331729683 273.0731751288932 -118.98473886105145 271.6286791051112 -117.66843819706376 C 271.0861270392375 -117.17403938031848 270.55607301903933 -116.70242322862883 270.0393929282939 -116.25285769699222 A 1.5 1.5 0 0 0 269.707 -114.485A 293 293 0 0 1 269.896 -114.041A 1.5 1.5 0 0 0 271.396 -113.049C 272.0785899812361 -113.10740518966993 272.7861357852513 -113.15992179735922 273.51874069521716 -113.20556147392324 C 275.46924128675846 -113.32706720684789 277.59702641789215 -113.39984300411147 279.89984042068465 -113.4024371779178 A 302 302 0 0 1 281.113 -110.362C 279.44018645301946 -108.77874638234606 277.8464020498942 -107.36714546236354 276.3476994852175 -106.1129099089813 C 275.7847875985267 -105.64182271747096 275.23532308513285 -105.19297106337613 274.7001501896898 -104.76558662824604 A 1.5 1.5 0 0 0 274.294 -103.014A 293 293 0 0 1 274.463 -102.562A 1.5 1.5 0 0 0 275.921 -101.508C 276.6049330633298 -101.53696489431128 277.31406379010565 -101.55960713812978 278.0479414381748 -101.57432215927899 C 280.0018303306388 -101.61349353456914 282.1307918748661 -101.59650459279624 284.4316680794003 -101.50201780746124 A 302 302 0 0 1 285.515 -98.4129C 283.7775039651989 -96.90181480599094 282.12562820750094 -95.55865719719343 280.57538374039746 -94.36871673945971 C 279.9931128696816 -93.92177874901948 279.42521479094535 -93.4964896343805 278.8725006086826 -93.09204616968603 A 1.5 1.5 0 0 0 278.393 -91.3586A 293 293 0 0 1 278.543 -90.8999A 1.5 1.5 0 0 0 279.955 -89.7854C 280.6394826685824 -89.78599558075965 281.34893750956496 -89.7787232036241 282.08278308806047 -89.76248740658791 C 284.03658633829986 -89.71925477896778 286.16293907968713 -89.61253130387684 288.45778661203735 -89.42113155345675 A 302 302 0 0 1 289.41 -86.2891C 287.61027543122236 -84.85259533914927 285.90324529376704 -83.58026912674936 284.30421520232613 -82.45673943537354 C 283.7036206039446 -82.03474528544028 283.1182986619256 -81.63377485878289 282.5490258984891 -81.25299145024493 A 1.5 1.5 0 0 0 281.997 -79.5414A 293 293 0 0 1 282.127 -79.0767A 1.5 1.5 0 0 0 283.491 -77.9037C 284.1750655150286 -77.87539004362657 284.8835830854007 -77.83821597555811 285.6160918436644 -77.79105822699117 C 287.5663356608001 -77.66549846249498 289.68629902177037 -77.46923020453008 291.97103772677 -77.1812577907964 A 302 302 0 0 1 292.791 -74.0118C 290.9316863232927 -72.65251105432117 289.17253684336964 -71.45327838789348 287.52756414474055 -70.3981570576658 C 286.9097136539717 -70.00185703843829 286.3080085297227 -69.62591821054846 285.72318933131135 -69.26947187717147 A 1.5 1.5 0 0 0 285.099 -67.5826A 293 293 0 0 1 285.21 -67.1129A 1.5 1.5 0 0 0 286.523 -65.8835C 287.2053954653915 -65.82632490490276 287.911716046769 -65.75931524003786 288.6415856109601 -65.68131938469618 C 290.5848025326557 -65.47365572400312 292.6946072957169 -65.1881916409645 294.9651749913254 -64.80415856835987 A 302 302 0 0 1 295.65 -61.603C 293.7358312940521 -60.32325325614675 291.92769017524 -59.199246327608606 290.2396995708508 -58.214409325749706 C 289.6056917033202 -57.84450804419991 288.988673206594 -57.49426922059452 288.38934736040073 -57.16279371095142 A 1.5 1.5 0 0 0 287.695 -55.5038A 293 293 0 0 1 287.786 -55.0298A 1.5 1.5 0 0 0 289.046 -53.7461C 289.7250847036053 -53.6602229626985 290.4279524837702 -53.563496841775894 291.15388517243866 -53.454801553443964 C 293.08662022992115 -53.165403214964506 295.1825152391977 -52.79125085157437 297.43487493891206 -52.31183991688734 A 302 302 0 0 1 297.984 -49.0846C 296.0177246760741 -47.88674291505975 294.16380672729775 -46.83996016771169 292.43579940284326 -45.927158498471194 C 291.7867614014023 -45.58431362557892 291.1555265685693 -45.26039751810505 290.5427596540775 -44.95448218355546 A 1.5 1.5 0 0 0 289.779 -43.3262A 293 293 0 0 1 289.85 -42.8488A 1.5 1.5 0 0 0 291.054 -41.5131C 291.72965331415526 -41.39871510228968 292.4278186198443 -41.27244450082254 293.1485237511611 -41.133243035756394 C 295.0673406120296 -40.76262455917534 297.1455994426805 -40.30044914468185 299.37574653315016 -39.72651272305915 A 302 302 0 0 1 299.789 -36.479C 297.7733093461987 -35.36509169260124 295.8769107659159 -34.397394267967805 294.1119590553588 -33.55825085940275 C 293.44904488588884 -33.24307196084056 292.8047160294461 -32.94605448051663 292.179597523868 -32.66624322736162 A 1.5 1.5 0 0 0 291.348 -31.0716A 293 293 0 0 1 291.399 -30.5916A 1.5 1.5 0 0 0 292.546 -29.2064C 293.21553724720474 -29.063601837192284 293.90775876598246 -28.90801125970203 294.6219549525249 -28.738551113026684 C 296.5234420304242 -28.287371444470402 298.5803696140905 -27.737994709894345 300.7843389751732 -27.070553239348964 A 302 302 0 0 1 301.06 -23.8085C 298.999463938949 -22.78056262769153 297.0639564546303 -21.893671056479526 295.26519837770354 -21.129677874947472 C 294.5895866774061 -20.842725327295184 293.933309390547 -20.573134560362146 293.296950731773 -20.31992488279866 A 1.5 1.5 0 0 0 292.399 -18.7618A 293 293 0 0 1 292.429 -18.2801A 1.5 1.5 0 0 0 293.517 -16.8477C 294.1800946553451 -16.67681454864656 294.86514164261246 -16.492180629502 295.5715590696239 -16.29276309517413 C 297.4523355899205 -15.761824415628414 299.48427478442187 -15.126223132755463 301.6581478390231 -14.366463299865085 A 302 302 0 0 1 301.796 -11.0957C 299.6940083962051 -10.155530553760997 297.72283326952504 -9.351021696818698 295.89346695244734 -8.663537094316002 C 295.2063589342705 -8.405321088731583 294.5393000540614 -8.16363635773487 293.89283266456425 -7.937478453329235 A 1.5 1.5 0 0 0 292.93 -6.41858A 293 293 0 0 1 292.94 -5.93603A 1.5 1.5 0 0 0 293.966 -4.45908" stroke="#191919" stroke-width="0.35 px" style="stroke-width:0.35;stroke-miterlimit:4;stroke-dasharray:none;fill:none;fill-rule: evenodd "/>
<title>b'InvoluteGear'</title>
</g>
</svg>