<?xml version="1.0"?>
<!DOCTYPE svg PUBLIC "-//W3C//DTD SVG 1.1//EN" "http://www.w3.org/Graphics/SVG/1.1/DTD/svg11.dtd">
<svg width="203.97863697024158mm" height="203.97863697024158mm" viewBox="0 0 203.97863697024158 203.97863697024158" xmlns="http://www.w3.org/2000/svg" version="1.1">
<g id="InvoluteGear" transform="translate(101.989318,101.989318) scale(1,-1)">
<path id="InvoluteGear_w0000"  d="M 91.90678968722091 -4.140290978777163 C 92.47338129002965 -4.053176411521868 93.17014647250953 -3.918471253210002 93.99069179194888 -3.7109152110596852 C 95.56751057727821 -3.3118216779947405 97.59042515214009 -2.6471327355526078 99.989527926589 -1.5452102599735777 A 100 100 0 0 1 99.9895 1.54521C 97.59042515214009 2.6471327355526078 95.56751057727821 3.3118216779947405 93.99069179194888 3.7109152110596852 C 93.17014647250953 3.918471253210002 92.47338129002965 4.053176411521868 91.90690296565593 4.140265744976587 A 1.5 1.5 0 0 0 90.8295 5.56874A 91 91 0 0 1 90.7793 6.33453A 1.5 1.5 0 0 0 91.6609 7.89137C 92.21130437725304 8.051697416055635 92.88452608562005 8.276196259205086 93.67096002624838 8.58907928673251 C 95.18219674907023 9.190574671167353 97.10104569264747 10.113620444206761 99.33579406542349 11.519261570145279 A 100 100 0 0 1 98.9324 14.5832C 96.41000538010202 15.362592740282823 94.31763780318927 15.757551840035903 92.70221676194619 15.947414920730576 C 91.86159982160959 16.04609263607719 91.15321301046887 16.088699266945426 90.58021354761007 16.10110328042388 A 1.5 1.5 0 0 0 89.3255 17.3767A 91 91 0 0 1 89.1758 18.1294A 1.5 1.5 0 0 0 89.8467 19.788C 90.37146648077811 20.01880446849216 91.00962570494978 20.329255759030076 91.74849216400226 20.742112256586044 C 93.16828914499516 21.53571773959708 94.95024041985774 22.701326774140423 96.98239722671333 24.38663564105627 A 100 100 0 0 1 96.1825 27.3718C 93.57998368610704 27.815194523911412 91.45396409649831 27.933665921275317 89.82758110123648 27.911049939649043 C 88.98127572891481 27.899160925123738 88.27338798385381 27.848940017281404 87.70367156218491 27.786446474673934 A 1.5 1.5 0 0 0 86.2932 28.8874A 91 91 0 0 1 86.0465 29.6141A 1.5 1.5 0 0 0 86.4952 31.3461C 86.98534773711297 31.64338422621162 87.57752539583255 32.03447605648354 88.2561821633423 32.54024193492942 C 89.56024628251939 33.512378706673324 91.17481020830417 34.90060710897169 92.96960468285374 36.83674761489605 A 100 100 0 0 1 91.787 39.6919C 89.14878252596964 39.79187061740702 87.0254877082871 39.63182723392638 85.41597062297403 39.397119155695115 C 84.57845733822786 39.27486683563268 83.88318081482815 39.13267768273681 83.32649544027916 38.99635586588392 A 1.5 1.5 0 0 0 81.7844 39.9038A 91 91 0 0 1 81.445 40.5921A 1.5 1.5 0 0 0 81.6638 42.3678C 82.11088557677122 42.72653690661703 82.64694934611536 43.19157758697585 83.25378441663109 43.78159905190665 C 84.41980277535835 44.91563358269165 85.83935371565347 46.50272837989208 87.36607642682644 48.65657262396902 A 100 100 0 0 1 85.8209 51.333C 83.19222098010086 51.08769677224799 81.1079810973636 50.65187699458655 79.54286920557142 50.20909274004221 C 78.72847809290535 49.97856888553366 78.05770916524936 49.74684438341261 77.52357987892111 49.539026796396186 A 1.5 1.5 0 0 0 75.8762 50.2374A 91 91 0 0 1 75.4499 50.8755A 1.5 1.5 0 0 0 75.435 52.6646C 75.83148339877252 53.07862669451622 76.30226107902278 53.60965924998737 76.82689133624152 54.273840870553265 C 77.83491303711976 55.55036951514385 79.03516208176288 57.30917507524045 80.26769038068359 59.64387018529537 A 100 100 0 0 1 78.3864 62.0957C 75.81221746802134 61.50939827113032 73.80269444248349 60.80525909651595 72.30876724261174 60.16197482701677 C 71.53143275975536 59.82712376512604 70.89664847016755 59.50982878425725 70.39421437223776 59.23407124360907 A 1.5 1.5 0 0 0 68.6698 59.7114A 91 91 0 0 1 68.1638 60.2884A 1.5 1.5 0 0 0 67.9155 62.0603C 68.25458351536165 62.522526463496696 68.65201996988473 63.11046477982603 69.08546884465044 63.83744222435321 C 69.91824635690124 65.23462322371984 70.87865691196662 67.13504589594632 71.79590189771909 69.61064459134641 A 100 100 0 0 1 69.6106 71.7959C 67.13504589594633 70.8786569119666 65.23462322371985 69.91824635690122 63.83744222435321 69.08546884465044 C 63.110464779826046 68.65201996988472 62.52252646349671 68.25458351536163 62.06038434068201 67.91560430905663 A 1.5 1.5 0 0 0 60.2884 68.1638A 91 91 0 0 1 59.7114 68.6698A 1.5 1.5 0 0 0 59.234 70.3941C 59.509828784257266 70.89664847016753 59.82712376512606 71.53143275975535 60.16197482701679 72.30876724261172 C 60.80525909651597 73.80269444248347 61.509398271130344 75.81221746802133 62.095665627700036 78.38636156872266 A 100 100 0 0 1 59.6439 80.2677C 57.30917507524047 79.03516208176286 55.55036951514387 77.83491303711975 54.273840870553286 76.8268913362415 C 53.60965924998739 76.30226107902277 53.07862669451623 75.8314833987725 52.66468392666799 75.43508255501335 A 1.5 1.5 0 0 0 50.8755 75.4499A 91 91 0 0 1 50.2374 75.8762A 1.5 1.5 0 0 0 49.539 77.5235C 49.74684438341262 78.05770916524935 49.978568885533676 78.72847809290535 50.20909274004222 79.54286920557139 C 50.651876994586566 81.1079810973636 51.08769677224801 83.19222098010084 51.33295530261999 85.82086616685285 A 100 100 0 0 1 48.6566 87.3661C 46.502728379892105 85.83935371565346 44.91563358269166 84.41980277535835 43.78159905190667 83.25378441663109 C 43.19157758697587 82.64694934611536 42.72653690661704 82.11088557677121 42.367876169259745 81.66384562389769 A 1.5 1.5 0 0 0 40.5921 81.445A 91 91 0 0 1 39.9038 81.7844A 1.5 1.5 0 0 0 38.9963 83.3264C 39.132677682736826 83.88318081482815 39.27486683563269 84.57845733822786 39.39711915569512 85.41597062297403 C 39.63182723392638 87.0254877082871 39.79187061740703 89.14878252596964 39.691923880128115 91.78695195082886 A 100 100 0 0 1 36.8367 92.9696C 34.9006071089717 91.17481020830417 33.512378706673324 89.56024628251939 32.540241934929426 88.2561821633423 C 32.03447605648354 87.57752539583255 31.643384226211626 86.98534773711297 31.346142304001003 86.49531765266164 A 1.5 1.5 0 0 0 29.6141 86.0465A 91 91 0 0 1 28.8874 86.2932A 1.5 1.5 0 0 0 27.7864 87.7036C 27.848940017281425 88.2733879838538 27.89916092512376 88.9812757289148 27.91104993964906 89.82758110123646 C 27.933665921275338 91.4539640964983 27.815194523911437 93.57998368610703 27.371752635366946 96.18253753877536 A 100 100 0 0 1 24.3866 96.9824C 22.701326774140448 94.95024041985772 21.5357177395971 93.16828914499514 20.74211225658606 91.74849216400224 C 20.329255759030097 91.00962570494977 20.01880446849218 90.3714664807781 19.788067253128286 89.84683081535593 A 1.5 1.5 0 0 0 18.1294 89.1758A 91 91 0 0 1 17.3767 89.3255A 1.5 1.5 0 0 0 16.1011 90.5801C 16.08869926694544 91.15321301046887 16.0460926360772 91.86159982160959 15.947414920730589 92.70221676194619 C 15.757551840035916 94.31763780318927 15.362592740282837 96.41000538010202 14.58324311413108 98.93241324259607 A 100 100 0 0 1 11.5193 99.3358C 10.113620444206775 97.10104569264747 9.190574671167365 95.18219674907023 8.589079286732522 93.67096002624838 C 8.276196259205099 92.88452608562005 8.051697416055646 92.21130437725304 7.891412885265798 91.66103979255189 A 1.5 1.5 0 0 0 6.33453 90.7793A 91 91 0 0 1 5.56874 90.8295A 1.5 1.5 0 0 0 4.14029 91.9068C 4.053176411521873 92.47338129002965 3.918471253210008 93.17014647250953 3.710915211059691 93.99069179194888 C 3.3118216779947462 95.56751057727821 2.6471327355526135 97.59042515214009 1.545210259973584 99.989527926589 A 100 100 0 0 1 -1.54521 99.9895C -2.647132735552602 97.59042515214009 -3.3118216779947347 95.56751057727821 -3.7109152110596795 93.99069179194888 C -3.9184712532099963 93.17014647250953 -4.0531764115218625 92.47338129002965 -4.140265744976582 91.90690296565593 A 1.5 1.5 0 0 0 -5.56874 90.8295A 91 91 0 0 1 -6.33453 90.7793A 1.5 1.5 0 0 0 -7.89137 91.6609C -8.051697416055616 92.21130437725306 -8.276196259205069 92.88452608562007 -8.589079286732492 93.6709600262484 C -9.190574671167335 95.18219674907024 -10.113620444206743 97.10104569264749 -11.51926157014526 99.3357940654235 A 100 100 0 0 1 -14.5832 98.9324C -15.362592740282805 96.41000538010204 -15.757551840035886 94.31763780318929 -15.947414920730559 92.7022167619462 C -16.046092636077173 91.8615998216096 -16.08869926694541 91.15321301046889 -16.101103280423864 90.58021354761009 A 1.5 1.5 0 0 0 -17.3767 89.3255A 91 91 0 0 1 -18.1294 89.1758A 1.5 1.5 0 0 0 -19.788 89.8467C -20.01880446849215 90.37146648077811 -20.329255759030065 91.00962570494978 -20.742112256586033 91.74849216400226 C -21.535717739597068 93.16828914499516 -22.701326774140412 94.95024041985774 -24.38663564105626 96.98239722671333 A 100 100 0 0 1 -27.3718 96.1825C -27.8151945239114 93.57998368610704 -27.933665921275306 91.45396409649831 -27.911049939649033 89.82758110123648 C -27.899160925123727 88.98127572891481 -27.848940017281393 88.27338798385381 -27.786446474673923 87.70367156218491 A 1.5 1.5 0 0 0 -28.8874 86.2932A 91 91 0 0 1 -29.6141 86.0465A 1.5 1.5 0 0 0 -31.3461 86.4952C -31.643384226211598 86.98534773711299 -32.034476056483506 87.57752539583257 -32.54024193492939 88.25618216334232 C -33.512378706673296 89.5602462825194 -34.90060710897166 91.17481020830418 -36.83674761489602 92.96960468285376 A 100 100 0 0 1 -39.6919 91.787C -39.79187061740699 89.14878252596965 -39.63182723392635 87.02548770828712 -39.39711915569509 85.41597062297404 C -39.27486683563266 84.57845733822788 -39.1326776827368 83.88318081482817 -38.9963558658839 83.32649544027916 A 1.5 1.5 0 0 0 -39.9038 81.7844A 91 91 0 0 1 -40.5921 81.445A 1.5 1.5 0 0 0 -42.3678 81.6638C -42.726536906617014 82.11088557677122 -43.19157758697583 82.64694934611536 -43.78159905190664 83.2537844166311 C -44.91563358269163 84.41980277535836 -46.50272837989207 85.83935371565347 -48.656572623969005 87.36607642682645 A 100 100 0 0 1 -51.333 85.8209C -51.08769677224797 83.19222098010086 -50.65187699458654 81.10798109736362 -50.209092740042195 79.54286920557144 C -49.978568885533655 78.72847809290538 -49.74684438341259 78.05770916524936 -49.53902679639617 77.52357987892113 A 1.5 1.5 0 0 0 -50.2374 75.8762A 91 91 0 0 1 -50.8755 75.4499A 1.5 1.5 0 0 0 -52.6646 75.435C -53.078626694516196 75.83148339877253 -53.609659249987345 76.30226107902281 -54.273840870553244 76.82689133624153 C -55.55036951514383 77.83491303711978 -57.309175075240425 79.03516208176289 -59.64387018529534 80.2676903806836 A 100 100 0 0 1 -62.0957 78.3864C -61.5093982711303 75.81221746802136 -60.805259096515925 73.8026944424835 -60.16197482701675 72.30876724261175 C -59.82712376512602 71.53143275975539 -59.50982878425723 70.89664847016756 -59.23407124360906 70.39421437223778 A 1.5 1.5 0 0 0 -59.7114 68.6698A 91 91 0 0 1 -60.2884 68.1638A 1.5 1.5 0 0 0 -62.0603 67.9155C -62.522526463496696 68.25458351536165 -63.11046477982603 68.65201996988473 -63.83744222435321 69.08546884465044 C -65.23462322371984 69.91824635690124 -67.13504589594632 70.87865691196662 -69.61064459134641 71.79590189771909 A 100 100 0 0 1 -71.7959 69.6106C -70.8786569119666 67.13504589594633 -69.91824635690122 65.23462322371985 -69.08546884465044 63.83744222435321 C -68.65201996988472 63.110464779826046 -68.25458351536163 62.52252646349671 -67.91560430905663 62.06038434068201 A 1.5 1.5 0 0 0 -68.1638 60.2884A 91 91 0 0 1 -68.6698 59.7114A 1.5 1.5 0 0 0 -70.3941 59.234C -70.89664847016752 59.50982878425728 -71.53143275975535 59.827123765126075 -72.30876724261171 60.161974827016806 C -73.80269444248346 60.80525909651598 -75.81221746802132 61.50939827113035 -78.38636156872265 62.09566562770005 A 100 100 0 0 1 -80.2677 59.6439C -79.03516208176285 57.309175075240475 -77.83491303711973 55.550369515143885 -76.82689133624149 54.2738408705533 C -76.30226107902277 53.6096592499874 -75.83148339877249 53.078626694516245 -75.43508255501334 52.664683926668 A 1.5 1.5 0 0 0 -75.4499 50.8755A 91 91 0 0 1 -75.8762 50.2374A 1.5 1.5 0 0 0 -77.5235 49.539C -78.05770916524934 49.74684438341264 -78.72847809290533 49.9785688855337 -79.54286920557138 50.209092740042244 C -81.10798109736359 50.65187699458659 -83.19222098010083 51.08769677224803 -85.82086616685285 51.332955302620014 A 100 100 0 0 1 -87.3661 48.6566C -85.83935371565344 46.502728379892126 -84.41980277535833 44.91563358269168 -83.25378441663108 43.78159905190669 C -82.64694934611535 43.19157758697589 -82.1108855767712 42.72653690661706 -81.66384562389769 42.367876169259766 A 1.5 1.5 0 0 0 -81.445 40.5921A 91 91 0 0 1 -81.7844 39.9038A 1.5 1.5 0 0 0 -83.3264 38.9963C -83.88318081482815 39.132677682736826 -84.57845733822786 39.27486683563269 -85.41597062297403 39.39711915569512 C -87.0254877082871 39.63182723392638 -89.14878252596964 39.79187061740703 -91.78695195082886 39.691923880128115 A 100 100 0 0 1 -92.9696 36.8367C -91.17481020830417 34.9006071089717 -89.56024628251939 33.512378706673324 -88.2561821633423 32.540241934929426 C -87.57752539583255 32.03447605648354 -86.98534773711297 31.643384226211626 -86.49531765266164 31.346142304001003 A 1.5 1.5 0 0 0 -86.0465 29.6141A 91 91 0 0 1 -86.2932 28.8874A 1.5 1.5 0 0 0 -87.7036 27.7864C -88.2733879838538 27.84894001728143 -88.9812757289148 27.899160925123763 -89.82758110123646 27.911049939649068 C -91.4539640964983 27.93366592127534 -93.57998368610703 27.81519452391144 -96.18253753877536 27.37175263536695 A 100 100 0 0 1 -96.9824 24.3866C -94.95024041985772 22.70132677414045 -93.16828914499514 21.535717739597104 -91.74849216400224 20.74211225658607 C -91.00962570494977 20.3292557590301 -90.3714664807781 20.018804468492185 -89.84683081535593 19.78806725312829 A 1.5 1.5 0 0 0 -89.1758 18.1294A 91 91 0 0 1 -89.3255 17.3767A 1.5 1.5 0 0 0 -90.5801 16.1011C -91.15321301046887 16.088699266945465 -91.86159982160959 16.04609263607723 -92.70221676194619 15.947414920730616 C -94.31763780318927 15.757551840035942 -96.41000538010202 15.362592740282864 -98.93241324259607 14.583243114131106 A 100 100 0 0 1 -99.3358 11.5193C -97.10104569264747 10.113620444206802 -95.18219674907023 9.190574671167392 -93.67096002624838 8.589079286732549 C -92.88452608562005 8.276196259205125 -92.21130437725304 8.051697416055674 -91.66103979255189 7.891412885265823 A 1.5 1.5 0 0 0 -90.7793 6.33453A 91 91 0 0 1 -90.8295 5.56874A 1.5 1.5 0 0 0 -91.9068 4.14029C -92.47338129002965 4.053176411521879 -93.17014647250953 3.9184712532100137 -93.99069179194888 3.710915211059697 C -95.56751057727821 3.311821677994752 -97.59042515214009 2.6471327355526197 -99.989527926589 1.54521025997359 A 100 100 0 0 1 -99.9895 -1.54521C -97.59042515214009 -2.6471327355525958 -95.56751057727821 -3.311821677994729 -93.99069179194888 -3.7109152110596737 C -93.17014647250953 -3.9184712532099906 -92.47338129002965 -4.053176411521856 -91.90690296565593 -4.140265744976576 A 1.5 1.5 0 0 0 -90.8295 -5.56874A 91 91 0 0 1 -90.7793 -6.33453A 1.5 1.5 0 0 0 -91.6609 -7.89137C -92.21130437725306 -8.05169741605561 -92.88452608562007 -8.276196259205063 -93.6709600262484 -8.589079286732485 C -95.18219674907024 -9.19057467116733 -97.10104569264749 -10.113620444206738 -99.3357940654235 -11.519261570145254 A 100 100 0 0 1 -98.9324 -14.5832C -96.41000538010204 -15.3625927402828 -94.31763780318929 -15.75755184003588 -92.7022167619462 -15.947414920730555 C -91.8615998216096 -16.04609263607717 -91.15321301046889 -16.088699266945405 -90.58021354761009 -16.10110328042386 A 1.5 1.5 0 0 0 -89.3255 -17.3767A 91 91 0 0 1 -89.1758 -18.1294A 1.5 1.5 0 0 0 -89.8467 -19.788C -90.37146648077812 -20.018804468492124 -91.00962570494978 -20.32925575903004 -91.74849216400227 -20.742112256586005 C -93.16828914499517 -21.535717739597043 -94.95024041985775 -22.701326774140387 -96.98239722671335 -24.386635641056234 A 100 100 0 0 1 -96.1825 -27.3718C -93.57998368610706 -27.815194523911376 -91.45396409649832 -27.93366592127528 -89.82758110123649 -27.911049939649004 C -88.98127572891481 -27.899160925123702 -88.27338798385382 -27.848940017281368 -87.70367156218492 -27.786446474673898 A 1.5 1.5 0 0 0 -86.2932 -28.8874A 91 91 0 0 1 -86.0465 -29.6141A 1.5 1.5 0 0 0 -86.4952 -31.3461C -86.98534773711297 -31.64338422621157 -87.57752539583257 -32.034476056483484 -88.25618216334232 -32.54024193492937 C -89.56024628251942 -33.51237870667327 -91.1748102083042 -34.90060710897164 -92.96960468285376 -36.83674761489599 A 100 100 0 0 1 -91.787 -39.6919C -89.14878252596966 -39.79187061740697 -87.02548770828713 -39.63182723392632 -85.41597062297404 -39.397119155695066 C -84.5784573382279 -39.274866835632636 -83.88318081482818 -39.13267768273677 -83.32649544027917 -38.99635586588388 A 1.5 1.5 0 0 0 -81.7844 -39.9038A 91 91 0 0 1 -81.445 -40.5921A 1.5 1.5 0 0 0 -81.6638 -42.3678C -82.11088557677122 -42.726536906617014 -82.64694934611536 -43.19157758697583 -83.2537844166311 -43.78159905190664 C -84.41980277535836 -44.91563358269163 -85.83935371565347 -46.50272837989207 -87.36607642682645 -48.656572623969005 A 100 100 0 0 1 -85.8209 -51.333C -83.19222098010086 -51.08769677224797 -81.10798109736362 -50.65187699458654 -79.54286920557144 -50.209092740042195 C -78.72847809290538 -49.978568885533655 -78.05770916524936 -49.74684438341259 -77.52357987892113 -49.53902679639617 A 1.5 1.5 0 0 0 -75.8762 -50.2374A 91 91 0 0 1 -75.4499 -50.8755A 1.5 1.5 0 0 0 -75.435 -52.6646C -75.83148339877253 -53.078626694516196 -76.30226107902281 -53.609659249987345 -76.82689133624153 -54.273840870553244 C -77.83491303711978 -55.55036951514383 -79.03516208176289 -57.309175075240425 -80.2676903806836 -59.64387018529534 A 100 100 0 0 1 -78.3864 -62.0957C -75.81221746802136 -61.5093982711303 -73.8026944424835 -60.805259096515925 -72.30876724261175 -60.16197482701675 C -71.53143275975539 -59.82712376512602 -70.89664847016756 -59.50982878425723 -70.39421437223778 -59.23407124360906 A 1.5 1.5 0 0 0 -68.6698 -59.7114A 91 91 0 0 1 -68.1638 -60.2884A 1.5 1.5 0 0 0 -67.9155 -62.0603C -68.25458351536167 -62.52252646349667 -68.65201996988476 -63.110464779826 -69.08546884465046 -63.83744222435317 C -69.91824635690126 -65.23462322371981 -70.87865691196664 -67.13504589594628 -71.79590189771913 -69.61064459134636 A 100 100 0 0 1 -69.6106 -71.7959C -67.13504589594636 -70.87865691196656 -65.23462322371988 -69.9182463569012 -63.83744222435324 -69.08546884465039 C -63.110464779826074 -68.65201996988469 -62.52252646349674 -68.25458351536162 -62.06038434068205 -67.9156043090566 A 1.5 1.5 0 0 0 -60.2884 -68.1638A 91 91 0 0 1 -59.7114 -68.6698A 1.5 1.5 0 0 0 -59.234 -70.3941C -59.50982878425728 -70.89664847016752 -59.827123765126075 -71.53143275975535 -60.161974827016806 -72.30876724261171 C -60.80525909651598 -73.80269444248346 -61.50939827113035 -75.81221746802132 -62.09566562770005 -78.38636156872265 A 100 100 0 0 1 -59.6439 -80.2677C -57.309175075240475 -79.03516208176285 -55.550369515143885 -77.83491303711973 -54.2738408705533 -76.82689133624149 C -53.6096592499874 -76.30226107902277 -53.078626694516245 -75.83148339877249 -52.664683926668 -75.43508255501334 A 1.5 1.5 0 0 0 -50.8755 -75.4499A 91 91 0 0 1 -50.2374 -75.8762A 1.5 1.5 0 0 0 -49.539 -77.5235C -49.74684438341265 -78.05770916524932 -49.97856888553371 -78.72847809290532 -50.20909274004226 -79.54286920557138 C -50.6518769945866 -81.10798109736358 -51.08769677224804 -83.19222098010081 -51.33295530262002 -85.82086616685284 A 100 100 0 0 1 -48.6566 -87.3661C -46.50272837989213 -85.83935371565343 -44.9156335826917 -84.41980277535832 -43.7815990519067 -83.25378441663108 C -43.1915775869759 -82.64694934611533 -42.726536906617085 -82.11088557677118 -42.36787616925978 -81.66384562389767 A 1.5 1.5 0 0 0 -40.5921 -81.445A 91 91 0 0 1 -39.9038 -81.7844A 1.5 1.5 0 0 0 -38.9963 -83.3264C -39.13267768273687 -83.88318081482814 -39.27486683563273 -84.57845733822785 -39.39711915569516 -85.41597062297399 C -39.63182723392643 -87.02548770828709 -39.79187061740708 -89.14878252596961 -39.691923880128165 -91.78695195082884 A 100 100 0 0 1 -36.8367 -92.9696C -34.90060710897175 -91.17481020830414 -33.512378706673374 -89.56024628251937 -32.540241934929476 -88.25618216334229 C -32.03447605648359 -87.57752539583254 -31.643384226211676 -86.98534773711296 -31.346142304001045 -86.49531765266163 A 1.5 1.5 0 0 0 -29.6141 -86.0465A 91 91 0 0 1 -28.8874 -86.2932A 1.5 1.5 0 0 0 -27.7864 -87.7036C -27.84894001728147 -88.2733879838538 -27.899160925123805 -88.98127572891478 -27.91104993964911 -89.82758110123646 C -27.933665921275384 -91.4539640964983 -27.815194523911483 -93.57998368610701 -27.371752635366995 -96.18253753877536 A 100 100 0 0 1 -24.3866 -96.9824C -22.701326774140494 -94.9502404198577 -21.535717739597146 -93.16828914499514 -20.74211225658611 -91.74849216400224 C -20.329255759030143 -91.00962570494976 -20.018804468492227 -90.3714664807781 -19.788067253128332 -89.84683081535593 A 1.5 1.5 0 0 0 -18.1294 -89.1758A 91 91 0 0 1 -17.3767 -89.3255A 1.5 1.5 0 0 0 -16.1011 -90.5801C -16.088699266945515 -91.15321301046886 -16.04609263607728 -91.86159982160957 -15.947414920730665 -92.70221676194619 C -15.757551840035994 -94.31763780318927 -15.362592740282915 -96.410005380102 -14.58324311413116 -98.93241324259606 A 100 100 0 0 1 -11.5193 -99.3358C -10.113620444206854 -97.10104569264746 -9.190574671167443 -95.18219674907023 -8.589079286732598 -93.67096002624838 C -8.276196259205175 -92.88452608562004 -8.05169741605572 -92.21130437725303 -7.891412885265873 -91.66103979255189 A 1.5 1.5 0 0 0 -6.33453 -90.7793A 91 91 0 0 1 -5.56874 -90.8295A 1.5 1.5 0 0 0 -4.14029 -91.9068C -4.053176411521885 -92.47338129002965 -3.9184712532100194 -93.17014647250953 -3.7109152110597026 -93.99069179194888 C -3.3118216779947582 -95.56751057727821 -2.6471327355526255 -97.59042515214009 -1.5452102599735962 -99.989527926589 A 100 100 0 0 1 1.54521 -99.9895C 2.64713273555259 -97.59042515214009 3.3118216779947227 -95.56751057727821 3.710915211059668 -93.99069179194888 C 3.918471253209985 -93.17014647250953 4.053176411521851 -92.47338129002965 4.1402657449765705 -91.90690296565593 A 1.5 1.5 0 0 0 5.56874 -90.8295A 91 91 0 0 1 6.33453 -90.7793A 1.5 1.5 0 0 0 7.89137 -91.6609C 8.051697416055603 -92.21130437725306 8.276196259205056 -92.88452608562007 8.589079286732478 -93.6709600262484 C 9.19057467116732 -95.18219674907024 10.11362044420673 -97.10104569264749 11.519261570145245 -99.3357940654235 A 100 100 0 0 1 14.5832 -98.9324C 15.36259274028279 -96.41000538010204 15.757551840035871 -94.31763780318929 15.947414920730544 -92.7022167619462 C 16.046092636077162 -91.8615998216096 16.088699266945397 -91.15321301046889 16.101103280423853 -90.58021354761009 A 1.5 1.5 0 0 0 17.3767 -89.3255A 91 91 0 0 1 18.1294 -89.1758A 1.5 1.5 0 0 0 19.788 -89.8467C 20.018804468492117 -90.37146648077812 20.329255759030033 -91.00962570494978 20.742112256586 -91.74849216400227 C 21.535717739597036 -93.16828914499517 22.70132677414038 -94.95024041985775 24.386635641056227 -96.98239722671335 A 100 100 0 0 1 27.3718 -96.1825C 27.81519452391137 -93.57998368610706 27.933665921275274 -91.45396409649832 27.911049939649 -89.82758110123649 C 27.899160925123702 -88.98127572891481 27.84894001728136 -88.27338798385382 27.786446474673895 -87.70367156218492 A 1.5 1.5 0 0 0 28.8874 -86.2932A 91 91 0 0 1 29.6141 -86.0465A 1.5 1.5 0 0 0 31.3461 -86.4952C 31.643384226211563 -86.98534773711297 32.03447605648348 -87.57752539583257 32.54024193492936 -88.25618216334232 C 33.51237870667326 -89.56024628251942 34.900607108971634 -91.1748102083042 36.83674761489599 -92.96960468285376 A 100 100 0 0 1 39.6919 -91.787C 39.791870617406964 -89.14878252596966 39.631827233926316 -87.02548770828713 39.39711915569506 -85.41597062297404 C 39.27486683563263 -84.5784573382279 39.13267768273676 -83.88318081482818 38.99635586588387 -83.32649544027917 A 1.5 1.5 0 0 0 39.9038 -81.7844A 91 91 0 0 1 40.5921 -81.445A 1.5 1.5 0 0 0 42.3678 -81.6638C 42.72653690661697 -82.11088557677125 43.19157758697579 -82.64694934611539 43.78159905190659 -83.25378441663112 C 44.915633582691584 -84.41980277535839 46.50272837989202 -85.8393537156535 48.656572623968955 -87.36607642682647 A 100 100 0 0 1 51.333 -85.8209C 51.087696772247924 -83.19222098010088 50.65187699458649 -81.10798109736365 50.209092740042145 -79.54286920557145 C 49.97856888553361 -78.7284780929054 49.74684438341255 -78.05770916524939 49.53902679639613 -77.52357987892115 A 1.5 1.5 0 0 0 50.2374 -75.8762A 91 91 0 0 1 50.8755 -75.4499A 1.5 1.5 0 0 0 52.6646 -75.435C 53.07862669451615 -75.83148339877256 53.6096592499873 -76.30226107902284 54.273840870553194 -76.82689133624156 C 55.55036951514378 -77.8349130371198 57.30917507524038 -79.03516208176293 59.6438701852953 -80.26769038068365 A 100 100 0 0 1 62.0957 -78.3864C 61.50939827113026 -75.8122174680214 60.80525909651589 -73.80269444248353 60.161974827016714 -72.30876724261178 C 59.82712376512599 -71.53143275975542 59.50982878425719 -70.89664847016759 59.234071243609016 -70.39421437223781 A 1.5 1.5 0 0 0 59.7114 -68.6698A 91 91 0 0 1 60.2884 -68.1638A 1.5 1.5 0 0 0 62.0603 -67.9155C 62.522526463496696 -68.25458351536165 63.11046477982603 -68.65201996988473 63.83744222435321 -69.08546884465045 C 65.23462322371984 -69.91824635690124 67.13504589594632 -70.87865691196662 69.61064459134641 -71.7959018977191 A 100 100 0 0 1 71.7959 -69.6106C 70.8786569119666 -67.13504589594633 69.91824635690122 -65.23462322371985 69.08546884465044 -63.837442224353225 C 68.65201996988472 -63.110464779826046 68.25458351536163 -62.52252646349671 67.91560430905663 -62.06038434068201 A 1.5 1.5 0 0 0 68.1638 -60.2884A 91 91 0 0 1 68.6698 -59.7114A 1.5 1.5 0 0 0 70.3941 -59.234C 70.89664847016752 -59.50982878425728 71.53143275975535 -59.827123765126075 72.30876724261171 -60.161974827016806 C 73.80269444248346 -60.80525909651598 75.81221746802132 -61.50939827113035 78.38636156872265 -62.09566562770005 A 100 100 0 0 1 80.2677 -59.6439C 79.03516208176285 -57.309175075240475 77.83491303711973 -55.550369515143885 76.82689133624149 -54.2738408705533 C 76.30226107902277 -53.6096592499874 75.83148339877249 -53.078626694516245 75.43508255501334 -52.664683926668 A 1.5 1.5 0 0 0 75.4499 -50.8755A 91 91 0 0 1 75.8762 -50.2374A 1.5 1.5 0 0 0 77.5235 -49.539C 78.05770916524932 -49.74684438341265 78.72847809290532 -49.97856888553371 79.54286920557138 -50.20909274004226 C 81.10798109736358 -50.6518769945866 83.19222098010081 -51.08769677224804 85.82086616685284 -51.33295530262002 A 100 100 0 0 1 87.3661 -48.6566C 85.83935371565343 -46.50272837989213 84.41980277535832 -44.9156335826917 83.25378441663108 -43.7815990519067 C 82.64694934611533 -43.1915775869759 82.11088557677118 -42.726536906617085 81.66384562389767 -42.36787616925978 A 1.5 1.5 0 0 0 81.445 -40.5921A 91 91 0 0 1 81.7844 -39.9038A 1.5 1.5 0 0 0 83.3264 -38.9963C 83.88318081482814 -39.13267768273687 84.57845733822785 -39.274866835632736 85.41597062297399 -39.397119155695165 C 87.02548770828709 -39.63182723392644 89.14878252596961 -39.791870617407085 91.78695195082884 -39.69192388012817 A 100 100 0 0 1 92.9696 -36.8367C 91.17481020830414 -34.900607108971755 89.56024628251937 -33.51237870667338 88.25618216334229 -32.54024193492948 C 87.57752539583254 -32.0344760564836 86.98534773711296 -31.643384226211676 86.49531765266163 -31.346142304001052 A 1.5 1.5 0 0 0 86.0465 -29.6141A 91 91 0 0 1 86.2932 -28.8874A 1.5 1.5 0 0 0 87.7036 -27.7864C 88.2733879838538 -27.84894001728147 88.98127572891478 -27.899160925123812 89.82758110123646 -27.91104993964911 C 91.4539640964983 -27.93366592127539 93.57998368610701 -27.81519452391149 96.18253753877536 -27.371752635366995 A 100 100 0 0 1 96.9824 -24.3866C 94.9502404198577 -22.7013267741405 93.16828914499514 -21.535717739597153 91.74849216400224 -20.74211225658612 C 91.00962570494976 -20.32925575903015 90.3714664807781 -20.018804468492235 89.84683081535593 -19.788067253128336 A 1.5 1.5 0 0 0 89.1758 -18.1294A 91 91 0 0 1 89.3255 -17.3767A 1.5 1.5 0 0 0 90.5801 -16.1011C 91.15321301046886 -16.088699266945518 91.86159982160957 -16.046092636077283 92.70221676194619 -15.94741492073067 C 94.31763780318927 -15.757551840036 96.410005380102 -15.36259274028292 98.93241324259606 -14.583243114131164 A 100 100 0 0 1 99.3358 -11.5193C 97.10104569264746 -10.113620444206859 95.18219674907023 -9.190574671167449 93.67096002624838 -8.589079286732604 C 92.88452608562004 -8.276196259205182 92.21130437725303 -8.051697416055728 91.66103979255189 -7.891412885265878 A 1.5 1.5 0 0 0 90.7793 -6.33453A 91 91 0 0 1 90.8295 -5.56874A 1.5 1.5 0 0 0 91.9068 -4.14029" stroke="#191919" stroke-width="0.35 px" style="stroke-width:0.35;stroke-miterlimit:4;stroke-dasharray:none;fill:none;fill-rule: evenodd "/>
<title>b'InvoluteGear'</title>
</g>
</svg>