<?xml version="1.0"?>
<!DOCTYPE svg PUBLIC "-//W3C//DTD SVG 1.1//EN" "http://www.w3.org/Graphics/SVG/1.1/DTD/svg11.dtd">
<svg width="322.2365819124559mm" height="322.3023292682179mm" viewBox="0 0 322.2365819124559 322.3023292682179" xmlns="http://www.w3.org/2000/svg" version="1.1">
<g id="InvoluteGear" transform="translate(161.085070,161.151165) scale(1,-1)">
<path id="InvoluteGear_w0000"  d="M 149.93768604806877 -4.323228255686509 C 150.56994717335112 -4.170193062684033 151.2556713442119 -3.987678332217547 151.9927281970081 -3.7702036098442657 C 153.72295798181574 -3.259637892550725 155.73367944376463 -2.557376015370655 157.9923301336354 -1.5945297674790493 A 158 158 0 0 1 157.992 1.59453C 155.73367944376463 2.557376015370655 153.72295798181574 3.259637892550725 151.9927281970081 3.7702036098442657 C 151.2556713442119 3.987678332217547 150.56994717335112 4.170193062684033 149.937698884373 4.323223885333433 A 1.5 1.5 0 0 0 148.888 5.77855A 149 149 0 0 1 148.863 6.37642A 1.5 1.5 0 0 0 149.791 7.91247C 150.4088475440704 8.116531428534334 151.0774133794038 8.354331742169363 151.79429152751499 8.631159811349221 C 153.47714826962732 9.281056453468635 155.42393835931304 10.144874077961072 157.59659266750722 11.28861753390649 A 158 158 0 0 1 157.337 14.4671C 155.00703858576642 15.242607193257433 152.94576677113798 15.778639886197555 151.1796783373851 16.146476948054048 C 150.42734777165342 16.303151065224164 149.7290286464858 16.429165607103663 149.08641067881766 16.530153127256387 A 1.5 1.5 0 0 0 147.921 17.8951A 149 149 0 0 1 147.848 18.489A 1.5 1.5 0 0 0 148.648 20.0955C 149.246801850097 20.34924174222923 149.89376015457447 20.64074511717985 150.58568889220152 20.97508428803931 C 152.20997345765159 21.75998690005669 154.07987660822508 22.779611708090375 156.1520758787843 24.096640948094674 A 158 158 0 0 1 155.634 27.2433C 153.24885146034117 27.826401335126253 151.15074671687358 28.19263763469408 149.36055266131797 28.41529814615571 C 148.59795501843996 28.510129017722303 147.89168813752897 28.578804765029542 147.24297700772115 28.62707692740074 A 1.5 1.5 0 0 0 145.971 29.8925A 149 149 0 0 1 145.849 30.4785A 1.5 1.5 0 0 0 146.515 32.1448C 147.09154331380023 32.44653120951815 147.7125886866461 32.789797738918736 148.37496334220032 33.17942303943781 C 149.92986638519312 34.09410822397 151.71043869969958 35.26275478067372 153.66839278836719 36.7443051924392 A 158 158 0 0 1 152.895 39.8383C 150.4708185127281 40.22501536714286 148.3498433813262 40.41901803118951 146.5474571500464 40.495020223288904 C 145.77966739151566 40.527376765447684 145.07015284442792 40.53825669241504 144.41966561801948 40.533492253728475 A 1.5 1.5 0 0 0 143.048 41.691A 149 149 0 0 1 142.88 42.2651A 1.5 1.5 0 0 0 143.408 43.9802C 143.95741482514651 44.32789436490856 144.54841431186972 44.72063966664095 145.17682689130254 45.16295820472832 C 146.65200078862793 46.20133888278469 148.3313928520881 47.51123003813669 150.16207189744364 49.147442148111665 A 158 158 0 0 1 149.14 52.1681C 146.69142709385036 52.355938558551514 144.5616963140774 52.376416531355936 142.75911249006975 52.30525462204415 C 141.9912401300529 52.27492150734551 141.28319961903762 52.22793320985407 140.6352651811975 52.17016387666314 A 1.5 1.5 0 0 0 139.174 53.2121A 149 149 0 0 1 138.959 53.7705A 1.5 1.5 0 0 0 139.346 55.5229C 139.86527349213304 55.914262696888265 140.42229408865754 56.35387311576783 141.01256260993358 56.84594133452997 C 142.39819032269142 58.0011072540188 143.96522605800314 59.44352589849704 145.65644719304055 61.22351098504562 A 158 158 0 0 1 144.391 64.1508C 141.9358284300449 64.13844161697483 139.81151500885946 63.98525862100664 138.0207294900673 63.76740618104925 C 137.25788459243026 63.6745852713669 136.55603001026975 63.57004144878396 135.9149602577801 63.45965166646976 A 1.5 1.5 0 0 0 134.374 64.379A 149 149 0 0 1 134.114 64.9181A 1.5 1.5 0 0 0 134.356 66.6961C 134.84235184017524 67.12853083582418 135.36168666633301 67.6120808370439 135.90988298983072 68.15062410367047 C 137.19674339420504 69.41488782598653 138.6409944370925 70.98023490149433 140.18150286418998 72.8921474575424 A 158 158 0 0 1 138.682 75.7066C 136.2356702458008 75.4941139285352 134.1309111385338 75.16828937135914 132.36384130712597 74.80519617280096 C 131.61110047880192 74.65050517597446 130.92010255194265 74.48910155019077 130.2901636982372 74.32682594454158 A 1.5 1.5 0 0 0 128.679 75.1175A 149 149 0 0 1 128.377 75.6337A 1.5 1.5 0 0 0 128.473 77.4255C 128.92207658414313 77.89606967747567 129.40026955235038 78.42034131555755 129.90274552198278 79.00177571346254 C 131.08227477429958 80.36672377212265 132.39412987235704 82.0445821521366 133.7736737620982 84.07569871506705 A 158 158 0 0 1 132.05 86.7585C 129.62888615337437 86.34738536755319 127.55768818462386 85.85108755784002 125.8260935987823 85.34516992601127 C 125.08846620579024 85.12963828510229 124.4129234114288 84.91244897061772 123.7983075956464 84.69936745901555 A 1.5 1.5 0 0 0 122.128 85.3561A 149 149 0 0 1 121.785 85.8459A 1.5 1.5 0 0 0 121.735 87.6396C 122.14384617908894 88.14522302737039 122.57771499403853 88.70672736106175 123.0311267151305 89.32718354025702 C 124.09547524282415 90.78373243113137 125.26620421681488 92.56293624495963 126.47560293222229 94.69974006915677 A 158 158 0 0 1 124.539 97.2331C 122.15944321085797 96.6260292032659 120.13558986138237 95.96256092105588 118.4509939973829 95.31718565432585 C 117.73338882832326 95.04224769684441 117.07779679229941 94.77071805271315 116.48259418128961 94.50824865746173 A 1.5 1.5 0 0 0 114.765 95.0267A 149 149 0 0 1 114.382 95.4868A 1.5 1.5 0 0 0 114.186 97.2705C 114.55276863002901 97.80778446095613 114.93942596634076 98.4027847715579 115.34075605869606 99.058133698539 C 116.28284079791997 100.59659032907248 117.30465263967874 102.46529926888198 118.33585783183806 104.6935702774436 A 158 158 0 0 1 116.199 107.061C 113.87704932866275 106.26164275680355 111.91400900859053 105.43541927405022 110.28762257396929 104.65488123833958 C 109.59481517284564 104.32236663103116 108.96353675199406 103.99830364223567 108.3917083209316 103.688193053856 A 1.5 1.5 0 0 0 106.637 104.065A 149 149 0 0 1 106.218 104.492A 1.5 1.5 0 0 0 105.878 106.254C 106.19936130561271 106.8194512261027 106.53623402250744 107.44398788471605 106.88281170057627 108.12986832049883 C 107.69636323282393 109.73999451564269 108.56245795313092 111.68577263175428 109.40860712162521 113.99068204875726 A 158 158 0 0 1 107.086 116.176C 104.83682247157591 115.19010260973164 102.94765889035827 114.20662230739545 101.39030521850282 113.29611585455216 C 100.72690610426446 112.90823742726732 100.12414235232231 112.5337976795314 99.57949352507087 112.1781096328245 A 1.5 1.5 0 0 0 97.8002 112.411A 149 149 0 0 1 97.3479 112.802A 1.5 1.5 0 0 0 96.8647 114.531C 97.13921475336883 115.1202521673085 97.42406101849568 115.77016898551157 97.71357986501178 116.48201650895825 C 98.39318413906261 118.15309714453598 99.09779802044977 120.16299560461769 99.75326018216751 122.52920463817514 A 158 158 0 0 1 97.26 124.518C 95.09892385779892 123.35199133482115 93.29620908737883 122.21779911205131 91.81825211003007 121.18338351229602 C 91.18867609432911 120.74272253197294 90.61843830461652 120.32039786003956 90.10459362926075 119.92149940027187 A 1.5 1.5 0 0 0 88.3122 120.008A 149 149 0 0 1 87.8296 120.362A 1.5 1.5 0 0 0 87.207 122.045C 87.43262275378359 122.6549468238455 87.66354696224447 123.32591871244193 87.89408027705154 124.05899609573052 C 88.43521463858856 125.77991040582121 88.97365859192834 127.84055366723113 89.43407175432692 130.25231558662176 A 158 158 0 0 1 86.787 132.031C 84.72815759596628 130.69299290922345 83.02388840571389 129.41563662813397 81.63516368271034 128.26419574661648 C 81.04360049005855 127.77368473937526 80.50968350098347 127.30628564425746 80.03006252905942 126.86683137486513 A 1.5 1.5 0 0 0 78.2366 126.807A 149 149 0 0 1 77.7267 127.12A 1.5 1.5 0 0 0 76.9691 128.747C 77.14418107513929 129.3733930459116 77.31964646442671 130.06095479768535 77.48966008635 130.8103835317793 C 77.88872337547807 132.5696791155802 78.257414145098 134.66735393739586 78.51971433454449 137.1086188649588 A 158 158 0 0 1 75.7365 138.665C 73.79353942449451 137.1642541786409 72.1990574446863 135.75223443453342 70.90880670993613 134.49143092034595 C 70.35919309577955 133.95433415601113 69.86515003681414 133.44497110157153 69.42294456675809 132.96788551821248 A 1.5 1.5 0 0 0 67.6403 132.762A 149 149 0 0 1 67.1066 133.033A 1.5 1.5 0 0 0 66.2189 134.592C 66.34235759933385 135.23088068236456 66.46119647623188 135.9304566872972 66.56955899266775 136.69124944761822 C 66.82389550903854 138.47721848328243 67.0203795186965 140.59796518565665 67.08282117070662 143.05248690607934 A 158 158 0 0 1 64.182 144.377C 62.3678374232297 142.72270996700846 60.893753668370316 141.18542351831323 59.71056332763686 139.82364781082467 C 59.206556879897825 139.24353957974822 58.75567552608816 138.69560229307507 58.35382836234457 138.184060321593 A 1.5 1.5 0 0 0 56.5939 137.834A 149 149 0 0 1 56.0399 138.06A 1.5 1.5 0 0 0 55.0281 139.542C 55.09903667942344 140.18842911940115 55.160458190813316 140.89536381460184 55.20644846709349 141.6624576508519 C 55.3143656431531 143.46321480911126 55.33733532418238 145.5929201726383 55.19950289986417 148.04436424883892 A 158 158 0 0 1 52.2003 149.128C 50.527087753882206 147.3313696681352 49.183212008153525 145.67904690253386 48.11495599794171 144.22536139440038 C 47.65991079637472 143.60610222114897 47.25519168874022 143.02323713448183 46.89637705788368 142.48064300229848 A 1.5 1.5 0 0 0 45.1709 141.988A 149 149 0 0 1 44.6003 142.168A 1.5 1.5 0 0 0 43.471 143.563C 43.4890407611126 144.21304669011084 43.492636156969866 144.92263554181906 43.47594813539352 145.69092557107953 C 43.43672780014038 147.4944871101498 43.28603029310349 149.618978297012 42.9488410445 152.05103077312327 A 158 158 0 0 1 39.8713 152.887C 38.35008865191528 150.95956341208552 37.14536418668123 149.20320026496904 36.19915157448919 147.66727899340603 C 35.79609586983349 147.01298994560707 35.44023234726151 146.39907592993177 35.12683810146013 145.82904051147506 A 1.5 1.5 0 0 0 33.4472 145.197A 149 149 0 0 1 32.8639 145.331A 1.5 1.5 0 0 0 31.6247 146.628C 31.589632451723215 147.27795022857578 31.535377805281648 147.9854710400573 31.45612254187907 148.74984441894233 C 31.27002570017337 150.54420793434775 30.946663872116282 152.649346806213 30.412361738044684 155.04582277426672 A 158 158 0 0 1 27.2769 155.628C 25.917876037289105 153.58314616810318 24.860320095100278 151.73443094643613 24.04244776974806 150.1264952140967 C 23.694063831218628 149.4415304774132 23.38942410673852 148.8006530292153 23.1235358329917 148.20696981614586 A 1.5 1.5 0 0 0 21.501 147.441A 149 149 0 0 1 20.9087 147.526A 1.5 1.5 0 0 0 19.5679 148.718C 19.480000350290133 149.36274330742089 19.368256717270413 150.063487644408 19.22696164274334 150.8188575941939 C 18.895226738362823 152.5920818927886 18.40135250890031 154.66385909778802 17.673493181909198 157.00881040560756 A 158 158 0 0 1 14.501 157.334C 13.313184233783351 155.18465842580758 12.409834674950565 153.25589402437362 11.725745441823948 151.58664437826576 C 11.434351707052395 150.87556228000912 11.182963107768568 150.2119863329691 10.966350248669611 149.59860618911907 A 1.5 1.5 0 0 0 9.41169 148.702A 149 149 0 0 1 8.81445 148.739A 1.5 1.5 0 0 0 7.38084 149.818C 7.240732060499667 150.45355197267315 7.072243076343138 151.14285649721788 6.869848486100498 151.88419615551607 C 6.3946831601014065 153.6244807221543 5.733583180747038 155.6491089248078 4.817010444569199 157.92693030832936 A 158 158 0 0 1 1.62861 157.992C 0.6198953857225238 155.75344238535465 -0.12323614748237555 153.75746441302155 -0.6689897874037123 152.0380094341333 C -0.9014541411890624 151.30554210834717 -1.097918665624578 150.6236836509102 -1.2638145872369742 149.9946885199363 A 1.5 1.5 0 0 0 -2.74025 148.975A 149 149 0 0 1 -3.3385 148.963A 1.5 1.5 0 0 0 -4.8553 149.921C -5.046722106516694 150.54311707263605 -5.270835175419194 151.2163945768548 -5.532982378772092 151.93877045055177 C -6.148415979541994 153.63453397856927 -6.972342197499435 155.5985396122284 -8.071528702528594 157.79407254595867 A 158 158 0 0 1 -11.2546 157.599C -12.077518763854714 155.28571288333634 -12.655486853686323 153.23580424419686 -13.059272999971714 151.4775866217226 C -13.231260960850339 150.72860851761143 -13.37149397144179 150.0330052053131 -13.485568945580194 149.39258094603505 A 1.5 1.5 0 0 0 -14.874 148.256A 149 149 0 0 1 -15.4692 148.195A 1.5 1.5 0 0 0 -17.0591 149.027C -17.300591170564758 149.63084256634656 -17.57883688871574 150.28361249953173 -17.898992158791824 150.9822172963716 C -18.65059842525881 152.6221747592707 -19.631867788777075 154.51248769048152 -20.90635315781959 156.61112126498404 A 158 158 0 0 1 -24.063 156.157C -24.69455901870887 153.78458258241864 -25.10351738288738 151.69438508025507 -25.36264890535332 149.90910546238692 C -25.473015921821588 149.14860090566089 -25.556084191020304 148.44388186377805 -25.617579067552875 147.79629039397875 A 1.5 1.5 0 0 0 -26.9087 146.55A 149 149 0 0 1 -27.497 146.441A 1.5 1.5 0 0 0 -29.1494 147.14C -29.439327654769333 147.7227994901293 -29.769854342821812 148.35071777607502 -30.145887099120632 149.0209023963965 C -31.028664215587664 150.59414014783562 -32.16074653895059 152.39818065592058 -33.60204928215078 154.38594881100715 A 158 158 0 0 1 -36.7112 153.676C -37.14726105760896 151.26004125708508 -37.38448814569414 149.14346481141604 -37.49724056681232 147.3430039394605 C -37.54525216458491 146.57603396247018 -37.570602886764675 145.8668889799561 -37.57910842743402 145.21643991402206 A 1.5 1.5 0 0 0 -38.7643 143.869A 149 149 0 0 1 -39.3418 143.712A 1.5 1.5 0 0 0 -41.0458 144.275C -41.382150270578556 144.83168555585155 -41.762758327956604 145.43057350196406 -42.192166134526026 146.06787797769164 C -43.200239364930994 147.56392638000085 -44.475600827057036 149.26968887302442 -46.074129312457096 151.13336333958162 A 158 158 0 0 1 -49.115 150.173C -49.35275420303729 147.72888931333577 -49.41667130789766 145.60001939119667 -49.38229427890837 143.79635903520142 C -49.36763094872346 143.0280276966026 -49.335095419010734 142.31917601631523 -49.29055502084703 141.6701979854637 A 1.5 1.5 0 0 0 -50.362 140.231A 149 149 0 0 1 -50.9248 140.027A 1.5 1.5 0 0 0 -52.6689 140.449C -53.04958150391131 140.97674064974575 -53.477738046789 141.5426127555532 -53.9576632655236 142.14279593054874 C -55.08432404883854 143.55169902844125 -56.49447732961707 145.14783193844337 -58.23959361388532 146.87501027038093 A 158 158 0 0 1 -61.1921 145.67C -61.22981291187574 143.2146259847573 -61.119994675724016 141.08762986424114 -60.93871697008337 139.29277308629236 C -60.86147629398407 138.5281935043776 -60.77127103096112 137.82435241729695 -60.67398110296548 137.18116426324937 A 1.5 1.5 0 0 0 -61.6246 135.659A 149 149 0 0 1 -62.1689 135.411A 1.5 1.5 0 0 0 -63.9416 135.689C -64.36397652490038 136.1836187941409 -64.8368322421257 136.7127092741415 -65.36408104987689 137.27177702839862 C -66.60183164447477 138.58415880421066 -68.13739240648115 140.06004013001865 -70.01748302866967 141.6392282405018 A 158 158 0 0 1 -72.8619 140.197C -72.69939731799366 137.74729294900038 -72.41657456307271 135.63632543835953 -72.08960255400302 133.86221671418394 C -71.95029855594495 133.1064770399242 -71.80302386075437 132.41233049235916 -71.6536318513459 131.77921252616215 A 1.5 1.5 0 0 0 -72.477 130.185A 149 149 0 0 1 -72.9992 129.893A 1.5 1.5 0 0 0 -74.7887 130.026C -75.25003990142487 130.4842174241765 -75.7644480162154 130.97300526851964 -76.33551165915753 131.48723709837347 C -77.67611503904578 132.69436386791477 -79.32686437875851 134.04017186280865 -81.32941764596981 135.46086051550986 A 158 158 0 0 1 -84.0468 133.792C -83.6851792295166 131.3632744053714 -83.23123409459797 129.28238364510406 -82.76074372687302 127.54082937555371 C -82.5603034519797 126.79895893179291 -82.35693941341937 126.11912635449141 -82.15643950177275 125.50029187175294 A 1.5 1.5 0 0 0 -82.8471 123.844A 149 149 0 0 1 -83.3438 123.51A 1.5 1.5 0 0 0 -85.1382 123.497C -85.63532667778807 123.91646511563475 -86.18786388901124 124.36169752186062 -86.79894203281938 124.82767129932577 C -88.23347670368885 125.92150983310688 -89.98842915660664 127.12828836692333 -92.10011840724542 128.38102311325602 A 158 158 0 0 1 -94.6725 126.496C -94.11405008034983 124.10505494398942 -93.49200349541069 122.06808891878234 -92.88112580480225 120.37067886018485 C -92.62088315003281 119.64761467232618 -92.36278312222663 118.98662023892574 -92.1125096021737 118.38618748102786 A 1.5 1.5 0 0 0 -92.6659 116.679A 149 149 0 0 1 -93.1337 116.306A 1.5 1.5 0 0 0 -94.921 116.146C -95.45072448394497 116.52406917652608 -96.0377137476223 116.92278319642942 -96.68473976807023 117.33739794289713 C -98.20365913836784 118.31066892594642 -100.05113578546329 119.37038708664733 -102.25790807597076 120.44683118356134 A 158 158 0 0 1 -104.668 118.358C -103.91660745562362 116.02093681784794 -103.13059903805629 114.04145120052316 -102.38339931480762 112.39948133676558 C -102.06508615209252 111.70003527768203 -101.75396774814205 111.06227779708048 -101.45558614866654 110.48424254496261 A 1.5 1.5 0 0 0 -101.868 108.738A 149 149 0 0 1 -102.304 108.328A 1.5 1.5 0 0 0 -104.072 108.023C -104.63091346692222 108.35622478216578 -105.24844846635037 108.70576703972732 -105.92711651202379 109.06626356246645 C -107.52031242394425 109.91249003697014 -109.44801861294313 110.81809557503722 -111.73518823781775 111.71108546466839 A 158 158 0 0 1 -113.967 109.433C -113.0276169533136 107.16471849929083 -112.08287745945474 105.2558864400395 -111.2043281944448 103.68028380965916 C -110.83006284536393 103.00911057747349 -110.46799650691652 102.39883422048166 -110.12349250833346 101.84704320337754 A 1.5 1.5 0 0 0 -110.392 100.073A 149 149 0 0 1 -110.793 99.6287A 1.5 1.5 0 0 0 -112.531 99.1808C -113.11480098366268 99.46728758939892 -113.75877212530654 99.76533193856501 -114.46456577233383 100.06931119269447 C -116.12143576994212 100.78286166108226 -118.11654293420577 101.52832792107411 -120.46888915695045 102.23192090303986 A 158 158 0 0 1 -122.508 99.7797C -121.38644630842339 97.595336660055 -120.28926282373358 95.76986112129633 -119.28521061737058 94.27111109984224 C -118.85748375607264 93.63267724167888 -118.44687897487394 93.05394329676403 -118.05854519445471 92.53206859285336 A 1.5 1.5 0 0 0 -118.182 90.7419A 149 149 0 0 1 -118.545 90.2665A 1.5 1.5 0 0 0 -120.241 89.6784C -120.8459281624854 89.91641200867186 -121.5120499246451 90.16097501347265 -122.24027223275304 90.40641406720924 C -123.9497901195794 90.98253996884158 -125.99902115009917 91.56290599579118 -128.40088949471135 92.07241977488123 A 158 158 0 0 1 -130.233 89.4622C -128.9374688907046 87.3764739574436 -127.69514299025192 85.64650317770572 -126.57226964431224 84.23457969929437 C -126.0939277224892 83.63313388714518 -125.63751700561306 83.08979373322633 -125.2079377405958 82.60130833256041 A 1.5 1.5 0 0 0 -125.185 80.807A 149 149 0 0 1 -125.508 80.3036A 1.5 1.5 0 0 0 -127.15 79.5793C -127.77284562756145 79.76715754119081 -128.4566850798122 79.9566116751794 -129.20248984968856 80.14187717211513 C -130.95327906624678 80.57674448417072 -133.04299666861385 80.9881480379224 -135.4784030975405 81.30019188400072 A 158 158 0 0 1 -137.092 78.5493C -135.6304338907031 76.57613523674883 -134.25123304838573 74.95318188614587 -133.01701109972555 73.63748106857506 C -132.4912374039463 73.07702582508833 -131.99205808941102 72.57269530124503 -131.52409211892882 72.12084999357084 A 1.5 1.5 0 0 0 -131.355 70.3344A 149 149 0 0 1 -131.636 69.8063A 1.5 1.5 0 0 0 -133.213 68.9506C -133.84945588602176 69.08706580092776 -134.54646218963433 69.2201502781002 -135.30488621358472 69.3440093069196 C -137.0852955464985 69.63472405918476 -139.20159299484826 69.87442731696511 -141.65433028011867 69.98692462971971 A 158 158 0 0 1 -143.038 67.1137C -141.4208007306054 65.26619497022652 -139.91390330047685 63.76105953553825 -138.5765462925322 62.5503371506736 C -138.00683975999556 62.034602213026105 -137.46821380378066 61.57263755568585 -136.96497536415814 61.16043929697673 A 1.5 1.5 0 0 0 -136.651 59.3937A 149 149 0 0 1 -136.888 58.8445A 1.5 1.5 0 0 0 -138.39 57.8631C -139.03532009916634 57.94721103632304 -139.74085479218817 58.02304020144115 -140.50685088346435 58.084668500742715 C -142.30503200236996 58.22929603450569 -144.4338256863482 58.29570381068243 -146.88757126600206 58.207905939057646 A 158 158 0 0 1 -148.032 55.2314C -146.2700354744353 53.52191894434153 -144.64546961027247 52.14461785355595 -143.21387743328287 51.04693105911358 C -142.60402936696792 50.57934855822512 -142.02954123594495 50.16282406596369 -141.4943792959693 49.79301596762344 A 1.5 1.5 0 0 0 -141.037 48.0578A 149 149 0 0 1 -141.229 47.4911A 1.5 1.5 0 0 0 -142.646 46.3904C -143.29592719626407 46.421727142888514 -144.00529506171816 46.439796365369354 -144.77376564271313 46.4387838089892 C -146.57775194894327 46.436361651874655 -148.7048750978093 46.32903201365385 -151.14329969985351 46.04152323799972 A 158 158 0 0 1 -152.042 42.9816C -150.14586726503995 41.42146337837708 -148.4144441846343 40.181162343014684 -146.89814384834156 39.203816063506025 C -146.2522126865118 38.787497683774326 -145.6456855044088 38.419185258366014 -145.08216147849507 38.094228332275044 A 1.5 1.5 0 0 0 -144.485 36.4021A 149 149 0 0 1 -144.63 35.8216A 1.5 1.5 0 0 0 -145.953 34.6091C -146.6029235400345 34.587314314363866 -147.31140385181368 34.54750334651303 -148.07723487759966 34.483856672846805 C -149.87502113992318 34.334400943910715 -151.98631810007194 34.05404815232658 -154.39319441109166 33.56874179610948 A 158 158 0 0 1 -155.039 30.4458C -153.02250308132014 29.04535480768988 -151.19574511960715 27.95030782650572 -149.60482735257727 27.099806140170134 C -148.92711166054352 26.737522411724612 -148.2925817656875 26.419873111593244 -147.7044458132532 26.141929892480565 A 1.5 1.5 0 0 0 -146.971 24.5041A 149 149 0 0 1 -147.068 23.9137A 1.5 1.5 0 0 0 -148.288 22.5974C -148.93430161542582 22.52272861558231 -149.63717955394625 22.425302392822502 -150.39527454539984 22.299445159982493 C -152.17489679285484 22.00395046244246 -154.25631723135598 21.55244021906803 -156.615627886608 20.872565916018665 A 158 158 0 0 1 -157.005 17.7074C -154.88079938653004 16.475954192903718 -152.97086331635103 15.533448622887553 -151.31591541384068 14.815451478124697 C -150.61092527771822 14.509613339405545 -149.95261536186936 14.24474106823505 -149.34378143064237 14.015661222366457 A 1.5 1.5 0 0 0 -148.48 12.443A 149 149 0 0 1 -148.528 11.8467A 1.5 1.5 0 0 0 -149.637 10.4354C -150.2745464859966 10.308257873852703 -150.96714451454412 10.153864751622198 -151.71245847457408 9.966634518727972 C -153.4620736147207 9.527067321042942 -155.49976602196622 8.907404352053915 -157.7958101982987 8.037486553487724 A 158 158 0 0 1 -157.926 4.85108C -155.70838952535578 3.7969088213048834 -153.72798565614053 3.0132168815226974 -152.02002102339372 2.4325024308697767 C -151.29244803622325 2.1851451842304312 -150.61473904325806 1.9748126232845982 -149.9892588226001 1.7961206392388327 A 1.5 1.5 0 0 0 -149 0.299183A 149 149 0 0 1 -149 -0.299183A 1.5 1.5 0 0 0 -149.989 -1.79612C -150.61473904325806 -1.9748126232845609 -151.29244803622325 -2.185145184230394 -152.02002102339372 -2.4325024308697385 C -153.72798565614053 -3.013216881522659 -155.70838952535578 -3.7969088213048443 -157.92588742759588 -4.8510809559647425 A 158 158 0 0 1 -157.796 -8.03749C -155.49976602196622 -8.907404352053875 -153.4620736147207 -9.527067321042903 -151.71245847457408 -9.966634518727933 C -150.96714451454412 -10.153864751622159 -150.2745464859966 -10.308257873852664 -149.63658244357924 -10.435372830403882 A 1.5 1.5 0 0 0 -148.528 -11.8467A 149 149 0 0 1 -148.48 -12.443A 1.5 1.5 0 0 0 -149.344 -14.0157C -149.9526153618694 -14.244741068234948 -150.61092527771822 -14.509613339405442 -151.3159154138407 -14.815451478124594 C -152.97086331635103 -15.53344862288745 -154.88079938653007 -16.47595419290361 -157.00499393199976 -17.707365322027215 A 158 158 0 0 1 -156.616 -20.8726C -154.256317231356 -21.552440219067922 -152.17489679285484 -22.00395046244236 -150.39527454539987 -22.29944515998239 C -149.63717955394625 -22.425302392822402 -148.93430161542585 -22.522728615582206 -148.28809929669472 -22.597420615575516 A 1.5 1.5 0 0 0 -147.068 -23.9137A 149 149 0 0 1 -146.971 -24.5041A 1.5 1.5 0 0 0 -147.704 -26.1419C -148.29258176568754 -26.419873111593144 -148.92711166054357 -26.73752241172451 -149.6048273525773 -27.09980614017003 C -151.19574511960718 -27.950307826505618 -153.02250308132017 -29.045354807689776 -155.0392581057868 -30.4458100933813 A 158 158 0 0 1 -154.393 -33.5687C -151.98631810007197 -34.05404815232647 -149.8750211399232 -34.334400943910616 -148.0772348775997 -34.483856672846706 C -147.31140385181374 -34.54750334651293 -146.60292354003457 -34.58731431436377 -145.9527833148049 -34.609086294862536 A 1.5 1.5 0 0 0 -144.63 -35.8216A 149 149 0 0 1 -144.485 -36.4021A 1.5 1.5 0 0 0 -145.082 -38.0942C -145.64568550440882 -38.41918525836593 -146.25221268651183 -38.787497683774234 -146.8981438483416 -39.20381606350593 C -148.41444418463436 -40.181162343014584 -150.14586726503998 -41.421463378376984 -152.04176159655682 -42.98164302176902 A 158 158 0 0 1 -151.143 -46.0415C -148.70487509780932 -46.32903201365376 -146.57775194894333 -46.436361651874556 -144.77376564271316 -46.43878380898911 C -144.0052950617182 -46.43979636536926 -143.2959271962641 -46.42172714288843 -142.64617564046924 -46.39043421495454 A 1.5 1.5 0 0 0 -141.229 -47.4911A 149 149 0 0 1 -141.037 -48.0578A 1.5 1.5 0 0 0 -141.494 -49.793C -142.02954123594495 -50.16282406596366 -142.60402936696795 -50.5793485582251 -143.21387743328287 -51.046931059113554 C -144.6454696102725 -52.14461785355593 -146.27003547443533 -53.52191894434151 -148.03245224902673 -55.231440207318784 A 158 158 0 0 1 -146.888 -58.2079C -144.43382568634823 -58.29570381068241 -142.30503200236998 -58.229296034505666 -140.50685088346435 -58.08466850074269 C -139.7408547921882 -58.02304020144113 -139.03532009916634 -57.94721103632301 -138.39028120220866 -57.863061449228915 A 1.5 1.5 0 0 0 -136.888 -58.8445A 149 149 0 0 1 -136.651 -59.3937A 1.5 1.5 0 0 0 -136.965 -61.1604C -137.46821380378066 -61.57263755568581 -138.0068397599956 -62.034602213026076 -138.5765462925322 -62.550337150673556 C -139.91390330047685 -63.76105953553822 -141.42080073060544 -65.26619497022648 -143.0380113554148 -67.11368127083504 A 158 158 0 0 1 -141.654 -69.9869C -139.20159299484828 -69.87442731696507 -137.0852955464985 -69.63472405918473 -135.30488621358472 -69.34400930691956 C -134.54646218963435 -69.22015027810018 -133.84945588602176 -69.08706580092772 -133.21342227533654 -68.95061955629183 A 1.5 1.5 0 0 0 -131.636 -69.8063A 149 149 0 0 1 -131.355 -70.3344A 1.5 1.5 0 0 0 -131.524 -72.1208C -131.99205808941105 -72.57269530124499 -132.49123740394631 -73.0770258250883 -133.01701109972558 -73.63748106857503 C -134.25123304838576 -74.95318188614583 -135.63043389070313 -76.5761352367488 -137.0916760958433 -78.54929185847189 A 158 158 0 0 1 -135.478 -81.3002C -133.04299666861388 -80.98814803792237 -130.9532790662468 -80.57674448417067 -129.2024898496886 -80.1418771721151 C -128.45668507981222 -79.95661167517937 -127.77284562756148 -79.76715754119077 -127.1500500018897 -79.57932266625906 A 1.5 1.5 0 0 0 -125.508 -80.3036A 149 149 0 0 1 -125.185 -80.807A 1.5 1.5 0 0 0 -125.208 -82.6013C -125.63751700561309 -83.08979373322624 -126.09392772248925 -83.63313388714509 -126.57226964431229 -84.23457969929429 C -127.69514299025197 -85.64650317770564 -128.93746889070465 -87.37647395744351 -130.23301835038842 -89.46216986851148 A 158 158 0 0 1 -128.401 -92.0724C -125.99902115009922 -91.5629059957911 -123.94979011957948 -90.9825399688415 -122.24027223275309 -90.40641406720916 C -121.51204992464515 -90.16097501347257 -120.84592816248545 -89.91641200867177 -120.2405151239619 -89.67843851354637 A 1.5 1.5 0 0 0 -118.545 -90.2665A 149 149 0 0 1 -118.182 -90.7419A 1.5 1.5 0 0 0 -118.059 -92.5321C -118.446878974874 -93.05394329676395 -118.85748375607271 -93.63267724167878 -119.28521061737065 -94.27111109984217 C -120.28926282373365 -95.76986112129624 -121.38644630842346 -97.59533666005491 -122.50768135474726 -99.77969189829523 A 158 158 0 0 1 -120.469 -102.232C -118.11654293420584 -101.52832792107402 -116.1214357699422 -100.78286166108218 -114.4645657723339 -100.0693111926944 C -113.7587721253066 -99.76533193856494 -113.11480098366273 -99.46728758939884 -112.53079945617267 -99.18075914842692 A 1.5 1.5 0 0 0 -110.793 -99.6287A 149 149 0 0 1 -110.392 -100.073A 1.5 1.5 0 0 0 -110.123 -101.847C -110.46799650691656 -102.39883422048163 -110.83006284536395 -103.00911057747348 -111.20432819444483 -103.68028380965914 C -112.08287745945476 -105.25588644003949 -113.02761695331363 -107.16471849929081 -113.96707595203492 -109.43319654098622 A 158 158 0 0 1 -111.735 -111.711C -109.44801861294316 -110.8180955750372 -107.52031242394428 -109.91249003697013 -105.92711651202382 -109.06626356246643 C -105.2484484663504 -108.7057670397273 -104.63091346692227 -108.35622478216575 -104.07220988427765 -108.02304819484814 A 1.5 1.5 0 0 0 -102.304 -108.328A 149 149 0 0 1 -101.868 -108.738A 1.5 1.5 0 0 0 -101.456 -110.484C -101.75396774814207 -111.06227779708045 -102.06508615209255 -111.700035277682 -102.38339931480766 -112.39948133676555 C -103.13059903805632 -114.04145120052313 -103.91660745562365 -116.02093681784791 -104.66803846210576 -118.35844131590345 A 158 158 0 0 1 -102.258 -120.447C -100.05113578546332 -119.3703870866473 -98.20365913836787 -118.31066892594639 -96.68473976807027 -117.3373979428971 C -96.03771374762233 -116.92278319642939 -95.450724483945 -116.52406917652606 -94.92103692630876 -116.14646167808105 A 1.5 1.5 0 0 0 -93.1337 -116.306A 149 149 0 0 1 -92.6659 -116.679A 1.5 1.5 0 0 0 -92.1125 -118.386C -92.36278312222673 -118.98662023892567 -92.62088315003291 -119.64761467232611 -92.88112580480235 -120.3706788601848 C -93.4920034954108 -122.06808891878227 -94.11405008034994 -124.10505494398934 -94.67245244522213 -126.49603019163156 A 158 158 0 0 1 -92.1001 -128.381C -89.98842915660676 -127.12828836692326 -88.23347670368896 -125.92150983310681 -86.79894203281948 -124.82767129932571 C -86.18786388901134 -124.36169752186055 -85.63532667778817 -123.91646511563468 -85.13818012846407 -123.49693962166361 A 1.5 1.5 0 0 0 -83.3438 -123.51A 149 149 0 0 1 -82.8471 -123.844A 1.5 1.5 0 0 0 -82.1564 -125.5C -82.35693941341947 -126.11912635449139 -82.5603034519798 -126.79895893179284 -82.76074372687312 -127.54082937555366 C -83.23123409459805 -129.282383645104 -83.68517922951672 -131.36327440537136 -84.04683687717068 -133.79180885681035 A 158 158 0 0 1 -81.3294 -135.461C -79.32686437875863 -134.0401718628086 -77.6761150390459 -132.69436386791472 -76.33551165915763 -131.4872370983734 C -75.7644480162155 -130.9730052685196 -75.25003990142497 -130.48421742417648 -74.78874278867535 -130.02556580762487 A 1.5 1.5 0 0 0 -72.9992 -129.893A 149 149 0 0 1 -72.477 -130.185A 1.5 1.5 0 0 0 -71.6536 -131.779C -71.80302386075446 -132.4123304923591 -71.95029855594505 -133.10647703992413 -72.08960255400312 -133.8622167141839 C -72.4165745630728 -135.63632543835945 -72.69939731799374 -137.74729294900033 -72.86190347645365 -140.19722510814174 A 158 158 0 0 1 -70.0175 -141.639C -68.13739240648124 -140.0600401300186 -66.60183164447486 -138.58415880421063 -65.36408104987699 -137.27177702839856 C -64.8368322421258 -136.71270927414145 -64.36397652490048 -136.18361879414084 -63.94159870490202 -135.68889330584466 A 1.5 1.5 0 0 0 -62.1689 -135.411A 149 149 0 0 1 -61.6246 -135.659A 1.5 1.5 0 0 0 -60.674 -137.181C -60.77127103096119 -137.82435241729692 -60.86147629398413 -138.5281935043776 -60.93871697008343 -139.29277308629233 C -61.11999467572409 -141.0876298642411 -61.229812911875804 -143.2146259847573 -61.19208612946872 -145.66965195729236 A 158 158 0 0 1 -58.2396 -146.875C -56.49447732961715 -145.14783193844337 -55.08432404883861 -143.55169902844128 -53.957663265523664 -142.14279593054871 C -53.477738046789064 -141.5426127555532 -53.049581503911384 -140.97674064974572 -52.668933831368754 -140.44923360620564 A 1.5 1.5 0 0 0 -50.9248 -140.027A 149 149 0 0 1 -50.362 -140.231A 1.5 1.5 0 0 0 -49.2906 -141.67C -49.335095419010806 -142.3191760163152 -49.36763094872353 -143.02802769660258 -49.38229427890843 -143.79635903520142 C -49.41667130789773 -145.60001939119664 -49.352754203037364 -147.72888931333577 -49.11504554527573 -150.1726713064681 A 158 158 0 0 1 -46.0741 -151.133C -44.47560082705711 -149.26968887302442 -43.200239364931065 -147.56392638000082 -42.19216613452609 -146.06787797769164 C -41.762758327956675 -145.43057350196403 -41.38215027057863 -144.83168555585152 -41.045765892950136 -144.27490742940975 A 1.5 1.5 0 0 0 -39.3418 -143.712A 149 149 0 0 1 -38.7643 -143.869A 1.5 1.5 0 0 0 -37.5791 -145.216C -37.57060288676471 -145.86688897995606 -37.545252164584944 -146.57603396247015 -37.49724056681236 -147.34300393946046 C -37.384488145694185 -149.143464811416 -37.147261057609 -151.26004125708505 -36.711152436391046 -153.67631630484598 A 158 158 0 0 1 -33.602 -154.386C -32.16074653895063 -152.39818065592056 -31.028664215587707 -150.5941401478356 -30.145887099120667 -149.02090239639648 C -29.769854342821848 -148.350717776075 -29.439327654769375 -147.72279949012926 -29.149445154588633 -147.14045554735534 A 1.5 1.5 0 0 0 -27.497 -146.441A 149 149 0 0 1 -26.9087 -146.55A 1.5 1.5 0 0 0 -25.6176 -147.796C -25.556084191020343 -148.44388186377802 -25.473015921821627 -149.14860090566086 -25.36264890535336 -149.9091054623869 C -25.103517382887414 -151.69438508025507 -24.694559018708908 -153.78458258241864 -24.062952664955993 -156.15727077302262 A 158 158 0 0 1 -20.9064 -156.611C -19.631867788777114 -154.51248769048152 -18.650598425258845 -152.6221747592707 -17.898992158791863 -150.98221729637157 C -17.578836888715777 -150.2836124995317 -17.300591170564797 -149.63084256634653 -17.059139668043258 -149.02680821009963 A 1.5 1.5 0 0 0 -15.4692 -148.195A 149 149 0 0 1 -14.874 -148.256A 1.5 1.5 0 0 0 -13.4856 -149.393C -13.371493971441826 -150.0330052053131 -13.231260960850376 -150.72860851761143 -13.05927299997175 -151.4775866217226 C -12.65548685368636 -153.23580424419686 -12.077518763854753 -155.28571288333634 -11.254617913643386 -157.5990243683409 A 158 158 0 0 1 -8.07153 -157.794C -6.972342197499474 -155.5985396122284 -6.1484159795420315 -153.63453397856927 -5.532982378772128 -151.93877045055177 C -5.270835175419231 -151.2163945768548 -5.046722106516731 -150.54311707263605 -4.855308421566984 -149.92141205189836 A 1.5 1.5 0 0 0 -3.3385 -148.963A 149 149 0 0 1 -2.74025 -148.975A 1.5 1.5 0 0 0 -1.26382 -149.995C -1.0979186656245816 -150.6236836509102 -0.901454141189066 -151.30554210834717 -0.6689897874037158 -152.0380094341333 C -0.1232361474823791 -153.75746441302155 0.6198953857225202 -155.75344238535465 1.628614463003264 -157.99198245849664 A 158 158 0 0 1 4.81701 -157.927C 5.7335831807470345 -155.6491089248078 6.394683160101403 -153.6244807221543 6.869848486100494 -151.88419615551607 C 7.072243076343135 -151.14285649721788 7.2407320604996634 -150.45355197267315 7.3808341013853145 -149.8183136317835 A 1.5 1.5 0 0 0 8.81445 -148.739A 149 149 0 0 1 9.41169 -148.702A 1.5 1.5 0 0 0 10.9663 -149.599C 11.18296310776843 -150.21198633296913 11.434351707052258 -150.87556228000912 11.725745441823811 -151.58664437826576 C 12.409834674950426 -153.25589402437362 13.313184233783211 -155.18465842580758 14.50100867910096 -157.33352997223335 A 158 158 0 0 1 17.6735 -157.009C 18.40135250890017 -154.66385909778802 18.895226738362684 -152.5920818927886 19.226961642743202 -150.8188575941939 C 19.368256717270278 -150.063487644408 19.48000035029 -149.3627433074209 19.567858391144668 -148.71819905273105 A 1.5 1.5 0 0 0 20.9087 -147.526A 149 149 0 0 1 21.501 -147.441A 1.5 1.5 0 0 0 23.1235 -148.207C 23.389424106738417 -148.80065302921534 23.69406383121852 -149.4415304774132 24.042447769747955 -150.12649521409674 C 24.86032009510017 -151.73443094643616 25.917876037288995 -153.58314616810318 27.276901074937403 -155.62804880221012 A 158 158 0 0 1 30.4124 -155.046C 30.946663872116172 -152.649346806213 31.270025700173264 -150.54420793434778 31.456122541878965 -148.74984441894236 C 31.53537780528154 -147.9854710400573 31.589632451723112 -147.2779502285758 31.62466181178047 -146.62838939575835 A 1.5 1.5 0 0 0 32.8639 -145.331A 149 149 0 0 1 33.4472 -145.197A 1.5 1.5 0 0 0 35.1268 -145.829C 35.440232347261414 -146.3990759299318 35.7960958698334 -147.0129899456071 36.19915157448909 -147.66727899340606 C 37.145364186681135 -149.20320026496907 38.35008865191518 -150.95956341208557 39.87127019449205 -152.88688864422883 A 158 158 0 0 1 42.9488 -152.051C 43.28603029310339 -149.61897829701206 43.43672780014029 -147.49448711014983 43.47594813539344 -145.69092557107956 C 43.49263615696977 -144.9226355418191 43.489040761112506 -144.21304669011087 43.471008325760806 -143.56279199933826 A 1.5 1.5 0 0 0 44.6003 -142.168A 149 149 0 0 1 45.1709 -141.988A 1.5 1.5 0 0 0 46.8964 -142.481C 47.255191688740126 -143.02323713448186 47.659910796374625 -143.606102221149 48.11495599794162 -144.2253613944004 C 49.183212008153426 -145.67904690253388 50.527087753882114 -147.33136966813527 52.20030258919887 -149.12829146688125 A 158 158 0 0 1 55.1995 -148.044C 55.33733532418229 -145.59292017263834 55.314365643153 -143.4632148091113 55.206448467093395 -141.66245765085193 C 55.16045819081322 -140.89536381460186 55.09903667942335 -140.18842911940118 55.02806245154472 -139.54180790835596 A 1.5 1.5 0 0 0 56.0399 -138.06A 149 149 0 0 1 56.5939 -137.834A 1.5 1.5 0 0 0 58.3538 -138.184C 58.755675526088105 -138.6956022930751 59.206556879897754 -139.24353957974824 59.710563327636805 -139.8236478108247 C 60.89375366837025 -141.18542351831326 62.36783742322963 -142.72270996700848 64.18195058261828 -144.3772701142578 A 158 158 0 0 1 67.0828 -143.052C 67.02037951869643 -140.59796518565668 66.82389550903848 -138.47721848328246 66.5695589926677 -136.69124944761825 C 66.4611964762318 -135.93045668729724 66.3423575993338 -135.23088068236459 66.21891390070485 -134.59219610852134 A 1.5 1.5 0 0 0 67.1066 -133.033A 149 149 0 0 1 67.6403 -132.762A 1.5 1.5 0 0 0 69.4229 -132.968C 69.86515003681406 -133.44497110157155 70.35919309577946 -133.95433415601116 70.90880670993604 -134.49143092034598 C 72.19905744468623 -135.75223443453348 73.79353942449443 -137.16425417864093 75.73647828418682 -138.6654418495968 A 158 158 0 0 1 78.5197 -137.109C 78.25741414509791 -134.6673539373959 77.888723375478 -132.56967911558024 77.48966008634991 -130.81038353177934 C 77.31964646442663 -130.06095479768538 77.1441810751392 -129.37339304591163 76.96908940320753 -128.74689544973373 A 1.5 1.5 0 0 0 77.7267 -127.12A 149 149 0 0 1 78.2366 -126.807A 1.5 1.5 0 0 0 80.0301 -126.867C 80.50968350098341 -127.30628564425751 81.0436004900585 -127.77368473937531 81.63516368271029 -128.26419574661654 C 83.02388840571383 -129.415636628134 84.72815759596622 -130.69299290922348 86.78699221841346 -132.03081794761425 A 158 158 0 0 1 89.4341 -130.252C 88.97365859192828 -127.84055366723119 88.4352146385885 -125.77991040582125 87.89408027705149 -124.05899609573058 C 87.66354696224444 -123.32591871244199 87.43262275378353 -122.65494682384556 87.20704831473776 -122.04480544347072 A 1.5 1.5 0 0 0 87.8296 -120.362A 149 149 0 0 1 88.3122 -120.008A 1.5 1.5 0 0 0 90.1046 -119.921C 90.61843830461649 -120.32039786003959 91.18867609432908 -120.74272253197297 91.81825211003004 -121.18338351229605 C 93.2962090873788 -122.21779911205134 95.09892385779888 -123.35199133482118 97.25995303827237 -124.51755073574192 A 158 158 0 0 1 99.7533 -122.529C 99.09779802044973 -120.16299560461772 98.39318413906258 -118.153097144536 97.71357986501175 -116.48201650895828 C 97.42406101849565 -115.7701689855116 97.1392147533688 -115.12025216730852 96.86465870788358 -114.53052739295691 A 1.5 1.5 0 0 0 97.3479 -112.802A 149 149 0 0 1 97.8002 -112.411A 1.5 1.5 0 0 0 99.5795 -112.178C 100.12414235232225 -112.5337976795314 100.72690610426443 -112.90823742726734 101.39030521850279 -113.29611585455217 C 102.94765889035824 -114.20662230739548 104.83682247157587 -115.19010260973167 107.0856649174243 -116.17563976767302 A 158 158 0 0 1 109.409 -113.991C 108.56245795313087 -111.6857726317543 107.6963632328239 -109.73999451564272 106.88281170057624 -108.12986832049884 C 106.53623402250741 -107.44398788471607 106.19936130561268 -106.81945122610273 105.87765077887218 -106.25406757884991 A 1.5 1.5 0 0 0 106.218 -104.492A 149 149 0 0 1 106.637 -104.065A 1.5 1.5 0 0 0 108.392 -103.688C 108.96353675199406 -103.99830364223568 109.59481517284564 -104.32236663103119 110.28762257396929 -104.6548812383396 C 111.91400900859053 -105.43541927405023 113.87704932866275 -106.26164275680357 116.19873936444186 -107.06059908458165 A 158 158 0 0 1 118.336 -104.694C 117.30465263967874 -102.46529926888199 116.28284079791997 -100.5965903290725 115.34075605869606 -99.05813369853901 C 114.93942596634076 -98.40278477155793 114.55276863002901 -97.80778446095614 114.1860445525102 -97.27050447569287 A 1.5 1.5 0 0 0 114.382 -95.4868A 149 149 0 0 1 114.765 -95.0267A 1.5 1.5 0 0 0 116.483 -94.5082C 117.07779679229941 -94.77071805271315 117.73338882832326 -95.04224769684441 118.4509939973829 -95.31718565432585 C 120.13558986138237 -95.96256092105588 122.15944321085797 -96.6260292032659 124.53853037243157 -97.23308777833785 A 158 158 0 0 1 126.476 -94.6997C 125.26620421681488 -92.56293624495963 124.09547524282415 -90.78373243113137 123.0311267151305 -89.32718354025702 C 122.57771499403853 -88.70672736106175 122.14384617908894 -88.14522302737039 121.73454903902245 -87.63962221375363 A 1.5 1.5 0 0 0 121.785 -85.8459A 149 149 0 0 1 122.128 -85.3561A 1.5 1.5 0 0 0 123.798 -84.6994C 124.41292341142874 -84.91244897061782 125.08846620579017 -85.12963828510239 125.82609359878224 -85.34516992601138 C 127.5576881846238 -85.85108755784012 129.62888615337428 -86.3473853675533 132.04953800820383 -86.75850631525961 A 158 158 0 0 1 133.774 -84.0757C 132.39412987235696 -82.04458215213671 131.08227477429952 -80.36672377212275 129.90274552198275 -79.00177571346265 C 129.40026955235032 -78.42034131555765 128.92207658414307 -77.89606967747577 128.4729301864668 -77.42551272550186 A 1.5 1.5 0 0 0 128.377 -75.6337A 149 149 0 0 1 128.679 -75.1175A 1.5 1.5 0 0 0 130.29 -74.3268C 130.9201025519426 -74.48910155019085 131.61110047880183 -74.65050517597454 132.3638413071259 -74.80519617280103 C 134.13091113853378 -75.16828937135924 136.23567024580078 -75.49411392853528 138.6817777551718 -75.70656130679919 A 158 158 0 0 1 140.182 -72.8921C 138.64099443709247 -70.98023490149444 137.19674339420501 -69.41488782598663 135.90988298983066 -68.15062410367057 C 135.361686666333 -67.61208083704399 134.84235184017518 -67.12853083582426 134.35634518006177 -66.69614922437218 A 1.5 1.5 0 0 0 134.114 -64.9181A 149 149 0 0 1 134.374 -64.379A 1.5 1.5 0 0 0 135.915 -63.4597C 136.55603001026972 -63.57004144878404 137.2578845924302 -63.67458527136699 138.02072949006728 -63.767406181049346 C 139.8115150088594 -63.985258621006736 141.93582843004484 -64.13844161697493 144.39111315206185 -64.15080162354539 A 158 158 0 0 1 145.656 -61.2235C 143.96522605800308 -59.443525898497136 142.39819032269136 -58.00110725401889 141.01256260993355 -56.84594133453006 C 140.42229408865748 -56.353873115767925 139.865273492133 -55.91426269688836 139.34564086371998 -55.52293385424434 A 1.5 1.5 0 0 0 138.959 -53.7705A 149 149 0 0 1 139.174 -53.2121A 1.5 1.5 0 0 0 140.635 -52.1702C 141.2831996190376 -52.22793320985415 141.99124013005286 -52.27492150734559 142.75911249006973 -52.30525462204423 C 144.56169631407738 -52.376416531356014 146.6914270938503 -52.35593855855159 149.13954951378173 -52.168128939624175 A 158 158 0 0 1 150.162 -49.1474C 148.33139285208804 -47.511230038136766 146.6520007886279 -46.20133888278477 145.1768268913025 -45.1629582047284 C 144.5484143118697 -44.72063966664103 143.9574148251465 -44.32789436490864 143.40761429784263 -43.98022251995579 A 1.5 1.5 0 0 0 142.88 -42.2651A 149 149 0 0 1 143.048 -41.691A 1.5 1.5 0 0 0 144.42 -40.5335C 145.07015284442787 -40.53825669241511 145.77966739151563 -40.527376765447755 146.54745715004637 -40.495020223288975 C 148.3498433813262 -40.41901803118958 150.47081851272807 -40.22501536714293 152.89548677978104 -39.83828596474517 A 158 158 0 0 1 153.668 -36.7443C 151.71043869969955 -35.26275478067379 149.92986638519312 -34.09410822397007 148.3749633422003 -33.17942303943788 C 147.71258868664606 -32.78979773891881 147.09154331380023 -32.44653120951822 146.51523371940402 -32.14483006102288 A 1.5 1.5 0 0 0 145.849 -30.4785A 149 149 0 0 1 145.971 -29.8925A 1.5 1.5 0 0 0 147.243 -28.6271C 147.89168813752897 -28.578804765029606 148.59795501843996 -28.510129017722367 149.36055266131797 -28.415298146155774 C 151.15074671687358 -28.192637634694144 153.24885146034117 -27.826401335126317 155.63392980724055 -27.243325769625315 A 158 158 0 0 1 156.152 -24.0966C 154.07987660822508 -22.77961170809044 152.20997345765159 -21.759986900056752 150.58568889220152 -20.975084288039373 C 149.89376015457447 -20.640745117179915 149.246801850097 -20.349241742229292 148.64781843387476 -20.095519061557507 A 1.5 1.5 0 0 0 147.848 -18.489A 149 149 0 0 1 147.921 -17.8951A 1.5 1.5 0 0 0 149.086 -16.5302C 149.7290286464858 -16.429165607103712 150.42734777165342 -16.303151065224213 151.17967833738507 -16.1464769480541 C 152.94576677113798 -15.778639886197606 155.00703858576642 -15.242607193257484 157.33665470962384 -14.46706573634096 A 158 158 0 0 1 157.597 -11.2886C 155.42393835931304 -10.144874077961124 153.47714826962732 -9.281056453468686 151.794291527515 -8.63115981134927 C 151.0774133794038 -8.354331742169414 150.4088475440704 -8.116531428534383 149.79117644183182 -7.912475698264732 A 1.5 1.5 0 0 0 148.863 -6.37642A 149 149 0 0 1 148.888 -5.77855A 1.5 1.5 0 0 0 149.938 -4.32323" stroke="#191919" stroke-width="0.35 px" style="stroke-width:0.35;stroke-miterlimit:4;stroke-dasharray:none;fill:none;fill-rule: evenodd "/>
<title>b'InvoluteGear'</title>
</g>
</svg>