<?xml version="1.0"?>
<!DOCTYPE svg PUBLIC "-//W3C//DTD SVG 1.1//EN" "http://www.w3.org/Graphics/SVG/1.1/DTD/svg11.dtd">
<svg width="236.62042464024066mm" height="236.62042464024066mm" viewBox="0 0 236.62042464024066 236.62042464024066" xmlns="http://www.w3.org/2000/svg" version="1.1">
<g id="InvoluteGear" transform="translate(118.310212,118.310212) scale(1,-1)">
<path id="InvoluteGear_w0000"  d="M 107.91783959741605 -4.211875666063804 C 108.51680674586936 -4.098339019387834 109.20942681665957 -3.9436583107980767 109.99124214062998 -3.7333448642116878 C 111.6259473128672 -3.2934652393115007 113.64401789416549 -2.6126684336089165 115.99040423541207 -1.563507778637136 A 116 116 0 0 1 115.99 1.56351C 113.64401789416549 2.6126684336089165 111.6259473128672 3.2934652393115007 109.99124214062998 3.7333448642116878 C 109.20942681665957 3.9436583107980767 108.51680674586936 4.098339019387834 107.91789119218292 4.2118617226031505 A 1.5 1.5 0 0 0 106.851 5.65047A 107 107 0 0 1 106.811 6.34854A 1.5 1.5 0 0 0 107.711 7.89757C 108.29334422319529 8.077457891857577 108.9642904998561 8.30871484398282 109.71764229830261 8.60524142691833 C 111.29281789577989 9.225384089257812 113.22197421515907 10.127852402915348 115.4361382485004 11.433128073334029 A 116 116 0 0 1 115.086 14.5405C 112.63692211035772 15.320333448675015 110.55531567561196 15.77089733158343 108.88163829463373 16.024982177537098 C 108.08119122645817 16.14643767415684 107.37560746079627 16.222596939552755 106.76774725241177 16.26834856963928 A 1.5 1.5 0 0 0 105.546 17.5784A 107 107 0 0 1 105.429 18.2677A 1.5 1.5 0 0 0 106.149 19.9077C 106.70803006365263 20.151676083462647 107.34886500746295 20.45660108877199 108.06427944441519 20.835611814227477 C 109.56011672005612 21.62821886021218 111.3760985174774 22.741009619156113 113.43019584550635 24.285985706127594 A 116 116 0 0 1 112.734 27.3346C 110.21335167754773 27.835336381559504 108.09438679804761 28.050001239422926 106.4027846724844 28.115096042068743 C 105.5937719464162 28.14616621538172 104.88409761112506 28.14284629063281 104.27493694285161 28.12025149429649 A 1.5 1.5 0 0 0 102.914 29.2853A 107 107 0 0 1 102.721 29.9572A 1.5 1.5 0 0 0 103.253 31.6675C 103.78080051261837 31.972475256043356 104.38346525233867 32.34723370567343 105.05194557615886 32.803962293869134 C 106.44963350831722 33.75906623001449 108.12960375902087 35.068185444794864 109.99780291602241 36.833432977609476 A 116 116 0 0 1 108.965 39.785C 106.40378440011641 40.00029380900753 104.27410828867372 39.97636010668686 102.58585429674491 39.85164626111268 C 101.77844971721449 39.791940385662144 101.07360937882304 39.70918302074839 100.47080879950742 39.618525940662956 A 1.5 1.5 0 0 0 98.9884 40.6239A 107 107 0 0 1 98.7208 41.2699A 1.5 1.5 0 0 0 99.0581 43.029C 99.5484671801149 43.391202001417085 100.10538285696897 43.831081090423865 100.71852253972374 44.35978391436315 C 102.00048439169522 45.46537375450791 103.5233164950372 46.95435849143019 105.18212379265763 48.91767845814231 A 116 116 0 0 1 103.825 51.735C 101.2561277969399 51.66222433309621 99.14252236632286 51.399993050784815 97.47884728152475 51.087038905959375 C 96.68320442958678 50.937307817771284 95.99206186430814 50.77615373457343 95.40320194098832 50.61857443612141 A 1.5 1.5 0 0 0 93.8175 51.4517A 107 107 0 0 1 93.4793 52.0636A 1.5 1.5 0 0 0 93.6175 53.8495C 94.06425411345543 54.264259205461165 94.56841718967685 54.76372719907661 95.11850564410364 55.3577555139879 C 96.2686200017881 56.59992782441407 97.6151634605011 58.2500532364824 99.04371843451047 60.386755749365854 A 116 116 0 0 1 97.38 63.0345C 94.83511663654303 62.674472411075456 92.76416170138413 62.17724125929851 91.1459872031948 61.67998239517323 C 90.37211174935511 61.442109049557544 89.70335847595797 61.20458485417556 89.13584446383418 60.98206498846464 A 1.5 1.5 0 0 0 87.4668 61.6324A 107 107 0 0 1 87.0623 62.2026A 1.5 1.5 0 0 0 86.9996 63.9927C 87.39712847396778 64.45491186513999 87.84219880635081 65.0076876635463 88.32231835096643 65.65957121870633 C 89.3261218590041 67.02270496188515 90.4794431078121 68.81321976461773 91.65978085054532 71.09643454982931 A 116 116 0 0 1 89.7101 73.5412C 87.22149885982532 72.89855263390949 85.21923788003019 72.17257458290084 83.6669134516511 71.49726431820838 C 82.92453732875472 71.17424011050355 82.2865833076717 70.86333280750912 81.74755202472569 70.57867069095965 A 1.5 1.5 0 0 0 80.0162 71.038A 107 107 0 0 1 79.5503 71.5594A 1.5 1.5 0 0 0 79.2877 73.3312C 79.63093323492488 73.83500661050374 80.011313805804 74.43413873730796 80.41542665876307 75.13567971877895 C 81.26029590562001 76.60263269698133 82.20589126064667 78.51102012785286 83.12316834014096 80.91203443471647 A 116 116 0 0 1 80.912 83.1232C 78.51102012785287 82.20589126064665 76.60263269698135 81.26029590562 75.13567971877896 80.41542665876305 C 74.43413873730798 80.01131380580398 73.83500661050375 79.63093323492487 73.33123668787181 79.28770865881727 A 1.5 1.5 0 0 0 71.5594 79.5503A 107 107 0 0 1 71.038 80.0162A 1.5 1.5 0 0 0 70.5786 81.7475C 70.86333280750914 82.28658330767169 71.17424011050356 82.92453732875471 71.4972643182084 83.6669134516511 C 72.17257458290085 85.21923788003018 72.89855263390949 87.2214988598253 73.54123375867366 89.7101185403312 A 116 116 0 0 1 71.0964 91.6598C 68.81321976461773 90.47944310781209 67.02270496188517 89.32612185900409 65.65957121870635 88.32231835096643 C 65.00768766354632 87.8421988063508 64.45491186514 87.39712847396777 63.99273850189333 86.99965768649011 A 1.5 1.5 0 0 0 62.2026 87.0623A 107 107 0 0 1 61.6324 87.4668A 1.5 1.5 0 0 0 60.982 89.1358C 61.204584854175565 89.70335847595797 61.44210904955755 90.37211174935511 61.67998239517324 91.1459872031948 C 62.177241259298526 92.76416170138413 62.67447241107547 94.83511663654303 63.03447549307331 97.38004585427807 A 116 116 0 0 1 60.3868 99.0437C 58.250053236482415 97.6151634605011 56.59992782441408 96.2686200017881 55.35775551398791 95.11850564410364 C 54.76372719907662 94.56841718967685 54.26425920546117 94.06425411345543 53.84949449980183 93.6175355403782 A 1.5 1.5 0 0 0 52.0636 93.4793A 107 107 0 0 1 51.4517 93.8175A 1.5 1.5 0 0 0 50.6186 95.4031C 50.77615373457343 95.99206186430814 50.93730781777129 96.68320442958678 51.08703890595938 97.47884728152475 C 51.399993050784815 99.14252236632286 51.66222433309622 101.2561277969399 51.735022124692975 103.8253625903887 A 116 116 0 0 1 48.9177 105.182C 46.9543584914302 103.5233164950372 45.46537375450791 102.00048439169522 44.359783914363156 100.71852253972374 C 43.83108109042387 100.10538285696897 43.391202001417085 99.5484671801149 43.02906186017083 99.05811856668667 A 1.5 1.5 0 0 0 41.2699 98.7208A 107 107 0 0 1 40.6239 98.9884A 1.5 1.5 0 0 0 39.6185 100.471C 39.7091830207484 101.07360937882304 39.79194038566216 101.77844971721449 39.85164626111268 102.58585429674491 C 39.97636010668687 104.27410828867372 40.00029380900754 106.40378440011641 39.7849708357356 108.96501515104666 A 116 116 0 0 1 36.8334 109.998C 35.06818544479487 108.12960375902087 33.7590662300145 106.44963350831722 32.80396229386915 105.05194557615886 C 32.34723370567343 104.38346525233867 31.972475256043364 103.78080051261837 31.667513801604965 103.2529882771599 A 1.5 1.5 0 0 0 29.9572 102.721A 107 107 0 0 1 29.2853 102.914A 1.5 1.5 0 0 0 28.1203 104.275C 28.142846290632814 104.88409761112506 28.146166215381726 105.5937719464162 28.11509604206875 106.4027846724844 C 28.050001239422926 108.09438679804761 27.83533638155951 110.21335167754773 27.33460045474109 112.73436942320575 A 116 116 0 0 1 24.286 113.43C 22.74100961915612 111.3760985174774 21.628218860212186 109.56011672005612 20.835611814227477 108.06427944441519 C 20.456601088771997 107.34886500746295 20.15167608346265 106.70803006365263 19.907728383064434 106.14939175126861 A 1.5 1.5 0 0 0 18.2677 105.429A 107 107 0 0 1 17.5784 105.546A 1.5 1.5 0 0 0 16.2684 106.768C 16.222596939552762 107.37560746079627 16.146437674156843 108.08119122645817 16.024982177537105 108.88163829463373 C 15.770897331583434 110.55531567561196 15.320333448675022 112.63692211035772 14.540481613123603 115.0860235898633 A 116 116 0 0 1 11.4331 115.436C 10.127852402915355 113.22197421515907 9.225384089257819 111.29281789577989 8.605241426918335 109.71764229830261 C 8.308714843982827 108.9642904998561 8.077457891857584 108.29334422319529 7.8975917293738105 107.71090503479344 A 1.5 1.5 0 0 0 6.34854 106.811A 107 107 0 0 1 5.65047 106.851A 1.5 1.5 0 0 0 4.21188 107.918C 4.09833901938784 108.51680674586936 3.9436583107980834 109.20942681665957 3.7333448642116944 109.99124214062998 C 3.2934652393115074 111.6259473128672 2.6126684336089236 113.64401789416549 1.5635077786371432 115.99040423541207 A 116 116 0 0 1 -1.56351 115.99C -2.6126684336089094 113.64401789416549 -3.293465239311494 111.6259473128672 -3.733344864211681 109.99124214062998 C -3.94365831079807 109.20942681665957 -4.0983390193878275 108.51680674586936 -4.211861722603144 107.91789119218292 A 1.5 1.5 0 0 0 -5.65047 106.851A 107 107 0 0 1 -6.34854 106.811A 1.5 1.5 0 0 0 -7.89757 107.711C -8.077457891857572 108.29334422319529 -8.308714843982813 108.9642904998561 -8.605241426918322 109.71764229830261 C -9.225384089257805 111.29281789577989 -10.127852402915343 113.22197421515907 -11.433128073334023 115.4361382485004 A 116 116 0 0 1 -14.5405 115.086C -15.32033344867501 112.63692211035772 -15.770897331583424 110.55531567561196 -16.02498217753709 108.88163829463373 C -16.146437674156832 108.08119122645817 -16.22259693955275 107.37560746079627 -16.268348569639272 106.76774725241177 A 1.5 1.5 0 0 0 -17.5784 105.546A 107 107 0 0 1 -18.2677 105.429A 1.5 1.5 0 0 0 -19.9077 106.149C -20.15167608346264 106.70803006365263 -20.456601088771983 107.34886500746295 -20.83561181422747 108.06427944441519 C -21.628218860212172 109.56011672005612 -22.741009619156106 111.3760985174774 -24.285985706127587 113.43019584550635 A 116 116 0 0 1 -27.3346 112.734C -27.835336381559497 110.21335167754773 -28.05000123942292 108.09438679804761 -28.115096042068735 106.4027846724844 C -28.14616621538171 105.5937719464162 -28.142846290632804 104.88409761112506 -28.120251494296483 104.27493694285161 A 1.5 1.5 0 0 0 -29.2853 102.914A 107 107 0 0 1 -29.9572 102.721A 1.5 1.5 0 0 0 -31.6675 103.253C -31.972475256043356 103.78080051261837 -32.34723370567343 104.38346525233867 -32.803962293869134 105.05194557615886 C -33.75906623001449 106.44963350831722 -35.068185444794864 108.12960375902087 -36.833432977609476 109.99780291602241 A 116 116 0 0 1 -39.785 108.965C -40.00029380900753 106.40378440011641 -39.97636010668686 104.27410828867372 -39.85164626111268 102.58585429674491 C -39.791940385662144 101.77844971721449 -39.70918302074839 101.07360937882304 -39.618525940662956 100.47080879950742 A 1.5 1.5 0 0 0 -40.6239 98.9884A 107 107 0 0 1 -41.2699 98.7208A 1.5 1.5 0 0 0 -43.029 99.0581C -43.391202001417085 99.5484671801149 -43.831081090423865 100.10538285696897 -44.35978391436314 100.71852253972374 C -45.4653737545079 102.00048439169522 -46.95435849143019 103.5233164950372 -48.917678458142305 105.18212379265763 A 116 116 0 0 1 -51.735 103.825C -51.66222433309621 101.2561277969399 -51.39999305078481 99.14252236632286 -51.08703890595937 97.47884728152475 C -50.937307817771284 96.68320442958678 -50.77615373457341 95.99206186430814 -50.618574436121406 95.40320194098832 A 1.5 1.5 0 0 0 -51.4517 93.8175A 107 107 0 0 1 -52.0636 93.4793A 1.5 1.5 0 0 0 -53.8495 93.6175C -54.26425920546115 94.06425411345543 -54.7637271990766 94.56841718967685 -55.357755513987875 95.11850564410365 C -56.59992782441405 96.26862000178811 -58.250053236482394 97.61516346050111 -60.38675574936584 99.04371843451048 A 116 116 0 0 1 -63.0345 97.38C -62.67447241107545 94.83511663654305 -62.1772412592985 92.76416170138414 -61.67998239517322 91.14598720319482 C -61.44210904955753 90.37211174935511 -61.20458485417554 89.70335847595797 -60.98206498846463 89.13584446383418 A 1.5 1.5 0 0 0 -61.6324 87.4668A 107 107 0 0 1 -62.2026 87.0623A 1.5 1.5 0 0 0 -63.9927 86.9996C -64.45491186513998 87.39712847396778 -65.0076876635463 87.84219880635082 -65.65957121870633 88.32231835096644 C -67.02270496188514 89.32612185900412 -68.81321976461771 90.47944310781212 -71.0964345498293 91.65978085054533 A 116 116 0 0 1 -73.5412 89.7101C -72.89855263390947 87.22149885982533 -72.17257458290082 85.2192378800302 -71.49726431820838 83.66691345165111 C -71.17424011050355 82.92453732875474 -70.86333280750911 82.2865833076717 -70.57867069095964 81.7475520247257 A 1.5 1.5 0 0 0 -71.038 80.0162A 107 107 0 0 1 -71.5594 79.5503A 1.5 1.5 0 0 0 -73.3312 79.2877C -73.83500661050374 79.63093323492488 -74.43413873730796 80.011313805804 -75.13567971877895 80.41542665876307 C -76.60263269698133 81.26029590562001 -78.51102012785286 82.20589126064667 -80.91203443471647 83.12316834014096 A 116 116 0 0 1 -83.1232 80.912C -82.20589126064665 78.51102012785287 -81.26029590562 76.60263269698135 -80.41542665876305 75.13567971877896 C -80.01131380580398 74.43413873730798 -79.63093323492487 73.83500661050375 -79.28770865881727 73.33123668787181 A 1.5 1.5 0 0 0 -79.5503 71.5594A 107 107 0 0 1 -80.0162 71.038A 1.5 1.5 0 0 0 -81.7475 70.5786C -82.28658330767169 70.86333280750914 -82.92453732875471 71.17424011050356 -83.6669134516511 71.4972643182084 C -85.21923788003018 72.17257458290085 -87.2214988598253 72.89855263390949 -89.7101185403312 73.54123375867366 A 116 116 0 0 1 -91.6598 71.0964C -90.47944310781209 68.81321976461773 -89.32612185900409 67.02270496188517 -88.32231835096643 65.65957121870635 C -87.8421988063508 65.00768766354632 -87.39712847396777 64.45491186514 -86.99965768649011 63.99273850189333 A 1.5 1.5 0 0 0 -87.0623 62.2026A 107 107 0 0 1 -87.4668 61.6324A 1.5 1.5 0 0 0 -89.1358 60.982C -89.70335847595797 61.204584854175565 -90.37211174935511 61.44210904955755 -91.1459872031948 61.67998239517324 C -92.76416170138413 62.177241259298526 -94.83511663654303 62.67447241107547 -97.38004585427807 63.03447549307331 A 116 116 0 0 1 -99.0437 60.3868C -97.6151634605011 58.250053236482415 -96.2686200017881 56.59992782441408 -95.11850564410364 55.35775551398791 C -94.56841718967685 54.76372719907662 -94.06425411345543 54.26425920546117 -93.6175355403782 53.84949449980183 A 1.5 1.5 0 0 0 -93.4793 52.0636A 107 107 0 0 1 -93.8175 51.4517A 1.5 1.5 0 0 0 -95.4031 50.6186C -95.99206186430813 50.77615373457343 -96.68320442958677 50.9373078177713 -97.47884728152475 51.08703890595939 C -99.14252236632285 51.39999305078482 -101.25612779693988 51.662224333096226 -103.8253625903887 51.73502212469298 A 116 116 0 0 1 -105.182 48.9177C -103.52331649503718 46.954358491430206 -102.00048439169521 45.465373754507915 -100.71852253972374 44.35978391436316 C -100.10538285696896 43.83108109042388 -99.54846718011488 43.3912020014171 -99.05811856668666 43.02906186017084 A 1.5 1.5 0 0 0 -98.7208 41.2699A 107 107 0 0 1 -98.9884 40.6239A 1.5 1.5 0 0 0 -100.471 39.6185C -101.07360937882304 39.709183020748405 -101.77844971721449 39.79194038566216 -102.58585429674491 39.85164626111269 C -104.27410828867372 39.976360106686876 -106.40378440011641 40.00029380900754 -108.96501515104666 39.784970835735606 A 116 116 0 0 1 -109.998 36.8334C -108.12960375902087 35.06818544479487 -106.44963350831722 33.759066230014504 -105.05194557615886 32.80396229386915 C -104.38346525233867 32.347233705673446 -103.78080051261837 31.97247525604337 -103.2529882771599 31.667513801604972 A 1.5 1.5 0 0 0 -102.721 29.9572A 107 107 0 0 1 -102.914 29.2853A 1.5 1.5 0 0 0 -104.275 28.1203C -104.88409761112506 28.14284629063282 -105.5937719464162 28.146166215381733 -106.4027846724844 28.115096042068757 C -108.09438679804761 28.050001239422933 -110.21335167754773 27.835336381559518 -112.73436942320575 27.334600454741096 A 116 116 0 0 1 -113.43 24.286C -111.3760985174774 22.741009619156127 -109.56011672005612 21.628218860212193 -108.06427944441519 20.835611814227484 C -107.34886500746295 20.456601088772004 -106.70803006365263 20.151676083462657 -106.14939175126861 19.90772838306444 A 1.5 1.5 0 0 0 -105.429 18.2677A 107 107 0 0 1 -105.546 17.5784A 1.5 1.5 0 0 0 -106.768 16.2684C -107.37560746079627 16.22259693955277 -108.08119122645817 16.14643767415685 -108.88163829463373 16.02498217753711 C -110.55531567561196 15.770897331583445 -112.63692211035772 15.32033344867503 -115.0860235898633 14.540481613123612 A 116 116 0 0 1 -115.436 11.4331C -113.22197421515907 10.127852402915362 -111.29281789577989 9.225384089257826 -109.71764229830261 8.605241426918344 C -108.9642904998561 8.308714843982834 -108.29334422319529 8.077457891857591 -107.71090503479344 7.897591729373819 A 1.5 1.5 0 0 0 -106.811 6.34854A 107 107 0 0 1 -106.851 5.65047A 1.5 1.5 0 0 0 -107.918 4.21188C -108.51680674586936 4.098339019387847 -109.20942681665957 3.94365831079809 -109.99124214062998 3.733344864211701 C -111.6259473128672 3.2934652393115145 -113.64401789416549 2.6126684336089303 -115.99040423541207 1.5635077786371503 A 116 116 0 0 1 -115.99 -1.56351C -113.64401789416549 -2.6126684336089028 -111.6259473128672 -3.293465239311487 -109.99124214062998 -3.7333448642116744 C -109.20942681665957 -3.9436583107980634 -108.51680674586936 -4.09833901938782 -107.91789119218292 -4.211861722603137 A 1.5 1.5 0 0 0 -106.851 -5.65047A 107 107 0 0 1 -106.811 -6.34854A 1.5 1.5 0 0 0 -107.711 -7.89757C -108.29334422319529 -8.077457891857565 -108.9642904998561 -8.308714843982806 -109.71764229830261 -8.605241426918315 C -111.29281789577989 -9.225384089257798 -113.22197421515907 -10.127852402915334 -115.4361382485004 -11.433128073334014 A 116 116 0 0 1 -115.086 -14.5405C -112.63692211035772 -15.320333448675001 -110.55531567561196 -15.770897331583416 -108.88163829463373 -16.024982177537083 C -108.08119122645817 -16.146437674156825 -107.37560746079627 -16.222596939552744 -106.76774725241177 -16.268348569639265 A 1.5 1.5 0 0 0 -105.546 -17.5784A 107 107 0 0 1 -105.429 -18.2677A 1.5 1.5 0 0 0 -106.149 -19.9077C -106.70803006365263 -20.151676083462633 -107.34886500746295 -20.456601088771976 -108.06427944441519 -20.835611814227462 C -109.56011672005612 -21.628218860212165 -111.3760985174774 -22.741009619156102 -113.43019584550635 -24.285985706127583 A 116 116 0 0 1 -112.734 -27.3346C -110.21335167754773 -27.835336381559493 -108.09438679804761 -28.05000123942291 -106.4027846724844 -28.11509604206873 C -105.5937719464162 -28.14616621538171 -104.88409761112506 -28.142846290632797 -104.27493694285161 -28.120251494296475 A 1.5 1.5 0 0 0 -102.914 -29.2853A 107 107 0 0 1 -102.721 -29.9572A 1.5 1.5 0 0 0 -103.253 -31.6675C -103.78080051261837 -31.97247525604335 -104.38346525233867 -32.34723370567342 -105.05194557615886 -32.803962293869134 C -106.44963350831722 -33.75906623001448 -108.12960375902087 -35.06818544479486 -109.99780291602241 -36.83343297760947 A 116 116 0 0 1 -108.965 -39.785C -106.40378440011641 -40.00029380900752 -104.27410828867372 -39.976360106686855 -102.58585429674491 -39.85164626111268 C -101.77844971721449 -39.791940385662144 -101.07360937882304 -39.709183020748384 -100.47080879950742 -39.61852594066295 A 1.5 1.5 0 0 0 -98.9884 -40.6239A 107 107 0 0 1 -98.7208 -41.2699A 1.5 1.5 0 0 0 -99.0581 -43.029C -99.5484671801149 -43.39120200141707 -100.10538285696897 -43.83108109042386 -100.71852253972374 -44.359783914363135 C -102.00048439169522 -45.465373754507894 -103.5233164950372 -46.954358491430185 -105.18212379265763 -48.9176784581423 A 116 116 0 0 1 -103.825 -51.735C -101.2561277969399 -51.662224333096205 -99.14252236632286 -51.3999930507848 -97.47884728152475 -51.08703890595936 C -96.68320442958678 -50.93730781777128 -95.99206186430814 -50.77615373457341 -95.40320194098832 -50.6185744361214 A 1.5 1.5 0 0 0 -93.8175 -51.4517A 107 107 0 0 1 -93.4793 -52.0636A 1.5 1.5 0 0 0 -93.6175 -53.8495C -94.06425411345543 -54.26425920546115 -94.56841718967685 -54.7637271990766 -95.11850564410365 -55.357755513987875 C -96.26862000178811 -56.59992782441405 -97.61516346050111 -58.250053236482394 -99.04371843451048 -60.38675574936584 A 116 116 0 0 1 -97.38 -63.0345C -94.83511663654305 -62.67447241107545 -92.76416170138414 -62.1772412592985 -91.14598720319482 -61.67998239517322 C -90.37211174935511 -61.44210904955753 -89.70335847595797 -61.20458485417554 -89.13584446383418 -60.98206498846463 A 1.5 1.5 0 0 0 -87.4668 -61.6324A 107 107 0 0 1 -87.0623 -62.2026A 1.5 1.5 0 0 0 -86.9996 -63.9927C -87.39712847396778 -64.45491186513998 -87.84219880635082 -65.0076876635463 -88.32231835096644 -65.65957121870633 C -89.32612185900412 -67.02270496188514 -90.47944310781212 -68.81321976461771 -91.65978085054533 -71.0964345498293 A 116 116 0 0 1 -89.7101 -73.5412C -87.22149885982533 -72.89855263390947 -85.2192378800302 -72.17257458290082 -83.66691345165111 -71.49726431820838 C -82.92453732875474 -71.17424011050355 -82.2865833076717 -70.86333280750911 -81.7475520247257 -70.57867069095964 A 1.5 1.5 0 0 0 -80.0162 -71.038A 107 107 0 0 1 -79.5503 -71.5594A 1.5 1.5 0 0 0 -79.2877 -73.3312C -79.6309332349249 -73.83500661050374 -80.01131380580401 -74.43413873730796 -80.41542665876308 -75.13567971877895 C -81.26029590562001 -76.60263269698133 -82.20589126064668 -78.51102012785286 -83.12316834014098 -80.91203443471647 A 116 116 0 0 1 -80.912 -83.1232C -78.51102012785289 -82.20589126064665 -76.60263269698135 -81.26029590562 -75.13567971877897 -80.41542665876305 C -74.43413873730799 -80.01131380580398 -73.83500661050377 -79.63093323492487 -73.33123668787181 -79.28770865881727 A 1.5 1.5 0 0 0 -71.5594 -79.5503A 107 107 0 0 1 -71.038 -80.0162A 1.5 1.5 0 0 0 -70.5786 -81.7475C -70.86333280750915 -82.28658330767169 -71.17424011050358 -82.92453732875471 -71.49726431820841 -83.6669134516511 C -72.17257458290086 -85.21923788003018 -72.8985526339095 -87.2214988598253 -73.54123375867367 -89.7101185403312 A 116 116 0 0 1 -71.0964 -91.6598C -68.81321976461774 -90.47944310781209 -67.02270496188518 -89.32612185900409 -65.65957121870636 -88.32231835096643 C -65.00768766354633 -87.8421988063508 -64.45491186514002 -87.39712847396777 -63.99273850189334 -86.99965768649011 A 1.5 1.5 0 0 0 -62.2026 -87.0623A 107 107 0 0 1 -61.6324 -87.4668A 1.5 1.5 0 0 0 -60.982 -89.1358C -61.20458485417558 -89.70335847595796 -61.442109049557565 -90.3721117493551 -61.67998239517325 -91.14598720319479 C -62.177241259298526 -92.76416170138411 -62.674472411075485 -94.83511663654302 -63.03447549307332 -97.38004585427805 A 116 116 0 0 1 -60.3868 -99.0437C -58.25005323648243 -97.61516346050108 -56.599927824414095 -96.26862000178808 -55.35775551398792 -95.11850564410362 C -54.763727199076634 -94.56841718967684 -54.26425920546119 -94.06425411345542 -53.84949449980184 -93.61753554037819 A 1.5 1.5 0 0 0 -52.0636 -93.4793A 107 107 0 0 1 -51.4517 -93.8175A 1.5 1.5 0 0 0 -50.6186 -95.4031C -50.776153734573434 -95.99206186430813 -50.937307817771305 -96.68320442958677 -51.087038905959396 -97.47884728152474 C -51.39999305078483 -99.14252236632285 -51.66222433309623 -101.25612779693988 -51.73502212469299 -103.8253625903887 A 116 116 0 0 1 -48.9177 -105.182C -46.95435849143021 -103.52331649503718 -45.46537375450792 -102.00048439169521 -44.35978391436317 -100.71852253972375 C -43.831081090423886 -100.10538285696896 -43.391202001417106 -99.54846718011488 -43.02906186017084 -99.05811856668666 A 1.5 1.5 0 0 0 -41.2699 -98.7208A 107 107 0 0 1 -40.6239 -98.9884A 1.5 1.5 0 0 0 -39.6185 -100.471C -39.709183020748405 -101.07360937882302 -39.791940385662166 -101.77844971721449 -39.85164626111269 -102.5858542967449 C -39.97636010668688 -104.2741082886737 -40.000293809007545 -106.4037844001164 -39.78497083573561 -108.96501515104664 A 116 116 0 0 1 -36.8334 -109.998C -35.06818544479488 -108.12960375902085 -33.75906623001451 -106.4496335083172 -32.80396229386916 -105.05194557615884 C -32.34723370567345 -104.38346525233867 -31.97247525604337 -103.78080051261836 -31.66751380160498 -103.25298827715989 A 1.5 1.5 0 0 0 -29.9572 -102.721A 107 107 0 0 1 -29.2853 -102.914A 1.5 1.5 0 0 0 -28.1203 -104.275C -28.142846290632832 -104.88409761112506 -28.14616621538174 -105.59377194641618 -28.115096042068764 -106.40278467248439 C -28.050001239422944 -108.0943867980476 -27.835336381559525 -110.21335167754772 -27.334600454741107 -112.73436942320573 A 116 116 0 0 1 -24.286 -113.43C -22.741009619156134 -111.37609851747739 -21.628218860212204 -109.5601167200561 -20.835611814227498 -108.06427944441518 C -20.45660108877201 -107.34886500746293 -20.151676083462668 -106.70803006365263 -19.907728383064452 -106.1493917512686 A 1.5 1.5 0 0 0 -18.2677 -105.429A 107 107 0 0 1 -17.5784 -105.546A 1.5 1.5 0 0 0 -16.2684 -106.768C -16.222596939552773 -107.37560746079627 -16.146437674156857 -108.08119122645817 -16.02498217753712 -108.88163829463373 C -15.770897331583448 -110.55531567561196 -15.320333448675036 -112.63692211035772 -14.540481613123617 -115.0860235898633 A 116 116 0 0 1 -11.4331 -115.436C -10.12785240291537 -113.22197421515907 -9.225384089257833 -111.29281789577989 -8.605241426918349 -109.71764229830261 C -8.308714843982841 -108.9642904998561 -8.077457891857597 -108.29334422319529 -7.897591729373825 -107.71090503479344 A 1.5 1.5 0 0 0 -6.34854 -106.811A 107 107 0 0 1 -5.65047 -106.851A 1.5 1.5 0 0 0 -4.21188 -107.918C -4.098339019387853 -108.51680674586936 -3.9436583107980967 -109.20942681665957 -3.7333448642117077 -109.99124214062998 C -3.293465239311521 -111.6259473128672 -2.6126684336089374 -113.64401789416549 -1.5635077786371574 -115.99040423541207 A 116 116 0 0 1 1.56351 -115.99C 2.6126684336088957 -113.64401789416549 3.2934652393114803 -111.6259473128672 3.733344864211668 -109.99124214062998 C 3.9436583107980567 -109.20942681665957 4.098339019387814 -108.51680674586936 4.211861722603131 -107.91789119218292 A 1.5 1.5 0 0 0 5.65047 -106.851A 107 107 0 0 1 6.34854 -106.811A 1.5 1.5 0 0 0 7.89757 -107.711C 8.077457891857557 -108.29334422319529 8.308714843982798 -108.9642904998561 8.60524142691831 -109.71764229830261 C 9.225384089257794 -111.29281789577989 10.127852402915329 -113.22197421515907 11.433128073334009 -115.4361382485004 A 116 116 0 0 1 14.5405 -115.086C 15.320333448674996 -112.63692211035772 15.77089733158341 -110.55531567561196 16.024982177537076 -108.88163829463373 C 16.146437674156818 -108.08119122645817 16.222596939552737 -107.37560746079627 16.268348569639258 -106.76774725241177 A 1.5 1.5 0 0 0 17.5784 -105.546A 107 107 0 0 1 18.2677 -105.429A 1.5 1.5 0 0 0 19.9077 -106.149C 20.151676083462625 -106.70803006365263 20.45660108877197 -107.34886500746295 20.835611814227455 -108.06427944441519 C 21.628218860212158 -109.56011672005612 22.74100961915609 -111.3760985174774 24.285985706127573 -113.43019584550635 A 116 116 0 0 1 27.3346 -112.734C 27.835336381559483 -110.21335167754773 28.050001239422905 -108.09438679804761 28.11509604206872 -106.4027846724844 C 28.146166215381697 -105.5937719464162 28.14284629063279 -104.88409761112506 28.12025149429647 -104.27493694285161 A 1.5 1.5 0 0 0 29.2853 -102.914A 107 107 0 0 1 29.9572 -102.721A 1.5 1.5 0 0 0 31.6675 -103.253C 31.972475256043342 -103.78080051261837 32.34723370567342 -104.38346525233867 32.803962293869134 -105.05194557615886 C 33.759066230014476 -106.44963350831722 35.06818544479485 -108.12960375902087 36.83343297760946 -109.99780291602241 A 116 116 0 0 1 39.785 -108.965C 40.000293809007516 -106.40378440011641 39.97636010668685 -104.27410828867372 39.85164626111266 -102.58585429674491 C 39.79194038566213 -101.77844971721449 39.70918302074838 -101.07360937882304 39.61852594066294 -100.47080879950742 A 1.5 1.5 0 0 0 40.6239 -98.9884A 107 107 0 0 1 41.2699 -98.7208A 1.5 1.5 0 0 0 43.029 -99.0581C 43.391202001417064 -99.54846718011491 43.83108109042385 -100.10538285696897 44.359783914363135 -100.71852253972375 C 45.46537375450789 -102.00048439169524 46.95435849143018 -103.52331649503721 48.91767845814229 -105.18212379265765 A 116 116 0 0 1 51.735 -103.825C 51.6622243330962 -101.25612779693991 51.39999305078479 -99.14252236632288 51.08703890595936 -97.47884728152476 C 50.93730781777127 -96.68320442958678 50.776153734573406 -95.99206186430816 50.6185744361214 -95.40320194098834 A 1.5 1.5 0 0 0 51.4517 -93.8175A 107 107 0 0 1 52.0636 -93.4793A 1.5 1.5 0 0 0 53.8495 -93.6175C 54.26425920546114 -94.06425411345545 54.76372719907658 -94.56841718967686 55.35775551398786 -95.11850564410366 C 56.599927824414046 -96.26862000178812 58.25005323648238 -97.61516346050112 60.386755749365825 -99.04371843451048 A 116 116 0 0 1 63.0345 -97.38C 62.674472411075435 -94.83511663654306 62.17724125929849 -92.76416170138415 61.679982395173205 -91.14598720319484 C 61.44210904955752 -90.37211174935513 61.20458485417553 -89.70335847595798 60.98206498846462 -89.13584446383419 A 1.5 1.5 0 0 0 61.6324 -87.4668A 107 107 0 0 1 62.2026 -87.0623A 1.5 1.5 0 0 0 63.9927 -86.9996C 64.45491186513998 -87.39712847396778 65.0076876635463 -87.84219880635082 65.65957121870633 -88.32231835096644 C 67.02270496188514 -89.32612185900412 68.81321976461771 -90.47944310781212 71.0964345498293 -91.65978085054533 A 116 116 0 0 1 73.5412 -89.7101C 72.89855263390947 -87.22149885982533 72.17257458290082 -85.2192378800302 71.49726431820838 -83.66691345165111 C 71.17424011050355 -82.92453732875474 70.86333280750911 -82.2865833076717 70.57867069095964 -81.7475520247257 A 1.5 1.5 0 0 0 71.038 -80.0162A 107 107 0 0 1 71.5594 -79.5503A 1.5 1.5 0 0 0 73.3312 -79.2877C 73.83500661050374 -79.6309332349249 74.43413873730796 -80.01131380580401 75.13567971877895 -80.41542665876308 C 76.60263269698133 -81.26029590562001 78.51102012785286 -82.20589126064668 80.91203443471647 -83.12316834014098 A 116 116 0 0 1 83.1232 -80.912C 82.20589126064665 -78.51102012785289 81.26029590562 -76.60263269698135 80.41542665876305 -75.13567971877897 C 80.01131380580398 -74.43413873730799 79.63093323492487 -73.83500661050377 79.28770865881727 -73.33123668787181 A 1.5 1.5 0 0 0 79.5503 -71.5594A 107 107 0 0 1 80.0162 -71.038A 1.5 1.5 0 0 0 81.7475 -70.5786C 82.28658330767169 -70.86333280750915 82.92453732875471 -71.17424011050358 83.6669134516511 -71.49726431820841 C 85.21923788003018 -72.17257458290086 87.2214988598253 -72.8985526339095 89.7101185403312 -73.54123375867367 A 116 116 0 0 1 91.6598 -71.0964C 90.47944310781209 -68.81321976461774 89.32612185900409 -67.02270496188518 88.32231835096643 -65.65957121870636 C 87.8421988063508 -65.00768766354633 87.39712847396777 -64.45491186514002 86.99965768649011 -63.99273850189334 A 1.5 1.5 0 0 0 87.0623 -62.2026A 107 107 0 0 1 87.4668 -61.6324A 1.5 1.5 0 0 0 89.1358 -60.982C 89.70335847595796 -61.20458485417558 90.3721117493551 -61.442109049557565 91.14598720319479 -61.67998239517325 C 92.76416170138411 -62.177241259298526 94.83511663654302 -62.674472411075485 97.38004585427805 -63.03447549307332 A 116 116 0 0 1 99.0437 -60.3868C 97.61516346050108 -58.25005323648243 96.26862000178808 -56.599927824414095 95.11850564410362 -55.35775551398792 C 94.56841718967684 -54.763727199076634 94.06425411345542 -54.26425920546119 93.61753554037819 -53.84949449980184 A 1.5 1.5 0 0 0 93.4793 -52.0636A 107 107 0 0 1 93.8175 -51.4517A 1.5 1.5 0 0 0 95.4031 -50.6186C 95.99206186430813 -50.776153734573434 96.68320442958677 -50.937307817771305 97.47884728152474 -51.087038905959396 C 99.14252236632285 -51.39999305078483 101.25612779693988 -51.66222433309623 103.8253625903887 -51.73502212469299 A 116 116 0 0 1 105.182 -48.9177C 103.52331649503718 -46.95435849143021 102.00048439169521 -45.46537375450792 100.71852253972375 -44.35978391436317 C 100.10538285696896 -43.831081090423886 99.54846718011488 -43.391202001417106 99.05811856668666 -43.02906186017084 A 1.5 1.5 0 0 0 98.7208 -41.2699A 107 107 0 0 1 98.9884 -40.6239A 1.5 1.5 0 0 0 100.471 -39.6185C 101.07360937882302 -39.70918302074841 101.77844971721449 -39.791940385662166 102.5858542967449 -39.8516462611127 C 104.2741082886737 -39.97636010668689 106.4037844001164 -40.00029380900755 108.96501515104664 -39.78497083573561 A 116 116 0 0 1 109.998 -36.8334C 108.12960375902085 -35.068185444794885 106.4496335083172 -33.75906623001452 105.05194557615884 -32.80396229386917 C 104.38346525233867 -32.34723370567345 103.78080051261836 -31.972475256043378 103.25298827715989 -31.66751380160498 A 1.5 1.5 0 0 0 102.721 -29.9572A 107 107 0 0 1 102.914 -29.2853A 1.5 1.5 0 0 0 104.275 -28.1203C 104.88409761112506 -28.142846290632836 105.59377194641618 -28.146166215381747 106.40278467248439 -28.115096042068767 C 108.0943867980476 -28.05000123942295 110.21335167754772 -27.835336381559532 112.73436942320573 -27.33460045474111 A 116 116 0 0 1 113.43 -24.286C 111.37609851747739 -22.74100961915614 109.5601167200561 -21.62821886021221 108.06427944441518 -20.8356118142275 C 107.34886500746293 -20.456601088772018 106.70803006365263 -20.15167608346267 106.1493917512686 -19.90772838306446 A 1.5 1.5 0 0 0 105.429 -18.2677A 107 107 0 0 1 105.546 -17.5784A 1.5 1.5 0 0 0 106.768 -16.2684C 107.37560746079627 -16.222596939552783 108.08119122645817 -16.146437674156864 108.88163829463373 -16.024982177537126 C 110.55531567561196 -15.770897331583459 112.63692211035772 -15.320333448675044 115.0860235898633 -14.540481613123626 A 116 116 0 0 1 115.436 -11.4331C 113.22197421515907 -10.127852402915376 111.29281789577989 -9.22538408925784 109.71764229830261 -8.605241426918356 C 108.9642904998561 -8.308714843982848 108.29334422319529 -8.077457891857605 107.71090503479344 -7.897591729373832 A 1.5 1.5 0 0 0 106.811 -6.34854A 107 107 0 0 1 106.851 -5.65047A 1.5 1.5 0 0 0 107.918 -4.21188" stroke="#191919" stroke-width="0.35 px" style="stroke-width:0.35;stroke-miterlimit:4;stroke-dasharray:none;fill:none;fill-rule: evenodd "/>
<title>b'InvoluteGear'</title>
</g>
</svg>