<?xml version="1.0"?>
<!DOCTYPE svg PUBLIC "-//W3C//DTD SVG 1.1//EN" "http://www.w3.org/Graphics/SVG/1.1/DTD/svg11.dtd">
<svg width="636.4713271791868mm" height="636.408332150542mm" viewBox="0 0 636.4713271791868 636.408332150542" xmlns="http://www.w3.org/2000/svg" version="1.1">
<g id="InvoluteGear" transform="translate(318.235664,318.204166) scale(1,-1)">
<path id="InvoluteGear_w0000"  d="M 303.96722785162046 -4.463674741852936 C 304.6231989849056 -4.263471443026475 305.2995342249945 -4.049121210216709 305.9957690951908 -3.8196734484868413 C 307.8569873859678 -3.2062935667504595 309.8601300717949 -2.4851523409389165 311.99574861724835 -1.6383530549766965 A 312 312 0 0 1 311.996 1.63835C 309.8601300717949 2.4851523409389165 307.8569873859678 3.2062935667504595 305.9957690951908 3.8196734484868413 C 305.2995342249945 4.049121210216709 304.6231989849056 4.263471443026475 303.96722885396554 4.463674314607983 A 1.5 1.5 0 0 0 302.942 5.94137A 303 303 0 0 1 302.932 6.42014A 1.5 1.5 0 0 0 303.896 7.93843C 304.54359233093015 8.165226188854094 305.2106216814706 8.406984797406473 305.8969182947757 8.664640048480724 C 307.73156878037656 9.35342593751026 309.70363011859604 10.15567238695553 311.8029316553439 11.088875826832911 A 312 312 0 0 1 311.669 14.3629C 309.500898418327 15.121840778019482 307.4700084182044 15.760676511795761 305.5853201364141 16.297629475959788 C 304.8803058235572 16.498487855189882 304.1957903871801 16.685072947448568 303.53220016295563 16.858353115929447 A 1.5 1.5 0 0 0 302.447 18.293A 303 303 0 0 1 302.418 18.771A 1.5 1.5 0 0 0 303.32 20.3273C 303.95710292267285 20.58033360756267 304.61371617913954 20.84909820851269 305.28893226257054 21.134532107193692 C 307.0939613483222 21.8975775873798 309.0316590374577 22.779594000416722 311.09114948527036 23.79764836918066 A 312 312 0 0 1 310.824 27.0635C 308.62653306382725 27.733360403486884 306.5712759653874 28.288827366195193 304.6662545702307 28.748459707569452 C 303.9536342414596 28.92039439535009 303.26207791718394 29.078903794585557 302.59197208011415 29.22497285222625 A 1.5 1.5 0 0 0 301.449 30.6142A 303 303 0 0 1 301.401 31.0905A 1.5 1.5 0 0 0 302.238 32.6824C 302.8647069138737 32.96118709203742 303.50981120830187 33.256510353230944 304.17282293132445 33.569247822963575 C 305.94522632445035 34.4052828804088 307.84533525792807 35.36560122776335 309.86158679820454 36.46681207438797 A 312 312 0 0 1 309.462 39.719C 307.2384893031378 40.29872058754488 305.16228587898956 40.76989425924436 303.24010209057366 41.15144096515738 C 302.5210618320977 41.29416579316884 301.82361564717604 41.42433567612922 301.1481095222946 41.542950505398714 A 1.5 1.5 0 0 0 299.95 42.8844A 303 303 0 0 1 299.882 43.3584A 1.5 1.5 0 0 0 300.653 44.9831C 301.2682224898816 45.287179933509535 301.900744109838 45.60857031852351 302.55044795487123 45.9480908386532 C 304.28727566484065 46.855723975512035 306.146633298861 47.89274590206806 308.1162900798946 49.07528036977672 A 312 312 0 0 1 307.584 52.3084C 305.3390773981135 52.79700752823203 303.2453832839575 53.18310368684588 301.30923638749954 53.48592971046017 C 300.5849729708675 53.59920712731162 299.88279775564433 53.70082083907309 299.20301565623083 53.79178401729407 A 1.5 1.5 0 0 0 297.951 55.0832A 303 303 0 0 1 297.864 55.554A 1.5 1.5 0 0 0 298.568 57.2089C 299.17030684146476 57.537796733336315 299.7891930171359 57.88471931959265 300.42450761624855 58.25045779172064 C 302.12286886474425 59.228178342210335 303.93838048202383 60.340177827313894 305.8581642044864 61.602067704188464 A 312 312 0 0 1 305.194 64.8108C 302.93145873241883 65.20741906038106 300.82375867548325 65.50779508695678 298.87687119641566 65.73139640424169 C 298.1485900866075 65.81503787085204 297.44285454243146 65.88792628541954 296.7599278987033 65.95108641335892 A 1.5 1.5 0 0 0 295.456 67.1904A 303 303 0 0 1 295.35 67.6573A 1.5 1.5 0 0 0 295.987 69.3394C 296.5744517421782 69.69264754885762 297.17867239860215 70.06452491794899 297.7985403333426 70.45587260648284 C 299.4556083656763 71.50205325123754 301.2242522262995 72.68717948148799 303.09096759964683 74.02632447636324 A 312 312 0 0 1 302.297 77.2053C 300.01964054971705 77.50929927876987 297.90144260873944 77.72345522705508 295.9470549491344 77.86745967568501 C 295.215968298184 77.9213259790876 294.50784705221986 77.96536778088839 293.82291252817816 78.00061973474645 A 1.5 1.5 0 0 0 292.47 79.1857A 303 303 0 0 1 292.344 79.6478A 1.5 1.5 0 0 0 292.912 81.3546C 293.4849777366521 81.73150183044311 294.0735272081762 82.1277150291889 294.67691676954126 82.54402057452285 C 296.28993355950786 83.65692004910603 298.00876593031467 84.91320049885225 299.81930599103237 86.32737173704334 A 312 312 0 0 1 298.896 89.4713C 296.60846928400827 89.68217291783726 294.48329899041823 89.80975234639091 292.5246640356582 89.8739202451728 C 291.7919886651457 89.89792173022163 291.08266031532355 89.91304361602303 290.39685791688794 89.92032872240158 A 1.5 1.5 0 0 0 288.997 91.0493A 303 303 0 0 1 288.852 91.5059A 1.5 1.5 0 0 0 289.35 93.2344C 289.90702694947095 93.63432209324554 290.47892565358325 94.05421166387842 291.06483255919613 94.49478216651708 C 292.631113399536 95.67254815958445 294.2972734536753 96.99789187399908 296.0486247365131 98.48473560704342 A 312 312 0 0 1 294.998 101.588C 292.70362249321863 101.70577943074174 290.5750169832385 101.7465699961957 288.61539468790977 101.73079454399472 C 287.88235006368234 101.7248912625866 287.1729952170374 101.7110680635021 286.48746639461865 101.69037419706048 A 1.5 1.5 0 0 0 285.042 102.761A 303 303 0 0 1 284.88 103.212A 1.5 1.5 0 0 0 285.306 104.959C 285.84655452661497 105.3812972676169 286.40085059436285 105.82416434538509 286.9682996600017 106.28826651920637 C 288.4852376308311 107.52893875549519 290.09595220932465 108.92113983076267 291.7851997629116 110.47818135400195 A 312 312 0 0 1 290.609 113.536C 288.3115994094653 113.56010671104225 286.1831015368963 113.51404052152593 284.2257534989158 113.41834797502538 C 283.49355970140687 113.38254975258964 282.78535900907565 113.33980447596988 282.1012447577446 113.29116607960658 A 1.5 1.5 0 0 0 280.614 114.302A 303 303 0 0 1 280.433 114.746A 1.5 1.5 0 0 0 280.788 116.509C 281.31031872370744 116.95287567267863 281.84608958398906 117.41798314903737 282.39413634668534 117.90484454177479 C 283.85920665445707 119.20635804478867 285.4117948818492 120.66309929961437 287.0361271203427 122.28774707109632 A 312 312 0 0 1 285.736 125.295C 283.43971012172625 125.22542440087446 281.31486256121735 125.09257812901403 279.3630465932254 124.91712775901377 C 278.6329222867513 124.85149417815875 277.9270544788946 124.77989796929819 277.24549343930784 124.70339599682384 A 1.5 1.5 0 0 0 275.718 125.653A 303 303 0 0 1 275.519 126.089A 1.5 1.5 0 0 0 275.802 127.865C 276.30586965756504 128.32979755816493 276.8222235726582 128.8163713076209 277.3499558626616 129.3251815865342 C 278.76072004243497 130.68537011549265 280.25259778884475 132.20422694782252 281.80931117153796 133.8937769016666 A 312 312 0 0 1 280.388 136.846C 278.09606340891804 136.68231673018408 275.97840275953445 136.4629114854886 274.0353674665866 136.20799531181444 C 273.3085278710001 136.11263561315815 272.6061677949225 136.01230763688065 271.92829435816776 135.90806941827853 A 1.5 1.5 0 0 0 270.363 136.794A 303 303 0 0 1 270.147 137.222A 1.5 1.5 0 0 0 270.357 139.008C 270.84153673977335 139.4931271603763 271.33761428954494 140.0003573289431 271.8441537485403 140.5302696295371 C 273.1982637225652 141.9468692848695 274.62694790471585 143.52531370740084 276.113451435814 145.27695375444918 A 312 312 0 0 1 274.573 148.169C 272.28955324363426 147.9117148323601 270.1826041425366 147.60611579320644 268.2515835151214 147.27215809867198 C 267.5292383831983 147.14723099902187 266.83155504793103 147.01833824134266 266.15849746744505 146.88653727084045 A 1.5 1.5 0 0 0 264.559 147.708A 303 303 0 0 1 264.325 148.126A 1.5 1.5 0 0 0 264.462 149.92C 264.9264148132036 150.4242842188896 265.4013903255295 150.95132657200972 265.8858938685773 151.50145890755664 C 267.18109585443796 152.97211189893983 268.544208568504 154.60751674670664 269.95802810958133 156.41833145496884 A 312 312 0 0 1 268.3 159.245C 266.02984398900526 158.8949284824814 263.93711324503937 158.5036442883109 262.02132127642034 158.09120091254067 C 261.3046728803449 157.93691434072517 260.6128275109459 157.77967133091911 259.94570602464785 157.6205269782249 A 1.5 1.5 0 0 0 258.314 158.376A 303 303 0 0 1 258.063 158.784A 1.5 1.5 0 0 0 258.127 160.582C 258.5703490145442 161.10507490156766 259.0234319395591 161.65105222925771 259.485093158327 162.2204889587772 C 260.71923142014043 163.7427475294445 262.0145038995337 165.43239083247445 263.3532862874928 167.2993662795764 A 312 312 0 0 1 261.582 170.056C 259.3273543133199 169.61367720535154 257.2523250702792 169.1373591100899 255.35495040712024 168.64711652437921 C 254.64519153742236 168.46372727517067 253.96033564223134 168.27839572870943 253.30026060799747 168.0921728738924 A 1.5 1.5 0 0 0 251.639 168.781A 303 303 0 0 1 251.372 169.178A 1.5 1.5 0 0 0 251.362 170.977C 251.78391838804205 171.51772208639747 252.21435461393162 172.0817256632776 252.6524051188821 172.66951901553057 C 253.82342555530747 174.2408495163215 255.04870194681547 175.9819190300862 256.3102189104948 177.90194781964638 A 312 312 0 0 1 254.428 180.584C 252.19323984918026 180.05012070154567 250.1393657884569 179.48956148965502 248.26356642363453 178.92233565440614 C 247.56187840390731 178.71014896111132 246.88515185797385 178.49703734406373 246.23322190555643 178.2840459366876 A 1.5 1.5 0 0 0 244.545 178.904A 303 303 0 0 1 244.262 179.291A 1.5 1.5 0 0 0 244.179 181.087C 244.5784182777279 181.64489494975544 244.9854913858736 182.22598604753293 245.39920208517188 182.83115769849337 C 246.50515564825986 184.44894480486272 247.6583966002504 186.23854269098118 248.8405484691621 188.20842912456547 A 312 312 0 0 1 246.85 190.811C 244.6393746260522 190.18688854082828 242.6100742183251 189.54302120779573 240.758972234761 188.8997562144324 C 240.06652295546425 188.65912524086175 239.39905210333853 188.41858825648256 238.75635230580494 188.17918279972494 A 1.5 1.5 0 0 0 237.044 188.73A 303 303 0 0 1 236.746 189.105A 1.5 1.5 0 0 0 236.589 190.896C 236.9658415274305 191.46973781185264 237.3488739848175 192.06694926174268 237.73755629783344 192.68849196292152 C 238.77660223702387 194.35004302788872 239.85588829374475 196.18519067729343 240.9567074927685 198.20165607333956 A 312 312 0 0 1 238.862 200.721C 236.67833130711475 200.00710907352007 234.67698212264267 199.2810052729787 232.85365849690473 198.56277177259906 C 232.17160047152663 198.29409702526047 231.5144962525699 198.0265350236218 230.88209632030564 197.76111398423873 A 1.5 1.5 0 0 0 229.149 198.242A 303 303 0 0 1 228.835 198.604A 1.5 1.5 0 0 0 228.606 200.388C 228.95885851987194 200.97589819135072 229.317212806776 201.58823599383328 229.68021981015835 202.22511524874386 C 230.65062873602804 203.9276647845384 231.65416353235167 205.80530777507613 232.67181785656967 207.86499592593563 A 312 312 0 0 1 230.476 210.297C 228.32336026330375 209.49443751169372 226.35329335029272 208.6873057717609 224.56078282461368 207.89529919314452 C 223.89025127142577 207.59902785463964 223.24460737076137 207.30488616628776 222.62355987104263 207.0138913114051 A 1.5 1.5 0 0 0 220.872 207.423A 303 303 0 0 1 220.544 207.772A 1.5 1.5 0 0 0 220.242 209.545C 220.57079608806578 210.14755402245305 220.90387575914207 210.77399900168695 221.2406032635585 211.4251547876626 C 222.14076002621923 213.1658690686053 223.06687327751513 215.08288224882133 223.99966894173616 217.18236500683608 A 312 312 0 0 1 221.706 219.523C 219.5883675193764 218.63308313346042 217.65286185977888 217.74626684526217 215.8941478910274 216.88180540519662 C 215.2362588436257 216.55843058992963 214.60314987180823 216.23819878467617 213.99448847690766 215.9221144465119 A 1.5 1.5 0 0 0 212.228 216.26A 303 303 0 0 1 211.886 216.595A 1.5 1.5 0 0 0 211.512 218.354C 211.8156153341189 218.96943998917175 212.1228660111263 219.60894948931238 212.43275356687712 220.27329802180938 C 213.2611599442331 222.0492798007693 214.10831022639184 224.00247249141356 214.95469468428965 226.13825547472902 A 312 312 0 0 1 212.568 228.383C 210.48789160870587 227.40783556506804 208.59016866067884 226.44281074679688 206.86817845468988 225.50733325603622 C 206.22402690446728 225.15739318947348 205.60450660889933 224.81160426155492 205.0092443756405 224.47095653129574 A 1.5 1.5 0 0 0 203.23 224.736A 303 303 0 0 1 202.875 225.057A 1.5 1.5 0 0 0 202.43 226.8C 202.70788839235476 227.42687293293983 202.98879868686367 228.07838255353693 203.27133051669486 228.75481808998688 C 204.02660770808572 230.5631114205631 204.79338502306723 232.54923272516098 205.5519495512406 234.71776113378004 A 312 312 0 0 1 203.076 236.864C 201.0370793753271 235.8040900970672 199.18029771143281 234.76246293729562 197.49789735096246 233.75752640580168 C 196.86855542460353 233.38160352864878 196.26365493567718 233.01083300961 195.68278261930132 232.64618886178474 A 1.5 1.5 0 0 0 193.894 232.839A 303 303 0 0 1 193.526 233.145A 1.5 1.5 0 0 0 193.01 234.868C 193.2627741754339 235.5057762912794 193.51687653998192 236.1682016588664 193.77158239754556 236.85559833907578 C 194.45247331862393 238.69319349547854 195.13760144126 240.70893771112713 195.80708348391389 242.90660224352393 A 312 312 0 0 1 193.245 244.95C 191.25166076350965 243.8078719924087 189.43891081358348 242.6913761767469 187.79890048799706 241.61865322220004 C 187.185415663029 241.21737322098642 186.59614177791087 240.8222382217653 186.03062618306288 240.43420457057158 A 1.5 1.5 0 0 0 184.236 240.554A 303 303 0 0 1 183.856 240.845A 1.5 1.5 0 0 0 183.27 242.545C 183.49599314384 243.19270352685078 183.72286465011854 243.86494209977752 183.94932060265137 244.56215581981073 C 184.55469197767567 246.42599430625287 185.15703057982094 248.46800642563744 185.73631585016597 250.69114928608343 A 312 312 0 0 1 183.093 252.628C 181.14792263681827 251.40585974601436 179.38222154425304 250.21635357156143 177.78733088888623 249.07762963545335 C 177.19072425025593 248.65166040113905 176.6180577571729 248.2328185849463 176.06884012875005 247.8220412741018 A 1.5 1.5 0 0 0 174.271 247.868A 303 303 0 0 1 173.879 248.143A 1.5 1.5 0 0 0 173.224 249.819C 173.42380114072466 250.4748605078867 173.62306418350124 251.1557934113912 173.82089331741903 251.86166372781867 C 174.34973756547913 253.7486433690802 174.8682841139746 255.8135246645525 175.35640844884747 258.05844565115655 A 312 312 0 0 1 172.637 259.886C 170.74268167023524 258.58540725710736 169.02696827024397 257.3248705394992 167.4798518231942 256.1220409154419 C 166.90111636377299 255.67209143177888 166.34601040958682 255.2302399194824 165.81400486612986 254.7974026472817 A 1.5 1.5 0 0 0 164.016 254.77A 303 303 0 0 1 163.613 255.029A 1.5 1.5 0 0 0 162.89 256.676C 163.06296233566087 257.34012680276226 163.23428526126588 258.02862069122733 163.40315830949888 258.74197275256915 C 163.85459522153505 260.6489528572617 164.28848664682565 262.7332665376867 164.68463761144358 264.99622920101615 A 312 312 0 0 1 161.893 266.711C 160.05325636046493 265.3345648773989 158.3903862886796 264.0050956556009 156.89361907258936 262.7401623347972 C 156.33371804043452 262.26698149829593 155.797096544223 261.8028557081319 155.28318855645583 261.34867888949833 A 1.5 1.5 0 0 0 153.487 261.248A 303 303 0 0 1 153.074 261.49A 1.5 1.5 0 0 0 152.285 263.107C 152.43072132233704 263.7770758532571 152.57381898066856 264.47198479655236 152.71345487069385 265.1916312987025 C 153.086733074518 267.11543788663994 153.43524720714672 269.2157148175959 153.73876544732488 271.4929526796274 A 312 312 0 0 1 150.879 273.093C 149.09743820100496 271.64209930009906 147.49017914055275 270.2459103444264 146.04625237673855 268.92097868355376 C 145.50611767186197 268.42535405701875 144.98887378714682 267.9397264805608 144.49391870419788 267.46496604798654 A 1.5 1.5 0 0 0 142.704 267.291A 303 303 0 0 1 142.281 267.517A 1.5 1.5 0 0 0 141.427 269.099C 141.5447744166329 269.7749939929337 141.6594086357608 270.4751613837029 141.76957495742002 271.1999045460799 C 142.06407316830035 273.1373356310556 142.32662994088804 275.25008010886546 142.5370102804696 277.5378029319164 A 312 312 0 0 1 139.614 279.019C 137.89346206996117 277.4975122566462 136.34448914492918 276.03692738582714 134.9558061069894 274.6542026028785 C 134.43633673030192 274.13695910458785 133.9393313584829 273.6306380210108 133.46415298424105 273.13608416638226 A 1.5 1.5 0 0 0 131.682 272.89A 303 303 0 0 1 131.251 273.097A 1.5 1.5 0 0 0 130.333 274.644C 130.42324020284798 275.32389827897816 130.5092201854277 276.0281587576984 130.58973357775068 276.75679231683273 C 130.80496163247898 278.7046232360091 130.98112404518912 280.8263188059946 131.09801632686114 283.1207189011995 A 312 312 0 0 1 128.117 284.482C 126.45997587989268 282.8910579900402 124.97186720284782 281.36850820344813 123.64073921665116 279.930291707365 C 123.14279977366424 279.39229023807513 122.66686013113363 278.86611836885425 122.21224935310792 278.35259422825527 A 1.5 1.5 0 0 0 120.442 278.034A 303 303 0 0 1 120.003 278.224A 1.5 1.5 0 0 0 119.022 279.732C 119.08462937710621 280.4145531078231 119.141812017942 281.12173450243046 119.19253847433302 281.8530457196711 C 119.32813814705287 283.8080345007131 119.41761299493486 285.9351498099863 119.44082266303047 288.2324083748191 A 312 312 0 0 1 116.407 289.471C 114.81600954020165 287.8137594756923 113.3912419211766 286.23177890718796 112.11988451788818 284.7404644673914 C 111.64430377966345 284.18260047745326 111.1902220209862 283.6374535837372 110.75693549395145 283.10581386742064 A 1.5 1.5 0 0 0 109.001 282.715A 303 303 0 0 1 108.554 282.887A 1.5 1.5 0 0 0 107.513 284.354C 107.54781393812902 285.0384855868984 107.57610406235854 285.7474108637525 107.59695915363709 286.4801825437511 C 107.65270475207544 288.4390753007688 107.65534311307518 290.56806997582066 107.5848315373924 292.86436345011464 A 312 312 0 0 1 104.503 293.978C 102.9809432837272 292.2574233627969 101.62188810781473 290.6186450629121 100.4124173363631 289.0767148251108 C 99.95998686010468 288.4999168240804 99.52851875955517 287.9367022490738 99.11727764617493 287.3878318188803 A 1.5 1.5 0 0 0 97.379 286.926A 303 303 0 0 1 96.9254 287.079A 1.5 1.5 0 0 0 95.8253 288.502C 95.8319957766558 289.18799963692464 95.83134629815919 289.89748885986563 95.82229531308398 290.6305013764772 C 95.79809405419375 292.5900377257981 95.71389153701975 294.7173682651007 95.54977607711757 297.00887469498736 A 312 312 0 0 1 92.4253 297.996C 90.97447541026031 296.21465361135546 89.68339469067668 294.52180516484077 88.53782359579931 292.93182551974365 C 88.10929640738493 292.33705353096997 87.70116010103528 291.7567086897497 87.31264887155773 291.1915210863428 A 1.5 1.5 0 0 0 85.5947 290.659A 303 303 0 0 1 85.1352 290.794A 1.5 1.5 0 0 0 83.9779 292.171C 83.95667471579205 292.8561888012777 83.92708671556217 293.5650610955127 83.88814471860465 294.29709442174385 C 83.78403688299285 296.25401290849953 83.61313363442503 298.3761385803146 83.35568744429004 300.65904397948816 A 312 312 0 0 1 80.1935 301.518C 78.8165895006681 299.6788638021549 77.59563211385542 297.9347627881837 76.51586738558422 296.29938009999626 C 76.11195672622803 295.68762406275715 75.72783151668153 295.09111488203774 75.36269680970629 294.5105508044054 A 1.5 1.5 0 0 0 73.6679 293.908A 303 303 0 0 1 73.2033 294.024A 1.5 1.5 0 0 0 71.9908 295.353C 71.94161605547805 296.0369477411039 71.88313877982128 296.74402325865736 71.81437058609221 297.47385899728033 C 71.63052945097691 299.42490252377615 71.37320992260622 301.53829125935385 71.02286149601476 303.8087959570754 A 312 312 0 0 1 67.8283 304.538C 66.52752115619553 302.64428809921276 65.37871926522884 300.851837401799 64.36655806539297 299.17377360361115 C 63.98793620452585 298.54605172545683 63.6284614302848 297.9343710359006 63.28731097649679 297.33939677565456 A 1.5 1.5 0 0 0 61.6185 296.668A 303 303 0 0 1 61.1495 296.765A 1.5 1.5 0 0 0 59.8839 298.043C 59.806817675097776 298.7249823970545 59.71954845366837 299.429084280508 59.62106852103955 300.1555076919627 C 59.357800071847 302.09742893879576 59.01449254663379 304.1985632111543 58.571825003966296 306.45288817642876 A 312 312 0 0 1 55.3502 307.051C 54.12772431830402 305.1059908464418 53.05298999055653 303.2681738228758 52.110116961583785 301.550221886273 C 51.757414077927265 300.90757894832024 51.423188049277115 300.2817448320687 51.10658965993883 299.6733506651477 A 1.5 1.5 0 0 0 49.4665 298.935A 303 303 0 0 1 48.994 299.013A 1.5 1.5 0 0 0 47.6773 300.238C 47.57247674898231 300.9158188007245 47.456560832786806 301.6157751419803 47.3285330713872 302.3375771661885 C 46.986275492469346 304.26714399709 46.55755137190859 306.35252667559223 46.023301489603355 308.5869198069922 A 312 312 0 0 1 42.7799 309.053C 41.63783722510472 307.0598747825626 40.63895924980035 305.1797502979075 39.766943710796085 303.4247695843448 C 39.440746843492064 302.7682752023421 39.13232584667301 302.1293292985186 38.84080646855866 301.50852783697167 A 1.5 1.5 0 0 0 37.2322 300.704A 303 303 0 0 1 36.7569 300.762A 1.5 1.5 0 0 0 35.3913 301.933C 35.25895613020614 302.6058105211318 35.114586449847394 303.300456311938 34.957223949250896 304.0164355806645 C 34.53654689457074 305.93043642207164 34.02311974765067 307.9965965930539 33.39817673191212 310.2073389637227 A 312 312 0 0 1 30.1385 310.541C 29.078648061047577 308.5026878605907 28.15728897199779 306.58338519650334 27.357582306768183 304.79429669818103 C 27.058434378310196 304.12504354223825 26.77633174963365 303.4740493132427 26.510376587978293 302.8418738198361 A 1.5 1.5 0 0 0 24.9359 301.972A 303 303 0 0 1 24.4587 302.011A 1.5 1.5 0 0 0 23.0465 303.125C 22.886750458628203 303.79214473384167 22.714167303191463 304.48032380483346 22.52773197775034 305.1892886412448 C 22.029335622749116 307.0845378276483 21.4320599982861 309.12803657141353 20.71746400508883 311.3114486188515 A 312 312 0 0 1 17.4469 311.512C 16.471060357040344 309.43202866054776 15.628753665520696 307.476742306898 14.902686906887649 305.6565237850579 C 14.631085819479953 304.97562576100506 14.375771090930865 304.3136667224856 14.135822801854193 303.6711693909392 A 1.5 1.5 0 0 0 12.5982 302.738A 303 303 0 0 1 12.1197 302.758A 1.5 1.5 0 0 0 10.6632 303.813C 10.476452049586193 304.4728469026354 10.275942666701592 305.1534138476649 10.060744819615888 305.8541842497581 C 9.485458695840187 307.7275273259278 8.8053287001665 309.74496344048816 8.0022691040183 311.89741109082144 A 312 312 0 0 1 4.72624 311.964C 3.836058198584021 309.84635038638817 3.0742058409560054 307.85833472434615 2.4229874553843387 306.0100157530819 C 2.179385262232837 305.31860614848284 1.9512833799800786 304.6467840659309 1.7377413337289598 303.9950342696456 A 1.5 1.5 0 0 0 0.239435 303A 303 303 0 0 1 -0.239435 303A 1.5 1.5 0 0 0 -1.73774 303.995C -1.9512833799800404 304.6467840659309 -2.179385262232799 305.31860614848284 -2.4229874553843005 306.0100157530819 C -3.074205840955967 307.85833472434615 -3.836058198583982 309.84635038638817 -4.726244784238604 311.96425110292597 A 312 312 0 0 1 -8.00227 311.897C -8.805328700166461 309.74496344048816 -9.485458695840148 307.7275273259278 -10.06074481961585 305.8541842497581 C -10.275942666701553 305.1534138476649 -10.476452049586156 304.4728469026354 -10.663232433350021 303.81292941482644 A 1.5 1.5 0 0 0 -12.1197 302.758A 303 303 0 0 1 -12.5982 302.738A 1.5 1.5 0 0 0 -14.1358 303.671C -14.37577109093076 304.31366672248566 -14.63108581947985 304.97562576100506 -14.902686906887542 305.6565237850579 C -15.62875366552059 307.4767423068981 -16.471060357040237 309.4320286605478 -17.446892304481228 311.5118574065614 A 312 312 0 0 1 -20.7175 311.311C -21.432059998285993 309.1280365714136 -22.02933562274901 307.0845378276484 -22.527731977750232 305.1892886412448 C -22.71416730319136 304.48032380483346 -22.8867504586281 303.7921447338417 -23.046458302389137 303.12515792204084 A 1.5 1.5 0 0 0 -24.4587 302.011A 303 303 0 0 1 -24.9359 301.972A 1.5 1.5 0 0 0 -26.5104 302.842C -26.776331749633545 303.4740493132427 -27.058434378310096 304.12504354223825 -27.35758230676808 304.79429669818103 C -28.157288971997687 306.5833851965033 -29.078648061047474 308.5026878605907 -30.138501194302364 310.5409829663888 A 312 312 0 0 1 -33.3982 310.207C -34.02311974765057 307.9965965930539 -34.536546894570634 305.9304364220717 -34.957223949250796 304.0164355806645 C -35.114586449847295 303.300456311938 -35.25895613020603 302.6058105211318 -35.391325616019735 301.93286451906295 A 1.5 1.5 0 0 0 -36.7569 300.762A 303 303 0 0 1 -37.2322 300.704A 1.5 1.5 0 0 0 -38.8408 301.509C -39.13232584667291 302.12932929851866 -39.44074684349196 302.7682752023421 -39.76694371079598 303.42476958434486 C -40.63895924980025 305.1797502979075 -41.63783722510461 307.0598747825626 -42.77994752322912 309.05324370709934 A 312 312 0 0 1 -46.0233 308.587C -46.55755137190848 306.35252667559223 -46.98627549246925 304.26714399709 -47.32853307138709 302.33757716618857 C -47.4565608327867 301.6157751419803 -47.57247674898221 300.91581880072454 -47.677287560902876 300.2380336605956 A 1.5 1.5 0 0 0 -48.994 299.013A 303 303 0 0 1 -49.4665 298.935A 1.5 1.5 0 0 0 -51.1066 299.673C -51.42318804927708 300.2817448320687 -51.75741407792723 300.90757894832024 -52.110116961583756 301.550221886273 C -53.0529899905565 303.2681738228758 -54.12772431830398 305.1059908464418 -55.350190851420784 307.05111582386616 A 312 312 0 0 1 -58.5718 306.453C -59.014492546633754 304.1985632111543 -59.35780007184697 302.09742893879576 -59.62106852103952 300.1555076919627 C -59.71954845366833 299.429084280508 -59.80681767509774 298.7249823970545 -59.88389536587262 298.0434862253412 A 1.5 1.5 0 0 0 -61.1495 296.765A 303 303 0 0 1 -61.6185 296.668A 1.5 1.5 0 0 0 -63.2873 297.339C -63.62846143028476 297.9343710359006 -63.98793620452581 298.54605172545683 -64.36655806539294 299.17377360361115 C -65.3787192652288 300.851837401799 -66.5275211561955 302.64428809921276 -67.82830924940443 304.5379316609626 A 312 312 0 0 1 -71.0229 303.809C -71.3732099226062 301.53829125935385 -71.63052945097687 299.42490252377615 -71.81437058609218 297.47385899728033 C -71.88313877982124 296.74402325865736 -71.94161605547801 296.0369477411039 -71.99083233689755 295.3528748209278 A 1.5 1.5 0 0 0 -73.2033 294.024A 303 303 0 0 1 -73.6679 293.908A 1.5 1.5 0 0 0 -75.3627 294.511C -75.72783151668149 295.09111488203774 -76.111956726228 295.68762406275715 -76.51586738558419 296.2993800999963 C -77.59563211385537 297.9347627881838 -78.81658950066807 299.6788638021549 -80.19353412056168 301.51787416540384 A 312 312 0 0 1 -83.3557 300.659C -83.613133634425 298.3761385803146 -83.78403688299281 296.2540129084996 -83.88814471860462 294.2970944217439 C -83.92708671556214 293.5650610955127 -83.956674715792 292.8561888012777 -83.97794767221289 292.17067770450376 A 1.5 1.5 0 0 0 -85.1352 290.794A 303 303 0 0 1 -85.5947 290.659A 1.5 1.5 0 0 0 -87.3126 291.192C -87.70116010103519 291.75670868974976 -88.10929640738483 292.33705353096997 -88.53782359579921 292.93182551974365 C -89.68339469067658 294.5218051648408 -90.9744754102602 296.21465361135546 -92.42528476840818 297.99596992484413 A 312 312 0 0 1 -95.5498 297.009C -95.71389153701963 294.7173682651007 -95.79809405419365 292.59003772579814 -95.82229531308388 290.6305013764772 C -95.83134629815909 289.89748885986563 -95.8319957766557 289.1879996369247 -95.82529000134136 288.50219132912105 A 1.5 1.5 0 0 0 -96.9254 287.079A 303 303 0 0 1 -97.379 286.926A 1.5 1.5 0 0 0 -99.1173 287.388C -99.52851875955507 287.93670224907385 -99.95998686010458 288.49991682408046 -100.412417336363 289.0767148251108 C -101.62188810781463 290.61864506291215 -102.9809432837271 292.2574233627969 -104.50320265113199 293.9780808013183 A 312 312 0 0 1 -107.585 292.864C -107.65534311307508 290.56806997582066 -107.65270475207534 288.4390753007689 -107.59695915363699 286.4801825437511 C -107.57610406235844 285.7474108637526 -107.54781393812893 285.03848558689845 -107.5131405921806 284.35352152831155 A 1.5 1.5 0 0 0 -108.554 282.887A 303 303 0 0 1 -109.001 282.715A 1.5 1.5 0 0 0 -110.757 283.106C -111.19022202098617 283.6374535837372 -111.64430377966342 284.18260047745326 -112.11988451788815 284.7404644673914 C -113.39124192117657 286.23177890718796 -114.81600954020162 287.8137594756923 -116.40718526637687 289.47089417475013 A 312 312 0 0 1 -119.441 288.232C -119.41761299493483 285.9351498099863 -119.32813814705281 283.8080345007131 -119.19253847433299 281.8530457196711 C -119.14181201794197 281.12173450243046 -119.08462937710618 280.4145531078231 -119.02204617088631 279.73157335353 A 1.5 1.5 0 0 0 -120.003 278.224A 303 303 0 0 1 -120.442 278.034A 1.5 1.5 0 0 0 -122.212 278.353C -122.66686013113359 278.86611836885425 -123.14279977366421 279.3922902380752 -123.64073921665113 279.930291707365 C -124.97186720284778 281.3685082034482 -126.45997587989265 282.8910579900402 -128.11741960987388 284.4819118124692 A 312 312 0 0 1 -131.098 283.121C -130.9811240451891 280.8263188059946 -130.80496163247892 278.7046232360092 -130.58973357775065 276.75679231683273 C -130.50922018542767 276.02815875769846 -130.42324020284795 275.32389827897816 -130.33285129992703 274.64403958137717 A 1.5 1.5 0 0 0 -131.251 273.097A 303 303 0 0 1 -131.682 272.89A 1.5 1.5 0 0 0 -133.464 273.136C -133.93933135848278 273.63063802101084 -134.43633673030183 274.1369591045879 -134.95580610698931 274.65420260287857 C -136.3444891449291 276.0369273858272 -137.8934620699611 277.49751225664625 -139.61441515223143 279.01943738325895 A 312 312 0 0 1 -142.537 277.538C -142.32662994088795 275.2500801088655 -142.06407316830027 273.13733563105563 -141.76957495741993 271.19990454607995 C -141.6594086357607 270.475161383703 -141.54477441663283 269.77499399293373 -141.42673026041933 269.09938790973223 A 1.5 1.5 0 0 0 -142.281 267.517A 303 303 0 0 1 -142.704 267.291A 1.5 1.5 0 0 0 -144.494 267.465C -144.9888737871467 267.93972648056086 -145.50611767186186 268.4253540570188 -146.04625237673844 268.9209786835538 C -147.49017914055264 270.2459103444265 -149.09743820100485 271.6420993000991 -150.8790362789983 273.0925626367198 A 312 312 0 0 1 -153.739 271.493C -153.4352472071466 269.21571481759594 -153.0867330745179 267.11543788664 -152.71345487069374 265.19163129870253 C -152.57381898066845 264.4719847965524 -152.43072132233692 263.77707585325714 -152.2852183856792 263.1068468641057 A 1.5 1.5 0 0 0 -153.074 261.49A 303 303 0 0 1 -153.487 261.248A 1.5 1.5 0 0 0 -155.283 261.349C -155.79709654422288 261.80285570813203 -156.3337180404344 262.26698149829605 -156.89361907258922 262.7401623347973 C -158.39038628867948 264.00509565560094 -160.0532563604648 265.334564877399 -161.89253414000498 266.71115227094884 A 312 312 0 0 1 -164.685 264.996C -164.2884866468255 262.73326653768675 -163.85459522153494 260.64895285726175 -163.40315830949874 258.7419727525692 C -163.23428526126577 258.02862069122745 -163.06296233566076 257.34012680276237 -162.89024279383727 256.676390437669 A 1.5 1.5 0 0 0 -163.613 255.029A 303 303 0 0 1 -164.016 254.77A 1.5 1.5 0 0 0 -165.814 254.797C -166.34601040958674 255.23023991948244 -166.9011163637729 255.67209143177897 -167.47985182319414 256.12204091544197 C -169.0269682702439 257.3248705394993 -170.74268167023516 258.58540725710736 -172.63657785497483 259.8858275137242 A 312 312 0 0 1 -175.356 258.058C -174.8682841139745 255.81352466455255 -174.34973756547907 253.74864336908027 -173.82089331741898 251.86166372781872 C -173.62306418350116 251.15579341139127 -173.42380114072458 250.47486050788675 -173.22415246836724 249.81872149052765 A 1.5 1.5 0 0 0 -173.879 248.143A 303 303 0 0 1 -174.271 247.868A 1.5 1.5 0 0 0 -176.069 247.822C -176.6180577571728 248.23281858494633 -177.1907242502558 248.65166040113908 -177.78733088888615 249.07762963545338 C -179.38222154425296 250.21635357156146 -181.14792263681815 251.4058597460144 -183.09328502346486 252.62794844451835 A 312 312 0 0 1 -185.736 250.691C -185.15703057982083 248.46800642563747 -184.5546919776756 246.4259943062529 -183.94932060265128 244.56215581981076 C -183.72286465011842 243.86494209977755 -183.4959931438399 243.1927035268508 -183.26974763646064 242.54525393586653 A 1.5 1.5 0 0 0 -183.856 240.845A 303 303 0 0 1 -184.236 240.554A 1.5 1.5 0 0 0 -186.031 240.434C -186.59614177791082 240.8222382217654 -187.18541566302892 241.2173732209865 -187.79890048799697 241.6186532222001 C -189.43891081358342 242.69137617674696 -191.2516607635096 243.8078719924088 -193.2452514883569 244.94959508676814 A 312 312 0 0 1 -195.807 242.907C -195.13760144125993 240.70893771112722 -194.45247331862387 238.6931934954786 -193.77158239754547 236.85559833907584 C -193.5168765399819 236.16820165886648 -193.26277417543383 235.5057762912795 -193.01030839635166 234.86809374261793 A 1.5 1.5 0 0 0 -193.526 233.145A 303 303 0 0 1 -193.894 232.839A 1.5 1.5 0 0 0 -195.683 232.646C -196.2636549356771 233.01083300961005 -196.86855542460347 233.38160352864884 -197.49789735096238 233.75752640580177 C -199.18029771143276 234.7624629372957 -201.037079375327 235.80409009706725 -203.07558030335926 236.86354730186716 A 312 312 0 0 1 -205.552 234.718C -204.79338502306715 232.54923272516103 -204.02660770808566 230.5631114205632 -203.27133051669477 228.75481808998697 C -202.98879868686362 228.07838255353698 -202.70788839235468 227.4268729329399 -202.42962254594332 226.800018786271 A 1.5 1.5 0 0 0 -202.875 225.057A 303 303 0 0 1 -203.23 224.736A 1.5 1.5 0 0 0 -205.009 224.471C -205.6045066088993 224.81160426155495 -206.22402690446725 225.15739318947354 -206.86817845468983 225.50733325603625 C -208.5901686606788 226.4428107467969 -210.48789160870584 227.40783556506807 -212.56790985630624 228.38326351834812 A 312 312 0 0 1 -214.955 226.138C -214.1083102263918 224.00247249141358 -213.26115994423307 222.04927980076934 -212.43275356687707 220.2732980218094 C -212.12286601112626 219.60894948931244 -211.81561533411886 218.96943998917178 -211.51201256641778 218.35445758135896 A 1.5 1.5 0 0 0 -211.886 216.595A 303 303 0 0 1 -212.228 216.26A 1.5 1.5 0 0 0 -213.994 215.922C -214.60314987180823 216.23819878467617 -215.2362588436257 216.55843058992963 -215.8941478910274 216.88180540519662 C -217.65286185977888 217.74626684526217 -219.5883675193764 218.63308313346042 -221.70644110144713 219.52285833165652 A 312 312 0 0 1 -224 217.182C -223.06687327751513 215.08288224882133 -222.14076002621923 213.1658690686053 -221.2406032635585 211.4251547876626 C -220.90387575914207 210.77399900168695 -220.57079608806578 210.14755402245305 -220.2423617159195 209.54546693102196 A 1.5 1.5 0 0 0 -220.544 207.772A 303 303 0 0 1 -220.872 207.423A 1.5 1.5 0 0 0 -222.624 207.014C -223.24460737076126 207.30488616628784 -223.89025127142568 207.59902785463973 -224.56078282461363 207.8952991931446 C -226.35329335029266 208.687305771761 -228.32336026330367 209.4944375116938 -230.47596385539825 210.29707901179975 A 312 312 0 0 1 -232.672 207.865C -231.6541635323516 205.80530777507622 -230.65062873602798 203.9276647845385 -229.6802198101583 202.22511524874395 C -229.31721280677593 201.58823599383337 -228.95885851987188 200.9758981913508 -228.60613918987997 200.38770853084574 A 1.5 1.5 0 0 0 -228.835 198.604A 303 303 0 0 1 -229.149 198.242A 1.5 1.5 0 0 0 -230.882 197.761C -231.5144962525698 198.0265350236219 -232.17160047152655 198.29409702526058 -232.85365849690464 198.56277177259915 C -234.6769821226426 199.28100527297877 -236.6783313071147 200.00710907352016 -238.86188211299276 200.721280957971 A 312 312 0 0 1 -240.957 198.202C -239.8558882937447 196.18519067729352 -238.7766022370238 194.3500430278888 -237.73755629783335 192.6884919629216 C -237.3488739848174 192.0669492617428 -236.96584152743043 191.46973781185275 -236.5894243061081 190.8964245659156 A 1.5 1.5 0 0 0 -236.746 189.105A 303 303 0 0 1 -237.044 188.73A 1.5 1.5 0 0 0 -238.756 188.179C -239.39905210333848 188.41858825648265 -240.06652295546417 188.65912524086187 -240.7589722347609 188.8997562144325 C -242.61007421832505 189.54302120779582 -244.6393746260521 190.18688854082836 -246.85023834089006 190.8114021410035 A 312 312 0 0 1 -248.841 188.208C -247.6583966002503 186.23854269098126 -246.5051556482598 184.4489448048628 -245.3992020851718 182.83115769849348 C -244.9854913858735 182.22598604753304 -244.57841827772785 181.64489494975552 -244.17892967439164 181.08741234170438 A 1.5 1.5 0 0 0 -244.262 179.291A 303 303 0 0 1 -244.545 178.904A 1.5 1.5 0 0 0 -246.233 178.284C -246.88515185797382 178.49703734406384 -247.5618784039073 178.71014896111143 -248.26356642363447 178.92233565440625 C -250.13936578845687 179.48956148965513 -252.19323984918023 180.05012070154575 -254.42773670851304 180.58393657619038 A 312 312 0 0 1 -256.31 177.902C -255.04870194681544 175.9819190300863 -253.82342555530744 174.24084951632162 -252.65240511888203 172.66951901553068 C -252.2143546139316 172.08172566327772 -251.78391838804203 171.51772208639758 -251.362023312047 170.97699799101602 A 1.5 1.5 0 0 0 -251.372 169.178A 303 303 0 0 1 -251.639 168.781A 1.5 1.5 0 0 0 -253.3 168.092C -253.96033564223129 168.27839572870948 -254.6451915374223 168.46372727517075 -255.35495040712024 168.6471165243793 C -257.25232507027914 169.13735911009 -259.32735431331986 169.6136772053516 -261.5817652176458 170.05590687062423 A 312 312 0 0 1 -263.353 167.299C -262.0145038995336 165.4323908324745 -260.7192314201404 163.74274752944459 -259.485093158327 162.22048895877728 C -259.02343193955903 161.6510522292578 -258.57034901454415 161.10507490156772 -258.12674966860783 160.58200930074892 A 1.5 1.5 0 0 0 -258.063 158.784A 303 303 0 0 1 -258.314 158.376A 1.5 1.5 0 0 0 -259.946 157.621C -260.61282751094586 157.77967133091917 -261.3046728803448 157.93691434072522 -262.0213212764203 158.09120091254076 C -263.9371132450393 158.50364428831097 -266.0298439890052 158.89492848248145 -268.3004166938599 159.24483589074754 A 312 312 0 0 1 -269.958 156.418C -268.54420856850396 154.6075167467067 -267.1810958544379 152.9721118989399 -265.8858938685772 151.50145890755672 C -265.4013903255295 150.95132657200978 -264.92641481320356 150.42428421888965 -264.4618495246588 149.91974770370527 A 1.5 1.5 0 0 0 -264.325 148.126A 303 303 0 0 1 -264.559 147.708A 1.5 1.5 0 0 0 -266.158 146.887C -266.83155504793103 147.01833824134272 -267.5292383831982 147.1472309990219 -268.25158351512135 147.272158098672 C -270.1826041425366 147.60611579320647 -272.2895532436342 147.91171483236013 -274.5725086048314 148.16871759727067 A 312 312 0 0 1 -276.113 145.277C -274.6269479047158 143.52531370740087 -273.1982637225652 141.9468692848696 -271.84415374854024 140.53026962953712 C -271.3376142895449 140.00035732894312 -270.84153673977335 139.49312716037636 -270.3567787316954 139.00795948206363 A 1.5 1.5 0 0 0 -270.147 137.222A 303 303 0 0 1 -270.363 136.794A 1.5 1.5 0 0 0 -271.928 135.908C -272.6061677949225 136.01230763688068 -273.3085278710001 136.11263561315818 -274.03536746658654 136.20799531181447 C -275.97840275953445 136.46291148548863 -278.09606340891804 136.6823167301841 -280.387601672562 136.8459870960003 A 312 312 0 0 1 -281.809 133.894C -280.25259778884475 132.20422694782255 -278.76072004243497 130.68537011549267 -277.34995586266155 129.32518158653423 C -276.8222235726582 128.81637130762093 -276.30586965756504 128.32979755816496 -275.801725761818 127.86480623044365 A 1.5 1.5 0 0 0 -275.519 126.089A 303 303 0 0 1 -275.718 125.653A 1.5 1.5 0 0 0 -277.245 124.703C -277.9270544788946 124.77989796929822 -278.6329222867513 124.85149417815877 -279.3630465932254 124.9171277590138 C -281.31486256121735 125.09257812901406 -283.43971012172625 125.22542440087449 -285.7360172485271 125.2954899544249 A 312 312 0 0 1 -287.036 122.288C -285.4117948818492 120.6630992996144 -283.85920665445707 119.2063580447887 -282.39413634668534 117.90484454177482 C -281.84608958398906 117.4179831490374 -281.31031872370744 116.95287567267866 -280.7876280380522 116.50883462772413 A 1.5 1.5 0 0 0 -280.433 114.746A 303 303 0 0 1 -280.614 114.302A 1.5 1.5 0 0 0 -282.101 113.291C -282.78535900907565 113.3398044759699 -283.49355970140687 113.38254975258965 -284.2257534989158 113.4183479750254 C -286.1831015368963 113.51404052152594 -288.3115994094653 113.56010671104227 -290.6088534228312 113.53645083512777 A 312 312 0 0 1 -291.785 110.478C -290.09595220932465 108.92113983076268 -288.4852376308311 107.5289387554952 -286.9682996600017 106.28826651920639 C -286.40085059436285 105.8241643453851 -285.84655452661497 105.38129726761692 -285.3061870181139 104.95894556792646 A 1.5 1.5 0 0 0 -284.88 103.212A 303 303 0 0 1 -285.042 102.761A 1.5 1.5 0 0 0 -286.487 101.69C -287.1729952170374 101.7110680635021 -287.88235006368234 101.7248912625866 -288.61539468790977 101.73079454399472 C -290.5750169832385 101.7465699961957 -292.70362249321863 101.70577943074174 -294.9979998405583 101.58844149823317 A 312 312 0 0 1 -296.049 98.4847C -294.2972734536753 96.99789187399908 -292.631113399536 95.67254815958445 -291.06483255919613 94.49478216651708 C -290.47892565358325 94.05421166387842 -289.90702694947095 93.63432209324554 -289.34988200651355 93.23436270154177 A 1.5 1.5 0 0 0 -288.852 91.5059A 303 303 0 0 1 -288.997 91.0493A 1.5 1.5 0 0 0 -290.397 89.9203C -291.0826603153235 89.91304361602315 -291.7919886651457 89.89792173022174 -292.52466403565813 89.87392024517293 C -294.4832989904182 89.80975234639102 -296.6084692840082 89.68217291783738 -298.89615120065724 89.47134822614343 A 312 312 0 0 1 -299.819 86.3274C -298.0087659303146 84.91320049885236 -296.2899335595078 83.65692004910615 -294.6769167695412 82.54402057452297 C -294.0735272081762 82.12771502918902 -293.48497773665207 81.73150183044322 -292.91198267201173 81.35460043966195 A 1.5 1.5 0 0 0 -292.344 79.6478A 303 303 0 0 1 -292.47 79.1857A 1.5 1.5 0 0 0 -293.823 78.0006C -294.50784705221986 77.96536778088849 -295.215968298184 77.92132597908771 -295.9470549491343 77.86745967568513 C -297.9014426087394 77.72345522705518 -300.019640549717 77.50929927876999 -302.29681941489457 77.20533872478387 A 312 312 0 0 1 -303.091 74.0263C -301.2242522262994 72.6871794814881 -299.45560836567626 71.50205325123764 -297.79854033334254 70.45587260648296 C -297.17867239860215 70.0645249179491 -296.5744517421782 69.69264754885772 -295.9865602495916 69.33943147416785 A 1.5 1.5 0 0 0 -295.35 67.6573A 303 303 0 0 1 -295.456 67.1904A 1.5 1.5 0 0 0 -296.76 65.9511C -297.4428545424314 65.88792628541964 -298.1485900866075 65.81503787085214 -298.8768711964156 65.73139640424179 C -300.8237586754832 65.50779508695688 -302.9314587324188 65.20741906038117 -305.1943444066367 64.81082855644738 A 312 312 0 0 1 -305.858 61.6021C -303.9383804820238 60.340177827314 -302.1228688647442 59.22817834221044 -300.4245076162485 58.25045779172074 C -299.7891930171359 57.88471931959275 -299.1703068414647 57.537796733336414 -298.5684974083028 57.20885386803564 A 1.5 1.5 0 0 0 -297.864 55.554A 303 303 0 0 1 -297.951 55.0832A 1.5 1.5 0 0 0 -299.203 53.7918C -299.88279775564433 53.700820839073174 -300.5849729708675 53.59920712731171 -301.30923638749954 53.485929710460255 C -303.2453832839575 53.18310368684597 -305.3390773981135 52.797007528232115 -307.5839035314892 52.308447160105274 A 312 312 0 0 1 -308.116 49.0753C -306.146633298861 47.89274590206814 -304.28727566484065 46.85572397551212 -302.55044795487123 45.948090838653286 C -301.900744109838 45.6085703185236 -301.2682224898816 45.28717993350962 -300.65349676855374 44.98305777053414 A 1.5 1.5 0 0 0 -299.882 43.3584A 303 303 0 0 1 -299.95 42.8844A 1.5 1.5 0 0 0 -301.148 41.543C -301.82361564717604 41.42433567612929 -302.5210618320977 41.29416579316891 -303.24010209057366 41.15144096515745 C -305.16228587898956 40.76989425924444 -307.2384893031378 40.298720587544956 -309.4615196041124 39.71900351574219 A 312 312 0 0 1 -309.862 36.4668C -307.84533525792807 35.36560122776343 -305.94522632445035 34.405282880408876 -304.17282293132445 33.569247822963646 C -303.50981120830187 33.256510353231015 -302.8647069138737 32.96118709203749 -302.23808805467615 32.68239181271403 A 1.5 1.5 0 0 0 -301.401 31.0905A 303 303 0 0 1 -301.449 30.6142A 1.5 1.5 0 0 0 -302.592 29.225C -303.26207791718394 29.07890379458562 -303.9536342414596 28.920394395350154 -304.6662545702307 28.748459707569516 C -306.5712759653874 28.288827366195257 -308.62653306382725 27.733360403486948 -310.82406751785373 27.063451509862475 A 312 312 0 0 1 -311.091 23.7976C -309.0316590374577 22.779594000416786 -307.0939613483222 21.897577587379864 -305.28893226257054 21.134532107193756 C -304.61371617913954 20.849098208512753 -303.95710292267285 20.580333607562736 -303.31963387085636 20.327329239119642 A 1.5 1.5 0 0 0 -302.418 18.771A 303 303 0 0 1 -302.447 18.293A 1.5 1.5 0 0 0 -303.532 16.8584C -304.1957903871801 16.685072947448617 -304.8803058235572 16.498487855189932 -305.5853201364141 16.297629475959837 C -307.4700084182044 15.760676511795811 -309.500898418327 15.121840778019534 -311.6692794461796 14.362855059814045 A 312 312 0 0 1 -311.803 11.0889C -309.70363011859604 10.155672386955581 -307.73156878037656 9.353425937510313 -305.8969182947757 8.664640048480777 C -305.2106216814706 8.406984797406523 -304.54359233093015 8.165226188854145 -303.89633409082023 7.938433832093903 A 1.5 1.5 0 0 0 -302.932 6.42014A 303 303 0 0 1 -302.942 5.94137A 1.5 1.5 0 0 0 -303.967 4.46367C -304.6231989849056 4.263471443026512 -305.2995342249945 4.049121210216747 -305.9957690951908 3.8196734484868786 C -307.8569873859678 3.2062935667504973 -309.8601300717949 2.485152340938954 -311.99574861724835 1.6383530549767347 A 312 312 0 0 1 -311.996 -1.63835C -309.8601300717949 -2.4851523409388787 -307.8569873859678 -3.2062935667504218 -305.9957690951908 -3.819673448486804 C -305.2995342249945 -4.049121210216672 -304.6231989849056 -4.263471443026438 -303.96722885396554 -4.463674314607946 A 1.5 1.5 0 0 0 -302.942 -5.94137A 303 303 0 0 1 -302.932 -6.42014A 1.5 1.5 0 0 0 -303.896 -7.93843C -304.54359233093015 -8.165226188854069 -305.2106216814706 -8.406984797406448 -305.8969182947757 -8.664640048480699 C -307.73156878037656 -9.353425937510234 -309.70363011859604 -10.155672386955505 -311.8029316553439 -11.088875826832886 A 312 312 0 0 1 -311.669 -14.3629C -309.500898418327 -15.121840778019457 -307.4700084182044 -15.760676511795737 -305.5853201364141 -16.297629475959763 C -304.8803058235572 -16.498487855189857 -304.1957903871801 -16.68507294744854 -303.53220016295563 -16.858353115929425 A 1.5 1.5 0 0 0 -302.447 -18.293A 303 303 0 0 1 -302.418 -18.771A 1.5 1.5 0 0 0 -303.32 -20.3273C -303.95710292267285 -20.58033360756266 -304.61371617913954 -20.849098208512675 -305.28893226257054 -21.134532107193678 C -307.0939613483222 -21.897577587379786 -309.0316590374577 -22.77959400041671 -311.09114948527036 -23.79764836918065 A 312 312 0 0 1 -310.824 -27.0635C -308.62653306382725 -27.733360403486873 -306.5712759653874 -28.28882736619518 -304.6662545702307 -28.748459707569438 C -303.9536342414596 -28.920394395350076 -303.26207791718394 -29.078903794585546 -302.59197208011415 -29.22497285222624 A 1.5 1.5 0 0 0 -301.449 -30.6142A 303 303 0 0 1 -301.401 -31.0905A 1.5 1.5 0 0 0 -302.238 -32.6824C -302.86470691387376 -32.961187092037285 -303.5098112083019 -33.25651035323081 -304.1728229313244 -33.56924782296344 C -305.94522632445035 -34.40528288040867 -307.8453352579281 -35.36560122776322 -309.86158679820454 -36.46681207438783 A 312 312 0 0 1 -309.462 -39.719C -307.23848930313784 -40.29872058754475 -305.16228587898956 -40.76989425924423 -303.2401020905737 -41.15144096515724 C -302.52106183209776 -41.2941657931687 -301.8236156471761 -41.42433567612908 -301.14810952229465 -41.542950505398586 A 1.5 1.5 0 0 0 -299.95 -42.8844A 303 303 0 0 1 -299.882 -43.3584A 1.5 1.5 0 0 0 -300.653 -44.9831C -301.2682224898817 -45.28717993350941 -301.90074410983806 -45.60857031852339 -302.5504479548713 -45.94809083865308 C -304.2872756648407 -46.855723975511914 -306.14663329886105 -47.89274590206793 -308.11629007989467 -49.07528036977661 A 312 312 0 0 1 -307.584 -52.3084C -305.33907739811355 -52.797007528231916 -303.24538328395755 -53.18310368684576 -301.3092363874996 -53.48592971046005 C -300.58497297086757 -53.5992071273115 -299.8827977556444 -53.700820839072975 -299.2030156562309 -53.791784017293956 A 1.5 1.5 0 0 0 -297.951 -55.0832A 303 303 0 0 1 -297.864 -55.554A 1.5 1.5 0 0 0 -298.568 -57.2089C -299.1703068414648 -57.537796733336215 -299.789193017136 -57.88471931959254 -300.42450761624855 -58.250457791720535 C -302.1228688647443 -59.228178342210235 -303.9383804820239 -60.340177827313795 -305.8581642044864 -61.602067704188364 A 312 312 0 0 1 -305.194 -64.8108C -302.9314587324189 -65.20741906038096 -300.8237586754833 -65.50779508695668 -298.87687119641566 -65.73139640424158 C -298.14859008660756 -65.81503787085194 -297.4428545424315 -65.88792628541944 -296.7599278987034 -65.95108641335882 A 1.5 1.5 0 0 0 -295.456 -67.1904A 303 303 0 0 1 -295.35 -67.6573A 1.5 1.5 0 0 0 -295.987 -69.3394C -296.57445174217827 -69.69264754885752 -297.1786723986022 -70.06452491794889 -297.7985403333426 -70.45587260648276 C -299.45560836567637 -71.50205325123744 -301.22425222629954 -72.68717948148789 -303.09096759964683 -74.02632447636316 A 312 312 0 0 1 -302.297 -77.2053C -300.0196405497171 -77.50929927876977 -297.9014426087395 -77.72345522705498 -295.9470549491344 -77.86745967568493 C -295.21596829818407 -77.9213259790875 -294.5078470522199 -77.96536778088829 -293.8229125281782 -78.00061973474637 A 1.5 1.5 0 0 0 -292.47 -79.1857A 303 303 0 0 1 -292.344 -79.6478A 1.5 1.5 0 0 0 -292.912 -81.3546C -293.4849777366522 -81.73150183044304 -294.07352720817624 -82.12771502918883 -294.67691676954126 -82.54402057452278 C -296.28993355950786 -83.65692004910596 -298.00876593031467 -84.91320049885218 -299.8193059910324 -86.32737173704326 A 312 312 0 0 1 -298.896 -89.4713C -296.60846928400827 -89.68217291783719 -294.48329899041823 -89.80975234639084 -292.5246640356582 -89.87392024517273 C -291.79198866514577 -89.89792173022155 -291.0826603153236 -89.91304361602296 -290.396857916888 -89.9203287224015 A 1.5 1.5 0 0 0 -288.997 -91.0493A 303 303 0 0 1 -288.852 -91.5059A 1.5 1.5 0 0 0 -289.35 -93.2344C -289.90702694947095 -93.63432209324547 -290.47892565358325 -94.05421166387835 -291.06483255919613 -94.49478216651701 C -292.631113399536 -95.67254815958438 -294.2972734536753 -96.99789187399901 -296.0486247365131 -98.48473560704335 A 312 312 0 0 1 -294.998 -101.588C -292.70362249321863 -101.70577943074167 -290.5750169832385 -101.74656999619563 -288.61539468790977 -101.73079454399465 C -287.88235006368234 -101.72489126258652 -287.1729952170374 -101.71106806350203 -286.48746639461865 -101.69037419706042 A 1.5 1.5 0 0 0 -285.042 -102.761A 303 303 0 0 1 -284.88 -103.212A 1.5 1.5 0 0 0 -285.306 -104.959C -285.846554526615 -105.38129726761686 -286.40085059436285 -105.82416434538506 -286.9682996600017 -106.28826651920633 C -288.4852376308311 -107.52893875549515 -290.0959522093247 -108.92113983076264 -291.78519976291165 -110.47818135400192 A 312 312 0 0 1 -290.609 -113.536C -288.3115994094654 -113.56010671104222 -286.1831015368963 -113.51404052152589 -284.2257534989158 -113.41834797502534 C -283.49355970140687 -113.38254975258961 -282.7853590090757 -113.33980447596984 -282.10124475774467 -113.29116607960654 A 1.5 1.5 0 0 0 -280.614 -114.302A 303 303 0 0 1 -280.433 -114.746A 1.5 1.5 0 0 0 -280.788 -116.509C -281.31031872370744 -116.95287567267859 -281.84608958398906 -117.41798314903734 -282.39413634668534 -117.90484454177476 C -283.85920665445707 -119.20635804478864 -285.4117948818492 -120.66309929961433 -287.0361271203427 -122.28774707109629 A 312 312 0 0 1 -285.736 -125.295C -283.43971012172625 -125.22542440087442 -281.31486256121735 -125.092578129014 -279.3630465932254 -124.91712775901374 C -278.6329222867513 -124.85149417815872 -277.9270544788946 -124.77989796929815 -277.24549343930784 -124.7033959968238 A 1.5 1.5 0 0 0 -275.718 -125.653A 303 303 0 0 1 -275.519 -126.089A 1.5 1.5 0 0 0 -275.802 -127.865C -276.30586965756504 -128.3297975581649 -276.8222235726582 -128.81637130762087 -277.3499558626616 -129.32518158653414 C -278.76072004243497 -130.68537011549262 -280.25259778884475 -132.20422694782246 -281.80931117153796 -133.89377690166657 A 312 312 0 0 1 -280.388 -136.846C -278.09606340891804 -136.68231673018403 -275.97840275953445 -136.46291148548858 -274.0353674665866 -136.2079953118144 C -273.3085278710001 -136.11263561315812 -272.6061677949225 -136.01230763688062 -271.92829435816776 -135.90806941827847 A 1.5 1.5 0 0 0 -270.363 -136.794A 303 303 0 0 1 -270.147 -137.222A 1.5 1.5 0 0 0 -270.357 -139.008C -270.84153673977335 -139.4931271603763 -271.33761428954494 -140.00035732894307 -271.8441537485403 -140.53026962953706 C -273.1982637225652 -141.9468692848695 -274.62694790471585 -143.5253137074008 -276.113451435814 -145.27695375444918 A 312 312 0 0 1 -274.573 -148.169C -272.28955324363426 -147.91171483236008 -270.1826041425366 -147.60611579320644 -268.2515835151214 -147.27215809867195 C -267.5292383831983 -147.14723099902184 -266.83155504793103 -147.01833824134266 -266.15849746744505 -146.88653727084042 A 1.5 1.5 0 0 0 -264.559 -147.708A 303 303 0 0 1 -264.325 -148.126A 1.5 1.5 0 0 0 -264.462 -149.92C -264.9264148132036 -150.4242842188896 -265.4013903255295 -150.95132657200972 -265.8858938685773 -151.50145890755664 C -267.18109585443796 -152.97211189893983 -268.544208568504 -154.60751674670664 -269.95802810958133 -156.41833145496884 A 312 312 0 0 1 -268.3 -159.245C -266.02984398900526 -158.8949284824814 -263.93711324503937 -158.5036442883109 -262.02132127642034 -158.09120091254067 C -261.3046728803449 -157.93691434072517 -260.6128275109459 -157.77967133091911 -259.94570602464785 -157.6205269782249 A 1.5 1.5 0 0 0 -258.314 -158.376A 303 303 0 0 1 -258.063 -158.784A 1.5 1.5 0 0 0 -258.127 -160.582C -258.57034901454426 -161.10507490156755 -259.02343193955915 -161.65105222925763 -259.485093158327 -162.2204889587771 C -260.7192314201405 -163.74274752944442 -262.01450389953374 -165.43239083247434 -263.35328628749284 -167.29936627957625 A 312 312 0 0 1 -261.582 -170.056C -259.32735431332 -169.61367720535142 -257.25232507027926 -169.13735911008982 -255.3549504071203 -168.64711652437913 C -254.64519153742242 -168.46372727517058 -253.9603356422314 -168.2783957287093 -253.30026060799753 -168.09217287389228 A 1.5 1.5 0 0 0 -251.639 -168.781A 303 303 0 0 1 -251.372 -169.178A 1.5 1.5 0 0 0 -251.362 -170.977C -251.7839183880421 -171.5177220863974 -252.2143546139317 -172.08172566327755 -252.65240511888214 -172.6695190155305 C -253.82342555530752 -174.24084951632145 -255.04870194681556 -175.98191903008612 -256.3102189104949 -177.90194781964632 A 312 312 0 0 1 -254.428 -180.584C -252.19323984918034 -180.05012070154558 -250.13936578845696 -179.48956148965496 -248.2635664236346 -178.92233565440608 C -247.5618784039074 -178.71014896111126 -246.88515185797397 -178.49703734406367 -246.23322190555652 -178.28404593668753 A 1.5 1.5 0 0 0 -244.545 -178.904A 303 303 0 0 1 -244.262 -179.291A 1.5 1.5 0 0 0 -244.179 -181.087C -244.57841827772796 -181.64489494975533 -244.98549138587364 -182.22598604753287 -245.39920208517194 -182.8311576984933 C -246.50515564825992 -184.44894480486263 -247.65839660025046 -186.2385426909811 -248.84054846916212 -188.20842912456538 A 312 312 0 0 1 -246.85 -190.811C -244.63937462605224 -190.1868885408282 -242.61007421832517 -189.54302120779565 -240.75897223476105 -188.89975621443233 C -240.0665229554643 -188.6591252408617 -239.3990521033386 -188.4185882564825 -238.756352305805 -188.17918279972488 A 1.5 1.5 0 0 0 -237.044 -188.73A 303 303 0 0 1 -236.746 -189.105A 1.5 1.5 0 0 0 -236.589 -190.896C -236.96584152743057 -191.46973781185258 -237.34887398481754 -192.06694926174262 -237.7375562978335 -192.68849196292143 C -238.77660223702395 -194.35004302788863 -239.8558882937448 -196.18519067729335 -240.95670749276857 -198.20165607333948 A 312 312 0 0 1 -238.862 -200.721C -236.6783313071148 -200.00710907351998 -234.67698212264276 -199.2810052729786 -232.85365849690479 -198.56277177259898 C -232.1716004715267 -198.2940970252604 -231.51449625256996 -198.02653502362173 -230.8820963203057 -197.7611139842387 A 1.5 1.5 0 0 0 -229.149 -198.242A 303 303 0 0 1 -228.835 -198.604A 1.5 1.5 0 0 0 -228.606 -200.388C -228.958858519872 -200.97589819135067 -229.31721280677607 -201.5882359938332 -229.6802198101584 -202.22511524874378 C -230.65062873602812 -203.92766478453834 -231.65416353235173 -205.80530777507605 -232.67181785656976 -207.86499592593557 A 312 312 0 0 1 -230.476 -210.297C -228.3233602633038 -209.49443751169363 -226.3532933502928 -208.68730577176083 -224.56078282461374 -207.89529919314444 C -223.89025127142583 -207.59902785463956 -223.24460737076143 -207.3048861662877 -222.6235598710427 -207.01389131140505 A 1.5 1.5 0 0 0 -220.872 -207.423A 303 303 0 0 1 -220.544 -207.772A 1.5 1.5 0 0 0 -220.242 -209.545C -220.57079608806583 -210.147554022453 -220.90387575914212 -210.7739990016869 -221.2406032635586 -211.42515478766256 C -222.1407600262193 -213.16586906860528 -223.0668732775152 -215.08288224882128 -223.99966894173622 -217.18236500683602 A 312 312 0 0 1 -221.706 -219.523C -219.58836751937648 -218.63308313346036 -217.65286185977897 -217.74626684526214 -215.89414789102747 -216.8818054051966 C -215.23625884362576 -216.55843058992957 -214.60314987180828 -216.23819878467611 -213.99448847690775 -215.92211444651187 A 1.5 1.5 0 0 0 -212.228 -216.26A 303 303 0 0 1 -211.886 -216.595A 1.5 1.5 0 0 0 -211.512 -218.354C -211.81561533411895 -218.96943998917172 -212.12286601112632 -219.60894948931235 -212.43275356687715 -220.27329802180932 C -213.26115994423313 -222.04927980076928 -214.10831022639186 -224.00247249141353 -214.95469468428968 -226.13825547472896 A 312 312 0 0 1 -212.568 -228.383C -210.4878916087059 -227.407835565068 -208.59016866067887 -226.44281074679685 -206.8681784546899 -225.50733325603616 C -206.2240269044673 -225.15739318947345 -205.60450660889938 -224.8116042615549 -205.00924437564052 -224.4709565312957 A 1.5 1.5 0 0 0 -203.23 -224.736A 303 303 0 0 1 -202.875 -225.057A 1.5 1.5 0 0 0 -202.43 -226.8C -202.70788839235476 -227.42687293293983 -202.98879868686367 -228.07838255353693 -203.27133051669486 -228.75481808998688 C -204.02660770808572 -230.5631114205631 -204.79338502306723 -232.54923272516098 -205.5519495512406 -234.71776113378004 A 312 312 0 0 1 -203.076 -236.864C -201.0370793753271 -235.8040900970672 -199.18029771143281 -234.76246293729562 -197.49789735096246 -233.75752640580168 C -196.86855542460353 -233.38160352864878 -196.26365493567718 -233.01083300961 -195.68278261930132 -232.64618886178474 A 1.5 1.5 0 0 0 -193.894 -232.839A 303 303 0 0 1 -193.526 -233.145A 1.5 1.5 0 0 0 -193.01 -234.868C -193.26277417543392 -235.5057762912794 -193.51687653998195 -236.1682016588664 -193.7715823975456 -236.85559833907578 C -194.45247331862396 -238.69319349547854 -195.13760144126005 -240.70893771112713 -195.80708348391394 -242.90660224352393 A 312 312 0 0 1 -193.245 -244.95C -191.2516607635097 -243.8078719924087 -189.4389108135835 -242.6913761767469 -187.7989004879971 -241.61865322220004 C -187.18541566302903 -241.21737322098642 -186.5961417779109 -240.8222382217653 -186.0306261830629 -240.43420457057158 A 1.5 1.5 0 0 0 -184.236 -240.554A 303 303 0 0 1 -183.856 -240.845A 1.5 1.5 0 0 0 -183.27 -242.545C -183.4959931438401 -243.19270352685066 -183.72286465011862 -243.8649420997774 -183.94932060265148 -244.5621558198106 C -184.5546919776758 -246.42599430625276 -185.15703057982105 -248.46800642563733 -185.73631585016608 -250.69114928608334 A 312 312 0 0 1 -183.093 -252.628C -181.14792263681838 -251.40585974601424 -179.38222154425316 -250.2163535715613 -177.78733088888634 -249.07762963545323 C -177.190724250256 -248.65166040113894 -176.618057757173 -248.2328185849462 -176.06884012875017 -247.82204127410168 A 1.5 1.5 0 0 0 -174.271 -247.868A 303 303 0 0 1 -173.879 -248.143A 1.5 1.5 0 0 0 -173.224 -249.819C -173.42380114072466 -250.4748605078867 -173.62306418350124 -251.1557934113912 -173.82089331741903 -251.86166372781867 C -174.34973756547913 -253.7486433690802 -174.8682841139746 -255.8135246645525 -175.35640844884747 -258.05844565115655 A 312 312 0 0 1 -172.637 -259.886C -170.74268167023524 -258.58540725710736 -169.02696827024397 -257.3248705394992 -167.4798518231942 -256.1220409154419 C -166.90111636377299 -255.67209143177888 -166.34601040958682 -255.2302399194824 -165.81400486612986 -254.7974026472817 A 1.5 1.5 0 0 0 -164.016 -254.77A 303 303 0 0 1 -163.613 -255.029A 1.5 1.5 0 0 0 -162.89 -256.676C -163.06296233566093 -257.34012680276226 -163.23428526126597 -258.02862069122733 -163.40315830949893 -258.74197275256915 C -163.85459522153513 -260.64895285726163 -164.28848664682573 -262.7332665376867 -164.68463761144363 -264.99622920101615 A 312 312 0 0 1 -161.893 -266.711C -160.053256360465 -265.3345648773989 -158.39038628867968 -264.0050956556008 -156.89361907258942 -262.7401623347972 C -156.3337180404346 -262.26698149829593 -155.7970965442231 -261.8028557081319 -155.28318855645588 -261.34867888949833 A 1.5 1.5 0 0 0 -153.487 -261.248A 303 303 0 0 1 -153.074 -261.49A 1.5 1.5 0 0 0 -152.285 -263.107C -152.430721322337 -263.7770758532571 -152.57381898066853 -264.47198479655236 -152.71345487069382 -265.1916312987025 C -153.08673307451798 -267.11543788663994 -153.4352472071467 -269.2157148175959 -153.73876544732485 -271.4929526796274 A 312 312 0 0 1 -150.879 -273.093C -149.09743820100493 -271.64209930009906 -147.49017914055273 -270.2459103444264 -146.04625237673852 -268.92097868355376 C -145.50611767186194 -268.42535405701875 -144.9888737871468 -267.9397264805608 -144.49391870419782 -267.46496604798654 A 1.5 1.5 0 0 0 -142.704 -267.291A 303 303 0 0 1 -142.281 -267.517A 1.5 1.5 0 0 0 -141.427 -269.099C -141.54477441663298 -269.7749939929337 -141.65940863576088 -270.47516138370287 -141.76957495742013 -271.1999045460799 C -142.06407316830047 -273.1373356310555 -142.32662994088813 -275.2500801088654 -142.5370102804697 -277.5378029319164 A 312 312 0 0 1 -139.614 -279.019C -137.89346206996126 -277.49751225664613 -136.3444891449293 -276.0369273858271 -134.9558061069895 -274.6542026028785 C -134.436336730302 -274.1369591045878 -133.93933135848297 -273.6306380210108 -133.46415298424114 -273.1360841663822 A 1.5 1.5 0 0 0 -131.682 -272.89A 303 303 0 0 1 -131.251 -273.097A 1.5 1.5 0 0 0 -130.333 -274.644C -130.42324020284795 -275.32389827897816 -130.50922018542767 -276.02815875769846 -130.58973357775065 -276.75679231683273 C -130.80496163247892 -278.7046232360092 -130.9811240451891 -280.8263188059946 -131.0980163268611 -283.12071890119955 A 312 312 0 0 1 -128.117 -284.482C -126.45997587989265 -282.8910579900402 -124.97186720284778 -281.3685082034482 -123.64073921665113 -279.930291707365 C -123.14279977366421 -279.3922902380752 -122.66686013113359 -278.86611836885425 -122.21224935310788 -278.3525942282553 A 1.5 1.5 0 0 0 -120.442 -278.034A 303 303 0 0 1 -120.003 -278.224A 1.5 1.5 0 0 0 -119.022 -279.732C -119.08462937710632 -280.4145531078231 -119.1418120179421 -281.12173450243034 -119.19253847433312 -281.8530457196711 C -119.32813814705295 -283.80803450071306 -119.41761299493496 -285.9351498099863 -119.44082266303057 -288.23240837481904 A 312 312 0 0 1 -116.407 -289.471C -114.81600954020175 -287.8137594756923 -113.39124192117671 -286.2317789071879 -112.11988451788828 -284.7404644673914 C -111.64430377966355 -284.18260047745326 -111.19022202098631 -283.6374535837372 -110.75693549395154 -283.10581386742064 A 1.5 1.5 0 0 0 -109.001 -282.715A 303 303 0 0 1 -108.554 -282.887A 1.5 1.5 0 0 0 -107.513 -284.354C -107.5478139381292 -285.03848558689833 -107.57610406235871 -285.74741086375246 -107.59695915363724 -286.480182543751 C -107.6527047520756 -288.43907530076876 -107.65534311307536 -290.56806997582055 -107.58483153739257 -292.8643634501146 A 312 312 0 0 1 -104.503 -293.978C -102.98094328372738 -292.25742336279677 -101.6218881078149 -290.61864506291204 -100.41241733636329 -289.07671482511074 C -99.95998686010485 -288.49991682408034 -99.52851875955534 -287.93670224907373 -99.1172776461751 -287.3878318188802 A 1.5 1.5 0 0 0 -97.379 -286.926A 303 303 0 0 1 -96.9254 -287.079A 1.5 1.5 0 0 0 -95.8253 -288.502C -95.83199577665583 -289.18799963692464 -95.83134629815922 -289.89748885986563 -95.82229531308401 -290.6305013764772 C -95.7980940541938 -292.5900377257981 -95.71389153701978 -294.7173682651007 -95.5497760771176 -297.0088746949873 A 312 312 0 0 1 -92.4253 -297.996C -90.97447541026034 -296.21465361135546 -89.68339469067672 -294.52180516484077 -88.53782359579934 -292.93182551974365 C -88.10929640738496 -292.33705353096997 -87.70116010103531 -291.7567086897497 -87.31264887155777 -291.1915210863428 A 1.5 1.5 0 0 0 -85.5947 -290.659A 303 303 0 0 1 -85.1352 -290.794A 1.5 1.5 0 0 0 -83.9779 -292.171C -83.95667471579222 -292.85618880127765 -83.92708671556234 -293.56506109551265 -83.88814471860482 -294.29709442174385 C -83.78403688299302 -296.25401290849953 -83.61313363442521 -298.37613858031455 -83.35568744429021 -300.65904397948816 A 312 312 0 0 1 -80.1935 -301.518C -78.81658950066829 -299.67886380215486 -77.59563211385559 -297.9347627881837 -76.51586738558439 -296.29938009999626 C -76.1119567262282 -295.6876240627571 -75.7278315166817 -295.0911148820377 -75.36269680970646 -294.51055080440534 A 1.5 1.5 0 0 0 -73.6679 -293.908A 303 303 0 0 1 -73.2033 -294.024A 1.5 1.5 0 0 0 -71.9908 -295.353C -71.9416160554781 -296.03694774110386 -71.88313877982132 -296.7440232586573 -71.81437058609225 -297.4738589972803 C -71.63052945097695 -299.4249025237761 -71.37320992260626 -301.53829125935385 -71.0228614960148 -303.8087959570754 A 312 312 0 0 1 -67.8283 -304.538C -66.52752115619558 -302.64428809921276 -65.37871926522888 -300.85183740179895 -64.36655806539301 -299.1737736036111 C -63.987936204525894 -298.5460517254568 -63.628461430284844 -297.93437103590054 -63.28731097649683 -297.33939677565456 A 1.5 1.5 0 0 0 -61.6185 -296.668A 303 303 0 0 1 -61.1495 -296.765A 1.5 1.5 0 0 0 -59.8839 -298.043C -59.80681767509795 -298.7249823970545 -59.719548453668544 -299.429084280508 -59.621068521039724 -300.15550769196267 C -59.35780007184718 -302.09742893879576 -59.014492546633974 -304.1985632111543 -58.57182500396648 -306.4528881764287 A 312 312 0 0 1 -55.3502 -307.051C -54.1277243183042 -305.1059908464418 -53.05298999055671 -303.2681738228758 -52.11011696158396 -301.55022188627294 C -51.75741407792744 -300.90757894832024 -51.42318804927729 -300.2817448320687 -51.106589659939004 -299.6733506651477 A 1.5 1.5 0 0 0 -49.4665 -298.935A 303 303 0 0 1 -48.994 -299.013A 1.5 1.5 0 0 0 -47.6773 -300.238C -47.57247674898229 -300.9158188007245 -47.45656083278678 -301.6157751419803 -47.32853307138717 -302.3375771661885 C -46.986275492469325 -304.26714399709 -46.55755137190856 -306.35252667559223 -46.02330148960333 -308.5869198069922 A 312 312 0 0 1 -42.7799 -309.053C -41.63783722510469 -307.0598747825626 -40.63895924980033 -305.1797502979075 -39.766943710796056 -303.4247695843448 C -39.440746843492036 -302.7682752023421 -39.13232584667299 -302.1293292985186 -38.84080646855863 -301.50852783697167 A 1.5 1.5 0 0 0 -37.2322 -300.704A 303 303 0 0 1 -36.7569 -300.762A 1.5 1.5 0 0 0 -35.3913 -301.933C -35.25895613020624 -302.6058105211318 -35.1145864498475 -303.3004563119379 -34.957223949251 -304.01643558066445 C -34.53654689457085 -305.9304364220716 -34.023119747650775 -307.9965965930539 -33.39817673191223 -310.2073389637227 A 312 312 0 0 1 -30.1385 -310.541C -29.078648061047684 -308.5026878605907 -28.157288971997897 -306.5833851965033 -27.357582306768286 -304.794296698181 C -27.058434378310302 -304.1250435422382 -26.776331749633755 -303.4740493132427 -26.5103765879784 -302.84187381983605 A 1.5 1.5 0 0 0 -24.9359 -301.972A 303 303 0 0 1 -24.4587 -302.011A 1.5 1.5 0 0 0 -23.0465 -303.125C -22.88675045862817 -303.7921447338417 -22.714167303191434 -304.48032380483346 -22.527731977750307 -305.1892886412448 C -22.029335622749088 -307.0845378276484 -21.432059998286068 -309.1280365714136 -20.717464005088797 -311.3114486188515 A 312 312 0 0 1 -17.4469 -311.512C -16.47106035704031 -309.4320286605478 -15.628753665520664 -307.4767423068981 -14.902686906887617 -305.6565237850579 C -14.631085819479924 -304.97562576100506 -14.375771090930831 -304.31366672248566 -14.135822801854161 -303.67116939093927 A 1.5 1.5 0 0 0 -12.5982 -302.738A 303 303 0 0 1 -12.1197 -302.758A 1.5 1.5 0 0 0 -10.6632 -303.813C -10.4764520495863 -304.4728469026354 -10.275942666701695 -305.1534138476649 -10.060744819615993 -305.8541842497581 C -9.485458695840292 -307.7275273259278 -8.805328700166607 -309.74496344048816 -8.002269104018406 -311.89741109082144 A 312 312 0 0 1 -4.72624 -311.964C -3.8360581985841278 -309.84635038638817 -3.074205840956111 -307.85833472434615 -2.4229874553844435 -306.0100157530819 C -2.179385262232942 -305.31860614848284 -1.9512833799801834 -304.6467840659309 -1.7377413337290646 -303.9950342696456 A 1.5 1.5 0 0 0 -0.239435 -303A 303 303 0 0 1 0.239435 -303A 1.5 1.5 0 0 0 1.73774 -303.995C 1.9512833799800715 -304.6467840659309 2.179385262232829 -305.31860614848284 2.4229874553843316 -306.0100157530819 C 3.0742058409559982 -307.85833472434615 3.836058198584013 -309.84635038638817 4.726244784238636 -311.96425110292597 A 312 312 0 0 1 8.00227 -311.897C 8.805328700166493 -309.74496344048816 9.48545869584018 -307.7275273259278 10.06074481961588 -305.8541842497581 C 10.275942666701583 -305.1534138476649 10.476452049586186 -304.4728469026354 10.663232433350053 -303.81292941482644 A 1.5 1.5 0 0 0 12.1197 -302.758A 303 303 0 0 1 12.5982 -302.738A 1.5 1.5 0 0 0 14.1358 -303.671C 14.375771090930721 -304.31366672248566 14.63108581947981 -304.97562576100506 14.902686906887507 -305.6565237850579 C 15.628753665520554 -307.4767423068981 16.4710603570402 -309.4320286605478 17.446892304481192 -311.5118574065614 A 312 312 0 0 1 20.7175 -311.311C 21.432059998285958 -309.1280365714136 22.029335622748974 -307.0845378276484 22.527731977750197 -305.1892886412448 C 22.71416730319132 -304.48032380483346 22.886750458628065 -303.7921447338417 23.0464583023891 -303.12515792204084 A 1.5 1.5 0 0 0 24.4587 -302.011A 303 303 0 0 1 24.9359 -301.972A 1.5 1.5 0 0 0 26.5104 -302.842C 26.776331749633375 -303.47404931324274 27.058434378309922 -304.1250435422383 27.357582306767906 -304.79429669818103 C 28.15728897199751 -306.58338519650334 29.078648061047296 -308.50268786059075 30.138501194302183 -310.54098296638887 A 312 312 0 0 1 33.3982 -310.207C 34.02311974765039 -307.99659659305394 34.536546894570456 -305.93043642207175 34.95722394925062 -304.0164355806645 C 35.114586449847124 -303.30045631193804 35.25895613020586 -302.60581052113184 35.391325616019564 -301.93286451906295 A 1.5 1.5 0 0 0 36.7569 -300.762A 303 303 0 0 1 37.2322 -300.704A 1.5 1.5 0 0 0 38.8408 -301.509C 39.13232584667287 -302.12932929851866 39.440746843491915 -302.7682752023421 39.766943710795935 -303.42476958434486 C 40.63895924980021 -305.1797502979075 41.63783722510457 -307.0598747825626 42.779947523229076 -309.05324370709934 A 312 312 0 0 1 46.0233 -308.587C 46.55755137190844 -306.35252667559223 46.986275492469204 -304.26714399709 47.32853307138705 -302.33757716618857 C 47.45656083278666 -301.6157751419803 47.57247674898217 -300.91581880072454 47.67728756090283 -300.2380336605956 A 1.5 1.5 0 0 0 48.994 -299.013A 303 303 0 0 1 49.4665 -298.935A 1.5 1.5 0 0 0 51.1066 -299.673C 51.4231880492769 -300.28174483206874 51.75741407792705 -300.9075789483203 52.11011696158357 -301.550221886273 C 53.05298999055632 -303.26817382287584 54.127724318303805 -305.10599084644184 55.35019085142061 -307.0511158238662 A 312 312 0 0 1 58.5718 -306.453C 59.014492546633576 -304.19856321115435 59.35780007184679 -302.0974289387958 59.621068521039334 -300.1555076919627 C 59.71954845366815 -299.42908428050805 59.80681767509756 -298.72498239705453 59.88389536587244 -298.04348622534127 A 1.5 1.5 0 0 0 61.1495 -296.765A 303 303 0 0 1 61.6185 -296.668A 1.5 1.5 0 0 0 63.2873 -297.339C 63.628461430284716 -297.9343710359006 63.98793620452577 -298.54605172545683 64.3665580653929 -299.17377360361115 C 65.37871926522875 -300.851837401799 66.52752115619546 -302.64428809921276 67.82830924940438 -304.5379316609626 A 312 312 0 0 1 71.0229 -303.809C 71.37320992260615 -301.53829125935385 71.63052945097682 -299.42490252377615 71.81437058609214 -297.47385899728033 C 71.8831387798212 -296.74402325865736 71.94161605547797 -296.0369477411039 71.99083233689751 -295.3528748209278 A 1.5 1.5 0 0 0 73.2033 -294.024A 303 303 0 0 1 73.6679 -293.908A 1.5 1.5 0 0 0 75.3627 -294.511C 75.72783151668135 -295.0911148820378 76.11195672622785 -295.6876240627572 76.51586738558403 -296.29938009999637 C 77.59563211385522 -297.9347627881838 78.81658950066792 -299.678863802155 80.19353412056152 -301.51787416540384 A 312 312 0 0 1 83.3557 -300.659C 83.61313363442484 -298.37613858031466 83.78403688299265 -296.2540129084996 83.88814471860447 -294.29709442174396 C 83.92708671556198 -293.56506109551276 83.95667471579186 -292.85618880127777 83.97794767221274 -292.1706777045038 A 1.5 1.5 0 0 0 85.1352 -290.794A 303 303 0 0 1 85.5947 -290.659A 1.5 1.5 0 0 0 87.3126 -291.192C 87.70116010103521 -291.75670868974976 88.10929640738486 -292.33705353096997 88.53782359579924 -292.93182551974365 C 89.68339469067661 -294.5218051648408 90.97447541026024 -296.21465361135546 92.42528476840822 -297.99596992484413 A 312 312 0 0 1 95.5498 -297.009C 95.71389153701968 -294.7173682651007 95.79809405419368 -292.59003772579814 95.82229531308391 -290.6305013764772 C 95.83134629815912 -289.89748885986563 95.83199577665573 -289.1879996369247 95.8252900013414 -288.50219132912105 A 1.5 1.5 0 0 0 96.9254 -287.079A 303 303 0 0 1 97.379 -286.926A 1.5 1.5 0 0 0 99.1173 -287.388C 99.52851875955498 -287.93670224907385 99.9599868601045 -288.49991682408046 100.41241733636292 -289.07671482511086 C 101.62188810781454 -290.61864506291215 102.980943283727 -292.25742336279694 104.5032026511319 -293.97808080131836 A 312 312 0 0 1 107.585 -292.864C 107.655343113075 -290.5680699758207 107.65270475207525 -288.4390753007689 107.5969591536369 -286.48018254375114 C 107.57610406235835 -285.7474108637526 107.54781393812884 -285.03848558689845 107.51314059218052 -284.3535215283116 A 1.5 1.5 0 0 0 108.554 -282.887A 303 303 0 0 1 109.001 -282.715A 1.5 1.5 0 0 0 110.757 -283.106C 111.1902220209862 -283.6374535837372 111.64430377966345 -284.18260047745326 112.11988451788818 -284.7404644673914 C 113.3912419211766 -286.23177890718796 114.81600954020165 -287.8137594756923 116.4071852663769 -289.47089417475013 A 312 312 0 0 1 119.441 -288.232C 119.41761299493486 -285.9351498099863 119.32813814705287 -283.8080345007131 119.19253847433302 -281.8530457196711 C 119.141812017942 -281.12173450243046 119.08462937710621 -280.4145531078231 119.02204617088636 -279.73157335353 A 1.5 1.5 0 0 0 120.003 -278.224A 303 303 0 0 1 120.442 -278.034A 1.5 1.5 0 0 0 122.212 -278.353C 122.6668601311335 -278.8661183688543 123.14279977366411 -279.39229023807525 123.64073921665104 -279.93029170736503 C 124.97186720284769 -281.36850820344824 126.45997587989257 -282.8910579900403 128.11741960987376 -284.4819118124692 A 312 312 0 0 1 131.098 -283.121C 130.981124045189 -280.8263188059947 130.80496163247884 -278.70462323600924 130.58973357775056 -276.7567923168328 C 130.50922018542758 -276.0281587576985 130.42324020284786 -275.3238982789782 130.33285129992694 -274.64403958137717 A 1.5 1.5 0 0 0 131.251 -273.097A 303 303 0 0 1 131.682 -272.89A 1.5 1.5 0 0 0 133.464 -273.136C 133.9393313584829 -273.6306380210108 134.43633673030192 -274.13695910458785 134.9558061069894 -274.6542026028785 C 136.34448914492918 -276.03692738582714 137.89346206996117 -277.4975122566462 139.61441515223152 -279.01943738325883 A 312 312 0 0 1 142.537 -277.538C 142.32662994088804 -275.25008010886546 142.06407316830035 -273.1373356310556 141.76957495742002 -271.1999045460799 C 141.6594086357608 -270.4751613837029 141.5447744166329 -269.7749939929337 141.42673026041942 -269.0993879097322 A 1.5 1.5 0 0 0 142.281 -267.517A 303 303 0 0 1 142.704 -267.291A 1.5 1.5 0 0 0 144.494 -267.465C 144.98887378714667 -267.93972648056086 145.5061176718618 -268.4253540570188 146.0462523767384 -268.9209786835538 C 147.4901791405526 -270.2459103444265 149.09743820100482 -271.6420993000991 150.87903627899826 -273.0925626367198 A 312 312 0 0 1 153.739 -271.493C 153.43524720714657 -269.21571481759594 153.08673307451787 -267.11543788664 152.7134548706937 -265.19163129870253 C 152.5738189806684 -264.4719847965524 152.4307213223369 -263.77707585325714 152.28521838567917 -263.1068468641057 A 1.5 1.5 0 0 0 153.074 -261.49A 303 303 0 0 1 153.487 -261.248A 1.5 1.5 0 0 0 155.283 -261.349C 155.79709654422274 -261.8028557081321 156.33371804043426 -262.2669814982961 156.89361907258908 -262.7401623347974 C 158.39038628867934 -264.00509565560105 160.05325636046467 -265.3345648773991 161.89253414000484 -266.71115227094896 A 312 312 0 0 1 164.685 -264.996C 164.2884866468254 -262.73326653768686 163.8545952215348 -260.64895285726186 163.4031583094986 -258.7419727525693 C 163.23428526126563 -258.0286206912275 163.06296233566061 -257.3401268027624 162.89024279383716 -256.67639043766906 A 1.5 1.5 0 0 0 163.613 -255.029A 303 303 0 0 1 164.016 -254.77A 1.5 1.5 0 0 0 165.814 -254.797C 166.3460104095867 -255.2302399194825 166.90111636377287 -255.672091431779 167.4798518231941 -256.12204091544197 C 169.02696827024388 -257.32487053949933 170.74268167023513 -258.58540725710736 172.6365778549748 -259.88582751372417 A 312 312 0 0 1 175.356 -258.058C 174.86828411397448 -255.81352466455255 174.34973756547905 -253.7486433690803 173.82089331741895 -251.86166372781875 C 173.62306418350113 -251.1557934113913 173.42380114072455 -250.4748605078868 173.22415246836718 -249.81872149052768 A 1.5 1.5 0 0 0 173.879 -248.143A 303 303 0 0 1 174.271 -247.868A 1.5 1.5 0 0 0 176.069 -247.822C 176.6180577571727 -248.23281858494644 177.1907242502557 -248.6516604011392 177.78733088888603 -249.0776296354535 C 179.38222154425284 -250.21635357156157 181.14792263681807 -251.4058597460145 183.09328502346474 -252.62794844451847 A 312 312 0 0 1 185.736 -250.691C 185.15703057982074 -248.46800642563758 184.55469197767547 -246.42599430625302 183.94932060265117 -244.56215581981087 C 183.72286465011837 -243.86494209977766 183.4959931438398 -243.19270352685092 183.26974763646052 -242.5452539358666 A 1.5 1.5 0 0 0 183.856 -240.845A 303 303 0 0 1 184.236 -240.554A 1.5 1.5 0 0 0 186.031 -240.434C 186.59614177791082 -240.8222382217654 187.18541566302892 -241.2173732209865 187.79890048799697 -241.6186532222001 C 189.43891081358342 -242.69137617674696 191.2516607635096 -243.8078719924088 193.2452514883569 -244.94959508676814 A 312 312 0 0 1 195.807 -242.907C 195.13760144125993 -240.70893771112722 194.45247331862387 -238.6931934954786 193.77158239754547 -236.85559833907584 C 193.5168765399819 -236.16820165886648 193.26277417543383 -235.5057762912795 193.01030839635166 -234.86809374261793 A 1.5 1.5 0 0 0 193.526 -233.145A 303 303 0 0 1 193.894 -232.839A 1.5 1.5 0 0 0 195.683 -232.646C 196.26365493567695 -233.01083300961017 196.86855542460333 -233.38160352864895 197.49789735096226 -233.75752640580185 C 199.18029771143262 -234.7624629372958 201.0370793753269 -235.80409009706736 203.07558030335912 -236.86354730186727 A 312 312 0 0 1 205.552 -234.718C 204.79338502306703 -232.54923272516115 204.02660770808552 -230.56311142056327 203.27133051669466 -228.75481808998705 C 202.98879868686348 -228.0783825535371 202.70788839235453 -227.42687293294 202.42962254594318 -226.80001878627112 A 1.5 1.5 0 0 0 202.875 -225.057A 303 303 0 0 1 203.23 -224.736A 1.5 1.5 0 0 0 205.009 -224.471C 205.60450660889927 -224.81160426155495 206.22402690446722 -225.15739318947354 206.8681784546898 -225.50733325603625 C 208.59016866067876 -226.4428107467969 210.4878916087058 -227.40783556506807 212.56790985630622 -228.38326351834812 A 312 312 0 0 1 214.955 -226.138C 214.10831022639178 -224.00247249141358 213.26115994423301 -222.04927980076934 212.43275356687704 -220.2732980218094 C 212.12286601112623 -219.60894948931244 211.81561533411883 -218.96943998917178 211.51201256641772 -218.35445758135896 A 1.5 1.5 0 0 0 211.886 -216.595A 303 303 0 0 1 212.228 -216.26A 1.5 1.5 0 0 0 213.994 -215.922C 214.60314987180809 -216.23819878467626 215.23625884362554 -216.5584305899297 215.89414789102727 -216.8818054051967 C 217.65286185977874 -217.74626684526226 219.58836751937625 -218.6330831334605 221.70644110144698 -219.5228583316566 A 312 312 0 0 1 224 -217.182C 223.066873277515 -215.08288224882142 222.14076002621908 -213.16586906860545 221.2406032635584 -211.42515478766268 C 220.90387575914195 -210.77399900168703 220.57079608806563 -210.14755402245314 220.24236171591937 -209.54546693102205 A 1.5 1.5 0 0 0 220.544 -207.772A 303 303 0 0 1 220.872 -207.423A 1.5 1.5 0 0 0 222.624 -207.014C 223.24460737076134 -207.3048861662878 223.89025127142577 -207.59902785463967 224.56078282461368 -207.89529919314455 C 226.35329335029272 -208.68730577176095 228.32336026330375 -209.49443751169375 230.4759638553983 -210.2970790117997 A 312 312 0 0 1 232.672 -207.865C 231.65416353235167 -205.80530777507616 230.65062873602804 -203.92766478453845 229.68021981015835 -202.2251152487439 C 229.317212806776 -201.5882359938333 228.95885851987197 -200.97589819135075 228.60613918988003 -200.38770853084569 A 1.5 1.5 0 0 0 228.835 -198.604A 303 303 0 0 1 229.149 -198.242A 1.5 1.5 0 0 0 230.882 -197.761C 231.51449625256978 -198.0265350236219 232.17160047152652 -198.29409702526058 232.85365849690461 -198.56277177259915 C 234.67698212264258 -199.28100527297877 236.67833130711463 -200.00710907352016 238.86188211299273 -200.721280957971 A 312 312 0 0 1 240.957 -198.202C 239.85588829374464 -196.18519067729352 238.77660223702378 -194.3500430278888 237.73755629783332 -192.6884919629216 C 237.34887398481737 -192.0669492617428 236.9658415274304 -191.46973781185275 236.58942430610807 -190.8964245659156 A 1.5 1.5 0 0 0 236.746 -189.105A 303 303 0 0 1 237.044 -188.73A 1.5 1.5 0 0 0 238.756 -188.179C 239.39905210333853 -188.41858825648256 240.06652295546425 -188.65912524086175 240.758972234761 -188.8997562144324 C 242.6100742183251 -189.54302120779573 244.6393746260522 -190.18688854082828 246.85023834089012 -190.8114021410034 A 312 312 0 0 1 248.841 -188.208C 247.6583966002504 -186.23854269098118 246.50515564825986 -184.44894480486272 245.39920208517188 -182.83115769849337 C 244.9854913858736 -182.22598604753293 244.5784182777279 -181.64489494975544 244.1789296743917 -181.08741234170427 A 1.5 1.5 0 0 0 244.262 -179.291A 303 303 0 0 1 244.545 -178.904A 1.5 1.5 0 0 0 246.233 -178.284C 246.8851518579738 -178.49703734406387 247.56187840390726 -178.71014896111146 248.26356642363444 -178.92233565440628 C 250.13936578845681 -179.48956148965516 252.1932398491802 -180.05012070154578 254.427736708513 -180.5839365761904 A 312 312 0 0 1 256.31 -177.902C 255.0487019468154 -175.98191903008632 253.82342555530738 -174.24084951632165 252.652405118882 -172.6695190155307 C 252.21435461393156 -172.08172566327775 251.783918388042 -171.5177220863976 251.36202331204697 -170.97699799101605 A 1.5 1.5 0 0 0 251.372 -169.178A 303 303 0 0 1 251.639 -168.781A 1.5 1.5 0 0 0 253.3 -168.092C 253.96033564223114 -168.27839572870963 254.64519153742225 -168.4637272751709 255.35495040712013 -168.64711652437944 C 257.252325070279 -169.1373591100901 259.3273543133198 -169.61367720535173 261.5817652176457 -170.05590687062437 A 312 312 0 0 1 263.353 -167.299C 262.01450389953357 -165.43239083247465 260.71923142014026 -163.7427475294447 259.4850931583269 -162.22048895877742 C 259.023431939559 -161.65105222925794 258.57034901454404 -161.10507490156786 258.1267496686078 -160.58200930074906 A 1.5 1.5 0 0 0 258.063 -158.784A 303 303 0 0 1 258.314 -158.376A 1.5 1.5 0 0 0 259.946 -157.621C 260.61282751094586 -157.7796713309192 261.3046728803448 -157.93691434072525 262.0213212764203 -158.09120091254078 C 263.9371132450393 -158.50364428831102 266.0298439890052 -158.8949284824815 268.3004166938599 -159.24483589074757 A 312 312 0 0 1 269.958 -156.418C 268.54420856850396 -154.60751674670675 267.1810958544379 -152.97211189893994 265.8858938685772 -151.50145890755675 C 265.4013903255295 -150.9513265720098 264.92641481320356 -150.42428421888968 264.4618495246588 -149.9197477037053 A 1.5 1.5 0 0 0 264.325 -148.126A 303 303 0 0 1 264.559 -147.708A 1.5 1.5 0 0 0 266.158 -146.887C 266.831555047931 -147.01833824134286 267.52923838319816 -147.14723099902204 268.2515835151213 -147.27215809867215 C 270.1826041425365 -147.6061157932066 272.28955324363415 -147.91171483236027 274.57250860483134 -148.1687175972708 A 312 312 0 0 1 276.113 -145.277C 274.62694790471573 -143.525313707401 273.19826372256506 -141.94686928486973 271.8441537485402 -140.53026962953726 C 271.33761428954483 -140.00035732894327 270.8415367397733 -139.4931271603765 270.35677873169533 -139.00795948206377 A 1.5 1.5 0 0 0 270.147 -137.222A 303 303 0 0 1 270.363 -136.794A 1.5 1.5 0 0 0 271.928 -135.908C 272.6061677949225 -136.0123076368807 273.3085278710001 -136.1126356131582 274.03536746658654 -136.20799531181447 C 275.97840275953445 -136.46291148548866 278.09606340891804 -136.6823167301841 280.387601672562 -136.8459870960003 A 312 312 0 0 1 281.809 -133.894C 280.25259778884475 -132.20422694782255 278.76072004243497 -130.6853701154927 277.34995586266155 -129.32518158653423 C 276.8222235726582 -128.81637130762095 276.30586965756504 -128.32979755816498 275.801725761818 -127.86480623044365 A 1.5 1.5 0 0 0 275.519 -126.089A 303 303 0 0 1 275.718 -125.653A 1.5 1.5 0 0 0 277.245 -124.703C 277.92705447889455 -124.77989796929837 278.63292228675124 -124.85149417815893 279.3630465932253 -124.91712775901395 C 281.3148625612173 -125.09257812901421 283.43971012172614 -125.22542440087463 285.73601724852705 -125.29548995442505 A 312 312 0 0 1 287.036 -122.288C 285.41179488184906 -120.66309929961457 283.859206654457 -119.20635804478886 282.39413634668523 -117.90484454177498 C 281.846089583989 -117.41798314903755 281.3103187237074 -116.95287567267881 280.78762803805216 -116.50883462772428 A 1.5 1.5 0 0 0 280.433 -114.746A 303 303 0 0 1 280.614 -114.302A 1.5 1.5 0 0 0 282.101 -113.291C 282.78535900907565 -113.33980447596993 283.49355970140687 -113.3825497525897 284.2257534989158 -113.41834797502543 C 286.1831015368963 -113.51404052152597 288.3115994094653 -113.56010671104231 290.6088534228312 -113.5364508351278 A 312 312 0 0 1 291.785 -110.478C 290.09595220932465 -108.92113983076273 288.4852376308311 -107.52893875549523 286.9682996600017 -106.28826651920642 C 286.40085059436285 -105.82416434538514 285.84655452661497 -105.38129726761694 285.3061870181139 -104.95894556792649 A 1.5 1.5 0 0 0 284.88 -103.212A 303 303 0 0 1 285.042 -102.761A 1.5 1.5 0 0 0 286.487 -101.69C 287.1729952170373 -101.71106806350224 287.8823500636823 -101.72489126258675 288.6153946879097 -101.73079454399488 C 290.57501698323847 -101.74656999619584 292.7036224932186 -101.7057794307419 294.99799984055824 -101.58844149823332 A 312 312 0 0 1 296.049 -98.4847C 294.29727345367525 -96.99789187399924 292.63111339953593 -95.6725481595846 291.0648325591961 -94.49478216651724 C 290.4789256535832 -94.05421166387858 289.90702694947083 -93.63432209324569 289.3498820065135 -93.23436270154193 A 1.5 1.5 0 0 0 288.852 -91.5059A 303 303 0 0 1 288.997 -91.0493A 1.5 1.5 0 0 0 290.397 -89.9203C 291.08266031532355 -89.91304361602305 291.7919886651457 -89.89792173022164 292.5246640356582 -89.87392024517281 C 294.48329899041823 -89.80975234639092 296.60846928400827 -89.68217291783728 298.8961512006573 -89.47134822614332 A 312 312 0 0 1 299.819 -86.3274C 298.00876593031467 -84.91320049885226 296.28993355950786 -83.65692004910605 294.67691676954126 -82.54402057452286 C 294.0735272081762 -82.12771502918892 293.4849777366521 -81.73150183044312 292.91198267201173 -81.35460043966185 A 1.5 1.5 0 0 0 292.344 -79.6478A 303 303 0 0 1 292.47 -79.1857A 1.5 1.5 0 0 0 293.823 -78.0006C 294.50784705221986 -77.96536778088853 295.215968298184 -77.92132597908774 295.9470549491343 -77.86745967568515 C 297.9014426087394 -77.72345522705523 300.019640549717 -77.50929927877002 302.29681941489457 -77.20533872478391 A 312 312 0 0 1 303.091 -74.0263C 301.2242522262994 -72.68717948148813 299.45560836567626 -71.50205325123768 297.79854033334254 -70.45587260648298 C 297.17867239860215 -70.06452491794913 296.5744517421782 -69.69264754885776 295.9865602495916 -69.33943147416788 A 1.5 1.5 0 0 0 295.35 -67.6573A 303 303 0 0 1 295.456 -67.1904A 1.5 1.5 0 0 0 296.76 -65.9511C 297.44285454243146 -65.88792628541954 298.1485900866075 -65.81503787085205 298.87687119641566 -65.73139640424169 C 300.82375867548325 -65.50779508695678 302.93145873241883 -65.20741906038107 305.19434440663673 -64.81082855644728 A 312 312 0 0 1 305.858 -61.6021C 303.93838048202383 -60.3401778273139 302.12286886474425 -59.22817834221034 300.42450761624855 -58.25045779172065 C 299.7891930171359 -57.884719319592655 299.17030684146476 -57.53779673333632 298.5684974083028 -57.20885386803555 A 1.5 1.5 0 0 0 297.864 -55.554A 303 303 0 0 1 297.951 -55.0832A 1.5 1.5 0 0 0 299.203 -53.7918C 299.88279775564433 -53.70082083907322 300.5849729708675 -53.59920712731175 301.30923638749954 -53.4859297104603 C 303.2453832839575 -53.18310368684601 305.3390773981135 -52.79700752823216 307.5839035314892 -52.30844716010532 A 312 312 0 0 1 308.116 -49.0753C 306.146633298861 -47.892745902068185 304.28727566484065 -46.85572397551216 302.55044795487123 -45.94809083865333 C 301.900744109838 -45.60857031852364 301.2682224898816 -45.28717993350966 300.65349676855374 -44.98305777053418 A 1.5 1.5 0 0 0 299.882 -43.3584A 303 303 0 0 1 299.95 -42.8844A 1.5 1.5 0 0 0 301.148 -41.543C 301.82361564717604 -41.424335676129466 302.5210618320977 -41.294165793169086 303.24010209057366 -41.151440965157626 C 305.16228587898956 -40.769894259244616 307.2384893031378 -40.298720587545134 309.4615196041124 -39.719003515742365 A 312 312 0 0 1 309.862 -36.4668C 307.84533525792807 -35.365601227763605 305.94522632445035 -34.405282880409054 304.17282293132445 -33.569247822963824 C 303.50981120830187 -33.25651035323119 302.8647069138737 -32.96118709203767 302.23808805467615 -32.6823918127142 A 1.5 1.5 0 0 0 301.401 -31.0905A 303 303 0 0 1 301.449 -30.6142A 1.5 1.5 0 0 0 302.592 -29.225C 303.26207791718394 -29.07890379458566 303.9536342414596 -28.920394395350193 304.6662545702307 -28.748459707569555 C 306.5712759653874 -28.288827366195292 308.62653306382725 -27.733360403486987 310.82406751785373 -27.063451509862514 A 312 312 0 0 1 311.091 -23.7976C 309.0316590374577 -22.779594000416825 307.0939613483222 -21.8975775873799 305.28893226257054 -21.134532107193795 C 304.61371617913954 -20.849098208512792 303.95710292267285 -20.580333607562775 303.31963387085636 -20.32732923911968 A 1.5 1.5 0 0 0 302.418 -18.771A 303 303 0 0 1 302.447 -18.293A 1.5 1.5 0 0 0 303.532 -16.8584C 304.1957903871801 -16.685072947448788 304.8803058235572 -16.498487855190103 305.5853201364141 -16.297629475960008 C 307.4700084182044 -15.760676511795982 309.500898418327 -15.121840778019706 311.6692794461796 -14.362855059814217 A 312 312 0 0 1 311.803 -11.0889C 309.70363011859604 -10.155672386955754 307.73156878037656 -9.353425937510483 305.8969182947757 -8.664640048480944 C 305.2106216814706 -8.406984797406693 304.54359233093015 -8.165226188854314 303.89633409082023 -7.938433832094072 A 1.5 1.5 0 0 0 302.932 -6.42014A 303 303 0 0 1 302.942 -5.94137A 1.5 1.5 0 0 0 303.967 -4.46367" stroke="#191919" stroke-width="0.35 px" style="stroke-width:0.35;stroke-miterlimit:4;stroke-dasharray:none;fill:none;fill-rule: evenodd "/>
<title>b'InvoluteGear'</title>
</g>
</svg>