<?xml version="1.0"?>
<!DOCTYPE svg PUBLIC "-//W3C//DTD SVG 1.1//EN" "http://www.w3.org/Graphics/SVG/1.1/DTD/svg11.dtd">
<svg width="813.939867979156mm" height="813.939867979156mm" viewBox="0 0 813.939867979156 813.939867979156" xmlns="http://www.w3.org/2000/svg" version="1.1">
<g id="InvoluteGear" transform="translate(406.969934,406.969934) scale(1,-1)">
<path id="InvoluteGear_w0000"  d="M 384.9225750842571 -7.720828356104764 C 386.05838179712964 -7.400327346623376 387.24818090748886 -7.045205592430466 388.49035582066045 -6.651885358775507 C 391.660346380842 -5.648118228899804 395.17012313140435 -4.396157163762717 398.99013136233134 -2.8377178169088353 A 399 399 0 0 1 398.99 2.83772C 395.17012313140435 4.396157163762717 391.660346380842 5.648118228899804 388.49035582066045 6.651885358775507 C 387.24818090748886 7.045205592430466 386.05838179712964 7.400327346623376 384.92258046361985 7.720826232398045 A 2.625 2.625 0 0 0 383.112 10.2921A 383.25 383.25 0 0 1 383.086 11.2053A 2.625 2.625 0 0 0 384.75 13.8741C 385.8659802126672 14.257780864253174 387.0339957133529 14.679056514475793 388.2521628141974 15.141407285574328 C 391.36088472094184 16.32133809252276 394.79494192658365 17.768124343420624 398.52155818675976 19.53830154685622 A 399 399 0 0 1 398.203 25.2048C 394.3019529299893 26.546606734087355 390.7274996906559 27.59980348077176 387.50621444012324 28.42424871082608 C 386.2439400564618 28.747300876067914 385.0361008846136 29.03515138981003 383.88411586084 29.2914611828083 A 2.625 2.625 0 0 0 381.932 31.7572A 383.25 383.25 0 0 1 381.855 32.6675A 2.625 2.625 0 0 0 383.367 35.4254C 384.45950149779253 35.87102882165991 385.6020583799155 36.357132878859666 386.79238486405524 36.88705946082259 C 389.83005692812765 38.239441445992725 393.1775897744011 39.876500757846685 396.79908875035665 41.8528461854795 A 399 399 0 0 1 396.164 47.4926C 392.19316290698407 48.613530858328005 388.565279731191 49.46464953994939 385.3028351454661 50.10717886047322 C 384.02443287352236 50.35894651567228 382.8023539490772 50.578620104752936 381.637809806118 50.76993435954054 A 2.625 2.625 0 0 0 379.551 53.1223A 383.25 383.25 0 0 1 379.423 54.0269A 2.625 2.625 0 0 0 380.777 56.8652C 381.8433709548898 57.37141325139124 382.9568743117935 57.920816252363 384.11561497173096 58.51665130010951 C 387.07267955298744 60.03722936944287 390.32315546309025 61.85941094800421 393.8281425792213 64.03570628594153 A 399 399 0 0 1 392.877 69.631C 388.8503880959783 70.52749882921418 385.1804896463841 71.17386151151659 381.8871505831218 71.63245328755461 C 380.59664274940667 71.81214427852258 379.36416918478653 71.96294976855913 378.1907300093554 72.08866653971106 A 2.625 2.625 0 0 0 375.975 74.3203A 383.25 383.25 0 0 1 375.797 75.2163A 2.625 2.625 0 0 0 376.99 78.1261C 378.025819898522 78.69128598965511 379.1067662366891 79.30225930929828 380.2302752456153 79.96212810533041 C 383.0974283248746 81.64611795766118 386.24062009903344 83.6476885455415 389.6180673691523 86.01708636349845 A 399 399 0 0 1 388.355 91.5502C 384.284146103235 92.2195611961222 380.5837792380937 92.65913418297595 377.2699077604052 92.93234551513811 C 375.97135478000536 93.03939446753816 374.73236439301587 93.12085736866626 373.5537222588893 93.18058110470974 A 2.625 2.625 0 0 0 371.216 95.2845A 383.25 383.25 0 0 1 370.988 96.1691A 2.625 2.625 0 0 0 372.016 99.1412C 373.01885975667034 99.76356682922372 374.0638480190093 100.43418811943634 375.1485904019239 101.15601447239386 C 377.91681085485425 102.99811765263034 380.94282884887855 105.17277956825039 384.1821095743382 107.72782486409889 A 399 399 0 0 1 382.611 113.181C 378.50880401540996 113.62146670555565 374.7896114578832 113.85286693771774 371.46563423145176 113.93983820207463 C 370.16312183246185 113.97390830029819 368.9215129452428 113.98577230009255 367.74137629663034 113.97931508805833 A 2.625 2.625 0 0 0 365.29 115.949A 383.25 383.25 0 0 1 365.012 116.819A 2.625 2.625 0 0 0 365.872 119.844C 366.8382442783379 120.52195457858275 367.843986545167 121.25011381667984 368.88654930121737 122.03162659380631 C 371.5471272821308 124.02604716383094 374.4464505238926 126.36695811625674 377.53737272911246 129.09961177222036 A 399 399 0 0 1 375.663 134.457C 371.5425331953826 134.66587704483942 367.816216901225 134.68837645156964 364.492592388158 134.5888340043473 C 363.19021875646854 134.54981805126064 361.9498979299301 134.49204582118867 360.77197991333685 134.41942797785475 A 2.625 2.625 0 0 0 358.214 136.248A 383.25 383.25 0 0 1 357.888 137.102A 2.625 2.625 0 0 0 358.577 140.17C 359.5034199664271 140.90113567000898 360.466751800486 141.6845417976345 361.4638546415305 142.5232820706012 C 364.00841898778015 144.66374484543616 366.7719251337146 147.16353946275774 369.7047636339058 150.06520353945032 A 399 399 0 0 1 367.533 155.309C 363.40725210842436 155.28657871336424 359.68553644730173 155.10010650320498 356.3727219999399 154.81436354176955 C 355.074584884828 154.7023842959956 353.8394546271649 154.57515760886676 352.66746140845873 154.4366076168343 A 2.625 2.625 0 0 0 350.011 156.119A 383.25 383.25 0 0 1 349.637 156.953A 2.625 2.625 0 0 0 350.153 160.055C 351.0374648918467 160.83698966021788 351.95535529478707 161.67317779186197 352.90386096639526 162.5665065734661 C 355.32440553714963 164.84627686532681 357.94339957452274 167.49708986884318 360.7089265747181 170.55863465756713 A 399 399 0 0 1 358.246 175.672C 354.12855735859915 175.41869135475596 350.4231522248835 175.02383423826856 347.1315711831016 174.5527898156914 C 345.84175500419576 174.3681996053657 344.61570149215294 174.17191876340704 343.4533205955956 173.96787255220949 A 2.625 2.625 0 0 0 340.706 175.499A 383.25 383.25 0 0 1 340.287 176.311A 2.625 2.625 0 0 0 340.628 179.437C 341.46701608136306 180.26679097700065 342.3365770303906 181.15313015544137 343.23350118280626 182.09823670283623 C 345.5224100493305 184.5101415109507 347.9886516539663 187.30363246224638 350.5781657830766 190.51542521043393 A 399 399 0 0 1 347.833 195.483C 343.7356431523762 194.99887189448057 340.0582071214861 194.39687223823648 336.7982160170092 193.7420084345407 C 335.52077901319444 193.48538804875676 334.30765986471675 193.22067062411395 333.15854857064846 192.95177019862157 A 2.625 2.625 0 0 0 330.33 194.326A 383.25 383.25 0 0 1 329.866 195.113A 2.625 2.625 0 0 0 330.031 198.254C 330.82218570765906 199.12940627708065 331.6406812423215 200.0631077513487 332.4832018203312 201.0570184096804 C 334.6332732285165 203.5934689892035 336.9390026919053 206.52084853225364 339.34435638045244 209.87278375167008 A 399 399 0 0 1 336.325 214.678C 332.26120944285634 213.96551384059097 328.62331308906516 213.1582657582272 325.4051690599886 212.3216430172155 C 324.144130520685 211.99379987864734 322.9477626574245 211.66147877027436 321.81553649510647 211.32857019070937 A 2.625 2.625 0 0 0 318.914 212.542A 383.25 383.25 0 0 1 318.407 213.302A 2.625 2.625 0 0 0 318.396 216.447C 319.1364663452983 217.3654867942282 319.90132117582937 218.34361279404925 320.6867872979921 219.3832003526752 C 322.6912563277386 222.03621609168735 324.8292189719507 225.0882736074234 327.0428440873355 228.5698048697719 A 399 399 0 0 1 323.759 233.198C 319.7413590436213 232.258941120543 316.1544485347501 231.2489845131797 312.98827705278796 230.23323515951586 C 311.7476046717794 229.8352007839677 310.5717523096475 229.43632159701846 309.4599736814697 229.04045231693647 A 2.625 2.625 0 0 0 306.495 230.09A 383.25 383.25 0 0 1 305.946 230.82A 2.625 2.625 0 0 0 305.758 233.959C 306.4466255906945 234.9176550724364 307.1554332008283 235.93712805154323 307.8813735001293 237.01912158339363 C 309.73393335028715 239.78035511285864 311.697402353874 242.94748769918354 313.71233401252096 246.54766081907024 A 399 399 0 0 1 310.174 250.985C 306.2154840359255 249.82159584419767 302.6908451194643 248.61210840896953 299.5866081314694 247.4204283659113 C 298.3702055230713 246.95345511678718 297.21856832862255 246.4892728727549 296.13073530146784 246.03168844336855 A 2.625 2.625 0 0 0 293.112 246.913A 383.25 383.25 0 0 1 292.522 247.611A 2.625 2.625 0 0 0 292.159 250.735C 292.7925903776506 251.7306854966252 293.44312059641214 252.78829781585688 294.10725099609766 253.90929296898148 C 295.8020728279972 256.7700564266577 297.58487039105995 260.04229911272864 299.394768872518 263.7497866135826 A 399 399 0 0 1 295.613 267.982C 291.726141826635 266.598219402238 288.27486432060584 265.19300663408353 285.24232890459945 263.8291453679255 C 284.05402332144337 263.2947025158306 282.93022477135634 262.7666777037859 281.86976007038754 262.24881785499997 A 2.625 2.625 0 0 0 278.806 262.959A 383.25 383.25 0 0 1 278.179 263.623A 2.625 2.625 0 0 0 277.641 266.722C 278.2173213524532 267.7516780528579 278.8075273711013 268.8441020725793 279.4077582712294 270.0005717814981 C 280.93950954836384 272.95186414716704 282.5360263301974 276.31892124688056 284.13519702424605 280.1220580013857 A 399 399 0 0 1 280.122 284.135C 276.31892124688056 282.5360263301974 272.95186414716704 280.93950954836384 270.0005717814981 279.4077582712294 C 268.8441020725793 278.8075273711013 267.7516780528579 278.2173213524532 266.72191829235845 277.6408154629417 A 2.625 2.625 0 0 0 263.623 278.179A 383.25 383.25 0 0 1 262.959 278.806A 2.625 2.625 0 0 0 262.249 281.87C 262.76667770378594 282.9302247713563 263.29470251583064 284.0540233214433 263.82914536792555 285.24232890459945 C 265.19300663408353 288.27486432060573 266.59821940223804 291.72614182663494 267.9816307262374 295.6129617595367 A 399 399 0 0 1 263.75 299.395C 260.0422991127287 297.5848703910599 256.7700564266577 295.8020728279972 253.90929296898153 294.10725099609766 C 252.78829781585694 293.4431205964121 251.73068549662526 292.7925903776505 250.73487068177602 292.15925234822845 A 2.625 2.625 0 0 0 247.611 292.522A 383.25 383.25 0 0 1 246.913 293.112A 2.625 2.625 0 0 0 246.032 296.131C 246.48927287275492 297.2185683286225 246.9534551167872 298.37020552307126 247.42042836591133 299.58660813146935 C 248.6121084089696 302.69084511946426 249.82159584419773 306.21548403592544 250.98489507430983 310.17375777372996 A 399 399 0 0 1 246.548 313.712C 242.9474876991836 311.69740235387394 239.7803551128587 309.7339333502871 237.01912158339366 307.88137350012926 C 235.9371280515433 307.15543320082827 234.91765507243642 306.44662559069445 233.95891840506096 305.7584481371149 A 2.625 2.625 0 0 0 230.82 305.946A 383.25 383.25 0 0 1 230.09 306.495A 2.625 2.625 0 0 0 229.04 309.46C 229.43632159701852 310.5717523096475 229.83520078396774 311.7476046717794 230.23323515951589 312.98827705278796 C 231.24898451317972 316.1544485347501 232.25894112054303 319.7413590436213 233.1984680870106 323.7586323927291 A 399 399 0 0 1 228.57 327.043C 225.08827360742342 324.8292189719507 222.03621609168738 322.6912563277386 219.38320035267523 320.6867872979921 C 218.34361279404928 319.90132117582937 217.36548679422825 319.1364663452983 216.44684481458052 318.3956147284314 A 2.625 2.625 0 0 0 213.302 318.407A 383.25 383.25 0 0 1 212.542 318.914A 2.625 2.625 0 0 0 211.329 321.816C 211.66147877027439 322.9477626574245 211.99379987864737 324.144130520685 212.32164301721554 325.4051690599886 C 213.15826575822723 328.62331308906516 213.965513840591 332.26120944285634 214.67831244398607 336.3248425750633 A 399 399 0 0 1 209.873 339.344C 206.52084853225367 336.9390026919053 203.59346898920353 334.6332732285165 201.05701840968044 332.4832018203312 C 200.06310775134872 331.6406812423215 199.12940627708068 330.82218570765906 198.25374937269345 330.03099092078014 A 2.625 2.625 0 0 0 195.113 329.866A 383.25 383.25 0 0 1 194.326 330.33A 2.625 2.625 0 0 0 192.952 333.159C 193.22067062411398 334.30765986471675 193.4853880487568 335.52077901319444 193.74200843454076 336.7982160170092 C 194.39687223823654 340.0582071214861 194.9988718944806 343.7356431523762 195.48269940668678 347.8328503744489 A 399 399 0 0 1 190.515 350.578C 187.3036324622464 347.9886516539663 184.51014151095075 345.5224100493305 182.0982367028363 343.23350118280626 C 181.1531301554414 342.3365770303906 180.26679097700068 341.46701608136306 179.43687428845706 340.62796751598546 A 2.625 2.625 0 0 0 176.311 340.287A 383.25 383.25 0 0 1 175.499 340.706A 2.625 2.625 0 0 0 173.968 343.453C 174.17191876340704 344.61570149215294 174.36819960536573 345.84175500419576 174.55278981569143 347.1315711831016 C 175.0238342382686 350.4231522248835 175.418691354756 354.12855735859915 175.67202547542092 358.24644734079624 A 399 399 0 0 1 170.559 360.709C 167.4970898688432 357.94339957452274 164.84627686532684 355.32440553714963 162.56650657346614 352.90386096639526 C 161.673177791862 351.95535529478707 160.83698966021788 351.0374648918467 160.05542441245956 350.1532025051752 A 2.625 2.625 0 0 0 156.953 349.637A 383.25 383.25 0 0 1 156.119 350.011A 2.625 2.625 0 0 0 154.437 352.667C 154.5751576088668 353.8394546271649 154.70238429599564 355.074584884828 154.81436354176958 356.3727219999399 C 155.10010650320504 359.68553644730173 155.28657871336424 363.40725210842436 155.30862235961973 367.53286844538934 A 399 399 0 0 1 150.065 369.705C 147.16353946275774 366.7719251337146 144.66374484543616 364.00841898778015 142.52328207060123 361.4638546415305 C 141.68454179763452 360.466751800486 140.901135670009 359.5034199664271 140.17038095645674 358.57672597507576 A 2.625 2.625 0 0 0 137.102 357.888A 383.25 383.25 0 0 1 136.248 358.214A 2.625 2.625 0 0 0 134.419 360.772C 134.4920458211887 361.9498979299301 134.54981805126067 363.19021875646854 134.58883400434732 364.492592388158 C 134.68837645156967 367.816216901225 134.66587704483945 371.5425331953826 134.456560859219 375.66289517178825 A 399 399 0 0 1 129.1 377.537C 126.36695811625677 374.4464505238926 124.02604716383097 371.5471272821308 122.03162659380634 368.88654930121737 C 121.25011381667986 367.843986545167 120.52195457858278 366.8382442783379 119.84430962391862 365.8720344044474 A 2.625 2.625 0 0 0 116.819 365.012A 383.25 383.25 0 0 1 115.949 365.29A 2.625 2.625 0 0 0 113.979 367.741C 113.98577230009258 368.9215129452428 113.9739083002982 370.16312183246185 113.93983820207464 371.46563423145176 C 113.85286693771776 374.7896114578832 113.62146670555566 378.50880401540996 113.18144927421878 382.6109474480915 A 399 399 0 0 1 107.728 384.182C 105.1727795682504 380.94282884887855 102.99811765263037 377.91681085485425 101.15601447239388 375.1485904019239 C 100.43418811943636 374.0638480190093 99.76356682922375 373.01885975667034 99.14116375517955 372.01617405396695 A 2.625 2.625 0 0 0 96.1691 370.988A 383.25 383.25 0 0 1 95.2845 371.216A 2.625 2.625 0 0 0 93.1806 373.554C 93.1208573686663 374.73236439301587 93.03939446753817 375.97135478000536 92.93234551513814 377.2699077604052 C 92.65913418297596 380.5837792380937 92.21956119612223 384.284146103235 91.55022697669864 388.3551641313062 A 399 399 0 0 1 86.0171 389.618C 83.64768854554153 386.24062009903344 81.64611795766119 383.0974283248746 79.96212810533044 380.2302752456153 C 79.3022593092983 379.1067662366891 78.69128598965514 378.025819898522 78.12608310656881 376.98981318718455 A 2.625 2.625 0 0 0 75.2163 375.797A 383.25 383.25 0 0 1 74.3203 375.975A 2.625 2.625 0 0 0 72.0887 378.191C 71.96294976855916 379.36416918478653 71.81214427852261 380.59664274940667 71.63245328755463 381.8871505831218 C 71.1738615115166 385.1804896463841 70.52749882921421 388.8503880959783 69.63095379478807 392.87747179059136 A 399 399 0 0 1 64.0357 393.828C 61.85941094800424 390.32315546309025 60.03722936944288 387.07267955298744 58.51665130010952 384.11561497173096 C 57.920816252363025 382.9568743117935 57.37141325139127 381.8433709548898 56.86518889663792 380.77730289531763 A 2.625 2.625 0 0 0 54.0269 379.423A 383.25 383.25 0 0 1 53.1223 379.551A 2.625 2.625 0 0 0 50.7699 381.638C 50.57862010475296 382.8023539490772 50.3589465156723 384.02443287352236 50.10717886047324 385.3028351454661 C 49.46464953994941 388.565279731191 48.613530858328026 392.19316290698407 47.49259587126734 396.1636415729582 A 399 399 0 0 1 41.8528 396.799C 39.876500757846706 393.1775897744011 38.239441445992746 389.83005692812765 36.88705946082261 386.79238486405524 C 36.35713287885969 385.6020583799155 35.871028821659934 384.45950149779253 35.4253757643446 383.3667263345083 A 2.625 2.625 0 0 0 32.6675 381.855A 383.25 383.25 0 0 1 31.7572 381.932A 2.625 2.625 0 0 0 29.2915 383.884C 29.03515138981005 385.0361008846136 28.747300876067936 386.2439400564618 28.424248710826106 387.50621444012324 C 27.599803480771783 390.7274996906559 26.546606734087376 394.3019529299893 25.20480867056744 398.2033339725057 A 399 399 0 0 1 19.5383 398.522C 17.768124343420645 394.79494192658365 16.32133809252278 391.36088472094184 15.141407285574353 388.2521628141974 C 14.679056514475814 387.0339957133529 14.257780864253196 385.8659802126672 13.87410129376994 384.74993622062243 A 2.625 2.625 0 0 0 11.2053 383.086A 383.25 383.25 0 0 1 10.2921 383.112A 2.625 2.625 0 0 0 7.72083 384.923C 7.4003273466234 386.05838179712964 7.04520559243049 387.24818090748886 6.651885358775531 388.49035582066045 C 5.648118228899828 391.660346380842 4.396157163762741 395.17012313140435 2.8377178169088597 398.99013136233134 A 399 399 0 0 1 -2.83772 398.99C -4.396157163762693 395.17012313140435 -5.64811822889978 391.660346380842 -6.651885358775483 388.49035582066045 C -7.045205592430442 387.24818090748886 -7.400327346623352 386.05838179712964 -7.7208262323980215 384.92258046361985 A 2.625 2.625 0 0 0 -10.2921 383.112A 383.25 383.25 0 0 1 -11.2053 383.086A 2.625 2.625 0 0 0 -13.8741 384.75C -14.25778086425315 385.8659802126672 -14.679056514475771 387.0339957133529 -15.141407285574306 388.2521628141974 C -16.321338092522733 391.36088472094184 -17.768124343420595 394.79494192658365 -19.538301546856196 398.52155818675976 A 399 399 0 0 1 -25.2048 398.203C -26.546606734087334 394.3019529299893 -27.599803480771737 390.7274996906559 -28.42424871082606 387.50621444012324 C -28.747300876067893 386.2439400564618 -29.035151389810004 385.0361008846136 -29.291461182808273 383.88411586084 A 2.625 2.625 0 0 0 -31.7572 381.932A 383.25 383.25 0 0 1 -32.6675 381.855A 2.625 2.625 0 0 0 -35.4254 383.367C -35.87102882165989 384.45950149779253 -36.357132878859645 385.6020583799155 -36.88705946082257 386.79238486405524 C -38.2394414459927 389.83005692812765 -39.876500757846664 393.1775897744011 -41.85284618547948 396.79908875035665 A 399 399 0 0 1 -47.4926 396.164C -48.613530858327984 392.19316290698407 -49.46464953994937 388.565279731191 -50.1071788604732 385.3028351454661 C -50.35894651567226 384.02443287352236 -50.578620104752915 382.8023539490772 -50.76993435954052 381.637809806118 A 2.625 2.625 0 0 0 -53.1223 379.551A 383.25 383.25 0 0 1 -54.0269 379.423A 2.625 2.625 0 0 0 -56.8652 380.777C -57.371413251391225 381.8433709548898 -57.92081625236298 382.9568743117935 -58.51665130010948 384.11561497173096 C -60.03722936944284 387.07267955298744 -61.8594109480042 390.32315546309025 -64.03570628594152 393.8281425792213 A 399 399 0 0 1 -69.631 392.877C -70.52749882921417 388.8503880959783 -71.17386151151656 385.1804896463841 -71.63245328755458 381.8871505831218 C -71.81214427852257 380.59664274940667 -71.96294976855911 379.36416918478653 -72.08866653971103 378.1907300093554 A 2.625 2.625 0 0 0 -74.3203 375.975A 383.25 383.25 0 0 1 -75.2163 375.797A 2.625 2.625 0 0 0 -78.1261 376.99C -78.69128598965509 378.025819898522 -79.30225930929825 379.1067662366891 -79.9621281053304 380.2302752456153 C -81.64611795766115 383.0974283248746 -83.64768854554148 386.24062009903344 -86.01708636349842 389.6180673691523 A 399 399 0 0 1 -91.5502 388.355C -92.21956119612219 384.284146103235 -92.65913418297592 380.5837792380937 -92.9323455151381 377.2699077604052 C -93.03939446753813 375.97135478000536 -93.12085736866626 374.73236439301587 -93.18058110470973 373.5537222588893 A 2.625 2.625 0 0 0 -95.2845 371.216A 383.25 383.25 0 0 1 -96.1691 370.988A 2.625 2.625 0 0 0 -99.1412 372.016C -99.7635668292237 373.0188597566704 -100.43418811943631 374.06384801900936 -101.15601447239384 375.14859040192397 C -102.99811765263031 377.9168108548543 -105.17277956825036 380.9428288488786 -107.72782486409888 384.18210957433826 A 399 399 0 0 1 -113.181 382.611C -113.62146670555562 378.50880401541 -113.8528669377177 374.78961145788327 -113.9398382020746 371.4656342314518 C -113.97390830029816 370.1631218324619 -113.98577230009253 368.92151294524285 -113.9793150880583 367.7413762966304 A 2.625 2.625 0 0 0 -115.949 365.29A 383.25 383.25 0 0 1 -116.819 365.012A 2.625 2.625 0 0 0 -119.844 365.872C -120.52195457858275 366.8382442783379 -121.25011381667984 367.843986545167 -122.03162659380631 368.88654930121737 C -124.02604716383094 371.5471272821308 -126.36695811625674 374.4464505238926 -129.09961177222036 377.53737272911246 A 399 399 0 0 1 -134.457 375.663C -134.66587704483942 371.5425331953826 -134.68837645156964 367.816216901225 -134.5888340043473 364.492592388158 C -134.54981805126064 363.19021875646854 -134.49204582118867 361.9498979299301 -134.41942797785475 360.77197991333685 A 2.625 2.625 0 0 0 -136.248 358.214A 383.25 383.25 0 0 1 -137.102 357.888A 2.625 2.625 0 0 0 -140.17 358.577C -140.90113567000896 359.5034199664271 -141.6845417976345 360.466751800486 -142.52328207060117 361.4638546415305 C -144.66374484543616 364.00841898778015 -147.1635394627577 366.7719251337146 -150.0652035394503 369.7047636339058 A 399 399 0 0 1 -155.309 367.533C -155.2865787133642 363.40725210842436 -155.10010650320498 359.68553644730173 -154.81436354176952 356.3727219999399 C -154.7023842959956 355.074584884828 -154.57515760886673 353.8394546271649 -154.43660761683427 352.66746140845873 A 2.625 2.625 0 0 0 -156.119 350.011A 383.25 383.25 0 0 1 -156.953 349.637A 2.625 2.625 0 0 0 -160.055 350.153C -160.83698966021785 351.0374648918467 -161.67317779186197 351.95535529478707 -162.5665065734661 352.90386096639526 C -164.8462768653268 355.32440553714963 -167.49708986884315 357.94339957452274 -170.5586346575671 360.7089265747181 A 399 399 0 0 1 -175.672 358.246C -175.41869135475594 354.12855735859915 -175.02383423826853 350.4231522248835 -174.5527898156914 347.1315711831016 C -174.3681996053657 345.84175500419576 -174.171918763407 344.61570149215294 -173.96787255220946 343.4533205955956 A 2.625 2.625 0 0 0 -175.499 340.706A 383.25 383.25 0 0 1 -176.311 340.287A 2.625 2.625 0 0 0 -179.437 340.628C -180.26679097700062 341.4670160813631 -181.15313015544135 342.33657703039063 -182.0982367028362 343.2335011828063 C -184.5101415109507 345.5224100493305 -187.30363246224636 347.9886516539664 -190.5154252104339 350.57816578307666 A 399 399 0 0 1 -195.483 347.833C -194.99887189448054 343.73564315237627 -194.39687223823648 340.0582071214861 -193.74200843454068 336.7982160170093 C -193.48538804875673 335.5207790131945 -193.22067062411392 334.3076598647168 -192.95177019862155 333.15854857064846 A 2.625 2.625 0 0 0 -194.326 330.33A 383.25 383.25 0 0 1 -195.113 329.866A 2.625 2.625 0 0 0 -198.254 330.031C -199.1294062770806 330.8221857076591 -200.06310775134864 331.6406812423215 -201.05701840968035 332.4832018203312 C -203.59346898920344 334.63327322851654 -206.52084853225358 336.9390026919053 -209.87278375167006 339.3443563804525 A 399 399 0 0 1 -214.678 336.325C -213.96551384059092 332.26120944285634 -213.15826575822715 328.6233130890652 -212.32164301721545 325.4051690599886 C -211.99379987864728 324.144130520685 -211.6614787702743 322.94776265742456 -211.3285701907093 321.81553649510647 A 2.625 2.625 0 0 0 -212.542 318.914A 383.25 383.25 0 0 1 -213.302 318.407A 2.625 2.625 0 0 0 -216.447 318.396C -217.36548679422816 319.13646634529835 -218.3436127940492 319.9013211758294 -219.38320035267515 320.6867872979921 C -222.0362160916873 322.6912563277386 -225.08827360742333 324.8292189719507 -228.56980486977184 327.04284408733554 A 399 399 0 0 1 -233.198 323.759C -232.25894112054294 319.7413590436213 -231.24898451317964 316.1544485347501 -230.2332351595158 312.98827705278796 C -229.83520078396765 311.74760467177947 -229.43632159701843 310.57175230964754 -229.04045231693644 309.45997368146976 A 2.625 2.625 0 0 0 -230.09 306.495A 383.25 383.25 0 0 1 -230.82 305.946A 2.625 2.625 0 0 0 -233.959 305.758C -234.91765507243633 306.44662559069457 -235.9371280515432 307.1554332008284 -237.01912158339357 307.88137350012937 C -239.78035511285862 309.7339333502872 -242.9474876991835 311.69740235387405 -246.5476608190702 313.71233401252096 A 399 399 0 0 1 -250.985 310.174C -249.82159584419765 306.21548403592556 -248.6121084089695 302.69084511946437 -247.42042836591125 299.58660813146946 C -246.95345511678715 298.3702055230714 -246.48927287275484 297.2185683286226 -246.0316884433685 296.1307353014679 A 2.625 2.625 0 0 0 -246.913 293.112A 383.25 383.25 0 0 1 -247.611 292.522A 2.625 2.625 0 0 0 -250.735 292.159C -251.73068549662514 292.7925903776506 -252.78829781585682 293.4431205964122 -253.90929296898142 294.1072509960977 C -256.7700564266576 295.8020728279973 -260.0422991127286 297.58487039105995 -263.7497866135825 299.39476887251806 A 399 399 0 0 1 -267.982 295.613C -266.59821940223793 291.726141826635 -265.1930066340835 288.2748643206059 -263.82914536792543 285.2423289045995 C -263.2947025158305 284.0540233214434 -262.76667770378583 282.93022477135634 -262.2488178549999 281.86976007038754 A 2.625 2.625 0 0 0 -262.959 278.806A 383.25 383.25 0 0 1 -263.623 278.179A 2.625 2.625 0 0 0 -266.722 277.641C -267.7516780528579 278.2173213524532 -268.8441020725793 278.8075273711013 -270.0005717814981 279.4077582712294 C -272.95186414716704 280.93950954836384 -276.31892124688056 282.5360263301974 -280.1220580013857 284.13519702424605 A 399 399 0 0 1 -284.135 280.122C -282.5360263301974 276.31892124688056 -280.93950954836384 272.95186414716704 -279.4077582712294 270.0005717814981 C -278.8075273711013 268.8441020725793 -278.2173213524532 267.7516780528579 -277.6408154629417 266.72191829235845 A 2.625 2.625 0 0 0 -278.179 263.623A 383.25 383.25 0 0 1 -278.806 262.959A 2.625 2.625 0 0 0 -281.87 262.249C -282.9302247713563 262.76667770378594 -284.0540233214433 263.29470251583064 -285.24232890459945 263.82914536792555 C -288.27486432060573 265.19300663408353 -291.72614182663494 266.59821940223804 -295.6129617595367 267.9816307262374 A 399 399 0 0 1 -299.395 263.75C -297.5848703910599 260.0422991127287 -295.8020728279972 256.7700564266577 -294.10725099609766 253.90929296898153 C -293.4431205964121 252.78829781585694 -292.7925903776505 251.73068549662526 -292.15925234822845 250.73487068177602 A 2.625 2.625 0 0 0 -292.522 247.611A 383.25 383.25 0 0 1 -293.112 246.913A 2.625 2.625 0 0 0 -296.131 246.032C -297.2185683286225 246.48927287275492 -298.37020552307126 246.9534551167872 -299.58660813146935 247.42042836591133 C -302.69084511946426 248.6121084089696 -306.21548403592544 249.82159584419773 -310.17375777372996 250.98489507430983 A 399 399 0 0 1 -313.712 246.548C -311.69740235387394 242.9474876991836 -309.7339333502871 239.7803551128587 -307.88137350012926 237.01912158339366 C -307.15543320082827 235.9371280515433 -306.44662559069445 234.91765507243642 -305.7584481371149 233.95891840506096 A 2.625 2.625 0 0 0 -305.946 230.82A 383.25 383.25 0 0 1 -306.495 230.09A 2.625 2.625 0 0 0 -309.46 229.04C -310.5717523096475 229.43632159701852 -311.7476046717794 229.83520078396774 -312.98827705278796 230.23323515951589 C -316.1544485347501 231.24898451317972 -319.7413590436213 232.25894112054303 -323.7586323927291 233.1984680870106 A 399 399 0 0 1 -327.043 228.57C -324.8292189719507 225.08827360742342 -322.6912563277386 222.03621609168738 -320.6867872979921 219.38320035267523 C -319.90132117582937 218.34361279404928 -319.1364663452983 217.36548679422825 -318.3956147284314 216.44684481458052 A 2.625 2.625 0 0 0 -318.407 213.302A 383.25 383.25 0 0 1 -318.914 212.542A 2.625 2.625 0 0 0 -321.816 211.329C -322.9477626574245 211.66147877027439 -324.144130520685 211.99379987864737 -325.4051690599886 212.32164301721554 C -328.62331308906516 213.15826575822723 -332.26120944285634 213.965513840591 -336.3248425750633 214.67831244398607 A 399 399 0 0 1 -339.344 209.873C -336.9390026919053 206.52084853225367 -334.6332732285165 203.59346898920353 -332.4832018203312 201.05701840968044 C -331.6406812423215 200.06310775134872 -330.82218570765906 199.12940627708068 -330.03099092078014 198.25374937269345 A 2.625 2.625 0 0 0 -329.866 195.113A 383.25 383.25 0 0 1 -330.33 194.326A 2.625 2.625 0 0 0 -333.159 192.952C -334.30765986471675 193.22067062411398 -335.52077901319444 193.4853880487568 -336.7982160170092 193.74200843454076 C -340.0582071214861 194.39687223823654 -343.7356431523762 194.9988718944806 -347.8328503744489 195.48269940668678 A 399 399 0 0 1 -350.578 190.515C -347.9886516539663 187.3036324622464 -345.5224100493305 184.51014151095075 -343.23350118280626 182.0982367028363 C -342.3365770303906 181.1531301554414 -341.46701608136306 180.26679097700068 -340.62796751598546 179.43687428845706 A 2.625 2.625 0 0 0 -340.287 176.311A 383.25 383.25 0 0 1 -340.706 175.499A 2.625 2.625 0 0 0 -343.453 173.968C -344.6157014921529 174.17191876340706 -345.84175500419576 174.36819960536576 -347.1315711831016 174.55278981569145 C -350.42315222488344 175.02383423826862 -354.1285573585991 175.418691354756 -358.2464473407962 175.67202547542095 A 399 399 0 0 1 -360.709 170.559C -357.9433995745227 167.4970898688432 -355.3244055371496 164.84627686532687 -352.90386096639526 162.56650657346617 C -351.95535529478707 161.67317779186203 -351.03746489184664 160.8369896602179 -350.1532025051752 160.0554244124596 A 2.625 2.625 0 0 0 -349.637 156.953A 383.25 383.25 0 0 1 -350.011 156.119A 2.625 2.625 0 0 0 -352.667 154.437C -353.8394546271649 154.5751576088668 -355.074584884828 154.70238429599564 -356.3727219999399 154.81436354176958 C -359.68553644730173 155.10010650320504 -363.40725210842436 155.28657871336424 -367.53286844538934 155.30862235961973 A 399 399 0 0 1 -369.705 150.065C -366.7719251337146 147.16353946275774 -364.00841898778015 144.66374484543616 -361.4638546415305 142.52328207060123 C -360.466751800486 141.68454179763452 -359.5034199664271 140.901135670009 -358.57672597507576 140.17038095645674 A 2.625 2.625 0 0 0 -357.888 137.102A 383.25 383.25 0 0 1 -358.214 136.248A 2.625 2.625 0 0 0 -360.772 134.419C -361.94989792993005 134.4920458211887 -363.19021875646854 134.5498180512607 -364.492592388158 134.58883400434732 C -367.816216901225 134.6883764515697 -371.5425331953826 134.66587704483948 -375.66289517178825 134.45656085921902 A 399 399 0 0 1 -377.537 129.1C -374.4464505238926 126.3669581162568 -371.5471272821308 124.026047163831 -368.88654930121737 122.03162659380634 C -367.843986545167 121.25011381667989 -366.838244278338 120.5219545785828 -365.8720344044474 119.84430962391865 A 2.625 2.625 0 0 0 -365.012 116.819A 383.25 383.25 0 0 1 -365.29 115.949A 2.625 2.625 0 0 0 -367.741 113.979C -368.9215129452428 113.98577230009259 -370.16312183246185 113.97390830029823 -371.46563423145176 113.93983820207467 C -374.7896114578832 113.85286693771778 -378.50880401540996 113.62146670555569 -382.6109474480915 113.18144927421879 A 399 399 0 0 1 -384.182 107.728C -380.94282884887855 105.17277956825043 -377.91681085485425 102.99811765263038 -375.1485904019239 101.1560144723939 C -374.0638480190093 100.43418811943639 -373.01885975667034 99.76356682922376 -372.01617405396695 99.14116375517958 A 2.625 2.625 0 0 0 -370.988 96.1691A 383.25 383.25 0 0 1 -371.216 95.2845A 2.625 2.625 0 0 0 -373.554 93.1806C -374.73236439301587 93.12085736866632 -375.97135478000536 93.0393944675382 -377.2699077604052 92.93234551513815 C -380.5837792380937 92.65913418297599 -384.284146103235 92.21956119612224 -388.3551641313062 91.55022697669867 A 399 399 0 0 1 -389.618 86.0171C -386.24062009903344 83.64768854554154 -383.0974283248746 81.64611795766122 -380.2302752456153 79.96212810533045 C -379.1067662366891 79.30225930929832 -378.025819898522 78.69128598965514 -376.98981318718455 78.12608310656883 A 2.625 2.625 0 0 0 -375.797 75.2163A 383.25 383.25 0 0 1 -375.975 74.3203A 2.625 2.625 0 0 0 -378.191 72.0887C -379.36416918478653 71.96294976855917 -380.59664274940667 71.81214427852262 -381.8871505831218 71.63245328755465 C -385.1804896463841 71.17386151151663 -388.8503880959783 70.52749882921422 -392.87747179059136 69.63095379478808 A 399 399 0 0 1 -393.828 64.0357C -390.32315546309025 61.85941094800425 -387.07267955298744 60.03722936944291 -384.11561497173096 58.51665130010955 C -382.9568743117935 57.92081625236304 -381.8433709548898 57.37141325139128 -380.77730289531763 56.865188896637946 A 2.625 2.625 0 0 0 -379.423 54.0269A 383.25 383.25 0 0 1 -379.551 53.1223A 2.625 2.625 0 0 0 -381.638 50.7699C -382.8023539490772 50.57862010475298 -384.02443287352236 50.35894651567233 -385.3028351454661 50.10717886047327 C -388.565279731191 49.46464953994944 -392.19316290698407 48.613530858328055 -396.1636415729582 47.49259587126737 A 399 399 0 0 1 -396.799 41.8528C -393.1775897744011 39.876500757846735 -389.83005692812765 38.239441445992775 -386.79238486405524 36.88705946082264 C -385.6020583799155 36.357132878859716 -384.45950149779253 35.871028821659955 -383.3667263345083 35.42537576434463 A 2.625 2.625 0 0 0 -381.855 32.6675A 383.25 383.25 0 0 1 -381.932 31.7572A 2.625 2.625 0 0 0 -383.884 29.2915C -385.0361008846136 29.035151389810075 -386.2439400564618 28.74730087606796 -387.50621444012324 28.424248710826127 C -390.7274996906559 27.599803480771808 -394.3019529299893 26.546606734087405 -398.2033339725057 25.204808670567466 A 399 399 0 0 1 -398.522 19.5383C -394.79494192658365 17.768124343420666 -391.36088472094184 16.321338092522804 -388.2521628141974 15.141407285574374 C -387.0339957133529 14.679056514475839 -385.8659802126672 14.25778086425322 -384.74993622062243 13.874101293769964 A 2.625 2.625 0 0 0 -383.086 11.2053A 383.25 383.25 0 0 1 -383.112 10.2921A 2.625 2.625 0 0 0 -384.923 7.72083C -386.05838179712964 7.400327346623423 -387.24818090748886 7.045205592430513 -388.49035582066045 6.651885358775555 C -391.660346380842 5.648118228899852 -395.17012313140435 4.396157163762765 -398.99013136233134 2.837717816908884 A 399 399 0 0 1 -398.99 -2.83772C -395.17012313140435 -4.396157163762669 -391.660346380842 -5.648118228899756 -388.49035582066045 -6.651885358775459 C -387.24818090748886 -7.045205592430419 -386.05838179712964 -7.400327346623329 -384.92258046361985 -7.720826232397998 A 2.625 2.625 0 0 0 -383.112 -10.2921A 383.25 383.25 0 0 1 -383.086 -11.2053A 2.625 2.625 0 0 0 -384.75 -13.8741C -385.8659802126672 -14.257780864253125 -387.0339957133529 -14.679056514475747 -388.2521628141974 -15.141407285574282 C -391.36088472094184 -16.32133809252271 -394.79494192658365 -17.768124343420574 -398.52155818675976 -19.53830154685617 A 399 399 0 0 1 -398.203 -25.2048C -394.3019529299893 -26.546606734087305 -390.7274996906559 -27.599803480771712 -387.50621444012324 -28.424248710826035 C -386.2439400564618 -28.747300876067868 -385.0361008846136 -29.03515138980998 -383.88411586084 -29.29146118280825 A 2.625 2.625 0 0 0 -381.932 -31.7572A 383.25 383.25 0 0 1 -381.855 -32.6675A 2.625 2.625 0 0 0 -383.367 -35.4254C -384.45950149779253 -35.87102882165986 -385.6020583799155 -36.357132878859616 -386.79238486405524 -36.88705946082254 C -389.83005692812765 -38.239441445992675 -393.1775897744011 -39.876500757846635 -396.79908875035665 -41.85284618547945 A 399 399 0 0 1 -396.164 -47.4926C -392.19316290698407 -48.613530858327955 -388.565279731191 -49.46464953994934 -385.3028351454661 -50.10717886047317 C -384.02443287352236 -50.35894651567223 -382.8023539490772 -50.578620104752886 -381.637809806118 -50.76993435954049 A 2.625 2.625 0 0 0 -379.551 -53.1223A 383.25 383.25 0 0 1 -379.423 -54.0269A 2.625 2.625 0 0 0 -380.777 -56.8652C -381.8433709548898 -57.371413251391196 -382.9568743117935 -57.920816252362954 -384.11561497173096 -58.516651300109466 C -387.07267955298744 -60.03722936944283 -390.32315546309025 -61.85941094800417 -393.8281425792213 -64.03570628594149 A 399 399 0 0 1 -392.877 -69.631C -388.8503880959783 -70.52749882921414 -385.1804896463841 -71.17386151151655 -381.8871505831218 -71.63245328755457 C -380.59664274940667 -71.81214427852254 -379.36416918478653 -71.96294976855908 -378.1907300093554 -72.08866653971101 A 2.625 2.625 0 0 0 -375.975 -74.3203A 383.25 383.25 0 0 1 -375.797 -75.2163A 2.625 2.625 0 0 0 -376.99 -78.1261C -378.025819898522 -78.69128598965506 -379.1067662366891 -79.30225930929824 -380.2302752456153 -79.96212810533036 C -383.0974283248746 -81.64611795766113 -386.24062009903344 -83.64768854554146 -389.6180673691523 -86.01708636349841 A 399 399 0 0 1 -388.355 -91.5502C -384.284146103235 -92.21956119612216 -380.5837792380937 -92.6591341829759 -377.2699077604052 -92.93234551513807 C -375.97135478000536 -93.03939446753812 -374.73236439301587 -93.12085736866624 -373.5537222588893 -93.1805811047097 A 2.625 2.625 0 0 0 -371.216 -95.2845A 383.25 383.25 0 0 1 -370.988 -96.1691A 2.625 2.625 0 0 0 -372.016 -99.1412C -373.0188597566704 -99.76356682922368 -374.06384801900936 -100.4341881194363 -375.14859040192397 -101.15601447239382 C -377.9168108548543 -102.9981176526303 -380.9428288488786 -105.17277956825035 -384.18210957433826 -107.72782486409885 A 399 399 0 0 1 -382.611 -113.181C -378.50880401541 -113.6214667055556 -374.78961145788327 -113.85286693771769 -371.4656342314518 -113.93983820207458 C -370.1631218324619 -113.97390830029815 -368.92151294524285 -113.9857723000925 -367.7413762966304 -113.97931508805829 A 2.625 2.625 0 0 0 -365.29 -115.949A 383.25 383.25 0 0 1 -365.012 -116.819A 2.625 2.625 0 0 0 -365.872 -119.844C -366.8382442783379 -120.52195457858274 -367.843986545167 -121.25011381667981 -368.88654930121737 -122.03162659380628 C -371.5471272821308 -124.02604716383094 -374.4464505238926 -126.36695811625671 -377.53737272911246 -129.09961177222033 A 399 399 0 0 1 -375.663 -134.457C -371.5425331953826 -134.6658770448394 -367.816216901225 -134.68837645156964 -364.492592388158 -134.58883400434726 C -363.19021875646854 -134.54981805126062 -361.9498979299301 -134.49204582118864 -360.77197991333685 -134.41942797785472 A 2.625 2.625 0 0 0 -358.214 -136.248A 383.25 383.25 0 0 1 -357.888 -137.102A 2.625 2.625 0 0 0 -358.577 -140.17C -359.5034199664271 -140.90113567000893 -360.466751800486 -141.68454179763447 -361.4638546415305 -142.52328207060117 C -364.00841898778015 -144.6637448454361 -366.7719251337146 -147.16353946275768 -369.7047636339058 -150.06520353945027 A 399 399 0 0 1 -367.533 -155.309C -363.40725210842436 -155.28657871336418 -359.68553644730173 -155.10010650320498 -356.3727219999399 -154.81436354176952 C -355.074584884828 -154.70238429599559 -353.8394546271649 -154.5751576088667 -352.66746140845873 -154.43660761683424 A 2.625 2.625 0 0 0 -350.011 -156.119A 383.25 383.25 0 0 1 -349.637 -156.953A 2.625 2.625 0 0 0 -350.153 -160.055C -351.0374648918467 -160.83698966021782 -351.95535529478707 -161.67317779186195 -352.90386096639526 -162.56650657346609 C -355.32440553714963 -164.8462768653268 -357.94339957452274 -167.49708986884312 -360.7089265747181 -170.5586346575671 A 399 399 0 0 1 -358.246 -175.672C -354.12855735859915 -175.4186913547559 -350.4231522248835 -175.02383423826853 -347.1315711831016 -174.55278981569137 C -345.84175500419576 -174.36819960536567 -344.61570149215294 -174.17191876340698 -343.4533205955956 -173.96787255220943 A 2.625 2.625 0 0 0 -340.706 -175.499A 383.25 383.25 0 0 1 -340.287 -176.311A 2.625 2.625 0 0 0 -340.628 -179.437C -341.4670160813631 -180.26679097700062 -342.33657703039063 -181.15313015544135 -343.2335011828063 -182.0982367028362 C -345.5224100493305 -184.5101415109507 -347.9886516539664 -187.30363246224636 -350.57816578307666 -190.5154252104339 A 399 399 0 0 1 -347.833 -195.483C -343.73564315237627 -194.99887189448054 -340.0582071214861 -194.39687223823648 -336.7982160170093 -193.74200843454068 C -335.5207790131945 -193.48538804875673 -334.3076598647168 -193.22067062411392 -333.15854857064846 -192.95177019862155 A 2.625 2.625 0 0 0 -330.33 -194.326A 383.25 383.25 0 0 1 -329.866 -195.113A 2.625 2.625 0 0 0 -330.031 -198.254C -330.8221857076591 -199.1294062770806 -331.6406812423215 -200.06310775134864 -332.4832018203312 -201.05701840968035 C -334.63327322851654 -203.59346898920344 -336.9390026919053 -206.52084853225358 -339.3443563804525 -209.87278375167006 A 399 399 0 0 1 -336.325 -214.678C -332.26120944285634 -213.96551384059092 -328.6233130890652 -213.15826575822715 -325.4051690599886 -212.32164301721545 C -324.144130520685 -211.99379987864728 -322.94776265742456 -211.6614787702743 -321.81553649510647 -211.3285701907093 A 2.625 2.625 0 0 0 -318.914 -212.542A 383.25 383.25 0 0 1 -318.407 -213.302A 2.625 2.625 0 0 0 -318.396 -216.447C -319.13646634529835 -217.36548679422816 -319.9013211758294 -218.3436127940492 -320.6867872979921 -219.38320035267515 C -322.6912563277386 -222.0362160916873 -324.8292189719507 -225.08827360742333 -327.04284408733554 -228.56980486977184 A 399 399 0 0 1 -323.759 -233.198C -319.7413590436213 -232.25894112054294 -316.1544485347501 -231.24898451317964 -312.98827705278796 -230.2332351595158 C -311.74760467177947 -229.83520078396765 -310.57175230964754 -229.43632159701843 -309.45997368146976 -229.04045231693644 A 2.625 2.625 0 0 0 -306.495 -230.09A 383.25 383.25 0 0 1 -305.946 -230.82A 2.625 2.625 0 0 0 -305.758 -233.959C -306.44662559069457 -234.91765507243633 -307.1554332008284 -235.9371280515432 -307.88137350012937 -237.01912158339357 C -309.7339333502872 -239.78035511285862 -311.69740235387405 -242.9474876991835 -313.71233401252096 -246.5476608190702 A 399 399 0 0 1 -310.174 -250.985C -306.21548403592556 -249.82159584419765 -302.69084511946437 -248.6121084089695 -299.58660813146946 -247.42042836591125 C -298.3702055230714 -246.95345511678715 -297.2185683286226 -246.48927287275484 -296.1307353014679 -246.0316884433685 A 2.625 2.625 0 0 0 -293.112 -246.913A 383.25 383.25 0 0 1 -292.522 -247.611A 2.625 2.625 0 0 0 -292.159 -250.735C -292.7925903776506 -251.73068549662514 -293.4431205964122 -252.78829781585682 -294.1072509960977 -253.90929296898142 C -295.8020728279973 -256.7700564266576 -297.58487039105995 -260.0422991127286 -299.39476887251806 -263.7497866135825 A 399 399 0 0 1 -295.613 -267.982C -291.726141826635 -266.59821940223793 -288.2748643206059 -265.1930066340835 -285.2423289045995 -263.82914536792543 C -284.0540233214434 -263.2947025158305 -282.93022477135634 -262.76667770378583 -281.86976007038754 -262.2488178549999 A 2.625 2.625 0 0 0 -278.806 -262.959A 383.25 383.25 0 0 1 -278.179 -263.623A 2.625 2.625 0 0 0 -277.641 -266.722C -278.21732135245327 -267.7516780528579 -278.8075273711013 -268.8441020725793 -279.40775827122945 -270.0005717814981 C -280.9395095483639 -272.95186414716704 -282.53602633019744 -276.31892124688056 -284.1351970242461 -280.1220580013857 A 399 399 0 0 1 -280.122 -284.135C -276.3189212468806 -282.5360263301974 -272.9518641471671 -280.93950954836384 -270.00057178149814 -279.4077582712294 C -268.8441020725794 -278.8075273711013 -267.751678052858 -278.2173213524532 -266.7219182923585 -277.6408154629417 A 2.625 2.625 0 0 0 -263.623 -278.179A 383.25 383.25 0 0 1 -262.959 -278.806A 2.625 2.625 0 0 0 -262.249 -281.87C -262.76667770378594 -282.9302247713563 -263.2947025158307 -284.0540233214433 -263.82914536792555 -285.24232890459945 C -265.1930066340836 -288.27486432060573 -266.5982194022381 -291.72614182663494 -267.9816307262375 -295.6129617595367 A 399 399 0 0 1 -263.75 -299.395C -260.04229911272876 -297.5848703910599 -256.77005642665773 -295.8020728279972 -253.90929296898153 -294.10725099609766 C -252.788297815857 -293.4431205964121 -251.73068549662526 -292.7925903776505 -250.73487068177602 -292.15925234822845 A 2.625 2.625 0 0 0 -247.611 -292.522A 383.25 383.25 0 0 1 -246.913 -293.112A 2.625 2.625 0 0 0 -246.032 -296.131C -246.48927287275498 -297.2185683286225 -246.95345511678727 -298.37020552307126 -247.4204283659114 -299.58660813146935 C -248.61210840896962 -302.69084511946426 -249.82159584419776 -306.21548403592544 -250.9848950743099 -310.17375777372996 A 399 399 0 0 1 -246.548 -313.712C -242.94748769918363 -311.69740235387394 -239.78035511285873 -309.7339333502871 -237.0191215833937 -307.88137350012926 C -235.9371280515433 -307.15543320082827 -234.91765507243647 -306.44662559069445 -233.958918405061 -305.7584481371149 A 2.625 2.625 0 0 0 -230.82 -305.946A 383.25 383.25 0 0 1 -230.09 -306.495A 2.625 2.625 0 0 0 -229.04 -309.46C -229.4363215970187 -310.5717523096473 -229.8352007839679 -311.74760467177924 -230.23323515951606 -312.9882770527878 C -231.2489845131799 -316.1544485347499 -232.2589411205432 -319.7413590436211 -233.1984680870108 -323.75863239272894 A 399 399 0 0 1 -228.57 -327.043C -225.0882736074236 -324.8292189719505 -222.03621609168755 -322.6912563277384 -219.3832003526754 -320.68678729799194 C -218.34361279404945 -319.9013211758292 -217.36548679422842 -319.1364663452981 -216.4468448145807 -318.3956147284312 A 2.625 2.625 0 0 0 -213.302 -318.407A 383.25 383.25 0 0 1 -212.542 -318.914A 2.625 2.625 0 0 0 -211.329 -321.816C -211.66147877027444 -322.94776265742445 -211.99379987864742 -324.14413052068494 -212.3216430172156 -325.40516905998857 C -213.1582657582273 -328.6233130890651 -213.96551384059106 -332.2612094428563 -214.6783124439861 -336.3248425750633 A 399 399 0 0 1 -209.873 -339.344C -206.52084853225372 -336.9390026919052 -203.5934689892036 -334.63327322851643 -201.0570184096805 -332.48320182033115 C -200.06310775134878 -331.6406812423214 -199.12940627708073 -330.822185707659 -198.2537493726935 -330.0309909207801 A 2.625 2.625 0 0 0 -195.113 -329.866A 383.25 383.25 0 0 1 -194.326 -330.33A 2.625 2.625 0 0 0 -192.952 -333.159C -193.2206706241139 -334.3076598647168 -193.4853880487567 -335.5207790131945 -193.74200843454065 -336.7982160170093 C -194.39687223823643 -340.0582071214861 -194.9988718944805 -343.73564315237627 -195.48269940668666 -347.832850374449 A 399 399 0 0 1 -190.515 -350.578C -187.3036324622463 -347.9886516539664 -184.51014151095063 -345.5224100493305 -182.09823670283618 -343.2335011828063 C -181.15313015544132 -342.33657703039063 -180.2667909770006 -341.4670160813631 -179.43687428845695 -340.62796751598546 A 2.625 2.625 0 0 0 -176.311 -340.287A 383.25 383.25 0 0 1 -175.499 -340.706A 2.625 2.625 0 0 0 -173.968 -343.453C -174.1719187634071 -344.6157014921529 -174.3681996053658 -345.84175500419576 -174.55278981569148 -347.1315711831016 C -175.02383423826862 -350.42315222488344 -175.41869135475602 -354.1285573585991 -175.67202547542098 -358.2464473407962 A 399 399 0 0 1 -170.559 -360.709C -167.49708986884323 -357.9433995745227 -164.84627686532687 -355.3244055371496 -162.5665065734662 -352.90386096639526 C -161.67317779186206 -351.95535529478707 -160.83698966021794 -351.03746489184664 -160.05542441245962 -350.1532025051752 A 2.625 2.625 0 0 0 -156.953 -349.637A 383.25 383.25 0 0 1 -156.119 -350.011A 2.625 2.625 0 0 0 -154.437 -352.667C -154.57515760886696 -353.8394546271648 -154.70238429599584 -355.07458488482786 -154.81436354176978 -356.37272199993987 C -155.1001065032052 -359.6855364473016 -155.28657871336443 -363.40725210842425 -155.30862235961993 -367.5328684453892 A 399 399 0 0 1 -150.065 -369.705C -147.16353946275794 -366.7719251337145 -144.66374484543638 -364.00841898778003 -142.52328207060143 -361.4638546415304 C -141.68454179763472 -360.46675180048595 -140.90113567000918 -359.503419966427 -140.1703809564569 -358.5767259750757 A 2.625 2.625 0 0 0 -137.102 -357.888A 383.25 383.25 0 0 1 -136.248 -358.214A 2.625 2.625 0 0 0 -134.419 -360.772C -134.49204582118873 -361.94989792993 -134.5498180512607 -363.1902187564685 -134.58883400434735 -364.49259238815796 C -134.68837645156972 -367.816216901225 -134.6658770448395 -371.54253319538253 -134.45656085921905 -375.6628951717882 A 399 399 0 0 1 -129.1 -377.537C -126.36695811625682 -374.44645052389257 -124.02604716383102 -371.5471272821308 -122.03162659380637 -368.8865493012173 C -121.2501138166799 -367.84398654516696 -120.52195457858282 -366.8382442783379 -119.84430962391866 -365.87203440444733 A 2.625 2.625 0 0 0 -116.819 -365.012A 383.25 383.25 0 0 1 -115.949 -365.29A 2.625 2.625 0 0 0 -113.979 -367.741C -113.98577230009246 -368.92151294524285 -113.9739083002981 -370.1631218324619 -113.93983820207454 -371.4656342314518 C -113.85286693771765 -374.78961145788327 -113.62146670555556 -378.50880401541 -113.18144927421866 -382.61094744809157 A 399 399 0 0 1 -107.728 -384.182C -105.1727795682503 -380.9428288488786 -102.99811765263026 -377.9168108548543 -101.15601447239378 -375.14859040192397 C -100.43418811943626 -374.06384801900936 -99.76356682922363 -373.0188597566704 -99.14116375517945 -372.016174053967 A 2.625 2.625 0 0 0 -96.1691 -370.988A 383.25 383.25 0 0 1 -95.2845 -371.216A 2.625 2.625 0 0 0 -93.1806 -373.554C -93.12085736866634 -374.7323643930158 -93.03939446753823 -375.9713547800053 -92.9323455151382 -377.26990776040515 C -92.65913418297602 -380.58377923809365 -92.21956119612229 -384.28414610323495 -91.5502269766987 -388.35516413130614 A 399 399 0 0 1 -86.0171 -389.618C -83.64768854554158 -386.2406200990334 -81.64611795766125 -383.09742832487456 -79.96212810533049 -380.23027524561525 C -79.30225930929835 -379.10676623668905 -78.69128598965519 -378.02581989852195 -78.12608310656886 -376.9898131871845 A 2.625 2.625 0 0 0 -75.2163 -375.797A 383.25 383.25 0 0 1 -74.3203 -375.975A 2.625 2.625 0 0 0 -72.0887 -378.191C -71.96294976855935 -379.3641691847865 -71.81214427852282 -380.59664274940667 -71.63245328755485 -381.88715058312175 C -71.17386151151683 -385.18048964638405 -70.52749882921442 -388.8503880959783 -69.63095379478828 -392.8774717905913 A 399 399 0 0 1 -64.0357 -393.828C -61.85941094800445 -390.32315546309025 -60.03722936944311 -387.0726795529874 -58.51665130010975 -384.1156149717309 C -57.92081625236324 -382.9568743117935 -57.37141325139148 -381.84337095488974 -56.86518889663813 -380.7773028953176 A 2.625 2.625 0 0 0 -54.0269 -379.423A 383.25 383.25 0 0 1 -53.1223 -379.551A 2.625 2.625 0 0 0 -50.7699 -381.638C -50.57862010475301 -382.8023539490772 -50.35894651567235 -384.02443287352236 -50.10717886047329 -385.3028351454661 C -49.46464953994946 -388.565279731191 -48.613530858328076 -392.19316290698407 -47.49259587126739 -396.1636415729582 A 399 399 0 0 1 -41.8528 -396.799C -39.876500757846756 -393.1775897744011 -38.239441445992796 -389.83005692812765 -36.88705946082266 -386.79238486405524 C -36.35713287885974 -385.6020583799155 -35.87102882165998 -384.45950149779253 -35.42537576434465 -383.3667263345083 A 2.625 2.625 0 0 0 -32.6675 -381.855A 383.25 383.25 0 0 1 -31.7572 -381.932A 2.625 2.625 0 0 0 -29.2915 -383.884C -29.035151389809926 -385.0361008846136 -28.747300876067815 -386.2439400564618 -28.42424871082598 -387.50621444012324 C -27.59980348077166 -390.7274996906559 -26.546606734087256 -394.3019529299893 -25.204808670567314 -398.2033339725057 A 399 399 0 0 1 -19.5383 -398.522C -17.768124343420517 -394.79494192658365 -16.321338092522655 -391.36088472094184 -15.141407285574228 -388.2521628141974 C -14.679056514475693 -387.0339957133529 -14.257780864253071 -385.8659802126672 -13.874101293769815 -384.74993622062243 A 2.625 2.625 0 0 0 -11.2053 -383.086A 383.25 383.25 0 0 1 -10.2921 -383.112A 2.625 2.625 0 0 0 -7.72083 -384.923C -7.400327346623447 -386.05838179712964 -7.045205592430537 -387.24818090748886 -6.651885358775578 -388.49035582066045 C -5.648118228899876 -391.660346380842 -4.39615716376279 -395.17012313140435 -2.8377178169089086 -398.99013136233134 A 399 399 0 0 1 2.83772 -398.99C 4.396157163762644 -395.17012313140435 5.648118228899732 -391.660346380842 6.651885358775436 -388.49035582066045 C 7.045205592430395 -387.24818090748886 7.400327346623305 -386.05838179712964 7.720826232397974 -384.92258046361985 A 2.625 2.625 0 0 0 10.2921 -383.112A 383.25 383.25 0 0 1 11.2053 -383.086A 2.625 2.625 0 0 0 13.8741 -384.75C 14.257780864252933 -385.8659802126672 14.679056514475551 -387.0339957133529 15.141407285574086 -388.2521628141974 C 16.321338092522513 -391.36088472094184 17.768124343420375 -394.79494192658365 19.538301546855973 -398.52155818675976 A 399 399 0 0 1 25.2048 -398.203C 26.546606734087113 -394.3019529299893 27.599803480771516 -390.7274996906559 28.42424871082584 -387.50621444012324 C 28.747300876067673 -386.2439400564618 29.035151389809787 -385.0361008846136 29.291461182808057 -383.88411586084 A 2.625 2.625 0 0 0 31.7572 -381.932A 383.25 383.25 0 0 1 32.6675 -381.855A 2.625 2.625 0 0 0 35.4254 -383.367C 35.87102882165984 -384.45950149779253 36.357132878859595 -385.6020583799155 36.88705946082252 -386.79238486405524 C 38.239441445992654 -389.83005692812765 39.876500757846614 -393.1775897744011 41.85284618547943 -396.79908875035665 A 399 399 0 0 1 47.4926 -396.164C 48.613530858327934 -392.19316290698407 49.46464953994932 -388.565279731191 50.10717886047315 -385.3028351454661 C 50.35894651567221 -384.02443287352236 50.578620104752865 -382.8023539490772 50.76993435954047 -381.637809806118 A 2.625 2.625 0 0 0 53.1223 -379.551A 383.25 383.25 0 0 1 54.0269 -379.423A 2.625 2.625 0 0 0 56.8652 -380.777C 57.37141325139134 -381.8433709548898 57.920816252363096 -382.9568743117935 58.51665130010961 -384.11561497173096 C 60.03722936944297 -387.07267955298744 61.85941094800431 -390.32315546309025 64.03570628594163 -393.8281425792213 A 399 399 0 0 1 69.631 -392.877C 70.52749882921428 -388.8503880959783 71.17386151151669 -385.1804896463841 71.63245328755471 -381.8871505831218 C 71.81214427852268 -380.59664274940667 71.96294976855923 -379.36416918478653 72.08866653971116 -378.1907300093554 A 2.625 2.625 0 0 0 74.3203 -375.975A 383.25 383.25 0 0 1 75.2163 -375.797A 2.625 2.625 0 0 0 78.1261 -376.99C 78.69128598965503 -378.025819898522 79.30225930929821 -379.1067662366891 79.96212810533034 -380.2302752456153 C 81.64611795766109 -383.0974283248746 83.64768854554143 -386.24062009903344 86.01708636349836 -389.6180673691523 A 399 399 0 0 1 91.5502 -388.355C 92.21956119612213 -384.284146103235 92.65913418297586 -380.5837792380937 92.93234551513804 -377.2699077604052 C 93.03939446753809 -375.97135478000536 93.12085736866621 -374.73236439301587 93.18058110470967 -373.5537222588893 A 2.625 2.625 0 0 0 95.2845 -371.216A 383.25 383.25 0 0 1 96.1691 -370.988A 2.625 2.625 0 0 0 99.1412 -372.016C 99.7635668292235 -373.0188597566704 100.43418811943613 -374.06384801900936 101.15601447239364 -375.148590401924 C 102.99811765263013 -377.91681085485425 105.17277956825015 -380.94282884887866 107.72782486409868 -384.1821095743383 A 399 399 0 0 1 113.181 -382.611C 113.62146670555543 -378.5088040154101 113.85286693771752 -374.7896114578833 113.9398382020744 -371.4656342314519 C 113.97390830029798 -370.163121832462 113.98577230009234 -368.92151294524285 113.97931508805812 -367.74137629663045 A 2.625 2.625 0 0 0 115.949 -365.29A 383.25 383.25 0 0 1 116.819 -365.012A 2.625 2.625 0 0 0 119.844 -365.872C 120.52195457858271 -366.8382442783379 121.2501138166798 -367.843986545167 122.03162659380625 -368.88654930121737 C 124.02604716383091 -371.5471272821308 126.36695811625671 -374.4464505238926 129.09961177222033 -377.53737272911246 A 399 399 0 0 1 134.457 -375.663C 134.6658770448394 -371.5425331953826 134.6883764515696 -367.816216901225 134.58883400434723 -364.492592388158 C 134.54981805126062 -363.19021875646854 134.4920458211886 -361.9498979299301 134.4194279778547 -360.77197991333685 A 2.625 2.625 0 0 0 136.248 -358.214A 383.25 383.25 0 0 1 137.102 -357.888A 2.625 2.625 0 0 0 140.17 -358.577C 140.90113567000907 -359.50341996642703 141.68454179763458 -360.46675180048595 142.52328207060128 -361.4638546415305 C 144.66374484543624 -364.0084189877801 147.16353946275783 -366.77192513371455 150.0652035394504 -369.70476363390577 A 399 399 0 0 1 155.309 -367.533C 155.28657871336432 -363.4072521084243 155.10010650320507 -359.6855364473017 154.81436354176964 -356.3727219999399 C 154.7023842959957 -355.07458488482797 154.57515760886685 -353.83945462716486 154.43660761683438 -352.66746140845873 A 2.625 2.625 0 0 0 156.119 -350.011A 383.25 383.25 0 0 1 156.953 -349.637A 2.625 2.625 0 0 0 160.055 -350.153C 160.8369896602178 -351.0374648918467 161.67317779186192 -351.9553552947871 162.56650657346606 -352.9038609663953 C 164.84627686532676 -355.3244055371497 167.49708986884312 -357.9433995745228 170.55863465756707 -360.70892657471813 A 399 399 0 0 1 175.672 -358.246C 175.4186913547559 -354.1285573585992 175.0238342382685 -350.42315222488355 174.55278981569134 -347.13157118310164 C 174.36819960536565 -345.8417550041958 174.17191876340695 -344.61570149215294 173.9678725522094 -343.45332059559564 A 2.625 2.625 0 0 0 175.499 -340.706A 383.25 383.25 0 0 1 176.311 -340.287A 2.625 2.625 0 0 0 179.437 -340.628C 180.26679097700043 -341.46701608136317 181.15313015544115 -342.3365770303907 182.09823670283603 -343.2335011828064 C 184.5101415109505 -345.52241004933063 187.30363246224616 -347.98865165396643 190.5154252104337 -350.57816578307677 A 399 399 0 0 1 195.483 -347.833C 194.99887189448035 -343.7356431523763 194.39687223823628 -340.0582071214862 193.7420084345405 -336.79821601700934 C 193.48538804875653 -335.52077901319456 193.22067062411372 -334.30765986471687 192.95177019862138 -333.1585485706486 A 2.625 2.625 0 0 0 194.326 -330.33A 383.25 383.25 0 0 1 195.113 -329.866A 2.625 2.625 0 0 0 198.254 -330.031C 199.12940627708056 -330.8221857076591 200.0631077513486 -331.64068124232153 201.05701840968032 -332.48320182033126 C 203.59346898920342 -334.63327322851654 206.52084853225355 -336.93900269190533 209.87278375167 -339.34435638045255 A 399 399 0 0 1 214.678 -336.325C 213.9655138405909 -332.2612094428564 213.15826575822712 -328.6233130890652 212.32164301721542 -325.4051690599887 C 211.99379987864725 -324.14413052068505 211.66147877027427 -322.94776265742456 211.32857019070929 -321.8155364951065 A 2.625 2.625 0 0 0 212.542 -318.914A 383.25 383.25 0 0 1 213.302 -318.407A 2.625 2.625 0 0 0 216.447 -318.396C 217.36548679422827 -319.13646634529823 218.34361279404933 -319.9013211758293 219.3832003526753 -320.68678729799205 C 222.03621609168744 -322.69125632773853 225.08827360742347 -324.82921897195064 228.56980486977199 -327.0428440873354 A 399 399 0 0 1 233.198 -323.759C 232.25894112054308 -319.74135904362123 231.24898451317978 -316.15444853475003 230.23323515951594 -312.9882770527879 C 229.8352007839678 -311.74760467177936 229.43632159701855 -310.5717523096474 229.04045231693655 -309.45997368146965 A 2.625 2.625 0 0 0 230.09 -306.495A 383.25 383.25 0 0 1 230.82 -305.946A 2.625 2.625 0 0 0 233.959 -305.758C 234.91765507243633 -306.44662559069457 235.9371280515432 -307.1554332008284 237.01912158339357 -307.88137350012937 C 239.78035511285862 -309.7339333502872 242.9474876991835 -311.69740235387405 246.5476608190702 -313.71233401252096 A 399 399 0 0 1 250.985 -310.174C 249.82159584419765 -306.21548403592556 248.6121084089695 -302.69084511946437 247.42042836591125 -299.58660813146946 C 246.95345511678715 -298.3702055230714 246.48927287275484 -297.2185683286226 246.0316884433685 -296.1307353014679 A 2.625 2.625 0 0 0 246.913 -293.112A 383.25 383.25 0 0 1 247.611 -292.522A 2.625 2.625 0 0 0 250.735 -292.159C 251.73068549662503 -292.79259037765075 252.7882978158567 -293.44312059641226 253.9092929689813 -294.10725099609783 C 256.7700564266575 -295.8020728279974 260.0422991127285 -297.5848703910601 263.7497866135824 -299.39476887251817 A 399 399 0 0 1 267.982 -295.613C 266.5982194022378 -291.72614182663517 265.19300663408336 -288.274864320606 263.8291453679253 -285.2423289045996 C 263.2947025158304 -284.0540233214436 262.7666777037857 -282.9302247713565 262.2488178549998 -281.8697600703877 A 2.625 2.625 0 0 0 262.959 -278.806A 383.25 383.25 0 0 1 263.623 -278.179A 2.625 2.625 0 0 0 266.722 -277.641C 267.7516780528579 -278.21732135245327 268.8441020725793 -278.8075273711013 270.0005717814981 -279.40775827122945 C 272.95186414716704 -280.9395095483639 276.31892124688056 -282.53602633019744 280.1220580013857 -284.1351970242461 A 399 399 0 0 1 284.135 -280.122C 282.5360263301974 -276.3189212468806 280.93950954836384 -272.9518641471671 279.4077582712294 -270.00057178149814 C 278.8075273711013 -268.8441020725794 278.2173213524532 -267.751678052858 277.6408154629417 -266.7219182923585 A 2.625 2.625 0 0 0 278.179 -263.623A 383.25 383.25 0 0 1 278.806 -262.959A 2.625 2.625 0 0 0 281.87 -262.249C 282.93022477135634 -262.76667770378583 284.0540233214434 -263.2947025158305 285.2423289045995 -263.82914536792543 C 288.2748643206059 -265.1930066340835 291.726141826635 -266.59821940223793 295.6129617595368 -267.9816307262374 A 399 399 0 0 1 299.395 -263.75C 297.58487039105995 -260.0422991127286 295.8020728279973 -256.7700564266576 294.1072509960977 -253.90929296898142 C 293.4431205964122 -252.78829781585682 292.7925903776506 -251.73068549662514 292.1592523482285 -250.7348706817759 A 2.625 2.625 0 0 0 292.522 -247.611A 383.25 383.25 0 0 1 293.112 -246.913A 2.625 2.625 0 0 0 296.131 -246.032C 297.2185683286225 -246.48927287275498 298.37020552307126 -246.95345511678727 299.58660813146935 -247.4204283659114 C 302.69084511946426 -248.61210840896962 306.21548403592544 -249.82159584419776 310.17375777372996 -250.9848950743099 A 399 399 0 0 1 313.712 -246.548C 311.69740235387394 -242.94748769918363 309.7339333502871 -239.78035511285873 307.88137350012926 -237.0191215833937 C 307.15543320082827 -235.9371280515433 306.44662559069445 -234.91765507243647 305.7584481371149 -233.958918405061 A 2.625 2.625 0 0 0 305.946 -230.82A 383.25 383.25 0 0 1 306.495 -230.09A 2.625 2.625 0 0 0 309.46 -229.04C 310.5717523096473 -229.4363215970187 311.74760467177924 -229.8352007839679 312.9882770527878 -230.23323515951606 C 316.1544485347499 -231.2489845131799 319.7413590436211 -232.2589411205432 323.75863239272894 -233.1984680870108 A 399 399 0 0 1 327.043 -228.57C 324.8292189719505 -225.0882736074236 322.6912563277384 -222.03621609168755 320.68678729799194 -219.3832003526754 C 319.9013211758292 -218.34361279404945 319.1364663452981 -217.36548679422842 318.3956147284312 -216.4468448145807 A 2.625 2.625 0 0 0 318.407 -213.302A 383.25 383.25 0 0 1 318.914 -212.542A 2.625 2.625 0 0 0 321.816 -211.329C 322.94776265742445 -211.66147877027444 324.14413052068494 -211.99379987864742 325.40516905998857 -212.3216430172156 C 328.6233130890651 -213.1582657582273 332.2612094428563 -213.96551384059106 336.3248425750633 -214.6783124439861 A 399 399 0 0 1 339.344 -209.873C 336.9390026919052 -206.52084853225372 334.63327322851643 -203.5934689892036 332.48320182033115 -201.0570184096805 C 331.6406812423214 -200.06310775134878 330.822185707659 -199.12940627708073 330.0309909207801 -198.2537493726935 A 2.625 2.625 0 0 0 329.866 -195.113A 383.25 383.25 0 0 1 330.33 -194.326A 2.625 2.625 0 0 0 333.159 -192.952C 334.3076598647168 -193.2206706241139 335.5207790131945 -193.4853880487567 336.7982160170093 -193.74200843454065 C 340.0582071214861 -194.39687223823643 343.73564315237627 -194.9988718944805 347.832850374449 -195.48269940668666 A 399 399 0 0 1 350.578 -190.515C 347.9886516539664 -187.3036324622463 345.5224100493305 -184.51014151095063 343.2335011828063 -182.09823670283618 C 342.33657703039063 -181.15313015544132 341.4670160813631 -180.2667909770006 340.62796751598546 -179.43687428845695 A 2.625 2.625 0 0 0 340.287 -176.311A 383.25 383.25 0 0 1 340.706 -175.499A 2.625 2.625 0 0 0 343.453 -173.968C 344.6157014921529 -174.1719187634071 345.84175500419576 -174.3681996053658 347.1315711831016 -174.55278981569148 C 350.42315222488344 -175.02383423826862 354.1285573585991 -175.41869135475602 358.2464473407962 -175.67202547542098 A 399 399 0 0 1 360.709 -170.559C 357.9433995745227 -167.49708986884323 355.3244055371496 -164.84627686532687 352.90386096639526 -162.5665065734662 C 351.95535529478707 -161.67317779186206 351.03746489184664 -160.83698966021794 350.1532025051752 -160.05542441245962 A 2.625 2.625 0 0 0 349.637 -156.953A 383.25 383.25 0 0 1 350.011 -156.119A 2.625 2.625 0 0 0 352.667 -154.437C 353.8394546271648 -154.575157608867 355.07458488482786 -154.70238429599587 356.37272199993987 -154.81436354176978 C 359.6855364473016 -155.10010650320524 363.40725210842425 -155.28657871336446 367.5328684453892 -155.30862235961996 A 399 399 0 0 1 369.705 -150.065C 366.7719251337145 -147.16353946275797 364.00841898778003 -144.6637448454364 361.4638546415304 -142.52328207060143 C 360.46675180048595 -141.68454179763475 359.503419966427 -140.9011356700092 358.5767259750757 -140.17038095645694 A 2.625 2.625 0 0 0 357.888 -137.102A 383.25 383.25 0 0 1 358.214 -136.248A 2.625 2.625 0 0 0 360.772 -134.419C 361.94989792993 -134.49204582118875 363.1902187564685 -134.54981805126073 364.49259238815796 -134.58883400434738 C 367.816216901225 -134.68837645156975 371.54253319538253 -134.6658770448395 375.6628951717882 -134.45656085921905 A 399 399 0 0 1 377.537 -129.1C 374.44645052389257 -126.36695811625682 371.5471272821308 -124.02604716383105 368.8865493012173 -122.0316265938064 C 367.84398654516696 -121.25011381667993 366.8382442783379 -120.52195457858284 365.87203440444733 -119.84430962391869 A 2.625 2.625 0 0 0 365.012 -116.819A 383.25 383.25 0 0 1 365.29 -115.949A 2.625 2.625 0 0 0 367.741 -113.979C 368.92151294524285 -113.98577230009249 370.1631218324619 -113.97390830029812 371.4656342314518 -113.93983820207455 C 374.78961145788327 -113.85286693771766 378.50880401541 -113.62146670555558 382.61094744809157 -113.18144927421868 A 399 399 0 0 1 384.182 -107.728C 380.9428288488786 -105.17277956825032 377.9168108548543 -102.99811765263027 375.14859040192397 -101.15601447239379 C 374.06384801900936 -100.43418811943627 373.0188597566704 -99.76356682922366 372.016174053967 -99.14116375517946 A 2.625 2.625 0 0 0 370.988 -96.1691A 383.25 383.25 0 0 1 371.216 -95.2845A 2.625 2.625 0 0 0 373.554 -93.1806C 374.7323643930158 -93.12085736866636 375.9713547800053 -93.03939446753826 377.26990776040515 -92.93234551513821 C 380.58377923809365 -92.65913418297605 384.28414610323495 -92.2195611961223 388.35516413130614 -91.55022697669872 A 399 399 0 0 1 389.618 -86.0171C 386.2406200990334 -83.6476885455416 383.09742832487456 -81.64611795766127 380.23027524561525 -79.9621281053305 C 379.10676623668905 -79.30225930929838 378.02581989852195 -78.69128598965521 376.9898131871845 -78.12608310656888 A 2.625 2.625 0 0 0 375.797 -75.2163A 383.25 383.25 0 0 1 375.975 -74.3203A 2.625 2.625 0 0 0 378.191 -72.0887C 379.3641691847865 -71.96294976855938 380.59664274940667 -71.81214427852284 381.88715058312175 -71.63245328755487 C 385.18048964638405 -71.17386151151685 388.8503880959783 -70.52749882921445 392.8774717905913 -69.63095379478831 A 399 399 0 0 1 393.828 -64.0357C 390.32315546309025 -61.85941094800448 387.0726795529874 -60.037229369443125 384.1156149717309 -58.516651300109764 C 382.9568743117935 -57.92081625236325 381.84337095488974 -57.371413251391495 380.7773028953176 -56.86518889663816 A 2.625 2.625 0 0 0 379.423 -54.0269A 383.25 383.25 0 0 1 379.551 -53.1223A 2.625 2.625 0 0 0 381.638 -50.7699C 382.8023539490772 -50.57862010475303 384.02443287352236 -50.35894651567238 385.3028351454661 -50.10717886047331 C 388.565279731191 -49.46464953994949 392.19316290698407 -48.613530858328105 396.1636415729582 -47.49259587126742 A 399 399 0 0 1 396.799 -41.8528C 393.1775897744011 -39.876500757846784 389.83005692812765 -38.239441445992824 386.79238486405524 -36.887059460822684 C 385.6020583799155 -36.357132878859765 384.45950149779253 -35.871028821660005 383.3667263345083 -35.42537576434467 A 2.625 2.625 0 0 0 381.855 -32.6675A 383.25 383.25 0 0 1 381.932 -31.7572A 2.625 2.625 0 0 0 383.884 -29.2915C 385.0361008846136 -29.03515138980995 386.2439400564618 -28.747300876067836 387.50621444012324 -28.424248710826003 C 390.7274996906559 -27.599803480771683 394.3019529299893 -26.546606734087277 398.2033339725057 -25.20480867056734 A 399 399 0 0 1 398.522 -19.5383C 394.79494192658365 -17.768124343420546 391.36088472094184 -16.32133809252268 388.2521628141974 -15.14140728557425 C 387.0339957133529 -14.679056514475715 385.8659802126672 -14.257780864253096 384.74993622062243 -13.87410129376984 A 2.625 2.625 0 0 0 383.086 -11.2053A 383.25 383.25 0 0 1 383.112 -10.2921A 2.625 2.625 0 0 0 384.923 -7.72083" stroke="#191919" stroke-width="0.35 px" style="stroke-width:0.35;stroke-miterlimit:4;stroke-dasharray:none;fill:none;fill-rule: evenodd "/>
<title>b'InvoluteGear'</title>
</g>
</svg>