<?xml version="1.0"?>
<!DOCTYPE svg PUBLIC "-//W3C//DTD SVG 1.1//EN" "http://www.w3.org/Graphics/SVG/1.1/DTD/svg11.dtd">
<svg width="1099.5446414563046mm" height="1099.5446414563046mm" viewBox="0 0 1099.5446414563046 1099.5446414563046" xmlns="http://www.w3.org/2000/svg" version="1.1">
<g id="InvoluteGear" transform="translate(549.772321,549.772321) scale(1,-1)">
<path id="InvoluteGear_w0000"  d="M 524.9419308461404 -7.808280190029284 C 526.0895105000772 -7.4589517634508535 527.2733162846445 -7.084525084382903 528.4925123662505 -6.6832850478962245 C 531.7465573214846 -5.612361207253895 535.2521900876044 -4.350666924424887 538.99247130211 -2.8660721450204836 A 539 539 0 0 1 538.992 2.86607C 535.2521900876044 4.350666924424887 531.7465573214846 5.612361207253895 528.4925123662505 6.6832850478962245 C 527.2733162846445 7.084525084382903 526.0895105000772 7.4589517634508535 524.9419326806567 7.808279410079883 A 2.625 2.625 0 0 0 523.147 10.3937A 523.25 523.25 0 0 1 523.129 11.2342A 2.625 2.625 0 0 0 524.816 13.8916C 525.9483439377512 14.288055457519034 527.1156652932855 14.711083029299658 528.3172386526892 15.162363556527113 C 531.5242479671759 16.366845893440267 534.9747465921604 17.772332568296072 538.6504818617803 19.410226169934674 A 539 539 0 0 1 538.414 25.1375C 534.6151641949263 26.466233375686173 531.0603866024463 27.581979682970587 527.7648654876857 28.51751537192468 C 526.5301296599312 28.868029405798886 525.3318619586558 29.19321549045383 524.1708284919612 29.494821103034585 A 2.625 2.625 0 0 0 522.27 32.0039A 523.25 523.25 0 0 1 522.218 32.8429A 2.625 2.625 0 0 0 523.794 35.5678C 524.908603452382 36.0106517754162 526.0574460299285 36.481557504399234 527.2393437992013 36.98210751715674 C 530.3938383513231 38.318090512472814 533.7833077161521 39.86496832894791 537.3882171088376 41.65336243907733 A 539 539 0 0 1 536.915 47.3659C 533.0647572621777 48.536582711185645 529.4669081212245 49.50447480907567 526.1355411894807 50.30302399931018 C 524.8873751410272 50.60221318322478 523.676692743311 50.877603098495946 522.5041872355441 51.130971388898644 A 2.625 2.625 0 0 0 520.502 53.5593A 523.25 523.25 0 0 1 520.415 54.3955A 2.625 2.625 0 0 0 521.877 57.1831C 522.9720654231471 57.67172449881941 524.1004664444337 58.18970385046614 525.2606693710625 58.73866816745344 C 528.3572597597927 60.20386931663551 531.6799090129132 61.88949545992871 535.2078336014378 63.82533463721138 A 539 539 0 0 1 534.499 69.5135C 530.603618133596 70.52400810930489 526.9688443090743 71.34239237038729 523.6073231448677 72.00259075400605 C 522.3478593464716 72.2499439282591 521.1268306828824 72.47506717509582 519.9448563400351 72.67976526784646 A 2.625 2.625 0 0 0 517.844 75.0233A 523.25 523.25 0 0 1 517.722 75.8552A 2.625 2.625 0 0 0 519.068 78.7008C 520.1420383927853 79.23426604833664 521.2480700035953 79.79843406361367 522.384595900342 80.39487478850384 C 525.4179916529454 81.98679081996671 528.6681441038448 83.8082854260879 532.1130564882283 85.88826232176237 A 539 539 0 0 1 531.17 91.5422C 527.2359516240975 92.39094442258158 523.5704630661146 93.05842265107437 520.1845307719664 93.57914229021353 C 518.9159209964002 93.77423685605608 517.6866321739274 93.94870881516748 516.497208379337 94.10438698700831 A 2.625 2.625 0 0 0 514.301 96.3591A 523.25 523.25 0 0 1 514.145 97.1852A 2.625 2.625 0 0 0 515.372 100.084C 516.423357415005 100.66143718343355 517.5051299788848 101.27082999075047 518.6160371103194 101.9137281145701 C 521.5810557210368 103.62963926647777 524.7531585387727 105.58389034244723 528.1091731439934 107.80445135087803 A 539 539 0 0 1 526.933 113.415C 522.9675113354225 114.10003235713361 519.2775704696926 114.61546417768008 515.8730118541296 114.99581543157105 C 514.5974234999145 115.13831807320996 513.3619747378904 115.26184066218059 512.1671336021581 115.3682329395665 A 2.625 2.625 0 0 0 509.88 117.53A 523.25 523.25 0 0 1 509.69 118.349A 2.625 2.625 0 0 0 510.796 121.296C 511.8223757938774 121.91662994165812 512.8780411205479 122.57020640362597 513.9614315204717 123.25846354571485 C 516.8530073047434 125.095438212648 519.9416410048625 127.17910695328425 523.2030241362633 129.53645828323747 A 539 539 0 0 1 521.796 135.093C 517.805589826203 135.61418230038612 514.0975008547978 135.97668710636702 510.6801325491044 136.21602015127274 C 509.399744937546 136.30568740533525 508.1602469794565 136.3780495878939 506.9620298686197 136.43497420140363 A 2.625 2.625 0 0 0 504.587 138.501A 523.25 523.25 0 0 1 504.364 139.311A 2.625 2.625 0 0 0 505.347 142.301C 506.34695422932276 142.96353018273027 507.3747087322817 143.66017367492728 508.4287314463696 144.39261395950342 C 511.2419241954735 146.34751370105815 514.2418118991096 148.55704019327047 517.4029915383189 151.04715434954258 A 539 539 0 0 1 515.767 156.541C 511.75900615274793 156.89663768805232 508.0391042834735 157.10559614608755 504.6147648040752 157.20350208551554 C 503.3317654559299 157.24018075700215 502.0903359632442 157.26125890357378 500.89079001113714 157.26861859846005 A 2.625 2.625 0 0 0 498.433 159.234A 523.25 523.25 0 0 1 498.176 160.035A 2.625 2.625 0 0 0 499.034 163.063C 500.0064473872358 163.76617963064163 501.0045351651551 164.50469994934724 502.02738941328107 165.28007201447082 C 504.75739283459524 167.34955691723133 507.6634092839289 169.68116622207174 510.71898460856056 172.29978888639738 A 539 539 0 0 1 508.858 177.721C 504.8380908018346 177.91103780210722 501.11273142463466 177.96609291017637 497.6872711980901 177.92240447347143 C 496.40385209622235 177.90603189748725 495.1626120304042 177.87578999641195 493.9637866411641 177.8335721987595 A 2.625 2.625 0 0 0 491.426 179.696A 523.25 523.25 0 0 1 491.137 180.485A 2.625 2.625 0 0 0 491.87 183.546C 492.81168791719716 184.2890373077665 493.7784037538507 185.06817270340463 494.76834200668964 185.88515183890894 C 497.41049193516363 188.06568622263364 500.21767224983824 190.51539482471668 503.1624228607063 193.25805212420016 A 539 539 0 0 1 501.079 198.598C 497.0546680412445 198.62147989246404 493.3302158701236 198.52253758983852 489.909487237769 198.33732941796194 C 488.6278410821855 198.2679335667783 487.38891108106617 198.18642328583687 486.1928544277607 198.0947001240448 A 2.625 2.625 0 0 0 483.581 199.851A 523.25 523.25 0 0 1 483.259 200.627A 2.625 2.625 0 0 0 483.864 203.716C 484.7749679450718 204.4970402560263 485.70866022266887 205.3154595888432 486.66399118732176 206.17264999957973 C 489.2137735541238 208.46050845785163 491.9173217136611 211.02413107112346 494.7462165537438 213.8861372217757 A 539 539 0 0 1 492.444 219.135C 488.4220357182001 218.99258051622087 484.7048539172164 218.739809844165 481.2947011365388 218.41339836217162 C 480.0170175981973 218.29109779743627 478.782514352901 218.1584583955763 477.5912698782591 218.01738657712792 A 2.625 2.625 0 0 0 474.909 219.664A 523.25 523.25 0 0 1 474.555 220.427A 2.625 2.625 0 0 0 475.032 223.538C 475.91001807211956 224.35566344136518 476.8090915930663 225.21196845565936 477.7281831026052 226.1079056461904 C 480.1812416473332 228.49917941121143 482.77653868505354 231.17233612944105 485.48474463497024 234.14880144176263 A 539 539 0 0 1 482.967 239.299C 478.9549425402165 238.98953598967913 475.2513818521228 238.583368802646 471.85763111194393 238.11631167907737 C 470.58609309173704 237.94131534925356 469.35812573035014 237.75777343866824 468.173728655574 237.56759398239893 A 2.625 2.625 0 0 0 465.425 239.102A 523.25 523.25 0 0 1 465.041 239.849A 2.625 2.625 0 0 0 465.389 242.978C 466.2319839164922 243.83097873919147 467.09490262875966 244.72370645221014 467.976184430758 245.6568597288747 C 470.3283281440373 248.14746334953 472.8109400384868 250.92558712930548 475.3938301738012 254.0114263622393 A 539 539 0 0 1 472.666 259.053C 468.66956287718153 258.57818184985337 464.9859507732875 258.0193120776687 461.6144002398183 257.41240727178575 C 460.35118013912404 257.18501415516755 459.13184662328473 256.9508833141322 457.9563204709088 256.71192113845285 A 2.625 2.625 0 0 0 455.147 258.131A 523.25 523.25 0 0 1 454.732 258.862A 2.625 2.625 0 0 0 454.95 262.002C 455.7574002371995 262.88971290000944 456.5826898586429 263.81733810143015 457.4246562979251 264.7861131875083 C 459.6718665816779 267.37179150929086 462.03755183207977 270.2501359727363 464.49071332832256 273.4400770217167 A 539 539 0 0 1 461.557 278.364C 457.5834691277163 277.72505122388327 453.92609899751045 277.01443368617805 450.5825089082808 276.2687180846611 C 449.32976491745114 275.98931667857374 448.1211484580175 275.7049969157028 446.9565015947541 275.41766028348206 A 2.625 2.625 0 0 0 444.091 276.72A 523.25 523.25 0 0 1 443.646 277.433A 2.625 2.625 0 0 0 443.735 280.579C 444.5041626847506 281.4993043962081 445.2904132218955 282.4602422539347 446.0916258129237 283.4629840134427 C 448.2300633460763 286.1393194483135 450.4747802188636 289.1129669921963 452.79402189076933 292.40155989645086 A 539 539 0 0 1 449.659 297.2C 445.7156016970269 296.39743200662434 442.0907220960258 295.53628078154145 438.78080491861573 294.65302842698645 C 437.54067732974477 294.3220960840454 436.3448428276636 293.98807315488455 435.1930650331422 293.6528529759385 A 2.625 2.625 0 0 0 432.276 294.835A 523.25 523.25 0 0 1 431.802 295.53A 2.625 2.625 0 0 0 431.761 298.677C 432.4914972267353 299.62795905288465 433.2373653837281 300.62056782070664 433.99645526823053 301.65556308616885 C 436.02246656612897 304.41798315993185 438.14238000017883 307.481853357305 440.3237394622553 310.8634796110219 A 539 539 0 0 1 436.993 315.529C 433.0862366375401 314.5634227487311 429.50004061173604 313.55320909869306 426.2294512841207 312.5339290129317 C 425.0040588343914 312.1520311254937 423.8230493528499 311.7688757026141 422.6861084201118 311.38634469499544 A 2.625 2.625 0 0 0 419.723 312.447A 523.25 523.25 0 0 1 419.22 313.121A 2.625 2.625 0 0 0 419.049 316.264C 419.73992730058086 317.24470436765915 420.4441387741869 318.2672881901472 421.15980905982946 319.3327686895144 C 423.0699327161567 322.1765538538121 425.0614208749277 325.32541213383854 427.1011713111254 328.7942942852886 A 539 539 0 0 1 423.58 333.318C 419.7169510076073 332.1919871597479 416.17556551275334 331.03443701782993 412.9498917819362 329.88087062379066 C 411.7413280337933 329.44865965799016 410.5771613076798 329.0170263560046 409.45699968123677 328.58783806752297 A 2.625 2.625 0 0 0 406.452 329.526A 523.25 523.25 0 0 1 405.922 330.178A 2.625 2.625 0 0 0 405.621 333.311C 406.2712387496035 334.31944242667515 406.9325904063332 335.37025423652204 407.60361838243773 336.46439961423397 C 409.3945909829686 339.38469130981656 411.25425144234794 342.61315790094574 413.14890797326274 346.1633694231623 A 539 539 0 0 1 409.444 350.537C 405.63058600746274 349.25300713309065 402.1400614412716 347.9500981542927 398.96481431671225 346.6642163008092 C 397.77514408104645 346.182430681831 396.6298090696839 345.70305693899553 395.5283405268846 345.2279446306423 A 2.625 2.625 0 0 0 392.487 346.041A 523.25 523.25 0 0 1 391.931 346.671A 2.625 2.625 0 0 0 391.501 349.789C 392.10844260226094 350.8230013263807 392.7258045339025 351.9002458292363 393.3510437604282 353.021186756269 C 395.0198054585175 356.01299571376126 396.7444610198054 359.31555483497846 398.4907866565363 362.9410302511293 A 539 539 0 0 1 394.609 367.158C 390.85120795541616 365.7173342023267 387.417507820557 364.27129238478324 384.29811215870427 362.85529197943197 C 383.12936796715684 362.32475482992453 382.00482145619975 361.7984596482373 380.92392783757276 361.27823504142157 A 2.625 2.625 0 0 0 377.852 361.965A 523.25 523.25 0 0 1 377.27 362.571A 2.625 2.625 0 0 0 376.711 365.669C 377.2757357581954 366.72718501323646 377.84805321224474 367.82902175493797 378.42643547846114 368.9748431225209 C 379.97013522274057 372.0330578865054 381.55683934084095 375.4040671709511 383.15185051533143 379.0986124171037 A 539 539 0 0 1 379.099 383.152C 375.4040671709512 381.5568393408409 372.03305788650545 379.9701352227405 368.97484312252095 378.4264354784611 C 367.829021754938 377.8480532122447 366.7271850132365 377.27573575819537 365.66871300739774 376.7112876479312 A 2.625 2.625 0 0 0 362.571 377.27A 523.25 523.25 0 0 1 361.965 377.852A 2.625 2.625 0 0 0 361.278 380.924C 361.7984596482374 382.0048214561997 362.3247548299246 383.1293679671568 362.855291979432 384.2981121587042 C 364.2712923847833 387.4175078205569 365.71733420232675 390.8512079554161 367.158305864741 394.6085109629918 A 539 539 0 0 1 362.941 398.491C 359.3155548349785 396.7444610198053 356.0129957137613 395.01980545851745 353.02118675626906 393.3510437604281 C 351.9002458292364 392.7258045339024 350.82300132638073 392.1084426022609 349.7887593149967 391.50073533867635 A 2.625 2.625 0 0 0 346.671 391.931A 523.25 523.25 0 0 1 346.041 392.487A 2.625 2.625 0 0 0 345.228 395.528C 345.70305693899553 396.62980906968386 346.182430681831 397.7751440810464 346.6642163008092 398.9648143167122 C 347.9500981542927 402.14006144127154 349.25300713309065 405.6305860074627 350.5374774075151 409.4442274873003 A 539 539 0 0 1 346.163 413.149C 342.61315790094574 411.2542514423479 339.38469130981656 409.39459098296857 336.46439961423397 407.6036183824377 C 335.37025423652204 406.93259040633313 334.31944242667515 406.27123874960347 333.3111973948732 405.6213105903643 A 2.625 2.625 0 0 0 330.178 405.922A 523.25 523.25 0 0 1 329.526 406.452A 2.625 2.625 0 0 0 328.588 409.457C 329.0170263560046 410.57716130767966 329.44865965799016 411.74132803379325 329.88087062379066 412.9498917819361 C 331.03443701782993 416.1755655127533 332.1919871597479 419.7169510076072 333.3177615502652 423.58041541721076 A 539 539 0 0 1 328.794 427.101C 325.32541213383854 425.0614208749276 322.1765538538121 423.06993271615664 319.3327686895144 421.1598090598294 C 318.2672881901472 420.44413877418685 317.24470436765915 419.73992730058075 316.26417888516335 419.0488886370448 A 2.625 2.625 0 0 0 313.121 419.22A 523.25 523.25 0 0 1 312.447 419.723A 2.625 2.625 0 0 0 311.386 422.686C 311.76887570261414 423.82304935284986 312.15203112549375 425.00405883439134 312.53392901293176 426.22945128412067 C 313.5532090986931 429.5000406117359 314.56342274873117 433.08623663754 315.5285778886795 436.9929233127738 A 539 539 0 0 1 310.863 440.324C 307.48185335730506 438.1423800001788 304.4179831599319 436.02246656612886 301.6555630861689 433.9964552682305 C 300.6205678207067 433.23736538372805 299.6279590528847 432.49149722673525 298.6768283310339 431.76052868686725 A 2.625 2.625 0 0 0 295.53 431.802A 523.25 523.25 0 0 1 294.835 432.276A 2.625 2.625 0 0 0 293.653 435.193C 293.98807315488466 436.3448428276636 294.32209608404554 437.54067732974477 294.65302842698657 438.78080491861573 C 295.53628078154156 442.0907220960258 296.39743200662446 445.7156016970269 297.2003189446373 449.65883612923943 A 539 539 0 0 1 292.402 452.794C 289.1129669921964 450.4747802188636 286.1393194483136 448.2300633460763 283.4629840134428 446.0916258129237 C 282.46024225393484 445.2904132218955 281.49930439620823 444.5041626847506 280.5791934258859 443.7345131160392 A 2.625 2.625 0 0 0 277.433 443.646A 523.25 523.25 0 0 1 276.72 444.091A 2.625 2.625 0 0 0 275.418 446.956C 275.70499691570285 448.1211484580175 275.9893166785738 449.32976491745114 276.26871808466115 450.5825089082808 C 277.0144336861781 453.92609899751045 277.7250512238833 457.5834691277163 278.3642982410952 461.5565143670263 A 539 539 0 0 1 273.44 464.491C 270.25013597273636 462.03755183207977 267.3717915092909 459.6718665816779 264.78611318750836 457.4246562979251 C 263.8173381014302 456.5826898586429 262.8897129000095 455.7574002371995 262.0021936753739 454.9503845730223 A 2.625 2.625 0 0 0 258.862 454.732A 523.25 523.25 0 0 1 258.131 455.147A 2.625 2.625 0 0 0 256.712 457.956C 256.9508833141323 459.13184662328473 257.1850141551676 460.35118013912404 257.4124072717858 461.6144002398183 C 258.01931207766876 464.9859507732875 258.5781818498534 468.66956287718153 259.05269680345856 472.66563104244386 A 539 539 0 0 1 254.011 475.394C 250.92558712930554 472.8109400384868 248.14746334953006 470.3283281440373 245.65685972887476 467.976184430758 C 244.7237064522102 467.09490262875966 243.83097873919152 466.2319839164922 242.9775675719502 465.38898092957396 A 2.625 2.625 0 0 0 239.849 465.041A 523.25 523.25 0 0 1 239.102 465.425A 2.625 2.625 0 0 0 237.568 468.174C 237.75777343866824 469.35812573035014 237.94131534925356 470.58609309173704 238.11631167907737 471.85763111194393 C 238.583368802646 475.2513818521228 238.98953598967913 478.9549425402165 239.29850817883906 482.9672064160033 A 539 539 0 0 1 234.149 485.485C 231.17233612944105 482.77653868505354 228.49917941121143 480.1812416473332 226.1079056461904 477.7281831026052 C 225.21196845565936 476.8090915930663 224.35566344136518 475.91001807211956 223.53781837018175 475.0324680189225 A 2.625 2.625 0 0 0 220.427 474.555A 523.25 523.25 0 0 1 219.664 474.909A 2.625 2.625 0 0 0 218.017 477.591C 218.15845839557636 478.782514352901 218.29109779743632 480.0170175981973 218.41339836217168 481.2947011365388 C 218.73980984416505 484.7048539172164 218.99258051622093 488.4220357182001 219.13548206713335 492.4436404189837 A 539 539 0 0 1 213.886 494.746C 211.02413107112352 491.9173217136611 208.4605084578517 489.2137735541238 206.1726499995798 486.66399118732176 C 205.31545958884325 485.70866022266887 204.49704025602637 484.7749679450718 203.7161585554859 483.8643701051413 A 2.625 2.625 0 0 0 200.627 483.259A 523.25 523.25 0 0 1 199.851 483.581A 2.625 2.625 0 0 0 198.095 486.193C 198.18642328583687 487.38891108106617 198.2679335667783 488.6278410821855 198.33732941796194 489.909487237769 C 198.52253758983852 493.3302158701236 198.62147989246404 497.0546680412445 198.59806666022638 501.07874272285443 A 539 539 0 0 1 193.258 503.162C 190.51539482471668 500.21767224983824 188.06568622263364 497.41049193516363 185.88515183890894 494.76834200668964 C 185.06817270340463 493.7784037538507 184.2890373077665 492.81168791719716 183.54645310115538 491.8695980316677 A 2.625 2.625 0 0 0 180.485 491.137A 523.25 523.25 0 0 1 179.696 491.426A 2.625 2.625 0 0 0 177.834 493.964C 177.875789996412 495.1626120304042 177.9060318974873 496.40385209622235 177.92240447347152 497.6872711980901 C 177.96609291017643 501.11273142463466 177.91103780210727 504.8380908018346 177.72134978783401 508.85776040017964 A 539 539 0 0 1 172.3 510.719C 169.6811662220718 507.6634092839289 167.34955691723138 504.75739283459524 165.2800720144709 502.02738941328107 C 164.5046999493473 501.0045351651551 163.7661796306417 500.0064473872358 163.06316161062034 499.0344750008737 A 2.625 2.625 0 0 0 160.035 498.176A 523.25 523.25 0 0 1 159.234 498.433A 2.625 2.625 0 0 0 157.269 500.891C 157.26125890357378 502.0903359632442 157.24018075700215 503.3317654559299 157.20350208551554 504.6147648040752 C 157.10559614608755 508.0391042834735 156.89663768805232 511.75900615274793 156.540998970534 515.7674031297477 A 539 539 0 0 1 151.047 517.403C 148.55704019327047 514.2418118991096 146.34751370105815 511.2419241954735 144.39261395950342 508.4287314463696 C 143.66017367492728 507.3747087322817 142.96353018273027 506.34695422932276 142.3012794437931 505.3467599406456 A 2.625 2.625 0 0 0 139.311 504.364A 523.25 523.25 0 0 1 138.501 504.587A 2.625 2.625 0 0 0 136.435 506.962C 136.37804958789397 508.1602469794565 136.3056874053353 509.399744937546 136.2160201512728 510.6801325491044 C 135.97668710636708 514.0975008547978 135.61418230038618 517.805589826203 135.09320048240588 521.7958659028612 A 539 539 0 0 1 129.536 523.203C 127.1791069532843 519.9416410048625 125.09543821264806 516.8530073047434 123.2584635457149 513.9614315204717 C 122.57020640362603 512.8780411205479 121.91662994165817 511.8223757938774 121.29627792808361 510.7956684180496 A 2.625 2.625 0 0 0 118.349 509.69A 523.25 523.25 0 0 1 117.53 509.88A 2.625 2.625 0 0 0 115.368 512.167C 115.2618406621807 513.3619747378904 115.13831807321007 514.5974234999145 114.99581543157115 515.8730118541295 C 114.61546417768018 519.2775704696926 114.10003235713371 522.9675113354225 113.41459752738824 526.9328491919979 A 539 539 0 0 1 107.804 528.109C 105.58389034244733 524.7531585387727 103.62963926647787 521.5810557210368 101.9137281145702 518.6160371103196 C 101.27082999075058 517.5051299788848 100.66143718343363 516.423357415005 100.08404375623077 515.3718910643555 A 2.625 2.625 0 0 0 97.1852 514.145A 523.25 523.25 0 0 1 96.3591 514.301A 2.625 2.625 0 0 0 94.1044 516.497C 93.94870881516752 517.6866321739274 93.77423685605612 518.9159209964002 93.57914229021357 520.1845307719664 C 93.05842265107441 523.5704630661146 92.39094442258163 527.2359516240975 91.54222763497968 531.1695765473789 A 539 539 0 0 1 85.8883 532.113C 83.80828542608795 528.6681441038448 81.98679081996676 525.4179916529454 80.39487478850388 522.384595900342 C 79.79843406361371 521.2480700035953 79.23426604833668 520.1420383927853 78.7008176744903 519.0676094799362 A 2.625 2.625 0 0 0 75.8552 517.722A 523.25 523.25 0 0 1 75.0233 517.844A 2.625 2.625 0 0 0 72.6798 519.945C 72.47506717509592 521.1268306828824 72.24994392825921 522.3478593464716 72.00259075400615 523.6073231448677 C 71.3423923703874 526.9688443090743 70.52400810930499 530.603618133596 69.51345938224134 534.4988095913869 A 539 539 0 0 1 63.8253 535.208C 61.88949545992881 531.6799090129132 60.203869316635625 528.3572597597927 58.73866816745354 525.2606693710625 C 58.18970385046625 524.1004664444337 57.67172449881951 522.9720654231471 57.18313256592796 521.8765095918732 A 2.625 2.625 0 0 0 54.3955 520.415A 523.25 523.25 0 0 1 53.5593 520.502A 2.625 2.625 0 0 0 51.131 522.504C 50.87760309849598 523.676692743311 50.60221318322481 524.8873751410272 50.30302399931021 526.1355411894807 C 49.5044748090757 529.4669081212245 48.53658271118567 533.0647572621777 47.36592855020891 536.9148603852129 A 539 539 0 0 1 41.6534 537.388C 39.86496832894795 533.7833077161521 38.31809051247285 530.3938383513231 36.98210751715678 527.2393437992013 C 36.48155750439927 526.0574460299285 36.010651775416235 524.908603452382 35.567751034600924 523.7937924414432 A 2.625 2.625 0 0 0 32.8429 522.218A 523.25 523.25 0 0 1 32.0039 522.27A 2.625 2.625 0 0 0 29.4948 524.171C 29.19321549045393 525.3318619586558 28.868029405798982 526.5301296599312 28.517515371924773 527.7648654876857 C 27.581979682970683 531.0603866024463 26.46623337568627 534.6151641949263 25.137473823793194 538.413601146604 A 539 539 0 0 1 19.4102 538.65C 17.772332568296168 534.9747465921604 16.366845893440363 531.5242479671759 15.16236355652721 528.3172386526892 C 14.711083029299754 527.1156652932855 14.28805545751913 525.9483439377512 13.891602597266257 524.8161823830594 A 2.625 2.625 0 0 0 11.2342 523.129A 523.25 523.25 0 0 1 10.3937 523.147A 2.625 2.625 0 0 0 7.80828 524.942C 7.4589517634508855 526.0895105000772 7.084525084382935 527.2733162846445 6.683285047896256 528.4925123662505 C 5.612361207253928 531.7465573214846 4.35066692442492 535.2521900876044 2.8660721450205164 538.99247130211 A 539 539 0 0 1 -2.86607 538.992C -4.350666924424854 535.2521900876044 -5.612361207253862 531.7465573214846 -6.6832850478961925 528.4925123662505 C -7.084525084382871 527.2733162846445 -7.458951763450822 526.0895105000772 -7.808279410079851 524.9419326806567 A 2.625 2.625 0 0 0 -10.3937 523.147A 523.25 523.25 0 0 1 -11.2342 523.129A 2.625 2.625 0 0 0 -13.8916 524.816C -14.288055457518945 525.9483439377512 -14.711083029299573 527.1156652932855 -15.162363556527024 528.3172386526892 C -16.36684589344018 531.5242479671759 -17.772332568295983 534.9747465921604 -19.410226169934585 538.6504818617803 A 539 539 0 0 1 -25.1375 538.414C -26.466233375686084 534.6151641949263 -27.5819796829705 531.0603866024463 -28.51751537192459 527.7648654876857 C -28.8680294057988 526.5301296599312 -29.193215490453746 525.3318619586558 -29.4948211030345 524.1708284919612 A 2.625 2.625 0 0 0 -32.0039 522.27A 523.25 523.25 0 0 1 -32.8429 522.218A 2.625 2.625 0 0 0 -35.5678 523.794C -36.01065177541618 524.908603452382 -36.48155750439921 526.0574460299285 -36.98210751715672 527.2393437992013 C -38.31809051247279 530.3938383513231 -39.86496832894788 533.7833077161521 -41.653362439077306 537.3882171088376 A 539 539 0 0 1 -47.3659 536.915C -48.536582711185616 533.0647572621777 -49.504474809075646 529.4669081212245 -50.303023999310156 526.1355411894807 C -50.602213183224755 524.8873751410272 -50.877603098495925 523.676692743311 -51.13097138889862 522.5041872355441 A 2.625 2.625 0 0 0 -53.5593 520.502A 523.25 523.25 0 0 1 -54.3955 520.415A 2.625 2.625 0 0 0 -57.1831 521.877C -57.67172449881934 522.9720654231472 -58.18970385046606 524.1004664444338 -58.73866816745337 525.2606693710626 C -60.20386931663543 528.3572597597927 -61.88949545992864 531.6799090129133 -63.825334637211306 535.2078336014379 A 539 539 0 0 1 -69.5135 534.499C -70.52400810930482 530.6036181335961 -71.34239237038722 526.9688443090743 -72.00259075400598 523.6073231448678 C -72.24994392825903 522.3478593464718 -72.47506717509575 521.1268306828825 -72.67976526784638 519.9448563400351 A 2.625 2.625 0 0 0 -75.0233 517.844A 523.25 523.25 0 0 1 -75.8552 517.722A 2.625 2.625 0 0 0 -78.7008 519.068C -79.23426604833662 520.1420383927853 -79.79843406361366 521.2480700035953 -80.39487478850383 522.384595900342 C -81.9867908199667 525.4179916529454 -83.80828542608788 528.6681441038448 -85.88826232176235 532.1130564882283 A 539 539 0 0 1 -91.5422 531.17C -92.39094442258158 527.2359516240975 -93.05842265107435 523.5704630661146 -93.57914229021351 520.1845307719664 C -93.77423685605606 518.9159209964002 -93.94870881516746 517.6866321739274 -94.1043869870083 516.4972083793372 A 2.625 2.625 0 0 0 -96.3591 514.301A 523.25 523.25 0 0 1 -97.1852 514.145A 2.625 2.625 0 0 0 -100.084 515.372C -100.66143718343346 516.423357415005 -101.2708299907504 517.5051299788848 -101.91372811457003 518.6160371103194 C -103.6296392664777 521.5810557210368 -105.58389034244716 524.7531585387727 -107.80445135087795 528.1091731439934 A 539 539 0 0 1 -113.415 526.933C -114.10003235713354 522.9675113354225 -114.61546417768001 519.2775704696926 -114.99581543157097 515.8730118541296 C -115.13831807320989 514.5974234999145 -115.26184066218053 513.3619747378904 -115.36823293956641 512.1671336021582 A 2.625 2.625 0 0 0 -117.53 509.88A 523.25 523.25 0 0 1 -118.349 509.69A 2.625 2.625 0 0 0 -121.296 510.796C -121.91662994165812 511.8223757938774 -122.57020640362597 512.8780411205479 -123.25846354571485 513.9614315204717 C -125.095438212648 516.8530073047434 -127.17910695328425 519.9416410048625 -129.53645828323747 523.2030241362633 A 539 539 0 0 1 -135.093 521.796C -135.61418230038612 517.805589826203 -135.97668710636702 514.0975008547978 -136.21602015127274 510.6801325491044 C -136.30568740533525 509.399744937546 -136.3780495878939 508.1602469794565 -136.43497420140363 506.9620298686197 A 2.625 2.625 0 0 0 -138.501 504.587A 523.25 523.25 0 0 1 -139.311 504.364A 2.625 2.625 0 0 0 -142.301 505.347C -142.9635301827302 506.34695422932276 -143.66017367492722 507.3747087322817 -144.39261395950336 508.4287314463696 C -146.3475137010581 511.2419241954735 -148.5570401932704 514.2418118991096 -151.04715434954252 517.4029915383189 A 539 539 0 0 1 -156.541 515.767C -156.89663768805227 511.75900615274793 -157.1055961460875 508.0391042834735 -157.20350208551548 504.6147648040752 C -157.2401807570021 503.3317654559299 -157.26125890357372 502.0903359632442 -157.26861859846 500.89079001113714 A 2.625 2.625 0 0 0 -159.234 498.433A 523.25 523.25 0 0 1 -160.035 498.176A 2.625 2.625 0 0 0 -163.063 499.034C -163.76617963064163 500.0064473872358 -164.50469994934724 501.0045351651551 -165.28007201447082 502.02738941328107 C -167.34955691723133 504.75739283459524 -169.68116622207174 507.6634092839289 -172.29978888639738 510.71898460856056 A 539 539 0 0 1 -177.721 508.858C -177.91103780210722 504.8380908018346 -177.96609291017637 501.11273142463466 -177.92240447347143 497.6872711980901 C -177.90603189748725 496.40385209622235 -177.87578999641195 495.1626120304042 -177.8335721987595 493.9637866411641 A 2.625 2.625 0 0 0 -179.696 491.426A 523.25 523.25 0 0 1 -180.485 491.137A 2.625 2.625 0 0 0 -183.546 491.87C -184.28903730776645 492.81168791719716 -185.06817270340457 493.7784037538507 -185.88515183890888 494.76834200668964 C -188.0656862226336 497.41049193516363 -190.5153948247166 500.21767224983824 -193.2580521242001 503.1624228607063 A 539 539 0 0 1 -198.598 501.079C -198.62147989246395 497.0546680412445 -198.52253758983846 493.3302158701236 -198.33732941796188 489.909487237769 C -198.26793356677825 488.6278410821855 -198.1864232858368 487.38891108106617 -198.09470012404475 486.1928544277607 A 2.625 2.625 0 0 0 -199.851 483.581A 523.25 523.25 0 0 1 -200.627 483.259A 2.625 2.625 0 0 0 -203.716 483.864C -204.49704025602622 484.77496794507186 -205.31545958884308 485.708660222669 -206.17264999957965 486.6639911873218 C -208.46050845785155 489.2137735541239 -211.02413107112338 491.9173217136612 -213.8861372217756 494.7462165537439 A 539 539 0 0 1 -219.135 492.444C -218.99258051622078 488.42203571820016 -218.7398098441649 484.7048539172165 -218.41339836217153 481.29470113653883 C -218.29109779743615 480.0170175981974 -218.15845839557622 478.78251435290105 -218.01738657712784 477.59126987825914 A 2.625 2.625 0 0 0 -219.664 474.909A 523.25 523.25 0 0 1 -220.427 474.555A 2.625 2.625 0 0 0 -223.538 475.032C -224.35566344136515 475.9100180721196 -225.21196845565933 476.80909159306634 -226.10790564619037 477.72818310260527 C -228.4991794112114 480.18124164733325 -231.17233612944102 482.7765386850536 -234.1488014417626 485.4847446349703 A 539 539 0 0 1 -239.299 482.967C -238.9895359896791 478.95494254021656 -238.58336880264596 475.25138185212285 -238.11631167907734 471.857631111944 C -237.94131534925353 470.5860930917371 -237.7577734386682 469.3581257303502 -237.5675939823989 468.17372865557405 A 2.625 2.625 0 0 0 -239.102 465.425A 523.25 523.25 0 0 1 -239.849 465.041A 2.625 2.625 0 0 0 -242.978 465.389C -243.8309787391915 466.2319839164922 -244.72370645221017 467.09490262875966 -245.65685972887474 467.976184430758 C -248.14746334953003 470.3283281440373 -250.9255871293055 472.8109400384868 -254.01142636223935 475.3938301738012 A 539 539 0 0 1 -259.053 472.666C -258.5781818498534 468.66956287718153 -258.01931207766876 464.9859507732875 -257.4124072717858 461.6144002398183 C -257.18501415516755 460.35118013912404 -256.9508833141322 459.13184662328473 -256.71192113845285 457.9563204709088 A 2.625 2.625 0 0 0 -258.131 455.147A 523.25 523.25 0 0 1 -258.862 454.732A 2.625 2.625 0 0 0 -262.002 454.95C -262.8897129000093 455.7574002371996 -263.81733810143 456.582689858643 -264.78611318750814 457.4246562979252 C -267.3717915092907 459.671866581678 -270.25013597273613 462.0375518320799 -273.4400770217165 464.49071332832267 A 539 539 0 0 1 -278.364 461.557C -277.7250512238831 457.5834691277164 -277.0144336861779 453.92609899751056 -276.2687180846609 450.5825089082809 C -275.9893166785736 449.32976491745126 -275.7049969157026 448.1211484580176 -275.4176602834819 446.9565015947543 A 2.625 2.625 0 0 0 -276.72 444.091A 523.25 523.25 0 0 1 -277.433 443.646A 2.625 2.625 0 0 0 -280.579 443.735C -281.49930439620806 444.5041626847507 -282.46024225393467 445.2904132218956 -283.4629840134426 446.09162581292384 C -286.1393194483134 448.2300633460764 -289.1129669921962 450.4747802188637 -292.4015598964508 452.79402189076944 A 539 539 0 0 1 -297.2 449.659C -296.3974320066243 445.715601697027 -295.5362807815414 442.0907220960259 -294.6530284269864 438.78080491861584 C -294.32209608404537 437.5406773297449 -293.9880731548845 436.34484282766374 -293.65285297593846 435.1930650331424 A 2.625 2.625 0 0 0 -294.835 432.276A 523.25 523.25 0 0 1 -295.53 431.802A 2.625 2.625 0 0 0 -298.677 431.761C -299.6279590528846 432.4914972267353 -300.6205678207066 433.2373653837281 -301.6555630861688 433.99645526823053 C -304.4179831599318 436.02246656612897 -307.48185335730494 438.14238000017883 -310.86347961102183 440.3237394622553 A 539 539 0 0 1 -315.529 436.993C -314.56342274873106 433.0862366375401 -313.553209098693 429.50004061173604 -312.53392901293165 426.2294512841207 C -312.15203112549364 425.0040588343914 -311.768875702614 423.8230493528499 -311.3863446949954 422.6861084201118 A 2.625 2.625 0 0 0 -312.447 419.723A 523.25 523.25 0 0 1 -313.121 419.22A 2.625 2.625 0 0 0 -316.264 419.049C -317.24470436765915 419.73992730058086 -318.2672881901472 420.4441387741869 -319.3327686895144 421.15980905982946 C -322.1765538538121 423.0699327161567 -325.32541213383854 425.0614208749277 -328.7942942852886 427.1011713111254 A 539 539 0 0 1 -333.318 423.58C -332.1919871597479 419.7169510076073 -331.03443701782993 416.17556551275334 -329.88087062379066 412.9498917819362 C -329.44865965799016 411.7413280337933 -329.0170263560046 410.5771613076798 -328.58783806752297 409.45699968123677 A 2.625 2.625 0 0 0 -329.526 406.452A 523.25 523.25 0 0 1 -330.178 405.922A 2.625 2.625 0 0 0 -333.311 405.621C -334.319442426675 406.27123874960364 -335.3702542365219 406.9325904063333 -336.4643996142338 407.60361838243784 C -339.3846913098164 409.39459098296874 -342.6131579009455 411.25425144234805 -346.1633694231621 413.14890797326285 A 539 539 0 0 1 -350.537 409.444C -349.25300713309053 405.63058600746285 -347.9500981542925 402.1400614412717 -346.664216300809 398.96481431671236 C -346.18243068183085 397.77514408104656 -345.70305693899536 396.62980906968403 -345.2279446306421 395.52834052688473 A 2.625 2.625 0 0 0 -346.041 392.487A 523.25 523.25 0 0 1 -346.671 391.931A 2.625 2.625 0 0 0 -349.789 391.501C -350.8230013263806 392.10844260226094 -351.90024582923627 392.7258045339025 -353.02118675626895 393.3510437604282 C -356.0129957137612 395.0198054585175 -359.3155548349784 396.7444610198054 -362.94103025112923 398.4907866565363 A 539 539 0 0 1 -367.158 394.609C -365.71733420232664 390.85120795541616 -364.2712923847832 387.417507820557 -362.8552919794319 384.29811215870427 C -362.3247548299245 383.12936796715684 -361.79845964823727 382.00482145619975 -361.2782350414215 380.92392783757276 A 2.625 2.625 0 0 0 -361.965 377.852A 523.25 523.25 0 0 1 -362.571 377.27A 2.625 2.625 0 0 0 -365.669 376.711C -366.72718501323646 377.2757357581954 -367.82902175493797 377.84805321224474 -368.9748431225209 378.42643547846114 C -372.0330578865054 379.97013522274057 -375.4040671709511 381.55683934084095 -379.0986124171037 383.15185051533143 A 539 539 0 0 1 -383.152 379.099C -381.5568393408409 375.4040671709512 -379.9701352227405 372.03305788650545 -378.4264354784611 368.97484312252095 C -377.8480532122447 367.829021754938 -377.27573575819537 366.7271850132365 -376.7112876479312 365.66871300739774 A 2.625 2.625 0 0 0 -377.27 362.571A 523.25 523.25 0 0 1 -377.852 361.965A 2.625 2.625 0 0 0 -380.924 361.278C -382.00482145619975 361.7984596482373 -383.12936796715684 362.32475482992453 -384.29811215870427 362.85529197943197 C -387.417507820557 364.27129238478324 -390.85120795541616 365.7173342023267 -394.60851096299183 367.1583058647409 A 539 539 0 0 1 -398.491 362.941C -396.7444610198054 359.31555483497846 -395.0198054585175 356.01299571376126 -393.3510437604282 353.021186756269 C -392.7258045339025 351.9002458292363 -392.10844260226094 350.8230013263807 -391.5007353386764 349.7887593149966 A 2.625 2.625 0 0 0 -391.931 346.671A 523.25 523.25 0 0 1 -392.487 346.041A 2.625 2.625 0 0 0 -395.528 345.228C -396.6298090696838 345.70305693899564 -397.77514408104634 346.18243068183114 -398.96481431671214 346.6642163008093 C -402.1400614412715 347.9500981542928 -405.6305860074626 349.25300713309076 -409.4442274873002 350.53747740751527 A 539 539 0 0 1 -413.149 346.163C -411.2542514423478 342.61315790094585 -409.3945909829685 339.3846913098167 -407.6036183824376 336.4643996142341 C -406.9325904063331 335.37025423652216 -406.2712387496034 334.31944242667527 -405.62131059036426 333.3111973948733 A 2.625 2.625 0 0 0 -405.922 330.178A 523.25 523.25 0 0 1 -406.452 329.526A 2.625 2.625 0 0 0 -409.457 328.588C -410.5771613076796 329.01702635600464 -411.7413280337932 329.4486596579902 -412.94989178193606 329.8808706237907 C -416.1755655127532 331.03443701783 -419.7169510076071 332.19198715974795 -423.5804154172107 333.31776155026523 A 539 539 0 0 1 -427.101 328.794C -425.06142087492753 325.3254121338386 -423.0699327161566 322.17655385381215 -421.15980905982934 319.33276868951447 C -420.4441387741868 318.26728819014727 -419.7399273005807 317.2447043676592 -419.0488886370448 316.2641788851634 A 2.625 2.625 0 0 0 -419.22 313.121A 523.25 523.25 0 0 1 -419.723 312.447A 2.625 2.625 0 0 0 -422.686 311.386C -423.82304935284986 311.76887570261414 -425.00405883439134 312.15203112549375 -426.22945128412067 312.53392901293176 C -429.5000406117359 313.5532090986931 -433.08623663754 314.56342274873117 -436.9929233127738 315.5285778886795 A 539 539 0 0 1 -440.324 310.863C -438.1423800001788 307.48185335730506 -436.02246656612886 304.4179831599319 -433.9964552682305 301.6555630861689 C -433.23736538372805 300.6205678207067 -432.49149722673525 299.6279590528847 -431.76052868686725 298.6768283310339 A 2.625 2.625 0 0 0 -431.802 295.53A 523.25 523.25 0 0 1 -432.276 294.835A 2.625 2.625 0 0 0 -435.193 293.653C -436.3448428276636 293.98807315488455 -437.54067732974477 294.3220960840454 -438.78080491861573 294.65302842698645 C -442.0907220960258 295.53628078154145 -445.7156016970269 296.39743200662434 -449.65883612923943 297.20031894463716 A 539 539 0 0 1 -452.794 292.402C -450.4747802188636 289.1129669921963 -448.2300633460763 286.1393194483135 -446.0916258129237 283.4629840134427 C -445.2904132218955 282.4602422539347 -444.5041626847506 281.4993043962081 -443.7345131160392 280.57919342588576 A 2.625 2.625 0 0 0 -443.646 277.433A 523.25 523.25 0 0 1 -444.091 276.72A 2.625 2.625 0 0 0 -446.956 275.418C -448.12114845801744 275.7049969157029 -449.3297649174511 275.98931667857386 -450.5825089082807 276.2687180846612 C -453.9260989975104 277.01443368617817 -457.5834691277162 277.7250512238834 -461.55651436702624 278.36429824109524 A 539 539 0 0 1 -464.491 273.44C -462.0375518320797 270.2501359727364 -459.6718665816778 267.371791509291 -457.424656297925 264.7861131875084 C -456.5826898586428 263.81733810143027 -455.7574002371994 262.88971290000956 -454.95038457302223 262.002193675374 A 2.625 2.625 0 0 0 -454.732 258.862A 523.25 523.25 0 0 1 -455.147 258.131A 2.625 2.625 0 0 0 -457.956 256.712C -459.1318466232847 256.9508833141323 -460.351180139124 257.1850141551676 -461.6144002398182 257.41240727178587 C -464.98595077328747 258.0193120776688 -468.6695628771815 258.5781818498535 -472.6656310424438 259.0526968034586 A 539 539 0 0 1 -475.394 254.011C -472.81094003848676 250.92558712930557 -470.32832814403724 248.14746334953008 -467.97618443075794 245.6568597288748 C -467.0949026287596 244.72370645221022 -466.23198391649214 243.83097873919155 -465.3889809295739 242.97756757195023 A 2.625 2.625 0 0 0 -465.041 239.849A 523.25 523.25 0 0 1 -465.425 239.102A 2.625 2.625 0 0 0 -468.174 237.568C -469.35812573035014 237.75777343866827 -470.58609309173704 237.94131534925359 -471.85763111194393 238.1163116790774 C -475.2513818521228 238.58336880264602 -478.9549425402165 238.98953598967915 -482.9672064160033 239.29850817883909 A 539 539 0 0 1 -485.485 234.149C -482.77653868505354 231.17233612944108 -480.1812416473332 228.49917941121146 -477.7281831026052 226.10790564619043 C -476.8090915930663 225.2119684556594 -475.91001807211956 224.3556634413652 -475.0324680189225 223.53781837018178 A 2.625 2.625 0 0 0 -474.555 220.427A 523.25 523.25 0 0 1 -474.909 219.664A 2.625 2.625 0 0 0 -477.591 218.017C -478.78251435290093 218.1584583955765 -480.01701759819724 218.29109779743646 -481.2947011365387 218.4133983621718 C -484.7048539172163 218.7398098441652 -488.42203571820005 218.99258051622107 -492.44364041898365 219.1354820671335 A 539 539 0 0 1 -494.746 213.886C -491.91732171366107 211.02413107112366 -489.21377355412375 208.46050845785183 -486.6639911873217 206.17264999957996 C -485.7086602226688 205.3154595888434 -484.77496794507175 204.4970402560265 -483.86437010514123 203.71615855548603 A 2.625 2.625 0 0 0 -483.259 200.627A 523.25 523.25 0 0 1 -483.581 199.851A 2.625 2.625 0 0 0 -486.193 198.095C -487.3889110810661 198.186423285837 -488.62784108218545 198.26793356677845 -489.90948723776893 198.3373294179621 C -493.33021587012354 198.52253758983866 -497.05466804124444 198.62147989246418 -501.0787427228544 198.59806666022652 A 539 539 0 0 1 -503.162 193.258C -500.2176722498382 190.51539482471682 -497.4104919351636 188.0656862226338 -494.7683420066896 185.8851518389091 C -493.7784037538506 185.06817270340477 -492.8116879171971 184.28903730776665 -491.86959803166764 183.54645310115552 A 2.625 2.625 0 0 0 -491.137 180.485A 523.25 523.25 0 0 1 -491.426 179.696A 2.625 2.625 0 0 0 -493.964 177.834C -495.1626120304042 177.87578999641204 -496.40385209622235 177.90603189748734 -497.6872711980901 177.92240447347154 C -501.11273142463466 177.96609291017646 -504.8380908018346 177.9110378021073 -508.85776040017964 177.72134978783407 A 539 539 0 0 1 -510.719 172.3C -507.6634092839289 169.68116622207182 -504.75739283459524 167.3495569172314 -502.02738941328107 165.28007201447093 C -501.0045351651551 164.50469994934733 -500.0064473872358 163.76617963064172 -499.0344750008737 163.06316161062037 A 2.625 2.625 0 0 0 -498.176 160.035A 523.25 523.25 0 0 1 -498.433 159.234A 2.625 2.625 0 0 0 -500.891 157.269C -502.0903359632442 157.2612589035738 -503.3317654559299 157.24018075700218 -504.6147648040752 157.20350208551557 C -508.0391042834735 157.10559614608758 -511.75900615274793 156.89663768805235 -515.7674031297477 156.54099897053402 A 539 539 0 0 1 -517.403 151.047C -514.2418118991096 148.5570401932705 -511.2419241954735 146.34751370105818 -508.4287314463696 144.39261395950345 C -507.3747087322817 143.6601736749273 -506.34695422932276 142.9635301827303 -505.3467599406456 142.30127944379313 A 2.625 2.625 0 0 0 -504.364 139.311A 523.25 523.25 0 0 1 -504.587 138.501A 2.625 2.625 0 0 0 -506.962 136.435C -508.1602469794565 136.37804958789408 -509.399744937546 136.30568740533542 -510.6801325491044 136.21602015127294 C -514.0975008547978 135.97668710636722 -517.8055898262029 135.61418230038632 -521.7958659028612 135.09320048240602 A 539 539 0 0 1 -523.203 129.536C -519.9416410048626 127.17910695328445 -516.8530073047434 125.0954382126482 -513.9614315204717 123.25846354571505 C -512.8780411205479 122.57020640362614 -511.8223757938774 121.91662994165829 -510.7956684180496 121.29627792808373 A 2.625 2.625 0 0 0 -509.69 118.349A 523.25 523.25 0 0 1 -509.88 117.53A 2.625 2.625 0 0 0 -512.167 115.368C -513.3619747378904 115.26184066218073 -514.5974234999145 115.1383180732101 -515.8730118541295 114.99581543157117 C -519.2775704696926 114.61546417768021 -522.9675113354225 114.10003235713374 -526.9328491919979 113.41459752738828 A 539 539 0 0 1 -528.109 107.804C -524.7531585387727 105.58389034244736 -521.5810557210368 103.6296392664779 -518.6160371103196 101.91372811457023 C -517.5051299788848 101.27082999075061 -516.423357415005 100.66143718343366 -515.3718910643555 100.0840437562308 A 2.625 2.625 0 0 0 -514.145 97.1852A 523.25 523.25 0 0 1 -514.301 96.3591A 2.625 2.625 0 0 0 -516.497 94.1044C -517.6866321739274 93.94870881516755 -518.9159209964002 93.77423685605615 -520.1845307719664 93.57914229021361 C -523.5704630661146 93.05842265107444 -527.2359516240975 92.39094442258165 -531.1695765473789 91.54222763497972 A 539 539 0 0 1 -532.113 85.8883C -528.6681441038448 83.80828542608798 -525.4179916529454 81.98679081996679 -522.384595900342 80.39487478850393 C -521.2480700035953 79.79843406361374 -520.1420383927853 79.2342660483367 -519.0676094799362 78.70081767449032 A 2.625 2.625 0 0 0 -517.722 75.8552A 523.25 523.25 0 0 1 -517.844 75.0233A 2.625 2.625 0 0 0 -519.945 72.6798C -521.1268306828824 72.47506717509583 -522.3478593464716 72.24994392825913 -523.6073231448677 72.00259075400608 C -526.9688443090743 71.34239237038732 -530.603618133596 70.52400810930492 -534.4988095913869 69.51345938224125 A 539 539 0 0 1 -535.208 63.8253C -531.6799090129132 61.88949545992874 -528.3572597597927 60.20386931663554 -525.2606693710625 58.73866816745347 C -524.1004664444337 58.18970385046617 -522.9720654231471 57.67172449881942 -521.8765095918732 57.18313256592788 A 2.625 2.625 0 0 0 -520.415 54.3955A 523.25 523.25 0 0 1 -520.502 53.5593A 2.625 2.625 0 0 0 -522.504 51.131C -523.676692743311 50.87760309849614 -524.8873751410272 50.60221318322497 -526.1355411894807 50.30302399931037 C -529.4669081212245 49.50447480907586 -533.0647572621777 48.53658271118583 -536.9148603852129 47.36592855020908 A 539 539 0 0 1 -537.388 41.6534C -533.7833077161521 39.86496832894811 -530.3938383513231 38.318090512473006 -527.2393437992013 36.98210751715693 C -526.0574460299285 36.481557504399426 -524.908603452382 36.01065177541639 -523.7937924414432 35.56775103460108 A 2.625 2.625 0 0 0 -522.218 32.8429A 523.25 523.25 0 0 1 -522.27 32.0039A 2.625 2.625 0 0 0 -524.171 29.4948C -525.3318619586558 29.19321549045396 -526.5301296599312 28.868029405799017 -527.7648654876857 28.51751537192481 C -531.0603866024463 27.581979682970715 -534.6151641949263 26.466233375686304 -538.4136011466039 25.137473823793226 A 539 539 0 0 1 -538.65 19.4102C -534.9747465921604 17.772332568296203 -531.5242479671759 16.366845893440395 -528.3172386526892 15.162363556527241 C -527.1156652932855 14.71108302929979 -525.9483439377512 14.288055457519162 -524.8161823830594 13.891602597266289 A 2.625 2.625 0 0 0 -523.129 11.2342A 523.25 523.25 0 0 1 -523.147 10.3937A 2.625 2.625 0 0 0 -524.942 7.80828C -526.0895105000772 7.458951763450918 -527.2733162846445 7.0845250843829675 -528.4925123662505 6.683285047896289 C -531.7465573214846 5.61236120725396 -535.2521900876044 4.350666924424953 -538.99247130211 2.8660721450205497 A 539 539 0 0 1 -538.992 -2.86607C -535.2521900876044 -4.3506669244248215 -531.7465573214846 -5.61236120725383 -528.4925123662505 -6.68328504789616 C -527.2733162846445 -7.084525084382838 -526.0895105000772 -7.458951763450789 -524.9419326806567 -7.808279410079819 A 2.625 2.625 0 0 0 -523.147 -10.3937A 523.25 523.25 0 0 1 -523.129 -11.2342A 2.625 2.625 0 0 0 -524.816 -13.8916C -525.9483439377512 -14.28805545751903 -527.1156652932855 -14.711083029299655 -528.3172386526892 -15.16236355652711 C -531.5242479671759 -16.366845893440264 -534.9747465921604 -17.77233256829607 -538.6504818617803 -19.41022616993467 A 539 539 0 0 1 -538.414 -25.1375C -534.6151641949263 -26.46623337568617 -531.0603866024463 -27.581979682970584 -527.7648654876857 -28.517515371924674 C -526.5301296599312 -28.868029405798882 -525.3318619586558 -29.19321549045383 -524.1708284919612 -29.49482110303458 A 2.625 2.625 0 0 0 -522.27 -32.0039A 523.25 523.25 0 0 1 -522.218 -32.8429A 2.625 2.625 0 0 0 -523.794 -35.5678C -524.908603452382 -36.01065177541603 -526.0574460299285 -36.481557504399056 -527.2393437992013 -36.98210751715657 C -530.3938383513231 -38.31809051247264 -533.7833077161521 -39.864968328947725 -537.3882171088376 -41.65336243907715 A 539 539 0 0 1 -536.915 -47.3659C -533.0647572621777 -48.53658271118546 -529.4669081212245 -49.50447480907549 -526.1355411894807 -50.30302399931001 C -524.8873751410272 -50.6022131832246 -523.676692743311 -50.877603098495776 -522.5041872355441 -51.13097138889847 A 2.625 2.625 0 0 0 -520.502 -53.5593A 523.25 523.25 0 0 1 -520.415 -54.3955A 2.625 2.625 0 0 0 -521.877 -57.1831C -522.9720654231472 -57.671724498819295 -524.1004664444338 -58.18970385046603 -525.2606693710626 -58.738668167453326 C -528.3572597597927 -60.203869316635405 -531.6799090129133 -61.8894954599286 -535.2078336014379 -63.82533463721128 A 539 539 0 0 1 -534.499 -69.5135C -530.6036181335961 -70.52400810930477 -526.9688443090743 -71.34239237038719 -523.6073231448678 -72.00259075400594 C -522.3478593464718 -72.249943928259 -521.1268306828825 -72.4750671750957 -519.9448563400351 -72.67976526784635 A 2.625 2.625 0 0 0 -517.844 -75.0233A 523.25 523.25 0 0 1 -517.722 -75.8552A 2.625 2.625 0 0 0 -519.068 -78.7008C -520.1420383927853 -79.23426604833658 -521.2480700035953 -79.79843406361363 -522.384595900342 -80.3948747885038 C -525.4179916529454 -81.98679081996667 -528.6681441038448 -83.80828542608785 -532.1130564882283 -85.88826232176233 A 539 539 0 0 1 -531.17 -91.5422C -527.2359516240975 -92.39094442258155 -523.5704630661146 -93.05842265107432 -520.1845307719664 -93.57914229021348 C -518.9159209964002 -93.77423685605604 -517.6866321739274 -93.94870881516742 -516.4972083793372 -94.10438698700827 A 2.625 2.625 0 0 0 -514.301 -96.3591A 523.25 523.25 0 0 1 -514.145 -97.1852A 2.625 2.625 0 0 0 -515.372 -100.084C -516.423357415005 -100.66143718343332 -517.5051299788848 -101.27082999075026 -518.6160371103196 -101.91372811456988 C -521.5810557210368 -103.62963926647754 -524.7531585387728 -105.583890342447 -528.1091731439935 -107.8044513508778 A 539 539 0 0 1 -526.933 -113.415C -522.9675113354226 -114.10003235713339 -519.2775704696926 -114.61546417767985 -515.8730118541297 -114.99581543157082 C -514.5974234999145 -115.13831807320975 -513.3619747378904 -115.26184066218039 -512.1671336021583 -115.36823293956627 A 2.625 2.625 0 0 0 -509.88 -117.53A 523.25 523.25 0 0 1 -509.69 -118.349A 2.625 2.625 0 0 0 -510.796 -121.296C -511.8223757938775 -121.91662994165794 -512.878041120548 -122.5702064036258 -513.9614315204717 -123.2584635457147 C -516.8530073047434 -125.09543821264786 -519.9416410048625 -127.1791069532841 -523.2030241362634 -129.53645828323732 A 539 539 0 0 1 -521.796 -135.093C -517.805589826203 -135.61418230038598 -514.0975008547978 -135.97668710636688 -510.6801325491044 -136.2160201512726 C -509.3997449375461 -136.30568740533508 -508.16024697945653 -136.37804958789374 -506.96202986861977 -136.4349742014035 A 2.625 2.625 0 0 0 -504.587 -138.501A 523.25 523.25 0 0 1 -504.364 -139.311A 2.625 2.625 0 0 0 -505.347 -142.301C -506.34695422932276 -142.96353018273018 -507.3747087322817 -143.6601736749272 -508.4287314463696 -144.39261395950334 C -511.2419241954735 -146.34751370105803 -514.2418118991096 -148.55704019327038 -517.4029915383189 -151.0471543495425 A 539 539 0 0 1 -515.767 -156.541C -511.75900615274793 -156.89663768805224 -508.0391042834735 -157.10559614608744 -504.6147648040752 -157.20350208551545 C -503.3317654559299 -157.24018075700207 -502.0903359632442 -157.2612589035737 -500.89079001113714 -157.26861859845997 A 2.625 2.625 0 0 0 -498.433 -159.234A 523.25 523.25 0 0 1 -498.176 -160.035A 2.625 2.625 0 0 0 -499.034 -163.063C -500.0064473872359 -163.7661796306416 -501.0045351651552 -164.5046999493472 -502.0273894132811 -165.2800720144708 C -504.7573928345953 -167.34955691723127 -507.66340928392896 -169.6811662220717 -510.7189846085606 -172.29978888639735 A 539 539 0 0 1 -508.858 -177.721C -504.83809080183465 -177.9110378021072 -501.1127314246347 -177.96609291017631 -497.6872711980902 -177.9224044734714 C -496.4038520962224 -177.90603189748722 -495.16261203040426 -177.87578999641192 -493.9637866411642 -177.83357219875947 A 2.625 2.625 0 0 0 -491.426 -179.696A 523.25 523.25 0 0 1 -491.137 -180.485A 2.625 2.625 0 0 0 -491.87 -183.546C -492.8116879171972 -184.28903730776634 -493.77840375385074 -185.06817270340446 -494.7683420066897 -185.88515183890877 C -497.4104919351637 -188.06568622263347 -500.2176722498383 -190.51539482471648 -503.16242286070633 -193.2580521242 A 539 539 0 0 1 -501.079 -198.598C -497.05466804124455 -198.62147989246384 -493.33021587012365 -198.52253758983835 -489.90948723776904 -198.33732941796177 C -488.62784108218557 -198.26793356677814 -487.3889110810662 -198.1864232858367 -486.1928544277608 -198.09470012404464 A 2.625 2.625 0 0 0 -483.581 -199.851A 523.25 523.25 0 0 1 -483.259 -200.627A 2.625 2.625 0 0 0 -483.864 -203.716C -484.7749679450719 -204.4970402560262 -485.70866022266904 -205.31545958884305 -486.66399118732187 -206.17264999957962 C -489.213773554124 -208.46050845785152 -491.91732171366124 -211.02413107112332 -494.746216553744 -213.88613722177558 A 539 539 0 0 1 -492.444 -219.135C -488.4220357182002 -218.99258051622073 -484.70485391721655 -218.73980984416488 -481.2947011365389 -218.4133983621715 C -480.01701759819747 -218.29109779743612 -478.7825143529011 -218.1584583955762 -477.59126987825925 -218.0173865771278 A 2.625 2.625 0 0 0 -474.909 -219.664A 523.25 523.25 0 0 1 -474.555 -220.427A 2.625 2.625 0 0 0 -475.032 -223.538C -475.9100180721196 -224.35566344136512 -476.80909159306634 -225.2119684556593 -477.72818310260527 -226.10790564619035 C -480.18124164733325 -228.49917941121137 -482.7765386850536 -231.172336129441 -485.4847446349703 -234.14880144176257 A 539 539 0 0 1 -482.967 -239.299C -478.95494254021656 -238.98953598967907 -475.25138185212285 -238.58336880264594 -471.857631111944 -238.1163116790773 C -470.5860930917371 -237.9413153492535 -469.3581257303502 -237.75777343866818 -468.17372865557405 -237.56759398239888 A 2.625 2.625 0 0 0 -465.425 -239.102A 523.25 523.25 0 0 1 -465.041 -239.849A 2.625 2.625 0 0 0 -465.389 -242.978C -466.2319839164922 -243.83097873919147 -467.09490262875966 -244.72370645221014 -467.976184430758 -245.6568597288747 C -470.3283281440373 -248.14746334953 -472.8109400384868 -250.92558712930548 -475.3938301738012 -254.0114263622393 A 539 539 0 0 1 -472.666 -259.053C -468.66956287718153 -258.57818184985337 -464.9859507732875 -258.0193120776687 -461.6144002398183 -257.41240727178575 C -460.35118013912404 -257.18501415516755 -459.13184662328473 -256.9508833141322 -457.9563204709088 -256.71192113845285 A 2.625 2.625 0 0 0 -455.147 -258.131A 523.25 523.25 0 0 1 -454.732 -258.862A 2.625 2.625 0 0 0 -454.95 -262.002C -455.7574002371996 -262.8897129000093 -456.582689858643 -263.81733810143 -457.4246562979252 -264.78611318750814 C -459.671866581678 -267.3717915092907 -462.0375518320799 -270.25013597273613 -464.49071332832267 -273.4400770217165 A 539 539 0 0 1 -461.557 -278.364C -457.5834691277164 -277.7250512238831 -453.92609899751056 -277.0144336861779 -450.5825089082809 -276.2687180846609 C -449.32976491745126 -275.9893166785736 -448.1211484580176 -275.7049969157026 -446.9565015947543 -275.4176602834819 A 2.625 2.625 0 0 0 -444.091 -276.72A 523.25 523.25 0 0 1 -443.646 -277.433A 2.625 2.625 0 0 0 -443.735 -280.579C -444.5041626847507 -281.49930439620806 -445.2904132218956 -282.46024225393467 -446.09162581292384 -283.4629840134426 C -448.2300633460764 -286.1393194483134 -450.4747802188637 -289.1129669921962 -452.79402189076944 -292.4015598964508 A 539 539 0 0 1 -449.659 -297.2C -445.715601697027 -296.3974320066243 -442.0907220960259 -295.5362807815414 -438.78080491861584 -294.6530284269864 C -437.5406773297449 -294.32209608404537 -436.34484282766374 -293.9880731548845 -435.1930650331424 -293.65285297593846 A 2.625 2.625 0 0 0 -432.276 -294.835A 523.25 523.25 0 0 1 -431.802 -295.53A 2.625 2.625 0 0 0 -431.761 -298.677C -432.4914972267353 -299.6279590528846 -433.2373653837281 -300.6205678207066 -433.99645526823053 -301.6555630861688 C -436.02246656612897 -304.4179831599318 -438.14238000017883 -307.48185335730494 -440.3237394622553 -310.86347961102183 A 539 539 0 0 1 -436.993 -315.529C -433.0862366375401 -314.56342274873106 -429.50004061173604 -313.553209098693 -426.2294512841207 -312.53392901293165 C -425.0040588343914 -312.15203112549364 -423.8230493528499 -311.768875702614 -422.6861084201118 -311.3863446949954 A 2.625 2.625 0 0 0 -419.723 -312.447A 523.25 523.25 0 0 1 -419.22 -313.121A 2.625 2.625 0 0 0 -419.049 -316.264C -419.73992730058086 -317.24470436765915 -420.4441387741869 -318.2672881901472 -421.15980905982946 -319.3327686895144 C -423.0699327161567 -322.1765538538121 -425.0614208749277 -325.32541213383854 -427.1011713111254 -328.7942942852886 A 539 539 0 0 1 -423.58 -333.318C -419.7169510076073 -332.1919871597479 -416.17556551275334 -331.03443701782993 -412.9498917819362 -329.88087062379066 C -411.7413280337933 -329.44865965799016 -410.5771613076798 -329.0170263560046 -409.45699968123677 -328.58783806752297 A 2.625 2.625 0 0 0 -406.452 -329.526A 523.25 523.25 0 0 1 -405.922 -330.178A 2.625 2.625 0 0 0 -405.621 -333.311C -406.27123874960364 -334.319442426675 -406.9325904063333 -335.3702542365219 -407.60361838243784 -336.4643996142338 C -409.39459098296874 -339.3846913098164 -411.25425144234805 -342.6131579009455 -413.14890797326285 -346.1633694231621 A 539 539 0 0 1 -409.444 -350.537C -405.63058600746285 -349.25300713309053 -402.1400614412717 -347.9500981542925 -398.96481431671236 -346.664216300809 C -397.77514408104656 -346.18243068183085 -396.62980906968403 -345.70305693899536 -395.52834052688473 -345.2279446306421 A 2.625 2.625 0 0 0 -392.487 -346.041A 523.25 523.25 0 0 1 -391.931 -346.671A 2.625 2.625 0 0 0 -391.501 -349.789C -392.10844260226094 -350.8230013263806 -392.7258045339025 -351.90024582923627 -393.3510437604282 -353.02118675626895 C -395.0198054585175 -356.0129957137612 -396.7444610198054 -359.3155548349784 -398.4907866565363 -362.94103025112923 A 539 539 0 0 1 -394.609 -367.158C -390.85120795541616 -365.71733420232664 -387.417507820557 -364.2712923847832 -384.29811215870427 -362.8552919794319 C -383.12936796715684 -362.3247548299245 -382.00482145619975 -361.79845964823727 -380.92392783757276 -361.2782350414215 A 2.625 2.625 0 0 0 -377.852 -361.965A 523.25 523.25 0 0 1 -377.27 -362.571A 2.625 2.625 0 0 0 -376.711 -365.669C -377.2757357581955 -366.72718501323646 -377.8480532122448 -367.82902175493797 -378.4264354784612 -368.9748431225209 C -379.9701352227406 -372.0330578865054 -381.556839340841 -375.4040671709511 -383.1518505153315 -379.0986124171037 A 539 539 0 0 1 -379.099 -383.152C -375.40406717095124 -381.5568393408409 -372.0330578865055 -379.9701352227405 -368.974843122521 -378.4264354784611 C -367.8290217549381 -377.8480532122447 -366.7271850132366 -377.27573575819537 -365.6687130073978 -376.7112876479312 A 2.625 2.625 0 0 0 -362.571 -377.27A 523.25 523.25 0 0 1 -361.965 -377.852A 2.625 2.625 0 0 0 -361.278 -380.924C -361.79845964823755 -382.0048214561995 -362.32475482992476 -383.1293679671566 -362.8552919794322 -384.29811215870404 C -364.27129238478346 -387.41750782055675 -365.7173342023269 -390.85120795541593 -367.1583058647412 -394.6085109629916 A 539 539 0 0 1 -362.941 -398.491C -359.3155548349787 -396.74446101980516 -356.0129957137615 -395.0198054585173 -353.02118675626923 -393.35104376042796 C -351.90024582923655 -392.72580453390225 -350.8230013263809 -392.1084426022607 -349.78875931499687 -391.5007353386762 A 2.625 2.625 0 0 0 -346.671 -391.931A 523.25 523.25 0 0 1 -346.041 -392.487A 2.625 2.625 0 0 0 -345.228 -395.528C -345.70305693899553 -396.6298090696839 -346.182430681831 -397.77514408104645 -346.6642163008092 -398.96481431671225 C -347.9500981542927 -402.1400614412716 -349.25300713309065 -405.63058600746274 -350.5374774075151 -409.44422748730034 A 539 539 0 0 1 -346.163 -413.149C -342.61315790094574 -411.25425144234794 -339.38469130981656 -409.3945909829686 -336.46439961423397 -407.60361838243773 C -335.37025423652204 -406.9325904063332 -334.31944242667515 -406.2712387496035 -333.3111973948732 -405.62131059036443 A 2.625 2.625 0 0 0 -330.178 -405.922A 523.25 523.25 0 0 1 -329.526 -406.452A 2.625 2.625 0 0 0 -328.588 -409.457C -329.0170263560047 -410.5771613076796 -329.4486596579903 -411.7413280337932 -329.88087062379077 -412.94989178193606 C -331.03443701783004 -416.1755655127532 -332.191987159748 -419.7169510076071 -333.3177615502653 -423.5804154172107 A 539 539 0 0 1 -328.794 -427.101C -325.32541213383865 -425.06142087492753 -322.1765538538122 -423.0699327161566 -319.3327686895145 -421.15980905982934 C -318.2672881901473 -420.4441387741868 -317.24470436765927 -419.7399273005807 -316.26417888516346 -419.0488886370448 A 2.625 2.625 0 0 0 -313.121 -419.22A 523.25 523.25 0 0 1 -312.447 -419.723A 2.625 2.625 0 0 0 -311.386 -422.686C -311.76887570261437 -423.8230493528497 -312.152031125494 -425.0040588343912 -312.533929012932 -426.22945128412044 C -313.5532090986934 -429.50004061173576 -314.5634227487314 -433.0862366375398 -315.5285778886797 -436.99292331277366 A 539 539 0 0 1 -310.863 -440.324C -307.4818533573053 -438.14238000017855 -304.4179831599322 -436.0224665661287 -301.65556308616914 -433.99645526823036 C -300.6205678207069 -433.2373653837279 -299.62795905288493 -432.4914972267351 -298.67682833103413 -431.760528686867 A 2.625 2.625 0 0 0 -295.53 -431.802A 523.25 523.25 0 0 1 -294.835 -432.276A 2.625 2.625 0 0 0 -293.653 -435.193C -293.9880731548846 -436.3448428276636 -294.3220960840455 -437.54067732974477 -294.6530284269865 -438.78080491861573 C -295.5362807815415 -442.0907220960258 -296.3974320066244 -445.7156016970269 -297.2003189446372 -449.65883612923943 A 539 539 0 0 1 -292.402 -452.794C -289.11296699219633 -450.4747802188636 -286.13931944831353 -448.2300633460763 -283.46298401344274 -446.0916258129237 C -282.4602422539348 -445.2904132218955 -281.4993043962082 -444.5041626847506 -280.5791934258858 -443.7345131160392 A 2.625 2.625 0 0 0 -277.433 -443.646A 523.25 523.25 0 0 1 -276.72 -444.091A 2.625 2.625 0 0 0 -275.418 -446.956C -275.70499691570296 -448.1211484580174 -275.9893166785739 -449.32976491745103 -276.26871808466126 -450.58250890828066 C -277.0144336861782 -453.92609899751034 -277.72505122388344 -457.58346912771617 -278.3642982410953 -461.5565143670262 A 539 539 0 0 1 -273.44 -464.491C -270.2501359727365 -462.03755183207966 -267.37179150929103 -459.67186658167776 -264.7861131875085 -457.42465629792497 C -263.8173381014303 -456.58268985864277 -262.8897129000096 -455.75740023719936 -262.00219367537403 -454.9503845730222 A 2.625 2.625 0 0 0 -258.862 -454.732A 523.25 523.25 0 0 1 -258.131 -455.147A 2.625 2.625 0 0 0 -256.712 -457.956C -256.9508833141325 -459.13184662328456 -257.1850141551679 -460.35118013912387 -257.4124072717861 -461.6144002398181 C -258.01931207766904 -464.98595077328736 -258.5781818498537 -468.66956287718136 -259.05269680345884 -472.6656310424437 A 539 539 0 0 1 -254.011 -475.394C -250.92558712930582 -472.81094003848665 -248.14746334953034 -470.32832814403713 -245.65685972887502 -467.9761844307578 C -244.72370645221048 -467.0949026287595 -243.83097873919178 -466.231983916492 -242.97756757195046 -465.3889809295738 A 2.625 2.625 0 0 0 -239.849 -465.041A 523.25 523.25 0 0 1 -239.102 -465.425A 2.625 2.625 0 0 0 -237.568 -468.174C -237.7577734386683 -469.35812573035014 -237.9413153492536 -470.58609309173704 -238.11631167907743 -471.85763111194393 C -238.58336880264605 -475.2513818521228 -238.98953598967918 -478.9549425402165 -239.2985081788391 -482.9672064160033 A 539 539 0 0 1 -234.149 -485.485C -231.1723361294411 -482.77653868505354 -228.4991794112115 -480.1812416473332 -226.10790564619046 -477.7281831026052 C -225.21196845565942 -476.8090915930663 -224.35566344136524 -475.91001807211956 -223.5378183701818 -475.0324680189225 A 2.625 2.625 0 0 0 -220.427 -474.555A 523.25 523.25 0 0 1 -219.664 -474.909A 2.625 2.625 0 0 0 -218.017 -477.591C -218.15845839557653 -478.78251435290093 -218.2910977974365 -480.01701759819724 -218.41339836217185 -481.2947011365387 C -218.73980984416522 -484.7048539172163 -218.9925805162211 -488.42203571820005 -219.13548206713352 -492.44364041898365 A 539 539 0 0 1 -213.886 -494.746C -211.0241310711237 -491.91732171366107 -208.46050845785186 -489.21377355412375 -206.17264999957996 -486.6639911873217 C -205.31545958884342 -485.7086602226688 -204.49704025602654 -484.77496794507175 -203.71615855548606 -483.86437010514123 A 2.625 2.625 0 0 0 -200.627 -483.259A 523.25 523.25 0 0 1 -199.851 -483.581A 2.625 2.625 0 0 0 -198.095 -486.193C -198.1864232858368 -487.38891108106617 -198.26793356677825 -488.6278410821855 -198.33732941796188 -489.909487237769 C -198.52253758983846 -493.3302158701236 -198.62147989246395 -497.0546680412445 -198.59806666022632 -501.07874272285443 A 539 539 0 0 1 -193.258 -503.162C -190.5153948247166 -500.21767224983824 -188.0656862226336 -497.41049193516363 -185.88515183890888 -494.76834200668964 C -185.06817270340457 -493.7784037538507 -184.28903730776645 -492.81168791719716 -183.54645310115532 -491.8695980316677 A 2.625 2.625 0 0 0 -180.485 -491.137A 523.25 523.25 0 0 1 -179.696 -491.426A 2.625 2.625 0 0 0 -177.834 -493.964C -177.87578999641207 -495.1626120304042 -177.90603189748737 -496.40385209622235 -177.92240447347157 -497.6872711980901 C -177.96609291017649 -501.11273142463466 -177.91103780210733 -504.8380908018346 -177.7213497878341 -508.85776040017964 A 539 539 0 0 1 -172.3 -510.719C -169.68116622207185 -507.6634092839289 -167.34955691723144 -504.75739283459524 -165.28007201447096 -502.02738941328107 C -164.50469994934735 -501.0045351651551 -163.76617963064174 -500.0064473872358 -163.06316161062043 -499.0344750008737 A 2.625 2.625 0 0 0 -160.035 -498.176A 523.25 523.25 0 0 1 -159.234 -498.433A 2.625 2.625 0 0 0 -157.269 -500.891C -157.2612589035741 -502.0903359632441 -157.24018075700243 -503.3317654559298 -157.20350208551582 -504.61476480407515 C -157.10559614608783 -508.0391042834734 -156.89663768805264 -511.75900615274793 -156.54099897053428 -515.7674031297475 A 539 539 0 0 1 -151.047 -517.403C -148.55704019327078 -514.2418118991096 -146.34751370105843 -511.2419241954734 -144.3926139595037 -508.42873144636957 C -143.66017367492756 -507.37470873228165 -142.96353018273058 -506.3469542293227 -142.3012794437934 -505.34675994064554 A 2.625 2.625 0 0 0 -139.311 -504.364A 523.25 523.25 0 0 1 -138.501 -504.587A 2.625 2.625 0 0 0 -136.435 -506.962C -136.3780495878939 -508.1602469794565 -136.30568740533525 -509.399744937546 -136.21602015127277 -510.6801325491044 C -135.97668710636705 -514.0975008547978 -135.61418230038612 -517.805589826203 -135.09320048240585 -521.7958659028612 A 539 539 0 0 1 -129.536 -523.203C -127.17910695328425 -519.9416410048625 -125.09543821264803 -516.8530073047434 -123.25846354571487 -513.9614315204717 C -122.57020640362597 -512.8780411205479 -121.91662994165812 -511.8223757938774 -121.29627792808355 -510.7956684180496 A 2.625 2.625 0 0 0 -118.349 -509.69A 523.25 523.25 0 0 1 -117.53 -509.88A 2.625 2.625 0 0 0 -115.368 -512.167C -115.26184066218076 -513.3619747378903 -115.13831807321014 -514.5974234999144 -114.99581543157122 -515.8730118541295 C -114.61546417768025 -519.2775704696925 -114.10003235713378 -522.9675113354225 -113.41459752738832 -526.9328491919979 A 539 539 0 0 1 -107.804 -528.109C -105.5838903424474 -524.7531585387727 -103.62963926647794 -521.5810557210367 -101.91372811457028 -518.6160371103196 C -101.27082999075066 -517.5051299788847 -100.66143718343372 -516.4233574150048 -100.08404375623084 -515.3718910643555 A 2.625 2.625 0 0 0 -97.1852 -514.145A 523.25 523.25 0 0 1 -96.3591 -514.301A 2.625 2.625 0 0 0 -94.1044 -516.497C -93.9487088151678 -517.6866321739273 -93.7742368560564 -518.9159209964001 -93.57914229021387 -520.1845307719663 C -93.05842265107471 -523.5704630661145 -92.39094442258192 -527.2359516240974 -91.54222763497998 -531.1695765473788 A 539 539 0 0 1 -85.8883 -532.113C -83.80828542608825 -528.6681441038447 -81.98679081996706 -525.4179916529453 -80.39487478850418 -522.3845959003419 C -79.798434063614 -521.2480700035952 -79.23426604833696 -520.1420383927851 -78.70081767449058 -519.0676094799362 A 2.625 2.625 0 0 0 -75.8552 -517.722A 523.25 523.25 0 0 1 -75.0233 -517.844A 2.625 2.625 0 0 0 -72.6798 -519.945C -72.47506717509586 -521.1268306828824 -72.24994392825916 -522.3478593464716 -72.0025907540061 -523.6073231448677 C -71.34239237038734 -526.9688443090743 -70.52400810930494 -530.603618133596 -69.51345938224128 -534.4988095913869 A 539 539 0 0 1 -63.8253 -535.208C -61.88949545992877 -531.6799090129132 -60.20386931663557 -528.3572597597927 -58.7386681674535 -525.2606693710625 C -58.189703850466195 -524.1004664444337 -57.67172449881945 -522.9720654231471 -57.183132565927906 -521.8765095918732 A 2.625 2.625 0 0 0 -54.3955 -520.415A 523.25 523.25 0 0 1 -53.5593 -520.502A 2.625 2.625 0 0 0 -51.131 -522.504C -50.87760309849617 -523.676692743311 -50.602213183225 -524.8873751410272 -50.3030239993104 -526.1355411894807 C -49.50447480907589 -529.4669081212245 -48.53658271118586 -533.0647572621777 -47.365928550209105 -536.9148603852129 A 539 539 0 0 1 -41.6534 -537.388C -39.86496832894814 -533.7833077161521 -38.318090512473034 -530.3938383513231 -36.98210751715696 -527.2393437992013 C -36.481557504399454 -526.0574460299285 -36.01065177541642 -524.908603452382 -35.56775103460111 -523.7937924414432 A 2.625 2.625 0 0 0 -32.8429 -522.218A 523.25 523.25 0 0 1 -32.0039 -522.27A 2.625 2.625 0 0 0 -29.4948 -524.171C -29.19321549045422 -525.3318619586558 -28.86802940579928 -526.5301296599312 -28.51751537192507 -527.7648654876856 C -27.58197968297098 -531.0603866024463 -26.46623337568657 -534.6151641949263 -25.137473823793496 -538.4136011466039 A 539 539 0 0 1 -19.4102 -538.65C -17.77233256829647 -534.9747465921604 -16.36684589344066 -531.5242479671759 -15.162363556527504 -528.3172386526893 C -14.711083029300053 -527.1156652932855 -14.288055457519425 -525.9483439377512 -13.891602597266552 -524.8161823830594 A 2.625 2.625 0 0 0 -11.2342 -523.129A 523.25 523.25 0 0 1 -10.3937 -523.147A 2.625 2.625 0 0 0 -7.80828 -524.942C -7.45895176345095 -526.0895105000772 -7.084525084382999 -527.2733162846445 -6.683285047896321 -528.4925123662505 C -5.612361207253993 -531.7465573214846 -4.350666924424986 -535.2521900876044 -2.8660721450205826 -538.99247130211 A 539 539 0 0 1 2.86607 -538.992C 4.350666924424789 -535.2521900876044 5.612361207253797 -531.7465573214846 6.683285047896128 -528.4925123662505 C 7.084525084382806 -527.2733162846445 7.458951763450757 -526.0895105000772 7.808279410079786 -524.9419326806567 A 2.625 2.625 0 0 0 10.3937 -523.147A 523.25 523.25 0 0 1 11.2342 -523.129A 2.625 2.625 0 0 0 13.8916 -524.816C 14.288055457518768 -525.9483439377512 14.711083029299392 -527.1156652932855 15.162363556526847 -528.3172386526892 C 16.366845893439997 -531.5242479671759 17.772332568295802 -534.9747465921604 19.4102261699344 -538.6504818617803 A 539 539 0 0 1 25.1375 -538.414C 26.466233375685903 -534.6151641949263 27.581979682970317 -531.0603866024463 28.51751537192441 -527.7648654876857 C 28.86802940579862 -526.5301296599312 29.193215490453568 -525.3318619586558 29.49482110303432 -524.1708284919612 A 2.625 2.625 0 0 0 32.0039 -522.27A 523.25 523.25 0 0 1 32.8429 -522.218A 2.625 2.625 0 0 0 35.5678 -523.794C 36.01065177541623 -524.908603452382 36.48155750439926 -526.0574460299285 36.98210751715677 -527.2393437992013 C 38.31809051247284 -530.3938383513231 39.86496832894794 -533.7833077161521 41.653362439077355 -537.3882171088376 A 539 539 0 0 1 47.3659 -536.915C 48.53658271118567 -533.0647572621777 49.504474809075695 -529.4669081212245 50.303023999310206 -526.1355411894807 C 50.602213183224805 -524.8873751410272 50.877603098495975 -523.676692743311 51.13097138889867 -522.5041872355441 A 2.625 2.625 0 0 0 53.5593 -520.502A 523.25 523.25 0 0 1 54.3955 -520.415A 2.625 2.625 0 0 0 57.1831 -521.877C 57.671724498819266 -522.9720654231472 58.189703850466 -524.1004664444338 58.7386681674533 -525.2606693710626 C 60.20386931663536 -528.3572597597927 61.88949545992857 -531.6799090129133 63.825334637211235 -535.2078336014379 A 539 539 0 0 1 69.5135 -534.499C 70.52400810930475 -530.6036181335961 71.34239237038715 -526.9688443090743 72.00259075400591 -523.6073231448678 C 72.24994392825897 -522.3478593464718 72.47506717509567 -521.1268306828825 72.67976526784632 -519.9448563400351 A 2.625 2.625 0 0 0 75.0233 -517.844A 523.25 523.25 0 0 1 75.8552 -517.722A 2.625 2.625 0 0 0 78.7008 -519.068C 79.23426604833631 -520.1420383927853 79.79843406361334 -521.2480700035953 80.39487478850353 -522.384595900342 C 81.98679081996639 -525.4179916529454 83.80828542608756 -528.6681441038448 85.88826232176204 -532.1130564882283 A 539 539 0 0 1 91.5422 -531.17C 92.39094442258127 -527.2359516240975 93.05842265107404 -523.5704630661146 93.57914229021321 -520.1845307719664 C 93.77423685605575 -518.9159209964002 93.94870881516715 -517.6866321739274 94.104386987008 -516.4972083793372 A 2.625 2.625 0 0 0 96.3591 -514.301A 523.25 523.25 0 0 1 97.1852 -514.145A 2.625 2.625 0 0 0 100.084 -515.372C 100.66143718343352 -516.423357415005 101.27082999075044 -517.5051299788848 101.91372811457008 -518.6160371103194 C 103.62963926647774 -521.5810557210368 105.5838903424472 -524.7531585387727 107.804451350878 -528.1091731439934 A 539 539 0 0 1 113.415 -526.933C 114.10003235713359 -522.9675113354225 114.61546417768005 -519.2775704696926 114.99581543157102 -515.8730118541296 C 115.13831807320993 -514.5974234999145 115.26184066218056 -513.3619747378904 115.36823293956647 -512.1671336021581 A 2.625 2.625 0 0 0 117.53 -509.88A 523.25 523.25 0 0 1 118.349 -509.69A 2.625 2.625 0 0 0 121.296 -510.796C 121.91662994165792 -511.8223757938775 122.57020640362578 -512.878041120548 123.25846354571468 -513.9614315204717 C 125.0954382126478 -516.8530073047434 127.17910695328405 -519.9416410048625 129.5364582832373 -523.2030241362634 A 539 539 0 0 1 135.093 -521.796C 135.61418230038592 -517.805589826203 135.97668710636682 -514.0975008547978 136.21602015127257 -510.6801325491044 C 136.30568740533505 -509.3997449375461 136.3780495878937 -508.16024697945653 136.43497420140343 -506.96202986861977 A 2.625 2.625 0 0 0 138.501 -504.587A 523.25 523.25 0 0 1 139.311 -504.364A 2.625 2.625 0 0 0 142.301 -505.347C 142.96353018272995 -506.3469542293229 143.66017367492697 -507.3747087322818 144.3926139595031 -508.42873144636974 C 146.3475137010578 -511.2419241954736 148.55704019327015 -514.2418118991097 151.04715434954224 -517.402991538319 A 539 539 0 0 1 156.541 -515.767C 156.896637688052 -511.75900615274804 157.1055961460872 -508.0391042834736 157.20350208551523 -504.6147648040753 C 157.24018075700184 -503.33176545593 157.26125890357346 -502.0903359632443 157.26861859845974 -500.89079001113726 A 2.625 2.625 0 0 0 159.234 -498.433A 523.25 523.25 0 0 1 160.035 -498.176A 2.625 2.625 0 0 0 163.063 -499.034C 163.76617963064157 -500.0064473872359 164.50469994934718 -501.0045351651552 165.28007201447076 -502.0273894132811 C 167.34955691723124 -504.7573928345953 169.68116622207168 -507.66340928392896 172.29978888639732 -510.7189846085606 A 539 539 0 0 1 177.721 -508.858C 177.91103780210716 -504.83809080183465 177.9660929101763 -501.1127314246347 177.92240447347137 -497.6872711980902 C 177.9060318974872 -496.4038520962224 177.8757899964119 -495.16261203040426 177.83357219875944 -493.9637866411642 A 2.625 2.625 0 0 0 179.696 -491.426A 523.25 523.25 0 0 1 180.485 -491.137A 2.625 2.625 0 0 0 183.546 -491.87C 184.2890373077663 -492.8116879171972 185.06817270340443 -493.77840375385074 185.88515183890874 -494.7683420066897 C 188.06568622263342 -497.4104919351637 190.51539482471645 -500.2176722498383 193.25805212419996 -503.16242286070633 A 539 539 0 0 1 198.598 -501.079C 198.6214798924638 -497.05466804124455 198.5225375898383 -493.33021587012365 198.33732941796174 -489.90948723776904 C 198.2679335667781 -488.62784108218557 198.18642328583667 -487.3889110810662 198.0947001240446 -486.1928544277608 A 2.625 2.625 0 0 0 199.851 -483.581A 523.25 523.25 0 0 1 200.627 -483.259A 2.625 2.625 0 0 0 203.716 -483.864C 204.49704025602637 -484.7749679450718 205.31545958884325 -485.70866022266887 206.1726499995798 -486.66399118732176 C 208.4605084578517 -489.2137735541238 211.02413107112352 -491.9173217136611 213.88613722177575 -494.7462165537438 A 539 539 0 0 1 219.135 -492.444C 218.99258051622093 -488.4220357182001 218.73980984416505 -484.7048539172164 218.41339836217168 -481.2947011365388 C 218.29109779743632 -480.0170175981973 218.15845839557636 -478.782514352901 218.01738657712798 -477.5912698782591 A 2.625 2.625 0 0 0 219.664 -474.909A 523.25 523.25 0 0 1 220.427 -474.555A 2.625 2.625 0 0 0 223.538 -475.032C 224.3556634413651 -475.9100180721196 225.21196845565927 -476.80909159306634 226.10790564619032 -477.72818310260527 C 228.49917941121134 -480.18124164733325 231.17233612944096 -482.7765386850536 234.14880144176254 -485.4847446349703 A 539 539 0 0 1 239.299 -482.967C 238.98953598967904 -478.95494254021656 238.5833688026459 -475.25138185212285 238.11631167907728 -471.857631111944 C 237.94131534925347 -470.5860930917371 237.75777343866815 -469.3581257303502 237.56759398239885 -468.17372865557405 A 2.625 2.625 0 0 0 239.102 -465.425A 523.25 523.25 0 0 1 239.849 -465.041A 2.625 2.625 0 0 0 242.978 -465.389C 243.8309787391912 -466.2319839164923 244.7237064522099 -467.09490262875977 245.65685972887448 -467.9761844307581 C 248.14746334952977 -470.3283281440374 250.92558712930523 -472.81094003848693 254.01142636223906 -475.39383017380135 A 539 539 0 0 1 259.053 -472.666C 258.57818184985314 -468.66956287718165 258.0193120776685 -464.98595077328764 257.4124072717855 -461.6144002398184 C 257.1850141551673 -460.35118013912415 256.950883314132 -459.13184662328484 256.7119211384526 -457.9563204709089 A 2.625 2.625 0 0 0 258.131 -455.147A 523.25 523.25 0 0 1 258.862 -454.732A 2.625 2.625 0 0 0 262.002 -454.95C 262.88971290000944 -455.7574002371995 263.81733810143015 -456.5826898586429 264.7861131875083 -457.4246562979251 C 267.37179150929086 -459.6718665816779 270.2501359727363 -462.03755183207977 273.4400770217167 -464.49071332832256 A 539 539 0 0 1 278.364 -461.557C 277.72505122388327 -457.5834691277163 277.01443368617805 -453.92609899751045 276.2687180846611 -450.5825089082808 C 275.98931667857374 -449.32976491745114 275.7049969157028 -448.1211484580175 275.41766028348206 -446.9565015947541 A 2.625 2.625 0 0 0 276.72 -444.091A 523.25 523.25 0 0 1 277.433 -443.646A 2.625 2.625 0 0 0 280.579 -443.735C 281.499304396208 -444.5041626847507 282.4602422539346 -445.2904132218956 283.46298401344256 -446.09162581292384 C 286.13931944831336 -448.2300633460764 289.11296699219616 -450.4747802188637 292.40155989645075 -452.79402189076944 A 539 539 0 0 1 297.2 -449.659C 296.39743200662423 -445.715601697027 295.53628078154134 -442.0907220960259 294.65302842698634 -438.78080491861584 C 294.3220960840453 -437.5406773297449 293.98807315488443 -436.34484282766374 293.6528529759384 -435.1930650331424 A 2.625 2.625 0 0 0 294.835 -432.276A 523.25 523.25 0 0 1 295.53 -431.802A 2.625 2.625 0 0 0 298.677 -431.761C 299.62795905288436 -432.4914972267355 300.6205678207063 -433.2373653837283 301.65556308616857 -433.9964552682307 C 304.41798315993157 -436.02246656612914 307.4818533573047 -438.142380000179 310.86347961102155 -440.32373946225545 A 539 539 0 0 1 315.529 -436.993C 314.56342274873083 -433.08623663754025 313.5532090986928 -429.5000406117362 312.5339290129314 -426.2294512841209 C 312.15203112549335 -425.00405883439157 311.7688757026138 -423.8230493528501 311.38634469499516 -422.68610842011196 A 2.625 2.625 0 0 0 312.447 -419.723A 523.25 523.25 0 0 1 313.121 -419.22A 2.625 2.625 0 0 0 316.264 -419.049C 317.2447043676591 -419.73992730058086 318.26728819014716 -420.4441387741869 319.33276868951435 -421.15980905982946 C 322.17655385381204 -423.0699327161567 325.3254121338385 -425.0614208749277 328.7942942852885 -427.1011713111254 A 539 539 0 0 1 333.318 -423.58C 332.19198715974784 -419.7169510076073 331.0344370178299 -416.17556551275334 329.8808706237906 -412.9498917819362 C 329.4486596579901 -411.7413280337933 329.0170263560045 -410.5771613076798 328.5878380675229 -409.4569996812368 A 2.625 2.625 0 0 0 329.526 -406.452A 523.25 523.25 0 0 1 330.178 -405.922A 2.625 2.625 0 0 0 333.311 -405.621C 334.319442426675 -406.27123874960364 335.3702542365219 -406.9325904063333 336.4643996142338 -407.60361838243784 C 339.3846913098164 -409.39459098296874 342.6131579009455 -411.25425144234805 346.1633694231621 -413.14890797326285 A 539 539 0 0 1 350.537 -409.444C 349.25300713309053 -405.63058600746285 347.9500981542925 -402.1400614412717 346.664216300809 -398.96481431671236 C 346.18243068183085 -397.77514408104656 345.70305693899536 -396.62980906968403 345.2279446306421 -395.52834052688473 A 2.625 2.625 0 0 0 346.041 -392.487A 523.25 523.25 0 0 1 346.671 -391.931A 2.625 2.625 0 0 0 349.789 -391.501C 350.82300132638045 -392.10844260226116 351.9002458292361 -392.72580453390276 353.0211867562688 -393.3510437604284 C 356.01299571376103 -395.01980545851774 359.31555483497823 -396.7444610198056 362.94103025112906 -398.4907866565365 A 539 539 0 0 1 367.158 -394.609C 365.71733420232647 -390.8512079554164 364.271292384783 -387.4175078205572 362.85529197943174 -384.2981121587045 C 362.3247548299243 -383.1293679671571 361.7984596482371 -382.0048214562 361.27823504142134 -380.923927837573 A 2.625 2.625 0 0 0 361.965 -377.852A 523.25 523.25 0 0 1 362.571 -377.27A 2.625 2.625 0 0 0 365.669 -376.711C 366.72718501323646 -377.2757357581955 367.82902175493797 -377.8480532122448 368.9748431225209 -378.4264354784612 C 372.0330578865054 -379.9701352227406 375.4040671709511 -381.556839340841 379.0986124171037 -383.1518505153315 A 539 539 0 0 1 383.152 -379.099C 381.5568393408409 -375.40406717095124 379.9701352227405 -372.0330578865055 378.4264354784611 -368.974843122521 C 377.8480532122447 -367.8290217549381 377.27573575819537 -366.7271850132366 376.7112876479312 -365.6687130073978 A 2.625 2.625 0 0 0 377.27 -362.571A 523.25 523.25 0 0 1 377.852 -361.965A 2.625 2.625 0 0 0 380.924 -361.278C 382.0048214561995 -361.79845964823755 383.1293679671566 -362.32475482992476 384.29811215870404 -362.8552919794322 C 387.41750782055675 -364.27129238478346 390.85120795541593 -365.7173342023269 394.6085109629916 -367.1583058647412 A 539 539 0 0 1 398.491 -362.941C 396.74446101980516 -359.3155548349787 395.0198054585173 -356.0129957137615 393.35104376042796 -353.02118675626923 C 392.72580453390225 -351.90024582923655 392.1084426022607 -350.8230013263809 391.5007353386762 -349.78875931499687 A 2.625 2.625 0 0 0 391.931 -346.671A 523.25 523.25 0 0 1 392.487 -346.041A 2.625 2.625 0 0 0 395.528 -345.228C 396.6298090696839 -345.70305693899553 397.77514408104645 -346.182430681831 398.96481431671225 -346.6642163008092 C 402.1400614412716 -347.9500981542927 405.63058600746274 -349.25300713309065 409.44422748730034 -350.5374774075151 A 539 539 0 0 1 413.149 -346.163C 411.25425144234794 -342.61315790094574 409.3945909829686 -339.38469130981656 407.60361838243773 -336.46439961423397 C 406.9325904063332 -335.37025423652204 406.2712387496035 -334.31944242667515 405.62131059036443 -333.3111973948732 A 2.625 2.625 0 0 0 405.922 -330.178A 523.25 523.25 0 0 1 406.452 -329.526A 2.625 2.625 0 0 0 409.457 -328.588C 410.5771613076796 -329.0170263560047 411.7413280337932 -329.4486596579903 412.94989178193606 -329.88087062379077 C 416.1755655127532 -331.03443701783004 419.7169510076071 -332.191987159748 423.5804154172107 -333.3177615502653 A 539 539 0 0 1 427.101 -328.794C 425.06142087492753 -325.32541213383865 423.0699327161566 -322.1765538538122 421.15980905982934 -319.3327686895145 C 420.4441387741868 -318.2672881901473 419.7399273005807 -317.24470436765927 419.0488886370448 -316.26417888516346 A 2.625 2.625 0 0 0 419.22 -313.121A 523.25 523.25 0 0 1 419.723 -312.447A 2.625 2.625 0 0 0 422.686 -311.386C 423.8230493528497 -311.76887570261437 425.0040588343912 -312.152031125494 426.22945128412044 -312.533929012932 C 429.50004061173576 -313.5532090986934 433.0862366375398 -314.5634227487314 436.99292331277366 -315.5285778886797 A 539 539 0 0 1 440.324 -310.863C 438.14238000017855 -307.4818533573053 436.0224665661287 -304.4179831599322 433.99645526823036 -301.65556308616914 C 433.2373653837279 -300.6205678207069 432.4914972267351 -299.62795905288493 431.760528686867 -298.67682833103413 A 2.625 2.625 0 0 0 431.802 -295.53A 523.25 523.25 0 0 1 432.276 -294.835A 2.625 2.625 0 0 0 435.193 -293.653C 436.3448428276636 -293.9880731548846 437.54067732974477 -294.3220960840455 438.78080491861573 -294.6530284269865 C 442.0907220960258 -295.5362807815415 445.7156016970269 -296.3974320066244 449.65883612923943 -297.2003189446372 A 539 539 0 0 1 452.794 -292.402C 450.4747802188636 -289.11296699219633 448.2300633460763 -286.13931944831353 446.0916258129237 -283.46298401344274 C 445.2904132218955 -282.4602422539348 444.5041626847506 -281.4993043962082 443.7345131160392 -280.5791934258858 A 2.625 2.625 0 0 0 443.646 -277.433A 523.25 523.25 0 0 1 444.091 -276.72A 2.625 2.625 0 0 0 446.956 -275.418C 448.1211484580174 -275.70499691570296 449.32976491745103 -275.9893166785739 450.58250890828066 -276.26871808466126 C 453.92609899751034 -277.0144336861782 457.58346912771617 -277.72505122388344 461.5565143670262 -278.3642982410953 A 539 539 0 0 1 464.491 -273.44C 462.03755183207966 -270.2501359727365 459.67186658167776 -267.37179150929103 457.42465629792497 -264.7861131875085 C 456.58268985864277 -263.8173381014303 455.75740023719936 -262.8897129000096 454.9503845730222 -262.00219367537403 A 2.625 2.625 0 0 0 454.732 -258.862A 523.25 523.25 0 0 1 455.147 -258.131A 2.625 2.625 0 0 0 457.956 -256.712C 459.13184662328456 -256.95088331413257 460.35118013912387 -257.1850141551679 461.6144002398181 -257.41240727178615 C 464.98595077328736 -258.0193120776691 468.66956287718136 -258.57818184985376 472.6656310424437 -259.05269680345884 A 539 539 0 0 1 475.394 -254.011C 472.81094003848665 -250.92558712930585 470.32832814403713 -248.14746334953037 467.9761844307578 -245.65685972887508 C 467.0949026287595 -244.7237064522105 466.231983916492 -243.8309787391918 465.3889809295738 -242.9775675719505 A 2.625 2.625 0 0 0 465.041 -239.849A 523.25 523.25 0 0 1 465.425 -239.102A 2.625 2.625 0 0 0 468.174 -237.568C 469.35812573035014 -237.75777343866832 470.58609309173704 -237.94131534925364 471.85763111194393 -238.11631167907746 C 475.2513818521228 -238.58336880264608 478.9549425402165 -238.98953598967924 482.9672064160033 -239.29850817883914 A 539 539 0 0 1 485.485 -234.149C 482.77653868505354 -231.17233612944116 480.1812416473332 -228.49917941121151 477.7281831026052 -226.1079056461905 C 476.8090915930663 -225.21196845565944 475.91001807211956 -224.35566344136527 475.0324680189225 -223.53781837018184 A 2.625 2.625 0 0 0 474.555 -220.427A 523.25 523.25 0 0 1 474.909 -219.664A 2.625 2.625 0 0 0 477.591 -218.017C 478.78251435290093 -218.15845839557656 480.01701759819724 -218.29109779743652 481.29470113653866 -218.41339836217185 C 484.7048539172163 -218.73980984416525 488.42203571820005 -218.99258051622112 492.44364041898365 -219.13548206713355 A 539 539 0 0 1 494.746 -213.886C 491.91732171366107 -211.02413107112372 489.21377355412375 -208.4605084578519 486.66399118732176 -206.17264999958002 C 485.7086602226688 -205.31545958884345 484.77496794507175 -204.49704025602657 483.86437010514123 -203.7161585554861 A 2.625 2.625 0 0 0 483.259 -200.627A 523.25 523.25 0 0 1 483.581 -199.851A 2.625 2.625 0 0 0 486.193 -198.095C 487.38891108106617 -198.18642328583684 488.6278410821855 -198.26793356677828 489.909487237769 -198.3373294179619 C 493.3302158701236 -198.5225375898385 497.0546680412445 -198.62147989246398 501.07874272285443 -198.59806666022635 A 539 539 0 0 1 503.162 -193.258C 500.21767224983824 -190.51539482471662 497.41049193516363 -188.06568622263362 494.76834200668964 -185.8851518389089 C 493.7784037538507 -185.0681727034046 492.81168791719716 -184.28903730776648 491.8695980316677 -183.54645310115535 A 2.625 2.625 0 0 0 491.137 -180.485A 523.25 523.25 0 0 1 491.426 -179.696A 2.625 2.625 0 0 0 493.964 -177.834C 495.1626120304042 -177.8757899964121 496.40385209622235 -177.9060318974874 497.6872711980901 -177.9224044734716 C 501.11273142463466 -177.9660929101765 504.8380908018346 -177.91103780210736 508.85776040017964 -177.72134978783413 A 539 539 0 0 1 510.719 -172.3C 507.6634092839289 -169.68116622207188 504.75739283459524 -167.34955691723147 502.02738941328107 -165.280072014471 C 501.0045351651551 -164.50469994934738 500.0064473872358 -163.76617963064177 499.0344750008737 -163.06316161062045 A 2.625 2.625 0 0 0 498.176 -160.035A 523.25 523.25 0 0 1 498.433 -159.234A 2.625 2.625 0 0 0 500.891 -157.269C 502.09033596324406 -157.26125890357412 503.33176545592977 -157.24018075700246 504.6147648040751 -157.20350208551585 C 508.03910428347336 -157.10559614608786 511.7590061527478 -156.89663768805266 515.7674031297475 -156.5409989705343 A 539 539 0 0 1 517.403 -151.047C 514.2418118991095 -148.5570401932708 511.24192419547336 -146.34751370105846 508.4287314463695 -144.39261395950373 C 507.3747087322816 -143.6601736749276 506.34695422932265 -142.9635301827306 505.3467599406455 -142.30127944379342 A 2.625 2.625 0 0 0 504.364 -139.311A 523.25 523.25 0 0 1 504.587 -138.501A 2.625 2.625 0 0 0 506.962 -136.435C 508.1602469794565 -136.37804958789394 509.399744937546 -136.30568740533528 510.6801325491044 -136.2160201512728 C 514.0975008547978 -135.97668710636708 517.805589826203 -135.61418230038615 521.7958659028612 -135.09320048240588 A 539 539 0 0 1 523.203 -129.536C 519.9416410048625 -127.17910695328428 516.8530073047434 -125.09543821264806 513.9614315204717 -123.2584635457149 C 512.8780411205479 -122.570206403626 511.8223757938774 -121.91662994165814 510.7956684180496 -121.29627792808358 A 2.625 2.625 0 0 0 509.69 -118.349A 523.25 523.25 0 0 1 509.88 -117.53A 2.625 2.625 0 0 0 512.167 -115.368C 513.3619747378903 -115.26184066218079 514.5974234999144 -115.13831807321017 515.8730118541295 -114.99581543157124 C 519.2775704696925 -114.61546417768028 522.9675113354225 -114.10003235713383 526.9328491919979 -113.41459752738835 A 539 539 0 0 1 528.109 -107.804C 524.7531585387727 -105.58389034244745 521.5810557210367 -103.62963926647797 518.6160371103196 -101.9137281145703 C 517.5051299788847 -101.27082999075068 516.4233574150048 -100.66143718343375 515.3718910643555 -100.08404375623087 A 2.625 2.625 0 0 0 514.145 -97.1852A 523.25 523.25 0 0 1 514.301 -96.3591A 2.625 2.625 0 0 0 516.497 -94.1044C 517.6866321739273 -93.94870881516783 518.9159209964001 -93.77423685605645 520.1845307719663 -93.5791422902139 C 523.5704630661145 -93.05842265107474 527.2359516240974 -92.39094442258195 531.1695765473788 -91.54222763498002 A 539 539 0 0 1 532.113 -85.8883C 528.6681441038447 -83.80828542608828 525.4179916529453 -81.98679081996708 522.3845959003419 -80.39487478850421 C 521.2480700035952 -79.79843406361404 520.1420383927851 -79.23426604833699 519.0676094799362 -78.70081767449061 A 2.625 2.625 0 0 0 517.722 -75.8552A 523.25 523.25 0 0 1 517.844 -75.0233A 2.625 2.625 0 0 0 519.945 -72.6798C 521.1268306828824 -72.4750671750959 522.3478593464716 -72.24994392825919 523.6073231448677 -72.00259075400614 C 526.9688443090743 -71.34239237038739 530.603618133596 -70.52400810930497 534.4988095913869 -69.51345938224132 A 539 539 0 0 1 535.208 -63.8253C 531.6799090129132 -61.889495459928796 528.3572597597927 -60.20386931663561 525.2606693710625 -58.738668167453525 C 524.1004664444337 -58.18970385046622 522.9720654231471 -57.67172449881949 521.8765095918732 -57.18313256592795 A 2.625 2.625 0 0 0 520.415 -54.3955A 523.25 523.25 0 0 1 520.502 -53.5593A 2.625 2.625 0 0 0 522.504 -51.131C 523.676692743311 -50.8776030984962 524.8873751410272 -50.60221318322503 526.1355411894807 -50.30302399931043 C 529.4669081212245 -49.50447480907592 533.0647572621777 -48.5365827111859 536.9148603852129 -47.36592855020914 A 539 539 0 0 1 537.388 -41.6534C 533.7833077161521 -39.864968328948166 530.3938383513231 -38.31809051247307 527.2393437992013 -36.982107517157 C 526.0574460299285 -36.48155750439949 524.908603452382 -36.010651775416456 523.7937924414432 -35.567751034601145 A 2.625 2.625 0 0 0 522.218 -32.8429A 523.25 523.25 0 0 1 522.27 -32.0039A 2.625 2.625 0 0 0 524.171 -29.4948C 525.3318619586558 -29.193215490454257 526.5301296599312 -28.868029405799312 527.7648654876856 -28.517515371925107 C 531.0603866024463 -27.581979682971014 534.6151641949263 -26.466233375686603 538.4136011466039 -25.137473823793528 A 539 539 0 0 1 538.65 -19.4102C 534.9747465921604 -17.772332568296502 531.5242479671759 -16.366845893440694 528.3172386526893 -15.16236355652754 C 527.1156652932855 -14.711083029300084 525.9483439377512 -14.288055457519457 524.8161823830594 -13.891602597266584 A 2.625 2.625 0 0 0 523.129 -11.2342A 523.25 523.25 0 0 1 523.147 -10.3937A 2.625 2.625 0 0 0 524.942 -7.80828" stroke="#191919" stroke-width="0.35 px" style="stroke-width:0.35;stroke-miterlimit:4;stroke-dasharray:none;fill:none;fill-rule: evenodd "/>
<title>b'InvoluteGear'</title>
</g>
</svg>