<?xml version="1.0"?>
<!DOCTYPE svg PUBLIC "-//W3C//DTD SVG 1.1//EN" "http://www.w3.org/Graphics/SVG/1.1/DTD/svg11.dtd">
<svg width="1113.8248225635766mm" height="1113.714581263448mm" viewBox="0 0 1113.8248225635766 1113.714581263448" xmlns="http://www.w3.org/2000/svg" version="1.1">
<g id="InvoluteGear" transform="translate(556.912411,556.857291) scale(1,-1)">
<path id="InvoluteGear_w0000"  d="M 531.9426487403358 -7.811430798242798 C 533.090598223585 -7.461075025296382 534.2741848937404 -7.085962117879291 535.492595916584 -6.684428534852026 C 538.7497279254436 -5.611013741813363 542.255227625641 -4.34901659664316 545.9925600801845 -2.8671178462092595 A 546 546 0 0 1 545.993 2.86712C 542.255227625641 4.34901659664316 538.7497279254436 5.611013741813363 535.492595916584 6.684428534852026 C 534.2741848937404 7.085962117879291 533.090598223585 7.461075025296382 531.9426504944397 7.811430050564022 A 2.625 2.625 0 0 0 530.148 10.3974A 530.25 530.25 0 0 1 530.131 11.2352A 2.625 2.625 0 0 0 531.819 13.8923C 532.9512865791279 14.289145830494618 534.1185879425736 14.712223395461283 535.3196070158576 15.163120084841221 C 538.530245365659 16.3684953906429 541.9813527075431 17.77242667717212 545.6551303968517 19.40553269695755 A 546 546 0 0 1 545.421 25.135C 541.6265722320721 26.463221361534146 538.0725147318575 27.58118389564264 534.7743102387249 28.52085158292969 C 533.5405351912252 28.872353746582345 532.3426331775653 29.198877658035045 531.1813502851724 29.50211795287659 A 2.625 2.625 0 0 0 529.283 32.0127A 530.25 530.25 0 0 1 529.232 32.8492A 2.625 2.625 0 0 0 530.809 35.5728C 531.9249301146776 36.015583813234635 533.0740033134942 36.485921864897165 534.2556314594985 36.985431187588915 C 537.4144323595638 38.32076077791458 540.805403315551 39.86428950072921 544.4095115992229 41.6458846460661 A 546 546 0 0 1 543.942 47.361C 540.0964328616975 48.5333807061021 536.499732939428 49.505447890841644 533.165945497904 50.30980448824661 C 531.9188599225544 50.610690191862716 530.708636355072 50.88808164052478 529.5359511401998 51.14370249139599 A 2.625 2.625 0 0 0 527.537 53.5748A 530.25 530.25 0 0 1 527.451 54.4085A 2.625 2.625 0 0 0 528.917 57.1942C 530.0132370992791 57.68207741106545 531.1421696145283 58.19889311815411 532.3024401298179 58.74618369018622 C 535.4041460677881 60.209245040715345 538.7293367013742 61.88980214858581 542.2577768968578 63.8169211301789 A 546 546 0 0 1 541.558 69.5083C 537.667356280491 70.5227610282036 534.0340002882317 71.3473149536777 530.6701786585041 72.01502168902547 C 529.411858206171 72.26479013804553 528.1913273825581 72.49258743322619 527.0091916640155 72.7001633844478 A 2.625 2.625 0 0 0 524.912 75.0477A 530.25 530.25 0 0 1 524.793 75.8772A 2.625 2.625 0 0 0 526.144 78.7204C 527.219389357293 79.25256488364164 528.3263021922166 79.8149980574161 529.4632839210249 80.40915896764308 C 532.5027324134712 81.997516957146 535.7566082730067 83.81230532861903 539.2035076398155 85.88174064710921 A 546 546 0 0 1 538.272 91.5398C 534.3433854466986 92.39476317440611 530.6794207469256 93.07043145198035 527.2911636781243 93.60037699330537 C 526.0237026990183 93.7986124727954 524.7948960723777 93.97643646837798 523.605277398404 94.13562203026467 A 2.625 2.625 0 0 0 521.414 96.3956A 530.25 530.25 0 0 1 521.261 97.2196A 2.625 2.625 0 0 0 522.495 100.115C 523.5480369725635 100.69114428333852 524.631087779988 101.29825880928709 525.742888328435 101.9383011355111 C 528.7150205133024 103.64931209886802 531.8921658435416 105.59531119779925 535.2517873578511 107.80361848232975 A 546 546 0 0 1 534.09 113.419C 530.1300527817328 114.1129833556669 526.4415776820957 114.63864140217441 523.0345245937275 115.02994370742303 C 521.7600326515632 115.17631627399112 520.5249954492551 115.30387099948426 519.3298738227309 115.41440122337818 A 2.625 2.625 0 0 0 517.049 117.583A 530.25 530.25 0 0 1 516.862 118.4A 2.625 2.625 0 0 0 517.976 121.344C 519.0052905488121 121.96213321050081 520.0626766975539 122.61291860641069 521.1474455833497 123.29777706134496 C 524.0473146399336 125.12859318966562 527.1424413960241 127.20256409260392 530.4091932993819 129.54606783363565 A 546 546 0 0 1 529.019 135.109C 525.0343709620048 135.64127373784734 521.327524565294 136.01604664734643 517.9073461609853 136.26805443244888 C 516.6279445218221 136.36232046340336 515.3887323413849 136.43939361655472 514.1900969243118 136.50108453580634 A 2.625 2.625 0 0 0 511.822 138.575A 530.25 530.25 0 0 1 511.603 139.384A 2.625 2.625 0 0 0 512.596 142.371C 513.5987110391413 143.0301282032754 514.6286726143085 143.72350130108055 515.6846043466974 144.45203600541498 C 518.5073837291387 146.3996100859355 521.5153403780505 148.59810087299135 524.6837854843066 151.07290053982578 A 546 546 0 0 1 523.068 156.575C 519.0648212470144 156.94380260621526 515.3457732332319 157.16706660618414 511.918162062402 157.27936042905253 C 510.63598016400516 157.3213630278879 509.39465555181636 157.34782632804036 508.1945013545539 157.3605752642028 A 2.625 2.625 0 0 0 505.744 159.336A 530.25 530.25 0 0 1 505.492 160.135A 2.625 2.625 0 0 0 506.362 163.16C 507.3372971615742 163.8600636631797 508.33811989377085 164.5948704117872 509.36345697859343 165.3658687914049 C 512.1044484491881 167.42695927927272 515.0202285439317 169.74631077949832 518.0850932888978 172.3482873123259 A 546 546 0 0 1 516.246 177.78C 512.2313393631326 177.9851140037981 508.50627972066746 178.0564974933425 505.07694070384224 178.02889045199086 C 503.7941126114442 178.01855970952664 502.55274162981544 177.99436911112872 501.3530661905827 177.95815484485593 A 2.625 2.625 0 0 0 498.824 179.832A 530.25 530.25 0 0 1 498.539 180.62A 2.625 2.625 0 0 0 499.286 183.678C 500.2314704215763 184.41727021832955 501.201488540135 185.19228760442388 502.19452440500316 186.00446640861114 C 504.8491658539544 188.17564282211652 507.66791636631814 190.6119947038346 510.62409958509517 193.33681736950334 A 546 546 0 0 1 508.565 198.689C 504.5452989665643 198.73018674432402 500.8204276895685 198.6495709126704 497.39506862310276 198.48210895629452 C 496.1137294774621 198.41946206703193 494.87437826588257 198.34465783294738 493.6771783260531 198.25954063931158 A 2.625 2.625 0 0 0 491.074 200.029A 530.25 530.25 0 0 1 490.757 200.805A 2.625 2.625 0 0 0 491.378 203.89C 492.29305776648823 204.66753242718758 493.23065677198093 205.48147051081537 494.1897386066995 206.3334779481059 C 496.7536116452999 208.61112657838012 499.470641043236 211.1604237743251 502.3132224605997 214.00355737441848 A 546 546 0 0 1 500.038 219.267C 496.0194927130209 219.1444927015303 492.30100948213044 218.9120117257746 488.88533153814456 218.6049735782742 C 487.60761400181485 218.49011481177786 486.37234533806566 218.36482144627192 485.1796135187887 218.23094299444176 A 2.625 2.625 0 0 0 482.506 219.893A 530.25 530.25 0 0 1 482.158 220.655A 2.625 2.625 0 0 0 482.653 223.763C 483.5352719007389 224.57714572678864 484.4388912521519 225.42864978833654 485.362422759658 226.31906777643485 C 487.83126007426125 228.69939770211207 490.4420461304783 231.3573971586893 493.16629455019137 234.31410957791647 A 546 546 0 0 1 490.678 239.48C 486.6681109656066 239.19405427782215 482.9622048291853 238.8100950996051 479.56189306652664 238.36399179567536 C 478.2899237742502 238.19711232302683 477.06079364111446 238.02153836454121 475.8745151267936 237.8391214819875 A 2.625 2.625 0 0 0 473.136 239.39A 530.25 530.25 0 0 1 472.757 240.138A 2.625 2.625 0 0 0 473.124 243.264C 473.97268929460347 244.11297253065857 474.84082500670377 245.0006253256504 475.7272690599456 245.9279718516899 C 478.09696151448907 248.40702124852163 480.5971588332527 251.16929898795138 483.19854001267436 254.23466907028597 A 546 546 0 0 1 480.502 259.295C 476.50671817635987 258.8455009566302 472.8195572494391 258.3107026381113 469.4402711514626 257.7262766726761 C 468.17616717059695 257.50765424828836 466.9552213338794 257.28209192234976 465.77737056802886 257.05144022397087 A 2.625 2.625 0 0 0 462.977 258.49A 530.25 530.25 0 0 1 462.568 259.221A 2.625 2.625 0 0 0 462.808 262.36C 463.62122592310646 263.24249738305673 464.45243306967683 264.164821501017 465.3003142700104 265.1275530882242 C 467.56691774526644 267.70119582314464 469.952364994882 270.5631543067366 472.4265491917672 273.7320800461954 A 546 546 0 0 1 469.526 278.678C 465.55222698075914 278.0661248443424 461.8899481788188 277.38137750454416 458.53731223373575 276.65960159694635 C 457.2831775406036 276.38960009626913 456.07244814415543 276.11442482910854 454.9049855431337 275.8359222118936 A 2.625 2.625 0 0 0 452.049 277.159A 530.25 530.25 0 0 1 451.61 277.873A 2.625 2.625 0 0 0 451.722 281.019C 452.4981107754524 281.9338810777434 453.2910058942285 282.889341401201 454.0989130270724 283.88585567786015 C 456.2586549852457 286.5498081765278 458.52538182418397 289.50668395683016 460.8682510031123 292.7738909892585 A 546 546 0 0 1 457.768 297.598C 453.82287004830977 296.8239351093652 450.19156887298857 295.9903784426574 446.8711632124606 295.13245391766384 C 445.6290851904892 294.81152273154873 444.43058737390487 294.48719252524154 443.27545606399553 294.16130252931174 A 2.625 2.625 0 0 0 440.368 295.367A 530.25 530.25 0 0 1 439.9 296.062A 2.625 2.625 0 0 0 439.884 299.21C 440.6218571790737 300.15601365119556 441.37512057438045 301.1430199107358 442.14170895804375 302.17165827717855 C 444.19099472178806 304.9214866535626 446.33522840692706 307.96835830265076 448.5428830933659 311.32840868438103 A 546 546 0 0 1 445.249 316.022C 441.3381697360654 315.0877112277049 437.7438901297996 314.10673260689634 434.46124124136054 313.1140873952109 C 433.2332872068378 312.7427606819449 432.04901575145436 312.36981535211163 430.90813833472373 311.99708038920335 A 2.625 2.625 0 0 0 427.954 313.083A 530.25 530.25 0 0 1 427.458 313.759A 2.625 2.625 0 0 0 427.313 316.903C 428.01223198602395 317.87856616207205 428.72460992527886 318.89547558318264 429.448603649051 319.9545259723635 C 431.3840223844548 322.7856534085097 433.40219405043825 325.91744970921695 435.47095982103355 329.36475096798944 A 546 546 0 0 1 431.988 333.92C 428.11890559559123 332.8270549464495 424.56762988206884 331.7002871136425 421.3282014108318 330.5745733752568 C 420.1164151720625 330.1534691715082 418.9483411808425 329.7325294488446 417.82361653515864 329.3135698995187 A 2.625 2.625 0 0 0 414.827 330.278A 530.25 530.25 0 0 1 414.305 330.933A 2.625 2.625 0 0 0 414.031 334.069C 414.6902226730035 335.0720411707422 415.36052947343063 336.11716120804977 416.04072352120863 337.2048609351127 C 417.85905391479184 340.1125752988052 419.7478045140533 343.3240836852634 421.67423811234477 346.85289812834407 A 546 546 0 0 1 418.008 351.262C 414.1870797874508 350.0124408786602 410.68471871462464 348.74175922771275 407.49390236958334 347.4848506020485 C 406.30030082517163 347.01466979420593 405.15036844199733 346.5464362913383 404.0436685605348 346.0819494724179 A 2.625 2.625 0 0 0 401.01 346.923A 530.25 530.25 0 0 1 400.462 347.556A 2.625 2.625 0 0 0 400.061 350.678C 400.678002409776 351.7078218348638 401.30512241185806 352.7794129892082 401.94038466777727 353.89395168530183 C 403.63860028804913 356.87341337294214 405.3947861816155 360.1592886063831 407.17568124899685 363.76374287038726 A 546 546 0 0 1 403.333 368.02C 399.5658804607815 366.61526564546404 396.11826336301226 365.2027851005816 392.981369943074 363.81677358800306 C 391.8079397249951 363.29829874561943 390.6780628988324 362.7835507910037 389.5912297743246 362.274309794959 A 2.625 2.625 0 0 0 386.526 362.991A 530.25 530.25 0 0 1 385.952 363.601A 2.625 2.625 0 0 0 385.424 366.705C 385.9988931541152 367.75821953929284 386.58178257849875 368.85449825295217 387.1710557112276 369.99402087840963 C 388.74633004588367 373.04027087005926 390.3670282356515 376.39504393543723 391.9994206480382 380.069138761963 A 546 546 0 0 1 387.986 384.165C 384.27964315890864 382.6078954835557 380.892508254613 381.0559669792088 377.81475880929804 379.5431594590942 C 376.66345297634496 378.9772535323769 375.55551227566446 378.41684787318337 374.4903548345884 377.86370028139584 A 2.625 2.625 0 0 0 371.399 378.455A 530.25 530.25 0 0 1 370.8 379.041A 2.625 2.625 0 0 0 370.146 382.12C 370.6773268347082 383.1965199810506 371.2150155194711 384.3156616062967 371.7573187420351 385.4782715381665 C 373.20702990240795 388.58623965134626 374.68954289618574 392.0043268599737 376.1707156975068 395.7419470807756 A 546 546 0 0 1 371.994 399.671C 368.3538103152352 397.96371223886905 365.03279515618794 396.2749188068945 362.0193122957074 394.6378331980635 C 360.8920470828177 394.02543808157867 359.8078865655739 393.4203074577212 358.7661776573708 392.8241739297676 A 2.625 2.625 0 0 0 355.653 393.289A 530.25 530.25 0 0 1 355.031 393.85A 2.625 2.625 0 0 0 354.252 396.9C 354.73880468662094 397.99702763264474 355.23039770201154 399.1371694686896 355.72482840421617 400.3209316574771 C 357.04656348915006 403.4854449859854 358.38842379036765 406.9611572690316 359.715911714671 410.7560819841149 A 546 546 0 0 1 355.382 414.511C 351.8148889068223 412.65715766986756 348.5655209950074 410.83431014026735 345.6213203641844 409.07567121015313 C 344.51997199305623 408.41780617513547 343.46139613743503 407.7689577668176 342.4448695837773 407.1308305081233 A 2.625 2.625 0 0 0 339.315 407.468A 530.25 530.25 0 0 1 338.671 408.004A 2.625 2.625 0 0 0 337.768 411.019C 338.2098548070094 412.13510850973904 338.6545339449685 413.2943529030162 339.10026919570487 414.4972970933827 C 340.2918283075919 417.7130886170874 341.490802522205 421.2406409944724 342.66239609684925 425.08655392616674 A 546 546 0 0 1 338.179 428.662C 334.69040633614185 426.6637759867152 331.51809392377106 424.7099083093071 328.6480758539949 422.83264313885024 C 327.57447741030074 422.13040313672633 326.54324811134404 421.4389168880894 325.55359582036 420.75985799850025 A 2.625 2.625 0 0 0 322.413 420.969A 530.25 530.25 0 0 1 321.747 421.478A 2.625 2.625 0 0 0 320.722 424.454C 321.1179880017201 425.5872311719889 321.51501313770757 426.76364867461064 321.91131105464007 427.98377268466885 C 322.9707109609325 431.2454900359425 324.0248035146866 434.81901124486546 325.0385527377904 438.7095112506459 A 546 546 0 0 1 320.413 442.099C 317.0088646144319 439.9602545555251 313.9188877024428 437.87861875023253 311.127829055551 435.8858518620436 C 310.0837674379478 435.1404057019935 309.08160107505256 434.40743252365615 308.12047022531254 433.6885722296782 A 2.625 2.625 0 0 0 304.974 433.77A 530.25 530.25 0 0 1 304.288 434.251A 2.625 2.625 0 0 0 303.142 437.183C 303.4916519962682 438.33100588880177 303.84036232112726 439.5226384699346 304.18656330548345 440.7579115236828 C 305.11204073958856 444.06012589589034 306.01949719945554 447.67366816296675 306.87371478548306 451.6022798895239 A 546 546 0 0 1 302.114 454.8C 298.79969292291156 452.5244626999378 295.7971944729269 450.3185234441237 293.0897406905899 448.2135716020235 C 292.07695363660275 447.42616000561316 291.10551821677694 446.65291985909425 290.1745085157272 445.89545463274305 A 2.625 2.625 0 0 0 287.027 445.848A 530.25 530.25 0 0 1 286.322 446.301A 2.625 2.625 0 0 0 285.058 449.184C 285.36018408740665 450.34522190483403 285.6599992072154 451.5500862096479 285.95552704162316 452.79845231699613 C 286.7455416376864 456.13566750020783 287.5048516319449 459.78321644095166 288.1981158200262 463.74340110177815 A 546 546 0 0 1 283.312 466.745C 280.0931986308136 464.3354885354482 277.18317600518924 462.00891739730156 274.5638333770315 459.7952840858954 C 273.5840065707605 458.96721762201804 272.6449189523903 458.15499748923105 271.7455799737977 457.3601880566222 A 2.625 2.625 0 0 0 268.603 457.184A 530.25 530.25 0 0 1 267.88 457.608A 2.625 2.625 0 0 0 266.499 460.437C 266.7537623140899 461.6098827432 267.0041832161701 462.8259733939666 267.24854602371437 464.08535477272943 C 267.90178288040653 467.45201630161984 268.51168261250683 471.12750093079273 269.04283953281856 475.11266718934786 A 546 546 0 0 1 264.038 477.912C 260.9205168517586 475.3736737751733 258.10781349596726 472.93034310274624 255.58094165929248 470.6117126962193 C 254.63570592575846 469.7443695997829 253.7305291275069 468.8945213409815 252.86435773234626 468.0636905839765 A 2.625 2.625 0 0 0 249.731 467.76A 530.25 530.25 0 0 1 248.992 468.154A 2.625 2.625 0 0 0 247.497 470.924C 247.70335522910767 472.10623948763407 247.90396511258143 473.3315324214802 248.09675617548518 474.5998329556399 C 248.6121280445257 477.9903373543473 249.07160239655408 481.68764019051446 249.4397679908218 485.6911551308536 A 546 546 0 0 1 244.325 488.284C 241.31355862243194 485.62064644913085 238.60285600362604 483.06462292519745 236.1726606872315 480.6448545550376 C 235.26358927802835 479.7396784330288 234.393829877345 478.853616536769 233.56226772242184 477.98814729116896 A 2.625 2.625 0 0 0 230.444 477.557A 530.25 530.25 0 0 1 229.689 477.92A 2.625 2.625 0 0 0 228.082 480.627C 228.24067035498408 481.81682198821187 228.39113532449852 483.04927782597224 228.53203376106381 484.3243865544574 C 228.90868285683825 487.73309066301596 229.216967079081 491.4460579104905 229.421528572007 495.461258077099 A 546 546 0 0 1 224.205 497.843C 221.3049577898121 495.0593514825704 218.70076760498364 492.3948893560343 216.37129362913953 489.8780104878889 C 215.4998996039124 488.9365079166316 214.66700522948386 488.015707145495 213.8714363679388 487.1170398994467 A 2.625 2.625 0 0 0 210.774 486.559A 530.25 530.25 0 0 1 210.004 486.891A 2.625 2.625 0 0 0 208.289 489.53C 208.39810140993595 490.72546793869054 208.49817103139858 491.9630353792533 208.5869423300829 493.2428300094246 C 208.82424175734255 496.66406037624796 208.98082274113602 500.3865121674759 209.02143966030334 504.4067146559333 A 546 546 0 0 1 203.713 506.574C 200.92801669535282 503.67407908246145 198.434673362059 500.90561308757884 196.20979790630432 498.2958128179352 C 195.37753161441103 497.31955083554334 194.58288853672585 496.36554377154033 193.824637114415 495.43517426798616 A 2.625 2.625 0 0 0 190.752 494.751A 530.25 530.25 0 0 1 189.97 495.052A 2.625 2.625 0 0 0 188.148 497.619C 188.20867439172588 498.8173497770723 188.25818210912752 500.057969011567 188.294678518865 501.3403194515645 C 188.39223331613206 504.7683817763454 188.3968504478816 508.494122457686 188.27345519043672 512.5126360377006 A 546 546 0 0 1 182.881 514.462C 180.21665074652253 511.4504908848945 177.83830418867572 508.58262886009624 175.72173033863544 505.88425094394404 C 174.92997700518316 504.87485444214076 174.17490782922152 503.88922893587926 173.45523588080607 502.9287056830405 A 2.625 2.625 0 0 0 170.413 502.12A 530.25 530.25 0 0 1 169.619 502.389A 2.625 2.625 0 0 0 167.694 504.879C 167.70599260914773 506.07899936461826 167.70485602177865 507.32060550476484 167.6890167978971 508.60337740883523 C 167.64666459483914 512.0325660201466 167.4993101897846 515.7553944639261 167.2121081349557 519.7655307162277 A 546 546 0 0 1 161.744 521.493C 159.20533196795546 518.3756438198719 156.94594070868413 515.4131590384712 154.94119129264877 512.6306946595515 C 154.1912687129236 511.5898436791975 153.47703017681172 510.57424020706213 152.797135525226 509.5851619010999 A 2.625 2.625 0 0 0 149.791 508.653A 530.25 530.25 0 0 1 148.987 508.889A 2.625 2.625 0 0 0 146.961 511.299C 146.92418075263615 512.498330402236 146.87240175223386 513.7388569171472 146.80425325755823 515.0199152380519 C 146.62206454523755 518.444522589874 146.32298386024385 522.1582425155506 145.87245302750756 526.1533269641042 A 546 546 0 0 1 140.339 527.656C 137.92903162616912 524.438011653771 135.7923561992469 521.3858348793216 133.90276792477238 518.5239151749936 C 133.19592427089904 517.453342109825 132.52370515419264 516.4094510435662 131.88471941698594 515.3934639077095 A 2.625 2.625 0 0 0 128.919 514.339A 530.25 530.25 0 0 1 128.106 514.542A 2.625 2.625 0 0 0 125.984 516.868C 125.89782809708665 518.0646585469319 125.7954928646873 519.3020407026504 125.67514852566147 520.5792532452407 C 125.35342653920964 523.9935794166082 124.90311736456096 527.6920097038692 124.29000761802583 531.6653929248819 A 546 546 0 0 1 118.7 532.941C 116.42316202334212 529.6275041736224 114.41275871415039 526.4907154531483 112.64147661443768 523.5541038063196 C 111.9788883579202 522.4555905195496 111.34980750299836 521.3851493128261 110.75279420886933 520.3439443573956 A 2.625 2.625 0 0 0 107.832 519.17A 530.25 530.25 0 0 1 107.012 519.34A 2.625 2.625 0 0 0 104.797 521.576C 104.66193093142117 522.7687191948454 104.5092097939197 524.0008974908891 104.3368699118193 525.272138460935 C 103.87615012573231 528.6705006428925 103.27536195660919 532.3474856195201 102.50069375694103 536.2925543087501 A 546 546 0 0 1 96.8628 537.339C 94.72351755703197 533.9354839812731 92.84273248347388 530.7193041900326 91.1927046827716 527.7128883009779 C 90.57547463637269 526.5882631595606 89.99057908623492 525.4930534561203 89.43653190489289 524.4283636640085 A 2.625 2.625 0 0 0 86.5664 523.136A 530.25 530.25 0 0 1 85.7395 523.272A 2.625 2.625 0 0 0 83.4353 525.417C 83.2518343107191 526.6026829012678 83.04898145737697 527.8276064984656 82.82493287492767 529.09076004083 C 82.22598211182141 532.4675019949074 81.47571490084007 536.1169216822863 80.54077760680589 540.0271096622363 A 546 546 0 0 1 74.8649 540.843C 72.8662151439332 537.3547808694844 71.11817868715055 534.0645630213381 69.59215149389311 530.9933467726037 C 69.02130697611106 529.8444816040989 68.48157023167774 528.7263262724077 67.9714113199776 527.6399237147004 A 2.625 2.625 0 0 0 65.1564 526.232A 530.25 530.25 0 0 1 64.3246 526.334A 2.625 2.625 0 0 0 61.9348 528.383C 61.7031732278608 529.5601684119807 61.450526287233 530.7757985458916 61.17514191118914 532.028762266163 C 60.43895706549885 535.3782637386254 59.540459558388726 538.9940440378442 58.44680928084624 542.8628431865146 A 546 546 0 0 1 52.7424 543.447C 50.8876341068332 539.8797037560338 49.27525570099606 536.5209240938808 47.87576903684428 533.3900192218169 C 47.3522601620428 532.218826198917 46.858580561858844 531.0795862981748 46.39315902896196 529.9732791847132 A 2.625 2.625 0 0 0 43.6379 528.451A 530.25 530.25 0 0 1 42.8027 528.52A 2.625 2.625 0 0 0 40.3313 530.469C 40.05181330259942 531.6362532842229 39.74979278058512 532.8405666584587 39.42353096106316 534.0812551221785 C 38.55133733981101 537.3979411983846 37.506104997000726 540.9740639999736 36.255562008905486 544.79503508299 A 546 546 0 0 1 30.5321 545.146C 28.824355624820544 541.5060501559585 27.35031891466116 538.0842990370716 26.07970208705334 534.8989166238515 C 25.604400184089876 533.707345081759 25.15759940912897 532.54891676435 24.737689903244785 531.4245464341436 A 2.625 2.625 0 0 0 22.0468 529.791A 530.25 530.25 0 0 1 21.2095 529.826A 2.625 2.625 0 0 0 18.6607 531.673C 18.333791086775893 532.827482079612 17.982899666727835 534.0184742334137 17.606303434327863 535.2448224370768 C 16.599552717720385 538.5231728203736 15.409325225291433 542.0536860208542 14.003970932032065 545.8204694089374 A 546 546 0 0 1 8.27093 545.937C 6.713101847521981 542.2311131761792 5.37986022167295 538.7520857676058 4.240228046922543 535.5175275678936 C 3.813924208907417 534.3075607598449 3.4147459149650885 533.1318721153792 3.0410473340256274 531.9913099718798 A 2.625 2.625 0 0 0 0.419012 530.25A 530.25 530.25 0 0 1 -0.419012 530.25A 2.625 2.625 0 0 0 -3.04105 531.991C -3.414745914965021 533.1318721153792 -3.813924208907351 534.3075607598449 -4.240228046922476 535.5175275678936 C -5.379860221672883 538.7520857676058 -6.713101847521913 542.2311131761792 -8.270928372417515 545.9374394301202 A 546 546 0 0 1 -14.004 545.82C -15.409325225291365 542.0536860208542 -16.599552717720318 538.5231728203736 -17.606303434327796 535.2448224370768 C -17.982899666727768 534.0184742334137 -18.333791086775825 532.827482079612 -18.66065675836259 531.6726264759462 A 2.625 2.625 0 0 0 -21.2095 529.826A 530.25 530.25 0 0 1 -22.0468 529.791A 2.625 2.625 0 0 0 -24.7377 531.425C -25.157599409128785 532.5489167643501 -25.60440018408969 533.707345081759 -26.079702087053157 534.8989166238516 C -27.350318914660974 538.0842990370716 -28.824355624820353 541.5060501559586 -30.5320615328421 545.1457504614823 A 546 546 0 0 1 -36.2556 544.795C -37.506104997000534 540.9740639999737 -38.55133733981083 537.3979411983846 -39.42353096106297 534.0812551221786 C -39.74979278058493 532.8405666584587 -40.051813302599236 531.636253284223 -40.331302029181046 530.4690263635715 A 2.625 2.625 0 0 0 -42.8027 528.52A 530.25 530.25 0 0 1 -43.6379 528.451A 2.625 2.625 0 0 0 -46.3932 529.973C -46.858580561858666 531.0795862981748 -47.352260162042626 532.218826198917 -47.875769036844105 533.3900192218169 C -49.275255700995885 536.5209240938808 -50.88763410683302 539.8797037560338 -52.74237709002908 543.4467201911804 A 546 546 0 0 1 -58.4468 542.863C -59.54045955838855 538.9940440378442 -60.43895706549867 535.3782637386254 -61.17514191118896 532.028762266163 C -61.45052628723282 530.7757985458916 -61.703173227860624 529.5601684119807 -61.93481982803459 528.3825129083602 A 2.625 2.625 0 0 0 -64.3246 526.334A 530.25 530.25 0 0 1 -65.1564 526.232A 2.625 2.625 0 0 0 -67.9714 527.64C -68.48157023167757 528.7263262724078 -69.02130697611089 529.8444816040989 -69.59215149389294 530.9933467726038 C -71.11817868715038 534.0645630213382 -72.86621514393302 537.3547808694846 -74.86490816565089 540.8431764874238 A 546 546 0 0 1 -80.5408 540.027C -81.47571490083989 536.1169216822864 -82.22598211182124 532.4675019949075 -82.8249328749275 529.0907600408301 C -83.0489814573768 527.8276064984656 -83.25183431071893 526.6026829012679 -83.43525323158009 525.4165589060423 A 2.625 2.625 0 0 0 -85.7395 523.272A 530.25 530.25 0 0 1 -86.5664 523.136A 2.625 2.625 0 0 0 -89.4365 524.428C -89.99057908623486 525.4930534561203 -90.57547463637263 526.5882631595606 -91.19270468277153 527.7128883009779 C -92.84273248347382 530.7193041900326 -94.72351755703191 533.9354839812731 -96.86283398998631 537.3394526917657 A 546 546 0 0 1 -102.501 536.293C -103.27536195660913 532.3474856195201 -103.87615012573225 528.6705006428925 -104.33686991181924 525.272138460935 C -104.50920979391964 524.0008974908891 -104.66193093142111 522.7687191948454 -104.79681689027714 521.5761008943472 A 2.625 2.625 0 0 0 -107.012 519.34A 530.25 530.25 0 0 1 -107.832 519.17A 2.625 2.625 0 0 0 -110.753 520.344C -111.3498075029983 521.3851493128261 -111.97888835792014 522.4555905195496 -112.64147661443762 523.5541038063196 C -114.41275871415033 526.4907154531483 -116.42316202334204 529.6275041736224 -118.69954118645768 532.9413804066844 A 546 546 0 0 1 -124.29 531.665C -124.90311736456088 527.6920097038692 -125.35342653920958 523.9935794166082 -125.67514852566141 520.5792532452407 C -125.79549286468725 519.3020407026504 -125.89782809708659 518.0646585469319 -125.98395658957075 516.8675309366237 A 2.625 2.625 0 0 0 -128.106 514.542A 530.25 530.25 0 0 1 -128.919 514.339A 2.625 2.625 0 0 0 -131.885 515.393C -132.52370515419258 516.4094510435663 -133.19592427089896 517.4533421098251 -133.90276792477232 518.5239151749937 C -135.79235619924683 521.3858348793217 -137.92903162616906 524.438011653771 -140.33868471098288 527.6562797894566 A 546 546 0 0 1 -145.872 526.153C -146.3229838602438 522.1582425155506 -146.62206454523746 518.4445225898742 -146.80425325755817 515.019915238052 C -146.87240175223383 513.7388569171474 -146.9241807526361 512.4983304022361 -146.9614084263726 511.29868598288164 A 2.625 2.625 0 0 0 -148.987 508.889A 530.25 530.25 0 0 1 -149.791 508.653A 2.625 2.625 0 0 0 -152.797 509.585C -153.47703017681155 510.5742402070622 -154.19126871292343 511.58984367919754 -154.9411912926486 512.6306946595515 C -156.94594070868396 515.4131590384713 -159.20533196795526 518.375643819872 -161.74424834471426 521.4929473684772 A 546 546 0 0 1 -167.212 519.766C -167.4993101897844 515.7553944639262 -167.64666459483897 512.0325660201468 -167.68901679789693 508.6033774088353 C -167.70485602177848 507.3206055047649 -167.70599260914756 506.0789993646183 -167.69425750234743 504.87883482596186 A 2.625 2.625 0 0 0 -169.619 502.389A 530.25 530.25 0 0 1 -170.413 502.12A 2.625 2.625 0 0 0 -173.455 502.929C -174.17490782922135 503.8892289358793 -174.929977005183 504.8748544421408 -175.72173033863527 505.88425094394415 C -177.83830418867552 508.5826288600963 -180.21665074652236 511.4504908848946 -182.88060463948088 514.4616414023068 A 546 546 0 0 1 -188.273 512.513C -188.39685044788143 508.49412245768605 -188.39223331613192 504.76838177634545 -188.29467851886483 501.3403194515646 C -188.25818210912735 500.0579690115671 -188.2086743917257 498.81734977707237 -188.1479960363161 497.61866267454525 A 2.625 2.625 0 0 0 -189.97 495.052A 530.25 530.25 0 0 1 -190.752 494.751A 2.625 2.625 0 0 0 -193.825 495.435C -194.5828885367258 496.36554377154033 -195.37753161441097 497.31955083554334 -196.20979790630426 498.2958128179352 C -198.43467336205893 500.90561308757884 -200.92801669535277 503.67407908246145 -203.71257421615942 506.5740648058126 A 546 546 0 0 1 -209.021 504.407C -208.98082274113597 500.3865121674759 -208.8242417573425 496.66406037624796 -208.58694233008285 493.2428300094246 C -208.49817103139853 491.9630353792533 -208.3981014099359 490.72546793869054 -208.2885807990511 489.5302533686775 A 2.625 2.625 0 0 0 -210.004 486.891A 530.25 530.25 0 0 1 -210.774 486.559A 2.625 2.625 0 0 0 -213.871 487.117C -214.6670052294838 488.01570714549507 -215.49989960391235 488.9365079166317 -216.37129362913947 489.87801048788896 C -218.70076760498358 492.39488935603435 -221.30495778981205 495.05935148257043 -224.20548431727917 497.843345671821 A 546 546 0 0 1 -229.422 495.461C -229.21696707908094 491.44605791049054 -228.9086828568382 487.733090663016 -228.53203376106376 484.3243865544575 C -228.39113532449846 483.0492778259723 -228.24067035498402 481.8168219882119 -228.08248977487236 480.62706926741004 A 2.625 2.625 0 0 0 -229.689 477.92A 530.25 530.25 0 0 1 -230.444 477.557A 2.625 2.625 0 0 0 -233.562 477.988C -234.39382987734484 478.8536165367691 -235.26358927802818 479.7396784330289 -236.17266068723137 480.6448545550378 C -238.60285600362587 483.06462292519757 -241.3135586224318 485.62064644913096 -244.32522651640488 488.28401542070304 A 546 546 0 0 1 -249.44 485.691C -249.07160239655394 481.68764019051457 -248.61212804452552 477.9903373543474 -248.09675617548504 474.59983295564007 C -247.90396511258132 473.3315324214803 -247.7033552291075 472.1062394876342 -247.49677795573385 470.9239288420314 A 2.625 2.625 0 0 0 -248.992 468.154A 530.25 530.25 0 0 1 -249.731 467.76A 2.625 2.625 0 0 0 -252.864 468.064C -253.73052912750668 468.8945213409816 -254.6357059257582 469.744369599783 -255.5809416592923 470.6117126962194 C -258.1078134959671 472.9303431027464 -260.92051685175835 475.3736737751734 -264.0383134882469 477.91198461425944 A 546 546 0 0 1 -269.043 475.113C -268.5116826125066 471.12750093079285 -267.90178288040636 467.45201630162 -267.2485460237142 464.08535477272954 C -267.00418321616985 462.8259733939667 -266.75376231408967 461.6098827432001 -266.49913217493867 460.43698201218496 A 2.625 2.625 0 0 0 -267.88 457.608A 530.25 530.25 0 0 1 -268.603 457.184A 2.625 2.625 0 0 0 -271.746 457.36C -272.64491895239 458.15499748923116 -273.5840065707602 458.96721762201815 -274.5638333770312 459.7952840858955 C -277.183176005189 462.0089173973017 -280.09319863081333 464.3354885354483 -283.3119347450086 466.74451647416043 A 546 546 0 0 1 -288.198 463.743C -287.50485163194463 459.7832164409518 -286.7455416376862 456.13566750020794 -285.9555270416229 452.79845231699625 C -285.6599992072151 451.550086209648 -285.36018408740637 450.34522190483415 -285.05792488921526 449.18368326592065 A 2.625 2.625 0 0 0 -286.322 446.301A 530.25 530.25 0 0 1 -287.027 445.848A 2.625 2.625 0 0 0 -290.175 445.895C -291.10551821677683 446.65291985909437 -292.0769536366026 447.4261600056133 -293.0897406905898 448.2135716020236 C -295.7971944729268 450.3185234441238 -298.79969292291145 452.52446269993794 -302.11401124620585 454.80019814901726 A 546 546 0 0 1 -306.874 451.602C -306.01949719945543 447.67366816296686 -305.11204073958845 444.06012589589045 -304.18656330548333 440.75791152368294 C -303.8403623211271 439.52263846993475 -303.4916519962681 438.3310058888019 -303.1422668196427 437.18276260842333 A 2.625 2.625 0 0 0 -304.288 434.251A 530.25 530.25 0 0 1 -304.974 433.77A 2.625 2.625 0 0 0 -308.12 433.689C -309.0816010750524 434.4074325236562 -310.08376743794764 435.1404057019935 -311.1278290555508 435.8858518620436 C -313.91888770244265 437.8786187502326 -317.00886461443173 439.9602545555252 -320.4132487910634 442.098909777907 A 546 546 0 0 1 -325.039 438.71C -324.0248035146864 434.8190112448655 -322.9707109609323 431.24549003594257 -321.9113110546399 427.98377268466896 C -321.5150131377074 426.76364867461075 -321.11798800171994 425.58723117198895 -320.7220583638061 424.4541943877664 A 2.625 2.625 0 0 0 -321.747 421.478A 530.25 530.25 0 0 1 -322.413 420.969A 2.625 2.625 0 0 0 -325.554 420.76C -326.5432481113439 421.4389168880895 -327.57447741030063 422.13040313672644 -328.6480758539948 422.83264313885036 C -331.51809392377095 424.7099083093072 -334.69040633614173 426.66377598671534 -338.1791901046245 428.6617914018442 A 546 546 0 0 1 -342.662 425.087C -341.4908025222049 421.2406409944725 -340.2918283075918 417.7130886170875 -339.10026919570475 414.4972970933828 C -338.65453394496836 413.2943529030163 -338.20985480700926 412.13510850973915 -337.7680396936155 411.01916404958143 A 2.625 2.625 0 0 0 -338.671 408.004A 530.25 530.25 0 0 1 -339.315 407.468A 2.625 2.625 0 0 0 -342.445 407.131C -343.4613961374349 407.7689577668177 -344.5199719930561 408.4178061751356 -345.62132036418427 409.0756712101533 C -348.56552099500726 410.8343101402675 -351.8148889068222 412.6571576698677 -355.38226553087856 414.51120777826753 A 546 546 0 0 1 -359.716 410.756C -358.38842379036754 406.96115726903173 -357.04656348914995 403.48544498598557 -355.72482840421605 400.3209316574773 C -355.23039770201143 399.1371694686897 -354.7388046866208 397.99702763264486 -354.25183945540084 396.9000328759742 A 2.625 2.625 0 0 0 -355.031 393.85A 530.25 530.25 0 0 1 -355.653 393.289A 2.625 2.625 0 0 0 -358.766 392.824C -359.8078865655738 393.42030745772126 -360.89204708281767 394.0254380815787 -362.01931229570727 394.63783319806356 C -365.0327951561879 396.2749188068946 -368.35381031523514 397.9637122388691 -371.9938422485358 399.6707111571091 A 546 546 0 0 1 -376.171 395.742C -374.6895428961857 392.00432685997373 -373.2070299024079 388.5862396513464 -371.757318742035 385.47827153816655 C -371.215015519471 384.31566160629677 -370.67732683470814 383.19651998105064 -370.1460219912312 382.1203007673781 A 2.625 2.625 0 0 0 -370.8 379.041A 530.25 530.25 0 0 1 -371.399 378.455A 2.625 2.625 0 0 0 -374.49 377.864C -375.55551227566446 378.41684787318337 -376.66345297634496 378.9772535323769 -377.81475880929804 379.5431594590942 C -380.892508254613 381.0559669792088 -384.27964315890864 382.6078954835557 -387.9862719275323 384.16500208039884 A 546 546 0 0 1 -391.999 380.069C -390.3670282356515 376.39504393543723 -388.74633004588367 373.04027087005926 -387.1710557112276 369.99402087840963 C -386.58178257849875 368.85449825295217 -385.9988931541152 367.75821953929284 -385.4241330028592 366.7045671292884 A 2.625 2.625 0 0 0 -385.952 363.601A 530.25 530.25 0 0 1 -386.526 362.991A 2.625 2.625 0 0 0 -389.591 362.274C -390.6780628988323 362.78355079100385 -391.807939724995 363.29829874561966 -392.9813699430739 363.81677358800323 C -396.11826336301215 365.2027851005818 -399.56588046078133 366.6152656454642 -403.33293674694687 368.0198882706495 A 546 546 0 0 1 -407.176 363.764C -405.3947861816153 360.15928860638326 -403.638600288049 356.87341337294237 -401.94038466777715 353.893951685302 C -401.30512241185795 352.7794129892084 -400.6780024097759 351.707821834864 -400.06074358229 350.67848992898 A 2.625 2.625 0 0 0 -400.462 347.556A 530.25 530.25 0 0 1 -401.01 346.923A 2.625 2.625 0 0 0 -404.044 346.082C -405.1503684419972 346.54643629133847 -406.3003008251715 347.0146697942061 -407.4939023695832 347.48485060204865 C -410.6847187146245 348.7417592277129 -414.18707978745067 350.01244087866036 -418.0082936977372 351.26224167644926 A 546 546 0 0 1 -421.674 346.853C -419.7478045140532 343.3240836852636 -417.85905391479173 340.1125752988054 -416.0407235212085 337.2048609351129 C -415.3605294734305 336.11716120804994 -414.6902226730034 335.07204117074235 -414.0314925356892 334.06874299035223 A 2.625 2.625 0 0 0 -414.305 330.933A 530.25 530.25 0 0 1 -414.827 330.278A 2.625 2.625 0 0 0 -417.824 329.314C -418.94834118084236 329.7325294488448 -420.1164151720624 330.1534691715084 -421.3282014108317 330.574573375257 C -424.56762988206873 331.70028711364273 -428.11890559559106 332.82705494644966 -431.9879170965575 333.91995374675605 A 546 546 0 0 1 -435.471 329.365C -433.4021940504381 325.9174497092171 -431.3840223844547 322.7856534085099 -429.4486036490509 319.9545259723637 C -428.72460992527874 318.8954755831828 -428.01223198602383 317.8785661620722 -427.3131269301854 316.90297159798257 A 2.625 2.625 0 0 0 -427.458 313.759A 530.25 530.25 0 0 1 -427.954 313.083A 2.625 2.625 0 0 0 -430.908 311.997C -432.0490157514543 312.3698153521118 -433.23328720683776 312.7427606819451 -434.4612412413605 313.1140873952111 C -437.7438901297995 314.1067326068965 -441.33816973606537 315.0877112277051 -445.2485392398977 316.0218890083332 A 546 546 0 0 1 -448.543 311.328C -446.335228406927 307.9683583026509 -444.190994721788 304.9214866535628 -442.1417089580437 302.1716582771787 C -441.3751205743804 301.143019910736 -440.62185717907363 300.15601365119574 -439.8835407960823 299.209746484278 A 2.625 2.625 0 0 0 -439.9 296.062A 530.25 530.25 0 0 1 -440.368 295.367A 2.625 2.625 0 0 0 -443.275 294.161C -444.4305873739048 294.48719252524165 -445.62908519048915 294.81152273154885 -446.87116321246054 295.13245391766395 C -450.1915688729885 295.9903784426575 -453.8228700483097 296.8239351093654 -457.76808913088 297.5978370235924 A 546 546 0 0 1 -460.868 292.774C -458.5253818241839 289.50668395683033 -456.25865498524564 286.5498081765279 -454.09891302707234 283.88585567786026 C -453.2910058942284 282.88934140120114 -452.49811077545235 281.93388107774354 -451.7218119200638 281.01851627631055 A 2.625 2.625 0 0 0 -451.61 277.873A 530.25 530.25 0 0 1 -452.049 277.159A 2.625 2.625 0 0 0 -454.905 275.836C -456.0724481441553 276.11442482910866 -457.2831775406035 276.38960009626925 -458.5373122337356 276.65960159694646 C -461.8899481788187 277.3813775045442 -465.55222698075903 278.06612484434254 -469.52572921425474 278.67846280880815 A 546 546 0 0 1 -472.427 273.732C -469.95236499488186 270.5631543067367 -467.5669177452663 267.7011958231448 -465.30031427001023 265.1275530882243 C -464.4524330696767 264.1648215010171 -463.62122592310635 263.24249738305684 -462.80823666815303 262.3595584814842 A 2.625 2.625 0 0 0 -462.568 259.221A 530.25 530.25 0 0 1 -462.977 258.49A 2.625 2.625 0 0 0 -465.777 257.051C -466.95522133387936 257.2820919223498 -468.1761671705969 257.5076542482884 -469.4402711514625 257.72627667267614 C -472.819557249439 258.31070263811137 -476.5067181763598 258.84550095663025 -480.5018900584549 259.2952557952236 A 546 546 0 0 1 -483.199 254.235C -480.59715883325265 251.16929898795144 -478.096961514489 248.4070212485217 -475.72726905994557 245.92797185168996 C -474.8408250067037 245.00062532565045 -473.9726892946034 244.11297253065862 -473.124362780467 243.2639290936113 A 2.625 2.625 0 0 0 -472.757 240.138A 530.25 530.25 0 0 1 -473.136 239.39A 2.625 2.625 0 0 0 -475.875 237.839C -477.0607936411144 238.02153836454127 -478.28992377425016 238.1971123230269 -479.5618930665266 238.36399179567545 C -482.9622048291852 238.81009509960518 -486.66811096560656 239.1940542778222 -490.67830292698335 239.4804774180005 A 546 546 0 0 1 -493.166 234.314C -490.4420461304782 231.35739715868937 -487.8312600742612 228.69939770211215 -485.36242275965793 226.31906777643493 C -484.43889125215185 225.4286497883366 -483.53527190073885 224.5771457267887 -482.65302008318145 223.76341090327634 A 2.625 2.625 0 0 0 -482.158 220.655A 530.25 530.25 0 0 1 -482.506 219.893A 2.625 2.625 0 0 0 -485.18 218.231C -486.37234533806566 218.36482144627197 -487.60761400181485 218.49011481177794 -488.88533153814456 218.60497357827427 C -492.30100948213044 218.91201172577465 -496.0194927130209 219.14449270153037 -500.0380301849224 219.26710742024355 A 546 546 0 0 1 -502.313 214.004C -499.470641043236 211.16042377432515 -496.7536116452999 208.61112657838018 -494.1897386066995 206.33347794810595 C -493.23065677198093 205.48147051081546 -492.29305776648823 204.66753242718764 -491.3783490665915 203.8904605985172 A 2.625 2.625 0 0 0 -490.757 200.805A 530.25 530.25 0 0 1 -491.074 200.029A 2.625 2.625 0 0 0 -493.677 198.26C -494.87437826588257 198.3446578329474 -496.1137294774621 198.41946206703196 -497.39506862310276 198.48210895629455 C -500.8204276895685 198.64957091267044 -504.5452989665643 198.73018674432404 -508.56549348995446 198.68878896147356 A 546 546 0 0 1 -510.624 193.337C -507.66791636631814 190.61199470383463 -504.8491658539544 188.17564282211654 -502.19452440500316 186.00446640861117 C -501.201488540135 185.1922876044239 -500.2314704215763 184.41727021832958 -499.2858272816994 183.67815474387126 A 2.625 2.625 0 0 0 -498.539 180.62A 530.25 530.25 0 0 1 -498.824 179.832A 2.625 2.625 0 0 0 -501.353 177.958C -502.55274162981544 177.99436911112872 -503.7941126114442 178.01855970952664 -505.07694070384224 178.02889045199086 C -508.50627972066746 178.0564974933425 -512.2313393631326 177.9851140037981 -516.2464997209769 177.77977262190802 A 546 546 0 0 1 -518.085 172.348C -515.0202285439317 169.74631077949832 -512.1044484491881 167.42695927927272 -509.36345697859343 165.3658687914049 C -508.33811989377085 164.5948704117872 -507.3372971615742 163.8600636631797 -506.3622935113988 163.16013472769805 A 2.625 2.625 0 0 0 -505.492 160.135A 530.25 530.25 0 0 1 -505.744 159.336A 2.625 2.625 0 0 0 -508.194 157.361C -509.3946555518163 157.34782632804058 -510.63598016400505 157.3213630278881 -511.918162062402 157.27936042905273 C -515.3457732332319 157.16706660618433 -519.0648212470144 156.94380260621546 -523.0682646011501 156.574859395751 A 546 546 0 0 1 -524.684 151.073C -521.5153403780505 148.59810087299155 -518.5073837291387 146.3996100859357 -515.6846043466974 144.45203600541518 C -514.6286726143084 143.72350130108074 -513.5987110391412 143.03012820327564 -512.5959696760206 142.3705507694084 A 2.625 2.625 0 0 0 -511.603 139.384A 530.25 530.25 0 0 1 -511.822 138.575A 2.625 2.625 0 0 0 -514.19 136.501C -515.3887323413848 136.43939361655492 -516.627944521822 136.36232046340356 -517.9073461609852 136.26805443244908 C -521.3275245652939 136.01604664734663 -525.0343709620047 135.6412737378475 -529.0194339760653 135.10934276837176 A 546 546 0 0 1 -530.409 129.546C -527.142441396024 127.20256409260409 -524.0473146399335 125.12859318966582 -521.1474455833496 123.29777706134516 C -520.0626766975538 122.61291860641089 -519.005290548812 121.96213321050101 -517.9764804367853 121.34400507979369 A 2.625 2.625 0 0 0 -516.862 118.4A 530.25 530.25 0 0 1 -517.049 117.583A 2.625 2.625 0 0 0 -519.33 115.414C -520.524995449255 115.30387099948442 -521.7600326515632 115.1763162739913 -523.0345245937275 115.02994370742321 C -526.4415776820956 114.63864140217458 -530.1300527817328 114.11298335566708 -534.090102711614 113.41894997378292 A 546 546 0 0 1 -535.252 107.804C -531.8921658435416 105.59531119779943 -528.7150205133023 103.6493120988682 -525.742888328435 101.93830113551128 C -524.631087779988 101.29825880928728 -523.5480369725634 100.6911442833387 -522.4948704645299 100.11549426906232 A 2.625 2.625 0 0 0 -521.261 97.2196A 530.25 530.25 0 0 1 -521.414 96.3956A 2.625 2.625 0 0 0 -523.605 94.1356C -524.7948960723777 93.97643646837813 -526.0237026990183 93.79861247279555 -527.2911636781243 93.60037699330553 C -530.6794207469256 93.0704314519805 -534.3433854466986 92.39476317440625 -538.271831180106 91.53978253018425 A 546 546 0 0 1 -539.204 85.8817C -535.7566082730067 83.81230532861917 -532.5027324134712 81.99751695714615 -529.4632839210249 80.40915896764324 C -528.3263021922166 79.81499805741626 -527.219389357293 79.25256488364178 -526.143619344969 78.7203510984347 A 2.625 2.625 0 0 0 -524.793 75.8772A 530.25 530.25 0 0 1 -524.912 75.0477A 2.625 2.625 0 0 0 -527.009 72.7002C -528.1913273825581 72.49258743322632 -529.411858206171 72.26479013804564 -530.6701786585041 72.0150216890256 C -534.0340002882317 71.34731495367782 -537.667356280491 70.52276102820373 -541.5576593071966 69.50825615254885 A 546 546 0 0 1 -542.258 63.8169C -538.7293367013742 61.889802148585936 -535.4041460677881 60.20924504071547 -532.3024401298179 58.74618369018635 C -531.1421696145283 58.19889311815424 -530.0132370992791 57.68207741106558 -528.9166540956834 57.194185672249496 A 2.625 2.625 0 0 0 -527.451 54.4085A 530.25 530.25 0 0 1 -527.537 53.5748A 2.625 2.625 0 0 0 -529.536 51.1437C -530.708636355072 50.888081640524895 -531.9188599225544 50.61069019186282 -533.165945497904 50.309804488246726 C -536.499732939428 49.50544789084176 -540.0964328616975 48.533380706102214 -543.9421181562439 47.36104014225936 A 546 546 0 0 1 -544.41 41.6459C -540.805403315551 39.86428950072932 -537.4144323595638 38.32076077791469 -534.2556314594985 36.98543118758903 C -533.0740033134942 36.48592186489727 -531.9249301146776 36.01558381323475 -530.8093592739988 35.57282616845932 A 2.625 2.625 0 0 0 -529.232 32.8492A 530.25 530.25 0 0 1 -529.283 32.0127A 2.625 2.625 0 0 0 -531.181 29.5021C -532.3426331775653 29.198877658035133 -533.5405351912252 28.872353746582434 -534.7743102387249 28.52085158292978 C -538.0725147318575 27.58118389564273 -541.6265722320721 26.463221361534238 -545.4212390308141 25.134996354674612 A 546 546 0 0 1 -545.655 19.4055C -541.9813527075431 17.772426677172213 -538.530245365659 16.368495390642984 -535.3196070158576 15.16312008484131 C -534.1185879425736 14.712223395461372 -532.9512865791279 14.289145830494707 -531.8185846589354 13.89225920616428 A 2.625 2.625 0 0 0 -530.131 11.2352A 530.25 530.25 0 0 1 -530.148 10.3974A 2.625 2.625 0 0 0 -531.943 7.81143C -533.090598223585 7.461075025296448 -534.2741848937404 7.085962117879356 -535.492595916584 6.684428534852092 C -538.7497279254436 5.611013741813429 -542.255227625641 4.349016596643227 -545.9925600801845 2.8671178462093265 A 546 546 0 0 1 -545.993 -2.86712C -542.255227625641 -4.349016596643094 -538.7497279254436 -5.611013741813298 -535.492595916584 -6.6844285348519605 C -534.2741848937404 -7.085962117879225 -533.090598223585 -7.461075025296316 -531.9426504944397 -7.811430050563957 A 2.625 2.625 0 0 0 -530.148 -10.3974A 530.25 530.25 0 0 1 -530.131 -11.2352A 2.625 2.625 0 0 0 -531.819 -13.8923C -532.9512865791279 -14.289145830494572 -534.1185879425736 -14.712223395461237 -535.3196070158576 -15.163120084841175 C -538.530245365659 -16.36849539064285 -541.9813527075431 -17.772426677172078 -545.6551303968517 -19.405532696957504 A 546 546 0 0 1 -545.421 -25.135C -541.6265722320721 -26.463221361534103 -538.0725147318575 -27.581183895642596 -534.7743102387249 -28.520851582929645 C -533.5405351912252 -28.8723537465823 -532.3426331775653 -29.198877658035 -531.1813502851724 -29.502117952876542 A 2.625 2.625 0 0 0 -529.283 -32.0127A 530.25 530.25 0 0 1 -529.232 -32.8492A 2.625 2.625 0 0 0 -530.809 -35.5728C -531.9249301146776 -36.01558381323461 -533.0740033134942 -36.485921864897136 -534.2556314594985 -36.9854311875889 C -537.4144323595638 -38.32076077791456 -540.805403315551 -39.864289500729186 -544.4095115992229 -41.64588464606608 A 546 546 0 0 1 -543.942 -47.361C -540.0964328616975 -48.53338070610208 -536.499732939428 -49.50544789084162 -533.165945497904 -50.309804488246584 C -531.9188599225544 -50.61069019186269 -530.708636355072 -50.88808164052476 -529.5359511401998 -51.14370249139597 A 2.625 2.625 0 0 0 -527.537 -53.5748A 530.25 530.25 0 0 1 -527.451 -54.4085A 2.625 2.625 0 0 0 -528.917 -57.1942C -530.0132370992792 -57.68207741106522 -531.1421696145284 -58.19889311815388 -532.3024401298179 -58.746183690185994 C -535.4041460677881 -60.2092450407151 -538.7293367013741 -61.88980214858557 -542.2577768968579 -63.816921130178656 A 546 546 0 0 1 -541.558 -69.5083C -537.6673562804912 -70.52276102820336 -534.0340002882317 -71.34731495367745 -530.6701786585041 -72.01502168902525 C -529.4118582061711 -72.2647901380453 -528.1913273825583 -72.49258743322596 -527.0091916640156 -72.70016338444758 A 2.625 2.625 0 0 0 -524.912 -75.0477A 530.25 530.25 0 0 1 -524.793 -75.8772A 2.625 2.625 0 0 0 -526.144 -78.7204C -527.219389357293 -79.25256488364143 -528.3263021922166 -79.8149980574159 -529.463283921025 -80.40915896764287 C -532.5027324134712 -81.99751695714579 -535.7566082730068 -83.81230532861882 -539.2035076398155 -85.881740647109 A 546 546 0 0 1 -538.272 -91.5398C -534.3433854466987 -92.3947631744059 -530.6794207469256 -93.07043145198014 -527.2911636781245 -93.60037699330516 C -526.0237026990183 -93.7986124727952 -524.7948960723777 -93.97643646837777 -523.605277398404 -94.13562203026447 A 2.625 2.625 0 0 0 -521.414 -96.3956A 530.25 530.25 0 0 1 -521.261 -97.2196A 2.625 2.625 0 0 0 -522.495 -100.115C -523.5480369725635 -100.69114428333833 -524.6310877799881 -101.29825880928692 -525.7428883284351 -101.93830113551093 C -528.7150205133024 -103.64931209886784 -531.8921658435416 -105.59531119779906 -535.2517873578512 -107.80361848232957 A 546 546 0 0 1 -534.09 -113.419C -530.1300527817331 -114.11298335566671 -526.4415776820957 -114.63864140217423 -523.0345245937276 -115.02994370742286 C -521.7600326515633 -115.17631627399095 -520.5249954492551 -115.30387099948408 -519.329873822731 -115.41440122337801 A 2.625 2.625 0 0 0 -517.049 -117.583A 530.25 530.25 0 0 1 -516.862 -118.4A 2.625 2.625 0 0 0 -517.976 -121.344C -519.0052905488121 -121.96213321050067 -520.0626766975539 -122.61291860641052 -521.1474455833497 -123.29777706134479 C -524.0473146399337 -125.12859318966545 -527.1424413960241 -127.20256409260375 -530.4091932993819 -129.54606783363548 A 546 546 0 0 1 -529.019 -135.109C -525.0343709620048 -135.64127373784717 -521.3275245652941 -136.01604664734626 -517.9073461609853 -136.2680544324487 C -516.6279445218221 -136.3623204634032 -515.3887323413849 -136.43939361655458 -514.1900969243119 -136.5010845358062 A 2.625 2.625 0 0 0 -511.822 -138.575A 530.25 530.25 0 0 1 -511.603 -139.384A 2.625 2.625 0 0 0 -512.596 -142.371C -513.5987110391413 -143.03012820327527 -514.6286726143085 -143.72350130108043 -515.6846043466975 -144.45203600541484 C -518.5073837291388 -146.39961008593536 -521.5153403780506 -148.59810087299124 -524.6837854843067 -151.07290053982567 A 546 546 0 0 1 -523.068 -156.575C -519.0648212470145 -156.94380260621514 -515.345773233232 -157.167066606184 -511.91816206240213 -157.2793604290524 C -510.63598016400516 -157.3213630278878 -509.3946555518164 -157.34782632804027 -508.19450135455395 -157.36057526420268 A 2.625 2.625 0 0 0 -505.744 -159.336A 530.25 530.25 0 0 1 -505.492 -160.135A 2.625 2.625 0 0 0 -506.362 -163.16C -507.3372971615742 -163.86006366317957 -508.33811989377085 -164.59487041178707 -509.36345697859343 -165.36586879140478 C -512.1044484491881 -167.4269592792726 -515.0202285439317 -169.7463107794982 -518.0850932888978 -172.3482873123258 A 546 546 0 0 1 -516.246 -177.78C -512.2313393631326 -177.98511400379797 -508.50627972066746 -178.0564974933424 -505.07694070384224 -178.02889045199075 C -503.7941126114442 -178.0185597095265 -502.55274162981544 -177.9943691111286 -501.3530661905827 -177.9581548448558 A 2.625 2.625 0 0 0 -498.824 -179.832A 530.25 530.25 0 0 1 -498.539 -180.62A 2.625 2.625 0 0 0 -499.286 -183.678C -500.2314704215764 -184.4172702183295 -501.2014885401351 -185.19228760442383 -502.1945244050032 -186.00446640861108 C -504.84916585395445 -188.17564282211646 -507.6679163663182 -190.6119947038345 -510.6240995850953 -193.33681736950328 A 546 546 0 0 1 -508.565 -198.689C -504.54529896656436 -198.73018674432393 -500.82042768956853 -198.64957091267036 -497.3950686231028 -198.48210895629447 C -496.11372947746213 -198.41946206703187 -494.8743782658826 -198.34465783294732 -493.67717832605314 -198.25954063931152 A 2.625 2.625 0 0 0 -491.074 -200.029A 530.25 530.25 0 0 1 -490.757 -200.805A 2.625 2.625 0 0 0 -491.378 -203.89C -492.29305776648823 -204.66753242718752 -493.23065677198093 -205.4814705108153 -494.1897386066995 -206.33347794810584 C -496.7536116452999 -208.61112657838007 -499.470641043236 -211.16042377432504 -502.3132224605997 -214.00355737441842 A 546 546 0 0 1 -500.038 -219.267C -496.0194927130209 -219.14449270153025 -492.30100948213044 -218.91201172577453 -488.88533153814456 -218.60497357827415 C -487.60761400181485 -218.4901148117778 -486.37234533806566 -218.36482144627186 -485.1796135187887 -218.2309429944417 A 2.625 2.625 0 0 0 -482.506 -219.893A 530.25 530.25 0 0 1 -482.158 -220.655A 2.625 2.625 0 0 0 -482.653 -223.763C -483.5352719007389 -224.5771457267886 -484.4388912521519 -225.4286497883365 -485.362422759658 -226.3190677764348 C -487.83126007426125 -228.699397702112 -490.4420461304783 -231.35739715868925 -493.16629455019137 -234.31410957791638 A 546 546 0 0 1 -490.678 -239.48C -486.6681109656066 -239.1940542778221 -482.9622048291853 -238.81009509960504 -479.56189306652664 -238.3639917956753 C -478.2899237742502 -238.19711232302677 -477.06079364111446 -238.02153836454116 -475.8745151267936 -237.83912148198743 A 2.625 2.625 0 0 0 -473.136 -239.39A 530.25 530.25 0 0 1 -472.757 -240.138A 2.625 2.625 0 0 0 -473.124 -243.264C -473.97268929460347 -244.11297253065854 -474.84082500670377 -245.00062532565033 -475.7272690599456 -245.92797185168988 C -478.09696151448907 -248.4070212485216 -480.5971588332527 -251.16929898795135 -483.19854001267436 -254.23466907028597 A 546 546 0 0 1 -480.502 -259.295C -476.50671817635987 -258.84550095663013 -472.8195572494391 -258.3107026381113 -469.4402711514626 -257.7262766726761 C -468.17616717059695 -257.5076542482883 -466.9552213338794 -257.28209192234976 -465.77737056802886 -257.0514402239708 A 2.625 2.625 0 0 0 -462.977 -258.49A 530.25 530.25 0 0 1 -462.568 -259.221A 2.625 2.625 0 0 0 -462.808 -262.36C -463.62122592310646 -263.24249738305673 -464.45243306967683 -264.164821501017 -465.3003142700104 -265.1275530882242 C -467.56691774526644 -267.70119582314464 -469.952364994882 -270.5631543067366 -472.4265491917672 -273.7320800461954 A 546 546 0 0 1 -469.526 -278.678C -465.55222698075914 -278.0661248443424 -461.8899481788188 -277.38137750454416 -458.53731223373575 -276.65960159694635 C -457.2831775406036 -276.38960009626913 -456.07244814415543 -276.11442482910854 -454.9049855431337 -275.8359222118936 A 2.625 2.625 0 0 0 -452.049 -277.159A 530.25 530.25 0 0 1 -451.61 -277.873A 2.625 2.625 0 0 0 -451.722 -281.019C -452.4981107754525 -281.93388107774325 -453.2910058942286 -282.88934140120085 -454.0989130270725 -283.88585567786 C -456.2586549852458 -286.5498081765276 -458.5253818241841 -289.50668395683 -460.8682510031124 -292.77389098925835 A 546 546 0 0 1 -457.768 -297.598C -453.8228700483099 -296.82393510936504 -450.1915688729887 -295.99037844265723 -446.8711632124607 -295.13245391766367 C -445.6290851904893 -294.81152273154856 -444.430587373905 -294.48719252524137 -443.27545606399565 -294.16130252931157 A 2.625 2.625 0 0 0 -440.368 -295.367A 530.25 530.25 0 0 1 -439.9 -296.062A 2.625 2.625 0 0 0 -439.884 -299.21C -440.6218571790738 -300.15601365119545 -441.37512057438056 -301.1430199107357 -442.14170895804386 -302.17165827717844 C -444.1909947217882 -304.9214866535625 -446.3352284069272 -307.96835830265064 -448.542883093366 -311.3284086843809 A 546 546 0 0 1 -445.249 -316.022C -441.33816973606554 -315.0877112277048 -437.7438901297997 -314.10673260689623 -434.46124124136065 -313.1140873952108 C -433.23328720683793 -312.7427606819448 -432.0490157514545 -312.3698153521115 -430.9081383347239 -311.99708038920323 A 2.625 2.625 0 0 0 -427.954 -313.083A 530.25 530.25 0 0 1 -427.458 -313.759A 2.625 2.625 0 0 0 -427.313 -316.903C -428.01223198602406 -317.8785661620719 -428.72460992527897 -318.89547558318253 -429.4486036490511 -319.9545259723634 C -431.3840223844549 -322.7856534085096 -433.40219405043837 -325.91744970921684 -435.47095982103366 -329.3647509679893 A 546 546 0 0 1 -431.988 -333.92C -428.11890559559134 -332.8270549464494 -424.56762988206896 -331.7002871136424 -421.3282014108319 -330.5745733752567 C -420.1164151720626 -330.1534691715081 -418.9483411808426 -329.73252944884445 -417.82361653515875 -329.3135698995186 A 2.625 2.625 0 0 0 -414.827 -330.278A 530.25 530.25 0 0 1 -414.305 -330.933A 2.625 2.625 0 0 0 -414.031 -334.069C -414.69022267300363 -335.072041170742 -415.36052947343074 -336.1171612080496 -416.04072352120875 -337.2048609351126 C -417.85905391479196 -340.1125752988051 -419.7478045140534 -343.32408368526325 -421.6742381123449 -346.85289812834395 A 546 546 0 0 1 -418.008 -351.262C -414.1870797874509 -350.01244087866 -410.68471871462475 -348.74175922771263 -407.49390236958345 -347.48485060204837 C -406.30030082517175 -347.01466979420576 -405.15036844199744 -346.5464362913381 -404.04366856053497 -346.08194947241776 A 2.625 2.625 0 0 0 -401.01 -346.923A 530.25 530.25 0 0 1 -400.462 -347.556A 2.625 2.625 0 0 0 -400.061 -350.678C -400.6780024097761 -351.7078218348637 -401.3051224118582 -352.7794129892081 -401.9403846677774 -353.8939516853017 C -403.63860028804925 -356.873413372942 -405.3947861816156 -360.159288606383 -407.17568124899697 -363.76374287038715 A 546 546 0 0 1 -403.333 -368.02C -399.5658804607816 -366.6152656454639 -396.1182633630124 -365.2027851005815 -392.9813699430741 -363.81677358800295 C -391.8079397249952 -363.2982987456193 -390.67806289883254 -362.78355079100356 -389.5912297743247 -362.27430979495887 A 2.625 2.625 0 0 0 -386.526 -362.991A 530.25 530.25 0 0 1 -385.952 -363.601A 2.625 2.625 0 0 0 -385.424 -366.705C -385.9988931541153 -367.7582195392928 -386.58178257849886 -368.8544982529521 -387.1710557112277 -369.9940208784096 C -388.7463300458838 -373.0402708700592 -390.3670282356516 -376.3950439354372 -391.9994206480383 -380.06913876196296 A 546 546 0 0 1 -387.986 -384.165C -384.27964315890875 -382.60789548355564 -380.8925082546131 -381.05596697920873 -377.81475880929816 -379.54315945909417 C -376.66345297634507 -378.97725353237684 -375.55551227566457 -378.4168478731833 -374.4903548345885 -377.8637002813958 A 2.625 2.625 0 0 0 -371.399 -378.455A 530.25 530.25 0 0 1 -370.8 -379.041A 2.625 2.625 0 0 0 -370.146 -382.12C -370.67732683470825 -383.1965199810505 -371.21501551947114 -384.31566160629666 -371.7573187420352 -385.47827153816644 C -373.207029902408 -388.5862396513462 -374.6895428961858 -392.0043268599736 -376.17071569750686 -395.74194708077556 A 546 546 0 0 1 -371.994 -399.671C -368.35381031523525 -397.963712238869 -365.032795156188 -396.27491880689445 -362.01931229570744 -394.63783319806345 C -360.8920470828178 -394.0254380815786 -359.80788656557394 -393.42030745772115 -358.76617765737086 -392.82417392976754 A 2.625 2.625 0 0 0 -355.653 -393.289A 530.25 530.25 0 0 1 -355.031 -393.85A 2.625 2.625 0 0 0 -354.252 -396.9C -354.73880468662094 -397.99702763264474 -355.23039770201154 -399.1371694686896 -355.72482840421617 -400.3209316574771 C -357.04656348915006 -403.4854449859854 -358.38842379036765 -406.9611572690316 -359.715911714671 -410.7560819841149 A 546 546 0 0 1 -355.382 -414.511C -351.8148889068223 -412.65715766986756 -348.5655209950074 -410.83431014026735 -345.6213203641844 -409.07567121015313 C -344.51997199305623 -408.41780617513547 -343.46139613743503 -407.7689577668176 -342.4448695837773 -407.1308305081233 A 2.625 2.625 0 0 0 -339.315 -407.468A 530.25 530.25 0 0 1 -338.671 -408.004A 2.625 2.625 0 0 0 -337.768 -411.019C -338.2098548070095 -412.13510850973904 -338.65453394496853 -413.2943529030162 -339.1002691957049 -414.4972970933827 C -340.29182830759197 -417.7130886170874 -341.49080252220506 -421.2406409944724 -342.6623960968493 -425.08655392616674 A 546 546 0 0 1 -338.179 -428.662C -334.6904063361419 -426.6637759867152 -331.5180939237711 -424.7099083093071 -328.64807585399495 -422.83264313885024 C -327.5744774103008 -422.13040313672633 -326.54324811134416 -421.4389168880894 -325.55359582036004 -420.75985799850025 A 2.625 2.625 0 0 0 -322.413 -420.969A 530.25 530.25 0 0 1 -321.747 -421.478A 2.625 2.625 0 0 0 -320.722 -424.454C -321.1179880017203 -425.5872311719887 -321.5150131377077 -426.76364867461047 -321.91131105464024 -427.9837726846687 C -322.97071096093265 -431.2454900359423 -324.0248035146868 -434.8190112448653 -325.0385527377906 -438.70951125064573 A 546 546 0 0 1 -320.413 -442.099C -317.0088646144321 -439.96025455552495 -313.918887702443 -437.8786187502323 -311.12782905555116 -435.8858518620434 C -310.08376743794804 -435.1404057019933 -309.08160107505273 -434.407432523656 -308.1204702253128 -433.688572229678 A 2.625 2.625 0 0 0 -304.974 -433.77A 530.25 530.25 0 0 1 -304.288 -434.251A 2.625 2.625 0 0 0 -303.142 -437.183C -303.4916519962682 -438.33100588880177 -303.84036232112726 -439.5226384699346 -304.18656330548345 -440.7579115236828 C -305.11204073958856 -444.06012589589034 -306.01949719945554 -447.67366816296675 -306.87371478548306 -451.6022798895239 A 546 546 0 0 1 -302.114 -454.8C -298.79969292291156 -452.5244626999378 -295.7971944729269 -450.3185234441237 -293.0897406905899 -448.2135716020235 C -292.07695363660275 -447.42616000561316 -291.10551821677694 -446.65291985909425 -290.1745085157272 -445.89545463274305 A 2.625 2.625 0 0 0 -287.027 -445.848A 530.25 530.25 0 0 1 -286.322 -446.301A 2.625 2.625 0 0 0 -285.058 -449.184C -285.36018408740676 -450.345221904834 -285.6599992072155 -451.5500862096478 -285.95552704162327 -452.7984523169961 C -286.74554163768653 -456.1356675002078 -287.50485163194503 -459.7832164409516 -288.1981158200264 -463.7434011017781 A 546 546 0 0 1 -283.312 -466.745C -280.09319863081373 -464.3354885354481 -277.18317600518935 -462.0089173973015 -274.5638333770316 -459.79528408589533 C -273.5840065707606 -458.967217622018 -272.6449189523904 -458.154997489231 -271.7455799737978 -457.3601880566221 A 2.625 2.625 0 0 0 -268.603 -457.184A 530.25 530.25 0 0 1 -267.88 -457.608A 2.625 2.625 0 0 0 -266.499 -460.437C -266.75376231408984 -461.6098827432 -267.00418321617 -462.8259733939666 -267.2485460237143 -464.08535477272943 C -267.9017828804065 -467.45201630161984 -268.5116826125068 -471.12750093079273 -269.0428395328185 -475.11266718934786 A 546 546 0 0 1 -264.038 -477.912C -260.9205168517585 -475.3736737751733 -258.1078134959672 -472.93034310274624 -255.58094165929242 -470.6117126962193 C -254.6357059257584 -469.7443695997829 -253.73052912750686 -468.8945213409815 -252.8643577323462 -468.0636905839765 A 2.625 2.625 0 0 0 -249.731 -467.76A 530.25 530.25 0 0 1 -248.992 -468.154A 2.625 2.625 0 0 0 -247.497 -470.924C -247.70335522910784 -472.106239487634 -247.90396511258163 -473.3315324214801 -248.09675617548535 -474.59983295563984 C -248.61212804452586 -477.9903373543472 -249.07160239655428 -481.6876401905144 -249.43976799082196 -485.69115513085353 A 546 546 0 0 1 -244.325 -488.284C -241.31355862243214 -485.6206464491308 -238.60285600362621 -483.0646229251974 -236.17266068723168 -480.64485455503757 C -235.26358927802855 -479.73967843302876 -234.39382987734518 -478.8536165367689 -233.562267722422 -477.9881472911689 A 2.625 2.625 0 0 0 -230.444 -477.557A 530.25 530.25 0 0 1 -229.689 -477.92A 2.625 2.625 0 0 0 -228.082 -480.627C -228.24067035498402 -481.8168219882119 -228.39113532449846 -483.0492778259723 -228.53203376106376 -484.3243865544575 C -228.9086828568382 -487.733090663016 -229.21696707908094 -491.44605791049054 -229.42152857200693 -495.46125807709905 A 546 546 0 0 1 -224.205 -497.843C -221.30495778981205 -495.05935148257043 -218.70076760498358 -492.39488935603435 -216.37129362913947 -489.87801048788896 C -215.49989960391235 -488.9365079166317 -214.6670052294838 -488.01570714549507 -213.87143636793874 -487.11703989944675 A 2.625 2.625 0 0 0 -210.774 -486.559A 530.25 530.25 0 0 1 -210.004 -486.891A 2.625 2.625 0 0 0 -208.289 -489.53C -208.39810140993615 -490.7254679386905 -208.49817103139875 -491.9630353792532 -208.58694233008308 -493.24283000942455 C -208.82424175734275 -496.6640603762479 -208.9808227411362 -500.38651216747587 -209.0214396603035 -504.40671465593323 A 546 546 0 0 1 -203.713 -506.574C -200.928016695353 -503.6740790824614 -198.4346733620592 -500.9056130875788 -196.2097979063045 -498.29581281793514 C -195.3775316144112 -497.3195508355432 -194.58288853672605 -496.3655437715403 -193.82463711441517 -495.4351742679861 A 2.625 2.625 0 0 0 -190.752 -494.751A 530.25 530.25 0 0 1 -189.97 -495.052A 2.625 2.625 0 0 0 -188.148 -497.619C -188.2086743917262 -498.8173497770722 -188.25818210912783 -500.0579690115669 -188.2946785188653 -501.34031945156437 C -188.39223331613235 -504.7683817763453 -188.39685044788192 -508.4941224576859 -188.273455190437 -512.5126360377005 A 546 546 0 0 1 -182.881 -514.462C -180.21665074652284 -511.4504908848944 -177.838304188676 -508.5826288600961 -175.72173033863575 -505.8842509439439 C -174.92997700518347 -504.87485444214065 -174.17490782922184 -503.88922893587915 -173.45523588080638 -502.9287056830404 A 2.625 2.625 0 0 0 -170.413 -502.12A 530.25 530.25 0 0 1 -169.619 -502.389A 2.625 2.625 0 0 0 -167.694 -504.879C -167.70599260914778 -506.07899936461826 -167.7048560217787 -507.32060550476484 -167.68901679789715 -508.60337740883523 C -167.6466645948392 -512.0325660201466 -167.49931018978467 -515.7553944639261 -167.21210813495577 -519.7655307162277 A 546 546 0 0 1 -161.744 -521.493C -159.20533196795552 -518.3756438198719 -156.9459407086842 -515.4131590384712 -154.94119129264882 -512.6306946595515 C -154.19126871292366 -511.5898436791975 -153.47703017681178 -510.57424020706213 -152.79713552522605 -509.5851619010999 A 2.625 2.625 0 0 0 -149.791 -508.653A 530.25 530.25 0 0 1 -148.987 -508.889A 2.625 2.625 0 0 0 -146.961 -511.299C -146.92418075263646 -512.498330402236 -146.87240175223414 -513.7388569171472 -146.80425325755854 -515.0199152380519 C -146.62206454523783 -518.444522589874 -146.32298386024416 -522.1582425155505 -145.87245302750787 -526.153326964104 A 546 546 0 0 1 -140.339 -527.656C -137.92903162616943 -524.4380116537709 -135.7923561992472 -521.3858348793216 -133.9027679247727 -518.5239151749936 C -133.19592427089933 -517.453342109825 -132.52370515419295 -516.4094510435662 -131.88471941698626 -515.3934639077094 A 2.625 2.625 0 0 0 -128.919 -514.339A 530.25 530.25 0 0 1 -128.106 -514.542A 2.625 2.625 0 0 0 -125.984 -516.868C -125.89782809708673 -518.0646585469319 -125.79549286468738 -519.3020407026503 -125.67514852566154 -520.5792532452407 C -125.35342653920972 -523.9935794166082 -124.90311736456103 -527.6920097038691 -124.2900076180259 -531.6653929248819 A 546 546 0 0 1 -118.7 -532.941C -116.42316202334219 -529.6275041736222 -114.41275871415047 -526.4907154531483 -112.64147661443775 -523.5541038063196 C -111.97888835792027 -522.4555905195494 -111.34980750299844 -521.3851493128261 -110.75279420886942 -520.3439443573955 A 2.625 2.625 0 0 0 -107.832 -519.17A 530.25 530.25 0 0 1 -107.012 -519.34A 2.625 2.625 0 0 0 -104.797 -521.576C -104.66193093142148 -522.7687191948454 -104.50920979392001 -524.000897490889 -104.33686991181962 -525.2721384609349 C -103.87615012573262 -528.6705006428925 -103.2753619566095 -532.34748561952 -102.50069375694135 -536.29255430875 A 546 546 0 0 1 -96.8628 -537.339C -94.72351755703228 -533.935483981273 -92.8427324834742 -530.7193041900326 -91.19270468277192 -527.7128883009777 C -90.575474636373 -526.5882631595605 -89.99057908623523 -525.4930534561203 -89.43653190489322 -524.4283636640084 A 2.625 2.625 0 0 0 -86.5664 -523.136A 530.25 530.25 0 0 1 -85.7395 -523.272A 2.625 2.625 0 0 0 -83.4353 -525.417C -83.25183431071906 -526.6026829012678 -83.04898145737693 -527.8276064984656 -82.82493287492763 -529.09076004083 C -82.22598211182137 -532.4675019949074 -81.47571490084003 -536.1169216822863 -80.54077760680585 -540.0271096622363 A 546 546 0 0 1 -74.8649 -540.843C -72.86621514393316 -537.3547808694844 -71.1181786871505 -534.0645630213381 -69.59215149389307 -530.9933467726037 C -69.02130697611102 -529.8444816040989 -68.4815702316777 -528.7263262724077 -67.97141131997756 -527.6399237147004 A 2.625 2.625 0 0 0 -65.1564 -526.232A 530.25 530.25 0 0 1 -64.3246 -526.334A 2.625 2.625 0 0 0 -61.9348 -528.383C -61.70317322786099 -529.5601684119807 -61.45052628723318 -530.7757985458915 -61.17514191118932 -532.028762266163 C -60.43895706549904 -535.3782637386254 -59.54045955838891 -538.9940440378441 -58.44680928084642 -542.8628431865145 A 546 546 0 0 1 -52.7424 -543.447C -50.88763410683338 -539.8797037560337 -49.275255700996254 -536.5209240938808 -47.87576903684447 -533.3900192218169 C -47.35226016204299 -532.2188261989169 -46.85858056185903 -531.0795862981748 -46.39315902896215 -529.9732791847131 A 2.625 2.625 0 0 0 -43.6379 -528.451A 530.25 530.25 0 0 1 -42.8027 -528.52A 2.625 2.625 0 0 0 -40.3313 -530.469C -40.05181330259936 -531.636253284223 -39.74979278058506 -532.8405666584587 -39.4235309610631 -534.0812551221786 C -38.55133733981096 -537.3979411983846 -37.506104997000676 -540.9740639999737 -36.25556200890543 -544.7950350829901 A 546 546 0 0 1 -30.5321 -545.146C -28.824355624820488 -541.5060501559586 -27.350318914661102 -538.0842990370716 -26.079702087053285 -534.8989166238516 C -25.60440018408982 -533.707345081759 -25.157599409128913 -532.5489167643501 -24.73768990324473 -531.4245464341437 A 2.625 2.625 0 0 0 -22.0468 -529.791A 530.25 530.25 0 0 1 -21.2095 -529.826A 2.625 2.625 0 0 0 -18.6607 -531.673C -18.333791086776074 -532.827482079612 -17.98289966672802 -534.0184742334137 -17.606303434328044 -535.2448224370768 C -16.59955271772057 -538.5231728203736 -15.409325225291617 -542.0536860208542 -14.00397093203225 -545.8204694089374 A 546 546 0 0 1 -8.27093 -545.937C -6.713101847522167 -542.2311131761792 -5.379860221673135 -538.7520857676058 -4.240228046922726 -535.5175275678936 C -3.8139242089076015 -534.3075607598449 -3.4147459149652715 -533.1318721153792 -3.0410473340258104 -531.9913099718798 A 2.625 2.625 0 0 0 -0.419012 -530.25A 530.25 530.25 0 0 1 0.419012 -530.25A 2.625 2.625 0 0 0 3.04105 -531.991C 3.414745914965076 -533.1318721153792 3.8139242089074044 -534.3075607598449 4.240228046922529 -535.5175275678936 C 5.379860221672938 -538.7520857676058 6.713101847521966 -542.2311131761792 8.270928372417568 -545.9374394301202 A 546 546 0 0 1 14.004 -545.82C 15.409325225291418 -542.0536860208542 16.59955271772037 -538.5231728203736 17.60630343432785 -535.2448224370768 C 17.98289966672782 -534.0184742334137 18.333791086775882 -532.827482079612 18.66065675836264 -531.6726264759462 A 2.625 2.625 0 0 0 21.2095 -529.826A 530.25 530.25 0 0 1 22.0468 -529.791A 2.625 2.625 0 0 0 24.7377 -531.425C 25.15759940912872 -532.5489167643501 25.604400184089627 -533.707345081759 26.079702087053093 -534.8989166238516 C 27.35031891466091 -538.0842990370716 28.82435562482029 -541.5060501559586 30.532061532842036 -545.1457504614823 A 546 546 0 0 1 36.2556 -544.795C 37.50610499700048 -540.9740639999737 38.551337339810765 -537.3979411983846 39.42353096106291 -534.0812551221786 C 39.74979278058487 -532.8405666584587 40.05181330259917 -531.636253284223 40.33130202918098 -530.4690263635715 A 2.625 2.625 0 0 0 42.8027 -528.52A 530.25 530.25 0 0 1 43.6379 -528.451A 2.625 2.625 0 0 0 46.3932 -529.973C 46.85858056185836 -531.079586298175 47.35226016204231 -532.218826198917 47.8757690368438 -533.390019221817 C 49.27525570099558 -536.5209240938809 50.88763410683271 -539.8797037560338 52.74237709002877 -543.4467201911804 A 546 546 0 0 1 58.4468 -542.863C 59.540459558388235 -538.9940440378442 60.438957065498364 -535.3782637386255 61.17514191118865 -532.0287622661631 C 61.45052628723252 -530.7757985458916 61.70317322786032 -529.5601684119808 61.93481982803429 -528.3825129083602 A 2.625 2.625 0 0 0 64.3246 -526.334A 530.25 530.25 0 0 1 65.1564 -526.232A 2.625 2.625 0 0 0 67.9714 -527.64C 68.4815702316775 -528.7263262724078 69.02130697611081 -529.8444816040989 69.59215149389286 -530.9933467726038 C 71.1181786871503 -534.0645630213382 72.86621514393295 -537.3547808694846 74.86490816565082 -540.8431764874238 A 546 546 0 0 1 80.5408 -540.027C 81.47571490083982 -536.1169216822864 82.22598211182117 -532.4675019949075 82.82493287492741 -529.0907600408301 C 83.04898145737671 -527.8276064984656 83.25183431071886 -526.6026829012679 83.43525323158 -525.4165589060423 A 2.625 2.625 0 0 0 85.7395 -523.272A 530.25 530.25 0 0 1 86.5664 -523.136A 2.625 2.625 0 0 0 89.4365 -524.428C 89.99057908623455 -525.4930534561204 90.57547463637232 -526.5882631595606 91.19270468277122 -527.7128883009779 C 92.84273248347351 -530.7193041900327 94.72351755703158 -533.9354839812731 96.862833989986 -537.3394526917657 A 546 546 0 0 1 102.501 -536.293C 103.2753619566088 -532.3474856195201 103.87615012573194 -528.6705006428926 104.33686991181892 -525.272138460935 C 104.50920979391933 -524.0008974908891 104.6619309314208 -522.7687191948455 104.79681689027683 -521.5761008943472 A 2.625 2.625 0 0 0 107.012 -519.34A 530.25 530.25 0 0 1 107.832 -519.17A 2.625 2.625 0 0 0 110.753 -520.344C 111.34980750299823 -521.3851493128261 111.97888835792006 -522.4555905195496 112.64147661443755 -523.5541038063196 C 114.41275871415026 -526.4907154531483 116.42316202334197 -529.6275041736224 118.69954118645761 -532.9413804066844 A 546 546 0 0 1 124.29 -531.665C 124.90311736456081 -527.6920097038692 125.35342653920951 -523.9935794166082 125.67514852566134 -520.5792532452407 C 125.79549286468716 -519.3020407026504 125.89782809708652 -518.0646585469319 125.98395658957068 -516.8675309366237 A 2.625 2.625 0 0 0 128.106 -514.542A 530.25 530.25 0 0 1 128.919 -514.339A 2.625 2.625 0 0 0 131.885 -515.393C 132.52370515419233 -516.4094510435663 133.19592427089867 -517.4533421098251 133.90276792477206 -518.5239151749937 C 135.79235619924657 -521.3858348793217 137.92903162616878 -524.4380116537711 140.3386847109826 -527.6562797894567 A 546 546 0 0 1 145.872 -526.153C 146.3229838602435 -522.1582425155507 146.6220645452372 -518.4445225898742 146.80425325755792 -515.019915238052 C 146.87240175223354 -513.7388569171474 146.92418075263583 -512.4983304022361 146.96140842637234 -511.29868598288175 A 2.625 2.625 0 0 0 148.987 -508.889A 530.25 530.25 0 0 1 149.791 -508.653A 2.625 2.625 0 0 0 152.797 -509.585C 153.4770301768116 -510.5742402070622 154.1912687129235 -511.58984367919754 154.94119129264865 -512.6306946595515 C 156.94594070868402 -515.4131590384713 159.20533196795535 -518.375643819872 161.74424834471432 -521.4929473684772 A 546 546 0 0 1 167.212 -519.766C 167.4993101897845 -515.7553944639262 167.64666459483902 -512.0325660201468 167.68901679789698 -508.6033774088353 C 167.70485602177854 -507.3206055047649 167.70599260914761 -506.0789993646183 167.69425750234748 -504.87883482596186 A 2.625 2.625 0 0 0 169.619 -502.389A 530.25 530.25 0 0 1 170.413 -502.12A 2.625 2.625 0 0 0 173.455 -502.929C 174.1749078292212 -503.8892289358794 174.92997700518285 -504.8748544421409 175.72173033863513 -505.8842509439442 C 177.83830418867535 -508.58262886009635 180.21665074652222 -511.45049088489463 182.88060463948074 -514.4616414023069 A 546 546 0 0 1 188.273 -512.513C 188.3968504478813 -508.4941224576861 188.39223331613175 -504.7683817763455 188.29467851886469 -501.34031945156465 C 188.2581821091272 -500.05796901156714 188.20867439172557 -498.8173497770724 188.14799603631596 -497.6186626745453 A 2.625 2.625 0 0 0 189.97 -495.052A 530.25 530.25 0 0 1 190.752 -494.751A 2.625 2.625 0 0 0 193.825 -495.435C 194.58288853672585 -496.36554377154033 195.37753161441103 -497.31955083554334 196.20979790630432 -498.2958128179352 C 198.434673362059 -500.90561308757884 200.92801669535282 -503.67407908246145 203.71257421615948 -506.5740648058126 A 546 546 0 0 1 209.021 -504.407C 208.98082274113602 -500.3865121674759 208.82424175734255 -496.66406037624796 208.5869423300829 -493.2428300094246 C 208.49817103139858 -491.9630353792533 208.39810140993595 -490.72546793869054 208.28858079905115 -489.5302533686775 A 2.625 2.625 0 0 0 210.004 -486.891A 530.25 530.25 0 0 1 210.774 -486.559A 2.625 2.625 0 0 0 213.871 -487.117C 214.66700522948364 -488.0157071454951 215.49989960391218 -488.9365079166318 216.37129362913933 -489.878010487889 C 218.7007676049834 -492.3948893560344 221.3049577898119 -495.0593514825705 224.205484317279 -497.84334567182106 A 546 546 0 0 1 229.422 -495.461C 229.2169670790808 -491.4460579104906 228.90868285683803 -487.73309066301607 228.53203376106362 -484.32438655445753 C 228.3911353244983 -483.0492778259724 228.24067035498385 -481.816821988212 228.08248977487222 -480.6270692674101 A 2.625 2.625 0 0 0 229.689 -477.92A 530.25 530.25 0 0 1 230.444 -477.557A 2.625 2.625 0 0 0 233.562 -477.988C 234.393829877345 -478.853616536769 235.26358927802835 -479.7396784330288 236.1726606872315 -480.6448545550376 C 238.60285600362604 -483.06462292519745 241.31355862243194 -485.62064644913085 244.32522651640505 -488.28401542070293 A 546 546 0 0 1 249.44 -485.691C 249.07160239655408 -481.68764019051446 248.6121280445257 -477.9903373543473 248.09675617548518 -474.5998329556399 C 247.90396511258143 -473.3315324214802 247.70335522910767 -472.10623948763407 247.496777955734 -470.9239288420313 A 2.625 2.625 0 0 0 248.992 -468.154A 530.25 530.25 0 0 1 249.731 -467.76A 2.625 2.625 0 0 0 252.864 -468.064C 253.73052912750663 -468.8945213409816 254.63570592575815 -469.744369599783 255.58094165929225 -470.6117126962194 C 258.10781349596704 -472.9303431027464 260.9205168517583 -475.3736737751734 264.03831348824684 -477.91198461425944 A 546 546 0 0 1 269.043 -475.113C 268.51168261250655 -471.12750093079285 267.9017828804063 -467.45201630162 267.24854602371414 -464.08535477272954 C 267.0041832161698 -462.8259733939667 266.7537623140896 -461.6098827432001 266.4991321749386 -460.43698201218496 A 2.625 2.625 0 0 0 267.88 -457.608A 530.25 530.25 0 0 1 268.603 -457.184A 2.625 2.625 0 0 0 271.746 -457.36C 272.6449189523898 -458.15499748923133 273.5840065707599 -458.96721762201827 274.56383337703096 -459.7952840858956 C 277.1831760051888 -462.00891739730184 280.09319863081305 -464.33548853544846 283.3119347450084 -466.7445164741606 A 546 546 0 0 1 288.198 -463.743C 287.50485163194446 -459.78321644095195 286.74554163768596 -456.1356675002081 285.95552704162264 -452.7984523169965 C 285.6599992072149 -451.5500862096482 285.36018408740614 -450.3452219048343 285.05792488921503 -449.1836832659209 A 2.625 2.625 0 0 0 286.322 -446.301A 530.25 530.25 0 0 1 287.027 -445.848A 2.625 2.625 0 0 0 290.175 -445.895C 291.1055182167768 -446.6529198590944 292.0769536366025 -447.4261600056134 293.08974069058974 -448.21357160202365 C 295.7971944729267 -450.31852344412385 298.7996929229114 -452.524462699938 302.1140112462058 -454.8001981490173 A 546 546 0 0 1 306.874 -451.602C 306.0194971994554 -447.6736681629669 305.1120407395884 -444.0601258958905 304.1865633054833 -440.757911523683 C 303.84036232112703 -439.5226384699348 303.49165199626805 -438.33100588880194 303.14226681964266 -437.1827626084234 A 2.625 2.625 0 0 0 304.288 -434.251A 530.25 530.25 0 0 1 304.974 -433.77A 2.625 2.625 0 0 0 308.12 -433.689C 309.0816010750522 -434.4074325236564 310.0837674379475 -435.14040570199364 311.1278290555506 -435.88585186204375 C 313.9188877024424 -437.87861875023276 317.00886461443156 -439.96025455552535 320.4132487910632 -442.09890977790724 A 546 546 0 0 1 325.039 -438.71C 324.02480351468625 -434.8190112448657 322.9707109609321 -431.24549003594274 321.91131105463967 -427.98377268466913 C 321.51501313770723 -426.7636486746109 321.11798800171977 -425.5872311719891 320.72205836380596 -424.45419438776656 A 2.625 2.625 0 0 0 321.747 -421.478A 530.25 530.25 0 0 1 322.413 -420.969A 2.625 2.625 0 0 0 325.554 -420.76C 326.5432481113439 -421.4389168880895 327.57447741030063 -422.13040313672644 328.6480758539948 -422.83264313885036 C 331.51809392377095 -424.7099083093072 334.69040633614173 -426.66377598671534 338.1791901046245 -428.6617914018442 A 546 546 0 0 1 342.662 -425.087C 341.4908025222049 -421.2406409944725 340.2918283075918 -417.7130886170875 339.10026919570475 -414.4972970933828 C 338.65453394496836 -413.2943529030163 338.20985480700926 -412.13510850973915 337.7680396936155 -411.01916404958143 A 2.625 2.625 0 0 0 338.671 -408.004A 530.25 530.25 0 0 1 339.315 -407.468A 2.625 2.625 0 0 0 342.445 -407.131C 343.4613961374347 -407.7689577668179 344.51997199305583 -408.4178061751358 345.621320364184 -409.0756712101535 C 348.56552099500703 -410.8343101402677 351.814888906822 -412.65715766986784 355.3822655308783 -414.5112077782677 A 546 546 0 0 1 359.716 -410.756C 358.3884237903673 -406.9611572690319 357.0465634891497 -403.48544498598574 355.72482840421577 -400.32093165747744 C 355.23039770201115 -399.13716946868993 354.7388046866206 -397.99702763264503 354.2518394554006 -396.9000328759744 A 2.625 2.625 0 0 0 355.031 -393.85A 530.25 530.25 0 0 1 355.653 -393.289A 2.625 2.625 0 0 0 358.766 -392.824C 359.80788656557377 -393.42030745772126 360.8920470828176 -394.0254380815787 362.0193122957072 -394.63783319806356 C 365.03279515618783 -396.2749188068946 368.3538103152351 -397.9637122388691 371.99384224853577 -399.6707111571091 A 546 546 0 0 1 376.171 -395.742C 374.6895428961856 -392.00432685997373 373.20702990240784 -388.5862396513464 371.75731874203495 -385.47827153816655 C 371.21501551947097 -384.31566160629677 370.6773268347081 -383.19651998105064 370.1460219912311 -382.1203007673781 A 2.625 2.625 0 0 0 370.8 -379.041A 530.25 530.25 0 0 1 371.399 -378.455A 2.625 2.625 0 0 0 374.49 -377.864C 375.5555122756642 -378.41684787318354 376.66345297634473 -378.97725353237706 377.81475880929776 -379.5431594590944 C 380.8925082546128 -381.05596697920896 384.2796431589084 -382.6078954835559 387.9862719275321 -384.165002080399 A 546 546 0 0 1 391.999 -380.069C 390.3670282356513 -376.39504393543746 388.74633004588344 -373.04027087005943 387.1710557112273 -369.9940208784098 C 386.5817825784985 -368.85449825295234 385.99889315411497 -367.758219539293 385.424133002859 -366.7045671292886 A 2.625 2.625 0 0 0 385.952 -363.601A 530.25 530.25 0 0 1 386.526 -362.991A 2.625 2.625 0 0 0 389.591 -362.274C 390.6780628988324 -362.78355079100373 391.8079397249951 -363.2982987456195 392.981369943074 -363.8167735880031 C 396.11826336301226 -365.20278510058165 399.5658804607815 -366.6152656454641 403.332936746947 -368.0198882706494 A 546 546 0 0 1 407.176 -363.764C 405.3947861816155 -360.15928860638314 403.63860028804913 -356.8734133729422 401.94038466777727 -353.8939516853019 C 401.30512241185806 -352.77941298920825 400.678002409776 -351.70782183486386 400.0607435822901 -350.6784899289799 A 2.625 2.625 0 0 0 400.462 -347.556A 530.25 530.25 0 0 1 401.01 -346.923A 2.625 2.625 0 0 0 404.044 -346.082C 405.15036844199716 -346.54643629133847 406.30030082517146 -347.0146697942061 407.49390236958317 -347.48485060204865 C 410.68471871462447 -348.7417592277129 414.18707978745056 -350.01244087866036 418.00829369773714 -351.26224167644926 A 546 546 0 0 1 421.674 -346.853C 419.7478045140531 -343.3240836852636 417.8590539147917 -340.1125752988054 416.04072352120846 -337.2048609351129 C 415.36052947343046 -336.11716120804994 414.69022267300335 -335.07204117074235 414.03149253568915 -334.06874299035223 A 2.625 2.625 0 0 0 414.305 -330.933A 530.25 530.25 0 0 1 414.827 -330.278A 2.625 2.625 0 0 0 417.824 -329.314C 418.9483411808425 -329.7325294488446 420.1164151720625 -330.1534691715082 421.3282014108318 -330.5745733752568 C 424.56762988206884 -331.7002871136425 428.11890559559123 -332.8270549464495 431.9879170965576 -333.9199537467559 A 546 546 0 0 1 435.471 -329.365C 433.40219405043825 -325.91744970921695 431.3840223844548 -322.7856534085097 429.448603649051 -319.9545259723635 C 428.72460992527886 -318.89547558318264 428.01223198602395 -317.87856616207205 427.3131269301855 -316.9029715979824 A 2.625 2.625 0 0 0 427.458 -313.759A 530.25 530.25 0 0 1 427.954 -313.083A 2.625 2.625 0 0 0 430.908 -311.997C 432.04901575145425 -312.3698153521118 433.2332872068377 -312.7427606819452 434.4612412413604 -313.11408739521113 C 437.74389012979947 -314.10673260689657 441.3381697360653 -315.08771122770514 445.24853923989764 -316.02188900833323 A 546 546 0 0 1 448.543 -311.328C 446.33522840692694 -307.968358302651 444.19099472178794 -304.92148665356285 442.14170895804364 -302.1716582771788 C 441.37512057438033 -301.1430199107361 440.6218571790736 -300.15601365119585 439.88354079608223 -299.20974648427807 A 2.625 2.625 0 0 0 439.9 -296.062A 530.25 530.25 0 0 1 440.368 -295.367A 2.625 2.625 0 0 0 443.275 -294.161C 444.43058737390464 -294.4871925252419 445.629085190489 -294.81152273154913 446.8711632124603 -295.1324539176642 C 450.1915688729883 -295.99037844265774 453.82287004830954 -296.8239351093656 457.7680891308798 -297.59783702359266 A 546 546 0 0 1 460.868 -292.774C 458.52538182418374 -289.50668395683056 456.2586549852454 -286.54980817652813 454.0989130270721 -283.8858556778605 C 453.29100589422825 -282.8893414012014 452.4981107754522 -281.93388107774376 451.7218119200636 -281.01851627631083 A 2.625 2.625 0 0 0 451.61 -277.873A 530.25 530.25 0 0 1 452.049 -277.159A 2.625 2.625 0 0 0 454.905 -275.836C 456.0724481441553 -276.11442482910877 457.2831775406035 -276.3896000962693 458.5373122337356 -276.6596015969465 C 461.8899481788187 -277.3813775045443 465.55222698075903 -278.0661248443426 469.52572921425474 -278.6784628088082 A 546 546 0 0 1 472.427 -273.732C 469.95236499488186 -270.56315430673675 467.5669177452663 -267.7011958231449 465.30031427001023 -265.1275530882244 C 464.4524330696767 -264.1648215010172 463.62122592310635 -263.24249738305696 462.80823666815303 -262.35955848148427 A 2.625 2.625 0 0 0 462.568 -259.221A 530.25 530.25 0 0 1 462.977 -258.49A 2.625 2.625 0 0 0 465.777 -257.051C 466.95522133387925 -257.2820919223501 468.1761671705968 -257.50765424828865 469.4402711514624 -257.7262766726764 C 472.8195572494389 -258.31070263811165 476.5067181763597 -258.84550095663053 480.50189005845476 -259.2952557952239 A 546 546 0 0 1 483.199 -254.235C 480.59715883325254 -251.16929898795172 478.0969615144889 -248.40702124852197 475.72726905994546 -245.92797185169024 C 474.8408250067036 -245.00062532565073 473.9726892946033 -244.11297253065888 473.1243627804668 -243.26392909361155 A 2.625 2.625 0 0 0 472.757 -240.138A 530.25 530.25 0 0 1 473.136 -239.39A 2.625 2.625 0 0 0 475.875 -237.839C 477.0607936411144 -238.0215383645413 478.28992377425016 -238.19711232302691 479.5618930665266 -238.36399179567547 C 482.9622048291852 -238.8100950996052 486.66811096560656 -239.19405427782226 490.67830292698335 -239.48047741800053 A 546 546 0 0 1 493.166 -234.314C 490.4420461304782 -231.35739715868942 487.8312600742612 -228.69939770211218 485.36242275965793 -226.31906777643496 C 484.43889125215185 -225.42864978833663 483.53527190073885 -224.57714572678873 482.65302008318145 -223.76341090327637 A 2.625 2.625 0 0 0 482.158 -220.655A 530.25 530.25 0 0 1 482.506 -219.893A 2.625 2.625 0 0 0 485.18 -218.231C 486.37234533806543 -218.36482144627223 487.6076140018147 -218.4901148117782 488.8853315381444 -218.60497357827455 C 492.30100948213027 -218.91201172577493 496.0194927130207 -219.14449270153065 500.03803018492215 -219.26710742024383 A 546 546 0 0 1 502.313 -214.004C 499.47064104323584 -211.16042377432544 496.7536116452997 -208.61112657838046 494.18973860669934 -206.33347794810624 C 493.23065677198076 -205.4814705108157 492.293057766488 -204.6675324271879 491.37834906659134 -203.89046059851745 A 2.625 2.625 0 0 0 490.757 -200.805A 530.25 530.25 0 0 1 491.074 -200.029A 2.625 2.625 0 0 0 493.677 -198.26C 494.87437826588257 -198.34465783294746 496.1137294774621 -198.41946206703201 497.39506862310276 -198.48210895629464 C 500.8204276895685 -198.6495709126705 504.5452989665643 -198.7301867443241 508.56549348995446 -198.68878896147362 A 546 546 0 0 1 510.624 -193.337C 507.66791636631814 -190.61199470383468 504.8491658539544 -188.1756428221166 502.19452440500316 -186.00446640861125 C 501.201488540135 -185.19228760442397 500.2314704215763 -184.41727021832963 499.2858272816994 -183.67815474387132 A 2.625 2.625 0 0 0 498.539 -180.62A 530.25 530.25 0 0 1 498.824 -179.832A 2.625 2.625 0 0 0 501.353 -177.958C 502.55274162981533 -177.99436911112898 503.79411261144406 -178.0185597095269 505.0769407038421 -178.02889045199115 C 508.50627972066735 -178.0564974933428 512.2313393631325 -177.98511400379837 516.2464997209768 -177.7797726219083 A 546 546 0 0 1 518.085 -172.348C 515.0202285439316 -169.7463107794986 512.104448449188 -167.426959279273 509.3634569785933 -165.36586879140518 C 508.33811989377074 -164.59487041178747 507.3372971615741 -163.86006366317994 506.36229351139866 -163.1601347276983 A 2.625 2.625 0 0 0 505.492 -160.135A 530.25 530.25 0 0 1 505.744 -159.336A 2.625 2.625 0 0 0 508.194 -157.361C 509.39465555181636 -157.3478263280404 510.63598016400516 -157.32136302788794 511.918162062402 -157.27936042905256 C 515.3457732332319 -157.16706660618416 519.0648212470144 -156.94380260621529 523.0682646011501 -156.57485939575082 A 546 546 0 0 1 524.684 -151.073C 521.5153403780505 -148.59810087299138 518.5073837291387 -146.39961008593554 515.6846043466974 -144.452036005415 C 514.6286726143085 -143.72350130108057 513.5987110391413 -143.0301282032754 512.5959696760207 -142.3705507694082 A 2.625 2.625 0 0 0 511.603 -139.384A 530.25 530.25 0 0 1 511.822 -138.575A 2.625 2.625 0 0 0 514.19 -136.501C 515.3887323413848 -136.43939361655498 516.627944521822 -136.36232046340362 517.9073461609852 -136.26805443244913 C 521.3275245652939 -136.01604664734668 525.0343709620047 -135.6412737378476 529.0194339760653 -135.10934276837185 A 546 546 0 0 1 530.409 -129.546C 527.142441396024 -127.20256409260418 524.0473146399335 -125.12859318966588 521.1474455833496 -123.29777706134522 C 520.0626766975538 -122.61291860641094 519.005290548812 -121.96213321050107 517.9764804367853 -121.34400507979375 A 2.625 2.625 0 0 0 516.862 -118.4A 530.25 530.25 0 0 1 517.049 -117.583A 2.625 2.625 0 0 0 519.33 -115.414C 520.5249954492551 -115.30387099948427 521.7600326515632 -115.17631627399113 523.0345245937275 -115.02994370742304 C 526.4415776820957 -114.63864140217443 530.1300527817328 -114.11298335566691 534.090102711614 -113.41894997378276 A 546 546 0 0 1 535.252 -107.804C 531.8921658435416 -105.59531119779926 528.7150205133024 -103.64931209886804 525.742888328435 -101.93830113551111 C 524.631087779988 -101.2982588092871 523.5480369725635 -100.69114428333853 522.4948704645299 -100.11549426906215 A 2.625 2.625 0 0 0 521.261 -97.2196A 530.25 530.25 0 0 1 521.414 -96.3956A 2.625 2.625 0 0 0 523.605 -94.1356C 524.7948960723777 -93.9764364683782 526.0237026990183 -93.79861247279563 527.2911636781243 -93.6003769933056 C 530.6794207469256 -93.07043145198057 534.3433854466986 -92.39476317440634 538.271831180106 -91.53978253018431 A 546 546 0 0 1 539.204 -85.8817C 535.7566082730067 -83.81230532861926 532.5027324134712 -81.99751695714622 529.4632839210249 -80.40915896764331 C 528.3263021922166 -79.81499805741633 527.219389357293 -79.25256488364185 526.143619344969 -78.72035109843478 A 2.625 2.625 0 0 0 524.793 -75.8772A 530.25 530.25 0 0 1 524.912 -75.0477A 2.625 2.625 0 0 0 527.009 -72.7002C 528.1913273825581 -72.49258743322662 529.411858206171 -72.26479013804595 530.6701786585041 -72.01502168902591 C 534.0340002882317 -71.34731495367814 537.667356280491 -70.52276102820404 541.5576593071966 -69.50825615254917 A 546 546 0 0 1 542.258 -63.8169C 538.7293367013742 -61.88980214858625 535.4041460677881 -60.209245040715786 532.3024401298179 -58.74618369018666 C 531.1421696145283 -58.19889311815455 530.0132370992791 -57.682077411065876 528.9166540956834 -57.19418567224981 A 2.625 2.625 0 0 0 527.451 -54.4085A 530.25 530.25 0 0 1 527.537 -53.5748A 2.625 2.625 0 0 0 529.536 -51.1437C 530.708636355072 -50.88808164052496 531.9188599225544 -50.61069019186289 533.165945497904 -50.30980448824678 C 536.499732939428 -49.50544789084183 540.0964328616975 -48.53338070610228 543.9421181562439 -47.361040142259434 A 546 546 0 0 1 544.41 -41.6459C 540.805403315551 -39.864289500729384 537.4144323595638 -38.320760777914764 534.2556314594985 -36.9854311875891 C 533.0740033134942 -36.48592186489734 531.9249301146776 -36.01558381323481 530.8093592739988 -35.572826168459386 A 2.625 2.625 0 0 0 529.232 -32.8492A 530.25 530.25 0 0 1 529.283 -32.0127A 2.625 2.625 0 0 0 531.181 -29.5021C 532.3426331775653 -29.19887765803543 533.5405351912252 -28.87235374658273 534.7743102387249 -28.520851582930074 C 538.0725147318575 -27.58118389564303 541.6265722320721 -26.463221361534536 545.4212390308141 -25.134996354674914 A 546 546 0 0 1 545.655 -19.4055C 541.9813527075431 -17.77242667717251 538.530245365659 -16.368495390643282 535.3196070158576 -15.163120084841605 C 534.1185879425736 -14.712223395461667 532.9512865791279 -14.289145830495002 531.8185846589354 -13.892259206164574 A 2.625 2.625 0 0 0 530.131 -11.2352A 530.25 530.25 0 0 1 530.148 -10.3974A 2.625 2.625 0 0 0 531.943 -7.81143" stroke="#191919" stroke-width="0.35 px" style="stroke-width:0.35;stroke-miterlimit:4;stroke-dasharray:none;fill:none;fill-rule: evenodd "/>
<title>b'InvoluteGear'</title>
</g>
</svg>