<?xml version="1.0"?>
<!DOCTYPE svg PUBLIC "-//W3C//DTD SVG 1.1//EN" "http://www.w3.org/Graphics/SVG/1.1/DTD/svg11.dtd">
<svg width="614.0144229026488mm" height="614.0144229026488mm" viewBox="0 0 614.0144229026488 614.0144229026488" xmlns="http://www.w3.org/2000/svg" version="1.1">
<g id="InvoluteGear" transform="translate(307.007211,307.007211) scale(1,-1)">
<path id="InvoluteGear_w0000"  d="M 286.8991539391229 -7.6075928528964845 C 288.0147666732034 -7.325340059815061 289.21207439505736 -6.996069587209819 290.4880159845863 -6.6122388427213945 C 293.5534930884423 -5.6900141570466305 297.06966903508606 -4.4541716393675825 300.98746220718067 -2.8028428096779834 A 301 301 0 0 1 300.987 2.80284C 297.06966903508606 4.4541716393675825 293.5534930884423 5.6900141570466305 290.4880159845863 6.6122388427213945 C 289.21207439505736 6.996069587209819 288.0147666732034 7.325340059815061 286.8991698221263 7.607587210638108 A 2.625 2.625 0 0 0 285.069 10.1609A 285.25 285.25 0 0 1 285.031 11.1707A 2.625 2.625 0 0 0 286.665 13.8537C 287.75684231899237 14.218513544469644 288.9261957123865 14.636338228157129 290.16988580298914 15.114446938432174 C 293.15787327405815 16.263176287699466 296.57186265260424 17.758327296605987 300.3552969224028 19.69781572637009 A 301 301 0 0 1 299.936 25.2878C 295.90614132568436 26.641761040754137 292.3074426931298 27.611383734542606 289.1816193479244 28.301946302093505 C 287.8805618424078 28.589352543575934 286.66199562254764 28.828227391051627 285.5284258505347 29.026316664510226 A 2.625 2.625 0 0 0 283.513 31.4358A 285.25 285.25 0 0 1 283.399 32.4399A 2.625 2.625 0 0 0 284.829 35.2375C 285.8896649775273 35.682851453449395 287.0245245439519 36.18689370310252 288.2290079161541 36.75660660131744 C 291.1227957164577 38.1254164536883 294.4155061134586 39.871514462890964 298.0434229818211 42.08831608670083 A 301 301 0 0 1 297.208 47.6314C 293.0877864433206 48.68035890749973 289.42669050737624 49.378339253978496 286.2580017929195 49.83337779740961 C 284.939104412744 50.022752243600884 283.70609441147536 50.16989558090331 282.56089110051016 50.282719181427815 A 2.625 2.625 0 0 0 280.371 52.5348A 285.25 285.25 0 0 1 280.183 53.5276A 2.625 2.625 0 0 0 281.399 56.4242C 282.42367666189887 56.94763638279382 283.5176958063168 57.53507738969402 284.6762365005175 58.193208410225 C 287.4596413948471 59.774443825764166 290.6126586381156 61.761723946912426 294.06476932229447 64.24344151086953 A 301 301 0 0 1 292.817 69.7086C 288.63036577172795 70.44671646064869 284.9273468659457 70.86915107059315 281.7335133748683 71.08612082978885 C 280.4041519291782 71.17640442196846 279.1635936385836 71.23099336386856 278.0131612301187 71.25792033611934 A 2.625 2.625 0 0 0 275.661 73.34A 285.25 285.25 0 0 1 275.399 74.316A 2.625 2.625 0 0 0 276.395 77.2954C 277.3782605847036 77.89394702938085 278.4253211082839 78.56150158512936 279.53144009497333 79.30437019234687 C 282.1888961541061 81.08918826120205 285.18458729223534 83.30653681774284 288.44158618897865 86.03929155055148 A 301 301 0 0 1 286.789 91.3959C 282.5588070153995 91.81910739950992 278.8345739235845 91.96363384722588 275.6334568683075 91.94132143928165 C 274.3010656855462 91.9320092749797 273.05989681080365 91.89373853797105 271.9106689895259 91.83461829539668 A 2.625 2.625 0 0 0 269.409 93.7351A 285.25 285.25 0 0 1 269.075 94.6888A 2.625 2.625 0 0 0 269.846 97.7343C 270.7816327592557 98.40464312746278 271.7758790748233 99.1485779961986 272.8233904879445 99.97202976751561 C 275.34003613963347 101.95044906305637 278.16164805261394 104.38546574242149 281.2053207029298 107.35397497110759 A 301 301 0 0 1 279.157 112.572C 274.9070647937533 112.6780086445071 271.18244493804406 112.54381867947356 267.9919462636343 112.28234888442537 C 266.6639766157637 112.17349304104202 265.42913827668565 112.04257665060999 264.2875419907416 111.89773981758835 A 2.625 2.625 0 0 0 261.651 113.606A 285.25 285.25 0 0 1 261.247 114.532A 2.625 2.625 0 0 0 261.788 117.627C 262.67068420419565 118.36502054454874 263.6065560830503 119.1811753407179 264.58960181387084 120.0806051998062 C 266.9513629547857 122.24156159881055 269.583116044248 124.88062879999455 272.3964409960476 128.06829141681226 A 301 301 0 0 1 269.964 133.119C 265.71793075312763 132.9067687587227 262.01375371860325 132.49461282565662 258.8517159878342 131.99544788866038 C 257.5355944197998 131.78765713222785 256.3139923332753 131.56482722593236 255.1864118521704 131.33508378878497 A 2.625 2.625 0 0 0 252.43 132.841A 285.25 285.25 0 0 1 251.957 133.735A 2.625 2.625 0 0 0 252.266 136.861C 253.09077463394937 137.66345275344202 253.96303830091955 138.54726320836127 254.8761207589525 139.5176411786062 C 257.06978946277394 141.84904973632567 259.49696589790375 144.67740872503452 262.0642098968661 148.06639802759466 A 301 301 0 0 1 259.261 152.921C 255.04279425853616 152.39226031005154 251.37977530572732 151.7044433521166 248.2638819162311 150.9703748059801 C 246.96696871370972 150.66481118669608 245.7654345741343 150.35131391976137 244.6581757853081 150.03794869698135 A 2.625 2.625 0 0 0 241.797 151.334A 285.25 285.25 0 0 1 241.259 152.19A 2.625 2.625 0 0 0 241.333 155.33C 242.0954787888056 156.19201509306004 242.8992561916427 157.13853858015864 243.73726904940207 158.1744379143288 C 245.75057743090377 160.6632604484015 247.95960345652165 163.66509389388153 250.2664094328338 167.23645727930253 A 301 301 0 0 1 247.109 171.868C 242.9413550034939 171.0255125256898 239.3399792202431 170.06588109431925 236.28765551177736 169.10101414811828 C 235.01720353947437 168.69938650168996 233.84245681314403 168.29697507799892 232.76171195688937 167.90174053502483 A 2.625 2.625 0 0 0 229.811 168.98A 285.25 285.25 0 0 1 229.211 169.793A 2.625 2.625 0 0 0 229.05 172.931C 229.74628682323623 173.84708832691726 230.47708291266116 174.85103150290985 231.23533966231685 175.94665903172876 C 233.05702848435575 178.57897703698413 235.03555033086238 181.73749746895155 237.06901768977747 185.47126242450273 A 301 301 0 0 1 233.574 189.854C 229.48128914511423 188.70232070089915 225.96169688565496 187.4762414443198 222.99001269053485 186.28597202540385 C 221.75312683122246 185.79052641654533 220.61173717835237 185.3014512840126 219.56355021829623 184.82655773273066 A 2.625 2.625 0 0 0 216.541 185.682A 285.25 285.25 0 0 1 215.882 186.448A 2.625 2.625 0 0 0 215.486 189.564C 216.1122604280098 190.52993812392788 216.7659882958521 191.5856865313371 217.4402484580825 192.73491506123588 C 219.06013009782026 195.49600754762125 220.79708306848704 198.79355123860572 222.54583983568307 202.66883703610003 A 301 301 0 0 1 218.733 206.778C 214.73787083158658 205.32382895398516 211.31974508351288 203.8381586047437 208.44531926518445 202.4291431825215 C 207.24891668631537 201.84265034404888 206.14726722083498 201.26964660920277 205.1375000436421 200.71774984698652 A 2.625 2.625 0 0 0 202.059 201.345A 285.25 285.25 0 0 1 201.345 202.059A 2.625 2.625 0 0 0 200.718 205.137C 201.26964660920277 206.14726722083498 201.84265034404888 207.24891668631537 202.4291431825215 208.44531926518445 C 203.8381586047437 211.31974508351288 205.32382895398516 214.73787083158658 206.77809537225843 218.73300530088267 A 301 301 0 0 1 202.669 222.546C 198.79355123860572 220.79708306848704 195.49600754762125 219.06013009782026 192.73491506123588 217.4402484580825 C 191.5856865313371 216.7659882958521 190.52993812392788 216.1122604280098 189.56423775725267 215.48644688542362 A 2.625 2.625 0 0 0 186.448 215.882A 285.25 285.25 0 0 1 185.682 216.541A 2.625 2.625 0 0 0 184.827 219.564C 185.30145128401261 220.61173717835234 185.79052641654536 221.75312683122243 186.2859720254039 222.99001269053483 C 187.47624144431984 225.96169688565493 188.70232070089918 229.4812891451142 189.85396392253352 233.57392987368283 A 301 301 0 0 1 185.471 237.069C 181.73749746895157 235.03555033086235 178.57897703698416 233.05702848435573 175.9466590317288 231.23533966231682 C 174.85103150290988 230.47708291266113 173.8470883269173 229.7462868232362 172.93085535893465 229.0500563034638 A 2.625 2.625 0 0 0 169.793 229.211A 285.25 285.25 0 0 1 168.98 229.811A 2.625 2.625 0 0 0 167.902 232.762C 168.29697507799892 233.84245681314403 168.69938650168996 235.01720353947437 169.10101414811828 236.28765551177736 C 170.06588109431925 239.3399792202431 171.0255125256898 242.9413550034939 171.86809209464 247.1086142842518 A 301 301 0 0 1 167.236 250.266C 163.66509389388153 247.95960345652165 160.6632604484015 245.75057743090377 158.1744379143288 243.73726904940207 C 157.13853858015864 242.8992561916427 156.19201509306004 242.0954787888056 155.33037347018546 241.33272489533084 A 2.625 2.625 0 0 0 152.19 241.259A 285.25 285.25 0 0 1 151.334 241.797A 2.625 2.625 0 0 0 150.038 244.658C 150.35131391976134 245.76543457413433 150.66481118669606 246.96696871370975 150.97037480598007 248.26388191623113 C 151.70444335211658 251.37977530572735 152.3922603100515 255.04279425853616 152.92106417958598 259.26136708718815 A 301 301 0 0 1 148.066 262.064C 144.6774087250345 259.49696589790375 141.84904973632564 257.069789462774 139.51764117860617 254.87612075895254 C 138.54726320836124 253.96303830091958 137.663452753442 253.0907746339494 136.8612211251449 252.2657629959462 A 2.625 2.625 0 0 0 133.735 251.957A 285.25 285.25 0 0 1 132.841 252.43A 2.625 2.625 0 0 0 131.335 255.186C 131.5648272259324 256.3139923332753 131.78765713222788 257.5355944197998 131.9954478886604 258.8517159878342 C 132.49461282565665 262.01375371860325 132.9067687587227 265.71793075312763 133.11883964310027 269.96422515920386 A 301 301 0 0 1 128.068 272.396C 124.88062879999455 269.583116044248 122.24156159881056 266.9513629547857 120.0806051998062 264.58960181387084 C 119.18117534071791 263.6065560830503 118.36502054454876 262.67068420419565 117.62668531550992 261.7880286213996 A 2.625 2.625 0 0 0 114.532 261.247A 285.25 285.25 0 0 1 113.606 261.651A 2.625 2.625 0 0 0 111.898 264.288C 112.04257665060997 265.42913827668565 112.17349304104201 266.6639766157637 112.28234888442536 267.9919462636343 C 112.54381867947353 271.18244493804406 112.67800864450707 274.9070647937533 112.57216055731838 279.1573337764783 A 301 301 0 0 1 107.354 281.205C 104.38546574242146 278.16164805261394 101.95044906305637 275.34003613963347 99.9720297675156 272.8233904879445 C 99.14857799619858 271.7758790748233 98.40464312746276 270.7816327592557 97.73433336777953 269.84626939972406 A 2.625 2.625 0 0 0 94.6888 269.075A 285.25 285.25 0 0 1 93.7351 269.409A 2.625 2.625 0 0 0 91.8346 271.911C 91.893738537971 273.05989681080365 91.93200927497968 274.3010656855462 91.94132143928162 275.6334568683075 C 91.96363384722585 278.8345739235845 91.81910739950989 282.5588070153995 91.39593228619444 286.7892813465526 A 301 301 0 0 1 86.0393 288.442C 83.30653681774281 285.18458729223534 81.08918826120203 282.1888961541061 79.30437019234684 279.53144009497333 C 78.56150158512934 278.4253211082839 77.89394702938081 277.3782605847036 77.2954113831322 276.3954203797615 A 2.625 2.625 0 0 0 74.316 275.399A 285.25 285.25 0 0 1 73.34 275.661A 2.625 2.625 0 0 0 71.2579 278.013C 71.23099336386858 279.1635936385836 71.17640442196847 280.4041519291782 71.08612082978887 281.7335133748683 C 70.86915107059316 284.9273468659457 70.4467164606487 288.63036577172795 69.70858088809594 292.81738692280993 A 301 301 0 0 1 64.2434 294.065C 61.76172394691244 290.6126586381156 59.77444382576418 287.4596413948471 58.19320841022501 284.6762365005175 C 57.53507738969403 283.5176958063168 56.94763638279383 282.42367666189887 56.42422210410225 281.3988560526493 A 2.625 2.625 0 0 0 53.5276 280.183A 285.25 285.25 0 0 1 52.5348 280.371A 2.625 2.625 0 0 0 50.2827 282.561C 50.1698955809033 283.70609441147536 50.02275224360088 284.939104412744 49.833377797409604 286.2580017929195 C 49.37833925397849 289.42669050737624 48.680358907499716 293.0877864433206 47.6313908292469 297.2079388936411 A 301 301 0 0 1 42.0883 298.043C 39.87151446289095 294.4155061134586 38.125416453688295 291.1227957164577 36.756606601317436 288.2290079161541 C 36.18689370310251 287.0245245439519 35.68285145344939 285.8896649775273 35.23748568727781 284.828595176523 A 2.625 2.625 0 0 0 32.4399 283.399A 285.25 285.25 0 0 1 31.4358 283.513A 2.625 2.625 0 0 0 29.0263 285.528C 28.8282273910516 286.66199562254764 28.589352543575906 287.8805618424078 28.301946302093477 289.1816193479244 C 27.611383734542578 292.3074426931298 26.64176104075411 295.90614132568436 25.28782671179577 299.9363835114523 A 301 301 0 0 1 19.6978 300.355C 17.75832729660596 296.57186265260424 16.263176287699437 293.15787327405815 15.114446938432145 290.16988580298914 C 14.6363382281571 288.9261957123865 14.218513544469616 287.75684231899237 13.853686956839589 286.66545725897043 A 2.625 2.625 0 0 0 11.1707 285.031A 285.25 285.25 0 0 1 10.1609 285.069A 2.625 2.625 0 0 0 7.60759 286.899C 7.325340059815079 288.0147666732034 6.996069587209837 289.21207439505736 6.612238842721412 290.4880159845863 C 5.690014157046648 293.5534930884423 4.4541716393676 297.06966903508606 2.802842809678002 300.98746220718067 A 301 301 0 0 1 -2.80284 300.987C -4.454171639367565 297.06966903508606 -5.690014157046613 293.5534930884423 -6.612238842721377 290.4880159845863 C -6.996069587209801 289.21207439505736 -7.325340059815043 288.0147666732034 -7.607587210638091 286.8991698221263 A 2.625 2.625 0 0 0 -10.1609 285.069A 285.25 285.25 0 0 1 -11.1707 285.031A 2.625 2.625 0 0 0 -13.8537 286.665C -14.218513544469648 287.75684231899237 -14.636338228157133 288.9261957123865 -15.114446938432177 290.16988580298914 C -16.263176287699466 293.15787327405815 -17.75832729660599 296.57186265260424 -19.697815726370095 300.3552969224028 A 301 301 0 0 1 -25.2878 299.936C -26.64176104075414 295.90614132568436 -27.611383734542613 292.3074426931298 -28.30194630209351 289.1816193479244 C -28.589352543575938 287.8805618424078 -28.82822739105163 286.66199562254764 -29.02631666451023 285.5284258505347 A 2.625 2.625 0 0 0 -31.4358 283.513A 285.25 285.25 0 0 1 -32.4399 283.399A 2.625 2.625 0 0 0 -35.2375 284.829C -35.68285145344942 285.8896649775273 -36.18689370310255 287.0245245439519 -36.756606601317465 288.2290079161541 C -38.125416453688324 291.1227957164577 -39.871514462890985 294.4155061134586 -42.08831608670085 298.0434229818211 A 301 301 0 0 1 -47.6314 297.208C -48.68035890749975 293.0877864433206 -49.37833925397852 289.42669050737624 -49.83337779740963 286.2580017929195 C -50.02275224360091 284.939104412744 -50.16989558090334 283.70609441147536 -50.282719181427844 282.56089110051016 A 2.625 2.625 0 0 0 -52.5348 280.371A 285.25 285.25 0 0 1 -53.5276 280.183A 2.625 2.625 0 0 0 -56.4242 281.399C -56.9476363827938 282.42367666189887 -57.535077389694 283.5176958063168 -58.19320841022498 284.6762365005175 C -59.77444382576415 287.4596413948471 -61.76172394691241 290.6126586381156 -64.24344151086952 294.06476932229447 A 301 301 0 0 1 -69.7086 292.817C -70.44671646064867 288.63036577172795 -70.86915107059313 284.9273468659457 -71.08612082978884 281.7335133748683 C -71.17640442196844 280.4041519291782 -71.23099336386855 279.1635936385836 -71.25792033611933 278.0131612301187 A 2.625 2.625 0 0 0 -73.34 275.661A 285.25 285.25 0 0 1 -74.316 275.399A 2.625 2.625 0 0 0 -77.2954 276.395C -77.89394702938085 277.3782605847036 -78.56150158512936 278.4253211082839 -79.30437019234687 279.53144009497333 C -81.08918826120205 282.1888961541061 -83.30653681774284 285.18458729223534 -86.03929155055148 288.44158618897865 A 301 301 0 0 1 -91.3959 286.789C -91.81910739950992 282.5588070153995 -91.96363384722588 278.8345739235845 -91.94132143928165 275.6334568683075 C -91.9320092749797 274.3010656855462 -91.89373853797105 273.05989681080365 -91.83461829539668 271.9106689895259 A 2.625 2.625 0 0 0 -93.7351 269.409A 285.25 285.25 0 0 1 -94.6888 269.075A 2.625 2.625 0 0 0 -97.7343 269.846C -98.40464312746279 270.7816327592557 -99.14857799619861 271.7758790748233 -99.97202976751562 272.8233904879445 C -101.9504490630564 275.34003613963347 -104.3854657424215 278.16164805261394 -107.35397497110762 281.2053207029298 A 301 301 0 0 1 -112.572 279.157C -112.67800864450712 274.9070647937533 -112.54381867947359 271.18244493804406 -112.28234888442539 267.9919462636343 C -112.17349304104204 266.6639766157637 -112.04257665061 265.42913827668565 -111.89773981758836 264.2875419907416 A 2.625 2.625 0 0 0 -113.606 261.651A 285.25 285.25 0 0 1 -114.532 261.247A 2.625 2.625 0 0 0 -117.627 261.788C -118.36502054454873 262.67068420419565 -119.18117534071789 263.6065560830503 -120.08060519980617 264.58960181387084 C -122.24156159881053 266.9513629547857 -124.88062879999453 269.583116044248 -128.06829141681223 272.3964409960476 A 301 301 0 0 1 -133.119 269.964C -132.90676875872268 265.71793075312763 -132.49461282565662 262.01375371860325 -131.99544788866038 258.8517159878342 C -131.78765713222785 257.5355944197998 -131.56482722593236 256.3139923332753 -131.33508378878497 255.1864118521704 A 2.625 2.625 0 0 0 -132.841 252.43A 285.25 285.25 0 0 1 -133.735 251.957A 2.625 2.625 0 0 0 -136.861 252.266C -137.66345275344204 253.09077463394937 -138.5472632083613 253.96303830091955 -139.51764117860623 254.8761207589525 C -141.8490497363257 257.06978946277394 -144.67740872503455 259.49696589790375 -148.0663980275947 262.0642098968661 A 301 301 0 0 1 -152.921 259.261C -152.39226031005157 255.04279425853616 -151.70444335211664 251.37977530572732 -150.97037480598013 248.2638819162311 C -150.6648111866961 246.96696871370972 -150.3513139197614 245.7654345741343 -150.03794869698137 244.6581757853081 A 2.625 2.625 0 0 0 -151.334 241.797A 285.25 285.25 0 0 1 -152.19 241.259A 2.625 2.625 0 0 0 -155.33 241.333C -156.19201509306004 242.0954787888056 -157.13853858015864 242.8992561916427 -158.1744379143288 243.73726904940207 C -160.6632604484015 245.75057743090377 -163.66509389388153 247.95960345652165 -167.23645727930253 250.2664094328338 A 301 301 0 0 1 -171.868 247.109C -171.0255125256898 242.9413550034939 -170.06588109431925 239.3399792202431 -169.10101414811828 236.28765551177736 C -168.69938650168996 235.01720353947437 -168.29697507799892 233.84245681314403 -167.90174053502483 232.76171195688937 A 2.625 2.625 0 0 0 -168.98 229.811A 285.25 285.25 0 0 1 -169.793 229.211A 2.625 2.625 0 0 0 -172.931 229.05C -173.84708832691723 229.74628682323626 -174.85103150290982 230.4770829126612 -175.94665903172873 231.23533966231687 C -178.5789770369841 233.0570284843558 -181.73749746895152 235.0355503308624 -185.4712624245027 237.0690176897775 A 301 301 0 0 1 -189.854 233.574C -188.70232070089912 229.48128914511426 -187.47624144431978 225.96169688565502 -186.28597202540382 222.99001269053488 C -185.7905264165453 221.7531268312225 -185.30145128401256 220.6117371783524 -184.82655773273063 219.56355021829626 A 2.625 2.625 0 0 0 -185.682 216.541A 285.25 285.25 0 0 1 -186.448 215.882A 2.625 2.625 0 0 0 -189.564 215.486C -190.52993812392788 216.1122604280098 -191.5856865313371 216.7659882958521 -192.73491506123588 217.4402484580825 C -195.49600754762125 219.06013009782026 -198.79355123860572 220.79708306848704 -202.66883703610003 222.54583983568307 A 301 301 0 0 1 -206.778 218.733C -205.32382895398516 214.73787083158658 -203.8381586047437 211.31974508351288 -202.4291431825215 208.44531926518445 C -201.84265034404888 207.24891668631537 -201.26964660920277 206.14726722083498 -200.71774984698652 205.1375000436421 A 2.625 2.625 0 0 0 -201.345 202.059A 285.25 285.25 0 0 1 -202.059 201.345A 2.625 2.625 0 0 0 -205.137 200.718C -206.147267220835 201.26964660920274 -207.24891668631543 201.84265034404885 -208.44531926518448 202.42914318252144 C -211.3197450835129 203.83815860474368 -214.7378708315866 205.32382895398513 -218.7330053008827 206.7780953722584 A 301 301 0 0 1 -222.546 202.669C -220.79708306848707 198.7935512386057 -219.0601300978203 195.49600754762122 -217.44024845808252 192.73491506123582 C -216.76598829585217 191.58568653133707 -216.11226042800982 190.52993812392785 -215.48644688542365 189.56423775725264 A 2.625 2.625 0 0 0 -215.882 186.448A 285.25 285.25 0 0 1 -216.541 185.682A 2.625 2.625 0 0 0 -219.564 184.827C -220.61173717835234 185.30145128401261 -221.75312683122243 185.79052641654536 -222.99001269053483 186.2859720254039 C -225.96169688565493 187.47624144431984 -229.4812891451142 188.70232070089918 -233.57392987368283 189.85396392253352 A 301 301 0 0 1 -237.069 185.471C -235.03555033086235 181.73749746895157 -233.05702848435573 178.57897703698416 -231.23533966231682 175.9466590317288 C -230.47708291266113 174.85103150290988 -229.7462868232362 173.8470883269173 -229.0500563034638 172.93085535893465 A 2.625 2.625 0 0 0 -229.211 169.793A 285.25 285.25 0 0 1 -229.811 168.98A 2.625 2.625 0 0 0 -232.762 167.902C -233.84245681314408 168.29697507799887 -235.0172035394744 168.6993865016899 -236.2876555117774 169.1010141481182 C -239.33997922024312 170.0658810943192 -242.94135500349392 171.02551252568975 -247.10861428425181 171.86809209463993 A 301 301 0 0 1 -250.266 167.236C -247.95960345652168 163.66509389388148 -245.7505774309038 160.66326044840145 -243.7372690494021 158.1744379143287 C -242.89925619164273 157.13853858015858 -242.09547878880565 156.19201509305998 -241.33272489533087 155.3303734701854 A 2.625 2.625 0 0 0 -241.259 152.19A 285.25 285.25 0 0 1 -241.797 151.334A 2.625 2.625 0 0 0 -244.658 150.038C -245.76543457413433 150.35131391976134 -246.96696871370975 150.66481118669606 -248.26388191623113 150.97037480598007 C -251.37977530572735 151.70444335211658 -255.04279425853616 152.3922603100515 -259.26136708718815 152.92106417958598 A 301 301 0 0 1 -262.064 148.066C -259.49696589790375 144.6774087250345 -257.069789462774 141.84904973632564 -254.87612075895254 139.51764117860617 C -253.96303830091958 138.54726320836124 -253.0907746339494 137.663452753442 -252.2657629959462 136.8612211251449 A 2.625 2.625 0 0 0 -251.957 133.735A 285.25 285.25 0 0 1 -252.43 132.841A 2.625 2.625 0 0 0 -255.186 131.335C -256.3139923332752 131.5648272259324 -257.5355944197998 131.78765713222788 -258.8517159878342 131.99544788866044 C -262.0137537186032 132.49461282565665 -265.71793075312763 132.90676875872273 -269.9642251592038 133.1188396431003 A 301 301 0 0 1 -272.396 128.068C -269.583116044248 124.88062879999458 -266.9513629547856 122.24156159881058 -264.58960181387084 120.08060519980624 C -263.6065560830503 119.18117534071794 -262.6706842041956 118.36502054454877 -261.7880286213996 117.62668531550993 A 2.625 2.625 0 0 0 -261.247 114.532A 285.25 285.25 0 0 1 -261.651 113.606A 2.625 2.625 0 0 0 -264.288 111.898C -265.4291382766857 112.04257665060992 -266.6639766157638 112.17349304104195 -267.9919462636343 112.28234888442532 C -271.1824449380441 112.5438186794735 -274.90706479375336 112.67800864450703 -279.1573337764783 112.57216055731834 A 301 301 0 0 1 -281.205 107.354C -278.161648052614 104.38546574242142 -275.3400361396335 101.95044906305631 -272.8233904879445 99.97202976751555 C -271.77587907482337 99.14857799619853 -270.78163275925573 98.4046431274627 -269.8462693997241 97.73433336777948 A 2.625 2.625 0 0 0 -269.075 94.6888A 285.25 285.25 0 0 1 -269.409 93.7351A 2.625 2.625 0 0 0 -271.911 91.8346C -273.05989681080365 91.89373853797102 -274.3010656855462 91.93200927497969 -275.6334568683075 91.94132143928164 C -278.8345739235845 91.96363384722586 -282.5588070153995 91.8191073995099 -286.7892813465526 91.39593228619447 A 301 301 0 0 1 -288.442 86.0393C -285.18458729223534 83.30653681774282 -282.1888961541061 81.08918826120204 -279.53144009497333 79.30437019234685 C -278.4253211082839 78.56150158512935 -277.3782605847036 77.89394702938083 -276.3954203797615 77.29541138313222 A 2.625 2.625 0 0 0 -275.399 74.316A 285.25 285.25 0 0 1 -275.661 73.34A 2.625 2.625 0 0 0 -278.013 71.2579C -279.16359363858356 71.23099336386859 -280.4041519291782 71.17640442196848 -281.7335133748683 71.08612082978888 C -284.9273468659457 70.86915107059318 -288.63036577172795 70.44671646064873 -292.81738692280993 69.70858088809595 A 301 301 0 0 1 -294.065 64.2434C -290.6126586381156 61.76172394691247 -287.4596413948471 59.774443825764195 -284.6762365005175 58.193208410225026 C -283.5176958063168 57.535077389694045 -282.4236766618989 56.947636382793846 -281.3988560526493 56.42422210410226 A 2.625 2.625 0 0 0 -280.183 53.5276A 285.25 285.25 0 0 1 -280.371 52.5348A 2.625 2.625 0 0 0 -282.561 50.2827C -283.70609441147536 50.16989558090326 -284.939104412744 50.02275224360083 -286.2580017929195 49.833377797409554 C -289.42669050737624 49.37833925397844 -293.0877864433206 48.68035890749967 -297.2079388936411 47.63139082924685 A 301 301 0 0 1 -298.043 42.0883C -294.4155061134586 39.8715144628909 -291.1227957164577 38.125416453688246 -288.2290079161541 36.75660660131739 C -287.0245245439519 36.18689370310246 -285.8896649775273 35.682851453449345 -284.828595176523 35.23748568727777 A 2.625 2.625 0 0 0 -283.399 32.4399A 285.25 285.25 0 0 1 -283.513 31.4358A 2.625 2.625 0 0 0 -285.528 29.0263C -286.66199562254764 28.828227391051616 -287.8805618424078 28.589352543575924 -289.1816193479244 28.301946302093498 C -292.3074426931298 27.6113837345426 -295.90614132568436 26.641761040754126 -299.9363835114523 25.28782671179579 A 301 301 0 0 1 -300.355 19.6978C -296.57186265260424 17.758327296605977 -293.15787327405815 16.26317628769946 -290.16988580298914 15.114446938432167 C -288.9261957123865 14.636338228157118 -287.75684231899237 14.218513544469634 -286.66545725897043 13.85368695683961 A 2.625 2.625 0 0 0 -285.031 11.1707A 285.25 285.25 0 0 1 -285.069 10.1609A 2.625 2.625 0 0 0 -286.899 7.60759C -288.0147666732034 7.325340059815097 -289.21207439505736 6.996069587209854 -290.4880159845863 6.61223884272143 C -293.5534930884423 5.690014157046666 -297.06966903508606 4.454171639367619 -300.98746220718067 2.8028428096780202 A 301 301 0 0 1 -300.987 -2.80284C -297.06966903508606 -4.454171639367546 -293.5534930884423 -5.690014157046595 -290.4880159845863 -6.612238842721359 C -289.21207439505736 -6.996069587209783 -288.0147666732034 -7.325340059815026 -286.8991698221263 -7.607587210638073 A 2.625 2.625 0 0 0 -285.069 -10.1609A 285.25 285.25 0 0 1 -285.031 -11.1707A 2.625 2.625 0 0 0 -286.665 -13.8537C -287.75684231899237 -14.21851354446969 -288.9261957123865 -14.636338228157175 -290.16988580298914 -15.11444693843222 C -293.15787327405815 -16.263176287699515 -296.57186265260424 -17.758327296606037 -300.3552969224028 -19.69781572637014 A 301 301 0 0 1 -299.936 -25.2878C -295.90614132568436 -26.641761040754186 -292.3074426931298 -27.611383734542656 -289.1816193479244 -28.30194630209355 C -287.8805618424078 -28.58935254357598 -286.66199562254764 -28.828227391051673 -285.5284258505347 -29.026316664510276 A 2.625 2.625 0 0 0 -283.513 -31.4358A 285.25 285.25 0 0 1 -283.399 -32.4399A 2.625 2.625 0 0 0 -284.829 -35.2375C -285.8896649775273 -35.68285145344941 -287.0245245439519 -36.18689370310253 -288.2290079161541 -36.75660660131745 C -291.1227957164577 -38.12541645368831 -294.4155061134586 -39.87151446289097 -298.0434229818211 -42.088316086700836 A 301 301 0 0 1 -297.208 -47.6314C -293.0877864433206 -48.68035890749974 -289.42669050737624 -49.3783392539785 -286.2580017929195 -49.83337779740962 C -284.939104412744 -50.02275224360089 -283.70609441147536 -50.16989558090332 -282.56089110051016 -50.28271918142783 A 2.625 2.625 0 0 0 -280.371 -52.5348A 285.25 285.25 0 0 1 -280.183 -53.5276A 2.625 2.625 0 0 0 -281.399 -56.4242C -282.42367666189887 -56.94763638279379 -283.5176958063168 -57.53507738969399 -284.6762365005175 -58.19320841022497 C -287.4596413948471 -59.77444382576414 -290.6126586381156 -61.7617239469124 -294.06476932229447 -64.24344151086949 A 301 301 0 0 1 -292.817 -69.7086C -288.63036577172795 -70.44671646064866 -284.9273468659457 -70.86915107059312 -281.7335133748683 -71.08612082978883 C -280.4041519291782 -71.17640442196843 -279.1635936385836 -71.23099336386854 -278.0131612301187 -71.25792033611931 A 2.625 2.625 0 0 0 -275.661 -73.34A 285.25 285.25 0 0 1 -275.399 -74.316A 2.625 2.625 0 0 0 -276.395 -77.2954C -277.3782605847036 -77.8939470293809 -278.42532110828387 -78.5615015851294 -279.53144009497333 -79.30437019234692 C -282.18889615410603 -81.08918826120211 -285.1845872922353 -83.3065368177429 -288.44158618897865 -86.03929155055152 A 301 301 0 0 1 -286.789 -91.3959C -282.55880701539945 -91.81910739950997 -278.83457392358446 -91.96363384722594 -275.6334568683075 -91.94132143928171 C -274.3010656855461 -91.93200927497975 -273.05989681080365 -91.89373853797109 -271.91066898952585 -91.83461829539672 A 2.625 2.625 0 0 0 -269.409 -93.7351A 285.25 285.25 0 0 1 -269.075 -94.6888A 2.625 2.625 0 0 0 -269.846 -97.7343C -270.7816327592557 -98.40464312746278 -271.7758790748233 -99.1485779961986 -272.8233904879445 -99.97202976751561 C -275.34003613963347 -101.95044906305637 -278.16164805261394 -104.38546574242149 -281.2053207029298 -107.35397497110759 A 301 301 0 0 1 -279.157 -112.572C -274.9070647937533 -112.6780086445071 -271.18244493804406 -112.54381867947356 -267.9919462636343 -112.28234888442537 C -266.6639766157637 -112.17349304104202 -265.42913827668565 -112.04257665060999 -264.2875419907416 -111.89773981758835 A 2.625 2.625 0 0 0 -261.651 -113.606A 285.25 285.25 0 0 1 -261.247 -114.532A 2.625 2.625 0 0 0 -261.788 -117.627C -262.67068420419565 -118.36502054454871 -263.6065560830503 -119.18117534071786 -264.58960181387084 -120.08060519980617 C -266.9513629547857 -122.24156159881052 -269.583116044248 -124.8806287999945 -272.3964409960476 -128.06829141681223 A 301 301 0 0 1 -269.964 -133.119C -265.71793075312763 -132.90676875872265 -262.01375371860325 -132.4946128256566 -258.8517159878342 -131.99544788866035 C -257.5355944197998 -131.78765713222782 -256.3139923332753 -131.56482722593233 -255.1864118521704 -131.33508378878494 A 2.625 2.625 0 0 0 -252.43 -132.841A 285.25 285.25 0 0 1 -251.957 -133.735A 2.625 2.625 0 0 0 -252.266 -136.861C -253.09077463394937 -137.66345275344204 -253.96303830091955 -138.5472632083613 -254.8761207589525 -139.51764117860623 C -257.06978946277394 -141.8490497363257 -259.49696589790375 -144.67740872503455 -262.0642098968661 -148.0663980275947 A 301 301 0 0 1 -259.261 -152.921C -255.04279425853616 -152.39226031005157 -251.37977530572732 -151.70444335211664 -248.2638819162311 -150.97037480598013 C -246.96696871370972 -150.6648111866961 -245.7654345741343 -150.3513139197614 -244.6581757853081 -150.03794869698137 A 2.625 2.625 0 0 0 -241.797 -151.334A 285.25 285.25 0 0 1 -241.259 -152.19A 2.625 2.625 0 0 0 -241.333 -155.33C -242.0954787888056 -156.19201509306004 -242.8992561916427 -157.13853858015864 -243.73726904940207 -158.1744379143288 C -245.75057743090377 -160.6632604484015 -247.95960345652165 -163.66509389388153 -250.2664094328338 -167.23645727930253 A 301 301 0 0 1 -247.109 -171.868C -242.9413550034939 -171.0255125256898 -239.3399792202431 -170.06588109431925 -236.28765551177736 -169.10101414811828 C -235.01720353947437 -168.69938650168996 -233.84245681314403 -168.29697507799892 -232.76171195688937 -167.90174053502483 A 2.625 2.625 0 0 0 -229.811 -168.98A 285.25 285.25 0 0 1 -229.211 -169.793A 2.625 2.625 0 0 0 -229.05 -172.931C -229.74628682323618 -173.84708832691737 -230.4770829126611 -174.85103150290996 -231.23533966231676 -175.94665903172887 C -233.0570284843557 -178.5789770369842 -235.03555033086232 -181.73749746895163 -237.06901768977738 -185.4712624245028 A 301 301 0 0 1 -233.574 -189.854C -229.48128914511418 -188.70232070089924 -225.9616968856549 -187.4762414443199 -222.99001269053477 -186.28597202540396 C -221.7531268312224 -185.79052641654545 -220.6117371783523 -185.3014512840127 -219.56355021829617 -184.82655773273075 A 2.625 2.625 0 0 0 -216.541 -185.682A 285.25 285.25 0 0 1 -215.882 -186.448A 2.625 2.625 0 0 0 -215.486 -189.564C -216.1122604280098 -190.52993812392788 -216.7659882958521 -191.5856865313371 -217.4402484580825 -192.73491506123588 C -219.06013009782026 -195.49600754762125 -220.79708306848704 -198.79355123860572 -222.54583983568307 -202.66883703610003 A 301 301 0 0 1 -218.733 -206.778C -214.73787083158658 -205.32382895398516 -211.31974508351288 -203.8381586047437 -208.44531926518445 -202.4291431825215 C -207.24891668631537 -201.84265034404888 -206.14726722083498 -201.26964660920277 -205.1375000436421 -200.71774984698652 A 2.625 2.625 0 0 0 -202.059 -201.345A 285.25 285.25 0 0 1 -201.345 -202.059A 2.625 2.625 0 0 0 -200.718 -205.137C -201.26964660920277 -206.14726722083498 -201.84265034404888 -207.24891668631537 -202.4291431825215 -208.44531926518445 C -203.8381586047437 -211.31974508351288 -205.32382895398516 -214.73787083158658 -206.77809537225843 -218.73300530088267 A 301 301 0 0 1 -202.669 -222.546C -198.79355123860572 -220.79708306848704 -195.49600754762125 -219.06013009782026 -192.73491506123588 -217.4402484580825 C -191.5856865313371 -216.7659882958521 -190.52993812392788 -216.1122604280098 -189.56423775725267 -215.48644688542362 A 2.625 2.625 0 0 0 -186.448 -215.882A 285.25 285.25 0 0 1 -185.682 -216.541A 2.625 2.625 0 0 0 -184.827 -219.564C -185.30145128401267 -220.61173717835234 -185.79052641654542 -221.75312683122243 -186.28597202540394 -222.99001269053483 C -187.47624144431987 -225.96169688565493 -188.7023207008992 -229.4812891451142 -189.85396392253355 -233.57392987368283 A 301 301 0 0 1 -185.471 -237.069C -181.7374974689516 -235.03555033086235 -178.57897703698418 -233.05702848435573 -175.94665903172884 -231.23533966231682 C -174.85103150290993 -230.47708291266113 -173.84708832691734 -229.7462868232362 -172.93085535893468 -229.0500563034638 A 2.625 2.625 0 0 0 -169.793 -229.211A 285.25 285.25 0 0 1 -168.98 -229.811A 2.625 2.625 0 0 0 -167.902 -232.762C -168.2969750779989 -233.84245681314403 -168.69938650168993 -235.01720353947437 -169.10101414811825 -236.28765551177736 C -170.06588109431922 -239.3399792202431 -171.02551252568978 -242.9413550034939 -171.86809209463996 -247.1086142842518 A 301 301 0 0 1 -167.236 -250.266C -163.6650938938815 -247.95960345652165 -160.66326044840147 -245.75057743090377 -158.17443791432876 -243.73726904940207 C -157.1385385801586 -242.8992561916427 -156.19201509306 -242.0954787888056 -155.33037347018544 -241.33272489533084 A 2.625 2.625 0 0 0 -152.19 -241.259A 285.25 285.25 0 0 1 -151.334 -241.797A 2.625 2.625 0 0 0 -150.038 -244.658C -150.35131391976128 -245.76543457413436 -150.664811186696 -246.9669687137098 -150.97037480598001 -248.26388191623116 C -151.70444335211653 -251.37977530572738 -152.39226031005146 -255.04279425853622 -152.9210641795859 -259.2613670871882 A 301 301 0 0 1 -148.066 -262.064C -144.67740872503444 -259.4969658979038 -141.84904973632558 -257.069789462774 -139.5176411786061 -254.87612075895257 C -138.5472632083612 -253.96303830091964 -137.66345275344193 -253.09077463394942 -136.86122112514485 -252.26576299594623 A 2.625 2.625 0 0 0 -133.735 -251.957A 285.25 285.25 0 0 1 -132.841 -252.43A 2.625 2.625 0 0 0 -131.335 -255.186C -131.56482722593242 -256.3139923332752 -131.7876571322279 -257.5355944197998 -131.99544788866044 -258.8517159878342 C -132.49461282565667 -262.0137537186032 -132.90676875872273 -265.71793075312763 -133.11883964310033 -269.9642251592038 A 301 301 0 0 1 -128.068 -272.396C -124.88062879999458 -269.583116044248 -122.2415615988106 -266.9513629547856 -120.08060519980626 -264.58960181387084 C -119.18117534071794 -263.6065560830503 -118.36502054454878 -262.6706842041956 -117.62668531550995 -261.7880286213996 A 2.625 2.625 0 0 0 -114.532 -261.247A 285.25 285.25 0 0 1 -113.606 -261.651A 2.625 2.625 0 0 0 -111.898 -264.288C -112.04257665060993 -265.42913827668565 -112.17349304104197 -266.6639766157637 -112.28234888442533 -267.9919462636343 C -112.5438186794735 -271.18244493804406 -112.67800864450705 -274.9070647937533 -112.57216055731836 -279.1573337764783 A 301 301 0 0 1 -107.354 -281.205C -104.38546574242143 -278.16164805261394 -101.95044906305634 -275.34003613963347 -99.97202976751556 -272.8233904879445 C -99.14857799619854 -271.7758790748233 -98.40464312746272 -270.7816327592557 -97.7343333677795 -269.84626939972406 A 2.625 2.625 0 0 0 -94.6888 -269.075A 285.25 285.25 0 0 1 -93.7351 -269.409A 2.625 2.625 0 0 0 -91.8346 -271.911C -91.89373853797093 -273.0598968108037 -91.93200927497959 -274.3010656855462 -91.94132143928154 -275.6334568683076 C -91.96363384722576 -278.8345739235845 -91.8191073995098 -282.55880701539957 -91.39593228619437 -286.7892813465527 A 301 301 0 0 1 -86.0393 -288.442C -83.30653681774272 -285.1845872922354 -81.08918826120194 -282.1888961541061 -79.30437019234675 -279.5314400949734 C -78.56150158512925 -278.4253211082839 -77.89394702938074 -277.37826058470364 -77.29541138313213 -276.39542037976156 A 2.625 2.625 0 0 0 -74.316 -275.399A 285.25 285.25 0 0 1 -73.34 -275.661A 2.625 2.625 0 0 0 -71.2579 -278.013C -71.23099336386862 -279.16359363858356 -71.17640442196851 -280.4041519291782 -71.08612082978891 -281.7335133748683 C -70.8691510705932 -284.9273468659457 -70.44671646064874 -288.63036577172795 -69.70858088809598 -292.8173869228099 A 301 301 0 0 1 -64.2434 -294.065C -61.76172394691248 -290.6126586381156 -59.77444382576422 -287.4596413948471 -58.193208410225054 -284.6762365005175 C -57.535077389694074 -283.5176958063168 -56.947636382793874 -282.4236766618989 -56.4242221041023 -281.3988560526493 A 2.625 2.625 0 0 0 -53.5276 -280.183A 285.25 285.25 0 0 1 -52.5348 -280.371A 2.625 2.625 0 0 0 -50.2827 -282.561C -50.16989558090328 -283.70609441147536 -50.022752243600856 -284.939104412744 -49.833377797409575 -286.2580017929195 C -49.37833925397846 -289.42669050737624 -48.680358907499695 -293.0877864433206 -47.631390829246875 -297.2079388936411 A 301 301 0 0 1 -42.0883 -298.043C -39.87151446289093 -294.4155061134586 -38.12541645368827 -291.1227957164577 -36.75660660131741 -288.2290079161541 C -36.18689370310249 -287.0245245439519 -35.682851453449366 -285.8896649775273 -35.23748568727779 -284.828595176523 A 2.625 2.625 0 0 0 -32.4399 -283.399A 285.25 285.25 0 0 1 -31.4358 -283.513A 2.625 2.625 0 0 0 -29.0263 -285.528C -28.828227391051506 -286.66199562254764 -28.589352543575814 -287.8805618424078 -28.301946302093384 -289.1816193479244 C -27.611383734542486 -292.3074426931298 -26.641761040754012 -295.90614132568436 -25.287826711795674 -299.9363835114523 A 301 301 0 0 1 -19.6978 -300.355C -17.758327296605863 -296.57186265260424 -16.263176287699345 -293.15787327405815 -15.114446938432053 -290.16988580298914 C -14.636338228157008 -288.9261957123865 -14.218513544469523 -287.75684231899237 -13.8536869568395 -286.66545725897043 A 2.625 2.625 0 0 0 -11.1707 -285.031A 285.25 285.25 0 0 1 -10.1609 -285.069A 2.625 2.625 0 0 0 -7.60759 -286.899C -7.325340059815114 -288.0147666732034 -6.996069587209872 -289.21207439505736 -6.612238842721448 -290.4880159845863 C -5.690014157046685 -293.5534930884423 -4.454171639367637 -297.06966903508606 -2.802842809678039 -300.98746220718067 A 301 301 0 0 1 2.80284 -300.987C 4.454171639367528 -297.06966903508606 5.690014157046576 -293.5534930884423 6.612238842721341 -290.4880159845863 C 6.996069587209766 -289.21207439505736 7.325340059815008 -288.0147666732034 7.607587210638056 -286.8991698221263 A 2.625 2.625 0 0 0 10.1609 -285.069A 285.25 285.25 0 0 1 11.1707 -285.031A 2.625 2.625 0 0 0 13.8537 -286.665C 14.218513544469676 -287.75684231899237 14.636338228157161 -288.9261957123865 15.114446938432206 -290.16988580298914 C 16.263176287699494 -293.15787327405815 17.75832729660602 -296.57186265260424 19.697815726370123 -300.3552969224028 A 301 301 0 0 1 25.2878 -299.936C 26.64176104075417 -295.90614132568436 27.611383734542642 -292.3074426931298 28.301946302093537 -289.1816193479244 C 28.589352543575966 -287.8805618424078 28.82822739105166 -286.66199562254764 29.026316664510258 -285.5284258505347 A 2.625 2.625 0 0 0 31.4358 -283.513A 285.25 285.25 0 0 1 32.4399 -283.399A 2.625 2.625 0 0 0 35.2375 -284.829C 35.68285145344951 -285.8896649775273 36.18689370310263 -287.0245245439519 36.75660660131756 -288.22900791615416 C 38.125416453688416 -291.1227957164577 39.87151446289108 -294.4155061134586 42.08831608670094 -298.0434229818211 A 301 301 0 0 1 47.6314 -297.208C 48.680358907499844 -293.0877864433206 49.37833925397861 -289.42669050737624 49.833377797409725 -286.25800179291946 C 50.022752243601 -284.939104412744 50.16989558090342 -283.70609441147536 50.28271918142793 -282.56089110051016 A 2.625 2.625 0 0 0 52.5348 -280.371A 285.25 285.25 0 0 1 53.5276 -280.183A 2.625 2.625 0 0 0 56.4242 -281.399C 56.94763638279376 -282.42367666189887 57.53507738969396 -283.5176958063168 58.19320841022494 -284.6762365005175 C 59.77444382576411 -287.4596413948471 61.76172394691237 -290.6126586381156 64.24344151086947 -294.06476932229447 A 301 301 0 0 1 69.7086 -292.817C 70.44671646064863 -288.63036577172795 70.86915107059309 -284.9273468659457 71.0861208297888 -281.7335133748683 C 71.1764044219684 -280.4041519291782 71.2309933638685 -279.1635936385836 71.25792033611928 -278.0131612301187 A 2.625 2.625 0 0 0 73.34 -275.661A 285.25 285.25 0 0 1 74.316 -275.399A 2.625 2.625 0 0 0 77.2954 -276.395C 77.89394702938088 -277.3782605847036 78.56150158512939 -278.42532110828387 79.30437019234691 -279.53144009497333 C 81.08918826120208 -282.18889615410603 83.30653681774288 -285.1845872922353 86.03929155055151 -288.44158618897865 A 301 301 0 0 1 91.3959 -286.789C 91.81910739950996 -282.55880701539945 91.9636338472259 -278.83457392358446 91.9413214392817 -275.6334568683075 C 91.93200927497973 -274.3010656855461 91.89373853797107 -273.05989681080365 91.83461829539671 -271.91066898952585 A 2.625 2.625 0 0 0 93.7351 -269.409A 285.25 285.25 0 0 1 94.6888 -269.075A 2.625 2.625 0 0 0 97.7343 -269.846C 98.40464312746288 -270.7816327592556 99.14857799619868 -271.7758790748233 99.9720297675157 -272.82339048794444 C 101.95044906305648 -275.34003613963347 104.38546574242157 -278.16164805261394 107.35397497110769 -281.2053207029297 A 301 301 0 0 1 112.572 -279.157C 112.67800864450719 -274.9070647937533 112.54381867947365 -271.18244493804406 112.28234888442547 -267.99194626363425 C 112.17349304104211 -266.6639766157637 112.04257665061009 -265.4291382766856 111.89773981758844 -264.2875419907416 A 2.625 2.625 0 0 0 113.606 -261.651A 285.25 285.25 0 0 1 114.532 -261.247A 2.625 2.625 0 0 0 117.627 -261.788C 118.36502054454868 -262.67068420419565 119.18117534071784 -263.60655608305035 120.08060519980614 -264.5896018138709 C 122.2415615988105 -266.95136295478574 124.8806287999945 -269.5831160442481 128.0682914168122 -272.39644099604766 A 301 301 0 0 1 133.119 -269.964C 132.90676875872265 -265.7179307531277 132.4946128256566 -262.0137537186033 131.99544788866035 -258.85171598783427 C 131.7876571322278 -257.53559441979985 131.5648272259323 -256.3139923332753 131.33508378878494 -255.18641185217047 A 2.625 2.625 0 0 0 132.841 -252.43A 285.25 285.25 0 0 1 133.735 -251.957A 2.625 2.625 0 0 0 136.861 -252.266C 137.66345275344202 -253.09077463394937 138.54726320836127 -253.96303830091955 139.5176411786062 -254.8761207589525 C 141.84904973632567 -257.06978946277394 144.67740872503452 -259.49696589790375 148.06639802759466 -262.0642098968661 A 301 301 0 0 1 152.921 -259.261C 152.39226031005154 -255.04279425853616 151.7044433521166 -251.37977530572732 150.9703748059801 -248.2638819162311 C 150.66481118669608 -246.96696871370972 150.35131391976137 -245.7654345741343 150.03794869698135 -244.6581757853081 A 2.625 2.625 0 0 0 151.334 -241.797A 285.25 285.25 0 0 1 152.19 -241.259A 2.625 2.625 0 0 0 155.33 -241.333C 156.19201509306012 -242.09547878880556 157.1385385801587 -242.89925619164262 158.17443791432885 -243.73726904940202 C 160.6632604484016 -245.75057743090372 163.6650938938816 -247.9596034565216 167.2364572793026 -250.26640943283374 A 301 301 0 0 1 171.868 -247.109C 171.02551252568986 -242.94135500349384 170.06588109431934 -239.33997922024304 169.10101414811834 -236.2876555117773 C 168.69938650169001 -235.01720353947428 168.296975077999 -233.84245681314394 167.90174053502486 -232.7617119568893 A 2.625 2.625 0 0 0 168.98 -229.811A 285.25 285.25 0 0 1 169.793 -229.211A 2.625 2.625 0 0 0 172.931 -229.05C 173.84708832691723 -229.74628682323626 174.85103150290982 -230.4770829126612 175.94665903172873 -231.23533966231687 C 178.5789770369841 -233.0570284843558 181.73749746895152 -235.0355503308624 185.4712624245027 -237.0690176897775 A 301 301 0 0 1 189.854 -233.574C 188.70232070089912 -229.48128914511426 187.47624144431978 -225.96169688565502 186.28597202540382 -222.99001269053488 C 185.7905264165453 -221.7531268312225 185.30145128401256 -220.6117371783524 184.82655773273063 -219.56355021829626 A 2.625 2.625 0 0 0 185.682 -216.541A 285.25 285.25 0 0 1 186.448 -215.882A 2.625 2.625 0 0 0 189.564 -215.486C 190.52993812392788 -216.1122604280098 191.5856865313371 -216.7659882958521 192.73491506123588 -217.4402484580825 C 195.49600754762125 -219.06013009782026 198.79355123860572 -220.79708306848704 202.66883703610003 -222.54583983568307 A 301 301 0 0 1 206.778 -218.733C 205.32382895398516 -214.73787083158658 203.8381586047437 -211.31974508351288 202.4291431825215 -208.44531926518445 C 201.84265034404888 -207.24891668631537 201.26964660920277 -206.14726722083498 200.71774984698652 -205.1375000436421 A 2.625 2.625 0 0 0 201.345 -202.059A 285.25 285.25 0 0 1 202.059 -201.345A 2.625 2.625 0 0 0 205.137 -200.718C 206.14726722083512 -201.26964660920268 207.2489166863155 -201.8426503440488 208.44531926518457 -202.4291431825214 C 211.319745083513 -203.8381586047436 214.73787083158672 -205.32382895398504 218.7330053008828 -206.77809537225832 A 301 301 0 0 1 222.546 -202.669C 220.79708306848718 -198.7935512386056 219.06013009782038 -195.49600754762113 217.4402484580826 -192.73491506123577 C 216.76598829585225 -191.58568653133702 216.11226042800993 -190.5299381239278 215.48644688542376 -189.56423775725256 A 2.625 2.625 0 0 0 215.882 -186.448A 285.25 285.25 0 0 1 216.541 -185.682A 2.625 2.625 0 0 0 219.564 -184.827C 220.61173717835234 -185.30145128401267 221.75312683122243 -185.79052641654542 222.99001269053483 -186.28597202540394 C 225.96169688565493 -187.47624144431987 229.4812891451142 -188.7023207008992 233.57392987368283 -189.85396392253355 A 301 301 0 0 1 237.069 -185.471C 235.03555033086235 -181.7374974689516 233.05702848435573 -178.57897703698418 231.23533966231682 -175.94665903172884 C 230.47708291266113 -174.85103150290993 229.7462868232362 -173.84708832691734 229.0500563034638 -172.93085535893468 A 2.625 2.625 0 0 0 229.211 -169.793A 285.25 285.25 0 0 1 229.811 -168.98A 2.625 2.625 0 0 0 232.762 -167.902C 233.84245681314403 -168.2969750779989 235.01720353947437 -168.69938650168993 236.28765551177736 -169.10101414811825 C 239.3399792202431 -170.06588109431922 242.9413550034939 -171.02551252568978 247.1086142842518 -171.86809209463996 A 301 301 0 0 1 250.266 -167.236C 247.95960345652165 -163.6650938938815 245.75057743090377 -160.66326044840147 243.73726904940207 -158.17443791432876 C 242.8992561916427 -157.1385385801586 242.0954787888056 -156.19201509306 241.33272489533084 -155.33037347018544 A 2.625 2.625 0 0 0 241.259 -152.19A 285.25 285.25 0 0 1 241.797 -151.334A 2.625 2.625 0 0 0 244.658 -150.038C 245.76543457413436 -150.35131391976128 246.9669687137098 -150.664811186696 248.26388191623116 -150.97037480598001 C 251.37977530572738 -151.70444335211653 255.04279425853622 -152.39226031005146 259.2613670871882 -152.9210641795859 A 301 301 0 0 1 262.064 -148.066C 259.4969658979038 -144.67740872503444 257.069789462774 -141.84904973632558 254.87612075895257 -139.5176411786061 C 253.96303830091964 -138.5472632083612 253.09077463394942 -137.66345275344193 252.26576299594623 -136.86122112514485 A 2.625 2.625 0 0 0 251.957 -133.735A 285.25 285.25 0 0 1 252.43 -132.841A 2.625 2.625 0 0 0 255.186 -131.335C 256.3139923332752 -131.56482722593242 257.5355944197998 -131.7876571322279 258.8517159878342 -131.99544788866044 C 262.0137537186032 -132.49461282565667 265.71793075312763 -132.90676875872273 269.9642251592038 -133.11883964310033 A 301 301 0 0 1 272.396 -128.068C 269.583116044248 -124.88062879999458 266.9513629547856 -122.2415615988106 264.58960181387084 -120.08060519980626 C 263.6065560830503 -119.18117534071794 262.6706842041956 -118.36502054454878 261.7880286213996 -117.62668531550995 A 2.625 2.625 0 0 0 261.247 -114.532A 285.25 285.25 0 0 1 261.651 -113.606A 2.625 2.625 0 0 0 264.288 -111.898C 265.42913827668565 -112.04257665060996 266.6639766157637 -112.17349304104198 267.9919462636343 -112.28234888442535 C 271.18244493804406 -112.54381867947353 274.9070647937533 -112.67800864450706 279.1573337764783 -112.57216055731837 A 301 301 0 0 1 281.205 -107.354C 278.16164805261394 -104.38546574242145 275.34003613963347 -101.95044906305634 272.8233904879445 -99.97202976751558 C 271.7758790748233 -99.14857799619855 270.7816327592557 -98.40464312746275 269.84626939972406 -97.73433336777951 A 2.625 2.625 0 0 0 269.075 -94.6888A 285.25 285.25 0 0 1 269.409 -93.7351A 2.625 2.625 0 0 0 271.911 -91.8346C 273.0598968108037 -91.89373853797095 274.3010656855462 -91.9320092749796 275.6334568683076 -91.94132143928157 C 278.8345739235845 -91.96363384722578 282.55880701539957 -91.81910739950982 286.7892813465527 -91.39593228619438 A 301 301 0 0 1 288.442 -86.0393C 285.1845872922354 -83.30653681774274 282.1888961541061 -81.08918826120195 279.5314400949734 -79.30437019234678 C 278.4253211082839 -78.56150158512926 277.37826058470364 -77.89394702938075 276.39542037976156 -77.29541138313215 A 2.625 2.625 0 0 0 275.399 -74.316A 285.25 285.25 0 0 1 275.661 -73.34A 2.625 2.625 0 0 0 278.013 -71.2579C 279.16359363858356 -71.23099336386863 280.4041519291782 -71.17640442196853 281.7335133748683 -71.08612082978892 C 284.9273468659457 -70.86915107059322 288.63036577172795 -70.44671646064877 292.8173869228099 -69.708580888096 A 301 301 0 0 1 294.065 -64.2434C 290.6126586381156 -61.76172394691251 287.4596413948471 -59.77444382576424 284.6762365005175 -58.19320841022507 C 283.5176958063168 -57.53507738969409 282.4236766618989 -56.94763638279389 281.3988560526493 -56.42422210410231 A 2.625 2.625 0 0 0 280.183 -53.5276A 285.25 285.25 0 0 1 280.371 -52.5348A 2.625 2.625 0 0 0 282.561 -50.2827C 283.70609441147536 -50.169895580903294 284.939104412744 -50.02275224360087 286.2580017929195 -49.8333777974096 C 289.42669050737624 -49.37833925397848 293.0877864433206 -48.68035890749971 297.2079388936411 -47.63139082924689 A 301 301 0 0 1 298.043 -42.0883C 294.4155061134586 -39.87151446289094 291.1227957164577 -38.12541645368829 288.2290079161541 -36.75660660131743 C 287.0245245439519 -36.186893703102506 285.8896649775273 -35.68285145344938 284.828595176523 -35.237485687277804 A 2.625 2.625 0 0 0 283.399 -32.4399A 285.25 285.25 0 0 1 283.513 -31.4358A 2.625 2.625 0 0 0 285.528 -29.0263C 286.66199562254764 -28.828227391051524 287.8805618424078 -28.58935254357583 289.1816193479244 -28.301946302093402 C 292.3074426931298 -27.611383734542507 295.90614132568436 -26.641761040754034 299.9363835114523 -25.287826711795695 A 301 301 0 0 1 300.355 -19.6978C 296.57186265260424 -17.758327296605884 293.15787327405815 -16.263176287699366 290.16988580298914 -15.11444693843207 C 288.9261957123865 -14.636338228157026 287.75684231899237 -14.218513544469541 286.66545725897043 -13.853686956839518 A 2.625 2.625 0 0 0 285.031 -11.1707A 285.25 285.25 0 0 1 285.069 -10.1609A 2.625 2.625 0 0 0 286.899 -7.60759" stroke="#191919" stroke-width="0.35 px" style="stroke-width:0.35;stroke-miterlimit:4;stroke-dasharray:none;fill:none;fill-rule: evenodd "/>
<title>b'InvoluteGear'</title>
</g>
</svg>