<?xml version="1.0"?>
<!DOCTYPE svg PUBLIC "-//W3C//DTD SVG 1.1//EN" "http://www.w3.org/Graphics/SVG/1.1/DTD/svg11.dtd">
<svg width="328.40108054789533mm" height="328.40108054789533mm" viewBox="0 0 328.40108054789533 328.40108054789533" xmlns="http://www.w3.org/2000/svg" version="1.1">
<g id="InvoluteGear" transform="translate(164.200540,164.200540) scale(1,-1)">
<path id="InvoluteGear_w0000"  d="M 146.8254005054261 -7.162525142798748 C 147.76670374776148 -7.041448389875882 148.99056223692608 -6.8314115586452635 150.4833783328285 -6.4691834065908145 C 153.1783863797184 -5.814631312361329 156.72397527600424 -4.671423093375805 160.9809218372036 -2.6841534019678193 A 161 161 0 0 1 160.981 2.68415C 156.72397527600424 4.671423093375805 153.1783863797184 5.814631312361329 150.4833783328285 6.4691834065908145 C 148.99056223692608 6.8314115586452635 147.76670374776148 7.041448389875882 146.8257282522987 7.162463012641522 A 2.625 2.625 0 0 0 144.929 9.65108A 145.25 145.25 0 0 1 144.827 11.0727A 2.625 2.625 0 0 0 146.35 13.8058C 147.26475435441677 14.059617947841996 148.44626437115187 14.441690129933635 149.8723353107834 15.012681202950144 C 152.44675958620496 16.0441105349849 155.79356400704603 17.680272453029758 159.72436302552433 20.253141265780588 A 161 161 0 0 1 158.96 25.5668C 154.4639383629663 26.928021936872007 150.79174295653002 27.55500403419992 148.03101373024504 27.819354097557994 C 146.50184190885818 27.965445408054286 145.26054917678704 27.999171144236232 144.3119292786258 27.98503923717488 A 2.625 2.625 0 0 0 142.08 30.1784A 145.25 145.25 0 0 1 141.777 31.5711A 2.625 2.625 0 0 0 142.896 34.4931C 143.76491923889887 34.87447100873189 144.88002864645728 35.420800653862344 146.21032373793602 36.18893091619658 C 148.61175638766824 37.57624055923295 151.69164504644314 39.672048637987096 155.2162767896725 42.77814038259414 A 161 161 0 0 1 153.704 47.929C 149.0594611020734 48.63644390773627 145.33541449422464 48.73443633597203 142.56516457430607 48.603202963491356 C 141.03076655595083 48.530183434640335 139.79730872140544 48.38691151704194 138.86035558607853 48.23792076502831 A 2.625 2.625 0 0 0 136.339 50.0914A 145.25 145.25 0 0 1 135.841 51.4268A 2.625 2.625 0 0 0 136.533 54.4782C 137.33844495146866 54.97938040955357 138.36445333802249 55.67884582163259 139.57189160954022 56.628478356248195 C 141.75144638999438 58.343426686624596 144.50172163527597 60.856216317416006 147.5484347651628 64.43229992318797 A 161 161 0 0 1 145.318 69.3155C 140.6205630651319 69.35476813656123 136.9204761055429 68.9217760524528 134.19709979161917 68.39763077715128 C 132.6887114951108 68.10698687598942 131.48819820260388 67.78963390769088 130.58198549399674 67.50881733278214 A 2.625 2.625 0 0 0 127.823 68.9846A 145.25 145.25 0 0 1 127.14 70.2355A 2.625 2.625 0 0 0 127.39 73.3543C 128.11615597619678 73.96506817267736 129.03217676975964 74.8034302530067 130.09217826007264 75.91523328001298 C 132.00548572123574 77.92290889522555 134.37015988016893 80.80152692745824 136.8769321033839 84.77480364475515 A 161 161 0 0 1 133.975 89.2909C 129.31903588040163 88.66122928876135 125.71823166939987 87.7060671624951 123.09716904965376 86.79968007066773 C 121.64549691087645 86.2973284688749 120.502367149049 85.81235484114039 119.64534274460725 85.40542905899353 A 2.625 2.625 0 0 0 116.704 86.4735A 145.25 145.25 0 0 1 115.85 87.6145A 2.625 2.625 0 0 0 115.654 90.7371C 116.2857915217345 91.44504044544841 117.07317718053525 92.40523255970918 117.96416331609267 93.65657297565144 C 119.57227403557847 95.91610538983284 121.50320916144453 99.10195146161944 123.41900982445712 103.39153683446101 A 161 161 0 0 1 119.904 107.449C 115.38494605045047 106.16280349051426 111.95672657791012 104.70491566852087 109.49133492875923 103.43473818755271 C 108.12593080618177 102.730905315079 107.06345540047056 102.08818369242077 106.27306584561434 101.56343253848326 A 2.625 2.625 0 0 0 103.21 102.202A 145.25 145.25 0 0 1 102.202 103.21A 2.625 2.625 0 0 0 101.563 106.273C 102.08818369242078 107.06345540047053 102.73090531507901 108.12593080618176 103.43473818755272 109.49133492875922 C 104.7049156685209 111.9567265779101 106.16280349051428 115.38494605045045 107.44863241653846 119.90351649078833 A 161 161 0 0 1 103.392 123.419C 99.10195146161945 121.50320916144452 95.91610538983286 119.57227403557846 93.65657297565146 117.96416331609265 C 92.40523255970919 117.07317718053524 91.44504044544843 116.28579152173447 90.73737579221937 115.6538974162431 A 2.625 2.625 0 0 0 87.6145 115.85A 145.25 145.25 0 0 1 86.4735 116.704A 2.625 2.625 0 0 0 85.4053 119.645C 85.8123548411404 120.50236714904898 86.29732846887492 121.64549691087643 86.79968007066775 123.09716904965374 C 87.70606716249512 125.71823166939984 88.66122928876136 129.3190358804016 89.29091070888768 133.97460632455164 A 161 161 0 0 1 84.7748 136.877C 80.80152692745826 134.3701598801689 77.92290889522556 132.00548572123571 75.915233280013 130.09217826007264 C 74.80343025300672 129.03217676975962 73.96506817267738 128.11615597619678 73.35453443267886 127.38998246090722 A 2.625 2.625 0 0 0 70.2355 127.14A 145.25 145.25 0 0 1 68.9846 127.823A 2.625 2.625 0 0 0 67.5087 130.582C 67.7896339076909 131.48819820260388 68.10698687598943 132.68871149511077 68.39763077715129 134.19709979161914 C 68.9217760524528 136.9204761055429 69.35476813656123 140.6205630651319 69.3154835529272 145.31835952440775 A 161 161 0 0 1 64.4323 147.548C 60.85621631741602 144.50172163527597 58.34342668662461 141.75144638999438 56.6284783562482 139.5718916095402 C 55.678845821632606 138.36445333802246 54.97938040955358 137.33844495146866 54.47840628909806 136.53277482504075 A 2.625 2.625 0 0 0 51.4268 135.841A 145.25 145.25 0 0 1 50.0914 136.339A 2.625 2.625 0 0 0 48.2379 138.86C 48.38691151704195 139.79730872140544 48.53018343464035 141.03076655595083 48.60320296349137 142.56516457430607 C 48.73443633597205 145.33541449422464 48.636443907736286 149.0594611020734 47.9289930411773 153.70384998789044 A 161 161 0 0 1 42.7781 155.216C 39.67204863798711 151.69164504644314 37.57624055923297 148.61175638766824 36.1889309161966 146.21032373793602 C 35.42080065386237 144.88002864645728 34.8744710087319 143.76491923889887 34.49325489622179 142.89615362174584 A 2.625 2.625 0 0 0 31.5711 141.777A 145.25 145.25 0 0 1 30.1784 142.08A 2.625 2.625 0 0 0 27.9851 144.312C 27.99917114423623 145.26054917678704 27.96544540805428 146.50184190885818 27.81935409755799 148.03101373024504 C 27.555004034199914 150.79174295653002 26.928021936872007 154.4639383629663 25.56680644691138 158.96037331092083 A 161 161 0 0 1 20.2531 159.724C 17.68027245302975 155.79356400704603 16.044110534984892 152.44675958620496 15.01268120295014 149.8723353107834 C 14.441690129933631 148.44626437115187 14.059617947841993 147.26475435441677 13.805920303991517 146.35057880919075 A 2.625 2.625 0 0 0 11.0727 144.827A 145.25 145.25 0 0 1 9.65108 144.929A 2.625 2.625 0 0 0 7.16253 146.825C 7.041448389875891 147.76670374776148 6.831411558645272 148.99056223692608 6.469183406590823 150.4833783328285 C 5.814631312361339 153.1783863797184 4.6714230933758145 156.72397527600424 2.684153401967829 160.9809218372036 A 161 161 0 0 1 -2.68415 160.981C -4.671423093375795 156.72397527600424 -5.814631312361319 153.1783863797184 -6.469183406590806 150.4833783328285 C -6.831411558645255 148.99056223692608 -7.041448389875873 147.76670374776148 -7.162463012641513 146.8257282522987 A 2.625 2.625 0 0 0 -9.65108 144.929A 145.25 145.25 0 0 1 -11.0727 144.827A 2.625 2.625 0 0 0 -13.8058 146.35C -14.059617947841975 147.26475435441677 -14.441690129933614 148.44626437115187 -15.012681202950123 149.8723353107834 C -16.044110534984878 152.446759586205 -17.680272453029737 155.79356400704603 -20.253141265780567 159.72436302552435 A 161 161 0 0 1 -25.5668 158.96C -26.928021936871986 154.4639383629663 -27.5550040341999 150.79174295653004 -27.819354097557973 148.03101373024504 C -27.965445408054265 146.50184190885818 -27.99917114423621 145.26054917678704 -27.98503923717486 144.31192927862583 A 2.625 2.625 0 0 0 -30.1784 142.08A 145.25 145.25 0 0 1 -31.5711 141.777A 2.625 2.625 0 0 0 -34.4931 142.896C -34.87447100873189 143.76491923889887 -35.420800653862344 144.88002864645728 -36.18893091619658 146.21032373793602 C -37.57624055923295 148.61175638766824 -39.672048637987096 151.69164504644314 -42.77814038259414 155.2162767896725 A 161 161 0 0 1 -47.929 153.704C -48.63644390773627 149.0594611020734 -48.73443633597203 145.33541449422464 -48.603202963491356 142.56516457430607 C -48.530183434640335 141.03076655595083 -48.38691151704194 139.79730872140544 -48.23792076502831 138.86035558607853 A 2.625 2.625 0 0 0 -50.0914 136.339A 145.25 145.25 0 0 1 -51.4268 135.841A 2.625 2.625 0 0 0 -54.4782 136.533C -54.97938040955356 137.33844495146866 -55.678845821632585 138.36445333802249 -56.62847835624819 139.5718916095402 C -58.343426686624596 141.75144638999438 -60.856216317416006 144.50172163527597 -64.43229992318797 147.5484347651628 A 161 161 0 0 1 -69.3155 145.318C -69.35476813656123 140.6205630651319 -68.92177605245278 136.9204761055429 -68.39763077715128 134.1970997916192 C -68.1069868759894 132.6887114951108 -67.78963390769088 131.48819820260388 -67.50881733278213 130.58198549399674 A 2.625 2.625 0 0 0 -68.9846 127.823A 145.25 145.25 0 0 1 -70.2355 127.14A 2.625 2.625 0 0 0 -73.3543 127.39C -73.96506817267736 128.11615597619678 -74.8034302530067 129.03217676975964 -75.91523328001298 130.09217826007264 C -77.92290889522555 132.00548572123574 -80.80152692745824 134.37015988016893 -84.77480364475515 136.8769321033839 A 161 161 0 0 1 -89.2909 133.975C -88.66122928876135 129.31903588040163 -87.7060671624951 125.71823166939987 -86.79968007066773 123.09716904965376 C -86.2973284688749 121.64549691087645 -85.81235484114039 120.502367149049 -85.40542905899353 119.64534274460725 A 2.625 2.625 0 0 0 -86.4735 116.704A 145.25 145.25 0 0 1 -87.6145 115.85A 2.625 2.625 0 0 0 -90.7371 115.654C -91.4450404454484 116.28579152173451 -92.40523255970916 117.07317718053527 -93.65657297565143 117.96416331609268 C -95.91610538983282 119.57227403557849 -99.10195146161942 121.50320916144454 -103.39153683446098 123.41900982445713 A 161 161 0 0 1 -107.449 119.904C -106.16280349051425 115.38494605045048 -104.70491566852085 111.95672657791013 -103.4347381875527 109.49133492875924 C -102.73090531507899 108.12593080618178 -102.08818369242076 107.06345540047057 -101.56343253848324 106.27306584561435 A 2.625 2.625 0 0 0 -102.202 103.21A 145.25 145.25 0 0 1 -103.21 102.202A 2.625 2.625 0 0 0 -106.273 101.563C -107.06345540047053 102.08818369242078 -108.12593080618176 102.73090531507901 -109.49133492875922 103.43473818755272 C -111.9567265779101 104.7049156685209 -115.38494605045045 106.16280349051428 -119.90351649078833 107.44863241653846 A 161 161 0 0 1 -123.419 103.392C -121.50320916144452 99.10195146161945 -119.57227403557846 95.91610538983286 -117.96416331609265 93.65657297565146 C -117.07317718053524 92.40523255970919 -116.28579152173447 91.44504044544843 -115.6538974162431 90.73737579221937 A 2.625 2.625 0 0 0 -115.85 87.6145A 145.25 145.25 0 0 1 -116.704 86.4735A 2.625 2.625 0 0 0 -119.645 85.4053C -120.50236714904898 85.81235484114042 -121.64549691087643 86.29732846887494 -123.09716904965374 86.79968007066776 C -125.71823166939983 87.70606716249515 -129.3190358804016 88.66122928876138 -133.97460632455164 89.2909107088877 A 161 161 0 0 1 -136.877 84.7748C -134.3701598801689 80.80152692745827 -132.00548572123571 77.92290889522559 -130.09217826007264 75.91523328001301 C -129.03217676975962 74.80343025300674 -128.11615597619678 73.96506817267739 -127.38998246090722 73.35453443267888 A 2.625 2.625 0 0 0 -127.14 70.2355A 145.25 145.25 0 0 1 -127.823 68.9846A 2.625 2.625 0 0 0 -130.582 67.5087C -131.48819820260388 67.78963390769087 -132.6887114951108 68.1069868759894 -134.1970997916192 68.39763077715126 C -136.9204761055429 68.92177605245277 -140.6205630651319 69.3547681365612 -145.31835952440778 69.31548355292718 A 161 161 0 0 1 -147.548 64.4323C -144.50172163527597 60.85621631741599 -141.75144638999438 58.34342668662458 -139.5718916095402 56.62847835624818 C -138.36445333802249 55.67884582163258 -137.33844495146866 54.979380409553556 -136.53277482504075 54.47840628909804 A 2.625 2.625 0 0 0 -135.841 51.4268A 145.25 145.25 0 0 1 -136.339 50.0914A 2.625 2.625 0 0 0 -138.86 48.2379C -139.79730872140544 48.38691151704193 -141.03076655595083 48.53018343464032 -142.56516457430607 48.60320296349135 C -145.33541449422464 48.73443633597202 -149.0594611020734 48.636443907736265 -153.70384998789044 47.92899304117727 A 161 161 0 0 1 -155.216 42.7781C -151.69164504644314 39.67204863798709 -148.61175638766824 37.57624055923294 -146.21032373793602 36.188930916196576 C -144.88002864645728 35.420800653862344 -143.76491923889887 34.87447100873188 -142.89615362174584 34.49325489622177 A 2.625 2.625 0 0 0 -141.777 31.5711A 145.25 145.25 0 0 1 -142.08 30.1784A 2.625 2.625 0 0 0 -144.312 27.9851C -145.26054917678704 27.999171144236236 -146.50184190885818 27.965445408054286 -148.03101373024504 27.819354097557998 C -150.79174295653002 27.555004034199925 -154.4639383629663 26.928021936872014 -158.96037331092083 25.56680644691139 A 161 161 0 0 1 -159.724 20.2531C -155.79356400704603 17.680272453029758 -152.44675958620496 16.044110534984902 -149.8723353107834 15.012681202950148 C -148.44626437115187 14.441690129933638 -147.26475435441677 14.059617947842 -146.35057880919075 13.805920303991524 A 2.625 2.625 0 0 0 -144.827 11.0727A 145.25 145.25 0 0 1 -144.929 9.65108A 2.625 2.625 0 0 0 -146.825 7.16253C -147.76670374776148 7.0414483898758995 -148.99056223692608 6.831411558645282 -150.4833783328285 6.469183406590833 C -153.1783863797184 5.814631312361348 -156.72397527600424 4.671423093375824 -160.9809218372036 2.684153401967839 A 161 161 0 0 1 -160.981 -2.68415C -156.72397527600424 -4.671423093375785 -153.1783863797184 -5.8146313123613105 -150.4833783328285 -6.469183406590796 C -148.99056223692608 -6.831411558645245 -147.76670374776148 -7.041448389875864 -146.8257282522987 -7.1624630126415045 A 2.625 2.625 0 0 0 -144.929 -9.65108A 145.25 145.25 0 0 1 -144.827 -11.0727A 2.625 2.625 0 0 0 -146.35 -13.8058C -147.26475435441677 -14.059617947841968 -148.44626437115187 -14.441690129933606 -149.8723353107834 -15.012681202950116 C -152.446759586205 -16.044110534984867 -155.79356400704603 -17.680272453029723 -159.72436302552435 -20.25314126578056 A 161 161 0 0 1 -158.96 -25.5668C -154.4639383629663 -26.92802193687198 -150.79174295653004 -27.55500403419989 -148.03101373024504 -27.819354097557966 C -146.50184190885818 -27.965445408054258 -145.26054917678704 -27.999171144236204 -144.31192927862583 -27.985039237174853 A 2.625 2.625 0 0 0 -142.08 -30.1784A 145.25 145.25 0 0 1 -141.777 -31.5711A 2.625 2.625 0 0 0 -142.896 -34.4931C -143.76491923889887 -34.87447100873185 -144.88002864645728 -35.420800653862315 -146.21032373793602 -36.18893091619655 C -148.61175638766824 -37.57624055923292 -151.69164504644314 -39.67204863798706 -155.2162767896725 -42.7781403825941 A 161 161 0 0 1 -153.704 -47.929C -149.0594611020734 -48.636443907736236 -145.33541449422464 -48.734436335972 -142.56516457430607 -48.60320296349132 C -141.03076655595083 -48.53018343464031 -139.7973087214055 -48.3869115170419 -138.86035558607855 -48.237920765028285 A 2.625 2.625 0 0 0 -136.339 -50.0914A 145.25 145.25 0 0 1 -135.841 -51.4268A 2.625 2.625 0 0 0 -136.533 -54.4782C -137.33844495146866 -54.97938040955359 -138.36445333802249 -55.67884582163261 -139.5718916095402 -56.62847835624821 C -141.75144638999438 -58.34342668662461 -144.50172163527597 -60.856216317416035 -147.54843476516277 -64.432299923188 A 161 161 0 0 1 -145.318 -69.3155C -140.6205630651319 -69.35476813656126 -136.9204761055429 -68.92177605245281 -134.19709979161914 -68.39763077715129 C -132.68871149511074 -68.10698687598943 -131.48819820260388 -67.78963390769091 -130.58198549399674 -67.50881733278216 A 2.625 2.625 0 0 0 -127.823 -68.9846A 145.25 145.25 0 0 1 -127.14 -70.2355A 2.625 2.625 0 0 0 -127.39 -73.3543C -128.11615597619678 -73.96506817267736 -129.03217676975964 -74.8034302530067 -130.09217826007264 -75.91523328001298 C -132.00548572123574 -77.92290889522555 -134.37015988016893 -80.80152692745824 -136.8769321033839 -84.77480364475515 A 161 161 0 0 1 -133.975 -89.2909C -129.31903588040163 -88.66122928876135 -125.71823166939987 -87.7060671624951 -123.09716904965376 -86.79968007066773 C -121.64549691087645 -86.2973284688749 -120.502367149049 -85.81235484114039 -119.64534274460725 -85.40542905899353 A 2.625 2.625 0 0 0 -116.704 -86.4735A 145.25 145.25 0 0 1 -115.85 -87.6145A 2.625 2.625 0 0 0 -115.654 -90.7371C -116.28579152173451 -91.4450404454484 -117.07317718053527 -92.40523255970916 -117.96416331609268 -93.65657297565143 C -119.57227403557849 -95.91610538983282 -121.50320916144454 -99.10195146161942 -123.41900982445713 -103.39153683446098 A 161 161 0 0 1 -119.904 -107.449C -115.38494605045048 -106.16280349051425 -111.95672657791013 -104.70491566852085 -109.49133492875924 -103.4347381875527 C -108.12593080618178 -102.73090531507899 -107.06345540047057 -102.08818369242076 -106.27306584561435 -101.56343253848324 A 2.625 2.625 0 0 0 -103.21 -102.202A 145.25 145.25 0 0 1 -102.202 -103.21A 2.625 2.625 0 0 0 -101.563 -106.273C -102.08818369242078 -107.06345540047053 -102.73090531507901 -108.12593080618176 -103.43473818755272 -109.49133492875922 C -104.7049156685209 -111.9567265779101 -106.16280349051428 -115.38494605045045 -107.44863241653846 -119.90351649078833 A 161 161 0 0 1 -103.392 -123.419C -99.10195146161945 -121.50320916144452 -95.91610538983286 -119.57227403557846 -93.65657297565146 -117.96416331609265 C -92.40523255970919 -117.07317718053524 -91.44504044544843 -116.28579152173447 -90.73737579221937 -115.6538974162431 A 2.625 2.625 0 0 0 -87.6145 -115.85A 145.25 145.25 0 0 1 -86.4735 -116.704A 2.625 2.625 0 0 0 -85.4053 -119.645C -85.81235484114038 -120.502367149049 -86.29732846887488 -121.64549691087645 -86.7996800706677 -123.09716904965376 C -87.70606716249509 -125.71823166939987 -88.66122928876135 -129.31903588040163 -89.29091070888765 -133.97460632455167 A 161 161 0 0 1 -84.7748 -136.877C -80.80152692745821 -134.37015988016893 -77.92290889522553 -132.00548572123574 -75.91523328001296 -130.09217826007264 C -74.80343025300668 -129.03217676975964 -73.96506817267735 -128.11615597619678 -73.35453443267883 -127.38998246090723 A 2.625 2.625 0 0 0 -70.2355 -127.14A 145.25 145.25 0 0 1 -68.9846 -127.823A 2.625 2.625 0 0 0 -67.5087 -130.582C -67.78963390769088 -131.48819820260388 -68.1069868759894 -132.6887114951108 -68.39763077715128 -134.1970997916192 C -68.92177605245278 -136.9204761055429 -69.35476813656123 -140.6205630651319 -69.31548355292719 -145.31835952440778 A 161 161 0 0 1 -64.4323 -147.548C -60.856216317416006 -144.50172163527597 -58.343426686624596 -141.75144638999438 -56.62847835624819 -139.5718916095402 C -55.678845821632585 -138.36445333802249 -54.97938040955356 -137.33844495146866 -54.47840628909805 -136.53277482504075 A 2.625 2.625 0 0 0 -51.4268 -135.841A 145.25 145.25 0 0 1 -50.0914 -136.339A 2.625 2.625 0 0 0 -48.2379 -138.86C -48.38691151704194 -139.79730872140544 -48.530183434640335 -141.03076655595083 -48.603202963491356 -142.56516457430607 C -48.73443633597203 -145.33541449422464 -48.63644390773627 -149.0594611020734 -47.928993041177286 -153.70384998789044 A 161 161 0 0 1 -42.7781 -155.216C -39.672048637987096 -151.69164504644314 -37.57624055923295 -148.61175638766824 -36.18893091619658 -146.21032373793602 C -35.420800653862344 -144.88002864645728 -34.87447100873189 -143.76491923889887 -34.49325489622178 -142.89615362174584 A 2.625 2.625 0 0 0 -31.5711 -141.777A 145.25 145.25 0 0 1 -30.1784 -142.08A 2.625 2.625 0 0 0 -27.9851 -144.312C -27.999171144236247 -145.26054917678704 -27.9654454080543 -146.50184190885818 -27.819354097558012 -148.03101373024504 C -27.555004034199936 -150.79174295653002 -26.928021936872028 -154.4639383629663 -25.5668064469114 -158.96037331092083 A 161 161 0 0 1 -20.2531 -159.724C -17.680272453029772 -155.79356400704603 -16.044110534984913 -152.44675958620496 -15.012681202950162 -149.8723353107834 C -14.441690129933653 -148.44626437115187 -14.05961794784201 -147.26475435441677 -13.805920303991538 -146.35057880919075 A 2.625 2.625 0 0 0 -11.0727 -144.827A 145.25 145.25 0 0 1 -9.65108 -144.929A 2.625 2.625 0 0 0 -7.16253 -146.825C -7.041448389875909 -147.76670374776148 -6.831411558645291 -148.99056223692608 -6.469183406590842 -150.4833783328285 C -5.8146313123613576 -153.1783863797184 -4.671423093375833 -156.72397527600424 -2.684153401967849 -160.9809218372036 A 161 161 0 0 1 2.68415 -160.981C 4.671423093375776 -156.72397527600424 5.814631312361301 -153.1783863797184 6.469183406590787 -150.4833783328285 C 6.831411558645236 -148.99056223692608 7.041448389875854 -147.76670374776148 7.162463012641496 -146.8257282522987 A 2.625 2.625 0 0 0 9.65108 -144.929A 145.25 145.25 0 0 1 11.0727 -144.827A 2.625 2.625 0 0 0 13.8058 -146.35C 14.059617947841954 -147.26475435441677 14.441690129933592 -148.44626437115187 15.012681202950102 -149.8723353107834 C 16.044110534984856 -152.446759586205 17.680272453029716 -155.79356400704603 20.253141265780545 -159.72436302552435 A 161 161 0 0 1 25.5668 -158.96C 26.928021936871964 -154.4639383629663 27.55500403419988 -150.79174295653004 27.81935409755795 -148.03101373024504 C 27.965445408054244 -146.50184190885818 27.99917114423619 -145.26054917678704 27.985039237174842 -144.31192927862583 A 2.625 2.625 0 0 0 30.1784 -142.08A 145.25 145.25 0 0 1 31.5711 -141.777A 2.625 2.625 0 0 0 34.4931 -142.896C 34.874471008731845 -143.76491923889887 35.42080065386231 -144.88002864645728 36.18893091619654 -146.21032373793602 C 37.57624055923291 -148.61175638766824 39.672048637987054 -151.69164504644314 42.77814038259409 -155.2162767896725 A 161 161 0 0 1 47.929 -153.704C 48.63644390773623 -149.0594611020734 48.734436335971985 -145.33541449422464 48.60320296349131 -142.56516457430607 C 48.5301834346403 -141.03076655595083 48.386911517041895 -139.7973087214055 48.23792076502827 -138.86035558607855 A 2.625 2.625 0 0 0 50.0914 -136.339A 145.25 145.25 0 0 1 51.4268 -135.841A 2.625 2.625 0 0 0 54.4782 -136.533C 54.979380409553514 -137.3384449514687 55.67884582163255 -138.36445333802249 56.628478356248145 -139.57189160954022 C 58.34342668662455 -141.7514463899944 60.856216317415964 -144.501721635276 64.43229992318793 -147.5484347651628 A 161 161 0 0 1 69.3155 -145.318C 69.35476813656119 -140.62056306513193 68.92177605245274 -136.92047610554292 68.39763077715124 -134.19709979161922 C 68.10698687598938 -132.6887114951108 67.78963390769084 -131.4881982026039 67.50881733278209 -130.58198549399677 A 2.625 2.625 0 0 0 68.9846 -127.823A 145.25 145.25 0 0 1 70.2355 -127.14A 2.625 2.625 0 0 0 73.3543 -127.39C 73.9650681726773 -128.1161559761968 74.80343025300664 -129.03217676975967 75.91523328001291 -130.09217826007267 C 77.92290889522548 -132.00548572123577 80.80152692745816 -134.37015988016896 84.77480364475508 -136.87693210338392 A 161 161 0 0 1 89.2909 -133.975C 88.66122928876129 -129.31903588040166 87.70606716249503 -125.7182316693999 86.79968007066766 -123.09716904965379 C 86.29732846887484 -121.64549691087649 85.81235484114033 -120.50236714904902 85.40542905899346 -119.64534274460729 A 2.625 2.625 0 0 0 86.4735 -116.704A 145.25 145.25 0 0 1 87.6145 -115.85A 2.625 2.625 0 0 0 90.7371 -115.654C 91.44504044544843 -116.28579152173447 92.40523255970919 -117.07317718053524 93.65657297565146 -117.96416331609265 C 95.91610538983286 -119.57227403557846 99.10195146161945 -121.50320916144452 103.39153683446102 -123.41900982445709 A 161 161 0 0 1 107.449 -119.904C 106.16280349051428 -115.38494605045045 104.7049156685209 -111.9567265779101 103.43473818755272 -109.49133492875922 C 102.73090531507901 -108.12593080618176 102.08818369242078 -107.06345540047053 101.56343253848327 -106.27306584561433 A 2.625 2.625 0 0 0 102.202 -103.21A 145.25 145.25 0 0 1 103.21 -102.202A 2.625 2.625 0 0 0 106.273 -101.563C 107.06345540047057 -102.08818369242074 108.12593080618178 -102.73090531507899 109.49133492875924 -103.43473818755268 C 111.95672657791013 -104.70491566852084 115.38494605045048 -106.16280349051424 119.90351649078838 -107.4486324165384 A 161 161 0 0 1 123.419 -103.392C 121.50320916144454 -99.10195146161941 119.57227403557849 -95.91610538983281 117.96416331609268 -93.65657297565141 C 117.07317718053527 -92.40523255970913 116.28579152173451 -91.44504044544838 115.65389741624313 -90.73737579221932 A 2.625 2.625 0 0 0 115.85 -87.6145A 145.25 145.25 0 0 1 116.704 -86.4735A 2.625 2.625 0 0 0 119.645 -85.4053C 120.502367149049 -85.81235484114038 121.64549691087645 -86.29732846887488 123.09716904965376 -86.7996800706677 C 125.71823166939987 -87.70606716249509 129.31903588040163 -88.66122928876135 133.97460632455167 -89.29091070888765 A 161 161 0 0 1 136.877 -84.7748C 134.37015988016893 -80.80152692745821 132.00548572123574 -77.92290889522553 130.09217826007264 -75.91523328001296 C 129.03217676975964 -74.80343025300668 128.11615597619678 -73.96506817267735 127.38998246090723 -73.35453443267883 A 2.625 2.625 0 0 0 127.14 -70.2355A 145.25 145.25 0 0 1 127.823 -68.9846A 2.625 2.625 0 0 0 130.582 -67.5087C 131.48819820260388 -67.78963390769088 132.6887114951108 -68.10698687598942 134.19709979161917 -68.39763077715128 C 136.9204761055429 -68.9217760524528 140.6205630651319 -69.35476813656123 145.31835952440778 -69.31548355292719 A 161 161 0 0 1 147.548 -64.4323C 144.50172163527597 -60.856216317416006 141.75144638999438 -58.343426686624596 139.57189160954022 -56.628478356248195 C 138.36445333802249 -55.67884582163259 137.33844495146866 -54.97938040955357 136.53277482504075 -54.478406289098054 A 2.625 2.625 0 0 0 135.841 -51.4268A 145.25 145.25 0 0 1 136.339 -50.0914A 2.625 2.625 0 0 0 138.86 -48.2379C 139.79730872140544 -48.386911517041945 141.03076655595083 -48.53018343464035 142.56516457430607 -48.60320296349136 C 145.33541449422464 -48.73443633597204 149.0594611020734 -48.63644390773628 153.70384998789044 -47.92899304117729 A 161 161 0 0 1 155.216 -42.7781C 151.69164504644314 -39.6720486379871 148.61175638766824 -37.576240559232964 146.21032373793602 -36.18893091619659 C 144.88002864645728 -35.42080065386236 143.76491923889887 -34.874471008731895 142.89615362174584 -34.493254896221785 A 2.625 2.625 0 0 0 141.777 -31.5711A 145.25 145.25 0 0 1 142.08 -30.1784A 2.625 2.625 0 0 0 144.312 -27.9851C 145.26054917678704 -27.999171144236257 146.50184190885818 -27.965445408054308 148.03101373024504 -27.81935409755802 C 150.79174295653002 -27.555004034199946 154.4639383629663 -26.928021936872035 158.96037331092083 -25.56680644691141 A 161 161 0 0 1 159.724 -20.2531C 155.79356400704603 -17.68027245302978 152.44675958620496 -16.044110534984924 149.8723353107834 -15.01268120295017 C 148.44626437115187 -14.44169012993366 147.26475435441677 -14.059617947842021 146.35057880919075 -13.805920303991545 A 2.625 2.625 0 0 0 144.827 -11.0727A 145.25 145.25 0 0 1 144.929 -9.65108A 2.625 2.625 0 0 0 146.825 -7.16253" stroke="#191919" stroke-width="0.35 px" style="stroke-width:0.35;stroke-miterlimit:4;stroke-dasharray:none;fill:none;fill-rule: evenodd "/>
<title>b'InvoluteGear'</title>
</g>
</svg>