<?xml version="1.0"?>
<!DOCTYPE svg PUBLIC "-//W3C//DTD SVG 1.1//EN" "http://www.w3.org/Graphics/SVG/1.1/DTD/svg11.dtd">
<svg width="1078.066143225038mm" height="1078.1248789818137mm" viewBox="0 0 1078.066143225038 1078.1248789818137" xmlns="http://www.w3.org/2000/svg" version="1.1">
<g id="InvoluteGear" transform="translate(539.004533,539.062439) scale(1,-1)">
<path id="InvoluteGear_w0000"  d="M 514.4408198007186 -7.803391747477388 C 515.5878185337324 -7.455658861736172 516.771963851355 -7.082298131986345 517.9923835467362 -6.681512493443384 C 521.2416470654188 -5.614443516801035 524.7474887257191 -4.353225945054215 528.4923341677489 -2.864453047591992 A 528.5 528.5 0 0 1 528.492 2.86445C 524.7474887257191 4.353225945054215 521.2416470654188 5.614443516801035 517.9923835467362 6.681512493443384 C 516.771963851355 7.082298131986345 515.5878185337324 7.455658861736172 514.440821765344 7.803390915543306 A 2.625 2.625 0 0 0 512.645 10.388A 512.75 512.75 0 0 1 512.627 11.2325A 2.625 2.625 0 0 0 514.312 13.8906C 515.4437750946074 14.286363626036145 516.6111281349732 14.709311905280382 517.8135671667833 15.161189915053116 C 521.0149582216688 16.36428796943285 524.464514693359 17.772178469081876 528.143269533331 19.417497572566283 A 528.5 528.5 0 0 1 527.902 25.1413C 524.0974808727383 26.4708904823223 520.541587282361 27.583192727349974 517.2502283718422 28.51233541655502 C 516.0139978745716 28.861316101628752 514.8151656468538 29.184425460131724 513.6545293600939 29.48349498013425 A 2.625 2.625 0 0 0 511.751 31.9901A 512.75 512.75 0 0 1 511.698 32.8331A 2.625 2.625 0 0 0 513.27 35.5599C 514.3832914334571 36.002985480633726 515.5317766854605 36.47476932276653 516.7140971609815 36.976936281158046 C 519.8619237956029 38.31392434883915 523.2490618931607 39.86598459846016 526.8551854392186 41.664924590643395 A 528.5 528.5 0 0 1 526.373 47.3735C 522.5156468246583 48.54149074231519 518.9160235532424 49.5029000278233 515.5884211669188 50.292464447796846 C 514.3385778404693 50.58901970447864 513.1271901826083 50.86130321508658 511.95497794643956 51.11117846659188 A 2.625 2.625 0 0 0 509.948 53.5353A 512.75 512.75 0 0 1 509.859 54.3753A 2.625 2.625 0 0 0 511.314 57.1659C 512.4082530515307 57.655595340903915 513.5358285503054 58.17537593147078 514.6959283468783 58.72693900395464 C 517.784593840353 60.1954399689435 521.1032913558478 61.888910462051996 524.6303720519248 63.83827289327669 A 528.5 528.5 0 0 1 523.908 69.5214C 520.0047990246909 70.52578600319316 516.3678460710519 71.33459297855681 513.0099165645323 71.9831753125737 C 511.74868258472736 72.22677787643939 510.5268932997716 72.44775142900687 509.3451892647726 72.64798814293646 A 2.625 2.625 0 0 0 507.237 74.9854A 512.75 512.75 0 0 1 507.113 75.8209A 2.625 2.625 0 0 0 508.45 78.6703C 509.52217149499614 79.20569565668396 510.62683245245387 79.77254884476322 511.76264895497593 80.37252737232475 C 514.786661772771 81.96993029349561 518.0310181831296 83.8018001013547 521.4727850084619 85.89811907635622 A 528.5 528.5 0 0 1 520.511 91.5457C 516.5694016685959 92.3846889902554 512.901585402362 93.03945562618817 509.5192990517679 93.54590271852729 C 508.2489168465977 93.73611947310805 507.01889823130904 93.90539018472262 505.82980342413 94.05563234750637 A 2.625 2.625 0 0 0 503.625 96.3021A 512.75 512.75 0 0 1 503.466 97.1316A 2.625 2.625 0 0 0 504.681 100.035C 505.7301781115394 100.61497113604038 506.80996048081016 101.2278890773498 507.9194742489893 101.87521632006202 C 510.87345780667005 103.59868107331508 514.0377047645911 105.56569319825682 517.3880383833637 107.8052415383986 A 528.5 528.5 0 0 1 516.189 113.407C 512.2155627675045 114.079335371688 508.5234044321475 114.5788975170056 505.1227748191805 114.94230892321853 C 503.8455030818456 115.07880167006635 502.6094420644351 115.19606858357993 501.41507065224937 115.29604907013521 A 2.625 2.625 0 0 0 499.118 117.448A 512.75 512.75 0 0 1 498.924 118.27A 2.625 2.625 0 0 0 500.016 121.222C 501.03901492701465 121.84535686845965 502.0919988944505 122.5032498172668 503.1732372532963 123.19677485091508 C 506.051939475897 125.04323717881344 509.1304510657622 127.14189434506189 512.3833947070646 129.520690215123 A 528.5 528.5 0 0 1 510.949 135.067C 506.95102328809816 135.5711528579276 503.24108740640025 135.91462230936617 499.828160726413 136.13435189723464 C 498.54627039945103 136.21687795722664 497.30636465129993 136.28193257634643 496.10884018289227 136.33147362501674 A 2.625 2.625 0 0 0 493.723 138.384A 512.75 512.75 0 0 1 493.494 139.197A 2.625 2.625 0 0 0 494.461 142.193C 495.4570226583697 142.8591060028702 496.48133605690293 143.56080424952063 497.53237660407103 144.29929401190392 C 500.33067926409234 146.26547097181157 503.31798200463913 148.49204184351143 506.46775205338685 151.00585583124433 A 528.5 528.5 0 0 1 504.801 156.487C 500.7851433894524 156.82192978178475 497.0640260920247 157.0086958631939 493.6448704041062 157.08435296152928 C 492.3606406417384 157.1127656063424 491.119094670019 157.12549226632967 489.92054630019305 157.12450579493833 A 2.625 2.625 0 0 0 487.45 159.075A 512.75 512.75 0 0 1 487.188 159.878A 2.625 2.625 0 0 0 488.027 162.911C 488.99412588415424 163.61885686016586 489.98794752194266 164.36311281078406 491.0069215456958 165.1452542940546 C 493.71984936312674 167.22765009508853 496.610631939098 169.57817591048416 499.6516282190889 172.2225385463553 A 528.5 528.5 0 0 1 497.755 177.629C 493.72888578101544 177.79388303739353 490.00320307861796 177.82361368549616 486.5838975168061 177.75506377873853 C 485.2996116326846 177.72931249172717 484.058632860827 177.6896885650449 482.86119156484557 177.6381763275021 A 2.625 2.625 0 0 0 480.311 179.483A 512.75 512.75 0 0 1 480.015 180.274A 2.625 2.625 0 0 0 480.725 183.34C 481.66181539898247 184.0876993609081 482.62337829742154 184.87318975557403 483.608474099131 185.69759234071722 C 486.231203587315 187.89250455913609 489.02032629278403 190.36280616910548 491.94714202360734 193.133015872849 A 528.5 528.5 0 0 1 489.825 198.454C 485.79479623131124 198.44972525719507 482.0711722518274 198.32236761198382 478.6577962166304 198.1097325793658 C 477.37573762418964 198.02986314537858 476.1375324671631 197.93795908192234 474.94332725195227 197.83601266510658 A 2.625 2.625 0 0 0 472.318 199.571A 512.75 512.75 0 0 1 471.988 200.349A 2.625 2.625 0 0 0 472.569 203.442C 473.4731277833189 204.2292406501002 474.40072231866554 205.05456891555698 475.3501884339449 205.91976684486144 C 477.87805647556326 208.22329300683984 480.5605603521432 210.80897830526916 483.3679917622379 213.7001097451251 A 528.5 528.5 0 0 1 481.023 218.927C 476.99698126202014 218.75273110751638 473.2820364729993 218.46851160623677 469.8806588224433 218.11216950508668 C 468.60310697507464 217.9783239290625 467.36987691646243 217.8343031309033 466.18103103531473 217.68210379182335 A 2.625 2.625 0 0 0 463.484 219.305A 512.75 512.75 0 0 1 463.123 220.068A 2.625 2.625 0 0 0 463.572 223.184C 464.4426222249143 224.00766980235534 465.3345991679355 224.8713685350658 466.24674748068065 225.77582351818685 C 468.6752596186049 228.18386803827133 471.24637527229584 230.88033977105948 473.9294308510664 233.88725262083383 A 528.5 528.5 0 0 1 471.366 239.011C 467.351083067099 238.66680258487332 463.6514225048066 238.2262265594266 460.2680907642278 237.72681095299626 C 458.997317102494 237.53922720748488 457.7712547803361 237.3433457383461 456.5898819578436 237.14116408187263 A 2.625 2.625 0 0 0 453.827 238.649A 512.75 512.75 0 0 1 453.433 239.396A 2.625 2.625 0 0 0 453.752 242.528C 454.5863546331014 243.38782149241518 455.4411280813432 244.2883550675515 456.31433682514125 245.2304590165354 C 458.6391752534138 247.73874047944608 461.09433133441127 250.5412044182545 463.6482407069513 253.65855249663164 A 528.5 528.5 0 0 1 460.871 258.669C 456.87425170153057 258.1565331969034 453.1964532274345 257.56038397538487 449.83718283719975 256.9187828063974 C 448.57544675029703 256.6777944084528 447.35873205865965 256.4304005384383 446.1869327325889 256.17859603617825 A 2.625 2.625 0 0 0 443.363 257.569A 512.75 512.75 0 0 1 442.938 258.299A 2.625 2.625 0 0 0 443.124 261.441C 443.9218490919734 262.3352385178148 444.7378992894382 263.2710058195435 445.57061593100855 264.24908370794924 C 447.78764717174437 266.85314248077975 450.12247850213225 269.75661594699557 452.5427009107773 272.9788567228536 A 528.5 528.5 0 0 1 449.557 277.868C 445.58511458915166 277.18727091381743 441.935717194725 276.43660842778763 438.60648081499824 275.65396243970747 C 437.3560256236446 275.3599978579069 436.15082183684785 275.06153144428936 434.99067942363814 274.7605517954587 A 2.625 2.625 0 0 0 432.111 276.03A 512.75 512.75 0 0 1 431.656 276.742A 2.625 2.625 0 0 0 431.709 279.889C 432.4680667032026 280.8162330625311 433.24394274241945 281.78557033073884 434.03468674196176 282.7978831717737 C 436.13996899452087 285.49308933305593 438.3503243293989 288.49241005681273 440.63255670702756 291.8138145036414 A 528.5 528.5 0 0 1 437.443 296.573C 433.5037434037735 295.7251797784434 429.8892355844061 294.8213386784086 426.5959524759767 293.8990393872415 C 425.3590014438695 293.5526212798837 424.1674513702647 293.2036129850546 423.0210285607896 292.8539933204853 A 2.625 2.625 0 0 0 420.09 294.001A 512.75 512.75 0 0 1 419.605 294.693A 2.625 2.625 0 0 0 419.526 297.839C 420.2453718738934 298.79794659269095 420.9796942755785 299.7991303810887 421.72705971911824 300.8438783194638 C 423.7168498684838 303.6254398909992 425.7987992767289 306.7152751895042 427.93898389745925 310.12993797140507 A 528.5 528.5 0 0 1 424.552 314.75C 420.6516183824783 313.7373000653242 417.07842660116864 312.68188734777635 413.8269521012215 311.6215745680046 C 412.6057044821557 311.2233188538425 411.4299266542906 310.82438920181374 410.299261746469 310.4267511325107 A 2.625 2.625 0 0 0 407.323 311.45A 512.75 512.75 0 0 1 406.809 312.12A 2.625 2.625 0 0 0 406.597 315.26C 407.2754961094094 316.2484082778442 407.96695927513025 317.27965851819243 408.6696173741824 318.35498403019926 C 410.5403776460821 321.2179554970211 412.4902194976232 324.39281175587115 414.48455119130136 327.8946617270293 A 528.5 528.5 0 0 1 410.906 332.368C 407.0515901345412 331.1916068819059 403.52606739588 329.98649903214175 400.32218250741994 328.7900579611936 C 399.1188096350954 328.3406727243536 397.9608945430402 327.8925309974883 396.8479978178168 327.4475815094278 A 2.625 2.625 0 0 0 393.831 328.344A 512.75 512.75 0 0 1 393.29 328.992A 2.625 2.625 0 0 0 392.945 332.121C 393.58149937555 333.1365918339345 394.2288739090315 334.19607500093935 394.8855753631381 335.30006619705944 C 396.6339796140782 338.2393573003782 398.4482471612588 341.493589741005 400.29318007891254 345.07640073996475 A 528.5 528.5 0 0 1 396.529 349.395C 392.72783901388095 348.05706710762905 389.2562535686406 346.7044067634273 386.10565468208 345.3739646298653 C 384.9222961095489 344.874248860899 383.7843024840815 344.37769183883347 382.6911526312208 343.8862220359677 A 2.625 2.625 0 0 0 379.639 344.655A 512.75 512.75 0 0 1 379.071 345.28A 2.625 2.625 0 0 0 378.595 348.391C 379.187729098773 349.4324706868999 379.7898639917193 350.51830305815406 380.39944120965987 351.64899708232866 C 382.0223808406868 354.6593818698262 383.697848382016 357.98720458570705 385.3901023002449 361.6446065052599 A 528.5 528.5 0 0 1 381.447 365.801C 377.70583212727354 364.3036945696835 374.2943563276871 362.80588671177367 371.20264509287136 361.34380899315937 C 370.04140478849143 360.7946511684679 368.92535594074906 360.25056171146656 367.85389654079717 359.71344540916976 A 2.625 2.625 0 0 0 364.772 360.353A 512.75 512.75 0 0 1 364.178 360.953A 2.625 2.625 0 0 0 363.571 364.041C 364.1197768773585 365.1070713588251 364.67560155590365 366.21732236399794 365.23697073163004 367.3727088835145 C 366.73156021530576 370.44883500089657 368.2652488306379 373.8443312446849 369.8018149837309 377.5698213576874 A 528.5 528.5 0 0 1 365.687 381.556C 362.01227805476515 379.90260335733 358.6669773803093 378.26231103342377 355.63965074698814 376.67119725058535 C 354.5025933536433 376.0735737527406 353.41047357774926 375.4829192320025 352.3626096464185 374.9011114034592 A 2.625 2.625 0 0 0 349.257 375.41A 512.75 512.75 0 0 1 348.638 375.985A 2.625 2.625 0 0 0 347.901 379.045C 348.40443298048126 380.1325249817291 348.91295920863047 381.2652206350496 349.42512224823435 382.44324541484 C 350.7887042589989 385.5796436221271 352.177887105945 389.0367763254133 353.5560335353556 392.8237308463988 A 528.5 528.5 0 0 1 349.277 396.633C 345.67507936279156 394.8260591799953 342.4019016359854 393.04619876998544 339.44434208043657 391.32887786516426 C 338.3334892446776 390.6838512469362 337.26724028973877 390.0476818246445 336.24483489085935 389.42221690294195 A 2.625 2.625 0 0 0 333.12 389.799A 512.75 512.75 0 0 1 332.478 390.348A 2.625 2.625 0 0 0 331.613 393.374C 332.0696387160899 394.4821168473941 332.5299623527673 395.63524325732624 332.99200864905447 396.83381181232164 C 334.22215878785397 400.0249057079577 335.4643659500075 403.5375282149566 336.681642361677 407.3792140769841 A 528.5 528.5 0 0 1 332.246 411.005C 328.7232829944338 409.0475286778283 325.5280478058275 407.1312647085714 322.64551376101053 405.29079001566595 C 321.56284053864107 404.599507110843 320.52435815638864 403.91895387301474 319.52922908944913 403.25094391195864 A 2.625 2.625 0 0 0 316.391 403.496A 512.75 512.75 0 0 1 315.726 404.017A 2.625 2.625 0 0 0 314.735 407.004C 315.14443675228074 408.13033390514266 315.5557393588587 409.3018408550107 315.966847410376 410.51882217405966 C 317.0613785151555 413.75893810955097 318.154401393514 417.3208051056311 319.2086435144046 421.21039193143275 A 528.5 528.5 0 0 1 314.624 424.646C 311.1870286250127 422.5417265970462 308.07541698616785 420.49246611594924 305.2730334924221 418.53210993179914 C 304.2204648369215 417.79579981615893 303.2115954111339 417.07207276161563 302.2455119792999 416.36270545853904 A 2.625 2.625 0 0 0 299.1 416.475A 512.75 512.75 0 0 1 298.414 416.967A 2.625 2.625 0 0 0 297.297 419.91C 297.65891948049386 421.0529101231108 298.0204697759478 422.2407147163096 298.37990864758194 423.47394505103813 C 299.33687468197996 426.75732221849285 300.27876992175345 430.36210083411856 301.1681033478466 434.2926730802607 A 528.5 528.5 0 0 1 296.443 437.532C 293.0974950748465 435.28466074619223 290.0750393177049 433.10604726360714 287.3577889106149 431.0292950299684 C 286.3371962506413 430.2492668360265 285.35973351434075 429.4836527250601 284.42441337869894 428.73418930914085 A 2.625 2.625 0 0 0 281.277 428.714A 512.75 512.75 0 0 1 280.57 429.177A 2.625 2.625 0 0 0 279.331 432.07C 279.6441755123395 433.2268696323664 279.95533067343797 434.42885999567585 280.26246129599247 435.6761467075532 C 281.08016080932225 438.9969473821879 281.86925375514704 442.63822845252975 282.59209728406563 446.60279770499716 A 528.5 528.5 0 0 1 277.734 449.64C 274.486844874446 447.25367465337746 271.55891881504533 444.9495816645719 268.9316326666742 442.76012577112914 C 267.9448305787324 441.93776636054866 267.0005124249936 441.1316264271089 266.0976185506125 440.34339941695043 A 2.625 2.625 0 0 0 262.954 440.191A 512.75 512.75 0 0 1 262.228 440.623A 2.625 2.625 0 0 0 260.868 443.461C 261.1322344051807 444.6305675771666 261.39244120940236 445.84460661558495 261.64671751583825 447.1037320743545 C 262.3236966682056 450.45605199375575 262.9585843416203 454.127361453952 263.51365278394866 458.11887885329287 A 528.5 528.5 0 0 1 258.532 460.948C 255.38816708070874 458.42748784866006 252.5599764647338 456.002011946885 250.02732579397576 453.7037451663168 C 249.07606877616692 452.84051666411955 248.1665741682061 451.9952841955896 247.297711867445 451.1696950300512 A 2.625 2.625 0 0 0 244.163 450.885A 512.75 512.75 0 0 1 243.42 451.286A 2.625 2.625 0 0 0 241.941 454.065C 242.15600971474973 455.24372859872057 242.36480552389236 456.4676577951415 242.56577542021623 457.7363833216869 C 243.10083056739313 461.1142621833742 243.58038416128338 464.80907257918176 243.96669062558715 468.8204413531224 A 528.5 528.5 0 0 1 238.87 471.437C 235.83541844578392 468.78623369994494 233.11199169294076 466.2436872928407 230.6784794602644 463.84069585961237 C 229.76445881285184 462.93813305457337 228.89140479889184 462.0553108434372 228.05811887721413 461.1938273899269 A 2.625 2.625 0 0 0 224.938 460.777A 512.75 512.75 0 0 1 224.179 461.147A 2.625 2.625 0 0 0 222.585 463.86C 222.74924047604682 465.04748288403823 222.90625405878137 466.2791261370152 223.05356022785148 467.5551959836499 C 223.44574006131205 470.9526280422761 223.76910694688826 474.664370135646 223.9859645943714 478.68845821689337 A 528.5 528.5 0 0 1 218.784 481.088C 215.863363043206 478.31149473513017 213.24954230687513 475.6563983774235 210.919495208224 473.15295472261084 C 210.04433602656349 472.21266233846023 209.20927486478072 471.29382001039244 208.413046874146 470.3979739550525 A 2.625 2.625 0 0 0 205.314 469.85A 512.75 512.75 0 0 1 204.539 470.187A 2.625 2.625 0 0 0 202.832 472.831C 202.94643121656685 474.02439971576865 203.05138340847304 475.2615672085444 203.14476394529646 476.54271256964876 C 203.39337118360862 479.9536573149961 203.55997642634892 483.6757317639388 203.60699969202798 487.7053844707355 A 528.5 528.5 0 0 1 198.308 489.884C 195.5075104586402 486.98633538770065 193.00794301670464 484.22340974382314 190.78550379078973 481.62396489888624 C 189.95076207596907 480.6476147411689 189.1551784746353 479.6943859642975 188.39742407935418 478.7657700887222 A 2.625 2.625 0 0 0 185.324 478.087A 512.75 512.75 0 0 1 184.536 478.392A 2.625 2.625 0 0 0 182.719 480.962C 182.78279060850912 482.1585184633799 182.83549480841984 483.39901055730024 182.8747836858098 484.6829536031749 C 182.97937631437628 488.10134649996183 182.988923696239 491.82713559193684 182.8660289744636 495.8551883488244 A 528.5 528.5 0 0 1 177.48 497.808C 174.8040526551357 494.79533210754727 172.4231826472905 491.9294895584662 170.31230270995195 489.2386652414778 C 169.51946260227786 488.22799322514425 168.76477108000302 487.2420728054483 168.0468375397376 486.28233815477637 A 2.625 2.625 0 0 0 165.005 485.475A 512.75 512.75 0 0 1 164.205 485.746A 2.625 2.625 0 0 0 162.281 488.237C 162.294168869043 489.435376960577 162.29453137081413 490.67698810596806 162.27965873458044 491.9614460327325 C 162.24005079152448 495.381209303136 162.09252333761304 499.10408872110304 161.79992913071376 503.1233797972754 A 528.5 528.5 0 0 1 156.337 504.848C 153.78979962513574 501.7246007834756 151.53186015136976 498.76093669266 149.5362925701038 495.9835170910595 C 148.7867637103546 494.94032015407237 148.07430608112435 493.9234610220788 147.39746985550966 492.9343139694957 A 2.625 2.625 0 0 0 144.392 491.999A 512.75 512.75 0 0 1 143.581 492.237A 2.625 2.625 0 0 0 141.554 494.644C 141.5169940199299 495.84203721850633 141.46501417904653 497.0825598760619 141.39600647219365 498.365248964396 C 141.21226837899266 501.78030239411873 140.90792838773643 505.4936529943318 140.4461549175354 509.4970362369315 A 528.5 528.5 0 0 1 134.915 510.99C 132.50211394365454 507.7618214286499 130.3711195379531 504.70560508270034 128.49441235909498 501.846528347183 C 127.78952738223074 500.7726612556267 127.12057036971011 499.72667134976405 126.48603484885551 498.70987056263215 A 2.625 2.625 0 0 0 123.523 497.649A 512.75 512.75 0 0 1 122.703 497.852A 2.625 2.625 0 0 0 120.576 500.172C 120.48820711982987 501.36710842902784 120.38397735455216 502.6043369947331 120.26095727026457 503.882976670247 C 119.93341570654307 507.2872484189164 119.4728042833402 510.9844679995196 118.84267256621601 514.9648255392368 A 528.5 528.5 0 0 1 113.254 516.223C 110.97884433898187 512.8962600850795 108.9785838316319 509.75292532512833 107.22407377205896 506.8172747897936 C 106.56508593784518 505.71464684016837 105.94081892319022 504.64138589231794 105.34971228809566 503.5987392053307 A 2.625 2.625 0 0 0 102.434 502.414A 512.75 512.75 0 0 1 101.606 502.582A 2.625 2.625 0 0 0 99.3829 504.81C 99.24519658444761 506.0007672171554 99.08890221149458 507.2325019437708 98.91208847499277 508.5048188317828 C 98.44132579769811 511.892256228462 97.82526189284994 515.5667712679635 97.02789228000023 519.517026174348 A 528.5 528.5 0 0 1 91.3907 520.538C 89.25825839902612 517.118787908204 87.3922881802142 513.893923468745 85.763094694785 510.88691861311383 C 85.15117565954246 509.75749023767594 84.57270856672382 508.6588664666365 84.02608178341522 507.5922276675541 A 2.625 2.625 0 0 0 81.1627 506.286A 512.75 512.75 0 0 1 80.3285 506.419A 2.625 2.625 0 0 0 78.0135 508.551C 77.8257317112939 509.73477510666 77.61765061635701 510.95882601479116 77.387357596012 512.2225579823051 C 76.77421080400487 515.5871382869205 76.00378975665222 519.2324156316745 75.0405999421502 523.145544495659 A 528.5 528.5 0 0 1 69.3654 523.928C 67.3789745329392 520.421897397647 65.6506122296195 517.1212369699682 64.14963196489695 514.0482241389394 C 63.58586969833958 512.8940034201241 63.05423102073827 511.7719701388685 62.55305597168834 510.6832356725508 A 2.625 2.625 0 0 0 59.7473 509.257A 512.75 512.75 0 0 1 58.9083 509.355A 2.625 2.625 0 0 0 56.5054 511.388C 56.2678955272523 512.5624931677793 56.008397670924836 513.776683939581 55.72503481932275 515.0295841172759 C 54.97059406522372 518.3653252288296 54.04718565587382 521.9748837087441 52.91988815605999 525.8439291300106 A 528.5 528.5 0 0 1 47.2167 526.387C 45.37989330899393 522.7997157452762 43.79221188626862 519.4291277831675 42.42211353038814 516.295570681411 C 41.907510381252465 515.1186097815354 41.423645353036186 513.9751619242912 40.96881310919273 512.8662675208882 A 2.625 2.625 0 0 0 38.2256 511.323A 512.75 512.75 0 0 1 37.3833 511.385A 2.625 2.625 0 0 0 34.8968 513.315C 34.61001707834791 514.4788938209924 34.29956383834857 515.6810656695819 33.96363496429878 516.9209064466642 C 33.06924161623685 520.2218775391908 31.994487631343553 523.7892994910121 30.705086740034115 527.6073824479946 A 528.5 528.5 0 0 1 24.9841 527.909C 23.300128290793992 524.248015276844 21.855950588293418 520.8134925626986 20.61917012613274 517.6249625403885 C 20.154641040038513 516.4273540529817 19.719409955569745 515.2645246283114 19.31172919206413 514.1374418616055 A 2.625 2.625 0 0 0 16.636 512.48A 512.75 512.75 0 0 1 15.7918 512.507A 2.625 2.625 0 0 0 13.2262 514.33C 12.890603282101772 515.4805697758733 12.529746632961904 516.6685852835745 12.141849005743412 517.8931622683879 C 11.109093262452344 521.1534943357475 9.88490457537979 524.6724370134312 8.435692800305372 528.4327690939656 A 528.5 528.5 0 0 1 2.70711 528.493C 1.1789364947847467 524.7642209686352 -0.11916979223843605 521.2718699585031 -1.220433410151422 518.0340361056601 C -1.6340625174411851 516.8179093349084 -2.019885833177155 515.6377658110938 -2.3796902748249122 514.4944985931133 A 2.625 2.625 0 0 0 -4.98313 512.726A 512.75 512.75 0 0 1 -5.82775 512.717A 2.625 2.625 0 0 0 -8.4679 514.43C -8.851729536362956 515.5657400891283 -9.262348004689926 516.737487007723 -9.701524717251473 517.9446229470768 C -10.870806653748478 521.158519237833 -12.242253480188996 524.6227260897151 -13.848699493378405 528.3186215605878 A 528.5 528.5 0 0 1 -19.5747 528.137C -20.944351407289172 524.3474150257684 -22.09407829322844 520.803444992299 -23.057867060369503 517.5220640593552 C -23.419860771396614 516.2895812342769 -23.755590338624256 515.0942218634365 -24.066878739247255 513.9368028815737 A 2.625 2.625 0 0 0 -26.5934 512.06A 512.75 512.75 0 0 1 -27.4369 512.015A 2.625 2.625 0 0 0 -30.147 513.616C -30.578324302738377 514.7342533310485 -31.037974525600468 515.8876483372758 -31.52764948333701 517.0751969875222 C -32.83137867242747 520.2369433113547 -34.347645255826755 523.6402551040717 -36.10846930474375 527.26514279801 A 528.5 528.5 0 0 1 -41.8218 526.843C -43.030401016883395 522.998338513999 -44.029704329292535 519.4090505065819 -44.85430466440525 516.0899566690886 C -45.16401936756174 514.8433090991696 -45.449058271362304 513.6348591866423 -45.71127717154408 512.4653462896097 A 2.625 2.625 0 0 0 -48.1565 510.484A 512.75 512.75 0 0 1 -48.9973 510.404A 2.625 2.625 0 0 0 -51.7724 511.889C -52.25055192439849 512.9875878547465 -52.75841666047347 514.1205802543761 -53.29771923917988 515.2864301973522 C -54.73357769794258 518.3904050846787 -56.391968171648486 521.7267708540604 -58.304039575391855 525.2742058530274 A 528.5 528.5 0 0 1 -63.9945 524.611C -65.03994414377829 520.7193900421336 -65.88704715783541 517.091165683862 -66.5709929516161 513.7402601695384 C -66.82787798546218 512.481664348664 -67.06171943706663 511.26227247429443 -67.27440262117183 510.08274501334364 A 2.625 2.625 0 0 0 -69.6339 508A 512.75 512.75 0 0 1 -70.4706 507.884A 2.625 2.625 0 0 0 -73.3059 509.251C -73.82987997151663 510.3288491676979 -74.38505625583727 511.43942454158974 -74.97302759520936 512.581502938642 C -76.53846241970342 515.6221876353864 -78.33602822597334 518.8856754448487 -80.39594739136447 522.3493505388731 A 528.5 528.5 0 0 1 -86.0534 521.447C -86.9338486234885 517.5146214973889 -87.62724522094797 513.8539116387669 -88.1693204427345 510.4771522353331 C -88.37291907505451 509.2088459009431 -88.55514731289547 507.9806800989846 -88.7179166379842 506.79323523089664 A 2.625 2.625 0 0 0 -90.9875 504.613A 512.75 512.75 0 0 1 -91.8186 504.462A 2.625 2.625 0 0 0 -94.7089 505.708C -95.2779411863198 506.762764410263 -95.8794419357126 507.84894819593046 -96.51503664416583 508.9652244733469 C -98.20726454840073 511.937212753082 -100.1408096808297 515.1220202403942 -102.34491414676516 518.4957771415585 A 528.5 528.5 0 0 1 -107.959 517.356C -108.67318789282373 513.3897308412863 -109.21164523983938 509.70304409085236 -109.61088609966941 506.30643455329937 C -109.76083633952499 505.0306727077718 -109.89112736844564 503.7959166122008 -110.00369343659783 502.6026655706178 A 2.625 2.625 0 0 0 -112.179 500.328A 512.75 512.75 0 0 1 -113.003 500.143A 2.625 2.625 0 0 0 -115.944 501.266C -116.55660169867217 502.2956739510034 -117.20335746675532 503.3555349533136 -117.88544548009281 504.4440244126093 C -119.70145774460929 507.3420321886305 -121.76754443051273 510.4424968823036 -124.11191537968648 513.7203371739561 A 528.5 528.5 0 0 1 -129.673 512.345C -130.21931019989685 508.35205197888246 -130.6018709389556 504.64594313114054 -130.85756760114984 501.23552250727363 C -130.95360284248665 499.95457340861367 -131.0317250097923 498.71542237070804 -131.09388768264665 497.5184867124365 A 2.625 2.625 0 0 0 -133.172 495.154A 512.75 512.75 0 0 1 -133.987 494.934A 2.625 2.625 0 0 0 -136.972 495.932C -137.6280288267051 496.9355201137378 -138.31888970532503 497.9671739385064 -139.04625829595048 499.02594128514494 C -140.982826117214 501.84481600538356 -143.17778092986208 504.8554253923373 -145.65825015627962 508.0315211940575 A 528.5 528.5 0 0 1 -151.157 506.423C -151.53390732552867 502.41054171935474 -151.7598912775973 498.69160010058897 -151.87158912282146 495.2734319938209 C -151.91353861848506 493.9895731227802 -151.93935302581312 492.7482303078651 -151.9510017804058 491.54973814082575 A 2.625 2.625 0 0 0 -153.927 489.1A 512.75 512.75 0 0 1 -154.733 488.846A 2.625 2.625 0 0 0 -157.757 489.717C -158.45475834194454 490.6918330563812 -159.1884960056706 491.69344546075575 -159.9598519387738 492.72060824503234 C -162.0135321698693 495.4553380531051 -164.33345255970562 498.3707393797156 -166.9456098796022 501.43944370907354 A 528.5 528.5 0 0 1 -172.371 499.6C -172.57908269386337 495.575763851121 -172.6480880677219 491.85060160381437 -172.6155885012834 488.43076339229975 C -172.60337766660135 487.1462774030991 -172.57683841687768 485.90494987339906 -172.53795254214808 484.70703207292826 A 2.625 2.625 0 0 0 -174.409 482.176A 512.75 512.75 0 0 1 -175.203 481.888A 2.625 2.625 0 0 0 -178.262 482.631C -178.9997610793426 483.5757138266704 -179.77507096938498 484.54550398034775 -180.5890428022659 485.53923594431626 C -182.75618407468752 488.18495859042287 -185.19694530791983 490.9999683795232 -187.93614640090613 493.9558251922075 A 528.5 528.5 0 0 1 -193.279 491.89C -193.31741875109802 487.85987035980935 -193.22932285770995 484.13511068649507 -193.05268366265193 480.7196827177738 C -192.98633420804268 479.4368533796273 -192.90748848708472 478.1977481701904 -192.8181371206991 477.0025345904218 A 2.625 2.625 0 0 0 -194.581 474.395A 512.75 512.75 0 0 1 -195.362 474.074A 2.625 2.625 0 0 0 -198.449 474.687C -199.22650877378095 475.59981462490725 -200.04201241744857 476.5360582763847 -200.89715293789268 477.4945926008776 C -203.17390215354348 480.04660408670355 -205.73116464576984 482.7562173536169 -208.5925393122642 485.5939712440827 A 528.5 528.5 0 0 1 -213.844 483.304C -213.712043492527 479.27657982247126 -213.46700296317587 475.5588452099208 -213.14653819754105 472.15389999028207 C -213.0261680899136 470.87500812693855 -212.89515608253595 469.64032832160854 -212.75549808796302 468.44994400866995 A 2.625 2.625 0 0 0 -214.407 465.771A 512.75 512.75 0 0 1 -215.174 465.417A 2.625 2.625 0 0 0 -218.284 465.899C -219.0990390059936 466.77831630880803 -219.9532864675682 467.6793488510396 -220.8480752669368 468.60098129700765 C -223.2303844487968 471.05474423926177 -225.8996014806282 473.65414339048147 -228.87806230089376 476.3687489358697 A 528.5 528.5 0 0 1 -234.028 473.86C -233.72669601962102 469.841153016452 -233.3251465274258 466.13705346113517 -232.86142596587274 462.7486448589228 C -232.68724921888577 461.47596429344475 -232.50430385965652 460.2479051078582 -232.3145875437141 459.0644665216174 A 2.625 2.625 0 0 0 -233.852 456.318A 512.75 512.75 0 0 1 -234.603 455.932A 2.625 2.625 0 0 0 -237.731 456.283C -238.58201914243642 457.1269031804556 -239.4734916011054 457.9911226104627 -240.4063377775667 458.87421454905007 C -242.8899712668482 461.22536624676616 -245.66639706780978 463.7099296454613 -248.7566484472011 466.2965603761764 A 528.5 528.5 0 0 1 -253.797 463.573C -253.32579101058218 459.57036578628555 -252.76844649588622 455.88648704203797 -252.1622946166508 452.52063952409344 C -251.9346209102042 451.25643303608234 -251.70006746929585 450.03717791465573 -251.46063014067036 448.86278916573184 A 2.625 2.625 0 0 0 -252.88 446.054A 512.75 512.75 0 0 1 -253.615 445.637A 2.625 2.625 0 0 0 -256.755 445.856C -257.6408091554189 446.66273510018334 -258.5679216056832 447.48860486735725 -259.5371665927778 448.3315861933238 C -262.1177085797721 450.57594638458403 -264.99640676610994 452.94125656770086 -268.192954350447 455.3953135486975 A 528.5 528.5 0 0 1 -273.114 452.461C -272.4744819897459 448.48247921685527 -271.7623333907572 444.82537108564844 -271.01482790976036 441.4880690060288 C -270.7340620393958 440.23458430848564 -270.4483175442666 439.0263010423305 -270.15958491379064 437.86305015106217 A 2.625 2.625 0 0 0 -271.46 434.997A 512.75 512.75 0 0 1 -272.176 434.549A 2.625 2.625 0 0 0 -275.322 434.635C -276.2415232118106 435.4044169769689 -277.20262728156683 436.19046871500217 -278.2065477970784 436.9918406383133 C -280.87941017230435 439.125418932601 -283.8552625236954 441.36727046495116 -287.1524229680249 443.68439047247307 A 528.5 528.5 0 0 1 -291.945 440.546C -291.1387232833449 436.5972071658514 -290.2730367742839 432.9733718524837 -289.3855067289922 429.6705488124983 C -289.05214788618105 428.4300145554719 -288.7157203801159 427.23485142814167 -288.37820580386955 426.08480661216294 A 2.625 2.625 0 0 0 -289.556 423.166A 512.75 512.75 0 0 1 -290.253 422.689A 2.625 2.625 0 0 0 -293.4 422.642C -294.3510899208156 423.3719656895854 -295.3444768021012 424.1168018271731 -296.38128791198926 424.8751395377936 C -299.1417184236845 426.89414251076226 -302.2094339832458 429.0085494621332 -305.601345056621 431.1846127413657 A 528.5 528.5 0 0 1 -310.257 427.847C -309.28533055147346 423.93568121325103 -308.2676452913618 420.35156176466506 -307.2416686778072 417.08909006314906 C -306.85630956240675 415.86371187127753 -306.46979720123403 414.6837938391975 -306.08410076781706 413.5489998362226 A 2.625 2.625 0 0 0 -307.138 410.583A 512.75 512.75 0 0 1 -307.814 410.077A 2.625 2.625 0 0 0 -310.956 409.898C -311.9373111336973 410.58677449732176 -312.96121462088917 411.2890707429926 -314.0290729128366 412.003025944147 C -316.87216361628776 413.9038638821901 -320.0262880977046 415.8870669141833 -323.50691910601813 417.918204504027 A 528.5 528.5 0 0 1 -328.018 414.387C -326.8820397886329 410.52041309014106 -325.71416518472466 406.9823819399211 -324.55156615188497 403.7660621325024 C -324.11489191833954 402.55801868349323 -323.6789819069324 401.3954435978656 -323.2457893705282 400.27791803021984 A 2.625 2.625 0 0 0 -324.174 397.27A 512.75 512.75 0 0 1 -324.828 396.736A 2.625 2.625 0 0 0 -327.96 396.425C -328.96891919091354 397.0715750035474 -330.0215188209766 397.7300827002055 -331.11852568190983 398.39838600560057 C -334.03922166559903 400.1776792882316 -337.27414715064697 402.0261523382293 -340.8373096589847 403.9087529501718 A 528.5 528.5 0 0 1 -345.196 400.19C -343.89756468795633 396.3752546536808 -342.5815771786781 392.8896022920985 -341.2844227852069 389.72515287802145 C -340.7972098243683 388.53659202904186 -340.31267719481934 387.3934269059431 -339.8327587559491 386.2951566933038 A 2.625 2.625 0 0 0 -340.633 383.251A 512.75 512.75 0 0 1 -341.264 382.69A 2.625 2.625 0 0 0 -344.38 382.247C -345.4156325148732 382.8503967397521 -346.4950568040779 383.4639450847437 -347.6192617958311 384.0854082754908 C -350.6123701688844 385.73999338418497 -353.92234507810315 387.4504499345606 -357.5617039135558 389.1811663734155 A 528.5 528.5 0 0 1 -361.759 385.282C -360.30165226712074 381.5253554793707 -358.8398916302396 378.0982792691231 -357.4104881693115 374.9913265239657 C -356.87360272804403 373.8243614928309 -356.34130896168665 372.7026388381323 -355.81551789782105 371.62557666485844 A 2.625 2.625 0 0 0 -356.487 368.551A 512.75 512.75 0 0 1 -357.094 367.963A 2.625 2.625 0 0 0 -360.188 367.389C -361.2482094494762 367.9485244419156 -362.3525392208276 368.5160225686736 -363.5019435479512 369.0895407058986 C -366.56214267290875 370.6164758487135 -369.9412819917007 372.1858747701401 -373.6503665070699 373.7616298852383 A 528.5 528.5 0 0 1 -377.68 369.689C -376.06513665704443 365.99711814602574 -374.4602018496288 362.6347113035502 -372.90109074843417 359.5907792759113 C -372.31548738945986 358.4474848838607 -371.7363788851856 357.3491990795073 -371.16565003364843 356.2952599228377 A 2.625 2.625 0 0 0 -371.707 353.195A 512.75 512.75 0 0 1 -372.288 352.582A 2.625 2.625 0 0 0 -375.356 351.878C -376.43850025071106 352.39245309516906 -377.5657720461761 352.9128920127338 -378.73833210972157 353.43744540211816 C -381.86018106421517 354.83401574409226 -385.30247680618635 356.2595667025597 -389.07469238455946 357.6775588588105 A 528.5 528.5 0 0 1 -392.929 353.439C -391.15999095773924 349.81815129295205 -389.41473549530775 346.52639205491033 -387.72868879648775 343.5508927448529 C -387.0954087012085 342.4333017275932 -386.4705150928045 341.36040548566535 -385.85586318866626 340.33146321095916 A 2.625 2.625 0 0 0 -386.266 337.211A 512.75 512.75 0 0 1 -386.821 336.574A 2.625 2.625 0 0 0 -389.856 335.742C -390.95949713587294 336.20984082667917 -392.10770670733683 336.6822952136475 -393.3013377383015 337.15695121840747 C -396.4792859888156 338.42067370843773 -399.9786178777566 339.69984212636456 -403.80725765749474 340.95755018546095 A 528.5 528.5 0 0 1 -407.479 336.56C -405.5593770691154 333.0172205327954 -403.6769039521906 329.8019615269864 -401.8669193852469 326.90018526369875 C -401.18708850256183 325.8102846572744 -400.5175208280596 324.7646855481371 -399.8600386999753 323.76256957720955 A 2.625 2.625 0 0 0 -400.138 320.627A 512.75 512.75 0 0 1 -400.666 319.968A 2.625 2.625 0 0 0 -403.663 319.008C -404.78538230241423 319.42945973050746 -405.95248817516057 319.8530895802206 -407.16506794113053 320.27700427930137 C -410.3934652116487 321.40563206491765 -413.94361156316205 322.5361436275374 -417.82186836245546 323.63133143044786 A 528.5 528.5 0 0 1 -421.305 319.083C -419.23769340814323 315.6241973073311 -417.22134960522993 312.4911551469328 -415.29064525667076 309.66826118271644 C -414.5654723010802 308.607988790632 -413.85242102737044 307.5915458513442 -413.1532776545704 306.61803790982145 A 2.625 2.625 0 0 0 -413.299 303.474A 512.75 512.75 0 0 1 -413.798 302.793A 2.625 2.625 0 0 0 -416.753 301.707C -417.8915738310576 302.0811447118759 -419.07550093343576 302.4551968259207 -420.3048735118378 302.82761651445713 C -423.5779798298269 303.81914293664363 -427.17262861325514 304.7989876356537 -431.09360703304395 305.72970797843146 A 528.5 528.5 0 0 1 -434.382 301.039C -432.17062042753537 297.67000577713 -430.02399092433274 294.6247508967692 -427.9759995160326 291.88575823407683 C -427.2067738185878 290.85699918195286 -426.45150672481384 289.8715196109676 -425.711945158701 288.9283505604433 A 2.625 2.625 0 0 0 -425.725 285.781A 512.75 512.75 0 0 1 -426.195 285.079A 2.625 2.625 0 0 0 -429.101 283.87C -430.2547693915489 284.1957404417959 -431.45341274437595 284.51954976916386 -432.6973923556292 284.83981229854044 C -436.00938825750137 285.69247445950225 -439.64214831848716 286.51991016678534 -443.59887700222924 287.28450826262565 A 528.5 528.5 0 0 1 -446.687 282.459C -444.33516385501224 279.1865678395306 -442.06206528044 276.2345145912544 -439.90042806638553 273.584293059086 C -439.0885172823052 272.58887644297465 -438.2923772057979 271.63611238700605 -437.5137123598479 270.724959147633 A 2.625 2.625 0 0 0 -437.394 267.58A 512.75 512.75 0 0 1 -437.834 266.859A 2.625 2.625 0 0 0 -440.687 265.529C -441.852987673352 265.80504651636727 -443.06421613248875 266.07803733589105 -444.3205910262409 266.34557329101796 C -447.6655879041473 267.0578551885491 -451.33000032787254 267.73141075361326 -455.31544435636107 268.3285271750042 A 528.5 528.5 0 0 1 -458.197 263.377C -455.70969557628086 260.20674637266967 -453.31416941665236 257.353143399424 -451.04272970892544 254.79640499494934 C -450.1895773859547 253.83610062926837 -449.35397983471637 252.9177460680386 -448.5375961466096 252.04022863702573 A 2.625 2.625 0 0 0 -448.286 248.903A 512.75 512.75 0 0 1 -448.695 248.164A 2.625 2.625 0 0 0 -451.489 246.715C -452.6656074676158 246.9417609182576 -453.88726751306325 247.16344786222237 -455.1538039006021 247.37778157393456 C -458.52585447216285 247.94841679681454 -462.2154040670635 248.46689466244516 -466.2224774662567 248.89546775818 A 528.5 528.5 0 0 1 -468.893 243.827C -466.27399208903165 240.76428680648434 -463.76029750243873 238.01420771021927 -461.38309383794814 235.55549822101835 C -460.49021684978305 234.63201349188552 -459.6166474857664 233.74970122629097 -458.76399645590794 232.90737979760735 A 2.625 2.625 0 0 0 -458.38 229.783A 512.75 512.75 0 0 1 -458.758 229.028A 2.625 2.625 0 0 0 -461.488 227.462C -462.6734043309309 227.63942188088262 -463.90332389571023 227.80941079799206 -465.1777699215586 227.9701611887718 C -468.57087880391356 228.3981351683985 -472.2790056854527 228.7606134998713 -476.300584025077 229.01988128262582 A 528.5 528.5 0 0 1 -478.755 223.843C -476.0092704595877 220.89375712456993 -473.3818767032731 218.25209144555984 -470.90313566338295 215.8957823673788 C -469.97212151272475 215.01075919694173 -469.0621335103798 214.16605794599243 -468.174731121185 213.36043013639943 A 2.625 2.625 0 0 0 -467.659 210.256A 512.75 512.75 0 0 1 -468.005 209.485A 2.625 2.625 0 0 0 -470.667 207.805C -471.85858476568905 207.93234825865028 -473.0945770976976 208.05033691481316 -474.3746668433297 208.15721817633187 C -477.782801212711 208.44176999058763 -481.5029124666139 208.64760431465714 -485.5318455271409 208.73710581577507 A 528.5 528.5 0 0 1 -487.766 203.462C -484.89822171827586 200.63048640356521 -482.1618002024569 198.1019309269851 -479.58592889827935 195.85221169137617 C -478.6184328943123 195.00722361853474 -477.6736441790991 194.20163523022921 -476.75306819963197 193.43413341657248 A 2.625 2.625 0 0 0 -476.107 190.354A 512.75 512.75 0 0 1 -476.42 189.569A 2.625 2.625 0 0 0 -479.009 187.779C -480.20481785627203 187.8555785092903 -481.4446854062486 187.92135712498174 -482.7281429188111 187.97417922625687 C -486.145243236683 188.11480295240005 -489.8707246408983 188.16362730314967 -493.89984912637425 188.0832033922281 A 528.5 528.5 0 0 1 -495.91 182.718C -492.9250416341429 180.01050199934434 -490.0844576164143 177.59955240455696 -487.41603585312686 175.46042293022202 C -486.4137781684393 174.65697231293365 -485.4358685402152 173.8919290940279 -484.4837557209726 173.16391786652366 A 2.625 2.625 0 0 0 -483.709 170.113A 512.75 512.75 0 0 1 -483.988 169.316A 2.625 2.625 0 0 0 -486.499 167.419C -487.69726430482393 167.44480839675583 -488.938802633511 167.45826001999757 -490.2233459723839 167.4569290452607 C -493.64333675908136 167.45337465943803 -497.36756454362643 167.3451022289538 -501.389716817751 167.09489589677153 A 528.5 528.5 0 0 1 -503.172 161.65C -500.0754588143008 159.07046549169326 -497.1357627493847 156.7814083590953 -494.37953488350394 154.75667194017646 C -493.34429749568375 153.9961872843183 -492.33500564208094 153.27304945373686 -491.3530488049101 152.58582318978037 A 2.625 2.625 0 0 0 -490.45 149.571A 512.75 512.75 0 0 1 -490.696 148.763A 2.625 2.625 0 0 0 -493.124 146.761C -494.3226028149811 146.73632752545635 -495.56360451253784 146.69742823975312 -496.8469498065414 146.64194655542877 C -500.26375044325147 146.49422037720853 -503.9801030670336 146.22904366992069 -507.9881318898439 145.80949977420556 A 528.5 528.5 0 0 1 -509.539 140.294C -506.3367600779437 137.84760750135737 -503.3031786381652 135.6845126909961 -500.46404514225355 133.77776923495742 C -499.3976686655974 133.06160265449526 -498.35878907069946 132.38165592491143 -497.34873409902224 131.73643648772097 A 2.625 2.625 0 0 0 -496.319 128.762A 512.75 512.75 0 0 1 -496.531 127.944A 2.625 2.625 0 0 0 -498.873 125.842C -500.0690537766511 125.76695481866608 -501.3073123873471 125.67577378552836 -502.58717789538167 125.56624003602657 C -505.99471343526164 125.27460471716262 -509.6965833589367 124.85299520757962 -513.6833626014507 124.2648596820678 A 528.5 528.5 0 0 1 -515 118.689C -511.6978130599186 116.37966149535748 -508.57573984237314 114.34637491086781 -505.6587485921777 112.5610145379914 C -504.5631290051458 111.8904393509702 -503.49650875896066 111.25489264285585 -502.4601514936567 110.6528272090448 A 2.625 2.625 0 0 0 -501.306 107.725A 512.75 512.75 0 0 1 -501.483 106.899A 2.625 2.625 0 0 0 -503.734 104.699C -504.92640020972914 104.5739730558227 -506.1597141549425 104.43067239179993 -507.43382432284085 104.26728132413008 C -510.8260362920521 103.83225538157674 -514.506841725988 103.25496267602085 -518.4652830402022 102.49928120421383 A 528.5 528.5 0 0 1 -519.546 96.8732C -516.1490860036644 94.70479669826275 -512.9440719405989 92.80493344899122 -509.95440924011274 91.14413046486682 C -508.83149451434844 90.52033892949783 -507.7390300287496 89.930322221707 -506.67821307521695 89.37248124164546 A 2.625 2.625 0 0 0 -505.402 86.4954A 512.75 512.75 0 0 1 -505.544 85.6628A 2.625 2.625 0 0 0 -507.7 83.3703C -508.88600592951667 83.1950625851045 -510.11218242205996 82.99989707354781 -511.37827192843986 82.7829391910656 C -514.7491290978929 82.20529608507333 -518.402325704352 81.47334658890786 -522.325391126065 80.55146274488543 A 528.5 528.5 0 0 1 -523.168 74.8848C -519.6826647083274 72.861550228701 -516.4004081977854 71.09848820217307 -513.3433895581883 69.56519545389881 C -512.1951761950954 68.98929664876785 -511.07880983207104 68.44585896947552 -509.99541928414067 67.93323426406876 A 2.625 2.625 0 0 0 -508.599 65.1126A 512.75 512.75 0 0 1 -508.706 64.2746A 2.625 2.625 0 0 0 -510.764 61.8933C -511.94083090154163 61.66823432914814 -513.1576898443581 61.42155096721494 -514.4135076282805 61.15141201311796 C -517.757016736941 60.43217877204928 -521.3761092656729 59.54687386476737 -525.2568237277294 58.4604267243619 A 528.5 528.5 0 0 1 -525.86 52.7633C -522.2922665999218 50.888758581769885 -518.9386033741995 49.26563243792928 -515.8196640630729 47.86257606405712 C -514.6481935441092 47.335593916223445 -513.5099101623132 46.8397014777917 -512.405872248843 46.37320447505873 A 2.625 2.625 0 0 0 -510.892 43.6139A 512.75 512.75 0 0 1 -510.963 42.7722A 2.625 2.625 0 0 0 -512.919 40.3063C -514.0854437584835 40.03176220301381 -515.2908216207796 39.733999584719385 -516.5341348840533 39.41115985620985 C -519.8443512947407 38.55161525052038 -523.422905131301 37.514528971939754 -527.2543688650064 36.26545019851916 A 528.5 528.5 0 0 1 -527.617 30.548C -523.9732519015164 28.825488579164144 -520.5541446514441 27.34518417706186 -517.3788300290636 26.074858760622803 C -516.1861851860614 25.597730225114105 -515.0280086118071 25.15026470620188 -513.9052862719177 24.730724820789668 A 2.625 2.625 0 0 0 -512.276 22.0377A 512.75 512.75 0 0 1 -512.312 21.1938A 2.625 2.625 0 0 0 -514.162 18.6476C -515.3160314569461 18.324115064561628 -516.5077851208705 17.975802600975047 -517.7363832978856 17.60083609530885 C -521.0074215666215 16.602508363940153 -524.539074172881 15.415484615617732 -528.3144749755384 14.005995025658516 A 528.5 528.5 0 0 1 -528.435 8.27836C -524.7226318825891 6.710967909793145 -521.2441596560838 5.376117176635375 -518.0181153159713 4.240781309861845 C -516.8064166279382 3.8143547038024037 -515.6304060569094 3.4161116817729598 -514.4909954499497 3.044274840287505 A 2.625 2.625 0 0 0 -512.75 0.42233A 512.75 512.75 0 0 1 -512.75 -0.42233A 2.625 2.625 0 0 0 -514.491 -3.04427C -515.6304060569094 -3.416111681773063 -516.8064166279382 -3.8143547038025085 -518.0181153159713 -4.240781309861948 C -521.2441596560838 -5.376117176635479 -524.7226318825891 -6.71096790979325 -528.4352572293471 -8.278362295236649 A 528.5 528.5 0 0 1 -528.314 -14.006C -524.539074172881 -15.415484615617835 -521.0074215666215 -16.60250836394026 -517.7363832978856 -17.600836095308953 C -516.5077851208705 -17.975802600975154 -515.3160314569461 -18.32411506456173 -514.1619584133946 -18.647587749785714 A 2.625 2.625 0 0 0 -512.312 -21.1938A 512.75 512.75 0 0 1 -512.276 -22.0377A 2.625 2.625 0 0 0 -513.905 -24.7307C -515.0280086118071 -25.150264706201753 -516.1861851860614 -25.597730225113978 -517.3788300290636 -26.074858760622668 C -520.5541446514441 -27.345184177061732 -523.9732519015164 -28.825488579164016 -527.6165008799933 -30.548000990073216 A 528.5 528.5 0 0 1 -527.254 -36.2655C -523.422905131301 -37.514528971939626 -519.8443512947407 -38.55161525052025 -516.5341348840533 -39.411159856209714 C -515.2908216207796 -39.73399958471926 -514.0854437584835 -40.031762203013685 -512.9187601780961 -40.30629560934636 A 2.625 2.625 0 0 0 -510.963 -42.7722A 512.75 512.75 0 0 1 -510.892 -43.6139A 2.625 2.625 0 0 0 -512.406 -46.3732C -513.5099101623132 -46.8397014777918 -514.6481935441092 -47.335593916223544 -515.8196640630729 -47.86257606405722 C -518.9386033741995 -49.265632437929376 -522.2922665999218 -50.888758581769984 -525.8596616463869 -52.76332645393805 A 528.5 528.5 0 0 1 -525.257 -58.4604C -521.3761092656729 -59.54687386476747 -517.757016736941 -60.432178772049376 -514.4135076282805 -61.15141201311806 C -513.1576898443581 -61.42155096721504 -511.94083090154163 -61.66823432914824 -510.76361110514836 -61.8933403462117 A 2.625 2.625 0 0 0 -508.706 -64.2746A 512.75 512.75 0 0 1 -508.599 -65.1126A 2.625 2.625 0 0 0 -509.995 -67.9332C -511.07880983207104 -68.44585896947564 -512.1951761950954 -68.98929664876796 -513.3433895581883 -69.56519545389892 C -516.4004081977854 -71.09848820217319 -519.6826647083274 -72.86155022870112 -523.1678631245733 -74.88484064885994 A 528.5 528.5 0 0 1 -522.325 -80.5515C -518.402325704352 -81.47334658890797 -514.7491290978929 -82.20529608507344 -511.37827192843986 -82.78293919106571 C -510.11218242205996 -82.99989707354793 -508.88600592951667 -83.19506258510461 -507.7003429709554 -83.3703409826153 A 2.625 2.625 0 0 0 -505.544 -85.6628A 512.75 512.75 0 0 1 -505.402 -86.4954A 2.625 2.625 0 0 0 -506.678 -89.3725C -507.73903002874965 -89.93032222170689 -508.8314945143485 -90.52033892949771 -509.9544092401128 -91.1441304648667 C -512.9440719405989 -92.80493344899108 -516.1490860036645 -94.70479669826264 -519.5458912340923 -96.87321232988113 A 528.5 528.5 0 0 1 -518.465 -102.499C -514.5068417259881 -103.25496267602074 -510.82603629205215 -103.83225538157663 -507.4338243228409 -104.26728132412997 C -506.15971415494255 -104.43067239179982 -504.9264002097292 -104.57397305582259 -503.73440215447175 -104.69911219518619 A 2.625 2.625 0 0 0 -501.483 -106.899A 512.75 512.75 0 0 1 -501.306 -107.725A 2.625 2.625 0 0 0 -502.46 -110.653C -503.49650875896066 -111.25489264285596 -504.5631290051458 -111.89043935097031 -505.6587485921777 -112.56101453799151 C -508.57573984237314 -114.34637491086792 -511.6978130599186 -116.3796614953576 -515.0001857087884 -118.68934697457473 A 528.5 528.5 0 0 1 -513.683 -124.265C -509.6965833589367 -124.85299520757974 -505.99471343526164 -125.27460471716273 -502.58717789538167 -125.56624003602668 C -501.3073123873471 -125.67577378552848 -500.0690537766511 -125.76695481866619 -498.8728399537401 -125.84173220705961 A 2.625 2.625 0 0 0 -496.531 -127.944A 512.75 512.75 0 0 1 -496.319 -128.762A 2.625 2.625 0 0 0 -497.349 -131.736C -498.35878907069946 -132.38165592491134 -499.3976686655974 -133.06160265449518 -500.46404514225355 -133.77776923495733 C -503.3031786381652 -135.68451269099597 -506.3367600779437 -137.8476075013573 -509.5388286471991 -140.29445629167842 A 528.5 528.5 0 0 1 -507.988 -145.809C -503.9801030670336 -146.2290436699206 -500.26375044325147 -146.49422037720842 -496.8469498065414 -146.6419465554287 C -495.56360451253784 -146.69742823975304 -494.3226028149811 -146.73632752545626 -493.12430004894026 -146.76061021141174 A 2.625 2.625 0 0 0 -490.696 -148.763A 512.75 512.75 0 0 1 -490.45 -149.571A 2.625 2.625 0 0 0 -491.353 -152.586C -492.335005642081 -153.27304945373675 -493.3442974956838 -153.99618728431818 -494.379534883504 -154.75667194017635 C -497.13576274938475 -156.7814083590952 -500.0754588143009 -159.07046549169314 -503.17153014287896 -161.6501271852619 A 528.5 528.5 0 0 1 -501.39 -167.095C -497.3675645436265 -167.3451022289537 -493.6433367590814 -167.4533746594379 -490.223345972384 -167.45692904526058 C -488.93880263351105 -167.45826001999745 -487.697264304824 -167.44480839675572 -486.49900313424166 -167.41855320654386 A 2.625 2.625 0 0 0 -483.988 -169.316A 512.75 512.75 0 0 1 -483.709 -170.113A 2.625 2.625 0 0 0 -484.484 -173.164C -485.43586854021515 -173.891929094028 -486.4137781684393 -174.65697231293376 -487.4160358531268 -175.46042293022214 C -490.0844576164142 -177.59955240455707 -492.9250416341428 -180.01050199934446 -495.9096110202063 -182.71839005180934 A 528.5 528.5 0 0 1 -493.9 -188.083C -489.87072464089823 -188.16362730314978 -486.1452432366829 -188.11480295240017 -482.72814291881105 -187.97417922625698 C -481.4446854062485 -187.92135712498185 -480.204817856272 -187.8555785092904 -479.00872874578135 -187.77883212368124 A 2.625 2.625 0 0 0 -476.42 -189.569A 512.75 512.75 0 0 1 -476.107 -190.354A 2.625 2.625 0 0 0 -476.753 -193.434C -477.67364417909914 -194.2016352302291 -478.6184328943124 -195.00722361853462 -479.5859288982794 -195.85221169137606 C -482.16180020245696 -198.10193092698498 -484.8982217182759 -200.6304864035651 -487.76598270637237 -203.46178628878775 A 528.5 528.5 0 0 1 -485.532 -208.737C -481.50291246661396 -208.64760431465703 -477.78280121271104 -208.44176999058752 -474.37466684332975 -208.15721817633175 C -473.09457709769765 -208.05033691481304 -471.8585847656891 -207.93234825865017 -470.6667943180797 -207.80524712991655 A 2.625 2.625 0 0 0 -468.005 -209.485A 512.75 512.75 0 0 1 -467.659 -210.256A 2.625 2.625 0 0 0 -468.175 -213.36C -469.0621335103798 -214.16605794599252 -469.97212151272475 -215.01075919694182 -470.90313566338295 -215.8957823673789 C -473.3818767032731 -218.25209144555993 -476.0092704595877 -220.89375712457002 -478.7551242753334 -223.8434348946772 A 528.5 528.5 0 0 1 -476.301 -229.02C -472.2790056854527 -228.7606134998714 -468.57087880391356 -228.3981351683986 -465.1777699215586 -227.9701611887719 C -463.90332389571023 -227.80941079799214 -462.6734043309309 -227.6394218808827 -461.4880315061266 -227.4621919901933 A 2.625 2.625 0 0 0 -458.758 -229.028A 512.75 512.75 0 0 1 -458.38 -229.783A 2.625 2.625 0 0 0 -458.764 -232.907C -459.61664748576635 -233.74970122629105 -460.490216849783 -234.6320134918856 -461.3830938379481 -235.55549822101844 C -463.7602975024387 -238.01420771021935 -466.2739920890316 -240.76428680648442 -468.8930567045466 -243.82709804204347 A 528.5 528.5 0 0 1 -466.222 -248.895C -462.21540406706345 -248.46689466244524 -458.5258544721628 -247.94841679681463 -455.15380390060204 -247.37778157393464 C -453.8872675130632 -247.16344786222245 -452.66560746761576 -246.94176091825767 -451.4887598152412 -246.7147173738904 A 2.625 2.625 0 0 0 -448.695 -248.164A 512.75 512.75 0 0 1 -448.286 -248.903A 2.625 2.625 0 0 0 -448.538 -252.04C -449.3539798347164 -252.91774606803855 -450.18957738595475 -253.83610062926832 -451.0427297089255 -254.79640499494928 C -453.3141694166524 -257.35314339942397 -455.7096955762809 -260.2067463726696 -458.19731439025645 -263.37724550707486 A 528.5 528.5 0 0 1 -455.315 -268.329C -451.3300003278726 -267.7314107536132 -447.66558790414734 -267.05785518854907 -444.32059102624095 -266.3455732910179 C -443.0642161324888 -266.078037335891 -441.85298767335206 -265.8050465163672 -440.6867575855865 -265.5285929934585 A 2.625 2.625 0 0 0 -437.834 -266.859A 512.75 512.75 0 0 1 -437.394 -267.58A 2.625 2.625 0 0 0 -437.514 -270.725C -438.29237720579783 -271.6361123870061 -439.08851728230513 -272.5888764429747 -439.9004280663855 -273.58429305908606 C -442.0620652804399 -276.2345145912545 -444.3351638550122 -279.18656783953065 -446.6869139719776 -282.4591178410222 A 528.5 528.5 0 0 1 -443.599 -287.285C -439.6421483184871 -286.5199101667854 -436.0093882575013 -285.6924744595023 -432.6973923556291 -284.8398122985405 C -431.4534127443759 -284.5195497691639 -430.25476939154885 -284.195740441796 -429.10123038292903 -283.8703684646209 A 2.625 2.625 0 0 0 -426.195 -285.079A 512.75 512.75 0 0 1 -425.725 -285.781A 2.625 2.625 0 0 0 -425.712 -288.928C -426.4515067248138 -289.8715196109677 -427.20677381858775 -290.856999181953 -427.9759995160325 -291.88575823407695 C -430.0239909243327 -294.6247508967694 -432.1706204275353 -297.6700057771301 -434.38232052160515 -301.03878817123046 A 528.5 528.5 0 0 1 -431.094 -305.73C -427.1726286132551 -304.7989876356538 -423.57797982982686 -303.8191429366437 -420.30487351183774 -302.82761651445725 C -419.0755009334357 -302.45519682592084 -417.89157383105754 -302.081144711876 -416.7527768518447 -301.7074327799363 A 2.625 2.625 0 0 0 -413.798 -302.793A 512.75 512.75 0 0 1 -413.299 -303.474A 2.625 2.625 0 0 0 -413.153 -306.618C -413.85242102737055 -307.5915458513441 -414.5654723010803 -308.6079887906319 -415.29064525667087 -309.6682611827163 C -417.22134960523005 -312.49115514693267 -419.23769340814334 -315.624197307331 -421.3054111572619 -319.08322252188054 A 528.5 528.5 0 0 1 -417.822 -323.631C -413.94361156316216 -322.5361436275373 -410.3934652116488 -321.40563206491754 -407.16506794113064 -320.27700427930125 C -405.9524881751607 -319.8530895802205 -404.78538230241435 -319.42945973050735 -403.66335209207944 -319.00807228998 A 2.625 2.625 0 0 0 -400.666 -319.968A 512.75 512.75 0 0 1 -400.138 -320.627A 2.625 2.625 0 0 0 -399.86 -323.763C -400.5175208280595 -324.7646855481372 -401.1870885025617 -325.8102846572745 -401.8669193852468 -326.90018526369886 C -403.6769039521905 -329.80196152698653 -405.55937706911527 -333.01722053279553 -407.4794361465819 -336.56033854719294 A 528.5 528.5 0 0 1 -403.807 -340.958C -399.9786178777564 -339.6998421263647 -396.4792859888155 -338.42067370843785 -393.3013377383014 -337.1569512184076 C -392.1077067073367 -336.6822952136476 -390.9594971358728 -336.2098408266793 -389.85622862318354 -335.7415270890559 A 2.625 2.625 0 0 0 -386.821 -336.574A 512.75 512.75 0 0 1 -386.266 -337.211A 2.625 2.625 0 0 0 -385.856 -340.331C -386.4705150928046 -341.3604054856653 -387.0954087012086 -342.4333017275931 -387.72868879648786 -343.55089274485283 C -389.41473549530787 -346.5263920549103 -391.15999095773935 -349.818151292952 -392.92897756858304 -353.4390625726668 A 528.5 528.5 0 0 1 -389.075 -357.678C -385.30247680618646 -356.25956670255965 -381.8601810642153 -354.8340157440922 -378.7383321097217 -353.4374454021181 C -377.5657720461762 -352.9128920127337 -376.4385002507112 -352.392453095169 -375.35595500682155 -351.87804570518495 A 2.625 2.625 0 0 0 -372.288 -352.582A 512.75 512.75 0 0 1 -371.707 -353.195A 2.625 2.625 0 0 0 -371.166 -356.295C -371.7363788851857 -357.3491990795072 -372.31548738946 -358.44748488386057 -372.9010907484343 -359.5907792759112 C -374.46020184962896 -362.6347113035501 -376.06513665704455 -365.9971181460256 -377.67990560762684 -369.6893848429402 A 528.5 528.5 0 0 1 -373.65 -373.762C -369.9412819917008 -372.18587477014 -366.5621426729089 -370.6164758487134 -363.5019435479513 -369.0895407058985 C -362.35253922082774 -368.51602256867346 -361.24820944947635 -367.9485244419155 -360.18831220032456 -367.3889379971378 A 2.625 2.625 0 0 0 -357.094 -367.963A 512.75 512.75 0 0 1 -356.487 -368.551A 2.625 2.625 0 0 0 -355.816 -371.626C -356.3413089616866 -372.7026388381324 -356.873602728044 -373.824361492831 -357.41048816931146 -374.99132652396577 C -358.83989163023955 -378.09827926912317 -360.3016522671207 -381.5253554793708 -361.7593325571751 -385.28241287804013 A 528.5 528.5 0 0 1 -357.562 -389.181C -353.9223450781031 -387.45044993456065 -350.61237016888435 -385.739993384185 -347.61926179583105 -384.08540827549086 C -346.4950568040778 -383.4639450847438 -345.41563251487315 -382.85039673975217 -344.3802677190895 -382.2466261644587 A 2.625 2.625 0 0 0 -341.264 -382.69A 512.75 512.75 0 0 1 -340.633 -383.251A 2.625 2.625 0 0 0 -339.833 -386.295C -340.3126771948193 -387.3934269059431 -340.7972098243682 -388.53659202904186 -341.28442278520686 -389.72515287802145 C -342.58157717867806 -392.8896022920985 -343.8975646879563 -396.3752546536808 -345.1955646151224 -400.1904228431564 A 528.5 528.5 0 0 1 -340.837 -403.909C -337.2741471506469 -402.0261523382293 -334.039221665599 -400.1776792882316 -331.1185256819098 -398.39838600560057 C -330.02151882097655 -397.7300827002055 -328.9689191909135 -397.0715750035474 -327.95992768932115 -396.4246937797877 A 2.625 2.625 0 0 0 -324.828 -396.736A 512.75 512.75 0 0 1 -324.174 -397.27A 2.625 2.625 0 0 0 -323.246 -400.278C -323.6789819069325 -401.3954435978655 -324.11489191833965 -402.5580186834931 -324.5515661518851 -403.76606213250227 C -325.7141651847248 -406.98238193992097 -326.882039788633 -410.52041309014095 -328.0180515564082 -414.38690884060884 A 528.5 528.5 0 0 1 -323.507 -417.918C -320.0262880977047 -415.8870669141832 -316.8721636162879 -413.90386388218997 -314.02907291283674 -412.0030259441469 C -312.9612146208893 -411.28907074299246 -311.9373111336974 -410.58677449732164 -310.95648687636526 -409.8979327563048 A 2.625 2.625 0 0 0 -307.814 -410.077A 512.75 512.75 0 0 1 -307.138 -410.583A 2.625 2.625 0 0 0 -306.084 -413.549C -306.469797201234 -414.6837938391975 -306.8563095624067 -415.86371187127753 -307.2416686778071 -417.08909006314906 C -308.26764529136176 -420.35156176466506 -309.2853305514734 -423.93568121325103 -310.257334372391 -427.8466300363669 A 528.5 528.5 0 0 1 -305.601 -431.185C -302.20943398324573 -429.0085494621332 -299.14171842368444 -426.89414251076226 -296.3812879119892 -424.8751395377936 C -295.34447680210116 -424.1168018271731 -294.3510899208155 -423.3719656895854 -293.40017677747977 -422.6423881667891 A 2.625 2.625 0 0 0 -290.253 -422.689A 512.75 512.75 0 0 1 -289.556 -423.166A 2.625 2.625 0 0 0 -288.378 -426.085C -288.71572038011584 -427.23485142814167 -289.052147886181 -428.4300145554719 -289.38550672899214 -429.6705488124983 C -290.27303677428387 -432.97337185248375 -291.13872328334486 -436.5972071658514 -291.94499097008264 -440.54565553732994 A 528.5 528.5 0 0 1 -287.152 -443.684C -283.85526252369533 -441.36727046495116 -280.8794101723043 -439.12541893260095 -278.2065477970783 -436.9918406383133 C -277.2026272815668 -436.19046871500217 -276.24152321181055 -435.4044169769689 -275.32221187133837 -434.63540083460424 A 2.625 2.625 0 0 0 -272.176 -434.549A 512.75 512.75 0 0 1 -271.46 -434.997A 2.625 2.625 0 0 0 -270.16 -437.863C -270.44831754426673 -439.02630104233043 -270.7340620393959 -440.2345843084856 -271.0148279097605 -441.48806900602875 C -271.7623333907573 -444.8253710856484 -272.47448198974604 -448.48247921685515 -273.1135800277802 -452.46140693958284 A 528.5 528.5 0 0 1 -268.193 -455.395C -264.99640676611006 -452.94125656770075 -262.1177085797722 -450.575946384584 -259.53716659277796 -448.33158619332374 C -258.5679216056833 -447.4886048673572 -257.640809155419 -446.6627351001833 -256.7547341198253 -445.85564762088757 A 2.625 2.625 0 0 0 -253.615 -445.637A 512.75 512.75 0 0 1 -252.88 -446.054A 2.625 2.625 0 0 0 -251.461 -448.863C -251.70006746929576 -450.03717791465573 -251.9346209102041 -451.25643303608234 -252.1622946166507 -452.52063952409344 C -252.76844649588614 -455.88648704203797 -253.3257910105821 -459.57036578628555 -253.79658310692352 -463.5726984719742 A 528.5 528.5 0 0 1 -248.757 -466.297C -245.6663970678097 -463.7099296454613 -242.8899712668481 -461.22536624676616 -240.40633777756662 -458.87421454905007 C -239.4734916011053 -457.9911226104627 -238.58201914243634 -457.1269031804556 -237.73075582079895 -456.28317933631405 A 2.625 2.625 0 0 0 -234.603 -455.932A 512.75 512.75 0 0 1 -233.852 -456.318A 2.625 2.625 0 0 0 -232.315 -459.064C -232.50430385965643 -460.24790510785823 -232.68724921888568 -461.4759642934448 -232.86142596587266 -462.74864485892283 C -233.32514652742572 -466.1370534611352 -233.72669601962093 -469.84115301645204 -234.02834512310298 -473.8597746636438 A 528.5 528.5 0 0 1 -228.878 -476.369C -225.89960148062812 -473.6541433904815 -223.2303844487967 -471.0547442392618 -220.84807526693672 -468.6009812970077 C -219.95328646756812 -467.67934885103966 -219.09903900599352 -466.7783163088081 -218.28410091343306 -465.89945621002545 A 2.625 2.625 0 0 0 -215.174 -465.417A 512.75 512.75 0 0 1 -214.407 -465.771A 2.625 2.625 0 0 0 -212.755 -468.45C -212.89515608253603 -469.6403283216085 -213.02616808991368 -470.8750081269385 -213.14653819754113 -472.153899990282 C -213.46700296317596 -475.5588452099207 -213.71204349252707 -479.2765798224712 -213.8440132820518 -483.3043454685289 A 528.5 528.5 0 0 1 -208.593 -485.594C -205.73116464576992 -482.7562173536168 -203.17390215354357 -480.0466040867035 -200.89715293789277 -477.4945926008775 C -200.04201241744866 -476.53605827638467 -199.22650877378103 -475.5998146249072 -198.4493448404866 -474.687380852667 A 2.625 2.625 0 0 0 -195.362 -474.074A 512.75 512.75 0 0 1 -194.581 -474.395A 2.625 2.625 0 0 0 -192.818 -477.003C -192.90748848708472 -478.1977481701904 -192.98633420804268 -479.4368533796273 -193.05268366265193 -480.7196827177738 C -193.22932285770995 -484.13511068649507 -193.31741875109802 -487.85987035980935 -193.27947458919567 -491.88961878439954 A 528.5 528.5 0 0 1 -187.936 -493.956C -185.19694530791983 -490.9999683795232 -182.75618407468752 -488.18495859042287 -180.5890428022659 -485.53923594431626 C -179.77507096938498 -484.54550398034775 -178.9997610793426 -483.5757138266704 -178.26175307442648 -482.63132865492213 A 2.625 2.625 0 0 0 -175.203 -481.888A 512.75 512.75 0 0 1 -174.409 -482.176A 2.625 2.625 0 0 0 -172.538 -484.707C -172.57683841687756 -485.90494987339906 -172.60337766660123 -487.1462774030991 -172.6155885012833 -488.43076339229975 C -172.64808806772177 -491.85060160381437 -172.57908269386326 -495.575763851121 -172.37129204386898 -499.60033030860245 A 528.5 528.5 0 0 1 -166.946 -501.439C -164.3334525597055 -498.3707393797156 -162.0135321698692 -495.4553380531051 -159.95985193877368 -492.72060824503234 C -159.1884960056705 -491.69344546075575 -158.45475834194443 -490.6918330563812 -157.75721841670727 -489.7171755674969 A 2.625 2.625 0 0 0 -154.733 -488.846A 512.75 512.75 0 0 1 -153.927 -489.1A 2.625 2.625 0 0 0 -151.951 -491.55C -151.9393530258132 -492.7482303078651 -151.91353861848515 -493.9895731227802 -151.87158912282155 -495.2734319938209 C -151.75989127759738 -498.69160010058897 -151.53390732552876 -502.41054171935474 -151.15663963163533 -506.4227706774345 A 528.5 528.5 0 0 1 -145.658 -508.032C -143.17778092986217 -504.8554253923373 -140.98282611721407 -501.84481600538356 -139.04625829595057 -499.02594128514494 C -138.31888970532512 -497.9671739385064 -137.6280288267052 -496.9355201137378 -136.97219718167872 -495.9323232131644 A 2.625 2.625 0 0 0 -133.987 -494.934A 512.75 512.75 0 0 1 -133.172 -495.154A 2.625 2.625 0 0 0 -131.094 -497.518C -131.03172500979232 -498.71542237070804 -130.95360284248667 -499.95457340861367 -130.85756760114987 -501.23552250727363 C -130.6018709389556 -504.64594313114054 -130.21931019989688 -508.35205197888246 -129.6732362302964 -512.3448098408915 A 528.5 528.5 0 0 1 -124.112 -513.72C -121.76754443051274 -510.4424968823036 -119.70145774460931 -507.3420321886305 -117.88544548009281 -504.4440244126093 C -117.20335746675534 -503.3555349533136 -116.55660169867218 -502.2956739510034 -115.943644378588 -501.2657212862204 A 2.625 2.625 0 0 0 -113.003 -500.143A 512.75 512.75 0 0 1 -112.179 -500.328A 2.625 2.625 0 0 0 -110.004 -502.603C -109.89112736844554 -503.7959166122008 -109.76083633952489 -505.0306727077718 -109.61088609966932 -506.30643455329937 C -109.21164523983929 -509.70304409085236 -108.67318789282363 -513.3897308412863 -107.95927854710621 -517.3559186294536 A 528.5 528.5 0 0 1 -102.345 -518.496C -100.1408096808296 -515.1220202403942 -98.20726454840063 -511.937212753082 -96.51503664416573 -508.9652244733469 C -95.8794419357125 -507.84894819593046 -95.2779411863197 -506.762764410263 -94.70894800692426 -505.7078871995225 A 2.625 2.625 0 0 0 -91.8186 -504.462A 512.75 512.75 0 0 1 -90.9875 -504.613A 2.625 2.625 0 0 0 -88.7179 -506.793C -88.55514731289571 -507.9806800989846 -88.37291907505475 -509.2088459009431 -88.16932044273474 -510.4771522353331 C -87.6272452209482 -513.8539116387669 -86.93384862348876 -517.5146214973889 -86.05337320641833 -521.4471874745652 A 528.5 528.5 0 0 1 -80.3959 -522.349C -78.33602822597359 -518.8856754448487 -76.53846241970368 -515.6221876353864 -74.9730275952096 -512.581502938642 C -74.38505625583751 -511.43942454158974 -73.82987997151687 -510.3288491676979 -73.30586258191886 -509.2509229441849 A 2.625 2.625 0 0 0 -70.4706 -507.884A 512.75 512.75 0 0 1 -69.6339 -508A 2.625 2.625 0 0 0 -67.2744 -510.083C -67.06171943706663 -511.26227247429443 -66.82787798546218 -512.481664348664 -66.5709929516161 -513.7402601695383 C -65.88704715783541 -517.0911656838618 -65.03994414377829 -520.7193900421335 -63.99446810851525 -524.6113422495225 A 528.5 528.5 0 0 1 -58.304 -525.274C -56.39196817164849 -521.7267708540603 -54.733577697942586 -518.3904050846786 -53.297719239179884 -515.286430197352 C -52.75841666047348 -514.1205802543761 -52.2505519243985 -512.9875878547465 -51.77244200839367 -511.88852913194955 A 2.625 2.625 0 0 0 -48.9973 -510.404A 512.75 512.75 0 0 1 -48.1565 -510.484A 2.625 2.625 0 0 0 -45.7113 -512.465C -45.4490582713622 -513.6348591866423 -45.16401936756163 -514.8433090991696 -44.85430466440515 -516.0899566690886 C -44.02970432929243 -519.4090505065819 -43.03040101688329 -522.998338513999 -41.82178318166576 -526.8427572026051 A 528.5 528.5 0 0 1 -36.1085 -527.265C -34.34764525582665 -523.6402551040717 -32.83137867242736 -520.2369433113547 -31.527649483336905 -517.0751969875222 C -31.037974525600355 -515.8876483372758 -30.57832430273827 -514.7342533310485 -30.146971922309582 -513.6160161952689 A 2.625 2.625 0 0 0 -27.4369 -512.015A 512.75 512.75 0 0 1 -26.5934 -512.06A 2.625 2.625 0 0 0 -24.0669 -513.937C -23.755590338624497 -515.0942218634364 -23.419860771396856 -516.2895812342769 -23.057867060369745 -517.5220640593552 C -22.09407829322868 -520.803444992299 -20.944351407289414 -524.3474150257684 -19.574740650522312 -528.1374649594576 A 528.5 528.5 0 0 1 -13.8487 -528.319C -12.242253480189238 -524.6227260897151 -10.87080665374872 -521.158519237833 -9.701524717251715 -517.9446229470768 C -9.262348004690168 -516.737487007723 -8.851729536363198 -515.5657400891284 -8.467901620301724 -514.4303127251854 A 2.625 2.625 0 0 0 -5.82775 -512.717A 512.75 512.75 0 0 1 -4.98313 -512.726A 2.625 2.625 0 0 0 -2.37969 -514.494C -2.0198858331771667 -515.6377658110938 -1.6340625174411967 -516.8179093349084 -1.2204334101514336 -518.0340361056601 C -0.11916979223844759 -521.2718699585031 1.1789364947847343 -524.7642209686352 2.707105055157089 -528.4931635769358 A 528.5 528.5 0 0 1 8.43569 -528.433C 9.884904575379778 -524.6724370134312 11.109093262452333 -521.1534943357475 12.1418490057434 -517.8931622683879 C 12.529746632961892 -516.6685852835745 12.890603282101761 -515.4805697758733 13.226224301768296 -514.3299709321852 A 2.625 2.625 0 0 0 15.7918 -512.507A 512.75 512.75 0 0 1 16.636 -512.48A 2.625 2.625 0 0 0 19.3117 -514.137C 19.719409955569848 -515.2645246283114 20.154641040038616 -516.4273540529817 20.619170126132843 -517.6249625403885 C 21.85595058829352 -520.8134925626986 23.300128290794095 -524.248015276844 24.984137626838827 -527.9092206358786 A 528.5 528.5 0 0 1 30.7051 -527.607C 31.994487631343656 -523.7892994910121 33.06924161623696 -520.2218775391908 33.963634964298876 -516.9209064466642 C 34.29956383834867 -515.6810656695819 34.610017078348015 -514.4788938209924 34.89683447969446 -513.3151692203145 A 2.625 2.625 0 0 0 37.3833 -511.385A 512.75 512.75 0 0 1 38.2256 -511.323A 2.625 2.625 0 0 0 40.9688 -512.866C 41.42364535303595 -513.9751619242912 41.90751038125223 -515.1186097815355 42.422113530387904 -516.295570681411 C 43.79221188626838 -519.4291277831675 45.37989330899369 -522.7997157452763 47.21674931356586 -526.3866743655251 A 528.5 528.5 0 0 1 52.9199 -525.844C 54.04718565587358 -521.9748837087442 54.97059406522349 -518.3653252288296 55.72503481932252 -515.0295841172762 C 56.0083976709246 -513.7766839395811 56.267895527252065 -512.5624931677793 56.50539935940567 -511.38771186998355 A 2.625 2.625 0 0 0 58.9083 -509.355A 512.75 512.75 0 0 1 59.7473 -509.257A 2.625 2.625 0 0 0 62.5531 -510.683C 63.05423102073814 -511.77197013886854 63.58586969833945 -512.8940034201241 64.14963196489683 -514.0482241389395 C 65.65061222961936 -517.1212369699683 67.37897453293905 -520.421897397647 69.36541134309496 -523.9282317975819 A 528.5 528.5 0 0 1 75.0406 -523.146C 76.00378975665208 -519.2324156316745 76.77421080400472 -515.5871382869207 77.38735759601187 -512.2225579823053 C 77.61765061635688 -510.9588260147912 77.82573171129377 -509.73477510666004 78.01349970110819 -508.5510258300227 A 2.625 2.625 0 0 0 80.3285 -506.419A 512.75 512.75 0 0 1 81.1627 -506.286A 2.625 2.625 0 0 0 84.0261 -507.592C 84.57270856672392 -508.6588664666365 85.15117565954257 -509.75749023767594 85.7630946947851 -510.88691861311383 C 87.3922881802143 -513.893923468745 89.25825839902623 -517.118787908204 91.39074420260845 -520.5382639532187 A 528.5 528.5 0 0 1 97.0279 -519.517C 97.82526189285005 -515.5667712679635 98.44132579769821 -511.892256228462 98.91208847499287 -508.5048188317828 C 99.0889022114947 -507.2325019437708 99.24519658444771 -506.0007672171554 99.38289488728928 -504.8101546246918 A 2.625 2.625 0 0 0 101.606 -502.582A 512.75 512.75 0 0 1 102.434 -502.414A 2.625 2.625 0 0 0 105.35 -503.599C 105.94081892319042 -504.6413858923179 106.5650859378454 -505.7146468401683 107.22407377205917 -506.81727478979354 C 108.97858383163211 -509.7529253251283 110.97884433898207 -512.8962600850793 113.25358765405265 -516.2227980715529 A 528.5 528.5 0 0 1 118.843 -514.965C 119.4728042833404 -510.98446799951955 119.93341570654329 -507.28724841891636 120.26095727026475 -503.88297667024693 C 120.38397735455237 -502.60433699473305 120.48820711983007 -501.3671084290278 120.57559091314134 -500.1717493864782 A 2.625 2.625 0 0 0 122.703 -497.852A 512.75 512.75 0 0 1 123.523 -497.649A 2.625 2.625 0 0 0 126.486 -498.71C 127.12057036971002 -499.7266713497641 127.78952738223065 -500.77266125562676 128.4944123590949 -501.84652834718304 C 130.371119537953 -504.7056050827004 132.50211394365445 -507.76182142864997 134.9150703596114 -510.9895068934377 A 528.5 528.5 0 0 1 140.446 -509.497C 140.90792838773635 -505.49365299433185 141.21226837899258 -501.7803023941188 141.39600647219356 -498.3652489643961 C 141.46501417904645 -497.08255987606196 141.51699401992983 -495.8420372185064 141.5539079385152 -494.6440570306264 A 2.625 2.625 0 0 0 143.581 -492.237A 512.75 512.75 0 0 1 144.392 -491.999A 2.625 2.625 0 0 0 147.397 -492.934C 148.07430608112446 -493.9234610220788 148.7867637103547 -494.94032015407237 149.5362925701039 -495.9835170910595 C 151.53186015136987 -498.76093669266 153.78979962513588 -501.7246007834756 156.33667899352767 -504.84769501960903 A 528.5 528.5 0 0 1 161.8 -503.123C 162.0925233376132 -499.10408872110304 162.2400507915246 -495.381209303136 162.27965873458055 -491.9614460327325 C 162.29453137081424 -490.67698810596806 162.29416886904312 -489.435376960577 162.28054728130246 -488.2369055924226 A 2.625 2.625 0 0 0 164.205 -485.746A 512.75 512.75 0 0 1 165.005 -485.475A 2.625 2.625 0 0 0 168.047 -486.282C 168.76477108000324 -487.2420728054482 169.51946260227808 -488.22799322514413 170.31230270995218 -489.23866524147763 C 172.42318264729073 -491.92948955846606 174.80405265513593 -494.79533210754715 177.48032671738886 -497.8082823674455 A 528.5 528.5 0 0 1 182.866 -495.855C 182.98892369623923 -491.8271355919367 182.9793763143765 -488.1013464999617 182.87478368581003 -484.6829536031747 C 182.83549480842007 -483.39901055730013 182.78279060850934 -482.1585184633798 182.71865773312854 -480.9616867533079 A 2.625 2.625 0 0 0 184.536 -478.392A 512.75 512.75 0 0 1 185.324 -478.087A 2.625 2.625 0 0 0 188.397 -478.766C 189.1551784746352 -479.69438596429757 189.95076207596892 -480.647614741169 190.78550379078962 -481.6239648988863 C 193.00794301670453 -484.2234097438232 195.5075104586401 -486.9863353877007 198.30842089713676 -489.8837847557536 A 528.5 528.5 0 0 1 203.607 -487.705C 203.5599764263488 -483.67573176393887 203.3933711836085 -479.9536573149962 203.14476394529635 -476.5427125696488 C 203.05138340847296 -475.2615672085445 202.94643121656674 -474.0243997157687 202.83190107945782 -472.83133558688377 A 2.625 2.625 0 0 0 204.539 -470.187A 512.75 512.75 0 0 1 205.314 -469.85A 2.625 2.625 0 0 0 208.413 -470.398C 209.20927486478072 -471.29382001039244 210.04433602656349 -472.21266233846023 210.919495208224 -473.15295472261084 C 213.24954230687513 -475.6563983774235 215.863363043206 -478.31149473513017 218.7839299414004 -481.0882916520978 A 528.5 528.5 0 0 1 223.986 -478.688C 223.76910694688826 -474.664370135646 223.44574006131205 -470.9526280422761 223.05356022785148 -467.5551959836499 C 222.90625405878137 -466.2791261370152 222.74924047604682 -465.04748288403823 222.58451670761406 -463.8603075608228 A 2.625 2.625 0 0 0 224.179 -461.147A 512.75 512.75 0 0 1 224.938 -460.777A 2.625 2.625 0 0 0 228.058 -461.194C 228.89140479889204 -462.0553108434371 229.76445881285204 -462.9381330545732 230.6784794602646 -463.84069585961225 C 233.11199169294096 -466.2436872928406 235.83541844578411 -468.78623369994483 238.87044914231151 -471.4374411222425 A 528.5 528.5 0 0 1 243.967 -468.82C 243.58038416128358 -464.80907257918165 243.10083056739333 -461.1142621833741 242.56577542021643 -457.7363833216868 C 242.36480552389256 -456.46765779514135 242.15600971474993 -455.24372859872045 241.9413851878423 -454.06455283557574 A 2.625 2.625 0 0 0 243.42 -451.286A 512.75 512.75 0 0 1 244.163 -450.885A 2.625 2.625 0 0 0 247.298 -451.17C 248.16657416820595 -451.9952841955897 249.07606877616678 -452.84051666411966 250.02732579397562 -453.70374516631693 C 252.55997646473364 -456.0020119468851 255.38816708070857 -458.4274878486602 258.53226540174796 -460.9483920262415 A 528.5 528.5 0 0 1 263.514 -458.119C 262.9585843416201 -454.1273614539521 262.32369666820546 -450.45605199375586 261.6467175158381 -447.10373207435464 C 261.3924412094022 -445.84460661558506 261.13223440518055 -444.6305675771667 260.8680907143746 -443.4614879055678 A 2.625 2.625 0 0 0 262.228 -440.623A 512.75 512.75 0 0 1 262.954 -440.191A 2.625 2.625 0 0 0 266.098 -440.343C 267.00051242499353 -441.131626427109 267.94483057873236 -441.9377663605487 268.93163266667415 -442.7601257711292 C 271.5589188150453 -444.94958166457195 274.4868448744459 -447.2536746533775 277.73442072792005 -449.63979351061016 A 528.5 528.5 0 0 1 282.592 -446.603C 281.869253755147 -442.6382284525298 281.0801608093222 -438.99694738218795 280.2624612959924 -435.67614670755324 C 279.9553306734379 -434.4288599956759 279.6441755123394 -433.22686963236646 279.33098229547795 -432.06996463330637 A 2.625 2.625 0 0 0 280.57 -429.177A 512.75 512.75 0 0 1 281.277 -428.714A 2.625 2.625 0 0 0 284.424 -428.734C 285.35973351434086 -429.48365272506004 286.3371962506414 -430.24926683602644 287.357788910615 -431.02929502996835 C 290.07503931770503 -433.1060472636071 293.0974950748466 -435.2846607461922 296.4427743894019 -437.53175185082466 A 528.5 528.5 0 0 1 301.168 -434.293C 300.27876992175356 -430.3621008341185 299.3368746819801 -426.7573222184928 298.37990864758206 -423.4739450510381 C 298.0204697759479 -422.2407147163095 297.658919480494 -421.05291012311073 297.2972335836873 -419.9102367314588 A 2.625 2.625 0 0 0 298.414 -416.967A 512.75 512.75 0 0 1 299.1 -416.475A 2.625 2.625 0 0 0 302.246 -416.363C 303.21159541113377 -417.0720727616157 304.2204648369214 -417.79579981615905 305.273033492422 -418.53210993179925 C 308.07541698616774 -420.49246611594936 311.1870286250126 -422.54172659704625 314.624063616107 -424.6457947030977 A 528.5 528.5 0 0 1 319.209 -421.21C 318.15440139351387 -417.3208051056313 317.0613785151554 -413.7589381095511 315.96684741037586 -410.5188221740598 C 315.5557393588586 -409.3018408550108 315.1444367522806 -408.13033390514283 314.7349012398542 -407.00392375248975 A 2.625 2.625 0 0 0 315.726 -404.017A 512.75 512.75 0 0 1 316.391 -403.496A 2.625 2.625 0 0 0 319.529 -403.251C 320.52435815638864 -403.91895387301474 321.56284053864107 -404.599507110843 322.64551376101053 -405.29079001566595 C 325.5280478058275 -407.1312647085714 328.7232829944338 -409.0475286778283 332.24596273928086 -411.00483282898983 A 528.5 528.5 0 0 1 336.682 -407.379C 335.4643659500075 -403.5375282149566 334.22215878785397 -400.0249057079577 332.99200864905447 -396.83381181232164 C 332.5299623527673 -395.63524325732624 332.0696387160899 -394.4821168473941 331.6129817272397 -393.3739726498852 A 2.625 2.625 0 0 0 332.478 -390.348A 512.75 512.75 0 0 1 333.12 -389.799A 2.625 2.625 0 0 0 336.245 -389.422C 337.2672402897389 -390.0476818246445 338.3334892446777 -390.6838512469361 339.4443420804367 -391.3288778651642 C 342.4019016359855 -393.0461987699853 345.6750793627917 -394.82605917999524 349.2771406653583 -396.633119360914 A 528.5 528.5 0 0 1 353.556 -392.824C 352.1778871059451 -389.03677632541326 350.788704258999 -385.579643622127 349.42512224823446 -382.44324541483996 C 348.9129592086306 -381.26522063504956 348.4044329804814 -380.132524981729 347.9014664346687 -379.04461697930805 A 2.625 2.625 0 0 0 348.638 -375.985A 512.75 512.75 0 0 1 349.257 -375.41A 2.625 2.625 0 0 0 352.363 -374.901C 353.4104735777491 -375.48291923200264 354.50259335364314 -376.07357375274074 355.63965074698797 -376.6711972505855 C 358.6669773803091 -378.26231103342394 362.012278054765 -379.9026033573302 365.68731658150506 -381.55620668094963 A 528.5 528.5 0 0 1 369.802 -377.57C 368.26524883063774 -373.84433124468507 366.7315602153056 -370.44883500089674 365.23697073162987 -367.3727088835147 C 364.6756015559035 -366.2173223639981 364.11977687735833 -365.1070713588253 363.57139503074694 -364.0413338122195 A 2.625 2.625 0 0 0 364.178 -360.953A 512.75 512.75 0 0 1 364.772 -360.353A 2.625 2.625 0 0 0 367.854 -359.713C 368.92535594074906 -360.25056171146656 370.04140478849143 -360.7946511684679 371.20264509287136 -361.34380899315937 C 374.2943563276871 -362.80588671177367 377.70583212727354 -364.3036945696835 381.4473137938 -365.80090098963916 A 528.5 528.5 0 0 1 385.39 -361.645C 383.697848382016 -357.98720458570705 382.0223808406868 -354.6593818698262 380.39944120965987 -351.64899708232866 C 379.7898639917193 -350.51830305815406 379.187729098773 -349.4324706868999 378.594906954274 -348.39079843857513 A 2.625 2.625 0 0 0 379.071 -345.28A 512.75 512.75 0 0 1 379.639 -344.655A 2.625 2.625 0 0 0 382.691 -343.886C 383.7843024840816 -344.37769183883336 384.922296109549 -344.8742488608989 386.1056546820801 -345.3739646298652 C 389.2562535686407 -346.7044067634272 392.72783901388107 -348.05706710762894 396.5291116023286 -349.3952146455436 A 528.5 528.5 0 0 1 400.293 -345.076C 398.4482471612589 -341.4935897410049 396.6339796140783 -338.23935730037806 394.88557536313823 -335.3000661970593 C 394.2288739090316 -334.19607500093923 393.5814993755501 -333.1365918339344 392.9452909493026 -332.12083693913445 A 2.625 2.625 0 0 0 393.29 -328.992A 512.75 512.75 0 0 1 393.831 -328.344A 2.625 2.625 0 0 0 396.848 -327.448C 397.96089454304007 -327.8925309974884 399.11880963509526 -328.34067272435374 400.3221825074198 -328.7900579611937 C 403.52606739587986 -329.98649903214186 407.0515901345411 -331.191606881906 410.9058951209673 -332.36831636029046 A 528.5 528.5 0 0 1 414.485 -327.895C 412.49021949762306 -324.39281175587126 410.540377646082 -321.2179554970212 408.6696173741823 -318.3549840301994 C 407.96695927513014 -317.27965851819255 407.2754961094093 -316.2484082778443 406.597032556778 -315.2603767117042 A 2.625 2.625 0 0 0 406.809 -312.12A 512.75 512.75 0 0 1 407.323 -311.45A 2.625 2.625 0 0 0 410.299 -310.427C 411.4299266542906 -310.82438920181374 412.6057044821557 -311.2233188538425 413.8269521012215 -311.6215745680046 C 417.07842660116864 -312.68188734777635 420.6516183824783 -313.7373000653242 424.55210295327254 -314.75047933766734 A 528.5 528.5 0 0 1 427.939 -310.13C 425.7987992767289 -306.7152751895042 423.7168498684838 -303.6254398909992 421.72705971911824 -300.8438783194638 C 420.9796942755785 -299.7991303810887 420.2453718738934 -298.79794659269095 419.52585947831574 -297.83939503927905 A 2.625 2.625 0 0 0 419.605 -294.693A 512.75 512.75 0 0 1 420.09 -294.001A 2.625 2.625 0 0 0 423.021 -292.854C 424.16745137026476 -293.20361298505446 425.35900144386954 -293.55262127988357 426.59595247597673 -293.8990393872414 C 429.8892355844062 -294.8213386784085 433.5037434037736 -295.72517977844325 437.44347263970934 -296.573027448973 A 528.5 528.5 0 0 1 440.633 -291.814C 438.35032432939903 -288.49241005681256 436.139968994521 -285.4930893330558 434.0346867419618 -282.7978831717736 C 433.2439427424195 -281.7855703307387 432.4680667032027 -280.816233062531 431.7087847314608 -279.8888657915288 A 2.625 2.625 0 0 0 431.656 -276.742A 512.75 512.75 0 0 1 432.111 -276.03A 2.625 2.625 0 0 0 434.991 -274.761C 436.15082183684774 -275.0615314442895 437.3560256236445 -275.35999785790705 438.6064808149981 -275.65396243970764 C 441.9357171947249 -276.4366084277878 445.58511458915154 -277.1872709138176 449.5570837954199 -277.8682795403161 A 528.5 528.5 0 0 1 452.543 -272.979C 450.12247850213214 -269.75661594699574 447.78764717174425 -266.8531424807799 445.57061593100843 -264.2490837079494 C 444.7378992894381 -263.2710058195437 443.9218490919733 -262.33523851781496 443.1241475197044 -261.44070435438795 A 2.625 2.625 0 0 0 442.938 -258.299A 512.75 512.75 0 0 1 443.363 -257.569A 2.625 2.625 0 0 0 446.187 -256.179C 447.3587320586596 -256.43040053843833 448.575446750297 -256.6777944084528 449.8371828371997 -256.9187828063974 C 453.19645322743446 -257.5603839753849 456.8742517015305 -258.1565331969034 460.87139886183184 -258.669491970885 A 528.5 528.5 0 0 1 463.648 -253.659C 461.0943313344112 -250.54120441825452 458.6391752534137 -247.7387404794461 456.3143368251412 -245.23045901653543 C 455.44112808134315 -244.28835506755152 454.58635463310134 -243.3878214924152 453.7516517445905 -242.52771088566163 A 2.625 2.625 0 0 0 453.433 -239.396A 512.75 512.75 0 0 1 453.827 -238.649A 2.625 2.625 0 0 0 456.59 -237.141C 457.77125478033616 -237.343345738346 458.99731710249404 -237.53922720748477 460.26809076422785 -237.72681095299615 C 463.65142250480665 -238.2262265594265 467.35108306709907 -238.6668025848732 471.36630139965024 -239.01079948435702 A 528.5 528.5 0 0 1 473.929 -233.887C 471.2463752722959 -230.88033977105937 468.67525961860497 -228.1838680382712 466.2467474806807 -225.77582351818674 C 465.33459916793555 -224.8713685350657 464.4426222249144 -224.00766980235522 463.5724020914365 -223.18351199754593 A 2.625 2.625 0 0 0 463.123 -220.068A 512.75 512.75 0 0 1 463.484 -219.305A 2.625 2.625 0 0 0 466.181 -217.682C 467.3698769164624 -217.8343031309035 468.6031069750746 -217.9783239290627 469.88065882244325 -218.11216950508688 C 473.28203647299927 -218.46851160623697 476.9969812620201 -218.75273110751658 481.0231318551533 -218.92715451856884 A 528.5 528.5 0 0 1 483.368 -213.7C 480.56056035214317 -210.80897830526942 477.8780564755632 -208.22329300684004 475.3501884339448 -205.91976684486164 C 474.4007223186655 -205.05456891555718 473.47312778331883 -204.2292406501004 472.5689376245143 -203.4425009697363 A 2.625 2.625 0 0 0 471.988 -200.349A 512.75 512.75 0 0 1 472.318 -199.571A 2.625 2.625 0 0 0 474.943 -197.836C 476.1375324671631 -197.9379590819224 477.37573762418964 -198.02986314537864 478.6577962166304 -198.10973257936587 C 482.0711722518274 -198.32236761198388 485.79479623131124 -198.44972525719513 489.8247207361981 -198.45426506135624 A 528.5 528.5 0 0 1 491.947 -193.133C 489.02032629278403 -190.36280616910554 486.231203587315 -187.89250455913614 483.608474099131 -185.69759234071728 C 482.62337829742154 -184.8731897555741 481.66181539898247 -184.08769936090815 480.725262831957 -183.33977659943048 A 2.625 2.625 0 0 0 480.015 -180.274A 512.75 512.75 0 0 1 480.311 -179.483A 2.625 2.625 0 0 0 482.861 -177.638C 484.05863286082706 -177.6896885650448 485.2996116326847 -177.7293124917271 486.58389751680613 -177.75506377873845 C 490.003203078618 -177.82361368549607 493.7288857810155 -177.79388303739344 497.7554191389505 -177.6285311630572 A 528.5 528.5 0 0 1 499.652 -172.223C 496.6106319390981 -169.57817591048408 493.7198493631268 -167.22765009508845 491.00692154569583 -165.14525429405452 C 489.9879475219427 -164.36311281078397 488.9941258841543 -163.61885686016578 488.02687606519453 -162.91108079695047 A 2.625 2.625 0 0 0 487.188 -159.878A 512.75 512.75 0 0 1 487.45 -159.075A 2.625 2.625 0 0 0 489.921 -157.125C 491.1190946700191 -157.12549226632945 492.3606406417385 -157.11276560634215 493.64487040410626 -157.08435296152902 C 497.06402609202473 -157.00869586319368 500.78514338945246 -156.82192978178452 504.8011265710654 -156.48698021854938 A 528.5 528.5 0 0 1 506.468 -151.006C 503.3179820046392 -148.4920418435112 500.3306792640924 -146.26547097181134 497.5323766040711 -144.29929401190367 C 496.481336056903 -143.56080424952037 495.45702265836974 -142.85910600286996 494.4607953223558 -142.19273503792857 A 2.625 2.625 0 0 0 493.494 -139.197A 512.75 512.75 0 0 1 493.723 -138.384A 2.625 2.625 0 0 0 496.109 -136.331C 497.30636465129993 -136.28193257634652 498.54627039945103 -136.21687795722673 499.828160726413 -136.13435189723472 C 503.24108740640025 -135.91462230936625 506.95102328809816 -135.57115285792767 510.94931602184744 -135.06720113389375 A 528.5 528.5 0 0 1 512.383 -129.521C 509.1304510657622 -127.14189434506197 506.051939475897 -125.04323717881353 503.1732372532963 -123.19677485091516 C 502.0919988944505 -122.50324981726689 501.03901492701465 -121.84535686845973 500.01558132979477 -121.22157578504999 A 2.625 2.625 0 0 0 498.924 -118.27A 512.75 512.75 0 0 1 499.118 -117.448A 2.625 2.625 0 0 0 501.415 -115.296C 502.6094420644351 -115.19606858357987 503.8455030818456 -115.0788016700663 505.1227748191805 -114.94230892321848 C 508.5234044321475 -114.57889751700554 512.2155627675045 -114.07933537168795 516.1890562348194 -113.40727749462982 A 528.5 528.5 0 0 1 517.388 -107.805C 514.0377047645911 -105.56569319825677 510.87345780667005 -103.59868107331502 507.9194742489893 -101.87521632006197 C 506.80996048081016 -101.22788907734974 505.7301781115394 -100.61497113604032 504.68135788070117 -100.0348889941649 A 2.625 2.625 0 0 0 503.466 -97.1316A 512.75 512.75 0 0 1 503.625 -96.3021A 2.625 2.625 0 0 0 505.83 -94.0556C 507.0188982313091 -93.90539018472242 508.24891684659775 -93.73611947310785 509.519299051768 -93.54590271852709 C 512.9015854023621 -93.03945562618796 516.5694016685959 -92.3846889902552 520.5110311430961 -91.5457198545529 A 528.5 528.5 0 0 1 521.473 -85.8981C 518.0310181831296 -83.8018001013545 514.7866617727711 -81.9699302934954 511.762648954976 -80.37252737232456 C 510.6268324524539 -79.77254884476302 509.5221714949962 -79.20569565668376 508.4498293946355 -78.67034382122199 A 2.625 2.625 0 0 0 507.113 -75.8209A 512.75 512.75 0 0 1 507.237 -74.9854A 2.625 2.625 0 0 0 509.345 -72.648C 510.5268932997716 -72.44775142900698 511.74868258472736 -72.2267778764395 513.0099165645323 -71.98317531257383 C 516.3678460710519 -71.33459297855693 520.0047990246909 -70.52578600319328 523.9075564330127 -69.52139726535358 A 528.5 528.5 0 0 1 524.63 -63.8383C 521.1032913558478 -61.88891046205211 517.784593840353 -60.19543996894361 514.6959283468783 -58.72693900395477 C 513.5358285503054 -58.175375931470896 512.4082530515307 -57.65559534090403 511.31429566676894 -57.16592564788275 A 2.625 2.625 0 0 0 509.859 -54.3753A 512.75 512.75 0 0 1 509.948 -53.5353A 2.625 2.625 0 0 0 511.955 -51.1112C 513.1271901826083 -50.861303215086544 514.3385778404693 -50.5890197044786 515.5884211669188 -50.29246444779681 C 518.9160235532424 -49.502900027823266 522.5156468246583 -48.541490742315155 526.372593206553 -47.373468168860754 A 528.5 528.5 0 0 1 526.855 -41.6649C 523.2490618931607 -39.86598459846012 519.8619237956029 -38.313924348839116 516.7140971609815 -36.97693628115801 C 515.5317766854605 -36.47476932276649 514.3832914334571 -36.00298548063369 513.2696637806026 -35.55986854489759 A 2.625 2.625 0 0 0 511.698 -32.8331A 512.75 512.75 0 0 1 511.751 -31.9901A 2.625 2.625 0 0 0 513.655 -29.4835C 514.8151656468538 -29.18442546013154 516.0139978745716 -28.86131610162856 517.2502283718422 -28.512335416554834 C 520.541587282361 -27.583192727349783 524.0974808727383 -26.470890482322112 527.9017587182905 -25.14131077476396 A 528.5 528.5 0 0 1 528.143 -19.4175C 524.464514693359 -17.772178469081688 521.0149582216688 -16.364287969432667 517.8135671667833 -15.161189915052931 C 516.6111281349732 -14.709311905280193 515.4437750946074 -14.28636362603596 514.3124571629874 -13.890587293326096 A 2.625 2.625 0 0 0 512.627 -11.2325A 512.75 512.75 0 0 1 512.645 -10.388A 2.625 2.625 0 0 0 514.441 -7.80339" stroke="#191919" stroke-width="0.35 px" style="stroke-width:0.35;stroke-miterlimit:4;stroke-dasharray:none;fill:none;fill-rule: evenodd "/>
<title>b'InvoluteGear'</title>
</g>
</svg>