<?xml version="1.0"?>
<!DOCTYPE svg PUBLIC "-//W3C//DTD SVG 1.1//EN" "http://www.w3.org/Graphics/SVG/1.1/DTD/svg11.dtd">
<svg width="449.63391235891265mm" height="449.7801061686876mm" viewBox="0 0 449.63391235891265 449.7801061686876" xmlns="http://www.w3.org/2000/svg" version="1.1">
<g id="InvoluteGear" transform="translate(224.741625,224.890053) scale(1,-1)">
<path id="InvoluteGear_w0000"  d="M 206.3662700957759 -7.430515914610501 C 207.43551341395198 -7.21027710733772 208.64399322537187 -6.924064904555101 209.9853262910755 -6.552702908909245 C 212.8960469883495 -5.746665800171543 216.42363543663242 -4.542859185949317 220.48411180795313 -2.752196221429422 A 220.5 220.5 0 0 1 220.484 2.7522C 216.42363543663242 4.542859185949317 212.8960469883495 5.746665800171543 209.9853262910755 6.552702908909245 C 208.64399322537187 6.924064904555101 207.43551341395198 7.21027710733772 206.36633076021488 7.430498192556656 A 2.625 2.625 0 0 0 204.508 9.95684A 204.75 204.75 0 0 1 204.448 11.1236A 2.625 2.625 0 0 0 206.037 13.8277C 207.0774472727196 14.156664589107292 208.25009336673872 14.565616930845103 209.5461333896606 15.07292786503098 C 212.35854936593776 16.173976081315182 215.74366456022938 17.734112532488734 219.59850215016917 19.93278698991621 A 220.5 220.5 0 0 1 219.033 25.408C 214.80946193752152 26.771675466885494 211.17679355036014 27.606391594573672 208.19862249558275 28.108873401893742 C 206.8262148512784 28.340349929461702 205.59471150909332 28.500788072738388 204.50855230483884 28.609907532234157 A 2.625 2.625 0 0 0 202.4 30.9318A 204.75 204.75 0 0 1 202.22 32.0862A 2.625 2.625 0 0 0 203.523 34.9392C 204.5243086755696 35.373542119142684 205.64869071187124 35.90089960327786 206.8856993453515 36.53878185389722 C 209.5699982916362 37.92316979272664 212.77675716875913 39.82309824635265 216.38509373989353 42.40647770047293 A 220.5 220.5 0 0 1 215.259 47.7945C 210.91825470354647 48.71670532786097 207.21901356611247 49.1734827704086 204.20496150789438 49.36708284415063 C 202.8160271474339 49.45622019486387 201.57455451627288 49.489183594403556 200.48293231927087 49.486044734759766 A 2.625 2.625 0 0 0 198.147 51.5788A 204.75 204.75 0 0 1 197.849 52.7086A 2.625 2.625 0 0 0 198.852 55.6805C 199.80316152677824 56.21545130281 200.86736077606412 56.85562380881955 202.0322254208562 57.61731566532936 C 204.5599531005426 59.27036847015708 207.55436321865128 61.489949211980345 210.87794950567744 64.43064919791031 A 220.5 220.5 0 0 1 209.204 69.6743C 204.79126149940626 70.1453259930663 201.06466048801968 70.21932279594947 198.04667712798624 70.10198892716974 C 196.65593910111687 70.04784222293591 195.41765709971236 69.95298145850316 194.3321433768148 69.8376175524129 A 2.625 2.625 0 0 0 191.793 71.6791A 204.75 204.75 0 0 1 191.381 72.7723A 2.625 2.625 0 0 0 192.072 75.8315C 192.96405116060632 76.46146271790353 193.95678684609229 77.2076642579675 195.03715964717708 78.08509159720202 C 197.38152151803558 79.98928649706558 200.13184138495618 82.50499141905584 203.13544654642033 85.7718397853843 A 220.5 220.5 0 0 1 200.931 90.8156C 196.49342997728192 90.83038875263472 192.77897198973307 90.52082053133462 189.78904870228683 90.09379648823145 C 188.4112491780684 89.89693969758558 187.18928390368373 89.67526031688196 186.12138537039746 89.44889425044893 A 2.625 2.625 0 0 0 183.407 91.0196A 204.75 204.75 0 0 1 182.884 92.0646A 2.625 2.625 0 0 0 183.257 95.1786C 184.07947384830638 95.89696360680634 184.99022272476262 96.74128425896691 185.97465146168335 97.72514613285196 C 188.11079670467404 99.86029818810462 190.58787224561792 102.64546019225484 193.2396573195992 106.20382753360214 A 220.5 220.5 0 0 1 190.528 110.994C 186.1127192155663 110.55262679547475 182.44977843057194 109.86277505014871 179.51960914636553 109.13058739381012 C 178.16935314251108 108.79310724770525 176.976657731044 108.44695910731357 175.9376943774839 108.11199041715527 A 2.625 2.625 0 0 0 173.076 109.395A 204.75 204.75 0 0 1 172.449 110.381A 2.625 2.625 0 0 0 172.5 113.517C 173.24360831961238 114.31593282511056 174.0627162223807 115.24942258041247 174.94076570562888 116.32928980832872 C 176.84605064976546 118.67276587602132 179.02362424777445 121.69786155222043 181.2954796528019 125.51002828955033 A 220.5 220.5 0 0 1 178.106 129.996C 173.75916733075158 129.10297949201492 170.18657183186548 128.04015682277839 167.34721707425203 127.01056692450848 C 166.03881764030672 126.53604079644856 164.88803495982668 126.06909315276854 163.88902005600417 125.62907259033106 A 2.625 2.625 0 0 0 160.91 126.611A 204.75 204.75 0 0 1 160.185 127.527A 2.625 2.625 0 0 0 159.914 130.652C 160.5713174447756 131.52312471700006 161.29010162631653 132.53588835181208 162.05246431293668 133.70031407250417 C 163.70669246383196 136.22727272333069 165.56168129705043 139.46023530485544 167.4295248006594 143.4857915223964 A 220.5 220.5 0 0 1 163.796 147.62C 159.56372504601995 146.28480848888543 156.1193452342878 144.86028108043158 153.40090287004668 143.54420284928392 C 152.14822936550195 142.93766083427462 151.05155799870315 142.35486344849224 150.10308135112453 141.8144553412017 A 2.625 2.625 0 0 0 147.039 142.485A 204.75 204.75 0 0 1 146.224 143.322A 2.625 2.625 0 0 0 145.632 146.402C 146.19693065956565 147.3361387677735 146.80777182874235 148.41744073562057 147.44636648460263 149.65408174677404 C 148.83200261233347 152.33773659040213 150.34474333766215 155.74429586962162 151.7887753340495 159.94056967002675 A 220.5 220.5 0 0 1 147.749 163.68C 143.67686758100157 161.91598212438169 140.3972147392889 160.14485032162094 137.82850093375023 158.55623451424762 C 136.64483200938284 157.824106108538 135.6138969455732 157.1316367779255 134.72601264265612 156.49656958615694 A 2.625 2.625 0 0 0 131.609 156.849A 204.75 204.75 0 0 1 130.712 157.597A 2.625 2.625 0 0 0 129.807 160.6C 130.2728200398337 161.58735309467616 130.76924312829337 162.7257313257028 131.27730049117798 164.02147892495915 C 132.3796565080846 166.83338255243137 133.53411369750927 170.37742815353332 134.5390270882802 174.69993799060785 A 220.5 220.5 0 0 1 130.136 178.004C 126.26699957701209 175.83080606938753 123.18683884132304 173.73184431003511 120.79508259984652 171.8875306491955 C 119.69296544071707 171.03757659601828 118.73869484803951 170.24277566774632 117.92081468427463 169.5197812617187 A 2.625 2.625 0 0 0 114.785 169.55A 204.75 204.75 0 0 1 113.815 170.202A 2.625 2.625 0 0 0 112.606 173.096C 112.96778511960298 174.12570128055668 113.34452791911241 175.30908868231862 113.71666245458495 176.65020762278164 C 114.5240531126541 179.56055315612713 115.30798923277162 183.2045173140847 115.86313168599085 187.60744350824137 A 220.5 220.5 0 0 1 111.144 190.441C 107.51866996596105 187.88177972848374 104.670651806348 185.47723752934922 102.4812063400925 183.39677619865967 C 101.47232366226234 182.43800622242227 100.60483304639394 181.54929878405383 99.86562675498185 180.74604108433095 A 2.625 2.625 0 0 0 96.743 180.453A 204.75 204.75 0 0 1 95.7117 181.002A 2.625 2.625 0 0 0 94.2115 183.756C 94.4652635740157 184.81827371546947 94.71833251717744 186.03412608711585 94.95059950658566 187.4064001743853 C 95.45446626398657 190.38433722694162 95.85957139690326 194.0895930151685 95.95905826446342 198.52626345342958 A 220.5 220.5 0 0 1 90.9737 200.86C 87.63061570576285 197.9411597829533 85.04492982322154 195.25652588952744 83.08100379879949 192.9619702966513 C 82.17605000963421 191.90454759761587 81.40453498690951 190.93135416908214 80.75183833843217 190.0563479071081 A 2.625 2.625 0 0 0 77.6758 189.444A 204.75 204.75 0 0 1 76.5936 189.884A 2.625 2.625 0 0 0 74.8181 192.469C 74.96138673434261 193.5517264716044 75.08809922740303 194.7871554755272 75.17803658287794 196.17603826289627 C 75.37303832663483 199.18999996108244 75.39501825716343 202.9172707464639 75.03779495351893 207.34065561846978 A 220.5 220.5 0 0 1 69.839 209.149C 66.81365511914333 205.90231430173853 64.51771042727191 202.96604650115023 62.800121949109645 200.48171950619047 C 62.00868978390051 199.3368530280227 61.34132860549083 198.28948970176822 60.78206034679396 197.35201016159604 A 2.625 2.625 0 0 0 57.7853 196.427A 204.75 204.75 0 0 1 56.6636 196.753A 2.625 2.625 0 0 0 54.6317 199.142C 54.66290054707971 200.23348277711827 54.66191340608997 201.47539255853712 54.60856776928977 202.86616154294623 C 54.49263743240806 205.88419914297577 54.131259167816985 209.59397492795057 53.32111234885322 213.95718525364882 A 220.5 220.5 0 0 1 47.9639 215.221C 45.28845316697301 211.68085306643735 43.306587250669324 208.52407652783057 41.85354318392131 205.87631261496185 C 41.184022020504734 204.65613822713965 40.62788888092121 203.54570731497623 40.167977394676626 202.55569201294924 A 2.625 2.625 0 0 0 37.2823 201.327A 204.75 204.75 0 0 1 36.1329 201.537A 2.625 2.625 0 0 0 33.8661 203.704C 33.78497401548302 204.79271435294663 33.65629770438319 206.02794035922759 33.460234552328785 207.40585304345925 C 33.03460102521951 210.3959745959721 32.29369526501382 214.04893083433555 31.03921268855268 218.30571549883436 A 220.5 220.5 0 0 1 25.5804 219.012C 23.283182344786994 215.21552212861215 21.636403475794303 211.87169946861005 20.463306449043014 209.08856559399518 C 19.922793378308562 207.80601744857327 19.48378342718047 206.6442897944126 19.12810388955492 205.6122331390192 A 2.625 2.625 0 0 0 16.384 204.093A 204.75 204.75 0 0 1 15.2192 204.184A 2.625 2.625 0 0 0 12.7416 206.107C 12.54891835460651 207.18109221018182 12.29391687430515 208.39654073837016 11.957214525183119 209.74699090518706 C 11.226389629118831 212.67750037787164 10.113810158672429 216.2349148247481 8.428289652103075 220.34015085164 A 220.5 220.5 0 0 1 2.92572 220.482C 1.031103997569881 216.4688531168813 -0.26313155842996894 212.97342968752542 -1.1438464248686542 210.0844277625978 C -1.5496218299073226 208.75310118897823 -1.866854977885155 207.55239139495836 -2.1145322753101423 206.48923344349134 A 2.625 2.625 0 0 0 -4.68789 204.696A 204.75 204.75 0 0 1 -5.85584 204.666A 2.625 2.625 0 0 0 -8.51806 206.324C -8.820158962633567 207.37329894937855 -9.19878253300833 208.55608594270737 -9.67255495053558 209.86475848438857 C -10.70082428984868 212.70459174780916 -12.173283851371753 216.1287549250809 -14.271975351371367 220.03892579121785 A 220.5 220.5 0 0 1 -19.76 219.614C -21.231904308530066 215.42756041097704 -22.159877332675432 211.81758857017792 -22.738874242121103 208.85334273404118 C -23.005610661225493 207.48735012509948 -23.19770425576615 206.2603860137386 -23.33475387202299 205.17739650496617 A 2.625 2.625 0 0 0 -25.7101 203.129A 204.75 204.75 0 0 1 -26.8688 202.979A 2.625 2.625 0 0 0 -29.6874 204.355C -30.09574040067153 205.3672971312858 -30.593972557083227 206.5048847533829 -31.199792937529153 207.75790741542707 C -32.51460680929094 210.47696153052377 -34.33133802423356 213.73157645667976 -36.82095386567023 217.40523337814435 A 220.5 220.5 0 0 1 -42.2362 216.418C -43.2698491470813 212.10268197262513 -43.82172289446363 208.41642831995088 -44.09286433563862 205.40836031588597 C -44.21773429640999 204.02218153309605 -44.282652097624066 202.78196922920745 -44.30762127268649 201.6906281213388 A 2.625 2.625 0 0 0 -46.4598 199.409A 204.75 204.75 0 0 1 -47.5969 199.141A 2.625 2.625 0 0 0 -50.542 200.219C -51.0522995035203 201.18435087421017 -51.66485886116535 202.26468041328266 -52.39630535778678 203.44877084375673 C -53.98372640786925 206.01822316048816 -56.125471473403316 209.06879010765795 -58.97962110901403 212.46699140718394 A 220.5 220.5 0 0 1 -64.2647 210.929C -64.84912282039754 206.5294623404049 -65.01904729200449 202.8060020816062 -64.97945909818029 199.78599817877574 C -64.96113894797045 198.39432706207603 -64.8981928110154 197.15401312460955 -64.81081686541616 196.0658889048819 A 2.625 2.625 0 0 0 -66.717 193.575A 204.75 204.75 0 0 1 -67.8205 193.191A 2.625 2.625 0 0 0 -70.8609 193.961C -71.46769153130931 194.86880044907156 -72.18808480860976 195.8804201432509 -73.03740390657998 196.98302668902457 C -74.88060507694823 199.3756403736286 -77.3246609625754 202.18982257328017 -80.51308969619353 205.27654647171926 A 220.5 220.5 0 0 1 -85.6119 203.203C -85.74097965924804 198.76697902887227 -85.52715361340833 195.04578176898067 -85.17725542928784 192.0458547600435 C -85.01593936624654 190.66344336947816 -84.82579653583328 189.43617543472487 -84.62700167633227 188.36280249056088 A 2.625 2.625 0 0 0 -86.267 185.689A 204.75 204.75 0 0 1 -87.3252 185.194A 2.625 2.625 0 0 0 -90.4286 185.647C -91.12550824978997 186.48759226150116 -91.94609909879364 187.4197786903675 -92.90428780438833 188.42921344775937 C -94.98373070410176 190.61962619996677 -97.70418980942459 193.16759262069732 -101.19309950328577 195.91011907683924 A 220.5 220.5 0 0 1 -106.052 193.323C -105.72396078385644 188.8975162922089 -105.12865082984965 185.21802764790453 -104.472151663229 182.26997750544973 C -104.16954967775521 180.91147974566238 -103.8542257151881 179.71026715903912 -103.54611921675043 178.6630235106708 A 2.625 2.625 0 0 0 -104.903 175.835A 204.75 204.75 0 0 1 -105.904 175.234A 2.625 2.625 0 0 0 -109.038 175.365C -109.81737191145535 176.12956920328722 -110.72946186502372 176.97244095879384 -111.7863631395942 177.87800366825752 C -114.08000515661115 179.84299656798413 -117.04802993834237 182.09773813187422 -120.80043728175272 184.46699568302333 A 220.5 220.5 0 0 1 -125.367 181.394C -124.58624162311939 177.0256928906577 -123.61575819455373 173.4269163569196 -122.65961709991696 170.56199314584603 C -122.21893684833526 169.24180943104497 -121.78177426606089 168.07938534479663 -121.36762213421791 167.06937203542034 A 2.625 2.625 0 0 0 -122.426 164.117A 204.75 204.75 0 0 1 -123.361 163.416A 2.625 2.625 0 0 0 -126.491 163.225C -127.34514411150145 163.90452889562076 -128.33906478922532 164.64915132747737 -129.48347521633497 165.44124279901501 C -131.96700317468384 167.15998643269077 -135.15113183177914 169.09760231824933 -139.12726037340906 171.06847624496123 A 220.5 220.5 0 0 1 -143.354 167.542C -142.12787730775557 163.27735310563835 -140.7925077704018 159.7974366089948 -139.54686008121206 157.04600922804912 C -138.9727728838176 155.7781338340345 -138.4184057139614 154.66682023265244 -137.90259806433957 153.70474365460944 A 2.625 2.625 0 0 0 -138.652 150.659A 204.75 204.75 0 0 1 -139.509 149.866A 2.625 2.625 0 0 0 -142.604 149.354C -143.5230261042094 149.94205980699638 -144.58824169964646 150.58053973218497 -145.80803024407197 151.25076359914905 C -148.45511812956497 152.70503885668376 -151.8215981061408 154.30498985350152 -155.97929989430426 155.85658840185718 A 220.5 220.5 0 0 1 -159.821 151.915C -158.16292213566066 147.798232759058 -156.47682173881574 144.47406428007508 -154.9548716304592 141.86529854397017 C -154.2534629543605 140.66317126532894 -153.58776762683328 139.61474834945022 -152.97577214883654 138.71080675380432 A 2.625 2.625 0 0 0 -153.408 135.604A 204.75 204.75 0 0 1 -154.179 134.727A 2.625 2.625 0 0 0 -157.204 133.899C -158.17952831587164 134.39016758320835 -159.30474727871567 134.91573695568673 -160.5869838784383 135.4569886783553 C -163.369571900971 136.6313798802378 -166.88271767179373 137.87670610972737 -171.17792003322128 138.99258194912179 A 220.5 220.5 0 0 1 -174.594 134.676C -172.52140064260766 130.75241437734377 -170.50244246993068 127.61923092885478 -168.72032299217275 125.18078040337815 C -167.89902794382644 124.05714408831807 -167.1290609947056 123.08272540166807 -166.4273649926473 122.24650079420742 A 2.625 2.625 0 0 0 -166.538 119.112A 204.75 204.75 0 0 1 -167.215 118.16A 2.625 2.625 0 0 0 -170.139 117.026C -171.15928817693435 117.41370615068581 -172.33258290625758 117.82079380435943 -173.66367553433724 118.22733597982449 C -176.55226756864408 119.10939428716061 -180.17483891457476 119.98689498148859 -184.56201163571427 120.6552195504268 A 220.5 220.5 0 0 1 -187.516 116.011C -185.05110938445233 112.32058787584403 -182.72069489483158 109.41160198184762 -180.69729695747583 107.16931484918467 C -179.76482146870865 106.13608032217331 -178.8987447392002 105.24599494523744 -178.11478636526365 104.48635151482942 A 2.625 2.625 0 0 0 -177.902 101.357A 204.75 204.75 0 0 1 -178.478 100.34A 2.625 2.625 0 0 0 -181.27 98.9116C -182.3247170038847 99.19263022386194 -183.5336502836748 99.47692092833029 -184.89948902711683 99.74444410839615 C -187.86346527903672 100.32481948369774 -191.5570620426185 100.82519291720766 -195.98970000122532 101.0388818089993 A 220.5 220.5 0 0 1 -198.451 96.1153C -195.6192303315052 92.69813520077548 -193.0020624982698 90.04418283541885 -190.7588346228145 88.0218278969914 C -189.72506316578009 87.08994770105369 -188.7720572846714 86.29363076025474 -187.9141466926463 85.61862091623878 A 2.625 2.625 0 0 0 -187.381 82.5279A 204.75 204.75 0 0 1 -187.849 81.4573A 2.625 2.625 0 0 0 -190.479 79.749C -191.55745847352424 79.92008774043288 -192.78921531026808 80.07856794350538 -194.1753219386112 80.20423631591136 C -197.183263522523 80.47677663581976 -200.9087326592028 80.5947187256381 -205.33984879020466 80.35150678487061 A 220.5 220.5 0 0 1 -207.282 75.201C -204.11373877268747 72.09305923198735 -201.2375602259447 69.72227295056913 -198.79828118591934 67.94128767182745 C -197.67417199523445 67.12063996886495 -196.64433906194532 66.4265326218758 -195.72157031753025 65.84331163652122 A 2.625 2.625 0 0 0 -194.874 62.8238A 204.75 204.75 0 0 1 -195.229 61.7108A 2.625 2.625 0 0 0 -197.67 59.741C -198.759643229438 59.80037244516933 -200.001166694241 59.83136221726816 -201.3928481324019 59.813843666004125 C -204.412870119228 59.77565993532823 -208.130720729369 59.509920465962395 -212.5133440994449 58.812385799711926 A 220.5 220.5 0 0 1 -213.915 53.4895C -210.4445908053367 50.72377890069056 -207.3398897531913 48.661289627576274 -204.73041651324164 47.140552895532174 C -203.52788542597304 46.439836755349454 -202.43214192578878 45.85529671272185 -201.4542966072325 45.3700468735618 A 2.625 2.625 0 0 0 -200.3 42.4537A 204.75 204.75 0 0 1 -200.539 41.3101A 2.625 2.625 0 0 0 -202.765 39.0998C -203.8549263215199 39.046758325399274 -205.09305595680027 38.94992916723082 -206.4755600353247 38.78940939329829 C -209.4756494407114 38.44090636908226 -213.1464713829533 37.79430224501575 -217.43414509411167 36.649838894270836 A 220.5 220.5 0 0 1 -218.281 31.211C -214.5446778229755 28.816813894450384 -211.24436486893924 27.08448452902217 -208.49235849456954 25.840116531350258 C -207.22415263939698 25.266759719350997 -206.0741137260085 24.7979832509533 -205.05155723694708 24.41584832699885 A 2.625 2.625 0 0 0 -203.604 21.6336A 204.75 204.75 0 0 1 -203.724 20.4714A 2.625 2.625 0 0 0 -205.71 18.0441C -206.78929648143617 17.87923885368573 -208.01090780504944 17.655617178414865 -209.36957963677833 17.35379773135014 C -212.31793476669387 16.698669632348057 -215.90281641525553 15.678055018152202 -220.05009005950996 14.098794579139827 A 220.5 220.5 0 0 1 -220.333 8.6017C -216.37053788323493 6.604383492146448 -212.90959716564223 5.2205771566308625 -210.0442296090397 4.265768503668898 C -208.72379228352054 3.825848744694744 -207.53164865550593 3.477804997709881 -206.47522034910563 3.202835714218968 A 2.625 2.625 0 0 0 -204.749 0.584165A 204.75 204.75 0 0 1 -204.749 -0.584165A 2.625 2.625 0 0 0 -206.475 -3.20281C -207.53164865550593 -3.477804997709737 -208.72379228352054 -3.825848744694598 -210.0442296090397 -4.2657685036687525 C -212.90959716564223 -5.220577156630715 -216.37053788323493 -6.604383492146297 -220.33344932823564 -8.60170046589868 A 220.5 220.5 0 0 1 -220.05 -14.0988C -215.90281641525553 -15.678055018152051 -212.31793476669387 -16.69866963234791 -209.36957963677833 -17.353797731349996 C -208.01090780504944 -17.655617178414722 -206.78929648143617 -17.87923885368559 -205.71019476055338 -18.04412775390362 A 2.625 2.625 0 0 0 -203.724 -20.4714A 204.75 204.75 0 0 1 -203.604 -21.6336A 2.625 2.625 0 0 0 -205.052 -24.4158C -206.07411372600853 -24.797983250953166 -207.22415263939698 -25.266759719350862 -208.49235849456957 -25.840116531350112 C -211.24436486893927 -27.084484529022028 -214.54467782297553 -28.816813894450235 -218.28121922154872 -31.211015346146667 A 220.5 220.5 0 0 1 -217.434 -36.6498C -213.14647138295334 -37.7943022450156 -209.47564944071144 -38.44090636908212 -206.47556003532472 -38.78940939329815 C -205.09305595680033 -38.94992916723069 -203.85492632151994 -39.04675832539913 -202.76458993284504 -39.09981897898243 A 2.625 2.625 0 0 0 -200.539 -41.3101A 204.75 204.75 0 0 1 -200.3 -42.4537A 2.625 2.625 0 0 0 -201.454 -45.37C -202.43214192578878 -45.85529671272181 -203.52788542597304 -46.439836755349404 -204.73041651324164 -47.140552895532124 C -207.3398897531913 -48.661289627576224 -210.4445908053367 -50.72377890069051 -213.91515388911512 -53.489485699335546 A 220.5 220.5 0 0 1 -212.513 -58.8124C -208.130720729369 -59.509920465962345 -204.412870119228 -59.77565993532818 -201.3928481324019 -59.813843666004075 C -200.001166694241 -59.83136221726811 -198.759643229438 -59.80037244516929 -197.66963000993485 -59.74104239598991 A 2.625 2.625 0 0 0 -195.229 -61.7108A 204.75 204.75 0 0 1 -194.874 -62.8238A 2.625 2.625 0 0 0 -195.722 -65.8433C -196.64433906194537 -66.42653262187567 -197.67417199523447 -67.12063996886482 -198.79828118591942 -67.94128767182733 C -201.23756022594472 -69.722272950569 -204.11373877268753 -72.09305923198721 -207.28153470960825 -75.20095419748807 A 220.5 220.5 0 0 1 -205.34 -80.3515C -200.90873265920285 -80.59471872563799 -197.18326352252308 -80.47677663581963 -194.1753219386113 -80.20423631591123 C -192.78921531026816 -80.07856794350525 -191.5574584735243 -79.92008774043275 -190.47932283448304 -79.7489959017716 A 2.625 2.625 0 0 0 -187.849 -81.4573A 204.75 204.75 0 0 1 -187.381 -82.5279A 2.625 2.625 0 0 0 -187.914 -85.6186C -188.77205728467146 -86.29363076025462 -189.72506316578014 -87.08994770105356 -190.75883462281456 -88.02182789699127 C -193.00206249826988 -90.0441828354187 -195.6192303315053 -92.69813520077535 -198.45067969658172 -96.11527387334412 A 220.5 220.5 0 0 1 -195.99 -101.039C -191.55706204261858 -100.82519291720753 -187.8634652790368 -100.32481948369761 -184.89948902711694 -99.74444410839602 C -183.53365028367486 -99.47692092833016 -182.32471700388476 -99.19263022386181 -181.26988745128799 -98.91159021177134 A 2.625 2.625 0 0 0 -178.478 -100.34A 204.75 204.75 0 0 1 -177.902 -101.357A 2.625 2.625 0 0 0 -178.115 -104.486C -178.89874473920025 -105.24599494523733 -179.7648214687087 -106.1360803221732 -180.69729695747586 -107.16931484918454 C -182.72069489483164 -109.4116019818475 -185.05110938445242 -112.3205878758439 -187.5161981100328 -116.01074773546696 A 220.5 220.5 0 0 1 -184.562 -120.655C -180.17483891457485 -119.98689498148846 -176.55226756864414 -119.10939428716051 -173.66367553433733 -118.22733597982439 C -172.33258290625764 -117.82079380435931 -171.1592881769344 -117.4137061506857 -170.13894616645047 -117.02569705920862 A 2.625 2.625 0 0 0 -167.215 -118.16A 204.75 204.75 0 0 1 -166.538 -119.112A 2.625 2.625 0 0 0 -166.427 -122.246C -167.1290609947057 -123.08272540166796 -167.89902794382652 -124.05714408831794 -168.7203229921728 -125.18078040337804 C -170.50244246993077 -127.61923092885466 -172.52140064260774 -130.75241437734363 -174.59399817495876 -134.6764788115049 A 220.5 220.5 0 0 1 -171.178 -138.993C -166.8827176717938 -137.87670610972722 -163.3695719009711 -136.6313798802377 -160.58698387843842 -135.45698867835517 C -159.30474727871575 -134.9157369556866 -158.17952831587172 -134.39016758320824 -157.204489726643 -133.89930240523955 A 2.625 2.625 0 0 0 -154.179 -134.727A 204.75 204.75 0 0 1 -153.408 -135.604A 2.625 2.625 0 0 0 -152.976 -138.711C -153.58776762683337 -139.61474834945014 -154.25346295436057 -140.66317126532883 -154.95487163045928 -141.86529854397008 C -156.47682173881583 -144.474064280075 -158.16292213566075 -147.7982327590579 -159.82105842533772 -151.91460570856253 A 220.5 220.5 0 0 1 -155.979 -155.857C -151.8215981061409 -154.3049898535014 -148.45511812956505 -152.70503885668367 -145.80803024407206 -151.25076359914897 C -144.58824169964655 -150.58053973218486 -143.5230261042095 -149.9420598069963 -142.60362658784302 -149.35354183553542 A 2.625 2.625 0 0 0 -139.509 -149.866A 204.75 204.75 0 0 1 -138.652 -150.659A 2.625 2.625 0 0 0 -137.903 -153.705C -138.41840571396145 -154.6668202326524 -138.97277288381767 -155.77813383403446 -139.54686008121212 -157.0460092280491 C -140.7925077704019 -159.79743660899476 -142.12787730775565 -163.27735310563833 -143.35397569759203 -167.54239999318807 A 220.5 220.5 0 0 1 -139.127 -171.068C -135.15113183177922 -169.0976023182493 -131.96700317468392 -167.15998643269074 -129.48347521633502 -165.441242799015 C -128.33906478922538 -164.64915132747734 -127.34514411150151 -163.90452889562073 -126.49112953159053 -163.22459656757124 A 2.625 2.625 0 0 0 -123.361 -163.416A 204.75 204.75 0 0 1 -122.426 -164.117A 2.625 2.625 0 0 0 -121.368 -167.069C -121.78177426606109 -168.07938534479646 -122.21893684833546 -169.24180943104483 -122.65961709991717 -170.56199314584586 C -123.61575819455395 -173.42691635691946 -124.5862416231196 -177.02569289065752 -125.36730516516567 -181.39420315822514 A 220.5 220.5 0 0 1 -120.8 -184.467C -117.04802993834258 -182.0977381318741 -114.08000515661136 -179.842996567984 -111.78636313959441 -177.8780036682574 C -110.72946186502392 -176.9724409587937 -109.81737191145555 -176.1295692032871 -109.03779503500104 -175.36542997047366 A 2.625 2.625 0 0 0 -105.904 -175.234A 204.75 204.75 0 0 1 -104.903 -175.835A 2.625 2.625 0 0 0 -103.546 -178.663C -103.8542257151883 -179.710267159039 -104.16954967775543 -180.91147974566223 -104.47215166322921 -182.26997750544962 C -105.12865082984985 -185.21802764790442 -105.72396078385664 -188.8975162922088 -106.05171001026085 -193.32318264420013 A 220.5 220.5 0 0 1 -101.193 -195.91C -97.70418980942482 -193.1675926206972 -94.98373070410199 -190.61962619996666 -92.90428780438855 -188.42921344775925 C -91.94609909879385 -187.41977869036742 -91.12550824979019 -186.48759226150105 -90.42863278561852 -185.64734618988703 A 2.625 2.625 0 0 0 -87.3252 -185.194A 204.75 204.75 0 0 1 -86.267 -185.689A 2.625 2.625 0 0 0 -84.627 -188.363C -84.8257965358334 -189.43617543472482 -85.01593936624667 -190.6634433694781 -85.17725542928797 -192.04585476004345 C -85.52715361340846 -195.0457817689806 -85.74097965924817 -198.7669790288722 -85.6119403466762 -203.20288830097957 A 220.5 220.5 0 0 1 -80.5131 -205.277C -77.32466096257552 -202.1898225732801 -74.88060507694836 -199.37564037362858 -73.03740390658011 -196.9830266890245 C -72.18808480860989 -195.88042014325083 -71.46769153130944 -194.8688004490715 -70.86090453270312 -193.96135435604467 A 2.625 2.625 0 0 0 -67.8205 -193.191A 204.75 204.75 0 0 1 -66.717 -193.575A 2.625 2.625 0 0 0 -64.8108 -196.066C -64.89819281101555 -197.15401312460952 -64.96113894797058 -198.39432706207597 -64.97945909818041 -199.78599817877569 C -65.01904729200463 -202.80600208160615 -64.84912282039768 -206.52946234040488 -64.26466281766402 -210.92859279081907 A 220.5 220.5 0 0 1 -58.9796 -212.467C -56.125471473403465 -209.06879010765792 -53.98372640786939 -206.0182231604881 -52.39630535778692 -203.44877084375668 C -51.664858861165484 -202.26468041328266 -51.052299503520445 -201.18435087421014 -50.54203306361561 -200.21932391410272 A 2.625 2.625 0 0 0 -47.5969 -199.141A 204.75 204.75 0 0 1 -46.4598 -199.409A 2.625 2.625 0 0 0 -44.3076 -201.691C -44.282652097624165 -202.78196922920745 -44.21773429641009 -204.02218153309605 -44.09286433563872 -205.40836031588594 C -43.82172289446373 -208.41642831995085 -43.26984914708141 -212.10268197262513 -42.23616387561161 -216.4184017241965 A 220.5 220.5 0 0 1 -36.821 -217.405C -34.331338024233666 -213.73157645667976 -32.51460680929104 -210.4769615305238 -31.199792937529253 -207.7579074154271 C -30.593972557083326 -206.5048847533829 -30.09574040067163 -205.3672971312858 -29.687403470670677 -204.3549188299455 A 2.625 2.625 0 0 0 -26.8688 -202.979A 204.75 204.75 0 0 1 -25.7101 -203.129A 2.625 2.625 0 0 0 -23.3348 -205.177C -23.1977042557662 -206.2603860137386 -23.005610661225543 -207.48735012509948 -22.73887424212115 -208.85334273404118 C -22.15987733267548 -211.81758857017792 -21.231904308530115 -215.42756041097704 -19.75995108935251 -219.6141217607138 A 220.5 220.5 0 0 1 -14.272 -220.039C -12.173283851371803 -216.1287549250809 -10.700824289848729 -212.70459174780916 -9.672554950535627 -209.86475848438857 C -9.19878253300838 -208.55608594270737 -8.820158962633617 -207.37329894937855 -8.518080015576867 -206.32430076864972 A 2.625 2.625 0 0 0 -5.85584 -204.666A 204.75 204.75 0 0 1 -4.68789 -204.696A 2.625 2.625 0 0 0 -2.11455 -206.489C -1.8668549778853452 -207.5523913949584 -1.5496218299075126 -208.75310118897823 -1.1438464248688467 -210.0844277625978 C -0.2631315584301639 -212.97342968752542 1.0311039975696836 -216.46885311688132 2.9257220941528077 -220.48187747298192 A 220.5 220.5 0 0 1 8.42829 -220.34C 10.113810158672232 -216.23491482474813 11.226389629118637 -212.67750037787164 11.957214525182927 -209.74699090518706 C 12.293916874304958 -208.39654073837022 12.548918354606322 -207.18109221018184 12.74153720673164 -206.10659379174038 A 2.625 2.625 0 0 0 15.2192 -204.184A 204.75 204.75 0 0 1 16.384 -204.093A 2.625 2.625 0 0 0 19.1281 -205.612C 19.483783427180327 -206.64428979441263 19.922793378308416 -207.8060174485733 20.463306449042868 -209.0885655939952 C 21.636403475794154 -211.87169946861005 23.283182344786844 -215.21552212861218 25.580381895626008 -219.01247043457857 A 220.5 220.5 0 0 1 31.0392 -218.306C 32.29369526501367 -214.04893083433558 33.03460102521936 -210.39597459597215 33.46023455232864 -207.40585304345927 C 33.65629770438305 -206.0279403592276 33.78497401548288 -204.79271435294666 33.86609096492629 -203.70410564733186 A 2.625 2.625 0 0 0 36.1329 -201.537A 204.75 204.75 0 0 1 37.2823 -201.327A 2.625 2.625 0 0 0 40.1679 -202.556C 40.62788888092106 -203.54570731497628 41.184022020504585 -204.6561382271397 41.85354318392116 -205.8763126149619 C 43.306587250669175 -208.5240765278306 45.28845316697286 -211.68085306643738 47.96388328535294 -215.22147672565643 A 220.5 220.5 0 0 1 53.3211 -213.957C 54.131259167816836 -209.5939749279506 54.49263743240791 -205.8841991429758 54.60856776928962 -202.8661615429463 C 54.66191340608982 -201.47539255853718 54.66290054707957 -200.23348277711833 54.63165573399744 -199.14230330742382 A 2.625 2.625 0 0 0 56.6636 -196.753A 204.75 204.75 0 0 1 57.7853 -196.427A 2.625 2.625 0 0 0 60.782 -197.352C 61.34132860549073 -198.28948970176825 62.00868978390041 -199.3368530280227 62.800121949109545 -200.4817195061905 C 64.51771042727181 -202.96604650115026 66.81365511914323 -205.90231430173856 69.83895558024047 -209.14908182261863 A 220.5 220.5 0 0 1 75.0378 -207.341C 75.39501825716333 -202.91727074646394 75.37303832663473 -199.18999996108246 75.17803658287784 -196.1760382628963 C 75.08809922740294 -194.7871554755272 74.96138673434251 -193.55172647160444 74.81811136152632 -192.46954301166264 A 2.625 2.625 0 0 0 76.5936 -189.884A 204.75 204.75 0 0 1 77.6758 -189.444A 2.625 2.625 0 0 0 80.7518 -190.056C 81.40453498690947 -190.93135416908214 82.17605000963417 -191.90454759761587 83.08100379879944 -192.9619702966513 C 85.0449298232215 -195.25652588952744 87.6306157057628 -197.94115978295332 90.97371757208306 -200.8596546220721 A 220.5 220.5 0 0 1 95.9591 -198.526C 95.85957139690322 -194.08959301516853 95.45446626398653 -190.38433722694162 94.95059950658562 -187.4064001743853 C 94.7183325171774 -186.03412608711585 94.46526357401565 -184.81827371546947 94.21147639605996 -183.75655767917138 A 2.625 2.625 0 0 0 95.7117 -181.002A 204.75 204.75 0 0 1 96.743 -180.453A 2.625 2.625 0 0 0 99.8656 -180.746C 100.6048330463937 -181.54929878405397 101.4723236622621 -182.4380062224224 102.48120634009224 -183.3967761986598 C 104.67065180634776 -185.47723752934937 107.5186699659608 -187.88177972848388 111.1441355260549 -190.44106511451034 A 220.5 220.5 0 0 1 115.863 -187.607C 115.30798923277139 -183.20451731408485 114.52405311265386 -179.56055315612727 113.71666245458472 -176.65020762278178 C 113.3445279191122 -175.3090886823188 112.96778511960277 -174.12570128055683 112.60617634372876 -173.09570712201113 A 2.625 2.625 0 0 0 113.815 -170.202A 204.75 204.75 0 0 1 114.785 -169.55A 2.625 2.625 0 0 0 117.921 -169.52C 118.73869484803934 -170.24277566774646 119.6929654407169 -171.0375765960184 120.79508259984637 -171.88753064919564 C 123.18683884132287 -173.73184431003526 126.2669995770119 -175.83080606938768 130.1363979940328 -178.0037529405544 A 220.5 220.5 0 0 1 134.539 -174.7C 133.5341136975091 -170.37742815353346 132.37965650808442 -166.83338255243152 131.27730049117784 -164.0214789249593 C 130.7692431282932 -162.72573132570292 130.27282003983353 -161.5873530946763 129.8072228090232 -160.59999900819616 A 2.625 2.625 0 0 0 130.712 -157.597A 204.75 204.75 0 0 1 131.609 -156.849A 2.625 2.625 0 0 0 134.726 -156.497C 135.61389694557306 -157.13163677792562 136.64483200938272 -157.8241061085381 137.82850093375012 -158.55623451424773 C 140.39721473928878 -160.14485032162105 143.67686758100146 -161.9159821243818 147.74918226913528 -163.67955670328863 A 220.5 220.5 0 0 1 151.789 -159.941C 150.34474333766204 -155.74429586962174 148.83200261233335 -152.33773659040224 147.44636648460252 -149.65408174677415 C 146.80777182874223 -148.4174407356207 146.19693065956557 -147.3361387677736 145.63228042029246 -146.40189095230053 A 2.625 2.625 0 0 0 146.224 -143.322A 204.75 204.75 0 0 1 147.039 -142.485A 2.625 2.625 0 0 0 150.103 -141.814C 151.0515579987031 -142.3548634484923 152.1482293655019 -142.93766083427468 153.40090287004662 -143.54420284928398 C 156.11934523428775 -144.8602810804316 159.56372504601987 -146.2848084888855 163.79578845649937 -147.62031644627012 A 220.5 220.5 0 0 1 167.43 -143.486C 165.56168129705034 -139.4602353048555 163.7066924638319 -136.22727272333077 162.05246431293662 -133.70031407250423 C 161.29010162631647 -132.53588835181213 160.57131744477553 -131.52312471700012 159.91359963004453 -130.65188643179178 A 2.625 2.625 0 0 0 160.185 -127.527A 204.75 204.75 0 0 1 160.91 -126.611A 2.625 2.625 0 0 0 163.889 -125.629C 164.88803495982663 -126.06909315276859 166.0388176403067 -126.5360407964486 167.347217074252 -127.01056692450852 C 170.18657183186542 -128.04015682277844 173.75916733075152 -129.10297949201498 178.1061185386117 -129.99626411129373 A 220.5 220.5 0 0 1 181.295 -125.51C 179.0236242477744 -121.69786155222047 176.8460506497654 -118.67276587602137 174.94076570562885 -116.32928980832877 C 174.06271622238066 -115.24942258041251 173.24360831961232 -114.31593282511061 172.4997949018805 -113.51693941272886 A 2.625 2.625 0 0 0 172.449 -110.381A 204.75 204.75 0 0 1 173.076 -109.395A 2.625 2.625 0 0 0 175.938 -108.112C 176.97665773104399 -108.44695910731362 178.16935314251106 -108.79310724770528 179.5196091463655 -109.13058739381015 C 182.4497784305719 -109.86277505014874 186.11271921556627 -110.55262679547478 190.52847945660918 -110.99421903746014 A 220.5 220.5 0 0 1 193.24 -106.204C 190.5878722456179 -102.64546019225487 188.11079670467402 -99.86029818810465 185.97465146168332 -97.72514613285199 C 184.9902227247626 -96.74128425896694 184.07947384830635 -95.89696360680638 183.2574494348408 -95.1786845961887 A 2.625 2.625 0 0 0 182.884 -92.0646A 204.75 204.75 0 0 1 183.407 -91.0196A 2.625 2.625 0 0 0 186.121 -89.4489C 187.18928390368364 -89.67526031688213 188.41124917806832 -89.89693969758574 189.78904870228675 -90.09379648823163 C 192.77897198973298 -90.52082053133479 196.49342997728186 -90.83038875263489 200.93119109444012 -90.81560762970656 A 220.5 220.5 0 0 1 203.135 -85.7718C 200.13184138495612 -82.50499141905604 197.3815215180355 -79.98928649706575 195.037159647177 -78.08509159720221 C 193.95678684609226 -77.20766425796768 192.9640511606063 -76.4614627179037 192.0725294146854 -75.83151204524951 A 2.625 2.625 0 0 0 191.381 -72.7723A 204.75 204.75 0 0 1 191.793 -71.6791A 2.625 2.625 0 0 0 194.332 -69.8376C 195.4176570997123 -69.95298145850332 196.65593910111681 -70.04784222293607 198.04667712798621 -70.10198892716988 C 201.06466048801963 -70.21932279594961 204.7912614994062 -70.14532599306645 209.2039821208525 -69.67432818880457 A 220.5 220.5 0 0 1 210.878 -64.4306C 207.55436321865122 -61.4899492119805 204.55995310054254 -59.27036847015722 202.03222542085618 -57.617315665329514 C 200.86736077606406 -56.8556238088197 199.80316152677824 -56.21545130281016 198.85159280069334 -55.68050660196293 A 2.625 2.625 0 0 0 197.849 -52.7086A 204.75 204.75 0 0 1 198.147 -51.5788A 2.625 2.625 0 0 0 200.483 -49.486C 201.57455451627283 -49.48918359440367 202.81602714743389 -49.45622019486398 204.20496150789438 -49.367082844150744 C 207.21901356611244 -49.17348277040872 210.91825470354644 -48.71670532786109 215.25915889293728 -47.79448353616135 A 220.5 220.5 0 0 1 216.385 -42.4065C 212.7767571687591 -39.82309824635277 209.56999829163618 -37.92316979272676 206.8856993453515 -36.53878185389735 C 205.6486907118712 -35.90089960327797 204.5243086755696 -35.3735421191428 203.5227798345398 -34.93927393701015 A 2.625 2.625 0 0 0 202.22 -32.0862A 204.75 204.75 0 0 1 202.4 -30.9318A 2.625 2.625 0 0 0 204.508 -28.6099C 205.59471150909332 -28.500788072738473 206.8262148512784 -28.340349929461787 208.19862249558275 -28.108873401893828 C 211.17679355036014 -27.606391594573758 214.80946193752152 -26.77167546688558 219.03253503055907 -25.408005468161875 A 220.5 220.5 0 0 1 219.599 -19.9328C 215.74366456022938 -17.73411253248882 212.35854936593776 -16.173976081315267 209.5461333896606 -15.072927865031065 C 208.25009336673872 -14.565616930845188 207.0774472727196 -14.156664589107377 206.03657477161093 -13.827676276453172 A 2.625 2.625 0 0 0 204.448 -11.1236A 204.75 204.75 0 0 1 204.508 -9.95684A 2.625 2.625 0 0 0 206.366 -7.43052" stroke="#191919" stroke-width="0.35 px" style="stroke-width:0.35;stroke-miterlimit:4;stroke-dasharray:none;fill:none;fill-rule: evenodd "/>
<title>b'InvoluteGear'</title>
</g>
</svg>