<?xml version="1.0"?>
<!DOCTYPE svg PUBLIC "-//W3C//DTD SVG 1.1//EN" "http://www.w3.org/Graphics/SVG/1.1/DTD/svg11.dtd">
<svg width="735.3098026955151mm" height="735.3969955641778mm" viewBox="0 0 735.3098026955151 735.3969955641778" xmlns="http://www.w3.org/2000/svg" version="1.1">
<g id="InvoluteGear" transform="translate(367.611661,367.698498) scale(1,-1)">
<path id="InvoluteGear_w0000"  d="M 346.41478579686327 -7.684151307292467 C 347.5447150146508 -7.375922873137256 348.73697712412155 -7.029058989468165 349.9895430528637 -6.638916138667238 C 353.1251719755983 -5.662210313624571 356.6369121680262 -4.415056712203016 360.4892220012712 -2.826200447454175 A 360.5 360.5 0 0 1 360.489 2.8262C 356.6369121680262 4.415056712203016 353.1251719755983 5.662210313624571 349.9895430528637 6.638916138667238 C 348.73697712412155 7.029058989468165 347.5447150146508 7.375922873137256 346.4147936596029 7.684148303585463 A 2.625 2.625 0 0 0 344.598 10.2496A 344.75 344.75 0 0 1 344.568 11.1938A 2.625 2.625 0 0 0 346.222 13.8672C 347.33098197246784 14.245074056898995 348.4993733648107 14.665389469146351 349.7252612868492 15.132649196147309 C 352.7941031929875 16.30240659188845 356.2215151778994 17.765471310325363 359.9675944740505 19.59075079256794 A 360.5 360.5 0 0 1 359.616 25.2322C 355.67255022782524 26.57850373801254 352.09006806846986 27.604921227415858 348.89978326829134 28.384796796664855 C 347.62538526709125 28.696313384367958 346.41386507097684 28.96838379047714 345.2669671757788 29.20576618779977 A 2.625 2.625 0 0 0 343.294 31.6533A 344.75 344.75 0 0 1 343.206 32.5938A 2.625 2.625 0 0 0 344.691 35.3649C 345.7734928360468 35.81095956275959 346.913493231945 36.303100384908724 348.10796042505916 36.84566925099918 C 351.0981425614417 38.20395265332015 354.4279663477016 39.87726817560227 358.0533222537023 41.93190922361369 A 360.5 360.5 0 0 1 357.352 47.5406C 353.3321602862992 48.63912369619089 349.6927960875322 49.440834063708714 346.4601980020339 50.02086219009085 C 345.16889832666897 50.252547317535765 343.9428071801909 50.44877165853815 342.78336986999466 50.614392636355575 A 2.625 2.625 0 0 0 340.662 52.9345A 344.75 344.75 0 0 1 340.516 53.8677A 2.625 2.625 0 0 0 341.825 56.7258C 342.8782732282875 57.23829942296633 343.9854721876739 57.80036165778314 345.14389749033944 58.41614056942352 C 348.0438514231748 59.95769504371064 351.26320456942915 61.83478763715256 354.75381128756686 64.11084124386741 A 360.5 360.5 0 0 1 353.705 69.6651C 349.624796857471 70.51156833377452 345.9426306123683 71.08546991774092 342.68022553555534 71.46340658511566 C 341.3770199736122 71.61436390755311 340.1411013852271 71.73398302959333 338.9736102977451 71.82720183251709 A 2.625 2.625 0 0 0 336.712 74.0109A 344.75 344.75 0 0 1 336.508 74.9332A 2.625 2.625 0 0 0 337.637 77.8672C 338.65652419140616 78.4441954222291 339.72663817659935 79.07400456011736 340.8445398663643 79.76061118832416 C 343.6430462372522 81.47947275978986 346.7394736915929 83.55308031780504 350.08182674258546 86.04174087398148 A 360.5 360.5 0 0 1 348.69 91.52C 344.56480301022754 92.1112174115589 340.8540803046675 92.45508989823578 337.5744898480037 92.62947294305775 C 336.26442024863155 92.69911843593327 335.02345574725933 92.74166955586621 333.8524276787039 92.76212553845716 A 2.625 2.625 0 0 0 331.459 94.801A 344.75 344.75 0 0 1 331.198 95.7089A 2.625 2.625 0 0 0 332.143 98.7073C 333.12457885227917 99.34660606853657 334.15346780015847 100.04172550029304 335.2265209325567 100.79650349740687 C 337.9127528640061 102.68602222454957 340.87427515014656 104.94812236232995 344.05544361934926 107.63976172374124 A 360.5 360.5 0 0 1 342.325 113.021C 338.1717548777732 113.35450608336522 334.44683177703183 113.46701909690476 331.16274403887724 113.43717386505044 C 329.85087880685256 113.42523808348196 328.60966944307035 113.39055657929086 327.4396348735464 113.33817060132628 A 2.625 2.625 0 0 0 324.924 115.224A 344.75 344.75 0 0 1 324.608 116.114A 2.625 2.625 0 0 0 325.364 119.166C 326.30383923274803 119.86466399575077 327.2875225718535 120.62240443933287 328.3115757127748 121.44243371591149 C 330.87514069528976 123.49529941784735 333.6903002588314 125.93714050941173 336.6979768234335 128.82134524626576 A 360.5 360.5 0 0 1 334.637 134.085C 330.47038592137284 134.15924819219623 326.7456734292966 134.03996644160665 323.46979390711965 133.80600839848015 C 322.1612083941727 133.71253751968777 320.9245561658828 133.6007575673749 319.7600417318405 133.47573230002666 A 2.625 2.625 0 0 0 317.132 135.202A 344.75 344.75 0 0 1 316.761 136.07A 2.625 2.625 0 0 0 317.326 139.163C 318.220693449355 139.9189888237367 319.155365499945 140.7364187285723 320.12645678672703 141.6185267506494 C 322.5574368854068 143.8267972887821 325.2153424208915 146.4389323253168 328.0378909645574 149.504544009793 A 360.5 360.5 0 0 1 325.654 154.629C 321.4904912413955 154.4449542325116 317.78039954702683 154.0943391957134 314.525401982303 153.65717347953316 C 313.22515885156815 153.48252912418866 311.99784812600075 153.29408317867433 310.8433591075584 153.09690232041348 A 2.625 2.625 0 0 0 308.114 154.656A 344.75 344.75 0 0 1 307.689 155.5A 2.625 2.625 0 0 0 308.061 158.622C 308.9064136228459 159.4319942656322 309.7884583203328 160.3059511542193 310.70283078943817 161.24672521722215 C 312.9918210145405 163.60185722183414 315.4821896017953 166.37418036033495 318.1086902325382 169.60933873637387 A 360.5 360.5 0 0 1 315.41 174.576C 311.26681230585916 174.13314274848847 307.5856950332144 173.55255088694597 304.36417237918226 172.91386880694097 C 303.0773020187378 172.65872664012753 301.864081022664 172.39434376216607 300.7240839135547 172.12577016742745 A 2.625 2.625 0 0 0 297.903 173.512A 344.75 344.75 0 0 1 297.426 174.328A 2.625 2.625 0 0 0 297.603 177.467C 298.39703489241055 178.32818829411926 299.2230397772121 179.2552909970371 300.0771558991905 180.25109142887743 C 302.2153005922102 182.74397335176775 304.5284974789679 185.6657590125832 306.9487887760903 189.0579478809131 A 360.5 360.5 0 0 1 303.947 193.847C 299.8389025424399 193.14764396352754 296.2010012191268 192.33932147436315 293.0254169210987 191.50159396742595 C 291.7568979823724 191.16694108462116 290.5624604321369 190.8276441202065 289.4413656597118 190.48871684805312 A 2.625 2.625 0 0 0 286.539 191.697A 344.75 344.75 0 0 1 286.013 192.482A 2.625 2.625 0 0 0 285.995 195.626C 286.7332160027296 196.5344652054122 287.4999854224121 197.51112694240882 288.29054078791427 198.5581011846672 C 290.26956788240545 201.1790885499614 292.3966437592895 204.23903291197686 294.60136208594605 207.77512855285715 A 360.5 360.5 0 0 1 291.307 212.369C 287.2509743139447 211.4148944663215 283.6703632734582 210.38196859221526 280.5530030501714 209.34843666332725 C 279.3077431865056 208.9355677715226 278.1367101289503 208.52266939469578 277.0388549910919 208.11469968890117 A 2.625 2.625 0 0 0 274.067 209.141A 344.75 344.75 0 0 1 273.493 209.891A 2.625 2.625 0 0 0 273.279 213.027C 273.96008200318977 213.98038845102343 274.66464947582676 215.0028307075717 275.3885855797226 216.0969282202976 C 277.20083860431663 218.8358809370511 279.1335642279803 222.02214566997682 281.1141799572696 225.68846761632025 A 360.5 360.5 0 0 1 277.541 230.068C 273.5517278692681 228.86422181340245 270.04225980012853 227.61068874389767 266.9951841126861 226.38535092731038 C 265.77800099258025 225.8958633360414 264.6349029271115 225.41096097040975 263.5645348120709 224.93552718651048 A 2.625 2.625 0 0 0 260.535 225.775A 344.75 344.75 0 0 1 259.915 226.488A 2.625 2.625 0 0 0 259.507 229.605C 260.1270496678345 230.59846314308615 260.76668935874864 231.66273028872249 261.4212054328891 232.7997182211864 C 263.05967313269525 235.6460398134268 264.7905711631658 238.9462978779977 266.5394216775998 242.72866184243998 A 360.5 360.5 0 0 1 262.701 246.878C 258.7941629315904 245.42811794709635 255.36941528398282 243.95882735811858 252.4044126762726 242.5464242478014 C 251.22001534475967 241.9822116894674 250.10927469572633 241.42718132808292 249.07053464980325 240.88612282702772 A 2.625 2.625 0 0 0 245.994 241.535A 344.75 344.75 0 0 1 245.332 242.208A 2.625 2.625 0 0 0 244.73 245.294C 245.28763631146512 246.3243971789634 245.85987357895323 247.42637177085354 246.44243742779852 248.6018513376242 C 247.90078088958663 251.54452994005797 249.42315481864094 254.9460132789541 250.93347415532367 258.829786030106 A 360.5 360.5 0 0 1 246.844 262.732C 243.03537365274482 261.04250037108335 239.70859611000176 259.36313666248645 236.83713760111036 257.7691325716897 C 235.69010826137634 257.1323778750708 234.61602226856905 256.5093668225775 233.6129289752081 255.90477685459703 A 2.625 2.625 0 0 0 230.502 256.361A 344.75 344.75 0 0 1 229.799 256.992A 2.625 2.625 0 0 0 229.007 260.034C 229.49925274154623 261.09734997490347 230.00187371078732 262.2327686874288 230.51023150797928 263.4421921864195 C 231.782808684204 266.4698431471998 233.09076874285782 269.9593920821796 234.3567137696811 273.9295480577565 A 360.5 360.5 0 0 1 230.033 277.57C 226.33632772703564 275.64696007312745 223.1203909451862 273.7640203768546 220.35358565025425 271.9945821977428 C 219.24836193598446 271.2877488430597 218.21508602944976 270.5991674081891 217.2515202617348 269.9333850144175 A 2.625 2.625 0 0 0 214.119 270.196A 344.75 344.75 0 0 1 213.378 270.781A 2.625 2.625 0 0 0 212.398 273.769C 212.8229811469449 274.86016784643874 213.25404127505175 276.02463796517515 213.6862262830303 277.26332637181963 C 214.76811381981685 280.36423629755234 215.85659976469694 283.92835044169124 216.87327278628356 287.9695298794947 A 360.5 360.5 0 0 1 212.332 291.334C 208.7616305190726 289.1849952358085 205.66897633277478 287.10576427975127 203.01752848398894 285.1677376248957 C 201.9583862910252 284.39356021308316 200.9699180145138 283.642072383638 200.04960762121095 282.917673346817 A 2.625 2.625 0 0 0 196.907 282.985A 344.75 344.75 0 0 1 196.13 283.523A 2.625 2.625 0 0 0 194.967 286.444C 195.3233387828083 287.55960512488815 195.6811703818861 288.74862154116465 196.03551056081474 290.0117826106541 C 196.9225228454585 293.1739546832417 197.7873235359013 296.79884517130637 198.55079124183695 300.89541353316014 A 360.5 360.5 0 0 1 193.809 303.971C 190.3792751181664 301.60422983107827 187.4218684056657 299.33675175587933 184.89603593966362 297.2376344739125 C 183.8870728833939 296.39910814697953 182.9472364286407 295.5876212833825 182.07374191187552 294.80740816265876 A 2.625 2.625 0 0 0 178.933 294.679A 344.75 344.75 0 0 1 178.124 295.168A 2.625 2.625 0 0 0 176.782 298.011C 177.06802836583685 299.1465301545056 177.35124705494374 300.35549279479443 177.62637153150686 301.6382396023417 C 178.31507688579595 304.84943999234156 178.95284657593245 308.52108282723106 179.46015525797964 312.65719128597186 A 360.5 360.5 0 0 1 174.536 315.432C 171.26037928627446 312.8566162529375 168.44966167961454 310.409663490773 166.0592165515208 308.1575766586695 C 165.10433611400137 307.2579455120768 164.21676752567046 306.38959909935784 163.39346826603696 305.5565903877256 A 2.625 2.625 0 0 0 160.266 305.233A 344.75 344.75 0 0 1 159.429 305.671A 2.625 2.625 0 0 0 157.913 308.425C 158.12767614562614 309.57611537331053 158.33518620667402 310.8003469960183 158.53003057771946 312.0977168434206 C 159.017764534431 315.3455220403547 159.42603581722778 319.0497123492206 159.67522279664908 323.20935910473173 A 360.5 360.5 0 0 1 154.588 325.673C 151.47891031719644 322.8986212042894 148.8257559367672 320.2816605400337 146.57994631439732 317.8853170442401 C 145.68284274253907 316.9280615761251 144.8509758510732 316.0062150778638 144.0810570334669 315.12363352420203 A 2.625 2.625 0 0 0 140.98 314.606A 344.75 344.75 0 0 1 140.118 314.992A 2.625 2.625 0 0 0 138.432 317.646C 138.57555866542705 318.80801074221785 138.70655728230216 320.0427750330242 138.8203677328102 321.34974864837835 C 139.10524334401632 324.62159352488175 139.28243669719404 328.3440005150216 139.2725379179749 332.51109270208894 A 360.5 360.5 0 0 1 134.042 334.654C 131.11139887148317 331.6913941188092 128.62607225616168 328.91455006488275 126.5335867406575 326.38322089285333 C 125.6977307539021 325.3720445386589 124.92478389069997 324.4002643998726 124.21122418145617 323.47152454075575 A 2.625 2.625 0 0 0 121.148 322.762A 344.75 344.75 0 0 1 120.264 323.093A 2.625 2.625 0 0 0 118.417 325.637C 118.4873192694357 326.8064998514995 118.54129963393805 328.0470197472375 118.57363585338533 329.3585407035278 C 118.65455099068834 332.64176712738544 118.59998088758633 336.367989529296 118.33103464618056 340.526405477777 A 360.5 360.5 0 0 1 112.977 342.34C 110.23664289417911 339.200917466238 107.92875928982261 336.2749330928356 105.9976933011423 333.61841146538296 C 105.22631866392317 332.557226269985 104.51528221024024 331.5392721192456 103.86084223325282 330.56796706876503 A 2.625 2.625 0 0 0 100.848 329.67A 344.75 344.75 0 0 1 99.9443 329.945A 2.625 2.625 0 0 0 97.9429 332.369C 97.9406754533892 333.5406381006357 97.91742872597518 334.782114270821 97.86816561181051 336.0931085482531 C 97.74480723026329 339.3750143542542 97.45868479200931 343.0906361373452 96.93173158917746 347.224287743779 A 360.5 360.5 0 0 1 91.4757 348.701C 88.93540276088004 345.39813835959865 86.81389092080775 342.33433373183834 85.0517153781188 339.5628972150639 C 84.34780638905451 338.45580869783 83.70143120679906 337.3956188019916 83.10864286320276 336.3855063506948 A 2.625 2.625 0 0 0 80.1575 335.302A 344.75 344.75 0 0 1 79.2384 335.52A 2.625 2.625 0 0 0 77.0902 337.816C 77.01511819067335 338.9843724169625 76.91473430841522 340.2220018314709 76.78406245005709 341.5273974478685 C 76.45690779927337 344.7952855800163 75.94033997799683 348.4859317254323 75.15741849331096 352.57882669478647 A 360.5 360.5 0 0 1 69.6202 353.714C 67.29008883152993 350.2590809551712 65.36315647291092 347.06930933796116 63.776688891055095 344.1936800813492 C 63.142968837277934 343.04497135268144 62.56375562646059 341.94664738049096 62.034912299197465 340.90163545722044 A 2.625 2.625 0 0 0 59.1568 339.637A 344.75 344.75 0 0 1 58.226 339.797A 2.625 2.625 0 0 0 55.9392 341.955C 55.791604397188166 343.11664204994923 55.6144717258251 344.34563656100664 55.40289666730826 345.64038319432547 C 54.8732114450765 348.88161082828015 54.12819674132572 352.53300294305603 53.092335945914115 356.5693066598094 A 360.5 360.5 0 0 1 47.4952 357.358C 45.38444262074691 353.7649392103753 43.65954467053697 350.46154121043435 42.254922784389855 347.4928444649384 C 41.69384340567687 346.30695965575165 41.18403302968818 345.17475080928915 40.72118071085449 344.09888236216443 A 2.625 2.625 0 0 0 37.9273 342.657A 344.75 344.75 0 0 1 36.9883 342.76A 2.625 2.625 0 0 0 34.5718 344.771C 34.35224372476842 345.92146005115006 34.09904755619484 347.13706491774667 33.8073878403186 348.4161534447892 C 33.07722129586316 351.61818090049906 32.10664202679505 355.2161924578884 30.821849464841396 359.1802892470822 A 360.5 360.5 0 0 1 25.1865 359.619C 23.30321281817229 355.9021496406946 21.78702257144971 352.49790546314273 20.56968059021687 349.4476265397507 C 20.08341259368499 348.2291536079932 19.644977409830226 347.06744018333467 19.249906785130527 345.9648775383717 A 2.625 2.625 0 0 0 16.5511 344.352A 344.75 344.75 0 0 1 15.6075 344.397A 2.625 2.625 0 0 0 13.0706 346.253C 12.779980894891432 347.38797512460263 12.451700795895855 348.58548740766156 12.081084797441015 349.84396928340163 C 11.153261803275004 352.99440853868947 9.960872951529876 356.52511953095234 8.432119235863327 360.4016730722031 A 360.5 360.5 0 0 1 2.7804 360.49C 1.131827412253899 356.6624437941641 -0.16978928546278294 353.17052379839134 -1.1951417021455564 350.05046363368865 C -1.6047170400836706 348.8041166144241 -1.9700808112517478 347.6173930551267 -2.2958412903197507 346.4924018130072 A 2.625 2.625 0 0 0 -4.88922 344.715A 344.75 344.75 0 0 1 -5.83375 344.701A 2.625 2.625 0 0 0 -8.48113 346.396C -8.84172519833701 347.5105136083834 -9.243819175825625 348.6853003655189 -9.691957615559563 349.918306768061 C -10.813847492517294 353.004969385475 -12.223432806114069 356.4547201776837 -13.990233224354277 360.22873283842745 A 360.5 360.5 0 0 1 -19.6365 359.965C -21.043936814045658 356.0428802404042 -22.125944260614386 352.47679398650877 -22.955340223439283 349.2990234871474 C -23.286638335368192 348.0296242548689 -23.57751717239713 346.8224817638422 -23.832707201824498 345.67941429713284 A 2.625 2.625 0 0 0 -26.3106 343.745A 344.75 344.75 0 0 1 -27.2524 343.671A 2.625 2.625 0 0 0 -30.0001 345.199C -30.429224374430106 346.28860142490385 -30.903576606926524 347.4361176343751 -31.427503727374827 348.63887830148036 C -32.739120113136714 351.6498225829912 -34.360448476843004 355.00526675950397 -36.358460190070055 358.6621376179231 A 360.5 360.5 0 0 1 -41.9774 358.048C -43.138286136958044 354.0458559504437 -43.99649825576659 350.41939993336825 -44.62672899287786 347.1962132760737 C -44.87846815076286 345.90867288980843 -45.09373669994041 344.6857816668419 -45.27736899907834 343.529060281511 A 2.625 2.625 0 0 0 -47.6302 341.444A 344.75 344.75 0 0 1 -48.5656 341.312A 2.625 2.625 0 0 0 -51.4029 342.666C -51.89899879281849 343.7269659150244 -52.44377410368625 344.8427720595417 -53.04146293260176 346.01063374384614 C -54.53773143817532 348.9342109309562 -56.36453024752284 352.1823669301069 -58.586023336566385 355.7079482632603 A 360.5 360.5 0 0 1 -64.1559 354.746C -65.0657418111602 350.67909702330394 -65.69683834624334 347.0063012968772 -66.12546561735225 343.75016836466705 C -66.29667189129616 342.44946806804256 -66.43549732042516 341.21555924171025 -66.546861451582 340.04965906808474 A 2.625 2.625 0 0 0 -68.7655 337.822A 344.75 344.75 0 0 1 -69.6909 337.633A 2.625 2.625 0 0 0 -72.6069 338.807C -73.16798606714997 339.83551754889106 -73.7810768265433 340.91529679124585 -74.45021502195824 342.0437412627701 C -76.12534687517129 344.86864060329754 -78.15054860045376 347.9969419405356 -80.5869285401155 351.37759395915 A 360.5 360.5 0 0 1 -86.0862 350.071C -86.74147077043361 345.9556287952234 -87.14301013189848 342.2507026926072 -87.36837566136133 338.97422083123644 C -87.45838668755 337.665392781017 -87.52023190801438 336.42524010486 -87.55889702500112 335.25467178421536 A 2.625 2.625 0 0 0 -89.6347 332.894A 344.75 344.75 0 0 1 -90.5466 332.647A 2.625 2.625 0 0 0 -93.53 333.638C -94.15390061752667 334.62931158425175 -94.8329348964009 335.66888646832086 -95.57093369262884 336.75354799462434 C -97.41844813376446 339.468840501806 -99.63421766293699 342.4651843869839 -102.27605857253904 345.6878280051491 A 360.5 360.5 0 0 1 -107.683 344.042C -108.08161383031798 339.8937254471615 -108.25204254038098 336.17100260770127 -108.27327443274541 332.88684788897865 C -108.28174197600472 331.57495568662813 -108.266367720661 330.3333570704296 -108.23218423565135 329.16264930419544 A 2.625 2.625 0 0 0 -110.157 326.677A 344.75 344.75 0 0 1 -111.052 326.374A 2.625 2.625 0 0 0 -114.091 327.178C -114.77555201742766 328.1284898205886 -115.5179027640719 329.12383843310096 -116.32190698713919 330.16052066945247 C -118.33465634173602 332.7557014040703 -120.73242129294158 335.6084955647876 -123.56950240322772 338.66066300039876 A 360.5 360.5 0 0 1 -128.864 336.682C -129.00361012300402 332.5168393055431 -128.94226882609462 328.79072222070187 -128.75928493929374 325.51160040123057 C -128.6861762403438 324.2017195028223 -128.59364198919917 322.96347845042635 -128.4867421514559 321.79716047952013 A 2.625 2.625 0 0 0 -130.254 319.197A 344.75 344.75 0 0 1 -131.128 318.839A 2.625 2.625 0 0 0 -134.211 319.452C -134.95315910369715 320.3582026744087 -135.75595430728703 321.3054742049461 -136.62285342104622 322.2901664291666 C -138.7930507528625 324.7551951411169 -141.36353463931195 327.45340267097004 -144.38487983461823 330.3232856811548 A 360.5 360.5 0 0 1 -149.546 328.019C -149.42651650929295 323.8535101097631 -149.13364252297228 320.13841440267976 -148.74715078611632 316.87701176775346 C -148.59274868831073 315.5742098480166 -148.42341243840656 314.34411687350536 -148.24420982263476 313.18670095557917 A 2.625 2.625 0 0 0 -149.846 310.482A 344.75 344.75 0 0 1 -150.696 310.07A 2.625 2.625 0 0 0 -153.812 310.49C -154.60865863436516 311.348511877169 -155.46879243621473 312.24404151620365 -156.3952325764048 313.17293414537096 C -158.71448181356192 315.4982741174413 -161.44773993245917 318.0314561756705 -164.64166021517323 320.7079517405866 A 360.5 360.5 0 0 1 -169.65 318.087C -169.27132073187659 313.93725459747935 -168.74804712870196 310.24755325172345 -168.1595428032382 307.01648753455333 C -167.92444465829809 305.7258048810236 -167.67896153868872 304.5086189751487 -167.42814944499565 303.36458292754105 A 2.625 2.625 0 0 0 -168.859 300.565A 344.75 344.75 0 0 1 -169.682 300.101A 2.625 2.625 0 0 0 -172.817 300.327C -173.66600730016637 301.13427417227666 -174.5801520096921 301.97459728960695 -175.56254895938753 302.8440966185923 C -178.02187737714095 305.0207515621679 -180.90733528380645 307.3791077595041 -184.26147399682833 309.85186103776607 A 360.5 360.5 0 0 1 -189.097 306.925C -188.46124709841234 302.80643683486574 -187.7095983222995 299.1564045881561 -186.92135821713606 295.9681761543118 C -186.60647357411236 294.6946061674384 -186.28579331129828 293.49503638601044 -185.96434208294988 292.3688062619409 A 2.625 2.625 0 0 0 -187.218 289.486A 344.75 344.75 0 0 1 -188.01 288.972A 2.625 2.625 0 0 0 -191.154 289.002C -192.05147592133017 289.7550064611206 -193.0160948902392 290.53687200985297 -194.0506479464891 291.3436141146676 C -196.6405408809573 293.3631629746246 -199.66703529929993 295.53756928909144 -203.16841593154808 297.79701367864055 A 360.5 360.5 0 0 1 -207.813 294.575C -206.92205351176085 290.50411979349343 -205.9449375458039 286.907877911511 -204.96001120877844 283.77482139743483 C -204.56655829518328 282.5232912720841 -204.17192153880364 281.3459785175504 -203.78107480815498 280.24191148257944 A 2.625 2.625 0 0 0 -204.853 277.286A 344.75 344.75 0 0 1 -205.612 276.724A 2.625 2.625 0 0 0 -208.752 276.559C -209.69393469145467 277.2547329198571 -210.7052959963501 277.97511601407416 -211.78800267435957 278.71597976623815 C -214.49844033291035 280.5706093003693 -217.65426234397412 282.552653376352 -221.28933873398572 284.590047525781 A 360.5 360.5 0 0 1 -225.724 281.086C -224.58231869823803 277.07789874805866 -223.38351581428768 273.54936039201306 -222.20571373405932 270.48359698470796 C -221.73521474278036 269.25894864780366 -221.26814826578067 268.10844771449825 -220.80941814290387 267.0308151895002 A 2.625 2.625 0 0 0 -221.696 264.014A 344.75 344.75 0 0 1 -222.418 263.406A 2.625 2.625 0 0 0 -225.541 263.046C -226.52512836490905 263.6818146784241 -227.57931924537655 264.3379282958812 -228.70599076334278 265.01004743746296 C -231.5264869892243 266.6925824443945 -234.79942733072102 268.4745961384091 -238.55413607411924 270.2820577655527 A 360.5 360.5 0 0 1 -242.763 266.509C -241.37371852264732 262.5797171395121 -239.95786665617354 259.13253353882374 -238.59174552018234 256.14592408133524 C -238.0460207204144 254.95289545938388 -237.5083315122584 253.83365741191312 -236.9834927348827 252.7866285477785 A 2.625 2.625 0 0 0 -237.68 249.721A 344.75 344.75 0 0 1 -238.364 249.069A 2.625 2.625 0 0 0 -241.459 248.516C -242.47994032311965 249.08876272072507 -243.5728823194374 249.67806848529767 -244.73915980413267 250.278842717909 C -247.65880264537685 251.78277379656032 -251.03619894695024 253.35786284381152 -254.89601380502356 254.92839923076482 A 360.5 360.5 0 0 1 -258.862 250.901C -257.2312903210864 247.06566561597617 -255.603867127907 243.7131732543213 -254.05471219343565 240.81727235844025 C -253.43587288841255 239.6604790474139 -252.82964116419123 238.57683400035222 -252.24072423158736 237.56445954835294 A 2.625 2.625 0 0 0 -252.746 234.461A 344.75 344.75 0 0 1 -253.387 233.768A 2.625 2.625 0 0 0 -256.442 233.024C -257.49664449811627 233.5320347298333 -258.6241092300233 234.05225273200105 -259.82548058042875 234.5793577768467 C -262.8329745060736 235.89886651003906 -266.3017602775502 237.2609371969912 -270.25174837644806 238.58847224357672 A 360.5 360.5 0 0 1 -273.959 234.322C -272.0936842288727 230.59576502892438 -270.2609858931671 227.35093404797107 -268.5347905397071 224.5569453916851 C -267.84523089847977 223.4408628001771 -267.1728020509633 222.3970031656949 -266.52208536833626 221.42319980591472 A 2.625 2.625 0 0 0 -266.833 218.295A 344.75 344.75 0 0 1 -267.43 217.563A 2.625 2.625 0 0 0 -270.432 216.63C -271.5171441786989 217.07181666418367 -272.67476970417687 217.52093428155743 -273.90658704792486 217.97233087161814 C -276.9902966482295 219.10231233640005 -280.5370518313306 220.24609507617092 -284.5619314344515 221.32549280718996 A 360.5 360.5 0 0 1 -287.997 216.837C -285.9034005312526 213.23373422416668 -283.87251740684854 210.10911824461604 -281.9759599488792 207.427851227256 C -281.2183477437408 206.35679726199461 -280.4823232695094 205.3567615302301 -279.7723243332913 204.42529671868994 A 2.625 2.625 0 0 0 -279.888 201.284A 344.75 344.75 0 0 1 -280.439 200.516A 2.625 2.625 0 0 0 -283.377 199.398C -284.48719677532654 199.77178990979178 -285.67050446610597 200.14806959355874 -286.92800214119524 200.52201136311913 C -290.07599714277967 201.45809388072166 -293.68700003072007 202.37916360009055 -297.7711996607816 203.20624803541332 A 360.5 360.5 0 0 1 -300.921 198.513C -298.607012118627 195.04674352601367 -296.3858012977988 192.05443108008018 -294.32621914768634 189.49625900285406 C -293.5034854330793 188.47437736356025 -292.7067128678382 187.5220344784854 -291.94017852598387 186.63651187158806 A 2.625 2.625 0 0 0 -291.861 183.494A 344.75 344.75 0 0 1 -292.362 182.693A 2.625 2.625 0 0 0 -295.226 181.395C -296.35662367415824 181.698884909343 -297.56103554266144 182.00087090650547 -298.83934853487756 182.29591114750372 C -302.0394499566328 183.0344731965164 -305.70073028073847 183.7292664556727 -309.8284489627979 184.30083776629428 A 360.5 360.5 0 0 1 -312.68 179.42C -310.15537118565913 176.10515486834112 -307.7524261015643 173.25672263156997 -305.537787382538 170.83154256527564 C -304.65311515537405 169.86278671349382 -303.79867705739144 168.96182110472205 -302.978572882357 168.1256666174056 A 2.625 2.625 0 0 0 -302.704 164.994A 344.75 344.75 0 0 1 -303.155 164.164A 2.625 2.625 0 0 0 -305.932 162.69C -307.0795043683628 162.92302222131156 -308.30036077904816 163.14954620671247 -309.59454354375856 163.36454346577284 C -312.8343708149585 163.90272769310639 -316.5317637929221 164.36855647190595 -320.6870321852788 164.68240335946314 A 360.5 360.5 0 0 1 -323.23 159.634C -320.5037993745859 156.48224957793633 -317.9284165549414 153.78871758129475 -315.5672892739737 151.50591207647574 C -314.6241011592369 150.59402994039894 -313.7153031835246 149.74792726884255 -312.84480199904397 148.96437582038106 A 2.625 2.625 0 0 0 -312.376 145.856A 344.75 344.75 0 0 1 -312.774 144.999A 2.625 2.625 0 0 0 -315.454 143.356C -316.61435411563815 143.51684201090336 -317.8469318122252 143.66702760724942 -319.1519774077304 143.80115010174347 C -322.418996266055 144.13687437717388 -326.13819740272686 144.37193647456675 -330.3049395792031 144.42684472642176 A 360.5 360.5 0 0 1 -332.529 139.23C -329.61226062710455 136.25394486328125 -326.87440372772716 133.72573385879926 -324.3759226275785 131.59413464647957 C -323.37786763685426 130.7426541209435 -322.4182257462307 129.95468779346874 -321.5006953522768 129.22677079219795 A 2.625 2.625 0 0 0 -320.839 126.153A 344.75 344.75 0 0 1 -321.184 125.274A 2.625 2.625 0 0 0 -323.756 123.467C -324.9242844346207 123.55542301936828 -326.16381481345064 123.62868918776331 -327.47467427186916 123.68141802381545 C -330.75624525603007 123.8133834953413 -334.4828656847313 123.81676950173757 -338.6449613293076 123.61252668853079 A 360.5 360.5 0 0 1 -340.541 118.288C -337.4455160761042 115.49850010562078 -334.55577733346183 113.1453912505263 -331.92960855213585 111.17324507395863 C -330.88054796629393 110.38546037170181 -329.87377482880703 109.65867887695367 -328.9127649722279 108.98921249234115 A 2.625 2.625 0 0 0 -328.062 105.963A 344.75 344.75 0 0 1 -328.351 105.063A 2.625 2.625 0 0 0 -330.806 103.1C -331.9771458192529 103.11599209893608 -333.21883337809015 103.11205538680778 -334.5304352388344 103.08318656679481 C -337.8138625881955 103.01088268564332 -341.5334847384473 102.78257950124203 -345.67483151163356 102.3199757987401 A 360.5 360.5 0 0 1 -347.237 96.8876C -343.9732603779971 94.29621408862073 -340.9428196299037 92.12731110394229 -338.1991233042368 90.32224781356044 C -337.1031157348858 89.60120672055524 -336.0531063602215 88.9384218349471 -335.05233500145965 88.32999610237954 A 2.625 2.625 0 0 0 -334.015 85.3623A 344.75 344.75 0 0 1 -334.247 84.4468A 2.625 2.625 0 0 0 -336.576 82.3345C -337.7456521189772 82.27762543712699 -338.9846930098758 82.19650107484982 -340.29196294014776 82.08614628662812 C -343.56454371215654 81.80985278246919 -347.2627770884603 81.35074366793894 -351.3673529241186 80.63156879999813 A 360.5 360.5 0 0 1 -352.588 75.1126C -349.1702389582058 72.7291143379722 -346.0108203912004 70.75280828801084 -343.16021134926666 69.12181132302075 C -342.02149703677406 68.47030340718136 -340.9323137072205 67.8740793166783 -339.895652636246 67.32904811711784 A 2.625 2.625 0 0 0 -338.676 64.4316A 344.75 344.75 0 0 1 -338.851 63.5034A 2.625 2.625 0 0 0 -341.043 61.2504C -342.20748610355156 61.12094262634449 -343.43908671800955 60.962944468316316 -344.73696714440865 60.771530653123165 C -347.9860403598132 60.29231645184964 -351.6485772156815 59.604177611164715 -355.7005023072882 58.63121392563701 A 360.5 360.5 0 0 1 -356.576 53.047C -353.01634571620593 50.880639772830506 -349.740172506953 49.104576601762105 -346.7936792013556 47.653955972572106 C -345.6166636101817 47.07450179145831 -344.49252016444836 46.54714517123969 -343.4239800215555 46.067617124515756 A 2.625 2.625 0 0 0 -342.026 43.2517A 344.75 344.75 0 0 1 -342.143 42.3143A 2.625 2.625 0 0 0 -344.192 39.9294C -345.3453858040775 39.7277947623345 -346.56478131857716 39.49353407273486 -347.8482509938693 39.22180177343585 C -351.0612466195877 38.54152086169685 -354.6739173114357 37.627014570349075 -358.6575155479675 36.40402627471885 A 360.5 360.5 0 0 1 -359.184 30.7762C -355.49670081212315 28.835317896846732 -352.1164478383163 27.26636884804934 -349.0854696792477 26.001736724065786 C -347.87470645405915 25.496578073335368 -346.7199519847534 25.040129163716742 -345.6236667441728 24.627959470685536 A 2.625 2.625 0 0 0 -344.053 21.9044A 344.75 344.75 0 0 1 -344.112 20.9616A 2.625 2.625 0 0 0 -346.008 18.4539C -347.1472112962047 18.18094777819605 -348.3496841063891 17.871330866123845 -349.6137775357365 17.520331362196277 C -352.77826511587233 16.64161561468306 -356.32709292261677 15.504279919855087 -360.226952536379 14.035998518251649 A 360.5 360.5 0 0 1 -360.403 8.38633C -356.6017082339429 6.678437777676193 -353.1304530376655 5.322672810224296 -350.0267162908036 4.24892180745836 C -348.7868896393071 3.8200130477952463 -347.6059916671398 3.43623776093487 -346.48620264349495 3.0930210260676922 A 2.625 2.625 0 0 0 -344.75 0.472323A 344.75 344.75 0 0 1 -344.75 -0.472323A 2.625 2.625 0 0 0 -346.486 -3.09302C -347.60599166713973 -3.436237760934632 -348.7868896393071 -3.8200130477950065 -350.0267162908036 -4.248921807458118 C -353.1304530376655 -5.322672810224055 -356.6017082339429 -6.678437777675948 -360.4027414257045 -8.3863317897487 A 360.5 360.5 0 0 1 -360.227 -14.036C -356.32709292261677 -15.504279919854842 -352.77826511587233 -16.64161561468282 -349.6137775357365 -17.520331362196035 C -348.3496841063891 -17.871330866123607 -347.1472112962048 -18.18094777819581 -346.0082507356899 -18.453883716027512 A 2.625 2.625 0 0 0 -344.112 -20.9616A 344.75 344.75 0 0 1 -344.053 -21.9044A 2.625 2.625 0 0 0 -345.624 -24.628C -346.7199519847534 -25.040129163716664 -347.87470645405915 -25.49657807333529 -349.0854696792477 -26.001736724065708 C -352.1164478383163 -27.266368848049254 -355.4967008121231 -28.835317896846647 -359.1842021228814 -30.776217009243773 A 360.5 360.5 0 0 1 -358.658 -36.404C -354.67391731143573 -37.62701457034899 -351.0612466195877 -38.54152086169677 -347.8482509938693 -39.22180177343577 C -346.56478131857716 -39.49353407273478 -345.3453858040775 -39.72779476233442 -344.19166012383863 -39.92939396700967 A 2.625 2.625 0 0 0 -342.143 -42.3143A 344.75 344.75 0 0 1 -342.026 -43.2517A 2.625 2.625 0 0 0 -343.424 -46.0676C -344.49252016444836 -46.54714517123961 -345.6166636101817 -47.07450179145823 -346.79367920135564 -47.65395597257203 C -349.74017250695306 -49.10457660176203 -353.016345716206 -50.88063977283043 -356.57604891975 -53.04703502393908 A 360.5 360.5 0 0 1 -355.701 -58.6312C -351.64857721568154 -59.60417761116464 -347.9860403598133 -60.292316451849565 -344.7369671444087 -60.77153065312309 C -343.43908671800955 -60.96294446831624 -342.20748610355156 -61.12094262634441 -341.04345884411447 -61.25042514970443 A 2.625 2.625 0 0 0 -338.851 -63.5034A 344.75 344.75 0 0 1 -338.676 -64.4316A 2.625 2.625 0 0 0 -339.896 -67.329C -340.93231370722054 -67.87407931667808 -342.02149703677406 -68.47030340718115 -343.16021134926666 -69.12181132302052 C -346.01082039120047 -70.75280828801061 -349.17023895820586 -72.72911433797198 -352.5883722543747 -75.11262436542513 A 360.5 360.5 0 0 1 -351.367 -80.6316C -347.2627770884604 -81.35074366793872 -343.5645437121566 -81.80985278246897 -340.29196294014787 -82.0861462866279 C -338.9846930098758 -82.1965010748496 -337.74565211897726 -82.27762543712676 -336.57582667567635 -82.33449033644288 A 2.625 2.625 0 0 0 -334.247 -84.4468A 344.75 344.75 0 0 1 -334.015 -85.3623A 2.625 2.625 0 0 0 -335.052 -88.33C -336.05310636022153 -88.9384218349469 -337.1031157348859 -89.60120672055501 -338.1991233042369 -90.32224781356021 C -340.9428196299037 -92.12731110394208 -343.9732603779972 -94.2962140886205 -347.236599673099 -96.88761755515972 A 360.5 360.5 0 0 1 -345.675 -102.32C -341.5334847384474 -102.7825795012418 -337.8138625881955 -103.01088268564311 -334.53043523883446 -103.08318656679461 C -333.2188333780902 -103.11205538680758 -331.97714581925294 -103.11599209893586 -330.8060480194697 -103.10001937495961 A 2.625 2.625 0 0 0 -328.351 -105.063A 344.75 344.75 0 0 1 -328.062 -105.963A 2.625 2.625 0 0 0 -328.913 -108.989C -329.87377482880703 -109.6586788769536 -330.880547966294 -110.38546037170174 -331.9296085521359 -111.17324507395854 C -334.5557773334619 -113.14539125052622 -337.44551607610424 -115.49850010562069 -340.54143614436623 -118.28777137465862 A 360.5 360.5 0 0 1 -338.645 -123.613C -334.48286568473134 -123.81676950173748 -330.7562452560301 -123.81338349534121 -327.4746742718692 -123.68141802381537 C -326.1638148134507 -123.62868918776324 -324.9242844346207 -123.5554230193682 -323.7564450282366 -123.46667446746568 A 2.625 2.625 0 0 0 -321.184 -125.274A 344.75 344.75 0 0 1 -320.839 -126.153A 2.625 2.625 0 0 0 -321.501 -129.227C -322.4182257462308 -129.95468779346854 -323.3778676368543 -130.74265412094329 -324.3759226275786 -131.59413464647938 C -326.8744037277272 -133.72573385879903 -329.61226062710466 -136.25394486328105 -332.5287839552183 -139.23029278614163 A 360.5 360.5 0 0 1 -330.305 -144.427C -326.138197402727 -144.37193647456655 -322.41899626605505 -144.13687437717365 -319.15197740773044 -143.80115010174327 C -317.84693181222525 -143.6670276072492 -316.61435411563826 -143.51684201090316 -315.45429124644374 -143.35566098198072 A 2.625 2.625 0 0 0 -312.774 -144.999A 344.75 344.75 0 0 1 -312.376 -145.856A 2.625 2.625 0 0 0 -312.845 -148.964C -313.7153031835247 -149.74792726884235 -314.624101159237 -150.59402994039874 -315.5672892739738 -151.50591207647554 C -317.9284165549415 -153.78871758129452 -320.50379937458604 -156.48224957793613 -323.22964250037967 -159.63415924271263 A 360.5 360.5 0 0 1 -320.687 -164.682C -316.5317637929222 -164.36855647190575 -312.8343708149586 -163.90272769310616 -309.5945435437587 -163.36454346577264 C -308.3003607790483 -163.14954620671227 -307.0795043683629 -162.92302222131136 -305.9317060942367 -162.6900322934577 A 2.625 2.625 0 0 0 -303.155 -164.164A 344.75 344.75 0 0 1 -302.704 -164.994A 2.625 2.625 0 0 0 -302.979 -168.126C -303.7986770573915 -168.961821104722 -304.6531151553741 -169.86278671349376 -305.53778738253806 -170.8315425652756 C -307.75242610156437 -173.25672263156994 -310.1553711856592 -176.10515486834106 -312.67998835162086 -179.42043214885305 A 360.5 360.5 0 0 1 -309.828 -184.301C -305.7007302807385 -183.72926645567264 -302.03944995663284 -183.03447319651636 -298.8393485348776 -182.2959111475037 C -297.5610355426615 -182.0008709065054 -296.3566236741583 -181.69888490934295 -295.22553060364345 -181.3949874753267 A 2.625 2.625 0 0 0 -292.362 -182.693A 344.75 344.75 0 0 1 -291.861 -183.494A 2.625 2.625 0 0 0 -291.94 -186.637C -292.7067128678382 -187.52203447848535 -293.50348543307933 -188.47437736356017 -294.32621914768634 -189.49625900285398 C -296.3858012977989 -192.0544310800801 -298.60701211862704 -195.04674352601359 -300.92063607139215 -198.51256225851233 A 360.5 360.5 0 0 1 -297.771 -203.206C -293.6870000307201 -202.37916360009046 -290.0759971427797 -201.45809388072158 -286.92800214119524 -200.52201136311905 C -285.670504466106 -200.14806959355866 -284.48719677532654 -199.77178990979172 -283.3771848877786 -199.39816068974773 A 2.625 2.625 0 0 0 -280.439 -200.516A 344.75 344.75 0 0 1 -279.888 -201.284A 2.625 2.625 0 0 0 -279.772 -204.425C -280.4823232695095 -205.3567615302299 -281.21834774374094 -206.35679726199442 -281.97595994887934 -207.42785122725581 C -283.87251740684866 -210.10911824461584 -285.9034005312527 -213.23373422416648 -287.99708030920914 -216.83668582927086 A 360.5 360.5 0 0 1 -284.562 -221.325C -280.5370518313307 -220.24609507617072 -276.9902966482296 -219.10231233639985 -273.906587047925 -217.97233087161794 C -272.674769704177 -217.52093428155723 -271.517144178699 -217.07181666418347 -270.43250789447205 -216.62990115698028 A 2.625 2.625 0 0 0 -267.43 -217.563A 344.75 344.75 0 0 1 -266.833 -218.295A 2.625 2.625 0 0 0 -266.522 -221.423C -267.1728020509634 -222.3970031656947 -267.8452308984799 -223.4408628001769 -268.5347905397073 -224.5569453916849 C -270.2609858931673 -227.3509340479709 -272.0936842288728 -230.59576502892418 -273.9593197916929 -234.3219103868093 A 360.5 360.5 0 0 1 -270.252 -238.588C -266.30176027755033 -237.260937196991 -262.83297450607375 -235.89886651003889 -259.8254805804289 -234.5793577768465 C -258.6241092300234 -234.05225273200085 -257.4966444981164 -233.5320347298331 -256.4415800642848 -233.02354262071833 A 2.625 2.625 0 0 0 -253.387 -233.768A 344.75 344.75 0 0 1 -252.746 -234.461A 2.625 2.625 0 0 0 -252.241 -237.564C -252.8296411641913 -238.57683400035214 -253.43587288841258 -239.66047904741382 -254.0547121934357 -240.81727235844016 C -255.60386712790705 -243.71317325432122 -257.2312903210865 -247.0656656159761 -258.8616638872095 -250.90058899412003 A 360.5 360.5 0 0 1 -254.896 -254.928C -251.0361989469503 -253.35786284381143 -247.6588026453769 -251.78277379656024 -244.73915980413273 -250.2788427179089 C -243.57288231943744 -249.6780684852976 -242.4799403231197 -249.088762720725 -241.4585295790136 -248.51566126688545 A 2.625 2.625 0 0 0 -238.364 -249.069A 344.75 344.75 0 0 1 -237.68 -249.721A 2.625 2.625 0 0 0 -236.983 -252.787C -237.50833151225862 -253.83365741191298 -238.04602072041462 -254.95289545938377 -238.5917455201826 -256.14592408133507 C -239.95786665617376 -259.13253353882357 -241.37371852264758 -262.57971713951196 -242.7625224934742 -266.50858196436457 A 360.5 360.5 0 0 1 -238.554 -270.282C -234.79942733072127 -268.4745961384089 -231.52648698922454 -266.6925824443943 -228.70599076334304 -265.0100474374628 C -227.57931924537678 -264.33792829588117 -226.52512836490928 -263.68181467842396 -225.54132295027102 -263.04632109804976 A 2.625 2.625 0 0 0 -222.418 -263.406A 344.75 344.75 0 0 1 -221.696 -264.014A 2.625 2.625 0 0 0 -220.809 -267.031C -221.26814826578072 -268.1084477144982 -221.73521474278044 -269.2589486478036 -222.2057137340594 -270.48359698470784 C -223.38351581428776 -273.549360392013 -224.58231869823808 -277.07789874805854 -225.72418006100435 -281.08550500486194 A 360.5 360.5 0 0 1 -221.289 -284.59C -217.65426234397418 -282.5526533763519 -214.49844033291043 -280.57060930036926 -211.78800267435966 -278.71597976623804 C -210.70529599635017 -277.9751160140741 -209.69393469145473 -277.254732919857 -208.75154075831244 -276.55930581415504 A 2.625 2.625 0 0 0 -205.612 -276.724A 344.75 344.75 0 0 1 -204.853 -277.286A 2.625 2.625 0 0 0 -203.781 -280.242C -204.17192153880387 -281.34597851755024 -204.5665582951835 -282.52329127208395 -204.9600112087787 -283.77482139743466 C -205.94493754580415 -286.9078779115108 -206.9220535117611 -290.50411979349326 -207.81255462668054 -294.5749628321862 A 360.5 360.5 0 0 1 -203.168 -297.797C -199.66703529930018 -295.53756928909127 -196.64054088095756 -293.3631629746244 -194.05064794648936 -291.34361411466745 C -193.01609489023943 -290.5368720098528 -192.0514759213304 -289.75500646112044 -191.15413940873518 -289.00233630246413 A 2.625 2.625 0 0 0 -188.01 -288.972A 344.75 344.75 0 0 1 -187.218 -289.486A 2.625 2.625 0 0 0 -185.964 -292.369C -186.28579331129833 -293.4950363860104 -186.60647357411244 -294.69460616743834 -186.92135821713615 -295.9681761543117 C -187.70959832229957 -299.1564045881561 -188.46124709841243 -302.8064368348657 -189.09694278966663 -306.92476735456285 A 360.5 360.5 0 0 1 -184.261 -309.852C -180.90733528380653 -307.37910775950405 -178.021877377141 -305.0207515621679 -175.5625489593876 -302.84409661859223 C -174.5801520096922 -301.9745972896069 -173.66600730016648 -301.1342741722766 -172.81719982876248 -300.3272728952905 A 2.625 2.625 0 0 0 -169.682 -300.101A 344.75 344.75 0 0 1 -168.859 -300.565A 2.625 2.625 0 0 0 -167.428 -303.365C -167.67896153868878 -304.50861897514864 -167.92444465829817 -305.72580488102346 -168.15954280323825 -307.0164875345532 C -168.74804712870204 -310.24755325172333 -169.27132073187667 -313.9372545974793 -169.64975161633097 -318.08713957745624 A 360.5 360.5 0 0 1 -164.642 -320.708C -161.44773993245926 -318.0314561756704 -158.714481813562 -315.4982741174412 -156.39523257640485 -313.17293414537096 C -155.4687924362148 -312.24404151620354 -154.6086586343652 -311.34851187716896 -153.81166407536392 -310.49030161302 A 2.625 2.625 0 0 0 -150.696 -310.07A 344.75 344.75 0 0 1 -149.846 -310.482A 2.625 2.625 0 0 0 -148.244 -313.187C -148.42341243840676 -314.3441168735053 -148.59274868831093 -315.57420984801655 -148.74715078611655 -316.8770117677534 C -149.1336425229725 -320.13841440267964 -149.42651650929315 -323.85351010976296 -149.54621851137233 -328.01889445121884 A 360.5 360.5 0 0 1 -144.385 -330.323C -141.36353463931215 -327.4534026709699 -138.79305075286274 -324.75519514111676 -136.62285342104644 -322.29016642916656 C -135.75595430728723 -321.30547420494605 -134.95315910369735 -320.35820267440863 -134.21106087421762 -319.4521036718866 A 2.625 2.625 0 0 0 -131.128 -318.839A 344.75 344.75 0 0 1 -130.254 -319.197A 2.625 2.625 0 0 0 -128.487 -321.797C -128.5936419891993 -322.96347845042624 -128.68617624034394 -324.20171950282224 -128.7592849392939 -325.5116004012304 C -128.9422688260948 -328.79072222070175 -129.0036101230042 -332.51683930554304 -128.86412013891632 -336.6816079456582 A 360.5 360.5 0 0 1 -123.57 -338.661C -120.73242129294174 -335.6084955647875 -118.33465634173618 -332.7557014040703 -116.32190698713934 -330.1605206694524 C -115.51790276407206 -329.1238384331009 -114.77555201742781 -328.12848982058847 -114.09122115135416 -327.17800760070884 A 2.625 2.625 0 0 0 -111.052 -326.374A 344.75 344.75 0 0 1 -110.157 -326.677A 2.625 2.625 0 0 0 -108.232 -329.163C -108.2663677206613 -330.3333570704295 -108.28174197600502 -331.5749556866281 -108.27327443274571 -332.88684788897854 C -108.25204254038128 -336.1710026077012 -108.08161383031828 -339.89372544716144 -107.68347151971354 -344.04176570514517 A 360.5 360.5 0 0 1 -102.276 -345.688C -99.63421766293729 -342.4651843869838 -97.41844813376476 -339.46884050180597 -95.57093369262914 -336.7535479946242 C -94.8329348964012 -335.6688864683208 -94.15390061752697 -334.62931158425164 -93.5299846580372 -333.6381233780757 A 2.625 2.625 0 0 0 -90.5466 -332.647A 344.75 344.75 0 0 1 -89.6347 -332.894A 2.625 2.625 0 0 0 -87.5589 -335.255C -87.52023190801461 -336.42524010486 -87.45838668755023 -337.6653927810169 -87.36837566136157 -338.9742208312364 C -87.1430101318987 -342.2507026926072 -86.74147077043385 -345.9556287952234 -86.08621646856594 -350.07089270914565 A 360.5 360.5 0 0 1 -80.5869 -351.378C -78.150548600454 -347.9969419405356 -76.12534687517154 -344.86864060329754 -74.45021502195848 -342.04374126277 C -73.78107682654353 -340.9152967912458 -73.1679860671502 -339.83551754889106 -72.60689882388517 -338.8074580710331 A 2.625 2.625 0 0 0 -69.6909 -337.633A 344.75 344.75 0 0 1 -68.7655 -337.822A 2.625 2.625 0 0 0 -66.5469 -340.05C -66.43549732042524 -341.21555924171025 -66.29667189129624 -342.44946806804256 -66.12546561735233 -343.75016836466705 C -65.69683834624342 -347.0063012968772 -65.06574181116028 -350.67909702330394 -64.15591056962872 -354.7456634365426 A 360.5 360.5 0 0 1 -58.586 -355.708C -56.36453024752293 -352.1823669301069 -54.537731438175406 -348.9342109309562 -53.041462932601846 -346.01063374384614 C -52.44377410368634 -344.8427720595417 -51.898998792818574 -343.7269659150244 -51.40291100332166 -342.66601252788604 A 2.625 2.625 0 0 0 -48.5656 -341.312A 344.75 344.75 0 0 1 -47.6302 -341.444A 2.625 2.625 0 0 0 -45.2774 -343.529C -45.09373669994072 -344.6857816668418 -44.878468150763176 -345.9086728898083 -44.62672899287817 -347.1962132760736 C -43.99649825576691 -350.4193999333682 -43.138286136958364 -354.04585595044364 -41.97739791608628 -358.0479921075463 A 360.5 360.5 0 0 1 -36.3585 -358.662C -34.360448476843324 -355.005266759504 -32.739120113137034 -351.64982258299113 -31.42750372737514 -348.63887830148036 C -30.90357660692684 -347.4361176343751 -30.42922437443042 -346.2886014249038 -30.000055305985594 -345.19885875103137 A 2.625 2.625 0 0 0 -27.2524 -343.671A 344.75 344.75 0 0 1 -26.3106 -343.745A 2.625 2.625 0 0 0 -23.8327 -345.679C -23.57751717239729 -346.8224817638422 -23.286638335368355 -348.0296242548689 -22.955340223439446 -349.2990234871474 C -22.12594426061455 -352.47679398650877 -21.04393681404582 -356.0428802404042 -19.63648286483728 -359.9651026540627 A 360.5 360.5 0 0 1 -13.9902 -360.229C -12.223432806114232 -356.4547201776837 -10.813847492517457 -353.004969385475 -9.691957615559726 -349.918306768061 C -9.243819175825788 -348.6853003655189 -8.84172519833717 -347.5105136083834 -8.48113522269677 -346.39619765048093 A 2.625 2.625 0 0 0 -5.83375 -344.701A 344.75 344.75 0 0 1 -4.88922 -344.715A 2.625 2.625 0 0 0 -2.29584 -346.492C -1.970080811251833 -347.6173930551267 -1.6047170400837558 -348.8041166144241 -1.1951417021456416 -350.05046363368865 C -0.1697892854628691 -353.17052379839134 1.131827412253812 -356.6624437941641 2.7804019238914472 -360.48957814781915 A 360.5 360.5 0 0 1 8.43212 -360.402C 9.960872951529787 -356.52511953095234 11.153261803274917 -352.99440853868947 12.08108479744093 -349.84396928340163 C 12.45170079589577 -348.58548740766156 12.779980894891347 -347.38797512460263 13.070596725162364 -346.2533969546363 A 2.625 2.625 0 0 0 15.6075 -344.397A 344.75 344.75 0 0 1 16.5511 -344.352A 2.625 2.625 0 0 0 19.2499 -345.965C 19.64497740982999 -347.0674401833347 20.083412593684756 -348.2291536079932 20.569680590216638 -349.44762653975073 C 21.787022571449473 -352.4979054631428 23.303212818172057 -355.90214964069463 25.186529877717188 -359.6193894950185 A 360.5 360.5 0 0 1 30.8218 -359.18C 32.10664202679481 -355.21619245788844 33.07722129586293 -351.6181809004991 33.80738784031836 -348.41615344478924 C 34.09904755619461 -347.13706491774667 34.352243724768186 -345.9214600511501 34.57176107347962 -344.7710091316481 A 2.625 2.625 0 0 0 36.9883 -342.76A 344.75 344.75 0 0 1 37.9273 -342.657A 2.625 2.625 0 0 0 40.7212 -344.099C 41.18403302968802 -345.17475080928915 41.6938434056767 -346.3069596557516 42.254922784389684 -347.49284446493834 C 43.6595446705368 -350.46154121043435 45.38444262074674 -353.7649392103753 47.495216040362706 -357.35790328650944 A 360.5 360.5 0 0 1 53.0923 -356.569C 54.12819674132555 -352.53300294305603 54.873211445076336 -348.88161082828015 55.40289666730809 -345.6403831943255 C 55.61447172582493 -344.3456365610067 55.791604397188 -343.11664204994923 55.93917399436272 -341.9547692520242 A 2.625 2.625 0 0 0 58.226 -339.797A 344.75 344.75 0 0 1 59.1568 -339.637A 2.625 2.625 0 0 0 62.0349 -340.902C 62.563755626460505 -341.94664738049096 63.142968837277834 -343.04497135268144 63.776688891054995 -344.1936800813492 C 65.36315647291083 -347.06930933796116 67.29008883152983 -350.2590809551712 69.62015243891015 -353.7138687731001 A 360.5 360.5 0 0 1 75.1574 -352.579C 75.94033997799673 -348.4859317254323 76.45690779927328 -344.7952855800163 76.784062450057 -341.5273974478685 C 76.91473430841512 -340.2220018314709 77.01511819067326 -338.9843724169625 77.09016911820771 -337.81557280075594 A 2.625 2.625 0 0 0 79.2384 -335.52A 344.75 344.75 0 0 1 80.1575 -335.302A 2.625 2.625 0 0 0 83.1086 -336.385C 83.70143120679884 -337.3956188019916 84.3478063890543 -338.45580869783004 85.05171537811859 -339.56289721506397 C 86.81389092080754 -342.3343337318384 88.93540276087982 -345.39813835959865 91.47574199258247 -348.70138401640656 A 360.5 360.5 0 0 1 96.9317 -347.224C 97.4586847920091 -343.0906361373452 97.74480723026308 -339.37501435425423 97.8681656118103 -336.09310854825316 C 97.91742872597497 -334.78211427082107 97.94067545338899 -333.5406381006357 97.94291735382448 -332.3694335248033 A 2.625 2.625 0 0 0 99.9443 -329.945A 344.75 344.75 0 0 1 100.848 -329.67A 2.625 2.625 0 0 0 103.861 -330.568C 104.51528221024009 -331.5392721192456 105.22631866392301 -332.557226269985 105.99769330114215 -333.618411465383 C 107.92875928982245 -336.2749330928357 110.23664289417896 -339.200917466238 112.97742967122099 -342.33984134619106 A 360.5 360.5 0 0 1 118.331 -340.526C 118.59998088758617 -336.367989529296 118.65455099068818 -332.6417671273855 118.57363585338517 -329.35854070352786 C 118.5412996339379 -328.0470197472375 118.48731926943555 -326.8064998514995 118.4167434692948 -325.6374214790185 A 2.625 2.625 0 0 0 120.264 -323.093A 344.75 344.75 0 0 1 121.148 -322.762A 2.625 2.625 0 0 0 124.211 -323.472C 124.92478389069997 -324.4002643998726 125.6977307539021 -325.3720445386589 126.5335867406575 -326.38322089285333 C 128.62607225616168 -328.91455006488275 131.11139887148317 -331.6913941188092 134.04202962226918 -334.65385233520567 A 360.5 360.5 0 0 1 139.273 -332.511C 139.28243669719404 -328.3440005150216 139.10524334401632 -324.62159352488175 138.8203677328102 -321.34974864837835 C 138.70655728230216 -320.0427750330242 138.57555866542705 -318.80801074221785 138.43243820877026 -317.6455815101978 A 2.625 2.625 0 0 0 140.118 -314.992A 344.75 344.75 0 0 1 140.98 -314.606A 2.625 2.625 0 0 0 144.081 -315.124C 144.850975851073 -316.0062150778639 145.68284274253887 -316.9280615761252 146.57994631439712 -317.88531704424014 C 148.825755936767 -320.2816605400338 151.47891031719624 -322.89862120428944 154.58804700067685 -325.6731525817986 A 360.5 360.5 0 0 1 159.675 -323.209C 159.42603581722759 -319.04971234922067 159.0177645344308 -315.34552204035475 158.53003057771926 -312.09771684342064 C 158.33518620667382 -310.80034699601833 158.12767614562594 -309.5761153733107 157.91256473769633 -308.4248324946284 A 2.625 2.625 0 0 0 159.429 -305.671A 344.75 344.75 0 0 1 160.266 -305.233A 2.625 2.625 0 0 0 163.393 -305.557C 164.21676752567038 -306.38959909935784 165.10433611400128 -307.25794551207684 166.0592165515207 -308.1575766586695 C 168.44966167961445 -310.4096634907731 171.26037928627437 -312.85661625293756 174.53599325662444 -315.43248666866026 A 360.5 360.5 0 0 1 179.46 -312.657C 178.95284657593237 -308.5210828272311 178.31507688579586 -304.8494399923416 177.62637153150678 -301.6382396023417 C 177.35124705494366 -300.3554927947945 177.06802836583677 -299.1465301545056 176.7817582308825 -298.01084771896234 A 2.625 2.625 0 0 0 178.124 -295.168A 344.75 344.75 0 0 1 178.933 -294.679A 2.625 2.625 0 0 0 182.074 -294.807C 182.9472364286404 -295.5876212833827 183.8870728833936 -296.39910814697976 184.8960359396633 -297.2376344739127 C 187.42186840566538 -299.3367517558795 190.37927511816605 -301.6042298310785 193.8086936612786 -303.97147374278336 A 360.5 360.5 0 0 1 198.551 -300.895C 197.78732353590095 -296.7988451713066 196.9225228454582 -293.17395468324185 196.03551056081443 -290.0117826106543 C 195.6811703818858 -288.7486215411649 195.32333878280798 -287.5596051248884 194.96701744436828 -286.44391686720127 A 2.625 2.625 0 0 0 196.13 -283.523A 344.75 344.75 0 0 1 196.907 -282.985A 2.625 2.625 0 0 0 200.05 -282.918C 200.9699180145136 -283.6420723836381 201.958386291025 -284.3935602130832 203.01752848398877 -285.16773762489584 C 205.66897633277458 -287.1057642797514 208.7616305190724 -289.18499523580863 212.3315858808276 -291.33445423667916 A 360.5 360.5 0 0 1 216.873 -287.97C 215.85659976469674 -283.92835044169135 214.76811381981665 -280.36423629755245 213.68622628303012 -277.26332637181974 C 213.25404127505155 -276.0246379651753 212.8229811469447 -274.86016784643886 212.3979871430565 -273.76879014773533 A 2.625 2.625 0 0 0 213.378 -270.781A 344.75 344.75 0 0 1 214.119 -270.196A 2.625 2.625 0 0 0 217.252 -269.933C 218.21508602944968 -270.59916740818915 219.2483619359844 -271.2877488430598 220.3535856502542 -271.9945821977429 C 223.1203909451861 -273.76402037685466 226.33632772703558 -275.6469600731275 230.033008443664 -277.5703183238586 A 360.5 360.5 0 0 1 234.357 -273.93C 233.09076874285776 -269.95939208217965 231.78280868420393 -266.46984314719987 230.51023150797923 -263.4421921864196 C 230.00187371078727 -262.23276868742886 229.49925274154614 -261.0973499749035 229.00723029144805 -260.03450516348096 A 2.625 2.625 0 0 0 229.799 -256.992A 344.75 344.75 0 0 1 230.502 -256.361A 2.625 2.625 0 0 0 233.613 -255.905C 234.61602226856883 -256.50936682257776 235.69010826137614 -257.13237787507103 236.83713760111013 -257.7691325716899 C 239.70859611000157 -259.3631366624867 243.03537365274462 -261.04250037108363 246.84447798469742 -262.7323167722486 A 360.5 360.5 0 0 1 250.933 -258.83C 249.42315481864074 -254.94601327895438 247.90078088958643 -251.54452994005823 246.44243742779835 -248.60185133762442 C 245.85987357895303 -247.42637177085376 245.28763631146495 -246.32439717896366 244.73048895443262 -245.29419719492162 A 2.625 2.625 0 0 0 245.332 -242.208A 344.75 344.75 0 0 1 245.994 -241.535A 2.625 2.625 0 0 0 249.071 -240.886C 250.10927469572624 -241.42718132808304 251.2200153447596 -241.9822116894675 252.40441267627256 -242.54642424780153 C 255.3694152839827 -243.9588273581187 258.79416293159034 -245.42811794709647 262.7009541941911 -246.87785492731518 A 360.5 360.5 0 0 1 266.539 -242.729C 264.79057116316574 -238.9462978779978 263.05967313269514 -235.6460398134269 261.42120543288905 -232.7997182211865 C 260.7666893587486 -231.6627302887226 260.12704966783446 -230.59846314308626 259.50693289875676 -229.60489363002895 A 2.625 2.625 0 0 0 259.915 -226.488A 344.75 344.75 0 0 1 260.535 -225.775A 2.625 2.625 0 0 0 263.565 -224.936C 264.63490292711145 -225.4109609704098 265.7780009925802 -225.89586333604146 266.995184112686 -226.3853509273104 C 270.0422598001284 -227.61068874389773 273.55172786926806 -228.86422181340248 277.5410914460832 -230.06827062193477 A 360.5 360.5 0 0 1 281.114 -225.688C 279.13356422798023 -222.02214566997685 277.2008386043165 -218.83588093705114 275.3885855797225 -216.09692822029763 C 274.6646494758267 -215.00283070757175 273.9600820031897 -213.9803884510235 273.27939493337783 -213.0272933363789 A 2.625 2.625 0 0 0 273.493 -209.891A 344.75 344.75 0 0 1 274.067 -209.141A 2.625 2.625 0 0 0 277.039 -208.115C 278.1367101289501 -208.52266939469598 279.30774318650543 -208.9355677715228 280.5530030501712 -209.34843666332745 C 283.670363273458 -210.38196859221546 287.25097431394454 -211.4148944663217 291.30747613229784 -212.36859687223452 A 360.5 360.5 0 0 1 294.601 -207.775C 292.3966437592893 -204.23903291197706 290.2695678824053 -201.1790885499616 288.29054078791415 -198.5581011846674 C 287.49998542241195 -197.51112694240902 286.73321600272936 -196.5344652054124 285.9945920782213 -195.62553182902408 A 2.625 2.625 0 0 0 286.013 -192.482A 344.75 344.75 0 0 1 286.539 -191.697A 2.625 2.625 0 0 0 289.441 -190.489C 290.56246043213685 -190.82764412020663 291.7568979823723 -191.1669410846213 293.02541692109867 -191.50159396742612 C 296.2010012191267 -192.3393214743633 299.8389025424398 -193.14764396352768 303.9468487848413 -193.8473102774856 A 360.5 360.5 0 0 1 306.949 -189.058C 304.52849747896784 -185.66575901258335 302.2153005922101 -182.7439733517679 300.0771558991904 -180.2510914288776 C 299.223039777212 -179.25529099703724 298.3970348924105 -178.3281882941194 297.60333170567975 -177.4669331426446 A 2.625 2.625 0 0 0 297.426 -174.328A 344.75 344.75 0 0 1 297.903 -173.512A 2.625 2.625 0 0 0 300.724 -172.126C 301.864081022664 -172.3943437621661 303.0773020187378 -172.65872664012758 304.36417237918226 -172.91386880694103 C 307.5856950332144 -173.55255088694602 311.26681230585916 -174.1331427484885 315.410310126336 -174.57606609744508 A 360.5 360.5 0 0 1 318.109 -169.609C 315.4821896017953 -166.37418036033498 312.9918210145405 -163.6018572218342 310.70283078943817 -161.2467252172222 C 309.7884583203328 -160.30595115421934 308.9064136228459 -159.43199426563223 308.0607018573315 -158.6217493679384 A 2.625 2.625 0 0 0 307.689 -155.5A 344.75 344.75 0 0 1 308.114 -154.656A 2.625 2.625 0 0 0 310.843 -153.097C 311.9978481260006 -153.29408317867455 313.22515885156804 -153.4825291241889 314.52540198230287 -153.65717347953338 C 317.7803995470267 -154.0943391957136 321.4904912413954 -154.4449542325118 325.65351025182594 -154.6294210320754 A 360.5 360.5 0 0 1 328.038 -149.505C 325.2153424208914 -146.438932325317 322.5574368854067 -143.8267972887823 320.1264567867269 -141.61852675064964 C 319.1553654999449 -140.73641872857252 318.22069344935494 -139.91898882373692 317.32624499958354 -139.16288885992924 A 2.625 2.625 0 0 0 316.761 -136.07A 344.75 344.75 0 0 1 317.132 -135.202A 2.625 2.625 0 0 0 319.76 -133.476C 320.9245561658827 -133.600757567375 322.16120839417266 -133.71253751968788 323.4697939071196 -133.80600839848023 C 326.7456734292966 -134.03996644160677 330.4703859213728 -134.15924819219634 334.6368202099437 -134.08454477615524 A 360.5 360.5 0 0 1 336.698 -128.821C 333.69030025883137 -125.93714050941185 330.87514069528976 -123.49529941784746 328.31157571277475 -121.44243371591159 C 327.28752257185346 -120.62240443933297 326.30383923274803 -119.86466399575087 325.36411454600983 -119.16563416970394 A 2.625 2.625 0 0 0 324.608 -116.114A 344.75 344.75 0 0 1 324.924 -115.224A 2.625 2.625 0 0 0 327.44 -113.338C 328.6096694430703 -113.39055657929089 329.8508788068525 -113.42523808348197 331.1627440388772 -113.43717386505045 C 334.44683177703183 -113.46701909690478 338.17175487777314 -113.35450608336525 342.3254853196234 -113.02092146472373 A 360.5 360.5 0 0 1 344.055 -107.64C 340.8742751501465 -104.94812236232998 337.9127528640061 -102.68602222454959 335.22652093255664 -100.79650349740689 C 334.1534678001584 -100.04172550029305 333.1245788522791 -99.3466060685366 332.1432135408295 -98.70735079084879 A 2.625 2.625 0 0 0 331.198 -95.7089A 344.75 344.75 0 0 1 331.459 -94.801A 2.625 2.625 0 0 0 333.852 -92.7621C 335.0234557472593 -92.74166955586642 336.26442024863155 -92.69911843593349 337.5744898480036 -92.62947294305796 C 340.85408030466743 -92.455089898236 344.5648030102275 -92.11121741155911 348.6897596292111 -91.52004216440217 A 360.5 360.5 0 0 1 350.082 -86.0417C 346.7394736915928 -83.55308031780525 343.6430462372521 -81.47947275979007 340.84453986636424 -79.76061118832438 C 339.72663817659935 -79.07400456011757 338.6565241914061 -78.44419542222931 337.63731496698796 -77.86718784738368 A 2.625 2.625 0 0 0 336.508 -74.9332A 344.75 344.75 0 0 1 336.712 -74.0109A 2.625 2.625 0 0 0 338.974 -71.8272C 340.1411013852271 -71.73398302959343 341.3770199736122 -71.61436390755323 342.6802255355553 -71.46340658511578 C 345.9426306123683 -71.08546991774102 349.624796857471 -70.51156833377462 353.7050209977728 -69.66508960028752 A 360.5 360.5 0 0 1 354.754 -64.1108C 351.26320456942915 -61.83478763715266 348.0438514231748 -59.95769504371074 345.1438974903395 -58.41614056942363 C 343.9854721876739 -57.800361657783256 342.8782732282875 -57.23829942296643 341.82516321339114 -56.725771881176414 A 2.625 2.625 0 0 0 340.516 -53.8677A 344.75 344.75 0 0 1 340.662 -52.9345A 2.625 2.625 0 0 0 342.783 -50.6144C 343.94280718019087 -50.448771658538455 345.1688983266689 -50.25254731753607 346.46019800203385 -50.02086219009116 C 349.69279608753214 -49.44083406370902 353.33216028629914 -48.639123696191206 357.351866353374 -47.540616338150784 A 360.5 360.5 0 0 1 358.053 -41.9319C 354.42796634770156 -39.87726817560258 351.09814256144165 -38.20395265332046 348.1079604250591 -36.845669250999485 C 346.9134932319449 -36.30310038490903 345.7734928360467 -35.8109595627599 344.6905563087351 -35.36489492351741 A 2.625 2.625 0 0 0 343.206 -32.5938A 344.75 344.75 0 0 1 343.294 -31.6533A 2.625 2.625 0 0 0 345.267 -29.2058C 346.41386507097684 -28.968383790477333 347.62538526709125 -28.696313384368153 348.89978326829134 -28.38479679666505 C 352.09006806846986 -27.604921227416057 355.67255022782524 -26.578503738012742 359.6161867597967 -25.232217666983306 A 360.5 360.5 0 0 1 359.968 -19.5908C 356.2215151778994 -17.765471310325566 352.7941031929875 -16.302406591888648 349.7252612868492 -15.132649196147504 C 348.4993733648107 -14.665389469146547 347.33098197246784 -14.24507405689919 346.22240860378605 -13.867198057637722 A 2.625 2.625 0 0 0 344.568 -11.1938A 344.75 344.75 0 0 1 344.598 -10.2496A 2.625 2.625 0 0 0 346.415 -7.68415" stroke="#191919" stroke-width="0.35 px" style="stroke-width:0.35;stroke-miterlimit:4;stroke-dasharray:none;fill:none;fill-rule: evenodd "/>
<title>b'InvoluteGear'</title>
</g>
</svg>