<?xml version="1.0"?>
<!DOCTYPE svg PUBLIC "-//W3C//DTD SVG 1.1//EN" "http://www.w3.org/Graphics/SVG/1.1/DTD/svg11.dtd">
<svg width="576.2285968906538mm" height="576.2851679975241mm" viewBox="0 0 576.2285968906538 576.2851679975241" xmlns="http://www.w3.org/2000/svg" version="1.1">
<g id="InvoluteGear" transform="translate(288.086401,288.142584) scale(1,-1)">
<path id="InvoluteGear_w0000"  d="M 272.4442327093585 -5.51271833208338 C 273.255193125273 -5.284508535482635 274.10519542559064 -5.0313335112493185 274.993062011576 -4.750579989147387 C 277.25530451066425 -4.035213713738569 279.7624002507258 -3.141227641036191 282.4928962868223 -2.0262574516529677 A 282.5 282.5 0 0 1 282.493 2.02626C 279.7624002507258 3.141227641036191 277.25530451066425 4.035213713738569 274.993062011576 4.750579989147387 C 274.10519542559064 5.0313335112493185 273.255193125273 5.284508535482635 272.4442366789674 5.5127167691036725 A 1.875 1.875 0 0 0 271.15 7.349A 271.25 271.25 0 0 1 271.132 8.00311A 1.875 1.875 0 0 0 272.32 9.90966C 273.11650507395336 10.183381392300163 273.9508225780116 10.484239840515976 274.82138346750315 10.814774789302913 C 277.0395307620084 11.656981778440638 279.4920337042959 12.691375062492712 282.1550769460993 13.959037406588 A 282.5 282.5 0 0 1 281.926 18.0051C 279.13660348771765 18.963768045428516 276.58294593336467 19.714483199875673 274.2838548744281 20.300717227710233 C 273.38152669629363 20.530789984955632 272.51856241333917 20.735470589277835 271.6959939439827 20.91743341217751 A 1.875 1.875 0 0 0 270.3 22.6776A 271.25 271.25 0 0 1 270.245 23.3296A 1.875 1.875 0 0 0 271.323 25.3003C 272.1029425190196 25.61865087944614 272.9189026563269 25.966229011333443 273.7693691803431 26.345486583716315 C 275.93631587576454 27.311836443692194 278.3263699139849 28.483323465561188 280.91342983115004 29.8996172597116 A 282.5 282.5 0 0 1 280.456 33.9262C 277.6166480309655 34.72556178366493 275.02460879733223 35.33060125289514 272.69603386032804 35.785825148829254 C 271.7821345192287 35.964480148815426 270.9089725883981 36.120010679544734 270.0774270307821 36.25514520994402 A 1.875 1.875 0 0 0 268.584 37.9335A 271.25 271.25 0 0 1 268.492 38.5813A 1.875 1.875 0 0 0 269.457 40.6099C 270.2177522068992 40.971856104436476 271.012741211144 41.36504052245264 271.84038906901384 41.79180584209035 C 273.94919378180526 42.87920306297232 276.2691428523319 44.184031196552866 278.7719323120098 45.74441962475824 A 282.5 282.5 0 0 1 278.087 49.7386C 275.20740275602634 50.37611907861141 272.58528492621366 50.83354473880031 270.23468523867285 51.15630028345657 C 269.3121422297161 51.2829652403585 268.43157965191045 51.388847486316386 267.59372069714647 51.47672084757469 A 1.875 1.875 0 0 0 266.008 53.0679A 271.25 271.25 0 0 1 265.879 53.7095A 1.875 1.875 0 0 0 266.728 55.7894C 267.4669729705001 56.193816122324414 268.2384442522323 56.63134733824316 269.0406222383516 57.10425334715772 C 271.08452983126557 58.30921466782398 273.32694243781845 59.743204155230856 275.7374442508406 61.44268882293717 A 282.5 282.5 0 0 1 274.828 65.3918C 271.9165852018435 65.86530647699682 269.272788209764 66.17365305585233 266.90769345113324 66.36290636591838 C 265.97946195770066 66.43717553369277 265.09431944032457 66.49307032212455 264.2528310032384 66.53340102937412 A 1.875 1.875 0 0 0 262.58 68.0324A 271.25 271.25 0 0 1 262.415 68.6656A 1.875 1.875 0 0 0 263.144 70.7902C 263.8594163850083 71.23577040612871 264.60489868913294 71.71624687556061 265.3790371855754 72.23377871323603 C 267.3515004064044 73.55244427931048 269.5091934253728 75.1110016199032 271.81968602772554 76.94413856536727 A 282.5 282.5 0 0 1 270.688 80.8354C 267.754736849143 81.14350744197775 265.09772957360155 81.30178721244893 262.7257158554104 81.35693205251744 C 261.7947692828143 81.3785675246296 260.9078822041993 81.38429580767705 260.0654598259428 81.37695466950386 A 1.875 1.875 0 0 0 258.31 82.7789A 271.25 271.25 0 0 1 258.11 83.4018A 1.875 1.875 0 0 0 258.718 85.5642C 259.40663854175597 86.0495350415016 260.1237438637086 86.57141765346333 260.8673630714866 87.13191750940051 C 262.7620635258853 88.56006323753 264.8281252160386 90.23819590228021 267.03120740336027 92.19911303522031 A 282.5 282.5 0 0 1 265.681 96.0201C 262.73518935289286 96.16178128986411 260.0734829892149 96.16948723412871 257.70214858650604 96.09034695865218 C 256.7714690372757 96.05927943016235 255.8856783641093 96.01482285840791 255.0450205775295 95.9598333906907 A 1.875 1.875 0 0 0 253.213 97.2602A 271.25 271.25 0 0 1 252.978 97.8708A 1.875 1.875 0 0 0 253.463 100.064C 254.12290303057742 100.58765707433287 254.8093342658223 101.14927408148365 255.5200521484305 101.75094650566717 C 257.3309205396383 103.28399761453394 259.29873268251646 105.076330038601 261.38734731838633 107.15874595027238 A 282.5 282.5 0 0 1 259.823 110.897C 256.87402183699277 110.87201996188354 254.2161426330997 110.72912739547894 251.85308364486357 110.51595551461853 C 250.9256523661721 110.43228450418657 250.0437955530243 110.33778548543214 249.20759523844913 110.23532383601398 A 1.875 1.875 0 0 0 247.305 111.43A 271.25 271.25 0 0 1 247.036 112.026A 1.875 1.875 0 0 0 247.396 114.244C 248.02513524923032 114.80356651686763 248.67869355157893 115.40311889061991 249.3542334653755 116.0440365448858 C 251.0754690360034 117.6770822096112 252.93872813606612 119.577873011897 254.90618475813991 121.77511709633775 A 282.5 282.5 0 0 1 253.133 125.419C 250.19000938799292 125.22710212879693 247.54447133225963 124.9340687796919 245.1972573488393 124.58754814724803 C 244.27604518266992 124.45154167834508 243.40094708277118 124.30730292143686 242.57188284190195 124.15769730587047 A 1.875 1.875 0 0 0 240.605 125.243A 271.25 271.25 0 0 1 240.302 125.823A 1.875 1.875 0 0 0 240.536 128.057C 241.1328681862443 128.65172552541677 241.75146001142258 129.28729271876725 242.38965799840506 129.9654025506481 C 244.01574711201044 131.69321163364518 245.76848458863375 133.69637200816865 247.60848084021154 136.00140583016164 A 282.5 282.5 0 0 1 245.632 139.539C 242.7045629128318 139.18104413472187 240.07984046121499 138.73880867707587 237.75599031662622 138.26004930310165 C 236.8439481832698 138.07214304545025 235.97841199965455 137.878626590611 235.1591395751971 137.6823562407854 A 1.875 1.875 0 0 0 233.134 138.654A 271.25 271.25 0 0 1 232.799 139.216A 1.875 1.875 0 0 0 232.906 141.46C 233.46817985086992 142.087774271799 234.0498236627717 142.75732037141958 234.6486353823869 143.47045019069054 C 236.1743691853133 145.28748799857485 237.81097049195262 147.38660121875313 239.5176123103273 149.79204106005588 A 282.5 282.5 0 0 1 237.344 153.212C 234.44166055324598 152.6891472966455 231.846161483047 152.0991263439524 229.55311916988623 151.4896618390568 C 228.653168615254 151.2504577130492 227.79996692125607 151.00828345182418 226.99311068977624 150.76597708084057 A 1.875 1.875 0 0 0 224.916 151.622A 271.25 271.25 0 0 1 224.55 152.164A 1.875 1.875 0 0 0 224.53 154.41C 225.05562255055906 155.06867304124367 225.59845516870362 155.7700532891257 226.15596244648674 156.5159187259847 C 227.5764535533924 158.41636473886567 229.09167616266782 160.60470671222387 230.65949665958493 163.10284722384418 A 282.5 282.5 0 0 1 228.296 166.395C 225.4277708765537 165.70814108778157 222.86980935377306 164.97222465502958 220.6149201778648 164.2340073177602 C 219.72994401489606 163.94427156632617 218.89180987276052 163.65421525588366 218.09995443801492 163.36664904409764 A 1.875 1.875 0 0 0 215.978 164.104A 271.25 271.25 0 0 1 215.582 164.624A 1.875 1.875 0 0 0 215.435 166.866C 215.92214424252236 167.55284010157277 216.4244268103832 168.28380776533353 216.93884378244886 169.0600195879263 C 218.2495419320755 171.03778610428728 219.6385321291674 173.30834691175383 221.06250910291618 175.89118579650548 A 282.5 282.5 0 0 1 218.517 179.044C 215.6917680888539 178.1963217461129 213.1795380354111 177.31686719549666 210.97002508657906 176.45226175853904 C 210.10285816072215 176.11292249263855 209.28247636678296 175.77591327078568 208.50815828045393 175.4440083794677 A 1.875 1.875 0 0 0 206.348 176.06A 271.25 271.25 0 0 1 205.923 176.557A 1.875 1.875 0 0 0 205.649 178.787C 206.09700221129793 179.5002849020249 206.55712576638444 180.25849847186873 207.0268046000871 181.06257023971887 C 208.22351123111844 183.11132187716032 209.48181966167942 185.45682822795106 210.7573916847192 188.11609187422425 A 282.5 282.5 0 0 1 208.037 191.12C 205.26483954223926 190.11368586411368 202.8063883883707 189.09351035369264 200.64932940270333 188.10528640891846 C 199.80274951105122 187.7174306345226 199.0027479955191 187.3345480433969 198.24844763187485 186.95936766397494 A 1.875 1.875 0 0 0 196.057 187.452A 271.25 271.25 0 0 1 195.604 187.924A 1.875 1.875 0 0 0 195.205 190.135C 195.61166934884878 190.87273617504545 196.02815997669816 191.6557668643255 196.45159614913695 192.4851228931529 C 197.53047784945633 194.5982968825322 198.6540737722345 197.0112354126935 199.77715480282214 199.73840539732706 A 282.5 282.5 0 0 1 196.891 202.584C 194.18038583230535 201.42205853172374 191.78358873821892 200.2644299912154 189.68589342594726 199.15575311784482 C 188.86261241911572 198.72062325392787 188.0855538280256 198.29309378189836 187.35368743853374 197.87583973023533 A 1.875 1.875 0 0 0 185.138 198.244A 271.25 271.25 0 0 1 184.659 198.69A 1.875 1.875 0 0 0 184.135 200.874C 184.4997333374015 201.63376453069458 184.87125689297113 202.43910405604873 185.24709401043023 203.29108766846272 C 186.20469479669543 205.46191487642227 187.18997899521378 207.93455621640084 188.15697146622713 210.72089659175975 A 282.5 282.5 0 0 1 185.115 213.398C 182.47391380597332 212.08521562209455 180.14644843533637 210.79384228471048 178.11483634694875 209.56826390900753 C 177.31749144220151 209.08725380770454 176.5658649284846 208.61644696055959 175.85877690183025 208.15845582717472 A 1.875 1.875 0 0 0 173.626 208.4A 271.25 271.25 0 0 1 173.122 208.819A 1.875 1.875 0 0 0 172.476 210.97C 172.79678905797428 211.74889915096557 173.12215543931055 212.5739677671042 173.4491895821971 213.44584980274226 C 174.28244197039683 215.66737641528437 175.12625828232868 218.19179994942806 175.93406462535887 221.02838522727748 A 282.5 282.5 0 0 1 172.745 223.529C 170.18292282235493 222.0689998283878 167.9322447484228 220.64801835224472 165.9732237499191 219.30946437122833 C 165.20436908336578 218.78411485290633 164.48058233334226 218.27153876691406 163.80053768564437 217.77427763548053 A 1.875 1.875 0 0 0 161.557 217.89A 271.25 271.25 0 0 1 161.031 218.279A 1.875 1.875 0 0 0 160.264 220.39C 160.54032456924196 221.18573821020715 160.8184915297355 222.02789297361502 161.09567510909724 222.91688053146618 C 161.8019099406271 225.1819903291156 162.50155536793562 227.75010956779334 163.1475879357323 230.6278533103281 A 282.5 282.5 0 0 1 159.822 232.944C 157.3467846310001 231.34143007992708 155.18010345416727 229.79539229708382 153.29994888040196 228.348150502696 C 152.5620473253302 227.78014442024212 151.8684188461642 227.2274410311349 151.21759596544595 226.69250277896865 A 1.875 1.875 0 0 0 148.971 226.681A 271.25 271.25 0 0 1 148.424 227.039A 1.875 1.875 0 0 0 147.539 229.104C 147.76960102198248 229.9140526679393 147.9996775089984 230.77059590302036 148.22612262226656 231.6738412879291 C 148.8030776140489 233.97527844112943 149.35631098150463 236.57886692419547 149.83850033699034 239.48855085063977 A 282.5 282.5 0 0 1 146.388 241.613C 144.00661725231345 239.87280398720864 141.93087350559 238.20666232277574 140.13560805848297 236.65536866679153 C 139.4310233360327 236.04652551492757 138.76977502885475 235.4554652982871 138.1502586970101 234.88456349388045 A 1.875 1.875 0 0 0 135.908 234.746A 271.25 271.25 0 0 1 135.342 235.073A 1.875 1.875 0 0 0 134.341 237.084C 134.52552689377455 237.9058831015832 134.70677590296262 238.774071042129 134.88175717817185 239.68868088682132 C 135.32758416943028 242.01907319854453 135.73263330377117 244.64979084717015 136.0494348490721 247.58209436270994 A 282.5 282.5 0 0 1 132.484 249.508C 130.20515326413906 247.63579298760948 128.2269961805311 245.85488459563854 126.52237063653749 244.20450833931466 C 125.85335974398956 243.55677842620722 125.22660978647757 242.9292547260974 124.64038450108617 242.3242181400426 A 1.875 1.875 0 0 0 122.41 242.059A 271.25 271.25 0 0 1 121.826 242.353A 1.875 1.875 0 0 0 120.713 244.305C 120.8505269468112 245.13562926892106 120.98236788295283 246.0126808472208 121.1053248023261 246.93572538063194 C 121.41859567480188 249.28760790174806 121.67416308153828 251.93702773420853 121.82456200579705 254.8825577866666 A 282.5 282.5 0 0 1 118.156 256.604C 115.98660291643058 254.60552988701244 114.1123691294423 252.71555955398276 112.50384391808183 250.9713873500158 C 111.87254989901531 250.28684554985102 111.28230596023279 249.62486851386618 110.73124957761618 248.98763526075192 A 1.875 1.875 0 0 0 108.519 248.596A 271.25 271.25 0 0 1 107.919 248.857A 1.875 1.875 0 0 0 106.698 250.743C 106.78840632859638 251.58013211338937 106.87041686542635 252.46323786882846 106.94095556088244 253.3917603010428 C 107.1206668135276 255.75759924280237 107.22593383320854 258.4172343686398 107.20944836332916 261.3665555372538 A 282.5 282.5 0 0 1 103.449 262.878C 101.39651251249258 260.7596885169256 99.63220575797877 258.7667103875931 98.12493347043399 256.934329345377 C 97.53337854991143 256.21516845191337 96.98153135913822 255.52085859206943 96.46740907901979 254.85346992211547 A 1.875 1.875 0 0 0 94.2811 254.338A 271.25 271.25 0 0 1 93.6673 254.564A 1.875 1.875 0 0 0 92.3411 256.377C 92.38421025085125 257.2187479495193 92.41612768389595 258.1050790281286 92.43402219872766 259.0361050218693 C 92.47959816222148 261.4083218889 92.4342275928475 264.0696526949922 92.25091053675999 267.0133174149118 A 282.5 282.5 0 0 1 88.4112 268.309C 86.4816185104397 266.078555251931 84.83289039482985 263.9889534360775 83.43169927864301 262.074233224508 C 82.88177838541404 261.3227569268964 82.37009567557044 260.59833832699167 81.89455438660853 259.90293208730907 A 1.875 1.875 0 0 0 79.741 259.264A 271.25 271.25 0 0 1 79.1153 259.456A 1.875 1.875 0 0 0 77.6887 261.191C 77.68407969612127 262.03341459088483 77.66580178422036 262.9201318070125 77.63099479690193 263.8506790053404 C 77.5422894776933 266.22167487185243 77.34642665487623 268.8761763133022 76.99686523237676 271.80475513898745 A 282.5 282.5 0 0 1 73.09 272.881C 71.28969781223175 270.54509215836975 69.76182970873084 268.36556028057464 68.47120820147155 266.37463432573026 C 67.96468289794466 265.5932498291033 67.49480374300998 264.84104302030755 67.05936674731707 264.11984680672975 A 1.875 1.875 0 0 0 64.9454 263.36A 271.25 271.25 0 0 1 64.3098 263.516A 1.875 1.875 0 0 0 62.7873 265.168C 62.735103614298566 266.00870920873075 62.666688907114185 266.89297213981047 62.57929191491942 267.8200597195122 C 62.35658946288825 270.1822395709487 62.01086179429735 272.82140847937256 61.496175756006316 275.7255202899509 A 282.5 282.5 0 0 1 57.5346 276.579C 55.869414719852934 274.14499157198037 54.46730085061088 271.8825113299231 53.291383202057276 269.82175716785196 C 52.82987604148453 269.0129674823205 52.403305606048946 268.23538200981403 52.0093677395957 267.4907060312359 A 1.875 1.875 0 0 0 49.9417 266.613A 271.25 271.25 0 0 1 49.2984 266.733A 1.875 1.875 0 0 0 47.6849 268.295C 47.58516808251916 269.1318977359433 47.46683573298377 270.0108738212233 47.32712869482671 270.93153204128726 C 46.971142493066125 273.27732910344537 46.47665744865221 275.89271142518567 45.79849548911535 278.7630534750099 A 282.5 282.5 0 0 1 41.795 279.391C 40.27016504888149 276.86672192966057 38.998296807324095 274.52854072963805 37.940849836214554 272.4045595771877 C 37.52583916516423 271.5709554999446 37.14394388293286 270.7704822044186 36.79276704746804 270.0047118825009 A 1.875 1.875 0 0 0 34.7781 269.011A 271.25 271.25 0 0 1 34.129 269.094A 1.875 1.875 0 0 0 32.4297 270.563C 32.28280291162183 271.39297565810585 32.11493197392525 272.26384927219556 31.923362413567332 273.1751289867872 C 31.435232793202594 275.49702896447695 30.793574357637922 278.08024684148415 29.954108834060673 280.90762455963164 A 282.5 282.5 0 0 1 25.9215 281.308C 24.54191789880111 278.7015647085402 23.404369462342842 276.29517244984004 22.468780490119897 274.1147680589694 C 22.101595712886823 273.259019875185 21.765598909580625 272.438222913928 21.458308030379353 271.6538112418726 A 1.875 1.875 0 0 0 19.5031 270.548A 271.25 271.25 0 0 1 18.8503 270.594A 1.875 1.875 0 0 0 17.0706 271.965C 16.87702619053296 272.78470006097467 16.66015440589758 273.6446815331413 16.417335978394092 274.5436636386065 C 15.798626565758216 276.83422878620416 15.011850164456037 279.3770073928419 14.01377013798847 282.15236383609715 A 282.5 282.5 0 0 1 9.96491 282.324C 8.735055586910379 279.64364235403906 7.735470866135899 277.1767474365335 6.924736866334489 274.9469042998444 C 6.6065541864572515 274.07175322893835 6.317532161131926 273.2332618620671 6.055111583520867 272.43272154694023 A 1.875 1.875 0 0 0 4.16557 271.218A 271.25 271.25 0 0 1 3.51126 271.227A 1.875 1.875 0 0 0 1.65685 272.495C 1.4171872665504504 273.30261283171694 1.1520093406839256 274.148947382042 0.8587198666619118 275.03275216767616 C 0.11141257452913633 277.28464511446526 -0.8179615105035838 279.7788391642718 -1.9714588886402793 282.4932840292458 A 282.5 282.5 0 0 1 -6.02357 282.436C -7.099787741428092 279.6899371074455 -7.958206775308108 277.1704417392629 -8.6414887772704 274.89830271656473 C -8.909650124743955 274.00655213125344 -9.150771547408304 273.15305229940043 -9.367481211205757 272.3389477131746 A 1.875 1.875 0 0 0 -11.1853 271.019A 271.25 271.25 0 0 1 -11.8391 270.992A 1.875 1.875 0 0 0 -13.7622 272.152C -14.047191335493745 272.94505493959014 -14.359825957750285 273.77503150336 -14.702646983686023 274.64082787598943 C -15.576158304764355 276.84683512997145 -16.64515300814999 279.28445496746747 -17.95037273810275 281.92929306891983 A 282.5 282.5 0 0 1 -21.9927 281.643C -22.911888309220664 278.8403006727075 -23.626391881248615 276.2762755570778 -24.180033127126904 273.96911899465385 C -24.397314140556812 273.06362544090274 -24.589762575951255 272.19785116133846 -24.76006713954936 271.3727901264358 A 1.875 1.875 0 0 0 -26.5003 269.952A 271.25 271.25 0 0 1 -27.1515 269.888A 1.875 1.875 0 0 0 -29.1372 270.938C -29.466572548809992 271.71317175031754 -29.825662404509874 272.52413166238114 -30.21691682326121 273.3691462152082 C -31.213834053181657 275.52220127009207 -32.419025062609826 277.8954384640561 -33.8717861320922 280.46219758819467 A 282.5 282.5 0 0 1 -37.8915 279.947C -38.65059519139185 277.09745469147 -39.21889453122141 274.49711317382855 -39.64112154119602 272.1623295896989 C -39.80682620399142 271.24599363634456 -39.94998518175895 270.370718245096 -40.073339108297894 269.53734368074663 A 1.875 1.875 0 0 0 -41.7304 268.021A 271.25 271.25 0 0 1 -42.3769 267.919A 1.875 1.875 0 0 0 -44.4189 268.855C -44.79156344681061 269.61090935713673 -45.19595826288933 270.40025486841137 -45.634392768599476 271.22178076507237 C -46.751522480928756 273.3149867364245 -48.08904920626102 275.616239092652 -49.68469798359595 278.09669713618786 A 282.5 282.5 0 0 1 -53.6688 277.355C -54.26549256496784 274.46698202483583 -54.685767238485354 271.83865378300214 -54.97522749215235 269.48372219286614 C -55.08882500232246 268.55947914021976 -55.1822359410984 267.67750640823897 -55.25824409076333 266.8384878644143 A 1.875 1.875 0 0 0 -56.8269 265.231A 271.25 271.25 0 0 1 -57.4666 265.093A 1.875 1.875 0 0 0 -59.5582 265.912C -59.973073463544 266.645001940273 -60.421477841490606 267.410204539118 -60.905687996260646 268.2056101844962 C -62.13945168774321 270.23226190254064 -63.60502962764716 272.45415781596404 -65.33845476875227 274.84036912398705 A 282.5 282.5 0 0 1 -69.2743 273.875C -69.70656120615614 270.9573088697785 -69.97746494687992 268.3094132314871 -70.1332312157817 265.94187719118156 C -70.19435768625462 265.0126876683771 -70.23772136264098 264.12684282021746 -70.26614025841394 263.28486792625677 A 1.875 1.875 0 0 0 -71.7413 261.591A 271.25 271.25 0 0 1 -72.3721 261.417A 1.875 1.875 0 0 0 -74.5068 262.116C -74.96247164557727 262.82495019533036 -75.45344921098642 263.56355870713185 -75.98188394371324 264.33029617715005 C -77.3283294972961 266.2839016654486 -78.91726396379475 268.41932373361067 -80.78291278535832 270.70364455191753 A 282.5 282.5 0 0 1 -84.6578 269.517C -84.92433871699926 266.5796777674932 -85.04500373857701 263.9206967407485 -85.06657705639462 261.5481401819639 C -85.07503668065728 260.6169806631707 -85.06821418772554 259.7301013269411 -85.04895279531578 258.8878671822643 A 1.875 1.875 0 0 0 -86.4259 257.113A 271.25 271.25 0 0 1 -87.0459 256.904A 1.875 1.875 0 0 0 -89.2167 257.481C -89.71174243160118 258.1629908996986 -90.24372043531326 258.87263933872134 -90.81468701023798 259.6082525421106 C -92.26950135489298 261.48255381332064 -93.97670251186577 263.52466163556 -95.96859877826543 265.6997745959037 A 282.5 282.5 0 0 1 -99.7701 264.296C -99.87007796834703 261.3481115901479 -99.8401177443371 258.68656269279546 -99.72742900522977 256.3165856294567 C -99.6831946845553 255.38643889933488 -99.62620787680711 254.5013660169215 -99.55932789626137 253.66157055140667 A 1.875 1.875 0 0 0 -100.834 251.812A 271.25 271.25 0 0 1 -101.441 251.568A 1.875 1.875 0 0 0 -103.641 252.021C -104.17363946074806 252.67405771446724 -104.74491381683903 253.35247286281935 -105.35658325588986 254.0546054087202 C -106.91510618268059 255.8435985108145 -108.73510535014287 257.7858506001318 -110.84686841712993 259.84478815995755 A 282.5 282.5 0 0 1 -114.563 258.228C -114.49590325160702 255.2793686213964 -114.31541375363919 252.6237775969455 -114.06882393361113 250.26397178007585 C -113.9720373638642 249.33781737901813 -113.86506878722491 248.45738610569097 -113.7507844552835 247.62271943739168 A 1.875 1.875 0 0 0 -114.918 245.704A 271.25 271.25 0 0 1 -115.511 245.426A 1.875 1.875 0 0 0 -117.733 245.754C -118.30183691692993 246.3757333474057 -118.91057766141213 247.0207420368418 -119.5609906029726 247.68714478303406 C -121.2182296931085 249.38509903176953 -123.1451968650422 251.22127376918166 -125.37006211886884 253.15744053076673 A 282.5 282.5 0 0 1 -128.989 251.333C -128.75496363907297 248.39288887454313 -128.42452302942235 245.75176238164005 -128.0448220300078 243.40968698069395 C -127.89579324775008 242.4904916604596 -127.73918555481903 241.61752228301523 -127.57786295865107 240.79065810090145 A 1.875 1.875 0 0 0 -128.635 238.809A 271.25 271.25 0 0 1 -129.211 238.498A 1.875 1.875 0 0 0 -131.448 238.7C -132.05107792439287 239.28819323025064 -132.69533507714146 239.89772930348425 -133.3824080524764 240.52626756106798 C -135.1330546695352 242.12774389709477 -137.16081718915572 243.85195946135667 -139.4916577156722 245.65915329885732 A 282.5 282.5 0 0 1 -143.001 243.633C -142.60158306157015 240.71073182032046 -142.1222498411291 238.0925301833562 -141.61065395909966 235.77568757192057 C -141.40986034844923 234.86639579223493 -141.2041152008802 234.003684694768 -140.99627110539598 233.18727169409405 A 1.875 1.875 0 0 0 -141.94 231.149A 271.25 271.25 0 0 1 -142.497 230.806A 1.875 1.875 0 0 0 -144.742 230.881C -145.37731951913435 231.43414089071507 -146.05502933026153 232.00625181994363 -146.7765614374954 232.59491219139105 C -148.61500773258607 234.09478060319944 -150.7370700652229 235.70151381205045 -153.16641947953207 237.373945738781 A 282.5 282.5 0 0 1 -156.556 235.152C -155.99140662267547 232.25750572375318 -155.36471624025617 229.67061583189385 -154.72286427145548 227.38642755532382 C -154.4709490348815 226.48995205188615 -154.21672549640925 225.6402627581279 -153.96302568890647 224.83691615586326 A 1.875 1.875 0 0 0 -154.79 222.748A 271.25 271.25 0 0 1 -155.326 222.374A 1.875 1.875 0 0 0 -157.572 222.322C -158.2378737317947 222.8387352262448 -158.9468652924627 223.3715883676847 -159.70054524673196 223.91848519635954 C -161.62090212212536 225.31194115325331 -163.83046666237783 226.79604515583517 -166.35054302591695 228.32835786813752 A 282.5 282.5 0 0 1 -169.609 225.919C -168.88154268082263 223.06028881646685 -168.1095026146516 220.51299725791932 -167.33945060443818 218.26878025989095 C -167.03722070238962 217.38799271400393 -166.73533312765 216.55404703492252 -166.43659028509626 215.76634019242334 A 1.875 1.875 0 0 0 -167.144 213.634A 271.25 271.25 0 0 1 -167.659 213.23A 1.875 1.875 0 0 0 -169.898 213.052C -170.59154433009215 213.52950991248505 -171.32954652658873 214.02139837688222 -172.11296006378407 214.5247797873664 C -174.10907603746818 215.80735962982317 -176.3990648839849 217.16408039359504 -179.00179563242096 218.55136543189735 A 282.5 282.5 0 0 1 -182.118 215.961C -181.2307002441606 213.1485425569486 -180.3157835713207 210.64900907452028 -179.41999822843493 208.45195225865405 C -179.06842179440287 207.5896740983628 -178.71983722030936 206.7741434133823 -178.37700830609296 206.00459959313923 A 1.875 1.875 0 0 0 -178.962 203.836A 271.25 271.25 0 0 1 -179.453 203.404A 1.875 1.875 0 0 0 -181.679 203.098C -182.39875878277454 203.53628520461672 -183.1634075715749 203.98563332492756 -183.9740451819569 204.44388683480625 C -186.0395260926885 205.61148207292456 -188.40260372081914 206.83647361226238 -191.07965152290603 208.07428708435486 A 282.5 282.5 0 0 1 -194.045 205.312C -192.99932123804868 202.55401725661383 -191.9444587124678 200.11024860959634 -190.92580950741996 197.9673898112317 C -190.52601274671423 197.12638317343914 -190.13184779474724 196.33187987320582 -189.74603099323483 195.5829641560735 A 1.875 1.875 0 0 0 -190.208 193.385A 271.25 271.25 0 0 1 -190.674 192.925A 1.875 1.875 0 0 0 -192.878 192.495C -193.62169502236728 192.89107241408877 -194.41054100287832 193.29644079281653 -195.2458059697937 193.7080984779455 C -197.37403545952444 194.7569689521766 -199.8026322192167 195.84630724987528 -202.54542168378075 196.93068406603672 A 282.5 282.5 0 0 1 -205.35 194.005C -204.14970722149585 191.31065037398633 -202.95827788585834 188.93047469009176 -201.82002785914972 186.84867813197877 C -201.3732914413237 186.03163701448838 -200.93480874065537 185.26070613259597 -200.50723993937643 184.53481752139592 A 1.875 1.875 0 0 0 -200.844 182.314A 271.25 271.25 0 0 1 -201.283 181.829A 1.875 1.875 0 0 0 -203.46 181.274C -204.22440260065764 181.6279713667373 -205.0349188613862 181.98806148675644 -205.89213557933428 182.35180468346562 C -208.07629628740003 183.2785905454721 -210.5626326510708 184.2287861225556 -213.36237779657392 185.15625269693103 A 282.5 282.5 0 0 1 -215.996 182.077C -214.6461401466319 179.4544578027879 -213.3219605082862 177.1454995022958 -212.0677558179066 175.13143380642015 C -211.57551077438643 174.340975438249 -211.09411491729873 173.59608649872877 -210.62616374802514 172.89555023352008 A 1.875 1.875 0 0 0 -210.836 170.659A 271.25 271.25 0 0 1 -211.248 170.15A 1.875 1.875 0 0 0 -213.39 169.473C -214.17291784881854 169.7830611707631 -215.00250806183092 170.09671955486084 -215.8789306072345 170.41138308403168 C -218.11202600841696 171.21311555929455 -220.64813749112466 172.02112465286896 -223.49586988981193 172.78871003041255 A 282.5 282.5 0 0 1 -225.951 169.565C -224.45499677438295 167.02341850217252 -223.0023085799181 164.7930738746131 -221.6361668216024 162.8531907005896 C -221.09998996166226 162.09184715819453 -220.57722300421432 161.37538626488535 -220.07038845561695 160.7024463745198 A 1.875 1.875 0 0 0 -220.154 158.458A 271.25 271.25 0 0 1 -220.535 157.926A 1.875 1.875 0 0 0 -222.636 157.129C -223.4353726732791 157.3942846444709 -224.28137941102213 157.6605065502829 -225.1742003382486 157.92508244976813 C -227.44907715475483 158.5991933474666 -230.02683982684545 159.26242766081052 -232.91343733332312 159.86767303414996 A 282.5 282.5 0 0 1 -235.183 156.51C -233.54485637984294 154.0573528386706 -231.9683130274953 151.91276635027964 -230.4946103651533 150.05327972874147 C -229.91621922491962 149.32348982501497 -229.35375574727746 148.6377520181533 -228.80966136321354 147.99456413197447 A 1.875 1.875 0 0 0 -228.766 145.749A 271.25 271.25 0 0 1 -229.117 145.196A 1.875 1.875 0 0 0 -231.169 144.282C -231.982096638836 144.50132677398366 -232.8418098866786 144.7192594124862 -233.74816922113465 144.9329001659167 C -236.05754033670235 145.47723010561774 -238.66869684720564 145.9935650992768 -241.5849128194228 146.43453168501483 A 282.5 282.5 0 0 1 -243.661 142.954C -241.8866014023282 140.5977950295499 -240.19125303574413 138.5458364373894 -238.6147101832881 136.7727028645745 C -237.9959575239537 136.07680433659178 -237.39559926620498 135.42398624110595 -236.81598794501764 134.81261068381852 A 1.875 1.875 0 0 0 -236.645 132.573A 271.25 271.25 0 0 1 -236.964 132.002A 1.875 1.875 0 0 0 -238.961 130.972C -239.78571201200188 131.145487590268 -240.656377849229 131.31443285751868 -241.57337224872143 131.47645410915385 C -243.90984005144924 131.88925943795857 -246.54602607886304 132.2570411352859 -249.4825189978938 132.53231638450785 A 282.5 282.5 0 0 1 -251.358 128.94C -249.45351071770207 126.68786009619637 -247.64478804880525 124.73510244225169 -245.97045514828037 123.05400179954965 C -245.31332302115163 122.39422382009204 -244.67699311178907 121.77641660915042 -244.06372152327853 121.19881180097892 A 1.875 1.875 0 0 0 -243.767 118.972A 271.25 271.25 0 0 1 -244.053 118.384A 1.875 1.875 0 0 0 -245.988 117.243C -246.82122146013967 117.36954987268433 -247.7000508815904 117.48896658605932 -248.6247429366066 117.59884933298474 C -250.9808230157352 117.87880771097443 -253.63359406146893 118.09685799631639 -256.5809574552137 118.20556011941036 A 282.5 282.5 0 0 1 -258.25 114.513C -256.22134523419163 112.3721057537026 -254.3050421469756 110.52480430944743 -252.5382825914321 108.94112166902701 C -251.8448759888213 108.31957770586942 -251.1746127843823 107.73876040222223 -250.52964542233278 107.19677658550079 A 1.875 1.875 0 0 0 -250.107 104.991A 271.25 271.25 0 0 1 -250.36 104.387A 1.875 1.875 0 0 0 -252.227 103.139C -253.06608812545522 103.21764210284584 -253.95026597554744 103.28714773461104 -254.8796936186634 103.34453998926138 C -257.2478387393996 103.4907546253508 -259.9086971780489 103.55837501790668 -262.8574897530005 103.5001558092014 A 282.5 282.5 0 0 1 -264.315 99.7189C -262.1684255375061 97.69638967907275 -260.15068052847727 95.96046190794868 -258.29715378140577 94.47927028274826 C -257.56969389370596 93.89795132858478 -256.86764444930213 93.3559844651576 -256.19304733861594 92.8513577774459 A 1.875 1.875 0 0 0 -255.646 90.6726A 271.25 271.25 0 0 1 -255.864 90.0556A 1.875 1.875 0 0 0 -257.658 88.7039C -258.5003078173469 88.73509710778916 -259.38700180786896 88.75446901045177 -260.3181878021444 88.75918692813306 C -262.6908120817293 88.77118945276274 -265.3512343815323 88.6881633440293 -268.29201026608524 88.4632092972019 A 282.5 282.5 0 0 1 -269.533 84.6055C -267.2757013365366 82.70772261525892 -265.1629778512589 81.08872921725606 -263.2286213176227 79.71477331059373 C -262.4694384181654 79.17554150528784 -261.73785160981765 78.67416116533386 -261.03578568841465 78.20850807804504 A 1.875 1.875 0 0 0 -260.367 76.0642A 271.25 271.25 0 0 1 -260.549 75.4358A 1.875 1.875 0 0 0 -262.264 73.9848C -263.1064730918588 73.96830684526206 -263.99284287464286 73.93748296477771 -264.9228043506085 73.88951143257728 C -267.2923075581872 73.76726339804236 -269.9437715844663 73.5338567456762 -272.8671105868911 73.14288845635674 A 282.5 282.5 0 0 1 -273.888 69.2211C -271.5268124871816 67.45411778157838 -269.3258782159122 65.95724488063698 -267.3168882228492 64.69492588749546 C -266.52841420333607 64.19950855308458 -265.7696335241469 63.74032080898639 -265.0423477208288 63.31513294934195 A 1.875 1.875 0 0 0 -264.253 61.2121A 271.25 271.25 0 0 1 -264.4 60.5744A 1.875 1.875 0 0 0 -266.03 59.0287C -266.86982901297193 58.96457379629712 -267.7530352783852 58.883652870847655 -268.67879328907327 58.783145556045355 C -271.0375851915253 58.52703855965521 -273.6715975056535 58.14399903553018 -276.56813528981127 57.58826889301661 A 282.5 282.5 0 0 1 -277.366 53.615C -274.9081413988208 51.98443707289764 -272.6260465975579 50.61447960418951 -270.54885854567647 49.46784111286176 C -269.7336191260975 49.01782522042406 -268.9500751793359 48.60230098895974 -268.1998992097894 48.218940361857726 A 1.875 1.875 0 0 0 -267.293 46.1639A 271.25 271.25 0 0 1 -267.403 45.519A 1.875 1.875 0 0 0 -268.943 43.8835C -269.77832041711247 43.77195944110383 -270.6555339892219 43.641200684809114 -271.5741230526311 43.48847954263474 C -273.9146477283756 43.099333972308706 -276.5227707948212 42.567888567497526 -279.3832288769549 41.849176742975175 A 282.5 282.5 0 0 1 -279.955 37.8372C -277.40885665556345 36.34823454025197 -275.0529115619504 35.10958089055763 -272.9141793108015 34.08229592981447 C -272.07478594879206 33.67912301592208 -271.2689886619386 33.30859334647529 -270.4983255659537 32.968287971578036 A 1.875 1.875 0 0 0 -269.476 30.9679A 271.25 271.25 0 0 1 -269.55 30.3177A 1.875 1.875 0 0 0 -270.995 28.5977C -271.82263052947474 28.43913030365899 -272.6910414287508 28.258952576235966 -273.5995190271791 28.054506818549534 C -275.9142790700694 27.53356922486713 -278.4881582843662 26.855420319219018 -281.30337375488136 25.976029063335666 A 282.5 282.5 0 0 1 -281.647 21.9381C -279.02094771253843 20.595597654281367 -276.59869912896914 19.49221560466419 -274.4052736827281 18.587574877935857 C -273.54441520828306 18.232536426978623 -272.71894579297543 17.908188237786106 -271.93026423678424 17.612028215803058 A 1.875 1.875 0 0 0 -270.797 15.6726A 271.25 271.25 0 0 1 -270.834 15.0193A 1.875 1.875 0 0 0 -272.179 13.2204C -272.9962108084601 13.015202058158064 -273.853037252988 12.786182523186781 -274.7484932588041 12.5306670513855 C -277.03007379458 11.879606154509073 -279.5614642456437 11.056926063413924 -282.32241912067053 10.01967233147684 A 282.5 282.5 0 0 1 -282.437 5.96878C -279.7392505560846 4.7769868599614735 -277.25845767502034 3.812410875768741 -275.0173652366548 3.0333122200297202 C -274.1377992389953 2.7275455272013547 -273.2953019226294 2.450417803296051 -272.49112829102444 2.1993518240625267 A 1.875 1.875 0 0 0 -271.25 0.327186A 271.25 271.25 0 0 1 -271.25 -0.327186A 1.875 1.875 0 0 0 -272.491 -2.19935C -273.2953019226294 -2.450417803296106 -274.1377992389953 -2.7275455272014097 -275.0173652366548 -3.033312220029776 C -277.25845767502034 -3.812410875768797 -279.7392505560846 -4.77698685996153 -282.43710066479895 -5.9687804315426325 A 282.5 282.5 0 0 1 -282.322 -10.0197C -279.5614642456437 -11.056926063413979 -277.03007379458 -11.87960615450913 -274.7484932588041 -12.530667051385556 C -273.853037252988 -12.786182523186838 -272.9962108084601 -13.015202058158117 -272.1791211120219 -13.220369754620457 A 1.875 1.875 0 0 0 -270.834 -15.0193A 271.25 271.25 0 0 1 -270.797 -15.6726A 1.875 1.875 0 0 0 -271.93 -17.612C -272.71894579297543 -17.90818823778616 -273.54441520828306 -18.232536426978676 -274.4052736827281 -18.58757487793591 C -276.59869912896914 -19.492215604664246 -279.02094771253843 -20.59559765428142 -281.647051027707 -21.938113391400528 A 282.5 282.5 0 0 1 -281.303 -25.976C -278.4881582843662 -26.85542031921907 -275.9142790700694 -27.533569224867186 -273.5995190271791 -28.054506818549587 C -272.6910414287508 -28.25895257623602 -271.82263052947474 -28.439130303659045 -270.9952421528333 -28.59774250336545 A 1.875 1.875 0 0 0 -269.55 -30.3177A 271.25 271.25 0 0 1 -269.476 -30.9679A 1.875 1.875 0 0 0 -270.498 -32.9683C -271.2689886619386 -33.30859334647535 -272.07478594879206 -33.679123015922144 -272.9141793108015 -34.082295929814535 C -275.0529115619504 -35.109580890557694 -277.40885665556345 -36.34823454025203 -279.9548009765627 -37.8371719602679 A 282.5 282.5 0 0 1 -279.383 -41.8492C -276.5227707948212 -42.56788856749758 -273.9146477283756 -43.09933397230877 -271.5741230526311 -43.488479542634806 C -270.6555339892219 -43.64120068480918 -269.77832041711247 -43.77195944110389 -268.9432837346752 -43.883508061361056 A 1.875 1.875 0 0 0 -267.403 -45.519A 271.25 271.25 0 0 1 -267.293 -46.1639A 1.875 1.875 0 0 0 -268.2 -48.2189C -268.9500751793359 -48.60230098895968 -269.7336191260975 -49.017825220424 -270.54885854567647 -49.467841112861706 C -272.6260465975579 -50.61447960418945 -274.9081413988208 -51.984437072897585 -277.3657712984515 -53.615026660376145 A 282.5 282.5 0 0 1 -276.568 -57.5883C -273.6715975056535 -58.14399903553012 -271.0375851915253 -58.527038559655146 -268.67879328907327 -58.7831455560453 C -267.7530352783852 -58.8836528708476 -266.86982901297193 -58.96457379629706 -266.02981889897563 -59.028701513245146 A 1.875 1.875 0 0 0 -264.4 -60.5744A 271.25 271.25 0 0 1 -264.253 -61.2121A 1.875 1.875 0 0 0 -265.042 -63.3151C -265.7696335241469 -63.740320808986446 -266.52841420333607 -64.19950855308464 -267.3168882228492 -64.69492588749553 C -269.3258782159122 -65.95724488063703 -271.5268124871816 -67.45411778157843 -273.8882554359605 -69.22113626648863 A 282.5 282.5 0 0 1 -272.867 -73.1429C -269.9437715844663 -73.53385674567626 -267.2923075581872 -73.76726339804242 -264.9228043506085 -73.88951143257735 C -263.99284287464286 -73.93748296477777 -263.1064730918588 -73.96830684526212 -262.26418035194075 -73.98480823849084 A 1.875 1.875 0 0 0 -260.549 -75.4358A 271.25 271.25 0 0 1 -260.367 -76.0642A 1.875 1.875 0 0 0 -261.036 -78.2085C -261.7378516098176 -78.67416116533391 -262.46943841816534 -79.1755415052879 -263.22862131762264 -79.7147733105938 C -265.16297785125886 -81.08872921725612 -267.27570133653654 -82.70772261525897 -269.53339292078226 -84.60550970468131 A 282.5 282.5 0 0 1 -268.292 -88.4632C -265.35123438153227 -88.68816334402936 -262.69081208172923 -88.7711894527628 -260.31818780214434 -88.7591869281331 C -259.3870018078689 -88.75446901045183 -258.5003078173468 -88.73509710778922 -257.65843056908346 -88.70391931836129 A 1.875 1.875 0 0 0 -255.864 -90.0556A 271.25 271.25 0 0 1 -255.646 -90.6726A 1.875 1.875 0 0 0 -256.193 -92.8514C -256.86764444930213 -93.35598446515768 -257.5696938937059 -93.89795132858484 -258.2971537814057 -94.47927028274832 C -260.1506805284772 -95.96046190794874 -262.1684255375061 -97.69638967907281 -264.31513369043614 -99.71886618882408 A 282.5 282.5 0 0 1 -262.857 -103.5C -259.9086971780489 -103.55837501790674 -257.2478387393995 -103.49075462535086 -254.87969361866334 -103.34453998926143 C -253.9502659755474 -103.2871477346111 -253.0660881254552 -103.21764210284591 -252.22732315547785 -103.1388850026202 A 1.875 1.875 0 0 0 -250.36 -104.387A 271.25 271.25 0 0 1 -250.107 -104.991A 1.875 1.875 0 0 0 -250.53 -107.197C -251.17461278438233 -107.73876040222217 -251.84487598882131 -108.31957770586936 -252.5382825914321 -108.94112166902696 C -254.30504214697564 -110.52480430944738 -256.22134523419163 -112.37210575370254 -258.25019340241283 -114.51279308179541 A 282.5 282.5 0 0 1 -256.581 -118.206C -253.63359406146895 -118.09685799631633 -250.98082301573524 -117.87880771097437 -248.62474293660665 -117.59884933298468 C -247.70005088159044 -117.48896658605926 -246.8212214601397 -117.36954987268427 -245.98825558551403 -117.24346574439612 A 1.875 1.875 0 0 0 -244.053 -118.384A 271.25 271.25 0 0 1 -243.767 -118.972A 1.875 1.875 0 0 0 -244.064 -121.199C -244.67699311178905 -121.77641660915047 -245.3133230211516 -122.3942238200921 -245.97045514828034 -123.05400179954971 C -247.64478804880522 -124.73510244225177 -249.45351071770204 -126.68786009619643 -251.3579998888841 -128.93990097575482 A 282.5 282.5 0 0 1 -249.483 -132.532C -246.546026078863 -132.25704113528596 -243.9098400514492 -131.88925943795866 -241.5733722487214 -131.4764541091539 C -240.65637784922896 -131.31443285751874 -239.78571201200185 -131.14548759026806 -238.9612134735429 -130.97248031939162 A 1.875 1.875 0 0 0 -236.964 -132.002A 271.25 271.25 0 0 1 -236.645 -132.573A 1.875 1.875 0 0 0 -236.816 -134.813C -237.39559926620495 -135.42398624110598 -237.99595752395368 -136.0768043365918 -238.61471018328808 -136.77270286457454 C -240.19125303574407 -138.54583643738943 -241.88660140232818 -140.59779502954993 -243.6606309234995 -142.95397549470204 A 282.5 282.5 0 0 1 -241.585 -146.435C -238.6686968472056 -145.99356509927682 -236.0575403367023 -145.47723010561776 -233.74816922113462 -144.93290016591672 C -232.84180988667856 -144.71925941248622 -231.98209663883597 -144.5013267739837 -231.16870655392827 -144.28195055496496 A 1.875 1.875 0 0 0 -229.117 -145.196A 271.25 271.25 0 0 1 -228.766 -145.749A 1.875 1.875 0 0 0 -228.81 -147.995C -229.3537557472775 -148.63775201815326 -229.91621922491964 -149.32348982501495 -230.49461036515333 -150.05327972874144 C -231.96831302749533 -151.91276635027958 -233.54485637984297 -154.05735283867057 -235.18274349962132 -156.5101253330565 A 282.5 282.5 0 0 1 -232.913 -159.868C -230.02683982684547 -159.2624276608105 -227.44907715475486 -158.59919334746655 -225.17420033824862 -157.9250824497681 C -224.28137941102216 -157.66050655028286 -223.43537267327912 -157.39428464447087 -222.63569657558165 -157.1292422054759 A 1.875 1.875 0 0 0 -220.535 -157.926A 271.25 271.25 0 0 1 -220.154 -158.458A 1.875 1.875 0 0 0 -220.07 -160.702C -220.57722300421432 -161.3753862648854 -221.09998996166223 -162.0918471581946 -221.63616682160236 -162.85319070058966 C -223.00230857991806 -164.79307387461316 -224.4549967743829 -167.02341850217258 -225.95149484654118 -169.5649260560426 A 282.5 282.5 0 0 1 -223.496 -172.789C -220.6481374911246 -172.02112465286902 -218.11202600841693 -171.2131155592946 -215.87893060723448 -170.41138308403174 C -215.0025080618309 -170.09671955486093 -214.17291784881849 -169.78306117076315 -213.38951734195467 -169.47320152262773 A 1.875 1.875 0 0 0 -211.248 -170.15A 271.25 271.25 0 0 1 -210.836 -170.659A 1.875 1.875 0 0 0 -210.626 -172.896C -211.09411491729867 -173.59608649872882 -211.57551077438637 -174.34097543824905 -212.06775581790652 -175.13143380642023 C -213.32196050828614 -177.14549950229585 -214.64614014663184 -179.45445780278797 -215.99645543668782 -182.07655920124552 A 282.5 282.5 0 0 1 -213.362 -185.156C -210.56263265107074 -184.22878612255565 -208.07629628739997 -183.27859054547216 -205.8921355793342 -182.3518046834657 C -205.03491886138613 -181.9880614867565 -204.22440260065758 -181.62797136673737 -203.45978715262675 -181.27428708332954 A 1.875 1.875 0 0 0 -201.283 -181.829A 271.25 271.25 0 0 1 -200.844 -182.314A 1.875 1.875 0 0 0 -200.507 -184.535C -200.93480874065534 -185.26070613259603 -201.37329144132366 -186.03163701448844 -201.8200278591497 -186.84867813197883 C -202.9582778858583 -188.9304746900918 -204.14970722149582 -191.3106503739864 -205.34951426248887 -194.00494623575352 A 282.5 282.5 0 0 1 -202.545 -196.931C -199.80263221921666 -195.84630724987534 -197.3740354595244 -194.75696895217666 -195.24580596979368 -193.70809847794555 C -194.4105410028783 -193.29644079281658 -193.62169502236725 -192.89107241408882 -192.8783139269621 -192.49469645279535 A 1.875 1.875 0 0 0 -190.674 -192.925A 271.25 271.25 0 0 1 -190.208 -193.385A 1.875 1.875 0 0 0 -189.746 -195.583C -190.1318477947473 -196.33187987320574 -190.5260127467143 -197.12638317343905 -190.92580950742 -197.9673898112316 C -191.94445871246788 -200.11024860959623 -192.99932123804874 -202.55401725661375 -194.0447766863144 -205.31187693978177 A 282.5 282.5 0 0 1 -191.08 -208.074C -188.4026037208192 -206.8364736122623 -186.0395260926886 -205.61148207292445 -183.97404518195697 -204.44388683480616 C -183.16340757157496 -203.98563332492748 -182.3987587827746 -203.53628520461663 -181.67899331375466 -203.09848727713913 A 1.875 1.875 0 0 0 -179.453 -203.404A 271.25 271.25 0 0 1 -178.962 -203.836A 1.875 1.875 0 0 0 -178.377 -206.005C -178.71983722030933 -206.7741434133823 -179.06842179440284 -207.5896740983628 -179.4199982284349 -208.45195225865405 C -180.31578357132068 -210.64900907452028 -181.23070024416057 -213.1485425569486 -182.11845519071912 -215.96113180552595 A 282.5 282.5 0 0 1 -179.002 -218.551C -176.39906488398486 -217.16408039359504 -174.10907603746816 -215.80735962982317 -172.11296006378404 -214.5247797873664 C -171.3295465265887 -214.02139837688222 -170.59154433009212 -213.52950991248505 -169.89770011324617 -213.0516924175704 A 1.875 1.875 0 0 0 -167.659 -213.23A 271.25 271.25 0 0 1 -167.144 -213.634A 1.875 1.875 0 0 0 -166.437 -215.766C -166.73533312764997 -216.55404703492255 -167.0372207023896 -217.38799271400396 -167.33945060443816 -218.26878025989097 C -168.10950261465157 -220.51299725791938 -168.8815426808226 -223.06028881646688 -169.60875337894413 -225.91859805916428 A 282.5 282.5 0 0 1 -166.351 -228.328C -163.8304666623778 -226.7960451558352 -161.62090212212533 -225.31194115325331 -159.70054524673193 -223.91848519635957 C -158.94686529246266 -223.37158836768472 -158.23787373179468 -222.83873522624484 -157.57217335932611 -222.3224287573794 A 1.875 1.875 0 0 0 -155.326 -222.374A 271.25 271.25 0 0 1 -154.79 -222.748A 1.875 1.875 0 0 0 -153.963 -224.837C -154.21672549640923 -225.64026275812793 -154.47094903488147 -226.4899520518862 -154.72286427145545 -227.38642755532385 C -155.36471624025614 -229.67061583189388 -155.99140662267544 -232.2575057237532 -156.55574359725782 -235.15237893435696 A 282.5 282.5 0 0 1 -153.166 -237.374C -150.73707006522287 -235.70151381205048 -148.61500773258604 -234.09478060319947 -146.77656143749536 -232.59491219139107 C -146.0550293302615 -232.00625181994369 -145.37731951913432 -231.4341408907151 -144.7418954300283 -230.8809993331723 A 1.875 1.875 0 0 0 -142.497 -230.806A 271.25 271.25 0 0 1 -141.94 -231.149A 1.875 1.875 0 0 0 -140.996 -233.187C -141.2041152008801 -234.00368469476805 -141.40986034844912 -234.86639579223498 -141.61065395909955 -235.77568757192063 C -142.122249841129 -238.09253018335625 -142.60158306157004 -240.71073182032052 -143.00123857115005 -243.63289584720442 A 282.5 282.5 0 0 1 -139.492 -245.659C -137.1608171891556 -243.85195946135673 -135.13305466953508 -242.12774389709483 -133.38240805247628 -240.52626756106804 C -132.69533507714135 -239.8977293034843 -132.05107792439276 -239.2881932302507 -131.44796557357137 -238.6999884631978 A 1.875 1.875 0 0 0 -129.211 -238.498A 271.25 271.25 0 0 1 -128.635 -238.809A 1.875 1.875 0 0 0 -127.578 -240.791C -127.73918555481907 -241.6175222830152 -127.89579324775013 -242.49049166045958 -128.04482203000782 -243.40968698069392 C -128.42452302942237 -245.75176238164002 -128.754963639073 -248.3928888745431 -128.98865746656725 -251.33298314536896 A 282.5 282.5 0 0 1 -125.37 -253.157C -123.14519686504224 -251.22127376918164 -121.21822969310854 -249.3850990317695 -119.56099060297264 -247.68714478303403 C -118.91057766141216 -247.02074203684177 -118.30183691692997 -246.37573334740568 -117.73296825507629 -245.75434956804074 A 1.875 1.875 0 0 0 -115.511 -245.426A 271.25 271.25 0 0 1 -114.918 -245.704A 1.875 1.875 0 0 0 -113.751 -247.623C -113.86506878722494 -248.45738610569092 -113.97203736386425 -249.3378173790181 -114.06882393361117 -250.26397178007582 C -114.31541375363925 -252.62377759694547 -114.49590325160706 -255.27936862139634 -114.56288680523319 -258.2279751278491 A 282.5 282.5 0 0 1 -110.847 -259.845C -108.73510535014292 -257.78585060013177 -106.91510618268065 -255.84359851081447 -105.3565832558899 -254.05460540872016 C -104.74491381683907 -253.35247286281933 -104.17363946074812 -252.67405771446718 -103.64083674568587 -252.02148540236732 A 1.875 1.875 0 0 0 -101.441 -251.568A 271.25 271.25 0 0 1 -100.834 -251.812A 1.875 1.875 0 0 0 -99.5593 -253.662C -99.62620787680711 -254.5013660169215 -99.6831946845553 -255.38643889933488 -99.72742900522977 -256.3165856294567 C -99.8401177443371 -258.68656269279546 -99.87007796834703 -261.3481115901479 -99.77013667958886 -264.2957850566555 A 282.5 282.5 0 0 1 -95.9686 -265.7C -93.97670251186577 -263.52466163556 -92.26950135489298 -261.48255381332064 -90.81468701023798 -259.6082525421106 C -90.24372043531326 -258.87263933872134 -89.71174243160118 -258.1629908996986 -89.21671239105355 -257.4813204407139 A 1.875 1.875 0 0 0 -87.0459 -256.904A 271.25 271.25 0 0 1 -86.4259 -257.113A 1.875 1.875 0 0 0 -85.049 -258.888C -85.06821418772554 -259.7301013269411 -85.07503668065728 -260.6169806631707 -85.06657705639462 -261.5481401819639 C -85.04500373857701 -263.9206967407485 -84.92433871699926 -266.5796777674932 -84.65779272793452 -269.51697590729196 A 282.5 282.5 0 0 1 -80.7829 -270.704C -78.91726396379475 -268.41932373361067 -77.3283294972961 -266.2839016654486 -75.98188394371324 -264.33029617715005 C -75.45344921098642 -263.56355870713185 -74.96247164557727 -262.82495019533036 -74.50680001000345 -262.1163651854476 A 1.875 1.875 0 0 0 -72.3721 -261.417A 271.25 271.25 0 0 1 -71.7413 -261.591A 1.875 1.875 0 0 0 -70.2661 -263.285C -70.23772136264093 -264.12684282021746 -70.19435768625456 -265.0126876683771 -70.13323121578166 -265.94187719118156 C -69.97746494687986 -268.3094132314871 -69.70656120615608 -270.9573088697785 -69.27426434394475 -273.874822631404 A 282.5 282.5 0 0 1 -65.3385 -274.84C -63.605029627647106 -272.45415781596404 -62.139451687743154 -270.23226190254064 -60.9056879962606 -268.2056101844962 C -60.42147784149055 -267.410204539118 -59.97307346354394 -266.645001940273 -59.55821988656634 -265.9117721908998 A 1.875 1.875 0 0 0 -57.4666 -265.093A 271.25 271.25 0 0 1 -56.8269 -265.231A 1.875 1.875 0 0 0 -55.2582 -266.838C -55.18223594109829 -267.67750640823897 -55.08882500232235 -268.55947914021976 -54.97522749215224 -269.48372219286614 C -54.68576723848524 -271.83865378300214 -54.26549256496774 -274.46698202483583 -53.66882960678628 -277.35536573215137 A 282.5 282.5 0 0 1 -49.6847 -278.097C -48.08904920626092 -275.616239092652 -46.75152248092864 -273.3149867364245 -45.63439276859937 -271.22178076507237 C -45.19595826288922 -270.40025486841137 -44.79156344681051 -269.61090935713673 -44.41885682950429 -268.8553836242108 A 1.875 1.875 0 0 0 -42.3769 -267.919A 271.25 271.25 0 0 1 -41.7304 -268.021A 1.875 1.875 0 0 0 -40.0733 -269.537C -39.949985181758834 -270.370718245096 -39.80682620399131 -271.24599363634456 -39.64112154119591 -272.1623295896989 C -39.218894531221295 -274.49711317382855 -38.65059519139174 -277.09745469147003 -37.89147742857432 -279.947455980685 A 282.5 282.5 0 0 1 -33.8718 -280.462C -32.41902506260971 -277.89543846405616 -31.213834053181543 -275.52220127009207 -30.216916823261098 -273.3691462152082 C -29.82566240450976 -272.52413166238114 -29.46657254880988 -271.71317175031754 -29.1372067828321 -270.93777021053387 A 1.875 1.875 0 0 0 -27.1515 -269.888A 271.25 271.25 0 0 1 -26.5003 -269.952A 1.875 1.875 0 0 0 -24.7601 -271.373C -24.58976257595132 -272.19785116133846 -24.39731414055688 -273.06362544090274 -24.18003312712697 -273.96911899465385 C -23.626391881248683 -276.2762755570778 -22.91188830922073 -278.8403006727075 -21.992747424816855 -281.6427901304877 A 282.5 282.5 0 0 1 -17.9504 -281.929C -16.645153008150054 -279.28445496746747 -15.576158304764423 -276.84683512997145 -14.702646983686087 -274.64082787598943 C -14.359825957750353 -273.77503150336 -14.047191335493808 -272.94505493959014 -13.762221478688499 -272.1522614378449 A 1.875 1.875 0 0 0 -11.8391 -270.992A 271.25 271.25 0 0 1 -11.1853 -271.019A 1.875 1.875 0 0 0 -9.36748 -272.339C -9.15077154740837 -273.15305229940043 -8.909650124744022 -274.00655213125344 -8.641488777270467 -274.89830271656473 C -7.958206775308176 -277.1704417392629 -7.099787741428161 -279.6899371074455 -6.023568020788792 -282.4359375151765 A 282.5 282.5 0 0 1 -1.97146 -282.493C -0.8179615105036526 -279.7788391642718 0.11141257452906839 -277.28464511446526 0.8587198666618443 -275.03275216767616 C 1.1520093406838585 -274.148947382042 1.4171872665503833 -273.30261283171694 1.6568483698205139 -272.49496692460394 A 1.875 1.875 0 0 0 3.51126 -271.227A 271.25 271.25 0 0 1 4.16557 -271.218A 1.875 1.875 0 0 0 6.05511 -272.433C 6.317532161131921 -273.2332618620671 6.606554186457246 -274.07175322893835 6.9247368663344835 -274.9469042998444 C 7.735470866135894 -277.1767474365335 8.735055586910374 -279.64364235403906 9.964906687566438 -282.3243574445638 A 282.5 282.5 0 0 1 14.0138 -282.152C 15.011850164456032 -279.3770073928419 15.798626565758209 -276.83422878620416 16.417335978394085 -274.5436636386065 C 16.660154405897575 -273.6446815331413 16.877026190532952 -272.78470006097467 17.070610833502244 -271.9647888818196 A 1.875 1.875 0 0 0 18.8503 -270.594A 271.25 271.25 0 0 1 19.5031 -270.548A 1.875 1.875 0 0 0 21.4583 -271.654C 21.765598909580618 -272.438222913928 22.10159571288682 -273.259019875185 22.468780490119897 -274.1147680589694 C 23.404369462342842 -276.29517244984004 24.541917898801106 -278.7015647085402 25.921460795628818 -281.3084073432545 A 282.5 282.5 0 0 1 29.9541 -280.908C 30.79357435763792 -278.08024684148415 31.435232793202587 -275.49702896447695 31.923362413567325 -273.1751289867872 C 32.11493197392525 -272.26384927219556 32.28280291162183 -271.39297565810585 32.42969098431787 -270.5634256295984 A 1.875 1.875 0 0 0 34.129 -269.094A 271.25 271.25 0 0 1 34.7781 -269.011A 1.875 1.875 0 0 0 36.7928 -270.005C 37.1439438829329 -270.7704822044186 37.525839165164285 -271.5709554999446 37.9408498362146 -272.4045595771877 C 38.998296807324145 -274.52854072963805 40.270165048881545 -276.86672192966057 41.79498065008434 -279.3913416057069 A 282.5 282.5 0 0 1 45.7985 -278.763C 46.47665744865227 -275.89271142518567 46.971142493066175 -273.27732910344537 47.32712869482676 -270.93153204128726 C 47.466835732983824 -270.0108738212233 47.58516808251922 -269.1318977359433 47.684889058162064 -268.29536615691364 A 1.875 1.875 0 0 0 49.2984 -266.733A 271.25 271.25 0 0 1 49.9417 -266.613A 1.875 1.875 0 0 0 52.0094 -267.491C 52.40330560604899 -268.23538200981403 52.82987604148458 -269.0129674823205 53.29138320205733 -269.82175716785196 C 54.46730085061094 -271.8825113299231 55.86941471985298 -274.14499157198037 57.53461858136608 -276.57930117142615 A 282.5 282.5 0 0 1 61.4962 -275.726C 62.0108617942974 -272.82140847937256 62.35658946288831 -270.1822395709487 62.57929191491948 -267.8200597195122 C 62.666688907114235 -266.89297213981047 62.73510361429862 -266.00870920873075 62.787338056539866 -265.16787574201993 A 1.875 1.875 0 0 0 64.3098 -263.516A 271.25 271.25 0 0 1 64.9454 -263.36A 1.875 1.875 0 0 0 67.0594 -264.12C 67.49480374301011 -264.8410430203076 67.96468289794478 -265.5932498291033 68.47120820147167 -266.3746343257302 C 69.76182970873097 -268.36556028057464 71.28969781223188 -270.54509215836975 73.08995578406912 -272.88129385368387 A 282.5 282.5 0 0 1 76.9969 -271.805C 77.34642665487635 -268.8761763133022 77.54228947769343 -266.22167487185243 77.63099479690204 -263.85067900534034 C 77.66580178422049 -262.9201318070125 77.6840796961214 -262.0334145908848 77.68866028229516 -261.19097267957727 A 1.875 1.875 0 0 0 79.1153 -259.456A 271.25 271.25 0 0 1 79.741 -259.264A 1.875 1.875 0 0 0 81.8946 -259.903C 82.37009567557037 -260.5983383269917 82.88177838541397 -261.3227569268964 83.43169927864295 -262.0742332245081 C 84.83289039482978 -263.9889534360775 86.48161851043963 -266.078555251931 88.41116382358403 -268.3091654847764 A 282.5 282.5 0 0 1 92.2509 -267.013C 92.43422759284744 -264.0696526949922 92.47959816222141 -261.4083218889 92.4340221987276 -259.03610502186933 C 92.41612768389588 -258.1050790281286 92.38421025085118 -257.21874794951935 92.34112230795903 -256.3773961890324 A 1.875 1.875 0 0 0 93.6673 -254.564A 271.25 271.25 0 0 1 94.2811 -254.338A 1.875 1.875 0 0 0 96.4674 -254.853C 96.98153135913816 -255.52085859206946 97.53337854991136 -256.21516845191337 98.12493347043393 -256.9343293453771 C 99.6322057579787 -258.76671038759315 101.3965125124925 -260.7596885169256 103.44916425159596 -262.8775619702527 A 282.5 282.5 0 0 1 107.209 -261.367C 107.22593383320847 -258.4172343686398 107.12066681352754 -255.75759924280243 106.94095556088239 -253.39176030104284 C 106.87041686542628 -252.4632378688285 106.78840632859632 -251.5801321133894 106.69778788030925 -250.74256560705862 A 1.875 1.875 0 0 0 107.919 -248.857A 271.25 271.25 0 0 1 108.519 -248.596A 1.875 1.875 0 0 0 110.731 -248.988C 111.28230596023279 -249.62486851386618 111.87254989901531 -250.28684554985102 112.50384391808183 -250.9713873500158 C 114.1123691294423 -252.71555955398276 115.98660291643058 -254.60552988701244 118.15578581914903 -256.60388237366385 A 282.5 282.5 0 0 1 121.825 -254.883C 121.67416308153828 -251.93702773420853 121.41859567480188 -249.28760790174806 121.1053248023261 -246.93572538063194 C 120.98236788295283 -246.0126808472208 120.8505269468112 -245.13562926892106 120.71266827133832 -244.30453099477177 A 1.875 1.875 0 0 0 121.826 -242.353A 271.25 271.25 0 0 1 122.41 -242.059A 1.875 1.875 0 0 0 124.64 -242.324C 125.22660978647757 -242.9292547260974 125.85335974398956 -243.55677842620722 126.52237063653749 -244.20450833931466 C 128.2269961805311 -245.85488459563854 130.20515326413906 -247.63579298760948 132.48391878368022 -249.5082231821167 A 282.5 282.5 0 0 1 136.049 -247.582C 135.73263330377117 -244.64979084717015 135.32758416943028 -242.01907319854453 134.88175717817185 -239.68868088682132 C 134.70677590296262 -238.774071042129 134.52552689377455 -237.9058831015832 134.34086959401438 -237.08391531794302 A 1.875 1.875 0 0 0 135.342 -235.073A 271.25 271.25 0 0 1 135.908 -234.746A 1.875 1.875 0 0 0 138.15 -234.885C 138.76977502885478 -235.45546529828707 139.43102333603272 -236.04652551492754 140.135608058483 -236.6553686667915 C 141.93087350559006 -238.2066623227757 144.00661725231348 -239.8728039872086 146.38766581572685 -241.61331393116728 A 282.5 282.5 0 0 1 149.839 -239.489C 149.35631098150466 -236.57886692419544 148.8030776140489 -233.9752784411294 148.2261226222666 -231.67384128792906 C 147.99967750899842 -230.77059590302034 147.7696010219825 -229.91405266793927 147.53873661093573 -229.1038483854221 A 1.875 1.875 0 0 0 148.424 -227.039A 271.25 271.25 0 0 1 148.971 -226.681A 1.875 1.875 0 0 0 151.218 -226.693C 151.86841884616422 -227.22744103113487 152.56204732533024 -227.7801444202421 153.29994888040198 -228.348150502696 C 155.1801034541673 -229.79539229708382 157.34678463100013 -231.34143007992705 159.82248902190994 -232.94444439526603 A 282.5 282.5 0 0 1 163.148 -230.628C 162.50155536793565 -227.75010956779332 161.80190994062713 -225.18199032911554 161.09567510909727 -222.91688053146612 C 160.81849152973552 -222.027892973615 160.540324569242 -221.18573821020712 160.26399257521717 -220.38989275738646 A 1.875 1.875 0 0 0 161.031 -218.279A 271.25 271.25 0 0 1 161.557 -217.89A 1.875 1.875 0 0 0 163.801 -217.774C 164.4805823333423 -218.27153876691398 165.20436908336583 -218.78411485290627 165.97322374991916 -219.30946437122827 C 167.93224474842287 -220.64801835224466 170.182922822355 -222.06899982838775 172.74535261323365 -223.5293835769859 A 282.5 282.5 0 0 1 175.934 -221.028C 175.1262582823287 -218.191799949428 174.28244197039692 -215.6673764152843 173.44918958219716 -213.4458498027422 C 173.1221554393106 -212.57396776710414 172.79678905797434 -211.74889915096549 172.47587465565553 -210.96996186075438 A 1.875 1.875 0 0 0 173.122 -208.819A 271.25 271.25 0 0 1 173.626 -208.4A 1.875 1.875 0 0 0 175.859 -208.158C 176.5658649284845 -208.61644696055967 177.31749144220143 -209.0872538077046 178.11483634694866 -209.5682639090076 C 180.14644843533628 -210.7938422847106 182.4739138059732 -212.08521562209464 185.11486076169138 -213.39829075453568 A 282.5 282.5 0 0 1 188.157 -210.721C 187.18997899521366 -207.93455621640092 186.20469479669535 -205.46191487642238 185.24709401043015 -203.2910876684628 C 184.87125689297105 -202.43910405604885 184.4997333374014 -201.63376453069466 184.135264512367 -200.87423057406397 A 1.875 1.875 0 0 0 184.659 -198.69A 271.25 271.25 0 0 1 185.138 -198.244A 1.875 1.875 0 0 0 187.354 -197.876C 188.08555382802555 -198.29309378189842 188.86261241911564 -198.72062325392793 189.68589342594717 -199.15575311784488 C 191.78358873821887 -200.26442999121545 194.1803858323053 -201.4220585317238 196.89139020358365 -202.58361887249887 A 282.5 282.5 0 0 1 199.777 -199.738C 198.65407377223445 -197.01123541269357 197.53047784945628 -194.59829688253225 196.45159614913692 -192.48512289315295 C 196.02815997669808 -191.65576686432556 195.61166934884872 -190.8727361750455 195.20481360462364 -190.13503856823894 A 1.875 1.875 0 0 0 195.604 -187.924A 271.25 271.25 0 0 1 196.057 -187.452A 1.875 1.875 0 0 0 198.248 -186.959C 199.00274799551906 -187.3345480433969 199.8027495110512 -187.7174306345226 200.6493294027033 -188.10528640891843 C 202.80638838837066 -189.09351035369264 205.26483954223923 -190.11368586411368 208.03721716477597 -191.1200105852696 A 282.5 282.5 0 0 1 210.757 -188.116C 209.4818196616794 -185.45682822795106 208.2235112311184 -183.11132187716032 207.02680460008708 -181.0625702397189 C 206.55712576638442 -180.25849847186873 206.0970022112979 -179.5002849020249 205.6490628294878 -178.7867867128747 A 1.875 1.875 0 0 0 205.923 -176.557A 271.25 271.25 0 0 1 206.348 -176.06A 1.875 1.875 0 0 0 208.508 -175.444C 209.28247636678296 -175.77591327078568 210.10285816072215 -176.11292249263855 210.97002508657906 -176.45226175853904 C 213.1795380354111 -177.31686719549666 215.6917680888539 -178.1963217461129 218.5166382013208 -179.04418728618586 A 282.5 282.5 0 0 1 221.063 -175.891C 219.6385321291674 -173.30834691175383 218.2495419320755 -171.03778610428728 216.93884378244886 -169.0600195879263 C 216.4244268103832 -168.28380776533353 215.92214424252236 -167.55284010157277 215.43455610800982 -166.86582687988076 A 1.875 1.875 0 0 0 215.582 -164.624A 271.25 271.25 0 0 1 215.978 -164.104A 1.875 1.875 0 0 0 218.1 -163.367C 218.89180987276055 -163.65421525588363 219.7299440148961 -163.94427156632614 220.61492017786483 -164.2340073177602 C 222.8698093537731 -164.97222465502955 225.42777087655375 -165.70814108778154 228.2960845683522 -166.3948314778362 A 282.5 282.5 0 0 1 230.659 -163.103C 229.09167616266788 -160.60470671222384 227.57645355339244 -158.41636473886564 226.15596244648677 -156.51591872598465 C 225.59845516870365 -155.77005328912568 225.0556225505591 -155.06867304124364 224.5299475551347 -154.41034549747636 A 1.875 1.875 0 0 0 224.55 -152.164A 271.25 271.25 0 0 1 224.916 -151.622A 1.875 1.875 0 0 0 226.993 -150.766C 227.7999669212561 -151.00828345182413 228.65316861525403 -151.25045771304914 229.55311916988626 -151.48966183905674 C 231.84616148304704 -152.09912634395235 234.441660553246 -152.68914729664544 237.34422975089566 -153.2124628603423 A 282.5 282.5 0 0 1 239.518 -149.792C 237.81097049195265 -147.38660121875307 236.17436918531334 -145.2874879985748 234.64863538238694 -143.47045019069049 C 234.04982366277173 -142.75732037141952 233.46817985086994 -142.08777427179893 232.90610189002203 -141.46024122754855 A 1.875 1.875 0 0 0 232.799 -139.216A 271.25 271.25 0 0 1 233.134 -138.654A 1.875 1.875 0 0 0 235.159 -137.682C 235.9784119996546 -137.8786265906109 236.84394818326984 -138.07214304545016 237.75599031662628 -138.2600493031016 C 240.07984046121504 -138.73880867707578 242.70456291283185 -139.1810441347218 245.6320898121399 -139.53930853454366 A 282.5 282.5 0 0 1 247.608 -136.001C 245.7684845886338 -133.69637200816857 244.0157471120105 -131.6932116336451 242.3896579984051 -129.96540255064798 C 241.75146001142264 -129.28729271876716 241.13286818624437 -128.65172552541668 240.53618776513414 -128.0569971582096 A 1.875 1.875 0 0 0 240.302 -125.823A 271.25 271.25 0 0 1 240.605 -125.243A 1.875 1.875 0 0 0 242.572 -124.158C 243.40094708277124 -124.30730292143672 244.27604518266998 -124.45154167834495 245.19725734883937 -124.58754814724789 C 247.54447133225972 -124.93406877969176 250.19000938799297 -125.22710212879682 253.13311623772407 -125.41916773586321 A 282.5 282.5 0 0 1 254.906 -121.775C 252.93872813606617 -119.57787301189686 251.07546903600348 -117.67708220961106 249.35423346537553 -116.04403654488566 C 248.678693551579 -115.40311889061978 248.02513524923037 -114.80356651686749 247.395763715131 -114.24354792095974 A 1.875 1.875 0 0 0 247.036 -112.026A 271.25 271.25 0 0 1 247.305 -111.43A 1.875 1.875 0 0 0 249.208 -110.235C 250.04379555302427 -110.3377854854322 250.92565236617207 -110.43228450418663 251.85308364486352 -110.51595551461858 C 254.21614263309968 -110.729127395479 256.8740218369927 -110.87201996188361 259.82328097863336 -110.8972715321521 A 282.5 282.5 0 0 1 261.387 -107.159C 259.2987326825164 -105.07633003860107 257.33092053963827 -103.283997614534 255.52005214843044 -101.75094650566723 C 254.80933426582226 -101.14927408148371 254.1229030305774 -100.58765707433294 253.46285645025253 -100.06414215811895 A 1.875 1.875 0 0 0 252.978 -97.8708A 271.25 271.25 0 0 1 253.213 -97.2602A 1.875 1.875 0 0 0 255.045 -95.9598C 255.8856783641093 -96.01482285840792 256.77146903727566 -96.05927943016236 257.702148586506 -96.09034695865219 C 260.0734829892149 -96.16948723412872 262.73518935289286 -96.16178128986412 265.68115342028375 -96.02013793494238 A 282.5 282.5 0 0 1 267.031 -92.1991C 264.8281252160386 -90.23819590228022 262.7620635258853 -88.56006323753002 260.8673630714865 -87.13191750940052 C 260.12374386370857 -86.57141765346334 259.40663854175597 -86.04953504150161 258.7180312433901 -85.5642007810848 A 1.875 1.875 0 0 0 258.11 -83.4018A 271.25 271.25 0 0 1 258.31 -82.7789A 1.875 1.875 0 0 0 260.065 -81.377C 260.9078822041993 -81.38429580767703 261.7947692828143 -81.37856752462959 262.7257158554104 -81.35693205251742 C 265.09772957360155 -81.30178721244891 267.754736849143 -81.14350744197772 270.6879690312412 -80.83542288823357 A 282.5 282.5 0 0 1 271.82 -76.9441C 269.5091934253728 -75.11100161990318 267.3515004064044 -73.55244427931046 265.3790371855754 -72.23377871323602 C 264.60489868913294 -71.7162468755606 263.8594163850083 -71.2357704061287 263.1444541853761 -70.79017147346144 A 1.875 1.875 0 0 0 262.415 -68.6656A 271.25 271.25 0 0 1 262.58 -68.0324A 1.875 1.875 0 0 0 264.253 -66.5334C 265.09431944032457 -66.49307032212452 265.97946195770066 -66.43717553369274 266.90769345113324 -66.36290636591833 C 269.272788209764 -66.17365305585228 271.9165852018435 -65.86530647699678 274.8276894716727 -65.39176761213568 A 282.5 282.5 0 0 1 275.737 -61.4427C 273.32694243781845 -59.74320415523081 271.08452983126557 -58.309214667823944 269.0406222383516 -57.10425334715769 C 268.2384442522323 -56.631347338243124 267.4669729705001 -56.19381612232438 266.72794610907044 -55.789379905125074 A 1.875 1.875 0 0 0 265.879 -53.7095A 271.25 271.25 0 0 1 266.008 -53.0679A 1.875 1.875 0 0 0 267.594 -51.4767C 268.43157965191045 -51.38884748631632 269.3121422297161 -51.28296524035843 270.23468523867285 -51.156300283456495 C 272.58528492621366 -50.83354473880024 275.20740275602634 -50.37611907861134 278.08705396898455 -49.738642790377696 A 282.5 282.5 0 0 1 278.772 -45.7444C 276.2691428523319 -44.184031196552795 273.94919378180526 -42.87920306297225 271.84038906901384 -41.79180584209028 C 271.012741211144 -41.36504052245257 270.2177522068992 -40.97185610443641 269.4570280095075 -40.609878133836226 A 1.875 1.875 0 0 0 268.492 -38.5813A 271.25 271.25 0 0 1 268.584 -37.9335A 1.875 1.875 0 0 0 270.077 -36.2551C 270.9089725883981 -36.120010679544635 271.7821345192287 -35.964480148815326 272.69603386032804 -35.78582514882915 C 275.02460879733223 -35.330601252895036 277.6166480309655 -34.72556178366483 280.4556217960742 -33.92619010079317 A 282.5 282.5 0 0 1 280.913 -29.8996C 278.3263699139849 -28.48332346556108 275.93631587576454 -27.311836443692087 273.7693691803431 -26.34548658371621 C 272.9189026563269 -25.966229011333336 272.1029425190196 -25.618650879446033 271.3229578146097 -25.3002906800122 A 1.875 1.875 0 0 0 270.245 -23.3296A 271.25 271.25 0 0 1 270.3 -22.6776A 1.875 1.875 0 0 0 271.696 -20.9174C 272.51856241333917 -20.735470589277696 273.38152669629363 -20.530789984955494 274.2838548744281 -20.30071722771009 C 276.58294593336467 -19.71448319987553 279.13660348771765 -18.963768045428374 281.9258057161267 -18.005061596409703 A 282.5 282.5 0 0 1 282.155 -13.959C 279.4920337042959 -12.691375062492568 277.0395307620084 -11.656981778440496 274.82138346750315 -10.81477478930277 C 273.9508225780116 -10.484239840515833 273.11650507395336 -10.18338139230002 272.3197583886794 -9.90965876772904 A 1.875 1.875 0 0 0 271.132 -8.00311A 271.25 271.25 0 0 1 271.15 -7.349A 1.875 1.875 0 0 0 272.444 -5.51272" stroke="#191919" stroke-width="0.35 px" style="stroke-width:0.35;stroke-miterlimit:4;stroke-dasharray:none;fill:none;fill-rule: evenodd "/>
<title>b'InvoluteGear'</title>
</g>
</svg>