<?xml version="1.0"?>
<!DOCTYPE svg PUBLIC "-//W3C//DTD SVG 1.1//EN" "http://www.w3.org/Graphics/SVG/1.1/DTD/svg11.dtd">
<svg width="152.96505487964683mm" height="152.96505487964683mm" viewBox="0 0 152.96505487964683 152.96505487964683" xmlns="http://www.w3.org/2000/svg" version="1.1">
<g id="InvoluteGear" transform="translate(76.482527,76.482527) scale(1,-1)">
<path id="InvoluteGear_w0000"  d="M 65.43291818601142 -4.653839024153921 L 65.71389218350333 -4.670025517000442 C 65.98189872005672 -4.674249176419148 66.7895958723891 -4.657441541521428 68.13426067818905 -4.3773024659082544 C 69.74603282102716 -4.03760203603203 72.07667535629702 -3.322658266032639 74.98287003904257 -1.8255894534896928 A 75 75 0 0 1 74.9829 1.82559C 72.07667535629702 3.322658266032639 69.74603282102716 4.03760203603203 68.13426067818905 4.3773024659082544 C 66.7895958723891 4.657441541521428 65.98189872005672 4.674249176419148 65.71389218350333 4.670025517000442 L 65.43291818601142 4.6538390241539105 A 1.875 1.875 0 0 0 63.4343 6.33697A 63.75 63.75 0 0 1 63.2539 7.93736A 1.875 1.875 0 0 0 64.828 10.023L 65.10548614744712 10.069778435452628 C 65.36771305321876 10.125297736814037 66.15141950100234 10.321413493904442 67.40003394396216 10.893744966457334 C 68.89580513717073 11.583581439872932 71.008923642697 12.799216830552403 73.50912480677611 14.905440157420834 A 75 75 0 0 1 72.6967 18.4651C 69.53020160154651 19.277921402946163 67.09890318516719 19.456323286292506 65.45195107811578 19.428853674609897 C 64.07866301766977 19.4027530102732 63.28747646865612 19.239409717981896 63.02712926816161 19.17565488970279 L 62.75680170891512 19.09735162968704 A 1.875 1.875 0 0 0 60.4337 20.2935A 63.75 63.75 0 0 1 59.9018 21.8137A 1.875 1.875 0 0 0 60.9722 24.1973L 61.23241917912319 24.304641649419203 C 61.475717302093486 24.417119941962056 62.196134731563255 24.78270975827655 63.28608806975308 25.61853453788725 C 64.59085409990804 26.623915773558913 66.38048799020923 28.279285750378463 68.3493251093241 30.889048759140508 A 75 75 0 0 1 66.7651 34.1786C 63.49719320565702 34.26650906312655 61.08715436298356 33.899423244447476 59.48760734743952 33.50616103223891 C 58.15455843004974 33.175129424249064 57.41955588162968 32.83982591950641 57.17992291294207 32.7197368556738 L 56.93379714455122 32.58324328091195 A 1.875 1.875 0 0 0 54.4028 33.2325A 63.75 63.75 0 0 1 53.5459 34.5962A 1.875 1.875 0 0 0 54.0591 37.1582L 54.288903028842526 37.32076864373868 C 54.50107238520126 37.48456579620643 55.122076058242406 38.00129747178488 55.99871348003662 39.05870381390338 C 57.04704793015756 40.329215798568086 58.42345748911358 42.34131319866694 59.76220484896395 45.323751474641966 A 75 75 0 0 1 57.4857 48.1784C 54.28017040124764 47.536830874400835 52.012240543297494 46.6426645694618 50.540306585746855 45.9033295661674 C 49.31434145045875 45.283966321616646 48.67237899951342 44.79351612225593 48.46547646030285 44.62311458997865 L 48.25589425652645 44.4352750582568 A 1.875 1.875 0 0 0 45.6439 44.5051A 63.75 63.75 0 0 1 44.5051 45.6439A 1.875 1.875 0 0 0 44.4353 48.2559L 44.623114589978655 48.465476460302845 C 44.79351612225594 48.67237899951341 45.28396632161665 49.31434145045874 45.90332956616741 50.54030658574685 C 46.64266456946181 52.01224054329749 47.53683087440084 54.28017040124763 48.17835809224167 57.48573203570057 A 75 75 0 0 1 45.3238 59.7622C 42.341313198666946 58.423457489113574 40.32921579856809 57.047047930157554 39.058703813903385 55.99871348003661 C 38.00129747178489 55.1220760582424 37.48456579620644 54.501072385201255 37.32076864373869 54.28890302884252 L 37.15823933141317 54.05913659863077 A 1.875 1.875 0 0 0 34.5962 53.5459A 63.75 63.75 0 0 1 33.2325 54.4028A 1.875 1.875 0 0 0 32.5832 56.9338L 32.7197368556738 57.17992291294207 C 32.83982591950641 57.41955588162968 33.17512942424907 58.15455843004973 33.50616103223891 59.48760734743952 C 33.899423244447476 61.08715436298356 34.26650906312655 63.49719320565702 34.178647285470916 66.76513795297672 A 75 75 0 0 1 30.889 68.3493C 28.279285750378467 66.38048799020923 26.623915773558917 64.59085409990804 25.618534537887253 63.28608806975308 C 24.782709758276553 62.19613473156326 24.417119941962063 61.475717302093486 24.304641649419207 61.23241917912319 L 24.197315126927858 60.97224729865343 A 1.875 1.875 0 0 0 21.8137 59.9018A 63.75 63.75 0 0 1 20.2935 60.4337A 1.875 1.875 0 0 0 19.0974 62.7568L 19.1756548897028 63.02712926816161 C 19.2394097179819 63.28747646865612 19.40275301027321 64.07866301766977 19.4288536746099 65.45195107811578 C 19.456323286292513 67.09890318516719 19.277921402946166 69.53020160154651 18.46507638620456 72.69666106635346 A 75 75 0 0 1 14.9054 73.5091C 12.799216830552407 71.008923642697 11.583581439872937 68.89580513717073 10.893744966457337 67.40003394396216 C 10.321413493904446 66.15141950100234 10.12529773681404 65.36771305321876 10.069778435452632 65.10548614744712 L 10.023036502789708 64.82795492118926 A 1.875 1.875 0 0 0 7.93736 63.2539A 63.75 63.75 0 0 1 6.33697 63.4343A 1.875 1.875 0 0 0 4.65384 65.4329L 4.670025517000447 65.71389218350333 C 4.674249176419153 65.98189872005672 4.6574415415214325 66.7895958723891 4.377302465908259 68.13426067818905 C 4.037602036032035 69.74603282102716 3.3226582660326436 72.07667535629702 1.8255894534896975 74.98287003904257 A 75 75 0 0 1 -1.82559 74.9829C -3.3226582660326347 72.07667535629702 -4.037602036032026 69.74603282102716 -4.37730246590825 68.13426067818905 C -4.657441541521424 66.7895958723891 -4.674249176419144 65.98189872005672 -4.670025517000438 65.71389218350333 L -4.653839024153905 65.43291818601142 A 1.875 1.875 0 0 0 -6.33697 63.4343A 63.75 63.75 0 0 1 -7.93736 63.2539A 1.875 1.875 0 0 0 -10.023 64.828L -10.069778435452625 65.10548614744712 C -10.125297736814034 65.36771305321876 -10.321413493904439 66.15141950100234 -10.893744966457326 67.40003394396216 C -11.583581439872928 68.89580513717073 -12.799216830552396 71.008923642697 -14.90544015742083 73.50912480677611 A 75 75 0 0 1 -18.4651 72.6967C -19.277921402946156 69.53020160154651 -19.456323286292502 67.09890318516719 -19.428853674609893 65.45195107811578 C -19.4027530102732 64.07866301766977 -19.239409717981893 63.28747646865612 -19.17565488970279 63.02712926816161 L -19.097351629687033 62.75680170891512 A 1.875 1.875 0 0 0 -20.2935 60.4337A 63.75 63.75 0 0 1 -21.8137 59.9018A 1.875 1.875 0 0 0 -24.1973 60.9722L -24.3046416494192 61.23241917912319 C -24.417119941962056 61.475717302093486 -24.782709758276546 62.196134731563255 -25.618534537887243 63.28608806975308 C -26.62391577355891 64.59085409990804 -28.27928575037846 66.38048799020923 -30.8890487591405 68.3493251093241 A 75 75 0 0 1 -34.1786 66.7651C -34.26650906312654 63.49719320565702 -33.89942324444747 61.08715436298356 -33.5061610322389 59.48760734743952 C -33.175129424249064 58.15455843004974 -32.8398259195064 57.41955588162968 -32.719736855673794 57.17992291294207 L -32.583243280911944 56.93379714455122 A 1.875 1.875 0 0 0 -33.2325 54.4028A 63.75 63.75 0 0 1 -34.5962 53.5459A 1.875 1.875 0 0 0 -37.1582 54.0591L -37.320768643738674 54.28890302884253 C -37.484565796206425 54.50107238520127 -38.00129747178487 55.12207605824241 -39.05870381390337 55.99871348003663 C -40.32921579856808 57.04704793015756 -42.341313198666924 58.42345748911359 -45.32375147464195 59.76220484896396 A 75 75 0 0 1 -48.1784 57.4857C -47.536830874400835 54.280170401247645 -46.64266456946179 52.01224054329751 -45.90332956616739 50.54030658574686 C -45.28396632161664 49.314341450458755 -44.79351612225592 48.67237899951343 -44.62311458997864 48.46547646030286 L -44.43527505825679 48.25589425652646 A 1.875 1.875 0 0 0 -44.5051 45.6439A 63.75 63.75 0 0 1 -45.6439 44.5051A 1.875 1.875 0 0 0 -48.2559 44.4353L -48.465476460302845 44.623114589978655 C -48.67237899951341 44.79351612225594 -49.31434145045874 45.28396632161665 -50.54030658574685 45.90332956616741 C -52.01224054329749 46.64266456946181 -54.28017040124763 47.53683087440084 -57.48573203570057 48.17835809224167 A 75 75 0 0 1 -59.7622 45.3238C -58.423457489113574 42.341313198666946 -57.047047930157554 40.32921579856809 -55.99871348003661 39.058703813903385 C -55.1220760582424 38.00129747178489 -54.501072385201255 37.48456579620644 -54.28890302884252 37.32076864373869 L -54.05913659863077 37.15823933141317 A 1.875 1.875 0 0 0 -53.5459 34.5962A 63.75 63.75 0 0 1 -54.4028 33.2325A 1.875 1.875 0 0 0 -56.9338 32.5832L -57.17992291294206 32.71973685567381 C -57.41955588162967 32.83982591950642 -58.15455843004972 33.17512942424907 -59.487607347439514 33.506161032238914 C -61.087154362983554 33.89942324444748 -63.497193205657005 34.266509063126556 -66.7651379529767 34.17864728547092 A 75 75 0 0 1 -68.3493 30.889C -66.38048799020922 28.27928575037847 -64.59085409990804 26.62391577355892 -63.28608806975307 25.618534537887257 C -62.19613473156325 24.782709758276557 -61.47571730209348 24.417119941962063 -61.232419179123184 24.30464164941921 L -60.97224729865342 24.19731512692786 A 1.875 1.875 0 0 0 -59.9018 21.8137A 63.75 63.75 0 0 1 -60.4337 20.2935A 1.875 1.875 0 0 0 -62.7568 19.0974L -63.02712926816161 19.1756548897028 C -63.28747646865612 19.239409717981903 -64.07866301766977 19.40275301027321 -65.45195107811578 19.428853674609904 C -67.09890318516719 19.456323286292516 -69.53020160154651 19.27792140294617 -72.69666106635346 18.465076386204565 A 75 75 0 0 1 -73.5091 14.9054C -71.008923642697 12.79921683055241 -68.89580513717073 11.58358143987294 -67.40003394396216 10.89374496645734 C -66.15141950100234 10.32141349390445 -65.36771305321876 10.125297736814044 -65.10548614744712 10.069778435452635 L -64.82795492118926 10.023036502789711 A 1.875 1.875 0 0 0 -63.2539 7.93736A 63.75 63.75 0 0 1 -63.4343 6.33697A 1.875 1.875 0 0 0 -65.4329 4.65384L -65.71389218350333 4.67002551700045 C -65.98189872005672 4.674249176419156 -66.7895958723891 4.657441541521436 -68.13426067818905 4.377302465908262 C -69.74603282102716 4.037602036032039 -72.07667535629702 3.322658266032648 -74.98287003904257 1.825589453489702 A 75 75 0 0 1 -74.9829 -1.82559C -72.07667535629702 -3.3226582660326303 -69.74603282102716 -4.0376020360320215 -68.13426067818905 -4.3773024659082465 C -66.7895958723891 -4.65744154152142 -65.98189872005672 -4.67424917641914 -65.71389218350333 -4.670025517000434 L -65.43291818601142 -4.653839024153902 A 1.875 1.875 0 0 0 -63.4343 -6.33697A 63.75 63.75 0 0 1 -63.2539 -7.93736A 1.875 1.875 0 0 0 -64.828 -10.023L -65.10548614744712 -10.06977843545262 C -65.36771305321876 -10.12529773681403 -66.15141950100234 -10.321413493904435 -67.40003394396216 -10.893744966457323 C -68.89580513717073 -11.583581439872924 -71.008923642697 -12.799216830552393 -73.50912480677611 -14.905440157420827 A 75 75 0 0 1 -72.6967 -18.4651C -69.53020160154651 -19.277921402946152 -67.09890318516719 -19.4563232862925 -65.45195107811578 -19.42885367460989 C -64.07866301766977 -19.402753010273194 -63.28747646865612 -19.23940971798189 -63.02712926816161 -19.175654889702784 L -62.75680170891512 -19.097351629687033 A 1.875 1.875 0 0 0 -60.4337 -20.2935A 63.75 63.75 0 0 1 -59.9018 -21.8137A 1.875 1.875 0 0 0 -60.9722 -24.1973L -61.23241917912319 -24.304641649419196 C -61.475717302093486 -24.41711994196205 -62.196134731563255 -24.782709758276543 -63.28608806975308 -25.61853453788724 C -64.59085409990804 -26.623915773558902 -66.38048799020923 -28.279285750378456 -68.3493251093241 -30.8890487591405 A 75 75 0 0 1 -66.7651 -34.1786C -63.49719320565702 -34.26650906312654 -61.08715436298356 -33.89942324444746 -59.48760734743952 -33.50616103223889 C -58.15455843004974 -33.175129424249064 -57.41955588162968 -32.8398259195064 -57.17992291294207 -32.719736855673794 L -56.93379714455122 -32.583243280911944 A 1.875 1.875 0 0 0 -54.4028 -33.2325A 63.75 63.75 0 0 1 -53.5459 -34.5962A 1.875 1.875 0 0 0 -54.0591 -37.1582L -54.28890302884253 -37.320768643738674 C -54.50107238520127 -37.484565796206425 -55.12207605824241 -38.00129747178487 -55.99871348003663 -39.05870381390337 C -57.04704793015756 -40.32921579856808 -58.42345748911359 -42.341313198666924 -59.76220484896396 -45.32375147464195 A 75 75 0 0 1 -57.4857 -48.1784C -54.280170401247645 -47.536830874400835 -52.01224054329751 -46.64266456946179 -50.54030658574686 -45.90332956616739 C -49.314341450458755 -45.28396632161664 -48.67237899951343 -44.79351612225592 -48.46547646030286 -44.62311458997864 L -48.25589425652646 -44.43527505825679 A 1.875 1.875 0 0 0 -45.6439 -44.5051A 63.75 63.75 0 0 1 -44.5051 -45.6439A 1.875 1.875 0 0 0 -44.4353 -48.2559L -44.62311458997867 -48.465476460302845 C -44.79351612225595 -48.67237899951341 -45.28396632161666 -49.31434145045874 -45.903329566167415 -50.54030658574685 C -46.642664569461814 -52.01224054329749 -47.53683087440085 -54.28017040124763 -48.17835809224168 -57.48573203570057 A 75 75 0 0 1 -45.3238 -59.7622C -42.34131319866695 -58.423457489113574 -40.3292157985681 -57.047047930157554 -39.05870381390339 -55.99871348003661 C -38.001297471784895 -55.1220760582424 -37.484565796206454 -54.501072385201255 -37.3207686437387 -54.28890302884252 L -37.15823933141318 -54.05913659863077 A 1.875 1.875 0 0 0 -34.5962 -53.5459A 63.75 63.75 0 0 1 -33.2325 -54.4028A 1.875 1.875 0 0 0 -32.5832 -56.9338L -32.71973685567381 -57.17992291294206 C -32.83982591950642 -57.41955588162967 -33.17512942424908 -58.15455843004972 -33.506161032238914 -59.48760734743951 C -33.89942324444748 -61.087154362983554 -34.266509063126556 -63.497193205657005 -34.17864728547093 -66.7651379529767 A 75 75 0 0 1 -30.889 -68.3493C -28.279285750378474 -66.38048799020922 -26.623915773558924 -64.59085409990804 -25.61853453788726 -63.28608806975308 C -24.78270975827656 -62.19613473156325 -24.41711994196207 -61.47571730209348 -24.304641649419217 -61.232419179123184 L -24.19731512692787 -60.97224729865343 A 1.875 1.875 0 0 0 -21.8137 -59.9018A 63.75 63.75 0 0 1 -20.2935 -60.4337A 1.875 1.875 0 0 0 -19.0974 -62.7568L -19.175654889702805 -63.027129268161595 C -19.239409717981907 -63.28747646865611 -19.402753010273216 -64.07866301766975 -19.42885367460991 -65.45195107811578 C -19.45632328629252 -67.09890318516717 -19.277921402946177 -69.5302016015465 -18.465076386204572 -72.69666106635344 A 75 75 0 0 1 -14.9054 -73.5091C -12.799216830552417 -71.00892364269698 -11.583581439872948 -68.89580513717071 -10.893744966457344 -67.40003394396216 C -10.321413493904458 -66.15141950100232 -10.125297736814051 -65.36771305321875 -10.06977843545264 -65.10548614744711 L -10.023036502789719 -64.82795492118926 A 1.875 1.875 0 0 0 -7.93736 -63.2539A 63.75 63.75 0 0 1 -6.33697 -63.4343A 1.875 1.875 0 0 0 -4.65384 -65.4329L -4.670025517000455 -65.71389218350333 C -4.674249176419161 -65.98189872005672 -4.6574415415214405 -66.7895958723891 -4.377302465908267 -68.13426067818905 C -4.037602036032043 -69.74603282102716 -3.3226582660326525 -72.07667535629702 -1.8255894534897066 -74.98287003904257 A 75 75 0 0 1 1.82559 -74.9829C 3.322658266032626 -72.07667535629702 4.037602036032018 -69.74603282102716 4.377302465908242 -68.13426067818905 C 4.657441541521416 -66.7895958723891 4.674249176419136 -65.98189872005672 4.67002551700043 -65.71389218350333 L 4.653839024153898 -65.43291818601142 A 1.875 1.875 0 0 0 6.33697 -63.4343A 63.75 63.75 0 0 1 7.93736 -63.2539A 1.875 1.875 0 0 0 10.023 -64.828L 10.069778435452614 -65.10548614744712 C 10.125297736814026 -65.36771305321876 10.32141349390443 -66.15141950100234 10.89374496645732 -67.40003394396216 C 11.583581439872919 -68.89580513717073 12.799216830552389 -71.008923642697 14.90544015742082 -73.50912480677611 A 75 75 0 0 1 18.4651 -72.6967C 19.27792140294615 -69.53020160154651 19.456323286292495 -67.09890318516719 19.428853674609883 -65.45195107811578 C 19.40275301027319 -64.07866301766977 19.239409717981882 -63.28747646865612 19.175654889702777 -63.027129268161616 L 19.097351629687026 -62.75680170891512 A 1.875 1.875 0 0 0 20.2935 -60.4337A 63.75 63.75 0 0 1 21.8137 -59.9018A 1.875 1.875 0 0 0 24.1973 -60.9722L 24.304641649419192 -61.2324191791232 C 24.417119941962042 -61.47571730209349 24.78270975827654 -62.19613473156326 25.618534537887236 -63.286088069753085 C 26.6239157735589 -64.59085409990806 28.27928575037845 -66.38048799020923 30.889048759140493 -68.3493251093241 A 75 75 0 0 1 34.1786 -66.7651C 34.266509063126534 -63.49719320565702 33.89942324444746 -61.08715436298357 33.50616103223889 -59.48760734743953 C 33.17512942424906 -58.15455843004975 32.839825919506396 -57.419555881629684 32.71973685567379 -57.179922912942075 L 32.583243280911944 -56.93379714455123 A 1.875 1.875 0 0 0 33.2325 -54.4028A 63.75 63.75 0 0 1 34.5962 -53.5459A 1.875 1.875 0 0 0 37.1582 -54.0591L 37.320768643738674 -54.28890302884253 C 37.484565796206425 -54.50107238520127 38.00129747178487 -55.12207605824241 39.05870381390337 -55.99871348003663 C 40.32921579856808 -57.04704793015756 42.341313198666924 -58.42345748911359 45.32375147464195 -59.76220484896396 A 75 75 0 0 1 48.1784 -57.4857C 47.536830874400835 -54.280170401247645 46.64266456946179 -52.01224054329751 45.90332956616739 -50.54030658574686 C 45.28396632161664 -49.314341450458755 44.79351612225592 -48.67237899951343 44.62311458997864 -48.46547646030286 L 44.43527505825679 -48.25589425652646 A 1.875 1.875 0 0 0 44.5051 -45.6439A 63.75 63.75 0 0 1 45.6439 -44.5051A 1.875 1.875 0 0 0 48.2559 -44.4353L 48.465476460302845 -44.62311458997867 C 48.67237899951341 -44.79351612225595 49.31434145045874 -45.28396632161666 50.54030658574685 -45.903329566167415 C 52.01224054329749 -46.642664569461814 54.28017040124763 -47.53683087440085 57.48573203570057 -48.17835809224168 A 75 75 0 0 1 59.7622 -45.3238C 58.423457489113574 -42.34131319866695 57.047047930157554 -40.3292157985681 55.99871348003661 -39.05870381390339 C 55.1220760582424 -38.001297471784895 54.501072385201255 -37.484565796206454 54.28890302884252 -37.3207686437387 L 54.05913659863077 -37.15823933141318 A 1.875 1.875 0 0 0 53.5459 -34.5962A 63.75 63.75 0 0 1 54.4028 -33.2325A 1.875 1.875 0 0 0 56.9338 -32.5832L 57.17992291294206 -32.71973685567381 C 57.41955588162967 -32.83982591950642 58.15455843004972 -33.17512942424908 59.48760734743951 -33.506161032238914 C 61.087154362983554 -33.89942324444748 63.497193205657005 -34.266509063126556 66.7651379529767 -34.17864728547093 A 75 75 0 0 1 68.3493 -30.889C 66.38048799020922 -28.279285750378474 64.59085409990804 -26.623915773558924 63.28608806975308 -25.61853453788726 C 62.19613473156325 -24.78270975827656 61.47571730209348 -24.41711994196207 61.232419179123184 -24.304641649419217 L 60.97224729865343 -24.19731512692787 A 1.875 1.875 0 0 0 59.9018 -21.8137A 63.75 63.75 0 0 1 60.4337 -20.2935A 1.875 1.875 0 0 0 62.7568 -19.0974L 63.027129268161595 -19.17565488970281 C 63.28747646865611 -19.23940971798191 64.07866301766975 -19.40275301027322 65.45195107811578 -19.428853674609915 C 67.09890318516717 -19.456323286292523 69.5302016015465 -19.27792140294618 72.69666106635344 -18.465076386204576 A 75 75 0 0 1 73.5091 -14.9054C 71.00892364269698 -12.799216830552421 68.89580513717071 -11.583581439872951 67.40003394396216 -10.893744966457348 C 66.15141950100232 -10.321413493904462 65.36771305321875 -10.125297736814055 65.10548614744711 -10.069778435452644 L 64.82795492118926 -10.023036502789722 A 1.875 1.875 0 0 0 63.2539 -7.93736A 63.75 63.75 0 0 1 63.4343 -6.33697A 1.875 1.875 0 0 0 65.4329 -4.65384" stroke="#191919" stroke-width="0.35 px" style="stroke-width:0.35;stroke-miterlimit:4;stroke-dasharray:none;fill:none;fill-rule: evenodd "/>
<title>b'InvoluteGear'</title>
</g>
</svg>