<?xml version="1.0"?>
<!DOCTYPE svg PUBLIC "-//W3C//DTD SVG 1.1//EN" "http://www.w3.org/Graphics/SVG/1.1/DTD/svg11.dtd">
<svg width="116.86782738909994mm" height="117.18910432140166mm" viewBox="0 0 116.86782738909994 117.18910432140166" xmlns="http://www.w3.org/2000/svg" version="1.1">
<g id="InvoluteGear" transform="translate(58.243286,58.594552) scale(1,-1)">
<path id="InvoluteGear_w0000"  d="M 47.89510966640793 -4.307954275843387 L 49.22652513010915 -4.4239492767656685 C 49.466595440868566 -4.430965831745662 50.18935414495753 -4.423224389076288 51.39475256793202 -4.163673173873425 C 52.83716315149341 -3.8485129831821334 54.91453149098327 -3.1757047165396814 57.47877863606731 -1.7494001089158218 A 57.5 57.5 0 0 1 57.4788 1.7494C 54.91453149098327 3.1757047165396814 52.83716315149341 3.8485129831821334 51.39475256793202 4.163673173873425 C 50.18935414495753 4.423224389076288 49.466595440868566 4.430965831745662 49.22652513010915 4.4239492767656685 L 47.89510966640793 4.307954275843392 A 1.875 1.875 0 0 0 45.8678 5.93346A 46.25 46.25 0 0 1 45.579 7.84992A 1.875 1.875 0 0 0 47.0371 10.0008L 48.343510678338426 10.282367377313545 C 48.57498350466365 10.34642451450313 49.26335023715209 10.566858894476276 50.33869212657832 11.170176399831355 C 51.62412535803312 11.896492890652098 53.41088833287146 13.151725240985762 55.44080250864526 15.2704882512805 A 57.5 57.5 0 0 1 54.4095 18.6138C 51.538777537669084 19.22095937364997 49.35538712687217 19.25156158953958 47.8841637014682 19.127562114100783 C 46.655813684630594 19.02028477465891 45.962883291573746 18.814645418870576 45.735546797022316 18.73717862342262 L 44.49747251343393 18.23389535771753 A 1.875 1.875 0 0 0 42.0811 19.1896A 46.25 46.25 0 0 1 41.2402 20.9358A 1.875 1.875 0 0 0 41.9996 23.4209L 43.16496315079506 24.07505056649244 C 43.367271116265314 24.204489638102196 43.96008147212399 24.618030393358158 44.8098179820663 25.51150678089939 C 45.824057477768925 26.58444316425274 47.161453356561175 28.31056669545403 48.476667780375614 30.93352671691664 A 57.5 57.5 0 0 1 46.5057 33.8244C 43.583577025933074 33.55834744062057 41.488168363479396 32.94402446457994 40.118856753937656 32.39188322056652 C 38.976699432758224 31.92730938886817 38.375167257031535 31.526561193817372 38.180764423878756 31.385527422634436 L 37.14603965369952 30.539674818926656 A 1.875 1.875 0 0 0 34.5553 30.7407A 46.25 46.25 0 0 1 33.2371 32.1615A 1.875 1.875 0 0 0 33.2302 34.7599L 34.151019220982796 35.728559861219246 C 34.30618637505217 35.911879637702626 34.75076655265764 36.4817818573432 35.2993948652004 37.586027829081 C 35.95232099504095 38.910248998802246 36.72151628489128 40.95389006015558 37.20516838346701 43.84798558420865 A 57.5 57.5 0 0 1 34.4697 46.0295C 31.75578443206541 44.91392906910992 29.934543773163455 43.70926619347223 28.78881332511675 42.778043353446726 C 27.83433438985712 41.99745245318699 27.37764920505438 41.437203654658475 27.233453578148655 41.24513437722667 L 26.49401815802387 40.13187015131866 A 1.875 1.875 0 0 0 23.9592 39.5604A 46.25 46.25 0 0 1 22.2807 40.5294A 1.875 1.875 0 0 0 21.5082 43.0104L 22.102607364106838 44.20742982007429 C 22.196846424196437 44.42834153480517 22.45369352376047 45.10396690564059 22.652465605718557 46.320865361082426 C 22.88606301774158 47.77870845499295 23.01871134158886 49.958280569826 22.62782650349514 52.86635850862839 A 57.5 57.5 0 0 1 19.3709 54.1446C 17.10635103344411 52.2787109982776 15.721103603020298 50.59074780611921 14.900757494732824 49.36318660602201 C 14.218766587452642 48.3359375642557 13.947506876373497 47.665968726610075 13.866330869957489 47.43993014111137 L 13.487886881924133 46.15817270495464 A 1.875 1.875 0 0 0 11.2341 44.8649A 46.25 46.25 0 0 1 9.34457 45.2962A 1.875 1.875 0 0 0 7.87511 47.4393L 8.090281847235177 48.75827563830534 C 8.115219259294731 48.997150315974785 8.16151128886614 49.718466558873224 7.9927653684606685 50.93989072998217 C 7.7862779074825585 52.40181999154898 7.27059287963537 54.523658612564155 6.039902938106695 57.187323479363435 A 57.5 57.5 0 0 1 2.55089 57.4488C 0.9369432755162632 54.99830003390387 0.11077438682197016 52.97701946235252 -0.311296029955322 51.56219410187586 C -0.6602010242764194 50.379562503972075 -0.7219326458989497 49.659403298543985 -0.7328761874201422 49.41947992525393 L -0.7167023342512181 48.083119051950845 A 1.875 1.875 0 0 0 -2.48916 46.183A 46.25 46.25 0 0 1 -4.42185 46.0381A 1.875 1.875 0 0 0 -6.45772 47.6529L -6.640900715380425 48.976734693904646 C -6.687480749848438 49.212347271117466 -6.855857040246297 49.9152622724532 -7.377127147458032 51.03268326149455 C -8.00535216437407 52.368799860256544 -9.123549666145031 54.244370314441205 -11.084692509009988 56.42694379652154 A 57.5 57.5 0 0 1 -14.4958 55.6484C -15.315716004149035 52.831048755453445 -15.50939761977087 50.65605045353516 -15.495689536281802 49.17967437481621 C -15.480506877754033 47.94674222814199 -15.32722528443403 47.24038196070035 -15.266963979371308 47.00789204422213 L -14.85760940283195 45.735669261888795 A 1.875 1.875 0 0 0 -15.9912 43.3975A 46.25 46.25 0 0 1 -17.7954 42.6894A 1.875 1.875 0 0 0 -20.2168 43.6324L -20.78201010632172 44.84339594109043 C -20.895968746841703 45.0548112063925 -21.264052384899802 45.67686788360517 -22.09152954233585 46.59099793198135 C -23.085671565516748 47.6825820446874 -24.70702478605022 49.145231666381896 -27.2243643823293 50.652782531794465 A 57.5 57.5 0 0 1 -30.2544 48.9034C -30.207506704933067 45.96952694984221 -29.751491585976673 43.83406906150527 -29.303223025596182 42.42732475810793 C -28.92530176005774 41.25364349452889 -28.570626694026878 40.623845374646834 -28.444515023787446 40.41944666432476 L -27.678352674426144 39.3244045502292 A 1.875 1.875 0 0 0 -28.0724 36.756A 46.25 46.25 0 0 1 -29.5877 35.5476A 1.875 1.875 0 0 0 -32.1794 35.7349L -33.07654669896712 36.72552466690858 C -33.24775822022961 36.89395744619721 -33.78284335939805 37.37988333366572 -34.84300259029652 38.00949797498485 C -36.114727738262246 38.75955756288306 -38.09517232872241 39.67932351446768 -40.945032008123356 40.37789925304258 A 57.5 57.5 0 0 1 -43.3248 37.8131C -42.41522787152405 35.02341094079124 -41.350034962498086 33.11723827071695 -40.507036554010156 31.905121147393757 C -39.79995664438429 30.89497749779429 -39.2754025417253 30.39770185224689 -39.09464608164188 30.239556070482024 L -38.039752846447485 29.418993921974803 A 1.875 1.875 0 0 0 -37.6593 26.8485A 46.25 46.25 0 0 1 -38.751 25.2472A 1.875 1.875 0 0 0 -41.2829 24.6622L -42.432086963374914 25.34442935876149 C -42.64533847036637 25.454913660441804 -43.29988044784757 25.761532110613924 -44.498521952110984 26.050687320976483 C -45.93483186459089 26.392576298099797 -48.09839663207744 26.68773333844985 -51.02755385568226 26.515262430165564 A 57.5 57.5 0 0 1 -52.5456 23.363C -50.85416990556844 20.965311171943593 -49.27444627096196 19.457795526969058 -48.11162212239832 18.54800750941566 C -47.13821072162436 17.79115717000506 -46.49038651632627 17.47058912215742 -46.27104627111393 17.372748215670914 L -45.02115404335616 16.899576580624572 A 1.875 1.875 0 0 0 -43.8999 14.5554A 46.25 46.25 0 0 1 -44.4712 12.7034A 1.875 1.875 0 0 0 -46.7181 11.3982L -48.01735009094028 11.711370279892115 C -48.253693251425666 11.754089088907438 -48.96953314011027 11.85415570691248 -50.20015235993322 11.777158776941 C -51.673424598061246 11.68049880731695 -53.82786731833539 11.324820938122002 -56.57605361243204 10.296628180055704 A 57.5 57.5 0 0 1 -57.0975 6.83691C -54.774495773654266 5.044351500716061 -52.82060679090503 4.069442261520702 -51.4412789308353 3.5428220076356762 C -50.28802791361758 3.106514452453588 -49.57449562925081 2.9911378801466837 -49.336060942255486 2.962295442847603 L -48.00222813143234 2.878557697515528 A 1.875 1.875 0 0 0 -46.2398 0.969056A 46.25 46.25 0 0 1 -46.2398 -0.969056A 1.875 1.875 0 0 0 -48.0022 -2.87856L -49.336060942255486 -2.962295442847614 C -49.57449562925081 -2.9911378801466944 -50.28802791361758 -3.1065144524535997 -51.4412789308353 -3.5428220076356878 C -52.82060679090503 -4.069442261520715 -54.774495773654266 -5.044351500716074 -57.097522725795365 -6.836906669860593 A 57.5 57.5 0 0 1 -56.5761 -10.2966C -53.82786731833539 -11.324820938122015 -51.673424598061246 -11.68049880731696 -50.20015235993322 -11.777158776941011 C -48.96953314011027 -11.85415570691249 -48.253693251425666 -11.754089088907449 -48.01735009094028 -11.711370279892126 L -46.71809359572226 -11.398233669360136 A 1.875 1.875 0 0 0 -44.4712 -12.7034A 46.25 46.25 0 0 1 -43.8999 -14.5554A 1.875 1.875 0 0 0 -45.0212 -16.8996L -46.27104627111393 -17.372748215670903 C -46.49038651632627 -17.47058912215741 -47.13821072162437 -17.79115717000505 -48.11162212239833 -18.548007509415648 C -49.27444627096197 -19.457795526969043 -50.85416990556845 -20.965311171943583 -52.54562637662038 -23.36295235888904 A 57.5 57.5 0 0 1 -51.0276 -26.5153C -48.098396632077446 -26.68773333844984 -45.9348318645909 -26.392576298099783 -44.49852195211099 -26.050687320976472 C -43.29988044784758 -25.761532110613913 -42.64533847036637 -25.454913660441793 -42.43208696337493 -25.34442935876148 L -41.28285142505536 -24.662241954388577 A 1.875 1.875 0 0 0 -38.751 -25.2472A 46.25 46.25 0 0 1 -37.6593 -26.8485A 1.875 1.875 0 0 0 -38.0398 -29.419L -39.094646081641876 -30.23955607048203 C -39.2754025417253 -30.397701852246897 -39.79995664438428 -30.894977497794297 -40.507036554010156 -31.905121147393764 C -41.35003496249808 -33.11723827071696 -42.415227871524046 -35.023410940791244 -43.32482053119939 -37.81309720420249 A 57.5 57.5 0 0 1 -40.945 -40.3779C -38.095172328722406 -39.67932351446769 -36.11472773826224 -38.75955756288307 -34.84300259029651 -38.00949797498486 C -33.78284335939804 -37.379883333665724 -33.2477582202296 -36.89395744619722 -33.076546698967114 -36.72552466690859 L -32.1794467384628 -35.734901813303416 A 1.875 1.875 0 0 0 -29.5877 -35.5476A 46.25 46.25 0 0 1 -28.0724 -36.756A 1.875 1.875 0 0 0 -27.6784 -39.3244L -28.444515023787424 -40.41944666432477 C -28.570626694026856 -40.62384537464685 -28.925301760057714 -41.2536434945289 -29.30322302559616 -42.427324758107936 C -29.75149158597665 -43.83406906150528 -30.207506704933042 -45.969526949842226 -30.254414253738002 -48.90338242287866 A 57.5 57.5 0 0 1 -27.2244 -50.6528C -24.707024786050194 -49.14523166638191 -23.085671565516723 -47.682582044687415 -22.09152954233582 -46.590997931981356 C -21.264052384899777 -45.67686788360518 -20.895968746841675 -45.054811206392515 -20.782010106321692 -44.843395941090435 L -20.21675699198178 -43.632358826072604 A 1.875 1.875 0 0 0 -17.7954 -42.6894A 46.25 46.25 0 0 1 -15.9912 -43.3975A 1.875 1.875 0 0 0 -14.8576 -45.7357L -15.26696397937132 -47.007892044222125 C -15.327225284434043 -47.24038196070033 -15.480506877754046 -47.946742228141986 -15.495689536281816 -49.1796743748162 C -15.509397619770883 -50.65605045353515 -15.315716004149047 -52.83104875545344 -14.495770500521916 -55.648387504323075 A 57.5 57.5 0 0 1 -11.0847 -56.4269C -9.123549666145044 -54.2443703144412 -8.005352164374084 -52.36879986025654 -7.377127147458045 -51.03268326149454 C -6.855857040246311 -49.91526227245319 -6.687480749848452 -49.212347271117466 -6.640900715380438 -48.97673469390464 L -6.457719666986444 -47.65288927969233 A 1.875 1.875 0 0 0 -4.42185 -46.0381A 46.25 46.25 0 0 1 -2.48916 -46.183A 1.875 1.875 0 0 0 -0.716702 -48.0831L -0.7328761874201319 -49.41947992525393 C -0.7219326458989395 -49.659403298543985 -0.6602010242764087 -50.379562503972075 -0.311296029955312 -51.56219410187586 C 0.11077438682198038 -52.97701946235252 0.9369432755162745 -54.998300033903874 2.550886075306652 -57.4487891470822 A 57.5 57.5 0 0 1 6.0399 -57.1873C 7.270592879635382 -54.52365861256415 7.786277907482569 -52.40181999154898 7.992765368460679 -50.93989072998217 C 8.161511288866151 -49.718466558873224 8.11521925929474 -48.997150315974785 8.090281847235188 -48.75827563830534 L 7.875114389656654 -47.439251399551225 A 1.875 1.875 0 0 0 9.34457 -45.2962A 46.25 46.25 0 0 1 11.2341 -44.8649A 1.875 1.875 0 0 0 13.4879 -46.1582L 13.86633086995751 -47.439930141111375 C 13.947506876373517 -47.66596872661008 14.21876658745266 -48.335937564255694 14.900757494732847 -49.36318660602201 C 15.721103603020321 -50.59074780611921 17.10635103344413 -52.278710998277596 19.370885228965065 -54.14461376426436 A 57.5 57.5 0 0 1 22.6278 -52.8664C 23.01871134158888 -49.958280569825995 22.886063017741602 -47.77870845499295 22.65246560571858 -46.32086536108241 C 22.45369352376049 -45.10396690564058 22.19684642419645 -44.42834153480516 22.10260736410686 -44.20742982007428 L 21.508209973408484 -43.01042784883419 A 1.875 1.875 0 0 0 22.2807 -40.5294A 46.25 46.25 0 0 1 23.9592 -39.5604A 1.875 1.875 0 0 0 26.494 -40.1319L 27.233453578148644 -41.24513437722668 C 27.377649205054368 -41.437203654658475 27.83433438985711 -41.997452453187 28.78881332511673 -42.77804335344674 C 29.934543773163448 -43.709266193472246 31.755784432065397 -44.91392906910993 34.469696222300215 -46.029451838767805 A 57.5 57.5 0 0 1 37.2052 -43.848C 36.721516284891266 -40.953890060155594 35.95232099504094 -38.91024899880226 35.299394865200384 -37.58602782908101 C 34.75076655265763 -36.481781857343215 34.306186375052164 -35.91187963770264 34.15101922098279 -35.72855986121925 L 33.23020671379812 -34.7599390355945 A 1.875 1.875 0 0 0 33.2371 -32.1615A 46.25 46.25 0 0 1 34.5553 -30.7407A 1.875 1.875 0 0 0 37.146 -30.5397L 38.180764423878756 -31.385527422634432 C 38.375167257031535 -31.526561193817365 38.976699432758224 -31.927309388868167 40.118856753937656 -32.39188322056651 C 41.488168363479396 -32.94402446457993 43.583577025933074 -33.558347440620565 46.50572343851368 -33.82437112047439 A 57.5 57.5 0 0 1 48.4767 -30.9335C 47.161453356561175 -28.31056669545402 45.824057477768925 -26.584443164252733 44.8098179820663 -25.51150678089938 C 43.96008147212399 -24.618030393358154 43.367271116265314 -24.20448963810219 43.16496315079506 -24.075050566492436 L 41.99955375930658 -23.420877097562265 A 1.875 1.875 0 0 0 41.2402 -20.9358A 46.25 46.25 0 0 1 42.0811 -19.1896A 1.875 1.875 0 0 0 44.4975 -18.2339L 45.73554679702232 -18.737178623422604 C 45.96288329157375 -18.814645418870562 46.655813684630594 -19.020284774658897 47.884163701468204 -19.127562114100765 C 49.355387126872174 -19.251561589539566 51.53877753766909 -19.22095937364995 54.4095130402094 -18.613846592319028 A 57.5 57.5 0 0 1 55.4408 -15.2705C 53.410888332871465 -13.151725240985742 51.624125358033126 -11.89649289065208 50.33869212657833 -11.170176399831336 C 49.26335023715209 -10.56685889447626 48.574983504663656 -10.346424514503113 48.34351067833843 -10.282367377313527 L 47.03705614129476 -10.000767448585364 A 1.875 1.875 0 0 0 45.579 -7.84992A 46.25 46.25 0 0 1 45.8678 -5.93346A 1.875 1.875 0 0 0 47.8951 -4.30795" stroke="#191919" stroke-width="0.35 px" style="stroke-width:0.35;stroke-miterlimit:4;stroke-dasharray:none;fill:none;fill-rule: evenodd "/>
<title>b'InvoluteGear'</title>
</g>
</svg>