<?xml version="1.0"?>
<!DOCTYPE svg PUBLIC "-//W3C//DTD SVG 1.1//EN" "http://www.w3.org/Graphics/SVG/1.1/DTD/svg11.dtd">
<svg width="147.57922837016005mm" height="147.82442820638727mm" viewBox="0 0 147.57922837016005 147.82442820638727" xmlns="http://www.w3.org/2000/svg" version="1.1">
<g id="InvoluteGear" transform="translate(73.650024,73.912214) scale(1,-1)">
<path id="InvoluteGear_w0000"  d="M 62.92872192499038 -4.607163648844497 L 63.35961816793696 -4.634925977611702 C 63.62358316353836 -4.639476443519121 64.41900649367481 -4.623794066643951 65.74346730017447 -4.346711053035908 C 67.33072816772999 -4.010670032059166 69.62488578119408 -3.3022783868436196 72.48234884707252 -1.816820865706306 A 72.5 72.5 0 0 1 72.4823 1.81682C 69.62488578119408 3.3022783868436196 67.33072816772999 4.010670032059166 65.74346730017447 4.346711053035908 C 64.41900649367481 4.623794066643951 63.62358316353836 4.639476443519121 63.35961816793696 4.634925977611702 L 62.928721924990384 4.607163648844487 A 1.875 1.875 0 0 0 60.9268 6.28397A 61.25 61.25 0 0 1 60.7337 7.9361A 1.875 1.875 0 0 0 62.295 10.0294L 62.72063895036095 10.101742565675071 C 62.978538145001046 10.158189275471251 63.748904131331464 10.356886175736404 64.97376418492881 10.931942063007664 C 66.44074383771806 11.624972601840204 68.50969577971289 12.843338614228214 70.9475654791492 14.947731768687015 A 72.5 72.5 0 0 1 70.1096 18.4834C 66.98658016848113 19.269868705317812 64.59089551431018 19.43009640640698 62.968923076205485 19.391031851106092 C 61.61626354170581 19.355204374067043 60.83866434537864 19.18702678655566 60.582863970053594 19.121724461739554 L 60.1699850247248 18.995338957870498 A 1.875 1.875 0 0 0 57.8353 20.1653A 61.25 61.25 0 0 1 57.2664 21.7283A 1.875 1.875 0 0 0 58.3029 24.1252L 58.70037385233871 24.293823552507696 C 58.938303833679726 24.40822438127168 59.642081846479236 24.779224003602742 60.701308624641634 25.62125135280676 C 61.968921809869215 26.633909953762366 63.70113034567359 28.296567906232717 65.58798049215214 30.906448314354268 A 72.5 72.5 0 0 1 63.9572 34.1536C 60.73701068005535 34.19861541406872 58.36895096498378 33.8020412541924 56.79970791030002 33.38997710290163 C 55.4917718734281 33.04317060377627 54.77391738485825 32.70019954915221 54.54007189425479 32.57766583066113 L 54.16746865735618 32.359470626917485 A 1.875 1.875 0 0 0 51.6259 32.9595A 61.25 61.25 0 0 1 50.7119 34.3492A 1.875 1.875 0 0 0 51.1676 36.9205L 51.51555640591143 37.17621822340278 C 51.720690307073404 37.342405792844346 52.31993949150583 37.86570745157178 53.15642980445191 38.9293123503623 C 54.15633916719276 40.20700632614656 55.45842048627601 42.2243218981186 56.69253050000716 45.1989902315587 A 72.5 72.5 0 0 1 54.3569 47.9825C 51.213093224678545 47.28370591386552 49.00032116089526 46.35170930863203 47.56840578889389 45.5888600464063 C 46.37570441994409 44.94977095332999 45.75629436042008 44.450496089922794 45.557010425465286 44.277336802237265 L 45.24477003394283 43.979094858530566 A 1.875 1.875 0 0 0 42.6334 43.9768A 61.25 61.25 0 0 1 41.4235 45.1183A 1.875 1.875 0 0 0 41.2739 47.7254L 41.553521979336686 48.0544333471688 C 41.71480097861104 48.26344844240331 42.17721565603376 48.910840809653536 42.74587409447517 50.13868404263291 C 43.42417426216703 51.61253258029251 44.22593282358618 53.87575176711856 44.74077151429221 57.05484288605725 A 72.5 72.5 0 0 1 41.8261 59.2247C 38.92826465754422 57.81971958891472 36.99007135976248 56.40254471655055 35.77267859878556 55.33003574457262 C 34.75951073727722 54.43311751597514 34.27193766343629 53.80445488090357 34.11795873264631 53.59000508604333 L 33.88291414682738 53.22779470275586 A 1.875 1.875 0 0 0 31.3424 52.6233A 61.25 61.25 0 0 1 29.9019 53.455A 1.875 1.875 0 0 0 29.1552 55.9574L 29.35132642712765 56.342021530762494 C 29.46005593191798 56.58259609390431 29.760707207379568 57.3191780795876 30.030877247708155 58.64506630025053 C 30.351000882739317 60.235613843628784 30.60921367492079 62.62272591313459 30.37702595552473 65.83485419247282 A 72.5 72.5 0 0 1 27.0406 67.2741C 24.544803266515952 65.23865721484896 22.985677237101815 63.412704339545286 22.048437046003983 62.088354894103084 C 21.269422833599734 60.98196062384676 20.93997193605625 60.25780158249078 20.83959905344592 60.013622324405006 L 20.694421587791055 59.60697035705444 A 1.875 1.875 0 0 0 18.3618 58.4329A 61.25 61.25 0 0 1 16.7683 58.91A 1.875 1.875 0 0 0 15.4646 61.1727L 15.566793269924482 61.59219675004408 C 15.61711164448397 61.851361344123816 15.739791329903596 62.63742362273484 15.696908035314348 63.989877853912006 C 15.641597189659361 65.61137757324751 15.342343894140772 67.99369269588509 14.3756470646948 71.06569146865533 A 72.5 72.5 0 0 1 10.7972 71.6967C 8.838125178204283 69.14056194393366 7.742119304968185 67.0042686578284 7.135558545047107 65.49947476032078 C 6.632694839577979 64.24325044989462 6.479126901493697 63.462634603615314 6.437771195145097 63.20188964931086 L 6.390287404405522 62.77271881071502 A 1.875 1.875 0 0 0 4.39132 61.0924A 61.25 61.25 0 0 1 2.73076 61.1891A 1.875 1.875 0 0 0 0.940389 63.0901L 0.9430502582254285 63.521920699984875 C 0.9322448259571421 63.785703694653456 0.87033922773939 64.57886944528765 0.5167144477435386 65.88497852930657 C 0.0889509434083422 67.45001495502036 -0.7516356171900784 69.69910190588907 -2.4007266803903784 72.46535892309402 A 72.5 72.5 0 0 1 -6.02822 72.2541C -7.345018526127815 69.31508108225349 -7.918818282869166 66.98361550935947 -8.161999764043745 65.37950098830247 C -8.36160345005449 64.04117001544309 -8.331009541387873 63.24618056656825 -8.311118574640963 62.982926744022976 L -8.258348827015748 62.554373745177294 A 1.875 1.875 0 0 0 -9.81592 60.4583A 61.25 61.25 0 0 1 -11.454 60.1695A 1.875 1.875 0 0 0 -13.6345 61.6064L -13.731532836994017 62.02716146295317 C -13.802879552439611 62.2813422486903 -14.046033087471159 63.03885170042769 -14.691335349451672 64.22820295849516 C -15.468490671225913 65.65240457178245 -16.805094257844583 67.64701449120645 -19.04767662873077 69.95840012102967 A 72.5 72.5 0 0 1 -22.5287 68.9163C -23.132190380529178 65.75280625788903 -23.152850327367325 63.351858310718335 -23.019542553200104 61.73490139515171 C -22.90512553337414 60.38661352902 -22.692019103491774 59.620108564513835 -22.611953790815267 59.36853795544187 L -22.46177533557868 58.96370619944093 A 1.875 1.875 0 0 0 -23.494 56.565A 61.25 61.25 0 0 1 -25.0213 55.9061A 1.875 1.875 0 0 0 -27.4744 56.8015L -27.665845442696305 57.18850189632132 C -27.793887121422127 57.41937752117569 -28.20518012325597 58.100393143399096 -29.107371455247517 59.108868341340596 C -30.19202194990479 60.31545606458823 -31.952585917222155 61.94805901552585 -34.667761399708944 63.67996586038368 A 72.5 72.5 0 0 1 -37.8146 61.8631C -37.6722998639719 58.645780628682225 -37.13870621782517 56.304786032529066 -36.63609584492693 54.76215728830469 C -36.213826370418815 53.47659907675514 -35.829696042116204 52.779901077656575 -35.69377272524062 52.55357591870962 L -35.454281721786714 52.19428999030622 A 1.875 1.875 0 0 0 -35.9055 49.6222A 61.25 61.25 0 0 1 -37.2397 48.6289A 1.875 1.875 0 0 0 -39.8332 48.9343L -40.10868515954567 49.26679538976681 C -40.28651904150926 49.4619192890426 -40.84377859795731 50.02972735328361 -41.95422163172869 50.802959332144056 C -43.28789351035072 51.72688570887816 -45.3775053991837 52.909467643660825 -48.41889818021325 53.968528157259605 A 72.5 72.5 0 0 1 -51.0619 51.475C -50.18148591063653 48.37714578588865 -49.12240484308426 46.222308165375495 -48.2775877267538 44.83717110738908 C -47.57023045423465 43.68364732636066 -47.03578479293902 43.09431546213466 -46.85133113305956 42.90543700121363 L -46.535438603374466 42.61106609780569 A 1.875 1.875 0 0 0 -46.3813 40.0042A 61.25 61.25 0 0 1 -47.4505 38.73A 1.875 1.875 0 0 0 -50.0445 38.4291L -50.38925527769772 38.689103191515294 C -50.60729429229184 38.837956185296584 -51.280478396424726 39.26194601184035 -52.53930886059787 39.75824963549573 C -54.050103527000026 40.34970555559711 -56.35611181954576 41.01851317602078 -59.559759627057595 41.34763313194481 A 72.5 72.5 0 0 1 -61.5565 38.3118C -59.98537506286526 35.50048649182035 -58.45790190839211 33.64797370082799 -57.31642235804355 32.495001426404954 C -56.36211110116747 31.535698841511405 -55.70616221081538 31.085504145501254 -55.4831221524802 30.944254869323764 L -55.10785794460497 30.730668602509084 A 1.875 1.875 0 0 0 -54.3567 28.2296A 61.25 61.25 0 0 1 -55.1032 26.7432A 1.875 1.875 0 0 0 -57.5579 25.8522L -57.953327601056515 26.02567142590808 C -58.19981720856708 26.120228810770975 -58.95263433108379 26.37754299832284 -60.291988349499 26.570162409958485 C -61.89845847216093 26.797262331681843 -64.29654566448028 26.916240045815066 -67.4897390159381 26.497676502050954 A 72.5 72.5 0 0 1 -68.7325 23.0832C -66.5554371188193 20.709986782019584 -64.64191835055462 19.259668264615478 -63.26531382420823 18.40101780750571 C -62.115495749847675 17.687652669404866 -61.37340600490403 17.400865254201037 -61.12380369538975 17.314859947806823 L -60.709398399904465 17.193572808514126 A 1.875 1.875 0 0 0 -59.4017 14.9332A 61.25 61.25 0 0 1 -59.7853 13.3146A 1.875 1.875 0 0 0 -61.9684 11.8816L -62.39312103278261 11.959188977236206 C -62.654772914667284 11.994353140087473 -63.44663848963349 12.071119814193224 -64.79431114047914 11.949670851470183 C -66.40985149926884 11.800171759252779 -68.77073609010213 11.362905447730407 -71.78132910540155 10.219223273263605 A 72.5 72.5 0 0 1 -72.2032 6.61015C -69.53747833246501 4.803006324219867 -67.3410722425018 3.833069127078234 -65.80355584649372 3.3150305556779074 C -64.52021794465678 2.8860605636124683 -63.731993595354275 2.7781412130007483 -63.46928515977395 2.7520164447191737 L -63.03807947342304 2.7295670540217323 A 1.875 1.875 0 0 0 -61.2444 0.831689A 61.25 61.25 0 0 1 -61.2444 -0.831689A 1.875 1.875 0 0 0 -63.0381 -2.72957L -63.46928515977395 -2.7520164447191595 C -63.731993595354275 -2.778141213000734 -64.52021794465678 -2.8860605636124532 -65.80355584649372 -3.3150305556778923 C -67.3410722425018 -3.8330691270782182 -69.53747833246501 -4.803006324219851 -72.2031691628883 -6.610150927332735 A 72.5 72.5 0 0 1 -71.7813 -10.2192C -68.77073609010213 -11.362905447730391 -66.40985149926884 -11.800171759252763 -64.79431114047914 -11.949670851470167 C -63.44663848963349 -12.07111981419321 -62.654772914667284 -11.994353140087458 -62.39312103278261 -11.959188977236192 L -61.96836136573067 -11.881590366875074 A 1.875 1.875 0 0 0 -59.7853 -13.3146A 61.25 61.25 0 0 1 -59.4017 -14.9332A 1.875 1.875 0 0 0 -60.7094 -17.1936L -61.12380369538976 -17.31485994780681 C -61.373406004904034 -17.400865254201022 -62.11549574984768 -17.68765266940485 -63.26531382420823 -18.401017807505696 C -64.64191835055462 -19.259668264615463 -66.55543711881931 -20.709986782019566 -68.73251768170998 -23.083170180462773 A 72.5 72.5 0 0 1 -67.4897 -26.4977C -64.29654566448029 -26.916240045815055 -61.89845847216094 -26.79726233168183 -60.291988349499015 -26.57016240995847 C -58.9526343310838 -26.377542998322827 -58.19981720856709 -26.12022881077096 -57.95332760105652 -26.025671425908065 L -57.557912856899264 -25.852208175658603 A 1.875 1.875 0 0 0 -55.1032 -26.7432A 61.25 61.25 0 0 1 -54.3567 -28.2296A 1.875 1.875 0 0 0 -55.1079 -30.7307L -55.48312215248021 -30.94425486932375 C -55.70616221081539 -31.08550414550124 -56.362111101167486 -31.535698841511387 -57.31642235804357 -32.49500142640494 C -58.457901908392124 -33.647973700827976 -59.98537506286527 -35.50048649182033 -61.55647838156158 -38.311769754308166 A 72.5 72.5 0 0 1 -59.5598 -41.3476C -56.356111819545774 -41.01851317602077 -54.05010352700004 -40.3497055555971 -52.539308860597885 -39.758249635495716 C -51.28047839642474 -39.26194601184034 -50.607294292291854 -38.83795618529657 -50.389255277697735 -38.68910319151528 L -50.04450236764198 -38.42912675009771 A 1.875 1.875 0 0 0 -47.4505 -38.73A 61.25 61.25 0 0 1 -46.3813 -40.0042A 1.875 1.875 0 0 0 -46.5354 -42.6111L -46.851331133059574 -42.905437001213606 C -47.03578479293903 -43.09431546213464 -47.57023045423466 -43.68364732636064 -48.27758772675381 -44.83717110738906 C -49.122404843084276 -46.222308165375466 -50.181485910636546 -48.37714578588862 -51.06191339856265 -51.474971904066805 A 72.5 72.5 0 0 1 -48.4189 -53.9685C -45.37750539918371 -52.9094676436608 -43.287893510350735 -51.72688570887813 -41.954221631728714 -50.802959332144034 C -40.843778597957325 -50.02972735328359 -40.28651904150927 -49.46191928904258 -40.108685159545686 -49.26679538976679 L -39.8331798022085 -48.93432115443033 A 1.875 1.875 0 0 0 -37.2397 -48.6289A 61.25 61.25 0 0 1 -35.9055 -49.6222A 1.875 1.875 0 0 0 -35.4543 -52.1943L -35.69377272524066 -52.55357591870959 C -35.82969604211625 -52.77990107765654 -36.21382637041886 -53.476599076755114 -36.63609584492697 -54.76215728830466 C -37.13870621782521 -56.30478603252904 -37.672299863971936 -58.645780628682196 -37.81458744736359 -61.86314499467734 A 72.5 72.5 0 0 1 -34.6678 -63.68C -31.9525859172222 -61.94805901552582 -30.192021949904834 -60.315456064588204 -29.10737145524756 -59.108868341340575 C -28.205180123256017 -58.10039314339907 -27.793887121422173 -57.41937752117567 -27.66584544269635 -57.18850189632129 L -27.474440203203685 -56.80145363915069 A 1.875 1.875 0 0 0 -25.0213 -55.9061A 61.25 61.25 0 0 1 -23.494 -56.565A 1.875 1.875 0 0 0 -22.4618 -58.9637L -22.611953790815296 -59.368537955441866 C -22.692019103491802 -59.62010856451382 -22.905125533374168 -60.386613529019996 -23.019542553200132 -61.7349013951517 C -23.152850327367354 -63.351858310718335 -23.13219038052921 -65.752806257889 -22.52866729893598 -68.9162599259466 A 72.5 72.5 0 0 1 -19.0477 -69.9584C -16.805094257844615 -67.64701449120645 -15.468490671225942 -65.65240457178245 -14.691335349451705 -64.22820295849516 C -14.046033087471187 -63.038851700427685 -13.802879552439641 -62.2813422486903 -13.731532836994045 -62.02716146295316 L -13.63454642135035 -61.60640505567616 A 1.875 1.875 0 0 0 -11.454 -60.1695A 61.25 61.25 0 0 1 -9.81592 -60.4583A 1.875 1.875 0 0 0 -8.25835 -62.5544L -8.311118574640991 -62.98292674402297 C -8.331009541387902 -63.24618056656825 -8.36160345005452 -64.04117001544309 -8.161999764043776 -65.37950098830247 C -7.918818282869198 -66.98361550935947 -7.3450185261278484 -69.31508108225349 -6.02822086509456 -72.25408144629907 A 72.5 72.5 0 0 1 -2.40073 -72.4654C -0.7516356171901111 -69.69910190588907 0.08895094340831111 -67.45001495502036 0.5167144477435086 -65.88497852930657 C 0.8703392277393598 -64.57886944528765 0.9322448259571128 -63.785703694653456 0.9430502582253992 -63.52192069998488 L 0.9403892872487771 -63.09013922942655 A 1.875 1.875 0 0 0 2.73076 -61.1891A 61.25 61.25 0 0 1 4.39132 -61.0924A 1.875 1.875 0 0 0 6.39029 -62.7727L 6.437771195145069 -63.201889649310864 C 6.479126901493668 -63.462634603615314 6.63269483957795 -64.24325044989462 7.1355585450470755 -65.4994747603208 C 7.7421193049681545 -67.0042686578284 8.838125178204251 -69.14056194393368 10.797208515930922 -71.69666673360966 A 72.5 72.5 0 0 1 14.3756 -71.0657C 15.34234389414074 -67.9936926958851 15.64159718965933 -65.61137757324751 15.696908035314319 -63.98987785391202 C 15.739791329903568 -62.63742362273485 15.617111644483941 -61.85136134412383 15.566793269924453 -61.59219675004409 L 15.46462836596163 -61.172667667044685 A 1.875 1.875 0 0 0 16.7683 -58.91A 61.25 61.25 0 0 1 18.3618 -58.4329A 1.875 1.875 0 0 0 20.6944 -59.607L 20.839599053445895 -60.013622324405006 C 20.939971936056224 -60.25780158249078 21.269422833599705 -60.98196062384677 22.04843704600395 -62.08835489410309 C 22.985677237101786 -63.41270433954529 24.544803266515927 -65.23865721484896 27.040557591109312 -67.27406615932087 A 72.5 72.5 0 0 1 30.377 -65.8349C 30.609213674920767 -62.622725913134595 30.35100088273929 -60.23561384362879 30.03087724770813 -58.645066300250534 C 29.760707207379546 -57.31917807958761 29.460055931917957 -56.58259609390432 29.351326427127624 -56.34202153076251 L 29.155165326595636 -55.95736175677759 A 1.875 1.875 0 0 0 29.9019 -53.455A 61.25 61.25 0 0 1 31.3424 -52.6233A 1.875 1.875 0 0 0 33.8829 -53.2278L 34.11795873264629 -53.59000508604334 C 34.27193766343627 -53.804454880903585 34.759510737277196 -54.43311751597515 35.77267859878554 -55.33003574457263 C 36.99007135976246 -56.40254471655057 38.9282646575442 -57.819719588914744 41.82614320736354 -59.2247032651401 A 72.5 72.5 0 0 1 44.7408 -57.0548C 44.225932823586156 -53.87575176711858 43.42417426216701 -51.61253258029253 42.74587409447515 -50.138684042632924 C 42.17721565603374 -48.91084080965356 41.71480097861102 -48.26344844240332 41.553521979336665 -48.05443334716882 L 41.2739397779396 -47.725379990179384 A 1.875 1.875 0 0 0 41.4235 -45.1183A 61.25 61.25 0 0 1 42.6334 -43.9768A 1.875 1.875 0 0 0 45.2448 -43.9791L 45.55701042546527 -44.277336802237286 C 45.756294360420064 -44.450496089922815 46.37570441994408 -44.94977095333 47.56840578889388 -45.588860046406324 C 49.00032116089525 -46.35170930863205 51.21309322467853 -47.28370591386554 54.35687061701517 -47.98252128819257 A 72.5 72.5 0 0 1 56.6925 -45.199C 55.458420486276 -42.224321898118625 54.15633916719275 -40.20700632614658 53.156429804451896 -38.92931235036232 C 52.319939491505814 -37.86570745157181 51.72069030707339 -37.34240579284437 51.51555640591142 -37.1762182234028 L 51.16762545249374 -36.92051063505643 A 1.875 1.875 0 0 0 50.7119 -34.3492A 61.25 61.25 0 0 1 51.6259 -32.9595A 1.875 1.875 0 0 0 54.1675 -32.3595L 54.54007189425478 -32.57766583066115 C 54.773917384858244 -32.700199549152224 55.49177187342809 -33.04317060377628 56.799707910300015 -33.389977102901646 C 58.36895096498377 -33.80204125419242 60.73701068005534 -34.19861541406873 63.95720506195195 -34.15358916878587 A 72.5 72.5 0 0 1 65.588 -30.9064C 63.70113034567358 -28.29656790623273 61.9689218098692 -26.633909953762384 60.70130862464163 -25.621251352806773 C 59.64208184647923 -24.779224003602756 58.93830383367972 -24.408224381271694 58.7003738523387 -24.29382355250771 L 58.30285119465773 -24.125246995079603 A 1.875 1.875 0 0 0 57.2664 -21.7283A 61.25 61.25 0 0 1 57.8353 -20.1653A 1.875 1.875 0 0 0 60.17 -18.9953L 60.582863970053594 -19.12172446173957 C 60.83866434537864 -19.187026786555677 61.61626354170581 -19.355204374067064 62.968923076205485 -19.39103185110611 C 64.59089551431018 -19.430096406407003 66.98658016848113 -19.269868705317833 70.10959002729342 -18.48342821696287 A 72.5 72.5 0 0 1 70.9476 -14.9477C 68.50969577971289 -12.843338614228236 66.44074383771806 -11.624972601840224 64.97376418492881 -10.931942063007682 C 63.748904131331464 -10.356886175736422 62.978538145001046 -10.158189275471269 62.72063895036095 -10.101742565675089 L 62.29495513778718 -10.029385045010606 A 1.875 1.875 0 0 0 60.7337 -7.9361A 61.25 61.25 0 0 1 60.9268 -6.28397A 1.875 1.875 0 0 0 62.9287 -4.60716" stroke="#191919" stroke-width="0.35 px" style="stroke-width:0.35;stroke-miterlimit:4;stroke-dasharray:none;fill:none;fill-rule: evenodd "/>
<title>b'InvoluteGear'</title>
</g>
</svg>