<?xml version="1.0"?>
<!DOCTYPE svg PUBLIC "-//W3C//DTD SVG 1.1//EN" "http://www.w3.org/Graphics/SVG/1.1/DTD/svg11.dtd">
<svg width="535.422866171659mm" height="535.483914551088mm" viewBox="0 0 535.422866171659 535.483914551088" xmlns="http://www.w3.org/2000/svg" version="1.1">
<g id="InvoluteGear" transform="translate(267.681195,267.741957) scale(1,-1)">
<path id="InvoluteGear_w0000"  d="M 252.44022525664937 -5.493875897043983 C 253.24818429990185 -5.271967721192539 254.09945282370816 -5.023031949712861 254.9926428807902 -4.743913591059245 C 257.2372176268379 -4.0424685439360815 259.74531870876183 -3.150940179401764 262.49242783600124 -2.0203341411024915 A 262.5 262.5 0 0 1 262.492 2.02033C 259.74531870876183 3.150940179401764 257.2372176268379 4.0424685439360815 254.9926428807902 4.743913591059245 C 254.09945282370816 5.023031949712861 253.24818429990185 5.271967721192539 252.44023047897014 5.493873888783671 A 1.875 1.875 0 0 0 251.143 7.32715A 251.25 251.25 0 0 1 251.123 7.99716A 1.875 1.875 0 0 0 252.306 9.9061C 253.09853445623384 10.1768536865261 253.9330434790726 10.477223140276376 254.80755600934035 10.810274743804204 C 257.00519289599856 11.64725327347377 259.4542777167352 12.690027171667696 262.1273508952157 13.986004931233465 A 262.5 262.5 0 0 1 261.881 18.0192C 259.07009005506416 18.98018582604943 256.5123030127103 19.717152112852297 254.2291403727526 20.2804542557827 C 253.3205955145335 20.50460103093536 252.4557342645797 20.701177062724383 251.6357549827622 20.873414402935992 A 1.875 1.875 0 0 0 250.229 22.6242A 251.25 251.25 0 0 1 250.168 23.2917A 1.875 1.875 0 0 0 251.232 25.2692C 252.00734144082315 25.58781653011295 252.8219865343187 25.93850227203754 253.67456829372134 26.324248146599555 C 255.81709196743046 27.293646543712228 258.1980497705903 28.48378678817487 260.7871429925199 29.940315146621455 A 262.5 262.5 0 0 1 260.295 33.9509C 257.43110365058317 34.73882393480155 254.83314578359293 35.31848658088197 252.51988876470443 35.7415502986501 C 251.59936895189426 35.909891649576224 250.72413231644708 36.053376665925185 249.89517795052853 36.175304444539094 A 1.875 1.875 0 0 0 248.385 37.8371A 251.25 251.25 0 0 1 248.283 38.4996A 1.875 1.875 0 0 0 249.225 40.5384C 249.97866456335692 40.90359101559456 250.77041519425538 41.30328847170039 251.5978945226502 41.74029361730736 C 253.6773346546226 42.83850565615558 255.98130812079603 44.17158484700888 258.476789789337 45.78324542317776 A 262.5 262.5 0 0 1 257.741 49.7564C 254.8344566323924 50.3682313368629 252.20599251466547 50.788433959105056 249.87124658489168 51.06968542689391 C 248.94217621165402 51.18159511271137 248.05982012848307 51.271455339935315 247.2249744431506 51.342619977606844 A 1.875 1.875 0 0 0 245.616 52.9092A 251.25 251.25 0 0 1 245.474 53.5643A 1.875 1.875 0 0 0 246.29 55.6567C 247.02005063506323 56.06720145594161 247.7859614390153 56.514423725439755 248.58526005895166 57.001062454247425 C 250.5938809953184 58.22400271391588 252.81229919188576 59.69506170901293 255.2048859513273 61.45585901970656 A 262.5 262.5 0 0 1 254.229 65.3768C 251.28980869794793 65.81026561015496 248.6406163886403 66.06944502720515 246.2930669561866 66.2078379710819 C 245.35890222533146 66.26289968040918 244.4727091170194 66.2988008325608 243.63507779305533 66.3189375921637 A 1.875 1.875 0 0 0 241.934 67.7845A 251.25 251.25 0 0 1 241.752 68.4298A 1.875 1.875 0 0 0 242.438 70.5679C 243.14250589407774 71.02223822436687 243.87972763258753 71.51532161104114 244.64787210070116 72.04978359501581 C 246.57820163965224 73.39290265741558 248.7028119052162 74.99646902067514 250.98360317566758 76.8998527842482 A 262.5 262.5 0 0 1 249.77 80.754C 246.81034617037915 81.00748137294505 244.15028083888095 81.10467342034887 241.79866094182356 81.09969300947262 C 240.86287700750583 81.09770190913457 239.97614357062102 81.07951043156987 239.13884265156625 81.04854440303583 A 1.875 1.875 0 0 0 237.351 82.4077A 251.25 251.25 0 0 1 237.13 83.0406A 1.875 1.875 0 0 0 237.685 85.2167C 238.36045506151487 85.71306760184177 239.06624522129422 86.25017780310793 239.8003779897119 86.83047480856564 C 241.64523517857793 88.28877618256821 243.6681338234057 90.01888454179641 245.82864491153805 92.05777404563374 A 262.5 262.5 0 0 1 244.383 95.8308C 241.4127329445006 95.90334398443918 238.7516902085586 95.83818710139668 236.40474802736955 95.689851863223 C 235.4708260672874 95.63081536024364 234.58685100845582 95.55859892645401 233.75299530872334 95.47664530544304 A 1.875 1.875 0 0 0 231.886 96.7243A 251.25 251.25 0 0 1 231.627 97.3426A 1.875 1.875 0 0 0 232.048 99.5484C 232.69168768055786 100.08503873818537 233.363420675856 100.66417766881719 234.06081072246113 101.2881509527836 C 235.813332571329 102.85620966149617 237.72699427959742 104.70642389996277 239.75918794226 106.87323434119541 A 262.5 262.5 0 0 1 238.086 110.551C 235.11704849602893 110.44243985735923 232.46492760939879 110.21517643175488 230.13139392313965 109.92403818311244 C 229.2028081883248 109.80817589716042 228.324879952825 109.68220315702268 227.49757147038568 109.54956681638768 A 1.875 1.875 0 0 0 225.558 110.681A 251.25 251.25 0 0 1 225.262 111.282A 1.875 1.875 0 0 0 225.548 113.51C 226.15729193818973 114.08468695681633 226.79246887814455 114.70370018195388 227.45052186615908 115.36902852282992 C 229.10418887864498 117.04101128486566 230.90149470310953 119.00444848408111 232.79781104640236 121.29111918555111 A 262.5 262.5 0 0 1 230.903 124.86C 227.94671318461437 124.57068260012699 225.31338021118617 124.18215806683072 223.0019359184369 123.74929986112653 C 222.0821408088125 123.57704280751543 221.2135253473431 123.39778238789684 220.39584172408934 123.21495674353655 A 1.875 1.875 0 0 0 218.391 124.226A 251.25 251.25 0 0 1 218.058 124.808A 1.875 1.875 0 0 0 218.208 127.049C 218.78157621575255 127.65993264686145 219.37783420042888 128.3165173966503 219.99410212951634 129.02072572930905 C 221.54276255572057 130.79041265897698 223.2170264006669 132.85976870360122 224.97041100324248 135.2577931001101 A 262.5 262.5 0 0 1 222.862 138.705C 219.92840112856453 138.23551422179338 217.3236522399573 137.68717391758744 215.04289606530304 137.11420601577692 C 214.1353132790893 136.88619500206008 213.27924189821775 136.65431376349548 212.47422497093373 136.42197893881496 A 1.875 1.875 0 0 0 210.411 137.309A 251.25 251.25 0 0 1 210.044 137.87A 1.875 1.875 0 0 0 210.057 140.116C 210.59197866017243 140.76027500272878 211.1470995707049 141.4519887387751 211.71928988369245 142.19245736196646 C 213.15718260511323 144.05326510765482 214.70217609907206 146.2208418572861 216.30610625504613 148.7212991405761 A 262.5 262.5 0 0 1 213.991 152.033C 211.09194097537232 151.38610065121682 208.52546600853213 150.67998443804797 206.2838825147432 149.96903831835849 C 205.391888319515 149.6861215604827 204.55154566100512 149.40248211640957 203.76219014553402 149.1215024122164 A 1.875 1.875 0 0 0 201.649 149.881A 251.25 251.25 0 0 1 201.248 150.419A 1.875 1.875 0 0 0 201.124 152.661C 201.61896511225058 153.33697989042122 202.13088386239156 154.061249392195 202.65686797373334 154.83522371400662 C 203.9786439350059 156.78022994868317 205.3886196007042 159.037963875446 206.83712858455007 161.63155218019267 A 262.5 262.5 0 0 1 204.325 164.796C 201.47020493718827 163.9735208431465 198.9515513475584 163.11225551970554 196.7574793724593 162.26597594839748 C 195.88439204520932 161.92920591528406 195.0629042389446 161.59486342306388 194.29214658964904 161.26628410231245 A 1.875 1.875 0 0 0 192.136 161.896A 251.25 251.25 0 0 1 191.704 162.408A 1.875 1.875 0 0 0 191.443 164.638C 191.89591577173474 165.34326114171586 192.36272799011076 166.0973920791003 192.84054920436577 166.90199286422023 C 194.04129131209962 168.92396203694358 195.31100394745354 171.2634542223419 196.5987032106129 173.94052522970418 A 262.5 262.5 0 0 1 193.898 176.946C 191.098986504032 175.95094876772393 188.63752384839157 174.9377382975822 186.49912548383682 173.95927349024464 C 185.64819296676697 173.56990298853594 184.8486160013423 173.18610122419943 184.0993234873011 172.81114462354412 A 1.875 1.875 0 0 0 181.909 173.308A 251.25 251.25 0 0 1 181.446 173.793A 1.875 1.875 0 0 0 181.05 176.003C 181.45900102078352 176.73445460178286 181.87897013528195 177.51564155815947 182.3068509261498 178.34787563882068 C 183.3820923408392 180.43928589146492 184.5068185314502 182.85183327091073 185.62891774808773 185.60242810091066 A 262.5 262.5 0 0 1 182.75 188.438C 180.01686728965873 187.27382760638983 177.62175237075613 186.11244119904416 175.54698259911234 185.0054311090261 C 174.72137041707552 184.56490862256243 173.94667877131863 184.13307535388108 173.22163880989777 183.71313633650357 A 1.875 1.875 0 0 0 171.005 184.075A 251.25 251.25 0 0 1 170.514 184.531A 1.875 1.875 0 0 0 169.984 186.713C 170.34704686776928 187.46818428277467 170.71861056570046 188.27352119135722 171.09495918853585 189.13029260211835 C 172.040699941496 191.28336375117937 173.0162556320628 193.7599914899645 173.9685805193929 196.57387774917478 A 262.5 262.5 0 0 1 170.922 199.228C 168.2650735054219 197.90003550617516 165.94521630806705 196.59479359534095 163.94179340915602 195.36335637288596 C 163.14457289369582 194.87332067425055 162.39764847141083 194.39506234934677 161.69955825888758 193.9317031159734 A 1.875 1.875 0 0 0 159.465 194.158A 251.25 251.25 0 0 1 158.947 194.583A 1.875 1.875 0 0 0 158.285 196.729C 158.60139051197675 197.50452000528443 158.92316655198005 198.33101095987826 159.2465829651873 199.20913245481836 C 160.05930483870083 201.4158549342075 160.88206089797976 203.94734981447826 161.6610687448727 206.81405966119803 A 262.5 262.5 0 0 1 158.459 209.278C 155.88732259605914 207.79004227576118 153.65135314139496 206.34580044707528 151.7267299799859 204.99451711953202 C 150.96086684378145 204.4567911737094 150.24448825287735 203.93388694496397 149.575944730693 203.42883122237637 A 1.875 1.875 0 0 0 147.332 203.519A 251.25 251.25 0 0 1 146.788 203.911A 1.875 1.875 0 0 0 145.997 206.013C 146.26572656650663 206.80612594123576 146.5365179205789 207.65069634120565 146.8057989938589 208.54690125068834 C 147.48247860917652 210.79906590784427 148.14937433058827 213.37601060237688 148.75216717668818 216.28487968769022 A 262.5 262.5 0 0 1 145.405 218.549C 142.92966060792656 216.9070564403873 140.78589684918333 215.32918736831053 138.94723314984634 213.86308479840994 C 138.21557645406637 213.2796689812366 137.5324086699533 212.7140640867249 136.89589886392048 212.16919071538328 A 1.875 1.875 0 0 0 134.651 212.122A 251.25 251.25 0 0 1 134.084 212.481A 1.875 1.875 0 0 0 133.166 214.53C 133.3859445114452 215.33839950561537 133.6047438179636 216.1979074936019 133.81888780803726 217.10886187650098 C 134.3570078725456 219.3980905109764 134.86556236020468 222.01089861625297 135.28989777653248 224.95110575610738 A 262.5 262.5 0 0 1 131.811 227.007C 129.44029089468208 225.21716210855357 127.39670777384518 223.5115355696689 125.6508434863056 221.936067755265 C 124.95611504191379 221.30913241189964 124.30869949361926 220.70293093897828 123.70659126202244 220.12026688361144 A 1.875 1.875 0 0 0 121.468 219.936A 251.25 251.25 0 0 1 120.881 220.26A 1.875 1.875 0 0 0 119.84 222.249C 120.00995798198394 223.06960008036236 120.17595129315751 223.94084823019753 120.33416157031675 224.86316327637692 C 120.73172024203194 227.1809398072946 121.08004163984234 229.81989150555373 121.32434107077886 232.78049893627548 A 262.5 262.5 0 0 1 117.727 234.62C 115.46939479764353 232.6894451413651 113.53359457814545 230.86240617842302 111.88702443222172 229.18343396326244 C 111.23180867466107 228.51531133435967 110.6225537905471 227.87076839232333 110.05708701555449 227.25248120148675 A 1.875 1.875 0 0 0 107.834 226.932A 251.25 251.25 0 0 1 107.228 227.219A 1.875 1.875 0 0 0 106.068 229.142C 106.18752652655022 229.97096709155167 106.30009633635889 230.85071430289435 106.4017843479814 231.78095893980444 C 106.65730268253294 234.11866108623727 106.84409521201692 236.77393930383448 106.90744984763347 239.74393337132798 A 262.5 262.5 0 0 1 103.205 241.361C 101.06894496790343 239.29610815515855 99.24812895370447 237.35445347310153 97.70697829848645 235.57822274409992 C 97.09371267340983 234.87139828972164 96.52488492166131 234.1909116206485 95.99816317681584 233.53930136330132 A 1.875 1.875 0 0 0 93.799 233.084A 251.25 251.25 0 0 1 93.1768 233.334A 1.875 1.875 0 0 0 91.9008 235.182C 91.97007049801844 236.0168270006185 92.02879803937611 236.90180055606046 92.07358549937976 237.83651421255328 C 92.18611295178063 240.18544556897575 92.21068173245995 242.84717249654236 92.09285588935086 245.81550462780675 A 262.5 262.5 0 0 1 88.2982 247.204C 86.29251202465294 245.01257392959562 84.59345377091752 242.96352661136922 83.16345578806573 241.09664506350165 C 82.59442168387784 240.35374821704258 82.06813714109201 239.63984927603605 81.58211986587968 238.95733998513347 A 1.875 1.875 0 0 0 79.4148 238.369A 251.25 251.25 0 0 1 78.7785 238.58A 1.875 1.875 0 0 0 77.3923 240.347C 77.41047976662028 241.18468881160769 77.41514656921586 242.0715965513975 77.40286686530779 243.00730203127864 C 77.37198482604421 245.35872441876663 77.23423846044106 248.0169982573093 76.93567045848155 250.97262606185552 A 262.5 262.5 0 0 1 73.0634 252.127C 71.19506526896022 249.81757683653672 69.62408538398674 247.6687594727466 68.31055975991997 245.71817202798832 C 67.78787402086266 244.94196641451092 67.30609050010517 244.19731095252055 66.86258571071151 243.48644160745212 A 1.875 1.875 0 0 0 64.7351 242.767A 251.25 251.25 0 0 1 64.0872 242.939A 1.875 1.875 0 0 0 62.5958 244.618C 62.56291696615353 245.4553277391561 62.513505669174855 246.34087030824946 62.44420448266013 247.27408672567648 C 62.27002783494652 249.61925269850653 61.97047874858816 252.2641844947499 61.49227928035551 255.19611284301882 A 262.5 262.5 0 0 1 57.5569 256.112C 55.832768194359964 253.6932419495744 54.39571082650281 251.45264828194863 53.203543962815225 249.42561125370915 C 52.72915101416792 248.61898440907686 52.293660781779614 247.84634259333043 51.894318345150644 247.10975767474983 A 1.875 1.875 0 0 0 49.8147 246.262A 251.25 251.25 0 0 1 49.1575 246.394A 1.875 1.875 0 0 0 47.5665 247.979C 47.482616005427076 248.8128567259568 47.37931042214426 249.69373984783402 47.25324555798843 250.62099557644027 C 46.93642225039423 252.9511809631625 46.47618478555636 255.57293139710484 45.82013278448064 258.4702533230712 A 262.5 262.5 0 0 1 41.8362 259.145C 40.26276955496868 256.62515153993365 38.96498065202252 254.30111672407847 37.89860748774881 252.20517082323906 C 37.47427210243869 251.37112345229338 37.086695210687154 250.5733695610927 36.73300070691604 249.81380921327613 A 1.875 1.875 0 0 0 34.7089 248.841A 251.25 251.25 0 0 1 34.0449 248.933A 1.875 1.875 0 0 0 32.3602 250.418C 32.225676594492086 251.2447855436557 32.06886102846006 252.11773227524685 31.88650145623776 253.0355778628195 C 31.428210092276245 255.3421142207482 30.80899636255656 257.93093020857816 29.977532385171408 260.78286748438063 A 262.5 262.5 0 0 1 25.9599 261.213C 24.542990768365616 258.6023987113699 23.38929819028845 256.2035683094434 22.452685703639332 254.04651059241738 C 22.07998643717019 253.18814540615858 21.741764697548877 252.36824713637563 21.43503389342037 251.588536973705 A 1.875 1.875 0 0 0 19.474 250.494A 251.25 251.25 0 0 1 18.8056 250.545A 1.875 1.875 0 0 0 17.0336 251.925C 16.84885555003631 252.74206725732137 16.639113365460396 253.60383017944955 16.401137474757697 254.50885118011857 C 15.803082928403482 256.7831580425085 15.027196449546622 259.32940901871723 14.023413596458639 262.125352250374 A 262.5 262.5 0 0 1 9.98697 262.31C 8.731910444115378 259.61762797453946 7.7266060030724315 257.1529257931925 6.923238454015147 254.94278065636317 C 6.603561772137221 254.06329082966178 6.315953391731992 253.22429825671117 6.057327345983599 252.4273388522032 A 1.875 1.875 0 0 0 4.16665 251.215A 251.25 251.25 0 0 1 3.4964 251.226A 1.875 1.875 0 0 0 1.64356 252.495C 1.4093556562979779 253.29913188063716 1.1474671078807113 254.1465051786313 0.8547601846413424 255.03533485483223 C 0.11916725808721029 257.2689516507782 -0.8105056212450856 259.7631653944961 -1.9828732118937378 262.4927134895473 A 262.5 262.5 0 0 1 -6.02307 262.431C -7.1116531605007 259.6670626099028 -7.964829665960139 257.1456575031321 -8.631963697377746 254.8906468315713 C -8.897428576411443 253.99330412434773 -9.133353675535298 253.13833835570608 -9.34291285702678 252.32709445069 A 1.875 1.875 0 0 0 -11.1562 251.002A 251.25 251.25 0 0 1 -11.8258 250.972A 1.875 1.875 0 0 0 -13.7526 252.125C -14.035387133048557 252.9139070966162 -14.348447802706168 253.7437384861521 -14.694796869502708 254.61307033311095 C -15.565191722256074 256.7976878614278 -16.64519255789158 259.2305857337076 -17.981783601662336 261.88358459396227 A 262.5 262.5 0 0 1 -22.0107 261.576C -22.928760948264827 258.75051871736946 -23.626635645503633 256.1817904777787 -24.155054376867184 253.89030305929418 C -24.365319906270855 252.97844564535694 -24.548684067248985 252.11068720983795 -24.70839681056452 251.28817668492306 A 1.875 1.875 0 0 0 -26.4375 249.855A 251.25 251.25 0 0 1 -27.104 249.784A 1.875 1.875 0 0 0 -29.0975 250.818C -29.42791736041295 251.5878259667567 -29.790985545057882 252.39702842056178 -30.18968831413483 253.24362846671 C -31.19164716706747 255.37111980670613 -32.417958284962936 257.73365126766976 -33.91380057538539 260.3002315631183 A 262.5 262.5 0 0 1 -37.9165 259.747C -38.66057223933552 256.8714059004185 -39.20054898864341 254.26491036577352 -39.588286667565576 251.94547068406746 C -39.74257064575955 251.0224907328874 -39.87269174186973 250.14516774886576 -39.981963905114206 249.31445039722743 A 1.875 1.875 0 0 0 -41.6205 247.779A 251.25 251.25 0 0 1 -42.2814 247.667A 1.875 1.875 0 0 0 -44.3343 248.577C -44.710973802364684 249.32582159995906 -45.122698864503676 250.1113848317566 -45.572272135373176 250.93210366931757 C -46.702067635743305 252.99455441347413 -48.070127077995785 255.2779306909153 -49.71965598350232 257.748544574285 A 262.5 262.5 0 0 1 -53.6812 256.953C -54.248563662441235 254.0367145821495 -54.628633714844995 251.4021480870344 -54.874247931693496 249.06338461006405 C -54.971976412145494 248.13271566768105 -55.0483703843638 247.24909183428002 -55.10679546791294 246.41325797902803 A 1.875 1.875 0 0 0 -56.6487 244.78A 251.25 251.25 0 0 1 -57.3015 244.628A 1.875 1.875 0 0 0 -59.4061 245.412C -59.82770248514542 246.13630880103665 -60.28655278050512 246.8953104640084 -60.78532411107148 247.68709496500142 C -62.03875334541251 249.67683266108799 -63.543471841042404 251.87255944528192 -65.34055100576312 254.23801607065627 A 262.5 262.5 0 0 1 -69.2462 253.202C -69.63474686566555 250.25699000044955 -69.85349633560713 247.60415330526502 -69.95607338936333 245.25476638677517 C -69.99688281570722 244.31987060278146 -70.01926547343943 243.43323305869797 -70.02662613214505 242.59539205667159 A 1.875 1.875 0 0 0 -71.4661 240.872A 251.25 251.25 0 0 1 -72.1085 240.68A 1.875 1.875 0 0 0 -74.2569 241.334C -74.72186818518523 242.0311527670894 -75.2261367605295 242.76076932519766 -75.7722506886836 243.52067399927452 C -77.1446508179183 245.43029669237524 -78.78043071529162 247.5302057354689 -80.71837488670123 249.78170544883784 A 262.5 262.5 0 0 1 -84.5536 248.51C -84.76188423692462 245.5462929790157 -84.81849936200838 242.88505481050674 -84.77765765929495 240.53378432414237 C -84.76139621778441 239.59813957225856 -84.72968429607366 238.7117866673911 -84.68595314780194 237.87505534214748 A 1.875 1.875 0 0 0 -86.0177 236.067A 251.25 251.25 0 0 1 -86.6472 235.836A 1.875 1.875 0 0 0 -88.8315 236.358C -89.33806362782796 237.02562494819105 -89.8858745709361 237.72314217991837 -90.47729951699633 238.44834013178072 C -91.96356512250439 240.27074390005282 -93.72432121296454 242.26702340248346 -95.7959211114608 244.39619047703428 A 262.5 262.5 0 0 1 -99.5465 242.893C -99.57370183164379 239.92214762016727 -99.46797199988588 237.26240795911139 -99.28386347451946 234.91800078551373 C -99.21059165878492 233.98508772567018 -99.12490312806283 233.10231675104072 -99.03024285555762 232.2698077980664 A 1.875 1.875 0 0 0 -100.249 230.384A 251.25 251.25 0 0 1 -100.864 230.115A 1.875 1.875 0 0 0 -103.076 230.503C -103.62191560603219 231.138346236592 -104.21123102421545 231.80116933202325 -104.84576684853754 232.48896277765908 C -106.44036892464825 234.21736815938874 -108.31955107989188 236.10259183029126 -110.51710021778929 238.1015056246624 A 262.5 262.5 0 0 1 -114.169 236.372C -114.01509871552736 233.40547611403417 -113.74741724884629 230.75712936666275 -113.4207267966335 228.42830685449883 C -113.29071718264204 227.50159598455204 -113.15137080987091 226.6256909061668 -113.00613355556321 225.80050131344623 A 1.875 1.875 0 0 0 -114.108 223.844A 251.25 251.25 0 0 1 -114.705 223.538A 1.875 1.875 0 0 0 -116.936 223.79C -117.52028725227251 224.39121769577727 -118.14891485346891 225.01688090946305 -118.82420104110994 225.66471121208016 C -120.52120756336636 227.29268842572526 -122.51182510235088 229.05984310922204 -124.82714845252094 230.9210675328094 A 262.5 262.5 0 0 1 -128.367 228.972C -128.0323519436532 226.0205209066357 -127.60371463468643 223.39341909679297 -127.13565756556662 221.08884461876548 C -126.9493937976213 220.17178336401827 -126.75690796046018 219.30600260629845 -126.56163401647524 218.4912021333152 A 1.875 1.875 0 0 0 -127.542 216.471A 251.25 251.25 0 0 1 -128.119 216.13A 1.875 1.875 0 0 0 -130.362 216.245C -130.98147571117704 216.80933908707135 -131.64707695942172 217.3955149107631 -132.36060140141075 218.00097209908608 C -134.15369939409035 219.52246496248603 -136.24834708882653 221.1649767270873 -138.6728314963357 222.88158790278953 A 262.5 262.5 0 0 1 -142.087 220.721C -141.5733164133567 217.79475451638868 -140.98531782104655 215.19867063535582 -140.3776353380589 212.92691735988808 C -140.13581032961036 212.02291724844082 -139.890901088016 211.17048157266981 -139.64631688625104 210.36910133069964 A 1.875 1.875 0 0 0 -140.502 208.293A 251.25 251.25 0 0 1 -141.057 207.917A 1.875 1.875 0 0 0 -143.303 207.896C -143.95540447754482 208.42091549687814 -144.65550329247748 208.96542331801155 -145.40461163102583 209.5262550515333 C -147.28713065182475 210.9356035113043 -149.47801627531132 212.44736210536524 -152.00264249892302 214.01297412686134 A 262.5 262.5 0 0 1 -155.279 211.648C -154.58761884743697 208.758777334535 -153.8424463651667 206.20336898486084 -153.0973990870607 203.97288798334674 C -152.80091244302344 203.085311954989 -152.50449087546022 202.2493924778688 -152.21150628521022 201.46441365404667 A 1.875 1.875 0 0 0 -152.939 199.34A 251.25 251.25 0 0 1 -153.47 198.931A 1.875 1.875 0 0 0 -155.71 198.773C -156.39380968423467 199.25715241190653 -157.1258016522811 199.7579666256236 -157.90770715516783 200.27208657345992 C -159.8726441096845 201.56404776076522 -162.1516174235042 202.93942934302333 -164.76699368784858 204.3482180307636 A 262.5 262.5 0 0 1 -167.893 201.788C -167.02684518605724 198.94620378967602 -166.12727090440396 196.4409772582611 -165.247630455989 194.26006606652473 C -164.8975851261522 193.39221596237817 -164.55075394032048 192.57592235926705 -164.21045888350443 191.81026512637516 A 1.875 1.875 0 0 0 -164.807 189.645A 251.25 251.25 0 0 1 -165.312 189.205A 1.875 1.875 0 0 0 -167.539 188.91C -168.2504196469204 189.35213963271056 -169.01158170988214 189.80739717724268 -169.82337563728072 190.27289277942006 C -171.86342083098685 191.44266051378668 -174.22200390472884 192.67654857442062 -176.9184008383241 193.9232731419571 A 262.5 262.5 0 0 1 -179.882 191.177C -178.84472069022658 188.39353729989057 -177.79409108460231 185.94781219397555 -176.78312978612144 183.8245839448929 C -176.38082796210313 182.97968822434555 -175.98487739279417 182.18605716106143 -175.59853778937406 181.44256981429461 A 1.875 1.875 0 0 0 -176.062 179.245A 251.25 251.25 0 0 1 -176.539 178.775A 1.875 1.875 0 0 0 -178.744 178.345C -179.4811269977964 178.74272445739223 -180.26862758280586 179.15073174477232 -181.10729000798764 179.56587132707685 C -183.21485433877203 180.6090939957023 -185.6442730884898 181.6968983900844 -188.41165991764296 182.7769209401408 A 262.5 262.5 0 0 1 -191.203 179.855C -189.99728208686912 177.140034477622 -188.79950556841234 174.76290905523663 -187.66098426229607 172.7052622973484 C -187.20792253330487 171.8864640279736 -186.76432554264264 171.11844786419772 -186.3333786013181 170.39989622531843 A 1.875 1.875 0 0 0 -186.662 168.178A 251.25 251.25 0 0 1 -187.11 167.68A 1.875 1.875 0 0 0 -189.284 167.116C -190.04415276788205 167.46837460723222 -190.85506232103987 167.82761382355324 -191.7174733646996 168.19085303947222 C -193.8847165548264 169.10364978551019 -196.37593338320627 170.04132380984618 -199.2040152471504 170.9506265876001 A 262.5 262.5 0 0 1 -201.812 167.864C -200.4430411150867 165.22755909250156 -199.1025734911163 162.9278764163472 -197.84072755140173 160.9434657307394 C -197.33859133682662 160.15381089587805 -196.84899813475192 159.41426670218314 -196.3750470064493 158.7233238304826 A 1.875 1.875 0 0 0 -196.567 156.486A 251.25 251.25 0 0 1 -196.984 155.961A 1.875 1.875 0 0 0 -199.12 155.266C -199.90020180753083 155.571031404175 -200.73150369203853 155.88016615595726 -201.61445512845046 156.19015373174994 C -203.8333148909075 156.96912889135243 -206.37706230772417 157.75318433668517 -209.25531855617638 158.4883846760802 A 262.5 262.5 0 0 1 -211.67 155.249C -210.14313886521458 152.7004263353759 -208.6649667633339 150.48674137605153 -207.28449033979507 148.58294890081112 C -206.73514761933473 147.8253750683136 -206.2013795247159 147.11705399767365 -205.6861873387617 146.45629024601584 A 1.875 1.875 0 0 0 -205.742 144.211A 251.25 251.25 0 0 1 -206.126 143.662A 1.875 1.875 0 0 0 -208.215 142.838C -209.01260896696797 143.09495374635574 -209.8612106852151 143.35283403201865 -210.76141787704339 143.60841679354294 C -213.02363990777908 144.25067252795304 -215.61045500556813 144.8781926565289 -218.5281783362397 145.43655556401436 A 262.5 262.5 0 0 1 -220.741 142.056C -219.061490336518 139.60523796288615 -217.4511126540327 137.4857857738357 -215.95714120963518 135.66969374201207 C -215.36263557429066 134.94701913629288 -214.7866782394976 134.27255618961337 -214.23216154466158 133.64442964255358 A 1.875 1.875 0 0 0 -214.151 131.4A 251.25 251.25 0 0 1 -214.501 130.828A 1.875 1.875 0 0 0 -216.536 129.879C -217.34747549305538 130.0865534620932 -218.2102201909137 130.29221995003644 -219.1243343082789 130.49244711263282 C -221.42150299275573 130.99559418833493 -224.04176264945082 131.46424458406003 -226.98809893991498 131.84369291294666 A 262.5 262.5 0 0 1 -228.991 128.334C -227.16491867576426 125.99070893587285 -225.42832612342318 123.97337401844571 -223.82641733006443 122.25173841167857 C -223.18896037984646 121.56665142973644 -222.57295640399363 120.92855565347783 -221.98117803880135 120.3354029830266 A 1.875 1.875 0 0 0 -221.763 118.1A 251.25 251.25 0 0 1 -222.077 117.508A 1.875 1.875 0 0 0 -224.051 116.436C -224.8737951348804 116.59422265483914 -225.74747334540862 116.74691025221935 -226.6720938237549 116.89103695769194 C -228.99566354358808 117.25320363451772 -231.63962022116712 117.56124088713885 -234.6036089069073 117.76036306472099 A 262.5 262.5 0 0 1 -236.388 114.135C -234.42327859729667 111.9074861965215 -232.56693141345426 109.99977316910949 -230.8630444770593 108.37899858493338 C -230.18500759369104 107.73404779533777 -229.5312485520279 107.13469294769806 -228.9044099708659 106.57872072074784 A 1.875 1.875 0 0 0 -228.551 104.361A 251.25 251.25 0 0 1 -228.828 103.751A 1.875 1.875 0 0 0 -230.733 102.561C -231.5635694890449 102.66815368137587 -232.4449310719165 102.76729438030222 -233.37661826233523 102.8547844678404 C -235.7179451855544 103.07462346196486 -238.37576319152117 103.22090165267034 -241.34637803995102 103.23895693136897 A 262.5 262.5 0 0 1 -242.907 99.5118C -240.80956852547638 97.40796025841175 -238.84037244358177 95.6169659387758 -237.04084593546565 94.1030817650967 C -236.32475146068683 93.50066642714543 -235.6356693797874 92.94228214752353 -234.97610246334855 92.42555861727499 A 1.875 1.875 0 0 0 -234.488 90.2336A 251.25 251.25 0 0 1 -234.728 89.6077A 1.875 1.875 0 0 0 -236.556 88.3037C -237.39191215556582 88.36015243295175 -238.2776783878045 88.40537742351268 -239.21296635275385 88.43590542424447 C -241.5633405894258 88.51259892017038 -244.22513266623204 88.49657388448317 -247.19132279500482 88.33349509747569 A 262.5 262.5 0 0 1 -248.522 84.5181C -246.30003104231773 82.54607031036521 -244.2253116011328 80.87845731500727 -242.33683987809903 79.47709530038348 C -241.58535173038902 78.91945643870048 -240.86351004085333 78.40411995329141 -240.17366842138728 77.92856736521557 A 1.875 1.875 0 0 0 -239.553 75.7704A 251.25 251.25 0 0 1 -239.754 75.1311A 1.875 1.875 0 0 0 -241.499 73.718C -242.33714131691684 73.72344561396338 -243.22401708996136 73.71458665622359 -244.1594264967818 73.68803900398115 C -246.51010450037305 73.62130169686644 -249.16596860666596 73.44303304897186 -252.1166995936826 73.09942686005695 A 262.5 262.5 0 0 1 -253.212 69.21C -250.8742412666433 67.37710355912056 -248.70171655875734 65.83907551791255 -246.73132485965078 64.55544882108023 C -245.94723862427702 64.04466088885678 -245.19532262460078 63.574289283233696 -244.4777725582409 63.1416767241926 A 1.875 1.875 0 0 0 -243.726 61.0254A 251.25 251.25 0 0 1 -243.888 60.375A 1.875 1.875 0 0 0 -245.544 58.8582C -246.38086039581407 58.8124827351196 -247.2655464735385 58.74957278498375 -248.19759753779877 58.666048238777094 C -250.5398346317429 58.45612839578753 -253.17989077860938 58.11627930676447 -256.1041857107935 57.59342395353304 A 262.5 262.5 0 0 1 -256.96 53.6445C -254.51518283598358 51.95748955729363 -252.25293479600174 50.55476803556682 -250.20795310735886 49.39365183214707 C -249.39418563661582 48.93161499403974 -248.6149925037039 48.50795808146964 -247.87240332382586 48.119894898596996 A 1.875 1.875 0 0 0 -246.993 46.0534A 251.25 251.25 0 0 1 -247.115 45.3943A 1.875 1.875 0 0 0 -248.676 43.7793C -249.50802649169157 43.68273355768472 -250.38723178378046 43.56600664429926 -251.3124572143042 43.42581592092617 C -253.63754012277315 43.07349445766527 -256.25196712794735 42.57332918844624 -259.138947436083 41.87316972715356 A 262.5 262.5 0 0 1 -259.753 37.8794C -257.2093112085627 36.34459028173451 -254.8657555477787 35.0823934956808 -252.75379133579602 34.04810721421269 C -251.91336989812334 33.636540277605896 -251.1097982816077 33.261174089629414 -250.34493246873413 32.91910390345359 A 1.875 1.875 0 0 0 -249.341 30.9101A 251.25 251.25 0 0 1 -249.423 30.2447A 1.875 1.875 0 0 0 -250.882 28.5376C -251.70700634127985 28.39048174232415 -252.57746014630018 28.22037209747351 -253.49241804371687 28.02403671563271 C -255.79169730557916 27.530624291084344 -258.3707693288858 26.872003489321806 -261.20969525660917 25.997144559150506 A 262.5 262.5 0 0 1 -261.579 21.9734C -258.94660404988383 20.596486743207045 -256.53045894928096 19.47951014777189 -254.35936885954138 18.57590140115464 C -253.49541987788623 18.21633542208436 -252.67045911695908 17.89065634557491 -251.88616202215036 17.595851679655713 A 1.875 1.875 0 0 0 -250.762 15.6517A 251.25 251.25 0 0 1 -250.803 14.9826A 1.875 1.875 0 0 0 -252.155 13.1898C -252.96961959510898 12.992615470189147 -253.8280837677345 12.76975591292502 -254.7293704285711 12.518006253132299 C -256.9942925739554 11.88533839392322 -259.52841529807375 11.070712172258084 -262.3087258544725 10.024408305889317 A 262.5 262.5 0 0 1 -262.432 5.98562C -259.7205985164715 4.771762921213114 -257.2408521945169 3.804161742694798 -255.0187128247519 3.034592014815023 C -254.13445024607037 2.72836460233978 -253.29116924894598 2.453584184852649 -252.49035850890758 2.2071417319101307 A 1.875 1.875 0 0 0 -251.25 0.335164A 251.25 251.25 0 0 1 -251.25 -0.335164A 1.875 1.875 0 0 0 -252.49 -2.20714C -253.29116924894598 -2.4535841848525877 -254.13445024607037 -2.7283646023397186 -255.0187128247519 -3.0345920148149608 C -257.2408521945169 -3.8041617426947356 -259.7205985164715 -4.7717629212130515 -262.4319507636644 -5.985619404674928 A 262.5 262.5 0 0 1 -262.309 -10.0244C -259.52841529807375 -11.07071217225802 -256.9942925739554 -11.885338393923156 -254.7293704285711 -12.518006253132238 C -253.8280837677345 -12.76975591292496 -252.96961959510898 -12.992615470189087 -252.15527427839132 -13.189778928043584 A 1.875 1.875 0 0 0 -250.803 -14.9826A 251.25 251.25 0 0 1 -250.762 -15.6517A 1.875 1.875 0 0 0 -251.886 -17.5958C -252.67045911695908 -17.89065634557474 -253.49541987788626 -18.21633542208419 -254.3593688595414 -18.57590140115446 C -256.53045894928096 -19.479510147771716 -258.9466040498839 -20.596486743206867 -261.5789115794293 -21.97338021791703 A 262.5 262.5 0 0 1 -261.21 -25.9971C -258.37076932888584 -26.872003489321628 -255.79169730557916 -27.53062429108417 -253.4924180437169 -28.02403671563254 C -252.5774601463002 -28.22037209747334 -251.7070063412799 -28.390481742323978 -250.8821558659475 -28.537632744077495 A 1.875 1.875 0 0 0 -249.423 -30.2447A 251.25 251.25 0 0 1 -249.341 -30.9101A 1.875 1.875 0 0 0 -250.345 -32.9191C -251.10979828160768 -33.26117408962936 -251.91336989812334 -33.63654027760584 -252.75379133579602 -34.048107214212635 C -254.8657555477787 -35.08239349568074 -257.2093112085627 -36.344590281734455 -259.75278166356014 -37.879398613532324 A 262.5 262.5 0 0 1 -259.139 -41.8732C -256.25196712794735 -42.57332918844618 -253.63754012277315 -43.07349445766521 -251.3124572143042 -43.42581592092611 C -250.38723178378046 -43.5660066442992 -249.5080264916916 -43.682733557684664 -248.67573935568907 -43.779324691945774 A 1.875 1.875 0 0 0 -247.115 -45.3943A 251.25 251.25 0 0 1 -246.993 -46.0534A 1.875 1.875 0 0 0 -247.872 -48.1199C -248.61499250370392 -48.507958081469475 -249.39418563661584 -48.93161499403958 -250.2079531073589 -49.39365183214691 C -252.25293479600177 -50.55476803556666 -254.5151828359836 -51.95748955729346 -256.9603543392848 -53.64450315837821 A 262.5 262.5 0 0 1 -256.104 -57.5934C -253.1798907786094 -58.1162793067643 -250.53983463174293 -58.45612839578737 -248.1975975377988 -58.66604823877693 C -247.26554647353854 -58.749572784983584 -246.3808603958141 -58.81248273511944 -245.54423276195212 -58.85815467652456 A 1.875 1.875 0 0 0 -243.888 -60.375A 251.25 251.25 0 0 1 -243.726 -61.0254A 1.875 1.875 0 0 0 -244.478 -63.1417C -245.1953226246008 -63.57428928323364 -245.94723862427705 -64.04466088885673 -246.7313248596508 -64.55544882108018 C -248.70171655875737 -65.83907551791249 -250.87424126664334 -67.3771035591205 -253.21201761965656 -69.21004662809268 A 262.5 262.5 0 0 1 -252.117 -73.0994C -249.16596860666598 -73.4430330489718 -246.51010450037307 -73.62130169686638 -244.15942649678183 -73.68803900398109 C -243.2240170899614 -73.71458665622353 -242.33714131691687 -73.72344561396332 -241.49928549494336 -73.71802845989069 A 1.875 1.875 0 0 0 -239.754 -75.1311A 251.25 251.25 0 0 1 -239.553 -75.7704A 1.875 1.875 0 0 0 -240.174 -77.9286C -240.86351004085336 -78.40411995329124 -241.58535173038908 -78.91945643870031 -242.33683987809908 -79.47709530038331 C -244.22531160113286 -80.8784573150071 -246.30003104231778 -82.54607031036504 -248.5217155634642 -84.51812417861998 A 262.5 262.5 0 0 1 -247.191 -88.3335C -244.2251326662321 -88.496573884483 -241.56334058942585 -88.5125989201702 -239.2129663527539 -88.4359054242443 C -238.27767838780457 -88.4053774235125 -237.3919121555659 -88.36015243295158 -236.5559450241691 -88.30366633557016 A 1.875 1.875 0 0 0 -234.728 -89.6077A 251.25 251.25 0 0 1 -234.488 -90.2336A 1.875 1.875 0 0 0 -234.976 -92.4256C -235.6356693797875 -92.94228214752337 -236.3247514606869 -93.50066642714526 -237.04084593546574 -94.10308176509653 C -238.84037244358186 -95.61696593877565 -240.80956852547646 -97.40796025841159 -242.9068964024167 -99.51178875603448 A 262.5 262.5 0 0 1 -241.346 -103.239C -238.37576319152126 -103.22090165267018 -235.7179451855545 -103.0746234619647 -233.3766182623353 -102.85478446784026 C -232.44493107191659 -102.76729438030208 -231.563569489045 -102.66815368137571 -230.73260090086023 -102.56080877267773 A 1.875 1.875 0 0 0 -228.828 -103.751A 251.25 251.25 0 0 1 -228.551 -104.361A 1.875 1.875 0 0 0 -228.904 -106.579C -229.53124855202793 -107.134692947698 -230.18500759369107 -107.73404779533772 -230.8630444770593 -108.37899858493333 C -232.56693141345428 -109.99977316910943 -234.4232785972967 -111.90748619652145 -236.38844763257563 -114.13526294332124 A 262.5 262.5 0 0 1 -234.604 -117.76C -231.63962022116715 -117.5612408871388 -228.9956635435881 -117.25320363451766 -226.67209382375495 -116.89103695769188 C -225.74747334540865 -116.7469102522193 -224.87379513488042 -116.59422265483909 -224.0509163476339 -116.43641826493538 A 1.875 1.875 0 0 0 -222.077 -117.508A 251.25 251.25 0 0 1 -221.763 -118.1A 1.875 1.875 0 0 0 -221.981 -120.335C -222.57295640399374 -120.9285556534777 -223.18896037984658 -121.5666514297363 -223.82641733006452 -122.25173841167842 C -225.4283261234233 -123.97337401844557 -227.1649186757644 -125.9907089358727 -228.99061831149803 -128.33414645603042 A 262.5 262.5 0 0 1 -226.988 -131.844C -224.04176264945096 -131.46424458405988 -221.42150299275585 -130.9955941883348 -219.12433430827903 -130.49244711263268 C -218.21022019091382 -130.2922199500363 -217.3474754930555 -130.08655346209306 -216.53574766988265 -129.8788766336787 A 1.875 1.875 0 0 0 -214.501 -130.828A 251.25 251.25 0 0 1 -214.151 -131.4A 1.875 1.875 0 0 0 -214.232 -133.644C -214.78667823949763 -134.2725561896133 -215.3626355742907 -134.94701913629282 -215.9571412096352 -135.66969374201202 C -217.45111265403273 -137.48578577383563 -219.06149033651803 -139.6052379628861 -220.74092885014912 -142.05561851490924 A 262.5 262.5 0 0 1 -218.528 -145.437C -215.61045500556816 -144.87819265652885 -213.0236399077791 -144.250672527953 -210.7614178770434 -143.6084167935429 C -209.86121068521513 -143.3528340320186 -209.012608966968 -143.09495374635569 -208.2150517886855 -142.83817705087262 A 1.875 1.875 0 0 0 -206.126 -143.662A 251.25 251.25 0 0 1 -205.742 -144.211A 1.875 1.875 0 0 0 -205.686 -146.456C -206.201379524716 -147.1170539976735 -206.73514761933484 -147.82537506831346 -207.28449033979518 -148.58294890081098 C -208.664966763334 -150.48674137605138 -210.1431388652147 -152.70042633537577 -211.67006863516664 -155.24863434266936 A 262.5 262.5 0 0 1 -209.255 -158.488C -206.3770623077243 -157.75318433668502 -203.83331489090762 -156.96912889135228 -201.61445512845057 -156.1901537317498 C -200.73150369203864 -155.8801661559571 -199.90020180753095 -155.57103140417485 -199.1197822392257 -155.26611006779538 A 1.875 1.875 0 0 0 -196.984 -155.961A 251.25 251.25 0 0 1 -196.567 -156.486A 1.875 1.875 0 0 0 -196.375 -158.723C -196.84899813475198 -159.4142667021831 -197.33859133682668 -160.153810895878 -197.84072755140178 -160.94346573073935 C -199.10257349111632 -162.92787641634715 -200.44304111508674 -165.2275590925015 -201.81178186232628 -167.8641150539116 A 262.5 262.5 0 0 1 -199.204 -170.951C -196.37593338320633 -170.04132380984612 -193.8847165548265 -169.10364978551013 -191.71747336469966 -168.19085303947216 C -190.85506232103992 -167.82761382355318 -190.0441527678821 -167.4683746072322 -189.28377402160638 -167.11644295735496 A 1.875 1.875 0 0 0 -187.11 -167.68A 251.25 251.25 0 0 1 -186.662 -168.178A 1.875 1.875 0 0 0 -186.333 -170.4C -186.76432554264275 -171.1184478641976 -187.20792253330495 -171.8864640279735 -187.66098426229618 -172.7052622973483 C -188.79950556841246 -174.76290905523652 -189.99728208686923 -177.1400344776219 -191.2027420059174 -179.85513023180243 A 262.5 262.5 0 0 1 -188.412 -182.777C -185.6442730884899 -181.6968983900843 -183.21485433877214 -180.60909399570218 -181.10729000798776 -179.56587132707674 C -180.268627582806 -179.1507317447722 -179.4811269977965 -178.74272445739211 -178.74361773242822 -178.3450917028697 A 1.875 1.875 0 0 0 -176.539 -178.775A 251.25 251.25 0 0 1 -176.062 -179.245A 1.875 1.875 0 0 0 -175.599 -181.443C -175.98487739279432 -182.1860571610613 -176.38082796210327 -182.97968822434544 -176.78312978612158 -183.82458394489282 C -177.79409108460246 -185.94781219397544 -178.8447206902267 -188.39353729989045 -179.88241539100986 -191.17707251230786 A 262.5 262.5 0 0 1 -176.918 -193.923C -174.222003904729 -192.6765485744205 -171.863420830987 -191.44266051378656 -169.82337563728086 -190.27289277941998 C -169.01158170988228 -189.80739717724256 -168.25041964692053 -189.35213963271045 -167.53852344536668 -188.91028499350622 A 1.875 1.875 0 0 0 -165.312 -189.205A 251.25 251.25 0 0 1 -164.807 -189.645A 1.875 1.875 0 0 0 -164.21 -191.81C -164.55075394032053 -192.575922359267 -164.89758512615225 -193.39221596237812 -165.24763045598905 -194.26006606652467 C -166.127270904404 -196.44097725826106 -167.0268451860573 -198.94620378967596 -167.8929143761324 -201.7878235265168 A 262.5 262.5 0 0 1 -164.767 -204.348C -162.15161742350426 -202.93942934302328 -159.87264410968456 -201.56404776076516 -157.90770715516788 -200.27208657345986 C -157.12580165228115 -199.75796662562354 -156.39380968423472 -199.25715241190647 -155.71017484712252 -198.77271961629936 A 1.875 1.875 0 0 0 -153.47 -198.931A 251.25 251.25 0 0 1 -152.939 -199.34A 1.875 1.875 0 0 0 -152.212 -201.464C -152.50449087546036 -202.24939247786872 -152.80091244302358 -203.08531195498892 -153.09739908706084 -203.97288798334662 C -153.84244636516684 -206.20336898486076 -154.5876188474371 -208.75877733453493 -155.27884069253358 -211.64791058373999 A 262.5 262.5 0 0 1 -152.003 -214.013C -149.47801627531146 -212.44736210536516 -147.2871306518249 -210.9356035113042 -145.40461163102597 -209.52625505153324 C -144.65550329247762 -208.96542331801146 -143.95540447754496 -208.42091549687805 -143.30257417136977 -207.89570666668536 A 1.875 1.875 0 0 0 -141.057 -207.917A 251.25 251.25 0 0 1 -140.502 -208.293A 1.875 1.875 0 0 0 -139.646 -210.369C -139.89090108801614 -211.1704815726697 -140.13581032961054 -212.0229172484407 -140.37763533805906 -212.92691735988794 C -140.98531782104672 -215.1986706353557 -141.57331641335688 -217.79475451638854 -142.08711952281132 -220.72065351251194 A 262.5 262.5 0 0 1 -138.673 -222.882C -136.2483470888267 -221.1649767270872 -134.15369939409052 -219.5224649624859 -132.36060140141092 -218.000972099086 C -131.6470769594219 -217.39551491076298 -130.98147571117724 -216.80933908707124 -130.36187850755607 -216.24530803363714 A 1.875 1.875 0 0 0 -128.119 -216.13A 251.25 251.25 0 0 1 -127.542 -216.471A 1.875 1.875 0 0 0 -126.562 -218.491C -126.75690796046024 -219.30600260629842 -126.94939379762137 -220.17178336401824 -127.13565756556669 -221.08884461876545 C -127.6037146346865 -223.39341909679294 -128.03235194365328 -226.02052090663568 -128.3668249361518 -228.9723011132381 A 262.5 262.5 0 0 1 -124.827 -230.921C -122.51182510235095 -229.05984310922202 -120.52120756336643 -227.29268842572523 -118.82420104111002 -225.66471121208014 C -118.14891485346898 -225.01688090946303 -117.5202872522726 -224.39121769577724 -116.9362280934982 -223.79046265166616 A 1.875 1.875 0 0 0 -114.705 -223.538A 251.25 251.25 0 0 1 -114.108 -223.844A 1.875 1.875 0 0 0 -113.006 -225.8C -113.15137080987097 -226.62569090616677 -113.2907171826421 -227.501595984552 -113.42072679663356 -228.4283068544988 C -113.74741724884635 -230.75712936666272 -114.0150987155274 -233.40547611403414 -114.16899732956968 -236.37215671487354 A 262.5 262.5 0 0 1 -110.517 -238.102C -108.31955107989195 -236.10259183029123 -106.44036892464831 -234.2173681593887 -104.8457668485376 -232.48896277765905 C -104.21123102421551 -231.80116933202322 -103.62191560603225 -231.13834623659199 -103.07556723053641 -230.50310205002575 A 1.875 1.875 0 0 0 -100.864 -230.115A 251.25 251.25 0 0 1 -100.249 -230.384A 1.875 1.875 0 0 0 -99.0302 -232.27C -99.12490312806293 -233.10231675104066 -99.21059165878502 -233.98508772567013 -99.28386347451956 -234.91800078551367 C -99.46797199988599 -237.26240795911133 -99.57370183164389 -239.92214762016718 -99.54645355427758 -242.8926923685562 A 262.5 262.5 0 0 1 -95.7959 -244.396C -93.72432121296464 -242.26702340248343 -91.9635651225045 -240.27074390005276 -90.47729951699642 -238.44834013178067 C -89.8858745709362 -237.7231421799183 -89.33806362782806 -237.025624948191 -88.8314584874519 -236.3582547692666 A 1.875 1.875 0 0 0 -86.6472 -235.836A 251.25 251.25 0 0 1 -86.0177 -236.067A 1.875 1.875 0 0 0 -84.686 -237.875C -84.72968429607381 -238.71178666739104 -84.76139621778458 -239.59813957225848 -84.77765765929512 -240.53378432414232 C -84.81849936200855 -242.8850548105067 -84.76188423692479 -245.54629297901565 -84.55359043353137 -248.50965125338422 A 262.5 262.5 0 0 1 -80.7184 -249.782C -78.78043071529179 -247.53020573546885 -77.14465081791847 -245.43029669237518 -75.77225068868377 -243.52067399927446 C -75.22613676052967 -242.76076932519763 -74.72186818518539 -242.03115276708934 -74.25689088432499 -241.3341392567054 A 1.875 1.875 0 0 0 -72.1085 -240.68A 251.25 251.25 0 0 1 -71.4661 -240.872A 1.875 1.875 0 0 0 -70.0266 -242.595C -70.01926547343966 -243.4332330586979 -69.99688281570745 -244.3198706027814 -69.95607338936354 -245.2547663867751 C -69.85349633560737 -247.60415330526496 -69.63474686566578 -250.2569900004495 -69.24618240287467 -253.202137913383 A 262.5 262.5 0 0 1 -65.3406 -254.238C -63.54347184104263 -251.87255944528187 -62.03875334541275 -249.67683266108793 -60.78532411107171 -247.6870949650014 C -60.286552780505346 -246.89531046400833 -59.82770248514565 -246.1363088010366 -59.40608276990005 -245.41224489523177 A 1.875 1.875 0 0 0 -57.3015 -244.628A 251.25 251.25 0 0 1 -56.6487 -244.78A 1.875 1.875 0 0 0 -55.1068 -246.413C -55.048370384363864 -247.24909183428002 -54.97197641214556 -248.13271566768105 -54.87424793169356 -249.06338461006405 C -54.62863371484506 -251.4021480870344 -54.2485636624413 -254.0367145821495 -53.68117402557507 -256.9526959899739 A 262.5 262.5 0 0 1 -49.7197 -257.749C -48.07012707799585 -255.2779306909153 -46.70206763574337 -252.99455441347413 -45.57227213537324 -250.93210366931757 C -45.12269886450374 -250.1113848317566 -44.71097380236475 -249.32582159995906 -44.33428012576674 -248.57740086401955 A 1.875 1.875 0 0 0 -42.2814 -247.667A 251.25 251.25 0 0 1 -41.6205 -247.779A 1.875 1.875 0 0 0 -39.982 -249.314C -39.872691741869794 -250.14516774886573 -39.74257064575961 -251.02249073288738 -39.58828666756564 -251.94547068406743 C -39.200548988643476 -254.2649103657735 -38.660572239335586 -256.8714059004185 -37.91646815510964 -259.7473731607744 A 262.5 262.5 0 0 1 -33.9138 -260.3C -32.417958284963 -257.73365126766976 -31.191647167067533 -255.3711198067061 -30.189688314134894 -253.24362846670996 C -29.790985545057946 -252.39702842056175 -29.427917360413012 -251.58782596675667 -29.097551047680852 -250.81783257497665 A 1.875 1.875 0 0 0 -27.104 -249.784A 251.25 251.25 0 0 1 -26.4375 -249.855A 1.875 1.875 0 0 0 -24.7084 -251.288C -24.548684067249106 -252.11068720983795 -24.365319906270972 -252.97844564535694 -24.155054376867305 -253.89030305929418 C -23.62663564550375 -256.1817904777787 -22.928760948264944 -258.7505187173694 -22.010710532745534 -261.5757730431542 A 262.5 262.5 0 0 1 -17.9818 -261.884C -16.645192557891697 -259.23058573370764 -15.565191722256191 -256.7976878614278 -14.694796869502825 -254.61307033311095 C -14.348447802706286 -253.7437384861521 -14.035387133048674 -252.9139070966162 -13.752577168564265 -252.12520547498642 A 1.875 1.875 0 0 0 -11.8258 -250.972A 251.25 251.25 0 0 1 -11.1562 -251.002A 1.875 1.875 0 0 0 -9.34291 -252.327C -9.133353675535473 -253.13833835570608 -8.897428576411617 -253.9933041243477 -8.631963697377921 -254.8906468315713 C -7.964829665960316 -257.1456575031321 -7.111653160500879 -259.66706260990276 -6.0230716215314715 -262.43109386946117 A 262.5 262.5 0 0 1 -1.98287 -262.493C -0.8105056212452646 -259.7631653944962 0.1191672580870331 -257.2689516507782 0.8547601846411665 -255.03533485483223 C 1.1474671078805363 -254.14650517863132 1.4093556562978038 -253.29913188063716 1.643557200891569 -252.49465605099215 A 1.875 1.875 0 0 0 3.4964 -251.226A 251.25 251.25 0 0 1 4.16665 -251.215A 1.875 1.875 0 0 0 6.05733 -252.427C 6.315953391731763 -253.22429825671117 6.60356177213699 -254.06329082966178 6.923238454014916 -254.94278065636314 C 7.726606003072197 -257.1529257931925 8.731910444115144 -259.61762797453946 9.986973511711312 -262.3101537900437 A 262.5 262.5 0 0 1 14.0234 -262.125C 15.027196449546384 -259.32940901871723 15.803082928403247 -256.7831580425085 16.40113747475747 -254.5088511801186 C 16.63911336546016 -253.60383017944955 16.848855550036077 -252.74206725732137 17.0335774296109 -251.92480992258555 A 1.875 1.875 0 0 0 18.8056 -250.545A 251.25 251.25 0 0 1 19.474 -250.494A 1.875 1.875 0 0 0 21.435 -251.589C 21.741764697548817 -252.36824713637563 22.07998643717013 -253.18814540615858 22.45268570363927 -254.04651059241738 C 23.389298190288386 -256.2035683094434 24.542990768365556 -258.6023987113699 25.959866447544222 -261.21340270994074 A 262.5 262.5 0 0 1 29.9775 -260.783C 30.8089963625565 -257.93093020857816 31.42821009227619 -255.3421142207482 31.886501456237703 -253.0355778628195 C 32.068861028460006 -252.11773227524685 32.22567659449203 -251.2447855436557 32.36023163152332 -250.41778695479195 A 1.875 1.875 0 0 0 34.0449 -248.933A 251.25 251.25 0 0 1 34.7089 -248.841A 1.875 1.875 0 0 0 36.733 -249.814C 37.08669521068705 -250.57336956109273 37.474272102438576 -251.3711234522934 37.89860748774869 -252.2051708232391 C 38.964980652022405 -254.3011167240785 40.262769554968564 -256.62515153993365 41.83618697514249 -259.1449206152051 A 262.5 262.5 0 0 1 45.8201 -258.47C 46.47618478555625 -255.57293139710484 46.936422250394116 -252.95118096316253 47.25324555798832 -250.6209955764403 C 47.379310422144144 -249.69373984783405 47.48261600542697 -248.81285672595683 47.56650364633936 -247.97919337203314 A 1.875 1.875 0 0 0 49.1575 -246.394A 251.25 251.25 0 0 1 49.8147 -246.262A 1.875 1.875 0 0 0 51.8943 -247.11C 52.2936607817795 -247.84634259333046 52.7291510141678 -248.6189844090769 53.20354396281511 -249.42561125370918 C 54.39571082650269 -251.45264828194865 55.83276819435985 -253.69324194957443 57.55687413938358 -256.11240239508743 A 262.5 262.5 0 0 1 61.4923 -255.196C 61.97047874858804 -252.26418449474994 62.270027834946404 -249.61925269850656 62.44420448266002 -247.2740867256765 C 62.51350566917475 -246.3408703082495 62.562916966153416 -245.45532773915613 62.59582514341297 -244.61810090260428 A 1.875 1.875 0 0 0 64.0872 -242.939A 251.25 251.25 0 0 1 64.7351 -242.767A 1.875 1.875 0 0 0 66.8626 -243.486C 67.306090500105 -244.19731095252058 67.78787402086249 -244.94196641451094 68.3105597599198 -245.71817202798832 C 69.62408538398657 -247.66875947274661 71.19506526896005 -249.81757683653674 73.06344595147847 -252.12712921654307 A 262.5 262.5 0 0 1 76.9357 -250.973C 77.23423846044089 -248.01699825730933 77.37198482604404 -245.35872441876666 77.40286686530762 -243.0073020312787 C 77.4151465692157 -242.07159655139753 77.41047976662011 -241.1846888116077 77.392286059646 -240.34701303124893 A 1.875 1.875 0 0 0 78.7785 -238.58A 251.25 251.25 0 0 1 79.4148 -238.369A 1.875 1.875 0 0 0 81.5821 -238.957C 82.06813714109201 -239.63984927603605 82.59442168387784 -240.35374821704258 83.16345578806573 -241.09664506350165 C 84.59345377091752 -242.96352661136922 86.29251202465294 -245.01257392959562 88.29821694581142 -247.20392655754975 A 262.5 262.5 0 0 1 92.0929 -245.816C 92.21068173245995 -242.84717249654236 92.18611295178063 -240.18544556897575 92.07358549937976 -237.83651421255328 C 92.02879803937611 -236.90180055606046 91.97007049801844 -236.0168270006185 91.90084258859558 -235.1818184853744 A 1.875 1.875 0 0 0 93.1768 -233.334A 251.25 251.25 0 0 1 93.799 -233.084A 1.875 1.875 0 0 0 95.9982 -233.539C 96.52488492166127 -234.19091162064854 97.09371267340977 -234.87139828972167 97.70697829848639 -235.57822274409995 C 99.24812895370441 -237.35445347310156 101.06894496790335 -239.29610815515858 103.2045127736601 -241.361109055356 A 262.5 262.5 0 0 1 106.907 -239.744C 106.84409521201687 -236.7739393038345 106.65730268253289 -234.1186610862373 106.40178434798135 -231.78095893980446 C 106.30009633635883 -230.85071430289437 106.18752652655017 -229.9709670915517 106.0675219470485 -229.14173212794262 A 1.875 1.875 0 0 0 107.228 -227.219A 251.25 251.25 0 0 1 107.834 -226.932A 1.875 1.875 0 0 0 110.057 -227.252C 110.622553790547 -227.87076839232338 111.23180867466097 -228.51531133435972 111.88702443222162 -229.18343396326247 C 113.53359457814535 -230.86240617842307 115.46939479764343 -232.68944514136516 117.72688103549646 -234.62041237482748 A 262.5 262.5 0 0 1 121.324 -232.78C 121.08004163984224 -229.81989150555378 120.73172024203184 -227.18093980729466 120.33416157031665 -224.863163276377 C 120.17595129315741 -223.9408482301976 120.00995798198385 -223.06960008036242 119.83962315732104 -222.24922347691725 A 1.875 1.875 0 0 0 120.881 -220.26A 251.25 251.25 0 0 1 121.468 -219.936A 1.875 1.875 0 0 0 123.707 -220.12C 124.30869949361909 -220.70293093897837 124.95611504191362 -221.30913241189975 125.65084348630543 -221.9360677552651 C 127.39670777384501 -223.511535569669 129.4402908946819 -225.2171621085537 131.81129756755422 -227.00691235034606 A 262.5 262.5 0 0 1 135.29 -224.951C 134.8655623602045 -222.01089861625312 134.35700787254544 -219.39809051097652 133.8188878080371 -217.1088618765011 C 133.60474381796342 -216.197907493602 133.38594451144502 -215.3383995056155 133.16591309835647 -214.52993311718157 A 1.875 1.875 0 0 0 134.084 -212.481A 251.25 251.25 0 0 1 134.651 -212.122A 1.875 1.875 0 0 0 136.896 -212.169C 137.5324086699531 -212.71406408672502 138.21557645406617 -213.2796689812367 138.94723314984614 -213.86308479841006 C 140.78589684918313 -215.32918736831064 142.92966060792637 -216.9070564403874 145.40536741526665 -218.54893170205915 A 262.5 262.5 0 0 1 148.752 -216.285C 148.14937433058807 -213.376010602377 147.48247860917633 -210.79906590784438 146.8057989938587 -208.54690125068845 C 146.5365179205787 -207.65069634120576 146.26572656650643 -206.80612594123588 145.99681709630056 -206.01257731587842 A 1.875 1.875 0 0 0 146.788 -203.911A 251.25 251.25 0 0 1 147.332 -203.519A 1.875 1.875 0 0 0 149.576 -203.429C 150.24448825287732 -203.933886944964 150.96086684378142 -204.45679117370943 151.72672997998586 -204.99451711953205 C 153.6513531413949 -206.3458004470753 155.8873225960591 -207.7900422757612 158.45851974593913 -209.27793467350025 A 262.5 262.5 0 0 1 161.661 -206.814C 160.88206089797973 -203.9473498144783 160.05930483870083 -201.41585493420752 159.24658296518726 -199.2091324548184 C 158.92316655198002 -198.33101095987828 158.60139051197672 -197.50452000528446 158.28460334554467 -196.72884119601025 A 1.875 1.875 0 0 0 158.947 -194.583A 251.25 251.25 0 0 1 159.465 -194.158A 1.875 1.875 0 0 0 161.7 -193.932C 162.39764847141078 -194.39506234934683 163.14457289369577 -194.8733206742506 163.94179340915596 -195.36335637288602 C 165.945216308067 -196.594793595341 168.26507350542184 -197.90003550617521 170.92219597556726 -199.22840998253687 A 262.5 262.5 0 0 1 173.969 -196.574C 173.01625563206275 -193.75999148996456 172.04069994149594 -191.28336375117942 171.0949591885358 -189.1302926021184 C 170.7186105657004 -188.27352119135728 170.34704686776922 -187.46818428277473 169.98356047417678 -186.713260865701 A 1.875 1.875 0 0 0 170.514 -184.531A 251.25 251.25 0 0 1 171.005 -184.075A 1.875 1.875 0 0 0 173.222 -183.713C 173.94667877131855 -184.13307535388117 174.72137041707543 -184.5649086225625 175.54698259911225 -185.00543110902618 C 177.62175237075604 -186.11244119904424 180.01686728965865 -187.27382760638991 182.75003040996017 -188.4377425210742 A 262.5 262.5 0 0 1 185.629 -185.602C 184.5068185314501 -182.85183327091082 183.3820923408391 -180.439285891465 182.3068509261497 -178.34787563882077 C 181.87897013528186 -177.51564155815956 181.45900102078343 -176.73445460178294 181.05016759328865 -176.0030949416047 A 1.875 1.875 0 0 0 181.446 -173.793A 251.25 251.25 0 0 1 181.909 -173.308A 1.875 1.875 0 0 0 184.099 -172.811C 184.84861600134218 -173.18610122419958 185.64819296676686 -173.56990298853606 186.4991254838367 -173.95927349024478 C 188.63752384839145 -174.93773829758234 191.0989865040319 -175.95094876772407 193.89802272816726 -176.94607428080218 A 262.5 262.5 0 0 1 196.599 -173.941C 195.31100394745343 -171.26345422234203 194.0412913120995 -168.92396203694372 192.84054920436566 -166.90199286422038 C 192.36272799011064 -166.09739207910047 191.89591577173462 -165.343261141716 191.44325619754 -164.63818594440502 A 1.875 1.875 0 0 0 191.704 -162.408A 251.25 251.25 0 0 1 192.136 -161.896A 1.875 1.875 0 0 0 194.292 -161.266C 195.0629042389445 -161.59486342306403 195.88439204520915 -161.9292059152842 196.75747937245916 -162.26597594839762 C 198.95155134755825 -163.11225551970568 201.47020493718813 -163.97352084314664 204.32470166656222 -164.79615502234984 A 262.5 262.5 0 0 1 206.837 -161.632C 205.38861960070406 -159.03796387544614 203.97864393500575 -156.7802299486833 202.6568679737332 -154.83522371400676 C 202.13088386239144 -154.06124939219515 201.61896511225046 -153.33697989042136 201.1241633147028 -152.66081208202112 A 1.875 1.875 0 0 0 201.248 -150.419A 251.25 251.25 0 0 1 201.649 -149.881A 1.875 1.875 0 0 0 203.762 -149.122C 204.5515456610051 -149.4024821164096 205.39188831951498 -149.68612156048272 206.28388251474317 -149.9690383183585 C 208.5254660085321 -150.679984438048 211.0919409753723 -151.38610065121685 213.99127929466798 -152.03318324336774 A 262.5 262.5 0 0 1 216.306 -148.721C 214.70217609907203 -146.22084185728613 213.1571826051132 -144.05326510765485 211.71928988369243 -142.1924573619665 C 211.14709957070488 -141.45198873877513 210.5919786601724 -140.7602750027288 210.05687533445732 -140.11552997189742 A 1.875 1.875 0 0 0 210.044 -137.87A 251.25 251.25 0 0 1 210.411 -137.309A 1.875 1.875 0 0 0 212.474 -136.422C 213.2792418982177 -136.65431376349554 214.13531327908925 -136.88619500206013 215.04289606530298 -137.11420601577697 C 217.32365223995723 -137.6871739175875 219.92840112856447 -138.23551422179344 222.86179530880472 -138.70463803714873 A 262.5 262.5 0 0 1 224.97 -135.258C 223.21702640066684 -132.85976870360128 221.54276255572054 -130.79041265897703 219.99410212951628 -129.0207257293091 C 219.37783420042882 -128.31651739665037 218.7815762157525 -127.6599326468615 218.20816198138732 -127.04900888746063 A 1.875 1.875 0 0 0 218.058 -124.808A 251.25 251.25 0 0 1 218.391 -124.226A 1.875 1.875 0 0 0 220.396 -123.215C 221.21352534734305 -123.39778238789695 222.08214080881245 -123.57704280751554 223.00193591843686 -123.74929986112663 C 225.31338021118611 -124.18215806683084 227.9467131846143 -124.5706826001271 230.90325080678272 -124.86010246728145 A 262.5 262.5 0 0 1 232.798 -121.291C 230.90149470310948 -119.00444848408122 229.10418887864492 -117.04101128486577 227.45052186615902 -115.36902852283005 C 226.7924688781445 -114.70370018195399 226.15729193818967 -114.08468695681644 225.54769993378818 -113.50985714535663 A 1.875 1.875 0 0 0 225.262 -111.282A 251.25 251.25 0 0 1 225.558 -110.681A 1.875 1.875 0 0 0 227.498 -109.55C 228.32487995282492 -109.68220315702284 229.2028081883247 -109.80817589716058 230.13139392313957 -109.9240381831126 C 232.4649276093987 -110.21517643175504 235.11704849602884 -110.44243985735939 238.08573104598491 -110.55107911539785 A 262.5 262.5 0 0 1 239.759 -106.873C 237.72699427959733 -104.70642389996293 235.8133325713289 -102.85620966149632 234.06081072246104 -101.28815095278375 C 233.36342067585593 -100.66417766881735 232.69168768055778 -100.08503873818553 232.0481856284145 -99.54844127932039 A 1.875 1.875 0 0 0 231.627 -97.3426A 251.25 251.25 0 0 1 231.886 -96.7243A 1.875 1.875 0 0 0 233.753 -95.4766C 234.58685100845574 -95.55859892645421 235.47082606728728 -95.63081536024386 236.40474802736946 -95.68985186322321 C 238.75169020855853 -95.83818710139691 241.4127329445005 -95.9033439844394 244.3825167281747 -95.83079848818663 A 262.5 262.5 0 0 1 245.829 -92.0578C 243.6681338234056 -90.01888454179664 241.64523517857785 -88.28877618256844 239.80037798971182 -86.83047480856585 C 239.06624522129417 -86.25017780310814 238.36045506151478 -85.713067601842 237.68543683152905 -85.21669867336232 A 1.875 1.875 0 0 0 237.13 -83.0406A 251.25 251.25 0 0 1 237.351 -82.4077A 1.875 1.875 0 0 0 239.139 -81.0485C 239.976143570621 -81.07951043156991 240.8628770075058 -81.09770190913461 241.79866094182353 -81.09969300947266 C 244.15028083888092 -81.10467342034892 246.81034617037912 -81.0074813729451 249.77018339704017 -80.75402099641194 A 262.5 262.5 0 0 1 250.984 -76.8999C 248.70281190521618 -74.99646902067518 246.5782016396522 -73.39290265741562 244.64787210070114 -72.04978359501585 C 243.8797276325875 -71.51532161104119 243.14250589407771 -71.02223822436692 242.4384825984004 -70.56794435128826 A 1.875 1.875 0 0 0 241.752 -68.4298A 251.25 251.25 0 0 1 241.934 -67.7845A 1.875 1.875 0 0 0 243.635 -66.3189C 244.47270911701938 -66.2988008325609 245.3589022253314 -66.26289968040928 246.29306695618658 -66.207837971082 C 248.64061638864027 -66.06944502720525 251.2898086979479 -65.81026561015507 254.2286885787099 -65.37683324258957 A 262.5 262.5 0 0 1 255.205 -61.4559C 252.81229919188573 -59.69506170901304 250.59388099531836 -58.22400271391598 248.58526005895163 -57.001062454247524 C 247.7859614390153 -56.514423725439855 247.0200506350632 -56.06720145594171 246.28964128659464 -55.65667264131007 A 1.875 1.875 0 0 0 245.474 -53.5643A 251.25 251.25 0 0 1 245.616 -52.9092A 1.875 1.875 0 0 0 247.225 -51.3426C 248.059820128483 -51.27145533993546 248.942176211654 -51.181595112711506 249.87124658489165 -51.069685426894054 C 252.20599251466544 -50.7884339591052 254.83445663239237 -50.36823133686304 257.74144634107256 -49.75643937514049 A 262.5 262.5 0 0 1 258.477 -45.7832C 255.981308120796 -44.17158484700902 253.67733465462257 -42.838505656155725 251.59789452265017 -41.7402936173075 C 250.77041519425535 -41.303288471700526 249.97866456335692 -40.9035910155947 249.22458633284683 -40.53835445356411 A 1.875 1.875 0 0 0 248.283 -38.4996A 251.25 251.25 0 0 1 248.385 -37.8371A 1.875 1.875 0 0 0 249.895 -36.1753C 250.72413231644708 -36.05337666592538 251.59936895189426 -35.90989164957642 252.51988876470443 -35.741550298650296 C 254.83314578359293 -35.31848658088216 257.43110365058317 -34.73882393480175 260.2953889945336 -33.95094828520237 A 262.5 262.5 0 0 1 260.787 -29.9403C 258.1980497705903 -28.48378678817507 255.81709196743046 -27.293646543712423 253.67456829372134 -26.32424814659975 C 252.8219865343187 -25.938502272037734 252.00734144082315 -25.587816530113145 251.23239954881706 -25.26923092468318 A 1.875 1.875 0 0 0 250.168 -23.2917A 251.25 251.25 0 0 1 250.229 -22.6242A 1.875 1.875 0 0 0 251.636 -20.8734C 252.4557342645797 -20.701177062724398 253.3205955145335 -20.504601030935373 254.2291403727526 -20.280454255782715 C 256.5123030127103 -19.71715211285231 259.07009005506416 -18.980185826049446 261.8810157046785 -18.019157437737586 A 262.5 262.5 0 0 1 262.127 -13.986C 259.4542777167352 -12.690027171667712 257.00519289599856 -11.647253273473785 254.80755600934035 -10.810274743804218 C 253.9330434790726 -10.47722314027639 253.09853445623384 -10.176853686526114 252.30561173746838 -9.906104197073741 A 1.875 1.875 0 0 0 251.123 -7.99716A 251.25 251.25 0 0 1 251.143 -7.32715A 1.875 1.875 0 0 0 252.44 -5.49388" stroke="#191919" stroke-width="0.35 px" style="stroke-width:0.35;stroke-miterlimit:4;stroke-dasharray:none;fill:none;fill-rule: evenodd "/>
<title>b'InvoluteGear'</title>
</g>
</svg>