<?xml version="1.0"?>
<!DOCTYPE svg PUBLIC "-//W3C//DTD SVG 1.1//EN" "http://www.w3.org/Graphics/SVG/1.1/DTD/svg11.dtd">
<svg width="356.97853891267937mm" height="356.97853891267937mm" viewBox="0 0 356.97853891267937 356.97853891267937" xmlns="http://www.w3.org/2000/svg" version="1.1">
<g id="InvoluteGear" transform="translate(178.489269,178.489269) scale(1,-1)">
<path id="InvoluteGear_w0000"  d="M 164.91305478060633 -5.355778461506276 C 165.69123996013795 -5.181328583793366 166.55145404535924 -4.9648279522242165 167.49015530847132 -4.696464545313765 C 169.61057983175837 -4.090173602061177 172.1270806530557 -3.2209426181054996 174.98947985915652 -1.9792715726863257 A 175 175 0 0 1 174.989 1.97927C 172.1270806530557 3.2209426181054996 169.61057983175837 4.090173602061177 167.49015530847132 4.696464545313765 C 166.55145404535924 4.9648279522242165 165.69123996013795 5.181328583793366 164.91308167085813 5.355769951531319 A 1.875 1.875 0 0 0 163.593 7.16754A 163.75 163.75 0 0 1 163.557 7.9575A 1.875 1.875 0 0 0 164.704 9.88333C 165.4625030292778 10.128832939064829 166.29907143476535 10.423780559538287 167.20900691248173 10.777611601039474 C 169.26444460788142 11.57696430614368 171.69000796343744 12.674680706332065 174.42562972879784 14.175163880847903 A 175 175 0 0 1 174.06 18.1168C 171.09562578084137 19.08908599579777 168.5096573915168 19.72241559124784 166.34233675473442 20.130472112093145 C 165.38287837442678 20.31107830244737 164.50635765274393 20.44728483805964 163.71542343071704 20.54918268092135 A 1.875 1.875 0 0 0 162.234 22.2314A 163.75 163.75 0 0 1 162.125 23.0146A 1.875 1.875 0 0 0 163.089 25.0381C 163.82209836300723 25.352578830612835 164.62788378209112 25.723457050888317 165.50129022575018 26.159736965291465 C 167.47420482357222 27.145331636811168 169.78813666206688 28.462168123949755 172.37364162633793 30.208661834172748 A 175 175 0 0 1 171.646 34.0998C 168.6044433560834 34.79436802239604 165.9710699692426 35.18639288453786 163.77534403446217 35.3927335886167 C 162.80331429756424 35.48404169407855 161.91796510516474 35.538792067597164 161.12100292229752 35.56727702911551 A 1.875 1.875 0 0 0 159.491 37.1056A 163.75 163.75 0 0 1 159.309 37.8754A 1.875 1.875 0 0 0 160.083 39.9793C 160.78402131554842 40.36002545864556 161.552149071145 40.80367007651566 162.38157488492385 41.31867667741905 C 164.25513417344973 42.48210456912772 166.43769284430635 44.006826358611725 168.8510223907563 45.98443013600259 A 175 175 0 0 1 167.768 49.7919C 164.67478726886367 50.202796769175855 162.01647589774183 50.35017228010968 159.8110778244477 50.35303674128855 C 158.83476974594672 50.354267753296554 157.94814556997474 50.32709485383909 157.1519548266105 50.281923910365904 A 1.875 1.875 0 0 0 155.387 51.6633A 163.75 163.75 0 0 1 155.135 52.4131A 1.875 1.875 0 0 0 155.712 54.5794C 156.37419168907456 55.02313458000929 157.09810838600728 55.53576057601902 157.87647720131008 56.125100008689955 C 159.63469663328848 57.456435164028676 161.66726131547588 59.17603386715196 163.88782576733038 61.36787549356546 A 175 175 0 0 1 162.458 65.0591C 159.3401839593606 65.18291295492864 156.6796143792819 65.08438175875834 154.483359846234 64.88374553846444 C 153.51110294241923 64.79488895445817 152.63076814772927 64.68602461162192 151.84214166256143 64.56758314572009 A 1.875 1.875 0 0 0 149.957 65.7802A 163.75 163.75 0 0 1 149.637 66.5036A 1.875 1.875 0 0 0 150.011 68.7138C 150.63023259509654 69.2168057177472 151.30376203135302 69.79403954764545 152.0244330798927 70.45268377583962 C 153.6523121470607 71.94056771267859 155.51754171537254 73.84037231961953 157.5263959996774 76.22775177512068 A 175 175 0 0 1 155.762 79.7713C 152.6461463820827 79.60691151019775 150.00601763461404 79.26331424034794 147.83764431111078 78.86088909607047 C 146.87773353507737 78.68270300909474 146.01119882774046 78.49307601506828 145.2368648838786 78.3023745275636 A 1.875 1.875 0 0 0 143.248 79.3358A 163.75 163.75 0 0 1 142.863 80.0267A 1.875 1.875 0 0 0 143.031 82.262C 143.60114946734132 82.81994347425959 144.21854532725112 83.45686038253659 144.87537009774306 84.17919008593043 C 146.3590203098736 85.81092870313364 148.04100128329446 87.87473075083807 149.821006563598 90.43727975567882 A 175 175 0 0 1 147.737 93.8029C 144.64978570538818 93.35173196506827 142.05262243811976 92.7660000722963 139.93063012081038 92.16521935347512 C 138.99125509284445 91.89922398439738 138.14591344145208 91.63045216983315 137.39247838308276 91.36911765857755 A 1.875 1.875 0 0 0 135.316 92.2146A 163.75 163.75 0 0 1 134.869 92.867A 1.875 1.875 0 0 0 134.831 95.1083C 135.34691196466986 95.71649067453922 135.90290684444403 96.4076567107041 136.4902815395362 97.18750922695456 C 137.8170449161397 98.94918110597486 139.30142722605413 101.15937296304787 140.83739712491703 103.87522875264827 A 175 175 0 0 1 138.452 107.034C 135.41932405913323 106.30010835770648 132.88728435332735 105.47723909999824 130.82977713246973 104.68322845589704 C 129.9189522690956 104.33169318341889 129.10201583055834 103.98606961467249 128.37590769994588 103.65633169357206 A 1.875 1.875 0 0 0 126.231 104.307A 163.75 163.75 0 0 1 125.725 104.915A 1.875 1.875 0 0 0 125.48 107.143C 125.93794233109291 107.79641852506771 126.4277926784554 108.53593690419821 126.94070602435181 109.36665880660487 C 128.09926308810267 111.24323398411848 129.37338250802097 113.58095907292721 130.65221267183384 116.42695092327415 A 175 175 0 0 1 127.985 119.352C 125.03351248751454 118.34156970619927 122.58819881316916 117.28858351392599 120.61273061491502 116.30811716339994 C 119.73822675271919 115.87404116251837 118.95666534068697 115.45451457801488 118.26407903638321 115.05918645475013 A 1.875 1.875 0 0 0 116.068 115.509A 163.75 163.75 0 0 1 115.509 116.068A 1.875 1.875 0 0 0 115.059 118.264C 115.4545145780149 118.95666534068697 115.87404116251838 119.73822675271919 116.30811716339997 120.61273061491502 C 117.288583513926 122.58819881316916 118.34156970619928 125.03351248751454 119.35234960690727 127.98535939960934 A 175 175 0 0 1 116.427 130.652C 113.58095907292723 129.37338250802097 111.24323398411849 128.09926308810267 109.3666588066049 126.94070602435181 C 108.53593690419822 126.4277926784554 107.79641852506772 125.93794233109291 107.14326294922193 125.48039680582278 A 1.875 1.875 0 0 0 104.915 125.725A 163.75 163.75 0 0 1 104.307 126.231A 1.875 1.875 0 0 0 103.656 128.376C 103.98606961467249 129.10201583055834 104.33169318341889 129.9189522690956 104.68322845589704 130.82977713246973 C 105.47723909999824 132.88728435332735 106.30010835770648 135.41932405913323 107.03421437758774 138.45184191591377 A 175 175 0 0 1 103.875 140.837C 101.15937296304787 139.30142722605413 98.94918110597486 137.8170449161397 97.18750922695456 136.4902815395362 C 96.4076567107041 135.90290684444403 95.71649067453922 135.34691196466986 95.10833832022836 134.83105265448992 A 1.875 1.875 0 0 0 92.867 134.869A 163.75 163.75 0 0 1 92.2146 135.316A 1.875 1.875 0 0 0 91.3691 137.392C 91.63045216983318 138.14591344145205 91.8992239843974 138.99125509284443 92.16521935347514 139.93063012081035 C 92.76600007229631 142.05262243811973 93.3517319650683 144.64978570538815 93.80290097039969 147.73710213373613 A 175 175 0 0 1 90.4373 149.821C 87.8747307508381 148.04100128329443 85.81092870313365 146.35902030987359 84.17919008593044 144.87537009774303 C 83.4568603825366 144.21854532725115 82.81994347425962 143.6011494673413 82.26198288294218 143.03137750199912 A 1.875 1.875 0 0 0 80.0267 142.863A 163.75 163.75 0 0 1 79.3358 143.248A 1.875 1.875 0 0 0 78.3024 145.237C 78.49307601506828 146.01119882774046 78.68270300909475 146.87773353507737 78.86088909607047 147.83764431111078 C 79.26331424034794 150.00601763461404 79.60691151019776 152.6461463820827 79.7712942861035 155.76192148678848 A 175 175 0 0 1 76.2278 157.526C 73.84037231961955 155.51754171537254 71.94056771267859 153.6523121470607 70.45268377583962 152.0244330798927 C 69.79403954764547 151.30376203135302 69.2168057177472 150.63023259509654 68.71379721245695 150.01140906810454 A 1.875 1.875 0 0 0 66.5036 149.637A 163.75 163.75 0 0 1 65.7802 149.957A 1.875 1.875 0 0 0 64.5676 151.842C 64.68602461162193 152.63076814772927 64.7948889544582 153.51110294241923 64.88374553846445 154.483359846234 C 65.08438175875835 156.6796143792819 65.18291295492865 159.3401839593606 65.05910704552444 162.45783504582224 A 175 175 0 0 1 61.3679 163.888C 59.17603386715198 161.66726131547588 57.4564351640287 159.63469663328848 56.12510000868997 157.87647720131008 C 55.535760576019044 157.09810838600728 55.023134580009305 156.37419168907456 54.57936965195758 155.71159618457395 A 1.875 1.875 0 0 0 52.4131 155.135A 163.75 163.75 0 0 1 51.6633 155.387A 1.875 1.875 0 0 0 50.2819 157.152C 50.327094853839085 157.94814556997474 50.35426775329655 158.83476974594672 50.35303674128854 159.8110778244477 C 50.350172280109675 162.01647589774183 50.20279676917584 164.67478726886367 49.79185844282798 167.76771563726427 A 175 175 0 0 1 45.9844 168.851C 44.00682635861171 166.43769284430635 42.48210456912771 164.25513417344973 41.31867667741904 162.38157488492385 C 40.80367007651565 161.552149071145 40.36002545864555 160.78402131554842 39.979290153731355 160.08330686475904 A 1.875 1.875 0 0 0 37.8754 159.309A 163.75 163.75 0 0 1 37.1056 159.491A 1.875 1.875 0 0 0 35.5673 161.121C 35.538792067597164 161.91796510516474 35.48404169407854 162.80331429756424 35.39273358861669 163.77534403446217 C 35.18639288453785 165.9710699692426 34.79436802239604 168.6044433560834 34.099803260012166 171.64626123211963 A 175 175 0 0 1 30.2087 172.374C 28.462168123949752 169.78813666206688 27.14533163681116 167.47420482357222 26.15973696529146 165.50129022575018 C 25.72345705088831 164.62788378209112 25.352578830612828 163.82209836300723 25.03812144821422 163.08924321455822 A 1.875 1.875 0 0 0 23.0146 162.125A 163.75 163.75 0 0 1 22.2314 162.234A 1.875 1.875 0 0 0 20.5492 163.715C 20.44728483805964 164.50635765274393 20.311078302447374 165.38287837442678 20.130472112093145 166.34233675473442 C 19.72241559124784 168.5096573915168 19.08908599579777 171.09562578084137 18.116820579033895 174.06038144690962 A 175 175 0 0 1 14.1752 174.426C 12.674680706332069 171.69000796343744 11.576964306143683 169.26444460788142 10.777611601039476 167.20900691248173 C 10.423780559538287 166.29907143476535 10.128832939064832 165.4625030292778 9.883336318693884 164.70375964489833 A 1.875 1.875 0 0 0 7.9575 163.557A 163.75 163.75 0 0 1 7.16754 163.593A 1.875 1.875 0 0 0 5.35578 164.913C 5.181328583793376 165.69123996013795 4.964827952224226 166.55145404535924 4.696464545313775 167.49015530847132 C 4.090173602061188 169.61057983175837 3.2209426181055103 172.1270806530557 1.9792715726863364 174.98947985915652 A 175 175 0 0 1 -1.97927 174.989C -3.220942618105489 172.1270806530557 -4.090173602061166 169.61057983175837 -4.696464545313754 167.49015530847132 C -4.964827952224207 166.55145404535924 -5.1813285837933565 165.69123996013795 -5.355769951531309 164.91308167085813 A 1.875 1.875 0 0 0 -7.16754 163.593A 163.75 163.75 0 0 1 -7.9575 163.557A 1.875 1.875 0 0 0 -9.88333 164.704C -10.128832939064814 165.46250302927783 -10.423780559538269 166.29907143476538 -10.777611601039458 167.20900691248175 C -11.576964306143662 169.26444460788142 -12.674680706332051 171.69000796343744 -14.175163880847885 174.42562972879787 A 175 175 0 0 1 -18.1168 174.06C -19.089085995797753 171.09562578084137 -19.722415591247824 168.5096573915168 -20.13047211209313 166.34233675473445 C -20.311078302447356 165.3828783744268 -20.447284838059623 164.50635765274396 -20.549182680921337 163.71542343071704 A 1.875 1.875 0 0 0 -22.2314 162.234A 163.75 163.75 0 0 1 -23.0146 162.125A 1.875 1.875 0 0 0 -25.0381 163.089C -25.35257883061285 163.82209836300723 -25.723457050888328 164.62788378209112 -26.15973696529148 165.5012902257502 C -27.145331636811182 167.47420482357222 -28.46216812394977 169.78813666206688 -30.208661834172762 172.37364162633793 A 175 175 0 0 1 -34.0998 171.646C -34.79436802239606 168.6044433560834 -35.186392884537874 165.9710699692426 -35.392733588616714 163.77534403446214 C -35.48404169407856 162.80331429756424 -35.53879206759718 161.91796510516474 -35.567277029115516 161.12100292229752 A 1.875 1.875 0 0 0 -37.1056 159.491A 163.75 163.75 0 0 1 -37.8754 159.309A 1.875 1.875 0 0 0 -39.9793 160.083C -40.360025458645566 160.78402131554842 -40.803670076515665 161.552149071145 -41.318676677419056 162.38157488492385 C -42.482104569127735 164.25513417344973 -44.00682635861173 166.43769284430635 -45.9844301360026 168.8510223907563 A 175 175 0 0 1 -49.7919 167.768C -50.20279676917586 164.67478726886367 -50.350172280109696 162.01647589774183 -50.353036741288555 159.8110778244477 C -50.35426775329656 158.83476974594672 -50.3270948538391 157.94814556997474 -50.28192391036591 157.1519548266105 A 1.875 1.875 0 0 0 -51.6633 155.387A 163.75 163.75 0 0 1 -52.4131 155.135A 1.875 1.875 0 0 0 -54.5794 155.712C -55.02313458000929 156.37419168907456 -55.53576057601902 157.09810838600728 -56.125100008689955 157.87647720131008 C -57.456435164028676 159.63469663328848 -59.17603386715196 161.66726131547588 -61.36787549356546 163.88782576733038 A 175 175 0 0 1 -65.0591 162.458C -65.18291295492864 159.3401839593606 -65.08438175875834 156.6796143792819 -64.88374553846444 154.483359846234 C -64.79488895445817 153.51110294241923 -64.68602461162192 152.63076814772927 -64.56758314572009 151.84214166256143 A 1.875 1.875 0 0 0 -65.7802 149.957A 163.75 163.75 0 0 1 -66.5036 149.637A 1.875 1.875 0 0 0 -68.7138 150.011C -69.2168057177472 150.63023259509654 -69.79403954764545 151.30376203135302 -70.45268377583962 152.0244330798927 C -71.94056771267859 153.6523121470607 -73.84037231961953 155.51754171537254 -76.22775177512068 157.5263959996774 A 175 175 0 0 1 -79.7713 155.762C -79.60691151019775 152.6461463820827 -79.26331424034794 150.00601763461404 -78.86088909607047 147.83764431111078 C -78.68270300909474 146.87773353507737 -78.49307601506828 146.01119882774046 -78.3023745275636 145.2368648838786 A 1.875 1.875 0 0 0 -79.3358 143.248A 163.75 163.75 0 0 1 -80.0267 142.863A 1.875 1.875 0 0 0 -82.262 143.031C -82.81994347425962 143.6011494673413 -83.4568603825366 144.21854532725115 -84.17919008593044 144.87537009774303 C -85.81092870313365 146.35902030987359 -87.8747307508381 148.04100128329443 -90.43727975567884 149.82100656359796 A 175 175 0 0 1 -93.8029 147.737C -93.3517319650683 144.64978570538815 -92.76600007229631 142.05262243811973 -92.16521935347514 139.93063012081035 C -91.8992239843974 138.99125509284443 -91.63045216983318 138.14591344145205 -91.36911765857757 137.39247838308276 A 1.875 1.875 0 0 0 -92.2146 135.316A 163.75 163.75 0 0 1 -92.867 134.869A 1.875 1.875 0 0 0 -95.1083 134.831C -95.7164906745392 135.34691196466989 -96.40765671070409 135.90290684444403 -97.18750922695453 136.49028153953623 C -98.94918110597483 137.81704491613974 -101.15937296304784 139.30142722605413 -103.87522875264824 140.83739712491703 A 175 175 0 0 1 -107.034 138.452C -106.30010835770645 135.41932405913323 -105.47723909999822 132.88728435332737 -104.68322845589701 130.82977713246976 C -104.33169318341888 129.9189522690956 -103.98606961467247 129.10201583055837 -103.65633169357204 128.37590769994588 A 1.875 1.875 0 0 0 -104.307 126.231A 163.75 163.75 0 0 1 -104.915 125.725A 1.875 1.875 0 0 0 -107.143 125.48C -107.79641852506771 125.93794233109291 -108.53593690419821 126.4277926784554 -109.36665880660487 126.94070602435181 C -111.24323398411848 128.09926308810267 -113.58095907292721 129.37338250802097 -116.42695092327415 130.65221267183384 A 175 175 0 0 1 -119.352 127.985C -118.34156970619927 125.03351248751454 -117.28858351392599 122.58819881316916 -116.30811716339994 120.61273061491502 C -115.87404116251837 119.73822675271919 -115.45451457801488 118.95666534068697 -115.05918645475013 118.26407903638321 A 1.875 1.875 0 0 0 -115.509 116.068A 163.75 163.75 0 0 1 -116.068 115.509A 1.875 1.875 0 0 0 -118.264 115.059C -118.95666534068695 115.4545145780149 -119.73822675271916 115.87404116251838 -120.612730614915 116.30811716339997 C -122.58819881316913 117.288583513926 -125.03351248751453 118.34156970619928 -127.98535939960931 119.35234960690727 A 175 175 0 0 1 -130.652 116.427C -129.37338250802094 113.58095907292723 -128.09926308810265 111.24323398411849 -126.94070602435178 109.3666588066049 C -126.42779267845538 108.53593690419822 -125.9379423310929 107.79641852506772 -125.48039680582276 107.14326294922193 A 1.875 1.875 0 0 0 -125.725 104.915A 163.75 163.75 0 0 1 -126.231 104.307A 1.875 1.875 0 0 0 -128.376 103.656C -129.10201583055834 103.98606961467249 -129.9189522690956 104.33169318341889 -130.82977713246973 104.68322845589704 C -132.88728435332735 105.47723909999824 -135.41932405913323 106.30010835770648 -138.45184191591377 107.03421437758774 A 175 175 0 0 1 -140.837 103.875C -139.30142722605413 101.15937296304787 -137.8170449161397 98.94918110597486 -136.4902815395362 97.18750922695456 C -135.90290684444403 96.4076567107041 -135.34691196466986 95.71649067453922 -134.83105265448992 95.10833832022836 A 1.875 1.875 0 0 0 -134.869 92.867A 163.75 163.75 0 0 1 -135.316 92.2146A 1.875 1.875 0 0 0 -137.392 91.3691C -138.14591344145208 91.63045216983315 -138.99125509284445 91.89922398439738 -139.93063012081038 92.16521935347512 C -142.05262243811976 92.7660000722963 -144.64978570538818 93.35173196506827 -147.73710213373616 93.80290097039966 A 175 175 0 0 1 -149.821 90.4373C -148.04100128329446 87.87473075083807 -146.3590203098736 85.81092870313364 -144.87537009774306 84.17919008593043 C -144.21854532725112 83.45686038253659 -143.60114946734132 82.81994347425959 -143.03137750199912 82.26198288294216 A 1.875 1.875 0 0 0 -142.863 80.0267A 163.75 163.75 0 0 1 -143.248 79.3358A 1.875 1.875 0 0 0 -145.237 78.3024C -146.01119882774046 78.4930760150683 -146.87773353507734 78.68270300909475 -147.83764431111078 78.86088909607048 C -150.006017634614 79.26331424034795 -152.6461463820827 79.60691151019776 -155.76192148678845 79.7712942861035 A 175 175 0 0 1 -157.526 76.2278C -155.51754171537254 73.84037231961955 -153.65231214706068 71.9405677126786 -152.0244330798927 70.45268377583963 C -151.303762031353 69.79403954764547 -150.63023259509654 69.21680571774722 -150.0114090681045 68.71379721245697 A 1.875 1.875 0 0 0 -149.637 66.5036A 163.75 163.75 0 0 1 -149.957 65.7802A 1.875 1.875 0 0 0 -151.842 64.5676C -152.63076814772927 64.6860246116219 -153.51110294241923 64.79488895445817 -154.483359846234 64.88374553846442 C -156.6796143792819 65.08438175875833 -159.3401839593606 65.18291295492863 -162.45783504582224 65.05910704552441 A 175 175 0 0 1 -163.888 61.3679C -161.66726131547588 59.17603386715195 -159.63469663328848 57.45643516402867 -157.87647720131008 56.12510000868994 C -157.09810838600728 55.535760576019015 -156.37419168907456 55.02313458000928 -155.71159618457395 54.57936965195755 A 1.875 1.875 0 0 0 -155.135 52.4131A 163.75 163.75 0 0 1 -155.387 51.6633A 1.875 1.875 0 0 0 -157.152 50.2819C -157.94814556997474 50.32709485383913 -158.83476974594672 50.35426775329659 -159.8110778244477 50.353036741288584 C -162.01647589774183 50.350172280109724 -164.67478726886367 50.20279676917589 -167.76771563726427 49.79185844282803 A 175 175 0 0 1 -168.851 45.9844C -166.43769284430635 44.00682635861176 -164.25513417344973 42.48210456912776 -162.38157488492385 41.318676677419084 C -161.552149071145 40.803670076515694 -160.78402131554842 40.360025458645595 -160.08330686475904 39.979290153731405 A 1.875 1.875 0 0 0 -159.309 37.8754A 163.75 163.75 0 0 1 -159.491 37.1056A 1.875 1.875 0 0 0 -161.121 35.5673C -161.91796510516474 35.53879206759717 -162.80331429756424 35.484041694078556 -163.77534403446217 35.39273358861671 C -165.9710699692426 35.18639288453786 -168.6044433560834 34.79436802239605 -171.64626123211963 34.09980326001217 A 175 175 0 0 1 -172.374 30.2087C -169.78813666206688 28.46216812394976 -167.47420482357222 27.14533163681117 -165.50129022575018 26.159736965291472 C -164.62788378209112 25.72345705088832 -163.82209836300723 25.352578830612835 -163.08924321455822 25.03812144821423 A 1.875 1.875 0 0 0 -162.125 23.0146A 163.75 163.75 0 0 1 -162.234 22.2314A 1.875 1.875 0 0 0 -163.715 20.5492C -164.50635765274396 20.447284838059616 -165.3828783744268 20.31107830244735 -166.34233675473445 20.130472112093123 C -168.5096573915168 19.722415591247817 -171.09562578084137 19.089085995797745 -174.06038144690964 18.11682057903387 A 175 175 0 0 1 -174.426 14.1752C -171.69000796343744 12.674680706332044 -169.26444460788142 11.576964306143655 -167.20900691248175 10.777611601039451 C -166.29907143476538 10.423780559538262 -165.46250302927783 10.128832939064807 -164.70375964489833 9.883336318693857 A 1.875 1.875 0 0 0 -163.557 7.9575A 163.75 163.75 0 0 1 -163.593 7.16754A 1.875 1.875 0 0 0 -164.913 5.35578C -165.69123996013795 5.181328583793387 -166.55145404535924 4.964827952224237 -167.49015530847132 4.696464545313785 C -169.61057983175837 4.090173602061197 -172.1270806530557 3.2209426181055205 -174.98947985915652 1.9792715726863472 A 175 175 0 0 1 -174.989 -1.97927C -172.1270806530557 -3.2209426181054788 -169.61057983175837 -4.0901736020611565 -167.49015530847132 -4.696464545313744 C -166.55145404535924 -4.964827952224196 -165.69123996013795 -5.181328583793346 -164.91308167085813 -5.355769951531299 A 1.875 1.875 0 0 0 -163.593 -7.16754A 163.75 163.75 0 0 1 -163.557 -7.9575A 1.875 1.875 0 0 0 -164.704 -9.88333C -165.4625030292778 -10.12883293906484 -166.29907143476535 -10.423780559538294 -167.20900691248173 -10.777611601039483 C -169.26444460788142 -11.57696430614369 -171.69000796343744 -12.674680706332076 -174.42562972879784 -14.17516388084791 A 175 175 0 0 1 -174.06 -18.1168C -171.09562578084137 -19.089085995797777 -168.5096573915168 -19.72241559124785 -166.34233675473442 -20.130472112093152 C -165.38287837442678 -20.31107830244738 -164.50635765274393 -20.447284838059648 -163.71542343071704 -20.549182680921362 A 1.875 1.875 0 0 0 -162.234 -22.2314A 163.75 163.75 0 0 1 -162.125 -23.0146A 1.875 1.875 0 0 0 -163.089 -25.0381C -163.82209836300723 -25.3525788306128 -164.62788378209112 -25.723457050888282 -165.50129022575018 -26.159736965291433 C -167.47420482357222 -27.145331636811132 -169.78813666206688 -28.462168123949724 -172.37364162633793 -30.208661834172712 A 175 175 0 0 1 -171.646 -34.0998C -168.6044433560834 -34.794368022396014 -165.9710699692426 -35.186392884537824 -163.77534403446217 -35.392733588616665 C -162.80331429756424 -35.48404169407851 -161.91796510516474 -35.538792067597136 -161.12100292229752 -35.56727702911547 A 1.875 1.875 0 0 0 -159.491 -37.1056A 163.75 163.75 0 0 1 -159.309 -37.8754A 1.875 1.875 0 0 0 -160.083 -39.9793C -160.78402131554842 -40.36002545864556 -161.552149071145 -40.80367007651566 -162.38157488492385 -41.31867667741905 C -164.25513417344973 -42.48210456912772 -166.43769284430635 -44.006826358611725 -168.8510223907563 -45.98443013600259 A 175 175 0 0 1 -167.768 -49.7919C -164.67478726886367 -50.202796769175855 -162.01647589774183 -50.35017228010968 -159.8110778244477 -50.35303674128855 C -158.83476974594672 -50.354267753296554 -157.94814556997474 -50.32709485383909 -157.1519548266105 -50.281923910365904 A 1.875 1.875 0 0 0 -155.387 -51.6633A 163.75 163.75 0 0 1 -155.135 -52.4131A 1.875 1.875 0 0 0 -155.712 -54.5794C -156.37419168907454 -55.02313458000933 -157.09810838600725 -55.53576057601905 -157.87647720131005 -56.12510000868998 C -159.63469663328848 -57.456435164028704 -161.66726131547586 -59.176033867151986 -163.88782576733036 -61.367875493565485 A 175 175 0 0 1 -162.458 -65.0591C -159.34018395936056 -65.18291295492867 -156.6796143792819 -65.08438175875837 -154.48335984623398 -64.88374553846445 C -153.5111029424192 -64.7948889544582 -152.63076814772924 -64.68602461162195 -151.8421416625614 -64.56758314572012 A 1.875 1.875 0 0 0 -149.957 -65.7802A 163.75 163.75 0 0 1 -149.637 -66.5036A 1.875 1.875 0 0 0 -150.011 -68.7138C -150.63023259509654 -69.21680571774719 -151.30376203135302 -69.79403954764544 -152.0244330798927 -70.4526837758396 C -153.6523121470607 -71.94056771267857 -155.51754171537254 -73.84037231961952 -157.5263959996774 -76.22775177512067 A 175 175 0 0 1 -155.762 -79.7713C -152.6461463820827 -79.60691151019773 -150.00601763461404 -79.26331424034792 -147.83764431111078 -78.86088909607045 C -146.87773353507737 -78.68270300909472 -146.01119882774046 -78.49307601506827 -145.2368648838786 -78.30237452756359 A 1.875 1.875 0 0 0 -143.248 -79.3358A 163.75 163.75 0 0 1 -142.863 -80.0267A 1.875 1.875 0 0 0 -143.031 -82.262C -143.6011494673413 -82.81994347425962 -144.21854532725115 -83.4568603825366 -144.87537009774303 -84.17919008593044 C -146.35902030987359 -85.81092870313365 -148.04100128329443 -87.8747307508381 -149.82100656359796 -90.43727975567884 A 175 175 0 0 1 -147.737 -93.8029C -144.64978570538815 -93.3517319650683 -142.05262243811973 -92.76600007229631 -139.93063012081035 -92.16521935347514 C -138.99125509284443 -91.8992239843974 -138.14591344145205 -91.63045216983318 -137.39247838308276 -91.36911765857757 A 1.875 1.875 0 0 0 -135.316 -92.2146A 163.75 163.75 0 0 1 -134.869 -92.867A 1.875 1.875 0 0 0 -134.831 -95.1083C -135.34691196466989 -95.7164906745392 -135.90290684444403 -96.40765671070409 -136.49028153953623 -97.18750922695453 C -137.81704491613974 -98.94918110597483 -139.30142722605413 -101.15937296304784 -140.83739712491703 -103.87522875264824 A 175 175 0 0 1 -138.452 -107.034C -135.41932405913323 -106.30010835770645 -132.88728435332737 -105.47723909999822 -130.82977713246976 -104.68322845589701 C -129.9189522690956 -104.33169318341888 -129.10201583055837 -103.98606961467247 -128.37590769994588 -103.65633169357204 A 1.875 1.875 0 0 0 -126.231 -104.307A 163.75 163.75 0 0 1 -125.725 -104.915A 1.875 1.875 0 0 0 -125.48 -107.143C -125.93794233109291 -107.79641852506771 -126.4277926784554 -108.53593690419821 -126.94070602435181 -109.36665880660487 C -128.09926308810267 -111.24323398411848 -129.37338250802097 -113.58095907292721 -130.65221267183384 -116.42695092327415 A 175 175 0 0 1 -127.985 -119.352C -125.03351248751454 -118.34156970619927 -122.58819881316916 -117.28858351392599 -120.61273061491502 -116.30811716339994 C -119.73822675271919 -115.87404116251837 -118.95666534068697 -115.45451457801488 -118.26407903638321 -115.05918645475013 A 1.875 1.875 0 0 0 -116.068 -115.509A 163.75 163.75 0 0 1 -115.509 -116.068A 1.875 1.875 0 0 0 -115.059 -118.264C -115.45451457801487 -118.95666534068697 -115.87404116251834 -119.73822675271919 -116.30811716339993 -120.61273061491502 C -117.28858351392597 -122.58819881316916 -118.34156970619924 -125.03351248751454 -119.35234960690724 -127.98535939960934 A 175 175 0 0 1 -116.427 -130.652C -113.58095907292719 -129.37338250802097 -111.24323398411846 -128.09926308810267 -109.36665880660486 -126.94070602435181 C -108.53593690419818 -126.4277926784554 -107.7964185250677 -125.93794233109291 -107.1432629492219 -125.48039680582278 A 1.875 1.875 0 0 0 -104.915 -125.725A 163.75 163.75 0 0 1 -104.307 -126.231A 1.875 1.875 0 0 0 -103.656 -128.376C -103.9860696146725 -129.10201583055834 -104.3316931834189 -129.91895226909557 -104.68322845589705 -130.8297771324697 C -105.47723909999826 -132.88728435332732 -106.30010835770649 -135.4193240591332 -107.03421437758776 -138.45184191591375 A 175 175 0 0 1 -103.875 -140.837C -101.15937296304789 -139.3014272260541 -98.94918110597487 -137.81704491613968 -97.18750922695457 -136.49028153953617 C -96.40765671070412 -135.902906844444 -95.71649067453923 -135.34691196466986 -95.10833832022837 -134.8310526544899 A 1.875 1.875 0 0 0 -92.867 -134.869A 163.75 163.75 0 0 1 -92.2146 -135.316A 1.875 1.875 0 0 0 -91.3691 -137.392C -91.6304521698332 -138.14591344145202 -91.89922398439745 -138.9912550928444 -92.1652193534752 -139.93063012081035 C -92.76600007229636 -142.0526224381197 -93.35173196506835 -144.64978570538815 -93.80290097039975 -147.7371021337361 A 175 175 0 0 1 -90.4373 -149.821C -87.87473075083815 -148.04100128329443 -85.81092870313371 -146.35902030987356 -84.1791900859305 -144.87537009774303 C -83.45686038253666 -144.21854532725112 -82.81994347425967 -143.60114946734126 -82.26198288294223 -143.0313775019991 A 1.875 1.875 0 0 0 -80.0267 -142.863A 163.75 163.75 0 0 1 -79.3358 -143.248A 1.875 1.875 0 0 0 -78.3024 -145.237C -78.49307601506824 -146.0111988277405 -78.6827030090947 -146.87773353507737 -78.86088909607042 -147.8376443111108 C -79.2633142403479 -150.00601763461407 -79.6069115101977 -152.64614638208272 -79.77129428610344 -155.7619214867885 A 175 175 0 0 1 -76.2278 -157.526C -73.84037231961949 -155.51754171537257 -71.94056771267854 -153.65231214706074 -70.45268377583957 -152.02443307989273 C -69.79403954764541 -151.30376203135302 -69.21680571774716 -150.63023259509657 -68.71379721245691 -150.01140906810454 A 1.875 1.875 0 0 0 -66.5036 -149.637A 163.75 163.75 0 0 1 -65.7802 -149.957A 1.875 1.875 0 0 0 -64.5676 -151.842C -64.68602461162192 -152.63076814772927 -64.79488895445817 -153.51110294241923 -64.88374553846444 -154.483359846234 C -65.08438175875834 -156.6796143792819 -65.18291295492864 -159.3401839593606 -65.05910704552443 -162.45783504582224 A 175 175 0 0 1 -61.3679 -163.888C -59.17603386715196 -161.66726131547588 -57.456435164028676 -159.63469663328848 -56.125100008689955 -157.87647720131008 C -55.53576057601902 -157.09810838600728 -55.02313458000929 -156.37419168907456 -54.579369651957556 -155.71159618457395 A 1.875 1.875 0 0 0 -52.4131 -155.135A 163.75 163.75 0 0 1 -51.6633 -155.387A 1.875 1.875 0 0 0 -50.2819 -157.152C -50.32709485383914 -157.94814556997474 -50.3542677532966 -158.83476974594672 -50.35303674128859 -159.8110778244477 C -50.35017228010973 -162.01647589774183 -50.2027967691759 -164.67478726886367 -49.79185844282804 -167.76771563726427 A 175 175 0 0 1 -45.9844 -168.851C -44.00682635861177 -166.43769284430635 -42.48210456912777 -164.25513417344973 -41.31867667741909 -162.38157488492385 C -40.8036700765157 -161.552149071145 -40.36002545864561 -160.78402131554842 -39.97929015373141 -160.08330686475904 A 1.875 1.875 0 0 0 -37.8754 -159.309A 163.75 163.75 0 0 1 -37.1056 -159.491A 1.875 1.875 0 0 0 -35.5673 -161.121C -35.53879206759711 -161.91796510516474 -35.4840416940785 -162.80331429756427 -35.39273358861665 -163.77534403446217 C -35.1863928845378 -165.97106996924262 -34.794368022395986 -168.6044433560834 -34.09980326001211 -171.64626123211966 A 175 175 0 0 1 -30.2087 -172.374C -28.4621681239497 -169.78813666206688 -27.145331636811108 -167.47420482357225 -26.159736965291412 -165.50129022575018 C -25.72345705088826 -164.62788378209115 -25.352578830612778 -163.82209836300723 -25.03812144821417 -163.08924321455825 A 1.875 1.875 0 0 0 -23.0146 -162.125A 163.75 163.75 0 0 1 -22.2314 -162.234A 1.875 1.875 0 0 0 -20.5492 -163.715C -20.447284838059627 -164.50635765274396 -20.311078302447356 -165.3828783744268 -20.13047211209313 -166.34233675473445 C -19.722415591247827 -168.5096573915168 -19.089085995797756 -171.09562578084137 -18.11682057903388 -174.06038144690964 A 175 175 0 0 1 -14.1752 -174.426C -12.674680706332051 -171.69000796343744 -11.576964306143665 -169.26444460788142 -10.77761160103946 -167.20900691248175 C -10.42378055953827 -166.29907143476538 -10.128832939064814 -165.46250302927783 -9.883336318693868 -164.70375964489833 A 1.875 1.875 0 0 0 -7.9575 -163.557A 163.75 163.75 0 0 1 -7.16754 -163.593A 1.875 1.875 0 0 0 -5.35578 -164.913C -5.1813285837933964 -165.69123996013795 -4.964827952224247 -166.55145404535924 -4.696464545313796 -167.49015530847132 C -4.090173602061208 -169.61057983175837 -3.220942618105531 -172.1270806530557 -1.979271572686358 -174.98947985915652 A 175 175 0 0 1 1.97927 -174.989C 3.220942618105468 -172.1270806530557 4.090173602061146 -169.61057983175837 4.6964645453137335 -167.49015530847132 C 4.964827952224186 -166.55145404535924 5.181328583793336 -165.69123996013795 5.355769951531289 -164.91308167085813 A 1.875 1.875 0 0 0 7.16754 -163.593A 163.75 163.75 0 0 1 7.9575 -163.557A 1.875 1.875 0 0 0 9.88333 -164.704C 10.128832939064758 -165.46250302927783 10.423780559538212 -166.29907143476535 10.777611601039402 -167.20900691248175 C 11.576964306143607 -169.2644446078814 12.67468070633199 -171.69000796343744 14.175163880847828 -174.42562972879787 A 175 175 0 0 1 18.1168 -174.06C 19.089085995797696 -171.09562578084137 19.722415591247767 -168.50965739151684 20.130472112093074 -166.34233675473445 C 20.3110783024473 -165.38287837442684 20.44728483805957 -164.50635765274396 20.54918268092128 -163.71542343071704 A 1.875 1.875 0 0 0 22.2314 -162.234A 163.75 163.75 0 0 1 23.0146 -162.125A 1.875 1.875 0 0 0 25.0381 -163.089C 25.352578830612863 -163.82209836300723 25.723457050888342 -164.62788378209112 26.159736965291494 -165.5012902257502 C 27.145331636811196 -167.47420482357222 28.462168123949784 -169.78813666206688 30.208661834172776 -172.37364162633793 A 175 175 0 0 1 34.0998 -171.646C 34.79436802239607 -168.6044433560834 35.18639288453789 -165.9710699692426 35.39273358861673 -163.77534403446214 C 35.48404169407858 -162.80331429756424 35.53879206759719 -161.91796510516474 35.56727702911553 -161.12100292229752 A 1.875 1.875 0 0 0 37.1056 -159.491A 163.75 163.75 0 0 1 37.8754 -159.309A 1.875 1.875 0 0 0 39.9793 -160.083C 40.36002545864555 -160.78402131554842 40.80367007651565 -161.552149071145 41.31867667741904 -162.38157488492385 C 42.48210456912771 -164.25513417344973 44.00682635861171 -166.43769284430635 45.98443013600258 -168.8510223907563 A 175 175 0 0 1 49.7919 -167.768C 50.20279676917584 -164.67478726886367 50.350172280109675 -162.01647589774183 50.35303674128854 -159.8110778244477 C 50.35426775329655 -158.83476974594672 50.327094853839085 -157.94814556997474 50.28192391036589 -157.1519548266105 A 1.875 1.875 0 0 0 51.6633 -155.387A 163.75 163.75 0 0 1 52.4131 -155.135A 1.875 1.875 0 0 0 54.5794 -155.712C 55.02313458000924 -156.3741916890746 55.53576057601897 -157.09810838600728 56.125100008689905 -157.8764772013101 C 57.45643516402863 -159.6346966332885 59.17603386715191 -161.66726131547588 61.36787549356541 -163.88782576733038 A 175 175 0 0 1 65.0591 -162.458C 65.18291295492858 -159.3401839593606 65.0843817587583 -156.67961437928193 64.88374553846438 -154.48335984623404 C 64.79488895445813 -153.51110294241923 64.68602461162187 -152.6307681477293 64.56758314572005 -151.84214166256146 A 1.875 1.875 0 0 0 65.7802 -149.957A 163.75 163.75 0 0 1 66.5036 -149.637A 1.875 1.875 0 0 0 68.7138 -150.011C 69.21680571774725 -150.63023259509654 69.7940395476455 -151.303762031353 70.45268377583966 -152.0244330798927 C 71.94056771267863 -153.6523121470607 73.84037231961959 -155.51754171537254 76.22775177512074 -157.52639599967736 A 175 175 0 0 1 79.7713 -155.762C 79.6069115101978 -152.6461463820827 79.26331424034798 -150.00601763461398 78.86088909607051 -147.83764431111078 C 78.68270300909478 -146.87773353507734 78.49307601506833 -146.01119882774046 78.30237452756364 -145.23686488387858 A 1.875 1.875 0 0 0 79.3358 -143.248A 163.75 163.75 0 0 1 80.0267 -142.863A 1.875 1.875 0 0 0 82.262 -143.031C 82.81994347425959 -143.60114946734132 83.45686038253659 -144.21854532725112 84.17919008593043 -144.87537009774306 C 85.81092870313364 -146.3590203098736 87.87473075083807 -148.04100128329446 90.43727975567882 -149.821006563598 A 175 175 0 0 1 93.8029 -147.737C 93.35173196506827 -144.64978570538818 92.7660000722963 -142.05262243811976 92.16521935347512 -139.93063012081038 C 91.89922398439738 -138.99125509284445 91.63045216983315 -138.14591344145208 91.36911765857755 -137.39247838308276 A 1.875 1.875 0 0 0 92.2146 -135.316A 163.75 163.75 0 0 1 92.867 -134.869A 1.875 1.875 0 0 0 95.1083 -134.831C 95.71649067453917 -135.34691196466989 96.40765671070406 -135.90290684444406 97.18750922695452 -136.49028153953623 C 98.94918110597482 -137.81704491613974 101.15937296304783 -139.30142722605416 103.87522875264823 -140.83739712491706 A 175 175 0 0 1 107.034 -138.452C 106.30010835770643 -135.41932405913326 105.4772390999982 -132.88728435332737 104.683228455897 -130.82977713246976 C 104.33169318341885 -129.91895226909563 103.98606961467245 -129.10201583055837 103.65633169357201 -128.3759076999459 A 1.875 1.875 0 0 0 104.307 -126.231A 163.75 163.75 0 0 1 104.915 -125.725A 1.875 1.875 0 0 0 107.143 -125.48C 107.79641852506775 -125.93794233109288 108.53593690419824 -126.42779267845536 109.36665880660492 -126.94070602435177 C 111.24323398411852 -128.09926308810265 113.58095907292724 -129.37338250802094 116.4269509232742 -130.6522126718338 A 175 175 0 0 1 119.352 -127.985C 118.3415697061993 -125.03351248751451 117.28858351392603 -122.58819881316911 116.30811716339998 -120.61273061491498 C 115.8740411625184 -119.73822675271914 115.45451457801492 -118.95666534068694 115.05918645475018 -118.26407903638317 A 1.875 1.875 0 0 0 115.509 -116.068A 163.75 163.75 0 0 1 116.068 -115.509A 1.875 1.875 0 0 0 118.264 -115.059C 118.95666534068697 -115.45451457801487 119.73822675271919 -115.87404116251834 120.61273061491502 -116.30811716339993 C 122.58819881316916 -117.28858351392597 125.03351248751454 -118.34156970619924 127.98535939960934 -119.35234960690724 A 175 175 0 0 1 130.652 -116.427C 129.37338250802097 -113.58095907292719 128.09926308810267 -111.24323398411846 126.94070602435181 -109.36665880660486 C 126.4277926784554 -108.53593690419818 125.93794233109291 -107.7964185250677 125.48039680582278 -107.1432629492219 A 1.875 1.875 0 0 0 125.725 -104.915A 163.75 163.75 0 0 1 126.231 -104.307A 1.875 1.875 0 0 0 128.376 -103.656C 129.10201583055834 -103.9860696146725 129.91895226909557 -104.3316931834189 130.8297771324697 -104.68322845589705 C 132.88728435332732 -105.47723909999826 135.4193240591332 -106.30010835770649 138.45184191591375 -107.03421437758776 A 175 175 0 0 1 140.837 -103.875C 139.3014272260541 -101.15937296304789 137.81704491613968 -98.94918110597487 136.49028153953617 -97.18750922695457 C 135.902906844444 -96.40765671070412 135.34691196466986 -95.71649067453923 134.8310526544899 -95.10833832022837 A 1.875 1.875 0 0 0 134.869 -92.867A 163.75 163.75 0 0 1 135.316 -92.2146A 1.875 1.875 0 0 0 137.392 -91.3691C 138.14591344145202 -91.6304521698332 138.9912550928444 -91.89922398439745 139.93063012081035 -92.1652193534752 C 142.0526224381197 -92.76600007229636 144.64978570538815 -93.35173196506835 147.7371021337361 -93.80290097039975 A 175 175 0 0 1 149.821 -90.4373C 148.04100128329443 -87.87473075083815 146.35902030987356 -85.81092870313371 144.87537009774303 -84.1791900859305 C 144.21854532725112 -83.45686038253666 143.60114946734126 -82.81994347425967 143.0313775019991 -82.26198288294223 A 1.875 1.875 0 0 0 142.863 -80.0267A 163.75 163.75 0 0 1 143.248 -79.3358A 1.875 1.875 0 0 0 145.237 -78.3024C 146.0111988277405 -78.49307601506825 146.87773353507737 -78.68270300909471 147.8376443111108 -78.86088909607044 C 150.00601763461407 -79.26331424034791 152.64614638208272 -79.60691151019772 155.7619214867885 -79.77129428610345 A 175 175 0 0 1 157.526 -76.2278C 155.51754171537257 -73.8403723196195 153.65231214706074 -71.94056771267856 152.02443307989273 -70.45268377583959 C 151.30376203135302 -69.79403954764543 150.63023259509657 -69.21680571774718 150.01140906810454 -68.71379721245692 A 1.875 1.875 0 0 0 149.637 -66.5036A 163.75 163.75 0 0 1 149.957 -65.7802A 1.875 1.875 0 0 0 151.842 -64.5676C 152.63076814772927 -64.68602461162193 153.51110294241923 -64.79488895445819 154.483359846234 -64.88374553846444 C 156.6796143792819 -65.08438175875835 159.3401839593606 -65.18291295492865 162.45783504582224 -65.05910704552443 A 175 175 0 0 1 163.888 -61.3679C 161.66726131547588 -59.17603386715197 159.63469663328848 -57.45643516402869 157.87647720131008 -56.12510000868996 C 157.09810838600728 -55.53576057601903 156.37419168907456 -55.0231345800093 155.71159618457395 -54.57936965195756 A 1.875 1.875 0 0 0 155.135 -52.4131A 163.75 163.75 0 0 1 155.387 -51.6633A 1.875 1.875 0 0 0 157.152 -50.2819C 157.9481455699747 -50.32709485383915 158.8347697459467 -50.35426775329661 159.81107782444766 -50.353036741288605 C 162.0164758977418 -50.35017228010973 164.67478726886364 -50.20279676917591 167.76771563726425 -49.79185844282805 A 175 175 0 0 1 168.851 -45.9844C 166.43769284430633 -44.00682635861178 164.2551341734497 -42.482104569127785 162.38157488492382 -41.318676677419106 C 161.55214907114498 -40.803670076515715 160.7840213155484 -40.360025458645616 160.083306864759 -39.97929015373142 A 1.875 1.875 0 0 0 159.309 -37.8754A 163.75 163.75 0 0 1 159.491 -37.1056A 1.875 1.875 0 0 0 161.121 -35.5673C 161.91796510516474 -35.53879206759712 162.80331429756424 -35.484041694078506 163.77534403446217 -35.39273358861665 C 165.9710699692426 -35.18639288453781 168.6044433560834 -34.794368022396 171.64626123211963 -34.099803260012116 A 175 175 0 0 1 172.374 -30.2087C 169.78813666206688 -28.46216812394971 167.47420482357222 -27.145331636811118 165.50129022575018 -26.15973696529142 C 164.62788378209112 -25.72345705088827 163.82209836300723 -25.352578830612785 163.08924321455822 -25.03812144821418 A 1.875 1.875 0 0 0 162.125 -23.0146A 163.75 163.75 0 0 1 162.234 -22.2314A 1.875 1.875 0 0 0 163.715 -20.5492C 164.50635765274393 -20.447284838059637 165.38287837442678 -20.311078302447367 166.34233675473442 -20.13047211209314 C 168.5096573915168 -19.722415591247838 171.09562578084137 -19.089085995797767 174.06038144690962 -18.11682057903389 A 175 175 0 0 1 174.426 -14.1752C 171.69000796343744 -12.674680706332065 169.26444460788142 -11.576964306143676 167.20900691248173 -10.777611601039471 C 166.29907143476535 -10.423780559538283 165.4625030292778 -10.128832939064829 164.70375964489833 -9.88333631869388 A 1.875 1.875 0 0 0 163.557 -7.9575A 163.75 163.75 0 0 1 163.593 -7.16754A 1.875 1.875 0 0 0 164.913 -5.35578" stroke="#191919" stroke-width="0.35 px" style="stroke-width:0.35;stroke-miterlimit:4;stroke-dasharray:none;fill:none;fill-rule: evenodd "/>
<title>b'InvoluteGear'</title>
</g>
</svg>