<?xml version="1.0"?>
<!DOCTYPE svg PUBLIC "-//W3C//DTD SVG 1.1//EN" "http://www.w3.org/Graphics/SVG/1.1/DTD/svg11.dtd">
<svg width="173.36893166735175mm" height="173.36893166735175mm" viewBox="0 0 173.36893166735175 173.36893166735175" xmlns="http://www.w3.org/2000/svg" version="1.1">
<g id="InvoluteGear" transform="translate(86.684466,86.684466) scale(1,-1)">
<path id="InvoluteGear_w0000"  d="M 74.84649190055889 -4.796107815674398 L 75.12865910122962 -4.810323947342189 C 75.41294418088059 -4.81339487133874 76.27004646600933 -4.792447017521088 77.6961929991775 -4.499802409208124 C 79.40669477700362 -4.145095411546307 81.88392551577614 -3.4027177769756487 84.98477042517243 -1.8558107238850683 A 85 85 0 0 1 84.9848 1.85581C 81.88392551577614 3.402717776975649 79.40669477700362 4.145095411546308 77.6961929991775 4.499802409208125 C 76.27004646600933 4.792447017521088 75.41294418088059 4.81339487133874 75.12865910122962 4.810323947342189 L 74.84649190055889 4.796107815674379 A 1.875 1.875 0 0 0 73.4595 6.53893A 73.75 73.75 0 0 1 73.3237 7.91796A 1.875 1.875 0 0 0 74.344 9.89787L 74.62353063080708 9.938979375174426 C 74.90295235991839 9.99142872585486 75.73949894142581 10.17918643334178 77.08115033798317 10.744435343962465 C 78.68958540138338 11.426029088770456 80.97438615434791 12.63742588779331 83.71386260318063 14.759554387512683 A 85 85 0 0 1 82.9898 18.3999C 79.64671154066755 19.312096905841546 77.07224940413109 19.556926219793635 75.32541453594045 19.57111527931111 C 73.86957887763896 19.57990941713587 73.02485884903787 19.433242403009736 72.74663533502932 19.374769218223193 L 72.47266332770377 19.30577815549789 A 1.875 1.875 0 0 0 70.7724 20.7445A 73.75 73.75 0 0 1 70.3701 22.0706A 1.875 1.875 0 0 0 70.9845 24.2115L 71.25066172760074 24.30633329414694 C 71.51448208582414 24.412287320371647 72.29832494772363 24.759639458124845 73.50392229690728 25.57577047241334 C 74.94847938841586 26.558057698996713 76.95304654396703 28.191920362844463 79.22587798862361 30.807718101051787 A 85 85 0 0 1 77.8055 34.2368C 74.34871910744154 34.479322980964675 71.7759607092732 34.21719532106488 70.05992263506634 33.89032116483807 C 68.63034479953801 33.61492687838983 67.83046914443929 33.30628132742097 67.56899916968695 33.19465297354364 L 67.31375094630286 33.07353826761074 A 1.875 1.875 0 0 0 65.3654 34.1529A 73.75 73.75 0 0 1 64.7122 35.375A 1.875 1.875 0 0 0 64.8972 37.5947L 65.13966985203415 37.73960845577413 C 65.37775037095528 37.894995403734995 66.07876687164818 38.388593423897944 67.10197974343578 39.42424308466669 C 68.327145344143 40.669475045780864 69.97444451066718 42.66301514856257 71.69328731334804 45.671958485134816 A 85 85 0 0 1 69.6312 48.7581C 66.19354709415859 48.32152801015642 63.72136209678048 47.5625167953718 62.102067197383924 46.907141013911364 C 60.753685059131605 46.358141551175436 60.029392550385246 45.899378538797166 59.79472425938481 45.73888483086665 L 59.56800886602194 45.57030085195325 A 1.875 1.875 0 0 0 57.4465 46.2489A 73.75 73.75 0 0 1 56.5675 47.32A 1.875 1.875 0 0 0 56.3158 49.5331L 56.5253969948016 49.72257162906218 C 56.72858837359543 49.92142006549107 57.31983884209468 50.54229527296186 58.1213457396478 51.75766414454654 C 59.08003742259931 53.217987274260025 60.30676381694297 55.49459418781598 61.405563812679226 58.781051117763525 A 85 85 0 0 1 58.7811 61.4056C 55.494594187815984 60.30676381694296 53.21798727426003 59.080037422599304 51.757664144546546 58.12134573964779 C 50.542295272961866 57.319838842094676 49.92142006549108 56.72858837359542 49.722571629062195 56.52539699480159 L 49.53310161114405 56.315822330674344 A 1.875 1.875 0 0 0 47.32 56.5675A 73.75 73.75 0 0 1 46.2489 57.4465A 1.875 1.875 0 0 0 45.5703 59.568L 45.73888483086666 59.79472425938479 C 45.899378538797166 60.02939255038523 46.35814155117544 60.7536850591316 46.90714101391137 62.10206719738391 C 47.562516795371806 63.721362096780474 48.32152801015643 66.19354709415856 48.758058931326076 69.63122092072982 A 85 85 0 0 1 45.672 71.6933C 42.66301514856259 69.97444451066718 40.66947504578087 68.327145344143 39.4242430846667 67.10197974343576 C 38.38859342389795 66.07876687164817 37.89499540373501 65.37775037095528 37.73960845577414 65.13966985203415 L 37.594665039833295 64.89715833950464 A 1.875 1.875 0 0 0 35.375 64.7122A 73.75 73.75 0 0 1 34.1529 65.3654A 1.875 1.875 0 0 0 33.0735 67.3138L 33.19465297354365 67.56899916968695 C 33.306281327420976 67.83046914443929 33.61492687838984 68.63034479953801 33.89032116483807 70.05992263506634 C 34.21719532106488 71.7759607092732 34.47932298096468 74.34871910744154 34.236809189076524 77.80550195335104 A 85 85 0 0 1 30.8077 79.2259C 28.191920362844463 76.95304654396703 26.558057698996716 74.94847938841586 25.575770472413346 73.50392229690728 C 24.75963945812485 72.29832494772363 24.41228732037165 71.51448208582414 24.306333294146945 71.25066172760074 L 24.2114865743728 70.98453294809346 A 1.875 1.875 0 0 0 22.0706 70.3701A 73.75 73.75 0 0 1 20.7445 70.7724A 1.875 1.875 0 0 0 19.3058 72.4727L 19.374769218223197 72.74663533502932 C 19.433242403009743 73.02485884903787 19.579909417135877 73.86957887763896 19.571115279311115 75.32541453594045 C 19.556926219793638 77.07224940413109 19.31209690584155 79.64671154066755 18.399858069914565 82.98976117973318 A 85 85 0 0 1 14.7596 83.7139C 12.637425887793315 80.97438615434791 11.426029088770463 78.68958540138338 10.74443534396247 77.08115033798317 C 10.179186433341783 75.73949894142581 9.991428725854865 74.90295235991839 9.93897937517443 74.62353063080708 L 9.89787425781725 74.34401176407175 A 1.875 1.875 0 0 0 7.91796 73.3237A 73.75 73.75 0 0 1 6.53893 73.4595A 1.875 1.875 0 0 0 4.79611 74.8465L 4.8103239473421935 75.12865910122962 C 4.813394871338745 75.41294418088059 4.792447017521092 76.27004646600933 4.499802409208129 77.6961929991775 C 4.145095411546311 79.40669477700362 3.4027177769756536 81.88392551577614 1.8558107238850734 84.98477042517243 A 85 85 0 0 1 -1.85581 84.9848C -3.402717776975644 81.88392551577614 -4.145095411546302 79.40669477700362 -4.49980240920812 77.6961929991775 C -4.792447017521083 76.27004646600933 -4.813394871338736 75.41294418088059 -4.810323947342185 75.12865910122962 L -4.7961078156743735 74.84649190055889 A 1.875 1.875 0 0 0 -6.53893 73.4595A 73.75 73.75 0 0 1 -7.91796 73.3237A 1.875 1.875 0 0 0 -9.89787 74.344L -9.938979375174423 74.62353063080708 C -9.991428725854856 74.90295235991839 -10.179186433341776 75.73949894142581 -10.744435343962461 77.08115033798317 C -11.426029088770452 78.68958540138338 -12.637425887793304 80.97438615434791 -14.759554387512676 83.71386260318063 A 85 85 0 0 1 -18.3999 82.9898C -19.312096905841543 79.64671154066755 -19.55692621979363 77.07224940413109 -19.571115279311105 75.32541453594045 C -19.579909417135866 73.86957887763896 -19.433242403009732 73.02485884903787 -19.37476921822319 72.74663533502932 L -19.305778155497887 72.47266332770377 A 1.875 1.875 0 0 0 -20.7445 70.7724A 73.75 73.75 0 0 1 -22.0706 70.3701A 1.875 1.875 0 0 0 -24.2115 70.9845L -24.30633329414694 71.25066172760074 C -24.412287320371643 71.51448208582414 -24.75963945812484 72.29832494772363 -25.57577047241334 73.50392229690728 C -26.558057698996706 74.94847938841586 -28.191920362844456 76.95304654396703 -30.80771810105178 79.22587798862361 A 85 85 0 0 1 -34.2368 77.8055C -34.479322980964675 74.34871910744154 -34.21719532106487 71.7759607092732 -33.89032116483806 70.05992263506634 C -33.614926878389824 68.63034479953801 -33.30628132742096 67.83046914443929 -33.19465297354363 67.56899916968695 L -33.07353826761074 67.31375094630286 A 1.875 1.875 0 0 0 -34.1529 65.3654A 73.75 73.75 0 0 1 -35.375 64.7122A 1.875 1.875 0 0 0 -37.5947 64.8972L -37.73960845577412 65.13966985203416 C -37.89499540373498 65.3777503709553 -38.38859342389793 66.0787668716482 -39.42424308466667 67.10197974343579 C -40.66947504578084 68.32714534414302 -42.66301514856256 69.9744445106672 -45.671958485134795 71.69328731334807 A 85 85 0 0 1 -48.7581 69.6312C -48.321528010156406 66.1935470941586 -47.56251679537178 63.721362096780496 -46.90714101391134 62.10206719738394 C -46.35814155117542 60.75368505913162 -45.89937853879715 60.02939255038526 -45.73888483086664 59.79472425938482 L -45.570300851953235 59.568008866021955 A 1.875 1.875 0 0 0 -46.2489 57.4465A 73.75 73.75 0 0 1 -47.32 56.5675A 1.875 1.875 0 0 0 -49.5331 56.3158L -49.72257162906218 56.5253969948016 C -49.92142006549107 56.72858837359543 -50.54229527296186 57.31983884209468 -51.75766414454654 58.1213457396478 C -53.217987274260025 59.08003742259931 -55.49459418781598 60.30676381694297 -58.781051117763525 61.405563812679226 A 85 85 0 0 1 -61.4056 58.7811C -60.30676381694296 55.494594187815984 -59.080037422599304 53.21798727426003 -58.12134573964779 51.757664144546546 C -57.319838842094676 50.542295272961866 -56.72858837359542 49.92142006549108 -56.52539699480159 49.722571629062195 L -56.315822330674344 49.53310161114405 A 1.875 1.875 0 0 0 -56.5675 47.32A 73.75 73.75 0 0 1 -57.4465 46.2489A 1.875 1.875 0 0 0 -59.568 45.5703L -59.794724259384815 45.73888483086665 C -60.02939255038525 45.899378538797166 -60.75368505913161 46.358141551175436 -62.102067197383924 46.907141013911364 C -63.721362096780496 47.5625167953718 -66.19354709415859 48.32152801015642 -69.63122092072983 48.75805893132607 A 85 85 0 0 1 -71.6933 45.672C -69.97444451066718 42.66301514856257 -68.32714534414302 40.669475045780864 -67.10197974343578 39.42424308466669 C -66.07876687164818 38.388593423897944 -65.3777503709553 37.894995403734995 -65.13966985203416 37.73960845577413 L -64.89715833950464 37.59466503983329 A 1.875 1.875 0 0 0 -64.7122 35.375A 73.75 73.75 0 0 1 -65.3654 34.1529A 1.875 1.875 0 0 0 -67.3138 33.0735L -67.56899916968695 33.19465297354365 C -67.83046914443929 33.306281327420976 -68.63034479953801 33.61492687838984 -70.05992263506634 33.89032116483807 C -71.7759607092732 34.21719532106488 -74.34871910744154 34.47932298096468 -77.80550195335104 34.236809189076524 A 85 85 0 0 1 -79.2259 30.8077C -76.95304654396703 28.191920362844463 -74.94847938841586 26.558057698996716 -73.50392229690728 25.575770472413346 C -72.29832494772363 24.75963945812485 -71.51448208582414 24.41228732037165 -71.25066172760074 24.306333294146945 L -70.98453294809346 24.2114865743728 A 1.875 1.875 0 0 0 -70.3701 22.0706A 73.75 73.75 0 0 1 -70.7724 20.7445A 1.875 1.875 0 0 0 -72.4727 19.3058L -72.74663533502932 19.374769218223218 C -73.02485884903787 19.433242403009764 -73.86957887763896 19.579909417135895 -75.32541453594045 19.571115279311137 C -77.07224940413109 19.55692621979366 -79.64671154066755 19.31209690584157 -82.98976117973318 18.39985806991459 A 85 85 0 0 1 -83.7139 14.7596C -80.97438615434791 12.637425887793336 -78.68958540138338 11.426029088770484 -77.08115033798317 10.744435343962492 C -75.73949894142581 10.179186433341805 -74.90295235991839 9.991428725854886 -74.62353063080708 9.938979375174451 L -74.34401176407175 9.897874257817271 A 1.875 1.875 0 0 0 -73.3237 7.91796A 73.75 73.75 0 0 1 -73.4595 6.53893A 1.875 1.875 0 0 0 -74.8465 4.79611L -75.12865910122962 4.810323947342198 C -75.41294418088059 4.813394871338749 -76.27004646600933 4.792447017521098 -77.6961929991775 4.499802409208134 C -79.40669477700362 4.1450954115463166 -81.88392551577614 3.402717776975659 -84.98477042517243 1.8558107238850787 A 85 85 0 0 1 -84.9848 -1.85581C -81.88392551577614 -3.4027177769756385 -79.40669477700362 -4.145095411546297 -77.6961929991775 -4.499802409208114 C -76.27004646600933 -4.792447017521078 -75.41294418088059 -4.813394871338732 -75.12865910122962 -4.81032394734218 L -74.84649190055889 -4.79610781567437 A 1.875 1.875 0 0 0 -73.4595 -6.53893A 73.75 73.75 0 0 1 -73.3237 -7.91796A 1.875 1.875 0 0 0 -74.344 -9.89787L -74.62353063080708 -9.938979375174435 C -74.90295235991839 -9.991428725854869 -75.73949894142581 -10.179186433341787 -77.08115033798317 -10.744435343962474 C -78.68958540138338 -11.426029088770466 -80.97438615434791 -12.637425887793318 -83.71386260318063 -14.75955438751269 A 85 85 0 0 1 -82.9898 -18.3999C -79.64671154066755 -19.312096905841557 -77.07224940413109 -19.55692621979364 -75.32541453594045 -19.571115279311115 C -73.86957887763896 -19.57990941713588 -73.02485884903787 -19.433242403009743 -72.74663533502932 -19.3747692182232 L -72.47266332770377 -19.305778155497897 A 1.875 1.875 0 0 0 -70.7724 -20.7445A 73.75 73.75 0 0 1 -70.3701 -22.0706A 1.875 1.875 0 0 0 -70.9845 -24.2115L -71.25066172760074 -24.30633329414693 C -71.51448208582414 -24.412287320371636 -72.29832494772363 -24.759639458124838 -73.50392229690728 -25.575770472413332 C -74.94847938841586 -26.558057698996702 -76.95304654396703 -28.19192036284445 -79.22587798862361 -30.807718101051773 A 85 85 0 0 1 -77.8055 -34.2368C -74.34871910744154 -34.47932298096467 -71.7759607092732 -34.217195321064864 -70.05992263506634 -33.890321164838056 C -68.63034479953801 -33.614926878389824 -67.83046914443929 -33.30628132742096 -67.56899916968695 -33.19465297354363 L -67.31375094630286 -33.073538267610736 A 1.875 1.875 0 0 0 -65.3654 -34.1529A 73.75 73.75 0 0 1 -64.7122 -35.375A 1.875 1.875 0 0 0 -64.8972 -37.5947L -65.13966985203416 -37.73960845577412 C -65.3777503709553 -37.89499540373498 -66.0787668716482 -38.38859342389793 -67.10197974343579 -39.42424308466667 C -68.32714534414302 -40.66947504578084 -69.9744445106672 -42.66301514856256 -71.69328731334807 -45.671958485134795 A 85 85 0 0 1 -69.6312 -48.7581C -66.1935470941586 -48.321528010156406 -63.721362096780496 -47.56251679537178 -62.10206719738394 -46.90714101391134 C -60.75368505913162 -46.35814155117542 -60.02939255038526 -45.89937853879715 -59.79472425938482 -45.73888483086664 L -59.568008866021955 -45.570300851953235 A 1.875 1.875 0 0 0 -57.4465 -46.2489A 73.75 73.75 0 0 1 -56.5675 -47.32A 1.875 1.875 0 0 0 -56.3158 -49.5331L -56.52539699480161 -49.72257162906218 C -56.72858837359543 -49.92142006549107 -57.3198388420947 -50.54229527296186 -58.12134573964781 -51.75766414454654 C -59.08003742259932 -53.217987274260025 -60.30676381694298 -55.49459418781597 -61.40556381267923 -58.781051117763525 A 85 85 0 0 1 -58.7811 -61.4056C -55.494594187816 -60.30676381694297 -53.21798727426004 -59.080037422599304 -51.75766414454655 -58.12134573964779 C -50.54229527296188 -57.319838842094676 -49.92142006549109 -56.72858837359542 -49.7225716290622 -56.52539699480159 L -49.533101611144055 -56.315822330674344 A 1.875 1.875 0 0 0 -47.32 -56.5675A 73.75 73.75 0 0 1 -46.2489 -57.4465A 1.875 1.875 0 0 0 -45.5703 -59.568L -45.73888483086665 -59.79472425938481 C -45.899378538797166 -60.029392550385246 -46.358141551175436 -60.753685059131605 -46.907141013911364 -62.102067197383924 C -47.5625167953718 -63.72136209678048 -48.32152801015642 -66.19354709415859 -48.75805893132607 -69.63122092072982 A 85 85 0 0 1 -45.672 -71.6933C -42.66301514856257 -69.97444451066718 -40.669475045780864 -68.327145344143 -39.42424308466669 -67.10197974343578 C -38.388593423897944 -66.07876687164818 -37.894995403734995 -65.37775037095528 -37.73960845577413 -65.13966985203415 L -37.59466503983329 -64.89715833950464 A 1.875 1.875 0 0 0 -35.375 -64.7122A 73.75 73.75 0 0 1 -34.1529 -65.3654A 1.875 1.875 0 0 0 -33.0735 -67.3138L -33.19465297354368 -67.56899916968693 C -33.30628132742101 -67.83046914443928 -33.61492687838987 -68.630344799538 -33.89032116483811 -70.05992263506633 C -34.21719532106492 -71.77596070927319 -34.479322980964724 -74.34871910744153 -34.23680918907657 -77.80550195335103 A 85 85 0 0 1 -30.8077 -79.2259C -28.19192036284451 -76.95304654396702 -26.558057698996755 -74.94847938841585 -25.575770472413385 -73.50392229690726 C -24.759639458124887 -72.29832494772361 -24.41228732037169 -71.51448208582413 -24.306333294146985 -71.25066172760073 L -24.211486574372838 -70.98453294809345 A 1.875 1.875 0 0 0 -22.0706 -70.3701A 73.75 73.75 0 0 1 -20.7445 -70.7724A 1.875 1.875 0 0 0 -19.3058 -72.4727L -19.374769218223225 -72.74663533502931 C -19.433242403009768 -73.02485884903787 -19.5799094171359 -73.86957887763894 -19.571115279311144 -75.32541453594044 C -19.556926219793667 -77.07224940413107 -19.312096905841578 -79.64671154066755 -18.399858069914597 -82.98976117973316 A 85 85 0 0 1 -14.7596 -83.7139C -12.637425887793343 -80.97438615434791 -11.426029088770491 -78.68958540138337 -10.744435343962499 -77.08115033798316 C -10.179186433341812 -75.7394989414258 -9.991428725854892 -74.90295235991839 -9.938979375174458 -74.62353063080707 L -9.897874257817278 -74.34401176407175 A 1.875 1.875 0 0 0 -7.91796 -73.3237A 73.75 73.75 0 0 1 -6.53893 -73.4595A 1.875 1.875 0 0 0 -4.79611 -74.8465L -4.810323947342203 -75.12865910122962 C -4.813394871338755 -75.41294418088059 -4.792447017521102 -76.27004646600933 -4.499802409208138 -77.6961929991775 C -4.145095411546321 -79.40669477700362 -3.402717776975664 -81.88392551577614 -1.8558107238850838 -84.98477042517243 A 85 85 0 0 1 1.85581 -84.9848C 3.4027177769756336 -81.88392551577614 4.145095411546293 -79.40669477700362 4.49980240920811 -77.6961929991775 C 4.792447017521074 -76.27004646600933 4.813394871338726 -75.41294418088059 4.810323947342175 -75.12865910122962 L 4.796107815674365 -74.84649190055889 A 1.875 1.875 0 0 0 6.53893 -73.4595A 73.75 73.75 0 0 1 7.91796 -73.3237A 1.875 1.875 0 0 0 9.89787 -74.344L 9.938979375174428 -74.62353063080708 C 9.991428725854863 -74.90295235991839 10.17918643334178 -75.73949894142581 10.744435343962468 -77.08115033798317 C 11.42602908877046 -78.68958540138338 12.637425887793311 -80.97438615434791 14.759554387512683 -83.71386260318063 A 85 85 0 0 1 18.3999 -82.9898C 19.31209690584155 -79.64671154066755 19.556926219793638 -77.07224940413109 19.571115279311112 -75.32541453594045 C 19.579909417135873 -73.86957887763896 19.43324240300974 -73.02485884903787 19.374769218223193 -72.74663533502932 L 19.30577815549789 -72.47266332770377 A 1.875 1.875 0 0 0 20.7445 -70.7724A 73.75 73.75 0 0 1 22.0706 -70.3701A 1.875 1.875 0 0 0 24.2115 -70.9845L 24.30633329414696 -71.25066172760073 C 24.41228732037166 -71.51448208582413 24.759639458124862 -72.29832494772363 25.57577047241336 -73.50392229690728 C 26.558057698996727 -74.94847938841586 28.19192036284448 -76.95304654396702 30.8077181010518 -79.22587798862361 A 85 85 0 0 1 34.2368 -77.8055C 34.479322980964696 -74.34871910744153 34.21719532106489 -71.7759607092732 33.890321164838085 -70.05992263506634 C 33.614926878389845 -68.63034479953801 33.30628132742098 -67.83046914443928 33.194652973543654 -67.56899916968693 L 33.07353826761076 -67.31375094630285 A 1.875 1.875 0 0 0 34.1529 -65.3654A 73.75 73.75 0 0 1 35.375 -64.7122A 1.875 1.875 0 0 0 37.5947 -64.8972L 37.73960845577411 -65.13966985203417 C 37.89499540373497 -65.37775037095531 38.388593423897916 -66.0787668716482 39.42424308466666 -67.1019797434358 C 40.669475045780835 -68.32714534414303 42.66301514856255 -69.9744445106672 45.67195848513479 -71.69328731334807 A 85 85 0 0 1 48.7581 -69.6312C 48.3215280101564 -66.1935470941586 47.56251679537177 -63.72136209678051 46.90714101391134 -62.10206719738395 C 46.35814155117542 -60.75368505913163 45.89937853879714 -60.02939255038527 45.73888483086663 -59.79472425938483 L 45.570300851953235 -59.56800886602196 A 1.875 1.875 0 0 0 46.2489 -57.4465A 73.75 73.75 0 0 1 47.32 -56.5675A 1.875 1.875 0 0 0 49.5331 -56.3158L 49.72257162906218 -56.52539699480161 C 49.92142006549107 -56.72858837359543 50.54229527296186 -57.3198388420947 51.75766414454654 -58.12134573964781 C 53.217987274260025 -59.08003742259932 55.49459418781597 -60.30676381694298 58.781051117763525 -61.40556381267923 A 85 85 0 0 1 61.4056 -58.7811C 60.30676381694297 -55.494594187816 59.080037422599304 -53.21798727426004 58.12134573964779 -51.75766414454655 C 57.319838842094676 -50.54229527296188 56.72858837359542 -49.92142006549109 56.52539699480159 -49.7225716290622 L 56.315822330674344 -49.533101611144055 A 1.875 1.875 0 0 0 56.5675 -47.32A 73.75 73.75 0 0 1 57.4465 -46.2489A 1.875 1.875 0 0 0 59.568 -45.5703L 59.79472425938481 -45.73888483086665 C 60.029392550385246 -45.899378538797166 60.753685059131605 -46.358141551175436 62.102067197383924 -46.907141013911364 C 63.72136209678048 -47.5625167953718 66.19354709415859 -48.32152801015642 69.63122092072982 -48.75805893132607 A 85 85 0 0 1 71.6933 -45.672C 69.97444451066718 -42.66301514856257 68.327145344143 -40.669475045780864 67.10197974343578 -39.42424308466669 C 66.07876687164818 -38.388593423897944 65.37775037095528 -37.894995403734995 65.13966985203415 -37.73960845577413 L 64.89715833950464 -37.59466503983329 A 1.875 1.875 0 0 0 64.7122 -35.375A 73.75 73.75 0 0 1 65.3654 -34.1529A 1.875 1.875 0 0 0 67.3138 -33.0735L 67.56899916968693 -33.19465297354368 C 67.83046914443928 -33.30628132742101 68.630344799538 -33.61492687838987 70.05992263506633 -33.89032116483811 C 71.77596070927319 -34.21719532106492 74.34871910744153 -34.479322980964724 77.80550195335103 -34.236809189076574 A 85 85 0 0 1 79.2259 -30.8077C 76.95304654396702 -28.191920362844513 74.94847938841585 -26.558057698996762 73.50392229690726 -25.57577047241339 C 72.29832494772361 -24.75963945812489 71.51448208582413 -24.412287320371696 71.25066172760073 -24.306333294146988 L 70.98453294809345 -24.21148657437284 A 1.875 1.875 0 0 0 70.3701 -22.0706A 73.75 73.75 0 0 1 70.7724 -20.7445A 1.875 1.875 0 0 0 72.4727 -19.3058L 72.74663533502931 -19.37476921822323 C 73.02485884903787 -19.43324240300977 73.86957887763894 -19.579909417135905 75.32541453594044 -19.571115279311144 C 77.07224940413107 -19.55692621979367 79.64671154066755 -19.312096905841585 82.98976117973316 -18.3998580699146 A 85 85 0 0 1 83.7139 -14.7596C 80.97438615434791 -12.637425887793349 78.68958540138337 -11.426029088770495 77.08115033798316 -10.744435343962502 C 75.7394989414258 -10.179186433341815 74.90295235991839 -9.991428725854895 74.62353063080707 -9.938979375174462 L 74.34401176407175 -9.897874257817282 A 1.875 1.875 0 0 0 73.3237 -7.91796A 73.75 73.75 0 0 1 73.4595 -6.53893A 1.875 1.875 0 0 0 74.8465 -4.79611" stroke="#191919" stroke-width="0.35 px" style="stroke-width:0.35;stroke-miterlimit:4;stroke-dasharray:none;fill:none;fill-rule: evenodd "/>
<title>b'InvoluteGear'</title>
</g>
</svg>