<?xml version="1.0"?>
<!DOCTYPE svg PUBLIC "-//W3C//DTD SVG 1.1//EN" "http://www.w3.org/Graphics/SVG/1.1/DTD/svg11.dtd">
<svg width="397.7802446725537mm" height="397.7802446725537mm" viewBox="0 0 397.7802446725537 397.7802446725537" xmlns="http://www.w3.org/2000/svg" version="1.1">
<g id="InvoluteGear" transform="translate(198.890122,198.890122) scale(1,-1)">
<path id="InvoluteGear_w0000"  d="M 184.92119353963147 -5.399275866092491 C 185.71041401838377 -5.209630519475127 186.56787414316244 -4.982618963212477 187.49083043150463 -4.711133602450799 C 189.64939246775026 -4.07613647877896 192.16309378413152 -3.1991206746964367 194.9903160159577 -1.991770743706831 A 195 195 0 0 1 194.99 1.99177C 192.16309378413152 3.1991206746964367 189.64939246775026 4.07613647877896 187.49083043150463 4.711133602450799 C 186.56787414316244 4.982618963212477 185.71041401838377 5.209630519475127 184.92121045920092 5.399270145356507 A 1.875 1.875 0 0 0 183.608 7.2177A 183.75 183.75 0 0 1 183.577 7.9692A 1.875 1.875 0 0 0 184.735 9.88984C 185.5063266790207 10.144007447030788 186.34211167701585 10.441052139608303 187.23949651830367 10.787827366412584 C 189.3382483239693 11.598908293082367 191.7709406848553 12.68050845297249 194.4888043523198 14.117204833238436 A 195 195 0 0 1 194.16 18.0871C 191.2425781020484 19.056896564291495 188.66503895902235 19.72333710534221 186.46141185965746 20.177912751782813 C 185.51918885157562 20.372253726205354 184.64591092211882 20.527681427037177 183.84374257703058 20.65150142408839 A 1.875 1.875 0 0 0 182.385 22.3553A 183.75 183.75 0 0 1 182.292 23.1017A 1.875 1.875 0 0 0 183.288 25.1114C 184.03504302749923 25.428351556785252 184.84344363969973 25.79340026922797 185.7091269855309 26.213096535650326 C 187.73373195767755 27.194720760163655 190.06879760752582 28.473516850041197 192.65873694590232 30.129745586515302 A 195 195 0 0 1 192.003 34.059C 189.01568169410524 34.78449452691355 186.39191193037158 35.23580734027525 184.15827277542454 35.50685629688579 C 183.20321938614978 35.62272533905473 182.32008902576518 35.705507455657425 181.51043551795658 35.76266200774679 A 1.875 1.875 0 0 0 179.916 37.3402A 183.75 183.75 0 0 1 179.762 38.0763A 1.875 1.875 0 0 0 180.588 40.1614C 181.3066134230213 40.538994241397596 182.0821074535384 40.96955332084501 182.91017580886952 41.459303675819356 C 184.84680384261497 42.60476570936894 187.06829191531162 44.072022255257856 189.5126150127551 45.936469626276164 A 195 195 0 0 1 188.535 49.7981C 185.49761652081153 50.27447912090333 182.8455391443241 50.5075812824356 180.59714595410347 50.5932520100024 C 179.635786166696 50.629857616870055 178.74883605122744 50.63942866344727 177.93722813513463 50.62952734703006 A 1.875 1.875 0 0 0 176.218 52.07A 183.75 183.75 0 0 1 176.003 52.7909A 1.875 1.875 0 0 0 176.655 54.9371C 177.3396758063767 55.3727144893418 178.07696584464134 55.86584278070013 178.86176266295524 56.422301732701676 C 180.69718462511406 57.72377690811515 182.7899201045633 59.36947106002845 185.07192975580722 61.42940099952213 A 195 195 0 0 1 183.778 65.1971C 180.71241453457196 65.42103804484617 178.0501459229833 65.43433723042325 175.802357502819 65.33404451100806 C 174.84125837943276 65.29113662916193 173.95654727752452 65.22743122576063 173.148529058174 65.15054167686777 A 1.875 1.875 0 0 0 171.316 66.4441A 183.75 183.75 0 0 1 171.043 67.1448A 1.875 1.875 0 0 0 171.515 69.3375C 172.16132838390894 69.82818295012999 172.85537799135753 70.38051188714373 173.59154231461162 70.99987825728834 C 175.3132204120888 72.44847617943917 177.26290779296016 74.26136617760737 179.36701555815918 76.5027072753482 A 195 195 0 0 1 177.767 80.1507C 174.69276351708362 80.12070494288282 172.03848966451568 79.91411030558204 169.80666068854492 79.62853924015394 C 168.85238751073436 79.50641097393505 167.9759588962977 79.36986429305688 167.17704995744734 79.2265117452723 A 1.875 1.875 0 0 0 165.244 80.3643A 183.75 183.75 0 0 1 164.914 81.0401A 1.875 1.875 0 0 0 165.203 83.2642C 165.8069445192887 83.80665411652275 166.45301263334525 84.41441073249793 167.13551571275093 85.0924536204483 C 168.73168913838214 86.6782788966692 170.5250100789073 88.64598086415856 172.43684276848785 91.053422487759 A 195 195 0 0 1 170.541 94.5568C 167.47978378864175 94.27306618483357 164.85163607690583 93.84798897551188 162.65101220007932 93.37909030401299 C 161.71008362126915 93.17857591331607 160.84792439042755 92.97012070724794 160.06358209021275 92.76128440383057 A 1.875 1.875 0 0 0 158.043 93.7356A 183.75 183.75 0 0 1 157.658 94.3817A 1.875 1.875 0 0 0 157.763 96.6222C 158.31993109757175 97.21264085647033 158.9136044179129 97.87167355746276 159.5377840653888 98.6037612427677 C 160.9975493361784 100.31598107841644 162.62225363592998 102.42505361556543 164.3287514940494 104.98215049762261 A 195 195 0 0 1 162.15 108.317C 159.12274731465678 107.78144679311036 156.5386786575308 107.14079072013006 154.3842923723305 106.4917674959437 C 153.46313588880304 106.21423669737611 152.62113546332117 105.9352969265463 151.85671765496494 105.66240343120572 A 1.875 1.875 0 0 0 149.763 106.467A 183.75 183.75 0 0 1 149.326 107.079A 1.875 1.875 0 0 0 149.245 109.32C 149.75143201216025 109.9545666870472 150.28865514803118 110.66037361145872 150.85024758367518 111.4415051929005 C 152.16363302264116 113.26842339033149 153.6086223038234 115.50445939313998 155.09812821974472 118.19374396908731 A 195 195 0 0 1 152.651 121.337C 149.6787411281696 120.55357083084094 147.15640333479288 119.7017122247972 145.06297128406567 118.87699793464547 C 144.16787932864378 118.52434654497397 143.35178942520486 118.17682765085841 142.61251785744778 117.84174110287815 A 1.875 1.875 0 0 0 140.459 118.47A 183.75 183.75 0 0 1 139.973 119.044A 1.875 1.875 0 0 0 139.708 121.271C 140.15997880015124 121.94539133468766 140.6370819727969 122.69315110554571 141.13225095082632 123.51799066236606 C 142.2902848036652 125.4471275178202 143.54568832428782 127.79485259307832 144.8080274622661 130.5979543223634 A 195 195 0 0 1 142.11 133.529C 139.2122773675302 132.50219174008419 136.76890056264835 131.44494965902953 134.75072301001288 130.45017793776347 C 133.88780996836337 130.0248149235633 133.10320530851214 129.61109081258834 132.39412995577354 129.2161001928644 A 1.875 1.875 0 0 0 130.197 129.665A 183.75 183.75 0 0 1 129.665 130.197A 1.875 1.875 0 0 0 129.216 132.394C 129.61109081258837 133.10320530851212 130.02481492356333 133.88780996836334 130.45017793776347 134.75072301001285 C 131.44494965902953 136.76890056264835 132.5021917400842 139.21227736753016 133.52874104381206 142.11004822303423 A 195 195 0 0 1 130.598 144.808C 127.79485259307835 143.5456883242878 125.4471275178202 142.2902848036652 123.51799066236607 141.1322509508263 C 122.69315110554574 140.63708197279686 121.94539133468768 140.1599788001512 121.27135590061965 139.7077822951315 A 1.875 1.875 0 0 0 119.044 139.973A 183.75 183.75 0 0 1 118.47 140.459A 1.875 1.875 0 0 0 117.842 142.613C 118.17682765085841 143.35178942520483 118.52434654497397 144.16787932864375 118.87699793464547 145.06297128406567 C 119.7017122247972 147.15640333479286 120.55357083084094 149.6787411281696 121.33731792766659 152.65138639664852 A 195 195 0 0 1 118.194 155.098C 115.50445939313998 153.6086223038234 113.26842339033149 152.16363302264114 111.4415051929005 150.85024758367518 C 110.66037361145872 150.28865514803115 109.9545666870472 149.75143201216022 109.3201755171274 149.24511858249528 A 1.875 1.875 0 0 0 107.079 149.326A 183.75 183.75 0 0 1 106.467 149.763A 1.875 1.875 0 0 0 105.662 151.857C 105.93529692654634 152.62113546332117 106.21423669737615 153.46313588880304 106.49176749594375 154.3842923723305 C 107.1407907201301 156.5386786575308 107.7814467931104 159.12274731465678 108.31703789565343 162.14996081470423 A 195 195 0 0 1 104.982 164.329C 102.42505361556547 162.62225363592998 100.31598107841648 160.9975493361784 98.60376124276775 159.5377840653888 C 97.8716735574628 158.9136044179129 97.21264085647037 158.31993109757175 96.62222748565353 157.76295937738126 A 1.875 1.875 0 0 0 94.3817 157.658A 183.75 183.75 0 0 1 93.7356 158.043A 1.875 1.875 0 0 0 92.7613 160.064C 92.97012070724796 160.84792439042755 93.1785759133161 161.71008362126915 93.379090304013 162.65101220007932 C 93.84798897551191 164.85163607690583 94.27306618483358 167.47978378864175 94.55684266278139 170.54088658249827 A 195 195 0 0 1 91.0534 172.437C 88.64598086415857 170.5250100789073 86.67827889666923 168.73168913838214 85.09245362044831 167.13551571275093 C 84.41441073249796 166.45301263334525 83.80665411652276 165.8069445192887 83.26425166680282 165.2031191901834 A 1.875 1.875 0 0 0 81.0401 164.914A 183.75 183.75 0 0 1 80.3643 165.244A 1.875 1.875 0 0 0 79.2265 167.177C 79.3698642930569 167.9759588962977 79.50641097393508 168.85238751073436 79.62853924015396 169.80666068854492 C 79.91411030558206 172.03848966451568 80.12070494288285 174.69276351708362 80.15072831514547 177.76684516874982 A 195 195 0 0 1 76.5027 179.367C 74.2613661776074 177.26290779296016 72.44847617943918 175.3132204120888 70.99987825728836 173.59154231461162 C 70.38051188714375 172.85537799135753 69.82818295013001 172.16132838390894 69.33749658022741 171.5147741851575 A 1.875 1.875 0 0 0 67.1448 171.043A 183.75 183.75 0 0 1 66.4441 171.316A 1.875 1.875 0 0 0 65.1505 173.149C 65.22743122576064 173.95654727752452 65.29113662916195 174.84125837943276 65.33404451100807 175.802357502819 C 65.43433723042328 178.0501459229833 65.42103804484618 180.71241453457196 65.19710322134779 183.77847594928915 A 195 195 0 0 1 61.4294 185.072C 59.369471060028474 182.7899201045633 57.72377690811517 180.69718462511406 56.4223017327017 178.86176266295524 C 55.86584278070015 178.07696584464134 55.372714489341824 177.3396758063767 54.937096084712444 176.65480935875394 A 1.875 1.875 0 0 0 52.7909 176.003A 183.75 183.75 0 0 1 52.07 176.218A 1.875 1.875 0 0 0 50.6295 177.937C 50.63942866344729 178.74883605122744 50.629857616870076 179.635786166696 50.59325201000242 180.59714595410347 C 50.50758128243562 182.8455391443241 50.27447912090335 185.4976165208115 49.79811580355534 188.5347133901718 A 195 195 0 0 1 45.9365 189.513C 44.07202225525788 187.06829191531165 42.60476570936896 184.84680384261497 41.45930367581938 182.91017580886952 C 40.96955332084503 182.0821074535384 40.53899424139762 181.3066134230213 40.161419517456316 180.58811305880985 A 1.875 1.875 0 0 0 38.0763 179.762A 183.75 183.75 0 0 1 37.3402 179.916A 1.875 1.875 0 0 0 35.7627 181.51C 35.70550745565744 182.32008902576518 35.622725339054746 183.20321938614978 35.50685629688581 184.15827277542454 C 35.235807340275265 186.39191193037158 34.78449452691356 189.01568169410524 34.05895676019948 192.00306756691515 A 195 195 0 0 1 30.1297 192.659C 28.47351685004121 190.06879760752582 27.194720760163673 187.73373195767755 26.213096535650344 185.7091269855309 C 25.793400269227984 184.84344363969973 25.428351556785266 184.03504302749923 25.1113997317523 183.2878168327365 A 1.875 1.875 0 0 0 23.1017 182.292A 183.75 183.75 0 0 1 22.3553 182.385A 1.875 1.875 0 0 0 20.6515 183.844C 20.527681427037187 184.64591092211882 20.372253726205365 185.51918885157562 20.177912751782827 186.46141185965746 C 19.723337105342225 188.66503895902235 19.05689656429151 191.2425781020484 18.087140506843628 194.15984610362727 A 195 195 0 0 1 14.1172 194.489C 12.680508452972504 191.7709406848553 11.59890829308238 189.3382483239693 10.787827366412598 187.23949651830367 C 10.441052139608315 186.34211167701585 10.144007447030802 185.5063266790207 9.889843623256077 184.7354789662943 A 1.875 1.875 0 0 0 7.9692 183.577A 183.75 183.75 0 0 1 7.2177 183.608A 1.875 1.875 0 0 0 5.39928 184.921C 5.209630519475138 185.71041401838377 4.982618963212489 186.56787414316244 4.71113360245081 187.49083043150463 C 4.076136478778971 189.64939246775026 3.1991206746964482 192.16309378413152 1.991770743706843 194.9903160159577 A 195 195 0 0 1 -1.99177 194.99C -3.199120674696425 192.16309378413152 -4.076136478778948 189.64939246775026 -4.711133602450787 187.49083043150463 C -4.982618963212466 186.56787414316244 -5.209630519475115 185.71041401838377 -5.399270145356495 184.92121045920092 A 1.875 1.875 0 0 0 -7.2177 183.608A 183.75 183.75 0 0 1 -7.9692 183.577A 1.875 1.875 0 0 0 -9.88984 184.735C -10.14400744703078 185.5063266790207 -10.441052139608296 186.34211167701585 -10.787827366412577 187.23949651830367 C -11.598908293082358 189.33824832396928 -12.680508452972482 191.7709406848553 -14.117204833238429 194.4888043523198 A 195 195 0 0 1 -18.0871 194.16C -19.05689656429149 191.2425781020484 -19.723337105342203 188.66503895902238 -20.177912751782806 186.46141185965746 C -20.372253726205347 185.51918885157562 -20.527681427037166 184.64591092211882 -20.651501424088384 183.84374257703058 A 1.875 1.875 0 0 0 -22.3553 182.385A 183.75 183.75 0 0 1 -23.1017 182.292A 1.875 1.875 0 0 0 -25.1114 183.288C -25.428351556785245 184.03504302749926 -25.793400269227966 184.84344363969976 -26.213096535650322 185.7091269855309 C -27.19472076016365 187.73373195767758 -28.47351685004119 190.06879760752585 -30.129745586515295 192.65873694590235 A 195 195 0 0 1 -34.059 192.003C -34.784494526913534 189.01568169410527 -35.235807340275244 186.3919119303716 -35.506856296885786 184.15827277542454 C -35.622725339054725 183.2032193861498 -35.70550745565742 182.3200890257652 -35.76266200774678 181.5104355179566 A 1.875 1.875 0 0 0 -37.3402 179.916A 183.75 183.75 0 0 1 -38.0763 179.762A 1.875 1.875 0 0 0 -40.1614 180.588C -40.538994241397596 181.3066134230213 -40.96955332084501 182.0821074535384 -41.459303675819356 182.91017580886952 C -42.60476570936894 184.84680384261497 -44.072022255257856 187.06829191531162 -45.936469626276164 189.5126150127551 A 195 195 0 0 1 -49.7981 188.535C -50.27447912090333 185.49761652081153 -50.5075812824356 182.8455391443241 -50.5932520100024 180.59714595410347 C -50.629857616870055 179.635786166696 -50.63942866344727 178.74883605122744 -50.62952734703006 177.93722813513463 A 1.875 1.875 0 0 0 -52.07 176.218A 183.75 183.75 0 0 1 -52.7909 176.003A 1.875 1.875 0 0 0 -54.9371 176.655C -55.3727144893418 177.3396758063767 -55.86584278070013 178.07696584464134 -56.422301732701676 178.86176266295524 C -57.72377690811515 180.69718462511406 -59.36947106002845 182.7899201045633 -61.42940099952213 185.07192975580722 A 195 195 0 0 1 -65.1971 183.778C -65.42103804484617 180.71241453457196 -65.43433723042325 178.0501459229833 -65.33404451100806 175.802357502819 C -65.29113662916193 174.84125837943276 -65.22743122576063 173.95654727752452 -65.15054167686777 173.148529058174 A 1.875 1.875 0 0 0 -66.4441 171.316A 183.75 183.75 0 0 1 -67.1448 171.043A 1.875 1.875 0 0 0 -69.3375 171.515C -69.82818295012996 172.16132838390897 -70.3805118871437 172.85537799135753 -70.9998782572883 173.59154231461164 C -72.44847617943914 175.31322041208884 -74.26136617760734 177.2629077929602 -76.50270727534817 179.36701555815918 A 195 195 0 0 1 -80.1507 177.767C -80.1207049428828 174.69276351708365 -79.91411030558201 172.0384896645157 -79.6285392401539 169.80666068854495 C -79.50641097393502 168.85238751073436 -79.36986429305685 167.97595889629773 -79.22651174527228 167.17704995744737 A 1.875 1.875 0 0 0 -80.3643 165.244A 183.75 183.75 0 0 1 -81.0401 164.914A 1.875 1.875 0 0 0 -83.2642 165.203C -83.80665411652276 165.8069445192887 -84.41441073249794 166.45301263334525 -85.0924536204483 167.13551571275093 C -86.67827889666921 168.73168913838214 -88.64598086415857 170.5250100789073 -91.05342248775901 172.43684276848785 A 195 195 0 0 1 -94.5568 170.541C -94.27306618483358 167.47978378864175 -93.8479889755119 164.85163607690583 -93.37909030401299 162.65101220007932 C -93.17857591331608 161.71008362126915 -92.97012070724796 160.84792439042755 -92.76128440383059 160.06358209021275 A 1.875 1.875 0 0 0 -93.7356 158.043A 183.75 183.75 0 0 1 -94.3817 157.658A 1.875 1.875 0 0 0 -96.6222 157.763C -97.21264085647032 158.31993109757178 -97.87167355746274 158.91360441791292 -98.60376124276769 159.53778406538885 C -100.31598107841643 160.99754933617842 -102.42505361556542 162.62225363593 -104.9821504976226 164.32875149404944 A 195 195 0 0 1 -108.317 162.15C -107.78144679311035 159.1227473146568 -107.14079072013004 156.53867865753082 -106.49176749594369 154.38429237233055 C -106.2142366973761 153.46313588880307 -105.93529692654629 152.6211354633212 -105.66240343120569 151.856717654965 A 1.875 1.875 0 0 0 -106.467 149.763A 183.75 183.75 0 0 1 -107.079 149.326A 1.875 1.875 0 0 0 -109.32 149.245C -109.9545666870472 149.75143201216025 -110.66037361145872 150.28865514803118 -111.4415051929005 150.85024758367518 C -113.26842339033149 152.16363302264116 -115.50445939313998 153.6086223038234 -118.19374396908731 155.09812821974472 A 195 195 0 0 1 -121.337 152.651C -120.55357083084094 149.6787411281696 -119.7017122247972 147.15640333479288 -118.87699793464547 145.06297128406567 C -118.52434654497397 144.16787932864378 -118.17682765085841 143.35178942520486 -117.84174110287815 142.61251785744778 A 1.875 1.875 0 0 0 -118.47 140.459A 183.75 183.75 0 0 1 -119.044 139.973A 1.875 1.875 0 0 0 -121.271 139.708C -121.94539133468764 140.15997880015124 -122.6931511055457 140.6370819727969 -123.51799066236603 141.13225095082632 C -125.44712751782018 142.2902848036652 -127.79485259307832 143.54568832428782 -130.59795432236336 144.8080274622661 A 195 195 0 0 1 -133.529 142.11C -132.50219174008419 139.2122773675302 -131.4449496590295 136.76890056264835 -130.45017793776344 134.75072301001288 C -130.02481492356327 133.88780996836337 -129.61109081258832 133.10320530851214 -129.21610019286436 132.39412995577354 A 1.875 1.875 0 0 0 -129.665 130.197A 183.75 183.75 0 0 1 -130.197 129.665A 1.875 1.875 0 0 0 -132.394 129.216C -133.10320530851214 129.61109081258834 -133.88780996836337 130.0248149235633 -134.75072301001288 130.45017793776347 C -136.76890056264835 131.44494965902953 -139.2122773675302 132.50219174008419 -142.11004822303423 133.52874104381206 A 195 195 0 0 1 -144.808 130.598C -143.54568832428782 127.79485259307832 -142.2902848036652 125.4471275178202 -141.13225095082632 123.51799066236606 C -140.6370819727969 122.69315110554571 -140.15997880015124 121.94539133468766 -139.70778229513152 121.27135590061962 A 1.875 1.875 0 0 0 -139.973 119.044A 183.75 183.75 0 0 1 -140.459 118.47A 1.875 1.875 0 0 0 -142.613 117.842C -143.3517894252048 118.17682765085844 -144.16787932864372 118.52434654497398 -145.06297128406564 118.87699793464549 C -147.15640333479286 119.7017122247972 -149.67874112816958 120.55357083084097 -152.6513863966485 121.33731792766662 A 195 195 0 0 1 -155.098 118.194C -153.60862230382338 115.50445939314001 -152.16363302264114 113.26842339033152 -150.85024758367516 111.44150519290051 C -150.28865514803113 110.66037361145874 -149.7514320121602 109.95456668704723 -149.24511858249525 109.32017551712741 A 1.875 1.875 0 0 0 -149.326 107.079A 183.75 183.75 0 0 1 -149.763 106.467A 1.875 1.875 0 0 0 -151.857 105.662C -152.62113546332117 105.9352969265463 -153.46313588880304 106.21423669737611 -154.3842923723305 106.4917674959437 C -156.5386786575308 107.14079072013006 -159.12274731465678 107.78144679311036 -162.14996081470423 108.31703789565337 A 195 195 0 0 1 -164.329 104.982C -162.62225363592998 102.42505361556543 -160.9975493361784 100.31598107841644 -159.5377840653888 98.6037612427677 C -158.9136044179129 97.87167355746276 -158.31993109757175 97.21264085647033 -157.76295937738126 96.62222748565347 A 1.875 1.875 0 0 0 -157.658 94.3817A 183.75 183.75 0 0 1 -158.043 93.7356A 1.875 1.875 0 0 0 -160.064 92.7613C -160.84792439042755 92.97012070724797 -161.71008362126915 93.1785759133161 -162.65101220007932 93.37909030401302 C -164.85163607690583 93.84798897551191 -167.47978378864173 94.2730661848336 -170.54088658249825 94.5568426627814 A 195 195 0 0 1 -172.437 91.0534C -170.52501007890726 88.64598086415859 -168.73168913838214 86.67827889666923 -167.13551571275093 85.09245362044832 C -166.45301263334525 84.41441073249796 -165.8069445192887 83.80665411652278 -165.20311919018337 83.26425166680283 A 1.875 1.875 0 0 0 -164.914 81.0401A 183.75 183.75 0 0 1 -165.244 80.3643A 1.875 1.875 0 0 0 -167.177 79.2265C -167.97595889629767 79.36986429305695 -168.85238751073433 79.50641097393512 -169.8066606885449 79.62853924015401 C -172.03848966451565 79.91411030558211 -174.69276351708362 80.1207049428829 -177.7668451687498 80.15072831514553 A 195 195 0 0 1 -179.367 76.5027C -177.26290779296016 74.26136617760744 -175.31322041208878 72.44847617943924 -173.5915423146116 70.99987825728842 C -172.8553779913575 70.3805118871438 -172.1613283839089 69.82818295013006 -171.51477418515748 69.33749658022745 A 1.875 1.875 0 0 0 -171.043 67.1448A 183.75 183.75 0 0 1 -171.316 66.4441A 1.875 1.875 0 0 0 -173.149 65.1505C -173.95654727752452 65.22743122576065 -174.84125837943276 65.29113662916197 -175.802357502819 65.33404451100809 C -178.0501459229833 65.43433723042328 -180.71241453457196 65.4210380448462 -183.77847594928915 65.1971032213478 A 195 195 0 0 1 -185.072 61.4294C -182.7899201045633 59.36947106002849 -180.69718462511406 57.72377690811518 -178.86176266295524 56.42230173270171 C -178.07696584464134 55.86584278070016 -177.3396758063767 55.37271448934184 -176.65480935875394 54.93709608471245 A 1.875 1.875 0 0 0 -176.003 52.7909A 183.75 183.75 0 0 1 -176.218 52.07A 1.875 1.875 0 0 0 -177.937 50.6295C -178.74883605122744 50.63942866344733 -179.635786166696 50.629857616870126 -180.59714595410347 50.59325201000247 C -182.8455391443241 50.50758128243567 -185.4976165208115 50.2744791209034 -188.5347133901718 49.79811580355538 A 195 195 0 0 1 -189.513 45.9365C -187.06829191531165 44.07202225525793 -184.84680384261497 42.60476570936901 -182.91017580886952 41.45930367581943 C -182.0821074535384 40.96955332084508 -181.3066134230213 40.53899424139766 -180.58811305880985 40.16141951745636 A 1.875 1.875 0 0 0 -179.762 38.0763A 183.75 183.75 0 0 1 -179.916 37.3402A 1.875 1.875 0 0 0 -181.51 35.7627C -182.32008902576518 35.705507455657454 -183.20321938614978 35.62272533905475 -184.15827277542454 35.50685629688582 C -186.39191193037158 35.23580734027528 -189.01568169410524 34.78449452691357 -192.00306756691515 34.05895676019949 A 195 195 0 0 1 -192.659 30.1297C -190.06879760752582 28.47351685004122 -187.73373195767755 27.194720760163683 -185.7091269855309 26.213096535650354 C -184.84344363969973 25.793400269227995 -184.03504302749923 25.428351556785277 -183.2878168327365 25.111399731752314 A 1.875 1.875 0 0 0 -182.292 23.1017A 183.75 183.75 0 0 1 -182.385 22.3553A 1.875 1.875 0 0 0 -183.844 20.6515C -184.64591092211882 20.52768142703724 -185.51918885157562 20.37225372620542 -186.46141185965746 20.177912751782884 C -188.66503895902235 19.723337105342278 -191.2425781020484 19.056896564291566 -194.15984610362727 18.087140506843685 A 195 195 0 0 1 -194.489 14.1172C -191.7709406848553 12.680508452972557 -189.3382483239693 11.598908293082435 -187.23949651830367 10.787827366412651 C -186.34211167701585 10.44105213960837 -185.5063266790207 10.144007447030855 -184.7354789662943 9.88984362325613 A 1.875 1.875 0 0 0 -183.577 7.9692A 183.75 183.75 0 0 1 -183.608 7.2177A 1.875 1.875 0 0 0 -184.921 5.39928C -185.71041401838377 5.20963051947515 -186.56787414316244 4.9826189632125 -187.49083043150463 4.711133602450822 C -189.64939246775026 4.076136478778983 -192.16309378413152 3.19912067469646 -194.9903160159577 1.991770743706855 A 195 195 0 0 1 -194.99 -1.99177C -192.16309378413152 -3.199120674696413 -189.64939246775026 -4.0761364787789365 -187.49083043150463 -4.711133602450776 C -186.56787414316244 -4.982618963212454 -185.71041401838377 -5.209630519475104 -184.92121045920092 -5.399270145356485 A 1.875 1.875 0 0 0 -183.608 -7.2177A 183.75 183.75 0 0 1 -183.577 -7.9692A 1.875 1.875 0 0 0 -184.735 -9.88984C -185.5063266790207 -10.144007447030727 -186.34211167701585 -10.44105213960824 -187.23949651830367 -10.787827366412522 C -189.33824832396928 -11.598908293082303 -191.7709406848553 -12.680508452972425 -194.4888043523198 -14.117204833238372 A 195 195 0 0 1 -194.16 -18.0871C -191.2425781020484 -19.05689656429143 -188.66503895902238 -19.723337105342146 -186.46141185965746 -20.177912751782753 C -185.51918885157562 -20.372253726205294 -184.64591092211882 -20.527681427037113 -183.84374257703058 -20.651501424088327 A 1.875 1.875 0 0 0 -182.385 -22.3553A 183.75 183.75 0 0 1 -182.292 -23.1017A 1.875 1.875 0 0 0 -183.288 -25.1114C -184.03504302749926 -25.428351556785234 -184.84344363969976 -25.793400269227952 -185.7091269855309 -26.213096535650312 C -187.73373195767758 -27.19472076016364 -190.06879760752585 -28.47351685004118 -192.65873694590235 -30.12974558651528 A 195 195 0 0 1 -192.003 -34.059C -189.01568169410527 -34.78449452691353 -186.3919119303716 -35.23580734027524 -184.15827277542454 -35.50685629688578 C -183.2032193861498 -35.62272533905472 -182.3200890257652 -35.70550745565741 -181.5104355179566 -35.762662007746776 A 1.875 1.875 0 0 0 -179.916 -37.3402A 183.75 183.75 0 0 1 -179.762 -38.0763A 1.875 1.875 0 0 0 -180.588 -40.1614C -181.30661342302133 -40.538994241397546 -182.0821074535384 -40.96955332084495 -182.91017580886952 -41.45930367581931 C -184.846803842615 -42.60476570936889 -187.06829191531165 -44.07202225525781 -189.51261501275513 -45.93646962627611 A 195 195 0 0 1 -188.535 -49.7981C -185.49761652081156 -50.27447912090328 -182.84553914432414 -50.50758128243555 -180.59714595410347 -50.59325201000235 C -179.635786166696 -50.62985761687001 -178.74883605122747 -50.63942866344722 -177.93722813513466 -50.629527347030006 A 1.875 1.875 0 0 0 -176.218 -52.07A 183.75 183.75 0 0 1 -176.003 -52.7909A 1.875 1.875 0 0 0 -176.655 -54.9371C -177.33967580637673 -55.372714489341796 -178.07696584464136 -55.86584278070012 -178.86176266295527 -56.42230173270167 C -180.69718462511406 -57.723776908115134 -182.78992010456332 -59.369471060028445 -185.07192975580725 -61.42940099952212 A 195 195 0 0 1 -183.778 -65.1971C -180.712414534572 -65.42103804484616 -178.0501459229833 -65.43433723042324 -175.80235750281904 -65.33404451100805 C -174.8412583794328 -65.29113662916193 -173.95654727752455 -65.22743122576061 -173.148529058174 -65.15054167686776 A 1.875 1.875 0 0 0 -171.316 -66.4441A 183.75 183.75 0 0 1 -171.043 -67.1448A 1.875 1.875 0 0 0 -171.515 -69.3375C -172.16132838390897 -69.82818295012994 -172.85537799135756 -70.38051188714368 -173.59154231461164 -70.9998782572883 C -175.31322041208884 -72.44847617943913 -177.26290779296022 -74.26136617760733 -179.3670155581592 -76.50270727534816 A 195 195 0 0 1 -177.767 -80.1507C -174.69276351708368 -80.12070494288278 -172.0384896645157 -79.914110305582 -169.80666068854495 -79.6285392401539 C -168.8523875107344 -79.506410973935 -167.97595889629773 -79.36986429305684 -167.17704995744737 -79.22651174527226 A 1.875 1.875 0 0 0 -165.244 -80.3643A 183.75 183.75 0 0 1 -164.914 -81.0401A 1.875 1.875 0 0 0 -165.203 -83.2642C -165.8069445192887 -83.80665411652275 -166.45301263334525 -84.41441073249793 -167.13551571275093 -85.0924536204483 C -168.73168913838214 -86.6782788966692 -170.5250100789073 -88.64598086415856 -172.43684276848785 -91.053422487759 A 195 195 0 0 1 -170.541 -94.5568C -167.47978378864175 -94.27306618483357 -164.85163607690583 -93.84798897551188 -162.65101220007932 -93.37909030401299 C -161.71008362126915 -93.17857591331607 -160.84792439042755 -92.97012070724794 -160.06358209021275 -92.76128440383057 A 1.875 1.875 0 0 0 -158.043 -93.7356A 183.75 183.75 0 0 1 -157.658 -94.3817A 1.875 1.875 0 0 0 -157.763 -96.6222C -158.31993109757178 -97.21264085647032 -158.91360441791292 -97.87167355746274 -159.53778406538885 -98.60376124276769 C -160.99754933617842 -100.31598107841643 -162.62225363593 -102.42505361556542 -164.32875149404944 -104.9821504976226 A 195 195 0 0 1 -162.15 -108.317C -159.1227473146568 -107.78144679311035 -156.53867865753082 -107.14079072013004 -154.38429237233055 -106.49176749594369 C -153.46313588880307 -106.2142366973761 -152.6211354633212 -105.93529692654629 -151.856717654965 -105.66240343120569 A 1.875 1.875 0 0 0 -149.763 -106.467A 183.75 183.75 0 0 1 -149.326 -107.079A 1.875 1.875 0 0 0 -149.245 -109.32C -149.75143201216025 -109.9545666870472 -150.28865514803118 -110.66037361145872 -150.85024758367518 -111.4415051929005 C -152.16363302264116 -113.26842339033149 -153.6086223038234 -115.50445939313998 -155.09812821974472 -118.19374396908731 A 195 195 0 0 1 -152.651 -121.337C -149.6787411281696 -120.55357083084094 -147.15640333479288 -119.7017122247972 -145.06297128406567 -118.87699793464547 C -144.16787932864378 -118.52434654497397 -143.35178942520486 -118.17682765085841 -142.61251785744778 -117.84174110287815 A 1.875 1.875 0 0 0 -140.459 -118.47A 183.75 183.75 0 0 1 -139.973 -119.044A 1.875 1.875 0 0 0 -139.708 -121.271C -140.15997880015124 -121.94539133468764 -140.6370819727969 -122.6931511055457 -141.13225095082632 -123.51799066236603 C -142.2902848036652 -125.44712751782018 -143.54568832428782 -127.79485259307832 -144.8080274622661 -130.59795432236336 A 195 195 0 0 1 -142.11 -133.529C -139.2122773675302 -132.50219174008419 -136.76890056264835 -131.4449496590295 -134.75072301001288 -130.45017793776344 C -133.88780996836337 -130.02481492356327 -133.10320530851214 -129.61109081258832 -132.39412995577354 -129.21610019286436 A 1.875 1.875 0 0 0 -130.197 -129.665A 183.75 183.75 0 0 1 -129.665 -130.197A 1.875 1.875 0 0 0 -129.216 -132.394C -129.61109081258843 -133.10320530851206 -130.02481492356335 -133.88780996836329 -130.45017793776356 -134.7507230100128 C -131.44494965902962 -136.76890056264827 -132.50219174008427 -139.2122773675301 -133.52874104381215 -142.11004822303414 A 195 195 0 0 1 -130.598 -144.808C -127.7948525930784 -143.54568832428774 -125.44712751782029 -142.29028480366512 -123.51799066236615 -141.13225095082623 C -122.6931511055458 -140.6370819727968 -121.94539133468776 -140.15997880015115 -121.27135590061971 -139.70778229513144 A 1.875 1.875 0 0 0 -119.044 -139.973A 183.75 183.75 0 0 1 -118.47 -140.459A 1.875 1.875 0 0 0 -117.842 -142.613C -118.17682765085846 -143.3517894252048 -118.524346544974 -144.1678793286437 -118.87699793464552 -145.06297128406564 C -119.70171222479723 -147.15640333479286 -120.55357083084098 -149.67874112816958 -121.33731792766663 -152.6513863966485 A 195 195 0 0 1 -118.194 -155.098C -115.50445939314002 -153.60862230382338 -113.26842339033155 -152.16363302264114 -111.44150519290054 -150.85024758367516 C -110.66037361145875 -150.28865514803115 -109.95456668704725 -149.7514320121602 -109.32017551712744 -149.24511858249525 A 1.875 1.875 0 0 0 -107.079 -149.326A 183.75 183.75 0 0 1 -106.467 -149.763A 1.875 1.875 0 0 0 -105.662 -151.857C -105.93529692654633 -152.62113546332117 -106.21423669737614 -153.46313588880304 -106.49176749594373 -154.3842923723305 C -107.14079072013007 -156.5386786575308 -107.78144679311039 -159.12274731465678 -108.3170378956534 -162.14996081470423 A 195 195 0 0 1 -104.982 -164.329C -102.42505361556546 -162.62225363592998 -100.31598107841646 -160.9975493361784 -98.60376124276773 -159.5377840653888 C -97.87167355746278 -158.9136044179129 -97.21264085647036 -158.31993109757175 -96.6222274856535 -157.76295937738126 A 1.875 1.875 0 0 0 -94.3817 -157.658A 183.75 183.75 0 0 1 -93.7356 -158.043A 1.875 1.875 0 0 0 -92.7613 -160.064C -92.97012070724806 -160.8479243904275 -93.17857591331618 -161.71008362126906 -93.3790903040131 -162.65101220007926 C -93.847988975512 -164.85163607690578 -94.27306618483368 -167.47978378864167 -94.55684266278149 -170.5408865824982 A 195 195 0 0 1 -91.0534 -172.437C -88.64598086415867 -170.5250100789072 -86.67827889666931 -168.73168913838208 -85.09245362044841 -167.13551571275087 C -84.41441073249804 -166.45301263334522 -83.80665411652286 -165.80694451928863 -83.2642516668029 -165.20311919018334 A 1.875 1.875 0 0 0 -81.0401 -164.914A 183.75 183.75 0 0 1 -80.3643 -165.244A 1.875 1.875 0 0 0 -79.2265 -167.177C -79.36986429305696 -167.97595889629767 -79.50641097393513 -168.85238751073433 -79.62853924015401 -169.8066606885449 C -79.91411030558213 -172.03848966451565 -80.12070494288291 -174.69276351708362 -80.15072831514554 -177.7668451687498 A 195 195 0 0 1 -76.5027 -179.367C -74.26136617760746 -177.26290779296016 -72.44847617943925 -175.31322041208878 -70.99987825728842 -173.5915423146116 C -70.38051188714381 -172.8553779913575 -69.82818295013007 -172.1613283839089 -69.33749658022747 -171.51477418515748 A 1.875 1.875 0 0 0 -67.1448 -171.043A 183.75 183.75 0 0 1 -66.4441 -171.316A 1.875 1.875 0 0 0 -65.1505 -173.149C -65.22743122576067 -173.95654727752452 -65.29113662916197 -174.84125837943276 -65.3340445110081 -175.802357502819 C -65.4343372304233 -178.0501459229833 -65.42103804484621 -180.71241453457196 -65.19710322134782 -183.77847594928915 A 195 195 0 0 1 -61.4294 -185.072C -59.369471060028495 -182.7899201045633 -57.72377690811519 -180.69718462511406 -56.42230173270172 -178.86176266295524 C -55.86584278070017 -178.07696584464134 -55.372714489341845 -177.3396758063767 -54.937096084712465 -176.65480935875394 A 1.875 1.875 0 0 0 -52.7909 -176.003A 183.75 183.75 0 0 1 -52.07 -176.218A 1.875 1.875 0 0 0 -50.6295 -177.937C -50.639428663447276 -178.74883605122744 -50.62985761687006 -179.635786166696 -50.59325201000241 -180.59714595410347 C -50.50758128243561 -182.8455391443241 -50.27447912090334 -185.49761652081153 -49.79811580355532 -188.5347133901718 A 195 195 0 0 1 -45.9365 -189.513C -44.07202225525786 -187.06829191531162 -42.60476570936895 -184.84680384261497 -41.45930367581936 -182.91017580886952 C -40.969553320845016 -182.0821074535384 -40.5389942413976 -181.3066134230213 -40.161419517456295 -180.58811305880985 A 1.875 1.875 0 0 0 -38.0763 -179.762A 183.75 183.75 0 0 1 -37.3402 -179.916A 1.875 1.875 0 0 0 -35.7627 -181.51C -35.70550745565754 -182.32008902576518 -35.62272533905485 -183.20321938614975 -35.506856296885914 -184.1582727754245 C -35.23580734027537 -186.39191193037158 -34.78449452691366 -189.0156816941052 -34.05895676019958 -192.00306756691515 A 195 195 0 0 1 -30.1297 -192.659C -28.473516850041317 -190.0687976075258 -27.19472076016378 -187.73373195767755 -26.213096535650447 -185.70912698553087 C -25.79340026922809 -184.8434436396997 -25.42835155678537 -184.03504302749923 -25.111399731752407 -183.2878168327365 A 1.875 1.875 0 0 0 -23.1017 -182.292A 183.75 183.75 0 0 1 -22.3553 -182.385A 1.875 1.875 0 0 0 -20.6515 -183.844C -20.52768142703725 -184.64591092211882 -20.372253726205432 -185.51918885157562 -20.17791275178289 -186.46141185965746 C -19.72333710534229 -188.66503895902235 -19.056896564291577 -191.2425781020484 -18.087140506843696 -194.15984610362727 A 195 195 0 0 1 -14.1172 -194.489C -12.680508452972568 -191.7709406848553 -11.598908293082445 -189.3382483239693 -10.787827366412662 -187.23949651830367 C -10.44105213960838 -186.34211167701585 -10.144007447030866 -185.5063266790207 -9.88984362325614 -184.7354789662943 A 1.875 1.875 0 0 0 -7.9692 -183.577A 183.75 183.75 0 0 1 -7.2177 -183.608A 1.875 1.875 0 0 0 -5.39928 -184.921C -5.20963051947516 -185.71041401838377 -4.982618963212512 -186.56787414316244 -4.7111336024508335 -187.49083043150463 C -4.076136478778994 -189.64939246775026 -3.1991206746964718 -192.16309378413152 -1.9917707437068668 -194.9903160159577 A 195 195 0 0 1 1.99177 -194.99C 3.1991206746964016 -192.16309378413152 4.076136478778925 -189.64939246775026 4.711133602450764 -187.49083043150463 C 4.982618963212443 -186.56787414316244 5.209630519475093 -185.71041401838377 5.399270145356473 -184.92121045920092 A 1.875 1.875 0 0 0 7.2177 -183.608A 183.75 183.75 0 0 1 7.9692 -183.577A 1.875 1.875 0 0 0 9.88984 -184.735C 10.144007447030798 -185.5063266790207 10.441052139608313 -186.34211167701585 10.787827366412595 -187.23949651830367 C 11.598908293082378 -189.3382483239693 12.6805084529725 -191.7709406848553 14.117204833238446 -194.4888043523198 A 195 195 0 0 1 18.0871 -194.16C 19.056896564291506 -191.2425781020484 19.72333710534222 -188.66503895902235 20.177912751782827 -186.46141185965746 C 20.372253726205365 -185.51918885157562 20.527681427037184 -184.64591092211882 20.6515014240884 -183.84374257703058 A 1.875 1.875 0 0 0 22.3553 -182.385A 183.75 183.75 0 0 1 23.1017 -182.292A 1.875 1.875 0 0 0 25.1114 -183.288C 25.428351556785138 -184.03504302749926 25.793400269227853 -184.84344363969976 26.213096535650212 -185.7091269855309 C 27.19472076016354 -187.73373195767758 28.47351685004108 -190.06879760752585 30.12974558651518 -192.65873694590235 A 195 195 0 0 1 34.059 -192.003C 34.78449452691343 -189.01568169410527 35.23580734027514 -186.3919119303716 35.50685629688568 -184.15827277542454 C 35.62272533905462 -183.2032193861498 35.70550745565731 -182.3200890257652 35.76266200774668 -181.5104355179566 A 1.875 1.875 0 0 0 37.3402 -179.916A 183.75 183.75 0 0 1 38.0763 -179.762A 1.875 1.875 0 0 0 40.1614 -180.588C 40.53899424139752 -181.30661342302133 40.96955332084494 -182.0821074535384 41.45930367581929 -182.91017580886952 C 42.60476570936888 -184.846803842615 44.072022255257785 -187.06829191531165 45.93646962627609 -189.51261501275513 A 195 195 0 0 1 49.7981 -188.535C 50.27447912090326 -185.49761652081156 50.50758128243554 -182.84553914432414 50.59325201000234 -180.59714595410347 C 50.62985761687 -179.635786166696 50.639428663447205 -178.74883605122747 50.62952734702999 -177.93722813513466 A 1.875 1.875 0 0 0 52.07 -176.218A 183.75 183.75 0 0 1 52.7909 -176.003A 1.875 1.875 0 0 0 54.9371 -176.655C 55.37271448934178 -177.33967580637673 55.865842780700106 -178.07696584464136 56.422301732701655 -178.86176266295527 C 57.72377690811513 -180.69718462511406 59.36947106002843 -182.78992010456332 61.42940099952211 -185.07192975580725 A 195 195 0 0 1 65.1971 -183.778C 65.42103804484614 -180.712414534572 65.43433723042324 -178.0501459229833 65.33404451100803 -175.80235750281904 C 65.29113662916191 -174.8412583794328 65.2274312257606 -173.95654727752455 65.15054167686776 -173.148529058174 A 1.875 1.875 0 0 0 66.4441 -171.316A 183.75 183.75 0 0 1 67.1448 -171.043A 1.875 1.875 0 0 0 69.3375 -171.515C 69.82818295013001 -172.16132838390894 70.38051188714375 -172.85537799135753 70.99987825728836 -173.59154231461162 C 72.44847617943918 -175.3132204120888 74.2613661776074 -177.26290779296016 76.50270727534823 -179.36701555815918 A 195 195 0 0 1 80.1507 -177.767C 80.12070494288285 -174.69276351708362 79.91411030558206 -172.03848966451568 79.62853924015396 -169.80666068854492 C 79.50641097393508 -168.85238751073436 79.3698642930569 -167.9759588962977 79.22651174527233 -167.17704995744734 A 1.875 1.875 0 0 0 80.3643 -165.244A 183.75 183.75 0 0 1 81.0401 -164.914A 1.875 1.875 0 0 0 83.2642 -165.203C 83.80665411652267 -165.80694451928875 84.41441073249784 -166.4530126333453 85.09245362044821 -167.135515712751 C 86.67827889666911 -168.7316891383822 88.64598086415847 -170.52501007890731 91.05342248775891 -172.43684276848788 A 195 195 0 0 1 94.5568 -170.541C 94.27306618483348 -167.47978378864178 93.8479889755118 -164.8516360769059 93.3790903040129 -162.65101220007938 C 93.17857591331598 -161.7100836212692 92.97012070724786 -160.8479243904276 92.7612844038305 -160.0635820902128 A 1.875 1.875 0 0 0 93.7356 -158.043A 183.75 183.75 0 0 1 94.3817 -157.658A 1.875 1.875 0 0 0 96.6222 -157.763C 97.21264085647029 -158.31993109757178 97.87167355746271 -158.91360441791292 98.60376124276766 -159.53778406538885 C 100.3159810784164 -160.9975493361784 102.42505361556539 -162.62225363593 104.98215049762257 -164.32875149404944 A 195 195 0 0 1 108.317 -162.15C 107.78144679311032 -159.1227473146568 107.14079072013001 -156.53867865753085 106.49176749594366 -154.38429237233055 C 106.21423669737607 -153.46313588880307 105.93529692654626 -152.6211354633212 105.66240343120568 -151.856717654965 A 1.875 1.875 0 0 0 106.467 -149.763A 183.75 183.75 0 0 1 107.079 -149.326A 1.875 1.875 0 0 0 109.32 -149.245C 109.95456668704719 -149.75143201216025 110.6603736114587 -150.28865514803118 111.44150519290048 -150.85024758367518 C 113.26842339033146 -152.16363302264116 115.50445939313997 -153.6086223038234 118.1937439690873 -155.09812821974472 A 195 195 0 0 1 121.337 -152.651C 120.55357083084093 -149.6787411281696 119.70171222479718 -147.15640333479288 118.87699793464546 -145.06297128406567 C 118.52434654497394 -144.16787932864378 118.1768276508584 -143.35178942520486 117.84174110287813 -142.61251785744778 A 1.875 1.875 0 0 0 118.47 -140.459A 183.75 183.75 0 0 1 119.044 -139.973A 1.875 1.875 0 0 0 121.271 -139.708C 121.94539133468757 -140.15997880015132 122.69315110554564 -140.63708197279698 123.51799066236597 -141.1322509508264 C 125.44712751782012 -142.2902848036653 127.79485259307823 -143.5456883242879 130.5979543223633 -144.8080274622662 A 195 195 0 0 1 133.529 -142.11C 132.5021917400841 -139.21227736753028 131.44494965902945 -136.76890056264844 130.45017793776339 -134.75072301001296 C 130.0248149235632 -133.88780996836346 129.61109081258826 -133.10320530851223 129.2161001928643 -132.39412995577362 A 1.875 1.875 0 0 0 129.665 -130.197A 183.75 183.75 0 0 1 130.197 -129.665A 1.875 1.875 0 0 0 132.394 -129.216C 133.10320530851206 -129.61109081258843 133.88780996836329 -130.02481492356335 134.7507230100128 -130.45017793776356 C 136.76890056264827 -131.44494965902962 139.2122773675301 -132.50219174008427 142.11004822303414 -133.52874104381215 A 195 195 0 0 1 144.808 -130.598C 143.54568832428774 -127.7948525930784 142.29028480366512 -125.44712751782029 141.13225095082623 -123.51799066236615 C 140.6370819727968 -122.6931511055458 140.15997880015115 -121.94539133468776 139.70778229513144 -121.27135590061971 A 1.875 1.875 0 0 0 139.973 -119.044A 183.75 183.75 0 0 1 140.459 -118.47A 1.875 1.875 0 0 0 142.613 -117.842C 143.3517894252048 -118.17682765085846 144.1678793286437 -118.524346544974 145.06297128406564 -118.87699793464552 C 147.15640333479286 -119.70171222479723 149.67874112816958 -120.55357083084098 152.6513863966485 -121.33731792766663 A 195 195 0 0 1 155.098 -118.194C 153.60862230382338 -115.50445939314002 152.16363302264114 -113.26842339033155 150.85024758367516 -111.44150519290054 C 150.28865514803115 -110.66037361145875 149.7514320121602 -109.95456668704725 149.24511858249525 -109.32017551712744 A 1.875 1.875 0 0 0 149.326 -107.079A 183.75 183.75 0 0 1 149.763 -106.467A 1.875 1.875 0 0 0 151.857 -105.662C 152.62113546332117 -105.93529692654633 153.46313588880304 -106.21423669737614 154.3842923723305 -106.49176749594373 C 156.5386786575308 -107.14079072013007 159.12274731465678 -107.78144679311039 162.14996081470423 -108.3170378956534 A 195 195 0 0 1 164.329 -104.982C 162.62225363592998 -102.42505361556546 160.9975493361784 -100.31598107841646 159.5377840653888 -98.60376124276773 C 158.9136044179129 -97.87167355746278 158.31993109757175 -97.21264085647036 157.76295937738126 -96.6222274856535 A 1.875 1.875 0 0 0 157.658 -94.3817A 183.75 183.75 0 0 1 158.043 -93.7356A 1.875 1.875 0 0 0 160.064 -92.7613C 160.8479243904275 -92.97012070724807 161.71008362126906 -93.1785759133162 162.65101220007926 -93.3790903040131 C 164.85163607690578 -93.84798897551201 167.47978378864167 -94.2730661848337 170.5408865824982 -94.55684266278149 A 195 195 0 0 1 172.437 -91.0534C 170.5250100789072 -88.64598086415869 168.73168913838208 -86.67827889666933 167.13551571275087 -85.09245362044841 C 166.45301263334522 -84.41441073249806 165.80694451928863 -83.80665411652288 165.20311919018334 -83.26425166680292 A 1.875 1.875 0 0 0 164.914 -81.0401A 183.75 183.75 0 0 1 165.244 -80.3643A 1.875 1.875 0 0 0 167.177 -79.2265C 167.97595889629767 -79.36986429305698 168.85238751073433 -79.50641097393515 169.8066606885449 -79.62853924015403 C 172.03848966451565 -79.91411030558213 174.69276351708362 -80.12070494288292 177.7668451687498 -80.15072831514554 A 195 195 0 0 1 179.367 -76.5027C 177.26290779296016 -74.26136617760747 175.31322041208878 -72.44847617943925 173.5915423146116 -70.99987825728843 C 172.8553779913575 -70.38051188714383 172.1613283839089 -69.82818295013008 171.51477418515748 -69.33749658022748 A 1.875 1.875 0 0 0 171.043 -67.1448A 183.75 183.75 0 0 1 171.316 -66.4441A 1.875 1.875 0 0 0 173.149 -65.1505C 173.95654727752452 -65.22743122576068 174.84125837943276 -65.29113662916198 175.802357502819 -65.33404451100812 C 178.0501459229833 -65.43433723042331 180.71241453457196 -65.42103804484623 183.77847594928915 -65.19710322134782 A 195 195 0 0 1 185.072 -61.4294C 182.7899201045633 -59.36947106002851 180.69718462511406 -57.7237769081152 178.86176266295524 -56.42230173270173 C 178.07696584464134 -55.865842780700184 177.3396758063767 -55.37271448934186 176.65480935875394 -54.93709608471247 A 1.875 1.875 0 0 0 176.003 -52.7909A 183.75 183.75 0 0 1 176.218 -52.07A 1.875 1.875 0 0 0 177.937 -50.6295C 178.74883605122744 -50.63942866344728 179.635786166696 -50.62985761687007 180.59714595410347 -50.593252010002416 C 182.8455391443241 -50.507581282435616 185.4976165208115 -50.274479120903344 188.5347133901718 -49.79811580355533 A 195 195 0 0 1 189.513 -45.9365C 187.06829191531165 -44.07202225525787 184.84680384261497 -42.604765709368955 182.91017580886952 -41.45930367581937 C 182.0821074535384 -40.96955332084502 181.3066134230213 -40.53899424139761 180.58811305880985 -40.16141951745631 A 1.875 1.875 0 0 0 179.762 -38.0763A 183.75 183.75 0 0 1 179.916 -37.3402A 1.875 1.875 0 0 0 181.51 -35.7627C 182.32008902576518 -35.70550745565755 183.20321938614975 -35.62272533905485 184.1582727754245 -35.50685629688592 C 186.39191193037158 -35.235807340275386 189.0156816941052 -34.784494526913676 192.00306756691515 -34.05895676019959 A 195 195 0 0 1 192.659 -30.1297C 190.0687976075258 -28.473516850041328 187.73373195767755 -27.19472076016379 185.70912698553087 -26.213096535650457 C 184.8434436396997 -25.793400269228098 184.03504302749923 -25.42835155678538 183.2878168327365 -25.111399731752417 A 1.875 1.875 0 0 0 182.292 -23.1017A 183.75 183.75 0 0 1 182.385 -22.3553A 1.875 1.875 0 0 0 183.844 -20.6515C 184.64591092211882 -20.527681427037265 185.51918885157562 -20.372253726205443 186.46141185965746 -20.177912751782905 C 188.66503895902235 -19.723337105342303 191.2425781020484 -19.05689656429159 194.15984610362727 -18.08714050684371 A 195 195 0 0 1 194.489 -14.1172C 191.7709406848553 -12.680508452972582 189.3382483239693 -11.59890829308246 187.23949651830367 -10.787827366412676 C 186.34211167701585 -10.441052139608393 185.5063266790207 -10.144007447030877 184.7354789662943 -9.889843623256152 A 1.875 1.875 0 0 0 183.577 -7.9692A 183.75 183.75 0 0 1 183.608 -7.2177A 1.875 1.875 0 0 0 184.921 -5.39928" stroke="#191919" stroke-width="0.35 px" style="stroke-width:0.35;stroke-miterlimit:4;stroke-dasharray:none;fill:none;fill-rule: evenodd "/>
<title>b'InvoluteGear'</title>
</g>
</svg>