<?xml version="1.0"?>
<!DOCTYPE svg PUBLIC "-//W3C//DTD SVG 1.1//EN" "http://www.w3.org/Graphics/SVG/1.1/DTD/svg11.dtd">
<svg width="132.5605502880501mm" height="132.5605502880501mm" viewBox="0 0 132.5605502880501 132.5605502880501" xmlns="http://www.w3.org/2000/svg" version="1.1">
<g id="InvoluteGear" transform="translate(66.280275,66.280275) scale(1,-1)">
<path id="InvoluteGear_w0000"  d="M 55.41400867816786 -4.462358369286123 L 56.29493347112717 -4.529537979814586 C 56.54686295133926 -4.5351942091245965 57.305710619240344 -4.523181891896284 58.57009706675887 -4.255057689091511 C 60.084376104920764 -3.9297170104906773 62.26960511579112 -3.2400330824558052 64.9806619059069 -1.7867517943153142 A 65 65 0 0 1 64.9807 1.78675C 62.26960511579112 3.2400330824558052 60.084376104920764 3.929717010490677 58.57009706675887 4.25505768909151 C 57.305710619240344 4.523181891896284 56.54686295133926 4.5351942091245965 56.29493347112717 4.529537979814586 L 55.41400867816786 4.462358369286102 A 1.875 1.875 0 0 0 53.4008 6.11687A 53.75 53.75 0 0 1 53.1644 7.9127A 1.875 1.875 0 0 0 54.6808 10.0319L 55.549060823677856 10.195003209246947 C 55.793869954887185 10.25474385877866 56.523751499057575 10.462751095007498 57.6756593729868 11.04898648013711 C 59.054136240387066 11.755165698615892 60.98640204266633 12.98692810260506 63.22894493751361 15.092363161319074 A 65 65 0 0 1 62.3041 18.5441C 59.30923750566275 19.24619136735514 57.01996503203041 19.34679599949672 55.47307943709319 19.269126708623855 C 54.18238026288636 19.200867507778838 53.446280685766965 19.016066286438807 53.20439943429543 18.94539864096719 L 52.37087878840502 18.65250800643682 A 1.875 1.875 0 0 0 49.9981 19.7296A 53.75 53.75 0 0 1 49.3049 21.403A 1.875 1.875 0 0 0 50.2211 23.8425L 51.01761148025832 24.224771777637706 C 51.2386169247392 24.345838079471648 51.88979212412996 24.735664885300228 52.85072080647937 25.600060480057873 C 53.99945458264543 26.638953291691614 55.54707645512846 28.32885159938683 57.16827986240077 30.942958508818954 A 65 65 0 0 1 55.3815 34.0377C 52.30704337267265 33.940753516404286 50.06973757215475 33.44542281322914 48.59566311738786 32.970036586700985 C 47.366610232233676 32.570045733940105 46.7034227156146 32.2010248718676 46.488073500443726 32.07016169348946 L 45.75876005618166 31.571520047675797 A 1.875 1.875 0 0 0 43.188 31.9978A 53.75 53.75 0 0 1 42.0854 33.4348A 1.875 1.875 0 0 0 42.339 36.0283L 43.009396225048484 36.603662182710664 C 43.191536826988305 36.77780366844837 43.71962916787886 37.32288399127873 44.42409295695608 38.40653266436294 C 45.26479933341452 39.707340240890346 46.32230940305769 41.740210675311175 47.211690989714725 44.684842369599544 A 65 65 0 0 1 44.6848 47.2117C 41.74021067531119 46.32230940305769 39.70734024089035 45.264799333414516 38.40653266436295 44.42409295695607 C 37.32288399127874 43.71962916787885 36.77780366844838 43.1915368269883 36.60366218271067 43.00939622504848 L 36.02825744605594 42.33898517206943 A 1.875 1.875 0 0 0 33.4348 42.0854A 53.75 53.75 0 0 1 31.9978 43.188A 1.875 1.875 0 0 0 31.5715 45.7588L 32.07016169348947 46.48807350044372 C 32.20102487186761 46.70342271561459 32.57004573394012 47.36661023223367 32.970036586701 48.59566311738786 C 33.44542281322916 50.06973757215474 33.9407535164043 52.307043372672645 34.037703397087945 55.38152806808546 A 65 65 0 0 1 30.943 57.1683C 28.32885159938684 55.547076455128455 26.638953291691625 53.99945458264542 25.600060480057884 52.85072080647937 C 24.73566488530024 51.889792124129954 24.34583807947166 51.23861692473919 24.224771777637716 51.01761148025831 L 23.84248863049207 50.22111842546776 A 1.875 1.875 0 0 0 21.403 49.3049A 53.75 53.75 0 0 1 19.7296 49.9981A 1.875 1.875 0 0 0 18.6525 52.3709L 18.945398640967202 53.204399434295425 C 19.016066286438818 53.44628068576696 19.20086750777885 54.18238026288635 19.269126708623865 55.47307943709318 C 19.346795999496734 57.0199650320304 19.246191367355152 59.30923750566274 18.544102567914077 62.304054151033796 A 65 65 0 0 1 15.0924 63.2289C 12.98692810260507 60.98640204266632 11.755165698615905 59.054136240387066 11.048986480137124 57.67565937298679 C 10.462751095007512 56.523751499057575 10.254743858778674 55.79386995488718 10.19500320924696 55.54906082367785 L 10.031893616335598 54.68076545249276 A 1.875 1.875 0 0 0 7.9127 53.1644A 53.75 53.75 0 0 1 6.11687 53.4008A 1.875 1.875 0 0 0 4.46236 55.414L 4.52953797981459 56.29493347112717 C 4.5351942091246 56.54686295133926 4.523181891896288 57.305710619240344 4.255057689091514 58.57009706675887 C 3.929717010490681 60.084376104920764 3.2400330824558092 62.26960511579112 1.7867517943153182 64.9806619059069 A 65 65 0 0 1 -1.78675 64.9807C -3.240033082455801 62.26960511579112 -3.9297170104906733 60.084376104920764 -4.255057689091506 58.57009706675887 C -4.5231818918962805 57.305710619240344 -4.535194209124593 56.54686295133926 -4.529537979814583 56.29493347112717 L -4.462358369286099 55.41400867816786 A 1.875 1.875 0 0 0 -6.11687 53.4008A 53.75 53.75 0 0 1 -7.9127 53.1644A 1.875 1.875 0 0 0 -10.0319 54.6808L -10.195003209246941 55.549060823677856 C -10.254743858778655 55.793869954887185 -10.462751095007494 56.523751499057575 -11.048986480137103 57.6756593729868 C -11.755165698615885 59.054136240387066 -12.986928102605052 60.98640204266633 -15.092363161319067 63.22894493751361 A 65 65 0 0 1 -18.5441 62.3041C -19.246191367355134 59.30923750566275 -19.346795999496713 57.01996503203041 -19.269126708623848 55.47307943709319 C -19.20086750777883 54.18238026288636 -19.0160662864388 53.446280685766965 -18.945398640967184 53.20439943429543 L -18.652508006436815 52.37087878840502 A 1.875 1.875 0 0 0 -19.7296 49.9981A 53.75 53.75 0 0 1 -21.403 49.3049A 1.875 1.875 0 0 0 -23.8425 50.2211L -24.224771777637695 51.017611480258324 C -24.345838079471637 51.238616924739205 -24.735664885300217 51.88979212412997 -25.600060480057863 52.85072080647938 C -26.6389532916916 53.999454582645434 -28.32885159938682 55.54707645512847 -30.942958508818943 57.16827986240078 A 65 65 0 0 1 -34.0377 55.3815C -33.94075351640428 52.30704337267266 -33.445422813229136 50.06973757215476 -32.97003658670098 48.595663117387865 C -32.5700457339401 47.36661023223368 -32.20102487186759 46.70342271561461 -32.07016169348945 46.48807350044373 L -31.571520047675786 45.75876005618167 A 1.875 1.875 0 0 0 -31.9978 43.188A 53.75 53.75 0 0 1 -33.4348 42.0854A 1.875 1.875 0 0 0 -36.0283 42.339L -36.603662182710664 43.009396225048484 C -36.77780366844837 43.191536826988305 -37.32288399127873 43.71962916787886 -38.40653266436294 44.42409295695608 C -39.707340240890346 45.26479933341452 -41.740210675311175 46.32230940305769 -44.684842369599544 47.211690989714725 A 65 65 0 0 1 -47.2117 44.6848C -46.32230940305769 41.74021067531119 -45.264799333414516 39.70734024089035 -44.42409295695607 38.40653266436295 C -43.71962916787885 37.32288399127874 -43.1915368269883 36.77780366844838 -43.00939622504848 36.60366218271067 L -42.33898517206943 36.02825744605594 A 1.875 1.875 0 0 0 -42.0854 33.4348A 53.75 53.75 0 0 1 -43.188 31.9978A 1.875 1.875 0 0 0 -45.7588 31.5715L -46.48807350044372 32.07016169348948 C -46.703422715614586 32.201024871867624 -47.36661023223366 32.57004573394013 -48.59566311738785 32.970036586701006 C -50.069737572154736 33.44542281322917 -52.30704337267264 33.940753516404314 -55.381528068085444 34.03770339708796 A 65 65 0 0 1 -57.1683 30.943C -55.54707645512845 28.328851599386855 -53.99945458264541 26.63895329169164 -52.850720806479366 25.6000604800579 C -51.88979212412995 24.73566488530025 -51.23861692473918 24.34583807947167 -51.01761148025831 24.224771777637727 L -50.22111842546775 23.842488630492085 A 1.875 1.875 0 0 0 -49.3049 21.403A 53.75 53.75 0 0 1 -49.9981 19.7296A 1.875 1.875 0 0 0 -52.3709 18.6525L -53.204399434295425 18.945398640967205 C -53.44628068576696 19.01606628643882 -54.18238026288635 19.200867507778852 -55.47307943709318 19.26912670862387 C -57.0199650320304 19.346795999496738 -59.30923750566274 19.246191367355156 -62.304054151033796 18.54410256791408 A 65 65 0 0 1 -63.2289 15.0924C -60.98640204266632 12.986928102605074 -59.054136240387066 11.755165698615908 -57.67565937298679 11.048986480137128 C -56.523751499057575 10.462751095007516 -55.79386995488718 10.254743858778678 -55.54906082367785 10.195003209246963 L -54.68076545249276 10.031893616335601 A 1.875 1.875 0 0 0 -53.1644 7.9127A 53.75 53.75 0 0 1 -53.4008 6.11687A 1.875 1.875 0 0 0 -55.414 4.46236L -56.29493347112717 4.529537979814593 C -56.54686295133926 4.535194209124604 -57.305710619240344 4.523181891896291 -58.57009706675887 4.255057689091518 C -60.084376104920764 3.929717010490685 -62.26960511579112 3.240033082455813 -64.9806619059069 1.7867517943153222 A 65 65 0 0 1 -64.9807 -1.78675C -62.26960511579112 -3.2400330824557977 -60.084376104920764 -3.92971701049067 -58.57009706675887 -4.255057689091504 C -57.305710619240344 -4.523181891896277 -56.54686295133926 -4.535194209124589 -56.29493347112717 -4.529537979814579 L -55.41400867816786 -4.462358369286095 A 1.875 1.875 0 0 0 -53.4008 -6.11687A 53.75 53.75 0 0 1 -53.1644 -7.9127A 1.875 1.875 0 0 0 -54.6808 -10.0319L -55.54906082367786 -10.195003209246924 C -55.79386995488719 -10.254743858778639 -56.52375149905758 -10.462751095007476 -57.67565937298681 -11.048986480137089 C -59.05413624038707 -11.755165698615869 -60.986402042666334 -12.986928102605034 -63.22894493751362 -15.092363161319048 A 65 65 0 0 1 -62.3041 -18.5441C -59.30923750566276 -19.246191367355117 -57.01996503203042 -19.3467959994967 -55.4730794370932 -19.26912670862383 C -54.18238026288637 -19.200867507778817 -53.44628068576697 -19.016066286438786 -53.20439943429544 -18.94539864096717 L -52.37087878840503 -18.652508006436797 A 1.875 1.875 0 0 0 -49.9981 -19.7296A 53.75 53.75 0 0 1 -49.3049 -21.403A 1.875 1.875 0 0 0 -50.2211 -23.8425L -51.017611480258324 -24.224771777637695 C -51.238616924739205 -24.345838079471637 -51.88979212412997 -24.735664885300217 -52.85072080647938 -25.600060480057863 C -53.999454582645434 -26.6389532916916 -55.54707645512847 -28.32885159938682 -57.16827986240078 -30.942958508818943 A 65 65 0 0 1 -55.3815 -34.0377C -52.30704337267266 -33.94075351640428 -50.06973757215476 -33.445422813229136 -48.595663117387865 -32.97003658670098 C -47.36661023223368 -32.5700457339401 -46.70342271561461 -32.20102487186759 -46.48807350044373 -32.07016169348945 L -45.75876005618167 -31.571520047675786 A 1.875 1.875 0 0 0 -43.188 -31.9978A 53.75 53.75 0 0 1 -42.0854 -33.4348A 1.875 1.875 0 0 0 -42.339 -36.0283L -43.0093962250485 -36.603662182710636 C -43.191536826988326 -36.77780366844836 -43.71962916787888 -37.322883991278715 -44.4240929569561 -38.40653266436291 C -45.26479933341454 -39.707340240890325 -46.32230940305771 -41.740210675311154 -47.21169098971475 -44.68484236959952 A 65 65 0 0 1 -44.6848 -47.2117C -41.74021067531121 -46.322309403057666 -39.70734024089037 -45.264799333414494 -38.40653266436297 -44.42409295695606 C -37.32288399127876 -43.719629167878836 -36.7778036684484 -43.19153682698828 -36.603662182710686 -43.00939622504846 L -36.02825744605596 -42.338985172069414 A 1.875 1.875 0 0 0 -33.4348 -42.0854A 53.75 53.75 0 0 1 -31.9978 -43.188A 1.875 1.875 0 0 0 -31.5715 -45.7588L -32.07016169348949 -46.48807350044371 C -32.20102487186763 -46.70342271561458 -32.570045733940134 -47.366610232233654 -32.97003658670101 -48.59566311738784 C -33.44542281322917 -50.06973757215473 -33.940753516404314 -52.30704337267263 -34.03770339708797 -55.38152806808544 A 65 65 0 0 1 -30.943 -57.1683C -28.328851599386862 -55.54707645512844 -26.638953291691646 -53.999454582645406 -25.600060480057905 -52.85072080647936 C -24.735664885300256 -51.88979212412994 -24.34583807947168 -51.238616924739176 -24.224771777637734 -51.0176114802583 L -23.84248863049209 -50.22111842546775 A 1.875 1.875 0 0 0 -21.403 -49.3049A 53.75 53.75 0 0 1 -19.7296 -49.9981A 1.875 1.875 0 0 0 -18.6525 -52.3709L -18.94539864096723 -53.20439943429541 C -19.016066286438846 -53.44628068576695 -19.200867507778877 -54.18238026288634 -19.269126708623894 -55.473079437093176 C -19.346795999496763 -57.01996503203039 -19.246191367355184 -59.309237505662736 -18.54410256791411 -62.30405415103379 A 65 65 0 0 1 -15.0924 -63.2289C -12.986928102605102 -60.98640204266631 -11.755165698615937 -59.05413624038706 -11.048986480137152 -57.675659372986786 C -10.46275109500754 -56.52375149905757 -10.254743858778703 -55.79386995488717 -10.195003209246988 -55.54906082367785 L -10.031893616335628 -54.68076545249275 A 1.875 1.875 0 0 0 -7.9127 -53.1644A 53.75 53.75 0 0 1 -6.11687 -53.4008A 1.875 1.875 0 0 0 -4.46236 -55.414L -4.529537979814597 -56.29493347112717 C -4.535194209124607 -56.54686295133926 -4.523181891896295 -57.305710619240344 -4.2550576890915215 -58.57009706675887 C -3.9297170104906884 -60.084376104920764 -3.240033082455817 -62.26960511579112 -1.7867517943153262 -64.9806619059069 A 65 65 0 0 1 1.78675 -64.9807C 3.2400330824557937 -62.26960511579112 3.9297170104906662 -60.084376104920764 4.2550576890915 -58.57009706675887 C 4.523181891896273 -57.305710619240344 4.535194209124586 -56.54686295133926 4.529537979814576 -56.29493347112717 L 4.462358369286092 -55.41400867816786 A 1.875 1.875 0 0 0 6.11687 -53.4008A 53.75 53.75 0 0 1 7.9127 -53.1644A 1.875 1.875 0 0 0 10.0319 -54.6808L 10.19500320924692 -55.54906082367786 C 10.254743858778635 -55.79386995488719 10.462751095007473 -56.52375149905758 11.048986480137085 -57.67565937298681 C 11.755165698615865 -59.05413624038707 12.986928102605031 -60.986402042666334 15.092363161319044 -63.22894493751362 A 65 65 0 0 1 18.5441 -62.3041C 19.246191367355113 -59.30923750566276 19.346795999496695 -57.01996503203042 19.269126708623826 -55.4730794370932 C 19.200867507778813 -54.18238026288637 19.016066286438782 -53.44628068576697 18.945398640967166 -53.20439943429544 L 18.652508006436797 -52.37087878840503 A 1.875 1.875 0 0 0 19.7296 -49.9981A 53.75 53.75 0 0 1 21.403 -49.3049A 1.875 1.875 0 0 0 23.8425 -50.2211L 24.224771777637667 -51.01761148025833 C 24.345838079471612 -51.238616924739205 24.73566488530019 -51.88979212412997 25.600060480057834 -52.85072080647939 C 26.63895329169157 -53.99945458264544 28.328851599386788 -55.547076455128476 30.942958508818908 -57.168279862400794 A 65 65 0 0 1 34.0377 -55.3815C 33.94075351640424 -52.30704337267268 33.44542281322911 -50.069737572154764 32.97003658670095 -48.595663117387886 C 32.57004573394007 -47.3666102322337 32.20102487186757 -46.70342271561462 32.070161693489425 -46.488073500443754 L 31.571520047675758 -45.758760056181686 A 1.875 1.875 0 0 0 31.9978 -43.188A 53.75 53.75 0 0 1 33.4348 -42.0854A 1.875 1.875 0 0 0 36.0283 -42.339L 36.60366218271066 -43.00939622504849 C 36.77780366844837 -43.19153682698831 37.32288399127873 -43.719629167878864 38.40653266436294 -44.42409295695609 C 39.707340240890346 -45.26479933341452 41.740210675311175 -46.322309403057695 44.684842369599544 -47.21169098971473 A 65 65 0 0 1 47.2117 -44.6848C 46.32230940305769 -41.7402106753112 45.264799333414516 -39.70734024089035 44.42409295695607 -38.406532664362956 C 43.71962916787885 -37.322883991278744 43.1915368269883 -36.777803668448385 43.009396225048484 -36.60366218271068 L 42.33898517206943 -36.028257446055946 A 1.875 1.875 0 0 0 42.0854 -33.4348A 53.75 53.75 0 0 1 43.188 -31.9978A 1.875 1.875 0 0 0 45.7588 -31.5715L 46.48807350044371 -32.07016169348949 C 46.70342271561458 -32.20102487186763 47.366610232233654 -32.570045733940134 48.59566311738784 -32.97003658670101 C 50.06973757215473 -33.44542281322917 52.30704337267263 -33.940753516404314 55.38152806808544 -34.03770339708797 A 65 65 0 0 1 57.1683 -30.943C 55.54707645512844 -28.328851599386862 53.999454582645406 -26.638953291691646 52.85072080647936 -25.600060480057905 C 51.88979212412994 -24.735664885300256 51.238616924739176 -24.34583807947168 51.0176114802583 -24.224771777637734 L 50.22111842546775 -23.84248863049209 A 1.875 1.875 0 0 0 49.3049 -21.403A 53.75 53.75 0 0 1 49.9981 -19.7296A 1.875 1.875 0 0 0 52.3709 -18.6525L 53.20439943429541 -18.945398640967234 C 53.44628068576695 -19.01606628643885 54.18238026288634 -19.20086750777888 55.473079437093176 -19.269126708623897 C 57.01996503203039 -19.346795999496766 59.309237505662736 -19.246191367355188 62.30405415103379 -18.544102567914113 A 65 65 0 0 1 63.2289 -15.0924C 60.98640204266631 -12.986928102605106 59.05413624038706 -11.75516569861594 57.675659372986786 -11.048986480137156 C 56.52375149905757 -10.462751095007544 55.79386995488717 -10.254743858778706 55.54906082367785 -10.195003209246991 L 54.68076545249275 -10.031893616335628 A 1.875 1.875 0 0 0 53.1644 -7.9127A 53.75 53.75 0 0 1 53.4008 -6.11687A 1.875 1.875 0 0 0 55.414 -4.46236" stroke="#191919" stroke-width="0.35 px" style="stroke-width:0.35;stroke-miterlimit:4;stroke-dasharray:none;fill:none;fill-rule: evenodd "/>
<title>b'InvoluteGear'</title>
</g>
</svg>