<?xml version="1.0"?>
<!DOCTYPE svg PUBLIC "-//W3C//DTD SVG 1.1//EN" "http://www.w3.org/Graphics/SVG/1.1/DTD/svg11.dtd">
<svg width="102.47268210156604mm" height="102.50202457144675mm" viewBox="0 0 102.47268210156604 102.50202457144675" xmlns="http://www.w3.org/2000/svg" version="1.1">
<g id="InvoluteGear" transform="translate(51.221307,51.251012) scale(1,-1)">
<path id="InvoluteGear_w0000"  d="M 47.22287031485405 -1.6009432302477036 C 47.45468305656869 -1.5506535263753183 47.7131081647287 -1.4871340561909745 47.99696601341581 -1.4070122571460668 C 48.62809765766594 -1.228838643925251 49.383429461251716 -0.969166766203152 50.24674080810117 -0.5921549024745147 A 50.25 50.25 0 0 1 50.2467 0.592155C 49.383429461251716 0.969166766203152 48.62809765766594 1.228838643925251 47.99696601341581 1.4070122571460668 C 47.7131081647287 1.4871340561909745 47.45468305656869 1.5506535263753183 47.222880117282614 1.60094022301644 A 0.5625 0.5625 0 0 0 46.826 2.1436A 46.875 46.875 0 0 1 46.8142 2.38577A 0.5625 0.5625 0 0 0 47.1569 2.96419C 47.38280691351282 3.0366230182572185 47.63389508574791 3.124787576803481 47.908694913332525 3.2319315719825195 C 48.519683970510606 3.4701863952929495 49.24642765825767 3.8015460637917835 50.069321859187895 4.260119461479187 A 50.25 50.25 0 0 1 49.955 5.4389C 49.05935148900505 5.730830747229784 48.2824838991176 5.916390347817626 47.63710237390863 6.032819191928446 C 47.34683680837091 6.085170719189181 47.08348760989202 6.123452036832882 46.84791344513737 6.151131766255232 A 0.5625 0.5625 0 0 0 46.4005 6.65295A 46.875 46.875 0 0 1 46.3654 6.89286A 0.5625 0.5625 0 0 0 46.6507 7.50166C 46.86853026890615 7.595547431941714 47.10993716260416 7.707533910121391 47.37311323713691 7.840699726819949 C 47.95825506703808 8.136811239129004 48.64962522894434 8.536764882459789 49.424419142518 9.072618237847612 A 50.25 50.25 0 0 1 49.1969 10.2349C 48.2772195702265 10.438987505657618 47.4860695974086 10.548702309116821 46.83246394465311 10.602299319370221 C 46.538500793642406 10.6263917827421 46.27268632535526 10.63907752549666 46.03554042763638 10.643891849524517 A 0.5625 0.5625 0 0 0 45.5418 11.1002A 46.875 46.875 0 0 1 45.4837 11.3356A 0.5625 0.5625 0 0 0 45.7089 11.9691C 45.91665478521507 12.083554265762748 46.1461264492531 12.218317076002188 46.39522156663501 12.376261380869321 C 46.94905285765134 12.727464868769461 47.59859435679461 13.192278227526048 48.318053940997466 13.800408422212843 A 50.25 50.25 0 0 1 47.9794 14.9353C 47.04433625990775 15.049678250376827 46.24629065829187 15.082523879148534 45.590563417865205 15.072788634700705 C 45.29564733611846 15.068397089344584 45.029849436093656 15.055368813847886 44.793345972762054 15.037272782434952 A 0.5625 0.5625 0 0 0 44.2578 15.4438A 46.875 46.875 0 0 1 44.1774 15.6725A 0.5625 0.5625 0 0 0 44.3403 16.3247C 44.536067867361986 16.45874020914039 44.75146178664067 16.61502110739025 44.98415021287573 16.79626921700718 C 45.501499991464705 17.199285588158503 46.10314823387689 17.72461882524731 46.76055608841908 18.39934791145702 A 50.25 50.25 0 0 1 46.314 19.4962C 45.37221265733496 19.519854204186803 44.57472256368174 19.47552398748494 43.92299608415169 19.402547383690276 C 43.629880623663375 19.369712832281905 43.36658097527812 19.33109218003199 43.132928115448536 19.290254750947856 A 0.5625 0.5625 0 0 0 42.5607 19.6432A 46.875 46.875 0 0 1 42.4585 19.863A 0.5625 0.5625 0 0 0 42.5578 20.528C 42.73965968342002 20.680255329750853 42.93896478294978 20.856595163371754 43.153073968896734 21.059454812973637 C 43.62911187956796 21.51052121210553 44.17724943771491 22.091469432635172 44.76646752258745 22.8264976466857 A 50.25 50.25 0 0 1 44.2161 23.8752C 43.27646093005625 23.807778538630004 42.486972294498145 23.686686375743797 41.845331570405975 23.551149775489453 C 41.55675347125501 23.490178785388547 41.29841043238404 23.426326347009702 41.06978972985439 23.36312880832668 A 0.5625 0.5625 0 0 0 40.4661 23.6592A 46.875 46.875 0 0 1 40.3432 23.8682A 0.5625 0.5625 0 0 0 40.3779 24.5396C 40.54420281258688 24.708684478338174 40.72555823435323 24.90343680981578 40.91908910023145 25.126013953511826 C 41.3493705052744 25.62091889518881 41.838879566463326 26.252057942152156 42.3544065111639 27.040522523651454 A 50.25 50.25 0 0 1 41.7054 28.0312C 40.77664854727971 27.873416059513907 40.00253261249082 27.67669255534172 39.37696847039671 27.479861427345927 C 39.09562210854176 27.391323268259328 38.84464775853228 27.30283521676459 38.6231937832036 27.217867626873723 A 0.5625 0.5625 0 0 0 37.9938 27.4543A 46.875 46.875 0 0 1 37.8513 27.6504A 0.5625 0.5625 0 0 0 37.8209 28.322C 37.97019564413195 28.506415297342993 38.13190812142542 28.71776177663145 38.30305372168425 28.957978271601107 C 38.68356119955304 29.4921009617276 39.10987134957063 30.167538059894294 39.546893817917734 31.00207732748509 A 50.25 50.25 0 0 1 38.8053 31.9255C 37.89611558368565 31.678807004732267 37.14460006157495 31.408288913628297 36.54095322532457 31.1520010170999 C 36.26946545594162 31.036722345963682 36.02820307467833 30.92442487044806 35.81598348265073 30.81848054884289 A 0.5625 0.5625 0 0 0 35.1667 30.993A 46.875 46.875 0 0 1 35.0059 31.1745A 0.5625 0.5625 0 0 0 34.9109 31.8401C 35.04167098945871 32.03798939735101 35.182230656449846 32.26395673931739 35.32939305073234 32.51956974886994 C 35.65657390562826 33.08792322779975 36.0157048014668 33.801352002970795 36.37014243242274 34.67417408836592 A 50.25 50.25 0 0 1 35.5429 35.5217C 34.661756799437875 35.18842146433622 33.9398583879505 34.846634540829996 33.36376494541016 34.53328276680587 C 33.10467057665355 34.3923399095123 32.8753727659857 34.257281501247775 32.67436899441051 34.13134962151398 A 0.5625 0.5625 0 0 0 32.0113 34.2424A 46.875 46.875 0 0 1 31.8337 34.4075A 0.5625 0.5625 0 0 0 31.6749 35.0608C 31.785971694219935 35.27043342252115 31.904066183169785 35.50891183097711 32.025871355851265 35.777534765313504 C 32.296670788286214 36.37481246974834 32.58526932153381 37.11957182967288 32.85381282643637 38.02252742823009 A 50.25 50.25 0 0 1 31.9486 38.7862C 31.103770531054508 38.369491113730476 30.418229401153592 37.959626530237294 29.875068181576395 37.59213655980348 C 29.630786307758033 37.42684546183612 29.41559395956291 37.27028712479117 29.2276827264978 37.12554347895933 A 0.5625 0.5625 0 0 0 28.557 37.1721A 46.875 46.875 0 0 1 28.3643 37.3193A 0.5625 0.5625 0 0 0 28.1432 37.9542C 28.23349534553496 38.17356691392492 28.32802204001902 38.422329780225205 28.42333272902078 38.70145457938406 C 28.635222357657042 39.32207988832532 28.850593961567384 40.09121621552418 29.03073602206639 41.01587467410785 A 50.25 50.25 0 0 1 28.0561 41.6886C 27.255376737676336 41.19231516269107 26.6125936021828 40.71819971439503 26.10743595552912 40.300002702390685 C 25.880247370686696 40.11190664219601 25.68116967793898 39.93531011938126 25.508105459937166 39.773106139873484 A 0.5625 0.5625 0 0 0 24.836 39.7547A 46.875 46.875 0 0 1 24.6301 39.8826A 0.5625 0.5625 0 0 0 24.3487 40.4932C 24.417410457908936 40.72028409635973 24.48748678764964 40.97700878864718 24.555413102748524 41.26402933958483 C 24.70641457121407 41.90220764174128 24.84654837915016 42.68853971755988 24.936607057363357 43.62626774927785 A 50.25 50.25 0 0 1 23.9016 44.2018C 23.152506835259015 43.63053766364129 22.558483187120487 43.09659803873969 22.09604563422984 42.63159857798889 C 21.8880715369674 42.42245375780121 21.70696723444572 42.22746788336885 21.550365885481074 42.0493180250383 A 0.5625 0.5625 0 0 0 20.8832 41.9661A 46.875 46.875 0 0 1 20.6659 42.0736A 0.5625 0.5625 0 0 0 20.3269 42.6542C 20.373346787749654 42.88680695766868 20.418318468937247 43.149096506662104 20.458226200430932 43.441332975827905 C 20.54692964869982 44.09110577234008 20.610517269053958 44.88729182605212 20.609651711367857 45.82933411692926 A 50.25 50.25 0 0 1 19.5239 46.3023C 18.833468214623437 45.661393590032986 18.293750292591657 45.07261503894136 17.87835048829837 44.56515470412184 C 17.691532676726492 44.33691385277625 17.5300926865076 44.1253591572998 17.39141635118148 43.93292675737385 A 0.5625 0.5625 0 0 0 16.7354 43.7858A 46.875 46.875 0 0 1 16.5087 43.8717A 0.5625 0.5625 0 0 0 16.1153 44.4169C 16.139062667931906 44.65290725763345 16.1585098120961 44.91831273648397 16.170026352248176 45.213036590704135 C 16.19560358012376 45.86833712804272 16.182051312417446 46.666943384985316 16.09026960031095 47.604504339971164 A 50.25 50.25 0 0 1 14.9639 47.9705C 14.338586575669027 47.26592138726569 13.858213580562941 46.627801176677856 13.493730000916337 46.08261798820811 C 13.329812742606359 45.83741212903749 13.189544386381296 45.611263841708286 13.070087848272337 45.40634558965697 A 0.5625 0.5625 0 0 0 12.4313 45.1965A 46.875 46.875 0 0 1 12.1974 45.2602A 0.5625 0.5625 0 0 0 11.7532 45.7649C 11.754092468416836 46.00209539360304 11.747833502812313 46.26813878286422 11.730851324790347 46.56259826492091 C 11.693063524587362 47.21730817852987 11.60249790269271 48.010878267254675 11.420656977282526 48.935204132324536 A 50.25 50.25 0 0 1 10.2642 49.1908C 9.709829417178943 48.42914001161308 9.293286462224419 47.74763609800318 8.983122192202917 47.16982028442236 C 8.84363593843058 46.909938838466665 8.725848864048174 46.671308444911176 8.626727456666895 46.45581760724169 A 0.5625 0.5625 0 0 0 8.01121 46.1853A 46.875 46.875 0 0 1 7.77221 46.2262A 0.5625 0.5625 0 0 0 7.28136 46.6856C 7.2593774744915445 46.92177435947081 7.22747083739377 47.185971683698604 7.182148499218351 47.47741750474563 C 7.081348485445927 48.12542394456357 6.91461509617299 48.906548514967945 6.644412757185311 49.80900910856566 A 50.25 50.25 0 0 1 5.46874 49.9518C 4.9904141975914245 49.14018880419177 4.641590432127497 48.42166420597997 4.388641391951084 47.81661067785551 C 4.274888488285341 47.544480088154394 4.180682441923106 47.295595616061796 4.1028216351434175 47.07154417266462 A 0.5625 0.5625 0 0 0 3.51628 46.7429A 46.875 46.875 0 0 1 3.27446 46.7605A 0.5625 0.5625 0 0 0 2.74156 47.1704C 2.696883629019453 47.40335736052642 2.6396272241022354 47.66324188048859 2.56638788823347 47.94895288942064 C 2.4035168034611174 48.584205593914774 2.162172391541678 49.34559149634739 1.8061314454135826 50.217760787065295 A 50.25 50.25 0 0 1 0.622167 50.2464C 0.22440482523472677 49.392428894007104 -0.053442877225902685 48.64359228177102 -0.24681497052249862 48.01695026087222 C -0.33377244386916716 47.73511133742014 -0.403517885738782 47.47829655404811 -0.4593911265424262 47.24777641288288 A 0.5625 0.5625 0 0 0 -1.01148 46.8641A 46.875 46.875 0 0 1 -1.25386 46.8582A 0.5625 0.5625 0 0 0 -1.82384 47.2148C -1.890790292261151 47.44234798604448 -1.9728618773719973 47.69549323000021 -2.0733343949883634 47.9728018201075 C -2.296755867325345 48.589369605935474 -2.6104579341438976 49.323907985369544 -3.04901322902841 50.157642763533396 A 50.25 50.25 0 0 1 -4.23021 50.0719C -4.543699754512607 49.183505183302856 -4.747977204834042 48.411348242727925 -4.879966888116977 47.76896851676445 C -4.939317032645348 47.48005271365233 -4.983950675623489 47.217705429438226 -5.017314677055929 46.98286889495273 A 0.5625 0.5625 0 0 0 -5.5298 46.5477A 46.875 46.875 0 0 1 -5.77048 46.5185A 0.5625 0.5625 0 0 0 -6.37221 46.8183C -6.460810414028557 47.03838219105997 -6.566930899055832 47.28242461007272 -6.693698513593658 47.54874162576614 C -6.9755843474056896 48.140867765636806 -7.35871511744788 48.84170043513412 -7.87569008846275 49.629216343757776 A 50.25 50.25 0 0 1 -9.0431 49.4298C -9.26938103388515 48.515368336474445 -9.398180948553293 47.72710048886848 -9.467555869712436 47.07498078426188 C -9.49874454911407 46.78168563049925 -9.51784966090213 46.51625531135017 -9.52839291227143 46.279294988993655 A 0.5625 0.5625 0 0 0 -9.99648 45.7967A 46.875 46.875 0 0 1 -10.2332 45.7444A 0.5625 0.5625 0 0 0 -10.8611 45.9848C -10.970507689730544 46.19523169535802 -11.099686256298154 46.427892731115094 -11.25156537269617 46.68073164217433 C -11.58928367590294 47.242887613859395 -12.038265960397839 47.90347108761392 -12.628833751530003 48.63741530284315 A 50.25 50.25 0 0 1 -13.7715 48.3263C -13.908516600042732 47.39425656724106 -13.960636408957573 46.59723765710997 -13.966748833046111 45.94146663983809 C -13.969484847024768 45.646530553251566 -13.962883048341572 45.38049545054112 -13.950507110150424 45.14362377499795 A 0.5625 0.5625 0 0 0 -14.3698 44.6181A 46.875 46.875 0 0 1 -14.6004 44.5432A 0.5625 0.5625 0 0 0 -15.2486 44.7219C -15.377776290975522 44.920768767942505 -15.528806833612691 45.13987612704013 -15.704379397482684 45.37687624467635 C -16.094776985280383 45.90381334933285 -16.605418757609336 46.51797993743465 -17.2640653965128 47.191499819882324 A 50.25 50.25 0 0 1 -18.3714 46.7715C -18.417792094151025 45.830637394124956 -18.39274516869964 45.03230897228762 -18.335538025660764 44.37900939965087 C -18.309795828791103 44.085186119014715 -18.277548758852202 43.82103013081765 -18.242369181900976 43.586458709100775 A 0.5625 0.5625 0 0 0 -18.609 43.0229A 46.875 46.875 0 0 1 -18.8313 42.9261A 0.5625 0.5625 0 0 0 -19.4936 43.0414C -19.641466738307393 43.22689272578139 -19.812939125530477 43.43040066184294 -20.01056586314904 43.64934917981396 C -20.44999769844729 44.13614754767117 -21.01753123396698 44.6981629421653 -21.73810711443696 45.30497001815903 A 50.25 50.25 0 0 1 -22.7998 44.7801C -22.755105625879526 43.83910990805131 -22.65312582245633 43.04692575188456 -22.533133239970965 42.40219730597068 C -22.479153180209302 42.11223018008984 -22.421561921218213 41.85241965969501 -22.36390716773829 41.62233862196719 A 0.5625 0.5625 0 0 0 -22.6744 41.026A 46.875 46.875 0 0 1 -22.8863 40.9082A 0.5625 0.5625 0 0 0 -23.5567 40.959C -23.721770102808104 41.12941883309035 -23.912083343138313 41.31542724734903 -24.12991906690392 41.514279902335026 C -24.61428229305499 41.95639442819293 -25.23340868405783 42.461011242767775 -26.009185983246958 42.995439918134274 A 50.25 50.25 0 0 1 -27.0152 42.3706C -26.87996086740782 41.43826846456981 -26.702000343960414 40.6596249840974 -26.520342660441 40.029487320693285 C -26.438628735061194 39.746083694494736 -26.356231001085998 39.493044422728936 -26.276639377976387 39.269601973647475 A 0.5625 0.5625 0 0 0 -26.5282 38.6461A 46.875 46.875 0 0 1 -26.7277 38.5084A 0.5625 0.5625 0 0 0 -27.3999 38.4943C -27.580589691341096 38.64793063847193 -27.787966881330572 38.814702820481045 -28.023977717783055 38.991602978820325 C -28.548749965848927 39.38490575847226 -29.213688596036633 39.82741252189171 -30.03742409032416 40.28447298008302 A 50.25 50.25 0 0 1 -30.9785 39.5654C -30.7538451567274 38.65052907336679 -30.50156548271437 37.89269625297186 -30.259938787006924 37.28303279765939 C -30.15125393691363 37.008838734441994 -30.0448190533956 36.764933270807994 -29.944033686196487 36.55021563231669 A 0.5625 0.5625 0 0 0 -30.1342 35.9054A 46.875 46.875 0 0 1 -30.3195 35.749A 0.5625 0.5625 0 0 0 -30.9872 35.6701C -31.1818967451104 35.80559712859878 -31.404401659810947 35.95157597142923 -31.656384039359995 36.104871964006534 C -32.21666565225264 36.44569083536852 -32.92120816879309 36.82195598120947 -33.78521086181227 37.19738077187568 A 50.25 50.25 0 0 1 -34.6524 36.3908C -34.34058907999 35.50192010602254 -34.01634572275456 34.77197362656221 -33.71700601821414 34.18847664275877 C -33.582365004569155 33.92605221861324 -33.45288672533838 33.69355784270826 -33.33184861986817 33.48956977554519 A 0.5625 0.5625 0 0 0 -33.4589 32.8294A 46.875 46.875 0 0 1 -33.6283 32.6559A 0.5625 0.5625 0 0 0 -34.2852 32.5129C -34.49206683047423 32.62895640562761 -34.72762200144796 32.75277894415572 -34.99322323250868 32.881039487591714 C -35.58378301176817 33.166192316690484 -36.32135129101304 33.47270275866534 -37.21755422241198 33.762986641688684 A 50.25 50.25 0 0 1 -38.0029 32.8765C -37.60670417557957 32.02183927611876 -37.21352450798562 31.326594451198385 -36.859266648780846 30.774711893027092 C -36.69992657845152 30.526507294095264 -36.548613807315164 30.307594743264918 -36.40845306375269 30.116240829051605 A 0.5625 0.5625 0 0 0 -36.4712 29.4468A 46.875 46.875 0 0 1 -36.623 29.2578A 0.5625 0.5625 0 0 0 -37.2631 29.0521C -37.48019378122221 29.14766790808966 -37.72659989330463 29.248178044635374 -38.00334012874495 29.350205604793896 C -38.618664176829974 29.577029996494396 -39.38237174248289 29.810923929191155 -40.302407306959815 30.01335660216858 A 50.25 50.25 0 0 1 -40.9985 29.0552C -40.52169560685529 28.242779160707634 -40.063250641522664 27.588727303934007 -39.657382237835364 27.073611950143853 C -39.474830826126514 26.84194459589088 -39.30309632965967 26.63865779763951 -39.145121591103326 26.46172465631546 A 0.5625 0.5625 0 0 0 -39.143 25.7894A 46.875 46.875 0 0 1 -39.2758 25.5866A 0.5625 0.5625 0 0 0 -39.8931 25.3201C -40.11837826112206 25.39423548870445 -40.373334686835165 25.470494787203812 -40.65863007764036 25.545336760245497 C -41.292973279703965 25.711714916316915 -42.0756895999942 25.87080853510528 -43.010967673373656 25.983499938711695 A 50.25 50.25 0 0 1 -43.6114 24.9627C -43.05834688422488 24.20002382587459 -42.53891699827364 23.593271643209754 -42.085227534033756 23.119732987068815 C -41.881169214290736 22.90676589316199 -41.69061643121559 22.721002881552234 -41.5163026652353 22.56014249018596 A 0.5625 0.5625 0 0 0 -41.4493 21.8912A 46.875 46.875 0 0 1 -41.5619 21.6765A 0.5625 0.5625 0 0 0 -42.1506 21.3516C -42.381988252504996 21.40370393466459 -42.64311453239615 21.455000382594463 -42.93430135237093 21.501957989182092 C -43.58174101684991 21.606336481609336 -44.37615808038631 21.689144372236115 -45.31794622329407 21.71104233719909 A 50.25 50.25 0 0 1 -45.817 20.637C -45.19297397817497 19.931319388919967 -44.61740894849749 19.377531962013013 -44.120134399992686 18.94999130636565 C -43.896474409766405 18.757712889179928 -43.68888248007687 18.59120808340007 -43.49985720733932 18.447922352124287 A 0.5625 0.5625 0 0 0 -43.3686 17.7885A 46.875 46.875 0 0 1 -43.46 17.564A 0.5625 0.5625 0 0 0 -44.0145 17.1838C -44.249889038777894 17.21333176390009 -44.51474710712839 17.239186420147224 -44.80910662339066 17.25782122976012 C -45.46359778058086 17.299225504682646 -46.262298329285194 17.304974512184426 -47.2018033195819 17.235874583105183 A 50.25 50.25 0 0 1 -47.5949 16.1187C -46.90564645067321 15.47652159303195 -46.27932017287407 14.980869485878017 -45.74310345858041 14.603318662631468 C -45.50193005093772 14.433524173941521 -45.27923720454872 14.28783218450086 -45.07726530309538 14.163458933582259 A 0.5625 0.5625 0 0 0 -44.883 13.5198A 46.875 46.875 0 0 1 -44.9523 13.2875A 0.5625 0.5625 0 0 0 -45.4675 12.8556C -45.704640533577724 12.86224335233523 -45.97075748196549 12.862414818940403 -46.26554133902275 12.852552843382085 C -46.92097318133251 12.830596320240721 -47.71649996337965 12.75923276768344 -48.644949896106695 12.599780111981838 A 50.25 50.25 0 0 1 -48.9284 11.4499C -48.180373540298305 10.877223684951005 -47.5091338540789 10.444334667728425 -46.93898148498204 10.12029876719382 C -46.682546431049474 9.97457353239192 -46.44683189106643 9.851054646141296 -46.2337991181228 9.746755115113157 A 0.5625 0.5625 0 0 0 -45.9783 9.12488A 46.875 46.875 0 0 1 -46.0249 8.88694A 0.5625 0.5625 0 0 0 -46.496 8.40733C -46.73266011415895 8.39106364013196 -46.99755128033819 8.365550316157677 -47.29000716074226 8.327283634036773 C -47.94026009765643 8.24217131497222 -48.72518549382538 8.094361504618247 -49.63391168211809 7.846044888778395 A 50.25 50.25 0 0 1 -49.805 6.67416C -49.00525346367091 6.176368070031648 -48.29536755312581 5.8102839108586455 -47.69660288827683 5.54278836893257 C -47.427300453060305 5.422492985272539 -47.18076502263322 5.322300464772528 -46.95866040780174 5.239048470254088 A 0.5625 0.5625 0 0 0 -46.6443 4.64474A 46.875 46.875 0 0 1 -46.6677 4.40341A 0.5625 0.5625 0 0 0 -47.0904 3.88057C -47.32434943868244 3.8415388275695244 -47.58554160520556 3.7905789240475416 -47.872938927199066 3.724264821064618 C -48.51194172224674 3.5767913768677233 -49.27893709560009 3.353915369091153 -50.15945500788129 3.0190532584498873 A 50.25 50.25 0 0 1 -50.2167 1.83613C -49.37258453919825 1.417845370573995 -48.630680417805884 1.1219840986087735 -48.00889396155214 0.9135264490934503 C -47.72923854932969 0.819784082160699 -47.47418406334712 0.7438533979798065 -47.24508133757363 0.6824262414128566 A 0.5625 0.5625 0 0 0 -46.8748 0.121226A 46.875 46.875 0 0 1 -46.8748 -0.121226A 0.5625 0.5625 0 0 0 -47.2451 -0.682423C -47.474184063347124 -0.7438533979797735 -47.72923854932969 -0.8197840821606655 -48.00889396155215 -0.9135264490934167 C -48.63068041780589 -1.1219840986087397 -49.37258453919826 -1.4178453705739607 -50.216673016963576 -1.8361264587132553 A 50.25 50.25 0 0 1 -50.1595 -3.01905C -49.2789370956001 -3.353915369091119 -48.511941722246746 -3.5767913768676896 -47.87293892719907 -3.724264821064585 C -47.58554160520558 -3.7905789240475087 -47.32434943868245 -3.841538827569492 -47.090387672389156 -3.8805676173747288 A 0.5625 0.5625 0 0 0 -46.6677 -4.40341A 46.875 46.875 0 0 1 -46.6443 -4.64474A 0.5625 0.5625 0 0 0 -46.9587 -5.23904C -47.18076502263322 -5.322300464772518 -47.427300453060305 -5.4224929852725285 -47.69660288827683 -5.542788368932559 C -48.29536755312581 -5.810283910858635 -49.00525346367091 -6.1763680700316375 -49.80503148023069 -6.674162757848694 A 50.25 50.25 0 0 1 -49.6339 -7.84604C -48.72518549382538 -8.094361504618236 -47.94026009765643 -8.24217131497221 -47.29000716074226 -8.327283634036762 C -46.99755128033819 -8.365550316157666 -46.73266011415895 -8.39106364013195 -46.496023745320166 -8.407329661880798 A 0.5625 0.5625 0 0 0 -46.0249 -8.88694A 46.875 46.875 0 0 1 -45.9783 -9.12488A 0.5625 0.5625 0 0 0 -46.2338 -9.74675C -46.44683189106644 -9.851054646141264 -46.68254643104948 -9.97457353239189 -46.938981484982044 -10.120298767193788 C -47.50913385407891 -10.444334667728393 -48.18037354029832 -10.877223684950971 -48.92837378380035 -11.449884197569103 A 50.25 50.25 0 0 1 -48.6449 -12.5998C -47.71649996337966 -12.75923276768341 -46.92097318133253 -12.830596320240689 -46.265541339022754 -12.852552843382057 C -45.9707574819655 -12.862414818940373 -45.70464053357773 -12.862243352335202 -45.46753897221111 -12.855594734565228 A 0.5625 0.5625 0 0 0 -44.9523 -13.2875A 46.875 46.875 0 0 1 -44.883 -13.5198A 0.5625 0.5625 0 0 0 -45.0773 -14.1635C -45.27923720454873 -14.28783218450085 -45.50193005093772 -14.43352417394151 -45.74310345858041 -14.603318662631457 C -46.27932017287407 -14.980869485878006 -46.90564645067322 -15.47652159303194 -47.594885044381606 -16.11870115353978 A 50.25 50.25 0 0 1 -47.2018 -17.2359C -46.2622983292852 -17.304974512184415 -45.46359778058086 -17.299225504682635 -44.80910662339066 -17.25782122976011 C -44.51474710712839 -17.239186420147213 -44.2498890387779 -17.21333176390008 -44.01453603827839 -17.183830582964035 A 0.5625 0.5625 0 0 0 -43.46 -17.564A 46.875 46.875 0 0 1 -43.3686 -17.7885A 0.5625 0.5625 0 0 0 -43.4998 -18.4479C -43.68888248007688 -18.591208083400044 -43.89647440976641 -18.757712889179903 -44.12013439999269 -18.949991306365618 C -44.6174089484975 -19.377531962012984 -45.192973978174976 -19.931319388919942 -45.81701568704546 -20.63702213978688 A 50.25 50.25 0 0 1 -45.3179 -21.711C -44.37615808038632 -21.68914437223609 -43.58174101684992 -21.606336481609308 -42.93430135237094 -21.501957989182067 C -42.643114532396154 -21.455000382594438 -42.381988252505 -21.403703934664566 -42.15058124042588 -21.351625635140188 A 0.5625 0.5625 0 0 0 -41.5619 -21.6765A 46.875 46.875 0 0 1 -41.4493 -21.8912A 0.5625 0.5625 0 0 0 -41.5163 -22.5601C -41.690616431215595 -22.721002881552206 -41.88116921429075 -22.906765893161964 -42.08522753403378 -23.11973298706879 C -42.538916998273656 -23.59327164320973 -43.058346884224896 -24.20002382587456 -43.61136519896063 -24.962660810656978 A 50.25 50.25 0 0 1 -43.011 -25.9835C -42.07568959999421 -25.870808535105255 -41.29297327970398 -25.71171491631689 -40.65863007764038 -25.545336760245473 C -40.37333468683518 -25.470494787203787 -40.11837826112208 -25.39423548870442 -39.89307782238589 -25.320066311642634 A 0.5625 0.5625 0 0 0 -39.2758 -25.5866A 46.875 46.875 0 0 1 -39.143 -25.7894A 0.5625 0.5625 0 0 0 -39.1451 -26.4617C -39.303096329659674 -26.6386577976395 -39.47483082612652 -26.84194459589087 -39.657382237835364 -27.073611950143842 C -40.063250641522664 -27.588727303933997 -40.521695606855296 -28.242779160707624 -40.998527144454236 -29.055229843359925 A 50.25 50.25 0 0 1 -40.3024 -30.0134C -39.382371742482896 -29.810923929191144 -38.618664176829974 -29.577029996494385 -38.00334012874495 -29.350205604793885 C -37.72659989330464 -29.248178044635363 -37.48019378122222 -29.147667908089648 -37.263103485321565 -29.052100351112887 A 0.5625 0.5625 0 0 0 -36.623 -29.2578A 46.875 46.875 0 0 1 -36.4712 -29.4468A 0.5625 0.5625 0 0 0 -36.4084 -30.1162C -36.548613807315185 -30.307594743264897 -36.69992657845154 -30.526507294095243 -36.85926664878087 -30.77471189302707 C -37.21352450798564 -31.326594451198364 -37.606704175579594 -32.02183927611874 -38.00289688845043 -32.8765180235199 A 50.25 50.25 0 0 1 -37.2176 -33.763C -36.32135129101306 -33.47270275866532 -35.58378301176819 -33.16619231669047 -34.993223232508704 -32.88103948759169 C -34.72762200144798 -32.75277894415571 -34.49206683047425 -32.62895640562759 -34.28521359101016 -32.51288275726608 A 0.5625 0.5625 0 0 0 -33.6283 -32.6559A 46.875 46.875 0 0 1 -33.4589 -32.8294A 0.5625 0.5625 0 0 0 -33.3318 -33.4896C -33.4528867253384 -33.69355784270822 -33.58236500456918 -33.926052218613215 -33.71700601821417 -34.188476642758744 C -34.016345722754586 -34.77197362656217 -34.340589079990025 -35.50192010602251 -34.65244382352099 -36.390847012988665 A 50.25 50.25 0 0 1 -33.7852 -37.1974C -32.921208168793115 -36.82195598120944 -32.216665652252665 -36.445690835368495 -31.656384039360027 -36.104871964006506 C -31.404401659810976 -35.9515759714292 -31.18189674511042 -35.805597128598755 -30.987211895046215 -35.670101137232905 A 0.5625 0.5625 0 0 0 -30.3195 -35.749A 46.875 46.875 0 0 1 -30.1342 -35.9054A 0.5625 0.5625 0 0 0 -29.944 -36.5502C -30.04481905339561 -36.76493327080799 -30.15125393691364 -37.00883873444199 -30.259938787006934 -37.28303279765938 C -30.50156548271438 -37.892696252971845 -30.75384515672741 -38.650529073366776 -30.978450227202817 -39.56540446887586 A 50.25 50.25 0 0 1 -30.0374 -40.2845C -29.213688596036643 -39.827412521891695 -28.548749965848938 -39.38490575847224 -28.023977717783065 -38.99160297882032 C -27.787966881330583 -38.81470282048104 -27.580589691341107 -38.64793063847192 -27.39989095066685 -38.494277393665705 A 0.5625 0.5625 0 0 0 -26.7277 -38.5084A 46.875 46.875 0 0 1 -26.5282 -38.6461A 0.5625 0.5625 0 0 0 -26.2766 -39.2696C -26.356231001086012 -39.49304442272893 -26.438628735061208 -39.746083694494736 -26.520342660441013 -40.02948732069328 C -26.702000343960435 -40.6596249840974 -26.87996086740784 -41.4382684645698 -27.015219187801197 -42.37055040355368 A 50.25 50.25 0 0 1 -26.0092 -42.9954C -25.23340868405785 -42.46101124276777 -24.614282293055005 -41.95639442819293 -24.129919066903934 -41.51427990233502 C -23.912083343138328 -41.31542724734903 -23.72177010280812 -41.12941883309034 -23.556744606978878 -40.95904295379092 A 0.5625 0.5625 0 0 0 -22.8863 -40.9082A 46.875 46.875 0 0 1 -22.6744 -41.026A 0.5625 0.5625 0 0 0 -22.3639 -41.6223C -22.42156192121824 -41.852419659694995 -22.47915318020933 -42.112230180089824 -22.533133239970997 -42.40219730597066 C -22.653125822456357 -43.046925751884544 -22.755105625879555 -43.8391099080513 -22.79975432569672 -44.780093925235334 A 50.25 50.25 0 0 1 -21.7381 -45.305C -21.01753123396701 -44.69816294216528 -20.449997698447323 -44.13614754767116 -20.010565863149072 -43.64934917981395 C -19.812939125530505 -43.430400661842924 -19.64146673830742 -43.226892725781376 -19.49365528591406 -43.04138496566848 A 0.5625 0.5625 0 0 0 -18.8313 -42.9261A 46.875 46.875 0 0 1 -18.609 -43.0229A 0.5625 0.5625 0 0 0 -18.2424 -43.5864C -18.277548758852223 -43.82103013081764 -18.309795828791124 -44.08518611901471 -18.335538025660785 -44.379009399650855 C -18.392745168699665 -45.03230897228761 -18.41779209415105 -45.83063739412494 -18.371414300511766 -46.771537775275 A 50.25 50.25 0 0 1 -17.2641 -47.1915C -16.60541875760936 -46.51797993743464 -16.094776985280408 -45.903813349332836 -15.704379397482706 -45.37687624467634 C -15.528806833612713 -45.139876127040125 -15.377776290975545 -44.9207687679425 -15.248558957723432 -44.72186116298997 A 0.5625 0.5625 0 0 0 -14.6004 -44.5432A 46.875 46.875 0 0 1 -14.3698 -44.6181A 0.5625 0.5625 0 0 0 -13.9505 -45.1436C -13.96288304834158 -45.38049545054111 -13.969484847024775 -45.646530553251566 -13.96674883304612 -45.94146663983809 C -13.96063640895758 -46.59723765710997 -13.908516600042741 -47.39425656724106 -13.771545329910401 -48.32628837901011 A 50.25 50.25 0 0 1 -12.6288 -48.6374C -12.038265960397847 -47.90347108761392 -11.589283675902948 -47.242887613859395 -11.251565372696179 -46.68073164217433 C -11.099686256298162 -46.427892731115094 -10.970507689730551 -46.195231695358025 -10.861090943044557 -45.98478139228057 A 0.5625 0.5625 0 0 0 -10.2332 -45.7444A 46.875 46.875 0 0 1 -9.99648 -45.7967A 0.5625 0.5625 0 0 0 -9.52839 -46.2793C -9.517849660902163 -46.516255311350164 -9.498744549114104 -46.78168563049924 -9.46755586971247 -47.074980784261875 C -9.398180948553327 -47.72710048886847 -9.269381033885185 -48.51536833647444 -9.04309515110412 -49.429829448958266 A 50.25 50.25 0 0 1 -7.87569 -49.6292C -7.3587151174479155 -48.841700435134115 -6.975584347405723 -48.1408677656368 -6.693698513593692 -47.548741625766134 C -6.5669308990558655 -47.28242461007271 -6.46081041402859 -47.038382191059966 -6.372215848591786 -46.81835410763468 A 0.5625 0.5625 0 0 0 -5.77048 -46.5185A 46.875 46.875 0 0 1 -5.5298 -46.5477A 0.5625 0.5625 0 0 0 -5.01732 -46.9829C -4.983950675623511 -47.21770542943822 -4.939317032645369 -47.48005271365232 -4.879966888116999 -47.76896851676445 C -4.747977204834064 -48.411348242727925 -4.543699754512629 -49.18350518330285 -4.230212029400962 -50.07185751948229 A 50.25 50.25 0 0 1 -3.04901 -50.1576C -2.6104579341439207 -49.32390798536954 -2.296755867325367 -48.589369605935474 -2.073334394988386 -47.9728018201075 C -1.9728618773720192 -47.6954932300002 -1.890790292261173 -47.442347986044474 -1.8238450916605409 -47.21479646520297 A 0.5625 0.5625 0 0 0 -1.25386 -46.8582A 46.875 46.875 0 0 1 -1.01148 -46.8641A 0.5625 0.5625 0 0 0 -0.459394 -47.2478C -0.40351788573879355 -47.47829655404811 -0.3337724438691789 -47.73511133742014 -0.24681497052251022 -48.01695026087222 C -0.053442877225914565 -48.64359228177102 0.2244048252347146 -49.392428894007104 0.6221674422522753 -50.24637814747273 A 50.25 50.25 0 0 1 1.80613 -50.2178C 2.162172391541666 -49.34559149634739 2.4035168034611054 -48.584205593914774 2.566387888233458 -47.94895288942064 C 2.6396272241022234 -47.66324188048859 2.6968836290194416 -47.40335736052642 2.7415544154832947 -47.170406989508386 A 0.5625 0.5625 0 0 0 3.27446 -46.7605A 46.875 46.875 0 0 1 3.51628 -46.7429A 0.5625 0.5625 0 0 0 4.10282 -47.0715C 4.180682441923063 -47.2955956160618 4.274888488285298 -47.544480088154394 4.38864139195104 -47.816610677855515 C 4.641590432127453 -48.42166420597998 4.99041419759138 -49.14018880419178 5.468737904131029 -49.95176188084805 A 50.25 50.25 0 0 1 6.64441 -49.809C 6.914615096172946 -48.90654851496795 7.081348485445883 -48.12542394456358 7.182148499218307 -47.47741750474564 C 7.227470837393727 -47.185971683698604 7.259377474491501 -46.92177435947082 7.281356767721251 -46.68560013312539 A 0.5625 0.5625 0 0 0 7.77221 -46.2262A 46.875 46.875 0 0 1 8.01121 -46.1853A 0.5625 0.5625 0 0 0 8.62672 -46.4558C 8.725848864048142 -46.67130844491118 8.843635938430548 -46.909938838466665 8.983122192202885 -47.16982028442237 C 9.293286462224387 -47.747636098003184 9.70982941717891 -48.42914001161309 10.264248233669978 -49.19075947230971 A 50.25 50.25 0 0 1 11.4207 -48.9352C 11.602497902692676 -48.01087826725469 11.69306352458733 -47.21730817852989 11.730851324790315 -46.56259826492092 C 11.74783350281228 -46.268138782864234 11.754092468416804 -46.00209539360305 11.753175053673559 -45.764902407047956 A 0.5625 0.5625 0 0 0 12.1974 -45.2602A 46.875 46.875 0 0 1 12.4313 -45.1965A 0.5625 0.5625 0 0 0 13.0701 -45.4063C 13.189544386381286 -45.61126384170828 13.329812742606348 -45.83741212903749 13.493730000916326 -46.08261798820811 C 13.85821358056293 -46.627801176677856 14.338586575669014 -47.2659213872657 14.963924043001924 -47.9704761963053 A 50.25 50.25 0 0 1 16.0903 -47.6045C 16.182051312417432 -46.66694338498532 16.195603580123752 -45.86833712804272 16.170026352248165 -45.213036590704135 C 16.15850981209609 -44.91831273648397 16.139062667931896 -44.65290725763346 16.11525711086993 -44.416910117875986 A 0.5625 0.5625 0 0 0 16.5087 -43.8717A 46.875 46.875 0 0 1 16.7354 -43.7858A 0.5625 0.5625 0 0 0 17.3914 -43.9329C 17.530092686507558 -44.12535915729981 17.691532676726453 -44.33691385277627 17.87835048829833 -44.56515470412185 C 18.293750292591614 -45.07261503894137 18.833468214623394 -45.661393590033 19.52388572535364 -46.30230550899552 A 50.25 50.25 0 0 1 20.6097 -45.8293C 20.610517269053915 -44.887291826052135 20.546929648699784 -44.09110577234009 20.458226200430893 -43.44133297582792 C 20.41831846893721 -43.149096506662126 20.373346787749618 -42.886806957668696 20.326875354441164 -42.6542091064168 A 0.5625 0.5625 0 0 0 20.6659 -42.0736A 46.875 46.875 0 0 1 20.8832 -41.9661A 0.5625 0.5625 0 0 0 21.5504 -42.0493C 21.706967234445685 -42.22746788336887 21.888071536967367 -42.42245375780122 22.096045634229803 -42.6315985779889 C 22.558483187120455 -43.09659803873971 23.152506835258983 -43.630537663641306 23.90155814711173 -44.20182267062368 A 50.25 50.25 0 0 1 24.9366 -43.6263C 24.84654837915013 -42.68853971755989 24.706414571214037 -41.90220764174129 24.555413102748496 -41.264029339584845 C 24.48748678764961 -40.9770087886472 24.417410457908908 -40.72028409635974 24.348707039605717 -40.4932572370805 A 0.5625 0.5625 0 0 0 24.6301 -39.8826A 46.875 46.875 0 0 1 24.836 -39.7547A 0.5625 0.5625 0 0 0 25.5081 -39.7731C 25.681169677938964 -39.93531011938128 25.88024737068668 -40.11190664219602 26.107435955529105 -40.3000027023907 C 26.61259360218278 -40.718199714395034 27.25537673767632 -41.192315162691074 28.056068160373655 -41.68863932350745 A 50.25 50.25 0 0 1 29.0307 -41.0159C 28.850593961567366 -40.091216215524184 28.635222357657025 -39.32207988832533 28.423332729020764 -38.70145457938408 C 28.328022040019004 -38.42232978022521 28.233495345534944 -38.17356691392494 28.14320140754259 -37.95423073523438 A 0.5625 0.5625 0 0 0 28.3643 -37.3193A 46.875 46.875 0 0 1 28.557 -37.1721A 0.5625 0.5625 0 0 0 29.2277 -37.1255C 29.415593959562873 -37.270287124791196 29.630786307757997 -37.42684546183615 29.875068181576356 -37.59213655980351 C 30.418229401153553 -37.95962653023733 31.103770531054465 -38.36949111373051 31.948626224517202 -38.786220383418595 A 50.25 50.25 0 0 1 32.8538 -38.0225C 32.58526932153377 -37.119571829672914 32.29667078828618 -36.37481246974838 32.02587135585123 -35.77753476531355 C 31.90406618316975 -35.50891183097714 31.7859716942199 -35.27043342252118 31.67493028670905 -35.06083580722285 A 0.5625 0.5625 0 0 0 31.8337 -34.4075A 46.875 46.875 0 0 1 32.0113 -34.2424A 0.5625 0.5625 0 0 0 32.6744 -34.1313C 32.87537276598568 -34.257281501247796 33.104670576653525 -34.392339909512316 33.36376494541014 -34.53328276680589 C 33.93985838795048 -34.84663454083002 34.66175679943785 -35.18842146433625 35.54288857369007 -35.521664953986544 A 50.25 50.25 0 0 1 36.3701 -34.6742C 36.01570480146678 -33.80135200297082 35.656573905628235 -33.08792322779977 35.32939305073232 -32.51956974886996 C 35.182230656449825 -32.26395673931742 35.04167098945869 -32.03798939735103 34.91091887613278 -31.840087301905953 A 0.5625 0.5625 0 0 0 35.0059 -31.1745A 46.875 46.875 0 0 1 35.1667 -30.993A 0.5625 0.5625 0 0 0 35.816 -30.8185C 36.028203074678316 -30.924424870448078 36.26946545594161 -31.036722345963696 36.54095322532456 -31.152001017099913 C 37.144600061574934 -31.40828891362831 37.896115583685635 -31.67880700473228 38.80529654875914 -31.92545330966948 A 50.25 50.25 0 0 1 39.5469 -31.0021C 39.10987134957062 -30.167538059894316 38.683561199553026 -29.492100961727623 38.303053721684236 -28.95797827160112 C 38.131908121425404 -28.717761776631463 37.970195644131934 -28.50641529734301 37.820953622243884 -28.322056480294556 A 0.5625 0.5625 0 0 0 37.8513 -27.6504A 46.875 46.875 0 0 1 37.9938 -27.4543A 0.5625 0.5625 0 0 0 38.6232 -27.2179C 38.84464775853228 -27.30283521676459 39.09562210854176 -27.391323268259328 39.37696847039671 -27.479861427345927 C 40.00253261249082 -27.67669255534172 40.77664854727971 -27.873416059513907 41.70538992546906 -28.03116230964403 A 50.25 50.25 0 0 1 42.3544 -27.0405C 41.838879566463326 -26.252057942152156 41.3493705052744 -25.62091889518881 40.91908910023145 -25.126013953511826 C 40.72555823435323 -24.90343680981578 40.54420281258688 -24.708684478338174 40.37786431468397 -24.539590248288352 A 0.5625 0.5625 0 0 0 40.3432 -23.8682A 46.875 46.875 0 0 1 40.4661 -23.6592A 0.5625 0.5625 0 0 0 41.0698 -23.3631C 41.298410432384024 -23.426326347009734 41.55675347125499 -23.49017878538858 41.845331570405946 -23.551149775489485 C 42.48697229449812 -23.68668637574383 43.27646093005623 -23.807778538630036 44.216091313348976 -23.875151899718027 A 50.25 50.25 0 0 1 44.7665 -22.8265C 44.17724943771489 -22.091469432635204 43.62911187956794 -21.510521212105562 43.15307396889672 -21.05945481297367 C 42.93896478294977 -20.856595163371786 42.73965968342001 -20.680255329750885 42.55777776723969 -20.528004473965716 A 0.5625 0.5625 0 0 0 42.4585 -19.863A 46.875 46.875 0 0 1 42.5607 -19.6432A 0.5625 0.5625 0 0 0 43.1329 -19.2903C 43.36658097527811 -19.33109218003201 43.62988062366337 -19.369712832281927 43.922996084151684 -19.402547383690298 C 44.57472256368173 -19.47552398748496 45.372212657334956 -19.51985420418682 46.31395897001189 -19.49622562931296 A 50.25 50.25 0 0 1 46.7606 -18.3993C 46.10314823387688 -17.724618825247326 45.5014999914647 -17.19928558815852 44.984150212875726 -16.7962692170072 C 44.75146178664066 -16.61502110739027 44.53606786736198 -16.45874020914041 44.34034071535023 -16.324754252838602 A 0.5625 0.5625 0 0 0 44.1774 -15.6725A 46.875 46.875 0 0 1 44.2578 -15.4438A 0.5625 0.5625 0 0 0 44.7933 -15.0373C 45.029849436093656 -15.055368813847895 45.29564733611846 -15.068397089344593 45.590563417865205 -15.072788634700714 C 46.24629065829187 -15.082523879148543 47.04433625990775 -15.049678250376836 47.9794056703871 -14.93526835317835 A 50.25 50.25 0 0 1 48.3181 -13.8004C 47.59859435679461 -13.192278227526057 46.94905285765134 -12.72746486876947 46.39522156663501 -12.37626138086933 C 46.1461264492531 -12.218317076002197 45.91665478521507 -12.083554265762757 45.70890984905442 -11.969084199717756 A 0.5625 0.5625 0 0 0 45.4837 -11.3356A 46.875 46.875 0 0 1 45.5418 -11.1002A 0.5625 0.5625 0 0 0 46.0355 -10.6439C 46.27268632535525 -10.639077525496695 46.5385007936424 -10.626391782742138 46.83246394465309 -10.602299319370259 C 47.486069597408594 -10.548702309116859 48.2772195702265 -10.438987505657657 49.19688158736332 -10.234864500518624 A 50.25 50.25 0 0 1 49.4244 -9.07262C 48.64962522894434 -8.536764882459828 47.958255067038074 -8.136811239129042 47.37311323713691 -7.840699726819986 C 47.109937162604155 -7.707533910121429 46.86853026890614 -7.595547431941751 46.65070720709169 -7.5016620323179435 A 0.5625 0.5625 0 0 0 46.3654 -6.89286A 46.875 46.875 0 0 1 46.4005 -6.65295A 0.5625 0.5625 0 0 0 46.8479 -6.15113C 47.08348760989202 -6.123452036832908 47.34683680837091 -6.085170719189206 47.63710237390863 -6.032819191928471 C 48.2824838991176 -5.916390347817652 49.05935148900505 -5.73083074722981 49.955019476334755 -5.43890047565127 A 50.25 50.25 0 0 1 50.0693 -4.26012C 49.24642765825767 -3.8015460637918093 48.519683970510606 -3.4701863952929752 47.908694913332525 -3.2319315719825443 C 47.63389508574791 -3.124787576803506 47.38280691351282 -3.0366230182572442 47.15693948128352 -2.9641988677348765 A 0.5625 0.5625 0 0 0 46.8142 -2.38577A 46.875 46.875 0 0 1 46.826 -2.1436A 0.5625 0.5625 0 0 0 47.2229 -1.60094" stroke="#191919" stroke-width="0.35 px" style="stroke-width:0.35;stroke-miterlimit:4;stroke-dasharray:none;fill:none;fill-rule: evenodd "/>
<title>b'InvoluteGear'</title>
</g>
</svg>