<?xml version="1.0"?>
<!DOCTYPE svg PUBLIC "-//W3C//DTD SVG 1.1//EN" "http://www.w3.org/Graphics/SVG/1.1/DTD/svg11.dtd">
<svg width="71.85517096170963mm" height="71.89811106935726mm" viewBox="0 0 71.85517096170963 71.89811106935726" xmlns="http://www.w3.org/2000/svg" version="1.1">
<g id="InvoluteGear" transform="translate(35.904757,35.949056) scale(1,-1)">
<path id="InvoluteGear_w0000"  d="M 32.213227673217595 -1.5396307588015978 C 32.418111501443484 -1.5118579248139445 32.68011117113268 -1.465307399553067 32.99645214275442 -1.3876765518641443 C 33.57763700589263 -1.244933750962877 34.337091965098345 -0.9987842121425644 35.24595102194593 -0.5763101268787625 A 35.25 35.25 0 0 1 35.246 0.57631C 34.337091965098345 0.9987842121425643 33.57763700589263 1.2449337509628768 32.99645214275442 1.387676551864144 C 32.68011117113268 1.465307399553067 32.418111501443484 1.5118579248139445 32.213289016199425 1.5396185693348974 A 0.5625 0.5625 0 0 0 31.8075 2.07353A 31.875 31.875 0 0 1 31.7865 2.37339A 0.5625 0.5625 0 0 0 32.114 2.95857C 32.313030624390734 3.0145844775079094 32.56600195035291 3.0971452827380626 32.868460187581576 3.2180467863350612 C 33.424123041342135 3.440285723744317 34.14192964247347 3.789735453885695 34.983146716934776 4.334586783670361 A 35.25 35.25 0 0 1 34.8227 5.47599C 33.863921850485795 5.767863679581671 33.077600460119434 5.9059220062987325 32.482205689876565 5.966390344439996 C 32.15813920104185 5.999239540074359 31.892210713175924 6.008873732342195 31.68551801129581 6.0078584317612185 A 0.5625 0.5625 0 0 0 31.2094 6.4801A 31.875 31.875 0 0 1 31.1469 6.77412A 0.5625 0.5625 0 0 0 31.3897 7.39918C 31.579013361761778 7.482351422014091 31.818032544887693 7.599315555051239 32.10072104217677 7.761134504312219 C 32.62004654116835 8.058543950105838 33.2822334952272 8.504492230064256 34.039435253818084 9.161115892994728 A 35.25 35.25 0 0 1 33.7217 10.2691C 32.73162901669372 10.424678241345413 31.93374604660286 10.451958207668694 31.335730051206607 10.42897513562975 C 31.01024563074391 10.416403306981938 30.745564320228393 10.38893364766297 30.541024440044858 10.359162163650982 A 0.5625 0.5625 0 0 0 30.0038 10.7605A 31.875 31.875 0 0 1 29.901 11.043A 0.5625 0.5625 0 0 0 30.0545 11.6958C 30.23034652464142 11.804482907139363 30.450761328411822 11.953573794178668 30.708177875714988 12.153160567322592 C 31.18105793982372 12.519951784936431 31.774736530975815 13.05371873870115 32.43318490276955 13.809334302076833 A 35.25 35.25 0 0 1 31.9644 14.8623C 30.962252255767865 14.878588299037116 30.16833759038691 14.794558931452634 29.579340070954544 14.688571788587863 C 29.25877290287513 14.63082363200226 29.00049049034868 14.56678478676886 28.80208456796883 14.508836587397596 A 0.5625 0.5625 0 0 0 28.2142 14.8315A 31.875 31.875 0 0 1 28.0731 15.0969A 0.5625 0.5625 0 0 0 28.1342 15.7647C 28.29328037892843 15.896853559877458 28.490800679906048 16.07516931639107 28.717934956937025 16.308639183905278 C 29.135165513608136 16.73767299950731 29.64878046337609 17.348869460474212 30.195659499789617 18.188769726853963 A 35.25 35.25 0 0 1 29.5849 19.1662C 28.59023047372343 19.042903559631405 27.81573675894947 18.849200394197204 27.24722188222199 18.662272099683882 C 26.937811441812787 18.560471617340873 26.690955100643336 18.4611100294724 26.502544881662903 18.376113010527522 A 0.5625 0.5625 0 0 0 25.8755 18.6139A 31.875 31.875 0 0 1 25.6988 18.857A 0.5625 0.5625 0 0 0 25.6664 19.5268C 25.80551771376902 19.67981004047545 25.976299003971345 19.883879953093995 26.168730100389137 20.14668868957537 C 26.52219023142974 20.629614447963633 26.945744609044674 21.306344172245662 27.370409931699893 22.21418143831679 A 35.25 35.25 0 0 1 26.6295 23.0971C 25.661732376413127 22.836570363419217 24.921734251430692 22.53696361191639 24.38476751280751 22.272732512379434 C 24.092536122341915 22.128861134871492 23.86191063041541 21.996110764653675 23.687163305433398 21.885719296426267 A 0.5625 0.5625 0 0 0 23.0331 22.0339A 31.875 31.875 0 0 1 22.8243 22.2501A 0.5625 0.5625 0 0 0 22.699 22.9089C 22.81547999965243 23.079721404087724 22.956198215526506 23.30557348408817 23.11018067892646 23.592605816421603 C 23.3929906849408 24.120023917028977 23.718240486228396 24.849115130311638 24.01242646766947 25.807219376339653 A 35.25 35.25 0 0 1 23.1559 26.5785C 22.23375784818387 26.185749301296852 21.54265853476035 25.786070468345773 21.04769138101816 25.44967952157925 C 20.77832699210331 25.266537541618305 20.56842121228748 25.102982224006123 20.410738039212532 24.9693449508568 A 0.5625 0.5625 0 0 0 19.7424 25.025A 31.875 31.875 0 0 1 19.5056 25.2101A 0.5625 0.5625 0 0 0 19.2898 25.845C 19.38136491956645 26.030412243363415 19.48928114110489 26.273650536911486 19.601817877989394 26.57931970724254 C 19.808473183902006 27.140964556669907 20.02908779144637 27.908226327815612 20.187068436176137 28.89794914447901 A 35.25 35.25 0 0 1 19.2315 29.5425C 18.373028513964424 29.0252524148731 17.744279474121793 28.533280794329222 17.30094587789139 28.131277467472913 C 17.059691361960056 27.912429535377985 16.87459087149474 27.72125268858735 16.737040973928806 27.566970708027817 A 0.5625 0.5625 0 0 0 16.0675 27.5291A 31.875 31.875 0 0 1 15.8072 27.6794A 0.5625 0.5625 0 0 0 15.5052 28.2781C 15.570013617296947 28.474450717477108 15.643027378000383 28.730340867868353 15.711927988794617 29.04869737349007 C 15.838406284142842 29.633637193604866 15.950091685553518 30.424135644985597 15.96879208002264 31.426213203451038 A 35.25 35.25 0 0 1 14.9328 31.9315C 14.154689078730835 31.29981200592912 13.600528197338193 30.72512326577691 13.217457142785715 30.265332096316065 C 13.00900824456756 30.01503783814955 12.852315813950973 29.799960502042797 12.737576444189486 29.62803673733149 A 0.5625 0.5625 0 0 0 12.0798 29.4974A 31.875 31.875 0 0 1 11.8011 29.61A 0.5625 0.5625 0 0 0 11.4187 30.1608C 11.45560971059475 30.36426639758274 11.492299880663015 30.62782779411052 11.51622329335115 30.952675187766125 C 11.560062821982964 31.549524790329002 11.560645187961756 32.34787376876729 11.439701350263272 33.34280176920558 A 35.25 35.25 0 0 1 10.3435 33.699C 9.660844721299943 32.965156359298184 9.19205810956494 32.318936162165954 8.876705639030384 31.810306462209425 C 8.705119579222114 31.533437571001034 8.579885048381211 31.29864598127864 8.490189477742478 31.112426732935287 A 0.5625 0.5625 0 0 0 7.85701 30.8915A 31.875 31.875 0 0 1 7.56534 30.9642A 0.5625 0.5625 0 0 0 7.11001 31.4565C 7.118235391438739 31.663076171100524 7.117887838445903 31.929178890978072 7.096368411012444 32.2541943876585 C 7.056715886369752 32.85133677406193 6.946183881825314 33.64199732480099 6.687949846188449 34.61041062539741 A 35.25 35.25 0 0 1 5.55284 34.8106C 4.97896301041694 33.9888714414431 4.604675066500131 33.283697728403446 4.363179157114329 32.73612939650317 C 4.231795663193868 32.43807481028659 4.140456579819298 32.18813891817102 4.077550630558605 31.991248732043367 A 0.5625 0.5625 0 0 0 3.48128 31.6843A 31.875 31.875 0 0 1 3.18233 31.7157A 0.5625 0.5625 0 0 0 2.66292 32.1399C 2.642312717261121 32.34560018316317 2.604934205930854 32.60906483963543 2.538390789552807 32.92792238239744 C 2.416018002923703 33.51373485532947 2.1965230075961992 34.2813176701122 1.8060250057877631 35.20436720752446 A 35.25 35.25 0 0 1 0.654107 35.2446C 0.2001714480226527 34.351031802748565 -0.07233273899384629 33.600629978002594 -0.23527164405222162 33.024780808889275 C -0.32389534182222657 32.711341821153134 -0.37956116636924264 32.45112634448655 -0.41445310150399384 32.24739746408831 A 0.5625 0.5625 0 0 0 -0.962203 31.8605A 31.875 31.875 0 0 1 -1.26261 31.85A 0.5625 0.5625 0 0 0 -1.836 32.1977C -1.885039568371824 32.39855388023542 -1.9587215078339049 32.65425243345076 -2.068993721248755 32.96074582291956 C -2.2717049227695183 33.523826208946396 -2.5958906884678936 34.25339116139557 -3.111052057027594 35.113110826331216 A 35.25 35.25 0 0 1 -4.25736 34.9926C -4.582516223915755 34.04458840373306 -4.747932670000587 33.26356418523003 -4.829143150284833 32.67064242796174 C -4.8732820924352485 32.347919772070746 -4.892191186198841 32.08248950911577 -4.89838997537924 31.87588728536571 A 0.5625 0.5625 0 0 0 -5.38696 31.4165A 31.875 31.875 0 0 1 -5.68299 31.3643A 0.5625 0.5625 0 0 0 -6.29919 31.6288C -6.375701703007133 31.820906578837707 -6.484252935461361 32.06386214731059 -6.6361076227116795 32.35202583829124 C -6.9152116961670735 32.88141441819331 -7.337778325062844 33.55876135637733 -7.967576030322165 34.33841768347502 A 35.25 35.25 0 0 1 -9.08596 34.0596C -9.276010430090581 33.075505816584226 -9.331119492279125 32.27906095233542 -9.32902087816606 31.680607154478874 C -9.327815950395232 31.35488225983839 -9.309600269374068 31.089403508740972 -9.286985260219737 30.883949218917852 A 0.5625 0.5625 0 0 0 -9.70687 30.361A 31.875 31.875 0 0 1 -9.99275 30.2681A 0.5625 0.5625 0 0 0 -10.6398 30.4443C -10.742268056246605 30.623901526627677 -10.883575755428458 30.84938525657563 -11.07405723775906 31.11361047060454 C -11.424121739835455 31.599003297844632 -11.936844453159583 32.21094843408247 -12.669020199169923 32.89536629978117 A 35.25 35.25 0 0 1 -13.7377 32.4636C -13.788957644549171 31.462646131545828 -13.732686687631555 30.666282514891236 -13.647319826257753 30.07394489889061 C -13.600794481114155 29.751557630068227 -13.54580857281928 29.49119763274087 -13.494819940759216 29.290890210895313 A 0.5625 0.5625 0 0 0 -13.8378 28.7146A 31.875 31.875 0 0 1 -14.108 28.5829A 0.5625 0.5625 0 0 0 -14.7733 28.6673C -14.899748380920034 28.830837065373526 -15.071062153200062 29.034460172477065 -15.29646292522686 29.269604066314884 C -15.710674248583809 29.70155352163692 -16.30357348193488 30.236186039928988 -17.123876300637715 30.812044028986655 A 35.25 35.25 0 0 1 -18.1221 30.2357C -18.03351848316345 29.23740182778642 -17.866962757308812 28.456619770674042 -17.69998921752755 27.881927514450737 C -17.609049017932605 27.569152772923996 -17.518363120523436 27.31897914055958 -17.43999330128198 27.127717342811486 A 0.5625 0.5625 0 0 0 -17.6995 26.5093A 31.875 31.875 0 0 1 -17.9487 26.3412A 0.5625 0.5625 0 0 0 -18.6192 26.3323C -18.76722205157145 26.47661315523296 -18.96520746923875 26.65441234733016 -19.221140361323823 26.85589811255555 C -19.691436353710575 27.22599679114692 -20.352971997924293 27.672910677660134 -21.2454356280342 28.129000369348518 A 35.25 35.25 0 0 1 -22.1537 27.4194C -21.927077397326208 26.443084754500802 -21.653478720283974 25.6930812915459 -21.408148452117505 25.147220126164548 C -21.27456344561339 24.85014571650127 -21.149942656929312 24.61502779428548 -21.045717029893655 24.43653431397095 A 0.5625 0.5625 0 0 0 -21.2166 23.788A 31.875 31.875 0 0 1 -21.44 23.5869A 0.5625 0.5625 0 0 0 -22.1027 23.4847C -22.269413092387715 23.607052086726874 -22.490216594492466 23.755566704787146 -22.77170016401072 23.919472650166654 C -23.28892704888924 24.22051700222958 -24.006223065136624 24.57101358651997 -24.95347671725585 24.898457713784694 A 35.25 35.25 0 0 1 -25.7542 24.0693C -25.39385069163088 23.13408311503191 -25.018534350435797 22.42945621052461 -24.699622428494937 21.92305070266149 C -24.525992695282554 21.647458840328643 -24.369862617221266 21.431972931174734 -24.241809815666755 21.269721940854758 A 0.5625 0.5625 0 0 0 -24.3208 20.6038A 31.875 31.875 0 0 1 -24.514 20.3735A 0.5625 0.5625 0 0 0 -25.1561 20.18C -25.33815533844258 20.27800660197641 -25.577479235976575 20.394345977892087 -25.879034725430156 20.517481860639148 C -26.433125269823133 20.743612400293603 -27.19222030706006 20.990869665031912 -28.175826766335156 21.183294900397943 A 35.25 35.25 0 0 1 -28.8533 20.2508C -28.366361567299975 19.37480286235846 -27.896632667617393 18.729267277493772 -27.510346349705788 18.27217403433171 C -27.30005139504123 18.023428801448503 -27.115450921976855 17.831769093466566 -26.966063348027856 17.68891862410996 A 0.5625 0.5625 0 0 0 -26.9516 17.0184A 31.875 31.875 0 0 1 -27.1109 16.7635A 0.5625 0.5625 0 0 0 -27.7198 16.4826C -27.913719212559183 16.554272784609093 -28.166905338083822 16.636172504762058 -28.482663312884807 16.716141624983994 C -29.062832774614286 16.862956978495276 -29.848951911398743 17.00216234227435 -30.849766396935685 17.05582334741574 A 35.25 35.25 0 0 1 -31.3909 16.0381C -30.78675348131963 15.238414110480795 -30.23175476187317 14.664534461132263 -29.785612671774796 14.265650282713548 C -29.542745647743637 14.04859322229455 -29.333267817904453 13.884490153690765 -29.165453130762028 13.763820627193558 A 0.5625 0.5625 0 0 0 -29.0578 13.1019A 31.875 31.875 0 0 1 -29.1801 12.8273A 0.5625 0.5625 0 0 0 -29.7439 12.4644C -29.94597429358831 12.508328877695575 -30.208094667165202 12.554194857192597 -30.531909257503457 12.589440706927812 C -31.126865297929864 12.654083280439819 -31.9247076194616 12.682527269197445 -32.92325041570902 12.596379593687615 A 35.25 35.25 0 0 1 -33.3175 11.5133C -32.60791625823843 10.805426961381775 -31.978450137800433 10.314373162145545 -31.48113592381995 9.981461875279072 C -31.21042396078781 9.800317756106585 -30.980146021854136 9.666965406446856 -30.797170543517137 9.570825517882763 A 0.5625 0.5625 0 0 0 -30.5984 8.93032A 31.875 31.875 0 0 1 -30.6813 8.64137A 0.5625 0.5625 0 0 0 -31.1892 8.20349C -31.39536504803364 8.218924577190915 -31.66131779474862 8.227864086912863 -31.98688631795685 8.217700645787822 C -32.58504879450574 8.198912245136977 -33.37908520752834 8.116041228986548 -34.35592081478287 7.891761639337766 A 35.25 35.25 0 0 1 -34.5956 6.76433C -33.79440303614563 6.16212446747044 -33.10272135674332 5.763454321983227 -32.563914674369315 5.502995666186875 C -32.27062687276632 5.361290252492215 -32.02403092288223 5.261284173576613 -31.82945606290496 5.191545176519032 A 0.5625 0.5625 0 0 0 -31.5435 4.58493A 31.875 31.875 0 0 1 -31.5854 4.28726A 0.5625 0.5625 0 0 0 -32.0274 3.78296C -32.23368073351742 3.7695482586793876 -32.49828938567244 3.7413873012380683 -32.81927502077511 3.686012389073526 C -33.409001381240195 3.58415870910701 -34.1837768701772 3.3915856781135103 -35.11989229447768 3.033539521424037 A 35.25 35.25 0 0 1 -35.2003 1.88373C -34.323120199517945 1.398883230112502 -33.582685758264624 1.1003563992756442 -33.01287386668601 0.9174199060171606 C -32.70271873996044 0.8179113324903722 -32.44460448879168 0.7531980288897648 -32.242217425497984 0.7112173135894861 A 0.5625 0.5625 0 0 0 -31.8746 0.150297A 31.875 31.875 0 0 1 -31.8746 -0.150297A 0.5625 0.5625 0 0 0 -32.2422 -0.711201C -32.44460448879168 -0.7531980288897568 -32.70271873996044 -0.8179113324903637 -33.01287386668601 -0.9174199060171522 C -33.582685758264624 -1.1003563992756358 -34.32312019951794 -1.3988832301124936 -35.200295018945866 -1.8837269926741649 A 35.25 35.25 0 0 1 -35.1199 -3.03354C -34.183776870177205 -3.391585678113502 -33.409001381240195 -3.5841587091070015 -32.81927502077511 -3.6860123890735177 C -32.49828938567244 -3.74138730123806 -32.23368073351742 -3.7695482586793796 -32.02742070088243 -3.7829535853513905 A 0.5625 0.5625 0 0 0 -31.5854 -4.28726A 31.875 31.875 0 0 1 -31.5435 -4.58493A 0.5625 0.5625 0 0 0 -31.8294 -5.19152C -32.024030922882226 -5.2612841735766205 -32.27062687276632 -5.361290252492222 -32.56391467436931 -5.502995666186883 C -33.10272135674331 -5.763454321983234 -33.794403036145624 -6.1621244674704485 -34.595564040612395 -6.76432890356766 A 35.25 35.25 0 0 1 -34.3559 -7.89176C -33.379085207528334 -8.116041228986555 -32.58504879450573 -8.198912245136984 -31.98688631795684 -8.21770064578783 C -31.661317794748616 -8.22786408691287 -31.395365048033636 -8.21892457719092 -31.189246662975282 -8.203493595799328 A 0.5625 0.5625 0 0 0 -30.6813 -8.64137A 31.875 31.875 0 0 1 -30.5984 -8.93032A 0.5625 0.5625 0 0 0 -30.7971 -9.57079C -30.98014602185414 -9.666965406446849 -31.210423960787814 -9.800317756106578 -31.481135923819952 -9.981461875279063 C -31.978450137800436 -10.314373162145538 -32.60791625823844 -10.805426961381766 -33.31746976009925 -11.51327084666328 A 35.25 35.25 0 0 1 -32.9233 -12.5964C -31.924707619461607 -12.682527269197436 -31.126865297929868 -12.654083280439812 -30.53190925750346 -12.589440706927803 C -30.208094667165206 -12.55419485719259 -29.945974293588314 -12.508328877695568 -29.744009416015572 -12.464361934740674 A 0.5625 0.5625 0 0 0 -29.1801 -12.8273A 31.875 31.875 0 0 1 -29.0578 -13.1019A 0.5625 0.5625 0 0 0 -29.1654 -13.7638C -29.33326781790445 -13.88449015369077 -29.542745647743633 -14.048593222294555 -29.785612671774793 -14.265650282713555 C -30.231754761873166 -14.664534461132268 -30.786753481319625 -15.238414110480798 -31.3908888287659 -16.038120068880097 A 35.25 35.25 0 0 1 -30.8498 -17.0558C -29.84895191139874 -17.002162342274353 -29.062832774614282 -16.862956978495284 -28.482663312884803 -16.716141624983997 C -28.16690533808382 -16.636172504762065 -27.91371921255918 -16.5542727846091 -27.71983885908236 -16.48262564662387 A 0.5625 0.5625 0 0 0 -27.1109 -16.7635A 31.875 31.875 0 0 1 -26.9516 -17.0184A 0.5625 0.5625 0 0 0 -26.966 -17.6889C -27.11545092197686 -17.83176909346656 -27.300051395041233 -18.023428801448496 -27.51034634970579 -18.2721740343317 C -27.896632667617396 -18.729267277493765 -28.36636156729998 -19.374802862358454 -28.85331995298744 -20.250805527047333 A 35.25 35.25 0 0 1 -28.1758 -21.1833C -27.192220307060065 -20.990869665031905 -26.433125269823137 -20.743612400293596 -25.87903472543016 -20.51748186063914 C -25.57747923597658 -20.39434597789208 -25.338155338442583 -20.278006601976404 -25.15613316960648 -20.180073799004305 A 0.5625 0.5625 0 0 0 -24.514 -20.3735A 31.875 31.875 0 0 1 -24.3208 -20.6038A 0.5625 0.5625 0 0 0 -24.2418 -21.2697C -24.36986261722126 -21.43197293117474 -24.525992695282547 -21.647458840328653 -24.69962242849493 -21.9230507026615 C -25.018534350435786 -22.42945621052462 -25.393850691630874 -23.134083115031917 -25.754154024489075 -24.06933209058048 A 35.25 35.25 0 0 1 -24.9535 -24.8985C -24.006223065136616 -24.571013586519978 -23.288927048889228 -24.220517002229585 -22.771700164010714 -23.91947265016666 C -22.49021659449246 -23.755566704787157 -22.26941309238771 -23.60705208672688 -22.102791962661563 -23.484739769380855 A 0.5625 0.5625 0 0 0 -21.44 -23.5869A 31.875 31.875 0 0 1 -21.2166 -23.788A 0.5625 0.5625 0 0 0 -21.0457 -24.4365C -21.149942656929312 -24.61502779428548 -21.27456344561339 -24.85014571650127 -21.408148452117505 -25.147220126164548 C -21.653478720283974 -25.6930812915459 -21.927077397326208 -26.443084754500802 -22.153712782820037 -27.41937648342993 A 35.25 35.25 0 0 1 -21.2454 -28.129C -20.352971997924293 -27.672910677660134 -19.691436353710575 -27.22599679114692 -19.221140361323823 -26.85589811255555 C -18.96520746923875 -26.65441234733016 -18.76722205157145 -26.47661315523296 -18.619245051716664 -26.332301993641952 A 0.5625 0.5625 0 0 0 -17.9487 -26.3412A 31.875 31.875 0 0 1 -17.6995 -26.5093A 0.5625 0.5625 0 0 0 -17.44 -27.1277C -17.518363120523457 -27.318979140559566 -17.609049017932623 -27.569152772923978 -17.699989217527566 -27.881927514450723 C -17.866962757308833 -28.456619770674028 -18.033518483163473 -29.237401827786407 -18.12207472130822 -30.235733902107878 A 35.25 35.25 0 0 1 -17.1239 -30.812C -16.3035734819349 -30.236186039928974 -15.71067424858383 -29.701553521636907 -15.296462925226882 -29.26960406631487 C -15.071062153200083 -29.034460172477047 -14.899748380920057 -28.83083706537351 -14.773295714917452 -28.66733591214637 A 0.5625 0.5625 0 0 0 -14.108 -28.5829A 31.875 31.875 0 0 1 -13.8378 -28.7146A 0.5625 0.5625 0 0 0 -13.4948 -29.2908C -13.545808572819286 -29.491197632740867 -13.600794481114162 -29.75155763006822 -13.64731982625776 -30.073944898890606 C -13.732686687631562 -30.666282514891233 -13.788957644549178 -31.462646131545824 -13.737711088900582 -32.46358715301887 A 35.25 35.25 0 0 1 -12.669 -32.8954C -11.93684445315959 -32.21094843408247 -11.424121739835462 -31.59900329784463 -11.074057237759067 -31.113610470604538 C -10.883575755428465 -30.84938525657563 -10.742268056246612 -30.623901526627673 -10.639800981402159 -30.444392745732163 A 0.5625 0.5625 0 0 0 -9.99275 -30.2681A 31.875 31.875 0 0 1 -9.70687 -30.361A 0.5625 0.5625 0 0 0 -9.28698 -30.8839C -9.309600269374068 -31.089403508740972 -9.327815950395232 -31.35488225983839 -9.32902087816606 -31.680607154478874 C -9.331119492279125 -32.27906095233542 -9.276010430090583 -33.075505816584226 -9.085958536562249 -34.05957360677943 A 35.25 35.25 0 0 1 -7.96758 -34.3384C -7.337778325062846 -33.55876135637733 -6.9152116961670735 -32.88141441819331 -6.63610762271168 -32.35202583829124 C -6.484252935461363 -32.06386214731059 -6.375701703007134 -31.820906578837707 -6.299214624378108 -31.628884104505747 A 0.5625 0.5625 0 0 0 -5.68299 -31.3643A 31.875 31.875 0 0 1 -5.38696 -31.4165A 0.5625 0.5625 0 0 0 -4.8984 -31.8758C -4.8921911861988345 -32.082489509115774 -4.873282092435242 -32.34791977207075 -4.8291431502848265 -32.67064242796174 C -4.74793267000058 -33.26356418523004 -4.582516223915748 -34.044588403733066 -4.25735813643438 -34.992629202474774 A 35.25 35.25 0 0 1 -3.11105 -35.1131C -2.595890688467886 -34.25339116139558 -2.271704922769511 -33.5238262089464 -2.068993721248748 -32.96074582291956 C -1.9587215078338982 -32.654252433450765 -1.885039568371817 -32.398553880235426 -1.836021219940971 -32.197755211507555 A 0.5625 0.5625 0 0 0 -1.26261 -31.85A 31.875 31.875 0 0 1 -0.962203 -31.8605A 0.5625 0.5625 0 0 0 -0.414467 -32.2473C -0.3795611663692362 -32.45112634448655 -0.32389534182222013 -32.711341821153134 -0.23527164405221512 -33.02478080888928 C -0.07233273899383974 -33.600629978002594 0.20017144802265951 -34.351031802748565 0.6541068971460772 -35.24459307426971 A 35.25 35.25 0 0 1 1.80603 -35.2044C 2.1965230075962063 -34.2813176701122 2.4160180029237095 -33.51373485532947 2.5383907895528135 -32.92792238239743 C 2.6049342059308604 -32.60906483963543 2.6423127172611274 -32.34560018316317 2.6629082490991327 -32.139933637721086 A 0.5625 0.5625 0 0 0 3.18233 -31.7157A 31.875 31.875 0 0 1 3.48128 -31.6843A 0.5625 0.5625 0 0 0 4.07753 -31.9912C 4.140456579819284 -32.18813891817103 4.231795663193852 -32.438074810286594 4.363179157114315 -32.73612939650318 C 4.604675066500116 -33.28369772840345 4.978963010416923 -33.9888714414431 5.552840484009124 -34.81056103200441 A 35.25 35.25 0 0 1 6.68795 -34.6104C 6.946183881825299 -33.64199732480099 7.056715886369737 -32.851336774061934 7.096368411012429 -32.25419438765851 C 7.117887838445888 -31.92917889097808 7.118235391438724 -31.66307617110053 7.110007238083732 -31.45654481430903 A 0.5625 0.5625 0 0 0 7.56534 -30.9642A 31.875 31.875 0 0 1 7.85701 -30.8915A 0.5625 0.5625 0 0 0 8.49016 -31.1124C 8.579885048381204 -31.298645981278643 8.705119579222107 -31.533437571001038 8.876705639030373 -31.81030646220943 C 9.192058109564933 -32.31893616216596 9.660844721299934 -32.96515635929819 10.343494347113396 -33.698981015677425 A 35.25 35.25 0 0 1 11.4397 -33.3428C 11.560645187961747 -32.3478737687673 11.560062821982957 -31.549524790329006 11.516223293351143 -30.95267518776613 C 11.492299880663008 -30.627827794110523 11.455609710594743 -30.364266397582742 11.418718023692422 -30.160890127375836 A 0.5625 0.5625 0 0 0 11.8011 -29.61A 31.875 31.875 0 0 1 12.0798 -29.4974A 0.5625 0.5625 0 0 0 12.7375 -29.628C 12.852315813950973 -29.799960502042797 13.00900824456756 -30.01503783814955 13.217457142785715 -30.265332096316065 C 13.600528197338193 -30.72512326577691 14.154689078730835 -31.29981200592912 14.932823858301541 -31.931488665903043 A 35.25 35.25 0 0 1 15.9688 -31.4262C 15.950091685553518 -30.424135644985597 15.838406284142842 -29.633637193604866 15.711927988794617 -29.04869737349007 C 15.643027378000383 -28.730340867868353 15.570013617296947 -28.474450717477108 15.50517645156918 -28.278188021617296 A 0.5625 0.5625 0 0 0 15.8072 -27.6794A 31.875 31.875 0 0 1 16.0675 -27.5291A 0.5625 0.5625 0 0 0 16.737 -27.5669C 16.874590871494743 -27.72125268858735 17.059691361960063 -27.912429535377985 17.300945877891394 -28.131277467472913 C 17.744279474121797 -28.533280794329222 18.37302851396443 -29.0252524148731 19.23150293892323 -29.542486210776868 A 35.25 35.25 0 0 1 20.1871 -28.8979C 20.029087791446376 -27.908226327815612 19.80847318390201 -27.140964556669907 19.601817877989397 -26.57931970724254 C 19.48928114110489 -26.273650536911486 19.381364919566455 -26.030412243363415 19.289844256692948 -25.8450831519801 A 0.5625 0.5625 0 0 0 19.5056 -25.2101A 31.875 31.875 0 0 1 19.7424 -25.025A 0.5625 0.5625 0 0 0 20.4107 -24.9693C 20.568421212287465 -25.102982224006137 20.778326992103295 -25.266537541618316 21.047691381018144 -25.449679521579263 C 21.542658534760335 -25.786070468345788 22.233757848183856 -26.18574930129687 23.15586269034911 -26.578472865637945 A 35.25 35.25 0 0 1 24.0124 -25.8072C 23.71824048622838 -24.849115130311656 23.392990684940784 -24.12002391702899 23.11018067892645 -23.592605816421617 C 22.95619821552649 -23.30557348408819 22.815479999652414 -23.07972140408774 22.699057185232792 -22.908933137135982 A 0.5625 0.5625 0 0 0 22.8243 -22.2501A 31.875 31.875 0 0 1 23.0331 -22.0339A 0.5625 0.5625 0 0 0 23.6871 -21.8857C 23.8619106304154 -21.996110764653686 24.092536122341908 -22.1288611348715 24.384767512807503 -22.272732512379445 C 24.921734251430678 -22.5369636119164 25.66173237641312 -22.836570363419227 26.62951991391079 -23.09713977873414 A 35.25 35.25 0 0 1 27.3704 -22.2142C 26.945744609044667 -21.306344172245673 26.522190231429732 -20.629614447963647 26.16873010038913 -20.14668868957538 C 25.976299003971338 -19.88387995309401 25.805517713769014 -19.67981004047546 25.666458785456967 -19.526886797302698 A 0.5625 0.5625 0 0 0 25.6988 -18.857A 31.875 31.875 0 0 1 25.8755 -18.6139A 0.5625 0.5625 0 0 0 26.5025 -18.3761C 26.690955100643333 -18.4611100294724 26.937811441812784 -18.560471617340877 27.247221882221986 -18.662272099683886 C 27.815736758949466 -18.849200394197208 28.590230473723427 -19.04290355963141 29.584863822978136 -19.16624713864437 A 35.25 35.25 0 0 1 30.1957 -18.1888C 29.648780463376088 -17.348869460474216 29.135165513608133 -16.737672999507314 28.71793495693702 -16.30863918390528 C 28.490800679906044 -16.075169316391072 28.293280378928426 -15.896853559877462 28.134291960586356 -15.764771817464444 A 0.5625 0.5625 0 0 0 28.0731 -15.0969A 31.875 31.875 0 0 1 28.2142 -14.8315A 0.5625 0.5625 0 0 0 28.802 -14.5088C 29.000490490348685 -14.566784786768858 29.258772902875133 -14.630823632002258 29.579340070954547 -14.688571788587861 C 30.168337590386916 -14.794558931452633 30.96225225576787 -14.878588299037114 31.964372010015033 -14.862305299283879 A 35.25 35.25 0 0 1 32.4332 -13.8093C 31.77473653097582 -13.053718738701148 31.181057939823727 -12.51995178493643 30.70817787571499 -12.15316056732259 C 30.450761328411826 -11.953573794178666 30.230346524641423 -11.804482907139361 30.054523144985716 -11.695813486361404 A 0.5625 0.5625 0 0 0 29.901 -11.043A 31.875 31.875 0 0 1 30.0038 -10.7605A 0.5625 0.5625 0 0 0 30.541 -10.3592C 30.745564320228393 -10.388933647662963 31.01024563074391 -10.41640330698193 31.335730051206607 -10.428975135629743 C 31.93374604660286 -10.451958207668687 32.73162901669372 -10.424678241345406 33.721730054811246 -10.269085592894534 A 35.25 35.25 0 0 1 34.0394 -9.16112C 33.2822334952272 -8.50449223006425 32.62004654116835 -8.05854395010583 32.10072104217677 -7.761134504312212 C 31.818032544887693 -7.5993155550512315 31.579013361761778 -7.482351422014084 31.3897772228813 -7.3992094495369924 A 0.5625 0.5625 0 0 0 31.1469 -6.77412A 31.875 31.875 0 0 1 31.2094 -6.4801A 0.5625 0.5625 0 0 0 31.6855 -6.00786C 31.892210713175917 -6.0088737323422095 32.15813920104184 -5.999239540074373 32.482205689876565 -5.96639034444001 C 33.07760046011943 -5.905922006298747 33.86392185048579 -5.767863679581687 34.822732981989965 -5.475989816351259 A 35.25 35.25 0 0 1 34.9831 -4.33459C 34.141929642473464 -3.7897354538857115 33.42412304134213 -3.4402857237443327 32.868460187581576 -3.2180467863350755 C 32.566001950352906 -3.0971452827380768 32.31303062439073 -3.014584477507924 32.11406499247588 -2.958588217253376 A 0.5625 0.5625 0 0 0 31.7865 -2.37339A 31.875 31.875 0 0 1 31.8075 -2.07353A 0.5625 0.5625 0 0 0 32.2132 -1.53963" stroke="#191919" stroke-width="0.35 px" style="stroke-width:0.35;stroke-miterlimit:4;stroke-dasharray:none;fill:none;fill-rule: evenodd "/>
<title>b'InvoluteGear'</title>
</g>
</svg>