<?xml version="1.0"?>
<!DOCTYPE svg PUBLIC "-//W3C//DTD SVG 1.1//EN" "http://www.w3.org/Graphics/SVG/1.1/DTD/svg11.dtd">
<svg width="188.17040067447505mm" height="188.1859467456826mm" viewBox="0 0 188.17040067447505 188.1859467456826" xmlns="http://www.w3.org/2000/svg" version="1.1">
<g id="InvoluteGear" transform="translate(94.077570,94.092973) scale(1,-1)">
<path id="InvoluteGear_w0000"  d="M 89.23456494587313 -1.6597948429691884 C 89.47873599100268 -1.58934531111967 89.73333127012648 -1.5120595210333763 89.99805808782551 -1.4273038510502989 C 90.68239940585708 -1.2081987320702205 91.43422410957518 -0.9392735255890878 92.24802269243594 -0.6097832343548708 A 92.25 92.25 0 0 1 92.248 0.609783C 91.43422410957518 0.9392735255890878 90.68239940585708 1.2081987320702205 89.99805808782551 1.4273038510502989 C 89.73333127012648 1.5120595210333763 89.47873599100268 1.58934531111967 89.23456581872553 1.6597944908291875 A 0.5625 0.5625 0 0 0 88.8475 2.21164A 88.875 88.875 0 0 1 88.8425 2.40286A 0.5625 0.5625 0 0 0 89.2004 2.97406C 89.4406196546789 3.057085025412739 89.69086033427955 3.147481108150852 89.9508311807494 3.2458628675835803 C 90.62287767493193 3.500192579543163 91.35973074040156 3.807777871307485 92.155330590559 4.179063292396474 A 92.25 92.25 0 0 1 92.092 5.39699C 91.262226975905 5.683792807122021 90.4974574204188 5.913332953508635 89.80266614174165 6.096622810845707 C 89.53389700951091 6.167523905077462 89.2756334747246 6.23149105368581 89.02813584084416 6.289171909913596 A 0.5625 0.5625 0 0 0 88.6129 6.82018A 88.875 88.875 0 0 1 88.598 7.01089A 0.5625 0.5625 0 0 0 88.9258 7.59989C 89.16138722065712 7.695274001202071 89.40659869610438 7.798536684734756 89.66111273590522 7.910279313787369 C 90.31905268770662 8.199147990787907 91.03894768933715 8.544564172269176 91.81420401025545 8.956643803360071 A 92.25 92.25 0 0 1 91.6878 10.1696C 90.84420301325467 10.412989588128141 90.06855028951252 10.602525874767736 89.36518208463966 10.749506353411638 C 89.09309519193992 10.806361735077168 88.83185963432054 10.856837798084163 88.58170174870071 10.901594833439667 A 0.5625 0.5625 0 0 0 88.1395 11.4103A 88.875 88.875 0 0 1 88.1147 11.6A 0.5625 0.5625 0 0 0 88.4115 12.2052C 88.64179145021184 12.312717878790492 88.8813126747207 12.428568785179543 89.12968378299873 12.553371045479947 C 89.77174350263115 12.875999948639551 90.47273973077395 13.258315838881263 91.2255625684754 13.71007878614335 A 92.25 92.25 0 0 1 91.0363 14.9149C 90.18127914032186 15.114114790196716 89.3968342709334 15.26313626077008 88.6867852961913 15.373411127336189 C 88.41211414118098 15.416067524378423 88.14861080560603 15.452916427242249 87.89646704967913 15.484628984671089 A 0.5625 0.5625 0 0 0 87.4284 15.9697A 88.875 88.875 0 0 1 87.3939 16.1579A 0.5625 0.5625 0 0 0 87.6588 16.7777C 87.88323308167686 16.896968845837232 88.11641834837285 17.025095661521192 88.35797696053153 17.162621108240366 C 88.98242556850553 17.518140487076145 89.66263326126399 17.93632543003076 90.39099313847545 18.426553820428843 A 92.25 92.25 0 0 1 90.1395 19.6199C 89.27524248266461 19.77449501093084 88.48412019230969 19.882599929899953 87.7693046141993 19.955871902844343 C 87.49278966175108 19.984214321158404 87.2277289066265 20.00733672575174 86.97427901538009 20.025919313805794 A 0.5625 0.5625 0 0 0 86.4817 20.4861A 88.875 88.875 0 0 1 86.4374 20.6722A 0.5625 0.5625 0 0 0 86.6699 21.3049C 86.88775705430241 21.435668572219914 87.11397773693312 21.575725889956217 87.34807265366109 21.72560377880398 C 87.95322674693062 22.113055215925584 88.61081218462417 22.565981858921003 89.312745571889 23.093354123385804 A 92.25 92.25 0 0 1 88.9996 24.272C 88.12853555492683 24.381566689199662 87.3328685694317 24.44846362481568 86.61521340437386 24.48453517585361 C 86.33760008991234 24.498487209290595 86.07169647217184 24.507820781698637 85.8176237017034 24.513223305005873 A 0.5625 0.5625 0 0 0 85.3018 24.9472A 88.875 88.875 0 0 1 85.2479 25.1307A 0.5625 0.5625 0 0 0 85.4472 25.7747C 85.6580469954605 25.916581525907635 85.87669324306083 26.06819177592947 86.10269338585002 26.230018062615542 C 86.68692157596942 26.648357057448997 87.32011202451763 27.134804390332075 87.9937266335239 27.697898826476766 A 92.25 92.25 0 0 1 87.6199 28.8588C 86.74424967625059 28.922909974278003 85.9461829731361 28.94841858422972 85.22762289257608 28.947192470836953 C 84.94965961251569 28.946716507181407 84.68362996130153 28.9422360857431 84.42961924688075 28.934443980055836 A 0.5625 0.5625 0 0 0 83.892 29.3411A 88.875 88.875 0 0 1 83.8287 29.5216A 0.5625 0.5625 0 0 0 83.9942 30.175C 84.19741798605989 30.327627957792117 84.40790036700247 30.49038242566976 84.6251964794242 30.66372085513575 C 85.18692379048309 31.111819639712326 85.79401228038323 31.630476286476352 86.43749216523857 32.22777489125485 A 92.25 92.25 0 0 1 86.0039 33.3677C 85.12611663662635 33.38628220756809 84.32780166262776 33.370333725152946 83.61027377750301 33.33181325271441 C 83.33270987170354 33.31691057508019 83.067271355922 33.298628238219614 82.81400746552647 33.27766250967715 A 0.5625 0.5625 0 0 0 82.256 33.6558A 88.875 88.875 0 0 1 82.1834 33.8328A 0.5625 0.5625 0 0 0 82.3148 34.4939C 82.50980762367418 34.65691646655563 82.71155871467276 34.83037639501829 82.91956500482542 35.01475967750417 C 83.45727711930523 35.491410256723476 84.03662704732035 36.04087801074604 84.64823750002091 36.67077057272087 A 92.25 92.25 0 0 1 84.1561 37.7866C 83.2784986366468 37.75965092664268 82.48208750779382 37.70228834614961 81.76752614642541 37.62657735904868 C 81.49110987810424 37.59728814241994 81.22697807306496 37.56525317608498 80.97514376136671 37.53117034458479 A 0.5625 0.5625 0 0 0 80.3983 37.8799A 88.875 88.875 0 0 1 80.3166 38.0528A 0.5625 0.5625 0 0 0 80.4135 38.7199C 80.5997654074748 38.892776055786555 80.79224132325719 39.07647382753441 80.9903970429575 39.27140489830914 C 81.50264438406386 39.775322306480284 82.05269392521573 40.35411989984115 82.63078615211232 41.01490834002874 A 92.25 92.25 0 0 1 82.0814 42.1037C 81.2063765277854 42.03122630263644 80.41401622767778 41.932604263440886 79.70434772116319 41.81990686511325 C 79.42982425970995 41.776310068039756 79.16771121806143 41.730608832835955 78.9179853858411 41.68350077966598 A 0.5625 0.5625 0 0 0 78.3238 42.0018A 88.875 88.875 0 0 1 78.2332 42.1703A 0.5625 0.5625 0 0 0 78.2954 42.8415C 78.47244047358568 43.02378759692234 78.65512233311219 43.21722799524009 78.84289328957334 43.42218135460021 C 79.32829492903873 43.952007119482175 79.8475612470119 44.558574216199716 80.39057681366613 45.248477165791144 A 92.25 92.25 0 0 1 79.7854 46.3073C 78.91533638490128 46.18949292354017 78.1291629768207 46.04987729322366 77.42630046598578 45.90049729593059 C 77.15440987811746 45.842710447669425 76.89502221027901 45.783466146047026 76.64807807422935 45.72345986619002 A 0.5625 0.5625 0 0 0 76.0382 46.0105A 88.875 88.875 0 0 1 75.939 46.174A 0.5625 0.5625 0 0 0 75.9662 46.8475C 76.13356771392253 47.0388146132012 76.30596303919762 47.24147615697476 76.48284303511844 47.45589928689872 C 76.94009041594074 48.01020509190134 77.42717366054697 48.64290649432242 77.93364869299505 49.36006409693882 A 92.25 92.25 0 0 1 77.2743 50.386C 76.41155444716921 50.22324083771565 75.63368731563023 50.043007995333795 74.93952559353971 49.85734810113795 C 74.6710008482116 49.78552698481547 74.41503781747662 49.71289932893738 74.17154109532923 49.64015658871488 A 0.5625 0.5625 0 0 0 73.5475 49.8951A 88.875 88.875 0 0 1 73.44 50.0533A 0.5625 0.5625 0 0 0 73.4323 50.7273C 73.5894523159382 50.92703330163455 73.75109635964401 51.13836965117203 73.91660855782746 51.361684504811045 C 74.34446902190824 51.93897603948398 74.79805610283526 52.596106096487794 75.26662523393328 53.33858502202429 A 92.25 92.25 0 0 1 74.5549 54.3289C 73.7017804680305 54.121595773943405 72.93431660529468 53.90123159537453 72.25072700922522 53.67979231052643 C 71.98629200167616 53.59413054317443 71.7344436391218 53.50831532436051 71.49505075498999 53.4230322253394 A 0.5625 0.5625 0 0 0 70.8587 53.6453A 88.875 88.875 0 0 1 70.743 53.7977A 0.5625 0.5625 0 0 0 70.7004 54.4704C 70.84695276495204 54.67796171206632 70.99740976332502 54.89740314193312 71.15110797214697 55.12900770192333 C 71.54842808331978 55.727728690352905 71.96729620999056 56.407515895484806 72.396696260203 57.17331455202668 A 92.25 92.25 0 0 1 71.6345 58.1254C 70.7933195190513 57.87404845653536 70.03832787200676 57.61414700464502 69.36715323865229 57.35752529030668 C 69.10752083891116 57.25825380090513 68.8604660831967 57.15948236181336 68.62582239797194 57.06188881215076 A 0.5625 0.5625 0 0 0 67.9788 57.2508A 88.875 88.875 0 0 1 67.8554 57.397A 0.5625 0.5625 0 0 0 67.7778 58.0666C 67.91346235488606 58.281488004657284 68.05232670245904 58.50844293955521 68.193796578722 58.747712840950015 C 68.55950523221239 59.366249237203874 68.94252521021228 60.06686100434362 69.3315985929207 60.85391493410423 A 92.25 92.25 0 0 1 68.5211 61.7652C 67.69401229674098 61.47048293648403 66.95352818938741 61.17174485963655 66.29657788689737 60.8806325225797 C 66.04244801801148 60.768018929513076 65.80085288507962 60.6565575404807 65.57159095665287 60.54691663513219 A 0.5625 0.5625 0 0 0 64.9156 60.702A 88.875 88.875 0 0 1 64.7848 60.8416A 0.5625 0.5625 0 0 0 64.6726 61.5062C 64.79688925725158 61.72789770961757 64.9237866002944 61.96175431916724 65.0526467662235 62.208044532614835 C 65.38575807615807 62.84472887192446 65.73189735134346 63.56427647561434 66.07959519349531 64.37046392034834 A 92.25 92.25 0 0 1 65.2228 65.2384C 64.41221398542066 64.90120386227261 63.688233631995665 64.564434505507 63.04727868223829 64.23961633312437 C 62.79933643340459 64.11396422272975 62.563852221020255 63.990113363955494 62.34059009901756 63.86872067541763 A 0.5625 0.5625 0 0 0 61.6774 63.9895A 88.875 88.875 0 0 1 61.5396 64.1221A 0.5625 0.5625 0 0 0 61.393 64.7801C 61.50563520211706 65.00789991569974 61.620223447828025 65.2480277638271 61.73612651919808 65.50067433445557 C 62.035742476378545 66.15379022840646 62.34406791846013 66.89033389552128 62.64945288814514 67.7134815164097 A 92.25 92.25 0 0 1 61.7488 68.5358C 60.956771733123475 68.1569626168286 60.25124685666184 67.78306985079062 59.62801516086236 67.42542149544789 C 59.3869289405481 67.2870696035999 59.15819047251483 67.15116315510247 58.9415300321449 67.0183459366016 A 0.5625 0.5625 0 0 0 58.273 67.1046A 88.875 88.875 0 0 1 58.1284 67.2298A 0.5625 0.5625 0 0 0 57.9479 67.8793C 58.04857282852915 68.11265231685287 58.15054306725676 68.35840406133342 58.25317658987875 68.61672589865564 C 58.51848948265596 69.28451266226709 58.78816990075308 70.03606680129946 59.050418734084346 70.87395553788694 A 92.25 92.25 0 0 1 58.1083 71.6484C 57.33700080124755 71.22898225016016 56.65183337208108 70.81897402364372 56.04800505270548 70.42945964207549 C 55.814424786737135 70.27878094101426 55.59304870152433 70.13118528255087 55.38357402102934 69.98730158582633 A 0.5625 0.5625 0 0 0 54.7115 70.0387A 88.875 88.875 0 0 1 54.5606 70.1563A 0.5625 0.5625 0 0 0 54.3466 70.7955C 54.43502176544656 71.03378504951637 54.5240991034553 71.2844981870953 54.61318639549761 71.54779890110858 C 54.843480987219316 72.228456299329 55.07378937060368 72.9929948531931 55.29219509109149 73.84336590558257 A 92.25 92.25 0 0 1 54.3112 74.5679C 53.56265945225823 74.10898114046168 52.899696560639974 73.663962763157 52.316899432081854 73.24363241727075 C 52.091454811560055 73.08103311013471 51.87803789995467 72.92214613350599 51.67631368603861 72.76758384356584 A 0.5625 0.5625 0 0 0 51.0024 72.784A 88.875 88.875 0 0 1 50.8457 72.8936A 0.5625 0.5625 0 0 0 50.5988 73.5209C 50.67472350766804 73.76342325629236 50.7506678082033 74.01842190867625 50.825968706077 74.28599168720655 C 51.02062416323948 74.97768478802895 51.210939641227434 75.7531466959522 51.38491346566298 76.61370761413 A 92.25 92.25 0 0 1 50.3676 77.2863C 49.643922643137735 76.78919531990194 49.00495151981321 76.310366482676 48.444756700094 75.86035330877081 C 48.22805548385759 75.68627173454483 48.023173080121715 75.51652177094897 47.82974314560093 75.35169756040062 A 0.5625 0.5625 0 0 0 47.1559 75.3332A 88.875 88.875 0 0 1 46.9937 75.4345A 0.5625 0.5625 0 0 0 46.7146 76.0481C 46.77781515448467 76.29420831516899 46.840421685138985 76.55280505107417 46.90173319093643 76.82392257330427 C 47.0602247568418 77.52478669441858 47.21003427255202 78.30908144819703 47.339107198262795 79.17751231207292 A 92.25 92.25 0 0 1 46.2882 79.7964C 45.59135459549999 79.26239940490872 44.978097793649106 78.7510509456509 44.44201546896165 78.27256809968235 C 44.23464184517733 78.08747355151333 44.0388462760487 77.90731821684076 43.85423207382871 77.73267642261534 A 0.5625 0.5625 0 0 0 43.1823 77.6792A 88.875 88.875 0 0 1 43.015 77.7719A 0.5625 0.5625 0 0 0 42.7045 78.3702C 42.75480208185243 78.61931767706434 42.803902066487844 78.88081536541014 42.85105889522914 79.15474974643304 C 42.97295930463663 79.86289548207984 43.081858998100756 80.65390876171877 43.165683067298815 81.52786843522028 A 92.25 92.25 0 0 1 42.0841 82.0914C 41.41588031631697 81.5219260745255 40.82999106785515 80.97943649827673 40.31946642136871 80.47377388540293 C 40.12197943266303 80.27816534546844 39.935798528379834 80.0880903066504 39.76049774571046 79.90410173214889 A 0.5625 0.5625 0 0 0 39.0922 79.8158A 88.875 88.875 0 0 1 38.9204 79.8998A 0.5625 0.5625 0 0 0 38.5792 80.4811C 38.61652962175588 80.73248325821265 38.65199069549456 80.99617694746344 38.68486572070664 81.27218970861887 C 38.769846351664214 81.98570802309335 38.83754264856185 82.78130739664016 38.87589188637654 83.65843983900153 A 92.25 92.25 0 0 1 37.7665 84.1651C 37.12875614603129 83.56168404433001 36.57181390478854 82.98951580707698 36.088223220690494 82.45803660430227 C 35.90115525706979 82.25244139864286 35.72509092843361 82.0529590643792 35.559576145232164 81.86011971026966 A 0.5625 0.5625 0 0 0 34.8968 81.7373A 88.875 88.875 0 0 1 34.7208 81.8122A 0.5625 0.5625 0 0 0 34.3499 82.375C 34.374153825110604 82.62800833780983 34.3958803911672 82.89318715639982 34.41438498759431 83.17053421608207 C 34.46221674734528 83.88750159015679 34.48852715042854 84.6855422623605 34.481298174094775 85.56348287959206 A 92.25 92.25 0 0 1 33.3471 86.0118C 32.741539413452614 85.37617448746003 32.21504559724525 84.7758700536124 31.75969255052222 84.22000703490318 C 31.58354791414322 84.00497941184454 31.418074799456313 83.79662755124042 31.262792214315688 83.59545727832804 A 0.5625 0.5625 0 0 0 30.6073 83.4384A 88.875 88.875 0 0 1 30.4276 83.504A 0.5625 0.5625 0 0 0 30.028 84.0469C 30.039111387022324 84.30078291536563 30.047044874415963 84.56673198808289 30.0511291569377 84.84466566765343 C 30.061683099514315 85.56314928404599 30.046536680588115 86.36147987834603 29.99374897814802 87.23786189776158 A 92.25 92.25 0 0 1 28.8378 87.6268C 28.26605727924237 86.96050585847856 27.77143122231602 86.33368354265754 27.345543364276633 85.75493521643699 C 27.18079690993707 85.53105485243452 27.026361095461368 85.31439514527 26.881729322777502 85.10543627304409 A 0.5625 0.5625 0 0 0 26.2353 84.9145A 88.875 88.875 0 0 1 26.0524 84.9708A 0.5625 0.5625 0 0 0 25.6252 85.4922C 25.623088815478805 85.7462974863616 25.617207836930085 86.01229986152524 25.606860795042873 86.29007090092195 C 25.58010846888186 87.0081338548288 25.523546060013764 87.8046022130859 25.425341937780374 88.67706306370337 A 92.25 92.25 0 0 1 24.2508 89.0054C 23.71437485197967 88.31040708011534 23.25294997873509 87.6587566844637 22.857675427748642 87.05868325389797 C 22.70477128276262 86.8265536908315 22.56178910015007 86.60217021337216 22.428198041611562 86.38598605800884 A 0.5625 0.5625 0 0 0 21.7925 86.1618A 88.875 88.875 0 0 1 21.607 86.2085A 0.5625 0.5625 0 0 0 21.1533 86.707C 21.137990926590565 86.96065519907788 21.118311336177904 87.22599378131306 21.093560863677336 87.50285335892298 C 21.02957438832028 88.21855987957221 20.931748471764497 89.01101886390626 20.788392670689102 89.8772065455214 A 92.25 92.25 0 0 1 19.5984 90.1442C 19.098762662761704 89.42223905733624 18.67178289307832 88.74751731611039 18.30818723945067 88.12773647307671 C 18.167537606359986 87.8879834912083 18.036394510295988 87.65648114163892 17.914204303778074 87.43365449740017 A 0.5625 0.5625 0 0 0 17.291 87.1768A 88.875 88.875 0 0 1 17.1033 87.2138A 0.5625 0.5625 0 0 0 16.6243 87.688C 16.59590875131125 87.9405823598166 16.562483601731103 88.20454184321687 16.523396421515216 88.47974359456687 C 16.422348293187017 89.19116426371406 16.28352259031919 89.97747754480817 16.095401572296517 90.8350569685713 A 92.25 92.25 0 0 1 14.8932 91.0399C 14.431663586021191 90.29300448769995 14.040279981869057 89.597030331425 13.709343415199525 88.95921289550039 C 13.581327460548462 88.71248282648142 13.462376989634219 88.47448569420737 13.351917038330734 88.24561726233081 A 0.5625 0.5625 0 0 0 12.7429 87.9567A 88.875 88.875 0 0 1 12.5536 87.9839A 0.5625 0.5625 0 0 0 12.0506 88.4327C 12.009086940156006 88.68343725820121 11.962006339702151 88.94530605466672 11.908687823898283 89.2181080844902 C 11.770850450487847 89.9233250377888 11.591399210858853 90.70137285405548 11.359020116894133 91.54803213745815 A 92.25 92.25 0 0 1 10.1478 91.6902C 9.725659295736918 90.92035594155544 9.37092695811713 90.20500559351015 9.07354162488065 89.55087100773726 C 8.958504457050028 89.29782899221247 8.852067280724963 89.05397867542503 8.75363536513556 88.81968544473963 A 0.5625 0.5625 0 0 0 8.16043 88.4996A 88.875 88.875 0 0 1 7.96993 88.5169A 0.5625 0.5625 0 0 0 7.44435 88.939C 7.389890753788421 89.18721728876066 7.329281623435944 89.44628944631394 7.2618755093361145 89.71595632856923 C 7.08762047603283 90.41306842579388 6.86802746845815 91.18075329787749 6.592016751504641 92.01420999717902 A 92.25 92.25 0 0 1 5.37502 92.0933C 4.993436347465028 91.30260219029745 4.6763115720439625 90.56980410854786 4.413279170521916 89.90111580412045 C 4.311530909377907 89.64244399862649 4.21789396345155 89.39339787466754 4.131755438618123 89.15431145830074 A 0.5625 0.5625 0 0 0 3.55596 88.8038A 88.875 88.875 0 0 1 3.36482 88.8113A 0.5625 0.5625 0 0 0 2.81805 89.2055C 2.750772728463894 89.45056434959969 2.6767984597126726 89.70614145550731 2.5954864622832527 89.97194621595635 C 2.385283529849027 90.65907416614068 2.126140738253555 91.41432655135097 1.807242474406116 92.23233381464321 A 92.25 92.25 0 0 1 0.587779 92.2482C 0.24775197762814427 91.43871276561953 -0.030910323266575057 90.69044244423709 -0.25888070422319576 90.0090030866014 C -0.347065763357401 89.7453988245933 -0.4276500502336258 89.49182827778228 -0.5012629700772104 89.24859321044268 A 0.5625 0.5625 0 0 0 -1.05809 88.8687A 88.875 88.875 0 0 1 -1.24936 88.8662A 0.5625 0.5625 0 0 0 -1.81586 89.2315C -1.895760893806408 89.47276850360142 -1.982900879406298 89.7241615671713 -2.077899557396008 89.98538764317355 C -2.323483719018716 90.66067907084647 -2.6214776914846736 91.40146294227976 -2.9824038088871716 92.20181556660265 A 92.25 92.25 0 0 1 -4.20105 92.1543C -4.498600287738438 91.3283207374747 -4.738048889810439 90.5665953809534 -4.930342682359202 89.87424201014072 C -5.0047268081550875 89.60641592210426 -5.072041194990874 89.34900453380469 -5.1329300624273095 89.10227653423046 A 0.5625 0.5625 0 0 0 -5.66929 88.694A 88.875 88.875 0 0 1 -5.86017 88.6816A 0.5625 0.5625 0 0 0 -6.44487 89.017C -6.537183879873092 89.2537698922923 -6.637254668326617 89.50030120227073 -6.7456839272363 89.75624437450948 C -7.0259872665664584 90.41787881337191 -7.362029080837766 91.14219714867966 -7.764010058793693 91.92273752485848 A 92.25 92.25 0 0 1 -8.97854 91.8121C -9.232825122071242 90.97172370325376 -9.432414514223284 90.19859678848354 -9.588513328296568 89.49719586677516 C -9.648895994301927 89.22586996449265 -9.70275901341139 88.96531167029767 -9.750759682819078 88.7157558735547 A 0.5625 0.5625 0 0 0 -10.2652 88.2802A 88.875 88.875 0 0 1 -10.4552 88.2579A 0.5625 0.5625 0 0 0 -11.0565 88.5625C -11.16098377395836 88.79415889720997 -11.27371559211213 89.03516384877143 -11.395283125829803 89.28513413970444 C -11.709549994621547 89.93132794028465 -12.08273374137833 90.63722810529264 -12.52468591024041 91.3958520344709 A 92.25 92.25 0 0 1 -13.7318 91.2223C -13.942159892216687 90.36988298551545 -14.101352016734467 89.58743872597152 -14.220835037527433 88.87888110624633 C -14.267053462750226 88.60478683638054 -14.307319908956703 88.34178405538518 -14.342302979017324 88.09007321978065 A 0.5625 0.5625 0 0 0 -14.8334 87.6284A 88.875 88.875 0 0 1 -15.022 87.5963A 0.5625 0.5625 0 0 0 -15.6383 87.8693C -15.754695629024678 88.09517454833907 -15.879784571827667 88.33000343474323 -16.014162655775284 88.57332696866033 C -16.36154584611199 89.20233810671748 -16.770865487951003 89.88791711938232 -17.251597422808086 90.62257948556991 A 92.25 92.25 0 0 1 -18.4481 90.3866C -18.61390906423375 89.5244210404308 -18.73227476729436 88.73476876750259 -18.814819889707262 88.02096459583203 C -18.8467494774444 87.74484086807529 -18.873310799527932 87.48010260927886 -18.89518196206953 87.22691530272365 A 0.5625 0.5625 0 0 0 -19.3617 86.7404A 88.875 88.875 0 0 1 -19.5483 86.6985A 0.5625 0.5625 0 0 0 -20.178 86.9391C -20.305935610068264 87.15870118390532 -20.443044459846107 87.38672094799165 -20.58987083446707 87.62274176766441 C -20.969433862684127 88.23287454037799 -21.413785946217722 88.8962842008903 -21.932001678765705 89.60500448423456 A 92.25 92.25 0 0 1 -23.1147 89.3072C -23.23547842830896 88.43761708392805 -23.312698616903724 87.6428855605347 -23.35808331388033 86.92575912676669 C -23.37563798760835 86.64835032187105 -23.388422580940574 86.38259027281416 -23.3971228751757 86.12860904352384 A 0.5625 0.5625 0 0 0 -23.8378 85.6185A 88.875 88.875 0 0 1 -24.022 85.567A 0.5625 0.5625 0 0 0 -24.6633 85.7746C -24.802434378748707 85.98726337053296 -24.951193514282924 86.20785931133085 -25.11007236162981 86.43594114635735 C -25.520791992908997 87.02555074364216 -25.998978623480365 87.6650026168465 -26.55328113572362 88.34587023276356 A 92.25 92.25 0 0 1 -27.7189 87.9871C -27.794409050519324 87.11240094732955 -27.83027555267214 86.31473262915145 -27.838377475093303 85.5962171793652 C -27.84150991051546 85.31827114242338 -27.840483310093042 85.05220574521255 -27.835989281566636 84.798115281678 A 0.5625 0.5625 0 0 0 -28.2496 84.2658A 88.875 88.875 0 0 1 -28.4309 84.2048A 0.5625 0.5625 0 0 0 -29.0821 84.3789C -29.232070169356074 84.58401909745942 -29.392078562317536 84.7965965273133 -29.56258157310731 85.01612450939066 C -30.003350579936953 85.583621448014 -30.514082650932345 86.19739168471376 -31.10297764129725 86.84857113448696 A 92.25 92.25 0 0 1 -32.2484 86.4298C -32.2784108599156 85.55234517904448 -32.27282698587778 84.7538904388416 -32.24362429239305 84.03592296365787 C -32.23232604501725 83.75818898804529 -32.21749101837343 83.49253550795163 -32.199814782191865 83.23902079313994 A 0.5625 0.5625 0 0 0 -32.5852 82.686A 88.875 88.875 0 0 1 -32.7631 82.6157A 0.5625 0.5625 0 0 0 -33.4224 82.7557C -33.58290146694805 82.95275126315458 -33.753727762998444 83.15673711089677 -33.935395291258544 83.36711943139733 C -34.405025438323165 83.9109738399448 -34.9469261063754 84.49740782409499 -35.56882601808318 85.11714364305469 A 92.25 92.25 0 0 1 -36.691 84.6395C -36.67539578038061 83.76165541360994 -36.62837658328934 82.96456674419693 -36.561947999197386 82.24908275699386 C -36.536249527101056 81.97230956440605 -36.50764606684486 81.70778415624501 -36.476835275015766 81.45552862100651 A 0.5625 0.5625 0 0 0 -36.833 80.8832A 88.875 88.875 0 0 1 -37.007 80.8038A 0.5625 0.5625 0 0 0 -37.6727 80.9094C -37.84319919956305 81.09785747729545 -38.024382881209895 81.29270183314465 -38.21672518340253 81.49337133852742 C -38.713950430855135 82.01211708166578 -39.285558827569915 82.56963389092527 -39.93878712840904 83.1562553808714 A 92.25 92.25 0 0 1 -41.0346 82.621C -40.973510317945326 81.74515903404384 -40.885182553243084 80.95158524555002 -40.78170715826221 80.24051356466123 C -40.741677739982684 79.96544728669257 -40.699382955985946 79.70276306419707 -40.65552066895681 79.45244674485657 A 0.5625 0.5625 0 0 0 -40.9815 78.8624A 88.875 88.875 0 0 1 -41.1511 78.774A 0.5625 0.5625 0 0 0 -41.8215 78.845C -42.00147835772459 79.02433820558784 -42.19253098579502 79.20951580360868 -42.39502954107913 79.39993152436509 C -42.918509457560845 79.89217015528384 -43.518284627759655 80.41926682290251 -44.201080329720284 80.9711925560115 A 92.25 92.25 0 0 1 -45.2677 80.3798C -45.16116751571306 79.50829215807364 -45.03176929943734 78.72037258513082 -44.891526044938196 78.01563013409219 C -44.83727359271006 77.74301230079699 -44.78140150423281 77.48287741418895 -44.72460596697473 77.23517511928806 A 0.5625 0.5625 0 0 0 -45.0195 76.629A 88.875 88.875 0 0 1 -45.1843 76.532A 0.5625 0.5625 0 0 0 -45.8574 76.568C -46.0465289559962 76.73778328939494 -46.246935486382604 76.91279492352214 -46.45904439445442 77.09244353253406 C -47.00736777066043 77.55684806291086 -47.63369282652324 78.0521036294623 -48.344215233109566 78.56784571153682 A 92.25 92.25 0 0 1 -49.3787 77.9219C -49.22707819024655 77.05708498332419 -49.056958357111135 76.2769437177987 -48.88032531411318 75.5804303576614 C -48.81199608295592 75.31099589852005 -48.74269731127065 75.0541116254625 -48.67312163451074 74.8096911165951 A 0.5625 0.5625 0 0 0 -48.9362 74.1891A 88.875 88.875 0 0 1 -49.0957 74.0836A 0.5625 0.5625 0 0 0 -49.7698 74.0846C -49.96744625312034 74.2443568765133 -50.17666642524818 74.4087307463229 -50.3978138779919 74.57712794270188 C -50.96950253104223 75.0124464200285 -51.62068901095123 75.47452576406525 -52.35702267937379 75.95269384563404 A 92.25 92.25 0 0 1 -53.3565 75.2539C -53.16028136521064 74.39814553097094 -52.94989852820887 73.6278856957875 -52.737351868167714 72.94147910342855 C -52.6551300616081 72.67595436610753 -52.57259142395141 72.42301322118409 -52.4904231714134 72.18253341282913 A 0.5625 0.5625 0 0 0 -52.7209 71.5491A 88.875 88.875 0 0 1 -52.8748 71.4355A 0.5625 0.5625 0 0 0 -53.548 71.4015C -53.75366014927299 71.55078080372007 -53.97112994254786 71.70407378631998 -54.200719765529236 71.86076560099681 C -54.79423252388847 72.26582448362164 -55.46852494422207 72.69348192092677 -56.22868484909284 73.13278694538089 A 92.25 92.25 0 0 1 -57.1906 72.3831C -56.95017382022678 71.53864183168317 -56.70009513429203 70.78033991117731 -56.4522078454254 70.10589051741465 C -56.35631511891728 69.8449913096616 -56.260759124863654 69.59667517747963 -56.16621980762923 69.36078436068412 A 0.5625 0.5625 0 0 0 -56.3635 68.7162A 88.875 88.875 0 0 1 -56.5113 68.5948A 0.5625 0.5625 0 0 0 -57.1818 68.5259C -57.394963681183775 68.66431647588966 -57.62009683549115 68.80611532050064 -57.857510095138345 68.95067934004568 C -58.47124695334162 69.32438666083462 -59.1668275409479 69.71646930256595 -59.94876442555785 70.11572698122758 A 92.25 92.25 0 0 1 -60.8705 69.3171C -60.58653867528026 68.48628260188066 -60.29743830833647 67.74198284396408 -60.014878650949264 67.08130884512222 C -59.905573514329696 66.82573850507488 -59.79725776594503 66.58271680202502 -59.69060224529914 66.35205089672613 A 0.5625 0.5625 0 0 0 -59.8542 65.6981A 88.875 88.875 0 0 1 -59.9954 65.5692A 0.5625 0.5625 0 0 0 -60.6615 65.4656C -60.88154053830456 65.59274529052975 -61.11373013446343 65.72266773253641 -61.35832680660258 65.85471423791158 C -61.99063323858739 66.19606254799835 -62.70562683117918 66.55151340867309 -63.507232731931985 66.90964741342836 A 92.25 92.25 0 0 1 -64.3862 66.0642C -64.05957293362259 65.24929646239704 -63.732230249146795 64.52100536762661 -63.41575995411945 63.875887824000834 C -63.29333707471188 63.626335324111736 -63.17255357210384 63.38926319373972 -63.05406937247369 63.16444403443697 A 0.5625 0.5625 0 0 0 -63.1835 62.5029A 88.875 88.875 0 0 1 -63.3179 62.3668A 0.5625 0.5625 0 0 0 -63.9777 62.2288C -64.20399152584714 62.344347660509555 -64.44261162175684 62.462043451978225 -64.69373231700395 62.581216469150526 C -65.34290373641996 62.88928555384072 -66.07538283768082 63.20714640078135 -66.8944967667901 63.52319126567071 A 92.25 92.25 0 0 1 -67.7284 62.6333C -67.3599139089176 61.836409755572824 -66.99521136491371 61.12609066797991 -66.64568358021042 60.49826870241255 C -66.51047298845364 60.25540679210112 -66.37754734259103 60.024923338956654 -66.24755387643111 59.80655699835599 A 0.5625 0.5625 0 0 0 -66.3425 59.1392A 88.875 88.875 0 0 1 -66.4696 58.9963A 0.5625 0.5625 0 0 0 -67.1213 58.8242C -67.35335990335058 58.92788069153057 -67.59776722142001 59.03303254541579 -67.85473496277824 59.13901080500044 C -68.5190213182507 59.41297016450761 -69.26701129402419 59.69238410106783 -70.10142506515449 59.96548782501153 A 92.25 92.25 0 0 1 -70.888 59.0335C -70.47866446538835 58.25682302057929 -70.07758523543647 57.5663908348413 -69.6959422261691 56.957556944354096 C -69.54830842591358 56.72204033639311 -69.40359898083669 56.49876690311692 -69.26244668754921 56.28744205826596 A 0.5625 0.5625 0 0 0 -69.3226 55.6161A 88.875 88.875 0 0 1 -69.4421 55.4667A 0.5625 0.5625 0 0 0 -70.0841 55.2611C -70.32115553047011 55.35255457451778 -70.57069119178038 55.44487902001209 -70.83281323965032 55.537376823357945 C -71.51042373260913 55.77648791168424 -72.27190813416347 56.01670168729081 -73.11937231531019 56.246128030933185 A 92.25 92.25 0 0 1 -73.8566 55.2746C -73.40741700292243 54.520186190391435 -72.97104232571664 53.85150218961434 -72.55831293396456 53.263297682735626 C -72.39865391983449 53.03576128826136 -72.24255078662297 52.820299780555374 -72.09062018783526 52.616586125874086 A 0.5625 0.5625 0 0 0 -72.1158 51.943A 88.875 88.875 0 0 1 -72.2275 51.7877A 0.5625 0.5625 0 0 0 -72.8579 51.549C -73.09937775489426 51.628007756573446 -73.35336905541982 51.70725590329453 -73.61993877510297 51.78602389267717 C -74.30904668745903 51.989642108602744 -75.08197268747627 52.190008149385854 -75.94020266503672 52.375138619866476 A 92.25 92.25 0 0 1 -76.626 51.3666C -76.13827612247515 50.63657257727487 -75.66778238699517 49.991439415302985 -75.225079258229 49.42544998739016 C -75.05382544269912 49.20650720429422 -74.88674944780145 48.9994384682901 -74.72445012154685 48.803885179775435 A 0.5625 0.5625 0 0 0 -74.7147 48.1299A 88.875 88.875 0 0 1 -74.8181 47.969A 0.5625 0.5625 0 0 0 -75.4352 47.6979C -75.68053698068913 47.76428095742763 -75.9382992047888 47.83023916638281 -76.2085979714498 47.89506499722885 C -76.90734559010409 48.06264142204279 -77.68962951673964 48.22261957658073 -78.55631165442736 48.36295509488182 A 92.25 92.25 0 0 1 -79.1888 47.3202C -78.66387991066966 46.61645171691679 -78.16053548484419 45.99660855869679 -77.68905206843017 45.45436001718189 C -77.5066651215099 45.24460107649894 -77.32906667226966 45.0464833328997 -77.15683614883763 44.85961758764412 A 0.5625 0.5625 0 0 0 -77.1121 44.187A 88.875 88.875 0 0 1 -77.207 44.021A 0.5625 0.5625 0 0 0 -77.8093 43.7182C -78.05767485892483 43.771790101433034 -78.31851312521422 43.824280560952225 -78.59181226116634 43.87498947428277 C -79.29831588607588 44.00607235157088 -80.08784884016954 44.125231347042785 -80.96064671616868 44.22039359341799 A 92.25 92.25 0 0 1 -81.5382 43.1462C -80.97741978621382 42.47066114440885 -80.44258159762474 41.87777897750847 -79.94358892949641 41.360733128591164 C -79.75056053414903 41.160723503340385 -79.56291840458641 40.97209084255602 -79.38122098701815 40.794416397571304 A 0.5625 0.5625 0 0 0 -79.3016 40.1251A 88.875 88.875 0 0 1 -79.3878 39.9543A 0.5625 0.5625 0 0 0 -79.9735 39.6207C -80.22438304615405 39.66129823807446 -80.48759418078282 39.700179443158994 -80.76315691987416 39.73663473670891 C -81.47551194217439 39.830870690209174 -82.27016548246947 39.908889295030285 -83.14672618801495 39.958621728887834 A 92.25 92.25 0 0 1 -83.6677 38.8559C -83.07265885463154 38.210377178168535 -82.50776873247716 37.64605430808958 -81.98261200864705 37.155605015966046 C -81.77946253529947 36.965883896735896 -81.58228257542105 36.78724483907006 -81.39160808783068 36.619240673247475 A 0.5625 0.5625 0 0 0 -81.2774 35.9549A 88.875 88.875 0 0 1 -81.3546 35.7799A 0.5625 0.5625 0 0 0 -81.9222 35.4164C -82.17482048017291 35.44388652669017 -82.43969491245723 35.46905366048524 -82.71677838626205 35.49115705722833 C -83.43306442275554 35.54829204347081 -84.23069630380026 35.58495993327603 -85.1086567862038 35.58912848476682 A 92.25 92.25 0 0 1 -85.5717 34.4609C -84.94394872182771 33.84708479056058 -84.35052951000614 33.312842531989816 -83.80062446015519 32.85031196124135 C -83.58790156387123 32.67139080262702 -83.3817153359879 32.50322692739622 -83.18257780308315 32.345345950264075 A 0.5625 0.5625 0 0 0 -83.034 31.6879A 88.875 88.875 0 0 1 -83.102 31.5091A 0.5625 0.5625 0 0 0 -83.65 31.1165C -83.90372912649208 31.13092436362563 -84.16955280179165 31.142309579988016 -84.4474100422523 31.15000149307449 C -85.16569611242232 31.169881486237607 -85.96415605968487 31.16509981087881 -86.84114949270723 31.123693242325025 A 92.25 92.25 0 0 1 -87.245 29.9729C -86.58624472116001 29.392546646442195 -85.96589617295118 28.88982522205596 -85.39272524387192 28.456460273326982 C -85.17100238797103 28.28882141513926 -84.95636573369994 28.13158606242014 -84.74930199506244 27.984253893179805 A 0.5625 0.5625 0 0 0 -84.5668 27.3354A 88.875 88.875 0 0 1 -84.6254 27.1533A 0.5625 0.5625 0 0 0 -85.1523 26.7328C -85.40644815306803 26.734038732350907 -85.67250445775126 26.73161133875017 -85.95038641087196 26.72487103214226 C -86.66873614246462 26.707442439279173 -87.46587164909299 26.66122408930775 -88.33953381348915 26.574354025497616 A 92.25 92.25 0 0 1 -88.6831 25.4042C -87.99511951296834 24.85877139309806 -87.34951397838206 24.388926050976533 -86.75462233756399 23.985894999550908 C -86.5244972476656 23.829990366513314 -86.3019887894794 23.684107415017966 -86.08755705234017 23.547721235149723 A 0.5625 0.5625 0 0 0 -85.8716 22.9092A 88.875 88.875 0 0 1 -85.9207 22.7243A 0.5625 0.5625 0 0 0 -86.4251 22.2771C -86.67892649508231 22.265082859168885 -86.9444981883899 22.248849399429016 -87.22165573355389 22.227695043801667 C -87.9381325826954 22.173004849317408 -88.73179471229538 22.08547442123358 -89.59977036933155 21.95337504850071 A 92.25 92.25 0 0 1 -89.8822 20.767C -89.1667750198997 20.257981287050395 -88.49765293731568 19.82227864716839 -87.88264430744701 19.45066799350583 C -87.64473736010788 19.30691787694546 -87.41495694147089 19.172780601319346 -87.19373527588223 19.04770808385137 A 0.5625 0.5625 0 0 0 -86.9449 18.4212A 88.875 88.875 0 0 1 -86.9844 18.2341A 0.5625 0.5625 0 0 0 -87.4649 17.7613C -87.71773377589598 17.736104259012816 -87.98210492349524 17.706108495671245 -88.25779089296157 17.670597119427185 C -88.97046336473804 17.578792758416984 -89.75851254452584 17.45018621877969 -90.61846178528668 17.273213653678116 A 92.25 92.25 0 0 1 -90.8389 16.0737C -90.09805266585332 15.602579245016294 -89.40721787010699 15.202193884659726 -88.77375020572177 14.86300542538261 C -88.52870275601059 14.731797350199026 -88.29226982430679 14.609767360822087 -88.06485460476765 14.496345679148947 A 0.5625 0.5625 0 0 0 -87.7839 13.8836A 88.875 88.875 0 0 1 -87.8136 13.6947A 0.5625 0.5625 0 0 0 -88.2688 13.1976C -88.52006955473871 13.1593122574759 -88.78252745875591 13.115635053807408 -89.05599865189151 13.065862389338664 C -89.76294550731784 12.937191350129012 -90.54325729603002 12.767855399431784 -91.39286184939945 12.546486728708683 A 92.25 92.25 0 0 1 -91.5507 11.3372C -90.78644189094345 10.905115407836874 -90.07575675050619 10.541126695150076 -89.42553776843198 10.235274822376896 C -89.17401042094934 10.116962502343513 -88.93156235756183 10.007368770492494 -88.69856665529763 9.90590368941529 A 0.5625 0.5625 0 0 0 -88.3862 9.30859A 88.875 88.875 0 0 1 -88.406 9.11834A 0.5625 0.5625 0 0 0 -88.8349 8.59828C -89.08377087620181 8.547045076628256 -89.34360799652961 8.489804178651909 -89.6141271833469 8.4259044042622 C -90.31344261868739 8.260713561226067 -91.08391343369885 8.051104699253788 -91.92088291600908 7.78593669370797 A 92.25 92.25 0 0 1 -92.0158 6.57007C -91.23008691952481 6.178253307516656 -90.50146731588777 5.851642491716689 -89.83624989154309 5.579951728022547 C -89.57892071954836 5.474854112236838 -89.33111112159179 5.377992083236895 -89.0931630518227 5.288757134675425 A 0.5625 0.5625 0 0 0 -88.7502 4.70846A 88.875 88.875 0 0 1 -88.7601 4.51744A 0.5625 0.5625 0 0 0 -89.1614 3.97582C -89.40731810118365 3.911736573351474 -89.66383396288428 3.8410862924081584 -89.93067187148272 3.763231670591908 C -90.62047065596103 3.5619663490367692 -91.37902344417192 3.312649644222959 -92.20110153367285 3.004397149916298 A 92.25 92.25 0 0 1 -92.2328 1.78524C -91.42779176303576 1.4347357285800149 -90.68320192583211 1.1463832946822479 -90.00477936778411 0.9095860703317791 C -89.7423420852298 0.8179864833848911 -89.48983900356808 0.7341172801412281 -89.24758003222158 0.6573530257402855 A 0.5625 0.5625 0 0 0 -88.8749 0.0956417A 88.875 88.875 0 0 1 -88.8749 -0.0956417A 0.5625 0.5625 0 0 0 -89.2476 -0.657353C -89.48983900356808 -0.7341172801412459 -89.7423420852298 -0.8179864833849093 -90.00477936778411 -0.9095860703317973 C -90.68320192583211 -1.146383294682266 -91.42779176303576 -1.4347357285800335 -92.23276228253958 -1.785241717421203 A 92.25 92.25 0 0 1 -92.2011 -3.0044C -91.37902344417192 -3.3126496442229776 -90.62047065596103 -3.561966349036787 -89.93067187148272 -3.763231670591926 C -89.66383396288428 -3.8410862924081766 -89.40731810118365 -3.911736573351492 -89.16140131561565 -3.9758231907337813 A 0.5625 0.5625 0 0 0 -88.7601 -4.51744A 88.875 88.875 0 0 1 -88.7502 -4.70846A 0.5625 0.5625 0 0 0 -89.0932 -5.28876C -89.33111112159179 -5.377992083236872 -89.57892071954836 -5.474854112236815 -89.83624989154309 -5.579951728022524 C -90.50146731588777 -5.851642491716666 -91.23008691952481 -6.178253307516633 -92.01577981082784 -6.5700678887150294 A 92.25 92.25 0 0 1 -91.9209 -7.78594C -91.08391343369885 -8.051104699253765 -90.31344261868739 -8.260713561226044 -89.6141271833469 -8.425904404262177 C -89.34360799652961 -8.489804178651886 -89.08377087620181 -8.547045076628235 -88.83485922458871 -8.598281290801772 A 0.5625 0.5625 0 0 0 -88.406 -9.11834A 88.875 88.875 0 0 1 -88.3862 -9.30859A 0.5625 0.5625 0 0 0 -88.6986 -9.9059C -88.93156235756183 -10.007368770492475 -89.17401042094934 -10.116962502343494 -89.42553776843198 -10.235274822376876 C -90.07575675050619 -10.541126695150057 -90.78644189094345 -10.905115407836853 -91.55073906491938 -11.33718231855346 A 92.25 92.25 0 0 1 -91.3929 -12.5465C -90.54325729603002 -12.767855399431763 -89.76294550731784 -12.937191350128993 -89.05599865189151 -13.065862389338644 C -88.78252745875591 -13.115635053807388 -88.52006955473871 -13.15931225747588 -88.26883405888627 -13.197559944665695 A 0.5625 0.5625 0 0 0 -87.8136 -13.6947A 88.875 88.875 0 0 1 -87.7839 -13.8836A 0.5625 0.5625 0 0 0 -88.0649 -14.4963C -88.29226982430679 -14.609767360822069 -88.52870275601059 -14.731797350199008 -88.77375020572177 -14.863005425382593 C -89.40721787010699 -15.202193884659708 -90.09805266585332 -15.602579245016276 -90.83889371244706 -16.073733709248216 A 92.25 92.25 0 0 1 -90.6185 -17.2732C -89.75851254452584 -17.450186218779674 -88.97046336473804 -17.578792758416967 -88.25779089296157 -17.670597119427168 C -87.98210492349524 -17.706108495671227 -87.71773377589598 -17.736104259012798 -87.46485172228316 -17.761260310216333 A 0.5625 0.5625 0 0 0 -86.9844 -18.2341A 88.875 88.875 0 0 1 -86.9449 -18.4212A 0.5625 0.5625 0 0 0 -87.1937 -19.0477C -87.41495694147088 -19.172780601319364 -87.64473736010788 -19.30691787694548 -87.882644307447 -19.45066799350585 C -88.49765293731566 -19.82227864716841 -89.16677501989969 -20.25798128705042 -89.88216276262855 -20.76695315566112 A 92.25 92.25 0 0 1 -89.5998 -21.9534C -88.73179471229537 -22.0854744212336 -87.93813258269539 -22.17300484931743 -87.22165573355387 -22.227695043801685 C -86.9444981883899 -22.248849399429037 -86.6789264950823 -22.265082859168903 -86.42507960901666 -22.277079458119637 A 0.5625 0.5625 0 0 0 -85.9207 -22.7243A 88.875 88.875 0 0 1 -85.8716 -22.9092A 0.5625 0.5625 0 0 0 -86.0876 -23.5477C -86.3019887894794 -23.684107415017987 -86.5244972476656 -23.829990366513336 -86.75462233756399 -23.98589499955093 C -87.34951397838206 -24.388926050976554 -87.99511951296834 -24.858771393098078 -88.68312539295682 -25.404188567914797 A 92.25 92.25 0 0 1 -88.3395 -26.5744C -87.46587164909299 -26.66122408930777 -86.66873614246462 -26.707442439279195 -85.95038641087196 -26.724871032142282 C -85.67250445775126 -26.73161133875019 -85.40644815306803 -26.73403873235093 -85.15232076087491 -26.73284353833906 A 0.5625 0.5625 0 0 0 -84.6254 -27.1533A 88.875 88.875 0 0 1 -84.5668 -27.3354A 0.5625 0.5625 0 0 0 -84.7493 -27.9843C -84.95636573369995 -28.13158606242012 -85.17100238797103 -28.288821415139243 -85.39272524387194 -28.456460273326964 C -85.96589617295119 -28.88982522205594 -86.58624472116003 -29.392546646442177 -87.2450139961935 -29.972938779190077 A 92.25 92.25 0 0 1 -86.8411 -31.1237C -85.96415605968488 -31.165099810878793 -85.16569611242234 -31.169881486237585 -84.44741004225232 -31.150001493074473 C -84.16955280179165 -31.142309579987998 -83.9037291264921 -31.130924363625617 -83.65000631069172 -31.116540598682896 A 0.5625 0.5625 0 0 0 -83.102 -31.5091A 88.875 88.875 0 0 1 -83.034 -31.6879A 0.5625 0.5625 0 0 0 -83.1826 -32.3453C -83.38171533598792 -32.5032269273962 -83.58790156387124 -32.671390802627 -83.8006244601552 -32.85031196124133 C -84.35052951000614 -33.312842531989794 -84.94394872182772 -33.84708479056056 -85.57170546640954 -34.46088724666173 A 92.25 92.25 0 0 1 -85.1087 -35.5891C -84.23069630380027 -35.58495993327601 -83.43306442275554 -35.54829204347079 -82.71677838626206 -35.49115705722831 C -82.43969491245724 -35.469053660485216 -82.17482048017293 -35.44388652669015 -81.9221862326191 -35.41635296690385 A 0.5625 0.5625 0 0 0 -81.3546 -35.7799A 88.875 88.875 0 0 1 -81.2774 -35.9549A 0.5625 0.5625 0 0 0 -81.3916 -36.6192C -81.58228257542105 -36.78724483907004 -81.77946253529947 -36.965883896735875 -81.98261200864705 -37.155605015966024 C -82.50776873247716 -37.64605430808956 -83.07265885463154 -38.210377178168514 -83.66771074756423 -38.855935254720116 A 92.25 92.25 0 0 1 -83.1467 -39.9586C -82.27016548246947 -39.908889295030264 -81.47551194217439 -39.83087069020915 -80.76315691987416 -39.736634736708886 C -80.48759418078282 -39.70017944315897 -80.22438304615405 -39.66129823807444 -79.97351842411301 -39.62068910905388 A 0.5625 0.5625 0 0 0 -79.3878 -39.9543A 88.875 88.875 0 0 1 -79.3016 -40.1251A 0.5625 0.5625 0 0 0 -79.3812 -40.7944C -79.5629184045864 -40.972090842556035 -79.75056053414903 -41.1607235033404 -79.9435889294964 -41.36073312859118 C -80.44258159762472 -41.877778977508484 -80.9774197862138 -42.470661144408865 -81.5381626727978 -43.14623453096967 A 92.25 92.25 0 0 1 -80.9606 -44.2204C -80.08784884016953 -44.1252313470428 -79.29831588607587 -44.00607235157089 -78.59181226116633 -43.874989474282785 C -78.31851312521422 -43.82428056095224 -78.05767485892481 -43.77179010143305 -77.80925614906535 -43.71821487821045 A 0.5625 0.5625 0 0 0 -77.207 -44.021A 88.875 88.875 0 0 1 -77.1121 -44.187A 0.5625 0.5625 0 0 0 -77.1568 -44.8596C -77.32906667226965 -45.04648333289972 -77.50666512150988 -45.24460107649896 -77.68905206843017 -45.45436001718191 C -78.16053548484417 -45.99660855869681 -78.66387991066965 -46.61645171691681 -79.18880212722074 -47.32021918707643 A 92.25 92.25 0 0 1 -78.5563 -48.363C -77.68962951673963 -48.222619576580755 -76.90734559010407 -48.06264142204281 -76.20859797144978 -47.89506499722887 C -75.93829920478879 -47.83023916638283 -75.68053698068911 -47.76428095742765 -75.43523387593311 -47.697884069332865 A 0.5625 0.5625 0 0 0 -74.8181 -47.969A 88.875 88.875 0 0 1 -74.7147 -48.1299A 0.5625 0.5625 0 0 0 -74.7244 -48.8039C -74.88674944780145 -48.99943846829008 -75.05382544269912 -49.2065072042942 -75.225079258229 -49.42544998739014 C -75.66778238699517 -49.99143941530296 -76.13827612247515 -50.63657257727485 -76.62596257150251 -51.36663689835817 A 92.25 92.25 0 0 1 -75.9402 -52.3751C -75.08197268747627 -52.19000814938583 -74.30904668745903 -51.98964210860272 -73.61993877510297 -51.78602389267715 C -73.35336905541982 -51.70725590329451 -73.09937775489426 -51.628007756573425 -72.85785154904318 -51.54896819787795 A 0.5625 0.5625 0 0 0 -72.2275 -51.7877A 88.875 88.875 0 0 1 -72.1158 -51.943A 0.5625 0.5625 0 0 0 -72.0906 -52.6166C -72.24255078662299 -52.82029978055535 -72.3986539198345 -53.03576128826134 -72.55831293396457 -53.263297682735605 C -72.97104232571665 -53.851502189614315 -73.40741700292243 -54.520186190391414 -73.85655296798132 -55.27457923806246 A 92.25 92.25 0 0 1 -73.1194 -56.2461C -72.27190813416347 -56.01670168729079 -71.51042373260914 -55.77648791168422 -70.83281323965033 -55.537376823357924 C -70.5706911917804 -55.44487902001207 -70.32115553047012 -55.35255457451776 -70.08405733547364 -55.26108542189782 A 0.5625 0.5625 0 0 0 -69.4421 -55.4667A 88.875 88.875 0 0 1 -69.3226 -55.6161A 0.5625 0.5625 0 0 0 -69.2624 -56.2874C -69.4035989808367 -56.498766903116916 -69.54830842591359 -56.72204033639309 -69.6959422261691 -56.95755694435408 C -70.07758523543649 -57.56639083484129 -70.47866446538836 -58.25682302057928 -70.88803915532316 -59.03351108455643 A 92.25 92.25 0 0 1 -70.1014 -59.9655C -69.2670112940242 -59.69238410106782 -68.51902131825071 -59.412970164507605 -67.85473496277824 -59.139010805000424 C -67.59776722142003 -59.03303254541578 -67.3533599033506 -58.92788069153056 -67.12132889402405 -58.82422852965008 A 0.5625 0.5625 0 0 0 -66.4696 -58.9963A 88.875 88.875 0 0 1 -66.3425 -59.1392A 0.5625 0.5625 0 0 0 -66.2476 -59.8066C -66.37754734259103 -60.02492333895667 -66.51047298845364 -60.255406792101134 -66.64568358021042 -60.49826870241257 C -66.99521136491371 -61.126090667979916 -67.3599139089176 -61.83640975557284 -67.72842372194071 -62.63329902215224 A 92.25 92.25 0 0 1 -66.8945 -63.5232C -66.07538283768082 -63.20714640078136 -65.34290373641996 -62.88928555384073 -64.69373231700395 -62.58121646915054 C -64.44261162175684 -62.46204345197824 -64.20399152584714 -62.34434766050957 -63.97765321676912 -62.22879191727153 A 0.5625 0.5625 0 0 0 -63.3179 -62.3668A 88.875 88.875 0 0 1 -63.1835 -62.5029A 0.5625 0.5625 0 0 0 -63.0541 -63.1644C -63.17255357210383 -63.38926319373974 -63.29333707471187 -63.62633532411175 -63.41575995411944 -63.87588782400085 C -63.73223024914679 -64.52100536762661 -64.05957293362258 -65.24929646239706 -64.38622443242978 -66.06423865900415 A 92.25 92.25 0 0 1 -63.5072 -66.9096C -62.70562683117917 -66.5515134086731 -61.990633238587385 -66.19606254799835 -61.35832680660256 -65.8547142379116 C -61.113730134463424 -65.72266773253642 -60.881540538304556 -65.59274529052976 -60.66150509754025 -65.46559748378795 A 0.5625 0.5625 0 0 0 -59.9954 -65.5692A 88.875 88.875 0 0 1 -59.8542 -65.6981A 0.5625 0.5625 0 0 0 -59.6906 -66.3521C -59.79725776594505 -66.58271680202499 -59.90557351432972 -66.82573850507485 -60.014878650949285 -67.08130884512221 C -60.29743830833649 -67.74198284396405 -60.58653867528027 -68.48628260188065 -60.870451265181984 -69.31708078843326 A 92.25 92.25 0 0 1 -59.9488 -70.1157C -59.166827540947914 -69.71646930256594 -58.47124695334164 -69.32438666083459 -57.857510095138366 -68.95067934004567 C -57.62009683549117 -68.80611532050061 -57.394963681183796 -68.66431647588963 -57.18182428537976 -68.5259193736516 A 0.5625 0.5625 0 0 0 -56.5113 -68.5948A 88.875 88.875 0 0 1 -56.3635 -68.7162A 0.5625 0.5625 0 0 0 -56.1662 -69.3608C -56.26075912486367 -69.59667517747961 -56.3563151189173 -69.84499130966158 -56.45220784542542 -70.10589051741464 C -56.70009513429205 -70.7803399111773 -56.9501738202268 -71.53864183168315 -57.19058212307572 -72.38305632315348 A 92.25 92.25 0 0 1 -56.2287 -73.1328C -55.46852494422209 -72.69348192092676 -54.79423252388849 -72.26582448362163 -54.20071976552926 -71.8607656009968 C -53.97112994254788 -71.70407378631997 -53.75366014927302 -71.55078080372006 -53.5479913845578 -71.40150750010514 A 0.5625 0.5625 0 0 0 -52.8748 -71.4355A 88.875 88.875 0 0 1 -52.7209 -71.5491A 0.5625 0.5625 0 0 0 -52.4904 -72.1825C -52.572591423951465 -72.42301322118406 -52.65513006160816 -72.67595436610748 -52.73735186816778 -72.94147910342852 C -52.949898528208934 -73.62788569578746 -53.16028136521071 -74.3981455309709 -53.356537282725974 -75.25389993518044 A 92.25 92.25 0 0 1 -52.357 -75.9527C -51.620689010951295 -75.47452576406523 -50.969502531042295 -75.01244642002845 -50.397813877991965 -74.57712794270185 C -50.17666642524824 -74.40873074632287 -49.9674462531204 -74.24435687651327 -49.76980256612192 -74.08460978595683 A 0.5625 0.5625 0 0 0 -49.0957 -74.0836A 88.875 88.875 0 0 1 -48.9362 -74.1891A 0.5625 0.5625 0 0 0 -48.6731 -74.8097C -48.74269731127064 -75.05411162546251 -48.81199608295591 -75.31099589852005 -48.880325314113165 -75.5804303576614 C -49.05695835711112 -76.2769437177987 -49.227078190246544 -77.05708498332419 -49.37865265117213 -77.92187233769455 A 92.25 92.25 0 0 1 -48.3442 -78.5678C -47.63369282652323 -78.0521036294623 -47.007367770660416 -77.55684806291086 -46.45904439445441 -77.09244353253406 C -46.24693548638259 -76.91279492352214 -46.04652895599619 -76.73778328939493 -45.85744315915165 -76.56799306181024 A 0.5625 0.5625 0 0 0 -45.1843 -76.532A 88.875 88.875 0 0 1 -45.0195 -76.629A 0.5625 0.5625 0 0 0 -44.7246 -77.2352C -44.78140150423284 -77.48287741418893 -44.83727359271008 -77.74301230079699 -44.891526044938225 -78.01563013409218 C -45.03176929943737 -78.72037258513082 -45.16116751571309 -79.50829215807364 -45.26765190210035 -80.37978114878982 A 92.25 92.25 0 0 1 -44.2011 -80.9712C -43.518284627759684 -80.41926682290251 -42.91850945756087 -79.89217015528384 -42.39502954107916 -79.39993152436507 C -42.19253098579504 -79.20951580360868 -42.001478357724615 -79.02433820558782 -41.82146019291238 -78.84496256540992 A 0.5625 0.5625 0 0 0 -41.1511 -78.774A 88.875 88.875 0 0 1 -40.9815 -78.8624A 0.5625 0.5625 0 0 0 -40.6555 -79.4524C -40.69938295598593 -79.70276306419709 -40.74167773998267 -79.96544728669257 -40.78170715826219 -80.24051356466124 C -40.88518255324307 -80.95158524555004 -40.97351031794531 -81.74515903404385 -41.034617566714736 -82.62100028086408 A 92.25 92.25 0 0 1 -39.9388 -83.1563C -39.2855588275699 -82.56963389092529 -38.71395043085512 -82.01211708166579 -38.21672518340252 -81.49337133852744 C -38.02438288120988 -81.29270183314465 -37.84319919956304 -81.09785747729546 -37.67273396392868 -80.90937998953706 A 0.5625 0.5625 0 0 0 -37.007 -80.8038A 88.875 88.875 0 0 1 -36.833 -80.8832A 0.5625 0.5625 0 0 0 -36.4768 -81.4555C -36.50764606684486 -81.70778415624501 -36.536249527101056 -81.97230956440605 -36.561947999197386 -82.24908275699386 C -36.62837658328934 -82.96456674419693 -36.67539578038061 -83.76165541360994 -36.69096115719312 -84.63948780337945 A 92.25 92.25 0 0 1 -35.5688 -85.1171C -34.9469261063754 -84.49740782409499 -34.405025438323165 -83.9109738399448 -33.935395291258544 -83.36711943139733 C -33.753727762998444 -83.15673711089677 -33.58290146694805 -82.95275126315458 -33.42244870462897 -82.7556800298003 A 0.5625 0.5625 0 0 0 -32.7631 -82.6157A 88.875 88.875 0 0 1 -32.5852 -82.686A 0.5625 0.5625 0 0 0 -32.1998 -83.239C -32.217491018373465 -83.49253550795162 -32.23232604501729 -83.75818898804526 -32.243624292393086 -84.03592296365784 C -32.27282698587781 -84.75389043884158 -32.27841085991564 -85.55234517904447 -32.24839240326728 -86.42980223083914 A 92.25 92.25 0 0 1 -31.103 -86.8486C -30.51408265093238 -86.19739168471375 -30.00335057993699 -85.58362144801399 -29.562581573107344 -85.01612450939064 C -29.39207856231757 -84.79659652731327 -29.23207016935611 -84.5840190974594 -29.082062432631844 -84.37888538771266 A 0.5625 0.5625 0 0 0 -28.4309 -84.2048A 88.875 88.875 0 0 1 -28.2496 -84.2658A 0.5625 0.5625 0 0 0 -27.836 -84.7981C -27.840483310093042 -85.05220574521255 -27.84150991051546 -85.31827114242338 -27.838377475093303 -85.5962171793652 C -27.83027555267214 -86.31473262915145 -27.794409050519324 -87.11240094732955 -27.71888768486203 -87.98711719207012 A 92.25 92.25 0 0 1 -26.5533 -88.3459C -25.998978623480365 -87.6650026168465 -25.520791992908997 -87.02555074364216 -25.11007236162981 -86.43594114635735 C -24.951193514282924 -86.20785931133085 -24.802434378748707 -85.98726337053296 -24.663276061956456 -85.77462018860807 A 0.5625 0.5625 0 0 0 -24.022 -85.567A 88.875 88.875 0 0 1 -23.8378 -85.6185A 0.5625 0.5625 0 0 0 -23.3971 -86.1286C -23.388422580940595 -86.38259027281414 -23.375637987608375 -86.64835032187102 -23.35808331388035 -86.92575912676668 C -23.31269861690375 -87.64288556053468 -23.23547842830898 -88.43761708392805 -23.11465774589256 -89.30723444126643 A 92.25 92.25 0 0 1 -21.932 -89.605C -21.413785946217743 -88.8962842008903 -20.969433862684152 -88.23287454037798 -20.589870834467092 -87.6227417676644 C -20.44304445984613 -87.38672094799165 -20.305935610068286 -87.15870118390531 -20.178001859427262 -86.93912177822591 A 0.5625 0.5625 0 0 0 -19.5483 -86.6985A 88.875 88.875 0 0 1 -19.3617 -86.7404A 0.5625 0.5625 0 0 0 -18.8952 -87.2269C -18.873310799527914 -87.48010260927886 -18.846749477444384 -87.7448408680753 -18.814819889707245 -88.02096459583203 C -18.732274767294342 -88.73476876750259 -18.61390906423373 -89.52442104043081 -18.448114776257164 -90.38659517571796 A 92.25 92.25 0 0 1 -17.2516 -90.6226C -16.770865487950985 -89.88791711938234 -16.361545846111973 -89.20233810671748 -16.014162655775266 -88.57332696866033 C -15.87978457182765 -88.33000343474325 -15.75469562902466 -88.09517454833907 -15.638331331308198 -87.86925086616176 A 0.5625 0.5625 0 0 0 -15.022 -87.5963A 88.875 88.875 0 0 1 -14.8334 -87.6284A 0.5625 0.5625 0 0 0 -14.3423 -88.0901C -14.307319908956707 -88.34178405538518 -14.26705346275023 -88.60478683638054 -14.220835037527435 -88.87888110624633 C -14.10135201673447 -89.58743872597152 -13.94215989221669 -90.36988298551545 -13.731838950768326 -91.22228962971296 A 92.25 92.25 0 0 1 -12.5247 -91.3959C -12.082733741378334 -90.63722810529264 -11.70954999462155 -89.93132794028465 -11.395283125829804 -89.28513413970444 C -11.273715592112133 -89.03516384877143 -11.160983773958364 -88.79415889720997 -11.056502626740176 -88.56249998883915 A 0.5625 0.5625 0 0 0 -10.4552 -88.2579A 88.875 88.875 0 0 1 -10.2652 -88.2802A 0.5625 0.5625 0 0 0 -9.75076 -88.7158C -9.70275901341143 -88.96531167029765 -9.648895994301967 -89.22586996449265 -9.588513328296608 -89.49719586677516 C -9.432414514223327 -90.19859678848354 -9.232825122071283 -90.97172370325376 -8.978544515225018 -91.81206491875237 A 92.25 92.25 0 0 1 -7.76401 -91.9227C -7.362029080837807 -91.14219714867966 -7.025987266566501 -90.41787881337191 -6.745683927236341 -89.75624437450948 C -6.637254668326658 -89.50030120227073 -6.537183879873133 -89.25376989229231 -6.444867545854102 -89.01700026918815 A 0.5625 0.5625 0 0 0 -5.86017 -88.6816A 88.875 88.875 0 0 1 -5.66929 -88.694A 0.5625 0.5625 0 0 0 -5.13293 -89.1023C -5.0720411949908755 -89.34900453380469 -5.004726808155089 -89.60641592210426 -4.930342682359203 -89.87424201014072 C -4.7380488898104405 -90.5665953809534 -4.498600287738441 -91.3283207374747 -4.201045511054118 -92.15433111292776 A 92.25 92.25 0 0 1 -2.9824 -92.2018C -2.621477691484676 -91.40146294227976 -2.323483719018718 -90.66067907084647 -2.0778995573960097 -89.98538764317355 C -1.9829008794062997 -89.7241615671713 -1.8957608938064099 -89.47276850360142 -1.8158582415017366 -89.23152645480754 A 0.5625 0.5625 0 0 0 -1.24936 -88.8662A 88.875 88.875 0 0 1 -1.05809 -88.8687A 0.5625 0.5625 0 0 0 -0.501263 -89.2486C -0.42765005023364755 -89.49182827778228 -0.347065763357423 -89.7453988245933 -0.25888070422321796 -90.0090030866014 C -0.03091032326659704 -90.69044244423709 0.24775197762812184 -91.43871276561953 0.5877787690795446 -92.24816552309154 A 92.25 92.25 0 0 1 1.80724 -92.2323C 2.1261407382535324 -91.41432655135097 2.385283529849005 -90.65907416614068 2.5954864622832305 -89.97194621595635 C 2.676798459712651 -89.70614145550731 2.7507727284638728 -89.45056434959969 2.8180462956301744 -89.20550022102857 A 0.5625 0.5625 0 0 0 3.36482 -88.8113A 88.875 88.875 0 0 1 3.55596 -88.8038A 0.5625 0.5625 0 0 0 4.13176 -89.1543C 4.217893963451568 -89.39339787466754 4.311530909377925 -89.64244399862649 4.4132791705219345 -89.90111580412045 C 4.676311572043982 -90.56980410854786 4.993436347465047 -91.30260219029745 5.375018501569754 -92.09331518826359 A 92.25 92.25 0 0 1 6.59202 -92.0142C 6.868027468458169 -91.18075329787749 7.08762047603285 -90.41306842579388 7.261875509336133 -89.71595632856923 C 7.329281623435962 -89.44628944631394 7.38989075378844 -89.18721728876066 7.444353878173098 -88.9389917299762 A 0.5625 0.5625 0 0 0 7.96993 -88.5169A 88.875 88.875 0 0 1 8.16043 -88.4996A 0.5625 0.5625 0 0 0 8.75363 -88.8197C 8.852067280724961 -89.05397867542503 8.958504457050026 -89.29782899221247 9.073541624880649 -89.55087100773726 C 9.370926958117128 -90.20500559351015 9.725659295736918 -90.92035594155544 10.147768134470267 -91.69019755756939 A 92.25 92.25 0 0 1 11.359 -91.548C 11.59139921085885 -90.70137285405548 11.770850450487846 -89.9233250377888 11.908687823898282 -89.2181080844902 C 11.96200633970215 -88.94530605466672 12.009086940156005 -88.68343725820121 12.05059279880463 -88.43271944142418 A 0.5625 0.5625 0 0 0 12.5536 -87.9839A 88.875 88.875 0 0 1 12.7429 -87.9567A 0.5625 0.5625 0 0 0 13.3519 -88.2456C 13.46237698963418 -88.47448569420737 13.581327460548422 -88.71248282648142 13.709343415199486 -88.95921289550039 C 14.040279981869016 -89.597030331425 14.431663586021152 -90.29300448769995 14.893161178581767 -91.03989936487112 A 92.25 92.25 0 0 1 16.0954 -90.8351C 16.28352259031915 -89.97747754480817 16.422348293186978 -89.19116426371406 16.523396421515177 -88.47974359456687 C 16.562483601731063 -88.20454184321687 16.59590875131121 -87.9405823598166 16.624345451767027 -87.68804817595473 A 0.5625 0.5625 0 0 0 17.1033 -87.2138A 88.875 88.875 0 0 1 17.291 -87.1768A 0.5625 0.5625 0 0 0 17.9142 -87.4337C 18.036394510295985 -87.65648114163892 18.167537606359982 -87.8879834912083 18.308187239450668 -88.12773647307671 C 18.671782893078316 -88.74751731611039 19.098762662761704 -89.42223905733624 19.59840489323173 -90.14417369912505 A 92.25 92.25 0 0 1 20.7884 -89.8772C 20.931748471764497 -89.01101886390626 21.029574388320277 -88.21855987957221 21.093560863677332 -87.50285335892298 C 21.1183113361779 -87.22599378131306 21.13799092659056 -86.96065519907788 21.15328180853668 -86.70698543564339 A 0.5625 0.5625 0 0 0 21.607 -86.2085A 88.875 88.875 0 0 1 21.7925 -86.1618A 0.5625 0.5625 0 0 0 22.4282 -86.386C 22.561789100150047 -86.60217021337216 22.7047712827626 -86.8265536908315 22.85767542774862 -87.05868325389797 C 23.252949978735067 -87.6587566844637 23.71437485197965 -88.31040708011534 24.250814773241316 -89.00543527836385 A 92.25 92.25 0 0 1 25.4253 -88.6771C 25.523546060013743 -87.8046022130859 25.58010846888184 -87.0081338548288 25.606860795042852 -86.29007090092195 C 25.617207836930064 -86.01229986152524 25.623088815478784 -85.7462974863616 25.62519265740087 -85.4921759921885 A 0.5625 0.5625 0 0 0 26.0524 -84.9708A 88.875 88.875 0 0 1 26.2353 -84.9145A 0.5625 0.5625 0 0 0 26.8817 -85.1054C 27.02636109546139 -85.31439514526998 27.180796909937087 -85.53105485243451 27.345543364276654 -85.75493521643698 C 27.771431222316043 -86.33368354265752 28.266057279242393 -86.96050585847854 28.837848744109287 -87.62675394004363 A 92.25 92.25 0 0 1 29.9937 -87.2379C 30.046536680588137 -86.36147987834602 30.061683099514337 -85.56314928404598 30.051129156937723 -84.84466566765342 C 30.04704487441598 -84.56673198808288 30.039111387022345 -84.30078291536562 30.028022517334527 -84.04689475707414 A 0.5625 0.5625 0 0 0 30.4276 -83.504A 88.875 88.875 0 0 1 30.6073 -83.4384A 0.5625 0.5625 0 0 0 31.2628 -83.5955C 31.418074799456313 -83.79662755124042 31.58354791414322 -84.00497941184454 31.75969255052222 -84.22000703490318 C 32.21504559724525 -84.7758700536124 32.741539413452614 -85.37617448746003 33.34714097322684 -86.01184636530489 A 92.25 92.25 0 0 1 34.4813 -85.5635C 34.48852715042854 -84.6855422623605 34.46221674734528 -83.88750159015679 34.41438498759431 -83.17053421608207 C 34.3958803911672 -82.89318715639982 34.374153825110604 -82.62800833780983 34.34990213744508 -82.37503795298787 A 0.5625 0.5625 0 0 0 34.7208 -81.8122A 88.875 88.875 0 0 1 34.8968 -81.7373A 0.5625 0.5625 0 0 0 35.5596 -81.8601C 35.72509092843357 -82.05295906437921 35.90115525706975 -82.25244139864287 36.08822322069046 -82.45803660430228 C 36.571813904788506 -82.989515807077 37.12875614603126 -83.56168404433002 37.766535205976595 -84.16506605945727 A 92.25 92.25 0 0 1 38.8759 -83.6584C 38.837542648561815 -82.78130739664017 38.76984635166418 -81.98570802309337 38.684865720706604 -81.27218970861888 C 38.651990695494526 -80.99617694746345 38.616529621755845 -80.73248325821267 38.57918049437491 -80.48111261029317 A 0.5625 0.5625 0 0 0 38.9204 -79.8998A 88.875 88.875 0 0 1 39.0922 -79.8158A 0.5625 0.5625 0 0 0 39.7605 -79.9041C 39.935798528379834 -80.0880903066504 40.12197943266303 -80.27816534546844 40.31946642136871 -80.47377388540293 C 40.82999106785515 -80.97943649827673 41.41588031631697 -81.5219260745255 42.08411753684565 -82.09139161569888 A 92.25 92.25 0 0 1 43.1657 -81.5279C 43.081858998100756 -80.65390876171877 42.97295930463663 -79.86289548207984 42.85105889522914 -79.15474974643304 C 42.803902066487844 -78.88081536541014 42.75480208185243 -78.61931767706434 42.70445620140028 -78.3702244168723 A 0.5625 0.5625 0 0 0 43.015 -77.7719A 88.875 88.875 0 0 1 43.1823 -77.6792A 0.5625 0.5625 0 0 0 43.8542 -77.7327C 44.03884627604867 -77.90731821684078 44.2346418451773 -78.08747355151336 44.44201546896162 -78.27256809968237 C 44.97809779364908 -78.75105094565092 45.591354595499965 -79.26239940490873 46.2882485272082 -79.79641329370942 A 92.25 92.25 0 0 1 47.3391 -79.1775C 47.210034272551994 -78.30908144819705 47.06022475684177 -77.5247866944186 46.901733190936405 -76.8239225733043 C 46.840421685138956 -76.5528050510742 46.77781515448464 -76.294208315169 46.714608244553936 -76.04806395409484 A 0.5625 0.5625 0 0 0 46.9937 -75.4345A 88.875 88.875 0 0 1 47.1559 -75.3332A 0.5625 0.5625 0 0 0 47.8297 -75.3517C 48.02317308012172 -75.51652177094896 48.2280554838576 -75.68627173454483 48.44475670009401 -75.8603533087708 C 49.00495151981322 -76.310366482676 49.64392264313774 -76.78919531990192 50.36759458319485 -77.2863179492981 A 92.25 92.25 0 0 1 51.3849 -76.6137C 51.21093964122744 -75.75314669595218 51.02062416323949 -74.97768478802895 50.82596870607701 -74.28599168720653 C 50.7506678082033 -74.01842190867625 50.67472350766805 -73.76342325629234 50.598825962913125 -73.52089135601577 A 0.5625 0.5625 0 0 0 50.8457 -72.8936A 88.875 88.875 0 0 1 51.0024 -72.784A 0.5625 0.5625 0 0 0 51.6763 -72.7676C 51.878037899954656 -72.922146133506 52.091454811560034 -73.08103311013471 52.31689943208183 -73.24363241727075 C 52.89969656063996 -73.66396276315702 53.56265945225821 -74.1089811404617 54.31115850905731 -74.5678723557346 A 92.25 92.25 0 0 1 55.2922 -73.8434C 55.073789370603656 -72.99299485319311 54.8434809872193 -72.22845629932901 54.613186395497586 -71.54779890110858 C 54.52409910345528 -71.2844981870953 54.43502176544654 -71.03378504951638 54.346638192229555 -70.79551943316146 A 0.5625 0.5625 0 0 0 54.5606 -70.1563A 88.875 88.875 0 0 1 54.7115 -70.0387A 0.5625 0.5625 0 0 0 55.3836 -69.9873C 55.59304870152429 -70.13118528255092 55.81442478673709 -70.2787809410143 56.048005052705435 -70.42945964207553 C 56.651833372081036 -70.81897402364376 57.33700080124751 -71.2289822501602 58.10830915366432 -71.64840496172437 A 92.25 92.25 0 0 1 59.0504 -70.874C 58.78816990075305 -70.0360668012995 58.518489482655916 -69.28451266226713 58.253176589878706 -68.61672589865569 C 58.15054306725672 -68.35840406133346 58.04857282852911 -68.11265231685292 57.947941493337446 -67.87929530639653 A 0.5625 0.5625 0 0 0 58.1284 -67.2298A 88.875 88.875 0 0 1 58.273 -67.1046A 0.5625 0.5625 0 0 0 58.9415 -67.0183C 59.15819047251483 -67.15116315510247 59.3869289405481 -67.2870696035999 59.62801516086236 -67.42542149544789 C 60.25124685666184 -67.78306985079062 60.956771733123475 -68.1569626168286 61.7488100702054 -68.53578613520659 A 92.25 92.25 0 0 1 62.6495 -67.7135C 62.34406791846013 -66.89033389552128 62.035742476378545 -66.15379022840646 61.73612651919808 -65.50067433445557 C 61.620223447828025 -65.2480277638271 61.50563520211706 -65.00789991569974 61.39302738923901 -64.78008060038513 A 0.5625 0.5625 0 0 0 61.5396 -64.1221A 88.875 88.875 0 0 1 61.6774 -63.9895A 0.5625 0.5625 0 0 0 62.3406 -63.8687C 62.56385222102025 -63.9901133639555 62.799336433404584 -64.11396422272976 63.04727868223828 -64.23961633312437 C 63.68823363199565 -64.564434505507 64.41221398542065 -64.90120386227262 65.22284711184142 -65.23840694623402 A 92.25 92.25 0 0 1 66.0796 -64.3705C 65.73189735134345 -63.564276475614356 65.38575807615806 -62.84472887192447 65.05264676622349 -62.20804453261484 C 64.9237866002944 -61.96175431916725 64.79688925725158 -61.72789770961758 64.67260853744186 -61.50623025004091 A 0.5625 0.5625 0 0 0 64.7848 -60.8416A 88.875 88.875 0 0 1 64.9156 -60.702A 0.5625 0.5625 0 0 0 65.5716 -60.5469C 65.80085288507964 -60.656557540480684 66.0424480180115 -60.768018929513055 66.29657788689738 -60.88063252257968 C 66.95352818938744 -61.171744859636526 67.694012296741 -61.47048293648401 68.5210548889098 -61.76515654613114 A 92.25 92.25 0 0 1 69.3316 -60.8539C 68.9425252102123 -60.0668610043436 68.55950523221239 -59.36624923720385 68.19379657872202 -58.747712840949994 C 68.05232670245906 -58.50844293955519 67.91346235488608 -58.28148800465727 67.77784376699276 -58.066569977099256 A 0.5625 0.5625 0 0 0 67.8554 -57.397A 88.875 88.875 0 0 1 67.9788 -57.2508A 0.5625 0.5625 0 0 0 68.6258 -57.0619C 68.8604660831967 -57.15948236181336 69.10752083891116 -57.25825380090513 69.36715323865229 -57.35752529030668 C 70.03832787200676 -57.61414700464502 70.7933195190513 -57.87404845653536 71.63454201635885 -58.125398203914216 A 92.25 92.25 0 0 1 72.3967 -57.1733C 71.96729620999056 -56.407515895484806 71.54842808331978 -55.727728690352905 71.15110797214697 -55.12900770192333 C 70.99740976332502 -54.89740314193312 70.84695276495204 -54.67796171206632 70.70036191271106 -54.47037249753229 A 0.5625 0.5625 0 0 0 70.743 -53.7977A 88.875 88.875 0 0 1 70.8587 -53.6453A 0.5625 0.5625 0 0 0 71.495 -53.423C 71.73444363912178 -53.508315324360545 71.98629200167613 -53.594130543174465 72.25072700922517 -53.67979231052647 C 72.93431660529465 -53.90123159537457 73.70178046803048 -54.12159577394345 74.5549150833502 -54.32894406457314 A 92.25 92.25 0 0 1 75.2666 -53.3386C 74.79805610283523 -52.59610609648784 74.34446902190821 -51.93897603948403 73.91660855782742 -51.36168450481109 C 73.75109635964398 -51.13836965117206 73.58945231593817 -50.92703330163459 73.43228438237021 -50.72733252394562 A 0.5625 0.5625 0 0 0 73.44 -50.0533A 88.875 88.875 0 0 1 73.5475 -49.8951A 0.5625 0.5625 0 0 0 74.1715 -49.6402C 74.41503781747662 -49.71289932893737 74.6710008482116 -49.78552698481546 74.93952559353971 -49.857348101137944 C 75.63368731563023 -50.04300799533379 76.41155444716921 -50.22324083771564 77.27430128041037 -50.38602869726333 A 92.25 92.25 0 0 1 77.9336 -49.3601C 77.42717366054697 -48.64290649432241 76.94009041594074 -48.010205091901334 76.48284303511844 -47.45589928689871 C 76.30596303919762 -47.241476156974755 76.13356771392253 -47.03881461320118 75.96624639598961 -46.8475406303473 A 0.5625 0.5625 0 0 0 75.939 -46.174A 88.875 88.875 0 0 1 76.0382 -46.0105A 0.5625 0.5625 0 0 0 76.6481 -45.7235C 76.89502221027901 -45.78346614604704 77.15440987811745 -45.84271044766944 77.42630046598576 -45.900497295930606 C 78.1291629768207 -46.04987729322367 78.91533638490127 -46.189492923540186 79.78536962313309 -46.30728150471704 A 92.25 92.25 0 0 1 80.3906 -45.2485C 79.84756124701188 -44.55857421619973 79.32829492903873 -43.95200711948219 78.84289328957333 -43.42218135460023 C 78.65512233311217 -43.2172279952401 78.47244047358568 -43.023787596922354 78.2954168399789 -42.841456049744544 A 0.5625 0.5625 0 0 0 78.2332 -42.1703A 88.875 88.875 0 0 1 78.3238 -42.0018A 0.5625 0.5625 0 0 0 78.918 -41.6835C 79.16771121806144 -41.730608832835934 79.42982425970996 -41.77631006803973 79.7043477211632 -41.81990686511323 C 80.41401622767779 -41.93260426344086 81.20637652778541 -42.03122630263642 82.08135071521741 -42.103698068252314 A 92.25 92.25 0 0 1 82.6308 -41.0149C 82.05269392521575 -40.35411989984113 81.50264438406387 -39.775322306480255 80.99039704295751 -39.27140489830912 C 80.7922413232572 -39.07647382753438 80.59976540747482 -38.892776055786534 80.41351668261305 -38.719878477900195 A 0.5625 0.5625 0 0 0 80.3166 -38.0528A 88.875 88.875 0 0 1 80.3983 -37.8799A 0.5625 0.5625 0 0 0 80.9751 -37.5312C 81.22697807306496 -37.56525317608499 81.49110987810424 -37.59728814241995 81.76752614642541 -37.62657735904869 C 82.48208750779382 -37.702288346149615 83.2784986366468 -37.759650926642685 84.15605499756307 -37.78661050563038 A 92.25 92.25 0 0 1 84.6482 -36.6708C 84.03662704732035 -36.04087801074605 83.45727711930523 -35.49141025672348 82.91956500482542 -35.01475967750418 C 82.71155871467276 -34.8303763950183 82.50980762367418 -34.656916466555636 82.3148359011913 -34.493918959262864 A 0.5625 0.5625 0 0 0 82.1834 -33.8328A 88.875 88.875 0 0 1 82.256 -33.6558A 0.5625 0.5625 0 0 0 82.814 -33.2777C 83.06727135592199 -33.29862823821965 83.33270987170353 -33.31691057508023 83.61027377750301 -33.33181325271445 C 84.32780166262775 -33.37033372515298 85.12611663662635 -33.38628220756812 86.00388943422773 -33.36765692166905 A 92.25 92.25 0 0 1 86.4375 -32.2278C 85.79401228038323 -31.630476286476387 85.18692379048308 -31.111819639712362 84.6251964794242 -30.663720855135786 C 84.40790036700245 -30.490382425669797 84.19741798605988 -30.327627957792153 83.99424887524916 -30.174969933555047 A 0.5625 0.5625 0 0 0 83.8287 -29.5216A 88.875 88.875 0 0 1 83.892 -29.3411A 0.5625 0.5625 0 0 0 84.4296 -28.9344C 84.68362996130153 -28.94223608574309 84.94965961251569 -28.946716507181396 85.22762289257608 -28.947192470836946 C 85.9461829731361 -28.94841858422971 86.74424967625059 -28.922909974277992 87.61987259026294 -28.858750033970022 A 92.25 92.25 0 0 1 87.9937 -27.6979C 87.32011202451763 -27.134804390332064 86.68692157596942 -26.648357057448987 86.10269338585002 -26.230018062615535 C 85.87669324306083 -26.06819177592946 85.6580469954605 -25.916581525907624 85.44722820432486 -25.77467452376994 A 0.5625 0.5625 0 0 0 85.2479 -25.1307A 88.875 88.875 0 0 1 85.3018 -24.9472A 0.5625 0.5625 0 0 0 85.8176 -24.5132C 86.07169647217181 -24.50782078169866 86.33760008991234 -24.498487209290612 86.61521340437385 -24.48453517585363 C 87.33286856943168 -24.4484636248157 88.12853555492683 -24.381566689199683 88.99964806078201 -24.272045058338566 A 92.25 92.25 0 0 1 89.3127 -23.0934C 88.61081218462417 -22.565981858921024 87.95322674693061 -22.113055215925606 87.34807265366108 -21.725603778804 C 87.11397773693312 -21.575725889956235 86.88775705430241 -21.435668572219935 86.66985691303049 -21.30489514837061 A 0.5625 0.5625 0 0 0 86.4374 -20.6722A 88.875 88.875 0 0 1 86.4817 -20.4861A 0.5625 0.5625 0 0 0 86.9743 -20.0259C 87.2277289066265 -20.007336725751713 87.49278966175108 -19.98421432115838 87.7693046141993 -19.95587190284432 C 88.48412019230969 -19.88259992989993 89.27524248266461 -19.774495010930814 90.13949621505749 -19.619906940470184 A 92.25 92.25 0 0 1 90.391 -18.4266C 89.66263326126399 -17.936325430030735 88.98242556850553 -17.51814048707612 88.35797696053153 -17.16262110824034 C 88.11641834837285 -17.025095661521167 87.88323308167686 -16.896968845837208 87.6588390105253 -16.777681542306507 A 0.5625 0.5625 0 0 0 87.3939 -16.1579A 88.875 88.875 0 0 1 87.4284 -15.9697A 0.5625 0.5625 0 0 0 87.8965 -15.4846C 88.14861080560603 -15.452916427242256 88.41211414118098 -15.41606752437843 88.6867852961913 -15.373411127336198 C 89.3968342709334 -15.263136260770088 90.18127914032186 -15.114114790196723 91.03634422398795 -14.914877022243735 A 92.25 92.25 0 0 1 91.2256 -13.7101C 90.47273973077395 -13.25831583888127 89.77174350263115 -12.875999948639558 89.12968378299873 -12.553371045479956 C 88.8813126747207 -12.42856878517955 88.64179145021184 -12.3127178787905 88.41150837592411 -12.20523827305903 A 0.5625 0.5625 0 0 0 88.1147 -11.6A 88.875 88.875 0 0 1 88.1395 -11.4103A 0.5625 0.5625 0 0 0 88.5817 -10.9016C 88.83185963432054 -10.8568377980842 89.09309519193992 -10.806361735077205 89.36518208463966 -10.749506353411675 C 90.06855028951252 -10.602525874767775 90.84420301325467 -10.41298958812818 91.68777434390188 -10.169639232480465 A 92.25 92.25 0 0 1 91.8142 -8.95664C 91.03894768933715 -8.544564172269215 90.31905268770662 -8.199147990787946 89.66111273590522 -7.910279313787406 C 89.40659869610438 -7.798536684734794 89.16138722065712 -7.695274001202108 88.92583594568802 -7.599891839284779 A 0.5625 0.5625 0 0 0 88.598 -7.01089A 88.875 88.875 0 0 1 88.6129 -6.82018A 0.5625 0.5625 0 0 0 89.0281 -6.28917C 89.2756334747246 -6.231491053685801 89.53389700951091 -6.167523905077452 89.80266614174165 -6.096622810845698 C 90.4974574204188 -5.913332953508625 91.262226975905 -5.6837928071220105 92.09203043436733 -5.396985893314626 A 92.25 92.25 0 0 1 92.1553 -4.17906C 91.35973074040156 -3.8077778713074744 90.62287767493193 -3.500192579543153 89.9508311807494 -3.2458628675835706 C 89.69086033427955 -3.147481108150842 89.4406196546789 -3.057085025412729 89.20043518362081 -2.974057440754727 A 0.5625 0.5625 0 0 0 88.8425 -2.40286A 88.875 88.875 0 0 1 88.8475 -2.21164A 0.5625 0.5625 0 0 0 89.2346 -1.65979" stroke="#191919" stroke-width="0.35 px" style="stroke-width:0.35;stroke-miterlimit:4;stroke-dasharray:none;fill:none;fill-rule: evenodd "/>
<title>b'InvoluteGear'</title>
</g>
</svg>