<?xml version="1.0"?>
<!DOCTYPE svg PUBLIC "-//W3C//DTD SVG 1.1//EN" "http://www.w3.org/Graphics/SVG/1.1/DTD/svg11.dtd">
<svg width="111.65596311817058mm" height="111.68275871235043mm" viewBox="0 0 111.65596311817058 111.68275871235043" xmlns="http://www.w3.org/2000/svg" version="1.1">
<g id="InvoluteGear" transform="translate(55.814355,55.841379) scale(1,-1)">
<path id="InvoluteGear_w0000"  d="M 51.72488729410412 -1.6119970261219732 C 51.959740712093414 -1.5578149162621855 52.21747382406229 -1.491581555712894 52.49712477287156 -1.4107049134753302 C 53.13783626620151 -1.2253847436049525 53.892444024960824 -0.9636499332220918 54.746942071122945 -0.5952798674653124 A 54.75 54.75 0 0 1 54.7469 0.59528C 53.892444024960824 0.9636499332220918 53.13783626620151 1.2253847436049525 52.49712477287156 1.4107049134753302 C 52.21747382406229 1.491581555712894 51.959740712093414 1.5578149162621855 51.7248940154034 1.6119948401595607 A 0.5625 0.5625 0 0 0 51.3297 2.15633A 51.375 51.375 0 0 1 51.3194 2.38864A 0.5625 0.5625 0 0 0 51.6649 2.96576C 51.89409284698981 3.040488409665064 52.14496369210119 3.129241066683959 52.416372430890426 3.234516804336976 C 53.03819809015121 3.4757379322067696 53.76672078456847 3.803140840356536 54.58531844289723 4.2455900352017775 A 54.75 54.75 0 0 1 54.4801 5.43149C 53.596385820781684 5.722898839508389 52.82159882652762 5.916917122359926 52.16701593527255 6.044885952635279 C 51.88131142428245 6.100730530075277 51.6187331565047 6.143926228306157 51.38001702938283 6.177138360903552 A 0.5625 0.5625 0 0 0 50.9383 6.68442A 51.375 51.375 0 0 1 50.9075 6.91491A 0.5625 0.5625 0 0 0 51.2007 7.52031C 51.422303344747 7.614995791340139 51.664348518494634 7.725573134952164 51.92539090589323 7.854424042635379 C 52.52346410219874 8.149658246119316 53.22020005442255 8.540166880370446 53.9964906883458 9.053232439459698 A 54.75 54.75 0 0 1 53.7869 10.2252C 52.8808632288893 10.43735830298251 52.09196075786556 10.5621416021797 51.42862946732573 10.63175756325657 C 51.13910741932578 10.662133016363658 50.87373902670131 10.681952987370579 50.63302174650558 10.693937398699745 A 0.5625 0.5625 0 0 0 50.1482 11.1602A 51.375 51.375 0 0 1 50.0972 11.3871A 0.5625 0.5625 0 0 0 50.3357 12.016C 50.54806459789589 12.129905506155094 50.77938976861821 12.261442118720185 51.02802279401043 12.412859763378457 C 51.59766279370197 12.759796434540945 52.25715910023666 13.210354535359253 52.98506718301023 13.790021025052642 A 54.75 54.75 0 0 1 52.6727 14.9389C 51.751476183706615 15.070131286242388 50.95463246738245 15.124703003281564 50.28774424428415 15.135421255875716 C 49.996670561848454 15.14008985554477 49.730588911849296 15.13637898118169 49.489754417673794 15.12704187697491 A 0.5625 0.5625 0 0 0 48.9656 15.5486A 51.375 51.375 0 0 1 48.8947 15.7701A 0.5625 0.5625 0 0 0 49.0767 16.4177C 49.27821870996727 16.549882264050662 49.497013444561134 16.701348693231562 49.73129121741417 16.874148026495813 C 50.26803981514769 17.270071915490888 50.8851350232165 17.777153254848212 51.5589636871584 18.41888399892302 A 54.75 54.75 0 0 1 51.1463 19.5356C 50.217063670141734 19.584960059348244 49.41851509099803 19.568893096552507 48.753289239887465 19.52062975580505 C 48.462941969233356 19.499554963913734 48.1982295115376 19.47234228680394 47.959162659834725 19.441756742561346 A 0.5625 0.5625 0 0 0 47.3998 19.8154A 51.375 51.375 0 0 1 47.3096 20.0297A 0.5625 0.5625 0 0 0 47.4337 20.6908C 47.62270394675488 20.84033375407034 47.827255879769226 21.01054456969294 48.04534485886495 21.20337320249038 C 48.54500126911255 21.6451856680732 49.11486577202372 22.204821646962785 49.72934139422795 22.90359423225592 A 54.75 54.75 0 0 1 49.2196 23.9795C 48.289634546546665 23.94650996571945 47.49563082992741 23.859930068857064 46.83727364503606 23.753062860847205 C 46.5499251472238 23.706409616216334 46.28865361572332 23.655908112454508 46.05322542874647 23.604313501529216 A 0.5625 0.5625 0 0 0 45.463 23.927A 51.375 51.375 0 0 1 45.3543 24.1326A 0.5625 0.5625 0 0 0 45.4194 24.802C 45.594476955910736 24.96768137609561 45.78318519112795 25.1553044477473 45.98337853450899 25.366653234579566 C 46.44203226840127 25.85089649517547 46.960206103768684 26.458707203280003 47.51051957935466 27.20905278688066 A 54.75 54.75 0 0 1 46.9077 28.2357C 45.98427355911855 28.120645963730727 45.2010288606563 27.96423073788401 44.55469287958961 27.799596043410332 C 44.27259204621607 27.727729470933948 44.01680624488989 27.654334383259506 43.78685926740749 27.582134503436563 A 0.5625 0.5625 0 0 0 43.1705 27.8514A 51.375 51.375 0 0 1 43.044 28.0465A 0.5625 0.5625 0 0 0 43.0497 28.7192C 43.20941136360999 28.89962303891937 43.38079900322943 29.10318996167572 43.56152992655164 29.331404811728575 C 43.97559139675518 29.85428900726212 44.438019151751035 30.505517501690463 44.9198635316297 31.30156361205083 A 54.75 54.75 0 0 1 44.2286 32.2709C 43.319023283307956 32.07469977969487 42.55266755473059 31.849673386081665 41.92341123287511 31.628559694848406 C 41.64876588544789 31.53204224789643 41.4004676849986 31.436327992383166 41.177801563883094 31.3440879056144 A 0.5625 0.5625 0 0 0 40.54 31.5578A 51.375 51.375 0 0 1 40.3968 31.741A 0.5625 0.5625 0 0 0 40.343 32.4115C 40.48617354190381 32.60538596790651 40.63889924526949 32.82330355459071 40.79875328401386 33.06659837723736 C 41.16498189811904 33.6240312299259 41.56804444857775 34.31358076474093 41.97764864716782 35.14909726172823 A 54.75 54.75 0 0 1 41.2034 36.0536C 40.314742916202974 35.77772558139767 39.57127393015011 35.48584915665007 38.96402205140162 35.209986983088136 C 38.69898166214225 35.08957404154617 38.46011433264351 34.97228971201765 38.2464717321945 34.86073132204576 A 0.5625 0.5625 0 0 0 37.5923 35.0173A 51.375 51.375 0 0 1 37.4334 35.1871A 0.5625 0.5625 0 0 0 37.3206 35.8502C 37.44607651904939 36.055967543678605 37.57894500045932 36.28653029371128 37.71667108003453 36.54300097709321 C 38.03220060258486 37.13061981906906 38.37274343755671 37.85309373423503 38.7069017466423 38.7215415684252 A 54.75 54.75 0 0 1 37.8558 39.554C 36.99494502503008 39.20074217119284 36.28018143435009 38.84430004407519 35.69968656800232 38.515848383720474 C 35.446325437311806 38.372482342117976 35.218758439485235 38.23454584747273 35.01581140271858 38.104542249955706 A 0.5625 0.5625 0 0 0 34.3504 38.2027A 51.375 51.375 0 0 1 34.1771 38.3578A 0.5625 0.5625 0 0 0 34.0061 39.0083C 34.112913176166415 39.22436228693385 34.22488455960383 39.465765734187464 34.33940478670129 39.73340504747139 C 34.60176577137208 40.34661096457302 34.87712368144835 41.09635492213742 35.1332208591923 41.99093731174283 A 54.75 54.75 0 0 1 34.2119 42.7449C 33.38561152943602 42.31695980316785 32.70514732833828 41.89874161660691 32.15595263378443 41.520271049032914 C 31.916253656030133 41.35507394102829 31.701768010180462 41.197564821358135 31.51110487282462 41.05013347071193 A 0.5625 0.5625 0 0 0 30.8396 41.0891A 51.375 51.375 0 0 1 30.6533 41.2282A 0.5625 0.5625 0 0 0 30.4255 41.8611C 30.51277003568285 42.08577321293791 30.602967993255916 42.336128048130796 30.69338609182634 42.61284135081149 C 30.900525208190366 43.246835175322275 31.108543144380675 44.01798141227674 31.284574883137733 44.93169703717909 A 54.75 54.75 0 0 1 30.3002 45.6013C 29.51499035773905 45.101989849228445 28.874151101204603 44.625268727575246 28.360554771555243 44.19974129812259 C 28.136393916233978 44.01400601506848 27.936668263350377 43.8381569927936 27.7597812229658 43.67445173923184 A 0.5625 0.5625 0 0 0 27.0874 43.6539A 51.375 51.375 0 0 1 26.8896 43.776A 0.5625 0.5625 0 0 0 26.6067 44.3863C 26.67382309892744 44.61780590155047 26.74154170932325 44.87515275865363 26.807150035151924 45.15877439395585 C 26.95744613877405 45.80859426459839 27.09649607868656 46.59510751608004 27.19108469142831 47.52080531265305 A 54.75 54.75 0 0 1 26.1514 48.1008C 25.41337436858984 47.53403567318092 24.817175492683038 47.00254260557478 24.343197115577315 46.53328864333034 C 24.1363287453105 46.32846881564586 23.95292620942482 46.13565614779047 23.791199646934828 45.95695820688206 A 0.5625 0.5625 0 0 0 23.1233 45.877A 51.375 51.375 0 0 1 22.9154 45.9812A 0.5625 0.5625 0 0 0 22.5797 46.5641C 22.626117330716934 46.800643763926345 22.670826603992854 47.06296855485917 22.711111682975115 47.35127879893825 C 22.803388503065502 48.01183899416643 22.87238219238953 48.807563727588345 22.88478739497328 49.73799885546636 A 54.75 54.75 0 0 1 21.7979 50.2238C 21.11286426827997 49.59406321896323 20.565971837561104 49.01195785928311 20.135320936443506 48.502649912739486 C 19.947364076710972 48.280348533281256 19.781720031332878 48.072081240396386 19.63641967636593 47.879789165816554 A 0.5625 0.5625 0 0 0 18.9782 47.7412A 51.375 51.375 0 0 1 18.7619 47.8266A 0.5625 0.5625 0 0 0 18.376 48.3775C 18.40133151676989 48.617203134191485 18.422681542243463 48.882452811791836 18.43732808901575 49.173195246082386 C 18.470863434343652 49.83932598674793 18.469260903915128 50.6380345771876 18.39938560881107 51.56592511996442 A 54.75 54.75 0 0 1 17.2738 51.9538C 16.647117379191464 51.26594997794108 16.15381156843507 50.637788089874086 15.769858570504917 50.09241218425822 C 15.602284238575399 49.85436906272784 15.455695072948464 49.63227711875956 15.327958097787683 49.427895856711125 A 0.5625 0.5625 0 0 0 14.6846 49.2316A 51.375 51.375 0 0 1 14.4616 49.2976A 0.5625 0.5625 0 0 0 14.0285 49.8123C 14.032530334256757 50.05326697229134 14.030354019031217 50.31936559819319 14.019247404506508 50.610264768943715 C 13.993778815525843 51.27675267882748 13.92159260731816 52.07219414863559 13.76998368345091 52.99027810473348 A 54.75 54.75 0 0 1 12.6145 53.2772C 12.051084225614854 52.53661116939759 11.615225821638838 51.86730897141122 11.280975679687643 51.290133412632535 C 11.13509537191417 51.038211559206786 11.008708345012364 50.804033134740024 10.899534464680569 50.58916224570887 A 0.5625 0.5625 0 0 0 10.276 50.3368A 51.375 51.375 0 0 1 10.0481 50.3828A 0.5625 0.5625 0 0 0 9.57121 50.8572C 9.553905575870262 51.097596131605464 9.528219952563006 51.36246112327128 9.491447101058865 51.65124035005499 C 9.407173904009992 52.31286925760442 9.264968972976055 53.098818198780336 9.03281296573385 53.99991031645859 A 54.75 54.75 0 0 1 7.8565 54.1836C 7.36073499850893 53.39610214668352 6.985735184283068 52.690897835950466 6.703803858864693 52.086439805319955 C 6.5807592864474245 51.822610850070156 6.475563548118116 51.57817870878721 6.385807196252326 51.354499848812736 A 0.5625 0.5625 0 0 0 5.78704 51.048A 51.375 51.375 0 0 1 5.55592 51.0737A 0.5625 0.5625 0 0 0 5.039 51.5041C 5.000508552688653 51.74201732050843 4.951514646127915 52.00357575026119 4.8893633550658375 52.28797494408717 C 4.746945101977486 52.93956670603106 4.535834394511207 53.709872002481106 4.224948239419467 54.58692001417306 A 54.75 54.75 0 0 1 3.03701 54.6659C 2.6127780399863125 53.83769622756067 2.3015716975004623 53.10210898396376 2.074165683492925 52.475099185125586 C 1.9749198370410224 52.2014279473391 1.8917386865662937 51.94865510215886 1.8221023283160165 51.717918861595365 A 0.5625 0.5625 0 0 0 1.25276 51.3597A 51.375 51.375 0 0 1 1.02028 51.3649A 0.5625 0.5625 0 0 0 0.46734 51.7479C 0.40797577014218245 51.981487069458524 0.3360570240751948 52.23769188795139 0.24901371157557572 52.51548523952526 C 0.049565018375966385 53.151940266865644 -0.22879923800225466 53.90057323522658 -0.6159824352649111 54.7467130510951 A 54.75 54.75 0 0 1 -1.80625 54.7204C -2.1556274492345913 53.85793733961078 -2.4006047084013233 53.097724130677214 -2.571705650609945 52.4530697654386 C -2.6463760377855046 52.17169809360826 -2.706891595122017 51.91256283476635 -2.7558629608370087 51.67657503754 A 0.5625 0.5625 0 0 0 -3.29132 51.2695A 51.375 51.375 0 0 1 -3.52335 51.254A 0.5625 0.5625 0 0 0 -4.10797 51.5867C -4.187749975959644 51.81413120298512 -4.282030699833868 52.06297726013806 -4.393284801833034 52.33199065983761 C -4.648202978697082 52.94832782904793 -4.991642206260878 53.66942940130824 -5.452092212213489 54.47803883005538 A 54.75 54.75 0 0 1 -6.63538 54.3466C -6.90716223095752 53.456667068688155 -7.083993127599712 52.67777759351301 -7.197449901149404 52.020523956336625 C -7.246960432027118 51.733653965292326 -7.284336779939231 51.47018437753775 -7.3122598857843855 51.230791948125926 A 0.5625 0.5625 0 0 0 -7.80964 50.7779A 51.375 51.375 0 0 1 -8.0394 50.7421A 0.5625 0.5625 0 0 0 -8.65113 51.0218C -8.75070090053832 51.24125950765286 -8.866605727724934 51.480799245670696 -9.001199905031617 51.73892729890142 C -9.309592485195303 52.33032293597179 -9.715418806336872 53.018249514622894 -10.245531975381668 53.783000091115525 A 54.75 54.75 0 0 1 -11.4126 53.5475C -11.604639103146534 52.6370258987251 -11.711939695741766 51.845556023508976 -11.766864347549125 51.18084701524317 C -11.790827535096017 50.89072385161754 -11.804772152984594 50.62498194169975 -11.811428462797126 50.38405845044285 A 0.5625 0.5625 0 0 0 -12.2668 49.889A 51.375 51.375 0 0 1 -12.4925 49.833A 0.5625 0.5625 0 0 0 -13.1266 50.0575C -13.24516572593151 50.26735548120585 -13.381787544008207 50.49571417685861 -13.538668414695454 50.740936681621044 C -13.898121808084884 51.30276231384754 -14.363159081601632 51.952129940686156 -14.958786559436836 52.66703645477608 A 54.75 54.75 0 0 1 -16.1004 52.3293C -16.211293940202225 51.40542863318715 -16.248224456129925 50.607572682818144 -16.24418712632496 49.94061055269835 C -16.242415426107986 49.6495048236103 -16.232819178431235 49.3835703822806 -16.218156597561904 49.14300138215384 A 0.5625 0.5625 0 0 0 -16.628 48.6097A 51.375 51.375 0 0 1 -16.8479 48.5339A 0.5625 0.5625 0 0 0 -17.4993 48.7015C -17.63596917105987 48.900041243118935 -17.792238729061488 49.11543167999297 -17.970178487609225 49.345829437702385 C -18.3778794840562 49.873688017761495 -18.89848816276202 50.47941451066245 -19.554968356791996 51.13888184957083 A 54.75 54.75 0 0 1 -20.6623 50.7016C -20.69107342209115 49.771514190538426 -20.657344829991935 48.973516469601265 -20.594377116154384 48.30952110059636 C -20.5668843941299 48.01971110307172 -20.53382238453697 47.75566542790075 -20.49795566756134 47.51733369750565 A 0.5625 0.5625 0 0 0 -20.8591 46.9499A 51.375 51.375 0 0 1 -21.0714 46.855A 0.5625 0.5625 0 0 0 -21.7351 46.9643C -21.888747245693935 47.15001788117829 -22.063441522451022 47.35075433706793 -22.26104754898897 47.564524172885406 C -22.713805335414854 48.054284491691064 -23.285910950531537 48.61162921957306 -23.998106013149254 49.21049615723409 A 54.75 54.75 0 0 1 -25.0625 48.677C -25.00891720045803 47.74807016663573 -24.904793472295992 46.95617608926203 -24.783388182161417 46.30034414541267 C -24.730389606155278 46.014098035621 -24.674120589698354 45.754007642023346 -24.617330442306656 45.51977845029232 A 0.5625 0.5625 0 0 0 -24.9269 44.9226A 51.375 51.375 0 0 1 -25.13 44.8093A 0.5625 0.5625 0 0 0 -25.8007 44.8596C -25.970216195270087 45.03098170096049 -26.16196797120776 45.21549314092983 -26.377693730654105 45.410962016050256 C -26.871964863508424 45.85879103506621 -27.491089912908226 46.36339201975768 -28.253425952118942 46.89697161041033 A 54.75 54.75 0 0 1 -29.2665 46.2715C -29.131032293388184 45.35093275445291 -28.95732833851236 44.57133996548779 -28.778435633083443 43.928804220964416 C -28.700345988811016 43.64836226282164 -28.621310346836236 43.39426271077078 -28.54404122893073 43.16596921870883 A 0.5625 0.5625 0 0 0 -28.7996 42.5438A 51.375 51.375 0 0 1 -28.9919 42.413A 0.5625 0.5625 0 0 0 -29.6645 42.4038C -29.848432991397733 42.55951703367117 -30.05574154888261 42.726359405532605 -30.2878986946779 42.901997510981666 C -30.819814832188495 43.30439036094509 -31.481113822919088 43.75229841557752 -32.287624525602574 44.21641467547101 A 54.75 54.75 0 0 1 -33.2414 43.5039C -33.02515756130921 42.598862804399324 -32.78323284868303 41.83767267442741 -32.54825280593144 41.21346184261308 C -32.44568325073701 40.94101887467893 -32.34449954430331 40.69489883769057 -32.24735619149695 40.47432775140482 A 0.5625 0.5625 0 0 0 -32.4469 39.832A 51.375 51.375 0 0 1 -32.6269 39.6847A 0.5625 0.5625 0 0 0 -33.296 39.6161C -33.49304532936655 39.75496644126749 -33.714288197856995 39.90283397724796 -33.96105978556508 40.05726670671157 C -34.52645796275738 40.41107411798711 -35.22475533359399 40.79878375473682 -36.06912865999413 41.18980434486539 A 54.75 54.75 0 0 1 -36.9562 40.3958C -36.66081619414949 39.51339899522846 -36.352564112662904 38.77656886907651 -36.06333577002089 38.17556824606649 C -35.9370890497428 37.91325650395688 -35.81454917854296 37.67704220502234 -35.69829186928328 37.465919792324314 A 0.5625 0.5625 0 0 0 -35.8403 36.8084A 51.375 51.375 0 0 1 -36.0066 36.6458A 0.5625 0.5625 0 0 0 -36.667 36.5184C -36.87552917608385 36.63927933468527 -37.10897483016175 36.76701477082951 -37.368429537523525 36.89903347881199 C -37.96288474706582 37.20148642869661 -38.692715374295084 37.525963293979856 -39.568342958289136 37.84082794806044 A 54.75 54.75 0 0 1 -40.3818 36.9715C -40.00955423369884 36.11868926467356 -39.637387273833106 35.411985837109924 -39.29617423523213 34.838899067646025 C -39.147238401628194 34.58877149639837 -39.00430140630004 34.364311632677996 -38.86984001165949 34.16429021269739 A 0.5625 0.5625 0 0 0 -38.9532 33.4968A 51.375 51.375 0 0 1 -39.1044 33.3202A 0.5625 0.5625 0 0 0 -39.751 33.1348C -39.96941200930802 33.2368401899382 -40.21323342021289 33.343443823268274 -40.48334066236156 33.45201528438207 C -41.102200486247014 33.700746668462045 -41.857852455669935 33.95945129086602 -42.75788132419337 34.19569576607116 A 54.75 54.75 0 0 1 -43.4913 33.2579C -43.04516326441101 32.44130181909376 -42.61199413722967 31.77025600262303 -42.22146685733052 31.22956826769607 C -42.05100753523334 30.993582454690884 -41.888792091566465 30.782633728952202 -41.737178954267605 30.595278740499445 A 0.5625 0.5625 0 0 0 -41.7612 29.9231A 51.375 51.375 0 0 1 -41.8963 29.7337A 0.5625 0.5625 0 0 0 -42.5239 29.492C -42.75048000102765 29.574277706531433 -43.00276893563387 29.65891521907798 -43.281414757174694 29.743189714433257 C -43.91983577820025 29.936252872385698 -44.695395088605274 30.127160537475383 -45.61278129545767 30.28293590047451 A 54.75 54.75 0 0 1 -46.2605 29.284C -45.74388552978977 28.510017201236906 -45.253104371025444 27.879880839210518 -44.81631925528978 27.37582375343782 C -44.625670520012065 27.155826607623258 -44.44544618379299 26.96003997966004 -44.277867882199864 26.786817729545046 A 0.5625 0.5625 0 0 0 -44.2424 26.1151A 51.375 51.375 0 0 1 -44.3602 25.9146A 0.5625 0.5625 0 0 0 -44.964 25.6183C -45.19696752349622 25.680256401783357 -45.45574947882453 25.742265390254925 -45.74075309840198 25.80158335766194 C -46.3937388064749 25.937467308511163 -47.18313565471593 26.059083904965053 -48.11069940899048 26.13317100233465 A 54.75 54.75 0 0 1 -48.6676 25.0809C -48.08459986904571 24.3556030434704 -47.54004770669141 23.77130780729166 -47.06042319086501 23.307826300795256 C -46.851077127251415 23.105539598120462 -46.65425439826824 22.92644736375384 -46.47202245980188 22.768713550947176 A 0.5625 0.5625 0 0 0 -46.3773 22.1028A 51.375 51.375 0 0 1 -46.4769 21.8926A 0.5625 0.5625 0 0 0 -47.0522 21.5441C -47.28972749478002 21.58525227211286 -47.552977151160434 21.624147432099768 -47.84210802902913 21.658044628037292 C -48.50454792563299 21.73568589562963 -49.30160421106875 21.7870596086866 -50.23208606875082 21.77887860843875 A 54.75 54.75 0 0 1 -50.6938 20.6815C -50.048987018816305 20.010573269341673 -49.45492571187357 19.47669206145045 -48.93621550809173 19.057413505430123 C -48.70981053293191 18.874420413613983 -48.49792981590105 18.7134242124001 -48.30247045255915 18.572413317850376 A 0.5625 0.5625 0 0 0 -48.1493 17.9174A 51.375 51.375 0 0 1 -48.2299 17.6993A 0.5625 0.5625 0 0 0 -48.7722 17.3013C -49.01238123063493 17.321314277046394 -49.27803830257919 17.336791201185733 -49.569033597601674 17.345002334136034 C -50.235743192376354 17.363793270282653 -51.03422086888444 17.34452203098298 -51.960338547843754 17.254136960536833 A 54.75 54.75 0 0 1 -52.3232 16.1202C -51.62167298624011 15.508933628042355 -50.98275186989384 15.029644792753285 -50.42901558879444 14.657850610388776 C -50.18732362799025 14.49558329848595 -49.96204317680096 14.353943143986022 -49.75488612311526 14.23075876913273 A 0.5625 0.5625 0 0 0 -49.5444 13.5919A 51.375 51.375 0 0 1 -49.6055 13.3675A 0.5625 0.5625 0 0 0 -50.1104 12.9231C -50.351446629917625 12.921813512656165 -50.617431990646594 12.913751073032156 -50.90801427009332 12.896211879746836 C -51.57377565650142 12.856005419894696 -52.367425553647124 12.76624005181481 -53.281930927369054 12.594358296895216 A 54.75 54.75 0 0 1 -53.5432 11.4328C -52.79034937129556 10.885915553314236 -52.111568869562454 10.464970175607277 -51.52714024832849 10.14357016047277 C -51.272052869171276 10.003298590209052 -51.03513580880064 9.88212300867486 -50.817902349590156 9.777729238270776 A 0.5625 0.5625 0 0 0 -50.5518 9.15995A 51.375 51.375 0 0 1 -50.5928 8.93104A 0.5625 0.5625 0 0 0 -51.0565 8.4438C -51.29644369030674 8.421182037487144 -51.560675643736445 8.389643333621306 -51.84857070728471 8.34649108206834 C -52.508173399804946 8.247601896279717 -53.2907841310728 8.088044935133228 -54.18651995507577 7.83601170351833 A 54.75 54.75 0 0 1 -54.3441 6.65593C -53.545869696719606 6.17770042971165 -52.83254218735033 5.818392977906198 -52.221995172340584 5.549902520890366 C -51.95550877943249 5.432724507490292 -51.70880930710194 5.332961862143268 -51.48319958872099 5.2481757189841085 A 0.5625 0.5625 0 0 0 -51.1636 4.65633A 51.375 51.375 0 0 1 -51.1841 4.4247A 0.5625 0.5625 0 0 0 -51.603 3.89838C -51.83997652853038 3.85464339501417 -52.100387101366294 3.7998752600260075 -52.383341779801285 3.731447675081781 C -53.0316234930423 3.5746497053143855 -53.797070068357286 3.346549900657589 -54.66702599533496 3.0163376941040556 A 54.75 54.75 0 0 1 -54.7197 1.82694C -53.88232099159349 1.4211364242107392 -53.140029229514035 1.1262789662842192 -52.50814217893118 0.9127993692460254 C -52.232342389612356 0.8196319895402762 -51.97779126318036 0.7420630583434529 -51.74557098756825 0.677548108956739 A 0.5625 0.5625 0 0 0 -51.3749 0.116269A 51.375 51.375 0 0 1 -51.3749 -0.116269A 0.5625 0.5625 0 0 0 -51.7456 -0.677546C -51.97779126318036 -0.74206305834344 -52.232342389612356 -0.8196319895402628 -52.50814217893118 -0.9127993692460126 C -53.140029229514035 -1.1262789662842059 -53.88232099159349 -1.4211364242107258 -54.71968843688742 -1.8269432474683542 A 54.75 54.75 0 0 1 -54.667 -3.01634C -53.797070068357286 -3.3465499006575756 -53.0316234930423 -3.574649705314372 -52.383341779801285 -3.731447675081768 C -52.100387101366294 -3.799875260025994 -51.83997652853038 -3.8546433950141568 -51.60296313419965 -3.8983822336768723 A 0.5625 0.5625 0 0 0 -51.1841 -4.4247A 51.375 51.375 0 0 1 -51.1636 -4.65633A 0.5625 0.5625 0 0 0 -51.4832 -5.24817C -51.70880930710194 -5.332961862143256 -51.95550877943249 -5.432724507490281 -52.221995172340584 -5.549902520890354 C -52.83254218735033 -5.8183929779061865 -53.545869696719606 -6.1777004297116385 -54.34409512472563 -6.655925881068145 A 54.75 54.75 0 0 1 -54.1865 -7.83601C -53.2907841310728 -8.088044935133217 -52.508173399804946 -8.247601896279704 -51.84857070728471 -8.346491082068328 C -51.560675643736445 -8.389643333621294 -51.29644369030674 -8.421182037487132 -51.056492128422676 -8.443802449710004 A 0.5625 0.5625 0 0 0 -50.5928 -8.93104A 51.375 51.375 0 0 1 -50.5518 -9.15995A 0.5625 0.5625 0 0 0 -50.8179 -9.77773C -51.035135808800646 -9.882123008674847 -51.27205286917128 -10.00329859020904 -51.5271402483285 -10.143570160472759 C -52.11156886956246 -10.464970175607265 -52.79034937129557 -10.885915553314224 -53.5431855857655 -11.432816870210713 A 54.75 54.75 0 0 1 -53.2819 -12.5944C -52.36742555364713 -12.766240051814798 -51.573775656501425 -12.856005419894684 -50.908014270093325 -12.896211879746826 C -50.6174319906466 -12.913751073032143 -50.35144662991763 -12.921813512656152 -50.11043484679031 -12.923138463043648 A 0.5625 0.5625 0 0 0 -49.6055 -13.3675A 51.375 51.375 0 0 1 -49.5444 -13.5919A 0.5625 0.5625 0 0 0 -49.7549 -14.2308C -49.96204317680097 -14.353943143986012 -50.18732362799025 -14.49558329848594 -50.42901558879445 -14.657850610388765 C -50.982751869893846 -15.029644792753274 -51.621672986240114 -15.508933628042344 -52.32322802306267 -16.12023056615789 A 54.75 54.75 0 0 1 -51.9603 -17.2541C -51.03422086888445 -17.344522030982972 -50.23574319237636 -17.363793270282642 -49.56903359760168 -17.345002334136026 C -49.278038302579205 -17.336791201185722 -49.01238123063494 -17.321314277046383 -48.772195470243204 -17.301333396065285 A 0.5625 0.5625 0 0 0 -48.2299 -17.6993A 51.375 51.375 0 0 1 -48.1493 -17.9174A 0.5625 0.5625 0 0 0 -48.3025 -18.5724C -48.49792981590107 -18.713424212400064 -48.709810532931925 -18.87442041361395 -48.93621550809174 -19.05741350543009 C -49.45492571187358 -19.476692061450414 -50.04898701881631 -20.010573269341638 -50.69377025862488 -20.68148160130847 A 54.75 54.75 0 0 1 -50.2321 -21.7789C -49.30160421106876 -21.787059608686565 -48.504547925633 -21.735685895629594 -47.84210802902914 -21.65804462803726 C -47.55297715116045 -21.624147432099736 -47.28972749478003 -21.585252272112832 -47.052247536354834 -21.5441219372479 A 0.5625 0.5625 0 0 0 -46.4769 -21.8926A 51.375 51.375 0 0 1 -46.3773 -22.1028A 0.5625 0.5625 0 0 0 -46.472 -22.7687C -46.65425439826825 -22.92644736375383 -46.85107712725142 -23.10553959812045 -47.060423190865016 -23.307826300795245 C -47.54004770669142 -23.77130780729165 -48.08459986904572 -24.355603043470385 -48.667565008759354 -25.08087200193972 A 54.75 54.75 0 0 1 -48.1107 -26.1332C -47.18313565471594 -26.05908390496504 -46.39373880647491 -25.937467308511152 -45.74075309840199 -25.80158335766193 C -45.455749478824536 -25.742265390254914 -45.19696752349623 -25.680256401783346 -44.96405196969946 -25.618298513671462 A 0.5625 0.5625 0 0 0 -44.3602 -25.9146A 51.375 51.375 0 0 1 -44.2424 -26.1151A 0.5625 0.5625 0 0 0 -44.2779 -26.7868C -44.445446183792995 -26.96003997966003 -44.62567052001207 -27.155826607623247 -44.816319255289784 -27.375823753437814 C -45.25310437102545 -27.879880839210514 -45.74388552978978 -28.5100172012369 -46.26047007677688 -29.28397057325272 A 54.75 54.75 0 0 1 -45.6128 -30.2829C -44.69539508860528 -30.127160537475376 -43.91983577820026 -29.936252872385694 -43.2814147571747 -29.74318971443325 C -43.002768935633874 -29.658915219077976 -42.750480001027654 -29.574277706531426 -42.52395173186636 -29.49197716965268 A 0.5625 0.5625 0 0 0 -41.8963 -29.7337A 51.375 51.375 0 0 1 -41.7612 -29.9231A 0.5625 0.5625 0 0 0 -41.7372 -30.5953C -41.88879209156647 -30.782633728952195 -42.051007535233346 -30.99358245469087 -42.221466857330526 -31.229568267696056 C -42.61199413722968 -31.77025600262302 -43.045163264411016 -32.441301819093745 -43.491324244180205 -33.257882370155265 A 54.75 54.75 0 0 1 -42.7579 -34.1957C -41.85785245566994 -33.959451290866006 -41.10220048624702 -33.70074666846204 -40.48334066236157 -33.45201528438206 C -40.213233420212894 -33.34344382326826 -39.96941200930803 -33.23684018993819 -39.75104391562679 -33.13484111758085 A 0.5625 0.5625 0 0 0 -39.1044 -33.3202A 51.375 51.375 0 0 1 -38.9532 -33.4968A 0.5625 0.5625 0 0 0 -38.8698 -34.1643C -39.004301406300044 -34.36431163267798 -39.1472384016282 -34.58877149639836 -39.29617423523214 -34.83889906764601 C -39.63738727383311 -35.41198583710991 -40.00955423369885 -36.118689264673556 -40.38179983165602 -36.97150614480788 A 54.75 54.75 0 0 1 -39.5683 -37.8408C -38.69271537429509 -37.52596329397985 -37.96288474706583 -37.2014864286966 -37.36842953752353 -36.89903347881197 C -37.108974830161756 -36.7670147708295 -36.87552917608386 -36.639279334685256 -36.66703028429013 -36.51838000788598 A 0.5625 0.5625 0 0 0 -36.0066 -36.6458A 51.375 51.375 0 0 1 -35.8403 -36.8084A 0.5625 0.5625 0 0 0 -35.6983 -37.4659C -35.814549178542975 -37.677042205022325 -35.937089049742816 -37.91325650395687 -36.063335770020906 -38.175568246066476 C -36.35256411266291 -38.776568869076506 -36.6608161941495 -39.51339899522845 -36.95623308378139 -40.395777756056674 A 54.75 54.75 0 0 1 -36.0691 -41.1898C -35.224755333594 -40.79878375473681 -34.526457962757384 -40.411074117987106 -33.96105978556509 -40.05726670671156 C -33.71428819785701 -39.90283397724795 -33.493045329366566 -39.75496644126748 -33.29604742598187 -39.61611306117982 A 0.5625 0.5625 0 0 0 -32.6269 -39.6847A 51.375 51.375 0 0 1 -32.4469 -39.832A 0.5625 0.5625 0 0 0 -32.2474 -40.4743C -32.344499544303325 -40.69489883769056 -32.445683250737034 -40.94101887467892 -32.54825280593146 -41.213461842613064 C -32.78323284868305 -41.8376726744274 -33.02515756130922 -42.59886280439931 -33.24143370491345 -43.503897635744615 A 54.75 54.75 0 0 1 -32.2876 -44.2164C -31.481113822919106 -43.752298415577506 -30.819814832188513 -43.304390360945085 -30.287898694677917 -42.90199751098165 C -30.05574154888263 -42.72635940553259 -29.84843299139775 -42.559517033671156 -29.664477852115695 -42.40379631625868 A 0.5625 0.5625 0 0 0 -28.9919 -42.413A 51.375 51.375 0 0 1 -28.7996 -42.5438A 0.5625 0.5625 0 0 0 -28.544 -43.166C -28.621310346836246 -43.394262710770775 -28.70034598881103 -43.648362262821635 -28.778435633083454 -43.92880422096441 C -28.957328338512376 -44.57133996548778 -29.131032293388195 -45.35093275445289 -29.26647503690301 -46.27154053166843 A 54.75 54.75 0 0 1 -28.2534 -46.897C -27.491089912908237 -46.363392019757676 -26.87196486350844 -45.858791035066204 -26.377693730654116 -45.41096201605025 C -26.161967971207773 -45.21549314092982 -25.970216195270098 -45.03098170096048 -25.80074351847117 -44.85961237197088 A 0.5625 0.5625 0 0 0 -25.13 -44.8093A 51.375 51.375 0 0 1 -24.9269 -44.9226A 0.5625 0.5625 0 0 0 -24.6173 -45.5198C -24.674120589698344 -45.75400764202335 -24.730389606155263 -46.014098035621004 -24.783388182161406 -46.30034414541268 C -24.90479347229598 -46.95617608926203 -25.00891720045802 -47.748070166635735 -25.062466520775363 -48.67704588565862 A 54.75 54.75 0 0 1 -23.9981 -49.2105C -23.285910950531527 -48.61162921957307 -22.713805335414843 -48.054284491691064 -22.26104754898896 -47.56452417288541 C -22.063441522451008 -47.35075433706794 -21.888747245693924 -47.1500178811783 -21.73508338485362 -46.96434113796206 A 0.5625 0.5625 0 0 0 -21.0714 -46.855A 51.375 51.375 0 0 1 -20.8591 -46.9499A 0.5625 0.5625 0 0 0 -20.498 -47.5173C -20.53382238453697 -47.75566542790075 -20.5668843941299 -48.01971110307172 -20.594377116154384 -48.30952110059636 C -20.657344829991935 -48.973516469601265 -20.69107342209115 -49.771514190538426 -20.6623102231747 -50.70158735681549 A 54.75 54.75 0 0 1 -19.555 -51.1389C -18.89848816276202 -50.47941451066245 -18.3778794840562 -49.873688017761495 -17.970178487609225 -49.345829437702385 C -17.792238729061488 -49.11543167999297 -17.63596917105987 -48.900041243118935 -17.49931675423443 -48.70151025794155 A 0.5625 0.5625 0 0 0 -16.8479 -48.5339A 51.375 51.375 0 0 1 -16.628 -48.6097A 0.5625 0.5625 0 0 0 -16.2182 -49.143C -16.232819178431246 -49.3835703822806 -16.242415426107996 -49.6495048236103 -16.24418712632497 -49.94061055269835 C -16.248224456129936 -50.607572682818144 -16.21129394020224 -51.40542863318715 -16.10044333308209 -52.329320163152445 A 54.75 54.75 0 0 1 -14.9588 -52.667C -14.363159081601642 -51.952129940686156 -13.898121808084895 -51.30276231384754 -13.538668414695465 -50.740936681621044 C -13.381787544008219 -50.49571417685861 -13.245165725931521 -50.26735548120585 -13.126594243562803 -50.05752402820458 A 0.5625 0.5625 0 0 0 -12.4925 -49.833A 51.375 51.375 0 0 1 -12.2668 -49.889A 0.5625 0.5625 0 0 0 -11.8114 -50.3841C -11.804772152984627 -50.624981941699744 -11.790827535096051 -50.89072385161754 -11.76686434754916 -51.18084701524316 C -11.711939695741801 -51.84555602350897 -11.60463910314657 -52.63702589872509 -11.41256864412025 -53.547505088498234 A 54.75 54.75 0 0 1 -10.2455 -53.783C -9.715418806336908 -53.01824951462289 -9.309592485195338 -52.330322935971786 -9.001199905031651 -51.738927298901416 C -8.866605727724968 -51.480799245670696 -8.750700900538353 -51.241259507652856 -8.651138335241045 -51.021769802447444 A 0.5625 0.5625 0 0 0 -8.0394 -50.7421A 51.375 51.375 0 0 1 -7.80964 -50.7779A 0.5625 0.5625 0 0 0 -7.31226 -51.2308C -7.284336779939232 -51.47018437753775 -7.246960432027119 -51.733653965292326 -7.197449901149405 -52.020523956336625 C -7.083993127599712 -52.67777759351301 -6.907162230957521 -53.456667068688155 -6.635375131785666 -54.346608184135846 A 54.75 54.75 0 0 1 -5.45209 -54.478C -4.991642206260879 -53.66942940130824 -4.648202978697082 -52.94832782904793 -4.393284801833035 -52.33199065983761 C -4.282030699833869 -52.06297726013806 -4.187749975959645 -51.81413120298512 -4.107975539799114 -51.58670105011395 A 0.5625 0.5625 0 0 0 -3.52335 -51.254A 51.375 51.375 0 0 1 -3.29132 -51.2695A 0.5625 0.5625 0 0 0 -2.75586 -51.6766C -2.70689159512203 -51.91256283476635 -2.646376037785517 -52.17169809360826 -2.5717056506099585 -52.4530697654386 C -2.400604708401336 -53.097724130677214 -2.1556274492346046 -53.85793733961078 -1.8062508124708008 -54.72037538487788 A 54.75 54.75 0 0 1 -0.615982 -54.7467C -0.22879923800226798 -53.90057323522658 0.049565018375953285 -53.151940266865644 0.24901371157556285 -52.51548523952526 C 0.3360570240751819 -52.23769188795139 0.40797577014216957 -51.981487069458524 0.46733773404079026 -51.747896418229 A 0.5625 0.5625 0 0 0 1.02028 -51.3649A 51.375 51.375 0 0 1 1.25276 -51.3597A 0.5625 0.5625 0 0 0 1.8221 -51.7179C 1.8917386865662698 -51.94865510215886 1.9749198370409984 -52.2014279473391 2.074165683492901 -52.475099185125586 C 2.3015716975004383 -53.10210898396376 2.6127780399862877 -53.83769622756067 3.0370098684570115 -54.665881455606254 A 54.75 54.75 0 0 1 4.22495 -54.5869C 4.535834394511182 -53.709872002481106 4.746945101977461 -52.93956670603106 4.8893633550658135 -52.28797494408717 C 4.951514646127891 -52.00357575026119 5.000508552688629 -51.74201732050843 5.038993456471906 -51.504094334480335 A 0.5625 0.5625 0 0 0 5.55592 -51.0737A 51.375 51.375 0 0 1 5.78704 -51.048A 0.5625 0.5625 0 0 0 6.3858 -51.3545C 6.47556354811808 -51.57817870878722 6.580759286447389 -51.822610850070156 6.703803858864656 -52.086439805319955 C 6.98573518428303 -52.69089783595047 7.360734998508892 -53.39610214668352 7.856501829433982 -54.1835528852031 A 54.75 54.75 0 0 1 9.03281 -53.9999C 9.264968972976018 -53.098818198780336 9.407173904009955 -52.312869257604426 9.491447101058828 -51.651240350055005 C 9.52821995256297 -51.36246112327128 9.553905575870226 -51.09759613160547 9.571212222986295 -50.85720288073237 A 0.5625 0.5625 0 0 0 10.0481 -50.3828A 51.375 51.375 0 0 1 10.276 -50.3368A 0.5625 0.5625 0 0 0 10.8995 -50.5892C 11.008708345012362 -50.804033134740024 11.135095371914169 -51.038211559206786 11.280975679687641 -51.290133412632535 C 11.615225821638836 -51.86730897141122 12.051084225614852 -52.53661116939759 12.614506011356806 -53.277164548697066 A 54.75 54.75 0 0 1 13.77 -52.9903C 13.921592607318159 -52.07219414863559 13.993778815525841 -51.27675267882748 14.019247404506507 -50.610264768943715 C 14.030354019031215 -50.31936559819319 14.032530334256755 -50.05326697229134 14.028523276726714 -49.81228485969854 A 0.5625 0.5625 0 0 0 14.4616 -49.2976A 51.375 51.375 0 0 1 14.6846 -49.2316A 0.5625 0.5625 0 0 0 15.328 -49.4279C 15.455695072948453 -49.63227711875956 15.602284238575388 -49.85436906272784 15.769858570504903 -50.09241218425822 C 16.15381156843506 -50.637788089874086 16.647117379191453 -51.26594997794107 17.27378458036135 -51.95381016374806 A 54.75 54.75 0 0 1 18.3994 -51.5659C 18.469260903915117 -50.638034577187604 18.47086343434364 -49.83932598674793 18.437328089015736 -49.173195246082386 C 18.422681542243453 -48.882452811791836 18.40133151676988 -48.617203134191485 18.376042115251867 -48.377518171645654 A 0.5625 0.5625 0 0 0 18.7619 -47.8266A 51.375 51.375 0 0 1 18.9782 -47.7412A 0.5625 0.5625 0 0 0 19.6364 -47.8798C 19.781720031332853 -48.07208124039639 19.94736407671095 -48.28034853328127 20.135320936443485 -48.5026499127395 C 20.565971837561083 -49.01195785928312 21.112864268279946 -49.594063218963235 21.79787236436184 -50.22384677268849 A 54.75 54.75 0 0 1 22.8848 -49.738C 22.872382192389505 -48.80756372758835 22.80338850306548 -48.011838994166446 22.711111682975094 -47.35127879893827 C 22.670826603992833 -47.06296855485918 22.62611733071691 -46.80064376392635 22.579743509066446 -46.56413181123629 A 0.5625 0.5625 0 0 0 22.9154 -45.9812A 51.375 51.375 0 0 1 23.1233 -45.877A 0.5625 0.5625 0 0 0 23.7912 -45.957C 23.952926209424824 -46.13565614779046 24.1363287453105 -46.328468815645856 24.34319711557732 -46.53328864333034 C 24.81717549268304 -47.002542605574774 25.413374368589842 -47.53403567318091 26.151362242463584 -48.100813684624406 A 54.75 54.75 0 0 1 27.1911 -47.5208C 27.096496078686563 -46.595107516080034 26.957446138774053 -45.80859426459838 26.807150035151928 -45.15877439395584 C 26.74154170932325 -44.87515275865362 26.673823098927443 -44.61780590155046 26.606727795174894 -44.38631798542072 A 0.5625 0.5625 0 0 0 26.8896 -43.776A 51.375 51.375 0 0 1 27.0874 -43.6539A 0.5625 0.5625 0 0 0 27.7598 -43.6744C 27.936668263350366 -43.83815699279361 28.136393916233967 -44.01400601506849 28.36055477155523 -44.19974129812259 C 28.87415110120459 -44.62526872757525 29.51499035773904 -45.101989849228445 30.300182253690632 -45.60132651198463 A 54.75 54.75 0 0 1 31.2846 -44.9317C 31.108543144380665 -44.01798141227674 30.900525208190352 -43.24683517532228 30.693386091826326 -42.61284135081149 C 30.602967993255906 -42.3361280481308 30.512770035682838 -42.085773212937916 30.42547836155124 -41.86112104017513 A 0.5625 0.5625 0 0 0 30.6533 -41.2282A 51.375 51.375 0 0 1 30.8396 -41.0891A 0.5625 0.5625 0 0 0 31.5111 -41.0501C 31.70176801018044 -41.19756482135816 31.916253656030104 -41.3550739410283 32.1559526337844 -41.52027104903293 C 32.70514732833825 -41.89874161660693 33.385611529436 -42.31695980316787 34.211862256277094 -42.74494713082499 A 54.75 54.75 0 0 1 35.1332 -41.9909C 34.87712368144833 -41.096354922137444 34.60176577137205 -40.346610964573046 34.33940478670127 -39.73340504747141 C 34.2248845596038 -39.46576573418748 34.112913176166394 -39.22436228693387 34.00610830736025 -39.008304065384586 A 0.5625 0.5625 0 0 0 34.1771 -38.3578A 51.375 51.375 0 0 1 34.3504 -38.2027A 0.5625 0.5625 0 0 0 35.0158 -38.1045C 35.21875843948521 -38.23454584747276 35.44632543731177 -38.37248234211799 35.69968656800229 -38.515848383720495 C 36.28018143435006 -38.84430004407521 36.99494502503005 -39.20074217119287 37.855788050550984 -39.55403058262536 A 54.75 54.75 0 0 1 38.7069 -38.7215C 38.37274343755668 -37.85309373423506 38.03220060258483 -37.13061981906908 37.7166710800345 -36.54300097709323 C 37.5789450004593 -36.28653029371131 37.44607651904936 -36.05596754367863 37.32059434847848 -35.85019422186903 A 0.5625 0.5625 0 0 0 37.4334 -35.1871A 51.375 51.375 0 0 1 37.5923 -35.0173A 0.5625 0.5625 0 0 0 38.2465 -34.8607C 38.46011433264351 -34.97228971201765 38.69898166214225 -35.08957404154617 38.96402205140162 -35.209986983088136 C 39.57127393015011 -35.48584915665007 40.314742916202974 -35.77772558139767 41.20344097655494 -36.05355011577993 A 54.75 54.75 0 0 1 41.9776 -35.1491C 41.56804444857775 -34.31358076474093 41.16498189811904 -33.6240312299259 40.79875328401386 -33.06659837723736 C 40.63889924526949 -32.82330355459071 40.48617354190381 -32.60538596790651 40.342996137687926 -32.41150800107753 A 0.5625 0.5625 0 0 0 40.3968 -31.741A 51.375 51.375 0 0 1 40.54 -31.5578A 0.5625 0.5625 0 0 0 41.1778 -31.3441C 41.400467684998596 -31.436327992383177 41.64876588544788 -31.53204224789644 41.923411232875104 -31.628559694848416 C 42.55266755473058 -31.84967338608168 43.31902328330795 -32.074699779694875 44.228621111227326 -32.270901736068645 A 54.75 54.75 0 0 1 44.9199 -31.3016C 44.43801915175103 -30.505517501690473 43.97559139675517 -29.854289007262135 43.561529926551636 -29.331404811728586 C 43.38079900322942 -29.10318996167573 43.20941136360998 -28.89962303891938 43.049659283064166 -28.719157785030934 A 0.5625 0.5625 0 0 0 43.044 -28.0465A 51.375 51.375 0 0 1 43.1705 -27.8514A 0.5625 0.5625 0 0 0 43.7869 -27.5821C 44.01680624488988 -27.654334383259524 44.27259204621606 -27.727729470933966 44.554692879589595 -27.79959604341035 C 45.20102886065629 -27.964230737884026 45.984273559118535 -28.120645963730745 46.907652318323535 -28.23568979576694 A 54.75 54.75 0 0 1 47.5105 -27.2091C 46.96020610376867 -26.45870720328002 46.442032268401256 -25.850896495175487 45.98337853450897 -25.366653234579584 C 45.78318519112794 -25.15530444774732 45.59447695591072 -24.967681376095626 45.41940047566514 -24.80204122044322 A 0.5625 0.5625 0 0 0 45.3543 -24.1326A 51.375 51.375 0 0 1 45.463 -23.927A 0.5625 0.5625 0 0 0 46.0532 -23.6043C 46.28865361572332 -23.655908112454508 46.5499251472238 -23.70640961621633 46.83727364503606 -23.7530628608472 C 47.49563082992741 -23.85993006885706 48.289634546546665 -23.946509965719446 49.21956754628332 -23.9794952994502 A 54.75 54.75 0 0 1 49.7293 -22.9036C 49.11486577202372 -22.20482164696278 48.54500126911255 -21.645185668073196 48.04534485886495 -21.203373202490376 C 47.827255879769226 -21.010544569692936 47.62270394675488 -20.84033375407034 47.433673277644914 -20.69081505545517 A 0.5625 0.5625 0 0 0 47.3096 -20.0297A 51.375 51.375 0 0 1 47.3998 -19.8154A 0.5625 0.5625 0 0 0 47.9592 -19.4418C 48.1982295115376 -19.472342286803944 48.462941969233356 -19.49955496391374 48.753289239887465 -19.520629755805057 C 49.41851509099803 -19.56889309655251 50.217063670141734 -19.58496005934825 51.14627292383734 -19.535628739813955 A 54.75 54.75 0 0 1 51.559 -18.4189C 50.8851350232165 -17.77715325484822 50.26803981514769 -17.27007191549089 49.73129121741417 -16.87414802649582 C 49.497013444561134 -16.70134869323157 49.27821870996727 -16.549882264050666 49.07671327327595 -16.41765520901435 A 0.5625 0.5625 0 0 0 48.8947 -15.7701A 51.375 51.375 0 0 1 48.9656 -15.5486A 0.5625 0.5625 0 0 0 49.4897 -15.127C 49.73058891184929 -15.136378981181707 49.99667056184845 -15.140089855544787 50.28774424428415 -15.135421255875734 C 50.954632467382446 -15.124703003281581 51.751476183706615 -15.070131286242406 52.672689369082526 -14.93886939790429 A 54.75 54.75 0 0 1 52.9851 -13.79C 52.25715910023666 -13.21035453535927 51.597662793701964 -12.759796434540963 51.02802279401043 -12.412859763378474 C 50.7793897686182 -12.2614421187202 50.54806459789588 -12.129905506155112 50.33566144687649 -12.016004950683367 A 0.5625 0.5625 0 0 0 50.0972 -11.3871A 51.375 51.375 0 0 1 50.1482 -11.1602A 0.5625 0.5625 0 0 0 50.633 -10.6939C 50.8737390267013 -10.68195298737061 51.139107419325775 -10.66213301636369 51.42862946732572 -10.631757563256603 C 52.09196075786555 -10.562141602179732 52.8808632288893 -10.437358302982542 53.78687060374297 -10.225193148088298 A 54.75 54.75 0 0 1 53.9965 -9.05323C 53.22020005442255 -8.540166880370478 52.52346410219873 -8.149658246119348 51.925390905893224 -7.8544240426354115 C 51.66434851849463 -7.725573134952196 51.42230334474699 -7.614995791340169 51.2006648220431 -7.520313161711648 A 0.5625 0.5625 0 0 0 50.9075 -6.91491A 51.375 51.375 0 0 1 50.9383 -6.68442A 0.5625 0.5625 0 0 0 51.38 -6.17714C 51.6187331565047 -6.143926228306157 51.88131142428245 -6.100730530075277 52.16701593527255 -6.044885952635279 C 52.82159882652762 -5.916917122359926 53.596385820781684 -5.722898839508389 54.480096648994675 -5.431490898059213 A 54.75 54.75 0 0 1 54.5853 -4.24559C 53.76672078456847 -3.803140840356536 53.03819809015121 -3.4757379322067696 52.416372430890426 -3.234516804336976 C 52.14496369210119 -3.129241066683959 51.89409284698981 -3.040488409665064 51.66495357455018 -2.965764725832061 A 0.5625 0.5625 0 0 0 51.3194 -2.38864A 51.375 51.375 0 0 1 51.3297 -2.15633A 0.5625 0.5625 0 0 0 51.7249 -1.612" stroke="#191919" stroke-width="0.35 px" style="stroke-width:0.35;stroke-miterlimit:4;stroke-dasharray:none;fill:none;fill-rule: evenodd "/>
<title>b'InvoluteGear'</title>
</g>
</svg>