<?xml version="1.0"?>
<!DOCTYPE svg PUBLIC "-//W3C//DTD SVG 1.1//EN" "http://www.w3.org/Graphics/SVG/1.1/DTD/svg11.dtd">
<svg width="182.0497103522328mm" height="182.06579681186167mm" viewBox="0 0 182.0497103522328 182.06579681186167" xmlns="http://www.w3.org/2000/svg" version="1.1">
<g id="InvoluteGear" transform="translate(91.016945,91.032898) scale(1,-1)">
<path id="InvoluteGear_w0000"  d="M 86.2340715400828 -1.6575299755609576 C 86.4779163190871 -1.587831352459485 86.73266559634278 -1.51104918237909 86.99800446480064 -1.4264953745535314 C 87.68019100585457 -1.2091024505074606 88.43212895736171 -0.9404473047223287 89.24796381170513 -0.6090580607967497 A 89.25 89.25 0 0 1 89.248 0.609058C 88.43212895736171 0.9404473047223287 87.68019100585457 1.2091024505074606 86.99800446480064 1.4264953745535314 C 86.73266559634278 1.51104918237909 86.4779163190871 1.587831352459485 86.234072524624 1.6575295819774107 A 0.5625 0.5625 0 0 0 85.8466 2.20901A 85.875 85.875 0 0 1 85.8414 2.40213A 0.5625 0.5625 0 0 0 86.1987 2.97361C 86.43847664490679 3.0563008037145734 86.68873725999441 3.146646364980823 86.94915504469638 3.2453207737361636 C 87.61868920606788 3.499017772096387 88.35512263891205 3.8076471116980333 89.15199350398085 4.182349880510334 A 89.25 89.25 0 0 1 89.0866 5.39871C 88.25416255545029 5.685830168107968 87.48888811704983 5.913736517744068 86.79601611671013 6.094198567399082 C 86.52652120514287 6.164387983778308 86.26801777383284 6.227385379799775 86.0207843457048 6.2838944172376 A 0.5625 0.5625 0 0 0 85.6043 6.81378A 85.875 85.875 0 0 1 85.5887 7.00634A 0.5625 0.5625 0 0 0 85.9148 7.59618C 86.14981246608241 7.6916208534816874 86.39486285286328 7.7952693162927496 86.64960870192127 7.907779822113418 C 87.30456004329965 8.197049420666543 88.02336562925215 8.544763095803226 88.79897492005503 8.961699024419815 A 89.25 89.25 0 0 1 88.6684 10.1728C 87.82173655638498 10.414819311218338 87.045332115405 10.601319751700897 86.3437723851215 10.744330608159178 C 86.0708984540395 10.799953258834595 85.80938620098681 10.84898424299616 85.55947597716884 10.892141158170359 A 0.5625 0.5625 0 0 0 85.1151 11.3989A 85.875 85.875 0 0 1 85.0892 11.5904A 0.5625 0.5625 0 0 0 85.3832 12.1969C 85.61275607616851 12.304763969185121 85.85188969094092 12.421416488191058 86.1002291061256 12.547438694162985 C 86.73870923324527 12.871446853772667 87.43781446972339 13.25724231590573 88.18992590389163 13.715209270111485 A 89.25 89.25 0 0 1 87.9945 14.9176C 87.13609775626391 15.113779834152313 86.35080188769696 15.258336636431732 85.64257720578598 15.363483962372648 C 85.36711102137191 15.404379472843226 85.10334395410023 15.439302676124814 84.85147749046232 15.468983036476839 A 0.5625 0.5625 0 0 0 84.3805 15.9512A 85.875 85.875 0 0 1 84.3444 16.1409A 0.5625 0.5625 0 0 0 84.6055 16.7624C 84.82885594776589 16.882429265010025 85.06138330641352 17.0117495008005 85.30260026090286 17.150920052280288 C 85.92276827027291 17.508732573545824 86.60015745590131 17.931497474486406 87.32660250146984 18.42917501699766 A 89.25 89.25 0 0 1 87.0669 19.6193C 86.19922302924037 19.7691634172943 85.40729994436637 19.871359786687943 84.69445230592524 19.938340415151128 C 84.41718810849915 19.964390873073494 84.15192673574528 19.98510560283942 83.89883022850316 20.001223832206964 A 0.5625 0.5625 0 0 0 83.4027 20.4574A 85.875 85.875 0 0 1 83.3565 20.645A 0.5625 0.5625 0 0 0 83.5838 21.2795C 83.80037226787434 21.41141814688047 84.02562293382745 21.553033235738354 84.25902193669741 21.70495086799876 C 84.85908972340287 22.0955360847938 85.51280976980246 22.554051483890614 86.21149389764884 23.090004681517666 A 89.25 89.25 0 0 1 85.8883 24.2645C 85.01381362768271 24.36754738462697 84.21754664576186 24.42708866254612 83.50213137506829 24.455709471040336 C 83.22386858908722 24.466839766200565 82.95787772805747 24.473286296522453 82.70428091996106 24.4757959218777 A 0.5625 0.5625 0 0 0 82.1844 24.9047A 85.875 85.875 0 0 1 82.1281 25.0895A 0.5625 0.5625 0 0 0 82.321 25.7353C 82.53027042118829 25.878672367422887 82.74759493846592 26.032173996386856 82.97250303997082 26.196400691566897 C 83.55074045324204 26.618632445599957 84.17890651628943 27.11157632426073 84.8478152392035 27.684259885191704 A 89.25 89.25 0 0 1 84.4621 28.8397C 83.58328739376458 28.895673404780936 82.78497235863676 28.9123879183078 82.06905218311694 28.902566385633033 C 81.79059311222723 28.898744426508866 81.52463968343143 28.890904170370973 81.27127375972756 28.87979795581435 A 0.5625 0.5625 0 0 0 80.7291 29.2802A 85.875 85.875 0 0 1 80.663 29.4617A 0.5625 0.5625 0 0 0 80.821 30.117C 81.0222124401252 30.271311676273694 81.23098420588488 30.436257260410216 81.44675293774574 30.61231951043404 C 82.00149276943094 31.064980398254384 82.60229368375194 31.59093147166772 83.239498364724 32.198694200944864 A 89.25 89.25 0 0 1 82.7923 33.3318C 81.91176890494118 33.34048571823635 81.11370756551383 33.31432527510152 80.39934666836527 33.26608971927899 C 80.1214941821535 33.24732652556798 79.8563449981747 33.22522208845837 79.60394047841065 33.20053205608153 A 0.5625 0.5625 0 0 0 79.041 33.5712A 85.875 85.875 0 0 1 78.9653 33.749A 0.5625 0.5625 0 0 0 79.0879 34.4117C 79.28054644623805 34.576670957175395 79.48016351743395 34.752584915665665 79.68617076254041 34.939975087488925 C 80.21581355409839 35.421759970575856 80.78751705512664 35.97920178564324 81.39118046810718 36.62029134598548 A 89.25 89.25 0 0 1 80.8838 37.7277C 80.00407758172463 37.68916878045734 79.20857095543482 37.62020880799056 78.49782902405182 37.533698304614525 C 78.22138424316388 37.5000479754614 77.95780379773913 37.46374309019447 77.70708842948576 37.42554042775231 A 0.5625 0.5625 0 0 0 77.1251 37.7655A 85.875 85.875 0 0 1 77.04 37.9389A 0.5625 0.5625 0 0 0 77.1268 38.6073C 77.31029411345524 38.7823367447854 77.50018094239593 38.968711872147935 77.69583272853087 39.16688967139524 C 78.19885138268403 39.676409439210346 78.73980910122822 40.26373474687303 79.30819072832622 40.93630271111793 A 89.25 89.25 0 0 1 78.7421 42.0149C 77.86571379204707 41.929184212424445 77.07505553043258 41.81762354007813 76.36998181779431 41.693087521324955 C 76.09574180409723 41.64464707933978 75.8344900678842 41.59424642229807 75.58618672845131 41.542641277955994 A 0.5625 0.5625 0 0 0 74.9868 41.8509A 85.875 85.875 0 0 1 74.8925 42.0195A 0.5625 0.5625 0 0 0 74.9433 42.6915C 75.11713618929483 42.87618301591011 75.29674528309612 43.072481944405475 75.4814774955114 43.28087597317897 C 75.95642167926252 43.81666154833139 76.46507389418142 44.432176937685455 76.99653494402804 45.13428411828329 A 89.25 89.25 0 0 1 76.3734 46.1809C 75.50284299227607 46.04830695202725 74.7193127677842 45.894467238099686 74.02194018392782 45.73226477355028 C 73.75069564237405 45.669173885067146 73.49252587175897 45.604822774392225 73.24735048395284 45.539963939140485 A 0.5625 0.5625 0 0 0 72.6323 45.8156A 85.875 85.875 0 0 1 72.529 45.9789A 0.5625 0.5625 0 0 0 72.5437 46.6527C 72.70739611579869 46.846406151968864 72.87620961494743 47.052062900969965 73.04948962285275 47.27007230533738 C 73.49498994917045 47.83057887931421 73.96987008445277 48.47250966015264 74.46287821726108 49.202131700346044 A 89.25 89.25 0 0 1 73.7844 50.2138C 72.92227795060776 50.0346605020831 72.14813488370953 49.83898530629428 71.46047413432436 49.63958406764357 C 71.19300713314477 49.56202464002644 70.93866369840914 49.48390861662905 70.6973231663418 49.4059830952798 A 0.5625 0.5625 0 0 0 70.0683 49.6482A 85.875 85.875 0 0 1 69.9565 49.8057A 0.5625 0.5625 0 0 0 69.935 50.4794C 70.08802179741228 50.68155897188191 70.24555296888941 50.89598057974267 70.40688116116465 51.122976782154744 C 70.82165313728072 51.70658826940391 71.26139199056341 52.373083589107814 71.71452573626065 53.128116799676405 A 89.25 89.25 0 0 1 70.9828 54.1019C 70.13145910409263 53.87675117335301 69.36893524965365 53.63980467794717 68.69296903869608 53.40377959058552 C 68.4300507544947 53.311975247742154 68.18026699360315 53.22031954033977 67.9434571645048 53.12955201234377 A 0.5625 0.5625 0 0 0 67.3024 53.3377A 85.875 85.875 0 0 1 67.1822 53.4889A 0.5625 0.5625 0 0 0 67.1246 54.1605C 67.26656556837744 54.37058373725688 67.41236020903521 54.593151970974134 67.56127143473876 54.82848048261642 C 67.94411916567333 55.433514180139674 68.34744885600644 56.12265236016557 68.75940171270022 56.90091978490653 A 89.25 89.25 0 0 1 67.9764 57.8341C 67.1384331059292 57.56350122382309 66.38972701761767 57.28596660688523 65.72740433066241 57.01399819223973 C 65.4697928249147 56.90821362985609 65.22528892911188 56.80328250558024 64.99369258702318 56.69993467721785 A 0.5625 0.5625 0 0 0 64.3424 56.8733A 85.875 85.875 0 0 1 64.2143 57.0179A 0.5625 0.5625 0 0 0 64.1207 57.6854C 64.25116241739768 57.90284403471101 64.38480016354497 58.13291717245034 64.5208650730642 58.375899480303865 C 64.87068470970053 59.00061091932514 65.23644233317616 59.71040499590162 65.60602653413774 60.509662688358 A 89.25 89.25 0 0 1 64.7741 61.3994C 63.95182962487995 61.08428079870253 63.21910001616731 60.766958264379156 62.57233050097748 60.45983067779415 C 62.32076853434285 60.34037090014822 62.08224947165549 60.222466902593894 61.856534368784395 60.1068367524081 A 0.5625 0.5625 0 0 0 61.1968 60.245A 85.875 85.875 0 0 1 61.0612 60.3825A 0.5625 0.5625 0 0 0 60.9319 61.044C 61.050506532359876 61.26815544340444 61.17160207177951 61.50507012475031 61.29442835475691 61.75500564792029 C 61.61021127652419 62.397593623640766 61.93734225922956 63.12599707669945 62.26349219753266 63.94394057003869 A 89.25 89.25 0 0 1 61.385 64.7878C 60.58083646370229 64.42893857904669 59.86619598373343 64.07274305035007 59.23684444425164 63.73134182016435 C 58.992057335002166 63.59855126071984 58.76021081763383 63.468014337633974 58.5410277490532 63.34043525728115 A 0.5625 0.5625 0 0 0 57.8749 63.443A 85.875 85.875 0 0 1 57.732 63.573A 0.5625 0.5625 0 0 0 57.5674 64.2266C 57.673826232739856 64.45681489936197 57.782030415643476 64.69988803795756 57.89126393210899 64.95605614762947 C 58.17209965509648 65.6146679125673 58.4596607937235 66.35958056638995 58.74143609466499 67.19385151777833 A 89.25 89.25 0 0 1 57.8189 67.9893C 57.03517306833464 67.58783105063756 56.340682210613515 67.19378953148588 55.73056323024942 66.81909900582518 C 55.49325676298953 66.67336053414068 55.26875126446831 66.53056705726488 55.05673219170514 66.39140689026028 A 0.5625 0.5625 0 0 0 54.386 66.4581A 85.875 85.875 0 0 1 54.2364 66.5802A 0.5625 0.5625 0 0 0 54.0369 67.2241C 54.13085736196847 67.45962867191835 54.22585820768575 67.70815942498031 54.32118400913395 67.96982152217929 C 54.566262811251846 68.64255812812019 54.8134249925964 69.40183220668904 55.05001322504002 70.25002519700452 A 89.25 89.25 0 0 1 54.0861 70.9948C 53.32506250421785 70.5518503087316 52.6527236656713 70.12109892283078 52.06359637538784 69.71419943147735 C 51.83445476609458 69.55593324929431 51.617937593890815 69.40129492918757 51.413693822817635 69.25095491031733 A 0.5625 0.5625 0 0 0 50.7404 69.2815A 85.875 85.875 0 0 1 50.5844 69.3955A 0.5625 0.5625 0 0 0 50.3507 70.0277C 50.43181521647456 70.26793887162374 50.51333881297428 70.52121066065342 50.59448205044242 70.7876123058163 C 50.80309730606026 71.47253407897284 51.009147897570244 72.24398039856482 51.19986691639584 73.10364986784316 A 89.25 89.25 0 0 1 50.1974 73.7956C 49.46120198055094 73.31245031850699 48.812953688100016 72.84623103361193 48.24651669438346 72.40829577313413 C 48.0262006176347 72.2379582028264 47.81829604680604 72.0719209017971 47.62241646508778 71.91083450025438 A 0.5625 0.5625 0 0 0 46.9484 71.9052A 85.875 85.875 0 0 1 46.7866 72.0106A 0.5625 0.5625 0 0 0 46.5192 72.6294C 46.587365092341 72.87364841318028 46.655176385990316 73.130930990045 46.721903102519086 73.40130407826493 C 46.89345331985032 74.09643621185828 47.05779822432974 74.87783049302831 47.20209813723427 75.7464977916455 A 89.25 89.25 0 0 1 46.1639 76.3837C 45.45473200746786 75.86167155549427 44.832443328752845 75.36132860249432 44.2903298160906 74.89362025361714 C 44.07947450016921 74.71170242249552 43.88078197341396 74.53474486906488 43.69383135259241 74.36337653864605 A 0.5625 0.5625 0 0 0 43.0211 74.3216A 85.875 85.875 0 0 1 42.8538 74.4182A 0.5625 0.5625 0 0 0 42.5537 75.0217C 42.608591534495055 75.26924436143518 42.66249500777991 75.52979591386267 42.71461281297191 75.80336088953439 C 42.84860336833049 76.5066991376733 42.970768736875456 77.29578841842795 43.06823348985489 78.17094895368862 A 89.25 89.25 0 0 1 41.9973 78.7515C 41.317204275062736 78.19216395494595 40.7226694294373 77.65913995209924 40.20644245142422 77.16300703906899 C 40.00565584679049 76.97003346333398 39.81674824609916 76.78266587193782 39.63926561321037 76.6015097119019 A 0.5625 0.5625 0 0 0 38.9698 76.5237A 85.875 85.875 0 0 1 38.7975 76.6111A 0.5625 0.5625 0 0 0 38.4654 77.1976C 38.50696637709595 77.44781959311757 38.546806612348796 77.71088888353276 38.58416523707982 77.98685698801314 C 38.68020980100828 78.69637344445388 38.759843399236146 79.49088257612378 38.810191976176746 80.37001303365054 A 89.25 89.25 0 0 1 37.7097 80.8922C 37.06054834687704 80.29720810397582 36.49548153220939 79.73303989746739 36.00662950485965 79.20991289990708 C 35.8164905312727 79.00643997233291 35.63791252616092 78.80920257224145 35.47040960958075 78.618780902694 A 0.5625 0.5625 0 0 0 34.8061 78.5051A 85.875 85.875 0 0 1 34.6294 78.5832A 0.5625 0.5625 0 0 0 34.2662 79.151C 34.29431566726717 79.40309271186304 34.31997779477628 79.66792124340044 34.34246952446014 79.94549678920397 C 34.40029117561744 80.65914573432886 34.43716339924963 81.4567839414115 34.440250632170255 82.33734956051323 A 89.25 89.25 0 0 1 33.3133 82.7997C 32.69703726387952 82.17073461536587 32.16306771407615 81.57704884818227 31.703000124334565 81.02843607664867 C 31.52405700167685 80.81505046235894 31.35632347876215 80.60851194005578 31.199283232760862 80.40937379596491 A 0.5625 0.5625 0 0 0 30.542 80.2602A 85.875 85.875 0 0 1 30.3614 80.3287A 0.5625 0.5625 0 0 0 29.9683 80.8762C 29.98278556754133 81.1294261591053 29.99419559674988 81.39525036255188 30.001755581907428 81.67363302752352 C 30.021187605504895 82.38935682668024 30.015192142375493 83.18782431173862 29.971009129984445 84.06728619378194 A 89.25 89.25 0 0 1 28.8209 84.4685C 28.239252158112105 83.80734162718069 27.737919445614704 83.18585004907716 27.30796278744099 82.61333329621093 C 27.140731455058447 82.39065024117113 26.98432603350886 82.17540610068306 26.838201245768953 81.96812564886943 A 0.5625 0.5625 0 0 0 26.1899 81.7839A 85.875 85.875 0 0 1 26.0058 81.8426A 0.5625 0.5625 0 0 0 25.5839 82.3682C 25.584807335329106 82.62184246861706 25.581932368169156 82.88789590397991 25.574538811406114 83.16628303883118 C 25.55552517988932 83.8820180750261 25.50667931647058 84.67901264960015 25.415353449830313 85.55483507831131 A 89.25 89.25 0 0 1 24.2453 85.8937C 23.700045978029173 85.20231037773398 23.23279557482874 84.55480490981681 22.834189524572025 83.96003488962484 C 22.67915215368737 83.728696446729 22.534525790822162 83.5053672926337 22.399737776934266 83.2905421762989 A 0.5625 0.5625 0 0 0 21.7622 83.0718A 85.875 85.875 0 0 1 21.5753 83.1205A 0.5625 0.5625 0 0 0 21.1258 83.6227C 21.113061480386122 83.87603861783363 21.09590980613224 84.1415541841849 21.07358402498674 84.41914312673944 C 21.016179559577438 85.13282575057967 20.924624131138415 85.92604947299155 20.786418726364133 86.79570722558293 A 89.25 89.25 0 0 1 19.5999 87.0713C 19.092506430119982 86.35161881099994 18.660685540086853 85.67996637915398 18.29457938217786 85.06465796757362 C 18.15218298566615 84.82533114543959 18.01975267672914 84.59456089350188 17.896690065430093 84.37281050906849 A 0.5625 0.5625 0 0 0 17.2718 84.1201A 85.875 85.875 0 0 1 17.0826 84.1588A 0.5625 0.5625 0 0 0 16.6067 84.6362C 16.580441203620737 84.88839843458092 16.549062274989883 85.15261058180833 16.511868640468478 85.42860097128484 C 16.416238853100836 86.1381734510136 16.282237837642832 86.92533925192839 16.097551376693968 87.78632487996947 A 89.25 89.25 0 0 1 14.8979 87.9978C 14.429918243662865 87.25195317324201 14.034771918209222 86.55809032530009 13.702221231475736 85.92401761576788 C 13.57287637501051 85.67739245557881 13.453023950864816 85.43984647617492 13.342041563520432 85.21181018740614 A 0.5625 0.5625 0 0 0 12.7316 84.926A 85.875 85.875 0 0 1 12.5406 84.9544A 0.5625 0.5625 0 0 0 12.0398 85.4055C 12.000015222658028 85.6560030234359 11.954499513224556 85.91814995952197 11.902545264203956 86.19174604418147 C 11.7689658803108 86.89516249865146 11.592905637450453 87.67400077529017 11.362270619204025 88.52383183433048 A 89.25 89.25 0 0 1 10.153 88.6707C 9.725724867411547 87.90071756742275 9.36839241568588 87.18664488959696 9.07035602984572 86.53563607787798 C 8.954435648131893 86.28242366381497 8.847506674342736 86.03878686349746 8.748924501905924 85.80512215804598 A 0.5625 0.5625 0 0 0 8.15476 85.4869A 85.875 85.875 0 0 1 7.96242 85.5051A 0.5625 0.5625 0 0 0 7.43818 85.9287C 7.384990091343873 86.1766391816578 7.325468834680814 86.43596506912334 7.25890376871043 86.70637800062748 C 7.087759932235449 87.40161029810585 6.870148089229939 88.1698754580977 6.594229494148439 89.00610166519682 A 89.25 89.25 0 0 1 5.37886 89.0878C 4.99348970865241 88.296041437847 4.675001412616312 87.5638177865207 4.412338643723044 86.8977498995469 C 4.310176965229605 86.63868030854923 4.216479745709304 86.38965515528412 4.130582026103337 86.1510357489849 A 0.5625 0.5625 0 0 0 3.55435 85.8014A 85.875 85.875 0 0 1 3.36132 85.8092A 0.5625 0.5625 0 0 0 2.81509 86.204C 2.7486721218312953 86.44880578042446 2.67531693312998 86.70456291560382 2.5943329745268153 86.9710130234688 C 2.386118137454865 87.65605662926592 2.127582125581131 88.41153356527258 1.8071754984016954 89.2317438638001 A 89.25 89.25 0 0 1 0.589169 89.2481C 0.24685702638995882 88.43678496345814 -0.03186882975148897 87.68852152897011 -0.25840065693918296 87.00931501288576 C -0.3465090736463676 86.74513520965007 -0.4267043855583761 86.49143970741977 -0.49966998697138365 86.248553601793 A 0.5625 0.5625 0 0 0 -1.05631 85.8685A 85.875 85.875 0 0 1 -1.24947 85.8659A 0.5625 0.5625 0 0 0 -1.81611 86.2309C -1.895570980961972 86.47171809297545 -1.982548599702935 86.72316906183957 -2.0777179532217707 86.98488810142803 C -2.322403453614479 87.65776785748997 -2.6211182081065445 88.3982783339333 -2.985089052133543 89.20010784526936 A 89.25 89.25 0 0 1 -4.20222 89.1511C -4.500487408583857 88.32254234423728 -4.738647186033157 87.56039656377342 -4.928394921614813 86.87000974679177 C -5.0021960371616 86.60148143007945 -5.068658217620774 86.34384704869147 -5.1284813221232195 86.09739454725604 A 0.5625 0.5625 0 0 0 -5.66391 85.688A 85.875 85.875 0 0 1 -5.85666 85.6751A 0.5625 0.5625 0 0 0 -6.44207 86.0091C -6.534348661907433 86.24531005718232 -6.634697931697168 86.49172986149442 -6.743778282248826 86.74796322906357 C -7.0242289543225045 87.40673904886408 -7.3622611794669 88.13014798234329 -7.768746818176375 88.91128482443567 A 89.25 89.25 0 0 1 -8.98149 88.797C -9.234855773309848 87.9536429712299 -9.431762795775784 87.17981230837323 -9.584179347909394 86.48023575440925 C -9.64346037457464 86.20813316087178 -9.695997795909541 85.94730272694194 -9.742505918004632 85.69799441605905 A 0.5625 0.5625 0 0 0 -10.2552 85.2605A 85.875 85.875 0 0 1 -10.447 85.2372A 0.5625 0.5625 0 0 0 -11.0495 85.5393C -11.154286124102542 85.77023446602287 -11.267717712018658 86.01091261369602 -11.39039455271468 86.2609215221156 C -11.705801784580993 86.90369398442775 -12.082176845965645 87.60791559971749 -12.530005276033563 88.36610755283624 A 89.25 89.25 0 0 1 -13.7349 88.1869C -13.942597658198402 87.33115047682593 -14.097684191761543 86.54786608570035 -14.212330104070977 85.8411168550597 C -14.256920119308628 85.56622452691393 -14.29538130253309 85.30295008210486 -14.328440347265188 85.05150478217364 A 0.5625 0.5625 0 0 0 -14.8169 84.5871A 85.875 85.875 0 0 1 -15.0072 84.5535A 0.5625 0.5625 0 0 0 -15.625 84.8229C -15.74206289187267 85.04786108541008 -15.868249745282974 85.28210363903976 -16.00416936703407 85.52516724790652 C -16.353623757993535 86.1500830733259 -16.767256468883616 86.83308691720622 -17.25513648501597 87.56614791767605 A 89.25 89.25 0 0 1 -18.4486 87.3225C -18.610139424694182 86.45685966803244 -18.72295831473075 85.66637996030775 -18.799503033372236 84.95449579397976 C -18.82927347262526 84.67760631696954 -18.85354752419154 84.41264694965996 -18.873062173776635 84.15978964257219 A 0.5625 0.5625 0 0 0 -19.3359 83.6698A 85.875 85.875 0 0 1 -19.5241 83.6261A 0.5625 0.5625 0 0 0 -20.1555 83.8619C -20.284451217150707 84.08027270480227 -20.42302950669061 84.3074042824676 -20.57180001804153 84.54282177647492 C -20.95429400062115 85.14807917090377 -21.40399175083335 85.80789596648242 -21.930516668645303 86.51371240967019 A 89.25 89.25 0 0 1 -23.1092 86.2063C -23.224023341589856 85.33329135158039 -23.294249302034256 84.53789548488677 -23.332472128768686 83.82292892920962 C -23.347337156153998 83.54484064737609 -23.357354087687558 83.27896030401237 -23.363268076339104 83.02542004284204 A 0.5625 0.5625 0 0 0 -23.7991 82.5113A 85.875 85.875 0 0 1 -23.9847 82.4576A 0.5625 0.5625 0 0 0 -24.6278 82.6591C -24.768354218498978 82.870259131982 -24.918924387085738 83.08962485454663 -25.08011684413977 83.31671746411635 C -25.4945475891709 83.90057131380253 -25.97901378367733 84.53529863844993 -26.542665495528418 85.21183547283403 A 89.25 89.25 0 0 1 -27.7032 84.8416C -27.770946387148918 83.9636850657861 -27.79837693837768 83.16566637231277 -27.798167666900763 82.44967886095111 C -27.798084422696277 82.17119357479993 -27.79381535279041 81.90515885724095 -27.786111628948156 81.65166666419536 A 0.5625 0.5625 0 0 0 -28.1938 81.1149A 85.875 85.875 0 0 1 -28.3762 81.0513A 0.5625 0.5625 0 0 0 -29.0292 81.218C -29.180843642808966 81.42130914931803 -29.342971557668186 81.63227652861623 -29.516121200843482 81.8503894869671 C -29.961293797203798 82.41115639011869 -30.4791315945511 83.01896416064493 -31.07828494664257 83.66427075539558 A 89.25 89.25 0 0 1 -32.2172 83.2323C -32.237798605161295 82.3519897401239 -32.22235465779423 81.55364911434859 -32.183713891489816 80.83870502464659 C -32.16868261571012 80.56062567934971 -32.1501398531985 80.29520363455504 -32.128840628692565 80.04249039324874 A 0.5625 0.5625 0 0 0 -32.5071 79.4846A 85.875 85.875 0 0 1 -32.6858 79.4113A 0.5625 0.5625 0 0 0 -33.3469 79.5427C -33.50919714080164 79.73760045470252 -33.68241534518446 79.93956121716627 -33.867022939236186 80.1480656481761 C -34.34165383908779 80.68412876864464 -34.891370178852654 81.26326451790305 -35.52429765696657 81.87548028705596 A 89.25 89.25 0 0 1 -36.6384 81.383C -36.61170090434072 80.50285230943999 -36.553426987276076 79.70649157405462 -36.47646613747643 78.99465227490168 C -36.44653016918077 78.7177806451985 -36.41376717764792 78.45373655363355 -36.37893386365632 78.20253090176149 A 0.5625 0.5625 0 0 0 -36.7267 77.6252A 85.875 85.875 0 0 1 -36.9012 77.5423A 0.5625 0.5625 0 0 0 -37.5684 77.6381C -37.740934948854004 77.82398761616662 -37.924744009835884 78.01635945663581 -38.12027728328073 78.2146541880541 C -38.62299800287082 78.7244679170917 -39.2030079105397 79.27326184679531 -39.86788462090963 79.85062161380266 A 89.25 89.25 0 0 1 -40.954 79.2991C -40.880042192079074 78.42160431563643 -40.779106324105236 77.62951958479637 -40.6640472888633 76.92283749316705 C -40.61929294119785 76.6479718716402 -40.57240418482978 76.38606704077446 -40.524137214814104 76.13709326926109 A 0.5625 0.5625 0 0 0 -40.8404 75.5419A 85.875 85.875 0 0 1 -41.0102 75.4498A 0.5625 0.5625 0 0 0 -41.6816 75.5097C -41.86385587138824 75.68598807490405 -42.0577258198634 75.86821633556299 -42.26362099965597 76.05572963234613 C -42.79298206500981 76.53782404499563 -43.40161322187072 77.05469384017789 -44.0965221528229 77.59553292736928 A 89.25 89.25 0 0 1 -45.1514 76.9865C -45.03051573549101 76.11424653545555 -44.88720894084477 75.32872159448817 -44.73438346514469 74.6292342577926 C -44.6749397764794 74.35716715318391 -44.614060447698876 74.09815672244456 -44.55249898782864 73.85213268712536 A 0.5625 0.5625 0 0 0 -44.8364 73.2408A 85.875 85.875 0 0 1 -45.001 73.1398A 0.5625 0.5625 0 0 0 -45.6746 73.1635C -45.86607246007703 73.32976623705989 -46.06944431879657 73.50132550665937 -46.28510775583309 73.67751671943087 C -46.839582881962656 74.13050181269998 -47.475080446832976 74.6139572039384 -48.1980179960272 75.11671623221751 A 89.25 89.25 0 0 1 -49.2187 74.4519C -49.051154644910596 73.58743167868734 -48.86589011417901 72.81073139934762 -48.67573883342941 72.120455620655 C -48.60177719530701 71.8519714728575 -48.52708282497884 71.59660223636683 -48.452404372879386 71.35423728822433 A 0.5625 0.5625 0 0 0 -48.703 70.7286A 85.875 85.875 0 0 1 -48.862 70.6188A 0.5625 0.5625 0 0 0 -49.5359 70.6063C -49.73604528843449 70.76211570015185 -49.94833268368251 70.92251132890576 -50.17314256444484 71.08687245278827 C -50.75113305602356 71.50944215338808 -51.41166472491143 71.95808921363677 -52.160546476245294 72.421318598575 A 89.25 89.25 0 0 1 -53.1441 71.7027C -52.93036637753231 70.84844520668473 -52.70367827631722 70.08280901694374 -52.4767494458853 69.40373504001693 C -52.38848310885504 69.13960795833168 -52.300189060185154 68.88861621170635 -52.212608933166 68.65060915162745 A 0.5625 0.5625 0 0 0 -52.4293 68.0124A 85.875 85.875 0 0 1 -52.5822 67.8943A 0.5625 0.5625 0 0 0 -53.2544 67.8456C -53.462616222970006 67.99043966536993 -53.6832070752308 68.13920919115867 -53.91651521463578 68.29126633048362 C -54.516354575451054 68.68220226057593 -55.2000158645621 69.09474742421817 -55.972682598082194 69.51711155558175 A 89.25 89.25 0 0 1 -56.9162 68.7467C -56.65696616171282 67.90518432649263 -56.38950809049316 67.15281975368697 -56.12645600494251 66.48690552459446 C -56.02413946370372 66.22789705577301 -55.922500311291266 65.98200647319322 -55.82227102553064 65.74904353714543 A 0.5625 0.5625 0 0 0 -56.0044 65.1001A 85.875 85.875 0 0 1 -56.1507 64.974A 0.5625 0.5625 0 0 0 -56.8194 64.8893C -57.03504059497547 65.02272959223093 -57.263298883717226 65.15944407399944 -57.50443259400208 65.29875880867084 C -58.12439133189522 65.65693379876696 -58.82921106875237 66.0321875912997 -59.6234349862444 66.41246868395977 A 89.25 89.25 0 0 1 -60.5243 65.5925C -60.22020924556303 64.76613522115562 -59.91275235519546 64.02921152711458 -59.61433546178546 63.37837704896524 C -59.498263721413394 63.12523398147316 -59.38357251724628 62.8851535291426 -59.27098305972155 62.657906409578054 A 0.5625 0.5625 0 0 0 -59.418 62.0001A 85.875 85.875 0 0 1 -59.5573 61.8663A 0.5625 0.5625 0 0 0 -60.2205 61.7459C -60.44301818018678 61.8675421571319 -60.67828577767346 61.991807411637716 -60.92654980792874 62.117978061210856 C -61.56484042136862 62.44235940009297 -62.28878642821262 62.779239867689746 -63.102277576520336 63.11634147281216 A 89.25 89.25 0 0 1 -63.9578 62.2492C -63.60982187684937 61.44034858185544 -63.26325264514072 60.720990508357644 -62.93033135702677 60.08711230543458 C -62.800839082396614 59.84056451626703 -62.67342651090675 59.606986408279816 -62.548801506170186 59.386110317472074 A 0.5625 0.5625 0 0 0 -62.6603 58.7214A 85.875 85.875 0 0 1 -62.7922 58.5803A 0.5625 0.5625 0 0 0 -63.448 58.4244C -63.676722896996765 58.533974582237065 -63.91832146584067 58.64543232058269 -64.17300000659858 58.758095102412845 C -64.8277821385113 59.047747514707794 -65.56876709159525 59.345283343771705 -66.39917996514825 59.63823351016282 A 89.25 89.25 0 0 1 -67.2069 58.7265C -66.81603092488098 57.93741351242529 -66.43134860064323 57.23769515501809 -66.06488281608287 56.622600862273494 C -65.92234336694428 56.383359212530884 -65.78257679155878 56.1569569150391 -65.64627556576093 55.94308869593654 A 0.5625 0.5625 0 0 0 -65.7219 55.2733A 85.875 85.875 0 0 1 -65.8461 55.1254A 0.5625 0.5625 0 0 0 -66.4925 54.9345C -66.72683113759213 55.03163840583116 -66.97406408657626 55.129967266503705 -67.23442283367477 55.228797344625654 C -67.9038085776694 55.482885687445965 -68.65969602555354 55.7402190051582 -69.50463632906694 55.988173081651794 A 89.25 89.25 0 0 1 -70.2623 55.0344C -69.82959205897554 54.26742988148114 -69.40790578093285 53.58936870932623 -69.00895211565059 52.99483180283659 C -68.85377647013483 52.763586088128044 -68.70205887407216 52.545012377564504 -68.55447441893153 52.33876866760723 A 0.5625 0.5625 0 0 0 -68.5941 51.6659A 85.875 85.875 0 0 1 -68.7101 51.5115A 0.5625 0.5625 0 0 0 -69.3454 51.2863C -69.5845486503285 51.370631769766554 -69.8367031428593 51.455548245206124 -70.101991414631 51.540260666920325 C -70.78405075832259 51.75805233779738 -71.5526612818168 51.97444118558666 -72.40969283366444 52.1766842563919 A 89.25 89.25 0 0 1 -73.1151 51.1836C -72.64181640225772 50.44097920188596 -72.18434200111233 49.78653024087353 -71.754050741803 49.21426492444905 C -71.5866863114667 48.99168188603303 -71.4234551358317 48.781566966987846 -71.2650129755379 48.583542420182326 A 0.5625 0.5625 0 0 0 -71.2684 47.9095A 85.875 85.875 0 0 1 -71.376 47.7491A 0.5625 0.5625 0 0 0 -71.9983 47.4901C -72.24163589583445 47.5615103039061 -72.49798490523432 47.63276955793154 -72.76743780691605 47.70312007539655 C -73.46020419665085 47.88398712456308 -74.23932169264434 48.05880759736428 -75.10597344900103 48.21475654335303 A 89.25 89.25 0 0 1 -75.757 47.1852C -75.2445955839405 46.46909412150889 -74.75265207681808 45.840144317411855 -74.29226386457252 45.29180058010309 C -74.11319320439426 45.07852198249981 -73.93891908692221 44.8774716706774 -73.77007605123957 44.688237243055035 A 0.5625 0.5625 0 0 0 -73.7373 44.015A 85.875 85.875 0 0 1 -73.8362 43.849A 0.5625 0.5625 0 0 0 -74.4436 43.557C -74.69043180373646 43.61525669150966 -74.95023620944976 43.672653265244584 -75.22307683857224 43.72843903970679 C -75.92455284951103 43.87185998063871 -76.71193092057139 44.004608025772654 -77.58570410007188 44.113813205762874 A 89.25 89.25 0 0 1 -78.1805 43.0508C -77.6304251178572 42.36322661324532 -77.10543090523907 41.76158939116622 -76.61627315845465 41.23874824991851 C -76.42601257550406 41.035389030536656 -76.24119799359028 40.843983006032246 -76.06244090069933 40.66408430943531 A 0.5625 0.5625 0 0 0 -75.9936 39.9936A 85.875 85.875 0 0 1 -76.0834 39.8225A 0.5625 0.5625 0 0 0 -76.6743 39.4983C -76.923875861508 39.54324900331525 -77.18638658017704 39.58661740757926 -77.4618282665758 39.62767759420952 C -78.16999136178676 39.733238907206484 -78.96335979310517 39.823531777694356 -79.84173508147785 39.88567832488198 A 89.25 89.25 0 0 1 -80.3787 38.7923C -79.79242603983771 38.13521495601461 -79.23589481594497 37.562624991811546 -78.7193779030348 37.066793932983906 C -78.5184759678256 36.8739404290969 -78.32365378975301 36.69273056502874 -78.13549804262773 36.522686293970196 A 0.5625 0.5625 0 0 0 -78.0308 35.8569A 85.875 85.875 0 0 1 -78.1112 35.6812A 0.5625 0.5625 0 0 0 -78.6839 35.3258C -78.93552847175502 35.35722789161555 -79.19998861702132 35.38644308407229 -79.47723719101037 35.41265929572323 C -80.19004555296662 35.48005662019304 -80.98711685797498 35.52763397831494 -81.86756167187691 35.54254270811645 A 89.25 89.25 0 0 1 -82.345 34.4219C -81.72436474154308 33.79724960193717 -81.13790112996445 33.25535782070429 -80.59551430290003 32.78796645359594 C -80.38455026771925 32.60617471177982 -80.18028221626119 32.43568348309613 -79.98327031662876 32.2759839192291 A 0.5625 0.5625 0 0 0 -79.843 31.6167A 85.875 85.875 0 0 1 -79.9139 31.4371A 0.5625 0.5625 0 0 0 -80.4666 31.0514C -80.71958951924225 31.06926273891806 -80.9852365840457 31.08424048460468 -81.26349266621446 31.09553713315148 C -81.97889108388252 31.12457614516042 -82.77736709966926 31.129300813076455 -83.65734288877974 31.09692873976438 A 89.25 89.25 0 0 1 -84.074 29.9523C -83.420670943572 29.361838028105318 -82.80596587071848 28.852206844128386 -82.23927297113087 28.41460277904511 C -82.01885509990457 28.244396951952258 -81.8057301327326 28.085115929000683 -81.60043011690045 27.936221527509502 A 0.5625 0.5625 0 0 0 -81.4249 27.2855A 85.875 85.875 0 0 1 -81.4861 27.1022A 0.5625 0.5625 0 0 0 -82.0173 26.6874C -82.27091509412682 26.69171685879085 -82.53698314921112 26.692413972989232 -82.81544445524206 26.688758487269748 C -83.53137024978739 26.67935545982882 -84.32894876329614 26.6412138150983 -85.2059183296143 26.561654275740217 A 89.25 89.25 0 0 1 -85.5605 25.3963C -84.87645375601836 24.841768674288996 -84.23527957574476 24.365867486200507 -83.64591452596422 23.959312448945266 C -83.41667834047507 23.801183284036664 -83.19531095204161 23.653571715239732 -82.98231475310176 23.51591177722844 A 0.5625 0.5625 0 0 0 -82.7721 22.8755A 85.875 85.875 0 0 1 -82.8234 22.6893A 0.5625 0.5625 0 0 0 -83.3316 22.2465C -83.58503232318202 22.23721184922923 -83.85075422546686 22.223626321978674 -84.12861787932893 22.205029241704533 C -84.8430068513529 22.157211286176032 -85.6373882372587 22.07631330103451 -86.50882305050224 21.949795686378103 A 89.25 89.25 0 0 1 -86.8003 20.7671C -86.08751578017285 20.250074070553453 -85.42172116362272 19.809275024676015 -84.81138325565773 19.43494121866681 C -84.57398970317129 19.28934464326007 -84.34501815296292 19.153828130983076 -84.1249398940956 19.027799565689225 A 0.5625 0.5625 0 0 0 -83.8807 18.3996A 85.875 85.875 0 0 1 -83.9219 18.2109A 0.5625 0.5625 0 0 0 -84.4056 17.7415C -84.6581522662487 17.718591201321086 -84.9227618707019 17.690762203213563 -85.19922671954997 17.657277148581457 C -85.91001910071117 17.57118213650988 -86.6989129518356 17.447761060790725 -87.56230043984807 17.27465015387088 A 89.25 89.25 0 0 1 -87.7899 16.078C -87.05036521071013 15.59999326110107 -86.3618698161184 15.19556729519436 -85.73231881215683 14.854534021698349 C -85.48745235973941 14.721889828411195 -85.25153683200962 14.598859101840429 -85.02501105580718 14.484825282242996 A 0.5625 0.5625 0 0 0 -84.7474 13.8707A 85.875 85.875 0 0 1 -84.7784 13.68A 0.5625 0.5625 0 0 0 -85.2362 13.1853C -85.48718084073063 13.148883268137416 -85.74991520936261 13.106891037378613 -86.02418413346851 13.05861455446938 C -86.729330525328 12.934490720062096 -87.51046225647593 12.768902408676826 -88.36331304962283 12.54969733305171 A 89.25 89.25 0 0 1 -88.5264 11.3425C -87.76222590346748 10.9049336326799 -87.05301484128874 10.538046811498072 -86.40606589984799 10.231297357726614 C -86.15443256087086 10.111987994106126 -85.912253261158 10.001797782675466 -85.67993310007435 9.900087497796479 A 0.5625 0.5625 0 0 0 -85.3697 9.3017A 85.875 85.875 0 0 1 -85.3905 9.10963A 0.5625 0.5625 0 0 0 -85.8211 8.59111C -86.06972774263546 8.541263700617728 -86.32982934424697 8.485229311679522 -86.60111155530207 8.422300594090803 C -87.29857883826965 8.260505818494558 -88.06969624444729 8.05322770541103 -88.90955135311302 7.788560486059664 A 89.25 89.25 0 0 1 -89.0076 6.57439C -88.22104537978707 6.178432257616827 -87.49316348910828 5.850142410841972 -86.83068193146327 5.578561214879045 C -86.57300722998349 5.4729306807063605 -86.32526242390198 5.375898691320492 -86.08781771710264 5.286805198241171 A 0.5625 0.5625 0 0 0 -85.746 4.70593A 85.875 85.875 0 0 1 -85.7563 4.51302A 0.5625 0.5625 0 0 0 -86.1585 3.97214C -86.40411333844015 3.909017458757525 -86.66083223278079 3.839102473288942 -86.92834555394329 3.761702960804012 C -87.61612274928761 3.5627037402409414 -88.37500249939245 3.314333461917615 -89.199440403884 3.0049672029482464 A 89.25 89.25 0 0 1 -89.2321 1.78729C -88.42550074434331 1.4341168629336432 -87.68104669708332 1.1453705351789651 -87.00494262906248 0.9097406359172222 C -86.74196950794911 0.8180934913671198 -86.48937350790901 0.7344994923702794 -86.24748886995141 0.6582796706949596 A 0.5625 0.5625 0 0 0 -85.8749 0.0965919A 85.875 85.875 0 0 1 -85.8749 -0.0965919A 0.5625 0.5625 0 0 0 -86.2475 -0.658279C -86.48937350790901 -0.7344994923702968 -86.74196950794911 -0.8180934913671376 -87.00494262906248 -0.90974063591724 C -87.68104669708332 -1.145370535178983 -88.42550074434331 -1.434116862933661 -89.23214437675837 -1.7872901785102482 A 89.25 89.25 0 0 1 -89.1994 -3.00497C -88.37500249939245 -3.3143334619176326 -87.61612274928761 -3.562703740240959 -86.92834555394329 -3.7617029608040298 C -86.66083223278079 -3.8391024732889596 -86.40411333844015 -3.9090174587575417 -86.15848618535261 -3.9721438475518145 A 0.5625 0.5625 0 0 0 -85.7563 -4.51302A 85.875 85.875 0 0 1 -85.746 -4.70593A 0.5625 0.5625 0 0 0 -86.0878 -5.2868C -86.32526242390199 -5.3758986913204705 -86.5730072299835 -5.472930680706338 -86.83068193146327 -5.578561214879022 C -87.49316348910828 -5.850142410841949 -88.22104537978709 -6.178432257616805 -89.00756897771618 -6.574394339705221 A 89.25 89.25 0 0 1 -88.9096 -7.78856C -88.0696962444473 -8.053227705411008 -87.29857883826965 -8.260505818494536 -86.60111155530207 -8.422300594090782 C -86.32982934424699 -8.4852293116795 -86.06972774263548 -8.541263700617707 -85.82106628108626 -8.591114646810404 A 0.5625 0.5625 0 0 0 -85.3905 -9.10963A 85.875 85.875 0 0 1 -85.3697 -9.3017A 0.5625 0.5625 0 0 0 -85.6799 -9.90009C -85.912253261158 -10.001797782675448 -86.15443256087086 -10.111987994106107 -86.40606589984799 -10.231297357726593 C -87.05301484128874 -10.538046811498052 -87.76222590346748 -10.90493363267988 -88.52636171576907 -11.342542820094078 A 89.25 89.25 0 0 1 -88.3633 -12.5497C -87.51046225647593 -12.768902408676807 -86.729330525328 -12.934490720062076 -86.02418413346851 -13.058614554469361 C -85.74991520936261 -13.106891037378594 -85.48718084073063 -13.148883268137398 -85.23620202608481 -13.185315038545642 A 0.5625 0.5625 0 0 0 -84.7784 -13.68A 85.875 85.875 0 0 1 -84.7474 -13.8707A 0.5625 0.5625 0 0 0 -85.025 -14.4848C -85.25153683200962 -14.59885910184045 -85.48745235973941 -14.721889828411216 -85.73231881215683 -14.85453402169837 C -86.3618698161184 -15.195567295194381 -87.05036521071013 -15.599993261101087 -87.78991003602418 -16.077987813269115 A 89.25 89.25 0 0 1 -87.5623 -17.2747C -86.6989129518356 -17.447761060790743 -85.91001910071117 -17.5711821365099 -85.19922671954997 -17.65727714858148 C -84.9227618707019 -17.690762203213584 -84.6581522662487 -17.718591201321107 -84.40557973540022 -17.741498753719657 A 0.5625 0.5625 0 0 0 -83.9219 -18.2109A 85.875 85.875 0 0 1 -83.8807 -18.3996A 0.5625 0.5625 0 0 0 -84.1249 -19.0278C -84.34501815296292 -19.153828130983094 -84.57398970317129 -19.289344643260087 -84.81138325565773 -19.434941218666832 C -85.42172116362272 -19.809275024676033 -86.08751578017285 -20.250074070553474 -86.80033731932078 -20.767075805442158 A 89.25 89.25 0 0 1 -86.5088 -21.9498C -85.6373882372587 -22.07631330103453 -84.8430068513529 -22.15721128617605 -84.12861787932893 -22.205029241704555 C -83.85075422546686 -22.223626321978692 -83.58503232318202 -22.237211849229247 -83.3315943081212 -22.246529135214427 A 0.5625 0.5625 0 0 0 -82.8234 -22.6893A 85.875 85.875 0 0 1 -82.7721 -22.8755A 0.5625 0.5625 0 0 0 -82.9823 -23.5159C -83.1953109520416 -23.65357171523975 -83.41667834047509 -23.801183284036686 -83.6459145259642 -23.959312448945283 C -84.23527957574474 -24.365867486200525 -84.87645375601836 -24.841768674289018 -85.56049675997343 -25.39628694205955 A 89.25 89.25 0 0 1 -85.2059 -26.5617C -84.32894876329614 -26.64121381509832 -83.53137024978737 -26.679355459828837 -82.81544445524204 -26.688758487269766 C -82.53698314921111 -26.692413972989254 -82.2709150941268 -26.69171685879087 -82.017342322259 -26.687417014215193 A 0.5625 0.5625 0 0 0 -81.4861 -27.1022A 85.875 85.875 0 0 1 -81.4249 -27.2855A 0.5625 0.5625 0 0 0 -81.6004 -27.9362C -81.80573013273262 -28.08511592900066 -82.01885509990457 -28.24439695195224 -82.23927297113089 -28.414602779045094 C -82.8059658707185 -28.85220684412836 -83.42067094357202 -29.361838028105296 -84.07396313927447 -29.9522740090426 A 89.25 89.25 0 0 1 -83.6573 -31.0969C -82.77736709966928 -31.129300813076433 -81.97889108388253 -31.124576145160404 -81.26349266621447 -31.095537133151463 C -80.98523658404572 -31.084240484604663 -80.71958951924226 -31.069262738918038 -80.46661310651157 -31.051358161346528 A 0.5625 0.5625 0 0 0 -79.9139 -31.4371A 85.875 85.875 0 0 1 -79.843 -31.6167A 0.5625 0.5625 0 0 0 -79.9833 -32.276C -80.18028221626119 -32.4356834830961 -80.38455026771925 -32.6061747117798 -80.59551430290003 -32.78796645359593 C -81.13790112996445 -33.255357820704276 -81.72436474154308 -33.797249601937146 -82.34502251847381 -34.421900916260995 A 89.25 89.25 0 0 1 -81.8676 -35.5425C -80.98711685797498 -35.52763397831492 -80.19004555296662 -35.480056620193025 -79.47723719101037 -35.412659295723216 C -79.19998861702132 -35.38644308407227 -78.93552847175502 -35.35722789161554 -78.68387781464781 -35.32577020458032 A 0.5625 0.5625 0 0 0 -78.1112 -35.6812A 85.875 85.875 0 0 1 -78.0308 -35.8569A 0.5625 0.5625 0 0 0 -78.1355 -36.5227C -78.323653789753 -36.692730565028754 -78.51847596782558 -36.87394042909692 -78.71937790303478 -37.06679393298392 C -79.23589481594499 -37.56262499181157 -79.79242603983771 -38.13521495601463 -80.37865988095508 -38.79228057228127 A 89.25 89.25 0 0 1 -79.8417 -39.8857C -78.96335979310517 -39.82353177769438 -78.16999136178674 -39.733238907206506 -77.46182826657578 -39.62767759420954 C -77.18638658017703 -39.58661740757928 -76.92387586150798 -39.54324900331527 -76.67427653401391 -39.49832890747158 A 0.5625 0.5625 0 0 0 -76.0834 -39.8225A 85.875 85.875 0 0 1 -75.9936 -39.9936A 0.5625 0.5625 0 0 0 -76.0624 -40.6641C -76.24119799359026 -40.84398300603226 -76.42601257550405 -41.03538903053667 -76.61627315845463 -41.23874824991853 C -77.10543090523906 -41.76158939116623 -77.63042511785719 -42.36322661324534 -78.18054475923795 -43.05081204118738 A 89.25 89.25 0 0 1 -77.5857 -44.1138C -76.71193092057138 -44.004608025772676 -75.92455284951102 -43.871859980638725 -75.22307683857223 -43.7284390397068 C -74.95023620944974 -43.6726532652446 -74.69043180373644 -43.61525669150967 -74.4436034653309 -43.55700370312236 A 0.5625 0.5625 0 0 0 -73.8362 -43.849A 85.875 85.875 0 0 1 -73.7373 -44.015A 0.5625 0.5625 0 0 0 -73.7701 -44.6882C -73.93891908692224 -44.87747167067738 -74.11319320439428 -45.07852198249979 -74.29226386457253 -45.29180058010307 C -74.75265207681811 -45.84014431741184 -75.24459558394052 -46.46909412150887 -75.7570148882481 -47.18521687434113 A 89.25 89.25 0 0 1 -75.106 -48.2148C -74.23932169264437 -48.05880759736426 -73.46020419665088 -47.88398712456306 -72.76743780691606 -47.70312007539653 C -72.49798490523433 -47.63276955793152 -72.24163589583448 -47.56151030390609 -71.99829021651394 -47.49009238142073 A 0.5625 0.5625 0 0 0 -71.376 -47.7491A 85.875 85.875 0 0 1 -71.2684 -47.9095A 0.5625 0.5625 0 0 0 -71.265 -48.5835C -71.42345513583173 -48.78156696698784 -71.58668631146672 -48.99168188603302 -71.75405074180301 -49.21426492444904 C -72.18434200111234 -49.78653024087352 -72.64181640225773 -50.440979201885945 -73.11505793198697 -51.18357451232809 A 89.25 89.25 0 0 1 -72.4097 -52.1767C -71.55266128181681 -51.97444118558665 -70.7840507583226 -51.758052337797366 -70.10199141463102 -51.54026066692032 C -69.83670314285932 -51.45554824520612 -69.58454865032853 -51.37063176976655 -69.3453872586818 -51.286254829541754 A 0.5625 0.5625 0 0 0 -68.7101 -51.5115A 85.875 85.875 0 0 1 -68.5941 -51.6659A 0.5625 0.5625 0 0 0 -68.5545 -52.3388C -68.70205887407215 -52.54501237756451 -68.85377647013482 -52.76358608812805 -69.00895211565057 -52.9948318028366 C -69.40790578093284 -53.589368709326244 -69.82959205897552 -54.26742988148115 -70.26229133628735 -55.034356655016246 A 89.25 89.25 0 0 1 -69.5046 -55.9882C -68.65969602555353 -55.74021900515821 -67.90380857766938 -55.48288568744598 -67.23442283367476 -55.22879734462566 C -66.97406408657625 -55.12996726650371 -66.72683113759211 -55.03163840583117 -66.49254359782343 -54.934545728428404 A 0.5625 0.5625 0 0 0 -65.8461 -55.1254A 85.875 85.875 0 0 1 -65.7219 -55.2733A 0.5625 0.5625 0 0 0 -65.6463 -55.9431C -65.78257679155877 -56.15695691503911 -65.92234336694426 -56.3833592125309 -66.06488281608287 -56.62260086227351 C -66.43134860064322 -57.2376951550181 -66.81603092488098 -57.9374135124253 -67.2069403657453 -58.72646050062959 A 89.25 89.25 0 0 1 -66.3992 -59.6382C -65.56876709159525 -59.34528334377172 -64.82778213851128 -59.04774751470781 -64.17300000659858 -58.75809510241286 C -63.918321465840656 -58.64543232058271 -63.67672289699675 -58.53397458223707 -63.447984720733686 -58.424446110979844 A 0.5625 0.5625 0 0 0 -62.7922 -58.5803A 85.875 85.875 0 0 1 -62.6603 -58.7214A 0.5625 0.5625 0 0 0 -62.5488 -59.3861C -62.67342651090675 -59.60698640827983 -62.800839082396614 -59.84056451626705 -62.93033135702677 -60.0871123054346 C -63.26325264514072 -60.720990508357666 -63.60982187684937 -61.44034858185546 -63.957814388152784 -62.24924075800001 A 89.25 89.25 0 0 1 -63.1023 -63.1163C -62.28878642821262 -62.77923986768977 -61.56484042136862 -62.44235940009299 -60.92654980792874 -62.11797806121088 C -60.67828577767346 -61.99180741163774 -60.44301818018678 -61.867542157131915 -60.22048887880535 -61.74589369095668 A 0.5625 0.5625 0 0 0 -59.5573 -61.8663A 85.875 85.875 0 0 1 -59.418 -62.0001A 0.5625 0.5625 0 0 0 -59.271 -62.6579C -59.38357251724629 -62.885153529142585 -59.498263721413416 -63.125233981473144 -59.61433546178548 -63.37837704896521 C -59.91275235519548 -64.02921152711457 -60.22020924556304 -64.76613522115561 -60.52428147481004 -65.5925403396973 A 89.25 89.25 0 0 1 -59.6234 -66.4125C -58.829211068752386 -66.03218759129969 -58.12439133189524 -65.65693379876694 -57.504432594002104 -65.29875880867081 C -57.26329888371725 -65.15944407399942 -57.035040594975484 -65.02272959223092 -56.8193617780581 -64.88931187515699 A 0.5625 0.5625 0 0 0 -56.1507 -64.974A 85.875 85.875 0 0 1 -56.0044 -65.1001A 0.5625 0.5625 0 0 0 -55.8223 -65.749C -55.92250031129126 -65.98200647319322 -56.02413946370371 -66.22789705577301 -56.1264560049425 -66.48690552459446 C -56.389508090493145 -67.15281975368697 -56.65696616171281 -67.90518432649263 -56.91624138995076 -68.74671964754177 A 89.25 89.25 0 0 1 -55.9727 -69.5171C -55.20001586456208 -69.09474742421817 -54.51635457545104 -68.68220226057593 -53.916515214635766 -68.29126633048362 C -53.68320707523079 -68.13920919115867 -53.46261622297 -67.99043966536993 -53.25440974837899 -67.84563737521374 A 0.5625 0.5625 0 0 0 -52.5822 -67.8943A 85.875 85.875 0 0 1 -52.4293 -68.0124A 0.5625 0.5625 0 0 0 -52.2126 -68.6506C -52.30018906018519 -68.88861621170633 -52.38848310885507 -69.13960795833167 -52.476749445885325 -69.4037350400169 C -52.70367827631725 -70.08280901694373 -52.93036637753234 -70.84844520668472 -53.14409704715923 -71.70268436606102 A 89.25 89.25 0 0 1 -52.1605 -72.4213C -51.41166472491146 -71.95808921363675 -50.75113305602359 -71.50944215338806 -50.173142564444866 -71.08687245278824 C -49.94833268368254 -70.92251132890574 -49.736045288434525 -70.76211570015184 -49.5359114693349 -70.60634633940109 A 0.5625 0.5625 0 0 0 -48.862 -70.6188A 85.875 85.875 0 0 1 -48.703 -70.7286A 0.5625 0.5625 0 0 0 -48.4524 -71.3542C -48.527082824978834 -71.59660223636683 -48.601777195306994 -71.8519714728575 -48.675738833429406 -72.120455620655 C -48.865890114178995 -72.81073139934762 -49.05115464491059 -73.58743167868734 -49.21872451507706 -74.451911683756 A 89.25 89.25 0 0 1 -48.198 -75.1167C -47.47508044683297 -74.6139572039384 -46.83958288196264 -74.13050181269998 -46.28510775583308 -73.67751671943087 C -46.069444318796556 -73.50132550665937 -45.86607246007702 -73.32976623705989 -45.67458833407822 -73.16347892910592 A 0.5625 0.5625 0 0 0 -45.001 -73.1398A 85.875 85.875 0 0 1 -44.8364 -73.2408A 0.5625 0.5625 0 0 0 -44.5525 -73.8521C -44.61406044769884 -74.09815672244457 -44.67493977647936 -74.35716715318392 -44.73438346514465 -74.62923425779263 C -44.88720894084474 -75.32872159448819 -45.03051573549097 -76.11424653545558 -45.15144165888221 -76.98647486657255 A 89.25 89.25 0 0 1 -44.0965 -77.5955C -43.40161322187068 -77.05469384017792 -42.792982065009774 -76.53782404499565 -42.263620999655934 -76.05572963234616 C -42.057725819863364 -75.868216335563 -41.8638558713882 -75.68598807490406 -41.681573536795334 -75.50966226910278 A 0.5625 0.5625 0 0 0 -41.0102 -75.4498A 85.875 85.875 0 0 1 -40.8404 -75.5419A 0.5625 0.5625 0 0 0 -40.5241 -76.1371C -40.572404184829786 -76.38606704077446 -40.61929294119786 -76.6479718716402 -40.664047288863316 -76.92283749316704 C -40.77910632410525 -77.62951958479637 -40.88004219207909 -78.42160431563643 -40.95397550795368 -79.29906611272784 A 89.25 89.25 0 0 1 -39.8679 -79.8506C -39.20300791053971 -79.27326184679531 -38.62299800287084 -78.7244679170917 -38.12027728328074 -78.21465418805408 C -37.9247440098359 -78.01635945663581 -37.740934948854026 -77.82398761616662 -37.56837997282544 -77.63813170546192 A 0.5625 0.5625 0 0 0 -36.9012 -77.5423A 85.875 85.875 0 0 1 -36.7267 -77.6252A 0.5625 0.5625 0 0 0 -36.3789 -78.2025C -36.4137671776479 -78.45373655363355 -36.44653016918075 -78.71778064519852 -36.47646613747641 -78.99465227490171 C -36.553426987276055 -79.70649157405462 -36.6117009043407 -80.50285230944 -36.638428443809715 -81.38301762299483 A 89.25 89.25 0 0 1 -35.5243 -81.8755C -34.89137017885263 -81.26326451790307 -34.34165383908777 -80.68412876864464 -33.867022939236165 -80.1480656481761 C -33.68241534518444 -79.93956121716629 -33.50919714080162 -79.73760045470252 -33.346867044002806 -79.54275030979781 A 0.5625 0.5625 0 0 0 -32.6858 -79.4113A 85.875 85.875 0 0 1 -32.5071 -79.4846A 0.5625 0.5625 0 0 0 -32.1288 -80.0425C -32.15013985319852 -80.29520363455504 -32.16868261571014 -80.56062567934971 -32.18371389148983 -80.83870502464657 C -32.22235465779425 -81.55364911434857 -32.237798605161316 -82.3519897401239 -32.21724330580947 -83.23232082569322 A 89.25 89.25 0 0 1 -31.0783 -83.6643C -30.47913159455112 -83.01896416064493 -29.96129379720382 -82.41115639011868 -29.5161212008435 -81.85038948696709 C -29.342971557668207 -81.63227652861623 -29.180843642808984 -81.42130914931803 -29.029206464931697 -81.21802657362224 A 0.5625 0.5625 0 0 0 -28.3762 -81.0513A 85.875 85.875 0 0 1 -28.1938 -81.1149A 0.5625 0.5625 0 0 0 -27.7861 -81.6517C -27.79381535279041 -81.90515885724095 -27.798084422696277 -82.17119357479993 -27.798167666900763 -82.44967886095111 C -27.79837693837768 -83.16566637231277 -27.770946387148918 -83.9636850657861 -27.70316751522543 -84.84164370095743 A 89.25 89.25 0 0 1 -26.5427 -85.2118C -25.97901378367733 -84.53529863844993 -25.4945475891709 -83.90057131380253 -25.08011684413977 -83.31671746411635 C -24.918924387085738 -83.08962485454663 -24.768354218498978 -82.870259131982 -24.627847168781607 -82.65913024178501 A 0.5625 0.5625 0 0 0 -23.9847 -82.4576A 85.875 85.875 0 0 1 -23.7991 -82.5113A 0.5625 0.5625 0 0 0 -23.3633 -83.0254C -23.357354087687522 -83.27896030401239 -23.347337156153962 -83.5448406473761 -23.332472128768647 -83.82292892920964 C -23.294249302034217 -84.53789548488679 -23.224023341589817 -85.33329135158039 -23.109216321128475 -86.20634615432985 A 89.25 89.25 0 0 1 -21.9305 -86.5137C -21.40399175083331 -85.80789596648242 -20.95429400062111 -85.14807917090378 -20.57180001804149 -84.54282177647494 C -20.423029506690575 -84.30740428246762 -20.28445121715067 -84.08027270480228 -20.155479413790854 -83.86190623934979 A 0.5625 0.5625 0 0 0 -19.5241 -83.6261A 85.875 85.875 0 0 1 -19.3359 -83.6698A 0.5625 0.5625 0 0 0 -18.8731 -84.1598C -18.853547524191562 -84.41264694965996 -18.82927347262528 -84.67760631696954 -18.799503033372257 -84.95449579397976 C -18.72295831473077 -85.66637996030775 -18.610139424694204 -86.45685966803244 -18.448635274055288 -87.32249339535453 A 89.25 89.25 0 0 1 -17.2551 -87.5661C -16.767256468883637 -86.83308691720622 -16.353623757993557 -86.1500830733259 -16.00416936703409 -85.52516724790652 C -15.868249745282995 -85.28210363903976 -15.742062891872692 -85.04786108541008 -15.624998193966666 -84.82288665175089 A 0.5625 0.5625 0 0 0 -15.0072 -84.5535A 85.875 85.875 0 0 1 -14.8169 -84.5871A 0.5625 0.5625 0 0 0 -14.3284 -85.0515C -14.295381302533071 -85.30295008210486 -14.25692011930861 -85.56622452691393 -14.212330104070961 -85.8411168550597 C -14.097684191761527 -86.54786608570035 -13.942597658198384 -87.33115047682593 -13.734862035657041 -88.18686728259667 A 89.25 89.25 0 0 1 -12.53 -88.3661C -12.082176845965627 -87.60791559971749 -11.705801784580977 -86.90369398442775 -11.390394552714664 -86.2609215221156 C -11.26771771201864 -86.01091261369602 -11.154286124102525 -85.77023446602287 -11.049466059479094 -85.53930072368875 A 0.5625 0.5625 0 0 0 -10.447 -85.2372A 85.875 85.875 0 0 1 -10.2552 -85.2605A 0.5625 0.5625 0 0 0 -9.74251 -85.698C -9.69599779590956 -85.94730272694194 -9.643460374574662 -86.20813316087178 -9.584179347909416 -86.48023575440925 C -9.431762795775803 -87.17981230837323 -9.234855773309869 -87.9536429712299 -8.981487634442765 -88.79697560237737 A 89.25 89.25 0 0 1 -7.76875 -88.9113C -7.3622611794669215 -88.13014798234329 -7.024228954322524 -87.40673904886408 -6.743778282248847 -86.74796322906357 C -6.63469793169719 -86.49172986149442 -6.534348661907453 -86.24531005718232 -6.442075453947877 -86.00908284793464 A 0.5625 0.5625 0 0 0 -5.85666 -85.6751A 85.875 85.875 0 0 1 -5.66391 -85.688A 0.5625 0.5625 0 0 0 -5.12848 -86.0974C -5.068658217620776 -86.34384704869147 -5.002196037161601 -86.60148143007945 -4.928394921614815 -86.87000974679177 C -4.738647186033159 -87.56039656377342 -4.500487408583859 -88.32254234423728 -4.2022172793251915 -89.15105925447095 A 89.25 89.25 0 0 1 -2.98509 -89.2001C -2.6211182081065463 -88.3982783339333 -2.3224034536144806 -87.65776785748997 -2.0777179532217724 -86.98488810142803 C -1.9825485997029368 -86.72316906183957 -1.8955709809619739 -86.47171809297545 -1.816110677211722 -86.23087852101102 A 0.5625 0.5625 0 0 0 -1.24947 -85.8659A 85.875 85.875 0 0 1 -1.05631 -85.8685A 0.5625 0.5625 0 0 0 -0.49967 -86.2486C -0.42670438555833967 -86.49143970741977 -0.3465090736463312 -86.74513520965007 -0.25840065693914616 -87.00931501288576 C -0.03186882975145178 -87.68852152897011 0.24685702638999618 -88.43678496345814 0.5891691560438741 -89.24809732404619 A 89.25 89.25 0 0 1 1.80718 -89.2317C 2.1275821255811684 -88.41153356527258 2.3861181374549023 -87.65605662926592 2.594332974526852 -86.9710130234688 C 2.6753169331300164 -86.70456291560382 2.7486721218313317 -86.44880578042446 2.815090416746522 -86.2040482485758 A 0.5625 0.5625 0 0 0 3.36132 -85.8092A 85.875 85.875 0 0 1 3.55435 -85.8014A 0.5625 0.5625 0 0 0 4.13058 -86.151C 4.216479745709283 -86.38965515528412 4.310176965229584 -86.63868030854923 4.412338643723023 -86.8977498995469 C 4.67500141261629 -87.5638177865207 4.9934897086523895 -88.296041437847 5.378856864216757 -89.08781002522802 A 89.25 89.25 0 0 1 6.59423 -89.0061C 6.870148089229919 -88.1698754580977 7.087759932235428 -87.40161029810585 7.258903768710409 -86.70637800062748 C 7.325468834680795 -86.43596506912334 7.384990091343853 -86.1766391816578 7.438174876285921 -85.92866938924999 A 0.5625 0.5625 0 0 0 7.96242 -85.5051A 85.875 85.875 0 0 1 8.15476 -85.4869A 0.5625 0.5625 0 0 0 8.74892 -85.8051C 8.847506674342753 -86.03878686349746 8.954435648131911 -86.28242366381497 9.070356029845739 -86.53563607787798 C 9.368392415685898 -87.18664488959696 9.725724867411564 -87.90071756742275 10.153035935616273 -88.67065950779286 A 89.25 89.25 0 0 1 11.3623 -88.5238C 11.592905637450471 -87.67400077529017 11.768965880310818 -86.89516249865146 11.902545264203974 -86.19174604418147 C 11.954499513224574 -85.91814995952197 12.000015222658046 -85.6560030234359 12.039813152123969 -85.40553593157287 A 0.5625 0.5625 0 0 0 12.5406 -84.9544A 85.875 85.875 0 0 1 12.7316 -84.926A 0.5625 0.5625 0 0 0 13.342 -85.2118C 13.453023950864779 -85.43984647617494 13.572876375010472 -85.67739245557883 13.702221231475699 -85.9240176157679 C 14.034771918209183 -86.5580903253001 14.429918243662826 -87.25195317324203 14.89794117607949 -87.99784852467091 A 89.25 89.25 0 0 1 16.0976 -87.7863C 16.282237837642793 -86.9253392519284 16.416238853100797 -86.13817345101361 16.511868640468442 -85.42860097128485 C 16.549062274989844 -85.15261058180835 16.5804412036207 -84.88839843458094 16.60673752987727 -84.63615620472736 A 0.5625 0.5625 0 0 0 17.0826 -84.1588A 85.875 85.875 0 0 1 17.2718 -84.1201A 0.5625 0.5625 0 0 0 17.8967 -84.3728C 18.019752676729137 -84.59456089350188 18.152182985666148 -84.82533114543959 18.294579382177858 -85.06465796757362 C 18.66068554008685 -85.67996637915398 19.092506430119982 -86.35161881099994 19.599891795476545 -87.07131696409823 A 89.25 89.25 0 0 1 20.7864 -86.7957C 20.924624131138415 -85.92604947299155 21.016179559577434 -85.13282575057967 21.073584024986737 -84.41914312673944 C 21.095909806132237 -84.1415541841849 21.11306148038612 -83.87603861783363 21.125780384317366 -83.62274852963655 A 0.5625 0.5625 0 0 0 21.5753 -83.1205A 85.875 85.875 0 0 1 21.7622 -83.0718A 0.5625 0.5625 0 0 0 22.3997 -83.2905C 22.534525790822183 -83.5053672926337 22.679152153687387 -83.728696446729 22.834189524572043 -83.96003488962484 C 23.232795574828756 -84.55480490981681 23.700045978029195 -85.20231037773398 24.245330852969612 -85.8937362564168 A 89.25 89.25 0 0 1 25.4154 -85.5548C 25.506679316470603 -84.67901264960015 25.555525179889337 -83.8820180750261 25.574538811406132 -83.16628303883118 C 25.581932368169173 -82.88789590397991 25.584807335329128 -82.62184246861706 25.583912145042444 -82.3682348229704 A 0.5625 0.5625 0 0 0 26.0058 -81.8426A 85.875 85.875 0 0 1 26.1899 -81.7839A 0.5625 0.5625 0 0 0 26.8382 -81.9681C 26.984326033508843 -82.17540610068308 27.140731455058425 -82.39065024117114 27.30796278744097 -82.61333329621094 C 27.737919445614686 -83.18585004907717 28.239252158112087 -83.80734162718069 28.82086434518308 -84.46850167164921 A 89.25 89.25 0 0 1 29.971 -84.0673C 30.015192142375476 -83.18782431173862 30.021187605504878 -82.38935682668026 30.00175558190741 -81.67363302752354 C 29.994195596749858 -81.39525036255189 29.982785567541313 -81.12942615910531 29.968278864102043 -80.8762321725033 A 0.5625 0.5625 0 0 0 30.3614 -80.3287A 85.875 85.875 0 0 1 30.542 -80.2602A 0.5625 0.5625 0 0 0 31.1993 -80.4094C 31.35632347876217 -80.60851194005576 31.524057001676866 -80.81505046235893 31.70300012433458 -81.02843607664866 C 32.16306771407617 -81.57704884818226 32.697037263879544 -82.17073461536586 33.31329982458284 -82.79972253005621 A 89.25 89.25 0 0 1 34.4403 -82.3373C 34.43716339924965 -81.45678394141149 34.40029117561746 -80.65914573432885 34.34246952446016 -79.94549678920396 C 34.31997779477629 -79.66792124340043 34.29431566726719 -79.40309271186302 34.26623927725672 -79.15104240811381 A 0.5625 0.5625 0 0 0 34.6294 -78.5832A 85.875 85.875 0 0 1 34.8061 -78.5051A 0.5625 0.5625 0 0 0 35.4704 -78.6188C 35.637912526160875 -78.80920257224146 35.81649053127266 -79.00643997233293 36.00662950485961 -79.2099128999071 C 36.49548153220935 -79.7330398974674 37.060548346877006 -80.29720810397585 37.70968443671715 -80.89221035390283 A 89.25 89.25 0 0 1 38.8102 -80.37C 38.75984339923611 -79.49088257612381 38.68020980100824 -78.6963734444539 38.58416523707978 -77.98685698801316 C 38.54680661234876 -77.71088888353277 38.50696637709591 -77.44781959311759 38.46540125201482 -77.19763969849556 A 0.5625 0.5625 0 0 0 38.7975 -76.6111A 85.875 85.875 0 0 1 38.9698 -76.5237A 0.5625 0.5625 0 0 0 39.6393 -76.6015C 39.81674824609916 -76.78266587193782 40.00565584679049 -76.97003346333398 40.20644245142422 -77.16300703906899 C 40.7226694294373 -77.65913995209924 41.317204275062736 -78.19216395494595 41.99734226664974 -78.75146499459376 A 89.25 89.25 0 0 1 43.0682 -78.1709C 42.970768736875456 -77.29578841842795 42.84860336833049 -76.5066991376733 42.71461281297191 -75.80336088953439 C 42.66249500777991 -75.52979591386267 42.608591534495055 -75.26924436143518 42.553657517359 -75.02165620934103 A 0.5625 0.5625 0 0 0 42.8538 -74.4182A 85.875 85.875 0 0 1 43.0211 -74.3216A 0.5625 0.5625 0 0 0 43.6938 -74.3634C 43.880781973413974 -74.53474486906488 44.07947450016922 -74.71170242249552 44.290329816090605 -74.89362025361714 C 44.83244332875286 -75.36132860249432 45.45473200746787 -75.86167155549427 46.16391088690351 -76.38365877517838 A 89.25 89.25 0 0 1 47.2021 -75.7465C 47.057798224329744 -74.87783049302831 46.89345331985034 -74.09643621185828 46.72190310251909 -73.40130407826493 C 46.65517638599032 -73.130930990045 46.58736509234102 -72.87364841318028 46.51922057214226 -72.62936586435008 A 0.5625 0.5625 0 0 0 46.7866 -72.0106A 85.875 85.875 0 0 1 46.9484 -71.9052A 0.5625 0.5625 0 0 0 47.6224 -71.9108C 47.81829604680602 -72.07192090179711 48.026200617634686 -72.23795820282642 48.24651669438344 -72.40829577313414 C 48.8129536881 -72.84623103361196 49.46120198055092 -73.312450318507 50.19737700153941 -73.79561869394533 A 89.25 89.25 0 0 1 51.1999 -73.1036C 51.00914789757022 -72.24398039856483 50.803097306060245 -71.47253407897287 50.5944820504424 -70.78761230581631 C 50.51333881297427 -70.52121066065344 50.43181521647454 -70.26793887162376 50.350656671505504 -70.02766625588362 A 0.5625 0.5625 0 0 0 50.5844 -69.3955A 85.875 85.875 0 0 1 50.7404 -69.2815A 0.5625 0.5625 0 0 0 51.4137 -69.251C 51.617937593890815 -69.40129492918757 51.83445476609458 -69.55593324929431 52.06359637538784 -69.71419943147735 C 52.6527236656713 -70.12109892283078 53.32506250421785 -70.5518503087316 54.08611108359881 -70.99480674041912 A 89.25 89.25 0 0 1 55.05 -70.25C 54.8134249925964 -69.40183220668904 54.566262811251846 -68.64255812812019 54.32118400913395 -67.96982152217929 C 54.22585820768575 -67.70815942498031 54.13085736196847 -67.45962867191835 54.036918793323935 -67.22405875741926 A 0.5625 0.5625 0 0 0 54.2364 -66.5802A 85.875 85.875 0 0 1 54.386 -66.4581A 0.5625 0.5625 0 0 0 55.0567 -66.3914C 55.26875126446833 -66.53056705726486 55.49325676298956 -66.67336053414067 55.730563230249444 -66.81909900582517 C 56.34068221061354 -67.19378953148585 57.035173068334664 -67.58783105063755 57.81890090603977 -67.98929838051282 A 89.25 89.25 0 0 1 58.7414 -67.1939C 58.45966079372352 -66.35958056638994 58.1720996550965 -65.61466791256727 57.89126393210901 -64.95605614762945 C 57.78203041564349 -64.69988803795755 57.67382623273988 -64.45681489936196 57.5673784896313 -64.22662689514978 A 0.5625 0.5625 0 0 0 57.732 -63.573A 85.875 85.875 0 0 1 57.8749 -63.443A 0.5625 0.5625 0 0 0 58.541 -63.3404C 58.76021081763381 -63.46801433763398 58.992057335002144 -63.598551260719844 59.23684444425162 -63.73134182016436 C 59.866195983733405 -64.07274305035008 60.58083646370227 -64.4289385790467 61.384983869490455 -64.78775927286918 A 89.25 89.25 0 0 1 62.2635 -63.9439C 61.93734225922954 -63.12599707669946 61.61021127652417 -62.39759362364077 61.294428354756896 -61.7550056479203 C 61.17160207177949 -61.50507012475032 61.050506532359854 -61.268155443404446 60.93185653118693 -61.04401304108448 A 0.5625 0.5625 0 0 0 61.0612 -60.3825A 85.875 85.875 0 0 1 61.1968 -60.245A 0.5625 0.5625 0 0 0 61.8565 -60.1068C 62.0822494716555 -60.22246690259388 62.32076853434286 -60.340370900148216 62.572330500977486 -60.459830677794145 C 63.219100016167324 -60.76695826437915 63.95182962487996 -61.084280798702515 64.77407803360933 -61.39942028352337 A 89.25 89.25 0 0 1 65.606 -60.5097C 65.23644233317617 -59.710404995901605 64.87068470970054 -59.00061091932513 64.5208650730642 -58.37589948030386 C 64.38480016354498 -58.132917172450334 64.2511624173977 -57.902844034710995 64.12065225682893 -57.68539349485328 A 0.5625 0.5625 0 0 0 64.2143 -57.0179A 85.875 85.875 0 0 1 64.3424 -56.8733A 0.5625 0.5625 0 0 0 64.9937 -56.6999C 65.22528892911187 -56.80328250558027 65.46979282491469 -56.90821362985613 65.7274043306624 -57.01399819223976 C 66.38972701761764 -57.28596660688526 67.13843310592917 -57.56350122382312 67.9764117625805 -57.8340508709269 A 89.25 89.25 0 0 1 68.7594 -56.9009C 68.34744885600641 -56.122652360165596 67.9441191656733 -55.4335141801397 67.56127143473874 -54.82848048261645 C 67.4123602090352 -54.59315197097417 67.26656556837743 -54.37058373725691 67.12457154299113 -54.16045202605964 A 0.5625 0.5625 0 0 0 67.1822 -53.4889A 85.875 85.875 0 0 1 67.3024 -53.3377A 0.5625 0.5625 0 0 0 67.9435 -53.1296C 68.18026699360315 -53.22031954033977 68.4300507544947 -53.311975247742154 68.69296903869608 -53.40377959058552 C 69.36893524965365 -53.63980467794717 70.13145910409263 -53.87675117335301 70.98275189926979 -54.10193091806947 A 89.25 89.25 0 0 1 71.7145 -53.1281C 71.26139199056341 -52.373083589107814 70.82165313728072 -51.70658826940391 70.40688116116465 -51.122976782154744 C 70.24555296888941 -50.89598057974267 70.08802179741228 -50.68155897188191 69.93495331274188 -50.47935195346563 A 0.5625 0.5625 0 0 0 69.9565 -49.8057A 85.875 85.875 0 0 1 70.0683 -49.6482A 0.5625 0.5625 0 0 0 70.6973 -49.406C 70.93866369840916 -49.48390861662902 71.1930071331448 -49.562024640026415 71.46047413432439 -49.63958406764354 C 72.14813488370956 -49.838985306294255 72.92227795060779 -50.03466050208307 73.78443038680668 -50.21382109291554 A 89.25 89.25 0 0 1 74.4629 -49.2021C 73.9698700844528 -48.47250966015261 73.49498994917047 -47.83057887931418 73.04948962285278 -47.27007230533735 C 72.87620961494746 -47.052062900969936 72.7073961157987 -46.846406151968836 72.5436945079106 -46.6527068415133 A 0.5625 0.5625 0 0 0 72.529 -45.9789A 85.875 85.875 0 0 1 72.6323 -45.8156A 0.5625 0.5625 0 0 0 73.2473 -45.54C 73.49252587175896 -45.60482277439223 73.75069564237405 -45.66917388506716 74.02194018392782 -45.732264773550284 C 74.71931276778419 -45.89446723809969 75.50284299227606 -46.04830695202726 76.37336926083623 -46.180931822612735 A 89.25 89.25 0 0 1 76.9965 -45.1343C 76.4650738941814 -44.43217693768547 75.9564216792625 -43.816661548331396 75.4814774955114 -43.28087597317898 C 75.29674528309612 -43.07248194440549 75.11713618929481 -42.876183015910115 74.94327345230226 -42.69154989867066 A 0.5625 0.5625 0 0 0 74.8925 -42.0195A 85.875 85.875 0 0 1 74.9868 -41.8509A 0.5625 0.5625 0 0 0 75.5862 -41.5426C 75.83449006788422 -41.594246422298056 76.09574180409723 -41.644647079339755 76.36998181779431 -41.693087521324934 C 77.07505553043259 -41.81762354007812 77.86571379204707 -41.929184212424424 78.74210394038165 -42.0148909709282 A 89.25 89.25 0 0 1 79.3082 -40.9363C 78.73980910122822 -40.263734746873006 78.19885138268404 -39.67640943921033 77.69583272853087 -39.16688967139522 C 77.50018094239593 -38.968711872147914 77.31029411345526 -38.78233674478538 77.12677153863716 -38.60730216583529 A 0.5625 0.5625 0 0 0 77.04 -37.9389A 85.875 85.875 0 0 1 77.1251 -37.7655A 0.5625 0.5625 0 0 0 77.7071 -37.4255C 77.95780379773912 -37.4637430901945 78.22138424316385 -37.50004797546142 78.49782902405181 -37.533698304614546 C 79.20857095543481 -37.62020880799058 80.00407758172462 -37.68916878045736 80.8838047501633 -37.727710312107604 A 89.25 89.25 0 0 1 81.3912 -36.6203C 80.78751705512663 -35.97920178564326 80.21581355409837 -35.42175997057588 79.6861707625404 -34.939975087488946 C 79.48016351743395 -34.752584915665686 79.28054644623803 -34.57667095717542 79.0878931766864 -34.411739586517314 A 0.5625 0.5625 0 0 0 78.9653 -33.749A 85.875 85.875 0 0 1 79.041 -33.5712A 0.5625 0.5625 0 0 0 79.6039 -33.2005C 79.8563449981747 -33.22522208845837 80.1214941821535 -33.24732652556798 80.39934666836527 -33.26608971927899 C 81.11370756551383 -33.31432527510152 81.91176890494118 -33.34048571823635 82.79229661232091 -33.33175089782001 A 89.25 89.25 0 0 1 83.2395 -32.1987C 82.60229368375194 -31.59093147166772 82.00149276943094 -31.064980398254384 81.44675293774574 -30.61231951043404 C 81.23098420588488 -30.436257260410216 81.0222124401252 -30.271311676273694 80.82098394508863 -30.116959053745237 A 0.5625 0.5625 0 0 0 80.663 -29.4617A 85.875 85.875 0 0 1 80.7291 -29.2802A 0.5625 0.5625 0 0 0 81.2713 -28.8798C 81.52463968343145 -28.890904170370945 81.79059311222724 -28.898744426508838 82.06905218311695 -28.902566385633005 C 82.78497235863676 -28.91238791830777 83.58328739376459 -28.895673404780908 84.46207685076128 -28.83968741704643 A 89.25 89.25 0 0 1 84.8478 -27.6843C 84.17890651628944 -27.111576324260703 83.55074045324204 -26.618632445599925 82.97250303997083 -26.19640069156687 C 82.74759493846594 -26.032173996386827 82.5302704211883 -25.87867236742286 82.32104689451033 -25.73534353159234 A 0.5625 0.5625 0 0 0 82.1281 -25.0895A 85.875 85.875 0 0 1 82.1844 -24.9047A 0.5625 0.5625 0 0 0 82.7043 -24.4758C 82.95787772805744 -24.473286296522463 83.22386858908722 -24.466839766200575 83.50213137506829 -24.455709471040343 C 84.21754664576184 -24.42708866254613 85.01381362768271 -24.367547384626977 85.88833105679807 -24.2644716516702 A 89.25 89.25 0 0 1 86.2115 -23.09C 85.51280976980246 -22.55405148389062 84.85908972340286 -22.09553608479381 84.25902193669741 -21.704950867998768 C 84.02562293382745 -21.553033235738365 83.80037226787434 -21.411418146880482 83.58375695514445 -21.279526351885377 A 0.5625 0.5625 0 0 0 83.3565 -20.645A 85.875 85.875 0 0 1 83.4027 -20.4574A 0.5625 0.5625 0 0 0 83.8988 -20.0012C 84.15192673574529 -19.985105602839408 84.41718810849916 -19.964390873073484 84.69445230592525 -19.938340415151117 C 85.40729994436639 -19.87135978668793 86.19922302924037 -19.76916341729429 87.06694697033846 -19.61929513313671 A 89.25 89.25 0 0 1 87.3266 -18.4292C 86.60015745590131 -17.931497474486395 85.92276827027293 -17.50873257354581 85.30260026090288 -17.150920052280277 C 85.06138330641353 -17.01174950080049 84.8288559477659 -16.882429265010014 84.60547340700627 -16.762354789038355 A 0.5625 0.5625 0 0 0 84.3444 -16.1409A 85.875 85.875 0 0 1 84.3805 -15.9512A 0.5625 0.5625 0 0 0 84.8515 -15.469C 85.10334395410023 -15.439302676124848 85.36711102137191 -15.40437947284326 85.64257720578598 -15.363483962372682 C 86.35080188769696 -15.258336636431768 87.13609775626391 -15.113779834152348 87.99452633659334 -14.917551107853859 A 89.25 89.25 0 0 1 88.1899 -13.7152C 87.43781446972339 -13.257242315905765 86.73870923324527 -12.871446853772703 86.1002291061256 -12.547438694163018 C 85.85188969094092 -12.421416488191092 85.61275607616851 -12.304763969185155 85.38325037707156 -12.196853018035046 A 0.5625 0.5625 0 0 0 85.0892 -11.5904A 85.875 85.875 0 0 1 85.1151 -11.3989A 0.5625 0.5625 0 0 0 85.5595 -10.8921C 85.80938620098681 -10.848984242996165 86.0708984540395 -10.7999532588346 86.3437723851215 -10.744330608159183 C 87.045332115405 -10.601319751700903 87.82173655638498 -10.414819311218343 88.66839470412577 -10.172795920994927 A 89.25 89.25 0 0 1 88.799 -8.9617C 88.02336562925215 -8.544763095803232 87.30456004329965 -8.197049420666549 86.64960870192127 -7.907779822113423 C 86.39486285286328 -7.795269316292755 86.14981246608241 -7.691620853481693 85.91484533299119 -7.596184562360395 A 0.5625 0.5625 0 0 0 85.5887 -7.00634A 85.875 85.875 0 0 1 85.6043 -6.81378A 0.5625 0.5625 0 0 0 86.0208 -6.28389C 86.26801777383285 -6.227385379799749 86.52652120514288 -6.1643879837782825 86.79601611671015 -6.094198567399056 C 87.48888811704984 -5.913736517744042 88.25416255545029 -5.685830168107942 89.08660913598669 -5.398709930046624 A 89.25 89.25 0 0 1 89.152 -4.18235C 88.35512263891205 -3.807647111698007 87.6186892060679 -3.4990177720963613 86.9491550446964 -3.2453207737361374 C 86.68873725999443 -3.146646364980797 86.4384766449068 -3.0563008037145476 86.19872554889234 -2.9736143401551214 A 0.5625 0.5625 0 0 0 85.8414 -2.40213A 85.875 85.875 0 0 1 85.8466 -2.20901A 0.5625 0.5625 0 0 0 86.2341 -1.65753" stroke="#191919" stroke-width="0.35 px" style="stroke-width:0.35;stroke-miterlimit:4;stroke-dasharray:none;fill:none;fill-rule: evenodd "/>
<title>b'InvoluteGear'</title>
</g>
</svg>