<?xml version="1.0"?>
<!DOCTYPE svg PUBLIC "-//W3C//DTD SVG 1.1//EN" "http://www.w3.org/Graphics/SVG/1.1/DTD/svg11.dtd">
<svg width="220.31650037874695mm" height="220.29076032381263mm" viewBox="0 0 220.31650037874695 220.29076032381263" xmlns="http://www.w3.org/2000/svg" version="1.1">
<g id="InvoluteGear" transform="translate(110.158250,110.145380) scale(1,-1)">
<path id="InvoluteGear_w0000"  d="M 104.98672608742052 -1.6695344994744175 C 105.23219187161813 -1.5958774832871552 105.48611882909009 -1.5164445031642106 105.74829976695223 -1.4308042521384348 C 106.44201651407263 -1.2042019224549816 107.19338301278124 -0.9342042919053797 107.99828449938575 -0.6129471694818127 A 108 108 0 0 1 107.998 0.612947C 107.19338301278124 0.9342042919053797 106.44201651407263 1.2042019224549816 105.74829976695223 1.4308042521384348 C 105.48611882909009 1.5164445031642106 105.23219187161813 1.5958774832871552 104.98672658456711 1.6695342910636626 A 0.5625 0.5625 0 0 0 104.601 2.22296A 104.625 104.625 0 0 1 104.597 2.40608A 0.5625 0.5625 0 0 0 104.958 2.97601C 105.19978439501861 3.0604565489997366 105.44994922896753 3.151043821381075 105.70808539616344 3.248197390329565 C 106.39109977231143 3.505263341066791 107.12978795461021 3.8082321599511526 107.91969134730144 4.164778330959772 A 108 108 0 0 1 107.865 5.38947C 107.04714198989782 5.6748119949902245 106.28456800998481 5.911309904164162 105.58150687500147 6.10700502809223 C 105.315794397971 6.180964316382239 105.05860239091967 6.249087510458022 104.81011927166482 6.311814473753281 A 0.5625 0.5625 0 0 0 104.401 6.84765A 104.625 104.625 0 0 1 104.389 7.03042A 0.5625 0.5625 0 0 0 104.723 7.61574C 104.9614434002784 7.7107995938727605 105.20735640129406 7.812363829672824 105.46094248415439 7.920840533870474 C 106.13191745661429 8.207866886991074 106.85648130569753 8.543213818519796 107.62984033149037 8.934351082240292 A 108 108 0 0 1 107.521 10.1554C 106.69135115962975 10.404310987105404 105.91906247288851 10.606846219140518 105.20803322522976 10.771251054918258 C 104.93930935368262 10.833384601692538 104.67935576248348 10.890064655369688 104.42834122839952 10.941738983207388 A 0.5625 0.5625 0 0 0 103.996 11.4589A 104.625 104.625 0 0 1 103.975 11.641A 0.5625 0.5625 0 0 0 104.284 12.2406C 104.51763545108723 12.346048386441222 104.75881523292206 12.458390768898969 105.00735482478119 12.577978260103242 C 105.66497692853538 12.89440314804221 106.37399807664293 13.261471734848918 107.12929884892743 13.68643442171973 A 108 108 0 0 1 106.967 14.9015C 106.12670699923522 15.113443051876335 105.34621539703677 15.281619134544846 104.62860990984485 15.414411851985763 C 104.35740068337891 15.46459802790871 104.09519437939416 15.509723987320456 103.84213980321921 15.550244524777225 A 0.5625 0.5625 0 0 0 103.387 16.0478A 104.625 104.625 0 0 1 103.359 16.2288A 0.5625 0.5625 0 0 0 103.641 16.8414C 103.86922932234688 16.95712920952214 104.10520376425212 17.080029823148305 104.34821033718755 17.210494003229336 C 104.99119224608596 17.5556980094092 105.68328275102475 17.95376969749766 106.41904673307019 18.411725923102964 A 108 108 0 0 1 106.203 19.6185C 105.35431482617393 19.79298984214513 104.5671481574815 19.92647756286766 103.84437117719641 20.02739821399141 C 103.57120750060842 20.065538777266912 103.30726176499132 20.099022306228587 103.05266251294172 20.128309732449505 A 0.5625 0.5625 0 0 0 102.576 20.6052A 104.625 104.625 0 0 1 102.54 20.7848A 0.5625 0.5625 0 0 0 102.794 21.4093C 103.01749429950354 21.535015655867735 103.2478014704278 21.668233916939723 103.48479932766139 21.809319396138395 C 104.11188237442289 22.182626767506264 104.7856874365289 22.61092231285357 105.50047433578891 23.100975606376103 A 108 108 0 0 1 105.231 24.297C 104.37568663439622 24.433790925318075 103.58338581492916 24.53232897561272 102.85685221143143 24.601180003505494 C 102.58226881544614 24.62720029218985 102.31710033436909 24.648975845121125 102.0614547964367 24.66697282859403 A 0.5625 0.5625 0 0 0 101.564 25.1224A 104.625 104.625 0 0 1 101.52 25.3001A 0.5625 0.5625 0 0 0 101.747 25.9353C 101.96409769386197 26.070746297781504 102.18828675670292 26.214021425297336 102.41881196379971 26.365452022162735 C 103.02876860391243 26.766131992008617 103.68296921813464 27.22381298597198 104.37537980568749 27.74500404507674 A 108 108 0 0 1 104.054 28.9279C 103.1927381345439 29.026761715342612 102.39685413036284 29.090157202348564 101.66798612729939 29.126803827890008 C 101.39252052180888 29.14065290604621 101.12664837502588 29.150677856279636 100.87045698935634 29.15734916706424 A 0.5625 0.5625 0 0 0 100.353 29.5903A 104.625 104.625 0 0 1 100.301 29.7659A 0.5625 0.5625 0 0 0 100.5 30.4105C 100.71110157874523 30.555442229533735 100.92873367288442 30.70849375570309 101.15233496592606 30.86997303773066 C 101.74397118062336 31.297241256197633 102.37728671853817 31.783411766738634 103.04596556814307 32.33472033545227 A 108 108 0 0 1 102.672 33.5023C 101.80778500385681 33.56291125621109 101.00987579527464 33.59104008028549 100.28010018598914 33.595410565985176 C 100.00429160785202 33.59706132339238 99.7382362525758 33.59531604661711 99.48200052583731 33.59064862530926 A 0.5625 0.5625 0 0 0 98.9463 34.0003A 104.625 104.625 0 0 1 98.8866 34.1735A 0.5625 0.5625 0 0 0 99.0562 34.8261C 99.26095875288948 34.98032444823647 99.47160785328262 35.14285276750956 99.68784752223763 35.31406463142167 C 100.26000515584597 35.767084700907546 100.87119587254737 36.280793026421215 101.51483401395505 36.86113989233098 A 108 108 0 0 1 101.09 38.011C 100.2235383531257 38.033359822179456 99.4251658848881 38.02616691982823 98.69591123940603 37.99825271025517 C 98.42029959686602 37.98770191547823 98.15458184894848 37.9741898281555 97.89880337460899 37.9581928114516 A 0.5625 0.5625 0 0 0 97.3455 38.3437A 104.625 104.625 0 0 1 97.2782 38.5141A 0.5625 0.5625 0 0 0 97.4188 39.1736C 97.61650793897506 39.33673103915391 97.81976169011605 39.508417994713426 98.02821643567783 39.68902728524633 C 98.57977546276089 40.16691239769125 99.16764492371938 40.70715293000662 99.78498240504274 41.31540203686938 A 108 108 0 0 1 99.3096 42.4454C 98.44309941956568 42.42935630024731 97.64582654327086 42.38685575191461 96.91852041180657 42.3267114904449 C 96.64364522759666 42.30397979716005 96.37878524200748 42.27872734983533 96.12396471844188 42.25143205264679 A 0.5625 0.5625 0 0 0 95.5542 42.6121A 104.625 104.625 0 0 1 95.4794 42.7793A 0.5625 0.5625 0 0 0 95.5907 43.4445C 95.78096822669373 43.61613413180723 95.97642874981992 43.79664363837523 96.17669051203498 43.98629680436131 C 96.70657122989599 44.48811147721614 97.26996865303536 45.05382667012148 97.85979700716452 45.688787341747144 A 108 108 0 0 1 97.3349 46.7966C 96.46995349599874 46.74229532087263 95.675340910742 46.66457032337763 94.95140702920216 46.57231374522747 C 94.6778063844036 46.5374456517918 94.41432263700243 46.500502277316585 94.16095888735195 46.46196213146944 A 0.5625 0.5625 0 0 0 93.5758 46.7971A 104.625 104.625 0 0 1 93.4937 46.9608A 0.5625 0.5625 0 0 0 93.5754 47.6302C 93.75793277122933 47.81015659368159 93.94521744318783 47.999135295422235 94.13689420025236 48.197461081882935 C 94.64405934250287 48.722222989360326 95.18188185091017 49.31230542879951 95.74304646114354 49.972734699855586 A 108 108 0 0 1 95.1697 51.0563C 94.30796310822927 50.96373410338669 93.51756630546127 50.85093680706196 92.79842180841501 50.72674850881545 C 92.5266312891383 50.67981227115928 92.26503956173387 50.63125028792397 92.01362855743646 50.58154073756356 A 0.5625 0.5625 0 0 0 91.4142 50.8905A 104.625 104.625 0 0 1 91.3249 51.0504A 0.5625 0.5625 0 0 0 91.377 51.7228C 91.55136175948779 51.91058842885634 91.73010396173835 52.10766639108651 91.91282049739922 52.31427656598146 C 92.39627726445678 52.86095846200467 92.90747204531561 53.474253033892204 93.43887440557634 54.15885808306679 A 108 108 0 0 1 92.8181 55.216C 91.9613604539685 55.085408983133725 91.17672667254777 54.9377601939838 90.46377931911911 54.78188328006664 C 90.194330968069 54.7229707780793 89.93514333875207 54.66288524844654 89.68617722865491 54.602103602352074 A 0.5625 0.5625 0 0 0 89.0736 54.8842A 104.625 104.625 0 0 1 88.9774 55.0401A 0.5625 0.5625 0 0 0 88.9997 55.7141C 89.16557465784524 55.90940284945763 89.33542449413322 56.114194282811475 89.50882313219152 56.32868439702088 C 89.96762513473146 56.89621612610624 90.45119150025258 57.5315222775173 90.95179136546577 58.23896295827756 A 108 108 0 0 1 90.2849 59.2676C 89.43473911810875 59.099251587982565 88.65740431550887 58.917040335445776 87.95204973362216 58.72977994223696 C 87.68547100859918 58.659006499907626 87.4291948493256 58.5875150441233 87.18316099628066 58.515780285221304 A 0.5625 0.5625 0 0 0 86.5588 58.7705A 104.625 104.625 0 0 1 86.4557 58.922A 0.5625 0.5625 0 0 0 86.4482 59.5963C 86.60524175658989 59.79877198847257 86.76586673788461 60.0108760041023 86.9296080423635 60.232826183155126 C 87.36285715392049 60.82009677529163 87.81784850023506 61.476170864600824 88.28666592265637 62.20506232859272 A 108 108 0 0 1 87.5749 63.2032C 86.73304508056525 62.99740463254394 85.96453092616596 62.78098760370379 85.26814988053877 62.562710302216786 C 85.00496262191567 62.48021446188234 84.75209960530196 62.39745702782839 84.50947963213035 62.31490958027808 A 0.5625 0.5625 0 0 0 83.8744 62.5418A 104.625 104.625 0 0 1 83.7648 62.6885A 0.5625 0.5625 0 0 0 83.7274 63.3618C 83.87537502760931 63.57108222316663 84.02646072296689 63.79008361750122 84.18022416257358 64.01905938349917 C 84.58707227766634 64.62491922892445 85.01259793784754 65.30047696029267 85.4487151853569 66.04939236824666 A 108 108 0 0 1 84.6935 67.015C 83.86156703428816 66.77223729917567 83.1033779306362 66.52203814052908 82.4173336198674 66.27317121883185 C 82.15805302906223 66.17911446997377 81.90909814633788 66.08525305921364 81.67036699303053 65.99205451352003 A 0.5625 0.5625 0 0 0 81.0259 66.1906A 104.625 104.625 0 0 1 80.9099 66.3324A 0.5625 0.5625 0 0 0 80.8427 67.0034C 80.9813183132201 67.21894907910742 81.12256896529692 67.44441914663315 81.26605354087762 67.67997226876159 C 81.64570423521525 68.30323536837703 82.04093122280058 68.9969543058209 82.44349457540588 69.76442762065679 A 108 108 0 0 1 81.6463 70.6957C 80.82592603239782 70.41636017566648 80.07954617026817 70.13286866381584 79.4051815583128 69.85389929059443 C 79.1503151892579 69.7484657537155 78.90575578129676 69.64368410436849 78.67138077529708 69.54001690106139 A 0.5625 0.5625 0 0 0 78.0188 69.7099A 104.625 104.625 0 0 1 77.8966 69.8463A 0.5625 0.5625 0 0 0 77.7998 70.5137C 77.92873686534581 70.73523168562048 78.05987596935728 70.96672905809207 78.19280080311727 71.20839843005284 C 78.54451089263716 71.84784471707246 78.90866553223854 72.55836687319486 79.27688695327267 73.3428957298583 A 108 108 0 0 1 78.4393 74.238C 77.63206448470932 73.92263972035742 76.89895493773216 73.60641080324999 76.23759012498628 73.29788507415286 C 75.98763689056761 73.18128114035268 75.7479516938953 73.06578436741796 75.5183916352838 72.95185143991607 A 0.5625 0.5625 0 0 0 74.8589 73.0927A 104.625 104.625 0 0 1 74.7308 73.2236A 0.5625 0.5625 0 0 0 74.6046 73.8861C 74.72360625552 74.11304675437873 74.84437710051172 74.35011826481845 74.96648198584673 74.59743080746712 C 75.28956298153237 75.25180853575566 75.62193242334205 75.97774303006982 75.95509110208162 76.77779167648234 A 108 108 0 0 1 75.0787 77.635C 74.28623452518617 77.28421222638472 73.56783038972652 76.93586493697583 72.92076002886886 76.5983868056061 C 72.67620922428061 76.47084073256083 72.44186743392524 76.34485492639513 72.2175716972968 76.22087930375432 A 0.5625 0.5625 0 0 0 71.5525 76.3324A 104.625 104.625 0 0 1 71.4187 76.4575A 0.5625 0.5625 0 0 0 71.2634 77.1138C 71.37220067742452 77.34578205376269 71.48236684879602 77.58796362355595 71.59341275965896 77.8404352109765 C 71.88723221528936 78.5084634054012 72.18716583051692 79.24838918704457 72.48460959320317 80.0623914904105 A 108 108 0 0 1 71.5712 80.88C 70.79498577309447 80.49449725770815 70.09269335898382 80.11471350217526 69.46118412063218 79.74894359782306 C 69.22251446555846 79.61070506296024 68.99397481657935 79.47447684669544 68.77538247137139 79.34070121701893 A 0.5625 0.5625 0 0 0 68.106 79.4227A 104.625 104.625 0 0 1 67.9669 79.5418A 0.5625 0.5625 0 0 0 67.7826 80.1905C 67.88108066486066 80.42710935261441 67.98042650715806 80.6739268999655 68.0801960659637 80.93106330716944 C 68.3441788161567 81.6114342711691 68.61108947066543 82.36390290067716 68.87223605716494 83.19026541326208 A 108 108 0 0 1 67.9235 83.9667C 67.16515251181565 83.54721053062381 66.4803465894343 83.13673375350301 65.86563468257849 82.74338808793269 C 65.63331338407701 82.59472769967601 65.41102325356928 82.44852374644275 65.19856220456265 82.30520998180774 A 0.5625 0.5625 0 0 0 64.5262 82.3575A 104.625 104.625 0 0 1 64.3819 82.4703A 0.5625 0.5625 0 0 0 64.1692 83.1103C 64.2570802491962 83.35099680804709 64.34541128826791 83.60196717601647 64.43370919141972 83.86326504641158 C 64.66733847754517 84.55464692187391 64.90070368119474 85.31818540656845 65.12504188480094 86.15529048494795 A 108 108 0 0 1 64.1429 86.889C 63.403840310415845 86.43637621554434 62.73786141951539 85.99600994440289 62.141150171579945 85.57585851022634 C 61.915632009502396 85.4170672782669 61.700026540835275 85.26117378916936 61.494112690510555 85.10860243300014 A 0.5625 0.5625 0 0 0 60.8201 85.1311A 104.625 104.625 0 0 1 60.671 85.2374A 0.5625 0.5625 0 0 0 60.4301 85.8673C 60.50729358142807 86.1117207730608 60.584436905117094 86.36635267536761 60.66109030532317 86.63130050610204 C 60.86390878708223 87.33233988053847 61.06327171652763 88.10545355797989 61.25036238467206 88.95166252965254 A 108 108 0 0 1 60.2368 89.6412C 59.51841211416072 89.15633863496616 58.87256393969451 88.68694490745939 58.29502144096887 88.24081017083935 C 58.07674787770784 88.07219893647058 57.86824912871107 87.90692108033443 57.669285563100004 87.74539079822549 A 0.5625 0.5625 0 0 0 56.995 87.7381A 104.625 104.625 0 0 1 56.8413 87.8377A 0.5625 0.5625 0 0 0 56.5728 88.4563C 56.6390610450486 88.70387700085027 56.70486564167615 88.96167198358825 56.76972448630594 89.22975112684134 C 56.9413351369962 89.93907568275559 57.10630552994096 90.72025114661481 57.25578242385493 91.57390751778054 A 108 108 0 0 1 56.2127 92.2179C 55.516473831204344 91.70177333472365 54.89202065130296 91.20427101111595 54.334777468349806 90.73302630174987 C 54.12417578465552 90.55492512938102 53.92319190142138 90.38058644537111 53.73156810104701 90.2104134404351 A 0.5625 0.5625 0 0 0 53.0582 90.1733A 104.625 104.625 0 0 1 52.9003 90.266A 0.5625 0.5625 0 0 0 52.6047 90.8721C 52.659954886900124 91.12239122387186 52.71429194087813 91.38284464125618 52.76722926569749 91.65353031951604 C 52.907296149411394 92.36975152077999 53.0375510685643 93.15745958340248 53.14912158020852 94.01689228162698 A 108 108 0 0 1 52.0785 94.6141C 51.40585944366684 94.06769750685832 50.804023654754275 93.54306047131088 50.268170617272425 93.047628272847 C 50.06565307583057 92.86038580388663 49.87257749374871 92.67732756816386 49.68866857119891 92.49884496204932 A 0.5625 0.5625 0 0 0 49.0176 92.4319A 104.625 104.625 0 0 1 48.8557 92.5176A 0.5625 0.5625 0 0 0 48.5336 93.1101C 48.57776439414631 93.36252908696041 48.620527538139925 93.62513108919565 48.66143971584958 93.89789342253565 C 48.7696886450847 94.61960923251402 48.86497311032474 95.4123079183764 48.93841883518332 96.27583456379391 A 108 108 0 0 1 47.8425 96.8251C 47.1946156722465 96.24947974369928 46.6165753961418 95.69873499784615 46.1031614616158 95.1800851420785 C 45.90912450002398 94.98406791245252 45.72433517361316 94.79264847010974 45.548501139240216 94.60620565089967 A 0.5625 0.5625 0 0 0 44.8811 94.5097A 104.625 104.625 0 0 1 44.7156 94.5881A 0.5625 0.5625 0 0 0 44.3676 95.1658C 44.40048064637655 95.41990541505193 44.43158616952325 95.68414194638693 44.460393112614106 95.95844698973062 C 44.53661218500809 96.68424461583358 44.59673967251999 97.48038218003309 44.6319168371375 98.34631237868395 A 108 108 0 0 1 43.5127 98.8466C 42.89098622438608 98.24284910406128 42.337873002074524 97.66707475660549 41.847903202391144 97.12622252498255 C 41.66272665711367 96.92181424762292 41.48658532015807 96.72240831120759 41.31917037734143 96.52837024947598 A 0.5625 0.5625 0 0 0 40.6567 96.4024A 104.625 104.625 0 0 1 40.4878 96.4734A 0.5625 0.5625 0 0 0 40.1146 97.0351C 40.136280872692616 97.2904927973697 40.15566788447013 97.55584660238578 40.1723132019983 97.83115739072946 C 40.21635321513768 98.55961605002041 40.24120602254105 99.35763401588848 40.23804576596583 100.22427266874466 A 108 108 0 0 1 39.0978 100.675C 38.503395656828474 100.0439034738127 37.97629223341695 99.44422663007778 37.51072570746809 98.8822307662414 C 37.334772070288246 98.6698315799501 37.167623527726555 98.46282949594686 37.00895539907859 98.26157603031156 A 0.5625 0.5625 0 0 0 36.3527 98.1064A 104.625 104.625 0 0 1 36.1809 98.1699A 0.5625 0.5625 0 0 0 35.7832 98.7146C 35.793512444398495 98.97062947126993 35.80114299382084 99.23658110743278 35.80559410179561 99.51235870697964 C 35.81736884528655 100.24205240742457 35.80689832204381 101.04038861731802 35.76540683062651 101.90603923851921 A 108 108 0 0 1 34.6064 102.305C 34.0404328841511 101.64911720444717 33.54037108934375 101.02671176001557 33.100119205466974 100.44467239726059 C 32.933732913892335 100.22469808341901 32.775904366845914 100.01050506812815 32.626293652679536 99.80243016169904 A 0.5625 0.5625 0 0 0 31.9775 99.6184A 104.625 104.625 0 0 1 31.8031 99.6742A 0.5625 0.5625 0 0 0 31.3817 100.201C 31.38067653462925 100.45702649031418 31.376535684537618 100.72305534480687 31.368783869706096 100.99875990795528 C 31.348270293935265 101.72826023986909 31.302496936587353 102.52535191316717 31.22275543187087 103.38831995097132 A 108 108 0 0 1 30.0472 103.736C 29.510834365562502 103.05534801470598 29.038793093805594 102.41143235746341 28.62471766573785 101.81048886517499 C 28.46822442874767 101.58337003383254 28.320024834009008 101.36240538013996 28.17976440432291 101.14791634931757 A 0.5625 0.5625 0 0 0 27.5398 100.935A 104.625 104.625 0 0 1 27.363 100.983A 0.5625 0.5625 0 0 0 26.9187 101.491C 26.906411476905227 101.74677416253637 26.890507333208117 102.01235947138353 26.87056777011186 102.28745129350399 C 26.81780603136715 103.01533022572963 26.736819443410596 103.80961701805037 26.618984023135077 104.66821317199849 A 108 108 0 0 1 25.4292 104.964C 24.923467002872954 104.25984314174147 24.480370297123034 103.59567776682525 24.093281896959766 102.9770065201099 C 23.94698805741439 102.7431877670444 23.80870752264964 102.51588402363627 23.67807194382158 102.29540074077083 A 0.5625 0.5625 0 0 0 23.0481 102.055A 104.625 104.625 0 0 1 22.8694 102.095A 0.5625 0.5625 0 0 0 22.4031 102.582C 22.379475855188677 102.8373477463015 22.351839550994235 103.10196961378915 22.319751272264373 103.37591018972157 C 22.234844654127073 104.10074286506794 22.118803370610934 104.89066992271565 21.963104703145124 105.74321345051665 A 108 108 0 0 1 20.7614 105.986C 20.28731078311798 105.26024472977925 19.874026025984392 104.57712977210004 19.514682397446617 103.94194184897603 C 19.378874332406923 103.70188088537677 19.250783548256553 103.46868301000498 19.13002854556673 103.24263708147662 A 0.5625 0.5625 0 0 0 18.5113 102.974A 104.625 104.625 0 0 1 18.331 103.007A 0.5625 0.5625 0 0 0 17.8436 103.473C 17.808731358544204 103.72661239260597 17.769416993215696 103.98975280900186 17.7252428131647 104.26200588720457 C 17.608357524327037 104.98237341167149 17.457488701513103 105.7663944153358 17.264231574310188 106.61121642299852 A 108 108 0 0 1 16.053 106.8C 15.611441199811845 106.05459444573181 15.228777415614555 105.3538671348984 14.897881990729923 104.7034059455537 C 14.772825550860777 104.4575727020302 14.655175261049916 104.21893719048677 14.54453721808676 103.98777111181572 A 0.5625 0.5625 0 0 0 13.9383 103.692A 104.625 104.625 0 0 1 13.7567 103.717A 0.5625 0.5625 0 0 0 13.2492 104.161C 13.20312543396642 104.41282732414474 13.152209967220179 104.67397117972665 13.096036358879928 104.94400381201406 C 12.947401207783734 105.65849603234393 12.762000178477471 106.43507622409247 12.531562901439308 107.27052293286404 A 108 108 0 0 1 11.3132 107.406C 10.905011487242973 106.64133731272752 10.55371775830946 105.92436935535703 10.251918280411054 105.2599082081155 C 10.137858269566157 105.00878391478629 10.030878780061968 104.7651779072914 9.93057427599015 104.52934419693224 A 0.5625 0.5625 0 0 0 9.33799 104.207A 104.625 104.625 0 0 1 9.15554 104.224A 0.5625 0.5625 0 0 0 8.62889 104.645C 8.5716737713322 104.89464924296459 8.509256872585375 105.15328533637192 8.441193798432112 105.42056892118558 C 8.261099745365573 106.12778718530448 8.04152944078829 106.89540637294368 7.7743631057060325 107.71984235665906 A 108 108 0 0 1 6.55117 107.801C 6.177234702587933 107.01932475405073 5.857998702889354 106.28751964858857 5.585885958627678 105.61035925734905 C 5.483045654634525 105.35443550181115 5.386946382811478 105.10633586856423 5.297171768408021 104.86629618207972 A 0.5625 0.5625 0 0 0 4.71941 104.519A 104.625 104.625 0 0 1 4.53642 104.527A 0.5625 0.5625 0 0 0 3.99165 104.924C 3.9234426547643206 105.17113496003307 3.8496465080273117 105.4267569989674 3.7698272047249337 105.69076831613839 C 3.558626792254155 106.38932821108331 3.3053170315880944 107.14648374400592 3.001944629108811 107.95829513051142 A 108 108 0 0 1 1.77635 107.985C 1.4373656909192858 107.18781684153474 1.1508123399163919 106.44260713084047 0.9089190027667677 105.75407306886831 C 0.8174997203498091 105.49385083389136 0.7324687850453226 105.24174324157525 0.6533997983337441 104.997967467924 A 0.5625 0.5625 0 0 0 0.0915836 104.625A 104.625 104.625 0 0 1 -0.0915836 104.625A 0.5625 0.5625 0 0 0 -0.6534 104.998C -0.7324687850453098 105.24174324157525 -0.8174997203497958 105.49385083389136 -0.9089190027667544 105.75407306886831 C -1.1508123399163785 106.44260713084047 -1.4373656909192725 107.18781684153474 -1.7763502950713452 107.98541447191856 A 108 108 0 0 1 -3.00194 107.958C -3.305317031588081 107.14648374400592 -3.5586267922541417 106.38932821108331 -3.7698272047249204 105.69076831613839 C -3.8496465080272984 105.4267569989674 -3.923442654764308 105.17113496003307 -3.9916512325294375 104.9241003017397 A 0.5625 0.5625 0 0 0 -4.53642 104.527A 104.625 104.625 0 0 1 -4.71941 104.519A 0.5625 0.5625 0 0 0 -5.29717 104.866C -5.386946382811466 105.10633586856423 -5.4830456546345125 105.35443550181115 -5.585885958627667 105.61035925734905 C -5.857998702889343 106.28751964858857 -6.177234702587922 107.01932475405073 -6.551167930131421 107.80114729349617 A 108 108 0 0 1 -7.77436 107.72C -8.041529440788278 106.89540637294368 -8.261099745365561 106.12778718530448 -8.4411937984321 105.42056892118558 C -8.509256872585363 105.15328533637192 -8.571673771332188 104.89464924296459 -8.628888418656814 104.64483928197346 A 0.5625 0.5625 0 0 0 -9.15554 104.224A 104.625 104.625 0 0 1 -9.33799 104.207A 0.5625 0.5625 0 0 0 -9.93057 104.529C -10.030878780061958 104.7651779072914 -10.137858269566145 105.00878391478629 -10.251918280411044 105.2599082081155 C -10.55371775830945 105.92436935535703 -10.905011487242962 106.64133731272752 -11.313161346325048 107.4058543068992 A 108 108 0 0 1 -12.5316 107.271C -12.76200017847746 106.43507622409247 -12.947401207783724 105.65849603234393 -13.096036358879918 104.94400381201406 C -13.152209967220166 104.67397117972665 -13.20312543396641 104.41282732414474 -13.249234150491592 104.1607310751856 A 0.5625 0.5625 0 0 0 -13.7567 103.717A 104.625 104.625 0 0 1 -13.9383 103.692A 0.5625 0.5625 0 0 0 -14.5445 103.988C -14.655175261049905 104.21893719048678 -14.772825550860766 104.4575727020302 -14.897881990729912 104.70340594555371 C -15.228777415614543 105.35386713489841 -15.611441199811834 106.05459444573182 -16.05300871791661 106.80030931671187 A 108 108 0 0 1 -17.2642 106.611C -17.457488701513093 105.76639441533581 -17.608357524327026 104.9823734116715 -17.72524281316469 104.26200588720458 C -17.769416993215685 103.98975280900186 -17.808731358544193 103.72661239260599 -17.843643884292067 103.47272334592463 A 0.5625 0.5625 0 0 0 -18.331 103.007A 104.625 104.625 0 0 1 -18.5113 102.974A 0.5625 0.5625 0 0 0 -19.13 103.243C -19.25078354825652 103.46868301000498 -19.378874332406888 103.70188088537677 -19.51468239744658 103.94194184897603 C -19.87402602598436 104.57712977210004 -20.287310783117945 105.26024472977925 -20.761431571092697 105.98569770568893 A 108 108 0 0 1 -21.9631 105.743C -22.118803370610898 104.89066992271565 -22.23484465412704 104.10074286506794 -22.319751272264337 103.37591018972157 C -22.3518395509942 103.10196961378915 -22.379475855188645 102.8373477463015 -22.403123847250562 102.58216290162945 A 0.5625 0.5625 0 0 0 -22.8694 102.095A 104.625 104.625 0 0 1 -23.0481 102.055A 0.5625 0.5625 0 0 0 -23.6781 102.295C -23.808707522649634 102.51588402363627 -23.946988057414377 102.7431877670444 -24.093281896959752 102.9770065201099 C -24.480370297123024 103.59567776682525 -24.923467002872943 104.25984314174147 -25.429212947010466 104.96361411431313 A 108 108 0 0 1 -26.619 104.668C -26.736819443410585 103.80961701805037 -26.81780603136714 103.01533022572963 -26.870567770111847 102.28745129350399 C -26.890507333208102 102.01235947138353 -26.906411476905213 101.74677416253637 -26.918748643226206 101.49079305619055 A 0.5625 0.5625 0 0 0 -27.363 100.983A 104.625 104.625 0 0 1 -27.5398 100.935A 0.5625 0.5625 0 0 0 -28.1798 101.148C -28.320024834008997 101.36240538013996 -28.468224428747657 101.58337003383254 -28.624717665737837 101.81048886517499 C -29.038793093805584 102.41143235746341 -29.510834365562488 103.05534801470598 -30.04721544442728 103.7360593192117 A 108 108 0 0 1 -31.2228 103.388C -31.30249693658734 102.52535191316717 -31.348270293935254 101.72826023986909 -31.368783869706082 100.99875990795528 C -31.376535684537604 100.72305534480687 -31.380676534629238 100.45702649031418 -31.381678724626877 100.20075021733115 A 0.5625 0.5625 0 0 0 -31.8031 99.6742A 104.625 104.625 0 0 1 -31.9775 99.6184A 0.5625 0.5625 0 0 0 -32.6263 99.8024C -32.7759043668459 100.01050506812815 -32.93373291389233 100.22469808341901 -33.10011920546697 100.44467239726059 C -33.54037108934374 101.02671176001557 -34.04043288415109 101.64911720444717 -34.60639910659278 102.30543631654211 A 108 108 0 0 1 -35.7654 101.906C -35.80689832204379 101.04038861731802 -35.817368845286545 100.24205240742457 -35.805594101795606 99.51235870697964 C -35.80114299382083 99.23658110743278 -35.79351244439848 98.97062947126993 -35.78317769623878 98.71455970448882 A 0.5625 0.5625 0 0 0 -36.1809 98.1699A 104.625 104.625 0 0 1 -36.3527 98.1064A 0.5625 0.5625 0 0 0 -37.009 98.2616C -37.16762352772654 98.46282949594688 -37.33477207028823 98.6698315799501 -37.510725707468076 98.88223076624142 C -37.97629223341694 99.4442266300778 -38.50339565682846 100.04390347381272 -39.09783911738883 100.67454561801419 A 108 108 0 0 1 -40.238 100.224C -40.241206022541036 99.3576340158885 -40.21635321513767 98.55961605002042 -40.172313201998286 97.83115739072947 C -40.15566788447011 97.55584660238578 -40.1362808726926 97.29049279736971 -40.11462941713041 97.035130805384 A 0.5625 0.5625 0 0 0 -40.4878 96.4734A 104.625 104.625 0 0 1 -40.6567 96.4024A 0.5625 0.5625 0 0 0 -41.3192 96.5284C -41.486585320158056 96.7224083112076 -41.66272665711366 96.92181424762293 -41.84790320239113 97.12622252498257 C -42.33787300207451 97.6670747566055 -42.890986224386076 98.24284910406129 -43.51274327207596 98.84657976875704 A 108 108 0 0 1 -44.6319 98.3463C -44.59673967251998 97.4803821800331 -44.536612185008075 96.68424461583359 -44.46039311261409 95.95844698973063 C -44.431586169523236 95.68414194638694 -44.400480646376536 95.41990541505194 -44.36755486715286 95.16575108095279 A 0.5625 0.5625 0 0 0 -44.7156 94.5881A 104.625 104.625 0 0 1 -44.8811 94.5097A 0.5625 0.5625 0 0 0 -45.5485 94.6062C -45.724335173613156 94.79264847010974 -45.909124500023964 94.98406791245252 -46.103161461615784 95.1800851420785 C -46.61657539614179 95.69873499784615 -47.19461567224649 96.24947974369928 -47.84246918844732 96.82511709776192 A 108 108 0 0 1 -48.9384 96.2758C -48.86497311032473 95.4123079183764 -48.76968864508469 94.61960923251402 -48.66143971584957 93.89789342253565 C -48.62052753813991 93.62513108919565 -48.5777643941463 93.36252908696041 -48.533628745020174 93.11007992979192 A 0.5625 0.5625 0 0 0 -48.8557 92.5176A 104.625 104.625 0 0 1 -49.0176 92.4319A 0.5625 0.5625 0 0 0 -49.6887 92.4988C -49.872577493748686 92.67732756816388 -50.06565307583054 92.86038580388664 -50.268170617272396 93.04762827284702 C -50.80402365475425 93.54306047131088 -51.40585944366682 94.06769750685834 -52.078541224697375 94.61411471313535 A 108 108 0 0 1 -53.1491 94.0169C -53.03755106856428 93.1574595834025 -52.90729614941137 92.36975152077999 -52.76722926569746 91.65353031951605 C -52.7142919408781 91.3828446412562 -52.6599548869001 91.12239122387187 -52.6046957654773 90.87214142471421 A 0.5625 0.5625 0 0 0 -52.9003 90.266A 104.625 104.625 0 0 1 -53.0582 90.1733A 0.5625 0.5625 0 0 0 -53.7316 90.2104C -53.92319190142138 90.38058644537111 -54.12417578465552 90.55492512938102 -54.334777468349806 90.73302630174987 C -54.89202065130296 91.20427101111595 -55.516473831204344 91.70177333472365 -56.212667070889104 92.21790075587397 A 108 108 0 0 1 -57.2558 91.5739C -57.10630552994096 90.72025114661481 -56.9413351369962 89.93907568275559 -56.76972448630594 89.22975112684134 C -56.70486564167615 88.96167198358825 -56.6390610450486 88.70387700085027 -56.572786623654274 88.45631643543706 A 0.5625 0.5625 0 0 0 -56.8413 87.8377A 104.625 104.625 0 0 1 -56.995 87.7381A 0.5625 0.5625 0 0 0 -57.6693 87.7454C -57.86824912871106 87.90692108033444 -58.076747877707824 88.0721989364706 -58.29502144096885 88.24081017083937 C -58.8725639396945 88.6869449074594 -59.518412114160704 89.15633863496616 -60.2367539815397 89.64116592732549 A 108 108 0 0 1 -61.2504 88.9517C -61.063271716527616 88.10545355797989 -60.863908787082224 87.33233988053848 -60.66109030532316 86.63130050610205 C -60.58443690511708 86.36635267536762 -60.50729358142806 86.11172077306081 -60.430133595354356 85.86733405282426 A 0.5625 0.5625 0 0 0 -60.671 85.2374A 104.625 104.625 0 0 1 -60.8201 85.1311A 0.5625 0.5625 0 0 0 -61.4941 85.1086C -61.70002654083525 85.26117378916936 -61.915632009502374 85.41706727826691 -62.14115017157992 85.57585851022634 C -62.73786141951537 85.99600994440289 -63.403840310415816 86.43637621554436 -64.14292461755029 86.8889543069204 A 108 108 0 0 1 -65.125 86.1553C -64.90070368119471 85.31818540656846 -64.66733847754516 84.55464692187391 -64.43370919141971 83.86326504641161 C -64.3454112882679 83.60196717601649 -64.25708024919618 83.35099680804709 -64.16918574273926 83.11026233146852 A 0.5625 0.5625 0 0 0 -64.3819 82.4703A 104.625 104.625 0 0 1 -64.5262 82.3575A 0.5625 0.5625 0 0 0 -65.1986 82.3052C -65.41102325356925 82.44852374644277 -65.63331338407698 82.59472769967603 -65.86563468257845 82.74338808793271 C -66.48034658943428 83.13673375350302 -67.1651525118156 83.54721053062383 -67.92353246646688 83.96665347814964 A 108 108 0 0 1 -68.8722 83.1903C -68.61108947066539 82.36390290067718 -68.34417881615667 81.61143427116912 -68.08019606596366 80.93106330716947 C -67.98042650715803 80.67392689996551 -67.88108066486063 80.42710935261444 -67.7826236956444 80.19049836873663 A 0.5625 0.5625 0 0 0 -67.9669 79.5418A 104.625 104.625 0 0 1 -68.106 79.4227A 0.5625 0.5625 0 0 0 -68.7754 79.3407C -68.99397481657934 79.47447684669545 -69.22251446555845 79.61070506296025 -69.46118412063217 79.74894359782307 C -70.09269335898381 80.11471350217526 -70.79498577309445 80.49449725770816 -71.57117681088778 80.87998398211688 A 108 108 0 0 1 -72.4846 80.0624C -72.1871658305169 79.24838918704458 -71.88723221528934 78.5084634054012 -71.59341275965895 77.84043521097651 C -71.482366848796 77.58796362355596 -71.3722006774245 77.3457820537627 -71.26337397958979 77.11375773969787 A 0.5625 0.5625 0 0 0 -71.4187 76.4575A 104.625 104.625 0 0 1 -71.5525 76.3324A 0.5625 0.5625 0 0 0 -72.2176 76.2209C -72.44186743392522 76.34485492639514 -72.6762092242806 76.47084073256083 -72.92076002886884 76.59838680560611 C -73.56783038972651 76.93586493697585 -74.28623452518616 77.28421222638472 -75.07871721571505 77.63498811931085 A 108 108 0 0 1 -75.9551 76.7778C -75.62193242334203 75.97774303006982 -75.28956298153236 75.25180853575567 -74.96648198584671 74.59743080746713 C -74.84437710051171 74.35011826481845 -74.72360625551998 74.11304675437874 -74.60462286243829 73.88606330861755 A 0.5625 0.5625 0 0 0 -74.7308 73.2236A 104.625 104.625 0 0 1 -74.8589 73.0927A 0.5625 0.5625 0 0 0 -75.5184 72.9519C -75.74795169389529 73.06578436741798 -75.9876368905676 73.18128114035271 -76.23759012498627 73.29788507415289 C -76.89895493773214 73.60641080325001 -77.6320644847093 73.92263972035745 -78.43928750589204 74.2380181215181 A 108 108 0 0 1 -79.2769 73.3429C -78.90866553223853 72.55836687319488 -78.54451089263715 71.84784471707249 -78.19280080311725 71.20839843005287 C -78.05987596935726 70.9667290580921 -77.9287368653458 70.73523168562052 -77.79982969259652 70.51373343891717 A 0.5625 0.5625 0 0 0 -77.8966 69.8463A 104.625 104.625 0 0 1 -78.0188 69.7099A 0.5625 0.5625 0 0 0 -78.6714 69.54C -78.90575578129675 69.6436841043685 -79.15031518925788 69.74846575371551 -79.40518155831279 69.85389929059444 C -80.07954617026816 70.13286866381587 -80.8259260323978 70.4163601756665 -81.64630920726317 70.69572371703126 A 108 108 0 0 1 -82.4435 69.7644C -82.04093122280057 68.99695430582092 -81.64570423521523 68.30323536837706 -81.2660535408776 67.6799722687616 C -81.1225689652969 67.44441914663317 -80.98131831322009 67.21894907910746 -80.84273970264739 67.00336962468147 A 0.5625 0.5625 0 0 0 -80.9099 66.3324A 104.625 104.625 0 0 1 -81.0259 66.1906A 0.5625 0.5625 0 0 0 -81.6704 65.9921C -81.90909814633788 66.08525305921364 -82.15805302906223 66.17911446997377 -82.4173336198674 66.27317121883185 C -83.1033779306362 66.52203814052908 -83.86156703428816 66.77223729917567 -84.69350442424611 67.01503911349337 A 108 108 0 0 1 -85.4487 66.0494C -85.01259793784754 65.30047696029267 -84.58707227766634 64.62491922892445 -84.18022416257358 64.01905938349917 C -84.02646072296689 63.79008361750122 -83.87537502760931 63.57108222316663 -83.72739625335105 63.36184356792364 A 0.5625 0.5625 0 0 0 -83.7648 62.6885A 104.625 104.625 0 0 1 -83.8744 62.5418A 0.5625 0.5625 0 0 0 -84.5095 62.3149C -84.75209960530195 62.3974570278284 -85.00496262191565 62.480214461882355 -85.26814988053876 62.56271030221679 C -85.96453092616595 62.78098760370381 -86.73304508056523 62.99740463254395 -87.57490812910713 63.203169423861056 A 108 108 0 0 1 -88.2867 62.2051C -87.81784850023504 61.47617086460083 -87.36285715392047 60.820096775291645 -86.92960804236348 60.23282618315513 C -86.7658667378846 60.010876004102315 -86.60524175658988 59.79877198847259 -86.44815249404576 59.59628372690613 A 0.5625 0.5625 0 0 0 -86.4557 58.922A 104.625 104.625 0 0 1 -86.5588 58.7705A 0.5625 0.5625 0 0 0 -87.1832 58.5158C -87.42919484932558 58.58751504412331 -87.68547100859917 58.65900649990764 -87.95204973362215 58.72977994223697 C -88.65740431550886 58.91704033544578 -89.43473911810874 59.09925158798257 -90.28487983878311 59.26757656205738 A 108 108 0 0 1 -90.9518 58.239C -90.45119150025256 57.531522277517304 -89.96762513473145 56.896216126106246 -89.50882313219151 56.32868439702088 C -89.3354244941332 56.11419428281149 -89.16557465784523 55.909402849457635 -88.9996824166236 55.71406136184856 A 0.5625 0.5625 0 0 0 -88.9774 55.0401A 104.625 104.625 0 0 1 -89.0736 54.8842A 0.5625 0.5625 0 0 0 -89.6862 54.6021C -89.93514333875207 54.66288524844653 -90.19433096806901 54.72297077807929 -90.46377931911911 54.78188328006662 C -91.17672667254779 54.937760193983785 -91.96136045396851 55.08540898313371 -92.81811465639198 55.21596463592492 A 108 108 0 0 1 -93.4389 54.1589C -92.90747204531563 53.47425303389219 -92.3962772644568 52.86095846200465 -91.91282049739922 52.314276565981444 C -91.73010396173837 52.107666391086504 -91.55136175948779 51.91058842885633 -91.37699128144114 51.722776105339875 A 0.5625 0.5625 0 0 0 -91.3249 51.0504A 104.625 104.625 0 0 1 -91.4142 50.8905A 0.5625 0.5625 0 0 0 -92.0136 50.5815C -92.26503956173387 50.631250287923976 -92.5266312891383 50.679812271159285 -92.79842180841501 50.726748508815454 C -93.51756630546127 50.85093680706197 -94.30796310822927 50.9637341033867 -95.16965365581737 51.05626486607306 A 108 108 0 0 1 -95.743 49.9727C -95.18188185091017 49.31230542879952 -94.64405934250287 48.72222298936033 -94.13689420025236 48.19746108188294 C -93.94521744318783 47.99913529542224 -93.75793277122933 47.8101565936816 -93.57542539475689 47.63024108570074 A 0.5625 0.5625 0 0 0 -93.4937 46.9608A 104.625 104.625 0 0 1 -93.5758 46.7971A 0.5625 0.5625 0 0 0 -94.161 46.462C -94.41432263700241 46.50050227731661 -94.67780638440358 46.53744565179183 -94.95140702920216 46.57231374522749 C -95.67534091074198 46.66457032337765 -96.46995349599872 46.74229532087266 -97.33489358903955 46.79662006014097 A 108 108 0 0 1 -97.8598 45.6888C -97.26996865303535 45.05382667012151 -96.70657122989597 44.48811147721616 -96.17669051203498 43.98629680436133 C -95.9764287498199 43.79664363837526 -95.78096822669372 43.61613413180726 -95.5906812185555 43.4444676324177 A 0.5625 0.5625 0 0 0 -95.4794 42.7793A 104.625 104.625 0 0 1 -95.5542 42.6121A 0.5625 0.5625 0 0 0 -96.124 42.2514C -96.37878524200747 42.27872734983536 -96.64364522759665 42.30397979716008 -96.91852041180655 42.32671149044493 C -97.64582654327084 42.38685575191464 -98.44309941956567 42.42935630024734 -99.30959589720943 42.4453686728694 A 108 108 0 0 1 -99.785 41.3154C -99.16764492371937 40.70715293000665 -98.57977546276088 40.16691239769128 -98.02821643567782 39.68902728524636 C -97.81976169011604 39.508417994713454 -97.61650793897505 39.33673103915394 -97.41881379492534 39.1736495935897 A 0.5625 0.5625 0 0 0 -97.2782 38.5141A 104.625 104.625 0 0 1 -97.3455 38.3437A 0.5625 0.5625 0 0 0 -97.8988 37.9582C -98.15458184894848 37.9741898281555 -98.42029959686602 37.98770191547823 -98.69591123940603 37.99825271025517 C -99.4251658848881 38.02616691982823 -100.2235383531257 38.033359822179456 -101.08989500782668 38.01102848318389 A 108 108 0 0 1 -101.515 36.8611C -100.87119587254737 36.280793026421215 -100.26000515584597 35.767084700907546 -99.68784752223763 35.31406463142167 C -99.47160785328262 35.14285276750956 -99.26095875288948 34.98032444823647 -99.056244468499 34.82614729608557 A 0.5625 0.5625 0 0 0 -98.8866 34.1735A 104.625 104.625 0 0 1 -98.9463 34.0003A 0.5625 0.5625 0 0 0 -99.482 33.5906C -99.7382362525758 33.595316046617114 -100.00429160785202 33.59706132339239 -100.28010018598914 33.59541056598519 C -101.00987579527464 33.5910400802855 -101.80778500385681 33.5629112562111 -102.6723059017793 33.50227992024269 A 108 108 0 0 1 -103.046 32.3347C -102.37728671853817 31.78341176673865 -101.74397118062336 31.297241256197648 -101.15233496592606 30.869973037730674 C -100.92873367288442 30.708493755703095 -100.71110157874523 30.555442229533742 -100.49976789183908 30.410471179811672 A 0.5625 0.5625 0 0 0 -100.301 29.7659A 104.625 104.625 0 0 1 -100.353 29.5903A 0.5625 0.5625 0 0 0 -100.87 29.1573C -101.12664837502587 29.15067785627966 -101.39252052180886 29.140652906046235 -101.66798612729937 29.126803827890033 C -102.39685413036283 29.09015720234859 -103.1927381345439 29.026761715342634 -104.05373093543226 28.92794907108879 A 108 108 0 0 1 -104.375 27.745C -103.68296921813464 27.223812985972 -103.02876860391241 26.766131992008642 -102.4188119637997 26.36545202216276 C -102.18828675670291 26.21402142529736 -101.96409769386196 26.07074629778153 -101.74655830005649 25.93526513812597 A 0.5625 0.5625 0 0 0 -101.52 25.3001A 104.625 104.625 0 0 1 -101.564 25.1224A 0.5625 0.5625 0 0 0 -102.061 24.667C -102.31710033436909 24.648975845121118 -102.58226881544614 24.627200292189848 -102.85685221143143 24.601180003505487 C -103.58338581492916 24.532328975612714 -104.37568663439622 24.43379092531807 -105.23146590441044 24.296990403170167 A 108 108 0 0 1 -105.5 23.101C -104.7856874365289 22.610922312853567 -104.11188237442289 22.182626767506257 -103.48479932766139 21.809319396138388 C -103.2478014704278 21.66823391693972 -103.01749429950354 21.535015655867728 -102.7941750423778 21.409289597010908 A 0.5625 0.5625 0 0 0 -102.54 20.7848A 104.625 104.625 0 0 1 -102.576 20.6052A 0.5625 0.5625 0 0 0 -103.053 20.1283C -103.30726176499132 20.09902230622859 -103.57120750060842 20.06553877726692 -103.84437117719641 20.027398213991418 C -104.5671481574815 19.926477562867667 -105.35431482617393 19.792989842145133 -106.20320533720553 19.618469235549433 A 108 108 0 0 1 -106.419 18.4117C -105.68328275102475 17.953769697497663 -104.99119224608596 17.555698009409205 -104.34821033718755 17.210494003229343 C -104.10520376425212 17.080029823148312 -103.86922932234688 16.957129209522144 -103.64056735983375 16.841404366128383 A 0.5625 0.5625 0 0 0 -103.359 16.2288A 104.625 104.625 0 0 1 -103.387 16.0478A 0.5625 0.5625 0 0 0 -103.842 15.5502C -104.09519437939416 15.509723987320474 -104.35740068337891 15.464598027908728 -104.62860990984485 15.414411851985781 C -105.34621539703677 15.281619134544863 -106.12670699923522 15.113443051876352 -106.9670470082449 14.901543993115757 A 108 108 0 0 1 -107.129 13.6864C -106.37399807664293 13.261471734848936 -105.66497692853538 12.894403148042228 -105.00735482478119 12.57797826010326 C -104.75881523292206 12.458390768898987 -104.51763545108723 12.34604838644124 -104.28407839971634 12.240551295325918 A 0.5625 0.5625 0 0 0 -103.975 11.641A 104.625 104.625 0 0 1 -103.996 11.4589A 0.5625 0.5625 0 0 0 -104.428 10.9417C -104.67935576248348 10.89006465536972 -104.93930935368262 10.83338460169257 -105.20803322522976 10.771251054918292 C -105.91906247288851 10.606846219140552 -106.69135115962975 10.40431098710544 -107.52149566158748 10.15544827853827 A 108 108 0 0 1 -107.63 8.93435C -106.85648130569753 8.543213818519831 -106.13191745661429 8.207866886991107 -105.46094248415439 7.920840533870508 C -105.20735640129406 7.812363829672856 -104.9614434002784 7.7107995938727925 -104.72344845894563 7.6157367705459205 A 0.5625 0.5625 0 0 0 -104.389 7.03042A 104.625 104.625 0 0 1 -104.401 6.84765A 0.5625 0.5625 0 0 0 -104.81 6.31181C -105.05860239091967 6.249087510458022 -105.315794397971 6.180964316382239 -105.58150687500147 6.10700502809223 C -106.28456800998481 5.911309904164162 -107.04714198989782 5.6748119949902245 -107.86546593795737 5.389472797055104 A 108 108 0 0 1 -107.92 4.16478C -107.12978795461021 3.8082321599511526 -106.39109977231143 3.505263341066791 -105.70808539616344 3.248197390329565 C -105.44994922896753 3.151043821381075 -105.19978439501861 3.0604565489997366 -104.95781744999788 2.9760140834021316 A 0.5625 0.5625 0 0 0 -104.597 2.40608A 104.625 104.625 0 0 1 -104.601 2.22296A 0.5625 0.5625 0 0 0 -104.987 1.66953C -105.23219187161813 1.595877483287168 -105.48611882909009 1.5164445031642235 -105.74829976695223 1.4308042521384476 C -106.44201651407263 1.2042019224549947 -107.19338301278124 0.9342042919053928 -107.99828449938575 0.6129471694818259 A 108 108 0 0 1 -107.998 -0.612947C -107.19338301278124 -0.9342042919053666 -106.44201651407263 -1.2042019224549685 -105.74829976695223 -1.4308042521384219 C -105.48611882909009 -1.5164445031641978 -105.23219187161813 -1.5958774832871423 -104.98672658456711 -1.6695342910636497 A 0.5625 0.5625 0 0 0 -104.601 -2.22296A 104.625 104.625 0 0 1 -104.597 -2.40608A 0.5625 0.5625 0 0 0 -104.958 -2.97601C -105.19978439501861 -3.06045654899971 -105.44994922896753 -3.1510438213810485 -105.70808539616344 -3.2481973903295382 C -106.39109977231143 -3.5052633410667644 -107.12978795461021 -3.808232159951126 -107.91969134730144 -4.164778330959745 A 108 108 0 0 1 -107.865 -5.38947C -107.04714198989782 -5.674811994990198 -106.28456800998481 -5.911309904164136 -105.58150687500147 -6.107005028092203 C -105.315794397971 -6.180964316382212 -105.05860239091967 -6.249087510457995 -104.81011927166482 -6.311814473753255 A 0.5625 0.5625 0 0 0 -104.401 -6.84765A 104.625 104.625 0 0 1 -104.389 -7.03042A 0.5625 0.5625 0 0 0 -104.723 -7.61574C -104.9614434002784 -7.710799593872768 -105.20735640129406 -7.812363829672831 -105.46094248415439 -7.920840533870481 C -106.13191745661429 -8.20786688699108 -106.85648130569753 -8.543213818519805 -107.62984033149037 -8.9343510822403 A 108 108 0 0 1 -107.521 -10.1554C -106.69135115962975 -10.404310987105413 -105.91906247288851 -10.606846219140525 -105.20803322522976 -10.771251054918265 C -104.93930935368262 -10.833384601692545 -104.67935576248348 -10.890064655369695 -104.42834122839952 -10.941738983207395 A 0.5625 0.5625 0 0 0 -103.996 -11.4589A 104.625 104.625 0 0 1 -103.975 -11.641A 0.5625 0.5625 0 0 0 -104.284 -12.2406C -104.51763545108723 -12.346048386441216 -104.75881523292206 -12.458390768898964 -105.00735482478119 -12.577978260103237 C -105.66497692853538 -12.894403148042205 -106.37399807664293 -13.26147173484891 -107.12929884892743 -13.686434421719724 A 108 108 0 0 1 -106.967 -14.9015C -106.12670699923522 -15.113443051876327 -105.34621539703677 -15.28161913454484 -104.62860990984485 -15.414411851985758 C -104.35740068337891 -15.464598027908705 -104.09519437939416 -15.50972398732045 -103.84213980321921 -15.550244524777218 A 0.5625 0.5625 0 0 0 -103.387 -16.0478A 104.625 104.625 0 0 1 -103.359 -16.2288A 0.5625 0.5625 0 0 0 -103.641 -16.8414C -103.86922932234688 -16.957129209522122 -104.10520376425212 -17.080029823148287 -104.34821033718755 -17.210494003229318 C -104.99119224608596 -17.55569800940918 -105.68328275102475 -17.95376969749764 -106.41904673307019 -18.411725923102946 A 108 108 0 0 1 -106.203 -19.6185C -105.35431482617393 -19.79298984214511 -104.5671481574815 -19.926477562867642 -103.84437117719641 -20.027398213991393 C -103.57120750060842 -20.065538777266894 -103.30726176499132 -20.09902230622857 -103.05266251294172 -20.128309732449488 A 0.5625 0.5625 0 0 0 -102.576 -20.6052A 104.625 104.625 0 0 1 -102.54 -20.7848A 0.5625 0.5625 0 0 0 -102.794 -21.4093C -103.01749429950355 -21.535015655867703 -103.24780147042782 -21.668233916939695 -103.4847993276614 -21.809319396138367 C -104.1118823744229 -22.182626767506235 -104.78568743652892 -22.610922312853543 -105.50047433578892 -23.100975606376075 A 108 108 0 0 1 -105.231 -24.297C -104.37568663439623 -24.433790925318046 -103.58338581492917 -24.532328975612693 -102.85685221143144 -24.601180003505466 C -102.58226881544616 -24.627200292189823 -102.3171003343691 -24.648975845121093 -102.0614547964367 -24.666972828594 A 0.5625 0.5625 0 0 0 -101.564 -25.1224A 104.625 104.625 0 0 1 -101.52 -25.3001A 0.5625 0.5625 0 0 0 -101.747 -25.9353C -101.96409769386197 -26.070746297781504 -102.18828675670292 -26.214021425297336 -102.41881196379971 -26.365452022162735 C -103.02876860391243 -26.766131992008617 -103.68296921813464 -27.22381298597198 -104.37537980568749 -27.74500404507674 A 108 108 0 0 1 -104.054 -28.9279C -103.1927381345439 -29.026761715342612 -102.39685413036284 -29.090157202348564 -101.66798612729939 -29.126803827890008 C -101.39252052180888 -29.14065290604621 -101.12664837502588 -29.150677856279636 -100.87045698935634 -29.15734916706424 A 0.5625 0.5625 0 0 0 -100.353 -29.5903A 104.625 104.625 0 0 1 -100.301 -29.7659A 0.5625 0.5625 0 0 0 -100.5 -30.4105C -100.71110157874524 -30.55544222953372 -100.92873367288443 -30.708493755703074 -101.15233496592606 -30.869973037730645 C -101.74397118062336 -31.29724125619762 -102.37728671853817 -31.783411766738627 -103.04596556814309 -32.33472033545226 A 108 108 0 0 1 -102.672 -33.5023C -101.80778500385681 -33.56291125621108 -101.00987579527464 -33.591040080285474 -100.28010018598914 -33.59541056598516 C -100.00429160785204 -33.59706132339237 -99.73823625257582 -33.59531604661709 -99.48200052583732 -33.59064862530924 A 0.5625 0.5625 0 0 0 -98.9463 -34.0003A 104.625 104.625 0 0 1 -98.8866 -34.1735A 0.5625 0.5625 0 0 0 -99.0562 -34.8261C -99.26095875288948 -34.98032444823646 -99.47160785328262 -35.142852767509545 -99.68784752223763 -35.31406463142165 C -100.26000515584599 -35.76708470090753 -100.87119587254737 -36.28079302642119 -101.51483401395507 -36.86113989233096 A 108 108 0 0 1 -101.09 -38.011C -100.2235383531257 -38.033359822179435 -99.42516588488812 -38.02616691982821 -98.69591123940603 -37.99825271025515 C -98.42029959686602 -37.98770191547822 -98.15458184894848 -37.97418982815549 -97.898803374609 -37.95819281145158 A 0.5625 0.5625 0 0 0 -97.3455 -38.3437A 104.625 104.625 0 0 1 -97.2782 -38.5141A 0.5625 0.5625 0 0 0 -97.4188 -39.1736C -97.61650793897508 -39.336731039153875 -97.81976169011605 -39.50841799471339 -98.02821643567785 -39.6890272852463 C -98.57977546276089 -40.166912397691206 -99.1676449237194 -40.707152930006586 -99.78498240504275 -41.315402036869344 A 108 108 0 0 1 -99.3096 -42.4454C -98.4430994195657 -42.42935630024728 -97.64582654327086 -42.38685575191458 -96.91852041180658 -42.326711490444865 C -96.64364522759666 -42.30397979716002 -96.3787852420075 -42.27872734983529 -96.1239647184419 -42.251432052646756 A 0.5625 0.5625 0 0 0 -95.5542 -42.6121A 104.625 104.625 0 0 1 -95.4794 -42.7793A 0.5625 0.5625 0 0 0 -95.5907 -43.4445C -95.78096822669373 -43.61613413180723 -95.97642874981992 -43.79664363837523 -96.17669051203498 -43.98629680436131 C -96.70657122989599 -44.48811147721614 -97.26996865303536 -45.05382667012148 -97.85979700716452 -45.688787341747144 A 108 108 0 0 1 -97.3349 -46.7966C -96.46995349599874 -46.74229532087263 -95.675340910742 -46.66457032337763 -94.95140702920216 -46.57231374522747 C -94.6778063844036 -46.5374456517918 -94.41432263700243 -46.500502277316585 -94.16095888735195 -46.46196213146944 A 0.5625 0.5625 0 0 0 -93.5758 -46.7971A 104.625 104.625 0 0 1 -93.4937 -46.9608A 0.5625 0.5625 0 0 0 -93.5754 -47.6302C -93.75793277122935 -47.81015659368157 -93.94521744318784 -47.99913529542222 -94.13689420025237 -48.19746108188292 C -94.64405934250289 -48.722222989360304 -95.18188185091017 -49.3123054287995 -95.74304646114355 -49.972734699855565 A 108 108 0 0 1 -95.1697 -51.0563C -94.30796310822927 -50.96373410338668 -93.51756630546129 -50.85093680706194 -92.79842180841503 -50.72674850881543 C -92.52663128913831 -50.679812271159264 -92.26503956173389 -50.63125028792395 -92.01362855743648 -50.58154073756354 A 0.5625 0.5625 0 0 0 -91.4142 -50.8905A 104.625 104.625 0 0 1 -91.3249 -51.0504A 0.5625 0.5625 0 0 0 -91.377 -51.7228C -91.55136175948779 -51.91058842885631 -91.73010396173837 -52.107666391086475 -91.91282049739922 -52.31427656598142 C -92.3962772644568 -52.86095846200463 -92.90747204531563 -53.47425303389217 -93.43887440557636 -54.158858083066754 A 108 108 0 0 1 -92.8181 -55.216C -91.96136045396851 -55.08540898313369 -91.17672667254779 -54.93776019398376 -90.46377931911911 -54.7818832800666 C -90.19433096806901 -54.722970778079265 -89.93514333875207 -54.66288524844651 -89.68617722865493 -54.60210360235204 A 0.5625 0.5625 0 0 0 -89.0736 -54.8842A 104.625 104.625 0 0 1 -88.9774 -55.0401A 0.5625 0.5625 0 0 0 -88.9997 -55.7141C -89.16557465784524 -55.90940284945763 -89.33542449413322 -56.114194282811475 -89.50882313219152 -56.32868439702088 C -89.96762513473146 -56.89621612610624 -90.45119150025258 -57.5315222775173 -90.95179136546577 -58.23896295827756 A 108 108 0 0 1 -90.2849 -59.2676C -89.43473911810875 -59.099251587982565 -88.65740431550887 -58.917040335445776 -87.95204973362216 -58.72977994223696 C -87.68547100859918 -58.659006499907626 -87.4291948493256 -58.5875150441233 -87.18316099628066 -58.515780285221304 A 0.5625 0.5625 0 0 0 -86.5588 -58.7705A 104.625 104.625 0 0 1 -86.4557 -58.922A 0.5625 0.5625 0 0 0 -86.4482 -59.5963C -86.60524175658989 -59.798771988472566 -86.76586673788461 -60.01087600410229 -86.9296080423635 -60.23282618315511 C -87.36285715392049 -60.820096775291624 -87.81784850023506 -61.47617086460081 -88.28666592265637 -62.20506232859271 A 108 108 0 0 1 -87.5749 -63.2032C -86.73304508056525 -62.997404632543926 -85.96453092616596 -62.780987603703785 -85.26814988053877 -62.56271030221677 C -85.00496262191567 -62.48021446188233 -84.75209960530196 -62.39745702782838 -84.50947963213035 -62.31490958027807 A 0.5625 0.5625 0 0 0 -83.8744 -62.5418A 104.625 104.625 0 0 1 -83.7648 -62.6885A 0.5625 0.5625 0 0 0 -83.7274 -63.3618C -83.87537502760931 -63.5710822231666 -84.0264607229669 -63.79008361750119 -84.1802241625736 -64.01905938349914 C -84.58707227766634 -64.62491922892444 -85.01259793784756 -65.30047696029266 -85.44871518535692 -66.04939236824663 A 108 108 0 0 1 -84.6935 -67.015C -83.86156703428817 -66.77223729917566 -83.1033779306362 -66.52203814052906 -82.41733361986742 -66.27317121883182 C -82.15805302906224 -66.17911446997374 -81.90909814633788 -66.08525305921361 -81.67036699303053 -65.99205451352002 A 0.5625 0.5625 0 0 0 -81.0259 -66.1906A 104.625 104.625 0 0 1 -80.9099 -66.3324A 0.5625 0.5625 0 0 0 -80.8427 -67.0034C -80.98131831322013 -67.2189490791074 -81.12256896529695 -67.44441914663312 -81.26605354087765 -67.67997226876156 C -81.64570423521528 -68.30323536837702 -82.04093122280062 -68.99695430582088 -82.44349457540591 -69.76442762065676 A 108 108 0 0 1 -81.6463 -70.6957C -80.82592603239786 -70.41636017566645 -80.0795461702682 -70.13286866381583 -79.40518155831283 -69.8538992905944 C -79.15031518925792 -69.74846575371546 -78.90575578129679 -69.64368410436848 -78.67138077529711 -69.54001690106136 A 0.5625 0.5625 0 0 0 -78.0188 -69.7099A 104.625 104.625 0 0 1 -77.8966 -69.8463A 0.5625 0.5625 0 0 0 -77.7998 -70.5137C -77.92873686534581 -70.73523168562048 -78.05987596935728 -70.96672905809207 -78.19280080311727 -71.20839843005284 C -78.54451089263716 -71.84784471707246 -78.90866553223854 -72.55836687319486 -79.27688695327267 -73.3428957298583 A 108 108 0 0 1 -78.4393 -74.238C -77.63206448470932 -73.92263972035742 -76.89895493773216 -73.60641080324999 -76.23759012498628 -73.29788507415286 C -75.98763689056761 -73.18128114035268 -75.7479516938953 -73.06578436741796 -75.5183916352838 -72.95185143991607 A 0.5625 0.5625 0 0 0 -74.8589 -73.0927A 104.625 104.625 0 0 1 -74.7308 -73.2236A 0.5625 0.5625 0 0 0 -74.6046 -73.8861C -74.72360625552001 -74.11304675437871 -74.84437710051174 -74.35011826481842 -74.96648198584674 -74.59743080746709 C -75.28956298153238 -75.25180853575563 -75.62193242334206 -75.97774303006979 -75.95509110208164 -76.77779167648231 A 108 108 0 0 1 -75.0787 -77.635C -74.28623452518619 -77.2842122263847 -73.56783038972654 -76.9358649369758 -72.92076002886887 -76.59838680560607 C -72.67620922428063 -76.4708407325608 -72.44186743392525 -76.34485492639512 -72.21757169729682 -76.22087930375429 A 0.5625 0.5625 0 0 0 -71.5525 -76.3324A 104.625 104.625 0 0 1 -71.4187 -76.4575A 0.5625 0.5625 0 0 0 -71.2634 -77.1138C -71.37220067742453 -77.34578205376268 -71.48236684879602 -77.58796362355594 -71.59341275965897 -77.84043521097648 C -71.88723221528937 -78.50846340540119 -72.18716583051693 -79.24838918704457 -72.48460959320319 -80.06239149041049 A 108 108 0 0 1 -71.5712 -80.88C -70.79498577309448 -80.49449725770815 -70.09269335898384 -80.11471350217525 -69.4611841206322 -79.74894359782304 C -69.22251446555846 -79.61070506296022 -68.99397481657937 -79.47447684669542 -68.7753824713714 -79.34070121701892 A 0.5625 0.5625 0 0 0 -68.106 -79.4227A 104.625 104.625 0 0 1 -67.9669 -79.5418A 0.5625 0.5625 0 0 0 -67.7826 -80.1905C -67.88108066486066 -80.42710935261441 -67.98042650715806 -80.6739268999655 -68.0801960659637 -80.93106330716944 C -68.3441788161567 -81.6114342711691 -68.61108947066543 -82.36390290067716 -68.87223605716494 -83.19026541326208 A 108 108 0 0 1 -67.9235 -83.9667C -67.16515251181565 -83.54721053062381 -66.4803465894343 -83.13673375350301 -65.86563468257849 -82.74338808793269 C -65.63331338407701 -82.59472769967601 -65.41102325356928 -82.44852374644275 -65.19856220456265 -82.30520998180774 A 0.5625 0.5625 0 0 0 -64.5262 -82.3575A 104.625 104.625 0 0 1 -64.3819 -82.4703A 0.5625 0.5625 0 0 0 -64.1692 -83.1103C -64.25708024919622 -83.35099680804707 -64.34541128826793 -83.60196717601646 -64.43370919141974 -83.86326504641157 C -64.66733847754519 -84.5546469218739 -64.90070368119474 -85.31818540656843 -65.12504188480095 -86.15529048494794 A 108 108 0 0 1 -64.1429 -86.889C -63.403840310415845 -86.43637621554433 -62.737861419515404 -85.99600994440287 -62.14115017157996 -85.57585851022633 C -61.91563200950241 -85.41706727826688 -61.70002654083529 -85.26117378916935 -61.49411269051056 -85.10860243300013 A 0.5625 0.5625 0 0 0 -60.8201 -85.1311A 104.625 104.625 0 0 1 -60.671 -85.2374A 0.5625 0.5625 0 0 0 -60.4301 -85.8673C -60.50729358142809 -86.11172077306078 -60.58443690511711 -86.3663526753676 -60.661090305323185 -86.63130050610202 C -60.863908787082245 -87.33233988053846 -61.063271716527645 -88.10545355797987 -61.25036238467207 -88.95166252965252 A 108 108 0 0 1 -60.2368 -89.6412C -59.51841211416073 -89.15633863496615 -58.87256393969452 -88.68694490745938 -58.29502144096888 -88.24081017083934 C -58.07674787770785 -88.07219893647057 -57.868249128711085 -87.90692108033441 -57.66928556310002 -87.74539079822547 A 0.5625 0.5625 0 0 0 -56.995 -87.7381A 104.625 104.625 0 0 1 -56.8413 -87.8377A 0.5625 0.5625 0 0 0 -56.5728 -88.4563C -56.63906104504862 -88.70387700085026 -56.70486564167617 -88.96167198358822 -56.76972448630596 -89.22975112684131 C -56.94133513699623 -89.93907568275557 -57.10630552994099 -90.7202511466148 -57.25578242385495 -91.57390751778053 A 108 108 0 0 1 -56.2127 -92.2179C -55.51647383120437 -91.70177333472364 -54.892020651302985 -91.20427101111594 -54.33477746834983 -90.73302630174985 C -54.12417578465554 -90.55492512938099 -53.923191901421404 -90.3805864453711 -53.73156810104703 -90.21041344043509 A 0.5625 0.5625 0 0 0 -53.0582 -90.1733A 104.625 104.625 0 0 1 -52.9003 -90.266A 0.5625 0.5625 0 0 0 -52.6047 -90.8721C -52.659954886900174 -91.12239122387183 -52.71429194087817 -91.38284464125614 -52.76722926569753 -91.653530319516 C -52.907296149411444 -92.36975152077994 -53.03755106856435 -93.15745958340244 -53.14912158020857 -94.01689228162695 A 108 108 0 0 1 -52.0785 -94.6141C -51.40585944366689 -94.06769750685831 -50.804023654754324 -93.54306047131084 -50.26817061727247 -93.04762827284696 C -50.06565307583061 -92.86038580388659 -49.87257749374876 -92.67732756816383 -49.68866857119896 -92.49884496204929 A 0.5625 0.5625 0 0 0 -49.0176 -92.4319A 104.625 104.625 0 0 1 -48.8557 -92.5176A 0.5625 0.5625 0 0 0 -48.5336 -93.1101C -48.57776439414628 -93.36252908696042 -48.62052753813989 -93.62513108919566 -48.661439715849546 -93.89789342253566 C -48.76968864508466 -94.61960923251404 -48.864973110324705 -95.41230791837641 -48.938418835183285 -96.27583456379392 A 108 108 0 0 1 -47.8425 -96.8251C -47.194615672246464 -96.2494797436993 -46.61657539614176 -95.69873499784616 -46.10316146161576 -95.18008514207851 C -45.90912450002394 -94.98406791245253 -45.724335173613134 -94.79264847010975 -45.54850113924018 -94.60620565089968 A 0.5625 0.5625 0 0 0 -44.8811 -94.5097A 104.625 104.625 0 0 1 -44.7156 -94.5881A 0.5625 0.5625 0 0 0 -44.3676 -95.1658C -44.400480646376536 -95.41990541505194 -44.431586169523236 -95.68414194638694 -44.46039311261409 -95.95844698973063 C -44.536612185008075 -96.68424461583359 -44.59673967251998 -97.4803821800331 -44.63191683713749 -98.34631237868396 A 108 108 0 0 1 -43.5127 -98.8466C -42.890986224386076 -98.24284910406129 -42.33787300207451 -97.6670747566055 -41.84790320239113 -97.12622252498257 C -41.66272665711366 -96.92181424762293 -41.486585320158056 -96.7224083112076 -41.31917037734142 -96.52837024947598 A 0.5625 0.5625 0 0 0 -40.6567 -96.4024A 104.625 104.625 0 0 1 -40.4878 -96.4734A 0.5625 0.5625 0 0 0 -40.1146 -97.0351C -40.1362808726926 -97.29049279736971 -40.15566788447011 -97.55584660238578 -40.172313201998286 -97.83115739072947 C -40.21635321513767 -98.55961605002042 -40.241206022541036 -99.3576340158885 -40.23804576596582 -100.22427266874466 A 108 108 0 0 1 -39.0978 -100.675C -38.50339565682846 -100.04390347381272 -37.97629223341694 -99.4442266300778 -37.510725707468076 -98.88223076624142 C -37.33477207028823 -98.6698315799501 -37.16762352772654 -98.46282949594688 -37.00895539907858 -98.26157603031157 A 0.5625 0.5625 0 0 0 -36.3527 -98.1064A 104.625 104.625 0 0 1 -36.1809 -98.1699A 0.5625 0.5625 0 0 0 -35.7832 -98.7146C -35.79351244439851 -98.97062947126993 -35.801142993820854 -99.23658110743278 -35.80559410179562 -99.51235870697963 C -35.817368845286566 -100.24205240742455 -35.80689832204382 -101.04038861731802 -35.765406830626524 -101.9060392385192 A 108 108 0 0 1 -34.6064 -102.305C -34.040432884151116 -101.64911720444717 -33.540371089343765 -101.02671176001556 -33.100119205466996 -100.44467239726058 C -32.93373291389235 -100.22469808341901 -32.77590436684593 -100.01050506812815 -32.62629365267954 -99.80243016169902 A 0.5625 0.5625 0 0 0 -31.9775 -99.6184A 104.625 104.625 0 0 1 -31.8031 -99.6742A 0.5625 0.5625 0 0 0 -31.3817 -100.201C -31.380676534629263 -100.45702649031418 -31.37653568453763 -100.72305534480687 -31.368783869706107 -100.99875990795528 C -31.348270293935276 -101.72826023986909 -31.302496936587364 -102.52535191316717 -31.222755431870883 -103.38831995097132 A 108 108 0 0 1 -30.0472 -103.736C -29.510834365562513 -103.05534801470598 -29.038793093805605 -102.41143235746341 -28.62471766573786 -101.81048886517499 C -28.468224428747682 -101.58337003383254 -28.320024834009022 -101.36240538013996 -28.17976440432292 -101.14791634931757 A 0.5625 0.5625 0 0 0 -27.5398 -100.935A 104.625 104.625 0 0 1 -27.363 -100.983A 0.5625 0.5625 0 0 0 -26.9187 -101.491C -26.906411476905262 -101.74677416253635 -26.890507333208152 -102.0123594713835 -26.870567770111897 -102.28745129350399 C -26.81780603136719 -103.01533022572961 -26.736819443410635 -103.80961701805036 -26.618984023135116 -104.66821317199847 A 108 108 0 0 1 -25.4292 -104.964C -24.923467002872993 -104.25984314174146 -24.480370297123073 -103.59567776682523 -24.0932818969598 -102.9770065201099 C -23.946988057414426 -102.7431877670444 -23.808707522649684 -102.51588402363626 -23.678071943821617 -102.29540074077082 A 0.5625 0.5625 0 0 0 -23.0481 -102.055A 104.625 104.625 0 0 1 -22.8694 -102.095A 0.5625 0.5625 0 0 0 -22.4031 -102.582C -22.379475855188712 -102.83734774630149 -22.35183955099427 -103.10196961378915 -22.31975127226441 -103.37591018972155 C -22.23484465412711 -104.10074286506793 -22.118803370610973 -104.89066992271563 -21.96310470314516 -105.74321345051663 A 108 108 0 0 1 -20.7614 -105.986C -20.28731078311802 -105.26024472977923 -19.874026025984428 -104.57712977210002 -19.514682397446652 -103.94194184897601 C -19.37887433240696 -103.70188088537677 -19.25078354825659 -103.46868301000497 -19.130028545566766 -103.2426370814766 A 0.5625 0.5625 0 0 0 -18.5113 -102.974A 104.625 104.625 0 0 1 -18.331 -103.007A 0.5625 0.5625 0 0 0 -17.8436 -103.473C -17.808731358544264 -103.72661239260597 -17.769416993215756 -103.98975280900186 -17.725242813164762 -104.26200588720457 C -17.608357524327097 -104.98237341167149 -17.457488701513164 -105.7663944153358 -17.264231574310248 -106.61121642299852 A 108 108 0 0 1 -16.053 -106.8C -15.611441199811905 -106.05459444573181 -15.228777415614616 -105.3538671348984 -14.897881990729983 -104.7034059455537 C -14.772825550860837 -104.4575727020302 -14.655175261049976 -104.21893719048677 -14.54453721808682 -103.98777111181572 A 0.5625 0.5625 0 0 0 -13.9383 -103.692A 104.625 104.625 0 0 1 -13.7567 -103.717A 0.5625 0.5625 0 0 0 -13.2492 -104.161C -13.20312543396641 -104.41282732414474 -13.152209967220168 -104.67397117972665 -13.09603635887992 -104.94400381201406 C -12.947401207783724 -105.65849603234393 -12.76200017847746 -106.43507622409247 -12.531562901439298 -107.27052293286404 A 108 108 0 0 1 -11.3132 -107.406C -10.905011487242962 -106.64133731272752 -10.55371775830945 -105.92436935535703 -10.251918280411045 -105.2599082081155 C -10.137858269566147 -105.00878391478629 -10.030878780061958 -104.7651779072914 -9.93057427599014 -104.52934419693224 A 0.5625 0.5625 0 0 0 -9.33799 -104.207A 104.625 104.625 0 0 1 -9.15554 -104.224A 0.5625 0.5625 0 0 0 -8.62889 -104.645C -8.57167377133219 -104.89464924296459 -8.509256872585365 -105.15328533637192 -8.441193798432101 -105.42056892118558 C -8.261099745365563 -106.12778718530448 -8.04152944078828 -106.89540637294368 -7.774363105706022 -107.71984235665906 A 108 108 0 0 1 -6.55117 -107.801C -6.177234702587922 -107.01932475405073 -5.857998702889345 -106.28751964858857 -5.585885958627669 -105.61035925734905 C -5.483045654634514 -105.35443550181115 -5.386946382811467 -105.10633586856423 -5.297171768408011 -104.86629618207972 A 0.5625 0.5625 0 0 0 -4.71941 -104.519A 104.625 104.625 0 0 1 -4.53642 -104.527A 0.5625 0.5625 0 0 0 -3.99165 -104.924C -3.923442654764334 -105.17113496003307 -3.849646508027324 -105.4267569989674 -3.7698272047249466 -105.69076831613839 C -3.5586267922541683 -106.38932821108331 -3.3053170315881077 -107.14648374400592 -3.0019446291088245 -107.95829513051142 A 108 108 0 0 1 -1.77635 -107.985C -1.4373656909192987 -107.18781684153474 -1.1508123399164047 -106.44260713084047 -0.9089190027667806 -105.75407306886831 C -0.817499720349822 -105.49385083389136 -0.7324687850453355 -105.24174324157525 -0.6533997983337569 -104.997967467924 A 0.5625 0.5625 0 0 0 -0.0915836 -104.625A 104.625 104.625 0 0 1 0.0915836 -104.625A 0.5625 0.5625 0 0 0 0.6534 -104.998C 0.7324687850452969 -105.24174324157525 0.8174997203497829 -105.49385083389136 0.9089190027667415 -105.75407306886831 C 1.1508123399163657 -106.44260713084047 1.4373656909192596 -107.18781684153474 1.776350295071332 -107.98541447191856 A 108 108 0 0 1 3.00194 -107.958C 3.3053170315880687 -107.14648374400592 3.5586267922541293 -106.38932821108331 3.7698272047249075 -105.69076831613839 C 3.849646508027285 -105.4267569989674 3.923442654764295 -105.17113496003307 3.991651232529424 -104.9241003017397 A 0.5625 0.5625 0 0 0 4.53642 -104.527A 104.625 104.625 0 0 1 4.71941 -104.519A 0.5625 0.5625 0 0 0 5.29717 -104.866C 5.386946382811429 -105.10633586856423 5.483045654634476 -105.35443550181115 5.58588595862763 -105.61035925734905 C 5.857998702889306 -106.28751964858857 6.177234702587885 -107.01932475405073 6.551167930131384 -107.80114729349617 A 108 108 0 0 1 7.77436 -107.72C 8.04152944078824 -106.89540637294368 8.261099745365524 -106.12778718530448 8.441193798432064 -105.42056892118558 C 8.509256872585327 -105.15328533637192 8.57167377133215 -104.89464924296459 8.628888418656778 -104.64483928197346 A 0.5625 0.5625 0 0 0 9.15554 -104.224A 104.625 104.625 0 0 1 9.33799 -104.207A 0.5625 0.5625 0 0 0 9.93057 -104.529C 10.030878780061922 -104.7651779072914 10.13785826956611 -105.00878391478629 10.251918280411006 -105.2599082081155 C 10.553717758309412 -105.92436935535703 10.905011487242925 -106.64133731272752 11.31316134632501 -107.4058543068992 A 108 108 0 0 1 12.5316 -107.271C 12.762000178477424 -106.43507622409247 12.947401207783686 -105.65849603234393 13.09603635887988 -104.94400381201406 C 13.15220996722013 -104.67397117972665 13.20312543396637 -104.41282732414474 13.249234150491553 -104.16073107518561 A 0.5625 0.5625 0 0 0 13.7567 -103.717A 104.625 104.625 0 0 1 13.9383 -103.692A 0.5625 0.5625 0 0 0 14.5445 -103.988C 14.655175261049845 -104.21893719048678 14.772825550860706 -104.4575727020302 14.897881990729852 -104.70340594555371 C 15.228777415614482 -105.35386713489841 15.61144119981177 -106.05459444573182 16.05300871791655 -106.80030931671187 A 108 108 0 0 1 17.2642 -106.611C 17.45748870151303 -105.76639441533581 17.608357524326966 -104.9823734116715 17.725242813164634 -104.26200588720458 C 17.769416993215625 -103.98975280900186 17.808731358544133 -103.72661239260599 17.843643884292007 -103.47272334592463 A 0.5625 0.5625 0 0 0 18.331 -103.007A 104.625 104.625 0 0 1 18.5113 -102.974A 0.5625 0.5625 0 0 0 19.13 -103.243C 19.250783548256553 -103.46868301000498 19.378874332406916 -103.70188088537677 19.514682397446613 -103.94194184897603 C 19.874026025984392 -104.57712977210004 20.28731078311798 -105.26024472977925 20.76143157109273 -105.98569770568893 A 108 108 0 0 1 21.9631 -105.743C 22.118803370610934 -104.89066992271565 22.234844654127073 -104.10074286506794 22.31975127226437 -103.37591018972157 C 22.351839550994235 -103.10196961378915 22.379475855188677 -102.8373477463015 22.403123847250594 -102.58216290162945 A 0.5625 0.5625 0 0 0 22.8694 -102.095A 104.625 104.625 0 0 1 23.0481 -102.055A 0.5625 0.5625 0 0 0 23.6781 -102.295C 23.80870752264964 -102.51588402363627 23.946988057414387 -102.7431877670444 24.093281896959763 -102.9770065201099 C 24.48037029712303 -103.59567776682525 24.923467002872954 -104.25984314174147 25.429212947010473 -104.96361411431313 A 108 108 0 0 1 26.619 -104.668C 26.736819443410596 -103.80961701805037 26.817806031367148 -103.01533022572963 26.870567770111858 -102.28745129350399 C 26.890507333208113 -102.01235947138353 26.906411476905227 -101.74677416253637 26.918748643226213 -101.49079305619055 A 0.5625 0.5625 0 0 0 27.363 -100.983A 104.625 104.625 0 0 1 27.5398 -100.935A 0.5625 0.5625 0 0 0 28.1798 -101.148C 28.320024834008983 -101.36240538013998 28.468224428747646 -101.58337003383255 28.624717665737826 -101.810488865175 C 29.03879309380557 -102.41143235746343 29.510834365562477 -103.055348014706 30.047215444427266 -103.73605931921172 A 108 108 0 0 1 31.2228 -103.388C 31.30249693658733 -102.52535191316719 31.34827029393524 -101.7282602398691 31.36878386970607 -100.99875990795529 C 31.376535684537593 -100.72305534480688 31.38067653462923 -100.45702649031419 31.381678724626866 -100.20075021733115 A 0.5625 0.5625 0 0 0 31.8031 -99.6742A 104.625 104.625 0 0 1 31.9775 -99.6184A 0.5625 0.5625 0 0 0 32.6263 -99.8024C 32.77590436684589 -100.01050506812815 32.933732913892314 -100.22469808341901 33.10011920546695 -100.44467239726059 C 33.54037108934373 -101.02671176001557 34.04043288415108 -101.64911720444717 34.60639910659277 -102.30543631654211 A 108 108 0 0 1 35.7654 -101.906C 35.806898322043786 -101.04038861731802 35.81736884528653 -100.24205240742457 35.80559410179559 -99.51235870697964 C 35.80114299382082 -99.23658110743278 35.79351244439847 -98.97062947126993 35.783177696238766 -98.71455970448882 A 0.5625 0.5625 0 0 0 36.1809 -98.1699A 104.625 104.625 0 0 1 36.3527 -98.1064A 0.5625 0.5625 0 0 0 37.009 -98.2616C 37.167623527726505 -98.46282949594688 37.334772070288196 -98.66983157995011 37.51072570746804 -98.88223076624143 C 37.976292233416906 -99.44422663007781 38.503395656828424 -100.04390347381272 39.09783911738879 -100.6745456180142 A 108 108 0 0 1 40.238 -100.224C 40.241206022541 -99.3576340158885 40.21635321513764 -98.55961605002044 40.17231320199825 -97.83115739072949 C 40.15566788447008 -97.5558466023858 40.136280872692566 -97.29049279736971 40.114629417130374 -97.03513080538401 A 0.5625 0.5625 0 0 0 40.4878 -96.4734A 104.625 104.625 0 0 1 40.6567 -96.4024A 0.5625 0.5625 0 0 0 41.3192 -96.5284C 41.48658532015802 -96.72240831120762 41.66272665711362 -96.92181424762293 41.847903202391095 -97.12622252498258 C 42.337873002074474 -97.66707475660552 42.89098622438604 -98.2428491040613 43.51274327207592 -98.84657976875704 A 108 108 0 0 1 44.6319 -98.3463C 44.596739672519945 -97.48038218003312 44.53661218500804 -96.6842446158336 44.46039311261406 -95.95844698973065 C 44.4315861695232 -95.68414194638694 44.4004806463765 -95.41990541505196 44.367554867152826 -95.1657510809528 A 0.5625 0.5625 0 0 0 44.7156 -94.5881A 104.625 104.625 0 0 1 44.8811 -94.5097A 0.5625 0.5625 0 0 0 45.5485 -94.6062C 45.7243351736131 -94.79264847010975 45.909124500023914 -94.98406791245253 46.10316146161573 -95.18008514207852 C 46.616575396141734 -95.69873499784617 47.194615672246435 -96.24947974369931 47.84246918844727 -96.82511709776195 A 108 108 0 0 1 48.9384 -96.2758C 48.86497311032468 -95.41230791837643 48.769688645084635 -94.61960923251405 48.66143971584951 -93.89789342253567 C 48.62052753813986 -93.62513108919566 48.57776439414624 -93.36252908696042 48.53362874502012 -93.11007992979194 A 0.5625 0.5625 0 0 0 48.8557 -92.5176A 104.625 104.625 0 0 1 49.0176 -92.4319A 0.5625 0.5625 0 0 0 49.6887 -92.4988C 49.872577493748715 -92.67732756816385 50.065653075830575 -92.86038580388662 50.268170617272425 -93.04762827284699 C 50.80402365475428 -93.54306047131087 51.40585944366685 -94.06769750685831 52.0785412246974 -94.61411471313534 A 108 108 0 0 1 53.1491 -94.0169C 53.037551068564305 -93.15745958340247 52.9072961494114 -92.36975152077997 52.76722926569749 -91.65353031951602 C 52.714291940878134 -91.38284464125617 52.65995488690013 -91.12239122387184 52.60469576547733 -90.8721414247142 A 0.5625 0.5625 0 0 0 52.9003 -90.266A 104.625 104.625 0 0 1 53.0582 -90.1733A 0.5625 0.5625 0 0 0 53.7316 -90.2104C 53.92319190142137 -90.38058644537111 54.124175784655506 -90.55492512938102 54.33477746834979 -90.73302630174987 C 54.89202065130294 -91.20427101111595 55.51647383120434 -91.70177333472365 56.21266707088909 -92.21790075587397 A 108 108 0 0 1 57.2558 -91.5739C 57.106305529940954 -90.72025114661481 56.9413351369962 -89.93907568275559 56.769724486305925 -89.22975112684134 C 56.704865641676136 -88.96167198358825 56.639061045048585 -88.70387700085027 56.57278662365426 -88.45631643543706 A 0.5625 0.5625 0 0 0 56.8413 -87.8377A 104.625 104.625 0 0 1 56.995 -87.7381A 0.5625 0.5625 0 0 0 57.6693 -87.7454C 57.86824912871105 -87.90692108033444 58.07674787770782 -88.0721989364706 58.295021440968846 -88.24081017083937 C 58.87256393969449 -88.6869449074594 59.5184121141607 -89.15633863496616 60.236753981539685 -89.64116592732549 A 108 108 0 0 1 61.2504 -88.9517C 61.06327171652761 -88.10545355797989 60.86390878708221 -87.33233988053848 60.66109030532315 -86.63130050610205 C 60.58443690511707 -86.36635267536762 60.50729358142805 -86.11172077306081 60.43013359535434 -85.86733405282426 A 0.5625 0.5625 0 0 0 60.671 -85.2374A 104.625 104.625 0 0 1 60.8201 -85.1311A 0.5625 0.5625 0 0 0 61.4941 -85.1086C 61.70002654083524 -85.26117378916936 61.91563200950236 -85.41706727826691 62.14115017157991 -85.57585851022634 C 62.737861419515355 -85.99600994440289 63.4038403104158 -86.43637621554436 64.14292461755028 -86.8889543069204 A 108 108 0 0 1 65.125 -86.1553C 64.9007036811947 -85.31818540656846 64.66733847754514 -84.55464692187391 64.4337091914197 -83.86326504641161 C 64.34541128826788 -83.60196717601649 64.25708024919616 -83.35099680804709 64.16918574273924 -83.11026233146852 A 0.5625 0.5625 0 0 0 64.3819 -82.4703A 104.625 104.625 0 0 1 64.5262 -82.3575A 0.5625 0.5625 0 0 0 65.1986 -82.3052C 65.41102325356924 -82.44852374644277 65.63331338407697 -82.59472769967604 65.86563468257843 -82.74338808793273 C 66.48034658943426 -83.13673375350304 67.16515251181559 -83.54721053062384 67.92353246646687 -83.96665347814965 A 108 108 0 0 1 68.8722 -83.1903C 68.61108947066538 -82.36390290067719 68.34417881615666 -81.61143427116913 68.08019606596365 -80.93106330716948 C 67.98042650715801 -80.67392689996552 67.88108066486062 -80.42710935261444 67.78262369564439 -80.19049836873664 A 0.5625 0.5625 0 0 0 67.9669 -79.5418A 104.625 104.625 0 0 1 68.106 -79.4227A 0.5625 0.5625 0 0 0 68.7754 -79.3407C 68.9939748165793 -79.47447684669548 69.2225144655584 -79.61070506296026 69.46118412063213 -79.74894359782309 C 70.09269335898377 -80.11471350217529 70.79498577309441 -80.49449725770819 71.57117681088772 -80.8799839821169 A 108 108 0 0 1 72.4846 -80.0624C 72.18716583051686 -79.24838918704461 71.8872322152893 -78.50846340540123 71.5934127596589 -77.84043521097652 C 71.48236684879596 -77.58796362355598 71.37220067742446 -77.34578205376273 71.26337397958974 -77.1137577396979 A 0.5625 0.5625 0 0 0 71.4187 -76.4575A 104.625 104.625 0 0 1 71.5525 -76.3324A 0.5625 0.5625 0 0 0 72.2176 -76.2209C 72.44186743392518 -76.34485492639519 72.67620922428056 -76.47084073256086 72.9207600288688 -76.59838680560614 C 73.56783038972647 -76.93586493697588 74.28623452518612 -77.28421222638477 75.078717215715 -77.63498811931088 A 108 108 0 0 1 75.9551 -76.7778C 75.62193242334199 -75.97774303006986 75.28956298153231 -75.2518085357557 74.96648198584667 -74.59743080746716 C 74.84437710051166 -74.3501182648185 74.72360625551994 -74.11304675437879 74.60462286243823 -73.88606330861758 A 0.5625 0.5625 0 0 0 74.7308 -73.2236A 104.625 104.625 0 0 1 74.8589 -73.0927A 0.5625 0.5625 0 0 0 75.5184 -72.9519C 75.74795169389532 -73.06578436741796 75.98763689056763 -73.18128114035267 76.23759012498628 -73.29788507415284 C 76.89895493773216 -73.60641080324997 77.63206448470933 -73.92263972035741 78.43928750589205 -74.23801812151807 A 108 108 0 0 1 79.2769 -73.3429C 78.90866553223856 -72.55836687319484 78.54451089263716 -71.84784471707245 78.19280080311727 -71.20839843005282 C 78.0598759693573 -70.96672905809206 77.92873686534583 -70.73523168562048 77.79982969259655 -70.51373343891714 A 0.5625 0.5625 0 0 0 77.8966 -69.8463A 104.625 104.625 0 0 1 78.0188 -69.7099A 0.5625 0.5625 0 0 0 78.6714 -69.54C 78.90575578129676 -69.64368410436849 79.1503151892579 -69.7484657537155 79.4051815583128 -69.85389929059443 C 80.07954617026817 -70.13286866381584 80.82592603239782 -70.41636017566648 81.64630920726319 -70.69572371703123 A 108 108 0 0 1 82.4435 -69.7644C 82.04093122280058 -68.9969543058209 81.64570423521525 -68.30323536837703 81.26605354087762 -67.67997226876159 C 81.12256896529692 -67.44441914663315 80.9813183132201 -67.21894907910742 80.8427397026474 -67.00336962468145 A 0.5625 0.5625 0 0 0 80.9099 -66.3324A 104.625 104.625 0 0 1 81.0259 -66.1906A 0.5625 0.5625 0 0 0 81.6704 -65.9921C 81.90909814633787 -66.08525305921364 82.15805302906222 -66.17911446997377 82.41733361986739 -66.27317121883185 C 83.10337793063619 -66.52203814052908 83.86156703428814 -66.77223729917567 84.6935044242461 -67.01503911349337 A 108 108 0 0 1 85.4487 -66.0494C 85.01259793784753 -65.30047696029267 84.58707227766632 -64.62491922892445 84.18022416257357 -64.01905938349917 C 84.02646072296687 -63.79008361750122 83.8753750276093 -63.57108222316663 83.72739625335103 -63.36184356792364 A 0.5625 0.5625 0 0 0 83.7648 -62.6885A 104.625 104.625 0 0 1 83.8744 -62.5418A 0.5625 0.5625 0 0 0 84.5095 -62.3149C 84.75209960530195 -62.397457027828416 85.00496262191565 -62.48021446188237 85.26814988053876 -62.56271030221681 C 85.96453092616595 -62.78098760370382 86.73304508056523 -62.99740463254396 87.57490812910713 -63.20316942386107 A 108 108 0 0 1 88.2867 -62.2051C 87.81784850023504 -61.476170864600846 87.36285715392047 -60.82009677529166 86.92960804236348 -60.23282618315515 C 86.7658667378846 -60.01087600410233 86.60524175658988 -59.7987719884726 86.44815249404576 -59.596283726906144 A 0.5625 0.5625 0 0 0 86.4557 -58.922A 104.625 104.625 0 0 1 86.5588 -58.7705A 0.5625 0.5625 0 0 0 87.1832 -58.5158C 87.42919484932557 -58.58751504412332 87.68547100859915 -58.65900649990765 87.95204973362213 -58.72977994223698 C 88.65740431550884 -58.9170403354458 89.43473911810872 -59.099251587982586 90.2848798387831 -59.267576562057386 A 108 108 0 0 1 90.9518 -58.239C 90.45119150025255 -57.53152227751732 89.96762513473143 -56.89621612610626 89.5088231321915 -56.3286843970209 C 89.33542449413319 -56.114194282811496 89.16557465784521 -55.90940284945765 88.99968241662359 -55.71406136184857 A 0.5625 0.5625 0 0 0 88.9774 -55.0401A 104.625 104.625 0 0 1 89.0736 -54.8842A 0.5625 0.5625 0 0 0 89.6862 -54.6021C 89.93514333875204 -54.66288524844658 90.19433096806897 -54.722970778079336 90.46377931911908 -54.78188328006667 C 91.17672667254774 -54.937760193983834 91.96136045396848 -55.08540898313376 92.81811465639196 -55.21596463592497 A 108 108 0 0 1 93.4389 -54.1589C 92.9074720453156 -53.47425303389224 92.39627726445676 -52.8609584620047 91.9128204973992 -52.314276565981494 C 91.73010396173832 -52.107666391086546 91.55136175948776 -51.91058842885638 91.3769912814411 -51.722776105339925 A 0.5625 0.5625 0 0 0 91.3249 -51.0504A 104.625 104.625 0 0 1 91.4142 -50.8905A 0.5625 0.5625 0 0 0 92.0136 -50.5815C 92.26503956173383 -50.631250287924026 92.52663128913827 -50.679812271159335 92.79842180841499 -50.726748508815504 C 93.51756630546124 -50.85093680706202 94.30796310822923 -50.963734103386756 95.16965365581734 -51.056264866073114 A 108 108 0 0 1 95.743 -49.9727C 95.18188185091013 -49.312305428799576 94.64405934250284 -48.72222298936038 94.13689420025233 -48.19746108188299 C 93.9452174431878 -47.99913529542229 93.75793277122929 -47.81015659368165 93.57542539475685 -47.63024108570079 A 0.5625 0.5625 0 0 0 93.4937 -46.9608A 104.625 104.625 0 0 1 93.5758 -46.7971A 0.5625 0.5625 0 0 0 94.161 -46.462C 94.41432263700243 -46.500502277316585 94.6778063844036 -46.5374456517918 94.95140702920216 -46.57231374522746 C 95.675340910742 -46.664570323377625 96.46995349599874 -46.74229532087262 97.33489358903957 -46.79662006014093 A 108 108 0 0 1 97.8598 -45.6888C 97.26996865303536 -45.053826670121474 96.70657122989599 -44.48811147721613 96.17669051203498 -43.9862968043613 C 95.97642874981992 -43.79664363837523 95.78096822669373 -43.61613413180723 95.5906812185555 -43.44446763241767 A 0.5625 0.5625 0 0 0 95.4794 -42.7793A 104.625 104.625 0 0 1 95.5542 -42.6121A 0.5625 0.5625 0 0 0 96.124 -42.2514C 96.37878524200748 -42.27872734983533 96.64364522759666 -42.30397979716005 96.91852041180657 -42.3267114904449 C 97.64582654327086 -42.38685575191461 98.44309941956568 -42.42935630024731 99.30959589720945 -42.44536867286937 A 108 108 0 0 1 99.785 -41.3154C 99.16764492371938 -40.70715293000662 98.57977546276089 -40.16691239769125 98.02821643567783 -39.68902728524633 C 97.81976169011605 -39.508417994713426 97.61650793897506 -39.33673103915391 97.41881379492536 -39.17364959358967 A 0.5625 0.5625 0 0 0 97.2782 -38.5141A 104.625 104.625 0 0 1 97.3455 -38.3437A 0.5625 0.5625 0 0 0 97.8988 -37.9582C 98.15458184894848 -37.97418982815552 98.42029959686602 -37.98770191547825 98.69591123940603 -37.99825271025519 C 99.4251658848881 -38.02616691982824 100.2235383531257 -38.03335982217946 101.08989500782668 -38.0110284831839 A 108 108 0 0 1 101.515 -36.8611C 100.87119587254737 -36.28079302642122 100.26000515584597 -35.76708470090756 99.68784752223763 -35.31406463142169 C 99.47160785328262 -35.142852767509574 99.26095875288948 -34.98032444823649 99.056244468499 -34.82614729608558 A 0.5625 0.5625 0 0 0 98.8866 -34.1735A 104.625 104.625 0 0 1 98.9463 -34.0003A 0.5625 0.5625 0 0 0 99.482 -33.5906C 99.7382362525758 -33.59531604661713 100.00429160785202 -33.5970613233924 100.28010018598914 -33.5954105659852 C 101.00987579527464 -33.59104008028551 101.80778500385681 -33.562911256211116 102.6723059017793 -33.50227992024271 A 108 108 0 0 1 103.046 -32.3347C 102.37728671853817 -31.783411766738663 101.74397118062336 -31.297241256197655 101.15233496592606 -30.86997303773068 C 100.92873367288442 -30.70849375570311 100.71110157874523 -30.555442229533757 100.49976789183908 -30.410471179811687 A 0.5625 0.5625 0 0 0 100.301 -29.7659A 104.625 104.625 0 0 1 100.353 -29.5903A 0.5625 0.5625 0 0 0 100.87 -29.1573C 101.12664837502587 -29.15067785627967 101.39252052180886 -29.140652906046245 101.66798612729937 -29.126803827890043 C 102.39685413036283 -29.0901572023486 103.1927381345439 -29.026761715342648 104.05373093543226 -28.927949071088804 A 108 108 0 0 1 104.375 -27.745C 103.68296921813464 -27.223812985972014 103.02876860391241 -26.766131992008653 102.4188119637997 -26.36545202216277 C 102.18828675670291 -26.21402142529737 101.96409769386196 -26.07074629778154 101.74655830005649 -25.935265138125978 A 0.5625 0.5625 0 0 0 101.52 -25.3001A 104.625 104.625 0 0 1 101.564 -25.1224A 0.5625 0.5625 0 0 0 102.061 -24.667C 102.31710033436906 -24.64897584512118 102.58226881544613 -24.627200292189908 102.85685221143142 -24.60118000350555 C 103.58338581492914 -24.532328975612778 104.3756866343962 -24.43379092531813 105.23146590441043 -24.296990403170227 A 108 108 0 0 1 105.5 -23.101C 104.78568743652889 -22.610922312853628 104.11188237442288 -22.18262676750632 103.48479932766138 -21.809319396138452 C 103.24780147042779 -21.66823391693978 103.01749429950354 -21.535015655867788 102.79417504237779 -21.409289597010968 A 0.5625 0.5625 0 0 0 102.54 -20.7848A 104.625 104.625 0 0 1 102.576 -20.6052A 0.5625 0.5625 0 0 0 103.053 -20.1283C 103.30726176499132 -20.09902230622865 103.57120750060842 -20.065538777266976 103.8443711771964 -20.027398213991475 C 104.56714815748148 -19.926477562867724 105.35431482617392 -19.792989842145193 106.20320533720552 -19.618469235549494 A 108 108 0 0 1 106.419 -18.4117C 105.68328275102473 -17.953769697497723 104.99119224608594 -17.555698009409262 104.34821033718754 -17.2104940032294 C 104.10520376425212 -17.08002982314837 103.86922932234688 -16.957129209522204 103.64056735983375 -16.84140436612844 A 0.5625 0.5625 0 0 0 103.359 -16.2288A 104.625 104.625 0 0 1 103.387 -16.0478A 0.5625 0.5625 0 0 0 103.842 -15.5502C 104.09519437939416 -15.509723987320442 104.35740068337893 -15.464598027908696 104.62860990984487 -15.414411851985749 C 105.34621539703679 -15.281619134544831 106.12670699923524 -15.113443051876319 106.96704700824492 -14.901543993115725 A 108 108 0 0 1 107.129 -13.6864C 106.37399807664295 -13.261471734848902 105.6649769285354 -12.894403148042196 105.0073548247812 -12.577978260103228 C 104.75881523292207 -12.458390768898955 104.51763545108723 -12.346048386441208 104.28407839971634 -12.240551295325886 A 0.5625 0.5625 0 0 0 103.975 -11.641A 104.625 104.625 0 0 1 103.996 -11.4589A 0.5625 0.5625 0 0 0 104.428 -10.9417C 104.67935576248348 -10.890064655369688 104.93930935368262 -10.833384601692538 105.20803322522976 -10.771251054918258 C 105.91906247288851 -10.606846219140518 106.69135115962975 -10.404310987105404 107.52149566158748 -10.155448278538236 A 108 108 0 0 1 107.63 -8.93435C 106.85648130569753 -8.543213818519796 106.13191745661429 -8.207866886991074 105.46094248415439 -7.920840533870474 C 105.20735640129406 -7.812363829672824 104.9614434002784 -7.7107995938727605 104.72344845894563 -7.6157367705458885 A 0.5625 0.5625 0 0 0 104.389 -7.03042A 104.625 104.625 0 0 1 104.401 -6.84765A 0.5625 0.5625 0 0 0 104.81 -6.31181C 105.05860239091967 -6.249087510458034 105.315794397971 -6.180964316382251 105.58150687500147 -6.107005028092242 C 106.28456800998481 -5.911309904164175 107.04714198989782 -5.674811994990237 107.86546593795737 -5.389472797055118 A 108 108 0 0 1 107.92 -4.16478C 107.12978795461021 -3.808232159951165 106.39109977231143 -3.5052633410668035 105.70808539616344 -3.2481973903295773 C 105.44994922896753 -3.1510438213810876 105.19978439501861 -3.060456548999749 104.95781744999788 -2.976014083402144 A 0.5625 0.5625 0 0 0 104.597 -2.40608A 104.625 104.625 0 0 1 104.601 -2.22296A 0.5625 0.5625 0 0 0 104.987 -1.66953" stroke="#191919" stroke-width="0.35 px" style="stroke-width:0.35;stroke-miterlimit:4;stroke-dasharray:none;fill:none;fill-rule: evenodd "/>
<title>b'InvoluteGear'</title>
</g>
</svg>