<?xml version="1.0"?>
<!DOCTYPE svg PUBLIC "-//W3C//DTD SVG 1.1//EN" "http://www.w3.org/Graphics/SVG/1.1/DTD/svg11.dtd">
<svg width="194.2910457421018mm" height="194.3060865416287mm" viewBox="0 0 194.2910457421018 194.3060865416287" xmlns="http://www.w3.org/2000/svg" version="1.1">
<g id="InvoluteGear" transform="translate(97.138153,97.153043) scale(1,-1)">
<path id="InvoluteGear_w0000"  d="M 92.23502889143377 -1.6619101649540573 C 92.47949588187929 -1.5907610320127268 92.73394685023648 -1.5130063801978102 92.9981090438958 -1.4280608339659007 C 93.68447138862516 -1.2073460336845412 94.43619251558802 -0.938175547178739 95.24807836853317 -0.6104640978999791 A 95.25 95.25 0 0 1 95.2481 0.610464C 94.43619251558802 0.938175547178739 93.68447138862516 1.2073460336845412 92.9981090438958 1.4280608339659007 C 92.73394685023648 1.5130063801978102 92.47949588187929 1.5907610320127268 92.2350296688976 1.6619098486315758 A 0.5625 0.5625 0 0 0 91.8483 2.2141A 91.875 91.875 0 0 1 91.8436 2.40355A 0.5625 0.5625 0 0 0 92.202 2.97448C 92.44261696896727 3.057817384393993 92.69283982524404 3.148258544124873 92.95240033953688 3.24636944975505 C 93.62680611418854 3.5012912857011544 94.36405349717927 3.807891513687698 95.15844826473247 4.175981700306344 A 95.25 95.25 0 0 1 95.0971 5.39537C 94.2697775157774 5.6818726951906555 93.50548155764947 5.912933492206045 92.80889645369318 6.09888371208176 C 92.54079987729467 6.170449319093368 92.28276356208643 6.235321047993669 92.03503129675978 6.2940969623804435 A 0.5625 0.5625 0 0 0 91.6211 6.82616A 91.875 91.875 0 0 1 91.6068 7.01513A 0.5625 0.5625 0 0 0 91.9361 7.60335C 92.17221998268505 7.698671488705987 92.41758264223012 7.801570694134144 92.67188580477064 7.912599122500122 C 93.3326314018275 8.201084039429224 94.05354268997249 8.544339510111405 94.828439662007 8.95187860631274 A 95.25 95.25 0 0 1 94.7059 10.1666C 93.86522887647982 10.411216939656354 93.09028876510872 10.603584367554772 92.3852405363533 10.754300280631195 C 92.11388681243514 10.812305167488157 91.85291697250247 10.864130101856556 91.60254444803327 10.910384640950472 A 0.5625 0.5625 0 0 0 91.1624 11.421A 91.875 91.875 0 0 1 91.1386 11.609A 0.5625 0.5625 0 0 0 91.438 12.213C 91.66898796928714 12.320078080685477 91.90887062472795 12.435175399487587 92.15727404365717 12.558840883143382 C 92.80269036239632 12.880160143118301 93.50544447121524 13.259203763386731 94.25888619072798 13.705162290044262 A 95.25 95.25 0 0 1 94.0755 14.9122C 93.22356852266802 15.114261546564146 92.43994182403058 15.267449668527545 91.72821148349155 15.38255055332792 C 91.4542860751106 15.42684819465191 91.19104194291825 15.465495420206409 90.93866162203261 15.499111741027377 A 0.5625 0.5625 0 0 0 90.4734 15.9869A 91.875 91.875 0 0 1 90.4402 16.1735A 0.5625 0.5625 0 0 0 90.7089 16.7918C 90.93419213651391 16.91036308619865 91.1679888234439 17.037367772558362 91.40986501016714 17.173357921759578 C 92.03832167295306 17.526699844442973 92.72114338457648 17.940574117216432 93.45122659239426 18.423825544387984 A 95.25 95.25 0 0 1 93.2074 19.6202C 92.34641734408417 19.779126217069315 91.5560835672305 19.89274806660673 90.8394690075177 19.971943168306677 C 90.56366387402896 20.00242166441121 90.29881042710123 20.027793554905948 90.04505984439331 20.04868673971008 A 0.5625 0.5625 0 0 0 89.5559 20.5125A 91.875 91.875 0 0 1 89.5134 20.6972A 0.5625 0.5625 0 0 0 89.7506 21.3282C 89.96968864241036 21.457931046940082 90.19680877010761 21.59652227599717 90.43154672438526 21.744493567824627 C 91.0414561951453 22.12896558085397 91.70262064266892 22.576625023800123 92.40750108524638 23.09594861644026 A 95.25 95.25 0 0 1 92.1039 24.2785C 91.23599110073151 24.394027098160056 90.4409466973734 24.467795656618545 89.72125814905819 24.51088492151799 C 89.44426999816541 24.527467281076735 89.17847627929537 24.539499744914345 88.92399643075956 24.54761701570355 A 0.5625 0.5625 0 0 0 88.4121 24.9863A 91.875 91.875 0 0 1 88.3604 25.1686A 0.5625 0.5625 0 0 0 88.5656 25.8107C 88.7779139065099 25.951294411566778 88.99778374982054 26.10112208984859 89.22479050320766 26.260700735977 C 89.81461209768587 26.67533162967984 90.45244912233416 27.155645416194353 91.13034621049822 27.709729317837027 A 95.25 95.25 0 0 1 90.7677 28.8756C 89.89509482567242 28.947306549692875 89.09734814697303 28.98103547129155 88.37640360578877 28.987910052167724 C 88.09893213360033 28.990554386701287 87.83286956078953 28.989217028833842 87.57830328460904 28.98453788067763 A 0.5625 0.5625 0 0 0 87.045 29.3969A 91.875 91.875 0 0 1 86.9842 29.5764A 0.5625 0.5625 0 0 0 87.1569 30.2281C 87.36187845522709 30.379102554249826 87.57394260384488 30.539788204037784 87.79264471758098 30.710571094957523 C 88.36088849524029 31.154313475711387 88.97378686533239 31.666068291484077 89.622988172205 32.25351283810592 A 95.25 95.25 0 0 1 89.2022 33.3996C 88.3271157392713 33.42746259260334 87.52868196257589 33.421066675158976 86.80830259700288 33.39170920622396 C 86.53104872053875 33.38040883591381 86.26538939093713 33.36570503462335 86.01137974361887 33.34824128745606 A 0.5625 0.5625 0 0 0 85.4581 33.7333A 91.875 91.875 0 0 1 85.3883 33.9095A 0.5625 0.5625 0 0 0 85.528 34.569C 85.72515931700673 34.73017044734035 85.92888207848765 34.90130816273751 86.1387270920527 35.08286388604421 C 86.68395761979403 35.55459682208382 87.27036910085488 36.096499930035876 87.88923468759205 36.71582118572901 A 95.25 95.25 0 0 1 87.4114 37.8394C 86.5360146927822 37.82317796390343 85.73891073110508 37.77667336405858 85.02091628194106 37.711158004826785 C 84.74458036855546 37.68594147538907 84.47999536068562 37.65790837375376 84.2271839926437 37.62770414251638 A 0.5625 0.5625 0 0 0 83.6552 37.9845A 91.875 91.875 0 0 1 83.5767 38.157A 0.5625 0.5625 0 0 0 83.6831 38.8227C 83.87189098643948 38.99350691572007 84.06675773940735 39.17466438800464 84.26721556608508 39.366534318184385 C 84.78805554427588 39.865066171172565 85.34649881001089 40.43574867702263 85.93346536843043 41.085382182545544 A 95.25 95.25 0 0 1 85.3998 42.1835C 84.5263161628945 42.12334870507006 83.73255557002192 42.03685289747998 83.01875975355874 41.935345145434745 C 82.74403985175151 41.89627615601131 82.48119753030615 41.85498456807884 82.23022306499722 41.812116151280826 A 0.5625 0.5625 0 0 0 81.641 42.1397A 91.875 91.875 0 0 1 81.5539 42.308A 0.5625 0.5625 0 0 0 81.6268 42.9782C 81.80675498016976 43.15834240146358 81.99227347429446 43.34906201113829 82.18283774021735 43.55076146809542 C 82.67797148187009 44.07483290330497 83.20703585612384 44.672853213514905 83.76062065775756 45.35115793825227 A 95.25 95.25 0 0 1 83.1724 46.4211C 82.30309682251234 46.31711221160797 81.51468470659077 46.190843692189425 80.8068906330097 46.05359996472209 C 80.5344807090952 46.00077720697094 80.27404503658983 45.94633143887602 80.02554145729484 45.890907125858675 A 0.5625 0.5625 0 0 0 79.4206 46.1885A 91.875 91.875 0 0 1 79.3252 46.3522A 0.5625 0.5625 0 0 0 79.3643 47.0252C 79.53496801097835 47.21415616867627 79.71066961044296 47.41395614145491 79.89085893373661 47.6249756148561 C 80.35903568804821 48.173262782358556 80.85738470829492 48.7971102457238 81.37618934988936 49.50237273307225 A 95.25 95.25 0 0 1 80.735 50.5414C 79.87197271663825 50.393874672931446 79.09090067509717 50.228152406923066 78.39089629365608 50.055519393600306 C 78.12148447874402 49.9890763023919 77.86411333829007 49.921613888869985 77.61870838661741 49.85377368625815 A 0.5625 0.5625 0 0 0 76.9996 50.1206A 91.875 91.875 0 0 1 76.8961 50.2793A 0.5625 0.5625 0 0 0 76.9013 50.9534C 77.06226880991316 51.15070287978635 77.22770967722866 51.35907850359745 77.39706888402418 51.57888493993892 C 77.83710599588116 52.15000281876447 78.30348078924496 52.798101542450105 78.78619472524949 53.52854023815829 A 95.25 95.25 0 0 1 78.0936 54.534C 77.23908507575595 54.34333783324926 76.46732616435997 54.13858044947769 75.77687974687834 53.93099423627364 C 75.51114659859488 53.85109865262283 75.25749013202984 53.77079000958538 75.01580372218567 53.69070528761858 A 0.5625 0.5625 0 0 0 74.3841 53.9261A 91.875 91.875 0 0 1 74.2727 54.0794A 0.5625 0.5625 0 0 0 74.2441 54.7529C 74.39490362975667 54.95803847615668 74.54966584693393 55.174463376089996 74.70776712117659 55.40250152523699 C 75.11855301864446 55.99500742205756 75.55177548192162 56.66572025244039 75.99717933504012 57.41949000496968 A 95.25 95.25 0 0 1 75.2549 58.3889C 74.41108480254928 58.15552500585259 73.65058855128797 57.912249739239705 72.9714442253388 57.67023470694489 C 72.71006100867895 57.577088454029955 72.46075997425172 57.484136448079134 72.22340262708273 57.39200950771542 A 0.5625 0.5625 0 0 0 71.5807 57.5953A 91.875 91.875 0 0 1 71.4617 57.7429A 0.5625 0.5625 0 0 0 71.3993 58.4141C 71.53961046644909 58.62654529763993 71.68330309069604 58.850472765615145 71.82974705484581 59.086166583411966 C 72.2102440570963 59.69856377690979 72.60921983274612 60.39019643517047 73.0161884741899 61.16539315670783 A 95.25 95.25 0 0 1 72.2262 62.0963C 71.39511567114475 61.82080627509146 70.6478031595507 61.5396276600741 69.98167650264288 61.2637951596641 C 69.72530349429685 61.15763353300387 69.4809876480567 61.05227296897382 69.24855894882164 60.948336530860075 A 0.5625 0.5625 0 0 0 68.5964 61.1191A 91.875 91.875 0 0 1 68.4702 61.2605A 0.5625 0.5625 0 0 0 68.3741 61.9277C 68.50360203832606 62.146956377622764 68.63586208960307 62.37782075342158 68.77027881349696 62.62057485682908 C 69.11952575207981 63.251316378544686 69.48324699266665 63.96212174056305 69.85075238432746 64.75678721691212 A 95.25 95.25 0 0 1 69.015 65.6468C 68.19879628131811 65.32992282237748 67.46655528565334 65.01155114054009 66.81512899153401 64.70259794884988 C 66.56441381197097 64.58368912192685 66.32570031694918 64.46618614974633 66.09878740071431 64.35070276634568 A 0.5625 0.5625 0 0 0 65.4389 64.4885A 91.875 91.875 0 0 1 65.3057 64.6234A 0.5625 0.5625 0 0 0 65.1762 65.2849C 65.29454756616603 65.51037885218786 65.41504094410496 65.74759695236075 65.53709087943263 65.99679812344557 C 65.85420552627059 66.64429066555434 66.18175344037411 67.37247317529659 66.50886723173757 68.18460001249672 A 95.25 95.25 0 0 1 65.6294 69.0315C 64.83020081325012 68.67401031476314 64.1148810378194 68.31924980060487 63.47980066584345 67.97795636021006 C 63.23537664336603 67.8466007070409 63.00286851056849 67.7172521494155 62.78204457905355 67.59051354177694 A 0.5625 0.5625 0 0 0 62.1161 67.695A 91.875 91.875 0 0 1 61.9763 67.823A 0.5625 0.5625 0 0 0 61.8137 68.4772C 61.92055340007293 68.70831642425985 62.02897572794375 68.9512890152981 62.13835056597611 69.20630775027445 C 62.4225318619495 69.86891569042044 62.71307903511147 70.61263589566947 62.998974908351066 71.44017259084707 A 95.25 95.25 0 0 1 62.0781 72.2418C 61.297838631446645 71.84462129701608 60.601247036083855 71.45436810638463 59.98411685438825 71.08159655413584 C 59.74660142529029 70.93812589050054 59.52088599043935 70.7972584931127 59.3067088640602 70.65958481395855 A 0.5625 0.5625 0 0 0 58.6363 70.7305A 91.875 91.875 0 0 1 58.4903 70.8513A 0.5625 0.5625 0 0 0 58.295 71.4965C 58.39014254213242 71.7326908259892 58.48621993572518 71.98080413804075 58.58264338612895 72.2409962374515 C 58.83317346462063 72.91704577047152 59.08598594946563 73.67442496944292 59.32994170679323 74.51528109308572 A 95.25 95.25 0 0 1 58.3699 75.2696C 57.610632789345466 74.83374653062427 56.934529024876255 74.40898647694847 56.336907957859424 74.00567846613876 C 56.10690110672831 73.8504552113852 55.8885485466018 73.69842481750634 55.68155925536766 73.55016384249852 A 0.5625 0.5625 0 0 0 55.0084 73.5873A 91.875 91.875 0 0 1 54.8565 73.7006A 0.5625 0.5625 0 0 0 54.6291 74.3352C 54.712233116568854 74.57586222515785 54.795722876048956 74.82848950246323 54.87895136482001 75.09319769848372 C 55.09519736510872 75.78098106458438 55.30963653535897 76.55010605169018 55.511035923359124 77.40215752825367 A 95.25 95.25 0 0 1 54.5143 78.1073C 53.77789748890881 77.63383522582755 53.123989452119915 77.17564128986706 52.54738714246345 76.74281561153401 C 52.325469886566964 76.5762318730752 52.11503177868212 76.41342252467463 51.91575319550684 76.25494877390334 A 0.5625 0.5625 0 0 0 51.2416 76.2582A 91.875 91.875 0 0 1 51.0842 76.3637A 0.5625 0.5625 0 0 0 50.8252 76.9861C 50.89611584178945 77.23064852405842 50.966807064778564 77.48715160819013 51.03663034953103 77.75570722494375 C 51.21804601545249 78.45348702365096 51.39357017915318 79.2324149224229 51.551904445492774 80.09350939592947 A 95.25 95.25 0 0 1 50.521 80.7477C 49.8093145521409 80.23781411556782 49.17925407148458 79.74734373497056 48.625127066664824 79.2860937443417 C 48.41185998825111 79.10857032715846 48.20986791753195 78.93539329478016 48.0188034374116 78.76710708669341 A 0.5625 0.5625 0 0 0 47.3454 78.7365A 91.875 91.875 0 0 1 47.1829 78.834A 0.5625 0.5625 0 0 0 46.8929 79.4426C 46.95143056122336 79.69034350209641 47.00914467555707 79.95007444400254 47.06538637661385 80.22179908669396 C 47.211513436451234 80.92781266567734 47.34767920433149 81.71457583664154 47.46254838291224 82.58253810771849 A 95.25 95.25 0 0 1 46.4001 83.1841C 45.71490896396522 82.63910532317554 45.11028762689728 82.11759746868985 44.580035699819966 81.62908832327248 C 44.37595753003811 81.44107366692349 44.18292174598575 81.2579664107809 44.00055401437922 81.08029285094557 A 0.5625 0.5625 0 0 0 43.3295 81.0159A 91.875 91.875 0 0 1 43.1623 81.1051A 0.5625 0.5625 0 0 0 42.8421 81.6983C 42.88814189224052 81.94873375628535 42.9327331070571 82.21103645306515 42.97525115300023 82.48524372166449 C 43.08572047711832 83.19770762935 43.18218388263092 83.99031864045507 43.253297803938466 84.86295616107698 A 95.25 95.25 0 0 1 42.162 85.4104C 41.50502354824265 84.83164297865714 40.92736868073438 84.28041502438406 40.42233129378678 83.76588074067618 C 40.22795755180519 83.56784978650082 40.044365679563334 83.37527485141447 39.87115537318798 83.18866275866263 A 0.5625 0.5625 0 0 0 39.2042 83.0906A 91.875 91.875 0 0 1 39.0327 83.1713A 0.5625 0.5625 0 0 0 38.6831 83.7477C 38.716514054663314 84.00011439684208 38.747869728684186 84.26432624911874 38.77655671523954 84.54032347226766 C 38.85108924853822 85.25743796299122 38.90760661674897 86.05389461003399 38.93478564084626 86.92900302208932 A 95.25 95.25 0 0 1 37.8173 87.4209C 37.19029284090069 86.809888541609 36.641063649280916 86.23033293720096 36.16251657073364 85.69107327345861 C 35.97833826149384 85.48352626483381 35.80465407006533 85.28197011180295 35.64103873318764 85.08689088447655 A 0.5625 0.5625 0 0 0 34.9798 84.9554A 91.875 91.875 0 0 1 34.8045 85.0274A 0.5625 0.5625 0 0 0 34.4264 85.5855C 34.44708494245658 85.8393034582334 34.465125868527856 86.10475704393768 34.47990932987772 86.38184702869724 C 34.51831679670934 87.10180060901837 34.53474535984112 87.90009097338557 34.517920830154466 88.77545967707658 A 95.25 95.25 0 0 1 33.3772 89.2106C 32.781616226172794 88.56884479205118 32.26220011104601 87.96242554526336 31.811352192351585 87.39980271819844 C 31.6378345662472 87.18326393688055 31.474496796973295 86.97323571424037 31.320889736134042 86.77018213939816 A 0.5625 0.5625 0 0 0 30.6671 86.6057A 91.875 91.875 0 0 1 30.4884 86.6687A 0.5625 0.5625 0 0 0 30.0828 87.2072C 30.090639504092778 87.46165498927076 30.09532010926947 87.72767974960699 30.096162701107456 88.00516254262762 C 30.098348080877496 88.72613654731911 30.07464633895403 89.52424407826834 30.013860755705586 90.39766181627806 A 95.25 95.25 0 0 1 28.8527 90.7749C 28.290130403807805 90.10406845383883 27.801839455359914 89.47231743231855 27.379829577489136 88.88775267602107 C 27.21741095510293 88.66276911776468 27.06483221336456 88.44479937503348 26.921621453330687 88.23428438362812 A 0.5625 0.5625 0 0 0 26.277 88.0371A 91.875 91.875 0 0 1 26.0953 88.0911A 0.5625 0.5625 0 0 0 25.6631 88.6085C 25.658182498836275 88.86307078918617 25.649490959503495 89.12899472252198 25.636390553369484 89.40616937818636 C 25.60234832561898 90.1263425643405 25.53857615129739 90.92225117298246 25.433983064145906 91.79151161630251 A 95.25 95.25 0 0 1 24.2553 92.11C 23.72718125679996 91.41168141876337 23.27124894034451 90.75619448041932 22.87914313687426 90.1511644561969 C 22.72823380174237 89.91830444899603 22.586799514683165 89.6929437966611 22.454346818263478 89.47549916783107 A 0.5625 0.5625 0 0 0 21.8204 89.2462A 91.875 91.875 0 0 1 21.6363 89.291A 0.5625 0.5625 0 0 0 21.1786 89.786C 21.16091069776625 90.040010760043 21.138868969506667 90.30516211944384 21.111858658163513 90.5813284705163 C 21.041674816514217 91.2988816181625 20.9379933038415 92.09058077027647 20.789856924002535 92.9534880915857 A 95.25 95.25 0 0 1 19.5967 93.2123C 19.104295190703642 92.4883805429903 18.681873230841433 91.81081350471713 18.320661995061343 91.18684657092027 C 18.181643157261426 90.94669833936256 18.05171060016529 90.7145160579903 17.93035055436625 90.49069107573959 A 0.5625 0.5625 0 0 0 17.3087 90.2298A 91.875 91.875 0 0 1 17.1226 90.2653A 0.5625 0.5625 0 0 0 16.6406 90.7367C 16.610184599761308 90.98950184933068 16.574848361893462 91.25321083945069 16.53399637573179 91.52767126576053 C 16.427848210658823 92.24079177337286 16.284519268134297 93.02628156819065 16.093213800959784 93.88065598870546 A 95.25 95.25 0 0 1 14.8885 94.0792C 14.433150016932721 93.33144599108726 14.04530548819551 92.63351044602835 13.71590127103595 91.99218279728466 C 13.58912410421745 91.74535297664498 13.471021498000189 91.50693557882875 13.361060668830078 91.27729564448785 A 0.5625 0.5625 0 0 0 12.7533 90.9855A 91.875 91.875 0 0 1 12.5656 91.0117A 0.5625 0.5625 0 0 0 12.0606 91.4582C 12.01749973389325 91.70914556015323 11.968958248820753 91.97074602919663 11.914367783503067 92.24280721988714 C 11.772523434483785 92.9496936831731 11.589909123455495 93.72698990530192 11.355917823158528 94.57067320108666 A 95.25 95.25 0 0 1 10.1428 94.7085C 9.72554545359531 93.93874810656452 9.373258084922922 93.22220710047905 9.076492990024757 92.56513878608874 C 8.962277744313793 92.31225088991592 8.856303426408598 92.06820063869436 8.75801958446517 91.83332584266739 A 0.5625 0.5625 0 0 0 8.16571 91.5114A 91.875 91.875 0 0 1 7.97693 91.5281A 0.5625 0.5625 0 0 0 7.45012 91.9487C 7.394457620723031 92.19712401004074 7.332833508449997 92.45595513251894 7.264642464229484 92.72492983741078 C 7.087460242399892 93.42379659981486 6.866021862466219 94.19093573153768 6.589935811378977 95.02179668536564 A 95.25 95.25 0 0 1 5.37142 95.0985C 4.993373318381819 94.30875279157178 4.677533018241828 93.5754163692283 4.414156699990409 92.90426720077916 C 4.312791893010153 92.64596004584652 4.219213563741347 92.39689343333487 4.13285498253921 92.15737708974089 A 0.5625 0.5625 0 0 0 3.55747 91.8061A 91.875 91.875 0 0 1 3.36809 91.8132A 0.5625 0.5625 0 0 0 2.82081 92.2069C 2.752736465852939 92.4522045230781 2.6781853942351974 92.70761246911232 2.59656602760772 92.97282123475718 C 2.384493510637447 93.66190289818431 2.1247904343642903 94.41694707947595 1.8073070498127652 95.23288686446904 A 95.25 95.25 0 0 1 0.586475 95.2482C 0.24858748880138776 94.44052538216282 -0.03000790279691745 93.69224601500889 -0.2593301329637914 93.00871137354811 C -0.34758844491366303 92.74563746614697 -0.42853439856487285 92.49218365622441 -0.5027495697547182 92.24863080413449 A 0.5625 0.5625 0 0 0 -1.05976 91.8689A 91.875 91.875 0 0 1 -1.24925 91.8665A 0.5625 0.5625 0 0 0 -1.81563 92.2321C -1.8959383402342955 92.47374274375146 -1.9832280487197005 92.72508233070367 -2.078069560150462 92.98585521674258 C -2.324496658678209 93.66341110110699 -2.6218083987810825 94.40445302483674 -2.979887126213776 95.20341050628431 A 95.25 95.25 0 0 1 -4.19995 95.1574C -4.496826294350159 94.33373300933748 -4.737473021268874 93.57240091599621 -4.932161875495392 92.87820746935068 C -5.007090744259133 92.6110313570028 -5.07519984578869 92.35383059598992 -5.137084133002834 92.1068564710459 A 0.5625 0.5625 0 0 0 -5.67431 91.6996A 91.875 91.875 0 0 1 -5.86345 91.6877A 0.5625 0.5625 0 0 0 -6.44747 92.0244C -6.539823841529467 92.26168426464619 -6.639631685503206 92.50832058690648 -6.747455763848277 92.76399885839739 C -7.027614947695708 93.42831739873144 -7.361784316369718 94.15348512868644 -7.759553848741161 94.93344207065047 A 95.25 95.25 0 0 1 -8.97576 94.8262C -9.230880704011774 93.98864543989785 -9.432970871733461 93.21618381131147 -9.5925345490772 92.51308515237507 C -9.65394469782939 92.24248174512792 -9.709044897735778 91.98218374446895 -9.758441975893907 91.7324122247448 A 0.5625 0.5625 0 0 0 -10.2745 91.2987A 91.875 91.875 0 0 1 -10.4628 91.2773A 0.5625 0.5625 0 0 0 -11.063 91.5842C -11.167189180222936 91.81656476388457 -11.27926303640901 92.05787479669786 -11.399797308688656 92.30781258813717 C -11.712980871442932 92.95721565815315 -12.083163727860926 93.66467735771171 -12.519619264810741 94.4236635212659 A 95.25 95.25 0 0 1 -13.7289 94.2554C -13.941617107885707 93.40613439499374 -14.104640219107706 92.62449453627646 -14.228675647871485 91.91426675328215 C -14.276411949246715 91.64091961882752 -14.31836405964294 91.3781819138629 -14.355149147438553 91.12624394389462 A 0.5625 0.5625 0 0 0 -14.8488 90.6671A 91.875 91.875 0 0 1 -15.0358 90.6363A 0.5625 0.5625 0 0 0 -15.6506 90.9127C -15.76634522986953 91.13950865195659 -15.890401989980555 91.37488282523718 -16.023341976162076 91.61844877207211 C -16.36875878896311 92.25129592325477 -16.774020019102363 92.93926448276466 -17.248059036065122 93.67536260298903 A 95.25 95.25 0 0 1 -18.4474 93.4466C -18.617135776980536 92.5876713480796 -18.74068002117546 91.79882774935145 -18.82887387710144 91.08326493931828 C -18.8628157450595 90.80786457624107 -18.891513791273756 90.54335086521601 -18.915593966382584 90.2898828621809 A 0.5625 0.5625 0 0 0 -19.3855 89.8066A 91.875 91.875 0 0 1 -19.5707 89.7664A 0.5625 0.5625 0 0 0 -20.1987 90.0115C -20.325674123136466 90.23222623136127 -20.461400409029757 90.46106996951983 -20.60641029117047 90.69764880303009 C -20.98318780117111 91.31234140855202 -21.42250367999249 91.9790789597245 -21.932928713270467 92.69042958888289 A 95.25 95.25 0 0 1 -23.1192 92.4017C -23.24562594535939 91.53532380784459 -23.329379239044247 90.74126915649808 -23.381508736798196 90.02217889318649 C -23.401570431234873 89.74542098670526 -23.416941919511785 89.4797994542104 -23.42825635332163 89.22544170028212 A 0.5625 0.5625 0 0 0 -23.8733 88.7191A 91.875 91.875 0 0 1 -24.0563 88.6697A 0.5625 0.5625 0 0 0 -24.6958 88.883C -24.833658599544457 89.09700937623423 -24.980711554842454 89.31874460012727 -25.137425025394947 89.54773870164723 C -25.544611459905177 90.14272399463897 -26.01687223737145 90.78654630055502 -26.56239390903184 91.47135250522149 A 95.25 95.25 0 0 1 -27.7327 91.1234C -27.81539564515969 90.25175009550651 -27.859146420245857 89.45449024250533 -27.87507987619223 88.73368901032879 C -27.88121071952627 88.45627267493458 -27.88321682015239 88.19021430401374 -27.881736931421486 87.93560932895392 A 0.5625 0.5625 0 0 0 -28.3008 87.4076A 91.875 91.875 0 0 1 -28.481 87.349A 0.5625 0.5625 0 0 0 -29.1305 87.5299C -29.278911099067333 87.7367257428747 -29.436919255242515 87.9507923300827 -29.60494044237934 88.17162324063798 C -30.041507213126703 88.74539823661188 -30.54551991752744 89.36467894625069 -31.124760192482906 90.02121084651935 A 95.25 95.25 0 0 1 -32.2761 89.6149C -32.31490124151876 88.74019262966142 -32.318538979751324 87.94174152258684 -32.298236144597574 87.2210501280147 C -32.290420649786626 86.94367614144709 -32.27905629517767 86.6778530186359 -32.26478582223339 86.42364397670816 A 0.5625 0.5625 0 0 0 -32.6568 85.8752A 91.875 91.875 0 0 1 -32.8339 85.8077A 0.5625 0.5625 0 0 0 -33.4915 85.9557C -33.65020252809683 86.15481152579679 -33.81876674283349 86.36066872554208 -33.997671210453724 86.57277860708716 C -34.46251551188657 87.1238939006066 -34.997006963388216 87.71706865714954 -35.60850263043314 88.3436677964612 A 95.25 95.25 0 0 1 -36.738 87.88C -36.73277659279721 87.0044697356531 -36.69629210493368 86.20684433129752 -36.63980426540345 85.48808330333979 C -36.6180621750657 85.2114523363616 -36.59335607256769 84.94653595393854 -36.5663310638632 84.69336499924508 A 0.5625 0.5625 0 0 0 -36.9303 84.1259A 91.875 91.875 0 0 1 -37.1037 84.0496A 0.5625 0.5625 0 0 0 -37.768 84.1644C -37.93649062510775 84.35526277760393 -38.11518509057013 84.55239057673404 -38.30452091046181 84.75524362129953 C -38.79646850553183 85.28230704730294 -39.36008853234046 85.84787743983452 -40.00229490034942 86.44296097438206 A 95.25 95.25 0 0 1 -41.107 85.9231C -41.05786176243932 85.04896600015164 -40.98134721146247 84.25418116951073 -40.88881706074087 83.53916616090386 C -40.853203297283464 83.26397700734591 -40.81521785665551 83.00063656708453 -40.77550657970824 82.7491432314291 A 0.5625 0.5625 0 0 0 -41.1105 82.1641A 91.875 91.875 0 0 1 -41.2799 82.0791A 0.5625 0.5625 0 0 0 -41.9491 82.1604C -42.12694785436882 82.34262531461326 -42.31532117282864 82.53052575119926 -42.514610066278635 82.7236095343894 C -43.03241825266555 83.22528968491991 -43.62374310167802 83.76182703354391 -44.29503790162964 84.32389173067295 A 95.25 95.25 0 0 1 -45.3723 83.7492C -45.27923120994125 82.87862119530712 -45.16287987824737 82.08868463384084 -45.03454115552563 81.37922183455129 C -44.98514568240591 81.10616964609858 -44.93397685816771 80.84507036880572 -44.8816796271097 80.59588994618078 A 0.5625 0.5625 0 0 0 -45.1868 79.9948A 91.875 91.875 0 0 1 -45.3518 79.9014A 0.5625 0.5625 0 0 0 -46.0242 79.9489C -46.210988757237686 80.121983233729 -46.40856508134396 80.30018165496057 -46.61730362731155 80.48300843038166 C -47.15966437659703 80.95803801783924 -47.77720030992485 81.46418698264806 -48.47588779289415 81.99181301815321 A 95.25 95.25 0 0 1 -49.5229 81.3637C -49.38622138971452 80.49891780045637 -49.230327190865374 79.71582495647598 -49.06650409089534 79.01370653110757 C -49.00345168536534 78.74348106128576 -48.93922873440776 78.48528250639617 -48.87447765658342 78.23904444817514 A 0.5625 0.5625 0 0 0 -49.1491 77.6234A 91.875 91.875 0 0 1 -49.3091 77.5218A 0.5625 0.5625 0 0 0 -49.9831 77.5355C -50.1782966919481 77.69894606957246 -50.38457692675889 77.86699233077209 -50.60223783356097 78.03910026212226 C -51.16778109542193 78.48627932054215 -51.80996816370283 78.960761325323 -52.53428338447015 79.452615870047 A 95.25 95.25 0 0 1 -53.5484 78.7727C -53.36845768812773 77.91586715290441 -53.173414424399354 77.14159618689685 -52.974520778549426 76.44859574752748 C -52.8979707164577 76.18187960932565 -52.82085587152864 75.92723400879751 -52.74381451378017 75.68456033368595 A 0.5625 0.5625 0 0 0 -52.9871 75.0559A 91.875 91.875 0 0 1 -53.1418 74.9464A 0.5625 0.5625 0 0 0 -53.8157 74.9262C -54.01884989434239 75.07963462431077 -54.23331295808193 75.23710422603827 -54.459346395377565 75.39805855374604 C -55.0466435584522 75.8162574700169 -55.711859541417596 76.25787393204641 -56.459972816873446 76.71271451872221 A 95.25 95.25 0 0 1 -57.4386 75.9827C -57.215880630680886 75.13599426276465 -56.98218099828486 74.37250105038746 -56.74871922916604 73.69036917627108 C -56.65886488261305 73.42783611780209 -56.56905294250344 73.1773867285225 -56.479915917986794 72.93889045128492 A 0.5625 0.5625 0 0 0 -56.6913 72.2988A 91.875 91.875 0 0 1 -56.8403 72.1817A 0.5625 0.5625 0 0 0 -57.5123 72.1277C -57.72294679371752 72.27066550597935 -57.94505093407399 72.4171606663543 -58.178885921783596 72.56655480581898 C -58.786453422467645 72.95471717318368 -59.47301792681181 73.36235253095178 -60.243039457895165 73.77903019278274 A 95.25 95.25 0 0 1 -61.1838 73.0008C -60.9187712931111 72.16632133021712 -60.64700563760117 71.41553452158676 -60.37956548990392 70.74599433703821 C -60.27663383876734 70.48830753959248 -60.1743516762325 70.24268701845476 -60.07334415280761 70.00897060138604 A 0.5625 0.5625 0 0 0 -60.2523 69.359A 91.875 91.875 0 0 1 -60.3953 69.2346A 0.5625 0.5625 0 0 0 -61.0637 69.1469C -61.28123051983464 69.27913441435585 -61.51041468247353 69.41428507388913 -61.751460533124074 69.55174164254882 C -62.37776360318128 69.90888692917956 -63.08394230738072 70.28151146039467 -63.87392695287545 70.65897363344442 A 95.25 95.25 0 0 1 -64.7744 69.8344C -64.46777585223872 69.01435000682129 -64.1586306772467 68.27816615457563 -63.85788772799468 67.62290897620915 C -63.74213878655852 67.3707193790011 -63.62764477521786 67.13054818475855 -63.515021906655136 66.90220201581198 A 0.5625 0.5625 0 0 0 -63.6611 66.2441A 91.875 91.875 0 0 1 -63.7976 66.1126A 0.5625 0.5625 0 0 0 -64.4608 65.9914C -64.68471253918537 66.1125982166066 -64.92039778502142 66.23606297300276 -65.1680455958743 66.36123474363545 C -65.81150213939412 66.6864607695423 -66.5355111747542 67.02313319229924 -67.34346336488463 67.36042637435946 A 95.25 95.25 0 0 1 -68.2013 66.4917C -67.85392921453654 65.68804244569321 -67.50818544760452 64.96832121413493 -67.17489939958841 64.32900227845148 C -67.04662555972435 64.08294693429073 -66.92020892138723 63.848831760223966 -66.79625520282696 63.62643266164001 A 0.5625 0.5625 0 0 0 -66.9091 62.9618A 91.875 91.875 0 0 1 -67.0388 62.8237A 0.5625 0.5625 0 0 0 -67.6951 62.6693C -67.92479536080754 62.77905585798434 -68.16638632845513 62.890522828553486 -68.42001051964726 63.00309360640314 C -69.07899510955649 63.29557882241895 -69.81900556641864 63.595448672958746 -70.64288434383197 63.89172083217858 A 95.25 95.25 0 0 1 -71.456 62.981C -71.06867766273396 62.19580118841581 -70.68720868262365 61.49436065583897 -70.32222144532597 60.87259493795527 C -70.1817467378861 60.63329540399579 -70.04372681195241 60.40582764535288 -69.90875536124538 60.18993741655613 A 0.5625 0.5625 0 0 0 -69.9881 59.5205A 91.875 91.875 0 0 1 -70.1107 59.376A 0.5625 0.5625 0 0 0 -70.7583 59.1889C -70.99329425429355 59.28692815579831 -71.24018066400123 59.38611576529879 -71.49914055881413 59.48580118681078 C -72.1719885428467 59.7448067498957 -72.92613109057288 60.007116530950775 -73.76385526597461 60.26161925814317 A 95.25 95.25 0 0 1 -74.5302 59.3112C -74.10390046324943 58.54644793948945 -73.68766989371146 57.86506000555593 -73.29190345657011 57.26241813963714 C -73.13958273285698 57.03047890727003 -72.99030816963807 56.81023316735079 -72.84465993638268 56.601397165795845 A 0.5625 0.5625 0 0 0 -72.8902 55.9288A 91.875 91.875 0 0 1 -73.0054 55.7783A 0.5625 0.5625 0 0 0 -73.6429 55.5589C -73.88245792512966 55.645036527698885 -74.13401612039974 55.731694219620806 -74.39765756366454 55.8182424707689 C -75.08266926941768 56.04311411039201 -75.84903887848182 56.26720120469009 -76.6984922879005 56.479291603878394 A 95.25 95.25 0 0 1 -77.4161 55.4915C -76.951930379868 54.74920128194086 -76.50198965544486 54.08958719170805 -76.07644375882784 53.50759150340955 C -75.91266179420913 53.28359847126531 -75.75250967420693 53.071131109923435 -75.59655257848088 52.86987687347468 A 0.5625 0.5625 0 0 0 -75.6083 52.1958A 91.875 91.875 0 0 1 -75.7158 52.0398A 0.5625 0.5625 0 0 0 -76.3414 51.7886C -76.58498809513874 51.862580708010995 -76.84058261813773 51.93648957750372 -77.10823962868783 52.00968202989418 C -77.80368465714204 52.199851700777636 -78.5803454114 52.385150044870464 -79.43938226180111 52.55429235729942 A 95.25 95.25 0 0 1 -80.1065 51.5317C -79.60557304184559 50.81365339038232 -79.1230587518566 50.1774793862887 -78.66880836163101 49.61760004722936 C -78.49397888356366 49.40211904114706 -78.3233537649326 49.19796676937693 -78.15748176789488 49.004802683702096 A 0.5625 0.5625 0 0 0 -78.1353 48.331A 91.875 91.875 0 0 1 -78.2348 48.1698A 0.5625 0.5625 0 0 0 -78.847 47.8875C -79.09405793856423 47.949115508406855 -79.3530431353445 48.01008885525163 -79.62403958834183 48.06974061839748 C -80.328161184999 48.2247279354482 -81.11315117198072 48.37076944963694 -81.97960146172609 48.496536407145825 A 95.25 95.25 0 0 1 -82.5945 47.4417C -82.05812511751378 46.749745800346105 -81.54425613493189 46.138618913138274 -81.06244872700692 45.60227022711934 C -80.8770133699256 45.39584557082153 -80.69634626652355 45.20052409497958 -80.52097837523439 45.015938109323386 A 0.5625 0.5625 0 0 0 -80.465 44.3441A 91.875 91.875 0 0 1 -80.5563 44.1781A 0.5625 0.5625 0 0 0 -81.1535 43.8654C -81.40332932722457 43.91452668162231 -81.66505097870227 43.962410481853276 -81.93870231358733 44.00837087022375 C -82.64972180618501 44.12778432202783 -83.44105807305567 44.23420009277297 -84.31273307351594 44.31627399711209 A 95.25 95.25 0 0 1 -84.8738 43.2319C -84.30339124747746 42.56774429510292 -83.75946564995031 41.98320828433642 -83.25131831165345 41.47174511468739 C -83.05574550136375 41.27489825477104 -82.86549279397359 41.0889009738568 -82.68107200294621 40.91335936843886 A 0.5625 0.5625 0 0 0 -82.5914 40.2452A 91.875 91.875 0 0 1 -82.6742 40.0748A 0.5625 0.5625 0 0 0 -83.255 39.7325C -83.50696884117507 39.76900594918754 -83.77076581574427 39.803679244169565 -84.0463807654955 39.83583215783485 C -84.76250205708745 39.91937009564938 -85.55818561975849 39.985891307478425 -86.43288340423157 40.02406483284236 A 95.25 95.25 0 0 1 -86.9388 38.9129C -86.33569969463025 38.27821297340236 -85.76309148542337 37.72174442777108 -85.22988784103224 37.23645877484733 C -85.02467161142629 37.04968696356453 -84.82531389489857 36.87348372285192 -84.6323060670566 36.70742993100242 A 0.5625 0.5625 0 0 0 -84.5092 36.0446A 91.875 91.875 0 0 1 -84.5833 35.8702A 0.5625 0.5625 0 0 0 -85.1462 35.4992C -85.39966250443284 35.52302525625407 -85.66486842804139 35.5444004582348 -85.94175076537564 35.56266467614448 C -86.66116487142858 35.610116075888456 -87.45918576416494 35.636574690447084 -88.33469677013406 35.630751407197785 A 95.25 95.25 0 0 1 -88.7842 34.4956C -88.14991667145469 33.89198756364281 -87.55007230860008 33.36499217098779 -86.99315927679606 32.90710990846556 C -86.77881802188014 32.730884947621156 -86.57085889110864 32.56492085178854 -86.36975158097599 32.40877433979716 A 0.5625 0.5625 0 0 0 -86.2135 31.753A 91.875 91.875 0 0 1 -86.2788 31.5751A 0.5625 0.5625 0 0 0 -86.8223 31.1762C -87.0766292085415 31.187310318552225 -87.34257414800965 31.195333431916357 -87.6200244441128 31.199662817070877 C -88.34091406215838 31.210907812390328 -89.13925641492638 31.197236992921876 -90.01336902560662 31.147431611178217 A 95.25 95.25 0 0 1 -90.4052 29.9911C -89.74145930841517 29.420148051880876 -89.11589405083264 28.923957048300817 -88.53667844226743 28.494634826513906 C -88.3137536066537 28.3294018756532 -88.09771838445113 28.17409616441034 -87.88901960654684 28.028251371918 A 0.5625 0.5625 0 0 0 -87.7 27.3812A 91.875 91.875 0 0 1 -87.7563 27.2002A 0.5625 0.5625 0 0 0 -88.279 26.7745C -88.53363279006594 26.772813528302517 -88.7996449453958 26.767464285969382 -89.07696233674051 26.7578479019661 C -89.79750643703898 26.732858087026926 -90.59415356776903 26.679092367207833 -91.46465969884338 26.5854306996866 A 95.25 95.25 0 0 1 -91.7979 25.4109C -91.10630723068395 24.873990692825107 -90.4566013105057 24.409857499858454 -89.85654627407547 24.010179823999103 C -89.6256009852459 23.856356275896196 -89.40203539533276 23.712101264948355 -89.1862723408824 23.576926608558477 A 0.5625 0.5625 0 0 0 -88.965 22.9402A 91.875 91.875 0 0 1 -89.0121 22.7566A 0.5625 0.5625 0 0 0 -89.5128 22.3052C -89.76699273150885 22.290686287522323 -90.03240013290939 22.2719782021423 -90.30888409169734 22.248440340801803 C -91.02726251731679 22.18727884204535 -91.82020202621729 22.093554038750096 -92.68490270364916 21.956272682952154 A 95.25 95.25 0 0 1 -92.9587 20.7664C -92.24101271395705 20.264999474516234 -91.56880734472409 19.834096532889603 -90.94942867152841 19.46507302345424 C -90.71104631732585 19.32304744974168 -90.48051510578509 19.190207539766103 -90.25823281098981 19.066044482392254 A 0.5625 0.5625 0 0 0 -90.0052 18.4412A 91.875 91.875 0 0 1 -90.0431 18.2555A 0.5625 0.5625 0 0 0 -90.5204 17.7795C -90.77359345861734 17.752250838616543 -91.03772566395845 17.720231168436936 -91.31267776771425 17.68283128843977 C -92.02707583240498 17.585652605119982 -92.81430468545882 17.452205475335877 -93.67101560029144 17.271651215880343 A 95.25 95.25 0 0 1 -93.8847 16.0696C -93.14270939370486 15.604817108776661 -92.44970262451925 15.20823291671779 -91.81256491884123 14.87079575911805 C -91.56734767378113 14.740926928721139 -91.33043318246041 14.619837684859338 -91.10219315168831 14.506999873160302 A 0.5625 0.5625 0 0 0 -90.8181 13.8956A 91.875 91.875 0 0 1 -90.8466 13.7083A 0.5625 0.5625 0 0 0 -91.2994 13.2089C -91.5508922105939 13.16897166341069 -91.81308199900143 13.1237212928973 -92.08580769484844 13.072553869586196 C -92.79442076709788 12.93960348349108 -93.57395035590027 12.76677112624956 -94.42050738201054 12.543400058865759 A 95.25 95.25 0 0 1 -94.5735 11.3321C -93.80911950585802 10.905215620709997 -93.09706193196331 10.543951984306762 -92.44377465894341 10.23895357408823 C -92.19234196306864 10.1215695469436 -91.9496426585344 10.012536851134659 -91.71602144591171 9.911309323215754 A 0.5625 0.5625 0 0 0 -91.4016 9.31501A 91.875 91.875 0 0 1 -91.4206 9.12645A 0.5625 0.5625 0 0 0 -91.8478 8.60496C -92.09692546333089 8.552426522874814 -92.35651052064435 8.494059758390742 -92.62632087980558 8.4292540451177 C -93.32735894149414 8.260867800461025 -94.09722010664998 8.049086805296254 -94.93148476751901 7.783463184686314 A 95.25 95.25 0 0 1 -95.0235 6.566C -94.23855964063677 6.178066611543951 -93.50924998126268 5.853036114095242 -92.84146340125 5.581246903712315 C -92.5844503953717 5.47664420206006 -92.33657935713056 5.379943480356315 -92.09816711011585 5.290581945738397 A 0.5625 0.5625 0 0 0 -91.7541 4.71083A 91.875 91.875 0 0 1 -91.7637 4.52156A 0.5625 0.5625 0 0 0 -92.1641 3.97926C -92.41031388944275 3.91427721069446 -92.66663848127854 3.8429414917523257 -92.93285193937044 3.764661193373432 C -93.62454410751262 3.5612644484230973 -94.38279211290404 3.311069792508903 -95.20265698359434 3.0038646069914177 A 95.25 95.25 0 0 1 -95.2333 1.78332C -94.42994499499045 1.435311269935315 -93.68522554963188 1.1473349666864205 -93.00462654948333 0.9094415192725629 C -92.74268247076003 0.8178843786153092 -92.49026584256679 0.7337599054322435 -92.24766481118735 0.6564900991072622 A 0.5625 0.5625 0 0 0 -91.875 0.0947564A 91.875 91.875 0 0 1 -91.875 -0.0947564A 0.5625 0.5625 0 0 0 -92.2477 -0.65649C -92.49026584256679 -0.7337599054322621 -92.74268247076003 -0.8178843786153278 -93.00462654948333 -0.9094415192725815 C -93.68522554963188 -1.1473349666864396 -94.42994499499045 -1.4353112699353336 -95.23333902568426 -1.7833219934000333 A 95.25 95.25 0 0 1 -95.2027 -3.00386C -94.38279211290404 -3.311069792508922 -93.62454410751262 -3.5612644484231164 -92.93285193937044 -3.764661193373451 C -92.66663848127854 -3.8429414917523443 -92.41031388944275 -3.9142772106944785 -92.16413690495867 -3.9792600984896573 A 0.5625 0.5625 0 0 0 -91.7637 -4.52156A 91.875 91.875 0 0 1 -91.7541 -4.71083A 0.5625 0.5625 0 0 0 -92.0982 -5.29058C -92.33657935713056 -5.379943480356332 -92.5844503953717 -5.476644202060077 -92.84146340125 -5.581246903712334 C -93.50924998126268 -5.85303611409526 -94.23855964063677 -6.1780666115439695 -95.0234533882876 -6.5660037676652685 A 95.25 95.25 0 0 1 -94.9315 -7.78346C -94.09722010664998 -8.049086805296271 -93.32735894149414 -8.260867800461043 -92.62632087980558 -8.42925404511772 C -92.35651052064435 -8.49405975839076 -92.09692546333089 -8.552426522874832 -91.8477943901702 -8.604958339725906 A 0.5625 0.5625 0 0 0 -91.4206 -9.12645A 91.875 91.875 0 0 1 -91.4016 -9.31501A 0.5625 0.5625 0 0 0 -91.716 -9.91131C -91.9496426585344 -10.01253685113468 -92.19234196306864 -10.12156954694362 -92.44377465894341 -10.23895357408825 C -93.09706193196331 -10.543951984306783 -93.80911950585802 -10.905215620710019 -94.57353026073999 -11.33209924656328 A 95.25 95.25 0 0 1 -94.4205 -12.5434C -93.57395035590027 -12.766771126249582 -92.79442076709788 -12.939603483491098 -92.08580769484844 -13.072553869586216 C -91.81308199900143 -13.12372129289732 -91.5508922105939 -13.168971663410712 -91.29943637546899 -13.208919709389185 A 0.5625 0.5625 0 0 0 -90.8466 -13.7083A 91.875 91.875 0 0 1 -90.8181 -13.8956A 0.5625 0.5625 0 0 0 -91.1022 -14.507C -91.3304331824604 -14.619837684859359 -91.56734767378111 -14.740926928721157 -91.81256491884123 -14.87079575911807 C -92.44970262451923 -15.208232916717812 -93.14270939370486 -15.604817108776679 -93.88470618790949 -16.069568859274636 A 95.25 95.25 0 0 1 -93.671 -17.2717C -92.81430468545882 -17.452205475335894 -92.02707583240496 -17.585652605120003 -91.31267776771425 -17.68283128843979 C -91.03772566395844 -17.720231168436953 -90.77359345861733 -17.752250838616565 -90.52044806079104 -17.77951420149128 A 0.5625 0.5625 0 0 0 -90.0431 -18.2555A 91.875 91.875 0 0 1 -90.0052 -18.4412A 0.5625 0.5625 0 0 0 -90.2582 -19.066C -90.48051510578507 -19.190207539766124 -90.71104631732584 -19.323047449741697 -90.9494286715284 -19.46507302345426 C -91.56880734472408 -19.83409653288962 -92.24101271395703 -20.26499947451625 -92.95872119918576 -20.766445346402286 A 95.25 95.25 0 0 1 -92.6849 -21.9563C -91.82020202621727 -22.093554038750113 -91.02726251731677 -22.18727884204537 -90.30888409169732 -22.24844034080182 C -90.03240013290937 -22.271978202142318 -89.76699273150884 -22.290686287522345 -89.51279723822607 -22.305196097672557 A 0.5625 0.5625 0 0 0 -89.0121 -22.7566A 91.875 91.875 0 0 1 -88.965 -22.9402A 0.5625 0.5625 0 0 0 -89.1863 -23.5769C -89.40203539533276 -23.712101264948377 -89.6256009852459 -23.856356275896218 -89.85654627407547 -24.010179823999124 C -90.4566013105057 -24.409857499858475 -91.10630723068395 -24.873990692825128 -91.79791441301464 -25.410863990307387 A 95.25 95.25 0 0 1 -91.4647 -26.5854C -90.59415356776903 -26.679092367207854 -89.79750643703898 -26.732858087026948 -89.07696233674051 -26.757847901966123 C -88.7996449453958 -26.767464285969403 -88.53363279006594 -26.77281352830254 -88.27902932120381 -26.774533132688532 A 0.5625 0.5625 0 0 0 -87.7563 -27.2002A 91.875 91.875 0 0 1 -87.7 -27.3812A 0.5625 0.5625 0 0 0 -87.889 -28.0283C -88.09771838445113 -28.17409616441036 -88.3137536066537 -28.32940187565322 -88.53667844226743 -28.494634826513927 C -89.11589405083264 -28.92395704830084 -89.74145930841517 -29.420148051880897 -90.40521812808207 -29.991092586415803 A 95.25 95.25 0 0 1 -90.0134 -31.1474C -89.13925641492638 -31.197236992921898 -88.34091406215838 -31.21090781239035 -87.6200244441128 -31.199662817070898 C -87.34257414800965 -31.195333431916378 -87.0766292085415 -31.187310318552246 -86.82226091455891 -31.1762353733041 A 0.5625 0.5625 0 0 0 -86.2788 -31.5751A 91.875 91.875 0 0 1 -86.2135 -31.753A 0.5625 0.5625 0 0 0 -86.3698 -32.4088C -86.57085889110864 -32.56492085178857 -86.77881802188014 -32.73088494762118 -86.99315927679606 -32.90710990846558 C -87.55007230860008 -33.36499217098781 -88.14991667145469 -33.89198756364283 -88.78415041607303 -34.495561079785034 A 95.25 95.25 0 0 1 -88.3347 -35.6308C -87.45918576416494 -35.636574690447105 -86.66116487142858 -35.61011607588848 -85.94175076537564 -35.5626646761445 C -85.66486842804139 -35.54440045823482 -85.39966250443284 -35.52302525625409 -85.14617194171646 -35.499183737644664 A 0.5625 0.5625 0 0 0 -84.5833 -35.8702A 91.875 91.875 0 0 1 -84.5092 -36.0446A 0.5625 0.5625 0 0 0 -84.6323 -36.7074C -84.82531389489856 -36.873483722851944 -85.02467161142627 -37.049686963564554 -85.22988784103222 -37.23645877484734 C -85.76309148542336 -37.7217444277711 -86.33569969463024 -38.27821297340238 -86.93880623471728 -38.91289079206719 A 95.25 95.25 0 0 1 -86.4329 -40.0241C -85.55818561975848 -39.98589130747845 -84.76250205708743 -39.9193700956494 -84.04638076549548 -39.835832157834865 C -83.77076581574426 -39.80367924416959 -83.50696884117505 -39.76900594918756 -83.25499634888624 -39.73245808296203 A 0.5625 0.5625 0 0 0 -82.6742 -40.0748A 91.875 91.875 0 0 1 -82.5914 -40.2452A 0.5625 0.5625 0 0 0 -82.6811 -40.9134C -82.8654927939736 -41.08890097385678 -83.05574550136376 -41.274898254771024 -83.25131831165346 -41.47174511468737 C -83.75946564995031 -41.983208284336406 -84.30339124747748 -42.567744295102905 -84.87384708357054 -43.23192316503797 A 95.25 95.25 0 0 1 -84.3127 -44.3163C -83.44105807305569 -44.23420009277296 -82.64972180618501 -44.127784322027814 -81.93870231358734 -44.008370870223736 C -81.66505097870228 -43.96241048185326 -81.40332932722458 -43.91452668162229 -81.15351140974705 -43.86536479086266 A 0.5625 0.5625 0 0 0 -80.5563 -44.1781A 91.875 91.875 0 0 1 -80.465 -44.3441A 0.5625 0.5625 0 0 0 -80.521 -45.0159C -80.69634626652356 -45.20052409497956 -80.87701336992562 -45.39584557082152 -81.06244872700694 -45.602270227119334 C -81.5442561349319 -46.13861891313827 -82.0581251175138 -46.74974580034609 -82.59448922866223 -47.44174794808324 A 95.25 95.25 0 0 1 -81.9796 -48.4965C -81.11315117198073 -48.370769449636924 -80.32816118499902 -48.22472793544819 -79.62403958834184 -48.069740618397475 C -79.35304313534452 -48.010088855251624 -79.09405793856425 -47.94911550840684 -78.84702565763872 -47.88746378031581 A 0.5625 0.5625 0 0 0 -78.2348 -48.1698A 91.875 91.875 0 0 1 -78.1353 -48.331A 0.5625 0.5625 0 0 0 -78.1575 -49.0048C -78.32335376493262 -49.197966769376926 -78.49397888356367 -49.40211904114705 -78.66880836163101 -49.617600047229345 C -79.12305875185662 -50.17747938628869 -79.6055730418456 -50.813653390382306 -80.1064905257547 -51.531730758438876 A 95.25 95.25 0 0 1 -79.4394 -52.5543C -78.58034541140002 -52.38515004487045 -77.80368465714206 -52.19985170077762 -77.10823962868783 -52.009682029894165 C -76.84058261813774 -51.936489577503714 -76.58498809513875 -51.86258070801099 -76.3413654757463 -51.78859488020436 A 0.5625 0.5625 0 0 0 -75.7158 -52.0398A 91.875 91.875 0 0 1 -75.6083 -52.1958A 0.5625 0.5625 0 0 0 -75.5966 -52.8699C -75.75250967420693 -53.07113110992344 -75.91266179420911 -53.283598471265314 -76.07644375882782 -53.507591503409564 C -76.50198965544486 -54.089587191708056 -76.951930379868 -54.74920128194088 -77.41613587549976 -55.491539944564686 A 95.25 95.25 0 0 1 -76.6985 -56.4793C -75.84903887848182 -56.2672012046901 -75.08266926941768 -56.04311411039202 -74.39765756366452 -55.818242470768915 C -74.13401612039972 -55.73169421962081 -73.88245792512966 -55.64503652769889 -73.64286037915036 -55.55890349479878 A 0.5625 0.5625 0 0 0 -73.0054 -55.7783A 91.875 91.875 0 0 1 -72.8902 -55.9288A 0.5625 0.5625 0 0 0 -72.8447 -56.6014C -72.99030816963806 -56.8102331673508 -73.13958273285697 -57.03047890727004 -73.29190345657011 -57.262418139637155 C -73.68766989371146 -57.86506000555594 -74.10390046324942 -58.54644793948946 -74.53022134723446 -59.31117268479267 A 95.25 95.25 0 0 1 -73.7639 -60.2616C -72.92613109057287 -60.00711653095079 -72.1719885428467 -59.74480674989571 -71.49914055881413 -59.4858011868108 C -71.24018066400122 -59.3861157652988 -70.99329425429353 -59.28692815579832 -70.75832702592271 -59.18886549732113 A 0.5625 0.5625 0 0 0 -70.1107 -59.376A 91.875 91.875 0 0 1 -69.9881 -59.5205A 0.5625 0.5625 0 0 0 -69.9088 -60.1899C -70.0437268119524 -60.40582764535289 -70.1817467378861 -60.633295403995795 -70.32222144532597 -60.872594937955284 C -70.68720868262363 -61.494360655838975 -71.06867766273395 -62.19580118841582 -71.45603701151981 -62.98098025532289 A 95.25 95.25 0 0 1 -70.6429 -63.8917C -69.81900556641862 -63.59544867295876 -69.07899510955647 -63.29557882241896 -68.42001051964726 -63.003093606403155 C -68.16638632845513 -62.89052282855349 -67.92479536080752 -62.77905585798435 -67.69505199765639 -62.669311288716074 A 0.5625 0.5625 0 0 0 -67.0388 -62.8237A 91.875 91.875 0 0 1 -66.9091 -62.9618A 0.5625 0.5625 0 0 0 -66.7963 -63.6264C -66.9202089213872 -63.84883176022398 -67.04662555972433 -64.08294693429076 -67.1748993995884 -64.3290022784515 C -67.50818544760449 -64.96832121413496 -67.8539292145365 -65.68804244569324 -68.20134852479002 -66.49169240373706 A 95.25 95.25 0 0 1 -67.3435 -67.3604C -66.53551117475418 -67.02313319229927 -65.8115021393941 -66.68646076954232 -65.16804559587429 -66.36123474363546 C -64.92039778502141 -66.23606297300279 -64.68471253918534 -66.11259821660661 -64.46077339292817 -65.99144896085372 A 0.5625 0.5625 0 0 0 -63.7976 -66.1126A 91.875 91.875 0 0 1 -63.6611 -66.2441A 0.5625 0.5625 0 0 0 -63.515 -66.9022C -63.62764477521786 -67.13054818475857 -63.74213878655852 -67.37071937900112 -63.85788772799468 -67.62290897620915 C -64.1586306772467 -68.27816615457564 -64.46777585223872 -69.01435000682129 -64.77437751263037 -69.8344407664607 A 95.25 95.25 0 0 1 -63.8739 -70.659C -63.08394230738072 -70.28151146039467 -62.37776360318128 -69.90888692917957 -61.751460533124074 -69.55174164254882 C -61.51041468247353 -69.41428507388915 -61.28123051983464 -69.27913441435587 -61.06366128019009 -69.14688650565269 A 0.5625 0.5625 0 0 0 -60.3953 -69.2346A 91.875 91.875 0 0 1 -60.2523 -69.359A 0.5625 0.5625 0 0 0 -60.0733 -70.009C -60.1743516762325 -70.24268701845477 -60.27663383876734 -70.4883075395925 -60.379565489903925 -70.74599433703823 C -60.64700563760117 -71.41553452158676 -60.9187712931111 -72.16632133021712 -61.18378080123739 -73.00078127101926 A 95.25 95.25 0 0 1 -60.243 -73.779C -59.47301792681181 -73.36235253095178 -58.786453422467645 -72.95471717318368 -58.17888592178359 -72.566554805819 C -57.94505093407399 -72.41716066635432 -57.72294679371752 -72.27066550597937 -57.51229705946733 -72.12765301402081 A 0.5625 0.5625 0 0 0 -56.8403 -72.1817A 91.875 91.875 0 0 1 -56.6913 -72.2988A 0.5625 0.5625 0 0 0 -56.4799 -72.9389C -56.569052942503475 -73.17738672852248 -56.65886488261308 -73.42783611780207 -56.74871922916607 -73.69036917627105 C -56.98218099828489 -74.37250105038744 -57.215880630680914 -75.13599426276464 -57.43862854952469 -75.98271546649796 A 95.25 95.25 0 0 1 -56.46 -76.7127C -55.711859541417624 -76.2578739320464 -55.04664355845223 -75.81625747001688 -54.459346395377594 -75.39805855374601 C -54.23331295808196 -75.23710422603826 -54.018849894342424 -75.07963462431074 -53.815651784997165 -74.92621881106325 A 0.5625 0.5625 0 0 0 -53.1418 -74.9464A 91.875 91.875 0 0 1 -52.9871 -75.0559A 0.5625 0.5625 0 0 0 -52.7438 -75.6846C -52.82085587152864 -75.92723400879751 -52.8979707164577 -76.18187960932565 -52.974520778549426 -76.44859574752748 C -53.173414424399354 -77.14159618689685 -53.36845768812773 -77.91586715290441 -53.548381337114144 -78.77271072832309 A 95.25 95.25 0 0 1 -52.5343 -79.4526C -51.80996816370283 -78.960761325323 -51.16778109542193 -78.48627932054215 -50.60223783356097 -78.03910026212226 C -50.38457692675889 -77.86699233077209 -50.1782966919481 -77.69894606957246 -49.98306350356713 -77.53551447669496 A 0.5625 0.5625 0 0 0 -49.3091 -77.5218A 91.875 91.875 0 0 1 -49.1491 -77.6234A 0.5625 0.5625 0 0 0 -48.8745 -78.239C -48.93922873440779 -78.48528250639616 -49.00345168536537 -78.74348106128573 -49.06650409089538 -79.01370653110756 C -49.23032719086541 -79.71582495647597 -49.38622138971455 -80.49891780045634 -49.522866266091064 -81.36371928632516 A 95.25 95.25 0 0 1 -48.4759 -81.9918C -47.77720030992488 -81.46418698264803 -47.159664376597064 -80.95803801783923 -46.617303627311586 -80.48300843038164 C -46.40856508134399 -80.30018165496054 -46.210988757237715 -80.12198323372898 -46.02421366579879 -79.94894870360898 A 0.5625 0.5625 0 0 0 -45.3518 -79.9014A 91.875 91.875 0 0 1 -45.1868 -79.9948A 0.5625 0.5625 0 0 0 -44.8817 -80.5959C -44.933976858167696 -80.84507036880574 -44.98514568240589 -81.10616964609858 -45.034541155525616 -81.3792218345513 C -45.16287987824735 -82.08868463384086 -45.27923120994124 -82.87862119530712 -45.37225213689099 -83.7491960280184 A 95.25 95.25 0 0 1 -44.295 -84.3239C -43.62374310167801 -83.76182703354391 -43.032418252665536 -83.22528968491993 -42.51461006627862 -82.72360953438941 C -42.315321172828625 -82.53052575119926 -42.12694785436881 -82.34262531461327 -41.94910266996272 -82.16042494749115 A 0.5625 0.5625 0 0 0 -41.2799 -82.0791A 91.875 91.875 0 0 1 -41.1105 -82.1641A 0.5625 0.5625 0 0 0 -40.7755 -82.7491C -40.81521785665552 -83.00063656708451 -40.85320329728348 -83.26397700734591 -40.888817060740884 -83.53916616090386 C -40.981347211462484 -84.25418116951072 -41.05786176243934 -85.04896600015162 -41.10702376102777 -85.92311503212252 A 95.25 95.25 0 0 1 -40.0023 -86.443C -39.36008853234048 -85.8478774398345 -38.79646850553184 -85.28230704730292 -38.304520910461825 -84.75524362129953 C -38.115185090570144 -84.55239057673404 -37.936490625107766 -84.35526277760391 -37.76802460010514 -84.16435682741982 A 0.5625 0.5625 0 0 0 -37.1037 -84.0496A 91.875 91.875 0 0 1 -36.9303 -84.1259A 0.5625 0.5625 0 0 0 -36.5663 -84.6934C -36.593356072567666 -84.94653595393854 -36.61806217506568 -85.2114523363616 -36.63980426540343 -85.48808330333979 C -36.69629210493366 -86.20684433129752 -36.73277659279719 -87.0044697356531 -36.73795547554918 -87.87998479056324 A 95.25 95.25 0 0 1 -35.6085 -88.3437C -34.997006963388195 -87.71706865714954 -34.46251551188655 -87.1238939006066 -33.9976712104537 -86.57277860708716 C -33.81876674283347 -86.36066872554208 -33.650202528096806 -86.15481152579679 -33.491541222297634 -85.95568223754923 A 0.5625 0.5625 0 0 0 -32.8339 -85.8077A 91.875 91.875 0 0 1 -32.6568 -85.8752A 0.5625 0.5625 0 0 0 -32.2648 -86.4236C -32.27905629517761 -86.67785301863591 -32.29042064978657 -86.94367614144711 -32.29823614459752 -87.22105012801471 C -32.31853897975127 -87.94174152258687 -32.314901241518704 -88.74019262966144 -32.27608392612696 -89.61486208049796 A 95.25 95.25 0 0 1 -31.1248 -90.0212C -30.545519917527383 -89.3646789462507 -30.041507213126646 -88.7453982366119 -29.604940442379284 -88.171623240638 C -29.436919255242458 -87.95079233008273 -29.278911099067273 -87.73672574287471 -29.130455304699897 -87.52987613442784 A 0.5625 0.5625 0 0 0 -28.481 -87.349A 91.875 91.875 0 0 1 -28.3008 -87.4076A 0.5625 0.5625 0 0 0 -27.8817 -87.9356C -27.88321682015239 -88.19021430401374 -27.88121071952627 -88.45627267493458 -27.87507987619223 -88.73368901032879 C -27.859146420245857 -89.45449024250533 -27.81539564515969 -90.25175009550651 -27.73268018753177 -91.12336445132578 A 95.25 95.25 0 0 1 -26.5624 -91.4714C -26.01687223737145 -90.78654630055502 -25.544611459905177 -90.14272399463897 -25.137425025394947 -89.54773870164723 C -24.980711554842454 -89.31874460012727 -24.833658599544457 -89.09700937623423 -24.69578332882962 -88.88296196765103 A 0.5625 0.5625 0 0 0 -24.0563 -88.6697A 91.875 91.875 0 0 1 -23.8733 -88.7191A 0.5625 0.5625 0 0 0 -23.4283 -89.2254C -23.416941919511746 -89.47979945421041 -23.401570431234838 -89.74542098670528 -23.381508736798157 -90.02217889318649 C -23.329379239044208 -90.74126915649809 -23.24562594535935 -91.5353238078446 -23.119221291919928 -92.40168129513823 A 95.25 95.25 0 0 1 -21.9329 -92.6904C -21.422503679992445 -91.97907895972452 -20.98318780117107 -91.31234140855203 -20.60641029117043 -90.69764880303009 C -20.46140040902972 -90.46106996951983 -20.325674123136427 -90.23222623136128 -20.19872766097387 -90.01152172497255 A 0.5625 0.5625 0 0 0 -19.5707 -89.7664A 91.875 91.875 0 0 1 -19.3855 -89.8066A 0.5625 0.5625 0 0 0 -18.9156 -90.2899C -18.89151379127376 -90.54335086521601 -18.862815745059503 -90.80786457624107 -18.828873877101444 -91.08326493931828 C -18.740680021175464 -91.79882774935145 -18.61713577698054 -92.5876713480796 -18.447361236854608 -93.44658347264524 A 95.25 95.25 0 0 1 -17.2481 -93.6754C -16.774020019102366 -92.93926448276466 -16.368758788963113 -92.25129592325477 -16.02334197616208 -91.61844877207211 C -15.890401989980559 -91.37488282523718 -15.766345229869534 -91.13950865195659 -15.650648254040101 -90.91270456650001 A 0.5625 0.5625 0 0 0 -15.0358 -90.6363A 91.875 91.875 0 0 1 -14.8488 -90.6671A 0.5625 0.5625 0 0 0 -14.3551 -91.1262C -14.318364059642901 -91.37818191386292 -14.276411949246675 -91.64091961882754 -14.228675647871446 -91.91426675328216 C -14.104640219107669 -92.62449453627646 -13.941617107885667 -93.40613439499376 -13.728901546295967 -94.25543147026157 A 95.25 95.25 0 0 1 -12.5196 -94.4237C -12.083163727860887 -93.66467735771172 -11.712980871442891 -92.95721565815315 -11.399797308688617 -92.30781258813718 C -11.27926303640897 -92.05787479669787 -11.167189180222897 -91.81656476388459 -11.063033951328643 -91.58423402616386 A 0.5625 0.5625 0 0 0 -10.4628 -91.2773A 91.875 91.875 0 0 1 -10.2745 -91.2987A 0.5625 0.5625 0 0 0 -9.75844 -91.7324C -9.70904489773578 -91.98218374446895 -9.653944697829392 -92.24248174512792 -9.5925345490772 -92.51308515237507 C -9.432970871733463 -93.21618381131147 -9.230880704011776 -93.98864543989785 -8.975761458928037 -94.82618206774691 A 95.25 95.25 0 0 1 -7.75955 -94.9334C -7.36178431636972 -94.15348512868644 -7.02761494769571 -93.42831739873144 -6.747455763848278 -92.76399885839739 C -6.639631685503208 -92.50832058690648 -6.5398238415294685 -92.26168426464619 -6.447473464717999 -92.02441376226831 A 0.5625 0.5625 0 0 0 -5.86345 -91.6877A 91.875 91.875 0 0 1 -5.67431 -91.6996A 0.5625 0.5625 0 0 0 -5.13708 -92.1069C -5.075199845788651 -92.35383059598993 -5.007090744259095 -92.61103135700282 -4.932161875495353 -92.8782074693507 C -4.737473021268834 -93.57240091599623 -4.496826294350119 -94.3337330093375 -4.199947819126702 -95.15739349955776 A 95.25 95.25 0 0 1 -2.97989 -95.2034C -2.6218083987810425 -94.40445302483676 -2.3244966586781697 -93.663411101107 -2.0780695601504227 -92.98585521674259 C -1.9832280487196612 -92.72508233070369 -1.8959383402342562 -92.47374274375147 -1.8156261005722976 -92.23213184259767 A 0.5625 0.5625 0 0 0 -1.24925 -91.8665A 91.875 91.875 0 0 1 -1.05976 -91.8689A 0.5625 0.5625 0 0 0 -0.50275 -92.2486C -0.42853439856487485 -92.49218365622441 -0.34758844491366503 -92.74563746614697 -0.2593301329637936 -93.00871137354811 C -0.03000790279691956 -93.69224601500889 0.24858748880138548 -94.44052538216282 0.5864752533705874 -95.24822909687217 A 95.25 95.25 0 0 1 1.80731 -95.2329C 2.1247904343642876 -94.41694707947595 2.384493510637445 -93.66190289818431 2.596566027607718 -92.97282123475718 C 2.6781853942351956 -92.70761246911232 2.752736465852937 -92.4522045230781 2.820807692677862 -92.2068635532536 A 0.5625 0.5625 0 0 0 3.36809 -91.8132A 91.875 91.875 0 0 1 3.55747 -91.8061A 0.5625 0.5625 0 0 0 4.13285 -92.1574C 4.219213563741386 -92.39689343333487 4.312791893010192 -92.64596004584652 4.41415669999045 -92.90426720077916 C 4.677533018241868 -93.5754163692283 4.99337331838186 -94.30875279157178 5.371416838478954 -95.09845940108792 A 95.25 95.25 0 0 1 6.58994 -95.0218C 6.86602186246626 -94.19093573153768 7.087460242399932 -93.42379659981486 7.264642464229523 -92.72492983741078 C 7.332833508450036 -92.45595513251894 7.394457620723072 -92.19712401004074 7.4501158808842405 -91.94867272412796 A 0.5625 0.5625 0 0 0 7.97693 -91.5281A 91.875 91.875 0 0 1 8.16571 -91.5114A 0.5625 0.5625 0 0 0 8.75802 -91.8333C 8.856303426408598 -92.06820063869436 8.962277744313791 -92.31225088991592 9.076492990024756 -92.56513878608874 C 9.373258084922922 -93.22220710047905 9.725545453595307 -93.93874810656452 10.142789758478902 -94.70846274345476 A 95.25 95.25 0 0 1 11.3559 -94.5707C 11.589909123455493 -93.72698990530192 11.772523434483785 -92.9496936831731 11.914367783503065 -92.24280721988714 C 11.968958248820751 -91.97074602919663 12.01749973389325 -91.70914556015323 12.060604429795028 -91.458211567663 A 0.5625 0.5625 0 0 0 12.5656 -91.0117A 91.875 91.875 0 0 1 12.7533 -90.9855A 0.5625 0.5625 0 0 0 13.3611 -91.2773C 13.471021498000226 -91.50693557882875 13.589124104217486 -91.74535297664498 13.715901271035985 -91.99218279728466 C 14.045305488195545 -92.63351044602835 14.433150016932759 -93.33144599108726 14.88854111127693 -94.07922428937687 A 95.25 95.25 0 0 1 16.0932 -93.8807C 16.284519268134332 -93.02628156819065 16.42784821065886 -92.24079177337286 16.533996375731824 -91.52767126576053 C 16.574848361893498 -91.25321083945069 16.610184599761347 -90.98950184933068 16.640626845200917 -90.73671903130605 A 0.5625 0.5625 0 0 0 17.1226 -90.2653A 91.875 91.875 0 0 1 17.3087 -90.2298A 0.5625 0.5625 0 0 0 17.9304 -90.4907C 18.051710600165286 -90.7145160579903 18.181643157261426 -90.94669833936256 18.32066199506134 -91.18684657092027 C 18.68187323084143 -91.81081350471713 19.104295190703642 -92.4883805429903 19.59668271708161 -93.2123335497996 A 95.25 95.25 0 0 1 20.7899 -92.9535C 20.9379933038415 -92.09058077027647 21.041674816514213 -91.2988816181625 21.11185865816351 -90.5813284705163 C 21.13886896950666 -90.30516211944384 21.160910697766248 -90.040010760043 21.17861359298961 -89.78601766782083 A 0.5625 0.5625 0 0 0 21.6363 -89.291A 91.875 91.875 0 0 1 21.8204 -89.2462A 0.5625 0.5625 0 0 0 22.4543 -89.4755C 22.586799514683186 -89.69294379666108 22.72823380174239 -89.91830444899603 22.87914313687428 -90.15116445619688 C 23.27124894034453 -90.75619448041931 23.727181256799984 -91.41168141876337 24.255321401586812 -92.10998036596679 A 95.25 95.25 0 0 1 25.434 -91.7915C 25.53857615129741 -90.92225117298246 25.602348325619 -90.12634256434049 25.636390553369505 -89.40616937818635 C 25.649490959503517 -89.12899472252198 25.658182498836297 -88.86307078918615 25.66310132479372 -88.60850903136091 A 0.5625 0.5625 0 0 0 26.0953 -88.0911A 91.875 91.875 0 0 1 26.277 -88.0371A 0.5625 0.5625 0 0 0 26.9216 -88.2343C 27.06483221336454 -88.44479937503348 27.217410955102913 -88.66276911776468 27.379829577489115 -88.88775267602108 C 27.801839455359893 -89.47231743231855 28.290130403807783 -90.10406845383885 28.852689039161532 -90.77494937769181 A 95.25 95.25 0 0 1 30.0139 -90.3977C 30.074646338954008 -89.52424407826835 30.098348080877475 -88.72613654731911 30.096162701107435 -88.00516254262763 C 30.09532010926945 -87.72767974960699 30.090639504092756 -87.46165498927076 30.08276183540297 -87.20716761093564 A 0.5625 0.5625 0 0 0 30.4884 -86.6687A 91.875 91.875 0 0 1 30.6671 -86.6057A 0.5625 0.5625 0 0 0 31.3209 -86.7702C 31.47449679697331 -86.97323571424036 31.637834566247214 -87.18326393688054 31.811352192351606 -87.39980271819844 C 32.26220011104603 -87.96242554526336 32.78161622617281 -88.56884479205117 33.37717228015724 -89.2106129891156 A 95.25 95.25 0 0 1 34.5179 -88.7755C 34.53474535984113 -87.90009097338556 34.51831679670936 -87.10180060901837 34.47990932987774 -86.38184702869724 C 34.46512586852787 -86.10475704393767 34.44708494245659 -85.83930345823339 34.426430678794404 -85.58553331659249 A 0.5625 0.5625 0 0 0 34.8045 -85.0274A 91.875 91.875 0 0 1 34.9798 -84.9554A 0.5625 0.5625 0 0 0 35.641 -85.0869C 35.80465407006532 -85.28197011180296 35.978338261493825 -85.48352626483383 36.16251657073362 -85.69107327345863 C 36.6410636492809 -86.23033293720097 37.190292840900675 -86.80988854160901 37.81734188723635 -87.42092284972139 A 95.25 95.25 0 0 1 38.9348 -86.929C 38.90760661674896 -86.053894610034 38.85108924853821 -85.25743796299123 38.77655671523953 -84.54032347226767 C 38.74786972868417 -84.26432624911875 38.7165140546633 -84.0001143968421 38.68313537049126 -83.74770253729737 A 0.5625 0.5625 0 0 0 39.0327 -83.1713A 91.875 91.875 0 0 1 39.2042 -83.0906A 0.5625 0.5625 0 0 0 39.8712 -83.1887C 40.044365679563356 -83.37527485141447 40.22795755180521 -83.5678497865008 40.422331293786804 -83.76588074067618 C 40.9273686807344 -84.28041502438404 41.50502354824267 -84.83164297865714 42.16198160661822 -85.41039987212474 A 95.25 95.25 0 0 1 43.2533 -84.863C 43.182183882630945 -83.99031864045507 43.08572047711834 -83.19770762934999 42.97525115300025 -82.48524372166449 C 42.932733107057125 -82.21103645306513 42.88814189224054 -81.94873375628535 42.84212310501172 -81.69831779310036 A 0.5625 0.5625 0 0 0 43.1623 -81.1051A 91.875 91.875 0 0 1 43.3295 -81.0159A 0.5625 0.5625 0 0 0 44.0006 -81.0803C 44.18292174598573 -81.25796641078091 44.37595753003808 -81.4410736669235 44.58003569981994 -81.62908832327248 C 45.110287626897254 -82.11759746868987 45.71490896396519 -82.63910532317556 46.40011650130911 -83.18412281185637 A 95.25 95.25 0 0 1 47.4625 -82.5825C 47.34767920433146 -81.71457583664156 47.211513436451206 -80.92781266567735 47.06538637661382 -80.22179908669396 C 47.00914467555704 -79.95007444400255 46.95143056122334 -79.69034350209643 46.892887918388176 -79.44255600772726 A 0.5625 0.5625 0 0 0 47.1829 -78.834A 91.875 91.875 0 0 1 47.3454 -78.7365A 0.5625 0.5625 0 0 0 48.0188 -78.7671C 48.20986791753195 -78.93539329478016 48.41185998825111 -79.10857032715846 48.625127066664824 -79.2860937443417 C 49.17925407148458 -79.74734373497056 49.8093145521409 -80.23781411556782 50.52104067474608 -80.74771543798447 A 95.25 95.25 0 0 1 51.5519 -80.0935C 51.39357017915318 -79.2324149224229 51.21804601545249 -78.45348702365096 51.03663034953103 -77.75570722494375 C 50.966807064778564 -77.48715160819013 50.89611584178945 -77.23064852405842 50.825197227144535 -76.98611543122084 A 0.5625 0.5625 0 0 0 51.0842 -76.3637A 91.875 91.875 0 0 1 51.2416 -76.2582A 0.5625 0.5625 0 0 0 51.9158 -76.2549C 52.11503177868209 -76.41342252467464 52.325469886566935 -76.57623187307522 52.54738714246342 -76.74281561153403 C 53.12398945211988 -77.17564128986707 53.77789748890878 -77.63383522582757 54.51434431482027 -78.10733232698634 A 95.25 95.25 0 0 1 55.511 -77.4022C 55.30963653535893 -76.5501060516902 55.09519736510868 -75.7809810645844 54.87895136481998 -75.09319769848373 C 54.79572287604893 -74.82848950246324 54.71223311656882 -74.57586222515786 54.629117676689624 -74.33520124566688 A 0.5625 0.5625 0 0 0 54.8565 -73.7006A 91.875 91.875 0 0 1 55.0084 -73.5873A 0.5625 0.5625 0 0 0 55.6816 -73.5502C 55.8885485466018 -73.69842481750634 56.10690110672831 -73.8504552113852 56.336907957859424 -74.00567846613876 C 56.934529024876255 -74.40898647694847 57.610632789345466 -74.83374653062427 58.36993998996629 -75.26964331575377 A 95.25 95.25 0 0 1 59.3299 -74.5153C 59.08598594946563 -73.67442496944292 58.83317346462063 -72.91704577047152 58.58264338612895 -72.2409962374515 C 58.48621993572518 -71.98080413804075 58.39014254213242 -71.7326908259892 58.29504023383352 -71.49650989036549 A 0.5625 0.5625 0 0 0 58.4903 -70.8513A 91.875 91.875 0 0 1 58.6363 -70.7305A 0.5625 0.5625 0 0 0 59.3067 -70.6596C 59.52088599043938 -70.7972584931127 59.746601425290315 -70.93812589050053 59.98411685438828 -71.08159655413581 C 60.60124703608389 -71.4543681063846 61.29783863144667 -71.84462129701605 62.078088130889334 -72.24181665300644 A 95.25 95.25 0 0 1 62.999 -71.4402C 62.7130790351115 -70.61263589566944 62.42253186194954 -69.86891569042041 62.13835056597615 -69.20630775027442 C 62.02897572794378 -68.95128901529809 61.92055340007296 -68.70831642425982 61.81370446003882 -68.47721214604445 A 0.5625 0.5625 0 0 0 61.9763 -67.823A 91.875 91.875 0 0 1 62.1161 -67.695A 0.5625 0.5625 0 0 0 62.782 -67.5905C 63.00286851056849 -67.7172521494155 63.23537664336603 -67.8466007070409 63.47980066584345 -67.97795636021006 C 64.1148810378194 -68.31924980060487 64.83020081325012 -68.67401031476314 65.62942163356276 -69.03150089167342 A 95.25 95.25 0 0 1 66.5089 -68.1846C 66.18175344037411 -67.37247317529659 65.85420552627059 -66.64429066555434 65.53709087943263 -65.99679812344557 C 65.41504094410496 -65.74759695236075 65.29454756616603 -65.51037885218786 65.17622190409239 -65.28493502084464 A 0.5625 0.5625 0 0 0 65.3057 -64.6234A 91.875 91.875 0 0 1 65.4389 -64.4885A 0.5625 0.5625 0 0 0 66.0988 -64.3507C 66.32570031694921 -64.46618614974629 66.564413811971 -64.58368912192681 66.81512899153405 -64.70259794884984 C 67.46655528565338 -65.01155114054005 68.19879628131814 -65.32992282237745 69.0149695213459 -65.64680556798447 A 95.25 95.25 0 0 1 69.8508 -64.7568C 69.48324699266668 -63.96212174056302 69.11952575207985 -63.251316378544644 68.77027881349697 -62.62057485682904 C 68.6358620896031 -62.37782075342154 68.5036020383261 -62.14695637762272 68.37409855510461 -61.92774248383546 A 0.5625 0.5625 0 0 0 68.4702 -61.2605A 91.875 91.875 0 0 1 68.5964 -61.1191A 0.5625 0.5625 0 0 0 69.2486 -60.9483C 69.4809876480567 -61.0522729689738 69.72530349429685 -61.15763353300386 69.98167650264288 -61.263795159664085 C 70.6478031595507 -61.53962766007409 71.39511567114475 -61.82080627509145 72.2261796064493 -62.096280716078205 A 95.25 95.25 0 0 1 73.0162 -61.1654C 72.60921983274612 -60.39019643517046 72.2102440570963 -59.69856377690978 71.82974705484581 -59.08616658341195 C 71.68330309069604 -58.85047276561514 71.53961046644909 -58.626545297639915 71.39925629911771 -58.41411509472944 A 0.5625 0.5625 0 0 0 71.4617 -57.7429A 91.875 91.875 0 0 1 71.5807 -57.5953A 0.5625 0.5625 0 0 0 72.2234 -57.392C 72.46075997425173 -57.484136448079106 72.71006100867896 -57.577088454029926 72.97144422533881 -57.67023470694486 C 73.65058855128798 -57.91224973923967 74.41108480254931 -58.15552500585256 75.25494009350375 -58.38889526987324 A 95.25 95.25 0 0 1 75.9972 -57.4195C 75.55177548192165 -56.66572025244036 75.11855301864448 -55.995007422057526 74.7077671211766 -55.402501525236964 C 74.54966584693395 -55.17446337608997 74.39490362975668 -54.95803847615665 74.24405332512313 -54.7529285812519 A 0.5625 0.5625 0 0 0 74.2727 -54.0794A 91.875 91.875 0 0 1 74.3841 -53.9261A 0.5625 0.5625 0 0 0 75.0158 -53.6907C 75.25749013202984 -53.77079000958538 75.51114659859488 -53.85109865262283 75.77687974687834 -53.93099423627364 C 76.46732616435997 -54.13858044947769 77.23908507575595 -54.34333783324926 78.09360007065882 -54.53401440676323 A 95.25 95.25 0 0 1 78.7862 -53.5285C 78.30348078924496 -52.798101542450105 77.83710599588116 -52.15000281876447 77.39706888402418 -51.57888493993892 C 77.22770967722866 -51.35907850359745 77.06226880991316 -51.15070287978635 76.90130342893895 -50.953431418282925 A 0.5625 0.5625 0 0 0 76.8961 -50.2793A 91.875 91.875 0 0 1 76.9996 -50.1206A 0.5625 0.5625 0 0 0 77.6187 -49.8538C 77.8641133382901 -49.921613888869956 78.12148447874404 -49.98907630239187 78.3908962936561 -50.05551939360028 C 79.0909006750972 -50.22815240692304 79.87197271663827 -50.39387467293141 80.73498883645082 -50.54137589036552 A 95.25 95.25 0 0 1 81.3762 -49.5024C 80.85738470829493 -48.797110245723765 80.35903568804824 -48.17326278235853 79.89085893373662 -47.62497561485607 C 79.71066961044298 -47.41395614145488 79.53496801097835 -47.21415616867624 79.36429416618567 -47.02522146540667 A 0.5625 0.5625 0 0 0 79.3252 -46.3522A 91.875 91.875 0 0 1 79.4206 -46.1885A 0.5625 0.5625 0 0 0 80.0255 -45.8909C 80.27404503658983 -45.94633143887602 80.5344807090952 -46.00077720697094 80.8068906330097 -46.05359996472209 C 81.51468470659077 -46.190843692189425 82.30309682251234 -46.31711221160797 83.17243401361654 -46.42106547208567 A 95.25 95.25 0 0 1 83.7606 -45.3512C 83.20703585612384 -44.672853213514905 82.67797148187009 -44.07483290330497 82.18283774021735 -43.55076146809542 C 81.99227347429446 -43.34906201113829 81.80675498016976 -43.15834240146358 81.626803808503 -42.9782217218856 A 0.5625 0.5625 0 0 0 81.5539 -42.308A 91.875 91.875 0 0 1 81.641 -42.1397A 0.5625 0.5625 0 0 0 82.2302 -41.8121C 82.48119753030616 -41.85498456807881 82.74403985175151 -41.89627615601128 83.01875975355874 -41.93534514543472 C 83.73255557002193 -42.036852897479946 84.52631616289452 -42.12334870507003 85.39977840409759 -42.18349141363345 A 95.25 95.25 0 0 1 85.9335 -41.0854C 85.3464988100109 -40.4357486770226 84.78805554427589 -39.86506617117253 84.26721556608508 -39.36653431818436 C 84.06675773940735 -39.174664388004615 83.8718909864395 -38.99350691572004 83.68311706017587 -38.82265526030257 A 0.5625 0.5625 0 0 0 83.5767 -38.157A 91.875 91.875 0 0 1 83.6552 -37.9845A 0.5625 0.5625 0 0 0 84.2272 -37.6277C 84.47999536068562 -37.65790837375377 84.74458036855545 -37.68594147538908 85.02091628194106 -37.711158004826785 C 85.73891073110507 -37.77667336405859 86.5360146927822 -37.82317796390344 87.41139554265689 -37.839358194851094 A 95.25 95.25 0 0 1 87.8892 -36.7158C 87.27036910085488 -36.09649993003588 86.68395761979401 -35.55459682208383 86.1387270920527 -35.08286388604421 C 85.92888207848763 -34.901308162737514 85.72515931700673 -34.730170447340356 85.52803949546728 -34.56901940219284 A 0.5625 0.5625 0 0 0 85.3883 -33.9095A 91.875 91.875 0 0 1 85.4581 -33.7333A 0.5625 0.5625 0 0 0 86.0114 -33.3482C 86.26538939093713 -33.365705034623325 86.53104872053876 -33.380408835913784 86.80830259700289 -33.39170920622392 C 87.52868196257589 -33.42106667515895 88.32711573927133 -33.427462592603305 89.20220390981832 -33.39963947326756 A 95.25 95.25 0 0 1 89.623 -32.2535C 88.97378686533239 -31.66606829148404 88.36088849524029 -31.15431347571136 87.792644717581 -30.710571094957487 C 87.5739426038449 -30.539788204037755 87.36187845522709 -30.379102554249794 87.15691068018867 -30.22805920089826 A 0.5625 0.5625 0 0 0 86.9842 -29.5764A 91.875 91.875 0 0 1 87.045 -29.3969A 0.5625 0.5625 0 0 0 87.5783 -28.9845C 87.83286956078953 -28.989217028833853 88.09893213360033 -28.990554386701298 88.37640360578877 -28.987910052167734 C 89.09734814697303 -28.98103547129156 89.89509482567242 -28.947306549692883 90.76767976822579 -28.875550363687907 A 95.25 95.25 0 0 1 91.1303 -27.7097C 90.45244912233416 -27.155645416194368 89.81461209768587 -26.67533162967985 89.22479050320766 -26.26070073597701 C 88.99778374982054 -26.1011220898486 88.7779139065099 -25.95129441156679 88.56561594436099 -25.81074029863054 A 0.5625 0.5625 0 0 0 88.3604 -25.1686A 91.875 91.875 0 0 1 88.4121 -24.9863A 0.5625 0.5625 0 0 0 88.924 -24.5476C 89.17847627929537 -24.539499744914316 89.44426999816542 -24.527467281076706 89.7212581490582 -24.510884921517963 C 90.4409466973734 -24.467795656618517 91.23599110073152 -24.394027098160027 92.10386858999652 -24.27851910783923 A 95.25 95.25 0 0 1 92.4075 -23.0959C 91.70262064266893 -22.576625023800094 91.0414561951453 -22.12896558085394 90.43154672438527 -21.7444935678246 C 90.19680877010762 -21.596522275997142 89.96968864241036 -21.457931046940054 89.75059677622826 -21.32822122630677 A 0.5625 0.5625 0 0 0 89.5134 -20.6972A 91.875 91.875 0 0 1 89.5559 -20.5125A 0.5625 0.5625 0 0 0 90.0451 -20.0487C 90.29881042710123 -20.027793554905962 90.56366387402896 -20.002421664411223 90.8394690075177 -19.971943168306694 C 91.55608356723049 -19.892748066606746 92.34641734408417 -19.779126217069333 93.20739504620157 -19.620158205640976 A 95.25 95.25 0 0 1 93.4512 -18.4238C 92.72114338457648 -17.94057411721645 92.03832167295307 -17.52669984444299 91.40986501016714 -17.173357921759596 C 91.1679888234439 -17.037367772558376 90.93419213651391 -16.910363086198664 90.70885981136713 -16.79182521613252 A 0.5625 0.5625 0 0 0 90.4402 -16.1735A 91.875 91.875 0 0 1 90.4734 -15.9869A 0.5625 0.5625 0 0 0 90.9387 -15.4991C 91.19104194291825 -15.465495420206388 91.4542860751106 -15.426848194651885 91.72821148349155 -15.382550553327897 C 92.43994182403058 -15.267449668527522 93.22356852266802 -15.114261546564123 94.07547153323979 -14.91223508102158 A 95.25 95.25 0 0 1 94.2589 -13.7052C 93.50544447121524 -13.259203763386708 92.80269036239632 -12.880160143118278 92.15727404365717 -12.55884088314336 C 91.90887062472795 -12.435175399487566 91.66898796928714 -12.320078080685452 91.43798439418515 -12.213011598133894 A 0.5625 0.5625 0 0 0 91.1386 -11.609A 91.875 91.875 0 0 1 91.1624 -11.421A 0.5625 0.5625 0 0 0 91.6025 -10.9104C 91.85291697250247 -10.864130101856576 92.11388681243514 -10.812305167488176 92.3852405363533 -10.754300280631215 C 93.09028876510872 -10.603584367554792 93.86522887647982 -10.411216939656374 94.70590521456633 -10.166642356385072 A 95.25 95.25 0 0 1 94.8284 -8.95188C 94.05354268997249 -8.544339510111424 93.3326314018275 -8.201084039429244 92.67188580477064 -7.912599122500142 C 92.41758264223012 -7.801570694134163 92.17221998268505 -7.698671488706006 91.93612869270684 -7.603346852896041 A 0.5625 0.5625 0 0 0 91.6068 -7.01513A 91.875 91.875 0 0 1 91.6211 -6.82616A 0.5625 0.5625 0 0 0 92.035 -6.2941C 92.28276356208643 -6.235321047993649 92.54079987729467 -6.170449319093347 92.80889645369318 -6.09888371208174 C 93.50548155764947 -5.912933492206024 94.2697775157774 -5.681872695190634 95.09710355998806 -5.395367810814048 A 95.25 95.25 0 0 1 95.1584 -4.17598C 94.36405349717927 -3.8078915136876765 93.62680611418854 -3.501291285701134 92.95240033953688 -3.2463694497550297 C 92.69283982524404 -3.1482585441248516 92.44261696896727 -3.0578173843939727 92.20203435120125 -2.9744753936286883 A 0.5625 0.5625 0 0 0 91.8436 -2.40355A 91.875 91.875 0 0 1 91.8483 -2.2141A 0.5625 0.5625 0 0 0 92.235 -1.66191" stroke="#191919" stroke-width="0.35 px" style="stroke-width:0.35;stroke-miterlimit:4;stroke-dasharray:none;fill:none;fill-rule: evenodd "/>
<title>b'InvoluteGear'</title>
</g>
</svg>