<?xml version="1.0"?>
<!DOCTYPE svg PUBLIC "-//W3C//DTD SVG 1.1//EN" "http://www.w3.org/Graphics/SVG/1.1/DTD/svg11.dtd">
<svg width="42.828866238379476mm" height="42.65343824782928mm" viewBox="0 0 42.828866238379476 42.65343824782928" xmlns="http://www.w3.org/2000/svg" version="1.1">
<g id="InvoluteGear" transform="translate(21.414433,21.326719) scale(1,-1)">
<path id="InvoluteGear_w0000"  d="M 18.127259253059236 -1.3679261575020107 L 18.3015172674247 -1.3799439425824562 C 18.379498427914367 -1.3814128849074372 18.61445465502079 -1.3770592534922843 19.00575644093362 -1.2948412906308222 C 19.474606735069777 -1.1951137468289548 20.151932726074655 -0.9845176779471874 20.994542273715428 -0.5422403832413492 A 21 21 0 0 1 20.9945 0.54224C 20.151932726074655 0.9845176779471874 19.474606735069777 1.1951137468289548 19.00575644093362 1.2948412906308222 C 18.61445465502079 1.3770592534922843 18.379498427914367 1.3814128849074372 18.3015172674247 1.3799439425824562 L 18.12725925305924 1.3679261575020019 A 0.5625 0.5625 0 0 0 17.5256 1.86892A 17.625 17.625 0 0 1 17.4636 2.37955A 0.5625 0.5625 0 0 0 17.9279 3.00996L 18.099950638586325 3.0399944827668683 C 18.176017349185457 3.0572303384606574 18.403104283153553 3.1176861668277605 18.76335950393126 3.2911596719461738 C 19.194719497227844 3.5001925341652056 19.80196468780324 3.8667637835046116 20.51424564878828 4.497838967461266 A 21 21 0 0 1 20.2547 5.55081C 19.330743683601685 5.778582550532849 18.62270061678472 5.820964360919134 18.143607896702708 5.805590783952944 C 17.744000583127885 5.791774995406082 17.51482986477143 5.739773412636243 17.4394662359889 5.719685041881032 L 17.27314788703964 5.666313799328281 A 0.5625 0.5625 0 0 0 16.5691 6.00877A 17.625 17.625 0 0 1 16.3867 6.48972A 0.5625 0.5625 0 0 0 16.6866 7.21292L 16.84648066927697 7.283259478708125 C 16.91621220925679 7.318198447137547 17.12223238291176 7.431242999459899 17.430504314597183 7.685890397268315 C 17.799304932173584 7.9920803477558815 18.3011784390897 8.493322988973597 18.841735633002514 9.276520266354467 A 21 21 0 0 1 18.3378 10.2368C 17.386122082632138 10.236817209574484 16.688510829414653 10.108521684697248 16.227018810846776 9.978940443375597 C 15.842329694161444 9.869893826832408 15.632263053704158 9.764559172850095 15.563896816797964 9.727018836754691 L 15.415183951163236 9.635395879350234 A 0.5625 0.5625 0 0 0 14.6496 9.79941A 17.625 17.625 0 0 1 14.3574 10.2227A 0.5625 0.5625 0 0 0 14.4756 10.9967L 14.613954477934952 11.103247907317908 C 14.673298303655667 11.153859462635825 14.846278573357537 11.312923000432683 15.084651571804002 11.633945109776105 C 15.369459462302379 12.019497501565056 15.736794221573234 12.626281134296375 16.07421242914906 13.516083926146356 A 21 21 0 0 1 15.3551 14.3278C 14.431082262202445 14.100125261712224 13.784445452907713 13.808608471142072 13.367374374517897 13.572350356201929 C 13.019960187895759 13.37441030464758 12.841205934919856 13.221864246666357 12.783810287077829 13.169053653111053 L 12.661345555959043 13.044503774103339 A 0.5625 0.5625 0 0 0 11.8788 13.0205A 17.625 17.625 0 0 1 11.4938 13.3616A 0.5625 0.5625 0 0 0 11.4232 14.1414L 11.532118371898532 14.27795592621839 C 11.577625635915284 14.341298708795247 11.707513017146685 14.537137037422287 11.862133710135078 14.905877220173569 C 12.046396874194222 15.34838514967905 12.257844724818513 16.025445714758394 12.372514426298324 16.970141917116713 A 21 21 0 0 1 11.48 17.5862C 10.63736039554327 17.14398528550922 10.07927821109833 16.706189125493676 9.730866727970907 16.37698459981205 C 9.44091792113926 16.101654669560066 9.303864603082422 15.910762629987445 9.260775170732446 15.845750938710982 L 9.171675779161047 15.695512524347544 A 0.5625 0.5625 0 0 0 8.4176 15.485A 17.625 17.625 0 0 1 7.96214 15.724A 0.5625 0.5625 0 0 0 7.70705 16.4642L 7.7800774636321 16.6228810449452 C 7.80910344917241 16.695273802499273 7.888349359457589 16.91650551014006 7.950231754334778 17.311533927193718 C 8.023241486628923 17.78528044200375 8.066513848110032 18.493269640403728 7.951770857251228 19.437956943820303 A 21 21 0 0 1 6.93776 19.8225C 6.225433807926935 19.191499200363413 5.788339956345528 18.63286679239828 5.528836477455648 18.229848026398027 C 5.313203821146514 17.893129392211076 5.225816478685667 17.67498532252268 5.1995374630122075 17.601550776714166 L 5.148981543763213 17.434355137543395 A 0.5625 0.5625 0 0 0 4.46721 17.0495A 17.625 17.625 0 0 1 3.96777 17.1726A 0.5625 0.5625 0 0 0 3.54295 17.8302L 3.5758867326103077 18.001744739053937 C 3.5867445548997368 18.07898026765315 3.610743509980086 18.312748171604134 3.5762912268891602 18.711107207230892 C 3.533804467156948 19.188559881903235 3.406386507134228 19.886331954848867 3.0688992694917205 20.776108567047753 A 21 21 0 0 1 1.99233 20.9068C 1.4517076359250622 20.12367293995373 1.1610044230895915 19.47666996904376 1.0054903473735715 19.023258948491208 C 0.8767056277788219 18.644720473465803 0.8440628956177236 18.412002114070496 0.8361215374913882 18.3344124626086 L 0.8270472168282617 18.15997640144768 A 0.5625 0.5625 0 0 0 0.25719 17.6231A 17.625 17.625 0 0 1 -0.25719 17.6231A 0.5625 0.5625 0 0 0 -0.827047 18.16L -0.836121537491382 18.3344124626086 C -0.8440628956177174 18.412002114070493 -0.8767056277788157 18.644720473465803 -1.0054903473735648 19.023258948491208 C -1.1610044230895853 19.47666996904376 -1.4517076359250551 20.12367293995373 -1.9923255888156792 20.906828278440326 A 21 21 0 0 1 -3.0689 20.7761C -3.4063865071342208 19.886331954848867 -3.533804467156942 19.188559881903235 -3.576291226889154 18.711107207230892 C -3.6107435099800798 18.312748171604134 -3.5867445548997305 18.078980267653154 -3.5758867326103014 18.001744739053937 L -3.5429520881544345 17.83020584572826 A 0.5625 0.5625 0 0 0 -3.96777 17.1726A 17.625 17.625 0 0 1 -4.46721 17.0495A 0.5625 0.5625 0 0 0 -5.14898 17.4344L -5.199537463012201 17.60155077671417 C -5.225816478685661 17.674985322522687 -5.313203821146507 17.89312939221108 -5.528836477455642 18.22984802639803 C -5.788339956345522 18.632866792398282 -6.225433807926928 19.191499200363417 -6.937763725709969 19.822519123518706 A 21 21 0 0 1 -7.95177 19.438C -8.066513848110025 18.49326964040373 -8.023241486628917 17.785280442003753 -7.950231754334772 17.31153392719372 C -7.8883493594575835 16.916505510140063 -7.809103449172404 16.69527380249928 -7.780077463632094 16.622881044945203 L -7.707047895880447 16.464208536416344 A 0.5625 0.5625 0 0 0 -7.96214 15.724A 17.625 17.625 0 0 1 -8.4176 15.485A 0.5625 0.5625 0 0 0 -9.17168 15.6955L -9.26077517073244 15.845750938710985 C -9.303864603082417 15.910762629987447 -9.440917921139253 16.10165466956007 -9.7308667279709 16.376984599812054 C -10.079278211098323 16.70618912549368 -10.637360395543263 17.143985285509228 -11.48000425261107 17.58619720906352 A 21 21 0 0 1 -12.3725 16.9701C -12.257844724818506 16.0254457147584 -12.046396874194215 15.348385149679054 -11.86213371013507 14.905877220173572 C -11.707513017146677 14.537137037422292 -11.577625635915279 14.341298708795252 -11.532118371898527 14.277955926218393 L -11.423238093877146 14.141371271930954 A 0.5625 0.5625 0 0 0 -11.4938 13.3616A 17.625 17.625 0 0 1 -11.8788 13.0205A 0.5625 0.5625 0 0 0 -12.6613 13.0445L -12.783810287077822 13.169053653111058 C -12.841205934919849 13.221864246666359 -13.019960187895753 13.374410304647583 -13.36737437451789 13.57235035620193 C -13.784445452907706 13.808608471142076 -14.431082262202438 14.100125261712229 -15.35506866046803 14.327829436043494 A 21 21 0 0 1 -16.0742 13.5161C -15.736794221573227 12.62628113429638 -15.369459462302371 12.01949750156506 -15.084651571803995 11.63394510977611 C -14.846278573357532 11.312923000432686 -14.67329830365566 11.15385946263583 -14.613954477934945 11.103247907317913 L -14.475551215638728 10.996688910914056 A 0.5625 0.5625 0 0 0 -14.3574 10.2227A 17.625 17.625 0 0 1 -14.6496 9.79941A 0.5625 0.5625 0 0 0 -15.4152 9.6354L -15.563896816797964 9.727018836754695 C -15.632263053704158 9.764559172850099 -15.842329694161439 9.869893826832412 -16.227018810846772 9.9789404433756 C -16.688510829414653 10.108521684697251 -17.386122082632138 10.236817209574488 -18.33775229118222 10.236780295741589 A 21 21 0 0 1 -18.8417 9.27652C -18.3011784390897 8.4933229889736 -17.799304932173584 7.992080347755885 -17.43050431459718 7.685890397268319 C -17.122232382911758 7.4312429994599025 -16.91621220925679 7.318198447137551 -16.84648066927697 7.283259478708128 L -16.68659791723518 7.212918961732656 A 0.5625 0.5625 0 0 0 -16.3867 6.48972A 17.625 17.625 0 0 1 -16.5691 6.00877A 0.5625 0.5625 0 0 0 -17.2731 5.66631L -17.439466235988895 5.719685041881039 C -17.514829864771425 5.739773412636249 -17.744000583127885 5.791774995406089 -18.143607896702704 5.80559078395295 C -18.62270061678472 5.820964360919141 -19.330743683601682 5.778582550532856 -20.25471241375039 5.550806693833582 A 21 21 0 0 1 -20.5142 4.49784C -19.801964687803235 3.866763783504619 -19.194719497227844 3.5001925341652127 -18.763359503931255 3.29115967194618 C -18.403104283153553 3.1176861668277676 -18.176017349185454 3.0572303384606636 -18.09995063858632 3.039994482766876 L -17.927880201197475 3.0099603803890265 A 0.5625 0.5625 0 0 0 -17.4636 2.37955A 17.625 17.625 0 0 1 -17.5256 1.86892A 0.5625 0.5625 0 0 0 -18.1273 1.36793L -18.3015172674247 1.3799439425824584 C -18.379498427914367 1.3814128849074394 -18.61445465502079 1.3770592534922865 -19.00575644093362 1.2948412906308244 C -19.474606735069777 1.1951137468289572 -20.151932726074655 0.9845176779471898 -20.994542273715428 0.5422403832413517 A 21 21 0 0 1 -20.9945 -0.54224C -20.151932726074655 -0.9845176779471849 -19.474606735069777 -1.1951137468289523 -19.00575644093362 -1.29484129063082 C -18.61445465502079 -1.377059253492282 -18.379498427914367 -1.381412884907435 -18.3015172674247 -1.379943942582454 L -18.12725925305924 -1.3679261575019996 A 0.5625 0.5625 0 0 0 -17.5256 -1.86892A 17.625 17.625 0 0 1 -17.4636 -2.37955A 0.5625 0.5625 0 0 0 -17.9279 -3.00996L -18.099950638586325 -3.039994482766864 C -18.176017349185457 -3.057230338460652 -18.403104283153557 -3.117686166827756 -18.76335950393126 -3.291159671946168 C -19.194719497227847 -3.5001925341652003 -19.80196468780324 -3.8667637835046063 -20.514245648788282 -4.49783896746126 A 21 21 0 0 1 -20.2547 -5.55081C -19.330743683601685 -5.778582550532844 -18.622700616784723 -5.820964360919128 -18.143607896702715 -5.805590783952939 C -17.74400058312789 -5.791774995406078 -17.51482986477143 -5.739773412636238 -17.4394662359889 -5.719685041881028 L -17.27314788703964 -5.666313799328275 A 0.5625 0.5625 0 0 0 -16.5691 -6.00877A 17.625 17.625 0 0 1 -16.3867 -6.48972A 0.5625 0.5625 0 0 0 -16.6866 -7.21292L -16.84648066927697 -7.283259478708125 C -16.91621220925679 -7.318198447137545 -17.12223238291176 -7.431242999459899 -17.430504314597183 -7.685890397268313 C -17.799304932173584 -7.9920803477558815 -18.3011784390897 -8.493322988973595 -18.841735633002514 -9.276520266354465 A 21 21 0 0 1 -18.3378 -10.2368C -17.386122082632138 -10.236817209574482 -16.688510829414653 -10.108521684697248 -16.227018810846776 -9.978940443375595 C -15.842329694161444 -9.869893826832408 -15.632263053704158 -9.764559172850094 -15.563896816797964 -9.727018836754691 L -15.415183951163236 -9.635395879350233 A 0.5625 0.5625 0 0 0 -14.6496 -9.79941A 17.625 17.625 0 0 1 -14.3574 -10.2227A 0.5625 0.5625 0 0 0 -14.4756 -10.9967L -14.613954477934954 -11.103247907317904 C -14.673298303655669 -11.153859462635822 -14.846278573357539 -11.312923000432678 -15.084651571804004 -11.633945109776102 C -15.36945946230238 -12.019497501565052 -15.736794221573234 -12.626281134296372 -16.07421242914906 -13.516083926146353 A 21 21 0 0 1 -15.3551 -14.3278C -14.431082262202448 -14.10012526171222 -13.784445452907715 -13.808608471142069 -13.3673743745179 -13.572350356201925 C -13.019960187895764 -13.374410304647574 -12.841205934919858 -13.221864246666353 -12.78381028707783 -13.16905365311105 L -12.661345555959045 -13.044503774103335 A 0.5625 0.5625 0 0 0 -11.8788 -13.0205A 17.625 17.625 0 0 1 -11.4938 -13.3616A 0.5625 0.5625 0 0 0 -11.4232 -14.1414L -11.532118371898532 -14.27795592621839 C -11.577625635915284 -14.341298708795247 -11.707513017146685 -14.537137037422287 -11.862133710135078 -14.905877220173569 C -12.046396874194222 -15.34838514967905 -12.257844724818513 -16.025445714758394 -12.372514426298324 -16.970141917116713 A 21 21 0 0 1 -11.48 -17.5862C -10.63736039554327 -17.14398528550922 -10.07927821109833 -16.706189125493676 -9.730866727970907 -16.37698459981205 C -9.44091792113926 -16.101654669560066 -9.303864603082422 -15.910762629987445 -9.260775170732446 -15.845750938710982 L -9.171675779161047 -15.695512524347544 A 0.5625 0.5625 0 0 0 -8.4176 -15.485A 17.625 17.625 0 0 1 -7.96214 -15.724A 0.5625 0.5625 0 0 0 -7.70705 -16.4642L -7.780077463632102 -16.6228810449452 C -7.809103449172412 -16.695273802499273 -7.8883493594575915 -16.91650551014006 -7.95023175433478 -17.311533927193718 C -8.023241486628924 -17.78528044200375 -8.066513848110034 -18.493269640403728 -7.95177085725123 -19.437956943820303 A 21 21 0 0 1 -6.93776 -19.8225C -6.225433807926937 -19.191499200363413 -5.78833995634553 -18.63286679239828 -5.52883647745565 -18.229848026398027 C -5.313203821146517 -17.893129392211076 -5.225816478685669 -17.67498532252268 -5.199537463012209 -17.601550776714166 L -5.148981543763215 -17.434355137543395 A 0.5625 0.5625 0 0 0 -4.46721 -17.0495A 17.625 17.625 0 0 1 -3.96777 -17.1726A 0.5625 0.5625 0 0 0 -3.54295 -17.8302L -3.575886732610314 -18.001744739053937 C -3.5867445548997425 -18.07898026765315 -3.610743509980092 -18.312748171604134 -3.5762912268891665 -18.711107207230892 C -3.533804467156955 -19.188559881903235 -3.4063865071342345 -19.886331954848867 -3.0688992694917276 -20.776108567047753 A 21 21 0 0 1 -1.99233 -20.9068C -1.451707635925069 -20.12367293995373 -1.1610044230895982 -19.47666996904376 -1.0054903473735777 -19.023258948491208 C -0.8767056277788281 -18.644720473465803 -0.8440628956177294 -18.412002114070496 -0.8361215374913944 -18.3344124626086 L -0.8270472168282673 -18.159976401447683 A 0.5625 0.5625 0 0 0 -0.25719 -17.6231A 17.625 17.625 0 0 1 0.25719 -17.6231A 0.5625 0.5625 0 0 0 0.827047 -18.16L 0.8361215374913715 -18.3344124626086 C 0.8440628956177065 -18.412002114070496 0.8767056277788048 -18.6447204734658 1.005490347373554 -19.02325894849121 C 1.161004423089574 -19.476669969043762 1.4517076359250438 -20.12367293995373 1.992325588815667 -20.90682827844033 A 21 21 0 0 1 3.0689 -20.7761C 3.4063865071342097 -19.886331954848867 3.533804467156931 -19.188559881903238 3.5762912268891434 -18.711107207230896 C 3.6107435099800695 -18.312748171604138 3.5867445548997203 -18.078980267653158 3.575886732610291 -18.001744739053937 L 3.5429520881544256 -17.830205845728262 A 0.5625 0.5625 0 0 0 3.96777 -17.1726A 17.625 17.625 0 0 1 4.46721 -17.0495A 0.5625 0.5625 0 0 0 5.14898 -17.4344L 5.199537463012203 -17.601550776714166 C 5.225816478685663 -17.674985322522684 5.3132038211465105 -17.893129392211076 5.528836477455644 -18.22984802639803 C 5.788339956345523 -18.632866792398282 6.2254338079269305 -19.191499200363417 6.937763725709972 -19.822519123518706 A 21 21 0 0 1 7.95177 -19.438C 8.066513848110027 -18.49326964040373 8.023241486628919 -17.785280442003753 7.950231754334774 -17.31153392719372 C 7.888349359457585 -16.91650551014006 7.809103449172405 -16.695273802499276 7.780077463632096 -16.6228810449452 L 7.707047895880448 -16.464208536416344 A 0.5625 0.5625 0 0 0 7.96214 -15.724A 17.625 17.625 0 0 1 8.4176 -15.485A 0.5625 0.5625 0 0 0 9.17168 -15.6955L 9.26077517073244 -15.845750938710985 C 9.303864603082417 -15.910762629987447 9.440917921139253 -16.10165466956007 9.7308667279709 -16.376984599812054 C 10.079278211098323 -16.70618912549368 10.637360395543263 -17.143985285509228 11.48000425261107 -17.58619720906352 A 21 21 0 0 1 12.3725 -16.9701C 12.257844724818506 -16.0254457147584 12.046396874194215 -15.348385149679054 11.86213371013507 -14.905877220173572 C 11.707513017146677 -14.537137037422292 11.577625635915279 -14.341298708795252 11.532118371898527 -14.277955926218393 L 11.423238093877146 -14.141371271930954 A 0.5625 0.5625 0 0 0 11.4938 -13.3616A 17.625 17.625 0 0 1 11.8788 -13.0205A 0.5625 0.5625 0 0 0 12.6613 -13.0445L 12.783810287077822 -13.16905365311106 C 12.841205934919849 -13.221864246666362 13.019960187895753 -13.374410304647583 13.36737437451789 -13.572350356201934 C 13.784445452907706 -13.80860847114208 14.431082262202438 -14.10012526171223 15.35506866046803 -14.327829436043496 A 21 21 0 0 1 16.0742 -13.5161C 15.736794221573227 -12.626281134296383 15.369459462302371 -12.019497501565063 15.084651571803995 -11.633945109776114 C 14.846278573357532 -11.31292300043269 14.67329830365566 -11.153859462635834 14.613954477934945 -11.103247907317915 L 14.475551215638728 -10.996688910914058 A 0.5625 0.5625 0 0 0 14.3574 -10.2227A 17.625 17.625 0 0 1 14.6496 -9.79941A 0.5625 0.5625 0 0 0 15.4152 -9.6354L 15.56389681679796 -9.727018836754702 C 15.632263053704149 -9.764559172850108 15.842329694161435 -9.86989382683242 16.22701881084677 -9.97894044337561 C 16.688510829414646 -10.10852168469726 17.386122082632127 -10.236817209574498 18.337752291182213 -10.236780295741598 A 21 21 0 0 1 18.8417 -9.27652C 18.301178439089696 -8.493322988973611 17.799304932173577 -7.992080347755897 17.430504314597176 -7.685890397268328 C 17.122232382911754 -7.431242999459912 16.916212209256784 -7.31819844713756 16.846480669276968 -7.283259478708138 L 16.686597917235176 -7.212918961732665 A 0.5625 0.5625 0 0 0 16.3867 -6.48972A 17.625 17.625 0 0 1 16.5691 -6.00877A 0.5625 0.5625 0 0 0 17.2731 -5.66631L 17.439466235988895 -5.719685041881048 C 17.51482986477142 -5.739773412636259 17.744000583127878 -5.7917749954061 18.143607896702704 -5.805590783952961 C 18.622700616784712 -5.820964360919151 19.33074368360168 -5.778582550532867 20.25471241375039 -5.550806693833594 A 21 21 0 0 1 20.5142 -4.49784C 19.80196468780323 -3.8667637835046307 19.194719497227844 -3.500192534165224 18.763359503931255 -3.2911596719461906 C 18.403104283153553 -3.117686166827778 18.17601734918545 -3.0572303384606747 18.09995063858632 -3.039994482766886 L 17.92788020119747 -3.009960380389036 A 0.5625 0.5625 0 0 0 17.4636 -2.37955A 17.625 17.625 0 0 1 17.5256 -1.86892A 0.5625 0.5625 0 0 0 18.1273 -1.36793" stroke="#191919" stroke-width="0.35 px" style="stroke-width:0.35;stroke-miterlimit:4;stroke-dasharray:none;fill:none;fill-rule: evenodd "/>
<title>b'InvoluteGear'</title>
</g>
</svg>