<?xml version="1.0"?>
<!DOCTYPE svg PUBLIC "-//W3C//DTD SVG 1.1//EN" "http://www.w3.org/Graphics/SVG/1.1/DTD/svg11.dtd">
<svg width="224.89372574227588mm" height="224.90666389156993mm" viewBox="0 0 224.89372574227588 224.90666389156993" xmlns="http://www.w3.org/2000/svg" version="1.1">
<g id="InvoluteGear" transform="translate(112.440569,112.453332) scale(1,-1)">
<path id="InvoluteGear_w0000"  d="M 107.23698660693194 -1.6706895177432382 C 107.48259471985543 -1.5966544376983194 107.73644176483138 -1.5169687373439966 107.99832963110252 -1.4312218861127068 C 108.69317026388852 -1.2037157889701342 109.44448573507302 -0.9336007831749724 110.24831646864284 -0.6133273433093813 A 110.25 110.25 0 0 1 110.248 0.613327C 109.44448573507302 0.9336007831749724 108.69317026388852 1.2037157889701342 107.99832963110252 1.4312218861127068 C 107.73644176483138 1.5169687373439966 107.48259471985543 1.5966544376983194 107.23698706935889 1.6706893230227355 A 0.5625 0.5625 0 0 0 106.852 2.2243A 106.875 106.875 0 0 1 106.848 2.40647A 0.5625 0.5625 0 0 0 107.209 2.97625C 107.4508661285398 3.0608563071032724 107.70102300269565 3.1514635441020653 107.95895058874825 3.248474560740432 C 108.64328369577098 3.505866728142852 109.38219286360004 3.808274226884328 110.17139519704078 4.163067971764964 A 110.25 110.25 0 0 1 110.118 5.38857C 109.30130802020872 5.673723055313897 108.53899676196252 5.911038455463128 107.83495309409884 6.108231363420115 C 107.56959661471396 6.1825530684906544 107.31253597022088 6.251167630624288 107.06395177216646 6.31449360242945 A 0.5625 0.5625 0 0 0 106.655 6.85091A 106.875 106.875 0 0 1 106.643 7.03273A 0.5625 0.5625 0 0 0 106.979 7.6176C 107.21740976338894 7.71262061401089 107.46340682333184 7.813979282034053 107.71688989707341 7.922072336032239 C 108.389430714429 8.208867346794591 109.11454635414711 8.542999600001433 109.88763864253988 8.931647561712774 A 110.25 110.25 0 0 1 109.781 10.1537C 108.95292852020648 10.40319350525218 108.18105263463359 10.607263764888302 107.46912770011453 10.773773274579296 C 107.2008007866794 10.836530302253538 106.94100914716951 10.89394490949547 106.68991509241499 10.946443079886116 A 0.5625 0.5625 0 0 0 106.258 11.4646A 106.875 106.875 0 0 1 106.239 11.6458A 0.5625 0.5625 0 0 0 106.549 12.2447C 106.78266391433503 12.349905281591646 107.02403932628869 12.461825090330723 107.2726019997342 12.580797248274271 C 107.93208790231047 12.896456674730468 108.64204868506994 13.26168638401008 109.3975795284221 13.683458916613041 A 110.25 110.25 0 0 1 109.239 14.8998C 108.40000128117609 15.11313304639275 107.62000988459992 15.28357504492618 106.90154024810249 15.419088552144975 C 106.63074665636015 15.470163082660815 106.36871175349152 15.516269945085085 106.11557924488841 15.557841754231731 A 0.5625 0.5625 0 0 0 105.662 16.0569A 106.875 106.875 0 0 1 105.634 16.237A 0.5625 0.5625 0 0 0 105.918 16.8487C 106.147444771284 16.96400429242254 106.38374537813326 17.086275124130896 106.62692100083514 17.215903028224425 C 107.27211387275834 17.559834252783908 107.96558692137187 17.95547573751922 108.7021378894689 18.40958100715399 A 110.25 110.25 0 0 1 108.491 19.6179C 107.64356436623457 19.794699259379062 106.8569218110025 19.931193009766687 106.1332563241978 20.03545610206301 C 105.86050444082207 20.074752248326075 105.59671821774535 20.109464805116094 105.34202248512925 20.14003220629082 A 0.5625 0.5625 0 0 0 104.867 20.6189A 106.875 106.875 0 0 1 104.832 20.7977A 0.5625 0.5625 0 0 0 105.089 21.4212C 105.31294489180412 21.546255157728503 105.54372706385021 21.678647461695437 105.78105909898576 21.818687749093563 C 106.41074765805374 22.19024507681889 107.08643104933215 22.615555561462077 107.80261934469215 23.101141032933448 A 110.25 110.25 0 0 1 107.539 24.2991C 106.68503790665117 24.439102992813506 105.893221031966 24.541392242300923 105.16571830119116 24.614209176613222 C 104.89152018934382 24.641653164214883 104.62647787713034 24.664906246172322 104.37069708512661 24.68441185227335 A 0.5625 0.5625 0 0 0 103.876 25.1423A 106.875 106.875 0 0 1 103.833 25.3194A 0.5625 0.5625 0 0 0 104.062 25.9534C 104.280730962224 26.088055180299943 104.50556143005285 26.230320403808157 104.73660431152442 26.380510163503814 C 105.3496063832624 26.778996034335442 106.00623159223932 27.233177042891413 106.7007126461708 27.749331080214525 A 110.25 110.25 0 0 1 106.385 28.9348C 105.52622143569934 29.037624863970798 104.73071679500794 29.105517575180095 104.00074263062473 29.146751645322695 C 103.72561306861034 29.16229195104379 103.45981225650758 29.17404190293694 103.20342660682718 29.182449094226914 A 0.5625 0.5625 0 0 0 102.689 29.6184A 106.875 106.875 0 0 1 102.638 29.7935A 0.5625 0.5625 0 0 0 102.84 30.4369C 103.05274085634244 30.580877605157855 103.2711975242428 30.73274866011521 103.49551749318165 30.892805926527593 C 104.09068223025126 31.31747222488001 104.72701651170627 31.79967107996164 105.3984865085954 32.34542465786331 A 110.25 110.25 0 0 1 105.032 33.5161C 104.16929051022089 33.58163162852797 103.37159158036552 33.61500033998782 102.64051643259405 33.624574133302495 C 102.3649719474176 33.6281815818428 102.09891164867727 33.62840634436472 101.84240247858826 33.62569933722044 A 0.5625 0.5625 0 0 0 101.309 34.039A 106.875 106.875 0 0 1 101.251 34.2117A 0.5625 0.5625 0 0 0 101.425 34.8632C 101.63127999727308 35.0162876276454 101.84295273567704 35.17747939201492 102.06012865478021 35.34710367435039 C 102.63633869757517 35.79715313362095 103.2511874003841 36.30646455726181 103.89838572547222 36.88079308042418 A 110.25 110.25 0 0 1 103.482 38.0345C 102.61679262624547 38.06259238857856 101.818397003617 38.06137445401983 101.08759338965868 38.03926999670996 C 100.8121512873 38.0309378154618 100.54633100233289 38.01963696664431 100.29017988100001 38.00582084318885 A 0.5625 0.5625 0 0 0 99.7399 38.3957A 106.875 106.875 0 0 1 99.6743 38.5656A 0.5625 0.5625 0 0 0 99.82 39.2241C 100.01901702925333 39.38595822889228 100.22350844471177 39.55616808197895 100.43313258888341 39.73504092837112 C 100.98930616325536 40.20962862772479 101.581514973223 40.74509644094389 102.20322657927917 41.34692166757515 A 110.25 110.25 0 0 1 101.737 42.4815C 100.87164243633293 42.47209460850197 100.07404902529011 42.43629231446952 99.34488895256999 42.38255110534408 C 99.07006634679584 42.36229493710711 98.80498512541199 42.339489693113094 98.54967294980082 42.314590391674614 A 0.5625 0.5625 0 0 0 97.983 42.6802A 106.875 106.875 0 0 1 97.9101 42.8472A 0.5625 0.5625 0 0 0 98.0272 43.5114C 98.21897880754354 43.68168580892259 98.41590498879084 43.860594199512114 98.61758381060346 44.04837979488194 C 99.15267675877998 44.54661474550189 99.72113386574426 45.107233663429845 100.31619155418953 45.735425729550485 A 110.25 110.25 0 0 1 99.8011 46.8487C 98.93711627761766 46.801859908620166 98.14182247645083 46.73154047018014 97.41567486681697 46.64626340274394 C 97.14198770835408 46.614121276357515 96.87814321284883 46.57985445164969 96.62414930489204 46.54391871806496 A 0.5625 0.5625 0 0 0 96.0422 46.8847A 106.875 106.875 0 0 1 95.9621 47.0483A 0.5625 0.5625 0 0 0 96.0503 47.7169C 96.23454471582268 47.8954055880566 96.42353595452997 48.08267663433942 96.61689082306864 48.279022430852926 C 97.12989856395028 48.79996924867891 97.67353674908979 49.38468676787524 98.24082336129044 50.03806630851961 A 110.25 110.25 0 0 1 97.678 51.128C 96.81684602082798 51.04375960699048 96.0253449105502 50.93905504154103 95.30357303026602 50.82240221457774 C 95.03153513815738 50.77843447352569 94.76942270900246 50.73277040048696 94.51722391572294 50.685865700340955 A 0.5625 0.5625 0 0 0 93.921 51.0011A 106.875 106.875 0 0 1 93.8339 51.1611A 0.5625 0.5625 0 0 0 93.8931 51.8329C 94.06944032174847 52.01920674769193 94.25014180661239 52.214488867846235 94.43480971831468 52.41902624678624 C 94.92476913347105 52.961706908600455 95.44256777289687 53.5694252830188 95.98101828751311 54.24676564636964 A 110.25 110.25 0 0 1 95.3715 55.3113C 94.51481225182826 55.18982998015666 93.72858979307176 55.05093685957903 93.01254869342603 54.90312727658249 C 92.74267079038941 54.84741646570452 92.48278251628297 54.79044087386068 92.23285231456336 54.732655265826935 A 0.5625 0.5625 0 0 0 91.6235 55.0217A 106.875 106.875 0 0 1 91.5296 55.1779A 0.5625 0.5625 0 0 0 91.5596 55.8516C 91.72773038259349 56.04534728203893 91.89980286545733 56.248273854288755 92.07543712561458 56.46061881809798 C 92.54142836743858 57.02401449766147 93.0324153483089 57.6535927995531 93.54101888076114 58.35362234985213 A 110.25 110.25 0 0 1 92.886 59.3907C 92.03533679848506 59.23228721420747 91.25586904176538 59.0594662958229 90.546903015105 58.88077745384084 C 90.27969176870434 58.81342816436329 90.02251556272581 58.74524801943477 89.77532317040516 58.676689989954454 A 0.5625 0.5625 0 0 0 89.1541 58.9391A 106.875 106.875 0 0 1 89.0535 59.091A 0.5625 0.5625 0 0 0 89.0542 59.7654C 89.21381121408803 59.96626853292755 89.37693164684471 60.17645858383687 89.54320252048514 60.39621247703327 C 89.98435073911075 60.979265457825704 90.44760428467119 61.62952171971219 90.92540598497018 62.35092622462336 A 110.25 110.25 0 0 1 90.2261 63.3587C 89.3830746168867 63.16354201807408 88.61182493147207 62.957117755099134 87.91126498743371 62.747885123761556 C 87.64722205886376 62.66902379693821 87.39324074246807 62.5897671000231 87.14925023743433 62.5105653596331 A 0.5625 0.5625 0 0 0 86.5172 62.7458A 106.875 106.875 0 0 1 86.4101 62.8932A 0.5625 0.5625 0 0 0 86.3817 63.567C 86.53240243679667 63.77460938039826 86.68626457787781 63.99166830010881 86.84285990880947 64.21841855771954 C 87.25833689455087 64.8200342186915 87.69298729467407 65.48974765238509 88.13909014005203 66.23117275032851 A 110.25 110.25 0 0 1 87.3968 67.2077C 86.56300505214968 66.97621387163099 85.80142137873818 66.73657380405054 85.11058274541666 66.4971901957605 C 84.85020384768654 66.40696488549241 84.59989424425723 66.31678043275781 84.3595636931895 66.22708367445007 A 0.5625 0.5625 0 0 0 83.7179 66.4347A 106.875 106.875 0 0 1 83.6045 66.5774A 0.5625 0.5625 0 0 0 83.5469 67.2493C 83.68853811552387 67.46322006243571 83.83285310483632 67.6867403455058 83.9794789016877 67.92006126761484 C 84.36850463991652 68.53911013822444 84.77373588389197 69.22702342673036 85.18730236286906 69.98707716955467 A 110.25 110.25 0 0 1 84.4034 70.9305C 83.58042249021848 70.66314488185144 82.82993462258062 70.3907389088529 82.15011427732573 70.12165374132223 C 81.89388824460943 70.02023383620198 81.6477202842726 69.9192909395347 81.4115008826689 69.8192675596007 A 0.5625 0.5625 0 0 0 80.7615 69.9989A 106.875 106.875 0 0 1 80.642 70.1365A 0.5625 0.5625 0 0 0 80.5554 70.8053C 80.68755730838322 71.0251755978997 80.82205420961374 71.25473760835303 80.9584351977719 71.4941911593084 C 81.32027933331311 72.12951103998421 81.69533064182204 72.83433269798192 82.0755843265467 73.6115881642014 A 110.25 110.25 0 0 1 81.2515 74.5202C 80.44092641820919 74.2174132210036 79.70294331889953 73.91275275633811 79.03541755337642 73.6144712088527 C 78.78382542327786 73.502047114155 78.54226126065743 73.3905352832962 78.31059648576218 73.28037306518056 A 0.5625 0.5625 0 0 0 77.6534 73.4317A 106.875 106.875 0 0 1 77.5281 73.564A 0.5625 0.5625 0 0 0 77.4126 74.2284C 77.53509404327383 74.45378878745392 77.65952035254367 74.68896154660231 77.78540049095349 74.93409817738207 C 78.11938369925096 75.5844963214314 78.46355095264998 76.30490311990341 78.80977795656109 77.09790109359406 A 110.25 110.25 0 0 1 77.9471 77.97C 77.15041091195748 77.63234612165895 76.42631806713462 77.29600313351557 75.77234009121966 76.96908519851401 C 75.52585420167475 76.84586797872967 75.28934734824551 76.7239965654902 75.0626721264674 76.60390232724676 A 0.5625 0.5625 0 0 0 74.3995 76.7266A 106.875 106.875 0 0 1 74.2686 76.8534A 0.5625 0.5625 0 0 0 74.1244 77.5122C 74.23706674058151 77.74262276808368 74.35118886049605 77.98296476364457 74.46633182235065 78.23332425583826 C 74.77182708482802 78.89757960870445 75.08446414506021 79.63221905916042 75.39601446313445 80.4394707694854 A 110.25 110.25 0 0 1 74.4964 81.2733C 73.71505357050715 80.90153240411586 73.00621038882825 80.53413834131102 72.36700797783841 80.1791977730573 C 72.12609108034997 80.04541875564176 71.89508555301713 79.91341656086583 71.67382544340019 79.78361576687851 A 0.5625 0.5625 0 0 0 71.006 79.8775A 106.875 106.875 0 0 1 70.8697 79.9984A 0.5625 0.5625 0 0 0 70.6971 80.6504C 70.79966710196291 80.88550309763393 70.90327078016641 81.13056311262349 71.00746039658596 81.38567544244407 C 71.28389417780848 82.06254093410878 71.56441410146006 82.81003382774149 71.84070283052853 83.63002374396271 A 110.25 110.25 0 0 1 70.9058 84.4241C 70.14130391831326 84.01883451271958 69.44904117878635 83.62107911921798 68.82581436845932 83.23878228154197 C 68.59091875932945 83.09469262262212 68.36584824683328 82.9528074666378 68.15041864211435 82.8135438043347 A 0.5625 0.5625 0 0 0 67.4791 82.8784A 106.875 106.875 0 0 1 67.3377 82.9933A 0.5625 0.5625 0 0 0 67.1371 83.6372C 67.22934848607268 83.87652934667905 67.32223921748465 84.12584730652497 67.41527988335086 84.38523352722936 C 67.66213320777833 85.07343841345627 67.9100093480036 85.83238141046192 68.1505177848463 86.66357008719076 A 110.25 110.25 0 0 1 67.1821 87.4164C 66.43587129693401 86.97840003848177 65.76148865051947 86.55103005847403 65.15540748407194 86.14209467374303 C 64.92697415526303 85.9879648865979 64.70826120397358 85.83646314396024 64.49906655072567 85.68799806631597 A 0.5625 0.5625 0 0 0 63.8256 85.7237A 106.875 106.875 0 0 1 63.6794 85.8324A 0.5625 0.5625 0 0 0 63.451 86.467C 63.5328137930569 86.71008617596269 63.614817185035065 86.96319401224606 63.69653422621942 87.22636715330762 C 63.9133436525284 87.92461940133197 64.12811064777415 88.69358766553408 64.33238726293115 89.53441463287918 A 110.25 110.25 0 0 1 63.3323 90.2446C 62.60571226894303 89.7746727063667 61.95047579859461 89.31849048233528 61.36267813008839 88.88368428400534 C 61.14113594130674 88.71980373120554 60.9291911619372 88.55896983060626 60.72662420126349 88.40158206529128 A 0.5625 0.5625 0 0 0 60.0523 88.4081A 106.875 106.875 0 0 1 59.9014 88.5104A 0.5625 0.5625 0 0 0 59.6458 89.1344C 59.71700288055836 89.38085387861038 59.78796498030265 89.63727640781532 59.85820498159876 89.90374238916014 C 60.04456347274533 90.61073110334522 60.225818120418566 91.38828097717567 60.39347940588933 92.23716767036213 A 110.25 110.25 0 0 1 59.3635 92.9034C 58.658017557709854 92.40240280661726 58.02315740143633 91.91826477302223 57.45474675957627 91.45840406429868 C 57.24051163313284 91.28508041445856 57.03573292986078 91.11521630474083 56.84017396006413 90.94920133083937 A 0.5625 0.5625 0 0 0 56.1662 90.9265A 106.875 106.875 0 0 1 56.0111 91.0221A 0.5625 0.5625 0 0 0 55.7286 91.6345C 55.78907953485896 91.8838183673235 55.848867118441795 92.14307418294452 55.907498211586464 92.41233274253507 C 56.063055898975726 93.1267306254418 56.21045791241435 93.91140234025707 56.34118910165402 94.76675506321686 A 110.25 110.25 0 0 1 55.2833 95.3877C 54.600198547568276 94.85665705053637 53.986906588977796 94.34547212594923 53.43895010535193 93.86142024726279 C 53.23242424531163 93.6789788974247 53.03519606875553 93.50040348070576 52.847012231368176 93.32607297398478 A 0.5625 0.5625 0 0 0 52.1746 93.2742A 106.875 106.875 0 0 1 52.0155 93.363A 0.5625 0.5625 0 0 0 51.7068 93.9626C 51.75641802161964 94.21428058780411 51.80491884409991 94.47588296413643 51.851830955342 94.74742859716143 C 51.97629579566978 95.46789444141059 52.0895684429953 96.25821485805486 52.1831241018559 97.11842777542468 A 110.25 110.25 0 0 1 51.0994 97.693C 50.43987336971665 97.13282783222104 49.84930100037986 96.59555571292502 49.322827406031344 96.08822142110036 C 49.12439854311692 95.8970048858357 48.935091168570324 95.71005341880145 48.754635759083996 95.52773466657186 A 0.5625 0.5625 0 0 0 48.0851 95.4468A 106.875 106.875 0 0 1 47.9223 95.5286A 0.5625 0.5625 0 0 0 47.5879 96.1143C 47.6265892414669 96.36786534073848 47.66371224761817 96.63132314665486 47.69881730437058 96.9046460545615 C 47.79195562790423 97.62982726081056 47.870886251556925 98.42431263528053 47.92709073906439 99.28777078718991 A 110.25 110.25 0 0 1 46.8195 99.8149C 46.184852599972515 99.22664187886113 45.618108557805144 98.66429123712176 45.11410625189721 98.13462699928142 C 44.924146915565366 97.93499426765533 44.74311574784363 97.74001773215095 44.57072755243424 97.55005301881997 A 0.5625 0.5625 0 0 0 43.9053 97.4402A 106.875 106.875 0 0 1 43.7391 97.5149A 0.5625 0.5625 0 0 0 43.3797 98.0855C 43.40734651641817 98.34052949577664 43.43302201167529 98.60534811677465 43.456254107862016 98.8799351643623 C 43.517891057130946 99.6084702806692 43.5623314731122 100.40562904968847 43.58107927121392 101.27071138367818 A 110.25 110.25 0 0 1 42.4516 101.749C 41.84312459523267 101.13416827336239 41.30127288295596 100.54779486375065 40.8206880771558 99.99679506915767 C 40.63955489621203 99.78912093076454 40.46713980241698 99.58648537486276 40.30314246190892 99.38923133933064 A 0.5625 0.5625 0 0 0 39.6431 99.2506A 106.875 106.875 0 0 1 39.4739 99.3181A 0.5625 0.5625 0 0 0 39.09 99.8726C 39.106611033829644 100.12856958208715 39.12079081513305 100.3942518488762 39.132106334920984 100.66958752765406 C 39.16212619299325 101.40010880546109 39.171992969065556 102.1984443867343 39.15324888072952 103.06352680111294 A 110.25 110.25 0 0 1 38.0041 103.493C 37.42284049616772 102.85182583423268 36.9068983837545 102.24253051155617 36.45063332581966 101.67122960475204 C 36.27866635888496 101.45590394608729 36.11519103033989 101.24598979687133 35.95989243260421 101.0418167629791 A 0.5625 0.5625 0 0 0 35.3065 100.875A 106.875 106.875 0 0 1 35.1345 100.935A 0.5625 0.5625 0 0 0 34.727 101.472C 34.732456975194886 101.72862874123662 34.73511442148679 101.99467586312142 34.73449212116986 102.27024325912183 C 34.732838528898654 103.00137922106057 34.70811314122089 103.79939282295034 34.65191235651441 104.66285121587563 A 110.25 110.25 0 0 1 33.4853 105.042C 32.93229892430726 104.376389838876 32.44323503916384 103.74531649143901 32.012146319066396 103.1547870301822 C 31.849668416152713 102.93221410267103 31.695439760705764 102.71541545202253 31.54913146263288 102.50470673330769 A 0.5625 0.5625 0 0 0 30.9036 102.309A 106.875 106.875 0 0 1 30.7291 102.362A 0.5625 0.5625 0 0 0 30.2987 102.881C 30.293096357712518 103.13770302934064 30.28422647991519 103.40361553064858 30.271667527797213 103.67889729487902 C 30.238343589629242 104.40927530957585 30.17907245753327 105.20546874492743 30.085520487557336 106.06568206348764 A 110.25 110.25 0 0 1 28.9036 106.394C 28.3799304022449 105.7049980776722 27.918662910714357 105.05333147974498 27.51355985248272 104.4446821213958 C 27.360876048875788 104.2152797824534 27.216183614712516 103.99200364718611 27.079140294844613 103.77515482725155 A 0.5625 0.5625 0 0 0 26.4427 103.552A 106.875 106.875 0 0 1 26.2661 103.597A 0.5625 0.5625 0 0 0 25.8136 104.097C 25.796863617082213 104.35314705665459 25.77648306746442 104.61842571444909 25.752011041665746 104.89290503416088 C 25.687079319812963 105.62115389320888 25.59337371865617 106.41403239204003 25.462646197459353 107.2693856756115 A 110.25 110.25 0 0 1 24.2676 107.546C 23.774281526213198 106.83515622747647 23.34167640981398 106.16411981500534 22.963319552111592 105.53849323513755 C 22.82071649569906 105.3026921636855 22.685831927746005 105.07335772141374 22.55831087059675 104.85077591126078 A 0.5625 0.5625 0 0 0 21.9321 104.6A 106.875 106.875 0 0 1 21.7537 104.638A 0.5625 0.5625 0 0 0 21.28 105.118C 21.2521999604723 105.37267895401642 21.220347001386422 105.63682573533593 21.184007845578453 105.90998730428605 C 21.087590242564062 106.63473979654562 20.95962609482152 107.42281481232105 20.791968449665415 108.27170222448797 A 110.25 110.25 0 0 1 19.5861 108.496C 19.12399892074203 107.76474253445049 18.72086835037816 107.07559610818463 18.369968018671617 106.4341668553315 C 18.237713431791597 106.19240974324309 18.112889961731273 105.95744754541953 17.995130574761056 105.72955061913962 A 0.5625 0.5625 0 0 0 17.3803 105.452A 106.875 106.875 0 0 1 17.2005 105.482A 0.5625 0.5625 0 0 0 16.7065 105.941C 16.667637519035477 106.19438465681769 16.62437195108395 106.45690365368041 16.57623388823471 106.72823463956529 C 16.448511418033892 107.44813011796009 16.28652896302227 108.22992212218202 16.082255953617455 109.07074996552655 A 110.25 110.25 0 0 1 14.8677 109.243C 14.437813005524674 108.49201179743349 14.06491381671972 107.78604915778072 13.742128789716945 107.13002144834284 C 13.620470966537297 106.88276216933532 13.505942937392193 106.64261333293562 13.39816630154561 106.4098291431954 A 0.5625 0.5625 0 0 0 12.796 106.106A 106.875 106.875 0 0 1 12.6151 106.128A 0.5625 0.5625 0 0 0 12.1016 106.565C 12.051783329724024 106.8167214984597 11.997186379489946 107.07711985887912 11.93733978378259 107.34611086612352 C 11.778552231987685 108.05979780211331 11.582855574841053 108.83383906198164 11.342350702418617 109.6650287700843 A 110.25 110.25 0 0 1 10.1215 109.784C 9.724521604967004 109.01559864437509 9.382553876984474 108.29414516242676 9.088490149846518 107.62475061988161 C 8.977657490218483 107.3724533774157 8.873639916396524 107.12756875678757 8.776048371046015 106.89033433158008 A 0.5625 0.5625 0 0 0 8.18757 106.561A 106.875 106.875 0 0 1 8.00589 106.575A 0.5625 0.5625 0 0 0 7.47393 106.989C 7.413303176477168 107.23852110654897 7.34747734402988 107.49630995981187 7.276034571194599 107.76245598590607 C 7.086480044842714 108.46859450684019 6.857436585586924 109.2334318407675 6.581151372914978 110.05342294180065 A 110.25 110.25 0 0 1 5.3563 110.12C 4.992973431191348 109.33452009567866 4.682579172709021 108.59893022496394 4.417788819357468 107.91742556762149 C 4.317989400018821 107.66056402340789 4.224677563646269 107.41140336383907 4.137454326721093 107.17016408600952 A 0.5625 0.5625 0 0 0 3.5638 106.816A 106.875 106.875 0 0 1 3.38169 106.821A 0.5625 0.5625 0 0 0 2.83228 107.213C 2.7609053211173755 107.4589915963943 2.6839741875792904 107.71368697086453 2.6010693639571736 107.97648835445356 C 2.381103731865373 108.67375275904192 2.1191434756628915 109.42795026485007 1.8075966193597517 110.2352033112007 A 110.25 110.25 0 0 1 0.581014 110.248C 0.25205147150422724 109.44817740964285 -0.02618658469005619 108.69983214328371 -0.2612064480341907 108.0074968249291 C -0.34978526410147914 107.74655320967813 -0.43221617980179494 107.49358428427266 -0.5089073557880912 107.24879305535859 A 0.5625 0.5625 0 0 0 -1.06666 106.87A 106.875 106.875 0 0 1 -1.24886 106.868A 0.5625 0.5625 0 0 0 -1.8147 107.235C -1.8966758455014918 107.47771905768752 -1.9845678499655324 107.7288427894121 -2.07877907923069 107.98780614835786 C -2.3287428545719138 108.67488739553657 -2.6231281047117556 109.41702914621297 -2.969351707976275 110.21002860463476 A 110.25 110.25 0 0 1 -4.19536 110.17C -4.489343688484324 109.35635720653653 -4.7349031795125835 108.5966614845775 -4.939711327612615 107.89479529243022 C -5.016903242936799 107.63025950051404 -5.0882984825336885 107.3739572319972 -5.154313617911494 107.12607362195311 A 0.5625 0.5625 0 0 0 -5.69512 106.723A 106.875 106.875 0 0 1 -5.87707 106.713A 0.5625 0.5625 0 0 0 -6.45827 107.055C -6.550696201400186 107.29466833157683 -6.649384068735455 107.54174896198884 -6.754724831904646 107.7963881196435 C -7.034217469625295 108.47199628616269 -7.360475036155071 109.20068898811529 -7.740725387742035 109.97794608498397 A 110.25 110.25 0 0 1 -8.96385 109.885C -9.222310574780055 109.05923186919686 -9.434730488355898 108.28961194097687 -9.608942415313752 107.57953255547613 C -9.674602510139433 107.31190122520329 -9.734828036530498 107.05274679430367 -9.790043194780926 106.80223617870664 A 0.5625 0.5625 0 0 0 -10.3129 106.376A 106.875 106.875 0 0 1 -10.4942 106.359A 0.5625 0.5625 0 0 0 -11.0897 106.675C -11.192418309649613 106.91018307667393 -11.301716763696884 107.15275673770672 -11.4179892944941 107.40259363565845 C -11.726486076370463 108.06546033777843 -12.084003444799 108.77933594659893 -12.49756666440489 109.53939146292912 A 110.25 110.25 0 0 1 -13.7155 109.394C -13.93796353659202 108.55735921939873 -14.116845076523024 107.77925996591702 -14.26013371764889 107.06230048691434 C -14.314138722008721 106.79207606814315 -14.363081468061003 106.53055601022628 -14.407392988493758 106.2778886965817 A 0.5625 0.5625 0 0 0 -14.9113 105.83A 106.875 106.875 0 0 1 -15.0917 105.804A 0.5625 0.5625 0 0 0 -15.7003 106.095C -15.81312782199553 106.32498512387079 -15.932831666327704 106.56259640882183 -16.059817675225453 106.8071620043997 C -16.396739430783757 107.4560427791488 -16.784845399608088 108.15376106797304 -17.23094506550046 108.89518807894947 A 110.25 110.25 0 0 1 -18.4414 108.697C -18.627449428213296 107.85168147060249 -18.77245676309921 107.06656369190544 -18.884553108941304 106.34407013590904 C -18.926801634082477 106.07175994675055 -18.964369714904187 105.80836523839946 -18.997694407269677 105.55401558318803 A 0.5625 0.5625 0 0 0 -19.4817 105.084A 106.875 106.875 0 0 1 -19.6608 105.051A 0.5625 0.5625 0 0 0 -20.2815 105.315C -20.40414983913704 105.5401731211777 -20.53403434229399 105.77237593968698 -20.671495426329074 106.01121108653943 C -21.036209620177523 106.6448877280633 -21.45417556099358 107.32513880370716 -21.93197416766177 108.04654535758694 A 110.25 110.25 0 0 1 -23.1327 107.796C -23.281964229877193 106.94352345904666 -23.392825123598286 106.15286113172844 -23.47351872498001 105.42618990489781 C -23.50393145371103 105.15230517927904 -23.530054339155846 104.8875303165371 -23.55232963982618 104.63197583465998 A 0.5625 0.5625 0 0 0 -24.0155 104.142A 106.875 106.875 0 0 1 -24.1931 104.101A 0.5625 0.5625 0 0 0 -24.8246 104.337C -24.956865196943408 104.5572204711263 -25.09668651434182 104.78357888666447 -25.244364604691988 105.0162351967587 C -25.63618652403987 105.63351804337444 -26.08322774946618 106.29502480552146 -26.59182827995036 106.99505653687794 A 110.25 110.25 0 0 1 -27.7806 106.693C -27.892769576384264 105.8345901565064 -27.969275899196205 105.03986766647185 -28.01841526231248 104.31038301810698 C -28.036935097912917 104.03543794598262 -28.051563744992936 103.76978001598883 -28.062747834418612 103.51350048428341 A 0.5625 0.5625 0 0 0 -28.5043 103.004A 106.875 106.875 0 0 1 -28.6799 102.955A 0.5625 0.5625 0 0 0 -29.321 103.164C -29.462726648034305 103.37797256461033 -29.612222279760406 103.59806161290396 -29.769840126241608 103.82410229832753 C -30.188034166376024 104.42383246598925 -30.663311403222263 105.06535300481299 -31.201759013169085 105.74269567721544 A 110.25 110.25 0 0 1 -32.3763 105.389C -32.45120916247011 104.52696346938698 -32.49321728174581 103.72967282507224 -32.51071015257684 102.99874428637808 C -32.517302325990464 102.72325504839262 -32.52040927094931 102.45721279615248 -32.52048115217103 102.20068935266139 A 0.5625 0.5625 0 0 0 -32.9395 101.672A 106.875 106.875 0 0 1 -33.1128 101.616A 0.5625 0.5625 0 0 0 -33.7624 101.797C -33.91327490834351 102.00464331635709 -34.07216419196923 102.21804980321467 -34.239425883543866 102.43705049619923 C -34.683206928850694 103.01810205418172 -35.185827893765435 103.63843198190169 -35.75311170404851 104.29181395525684 A 110.25 110.25 0 0 1 -36.9112 103.888C -36.94872499411383 103.02309833016231 -36.95615604399869 102.2247363614448 -36.9419695815073 101.49373617437952 C -36.93662171661732 101.21821997279194 -36.92820112649048 100.95229286483584 -36.91716066455876 100.69600710552064 A 0.5625 0.5625 0 0 0 -37.3129 100.15A 106.875 106.875 0 0 1 -37.4836 100.086A 0.5625 0.5625 0 0 0 -38.1405 100.239C -38.30015453854101 100.43981100853382 -38.468139176038356 100.64613428557465 -38.64473069635733 100.85768383520208 C -39.113265594293786 101.41896591991811 -39.64228666893323 102.01694063191202 -40.23734166347308 102.64513524983543 A 110.25 110.25 0 0 1 -41.3769 102.191C -41.37687345527778 101.32581808849547 -41.349713484752094 100.52788363655223 -41.3038743225393 99.79818417758635 C -41.28659645940325 99.523158265277 -41.26666414296882 99.25784555196394 -41.244532065197355 99.00227862655898 A 0.5625 0.5625 0 0 0 -41.6163 98.4396A 106.875 106.875 0 0 1 -41.784 98.3685A 0.5625 0.5625 0 0 0 -42.4469 98.4928C -42.615129630497144 98.68641345029235 -42.79189424826159 98.8852661671221 -42.97748406519718 99.08896741121733 C -43.46989319044864 99.62942627420006 -44.024321193021485 100.2039231354273 -44.64603021824193 100.80575102816259 A 110.25 110.25 0 0 1 -45.7648 100.303C -45.72734115991425 99.43830921069484 -45.66564115898479 98.64230031408488 -45.588235355288 97.91527151770778 C -45.55905993128861 97.64125222709015 -45.52765330938802 97.37705200531738 -45.49447116644027 97.12268371402143 A 0.5625 0.5625 0 0 0 -45.8415 96.5444A 106.875 106.875 0 0 1 -46.006 96.4661A 0.5625 0.5625 0 0 0 -46.6736 96.5616C -46.850099269339715 96.74774246233929 -47.035312010271184 96.93875129375984 -47.22955169833399 97.13422180452142 C -47.74491060421862 97.65284279072704 -48.32370465408109 98.20278324335868 -48.97090051624839 98.77711454192098 A 110.25 110.25 0 0 1 -50.0669 98.2262C -49.9919605594793 97.36411529745655 -49.89583636345091 96.57152637970991 -49.78700923957858 95.84853316652104 C -49.74599102852592 95.57603494018154 -49.70316906381017 95.31344321825972 -49.6589991516924 95.06075111096125 A 0.5625 0.5625 0 0 0 -49.9806 94.468A 106.875 106.875 0 0 1 -50.1416 94.3826A 0.5625 0.5625 0 0 0 -50.8127 94.4491C -50.9971127420751 94.62743769688682 -51.190425888604985 94.81024404377527 -51.392950783076394 94.99711684574355 C -51.930291937097174 95.4929262984601 -52.53236540889766 96.01727788675848 -53.20383306540476 96.56303434414548 A 110.25 110.25 0 0 1 -54.2749 95.9651C -54.16272527665157 95.10713043112443 -54.03235734865847 94.31944949511816 -53.89231321616456 93.6018492093312 C -53.83952922546397 93.33138363421702 -53.785372311697444 93.07089340066638 -53.73029755480442 92.82035188039359 A 0.5625 0.5625 0 0 0 -54.026 92.2142A 106.875 106.875 0 0 1 -54.1831 92.122A 0.5625 0.5625 0 0 0 -54.8565 92.1593C -55.04838446422118 92.32947980458576 -55.24943509111577 92.50374046712689 -55.45986497266781 92.68166472614213 C -56.01817957295376 93.15373181492828 -56.64240213665838 93.65151012357475 -57.336880977140474 94.16766713906267 A 110.25 110.25 0 0 1 -58.381 93.5239C -58.231805136469255 92.67159186495729 -58.06743822867437 91.89029769934561 -57.896440005784704 91.17943756051655 C -57.83198933186344 90.91151240748455 -57.76659914299298 90.65361270550048 -57.70072293842613 90.4056921377791 A 0.5625 0.5625 0 0 0 -57.9699 89.7873A 106.875 106.875 0 0 1 -58.1228 89.6884A 0.5625 0.5625 0 0 0 -58.7972 89.6964C -58.996308596428676 89.85818296126997 -59.20471925214334 90.02357078327803 -59.42265906066079 90.19221246513489 C -60.00089892988703 90.63965093335673 -60.646098672856155 91.10992143558867 -61.362284885854905 91.59550997831312 A 110.25 110.25 0 0 1 -62.3776 90.9071C -62.19156086666531 90.0620720681287 -61.99350356076367 89.28863147107171 -61.79187227877448 88.58584604483487 C -61.715875921038496 88.32096431536492 -61.63937522031122 88.0661393246905 -61.562821243761356 87.82130515448169 A 0.5625 0.5625 0 0 0 -61.8049 87.1919A 106.875 106.875 0 0 1 -61.9535 87.0864A 0.5625 0.5625 0 0 0 -62.6275 87.0652C -62.83347332364996 87.21818676854205 -63.04885273895501 87.37439125166223 -63.27389331521947 87.53343374922402 C -63.8709728684506 87.95540357790942 -64.53593849558241 88.39728338999649 -65.27248751631576 88.85139181820665 A 110.25 110.25 0 0 1 -66.257 88.1197C -66.03455843960317 87.28347014139379 -65.80318256749199 86.5193351667972 -65.57129676806717 85.82594385935776 C -65.48389740173742 85.56460284121998 -65.39642981122554 85.31333096914905 -65.30934178478465 85.0720428470252 A 0.5625 0.5625 0 0 0 -65.5239 84.4327A 106.875 106.875 0 0 1 -65.6678 84.3209A 0.5625 0.5625 0 0 0 -66.3403 84.2705C -66.55267477004715 84.41444754340601 -66.77461859259489 84.56117543004274 -67.00633744643844 84.71032015763834 C -67.62113572920092 85.10602914252469 -68.30461883701138 85.51868868129081 -69.06014787165337 85.94046445386157 A 110.25 110.25 0 0 1 -70.012 85.1668C -69.75358302888655 84.34100261953954 -69.48932297458973 83.58760785097532 -69.22761799908841 82.9049124320619 C -69.128979707343 82.64760276571087 -69.03070943830842 82.40035574892836 -68.93325086064648 82.16306666812703 A 0.5625 0.5625 0 0 0 -69.1199 81.515A 106.875 106.875 0 0 1 -69.2588 81.3971A 0.5625 0.5625 0 0 0 -69.9285 81.3177C -70.14693052351633 81.4522290133001 -70.37502207697041 81.58920483717752 -70.61298418045679 81.72817179116467 C -71.24434697321372 82.0968770299797 -71.94506439358368 82.47954157025876 -72.71815501531547 82.86819284724763 A 110.25 110.25 0 0 1 -73.6356 82.054C -73.34165255444232 81.24019367788588 -73.04500443859983 80.49895353531129 -72.75397161076852 79.82823569423951 C -72.64427957669368 79.57544045168804 -72.53539112129842 79.33268247063361 -72.42774496071178 79.09983791661016 A 0.5625 0.5625 0 0 0 -72.5862 78.4443A 106.875 106.875 0 0 1 -72.7198 78.3204A 0.5625 0.5625 0 0 0 -73.3855 78.2121C -73.6094927444368 78.33709243399845 -73.84330381073839 78.46405903731957 -74.0870624148825 78.59258732176254 C -74.7338043999603 78.93359660894559 -75.45044060914951 79.2855477380471 -76.23964142110746 79.64034486729089 A 110.25 110.25 0 0 1 -77.121 78.7872C -76.79203079064628 77.9868647612236 -76.46355153909944 77.25917084555566 -76.14373724266295 76.60168978499017 C -76.02319740159116 76.3538835628921 -75.90389518653271 76.11607037030991 -75.78626353744012 75.88810748438506 A 0.5625 0.5625 0 0 0 -75.9162 75.2263A 106.875 106.875 0 0 1 -76.0443 75.0968A 0.5625 0.5625 0 0 0 -76.7046 74.9597C -76.93386083403489 75.07488614893444 -77.17295245733747 75.19160516516797 -77.42204993082983 75.30945348164238 C -78.08295691772827 75.62212660788815 -78.81416650613386 75.94270357434186 -79.6179958662555 76.26298046130245 A 110.25 110.25 0 0 1 -80.4616 75.3724C -80.09824001288297 74.58712365465999 -79.73854631110444 73.87434213519013 -79.3905509639876 73.2313322071233 C -79.25938961687554 72.98898023576783 -79.129897619597 72.75655830107834 -79.00250132312856 72.53390505975105 A 0.5625 0.5625 0 0 0 -79.1036 71.8671A 106.875 106.875 0 0 1 -79.226 71.7322A 0.5625 0.5625 0 0 0 -79.8798 71.5666C -80.11379363857876 71.67173460954697 -80.35771694934175 71.77798691093568 -80.61168563770357 71.88493401154109 C -81.28551684261157 72.16868396572562 -82.02992704063388 72.45728491977343 -82.84687584328607 72.74244027806064 A 110.25 110.25 0 0 1 -83.6511 71.8162C -83.25407315879664 71.04735301689064 -82.86384029412787 70.35082206644458 -82.48831722123356 69.72349045482956 C -82.34678060980562 69.48704772472007 -82.20734193800155 69.26045339582038 -82.0704201673925 69.04352780728664 A 0.5625 0.5625 0 0 0 -82.1426 68.373A 106.875 106.875 0 0 1 -82.259 68.2328A 0.5625 0.5625 0 0 0 -82.905 68.0391C -83.14332116649251 68.13402687726298 -83.39161822418704 68.2296129862131 -83.64998132774261 68.3254580889428 C -84.33547170298019 68.57975216017556 -85.09168495825432 68.83583528368159 -85.92021946742139 69.0853337639055 A 110.25 110.25 0 0 1 -86.6835 68.1251C -86.25360548140242 67.37419839742462 -85.83356607527216 66.69522568008273 -85.4312202819321 66.08475013447172 C -85.27957412638737 65.85466054212857 -85.13045056159442 65.6343192261948 -84.98426037316239 65.42352854558098 A 0.5625 0.5625 0 0 0 -85.0273 64.7505A 106.875 106.875 0 0 1 -85.1376 64.6054A 0.5625 0.5625 0 0 0 -85.7745 64.3839C -86.01675579639162 64.46840462870199 -86.26896044923589 64.55314509228157 -86.5312329182541 64.63770825796983 C -87.22709552726725 64.86206903570275 -87.99369212842161 65.0851535593602 -88.83225685713445 65.29852675419379 A 110.25 110.25 0 0 1 -89.5533 64.3061C -89.09120567217953 63.57455576025957 -88.64214830468374 62.91441597635418 -88.21373515308464 62.32194260079674 C -88.05226415323497 62.09863811538797 -87.89373565936442 61.88496348021776 -87.73855150991308 61.68070344500163 A 0.5625 0.5625 0 0 0 -87.7524 61.0064A 106.875 106.875 0 0 1 -87.8563 60.8567A 0.5625 0.5625 0 0 0 -88.4831 60.6079C -88.72870295499781 60.68174968662224 -88.98434171510847 60.75548541346525 -89.25003116043307 60.828607883604334 C -89.95495959388259 61.02261415392022 -90.73050033589865 61.21228125984557 -91.57752096649904 61.389128583410475 A 110.25 110.25 0 0 1 -92.2549 60.3664C -91.7615464332649 59.65555853742981 -91.28431416268998 59.01549103042856 -90.83063795375996 58.442132131780966 C -90.65964525453579 58.226031984145294 -90.49200945227058 58.01942518153976 -90.32812268382563 57.822079268594734 A 0.5625 0.5625 0 0 0 -90.3127 57.1479A 106.875 106.875 0 0 1 -90.41 56.9938A 0.5625 0.5625 0 0 0 -91.0255 56.718C -91.27407124488658 56.78117110001768 -91.53266417720269 56.843763659001475 -91.80127179466142 56.90530815379412 C -92.51394262307006 57.06859569019176 -93.29697150923931 57.22448929821157 -94.15085784899675 57.36447873813622 A 110.25 110.25 0 0 1 -94.7833 56.3134C -94.25961447889802 55.62456423673326 -93.75510325896694 55.005770666501185 -93.27701572238458 54.45260266618654 C -93.096822344712 54.244112561771296 -92.92039395275495 54.044961474414414 -92.74811224559998 53.854900180071766 A 0.5625 0.5625 0 0 0 -92.7035 53.182A 106.875 106.875 0 0 1 -92.7941 53.0238A 0.5625 0.5625 0 0 0 -93.397 52.7216C -93.64808200305399 52.77399179762121 -93.90914362636497 52.825323677756465 -94.18016513322229 52.87517465384435 C -94.89924039157525 53.00743690103575 -95.68828736698103 53.12926433718996 -96.54743633351342 53.23213307792809 A 110.25 110.25 0 0 1 -97.1337 52.1547C -96.58071994734121 51.48914062877912 -96.04987694515405 50.89278271558786 -95.54827564031487 50.360844128727386 C -95.35921987843247 50.16035548591889 -95.17433012265482 49.969033999168275 -94.99397691769366 49.78661414364902 A 0.5625 0.5625 0 0 0 -94.9203 49.1162A 106.875 106.875 0 0 1 -95.0039 48.9543A 0.5625 0.5625 0 0 0 -95.5931 48.6263C -95.84627827235708 48.66773483987114 -96.10931847074295 48.70770967091648 -96.38224505243824 48.74577353830081 C -97.10637475207264 48.84676218773669 -97.8999584634645 48.93429473374342 -98.76275709435795 48.999849649982856 A 110.25 110.25 0 0 1 -99.3018 47.898C -98.72050520560502 47.257051539289414 -98.1643270234317 46.68424888280879 -97.64015365437425 46.174538368518114 C -97.44259044072086 45.98242758379461 -97.24958643232036 45.79929488375084 -97.06150032385057 45.62485894127304 A 0.5625 0.5625 0 0 0 -96.9588 44.9583A 106.875 106.875 0 0 1 -97.0353 44.7929A 0.5625 0.5625 0 0 0 -97.6098 44.4397C -97.8645331689853 44.47010929515119 -98.12905811195813 44.498652028538196 -98.4033773773518 44.5248573262852 C -99.13120204041942 44.594382782328324 -99.92783261729916 44.647456104978545 -100.7926610982762 44.67557412421374 A 110.25 110.25 0 0 1 -101.283 43.5514C -100.67495303044889 42.93624227332727 -100.09448383471249 42.388070250693815 -99.54872248216739 41.90154473720493 C -99.34302272103372 41.71817247849146 -99.14226680486951 41.54357237766372 -98.94680090490702 41.37744783348292 A 0.5625 0.5625 0 0 0 -98.8154 40.716A 106.875 106.875 0 0 1 -98.8846 40.5474A 0.5625 0.5625 0 0 0 -99.4433 40.1696C -99.69905763025353 40.1889957668203 -99.96457069987257 40.20605281654942 -100.2397676432069 40.2203503469507 C -100.96992085495172 40.25828208282193 -101.76810270664957 40.27679654249789 -102.63333741260132 40.26742487608571 A 110.25 110.25 0 0 1 -103.075 39.123C -102.4403941502979 38.53482469881702 -101.8367237112614 38.012312445725875 -101.27039898514255 37.5498853338543 C -101.05694885633694 37.37559586340641 -100.84881793066508 37.20985615524039 -100.64633920601322 37.05235489083027 A 0.5625 0.5625 0 0 0 -100.486 36.3972A 106.875 106.875 0 0 1 -100.548 36.2258A 0.5625 0.5625 0 0 0 -101.09 35.8242C -101.34640752817145 35.83243159820312 -101.6124102513914 35.83797094144575 -101.88796821916004 35.840333862381904 C -102.61907919321925 35.84660066521054 -103.41731381670901 35.83052150294874 -104.28133035988165 35.78367774521366 A 110.25 110.25 0 0 1 -104.673 34.6212C -104.01351413391684 34.06106201735972 -103.38777577975324 33.56519049596982 -102.80195089555981 33.12772994430002 C -102.58115112939618 32.96285047238733 -102.36603593828241 32.806282315867314 -102.15692452159014 32.65770002339483 A 0.5625 0.5625 0 0 0 -101.969 32.0101A 106.875 106.875 0 0 1 -102.023 31.8362A 0.5625 0.5625 0 0 0 -102.547 31.4114C -102.80349013543398 31.40859578331777 -103.06948311993605 31.402607020535754 -103.344884780847 31.39303089586961 C -104.07558093275907 31.36762100038816 -104.87236972594107 31.31697840313566 -105.73354600555412 31.23275049833822 A 110.25 110.25 0 0 1 -106.074 30.0544C -105.39135961290862 29.523353250935482 -104.74472810199572 29.055053408215652 -104.14050288473615 28.64338070322403 C -103.91276800970451 28.48822077382713 -103.69107240944322 28.341118109307494 -103.47572088554575 28.201733736501698 A 0.5625 0.5625 0 0 0 -103.26 27.5629A 106.875 106.875 0 0 1 -103.306 27.3868A 0.5625 0.5625 0 0 0 -103.811 26.9398C -104.06756993169347 26.925793611669178 -104.33305380344235 26.908287986138884 -104.60778211965342 26.886790794043925 C -105.33669164374209 26.829751904676115 -106.13053871891194 26.74464094861772 -106.98725796648297 26.623187025848374 A 110.25 110.25 0 0 1 -107.277 25.4312C -106.57134382635459 24.930217473617425 -105.90503314178895 24.490368493590665 -105.2835419611744 24.105256507766008 C -105.04929952570707 23.960107417440003 -104.82143972662325 23.82274641480293 -104.60025239550505 23.692821641259773 A 0.5625 0.5625 0 0 0 -104.357 23.0639A 106.875 106.875 0 0 1 -104.396 22.886A 0.5625 0.5625 0 0 0 -104.881 22.4175C -105.13627373921364 22.3924410759357 -105.40075007997999 22.36345145263994 -105.67428927778326 22.33007355184812 C -106.40004372257931 22.24151275314887 -107.18945871480085 22.122093225211508 -108.04011252945939 21.963641301519782 A 110.25 110.25 0 0 1 -108.278 20.7602C -107.5512514771882 20.290277817900005 -106.86651254765866 19.8797054710674 -106.22892218844237 19.521877211923535 C -105.98861195823645 19.38701146291918 -105.75501574329425 19.259650003094542 -105.5284078610581 19.139428749000786 A 0.5625 0.5625 0 0 0 -105.258 18.5217A 106.875 106.875 0 0 1 -105.289 18.3422A 0.5625 0.5625 0 0 0 -105.754 17.8531C -106.00759517826252 17.817049071822492 -106.2705674613511 17.776629875749936 -106.54240399948429 17.73143392978241 C -107.26364083685024 17.611517485397737 -108.0471417019599 17.458013583267206 -108.89013307005202 17.262861135583513 A 110.25 110.25 0 0 1 -109.075 16.0503C -108.32924289118358 15.612245285669085 -107.62736124248335 15.231720378711946 -106.97486871394423 14.901847631416668 C -106.7289418463474 14.777518420085872 -106.4900477680324 14.660395610906757 -106.2584447672994 14.550103579105285 A 0.5625 0.5625 0 0 0 -105.961 13.9447A 106.875 106.875 0 0 1 -105.985 13.764A 0.5625 0.5625 0 0 0 -106.428 13.2553C -106.67989843388087 13.208207419743934 -106.94087295630766 13.156434533711893 -107.21049649007404 13.099505393234775 C -107.92586167320827 12.948458433759189 -108.70197747019823 12.76115834497244 -109.53572376351276 12.529671751626225 A 110.25 110.25 0 0 1 -109.668 11.3102C -108.90385747075165 10.904902394205884 -108.18615081233797 10.555139322876755 -107.51998110102076 10.253841389045384 C -107.26889929803053 10.140282130491515 -107.02515585501321 10.033617857794235 -106.7889925462175 9.933462110050566 A 0.5625 0.5625 0 0 0 -106.466 9.34145A 106.875 106.875 0 0 1 -106.482 9.15992A 0.5625 0.5625 0 0 0 -106.902 8.63249C -107.15192132695387 8.574568738333417 -107.4104081363217 8.511539360525768 -107.67731247570903 8.4429839040519 C -108.38546298122728 8.261090004369228 -109.15273663378345 8.040345365272346 -109.97567258077113 7.772959218155063 A 110.25 110.25 0 0 1 -110.055 6.54889C -109.27401643705956 6.177086687928539 -108.54183218819193 5.858742095847814 -107.86323595812293 5.586584630869114 C -107.60747059958939 5.484008520734532 -107.35933539471574 5.388003035545944 -107.11905514979337 5.298171603811399 A 0.5625 0.5625 0 0 0 -106.771 4.72071A 106.875 106.875 0 0 1 -106.779 4.53867A 0.5625 0.5625 0 0 0 -107.176 3.99353C -107.42277768382048 3.9248322000557687 -107.67829149815353 3.850664661543538 -107.94197555815292 3.770611594779227 C -108.64158190747422 3.5582122416804025 -109.39857293948478 3.3044374772681397 -110.20915356389206 3.0016537659323657 A 110.25 110.25 0 0 1 -110.236 1.77529C -109.43902485532524 1.4376741468257066 -108.69373761542646 1.1513456927018404 -108.00398886012248 0.9088396437791322 C -107.74402011878189 0.8174392579926493 -107.49195899997194 0.7322728005797776 -107.24801291997638 0.6529343339811349 A 0.5625 0.5625 0 0 0 -106.875 0.0911053A 106.875 106.875 0 0 1 -106.875 -0.0911053A 0.5625 0.5625 0 0 0 -107.248 -0.652934C -107.49195899997194 -0.7322728005797994 -107.74402011878189 -0.8174392579926706 -108.00398886012248 -0.9088396437791539 C -108.69373761542646 -1.1513456927018622 -109.43902485532524 -1.4376741468257284 -110.23572837672567 -1.7752869775992102 A 110.25 110.25 0 0 1 -110.209 -3.00165C -109.39857293948478 -3.3044374772681615 -108.64158190747422 -3.5582122416804243 -107.94197555815292 -3.7706115947792487 C -107.67829149815353 -3.850664661543559 -107.42277768382048 -3.9248322000557905 -107.17562375202748 -3.9935287518374056 A 0.5625 0.5625 0 0 0 -106.779 -4.53867A 106.875 106.875 0 0 1 -106.771 -4.72071A 0.5625 0.5625 0 0 0 -107.119 -5.29817C -107.35933539471574 -5.388003035545966 -107.60747059958939 -5.4840085207345535 -107.86323595812293 -5.586584630869135 C -108.54183218819193 -5.858742095847834 -109.27401643705956 -6.17708668792856 -110.05534712783766 -6.548894805326447 A 110.25 110.25 0 0 1 -109.976 -7.77296C -109.15273663378345 -8.040345365272367 -108.38546298122728 -8.26109000436925 -107.67731247570903 -8.442983904051921 C -107.4104081363217 -8.51153936052579 -107.15192132695387 -8.574568738333438 -106.90202354904575 -8.632494404700019 A 0.5625 0.5625 0 0 0 -106.482 -9.15992A 106.875 106.875 0 0 1 -106.466 -9.34145A 0.5625 0.5625 0 0 0 -106.789 -9.93346C -107.02515585501321 -10.033617857794257 -107.26889929803053 -10.140282130491535 -107.51998110102076 -10.253841389045405 C -108.18615081233797 -10.555139322876776 -108.90385747075165 -10.904902394205903 -109.66834846417511 -11.31020776733725 A 110.25 110.25 0 0 1 -109.536 -12.5297C -108.70197747019823 -12.76115834497246 -107.92586167320827 -12.94845843375921 -107.21049649007404 -13.099505393234796 C -106.94087295630766 -13.156434533711913 -106.67989843388087 -13.208207419743955 -106.42772596682435 -13.255253451309432 A 0.5625 0.5625 0 0 0 -105.985 -13.764A 106.875 106.875 0 0 1 -105.961 -13.9447A 0.5625 0.5625 0 0 0 -106.258 -14.5501C -106.4900477680324 -14.660395610906782 -106.7289418463474 -14.777518420085897 -106.97486871394423 -14.901847631416693 C -107.62736124248335 -15.231720378711971 -108.32924289118358 -15.61224528566911 -109.07545893529236 -16.05028699604539 A 110.25 110.25 0 0 1 -108.89 -17.2629C -108.0471417019599 -17.45801358326723 -107.26364083685024 -17.611517485397762 -106.54240399948429 -17.731433929782433 C -106.2705674613511 -17.77662987574996 -106.00759517826252 -17.817049071822517 -105.7536214495155 -17.853127144578366 A 0.5625 0.5625 0 0 0 -105.289 -18.3422A 106.875 106.875 0 0 1 -105.258 -18.5217A 0.5625 0.5625 0 0 0 -105.528 -19.1394C -105.75501574329425 -19.259650003094563 -105.98861195823645 -19.3870114629192 -106.22892218844237 -19.52187721192356 C -106.86651254765866 -19.879705471067425 -107.5512514771882 -20.29027781790003 -108.27779162933008 -20.760233487980095 A 110.25 110.25 0 0 1 -108.04 -21.9636C -107.18945871480085 -22.122093225211533 -106.40004372257931 -22.241512753148896 -105.67428927778326 -22.330073551848145 C -105.40075007997999 -22.36345145263996 -105.13627373921364 -22.39244107593572 -104.8809755579147 -22.417483457070073 A 0.5625 0.5625 0 0 0 -104.396 -22.886A 106.875 106.875 0 0 1 -104.357 -23.0639A 0.5625 0.5625 0 0 0 -104.6 -23.6928C -104.82143972662325 -23.82274641480295 -105.04929952570707 -23.960107417440028 -105.2835419611744 -24.105256507766033 C -105.90503314178895 -24.49036849359069 -106.57134382635459 -24.93021747361745 -107.2768440833086 -25.431204810735426 A 110.25 110.25 0 0 1 -106.987 -26.6232C -106.13053871891194 -26.744640948617747 -105.33669164374209 -26.82975190467614 -104.60778211965342 -26.88679079404395 C -104.33305380344235 -26.90828798613891 -104.06756993169347 -26.9257936116692 -103.81142659350236 -26.9397532867281 A 0.5625 0.5625 0 0 0 -103.306 -27.3868A 106.875 106.875 0 0 1 -103.26 -27.5629A 0.5625 0.5625 0 0 0 -103.476 -28.2017C -103.69107240944322 -28.34111810930752 -103.9127680097045 -28.488220773827155 -104.14050288473614 -28.643380703224054 C -104.7447281019957 -29.055053408215677 -105.3913596129086 -29.523353250935507 -106.0744954716586 -30.054431703713103 A 110.25 110.25 0 0 1 -105.734 -31.2328C -104.87236972594106 -31.316978403135685 -104.07558093275905 -31.367621000388183 -103.34488478084698 -31.393030895869636 C -103.06948311993604 -31.40260702053578 -102.80349013543395 -31.408595783317796 -102.54698252270427 -31.41144654446994 A 0.5625 0.5625 0 0 0 -102.023 -31.8362A 106.875 106.875 0 0 1 -101.969 -32.0101A 0.5625 0.5625 0 0 0 -102.157 -32.6577C -102.36603593828241 -32.80628231586734 -102.58115112939618 -32.96285047238735 -102.80195089555981 -33.12772994430004 C -103.38777577975324 -33.56519049596985 -104.01351413391684 -34.06106201735974 -104.6730030782675 -34.621234541493166 A 110.25 110.25 0 0 1 -104.281 -35.7837C -103.41731381670901 -35.83052150294876 -102.61907919321925 -35.846600665210566 -101.88796821916004 -35.840333862381925 C -101.6124102513914 -35.83797094144577 -101.34640752817145 -35.83243159820315 -101.09001720714413 -35.82416809344234 A 0.5625 0.5625 0 0 0 -100.548 -36.2258A 106.875 106.875 0 0 1 -100.486 -36.3972A 0.5625 0.5625 0 0 0 -100.646 -37.0524C -100.84881793066508 -37.209856155240416 -101.05694885633694 -37.37559586340643 -101.27039898514253 -37.54988533385432 C -101.83672371126139 -38.012312445725904 -102.44039415029789 -38.53482469881704 -103.0749980586648 -39.123039628923514 A 110.25 110.25 0 0 1 -102.633 -40.2674C -101.76810270664956 -40.27679654249791 -100.96992085495171 -40.25828208282196 -100.23976764320689 -40.220350346950724 C -99.96457069987257 -40.206052816549445 -99.69905763025353 -40.18899576682033 -99.44326594696659 -40.16963351001331 A 0.5625 0.5625 0 0 0 -98.8846 -40.5474A 106.875 106.875 0 0 1 -98.8154 -40.716A 0.5625 0.5625 0 0 0 -98.9468 -41.3774C -99.1422668048695 -41.543572377663736 -99.3430227210337 -41.71817247849148 -99.54872248216738 -41.901544737204944 C -100.09448383471249 -42.388070250693836 -100.67495303044888 -42.93624227332729 -101.28348050030259 -43.5513952973369 A 110.25 110.25 0 0 1 -100.793 -44.6756C -99.92783261729915 -44.647456104978566 -99.1312020404194 -44.594382782328346 -98.40337737735179 -44.524857326285215 C -98.12905811195812 -44.49865202853822 -97.86453316898529 -44.470109295151204 -97.60982034559694 -44.439684636912034 A 0.5625 0.5625 0 0 0 -97.0353 -44.7929A 106.875 106.875 0 0 1 -96.9588 -44.9583A 0.5625 0.5625 0 0 0 -97.0615 -45.6249C -97.24958643232036 -45.79929488375087 -97.44259044072086 -45.98242758379463 -97.64015365437423 -46.17453836851814 C -98.16432702343168 -46.68424888280882 -98.72050520560501 -47.25705153928944 -99.30181379020465 -47.897987771675716 A 110.25 110.25 0 0 1 -98.7628 -48.9998C -97.89995846346449 -48.93429473374345 -97.10637475207263 -48.846762187736715 -96.38224505243822 -48.74577353830084 C -96.10931847074295 -48.7077096709165 -95.84627827235705 -48.667734839871166 -95.59312250557882 -48.62630489931666 A 0.5625 0.5625 0 0 0 -95.0039 -48.9543A 106.875 106.875 0 0 1 -94.9203 -49.1162A 0.5625 0.5625 0 0 0 -94.994 -49.7866C -95.17433012265481 -49.969033999168296 -95.35921987843246 -50.16035548591891 -95.54827564031487 -50.36084412872741 C -96.04987694515404 -50.89278271558789 -96.5807199473412 -51.48914062877914 -97.13371830055893 -52.15465677873588 A 110.25 110.25 0 0 1 -96.5474 -53.2321C -95.68828736698102 -53.12926433718998 -94.89924039157523 -53.00743690103578 -94.18016513322229 -52.87517465384437 C -93.90914362636495 -52.82532367775649 -93.64808200305397 -52.77399179762123 -93.39695856638623 -52.72163435513585 A 0.5625 0.5625 0 0 0 -92.7941 -53.0238A 106.875 106.875 0 0 1 -92.7035 -53.182A 0.5625 0.5625 0 0 0 -92.7481 -53.8549C -92.92039395275494 -54.044961474414436 -93.09682234471198 -54.244112561771324 -93.27701572238456 -54.45260266618657 C -93.75510325896693 -55.00577066650121 -94.25961447889802 -55.62456423673328 -94.78326440410731 -56.31341086722735 A 110.25 110.25 0 0 1 -94.1509 -57.3645C -93.29697150923931 -57.224489298211594 -92.51394262307005 -57.06859569019179 -91.8012717946614 -56.905308153794145 C -91.53266417720268 -56.8437636590015 -91.27407124488657 -56.7811711000177 -91.0254515963423 -56.71798445122899 A 0.5625 0.5625 0 0 0 -90.41 -56.9938A 106.875 106.875 0 0 1 -90.3127 -57.1479A 0.5625 0.5625 0 0 0 -90.3281 -57.8221C -90.49200945227057 -58.019425181539766 -90.65964525453577 -58.2260319841453 -90.83063795375995 -58.44213213178098 C -91.28431416268997 -59.01549103042857 -91.76154643326488 -59.655558537429826 -92.2548648324463 -60.36644241088866 A 110.25 110.25 0 0 1 -91.5775 -61.3891C -90.73050033589864 -61.21228125984558 -89.95495959388258 -61.02261415392024 -89.25003116043305 -60.82860788360435 C -88.98434171510846 -60.75548541346526 -88.7287029549978 -60.68174968662225 -88.48305385198938 -60.60785245786107 A 0.5625 0.5625 0 0 0 -87.8563 -60.8567A 106.875 106.875 0 0 1 -87.7524 -61.0064A 0.5625 0.5625 0 0 0 -87.7386 -61.6807C -87.89373565936441 -61.88496348021778 -88.05226415323496 -62.09863811538798 -88.21373515308463 -62.32194260079675 C -88.64214830468373 -62.91441597635419 -89.09120567217951 -63.574555760259585 -89.55326639158442 -64.30614226648956 A 110.25 110.25 0 0 1 -88.8323 -65.2985C -87.9936921284216 -65.08515355936021 -87.22709552726724 -64.86206903570276 -86.53123291825409 -64.63770825796985 C -86.26896044923588 -64.55314509228158 -86.0167557963916 -64.468404628702 -85.77453841944255 -64.38393555429398 A 0.5625 0.5625 0 0 0 -85.1376 -64.6054A 106.875 106.875 0 0 1 -85.0273 -64.7505A 0.5625 0.5625 0 0 0 -84.9843 -65.4235C -85.1304505615944 -65.63431922619482 -85.27957412638736 -65.85466054212858 -85.43122028193208 -66.08475013447173 C -85.83356607527215 -66.69522568008274 -86.2536054814024 -67.37419839742462 -86.68354105030987 -68.12511405920228 A 110.25 110.25 0 0 1 -85.9202 -69.0853C -85.0916849582543 -68.83583528368159 -84.33547170298017 -68.57975216017557 -83.6499813277426 -68.32545808894281 C -83.39161822418703 -68.22961298621311 -83.1433211664925 -68.134026877263 -82.90499025341924 -68.03914453906934 A 0.5625 0.5625 0 0 0 -82.259 -68.2328A 106.875 106.875 0 0 1 -82.1426 -68.373A 0.5625 0.5625 0 0 0 -82.0704 -69.0435C -82.20734193800153 -69.2604533958204 -82.3467806098056 -69.4870477247201 -82.48831722123354 -69.72349045482959 C -82.86384029412785 -70.35082206644461 -83.25407315879663 -71.04735301689067 -83.65107641809914 -71.81618806852262 A 110.25 110.25 0 0 1 -82.8469 -72.7424C -82.02992704063386 -72.45728491977346 -81.28551684261156 -72.16868396572565 -80.61168563770356 -71.88493401154112 C -80.35771694934174 -71.77798691093571 -80.11379363857874 -71.671734609547 -79.87979663076786 -71.5666171392436 A 0.5625 0.5625 0 0 0 -79.226 -71.7322A 106.875 106.875 0 0 1 -79.1036 -71.8671A 0.5625 0.5625 0 0 0 -79.0025 -72.5339C -79.12989761959699 -72.75655830107837 -79.25938961687552 -72.98898023576784 -79.39055096398758 -73.2313322071233 C -79.73854631110444 -73.87434213519015 -80.09824001288295 -74.58712365465999 -80.46156563044323 -75.37243468867085 A 110.25 110.25 0 0 1 -79.618 -76.263C -78.81416650613384 -75.94270357434186 -78.08295691772827 -75.62212660788816 -77.42204993082981 -75.30945348164241 C -77.17295245733746 -75.19160516516799 -76.93386083403487 -75.07488614893444 -76.70463703641869 -74.95973089358829 A 0.5625 0.5625 0 0 0 -76.0443 -75.0968A 106.875 106.875 0 0 1 -75.9162 -75.2263A 0.5625 0.5625 0 0 0 -75.7863 -75.8881C -75.90389518653271 -76.11607037030993 -76.02319740159116 -76.3538835628921 -76.14373724266295 -76.60168978499019 C -76.46355153909944 -77.25917084555567 -76.79203079064628 -77.98686476122361 -77.12099666058047 -78.78717743820255 A 110.25 110.25 0 0 1 -76.2396 -79.6403C -75.45044060914951 -79.28554773804711 -74.7338043999603 -78.9335966089456 -74.0870624148825 -78.59258732176255 C -73.84330381073839 -78.46405903731957 -73.6094927444368 -78.33709243399846 -73.3854725007442 -78.21211558556914 A 0.5625 0.5625 0 0 0 -72.7198 -78.3204A 106.875 106.875 0 0 1 -72.5862 -78.4443A 0.5625 0.5625 0 0 0 -72.4277 -79.0998C -72.5353911212984 -79.33268247063361 -72.64427957669366 -79.57544045168804 -72.7539716107685 -79.82823569423951 C -73.04500443859982 -80.49895353531129 -73.3416525544423 -81.24019367788588 -73.63564107770262 -82.05400549440489 A 110.25 110.25 0 0 1 -72.7182 -82.8682C -71.94506439358366 -82.47954157025876 -71.24434697321371 -82.0968770299797 -70.61298418045678 -81.72817179116467 C -70.3750220769704 -81.58920483717752 -70.14693052351632 -81.4522290133001 -69.9285344083474 -81.31766520276192 A 0.5625 0.5625 0 0 0 -69.2588 -81.3971A 106.875 106.875 0 0 1 -69.1199 -81.515A 0.5625 0.5625 0 0 0 -68.9333 -82.1631C -69.03070943830838 -82.40035574892839 -69.12897970734296 -82.64760276571091 -69.2276179990884 -82.90491243206193 C -69.4893229745897 -83.58760785097535 -69.75358302888651 -84.34100261953957 -70.01204227273877 -85.16678572894668 A 110.25 110.25 0 0 1 -69.0601 -85.9405C -68.30461883701133 -85.51868868129084 -67.62113572920089 -85.10602914252472 -67.0063374464384 -84.71032015763836 C -66.77461859259485 -84.56117543004278 -66.5526747700471 -84.41444754340604 -66.34031279928836 -84.27054940025303 A 0.5625 0.5625 0 0 0 -65.6678 -84.3209A 106.875 106.875 0 0 1 -65.5239 -84.4327A 0.5625 0.5625 0 0 0 -65.3093 -85.072C -65.39642981122553 -85.31333096914905 -65.48389740173741 -85.56460284121998 -65.57129676806716 -85.82594385935776 C -65.80318256749199 -86.5193351667972 -66.03455843960316 -87.28347014139379 -66.25700317382291 -88.11967422218547 A 110.25 110.25 0 0 1 -65.2725 -88.8514C -64.5359384955824 -88.39728338999649 -63.8709728684506 -87.95540357790942 -63.27389331521945 -87.53343374922402 C -63.048852738955 -87.37439125166223 -62.83347332364995 -87.21818676854205 -62.62754418471219 -87.06522444650234 A 0.5625 0.5625 0 0 0 -61.9535 -87.0864A 106.875 106.875 0 0 1 -61.8049 -87.1919A 0.5625 0.5625 0 0 0 -61.5628 -87.8213C -61.63937522031126 -88.06613932469048 -61.71587592103853 -88.3209643153649 -61.79187227877451 -88.58584604483485 C -61.993503560763706 -89.2886314710717 -62.19156086666535 -90.06207206812869 -62.37757347450688 -90.9071272345165 A 110.25 110.25 0 0 1 -61.3623 -91.5955C -60.64609867285619 -91.10992143558866 -60.000898929887065 -90.63965093335672 -59.42265906066083 -90.19221246513487 C -59.20471925214338 -90.02357078327802 -58.99630859642871 -89.85818296126996 -58.797198899753184 -89.69644363112047 A 0.5625 0.5625 0 0 0 -58.1228 -89.6884A 106.875 106.875 0 0 1 -57.9699 -89.7873A 0.5625 0.5625 0 0 0 -57.7007 -90.4057C -57.76659914299292 -90.65361270550052 -57.831989331863376 -90.91151240748458 -57.89644000578465 -91.17943756051659 C -58.06743822867431 -91.89029769934565 -58.23180513646919 -92.67159186495734 -58.38103639869736 -93.52391161416448 A 110.25 110.25 0 0 1 -57.3369 -94.1677C -56.64240213665832 -93.6515101235748 -56.018179572953706 -93.15373181492832 -55.45986497266775 -92.68166472614217 C -55.24943509111571 -92.50374046712692 -55.04838446422112 -92.32947980458577 -54.85646801745877 -92.15926711501905 A 0.5625 0.5625 0 0 0 -54.1831 -92.122A 106.875 106.875 0 0 1 -54.026 -92.2142A 0.5625 0.5625 0 0 0 -53.7303 -92.8204C -53.78537231169743 -93.07089340066639 -53.839529225463956 -93.33138363421703 -53.892313216164546 -93.60184920933122 C -54.032357348658465 -94.31944949511818 -54.162725276651564 -95.10713043112445 -54.27489502716441 -95.96511462187893 A 110.25 110.25 0 0 1 -53.2038 -96.563C -52.532365408897654 -96.01727788675849 -51.93029193709717 -95.49292629846012 -51.39295078307638 -94.99711684574356 C -51.19042588860497 -94.81024404377528 -50.99711274207509 -94.62743769688683 -50.812749848301756 -94.44907120444233 A 0.5625 0.5625 0 0 0 -50.1416 -94.3826A 106.875 106.875 0 0 1 -49.9806 -94.468A 0.5625 0.5625 0 0 0 -49.659 -95.0608C -49.70316906381011 -95.31344321825975 -49.74599102852586 -95.57603494018156 -49.787009239578516 -95.84853316652105 C -49.89583636345085 -96.57152637970992 -49.99196055947924 -97.36411529745658 -50.06685821129055 -98.22615315408927 A 110.25 110.25 0 0 1 -48.9709 -98.7771C -48.32370465408103 -98.20278324335871 -47.74491060421855 -97.65284279072705 -47.22955169833393 -97.13422180452143 C -47.03531201027112 -96.93875129375985 -46.85009926933965 -96.74774246233932 -46.6736360506247 -96.56155703146949 A 0.5625 0.5625 0 0 0 -46.006 -96.4661A 106.875 106.875 0 0 1 -45.8415 -96.5444A 0.5625 0.5625 0 0 0 -45.4945 -97.1227C -45.52765330938799 -97.3770520053174 -45.55905993128858 -97.64125222709015 -45.58823535528797 -97.91527151770778 C -45.66564115898477 -98.64230031408489 -45.72734115991423 -99.43830921069485 -45.76482610050866 -100.30278234720251 A 110.25 110.25 0 0 1 -44.646 -100.806C -44.024321193021464 -100.20392313542732 -43.469893190448616 -99.62942627420007 -42.97748406519715 -99.08896741121733 C -42.79189424826156 -98.8852661671221 -42.615129630497115 -98.68641345029236 -42.4468973780954 -98.49275862468949 A 0.5625 0.5625 0 0 0 -41.784 -98.3685A 106.875 106.875 0 0 1 -41.6163 -98.4396A 0.5625 0.5625 0 0 0 -41.2445 -99.0023C -41.26666414296882 -99.25784555196394 -41.28659645940325 -99.523158265277 -41.3038743225393 -99.79818417758635 C -41.349713484752094 -100.52788363655223 -41.37687345527778 -101.32581808849547 -41.37687531059607 -102.19110354689131 A 110.25 110.25 0 0 1 -40.2373 -102.645C -39.64228666893323 -102.01694063191202 -39.113265594293786 -101.41896591991811 -38.64473069635733 -100.85768383520208 C -38.468139176038356 -100.64613428557465 -38.30015453854101 -100.43981100853382 -38.14046909092816 -100.23905035489842 A 0.5625 0.5625 0 0 0 -37.4836 -100.086A 106.875 106.875 0 0 1 -37.3129 -100.15A 0.5625 0.5625 0 0 0 -36.9172 -100.696C -36.92820112649043 -100.95229286483585 -36.936621716617275 -101.21821997279196 -36.94196958150725 -101.49373617437953 C -36.95615604399865 -102.22473636144483 -36.94872499411379 -103.02309833016233 -36.91124376067277 -103.88757162741013 A 110.25 110.25 0 0 1 -35.7531 -104.292C -35.18582789376539 -103.6384319819017 -34.68320692885065 -103.01810205418172 -34.23942588354382 -102.43705049619925 C -34.072164191969186 -102.21804980321468 -33.91327490834346 -102.0046433163571 -33.762436058262175 -101.7971537418393 A 0.5625 0.5625 0 0 0 -33.1128 -101.616A 106.875 106.875 0 0 1 -32.9395 -101.672A 0.5625 0.5625 0 0 0 -32.5205 -102.201C -32.520409270949294 -102.45721279615248 -32.51730232599044 -102.72325504839263 -32.51071015257683 -102.9987442863781 C -32.493217281745785 -103.72967282507226 -32.45120916247009 -104.526963469387 -32.37631520736922 -105.38900164719821 A 110.25 110.25 0 0 1 -31.2018 -105.743C -30.663311403222245 -105.065353004813 -30.188034166376003 -104.42383246598926 -29.76984012624159 -103.82410229832755 C -29.61222227976039 -103.59806161290398 -29.462726648034288 -103.37797256461033 -29.321017579664744 -103.16414360920609 A 0.5625 0.5625 0 0 0 -28.6799 -102.955A 106.875 106.875 0 0 1 -28.5043 -103.004A 0.5625 0.5625 0 0 0 -28.0627 -103.513C -28.05156374499296 -103.76978001598881 -28.036935097912945 -104.03543794598261 -28.018415262312505 -104.31038301810696 C -27.969275899196234 -105.03986766647184 -27.892769576384293 -105.83459015650638 -27.78060350519875 -106.69257482827479 A 110.25 110.25 0 0 1 -26.5918 -106.995C -26.083227749466207 -106.29502480552145 -25.6361865240399 -105.63351804337442 -25.244364604692013 -105.01623519675869 C -25.096686514341847 -104.78357888666446 -24.956865196943433 -104.55722047112629 -24.824551954254613 -104.33745357635685 A 0.5625 0.5625 0 0 0 -24.1931 -104.101A 106.875 106.875 0 0 1 -24.0155 -104.142A 0.5625 0.5625 0 0 0 -23.5523 -104.632C -23.5300543391558 -104.8875303165371 -23.503931453710987 -105.15230517927905 -23.473518724979968 -105.42618990489783 C -23.392825123598243 -106.15286113172846 -23.281964229877147 -106.94352345904667 -23.13273662268558 -107.7958438482001 A 110.25 110.25 0 0 1 -21.932 -108.047C -21.454175560993534 -107.32513880370718 -21.036209620177473 -106.64488772806331 -20.671495426329024 -106.01121108653945 C -20.534034342293946 -105.772375939687 -20.404149839136995 -105.5401731211777 -20.281480826416907 -105.31488087642502 A 0.5625 0.5625 0 0 0 -19.6608 -105.051A 106.875 106.875 0 0 1 -19.4817 -105.084A 0.5625 0.5625 0 0 0 -18.9977 -105.554C -18.96436971490419 -105.80836523839946 -18.92680163408248 -106.07175994675055 -18.884553108941308 -106.34407013590904 C -18.77245676309921 -107.06656369190544 -18.6274494282133 -107.85168147060249 -18.441440444255726 -108.69673743466748 A 110.25 110.25 0 0 1 -17.2309 -108.895C -16.78484539960809 -108.15376106797304 -16.396739430783757 -107.4560427791488 -16.059817675225457 -106.8071620043997 C -15.932831666327708 -106.56259640882183 -15.813127821995533 -106.32498512387079 -15.700333337498117 -106.09459049178403 A 0.5625 0.5625 0 0 0 -15.0917 -105.804A 106.875 106.875 0 0 1 -14.9113 -105.83A 0.5625 0.5625 0 0 0 -14.4074 -106.278C -14.363081468060933 -106.53055601022628 -14.314138722008652 -106.79207606814316 -14.26013371764882 -107.06230048691435 C -14.116845076522955 -107.77925996591703 -13.937963536591951 -108.55735921939875 -13.715522388300052 -109.39356425410097 A 110.25 110.25 0 0 1 -12.4976 -109.539C -12.084003444798931 -108.77933594659895 -11.726486076370394 -108.06546033777845 -11.417989294494031 -107.40259363565846 C -11.301716763696815 -107.15275673770674 -11.192418309649543 -106.91018307667393 -11.089710113233778 -106.6751185991014 A 0.5625 0.5625 0 0 0 -10.4942 -106.359A 106.875 106.875 0 0 1 -10.3129 -106.376A 0.5625 0.5625 0 0 0 -9.79004 -106.802C -9.734828036530475 -107.05274679430367 -9.674602510139412 -107.31190122520329 -9.60894241531373 -107.57953255547613 C -9.434730488355875 -108.28961194097687 -9.222310574780034 -109.05923186919686 -8.963854872167305 -109.88501608695698 A 110.25 110.25 0 0 1 -7.74073 -109.978C -7.36047503615505 -109.20068898811529 -7.034217469625272 -108.47199628616269 -6.754724831904625 -107.7963881196435 C -6.649384068735434 -107.54174896198884 -6.550696201400163 -107.29466833157683 -6.4582671169730546 -107.05537531751375 A 0.5625 0.5625 0 0 0 -5.87707 -106.713A 106.875 106.875 0 0 1 -5.69512 -106.723A 0.5625 0.5625 0 0 0 -5.15431 -107.126C -5.088298482533691 -107.3739572319972 -5.016903242936801 -107.63025950051404 -4.939711327612618 -107.89479529243022 C -4.734903179512586 -108.5966614845775 -4.489343688484325 -109.35635720653653 -4.195358655126918 -110.17017028377022 A 110.25 110.25 0 0 1 -2.96935 -110.21C -2.623128104711758 -109.41702914621297 -2.3287428545719155 -108.67488739553657 -2.078779079230692 -107.98780614835786 C -1.9845678499655346 -107.7288427894121 -1.896675845501494 -107.47771905768752 -1.8146993990113285 -107.23464675476455 A 0.5625 0.5625 0 0 0 -1.24886 -106.868A 106.875 106.875 0 0 1 -1.06666 -106.87A 0.5625 0.5625 0 0 0 -0.508908 -107.249C -0.43221617980174964 -107.49358428427266 -0.34978526410143385 -107.74655320967813 -0.26120644803414517 -108.0074968249291 C -0.02618658469001023 -108.69983214328371 0.2520514715042734 -109.44817740964285 0.5810139094241275 -110.24849149733129 A 110.25 110.25 0 0 1 1.8076 -110.235C 2.1191434756629377 -109.42795026485007 2.381103731865419 -108.67375275904192 2.601069363957219 -107.97648835445356 C 2.6839741875793357 -107.71368697086453 2.760905321117421 -107.4589915963943 2.83227522745791 -107.21259634746207 A 0.5625 0.5625 0 0 0 3.38169 -106.821A 106.875 106.875 0 0 1 3.5638 -106.816A 0.5625 0.5625 0 0 0 4.13745 -107.17C 4.22467756364629 -107.41140336383907 4.317989400018842 -107.66056402340789 4.417788819357489 -107.91742556762149 C 4.682579172709042 -108.59893022496394 4.992973431191369 -109.33452009567866 5.356295681069087 -110.11983268774537 A 110.25 110.25 0 0 1 6.58115 -110.053C 6.857436585586945 -109.2334318407675 7.086480044842737 -108.46859450684019 7.276034571194621 -107.76245598590607 C 7.347477344029901 -107.49630995981187 7.413303176477189 -107.23852110654897 7.473932553126144 -106.989265492942 A 0.5625 0.5625 0 0 0 8.00589 -106.575A 106.875 106.875 0 0 1 8.18757 -106.561A 0.5625 0.5625 0 0 0 8.77605 -106.89C 8.873639916396497 -107.12756875678758 8.977657490218458 -107.3724533774157 9.088490149846493 -107.62475061988162 C 9.382553876984447 -108.29414516242677 9.724521604966977 -109.01559864437509 10.121521567241212 -109.78443539848419 A 110.25 110.25 0 0 1 11.3424 -109.665C 11.582855574841027 -108.83383906198164 11.778552231987659 -108.05979780211332 11.937339783782566 -107.34611086612354 C 11.997186379489921 -107.07711985887912 12.051783329723998 -106.81672149845971 12.1015583513618 -106.56507347154833 A 0.5625 0.5625 0 0 0 12.6151 -106.128A 106.875 106.875 0 0 1 12.796 -106.106A 0.5625 0.5625 0 0 0 13.3982 -106.41C 13.505942937392238 -106.64261333293562 13.620470966537342 -106.88276216933531 13.74212878971699 -107.13002144834283 C 14.064913816719766 -107.78604915778071 14.43781300552472 -108.49201179743348 14.867745354248013 -109.2429293029133 A 110.25 110.25 0 0 1 16.0823 -109.071C 16.286528963022317 -108.229922122182 16.448511418033938 -107.44813011796008 16.576233888234757 -106.72823463956527 C 16.624371951083997 -106.4569036536804 16.667637519035523 -106.19438465681769 16.706464738259935 -105.94081665947824 A 0.5625 0.5625 0 0 0 17.2005 -105.482A 106.875 106.875 0 0 1 17.3803 -105.452A 0.5625 0.5625 0 0 0 17.9951 -105.73C 18.11288996173127 -105.95744754541953 18.237713431791594 -106.19240974324309 18.369968018671614 -106.4341668553315 C 18.720868350378158 -107.07559610818463 19.123998920742025 -107.76474253445049 19.5860565028524 -108.49633102214631 A 110.25 110.25 0 0 1 20.792 -108.272C 20.959626094821516 -107.42281481232105 21.08759024256406 -106.63473979654562 21.18400784557845 -105.90998730428605 C 21.22034700138642 -105.63682573533593 21.252199960472296 -105.37267895401642 21.280006483236203 -105.11766703366914 A 0.5625 0.5625 0 0 0 21.7537 -104.638A 106.875 106.875 0 0 1 21.9321 -104.6A 0.5625 0.5625 0 0 0 22.5583 -104.851C 22.685831927746047 -105.07335772141373 22.820716495699102 -105.3026921636855 22.963319552111635 -105.53849323513754 C 23.341676409814028 -106.16411981500532 23.774281526213244 -106.83515622747646 24.267596876879743 -107.54604221644482 A 110.25 110.25 0 0 1 25.4626 -107.269C 25.593373718656217 -106.41403239204001 25.68707931981301 -105.62115389320887 25.75201104166579 -104.89290503416086 C 25.77648306746446 -104.61842571444909 25.796863617082256 -104.35314705665458 25.813597239544617 -104.09716997153421 A 0.5625 0.5625 0 0 0 26.2661 -103.597A 106.875 106.875 0 0 1 26.4427 -103.552A 0.5625 0.5625 0 0 0 27.0791 -103.775C 27.21618361471254 -103.9920036471861 27.36087604887581 -104.21527978245338 27.513559852482746 -104.4446821213958 C 27.91866291071438 -105.05333147974497 28.379930402244923 -105.70499807767219 28.903577373442182 -106.39384695374784 A 110.25 110.25 0 0 1 30.0855 -106.066C 30.179072457533294 -105.20546874492742 30.238343589629267 -104.40927530957583 30.271667527797238 -103.67889729487902 C 30.284226479915212 -103.40361553064857 30.293096357712542 -103.13770302934063 30.298725664245637 -102.88124134967798 A 0.5625 0.5625 0 0 0 30.7291 -102.362A 106.875 106.875 0 0 1 30.9036 -102.309A 0.5625 0.5625 0 0 0 31.5491 -102.505C 31.69543976070573 -102.71541545202253 31.849668416152685 -102.93221410267104 32.012146319066375 -103.15478703018222 C 32.44323503916381 -103.74531649143901 32.93229892430723 -104.37638983887601 33.485294423561626 -105.04190836027051 A 110.25 110.25 0 0 1 34.6519 -104.663C 34.70811314122086 -103.79939282295035 34.732838528898625 -103.00137922106057 34.734492121169836 -102.27024325912184 C 34.73511442148676 -101.99467586312143 34.73245697519486 -101.72862874123662 34.726971397363876 -101.4721639470381 A 0.5625 0.5625 0 0 0 35.1345 -100.935A 106.875 106.875 0 0 1 35.3065 -100.875A 0.5625 0.5625 0 0 0 35.9599 -101.042C 36.11519103033994 -101.24598979687131 36.27866635888501 -101.45590394608729 36.45063332581971 -101.67122960475203 C 36.90689838375455 -102.24253051155615 37.42284049616777 -102.85182583423267 38.004146332210816 -103.49276455946078 A 110.25 110.25 0 0 1 39.1532 -103.064C 39.171992969065606 -102.19844438673428 39.1621261929933 -101.40010880546107 39.13210633492103 -100.66958752765404 C 39.1207908151331 -100.3942518488762 39.106611033829694 -100.12856958208714 39.090020870233836 -99.87258315920637 A 0.5625 0.5625 0 0 0 39.4739 -99.3181A 106.875 106.875 0 0 1 39.6431 -99.2506A 0.5625 0.5625 0 0 0 40.3031 -99.3892C 40.46713980241698 -99.58648537486276 40.63955489621203 -99.78912093076454 40.8206880771558 -99.99679506915767 C 41.30127288295596 -100.54779486375065 41.84312459523267 -101.13416827336239 42.451649427096655 -101.74932390693787 A 110.25 110.25 0 0 1 43.5811 -101.271C 43.5623314731122 -100.40562904968847 43.517891057130946 -99.6084702806692 43.456254107862016 -98.8799351643623 C 43.43302201167529 -98.60534811677465 43.40734651641817 -98.34052949577664 43.379682913356106 -98.08550203197508 A 0.5625 0.5625 0 0 0 43.7391 -97.5149A 106.875 106.875 0 0 1 43.9053 -97.4402A 0.5625 0.5625 0 0 0 44.5707 -97.5501C 44.743115747843696 -97.74001773215093 44.92414691556543 -97.9349942676553 45.114106251897276 -98.1346269992814 C 45.61810855780521 -98.66429123712173 46.18485259997258 -99.2266418788611 46.81945398586919 -99.81485953035826 A 110.25 110.25 0 0 1 47.9271 -99.2878C 47.87088625155699 -98.4243126352805 47.791955627904294 -97.62982726081053 47.69881730437064 -96.90464605456147 C 47.663712247618236 -96.63132314665484 47.62658924146697 -96.36786534073846 47.58790413446293 -96.11427562343209 A 0.5625 0.5625 0 0 0 47.9223 -95.5286A 106.875 106.875 0 0 1 48.0851 -95.4468A 0.5625 0.5625 0 0 0 48.7546 -95.5277C 48.935091168570345 -95.71005341880144 49.124398543116946 -95.89700488583568 49.32282740603137 -96.08822142110034 C 49.84930100037988 -96.59555571292502 50.43987336971668 -97.13282783222104 51.0993599118521 -97.69300318446086 A 110.25 110.25 0 0 1 52.1831 -97.1184C 52.08956844299533 -96.25821485805486 51.9762957956698 -95.46789444141059 51.85183095534203 -94.74742859716142 C 51.80491884409994 -94.47588296413642 51.75641802161966 -94.2142805878041 51.70678403791994 -93.96260470519012 A 0.5625 0.5625 0 0 0 52.0155 -93.363A 106.875 106.875 0 0 1 52.1746 -93.2742A 0.5625 0.5625 0 0 0 52.847 -93.3261C 53.035196068755525 -93.50040348070576 53.23242424531161 -93.6789788974247 53.43895010535192 -93.86142024726279 C 53.98690658897778 -94.34547212594923 54.60019854756826 -94.85665705053637 55.283332128868025 -95.38773843282658 A 110.25 110.25 0 0 1 56.3412 -94.7668C 56.210457912414334 -93.91140234025707 56.06305589897571 -93.1267306254418 55.90749821158646 -92.41233274253507 C 55.84886711844178 -92.14307418294452 55.789079534858956 -91.8838183673235 55.72858985708178 -91.63452881457441 A 0.5625 0.5625 0 0 0 56.0111 -91.0221A 106.875 106.875 0 0 1 56.1662 -90.9265A 0.5625 0.5625 0 0 0 56.8402 -90.9492C 57.0357329298608 -91.11521630474081 57.24051163313286 -91.28508041445855 57.45474675957629 -91.45840406429866 C 58.02315740143635 -91.91826477302222 58.658017557709876 -92.40240280661725 59.36351566625434 -92.90339316915421 A 110.25 110.25 0 0 1 60.3935 -92.2372C 60.22581812041859 -91.38828097717565 60.04456347274535 -90.6107311033452 59.85820498159878 -89.90374238916013 C 59.78796498030267 -89.6372764078153 59.71700288055838 -89.38085387861037 59.645771071753344 -89.13441867081369 A 0.5625 0.5625 0 0 0 59.9014 -88.5104A 106.875 106.875 0 0 1 60.0523 -88.4081A 0.5625 0.5625 0 0 0 60.7266 -88.4016C 60.9291911619372 -88.55896983060626 61.14113594130674 -88.71980373120554 61.36267813008839 -88.88368428400534 C 61.95047579859461 -89.31849048233528 62.60571226894303 -89.7746727063667 63.332250405749434 -90.24463149209224 A 110.25 110.25 0 0 1 64.3324 -89.5344C 64.12811064777415 -88.69358766553408 63.9133436525284 -87.92461940133197 63.69653422621942 -87.22636715330762 C 63.614817185035065 -86.96319401224606 63.5328137930569 -86.71008617596269 63.450973583502176 -86.46696796947154 A 0.5625 0.5625 0 0 0 63.6794 -85.8324A 106.875 106.875 0 0 1 63.8256 -85.7237A 0.5625 0.5625 0 0 0 64.4991 -85.688C 64.70826120397355 -85.83646314396026 64.926974155263 -85.98796488659791 65.15540748407192 -86.14209467374305 C 65.76148865051944 -86.55103005847404 66.435871296934 -86.97840003848178 67.18208546256497 -87.4164449488807 A 110.25 110.25 0 0 1 68.1505 -86.6636C 67.91000934800358 -85.83238141046193 67.6621332077783 -85.07343841345629 67.41527988335083 -84.38523352722937 C 67.32223921748462 -84.12584730652499 67.22934848607265 -83.87652934667906 67.13705352221035 -83.63718457052325 A 0.5625 0.5625 0 0 0 67.3377 -82.9933A 106.875 106.875 0 0 1 67.4791 -82.8784A 0.5625 0.5625 0 0 0 68.1504 -82.8135C 68.3658482468333 -82.95280746663776 68.59091875932945 -83.0946926226221 68.82581436845933 -83.23878228154194 C 69.44904117878636 -83.62107911921795 70.14130391831327 -84.01883451271956 70.90579317364323 -84.42414316424302 A 110.25 110.25 0 0 1 71.8407 -83.63C 71.56441410146007 -82.81003382774148 71.28389417780849 -82.06254093410875 71.00746039658597 -81.38567544244404 C 70.90327078016641 -81.13056311262348 70.79966710196292 -80.8855030976339 70.69709065794396 -80.65038109662197 A 0.5625 0.5625 0 0 0 70.8697 -79.9984A 106.875 106.875 0 0 1 71.006 -79.8775A 0.5625 0.5625 0 0 0 71.6738 -79.7836C 71.89508555301711 -79.91341656086584 72.12609108034995 -80.04541875564178 72.3670079778384 -80.17919777305733 C 73.00621038882824 -80.53413834131103 73.71505357050714 -80.90153240411588 74.49638266683914 -81.27334387212049 A 110.25 110.25 0 0 1 75.396 -80.4395C 75.0844641450602 -79.63221905916045 74.771827084828 -78.89757960870446 74.46633182235064 -78.23332425583828 C 74.35118886049604 -77.98296476364459 74.2370667405815 -77.74262276808369 74.12440139296156 -77.51216495920514 A 0.5625 0.5625 0 0 0 74.2686 -76.8534A 106.875 106.875 0 0 1 74.3995 -76.7266A 0.5625 0.5625 0 0 0 75.0627 -76.6039C 75.28934734824557 -76.72399656549014 75.52585420167479 -76.84586797872963 75.77234009121972 -76.96908519851397 C 76.42631806713466 -77.29600313351553 77.15041091195752 -77.63234612165891 77.94711298555268 -77.96996236896334 A 110.25 110.25 0 0 1 78.8098 -77.0979C 78.46355095265002 -76.30490311990337 78.119383699251 -75.58449632143136 77.78540049095355 -74.93409817738203 C 77.65952035254371 -74.68896154660227 77.53509404327389 -74.45378878745386 77.41255130947091 -74.2284278311648 A 0.5625 0.5625 0 0 0 77.5281 -73.564A 106.875 106.875 0 0 1 77.6534 -73.4317A 0.5625 0.5625 0 0 0 78.3106 -73.2804C 78.54226126065745 -73.3905352832962 78.78382542327789 -73.50204711415499 79.03541755337645 -73.61447120885269 C 79.70294331889954 -73.9127527563381 80.44092641820922 -74.21741322100358 81.25150574417012 -74.52020040838033 A 110.25 110.25 0 0 1 82.0756 -73.6116C 81.69533064182207 -72.8343326979819 81.32027933331312 -72.1295110399842 80.95843519777193 -71.49419115930839 C 80.82205420961377 -71.25473760835301 80.68755730838325 -71.0251755978997 80.55536724957577 -70.80533458584803 A 0.5625 0.5625 0 0 0 80.642 -70.1365A 106.875 106.875 0 0 1 80.7615 -69.9989A 0.5625 0.5625 0 0 0 81.4115 -69.8193C 81.64772028427258 -69.9192909395347 81.89388824460941 -70.02023383620198 82.15011427732573 -70.12165374132223 C 82.82993462258061 -70.3907389088529 83.58042249021847 -70.66314488185144 84.40335729055639 -70.93053455799382 A 110.25 110.25 0 0 1 85.1873 -69.9871C 84.77373588389196 -69.22702342673036 84.36850463991651 -68.53911013822444 83.9794789016877 -67.92006126761484 C 83.8328531048363 -67.6867403455058 83.68853811552385 -67.46322006243571 83.54694890473496 -67.24931172315083 A 0.5625 0.5625 0 0 0 83.6045 -66.5774A 106.875 106.875 0 0 1 83.7179 -66.4347A 0.5625 0.5625 0 0 0 84.3596 -66.2271C 84.59989424425724 -66.31678043275777 84.85020384768656 -66.40696488549237 85.11058274541669 -66.49719019576045 C 85.80142137873821 -66.73657380405051 86.5630050521497 -66.97621387163095 87.39675035276377 -67.20770404036102 A 110.25 110.25 0 0 1 88.1391 -66.2312C 87.6929872946741 -65.48974765238505 87.2583368945509 -64.82003421869148 86.8428599088095 -64.2184185577195 C 86.68626457787782 -63.99166830010877 86.53240243679669 -63.77460938039822 86.38167989297531 -63.56703530443631 A 0.5625 0.5625 0 0 0 86.4101 -62.8932A 106.875 106.875 0 0 1 86.5172 -62.7458A 0.5625 0.5625 0 0 0 87.1492 -62.5106C 87.39324074246808 -62.58976710002309 87.64722205886378 -62.669023796938205 87.91126498743373 -62.74788512376154 C 88.61182493147209 -62.95711775509912 89.38307461688672 -63.16354201807407 90.2260651480914 -63.35869808078795 A 110.25 110.25 0 0 1 90.9254 -62.3509C 90.4476042846712 -61.62952171971217 89.98435073911077 -60.97926545782569 89.54320252048515 -60.39621247703325 C 89.37693164684472 -60.17645858383685 89.21381121408804 -59.966268532927536 89.05423830306148 -59.76541841892722 A 0.5625 0.5625 0 0 0 89.0535 -59.091A 106.875 106.875 0 0 1 89.1541 -58.9391A 0.5625 0.5625 0 0 0 89.7753 -58.6767C 90.02251556272586 -58.745248019434705 90.27969176870438 -58.81342816436322 90.54690301510504 -58.880777453840786 C 91.25586904176544 -59.05946629582284 92.03533679848512 -59.23228721420741 92.88598993364042 -59.39074278578882 A 110.25 110.25 0 0 1 93.541 -58.3536C 93.03241534830896 -57.653592799553046 92.54142836743864 -57.024014497661405 92.07543712561463 -56.46061881809792 C 91.89980286545737 -56.24827385428869 91.72773038259353 -56.04534728203887 91.55960668582883 -55.85159820510276 A 0.5625 0.5625 0 0 0 91.5296 -55.1779A 106.875 106.875 0 0 1 91.6235 -55.0217A 0.5625 0.5625 0 0 0 92.2329 -54.7327C 92.48278251628297 -54.79044087386065 92.74267079038941 -54.84741646570449 93.01254869342604 -54.90312727658246 C 93.72858979307178 -55.050936859579004 94.51481225182827 -55.18982998015663 95.37153097855595 -55.31128757682663 A 110.25 110.25 0 0 1 95.981 -54.2468C 95.44256777289688 -53.569425283018774 94.92476913347106 -52.961706908600426 94.4348097183147 -52.41902624678621 C 94.25014180661239 -52.21448886784621 94.06944032174847 -52.019206747691904 93.89308147391938 -51.8329224514675 A 0.5625 0.5625 0 0 0 93.8339 -51.1611A 106.875 106.875 0 0 1 93.921 -51.0011A 0.5625 0.5625 0 0 0 94.5172 -50.6859C 94.76942270900246 -50.73277040048696 95.03153513815738 -50.7784344735257 95.30357303026602 -50.82240221457775 C 96.0253449105502 -50.93905504154103 96.81684602082798 -51.043759606990484 97.67802193923538 -51.127991204802186 A 110.25 110.25 0 0 1 98.2408 -50.0381C 97.67353674908979 -49.384686767875245 97.12989856395028 -48.79996924867891 96.61689082306864 -48.27902243085293 C 96.42353595452997 -48.08267663433943 96.23454471582268 -47.8954055880566 96.0502818122386 -47.7169358018456 A 0.5625 0.5625 0 0 0 95.9621 -47.0483A 106.875 106.875 0 0 1 96.0422 -46.8847A 0.5625 0.5625 0 0 0 96.6241 -46.5439C 96.87814321284884 -46.57985445164963 97.14198770835411 -46.614121276357466 97.415674866817 -46.646263402743884 C 98.14182247645086 -46.73154047018009 98.93711627761769 -46.80185990862011 99.80113261990051 -46.84870737154979 A 110.25 110.25 0 0 1 100.316 -45.7354C 99.72113386574429 -45.10723366342979 99.15267675878 -44.54661474550184 98.61758381060349 -44.04837979488188 C 98.41590498879087 -43.860594199512065 98.21897880754355 -43.68168580892253 98.02715778255275 -43.51136559110062 A 0.5625 0.5625 0 0 0 97.9101 -42.8472A 106.875 106.875 0 0 1 97.983 -42.6802A 0.5625 0.5625 0 0 0 98.5497 -42.3146C 98.804985125412 -42.33948969311308 99.07006634679585 -42.362294937107094 99.34488895257 -42.382551105344064 C 100.07404902529012 -42.43629231446951 100.87164243633295 -42.472094608501955 101.73687710208786 -42.48146998533298 A 110.25 110.25 0 0 1 102.203 -41.3469C 101.58151497322301 -40.745096440943875 100.98930616325538 -40.20962862772478 100.43313258888342 -39.735040928371106 C 100.22350844471178 -39.55616808197894 100.01901702925335 -39.385958228892264 99.81999800678723 -39.22410733787197 A 0.5625 0.5625 0 0 0 99.6743 -38.5656A 106.875 106.875 0 0 1 99.7399 -38.3957A 0.5625 0.5625 0 0 0 100.29 -38.0058C 100.54633100233289 -38.019636966644335 100.8121512873 -38.03093781546182 101.08759338965868 -38.039269996709976 C 101.818397003617 -38.06137445401984 102.61679262624547 -38.06259238857857 103.48162122779411 -38.03447807802055 A 110.25 110.25 0 0 1 103.898 -36.8808C 103.2511874003841 -36.306464557261826 102.63633869757517 -35.79715313362097 102.06012865478021 -35.34710367435041 C 101.84295273567704 -35.17747939201494 101.63127999727308 -35.01628762764542 101.42543661475126 -34.863209921563175 A 0.5625 0.5625 0 0 0 101.251 -34.2117A 106.875 106.875 0 0 1 101.309 -34.039A 0.5625 0.5625 0 0 0 101.842 -33.6257C 102.09891164867729 -33.628406344364684 102.36497194741762 -33.62818158184277 102.64051643259407 -33.62457413330246 C 103.37159158036553 -33.61500033998779 104.1692905102209 -33.58163162852794 105.03208942222804 -33.516080412261324 A 110.25 110.25 0 0 1 105.398 -32.3454C 104.72701651170628 -31.799671079961605 104.09068223025128 -31.317472224879975 103.49551749318167 -30.892805926527558 C 103.27119752424281 -30.732748660115174 103.05274085634245 -30.58087760515782 102.84045956320745 -30.43686047141201 A 0.5625 0.5625 0 0 0 102.638 -29.7935A 106.875 106.875 0 0 1 102.689 -29.6184A 0.5625 0.5625 0 0 0 103.203 -29.1824C 103.45981225650758 -29.17404190293693 103.72561306861034 -29.162291951043784 104.00074263062473 -29.146751645322688 C 104.73071679500794 -29.105517575180087 105.52622143569934 -29.03762486397079 106.38537084335978 -28.93475980755483 A 110.25 110.25 0 0 1 106.701 -27.7493C 106.00623159223932 -27.233177042891406 105.3496063832624 -26.778996034335435 104.73660431152442 -26.380510163503807 C 104.50556143005285 -26.23032040380815 104.280730962224 -26.088055180299936 104.06241029442282 -25.953368996011125 A 0.5625 0.5625 0 0 0 103.833 -25.3194A 106.875 106.875 0 0 1 103.876 -25.1423A 0.5625 0.5625 0 0 0 104.371 -24.6844C 104.62647787713036 -24.66490624617226 104.89152018934384 -24.641653164214826 105.16571830119118 -24.614209176613162 C 105.89322103196601 -24.541392242300866 106.68503790665119 -24.439102992813446 107.53892484672281 -24.299117214643385 A 110.25 110.25 0 0 1 107.803 -23.1011C 107.08643104933216 -22.615555561462017 106.41074765805375 -22.190245076818826 105.78105909898578 -21.818687749093503 C 105.54372706385023 -21.67864746169538 105.31294489180414 -21.546255157728442 105.08899472357872 -21.421152782134545 A 0.5625 0.5625 0 0 0 104.832 -20.7977A 106.875 106.875 0 0 1 104.867 -20.6189A 0.5625 0.5625 0 0 0 105.342 -20.14C 105.59671821774535 -20.10946480511607 105.86050444082207 -20.074752248326053 106.1332563241978 -20.035456102062984 C 106.8569218110025 -19.931193009766663 107.64356436623457 -19.794699259379037 108.49058575520826 -19.61785556812657 A 110.25 110.25 0 0 1 108.702 -18.4096C 107.96558692137187 -17.955475737519194 107.27211387275834 -17.559834252783883 106.62692100083514 -17.2159030282244 C 106.38374537813326 -17.086275124130875 106.147444771284 -16.964004292422516 105.91828554567509 -16.848720592162014 A 0.5625 0.5625 0 0 0 105.634 -16.237A 106.875 106.875 0 0 1 105.662 -16.0569A 0.5625 0.5625 0 0 0 106.116 -15.5578C 106.36871175349152 -15.516269945085096 106.63074665636015 -15.470163082660827 106.90154024810249 -15.419088552144986 C 107.62000988459992 -15.283575044926192 108.40000128117609 -15.113133046392763 109.23856692489763 -14.89976344761018 A 110.25 110.25 0 0 1 109.398 -13.6835C 108.64204868506994 -13.261686384010092 107.93208790231047 -12.89645667473048 107.2726019997342 -12.580797248274282 C 107.02403932628869 -12.461825090330736 106.78266391433503 -12.349905281591656 106.54872585384433 -12.244656689766032 A 0.5625 0.5625 0 0 0 106.239 -11.6458A 106.875 106.875 0 0 1 106.258 -11.4646A 0.5625 0.5625 0 0 0 106.69 -10.9464C 106.94100914716951 -10.893944909495426 107.20080078667941 -10.836530302253491 107.46912770011454 -10.77377327457925 C 108.1810526346336 -10.607263764888254 108.9529285202065 -10.403193505252133 109.78146409929977 -10.153698578066598 A 110.25 110.25 0 0 1 109.888 -8.93165C 109.11454635414712 -8.542999600001387 108.38943071442901 -8.208867346794543 107.71688989707343 -7.922072336032192 C 107.46340682333185 -7.813979282034006 107.21740976338894 -7.712620614010844 106.97913206228131 -7.6176047238540425 A 0.5625 0.5625 0 0 0 106.643 -7.03273A 106.875 106.875 0 0 1 106.655 -6.85091A 0.5625 0.5625 0 0 0 107.064 -6.31449C 107.31253597022088 -6.251167630624277 107.56959661471396 -6.182553068490644 107.83495309409884 -6.108231363420105 C 108.53899676196252 -5.9110384554631175 109.30130802020872 -5.673723055313887 110.11825804569598 -5.388571200381972 A 110.25 110.25 0 0 1 110.171 -4.16307C 109.38219286360004 -3.8082742268843175 108.64328369577098 -3.5058667281428413 107.95895058874825 -3.2484745607404215 C 107.70102300269565 -3.1514635441020546 107.4508661285398 -3.0608563071032626 107.20869612830191 -2.976251501021035 A 0.5625 0.5625 0 0 0 106.848 -2.40647A 106.875 106.875 0 0 1 106.852 -2.2243A 0.5625 0.5625 0 0 0 107.237 -1.67069" stroke="#191919" stroke-width="0.35 px" style="stroke-width:0.35;stroke-miterlimit:4;stroke-dasharray:none;fill:none;fill-rule: evenodd "/>
<title>b'InvoluteGear'</title>
</g>
</svg>