<?xml version="1.0"?>
<!DOCTYPE svg PUBLIC "-//W3C//DTD SVG 1.1//EN" "http://www.w3.org/Graphics/SVG/1.1/DTD/svg11.dtd">
<svg width="168.29554907645894mm" height="168.29554907645894mm" viewBox="0 0 168.29554907645894 168.29554907645894" xmlns="http://www.w3.org/2000/svg" version="1.1">
<g id="InvoluteGear" transform="translate(84.147775,84.147775) scale(1,-1)">
<path id="InvoluteGear_w0000"  d="M 79.48283817638242 -1.6517976350040688 C 79.72581239311702 -1.5840081539224322 79.98094906350386 -1.5085083373581205 80.24787303855001 -1.4244585556975373 C 80.92464727744853 -1.2113476246612818 81.67688214867526 -0.9434097516638358 82.49781817473477 -0.6072401447864506 A 82.5 82.5 0 0 1 82.4978 0.60724C 81.67688214867526 0.9434097516638358 80.92464727744853 1.2113476246612818 80.24787303855001 1.4244585556975373 C 79.98094906350386 1.5085083373581205 79.72581239311702 1.5840081539224322 79.4828394923901 1.6517971211556932 A 0.5625 0.5625 0 0 0 79.0943 2.20236A 79.125 79.125 0 0 1 79.0886 2.40029A 0.5625 0.5625 0 0 0 79.4444 2.97251C 79.68303081995592 3.0543154585175083 79.93334591556035 3.144522419390076 80.19493123731252 3.243950250983917 C 80.85816918268868 3.4960515543859687 81.5935521897864 3.807274686797142 82.39355279774361 4.190608732687357 A 82.5 82.5 0 0 1 82.3229 5.40303C 81.48384339258045 5.690901990154499 80.71730198191459 5.914647986789729 80.02928143929032 6.088047445528235 C 79.75792199718893 6.156434779399752 79.49882705375069 6.216971984175458 79.25232364681436 6.270518645462556 A 0.5625 0.5625 0 0 0 78.8325 6.79756A 79.125 79.125 0 0 1 78.8152 6.99482A 0.5625 0.5625 0 0 0 79.1372 7.58677C 79.37062709356879 7.682304234266588 79.61527362734267 7.786913107646159 79.8706351738749 7.901382556864283 C 80.51809263846458 8.191621201622203 81.23413547811725 8.545076512882385 82.01049371914907 8.97427791671567 A 82.5 82.5 0 0 1 81.8695 10.1805C 81.01508910354764 10.419138017723029 80.23683488693338 10.597935052368554 79.53989608431182 10.731036309929246 C 79.26501936961046 10.783529794921376 79.00284284839482 10.828899549170114 78.75364302474937 10.868022719559052 A 0.5625 0.5625 0 0 0 78.3039 11.3698A 79.125 79.125 0 0 1 78.2752 11.5657A 0.5625 0.5625 0 0 0 78.5621 12.1753C 78.78965828927662 12.284298524262976 79.0278084547907 12.40295534683519 79.27608216346233 12.532079085295893 C 79.90556835615318 12.8594729957087 80.59984816604944 13.253964504928225 81.34993708961862 13.727580985014505 A 82.5 82.5 0 0 1 81.139 14.9236C 80.27220539771017 15.11211898033996 79.48487174106599 15.245362060427404 78.78137289874444 15.337714744286908 C 78.50390900723549 15.374136759062855 78.23953803060024 15.404185545897707 77.98848500356651 15.428752844964034 A 0.5625 0.5625 0 0 0 77.5103 15.9035A 79.125 79.125 0 0 1 77.4702 16.0974A 0.5625 0.5625 0 0 0 77.7213 16.7227C 77.94209022161182 16.844726636556274 78.17293819409066 16.97702991119348 78.41328398526073 17.120371025038963 C 79.02266892403584 17.48381240374792 79.6928364810681 17.91800527653293 80.41411802369232 18.43443426462336 A 82.5 82.5 0 0 1 80.134 19.6162C 79.25770595837437 19.753965315955895 78.46395694956975 19.84120358907935 77.75627848494332 19.892495206989032 C 77.47716626660652 19.912722510979915 77.21149538225193 19.927348654817948 76.95943863580446 19.93727695459822 A 0.5625 0.5625 0 0 0 76.4544 20.3834A 79.125 79.125 0 0 1 76.4032 20.5747A 0.5625 0.5625 0 0 0 76.6175 21.2135C 76.83079079262401 21.348157525983954 77.05355545560197 21.493659580284394 77.28516007519282 21.650733048558973 C 77.87238179431563 22.048992124983176 78.51616946360743 22.521417190092688 79.20620303686275 23.078911253963305 A 82.5 82.5 0 0 1 78.8579 24.2424C 77.97502353051071 24.328970485912915 77.17754496493612 24.36990876537075 76.46808143791877 24.37996576273159 C 76.18826532015008 24.383929913143504 75.92219347425265 24.383083923743772 75.66998588863476 24.37833963001426 A 0.5625 0.5625 0 0 0 75.1399 24.7944A 79.125 79.125 0 0 1 75.0776 24.9823A 0.5625 0.5625 0 0 0 75.2544 25.6325C 75.45952028780738 25.77935300794364 75.67344787617938 25.937561509013154 75.89552764747106 26.10783584482061 C 76.4585991745247 26.539565036311387 77.07382858238934 27.04862375686769 77.73027933108884 27.64529651307695 A 82.5 82.5 0 0 1 77.3149 28.7865C 76.42849830543155 28.821654120899638 75.62998859811697 28.81615388451288 74.92114060870875 28.78494223162927 C 74.64156740067699 28.772629815032044 74.37599489614021 28.756314554954876 74.12448986198716 28.736913720903793 A 0.5625 0.5625 0 0 0 73.5711 29.1214A 79.125 79.125 0 0 1 73.498 29.3054A 0.5625 0.5625 0 0 0 73.6367 29.9648C 73.83291865248474 30.123319319586233 74.03728530300893 30.293698939936917 74.24908877835304 30.476597988823958 C 74.78610485752608 30.940336460457946 75.37069426239361 31.48430634288943 75.99134096499827 32.11813883970262 A 82.5 82.5 0 0 1 75.5103 33.2333C 74.62336323495748 33.21681440162074 73.82652428999023 33.16489426044824 73.12069035540674 33.09251956767374 C 72.84230604435109 33.06397224538773 72.5781314944653 33.03224292030876 72.32818002520064 32.998251192217346 A 0.5625 0.5625 0 0 0 71.7534 33.3499A 79.125 79.125 0 0 1 71.6697 33.5294A 0.5625 0.5625 0 0 0 71.7698 34.1957C 71.95648979170143 34.365357853963246 72.15060399232318 34.54733208289224 72.35141449580401 34.74223697237275 C 72.86055803467292 35.23641557995491 73.4125293710447 35.813456002369016 73.995271955574 36.48230355125187 A 82.5 82.5 0 0 1 73.4502 37.5676C 72.56572632476501 37.49957949694143 71.7732543929014 37.40141513230601 71.07282283175083 37.288122292691284 C 70.79656938205942 37.24343665981867 70.53468666987895 37.196400631730285 70.28713452215439 37.14793302684657 A 0.5625 0.5625 0 0 0 69.6929 37.4656A 79.125 79.125 0 0 1 69.5989 37.6399A 0.5625 0.5625 0 0 0 69.6601 38.3109C 69.8365829467528 38.49111489545999 70.0197878764626 38.684067989779166 70.20892592890141 38.89031922340284 C 70.68847414689628 39.41326582295365 71.20595971849242 40.021424263218776 71.74882636850312 40.723023695784576 A 82.5 82.5 0 0 1 71.1416 41.7748C 70.26254996682859 41.65545788545647 69.47712652223501 41.51138145449487 68.78446737320388 41.357553815147156 C 68.51127953910449 41.29688107372468 68.25257479283036 41.234697497657024 68.00825960475302 41.17191801501387 A 0.5625 0.5625 0 0 0 67.3965 41.4545A 79.125 79.125 0 0 1 67.2926 41.623A 0.5625 0.5625 0 0 0 67.3146 42.2965C 67.48037121136144 42.48663018822564 67.65204696266933 42.68990925574169 67.82887258076691 42.90680894462124 C 68.27720283851544 43.45675405038266 68.75845163796787 44.093972692844964 69.2596054645567 44.82595001869997 A 82.5 82.5 0 0 1 68.5922 45.8406C 67.72162738089021 45.67038739021144 66.9459100478832 45.48088640195969 66.26336705027576 45.28704446691757 C 65.99416921292344 45.2105899142967 65.73951780752597 45.133469199787434 65.49926626435615 45.05659026528174 A 0.5625 0.5625 0 0 0 64.8721 45.3031A 79.125 79.125 0 0 1 64.7586 45.4653A 0.5625 0.5625 0 0 0 64.7414 46.1389C 64.89582726019873 46.33838417326002 65.05539293670493 46.55130138195494 65.21930779854246 46.77811560620116 C 65.63490308836803 47.35319837801632 66.07828672207509 48.017321076496515 66.53603197932941 48.777199516071995 A 82.5 82.5 0 0 1 65.8108 49.7514C 64.9515562446706 49.5307827606582 64.18816980515753 49.29649842647542 63.51805246842381 49.06329809548786 C 63.253755508087565 48.97132042967354 63.004019103314626 48.87952352880858 62.76864414022459 48.78880527641926 A 0.5625 0.5625 0 0 0 62.1282 48.9984A 79.125 79.125 0 0 1 62.0054 49.1538A 0.5625 0.5625 0 0 0 61.9491 49.8252C 62.09169637187724 50.03334373432173 62.23861205384181 50.25517863975866 62.38906152341286 50.49113993183306 C 62.77051560240828 51.089414471640296 63.17453380050331 51.7781940451498 63.5873216233684 52.563402410340075 A 82.5 82.5 0 0 1 62.8067 53.4937C 61.96170960204938 53.22358164084248 61.213237114097296 52.9453067047546 60.55781290318414 52.67353705392382 C 60.299311117116524 52.566347498222335 60.05533474190967 52.46018502265659 59.82563279326832 52.355934414233545 A 0.5625 0.5625 0 0 0 59.1741 52.528A 79.125 79.125 0 0 1 59.0425 52.6759A 0.5625 0.5625 0 0 0 58.9473 53.343C 59.07746683769639 53.559006297868045 59.2112354089566 53.789008280947165 59.347710412879806 54.03331822252915 C 59.6937325611882 54.652760158665096 60.05701825397779 55.36386599515519 60.42345189912598 56.1717473894043 A 82.5 82.5 0 0 1 59.59 57.0551C 58.76220414765153 56.73628876828169 58.03117820523629 56.41496482458657 57.392664868203795 56.10554543638435 C 57.14083294462205 55.98350668632212 56.90344213780607 55.86333785626797 56.68019044229718 55.745907642870336 A 0.5625 0.5625 0 0 0 56.0198 55.8798A 79.125 79.125 0 0 1 55.8798 56.0198A 0.5625 0.5625 0 0 0 55.7459 56.6802C 55.86333785626797 56.90344213780606 55.98350668632212 57.14083294462204 56.10554543638435 57.39266486820378 C 56.41496482458657 58.03117820523627 56.73628876828169 58.762204147651524 57.05512834024964 59.590024956050165 A 82.5 82.5 0 0 1 56.1717 60.4235C 55.36386599515519 60.05701825397778 54.652760158665096 59.693732561188185 54.03331822252915 59.34771041287979 C 53.789008280947165 59.21123540895659 53.559006297868045 59.077466837696385 53.342960268560546 58.947254365994645 A 0.5625 0.5625 0 0 0 52.6759 59.0425A 79.125 79.125 0 0 1 52.528 59.1741A 0.5625 0.5625 0 0 0 52.3559 59.8256C 52.460185022656596 60.05533474190966 52.56634749822234 60.29931111711652 52.67353705392383 60.557812903184136 C 52.94530670475461 61.21323711409729 53.22358164084249 61.96170960204937 53.49374828744493 62.80666874102241 A 82.5 82.5 0 0 1 52.5634 63.5873C 51.77819404514981 63.17453380050331 51.0894144716403 62.770515602408274 50.49113993183307 62.389061523412856 C 50.25517863975867 62.238612053841806 50.03334373432174 62.091696371877234 49.82523440259106 61.94914223965786 A 0.5625 0.5625 0 0 0 49.1538 62.0054A 79.125 79.125 0 0 1 48.9984 62.1282A 0.5625 0.5625 0 0 0 48.7888 62.7686C 48.87952352880858 63.00401910331461 48.97132042967354 63.25375550808755 49.06329809548786 63.5180524684238 C 49.29649842647542 64.18816980515751 49.5307827606582 64.95155624467058 49.751362323482276 65.81079463995727 A 82.5 82.5 0 0 1 48.7772 66.536C 48.017321076496515 66.07828672207508 47.35319837801632 65.63490308836802 46.77811560620116 65.21930779854245 C 46.55130138195494 65.05539293670492 46.33838417326002 64.89582726019871 46.13891571520927 64.74141382552068 A 0.5625 0.5625 0 0 0 45.4653 64.7586A 79.125 79.125 0 0 1 45.3031 64.8721A 0.5625 0.5625 0 0 0 45.0566 65.4993C 45.13346919978744 65.73951780752597 45.210589914296705 65.99416921292344 45.28704446691758 66.26336705027576 C 45.480886401959694 66.94591004788319 45.670387390211445 67.7216273808902 45.840633497839384 68.59223764174635 A 82.5 82.5 0 0 1 44.826 69.2596C 44.09397269284497 68.75845163796785 43.45675405038267 68.27720283851542 42.90680894462125 67.82887258076691 C 42.689909255741696 67.65204696266933 42.48663018822565 67.48037121136144 42.296477541976635 67.31462096040927 A 0.5625 0.5625 0 0 0 41.623 67.2926A 79.125 79.125 0 0 1 41.4545 67.3965A 0.5625 0.5625 0 0 0 41.1719 68.0083C 41.23469749765704 68.25257479283034 41.29688107372469 68.51127953910449 41.35755381514717 68.78446737320387 C 41.51138145449488 69.477126522235 41.655457885456485 70.26254996682859 41.7747944789502 71.14158622371666 A 82.5 82.5 0 0 1 40.723 71.7488C 40.02142426321879 71.20595971849242 39.41326582295366 70.68847414689627 38.890319223402855 70.2089259289014 C 38.68406798977918 70.0197878764626 38.49111489546 69.83658294675278 38.310921477376226 69.6600567259087 A 0.5625 0.5625 0 0 0 37.6399 69.5989A 79.125 79.125 0 0 1 37.4656 69.6929A 0.5625 0.5625 0 0 0 37.1479 70.2871C 37.1964006317303 70.53468666987894 37.24343665981868 70.7965693820594 37.28812229269129 71.07282283175081 C 37.40141513230602 71.77325439290139 37.499579496941436 72.565726324765 37.56760277904365 73.45021419724405 A 82.5 82.5 0 0 1 36.4823 73.9953C 35.81345600236902 73.41252937104468 35.236415579954915 72.8605580346729 34.74223697237276 72.351414495804 C 34.54733208289225 72.15060399232317 34.36535785396326 71.95648979170142 34.195733381532634 71.7697849098187 A 0.5625 0.5625 0 0 0 33.5294 71.6697A 79.125 79.125 0 0 1 33.3499 71.7534A 0.5625 0.5625 0 0 0 32.9983 72.3282C 33.032242920308775 72.5781314944653 33.063972245387745 72.84230604435109 33.09251956767375 73.12069035540674 C 33.16489426044826 73.82652428999023 33.216814401620745 74.62336323495748 33.23329420307709 75.51030989604507 A 82.5 82.5 0 0 1 32.1181 75.9913C 31.484306342889436 75.37069426239361 30.94033646045796 74.78610485752608 30.476597988823965 74.24908877835304 C 30.293698939936927 74.03728530300893 30.12331931958624 73.83291865248474 29.96483774833011 73.63666685978363 A 0.5625 0.5625 0 0 0 29.3054 73.498A 79.125 79.125 0 0 1 29.1214 73.5711A 0.5625 0.5625 0 0 0 28.7369 74.1245C 28.756314554954887 74.3759948961402 28.77262981503205 74.64156740067699 28.78494223162928 74.92114060870874 C 28.816153884512886 75.62998859811697 28.821654120899648 76.42849830543153 28.78653467927855 77.3149026083829 A 82.5 82.5 0 0 1 27.6453 77.7303C 27.048623756867702 77.07382858238932 26.539565036311394 76.4585991745247 26.10783584482062 75.89552764747104 C 25.93756150901316 75.67344787617938 25.77935300794365 75.45952028780736 25.632550589332983 75.25438563823235 A 0.5625 0.5625 0 0 0 24.9823 75.0776A 79.125 79.125 0 0 1 24.7944 75.1399A 0.5625 0.5625 0 0 0 24.3783 75.67C 24.38308392374378 75.92219347425265 24.38392991314351 76.18826532015008 24.379965762731597 76.46808143791877 C 24.36990876537076 77.17754496493612 24.328970485912922 77.97502353051071 24.242370634288033 78.85788616374933 A 82.5 82.5 0 0 1 23.0789 79.2062C 22.521417190092695 78.51616946360743 22.048992124983187 77.87238179431563 21.65073304855898 77.28516007519282 C 21.4936595802844 77.05355545560197 21.34815752598396 76.83079079262401 21.213530992934125 76.61746739689539 A 0.5625 0.5625 0 0 0 20.5747 76.4032A 79.125 79.125 0 0 1 20.3834 76.4544A 0.5625 0.5625 0 0 0 19.9373 76.9594C 19.927348654817955 77.21149538225193 19.912722510979922 77.47716626660652 19.89249520698904 77.75627848494332 C 19.841203589079353 78.46395694956975 19.753965315955902 79.25770595837437 19.616178080812578 80.13403959421295 A 82.5 82.5 0 0 1 18.4344 80.4141C 17.918005276532938 79.6928364810681 17.483812403747923 79.02266892403584 17.12037102503897 78.41328398526073 C 16.977029911193487 78.17293819409066 16.84472663655628 77.94209022161182 16.722731522640093 77.7212998985748 A 0.5625 0.5625 0 0 0 16.0974 77.4702A 79.125 79.125 0 0 1 15.9035 77.5103A 0.5625 0.5625 0 0 0 15.4288 77.9885C 15.404185545897713 78.23953803060024 15.374136759062862 78.50390900723549 15.337714744286915 78.78137289874444 C 15.24536206042741 79.48487174106599 15.112118980339966 80.27220539771017 14.923610590066417 81.13904480052189 A 82.5 82.5 0 0 1 13.7276 81.3499C 13.253964504928232 80.59984816604944 12.859472995708707 79.90556835615318 12.5320790852959 79.27608216346233 C 12.402955346835197 79.0278084547907 12.284298524262981 78.78965828927662 12.175347622329298 78.56214812349485 A 0.5625 0.5625 0 0 0 11.5657 78.2752A 79.125 79.125 0 0 1 11.3698 78.3039A 0.5625 0.5625 0 0 0 10.868 78.7536C 10.82889954917012 79.00284284839482 10.783529794921382 79.26501936961046 10.731036309929253 79.53989608431182 C 10.597935052368559 80.23683488693338 10.419138017723036 81.01508910354764 10.180546325041021 81.86950116318489 A 82.5 82.5 0 0 1 8.97428 82.0105C 8.545076512882389 81.23413547811725 8.191621201622208 80.51809263846458 7.90138255686429 79.8706351738749 C 7.786913107646164 79.61527362734267 7.682304234266593 79.37062709356879 7.586766199679957 79.13716690742662 A 0.5625 0.5625 0 0 0 6.99482 78.8152A 79.125 79.125 0 0 1 6.79756 78.8325A 0.5625 0.5625 0 0 0 6.27052 79.2523C 6.216971984175463 79.49882705375069 6.156434779399757 79.75792199718893 6.088047445528241 80.02928143929032 C 5.914647986789734 80.71730198191459 5.690901990154504 81.48384339258045 5.403034313827643 82.32293704909125 A 82.5 82.5 0 0 1 4.19061 82.3936C 3.807274686797148 81.5935521897864 3.496051554385974 80.85816918268868 3.2439502509839233 80.19493123731252 C 3.144522419390081 79.93334591556035 3.0543154585175136 79.68303081995592 2.9725135617451164 79.44441056882319 A 0.5625 0.5625 0 0 0 2.40029 79.0886A 79.125 79.125 0 0 1 2.20236 79.0943A 0.5625 0.5625 0 0 0 1.6518 79.4828C 1.584008153922437 79.72581239311702 1.5085083373581254 79.98094906350386 1.4244585556975422 80.24787303855001 C 1.2113476246612866 80.92464727744853 0.9434097516638408 81.67688214867526 0.6072401447864557 82.49781817473477 A 82.5 82.5 0 0 1 -0.60724 82.4978C -0.9434097516638309 81.67688214867526 -1.211347624661277 80.92464727744853 -1.4244585556975327 80.24787303855001 C -1.5085083373581156 79.98094906350386 -1.5840081539224273 79.72581239311702 -1.6517971211556883 79.4828394923901 A 0.5625 0.5625 0 0 0 -2.20236 79.0943A 79.125 79.125 0 0 1 -2.40029 79.0886A 0.5625 0.5625 0 0 0 -2.97251 79.4444C -3.054315458517504 79.68303081995592 -3.1445224193900714 79.93334591556035 -3.2439502509839127 80.19493123731252 C -3.4960515543859643 80.85816918268868 -3.8072746867971374 81.5935521897864 -4.190608732687352 82.39355279774361 A 82.5 82.5 0 0 1 -5.40303 82.3229C -5.690901990154494 81.48384339258045 -5.914647986789724 80.71730198191459 -6.088047445528231 80.02928143929032 C -6.156434779399747 79.75792199718893 -6.216971984175453 79.49882705375069 -6.270518645462552 79.25232364681436 A 0.5625 0.5625 0 0 0 -6.79756 78.8325A 79.125 79.125 0 0 1 -6.99482 78.8152A 0.5625 0.5625 0 0 0 -7.58677 79.1372C -7.682304234266584 79.37062709356879 -7.786913107646155 79.61527362734267 -7.901382556864279 79.8706351738749 C -8.1916212016222 80.51809263846458 -8.545076512882382 81.23413547811725 -8.974277916715666 82.01049371914907 A 82.5 82.5 0 0 1 -10.1805 81.8695C -10.419138017723025 81.01508910354764 -10.59793505236855 80.23683488693338 -10.731036309929243 79.53989608431182 C -10.783529794921373 79.26501936961046 -10.82889954917011 79.00284284839482 -10.868022719559049 78.75364302474937 A 0.5625 0.5625 0 0 0 -11.3698 78.3039A 79.125 79.125 0 0 1 -11.5657 78.2752A 0.5625 0.5625 0 0 0 -12.1753 78.5621C -12.284298524262972 78.78965828927662 -12.402955346835189 79.0278084547907 -12.53207908529589 79.27608216346233 C -12.859472995708698 79.90556835615318 -13.253964504928224 80.59984816604944 -13.727580985014503 81.34993708961862 A 82.5 82.5 0 0 1 -14.9236 81.139C -15.112118980339957 80.27220539771017 -15.245362060427402 79.48487174106599 -15.337714744286906 78.78137289874444 C -15.374136759062853 78.50390900723549 -15.404185545897704 78.23953803060024 -15.428752844964032 77.98848500356651 A 0.5625 0.5625 0 0 0 -15.9035 77.5103A 79.125 79.125 0 0 1 -16.0974 77.4702A 0.5625 0.5625 0 0 0 -16.7227 77.7213C -16.844726636556267 77.94209022161182 -16.977029911193476 78.17293819409066 -17.120371025038963 78.41328398526073 C -17.483812403747915 79.02266892403584 -17.918005276532927 79.6928364810681 -18.43443426462336 80.41411802369232 A 82.5 82.5 0 0 1 -19.6162 80.134C -19.75396531595589 79.25770595837437 -19.841203589079345 78.46395694956975 -19.892495206989032 77.75627848494332 C -19.91272251097991 77.47716626660652 -19.927348654817948 77.21149538225193 -19.937276954598218 76.95943863580446 A 0.5625 0.5625 0 0 0 -20.3834 76.4544A 79.125 79.125 0 0 1 -20.5747 76.4032A 0.5625 0.5625 0 0 0 -21.2135 76.6175C -21.348157525983954 76.83079079262401 -21.493659580284394 77.05355545560197 -21.650733048558973 77.28516007519282 C -22.048992124983176 77.87238179431563 -22.521417190092688 78.51616946360743 -23.078911253963305 79.20620303686275 A 82.5 82.5 0 0 1 -24.2424 78.8579C -24.328970485912915 77.97502353051071 -24.36990876537075 77.17754496493612 -24.37996576273159 76.46808143791877 C -24.383929913143504 76.18826532015008 -24.383083923743772 75.92219347425265 -24.37833963001426 75.66998588863476 A 0.5625 0.5625 0 0 0 -24.7944 75.1399A 79.125 79.125 0 0 1 -24.9823 75.0776A 0.5625 0.5625 0 0 0 -25.6325 75.2544C -25.77935300794364 75.45952028780738 -25.937561509013154 75.67344787617938 -26.10783584482061 75.89552764747106 C -26.539565036311387 76.4585991745247 -27.04862375686769 77.07382858238934 -27.64529651307695 77.73027933108884 A 82.5 82.5 0 0 1 -28.7865 77.3149C -28.821654120899638 76.42849830543155 -28.81615388451288 75.62998859811697 -28.78494223162927 74.92114060870875 C -28.772629815032044 74.64156740067699 -28.756314554954876 74.37599489614021 -28.736913720903793 74.12448986198716 A 0.5625 0.5625 0 0 0 -29.1214 73.5711A 79.125 79.125 0 0 1 -29.3054 73.498A 0.5625 0.5625 0 0 0 -29.9648 73.6367C -30.123319319586233 73.83291865248474 -30.293698939936917 74.03728530300893 -30.476597988823958 74.24908877835304 C -30.940336460457946 74.78610485752608 -31.48430634288943 75.37069426239361 -32.11813883970262 75.99134096499827 A 82.5 82.5 0 0 1 -33.2333 75.5103C -33.21681440162074 74.62336323495748 -33.16489426044824 73.82652428999023 -33.09251956767374 73.12069035540674 C -33.06397224538773 72.84230604435109 -33.03224292030876 72.5781314944653 -32.998251192217346 72.32818002520064 A 0.5625 0.5625 0 0 0 -33.3499 71.7534A 79.125 79.125 0 0 1 -33.5294 71.6697A 0.5625 0.5625 0 0 0 -34.1957 71.7698C -34.365357853963246 71.95648979170143 -34.54733208289224 72.15060399232318 -34.74223697237275 72.35141449580401 C -35.23641557995491 72.86055803467292 -35.813456002369016 73.4125293710447 -36.48230355125187 73.995271955574 A 82.5 82.5 0 0 1 -37.5676 73.4502C -37.49957949694143 72.56572632476501 -37.40141513230601 71.7732543929014 -37.288122292691284 71.07282283175083 C -37.24343665981867 70.79656938205942 -37.196400631730285 70.53468666987895 -37.14793302684657 70.28713452215439 A 0.5625 0.5625 0 0 0 -37.4656 69.6929A 79.125 79.125 0 0 1 -37.6399 69.5989A 0.5625 0.5625 0 0 0 -38.3109 69.6601C -38.49111489545998 69.83658294675281 -38.68406798977916 70.01978787646262 -38.89031922340283 70.20892592890142 C -39.41326582295363 70.68847414689628 -40.02142426321876 71.20595971849244 -40.72302369578456 71.74882636850313 A 82.5 82.5 0 0 1 -41.7748 71.1416C -41.65545788545646 70.2625499668286 -41.51138145449485 69.47712652223501 -41.35755381514714 68.7844673732039 C -41.29688107372467 68.5112795391045 -41.23469749765702 68.25257479283037 -41.171918015013865 68.00825960475304 A 0.5625 0.5625 0 0 0 -41.4545 67.3965A 79.125 79.125 0 0 1 -41.623 67.2926A 0.5625 0.5625 0 0 0 -42.2965 67.3146C -42.48663018822564 67.48037121136144 -42.68990925574169 67.65204696266933 -42.90680894462124 67.82887258076691 C -43.45675405038266 68.27720283851544 -44.093972692844964 68.75845163796787 -44.82595001869997 69.2596054645567 A 82.5 82.5 0 0 1 -45.8406 68.5922C -45.67038739021144 67.72162738089021 -45.48088640195969 66.9459100478832 -45.28704446691757 66.26336705027576 C -45.2105899142967 65.99416921292344 -45.133469199787434 65.73951780752597 -45.05659026528174 65.49926626435615 A 0.5625 0.5625 0 0 0 -45.3031 64.8721A 79.125 79.125 0 0 1 -45.4653 64.7586A 0.5625 0.5625 0 0 0 -46.1389 64.7414C -46.338384173259996 64.89582726019873 -46.55130138195492 65.05539293670495 -46.77811560620114 65.21930779854247 C -47.35319837801631 65.63490308836805 -48.01732107649649 66.0782867220751 -48.77719951607198 66.53603197932942 A 82.5 82.5 0 0 1 -49.7514 65.8108C -49.53078276065818 64.95155624467061 -49.2964984264754 64.18816980515754 -49.06329809548784 63.518052468423825 C -48.97132042967352 63.25375550808758 -48.87952352880856 63.00401910331463 -48.78880527641925 62.768644140224595 A 0.5625 0.5625 0 0 0 -48.9984 62.1282A 79.125 79.125 0 0 1 -49.1538 62.0054A 0.5625 0.5625 0 0 0 -49.8252 61.9491C -50.03334373432173 62.09169637187724 -50.25517863975866 62.23861205384181 -50.49113993183306 62.38906152341286 C -51.089414471640296 62.77051560240828 -51.7781940451498 63.17453380050331 -52.563402410340075 63.5873216233684 A 82.5 82.5 0 0 1 -53.4937 62.8067C -53.22358164084248 61.96170960204938 -52.9453067047546 61.213237114097296 -52.67353705392382 60.55781290318414 C -52.566347498222335 60.299311117116524 -52.46018502265659 60.05533474190967 -52.355934414233545 59.82563279326832 A 0.5625 0.5625 0 0 0 -52.528 59.1741A 79.125 79.125 0 0 1 -52.6759 59.0425A 0.5625 0.5625 0 0 0 -53.343 58.9473C -53.55900629786803 59.077466837696406 -53.789008280947144 59.21123540895662 -54.03331822252913 59.34771041287982 C -54.652760158665075 59.69373256118821 -55.36386599515517 60.05701825397781 -56.17174738940428 60.423451899126 A 82.5 82.5 0 0 1 -57.0551 59.59C -56.736288768281675 58.76220414765155 -56.41496482458655 58.0311782052363 -56.10554543638433 57.39266486820381 C -55.9835066863221 57.14083294462207 -55.863337856267954 56.903442137806096 -55.74590764287032 56.680190442297196 A 0.5625 0.5625 0 0 0 -55.8798 56.0198A 79.125 79.125 0 0 1 -56.0198 55.8798A 0.5625 0.5625 0 0 0 -56.6802 55.7459C -56.90344213780607 55.86333785626797 -57.14083294462205 55.98350668632212 -57.392664868203795 56.10554543638435 C -58.03117820523629 56.41496482458657 -58.76220414765153 56.73628876828169 -59.59002495605017 57.05512834024964 A 82.5 82.5 0 0 1 -60.4235 56.1717C -60.05701825397779 55.36386599515519 -59.6937325611882 54.652760158665096 -59.347710412879806 54.03331822252915 C -59.2112354089566 53.789008280947165 -59.07746683769639 53.559006297868045 -58.94725436599466 53.342960268560546 A 0.5625 0.5625 0 0 0 -59.0425 52.6759A 79.125 79.125 0 0 1 -59.1741 52.528A 0.5625 0.5625 0 0 0 -59.8256 52.3559C -60.055334741909654 52.4601850226566 -60.2993111171165 52.56634749822235 -60.55781290318412 52.67353705392384 C -61.213237114097275 52.94530670475461 -61.96170960204935 53.2235816408425 -62.806668741022406 53.49374828744494 A 82.5 82.5 0 0 1 -63.5873 52.5634C -63.1745338005033 51.77819404514982 -62.77051560240826 51.08941447164032 -62.38906152341284 50.491139931833075 C -62.23861205384179 50.255178639758675 -62.09169637187723 50.03334373432175 -61.94914223965785 49.825234402591065 A 0.5625 0.5625 0 0 0 -62.0054 49.1538A 79.125 79.125 0 0 1 -62.1282 48.9984A 0.5625 0.5625 0 0 0 -62.7686 48.7888C -63.004019103314626 48.87952352880858 -63.253755508087565 48.97132042967354 -63.51805246842381 49.06329809548786 C -64.18816980515753 49.29649842647542 -64.9515562446706 49.5307827606582 -65.81079463995727 49.751362323482276 A 82.5 82.5 0 0 1 -66.536 48.7772C -66.07828672207509 48.017321076496515 -65.63490308836803 47.35319837801632 -65.21930779854246 46.77811560620116 C -65.05539293670493 46.55130138195494 -64.89582726019873 46.33838417326002 -64.7414138255207 46.13891571520927 A 0.5625 0.5625 0 0 0 -64.7586 45.4653A 79.125 79.125 0 0 1 -64.8721 45.3031A 0.5625 0.5625 0 0 0 -65.4993 45.0566C -65.73951780752596 45.133469199787456 -65.99416921292342 45.21058991429671 -66.26336705027575 45.287044466917585 C -66.94591004788319 45.4808864019597 -67.72162738089018 45.67038739021146 -68.59223764174634 45.84063349783939 A 82.5 82.5 0 0 1 -69.2596 44.826C -68.75845163796784 44.093972692844986 -68.27720283851542 43.45675405038268 -67.8288725807669 42.906808944621254 C -67.65204696266932 42.6899092557417 -67.48037121136143 42.48663018822566 -67.31462096040927 42.29647754197664 A 0.5625 0.5625 0 0 0 -67.2926 41.623A 79.125 79.125 0 0 1 -67.3965 41.4545A 0.5625 0.5625 0 0 0 -68.0083 41.1719C -68.25257479283036 41.234697497657024 -68.51127953910449 41.29688107372468 -68.78446737320388 41.357553815147156 C -69.47712652223501 41.51138145449487 -70.26254996682859 41.65545788545647 -71.14158622371666 41.774794478950184 A 82.5 82.5 0 0 1 -71.7488 40.723C -71.20595971849242 40.021424263218776 -70.68847414689628 39.41326582295365 -70.20892592890141 38.89031922340284 C -70.0197878764626 38.684067989779166 -69.8365829467528 38.49111489545999 -69.6600567259087 38.31092147737621 A 0.5625 0.5625 0 0 0 -69.5989 37.6399A 79.125 79.125 0 0 1 -69.6929 37.4656A 0.5625 0.5625 0 0 0 -70.2871 37.1479C -70.53468666987894 37.1964006317303 -70.7965693820594 37.243436659818684 -71.07282283175081 37.2881222926913 C -71.77325439290139 37.40141513230603 -72.565726324765 37.49957949694144 -73.45021419724405 37.56760277904366 A 82.5 82.5 0 0 1 -73.9953 36.4823C -73.41252937104468 35.81345600236903 -72.8605580346729 35.23641557995492 -72.351414495804 34.742236972372766 C -72.15060399232317 34.547332082892254 -71.95648979170142 34.36535785396326 -71.7697849098187 34.195733381532634 A 0.5625 0.5625 0 0 0 -71.6697 33.5294A 79.125 79.125 0 0 1 -71.7534 33.3499A 0.5625 0.5625 0 0 0 -72.3282 32.9983C -72.5781314944653 33.03224292030876 -72.84230604435109 33.06397224538773 -73.12069035540674 33.09251956767373 C -73.82652428999023 33.16489426044824 -74.62336323495748 33.21681440162073 -75.51030989604507 33.23329420307707 A 82.5 82.5 0 0 1 -75.9913 32.1181C -75.37069426239361 31.484306342889422 -74.78610485752608 30.940336460457946 -74.24908877835304 30.476597988823954 C -74.03728530300893 30.293698939936913 -73.83291865248474 30.123319319586226 -73.63666685978363 29.964837748330094 A 0.5625 0.5625 0 0 0 -73.498 29.3054A 79.125 79.125 0 0 1 -73.5711 29.1214A 0.5625 0.5625 0 0 0 -74.1245 28.7369C -74.3759948961402 28.75631455495489 -74.64156740067699 28.772629815032058 -74.92114060870874 28.784942231629284 C -75.62998859811697 28.816153884512893 -76.42849830543153 28.82165412089965 -77.3149026083829 28.786534679278553 A 82.5 82.5 0 0 1 -77.7303 27.6453C -77.07382858238932 27.048623756867705 -76.4585991745247 26.5395650363114 -75.89552764747104 26.107835844820624 C -75.67344787617938 25.937561509013168 -75.45952028780736 25.779353007943655 -75.25438563823235 25.632550589332986 A 0.5625 0.5625 0 0 0 -75.0776 24.9823A 79.125 79.125 0 0 1 -75.1399 24.7944A 0.5625 0.5625 0 0 0 -75.67 24.3783C -75.92219347425265 24.383083923743765 -76.18826532015008 24.3839299131435 -76.46808143791877 24.379965762731583 C -77.17754496493612 24.369908765370745 -77.97502353051071 24.328970485912908 -78.85788616374933 24.24237063428802 A 82.5 82.5 0 0 1 -79.2062 23.0789C -78.51616946360743 22.52141719009268 -77.87238179431563 22.048992124983172 -77.28516007519282 21.650733048558966 C -77.05355545560197 21.49365958028439 -76.83079079262401 21.348157525983947 -76.61746739689539 21.213530992934114 A 0.5625 0.5625 0 0 0 -76.4032 20.5747A 79.125 79.125 0 0 1 -76.4544 20.3834A 0.5625 0.5625 0 0 0 -76.9594 19.9373C -77.21149538225193 19.927348654817962 -77.47716626660652 19.912722510979926 -77.75627848494332 19.892495206989043 C -78.46395694956975 19.84120358907936 -79.25770595837437 19.753965315955906 -80.13403959421295 19.616178080812585 A 82.5 82.5 0 0 1 -80.4141 18.4344C -79.6928364810681 17.91800527653294 -79.02266892403584 17.48381240374793 -78.41328398526073 17.120371025038974 C -78.17293819409066 16.97702991119349 -77.94209022161182 16.84472663655628 -77.72129989857481 16.722731522640096 A 0.5625 0.5625 0 0 0 -77.4702 16.0974A 79.125 79.125 0 0 1 -77.5103 15.9035A 0.5625 0.5625 0 0 0 -77.9885 15.4288C -78.23953803060024 15.4041855458977 -78.5039090072355 15.374136759062848 -78.78137289874445 15.337714744286902 C -79.48487174106599 15.245362060427397 -80.27220539771018 15.112118980339952 -81.13904480052189 14.923610590066405 A 82.5 82.5 0 0 1 -81.3499 13.7276C -80.59984816604945 13.253964504928218 -79.90556835615318 12.859472995708693 -79.27608216346235 12.532079085295887 C -79.02780845479072 12.402955346835183 -78.78965828927662 12.284298524262969 -78.56214812349486 12.175347622329284 A 0.5625 0.5625 0 0 0 -78.2752 11.5657A 79.125 79.125 0 0 1 -78.3039 11.3698A 0.5625 0.5625 0 0 0 -78.7536 10.868C -79.00284284839482 10.828899549170124 -79.26501936961046 10.783529794921385 -79.53989608431182 10.731036309929257 C -80.23683488693338 10.597935052368564 -81.01508910354764 10.41913801772304 -81.86950116318489 10.180546325041027 A 82.5 82.5 0 0 1 -82.0105 8.97428C -81.23413547811725 8.545076512882396 -80.51809263846458 8.191621201622214 -79.8706351738749 7.901382556864293 C -79.61527362734267 7.786913107646168 -79.37062709356879 7.682304234266598 -79.13716690742662 7.586766199679962 A 0.5625 0.5625 0 0 0 -78.8152 6.99482A 79.125 79.125 0 0 1 -78.8325 6.79756A 0.5625 0.5625 0 0 0 -79.2523 6.27052C -79.49882705375069 6.2169719841754505 -79.75792199718893 6.156434779399745 -80.02928143929032 6.088047445528228 C -80.71730198191459 5.914647986789721 -81.48384339258045 5.690901990154492 -82.32293704909125 5.403034313827629 A 82.5 82.5 0 0 1 -82.3936 4.19061C -81.5935521897864 3.8072746867971348 -80.85816918268868 3.4960515543859607 -80.19493123731252 3.24395025098391 C -79.93334591556035 3.1445224193900687 -79.68303081995592 3.054315458517501 -79.44441056882319 2.972513561745104 A 0.5625 0.5625 0 0 0 -79.0886 2.40029A 79.125 79.125 0 0 1 -79.0943 2.20236A 0.5625 0.5625 0 0 0 -79.4828 1.6518C -79.72581239311702 1.584008153922442 -79.98094906350386 1.5085083373581303 -80.24787303855001 1.424458555697547 C -80.92464727744853 1.2113476246612918 -81.67688214867526 0.9434097516638458 -82.49781817473477 0.6072401447864607 A 82.5 82.5 0 0 1 -82.4978 -0.60724C -81.67688214867526 -0.9434097516638258 -80.92464727744853 -1.2113476246612718 -80.24787303855001 -1.4244585556975276 C -79.98094906350386 -1.5085083373581107 -79.72581239311702 -1.5840081539224224 -79.4828394923901 -1.6517971211556834 A 0.5625 0.5625 0 0 0 -79.0943 -2.20236A 79.125 79.125 0 0 1 -79.0886 -2.40029A 0.5625 0.5625 0 0 0 -79.4444 -2.97251C -79.68303081995592 -3.0543154585175163 -79.93334591556035 -3.144522419390084 -80.19493123731252 -3.243950250983926 C -80.85816918268868 -3.4960515543859767 -81.5935521897864 -3.8072746867971508 -82.39355279774361 -4.190608732687366 A 82.5 82.5 0 0 1 -82.3229 -5.40303C -81.48384339258045 -5.690901990154508 -80.71730198191459 -5.914647986789737 -80.02928143929032 -6.088047445528244 C -79.75792199718893 -6.15643477939976 -79.49882705375069 -6.216971984175466 -79.25232364681436 -6.270518645462564 A 0.5625 0.5625 0 0 0 -78.8325 -6.79756A 79.125 79.125 0 0 1 -78.8152 -6.99482A 0.5625 0.5625 0 0 0 -79.1372 -7.58677C -79.37062709356879 -7.682304234266579 -79.61527362734267 -7.78691310764615 -79.8706351738749 -7.901382556864274 C -80.51809263846458 -8.191621201622194 -81.23413547811725 -8.545076512882375 -82.01049371914907 -8.97427791671566 A 82.5 82.5 0 0 1 -81.8695 -10.1805C -81.01508910354764 -10.419138017723022 -80.23683488693338 -10.597935052368545 -79.53989608431182 -10.731036309929237 C -79.26501936961046 -10.783529794921368 -79.00284284839482 -10.828899549170107 -78.75364302474937 -10.868022719559043 A 0.5625 0.5625 0 0 0 -78.3039 -11.3698A 79.125 79.125 0 0 1 -78.2752 -11.5657A 0.5625 0.5625 0 0 0 -78.5621 -12.1753C -78.78965828927662 -12.284298524262987 -79.0278084547907 -12.402955346835201 -79.27608216346233 -12.532079085295905 C -79.90556835615318 -12.85947299570871 -80.59984816604944 -13.253964504928236 -81.34993708961862 -13.727580985014518 A 82.5 82.5 0 0 1 -81.139 -14.9236C -80.27220539771017 -15.11211898033997 -79.48487174106599 -15.245362060427414 -78.78137289874444 -15.33771474428692 C -78.50390900723549 -15.374136759062866 -78.23953803060024 -15.404185545897718 -77.98848500356651 -15.428752844964045 A 0.5625 0.5625 0 0 0 -77.5103 -15.9035A 79.125 79.125 0 0 1 -77.4702 -16.0974A 0.5625 0.5625 0 0 0 -77.7213 -16.7227C -77.94209022161182 -16.844726636556267 -78.17293819409066 -16.977029911193473 -78.41328398526073 -17.120371025038956 C -79.02266892403584 -17.483812403747912 -79.6928364810681 -17.918005276532924 -80.41411802369232 -18.434434264623352 A 82.5 82.5 0 0 1 -80.134 -19.6162C -79.25770595837437 -19.753965315955888 -78.46395694956975 -19.841203589079342 -77.75627848494332 -19.892495206989025 C -77.47716626660652 -19.912722510979908 -77.21149538225193 -19.92734865481794 -76.95943863580446 -19.937276954598214 A 0.5625 0.5625 0 0 0 -76.4544 -20.3834A 79.125 79.125 0 0 1 -76.4032 -20.5747A 0.5625 0.5625 0 0 0 -76.6175 -21.2135C -76.83079079262401 -21.348157525983964 -77.05355545560195 -21.493659580284408 -77.2851600751928 -21.650733048558983 C -77.87238179431561 -22.04899212498319 -78.51616946360743 -22.521417190092702 -79.20620303686275 -23.07891125396332 A 82.5 82.5 0 0 1 -78.8579 -24.2424C -77.97502353051071 -24.32897048591293 -77.1775449649361 -24.369908765370763 -76.46808143791876 -24.3799657627316 C -76.18826532015007 -24.38392991314352 -75.92219347425265 -24.383083923743783 -75.66998588863474 -24.378339630014274 A 0.5625 0.5625 0 0 0 -75.1399 -24.7944A 79.125 79.125 0 0 1 -75.0776 -24.9823A 0.5625 0.5625 0 0 0 -75.2544 -25.6325C -75.45952028780738 -25.779353007943637 -75.67344787617938 -25.93756150901315 -75.89552764747106 -26.107835844820606 C -76.4585991745247 -26.53956503631138 -77.07382858238934 -27.048623756867688 -77.73027933108884 -27.645296513076946 A 82.5 82.5 0 0 1 -77.3149 -28.7865C -76.42849830543155 -28.821654120899634 -75.62998859811697 -28.81615388451287 -74.92114060870875 -28.784942231629266 C -74.64156740067699 -28.77262981503204 -74.37599489614021 -28.756314554954873 -74.12448986198716 -28.73691372090379 A 0.5625 0.5625 0 0 0 -73.5711 -29.1214A 79.125 79.125 0 0 1 -73.498 -29.3054A 0.5625 0.5625 0 0 0 -73.6367 -29.9648C -73.83291865248474 -30.123319319586244 -74.03728530300893 -30.29369893993693 -74.24908877835304 -30.476597988823972 C -74.78610485752608 -30.94033646045796 -75.37069426239361 -31.484306342889443 -75.99134096499827 -32.11813883970263 A 82.5 82.5 0 0 1 -75.5103 -33.2333C -74.62336323495748 -33.21681440162075 -73.82652428999023 -33.16489426044826 -73.12069035540674 -33.092519567673754 C -72.84230604435109 -33.063972245387745 -72.5781314944653 -33.032242920308775 -72.32818002520064 -32.99825119221736 A 0.5625 0.5625 0 0 0 -71.7534 -33.3499A 79.125 79.125 0 0 1 -71.6697 -33.5294A 0.5625 0.5625 0 0 0 -71.7698 -34.1957C -71.95648979170143 -34.365357853963246 -72.15060399232318 -34.54733208289223 -72.35141449580401 -34.742236972372744 C -72.86055803467292 -35.23641557995491 -73.4125293710447 -35.81345600236901 -73.995271955574 -36.48230355125186 A 82.5 82.5 0 0 1 -73.4502 -37.5676C -72.56572632476501 -37.49957949694142 -71.7732543929014 -37.40141513230601 -71.07282283175083 -37.28812229269128 C -70.79656938205942 -37.24343665981866 -70.53468666987895 -37.196400631730285 -70.28713452215439 -37.147933026846566 A 0.5625 0.5625 0 0 0 -69.6929 -37.4656A 79.125 79.125 0 0 1 -69.5989 -37.6399A 0.5625 0.5625 0 0 0 -69.6601 -38.3109C -69.83658294675278 -38.49111489546 -70.0197878764626 -38.68406798977918 -70.2089259289014 -38.890319223402855 C -70.68847414689627 -39.41326582295366 -71.20595971849242 -40.02142426321879 -71.74882636850312 -40.72302369578459 A 82.5 82.5 0 0 1 -71.1416 -41.7748C -70.26254996682859 -41.655457885456485 -69.477126522235 -41.51138145449488 -68.78446737320387 -41.35755381514717 C -68.51127953910449 -41.29688107372469 -68.25257479283034 -41.23469749765704 -68.00825960475302 -41.17191801501389 A 0.5625 0.5625 0 0 0 -67.3965 -41.4545A 79.125 79.125 0 0 1 -67.2926 -41.623A 0.5625 0.5625 0 0 0 -67.3146 -42.2965C -67.48037121136144 -42.48663018822564 -67.65204696266933 -42.68990925574169 -67.82887258076691 -42.90680894462124 C -68.27720283851544 -43.45675405038266 -68.75845163796787 -44.093972692844964 -69.2596054645567 -44.82595001869997 A 82.5 82.5 0 0 1 -68.5922 -45.8406C -67.72162738089021 -45.67038739021144 -66.9459100478832 -45.48088640195969 -66.26336705027576 -45.28704446691757 C -65.99416921292344 -45.2105899142967 -65.73951780752597 -45.133469199787434 -65.49926626435615 -45.05659026528174 A 0.5625 0.5625 0 0 0 -64.8721 -45.3031A 79.125 79.125 0 0 1 -64.7586 -45.4653A 0.5625 0.5625 0 0 0 -64.7414 -46.1389C -64.89582726019873 -46.338384173259996 -65.05539293670495 -46.55130138195492 -65.21930779854247 -46.77811560620114 C -65.63490308836805 -47.35319837801631 -66.0782867220751 -48.01732107649649 -66.53603197932942 -48.77719951607198 A 82.5 82.5 0 0 1 -65.8108 -49.7514C -64.95155624467061 -49.53078276065818 -64.18816980515754 -49.2964984264754 -63.518052468423825 -49.06329809548784 C -63.25375550808758 -48.97132042967352 -63.00401910331463 -48.87952352880856 -62.768644140224595 -48.78880527641925 A 0.5625 0.5625 0 0 0 -62.1282 -48.9984A 79.125 79.125 0 0 1 -62.0054 -49.1538A 0.5625 0.5625 0 0 0 -61.9491 -49.8252C -62.09169637187724 -50.03334373432173 -62.23861205384181 -50.25517863975866 -62.38906152341286 -50.49113993183306 C -62.77051560240828 -51.089414471640296 -63.17453380050331 -51.7781940451498 -63.5873216233684 -52.563402410340075 A 82.5 82.5 0 0 1 -62.8067 -53.4937C -61.96170960204938 -53.22358164084248 -61.213237114097296 -52.9453067047546 -60.55781290318414 -52.67353705392382 C -60.299311117116524 -52.566347498222335 -60.05533474190967 -52.46018502265659 -59.82563279326832 -52.355934414233545 A 0.5625 0.5625 0 0 0 -59.1741 -52.528A 79.125 79.125 0 0 1 -59.0425 -52.6759A 0.5625 0.5625 0 0 0 -58.9473 -53.343C -59.077466837696406 -53.55900629786803 -59.21123540895662 -53.789008280947144 -59.34771041287982 -54.03331822252913 C -59.69373256118821 -54.652760158665075 -60.05701825397781 -55.36386599515517 -60.423451899126 -56.17174738940428 A 82.5 82.5 0 0 1 -59.59 -57.0551C -58.76220414765155 -56.736288768281675 -58.0311782052363 -56.41496482458655 -57.39266486820381 -56.10554543638433 C -57.14083294462207 -55.9835066863221 -56.903442137806096 -55.863337856267954 -56.680190442297196 -55.74590764287032 A 0.5625 0.5625 0 0 0 -56.0198 -55.8798A 79.125 79.125 0 0 1 -55.8798 -56.0198A 0.5625 0.5625 0 0 0 -55.7459 -56.6802C -55.86333785626797 -56.90344213780606 -55.98350668632212 -57.14083294462204 -56.10554543638435 -57.39266486820378 C -56.41496482458657 -58.03117820523627 -56.73628876828169 -58.762204147651524 -57.05512834024964 -59.590024956050165 A 82.5 82.5 0 0 1 -56.1717 -60.4235C -55.36386599515519 -60.05701825397778 -54.652760158665096 -59.693732561188185 -54.03331822252915 -59.34771041287979 C -53.789008280947165 -59.21123540895659 -53.559006297868045 -59.077466837696385 -53.342960268560546 -58.947254365994645 A 0.5625 0.5625 0 0 0 -52.6759 -59.0425A 79.125 79.125 0 0 1 -52.528 -59.1741A 0.5625 0.5625 0 0 0 -52.3559 -59.8256C -52.46018502265662 -60.055334741909654 -52.566347498222356 -60.2993111171165 -52.67353705392385 -60.55781290318412 C -52.945306704754614 -61.213237114097275 -53.223581640842504 -61.96170960204935 -53.49374828744495 -62.806668741022406 A 82.5 82.5 0 0 1 -52.5634 -63.5873C -51.778194045149824 -63.1745338005033 -51.089414471640325 -62.77051560240826 -50.49113993183309 -62.38906152341284 C -50.25517863975868 -62.23861205384179 -50.03334373432176 -62.09169637187723 -49.82523440259107 -61.94914223965785 A 0.5625 0.5625 0 0 0 -49.1538 -62.0054A 79.125 79.125 0 0 1 -48.9984 -62.1282A 0.5625 0.5625 0 0 0 -48.7888 -62.7686C -48.87952352880858 -63.00401910331461 -48.97132042967354 -63.25375550808755 -49.06329809548786 -63.5180524684238 C -49.29649842647542 -64.18816980515751 -49.5307827606582 -64.95155624467058 -49.751362323482276 -65.81079463995727 A 82.5 82.5 0 0 1 -48.7772 -66.536C -48.017321076496515 -66.07828672207508 -47.35319837801632 -65.63490308836802 -46.77811560620116 -65.21930779854245 C -46.55130138195494 -65.05539293670492 -46.33838417326002 -64.89582726019871 -46.13891571520927 -64.74141382552068 A 0.5625 0.5625 0 0 0 -45.4653 -64.7586A 79.125 79.125 0 0 1 -45.3031 -64.8721A 0.5625 0.5625 0 0 0 -45.0566 -65.4993C -45.13346919978743 -65.73951780752597 -45.21058991429669 -65.99416921292344 -45.28704446691756 -66.26336705027576 C -45.48088640195968 -66.9459100478832 -45.67038739021143 -67.72162738089021 -45.84063349783937 -68.59223764174635 A 82.5 82.5 0 0 1 -44.826 -69.2596C -44.09397269284496 -68.75845163796787 -43.456754050382656 -68.27720283851544 -42.906808944621226 -67.82887258076691 C -42.68990925574168 -67.65204696266933 -42.48663018822563 -67.48037121136144 -42.29647754197662 -67.31462096040929 A 0.5625 0.5625 0 0 0 -41.623 -67.2926A 79.125 79.125 0 0 1 -41.4545 -67.3965A 0.5625 0.5625 0 0 0 -41.1719 -68.0083C -41.234697497657066 -68.25257479283033 -41.29688107372472 -68.51127953910448 -41.3575538151472 -68.78446737320385 C -41.51138145449491 -69.47712652223498 -41.655457885456514 -70.26254996682856 -41.77479447895023 -71.14158622371663 A 82.5 82.5 0 0 1 -40.723 -71.7488C -40.02142426321882 -71.2059597184924 -39.41326582295369 -70.68847414689625 -38.890319223402884 -70.20892592890138 C -38.68406798977921 -70.01978787646259 -38.49111489546003 -69.83658294675277 -38.310921477376255 -69.66005672590867 A 0.5625 0.5625 0 0 0 -37.6399 -69.5989A 79.125 79.125 0 0 1 -37.4656 -69.6929A 0.5625 0.5625 0 0 0 -37.1479 -70.2871C -37.196400631730306 -70.53468666987894 -37.243436659818684 -70.7965693820594 -37.2881222926913 -71.07282283175081 C -37.401415132306035 -71.77325439290139 -37.49957949694144 -72.565726324765 -37.56760277904366 -73.45021419724405 A 82.5 82.5 0 0 1 -36.4823 -73.9953C -35.81345600236903 -73.41252937104468 -35.23641557995493 -72.8605580346729 -34.742236972372766 -72.351414495804 C -34.547332082892254 -72.15060399232317 -34.36535785396327 -71.95648979170142 -34.195733381532634 -71.7697849098187 A 0.5625 0.5625 0 0 0 -33.5294 -71.6697A 79.125 79.125 0 0 1 -33.3499 -71.7534A 0.5625 0.5625 0 0 0 -32.9983 -72.3282C -33.03224292030876 -72.5781314944653 -33.06397224538773 -72.84230604435109 -33.09251956767374 -73.12069035540674 C -33.16489426044824 -73.82652428999023 -33.21681440162074 -74.62336323495748 -33.23329420307707 -75.51030989604507 A 82.5 82.5 0 0 1 -32.1181 -75.9913C -31.48430634288943 -75.37069426239361 -30.940336460457946 -74.78610485752608 -30.476597988823958 -74.24908877835304 C -30.293698939936917 -74.03728530300893 -30.123319319586233 -73.83291865248474 -29.964837748330098 -73.63666685978363 A 0.5625 0.5625 0 0 0 -29.3054 -73.498A 79.125 79.125 0 0 1 -29.1214 -73.5711A 0.5625 0.5625 0 0 0 -28.7369 -74.1245C -28.75631455495486 -74.37599489614021 -28.772629815032026 -74.64156740067699 -28.784942231629252 -74.92114060870875 C -28.81615388451286 -75.62998859811697 -28.82165412089962 -76.42849830543155 -28.78653467927852 -77.31490260838291 A 82.5 82.5 0 0 1 -27.6453 -77.7303C -27.048623756867674 -77.07382858238934 -26.53956503631137 -76.4585991745247 -26.107835844820592 -75.89552764747106 C -25.937561509013136 -75.67344787617938 -25.779353007943623 -75.45952028780738 -25.632550589332954 -75.25438563823236 A 0.5625 0.5625 0 0 0 -24.9823 -75.0776A 79.125 79.125 0 0 1 -24.7944 -75.1399A 0.5625 0.5625 0 0 0 -24.3783 -75.67C -24.383083923743808 -75.92219347425265 -24.38392991314354 -76.18826532015007 -24.379965762731626 -76.46808143791876 C -24.369908765370784 -77.1775449649361 -24.32897048591295 -77.97502353051071 -24.24237063428806 -78.85788616374933 A 82.5 82.5 0 0 1 -23.0789 -79.2062C -22.521417190092723 -78.51616946360743 -22.04899212498321 -77.87238179431561 -21.650733048559008 -77.2851600751928 C -21.49365958028443 -77.05355545560195 -21.34815752598399 -76.83079079262401 -21.213530992934153 -76.61746739689539 A 0.5625 0.5625 0 0 0 -20.5747 -76.4032A 79.125 79.125 0 0 1 -20.3834 -76.4544A 0.5625 0.5625 0 0 0 -19.9373 -76.9594C -19.92734865481797 -77.21149538225193 -19.912722510979933 -77.47716626660652 -19.89249520698905 -77.75627848494332 C -19.841203589079367 -78.46395694956975 -19.753965315955913 -79.25770595837437 -19.61617808081259 -80.13403959421295 A 82.5 82.5 0 0 1 -18.4344 -80.4141C -17.91800527653295 -79.6928364810681 -17.483812403747937 -79.02266892403584 -17.12037102503898 -78.41328398526073 C -16.977029911193497 -78.17293819409066 -16.844726636556288 -77.94209022161182 -16.722731522640103 -77.72129989857481 A 0.5625 0.5625 0 0 0 -16.0974 -77.4702A 79.125 79.125 0 0 1 -15.9035 -77.5103A 0.5625 0.5625 0 0 0 -15.4288 -77.9885C -15.404185545897707 -78.23953803060024 -15.374136759062855 -78.50390900723549 -15.337714744286908 -78.78137289874444 C -15.245362060427404 -79.48487174106599 -15.11211898033996 -80.27220539771017 -14.92361059006641 -81.13904480052189 A 82.5 82.5 0 0 1 -13.7276 -81.3499C -13.253964504928225 -80.59984816604944 -12.8594729957087 -79.90556835615318 -12.532079085295893 -79.27608216346233 C -12.40295534683519 -79.0278084547907 -12.284298524262976 -78.78965828927662 -12.17534762232929 -78.56214812349485 A 0.5625 0.5625 0 0 0 -11.5657 -78.2752A 79.125 79.125 0 0 1 -11.3698 -78.3039A 0.5625 0.5625 0 0 0 -10.868 -78.7536C -10.828899549170096 -79.00284284839482 -10.783529794921355 -79.26501936961046 -10.731036309929227 -79.53989608431182 C -10.597935052368534 -80.23683488693338 -10.41913801772301 -81.01508910354764 -10.180546325040995 -81.86950116318489 A 82.5 82.5 0 0 1 -8.97428 -82.0105C -8.545076512882364 -81.23413547811725 -8.191621201622183 -80.51809263846458 -7.901382556864263 -79.8706351738749 C -7.7869131076461375 -79.61527362734267 -7.682304234266568 -79.37062709356879 -7.586766199679932 -79.13716690742662 A 0.5625 0.5625 0 0 0 -6.99482 -78.8152A 79.125 79.125 0 0 1 -6.79756 -78.8325A 0.5625 0.5625 0 0 0 -6.27052 -79.2523C -6.2169719841754905 -79.49882705375069 -6.156434779399785 -79.75792199718893 -6.088047445528268 -80.02928143929032 C -5.9146479867897614 -80.71730198191459 -5.690901990154533 -81.48384339258045 -5.4030343138276695 -82.32293704909125 A 82.5 82.5 0 0 1 -4.19061 -82.3936C -3.8072746867971756 -81.5935521897864 -3.4960515543860016 -80.85816918268868 -3.24395025098395 -80.19493123731252 C -3.1445224193901087 -79.93334591556035 -3.054315458517541 -79.68303081995592 -2.972513561745144 -79.44441056882319 A 0.5625 0.5625 0 0 0 -2.40029 -79.0886A 79.125 79.125 0 0 1 -2.20236 -79.0943A 0.5625 0.5625 0 0 0 -1.6518 -79.4828C -1.5840081539224469 -79.72581239311702 -1.5085083373581352 -79.98094906350386 -1.424458555697552 -80.24787303855001 C -1.2113476246612966 -80.92464727744853 -0.9434097516638508 -81.67688214867526 -0.6072401447864658 -82.49781817473477 A 82.5 82.5 0 0 1 0.60724 -82.4978C 0.9434097516638208 -81.67688214867526 1.2113476246612669 -80.92464727744853 1.4244585556975227 -80.24787303855001 C 1.5085083373581059 -79.98094906350386 1.5840081539224176 -79.72581239311702 1.6517971211556786 -79.4828394923901 A 0.5625 0.5625 0 0 0 2.20236 -79.0943A 79.125 79.125 0 0 1 2.40029 -79.0886A 0.5625 0.5625 0 0 0 2.97251 -79.4444C 3.054315458517512 -79.68303081995592 3.1445224193900794 -79.93334591556035 3.2439502509839215 -80.19493123731252 C 3.4960515543859723 -80.85816918268868 3.8072746867971463 -81.5935521897864 4.190608732687361 -82.39355279774361 A 82.5 82.5 0 0 1 5.40303 -82.3229C 5.690901990154503 -81.48384339258045 5.914647986789732 -80.71730198191459 6.08804744552824 -80.02928143929032 C 6.156434779399755 -79.75792199718893 6.216971984175461 -79.49882705375069 6.27051864546256 -79.25232364681436 A 0.5625 0.5625 0 0 0 6.79756 -78.8325A 79.125 79.125 0 0 1 6.99482 -78.8152A 0.5625 0.5625 0 0 0 7.58677 -79.1372C 7.682304234266609 -79.37062709356877 7.786913107646178 -79.61527362734266 7.901382556864304 -79.87063517387489 C 8.191621201622224 -80.51809263846457 8.545076512882407 -81.23413547811725 8.97427791671569 -82.01049371914907 A 82.5 82.5 0 0 1 10.1805 -81.8695C 10.41913801772305 -81.01508910354761 10.597935052368575 -80.23683488693337 10.731036309929268 -79.5398960843118 C 10.783529794921396 -79.26501936961044 10.828899549170135 -79.0028428483948 10.868022719559074 -78.75364302474937 A 0.5625 0.5625 0 0 0 11.3698 -78.3039A 79.125 79.125 0 0 1 11.5657 -78.2752A 0.5625 0.5625 0 0 0 12.1753 -78.5621C 12.284298524262946 -78.78965828927662 12.402955346835162 -79.02780845479072 12.532079085295864 -79.27608216346235 C 12.859472995708671 -79.90556835615318 13.253964504928195 -80.59984816604945 13.727580985014477 -81.34993708961862 A 82.5 82.5 0 0 1 14.9236 -81.139C 15.112118980339929 -80.27220539771018 15.245362060427375 -79.48487174106599 15.33771474428688 -78.78137289874445 C 15.374136759062827 -78.5039090072355 15.404185545897677 -78.23953803060024 15.428752844964006 -77.98848500356652 A 0.5625 0.5625 0 0 0 15.9035 -77.5103A 79.125 79.125 0 0 1 16.0974 -77.4702A 0.5625 0.5625 0 0 0 16.7227 -77.7213C 16.84472663655626 -77.94209022161182 16.97702991119347 -78.17293819409068 17.120371025038953 -78.41328398526075 C 17.483812403747905 -79.02266892403586 17.91800527653292 -79.69283648106811 18.43443426462335 -80.41411802369232 A 82.5 82.5 0 0 1 19.6162 -80.134C 19.753965315955885 -79.25770595837439 19.841203589079335 -78.46395694956976 19.89249520698902 -77.75627848494334 C 19.912722510979904 -77.47716626660653 19.92734865481794 -77.21149538225193 19.93727695459821 -76.95943863580447 A 0.5625 0.5625 0 0 0 20.3834 -76.4544A 79.125 79.125 0 0 1 20.5747 -76.4032A 0.5625 0.5625 0 0 0 21.2135 -76.6175C 21.34815752598396 -76.83079079262401 21.4936595802844 -77.05355545560197 21.65073304855898 -77.28516007519282 C 22.048992124983187 -77.87238179431563 22.521417190092695 -78.51616946360743 23.078911253963316 -79.20620303686275 A 82.5 82.5 0 0 1 24.2424 -78.8579C 24.328970485912922 -77.97502353051071 24.36990876537076 -77.17754496493612 24.379965762731597 -76.46808143791877 C 24.38392991314351 -76.18826532015008 24.38308392374378 -75.92219347425265 24.378339630014267 -75.66998588863476 A 0.5625 0.5625 0 0 0 24.7944 -75.1399A 79.125 79.125 0 0 1 24.9823 -75.0776A 0.5625 0.5625 0 0 0 25.6325 -75.2544C 25.77935300794367 -75.45952028780736 25.93756150901318 -75.67344787617938 26.107835844820638 -75.89552764747104 C 26.539565036311412 -76.4585991745247 27.04862375686772 -77.07382858238932 27.64529651307698 -77.73027933108882 A 82.5 82.5 0 0 1 28.7865 -77.3149C 28.821654120899666 -76.42849830543153 28.816153884512904 -75.62998859811697 28.784942231629298 -74.92114060870874 C 28.77262981503207 -74.64156740067699 28.756314554954905 -74.3759948961402 28.73691372090382 -74.12448986198714 A 0.5625 0.5625 0 0 0 29.1214 -73.5711A 79.125 79.125 0 0 1 29.3054 -73.498A 0.5625 0.5625 0 0 0 29.9648 -73.6367C 30.12331931958621 -73.83291865248475 30.293698939936895 -74.03728530300894 30.476597988823936 -74.24908877835306 C 30.940336460457925 -74.78610485752608 31.4843063428894 -75.37069426239363 32.118138839702596 -75.99134096499829 A 82.5 82.5 0 0 1 33.2333 -75.5103C 33.21681440162071 -74.6233632349575 33.16489426044822 -73.82652428999023 33.09251956767372 -73.12069035540675 C 33.06397224538771 -72.8423060443511 33.03224292030874 -72.57813149446531 32.998251192217325 -72.32818002520064 A 0.5625 0.5625 0 0 0 33.3499 -71.7534A 79.125 79.125 0 0 1 33.5294 -71.6697A 0.5625 0.5625 0 0 0 34.1957 -71.7698C 34.36535785396324 -71.95648979170143 34.54733208289223 -72.15060399232318 34.742236972372744 -72.35141449580401 C 35.2364155799549 -72.86055803467292 35.813456002369 -73.4125293710447 36.48230355125185 -73.995271955574 A 82.5 82.5 0 0 1 37.5676 -73.4502C 37.499579496941415 -72.56572632476501 37.401415132306006 -71.7732543929014 37.28812229269128 -71.07282283175083 C 37.24343665981866 -70.79656938205942 37.19640063173028 -70.53468666987895 37.147933026846566 -70.28713452215439 A 0.5625 0.5625 0 0 0 37.4656 -69.6929A 79.125 79.125 0 0 1 37.6399 -69.5989A 0.5625 0.5625 0 0 0 38.3109 -69.6601C 38.491114895459994 -69.83658294675278 38.68406798977917 -70.0197878764626 38.89031922340285 -70.2089259289014 C 39.413265822953655 -70.68847414689627 40.02142426321878 -71.20595971849242 40.72302369578458 -71.74882636850312 A 82.5 82.5 0 0 1 41.7748 -71.1416C 41.65545788545648 -70.26254996682859 41.511381454494874 -69.477126522235 41.35755381514716 -68.78446737320387 C 41.296881073724684 -68.51127953910449 41.23469749765703 -68.25257479283034 41.17191801501388 -68.00825960475302 A 0.5625 0.5625 0 0 0 41.4545 -67.3965A 79.125 79.125 0 0 1 41.623 -67.2926A 0.5625 0.5625 0 0 0 42.2965 -67.3146C 42.48663018822566 -67.48037121136143 42.6899092557417 -67.65204696266932 42.906808944621254 -67.8288725807669 C 43.45675405038268 -68.27720283851542 44.093972692844986 -68.75845163796784 44.825950018699984 -69.25960546455669 A 82.5 82.5 0 0 1 45.8406 -68.5922C 45.67038739021146 -67.72162738089018 45.4808864019597 -66.94591004788319 45.287044466917585 -66.26336705027575 C 45.21058991429671 -65.99416921292342 45.133469199787456 -65.73951780752596 45.056590265281756 -65.49926626435614 A 0.5625 0.5625 0 0 0 45.3031 -64.8721A 79.125 79.125 0 0 1 45.4653 -64.7586A 0.5625 0.5625 0 0 0 46.1389 -64.7414C 46.33838417325999 -64.89582726019873 46.551301381954914 -65.05539293670495 46.77811560620113 -65.21930779854247 C 47.3531983780163 -65.63490308836805 48.017321076496486 -66.0782867220751 48.77719951607197 -66.53603197932942 A 82.5 82.5 0 0 1 49.7514 -65.8108C 49.53078276065817 -64.95155624467061 49.296498426475395 -64.18816980515754 49.06329809548783 -63.518052468423825 C 48.97132042967351 -63.25375550808758 48.879523528808555 -63.00401910331463 48.78880527641923 -62.768644140224595 A 0.5625 0.5625 0 0 0 48.9984 -62.1282A 79.125 79.125 0 0 1 49.1538 -62.0054A 0.5625 0.5625 0 0 0 49.8252 -61.9491C 50.03334373432173 -62.09169637187724 50.25517863975866 -62.23861205384181 50.49113993183306 -62.38906152341286 C 51.089414471640296 -62.77051560240828 51.7781940451498 -63.17453380050331 52.563402410340075 -63.5873216233684 A 82.5 82.5 0 0 1 53.4937 -62.8067C 53.22358164084248 -61.96170960204938 52.9453067047546 -61.213237114097296 52.67353705392382 -60.55781290318414 C 52.566347498222335 -60.299311117116524 52.46018502265659 -60.05533474190967 52.355934414233545 -59.82563279326832 A 0.5625 0.5625 0 0 0 52.528 -59.1741A 79.125 79.125 0 0 1 52.6759 -59.0425A 0.5625 0.5625 0 0 0 53.343 -58.9473C 53.559006297868045 -59.077466837696385 53.789008280947165 -59.21123540895659 54.03331822252915 -59.34771041287979 C 54.652760158665096 -59.693732561188185 55.36386599515519 -60.05701825397778 56.1717473894043 -60.42345189912597 A 82.5 82.5 0 0 1 57.0551 -59.59C 56.73628876828169 -58.762204147651524 56.41496482458657 -58.03117820523627 56.10554543638435 -57.39266486820378 C 55.98350668632212 -57.14083294462204 55.86333785626797 -56.90344213780606 55.745907642870336 -56.68019044229717 A 0.5625 0.5625 0 0 0 55.8798 -56.0198A 79.125 79.125 0 0 1 56.0198 -55.8798A 0.5625 0.5625 0 0 0 56.6802 -55.7459C 56.903442137806096 -55.86333785626794 57.14083294462207 -55.983506686322094 57.39266486820381 -56.10554543638432 C 58.0311782052363 -56.41496482458654 58.76220414765155 -56.73628876828167 59.59002495605019 -57.05512834024961 A 82.5 82.5 0 0 1 60.4235 -56.1717C 60.05701825397781 -55.363865995155166 59.69373256118821 -54.65276015866507 59.34771041287982 -54.03331822252912 C 59.21123540895662 -53.78900828094714 59.077466837696406 -53.55900629786802 58.947254365994674 -53.342960268560525 A 0.5625 0.5625 0 0 0 59.0425 -52.6759A 79.125 79.125 0 0 1 59.1741 -52.528A 0.5625 0.5625 0 0 0 59.8256 -52.3559C 60.055334741909654 -52.46018502265662 60.2993111171165 -52.566347498222356 60.55781290318412 -52.67353705392385 C 61.213237114097275 -52.945306704754614 61.96170960204935 -53.223581640842504 62.806668741022406 -53.49374828744495 A 82.5 82.5 0 0 1 63.5873 -52.5634C 63.1745338005033 -51.778194045149824 62.77051560240826 -51.089414471640325 62.38906152341284 -50.49113993183309 C 62.23861205384179 -50.25517863975868 62.09169637187723 -50.03334373432176 61.94914223965785 -49.82523440259107 A 0.5625 0.5625 0 0 0 62.0054 -49.1538A 79.125 79.125 0 0 1 62.1282 -48.9984A 0.5625 0.5625 0 0 0 62.7686 -48.7888C 63.00401910331461 -48.87952352880858 63.25375550808755 -48.97132042967354 63.5180524684238 -49.06329809548786 C 64.18816980515751 -49.29649842647542 64.95155624467058 -49.5307827606582 65.81079463995727 -49.751362323482276 A 82.5 82.5 0 0 1 66.536 -48.7772C 66.07828672207508 -48.017321076496515 65.63490308836802 -47.35319837801632 65.21930779854245 -46.77811560620116 C 65.05539293670492 -46.55130138195494 64.89582726019871 -46.33838417326002 64.74141382552068 -46.13891571520927 A 0.5625 0.5625 0 0 0 64.7586 -45.4653A 79.125 79.125 0 0 1 64.8721 -45.3031A 0.5625 0.5625 0 0 0 65.4993 -45.0566C 65.73951780752597 -45.13346919978743 65.99416921292344 -45.21058991429669 66.26336705027576 -45.28704446691756 C 66.9459100478832 -45.48088640195968 67.72162738089021 -45.67038739021143 68.59223764174635 -45.84063349783937 A 82.5 82.5 0 0 1 69.2596 -44.826C 68.75845163796787 -44.09397269284496 68.27720283851544 -43.456754050382656 67.82887258076691 -42.906808944621226 C 67.65204696266933 -42.68990925574168 67.48037121136144 -42.48663018822563 67.31462096040929 -42.29647754197662 A 0.5625 0.5625 0 0 0 67.2926 -41.623A 79.125 79.125 0 0 1 67.3965 -41.4545A 0.5625 0.5625 0 0 0 68.0083 -41.1719C 68.25257479283033 -41.234697497657066 68.51127953910448 -41.29688107372472 68.78446737320385 -41.3575538151472 C 69.47712652223498 -41.51138145449491 70.26254996682856 -41.655457885456514 71.14158622371663 -41.77479447895023 A 82.5 82.5 0 0 1 71.7488 -40.723C 71.2059597184924 -40.02142426321882 70.68847414689625 -39.41326582295369 70.20892592890138 -38.890319223402884 C 70.01978787646259 -38.68406798977921 69.83658294675277 -38.49111489546003 69.66005672590867 -38.310921477376255 A 0.5625 0.5625 0 0 0 69.5989 -37.6399A 79.125 79.125 0 0 1 69.6929 -37.4656A 0.5625 0.5625 0 0 0 70.2871 -37.1479C 70.53468666987894 -37.196400631730306 70.7965693820594 -37.243436659818684 71.07282283175081 -37.2881222926913 C 71.77325439290139 -37.401415132306035 72.565726324765 -37.49957949694144 73.45021419724405 -37.56760277904366 A 82.5 82.5 0 0 1 73.9953 -36.4823C 73.41252937104468 -35.81345600236903 72.8605580346729 -35.23641557995493 72.351414495804 -34.742236972372766 C 72.15060399232317 -34.547332082892254 71.95648979170142 -34.36535785396327 71.7697849098187 -34.195733381532634 A 0.5625 0.5625 0 0 0 71.6697 -33.5294A 79.125 79.125 0 0 1 71.7534 -33.3499A 0.5625 0.5625 0 0 0 72.3282 -32.9983C 72.5781314944653 -33.03224292030877 72.84230604435109 -33.06397224538774 73.12069035540674 -33.09251956767374 C 73.82652428999023 -33.16489426044825 74.62336323495748 -33.21681440162074 75.51030989604507 -33.23329420307708 A 82.5 82.5 0 0 1 75.9913 -32.1181C 75.37069426239361 -31.48430634288943 74.78610485752608 -30.940336460457953 74.24908877835304 -30.47659798882396 C 74.03728530300893 -30.29369893993692 73.83291865248474 -30.123319319586237 73.63666685978363 -29.9648377483301 A 0.5625 0.5625 0 0 0 73.498 -29.3054A 79.125 79.125 0 0 1 73.5711 -29.1214A 0.5625 0.5625 0 0 0 74.1245 -28.7369C 74.37599489614021 -28.756314554954866 74.64156740067699 -28.77262981503203 74.92114060870875 -28.78494223162926 C 75.62998859811697 -28.816153884512865 76.42849830543155 -28.821654120899623 77.31490260838291 -28.786534679278525 A 82.5 82.5 0 0 1 77.7303 -27.6453C 77.07382858238934 -27.048623756867677 76.4585991745247 -26.539565036311373 75.89552764747106 -26.1078358448206 C 75.67344787617938 -25.93756150901314 75.45952028780738 -25.77935300794363 75.25438563823236 -25.632550589332958 A 0.5625 0.5625 0 0 0 75.0776 -24.9823A 79.125 79.125 0 0 1 75.1399 -24.7944A 0.5625 0.5625 0 0 0 75.67 -24.3783C 75.92219347425265 -24.38308392374381 76.18826532015007 -24.383929913143543 76.46808143791876 -24.37996576273163 C 77.1775449649361 -24.369908765370788 77.97502353051071 -24.328970485912954 78.85788616374933 -24.242370634288065 A 82.5 82.5 0 0 1 79.2062 -23.0789C 78.51616946360743 -22.521417190092727 77.87238179431561 -22.048992124983215 77.2851600751928 -21.65073304855901 C 77.05355545560195 -21.493659580284433 76.83079079262401 -21.348157525983993 76.61746739689539 -21.213530992934157 A 0.5625 0.5625 0 0 0 76.4032 -20.5747A 79.125 79.125 0 0 1 76.4544 -20.3834A 0.5625 0.5625 0 0 0 76.9594 -19.9373C 77.21149538225193 -19.92734865481797 77.47716626660652 -19.912722510979936 77.75627848494332 -19.892495206989054 C 78.46395694956975 -19.84120358907937 79.25770595837437 -19.753965315955917 80.13403959421295 -19.616178080812595 A 82.5 82.5 0 0 1 80.4141 -18.4344C 79.6928364810681 -17.918005276532952 79.02266892403584 -17.48381240374794 78.41328398526073 -17.120371025038985 C 78.17293819409066 -16.9770299111935 77.94209022161182 -16.844726636556295 77.72129989857481 -16.722731522640107 A 0.5625 0.5625 0 0 0 77.4702 -16.0974A 79.125 79.125 0 0 1 77.5103 -15.9035A 0.5625 0.5625 0 0 0 77.9885 -15.4288C 78.23953803060024 -15.404185545897711 78.50390900723549 -15.37413675906286 78.78137289874444 -15.337714744286913 C 79.48487174106599 -15.245362060427409 80.27220539771017 -15.112118980339964 81.13904480052189 -14.923610590066415 A 82.5 82.5 0 0 1 81.3499 -13.7276C 80.59984816604944 -13.25396450492823 79.90556835615318 -12.859472995708705 79.27608216346233 -12.532079085295898 C 79.0278084547907 -12.402955346835196 78.78965828927662 -12.28429852426298 78.56214812349485 -12.175347622329296 A 0.5625 0.5625 0 0 0 78.2752 -11.5657A 79.125 79.125 0 0 1 78.3039 -11.3698A 0.5625 0.5625 0 0 0 78.7536 -10.868C 79.00284284839482 -10.8288995491701 79.26501936961046 -10.78352979492136 79.53989608431182 -10.731036309929232 C 80.23683488693338 -10.59793505236854 81.01508910354764 -10.419138017723014 81.86950116318489 -10.180546325041 A 82.5 82.5 0 0 1 82.0105 -8.97428C 81.23413547811725 -8.545076512882371 80.51809263846458 -8.191621201622189 79.8706351738749 -7.901382556864268 C 79.61527362734267 -7.786913107646143 79.37062709356879 -7.6823042342665735 79.13716690742662 -7.586766199679937 A 0.5625 0.5625 0 0 0 78.8152 -6.99482A 79.125 79.125 0 0 1 78.8325 -6.79756A 0.5625 0.5625 0 0 0 79.2523 -6.27052C 79.49882705375069 -6.216971984175495 79.75792199718893 -6.156434779399789 80.02928143929032 -6.088047445528273 C 80.71730198191459 -5.914647986789767 81.48384339258045 -5.690901990154538 82.32293704909125 -5.403034313827675 A 82.5 82.5 0 0 1 82.3936 -4.19061C 81.5935521897864 -3.807274686797181 80.85816918268868 -3.496051554386007 80.19493123731252 -3.2439502509839553 C 79.93334591556035 -3.144522419390113 79.68303081995592 -3.0543154585175456 79.44441056882319 -2.9725135617451484 A 0.5625 0.5625 0 0 0 79.0886 -2.40029A 79.125 79.125 0 0 1 79.0943 -2.20236A 0.5625 0.5625 0 0 0 79.4828 -1.6518" stroke="#191919" stroke-width="0.35 px" style="stroke-width:0.35;stroke-miterlimit:4;stroke-dasharray:none;fill:none;fill-rule: evenodd "/>
<title>b'InvoluteGear'</title>
</g>
</svg>