<?xml version="1.0"?>
<!DOCTYPE svg PUBLIC "-//W3C//DTD SVG 1.1//EN" "http://www.w3.org/Graphics/SVG/1.1/DTD/svg11.dtd">
<svg width="180.53581506213513mm" height="180.53581506213513mm" viewBox="0 0 180.53581506213513 180.53581506213513" xmlns="http://www.w3.org/2000/svg" version="1.1">
<g id="InvoluteGear" transform="translate(90.267908,90.267908) scale(1,-1)">
<path id="InvoluteGear_w0000"  d="M 85.48394325703657 -1.6569385105524574 C 85.72770120768618 -1.58743630150078 85.98249061363336 -1.5107859295728412 86.24799062002688 -1.4262845884976476 C 86.9296159860773 -1.209336889645946 87.68158390166543 -0.9407535252009462 88.49794855987017 -0.6088693312057152 A 88.5 88.5 0 0 1 88.4979 0.608869C 87.68158390166543 0.9407535252009462 86.9296159860773 1.209336889645946 86.24799062002688 1.4262845884976476 C 85.98249061363336 1.5107859295728412 85.72770120768618 1.58743630150078 85.48394427245381 1.6569381055999561 A 0.5625 0.5625 0 0 0 85.0964 2.20833A 85.125 85.125 0 0 1 85.0911 2.40194A 0.5625 0.5625 0 0 0 85.4483 2.9735C 85.68791621733212 3.0560959895121345 85.9381821851868 3.1464279674234046 86.19871800256861 3.245179260577782 C 86.8675983946625 3.4987112403214224 87.60392267430599 3.8076114263655017 88.40112221537092 4.1832059752017 A 88.5 88.5 0 0 1 88.3352 5.39916C 87.50205993610147 5.686359084588262 86.73665403602747 5.913837826149956 86.0442830206617 6.093564899129385 C 85.77459758252024 6.16356843113263 85.51603207970786 6.226312368329686 85.26886988320176 6.282515507612041 A 0.5625 0.5625 0 0 0 84.852 6.81211A 85.125 85.125 0 0 1 84.8363 7.00515A 0.5625 0.5625 0 0 0 85.162 7.59521C 85.39679380487728 7.690664224429341 85.64180226143549 7.794412849068731 85.89660969336346 7.9071244397448455 C 86.55078317006422 8.196497047400845 87.26930404778385 8.54480799757553 88.04500014809933 8.963011217726862 A 88.5 88.5 0 0 1 87.9133 10.1736C 87.06587735233667 10.415285573033591 86.28927853515947 10.600992457368902 85.58819271396034 10.742971734004442 C 85.31511287792725 10.79827212451492 85.05352969541967 10.846925588202655 84.80368720694766 10.889665209177 A 0.5625 0.5625 0 0 0 84.3588 11.3959A 85.125 85.125 0 0 1 84.3326 11.5878A 0.5625 0.5625 0 0 0 84.6259 12.1947C 84.85518788251707 12.302674416092135 85.09422017576134 12.419535374867923 85.34255182813489 12.54587666055037 C 85.98009958592274 12.870241116402225 86.67870951618463 13.256941174677458 87.43062692543775 13.716526404043746 A 88.5 88.5 0 0 1 87.2336 14.9182C 86.3743155490425 15.11366223436292 85.58880171289908 15.257052551183213 84.8810574913757 15.36086758179378 C 84.6053842476611 15.401302625237992 84.34155065400282 15.435722906424527 84.08976070463089 15.464873646418603 A 0.5625 0.5625 0 0 0 83.6181 15.9463A 85.125 85.125 0 0 1 83.5816 16.1365A 0.5625 0.5625 0 0 0 83.8416 16.7583C 84.06468707373932 16.87859874396938 84.29704208076882 17.0082292635546 84.53816955406454 17.14782966348415 C 85.15722155551786 17.50623455069558 85.8338713950276 17.930189459172887 86.55980460990335 18.4298086550909 A 88.5 88.5 0 0 1 86.298 19.6191C 85.42940299614257 19.76770792030883 84.63727818845662 19.868361081109043 83.92495150235347 19.93370735832276 C 83.64749344807902 19.959158451751417 83.38218331265816 19.979244589821494 83.12918444569068 19.994720944692293 A 0.5625 0.5625 0 0 0 82.6321 20.4499A 85.125 85.125 0 0 1 82.5854 20.6379A 0.5625 0.5625 0 0 0 82.8113 21.2728C 83.02761005361768 21.40501523358594 83.25260623716252 21.547035085331597 83.48582226295551 21.699485127482422 C 84.08456272189277 22.09087918276688 84.73726774008587 22.550845408653224 85.43508747338834 23.089033101938064 A 88.5 88.5 0 0 1 85.1093 24.2624C 84.23391128496083 24.363771512992834 83.43749894427462 24.42139228471002 82.7226791704943 24.448078136636806 C 82.44425013793864 24.458470627607714 82.17824166109472 24.46416370645758 81.92477596579963 24.465920281389725 A 0.5625 0.5625 0 0 0 81.4038 24.8935A 85.125 85.125 0 0 1 81.3469 25.0787A 0.5625 0.5625 0 0 0 81.5382 25.725C 81.74699874773817 25.868647125486383 81.96397615522572 26.02263974069761 82.18859667072974 26.18749226282928 C 82.76526937822322 26.6107274599863 83.39211507882169 27.10535584309001 84.05977450504035 27.680533436508743 A 88.5 88.5 0 0 1 83.6709 28.8345C 82.79134699866674 28.88837196600616 81.99298313959554 28.902791336988955 81.27776696769641 28.890738489427186 C 80.99918363718469 28.886041894973733 80.73325706761297 28.87732521582221 80.48006800254613 28.86535685847877 A 0.5625 0.5625 0 0 0 79.9367 29.2641A 85.125 85.125 0 0 1 79.8699 29.4459A 0.5625 0.5625 0 0 0 80.0259 30.1016C 80.22660940970741 30.256401818258016 80.43493160901676 30.42191551006181 80.65029776355823 30.598686971323197 C 81.20321123919746 31.05252188859704 81.80235897575734 31.580361598647112 82.43789973475886 32.19084199721644 A 88.5 88.5 0 0 1 81.9872 33.3221C 81.10594142686254 33.32823784664163 80.30796778816133 33.29941352239051 79.5944530704057 33.24865732841877 C 79.31653257484558 33.228885424461694 79.05146792099319 33.2057845548306 78.79929813330635 33.180126370465786 A 0.5625 0.5625 0 0 0 78.2351 33.5489A 85.125 85.125 0 0 1 78.1586 33.7268A 0.5625 0.5625 0 0 0 78.2789 34.39C 78.47090160341351 34.55540927138668 78.66995754964066 34.73195855960735 78.8754376371812 34.92013045884525 C 79.40297009047636 35.40323392022882 79.97266245945451 35.96273671241008 80.57422040069049 36.606729271936594 A 88.5 88.5 0 0 1 80.0629 37.7119C 79.18263815448196 37.670346263292444 78.38739533032212 37.598362790516795 77.67767492831413 37.50905212679719 C 77.40123245640419 37.47426290773744 77.13780719857088 37.43684560645764 76.88739634569963 37.39757285494704 A 0.5625 0.5625 0 0 0 76.3041 37.7353A 85.125 85.125 0 0 1 76.218 37.9088A 0.5625 0.5625 0 0 0 76.3022 38.5775C 76.48502512235683 38.75305975530301 76.67423095011458 38.94012679045916 76.86922226215368 39.13914718707151 C 77.36982634952662 39.65010216687494 77.90839234504811 40.239626923096836 78.47420299542986 40.915242702444985 A 88.5 88.5 0 0 1 77.9038 41.9911C 77.02707856140371 41.90196106383702 76.23689913600703 41.7870295824651 75.53305478196903 41.65942641256233 C 75.25890118710979 41.60972192117353 74.99788799696438 41.55809793963658 74.74997057708542 41.50532581472699 A 0.5625 0.5625 0 0 0 74.1493 41.8109A 85.125 85.125 0 0 1 74.0539 41.9795A 0.5625 0.5625 0 0 0 74.1018 42.6518C 74.27480488441836 42.837040837891955 74.45360562041418 43.03407692013823 74.63753621383707 43.243362053011005 C 75.10974357724655 43.78066983224212 75.61560349245282 44.39848737482088 76.14400723185483 45.10374467650274 A 88.5 88.5 0 0 1 75.5162 46.1472C 74.64558527531237 46.01067019296766 73.8627869810797 45.85312781683675 73.16688317177285 45.6876064228339 C 72.89582259369408 45.62313245095325 72.63798706789527 45.55745321119172 72.39329026551668 45.491336502618 A 0.5625 0.5625 0 0 0 71.7769 45.764A 85.125 85.125 0 0 1 71.6726 45.9272A 0.5625 0.5625 0 0 0 71.684 46.6011C 71.84672384637197 46.79537349897751 72.01459503724021 47.00180068753583 72.18692541192553 47.22073668731494 C 72.62935098581441 47.78282124968033 73.10102104641564 48.427119413315005 73.59046797562748 49.1599495961505 A 88.5 88.5 0 0 1 72.9071 50.1679C 72.04514362634197 49.98442209888727 71.27202254554466 49.784730926930784 70.58610048674436 49.581776811595404 C 70.31892799282468 49.502722472491165 70.06502640739409 49.42318062303163 69.82426796039802 49.343913262491796 A 0.5625 0.5625 0 0 0 69.194 49.5828A 85.125 85.125 0 0 1 69.081 49.7401A 0.5625 0.5625 0 0 0 69.0559 50.4136C 69.20790398825514 50.616447266852894 69.36435323886916 50.831660075212255 69.52457792013583 51.05960476488818 C 69.93592399406697 51.644817419520535 70.37202071050771 52.313706366686034 70.82107519735538 53.07195991348392 A 88.5 88.5 0 0 1 70.0841 54.0414C 69.2333811578992 53.81156108258726 68.47220498787425 53.57030684341888 67.79827660716178 53.33051530613979 C 67.5357758603591 53.23711247980944 67.28655295239349 53.14394133060126 67.05043904678706 53.05175582292136 A 0.5625 0.5625 0 0 0 66.4082 53.2562A 85.125 85.125 0 0 1 66.2868 53.4071A 0.5625 0.5625 0 0 0 66.2253 54.0783C 66.36608542337446 54.289054273794505 66.51065384112633 54.512421445707325 66.65830286237788 54.74870622423089 C 67.03736288744241 55.35533044158334 67.43660711291487 56.046848205749576 67.84395200321737 56.828301028211705 A 88.5 88.5 0 0 1 67.0556 57.7564C 66.21854525376436 57.48086148602102 65.4715466553674 57.198751819891775 64.81158870079973 56.92282621056337 C 64.55452966103269 56.81534886358963 64.31071644426167 56.70882170166661 64.07993964281195 56.60398844282403 A 0.5625 0.5625 0 0 0 63.4276 56.7733A 85.125 85.125 0 0 1 63.2982 56.9175A 0.5625 0.5625 0 0 0 63.2004 57.5843C 63.32960369521967 57.80242213066906 63.461867236031345 58.03328849173443 63.5965075172488 58.27722029513889 C 63.942169645082046 58.90347674186195 64.30339032748401 59.61559498227967 64.66783080849348 60.417954944635206 A 88.5 88.5 0 0 1 63.8304 61.302C 63.009478947093726 60.981560618893035 62.27884899592004 60.65942300206055 61.63479723788718 60.34817265803635 C 61.38393390361012 60.226936039995984 61.14624552420694 60.10736532787844 60.9214827350349 59.9901918118839 A 0.5625 0.5625 0 0 0 60.2609 60.1239A 85.125 85.125 0 0 1 60.1239 60.2609A 0.5625 0.5625 0 0 0 59.9902 60.9215C 60.10736532787844 61.14624552420694 60.226936039995984 61.38393390361012 60.34817265803635 61.63479723788718 C 60.65942300206055 62.27884899592004 60.981560618893035 63.009478947093726 61.302027723886404 63.83039258932825 A 88.5 88.5 0 0 1 60.418 64.6678C 59.61559498227967 64.30339032748401 58.90347674186195 63.942169645082046 58.27722029513889 63.5965075172488 C 58.03328849173443 63.461867236031345 57.80242213066906 63.32960369521967 57.58433262176146 63.20043361218431 A 0.5625 0.5625 0 0 0 56.9175 63.2982A 85.125 85.125 0 0 1 56.7733 63.4276A 0.5625 0.5625 0 0 0 56.604 64.0799C 56.70882170166661 64.31071644426167 56.81534886358963 64.55452966103269 56.92282621056337 64.81158870079973 C 57.198751819891775 65.4715466553674 57.48086148602102 66.21854525376436 57.75641522976358 67.05560469472363 A 88.5 88.5 0 0 1 56.8283 67.844C 56.046848205749576 67.43660711291487 55.35533044158334 67.03736288744241 54.74870622423089 66.65830286237788 C 54.512421445707325 66.51065384112633 54.289054273794505 66.36608542337446 54.07827773925732 66.22529765140754 A 0.5625 0.5625 0 0 0 53.4071 66.2868A 85.125 85.125 0 0 1 53.2562 66.4082A 0.5625 0.5625 0 0 0 53.0518 67.0504C 53.14394133060126 67.28655295239349 53.23711247980944 67.5357758603591 53.33051530613979 67.79827660716178 C 53.57030684341888 68.47220498787425 53.81156108258726 69.2333811578992 54.04139321847133 70.08413115801943 A 88.5 88.5 0 0 1 53.072 70.8211C 52.313706366686034 70.37202071050771 51.644817419520535 69.93592399406697 51.05960476488818 69.52457792013583 C 50.831660075212255 69.36435323886916 50.616447266852894 69.20790398825514 50.41360195057822 69.05591148214927 A 0.5625 0.5625 0 0 0 49.7401 69.081A 85.125 85.125 0 0 1 49.5828 69.194A 0.5625 0.5625 0 0 0 49.3439 69.8243C 49.42318062303163 70.06502640739409 49.502722472491165 70.31892799282468 49.581776811595404 70.58610048674436 C 49.784730926930784 71.27202254554466 49.98442209888727 72.04514362634197 50.16785848965873 72.90708878929048 A 88.5 88.5 0 0 1 49.1599 73.5905C 48.427119413315005 73.10102104641564 47.78282124968033 72.62935098581441 47.22073668731494 72.18692541192553 C 47.00180068753583 72.01459503724021 46.79537349897751 71.84672384637197 46.60105438122778 71.6839724263355 A 0.5625 0.5625 0 0 0 45.9272 71.6726A 85.125 85.125 0 0 1 45.764 71.7769A 0.5625 0.5625 0 0 0 45.4913 72.3933C 45.55745321119173 72.63798706789524 45.623132450953264 72.89582259369406 45.68760642283391 73.16688317177285 C 45.85312781683677 73.86278698107968 46.010670192967666 74.64558527531237 46.147172788086706 75.51619736741502 A 88.5 88.5 0 0 1 45.1037 76.144C 44.39848737482089 75.61560349245282 43.78066983224213 75.10974357724653 43.24336205301101 74.63753621383707 C 43.03407692013825 74.45360562041417 42.83704083789196 74.27480488441836 42.65181789012029 74.10177192840798 A 0.5625 0.5625 0 0 0 41.9795 74.0539A 85.125 85.125 0 0 1 41.8109 74.1493A 0.5625 0.5625 0 0 0 41.5053 74.75C 41.55809793963658 74.99788799696438 41.60972192117353 75.25890118710979 41.65942641256233 75.53305478196903 C 41.7870295824651 76.23689913600703 41.90196106383702 77.02707856140371 41.99112947767307 77.90380392738987 A 88.5 88.5 0 0 1 40.9152 78.4742C 40.239626923096836 77.90839234504811 39.65010216687494 77.36982634952662 39.13914718707151 76.86922226215368 C 38.94012679045916 76.67423095011458 38.75305975530301 76.48502512235683 38.57747626832871 76.3022181658457 A 0.5625 0.5625 0 0 0 37.9088 76.218A 85.125 85.125 0 0 1 37.7353 76.3041A 0.5625 0.5625 0 0 0 37.3976 76.8874C 37.43684560645764 77.13780719857088 37.47426290773744 77.40123245640419 37.50905212679719 77.67767492831413 C 37.598362790516795 78.38739533032212 37.670346263292444 79.18263815448196 37.7119189495242 80.06290520779537 A 88.5 88.5 0 0 1 36.6067 80.5742C 35.96273671241008 79.97266245945451 35.40323392022882 79.40297009047636 34.92013045884525 78.8754376371812 C 34.73195855960735 78.66995754964066 34.55540927138668 78.47090160341351 34.38998026182968 78.2788568507023 A 0.5625 0.5625 0 0 0 33.7268 78.1586A 85.125 85.125 0 0 1 33.5489 78.2351A 0.5625 0.5625 0 0 0 33.1801 78.7993C 33.2057845548306 79.05146792099319 33.228885424461694 79.31653257484558 33.24865732841877 79.5944530704057 C 33.29941352239051 80.30796778816133 33.32823784664163 81.10594142686254 33.3220928654175 81.98716819256781 A 88.5 88.5 0 0 1 32.1908 82.4379C 31.580361598647112 81.80235897575734 31.05252188859704 81.20321123919746 30.598686971323197 80.65029776355823 C 30.42191551006181 80.43493160901676 30.256401818258016 80.22660940970741 30.101612517906396 80.02589016114472 A 0.5625 0.5625 0 0 0 29.4459 79.8699A 85.125 85.125 0 0 1 29.2641 79.9367A 0.5625 0.5625 0 0 0 28.8654 80.4801C 28.877325215822207 80.73325706761297 28.886041894973726 80.99918363718469 28.890738489427186 81.27776696769641 C 28.90279133698895 81.99298313959554 28.888371966006154 82.79134699866674 28.834527341614837 83.67094868682663 A 88.5 88.5 0 0 1 27.6805 84.0598C 27.105355843090003 83.39211507882169 26.610727459986297 82.76526937822322 26.187492262829274 82.18859667072974 C 26.022639740697603 81.96397615522572 25.86864712548638 81.74699874773817 25.724951558027918 81.5381937474635 A 0.5625 0.5625 0 0 0 25.0787 81.3469A 85.125 85.125 0 0 1 24.8935 81.4038A 0.5625 0.5625 0 0 0 24.4659 81.9248C 24.464163706457576 82.17824166109473 24.45847062760771 82.44425013793864 24.4480781366368 82.72267917049432 C 24.421392284710016 83.43749894427464 24.363771512992827 84.23391128496083 24.26238518099496 85.10930787227062 A 88.5 88.5 0 0 1 23.089 85.4351C 22.550845408653217 84.73726774008587 22.090879182766876 84.08456272189278 21.699485127482415 83.48582226295552 C 21.547035085331594 83.25260623716252 21.405015233585935 83.02761005361769 21.27283488287841 82.81133176267346 A 0.5625 0.5625 0 0 0 20.6379 82.5854A 85.125 85.125 0 0 1 20.4499 82.6321A 0.5625 0.5625 0 0 0 19.9947 83.1292C 19.979244589821487 83.38218331265816 19.95915845175141 83.64749344807902 19.933707358322753 83.92495150235347 C 19.868361081109036 84.63727818845662 19.767707920308823 85.42940299614257 19.6190772642848 86.29802679358278 A 88.5 88.5 0 0 1 18.4298 86.5598C 17.93018945917288 85.8338713950276 17.506234550695574 85.15722155551786 17.147829663484142 84.53816955406454 C 17.008229263554593 84.29704208076882 16.878598743969373 84.06468707373932 16.75832131775579 83.84156987361716 A 0.5625 0.5625 0 0 0 16.1365 83.5816A 85.125 85.125 0 0 1 15.9463 83.6181A 0.5625 0.5625 0 0 0 15.4649 84.0898C 15.435722906424518 84.34155065400282 15.401302625237983 84.6053842476611 15.36086758179377 84.8810574913757 C 15.257052551183204 85.58880171289908 15.113662234362911 86.3743155490425 14.918223213635576 87.23361873335334 A 88.5 88.5 0 0 1 13.7165 87.4306C 13.256941174677449 86.67870951618463 12.870241116402216 85.98009958592274 12.545876660550359 85.34255182813489 C 12.419535374867914 85.09422017576134 12.302674416092126 84.85518788251707 12.194652708787098 84.62588621440753 A 0.5625 0.5625 0 0 0 11.5878 84.3326A 85.125 85.125 0 0 1 11.3959 84.3588A 0.5625 0.5625 0 0 0 10.8897 84.8037C 10.846925588202662 85.05352969541967 10.798272124514929 85.31511287792725 10.742971734004449 85.58819271396034 C 10.60099245736891 86.28927853515947 10.4152855730336 87.06587735233667 10.173611443924452 87.91333943922253 A 88.5 88.5 0 0 1 8.96301 88.045C 8.544807997575539 87.26930404778385 8.196497047400854 86.55078317006422 7.907124439744854 85.89660969336346 C 7.79441284906874 85.64180226143549 7.690664224429348 85.39679380487728 7.595215082312299 85.16198025008104 A 0.5625 0.5625 0 0 0 7.00515 84.8363A 85.125 85.125 0 0 1 6.81211 84.852A 0.5625 0.5625 0 0 0 6.28252 85.2689C 6.226312368329693 85.51603207970786 6.163568431132637 85.77459758252024 6.093564899129392 86.0442830206617 C 5.913837826149963 86.73665403602747 5.686359084588269 87.50205993610147 5.399158718957895 88.3351951732457 A 88.5 88.5 0 0 1 4.18321 88.4011C 3.8076114263655088 87.60392267430599 3.4987112403214295 86.8675983946625 3.245179260577789 86.19871800256861 C 3.1464279674234117 85.9381821851868 3.0560959895121416 85.68791621733212 2.973499381362572 85.4482795244633 A 0.5625 0.5625 0 0 0 2.40194 85.0911A 85.125 85.125 0 0 1 2.20833 85.0964A 0.5625 0.5625 0 0 0 1.65694 85.4839C 1.5874363015007853 85.72770120768618 1.5107859295728465 85.98249061363336 1.426284588497653 86.24799062002688 C 1.2093368896459513 86.9296159860773 0.9407535252009516 87.68158390166543 0.6088693312057206 88.49794855987017 A 88.5 88.5 0 0 1 -0.608869 88.4979C -0.9407535252009409 87.68158390166543 -1.2093368896459407 86.9296159860773 -1.4262845884976423 86.24799062002688 C -1.5107859295728359 85.98249061363336 -1.5874363015007746 85.72770120768618 -1.6569381055999508 85.48394427245381 A 0.5625 0.5625 0 0 0 -2.20833 85.0964A 85.125 85.125 0 0 1 -2.40194 85.0911A 0.5625 0.5625 0 0 0 -2.9735 85.4483C -3.056095989512131 85.68791621733212 -3.146427967423401 85.9381821851868 -3.2451792605777783 86.19871800256861 C -3.498711240321419 86.8675983946625 -3.807611426365498 87.60392267430599 -4.183205975201696 88.40112221537092 A 88.5 88.5 0 0 1 -5.39916 88.3352C -5.686359084588259 87.50205993610147 -5.913837826149952 86.73665403602747 -6.093564899129381 86.0442830206617 C -6.163568431132626 85.77459758252024 -6.226312368329682 85.51603207970786 -6.282515507612038 85.26886988320176 A 0.5625 0.5625 0 0 0 -6.81211 84.852A 85.125 85.125 0 0 1 -7.00515 84.8363A 0.5625 0.5625 0 0 0 -7.59521 85.162C -7.690664224429339 85.39679380487728 -7.794412849068729 85.64180226143549 -7.907124439744844 85.89660969336346 C -8.196497047400845 86.55078317006422 -8.544807997575528 87.26930404778385 -8.963011217726862 88.04500014809933 A 88.5 88.5 0 0 1 -10.1736 87.9133C -10.41528557303359 87.06587735233667 -10.600992457368902 86.28927853515947 -10.742971734004438 85.58819271396034 C -10.798272124514918 85.31511287792725 -10.846925588202653 85.05352969541967 -10.889665209176998 84.80368720694766 A 0.5625 0.5625 0 0 0 -11.3959 84.3588A 85.125 85.125 0 0 1 -11.5878 84.3326A 0.5625 0.5625 0 0 0 -12.1947 84.6259C -12.302674416092135 84.85518788251707 -12.419535374867923 85.09422017576134 -12.54587666055037 85.34255182813489 C -12.870241116402225 85.98009958592274 -13.256941174677458 86.67870951618463 -13.716526404043746 87.43062692543775 A 88.5 88.5 0 0 1 -14.9182 87.2336C -15.11366223436292 86.3743155490425 -15.257052551183213 85.58880171289908 -15.36086758179378 84.8810574913757 C -15.401302625237992 84.6053842476611 -15.435722906424527 84.34155065400282 -15.464873646418603 84.08976070463089 A 0.5625 0.5625 0 0 0 -15.9463 83.6181A 85.125 85.125 0 0 1 -16.1365 83.5816A 0.5625 0.5625 0 0 0 -16.7583 83.8416C -16.878598743969384 84.06468707373932 -17.008229263554604 84.29704208076882 -17.147829663484153 84.53816955406454 C -17.506234550695584 85.15722155551786 -17.93018945917289 85.8338713950276 -18.429808655090902 86.55980460990335 A 88.5 88.5 0 0 1 -19.6191 86.298C -19.767707920308833 85.42940299614257 -19.868361081109047 84.63727818845662 -19.933707358322764 83.92495150235347 C -19.95915845175142 83.64749344807902 -19.979244589821498 83.38218331265816 -19.994720944692297 83.12918444569068 A 0.5625 0.5625 0 0 0 -20.4499 82.6321A 85.125 85.125 0 0 1 -20.6379 82.5854A 0.5625 0.5625 0 0 0 -21.2728 82.8113C -21.405015233585946 83.02761005361768 -21.547035085331604 83.25260623716252 -21.699485127482426 83.48582226295551 C -22.090879182766887 84.08456272189277 -22.550845408653228 84.73726774008587 -23.089033101938067 85.43508747338834 A 88.5 88.5 0 0 1 -24.2624 85.1093C -24.363771512992837 84.23391128496083 -24.421392284710027 83.43749894427462 -24.44807813663681 82.7226791704943 C -24.45847062760772 82.44425013793864 -24.464163706457587 82.17824166109472 -24.465920281389728 81.92477596579963 A 0.5625 0.5625 0 0 0 -24.8935 81.4038A 85.125 85.125 0 0 1 -25.0787 81.3469A 0.5625 0.5625 0 0 0 -25.725 81.5382C -25.86864712548639 81.74699874773817 -26.022639740697613 81.96397615522572 -26.187492262829288 82.18859667072974 C -26.610727459986308 82.76526937822322 -27.105355843090013 83.39211507882169 -27.68053343650875 84.05977450504035 A 88.5 88.5 0 0 1 -28.8345 83.6709C -28.888371966006165 82.79134699866674 -28.90279133698896 81.99298313959554 -28.890738489427193 81.27776696769641 C -28.886041894973737 80.99918363718469 -28.877325215822218 80.73325706761297 -28.865356858478773 80.48006800254613 A 0.5625 0.5625 0 0 0 -29.2641 79.9367A 85.125 85.125 0 0 1 -29.4459 79.8699A 0.5625 0.5625 0 0 0 -30.1016 80.0259C -30.256401818258027 80.22660940970741 -30.421915510061822 80.43493160901676 -30.598686971323207 80.65029776355823 C -31.052521888597056 81.20321123919746 -31.580361598647126 81.80235897575734 -32.19084199721645 82.43789973475886 A 88.5 88.5 0 0 1 -33.3221 81.9872C -33.32823784664164 81.10594142686254 -33.29941352239052 80.30796778816133 -33.24865732841878 79.5944530704057 C -33.2288854244617 79.31653257484558 -33.205784554830615 79.05146792099319 -33.18012637046579 78.79929813330635 A 0.5625 0.5625 0 0 0 -33.5489 78.2351A 85.125 85.125 0 0 1 -33.7268 78.1586A 0.5625 0.5625 0 0 0 -34.39 78.2789C -34.55540927138669 78.47090160341351 -34.73195855960736 78.66995754964066 -34.92013045884525 78.8754376371812 C -35.40323392022883 79.40297009047636 -35.96273671241008 79.97266245945451 -36.6067292719366 80.57422040069049 A 88.5 88.5 0 0 1 -37.7119 80.0629C -37.670346263292444 79.18263815448196 -37.5983627905168 78.38739533032212 -37.50905212679719 77.67767492831413 C -37.47426290773745 77.40123245640419 -37.436845606457645 77.13780719857088 -37.39757285494704 76.88739634569963 A 0.5625 0.5625 0 0 0 -37.7353 76.3041A 85.125 85.125 0 0 1 -37.9088 76.218A 0.5625 0.5625 0 0 0 -38.5775 76.3022C -38.753059755303006 76.48502512235683 -38.94012679045915 76.67423095011458 -39.1391471870715 76.86922226215368 C -39.65010216687492 77.36982634952662 -40.23962692309683 77.90839234504811 -40.91524270244497 78.47420299542986 A 88.5 88.5 0 0 1 -41.9911 77.9038C -41.901961063837014 77.02707856140371 -41.78702958246509 76.23689913600703 -41.659426412562325 75.53305478196903 C -41.609721921173524 75.25890118710979 -41.558097939636575 74.99788799696438 -41.50532581472698 74.74997057708542 A 0.5625 0.5625 0 0 0 -41.8109 74.1493A 85.125 85.125 0 0 1 -41.9795 74.0539A 0.5625 0.5625 0 0 0 -42.6518 74.1018C -42.83704083789196 74.27480488441836 -43.03407692013825 74.45360562041417 -43.24336205301101 74.63753621383707 C -43.78066983224213 75.10974357724653 -44.39848737482089 75.61560349245282 -45.10374467650276 76.14400723185481 A 88.5 88.5 0 0 1 -46.1472 75.5162C -46.010670192967666 74.64558527531237 -45.85312781683677 73.86278698107968 -45.68760642283391 73.16688317177285 C -45.623132450953264 72.89582259369406 -45.55745321119173 72.63798706789524 -45.491336502618005 72.39329026551668 A 0.5625 0.5625 0 0 0 -45.764 71.7769A 85.125 85.125 0 0 1 -45.9272 71.6726A 0.5625 0.5625 0 0 0 -46.6011 71.684C -46.795373498977504 71.84672384637197 -47.00180068753581 72.01459503724021 -47.220736687314925 72.18692541192553 C -47.782821249680325 72.62935098581441 -48.42711941331499 73.10102104641564 -49.15994959615049 73.59046797562748 A 88.5 88.5 0 0 1 -50.1679 72.9071C -49.98442209888726 72.04514362634197 -49.78473092693078 71.27202254554466 -49.58177681159539 70.58610048674436 C -49.50272247249115 70.31892799282468 -49.42318062303162 70.06502640739409 -49.34391326249179 69.82426796039802 A 0.5625 0.5625 0 0 0 -49.5828 69.194A 85.125 85.125 0 0 1 -49.7401 69.081A 0.5625 0.5625 0 0 0 -50.4136 69.0559C -50.6164472668529 69.20790398825513 -50.83166007521226 69.36435323886914 -51.05960476488819 69.52457792013583 C -51.64481741952054 69.93592399406695 -52.31370636668605 70.3720207105077 -53.07195991348393 70.82107519735537 A 88.5 88.5 0 0 1 -54.0414 70.0841C -53.811561082587275 69.23338115789919 -53.570306843418884 68.47220498787424 -53.3305153061398 67.79827660716178 C -53.23711247980945 67.53577586035908 -53.143941330601265 67.28655295239348 -53.051755822921365 67.05043904678705 A 0.5625 0.5625 0 0 0 -53.2562 66.4082A 85.125 85.125 0 0 1 -53.4071 66.2868A 0.5625 0.5625 0 0 0 -54.0783 66.2253C -54.2890542737945 66.36608542337446 -54.51242144570731 66.51065384112633 -54.74870622423087 66.65830286237788 C -55.35533044158333 67.03736288744241 -56.04684820574956 67.43660711291487 -56.8283010282117 67.84395200321737 A 88.5 88.5 0 0 1 -57.7564 67.0556C -57.480861486021006 66.21854525376436 -57.19875181989176 65.4715466553674 -56.92282621056336 64.81158870079973 C -56.81534886358961 64.55452966103269 -56.7088217016666 64.31071644426167 -56.60398844282402 64.07993964281195 A 0.5625 0.5625 0 0 0 -56.7733 63.4276A 85.125 85.125 0 0 1 -56.9175 63.2982A 0.5625 0.5625 0 0 0 -57.5843 63.2004C -57.802422130669044 63.32960369521969 -58.03328849173441 63.46186723603135 -58.27722029513887 63.596507517248824 C -58.90347674186194 63.94216964508207 -59.615594982279646 64.30339032748402 -60.41795494463519 64.6678308084935 A 88.5 88.5 0 0 1 -61.302 63.8304C -60.98156061889301 63.00947894709375 -60.659423002060535 62.278848995920065 -60.348172658036326 61.6347972378872 C -60.22693603999598 61.38393390361014 -60.107365327878426 61.14624552420696 -59.99019181188388 60.92148273503492 A 0.5625 0.5625 0 0 0 -60.1239 60.2609A 85.125 85.125 0 0 1 -60.2609 60.1239A 0.5625 0.5625 0 0 0 -60.9215 59.9902C -61.14624552420694 60.10736532787844 -61.38393390361012 60.226936039995984 -61.63479723788718 60.34817265803635 C -62.27884899592004 60.65942300206055 -63.009478947093726 60.981560618893035 -63.83039258932825 61.302027723886404 A 88.5 88.5 0 0 1 -64.6678 60.418C -64.30339032748401 59.61559498227967 -63.942169645082046 58.90347674186195 -63.5965075172488 58.27722029513889 C -63.461867236031345 58.03328849173443 -63.32960369521967 57.80242213066906 -63.20043361218431 57.58433262176146 A 0.5625 0.5625 0 0 0 -63.2982 56.9175A 85.125 85.125 0 0 1 -63.4276 56.7733A 0.5625 0.5625 0 0 0 -64.0799 56.604C -64.31071644426166 56.70882170166662 -64.55452966103269 56.815348863589634 -64.81158870079972 56.92282621056338 C -65.47154665536739 57.19875181989178 -66.21854525376435 57.48086148602103 -67.05560469472363 57.7564152297636 A 88.5 88.5 0 0 1 -67.844 56.8283C -67.43660711291486 56.04684820574958 -67.0373628874424 55.35533044158335 -66.65830286237787 54.748706224230894 C -66.51065384112633 54.51242144570733 -66.36608542337444 54.28905427379452 -66.22529765140753 54.078277739257324 A 0.5625 0.5625 0 0 0 -66.2868 53.4071A 85.125 85.125 0 0 1 -66.4082 53.2562A 0.5625 0.5625 0 0 0 -67.0504 53.0518C -67.28655295239349 53.14394133060126 -67.5357758603591 53.23711247980944 -67.79827660716178 53.33051530613979 C -68.47220498787425 53.57030684341888 -69.2333811578992 53.81156108258726 -70.08413115801943 54.04139321847133 A 88.5 88.5 0 0 1 -70.8211 53.072C -70.37202071050771 52.313706366686034 -69.93592399406697 51.644817419520535 -69.52457792013583 51.05960476488818 C -69.36435323886916 50.831660075212255 -69.20790398825514 50.616447266852894 -69.05591148214927 50.41360195057822 A 0.5625 0.5625 0 0 0 -69.081 49.7401A 85.125 85.125 0 0 1 -69.194 49.5828A 0.5625 0.5625 0 0 0 -69.8243 49.3439C -70.06502640739409 49.42318062303164 -70.31892799282467 49.50272247249117 -70.58610048674436 49.58177681159541 C -71.27202254554464 49.7847309269308 -72.04514362634197 49.98442209888728 -72.90708878929047 50.16785848965874 A 88.5 88.5 0 0 1 -73.5905 49.1599C -73.10102104641564 48.42711941331501 -72.6293509858144 47.782821249680346 -72.18692541192553 47.22073668731495 C -72.0145950372402 47.001800687535834 -71.84672384637197 46.795373498977526 -71.68397242633549 46.60105438122779 A 0.5625 0.5625 0 0 0 -71.6726 45.9272A 85.125 85.125 0 0 1 -71.7769 45.764A 0.5625 0.5625 0 0 0 -72.3933 45.4913C -72.63798706789527 45.55745321119171 -72.89582259369408 45.62313245095324 -73.16688317177285 45.68760642283389 C -73.8627869810797 45.853127816836746 -74.64558527531237 46.01067019296765 -75.51619736741503 46.147172788086685 A 88.5 88.5 0 0 1 -76.144 45.1037C -75.61560349245282 44.398487374820874 -75.10974357724655 43.78066983224211 -74.63753621383707 43.24336205301099 C -74.45360562041418 43.034076920138226 -74.27480488441836 42.83704083789194 -74.10177192840798 42.65181789012027 A 0.5625 0.5625 0 0 0 -74.0539 41.9795A 85.125 85.125 0 0 1 -74.1493 41.8109A 0.5625 0.5625 0 0 0 -74.75 41.5053C -74.99788799696438 41.55809793963659 -75.25890118710979 41.60972192117354 -75.53305478196903 41.65942641256234 C -76.23689913600703 41.7870295824651 -77.02707856140371 41.90196106383703 -77.90380392738987 41.99112947767307 A 88.5 88.5 0 0 1 -78.4742 40.9152C -77.90839234504811 40.23962692309684 -77.36982634952662 39.65010216687494 -76.86922226215368 39.139147187071515 C -76.67423095011458 38.94012679045917 -76.48502512235683 38.75305975530302 -76.3022181658457 38.57747626832872 A 0.5625 0.5625 0 0 0 -76.218 37.9088A 85.125 85.125 0 0 1 -76.3041 37.7353A 0.5625 0.5625 0 0 0 -76.8874 37.3976C -77.13780719857088 37.436845606457624 -77.40123245640419 37.474262907737426 -77.67767492831415 37.50905212679717 C -78.38739533032212 37.59836279051678 -79.18263815448196 37.67034626329243 -80.06290520779538 37.71191894952418 A 88.5 88.5 0 0 1 -80.5742 36.6067C -79.97266245945451 35.96273671241006 -79.40297009047636 35.40323392022881 -78.87543763718121 34.920130458845236 C -78.66995754964066 34.731958559607335 -78.47090160341351 34.555409271386665 -78.27885685070231 34.38998026182966 A 0.5625 0.5625 0 0 0 -78.1586 33.7268A 85.125 85.125 0 0 1 -78.2351 33.5489A 0.5625 0.5625 0 0 0 -78.7993 33.1801C -79.05146792099319 33.20578455483061 -79.31653257484558 33.228885424461694 -79.5944530704057 33.24865732841878 C -80.30796778816133 33.299413522390516 -81.10594142686254 33.328237846641635 -81.98716819256781 33.32209286541751 A 88.5 88.5 0 0 1 -82.4379 32.1908C -81.80235897575734 31.58036159864712 -81.20321123919746 31.05252188859705 -80.65029776355823 30.598686971323204 C -80.43493160901676 30.421915510061815 -80.22660940970741 30.25640181825802 -80.02589016114472 30.1016125179064 A 0.5625 0.5625 0 0 0 -79.8699 29.4459A 85.125 85.125 0 0 1 -79.9367 29.2641A 0.5625 0.5625 0 0 0 -80.4801 28.8654C -80.73325706761297 28.877325215822193 -80.99918363718469 28.88604189497371 -81.27776696769641 28.89073848942717 C -81.99298313959554 28.902791336988937 -82.79134699866674 28.88837196600614 -83.67094868682663 28.834527341614823 A 88.5 88.5 0 0 1 -84.0598 27.6805C -83.39211507882169 27.10535584308999 -82.76526937822322 26.610727459986283 -82.18859667072974 26.18749226282926 C -81.96397615522572 26.02263974069759 -81.74699874773817 25.868647125486365 -81.5381937474635 25.724951558027904 A 0.5625 0.5625 0 0 0 -81.3469 25.0787A 85.125 85.125 0 0 1 -81.4038 24.8935A 0.5625 0.5625 0 0 0 -81.9248 24.4659C -82.17824166109472 24.46416370645758 -82.44425013793864 24.458470627607714 -82.7226791704943 24.448078136636806 C -83.43749894427462 24.42139228471002 -84.23391128496083 24.363771512992834 -85.10930787227062 24.26238518099497 A 88.5 88.5 0 0 1 -85.4351 23.089C -84.73726774008587 22.550845408653224 -84.08456272189277 22.09087918276688 -83.48582226295551 21.699485127482422 C -83.25260623716252 21.547035085331597 -83.02761005361768 21.40501523358594 -82.81133176267346 21.272834882878417 A 0.5625 0.5625 0 0 0 -82.5854 20.6379A 85.125 85.125 0 0 1 -82.6321 20.4499A 0.5625 0.5625 0 0 0 -83.1292 19.9947C -83.38218331265816 19.979244589821512 -83.64749344807902 19.959158451751435 -83.92495150235347 19.933707358322778 C -84.63727818845662 19.86836108110906 -85.42940299614257 19.767707920308847 -86.29802679358278 19.619077264284826 A 88.5 88.5 0 0 1 -86.5598 18.4298C -85.8338713950276 17.930189459172905 -85.15722155551786 17.5062345506956 -84.53816955406454 17.147829663484167 C -84.29704208076882 17.008229263554618 -84.06468707373932 16.8785987439694 -83.84156987361716 16.758321317755815 A 0.5625 0.5625 0 0 0 -83.5816 16.1365A 85.125 85.125 0 0 1 -83.6181 15.9463A 0.5625 0.5625 0 0 0 -84.0898 15.4649C -84.34155065400282 15.435722906424521 -84.6053842476611 15.401302625237989 -84.8810574913757 15.360867581793775 C -85.58880171289908 15.257052551183207 -86.3743155490425 15.113662234362915 -87.23361873335334 14.918223213635581 A 88.5 88.5 0 0 1 -87.4306 13.7165C -86.67870951618463 13.256941174677452 -85.98009958592274 12.87024111640222 -85.34255182813489 12.545876660550364 C -85.09422017576134 12.41953537486792 -84.85518788251707 12.30267441609213 -84.62588621440753 12.194652708787102 A 0.5625 0.5625 0 0 0 -84.3326 11.5878A 85.125 85.125 0 0 1 -84.3588 11.3959A 0.5625 0.5625 0 0 0 -84.8037 10.8897C -85.05352969541967 10.84692558820267 -85.31511287792725 10.798272124514934 -85.58819271396034 10.742971734004456 C -86.28927853515947 10.600992457368916 -87.06587735233667 10.415285573033605 -87.91333943922253 10.17361144392446 A 88.5 88.5 0 0 1 -88.045 8.96301C -87.26930404778385 8.544807997575544 -86.55078317006422 8.19649704740086 -85.89660969336346 7.90712443974486 C -85.64180226143549 7.794412849068745 -85.39679380487728 7.690664224429355 -85.16198025008104 7.595215082312304 A 0.5625 0.5625 0 0 0 -84.8363 7.00515A 85.125 85.125 0 0 1 -84.852 6.81211A 0.5625 0.5625 0 0 0 -85.2689 6.28252C -85.51603207970786 6.226312368329679 -85.77459758252024 6.163568431132623 -86.0442830206617 6.093564899129379 C -86.73665403602747 5.9138378261499485 -87.50205993610147 5.686359084588256 -88.3351951732457 5.399158718957881 A 88.5 88.5 0 0 1 -88.4011 4.18321C -87.60392267430599 3.8076114263654954 -86.8675983946625 3.4987112403214153 -86.19871800256861 3.2451792605777756 C -85.9381821851868 3.1464279674233975 -85.68791621733212 3.0560959895121274 -85.4482795244633 2.9734993813625588 A 0.5625 0.5625 0 0 0 -85.0911 2.40194A 85.125 85.125 0 0 1 -85.0964 2.20833A 0.5625 0.5625 0 0 0 -85.4839 1.65694C -85.72770120768618 1.5874363015007904 -85.98249061363336 1.5107859295728516 -86.24799062002688 1.4262845884976583 C -86.9296159860773 1.2093368896459566 -87.68158390166543 0.940753525200957 -88.49794855987017 0.6088693312057261 A 88.5 88.5 0 0 1 -88.4979 -0.608869C -87.68158390166543 -0.9407535252009355 -86.9296159860773 -1.2093368896459353 -86.24799062002688 -1.426284588497637 C -85.98249061363336 -1.5107859295728308 -85.72770120768618 -1.5874363015007695 -85.48394427245381 -1.6569381055999457 A 0.5625 0.5625 0 0 0 -85.0964 -2.20833A 85.125 85.125 0 0 1 -85.0911 -2.40194A 0.5625 0.5625 0 0 0 -85.4483 -2.9735C -85.68791621733212 -3.0560959895121442 -85.9381821851868 -3.1464279674234144 -86.19871800256861 -3.2451792605777925 C -86.8675983946625 -3.498711240321432 -87.60392267430599 -3.8076114263655123 -88.40112221537092 -4.183205975201711 A 88.5 88.5 0 0 1 -88.3352 -5.39916C -87.50205993610147 -5.686359084588273 -86.73665403602747 -5.913837826149965 -86.0442830206617 -6.093564899129396 C -85.77459758252024 -6.1635684311326395 -85.51603207970786 -6.226312368329696 -85.26886988320176 -6.282515507612051 A 0.5625 0.5625 0 0 0 -84.852 -6.81211A 85.125 85.125 0 0 1 -84.8363 -7.00515A 0.5625 0.5625 0 0 0 -85.162 -7.59521C -85.39679380487728 -7.690664224429332 -85.64180226143549 -7.794412849068724 -85.89660969336346 -7.907124439744838 C -86.55078317006422 -8.196497047400838 -87.26930404778385 -8.544807997575523 -88.04500014809933 -8.963011217726855 A 88.5 88.5 0 0 1 -87.9133 -10.1736C -87.06587735233667 -10.415285573033584 -86.28927853515947 -10.600992457368895 -85.58819271396034 -10.742971734004435 C -85.31511287792725 -10.798272124514913 -85.05352969541967 -10.846925588202646 -84.80368720694766 -10.889665209176993 A 0.5625 0.5625 0 0 0 -84.3588 -11.3959A 85.125 85.125 0 0 1 -84.3326 -11.5878A 0.5625 0.5625 0 0 0 -84.6259 -12.1947C -84.85518788251707 -12.302674416092149 -85.09422017576134 -12.419535374867937 -85.34255182813489 -12.545876660550384 C -85.98009958592274 -12.870241116402239 -86.67870951618463 -13.256941174677472 -87.43062692543775 -13.71652640404376 A 88.5 88.5 0 0 1 -87.2336 -14.9182C -86.3743155490425 -15.113662234362934 -85.58880171289908 -15.257052551183227 -84.8810574913757 -15.360867581793794 C -84.6053842476611 -15.401302625238007 -84.34155065400282 -15.435722906424541 -84.08976070463089 -15.464873646418617 A 0.5625 0.5625 0 0 0 -83.6181 -15.9463A 85.125 85.125 0 0 1 -83.5816 -16.1365A 0.5625 0.5625 0 0 0 -83.8416 -16.7583C -84.06468707373932 -16.87859874396938 -84.29704208076882 -17.008229263554597 -84.53816955406454 -17.147829663484146 C -85.15722155551786 -17.506234550695577 -85.8338713950276 -17.930189459172887 -86.55980460990335 -18.429808655090895 A 88.5 88.5 0 0 1 -86.298 -19.6191C -85.42940299614257 -19.76770792030883 -84.63727818845662 -19.86836108110904 -83.92495150235347 -19.933707358322756 C -83.64749344807902 -19.959158451751414 -83.38218331265816 -19.979244589821494 -83.12918444569068 -19.99472094469229 A 0.5625 0.5625 0 0 0 -82.6321 -20.4499A 85.125 85.125 0 0 1 -82.5854 -20.6379A 0.5625 0.5625 0 0 0 -82.8113 -21.2728C -83.02761005361768 -21.40501523358596 -83.25260623716252 -21.54703508533162 -83.48582226295551 -21.69948512748244 C -84.08456272189277 -22.0908791827669 -84.73726774008587 -22.55084540865324 -85.43508747338834 -23.08903310193808 A 88.5 88.5 0 0 1 -85.1093 -24.2624C -84.23391128496083 -24.36377151299285 -83.43749894427462 -24.42139228471004 -82.7226791704943 -24.448078136636823 C -82.44425013793864 -24.458470627607735 -82.17824166109472 -24.4641637064576 -81.92477596579963 -24.465920281389742 A 0.5625 0.5625 0 0 0 -81.4038 -24.8935A 85.125 85.125 0 0 1 -81.3469 -25.0787A 0.5625 0.5625 0 0 0 -81.5382 -25.725C -81.74699874773817 -25.868647125486383 -81.96397615522572 -26.02263974069761 -82.18859667072974 -26.18749226282928 C -82.76526937822322 -26.6107274599863 -83.39211507882169 -27.10535584309001 -84.05977450504035 -27.680533436508743 A 88.5 88.5 0 0 1 -83.6709 -28.8345C -82.79134699866674 -28.88837196600616 -81.99298313959554 -28.902791336988955 -81.27776696769641 -28.890738489427186 C -80.99918363718469 -28.886041894973733 -80.73325706761297 -28.87732521582221 -80.48006800254613 -28.86535685847877 A 0.5625 0.5625 0 0 0 -79.9367 -29.2641A 85.125 85.125 0 0 1 -79.8699 -29.4459A 0.5625 0.5625 0 0 0 -80.0259 -30.1016C -80.22660940970742 -30.256401818258002 -80.43493160901677 -30.421915510061798 -80.65029776355824 -30.598686971323183 C -81.20321123919747 -31.052521888597028 -81.80235897575734 -31.580361598647098 -82.43789973475886 -32.190841997216424 A 88.5 88.5 0 0 1 -81.9872 -33.3221C -81.10594142686254 -33.32823784664161 -80.30796778816135 -33.299413522390495 -79.59445307040572 -33.24865732841876 C -79.3165325748456 -33.22888542446168 -79.0514679209932 -33.205784554830586 -78.79929813330637 -33.18012637046577 A 0.5625 0.5625 0 0 0 -78.2351 -33.5489A 85.125 85.125 0 0 1 -78.1586 -33.7268A 0.5625 0.5625 0 0 0 -78.2789 -34.39C -78.47090160341351 -34.55540927138668 -78.66995754964066 -34.73195855960735 -78.8754376371812 -34.92013045884525 C -79.40297009047636 -35.40323392022882 -79.97266245945451 -35.96273671241008 -80.57422040069049 -36.606729271936594 A 88.5 88.5 0 0 1 -80.0629 -37.7119C -79.18263815448196 -37.670346263292444 -78.38739533032212 -37.598362790516795 -77.67767492831413 -37.50905212679719 C -77.40123245640419 -37.47426290773744 -77.13780719857088 -37.43684560645764 -76.88739634569963 -37.39757285494704 A 0.5625 0.5625 0 0 0 -76.3041 -37.7353A 85.125 85.125 0 0 1 -76.218 -37.9088A 0.5625 0.5625 0 0 0 -76.3022 -38.5775C -76.48502512235683 -38.753059755303006 -76.67423095011458 -38.94012679045915 -76.86922226215368 -39.1391471870715 C -77.36982634952662 -39.65010216687492 -77.90839234504811 -40.23962692309683 -78.47420299542986 -40.91524270244497 A 88.5 88.5 0 0 1 -77.9038 -41.9911C -77.02707856140371 -41.901961063837014 -76.23689913600703 -41.78702958246509 -75.53305478196903 -41.659426412562325 C -75.25890118710979 -41.609721921173524 -74.99788799696438 -41.558097939636575 -74.74997057708542 -41.50532581472698 A 0.5625 0.5625 0 0 0 -74.1493 -41.8109A 85.125 85.125 0 0 1 -74.0539 -41.9795A 0.5625 0.5625 0 0 0 -74.1018 -42.6518C -74.27480488441836 -42.83704083789196 -74.45360562041417 -43.03407692013825 -74.63753621383707 -43.24336205301101 C -75.10974357724653 -43.78066983224213 -75.61560349245282 -44.39848737482089 -76.14400723185481 -45.10374467650276 A 88.5 88.5 0 0 1 -75.5162 -46.1472C -74.64558527531237 -46.010670192967666 -73.86278698107968 -45.85312781683677 -73.16688317177285 -45.68760642283391 C -72.89582259369406 -45.623132450953264 -72.63798706789524 -45.55745321119173 -72.39329026551668 -45.491336502618005 A 0.5625 0.5625 0 0 0 -71.7769 -45.764A 85.125 85.125 0 0 1 -71.6726 -45.9272A 0.5625 0.5625 0 0 0 -71.684 -46.6011C -71.84672384637197 -46.795373498977504 -72.01459503724021 -47.00180068753581 -72.18692541192553 -47.220736687314925 C -72.62935098581441 -47.782821249680325 -73.10102104641564 -48.42711941331499 -73.59046797562748 -49.15994959615049 A 88.5 88.5 0 0 1 -72.9071 -50.1679C -72.04514362634197 -49.98442209888726 -71.27202254554466 -49.78473092693078 -70.58610048674436 -49.58177681159539 C -70.31892799282468 -49.50272247249115 -70.06502640739409 -49.42318062303162 -69.82426796039802 -49.34391326249179 A 0.5625 0.5625 0 0 0 -69.194 -49.5828A 85.125 85.125 0 0 1 -69.081 -49.7401A 0.5625 0.5625 0 0 0 -69.0559 -50.4136C -69.20790398825513 -50.6164472668529 -69.36435323886914 -50.83166007521226 -69.52457792013583 -51.05960476488819 C -69.93592399406695 -51.64481741952054 -70.3720207105077 -52.31370636668605 -70.82107519735537 -53.07195991348393 A 88.5 88.5 0 0 1 -70.0841 -54.0414C -69.23338115789919 -53.811561082587275 -68.47220498787424 -53.570306843418884 -67.79827660716178 -53.3305153061398 C -67.53577586035908 -53.23711247980945 -67.28655295239348 -53.143941330601265 -67.05043904678705 -53.051755822921365 A 0.5625 0.5625 0 0 0 -66.4082 -53.2562A 85.125 85.125 0 0 1 -66.2868 -53.4071A 0.5625 0.5625 0 0 0 -66.2253 -54.0783C -66.36608542337446 -54.2890542737945 -66.51065384112633 -54.51242144570731 -66.65830286237788 -54.74870622423087 C -67.03736288744241 -55.35533044158333 -67.43660711291487 -56.04684820574956 -67.84395200321737 -56.8283010282117 A 88.5 88.5 0 0 1 -67.0556 -57.7564C -66.21854525376436 -57.480861486021006 -65.4715466553674 -57.19875181989176 -64.81158870079973 -56.92282621056336 C -64.55452966103269 -56.81534886358961 -64.31071644426167 -56.7088217016666 -64.07993964281195 -56.60398844282402 A 0.5625 0.5625 0 0 0 -63.4276 -56.7733A 85.125 85.125 0 0 1 -63.2982 -56.9175A 0.5625 0.5625 0 0 0 -63.2004 -57.5843C -63.32960369521966 -57.80242213066907 -63.46186723603133 -58.033288491734446 -63.596507517248796 -58.277220295138896 C -63.94216964508204 -58.903476741861965 -64.303390327484 -59.61559498227968 -64.66783080849348 -60.41795494463522 A 88.5 88.5 0 0 1 -63.8304 -61.302C -63.00947894709371 -60.98156061889305 -62.278848995920036 -60.659423002060564 -61.63479723788717 -60.348172658036354 C -61.38393390361011 -60.226936039996 -61.14624552420693 -60.107365327878455 -60.92148273503489 -59.99019181188391 A 0.5625 0.5625 0 0 0 -60.2609 -60.1239A 85.125 85.125 0 0 1 -60.1239 -60.2609A 0.5625 0.5625 0 0 0 -59.9902 -60.9215C -60.10736532787844 -61.14624552420694 -60.226936039995984 -61.38393390361012 -60.34817265803635 -61.63479723788718 C -60.65942300206055 -62.27884899592004 -60.981560618893035 -63.009478947093726 -61.302027723886404 -63.83039258932825 A 88.5 88.5 0 0 1 -60.418 -64.6678C -59.61559498227967 -64.30339032748401 -58.90347674186195 -63.942169645082046 -58.27722029513889 -63.5965075172488 C -58.03328849173443 -63.461867236031345 -57.80242213066906 -63.32960369521967 -57.58433262176146 -63.20043361218431 A 0.5625 0.5625 0 0 0 -56.9175 -63.2982A 85.125 85.125 0 0 1 -56.7733 -63.4276A 0.5625 0.5625 0 0 0 -56.604 -64.0799C -56.708821701666594 -64.31071644426167 -56.815348863589605 -64.5545296610327 -56.92282621056335 -64.81158870079973 C -57.198751819891754 -65.47154665536742 -57.480861486021 -66.21854525376436 -57.75641522976357 -67.05560469472364 A 88.5 88.5 0 0 1 -56.8283 -67.844C -56.046848205749555 -67.43660711291487 -55.35533044158332 -67.03736288744243 -54.748706224230865 -66.65830286237788 C -54.512421445707304 -66.51065384112634 -54.28905427379449 -66.36608542337446 -54.078277739257295 -66.22529765140756 A 0.5625 0.5625 0 0 0 -53.4071 -66.2868A 85.125 85.125 0 0 1 -53.2562 -66.4082A 0.5625 0.5625 0 0 0 -53.0518 -67.0504C -53.143941330601294 -67.28655295239346 -53.237112479809475 -67.53577586035907 -53.33051530613983 -67.79827660716177 C -53.57030684341891 -68.47220498787424 -53.8115610825873 -69.23338115789919 -54.04139321847137 -70.0841311580194 A 88.5 88.5 0 0 1 -53.072 -70.8211C -52.31370636668608 -70.3720207105077 -51.64481741952057 -69.93592399406695 -51.05960476488822 -69.52457792013581 C -50.83166007521229 -69.36435323886913 -50.61644726685293 -69.20790398825511 -50.413601950578254 -69.05591148214924 A 0.5625 0.5625 0 0 0 -49.7401 -69.081A 85.125 85.125 0 0 1 -49.5828 -69.194A 0.5625 0.5625 0 0 0 -49.3439 -69.8243C -49.42318062303165 -70.06502640739409 -49.50272247249118 -70.31892799282467 -49.58177681159542 -70.58610048674436 C -49.784730926930806 -71.27202254554464 -49.984422098887286 -72.04514362634197 -50.16785848965875 -72.90708878929047 A 88.5 88.5 0 0 1 -49.1599 -73.5905C -48.42711941331502 -73.10102104641564 -47.78282124968035 -72.6293509858144 -47.220736687314954 -72.18692541192553 C -47.00180068753584 -72.0145950372402 -46.79537349897753 -71.84672384637197 -46.601054381227804 -71.68397242633549 A 0.5625 0.5625 0 0 0 -45.9272 -71.6726A 85.125 85.125 0 0 1 -45.764 -71.7769A 0.5625 0.5625 0 0 0 -45.4913 -72.3933C -45.55745321119172 -72.63798706789527 -45.62313245095325 -72.89582259369408 -45.6876064228339 -73.16688317177285 C -45.85312781683675 -73.8627869810797 -46.01067019296766 -74.64558527531237 -46.14717278808669 -75.51619736741503 A 88.5 88.5 0 0 1 -45.1037 -76.144C -44.39848737482088 -75.61560349245282 -43.78066983224212 -75.10974357724655 -43.243362053011005 -74.63753621383707 C -43.03407692013823 -74.45360562041418 -42.837040837891955 -74.27480488441836 -42.651817890120284 -74.10177192840798 A 0.5625 0.5625 0 0 0 -41.9795 -74.0539A 85.125 85.125 0 0 1 -41.8109 -74.1493A 0.5625 0.5625 0 0 0 -41.5053 -74.75C -41.55809793963656 -74.9978879969644 -41.60972192117351 -75.2589011871098 -41.65942641256231 -75.53305478196904 C -41.787029582465074 -76.23689913600704 -41.901961063837 -77.02707856140373 -41.99112947767304 -77.90380392738987 A 88.5 88.5 0 0 1 -40.9152 -78.4742C -40.239626923096814 -77.90839234504813 -39.65010216687491 -77.36982634952663 -39.13914718707149 -76.8692222621537 C -38.94012679045914 -76.67423095011459 -38.75305975530299 -76.48502512235684 -38.57747626832869 -76.30221816584572 A 0.5625 0.5625 0 0 0 -37.9088 -76.218A 85.125 85.125 0 0 1 -37.7353 -76.3041A 0.5625 0.5625 0 0 0 -37.3976 -76.8874C -37.436845606457666 -77.13780719857087 -37.47426290773746 -77.40123245640417 -37.50905212679721 -77.67767492831412 C -37.59836279051682 -78.38739533032211 -37.670346263292465 -79.18263815448195 -37.711918949524225 -80.06290520779535 A 88.5 88.5 0 0 1 -36.6067 -80.5742C -35.9627367124101 -79.9726624594545 -35.40323392022885 -79.40297009047634 -34.92013045884527 -78.87543763718118 C -34.73195855960737 -78.66995754964064 -34.55540927138671 -78.4709016034135 -34.3899802618297 -78.2788568507023 A 0.5625 0.5625 0 0 0 -33.7268 -78.1586A 85.125 85.125 0 0 1 -33.5489 -78.2351A 0.5625 0.5625 0 0 0 -33.1801 -78.7993C -33.205784554830615 -79.05146792099319 -33.2288854244617 -79.31653257484558 -33.24865732841878 -79.5944530704057 C -33.29941352239052 -80.30796778816133 -33.32823784664164 -81.10594142686254 -33.32209286541752 -81.98716819256781 A 88.5 88.5 0 0 1 -32.1908 -82.4379C -31.580361598647126 -81.80235897575734 -31.052521888597056 -81.20321123919746 -30.598686971323207 -80.65029776355823 C -30.421915510061822 -80.43493160901676 -30.256401818258027 -80.22660940970741 -30.101612517906403 -80.02589016114472 A 0.5625 0.5625 0 0 0 -29.4459 -79.8699A 85.125 85.125 0 0 1 -29.2641 -79.9367A 0.5625 0.5625 0 0 0 -28.8654 -80.4801C -28.877325215822196 -80.73325706761297 -28.88604189497372 -80.99918363718469 -28.89073848942717 -81.27776696769641 C -28.90279133698894 -81.99298313959554 -28.888371966006147 -82.79134699866674 -28.834527341614827 -83.67094868682663 A 88.5 88.5 0 0 1 -27.6805 -84.0598C -27.105355843089995 -83.39211507882169 -26.610727459986286 -82.76526937822322 -26.187492262829267 -82.18859667072974 C -26.022639740697596 -81.96397615522572 -25.86864712548637 -81.74699874773817 -25.72495155802791 -81.5381937474635 A 0.5625 0.5625 0 0 0 -25.0787 -81.3469A 85.125 85.125 0 0 1 -24.8935 -81.4038A 0.5625 0.5625 0 0 0 -24.4659 -81.9248C -24.464163706457548 -82.17824166109473 -24.45847062760768 -82.44425013793864 -24.44807813663677 -82.72267917049432 C -24.421392284709988 -83.43749894427464 -24.3637715129928 -84.23391128496083 -24.262385180994933 -85.10930787227062 A 88.5 88.5 0 0 1 -23.089 -85.4351C -22.55084540865319 -84.73726774008587 -22.090879182766848 -84.08456272189278 -21.699485127482387 -83.48582226295552 C -21.547035085331565 -83.25260623716252 -21.405015233585907 -83.02761005361769 -21.27283488287838 -82.81133176267345 A 0.5625 0.5625 0 0 0 -20.6379 -82.5854A 85.125 85.125 0 0 1 -20.4499 -82.6321A 0.5625 0.5625 0 0 0 -19.9947 -83.1292C -19.97924458982152 -83.38218331265816 -19.959158451751442 -83.64749344807902 -19.933707358322785 -83.92495150235347 C -19.868361081109068 -84.63727818845662 -19.767707920308855 -85.42940299614257 -19.619077264284833 -86.29802679358278 A 88.5 88.5 0 0 1 -18.4298 -86.5598C -17.93018945917291 -85.8338713950276 -17.506234550695606 -85.15722155551786 -17.147829663484174 -84.53816955406454 C -17.008229263554625 -84.29704208076882 -16.878598743969405 -84.06468707373932 -16.758321317755822 -83.84156987361716 A 0.5625 0.5625 0 0 0 -16.1365 -83.5816A 85.125 85.125 0 0 1 -15.9463 -83.6181A 0.5625 0.5625 0 0 0 -15.4649 -84.0898C -15.435722906424528 -84.34155065400282 -15.401302625237996 -84.6053842476611 -15.360867581793782 -84.8810574913757 C -15.257052551183216 -85.58880171289908 -15.113662234362922 -86.3743155490425 -14.918223213635589 -87.23361873335334 A 88.5 88.5 0 0 1 -13.7165 -87.4306C -13.25694117467746 -86.67870951618463 -12.870241116402228 -85.98009958592274 -12.545876660550372 -85.34255182813489 C -12.419535374867927 -85.09422017576134 -12.302674416092136 -84.85518788251707 -12.19465270878711 -84.62588621440753 A 0.5625 0.5625 0 0 0 -11.5878 -84.3326A 85.125 85.125 0 0 1 -11.3959 -84.3588A 0.5625 0.5625 0 0 0 -10.8897 -84.8037C -10.846925588202636 -85.05352969541967 -10.7982721245149 -85.31511287792725 -10.74297173400442 -85.58819271396034 C -10.600992457368882 -86.28927853515947 -10.415285573033572 -87.06587735233667 -10.173611443924424 -87.91333943922253 A 88.5 88.5 0 0 1 -8.96301 -88.045C -8.54480799757551 -87.26930404778385 -8.196497047400825 -86.55078317006422 -7.907124439744826 -85.89660969336346 C -7.794412849068712 -85.64180226143549 -7.690664224429321 -85.39679380487728 -7.59521508231227 -85.16198025008104 A 0.5625 0.5625 0 0 0 -7.00515 -84.8363A 85.125 85.125 0 0 1 -6.81211 -84.852A 0.5625 0.5625 0 0 0 -6.28252 -85.2689C -6.2263123683297215 -85.51603207970786 -6.163568431132666 -85.77459758252024 -6.093564899129421 -86.0442830206617 C -5.913837826149992 -86.73665403602747 -5.686359084588299 -87.50205993610147 -5.399158718957924 -88.3351951732457 A 88.5 88.5 0 0 1 -4.18321 -88.4011C -3.807611426365539 -87.60392267430599 -3.498711240321459 -86.8675983946625 -3.2451792605778182 -86.19871800256861 C -3.146427967423441 -85.9381821851868 -3.05609598951217 -85.68791621733212 -2.9734993813626014 -85.4482795244633 A 0.5625 0.5625 0 0 0 -2.40194 -85.0911A 85.125 85.125 0 0 1 -2.20833 -85.0964A 0.5625 0.5625 0 0 0 -1.65694 -85.4839C -1.5874363015007957 -85.72770120768618 -1.510785929572857 -85.98249061363336 -1.4262845884976634 -86.24799062002688 C -1.209336889645962 -86.9296159860773 -0.9407535252009623 -87.68158390166543 -0.6088693312057314 -88.49794855987017 A 88.5 88.5 0 0 1 0.608869 -88.4979C 0.9407535252009301 -87.68158390166543 1.20933688964593 -86.9296159860773 1.4262845884976318 -86.24799062002688 C 1.5107859295728254 -85.98249061363336 1.5874363015007642 -85.72770120768618 1.6569381055999404 -85.48394427245381 A 0.5625 0.5625 0 0 0 2.20833 -85.0964A 85.125 85.125 0 0 1 2.40194 -85.0911A 0.5625 0.5625 0 0 0 2.9735 -85.4483C 3.05609598951214 -85.68791621733212 3.14642796742341 -85.9381821851868 3.245179260577787 -86.19871800256861 C 3.4987112403214278 -86.8675983946625 3.807611426365507 -87.60392267430599 4.183205975201705 -88.40112221537092 A 88.5 88.5 0 0 1 5.39916 -88.3352C 5.686359084588267 -87.50205993610147 5.913837826149961 -86.73665403602747 6.09356489912939 -86.0442830206617 C 6.163568431132635 -85.77459758252024 6.226312368329691 -85.51603207970786 6.282515507612047 -85.26886988320176 A 0.5625 0.5625 0 0 0 6.81211 -84.852A 85.125 85.125 0 0 1 7.00515 -84.8363A 0.5625 0.5625 0 0 0 7.59521 -85.162C 7.690664224429366 -85.39679380487728 7.794412849068758 -85.64180226143549 7.907124439744872 -85.89660969336346 C 8.196497047400872 -86.55078317006422 8.544807997575557 -87.26930404778385 8.96301121772689 -88.04500014809933 A 88.5 88.5 0 0 1 10.1736 -87.9133C 10.415285573033618 -87.06587735233667 10.600992457368928 -86.28927853515947 10.742971734004467 -85.58819271396034 C 10.798272124514947 -85.31511287792725 10.84692558820268 -85.05352969541967 10.889665209177027 -84.80368720694766 A 0.5625 0.5625 0 0 0 11.3959 -84.3588A 85.125 85.125 0 0 1 11.5878 -84.3326A 0.5625 0.5625 0 0 0 12.1947 -84.6259C 12.302674416092104 -84.85518788251709 12.419535374867893 -85.09422017576135 12.545876660550338 -85.3425518281349 C 12.870241116402193 -85.98009958592276 13.256941174677426 -86.67870951618463 13.716526404043714 -87.43062692543775 A 88.5 88.5 0 0 1 14.9182 -87.2336C 15.113662234362888 -86.3743155490425 15.25705255118318 -85.5888017128991 15.360867581793748 -84.88105749137571 C 15.401302625237962 -84.60538424766112 15.435722906424497 -84.34155065400283 15.464873646418575 -84.08976070463089 A 0.5625 0.5625 0 0 0 15.9463 -83.6181A 85.125 85.125 0 0 1 16.1365 -83.5816A 0.5625 0.5625 0 0 0 16.7583 -83.8416C 16.878598743969373 -84.06468707373932 17.00822926355459 -84.29704208076882 17.14782966348414 -84.53816955406454 C 17.50623455069557 -85.15722155551786 17.93018945917288 -85.8338713950276 18.429808655090888 -86.55980460990335 A 88.5 88.5 0 0 1 19.6191 -86.298C 19.767707920308823 -85.42940299614257 19.868361081109033 -84.63727818845662 19.93370735832275 -83.92495150235347 C 19.959158451751406 -83.64749344807902 19.979244589821487 -83.38218331265816 19.994720944692283 -83.12918444569068 A 0.5625 0.5625 0 0 0 20.4499 -82.6321A 85.125 85.125 0 0 1 20.6379 -82.5854A 0.5625 0.5625 0 0 0 21.2728 -82.8113C 21.405015233585953 -83.02761005361768 21.54703508533161 -83.25260623716252 21.699485127482436 -83.48582226295551 C 22.090879182766898 -84.08456272189277 22.550845408653238 -84.73726774008587 23.089033101938078 -85.43508747338834 A 88.5 88.5 0 0 1 24.2624 -85.1093C 24.363771512992848 -84.23391128496083 24.421392284710038 -83.43749894427462 24.44807813663682 -82.7226791704943 C 24.458470627607728 -82.44425013793864 24.464163706457594 -82.17824166109472 24.46592028138974 -81.92477596579963 A 0.5625 0.5625 0 0 0 24.8935 -81.4038A 85.125 85.125 0 0 1 25.0787 -81.3469A 0.5625 0.5625 0 0 0 25.725 -81.5382C 25.86864712548641 -81.74699874773816 26.022639740697638 -81.96397615522571 26.18749226282931 -82.18859667072974 C 26.61072745998633 -82.76526937822322 27.105355843090038 -83.39211507882167 27.680533436508775 -84.05977450504034 A 88.5 88.5 0 0 1 28.8345 -83.6709C 28.88837196600619 -82.79134699866673 28.902791336988983 -81.99298313959554 28.890738489427214 -81.27776696769641 C 28.88604189497376 -80.99918363718467 28.87732521582224 -80.73325706761295 28.865356858478798 -80.48006800254613 A 0.5625 0.5625 0 0 0 29.2641 -79.9367A 85.125 85.125 0 0 1 29.4459 -79.8699A 0.5625 0.5625 0 0 0 30.1016 -80.0259C 30.256401818258 -80.22660940970742 30.421915510061794 -80.43493160901677 30.59868697132318 -80.65029776355824 C 31.052521888597028 -81.20321123919747 31.58036159864709 -81.80235897575734 32.190841997216424 -82.43789973475886 A 88.5 88.5 0 0 1 33.3221 -81.9872C 33.328237846641606 -81.10594142686254 33.299413522390495 -80.30796778816135 33.24865732841875 -79.59445307040572 C 33.22888542446167 -79.3165325748456 33.205784554830586 -79.0514679209932 33.180126370465764 -78.79929813330637 A 0.5625 0.5625 0 0 0 33.5489 -78.2351A 85.125 85.125 0 0 1 33.7268 -78.1586A 0.5625 0.5625 0 0 0 34.39 -78.2789C 34.55540927138668 -78.47090160341351 34.73195855960735 -78.66995754964066 34.92013045884525 -78.8754376371812 C 35.40323392022882 -79.40297009047636 35.96273671241008 -79.97266245945451 36.606729271936594 -80.57422040069049 A 88.5 88.5 0 0 1 37.7119 -80.0629C 37.670346263292444 -79.18263815448196 37.598362790516795 -78.38739533032212 37.50905212679719 -77.67767492831413 C 37.47426290773744 -77.40123245640419 37.43684560645764 -77.13780719857088 37.39757285494704 -76.88739634569963 A 0.5625 0.5625 0 0 0 37.7353 -76.3041A 85.125 85.125 0 0 1 37.9088 -76.218A 0.5625 0.5625 0 0 0 38.5775 -76.3022C 38.753059755303035 -76.48502512235682 38.94012679045918 -76.67423095011458 39.13914718707153 -76.86922226215368 C 39.65010216687495 -77.36982634952662 40.23962692309686 -77.90839234504811 40.915242702445 -78.47420299542985 A 88.5 88.5 0 0 1 41.9911 -77.9038C 41.90196106383704 -77.02707856140371 41.78702958246512 -76.23689913600703 41.659426412562354 -75.53305478196903 C 41.60972192117355 -75.25890118710979 41.5580979396366 -74.99788799696437 41.50532581472701 -74.7499705770854 A 0.5625 0.5625 0 0 0 41.8109 -74.1493A 85.125 85.125 0 0 1 41.9795 -74.0539A 0.5625 0.5625 0 0 0 42.6518 -74.1018C 42.83704083789193 -74.27480488441837 43.034076920138205 -74.4536056204142 43.24336205301097 -74.6375362138371 C 43.78066983224208 -75.10974357724656 44.39848737482085 -75.61560349245285 45.103744676502714 -76.14400723185484 A 88.5 88.5 0 0 1 46.1472 -75.5162C 46.01067019296763 -74.6455852753124 45.85312781683673 -73.86278698107971 45.687606422833866 -73.16688317177288 C 45.62313245095322 -72.89582259369409 45.55745321119169 -72.63798706789528 45.49133650261797 -72.39329026551671 A 0.5625 0.5625 0 0 0 45.764 -71.7769A 85.125 85.125 0 0 1 45.9272 -71.6726A 0.5625 0.5625 0 0 0 46.6011 -71.684C 46.7953734989775 -71.84672384637199 47.001800687535805 -72.01459503724021 47.22073668731492 -72.18692541192554 C 47.78282124968031 -72.62935098581443 48.42711941331498 -73.10102104641565 49.159949596150476 -73.59046797562748 A 88.5 88.5 0 0 1 50.1679 -72.9071C 49.98442209888725 -72.04514362634198 49.78473092693076 -71.27202254554467 49.58177681159538 -70.58610048674437 C 49.50272247249114 -70.31892799282468 49.42318062303161 -70.0650264073941 49.343913262491775 -69.82426796039803 A 0.5625 0.5625 0 0 0 49.5828 -69.194A 85.125 85.125 0 0 1 49.7401 -69.081A 0.5625 0.5625 0 0 0 50.4136 -69.0559C 50.616447266852894 -69.20790398825514 50.831660075212255 -69.36435323886916 51.05960476488818 -69.52457792013583 C 51.644817419520535 -69.93592399406697 52.313706366686034 -70.37202071050771 53.07195991348392 -70.82107519735538 A 88.5 88.5 0 0 1 54.0414 -70.0841C 53.81156108258726 -69.2333811578992 53.57030684341888 -68.47220498787425 53.33051530613979 -67.79827660716178 C 53.23711247980944 -67.5357758603591 53.14394133060126 -67.28655295239349 53.05175582292136 -67.05043904678706 A 0.5625 0.5625 0 0 0 53.2562 -66.4082A 85.125 85.125 0 0 1 53.4071 -66.2868A 0.5625 0.5625 0 0 0 54.0783 -66.2253C 54.28905427379452 -66.36608542337443 54.51242144570733 -66.51065384112631 54.748706224230894 -66.65830286237785 C 55.35533044158335 -67.0373628874424 56.04684820574958 -67.43660711291484 56.82830102821172 -67.84395200321735 A 88.5 88.5 0 0 1 57.7564 -67.0556C 57.48086148602103 -66.21854525376433 57.19875181989178 -65.47154665536739 56.92282621056338 -64.8115887007997 C 56.815348863589634 -64.55452966103267 56.70882170166662 -64.31071644426164 56.60398844282404 -64.07993964281194 A 0.5625 0.5625 0 0 0 56.7733 -63.4276A 85.125 85.125 0 0 1 56.9175 -63.2982A 0.5625 0.5625 0 0 0 57.5843 -63.2004C 57.80242213066903 -63.32960369521969 58.033288491734396 -63.46186723603135 58.27722029513886 -63.596507517248824 C 58.90347674186192 -63.94216964508207 59.61559498227964 -64.30339032748402 60.41795494463518 -64.6678308084935 A 88.5 88.5 0 0 1 61.302 -63.8304C 60.981560618893006 -63.00947894709375 60.65942300206052 -62.278848995920065 60.34817265803632 -61.6347972378872 C 60.22693603999596 -61.38393390361014 60.10736532787841 -61.14624552420696 59.990191811883875 -60.92148273503492 A 0.5625 0.5625 0 0 0 60.1239 -60.2609A 85.125 85.125 0 0 1 60.2609 -60.1239A 0.5625 0.5625 0 0 0 60.9215 -59.9902C 61.14624552420694 -60.10736532787844 61.38393390361012 -60.226936039995984 61.63479723788718 -60.34817265803635 C 62.27884899592004 -60.65942300206055 63.009478947093726 -60.981560618893035 63.83039258932825 -61.302027723886404 A 88.5 88.5 0 0 1 64.6678 -60.418C 64.30339032748401 -59.61559498227967 63.942169645082046 -58.90347674186195 63.5965075172488 -58.27722029513889 C 63.461867236031345 -58.03328849173443 63.32960369521967 -57.80242213066906 63.20043361218431 -57.58433262176146 A 0.5625 0.5625 0 0 0 63.2982 -56.9175A 85.125 85.125 0 0 1 63.4276 -56.7733A 0.5625 0.5625 0 0 0 64.0799 -56.604C 64.31071644426167 -56.708821701666594 64.5545296610327 -56.815348863589605 64.81158870079973 -56.92282621056335 C 65.47154665536742 -57.198751819891754 66.21854525376436 -57.480861486021 67.05560469472364 -57.75641522976357 A 88.5 88.5 0 0 1 67.844 -56.8283C 67.43660711291487 -56.046848205749555 67.03736288744243 -55.35533044158332 66.65830286237788 -54.748706224230865 C 66.51065384112634 -54.512421445707304 66.36608542337446 -54.28905427379449 66.22529765140756 -54.078277739257295 A 0.5625 0.5625 0 0 0 66.2868 -53.4071A 85.125 85.125 0 0 1 66.4082 -53.2562A 0.5625 0.5625 0 0 0 67.0504 -53.0518C 67.2865529523935 -53.14394133060123 67.53577586035911 -53.23711247980941 67.79827660716181 -53.33051530613976 C 68.47220498787428 -53.57030684341885 69.23338115789922 -53.81156108258723 70.08413115801945 -54.0413932184713 A 88.5 88.5 0 0 1 70.8211 -53.072C 70.37202071050773 -52.313706366686006 69.935923994067 -51.64481741952051 69.52457792013585 -51.05960476488815 C 69.36435323886917 -50.83166007521223 69.20790398825515 -50.616447266852866 69.05591148214927 -50.41360195057819 A 0.5625 0.5625 0 0 0 69.081 -49.7401A 85.125 85.125 0 0 1 69.194 -49.5828A 0.5625 0.5625 0 0 0 69.8243 -49.3439C 70.06502640739409 -49.42318062303165 70.31892799282467 -49.50272247249118 70.58610048674436 -49.58177681159542 C 71.27202254554464 -49.784730926930806 72.04514362634197 -49.984422098887286 72.90708878929047 -50.16785848965875 A 88.5 88.5 0 0 1 73.5905 -49.1599C 73.10102104641564 -48.42711941331502 72.6293509858144 -47.78282124968035 72.18692541192553 -47.220736687314954 C 72.0145950372402 -47.00180068753584 71.84672384637197 -46.79537349897753 71.68397242633549 -46.601054381227804 A 0.5625 0.5625 0 0 0 71.6726 -45.9272A 85.125 85.125 0 0 1 71.7769 -45.764A 0.5625 0.5625 0 0 0 72.3933 -45.4913C 72.63798706789527 -45.55745321119172 72.89582259369408 -45.62313245095325 73.16688317177285 -45.6876064228339 C 73.8627869810797 -45.85312781683675 74.64558527531237 -46.01067019296766 75.51619736741503 -46.14717278808669 A 88.5 88.5 0 0 1 76.144 -45.1037C 75.61560349245282 -44.39848737482088 75.10974357724655 -43.78066983224212 74.63753621383707 -43.243362053011005 C 74.45360562041418 -43.03407692013823 74.27480488441836 -42.837040837891955 74.10177192840798 -42.651817890120284 A 0.5625 0.5625 0 0 0 74.0539 -41.9795A 85.125 85.125 0 0 1 74.1493 -41.8109A 0.5625 0.5625 0 0 0 74.75 -41.5053C 74.9978879969644 -41.55809793963657 75.2589011871098 -41.60972192117351 75.53305478196904 -41.65942641256231 C 76.23689913600704 -41.78702958246508 77.02707856140373 -41.901961063837 77.90380392738987 -41.99112947767305 A 88.5 88.5 0 0 1 78.4742 -40.9152C 77.90839234504813 -40.239626923096814 77.36982634952663 -39.650102166874916 76.8692222621537 -39.13914718707149 C 76.67423095011459 -38.94012679045914 76.48502512235684 -38.753059755303 76.30221816584572 -38.57747626832869 A 0.5625 0.5625 0 0 0 76.218 -37.9088A 85.125 85.125 0 0 1 76.3041 -37.7353A 0.5625 0.5625 0 0 0 76.8874 -37.3976C 77.13780719857087 -37.436845606457666 77.40123245640417 -37.47426290773747 77.67767492831412 -37.509052126797215 C 78.38739533032211 -37.59836279051682 79.18263815448195 -37.67034626329247 80.06290520779535 -37.711918949524225 A 88.5 88.5 0 0 1 80.5742 -36.6067C 79.9726624594545 -35.962736712410106 79.40297009047634 -35.40323392022885 78.87543763718118 -34.92013045884528 C 78.66995754964064 -34.73195855960738 78.4709016034135 -34.55540927138671 78.2788568507023 -34.389980261829706 A 0.5625 0.5625 0 0 0 78.1586 -33.7268A 85.125 85.125 0 0 1 78.2351 -33.5489A 0.5625 0.5625 0 0 0 78.7993 -33.1801C 79.05146792099319 -33.205784554830615 79.31653257484558 -33.22888542446171 79.5944530704057 -33.24865732841879 C 80.30796778816133 -33.29941352239053 81.10594142686254 -33.32823784664164 81.98716819256781 -33.32209286541752 A 88.5 88.5 0 0 1 82.4379 -32.1908C 81.80235897575734 -31.580361598647126 81.20321123919746 -31.052521888597063 80.65029776355823 -30.59868697132321 C 80.43493160901676 -30.421915510061826 80.22660940970741 -30.25640181825803 80.02589016114472 -30.10161251790641 A 0.5625 0.5625 0 0 0 79.8699 -29.4459A 85.125 85.125 0 0 1 79.9367 -29.2641A 0.5625 0.5625 0 0 0 80.4801 -28.8654C 80.73325706761297 -28.877325215822204 80.99918363718469 -28.886041894973722 81.27776696769641 -28.89073848942718 C 81.99298313959554 -28.902791336988948 82.79134699866674 -28.88837196600615 83.67094868682663 -28.83452734161483 A 88.5 88.5 0 0 1 84.0598 -27.6805C 83.39211507882169 -27.10535584309 82.76526937822322 -26.610727459986293 82.18859667072974 -26.187492262829274 C 81.96397615522572 -26.0226397406976 81.74699874773817 -25.868647125486376 81.5381937474635 -25.724951558027914 A 0.5625 0.5625 0 0 0 81.3469 -25.0787A 85.125 85.125 0 0 1 81.4038 -24.8935A 0.5625 0.5625 0 0 0 81.9248 -24.4659C 82.17824166109473 -24.46416370645755 82.44425013793864 -24.458470627607685 82.72267917049432 -24.448078136636777 C 83.43749894427464 -24.421392284709995 84.23391128496083 -24.363771512992802 85.10930787227062 -24.262385180994936 A 88.5 88.5 0 0 1 85.4351 -23.089C 84.73726774008587 -22.550845408653192 84.08456272189278 -22.090879182766848 83.48582226295552 -21.699485127482394 C 83.25260623716252 -21.54703508533157 83.02761005361769 -21.40501523358591 82.81133176267345 -21.27283488287839 A 0.5625 0.5625 0 0 0 82.5854 -20.6379A 85.125 85.125 0 0 1 82.6321 -20.4499A 0.5625 0.5625 0 0 0 83.1292 -19.9947C 83.38218331265816 -19.979244589821523 83.64749344807902 -19.959158451751446 83.92495150235347 -19.93370735832279 C 84.63727818845662 -19.86836108110907 85.42940299614257 -19.76770792030886 86.29802679358278 -19.619077264284837 A 88.5 88.5 0 0 1 86.5598 -18.4298C 85.8338713950276 -17.93018945917292 85.15722155551786 -17.50623455069561 84.53816955406454 -17.147829663484178 C 84.29704208076882 -17.00822926355463 84.06468707373932 -16.87859874396941 83.84156987361716 -16.758321317755826 A 0.5625 0.5625 0 0 0 83.5816 -16.1365A 85.125 85.125 0 0 1 83.6181 -15.9463A 0.5625 0.5625 0 0 0 84.0898 -15.4649C 84.34155065400282 -15.435722906424534 84.6053842476611 -15.401302625238 84.8810574913757 -15.360867581793787 C 85.58880171289908 -15.25705255118322 86.3743155490425 -15.113662234362927 87.23361873335334 -14.918223213635594 A 88.5 88.5 0 0 1 87.4306 -13.7165C 86.67870951618463 -13.256941174677465 85.98009958592274 -12.870241116402232 85.34255182813489 -12.545876660550377 C 85.09422017576134 -12.41953537486793 84.85518788251707 -12.302674416092142 84.62588621440753 -12.194652708787114 A 0.5625 0.5625 0 0 0 84.3326 -11.5878A 85.125 85.125 0 0 1 84.3588 -11.3959A 0.5625 0.5625 0 0 0 84.8037 -10.8897C 85.05352969541967 -10.846925588202641 85.31511287792725 -10.798272124514906 85.58819271396034 -10.742971734004428 C 86.28927853515947 -10.60099245736889 87.06587735233667 -10.415285573033579 87.91333943922253 -10.17361144392443 A 88.5 88.5 0 0 1 88.045 -8.96301C 87.26930404778385 -8.544807997575518 86.55078317006422 -8.196497047400833 85.89660969336346 -7.907124439744833 C 85.64180226143549 -7.794412849068717 85.39679380487728 -7.690664224429327 85.16198025008104 -7.5952150823122775 A 0.5625 0.5625 0 0 0 84.8363 -7.00515A 85.125 85.125 0 0 1 84.852 -6.81211A 0.5625 0.5625 0 0 0 85.2689 -6.28252C 85.51603207970787 -6.226312368329651 85.77459758252026 -6.163568431132595 86.0442830206617 -6.09356489912935 C 86.73665403602749 -5.91383782614992 87.50205993610147 -5.686359084588227 88.33519517324571 -5.399158718957851 A 88.5 88.5 0 0 1 88.4011 -4.18321C 87.60392267430599 -3.807611426365466 86.86759839466251 -3.498711240321387 86.19871800256861 -3.245179260577747 C 85.93818218518682 -3.14642796742337 85.68791621733213 -3.0560959895121 85.4482795244633 -2.9734993813625303 A 0.5625 0.5625 0 0 0 85.0911 -2.40194A 85.125 85.125 0 0 1 85.0964 -2.20833A 0.5625 0.5625 0 0 0 85.4839 -1.65694" stroke="#191919" stroke-width="0.35 px" style="stroke-width:0.35;stroke-miterlimit:4;stroke-dasharray:none;fill:none;fill-rule: evenodd "/>
<title>b'InvoluteGear'</title>
</g>
</svg>