<?xml version="1.0"?>
<!DOCTYPE svg PUBLIC "-//W3C//DTD SVG 1.1//EN" "http://www.w3.org/Graphics/SVG/1.1/DTD/svg11.dtd">
<svg width="722.1432602485405mm" height="722.1432602485405mm" viewBox="0 0 722.1432602485405 722.1432602485405" xmlns="http://www.w3.org/2000/svg" version="1.1">
<g id="InvoluteGear" transform="translate(361.071630,361.071630) scale(1,-1)">
<path id="InvoluteGear_w0000"  d="M 341.9357730281463 -6.62775404220983 C 342.9108048307447 -6.34974520600312 343.92996245453344 -6.043143718291365 344.99196248010753 -5.70513835399059 C 347.7184639443092 -4.837347558583784 350.72633560666173 -3.763014100803785 353.99179423948067 -2.4354773248228607 A 354 354 0 0 1 353.992 2.43548C 350.72633560666173 3.763014100803785 347.7184639443092 4.837347558583784 344.99196248010753 5.70513835399059 C 343.92996245453344 6.043143718291365 342.9108048307447 6.34974520600312 341.93577708981525 6.6277524223998245 A 2.25 2.25 0 0 0 340.385 8.8333A 340.5 340.5 0 0 1 340.364 9.60774A 2.25 2.25 0 0 0 341.793 11.894C 342.75166486932847 12.224383958048538 343.7527287407472 12.585711869693618 344.79487201027445 12.980717042311127 C 347.47039357865 13.99484496128569 350.41569069722397 15.230445705462007 353.6044888614837 16.7328239008068 A 354 354 0 0 1 353.341 21.5966C 350.0082397444059 22.74543633835305 346.9466161441099 23.655351304599822 344.1771320826468 24.37425959651754 C 343.098390330081 24.65427372453052 342.0641283188314 24.905249473318744 341.07547953280704 25.130062030448165 A 2.25 2.25 0 0 0 339.408 27.2484A 340.5 340.5 0 0 1 339.345 28.0206A 2.25 2.25 0 0 0 340.648 30.3809C 341.5871752195091 30.762656897717363 342.56720904574195 31.177651396274925 343.58643877345384 31.628497758979382 C 346.2031326802569 32.78598818960338 349.0772161911354 34.17923199030212 352.18000059239733 35.85204487090745 A 354 354 0 0 1 351.653 40.6944C 348.2635094093467 41.661142292134365 345.1571141406379 42.403969829475606 342.35277085584136 42.97188693601777 C 341.260451511709 43.19308849805968 340.2141187816787 43.38770235281062 339.21474882779063 43.558660836708 A 2.25 2.25 0 0 0 337.435 45.5837A 340.5 340.5 0 0 1 337.33 46.3513A 2.25 2.25 0 0 0 338.504 48.7786C 339.4207515300683 49.21069766436854 340.37688070304534 49.67814149947169 341.37020731253955 50.18350664220148 C 343.920398343691 51.4809644656089 346.7148380647385 53.02776469870983 349.722507701751 54.866105616174984 A 354 354 0 0 1 348.934 59.6729C 345.49726219617 60.45464893745168 342.35520685159634 61.02821020473285 339.5242299655028 61.44347032717512 C 338.4215369906444 61.60521050095197 337.36620261601126 61.74289162569811 336.35904281852356 61.85949458567441 A 2.25 2.25 0 0 0 334.472 63.7852A 340.5 340.5 0 0 1 334.326 64.546A 2.25 2.25 0 0 0 335.366 67.0333C 336.2587482949573 67.51439497587752 337.1881683230753 68.0329170542184 338.15267821625815 68.5913186539366 C 340.62888622207146 70.02493820278232 343.3354855801104 71.72075783669155 346.2392184396134 73.7192346203636 A 354 354 0 0 1 345.192 78.4763C 341.7176119845703 79.07083168123532 338.5491127538265 79.47344432443617 335.69980600941386 79.73482943329104 C 334.5899737923161 79.83663380700567 333.5287332506326 79.91697835928598 332.51673778276273 79.97888377876917 A 2.25 2.25 0 0 0 330.528 81.7996A 340.5 340.5 0 0 1 330.342 82.5514A 2.25 2.25 0 0 0 331.245 85.0913C 332.1104402144707 85.62006093434375 333.0104249486501 86.18814034132639 333.94328905182203 86.79794050992969 C 336.33825088757106 88.36351673106752 338.9490709603435 90.2033816346129 341.74034989355334 92.35613240775226 A 354 354 0 0 1 340.437 97.0495C 336.9356451398433 97.45508605197134 333.7499957770985 97.68556913884008 330.8907166819772 97.79231254654722 C 329.77700055175455 97.83388251043085 328.71296664437887 97.85665482583032 327.6991038631985 97.8636811255589 A 2.25 2.25 0 0 0 325.615 99.5741A 340.5 340.5 0 0 1 325.388 100.315A 2.25 2.25 0 0 0 326.153 102.9C 326.9879949909527 103.47458850194553 327.8559046209029 104.09055896279044 328.75438668291895 104.74996905131712 C 331.0610775128929 106.4429098399452 333.56846031528676 108.42142337236004 336.2390980201614 110.72213374603497 A 354 354 0 0 1 334.684 115.338C 331.16538799466696 115.55348786402465 327.97193255838215 115.61116534795582 325.11106787078563 115.56295395770874 C 323.99673454873874 115.54416757989493 322.93302827045187 115.50930086328884 321.92027201018453 115.46142743391508 A 2.25 2.25 0 0 0 319.747 117.056A 340.5 340.5 0 0 1 319.48 117.784A 2.25 2.25 0 0 0 320.104 120.406C 320.90643763882963 121.02560727303207 321.73972643606703 121.68766204024725 322.6011910542329 122.39474788529279 C 324.81284495678983 124.21008755438817 327.2094359030294 126.32144639458845 329.75159893903543 128.76336798886575 A 354 354 0 0 1 327.949 133.288C 324.4237657074502 133.3129513865665 321.23187115264534 133.19765408956204 318.3778122816228 132.9946293136751 C 317.2661302993823 132.91554169784678 316.20587168397276 132.8231382193224 315.1971925332254 132.72050548186314 A 2.25 2.25 0 0 0 312.941 134.196A 340.5 340.5 0 0 1 312.634 134.907A 2.25 2.25 0 0 0 313.115 137.56C 313.88360641365404 138.22163708554672 314.6798301985626 138.9278342384294 315.5017505487248 139.680521835381 C 317.61188036190543 141.61293568091529 319.89064983781805 143.8509468496403 322.29688160276197 146.42691708774638 A 354 354 0 0 1 320.252 150.848C 316.73055261792786 150.68138505316978 313.5495813212885 150.39345116206718 310.71069971325653 150.03620850718875 C 309.60492982561675 149.89705163094976 308.55122879428353 149.74738242583055 307.5495853827985 149.59029141978817 A 2.25 2.25 0 0 0 305.216 150.941A 340.5 340.5 0 0 1 304.872 151.635A 2.25 2.25 0 0 0 305.209 154.31C 305.9401004894273 155.01223902121205 306.6969238004583 155.76050716183664 307.47688904861474 156.55658874828603 C 309.4793053981065 158.60040866749975 311.63356938019245 160.95850769238734 313.89681198171945 163.66097080977994 A 354 354 0 0 1 311.615 167.965C 308.10831424561485 167.60784425534808 304.9475965440281 167.1481183298604 302.1322191278761 166.63770565024933 C 301.03560474843914 166.43888768469412 299.9915519878575 166.23239175854633 298.9998823083417 166.02130325890795 A 2.25 2.25 0 0 0 296.597 167.244A 340.5 340.5 0 0 1 296.216 167.918A 2.25 2.25 0 0 0 296.407 170.607C 297.09921953767343 171.34816335156782 297.8144224816567 172.13630768055293 298.55014485534826 172.97344821204402 C 300.4389743089862 175.12267932896847 302.4624139698113 177.59394949928353 304.5760289274193 180.41497870601097 A 354 354 0 0 1 302.065 184.589C 298.5823411012495 184.04268077187064 295.4511479243188 183.412511267347 292.6675326870914 182.7504256913356 C 291.5832903747763 182.492529803813 290.55194827158107 182.22981284476688 289.57316106206673 181.965346010472 A 2.25 2.25 0 0 0 287.108 183.056A 340.5 340.5 0 0 1 286.69 183.709A 2.25 2.25 0 0 0 286.736 186.404C 287.3868953854879 187.18149399591005 288.05838014896085 188.0072027501433 288.7477016477021 188.88294674925976 C 290.51740394325765 191.13128499872133 292.40408418566255 193.70847765326002 294.3618719025099 196.639798384602 A 354 354 0 0 1 291.628 200.671C 288.1805745053679 199.9376883955491 285.08809018217863 199.13892370772314 282.3444019469774 198.32710724638162 C 281.27571197129873 198.01088988996466 280.26010562957634 197.6927224921265 279.29707184159207 197.37565304996718 A 2.25 2.25 0 0 0 276.776 198.331A 340.5 340.5 0 0 1 276.324 198.96A 2.25 2.25 0 0 0 276.224 201.654C 276.83161595302056 202.46578906741158 277.4574129554766 203.32664030084902 278.0983116805433 204.2384190595527 C 279.7436959762679 206.57926967808214 281.48808284203085 209.25482546674414 283.28430078942154 212.2878396539357 A 354 354 0 0 1 280.337 216.166C 276.9335246315968 215.24624433034904 273.888819951497 214.2812273736755 271.1931064286471 213.32206122455915 C 270.1431034414364 212.94844991923776 269.14621180957397 212.57576532240503 268.20175618714825 212.20702329168543 A 2.25 2.25 0 0 0 265.633 213.025A 340.5 340.5 0 0 1 265.147 213.628A 2.25 2.25 0 0 0 264.901 216.313C 265.46434169349783 217.15621709517802 266.0426153645053 218.0496857828293 266.6332114495115 218.99482489692355 C 268.14945154976965 221.42132176633336 269.7464284516595 224.1873928229983 271.37580801286947 227.31320411284682 A 354 354 0 0 1 268.222 231.026C 264.87418101505745 229.92344594408408 261.8861866214696 228.7950072795671 259.2463548031989 227.6913048422535 C 258.21811864413075 227.2613954543585 257.2428657770467 226.83528680666643 256.3197585712478 226.41595377129613 A 2.25 2.25 0 0 0 253.71 227.093A 340.5 340.5 0 0 1 253.193 227.67A 2.25 2.25 0 0 0 252.802 230.337C 253.31841478087867 231.20968852267623 253.84746894412538 232.13315396693773 254.3860300689952 233.10888118055556 C 255.76867858032819 235.6139069674478 257.21356130993604 238.46237992911867 258.6713232339739 241.67181977854082 A 354 354 0 0 1 255.322 245.208C 252.0379157883749 243.92624247557214 249.11539598368017 242.6376920082422 246.5391889515487 241.3926906321454 C 245.53573561444048 240.90774415998393 244.58498209682776 240.42946131151376 243.6859309401396 239.9607672475356 A 2.25 2.25 0 0 0 241.044 240.496A 340.5 340.5 0 0 1 240.496 241.044A 2.25 2.25 0 0 0 239.961 243.686C 240.42946131151376 244.58498209682776 240.90774415998393 245.53573561444048 241.3926906321454 246.5391889515487 C 242.6376920082422 249.11539598368017 243.92624247557214 252.0379157883749 245.20811089554562 255.321570357313 A 354 354 0 0 1 241.672 258.671C 238.46237992911867 257.21356130993604 235.6139069674478 255.76867858032819 233.10888118055556 254.3860300689952 C 232.13315396693773 253.84746894412538 231.20968852267623 253.31841478087867 230.33733048704585 252.80173444873725 A 2.25 2.25 0 0 0 227.67 253.193A 340.5 340.5 0 0 1 227.093 253.71A 2.25 2.25 0 0 0 226.416 256.32C 226.83528680666643 257.2428657770467 227.2613954543585 258.21811864413075 227.6913048422535 259.2463548031989 C 228.7950072795671 261.8861866214696 229.92344594408408 264.87418101505745 231.02566091905433 268.2224187788945 A 354 354 0 0 1 227.313 271.376C 224.1873928229983 269.7464284516595 221.42132176633336 268.14945154976965 218.99482489692355 266.6332114495115 C 218.0496857828293 266.0426153645053 217.15621709517802 265.46434169349783 216.31311095702927 264.9011906056302 A 2.25 2.25 0 0 0 213.628 265.147A 340.5 340.5 0 0 1 213.025 265.633A 2.25 2.25 0 0 0 212.207 268.202C 212.57576532240503 269.14621180957397 212.94844991923776 270.1431034414364 213.32206122455915 271.1931064286471 C 214.2812273736755 273.888819951497 215.24624433034904 276.9335246315968 216.1655728738853 280.3365246320777 A 354 354 0 0 1 212.288 283.284C 209.25482546674414 281.48808284203085 206.57926967808214 279.7436959762679 204.2384190595527 278.0983116805433 C 203.32664030084902 277.4574129554766 202.46578906741158 276.83161595302056 201.65440780231287 276.2236459285971 A 2.25 2.25 0 0 0 198.96 276.324A 340.5 340.5 0 0 1 198.331 276.776A 2.25 2.25 0 0 0 197.376 279.297C 197.6927224921265 280.26010562957634 198.01088988996466 281.27571197129873 198.32710724638162 282.3444019469774 C 199.13892370772314 285.08809018217863 199.9376883955491 288.1805745053679 200.6714339586349 291.62835515716193 A 354 354 0 0 1 196.64 294.362C 193.70847765326002 292.40408418566255 191.13128499872133 290.51740394325765 188.88294674925976 288.7477016477021 C 188.0072027501433 288.05838014896085 187.18149399591005 287.3868953854879 186.40421752491113 286.735889705342 A 2.25 2.25 0 0 0 183.709 286.69A 340.5 340.5 0 0 1 183.056 287.108A 2.25 2.25 0 0 0 181.965 289.573C 182.2298128447669 290.55194827158095 182.49252980381306 291.58329037477625 182.75042569133564 292.6675326870914 C 183.41251126734707 295.4511479243187 184.04268077187066 298.5823411012495 184.58869115234683 302.06478946966007 A 354 354 0 0 1 180.415 304.576C 177.59394949928355 302.4624139698113 175.12267932896853 300.43897430898613 172.97344821204405 298.55014485534826 C 172.136307680553 297.81442248165666 171.34816335156785 297.09921953767343 170.60727156048117 296.40708771363194 A 2.25 2.25 0 0 0 167.918 296.216A 340.5 340.5 0 0 1 167.244 296.597A 2.25 2.25 0 0 0 166.021 299C 166.23239175854633 299.9915519878575 166.43888768469412 301.03560474843914 166.63770565024933 302.1322191278761 C 167.1481183298604 304.9475965440281 167.60784425534808 308.10831424561485 167.96451791069228 311.6152157095595 A 354 354 0 0 1 163.661 313.897C 160.95850769238734 311.63356938019245 158.60040866749975 309.4793053981065 156.55658874828603 307.47688904861474 C 155.76050716183664 306.6969238004583 155.01223902121205 305.9401004894273 154.30990507331484 305.2088726633828 A 2.25 2.25 0 0 0 151.635 304.872A 340.5 340.5 0 0 1 150.941 305.216A 2.25 2.25 0 0 0 149.59 307.55C 149.74738242583055 308.55122879428353 149.89705163094976 309.60492982561675 150.03620850718875 310.71069971325653 C 150.39345116206718 313.5495813212885 150.68138505316978 316.73055261792786 150.8476757980968 320.25162083118147 A 354 354 0 0 1 146.427 322.297C 143.8509468496403 319.89064983781805 141.61293568091529 317.61188036190543 139.680521835381 315.5017505487248 C 138.9278342384294 314.6798301985626 138.22163708554672 313.88360641365404 137.5599210473187 313.1154274028092 A 2.25 2.25 0 0 0 134.907 312.634A 340.5 340.5 0 0 1 134.196 312.941A 2.25 2.25 0 0 0 132.721 315.197C 132.8231382193224 316.20587168397276 132.91554169784678 317.2661302993823 132.9946293136751 318.3778122816228 C 133.19765408956204 321.23187115264534 133.3129513865665 324.4237657074502 133.28837146167 327.94867277027123 A 354 354 0 0 1 128.763 329.752C 126.32144639458845 327.2094359030294 124.21008755438817 324.81284495678983 122.39474788529279 322.6011910542329 C 121.68766204024725 321.73972643606703 121.02560727303207 320.90643763882963 120.40645007162558 320.10356064457886 A 2.25 2.25 0 0 0 117.784 319.48A 340.5 340.5 0 0 1 117.056 319.747A 2.25 2.25 0 0 0 115.461 321.92C 115.50930086328883 322.93302827045187 115.5441675798949 323.99673454873874 115.56295395770874 325.11106787078563 C 115.6111653479558 327.97193255838215 115.55348786402462 331.16538799466696 115.33810936645935 334.68379474730654 A 354 354 0 0 1 110.722 336.239C 108.42142337236001 333.56846031528676 106.44290983994519 331.0610775128929 104.7499690513171 328.75438668291895 C 104.09055896279041 327.8559046209029 103.47458850194552 326.9879949909527 102.89980623211167 326.152774989854 A 2.25 2.25 0 0 0 100.315 325.388A 340.5 340.5 0 0 1 99.5741 325.615A 2.25 2.25 0 0 0 97.8637 327.699C 97.8566548258303 328.7129666443789 97.83388251043084 329.77700055175455 97.7923125465472 330.89071668197727 C 97.68556913884007 333.74999577709855 97.4550860519713 336.9356451398433 97.04954072397985 340.4372314890825 A 354 354 0 0 1 92.3561 341.74C 90.20338163461287 338.9490709603435 88.3635167310675 336.3382508875711 86.79794050992966 333.9432890518221 C 86.18814034132637 333.0104249486501 85.62006093434374 332.11044021447077 85.09133953151364 331.24532705069385 A 2.25 2.25 0 0 0 82.5514 330.342A 340.5 340.5 0 0 1 81.7996 330.528A 2.25 2.25 0 0 0 79.9789 332.517C 79.91697835928595 333.5287332506326 79.83663380700564 334.5899737923161 79.73482943329101 335.69980600941386 C 79.47344432443614 338.5491127538265 79.07083168123529 341.7176119845703 78.4763090571392 345.1921071743311 A 354 354 0 0 1 73.7192 346.239C 71.72075783669152 343.3354855801104 70.0249382027823 340.62888622207146 68.59131865393657 338.15267821625815 C 68.03291705421837 337.1881683230753 67.5143949758775 336.2587482949573 67.03328527102316 335.36627949446864 A 2.25 2.25 0 0 0 64.546 334.326A 340.5 340.5 0 0 1 63.7852 334.472A 2.25 2.25 0 0 0 61.8595 336.359C 61.74289162569807 337.36620261601126 61.605210500951934 338.4215369906444 61.44347032717508 339.5242299655028 C 61.028210204732815 342.35520685159634 60.454648937451644 345.49726219617 59.672892854542305 348.93447493341336 A 354 354 0 0 1 54.8661 349.723C 53.027764698709795 346.7148380647385 51.480964465608864 343.920398343691 50.183506642201436 341.37020731253955 C 49.67814149947166 340.37688070304534 49.2106976643685 339.4207515300683 48.77861083514839 338.5035448576301 A 2.25 2.25 0 0 0 46.3513 337.33A 340.5 340.5 0 0 1 45.5837 337.435A 2.25 2.25 0 0 0 43.5587 339.215C 43.38770235281065 340.2141187816787 43.193088498059716 341.260451511709 42.971886936017796 342.35277085584136 C 42.40396982947564 345.1571141406379 41.6611422921344 348.2635094093467 40.69444577569781 351.6533577568901 A 354 354 0 0 1 35.852 352.18C 34.179231990302156 349.0772161911354 32.785988189603415 346.2031326802569 31.628497758979417 343.58643877345384 C 31.17765139627496 342.56720904574195 30.76265689771739 341.5871752195091 30.380860329249195 340.6479210003242 A 2.25 2.25 0 0 0 28.0206 339.345A 340.5 340.5 0 0 1 27.2484 339.408A 2.25 2.25 0 0 0 25.1301 341.075C 24.905249473318772 342.0641283188314 24.654273724530547 343.098390330081 24.374259596517568 344.1771320826468 C 23.65535130459985 346.9466161441099 22.745436338353077 350.0082397444059 21.59663487583158 353.3407806929828 A 354 354 0 0 1 16.7328 353.604C 15.230445705462035 350.41569069722397 13.994844961285718 347.47039357865 12.980717042311156 344.79487201027445 C 12.585711869693647 343.7527287407472 12.224383958048566 342.75166486932847 11.893997525450288 341.7931180978532 A 2.25 2.25 0 0 0 9.60774 340.364A 340.5 340.5 0 0 1 8.8333 340.385A 2.25 2.25 0 0 0 6.62775 341.936C 6.349745206003141 342.9108048307447 6.043143718291386 343.92996245453344 5.705138353990612 344.99196248010753 C 4.837347558583805 347.7184639443092 3.7630141008038063 350.72633560666173 2.4354773248228825 353.99179423948067 A 354 354 0 0 1 -2.43548 353.992C -3.7630141008037636 350.72633560666173 -4.837347558583763 347.7184639443092 -5.705138353990569 344.99196248010753 C -6.0431437182913434 343.92996245453344 -6.3497452060030986 342.9108048307447 -6.627752422399803 341.93577708981525 A 2.25 2.25 0 0 0 -8.8333 340.385A 340.5 340.5 0 0 1 -9.60774 340.364A 2.25 2.25 0 0 0 -11.894 341.793C -12.224383958048524 342.75166486932847 -12.585711869693604 343.7527287407472 -12.980717042311113 344.79487201027445 C -13.994844961285676 347.47039357865 -15.230445705461992 350.41569069722397 -16.732823900806785 353.6044888614837 A 354 354 0 0 1 -21.5966 353.341C -22.745436338353034 350.0082397444059 -23.655351304599808 346.9466161441099 -24.374259596517525 344.1771320826468 C -24.654273724530505 343.098390330081 -24.90524947331873 342.0641283188314 -25.13006203044815 341.07547953280704 A 2.25 2.25 0 0 0 -27.2484 339.408A 340.5 340.5 0 0 1 -28.0206 339.345A 2.25 2.25 0 0 0 -30.3809 340.648C -30.762656897717356 341.5871752195091 -31.177651396274918 342.56720904574195 -31.628497758979375 343.58643877345384 C -32.78598818960338 346.2031326802569 -34.179231990302114 349.0772161911354 -35.85204487090745 352.18000059239733 A 354 354 0 0 1 -40.6944 351.653C -41.66114229213436 348.2635094093467 -42.403969829475606 345.1571141406379 -42.971886936017754 342.35277085584136 C -43.19308849805967 341.260451511709 -43.387702352810614 340.2141187816787 -43.55866083670799 339.21474882779063 A 2.25 2.25 0 0 0 -45.5837 337.435A 340.5 340.5 0 0 1 -46.3513 337.33A 2.25 2.25 0 0 0 -48.7786 338.504C -49.21069766436854 339.4207515300683 -49.67814149947169 340.37688070304534 -50.18350664220148 341.37020731253955 C -51.4809644656089 343.920398343691 -53.02776469870983 346.7148380647385 -54.866105616174984 349.722507701751 A 354 354 0 0 1 -59.6729 348.934C -60.45464893745168 345.49726219617 -61.02821020473285 342.35520685159634 -61.44347032717512 339.5242299655028 C -61.60521050095197 338.4215369906444 -61.74289162569811 337.36620261601126 -61.85949458567441 336.35904281852356 A 2.25 2.25 0 0 0 -63.7852 334.472A 340.5 340.5 0 0 1 -64.546 334.326A 2.25 2.25 0 0 0 -67.0333 335.366C -67.51439497587754 336.2587482949573 -68.03291705421842 337.1881683230753 -68.59131865393661 338.15267821625815 C -70.02493820278234 340.62888622207146 -71.72075783669156 343.3354855801104 -73.71923462036361 346.2392184396134 A 354 354 0 0 1 -78.4763 345.192C -79.07083168123533 341.7176119845703 -79.47344432443619 338.5491127538265 -79.73482943329105 335.69980600941386 C -79.83663380700568 334.5899737923161 -79.91697835928599 333.5287332506326 -79.97888377876919 332.51673778276273 A 2.25 2.25 0 0 0 -81.7996 330.528A 340.5 340.5 0 0 1 -82.5514 330.342A 2.25 2.25 0 0 0 -85.0913 331.245C -85.62006093434378 332.1104402144707 -86.18814034132642 333.0104249486501 -86.7979405099297 333.94328905182203 C -88.36351673106755 336.33825088757106 -90.20338163461291 338.9490709603435 -92.35613240775227 341.74034989355334 A 354 354 0 0 1 -97.0495 340.437C -97.45508605197135 336.9356451398433 -97.68556913884011 333.7499957770985 -97.79231254654724 330.8907166819772 C -97.83388251043088 329.77700055175455 -97.85665482583035 328.71296664437887 -97.86368112555891 327.6991038631985 A 2.25 2.25 0 0 0 -99.5741 325.615A 340.5 340.5 0 0 1 -100.315 325.388A 2.25 2.25 0 0 0 -102.9 326.153C -103.47458850194556 326.9879949909527 -104.09055896279045 327.8559046209029 -104.74996905131715 328.75438668291895 C -106.44290983994523 331.0610775128929 -108.42142337236005 333.56846031528676 -110.722133746035 336.2390980201614 A 354 354 0 0 1 -115.338 334.684C -115.55348786402466 331.16538799466696 -115.61116534795585 327.97193255838215 -115.56295395770877 325.11106787078563 C -115.54416757989495 323.99673454873874 -115.50930086328887 322.93302827045187 -115.46142743391509 321.92027201018453 A 2.25 2.25 0 0 0 -117.056 319.747A 340.5 340.5 0 0 1 -117.784 319.48A 2.25 2.25 0 0 0 -120.406 320.104C -121.02560727303211 320.90643763882963 -121.68766204024729 321.73972643606703 -122.39474788529283 322.6011910542329 C -124.21008755438822 324.81284495678983 -126.3214463945885 327.2094359030294 -128.7633679888658 329.75159893903543 A 354 354 0 0 1 -133.288 327.949C -133.31295138656657 324.4237657074502 -133.1976540895621 321.23187115264534 -132.99462931367512 318.3778122816228 C -132.9155416978468 317.2661302993823 -132.82313821932246 316.20587168397276 -132.72050548186317 315.1971925332254 A 2.25 2.25 0 0 0 -134.196 312.941A 340.5 340.5 0 0 1 -134.907 312.634A 2.25 2.25 0 0 0 -137.56 313.115C -138.22163708554675 313.88360641365404 -138.92783423842943 314.6798301985626 -139.680521835381 315.5017505487248 C -141.6129356809153 317.61188036190543 -143.8509468496403 319.89064983781805 -146.4269170877464 322.29688160276197 A 354 354 0 0 1 -150.848 320.252C -150.68138505316978 316.73055261792786 -150.3934511620672 313.5495813212885 -150.03620850718875 310.71069971325653 C -149.8970516309498 309.60492982561675 -149.74738242583058 308.55122879428353 -149.59029141978817 307.5495853827985 A 2.25 2.25 0 0 0 -150.941 305.216A 340.5 340.5 0 0 1 -151.635 304.872A 2.25 2.25 0 0 0 -154.31 305.209C -155.01223902121203 305.9401004894273 -155.7605071618366 306.6969238004583 -156.556588748286 307.47688904861474 C -158.6004086674997 309.4793053981065 -160.95850769238731 311.63356938019245 -163.66097080977988 313.89681198171945 A 354 354 0 0 1 -167.965 311.615C -167.60784425534806 308.10831424561485 -167.14811832986035 304.9475965440281 -166.6377056502493 302.1322191278761 C -166.4388876846941 301.03560474843914 -166.2323917585463 299.9915519878575 -166.02130325890792 298.9998823083417 A 2.25 2.25 0 0 0 -167.244 296.597A 340.5 340.5 0 0 1 -167.918 296.216A 2.25 2.25 0 0 0 -170.607 296.407C -171.34816335156785 297.09921953767343 -172.136307680553 297.81442248165666 -172.97344821204405 298.55014485534826 C -175.12267932896853 300.43897430898613 -177.59394949928355 302.4624139698113 -180.41497870601103 304.57602892741926 A 354 354 0 0 1 -184.589 302.065C -184.04268077187066 298.5823411012495 -183.41251126734707 295.4511479243187 -182.75042569133564 292.6675326870914 C -182.49252980381306 291.58329037477625 -182.2298128447669 290.55194827158095 -181.96534601047202 289.57316106206673 A 2.25 2.25 0 0 0 -183.056 287.108A 340.5 340.5 0 0 1 -183.709 286.69A 2.25 2.25 0 0 0 -186.404 286.736C -187.18149399591002 287.3868953854879 -188.00720275014325 288.05838014896085 -188.8829467492597 288.7477016477021 C -191.1312849987213 290.51740394325765 -193.70847765325996 292.40408418566255 -196.63979838460196 294.3618719025099 A 354 354 0 0 1 -200.671 291.628C -199.93768839554903 288.1805745053679 -199.1389237077231 285.08809018217863 -198.32710724638156 282.3444019469774 C -198.0108898899646 281.27571197129873 -197.69272249212648 280.26010562957634 -197.37565304996716 279.29707184159207 A 2.25 2.25 0 0 0 -198.331 276.776A 340.5 340.5 0 0 1 -198.96 276.324A 2.25 2.25 0 0 0 -201.654 276.224C -202.4657890674116 276.8316159530205 -203.32664030084905 277.45741295547657 -204.23841905955277 278.0983116805433 C -206.57926967808217 279.7436959762678 -209.2548254667442 281.4880828420308 -212.28783965393572 283.2843007894215 A 354 354 0 0 1 -216.166 280.337C -215.2462443303491 276.93352463159675 -214.28122737367553 273.88881995149694 -213.3220612245592 271.1931064286471 C -212.9484499192378 270.1431034414363 -212.57576532240506 269.1462118095739 -212.20702329168546 268.2017561871482 A 2.25 2.25 0 0 0 -213.025 265.633A 340.5 340.5 0 0 1 -213.628 265.147A 2.25 2.25 0 0 0 -216.313 264.901C -217.156217095178 265.46434169349783 -218.04968578282924 266.0426153645053 -218.9948248969235 266.6332114495115 C -221.4213217663333 268.14945154976965 -224.18739282299825 269.7464284516595 -227.3132041128468 271.37580801286947 A 354 354 0 0 1 -231.026 268.222C -229.92344594408402 264.87418101505745 -228.79500727956705 261.8861866214696 -227.69130484225343 259.2463548031989 C -227.26139545435845 258.21811864413075 -226.8352868066664 257.2428657770467 -226.41595377129607 256.3197585712478 A 2.25 2.25 0 0 0 -227.093 253.71A 340.5 340.5 0 0 1 -227.67 253.193A 2.25 2.25 0 0 0 -230.337 252.802C -231.20968852267617 253.31841478087875 -232.13315396693764 253.8474689441254 -233.10888118055547 254.3860300689953 C -235.61390696744775 255.76867858032827 -238.46237992911858 257.2135613099361 -241.67181977854077 258.671323233974 A 354 354 0 0 1 -245.208 255.322C -243.92624247557205 252.037915788375 -242.63769200824214 249.11539598368026 -241.3926906321453 246.5391889515488 C -240.9077441599839 245.53573561444057 -240.4294613115137 244.58498209682784 -239.96076724753553 243.68593094013968 A 2.25 2.25 0 0 0 -240.496 241.044A 340.5 340.5 0 0 1 -241.044 240.496A 2.25 2.25 0 0 0 -243.686 239.961C -244.58498209682776 240.42946131151376 -245.53573561444048 240.90774415998393 -246.5391889515487 241.3926906321454 C -249.11539598368017 242.6376920082422 -252.0379157883749 243.92624247557214 -255.321570357313 245.20811089554562 A 354 354 0 0 1 -258.671 241.672C -257.21356130993604 238.46237992911867 -255.76867858032819 235.6139069674478 -254.3860300689952 233.10888118055556 C -253.84746894412538 232.13315396693773 -253.31841478087867 231.20968852267623 -252.80173444873725 230.33733048704585 A 2.25 2.25 0 0 0 -253.193 227.67A 340.5 340.5 0 0 1 -253.71 227.093A 2.25 2.25 0 0 0 -256.32 226.416C -257.24286577704663 226.8352868066665 -258.21811864413075 227.26139545435854 -259.24635480319887 227.69130484225352 C -261.88618662146956 228.79500727956713 -264.8741810150574 229.9234459440841 -268.2224187788945 231.0256609190544 A 354 354 0 0 1 -271.376 227.313C -269.7464284516594 224.18739282299833 -268.1494515497696 221.4213217663334 -266.63321144951146 218.99482489692357 C -266.0426153645053 218.04968578282933 -265.4643416934978 217.15621709517808 -264.9011906056301 216.3131109570293 A 2.25 2.25 0 0 0 -265.147 213.628A 340.5 340.5 0 0 1 -265.633 213.025A 2.25 2.25 0 0 0 -268.202 212.207C -269.14621180957397 212.57576532240503 -270.1431034414364 212.94844991923776 -271.1931064286471 213.32206122455915 C -273.888819951497 214.2812273736755 -276.9335246315968 215.24624433034904 -280.3365246320777 216.1655728738853 A 354 354 0 0 1 -283.284 212.288C -281.48808284203085 209.25482546674414 -279.7436959762679 206.57926967808214 -278.0983116805433 204.2384190595527 C -277.4574129554766 203.32664030084902 -276.83161595302056 202.46578906741158 -276.2236459285971 201.65440780231287 A 2.25 2.25 0 0 0 -276.324 198.96A 340.5 340.5 0 0 1 -276.776 198.331A 2.25 2.25 0 0 0 -279.297 197.376C -280.26010562957634 197.69272249212656 -281.2757119712987 198.0108898899647 -282.3444019469774 198.32710724638164 C -285.0880901821786 199.1389237077232 -288.1805745053679 199.93768839554912 -291.6283551571619 200.67143395863496 A 354 354 0 0 1 -294.362 196.64C -292.40408418566255 193.70847765326005 -290.5174039432576 191.13128499872138 -288.7477016477021 188.8829467492598 C -288.0583801489608 188.00720275014334 -287.3868953854879 187.1814939959101 -286.73588970534195 186.40421752491116 A 2.25 2.25 0 0 0 -286.69 183.709A 340.5 340.5 0 0 1 -287.108 183.056A 2.25 2.25 0 0 0 -289.573 181.965C -290.55194827158107 182.22981284476683 -291.5832903747763 182.49252980381297 -292.6675326870914 182.75042569133555 C -295.4511479243188 183.41251126734699 -298.5823411012495 184.0426807718706 -302.0647894696601 184.58869115234674 A 354 354 0 0 1 -304.576 180.415C -302.4624139698113 177.5939494992835 -300.4389743089862 175.12267932896845 -298.55014485534826 172.97344821204396 C -297.8144224816567 172.1363076805529 -297.09921953767343 171.34816335156776 -296.40708771363194 170.60727156048108 A 2.25 2.25 0 0 0 -296.216 167.918A 340.5 340.5 0 0 1 -296.597 167.244A 2.25 2.25 0 0 0 -299 166.021C -299.9915519878575 166.23239175854636 -301.03560474843914 166.43888768469415 -302.1322191278761 166.63770565024936 C -304.9475965440281 167.1481183298604 -308.10831424561485 167.6078442553481 -311.6152157095595 167.96451791069228 A 354 354 0 0 1 -313.897 163.661C -311.63356938019245 160.95850769238737 -309.4793053981065 158.60040866749975 -307.47688904861474 156.55658874828606 C -306.6969238004583 155.76050716183667 -305.9401004894273 155.01223902121208 -305.2088726633828 154.30990507331487 A 2.25 2.25 0 0 0 -304.872 151.635A 340.5 340.5 0 0 1 -305.216 150.941A 2.25 2.25 0 0 0 -307.55 149.59C -308.55122879428353 149.7473824258305 -309.60492982561675 149.8970516309497 -310.7106997132566 150.0362085071887 C -313.5495813212885 150.39345116206712 -316.73055261792786 150.68138505316972 -320.2516208311815 150.84767579809673 A 354 354 0 0 1 -322.297 146.427C -319.89064983781805 143.85094684964025 -317.61188036190543 141.61293568091523 -315.50175054872483 139.68052183538094 C -314.6798301985626 138.92783423842934 -313.88360641365404 138.22163708554666 -313.11542740280925 137.55992104731865 A 2.25 2.25 0 0 0 -312.634 134.907A 340.5 340.5 0 0 1 -312.941 134.196A 2.25 2.25 0 0 0 -315.197 132.721C -316.20587168397276 132.82313821932243 -317.2661302993823 132.91554169784678 -318.3778122816228 132.99462931367512 C -321.23187115264534 133.19765408956206 -324.4237657074502 133.31295138656654 -327.94867277027123 133.28837146167004 A 354 354 0 0 1 -329.752 128.763C -327.2094359030294 126.32144639458848 -324.81284495678983 124.2100875543882 -322.6011910542329 122.39474788529282 C -321.73972643606703 121.68766204024726 -320.90643763882963 121.02560727303208 -320.10356064457886 120.4064500716256 A 2.25 2.25 0 0 0 -319.48 117.784A 340.5 340.5 0 0 1 -319.747 117.056A 2.25 2.25 0 0 0 -321.92 115.461C -322.93302827045187 115.50930086328877 -323.99673454873874 115.54416757989485 -325.11106787078563 115.56295395770869 C -327.97193255838215 115.61116534795575 -331.16538799466696 115.55348786402456 -334.68379474730654 115.33810936645929 A 354 354 0 0 1 -336.239 110.722C -333.56846031528676 108.42142337235995 -331.0610775128929 106.44290983994513 -328.75438668291895 104.74996905131704 C -327.8559046209029 104.09055896279035 -326.9879949909527 103.47458850194546 -326.152774989854 102.89980623211162 A 2.25 2.25 0 0 0 -325.388 100.315A 340.5 340.5 0 0 1 -325.615 99.5741A 2.25 2.25 0 0 0 -327.699 97.8637C -328.71296664437887 97.85665482583032 -329.77700055175455 97.83388251043085 -330.8907166819772 97.79231254654722 C -333.7499957770985 97.68556913884008 -336.9356451398433 97.45508605197134 -340.4372314890825 97.04954072397987 A 354 354 0 0 1 -341.74 92.3561C -338.9490709603435 90.2033816346129 -336.33825088757106 88.36351673106752 -333.94328905182203 86.79794050992969 C -333.0104249486501 86.18814034132639 -332.1104402144707 85.62006093434375 -331.24532705069385 85.09133953151367 A 2.25 2.25 0 0 0 -330.342 82.5514A 340.5 340.5 0 0 1 -330.528 81.7996A 2.25 2.25 0 0 0 -332.517 79.9789C -333.5287332506326 79.91697835928605 -334.5899737923161 79.83663380700574 -335.69980600941386 79.73482943329111 C -338.5491127538265 79.47344432443624 -341.7176119845703 79.07083168123539 -345.1921071743311 78.4763090571393 A 354 354 0 0 1 -346.239 73.7192C -343.3354855801104 71.72075783669162 -340.62888622207146 70.0249382027824 -338.15267821625815 68.59131865393667 C -337.1881683230753 68.03291705421847 -336.2587482949573 67.5143949758776 -335.36627949446864 67.03328527102326 A 2.25 2.25 0 0 0 -334.326 64.546A 340.5 340.5 0 0 1 -334.472 63.7852A 2.25 2.25 0 0 0 -336.359 61.8595C -337.36620261601126 61.742891625698086 -338.4215369906444 61.605210500951955 -339.5242299655028 61.4434703271751 C -342.35520685159634 61.02821020473283 -345.49726219617 60.45464893745166 -348.93447493341336 59.672892854542326 A 354 354 0 0 1 -349.723 54.8661C -346.7148380647385 53.02776469870981 -343.920398343691 51.48096446560888 -341.37020731253955 50.18350664220146 C -340.37688070304534 49.67814149947168 -339.4207515300683 49.21069766436852 -338.5035448576301 48.778610835148406 A 2.25 2.25 0 0 0 -337.33 46.3513A 340.5 340.5 0 0 1 -337.435 45.5837A 2.25 2.25 0 0 0 -339.215 43.5587C -340.2141187816787 43.38770235281068 -341.260451511709 43.19308849805974 -342.35277085584136 42.971886936017825 C -345.1571141406379 42.40396982947566 -348.2635094093467 41.66114229213442 -351.6533577568901 40.69444577569784 A 354 354 0 0 1 -352.18 35.852C -349.0772161911354 34.17923199030218 -346.2031326802569 32.78598818960344 -343.58643877345384 31.62849775897944 C -342.56720904574195 31.17765139627498 -341.5871752195091 30.76265689771742 -340.6479210003242 30.380860329249217 A 2.25 2.25 0 0 0 -339.345 28.0206A 340.5 340.5 0 0 1 -339.408 27.2484A 2.25 2.25 0 0 0 -341.075 25.1301C -342.0641283188314 24.905249473318715 -343.098390330081 24.65427372453049 -344.1771320826468 24.374259596517515 C -346.9466161441099 23.655351304599794 -350.0082397444059 22.745436338353024 -353.3407806929828 21.596634875831523 A 354 354 0 0 1 -353.604 16.7328C -350.41569069722397 15.230445705461982 -347.47039357865 13.994844961285661 -344.79487201027445 12.980717042311102 C -343.7527287407472 12.58571186969359 -342.75166486932847 12.22438395804851 -341.7931180978532 11.893997525450235 A 2.25 2.25 0 0 0 -340.364 9.60774A 340.5 340.5 0 0 1 -340.385 8.8333A 2.25 2.25 0 0 0 -341.936 6.62775C -342.9108048307447 6.349745206003162 -343.92996245453344 6.0431437182914065 -344.99196248010753 5.705138353990633 C -347.7184639443092 4.837347558583827 -350.72633560666173 3.763014100803828 -353.99179423948067 2.4354773248229042 A 354 354 0 0 1 -353.992 -2.43548C -350.72633560666173 -3.763014100803742 -347.7184639443092 -4.837347558583741 -344.99196248010753 -5.705138353990548 C -343.92996245453344 -6.043143718291323 -342.9108048307447 -6.349745206003078 -341.93577708981525 -6.627752422399783 A 2.25 2.25 0 0 0 -340.385 -8.8333A 340.5 340.5 0 0 1 -340.364 -9.60774A 2.25 2.25 0 0 0 -341.793 -11.894C -342.75166486932847 -12.224383958048577 -343.7527287407472 -12.585711869693657 -344.79487201027445 -12.98071704231117 C -347.47039357865 -13.994844961285729 -350.41569069722397 -15.23044570546205 -353.6044888614837 -16.732823900806842 A 354 354 0 0 1 -353.341 -21.5966C -350.0082397444059 -22.74543633835309 -346.9466161441099 -23.65535130459986 -344.1771320826468 -24.374259596517582 C -343.098390330081 -24.654273724530558 -342.0641283188314 -24.905249473318783 -341.07547953280704 -25.130062030448205 A 2.25 2.25 0 0 0 -339.408 -27.2484A 340.5 340.5 0 0 1 -339.345 -28.0206A 2.25 2.25 0 0 0 -340.648 -30.3809C -341.5871752195091 -30.762656897717328 -342.56720904574195 -31.177651396274896 -343.58643877345384 -31.628497758979353 C -346.2031326802569 -32.78598818960335 -349.0772161911354 -34.17923199030209 -352.18000059239733 -35.85204487090742 A 354 354 0 0 1 -351.653 -40.6944C -348.2635094093467 -41.661142292134336 -345.1571141406379 -42.40396982947558 -342.35277085584136 -42.97188693601774 C -341.260451511709 -43.19308849805965 -340.2141187816787 -43.387702352810585 -339.21474882779063 -43.55866083670797 A 2.25 2.25 0 0 0 -337.435 -45.5837A 340.5 340.5 0 0 1 -337.33 -46.3513A 2.25 2.25 0 0 0 -338.504 -48.7786C -339.4207515300683 -49.210697664368595 -340.37688070304534 -49.67814149947175 -341.37020731253955 -50.183506642201536 C -343.920398343691 -51.480964465608956 -346.7148380647385 -53.02776469870989 -349.722507701751 -54.86610561617504 A 354 354 0 0 1 -348.934 -59.6729C -345.49726219617 -60.454648937451736 -342.35520685159634 -61.02821020473291 -339.5242299655028 -61.44347032717518 C -338.4215369906444 -61.605210500952026 -337.36620261601126 -61.742891625698164 -336.35904281852356 -61.85949458567447 A 2.25 2.25 0 0 0 -334.472 -63.7852A 340.5 340.5 0 0 1 -334.326 -64.546A 2.25 2.25 0 0 0 -335.366 -67.0333C -336.2587482949573 -67.51439497587752 -337.1881683230753 -68.03291705421839 -338.15267821625815 -68.59131865393658 C -340.62888622207146 -70.02493820278231 -343.3354855801104 -71.72075783669155 -346.2392184396134 -73.71923462036358 A 354 354 0 0 1 -345.192 -78.4763C -341.7176119845703 -79.07083168123532 -338.5491127538265 -79.47344432443616 -335.69980600941386 -79.73482943329103 C -334.5899737923161 -79.83663380700565 -333.5287332506326 -79.91697835928598 -332.51673778276273 -79.97888377876916 A 2.25 2.25 0 0 0 -330.528 -81.7996A 340.5 340.5 0 0 1 -330.342 -82.5514A 2.25 2.25 0 0 0 -331.245 -85.0913C -332.1104402144707 -85.62006093434384 -333.0104249486501 -86.18814034132647 -333.94328905182203 -86.79794050992976 C -336.33825088757106 -88.3635167310676 -338.9490709603435 -90.20338163461297 -341.74034989355334 -92.35613240775233 A 354 354 0 0 1 -340.437 -97.0495C -336.9356451398433 -97.4550860519714 -333.7499957770985 -97.68556913884017 -330.8907166819772 -97.7923125465473 C -329.77700055175455 -97.83388251043094 -328.71296664437887 -97.8566548258304 -327.6991038631985 -97.86368112555897 A 2.25 2.25 0 0 0 -325.615 -99.5741A 340.5 340.5 0 0 1 -325.388 -100.315A 2.25 2.25 0 0 0 -326.153 -102.9C -326.9879949909527 -103.47458850194553 -327.8559046209029 -104.09055896279044 -328.75438668291895 -104.74996905131712 C -331.0610775128929 -106.4429098399452 -333.56846031528676 -108.42142337236004 -336.2390980201614 -110.72213374603497 A 354 354 0 0 1 -334.684 -115.338C -331.16538799466696 -115.55348786402465 -327.97193255838215 -115.61116534795582 -325.11106787078563 -115.56295395770874 C -323.99673454873874 -115.54416757989493 -322.93302827045187 -115.50930086328884 -321.92027201018453 -115.46142743391508 A 2.25 2.25 0 0 0 -319.747 -117.056A 340.5 340.5 0 0 1 -319.48 -117.784A 2.25 2.25 0 0 0 -320.104 -120.406C -320.9064376388297 -121.02560727303201 -321.7397264360671 -121.68766204024719 -322.60119105423297 -122.39474788529273 C -324.8128449567899 -124.21008755438811 -327.2094359030294 -126.32144639458839 -329.75159893903543 -128.7633679888657 A 354 354 0 0 1 -327.949 -133.288C -324.4237657074502 -133.31295138656645 -321.2318711526454 -133.19765408956198 -318.3778122816229 -132.99462931367503 C -317.2661302993824 -132.91554169784672 -316.2058716839728 -132.82313821932235 -315.19719253322546 -132.72050548186309 A 2.25 2.25 0 0 0 -312.941 -134.196A 340.5 340.5 0 0 1 -312.634 -134.907A 2.25 2.25 0 0 0 -313.115 -137.56C -313.88360641365404 -138.22163708554672 -314.6798301985626 -138.9278342384294 -315.5017505487248 -139.680521835381 C -317.61188036190543 -141.61293568091529 -319.89064983781805 -143.8509468496403 -322.29688160276197 -146.42691708774638 A 354 354 0 0 1 -320.252 -150.848C -316.73055261792786 -150.68138505316978 -313.5495813212885 -150.39345116206718 -310.71069971325653 -150.03620850718875 C -309.60492982561675 -149.89705163094976 -308.55122879428353 -149.74738242583055 -307.5495853827985 -149.59029141978817 A 2.25 2.25 0 0 0 -305.216 -150.941A 340.5 340.5 0 0 1 -304.872 -151.635A 2.25 2.25 0 0 0 -305.209 -154.31C -305.9401004894273 -155.01223902121203 -306.6969238004583 -155.7605071618366 -307.47688904861474 -156.556588748286 C -309.4793053981065 -158.6004086674997 -311.63356938019245 -160.95850769238731 -313.89681198171945 -163.66097080977988 A 354 354 0 0 1 -311.615 -167.965C -308.10831424561485 -167.60784425534806 -304.9475965440281 -167.14811832986035 -302.1322191278761 -166.6377056502493 C -301.03560474843914 -166.4388876846941 -299.9915519878575 -166.2323917585463 -298.9998823083417 -166.02130325890792 A 2.25 2.25 0 0 0 -296.597 -167.244A 340.5 340.5 0 0 1 -296.216 -167.918A 2.25 2.25 0 0 0 -296.407 -170.607C -297.09921953767343 -171.34816335156785 -297.81442248165666 -172.136307680553 -298.55014485534826 -172.97344821204405 C -300.43897430898613 -175.12267932896853 -302.4624139698113 -177.59394949928355 -304.57602892741926 -180.41497870601103 A 354 354 0 0 1 -302.065 -184.589C -298.5823411012495 -184.04268077187066 -295.4511479243187 -183.41251126734707 -292.6675326870914 -182.75042569133564 C -291.58329037477625 -182.49252980381306 -290.55194827158095 -182.2298128447669 -289.57316106206673 -181.96534601047202 A 2.25 2.25 0 0 0 -287.108 -183.056A 340.5 340.5 0 0 1 -286.69 -183.709A 2.25 2.25 0 0 0 -286.736 -186.404C -287.3868953854879 -187.18149399591002 -288.05838014896085 -188.00720275014325 -288.7477016477021 -188.8829467492597 C -290.51740394325765 -191.1312849987213 -292.40408418566255 -193.70847765325996 -294.3618719025099 -196.63979838460196 A 354 354 0 0 1 -291.628 -200.671C -288.1805745053679 -199.93768839554903 -285.08809018217863 -199.1389237077231 -282.3444019469774 -198.32710724638156 C -281.27571197129873 -198.0108898899646 -280.26010562957634 -197.69272249212648 -279.29707184159207 -197.37565304996716 A 2.25 2.25 0 0 0 -276.776 -198.331A 340.5 340.5 0 0 1 -276.324 -198.96A 2.25 2.25 0 0 0 -276.224 -201.654C -276.8316159530205 -202.4657890674116 -277.45741295547657 -203.32664030084905 -278.0983116805433 -204.23841905955277 C -279.7436959762678 -206.57926967808217 -281.4880828420308 -209.2548254667442 -283.2843007894215 -212.28783965393572 A 354 354 0 0 1 -280.337 -216.166C -276.93352463159675 -215.2462443303491 -273.88881995149694 -214.28122737367553 -271.1931064286471 -213.3220612245592 C -270.1431034414363 -212.9484499192378 -269.1462118095739 -212.57576532240506 -268.2017561871482 -212.20702329168546 A 2.25 2.25 0 0 0 -265.633 -213.025A 340.5 340.5 0 0 1 -265.147 -213.628A 2.25 2.25 0 0 0 -264.901 -216.313C -265.46434169349783 -217.156217095178 -266.0426153645053 -218.04968578282924 -266.6332114495115 -218.9948248969235 C -268.14945154976965 -221.4213217663333 -269.7464284516595 -224.18739282299825 -271.37580801286947 -227.3132041128468 A 354 354 0 0 1 -268.222 -231.026C -264.87418101505745 -229.92344594408402 -261.8861866214696 -228.79500727956705 -259.2463548031989 -227.69130484225343 C -258.21811864413075 -227.26139545435845 -257.2428657770467 -226.8352868066664 -256.3197585712478 -226.41595377129607 A 2.25 2.25 0 0 0 -253.71 -227.093A 340.5 340.5 0 0 1 -253.193 -227.67A 2.25 2.25 0 0 0 -252.802 -230.337C -253.31841478087864 -231.2096885226763 -253.84746894412532 -232.13315396693778 -254.38603006899518 -233.10888118055558 C -255.76867858032816 -235.61390696744786 -257.213561309936 -238.46237992911873 -258.6713232339739 -241.67181977854088 A 354 354 0 0 1 -255.322 -245.208C -252.03791578837485 -243.9262424755722 -249.11539598368014 -242.63769200824225 -246.53918895154868 -241.39269063214542 C -245.53573561444043 -240.907744159984 -244.58498209682773 -240.42946131151382 -243.68593094013957 -239.96076724753564 A 2.25 2.25 0 0 0 -241.044 -240.496A 340.5 340.5 0 0 1 -240.496 -241.044A 2.25 2.25 0 0 0 -239.961 -243.686C -240.42946131151376 -244.58498209682776 -240.90774415998393 -245.53573561444048 -241.3926906321454 -246.5391889515487 C -242.6376920082422 -249.11539598368017 -243.92624247557214 -252.0379157883749 -245.20811089554562 -255.321570357313 A 354 354 0 0 1 -241.672 -258.671C -238.46237992911867 -257.21356130993604 -235.6139069674478 -255.76867858032819 -233.10888118055556 -254.3860300689952 C -232.13315396693773 -253.84746894412538 -231.20968852267623 -253.31841478087867 -230.33733048704585 -252.80173444873725 A 2.25 2.25 0 0 0 -227.67 -253.193A 340.5 340.5 0 0 1 -227.093 -253.71A 2.25 2.25 0 0 0 -226.416 -256.32C -226.83528680666637 -257.2428657770467 -227.26139545435842 -258.2181186441308 -227.6913048422534 -259.2463548031989 C -228.79500727956702 -261.8861866214697 -229.923445944084 -264.87418101505745 -231.02566091905427 -268.22241877889456 A 354 354 0 0 1 -227.313 -271.376C -224.18739282299822 -269.7464284516595 -221.42132176633328 -268.1494515497697 -218.99482489692346 -266.6332114495115 C -218.04968578282921 -266.04261536450537 -217.15621709517796 -265.46434169349783 -216.31311095702918 -264.90119060563023 A 2.25 2.25 0 0 0 -213.628 -265.147A 340.5 340.5 0 0 1 -213.025 -265.633A 2.25 2.25 0 0 0 -212.207 -268.202C -212.57576532240518 -269.14621180957386 -212.9484499192379 -270.14310344143627 -213.32206122455932 -271.19310642864707 C -214.28122737367565 -273.88881995149694 -215.2462443303492 -276.93352463159675 -216.16557287388548 -280.3365246320776 A 354 354 0 0 1 -212.288 -283.284C -209.2548254667443 -281.4880828420308 -206.57926967808228 -279.7436959762678 -204.23841905955288 -278.09831168054325 C -203.32664030084916 -277.4574129554765 -202.46578906741172 -276.83161595302045 -201.65440780231302 -276.22364592859697 A 2.25 2.25 0 0 0 -198.96 -276.324A 340.5 340.5 0 0 1 -198.331 -276.776A 2.25 2.25 0 0 0 -197.376 -279.297C -197.6927224921266 -280.26010562957634 -198.01088988996472 -281.2757119712987 -198.32710724638167 -282.3444019469774 C -199.13892370772322 -285.0880901821786 -199.93768839554915 -288.1805745053679 -200.671433958635 -291.6283551571619 A 354 354 0 0 1 -196.64 -294.362C -193.70847765326008 -292.40408418566255 -191.1312849987214 -290.5174039432576 -188.88294674925982 -288.7477016477021 C -188.00720275014336 -288.0583801489608 -187.18149399591013 -287.3868953854879 -186.40421752491122 -286.73588970534195 A 2.25 2.25 0 0 0 -183.709 -286.69A 340.5 340.5 0 0 1 -183.056 -287.108A 2.25 2.25 0 0 0 -181.965 -289.573C -182.22981284476688 -290.55194827158107 -182.492529803813 -291.5832903747763 -182.7504256913356 -292.6675326870914 C -183.412511267347 -295.4511479243188 -184.04268077187064 -298.5823411012495 -184.58869115234677 -302.0647894696601 A 354 354 0 0 1 -180.415 -304.576C -177.59394949928353 -302.4624139698113 -175.12267932896847 -300.4389743089862 -172.97344821204402 -298.55014485534826 C -172.13630768055293 -297.8144224816567 -171.34816335156782 -297.09921953767343 -170.60727156048114 -296.40708771363194 A 2.25 2.25 0 0 0 -167.918 -296.216A 340.5 340.5 0 0 1 -167.244 -296.597A 2.25 2.25 0 0 0 -166.021 -299C -166.23239175854624 -299.9915519878576 -166.43888768469404 -301.0356047484392 -166.63770565024925 -302.13221912787617 C -167.1481183298603 -304.94759654402816 -167.607844255348 -308.1083142456149 -167.96451791069217 -311.6152157095595 A 354 354 0 0 1 -163.661 -313.897C -160.95850769238726 -311.6335693801925 -158.60040866749964 -309.47930539810653 -156.55658874828595 -307.4768890486148 C -155.76050716183656 -306.69692380045836 -155.01223902121197 -305.9401004894274 -154.30990507331475 -305.20887266338286 A 2.25 2.25 0 0 0 -151.635 -304.872A 340.5 340.5 0 0 1 -150.941 -305.216A 2.25 2.25 0 0 0 -149.59 -307.55C -149.74738242583066 -308.5512287942835 -149.89705163094985 -309.6049298256167 -150.03620850718883 -310.7106997132565 C -150.3934511620673 -313.54958132128843 -150.68138505316986 -316.7305526179278 -150.8476757980969 -320.2516208311814 A 354 354 0 0 1 -146.427 -322.297C -143.8509468496404 -319.890649837818 -141.6129356809154 -317.6118803619054 -139.6805218353811 -315.5017505487247 C -138.92783423842948 -314.67983019856257 -138.22163708554683 -313.883606413654 -137.5599210473188 -313.1154274028092 A 2.25 2.25 0 0 0 -134.907 -312.634A 340.5 340.5 0 0 1 -134.196 -312.941A 2.25 2.25 0 0 0 -132.721 -315.197C -132.82313821932246 -316.20587168397276 -132.9155416978468 -317.2661302993823 -132.99462931367512 -318.3778122816228 C -133.1976540895621 -321.23187115264534 -133.31295138656657 -324.4237657074502 -133.28837146167007 -327.94867277027123 A 354 354 0 0 1 -128.763 -329.752C -126.3214463945885 -327.2094359030294 -124.21008755438822 -324.81284495678983 -122.39474788529283 -322.6011910542329 C -121.68766204024729 -321.73972643606703 -121.02560727303211 -320.90643763882963 -120.40645007162561 -320.10356064457886 A 2.25 2.25 0 0 0 -117.784 -319.48A 340.5 340.5 0 0 1 -117.056 -319.747A 2.25 2.25 0 0 0 -115.461 -321.92C -115.50930086328879 -322.93302827045187 -115.54416757989488 -323.99673454873874 -115.56295395770869 -325.11106787078563 C -115.61116534795576 -327.97193255838215 -115.55348786402459 -331.16538799466696 -115.3381093664593 -334.68379474730654 A 354 354 0 0 1 -110.722 -336.239C -108.42142337235998 -333.56846031528676 -106.44290983994514 -331.0610775128929 -104.74996905131707 -328.75438668291895 C -104.09055896279038 -327.8559046209029 -103.47458850194548 -326.9879949909527 -102.89980623211164 -326.152774989854 A 2.25 2.25 0 0 0 -100.315 -325.388A 340.5 340.5 0 0 1 -99.5741 -325.615A 2.25 2.25 0 0 0 -97.8637 -327.699C -97.85665482583019 -328.7129666443789 -97.83388251043073 -329.77700055175455 -97.79231254654708 -330.89071668197727 C -97.68556913883995 -333.74999577709855 -97.4550860519712 -336.9356451398433 -97.04954072397973 -340.4372314890825 A 354 354 0 0 1 -92.3561 -341.74C -90.20338163461275 -338.9490709603435 -88.36351673106739 -336.3382508875711 -86.79794050992955 -333.9432890518221 C -86.18814034132626 -333.0104249486501 -85.62006093434363 -332.11044021447077 -85.09133953151353 -331.2453270506938 A 2.25 2.25 0 0 0 -82.5514 -330.342A 340.5 340.5 0 0 1 -81.7996 -330.528A 2.25 2.25 0 0 0 -79.9789 -332.517C -79.91697835928608 -333.5287332506326 -79.83663380700577 -334.5899737923161 -79.73482943329114 -335.69980600941386 C -79.47344432443627 -338.5491127538265 -79.07083168123542 -341.7176119845703 -78.47630905713933 -345.1921071743311 A 354 354 0 0 1 -73.7192 -346.239C -71.72075783669165 -343.3354855801104 -70.02493820278242 -340.62888622207146 -68.5913186539367 -338.15267821625815 C -68.0329170542185 -337.1881683230753 -67.51439497587762 -336.2587482949573 -67.03328527102329 -335.36627949446864 A 2.25 2.25 0 0 0 -64.546 -334.326A 340.5 340.5 0 0 1 -63.7852 -334.472A 2.25 2.25 0 0 0 -61.8595 -336.359C -61.742891625698114 -337.36620261601126 -61.60521050095198 -338.4215369906444 -61.44347032717513 -339.5242299655028 C -61.028210204732865 -342.35520685159634 -60.45464893745169 -345.49726219617 -59.672892854542354 -348.93447493341336 A 354 354 0 0 1 -54.8661 -349.723C -53.02776469870984 -346.7148380647385 -51.48096446560891 -343.920398343691 -50.183506642201486 -341.37020731253955 C -49.67814149947171 -340.37688070304534 -49.210697664368546 -339.4207515300683 -48.77861083514844 -338.5035448576301 A 2.25 2.25 0 0 0 -46.3513 -337.33A 340.5 340.5 0 0 1 -45.5837 -337.435A 2.25 2.25 0 0 0 -43.5587 -339.215C -43.38770235281054 -340.2141187816787 -43.1930884980596 -341.260451511709 -42.97188693601768 -342.35277085584136 C -42.40396982947553 -345.1571141406379 -41.661142292134286 -348.2635094093467 -40.694445775697695 -351.6533577568901 A 354 354 0 0 1 -35.852 -352.18C -34.17923199030204 -349.0772161911354 -32.7859881896033 -346.2031326802569 -31.628497758979304 -343.58643877345384 C -31.177651396274847 -342.56720904574195 -30.762656897717285 -341.5871752195091 -30.38086032924908 -340.6479210003242 A 2.25 2.25 0 0 0 -28.0206 -339.345A 340.5 340.5 0 0 1 -27.2484 -339.408A 2.25 2.25 0 0 0 -25.1301 -341.075C -24.905249473318886 -342.0641283188314 -24.654273724530665 -343.098390330081 -24.374259596517685 -344.1771320826468 C -23.655351304599968 -346.9466161441099 -22.745436338353198 -350.0082397444059 -21.596634875831697 -353.3407806929828 A 354 354 0 0 1 -16.7328 -353.604C -15.230445705462156 -350.41569069722397 -13.994844961285835 -347.47039357865 -12.980717042311273 -344.79487201027445 C -12.585711869693764 -343.7527287407472 -12.22438395804868 -342.75166486932847 -11.893997525450406 -341.7931180978532 A 2.25 2.25 0 0 0 -9.60774 -340.364A 340.5 340.5 0 0 1 -8.8333 -340.385A 2.25 2.25 0 0 0 -6.62775 -341.936C -6.349745206003183 -342.9108048307447 -6.043143718291428 -343.92996245453344 -5.7051383539906535 -344.99196248010753 C -4.837347558583848 -347.7184639443092 -3.7630141008038493 -350.72633560666173 -2.4354773248229256 -353.99179423948067 A 354 354 0 0 1 2.43548 -353.992C 3.7630141008037206 -350.72633560666173 4.83734755858372 -347.7184639443092 5.705138353990527 -344.99196248010753 C 6.043143718291302 -343.92996245453344 6.349745206003057 -342.9108048307447 6.6277524223997615 -341.93577708981525 A 2.25 2.25 0 0 0 8.8333 -340.385A 340.5 340.5 0 0 1 9.60774 -340.364A 2.25 2.25 0 0 0 11.894 -341.793C 12.22438395804856 -342.75166486932847 12.58571186969364 -343.7527287407472 12.980717042311149 -344.79487201027445 C 13.994844961285711 -347.47039357865 15.230445705462028 -350.41569069722397 16.73282390080682 -353.6044888614837 A 354 354 0 0 1 21.5966 -353.341C 22.74543633835307 -350.0082397444059 23.655351304599844 -346.9466161441099 24.37425959651756 -344.1771320826468 C 24.65427372453054 -343.098390330081 24.905249473318765 -342.0641283188314 25.130062030448187 -341.07547953280704 A 2.25 2.25 0 0 0 27.2484 -339.408A 340.5 340.5 0 0 1 28.0206 -339.345A 2.25 2.25 0 0 0 30.3809 -340.648C 30.762656897717463 -341.5871752195091 31.17765139627503 -342.56720904574195 31.62849775897949 -343.58643877345384 C 32.785988189603486 -346.2031326802569 34.17923199030223 -349.0772161911354 35.85204487090756 -352.18000059239733 A 354 354 0 0 1 40.6944 -351.653C 41.66114229213447 -348.2635094093467 42.40396982947571 -345.1571141406379 42.97188693601787 -342.35277085584136 C 43.19308849805979 -341.260451511709 43.38770235281072 -340.2141187816787 43.55866083670811 -339.21474882779063 A 2.25 2.25 0 0 0 45.5837 -337.435A 340.5 340.5 0 0 1 46.3513 -337.33A 2.25 2.25 0 0 0 48.7786 -338.504C 49.21069766436842 -339.42075153006834 49.67814149947157 -340.3768807030454 50.18350664220135 -341.3702073125396 C 51.48096446560877 -343.92039834369103 53.0277646987097 -346.7148380647385 54.866105616174856 -349.722507701751 A 354 354 0 0 1 59.6729 -348.934C 60.45464893745155 -345.49726219617 61.02821020473272 -342.3552068515964 61.44347032717499 -339.52422996550285 C 61.60521050095185 -338.4215369906445 61.742891625697986 -337.3662026160113 61.8594945856743 -336.35904281852356 A 2.25 2.25 0 0 0 63.7852 -334.472A 340.5 340.5 0 0 1 64.546 -334.326A 2.25 2.25 0 0 0 67.0333 -335.366C 67.5143949758775 -336.2587482949573 68.03291705421836 -337.1881683230753 68.59131865393655 -338.15267821625815 C 70.02493820278228 -340.62888622207146 71.72075783669152 -343.3354855801104 73.71923462036355 -346.2392184396134 A 354 354 0 0 1 78.4763 -345.192C 79.07083168123529 -341.7176119845703 79.47344432443613 -338.5491127538265 79.734829433291 -335.69980600941386 C 79.83663380700563 -334.5899737923161 79.91697835928595 -333.5287332506326 79.97888377876913 -332.51673778276273 A 2.25 2.25 0 0 0 81.7996 -330.528A 340.5 340.5 0 0 1 82.5514 -330.342A 2.25 2.25 0 0 0 85.0913 -331.245C 85.62006093434381 -332.1104402144707 86.18814034132645 -333.0104249486501 86.79794050992975 -333.94328905182203 C 88.36351673106759 -336.33825088757106 90.20338163461295 -338.9490709603435 92.35613240775231 -341.74034989355334 A 354 354 0 0 1 97.0495 -340.437C 97.45508605197139 -336.9356451398433 97.68556913884015 -333.7499957770985 97.79231254654728 -330.8907166819772 C 97.83388251043091 -329.77700055175455 97.85665482583038 -328.71296664437887 97.86368112555895 -327.6991038631985 A 2.25 2.25 0 0 0 99.5741 -325.615A 340.5 340.5 0 0 1 100.315 -325.388A 2.25 2.25 0 0 0 102.9 -326.153C 103.47458850194565 -326.98799499095264 104.09055896279055 -327.85590462090283 104.74996905131724 -328.75438668291895 C 106.44290983994532 -331.0610775128929 108.42142337236015 -333.5684603152867 110.7221337460351 -336.23909802016135 A 354 354 0 0 1 115.338 -334.684C 115.55348786402476 -331.1653879946669 115.61116534795593 -327.97193255838215 115.56295395770886 -325.11106787078563 C 115.54416757989505 -323.9967345487387 115.50930086328896 -322.9330282704518 115.46142743391519 -321.92027201018453 A 2.25 2.25 0 0 0 117.056 -319.747A 340.5 340.5 0 0 1 117.784 -319.48A 2.25 2.25 0 0 0 120.406 -320.104C 121.025607273032 -320.9064376388297 121.68766204024718 -321.7397264360671 122.39474788529272 -322.60119105423297 C 124.21008755438811 -324.8128449567899 126.32144639458836 -327.2094359030294 128.7633679888657 -329.75159893903543 A 354 354 0 0 1 133.288 -327.949C 133.31295138656643 -324.4237657074502 133.19765408956198 -321.2318711526454 132.994629313675 -318.3778122816229 C 132.9155416978467 -317.2661302993824 132.82313821932235 -316.2058716839728 132.72050548186306 -315.19719253322546 A 2.25 2.25 0 0 0 134.196 -312.941A 340.5 340.5 0 0 1 134.907 -312.634A 2.25 2.25 0 0 0 137.56 -313.115C 138.22163708554672 -313.88360641365404 138.9278342384294 -314.6798301985626 139.680521835381 -315.5017505487248 C 141.61293568091529 -317.61188036190543 143.8509468496403 -319.89064983781805 146.42691708774638 -322.29688160276197 A 354 354 0 0 1 150.848 -320.252C 150.68138505316978 -316.73055261792786 150.39345116206718 -313.5495813212885 150.03620850718875 -310.71069971325653 C 149.89705163094976 -309.60492982561675 149.74738242583055 -308.55122879428353 149.59029141978817 -307.5495853827985 A 2.25 2.25 0 0 0 150.941 -305.216A 340.5 340.5 0 0 1 151.635 -304.872A 2.25 2.25 0 0 0 154.31 -305.209C 155.01223902121214 -305.94010048942727 155.76050716183673 -306.6969238004583 156.55658874828612 -307.47688904861474 C 158.6004086674998 -309.4793053981065 160.95850769238743 -311.63356938019245 163.66097080978 -313.8968119817194 A 354 354 0 0 1 167.965 -311.615C 167.60784425534817 -308.10831424561485 167.14811832986047 -304.9475965440281 166.63770565024942 -302.1322191278761 C 166.4388876846942 -301.03560474843914 166.2323917585464 -299.99155198785746 166.02130325890803 -298.9998823083416 A 2.25 2.25 0 0 0 167.244 -296.597A 340.5 340.5 0 0 1 167.918 -296.216A 2.25 2.25 0 0 0 170.607 -296.407C 171.3481633515677 -297.0992195376735 172.13630768055282 -297.8144224816568 172.97344821204388 -298.5501448553484 C 175.12267932896833 -300.43897430898625 177.5939494992834 -302.4624139698114 180.41497870601086 -304.5760289274194 A 354 354 0 0 1 184.589 -302.065C 184.04268077187052 -298.5823411012496 183.41251126734693 -295.45114792431883 182.75042569133547 -292.6675326870915 C 182.4925298038129 -291.58329037477637 182.22981284476677 -290.5519482715811 181.96534601047188 -289.57316106206684 A 2.25 2.25 0 0 0 183.056 -287.108A 340.5 340.5 0 0 1 183.709 -286.69A 2.25 2.25 0 0 0 186.404 -286.736C 187.18149399591 -287.38689538548795 188.00720275014322 -288.05838014896085 188.88294674925967 -288.7477016477022 C 191.13128499872124 -290.5174039432577 193.70847765325993 -292.4040841856626 196.6397983846019 -294.3618719025099 A 354 354 0 0 1 200.671 -291.628C 199.937688395549 -288.18057450536793 199.13892370772305 -285.0880901821787 198.32710724638153 -282.3444019469775 C 198.01088988996457 -281.27571197129873 197.69272249212645 -280.2601056295764 197.3756530499671 -279.2970718415921 A 2.25 2.25 0 0 0 198.331 -276.776A 340.5 340.5 0 0 1 198.96 -276.324A 2.25 2.25 0 0 0 201.654 -276.224C 202.46578906741158 -276.83161595302056 203.32664030084902 -277.4574129554766 204.2384190595527 -278.0983116805433 C 206.57926967808214 -279.7436959762679 209.25482546674414 -281.48808284203085 212.2878396539357 -283.28430078942154 A 354 354 0 0 1 216.166 -280.337C 215.24624433034904 -276.9335246315968 214.2812273736755 -273.888819951497 213.32206122455915 -271.1931064286471 C 212.94844991923776 -270.1431034414364 212.57576532240503 -269.14621180957397 212.20702329168543 -268.20175618714825 A 2.25 2.25 0 0 0 213.025 -265.633A 340.5 340.5 0 0 1 213.628 -265.147A 2.25 2.25 0 0 0 216.313 -264.901C 217.15621709517808 -265.4643416934977 218.04968578282933 -266.04261536450525 218.99482489692357 -266.6332114495114 C 221.4213217663334 -268.1494515497696 224.18739282299833 -269.74642845165937 227.31320411284688 -271.3758080128694 A 354 354 0 0 1 231.026 -268.222C 229.9234459440841 -264.87418101505733 228.79500727956713 -261.88618662146956 227.69130484225352 -259.2463548031988 C 227.26139545435854 -258.2181186441307 226.8352868066665 -257.2428657770466 226.41595377129616 -256.31975857124775 A 2.25 2.25 0 0 0 227.093 -253.71A 340.5 340.5 0 0 1 227.67 -253.193A 2.25 2.25 0 0 0 230.337 -252.802C 231.20968852267612 -253.31841478087875 232.13315396693758 -253.8474689441254 233.10888118055544 -254.3860300689953 C 235.6139069674477 -255.76867858032827 238.46237992911855 -257.2135613099361 241.6718197785407 -258.671323233974 A 354 354 0 0 1 245.208 -255.322C 243.92624247557202 -252.037915788375 242.63769200824208 -249.11539598368026 241.39269063214527 -246.5391889515488 C 240.90774415998385 -245.53573561444057 240.42946131151365 -244.58498209682784 239.9607672475355 -243.68593094013968 A 2.25 2.25 0 0 0 240.496 -241.044A 340.5 340.5 0 0 1 241.044 -240.496A 2.25 2.25 0 0 0 243.686 -239.961C 244.58498209682776 -240.42946131151376 245.53573561444048 -240.90774415998393 246.5391889515487 -241.3926906321454 C 249.11539598368017 -242.6376920082422 252.0379157883749 -243.92624247557214 255.321570357313 -245.20811089554562 A 354 354 0 0 1 258.671 -241.672C 257.21356130993604 -238.46237992911867 255.76867858032819 -235.6139069674478 254.3860300689952 -233.10888118055556 C 253.84746894412538 -232.13315396693773 253.31841478087867 -231.20968852267623 252.80173444873725 -230.33733048704585 A 2.25 2.25 0 0 0 253.193 -227.67A 340.5 340.5 0 0 1 253.71 -227.093A 2.25 2.25 0 0 0 256.32 -226.416C 257.2428657770467 -226.83528680666637 258.2181186441308 -227.26139545435842 259.2463548031989 -227.6913048422534 C 261.8861866214697 -228.79500727956702 264.87418101505745 -229.923445944084 268.22241877889456 -231.02566091905427 A 354 354 0 0 1 271.376 -227.313C 269.7464284516595 -224.18739282299822 268.1494515497697 -221.42132176633328 266.6332114495115 -218.99482489692346 C 266.04261536450537 -218.04968578282921 265.46434169349783 -217.15621709517796 264.90119060563023 -216.31311095702918 A 2.25 2.25 0 0 0 265.147 -213.628A 340.5 340.5 0 0 1 265.633 -213.025A 2.25 2.25 0 0 0 268.202 -212.207C 269.146211809574 -212.57576532240492 270.14310344143644 -212.94844991923765 271.19310642864724 -213.32206122455904 C 273.8888199514971 -214.2812273736754 276.93352463159687 -215.24624433034893 280.3365246320778 -216.1655728738852 A 354 354 0 0 1 283.284 -212.288C 281.4880828420309 -209.25482546674402 279.743695976268 -206.57926967808203 278.0983116805434 -204.2384190595526 C 277.4574129554767 -203.3266403008489 276.8316159530206 -202.46578906741146 276.2236459285971 -201.65440780231276 A 2.25 2.25 0 0 0 276.324 -198.96A 340.5 340.5 0 0 1 276.776 -198.331A 2.25 2.25 0 0 0 279.297 -197.376C 280.26010562957634 -197.6927224921266 281.2757119712987 -198.01088988996472 282.3444019469774 -198.32710724638167 C 285.0880901821786 -199.13892370772322 288.1805745053679 -199.93768839554915 291.6283551571619 -200.671433958635 A 354 354 0 0 1 294.362 -196.64C 292.40408418566255 -193.70847765326008 290.5174039432576 -191.1312849987214 288.7477016477021 -188.88294674925982 C 288.0583801489608 -188.00720275014336 287.3868953854879 -187.18149399591013 286.73588970534195 -186.40421752491122 A 2.25 2.25 0 0 0 286.69 -183.709A 340.5 340.5 0 0 1 287.108 -183.056A 2.25 2.25 0 0 0 289.573 -181.965C 290.55194827158107 -182.22981284476688 291.5832903747763 -182.492529803813 292.6675326870914 -182.7504256913356 C 295.4511479243188 -183.412511267347 298.5823411012495 -184.04268077187064 302.0647894696601 -184.58869115234677 A 354 354 0 0 1 304.576 -180.415C 302.4624139698113 -177.59394949928353 300.4389743089862 -175.12267932896847 298.55014485534826 -172.97344821204402 C 297.8144224816567 -172.13630768055293 297.09921953767343 -171.34816335156782 296.40708771363194 -170.60727156048114 A 2.25 2.25 0 0 0 296.216 -167.918A 340.5 340.5 0 0 1 296.597 -167.244A 2.25 2.25 0 0 0 299 -166.021C 299.9915519878576 -166.23239175854627 301.0356047484392 -166.43888768469404 302.13221912787617 -166.63770565024925 C 304.94759654402816 -167.14811832986032 308.1083142456149 -167.607844255348 311.6152157095595 -167.9645179106922 A 354 354 0 0 1 313.897 -163.661C 311.6335693801925 -160.95850769238726 309.47930539810653 -158.60040866749966 307.4768890486148 -156.55658874828595 C 306.69692380045836 -155.76050716183656 305.9401004894274 -155.012239021212 305.20887266338286 -154.30990507331475 A 2.25 2.25 0 0 0 304.872 -151.635A 340.5 340.5 0 0 1 305.216 -150.941A 2.25 2.25 0 0 0 307.55 -149.59C 308.5512287942835 -149.74738242583066 309.6049298256167 -149.89705163094987 310.7106997132565 -150.03620850718886 C 313.54958132128843 -150.3934511620673 316.7305526179278 -150.6813850531699 320.2516208311814 -150.8476757980969 A 354 354 0 0 1 322.297 -146.427C 319.890649837818 -143.85094684964042 317.6118803619054 -141.6129356809154 315.5017505487247 -139.68052183538111 C 314.67983019856257 -138.9278342384295 313.883606413654 -138.22163708554683 313.1154274028092 -137.55992104731882 A 2.25 2.25 0 0 0 312.634 -134.907A 340.5 340.5 0 0 1 312.941 -134.196A 2.25 2.25 0 0 0 315.197 -132.721C 316.20587168397276 -132.82313821932246 317.2661302993823 -132.91554169784683 318.3778122816228 -132.99462931367515 C 321.23187115264534 -133.19765408956212 324.4237657074502 -133.31295138656657 327.94867277027123 -133.28837146167007 A 354 354 0 0 1 329.752 -128.763C 327.2094359030294 -126.3214463945885 324.81284495678983 -124.21008755438825 322.6011910542329 -122.39474788529284 C 321.73972643606703 -121.6876620402473 320.90643763882963 -121.02560727303212 320.10356064457886 -120.40645007162564 A 2.25 2.25 0 0 0 319.48 -117.784A 340.5 340.5 0 0 1 319.747 -117.056A 2.25 2.25 0 0 0 321.92 -115.461C 322.93302827045187 -115.50930086328881 323.99673454873874 -115.54416757989489 325.11106787078563 -115.56295395770871 C 327.97193255838215 -115.61116534795579 331.16538799466696 -115.5534878640246 334.68379474730654 -115.33810936645932 A 354 354 0 0 1 336.239 -110.722C 333.56846031528676 -108.42142337236 331.0610775128929 -106.44290983994517 328.75438668291895 -104.7499690513171 C 327.8559046209029 -104.0905589627904 326.9879949909527 -103.4745885019455 326.152774989854 -102.89980623211166 A 2.25 2.25 0 0 0 325.388 -100.315A 340.5 340.5 0 0 1 325.615 -99.5741A 2.25 2.25 0 0 0 327.699 -97.8637C 328.7129666443789 -97.8566548258302 329.77700055175455 -97.83388251043074 330.89071668197727 -97.79231254654711 C 333.74999577709855 -97.68556913883998 336.9356451398433 -97.45508605197121 340.4372314890825 -97.04954072397975 A 354 354 0 0 1 341.74 -92.3561C 338.9490709603435 -90.20338163461277 336.3382508875711 -88.36351673106739 333.9432890518221 -86.79794050992957 C 333.0104249486501 -86.18814034132627 332.11044021447077 -85.62006093434364 331.2453270506938 -85.09133953151355 A 2.25 2.25 0 0 0 330.342 -82.5514A 340.5 340.5 0 0 1 330.528 -81.7996A 2.25 2.25 0 0 0 332.517 -79.9789C 333.5287332506326 -79.91697835928609 334.5899737923161 -79.83663380700578 335.69980600941386 -79.73482943329115 C 338.5491127538265 -79.47344432443629 341.7176119845703 -79.07083168123545 345.1921071743311 -78.47630905713935 A 354 354 0 0 1 346.239 -73.7192C 343.3354855801104 -71.72075783669167 340.62888622207146 -70.02493820278244 338.15267821625815 -68.59131865393671 C 337.1881683230753 -68.03291705421852 336.2587482949573 -67.51439497587764 335.36627949446864 -67.0332852710233 A 2.25 2.25 0 0 0 334.326 -64.546A 340.5 340.5 0 0 1 334.472 -63.7852A 2.25 2.25 0 0 0 336.359 -61.8595C 337.36620261601126 -61.742891625698135 338.4215369906444 -61.605210500952 339.5242299655028 -61.44347032717515 C 342.35520685159634 -61.02821020473288 345.49726219617 -60.45464893745171 348.93447493341336 -59.672892854542376 A 354 354 0 0 1 349.723 -54.8661C 346.7148380647385 -53.02776469870986 343.920398343691 -51.48096446560893 341.37020731253955 -50.18350664220151 C 340.37688070304534 -49.67814149947172 339.4207515300683 -49.21069766436857 338.5035448576301 -48.778610835148456 A 2.25 2.25 0 0 0 337.33 -46.3513A 340.5 340.5 0 0 1 337.435 -45.5837A 2.25 2.25 0 0 0 339.215 -43.5587C 340.2141187816787 -43.387702352810564 341.260451511709 -43.19308849805962 342.35277085584136 -42.97188693601771 C 345.1571141406379 -42.40396982947556 348.2635094093467 -41.661142292134315 351.6533577568901 -40.69444577569772 A 354 354 0 0 1 352.18 -35.852C 349.0772161911354 -34.17923199030207 346.2031326802569 -32.78598818960333 343.58643877345384 -31.628497758979332 C 342.56720904574195 -31.177651396274868 341.5871752195091 -30.762656897717306 340.6479210003242 -30.38086032924911 A 2.25 2.25 0 0 0 339.345 -28.0206A 340.5 340.5 0 0 1 339.408 -27.2484A 2.25 2.25 0 0 0 341.075 -25.1301C 342.0641283188315 -24.905249473318605 343.09839033008103 -24.65427372453038 344.1771320826468 -24.3742595965174 C 346.94661614410995 -23.65535130459968 350.0082397444059 -22.745436338352906 353.34078069298283 -21.596634875831406 A 354 354 0 0 1 353.604 -16.7328C 350.41569069722397 -15.230445705461864 347.47039357865003 -13.994844961285548 344.79487201027445 -12.980717042310989 C 343.7527287407473 -12.58571186969348 342.7516648693285 -12.2243839580484 341.7931180978532 -11.893997525450121 A 2.25 2.25 0 0 0 340.364 -9.60774A 340.5 340.5 0 0 1 340.385 -8.8333A 2.25 2.25 0 0 0 341.936 -6.62775" stroke="#191919" stroke-width="0.35 px" style="stroke-width:0.35;stroke-miterlimit:4;stroke-dasharray:none;fill:none;fill-rule: evenodd "/>
<title>b'InvoluteGear'</title>
</g>
</svg>