<?xml version="1.0"?>
<!DOCTYPE svg PUBLIC "-//W3C//DTD SVG 1.1//EN" "http://www.w3.org/Graphics/SVG/1.1/DTD/svg11.dtd">
<svg width="544.5697703128228mm" height="544.6568032427579mm" viewBox="0 0 544.5697703128228 544.6568032427579" xmlns="http://www.w3.org/2000/svg" version="1.1">
<g id="InvoluteGear" transform="translate(272.241300,272.328402) scale(1,-1)">
<path id="InvoluteGear_w0000"  d="M 254.91626561313763 -6.534334384789894 C 255.87524522471972 -6.287774738277458 256.90062564786126 -6.002394810593537 257.98998221736906 -5.67231346249579 C 260.62979687253477 -4.872385763580576 263.64284935467236 -3.8109751823842535 266.98955139546086 -2.4065041642962797 A 267 267 0 0 1 266.99 2.4065C 263.64284935467236 3.8109751823842535 260.62979687253477 4.872385763580576 257.98998221736906 5.67231346249579 C 256.90062564786126 6.002394810593537 255.87524522471972 6.287774738277458 254.91627748549973 6.534330101461898 A 2.25 2.25 0 0 0 253.35 8.72503A 253.5 253.5 0 0 1 253.319 9.57887A 2.25 2.25 0 0 0 254.723 11.8769C 255.66194941422498 12.191999495080594 256.66406453286515 12.550624653539401 257.72676347269146 12.958451081304755 C 260.30197575465917 13.946776655152851 263.2305849010294 15.22283548992012 266.4672193876669 16.86513588582083 A 267 267 0 0 1 266.12 21.6656C 262.680602067884 22.824917194705996 259.59881491046946 23.666145819032216 256.9081606533888 24.27350519038765 C 255.79782585494175 24.52412056750832 254.75452598603715 24.734767425615566 253.78026717200706 24.911483116102872 A 2.25 2.25 0 0 0 252.06 26.9834A 253.5 253.5 0 0 1 251.967 27.8328A 2.25 2.25 0 0 0 253.202 30.2262C 254.1157505801452 30.608210288404752 255.0893758300707 31.038210972118563 256.119876720011 31.521656261395428 C 258.61706066435823 32.69322703826459 261.4459580629231 34.177281346699374 264.55565068187434 36.04884892659264 A 267 267 0 0 1 263.863 40.8117C 260.3488597524626 41.71986065753062 257.21440493103177 42.336521548458556 254.4869388974631 42.74814610172114 C 253.361414641591 42.917988915332344 252.30563460935454 43.0528044886818 251.32116405485388 43.158759192687484 A 2.25 2.25 0 0 0 249.456 45.1012A 253.5 253.5 0 0 1 249.302 45.9417A 2.25 2.25 0 0 0 250.361 48.4179C 251.24470988725574 48.86484404598535 252.18476923723685 49.36397843049503 253.17769952281 49.92052212139765 C 255.58383596873676 51.2692300737366 258.29827305834124 52.95354268384516 261.2648113121902 55.04461996097238 A 267 267 0 0 1 260.23 59.7451C 256.65977903316036 60.39729608468008 253.48899814378706 60.78617425786056 250.7389400787147 60.999917973206536 C 249.60409432772954 61.08810274152143 248.5413384803852 61.1463841641381 247.55178875904 61.1810254828963 A 2.25 2.25 0 0 0 245.551 62.9838A 253.5 253.5 0 0 1 245.337 63.811A 2.25 2.25 0 0 0 246.215 66.3572C 247.0637956123344 66.86671913288723 247.9653880282016 67.43238496262907 248.9155710306609 68.05912549405278 C 251.2181154968657 69.57793908309823 253.80394045940636 71.45372876882865 256.6118581913112 73.75341383451075 A 267 267 0 0 1 255.241 78.367C 251.63259306867093 78.75984797616036 248.442017094727 78.91891600086298 245.6837045275266 78.93366451753155 C 244.5454538416997 78.93973148600085 243.48126289614146 78.9211749055336 242.49179306200168 78.88432223524849 A 2.25 2.25 0 0 0 240.366 80.538A 253.5 253.5 0 0 1 240.093 81.3477A 2.25 2.25 0 0 0 240.785 83.9505C 241.59480510649723 84.51998210792166 242.45323010286384 85.149230263183 243.3557120080033 85.84290010020032 C 245.54266009380007 87.5239009351642 247.98639163525206 89.58138819765306 250.6210496623254 92.0776915587943 A 267 267 0 0 1 248.921 96.5803C 245.29351127884553 96.71178248892998 242.09977440610788 96.64021105812814 239.34758790130712 96.45588748418251 C 238.21186659266348 96.37980502244184 237.15178874772283 96.28450718430886 236.16755743834366 96.1763526577392 A 2.25 2.25 0 0 0 233.928 97.6723A 253.5 253.5 0 0 1 233.598 98.4602A 2.25 2.25 0 0 0 234.099 101.106C 234.8662511539027 101.73259703203132 235.67703330031924 102.42214690429512 236.52710898536702 103.1791295735699 C 238.58705895607193 105.01355369446243 240.8759565917135 107.24201174781356 243.32361902694336 109.92191883456704 A 267 267 0 0 1 241.303 114.29C 237.6755827009139 114.15950654882954 234.4953355946222 113.85766880282331 231.76362377829594 113.47523411602955 C 230.63635297185903 113.31739888280552 229.5859149825654 113.14585662580853 228.61205352425955 112.96696411057643 A 2.25 2.25 0 0 0 226.271 114.297A 253.5 253.5 0 0 1 225.884 115.059A 2.25 2.25 0 0 0 226.194 117.735C 226.91321331929763 118.4148253010606 227.6721255730739 119.1610818965792 228.46536313702373 119.97743084098397 C 230.38757536732024 121.95571440984305 232.50970584472097 124.34352510562238 234.7576117095257 127.19306412333094 A 267 267 0 0 1 232.427 131.404C 228.81852368710693 131.01205580153334 225.66834668310477 130.48152538256866 222.97135143578274 129.90297342030277 C 221.85840819957048 129.66420829541804 220.82308656320956 129.4173159614548 219.86467221868776 129.16861812030098 A 2.25 2.25 0 0 0 217.433 130.327A 253.5 253.5 0 0 1 216.993 131.059A 2.25 2.25 0 0 0 217.108 133.749C 217.7771550594096 134.47969350128528 218.4802408034581 135.27876618371326 219.212504672949 136.15022533785074 C 220.98695763832163 138.26205450016468 222.9312571517949 140.79676889904647 224.96768690585654 143.80108367071063 A 267 267 0 0 1 222.339 147.833C 218.76851084198643 147.18156885857303 215.6648275045276 146.42511170659978 213.01660971062367 145.6534587709027 C 211.92379641533702 145.33500856516153 210.90898881952972 145.01405333654128 209.97101831740412 144.69684676485357 A 2.25 2.25 0 0 0 207.462 145.676A 253.5 253.5 0 0 1 206.97 146.375A 2.25 2.25 0 0 0 206.891 149.067C 207.50570755168275 149.84344684852016 208.14930122248788 150.69116962289064 208.81677371276876 151.61319560224808 C 210.43421623709153 153.84756025861725 212.19054810925462 156.51596353338948 214.0048847507755 159.65939095289542 A 267 267 0 0 1 211.092 163.491C 207.57794027901002 162.5837453659343 204.53693177589926 161.60530529827605 201.95129801677095 160.6445744302514 C 200.88431208491974 160.24809939557275 199.89530926657824 159.85475458424378 198.98267275073286 159.4706930502088 A 2.25 2.25 0 0 0 196.41 160.267A 253.5 253.5 0 0 1 195.869 160.928A 2.25 2.25 0 0 0 195.596 163.607C 196.15242136737336 164.42598584678205 196.73316756554257 165.3179390790756 197.33236878411284 166.28572486712773 C 198.78436827099787 168.6309760748249 200.343575800714 171.41915640637941 201.92636021854827 174.68530809868156 A 267 267 0 0 1 198.745 178.297C 195.30515445145716 177.1382855070684 192.34267519293357 175.94296365718503 189.8331057657597 174.79816366272587 C 188.79750996793982 174.32573083635833 187.83946812981517 173.86204716003408 186.95692366446016 173.41313298265615 A 2.25 2.25 0 0 0 184.333 174.021A 253.5 253.5 0 0 1 183.746 174.642A 2.25 2.25 0 0 0 183.28 177.294C 183.77648728366745 178.15128388997312 184.29135826742976 179.08281734904284 184.81916425658753 180.09131735881033 C 186.0981506530381 182.53522806397407 187.45210485421634 185.42864917108977 188.79508514329544 188.8004969336099 A 267 267 0 0 1 185.361 192.173C 182.01413798189233 190.769308648954 179.14563296307563 189.36333687149389 176.72521160082877 188.04043620768783 C 175.726405054012 187.4945086356347 174.80431898264038 186.96290352630137 173.95646774596833 186.4514771362379 A 2.25 2.25 0 0 0 171.296 186.869A 253.5 253.5 0 0 1 170.665 187.445A 2.25 2.25 0 0 0 170.01 190.057C 170.4424276903756 190.94778362940184 170.88873916082548 191.91404073112562 171.34239818453634 192.95799711052928 C 172.44170344769796 195.4878258943612 173.58334543006285 198.4714028191434 174.67951991300757 201.93136739893438 A 267 267 0 0 1 171.011 205.047C 167.77418407597006 203.4057489485824 165.01460835380752 201.7964573293778 162.69595401272844 200.30235298773545 C 161.7391440317666 199.6857768835734 160.85782105696524 199.08902188411878 160.0490833527386 198.51774962175878 A 2.25 2.25 0 0 0 157.365 198.742A 253.5 253.5 0 0 1 156.695 199.271A 2.25 2.25 0 0 0 155.852 201.829C 156.21976020006892 202.74877004066565 156.59518529585765 203.74471316792688 156.9723321860324 204.8186832117937 C 157.88622504728073 207.42124071841653 158.80960281815743 210.47941847228267 159.65325654878183 214.0094612161132 A 267 267 0 0 1 155.77 216.853C 152.65953325974584 214.9817258573569 150.02327398427025 213.17750449775053 147.8184750544731 211.51998604648526 C 146.9086500035696 210.83597595252445 146.0726849352449 210.17718226719677 145.3072771473789 209.54904248159662 A 2.25 2.25 0 0 0 142.614 209.579A 253.5 253.5 0 0 1 141.907 210.059A 2.25 2.25 0 0 0 140.882 212.549C 141.18263521543636 213.4927182448966 141.4852166439498 214.5131550113871 141.78388513133558 215.6115395371951 C 142.5076009764573 218.27325723684683 143.20790047170553 221.39009189703432 143.7946350301001 224.97180879657463 A 267 267 0 0 1 139.716 227.527C 136.7489863239497 225.43688759176797 134.24978773034064 223.4471428665096 132.1703390125444 221.6348518393357 C 131.31224229823295 220.8869738674849 130.5259934711693 220.16957614151426 129.8079060814586 219.48784366266483 A 2.25 2.25 0 0 0 127.12 219.324A 253.5 253.5 0 0 1 126.38 219.751A 2.25 2.25 0 0 0 125.178 222.161C 125.40944934341896 223.1236142709915 125.63760958519491 224.16322459190965 125.85624255059278 225.28029713133276 C 126.38600826027783 227.98729806039822 126.85957844259313 231.1465398941952 127.18633486644958 234.76125753599456 A 267 267 0 0 1 122.934 237.016C 120.12549349315039 234.71672577964762 117.77638524565629 232.5518312964115 115.83312802261608 230.59421613958892 C 115.03123336383551 229.78636937929892 114.29879991535581 229.01410779224764 113.63177669895016 228.28233685762703 A 2.25 2.25 0 0 0 110.963 227.924A 253.5 253.5 0 0 1 110.194 228.297A 2.25 2.25 0 0 0 108.821 230.614C 108.98243667160223 231.5912470865209 109.13498620478644 232.64461091503034 109.27244379714972 233.77454756909265 C 109.60549741828834 236.51271867816635 109.84986931202012 239.6978968614938 109.91494404464441 243.32676978151193 A 267 267 0 0 1 105.511 245.269C 102.87572196169377 242.77285964158244 100.6889512229956 240.4441021577803 98.89201673807452 238.3513689702906 C 98.15050484226971 237.48776516050754 97.47570534123135 236.66466592670568 96.86322384832536 235.88667165113077 A 2.25 2.25 0 0 0 94.2267 235.337A 253.5 253.5 0 0 1 93.433 235.653A 2.25 2.25 0 0 0 91.8969 237.865C 91.98724003776037 238.85147037480266 92.06338353972272 239.91309595964685 92.11894911881262 241.0500057618353 C 92.25355426403998 243.80507149462602 92.2674538272873 246.9995799832879 92.07050759915548 250.62368891841822 A 267 267 0 0 1 87.5379 252.243C 85.08960405108131 249.56328822589558 83.07657163125732 247.08280880474962 81.43532826881457 244.86586812842174 C 80.75806503566362 243.9510096995303 80.14441757420862 243.0813640772584 79.58967099970539 242.26120256264278 A 2.25 2.25 0 0 0 76.9997 241.523A 253.5 253.5 0 0 1 76.1853 241.781A 2.25 2.25 0 0 0 74.4935 243.876C 74.51246452775605 244.86643269335565 74.51180502153453 245.9307852103059 74.48518889415051 247.06874083934198 C 74.42064379456642 249.82633755881332 74.20399856144249 253.01352166472182 73.74605815899486 256.61397218906916 A 267 267 0 0 1 69.1085 257.902C 66.8598683444879 255.0526093821605 65.03106926246875 252.4333400948216 63.554073705441496 250.10375003181886 C 62.94459007184487 249.1424066320549 62.39529392369645 248.2307485509104 61.90117445936786 247.372695739627 A 2.25 2.25 0 0 0 59.3712 246.449A 253.5 253.5 0 0 1 58.5403 246.648A 2.25 2.25 0 0 0 56.7017 248.616C 56.64921552965002 249.60477481379445 56.57175645360466 250.66630522166085 56.46309738391071 251.79937390380906 C 56.19973854777768 254.54512477753192 55.75367800621349 257.70836799853953 55.03713091866556 261.2663890302078 A 267 267 0 0 1 50.3187 262.216C 48.28155624286556 259.21220433162136 46.64652501026527 256.4678008353379 45.34147762958591 254.03770678956494 C 44.802951160996365 253.03489041827842 44.32087010192713 252.0859728413659 43.88995385786514 251.19450222346356 A 2.25 2.25 0 0 0 41.4332 250.091A 253.5 253.5 0 0 1 40.5901 250.229A 2.25 2.25 0 0 0 38.6143 252.059C 38.490623752392935 253.04179321432557 38.336768942279896 254.0949671850882 38.14663342835234 255.21724162489127 C 37.68583388669738 257.9368315791914 37.01268358981462 261.0596422298389 36.04126556189384 264.55668389466035 A 267 267 0 0 1 31.2666 265.163C 29.451526463086815 262.0203868722533 28.018787375674005 259.1651572160977 26.892492084101598 256.6472285726884 C 26.427730408169275 255.60816745009913 26.01537778560038 254.62693759428177 25.649911359571835 253.7066968847793 A 2.25 2.25 0 0 0 23.2792 252.429A 253.5 253.5 0 0 1 22.4283 252.506A 2.25 2.25 0 0 0 20.3256 254.189C 20.13135968543146 255.15956887247154 19.901911268990386 256.1988956447042 19.631290589359267 257.3045248228864 C 18.975452737625847 259.9837751750097 18.078722179379692 263.0498723665381 16.857497734882223 266.46770270852835 A 267 267 0 0 1 12.0515 266.728C 10.467950061443576 263.46251644057895 9.244972757410395 260.5113464699045 8.30330153708005 257.91871054291414 C 7.914727705981917 256.8488218525928 7.574253335553368 255.84039539599416 7.27614210027951 254.8961823038464 A 2.25 2.25 0 0 0 5.00385 253.451A 253.5 253.5 0 0 1 4.1496 253.466A 2.25 2.25 0 0 0 1.93097 254.993C 1.6671400306123925 255.94706068655702 1.3632942456437478 256.96712169171485 1.0135992912255771 258.0503413696871 C 0.16614236429616014 260.67528374888684 -0.9494933174011333 263.6686822702526 -2.414157279692442 266.9894823045865 A 267 267 0 0 1 -7.22638 266.903C -8.570201384783354 263.5310744407867 -9.57704086805608 260.49935018932285 -10.329178579429144 257.84552378199135 C -10.639538721661367 256.7503854281723 -10.906359764234013 255.7200198393995 -11.135561594808674 254.75675705446437 A 2.25 2.25 0 0 0 -13.2976 253.151A 253.5 253.5 0 0 1 -14.1508 253.105A 2.25 2.25 0 0 0 -16.4738 254.467C -16.805771320380607 255.40016303890027 -17.1824303626455 256.39564015122727 -17.609376444279704 257.4508029231582 C -18.64403419839109 260.00775209531173 -19.97275859567452 262.9128457526755 -21.673225996052278 266.1193023656237 A 267 267 0 0 1 -26.4666 265.685C -27.56367176930093 262.2257034432083 -28.349124236950246 259.12923091740504 -28.907807141605687 256.4280498518034 C -29.1383355208983 255.31337137877512 -29.330112154246784 254.2664385069116 -29.489209627906305 253.2891480353246 A 2.25 2.25 0 0 0 -31.5298 251.532A 253.5 253.5 0 0 1 -32.3773 251.424A 2.25 2.25 0 0 0 -34.7926 252.615C -35.191065161384586 253.52172720060295 -35.638573735106014 254.4874304633771 -36.14054504477798 255.50903519915215 C -37.35700939962508 257.9846604152351 -38.8918951587343 260.78630339542997 -40.8193005475504 263.8616996069171 A 267 267 0 0 1 -45.5689 263.083C -46.41343793218293 259.5532090477916 -46.973408398735195 256.4081318216205 -47.33572378269838 253.67367880508078 C -47.48521853082466 252.54527163026557 -47.600950920382175 251.48722969853785 -47.689114576566745 250.5010066802971 A 2.25 2.25 0 0 0 -49.5975 248.601A 253.5 253.5 0 0 1 -50.4351 248.432A 2.25 2.25 0 0 0 -52.9301 249.446C -53.39288908336367 250.32154646634277 -53.908914086050785 251.2524411499072 -54.48329357778262 252.23516167547373 C -55.875222451485925 254.61655617191283 -57.60826738878018 257.3001420057012 -59.752562166795194 260.2284441238995 A 267 267 0 0 1 -64.4336 259.109C -65.02122592077457 255.52752440285335 -65.35279495950361 252.350239452688 -65.51685387812759 249.59677065708863 C -65.58453559869224 248.46051777300283 -65.62362036936788 247.39688292213154 -65.64039056359708 246.40686906739757 A 2.25 2.25 0 0 0 -67.4067 244.374A 253.5 253.5 0 0 1 -68.23 244.145A 2.25 2.25 0 0 0 -70.7916 244.977C -71.31634720448648 245.81630509666948 -71.89819832071338 246.7075379471818 -72.5419914457935 247.64625081275437 C -74.10212796571857 249.92099910131628 -76.02429678735679 252.47253681475755 -78.37430159448364 255.23847802833166 A 267 267 0 0 1 -82.9624 253.784C -83.29002334457708 250.16963756409572 -83.39146230804333 246.9767097824693 -83.35640943409156 244.21858051915564 C -83.34192526594263 243.08040582221108 -83.30415864783976 242.01672335180749 -83.24944794808609 241.0280801344069 A 2.25 2.25 0 0 0 -84.8645 238.873A 253.5 253.5 0 0 1 -85.6691 238.586A 2.25 2.25 0 0 0 -88.284 239.23C -88.86799491331408 240.02949133399622 -89.51263864077872 240.87641587604662 -90.22248895995229 241.76622706740184 C -91.94269929668344 243.9224696638002 -94.04397070446281 246.32865672070994 -96.5874337037737 248.91781669290233 A 267 267 0 0 1 -101.059 247.136C -101.12458515293186 243.50748207260216 -100.99536518534968 240.31555790652783 -100.76138326827622 237.56714778436591 C -100.66480872515974 236.43298519041667 -100.55038761593784 235.37480064835833 -100.42448125845678 234.3926823962494 A 2.25 2.25 0 0 0 -101.88 232.127A 253.5 253.5 0 0 1 -102.662 231.782A 2.25 2.25 0 0 0 -105.316 232.236C -105.9563260457357 232.99127494577885 -106.66040151053623 233.7894757069616 -107.43260819292529 234.6257461605623 C -109.30392396628596 236.65224141431716 -111.57334290405038 238.9005330695317 -114.2970036571816 241.29941311912143 A 267 267 0 0 1 -118.628 239.2C -118.43193019861255 235.57579132228798 -118.07272499305947 232.40151198639225 -117.6410339062379 229.6771499431465 C -117.46287248310419 228.55291245079943 -117.27239342144566 227.5057427213112 -117.07594782368596 226.53526974430432 A 2.25 2.25 0 0 0 -118.364 224.17A 253.5 253.5 0 0 1 -119.119 223.77A 2.25 2.25 0 0 0 -121.799 224.031C -122.49224995573748 224.73834993331891 -123.25208643441269 225.48366546446078 -124.08262355193465 226.2620352533851 C -126.09528858796891 228.14821795658347 -128.52102335619932 230.22689265845224 -131.41068195713675 232.42298613562832 A 267 267 0 0 1 -135.579 230.016C -135.12182599847293 226.415917476068 -134.53450828456576 223.2758321930029 -133.9073586654343 220.58972179088934 C -133.64853921344846 219.48127065386723 -133.38299526898214 218.45057519504147 -133.11703460732917 217.496807089875 A 2.25 2.25 0 0 0 -134.231 215.045A 253.5 253.5 0 0 1 -134.955 214.591A 2.25 2.25 0 0 0 -137.647 214.658C -138.38955599277932 215.3137432262306 -139.20119204976092 216.00228779726004 -140.08572956645355 216.71869886184174 C -142.22925076159967 218.45473533123942 -144.79865470241683 220.35295583236785 -147.83924580923085 222.33481332261042 A 267 267 0 0 1 -151.823 219.634C -151.10725916383362 216.0756158748257 -150.2948909441835 212.98609559528495 -149.47555246046352 210.35224097017465 C -149.1374243444055 209.2653551394533 -148.79819994030146 208.25650752016332 -148.46411081049573 207.32441679210874 A 2.25 2.25 0 0 0 -149.398 204.798A 253.5 253.5 0 0 1 -150.088 204.294A 2.25 2.25 0 0 0 -152.778 204.166C -153.56536296420725 204.76659035995363 -154.42456710491084 205.39477421829815 -155.3584934517347 206.04549152297054 C -157.62169547900845 207.62233086826328 -160.3213729099912 209.3302007259028 -163.4970442885537 211.08748974192886 A 267 267 0 0 1 -167.275 208.106C -166.3048890479997 204.60879606317937 -165.27170563434822 201.58594811534167 -164.2644499375107 199.01808096568075 C -163.8487760008122 197.9584269607143 -163.43763969604035 196.97668684531442 -163.03716388410942 196.07113298383632 A 2.25 2.25 0 0 0 -163.787 193.484A 253.5 253.5 0 0 1 -164.438 192.931A 2.25 2.25 0 0 0 -167.112 192.61C -167.94055123941592 193.15187930582218 -168.84284397129417 193.71642739171608 -169.82129008871837 194.298058397758 C -172.19237366069336 195.70747970873273 -175.00824971376406 197.2160948802506 -178.30244488395715 198.73965373081853 A 267 267 0 0 1 -181.856 195.493C -180.6354822458035 192.07524073007752 -179.38687017806842 189.1348248434558 -178.19694863292116 186.64633283954785 C -177.7058960070161 185.6194352056604 -177.22499127589867 184.66992093253143 -176.76021667729125 183.79562507615955 A 2.25 2.25 0 0 0 -177.321 181.162A 253.5 253.5 0 0 1 -177.931 180.563A 2.25 2.25 0 0 0 -180.574 180.05C -181.4401752429665 180.53016378924434 -182.38085242950936 181.02813281037376 -183.39871715253327 181.53764516303582 C -185.86532053736207 182.77230036958974 -188.78271453863178 184.0737956340247 -192.1782590921686 185.35568118875003 A 267 267 0 0 1 -195.488 181.861C -194.02432567989072 178.54029402954092 -192.56679464324102 175.69764017104984 -191.20041094974397 173.30149715794218 C -190.6365397556489 172.31270966390636 -190.08837381277775 171.40037156080916 -189.56172354704367 170.56189188330833 A 2.25 2.25 0 0 0 -189.931 167.894A 253.5 253.5 0 0 1 -190.496 167.253A 2.25 2.25 0 0 0 -193.096 166.55C -193.99385418611496 166.96724759061624 -194.96801157203907 167.3960413670826 -196.01998822530484 167.83077870488052 C -198.56925169506476 168.88423088645632 -201.572953703069 169.97182085013858 -205.05214484290647 171.0053499512981 A 267 267 0 0 1 -208.101 167.281C -206.4016161201111 164.0745209065 -204.7427650064827 161.34444935710704 -203.20704285652906 159.05314771496973 C -202.57329285755736 158.10762544093535 -201.96072358633813 157.23722001629415 -201.37494336410495 156.43892796245663 A 2.25 2.25 0 0 0 -201.551 153.752A 253.5 253.5 0 0 1 -202.068 153.071A 2.25 2.25 0 0 0 -204.61 152.183C -205.53613899965586 152.53384147488032 -206.5386977794209 152.89122447448003 -207.6193018437613 153.24892027823347 C -210.2379347191216 154.11567722294265 -213.3122848224125 154.98369169539484 -216.8569836569379 155.76347600081604 A 267 267 0 0 1 -219.629 151.829C -217.7028241052393 148.75333920384594 -215.851301396231 146.15008329248846 -214.15424733401616 143.9755688071287 C -213.45392260921346 143.07824126842175 -212.78014366218474 142.25430641309174 -212.1382874702939 141.50036390804837 A 2.25 2.25 0 0 0 -212.12 138.807A 253.5 253.5 0 0 1 -212.586 138.092A 2.25 2.25 0 0 0 -215.058 137.022C -216.00685355506351 137.30519453833898 -217.03258685141247 137.58930353159326 -218.13618455759453 137.8680929410075 C -220.8105344992641 138.54363577947987 -223.93950445993755 139.18754933516442 -227.5312305707505 139.7095234105471 A 267 267 0 0 1 -230.013 135.585C -227.86903036970574 132.65662646871937 -225.83448904740087 130.19375836631826 -223.98495072700823 128.14736794938443 C -223.22170244521413 127.30291339629692 -222.4902265938219 126.52974472510232 -221.79564077325546 125.82408247597195 A 2.25 2.25 0 0 0 -221.583 123.139A 253.5 253.5 0 0 1 -221.997 122.392A 2.25 2.25 0 0 0 -224.385 121.147C -225.35140839496296 121.3607018947089 -226.39496850943996 121.57005566887958 -227.51580621002898 121.76848520506343 C -230.231930395732 122.24929196973982 -233.39920721323847 122.66574754153251 -237.01923500349528 122.92719005574027 A 267 267 0 0 1 -239.197 118.635C -236.8472330213661 115.86830350796515 -234.6402802421534 113.55866346840996 -232.6479002999829 111.65106605198372 C -231.8257076843274 110.86388707954268 -231.04034850496117 110.14551553593027 -230.2966543045694 109.4918125389329 A 2.25 2.25 0 0 0 -229.891 106.829A 253.5 253.5 0 0 1 -230.249 106.054A 2.25 2.25 0 0 0 -232.541 104.64C -233.52108533728313 104.7834907457616 -234.57703163065716 104.91699782720849 -235.70926579687037 105.03403297044028 C -238.45300361276557 105.31759695748045 -241.64207457234144 105.50442333886383 -245.27153089334658 105.50397125168489 A 267 267 0 0 1 -247.133 101.066C -244.59062386882462 98.47589686390458 -242.22276566259663 96.33152628091528 -240.0979314451233 94.57266719463982 C -239.22108102719963 93.84686778951541 -238.38593301897117 93.18703863008177 -237.59700771595783 92.5887029899558 A 2.25 2.25 0 0 0 -237 89.9626A 253.5 253.5 0 0 1 -237.302 89.1633A 2.25 2.25 0 0 0 -239.486 87.5874C -240.47329146930048 87.65998699458392 -241.53611872653892 87.7169513392029 -242.67384641369875 87.7519819224373 C -245.43089328126314 87.83682476051312 -248.62513204357958 87.79304792524199 -252.24509459064387 87.53070359364956 A 267 267 0 0 1 -253.782 82.9696C -251.05883245767063 80.57008249147121 -248.54241374071125 78.60216112034699 -246.29620314967042 77.00121024108321 C -245.36926642154447 76.34057438530257 -244.4886836594652 75.74272765376041 -243.65864034505938 75.20287881548256 A 2.25 2.25 0 0 0 -242.874 72.6267A 253.5 253.5 0 0 1 -243.117 71.8077A 2.25 2.25 0 0 0 -245.182 70.0784C -246.17178120736384 70.0794646609373 -247.2359483392746 70.05958928301209 -248.37323796202898 70.01243267300852 C -251.12921991550678 69.89811203084756 -254.3119731987042 69.62396021107077 -257.90356916327994 69.10109137693495 A 267 267 0 0 1 -259.107 64.441C -256.21813654333477 62.244213015767826 -253.56627675764196 60.46300068731946 -251.2104004949792 59.02830463165416 C -250.23821007554645 58.43627657467121 -249.31678351039642 57.90352916705427 -248.4499496460996 57.424981652497955 A 2.25 2.25 0 0 0 -247.481 54.9121A 253.5 253.5 0 0 1 -247.665 54.0777A 2.25 2.25 0 0 0 -249.599 52.2039C -250.58684526458413 52.13358044785664 -251.646804196489 52.036968968404715 -252.7777264533508 51.90787101789254 C -255.51827507895513 51.59498291038845 -258.67294948114403 51.09188540675219 -262.2174539449097 50.31121806606709 A 267 267 0 0 1 -263.082 45.5764C -260.04163790325725 43.593831034705524 -257.2681626178474 42.00861416524829 -254.81490313154097 40.7476527740999 C -253.80252757148926 40.227319076073506 -252.84506109472548 39.762448490683944 -251.94595595093102 39.34769722500536 A 2.25 2.25 0 0 0 -250.798 36.9113A 253.5 253.5 0 0 1 -250.921 36.0658A 2.25 2.25 0 0 0 -252.715 34.0573C -253.69546554130025 33.915895886040076 -254.74569013812734 33.74305199258071 -255.86434892410688 33.53268575849692 C -258.5751762702763 33.02286143936381 -261.68532477985116 32.29344116929981 -265.1642583377655 31.25904536010279 A 267 267 0 0 1 -265.685 26.4743C -262.5094025717659 24.716171004136925 -259.6287714025585 23.335214180415853 -257.0909188516228 22.254561522607442 C -256.043636208356 21.808634962505934 -255.0551216068471 21.414064819324192 -254.12843270145663 21.06527212357787 A 2.25 2.25 0 0 0 -252.808 18.718A 253.5 253.5 0 0 1 -252.87 17.8659A 2.25 2.25 0 0 0 -254.514 15.7332C -255.48143513079214 15.521389547351045 -256.5164500077853 15.27321436791182 -257.6170131539517 14.982676602393795 C -260.2839862221136 14.278574059564665 -263.3333939648559 13.326633882613285 -266.7286190682191 12.043902465691087 A 267 267 0 0 1 -266.902 7.23403C -263.6085647665428 5.709652302427225 -260.6357959906184 4.540155193888613 -258.02658156313714 3.645445291997013 C -256.9498518834278 3.276250724424756 -255.9354428145882 2.954038129477243 -254.98600147446433 2.6730224472752635 A 2.25 2.25 0 0 0 -253.5 0.427195A 253.5 253.5 0 0 1 -253.5 -0.427195A 2.25 2.25 0 0 0 -254.986 -2.67302C -255.9354428145882 -2.954038129477179 -256.9498518834278 -3.276250724424692 -258.02658156313714 -3.645445291996949 C -260.6357959906184 -4.540155193888547 -263.6085647665428 -5.709652302427159 -266.90238028377706 -7.234031759417394 A 267 267 0 0 1 -266.729 -12.0439C -263.3333939648559 -13.32663388261322 -260.2839862221136 -14.278574059564598 -257.6170131539517 -14.982676602393731 C -256.5164500077853 -15.273214367911756 -255.48143513079214 -15.521389547350982 -254.51419130345676 -15.733163130361966 A 2.25 2.25 0 0 0 -252.87 -17.8659A 253.5 253.5 0 0 1 -252.808 -18.718A 2.25 2.25 0 0 0 -254.128 -21.0653C -255.0551216068471 -21.41406481932413 -256.043636208356 -21.80863496250587 -257.0909188516228 -22.25456152260738 C -259.6287714025585 -23.33521418041579 -262.5094025717659 -24.71617100413686 -265.6846360739192 -26.474251092548794 A 267 267 0 0 1 -265.164 -31.259C -261.68532477985116 -32.29344116929975 -258.5751762702763 -33.022861439363744 -255.86434892410688 -33.532685758496854 C -254.74569013812734 -33.74305199258065 -253.69546554130025 -33.915895886040005 -252.7154619882005 -34.05732328045695 A 2.25 2.25 0 0 0 -250.921 -36.0658A 253.5 253.5 0 0 1 -250.798 -36.9113A 2.25 2.25 0 0 0 -251.946 -39.3477C -252.8450610947255 -39.76244849068378 -253.8025275714893 -40.22731907607334 -254.814903131541 -40.747652774099734 C -257.26816261784745 -42.00861416524812 -260.0416379032573 -43.59383103470535 -263.08173519309645 -45.57644593901221 A 267 267 0 0 1 -262.217 -50.3112C -258.6729494811441 -51.09188540675202 -255.5182750789552 -51.594982910388296 -252.77772645335082 -51.907871017892376 C -251.64680419648903 -52.03696896840455 -250.58684526458416 -52.133580447856474 -249.59919127046908 -52.20392431673084 A 2.25 2.25 0 0 0 -247.665 -54.0777A 253.5 253.5 0 0 1 -247.481 -54.9121A 2.25 2.25 0 0 0 -248.45 -57.425C -249.31678351039642 -57.90352916705422 -250.23821007554645 -58.436276574671155 -251.2104004949792 -59.0283046316541 C -253.56627675764196 -60.4630006873194 -256.21813654333477 -62.24421301576777 -259.10724796126476 -64.44102629988036 A 267 267 0 0 1 -257.904 -69.1011C -254.3119731987042 -69.62396021107071 -251.12921991550678 -69.8981120308475 -248.37323796202898 -70.01243267300846 C -247.2359483392746 -70.05958928301203 -246.17178120736384 -70.07946466093725 -245.18162594283947 -70.07835826390847 A 2.25 2.25 0 0 0 -243.117 -71.8077A 253.5 253.5 0 0 1 -242.874 -72.6267A 2.25 2.25 0 0 0 -243.659 -75.2029C -244.48868365946524 -75.74272765376026 -245.36926642154452 -76.34057438530242 -246.29620314967048 -77.00121024108306 C -248.54241374071128 -78.6021611203468 -251.0588324576707 -80.57008249147104 -253.78189551452073 -82.96964098812941 A 267 267 0 0 1 -252.245 -87.5307C -248.62513204357964 -87.79304792524182 -245.43089328126322 -87.83682476051297 -242.6738464136988 -87.75198192243714 C -241.53611872653897 -87.71695133920274 -240.47329146930056 -87.65998699458376 -239.4857971454387 -87.58743609989362 A 2.25 2.25 0 0 0 -237.302 -89.1633A 253.5 253.5 0 0 1 -237 -89.9626A 2.25 2.25 0 0 0 -237.597 -92.5887C -238.38593301897117 -93.18703863008172 -239.22108102719963 -93.84686778951536 -240.0979314451233 -94.57266719463976 C -242.22276566259663 -96.33152628091523 -244.59062386882462 -98.47589686390452 -247.13344177469227 -101.06569038618883 A 267 267 0 0 1 -245.272 -105.504C -241.64207457234144 -105.50442333886377 -238.45300361276557 -105.31759695748039 -235.70926579687037 -105.03403297044022 C -234.57703163065716 -104.91699782720843 -233.52108533728313 -104.78349074576154 -232.5414002922431 -104.63987360018132 A 2.25 2.25 0 0 0 -230.249 -106.054A 253.5 253.5 0 0 1 -229.891 -106.829A 2.25 2.25 0 0 0 -230.297 -109.492C -231.0403485049612 -110.14551553593023 -231.8257076843274 -110.86388707954264 -232.64790029998292 -111.65106605198368 C -234.64028024215344 -113.55866346840992 -236.84723302136612 -115.86830350796511 -239.19654870110614 -118.63483007161756 A 267 267 0 0 1 -237.019 -122.927C -233.3992072132385 -122.66574754153247 -230.23193039573204 -122.24929196973977 -227.515806210029 -121.76848520506339 C -226.39496850944002 -121.57005566887953 -225.351408394963 -121.36070189470885 -224.38464025294024 -121.14676725153569 A 2.25 2.25 0 0 0 -221.997 -122.392A 253.5 253.5 0 0 1 -221.583 -123.139A 2.25 2.25 0 0 0 -221.796 -125.824C -222.49022659382197 -126.52974472510215 -223.22170244521422 -127.30291339629674 -223.9849507270083 -128.14736794938423 C -225.83448904740095 -130.1937583663181 -227.86903036970583 -132.6566264687192 -230.01259557918158 -135.58546268523799 A 267 267 0 0 1 -227.531 -139.71C -223.93950445993764 -139.18754933516425 -220.81053449926418 -138.5436357794797 -218.13618455759462 -137.86809294100735 C -217.03258685141256 -137.5893035315931 -216.0068535550636 -137.3051945383388 -215.05804259750235 -137.0220577537428 A 2.25 2.25 0 0 0 -212.586 -138.092A 253.5 253.5 0 0 1 -212.12 -138.807A 2.25 2.25 0 0 0 -212.138 -141.5C -212.78014366218477 -142.25430641309168 -213.4539226092135 -143.0782412684217 -214.1542473340162 -143.97556880712864 C -215.85130139623104 -146.1500832924884 -217.70282410523933 -148.75333920384588 -219.62946328799626 -151.82921547735444 A 267 267 0 0 1 -216.857 -155.763C -213.31228482241252 -154.98369169539478 -210.23793471912163 -154.1156772229426 -207.61930184376132 -153.2489202782334 C -206.53869777942091 -152.89122447447997 -205.5361389996559 -152.53384147488026 -204.61023188755527 -152.18297869295378 A 2.25 2.25 0 0 0 -202.068 -153.071A 253.5 253.5 0 0 1 -201.551 -153.752A 2.25 2.25 0 0 0 -201.375 -156.439C -201.96072358633825 -157.237220016294 -202.57329285755748 -158.10762544093518 -203.20704285652917 -159.05314771496958 C -204.7427650064828 -161.3444493571069 -206.4016161201112 -164.07452090649986 -208.1012846715535 -167.2814010423492 A 267 267 0 0 1 -205.052 -171.005C -201.57295370306912 -169.97182085013844 -198.56925169506488 -168.88423088645618 -196.01998822530496 -167.83077870488037 C -194.9680115720392 -167.3960413670825 -193.99385418611507 -166.9672475906161 -193.09567817042935 -166.5504880474421 A 2.25 2.25 0 0 0 -190.496 -167.253A 253.5 253.5 0 0 1 -189.931 -167.894A 2.25 2.25 0 0 0 -189.562 -170.562C -190.0883738127778 -171.4003715608091 -190.63653975564895 -172.3127096639063 -191.20041094974403 -173.30149715794212 C -192.56679464324108 -175.69764017104978 -194.02432567989078 -178.54029402954083 -195.48816231519876 -181.86145883960327 A 267 267 0 0 1 -192.178 -185.356C -188.78271453863184 -184.0737956340246 -185.86532053736212 -182.7723003695897 -183.39871715253332 -181.53764516303576 C -182.38085242950942 -181.0281328103737 -181.44017524296655 -180.53016378924428 -180.57441299755376 -180.04968027610616 A 2.25 2.25 0 0 0 -177.931 -180.563A 253.5 253.5 0 0 1 -177.321 -181.162A 2.25 2.25 0 0 0 -176.76 -183.796C -177.22499127589873 -184.66992093253137 -177.70589600701615 -185.61943520566035 -178.19694863292122 -186.6463328395478 C -179.38687017806848 -189.13482484345573 -180.63548224580356 -192.07524073007744 -181.85585519856966 -195.49337519885188 A 267 267 0 0 1 -178.302 -198.74C -175.00824971376412 -197.21609488025052 -172.19237366069342 -195.70747970873268 -169.82129008871843 -194.29805839775796 C -168.84284397129423 -193.71642739171602 -167.94055123941598 -193.15187930582212 -167.11171644774473 -192.61017684127629 A 2.25 2.25 0 0 0 -164.438 -192.931A 253.5 253.5 0 0 1 -163.787 -193.484A 2.25 2.25 0 0 0 -163.037 -196.071C -163.4376396960404 -196.97668684531436 -163.84877600081225 -197.95842696071423 -164.26444993751076 -199.0180809656807 C -165.27170563434825 -201.5859481153416 -166.30488904799975 -204.60879606317928 -167.27543585872473 -208.1060796202645 A 267 267 0 0 1 -163.497 -211.087C -160.32137290999125 -209.33020072590273 -157.62169547900854 -207.62233086826322 -155.35849345173474 -206.04549152297048 C -154.4245671049109 -205.3947742182981 -153.5653629642073 -204.76659035995357 -152.77777678710112 -204.16649312982253 A 2.25 2.25 0 0 0 -150.088 -204.294A 253.5 253.5 0 0 1 -149.398 -204.798A 2.25 2.25 0 0 0 -148.464 -207.324C -148.79819994030154 -208.2565075201633 -149.1374243444056 -209.26535513945325 -149.4755524604636 -210.35224097017462 C -150.29489094418358 -212.98609559528492 -151.1072591638337 -216.07561587482567 -151.82291985084447 -219.63381530312284 A 267 267 0 0 1 -147.839 -222.335C -144.7986547024169 -220.35295583236783 -142.22925076159976 -218.4547353312394 -140.08572956645364 -216.71869886184172 C -139.201192049761 -216.00228779726004 -138.3895559927794 -215.31374322623057 -137.647324539885 -214.65837985960565 A 2.25 2.25 0 0 0 -134.955 -214.591A 253.5 253.5 0 0 1 -134.231 -215.045A 2.25 2.25 0 0 0 -133.117 -217.497C -133.3829952689823 -218.45057519504135 -133.64853921344863 -219.4812706538671 -133.90735866543446 -220.5897217908892 C -134.5345082845659 -223.2758321930028 -135.1218259984731 -226.41591747606788 -135.57886943832418 -230.01648197133193 A 267 267 0 0 1 -131.411 -232.423C -128.5210233561995 -230.22689265845213 -126.09528858796908 -228.14821795658335 -124.08262355193482 -226.26203525338502 C -123.25208643441286 -225.48366546446067 -122.49224995573765 -224.7383499333188 -121.79924287817063 -224.03113719133677 A 2.25 2.25 0 0 0 -119.119 -223.77A 253.5 253.5 0 0 1 -118.364 -224.17A 2.25 2.25 0 0 0 -117.076 -226.535C -117.2723934214456 -227.50574272131124 -117.46287248310414 -228.55291245079945 -117.64103390623784 -229.67714994314653 C -118.07272499305941 -232.40151198639228 -118.43193019861249 -235.575791322288 -118.627973578436 -239.19994920843126 A 267 267 0 0 1 -114.297 -241.299C -111.57334290405032 -238.90053306953172 -109.30392396628591 -236.6522414143172 -107.43260819292523 -234.62574616056233 C -106.66040151053618 -233.78947570696164 -105.95632604573564 -232.99127494577888 -105.31615636151128 -232.2358999082116 A 2.25 2.25 0 0 0 -102.662 -231.782A 253.5 253.5 0 0 1 -101.88 -232.127A 2.25 2.25 0 0 0 -100.424 -234.393C -100.5503876159379 -235.3748006483583 -100.6648087251598 -236.43298519041664 -100.76138326827629 -237.5671477843659 C -100.99536518534974 -240.3155579065278 -101.12458515293191 -243.50748207260213 -101.05860639332057 -247.13633866852143 A 267 267 0 0 1 -96.5874 -248.918C -94.04397070446286 -246.32865672070992 -91.9426992966835 -243.92246966380017 -90.22248895995236 -241.76622706740181 C -89.51263864077877 -240.8764158760466 -88.86799491331413 -240.0294913339962 -88.28400017074443 -239.22989217652372 A 2.25 2.25 0 0 0 -85.6691 -238.586A 253.5 253.5 0 0 1 -84.8645 -238.873A 2.25 2.25 0 0 0 -83.2494 -241.028C -83.30415864783987 -242.01672335180743 -83.34192526594275 -243.08040582221102 -83.35640943409167 -244.2185805191556 C -83.39146230804344 -246.97670978246924 -83.2900233445772 -250.1696375640957 -82.9623664282331 -253.78427369179084 A 267 267 0 0 1 -78.3743 -255.238C -76.0242967873569 -252.47253681475752 -74.10212796571868 -249.92099910131628 -72.54199144579361 -247.64625081275435 C -71.89819832071349 -246.7075379471818 -71.31634720448659 -245.81630509666948 -70.79157208174878 -244.97665055905583 A 2.25 2.25 0 0 0 -68.23 -244.145A 253.5 253.5 0 0 1 -67.4067 -244.374A 2.25 2.25 0 0 0 -65.6404 -246.407C -65.62362036936807 -247.39688292213148 -65.58453559869243 -248.46051777300278 -65.51685387812776 -249.59677065708857 C -65.3527949595038 -252.35023945268793 -65.02122592077475 -255.5275244028533 -64.43359909914281 -259.10909502326075 A 267 267 0 0 1 -59.7526 -260.228C -57.608267388780355 -257.3001420057012 -55.87522245148611 -254.61655617191278 -54.483293577782796 -252.23516167547368 C -53.90891408605098 -251.25244114990716 -53.39288908336385 -250.3215464663427 -52.93006951495816 -249.44621411855675 A 2.25 2.25 0 0 0 -50.4351 -248.432A 253.5 253.5 0 0 1 -49.5975 -248.601A 2.25 2.25 0 0 0 -47.6891 -250.501C -47.600950920382246 -251.48722969853785 -47.485218530824724 -252.54527163026557 -47.33572378269845 -253.67367880508078 C -46.97340839873526 -256.4081318216205 -46.413437932183 -259.5532090477916 -45.568904819418854 -263.08304151009236 A 267 267 0 0 1 -40.8193 -263.862C -38.89189515873437 -260.78630339542997 -37.35700939962514 -257.9846604152351 -36.14054504477804 -255.50903519915215 C -35.63857373510608 -254.4874304633771 -35.19106516138464 -253.52172720060295 -34.792614074238685 -252.6152806201958 A 2.25 2.25 0 0 0 -32.3773 -251.424A 253.5 253.5 0 0 1 -31.5298 -251.532A 2.25 2.25 0 0 0 -29.4892 -253.289C -29.3301121542469 -254.2664385069116 -29.138335520898416 -255.31337137877512 -28.907807141605804 -256.42804985180334 C -28.349124236950367 -259.12923091740504 -27.563671769301052 -262.2257034432083 -26.466635370005537 -265.6853948353831 A 267 267 0 0 1 -21.6732 -266.119C -19.97275859567464 -262.9128457526755 -18.64403419839121 -260.00775209531173 -17.60937644427982 -257.4508029231583 C -17.18243036264562 -256.39564015122727 -16.805771320380725 -255.40016303890027 -16.473766053965694 -254.46732801862478 A 2.25 2.25 0 0 0 -14.1508 -253.105A 253.5 253.5 0 0 1 -13.2976 -253.151A 2.25 2.25 0 0 0 -11.1356 -254.757C -10.906359764234189 -255.7200198393995 -10.639538721661545 -256.7503854281723 -10.329178579429321 -257.84552378199135 C -9.577040868056262 -260.49935018932285 -8.570201384783537 -263.5310744407867 -7.226381138775331 -266.9025875338779 A 267 267 0 0 1 -2.41416 -266.989C -0.9494933174013154 -263.6686822702526 0.16614236429597984 -260.67528374888684 1.0135992912253995 -258.0503413696871 C 1.3632942456435702 -256.96712169171485 1.6671400306122157 -255.94706068655702 1.9309685545675768 -254.99270059627284 A 2.25 2.25 0 0 0 4.1496 -253.466A 253.5 253.5 0 0 1 5.00385 -253.451A 2.25 2.25 0 0 0 7.27614 -254.896C 7.5742533355533626 -255.84039539599416 7.914727705981912 -256.8488218525928 8.303301537080042 -257.91871054291414 C 9.244972757410387 -260.5113464699045 10.46795006144357 -263.46251644057895 12.051548097638797 -266.7282737264509 A 267 267 0 0 1 16.8575 -266.468C 18.078722179379685 -263.0498723665381 18.975452737625844 -259.9837751750097 19.631290589359264 -257.3045248228864 C 19.901911268990382 -256.1988956447042 20.131359685431455 -255.15956887247154 20.325635987165324 -254.18865930378644 A 2.25 2.25 0 0 0 22.4283 -252.506A 253.5 253.5 0 0 1 23.2792 -252.429A 2.25 2.25 0 0 0 25.6499 -253.707C 26.015377785600315 -254.62693759428177 26.42773040816921 -255.60816745009913 26.892492084101534 -256.6472285726884 C 28.01878737567394 -259.1651572160977 29.451526463086743 -262.0203868722533 31.266646142571012 -265.1633622045803 A 267 267 0 0 1 36.0413 -264.557C 37.01268358981455 -261.0596422298389 37.685833886697324 -257.9368315791914 38.146633428352274 -255.21724162489127 C 38.33676894227983 -254.0949671850882 38.49062375239287 -253.04179321432557 38.6143349652249 -252.05939604016467 A 2.25 2.25 0 0 0 40.5901 -250.229A 253.5 253.5 0 0 1 41.4332 -250.091A 2.25 2.25 0 0 0 43.8899 -251.194C 44.320870101927014 -252.08597284136593 44.80295116099625 -253.03489041827845 45.341477629585796 -254.03770678956496 C 46.64652501026515 -256.467800835338 48.28155624286545 -259.2122043316214 50.31873437209549 -262.21601169233105 A 267 267 0 0 1 55.0371 -261.266C 55.75367800621338 -257.7083679985396 56.19973854777756 -254.54512477753198 56.46309738391059 -251.79937390380908 C 56.57175645360454 -250.66630522166088 56.64921552964991 -249.60477481379448 56.70171668059915 -248.6160117981387 A 2.25 2.25 0 0 0 58.5403 -246.648A 253.5 253.5 0 0 1 59.3712 -246.449A 2.25 2.25 0 0 0 61.9012 -247.373C 62.39529392369624 -248.23074855091045 62.94459007184466 -249.14240663205496 63.55407370544128 -250.10375003181892 C 65.03106926246853 -252.43334009482166 66.85986834448768 -255.05260938216057 69.10848401998432 -257.9015883105449 A 267 267 0 0 1 73.7461 -256.614C 74.20399856144228 -253.01352166472188 74.4206437945662 -249.82633755881338 74.4851888941503 -247.06874083934204 C 74.51180502153431 -245.93078521030597 74.51246452775584 -244.8664326933557 74.49348190013114 -243.8764587887359 A 2.25 2.25 0 0 0 76.1853 -241.781A 253.5 253.5 0 0 1 76.9997 -241.523A 2.25 2.25 0 0 0 79.5897 -242.261C 80.14441757420856 -243.0813640772584 80.75806503566356 -243.9510096995303 81.43532826881452 -244.86586812842174 C 83.07657163125727 -247.08280880474962 85.08960405108125 -249.56328822589558 87.53793403190222 -252.2425854650014 A 267 267 0 0 1 92.0705 -250.624C 92.26745382728724 -246.9995799832879 92.25355426403992 -243.80507149462602 92.11894911881257 -241.0500057618353 C 92.06338353972266 -239.91309595964685 91.98724003776032 -238.85147037480266 91.89687259819246 -237.8654468467641 A 2.25 2.25 0 0 0 93.433 -235.653A 253.5 253.5 0 0 1 94.2267 -235.337A 2.25 2.25 0 0 0 96.8632 -235.887C 97.47570534123123 -236.66466592670574 98.1505048422696 -237.4877651605076 98.8920167380744 -238.35136897029062 C 100.68895122299548 -240.44410215778035 102.87572196169364 -242.7728596415825 105.5110017889836 -245.268506576216 A 267 267 0 0 1 109.915 -243.327C 109.84986931201999 -239.69789686149386 109.60549741828822 -236.5127186781664 109.2724437971496 -233.77454756909273 C 109.13498620478633 -232.6446109150304 108.98243667160212 -231.59124708652095 108.82115555407768 -230.6143146051745 A 2.25 2.25 0 0 0 110.194 -228.297A 253.5 253.5 0 0 1 110.963 -227.924A 2.25 2.25 0 0 0 113.632 -228.282C 114.29879991535567 -229.0141077922477 115.03123336383537 -229.78636937929897 115.83312802261594 -230.59421613958898 C 117.77638524565613 -232.55183129641156 120.12549349315024 -234.71672577964767 122.93398403811888 -237.01571126226577 A 267 267 0 0 1 127.186 -234.761C 126.85957844259299 -231.14653989419526 126.38600826027768 -227.98729806039827 125.85624255059264 -225.28029713133282 C 125.63760958519477 -224.1632245919097 125.40944934341881 -223.12361427099157 125.17809539300559 -222.16086610994014 A 2.25 2.25 0 0 0 126.38 -219.751A 253.5 253.5 0 0 1 127.12 -219.324A 2.25 2.25 0 0 0 129.808 -219.488C 130.52599347116927 -220.16957614151428 131.31224229823292 -220.88697386748493 132.17033901254436 -221.63485183933574 C 134.2497877303406 -223.44714286650964 136.74898632394968 -225.436887591768 139.71604541732748 -227.52722577657713 A 267 267 0 0 1 143.795 -224.972C 143.2079004717055 -221.39009189703435 142.50760097645727 -218.27325723684686 141.78388513133555 -215.61153953719514 C 141.48521664394977 -214.51315501138714 141.18263521543633 -213.49271824489662 140.88241460450658 -212.549173727265 A 2.25 2.25 0 0 0 141.907 -210.059A 253.5 253.5 0 0 1 142.614 -209.579A 2.25 2.25 0 0 0 145.307 -209.549C 146.0726849352448 -210.17718226719683 146.9086500035695 -210.83597595252454 147.81847505447303 -211.51998604648534 C 150.02327398427016 -213.17750449775062 152.65953325974576 -214.981725857357 155.76969202927475 -216.85251868896316 A 267 267 0 0 1 159.653 -214.009C 158.80960281815734 -210.47941847228276 157.88622504728065 -207.4212407184166 156.9723321860323 -204.8186832117938 C 156.59518529585756 -203.74471316792696 156.21976020006883 -202.74877004066576 155.85223813987508 -201.82934837067387 A 2.25 2.25 0 0 0 156.695 -199.271A 253.5 253.5 0 0 1 157.365 -198.742A 2.25 2.25 0 0 0 160.049 -198.518C 160.85782105696507 -199.08902188411892 161.73914403176644 -199.6857768835735 162.69595401272827 -200.3023529877356 C 165.01460835380732 -201.79645732937794 167.77418407596988 -203.40574894858256 171.01122759394082 -205.04724297940606 A 267 267 0 0 1 174.68 -201.931C 173.58334543006268 -198.4714028191436 172.44170344769776 -195.48782589436135 171.34239818453617 -192.95799711052942 C 170.8887391608253 -191.9140407311258 170.44242769037544 -190.94778362940198 170.00952027076357 -190.05727824591196 A 2.25 2.25 0 0 0 170.665 -187.445A 253.5 253.5 0 0 1 171.296 -186.869A 2.25 2.25 0 0 0 173.956 -186.451C 174.80431898264035 -186.96290352630137 175.72640505401196 -187.4945086356347 176.72521160082874 -188.04043620768783 C 179.1456329630756 -189.36333687149389 182.0141379818923 -190.769308648954 185.3611898022699 -192.17294588918875 A 267 267 0 0 1 188.795 -188.8C 187.45210485421632 -185.42864917108977 186.09815065303806 -182.53522806397407 184.8191642565875 -180.09131735881033 C 184.29135826742973 -179.08281734904284 183.77648728366742 -178.15128388997312 183.28045148347164 -177.2943374757185 A 2.25 2.25 0 0 0 183.746 -174.642A 253.5 253.5 0 0 1 184.333 -174.021A 2.25 2.25 0 0 0 186.957 -173.413C 187.83946812981515 -173.8620471600341 188.7975099679398 -174.32573083635836 189.83310576575968 -174.7981636627259 C 192.34267519293354 -175.94296365718506 195.30515445145713 -177.13828550706842 198.74476459585512 -178.2967480420783 A 267 267 0 0 1 201.926 -174.685C 200.34357580071398 -171.41915640637944 198.78436827099785 -168.63097607482493 197.33236878411282 -166.28572486712775 C 196.73316756554254 -165.31793907907561 196.15242136737334 -164.42598584678208 195.59584328757347 -163.60706612356984 A 2.25 2.25 0 0 0 195.869 -160.928A 253.5 253.5 0 0 1 196.41 -160.267A 2.25 2.25 0 0 0 198.983 -159.471C 199.89530926657818 -159.8547545842439 200.88431208491969 -160.24809939557286 201.9512980167709 -160.6445744302515 C 204.53693177589918 -161.60530529827616 207.57794027900997 -162.58374536593442 211.0921762127984 -163.4909935084716 A 267 267 0 0 1 214.005 -159.659C 212.19054810925456 -156.5159635333896 210.4342162370915 -153.84756025861736 208.8167737127687 -151.6131956022482 C 208.14930122248782 -150.69116962289075 207.5057075516827 -149.84344684852027 206.8914889326712 -149.066823284598 A 2.25 2.25 0 0 0 206.97 -146.375A 253.5 253.5 0 0 1 207.462 -145.676A 2.25 2.25 0 0 0 209.971 -144.697C 210.9089888195296 -145.01405333654145 211.9237964153369 -145.3350085651617 213.01660971062353 -145.65345877090283 C 215.6648275045275 -146.42511170659995 218.7685108419863 -147.1815688585732 222.3390509662238 -147.83287263691096 A 267 267 0 0 1 224.968 -143.801C 222.9312571517948 -140.79676889904664 220.9869576383215 -138.26205450016485 219.21250467294885 -136.15022533785094 C 218.48024080345797 -135.27876618371343 217.7771550594095 -134.47969350128545 217.10849815266062 -133.74941505231087 A 2.25 2.25 0 0 0 216.993 -131.059A 253.5 253.5 0 0 1 217.433 -130.327A 2.25 2.25 0 0 0 219.865 -129.169C 220.82308656320956 -129.4173159614548 221.85840819957048 -129.66420829541804 222.97135143578274 -129.9029734203028 C 225.66834668310477 -130.4815253825687 228.81852368710693 -131.01205580153336 232.426752858874 -131.40401961934847 A 267 267 0 0 1 234.758 -127.193C 232.50970584472097 -124.34352510562239 230.38757536732024 -121.95571440984307 228.46536313702373 -119.97743084098398 C 227.6721255730739 -119.16108189657922 226.91321331929763 -118.41482530106062 226.193604192311 -117.73469930072152 A 2.25 2.25 0 0 0 225.884 -115.059A 253.5 253.5 0 0 1 226.271 -114.297A 2.25 2.25 0 0 0 228.612 -112.967C 229.58591498256536 -113.14585662580863 230.63635297185897 -113.31739888280562 231.76362377829588 -113.47523411602965 C 234.49533559462213 -113.85766880282341 237.67558270091385 -114.15950654882964 241.3026892840485 -114.29008688826934 A 267 267 0 0 1 243.324 -109.922C 240.87595659171345 -107.24201174781366 238.58705895607187 -105.01355369446253 236.52710898536697 -103.17912957357 C 235.67703330031918 -102.42214690429522 234.86625115390265 -101.73259703203142 234.09944151546156 -101.10616934237083 A 2.25 2.25 0 0 0 233.598 -98.4602A 253.5 253.5 0 0 1 233.928 -97.6723A 2.25 2.25 0 0 0 236.168 -96.1764C 237.15178874772275 -96.28450718430902 238.2118665926634 -96.379805022442 239.34758790130704 -96.45588748418267 C 242.0997744061078 -96.6402110581283 245.29351127884544 -96.71178248893015 248.9205852191038 -96.58029856456798 A 267 267 0 0 1 250.621 -92.0777C 247.98639163525198 -89.58138819765323 245.54266009379998 -87.52390093516436 243.35571200800322 -85.84290010020048 C 242.45323010286376 -85.14923026318316 241.59480510649715 -84.51998210792182 240.784792746996 -83.9505186328551 A 2.25 2.25 0 0 0 240.093 -81.3477A 253.5 253.5 0 0 1 240.366 -80.538A 2.25 2.25 0 0 0 242.492 -78.8843C 243.48126289614146 -78.92117490553362 244.5454538416997 -78.93973148600087 245.6837045275266 -78.93366451753157 C 248.442017094727 -78.91891600086299 251.63259306867093 -78.75984797616037 255.2407244819939 -78.36698528429618 A 267 267 0 0 1 256.612 -73.7534C 253.80394045940636 -71.45372876882867 251.2181154968657 -69.57793908309824 248.9155710306609 -68.0591254940528 C 247.9653880282016 -67.43238496262909 247.0637956123344 -66.86671913288724 246.21480356115083 -66.35718879129135 A 2.25 2.25 0 0 0 245.337 -63.811A 253.5 253.5 0 0 1 245.551 -62.9838A 2.25 2.25 0 0 0 247.552 -61.181C 248.5413384803852 -61.14638416413819 249.60409432772954 -61.088102741521524 250.7389400787147 -60.99991797320663 C 253.48899814378706 -60.78617425786065 256.65977903316036 -60.39729608468017 260.2301567930533 -59.74510282947981 A 267 267 0 0 1 261.265 -55.0446C 258.29827305834124 -52.95354268384525 255.58383596873676 -51.26923007373669 253.17769952281 -49.920522121397745 C 252.18476923723685 -49.36397843049512 251.24470988725574 -48.86484404598544 250.36116439583083 -48.417903293130664 A 2.25 2.25 0 0 0 249.302 -45.9417A 253.5 253.5 0 0 1 249.456 -45.1012A 2.25 2.25 0 0 0 251.321 -43.1588C 252.3056346093545 -43.05280448868194 253.36141464159098 -42.917988915332494 254.48693889746306 -42.74814610172129 C 257.21440493103177 -42.336521548458705 260.3488597524626 -41.719860657530766 263.8628695624985 -40.81173707263798 A 267 267 0 0 1 264.556 -36.0488C 261.4459580629231 -34.17728134669954 258.61706066435823 -32.69322703826474 256.119876720011 -31.521656261395577 C 255.08937583007068 -31.038210972118712 254.11575058014517 -30.6082102884049 253.20225804555793 -30.22618926642698 A 2.25 2.25 0 0 0 251.967 -27.8328A 253.5 253.5 0 0 1 252.06 -26.9834A 2.25 2.25 0 0 0 253.78 -24.9115C 254.75452598603715 -24.734767425615562 255.79782585494175 -24.524120567508316 256.9081606533888 -24.273505190387645 C 259.59881491046946 -23.666145819032216 262.680602067884 -22.824917194705993 266.119923508026 -21.665597815998566 A 267 267 0 0 1 266.467 -16.8651C 263.2305849010294 -15.222835489920117 260.30197575465917 -13.946776655152847 257.72676347269146 -12.958451081304752 C 256.66406453286515 -12.550624653539398 255.66194941422498 -12.19199949508059 254.72327236357089 -11.876889884698675 A 2.25 2.25 0 0 0 253.319 -9.57887A 253.5 253.5 0 0 1 253.35 -8.72503A 2.25 2.25 0 0 0 254.916 -6.53433" stroke="#191919" stroke-width="0.35 px" style="stroke-width:0.35;stroke-miterlimit:4;stroke-dasharray:none;fill:none;fill-rule: evenodd "/>
<title>b'InvoluteGear'</title>
</g>
</svg>