<?xml version="1.0"?>
<!DOCTYPE svg PUBLIC "-//W3C//DTD SVG 1.1//EN" "http://www.w3.org/Graphics/SVG/1.1/DTD/svg11.dtd">
<svg width="881.2660015149878mm" height="881.1630412952505mm" viewBox="0 0 881.2660015149878 881.1630412952505" xmlns="http://www.w3.org/2000/svg" version="1.1">
<g id="InvoluteGear" transform="translate(440.633001,440.581521) scale(1,-1)">
<path id="InvoluteGear_w0000"  d="M 419.9469043496821 -6.67813799789767 C 420.9287674864725 -6.383509933148621 421.94447531636035 -6.065778012656843 422.9931990678089 -5.723217008553739 C 425.76806605629054 -4.816807689819926 428.77353205112496 -3.7368171676215187 431.993137997543 -2.451788677927251 A 432 432 0 0 1 431.993 2.45179C 428.77353205112496 3.7368171676215187 425.76806605629054 4.816807689819926 422.9931990678089 5.723217008553739 C 421.94447531636035 6.065778012656843 420.9287674864725 6.383509933148621 419.94690633826843 6.67813716425465 A 2.25 2.25 0 0 0 418.406 8.89185A 418.5 418.5 0 0 1 418.389 9.62433A 2.25 2.25 0 0 0 419.831 11.9041C 420.79913758007444 12.241826195998947 421.7997969158701 12.6041752855243 422.83234158465376 12.99278956131826 C 425.56439908924574 14.021053364267164 428.51915181844083 15.23292863980461 431.67876538920575 16.659113323839087 A 432 432 0 0 1 431.462 21.5579C 428.1885679595913 22.699247979960898 425.13827203993924 23.64523961665665 422.32602750000586 24.42802011236892 C 421.263177591884 24.723857265528956 420.2344095636787 24.996350041832088 419.24047708665927 25.247257895013124 A 2.25 2.25 0 0 0 417.603 27.3906A 418.5 418.5 0 0 1 417.554 28.1217A 2.25 2.25 0 0 0 418.894 30.4629C 419.8457736011136 30.843198375491042 420.82942560517625 31.249455318691297 421.84376993661755 31.683362135481897 C 424.52766982645716 32.831467547964294 427.4259252227901 34.17285527407918 430.5193613259615 35.73740432896117 A 432 432 0 0 1 430.086 40.6218C 426.765404638519 41.61724394842162 423.67624989155405 42.42738487656207 420.832132900919 43.08500421967303 C 419.75723741473047 43.33353840677015 418.7174230499339 43.56025862147875 417.71336491359807 43.76695593282955 A 2.25 2.25 0 0 0 415.982 45.8358A 418.5 418.5 0 0 1 415.901 46.564A 2.25 2.25 0 0 0 417.136 48.9622C 418.0705418043489 49.38419354576489 419.03526093168824 49.833563075595876 420.02941929912475 50.31191304041297 C 422.6599077141415 51.57761259216884 425.49599230657174 53.04588693939567 428.51719539570973 54.74573768687892 A 432 432 0 0 1 427.868 59.6062C 424.5068279969409 60.45377220750534 421.3848615881471 61.12647653817938 418.5144396393794 61.65764740794305 C 417.42960273351565 61.85839211163484 416.38077751757663 62.03889594928182 415.36855921287685 62.2009780991089 A 2.25 2.25 0 0 0 413.548 64.1912A 418.5 418.5 0 0 1 413.435 64.9151A 2.25 2.25 0 0 0 414.562 67.3656C 415.47691728938753 67.82851683808856 416.4208150570085 68.32011929259322 417.3928413487502 68.84197601291734 C 419.96476898434383 70.2227920376368 422.733131004099 71.81507878999064 425.67618693228076 73.64690369241185 A 432 432 0 0 1 424.813 78.4739C 421.41725930469573 79.17195936858052 418.268592629926 79.70591025147064 415.37748470878563 80.10959285596564 C 414.2848300024337 80.26215510906765 413.2290470599653 80.39608922491435 412.2106500517669 80.51323892979802 A 2.25 2.25 0 0 0 410.304 82.421A 418.5 418.5 0 0 1 410.159 83.1392A 2.25 2.25 0 0 0 411.177 85.6372C 412.06997719801416 86.14006262347094 412.9912058817112 86.67293566775889 413.93919731064557 87.23727758455358 C 416.44752949769156 88.73050707002506 419.1427497461156 90.44368925141428 422.00189734315563 92.40390242550441 A 432 432 0 0 1 420.926 97.188C 417.50274653758487 97.7351637012723 414.33354325971663 98.12931590245088 411.4274088457257 98.40472001402198 C 410.32907526178457 98.5088011687594 409.26840133747635 98.5959033804845 408.2458191857468 98.66789131437612 A 2.25 2.25 0 0 0 406.256 100.489A 418.5 418.5 0 0 1 406.08 101.2A 2.25 2.25 0 0 0 406.986 103.741C 407.8563907754479 104.28298519112602 408.7531470268117 104.85608570118934 409.67524785519885 105.46180808865094 C 412.1150744156497 107.06452796803447 414.7318768725386 108.89525194388791 417.50151922274995 110.98001618030696 A 432 432 0 0 1 416.215 115.712C 412.7709525381756 116.10704686137045 409.58741652145136 116.36062880939426 406.67194450919754 116.50721531156003 C 405.5700820872355 116.56261162418484 404.5065935001035 116.60271142511854 403.48182795742537 116.62939666825696 A 2.25 2.25 0 0 0 401.414 118.361A 418.5 418.5 0 0 1 401.206 119.064A 2.25 2.25 0 0 0 401.999 121.642C 402.8444063149809 122.22176891813494 403.7149346915377 122.83397502281235 404.60933986370424 123.47989215092264 C 406.97588472249345 125.18896502479053 409.5091468741527 127.13364706695454 412.1838622725723 129.33888134180907 A 432 432 0 0 1 410.689 134.009C 407.23114001542723 134.25164502484435 404.03950318109855 134.36416032114195 401.12040074395657 134.3816422639407 C 400.0171664314081 134.38824529356953 398.9529450103032 134.38126418646843 397.92800210334923 134.36259450123703 A 2.25 2.25 0 0 0 395.785 136.001A 418.5 418.5 0 0 1 395.547 136.694A 2.25 2.25 0 0 0 396.225 139.305C 397.0438350115579 139.9212977929459 397.8864314131305 140.57141107003824 398.75139008895053 141.2562585256867 C 401.0400206233839 143.06833880363018 403.4847834901895 145.12317210568486 406.0593360558202 147.44455956932393 A 432 432 0 0 1 404.36 152.044C 400.8941534125028 152.13343928871782 397.7006635395524 152.1046676793129 394.7836449576241 151.9930108410207 C 393.68119838746406 151.95080766191293 392.6183273957939 151.896759312622 391.59521349843595 151.8327712458064 A 2.25 2.25 0 0 0 389.382 153.375A 418.5 418.5 0 0 1 389.113 154.056A 2.25 2.25 0 0 0 389.675 156.695C 390.46603175590025 157.34692415661564 391.2790467604642 158.0336719788537 392.11286574271134 158.75610914098533 C 394.31910185104357 160.667649590765 396.6705796948775 162.8286117200265 399.13992962017096 165.26160814747752 A 432 432 0 0 1 397.238 169.781C 393.77239767826273 169.71742520098925 390.58330617308343 169.54742300765844 387.6740816472263 169.3068459617796 C 386.57458091038666 169.2159191886402 385.5151409680299 169.11490939934131 384.49585887376753 169.00572821058716 A 2.25 2.25 0 0 0 382.217 170.448A 418.5 418.5 0 0 1 381.918 171.117A 2.25 2.25 0 0 0 382.363 173.778C 383.1238729067749 174.46453652722892 383.90571499927967 175.18657455350092 384.7067620481399 175.94518721744524 C 386.82628491958394 177.95244590886455 389.07987461214145 180.21530668048592 391.43918802865807 182.75514936698858 A 432 432 0 0 1 389.34 187.186C 385.87981398399495 186.9691812834905 382.701363642968 186.65828129351053 379.80562811680863 186.28925498090987 C 378.7112255376144 186.1497826071672 377.6572905480097 186.00200910926634 376.6438355494078 185.84784852587777 A 2.25 2.25 0 0 0 374.303 187.188A 418.5 418.5 0 0 1 373.975 187.843A 2.25 2.25 0 0 0 374.302 190.521C 375.03173108491734 191.24062637472636 375.7808697727513 191.99654118168894 376.5475768010094 192.78984432753174 C 378.5762373700115 194.8888919574413 380.7275274036407 197.24922171519805 382.97218584457414 199.89093879942234 A 432 432 0 0 1 380.679 204.225C 377.2318524329171 203.85493641354677 374.0702652218451 203.40374722824785 371.19368723366006 202.9069940352618 C 370.1065251565532 202.7192490846371 369.0601582469355 202.52500115169588 368.05451422974585 202.32616295025423 A 2.25 2.25 0 0 0 365.657 203.562A 418.5 418.5 0 0 1 365.3 204.202A 2.25 2.25 0 0 0 365.508 206.891C 366.20544703795116 207.64235371542537 366.9204158469534 208.43066556434604 367.6512819895969 209.25710626392583 C 369.58510905782714 211.44383384801867 371.62988818126246 213.89701213556881 373.75549762230537 216.63543233226716 A 432 432 0 0 1 371.272 220.864C 367.845441815874 220.3416359325349 364.7069066901911 219.7510407759352 361.85511727647645 219.12753312026655 C 360.777323872276 218.8918831123172 359.7405733550083 218.65154099378617 358.74470891461965 218.4084144094083 A 2.25 2.25 0 0 0 356.295 219.537A 418.5 418.5 0 0 1 355.91 220.16A 2.25 2.25 0 0 0 355.999 222.856C 356.66229863138096 223.6376113978305 357.3416979765329 224.4567771312459 358.0352925287661 225.31473758808352 C 359.87050053892585 227.58486450442496 361.8047660010103 230.1260891100692 363.80716546186306 232.95585183311024 A 432 432 0 0 1 361.14 237.07C 357.738956472435 236.39700635193026 354.6296172620355 235.6681613417831 351.80819893448864 234.91911976894784 C 350.7418840343967 234.6360259996305 349.7167793973024 234.3500601764932 348.73264398512265 234.06312114088522 A 2.25 2.25 0 0 0 346.235 235.082A 418.5 418.5 0 0 1 345.823 235.688A 2.25 2.25 0 0 0 345.793 238.385C 346.42096702635956 239.1950879538903 347.06346695153843 240.0435040164092 347.718432169454 240.9313047326205 C 349.45142861568195 243.28038710116653 351.27139400094023 245.9046834584033 353.1466636906255 248.82024931437087 A 432 432 0 0 1 350.3 252.813C 346.932180322261 251.98961853017576 343.85812370466385 251.12395041481517 341.0725995221551 250.25084120886714 C 340.01985048766267 249.92085784752936 339.00839842120786 249.58982811131355 338.0379185285214 249.25963832111233 A 2.25 2.25 0 0 0 335.498 250.167A 418.5 418.5 0 0 1 335.059 250.754A 2.25 2.25 0 0 0 334.91 253.447C 335.50150011043723 254.2843288926665 336.10584289186755 255.16033447000487 336.7208966502943 256.0762375339967 C 338.34828911066535 258.4996769156978 340.0503917513902 261.2019078411707 341.7948607414276 264.19756947298663 A 432 432 0 0 1 338.774 268.06C 335.44626813715263 267.0889491967027 332.4135117225448 266.0881525621163 329.6693344794696 265.0926848753274 C 328.6322121162489 264.7164578798951 327.63639258535153 264.34101223685457 326.6814679721221 263.9682180540801 A 2.25 2.25 0 0 0 324.104 264.762A 418.5 418.5 0 0 1 323.64 265.329A 2.25 2.25 0 0 0 323.371 268.013C 323.9252732528804 268.87579631642967 324.4902758611877 269.7776765865326 325.0642141635105 270.71988907504635 C 326.582816940861 273.2129414735081 328.1637248912023 275.9878172232836 329.7739783016235 279.05771048262716 A 432 432 0 0 1 326.585 282.783C 323.30370412959127 281.66544070266593 320.3181846810727 280.53147465526337 317.6207262332512 279.4155971623777 C 316.6012607570316 278.993863014862 315.62302312518705 278.57473641747396 314.6855231011883 278.16006760424557 A 2.25 2.25 0 0 0 312.075 278.839A 418.5 418.5 0 0 1 311.586 279.385A 2.25 2.25 0 0 0 311.199 282.055C 311.71494746138325 282.9409267424819 312.2395038774291 283.8669162323683 312.77120321246906 284.83359372021135 C 314.17804357054865 287.39137886828985 315.6346621289542 290.2334674927794 317.10754781309066 293.3715829194332 A 432 432 0 0 1 313.757 296.952C 310.52825793883727 295.6905588814297 307.5958197509286 294.42564321299994 304.95036049994513 293.19154029661144 C 303.95054756227046 292.7251245614107 302.9918067755812 292.26313746967185 302.0735665411352 291.8074057596643 A 2.25 2.25 0 0 0 299.436 292.371A 418.5 418.5 0 0 1 298.923 292.894A 2.25 2.25 0 0 0 298.418 295.544C 298.89442502208 296.4521870175149 299.3775084020469 297.4004730592738 299.8659279433869 298.3897232298685 C 301.1582519261295 301.00723414302263 302.4877296933682 303.91097212027927 303.8203644083265 307.11116670592935 A 432 432 0 0 1 300.315 310.54C 297.1449381007447 309.1368489055389 294.2713215589061 307.74345974790333 291.6830401154754 306.3935472224244 C 290.70483689712245 305.8833629302433 289.76746973570096 305.3794197055805 288.8702867891872 304.88351721501726 A 2.25 2.25 0 0 0 286.21 305.33A 418.5 418.5 0 0 1 285.675 305.83A 2.25 2.25 0 0 0 285.053 308.455C 285.48880270969806 309.38312821505076 285.9294673951841 310.3518544942238 286.37365103863584 311.361740843906 C 287.54892886115744 314.0338536216048 288.74866332206767 316.99355674817826 289.9384383728127 320.249565961642 A 432 432 0 0 1 286.285 323.52C 283.17994309237787 321.9779890308326 280.3707734359353 320.45885400870105 277.84473648252873 318.99577439129223 C 276.89005786223385 318.44282025184094 275.9758992663174 317.89790738678175 275.10152988548555 317.3628048680757 A 2.25 2.25 0 0 0 272.424 317.691A 418.5 418.5 0 0 1 271.867 318.167A 2.25 2.25 0 0 0 271.13 320.762C 271.52432265944265 321.70843741045763 271.92170602863223 322.695707599862 272.3207842638548 323.72425322867775 C 273.3767152646268 326.4457370846764 274.44435788266173 329.45561160270864 275.48894422865976 332.76106165304833 A 432 432 0 0 1 271.694 335.867C 268.6606100472626 334.18884212249526 265.9213863577372 332.54693501401204 263.46253873031395 330.97355235173075 C 262.53325353630805 330.37891079870406 261.64409301427713 329.794094985771 260.7942488182506 329.22083992723094 A 2.25 2.25 0 0 0 258.105 329.43A 418.5 418.5 0 0 1 257.528 329.881A 2.25 2.25 0 0 0 256.677 332.441C 257.0283209967848 333.40398723218834 257.38164515307164 334.4078687040659 257.7348367656789 335.45306018564634 C 258.6693539101807 338.21858768749564 259.60281472477897 341.2727416262738 260.50016753920374 344.6211619397918 A 432 432 0 0 1 256.572 347.556C 253.61536124166338 345.74550486217737 250.95144567806156 343.98403977761154 248.56460068631978 342.30343404090536 C 247.66252803800958 341.6682691130676 246.8001061633411 341.04469515667745 245.97645076204222 340.4344097320006 A 2.25 2.25 0 0 0 243.28 340.524A 418.5 418.5 0 0 1 242.684 340.95A 2.25 2.25 0 0 0 241.721 343.469C 242.0291743257123 344.4468830922432 242.33774762046838 345.46541070147043 242.64436122129268 346.52520202440815 C 243.45563514832892 349.3293595221539 244.25308686611052 352.42181423191954 245.00144953868823 355.80665011861015 A 432 432 0 0 1 240.947 358.565C 238.07364845664287 356.62535453986465 235.49025575877803 354.74777962983757 233.18008576387547 352.9632406833574 C 232.30699151083135 352.28879574588234 231.47299651484428 351.6276843213377 230.67714225240002 350.98156319290194 A 2.25 2.25 0 0 0 227.98 350.952A 418.5 418.5 0 0 1 227.365 351.351A 2.25 2.25 0 0 0 226.291 353.825C 226.5562441801944 354.8155080034011 226.8194625667046 355.846687934353 227.07889794522376 356.91900450736534 C 227.7653405479848 359.75630273102234 228.42522211976384 362.88100458645926 229.02312969541973 366.29563007112216 A 432 432 0 0 1 224.851 368.872C 222.06589532481738 366.8070933388946 219.56808260521183 364.8170840444638 217.33910987339922 362.9321052069995 C 216.49670313862208 362.2197005175241 215.69276760568553 361.52234578148443 214.92627240418804 360.8416537617404 A 2.25 2.25 0 0 0 212.233 360.693A 418.5 418.5 0 0 1 211.601 361.064A 2.25 2.25 0 0 0 210.419 363.489C 210.6398195476005 364.48956489548743 210.8571677635125 365.53137856502474 211.06891706278995 366.61412127806415 C 211.62918459764558 369.47900608311994 212.1502042742572 372.62983833360994 212.5964863208341 376.0675691265079 A 432 432 0 0 1 208.314 378.456C 205.62343777466737 376.2707900274333 203.2160946190171 374.1722418852435 201.0726824690897 372.190513091388 C 200.26261230332227 371.4415432155465 199.49030997499483 370.70931027265544 198.75467428479564 369.9953798481973 A 2.25 2.25 0 0 0 196.071 369.728A 418.5 418.5 0 0 1 195.423 370.07A 2.25 2.25 0 0 0 194.135 372.44C 194.31105757658523 373.45011634784163 194.4821101525597 374.5005243567826 194.64575886339833 375.5915736901426 C 195.0787545803388 378.4784369300561 195.45989244129896 381.6492316735056 195.75367534073328 385.10333825517563 A 432 432 0 0 1 191.37 387.3C 188.778462688986 384.99791897479713 186.4663015845672 382.7949399913846 184.4126458464632 380.720340568314 C 183.6364980000959 379.93627164981007 182.89734069445265 379.17059388043896 182.19400455696086 378.42482260359867 A 2.25 2.25 0 0 0 179.524 378.039A 418.5 418.5 0 0 1 178.862 378.352A 2.25 2.25 0 0 0 177.47 380.663C 177.6019225855062 381.6796216602077 177.726344678093 382.7365677855477 177.84157245045643 383.83378795892247 C 178.14644874003235 386.7369784633343 178.38695869007995 389.92152872013236 178.52766734855 393.3852495147358 A 432 432 0 0 1 174.051 395.386C 171.56394489754433 392.9713964162451 169.3514920082981 390.66829902642195 167.39161280956458 388.5048900999302 C 166.6509066284547 387.6872569904917 165.94634128063228 386.88963324483035 165.27668150936572 386.11348099790393 A 2.25 2.25 0 0 0 162.627 385.61A 418.5 418.5 0 0 1 161.951 385.894A 2.25 2.25 0 0 0 160.459 388.141C 160.54512349077046 389.1619711894788 160.6226715378805 390.22338640954314 160.6892528079932 391.32462956291783 C 160.86541286055072 394.23846420008164 160.9648240901642 397.4305360635539 160.95218306386332 400.89709067497864 A 432 432 0 0 1 156.391 402.698C 154.0135826273139 400.1756138952508 151.9051689336678 397.7769065203111 150.04290282987236 395.5289230649656 C 149.33908828115298 394.6793263198004 148.67049411090622 393.85131798378745 148.03582159631435 393.04630412124624 A 2.25 2.25 0 0 0 145.411 392.426A 418.5 418.5 0 0 1 144.723 392.68A 2.25 2.25 0 0 0 143.133 394.858C 143.17404977759398 395.8825178850797 143.20457197528336 396.94632442973113 143.22237640718245 398.04943482791856 C 143.2694753811462 400.96820962969826 143.22759328817523 404.16155446927206 143.06162732250604 407.62415695407685 A 432 432 0 0 1 138.426 409.222C 136.1617315366044 406.59646881778866 134.161484357375 404.1068470400623 132.4004768218679 401.77868958904236 C 131.73493165556934 400.89879233367606 131.10361746738366 400.0420202725126 130.50517461071814 399.20972064679614 A 2.25 2.25 0 0 0 127.91 398.474A 418.5 418.5 0 0 1 127.212 398.697A 2.25 2.25 0 0 0 125.527 400.803C 125.522706138517 401.8281059612567 125.50614273815047 402.89222137922746 125.47513547882438 403.9950396318211 C 125.39308117574106 406.91304095947635 125.20998774634941 410.1014076526687 124.89102172748348 413.5532798038853 A 432 432 0 0 1 120.189 414.944C 118.04333746225001 412.22139205882394 116.15517237522238 409.64572942985365 114.4988706629514 407.24195546069996 C 113.87289771499069 406.33348013533015 113.28009933603603 405.44962152055984 112.71905761729164 404.5916653972703 A 2.25 2.25 0 0 0 110.159 403.742A 418.5 418.5 0 0 1 109.452 403.934A 2.25 2.25 0 0 0 107.675 405.963C 107.6256459076209 406.9870966501455 107.56202933283247 408.04943788553413 107.48227108044745 409.14980517401597 C 107.2712241254686 412.0613209029185 106.94727777364238 415.2384680722015 106.47593609254031 418.67285268799395 A 432 432 0 0 1 101.717 419.854C 99.69386801149182 417.0393725669659 97.92148118849214 414.382711067301 96.37312758783906 411.9080260804396 C 95.78795222965756 410.9727510681776 95.23483009059856 410.0635360945451 94.71228777528631 409.1816029630833 A 2.25 2.25 0 0 0 92.1924 408.219A 418.5 418.5 0 0 1 91.4776 408.38A 2.25 2.25 0 0 0 89.6125 410.329C 89.5179034207547 411.349390985206 89.40735820397694 412.4078784551566 89.27900508905749 413.50364075888626 C 88.9393786165083 416.4029714602718 88.47521348244373 419.5626796908626 87.8524188125805 422.9728538020666 A 432 432 0 0 1 83.0457 423.943C 81.14924313247192 421.040978919117 79.49610410393757 418.30851908840015 78.05872958978647 415.7677673959041 C 77.51549732962769 414.80752354150707 77.00313419302621 413.8747320400199 76.52011418226692 412.97054832590646 A 2.25 2.25 0 0 0 74.0453 411.897A 418.5 418.5 0 0 1 73.324 412.026A 2.25 2.25 0 0 0 71.3746 413.891C 71.23492543417682 414.9064495704239 71.07766797286278 415.9590112360074 70.9009712526588 417.04802354881826 C 70.43343009730815 419.92949364668596 69.82995480605241 423.0655776613432 69.05692629724075 426.4448656919941 A 432 432 0 0 1 64.212 427.201C 62.44576479924738 424.21837778292723 60.91510966245822 421.4154685395936 59.59152796291969 418.8136237822148 C 59.09130220344311 417.8302908081208 58.62070104419966 416.8757487619471 58.17814887234704 415.9510844472629 A 2.25 2.25 0 0 0 55.7532 414.77A 418.5 418.5 0 0 1 55.027 414.867A 2.25 2.25 0 0 0 52.9969 416.643C 52.81250173586568 417.651309296579 52.608839868880715 418.6958847189066 52.38414543551971 419.77601524805624 C 51.78960483113494 422.63398412937573 51.048000713909886 425.7403048963699 50.12625160575723 429.08209173145616 A 432 432 0 0 1 45.2526 429.623C 43.62004594897189 426.56534925091006 42.21487103323784 423.6974774214281 41.00767312164422 421.039632832462 C 40.55143307826463 420.03513565914517 40.12351512024787 419.0607116291656 39.7222971039606 418.117376787729 A 2.25 2.25 0 0 0 37.352 416.83A 418.5 418.5 0 0 1 36.6222 416.895A 2.25 2.25 0 0 0 34.5156 418.579C 34.2866950853288 419.57859697185836 34.0370274903415 420.6131413454877 33.76477519372845 421.6822756847423 C 33.044398981462294 424.51114874121794 32.16611776315316 427.58162549177473 31.09745242282413 430.87936942663623 A 432 432 0 0 1 26.2047 431.205C 24.708938810351732 428.0772990162029 23.431994811557416 425.1500785943543 22.34354383451071 422.4414370293962 C 21.9321826185381 421.4177420072446 21.54778553124591 420.4253434742569 21.188687073632085 419.4651847283189 A 2.25 2.25 0 0 0 18.8776 418.074A 418.5 418.5 0 0 1 18.1457 418.106A 2.25 2.25 0 0 0 15.9666 419.696C 15.693770619057283 420.6845398401323 15.398586032109247 421.7070279958696 15.079308818899735 422.76307326455355 C 14.23450716901662 425.55731284433324 13.221268126352378 428.5859349760237 12.007778516435245 431.83318052204567 A 432 432 0 0 1 7.1054 431.942C 5.749462763677143 428.75126736613896 4.6032493596655675 425.7704285233619 3.635676011067071 423.01629227547323 C 3.2699988813992364 421.97540333556543 2.9298751401812906 420.966972966301 2.6135991933349763 419.991869871696 A 2.25 2.25 0 0 0 0.366334 418.5A 418.5 418.5 0 0 1 -0.366334 418.5A 2.25 2.25 0 0 0 -2.6136 419.992C -2.929875140181239 420.966972966301 -3.269998881399183 421.97540333556543 -3.6356760110670177 423.01629227547323 C -4.603249359665514 425.7704285233619 -5.74946276367709 428.75126736613896 -7.105401180285381 431.94165788767424 A 432 432 0 0 1 -12.0078 431.833C -13.221268126352324 428.5859349760237 -14.234507169016567 425.55731284433324 -15.079308818899682 422.76307326455355 C -15.398586032109193 421.7070279958696 -15.693770619057233 420.6845398401323 -15.96660493011775 419.6964012069588 A 2.25 2.25 0 0 0 -18.1457 418.106A 418.5 418.5 0 0 1 -18.8776 418.074A 2.25 2.25 0 0 0 -21.1887 419.465C -21.547785531245864 420.4253434742569 -21.93218261853805 421.4177420072446 -22.34354383451067 422.4414370293962 C -23.431994811557374 425.1500785943543 -24.70893881035169 428.0772990162029 -26.204671720525685 431.2045891739847 A 432 432 0 0 1 -31.0975 430.879C -32.16611776315311 427.58162549177473 -33.044398981462244 424.51114874121794 -33.7647751937284 421.6822756847423 C -34.03702749034145 420.6131413454877 -34.28669508532875 419.57859697185836 -34.515553674627256 418.57935712789384 A 2.25 2.25 0 0 0 -36.6222 416.895A 418.5 418.5 0 0 1 -37.352 416.83A 2.25 2.25 0 0 0 -39.7223 418.117C -40.12351512024783 419.0607116291656 -40.55143307826458 420.03513565914517 -41.007673121644174 421.039632832462 C -42.2148710332378 423.6974774214281 -43.62004594897185 426.56534925091006 -45.25264538530019 429.6234172275968 A 432 432 0 0 1 -50.1263 429.082C -51.04800071390984 425.7403048963699 -51.789604831134895 422.63398412937573 -52.38414543551967 419.77601524805624 C -52.608839868880665 418.6958847189066 -52.81250173586564 417.651309296579 -52.99693660196637 416.6429243007424 A 2.25 2.25 0 0 0 -55.027 414.867A 418.5 418.5 0 0 1 -55.7532 414.77A 2.25 2.25 0 0 0 -58.1781 415.951C -58.62070104419962 416.87574876194714 -59.091302203443064 417.8302908081208 -59.59152796291965 418.81362378221485 C -60.91510966245817 421.41546853959363 -62.445764799247335 424.2183777829273 -64.21203487166645 427.2012372668475 A 432 432 0 0 1 -69.0569 426.445C -69.82995480605237 423.06557766134324 -70.4334300973081 419.929493646686 -70.90097125265876 417.0480235488183 C -71.07766797286274 415.9590112360074 -71.23492543417677 414.90644957042394 -71.37457553716827 413.89089338369854 A 2.25 2.25 0 0 0 -73.324 412.026A 418.5 418.5 0 0 1 -74.0453 411.897A 2.25 2.25 0 0 0 -76.5201 412.971C -77.00313419302609 413.8747320400199 -77.51549732962755 414.80752354150707 -78.05872958978632 415.7677673959041 C -79.49610410393744 418.30851908840015 -81.14924313247178 421.040978919117 -83.04572628437079 423.94279082275574 A 432 432 0 0 1 -87.8524 422.973C -88.47521348244359 419.5626796908626 -88.93937861650817 416.4029714602718 -89.27900508905735 413.50364075888626 C -89.4073582039768 412.4078784551566 -89.51790342075458 411.349390985206 -89.61249538900225 410.3286516065178 A 2.25 2.25 0 0 0 -91.4776 408.38A 418.5 418.5 0 0 1 -92.1924 408.219A 2.25 2.25 0 0 0 -94.7123 409.182C -95.23483009059854 410.0635360945451 -95.7879522296575 410.9727510681776 -96.37312758783901 411.9080260804396 C -97.9214811884921 414.382711067301 -99.69386801149177 417.0393725669659 -101.71685178804186 419.8544564572525 A 432 432 0 0 1 -106.476 418.673C -106.94727777364234 415.2384680722015 -107.27122412546856 412.0613209029185 -107.48227108044739 409.14980517401597 C -107.56202933283241 408.04943788553413 -107.62564590762085 406.9870966501455 -107.67499457290482 405.9631722247622 A 2.25 2.25 0 0 0 -109.452 403.934A 418.5 418.5 0 0 1 -110.159 403.742A 2.25 2.25 0 0 0 -112.719 404.592C -113.28009933603599 405.44962152055984 -113.87289771499063 406.33348013533015 -114.49887066295135 407.24195546069996 C -116.15517237522234 409.64572942985365 -118.04333746224995 412.22139205882394 -120.18886177770912 414.9442372768468 A 432 432 0 0 1 -124.891 413.553C -125.20998774634936 410.1014076526687 -125.39308117574102 406.91304095947635 -125.47513547882433 403.9950396318211 C -125.50614273815042 402.89222137922746 -125.52270613851695 401.8281059612567 -125.5267148985075 400.8030008693246 A 2.25 2.25 0 0 0 -127.212 398.697A 418.5 418.5 0 0 1 -127.91 398.474A 2.25 2.25 0 0 0 -130.505 399.21C -131.1036174673836 400.0420202725126 -131.7349316555693 400.89879233367606 -132.40047682186787 401.77868958904236 C -134.16148435737497 404.1068470400623 -136.16173153660435 406.59646881778866 -138.42559642637113 409.22174526616845 A 432 432 0 0 1 -143.062 407.624C -143.22759328817517 404.16155446927206 -143.26947538114618 400.96820962969826 -143.22237640718242 398.04943482791856 C -143.20457197528333 396.94632442973113 -143.17404977759392 395.8825178850797 -143.13271078495512 394.8582388179553 A 2.25 2.25 0 0 0 -144.723 392.68A 418.5 418.5 0 0 1 -145.411 392.426A 2.25 2.25 0 0 0 -148.036 393.046C -148.67049411090616 393.8513179837875 -149.33908828115293 394.6793263198004 -150.0429028298723 395.5289230649657 C -151.90516893366777 397.7769065203112 -154.01358262731384 400.1756138952509 -156.39135646955532 402.69818247205677 A 432 432 0 0 1 -160.952 400.897C -160.96482409016414 397.430536063554 -160.8654128605507 394.2384642000817 -160.68925280799314 391.3246295629179 C -160.62267153788045 390.22338640954314 -160.5451234907704 389.16197118947883 -160.45851766852164 388.140523221536 A 2.25 2.25 0 0 0 -161.951 385.894A 418.5 418.5 0 0 1 -162.627 385.61A 2.25 2.25 0 0 0 -165.277 386.113C -165.94634128063223 386.8896332448304 -166.65090662845463 387.68725699049173 -167.39161280956452 388.50489009993026 C -169.35149200829804 390.668299026422 -171.5639448975443 392.97139641624517 -174.05097308830383 395.38631907502815 A 432 432 0 0 1 -178.528 393.385C -178.38695869007992 389.9215287201324 -178.1464487400323 386.73697846333437 -177.84157245045637 383.8337879589225 C -177.72634467809294 382.7365677855478 -177.60192258550614 381.6796216602078 -177.47021946861145 380.66300432381115 A 2.25 2.25 0 0 0 -178.862 378.352A 418.5 418.5 0 0 1 -179.524 378.039A 2.25 2.25 0 0 0 -182.194 378.425C -182.89734069445262 379.17059388043896 -183.63649800009586 379.93627164981007 -184.41264584646314 380.720340568314 C -186.46630158456716 382.7949399913846 -188.77846268898597 384.99791897479713 -191.36987675378927 387.3004683910477 A 432 432 0 0 1 -195.754 385.103C -195.45989244129893 381.6492316735056 -195.07875458033877 378.4784369300561 -194.64575886339827 375.5915736901426 C -194.48211015255964 374.5005243567826 -194.3110575765852 373.45011634784163 -194.1345149800807 372.4403197191677 A 2.25 2.25 0 0 0 -195.423 370.07A 418.5 418.5 0 0 1 -196.071 369.728A 2.25 2.25 0 0 0 -198.755 369.995C -199.49030997499474 370.7093102726555 -200.26261230332216 371.4415432155466 -201.07268246908959 372.1905130913881 C -203.216094619017 374.1722418852435 -205.62343777466728 376.27079002743335 -208.3141648987895 378.4564588525414 A 432 432 0 0 1 -212.596 376.068C -212.1502042742571 372.62983833361 -211.6291845976455 369.47900608311994 -211.06891706278984 366.6141212780642 C -210.8571677635124 365.5313785650248 -210.6398195476004 364.4895648954875 -210.4187830619092 363.48856569885686 A 2.25 2.25 0 0 0 -211.601 361.064A 418.5 418.5 0 0 1 -212.233 360.693A 2.25 2.25 0 0 0 -214.926 360.842C -215.69276760568553 361.52234578148443 -216.49670313862208 362.2197005175241 -217.33910987339922 362.9321052069995 C -219.56808260521183 364.8170840444638 -222.06589532481738 366.8070933388946 -224.85066828355642 368.8716030234959 A 432 432 0 0 1 -229.023 366.296C -228.42522211976384 362.88100458645926 -227.7653405479848 359.75630273102234 -227.07889794522376 356.91900450736534 C -226.8194625667046 355.846687934353 -226.5562441801944 354.8155080034011 -226.2911464946171 353.82526574174824 A 2.25 2.25 0 0 0 -227.365 351.351A 418.5 418.5 0 0 1 -227.98 350.952A 2.25 2.25 0 0 0 -230.677 350.982C -231.47299651484423 351.62768432133777 -232.3069915108313 352.2887957458824 -233.1800857638754 352.96324068335747 C -235.490255758778 354.7477796298376 -238.07364845664281 356.62535453986465 -240.9470159261588 358.56466370930195 A 432 432 0 0 1 -245.001 355.807C -244.25308686611046 352.42181423191954 -243.4556351483289 349.32935952215394 -242.64436122129263 346.5252020244082 C -242.33774762046832 345.4654107014705 -242.02917432571223 344.44688309224324 -241.72053438141742 343.46933621129705 A 2.25 2.25 0 0 0 -242.684 340.95A 418.5 418.5 0 0 1 -243.28 340.524A 2.25 2.25 0 0 0 -245.976 340.434C -246.800106163341 341.04469515667745 -247.6625280380095 341.66826911306765 -248.5646006863197 342.30343404090536 C -250.95144567806148 343.98403977761154 -253.61536124166327 345.7455048621774 -256.57169847020117 347.5558172276816 A 432 432 0 0 1 -260.5 344.621C -259.60281472477885 341.27274162627384 -258.66935391018063 338.21858768749564 -257.73483676567884 335.45306018564645 C -257.3816451530716 334.40786870406595 -257.0283209967847 333.40398723218834 -256.67674297095704 332.4410493258741 A 2.25 2.25 0 0 0 -257.528 329.881A 418.5 418.5 0 0 1 -258.105 329.43A 2.25 2.25 0 0 0 -260.794 329.221C -261.644093014277 329.7940949857711 -262.53325353630794 330.3789107987041 -263.4625387303138 330.97355235173086 C -265.9213863577371 332.5469350140121 -268.6606100472624 334.1888421224953 -271.6941298658675 335.86661391259855 A 432 432 0 0 1 -275.489 332.761C -274.44435788266156 329.4556116027087 -273.3767152646267 326.44573708467647 -272.32078426385465 323.72425322867787 C -271.9217060286321 322.69570759986203 -271.52432265944253 321.70843741045775 -271.1304947825776 320.7619934749465 A 2.25 2.25 0 0 0 -271.867 318.167A 418.5 418.5 0 0 1 -272.424 317.691A 2.25 2.25 0 0 0 -275.102 317.363C -275.97589926631736 317.8979073867818 -276.8900578622338 318.442820251841 -277.8447364825287 318.9957743912923 C -280.37077343593523 320.45885400870105 -283.1799430923778 321.97798903083265 -286.2847072435511 323.51993592846753 A 432 432 0 0 1 -289.938 320.25C -288.7486633220676 316.9935567481783 -287.5489288611574 314.0338536216048 -286.3736510386358 311.36174084390603 C -285.929467395184 310.35185449422386 -285.488802709698 309.3831282150508 -285.05349591835915 308.4550309587915 A 2.25 2.25 0 0 0 -285.675 305.83A 418.5 418.5 0 0 1 -286.21 305.33A 2.25 2.25 0 0 0 -288.87 304.884C -289.7674697357009 305.3794197055806 -290.7048368971224 305.8833629302433 -291.68304011547536 306.39354722242444 C -294.27132155890604 307.7434597479034 -297.14493810074464 309.1368489055389 -300.3148688628602 310.5399524772434 A 432 432 0 0 1 -303.82 307.111C -302.4877296933681 303.91097212027927 -301.1582519261294 301.0072341430227 -299.86592794338685 298.38972322986854 C -299.37750840204683 297.4004730592738 -298.89442502207993 296.452187017515 -298.41849144975316 295.5442532344702 A 2.25 2.25 0 0 0 -298.923 292.894A 418.5 418.5 0 0 1 -299.436 292.371A 2.25 2.25 0 0 0 -302.074 291.807C -302.99180677558115 292.2631374696719 -303.9505475622704 292.72512456141084 -304.9503604999451 293.19154029661155 C -307.59581975092857 294.42564321300006 -310.5282579388372 295.6905588814298 -313.75715002356816 296.9520724860724 A 432 432 0 0 1 -317.108 293.372C -315.6346621289541 290.23346749277954 -314.1780435705486 287.39137886828996 -312.771203212469 284.83359372021147 C -312.23950387742906 283.8669162323684 -311.7149474613832 282.9409267424821 -311.19931877038607 282.0549337556687 A 2.25 2.25 0 0 0 -311.586 279.385A 418.5 418.5 0 0 1 -312.075 278.839A 2.25 2.25 0 0 0 -314.686 278.16C -315.623023125187 278.574736417474 -316.6012607570315 278.99386301486203 -317.62072623325116 279.41559716237776 C -320.31818468107264 280.5314746552635 -323.3037041295912 281.665440702666 -326.5852368290527 282.782894868125 A 432 432 0 0 1 -329.774 279.058C -328.16372489120226 275.9878172232837 -326.58281694086094 273.21294147350824 -325.0642141635104 270.7198890750464 C -324.4902758611876 269.77767658653266 -323.92527325288034 268.87579631642984 -323.37095881058957 268.0134784987259 A 2.25 2.25 0 0 0 -323.64 265.329A 418.5 418.5 0 0 1 -324.104 264.762A 2.25 2.25 0 0 0 -326.681 263.968C -327.63639258535153 264.34101223685457 -328.6322121162489 264.7164578798951 -329.6693344794696 265.0926848753274 C -332.4135117225448 266.0881525621163 -335.44626813715263 267.0889491967027 -338.77401769698446 268.0601564539735 A 432 432 0 0 1 -341.795 264.198C -340.0503917513902 261.2019078411707 -338.34828911066535 258.4996769156978 -336.7208966502943 256.0762375339967 C -336.10584289186755 255.16033447000487 -335.50150011043723 254.2843288926665 -334.9095850134042 253.44737427169457 A 2.25 2.25 0 0 0 -335.059 250.754A 418.5 418.5 0 0 1 -335.498 250.167A 2.25 2.25 0 0 0 -338.038 249.26C -339.0083984212078 249.5898281113136 -340.0198504876626 249.92085784752942 -341.07259952215503 250.25084120886717 C -343.8581237046638 251.12395041481523 -346.93218032226093 251.9896185301758 -350.2996325164285 252.81267769544422 A 432 432 0 0 1 -353.147 248.82C -351.2713940009402 245.90468345840333 -349.4514286156819 243.28038710116658 -347.71843216945393 240.93130473262053 C -347.0634669515384 240.04350401640926 -346.4209670263595 239.19508795389035 -345.79260997618303 238.38513490762452 A 2.25 2.25 0 0 0 -345.823 235.688A 418.5 418.5 0 0 1 -346.235 235.082A 2.25 2.25 0 0 0 -348.733 234.063C -349.71677939730233 234.35006017649323 -350.74188403439666 234.63602599963056 -351.8081989344886 234.9191197689479 C -354.6296172620354 235.66816134178313 -357.73895647243495 236.3970063519303 -361.13951935513245 237.0703062482295 A 432 432 0 0 1 -363.807 232.956C -361.80476600101025 230.12608911006922 -359.8705005389258 227.58486450442498 -358.03529252876604 225.31473758808352 C -357.3416979765328 224.45677713124596 -356.6622986313809 223.63761139783054 -355.9987296664944 222.85624544739423 A 2.25 2.25 0 0 0 -355.91 220.16A 418.5 418.5 0 0 1 -356.295 219.537A 2.25 2.25 0 0 0 -358.745 218.408C -359.7405733550083 218.6515409937861 -360.77732387227604 218.89188311231717 -361.85511727647645 219.1275331202665 C -364.70690669019115 219.75104077593514 -367.84544181587404 220.34163593253484 -371.27245862556794 220.86385854369968 A 432 432 0 0 1 -373.755 216.635C -371.6298881812625 213.89701213556876 -369.5851090578272 211.4438338480186 -367.6512819895969 209.25710626392578 C -366.92041584695346 208.43066556434601 -366.20544703795116 207.64235371542532 -365.50796512576454 206.8911044213595 A 2.25 2.25 0 0 0 -365.3 204.202A 418.5 418.5 0 0 1 -365.657 203.562A 2.25 2.25 0 0 0 -368.055 202.326C -369.0601582469355 202.5250011516959 -370.1065251565532 202.71924908463714 -371.19368723366006 202.90699403526182 C -374.0702652218451 203.40374722824788 -377.2318524329171 203.8549364135468 -380.6786146232695 204.22505946429223 A 432 432 0 0 1 -382.972 199.891C -380.7275274036407 197.24922171519808 -378.5762373700115 194.88889195744133 -376.5475768010094 192.78984432753177 C -375.7808697727513 191.99654118168897 -375.03173108491734 191.2406263747264 -374.30170157902757 190.52096434280296 A 2.25 2.25 0 0 0 -373.975 187.843A 418.5 418.5 0 0 1 -374.303 187.188A 2.25 2.25 0 0 0 -376.644 185.848C -377.65729054800966 186.00200910926645 -378.7112255376143 186.1497826071673 -379.80562811680863 186.28925498090996 C -382.7013636429679 186.6582812935106 -385.8798139839949 186.96918128349063 -389.3395743561582 187.18648024056387 A 432 432 0 0 1 -391.439 182.755C -389.0798746121414 180.21530668048604 -386.8262849195839 177.95244590886463 -384.7067620481399 175.94518721744532 C -383.9057149992796 175.18657455350103 -383.12387290677486 174.46453652722903 -382.362724874222 173.7778705296708 A 2.25 2.25 0 0 0 -381.918 171.117A 418.5 418.5 0 0 1 -382.217 170.448A 2.25 2.25 0 0 0 -384.496 169.006C -385.51514096802987 169.11490939934143 -386.5745809103866 169.21591918864033 -387.6740816472262 169.30684596177971 C -390.5833061730834 169.54742300765855 -393.7723976782627 169.71742520098937 -397.23838358883773 169.7814746914776 A 432 432 0 0 1 -399.14 165.262C -396.67057969487746 162.8286117200266 -394.3191018510435 160.6676495907651 -392.1128657427113 158.75610914098544 C -391.27904676046415 158.03367197885382 -390.4660317559002 157.34692415661576 -389.67525517970137 156.6945983743588 A 2.25 2.25 0 0 0 -389.113 154.056A 418.5 418.5 0 0 1 -389.382 153.375A 2.25 2.25 0 0 0 -391.595 151.833C -392.6183273957939 151.896759312622 -393.68119838746406 151.95080766191293 -394.7836449576241 151.9930108410207 C -397.7006635395524 152.1046676793129 -400.8941534125028 152.13343928871782 -404.35958003130673 152.04411393273557 A 432 432 0 0 1 -406.059 147.445C -403.4847834901895 145.12317210568486 -401.0400206233839 143.06833880363018 -398.75139008895053 141.2562585256867 C -397.8864314131305 140.57141107003824 -397.0438350115579 139.9212977929459 -396.224977873996 139.3045891843423 A 2.25 2.25 0 0 0 -395.547 136.694A 418.5 418.5 0 0 1 -395.785 136.001A 2.25 2.25 0 0 0 -397.928 134.363C -398.9529450103032 134.38126418646846 -400.0171664314081 134.38824529356955 -401.12040074395657 134.38164226394076 C -404.03950318109855 134.364160321142 -407.23114001542723 134.2516450248444 -410.6892236071172 134.00911968097077 A 432 432 0 0 1 -412.184 129.339C -409.5091468741527 127.1336470669546 -406.97588472249345 125.18896502479059 -404.60933986370424 123.4798921509227 C -403.7149346915377 122.83397502281238 -402.8444063149809 122.22176891813497 -401.99907156735634 121.64188471924669 A 2.25 2.25 0 0 0 -401.206 119.064A 418.5 418.5 0 0 1 -401.414 118.361A 2.25 2.25 0 0 0 -403.482 116.629C -404.50659350010346 116.60271142511864 -405.57008208723545 116.56261162418494 -406.6719445091975 116.50721531156013 C -409.5874165214513 116.36062880939436 -412.7709525381756 116.10704686137053 -416.214923741729 115.71179628435516 A 432 432 0 0 1 -417.502 110.98C -414.7318768725386 108.895251943888 -412.11507441564964 107.06452796803457 -409.6752478551988 105.46180808865104 C -408.75314702681163 104.85608570118944 -407.85639077544784 104.28298519112612 -406.98623320022597 103.74106055250388 A 2.25 2.25 0 0 0 -406.08 101.2A 418.5 418.5 0 0 1 -406.256 100.489A 2.25 2.25 0 0 0 -408.246 98.6679C -409.26840133747635 98.59590338048447 -410.32907526178457 98.50880116875939 -411.4274088457257 98.40472001402195 C -414.33354325971663 98.12931590245086 -417.50274653758487 97.73516370127228 -420.92586361764177 97.18796161268067 A 432 432 0 0 1 -422.002 92.4039C -419.1427497461156 90.44368925141427 -416.44752949769156 88.73050707002503 -413.93919731064557 87.23727758455355 C -412.9912058817112 86.67293566775888 -412.06997719801416 86.14006262347091 -411.1767001695112 85.63715838804363 A 2.25 2.25 0 0 0 -410.159 83.1392A 418.5 418.5 0 0 1 -410.304 82.421A 2.25 2.25 0 0 0 -412.211 80.5132C -413.2290470599653 80.39608922491436 -414.2848300024337 80.26215510906768 -415.37748470878563 80.10959285596567 C -418.268592629926 79.70591025147067 -421.41725930469573 79.17195936858053 -424.8128213488221 78.47387694219773 A 432 432 0 0 1 -425.676 73.6469C -422.733131004099 71.81507878999065 -419.96476898434383 70.22279203763682 -417.3928413487502 68.84197601291737 C -416.4208150570085 68.32011929259325 -415.47691728938753 67.82851683808858 -414.562269439335 67.36561746451353 A 2.25 2.25 0 0 0 -413.435 64.9151A 418.5 418.5 0 0 1 -413.548 64.1912A 2.25 2.25 0 0 0 -415.369 62.201C -416.38077751757663 62.038895949281894 -417.42960273351565 61.85839211163491 -418.5144396393794 61.657647407943124 C -421.3848615881471 61.12647653817945 -424.5068279969409 60.45377220750541 -427.8681880329796 59.60617597246303 A 432 432 0 0 1 -428.517 54.7457C -425.49599230657174 53.04588693939574 -422.6599077141415 51.57761259216891 -420.02941929912475 50.31191304041304 C -419.03526093168824 49.83356307559595 -418.0705418043489 49.38419354576496 -417.13631359886534 48.96220518130367 A 2.25 2.25 0 0 0 -415.901 46.564A 418.5 418.5 0 0 1 -415.982 45.8358A 2.25 2.25 0 0 0 -417.713 43.767C -418.7174230499339 43.56025862147888 -419.75723741473047 43.33353840677028 -420.832132900919 43.085004219673166 C -423.67624989155405 42.42738487656221 -426.765404638519 41.61724394842176 -430.0859826463499 40.62179311415308 A 432 432 0 0 1 -430.519 35.7374C -427.4259252227901 34.172855274079325 -424.52766982645716 32.83146754796443 -421.84376993661755 31.68336213548203 C -420.82942560517625 31.249455318691425 -419.8457736011136 30.84319837549117 -418.8937938357825 30.462947082183682 A 2.25 2.25 0 0 0 -417.554 28.1217A 418.5 418.5 0 0 1 -417.603 27.3906A 2.25 2.25 0 0 0 -419.24 25.2473C -420.2344095636787 24.996350041832088 -421.263177591884 24.723857265528956 -422.32602750000586 24.42802011236892 C -425.13827203993924 23.64523961665665 -428.1885679595913 22.699247979960898 -431.46186375182947 21.557891188220417 A 432 432 0 0 1 -431.679 16.6591C -428.51915181844083 15.23292863980461 -425.56439908924574 14.021053364267164 -422.83234158465376 12.99278956131826 C -421.7997969158701 12.6041752855243 -420.79913758007444 12.241826195998947 -419.8312697999915 11.904056333608526 A 2.25 2.25 0 0 0 -418.389 9.62433A 418.5 418.5 0 0 1 -418.406 8.89185A 2.25 2.25 0 0 0 -419.947 6.67814C -420.9287674864725 6.383509933148672 -421.94447531636035 6.065778012656894 -422.9931990678089 5.723217008553791 C -425.76806605629054 4.816807689819979 -428.77353205112496 3.736817167621571 -431.993137997543 2.4517886779273037 A 432 432 0 0 1 -431.993 -2.45179C -428.77353205112496 -3.7368171676214663 -425.76806605629054 -4.816807689819874 -422.9931990678089 -5.7232170085536875 C -421.94447531636035 -6.065778012656791 -420.9287674864725 -6.383509933148569 -419.94690633826843 -6.678137164254599 A 2.25 2.25 0 0 0 -418.406 -8.89185A 418.5 418.5 0 0 1 -418.389 -9.62433A 2.25 2.25 0 0 0 -419.831 -11.9041C -420.79913758007444 -12.24182619599884 -421.7997969158701 -12.604175285524194 -422.83234158465376 -12.992789561318153 C -425.56439908924574 -14.021053364267058 -428.51915181844083 -15.232928639804504 -431.67876538920575 -16.65911332383898 A 432 432 0 0 1 -431.462 -21.5579C -428.1885679595913 -22.69924797996079 -425.13827203993924 -23.645239616656543 -422.32602750000586 -24.428020112368813 C -421.263177591884 -24.72385726552885 -420.2344095636787 -24.99635004183198 -419.24047708665927 -25.24725789501302 A 2.25 2.25 0 0 0 -417.603 -27.3906A 418.5 418.5 0 0 1 -417.554 -28.1217A 2.25 2.25 0 0 0 -418.894 -30.4629C -419.8457736011136 -30.84319837549107 -420.82942560517625 -31.249455318691325 -421.84376993661755 -31.683362135481925 C -424.52766982645716 -32.83146754796432 -427.4259252227901 -34.17285527407922 -430.5193613259615 -35.7374043289612 A 432 432 0 0 1 -430.086 -40.6218C -426.765404638519 -41.61724394842165 -423.67624989155405 -42.4273848765621 -420.832132900919 -43.08500421967306 C -419.75723741473047 -43.33353840677018 -418.7174230499339 -43.56025862147878 -417.71336491359807 -43.76695593282958 A 2.25 2.25 0 0 0 -415.982 -45.8358A 418.5 418.5 0 0 1 -415.901 -46.564A 2.25 2.25 0 0 0 -417.136 -48.9622C -418.0705418043489 -49.384193545764866 -419.03526093168824 -49.833563075595855 -420.02941929912475 -50.311913040412946 C -422.6599077141415 -51.57761259216882 -425.49599230657174 -53.04588693939564 -428.51719539570973 -54.7457376868789 A 432 432 0 0 1 -427.868 -59.6062C -424.5068279969409 -60.45377220750531 -421.3848615881471 -61.12647653817936 -418.5144396393794 -61.65764740794303 C -417.42960273351565 -61.85839211163482 -416.38077751757663 -62.0388959492818 -415.36855921287685 -62.20097809910887 A 2.25 2.25 0 0 0 -413.548 -64.1912A 418.5 418.5 0 0 1 -413.435 -64.9151A 2.25 2.25 0 0 0 -414.562 -67.3656C -415.47691728938753 -67.82851683808849 -416.4208150570085 -68.32011929259315 -417.3928413487502 -68.84197601291727 C -419.96476898434383 -70.22279203763672 -422.733131004099 -71.81507878999057 -425.67618693228076 -73.64690369241178 A 432 432 0 0 1 -424.813 -78.4739C -421.41725930469573 -79.17195936858045 -418.268592629926 -79.70591025147057 -415.37748470878563 -80.10959285596557 C -414.2848300024337 -80.26215510906758 -413.2290470599653 -80.39608922491428 -412.2106500517669 -80.51323892979795 A 2.25 2.25 0 0 0 -410.304 -82.421A 418.5 418.5 0 0 1 -410.159 -83.1392A 2.25 2.25 0 0 0 -411.177 -85.6372C -412.0699771980142 -86.14006262347081 -412.99120588171127 -86.67293566775878 -413.9391973106456 -87.23727758455347 C -416.4475294976916 -88.73050707002494 -419.14274974611567 -90.44368925141417 -422.0018973431557 -92.4039024255043 A 432 432 0 0 1 -420.926 -97.188C -417.5027465375849 -97.73516370127219 -414.3335432597167 -98.12931590245077 -411.4274088457258 -98.40472001402186 C -410.3290752617846 -98.50880116875929 -409.2684013374764 -98.59590338048437 -408.2458191857468 -98.667891314376 A 2.25 2.25 0 0 0 -406.256 -100.489A 418.5 418.5 0 0 1 -406.08 -101.2A 2.25 2.25 0 0 0 -406.986 -103.741C -407.8563907754479 -104.28298519112602 -408.7531470268117 -104.85608570118934 -409.67524785519885 -105.46180808865094 C -412.1150744156497 -107.06452796803447 -414.7318768725386 -108.89525194388791 -417.50151922274995 -110.98001618030696 A 432 432 0 0 1 -416.215 -115.712C -412.7709525381756 -116.10704686137045 -409.58741652145136 -116.36062880939426 -406.67194450919754 -116.50721531156003 C -405.5700820872355 -116.56261162418484 -404.5065935001035 -116.60271142511854 -403.48182795742537 -116.62939666825696 A 2.25 2.25 0 0 0 -401.414 -118.361A 418.5 418.5 0 0 1 -401.206 -119.064A 2.25 2.25 0 0 0 -401.999 -121.642C -402.844406314981 -122.22176891813488 -403.71493469153774 -122.8339750228123 -404.60933986370424 -123.47989215092258 C -406.97588472249345 -125.18896502479048 -409.5091468741527 -127.13364706695451 -412.18386227257236 -129.33888134180904 A 432 432 0 0 1 -410.689 -134.009C -407.23114001542723 -134.25164502484432 -404.03950318109855 -134.3641603211419 -401.12040074395657 -134.38164226394065 C -400.01716643140816 -134.38824529356947 -398.95294501030327 -134.38126418646837 -397.9280021033493 -134.36259450123697 A 2.25 2.25 0 0 0 -395.785 -136.001A 418.5 418.5 0 0 1 -395.547 -136.694A 2.25 2.25 0 0 0 -396.225 -139.305C -397.0438350115579 -139.92129779294584 -397.8864314131305 -140.57141107003818 -398.75139008895053 -141.2562585256866 C -401.04002062338395 -143.06833880363013 -403.4847834901895 -145.12317210568477 -406.05933605582027 -147.44455956932384 A 432 432 0 0 1 -404.36 -152.044C -400.8941534125028 -152.13343928871774 -397.70066353955247 -152.10466767931285 -394.7836449576241 -151.9930108410206 C -393.68119838746406 -151.95080766191288 -392.6183273957939 -151.89675931262195 -391.595213498436 -151.83277124580633 A 2.25 2.25 0 0 0 -389.382 -153.375A 418.5 418.5 0 0 1 -389.113 -154.056A 2.25 2.25 0 0 0 -389.675 -156.695C -390.4660317559003 -157.3469241566155 -391.2790467604642 -158.03367197885356 -392.1128657427114 -158.7561091409852 C -394.31910185104357 -160.66764959076482 -396.6705796948776 -162.82861172002634 -399.139929620171 -165.26160814747738 A 432 432 0 0 1 -397.238 -169.781C -393.7723976782628 -169.7174252009891 -390.58330617308343 -169.54742300765832 -387.67408164722633 -169.30684596177946 C -386.57458091038666 -169.21591918864007 -385.51514096803 -169.11490939934117 -384.4958588737676 -169.00572821058702 A 2.25 2.25 0 0 0 -382.217 -170.448A 418.5 418.5 0 0 1 -381.918 -171.117A 2.25 2.25 0 0 0 -382.363 -173.778C -383.1238729067749 -174.46453652722892 -383.90571499927967 -175.18657455350092 -384.7067620481399 -175.94518721744524 C -386.82628491958394 -177.95244590886455 -389.07987461214145 -180.21530668048592 -391.43918802865807 -182.75514936698858 A 432 432 0 0 1 -389.34 -187.186C -385.87981398399495 -186.9691812834905 -382.701363642968 -186.65828129351053 -379.80562811680863 -186.28925498090987 C -378.7112255376144 -186.1497826071672 -377.6572905480097 -186.00200910926634 -376.6438355494078 -185.84784852587777 A 2.25 2.25 0 0 0 -374.303 -187.188A 418.5 418.5 0 0 1 -373.975 -187.843A 2.25 2.25 0 0 0 -374.302 -190.521C -375.0317310849174 -191.24062637472628 -375.7808697727514 -191.99654118168888 -376.5475768010095 -192.78984432753168 C -378.57623737001154 -194.88889195744122 -380.7275274036407 -197.249221715198 -382.9721858445742 -199.89093879942226 A 432 432 0 0 1 -380.679 -204.225C -377.2318524329171 -203.8549364135467 -374.07026522184515 -203.40374722824777 -371.1936872336601 -202.90699403526173 C -370.10652515655323 -202.71924908463706 -369.06015824693554 -202.5250011516958 -368.0545142297459 -202.32616295025417 A 2.25 2.25 0 0 0 -365.657 -203.562A 418.5 418.5 0 0 1 -365.3 -204.202A 2.25 2.25 0 0 0 -365.508 -206.891C -366.20544703795116 -207.64235371542523 -366.92041584695346 -208.4306655643459 -367.6512819895969 -209.2571062639257 C -369.5851090578272 -211.44383384801853 -371.6298881812625 -213.89701213556867 -373.7554976223054 -216.63543233226702 A 432 432 0 0 1 -371.272 -220.864C -367.84544181587404 -220.34163593253476 -364.70690669019115 -219.75104077593505 -361.85511727647645 -219.1275331202664 C -360.77732387227604 -218.89188311231706 -359.7405733550083 -218.65154099378603 -358.7447089146197 -218.40841440940815 A 2.25 2.25 0 0 0 -356.295 -219.537A 418.5 418.5 0 0 1 -355.91 -220.16A 2.25 2.25 0 0 0 -355.999 -222.856C -356.66229863138096 -223.6376113978305 -357.3416979765329 -224.4567771312459 -358.0352925287661 -225.31473758808352 C -359.87050053892585 -227.58486450442496 -361.8047660010103 -230.1260891100692 -363.80716546186306 -232.95585183311024 A 432 432 0 0 1 -361.14 -237.07C -357.738956472435 -236.39700635193026 -354.6296172620355 -235.6681613417831 -351.80819893448864 -234.91911976894784 C -350.7418840343967 -234.6360259996305 -349.7167793973024 -234.3500601764932 -348.73264398512265 -234.06312114088522 A 2.25 2.25 0 0 0 -346.235 -235.082A 418.5 418.5 0 0 1 -345.823 -235.688A 2.25 2.25 0 0 0 -345.793 -238.385C -346.42096702635956 -239.19508795389027 -347.06346695153843 -240.04350401640917 -347.718432169454 -240.93130473262045 C -349.45142861568195 -243.2803871011665 -351.27139400094023 -245.90468345840324 -353.1466636906255 -248.82024931437084 A 432 432 0 0 1 -350.3 -252.813C -346.932180322261 -251.9896185301757 -343.85812370466385 -251.12395041481514 -341.0725995221551 -250.2508412088671 C -340.01985048766267 -249.92085784752933 -339.00839842120786 -249.58982811131352 -338.0379185285214 -249.25963832111228 A 2.25 2.25 0 0 0 -335.498 -250.167A 418.5 418.5 0 0 1 -335.059 -250.754A 2.25 2.25 0 0 0 -334.91 -253.447C -335.50150011043723 -254.2843288926664 -336.1058428918676 -255.16033447000476 -336.7208966502944 -256.07623753399656 C -338.34828911066535 -258.49967691569776 -340.05039175139024 -261.2019078411706 -341.79486074142767 -264.1975694729865 A 432 432 0 0 1 -338.774 -268.06C -335.4462681371527 -267.08894919670263 -332.4135117225448 -266.08815256211625 -329.6693344794697 -265.0926848753273 C -328.632212116249 -264.71645787989496 -327.63639258535153 -264.34101223685445 -326.6814679721221 -263.96821805408007 A 2.25 2.25 0 0 0 -324.104 -264.762A 418.5 418.5 0 0 1 -323.64 -265.329A 2.25 2.25 0 0 0 -323.371 -268.013C -323.9252732528805 -268.8757963164296 -324.4902758611878 -269.7776765865325 -325.0642141635106 -270.71988907504624 C -326.5828169408611 -273.21294147350807 -328.1637248912025 -275.9878172232835 -329.77397830162363 -279.05771048262704 A 432 432 0 0 1 -326.585 -282.783C -323.30370412959144 -281.6654407026658 -320.3181846810728 -280.5314746552633 -317.62072623325133 -279.4155971623776 C -316.6012607570317 -278.99386301486186 -315.62302312518716 -278.5747364174739 -314.68552310118844 -278.16006760424546 A 2.25 2.25 0 0 0 -312.075 -278.839A 418.5 418.5 0 0 1 -311.586 -279.385A 2.25 2.25 0 0 0 -311.199 -282.055C -311.71494746138325 -282.9409267424819 -312.2395038774291 -283.8669162323683 -312.77120321246906 -284.83359372021135 C -314.17804357054865 -287.39137886828985 -315.6346621289542 -290.2334674927794 -317.10754781309066 -293.3715829194332 A 432 432 0 0 1 -313.757 -296.952C -310.52825793883727 -295.6905588814297 -307.5958197509286 -294.42564321299994 -304.95036049994513 -293.19154029661144 C -303.95054756227046 -292.7251245614107 -302.9918067755812 -292.26313746967185 -302.0735665411352 -291.8074057596643 A 2.25 2.25 0 0 0 -299.436 -292.371A 418.5 418.5 0 0 1 -298.923 -292.894A 2.25 2.25 0 0 0 -298.418 -295.544C -298.89442502208004 -296.45218701751486 -299.37750840204694 -297.4004730592737 -299.86592794338696 -298.38972322986837 C -301.15825192612954 -301.0072341430225 -302.48772969336824 -303.91097212027915 -303.82036440832655 -307.11116670592924 A 432 432 0 0 1 -300.315 -310.54C -297.14493810074475 -309.1368489055388 -294.27132155890615 -307.7434597479032 -291.6830401154755 -306.3935472224243 C -290.7048368971225 -305.8833629302432 -289.767469735701 -305.37941970558046 -288.8702867891873 -304.88351721501715 A 2.25 2.25 0 0 0 -286.21 -305.33A 418.5 418.5 0 0 1 -285.675 -305.83A 2.25 2.25 0 0 0 -285.053 -308.455C -285.4888027096981 -309.3831282150507 -285.9294673951841 -310.35185449422374 -286.3736510386359 -311.3617408439059 C -287.5489288611575 -314.03385362160475 -288.7486633220677 -316.99355674817826 -289.93843837281275 -320.24956596164196 A 432 432 0 0 1 -286.285 -323.52C -283.1799430923779 -321.9779890308326 -280.37077343593535 -320.458854008701 -277.8447364825288 -318.9957743912922 C -276.89005786223385 -318.4428202518409 -275.97589926631747 -317.8979073867817 -275.1015298854856 -317.36280486807567 A 2.25 2.25 0 0 0 -272.424 -317.691A 418.5 418.5 0 0 1 -271.867 -318.167A 2.25 2.25 0 0 0 -271.13 -320.762C -271.52432265944265 -321.70843741045763 -271.92170602863223 -322.695707599862 -272.3207842638548 -323.72425322867775 C -273.3767152646268 -326.4457370846764 -274.44435788266173 -329.45561160270864 -275.48894422865976 -332.76106165304833 A 432 432 0 0 1 -271.694 -335.867C -268.6606100472626 -334.18884212249526 -265.9213863577372 -332.54693501401204 -263.46253873031395 -330.97355235173075 C -262.53325353630805 -330.37891079870406 -261.64409301427713 -329.794094985771 -260.7942488182506 -329.22083992723094 A 2.25 2.25 0 0 0 -258.105 -329.43A 418.5 418.5 0 0 1 -257.528 -329.881A 2.25 2.25 0 0 0 -256.677 -332.441C -257.0283209967849 -333.4039872321883 -257.3816451530717 -334.40786870406583 -257.73483676567895 -335.4530601856463 C -258.66935391018075 -338.2185876874956 -259.60281472477897 -341.2727416262737 -260.5001675392038 -344.62116193979176 A 432 432 0 0 1 -256.572 -347.556C -253.61536124166338 -345.7455048621773 -250.95144567806162 -343.9840397776115 -248.56460068631984 -342.3034340409053 C -247.66252803800964 -341.66826911306754 -246.80010616334116 -341.0446951566774 -245.97645076204225 -340.4344097320005 A 2.25 2.25 0 0 0 -243.28 -340.524A 418.5 418.5 0 0 1 -242.684 -340.95A 2.25 2.25 0 0 0 -241.721 -343.469C -242.02917432571235 -344.4468830922431 -242.33774762046843 -345.4654107014704 -242.64436122129274 -346.5252020244081 C -243.45563514832898 -349.3293595221538 -244.25308686611058 -352.4218142319195 -245.0014495386883 -355.8066501186101 A 432 432 0 0 1 -240.947 -358.565C -238.07364845664293 -356.6253545398646 -235.4902557587781 -354.7477796298375 -233.18008576387552 -352.96324068335736 C -232.3069915108314 -352.2887957458823 -231.47299651484434 -351.62768432133765 -230.67714225240007 -350.9815631929019 A 2.25 2.25 0 0 0 -227.98 -350.952A 418.5 418.5 0 0 1 -227.365 -351.351A 2.25 2.25 0 0 0 -226.291 -353.825C -226.55624418019448 -354.815508003401 -226.8194625667047 -355.8466879343529 -227.07889794522384 -356.91900450736523 C -227.76534054798492 -359.7563027310223 -228.42522211976396 -362.8810045864592 -229.0231296954198 -366.2956300711221 A 432 432 0 0 1 -224.851 -368.872C -222.0658953248175 -366.80709333889456 -219.56808260521194 -364.81708404446374 -217.3391098733993 -362.9321052069994 C -216.49670313862217 -362.21970051752396 -215.69276760568562 -361.5223457814844 -214.92627240418813 -360.84165376174036 A 2.25 2.25 0 0 0 -212.233 -360.693A 418.5 418.5 0 0 1 -211.601 -361.064A 2.25 2.25 0 0 0 -210.419 -363.489C -210.6398195476007 -364.4895648954873 -210.85716776351268 -365.53137856502457 -211.06891706279012 -366.614121278064 C -211.62918459764578 -369.47900608311977 -212.1502042742574 -372.62983833360977 -212.5964863208343 -376.0675691265078 A 432 432 0 0 1 -208.314 -378.456C -205.62343777466756 -376.27079002743324 -203.2160946190173 -374.17224188524335 -201.07268246908987 -372.19051309138786 C -200.26261230332244 -371.44154321554635 -199.49030997499503 -370.70931027265533 -198.75467428479584 -369.99537984819716 A 2.25 2.25 0 0 0 -196.071 -369.728A 418.5 418.5 0 0 1 -195.423 -370.07A 2.25 2.25 0 0 0 -194.135 -372.44C -194.3110575765851 -373.4501163478417 -194.48211015255956 -374.50052435678265 -194.64575886339819 -375.59157369014264 C -195.07875458033865 -378.47843693005615 -195.45989244129882 -381.64923167350565 -195.75367534073314 -385.1033382551757 A 432 432 0 0 1 -191.37 -387.3C -188.77846268898585 -384.9979189747972 -186.46630158456705 -382.79493999138464 -184.41264584646305 -380.72034056831404 C -183.63649800009577 -379.9362716498101 -182.89734069445254 -379.170593880439 -182.19400455696072 -378.4248226035987 A 2.25 2.25 0 0 0 -179.524 -378.039A 418.5 418.5 0 0 1 -178.862 -378.352A 2.25 2.25 0 0 0 -177.47 -380.663C -177.60192258550614 -381.6796216602078 -177.72634467809294 -382.7365677855478 -177.84157245045637 -383.8337879589225 C -178.1464487400323 -386.73697846333437 -178.38695869007992 -389.9215287201324 -178.52766734854995 -393.38524951473585 A 432 432 0 0 1 -174.051 -395.386C -171.5639448975443 -392.97139641624517 -169.35149200829804 -390.668299026422 -167.39161280956452 -388.50489009993026 C -166.65090662845463 -387.68725699049173 -165.94634128063223 -386.8896332448304 -165.2766815093657 -386.11348099790393 A 2.25 2.25 0 0 0 -162.627 -385.61A 418.5 418.5 0 0 1 -161.951 -385.894A 2.25 2.25 0 0 0 -160.459 -388.141C -160.5451234907704 -389.16197118947883 -160.62267153788045 -390.22338640954314 -160.68925280799314 -391.3246295629179 C -160.8654128605507 -394.2384642000817 -160.96482409016414 -397.430536063554 -160.9521830638633 -400.89709067497864 A 432 432 0 0 1 -156.391 -402.698C -154.01358262731384 -400.1756138952509 -151.90516893366777 -397.7769065203112 -150.0429028298723 -395.5289230649657 C -149.33908828115293 -394.6793263198004 -148.67049411090616 -393.8513179837875 -148.03582159631432 -393.0463041212463 A 2.25 2.25 0 0 0 -145.411 -392.426A 418.5 418.5 0 0 1 -144.723 -392.68A 2.25 2.25 0 0 0 -143.133 -394.858C -143.17404977759404 -395.8825178850797 -143.20457197528341 -396.94632442973113 -143.22237640718248 -398.0494348279185 C -143.26947538114626 -400.9682096296982 -143.22759328817529 -404.16155446927206 -143.0616273225061 -407.6241569540768 A 432 432 0 0 1 -138.426 -409.222C -136.16173153660446 -406.59646881778866 -134.16148435737506 -404.10684704006223 -132.40047682186798 -401.7786895890423 C -131.7349316555694 -400.89879233367606 -131.1036174673837 -400.0420202725126 -130.50517461071817 -399.2097206467961 A 2.25 2.25 0 0 0 -127.91 -398.474A 418.5 418.5 0 0 1 -127.212 -398.697A 2.25 2.25 0 0 0 -125.527 -400.803C -125.52270613851705 -401.8281059612567 -125.50614273815052 -402.89222137922746 -125.47513547882443 -403.9950396318211 C -125.3930811757411 -406.91304095947635 -125.20998774634946 -410.1014076526687 -124.89102172748353 -413.5532798038853 A 432 432 0 0 1 -120.189 -414.944C -118.04333746225005 -412.22139205882394 -116.15517237522242 -409.64572942985365 -114.49887066295145 -407.24195546069996 C -113.87289771499073 -406.33348013533015 -113.28009933603609 -405.44962152055984 -112.71905761729168 -404.5916653972703 A 2.25 2.25 0 0 0 -110.159 -403.742A 418.5 418.5 0 0 1 -109.452 -403.934A 2.25 2.25 0 0 0 -107.675 -405.963C -107.62564590762105 -406.9870966501454 -107.56202933283261 -408.049437885534 -107.48227108044759 -409.14980517401597 C -107.27122412546876 -412.06132090291845 -106.94727777364254 -415.23846807220144 -106.47593609254046 -418.6728526879939 A 432 432 0 0 1 -101.717 -419.854C -99.69386801149197 -417.0393725669658 -97.9214811884923 -414.38271106730093 -96.3731275878392 -411.9080260804396 C -95.7879522296577 -410.9727510681776 -95.23483009059873 -410.06353609454504 -94.71228777528647 -409.18160296308326 A 2.25 2.25 0 0 0 -92.1924 -408.219A 418.5 418.5 0 0 1 -91.4776 -408.38A 2.25 2.25 0 0 0 -89.6125 -410.329C -89.51790342075485 -411.34939098520596 -89.40735820397708 -412.4078784551566 -89.27900508905763 -413.5036407588862 C -88.93937861650844 -416.4029714602717 -88.47521348244389 -419.5626796908625 -87.85241881258064 -422.97285380206654 A 432 432 0 0 1 -83.0457 -423.943C -81.14924313247208 -421.0409789191169 -79.49610410393771 -418.3085190884001 -78.05872958978661 -415.76776739590406 C -77.51549732962783 -414.80752354150707 -77.00313419302636 -413.87473204001986 -76.52011418226706 -412.9705483259064 A 2.25 2.25 0 0 0 -74.0453 -411.897A 418.5 418.5 0 0 1 -73.324 -412.026A 2.25 2.25 0 0 0 -71.3746 -413.891C -71.23492543417706 -414.9064495704239 -71.07766797286303 -415.9590112360074 -70.90097125265905 -417.04802354881826 C -70.43343009730839 -419.92949364668596 -69.82995480605265 -423.0655776613432 -69.05692629724099 -426.4448656919941 A 432 432 0 0 1 -64.212 -427.201C -62.44576479924762 -424.21837778292723 -60.91510966245846 -421.4154685395936 -59.59152796291993 -418.8136237822148 C -59.09130220344335 -417.8302908081208 -58.620701044199905 -416.8757487619471 -58.17814887234728 -415.9510844472629 A 2.25 2.25 0 0 0 -55.7532 -414.77A 418.5 418.5 0 0 1 -55.027 -414.867A 2.25 2.25 0 0 0 -52.9969 -416.643C -52.81250173586564 -417.651309296579 -52.60883986888067 -418.6958847189066 -52.38414543551968 -419.77601524805624 C -51.789604831134895 -422.63398412937573 -51.04800071390984 -425.7403048963699 -50.12625160575719 -429.08209173145616 A 432 432 0 0 1 -45.2526 -429.623C -43.62004594897185 -426.56534925091006 -42.2148710332378 -423.6974774214281 -41.00767312164418 -421.039632832462 C -40.55143307826459 -420.03513565914517 -40.12351512024783 -419.0607116291656 -39.72229710396056 -418.117376787729 A 2.25 2.25 0 0 0 -37.352 -416.83A 418.5 418.5 0 0 1 -36.6222 -416.895A 2.25 2.25 0 0 0 -34.5156 -418.579C -34.28669508532876 -419.57859697185836 -34.03702749034146 -420.6131413454877 -33.764775193728404 -421.6822756847423 C -33.04439898146225 -424.51114874121794 -32.16611776315312 -427.58162549177473 -31.097452422824087 -430.87936942663623 A 432 432 0 0 1 -26.2047 -431.205C -24.70893881035169 -428.0772990162029 -23.43199481155738 -425.1500785943543 -22.343543834510676 -422.4414370293962 C -21.932182618538057 -421.4177420072446 -21.547785531245868 -420.4253434742569 -21.188687073632043 -419.4651847283189 A 2.25 2.25 0 0 0 -18.8776 -418.074A 418.5 418.5 0 0 1 -18.1457 -418.106A 2.25 2.25 0 0 0 -15.9666 -419.696C -15.693770619057336 -420.6845398401323 -15.398586032109296 -421.7070279958696 -15.079308818899786 -422.76307326455355 C -14.234507169016673 -425.55731284433324 -13.221268126352431 -428.5859349760237 -12.007778516435298 -431.83318052204567 A 432 432 0 0 1 -7.1054 -431.942C -5.749462763677195 -428.75126736613896 -4.603249359665619 -425.7704285233619 -3.6356760110671225 -423.01629227547323 C -3.269998881399288 -421.97540333556543 -2.929875140181342 -420.966972966301 -2.6135991933350278 -419.991869871696 A 2.25 2.25 0 0 0 -0.366334 -418.5A 418.5 418.5 0 0 1 0.366334 -418.5A 2.25 2.25 0 0 0 2.6136 -419.992C 2.9298751401811876 -420.966972966301 3.2699988813991316 -421.97540333556543 3.635676011066966 -423.01629227547323 C 4.603249359665463 -425.7704285233619 5.749462763677038 -428.75126736613896 7.105401180285328 -431.94165788767424 A 432 432 0 0 1 12.0078 -431.833C 13.221268126352275 -428.5859349760237 14.234507169016517 -425.55731284433324 15.07930881889963 -422.76307326455355 C 15.39858603210914 -421.7070279958696 15.69377061905718 -420.6845398401323 15.966604930117697 -419.6964012069588 A 2.25 2.25 0 0 0 18.1457 -418.106A 418.5 418.5 0 0 1 18.8776 -418.074A 2.25 2.25 0 0 0 21.1887 -419.465C 21.547785531245715 -420.4253434742569 21.932182618537905 -421.4177420072446 22.34354383451052 -422.4414370293962 C 23.431994811557225 -425.1500785943543 24.70893881035154 -428.0772990162029 26.204671720525536 -431.2045891739847 A 432 432 0 0 1 31.0975 -430.879C 32.16611776315296 -427.58162549177473 33.044398981462095 -424.51114874121794 33.764775193728255 -421.6822756847423 C 34.03702749034131 -420.6131413454877 34.2866950853286 -419.57859697185836 34.515553674627114 -418.57935712789384 A 2.25 2.25 0 0 0 36.6222 -416.895A 418.5 418.5 0 0 1 37.352 -416.83A 2.25 2.25 0 0 0 39.7223 -418.117C 40.12351512024769 -419.0607116291656 40.55143307826444 -420.03513565914517 41.007673121644025 -421.039632832462 C 42.21487103323765 -423.6974774214281 43.6200459489717 -426.56534925091006 45.25264538530004 -429.6234172275968 A 432 432 0 0 1 50.1263 -429.082C 51.048000713909694 -425.7403048963699 51.789604831134746 -422.63398412937573 52.38414543551952 -419.77601524805624 C 52.60883986888052 -418.6958847189066 52.81250173586548 -417.651309296579 52.99693660196621 -416.64292430074244 A 2.25 2.25 0 0 0 55.027 -414.867A 418.5 418.5 0 0 1 55.7532 -414.77A 2.25 2.25 0 0 0 58.1781 -415.951C 58.62070104419938 -416.87574876194714 59.09130220344282 -417.8302908081208 59.59152796291941 -418.81362378221485 C 60.91510966245793 -421.41546853959363 62.44576479924708 -424.2183777829273 64.2120348716662 -427.2012372668475 A 432 432 0 0 1 69.0569 -426.445C 69.82995480605211 -423.06557766134324 70.43343009730786 -419.929493646686 70.90097125265854 -417.0480235488183 C 71.0776679728625 -415.9590112360074 71.23492543417653 -414.90644957042394 71.37457553716803 -413.89089338369854 A 2.25 2.25 0 0 0 73.324 -412.026A 418.5 418.5 0 0 1 74.0453 -411.897A 2.25 2.25 0 0 0 76.5201 -412.971C 77.00313419302621 -413.8747320400199 77.51549732962766 -414.80752354150707 78.05872958978645 -415.7677673959041 C 79.49610410393757 -418.30851908840015 81.14924313247192 -421.040978919117 83.04572628437091 -423.94279082275574 A 432 432 0 0 1 87.8524 -422.973C 88.47521348244373 -419.5626796908626 88.9393786165083 -416.4029714602718 89.27900508905748 -413.50364075888626 C 89.40735820397694 -412.4078784551566 89.5179034207547 -411.349390985206 89.61249538900238 -410.3286516065178 A 2.25 2.25 0 0 0 91.4776 -408.38A 418.5 418.5 0 0 1 92.1924 -408.219A 2.25 2.25 0 0 0 94.7123 -409.182C 95.23483009059856 -410.0635360945451 95.78795222965755 -410.9727510681776 96.37312758783905 -411.9080260804396 C 97.92148118849212 -414.382711067301 99.69386801149182 -417.0393725669659 101.7168517880419 -419.8544564572525 A 432 432 0 0 1 106.476 -418.673C 106.94727777364238 -415.2384680722015 107.27122412546859 -412.0613209029185 107.48227108044743 -409.14980517401597 C 107.56202933283245 -408.04943788553413 107.6256459076209 -406.9870966501455 107.67499457290485 -405.9631722247622 A 2.25 2.25 0 0 0 109.452 -403.934A 418.5 418.5 0 0 1 110.159 -403.742A 2.25 2.25 0 0 0 112.719 -404.592C 113.28009933603593 -405.4496215205599 113.87289771499059 -406.3334801353302 114.4988706629513 -407.2419554607 C 116.15517237522228 -409.6457294298537 118.04333746224991 -412.221392058824 120.18886177770906 -414.9442372768469 A 432 432 0 0 1 124.891 -413.553C 125.20998774634931 -410.10140765266874 125.39308117574096 -406.9130409594764 125.47513547882428 -403.99503963182116 C 125.50614273815037 -402.8922213792275 125.52270613851692 -401.82810596125677 125.52671489850746 -400.8030008693246 A 2.25 2.25 0 0 0 127.212 -398.697A 418.5 418.5 0 0 1 127.91 -398.474A 2.25 2.25 0 0 0 130.505 -399.21C 131.10361746738357 -400.0420202725126 131.73493165556926 -400.89879233367606 132.4004768218678 -401.77868958904236 C 134.16148435737492 -404.1068470400623 136.16173153660432 -406.59646881778866 138.42559642637107 -409.22174526616845 A 432 432 0 0 1 143.062 -407.624C 143.22759328817514 -404.16155446927206 143.26947538114612 -400.96820962969826 143.22237640718237 -398.04943482791856 C 143.20457197528327 -396.94632442973113 143.1740497775939 -395.8825178850797 143.13271078495507 -394.8582388179553 A 2.25 2.25 0 0 0 144.723 -392.68A 418.5 418.5 0 0 1 145.411 -392.426A 2.25 2.25 0 0 0 148.036 -393.046C 148.67049411090602 -393.8513179837875 149.33908828115278 -394.67932631980045 150.04290282987216 -395.52892306496574 C 151.90516893366762 -397.77690652031123 154.0135826273137 -400.1756138952509 156.39135646955515 -402.6981824720568 A 432 432 0 0 1 160.952 -400.897C 160.964824090164 -397.430536063554 160.86541286055055 -394.23846420008175 160.689252807993 -391.32462956291795 C 160.6226715378803 -390.2233864095432 160.54512349077027 -389.16197118947883 160.4585176685215 -388.14052322153606 A 2.25 2.25 0 0 0 161.951 -385.894A 418.5 418.5 0 0 1 162.627 -385.61A 2.25 2.25 0 0 0 165.277 -386.113C 165.94634128063208 -386.88963324483046 166.6509066284545 -387.68725699049173 167.39161280956438 -388.5048900999303 C 169.3514920082979 -390.66829902642206 171.56394489754416 -392.9713964162452 174.0509730883037 -395.38631907502815 A 432 432 0 0 1 178.528 -393.385C 178.38695869007978 -389.92152872013247 178.14644874003216 -386.7369784633344 177.84157245045623 -383.8337879589226 C 177.7263446780928 -382.7365677855478 177.601922585506 -381.67962166020783 177.4702194686113 -380.6630043238112 A 2.25 2.25 0 0 0 178.862 -378.352A 418.5 418.5 0 0 1 179.524 -378.039A 2.25 2.25 0 0 0 182.194 -378.425C 182.8973406944524 -379.170593880439 183.63649800009566 -379.9362716498101 184.4126458464629 -380.7203405683141 C 186.46630158456693 -382.7949399913847 188.77846268898574 -384.99791897479724 191.36987675378907 -387.3004683910478 A 432 432 0 0 1 195.754 -385.103C 195.4598924412987 -381.6492316735057 195.07875458033854 -378.4784369300562 194.64575886339804 -375.5915736901427 C 194.48211015255944 -374.50052435678265 194.31105757658497 -373.4501163478417 194.13451498008047 -372.44031971916775 A 2.25 2.25 0 0 0 195.423 -370.07A 418.5 418.5 0 0 1 196.071 -369.728A 2.25 2.25 0 0 0 198.755 -369.995C 199.49030997499486 -370.7093102726554 200.2626123033223 -371.44154321554646 201.0726824690897 -372.19051309138797 C 203.21609461901713 -374.17224188524347 205.6234377746674 -376.27079002743324 208.3141648987896 -378.45645885254135 A 432 432 0 0 1 212.596 -376.068C 212.15020427425722 -372.6298383336099 211.6291845976456 -369.4790060831199 211.06891706278995 -366.6141212780641 C 210.85716776351254 -365.5313785650247 210.63981954760052 -364.4895648954874 210.41878306190932 -363.4885656988568 A 2.25 2.25 0 0 0 211.601 -361.064A 418.5 418.5 0 0 1 212.233 -360.693A 2.25 2.25 0 0 0 214.926 -360.842C 215.69276760568548 -361.52234578148443 216.49670313862202 -362.2197005175241 217.33910987339917 -362.9321052069995 C 219.56808260521177 -364.8170840444638 222.06589532481735 -366.8070933388946 224.85066828355636 -368.8716030234959 A 432 432 0 0 1 229.023 -366.296C 228.42522211976382 -362.88100458645926 227.7653405479848 -359.75630273102234 227.0788979452237 -356.91900450736534 C 226.81946256670454 -355.846687934353 226.55624418019434 -354.8155080034011 226.29114649461704 -353.82526574174824 A 2.25 2.25 0 0 0 227.365 -351.351A 418.5 418.5 0 0 1 227.98 -350.952A 2.25 2.25 0 0 0 230.677 -350.982C 231.4729965148442 -351.62768432133777 232.30699151083127 -352.2887957458824 233.18008576387538 -352.96324068335747 C 235.49025575877795 -354.7477796298376 238.0736484566428 -356.62535453986465 240.94701592615874 -358.56466370930195 A 432 432 0 0 1 245.001 -355.807C 244.25308686611044 -352.42181423191954 243.45563514832884 -349.32935952215394 242.6443612212926 -346.5252020244082 C 242.3377476204683 -345.4654107014705 242.0291743257122 -344.44688309224324 241.72053438141737 -343.46933621129705 A 2.25 2.25 0 0 0 242.684 -340.95A 418.5 418.5 0 0 1 243.28 -340.524A 2.25 2.25 0 0 0 245.976 -340.434C 246.80010616334096 -341.04469515667745 247.66252803800944 -341.66826911306765 248.56460068631964 -342.30343404090536 C 250.95144567806142 -343.98403977761154 253.6153612416632 -345.7455048621774 256.5716984702011 -347.5558172276816 A 432 432 0 0 1 260.5 -344.621C 259.6028147247788 -341.27274162627384 258.6693539101806 -338.21858768749564 257.7348367656788 -335.45306018564645 C 257.38164515307153 -334.40786870406595 257.02832099678466 -333.40398723218834 256.676742970957 -332.4410493258741 A 2.25 2.25 0 0 0 257.528 -329.881A 418.5 418.5 0 0 1 258.105 -329.43A 2.25 2.25 0 0 0 260.794 -329.221C 261.64409301427696 -329.7940949857711 262.5332535363079 -330.37891079870417 263.4625387303137 -330.9735523517309 C 265.92138635773705 -332.54693501401215 268.66061004726237 -334.1888421224954 271.69412986586747 -335.8666139125986 A 432 432 0 0 1 275.489 -332.761C 274.4443578826615 -329.45561160270876 273.3767152646266 -326.4457370846765 272.3207842638546 -323.7242532286779 C 271.92170602863206 -322.6957075998621 271.5243226594425 -321.70843741045775 271.13049478257756 -320.76199347494656 A 2.25 2.25 0 0 0 271.867 -318.167A 418.5 418.5 0 0 1 272.424 -317.691A 2.25 2.25 0 0 0 275.102 -317.363C 275.9758992663172 -317.8979073867819 276.8900578622336 -318.44282025184106 277.8447364825285 -318.99577439129234 C 280.37077343593506 -320.45885400870117 283.17994309237764 -321.97798903083276 286.2847072435509 -323.5199359284676 A 432 432 0 0 1 289.938 -320.25C 288.74866332206744 -316.99355674817843 287.5489288611572 -314.0338536216049 286.3736510386356 -311.3617408439061 C 285.92946739518385 -310.3518544942239 285.48880270969784 -309.38312821505093 285.053495918359 -308.4550309587916 A 2.25 2.25 0 0 0 285.675 -305.83A 418.5 418.5 0 0 1 286.21 -305.33A 2.25 2.25 0 0 0 288.87 -304.884C 289.76746973570073 -305.37941970558074 290.7048368971222 -305.88336293024344 291.6830401154752 -306.39354722242456 C 294.27132155890587 -307.7434597479035 297.14493810074447 -309.13684890553907 300.31486886286 -310.5399524772435 A 432 432 0 0 1 303.82 -307.111C 302.48772969336795 -303.91097212027944 301.15825192612925 -301.0072341430228 299.8659279433867 -298.38972322986865 C 299.37750840204666 -297.400473059274 298.89442502207976 -296.45218701751514 298.41849144975293 -295.5442532344703 A 2.25 2.25 0 0 0 298.923 -292.894A 418.5 418.5 0 0 1 299.436 -292.371A 2.25 2.25 0 0 0 302.074 -291.807C 302.99180677558127 -292.26313746967185 303.9505475622705 -292.72512456141067 304.95036049994513 -293.1915402966114 C 307.5958197509286 -294.4256432129999 310.5282579388373 -295.69055888142964 313.7571500235682 -296.95207248607227 A 432 432 0 0 1 317.108 -293.372C 315.63466212895423 -290.23346749277937 314.17804357054865 -287.3913788682898 312.77120321246906 -284.8335937202113 C 312.2395038774292 -283.8669162323682 311.7149474613833 -282.9409267424819 311.1993187703862 -282.05493375566857 A 2.25 2.25 0 0 0 311.586 -279.385A 418.5 418.5 0 0 1 312.075 -278.839A 2.25 2.25 0 0 0 314.686 -278.16C 315.62302312518705 -278.57473641747396 316.6012607570316 -278.993863014862 317.6207262332512 -279.4155971623777 C 320.3181846810727 -280.53147465526337 323.30370412959127 -281.66544070266593 326.58523682905275 -282.7828948681249 A 432 432 0 0 1 329.774 -279.058C 328.1637248912023 -275.9878172232836 326.582816940861 -273.2129414735081 325.0642141635105 -270.71988907504635 C 324.4902758611877 -269.7776765865326 323.9252732528804 -268.87579631642967 323.3709588105896 -268.0134784987258 A 2.25 2.25 0 0 0 323.64 -265.329A 418.5 418.5 0 0 1 324.104 -264.762A 2.25 2.25 0 0 0 326.681 -263.968C 327.6363925853515 -264.34101223685457 328.63221211624887 -264.7164578798951 329.66933447946957 -265.0926848753274 C 332.41351172254474 -266.0881525621163 335.4462681371526 -267.0889491967027 338.7740176969844 -268.0601564539735 A 432 432 0 0 1 341.795 -264.198C 340.0503917513901 -261.2019078411707 338.3482891106653 -258.4996769156978 336.72089665029426 -256.0762375339967 C 336.1058428918675 -255.16033447000487 335.5015001104372 -254.2843288926665 334.9095850134041 -253.44737427169457 A 2.25 2.25 0 0 0 335.059 -250.754A 418.5 418.5 0 0 1 335.498 -250.167A 2.25 2.25 0 0 0 338.038 -249.26C 339.0083984212078 -249.58982811131366 340.0198504876626 -249.92085784752948 341.07259952215503 -250.25084120886723 C 343.8581237046638 -251.12395041481528 346.93218032226093 -251.98961853017585 350.2996325164285 -252.81267769544428 A 432 432 0 0 1 353.147 -248.82C 351.2713940009402 -245.90468345840338 349.4514286156819 -243.28038710116664 347.71843216945393 -240.9313047326206 C 347.0634669515384 -240.04350401640932 346.4209670263595 -239.1950879538904 345.79260997618303 -238.38513490762458 A 2.25 2.25 0 0 0 345.823 -235.688A 418.5 418.5 0 0 1 346.235 -235.082A 2.25 2.25 0 0 0 348.733 -234.063C 349.7167793973023 -234.3500601764933 350.7418840343966 -234.6360259996306 351.80819893448853 -234.91911976894792 C 354.62961726203537 -235.6681613417832 357.7389564724349 -236.39700635193034 361.1395193551324 -237.07030624822954 A 432 432 0 0 1 363.807 -232.956C 361.8047660010102 -230.12608911006927 359.87050053892574 -227.58486450442504 358.035292528766 -225.3147375880836 C 357.34169797653277 -224.45677713124599 356.66229863138085 -223.6376113978306 355.99872966649434 -222.8562454473943 A 2.25 2.25 0 0 0 355.91 -220.16A 418.5 418.5 0 0 1 356.295 -219.537A 2.25 2.25 0 0 0 358.745 -218.408C 359.74057335500817 -218.6515409937863 360.7773238722759 -218.89188311231734 361.85511727647634 -219.1275331202667 C 364.706906690191 -219.75104077593534 367.8454418158739 -220.34163593253504 371.2724586255678 -220.86385854369988 A 432 432 0 0 1 373.755 -216.635C 371.6298881812624 -213.89701213556896 369.585109057827 -211.4438338480188 367.6512819895968 -209.25710626392598 C 366.9204158469533 -208.43066556434619 366.20544703795105 -207.64235371542551 365.5079651257644 -206.8911044213597 A 2.25 2.25 0 0 0 365.3 -204.202A 418.5 418.5 0 0 1 365.657 -203.562A 2.25 2.25 0 0 0 368.055 -202.326C 369.0601582469353 -202.5250011516961 370.10652515655306 -202.71924908463734 371.19368723365994 -202.90699403526202 C 374.070265221845 -203.40374722824808 377.2318524329169 -203.85493641354702 380.67861462326937 -204.22505946429246 A 432 432 0 0 1 382.972 -199.891C 380.7275274036405 -197.2492217151983 378.57623737001137 -194.88889195744153 376.5475768010093 -192.78984432753197 C 375.7808697727512 -191.99654118168917 375.03173108491717 -191.2406263747266 374.3017015790274 -190.52096434280315 A 2.25 2.25 0 0 0 373.975 -187.843A 418.5 418.5 0 0 1 374.303 -187.188A 2.25 2.25 0 0 0 376.644 -185.848C 377.6572905480097 -186.00200910926634 378.7112255376144 -186.1497826071672 379.80562811680863 -186.28925498090985 C 382.701363642968 -186.6582812935105 385.87981398399495 -186.96918128349049 389.33957435615827 -187.18648024056372 A 432 432 0 0 1 391.439 -182.755C 389.07987461214145 -180.2153066804859 386.82628491958394 -177.95244590886452 384.7067620481399 -175.9451872174452 C 383.90571499927967 -175.18657455350092 383.1238729067749 -174.46453652722892 382.362724874222 -173.77787052967068 A 2.25 2.25 0 0 0 381.918 -171.117A 418.5 418.5 0 0 1 382.217 -170.448A 2.25 2.25 0 0 0 384.496 -169.006C 385.5151409680299 -169.11490939934131 386.57458091038666 -169.2159191886402 387.6740816472263 -169.3068459617796 C 390.58330617308343 -169.54742300765844 393.77239767826273 -169.71742520098925 397.2383835888378 -169.78147469147748 A 432 432 0 0 1 399.14 -165.262C 396.6705796948775 -162.8286117200265 394.31910185104357 -160.667649590765 392.11286574271134 -158.75610914098533 C 391.2790467604642 -158.0336719788537 390.46603175590025 -157.34692415661564 389.6752551797014 -156.6945983743587 A 2.25 2.25 0 0 0 389.113 -154.056A 418.5 418.5 0 0 1 389.382 -153.375A 2.25 2.25 0 0 0 391.595 -151.833C 392.6183273957939 -151.89675931262207 393.68119838746406 -151.950807661913 394.7836449576241 -151.99301084102075 C 397.7006635395524 -152.10466767931297 400.8941534125028 -152.13343928871785 404.35958003130673 -152.0441139327356 A 432 432 0 0 1 406.059 -147.445C 403.4847834901895 -145.1231721056849 401.0400206233839 -143.06833880363024 398.75139008895053 -141.25625852568675 C 397.8864314131305 -140.5714110700383 397.0438350115579 -139.92129779294595 396.224977873996 -139.30458918434232 A 2.25 2.25 0 0 0 395.547 -136.694A 418.5 418.5 0 0 1 395.785 -136.001A 2.25 2.25 0 0 0 397.928 -134.363C 398.9529450103032 -134.3812641864685 400.0171664314081 -134.3882452935696 401.12040074395657 -134.3816422639408 C 404.03950318109855 -134.36416032114204 407.23114001542723 -134.25164502484446 410.6892236071172 -134.00911968097083 A 432 432 0 0 1 412.184 -129.339C 409.5091468741527 -127.13364706695465 406.97588472249345 -125.18896502479062 404.60933986370424 -123.47989215092272 C 403.7149346915377 -122.83397502281244 402.8444063149809 -122.22176891813503 401.99907156735634 -121.64188471924675 A 2.25 2.25 0 0 0 401.206 -119.064A 418.5 418.5 0 0 1 401.414 -118.361A 2.25 2.25 0 0 0 403.482 -116.629C 404.50659350010346 -116.60271142511868 405.57008208723545 -116.56261162418498 406.6719445091975 -116.50721531156017 C 409.5874165214513 -116.3606288093944 412.7709525381756 -116.10704686137059 416.214923741729 -115.71179628435522 A 432 432 0 0 1 417.502 -110.98C 414.7318768725386 -108.89525194388806 412.11507441564964 -107.06452796803461 409.6752478551988 -105.46180808865108 C 408.75314702681163 -104.85608570118949 407.85639077544784 -104.28298519112616 406.98623320022597 -103.74106055250391 A 2.25 2.25 0 0 0 406.08 -101.2A 418.5 418.5 0 0 1 406.256 -100.489A 2.25 2.25 0 0 0 408.246 -98.6679C 409.26840133747623 -98.59590338048471 410.3290752617845 -98.50880116875963 411.42740884572567 -98.4047200140222 C 414.3335432597166 -98.12931590245111 417.5027465375848 -97.73516370127253 420.9258636176417 -97.18796161268091 A 432 432 0 0 1 422.002 -92.4039C 419.14274974611556 -90.44368925141451 416.4475294976915 -88.73050707002528 413.9391973106455 -87.23727758455381 C 412.99120588171115 -86.67293566775912 412.06997719801416 -86.14006262347115 411.17670016951115 -85.63715838804387 A 2.25 2.25 0 0 0 410.159 -83.1392A 418.5 418.5 0 0 1 410.304 -82.421A 2.25 2.25 0 0 0 412.211 -80.5132C 413.2290470599653 -80.3960892249146 414.2848300024337 -80.2621551090679 415.3774847087856 -80.1095928559659 C 418.26859262992593 -79.7059102514709 421.4172593046957 -79.17195936858077 424.81282134882207 -78.47387694219798 A 432 432 0 0 1 425.676 -73.6469C 422.73313100409894 -71.81507878999089 419.9647689843438 -70.22279203763705 417.39284134875015 -68.8419760129176 C 416.4208150570085 -68.32011929259347 415.47691728938753 -67.82851683808882 414.562269439335 -67.36561746451376 A 2.25 2.25 0 0 0 413.435 -64.9151A 418.5 418.5 0 0 1 413.548 -64.1912A 2.25 2.25 0 0 0 415.369 -62.201C 416.38077751757663 -62.038895949281766 417.4296027335157 -61.858392111634785 418.5144396393795 -61.657647407942996 C 421.38486158814715 -61.126476538179325 424.50682799694096 -60.453772207505274 427.8681880329797 -59.6061759724629 A 432 432 0 0 1 428.517 -54.7457C 425.4959923065718 -53.04588693939561 422.6599077141416 -51.577612592168784 420.0294192991248 -50.31191304041291 C 419.0352609316883 -49.83356307559582 418.0705418043489 -49.38419354576483 417.13631359886534 -48.962205181303545 A 2.25 2.25 0 0 0 415.901 -46.564A 418.5 418.5 0 0 1 415.982 -45.8358A 2.25 2.25 0 0 0 417.713 -43.767C 418.7174230499339 -43.56025862147875 419.75723741473047 -43.33353840677015 420.832132900919 -43.08500421967303 C 423.67624989155405 -42.42738487656207 426.765404638519 -41.61724394842162 430.0859826463499 -40.62179311415294 A 432 432 0 0 1 430.519 -35.7374C 427.4259252227901 -34.17285527407918 424.52766982645716 -32.831467547964294 421.84376993661755 -31.683362135481897 C 420.82942560517625 -31.249455318691297 419.8457736011136 -30.843198375491042 418.8937938357825 -30.462947082183554 A 2.25 2.25 0 0 0 417.554 -28.1217A 418.5 418.5 0 0 1 417.603 -27.3906A 2.25 2.25 0 0 0 419.24 -25.2473C 420.2344095636787 -24.996350041832137 421.263177591884 -24.723857265529006 422.32602750000586 -24.42802011236897 C 425.13827203993924 -23.6452396166567 428.1885679595913 -22.699247979960948 431.46186375182947 -21.557891188220474 A 432 432 0 0 1 431.679 -16.6591C 428.51915181844083 -15.23292863980466 425.56439908924574 -14.021053364267214 422.83234158465376 -12.99278956131831 C 421.7997969158701 -12.60417528552435 420.79913758007444 -12.241826195998996 419.8312697999915 -11.904056333608576 A 2.25 2.25 0 0 0 418.389 -9.62433A 418.5 418.5 0 0 1 418.406 -8.89185A 2.25 2.25 0 0 0 419.947 -6.67814" stroke="#191919" stroke-width="0.35 px" style="stroke-width:0.35;stroke-miterlimit:4;stroke-dasharray:none;fill:none;fill-rule: evenodd "/>
<title>b'InvoluteGear'</title>
</g>
</svg>