<?xml version="1.0"?>
<!DOCTYPE svg PUBLIC "-//W3C//DTD SVG 1.1//EN" "http://www.w3.org/Graphics/SVG/1.1/DTD/svg11.dtd">
<svg width="299.67045638405966mm" height="299.8346135963971mm" viewBox="0 0 299.67045638405966 299.8346135963971" xmlns="http://www.w3.org/2000/svg" version="1.1">
<g id="InvoluteGear" transform="translate(149.748383,149.917307) scale(1,-1)">
<path id="InvoluteGear_w0000"  d="M 134.85782980921113 -6.194008326588683 C 135.69868600175724 -6.069504580395665 136.74474859492224 -5.872347841972044 137.9859529850178 -5.5613705636184045 C 140.3382613441856 -4.971620461026675 143.37373166703676 -3.978475449652257 146.9841272912165 -2.3137865363917056 A 147 147 0 0 1 146.984 2.31379C 143.37373166703676 3.978475449652257 140.3382613441856 4.971620461026675 137.9859529850178 5.5613705636184045 C 136.74474859492224 5.872347841972044 135.69868600175724 6.069504580395665 134.85802077323433 6.193967223133635 A 2.25 2.25 0 0 0 133.24 8.33442A 133.5 133.5 0 0 1 133.162 9.49904A 2.25 2.25 0 0 0 134.48 11.836C 135.29689865467395 12.071515351514174 136.30734932056467 12.40633945477721 137.49602983516507 12.87997838883355 C 139.7487436995288 13.777998458442951 142.62475672765774 15.16687071914965 145.98105723722182 17.29792506630476 A 147 147 0 0 1 145.364 21.8842C 141.56419896823078 23.052825629803287 138.42343939048033 23.632520695589406 136.01351353490497 23.903476726611274 C 134.7419345910602 24.046242952362803 133.67892708237764 24.102214059279113 132.8291734526058 24.113516473814546 A 2.25 2.25 0 0 0 130.94 26.0192A 133.5 133.5 0 0 1 130.707 27.163A 2.25 2.25 0 0 0 131.703 29.6549C 132.48073494585492 29.997118805996735 133.43754216840054 30.463635330044326 134.55248677556241 31.091483821804417 C 136.66540641284467 32.28174866901482 139.33063962563043 34.041563720658495 142.37295175847345 36.60095478639757 A 147 147 0 0 1 141.15 41.0641C 137.22844978511856 41.7157975904589 134.03844788153975 41.871698038474534 131.6139097135418 41.81902478113389 C 130.334647572325 41.791032287602576 129.27366454230042 41.70481895728267 128.42998638493393 41.60275945176042 A 2.25 2.25 0 0 0 126.304 43.2396A 133.5 133.5 0 0 1 125.921 44.3422A 2.25 2.25 0 0 0 126.575 46.9445C 127.30044938340026 47.387422964741354 128.18653891504727 47.97730691114988 129.20785140184225 48.74816098940426 C 131.14327171105973 50.209430309819304 133.5501639586796 52.30878421111258 136.22419758271727 55.2508396012344 A 147 147 0 0 1 134.418 59.5112C 130.44385566458863 59.63435015484718 127.26153709472331 59.363673937904146 124.86565255534909 58.98831134772609 C 123.60153567997652 58.79005966162215 122.56151039591592 58.56320037298803 121.73896316766007 58.349600201701975 A 2.25 2.25 0 0 0 119.413 59.6884A 133.5 133.5 0 0 1 118.887 60.7302A 2.25 2.25 0 0 0 119.188 63.3965C 119.8484842858952 63.932097438051265 120.6480438379595 64.63482231382247 121.55749885886539 65.53492606928282 C 123.28088221874916 67.24112347726157 125.38648245202404 69.64255320810125 127.64451937388635 72.91477187447052 A 147 147 0 0 1 125.286 76.8963C 121.33148784945175 76.48872632795823 118.21364116356978 75.7963036695603 115.88916486918393 75.10495010085907 C 114.66275145524415 74.73997702821771 113.6622431929802 74.37652009064942 112.87550526860974 74.05519095371646 A 2.25 2.25 0 0 0 110.392 75.0721A 133.5 133.5 0 0 1 109.732 76.0344A 2.25 2.25 0 0 0 109.675 78.7171C 110.25782014704504 79.33590211799965 110.95658156037813 80.13892778107754 111.73794986900147 81.1522188409038 C 113.2185424626667 83.07289720328032 114.9852761955512 85.73354919322867 116.78702169287365 89.2775383162237 A 147 147 0 0 1 113.919 92.9093C 110.0539567592451 91.97815936769533 107.05622000531918 90.87634656658543 104.84463229046291 89.88133924017293 C 103.6778077143819 89.35615773412181 102.7346705675572 88.86258904528073 101.99778130397074 88.43926506876184 A 2.25 2.25 0 0 0 99.4011 89.1161A 133.5 133.5 0 0 1 98.6181 89.9817A 2.25 2.25 0 0 0 98.2045 92.633C 98.69960259561459 93.3239557451499 99.28509645624158 94.2129521835528 99.92443451660404 95.32134834477708 C 101.1358151341409 97.42223311067303 102.53215496131696 100.29462796193738 103.84545684301568 104.04714497169968 A 147 147 0 0 1 100.519 107.264C 96.81251020344308 105.82623997451282 93.98837806486472 104.33469890622916 91.92914476470312 103.05379375141743 C 90.84273103868367 102.37777568837379 89.97379531202664 101.76290299320516 89.29990451559006 101.24513840349006 A 2.25 2.25 0 0 0 86.6362 101.57A 133.5 133.5 0 0 1 85.7448 102.323A 2.25 2.25 0 0 0 84.9815 104.896C 85.38008829762843 105.6466411711424 85.8418664537358 106.60574422236633 86.32776526300401 107.78946612923316 C 87.2483167885944 110.03306696023026 88.24934499276621 113.0659467186415 89.0507673556496 116.96002786023308 A 147 147 0 0 1 85.3252 119.705C 81.8434421095297 117.78584882191495 79.24331129121674 115.93119607215635 77.37317947277535 114.38725087177819 C 76.38656367549589 113.57245981009223 75.60733554763418 112.84725552640792 75.00846881557466 112.24428984486615 A 2.25 2.25 0 0 0 72.3252 112.211A 133.5 133.5 0 0 1 71.3414 112.839A 2.25 2.25 0 0 0 70.242 115.287C 70.53696430127923 116.08405978262051 70.86678631073153 117.09615422999474 71.19057499314295 118.33407833703322 C 71.80387016300443 120.68035812315044 72.39172337215372 123.81960097756946 72.66696481517006 127.78575628076614 A 147 147 0 0 1 68.6088 130.01C 65.41387585226461 127.64356640669148 63.08414575026811 125.4588982977149 61.436487960151226 123.67946479044781 C 60.56727627388756 122.74044069591807 59.891661089223135 121.91784611134084 59.37850521256171 121.24043927484401 A 2.25 2.25 0 0 0 56.7236 120.85A 133.5 133.5 0 0 1 55.6649 121.341A 2.25 2.25 0 0 0 54.2491 123.621C 54.43510650592197 124.44995559719528 54.627086687146914 125.49698059132952 54.7829872259932 126.76701611352256 C 55.07808177329037 129.17410543639224 55.24226973297337 132.3636915237119 54.986418566051455 136.33114485316815 A 147 147 0 0 1 50.6681 137.994C 47.81699743073236 135.22348152500837 45.79924213391475 132.74778351097424 44.4034608644208 130.76461572991096 C 43.667164392306304 129.71811550975022 43.10721851981511 128.81280984412948 42.688930777327684 128.07305019372293 A 2.25 2.25 0 0 0 40.1098 127.332A 133.5 133.5 0 0 1 38.995 127.678A 2.25 2.25 0 0 0 37.288 129.748C 37.36185294537495 130.59503900586395 37.41256540749046 131.65831036093337 37.39779575396256 132.93779348429973 C 37.36942370950798 135.36273777793022 37.10701648169446 138.54574885885964 36.32463837496923 142.4437009159206 A 147 147 0 0 1 31.8231 143.516C 29.36682355724299 140.39033041200773 27.697049956677525 137.66778138262688 26.578052957627257 135.51626900380256 C 25.987810927650013 134.38096747923166 25.553526614692025 133.40910593361752 25.23757136105271 132.62019449778805 A 2.25 2.25 0 0 0 22.7802 131.542A 133.5 133.5 0 0 1 21.6293 131.736A 2.25 2.25 0 0 0 19.6616 133.561C 19.621876233899002 134.40965084961903 19.53041601181724 135.47019446310304 19.34523973073225 136.73629278099477 C 18.99390739433136 139.13581885701828 18.309587642218204 142.25545402341126 17.014644151539056 146.0143457612745 A 147 147 0 0 1 12.4103 146.478C 10.392598021661692 143.05191052689614 9.100603266808115 140.13109443409624 8.278359066159126 137.84963124688133 C 7.84470436132717 136.645787900502 7.54383142175551 135.62471336719972 7.3358468859506125 134.80072828920933 A 2.25 2.25 0 0 0 5.04415 133.405A 133.5 133.5 0 0 1 3.87757 133.444A 2.25 2.25 0 0 0 1.68428 134.989C 1.5317466761782246 135.82571928973894 1.2997458797289667 136.8646097357302 0.9474674462097585 138.09472969367005 C 0.2794443517288494 140.4260179524141 -0.8145762224956501 143.42660724082089 -2.598976799859768 146.97936114737442 A 147 147 0 0 1 -7.22397 146.825C -8.76708367182141 143.16072590946942 -9.658243903954808 140.09376478562194 -10.169062338962613 137.7230635546411 C -10.438391140168084 136.47216099948906 -10.600483621618949 135.42009457773517 -10.69678595062074 134.57573989082118 A 2.25 2.25 0 0 0 -12.782 132.887A 133.5 133.5 0 0 1 -13.9433 132.77A 2.25 2.25 0 0 0 -16.3231 134.01C -16.585716937266707 134.81797455136245 -16.954118248374627 135.81667280524044 -17.467212417336267 136.98886288343692 C -18.44000538195042 139.21031143069496 -19.9242039552214 142.03830925417864 -22.16621894869419 145.32152635179372 A 147 147 0 0 1 -26.7293 144.552C -27.77031654948479 140.71483474664765 -28.244739483443617 137.55645858566527 -28.435016585736005 135.1388245305484 C -28.53521330447696 133.86318515235473 -28.5556327836355 132.79890099236934 -28.538534388491705 131.94924422592285 A 2.25 2.25 0 0 0 -30.38 129.997A 133.5 133.5 0 0 1 -31.5154 129.727A 2.25 2.25 0 0 0 -34.0392 130.638C -34.407208039043155 131.40439986321977 -34.905435734685426 132.34508413098442 -35.57018946148896 133.43842656972242 C -36.83039278273692 135.5103936035416 -38.67828379635305 138.11533427394554 -41.33790439526167 141.0704254757344 A 147 147 0 0 1 -45.7577 139.699C -46.277987470431576 135.75788402417564 -46.32720701772004 132.5644541234744 -46.19354728789886 130.1430299812098 C -46.12282391135567 128.8654175948989 -46.00120600213255 127.80790787273028 -45.87101200410957 126.96811117187728 A 2.25 2.25 0 0 0 -47.4359 124.788A 133.5 133.5 0 0 1 -48.5251 124.369A 2.25 2.25 0 0 0 -51.1478 124.936C -51.61470169824103 125.64591054648992 -52.23386489338567 126.51179429509779 -53.03841563202797 127.50677837265624 C -54.56354095178731 129.39228959223215 -56.74214874683325 131.7276878815809 -59.77191395858259 134.30191951504017 A 147 147 0 0 1 -63.9695 132.354C -63.95982660862266 128.37833064512824 -63.582964445253374 125.20683383693994 -63.127753044363736 122.82482997871094 C -62.88737163286628 121.56804360758369 -62.62588660973277 120.53617960927684 -62.38492032380969 119.7212291660392 A 2.25 2.25 0 0 0 -63.6452 117.352A 133.5 133.5 0 0 1 -64.6689 116.791A 2.25 2.25 0 0 0 -67.3437 117.004C -67.90112978285879 117.64526697945105 -68.6301794956202 118.42089849289505 -69.56017001911005 119.29976869483833 C -71.32300143991877 120.96517710778912 -73.79344870867975 122.9893577782826 -77.13929230128966 125.1367926189285 A 147 147 0 0 1 -81.0398 122.647C -80.50030112574645 118.7078629143794 -79.70408236595277 115.6148946343803 -78.9354425522277 113.31481797546773 C -78.52969271775889 112.10128500209072 -78.13300678714751 111.11348036514072 -77.7855682624052 110.33791898948455 A 2.25 2.25 0 0 0 -78.7189 107.822A 133.5 133.5 0 0 1 -79.6586 107.13A 2.25 2.25 0 0 0 -82.3379 106.984C -82.9758605978938 107.54524083609579 -83.80178691887627 108.21677895164345 -84.84062152429007 108.96385181839705 C -86.80970127768158 110.37943817213932 -89.52790283012058 112.05627967175884 -93.13011814541646 113.73859669398641 A 147 147 0 0 1 -96.664 110.751C -95.60424586219375 106.91905055768198 -94.40287904860695 103.95980489810245 -93.33452721773182 101.78270036097442 C -92.77064957570013 100.63407631000669 -92.24584160744028 99.70795843156145 -91.79813089258379 98.98562603460871 A 2.25 2.25 0 0 0 -92.3878 96.3678A 133.5 133.5 0 0 1 -93.2268 95.5563A 2.25 2.25 0 0 0 -95.8627 95.0544C -96.5698852148248 95.52606732222631 -97.47794946926379 96.08152842629669 -98.60709012845754 96.6834724248549 C -100.74727993958422 97.82397554737025 -103.66472940460255 99.12355459982999 -107.45903482494488 100.31073281652274 A 147 147 0 0 1 -110.563 96.8787C -109.00213056632359 93.2222652108234 -107.41705411819305 90.44954998056446 -106.06805503389953 88.43426804726258 C -105.35611199418554 87.37105014210506 -104.71254719890378 86.52314561764558 -104.17255370224613 85.86693223813229 A 2.25 2.25 0 0 0 -104.408 83.1938A 133.5 133.5 0 0 1 -105.131 82.2778A 2.25 2.25 0 0 0 -107.677 81.429C -108.44061794231415 81.80222887393717 -109.41461570207682 82.23170074996897 -110.61391287323731 82.67777417541723 C -112.88702100421754 83.52284176146539 -115.95165642699634 84.42196734778658 -119.87034248227032 85.09282153554284 A 147 147 0 0 1 -122.489 81.2777C -120.45486966818895 77.86192633280119 -118.51436931228271 75.32522070083367 -116.90879589518839 73.50772412520064 C -116.06149209820205 72.54888551455896 -115.31065490491649 71.79432522041145 -114.68801482319826 71.21594100164099 A 2.25 2.25 0 0 0 -114.565 68.5353A 133.5 133.5 0 0 1 -115.16 67.531A 2.25 2.25 0 0 0 -117.57 66.3505C -118.37622527361701 66.61862771346183 -119.3987755256059 66.9144464256529 -120.64682772230194 67.19668908714638 C -123.01229050468747 67.73124088563428 -126.16942339350464 68.21386808842837 -130.1425610382185 68.35642683837482 A 147 147 0 0 1 -132.23 64.2262C -129.75808876719665 61.11213953478688 -127.49679277833717 58.85671107320889 -125.66329652410684 57.26943312469417 C -124.69575212617836 56.432084306290555 -123.85104124239085 55.78433338877993 -123.15686560262091 55.29409961083844 A 2.25 2.25 0 0 0 -122.678 52.6538A 133.5 133.5 0 0 1 -123.133 51.5792A 2.25 2.25 0 0 0 -125.364 50.088C -126.19940606052728 50.246215563215245 -127.25226137127102 50.40310221963847 -128.52679707248566 50.51647749019638 C -130.94240276688592 50.730974411616224 -134.13569401054673 50.78849073701569 -138.0923825093052 50.40021008488224 A 147 147 0 0 1 -139.61 46.0287C -136.7457716981275 43.27180515900089 -134.20403295680708 41.3379020421414 -132.17533264953383 40.00916773333954 C -131.1048135033658 39.30825121667556 -130.1813028148091 38.778868806270296 -129.42797919772445 38.385533702539 A 2.25 2.25 0 0 0 -128.601 35.8326A 133.5 133.5 0 0 1 -128.91 34.7069A 2.25 2.25 0 0 0 -130.922 32.9317C -131.77055545656808 32.977158505888085 -132.8349275981038 32.992313460442865 -134.11320268405453 32.934798155676184 C -136.53584474962625 32.825412497383724 -139.708309990237 32.45679156519923 -143.57794214304406 31.544600388421742 A 147 147 0 0 1 -144.5 27.0098C -141.29322309353785 24.65928439502438 -138.51639898781022 23.081417169818756 -136.32869683253816 22.034937795948636 C -135.17430637765497 21.482961452869176 -134.18847595444478 21.081394391224265 -133.38944743783887 20.79197703594753 A 2.25 2.25 0 0 0 -132.23 18.372A 133.5 133.5 0 0 1 -132.385 17.2152A 2.25 2.25 0 0 0 -134.143 15.1877C -134.990256168784 15.119623273779958 -136.04715139503057 14.992776085943245 -137.3063550165257 14.765396567828098 C -139.69280134821528 14.334080319486949 -142.78782786840023 13.545900178986123 -146.5013499978157 12.1260765507244 A 147 147 0 0 1 -146.81 7.50884C -143.3192935755454 5.6067181168293665 -140.3569365973615 4.413043861291774 -138.04927219087907 3.667493871571655 C -136.83161055229615 3.274307732995532 -135.80105256168937 3.007721993839332 -134.97057782837044 2.8273870465784885 A 2.25 2.25 0 0 0 -133.499 0.583616A 133.5 133.5 0 0 1 -133.499 -0.583616A 2.25 2.25 0 0 0 -134.97 -2.82733C -135.80105256168937 -3.007721993839298 -136.83161055229615 -3.2743077329954966 -138.04927219087907 -3.6674938715716214 C -140.3569365973615 -4.413043861291738 -143.3192935755454 -5.606718116829329 -146.81043779119491 -7.508837410292706 A 147 147 0 0 1 -146.501 -12.1261C -142.78782786840023 -13.545900178986086 -139.69280134821528 -14.334080319486914 -137.3063550165257 -14.765396567828063 C -136.04715139503057 -14.992776085943209 -134.990256168784 -15.119623273779926 -134.14315506004232 -15.187657731618788 A 2.25 2.25 0 0 0 -132.385 -17.2152A 133.5 133.5 0 0 1 -132.23 -18.372A 2.25 2.25 0 0 0 -133.389 -20.7919C -134.1884759544448 -21.081394391224233 -135.174306377655 -21.482961452869144 -136.32869683253818 -22.0349377959486 C -138.51639898781025 -23.081417169818724 -141.29322309353785 -24.659284395024347 -144.49968984418643 -27.00975598983548 A 147 147 0 0 1 -143.578 -31.5446C -139.708309990237 -32.456791565199204 -136.53584474962628 -32.82541249738369 -134.11320268405456 -32.934798155676155 C -132.83492759810383 -32.99231346044284 -131.7705554565681 -32.977158505888056 -130.92194451175743 -32.931678397793036 A 2.25 2.25 0 0 0 -128.91 -34.7069A 133.5 133.5 0 0 1 -128.601 -35.8326A 2.25 2.25 0 0 0 -129.428 -38.3854C -130.18130281480913 -38.778868806270275 -131.10481350336582 -39.308251216675544 -132.17533264953383 -40.009167733339524 C -134.2040329568071 -41.33790204214137 -136.7457716981275 -43.27180515900086 -139.6103415086472 -46.02868483386665 A 147 147 0 0 1 -138.092 -50.4002C -134.13569401054673 -50.788490737015664 -130.94240276688595 -50.730974411616195 -128.52679707248566 -50.51647749019635 C -127.25226137127105 -50.40310221963844 -126.19940606052732 -50.24621556321522 -125.36442876206175 -50.08803248279273 A 2.25 2.25 0 0 0 -123.133 -51.5792A 133.5 133.5 0 0 1 -122.678 -52.6538A 2.25 2.25 0 0 0 -123.157 -55.294C -123.85104124239085 -55.784333388779956 -124.69575212617836 -56.43208430629059 -125.66329652410684 -57.2694331246942 C -127.49679277833717 -58.85671107320892 -129.75808876719665 -61.112139534786905 -132.2296433214558 -64.22623070659766 A 147 147 0 0 1 -130.143 -68.3564C -126.16942339350464 -68.2138680884284 -123.01229050468747 -67.7312408856343 -120.64682772230194 -67.19668908714642 C -119.3987755256059 -66.91444642565294 -118.37622527361701 -66.61862771346186 -117.56978181116867 -66.35056444152946 A 2.25 2.25 0 0 0 -115.16 -67.531A 133.5 133.5 0 0 1 -114.565 -68.5353A 2.25 2.25 0 0 0 -114.688 -71.2158C -115.31065490491652 -71.79432522041142 -116.06149209820208 -72.54888551455893 -116.90879589518843 -73.50772412520061 C -118.51436931228274 -75.32522070083363 -120.45486966818898 -77.86192633280116 -122.48930401661462 -81.27765797082174 A 147 147 0 0 1 -119.87 -85.0928C -115.95165642699637 -84.42196734778655 -112.88702100421757 -83.52284176146534 -110.61391287323735 -82.6777741754172 C -109.41461570207684 -82.23170074996894 -108.4406179423142 -81.80222887393714 -107.67709931857543 -81.42906900593299 A 2.25 2.25 0 0 0 -105.131 -82.2778A 133.5 133.5 0 0 1 -104.408 -83.1938A 2.25 2.25 0 0 0 -104.172 -85.8668C -104.71254719890379 -86.52314561764555 -105.35611199418554 -87.37105014210503 -106.06805503389954 -88.43426804726255 C -107.41705411819306 -90.44954998056443 -109.0021305663236 -93.22226521082337 -110.56314017977144 -96.8786835030531 A 147 147 0 0 1 -107.459 -100.311C -103.66472940460257 -99.12355459982996 -100.74727993958423 -97.82397554737022 -98.60709012845756 -96.68347242485487 C -97.47794946926382 -96.08152842629666 -96.56988521482481 -95.52606732222628 -95.86291643772438 -95.05446990483524 A 2.25 2.25 0 0 0 -93.2268 -95.5563A 133.5 133.5 0 0 1 -92.3878 -96.3678A 2.25 2.25 0 0 0 -91.798 -98.9855C -92.24584160744034 -99.70795843156142 -92.77064957570018 -100.63407631000666 -93.33452721773187 -101.78270036097439 C -94.402879048607 -103.95980489810242 -95.60424586219379 -106.91905055768194 -96.66397448713086 -110.75090663307385 A 147 147 0 0 1 -93.1301 -113.739C -89.52790283012062 -112.0562796717588 -86.80970127768164 -110.37943817213929 -84.84062152429013 -108.96385181839702 C -83.80178691887632 -108.21677895164342 -82.97586059789386 -107.54524083609576 -82.33805754200748 -106.98362153640352 A 2.25 2.25 0 0 0 -79.6586 -107.13A 133.5 133.5 0 0 1 -78.7189 -107.822A 2.25 2.25 0 0 0 -77.7855 -110.338C -78.13300678714754 -111.11348036514069 -78.52969271775893 -112.10128500209069 -78.93544255222774 -113.3148179754677 C -79.7040823659528 -115.61489463438026 -80.50030112574647 -118.70786291437936 -81.03983787975532 -122.64677721048972 A 147 147 0 0 1 -77.1393 -125.137C -73.79344870867978 -122.98935777828255 -71.3230014399188 -120.96517710778907 -69.56017001911009 -119.2997686948383 C -68.63017949562024 -118.42089849289502 -67.90112978285882 -117.64526697945102 -67.34387405882865 -117.00364790716561 A 2.25 2.25 0 0 0 -64.6689 -116.791A 133.5 133.5 0 0 1 -63.6452 -117.352A 2.25 2.25 0 0 0 -62.3849 -119.721C -62.62588660973279 -120.53617960927683 -62.8873716328663 -121.56804360758368 -63.127753044363764 -122.82482997871092 C -63.582964445253396 -125.20683383693992 -63.959826608622684 -128.37833064512824 -63.96954344554615 -132.3540131430283 A 147 147 0 0 1 -59.7719 -134.302C -56.74214874683327 -131.7276878815809 -54.56354095178733 -129.39228959223215 -53.038415632028 -127.50677837265623 C -52.23386489338569 -126.51179429509777 -51.61470169824105 -125.6459105464899 -51.14793754766402 -124.93574140915648 A 2.25 2.25 0 0 0 -48.5251 -124.369A 133.5 133.5 0 0 1 -47.4359 -124.788A 2.25 2.25 0 0 0 -45.871 -126.968C -46.00120600213258 -127.80790787273028 -46.122823911355695 -128.8654175948989 -46.19354728789889 -130.1430299812098 C -46.32720701772008 -132.5644541234744 -46.277987470431604 -135.75788402417564 -45.7577109930846 -139.69938857550477 A 147 147 0 0 1 -41.3379 -141.07C -38.67828379635308 -138.11533427394554 -36.83039278273696 -135.5103936035416 -35.57018946148899 -133.43842656972242 C -34.905435734685454 -132.34508413098442 -34.407208039043184 -131.40439986321977 -34.0392648792442 -130.63835364591827 A 2.25 2.25 0 0 0 -31.5154 -129.727A 133.5 133.5 0 0 1 -30.38 -129.997A 2.25 2.25 0 0 0 -28.5385 -131.949C -28.555632783635502 -132.79890099236934 -28.53521330447697 -133.86318515235473 -28.435016585736008 -135.1388245305484 C -28.244739483443617 -137.55645858566527 -27.770316549484793 -140.71483474664765 -26.729331103931152 -144.5518251093114 A 147 147 0 0 1 -22.1662 -145.322C -19.924203955221405 -142.03830925417864 -18.440005381950428 -139.21031143069496 -17.46721241733627 -136.98886288343692 C -16.954118248374627 -135.81667280524044 -16.58571693726671 -134.81797455136245 -16.323160722649117 -134.0097213669886 A 2.25 2.25 0 0 0 -13.9433 -132.77A 133.5 133.5 0 0 1 -12.782 -132.887A 2.25 2.25 0 0 0 -10.6968 -134.576C -10.600483621618952 -135.42009457773517 -10.438391140168088 -136.47216099948906 -10.169062338962615 -137.7230635546411 C -9.658243903954812 -140.09376478562194 -8.767083671821412 -143.16072590946942 -7.223965667998444 -146.82473089954604 A 147 147 0 0 1 -2.59898 -146.979C -0.8145762224956528 -143.42660724082089 0.27944435172884674 -140.4260179524141 0.9474674462097559 -138.09472969367005 C 1.2997458797289632 -136.8646097357302 1.531746676178222 -135.82571928973894 1.6842306237445026 -134.98968243551576 A 2.25 2.25 0 0 0 3.87757 -133.444A 133.5 133.5 0 0 1 5.04415 -133.405A 2.25 2.25 0 0 0 7.33579 -134.801C 7.543831421755508 -135.62471336719972 7.8447043613271665 -136.645787900502 8.278359066159123 -137.84963124688133 C 9.100603266808113 -140.13109443409624 10.39259802166169 -143.05191052689614 12.41031160641862 -146.47754588853581 A 147 147 0 0 1 17.0146 -146.014C 18.309587642218204 -142.25545402341126 18.99390739433136 -139.13581885701828 19.34523973073225 -136.73629278099477 C 19.530416011817238 -135.47019446310304 19.621876233899002 -134.40965084961903 19.661566834757238 -133.56074942301623 A 2.25 2.25 0 0 0 21.6293 -131.736A 133.5 133.5 0 0 1 22.7802 -131.542A 2.25 2.25 0 0 0 25.2375 -132.62C 25.553526614692053 -133.40910593361752 25.98781092765004 -134.38096747923166 26.578052957627285 -135.51626900380256 C 27.697049956677553 -137.66778138262688 29.36682355724302 -140.39033041200776 31.823126576213404 -143.51646560102722 A 147 147 0 0 1 36.3246 -142.444C 37.10701648169449 -138.5457488588596 37.369423709508006 -135.36273777793022 37.39779575396258 -132.93779348429973 C 37.41256540749049 -131.65831036093337 37.36185294537498 -130.59503900586395 37.28804191981256 -129.74842167295006 A 2.25 2.25 0 0 0 38.995 -127.678A 133.5 133.5 0 0 1 40.1098 -127.332A 2.25 2.25 0 0 0 42.6888 -128.073C 43.10721851981514 -128.81280984412948 43.66716439230633 -129.71811550975022 44.40346086442083 -130.76461572991096 C 45.79924213391479 -132.74778351097424 47.81699743073239 -135.22348152500837 50.668057098351795 -137.99433058490007 A 147 147 0 0 1 54.9864 -136.331C 55.242269732973405 -132.3636915237119 55.07808177329041 -129.17410543639224 54.78298722599323 -126.76701611352256 C 54.62708668714694 -125.49698059132952 54.435106505922 -124.44995559719528 54.24911101343872 -123.62073026433292 A 2.25 2.25 0 0 0 55.6649 -121.341A 133.5 133.5 0 0 1 56.7236 -120.85A 2.25 2.25 0 0 0 59.3784 -121.24C 59.891661089223156 -121.91784611134082 60.567276273887586 -122.74044069591805 61.43648796015125 -123.6794647904478 C 63.08414575026812 -125.45889829771488 65.41387585226462 -127.64356640669148 68.60881494122154 -130.00968347033898 A 147 147 0 0 1 72.667 -127.786C 72.39172337215373 -123.81960097756944 71.80387016300445 -120.68035812315043 71.19057499314296 -118.3340783370332 C 70.86678631073156 -117.09615422999472 70.53696430127924 -116.0840597826205 70.24210343584477 -115.28702399551929 A 2.25 2.25 0 0 0 71.3414 -112.839A 133.5 133.5 0 0 1 72.3252 -112.211A 2.25 2.25 0 0 0 75.0083 -112.244C 75.6073355476342 -112.8472555264079 76.3865636754959 -113.57245981009223 77.37317947277536 -114.38725087177818 C 79.24331129121676 -115.93119607215634 81.84344210952972 -117.78584882191494 85.32524685609218 -119.70501047426318 A 147 147 0 0 1 89.0508 -116.96C 88.24934499276623 -113.06594671864148 87.24831678859441 -110.03306696023024 86.32776526300403 -107.78946612923315 C 85.84186645373582 -106.6057442223663 85.38008829762845 -105.64664117114239 84.98162385837182 -104.89601805230532 A 2.25 2.25 0 0 0 85.7448 -102.323A 133.5 133.5 0 0 1 86.6362 -101.57A 2.25 2.25 0 0 0 89.2997 -101.245C 89.97379531202658 -101.7629029932052 90.84273103868361 -102.37777568837386 91.92914476470307 -103.05379375141749 C 93.98837806486465 -104.3346989062292 96.81251020344303 -105.82623997451287 100.51904771942314 -107.26419873040986 A 147 147 0 0 1 103.845 -104.047C 102.5321549613169 -100.29462796193744 101.13581513414083 -97.4222331106731 99.92443451660398 -95.32134834477714 C 99.28509645624152 -94.21295218355287 98.69960259561454 -93.32395574514997 98.20464518989412 -92.63314018191525 A 2.25 2.25 0 0 0 98.6181 -89.9817A 133.5 133.5 0 0 1 99.4011 -89.1161A 2.25 2.25 0 0 0 101.998 -88.4392C 102.73467056755716 -88.86258904528079 103.67780771438186 -89.35615773412185 104.84463229046287 -89.88133924017298 C 107.05622000531913 -90.87634656658547 110.05395675924505 -91.97815936769537 113.91908379486065 -92.90925481907624 A 147 147 0 0 1 116.787 -89.2775C 114.98527619555115 -85.73354919322871 113.21854246266666 -83.07289720328036 111.73794986900143 -81.15221884090384 C 110.95658156037808 -80.13892778107758 110.257820147045 -79.33590211799971 109.67520230149161 -78.71722173045897 A 2.25 2.25 0 0 0 109.732 -76.0344A 133.5 133.5 0 0 1 110.392 -75.0721A 2.25 2.25 0 0 0 112.875 -74.0551C 113.66224319298017 -74.37652009064946 114.6627514552441 -74.73997702821775 115.8891648691839 -75.10495010085911 C 118.21364116356975 -75.79630366956036 121.33148784945169 -76.48872632795829 125.28623112118568 -76.89634305443509 A 147 147 0 0 1 127.645 -72.9148C 125.38648245202401 -69.6425532081013 123.28088221874913 -67.24112347726162 121.55749885886536 -65.53492606928286 C 120.64804383795949 -64.63482231382251 119.84848428589517 -63.932097438051315 119.18860282976522 -63.39659259237706 A 2.25 2.25 0 0 0 118.887 -60.7302A 133.5 133.5 0 0 1 119.413 -59.6884A 2.25 2.25 0 0 0 121.739 -58.3496C 122.5615103959159 -58.563200372988064 123.60153567997651 -58.7900596616222 124.86565255534907 -58.988311347726125 C 127.26153709472331 -59.36367393790419 130.44385566458857 -59.63435015484723 134.41764268506725 -59.51121422627939 A 147 147 0 0 1 136.224 -55.2508C 133.5501639586796 -52.30878421111263 131.14327171105973 -50.209430309819346 129.20785140184225 -48.74816098940431 C 128.18653891504727 -47.97730691114993 127.30044938340025 -47.387422964741404 126.57507991691124 -46.94464975759102 A 2.25 2.25 0 0 0 125.921 -44.3422A 133.5 133.5 0 0 1 126.304 -43.2396A 2.25 2.25 0 0 0 128.43 -41.6027C 129.27366454230042 -41.70481895728272 130.334647572325 -41.79103228760262 131.6139097135418 -41.81902478113393 C 134.03844788153972 -41.871698038474584 137.22844978511856 -41.71579759045895 141.15036823082067 -41.06410637040888 A 147 147 0 0 1 142.373 -36.601C 139.33063962563043 -34.041563720658544 136.66540641284465 -32.28174866901487 134.55248677556241 -31.09148382180446 C 133.43754216840054 -30.46363533004437 132.48073494585492 -29.997118805996784 131.70282170432066 -29.654978535741378 A 2.25 2.25 0 0 0 130.707 -27.163A 133.5 133.5 0 0 1 130.94 -26.0192A 2.25 2.25 0 0 0 132.829 -24.1135C 133.6789270823776 -24.102214059279152 134.7419345910602 -24.046242952362842 136.01351353490497 -23.903476726611316 C 138.4234393904803 -23.63252069558945 141.56419896823076 -23.052825629803333 145.3642621115808 -21.884208563531686 A 147 147 0 0 1 145.981 -17.2979C 142.6247567276577 -15.166870719149696 139.74874369952877 -13.777998458442994 137.49602983516507 -12.879978388833592 C 136.30734932056467 -12.40633945477725 135.29689865467392 -12.071515351514218 134.4803235183187 -11.836113519381941 A 2.25 2.25 0 0 0 133.162 -9.49904A 133.5 133.5 0 0 1 133.24 -8.33442A 2.25 2.25 0 0 0 134.858 -6.19401" stroke="#191919" stroke-width="0.35 px" style="stroke-width:0.35;stroke-miterlimit:4;stroke-dasharray:none;fill:none;fill-rule: evenodd "/>
<title>b'InvoluteGear'</title>
</g>
</svg>