<?xml version="1.0"?>
<!DOCTYPE svg PUBLIC "-//W3C//DTD SVG 1.1//EN" "http://www.w3.org/Graphics/SVG/1.1/DTD/svg11.dtd">
<svg width="605.7815156227225mm" height="605.8593962770465mm" viewBox="0 0 605.7815156227225 605.8593962770465" xmlns="http://www.w3.org/2000/svg" version="1.1">
<g id="InvoluteGear" transform="translate(302.852038,302.929698) scale(1,-1)">
<path id="InvoluteGear_w0000"  d="M 284.9241896522161 -6.57313859795653 C 285.89041614058635 -6.3134137348670345 286.9132390312958 -6.019118246199418 287.99075634885907 -5.685835925531672 C 290.6661279778346 -4.858293100811659 293.67693081146166 -3.7911489947628985 296.9904435662161 -2.4183435640307946 A 297 297 0 0 1 296.99 2.41834C 293.67693081146166 3.7911489947628985 290.6661279778346 4.858293100811659 287.99075634885907 5.685835925531672 C 286.9132390312958 6.019118246199418 285.89041614058635 6.3134137348670345 284.9241974904183 6.573135645971879 A 2.25 2.25 0 0 0 283.364 8.76996A 283.5 283.5 0 0 1 283.338 9.59055A 2.25 2.25 0 0 0 284.752 11.8837C 285.6995203853472 12.205461302540208 286.701148545197 12.565346742375466 287.75483281762916 12.967677612366053 C 290.3710270306789 13.9666612556146 293.3064396434359 15.22645609562549 296.5241419399853 16.810865593624165 A 297 297 0 0 1 296.211 21.6374C 292.815638871713 22.7928526887498 289.74207417062826 23.66287008759686 287.01874656409615 24.315501091589994 C 285.92191568349546 24.57833696105822 284.882188136586 24.805808121003807 283.90118406268607 25.00244219239582 A 2.25 2.25 0 0 0 282.202 27.0937A 283.5 283.5 0 0 1 282.123 27.9108A 2.25 2.25 0 0 0 283.386 30.2908C 284.3103015540071 30.673142393546822 285.2865338064043 31.097108299946026 286.3119655156857 31.56680020377085 C 288.85800908508816 32.73303458097677 291.7057193363493 34.18019613758111 294.81411501303137 35.96956413879052 A 297 297 0 0 1 294.189 40.7657C 290.72617638190553 41.69895523748361 287.6027414118586 42.36819677380577 284.84288041017504 42.84317859583597 C 283.7313364564258 43.0344655891262 282.67906523197894 43.19415832725312 281.6873904063561 43.326879807301715 A 2.25 2.25 0 0 0 279.857 45.3038A 283.5 283.5 0 0 1 279.724 46.1141A 2.25 2.25 0 0 0 280.831 48.5708C 281.72858651313226 49.01216966568408 282.67532820074564 49.49843777829721 283.6682063299248 50.03352066488214 C 286.1334202641374 51.362114183772334 288.8814838674595 52.99057255847754 291.86753523256226 54.97739383165123 A 297 297 0 0 1 290.934 59.723C 287.417307273861 60.43015787653964 284.25710280658666 60.895816518755694 281.47228422591223 61.191156919993496 C 280.35068940064536 61.31009271297895 279.2902880898666 61.40133722244635 278.29210194137073 61.46958943114022 A 2.25 2.25 0 0 0 276.337 63.3238A 283.5 283.5 0 0 1 276.153 64.1239A 2.25 2.25 0 0 0 277.098 66.647C 277.96520387281356 67.14562286530995 278.8784840319893 67.6921536066826 279.83464410514284 68.29038315244685 C 282.208688440203 69.77576323008418 284.84557906181414 71.57868810253741 287.69676157818617 73.75462922878648 A 297 297 0 0 1 286.458 78.4299C 282.9029100945318 78.90789543249643 279.7191911258145 79.1680180464331 276.9210954630695 79.28247826659768 C 275.79415412476396 79.32856400122945 274.73007041926616 79.35097757085492 273.7295596874984 79.35447423471149 A 2.25 2.25 0 0 0 271.659 81.0783A 283.5 283.5 0 0 1 271.423 81.8647A 2.25 2.25 0 0 0 272.203 84.4437C 273.0359385677125 84.99744398788454 273.9119265840757 85.60194501815451 274.82735813356777 86.26081204048369 C 277.1002753024954 87.89674847661647 279.61493290674423 89.86657775334196 282.31928772405587 92.2225120793899 A 297 297 0 0 1 280.78 96.8077C 277.20191979455205 97.05466585257638 274.0080399481673 97.10816139359181 271.2084033889682 97.04126134674205 C 270.08084232123656 97.01430372343319 269.0175393578759 96.96779234291645 268.0189005325473 96.90651879571232 A 2.25 2.25 0 0 0 265.841 98.4927A 283.5 283.5 0 0 1 265.555 99.2622A 2.25 2.25 0 0 0 266.166 101.886C 266.9614656495595 102.49275629167319 267.7964873249421 103.15269212344057 268.6673507127192 103.86943310507053 C 270.82960731101326 105.64906421375751 273.2114845500023 107.77753574620458 275.75766866431997 110.30358166474288 A 297 297 0 0 1 273.925 114.78C 270.33824830847414 114.79435527518895 267.14760382644937 114.6409993643931 264.35816901946794 114.3930196525749 C 263.2347176052836 114.29313174096598 262.17665524621214 114.17789049520077 261.1840769656078 114.05210373948698 A 2.25 2.25 0 0 0 258.908 115.494A 283.5 283.5 0 0 1 258.573 116.243A 2.25 2.25 0 0 0 259.012 118.901C 259.76726356880187 119.55817835682284 260.5578165321069 120.27078098986527 261.3804590544741 121.04238967003396 C 263.42298582652415 122.95825105993977 265.66209227935207 125.23643729880516 268.0394261096388 127.92199969538842 A 297 297 0 0 1 265.921 132.27C 262.3406842598052 132.05255727791766 259.1666578139253 131.69299314329538 256.3991246181393 131.26497387959913 C 255.28449500316026 131.09257464430496 254.2361111296147 130.90908689512517 253.2537566119887 130.71931452426918 A 2.25 2.25 0 0 0 250.889 132.011A 283.5 283.5 0 0 1 250.506 132.737A 2.25 2.25 0 0 0 250.773 135.418C 251.4835073091284 136.12213187253866 252.2262757064911 136.88441240376622 252.99724691482123 137.70765238751602 C 254.91147679351693 139.75170827016248 256.99842086957614 142.17005371063468 259.19693305156574 145.00386840327272 A 297 297 0 0 1 256.801 149.206C 253.2427722115154 148.75688496391373 250.0986767717467 148.19262074240297 247.36465318316493 147.58635718836786 C 246.26352051135757 147.3421697316942 245.2292124096428 147.09120509048643 244.26120199123443 146.83824307576216 A 2.25 2.25 0 0 0 241.818 147.974A 283.5 283.5 0 0 1 241.388 148.674A 2.25 2.25 0 0 0 241.481 151.366C 242.14494182310105 152.1151418613948 242.8368102257326 152.92390302134834 243.55287639884645 153.79532135409127 C 245.33078043883464 155.95899824874687 247.25680876940575 158.5073595096141 249.2672779789699 161.4775404946657 A 297 297 0 0 1 246.605 165.515C 243.08267196848325 164.83727457769766 239.98169496375058 164.07067698953915 237.292648427444 163.28871202520227 C 236.20963123190452 162.97376055420358 235.19373714964658 162.6563716538894 234.24413100255805 162.34128100589714 A 2.25 2.25 0 0 0 231.733 163.317A 283.5 283.5 0 0 1 231.259 163.987A 2.25 2.25 0 0 0 231.177 166.68C 231.7907362997492 167.47012808153394 232.4288027711277 168.32197764484422 233.08696047864464 169.2379192952535 C 234.7210815325163 171.51214198909116 236.47811568543872 174.17983035760713 238.29210931602512 177.27391966381015 A 297 297 0 0 1 235.374 181.131C 231.90299852201267 180.22627937689865 228.85814652753956 179.2605637987886 226.2253558391912 178.30617725696243 C 225.16499667041282 177.92178278756145 224.17177762044088 177.53930086748923 223.24455872286453 177.1634031859084 A 2.25 2.25 0 0 0 220.675 177.974A 283.5 283.5 0 0 1 220.159 178.612A 2.25 2.25 0 0 0 219.903 181.294C 220.4643198753787 182.12268638451377 221.04590814297939 183.0140513980736 221.64339684274807 183.97067458855517 C 223.12688083890606 186.34590420124863 224.70755120232988 189.1217304653086 226.31746073424443 192.3267504068407 A 297 297 0 0 1 223.155 195.987C 219.75064330774936 194.8593525273315 216.77468749096153 193.6985695060144 214.20919548967777 192.57576441552814 C 213.17594186251523 192.12353923171605 212.20956375069284 191.67756855398045 211.30862118091648 191.24244048432126 A 2.25 2.25 0 0 0 208.692 191.885A 283.5 283.5 0 0 1 208.135 192.489A 2.25 2.25 0 0 0 207.707 195.149C 208.21319947668144 196.01135884868742 208.7358701571938 196.93850061785872 209.27018377396544 197.93179293830158 C 210.59680846498264 200.39806693140463 211.99448515808191 203.27038831098918 213.39355807126466 206.57289592039237 A 297 297 0 0 1 210.001 210.021C 206.67657752670405 208.6751178348507 203.78200008051493 207.32413609771856 201.29456733132068 206.0376218933241 C 200.2927530705673 205.5194627846812 199.35726922253565 205.0118739052904 198.48638184679663 204.5193405258947 A 2.25 2.25 0 0 0 195.834 204.991A 283.5 283.5 0 0 1 195.239 205.558A 2.25 2.25 0 0 0 194.639 208.184C 195.0887605601749 209.07789155508524 195.550321391124 210.03692132508354 196.0192188279027 211.0627165623023 C 197.18341988879035 213.60969052559696 198.3922405697872 216.5664595066379 199.57460866622802 219.95260291929583 A 297 297 0 0 1 195.966 223.173C 192.73563835432162 221.61562717843856 189.93458014247727 220.08011321239636 187.5356398027667 218.63528598176217 C 186.56946686558717 218.05336628766315 185.66880102570852 217.4862882107769 184.8316216483154 216.93841537780537 A 2.25 2.25 0 0 0 182.154 217.238A 283.5 283.5 0 0 1 181.524 217.764A 2.25 2.25 0 0 0 180.755 220.346C 181.1460515837401 221.26747892459525 181.54456661859717 222.2543741912787 181.94608115657974 223.30836980355946 C 182.9429755235 225.92536084310765 183.95786997836333 228.95417570894855 184.91857399536383 232.40975226262046 A 297 297 0 0 1 181.109 235.39C 177.98629893431004 233.62660356476303 175.29050856838754 231.91299784901312 172.99012262763608 230.31591769965746 C 172.06364347909778 229.67267819353071 171.20157335290807 229.04848944167713 170.4016133951101 228.44757512419048 A 2.25 2.25 0 0 0 167.71 228.573A 283.5 283.5 0 0 1 167.048 229.058A 2.25 2.25 0 0 0 166.113 231.585C 166.44355311425824 232.52899359160858 166.7773508424733 233.5396149732584 167.10979839015127 234.6173901367138 C 167.93520474168395 237.29342168262696 168.7519161503694 240.3815785311329 169.48692656141395 243.8920943368549 A 297 297 0 0 1 165.493 246.62C 162.49042312195482 244.6576687847504 159.91120768360224 242.77315877718473 157.71902475988608 241.03052441827865 C 156.83612537551227 240.32866307015448 156.01626678471126 239.64998170787965 155.25688155657718 238.99854634935792 A 2.25 2.25 0 0 0 152.563 238.949A 283.5 283.5 0 0 1 151.87 239.39A 2.25 2.25 0 0 0 150.774 241.851C 151.0429325397898 242.81520084995864 151.31061289768783 243.84530944928443 151.5725990545125 244.94234360032561 C 152.22305534957033 247.66619144631343 152.83815814060256 250.8007374744514 153.3443920565931 254.35146820894377 A 297 297 0 0 1 149.182 256.815C 146.31300600561053 254.66255471730176 143.86118362071713 252.61504470780565 141.78639849105573 250.7341653534586 C 140.95078205769366 249.97662601374506 140.17657377413227 249.24629866654087 139.4609484012139 248.54707461326757 A 2.25 2.25 0 0 0 136.776 248.324A 283.5 283.5 0 0 1 136.056 248.719A 2.25 2.25 0 0 0 134.803 251.104C 135.0087854151183 252.08295677169406 135.20922565825276 253.12823195524217 135.39965156323584 254.23992375139335 C 135.87242956206774 257.0001631329857 136.2833437805778 260.16795096538186 136.55867788054195 263.74400362997795 A 297 297 0 0 1 132.246 265.933C 129.5219012947133 263.5992973938722 127.20775575842977 261.3973753509855 125.25907079269584 259.3861400628615 C 124.4742421760643 258.5761001148128 123.74893149834011 257.7971900293802 123.08006756214891 257.0531100700322 A 2.25 2.25 0 0 0 120.415 256.656A 283.5 283.5 0 0 1 119.671 257.004A 2.25 2.25 0 0 0 118.267 259.303C 118.4083645255448 260.29338916770615 118.54072393787807 261.349446688098 118.65879087859632 262.4711333076259 C 118.95190758597326 265.25618682160535 119.15690971492599 268.44392965520655 119.20018915196309 272.0303050422649 A 297 297 0 0 1 114.754 273.935C 112.18753671774208 271.4304130099385 110.02077436067009 269.0833145599311 108.20636302082578 266.9501591577822 C 107.47561406489017 266.09101619044935 106.80224319804891 265.26679038637695 106.18294614637985 264.4809754508899 A 2.25 2.25 0 0 0 103.549 263.912A 283.5 283.5 0 0 1 102.785 264.211A 2.25 2.25 0 0 0 101.234 266.415C 101.3112978053344 267.41206063119904 101.37502122549303 268.47447101618815 101.42023398816595 269.6014477155967 C 101.5324599707519 272.39963387965116 101.53069015997515 275.5939612131943 101.3417334050856 279.1756168179879 A 297 297 0 0 1 96.782 280.789C 94.38261862385046 278.1230551451018 92.37232760031874 275.6406248345474 90.69980015807589 273.3944965134541 C 90.02619587791061 272.4898540710154 89.40758917338071 271.62376963776427 88.84045655328947 270.79951570706754 A 2.25 2.25 0 0 0 86.2491 270.062A 283.5 283.5 0 0 1 85.4667 270.31A 2.25 2.25 0 0 0 83.7766 272.409C 83.78929629396256 273.4091129801416 83.78411644377692 274.4734201113595 83.7562853903653 275.60095995871944 C 83.68714993338804 278.40054220763824 83.47861560608327 281.5880559221792 83.05821520956422 285.14996903638826 A 297 297 0 0 1 78.4037 286.465C 76.18182702717085 283.64915253238945 74.33643919635762 281.04180253671615 72.81281081305339 278.69212233944194 C 72.19917653910349 277.7457748066864 71.63792864838479 276.8414644033552 71.12533921117257 275.98222868488267 A 2.25 2.25 0 0 0 68.5872 275.078A 283.5 283.5 0 0 1 67.7903 275.276A 2.25 2.25 0 0 0 65.9679 277.26C 65.91585335509411 278.25939249285904 65.84179196065602 279.32113229632466 65.74103382426985 280.4445059976683 C 65.49082690586219 283.23374191057593 65.0764027274689 286.40107246585654 64.42632199468284 289.92830318802766 A 297 297 0 0 1 59.6964 290.939C 57.661502372882076 287.9855267989047 55.988757932667404 285.26419325011244 54.62041923523968 282.8208165519763 C 54.06932876290312 281.83673323933544 53.567793754696716 280.8979898580257 53.11189747860058 280.0073762849862 A 2.25 2.25 0 0 0 50.6376 278.941A 283.5 283.5 0 0 1 49.8296 279.086A 2.25 2.25 0 0 0 47.8826 280.949C 47.76593641987536 281.9425554114839 47.62330412041125 282.99727458148084 47.45004151569045 284.11177031710463 C 47.01981259062125 286.87896086925434 46.401236800166245 290.0128233802006 45.52420239562547 293.4905772788857 A 297 297 0 0 1 40.7388 294.193C 38.899325338852236 291.11398968397697 37.406240360738174 288.2900868006998 36.198930637215305 285.76326197270714 C 35.71269543145053 284.7455704675872 35.27297691787659 283.77633152427666 34.87568599031366 282.8580756395056 A 2.25 2.25 0 0 0 32.4756 281.634A 283.5 283.5 0 0 1 31.6599 281.727A 2.25 2.25 0 0 0 29.5964 283.459C 29.415672547474824 284.44315327074577 29.205067592416867 285.48642794853413 28.960027242938658 286.5873711360084 C 28.351580840834785 289.3209097685577 27.531447960153507 292.4081597267044 26.43113847094169 295.82184989344745 A 297 297 0 0 1 21.6103 296.213C 19.97399101587969 293.02141932704865 18.66682801714817 290.1067915393546 17.625611144080402 287.50711696296776 C 17.206270644319083 286.4600858172141 16.830212957636515 285.46441663686534 16.493193754825363 284.5223699246599 A 2.25 2.25 0 0 0 14.1774 283.145A 283.5 283.5 0 0 1 13.3573 283.185A 2.25 2.25 0 0 0 11.1861 284.78C 10.94202912174109 285.7506976942038 10.664334861461201 286.7781520232213 10.348544551608839 287.86092492421295 C 9.564432708130798 290.54934622616514 8.546182659541154 293.57703463229257 7.227213166040633 296.91234286419296 A 297 297 0 0 1 2.39116 296.991C 0.9648788331338278 293.699815305318 -0.1508794903271946 290.7066875750534 -1.0216362875257587 288.04506718889667 C -1.372323221496499 286.97308801500355 -1.6831427646604515 285.95516478017845 -1.9584766670607898 284.9932785118341 A 2.25 2.25 0 0 0 -4.18027 283.469A 283.5 283.5 0 0 1 -5.00119 283.456A 2.25 2.25 0 0 0 -7.27117 284.907C -7.577508976753327 285.85970438614197 -7.921127796021954 286.8670288658672 -8.306343531944055 287.9270899545392 C -9.262831979226586 290.5591177526614 -10.474928301153891 293.51454542939814 -12.007025582513059 296.75748228462976 A 297 297 0 0 1 -16.838 296.523C -18.04828038675737 293.1463321902928 -18.96795415678586 290.08725873534394 -19.664598621498385 287.3748563002952 C -19.945161086805143 286.2824253514571 -20.18943880126902 285.246517585956 -20.40193255718658 284.2688262467611 A 2.25 2.25 0 0 0 -22.5204 282.604A 283.5 283.5 0 0 1 -23.3387 282.538A 2.25 2.25 0 0 0 -25.6979 283.839C -26.065264369228643 284.76971613461194 -26.473366490742013 285.75268569610694 -26.926391924065463 286.7855887078561 C -28.05124513020133 289.3501833628686 -29.452103772258877 292.2209542194547 -31.190902693037213 295.3579176938464 A 297 297 0 0 1 -35.9965 294.811C -36.9857388464855 291.3632914825066 -37.70547063168073 288.25110312004665 -38.22508079492113 285.4992953945451 C -38.434342015082066 284.390994705808 -38.611053315218896 283.34144736680264 -38.75981565199456 282.3520517340057 A 2.25 2.25 0 0 0 -40.7661 280.554A 283.5 283.5 0 0 1 -41.5784 280.434A 2.25 2.25 0 0 0 -44.0169 281.58C -44.443692984619446 282.4853047291383 -44.91456668625442 283.439796456456 -45.43350167087438 284.44120903709194 C -46.722001610602916 286.92761374775193 -48.30574688481311 289.70168677355144 -50.243954318061505 292.71951935211973 A 297 297 0 0 1 -55.0041 291.863C -55.76806626403825 288.3581718743382 -56.28483725916861 285.2059222039213 -56.625233695334956 282.4262512258885 C -56.76231595606929 281.3067293955027 -56.87071965327479 280.2479446492764 -56.95512660996954 279.2509945920006 A 2.25 2.25 0 0 0 -58.8408 277.327A 283.5 283.5 0 0 1 -59.6437 277.155A 2.25 2.25 0 0 0 -62.1512 278.141C -62.635709306357164 279.01605178504474 -63.16737958016888 279.93806220817146 -63.750047522417205 280.90378408531546 C -65.19678977920582 283.30157000617976 -66.95677890749819 285.9673097748638 -69.0862653376669 288.85335361900326 A 297 297 0 0 1 -73.781 287.69C -74.31648303090599 284.1435778817772 -74.62812571882729 280.96448853400534 -74.78788068697018 278.16861320952705 C -74.85220901763692 277.0425659011106 -74.89185042913206 275.9789846588427 -74.91154797363603 274.97866173209303 A 2.25 2.25 0 0 0 -76.6687 272.936A 283.5 283.5 0 0 1 -77.4588 272.713A 2.25 2.25 0 0 0 -80.0249 273.534C -80.56500969581566 274.3765085548294 -81.15524653190728 275.2621704416293 -81.79920351994275 276.1881510421165 C -83.39811995398794 278.4872610257434 -85.32697093031899 281.0334864983122 -87.638804551271 283.77563653716925 A 297 297 0 0 1 -92.2484 282.311C -92.5531906411378 278.73718697670347 -92.65839788411343 275.54459215711285 -92.63684131637768 272.7442393589354 C -92.62814590160237 271.6163896062288 -92.59885875753096 270.5524728972701 -92.55376427149712 269.552972803038 A 2.25 2.25 0 0 0 -94.175 267.401A 283.5 283.5 0 0 1 -94.949 267.127A 2.25 2.25 0 0 0 -97.5629 267.781C -98.15639243628902 268.5861348951551 -98.80272017624817 269.43173347188565 -99.50526523067208 270.31408891127666 C -101.24964943078672 272.50487969139766 -103.3392719838386 274.9209111133432 -105.82375616194862 277.50766581669035 A 297 297 0 0 1 -110.329 275.748C -110.4016980053123 272.1616754414265 -110.30002852760308 268.9689660021956 -110.09725083972523 266.17588138314596 C -110.01556815109929 265.0509597799677 -109.91747529192156 263.9911700407327 -109.8077779172958 262.99668502976436 A 2.25 2.25 0 0 0 -111.286 260.744A 283.5 283.5 0 0 1 -112.041 260.421A 2.25 2.25 0 0 0 -114.692 260.904C -115.33607315512585 261.66921764544776 -116.03578087579636 262.4712061778118 -116.79396727849878 263.30623555075357 C -118.67650269113122 265.3795181894832 -120.91813221772121 267.65522188539165 -123.56484616292697 270.0757315050422 A 297 297 0 0 1 -127.947 268.028C -127.78714228074914 264.4446232564771 -127.47902251947724 261.26519053053914 -127.09587423155047 258.4910892581751 C -126.94154687465674 257.3738141166668 -126.77505973591379 256.32259647362486 -126.6012195816078 255.33729776166416 A 2.25 2.25 0 0 0 -127.931 252.994A 283.5 283.5 0 0 1 -128.663 252.622A 2.25 2.25 0 0 0 -131.339 252.933C -132.0319943010301 253.65476876045128 -132.78214718506584 254.4097834298334 -133.59279483878544 255.19398433294262 C -135.60558545618775 257.1410627623774 -137.98981978305997 259.266893640085 -140.78766225727713 261.51100571750766 A 297 297 0 0 1 -145.028 259.184C -144.63660287228797 255.61839842058433 -144.12332518881138 252.4655780537229 -143.5614133579087 249.72209567284918 C -143.33508863531452 248.61715323323477 -143.1009055219246 247.57891685850487 -142.86365173395927 246.6069371307653 A 2.25 2.25 0 0 0 -144.039 244.182A 283.5 283.5 0 0 1 -144.745 243.764A 2.25 2.25 0 0 0 -147.436 243.901C -148.17412737847286 244.57640362400733 -148.97157902398166 245.28127763649795 -149.83128779073874 246.0113608586579 C -151.96589126956735 247.8240683552071 -154.4827300893749 249.79110994123442 -157.41996596894757 251.84941189049232 A 297 297 0 0 1 -161.5 249.252C -160.8794072866063 245.72002118803988 -160.16312454590604 242.60703720455615 -159.42480602552448 239.90568083370573 C -159.12743322176985 238.81770560857163 -158.82653637909488 237.79680522632194 -158.52686408230846 236.84222130356852 A 2.25 2.25 0 0 0 -159.543 234.347A 283.5 283.5 0 0 1 -160.221 233.884A 2.25 2.25 0 0 0 -162.915 233.846C -163.69476667153947 234.47220005445317 -164.53617228918597 235.1239769234829 -165.4413362516428 235.79688024193794 C -167.68879932308036 237.46761368040063 -170.32768613914962 239.2676155187406 -173.3919956360372 241.13147410614798 A 297 297 0 0 1 -177.296 238.276C -176.44742755721663 234.79100879288652 -175.5311440980332 231.73091812944563 -174.61951565263095 229.0830181960255 C -174.25234205259915 228.01657353156415 -173.8859935465664 227.01729115278582 -173.52515967071508 226.08410689173192 A 2.25 2.25 0 0 0 -174.377 223.528A 283.5 283.5 0 0 1 -175.024 223.022A 2.25 2.25 0 0 0 -177.71 222.81C -178.5288132252311 223.38453859301856 -179.4106436674458 223.98048453989023 -180.35746625337717 224.59338556427232 C -182.70836227625335 226.11513730798669 -185.45822868019968 227.74054956538436 -188.6367590154494 229.40214712028904 A 297 297 0 0 1 -192.347 226.3C -191.27536599683447 222.87720131120983 -190.16292503042655 219.88283905151098 -189.08181034651702 217.29950176805224 C -188.64637600388846 216.25906070380208 -188.21611242744729 215.28558766606685 -187.79563043520508 214.37771716580784 A 2.25 2.25 0 0 0 -188.481 211.772A 283.5 283.5 0 0 1 -189.093 211.225A 2.25 2.25 0 0 0 -191.76 210.839C -192.61404789310592 211.3599247451076 -193.5326044565564 211.89754016541414 -194.51711436299277 212.4478681758289 C -196.96158286239353 213.81425546913565 -199.81089495887267 215.25826060171278 -203.090314271641 216.7106278065235 A 297 297 0 0 1 -206.592 213.375C -205.301029078571 210.02856939192884 -203.99709656895237 207.11249493190368 -202.75103021723376 204.6045557127464 C -202.24916149496553 203.5944822201097 -201.75678752308278 202.65090160764368 -201.2784210620529 201.77215279256492 A 2.25 2.25 0 0 0 -201.793 199.127A 283.5 283.5 0 0 1 -202.369 198.542A 2.25 2.25 0 0 0 -205.005 197.985C -205.89139230600156 198.4487939200473 -206.84282224523972 198.92582386788138 -207.86089009549212 199.41127059740055 C -210.3886781210181 200.61656233713845 -213.3254849048914 201.8731036855417 -216.69203817090184 203.1101488074682 A 297 297 0 0 1 -219.971 199.554C -218.46558829719876 196.2990046625285 -216.97563339046334 193.47344903186993 -215.56984180625344 191.05142704566967 C -215.00364371617846 190.07595772389993 -214.45122453640417 189.1662272417093 -213.91698004176837 188.32028588972804 A 2.25 2.25 0 0 0 -214.259 185.648A 283.5 283.5 0 0 1 -214.796 185.027A 2.25 2.25 0 0 0 -217.391 184.3C -218.30515666724688 184.7052998874532 -219.28546935446232 185.119743533434 -220.33282501816316 185.53827284976936 C -222.93333014836682 186.5774136235134 -225.94531363137017 187.64122081664866 -229.38488035626509 188.65775525854593 A 297 297 0 0 1 -232.427 184.897C -230.71382691634696 181.74609368884498 -229.04409900116954 179.022908249818 -227.4844785629197 176.69696229849708 C -226.85632593659548 175.76018860492943 -226.24617858694893 174.8881239788101 -225.65829686578073 174.07853826194201 A 2.25 2.25 0 0 0 -225.827 171.39A 283.5 283.5 0 0 1 -226.322 170.735A 2.25 2.25 0 0 0 -228.864 169.841C -229.80327333502265 170.18708763750004 -230.80835699812238 170.53720666094688 -231.8806075016363 170.88706310669647 C -234.5429223142621 171.75569439691463 -237.6174491909295 172.6223054577147 -241.1156026365307 173.4140655208628 A 297 297 0 0 1 -243.908 169.465C -241.99437156668301 166.43087643699621 -240.15187406221133 163.82148317570596 -238.44496636004595 161.60136908490762 C -237.75749388788577 160.70722017396469 -237.09217753839255 159.87647914602258 -236.45312437093395 159.10664474811506 A 2.25 2.25 0 0 0 -236.448 156.412A 283.5 283.5 0 0 1 -236.899 155.727A 2.25 2.25 0 0 0 -239.378 154.671C -240.33751521214603 154.95505159779958 -241.36315418095575 155.23937747785322 -242.4558021330376 155.51909363349986 C -245.1687599545416 156.21357209869024 -248.29293459067864 156.87935215919748 -251.83500228574098 157.4430169267354 A 297 297 0 0 1 -254.366 153.321C -252.25990772367683 150.41759025055075 -250.25236870475783 147.93293386916338 -248.40533310277215 145.82796356892865 C -247.66142428323786 144.9801898118817 -246.94372950188156 144.19425679869084 -246.25618529920345 143.46740267274515 A 2.25 2.25 0 0 0 -246.076 140.779A 283.5 283.5 0 0 1 -246.483 140.066A 2.25 2.25 0 0 0 -248.888 138.852C -249.8636980272764 139.07308022100923 -250.90559041552618 139.2904203961185 -252.01405287094292 139.49882303489719 C -254.76627461340217 140.0162357910284 -257.9269931348575 140.47839233829413 -261.4981184165123 140.81159760429952 A 297 297 0 0 1 -263.757 136.535C -261.4673781611599 133.77340041678517 -259.30321794410804 131.42390242764333 -257.3238015515071 129.4429048949403 C -256.5265765967144 128.64506214954858 -255.75951364482458 127.90723362729742 -255.02636220625158 127.2264084521174 A 2.25 2.25 0 0 0 -254.673 124.555A 283.5 283.5 0 0 1 -255.032 123.817A 2.25 2.25 0 0 0 -257.354 122.45C -258.34186565910454 122.60778801445865 -259.39564140803486 122.75723088439807 -260.51526909003053 122.8934458932167 C -263.29521097899243 123.23162273137594 -266.4792162338597 123.48821732023016 -270.06442056162183 123.58956550602036 A 297 297 0 0 1 -272.041 119.175C -269.57816354829515 116.5681184521272 -267.26645937315965 114.3636334663057 -265.1629645501898 112.51491769323187 C -264.31576729865446 111.77035238923949 -263.5025535048245 111.08372306716383 -262.7268699222782 110.45178246013771 A 2.25 2.25 0 0 0 -262.201 107.809A 283.5 283.5 0 0 1 -262.512 107.049A 2.25 2.25 0 0 0 -264.74 105.535C -265.7364577262109 105.62823613575578 -266.79769693411777 105.70915488519377 -267.9237937350959 105.77261093096732 C -270.7197957281801 105.93013341997056 -273.91373289190017 105.98008980353468 -277.4979786728726 105.84915581959748 A 297 297 0 0 1 -279.185 101.316C -276.5582444324717 98.87390928839498 -274.1086923899371 96.82368368203706 -271.8899419249021 95.11500382501885 C -270.99632581631874 94.42683892806552 -270.14037208181185 93.79428876816273 -269.3254098418064 93.21388330781124 A 2.25 2.25 0 0 0 -268.63 90.611A 283.5 283.5 0 0 1 -268.891 89.8326A 2.25 2.25 0 0 0 -271.016 88.1767C -272.0164587396635 88.20564272629153 -273.0807102005022 88.21769795387166 -274.2085528791332 88.2081288798916 C -277.0088875723013 88.18433631567704 -280.19936016243804 88.02744495951733 -283.76761382420165 87.66477798848418 A 297 297 0 0 1 -285.158 83.0321C -282.3783439287117 80.76498858799378 -279.80121829132383 78.87762171979627 -277.4765183947443 77.31614457596226 C -276.540231565626 76.68726648878004 -275.6451280578696 76.11144862624747 -274.7943053952591 75.58501273477648 A 2.25 2.25 0 0 0 -273.932 73.0326A 283.5 283.5 0 0 1 -274.142 72.239A 2.25 2.25 0 0 0 -276.156 70.449C -277.15552819275734 70.41308419760455 -278.21832806604766 70.35622533951289 -279.34318605818424 70.273671281801 C -282.1361078745479 70.06866345865143 -285.3097339402906 69.70558241963923 -288.8470289869322 69.1127036128223 A 297 297 0 0 1 -289.934 64.3998C -287.01405051710015 62.317311457636066 -284.3201606453968 60.60071960015057 -281.8992619165294 59.192994547293694 C -280.9242314792201 58.62604100313077 -279.99373257339624 58.10937061819476 -279.1106181341094 57.63911235068253 A 2.25 2.25 0 0 0 -278.084 55.1479A 283.5 283.5 0 0 1 -278.243 54.3423A 2.25 2.25 0 0 0 -280.137 52.4257C -281.13211104225314 52.325188723515545 -282.18900157597733 52.19965426556278 -283.3061568362848 52.044461484526636 C -286.0799512911373 51.65909827649763 -289.22341954185305 51.091350442690135 -292.71491932865 50.27074653984517 A 297 297 0 0 1 -293.495 45.4973C -290.4459204331835 43.608253866227734 -287.6465654374795 42.06963700226241 -285.1396219669149 40.82156852847338 C -284.12993753791574 40.3189175275243 -283.16794606980665 39.86356171533492 -282.25624394270585 39.451453498381696 A 2.25 2.25 0 0 0 -281.071 37.0319A 283.5 283.5 0 0 1 -281.177 36.2177A 2.25 2.25 0 0 0 -282.943 34.1826C -283.92952811771977 34.017823223631055 -284.9760763456841 33.82413970096014 -286.08084313676176 33.59695912905674 C -288.82387597219764 33.032856883365945 -291.92400160961057 32.262823586484465 -295.35506157307515 31.21793648556003 A 297 297 0 0 1 -295.824 26.4041C -292.65955922187453 24.716288103164487 -289.7664805698666 23.36209972655397 -287.1840073497447 22.278922664746336 C -286.1439038964411 21.842682499992648 -285.1544547925797 21.450551181073553 -284.21798897322486 21.098321539758974 A 2.25 2.25 0 0 0 -282.879 18.7605A 283.5 283.5 0 0 1 -282.932 17.9412A 2.25 2.25 0 0 0 -284.562 15.7961C -285.5360460797717 15.56777515111717 -286.5678624150067 15.30675493973197 -287.6556069609992 15.008539451230707 C -290.3563729440353 14.26806420873594 -293.40015296385224 13.298975236033096 -296.75638204612 12.03418755665442 A 297 297 0 0 1 -296.913 7.20004C -293.64568211279965 5.720653638279137 -290.67101438177014 4.556573685688675 -288.02384320224917 3.6428312568903074 C -286.9576832799857 3.274831671187161 -285.9449266337715 2.9475695805651707 -284.9876249852539 2.6566958884133607 A 2.25 2.25 0 0 0 -283.5 0.410511A 283.5 283.5 0 0 1 -283.5 -0.410511A 2.25 2.25 0 0 0 -284.988 -2.65669C -285.9449266337715 -2.9475695805650997 -286.9576832799857 -3.2748316711870897 -288.02384320224917 -3.6428312568902363 C -290.67101438177014 -4.556573685688602 -293.64568211279965 -5.720653638279062 -296.9130031227274 -7.20003693703987 A 297 297 0 0 1 -296.756 -12.0342C -293.40015296385224 -13.298975236033021 -290.3563729440353 -14.268064208735868 -287.6556069609992 -15.008539451230636 C -286.5678624150067 -15.3067549397319 -285.5360460797717 -15.567775151117099 -284.5619238578911 -15.796072868755495 A 2.25 2.25 0 0 0 -282.932 -17.9412A 283.5 283.5 0 0 1 -282.879 -18.7605A 2.25 2.25 0 0 0 -284.218 -21.0983C -285.1544547925797 -21.45055118107361 -286.1439038964411 -21.842682499992705 -287.18400734974466 -22.278922664746396 C -289.76648056986653 -23.362099726554028 -292.65955922187453 -24.716288103164548 -295.82426787967233 -26.404061973630427 A 297 297 0 0 1 -295.355 -31.2179C -291.92400160961057 -32.26282358648452 -288.8238759721976 -33.032856883366 -286.0808431367617 -33.5969591290568 C -284.9760763456841 -33.824139700960195 -283.92952811771977 -34.01782322363111 -282.94267112960614 -34.18258740678925 A 2.25 2.25 0 0 0 -281.177 -36.2177A 283.5 283.5 0 0 1 -281.071 -37.0319A 2.25 2.25 0 0 0 -282.256 -39.4514C -283.16794606980665 -39.86356171533498 -284.12993753791574 -40.31891752752436 -285.1396219669149 -40.821568528473435 C -287.6465654374795 -42.069637002262475 -290.4459204331835 -43.6082538662278 -293.4947428509265 -45.49733919824312 A 297 297 0 0 1 -292.715 -50.2707C -289.22341954185305 -51.0913504426902 -286.0799512911373 -51.659098276497694 -283.3061568362848 -52.04446148452671 C -282.18900157597733 -52.19965426556284 -281.13211104225314 -52.32518872351561 -280.1366585090716 -52.425728293949724 A 2.25 2.25 0 0 0 -278.243 -54.3423A 283.5 283.5 0 0 1 -278.084 -55.1479A 2.25 2.25 0 0 0 -279.111 -57.6391C -279.9937325733962 -58.109370618194816 -280.92423147922005 -58.62604100313083 -281.8992619165294 -59.192994547293736 C -284.3201606453968 -60.600719600150626 -287.01405051710015 -62.31731145763612 -289.93419887402763 -64.39978477081483 A 297 297 0 0 1 -288.847 -69.1127C -285.3097339402906 -69.70558241963928 -282.1361078745479 -70.06866345865149 -279.34318605818424 -70.27367128180104 C -278.2183280660476 -70.35622533951295 -277.1555281927573 -70.4130841976046 -276.1556553883763 -70.44897745741633 A 2.25 2.25 0 0 0 -274.142 -72.239A 283.5 283.5 0 0 1 -273.932 -73.0326A 2.25 2.25 0 0 0 -274.794 -75.585C -275.6451280578696 -76.11144862624752 -276.540231565626 -76.6872664887801 -277.4765183947443 -77.31614457596233 C -279.80121829132383 -78.87762171979634 -282.3783439287117 -80.76498858799384 -285.1575701077913 -83.0321152655498 A 297 297 0 0 1 -283.768 -87.6648C -280.19936016243804 -88.02744495951738 -277.0088875723013 -88.18433631567711 -274.2085528791332 -88.20812887989167 C -273.0807102005022 -88.21769795387172 -272.0164587396635 -88.20564272629159 -271.016359478105 -88.17673912667547 A 2.25 2.25 0 0 0 -268.891 -89.8326A 283.5 283.5 0 0 1 -268.63 -90.611A 2.25 2.25 0 0 0 -269.325 -93.2139C -270.1403720818118 -93.7942887681628 -270.9963258163187 -94.42683892806559 -271.889941924902 -95.1150038250189 C -274.10869238993706 -96.82368368203711 -276.5582444324717 -98.87390928839504 -279.1848913932591 -101.31618021316037 A 297 297 0 0 1 -277.498 -105.849C -273.91373289190017 -105.98008980353474 -270.71979572818003 -105.93013341997062 -267.92379373509584 -105.77261093096737 C -266.7976969341177 -105.70915488519384 -265.73645772621086 -105.62823613575586 -264.7403267713369 -105.5346569084534 A 2.25 2.25 0 0 0 -262.512 -107.049A 283.5 283.5 0 0 1 -262.201 -107.809A 2.25 2.25 0 0 0 -262.727 -110.452C -263.5025535048245 -111.08372306716387 -264.3157672986544 -111.77035238923953 -265.1629645501898 -112.51491769323192 C -267.26645937315965 -114.36363346630576 -269.5781635482951 -116.56811845212724 -272.0412142206124 -119.17528989109427 A 297 297 0 0 1 -270.064 -123.59C -266.47921623385963 -123.4882173202302 -263.29521097899243 -123.23162273137599 -260.5152690900304 -122.89344589321675 C -259.3956414080348 -122.75723088439811 -258.34186565910454 -122.60778801445869 -257.35388113031985 -122.44992566327029 A 2.25 2.25 0 0 0 -255.032 -123.817A 283.5 283.5 0 0 1 -254.673 -124.555A 2.25 2.25 0 0 0 -255.026 -127.226C -255.75951364482455 -127.90723362729744 -256.5265765967144 -128.64506214954864 -257.3238015515071 -129.44290489494037 C -259.30321794410804 -131.42390242764338 -261.46737816115984 -133.77340041678522 -263.75650165451657 -136.53453698688278 A 297 297 0 0 1 -261.498 -140.812C -257.92699313485747 -140.47839233829419 -254.76627461340217 -140.01623579102846 -252.0140528709429 -139.49882303489724 C -250.90559041552615 -139.29042039611855 -249.86369802727637 -139.07308022100926 -248.88800387504364 -138.85159687549685 A 2.25 2.25 0 0 0 -246.483 -140.066A 283.5 283.5 0 0 1 -246.076 -140.779A 2.25 2.25 0 0 0 -246.256 -143.467C -246.94372950188153 -144.1942567986909 -247.66142428323784 -144.98018981188176 -248.40533310277212 -145.8279635689287 C -250.2523687047578 -147.93293386916343 -252.2599077236768 -150.4175902505508 -254.36550265861516 -153.32111078544114 A 297 297 0 0 1 -251.835 -157.443C -248.2929345906786 -156.87935215919754 -245.16875995454157 -156.2135720986903 -242.45580213303757 -155.51909363349992 C -241.36315418095572 -155.23937747785328 -240.337515212146 -154.95505159779964 -239.3782038368173 -154.67087623608518 A 2.25 2.25 0 0 0 -236.899 -155.727A 283.5 283.5 0 0 1 -236.448 -156.412A 2.25 2.25 0 0 0 -236.453 -159.107C -237.09217753839252 -159.87647914602263 -237.75749388788574 -160.70722017396477 -238.44496636004592 -161.6013690849077 C -240.1518740622113 -163.82148317570602 -241.994371566683 -166.43087643699627 -243.9076063462999 -169.4646025625112 A 297 297 0 0 1 -241.116 -173.414C -237.61744919092948 -172.62230545771476 -234.54292231426209 -171.7556943969147 -231.88060750163626 -170.88706310669656 C -230.80835699812235 -170.53720666094696 -229.80327333502262 -170.1870876375001 -228.8643684218904 -169.84141218980858 A 2.25 2.25 0 0 0 -226.322 -170.735A 283.5 283.5 0 0 1 -225.827 -171.39A 2.25 2.25 0 0 0 -225.658 -174.079C -226.2461785869489 -174.88812397881017 -226.85632593659545 -175.76018860492948 -227.48447856291966 -176.69696229849714 C -229.0440990011695 -179.02290824981804 -230.71382691634693 -181.74609368884504 -232.4266767690806 -184.89730090331986 A 297 297 0 0 1 -229.385 -188.658C -225.94531363137014 -187.6412208166487 -222.9333301483668 -186.57741362351345 -220.33282501816313 -185.5382728497694 C -219.2854693544623 -185.11974353343405 -218.30515666724685 -184.70529988745326 -217.39059630980933 -184.299574236743 A 2.25 2.25 0 0 0 -214.796 -185.027A 283.5 283.5 0 0 1 -214.259 -185.648A 2.25 2.25 0 0 0 -213.917 -188.32C -214.45122453640414 -189.16622724170935 -215.00364371617843 -190.0759577239 -215.5698418062534 -191.05142704566973 C -216.97563339046332 -193.47344903187 -218.4655882971987 -196.29900466252857 -219.97086893550932 -199.55447570778378 A 297 297 0 0 1 -216.692 -203.11C -213.32548490489134 -201.8731036855418 -210.38867812101807 -200.6165623371385 -207.8608900954921 -199.4112705974006 C -206.8428222452397 -198.92582386788143 -205.89139230600153 -198.44879392004736 -205.00501248822997 -197.98471982069702 A 2.25 2.25 0 0 0 -202.369 -198.542A 283.5 283.5 0 0 1 -201.793 -199.127A 2.25 2.25 0 0 0 -201.278 -201.772C -201.75678752308272 -202.6509016076437 -202.2491614949655 -203.59448222010974 -202.75103021723373 -204.60455571274642 C -203.99709656895234 -207.11249493190374 -205.30102907857096 -210.0285693919289 -206.5924268323394 -213.3746496910445 A 297 297 0 0 1 -203.09 -216.711C -199.81089495887264 -215.25826060171278 -196.9615828623935 -213.8142554691357 -194.51711436299274 -212.44786817582892 C -193.53260445655638 -211.89754016541417 -192.61404789310586 -211.35992474510763 -191.7595663999948 -210.83944868516713 A 2.25 2.25 0 0 0 -189.093 -211.225A 283.5 283.5 0 0 1 -188.481 -211.772A 2.25 2.25 0 0 0 -187.796 -214.378C -188.21611242744729 -215.28558766606685 -188.64637600388846 -216.25906070380208 -189.08181034651702 -217.29950176805224 C -190.16292503042655 -219.88283905151098 -191.27536599683447 -222.87720131120983 -192.34746429508897 -226.2998562405662 A 297 297 0 0 1 -188.637 -229.402C -185.45822868019968 -227.74054956538436 -182.70836227625335 -226.11513730798669 -180.35746625337717 -224.59338556427232 C -179.4106436674458 -223.98048453989023 -178.5288132252311 -223.38453859301856 -177.70981404911592 -222.80984362996145 A 2.25 2.25 0 0 0 -175.024 -223.022A 283.5 283.5 0 0 1 -174.377 -223.528A 2.25 2.25 0 0 0 -173.525 -226.084C -173.88599354656637 -227.01729115278582 -174.25234205259912 -228.01657353156415 -174.61951565263092 -229.0830181960255 C -175.53114409803314 -231.73091812944563 -176.4474275572166 -234.79100879288652 -177.29572964711383 -238.27588254825324 A 297 297 0 0 1 -173.392 -241.131C -170.3276861391496 -239.2676155187406 -167.6887993230803 -237.46761368040063 -165.44133625164278 -235.79688024193794 C -164.53617228918594 -235.1239769234829 -163.69476667153944 -234.47220005445317 -162.91468497958712 -233.84569665867517 A 2.25 2.25 0 0 0 -160.221 -233.884A 283.5 283.5 0 0 1 -159.543 -234.347A 2.25 2.25 0 0 0 -158.527 -236.842C -158.82653637909485 -237.79680522632196 -159.1274332217698 -238.81770560857169 -159.42480602552442 -239.90568083370576 C -160.16312454590602 -242.6070372045562 -160.87940728660627 -245.7200211880399 -161.50035509437532 -249.2524969978077 A 297 297 0 0 1 -157.42 -251.849C -154.48273008937488 -249.79110994123445 -151.96589126956732 -247.8240683552071 -149.83128779073868 -246.01136085865792 C -148.9715790239816 -245.281277636498 -148.17412737847283 -244.57640362400736 -147.436235104397 -243.90071956847564 A 2.25 2.25 0 0 0 -144.745 -243.764A 283.5 283.5 0 0 1 -144.039 -244.182A 2.25 2.25 0 0 0 -142.864 -246.607C -143.10090552192455 -247.5789168585049 -143.3350886353145 -248.6171532332348 -143.56141335790866 -249.7220956728492 C -144.12332518881135 -252.46557805372294 -144.63660287228794 -255.61839842058433 -145.02759192702845 -259.18365985358486 A 297 297 0 0 1 -140.788 -261.511C -137.98981978305994 -259.266893640085 -135.60558545618773 -257.1410627623774 -133.5927948387854 -255.19398433294265 C -132.7821471850658 -254.40978342983342 -132.03199430103004 -253.6547687604513 -131.3393864214639 -252.93273809891164 A 2.25 2.25 0 0 0 -128.663 -252.622A 283.5 283.5 0 0 1 -127.931 -252.994A 2.25 2.25 0 0 0 -126.601 -255.337C -126.77505973591373 -256.3225964736249 -126.94154687465668 -257.3738141166668 -127.09587423155041 -258.4910892581752 C -127.47902251947718 -261.2651905305392 -127.78714228074908 -264.4446232564771 -127.94653263848714 -268.0277163672444 A 297 297 0 0 1 -123.565 -270.076C -120.91813221772115 -267.65522188539165 -118.67650269113116 -265.37951818948324 -116.79396727849873 -263.3062355507536 C -116.0357808757963 -262.4712061778118 -115.33607315512579 -261.6692176454478 -114.69165470821444 -260.90386882541804 A 2.25 2.25 0 0 0 -112.041 -260.421A 283.5 283.5 0 0 1 -111.286 -260.744A 2.25 2.25 0 0 0 -109.808 -262.997C -109.9174752919215 -263.99117004073275 -110.01556815109922 -265.0509597799677 -110.09725083972516 -266.17588138314596 C -110.30002852760302 -268.96896600219566 -110.40169800531223 -272.1616754414265 -110.32882112749543 -275.74757149224104 A 297 297 0 0 1 -105.824 -277.508C -103.33927198383853 -274.9209111133432 -101.24964943078666 -272.5048796913977 -99.50526523067201 -270.31408891127666 C -98.8027201762481 -269.43173347188565 -98.15639243628897 -268.58613489515517 -97.56286633695002 -267.78067805556407 A 2.25 2.25 0 0 0 -94.949 -267.127A 283.5 283.5 0 0 1 -94.175 -267.401A 2.25 2.25 0 0 0 -92.5538 -269.553C -92.59885875753089 -270.55247289727015 -92.62814590160231 -271.61638960622884 -92.63684131637761 -272.74423935893543 C -92.65839788411336 -275.5445921571129 -92.55319064113775 -278.73718697670347 -92.24835219871814 -282.3108454733412 A 297 297 0 0 1 -87.6388 -283.776C -85.32697093031894 -281.0334864983122 -83.39811995398787 -278.48726102574346 -81.79920351994268 -276.18815104211654 C -81.15524653190722 -275.26217044162934 -80.56500969581559 -274.37650855482946 -80.02486539877461 -273.53432206157834 A 2.25 2.25 0 0 0 -77.4588 -272.713A 283.5 283.5 0 0 1 -76.6687 -272.936A 2.25 2.25 0 0 0 -74.9115 -274.979C -74.89185042913202 -275.9789846588427 -74.85220901763688 -277.0425659011106 -74.78788068697014 -278.16861320952705 C -74.62812571882723 -280.96448853400534 -74.31648303090594 -284.1435778817772 -73.78096162224989 -287.69000965856907 A 297 297 0 0 1 -69.0863 -288.853C -66.95677890749815 -285.9673097748638 -65.19678977920576 -283.30157000617976 -63.75004752241716 -280.90378408531546 C -63.167379580168834 -279.93806220817146 -62.63570930635712 -279.01605178504474 -62.15121236450928 -278.1406680609668 A 2.25 2.25 0 0 0 -59.6437 -277.155A 283.5 283.5 0 0 1 -58.8408 -277.327A 2.25 2.25 0 0 0 -56.9551 -279.251C -56.87071965327473 -280.2479446492764 -56.76231595606923 -281.3067293955027 -56.6252336953349 -282.4262512258885 C -56.284837259168555 -285.2059222039213 -55.76806626403819 -288.3581718743382 -55.00410805204046 -291.8625019639401 A 297 297 0 0 1 -50.244 -292.72C -48.305746884813054 -289.70168677355144 -46.72200161060286 -286.92761374775193 -45.43350167087432 -284.44120903709194 C -44.91456668625436 -283.439796456456 -44.44369298461939 -282.4853047291383 -44.016875546513404 -281.5803954377896 A 2.25 2.25 0 0 0 -41.5784 -280.434A 283.5 283.5 0 0 1 -40.7661 -280.554A 2.25 2.25 0 0 0 -38.7598 -282.352C -38.61105331521884 -283.34144736680264 -38.43434201508201 -284.390994705808 -38.22508079492108 -285.4992953945451 C -37.70547063168067 -288.25110312004665 -36.98573884648545 -291.3632914825066 -35.9965481373814 -294.8108215066819 A 297 297 0 0 1 -31.1909 -295.358C -29.452103772258813 -292.2209542194547 -28.051245130201266 -289.3501833628686 -26.926391924065406 -286.7855887078561 C -26.473366490741956 -285.75268569610694 -26.065264369228586 -284.76971613461194 -25.697916655529426 -283.8390767800387 A 2.25 2.25 0 0 0 -23.3387 -282.538A 283.5 283.5 0 0 1 -22.5204 -282.604A 2.25 2.25 0 0 0 -20.4019 -284.269C -20.189438801268963 -285.246517585956 -19.945161086805086 -286.2824253514571 -19.664598621498325 -287.3748563002952 C -18.967954156785805 -290.08725873534394 -18.04828038675731 -293.1463321902928 -16.838006190149024 -296.5226020100188 A 297 297 0 0 1 -12.007 -296.757C -10.474928301153833 -293.51454542939814 -9.262831979226526 -290.5591177526614 -8.306343531943998 -287.9270899545392 C -7.9211277960218975 -286.8670288658672 -7.577508976753268 -285.85970438614197 -7.2711717714345445 -284.90723839321726 A 2.25 2.25 0 0 0 -5.00119 -283.456A 283.5 283.5 0 0 1 -4.18027 -283.469A 2.25 2.25 0 0 0 -1.95848 -284.993C -1.6831427646603956 -285.95516478017845 -1.3723232214964423 -286.97308801500355 -1.021636287525702 -288.04506718889667 C -0.15087949032713688 -290.7066875750534 0.9648788331338864 -293.699815305318 2.3911602066658175 -296.9906636716338 A 297 297 0 0 1 7.22721 -296.912C 8.546182659541213 -293.57703463229257 9.564432708130855 -290.54934622616514 10.348544551608896 -287.86092492421295 C 10.664334861461258 -286.7781520232213 10.942029121741147 -285.7506976942038 11.186070933980622 -284.78040003630724 A 2.25 2.25 0 0 0 13.3573 -283.185A 283.5 283.5 0 0 1 14.1774 -283.145A 2.25 2.25 0 0 0 16.4932 -284.522C 16.83021295763664 -285.46441663686534 17.206270644319208 -286.4600858172141 17.625611144080526 -287.50711696296776 C 18.666828017148298 -290.1067915393546 19.973991015879815 -293.02141932704865 21.610297246586967 -296.2130432782554 A 297 297 0 0 1 26.4311 -295.822C 27.53144796015363 -292.4081597267044 28.351580840834913 -289.3209097685577 28.960027242938782 -286.5873711360084 C 29.20506759241699 -285.48642794853413 29.415672547474948 -284.44315327074577 29.596395370464112 -283.459093713457 A 2.25 2.25 0 0 0 31.6599 -281.727A 283.5 283.5 0 0 1 32.4756 -281.634A 2.25 2.25 0 0 0 34.8757 -282.858C 35.27297691787671 -283.77633152427666 35.712695431450655 -284.74557046758724 36.198930637215426 -285.76326197270714 C 37.406240360738295 -288.2900868006998 38.899325338852364 -291.11398968397697 40.73879318974652 -294.1930024400555 A 297 297 0 0 1 45.5242 -293.491C 46.40123680016637 -290.0128233802006 47.01981259062137 -286.87896086925434 47.45004151569057 -284.11177031710463 C 47.62330412041136 -282.9972745814808 47.76593641987548 -281.9425554114839 47.88258223928909 -280.948861442571 A 2.25 2.25 0 0 0 49.8296 -279.086A 283.5 283.5 0 0 1 50.6376 -278.941A 2.25 2.25 0 0 0 53.1119 -280.007C 53.56779375469684 -280.8979898580257 54.06932876290324 -281.8367332393354 54.620419235239794 -282.82081655197624 C 55.988757932667525 -285.2641932501124 57.6615023728822 -287.98552679890463 59.69641647653643 -290.93901391032347 A 297 297 0 0 1 64.4263 -289.928C 65.07640272746903 -286.4010724658565 65.4908269058623 -283.2337419105759 65.74103382426996 -280.4445059976682 C 65.84179196065614 -279.3211322963246 65.91585335509423 -278.25939249285904 65.96793291782838 -277.2602320101607 A 2.25 2.25 0 0 0 67.7903 -275.276A 283.5 283.5 0 0 1 68.5872 -275.078A 2.25 2.25 0 0 0 71.1253 -275.982C 71.6379286483849 -276.84146440335513 72.1991765391036 -277.7457748066864 72.8128108130535 -278.6921223394419 C 74.33643919635773 -281.0418025367161 76.18182702717097 -283.64915253238945 78.40365224665187 -286.4647260477938 A 297 297 0 0 1 83.0582 -285.15C 83.47861560608338 -281.5880559221792 83.68714993338816 -278.4005422076382 83.75628539036542 -275.6009599587194 C 83.78411644377704 -274.4734201113595 83.78929629396268 -273.4091129801415 83.77659116023233 -272.408676809955 A 2.25 2.25 0 0 0 85.4667 -270.31A 283.5 283.5 0 0 1 86.2491 -270.062A 2.25 2.25 0 0 0 88.8405 -270.8C 89.40758917338084 -271.6237696377642 90.02619587791074 -272.4898540710154 90.69980015807602 -273.3944965134541 C 92.37232760031887 -275.64062483454734 94.38261862385059 -278.1230551451017 96.78203585204882 -280.78890557068706 A 297 297 0 0 1 101.342 -279.176C 101.53069015997528 -275.59396121319423 101.53245997075203 -272.3996338796511 101.42023398816607 -269.6014477155967 C 101.37502122549316 -268.47447101618815 101.31129780533453 -267.412060631199 101.2338612648859 -266.4145449504982 A 2.25 2.25 0 0 0 102.785 -264.211A 283.5 283.5 0 0 1 103.549 -263.912A 2.25 2.25 0 0 0 106.183 -264.481C 106.80224319804903 -265.26679038637695 107.4756140648903 -266.09101619044935 108.2063630208259 -266.95015915778214 C 110.02077436067022 -269.08331455993107 112.1875367177422 -271.4304130099385 114.75448196494621 -273.93535884257125 A 297 297 0 0 1 119.2 -272.03C 119.15690971492612 -268.44392965520655 118.95190758597339 -265.2561868216053 118.65879087859645 -262.47113330762585 C 118.5407239378782 -261.349446688098 118.40836452554491 -260.29338916770615 118.26652137413976 -259.3029779039172 A 2.25 2.25 0 0 0 119.671 -257.004A 283.5 283.5 0 0 1 120.415 -256.656A 2.25 2.25 0 0 0 123.08 -257.053C 123.74893149834024 -257.79719002938015 124.47424217606441 -258.5761001148128 125.25907079269592 -259.38614006286144 C 127.20775575842988 -261.39737535098544 129.52190129471342 -263.5992973938722 132.24560790047985 -265.9328320202002 A 297 297 0 0 1 136.559 -263.744C 136.28334378057792 -260.16795096538186 135.87242956206785 -257.0001631329856 135.39965156323592 -254.2399237513933 C 135.20922565825288 -253.12823195524214 135.0087854151184 -252.08295677169403 134.8031305922277 -251.1038040538495 A 2.25 2.25 0 0 0 136.056 -248.719A 283.5 283.5 0 0 1 136.776 -248.324A 2.25 2.25 0 0 0 139.461 -248.547C 140.17657377413238 -249.2462986665408 140.95078205769377 -249.97662601374498 141.78639849105585 -250.73416535345856 C 143.8611836207172 -252.61504470780557 146.31300600561065 -254.6625547173017 149.18204979787998 -256.8148904821415 A 297 297 0 0 1 153.344 -254.351C 152.83815814060267 -250.80073747445135 152.22305534957042 -247.66619144631335 151.5725990545126 -244.94234360032553 C 151.31061289768795 -243.84530944928434 151.04293253978992 -242.8152008499586 150.77432863321093 -241.85141358483673 A 2.25 2.25 0 0 0 151.87 -239.39A 283.5 283.5 0 0 1 152.563 -238.949A 2.25 2.25 0 0 0 155.257 -238.999C 156.01626678471135 -239.6499817078796 156.83612537551232 -240.3286630701544 157.71902475988614 -241.0305244182786 C 159.9112076836023 -242.77315877718468 162.49042312195488 -244.65766878475034 165.49277033399912 -246.61977804391458 A 297 297 0 0 1 169.487 -243.892C 168.75191615036945 -240.38157853113285 167.935204741684 -237.2934216826269 167.10979839015133 -234.61739013671374 C 166.77735084247337 -233.53961497325832 166.44355311425832 -232.52899359160853 166.11312674212172 -231.58461423793904 A 2.25 2.25 0 0 0 167.048 -229.058A 283.5 283.5 0 0 1 167.71 -228.573A 2.25 2.25 0 0 0 170.402 -228.448C 171.20157335290818 -229.04848944167705 172.0636434790979 -229.67267819353066 172.9901226276362 -230.3159176996574 C 175.29050856838765 -231.91299784901304 177.98629893431016 -233.62660356476297 181.1093566785325 -235.3902565501375 A 297 297 0 0 1 184.919 -232.41C 183.95786997836345 -228.9541757089485 182.9429755235001 -225.92536084310757 181.94608115657985 -223.3083698035594 C 181.5445666185973 -222.25437419127866 181.14605158374022 -221.26747892459517 180.75518866908206 -220.3464685375824 A 2.25 2.25 0 0 0 181.524 -217.764A 283.5 283.5 0 0 1 182.154 -217.238A 2.25 2.25 0 0 0 184.832 -216.938C 185.6688010257086 -217.48628821077685 186.5694668655873 -218.05336628766307 187.5356398027668 -218.6352859817621 C 189.9345801424774 -220.0801132123963 192.7356383543217 -221.61562717843853 195.96630744120358 -223.17342651648997 A 297 297 0 0 1 199.575 -219.953C 198.39224056978728 -216.5664595066378 197.18341988879047 -213.6096905255969 196.01921882790282 -211.06271656230226 C 195.5503213911241 -210.03692132508345 195.088760560175 -209.0778915550852 194.6391005178938 -208.18411317236598 A 2.25 2.25 0 0 0 195.239 -205.558A 283.5 283.5 0 0 1 195.834 -204.991A 2.25 2.25 0 0 0 198.486 -204.519C 199.3572692225357 -205.01187390529034 200.29275307056736 -205.51946278468114 201.29456733132074 -206.03762189332403 C 203.782000080515 -207.3241360977185 206.6765775267041 -208.67511783485062 210.0013074073582 -210.02052957378166 A 297 297 0 0 1 213.394 -206.573C 211.99448515808197 -203.2703883109891 210.5968084649827 -200.39806693140457 209.2701837739655 -197.93179293830153 C 208.73587015719386 -196.93850061785867 208.2131994766815 -196.01135884868737 207.7066283372625 -195.1485612874088 A 2.25 2.25 0 0 0 208.135 -192.489A 283.5 283.5 0 0 1 208.692 -191.885A 2.25 2.25 0 0 0 211.309 -191.242C 212.20956375069292 -191.67756855398036 213.17594186251532 -192.12353923171597 214.20919548967788 -192.57576441552803 C 216.7746874909616 -193.6985695060143 219.75064330774944 -194.8593525273314 223.155488909631 -195.98673354274524 A 297 297 0 0 1 226.317 -192.327C 224.70755120232997 -189.12173046530847 223.12688083890615 -186.34590420124854 221.6433968427482 -183.97067458855506 C 221.04590814297947 -183.01405139807352 220.46431987537878 -182.12268638451368 219.90296237422663 -181.2944885174911 A 2.25 2.25 0 0 0 220.159 -178.612A 283.5 283.5 0 0 1 220.675 -177.974A 2.25 2.25 0 0 0 223.245 -177.163C 224.17177762044096 -177.53930086748912 225.1649966704129 -177.92178278756134 226.22535583919128 -178.30617725696231 C 228.85814652753965 -179.26056379878847 231.90299852201275 -180.22627937689853 235.37367873939994 -181.13090104102398 A 297 297 0 0 1 238.292 -177.274C 236.4781156854388 -174.17983035760702 234.7210815325164 -171.51214198909102 233.08696047864473 -169.2379192952534 C 232.42880277112778 -168.3219776448441 231.79073629974928 -167.47012808153383 231.17694696530936 -166.68000365844063 A 2.25 2.25 0 0 0 231.259 -163.987A 283.5 283.5 0 0 1 231.733 -163.317A 2.25 2.25 0 0 0 234.244 -162.341C 235.1937371496467 -162.65637165388927 236.2096312319046 -162.97376055420347 237.29264842744408 -163.28871202520213 C 239.98169496375067 -164.070676989539 243.08267196848334 -164.83727457769754 246.60462956239775 -165.51534259289696 A 297 297 0 0 1 249.267 -161.478C 247.25680876940584 -158.50735950961393 245.33078043883472 -155.95899824874672 243.55287639884654 -153.79532135409113 C 242.83681022573268 -152.92390302134822 242.1449418231011 -152.11514186139465 241.4812951011489 -151.36640493864897 A 2.25 2.25 0 0 0 241.388 -148.674A 283.5 283.5 0 0 1 241.818 -147.974A 2.25 2.25 0 0 0 244.261 -146.838C 245.22921240964288 -147.09120509048628 246.26352051135765 -147.34216973169407 247.36465318316505 -147.5863571883677 C 250.09867677174682 -148.19262074240282 253.24277221151547 -148.7568849639136 256.8012348678414 -149.20555527728592 A 297 297 0 0 1 259.197 -145.004C 256.9984208695762 -142.17005371063453 254.91147679351704 -139.75170827016234 252.99724691482135 -137.70765238751588 C 252.22627570649118 -136.88441240376608 251.4835073091285 -136.12213187253852 250.77278676464945 -135.41792291299885 A 2.25 2.25 0 0 0 250.506 -132.737A 283.5 283.5 0 0 1 250.889 -132.011A 2.25 2.25 0 0 0 253.254 -130.719C 254.2361111296148 -130.90908689512503 255.28449500316032 -131.09257464430482 256.3991246181394 -131.26497387959898 C 259.1666578139254 -131.69299314329524 262.34068425980524 -132.05255727791751 265.92072654950886 -132.26994801024458 A 297 297 0 0 1 268.039 -127.922C 265.6620922793521 -125.23643729880501 263.4229858265242 -122.95825105993961 261.3804590544742 -121.04238967003381 C 260.557816532107 -120.27078098986513 259.767263568802 -119.5581783568227 259.01245021075243 -118.90145105759525 A 2.25 2.25 0 0 0 258.573 -116.243A 283.5 283.5 0 0 1 258.908 -115.494A 2.25 2.25 0 0 0 261.184 -114.052C 262.17665524621225 -114.17789049520061 263.23471760528366 -114.29313174096582 264.358169019468 -114.39301965257475 C 267.1476038264495 -114.64099936439294 270.33824830847425 -114.79435527518879 273.9248542900398 -114.77955461419052 A 297 297 0 0 1 275.758 -110.304C 273.2114845500023 -107.77753574620442 270.8296073110134 -105.64906421375736 268.66735071271927 -103.86943310507037 C 267.7964873249422 -103.15269212344042 266.9614656495596 -102.49275629167303 266.16572542747946 -101.88626519527965 A 2.25 2.25 0 0 0 265.555 -99.2622A 283.5 283.5 0 0 1 265.841 -98.4927A 2.25 2.25 0 0 0 268.019 -96.9065C 269.01753935787593 -96.96779234291628 270.0808423212366 -97.01430372343302 271.20840338896824 -97.04126134674188 C 274.0080399481674 -97.10816139359164 277.2019197945521 -97.0546658525762 280.78004599605924 -96.80773587736844 A 297 297 0 0 1 282.319 -92.2225C 279.6149329067443 -89.86657775334179 277.10027530249545 -87.8967484766163 274.8273581335678 -86.26081204048351 C 273.91192658407573 -85.60194501815434 273.03593856771255 -84.99744398788437 272.20260909263254 -84.44373292875389 A 2.25 2.25 0 0 0 271.423 -81.8647A 283.5 283.5 0 0 1 271.659 -81.0783A 2.25 2.25 0 0 0 273.73 -79.3545C 274.7300704192662 -79.35097757085475 275.794154124764 -79.32856400122927 276.92109546306955 -79.2824782665975 C 279.7191911258146 -79.16801804643292 282.9029100945318 -78.90789543249625 286.4575486112046 -78.42987185320926 A 297 297 0 0 1 287.697 -73.7546C 284.84557906181414 -71.57868810253723 282.20868844020305 -69.775763230084 279.8346441051429 -68.29038315244667 C 278.87848403198933 -67.69215360668241 277.9652038728136 -67.14562286530978 277.0977804181546 -66.64701430005238 A 2.25 2.25 0 0 0 276.153 -64.1239A 283.5 283.5 0 0 1 276.337 -63.3238A 2.25 2.25 0 0 0 278.292 -61.4696C 279.2902880898666 -61.40133722244619 280.35068940064536 -61.310092712978786 281.4722842259123 -61.19115691999333 C 284.25710280658666 -60.895816518755524 287.417307273861 -60.43015787653946 290.93354871643623 -59.72304569018971 A 297 297 0 0 1 291.868 -54.9774C 288.8814838674595 -52.99057255847736 286.1334202641374 -51.362114183772164 283.66820632992483 -50.033520664881976 C 282.67532820074564 -49.498437778297045 281.72858651313226 -49.01216966568391 280.8307073543142 -48.57075493190102 A 2.25 2.25 0 0 0 279.724 -46.1141A 283.5 283.5 0 0 1 279.857 -45.3038A 2.25 2.25 0 0 0 281.687 -43.3269C 282.679065231979 -43.19415832725296 283.7313364564259 -43.03446558912603 284.84288041017504 -42.843178595835795 C 287.60274141185863 -42.36819677380559 290.7261763819056 -41.69895523748343 294.1892724117928 -40.76572031831932 A 297 297 0 0 1 294.814 -35.9696C 291.7057193363494 -34.180196137580936 288.8580090850882 -32.73303458097659 286.3119655156857 -31.56680020377067 C 285.28653380640424 -31.097108299945848 284.31030155400714 -30.67314239354665 283.38573270825697 -30.29077293803423 A 2.25 2.25 0 0 0 282.123 -27.9108A 283.5 283.5 0 0 1 282.202 -27.0937A 2.25 2.25 0 0 0 283.901 -25.0024C 284.882188136586 -24.80580812100388 285.92191568349546 -24.578336961058298 287.01874656409615 -24.315501091590072 C 289.74207417062826 -23.662870087596936 292.815638871713 -22.79285268874988 296.21106406065195 -21.637409348344463 A 297 297 0 0 1 296.524 -16.8109C 293.3064396434359 -15.226456095625569 290.3710270306789 -13.966661255614675 287.75483281762916 -12.967677612366131 C 286.701148545197 -12.565346742375544 285.6995203853472 -12.205461302540282 284.7521398157146 -11.883740915677528 A 2.25 2.25 0 0 0 283.338 -9.59055A 283.5 283.5 0 0 1 283.364 -8.76996A 2.25 2.25 0 0 0 284.924 -6.57314" stroke="#191919" stroke-width="0.35 px" style="stroke-width:0.35;stroke-miterlimit:4;stroke-dasharray:none;fill:none;fill-rule: evenodd "/>
<title>b'InvoluteGear'</title>
</g>
</svg>