<?xml version="1.0"?>
<!DOCTYPE svg PUBLIC "-//W3C//DTD SVG 1.1//EN" "http://www.w3.org/Graphics/SVG/1.1/DTD/svg11.dtd">
<svg width="348.6622620885166mm" height="348.80171795081304mm" viewBox="0 0 348.6622620885166 348.80171795081304" xmlns="http://www.w3.org/2000/svg" version="1.1">
<g id="InvoluteGear" transform="translate(174.258559,174.400859) scale(1,-1)">
<path id="InvoluteGear_w0000"  d="M 158.87488876818537 -6.30632372279803 C 159.76888934327644 -6.140201903653912 160.80850251275942 -5.9112421819518515 161.98675244867613 -5.596341936776274 C 164.42932329245122 -4.943324998931208 167.45720881398398 -3.924601002282052 170.98544566999945 -2.3422330158214466 A 171 171 0 0 1 170.985 2.34223C 167.45720881398398 3.924601002282052 164.42932329245122 4.943324998931208 161.98675244867613 5.596341936776274 C 160.80850251275942 5.9112421819518515 159.76888934327644 6.140201903653912 158.87497317753167 6.306301330574898 A 2.25 2.25 0 0 0 157.272 8.46256A 157.5 157.5 0 0 1 157.212 9.52032A 2.25 2.25 0 0 0 158.558 11.8452C 159.42740371147886 12.112102510253292 160.43414096570305 12.458076782824914 161.56881483378947 12.905234796262214 C 163.92102603294754 13.832427291123977 166.8130492106493 15.189663914742866 170.137911727342 17.163906301536713 A 171 171 0 0 1 169.604 21.8178C 165.91830760763338 22.98770274333853 162.7940328605969 23.654633487784068 160.29294501858408 24.024961794166934 C 159.08647930465278 24.203499064807065 158.0275431674587 24.31245939551841 157.1205198760017 24.37557737835908 A 2.25 2.25 0 0 0 155.283 26.3351A 157.5 157.5 0 0 1 155.102 27.3791A 2.25 2.25 0 0 0 156.174 29.8422C 157.00753805951138 30.206507144865853 157.96827503876176 30.66498566456461 159.04458062988732 31.23857205771843 C 161.27576751420398 32.4278527374682 163.99422640317397 34.10590833304204 167.07236991291683 36.44628785144266 A 171 171 0 0 1 166.011 41.009C 162.21640752226836 41.75112462397513 159.0364732490182 42.05756765402408 156.5094739137092 42.14037953312689 C 155.29052054739594 42.18022632287122 154.22606629447313 42.16776679804768 153.31776031302144 42.12708049737519 A 2.25 2.25 0 0 0 151.269 43.8643A 157.5 157.5 0 0 1 150.97 44.8809A 2.25 2.25 0 0 0 151.755 47.4502C 152.54083903685498 47.907123763946124 153.44305106534918 48.472129562115214 154.44695709013632 49.16466675916347 C 156.5280327264139 50.6005315313703 159.0374880576873 52.577530077955515 161.8287842524171 55.25353630179137 A 171 171 0 0 1 160.255 59.6656C 156.39976848682818 59.97025674502227 153.20562999369892 59.912217107133735 150.68566246597686 59.706432979467934 C 149.47011236856045 59.60706982447432 148.41401678896872 59.47335287307636 147.51626927506553 59.329392697041655 A 2.25 2.25 0 0 0 145.282 60.8217A 157.5 157.5 0 0 1 144.87 61.7977A 2.25 2.25 0 0 0 145.357 64.4397C 146.0855368962057 64.98319776026008 146.91746226039683 65.64736512225537 147.83588126853607 66.44982484173536 C 149.73971565326067 68.1135550132214 152.00745283887704 70.36372331133363 154.4755129039581 73.34047040705295 A 171 171 0 0 1 152.409 77.5443C 148.54421928654278 77.40758485671053 145.37751705359753 76.98581918632456 142.89743296397995 76.49412176270053 C 141.7011326899245 76.25684401365069 140.66716360463388 76.00361284063351 139.7916780700508 75.7582555302899 A 2.25 2.25 0 0 0 137.402 76.9862A 157.5 157.5 0 0 1 136.881 77.9088A 2.25 2.25 0 0 0 137.064 80.589C 137.72578637307922 81.21211639477629 138.4765796535792 81.96678688332106 139.29753864875858 82.86870783558544 C 140.99931238918586 84.73861413921797 142.99576800687367 87.23261780390241 145.10841700494623 90.47129932076454 A 171 171 0 0 1 142.576 94.4121C 138.752169018752 93.83578672014757 135.65418585244416 93.05579337778512 133.24631688983902 92.28459268607412 C 132.08486204272228 91.91249362129646 131.08649882001149 91.54304948226748 130.24468855757434 91.19949364538097 A 2.25 2.25 0 0 0 127.731 92.1471A 157.5 157.5 0 0 1 127.108 93.0042A 2.25 2.25 0 0 0 126.984 95.6878C 127.57056960013523 96.3823108941615 128.23044305834236 97.21764622531785 128.9432395845647 98.2072704914435 C 130.42076745746076 100.25897583890155 132.11991465505804 102.96430171830201 133.849610975552 106.4226964898096 A 171 171 0 0 1 130.884 110.049C 127.15127203370741 109.0406956003468 124.16239488236441 107.91264299207164 121.85813130106024 106.87199281268954 C 120.74666322103067 106.36992331254564 119.79692105230751 105.88908247684911 118.99976034617004 105.45180688915443 A 2.25 2.25 0 0 0 116.394 106.107A 157.5 157.5 0 0 1 115.678 106.887A 2.25 2.25 0 0 0 115.248 109.539C 115.75227535841147 110.2960145732938 116.31262653465166 111.20112487353933 116.9079681991159 112.26555118778204 C 118.14198836906982 114.47230846218255 119.52167616434517 117.35368849619834 120.84587057049328 120.98671105757164 A 171 171 0 0 1 117.486 124.251C 113.89276376489443 122.82409225714352 111.05195721308255 121.36268627383865 108.8813386127786 120.06615307334307 C 107.83434698603077 119.4406583815836 106.94560721290797 118.85468934486411 106.20348827197488 118.32939456237371 A 2.25 2.25 0 0 0 103.54 118.683A 157.5 157.5 0 0 1 102.74 119.377A 2.25 2.25 0 0 0 102.011 121.962C 102.42497318710049 122.7718410264483 102.87849704684474 123.73492679883152 103.34862266049686 124.86027873635489 C 104.32304778740266 127.19331948182575 105.3652898399841 130.21319047521064 106.26671943260789 133.9734788213702 A 171 171 0 0 1 102.557 136.834C 99.14948914387217 135.00628903612795 96.49378744944795 133.23058133971816 94.48511116313256 131.6950674111695 C 93.51624512668842 130.95430180767244 92.70009383126096 130.27084357244777 92.02269131085195 129.66437761598624 A 2.25 2.25 0 0 0 89.3366 129.712A 157.5 157.5 0 0 1 88.462 130.31A 2.25 2.25 0 0 0 87.443 132.796C 87.76240485148713 133.64714877649058 88.10318901764836 134.65565472511864 88.44196977414992 135.82726160241305 C 89.14409673628722 138.2561710649111 89.83530582711559 141.37516438096884 90.3022190929163 145.21369740270262 A 171 171 0 0 1 86.2907 147.633C 83.11364930225828 145.4284723720172 80.67767359818086 143.3616120279201 78.85712579312059 141.60713514364295 C 77.97901599745484 140.76075564090482 77.24609296000116 139.9887181304858 76.6422378379234 139.30898721126573 A 2.25 2.25 0 0 0 73.9682 139.05A 157.5 157.5 0 0 1 73.0312 139.545A 2.25 2.25 0 0 0 71.7354 141.898C 71.95571935333446 142.7801615552592 72.1793211831445 143.8209402627806 72.38234055723612 145.02352839245876 C 72.80301605588868 147.516642022602 73.13418121739693 150.69409681357226 73.16049122790307 154.5608333626623 A 171 171 0 0 1 68.8994 156.507C 65.99429593604461 153.95477316635268 63.809802890961336 151.62370486000913 62.20111719196418 149.67313730931662 C 61.42521114115918 148.73217775852623 60.78507113433382 147.8816256625404 60.26263558558098 147.13749111260827 A 2.25 2.25 0 0 0 57.6355 146.576A 157.5 157.5 0 0 1 56.6482 146.96A 2.25 2.25 0 0 0 55.0927 149.15C 55.21098101132082 150.05181657403992 55.31448551297319 151.11129989833626 55.37909683663547 152.32919170500628 C 55.51283672333807 154.85400795389992 55.47964071119412 158.0485012372916 55.06500447518274 161.893032489409 A 171 171 0 0 1 50.6098 163.341C 48.014605997036455 160.4740380489838 46.11007381854155 157.90915082067644 44.73422190386164 155.78792123460045 C 44.07063471988501 154.7646484825146 43.5316229476449 153.84667004828484 43.09741771855718 153.0478327995062 A 2.25 2.25 0 0 0 40.5515 152.19A 157.5 157.5 0 0 1 39.5268 152.459A 2.25 2.25 0 0 0 37.7318 154.458C 37.746483097511266 155.36731668909985 37.7285409315372 156.43169264476802 37.65390189735591 157.64901104620446 C 37.498962668156594 160.17261507283538 37.1018382431455 163.3425017433516 36.251661178057404 167.1147083541723 A 171 171 0 0 1 31.6605 168.045C 29.408972239980763 164.90127843223468 27.809229417627492 162.13600950947406 26.684147621066998 159.87177135967158 C 26.141530177687677 158.77952533150767 25.71067348279623 157.8060878117913 25.370359102566105 156.9629619293681 A 2.25 2.25 0 0 0 22.9388 155.821A 157.5 157.5 0 0 1 21.8901 155.971A 2.25 2.25 0 0 0 19.8789 157.752C 19.7899020507196 158.65736622742946 19.650747120691562 159.71275904613404 19.437830762622962 160.91363443532566 C 18.996232287323352 163.40312720185176 18.24035657364866 166.50708293902545 16.965722037705532 170.15778842653089 A 171 171 0 0 1 12.2984 170.559C 10.419947554550403 167.17877846711815 9.145849182519466 164.24917735924618 8.286204665887418 161.87144845270592 C 7.871630811306284 160.72446824581604 7.554546069691811 159.7082618873634 7.312559056709342 158.83183880656787 A 2.25 2.25 0 0 0 5.02708 157.42A 157.5 157.5 0 0 1 3.96802 157.45A 2.25 2.25 0 0 0 1.76691 158.99C 1.5753293659422178 159.8790743618143 1.316775769183172 160.91172538414824 0.9683577775682748 162.0805025138947 C 0.2458569676317337 164.5034296749158 -0.8589160388158801 167.50098966882436 -2.5413912351357317 170.98260150395043 A 171 171 0 0 1 -7.22395 170.849C -8.704917082509532 167.27684745769207 -9.636761183456372 164.22110599539732 -10.219761639228828 161.76088366468375 C -10.50088730080831 160.5741219201449 -10.700066404620255 159.52839452692572 -10.840571379569393 158.6300997629324 A 2.25 2.25 0 0 0 -12.9502 156.967A 157.5 157.5 0 0 1 -14.0058 156.876A 2.25 2.25 0 0 0 -16.3681 158.155C -16.659780146275992 159.0165142583609 -17.03436176822553 160.01296129901183 -17.513739232029373 161.13440337201263 C -18.50772347362274 163.4591783665953 -19.94699136717167 166.31126483854104 -22.015373586670023 169.5783948865777 A 171 171 0 0 1 -26.6522 168.912C -27.716299812944023 165.19420692468714 -28.293741629879037 162.0521613710849 -28.59249772226662 159.541518376704 C -28.736510287919472 158.33044634877442 -28.815187149705515 157.26883057659327 -28.852378389398204 156.36037477541555 A 2.25 2.25 0 0 0 -30.7586 154.467A 157.5 157.5 0 0 1 -31.797 154.257A 2.25 2.25 0 0 0 -34.2898 155.259C -34.677703946437404 156.08093070713343 -35.163430349286564 157.02818355505713 -35.76751786692533 158.0876708588661 C -37.02002743548337 160.28398668967077 -38.775027158064646 162.95341833078768 -41.2023518753274 165.96347455512748 A 171 171 0 0 1 -45.7329 164.773C -46.36635818869911 160.95800727243923 -46.58186988445512 157.77061899646014 -46.59248687090499 155.24228540937725 C -46.597508916599104 154.02269127403696 -46.55465786314511 152.95902690801628 -46.48805052289527 152.05225318032663 A 2.25 2.25 0 0 0 -48.1661 149.954A 157.5 157.5 0 0 1 -49.1737 149.627A 2.25 2.25 0 0 0 -51.7644 150.338C -52.24355084294381 151.11059352911857 -52.834089840208655 151.9963032948058 -53.555012207057125 152.9800237921408 C -55.04971872488717 155.0192481234808 -57.09757117119078 157.47122480995742 -59.8521944964137 160.18496652442826 A 171 171 0 0 1 -64.2175 158.485C -64.41196017725849 154.62347384184787 -64.26273222729864 151.43229532415143 -63.985071699155846 148.91923183926207 C -63.85103775484536 147.7070148711941 -63.68721741516534 146.65516840300992 -63.51767982351595 145.7618979310805 A 2.25 2.25 0 0 0 -64.9456 143.486A 157.5 157.5 0 0 1 -65.9094 143.046A 2.25 2.25 0 0 0 -68.5642 143.457C -69.1283231579987 144.17029867058278 -69.81597617073686 144.98291877271936 -70.64433506123451 145.87804816249098 C -72.36175274301763 147.7335965866156 -74.67576102461933 149.93615305252865 -77.7217722301047 152.31820248374936 A 171 171 0 0 1 -81.8649 150.132C -81.61785375950987 146.27318696360112 -81.10583157837664 143.11982009644402 -80.54351326525257 140.65478833950903 C -80.27217066838006 139.46575164073903 -79.98951669113268 138.43943549769608 -79.71925902986519 137.57131342820955 A 2.25 2.25 0 0 0 -80.8785 135.148A 157.5 157.5 0 0 1 -81.7858 134.601A 2.25 2.25 0 0 0 -84.4702 134.706C -85.11190206254393 135.35052348882022 -85.88770448210467 136.07946018163247 -86.81270097130219 136.87432908332104 C -88.7304406511045 138.52201168882627 -91.28043813123402 140.44643424226655 -94.57812780264456 142.46573773302606 A 171 171 0 0 1 -98.445 139.822C -97.75973379958556 136.0160053972749 -96.891592379447 132.9415591402237 -96.05194696050826 130.5566945699749 C -95.64683307678898 129.40633905226863 -95.24903028883121 128.41893283483967 -94.88157577986608 127.58727646659344 A 2.25 2.25 0 0 0 -95.757 125.047A 157.5 157.5 0 0 1 -96.596 124.4A 2.25 2.25 0 0 0 -99.2749 124.199C -99.98591716182538 124.76624724143282 -100.83975521723279 125.40199772036495 -101.84933056129368 126.0862438022417 C -103.94239156958412 127.50458052655891 -106.69513513136944 129.12578137651738 -110.20151284067194 130.75601421768698 A 171 171 0 0 1 -113.742 127.688C -112.62716620533935 123.98564719092374 -111.41422309725817 121.03020165269858 -110.3081966346128 118.75659462598951 C -109.77459274306288 117.6599169327623 -109.26682711209669 116.72429299103474 -108.80696608690752 115.93994423664337 A 2.25 2.25 0 0 0 -109.387 113.317A 157.5 157.5 0 0 1 -110.147 112.578A 2.25 2.25 0 0 0 -112.785 112.073C -113.55646292214935 112.55545215586967 -114.47720552857419 113.08972844117373 -115.55819836894213 113.65443150914187 C -117.79929445455335 114.82493216400319 -120.71889787588788 116.12177647809345 -124.38825262732799 117.34168609146865 A 171 171 0 0 1 -127.556 113.89C -126.02633125855465 110.33894646182914 -124.4843990309021 107.54103039479229 -123.12641027094014 105.40832085624989 C -122.47127271432794 104.37961785838532 -121.86016374188041 103.50797348129198 -121.31389119219736 102.78115752627579 A 2.25 2.25 0 0 0 -121.591 100.109A 157.5 157.5 0 0 1 -122.262 99.2888A 2.25 2.25 0 0 0 -124.826 98.4862C -125.64662652605512 98.8773246200754 -126.6222703955283 99.3031616033022 -127.76058833736361 99.74095988926872 C -130.12050338550495 100.64836520858796 -133.16890517083363 101.60394663790808 -136.95340131367143 102.39762963606725 A 171 171 0 0 1 -139.707 98.6078C -137.7825503513809 95.25380882393381 -135.93173044882587 92.64989734288022 -134.3394828518096 90.68588842289829 C -133.57135235008926 89.73857083717202 -132.864866776187 88.94226924217656 -132.23930420011138 88.28246124403094 A 2.25 2.25 0 0 0 -132.21 85.5961A 157.5 157.5 0 0 1 -132.783 84.7048A 2.25 2.25 0 0 0 -135.239 83.6152C -136.09879420144347 83.91017994447924 -137.11662032407142 84.22202618931868 -138.29742365216933 84.52721232309982 C -140.7453925611633 85.15969289084207 -143.88285213128466 85.7615539700874 -147.73315297065741 86.11866348136782 A 171 171 0 0 1 -150.037 82.0397C -147.74256318912313 78.92689211609253 -145.60698387955964 76.55093118934711 -143.80123482794502 74.78122674776215 C -142.93012513691073 73.92764430763964 -142.13747308143996 73.21706650381918 -141.44077564382556 72.63286806884624 A 2.25 2.25 0 0 0 -141.106 69.9673A 157.5 157.5 0 0 1 -141.573 69.0165A 2.25 2.25 0 0 0 -143.889 67.6541C -144.77670595813544 67.84913774922525 -145.82344541384526 68.04292786296848 -147.03134055101805 68.21152327658835 C -149.53545030245002 68.56083374129872 -152.72106607374153 68.80112829087344 -156.5869770499317 68.71700884666693 A 171 171 0 0 1 -158.41 64.402C -155.7765257725649 61.57104266639294 -153.38402759824075 59.45400657819977 -151.38831779245282 57.90167741882196 C -150.42558515911776 57.15295787679631 -149.55710005382667 56.537367332512346 -148.7983502712342 56.03639438072831 A 2.25 2.25 0 0 0 -148.162 53.4264A 157.5 157.5 0 0 1 -148.518 52.4285A 2.25 2.25 0 0 0 -150.663 50.8111C -151.56723194522687 50.90357828152707 -152.6292388844317 50.97678591367767 -153.8484790703288 51.00659270808629 C -156.37608476404648 51.06817927365578 -159.56832736315795 50.94377468662301 -163.39945041444204 50.41952291252894 A 171 171 0 0 1 -164.719 45.9248C -161.77970311306865 43.412520514762925 -159.16147594654058 41.582008068121006 -157.00182251594262 40.26729117552432 C -155.9600176324921 39.63319523584481 -155.0270215089049 39.12061711526649 -154.21611084510872 38.70940059523724 A 2.25 2.25 0 0 0 -153.286 36.189A 157.5 157.5 0 0 1 -153.526 35.1571A 2.25 2.25 0 0 0 -155.473 33.3057C -156.38184727170497 33.294412823939254 -157.445276809822 33.2460836010555 -158.6599673840327 33.13671319910413 C -161.1781178143438 32.90977299046603 -164.3353714770899 32.42229107087003 -168.08176205554687 31.46474139050348 A 171 171 0 0 1 -168.881 26.8489C -165.67383461332457 24.688049767329392 -162.86401104977062 23.167924491388714 -160.5685683795947 22.107959210868515 C -159.46127276591974 21.596753283833614 -158.4759286553411 21.19386982664988 -157.62342857097184 20.877770574588638 A 2.25 2.25 0 0 0 -156.412 18.4798A 157.5 157.5 0 0 1 -156.533 17.4273A 2.25 2.25 0 0 0 -158.256 15.366C -159.1577860637839 15.251203777949396 -160.20877477047787 15.08196774536159 -161.40308038373755 14.834845957500146 C -163.8789476087682 14.322337487334366 -166.96005270525785 13.478133307504596 -170.57287088033152 12.099768845332633 A 171 171 0 0 1 -170.84 7.42294C -167.40815431392008 5.641732535672705 -164.44336470056257 4.451811588137136 -162.04205739644155 3.660416188132978 C -160.88370634425684 3.2787646247903 -159.85885971405773 2.9908280329963794 -158.97588385144596 2.7739668860652555 A 2.25 2.25 0 0 0 -157.499 0.529746A 157.5 157.5 0 0 1 -157.499 -0.529746A 2.25 2.25 0 0 0 -158.976 -2.77394C -159.85885971405773 -2.9908280329962675 -160.8837063442568 -3.2787646247901883 -162.04205739644155 -3.6604161881328663 C -164.44336470056254 -4.451811588137022 -167.40815431392008 -5.641732535672587 -170.84030147560506 -7.42294269094878 A 171 171 0 0 1 -170.573 -12.0998C -166.96005270525785 -13.478133307504478 -163.87894760876821 -14.322337487334252 -161.40308038373755 -14.834845957500033 C -160.2087747704779 -15.081967745361478 -159.1577860637839 -15.251203777949284 -158.25584536363633 -15.36599970305366 A 2.25 2.25 0 0 0 -156.533 -17.4273A 157.5 157.5 0 0 1 -156.412 -18.4798A 2.25 2.25 0 0 0 -157.623 -20.8777C -158.47592865534114 -21.19386982664977 -159.46127276591977 -21.596753283833507 -160.5685683795947 -22.107959210868405 C -162.86401104977065 -23.167924491388604 -165.67383461332457 -24.68804976732928 -168.88056747457568 -26.84888481732582 A 171 171 0 0 1 -168.082 -31.4647C -164.3353714770899 -32.42229107086992 -161.17811781434384 -32.90977299046592 -158.6599673840327 -33.13671319910402 C -157.44527680982202 -33.246083601055396 -156.381847271705 -33.29441282393915 -155.47269991038854 -33.3056469867753 A 2.25 2.25 0 0 0 -153.526 -35.1571A 157.5 157.5 0 0 1 -153.286 -36.189A 2.25 2.25 0 0 0 -154.216 -38.7094C -155.02702150890494 -39.12061711526639 -155.96001763249214 -39.63319523584471 -157.00182251594265 -40.26729117552423 C -159.1614759465406 -41.582008068120906 -161.77970311306868 -43.41252051476282 -164.71921700697365 -45.9248106700317 A 171 171 0 0 1 -163.399 -50.4195C -159.56832736315798 -50.9437746866229 -156.3760847640465 -51.06817927365568 -153.84847907032884 -51.006592708086195 C -152.62923888443171 -50.976785913677574 -151.5672319452269 -50.90357828152697 -150.66273004895803 -50.811104227601895 A 2.25 2.25 0 0 0 -148.518 -52.4285A 157.5 157.5 0 0 1 -148.162 -53.4264A 2.25 2.25 0 0 0 -148.798 -56.0363C -149.5571000538267 -56.53736733251225 -150.4255851591178 -57.15295787679621 -151.38831779245288 -57.90167741882186 C -153.38402759824078 -59.45400657819967 -155.77652577256492 -61.57104266639284 -158.41049964010958 -64.40203638270751 A 171 171 0 0 1 -156.587 -68.717C -152.72106607374155 -68.80112829087334 -149.53545030245004 -68.56083374129862 -147.0313405510181 -68.21152327658825 C -145.8234454138453 -68.04292786296838 -144.77670595813547 -67.84913774922515 -143.88864109238946 -67.65416101925258 A 2.25 2.25 0 0 0 -141.573 -69.0165A 157.5 157.5 0 0 1 -141.106 -69.9673A 2.25 2.25 0 0 0 -141.441 -72.6328C -142.13747308144002 -73.21706650381908 -142.9301251369108 -73.92764430763954 -143.80123482794508 -74.78122674776205 C -145.6069838795597 -76.55093118934701 -147.7425631891232 -78.92689211609243 -150.03665915280024 -82.03968306091382 A 171 171 0 0 1 -147.733 -86.1187C -143.88285213128472 -85.7615539700873 -140.74539256116336 -85.15969289084197 -138.29742365216939 -84.52721232309972 C -137.11662032407148 -84.22202618931858 -136.09879420144352 -83.91017994447914 -135.23874364986548 -83.61524235831277 A 2.25 2.25 0 0 0 -132.783 -84.7048A 157.5 157.5 0 0 1 -132.21 -85.5961A 2.25 2.25 0 0 0 -132.239 -88.2824C -132.86486677618703 -88.94226924217654 -133.57135235008928 -89.73857083717199 -134.33948285180963 -90.68588842289826 C -135.93173044882587 -92.64989734288018 -137.78255035138093 -95.25380882393378 -139.7068613619362 -98.60781700689593 A 171 171 0 0 1 -136.953 -102.398C -133.16890517083365 -101.60394663790805 -130.12050338550495 -100.64836520858792 -127.76058833736364 -99.7409598892687 C -126.62227039552833 -99.30316160330217 -125.64662652605514 -98.87732462007537 -124.82580236286273 -98.48627114019978 A 2.25 2.25 0 0 0 -122.262 -99.2888A 157.5 157.5 0 0 1 -121.591 -100.109A 2.25 2.25 0 0 0 -121.314 -102.781C -121.86016374188048 -103.50797348129191 -122.47127271432801 -104.37961785838525 -123.12641027094021 -105.40832085624982 C -124.48439903090217 -107.54103039479219 -126.02633125855473 -110.33894646182907 -127.55577097911123 -113.89044725697264 A 171 171 0 0 1 -124.388 -117.342C -120.71889787588796 -116.12177647809338 -117.79929445455342 -114.82493216400312 -115.5581983689422 -113.6544315091418 C -114.47720552857426 -113.08972844117366 -113.55646292214942 -112.5554521558696 -112.78556584559864 -112.07338076243418 A 2.25 2.25 0 0 0 -110.147 -112.578A 157.5 157.5 0 0 1 -109.387 -113.317A 2.25 2.25 0 0 0 -108.807 -115.94C -109.26682711209672 -116.7242929910347 -109.77459274306293 -117.65991693276226 -110.30819663461283 -118.75659462598948 C -111.41422309725822 -121.03020165269855 -112.62716620533939 -123.98564719092369 -113.74179605016307 -127.68834135406352 A 171 171 0 0 1 -110.202 -130.756C -106.69513513136948 -129.12578137651735 -103.94239156958416 -127.50458052655888 -101.84933056129371 -126.08624380224167 C -100.83975521723283 -125.4019977203649 -99.98591716182541 -124.76624724143278 -99.27499699424423 -124.19944247228415 A 2.25 2.25 0 0 0 -96.596 -124.4A 157.5 157.5 0 0 1 -95.757 -125.047A 2.25 2.25 0 0 0 -94.8815 -127.587C -95.24903028883125 -128.41893283483964 -95.64683307678902 -129.4063390522686 -96.05194696050829 -130.55669456997484 C -96.89159237944705 -132.94155914022363 -97.7597337995856 -136.01600539727488 -98.44502286404254 -139.8216226474535 A 171 171 0 0 1 -94.5781 -142.466C -91.28043813123406 -140.44643424226652 -88.73044065110454 -138.5220116888262 -86.81270097130222 -136.87432908332104 C -85.88770448210471 -136.07946018163244 -85.11190206254398 -135.3505234888202 -84.47022673552907 -134.70637451094038 A 2.25 2.25 0 0 0 -81.7858 -134.601A 157.5 157.5 0 0 1 -80.8785 -135.148A 2.25 2.25 0 0 0 -79.7192 -137.571C -79.9895166911327 -138.43943549769608 -80.27217066838007 -139.465751640739 -80.5435132652526 -140.654788339509 C -81.10583157837665 -143.119820096444 -81.6178537595099 -146.2731869636011 -81.86486825263034 -150.13211526002092 A 171 171 0 0 1 -77.7218 -152.318C -74.67576102461936 -149.93615305252862 -72.36175274301768 -147.73359658661556 -70.64433506123454 -145.87804816249096 C -69.8159761707369 -144.98291877271933 -69.12832315799872 -144.17029867058278 -68.56425789075368 -143.45720295099736 A 2.25 2.25 0 0 0 -65.9094 -143.046A 157.5 157.5 0 0 1 -64.9456 -143.486A 2.25 2.25 0 0 0 -63.5177 -145.762C -63.68721741516544 -146.6551684030099 -63.85103775484546 -147.70701487119405 -63.985071699155945 -148.91923183926204 C -64.26273222729874 -151.4322953241514 -64.41196017725859 -154.62347384184784 -64.21747988736473 -158.48540615269485 A 171 171 0 0 1 -59.8522 -160.185C -57.09757117119088 -157.4712248099574 -55.04971872488727 -155.01924812348076 -53.555012207057224 -152.98002379214077 C -52.834089840208755 -151.9963032948058 -52.24355084294391 -151.11059352911855 -51.76444908885391 -150.33784736107165 A 2.25 2.25 0 0 0 -49.1737 -149.627A 157.5 157.5 0 0 1 -48.1661 -149.954A 2.25 2.25 0 0 0 -46.4881 -152.052C -46.55465786314524 -152.95902690801626 -46.597508916599224 -154.02269127403693 -46.59248687090513 -155.24228540937722 C -46.58186988445525 -157.77061899646012 -46.36635818869925 -160.9580072724392 -45.732918463789126 -164.7725974039772 A 171 171 0 0 1 -41.2024 -165.963C -38.77502715806479 -162.95341833078766 -37.020027435483506 -160.28398668967074 -35.767517866925466 -158.08767085886606 C -35.1634303492867 -157.0281835550571 -34.677703946437546 -156.0809307071334 -34.28981152955885 -155.25860801868845 A 2.25 2.25 0 0 0 -31.797 -154.257A 157.5 157.5 0 0 1 -30.7586 -154.467A 2.25 2.25 0 0 0 -28.8524 -156.36C -28.815187149705558 -157.26883057659325 -28.736510287919515 -158.33044634877442 -28.59249772226666 -159.541518376704 C -28.29374162987908 -162.0521613710849 -27.71629981294406 -165.1942069246871 -26.652158508553086 -168.91172586088777 A 171 171 0 0 1 -22.0154 -169.578C -19.946991367171716 -166.311264838541 -18.507723473622782 -163.4591783665953 -17.513739232029412 -161.13440337201263 C -17.034361768225573 -160.01296129901183 -16.659780146276034 -159.01651425836087 -16.368153837467663 -158.15533528334228 A 2.25 2.25 0 0 0 -14.0058 -156.876A 157.5 157.5 0 0 1 -12.9502 -156.967A 2.25 2.25 0 0 0 -10.8406 -158.63C -10.70006640462033 -159.52839452692572 -10.500887300808387 -160.5741219201449 -10.219761639228903 -161.76088366468375 C -9.636761183456448 -164.22110599539732 -8.70491708250961 -167.27684745769204 -7.223946907934897 -170.84883165400947 A 171 171 0 0 1 -2.54139 -170.983C -0.8589160388159593 -167.5009896688244 0.245856967631656 -164.5034296749158 0.9683577775681977 -162.0805025138947 C 1.3167757691830966 -160.91172538414824 1.5753293659421432 -159.8790743618143 1.7668877717599099 -158.9902658851649 A 2.25 2.25 0 0 0 3.96802 -157.45A 157.5 157.5 0 0 1 5.02708 -157.42A 2.25 2.25 0 0 0 7.31253 -158.832C 7.5545460696917015 -159.7082618873634 7.871630811306175 -160.72446824581607 8.286204665887308 -161.87144845270592 C 9.145849182519354 -164.2491773592462 10.419947554550289 -167.17877846711815 12.298439888231172 -170.55866164690758 A 171 171 0 0 1 16.9657 -170.158C 18.240356573648548 -166.50708293902545 18.996232287323238 -163.4031272018518 19.437830762622852 -160.91363443532572 C 19.650747120691456 -159.71275904613407 19.78990205071949 -158.65736622742946 19.878895296776 -157.75251522689973 A 2.25 2.25 0 0 0 21.8901 -155.971A 157.5 157.5 0 0 1 22.9388 -155.821A 2.25 2.25 0 0 0 25.3703 -156.963C 25.71067348279609 -157.80608781179131 26.141530177687535 -158.77952533150767 26.684147621066856 -159.8717713596716 C 27.809229417627343 -162.13600950947406 29.408972239980613 -164.9012784322347 31.660497712414365 -168.04499864938242 A 171 171 0 0 1 36.2517 -167.115C 37.10183824314535 -163.34250174335162 37.498962668156445 -160.17261507283544 37.653901897355766 -157.6490110462045 C 37.728540931537054 -156.43169264476802 37.746483097511124 -155.36731668909988 37.731751020746394 -154.45821928127302 A 2.25 2.25 0 0 0 39.5268 -152.459A 157.5 157.5 0 0 1 40.5515 -152.19A 2.25 2.25 0 0 0 43.0974 -153.048C 43.53162294764486 -153.84667004828484 44.07063471988497 -154.7646484825146 44.7342219038616 -155.78792123460045 C 46.110073818541515 -157.90915082067647 48.01460599703642 -160.4740380489838 50.60981253042543 -163.34061210275885 A 171 171 0 0 1 55.065 -161.893C 55.47964071119409 -158.0485012372916 55.51283672333803 -154.85400795389995 55.37909683663543 -152.32919170500628 C 55.31448551297316 -151.11129989833626 55.21098101132078 -150.05181657403992 55.092715666885255 -149.15032423391227 A 2.25 2.25 0 0 0 56.6482 -146.96A 157.5 157.5 0 0 1 57.6355 -146.576A 2.25 2.25 0 0 0 60.2626 -147.137C 60.78507113433376 -147.88162566254042 61.425211141159124 -148.7321777585263 62.20111719196412 -149.67313730931664 C 63.80980289096128 -151.62370486000918 65.99429593604454 -153.95477316635274 68.8993510443692 -156.50683088010413 A 171 171 0 0 1 73.1605 -154.561C 73.13418121739686 -150.69409681357232 72.80301605588862 -147.51664202260207 72.38234055723606 -145.0235283924588 C 72.17932118314444 -143.82094026278065 71.9557193533344 -142.78016155525924 71.73546251085632 -141.89802661413918 A 2.25 2.25 0 0 0 73.0312 -139.545A 157.5 157.5 0 0 1 73.9682 -139.05A 2.25 2.25 0 0 0 76.6422 -139.309C 77.24609296000106 -139.98871813048586 77.97901599745472 -140.7607556409049 78.85712579312047 -141.607135143643 C 80.67767359818076 -143.3616120279202 83.11364930225817 -145.42847237201727 86.29068114947229 -147.632743770577 A 171 171 0 0 1 90.3022 -145.214C 89.83530582711548 -141.3751643809689 89.14409673628712 -138.25617106491117 88.44196977414981 -135.82726160241316 C 88.10318901764825 -134.65565472511872 87.76240485148703 -133.6471487764907 87.44302789574753 -132.79587121238723 A 2.25 2.25 0 0 0 88.462 -130.31A 157.5 157.5 0 0 1 89.3366 -129.712A 2.25 2.25 0 0 0 92.0226 -129.664C 92.70009383126082 -130.27084357244792 93.51624512668828 -130.95430180767258 94.48511116313242 -131.69506741116962 C 96.49378744944781 -133.23058133971827 99.149489143872 -135.0062890361281 102.55708026120311 -136.83403807081731 A 171 171 0 0 1 106.267 -133.973C 105.36528983998396 -130.21319047521078 104.32304778740252 -127.1933194818259 103.34862266049672 -124.86027873635501 C 102.8784970468446 -123.73492679883167 102.42497318710035 -122.77184102644843 102.0106396851416 -121.96251854427095 A 2.25 2.25 0 0 0 102.74 -119.377A 157.5 157.5 0 0 1 103.54 -118.683A 2.25 2.25 0 0 0 106.203 -118.329C 106.9456072129079 -118.85468934486416 107.83434698603071 -119.44065838158366 108.88133861277856 -120.06615307334312 C 111.05195721308249 -121.3626862738387 113.89276376489437 -122.82409225714358 117.48649099088908 -124.25149142411321 A 171 171 0 0 1 120.846 -120.987C 119.52167616434511 -117.3536884961984 118.14198836906976 -114.47230846218261 116.90796819911586 -112.26555118778208 C 116.3126265346516 -111.20112487353938 115.75227535841142 -110.29601457329385 115.24838678107288 -109.53919792929673 A 2.25 2.25 0 0 0 115.678 -106.887A 157.5 157.5 0 0 1 116.394 -106.107A 2.25 2.25 0 0 0 119 -105.452C 119.79692105230745 -105.88908247684918 120.74666322103062 -106.36992331254571 121.85813130106018 -106.87199281268961 C 124.16239488236435 -107.91264299207171 127.15127203370736 -109.04069560034685 130.8842856380774 -110.04913656852976 A 171 171 0 0 1 133.85 -106.423C 132.11991465505798 -102.9643017183021 130.4207674574607 -100.25897583890162 128.94323958456465 -98.20727049144357 C 128.2304430583423 -97.21764622531792 127.57056960013517 -96.38231089416158 126.98369490562071 -95.68786635070121 A 2.25 2.25 0 0 0 127.108 -93.0042A 157.5 157.5 0 0 1 127.731 -92.1471A 2.25 2.25 0 0 0 130.245 -91.1995C 131.08649882001143 -91.54304948226759 132.08486204272222 -91.91249362129656 133.24631688983894 -92.28459268607423 C 135.6541858524441 -93.05579337778524 138.75216901875194 -93.83578672014767 142.57580346025577 -94.4121229193119 A 171 171 0 0 1 145.108 -90.4713C 142.99576800687362 -87.23261780390254 140.9993123891858 -84.73861413921809 139.2975386487585 -82.86870783558555 C 138.47657965357914 -81.96678688332119 137.72578637307916 -81.2121163947764 137.06357637054094 -80.58909709849286 A 2.25 2.25 0 0 0 136.881 -77.9088A 157.5 157.5 0 0 1 137.402 -76.9862A 2.25 2.25 0 0 0 139.792 -75.7582C 140.66716360463388 -76.00361284063352 141.7011326899245 -76.2568440136507 142.89743296397995 -76.49412176270056 C 145.3775170535975 -76.98581918632458 148.54421928654278 -77.40758485671054 152.40862764274016 -77.54430286310735 A 171 171 0 0 1 154.476 -73.3405C 152.00745283887704 -70.36372331133364 149.73971565326065 -68.11355501322141 147.83588126853607 -66.44982484173539 C 146.91746226039683 -65.64736512225538 146.0855368962057 -64.9831977602601 145.35662450574645 -64.43972572046565 A 2.25 2.25 0 0 0 144.87 -61.7977A 157.5 157.5 0 0 1 145.282 -60.8217A 2.25 2.25 0 0 0 147.516 -59.3294C 148.4140167889687 -59.47335287307642 149.47011236856042 -59.60706982447439 150.68566246597683 -59.70643297946799 C 153.2056299936989 -59.9122171071338 156.39976848682818 -59.97025674502233 160.2545722849452 -59.665574230355105 A 171 171 0 0 1 161.829 -55.2535C 159.0374880576873 -52.57753007795558 156.52803272641387 -50.600531531370365 154.4469570901363 -49.164666759163524 C 153.44305106534915 -48.47212956211528 152.54083903685495 -47.90712376394619 151.7547267462122 -47.450283969812915 A 2.25 2.25 0 0 0 150.97 -44.8809A 157.5 157.5 0 0 1 151.269 -43.8643A 2.25 2.25 0 0 0 153.318 -42.1271C 154.22606629447307 -42.167766798047786 155.29052054739591 -42.18022632287133 156.5094739137092 -42.140379533127 C 159.03647324901817 -42.05756765402419 162.21640752226833 -41.751124623975244 166.0113534996339 -41.009013590774515 A 171 171 0 0 1 167.072 -36.4463C 163.99422640317394 -34.10590833304215 161.27576751420395 -32.42785273746831 159.04458062988732 -31.238572057718542 C 157.96827503876173 -30.664985664564718 157.00753805951138 -30.206507144865963 156.17447404459742 -29.8422552017568 A 2.25 2.25 0 0 0 155.102 -27.3791A 157.5 157.5 0 0 1 155.283 -26.3351A 2.25 2.25 0 0 0 157.12 -24.3756C 158.02754316745865 -24.31245939551855 159.08647930465278 -24.20349906480721 160.29294501858405 -24.024961794167076 C 162.7940328605969 -23.654633487784217 165.91830760763338 -22.987702743338684 169.60392283981062 -21.817837743834783 A 171 171 0 0 1 170.138 -17.1639C 166.8130492106493 -15.189663914743019 163.92102603294754 -13.832427291124127 161.56881483378945 -12.905234796262361 C 160.43414096570305 -12.45807678282506 159.42740371147886 -12.112102510253434 158.55824823573536 -11.845186999298381 A 2.25 2.25 0 0 0 157.212 -9.52032A 157.5 157.5 0 0 1 157.272 -8.46256A 2.25 2.25 0 0 0 158.875 -6.30632" stroke="#191919" stroke-width="0.35 px" style="stroke-width:0.35;stroke-miterlimit:4;stroke-dasharray:none;fill:none;fill-rule: evenodd "/>
<title>b'InvoluteGear'</title>
</g>
</svg>