<?xml version="1.0"?>
<!DOCTYPE svg PUBLIC "-//W3C//DTD SVG 1.1//EN" "http://www.w3.org/Graphics/SVG/1.1/DTD/svg11.dtd">
<svg width="458.8677335050311mm" height="458.97190170976256mm" viewBox="0 0 458.8677335050311 458.97190170976256" xmlns="http://www.w3.org/2000/svg" version="1.1">
<g id="InvoluteGear" transform="translate(229.381011,229.485951) scale(1,-1)">
<path id="InvoluteGear_w0000"  d="M 212.90198582021992 -6.460993252347545 C 213.84468154413798 -6.239723567046171 214.8747900878919 -5.971650690968493 215.98870173041914 -5.647207830688751 C 218.56295706385006 -4.897335325513033 221.58055150617608 -3.8480733636361233 224.98801899202 -2.3848597219429637 A 225 225 0 0 1 224.988 2.38486C 221.58055150617608 3.8480733636361233 218.56295706385006 4.897335325513033 215.98870173041914 5.647207830688751 C 214.8747900878919 5.971650690968493 213.84468154413798 6.239723567046171 212.90200977075295 6.46098533383871 A 2.25 2.25 0 0 0 211.323 8.64031A 211.5 211.5 0 0 1 211.284 9.55806A 2.25 2.25 0 0 0 212.669 11.865C 213.5894625225155 12.166489808070596 214.5927129538031 12.522123398897788 215.67461042510564 12.941122418626211 C 218.1748736766324 13.90951436860361 221.091097918839 15.21429904515567 224.36016668991627 16.965018382538954 A 225 225 0 0 1 223.95 21.7171C 220.4295002143752 22.881955983565966 217.33287678541734 23.667926862306444 214.70368825591828 24.193728129009468 C 213.5660094542442 24.421212768415586 212.51666936127864 24.59974021195972 211.55846647064217 24.739146317123417 A 2.25 2.25 0 0 0 209.798 26.7747A 211.5 211.5 0 0 1 209.68 27.6857A 2.25 2.25 0 0 0 210.862 30.1032C 211.75290184875402 30.48262674932865 212.7218664523885 30.923188068224118 213.7637397621114 31.43364112525401 C 216.1714998573848 32.61338288484599 218.96476319547983 34.164030106832 222.0712302103559 36.18929342645423 A 225 225 0 0 1 221.254 40.8885C 217.64646602448337 41.74642860708548 214.4937399253485 42.263289349290346 211.82908379178156 42.56112652890368 C 210.6760608067695 42.68996873075588 209.61525811150884 42.77762898703572 208.64861830257746 42.83414731654185 A 2.25 2.25 0 0 0 206.72 44.7109A 211.5 211.5 0 0 1 206.524 45.6083A 2.25 2.25 0 0 0 207.494 48.1184C 208.34859677552603 48.57308098706739 209.27610167659293 49.09530827216487 210.27023715927047 49.693436150653795 C 212.56766788494622 51.075793324627654 215.21728997445123 52.860822642539766 218.13815603820518 55.14563560335973 A 225 225 0 0 1 216.92 59.7572C 213.2520535479446 60.30182527898835 210.06656645962892 60.54574922855599 207.38617090372585 60.61341723880584 C 206.22634031414958 60.64266310051954 205.16192882860727 60.63880716366722 204.19400876432886 60.612019275578135 A 2.25 2.25 0 0 0 202.111 62.316A 211.5 211.5 0 0 1 201.839 63.1932A 2.25 2.25 0 0 0 202.589 65.7775C 203.40175158653213 66.30391712740362 204.28092986324938 66.90394399059551 205.21996728758523 67.58531836099766 C 207.39005927037076 69.16005646048153 209.87642323635623 71.16625214177672 212.59006327857315 73.69369878801824 A 225 225 0 0 1 210.98 78.1835C 207.27879747726558 78.4107683342779 204.08413363166707 78.37994956362719 201.40784336433592 78.21694741424062 C 200.24979215009162 78.14638040968791 199.18965240450186 78.05103682771082 198.22761822638685 77.94114105017768 A 2.25 2.25 0 0 0 196.006 79.4598A 211.5 211.5 0 0 1 195.659 80.3103A 2.25 2.25 0 0 0 196.185 82.9495C 196.94899099280286 83.54386226302802 197.77333351680707 84.21724631535018 198.65032057825167 84.97682252021902 C 200.67700721635478 86.73228273527668 202.98170488991886 88.94479160903677 205.46802806914522 91.69615961000683 A 225 225 0 0 1 203.478 96.031C 199.77092171053513 95.93918549433448 196.59073328105208 95.63385217486076 193.9383626190806 95.2413866767224 C 192.7906645861921 95.07152925931577 191.74264548432092 94.88540392273705 190.79361975683796 94.69321388564757 A 2.25 2.25 0 0 0 188.45 96.0152A 211.5 211.5 0 0 1 188.031 96.8328A 2.25 2.25 0 0 0 188.328 99.5074C 189.03808897615184 100.16527787188252 189.80149260380733 100.90703361340789 190.60993639698856 101.73918801627491 C 192.47821281161603 103.6623735336556 194.5841810175263 106.06481495826797 196.82477946683116 109.01973414790638 A 225 225 0 0 1 194.47 113.167C 190.78401193315557 112.75730249115857 187.64184392226983 112.17971520393252 185.03303009005643 111.56069203427899 C 183.90418239321497 111.29280176890902 182.87604310182306 111.01727268460121 181.94705207942354 110.74421129574861 A 2.25 2.25 0 0 0 179.498 111.86A 211.5 211.5 0 0 1 179.011 112.638A 2.25 2.25 0 0 0 179.076 115.329C 179.72761508732927 116.04510480812081 180.42442784526833 116.84974053885665 181.15834293519103 117.7483121596682 C 182.85437706142136 119.82498438666461 184.7460239478948 122.39957152636178 186.7243090602758 125.53616471682369 A 225 225 0 0 1 184.021 129.466C 180.38460408087548 128.7406038706471 177.30372000119183 127.89503886986331 174.7577777436065 127.05404105966555 C 173.65613797621052 126.69010131213051 172.655490478897 126.32720840103468 171.75341208608538 125.97529731140625 A 2.25 2.25 0 0 0 169.218 126.876A 211.5 211.5 0 0 1 168.665 127.61A 2.25 2.25 0 0 0 168.499 130.296C 169.08650081755988 131.06577438896954 169.71156374791602 131.92733286748273 170.36551648402875 132.8856689963409 C 171.87675147858144 135.10045297834807 173.54007195389957 137.82812449071648 175.24139719852576 141.1231694434171 A 225 225 0 0 1 172.211 144.806C 168.64969173100056 143.77075486145142 165.65290137033847 142.66347241453855 163.18867995310958 141.60672641734405 C 162.122404270567 141.14943167020334 161.15665701130624 140.7018616644682 160.28816992089347 140.27370630064868 A 2.25 2.25 0 0 0 157.684 140.953A 211.5 211.5 0 0 1 157.071 141.637A 2.25 2.25 0 0 0 156.675 144.299C 157.19352925389865 145.11607883212204 157.74221460942582 146.02818138087048 158.3113633544683 147.0391868323695 C 159.6266105621783 149.3756850836693 161.04928998348652 152.23624624315968 162.46105934348805 155.66534759810403 A 225 225 0 0 1 159.125 159.074C 155.66615606888467 157.73647748422277 152.77564661458973 156.3756755230137 150.41139027093527 155.1110051164628 C 149.38837300534257 154.56374102003093 148.46467603895695 154.03480757138792 147.63621022550353 153.5335778458927 A 2.25 2.25 0 0 0 144.984 153.987A 211.5 211.5 0 0 1 144.314 154.615A 2.25 2.25 0 0 0 143.69 157.233C 144.13675179681832 158.09199459925014 144.60499730311233 159.0478883300795 145.08512827890388 160.10407797357615 C 146.1946500696098 162.54499187858485 147.36615541622444 165.5172640911946 148.47791664519445 169.0550339816877 A 225 225 0 0 1 144.861 172.164C 141.53012265003065 170.53437441483862 138.76729442280225 168.93012784095143 136.52050727951007 167.46689620226496 C 135.54832249277945 166.83371450844106 134.67351454843492 166.2273336550864 133.891203682969 165.65674049743816 A 2.25 2.25 0 0 0 131.21 165.88A 211.5 211.5 0 0 1 130.488 166.449A 2.25 2.25 0 0 0 129.642 169.003C 130.0128362584466 169.89745254988753 130.39717518960356 170.89006036005256 130.7847336743825 171.98361453695466 C 131.68031553693348 174.51087242312016 132.5919733931419 177.5728500252937 133.39549539991214 181.19309604082304 A 225 225 0 0 1 129.525 183.98C 126.34624972010879 182.06969450201478 123.73155773351277 180.23388059580608 121.61887421651019 178.58292098009716 C 120.70471962466509 177.8685095446115 119.88527747431321 177.1891707182295 119.15491351277619 176.55343860053446 A 2.25 2.25 0 0 0 116.464 176.546A 211.5 211.5 0 0 1 115.696 177.05A 2.25 2.25 0 0 0 114.633 179.522C 114.92635116790639 180.44504920373404 115.2239380129483 181.46702217229114 115.5160546592881 182.58984459007382 C 116.19106601891035 185.18473552421673 116.83612678890616 188.3137487050792 117.32546057766612 191.9896678107585 A 225 225 0 0 1 113.229 194.434C 110.22695336192247 192.25703427167923 107.77975588062738 190.20324475701577 105.81681755951135 188.3767802916592 C 104.96746124331521 187.58642836682952 104.20945174993962 186.83916115441096 103.53644205157087 186.14299681484547 A 2.25 2.25 0 0 0 100.856 185.904A 211.5 211.5 0 0 1 100.048 186.34A 2.25 2.25 0 0 0 98.7764 188.712C 98.98899158251136 189.6566938454439 99.19762311255403 190.7004656420908 99.39213519100781 191.8442433164138 C 99.84157849976036 194.48755563393016 100.21526637928946 197.66043827463585 100.38678909386998 201.3648152514976 A 225 225 0 0 1 96.0958 203.448C 93.29157520606225 201.02097022441393 91.02999042402048 198.7644106403046 89.23133020734886 196.77596382917815 C 88.45306050380321 195.9155229041361 87.76209570448866 195.1058598106759 87.15142299762952 194.35441740644362 A 2.25 2.25 0 0 0 84.5016 193.886A 211.5 211.5 0 0 1 83.6587 194.251A 2.25 2.25 0 0 0 82.1882 196.505C 82.31875213664021 197.46418668096078 82.43688371682899 198.52202958449868 82.53235112802167 199.67829438563396 C 82.7528988648929 202.35045792693847 82.8524471996371 205.5437191145096 82.70488894586995 209.24912805146454 A 225 225 0 0 1 78.2507 210.955C 75.66549886722656 208.2966172446562 73.60627076690548 205.853994368761 71.98520530562666 203.71828697635797 C 71.28378425132394 202.7941274546708 70.66497980769724 201.92806294243672 70.12116529941369 201.12690589019203 A 2.25 2.25 0 0 0 67.5214 200.432A 211.5 211.5 0 0 1 66.6502 200.724A 2.25 2.25 0 0 0 64.9914 202.843C 65.03905345074664 203.80972376493196 65.06581047619238 204.87380587660974 65.0615264128126 206.03399722451107 C 65.05154571952157 208.71522822565169 64.87621748843935 211.90522617147928 64.41067073600935 215.58423351716675 A 225 225 0 0 1 59.8264 216.901C 57.47922164780666 214.03010898739313 55.63759603360052 211.4195071448866 54.2061271292289 209.15235120152207 C 53.58674780024953 208.17131523695335 53.04468512391067 207.2552613445847 52.57175502655812 206.41032113084225 A 2.25 2.25 0 0 0 50.0413 205.495A 211.5 211.5 0 0 1 49.1483 205.71A 2.25 2.25 0 0 0 47.3135 207.679C 47.277828368266356 208.6463249608957 47.21301273931412 209.7087681890481 47.10900891906827 210.86429643289094 C 46.86857368917619 213.53474399761538 46.41966696114852 216.69786107299058 45.63957845533016 220.32322874419452 A 225 225 0 0 1 40.959 221.241C 38.86738838151659 218.17899668573375 37.257000005144874 215.41974385928862 36.025725752621526 213.03792459435917 C 35.4929738168155 212.0072754339563 35.031666150169045 211.0480143039731 34.6331218727246 210.16554657045685 A 2.25 2.25 0 0 0 32.1907 209.036A 211.5 211.5 0 0 1 31.2825 209.174A 2.25 2.25 0 0 0 29.2853 210.977C 29.16657478560414 211.93818176577506 29.01066637449371 212.99112015245703 28.80771280527916 214.13343016540765 C 28.338603137107253 216.77332323425412 27.61944146048981 219.88614082702816 26.53058670365123 223.43102786991545 A 225 225 0 0 1 21.7884 223.943C 19.967794570152456 220.71256342672763 18.600566183728493 217.82508815889327 17.57860250683415 215.34623972891117 C 17.136422273140674 214.27360793846537 16.75928497675313 213.27824160465812 16.438077201608614 212.36477983371873 A 2.25 2.25 0 0 0 14.1018 211.029A 211.5 211.5 0 0 1 13.1852 211.089A 2.25 2.25 0 0 0 11.0403 212.714C 10.839382087715963 213.66092242350598 10.593535185775638 214.69656038129324 10.293134464811647 215.8171948996749 C 9.598823482216027 218.406988627979 8.614731278449955 221.44646052577397 7.225171770254022 224.88462183692602 A 225 225 0 0 1 2.45656 224.987C 0.9203661939075418 221.61205156864142 -0.19357972194670703 218.61773171606217 -0.9986665617019577 216.0602066475303 C -1.3470013455378638 214.95353361753718 -1.6371760790727787 213.9294314239933 -1.8786692419309086 212.99173856699065 A 2.25 2.25 0 0 0 -4.09145 211.46A 211.5 211.5 0 0 1 -5.00984 211.441A 2.25 2.25 0 0 0 -7.28644 212.875C -7.56806160278356 213.8017923649926 -7.902026831106076 214.81246239278354 -8.297650641982456 215.90312463069765 C -9.21202250340469 218.42364509178407 -10.453759359946272 221.36726810808642 -12.13373580706497 224.6732487440622 A 225 225 0 0 1 -16.8935 224.366C -18.13387625162927 220.87080161597567 -18.986292431088202 217.79180607521965 -19.568541852417916 215.1745393889461 C -19.82045223752835 214.0420185393289 -20.021516056006746 212.9967625803876 -20.18150667569171 212.04178098716508 A 2.25 2.25 0 0 0 -22.2545 210.326A 211.5 211.5 0 0 1 -23.1677 210.227A 2.25 2.25 0 0 0 -25.5593 211.461C -25.919474013007854 212.3597486384742 -26.339085006006204 213.33796808898535 -26.827002846515843 214.39058316481157 C -27.954665897413282 216.82316930703894 -29.444854021490045 219.649149886919 -31.402809449689084 222.7984735237506 A 225 225 0 0 1 -36.1185 222.083C -37.053861821884084 218.4943015240393 -37.638437273789165 215.35342610084456 -37.99353850568896 212.69579512367346 C -38.147159435718244 211.54581124256856 -38.25762373297415 210.48714022764696 -38.334927294913605 209.5219402478021 A 2.25 2.25 0 0 0 -40.2527 207.634A 211.5 211.5 0 0 1 -41.1541 207.457A 2.25 2.25 0 0 0 -43.6428 208.481C -44.078987706065874 209.3454676311752 -44.58113781075688 210.2839941098439 -45.157737307916065 211.29076882983836 C -46.49034272559446 213.6174106364967 -48.21794928570668 216.30482620846465 -50.439387678024005 219.27417635579638 A 225 225 0 0 1 -55.0761 218.156C -55.699513563215234 214.50014606804882 -56.011920295445506 211.3206447051531 -56.1372442926334 208.64232560701615 C -56.19143841196284 207.48339277273527 -56.21048534898743 206.41914473163143 -56.204529524654895 205.45087236812128 A 2.25 2.25 0 0 0 -57.9529 203.405A 211.5 211.5 0 0 1 -58.8358 203.152A 2.25 2.25 0 0 0 -61.4033 203.957C -61.912155996029036 204.78126602506958 -62.49312746872442 205.67315101020918 -63.1541396815906 206.62663156658462 C -64.68182132177506 208.8301033957577 -66.63405572338803 211.35905727516268 -69.10253032717984 214.1264499033879 A 225 225 0 0 1 -73.6259 212.614C -73.93278559366945 208.91790657756837 -73.970710656081 205.72331919065283 -73.86532956352879 203.04414130909132 C -73.81969563785972 201.88483985486457 -73.74718419779522 200.8228941077272 -73.6580130820303 199.85871811036245 A 2.25 2.25 0 0 0 -75.2241 197.67A 211.5 211.5 0 0 1 -76.0819 197.342A 2.25 2.25 0 0 0 -78.7092 197.924C -79.28694834415505 198.70093557197518 -79.94243987533503 199.53957585919892 -80.68297090075197 200.43270301550936 C -82.39441834306734 202.49669113270096 -84.55682692569825 204.84845982982296 -87.2540620186413 207.39340613214776 A 225 225 0 0 1 -91.6307 205.497C -91.61868514639384 201.78891200073167 -91.38184775509336 198.60289019712133 -91.04654177754074 195.94268922780836 C -90.90141766449293 194.79160221599898 -90.737884696672 193.73982103759775 -90.56615848121761 192.78687982812744 A 2.25 2.25 0 0 0 -91.9383 190.472A 211.5 211.5 0 0 1 -92.7647 190.071A 2.25 2.25 0 0 0 -95.4323 190.425C -96.0747278668034 191.14949291124634 -96.7998864265074 191.92867950128198 -97.61445363185192 192.7548408565398 C -99.49699591821809 194.66406421585614 -101.85356896528131 196.82123605807317 -104.75959516242703 199.1248941424735 A 225 225 0 0 1 -108.957 196.86C -108.62627200885188 193.16594291916988 -108.11642562502246 190.01207488960765 -107.55367725061396 187.39054602979766 C -107.31013739834593 186.25619570591113 -107.05679364364723 185.2223661161051 -106.80378372932084 184.28771493783933 A 2.25 2.25 0 0 0 -107.972 181.863A 211.5 211.5 0 0 1 -108.761 181.393A 2.25 2.25 0 0 0 -111.449 181.516C -112.15120371791555 182.18284628232576 -112.94066048587818 182.8968103502741 -113.8232331005539 183.6498892948534 C -115.86293254652622 185.39021267452063 -118.39622281567365 187.3368167162409 -121.48952491578746 189.38213110423894 A 225 225 0 0 1 -125.477 186.764C -124.82962795834489 183.1128407790515 -124.05054730623283 180.01447665898695 -123.26452292704427 177.45102879116573 C -122.92437041941513 176.34181348812587 -122.58309154636122 175.33358959949274 -122.25067113004815 174.42414828274974 A 2.25 2.25 0 0 0 -123.206 171.908A 211.5 211.5 0 0 1 -123.952 171.372A 2.25 2.25 0 0 0 -126.64 171.264C -127.39735129495395 171.86738159970037 -128.24526140947182 172.5108372053964 -129.1893051746247 173.18525820627065 C -131.3710605591332 174.74379686087124 -134.06231245553238 176.46542112682667 -137.3199887321162 178.2372490262862 A 225 225 0 0 1 -141.067 175.286C -140.10878901647834 171.704035231351 -139.06624213665557 168.68411422470686 -138.0627612021847 166.19772622001625 C -137.62851440935202 165.12185817984647 -137.20182712731608 164.14670452931125 -136.79245733347503 163.26920625941463 A 2.25 2.25 0 0 0 -137.528 160.681A 211.5 211.5 0 0 1 -138.225 160.082A 2.25 2.25 0 0 0 -140.894 159.743C -141.70029345541587 160.27947095481684 -142.60037928665878 160.84765417808123 -143.5989048325434 161.43842405811912 C -145.90656320205028 162.80363911273912 -148.7358516382464 164.28753729920788 -152.13378339590912 165.77276071626937 A 225 225 0 0 1 -155.614 162.511C -154.3506336204859 159.0239930807537 -153.05233916529556 156.1048736260858 -151.8388310972941 153.71395383140188 C -151.31370503058247 152.67939840465849 -150.80476838291588 151.7445346886735 -150.32148004227457 150.90547615580394 A 2.25 2.25 0 0 0 -150.832 148.263A 211.5 211.5 0 0 1 -151.474 147.607A 2.25 2.25 0 0 0 -154.105 147.04C -154.9541362197044 147.50490718383654 -155.89973384709015 147.9936113948741 -156.9453484399182 148.496356300576 C -159.36182469923418 149.6581401805977 -162.30820261352667 150.89332602457756 -165.82123275436618 152.08094888469503 A 225 225 0 0 1 -169.008 148.532C -167.4497201357025 145.16659292298618 -165.90529022305756 142.36988715942684 -164.49073941069193 140.0921371084002 C -163.87862191977382 139.10655378150375 -163.29120389535464 138.21890140394206 -162.73757510569948 137.42449470391622 A 2.25 2.25 0 0 0 -163.019 134.748A 211.5 211.5 0 0 1 -163.603 134.039A 2.25 2.25 0 0 0 -166.175 133.248C -167.06075277310433 133.6382686874933 -168.04486132263523 134.0438756913081 -169.12982359778974 134.45487347528714 C -171.63722700214157 135.4046247393353 -174.67888044329985 136.38195335699086 -178.28099972125452 137.26318291602067 A 225 225 0 0 1 -181.151 133.453C -179.30906750853657 130.2344301005389 -177.52993655716176 127.58084385908023 -175.9248158397389 125.43312721617409 C -175.23023882835597 124.50381290325161 -174.56868846471755 123.66994373175449 -173.94881809990946 122.92607037384087 A 2.25 2.25 0 0 0 -173.999 120.236A 211.5 211.5 0 0 1 -174.52 119.479A 2.25 2.25 0 0 0 -177.014 118.469C -177.9305099623867 118.78221920570411 -178.94584343867132 119.10172602994925 -180.06212071506198 119.41793380840838 C -182.64188732690704 120.1486208304127 -185.75629695703373 120.86085642259607 -189.4208365412402 121.42916836519822 A 225 225 0 0 1 -191.952 117.387C -189.8408732802602 114.3380571226451 -187.84021335325636 111.84723662741074 -186.05640648298575 109.84545433522925 C -185.28451235631923 108.97928935431514 -184.55372754089782 108.2053770644832 -183.87220490424426 107.51754442676543 A 2.25 2.25 0 0 0 -183.691 104.833A 211.5 211.5 0 0 1 -184.145 104.034A 2.25 2.25 0 0 0 -186.543 102.814C -187.48293190831555 103.04674773115772 -188.5219731375294 103.2777888590921 -189.6613008887528 103.49686554027096 C -192.29433101867795 104.00307856916542 -195.45843883850762 104.44494799274138 -199.15826775999403 104.69613473612775 A 225 225 0 0 1 -201.333 100.451C -198.96716364569426 97.5951651731816 -196.7597869291916 95.28555158765683 -194.81050058804158 93.44452414192929 C -193.96700418014328 92.64792127549781 -193.17239538803318 91.93969564315685 -192.43426623469216 91.31299619783312 A 2.25 2.25 0 0 0 -192.023 88.6537A 211.5 211.5 0 0 1 -192.406 87.8188A 2.25 2.25 0 0 0 -194.691 86.3972C -195.6472958209015 86.54835418929467 -196.702352105312 86.68921907324125 -197.8562951473139 86.80954269004054 C -200.5230947614533 87.08753390166758 -203.71347482371186 87.25576571002047 -207.4212008435998 87.1879675554255 A 225 225 0 0 1 -209.223 82.7716C -206.62037074398103 80.12971276631974 -204.22261988289534 78.01840566142913 -202.12228590494058 76.35176338524487 C -201.21343216810112 75.63062040221223 -200.36088240478995 74.99332488215778 -199.57161158476413 74.43239849265841 A 2.25 2.25 0 0 0 -198.933 71.8183A 211.5 211.5 0 0 1 -199.243 70.9536A 2.25 2.25 0 0 0 -201.397 69.3408C -202.36315560619542 69.40918691361884 -203.42641567820453 69.45883263926116 -204.586430620431 69.47951235771968 C -207.26725566747274 69.52722360240895 -210.460287514395 69.42057226608887 -214.14845992645238 69.0342911673287 A 225 225 0 0 1 -215.564 64.4794C -212.7438329073864 62.071008001055795 -210.173460010194 60.17363875592258 -207.93762853336497 58.69372088558764 C -206.97014630267205 58.053376876294514 -206.06596754832643 57.49172978158697 -205.23139854662574 57.00072935064894 A 2.25 2.25 0 0 0 -204.371 54.4512A 211.5 211.5 0 0 1 -204.605 53.563A 2.25 2.25 0 0 0 -206.613 51.771C -207.58078938801958 51.75613830217236 -208.64438124205614 51.714197309927286 -209.8018797397285 51.635080024644736 C -212.47688232896238 51.45215806503327 -215.64892586989725 51.0714131932203 -219.2902387359632 50.369509040402306 A 225 225 0 0 1 -220.309 45.7098C -217.29221416446342 43.55275120928692 -214.56824937280075 41.88336728197097 -212.21347371110338 40.60113061161961 C -211.1945258865007 40.04632645907414 -210.24541236427353 39.56448602829967 -209.37172403779655 39.14704675132773 A 2.25 2.25 0 0 0 -208.295 36.6809A 211.5 211.5 0 0 1 -208.452 35.7759A 2.25 2.25 0 0 0 -210.298 33.818C -211.2615676313428 33.71990535061611 -212.31761680543752 33.58668815691635 -213.46402914465207 33.40835962459227 C -216.11340449280848 32.996158750870265 -219.2409750271793 32.34413924538441 -222.80846934077672 31.331808691281392 A 225 225 0 0 1 -223.423 26.6018C -220.23183989172324 24.71204508533138 -217.37445048787637 23.283006010364502 -214.9181645764463 22.20794377168886 C -213.85529509112882 21.742787051727596 -212.86827370547303 21.344320662854543 -211.9619345369123 21.00353311420622 A 2.25 2.25 0 0 0 -210.677 18.6391A 211.5 211.5 0 0 1 -210.756 17.7239A 2.25 2.25 0 0 0 -212.427 15.6145C -213.3782391418425 15.434022017400729 -214.4189270173895 15.210514915739854 -215.54576556228108 14.934295418435898 C -218.14989862121715 14.295867421655998 -221.20984071102808 13.377400606794321 -224.67710399241554 12.062138592645553 A 225 225 0 0 1 -224.882 7.29684C -221.54094612876585 5.688379625547878 -218.57128722416823 4.5102655082643475 -216.03167654451488 3.6503370859484034 C -214.93275451228655 3.278271656181918 -213.91513282421315 2.9661294149423645 -212.9828530316726 2.7045166663967874 A 2.25 2.25 0 0 0 -211.5 0.4593A 211.5 211.5 0 0 1 -211.5 -0.4593A 2.25 2.25 0 0 0 -212.983 -2.70451C -213.91513282421315 -2.966129414942311 -214.93275451228655 -3.2782716561818646 -216.03167654451488 -3.65033708594835 C -218.57128722416823 -4.510265508264292 -221.54094612876585 -5.688379625547823 -224.88230797369664 -7.296835359959266 A 225 225 0 0 1 -224.677 -12.0621C -221.20984071102808 -13.377400606794266 -218.14989862121715 -14.295867421655942 -215.54576556228108 -14.934295418435845 C -214.4189270173895 -15.2105149157398 -213.3782391418425 -15.434022017400675 -212.42692099873008 -15.614523076583524 A 2.25 2.25 0 0 0 -210.756 -17.7239A 211.5 211.5 0 0 1 -210.677 -18.6391A 2.25 2.25 0 0 0 -211.962 -21.0035C -212.86827370547303 -21.344320662854493 -213.85529509112882 -21.74278705172755 -214.9181645764463 -22.20794377168881 C -217.37445048787637 -23.283006010364453 -220.23183989172324 -24.71204508533133 -223.42256202613717 -26.601786096497012 A 225 225 0 0 1 -222.808 -31.3318C -219.2409750271793 -32.34413924538436 -216.11340449280848 -32.996158750870215 -213.46402914465207 -33.40835962459222 C -212.31761680543752 -33.58668815691631 -211.2615676313428 -33.71990535061606 -210.29825436435314 -33.81795835374575 A 2.25 2.25 0 0 0 -208.452 -35.7759A 211.5 211.5 0 0 1 -208.295 -36.6809A 2.25 2.25 0 0 0 -209.372 -39.147C -210.24541236427353 -39.564486028299626 -211.1945258865007 -40.04632645907409 -212.21347371110338 -40.60113061161955 C -214.56824937280075 -41.88336728197092 -217.29221416446342 -43.55275120928687 -220.3086735980127 -45.709786515922325 A 225 225 0 0 1 -219.29 -50.3695C -215.64892586989725 -51.07141319322025 -212.47688232896238 -51.45215806503322 -209.8018797397285 -51.635080024644694 C -208.64438124205614 -51.714197309927236 -207.58078938801958 -51.75613830217232 -206.61261303154788 -51.77101729911941 A 2.25 2.25 0 0 0 -204.605 -53.563A 211.5 211.5 0 0 1 -204.371 -54.4512A 2.25 2.25 0 0 0 -205.231 -57.0007C -206.06596754832646 -57.49172978158691 -206.97014630267208 -58.053376876294465 -207.937628533365 -58.69372088558758 C -210.17346001019402 -60.173638755922525 -212.74383290738643 -62.07100800105575 -215.56369682979135 -64.47936766843091 A 225 225 0 0 1 -214.148 -69.0343C -210.46028751439502 -69.42057226608883 -207.26725566747277 -69.5272236024089 -204.58643062043103 -69.47951235771963 C -203.42641567820456 -69.45883263926112 -202.36315560619545 -69.4091869136188 -201.39728419924984 -69.34078174549559 A 2.25 2.25 0 0 0 -199.243 -70.9536A 211.5 211.5 0 0 1 -198.933 -71.8183A 2.25 2.25 0 0 0 -199.572 -74.4324C -200.36088240478998 -74.99332488215772 -201.21343216810115 -75.63062040221217 -202.12228590494058 -76.3517633852448 C -204.22261988289537 -78.01840566142907 -206.62037074398106 -80.12971276631968 -209.22276186934374 -82.7715661420682 A 225 225 0 0 1 -207.421 -87.188C -203.7134748237119 -87.25576571002041 -200.52309476145334 -87.08753390166753 -197.8562951473139 -86.8095426900405 C -196.70235210531203 -86.68921907324119 -195.64729582090152 -86.54835418929461 -194.6908803374504 -86.39717130403304 A 2.25 2.25 0 0 0 -192.406 -87.8188A 211.5 211.5 0 0 1 -192.023 -88.6537A 2.25 2.25 0 0 0 -192.434 -91.313C -193.1723953880332 -91.93969564315682 -193.96700418014328 -92.64792127549778 -194.8105005880416 -93.44452414192925 C -196.75978692919162 -95.2855515876568 -198.96716364569428 -97.59516517318156 -201.3328147806191 -100.45095289921255 A 225 225 0 0 1 -199.158 -104.696C -195.45843883850765 -104.44494799274133 -192.29433101867798 -104.0030785691654 -189.66130088875283 -103.49686554027092 C -188.5219731375294 -103.27778885909207 -187.48293190831558 -103.0467477311577 -186.54305331397808 -102.813906433946 A 2.25 2.25 0 0 0 -184.145 -104.034A 211.5 211.5 0 0 1 -183.691 -104.833A 2.25 2.25 0 0 0 -183.872 -107.518C -184.55372754089785 -108.20537706448316 -185.28451235631925 -108.9792893543151 -186.05640648298578 -109.84545433522919 C -187.8402133532564 -111.8472366274107 -189.84087328026024 -114.33805712264505 -191.9522699714127 -117.38663594578722 A 225 225 0 0 1 -189.421 -121.429C -185.75629695703375 -120.86085642259603 -182.64188732690707 -120.14862083041265 -180.062120715062 -119.41793380840832 C -178.94584343867135 -119.1017260299492 -177.93050996238674 -118.78221920570407 -177.01412678944078 -118.46944337204278 A 2.25 2.25 0 0 0 -174.52 -119.479A 211.5 211.5 0 0 1 -173.999 -120.236A 2.25 2.25 0 0 0 -173.949 -122.926C -174.56868846471758 -123.66994373175443 -175.230238828356 -124.50381290325156 -175.92481583973893 -125.43312721617406 C -177.52993655716176 -127.58084385908018 -179.3090675085366 -130.23443010053884 -181.1505777135281 -133.4532294097895 A 225 225 0 0 1 -178.281 -137.263C -174.67888044329987 -136.3819533569908 -171.63722700214157 -135.40462473933525 -169.12982359778977 -134.45487347528712 C -168.04486132263526 -134.04387569130805 -167.06075277310435 -133.63826868749325 -166.17464960194815 -133.2478740002242 A 2.25 2.25 0 0 0 -163.603 -134.039A 211.5 211.5 0 0 1 -163.019 -134.748A 2.25 2.25 0 0 0 -162.738 -137.424C -163.29120389535467 -138.21890140394203 -163.87862191977382 -139.1065537815037 -164.49073941069196 -140.09213710840018 C -165.9052902230576 -142.36988715942678 -167.44972013570253 -145.16659292298613 -169.00770995726305 -148.5317818544184 A 225 225 0 0 1 -165.821 -152.081C -162.3082026135267 -150.8933260245775 -159.3618246992342 -149.65814018059766 -156.94534843991823 -148.49635630057597 C -155.89973384709015 -147.99361139487405 -154.95413621970442 -147.5049071838365 -154.104873448197 -147.03978398863708 A 2.25 2.25 0 0 0 -151.474 -147.607A 211.5 211.5 0 0 1 -150.832 -148.263A 2.25 2.25 0 0 0 -150.321 -150.905C -150.80476838291594 -151.74453468867344 -151.31370503058255 -152.67939840465846 -151.8388310972942 -153.71395383140182 C -153.05233916529562 -156.10487362608575 -154.35063362048598 -159.02399308075366 -155.61356824706934 -162.5106569528952 A 225 225 0 0 1 -152.134 -165.773C -148.7358516382465 -164.28753729920783 -145.90656320205034 -162.80363911273906 -143.5989048325435 -161.43842405811907 C -142.60037928665886 -160.8476541780812 -141.70029345541593 -160.2794709548168 -140.89415872798656 -159.74306286109203 A 2.25 2.25 0 0 0 -138.225 -160.082A 211.5 211.5 0 0 1 -137.528 -160.681A 2.25 2.25 0 0 0 -136.792 -163.269C -137.20182712731608 -164.14670452931128 -137.62851440935202 -165.1218581798465 -138.0627612021847 -166.19772622001628 C -139.06624213665557 -168.6841142247069 -140.10878901647834 -171.704035231351 -141.0673181219713 -175.28636000476888 A 225 225 0 0 1 -137.32 -178.237C -134.06231245553238 -176.46542112682667 -131.3710605591332 -174.74379686087127 -129.1893051746247 -173.18525820627067 C -128.24526140947182 -172.51083720539643 -127.39735129495395 -171.8673815997004 -126.64031295108286 -171.26365998530355 A 2.25 2.25 0 0 0 -123.952 -171.372A 211.5 211.5 0 0 1 -123.206 -171.908A 2.25 2.25 0 0 0 -122.251 -174.424C -122.58309154636122 -175.33358959949277 -122.92437041941513 -176.3418134881259 -123.26452292704427 -177.45102879116575 C -124.05054730623283 -180.01447665898698 -124.82962795834489 -183.1128407790515 -125.4766549286102 -186.76430417446844 A 225 225 0 0 1 -121.49 -189.382C -118.39622281567365 -187.3368167162409 -115.86293254652622 -185.39021267452065 -113.8232331005539 -183.64988929485344 C -112.94066048587818 -182.89681035027414 -112.15120371791555 -182.18284628232578 -111.44886660463632 -181.51628089086623 A 2.25 2.25 0 0 0 -108.761 -181.393A 211.5 211.5 0 0 1 -107.972 -181.863A 2.25 2.25 0 0 0 -106.804 -184.288C -107.05679364364717 -185.2223661161051 -107.31013739834589 -186.25619570591115 -107.55367725061392 -187.3905460297977 C -108.1164256250224 -190.01207488960767 -108.62627200885183 -193.1659429191699 -108.95700648257647 -196.85951077914086 A 225 225 0 0 1 -104.76 -199.125C -101.85356896528126 -196.8212360580732 -99.49699591821806 -194.66406421585617 -97.61445363185187 -192.75484085653983 C -96.79988642650736 -191.928679501282 -96.07472786680334 -191.14949291124634 -95.4322918423766 -190.4250187596717 A 2.25 2.25 0 0 0 -92.7647 -190.071A 211.5 211.5 0 0 1 -91.9383 -190.472A 2.25 2.25 0 0 0 -90.5662 -192.787C -90.737884696672 -193.73982103759775 -90.90141766449293 -194.79160221599898 -91.04654177754074 -195.94268922780836 C -91.38184775509336 -198.60289019712133 -91.61868514639384 -201.78891200073167 -91.63067848124815 -205.49723844108715 A 225 225 0 0 1 -87.2541 -207.393C -84.55682692569825 -204.84845982982296 -82.39441834306734 -202.49669113270096 -80.68297090075197 -200.43270301550936 C -79.94243987533503 -199.53957585919892 -79.28694834415505 -198.70093557197518 -78.70916978013703 -197.92391641343255 A 2.25 2.25 0 0 0 -76.0819 -197.342A 211.5 211.5 0 0 1 -75.2241 -197.67A 2.25 2.25 0 0 0 -73.658 -199.859C -73.74718419779522 -200.8228941077272 -73.81969563785972 -201.88483985486457 -73.86532956352879 -203.04414130909132 C -73.970710656081 -205.72331919065283 -73.93278559366945 -208.91790657756837 -73.62594899519826 -212.61353644677322 A 225 225 0 0 1 -69.1025 -214.126C -66.63405572338803 -211.35905727516268 -64.68182132177506 -208.8301033957577 -63.1541396815906 -206.62663156658462 C -62.49312746872442 -205.67315101020918 -61.912155996029036 -204.78126602506958 -61.403312562760796 -203.9574546375537 A 2.25 2.25 0 0 0 -58.8358 -203.152A 211.5 211.5 0 0 1 -57.9529 -203.405A 2.25 2.25 0 0 0 -56.2045 -205.451C -56.21048534898743 -206.41914473163143 -56.19143841196284 -207.48339277273527 -56.1372442926334 -208.64232560701615 C -56.011920295445506 -211.3206447051531 -55.699513563215234 -214.50014606804882 -55.076118742240965 -218.15571821553857 A 225 225 0 0 1 -50.4394 -219.274C -48.21794928570668 -216.30482620846465 -46.49034272559446 -213.6174106364967 -45.157737307916065 -211.29076882983836 C -44.58113781075688 -210.2839941098439 -44.078987706065874 -209.3454676311752 -43.64284670229869 -208.48096322597303 A 2.25 2.25 0 0 0 -41.1541 -207.457A 211.5 211.5 0 0 1 -40.2527 -207.634A 2.25 2.25 0 0 0 -38.3349 -209.522C -38.25762373297416 -210.48714022764696 -38.14715943571825 -211.54581124256856 -37.99353850568896 -212.69579512367346 C -37.638437273789165 -215.35342610084456 -37.05386182188409 -218.4943015240393 -36.11852417555457 -222.08275137260608 A 225 225 0 0 1 -31.4028 -222.798C -29.444854021490052 -219.649149886919 -27.95466589741329 -216.82316930703894 -26.82700284651585 -214.39058316481157 C -26.33908500600621 -213.33796808898535 -25.91947401300786 -212.3597486384742 -25.55926447414131 -211.46095170373832 A 2.25 2.25 0 0 0 -23.1677 -210.227A 211.5 211.5 0 0 1 -22.2545 -210.326A 2.25 2.25 0 0 0 -20.1815 -212.042C -20.021516056006746 -212.9967625803876 -19.82045223752835 -214.0420185393289 -19.568541852417916 -215.1745393889461 C -18.986292431088206 -217.79180607521965 -18.133876251629275 -220.87080161597567 -16.893520692632077 -224.36556153842886 A 225 225 0 0 1 -12.1337 -224.673C -10.453759359946275 -221.36726810808642 -9.212022503404693 -218.42364509178407 -8.29765064198246 -215.90312463069765 C -7.902026831106079 -214.81246239278354 -7.568061602783564 -213.8017923649926 -7.286450394217187 -212.87535727876647 A 2.25 2.25 0 0 0 -5.00984 -211.441A 211.5 211.5 0 0 1 -4.09145 -211.46A 2.25 2.25 0 0 0 -1.87868 -212.992C -1.637176079072784 -213.9294314239933 -1.347001345537869 -214.95353361753718 -0.9986665617019623 -216.0602066475303 C -0.1935797219467119 -218.61773171606217 0.9203661939075367 -221.61205156864142 2.4565565069758244 -224.98724758522408 A 225 225 0 0 1 7.22517 -224.885C 8.61473127844995 -221.44646052577397 9.598823482216021 -218.406988627979 10.293134464811644 -215.8171948996749 C 10.593535185775632 -214.69656038129324 10.839382087715958 -213.66092242350598 11.04031001512103 -212.7137081870369 A 2.25 2.25 0 0 0 13.1852 -211.089A 211.5 211.5 0 0 1 14.1018 -211.029A 2.25 2.25 0 0 0 16.4381 -212.365C 16.75928497675313 -213.27824160465812 17.13642227314067 -214.27360793846537 17.578602506834144 -215.34623972891117 C 18.60056618372849 -217.82508815889327 19.967794570152456 -220.71256342672763 21.788446221679575 -223.94320676701017 A 225 225 0 0 1 26.5306 -223.431C 27.61944146048981 -219.88614082702816 28.33860313710725 -216.77332323425412 28.80771280527916 -214.13343016540765 C 29.010666374493706 -212.99112015245703 29.16657478560414 -211.93818176577506 29.2853318317719 -210.9772012218687 A 2.25 2.25 0 0 0 31.2825 -209.174A 211.5 211.5 0 0 1 32.1907 -209.036A 2.25 2.25 0 0 0 34.6331 -210.166C 35.03166615016904 -211.0480143039731 35.49297381681549 -212.0072754339563 36.025725752621526 -213.03792459435917 C 37.25700000514487 -215.41974385928862 38.867388381516584 -218.17899668573375 40.95902190366459 -221.24116879672738 A 225 225 0 0 1 45.6396 -220.323C 46.419666961148515 -216.69786107299058 46.86857368917618 -213.53474399761538 47.10900891906826 -210.86429643289094 C 47.21301273931411 -209.7087681890481 47.27782836826635 -208.6463249608957 47.3135352975764 -207.67869287328165 A 2.25 2.25 0 0 0 49.1483 -205.71A 211.5 211.5 0 0 1 50.0413 -205.495A 2.25 2.25 0 0 0 52.5717 -206.41C 53.04468512391067 -207.2552613445847 53.58674780024953 -208.17131523695335 54.2061271292289 -209.15235120152207 C 55.63759603360052 -211.4195071448866 57.47922164780666 -214.03010898739313 59.82635131777575 -216.9011386181478 A 225 225 0 0 1 64.4107 -215.584C 64.87621748843935 -211.90522617147928 65.05154571952157 -208.71522822565169 65.0615264128126 -206.03399722451107 C 65.06581047619238 -204.87380587660974 65.03905345074664 -203.80972376493196 64.99144590158713 -202.84260414304225 A 2.25 2.25 0 0 0 66.6502 -200.724A 211.5 211.5 0 0 1 67.5214 -200.432A 2.25 2.25 0 0 0 70.1211 -201.127C 70.66497980769724 -201.92806294243672 71.28378425132394 -202.7941274546708 71.98520530562666 -203.71828697635797 C 73.60627076690548 -205.853994368761 75.66549886722656 -208.2966172446562 78.2507473581287 -210.95524829627067 A 225 225 0 0 1 82.7049 -209.249C 82.8524471996371 -205.5437191145096 82.7528988648929 -202.35045792693847 82.53235112802167 -199.67829438563396 C 82.43688371682899 -198.52202958449868 82.31875213664021 -197.46418668096078 82.1881825786487 -196.50473974011052 A 2.25 2.25 0 0 0 83.6587 -194.251A 211.5 211.5 0 0 1 84.5016 -193.886A 2.25 2.25 0 0 0 87.1514 -194.354C 87.76209570448866 -195.1058598106759 88.45306050380321 -195.9155229041361 89.23133020734886 -196.77596382917815 C 91.02999042402048 -198.7644106403046 93.29157520606225 -201.02097022441393 96.09580224256966 -203.44751912275518 A 225 225 0 0 1 100.387 -201.365C 100.21526637928946 -197.66043827463585 99.84157849976036 -194.48755563393016 99.39213519100781 -191.8442433164138 C 99.19762311255403 -190.7004656420908 98.98899158251136 -189.6566938454439 98.77642670701293 -188.71202299510216 A 2.25 2.25 0 0 0 100.048 -186.34A 211.5 211.5 0 0 1 100.856 -185.904A 2.25 2.25 0 0 0 103.536 -186.143C 104.20945174993962 -186.83916115441096 104.96746124331521 -187.58642836682955 105.81681755951135 -188.37678029165923 C 107.77975588062738 -190.2032447570158 110.22695336192247 -192.25703427167926 113.22939742816959 -194.43353569767876 A 225 225 0 0 1 117.325 -191.99C 116.83612678890616 -188.31374870507923 116.19106601891035 -185.18473552421676 115.5160546592881 -182.58984459007385 C 115.2239380129483 -181.46702217229117 114.92635116790639 -180.44504920373404 114.63336473086935 -179.52214845636553 A 2.25 2.25 0 0 0 115.696 -177.05A 211.5 211.5 0 0 1 116.464 -176.546A 2.25 2.25 0 0 0 119.155 -176.553C 119.88527747431316 -177.1891707182295 120.70471962466503 -177.86850954461153 121.61887421651015 -178.58292098009719 C 123.73155773351273 -180.2338805958061 126.34624972010873 -182.06969450201478 129.52468177069176 -183.98003440060532 A 225 225 0 0 1 133.395 -181.193C 132.59197339314184 -177.5728500252937 131.68031553693345 -174.5108724231202 130.78473367438244 -171.9836145369547 C 130.3971751896035 -170.8900603600526 130.01283625844655 -169.8974525498876 129.6415974289438 -169.0031547397312 A 2.25 2.25 0 0 0 130.488 -166.449A 211.5 211.5 0 0 1 131.21 -165.88A 2.25 2.25 0 0 0 133.891 -165.657C 134.6735145484349 -166.22733365508643 135.54832249277942 -166.83371450844106 136.52050727951007 -167.466896202265 C 138.7672944228022 -168.93012784095146 141.5301226500306 -170.53437441483865 144.8610106860826 -172.16440929778008 A 225 225 0 0 1 148.478 -169.055C 147.36615541622444 -165.51726409119462 146.1946500696098 -162.54499187858488 145.08512827890388 -160.10407797357618 C 144.6049973031123 -159.0478883300795 144.1367517968183 -158.09199459925017 143.69000909725838 -157.23292079440512 A 2.25 2.25 0 0 0 144.314 -154.615A 211.5 211.5 0 0 1 144.984 -153.987A 2.25 2.25 0 0 0 147.636 -153.534C 148.4646760389569 -154.03480757138794 149.38837300534252 -154.56374102003096 150.41139027093524 -155.11100511646282 C 152.7756466145897 -156.37567552301374 155.66615606888462 -157.7364774842228 159.12483936076183 -159.07413914354095 A 225 225 0 0 1 162.461 -155.665C 161.04928998348646 -152.2362462431597 159.62661056217829 -149.37568508366934 158.31136335446828 -147.03918683236952 C 157.74221460942576 -146.0281813808705 157.1935292538986 -145.11607883212207 156.6745902109276 -144.29858931447586 A 2.25 2.25 0 0 0 157.071 -141.637A 211.5 211.5 0 0 1 157.684 -140.953A 2.25 2.25 0 0 0 160.288 -140.274C 161.15665701130624 -140.70186166446823 162.12240427056696 -141.14943167020337 163.18867995310958 -141.60672641734408 C 165.65290137033847 -142.66347241453857 168.64969173100056 -143.77075486145142 172.21056339769672 -144.8061397182273 A 225 225 0 0 1 175.241 -141.123C 173.54007195389957 -137.82812449071648 171.87675147858144 -135.1004529783481 170.36551648402875 -132.88566899634094 C 169.71156374791605 -131.92733286748276 169.08650081755988 -131.06577438896957 168.49920747429113 -130.2959215648965 A 2.25 2.25 0 0 0 168.665 -127.61A 211.5 211.5 0 0 1 169.218 -126.876A 2.25 2.25 0 0 0 171.753 -125.975C 172.655490478897 -126.32720840103471 173.65613797621052 -126.69010131213054 174.7577777436065 -127.05404105966558 C 177.30372000119183 -127.89503886986334 180.38460408087548 -128.7406038706471 184.02130067440976 -129.46604629765045 A 225 225 0 0 1 186.724 -125.536C 184.7460239478948 -122.3995715263618 182.85437706142136 -119.82498438666464 181.15834293519103 -117.74831215966823 C 180.42442784526833 -116.84974053885668 179.72761508732927 -116.04510480812084 179.0763155582005 -115.32858839858254 A 2.25 2.25 0 0 0 179.011 -112.638A 211.5 211.5 0 0 1 179.498 -111.86A 2.25 2.25 0 0 0 181.947 -110.744C 182.87604310182303 -111.01727268460124 183.90418239321494 -111.29280176890904 185.0330300900564 -111.56069203427899 C 187.6418439222698 -112.17971520393253 190.78401193315554 -112.7573024911586 194.4696086243176 -113.16743156646982 A 225 225 0 0 1 196.825 -109.02C 194.58418101752628 -106.064814958268 192.478212811616 -103.66237353365561 190.60993639698853 -101.73918801627494 C 189.8014926038073 -100.90703361340792 189.0380889761518 -100.16527787188255 188.327605255007 -99.50740271368821 A 2.25 2.25 0 0 0 188.031 -96.8328A 211.5 211.5 0 0 1 188.45 -96.0152A 2.25 2.25 0 0 0 190.794 -94.6932C 191.7426454843209 -94.8854039227371 192.79066458619207 -95.0715292593158 193.93836261908058 -95.24138667672243 C 196.59073328105205 -95.6338521748608 199.7709217105351 -95.93918549433451 203.4781316309004 -96.03096476577156 A 225 225 0 0 1 205.468 -91.6962C 202.98170488991883 -88.9447916090368 200.67700721635475 -86.73228273527673 198.65032057825164 -84.97682252021905 C 197.77333351680704 -84.21724631535021 196.94899099280283 -83.54386226302806 196.18458325253698 -82.94949903367866 A 2.25 2.25 0 0 0 195.659 -80.3103A 211.5 211.5 0 0 1 196.006 -79.4598A 2.25 2.25 0 0 0 198.228 -77.9411C 199.18965240450186 -78.05103682771085 200.24979215009162 -78.14638040968794 201.4078433643359 -78.21694741424065 C 204.08413363166704 -78.37994956362722 207.27879747726556 -78.41076833427793 210.98017374162234 -78.18351830022583 A 225 225 0 0 1 212.59 -73.6937C 209.8764232363562 -71.16625214177675 207.39005927037073 -69.16005646048156 205.2199672875852 -67.58531836099769 C 204.28092986324938 -66.90394399059554 203.40175158653213 -66.30391712740365 202.5890792346114 -65.7774662842999 A 2.25 2.25 0 0 0 201.839 -63.1932A 211.5 211.5 0 0 1 202.111 -62.316A 2.25 2.25 0 0 0 204.194 -60.612C 205.16192882860727 -60.63880716366725 206.22634031414958 -60.64266310051958 207.38617090372585 -60.61341723880587 C 210.06656645962892 -60.545749228556026 213.2520535479446 -60.301825278988396 216.92019246142917 -59.757228419191456 A 225 225 0 0 1 218.138 -55.1456C 215.21728997445123 -52.86082264253981 212.56766788494622 -51.07579332462769 210.27023715927047 -49.69343615065383 C 209.27610167659293 -49.09530827216491 208.34859677552603 -48.57308098706743 207.493676553715 -48.11844018806273 A 2.25 2.25 0 0 0 206.524 -45.6083A 211.5 211.5 0 0 1 206.72 -44.7109A 2.25 2.25 0 0 0 208.649 -42.8342C 209.61525811150884 -42.77762898703577 210.6760608067695 -42.689968730755936 211.82908379178156 -42.56112652890373 C 214.4937399253485 -42.26328934929039 217.64646602448337 -41.74642860708553 221.25420996994916 -40.88851692615603 A 225 225 0 0 1 222.071 -36.1893C 218.96476319547983 -34.16403010683205 216.1714998573848 -32.61338288484603 213.7637397621114 -31.43364112525406 C 212.7218664523885 -30.923188068224167 211.75290184875402 -30.4826267493287 210.86206328726473 -30.10316199583407 A 2.25 2.25 0 0 0 209.68 -27.6857A 211.5 211.5 0 0 1 209.798 -26.7747A 2.25 2.25 0 0 0 211.558 -24.7392C 212.51666936127864 -24.599740211959766 213.5660094542442 -24.421212768415636 214.70368825591825 -24.193728129009518 C 217.3328767854173 -23.667926862306494 220.42950021437517 -22.88195598356602 223.95013871788848 -21.717081159432666 A 225 225 0 0 1 224.36 -16.965C 221.09109791883898 -15.214299045155725 218.17487367663236 -13.90951436860366 215.6746104251056 -12.94112241862626 C 214.5927129538031 -12.52212339889784 213.5894625225155 -12.166489808070647 212.66930107838022 -11.865010524357917 A 2.25 2.25 0 0 0 211.284 -9.55806A 211.5 211.5 0 0 1 211.323 -8.64031A 2.25 2.25 0 0 0 212.902 -6.46099" stroke="#191919" stroke-width="0.35 px" style="stroke-width:0.35;stroke-miterlimit:4;stroke-dasharray:none;fill:none;fill-rule: evenodd "/>
<title>b'InvoluteGear'</title>
</g>
</svg>