<?xml version="1.0"?>
<!DOCTYPE svg PUBLIC "-//W3C//DTD SVG 1.1//EN" "http://www.w3.org/Graphics/SVG/1.1/DTD/svg11.dtd">
<svg width="862.8520183032658mm" height="862.9060364170241mm" viewBox="0 0 862.8520183032658 862.9060364170241" xmlns="http://www.w3.org/2000/svg" version="1.1">
<g id="InvoluteGear" transform="translate(431.399680,431.453018) scale(1,-1)">
<path id="InvoluteGear_w0000"  d="M 410.945819899 -6.67331308561455 C 411.9270785781447 -6.380266402437865 412.9431196342135 -6.063591868331147 413.99307541096726 -5.721474676925024 C 416.763258646733 -4.818827277261269 419.76894092547496 -3.7393360857548137 422.9930052829549 -2.4502050996136635 A 423 423 0 0 1 422.993 2.45021C 419.76894092547496 3.7393360857548137 416.763258646733 4.818827277261269 413.99307541096726 5.721474676925024 C 412.9431196342135 6.063591868331147 411.9270785781447 6.380266402437865 410.94582204074214 6.673312191949509 A 2.25 2.25 0 0 0 409.404 8.88624A 409.5 409.5 0 0 1 409.387 9.62272A 2.25 2.25 0 0 0 410.828 11.9031C 411.7946143904663 12.240156220336884 412.7953078972496 12.602419513606819 413.82873179478304 12.991631992596204 C 416.55529709683486 14.018534685885186 419.5091297787444 15.232742114855487 422.67164839532677 16.666243311357224 A 423 423 0 0 1 422.45 21.5616C 419.1711881786797 22.703775037006093 416.11979673977504 23.646344652399364 413.31165489591444 24.42289270152213 C 412.2473122394297 24.717215679526284 411.2179993477337 24.98765450654207 410.2245031643718 25.23606054630573 A 2.25 2.25 0 0 0 408.584 27.377A 409.5 409.5 0 0 1 408.534 28.112A 2.25 2.25 0 0 0 409.87 30.4551C 410.8208774014437 30.835572905315157 411.80417899944706 31.242684874597863 412.8189597919527 31.678197502377834 C 415.4963369436109 32.827257585931235 418.3922855177737 34.17370069616215 421.48679754913724 35.748643542219725 A 423 423 0 0 1 421.044 40.629C 417.7170927129692 41.621831476784415 414.6262259317665 42.42555390034954 411.7858623526913 43.07441615576321 C 410.7093072075359 43.32034363538606 409.6688253074709 43.54399426428349 408.66511913392486 43.7472530749936 A 2.25 2.25 0 0 0 406.929 45.8119A 409.5 409.5 0 0 1 406.846 46.5439A 2.25 2.25 0 0 0 408.075 48.945C 409.0078568999504 49.367994281728016 409.9717577603522 49.81912322059779 410.965822308818 50.30004626982468 C 413.5885415819757 51.56891627973302 416.42068979139265 53.044844365101625 419.44087332677304 54.758011342724856 A 423 423 0 0 1 418.778 59.6134C 415.4096251620599 60.45485689978905 412.2855975022864 61.11809017266805 409.41881488803574 61.637941045964645 C 408.3322465946846 61.83497061145698 407.28272133115263 62.01137613681641 406.27085568162255 62.16907247236943 A 2.25 2.25 0 0 0 404.444 64.1532A 409.5 409.5 0 0 1 404.328 64.8806A 2.25 2.25 0 0 0 405.447 67.3348C 406.35925678298474 67.79955967461227 407.3017877115588 68.29378395249672 408.27310519907223 68.8191349249379 C 410.8358085285362 70.20522263247723 413.5983704566978 71.80762045647589 416.53805543418906 73.65551166369406 A 423 423 0 0 1 415.657 78.476C 412.25349954994056 79.16437651421427 409.1026932210982 79.68576568883394 406.21534824428613 80.07554315446681 C 405.12098659950203 80.22327228571613 404.0645620924787 80.35207232115731 403.04660415050665 80.46388401697573 A 2.25 2.25 0 0 0 401.132 82.3634A 409.5 409.5 0 0 1 400.983 83.0849A 2.25 2.25 0 0 0 401.99 85.5871C 402.88048798882073 86.09261445200005 403.79972344888705 86.62892439701852 404.7463095294776 87.19763003073993 C 407.2437614591889 88.6981037381467 409.9310933503708 90.42369769383843 412.784274162008 92.40253799479949 A 423 423 0 0 1 411.686 97.1783C 408.2551636603904 97.71216784354438 405.0840155792676 98.0906477516966 402.1820069202367 98.34955551663774 C 401.082087642153 98.44768241149379 400.02092210637295 98.52861382592454 398.9989515017053 98.5943124571206 A 2.25 2.25 0 0 0 397 100.405A 409.5 409.5 0 0 1 396.819 101.119A 2.25 2.25 0 0 0 397.712 103.665C 398.5786574427712 104.20978695117424 399.47271948895707 104.78708691283967 400.39264034150165 105.39798537481845 C 402.81973872027186 107.00977970028563 405.42635050940476 108.85504449809564 408.18719827027707 110.96079123545236 A 423 423 0 0 1 406.874 115.682C 403.4227858645269 116.06033881288305 400.2377745049464 116.2951362418024 397.32703080110184 116.42264537232346 C 396.22380096177824 116.47096956316273 395.1600622976262 116.50386701834074 394.1361668576494 116.52331836637545 A 2.25 2.25 0 0 0 392.057 118.242A 409.5 409.5 0 0 1 391.844 118.947A 2.25 2.25 0 0 0 392.621 121.53C 393.46255353814655 122.11406482683412 394.3296156529215 122.73117541440416 395.22099193182976 123.38301867408703 C 397.572778336744 125.10284081416363 400.09334486530173 127.06400668384371 402.7562193216304 129.2923579376711 A 423 423 0 0 1 401.231 133.949C 397.76623843329145 134.17140516029127 394.5738705909597 134.2620404322844 391.66033832490257 134.25789043453798 C 390.55605175968566 134.25631319780757 389.4919131243002 134.24110948611695 388.4681846087288 134.21427381300086 A 2.25 2.25 0 0 0 386.314 135.837A 409.5 409.5 0 0 1 386.069 136.532A 2.25 2.25 0 0 0 386.729 139.148C 387.54262818207087 139.76887066519583 388.38091900721713 140.42453115710052 389.2419296818272 141.1159875360586 C 391.51359954801774 142.94032399265834 393.94297144301095 145.0133843847117 396.5024324948647 147.35978776108288 A 423 423 0 0 1 394.769 151.943C 391.2970773689657 152.00836701498642 388.1038748684615 151.95465496738595 385.1935062196659 151.81885431957969 C 384.09041892273274 151.76737887748388 383.02805429037073 151.70410505923644 382.0065841179023 151.63103718871199 A 2.25 2.25 0 0 0 379.781 153.155A 409.5 409.5 0 0 1 379.505 153.838A 2.25 2.25 0 0 0 380.046 156.481C 380.8309754428346 157.13813670955307 381.63878239823043 157.83100762897683 382.46766847307003 158.56066452144842 C 384.6545809091671 160.485788279725 386.9877951030176 162.66650805055718 389.43861391812464 165.1261699818232 A 423 423 0 0 1 387.5 169.627C 384.02851879692065 169.53478448595826 380.8410051679819 169.33683484939985 377.93974585283297 169.06966098447583 C 376.8401113683242 168.96839249839323 375.7816910890561 168.857177838374 374.7645660647227 168.73802704391395 A 2.25 2.25 0 0 0 372.473 170.16A 409.5 409.5 0 0 1 372.166 170.83A 2.25 2.25 0 0 0 372.587 173.494C 373.3413068424058 174.18637854463714 374.1169796247288 174.9150443959932 374.9120477330423 175.68141115475632 C 377.00973500224916 177.70338929718133 379.2420248720521 179.9873133612559 381.5791945680053 182.55520889903 A 423 423 0 0 1 379.439 186.963C 375.9754119658301 186.71485210657843 372.80009911615605 186.373069280827 369.91387624119227 185.97506801968214 C 368.8199410593507 185.82421337532716 367.76762742515945 185.66528507871408 366.75692547710446 185.5002947785641 A 2.25 2.25 0 0 0 364.403 186.817A 409.5 409.5 0 0 1 364.066 187.473A 2.25 2.25 0 0 0 364.366 190.153C 365.0889233445769 190.87876758924426 365.83087729877883 191.6417397499508 366.59050316197835 192.44325073163023 C 368.5946798094016 194.55795247271817 370.72148491486337 196.94041490404115 372.94023078789377 199.61129798488022 A 423 423 0 0 1 370.603 203.918C 367.15420891150666 203.5134719831169 363.9975838233035 203.02855421090123 361.13229377647775 202.50053864730663 C 360.0462927441973 202.30040603207365 359.00223557153987 202.09408878027 358.0000215059299 201.88359604015938 A 2.25 2.25 0 0 0 355.589 203.093A 409.5 409.5 0 0 1 355.223 203.732A 2.25 2.25 0 0 0 355.402 206.424C 356.0906840959717 207.18120224903112 356.79740345263815 207.9769220106822 357.52003519861177 208.81193977426892 C 359.4266068062002 211.01504489953527 361.4435822063564 213.49117846387472 363.5393714857797 216.25959262668638 A 423 423 0 0 1 361.01 220.457C 357.58293084633465 219.89632549772764 354.4514423237829 219.26926343827063 351.6129387284795 218.61231227776733 C 350.5370904836411 218.36331055112174 349.5034227214968 218.110025838451 348.511744004241 217.8544606829865 A 2.25 2.25 0 0 0 346.049 218.954A 409.5 409.5 0 0 1 345.654 219.576A 2.25 2.25 0 0 0 345.711 222.272C 346.3649719837756 223.06037758411827 347.0350129557559 223.88721933683567 347.7191742892535 224.75403798888527 C 349.5242458404594 227.04104568079717 351.4272709701403 229.60579177916375 353.39582207854755 232.46608131244363 A 423 423 0 0 1 350.679 236.544C 347.28113134296655 235.82994341941898 344.18117683768327 235.0620181245774 341.37525859410096 234.27747348074297 C 340.3117610330227 233.98011133894445 339.2905944054004 233.68037661156137 338.31147697929487 233.38026114571176 A 2.25 2.25 0 0 0 335.801 234.367A 409.5 409.5 0 0 1 335.379 234.971A 2.25 2.25 0 0 0 335.314 237.667C 335.9316560805498 238.48385334917384 336.56364981253165 239.3401279026348 337.2079430311513 240.2369765823099 C 338.9078268682264 242.60321461519845 340.6930139561354 245.25133361827332 342.53030525641026 248.1976551143997 A 423 423 0 0 1 339.632 252.149C 336.2698563874939 251.28177427977406 333.2077689289058 250.37455457692306 330.44016836723705 249.4640192295104 C 329.3911941544978 249.1189041663758 328.38461484630466 248.7733317651536 327.42005899214735 248.42927910761895 A 2.25 2.25 0 0 0 324.868 249.302A 409.5 409.5 0 0 1 324.419 249.886A 2.25 2.25 0 0 0 324.232 252.576C 324.8120510528551 253.4201202669758 325.4047064178573 254.30407830133217 326.00781526747147 255.2291247981697 C 327.59903862513994 257.66975908331926 329.26274063634804 260.3958410357165 330.9650186476408 263.4221753286972 A 423 423 0 0 1 327.891 267.239C 324.57160138370426 266.2202508737359 321.55363664103146 265.1755901607447 318.83000781064 264.14092428129493 C 317.79769994045006 263.7487613471231 316.80776433553575 263.35805725667615 315.8597405856677 262.97077028732156 A 2.25 2.25 0 0 0 313.271 263.727A 409.5 409.5 0 0 1 312.796 264.29A 2.25 2.25 0 0 0 312.487 266.97C 313.0288736166091 267.83866440006017 313.58097985368016 268.7485000396986 314.14167221746726 269.6998545367107 C 315.62098431758653 272.20989899812525 317.1598024042149 275.00837467062075 318.72358947008917 278.1085391329043 A 423 423 0 0 1 315.48 281.782C 312.2102651962595 280.6148547495988 309.2425886985416 279.43488720844493 306.56849581706393 278.2782045600632 C 305.5549632352508 277.8397949212577 304.58369371533274 277.40475732765543 303.6541388279531 276.9750272515677 A 2.25 2.25 0 0 0 301.033 277.613A 409.5 409.5 0 0 1 300.534 278.154A 2.25 2.25 0 0 0 300.104 280.817C 300.60619612813707 281.71002948894636 301.11662531587046 282.64388399178875 301.6337557314589 283.61960292625065 C 302.9981344241732 286.19392968692125 304.40892486904517 289.05908195406886 305.83102626213054 292.2267431272985 A 423 423 0 0 1 302.425 295.75C 299.2111013266853 294.4361785564559 296.29977586695924 293.1233147932137 293.6806819529264 291.84697841227273 C 292.6879952484793 291.3632177146048 291.7373760615329 290.8847353747233 290.8281890640131 290.4134401058243 A 2.25 2.25 0 0 0 288.181 290.933A 409.5 409.5 0 0 1 287.657 291.451A 2.25 2.25 0 0 0 287.108 294.091C 287.56939740572807 295.0058771295879 288.0371067665407 295.96184268439475 288.50961876612314 296.95993271843224 C 289.7562767039422 299.59328257629585 291.03615734301735 302.5192580961873 292.3136677916541 305.74794463009323 A 423 423 0 0 1 288.752 309.114C 285.6006663219144 307.65598612173244 282.75163957127523 306.2129082418431 280.1928952834794 304.819525610435 C 279.2230824584545 304.2914021492904 278.29505566500814 303.7704525751329 277.40809397428757 303.25855494265187 A 2.25 2.25 0 0 0 274.74 303.658A 409.5 409.5 0 0 1 274.194 304.151A 2.25 2.25 0 0 0 273.526 306.765C 273.9451108821625 307.6990446671078 274.3691449126301 308.67516829102766 274.79607318126625 309.6935903838917 C 275.9224635134567 312.3805835560797 277.06881962392663 315.36140472838645 278.1991292474698 318.6445206013839 A 423 423 0 0 1 274.489 321.846C 271.40676552078276 320.24727013606844 268.6258578776326 318.67692626495204 266.1326905840376 317.16934398395193 C 265.187732910466 316.5979366853002 264.2841944160828 316.0355841469963 263.4212700440726 315.48412992846454 A 2.25 2.25 0 0 0 260.738 315.762A 409.5 409.5 0 0 1 260.17 316.231A 2.25 2.25 0 0 0 259.385 318.811C 259.76117019413556 319.7636006875461 260.14066261703107 320.75788821594716 260.52113496473123 321.79456178965773 C 261.5249565403866 324.5297089030843 262.53544618240386 327.55928608095246 263.51624582305925 330.89012407543555 A 423 423 0 0 1 259.665 333.921C 256.6583962493157 332.1843073277038 253.95128894862344 330.48990558790825 251.52879204715146 328.8712035615317 C 250.61062001941417 328.25767977774234 249.7334157014653 327.655073129305 248.89629155321188 327.06518891409263 A 2.25 2.25 0 0 0 246.204 327.222A 409.5 409.5 0 0 1 245.614 327.664A 2.25 2.25 0 0 0 244.713 330.207C 245.04655231973237 331.1748979942528 245.3807278537807 332.1853181546873 245.71396699733953 333.23812534453475 C 246.59316906649983 336.01583865037134 247.46572786762692 339.08798258122147 248.2950138079285 342.4597379860247 A 423 423 0 0 1 244.311 345.313C 241.38568858085256 343.44271101364893 238.757912087716 341.62771297083935 236.41103460072748 339.9011981145744 C 235.52152399166593 339.2468112395829 234.67244592830906 338.6051815718654 233.86283220048009 337.9780724596237 A 2.25 2.25 0 0 0 231.166 338.013A 409.5 409.5 0 0 1 230.557 338.428A 2.25 2.25 0 0 0 229.542 340.927C 229.8313183801218 341.9096239606984 230.11949432385518 342.9341125226758 230.40481947479705 344.00090250389707 C 231.15760587801327 346.81550729302296 231.8904512506172 349.92394176283835 232.56652930690714 353.3297262748715 A 423 423 0 0 1 228.458 356C 225.61984378203286 353.9994809202808 223.07676649325578 352.0675945114591 220.81030295698045 350.23679399622773 C 219.95127098579985 349.54288090492315 219.13205379486624 348.8635390305713 218.35160448191672 348.2004861692832 A 2.25 2.25 0 0 0 215.656 348.113A 409.5 409.5 0 0 1 215.029 348.501A 2.25 2.25 0 0 0 213.902 350.951C 214.1465522264087 351.94584815683373 214.3881398528866 352.9823121489251 214.62496810827724 354.06090553071584 C 215.24980094606235 356.9066517268238 215.8414357290389 360.04502638209607 216.3629247125875 363.4778821787528 A 423 423 0 0 1 212.138 365.96C 209.39307057039673 363.83305017158347 206.93988784716163 361.78822212998574 204.7584685167356 359.85687617633556 C 203.93167013653053 359.12485449340227 203.14398743180004 358.409188268939 202.39429694695656 357.7115462376071 A 2.25 2.25 0 0 0 199.705 357.503A 409.5 409.5 0 0 1 199.062 357.861A 2.25 2.25 0 0 0 197.825 360.259C 198.02429693710698 361.2630671517025 198.21880269665152 362.30938913736145 198.40665022993548 363.39758241524606 C 198.90225300460483 366.26865632191885 199.3514685219931 369.4305596430565 199.71730306068832 372.8834735966469 A 423 423 0 0 1 195.384 375.172C 192.7385193138205 372.9233293490408 190.38024286786342 370.76973714118725 188.2883242579833 368.7417913782354 C 187.49544857046894 367.9731565820266 186.74090954257306 367.2226280725408 186.02350946053883 366.49182211386017 A 2.25 2.25 0 0 0 183.346 366.162A 409.5 409.5 0 0 1 182.687 366.491A 2.25 2.25 0 0 0 181.344 368.83C 181.49748935596665 369.84224640077537 181.64451588445624 370.8962888041394 181.78299893388666 371.9918588616047 C 182.1483591573697 374.88239503936376 182.45423768760773 378.0613674390588 182.66367040244938 381.52728544422797 A 423 423 0 0 1 178.232 383.618C 175.69021430621464 381.25174753316674 173.4316619611853 378.9937908245369 171.43351774170398 376.8733882292757 C 170.67618454647808 376.0697105966373 169.9563306754157 375.2858530888685 169.27268660345126 374.52337619753763 A 2.25 2.25 0 0 0 166.613 374.073A 409.5 409.5 0 0 1 165.94 374.372A 2.25 2.25 0 0 0 164.492 376.647C 164.59989280388888 377.6658591324338 164.69913973455044 378.7254686052696 164.7879753871925 379.82617725546453 C 165.02234664948773 382.7302705045265 165.1842633002652 385.91981752432173 165.2368663322173 389.3916589091824 A 423 423 0 0 1 160.715 391.28C 158.2829842578408 388.80129024282985 156.1287701067649 386.4435819095987 154.22848237182905 384.235054343031 C 153.50823885721422 383.3979757413157 152.8245407631962 382.58239061123714 152.17604934696774 381.78980048385495 A 2.25 2.25 0 0 0 149.54 381.219A 409.5 409.5 0 0 1 148.854 381.488A 2.25 2.25 0 0 0 147.305 383.696C 147.36602810239626 384.7179221541607 147.41729267943728 385.7809339750309 147.45629944914285 386.8845325332537 C 147.55920294319097 389.79624995751556 147.57682692806804 392.98985553561073 147.47249281215053 396.46052752715036 A 423 423 0 0 1 142.87 398.142C 140.55239114225242 395.5565341948638 138.506916121204 393.103890900059 136.70836704976946 390.8117502574546 C 136.02668463199606 389.94298079028107 135.3805390710526 389.09733423158053 134.76852514136485 388.2762500843618 A 2.25 2.25 0 0 0 132.161 387.587A 409.5 409.5 0 0 1 131.463 387.824A 2.25 2.25 0 0 0 129.816 389.96C 129.83110304957253 390.98402850528606 129.8342805423996 392.0482710019514 129.82337874057328 393.15250487958383 C 129.7946042404323 396.06589800718933 129.6678995546178 399.2570377903822 129.4068414394511 402.71945000459175 A 423 423 0 0 1 124.733 404.192C 122.53465754522072 401.5036788129501 120.60210044246197 398.96111116628657 118.90896436722474 396.5900401596384 C 118.26723568441183 395.69135467324764 117.65996269489973 394.8173742933888 117.08567656114265 393.96947355419815 A 2.25 2.25 0 0 0 114.512 393.163A 409.5 409.5 0 0 1 113.804 393.369A 2.25 2.25 0 0 0 112.062 395.428C 112.03094049254835 396.45137688958295 111.98602440972572 397.5146758756038 111.92523630812396 398.6172891861066 C 111.76484259844892 401.52640612183365 111.49406809235575 404.70856079439966 111.07681930471053 408.15563972152194 A 423 423 0 0 1 106.341 409.415C 104.26659266406722 406.630574421406 102.45090158302344 404.0032767428965 100.8666374839684 401.5581193344087 C 100.2661735510439 400.6313537917545 99.69901375688394 399.7308250825744 99.16362865272217 398.8578399640372 A 2.25 2.25 0 0 0 96.6287 397.936A 409.5 409.5 0 0 1 95.9127 398.109A 2.25 2.25 0 0 0 94.0791 400.088C 94.0019051434774 401.1087978275816 93.90898724598856 402.16898104405664 93.79843703121976 403.2677212116162 C 93.50675178716892 406.1666187962577 93.09246063759765 409.33328739853846 92.51987359283869 412.7579908538431 A 423 423 0 0 1 87.732 413.802C 85.78551710858294 410.92674706627474 84.09040140209348 408.2200867745321 82.61824583999659 405.7058382806826 C 82.06027337036883 404.75288601066495 81.53438544652222 403.82764870071617 81.03899513304592 402.9313626614075 A 2.25 2.25 0 0 0 78.5483 401.896A 409.5 409.5 0 0 1 77.8252 402.037A 2.25 2.25 0 0 0 75.9041 403.93C 75.78082928851299 404.9467764751762 75.6400994022983 406.0016780285427 75.48001292211674 407.09430038995464 C 75.05763203993013 409.9770563418522 74.50067061996042 413.1217695513434 73.77391508061088 416.5171010619071 A 423 423 0 0 1 68.9437 417.344C 67.12918665716099 414.3834199130139 65.55810934948397 411.60292655992237 64.201069853804 409.0247234463175 C 63.68672875325658 408.04753127581984 63.20318705861831 407.09947557191026 62.748803589852024 406.1817196728513 A 2.25 2.25 0 0 0 60.3074 405.035A 409.5 409.5 0 0 1 59.5787 405.143A 2.25 2.25 0 0 0 57.5741 406.947C 57.40493754155813 407.95747206190606 57.21668316971131 409.00493684873646 57.007387471623005 410.0892092391237 C 56.45517385124046 412.94993425304955 55.75668000113941 416.0662676008567 54.877240687123034 419.4252906989559 A 423 423 0 0 1 50.0146 420.033C 48.335715123904784 416.99353117706494 46.891885835956984 414.1448851512226 45.652734760625165 411.5079945390922 C 45.18307579855473 410.5085588157256 44.74286818109998 409.5396215413348 44.33041983643422 408.60227070523973 A 2.25 2.25 0 0 0 41.9434 407.346A 409.5 409.5 0 0 1 41.2105 407.421A 2.25 2.25 0 0 0 39.1264 409.133C 38.911770796512144 410.1347339092006 38.67637653192789 411.1726220189551 38.41829919505138 412.24632933195295 C 37.737380977257494 415.0791791106235 36.8987816799371 418.1607661062829 35.86845523538052 421.4766185002005 A 423 423 0 0 1 30.9834 421.864C 29.44349649428976 418.75174855067513 28.129864886574953 415.840769472685 27.01113374623475 413.1505783784558 C 26.58711640898932 412.13094089213547 26.191142187656634 411.1431015305948 25.82147157542622 410.1880707115115 A 2.25 2.25 0 0 0 23.4936 408.826A 409.5 409.5 0 0 1 22.7581 408.867A 2.25 2.25 0 0 0 20.5987 410.483C 20.339109533375648 411.4741139958629 20.057056273048403 412.50030508260454 19.750724534595086 413.56125379569596 C 18.942492796292143 416.3604409893358 17.965501262065043 419.4009861271905 16.78639258485672 422.66689372048427 A 423 423 0 0 1 11.8888 422.833C 10.491126488450984 419.6544800964961 9.31037623507256 416.6871149298153 8.314350533340338 413.94911925974463 C 7.936841064043683 412.91136307142983 7.585909191477891 411.9066397219517 7.259771527561475 410.9358799931203 A 2.25 2.25 0 0 0 4.99584 409.47A 409.5 409.5 0 0 1 4.25922 409.478A 2.25 2.25 0 0 0 2.02901 410.995C 1.724896634894633 411.9728760451227 1.3967605974735724 412.98527365926185 1.042800275632282 414.03129631501855 C 0.1089061879499118 416.7911023445846 -1.004481645461138 419.7843939651414 -2.3299637038566647 422.99368469573494 A 423 423 0 0 1 -7.23006 422.938C -8.482676287661537 419.69988158570624 -9.528132981592982 416.6821924873402 -10.399418421280924 413.9019858096946 C -10.729648792414341 412.8482309958146 -11.034821382506 411.82867625063125 -11.316759817548748 410.84417081855315 A 2.25 2.25 0 0 0 -13.5121 409.277A 409.5 409.5 0 0 1 -14.2484 409.252A 2.25 2.25 0 0 0 -16.5448 410.667C -16.89284012857479 411.63000111469216 -17.26638857996743 412.6265369859137 -17.667254364541122 413.655496619987 C -18.724902909493967 416.370283359898 -19.9724124545425 419.3102063398919 -21.441560010230127 422.45632381071516 A 423 423 0 0 1 -26.3341 422.18C -27.43914944217621 418.8878602656647 -28.347176768539708 415.8260122015275 -29.091941959954788 413.0092743192435 C -29.374218591198964 411.94167364050276 -29.63300844870134 410.9093703915381 -29.87017167080272 409.91313054439877 A 2.25 2.25 0 0 0 -31.9925 408.248A 409.5 409.5 0 0 1 -32.7268 408.19A 2.25 2.25 0 0 0 -35.0849 409.5C -35.47606578762228 410.4461896784076 -35.894263514904644 411.4248279410281 -36.34121581638249 412.4346224478452 C -37.520458103231796 415.09884374434887 -38.89954076939964 417.97939198958954 -40.509352438105346 421.05590886292225 A 423 423 0 0 1 -45.3844 420.558C -46.339565986645404 417.2200750493994 -47.108308897643205 414.12032319964203 -47.725032328174464 411.27280854681385 C -47.95877854454623 410.1935430502255 -48.170656976609116 409.1506002338661 -48.36256047489584 408.14466123258865 A 2.25 2.25 0 0 0 -50.4075 406.386A 409.5 409.5 0 0 1 -51.1384 406.294A 2.25 2.25 0 0 0 -53.5533 407.496C -53.98681587704638 408.42386019520086 -54.448808526224404 409.38260154732586 -54.94093424666487 410.37116797457054 C -56.239361150989254 412.9793809762182 -57.74719955141096 415.7946696916961 -59.49438658013787 418.7953008198507 A 423 423 0 0 1 -64.342 418.078C -65.1453134530638 414.699933126543 -65.77320145097778 411.5686101065785 -66.2606231899949 408.6961359924792 C -66.4453614613679 407.6074105556107 -66.60989561249524 406.55595884426975 -66.75614733911638 405.54237576459343 A 2.25 2.25 0 0 0 -68.7195 403.693A 409.5 409.5 0 0 1 -69.4456 403.569A 2.25 2.25 0 0 0 -71.9123 404.66C -72.38727399508133 405.5671441683264 -72.89211774164492 406.5040299563096 -73.42841149639999 407.46934871941585 C -74.84337040643385 410.01622499649585 -76.47688411365658 412.7605027086815 -78.35787709941893 415.67911797419947 A 423 423 0 0 1 -83.1681 414.743C -83.8179727769278 411.3325830026395 -84.30372312255622 408.1760859259728 -84.66084739537571 405.2845206506245 C -84.79620031204702 404.18855947715946 -84.91305404839588 403.1307469264349 -85.0133552194542 402.1115904605131 A 2.25 2.25 0 0 0 -86.8911 400.175A 409.5 409.5 0 0 1 -87.6109 400.018A 2.25 2.25 0 0 0 -90.1243 400.997C -90.63984906013935 401.8818777049373 -91.18651253724188 402.79499392479727 -91.76587870890023 403.7350929328449 C -93.29447894466763 406.2154293630594 -95.05033078378794 408.8830896698341 -97.06128696569684 411.7137265089649 A 423 423 0 0 1 -101.824 410.562C -102.31939678518332 407.1249039810428 -102.66201711840354 403.949681390334 -102.88811434059929 401.0449322559073 C -102.97380538431587 399.94397433172446 -103.04273998039862 398.8819619920447 -103.0968856863489 397.8593142181397 A 2.25 2.25 0 0 0 -104.885 395.84A 409.5 409.5 0 0 1 -105.597 395.651A 2.25 2.25 0 0 0 -108.152 396.515C -108.7072521072362 397.3755895932523 -109.29461851271779 398.26307080087344 -109.91587348938845 399.1760294854568 C -111.55499220819655 401.5847588836022 -113.42959507451756 404.1703519078164 -115.56640618432127 406.9072274916932 A 423 423 0 0 1 -120.273 405.541C -120.61178812871411 402.0854921088938 -120.8105784958176 398.89803080195526 -120.90518676372 395.9860320444896 C -120.94104087258967 394.882326563543 -120.96191549897645 393.8182840652648 -120.969795123244 392.7942341941808 A 2.25 2.25 0 0 0 -122.665 390.696A 409.5 409.5 0 0 1 -123.368 390.475A 2.25 2.25 0 0 0 -125.959 391.223C -126.5525724672099 392.05748592167276 -127.17944184516027 392.9175190438007 -127.84131643852385 393.80147228263985 C -129.58760501475177 396.13367375257616 -131.5771292020324 398.63191727583575 -133.835429857073 401.26944032446403 A 423 423 0 0 1 -138.475 399.692C -138.6577765001605 396.2246426158886 -138.71233078381795 393.0314543935287 -138.67525681815675 390.1181550596278 C -138.66120074428952 389.01395682897277 -138.63397275531477 387.9500579499502 -138.59557020027867 386.92669805689576 A 2.25 2.25 0 0 0 -140.194 384.754A 409.5 409.5 0 0 1 -140.886 384.501A 2.25 2.25 0 0 0 -143.509 385.131C -144.1393531731029 385.9384312712723 -144.8044448653026 386.7692593095185 -145.5055869034903 387.6224012367969 C -147.3554777696392 389.8733102245563 -149.45585879396475 392.279100478493 -151.83103541540473 394.81188268341447 A 423 423 0 0 1 -156.395 393.026C -156.42049497931583 389.55432888171447 -156.33070172825165 386.3619372445016 -156.1620212690144 383.4532890377724 C -156.09808372816374 382.3508538711235 -156.02280874904875 381.289272095805 -155.93820246892852 380.268692846403 A 2.25 2.25 0 0 0 -157.437 378.026A 409.5 409.5 0 0 1 -158.117 377.742A 2.25 2.25 0 0 0 -160.765 378.253C -161.43166543965668 379.0309265200794 -162.13362070188828 379.8308521403682 -162.8725977918916 380.65143983601354 C -164.82231172692082 382.81645786351123 -167.0292586302105 385.1248799564881 -169.51645886831 387.54774698878674 A 423 423 0 0 1 -173.995 385.558C -173.86365535013192 382.0881779751209 -173.62969800681293 378.90310479624566 -173.32975565851237 376.0050499183088 C -173.21606727141068 374.9066300275419 -173.0928990846245 373.84953410666577 -172.96226192520245 372.8338204858435 A 2.25 2.25 0 0 0 -174.358 370.526A 409.5 409.5 0 0 1 -175.025 370.212A 2.25 2.25 0 0 0 -177.693 370.602C -178.39418206376115 371.34908330450037 -179.131566841646 372.1164723046253 -179.90686929561346 372.9028293549951 C -181.95242314567244 374.9775334144566 -184.26142726186106 377.1838713724104 -186.85556990905042 379.49187345356967 A 423 423 0 0 1 -191.239 377.302C -190.95162223546538 373.8414428145992 -190.57397876133817 370.67019501606114 -190.14338728900523 367.78865402697363 C -189.98018031451292 366.6964934209859 -189.80937054560366 365.6460429409469 -189.632969391111 364.6372699934313 A 2.25 2.25 0 0 0 -190.923 362.269A 409.5 409.5 0 0 1 -191.575 361.925A 2.25 2.25 0 0 0 -194.259 362.194C -194.99224959590643 362.9085951900544 -195.7635574545955 363.6418798382597 -196.57360137403853 364.3923997609584 C -198.710816189822 366.3725513508709 -201.1171603558062 368.4722977517768 -203.8129457273017 370.6607197657935 A 423 423 0 0 1 -208.093 368.275C -207.64948589811095 364.83097100754395 -207.12892779715415 361.68002726688275 -206.56856687449388 358.82088698977276 C -206.35617473510814 357.73721689010154 -206.13807233864625 356.6955578610394 -205.91626756653378 355.69578645215944 A 2.25 2.25 0 0 0 -207.098 353.271A 409.5 409.5 0 0 1 -207.733 352.898A 2.25 2.25 0 0 0 -210.427 353.046C -211.19195913519468 353.726705610319 -211.99561433692864 354.42438784808564 -212.83874484853538 355.13753737391596 C -215.06325442263721 357.01909115804403 -217.56202261516955 359.0079563403206 -220.3539433759259 361.0723274664168 A 423 423 0 0 1 -224.522 358.495C -223.9231335593944 355.0751704315563 -223.2607243019803 351.9509679462849 -222.57173871424897 349.1200694409097 C -222.31059531494046 348.04710372347415 -222.04564586162462 347.0163641950982 -221.77889060633237 346.0276368005553 A 2.25 2.25 0 0 0 -222.85 343.552A 409.5 409.5 0 0 1 -223.468 343.151A 2.25 2.25 0 0 0 -226.165 343.177C -226.96021560328137 343.82217263958285 -227.7945763265326 344.48282714207613 -228.66907096297928 345.15714934742044 C -230.97633074980408 346.93626141919617 -233.5624181286468 348.81018224523814 -236.444770544527 350.74628509149187 A 423 423 0 0 1 -240.492 347.984C -239.73931908962476 344.59397162820505 -238.93641193991013 341.50289296498397 -238.12020924518458 338.7060195947793 C -237.81084808695454 337.6459502670593 -237.49959285333625 336.6282359811645 -237.18843208056566 335.6525725143715 A 2.25 2.25 0 0 0 -238.147 333.131A 409.5 409.5 0 0 1 -238.746 332.702A 2.25 2.25 0 0 0 -241.441 332.607C -242.26480535572423 333.21523067117465 -243.12816704934406 333.8375077591017 -244.03223926819697 334.47162504233296 C -246.41753566820643 336.14466077773716 -249.0856590050275 337.89980893467265 -252.05255459520487 339.7036881539077 A 423 423 0 0 1 -255.971 336.761C -255.06573092803202 333.4087870860723 -254.12396617931716 330.3571471414914 -253.18221383293422 327.6000127584917 C -252.8252669229025 326.55500548138156 -252.46834178558916 325.55239556993894 -252.11341117896947 324.59178925545297 A 2.25 2.25 0 0 0 -252.957 322.03A 409.5 409.5 0 0 1 -253.536 321.574A 2.25 2.25 0 0 0 -256.224 321.357C -257.07446199261295 321.92754907975757 -257.96506085813195 322.5101774766842 -258.8968636916514 323.10279437252785 C -261.3553236809779 324.66633585541797 -264.10003215268387 326.29912567613246 -267.14540971947093 327.96709604646645 A 423 423 0 0 1 -270.927 324.85C -269.8710580934347 321.5424674962658 -268.7923597171381 318.5365005958728 -267.7269816651789 315.82473786763836 C -267.3231782254297 314.7969275311264 -266.92131236202493 313.81147026873543 -266.5233370244479 312.8678835702142 A 2.25 2.25 0 0 0 -267.25 310.27A 409.5 409.5 0 0 1 -267.808 309.789A 2.25 2.25 0 0 0 -270.484 309.45C -271.3589302340325 309.98218795203786 -272.2749468289998 310.5239773815339 -273.23257665738925 311.0738832076286 C -275.75917774314445 312.5247362123462 -278.5748640675996 314.03183200079496 -281.69250207912773 315.56048595433606 A 423 423 0 0 1 -285.329 312.276C -284.12505415078 309.01925506976653 -282.9116258658748 306.0651022316968 -281.7247986146534 303.4042511340975 C -281.274963592476 302.39573749580745 -280.82897799191187 301.4294461151885 -280.38877096418827 300.5048067261895 A 2.25 2.25 0 0 0 -280.997 297.877A 409.5 409.5 0 0 1 -281.533 297.371A 2.25 2.25 0 0 0 -284.191 296.912C -285.0890277298666 297.4035509763298 -286.0285906848665 297.90339459363526 -287.01009112525884 298.4094659238881 C -289.5996716061989 299.74466644087846 -292.48058349758134 301.1229892867223 -295.66411279803384 302.50920387103537 A 423 423 0 0 1 -299.149 299.064C -297.79859900287755 295.8647340119813 -296.4529197738204 292.9684304012099 -295.1470679434057 290.3639269005711 C -294.652120325975 289.3767702960782 -294.1629261112783 288.4316188751533 -293.6813867111418 287.5278157809663 A 2.25 2.25 0 0 0 -294.171 284.875A 409.5 409.5 0 0 1 -294.683 284.346A 2.25 2.25 0 0 0 -297.317 283.767C -298.2367046776666 284.21733558721814 -299.197894519419 284.6742122404639 -300.2012604226545 285.1354152001451 C -302.8485299342401 286.3522354912589 -305.788781854632 287.59896955990183 -309.03169867606454 288.8399128180213 A 423 423 0 0 1 -312.357 285.24C -310.8637583810894 282.1057782556763 -309.38857735343765 279.2732408545216 -307.96636872429394 276.7304058022569 C -307.4273196612317 275.76662293594 -306.8959162281524 274.8445423649048 -306.3740282130052 273.9634219834634 A 2.25 2.25 0 0 0 -306.743 271.291A 409.5 409.5 0 0 1 -307.23 270.739A 2.25 2.25 0 0 0 -309.836 270.042C -310.7751011267909 270.4504804671716 -311.75595419952543 270.8634567835341 -312.7791357465567 271.2788491614239 C -315.4786860688643 272.3748033325306 -318.4722712520691 273.4874016177082 -321.7679505012347 274.58053837366384 A 423 423 0 0 1 -324.927 270.835C -323.2938409134404 267.7704965590724 -321.69217179750575 265.00751207914044 -320.1565118603695 262.531540341557 C -319.5744625980241 261.59310016658713 -319.0019355733265 260.69597420321304 -318.4407651304794 259.83933661296817 A 2.25 2.25 0 0 0 -318.689 257.153A 409.5 409.5 0 0 1 -319.151 256.58A 2.25 2.25 0 0 0 -321.722 255.765C -322.67860185174465 256.1311105123591 -323.6771143288365 256.4993428048877 -324.7180212183914 256.8680759781601 C -327.464337324797 257.84092505768615 -330.50514004781786 258.8171145848539 -333.84684884085317 259.7602116228901 A 423 423 0 0 1 -336.834 255.875C -335.0634526535612 252.8881750812636 -333.3385675675717 250.20038814152778 -331.69259358770125 247.79633798701218 C -331.06873321936416 246.88515768289415 -330.4562522429538 246.01481910411894 -329.85694581146646 245.1844143665821 A 2.25 2.25 0 0 0 -329.983 242.49A 409.5 409.5 0 0 1 -330.419 241.896A 2.25 2.25 0 0 0 -332.951 240.966C -333.9228886826181 241.28847937509764 -334.9370206602915 241.6112153663184 -335.99352637923863 241.9325360342288 C -338.7809977033008 242.78029254724913 -341.8628057804129 243.61807901713863 -345.24371719773376 244.40920964404617 A 423 423 0 0 1 -348.052 240.393C -346.1485489590663 237.48921755227113 -344.30397174441663 234.8821191474389 -342.55104635233835 232.55490191270462 C -341.8866493889949 231.67284296858907 -341.23546572441137 230.8310698262587 -340.59924765298297 230.02859441072647 A 2.25 2.25 0 0 0 -340.603 227.331A 409.5 409.5 0 0 1 -341.012 226.718A 2.25 2.25 0 0 0 -343.499 225.675C -344.4849901857141 225.95290970031687 -345.5126698504485 226.22949005909246 -346.58261601814183 226.50274178192808 C -349.4055479156678 227.22367381046305 -352.5220653895574 227.92134567332158 -355.9352724228648 228.55889365456156 A 423 423 0 0 1 -358.559 224.42C -356.52648361338026 221.6050831599655 -354.5659826356255 219.08399944269107 -352.70968695747274 216.8383694991989 C -352.00611072404894 215.98723391096664 -351.3175547022063 215.17574589937732 -350.6457247479014 214.40283921714172 A 2.25 2.25 0 0 0 -350.528 211.708A 409.5 409.5 0 0 1 -350.908 211.077A 2.25 2.25 0 0 0 -353.346 209.923C -354.3433285928708 210.1557311781333 -355.3824564539973 210.3855908666389 -356.46365723172426 210.61021540678726 C -359.31628261460156 211.20285012801202 -362.461142618646 211.7589820802004 -365.8996722815478 212.24164494177867 A 423 423 0 0 1 -368.334 207.989C -366.1760550906605 205.2682222807483 -364.1036355409614 202.8383036806078 -362.1477618824388 200.67884872165766 C -361.40644374486465 199.8603753105453 -360.68192204626104 199.08083025320633 -359.97585271918047 198.33907130833157 A 2.25 2.25 0 0 0 -359.737 195.652A 409.5 409.5 0 0 1 -360.088 195.005A 2.25 2.25 0 0 0 -362.471 193.741C -363.47776388360586 193.92921653908857 -364.52621706244616 194.11188596715147 -365.6164636189707 194.28742442954814 C -368.4929547369978 194.75055112468522 -371.6597325024096 195.1640070204915 -375.11656007583235 195.49079870983843 A 423 423 0 0 1 -377.356 191.132C -375.0775498693 188.5120101852927 -372.8974455820468 186.17822088675177 -370.84598968096697 184.10935255508787 C -370.06844410972 183.32521341537574 -369.3094368906706 182.57920387817128 -368.57057064999174 181.87010804167892 A 2.25 2.25 0 0 0 -368.21 179.197A 409.5 409.5 0 0 1 -368.532 178.534A 2.25 2.25 0 0 0 -370.855 177.164C -371.86963493002395 177.30651562281 -372.9252714968101 177.44162160725566 -374.0223365208885 177.56771537688024 C -376.9168168675343 177.9003879046287 -380.09904284879525 178.1703230773488 -383.5671062320829 178.34057597776828 A 423 423 0 0 1 -385.607 173.885C -383.2127827055221 171.37067885477782 -380.92944750885374 169.13778665564712 -378.786600372074 167.16373153072476 C -377.9744158482028 166.41552861374404 -377.182473716965 165.70457865141228 -376.41232002408043 165.02959456546503 A 2.25 2.25 0 0 0 -375.931 162.375A 409.5 409.5 0 0 1 -376.223 161.699A 2.25 2.25 0 0 0 -378.482 160.225C -379.5017976204319 160.32158765478775 -380.56246097014605 160.40885418183154 -381.66410322079594 160.4852456563379 C -384.57065953856613 160.68678438578567 -387.76183263033823 160.81264737332904 -391.23404676871905 160.82601366790104 A 423 423 0 0 1 -393.071 156.283C -390.56513378479184 153.87924704691258 -388.1832324016797 151.75181361801006 -385.9533717431153 149.87660458133598 C -385.10820751306403 149.16586642277406 -384.2849483620335 148.49142846535054 -383.485080596808 147.85193508375934 A 2.25 2.25 0 0 0 -382.885 145.222A 409.5 409.5 0 0 1 -383.145 144.533A 2.25 2.25 0 0 0 -385.336 142.959C -386.3586598837766 143.00913186962322 -387.42218314197135 143.04838065875074 -388.52615202719886 143.0749137747337 C -391.43884638808214 143.14490697380472 -394.63244720659327 143.1264406452997 -398.1017185655405 142.98289302745027 A 423 423 0 0 1 -399.731 138.361C -397.11958267514433 136.07344875462044 -394.6439811936311 134.05582032053928 -392.3316624908363 132.28328831672584 C -391.4552451766989 131.61146691391528 -390.60235087714847 130.97491879950167 -389.7744031235939 130.3722225706021 A 2.25 2.25 0 0 0 -389.056 127.772A 409.5 409.5 0 0 1 -389.285 127.072A 2.25 2.25 0 0 0 -391.402 125.401C -392.42621354335273 125.40451662248067 -393.49042399295143 125.3956674906647 -394.5944641675815 125.37228804248863 C -397.5073461038961 125.31059271908781 -400.6968503056676 125.1478348001855 -404.15609136258445 124.8476665294726 A 423 423 0 0 1 -405.575 120.157C -402.8627390130669 117.98966020353919 -400.2984949451271 116.08595866355999 -397.90844213271583 114.41972487392479 C -397.00256220484624 113.78819271949614 -396.1217751709591 113.19083487941593 -395.26743887889455 112.62616707706916 A 2.25 2.25 0 0 0 -394.432 110.061A 409.5 409.5 0 0 1 -394.63 109.352A 2.25 2.25 0 0 0 -396.669 107.586C -397.6920629347047 107.54370713356454 -398.75478645473834 107.48677815907433 -399.8566424279558 107.41353390961224 C -402.76376108881414 107.22027610375015 -405.9426526995205 106.9135590995528 -409.38479642314246 106.45738340255384 A 423 423 0 0 1 -410.591 101.708C -407.78286985924444 99.66482553747656 -405.1352218085776 97.8789400447633 -402.6723176274954 96.32240848946326 C -401.73882574667937 95.73245576742119 -400.83194537589645 95.17550856951303 -399.952965905413 94.65002277768372 A 2.25 2.25 0 0 0 -399.003 92.1256A 409.5 409.5 0 0 1 -399.168 91.4077A 2.25 2.25 0 0 0 -401.125 89.552C -402.1454502292598 89.46319201323529 -403.20451573647085 89.3582994987037 -404.3019364796589 89.23534008176033 C -407.19735278821486 88.91091460806064 -410.35913751444616 88.46086512383292 -413.77715180238073 87.84961394135799 A 423 423 0 0 1 -414.767 83.0502C -411.8699236682819 81.13638134364123 -409.1442806281451 79.47196035992417 -406.61355665050934 78.02831094373742 C -405.65435988717024 77.48114289368874 -404.7232388841248 76.96574414916485 -403.8214119399152 76.48051390521535 A 2.25 2.25 0 0 0 -402.758 74.0017A 409.5 409.5 0 0 1 -402.89 73.277A 2.25 2.25 0 0 0 -404.762 71.3347C -405.7772774119544 71.19990871786916 -406.83052129619625 71.04726695269302 -407.9212648416587 70.8748435673116 C -410.7990636283015 70.41991320842749 -413.9372821250325 69.82745066947781 -417.324184169942 69.06237275266798 A 423 423 0 0 1 -418.096 64.2232C -415.11555082343585 62.44218017184027 -412.3174811263807 60.90262401381772 -409.72410747626697 59.57480602978033 C -408.74116541443027 59.07154048469851 -407.7877060059783 58.59874312366159 -406.8648739688147 58.15475972517657 A 2.25 2.25 0 0 0 -405.691 55.7265A 409.5 409.5 0 0 1 -405.79 54.9966A 2.25 2.25 0 0 0 -407.572 52.9717C -408.58012486795815 52.791168088751384 -409.62539541232627 52.59108891131057 -410.7072334334994 52.36955380858756 C -413.56153552020595 51.78504796117469 -416.66977658686795 51.05138273452199 -420.01864714194426 50.13404109372231 A 423 423 0 0 1 -420.571 45.2649C -417.51312069440297 43.62041320388882 -414.6483406364909 42.20886709657497 -411.99761542766606 40.99959320074429 C -410.9929361616414 40.5412583033008 -410.01908621072107 40.112028223668126 -409.07713437357717 39.710198703290395 A 2.25 2.25 0 0 0 -407.794 37.3375A 409.5 409.5 0 0 1 -407.861 36.6038A 2.25 2.25 0 0 0 -409.549 34.5005C -410.5482665405218 34.27457812816532 -411.5834283171881 34.02747028875478 -412.65415068098406 33.75727605221108 C -415.4791248921429 33.044388828223504 -418.55103857033913 32.17101974988677 -421.8550360849287 31.103288461505638 A 423 423 0 0 1 -422.187 26.2141C -419.0577351833178 24.70953223121407 -416.1320973460551 23.428879882424482 -413.42943585823394 22.340620552078224 C -412.40507189019377 21.928152654205917 -411.41282091645303 21.543366748435268 -410.4536736329582 21.184512020850114 A 2.25 2.25 0 0 0 -409.065 18.8722A 409.5 409.5 0 0 1 -409.098 18.1363A 2.25 2.25 0 0 0 -410.69 15.9588C -411.677681628983 15.687967168398737 -412.70061986175256 15.39433549417511 -413.7580391437346 15.076034115153837 C -416.54791421890354 14.23622190234167 -419.57722476501016 13.224933215303846 -422.82959936150996 12.00899359318237 A 423 423 0 0 1 -422.94 7.10983C -419.7462387312859 5.74817110004859 -416.7657200251349 4.601028809150391 -414.0166436408744 3.636007295743129 C -412.9746876877092 3.2702490457229274 -411.9660628030315 2.9306934093715338 -410.9916795561267 2.6155465942250187 A 2.25 2.25 0 0 0 -409.5 0.368335A 409.5 409.5 0 0 1 -409.5 -0.368335A 2.25 2.25 0 0 0 -410.992 -2.61555C -411.9660628030315 -2.9306934093714343 -412.9746876877092 -3.270249045722828 -414.0166436408744 -3.6360072957430276 C -416.7657200251349 -4.601028809150289 -419.7462387312859 -5.748171100048487 -422.9403459947565 -7.10983496093573 A 423 423 0 0 1 -422.83 -12.009C -419.57722476501016 -13.224933215303743 -416.54791421890354 -14.236221902341569 -413.7580391437346 -15.076034115153735 C -412.70061986175256 -15.39433549417501 -411.677681628983 -15.687967168398638 -410.6900530278095 -15.958762244221102 A 2.25 2.25 0 0 0 -409.098 -18.1363A 409.5 409.5 0 0 1 -409.065 -18.8722A 2.25 2.25 0 0 0 -410.454 -21.1845C -411.41282091645303 -21.54336674843517 -412.40507189019377 -21.928152654205814 -413.42943585823394 -22.34062055207812 C -416.1320973460551 -23.42887988242438 -419.0577351833178 -24.709532231213963 -422.18704973564246 -26.2141385296226 A 423 423 0 0 1 -421.855 -31.1033C -418.55103857033913 -32.17101974988666 -415.4791248921429 -33.0443888282234 -412.65415068098406 -33.75727605221098 C -411.5834283171881 -34.02747028875467 -410.5482665405218 -34.27457812816521 -409.5494102537205 -34.500468245840295 A 2.25 2.25 0 0 0 -407.861 -36.6038A 409.5 409.5 0 0 1 -407.794 -37.3375A 2.25 2.25 0 0 0 -409.077 -39.7102C -410.01908621072107 -40.11202822366803 -410.9929361616414 -40.541258303300694 -411.99761542766606 -40.999593200744194 C -414.6483406364909 -42.20886709657487 -417.51312069440297 -43.62041320388872 -420.57124952526124 -45.264888115365125 A 423 423 0 0 1 -420.019 -50.134C -416.66977658686795 -51.05138273452188 -413.56153552020595 -51.78504796117459 -410.7072334334994 -52.36955380858746 C -409.62539541232627 -52.591088911310464 -408.58012486795815 -52.791168088751284 -407.5720815016885 -52.97169176771209 A 2.25 2.25 0 0 0 -405.79 -54.9966A 409.5 409.5 0 0 1 -405.691 -55.7265A 2.25 2.25 0 0 0 -406.865 -58.1548C -407.7877060059783 -58.59874312366151 -408.74116541443027 -59.071540484698424 -409.72410747626697 -59.57480602978025 C -412.3174811263807 -60.90262401381762 -415.11555082343585 -62.44218017184017 -418.0962463508572 -64.22316412836872 A 423 423 0 0 1 -417.324 -69.0624C -413.9372821250325 -69.82745066947771 -410.7990636283015 -70.41991320842739 -407.9212648416587 -70.87484356731152 C -406.83052129619625 -71.04726695269294 -405.7772774119544 -71.19990871786908 -404.76210634105274 -71.33469715858351 A 2.25 2.25 0 0 0 -402.89 -73.277A 409.5 409.5 0 0 1 -402.758 -74.0017A 2.25 2.25 0 0 0 -403.821 -76.4805C -404.7232388841248 -76.96574414916476 -405.6543598871702 -77.48114289368864 -406.61355665050934 -78.02831094373732 C -409.1442806281451 -79.47196035992407 -411.8699236682819 -81.13638134364113 -414.76709650209784 -83.05023589704912 A 423 423 0 0 1 -413.777 -87.8496C -410.35913751444616 -88.46086512383282 -407.19735278821486 -88.91091460806054 -404.3019364796589 -89.23534008176023 C -403.2045157364709 -89.3582994987036 -402.1454502292598 -89.4631920132352 -401.1252253900547 -89.55196985064227 A 2.25 2.25 0 0 0 -399.168 -91.4077A 409.5 409.5 0 0 1 -399.003 -92.1256A 2.25 2.25 0 0 0 -399.953 -94.65C -400.83194537589645 -95.17550856951313 -401.7388257466793 -95.73245576742129 -402.6723176274953 -96.32240848946336 C -405.13522180857757 -97.8789400447634 -407.78286985924444 -99.66482553747666 -410.5906012413637 -101.70764079257543 A 423 423 0 0 1 -409.385 -106.457C -405.9426526995205 -106.91355909955287 -402.7637610888141 -107.22027610375022 -399.85664242795576 -107.41353390961234 C -398.7547864547383 -107.48677815907443 -397.6920629347047 -107.54370713356464 -396.66886858808374 -107.58629299962948 A 2.25 2.25 0 0 0 -394.63 -109.352A 409.5 409.5 0 0 1 -394.432 -110.061A 2.25 2.25 0 0 0 -395.267 -112.626C -396.12177517095904 -113.19083487941599 -397.00256220484624 -113.78819271949621 -397.90844213271583 -114.41972487392486 C -400.29849494512706 -116.08595866356006 -402.86273901306686 -117.98966020353926 -405.57529290915903 -120.1572628058161 A 423 423 0 0 1 -404.156 -124.848C -400.69685030566757 -125.14783480018558 -397.50734610389605 -125.31059271908788 -394.5944641675815 -125.3722880424887 C -393.49042399295143 -125.39566749066478 -392.4262135433527 -125.40451662248073 -391.4021400167367 -125.40082351671916 A 2.25 2.25 0 0 0 -389.285 -127.072A 409.5 409.5 0 0 1 -389.056 -127.772A 2.25 2.25 0 0 0 -389.774 -130.372C -390.6023508771484 -130.97491879950172 -391.45524517669884 -131.61146691391534 -392.33166249083627 -132.2832883167259 C -394.643981193631 -134.05582032053934 -397.1195826751443 -136.07344875462053 -399.731417493029 -138.36141041616273 A 423 423 0 0 1 -398.102 -142.983C -394.6324472065932 -143.1264406452998 -391.4388463880821 -143.14490697380478 -388.5261520271988 -143.07491377473374 C -387.4221831419713 -143.0483806587508 -386.35865988377657 -143.00913186962327 -385.3357993007012 -142.95916733683876 A 2.25 2.25 0 0 0 -383.145 -144.533A 409.5 409.5 0 0 1 -382.885 -145.222A 2.25 2.25 0 0 0 -383.485 -147.852C -384.28494836203345 -148.49142846535065 -385.108207513064 -149.16586642277417 -385.95337174311527 -149.8766045813361 C -388.1832324016797 -151.75181361801015 -390.5651337847918 -153.87924704691267 -393.07091369559447 -156.28289359314607 A 423 423 0 0 1 -391.234 -160.826C -387.7618326303382 -160.81264737332913 -384.57065953856613 -160.68678438578576 -381.6641032207959 -160.485245656338 C -380.562460970146 -160.40885418183166 -379.50179762043183 -160.32158765478786 -378.48223962645824 -160.22545376965786 A 2.25 2.25 0 0 0 -376.223 -161.699A 409.5 409.5 0 0 1 -375.931 -162.375A 2.25 2.25 0 0 0 -376.412 -165.03C -377.1824737169649 -165.7045786514124 -377.97441584820274 -166.41552861374416 -378.78660037207396 -167.16373153072485 C -380.9294475088537 -169.1377866556472 -383.2127827055221 -171.3706788547779 -385.60738854446623 -173.8850997735376 A 423 423 0 0 1 -383.567 -178.341C -380.09904284879514 -178.17032307734888 -376.91681686753424 -177.9003879046288 -374.0223365208884 -177.56771537688033 C -372.92527149681007 -177.44162160725577 -371.8696349300239 -177.3065156228101 -370.855462423713 -177.16440878135347 A 2.25 2.25 0 0 0 -368.532 -178.534A 409.5 409.5 0 0 1 -368.21 -179.197A 2.25 2.25 0 0 0 -368.571 -181.87C -369.30943689067055 -182.57920387817137 -370.06844410971996 -183.3252134153758 -370.8459896809669 -184.10935255508792 C -372.8974455820468 -186.17822088675183 -375.07754986929996 -188.51201018529275 -377.3560895938677 -191.13206865871823 A 423 423 0 0 1 -375.117 -195.491C -371.65973250240955 -195.16400702049157 -368.4929547369978 -194.75055112468527 -365.61646361897067 -194.2874244295482 C -364.5262170624461 -194.11188596715152 -363.4777638836058 -193.92921653908866 -362.4710487612759 -193.7414270574398 A 2.25 2.25 0 0 0 -360.088 -195.005A 409.5 409.5 0 0 1 -359.737 -195.652A 2.25 2.25 0 0 0 -359.976 -198.339C -360.681922046261 -199.0808302532064 -361.4064437448646 -199.86037531054535 -362.1477618824387 -200.67884872165772 C -364.10363554096136 -202.83830368060788 -366.1760550906605 -205.26822228074835 -368.33387377475503 -207.98856567950784 A 423 423 0 0 1 -365.9 -212.242C -362.461142618646 -211.75898208020047 -359.3162826146015 -211.2028501280121 -356.4636572317242 -210.61021540678732 C -355.38245645399724 -210.38559086663895 -354.34332859287076 -210.15573117813335 -353.34612751583194 -209.92264269944295 A 2.25 2.25 0 0 0 -350.908 -211.077A 409.5 409.5 0 0 1 -350.528 -211.708A 2.25 2.25 0 0 0 -350.646 -214.403C -351.31755470220617 -215.17574589937735 -352.0061107240489 -215.9872339109667 -352.7096869574726 -216.83836949919896 C -354.56598263562546 -219.08399944269112 -356.5264836133802 -221.60508315996555 -358.55917295707303 -224.42015397837125 A 423 423 0 0 1 -355.935 -228.559C -352.5220653895573 -227.92134567332164 -349.40554791566774 -227.2236738104631 -346.5826160181417 -226.50274178192814 C -345.51266985044845 -226.2294900590925 -344.48499018571397 -225.9529097003169 -343.49934037862687 -225.67499841099087 A 2.25 2.25 0 0 0 -341.012 -226.718A 409.5 409.5 0 0 1 -340.603 -227.331A 2.25 2.25 0 0 0 -340.599 -230.029C -341.2354657244113 -230.83106982625878 -341.88664938899484 -231.67284296858915 -342.5510463523383 -232.5549019127047 C -344.3039717444166 -234.88211914743903 -346.1485489590663 -237.48921755227124 -348.0519562945015 -240.3932647619449 A 423 423 0 0 1 -345.244 -244.409C -341.8628057804129 -243.61807901713874 -338.7809977033007 -242.7802925472492 -335.9935263792386 -241.9325360342289 C -334.93702066029147 -241.61121536631848 -333.92288868261807 -241.28847937509772 -332.95080377156074 -240.96631303197586 A 2.25 2.25 0 0 0 -330.419 -241.896A 409.5 409.5 0 0 1 -329.983 -242.49A 2.25 2.25 0 0 0 -329.857 -245.184C -330.4562522429537 -246.01481910411903 -331.0687332193641 -246.88515768289423 -331.6925935877012 -247.79633798701227 C -333.33856756757166 -250.20038814152787 -335.0634526535612 -252.8881750812637 -336.83368942861784 -255.875265880158 A 423 423 0 0 1 -333.847 -259.76C -330.50514004781786 -258.81711458485404 -327.46433732479693 -257.84092505768626 -324.71802121839136 -256.8680759781602 C -323.67711432883647 -256.49934280488776 -322.6786018517446 -256.1311105123592 -321.72206775048994 -255.76534728282036 A 2.25 2.25 0 0 0 -319.151 -256.58A 409.5 409.5 0 0 1 -318.689 -257.153A 2.25 2.25 0 0 0 -318.441 -259.839C -319.0019355733264 -260.6959742032131 -319.57446259802407 -261.59310016658725 -320.15651186036945 -262.53154034155705 C -321.6921717975057 -265.0075120791405 -323.29384091344036 -267.77049655907246 -324.92729063582163 -270.83452849184573 A 423 423 0 0 1 -321.768 -274.581C -318.47227125206905 -273.48740161770826 -315.47868606886425 -272.37480333253063 -312.7791357465566 -271.278849161424 C -311.7559541995254 -270.8634567835342 -310.77510112679084 -270.45048046717164 -309.8360719796982 -270.04186758453545 A 2.25 2.25 0 0 0 -307.23 -270.739A 409.5 409.5 0 0 1 -306.743 -271.291A 2.25 2.25 0 0 0 -306.374 -273.963C -306.8959162281525 -274.84454236490467 -307.4273196612318 -275.7666229359399 -307.966368724294 -276.73040580225677 C -309.38857735343777 -279.27324085452153 -310.8637583810895 -282.1057782556762 -312.35708400660934 -285.24049168065903 A 423 423 0 0 1 -309.032 -288.84C -305.78878185463213 -287.5989695599018 -302.8485299342402 -286.35223549125885 -300.20126042265457 -285.13541520014496 C -299.1978945194191 -284.67421224046376 -298.2367046776667 -284.21733558721803 -297.31709886747717 -283.76670782419023 A 2.25 2.25 0 0 0 -294.683 -284.346A 409.5 409.5 0 0 1 -294.171 -284.875A 2.25 2.25 0 0 0 -293.681 -287.528C -294.1629261112784 -288.43161887515316 -294.65212032597503 -289.37677029607806 -295.1470679434058 -290.363926900571 C -296.4529197738205 -292.9684304012098 -297.7985990028776 -295.8647340119812 -299.14874975285073 -299.06372488926564 A 423 423 0 0 1 -295.664 -302.509C -292.4805834975814 -301.12298928672226 -289.599671606199 -299.74466644087835 -287.0100911252589 -298.40946592388804 C -286.0285906848666 -297.90339459363514 -285.0890277298667 -297.4035509763297 -284.19072395855704 -296.9118289396092 A 2.25 2.25 0 0 0 -281.533 -297.371A 409.5 409.5 0 0 1 -280.997 -297.877A 2.25 2.25 0 0 0 -280.389 -300.505C -280.8289779919119 -301.4294461151884 -281.2749635924761 -302.39573749580734 -281.72479861465354 -303.4042511340974 C -282.9116258658749 -306.0651022316967 -284.12505415078004 -309.0192550697664 -285.329271744588 -312.2759880442925 A 423 423 0 0 1 -281.693 -315.56C -278.57486406759966 -314.03183200079485 -275.75917774314456 -312.5247362123461 -273.23257665738936 -311.07388320762857 C -272.27494682899993 -310.52397738153377 -271.3589302340326 -309.98218795203775 -270.4837636847347 -309.45037620156984 A 2.25 2.25 0 0 0 -267.808 -309.789A 409.5 409.5 0 0 1 -267.25 -310.27A 2.25 2.25 0 0 0 -266.523 -312.868C -266.921312362025 -313.8114702687353 -267.3231782254298 -314.7969275311263 -267.72698166517904 -315.8247378676383 C -268.79235971713814 -318.53650059587267 -269.87105809343484 -321.54246749626566 -270.9268823835352 -324.85028924917737 A 423 423 0 0 1 -267.145 -327.967C -264.100032152684 -326.29912567613235 -261.35532368097796 -324.66633585541786 -258.8968636916515 -323.1027943725278 C -257.96506085813206 -322.5101774766841 -257.074461992613 -321.92754907975745 -256.2242205804401 -321.35673407647545 A 2.25 2.25 0 0 0 -253.536 -321.574A 409.5 409.5 0 0 1 -252.957 -322.03A 2.25 2.25 0 0 0 -252.113 -324.592C -252.46834178558925 -325.5523955699388 -252.82526692290259 -326.55500548138144 -253.1822138329343 -327.6000127584916 C -254.12396617931725 -330.3571471414913 -255.06573092803214 -333.4087870860722 -255.971004925899 -336.7609399270668 A 423 423 0 0 1 -252.053 -339.704C -249.08565900502762 -337.89980893467254 -246.4175356682065 -336.14466077773704 -244.03223926819706 -334.47162504233285 C -243.12816704934414 -333.8375077591016 -242.26480535572432 -333.21523067117454 -241.44122607516243 -332.60657855742244 A 2.25 2.25 0 0 0 -238.746 -332.702A 409.5 409.5 0 0 1 -238.147 -333.131A 2.25 2.25 0 0 0 -237.188 -335.653C -237.49959285333637 -336.6282359811644 -237.81084808695465 -337.6459502670592 -238.1202092451847 -338.7060195947792 C -238.93641193991027 -341.5028929649839 -239.73931908962487 -344.593971628205 -240.4921933723529 -347.9836073011068 A 423 423 0 0 1 -236.445 -350.746C -233.56241812864698 -348.8101822452381 -230.97633074980422 -346.9362614191961 -228.6690709629794 -345.15714934742033 C -227.79457632653276 -344.4828271420761 -226.96021560328148 -343.82217263958273 -226.16498097960977 -343.1769268567531 A 2.25 2.25 0 0 0 -223.468 -343.151A 409.5 409.5 0 0 1 -222.85 -343.552A 2.25 2.25 0 0 0 -221.779 -346.028C -222.04564586162473 -347.01636419509816 -222.3105953149406 -348.0471037234741 -222.5717387142491 -349.1200694409096 C -223.26072430198045 -351.95096794628483 -223.92313355939453 -355.0751704315562 -224.5220700479638 -358.49536410491186 A 423 423 0 0 1 -220.354 -361.072C -217.5620226151697 -359.00795634032056 -215.06325442263736 -357.019091158044 -212.83874484853553 -355.1375373739159 C -211.99561433692878 -354.4243878480856 -211.1919591351948 -353.72670561031896 -210.4266937871824 -353.04618435857356 A 2.25 2.25 0 0 0 -207.733 -352.898A 409.5 409.5 0 0 1 -207.098 -353.271A 2.25 2.25 0 0 0 -205.916 -355.696C -206.13807233864637 -356.69555786103933 -206.35617473510825 -357.73721689010154 -206.568566874494 -358.8208869897727 C -207.12892779715426 -361.6800272668827 -207.64948589811107 -364.8309710075439 -208.09326099959455 -368.274735421656 A 423 423 0 0 1 -203.813 -370.661C -201.1171603558063 -368.47229775177675 -198.7108161898221 -366.3725513508708 -196.57360137403865 -364.39239976095837 C -195.76355745459563 -363.6418798382597 -194.99224959590654 -362.90859519005437 -194.25851691680967 -362.1941887353165 A 2.25 2.25 0 0 0 -191.575 -361.925A 409.5 409.5 0 0 1 -190.923 -362.269A 2.25 2.25 0 0 0 -189.633 -364.637C -189.80937054560377 -365.64604294094687 -189.98018031451304 -366.6964934209859 -190.14338728900532 -367.7886540269736 C -190.57397876133825 -370.6701950160611 -190.95162223546546 -373.84144281459913 -191.2393293427592 -377.3017425560977 A 423 423 0 0 1 -186.856 -379.492C -184.26142726186114 -377.18387137241035 -181.95242314567253 -374.97753341445656 -179.90686929561355 -372.90282935499505 C -179.1315668416461 -372.1164723046253 -178.39418206376126 -371.3490833045003 -177.6934810274004 -370.6022511382216 A 2.25 2.25 0 0 0 -175.025 -370.212A 409.5 409.5 0 0 1 -174.358 -370.526A 2.25 2.25 0 0 0 -172.962 -372.834C -173.0928990846246 -373.84953410666577 -173.21606727141076 -374.9066300275419 -173.32975565851245 -376.0050499183088 C -173.62969800681302 -378.9031047962456 -173.863655350132 -382.0881779751209 -173.99470669410138 -385.55794384990924 A 423 423 0 0 1 -169.516 -387.548C -167.0292586302106 -385.1248799564881 -164.8223117269209 -382.8164578635113 -162.87259779189168 -380.65143983601354 C -162.13362070188836 -379.8308521403682 -161.4316654396568 -379.0309265200794 -160.76542753809903 -378.25319437758196 A 2.25 2.25 0 0 0 -158.117 -377.742A 409.5 409.5 0 0 1 -157.437 -378.026A 2.25 2.25 0 0 0 -155.938 -380.269C -156.02280874904883 -381.289272095805 -156.0980837281638 -382.35085387112343 -156.16202126901447 -383.4532890377724 C -156.33070172825174 -386.3619372445016 -156.4204949793159 -389.55432888171447 -156.39462282957444 -393.0264723569282 A 423 423 0 0 1 -151.831 -394.812C -149.4558587939648 -392.279100478493 -147.3554777696393 -389.8733102245563 -145.50558690349038 -387.6224012367969 C -144.80444486530266 -386.76925930951853 -144.139353173103 -385.9384312712723 -143.50893949220574 -385.1313880147591 A 2.25 2.25 0 0 0 -140.886 -384.501A 409.5 409.5 0 0 1 -140.194 -384.754A 2.25 2.25 0 0 0 -138.596 -386.927C -138.63397275531486 -387.9500579499501 -138.66120074428963 -389.0139568289727 -138.67525681815684 -390.1181550596277 C -138.71233078381803 -393.03145439352863 -138.65777650016062 -396.2246426158885 -138.47503371202777 -399.6920703013619 A 423 423 0 0 1 -133.835 -401.269C -131.57712920203252 -398.63191727583575 -129.58760501475186 -396.1336737525761 -127.84131643852393 -393.8014722826398 C -127.17944184516038 -392.91751904380067 -126.55257246720998 -392.0574859216727 -125.95927090600057 -391.2227802942733 A 2.25 2.25 0 0 0 -123.368 -390.475A 409.5 409.5 0 0 1 -122.665 -390.696A 2.25 2.25 0 0 0 -120.97 -392.794C -120.96191549897655 -393.8182840652647 -120.94104087258975 -394.88232656354296 -120.9051867637201 -395.98603204448955 C -120.8105784958177 -398.89803080195526 -120.61178812871421 -402.08549210889373 -120.27254803523498 -405.54112024854913 A 423 423 0 0 1 -115.566 -406.907C -113.42959507451766 -404.1703519078163 -111.55499220819665 -401.5847588836022 -109.91587348938855 -399.17602948545675 C -109.29461851271788 -398.2630708008734 -108.7072521072363 -397.37558959325224 -108.15227474680805 -396.5149268507347 A 2.25 2.25 0 0 0 -105.597 -395.651A 409.5 409.5 0 0 1 -104.885 -395.84A 2.25 2.25 0 0 0 -103.097 -397.859C -103.04273998039872 -398.8819619920447 -102.97380538431598 -399.94397433172446 -102.88811434059939 -401.0449322559073 C -102.66201711840365 -403.949681390334 -102.31939678518341 -407.1249039810428 -101.82435243443028 -410.5616729245986 A 423 423 0 0 1 -97.0613 -411.714C -95.05033078378804 -408.8830896698341 -93.29447894466774 -406.2154293630594 -91.76587870890033 -403.7350929328449 C -91.186512537242 -402.79499392479727 -90.63984906013945 -401.8818777049373 -90.12432968743951 -400.99701613196856 A 2.25 2.25 0 0 0 -87.6109 -400.018A 409.5 409.5 0 0 1 -86.8911 -400.175A 2.25 2.25 0 0 0 -85.0134 -402.112C -84.91305404839596 -403.1307469264349 -84.7962003120471 -404.1885594771594 -84.6608473953758 -405.2845206506244 C -84.3037231225563 -408.17608592597276 -83.8179727769279 -411.33258300263947 -83.1681355161434 -414.743471628071 A 423 423 0 0 1 -78.3579 -415.679C -76.47688411365668 -412.76050270868143 -74.84337040643396 -410.0162249964958 -73.42841149640007 -407.4693487194158 C -72.89211774164501 -406.5040299563095 -72.38727399508142 -405.5671441683264 -71.91226578664889 -404.6598914863974 A 2.25 2.25 0 0 0 -69.4456 -403.569A 409.5 409.5 0 0 1 -68.7195 -403.693A 2.25 2.25 0 0 0 -66.7561 -405.542C -66.60989561249534 -406.5559588442697 -66.445361461368 -407.60741055561067 -66.26062318999502 -408.6961359924791 C -65.77320145097788 -411.56861010657843 -65.14531345306392 -414.69993312654293 -64.3420108625361 -418.0779731838325 A 423 423 0 0 1 -59.4944 -418.795C -57.747199551411065 -415.794669691696 -56.23936115098935 -412.9793809762181 -54.94093424666497 -410.3711679745705 C -54.448808526224504 -409.3826015473258 -53.98681587704648 -408.4238601952008 -53.55328924743323 -407.496069869555 A 2.25 2.25 0 0 0 -51.1384 -406.294A 409.5 409.5 0 0 1 -50.4075 -406.386A 2.25 2.25 0 0 0 -48.3626 -408.145C -48.170656976609294 -409.1506002338661 -47.95877854454641 -410.1935430502255 -47.72503232817465 -411.27280854681385 C -47.10830889764339 -414.12032319964203 -46.33956598664559 -417.2200750493994 -45.384439167537614 -420.55836539627194 A 423 423 0 0 1 -40.5094 -421.056C -38.89954076939983 -417.97939198958954 -37.52045810323198 -415.09884374434887 -36.34121581638267 -412.4346224478452 C -35.89426351490483 -411.4248279410281 -35.47606578762246 -410.4461896784076 -35.084906406891655 -409.499757131518 A 2.25 2.25 0 0 0 -32.7268 -408.19A 409.5 409.5 0 0 1 -31.9925 -408.248A 2.25 2.25 0 0 0 -29.8702 -409.913C -29.63300844870153 -410.9093703915381 -29.374218591199156 -411.94167364050276 -29.09194195995498 -413.0092743192435 C -28.347176768539903 -415.8260122015275 -27.439149442176408 -418.8878602656647 -26.334149663850905 -422.1795809662258 A 423 423 0 0 1 -21.4416 -422.456C -19.97241245454269 -419.3102063398919 -18.724902909494162 -416.370283359898 -17.667254364541314 -413.655496619987 C -17.26638857996762 -412.6265369859137 -16.89284012857498 -411.63000111469216 -16.544847112928014 -410.6668598540213 A 2.25 2.25 0 0 0 -14.2484 -409.252A 409.5 409.5 0 0 1 -13.5121 -409.277A 2.25 2.25 0 0 0 -11.3168 -410.844C -11.034821382506191 -411.82867625063125 -10.729648792414533 -412.8482309958146 -10.399418421281116 -413.9019858096946 C -9.528132981593178 -416.6821924873402 -8.482676287661732 -419.69988158570624 -7.2300610013492665 -422.9383078431805 A 423 423 0 0 1 -2.32996 -422.994C -1.0044816454613334 -419.7843939651414 0.10890618794971729 -416.7911023445846 1.0428002756320884 -414.03129631501855 C 1.3967605974733797 -412.98527365926185 1.7248966348944412 -411.9728760451227 2.0290123556666275 -410.9949937130781 A 2.25 2.25 0 0 0 4.25922 -409.478A 409.5 409.5 0 0 1 4.99584 -409.47A 2.25 2.25 0 0 0 7.25977 -410.936C 7.5859091914776995 -411.9066397219517 7.936841064043491 -412.91136307142983 8.314350533340146 -413.94911925974463 C 9.310376235072367 -416.6871149298153 10.491126488450789 -419.6544800964961 11.88879826149521 -422.83299599160136 A 423 423 0 0 1 16.7864 -422.667C 17.965501262064848 -419.4009861271905 18.94249279629195 -416.3604409893358 19.750724534594895 -413.56125379569596 C 20.05705627304821 -412.50030508260454 20.339109533375456 -411.4741139958629 20.598726668281174 -410.48348835001633 A 2.25 2.25 0 0 0 22.7581 -408.867A 409.5 409.5 0 0 1 23.4936 -408.826A 2.25 2.25 0 0 0 25.8215 -410.188C 26.191142187656443 -411.14310153059483 26.58711640898913 -412.1309408921355 27.011133746234567 -413.15057837845586 C 28.12986488657476 -415.84076947268505 29.44349649428957 -418.7517485506752 30.98336939072029 -421.86386055756697 A 423 423 0 0 1 35.8685 -421.477C 36.89878167993691 -418.16076610628295 37.7373809772573 -415.07917911062356 38.418299195051205 -412.246329331953 C 38.6763765319277 -411.17262201895517 38.91177079651196 -410.13473390920063 39.12635896262067 -409.13338874098343 A 2.25 2.25 0 0 0 41.2105 -407.421A 409.5 409.5 0 0 1 41.9434 -407.346A 2.25 2.25 0 0 0 44.3304 -408.602C 44.74286818110016 -409.5396215413348 45.18307579855491 -410.5085588157256 45.65273476062534 -411.5079945390922 C 46.89188583595716 -414.1448851512226 48.33571512390496 -416.99353117706494 50.014643271629396 -420.03288142923736 A 423 423 0 0 1 54.8772 -419.425C 55.756680001139586 -416.0662676008567 56.45517385124064 -412.94993425304955 57.00738747162318 -410.0892092391237 C 57.21668316971149 -409.00493684873646 57.404937541558304 -407.95747206190606 57.574058347542554 -406.9474530621199 A 2.25 2.25 0 0 0 59.5787 -405.143A 409.5 409.5 0 0 1 60.3074 -405.035A 2.25 2.25 0 0 0 62.7488 -406.182C 63.20318705861848 -407.09947557191026 63.68672875325676 -408.0475312758198 64.20106985380417 -409.02472344631747 C 65.55810934948414 -411.6029265599223 67.12918665716116 -414.3834199130138 68.94374010217616 -417.3437991920566 A 423 423 0 0 1 73.7739 -416.517C 74.50067061996059 -413.12176955134333 75.0576320399303 -409.9770563418521 75.48001292211691 -407.0943003899546 C 75.64009940229847 -406.00167802854264 75.78082928851316 -404.9467764751762 75.90413723025696 -403.9301470547635 A 2.25 2.25 0 0 0 77.8252 -402.037A 409.5 409.5 0 0 1 78.5483 -401.896A 2.25 2.25 0 0 0 81.039 -402.931C 81.53438544652239 -403.8276487007161 82.060273370369 -404.75288601066495 82.61824583999676 -405.70583828068254 C 84.09040140209365 -408.22008677453204 85.78551710858312 -410.9267470662747 87.73198882217456 -413.8021074869508 A 423 423 0 0 1 92.5199 -412.758C 93.09246063759784 -409.3332873985384 93.5067517871691 -406.16661879625764 93.79843703121993 -403.26772121161616 C 93.90898724598873 -402.16898104405664 94.00190514347757 -401.10879782758155 94.0791483099215 -400.0876349021953 A 2.25 2.25 0 0 0 95.9127 -398.109A 409.5 409.5 0 0 1 96.6287 -397.936A 2.25 2.25 0 0 0 99.1636 -398.858C 99.69901375688413 -399.7308250825744 100.26617355104409 -400.63135379175446 100.86663748396859 -401.5581193344087 C 102.45090158302364 -404.00327674289645 104.26659266406742 -406.6305744214059 106.34100611605737 -409.4150417871341 A 423 423 0 0 1 111.077 -408.156C 111.49406809235595 -404.7085607943996 111.76484259844909 -401.5264061218336 111.92523630812414 -398.6172891861066 C 111.9860244097259 -397.51467587560376 112.03094049254854 -396.45137688958295 112.06196108032958 -395.42776663656696 A 2.25 2.25 0 0 0 113.804 -393.369A 409.5 409.5 0 0 1 114.512 -393.163A 2.25 2.25 0 0 0 117.086 -393.969C 117.65996269489989 -394.81737429338875 118.267235684412 -395.6913546732476 118.9089643672249 -396.59004015963836 C 120.60210044246215 -398.9611111662865 122.5346575452209 -401.50367881295006 124.73277482779096 -404.19156461645224 A 423 423 0 0 1 129.407 -402.719C 129.66789955461797 -399.2570377903821 129.79460424043248 -396.0658980071893 129.82337874057345 -393.1525048795838 C 129.83428054239977 -392.0482710019513 129.83110304957268 -390.984028505286 129.8158376854075 -389.9600621017343 A 2.25 2.25 0 0 0 131.463 -387.824A 409.5 409.5 0 0 1 132.161 -387.587A 2.25 2.25 0 0 0 134.769 -388.276C 135.38053907105274 -389.0973342315804 136.0266846319962 -389.942980790281 136.7083670497696 -390.8117502574545 C 138.50691612120417 -393.1038909000589 140.5523911422526 -395.5565341948637 142.86972162774669 -398.14234723945935 A 423 423 0 0 1 147.472 -396.461C 147.57682692806821 -392.9898555356106 147.55920294319114 -389.79624995751544 147.456299449143 -386.8845325332536 C 147.41729267943742 -385.78093397503085 147.3660281023964 -384.7179221541606 147.30450797254926 -383.69569150476224 A 2.25 2.25 0 0 0 148.854 -381.488A 409.5 409.5 0 0 1 149.54 -381.219A 2.25 2.25 0 0 0 152.176 -381.79C 152.82454076319632 -382.5823906112371 153.5082388572143 -383.39797574131563 154.22848237182913 -384.2350543430309 C 156.12877010676502 -386.44358190959866 158.2829842578409 -388.8012902428298 160.71479377286042 -391.2797478606362 A 423 423 0 0 1 165.237 -389.392C 165.1842633002653 -385.9198175243217 165.02234664948784 -382.73027050452646 164.78797538719257 -379.8261772554645 C 164.69913973455053 -378.72546860526955 164.599892803889 -377.66585913243375 164.49224359046008 -376.6474525958317 A 2.25 2.25 0 0 0 165.94 -374.372A 409.5 409.5 0 0 1 166.613 -374.073A 2.25 2.25 0 0 0 169.273 -374.523C 169.95633067541578 -375.28585308886846 170.67618454647817 -376.06971059663726 171.4335177417041 -376.8733882292757 C 173.4316619611854 -378.9937908245369 175.69021430621476 -381.2517475331667 178.23153480326326 -383.6177863772863 A 423 423 0 0 1 182.664 -381.527C 182.45423768760784 -378.06136743905876 182.14835915736978 -374.88239503936376 181.78299893388677 -371.9918588616047 C 181.64451588445633 -370.8962888041393 181.49748935596674 -369.8422464007753 181.34393098013078 -368.829744523169 A 2.25 2.25 0 0 0 182.687 -366.491A 409.5 409.5 0 0 1 183.346 -366.162A 2.25 2.25 0 0 0 186.024 -366.492C 186.74090954257312 -367.2226280725408 187.495448570469 -367.97315658202655 188.28832425798336 -368.74179137823535 C 190.3802428678635 -370.7697371411872 192.73851931382058 -372.9233293490407 195.38415902074047 -375.17211573768924 A 423 423 0 0 1 199.717 -372.883C 199.35146852199318 -369.4305596430564 198.90225300460492 -366.2686563219188 198.40665022993554 -363.397582415246 C 198.21880269665158 -362.3093891373614 198.02429693710704 -361.2630671517025 197.82514310982697 -360.25853841641145 A 2.25 2.25 0 0 0 199.062 -357.861A 409.5 409.5 0 0 1 199.705 -357.503A 2.25 2.25 0 0 0 202.394 -357.712C 203.14398743180007 -358.409188268939 203.93167013653056 -359.12485449340227 204.75846851673563 -359.85687617633556 C 206.93988784716169 -361.78822212998574 209.3930705703968 -363.83305017158347 212.1376245968621 -365.95998996302444 A 423 423 0 0 1 216.363 -363.478C 215.84143572903895 -360.04502638209607 215.2498009460624 -356.9066517268238 214.62496810827727 -354.06090553071584 C 214.38813985288664 -352.9823121489251 214.14655222640872 -351.94584815683373 213.9022098075421 -350.95134475850466 A 2.25 2.25 0 0 0 215.029 -348.501A 409.5 409.5 0 0 1 215.656 -348.113A 2.25 2.25 0 0 0 218.352 -348.2C 219.13205379486624 -348.86353903057125 219.95127098579985 -349.5428809049231 220.81030295698045 -350.23679399622773 C 223.07676649325578 -352.06759451145905 225.61984378203286 -353.99948092028075 228.45770516143065 -356.000228898394 A 423 423 0 0 1 232.567 -353.33C 231.8904512506172 -349.9239417628383 231.15760587801327 -346.8155072930229 230.40481947479705 -344.00090250389707 C 230.11949432385518 -342.9341125226757 229.8313183801218 -341.90962396069835 229.54228654722957 -340.92717761278885 A 2.25 2.25 0 0 0 230.557 -338.428A 409.5 409.5 0 0 1 231.166 -338.013A 2.25 2.25 0 0 0 233.863 -337.978C 234.67244592830912 -338.60518157186533 235.52152399166596 -339.2468112395828 236.41103460072753 -339.90119811457436 C 238.75791208771605 -341.6277129708393 241.3856885808526 -343.4427110136489 244.31105972499438 -345.3131797649582 A 423 423 0 0 1 248.295 -342.46C 247.46572786762695 -339.0879825812214 246.59316906649988 -336.0158386503713 245.71396699733958 -333.2381253445347 C 245.38072785378074 -332.18531815468725 245.04655231973243 -331.1748979942527 244.7134215482876 -330.2065157783574 A 2.25 2.25 0 0 0 245.614 -327.664A 409.5 409.5 0 0 1 246.204 -327.222A 2.25 2.25 0 0 0 248.896 -327.065C 249.73341570146536 -327.6550731293049 250.61062001941423 -328.2576797777423 251.52879204715154 -328.8712035615316 C 253.9512889486235 -330.4899055879082 256.65839624931573 -332.1843073277037 259.66530079257797 -333.92067559172807 A 423 423 0 0 1 263.516 -330.89C 262.5354461824039 -327.5592860809524 261.52495654038665 -324.52970890308427 260.5211349647313 -321.7945617896577 C 260.1406626170311 -320.7578882159471 259.7611701941356 -319.76360068754605 259.38462105121596 -318.81126095304353 A 2.25 2.25 0 0 0 260.17 -316.231A 409.5 409.5 0 0 1 260.738 -315.762A 2.25 2.25 0 0 0 263.421 -315.484C 264.28419441608287 -316.03558414699626 265.187732910466 -316.59793668530017 266.1326905840376 -317.1693439839519 C 268.6258578776326 -318.676926264952 271.40676552078276 -320.2472701360684 274.48906052947933 -321.84599061193836 A 423 423 0 0 1 278.199 -318.645C 277.06881962392663 -315.3614047283864 275.9224635134567 -312.38058355607967 274.79607318126625 -309.69359038389166 C 274.3691449126301 -308.6751682910276 273.94511088216245 -307.6990446671077 273.5259126360906 -306.76469298950667 A 2.25 2.25 0 0 0 274.194 -304.151A 409.5 409.5 0 0 1 274.74 -303.658A 2.25 2.25 0 0 0 277.408 -303.259C 278.29505566500814 -303.7704525751329 279.2230824584545 -304.2914021492904 280.1928952834794 -304.819525610435 C 282.75163957127523 -306.2129082418431 285.6006663219144 -307.65598612173244 288.75205484395826 -309.1137927151227 A 423 423 0 0 1 292.314 -305.748C 291.03615734301735 -302.5192580961873 289.7562767039422 -299.59328257629585 288.50961876612314 -296.95993271843224 C 288.0371067665407 -295.96184268439475 287.56939740572807 -295.0058771295879 287.1084064545006 -294.0914223358271 A 2.25 2.25 0 0 0 287.657 -291.451A 409.5 409.5 0 0 1 288.181 -290.933A 2.25 2.25 0 0 0 290.828 -290.413C 291.737376061533 -290.8847353747232 292.6879952484793 -291.36321771460473 293.6806819529264 -291.84697841227273 C 296.2997758669593 -293.12331479321364 299.21110132668537 -294.43617855645584 302.4251452559007 -295.7500930520284 A 423 423 0 0 1 305.831 -292.227C 304.4089248690452 -289.0590819540688 302.99813442417326 -286.1939296869212 301.6337557314589 -283.61960292625065 C 301.11662531587046 -282.6438839917887 300.6061961281371 -281.7100294889463 300.10435424985263 -280.8173397577711 A 2.25 2.25 0 0 0 300.534 -278.154A 409.5 409.5 0 0 1 301.033 -277.613A 2.25 2.25 0 0 0 303.654 -276.975C 304.58369371533274 -277.4047573276554 305.5549632352508 -277.83979492125763 306.56849581706393 -278.27820456006316 C 309.2425886985416 -279.4348872084449 312.2102651962595 -280.61485474959875 315.4803984250639 -281.78219289532655 A 423 423 0 0 1 318.724 -278.109C 317.1598024042149 -275.0083746706207 315.62098431758653 -272.2098989981252 314.14167221746726 -269.69985453671063 C 313.58097985368016 -268.74850003969857 313.0288736166091 -267.8386644000601 312.48720604546935 -266.96956344544014 A 2.25 2.25 0 0 0 312.796 -264.29A 409.5 409.5 0 0 1 313.271 -263.727A 2.25 2.25 0 0 0 315.86 -262.971C 316.8077643355358 -263.3580572566761 317.7976999404501 -263.7487613471231 318.83000781064004 -264.1409242812949 C 321.5536366410315 -265.1755901607447 324.57160138370426 -266.2202508737359 327.8911432172901 -267.2386278646757 A 423 423 0 0 1 330.965 -263.422C 329.26274063634804 -260.3958410357165 327.59903862514 -257.66975908331926 326.0078152674715 -255.22912479816964 C 325.40470641785737 -254.30407830133217 324.81205105285517 -253.42012026697574 324.23166438467047 -252.57638361236178 A 2.25 2.25 0 0 0 324.419 -249.886A 409.5 409.5 0 0 1 324.868 -249.302A 2.25 2.25 0 0 0 327.42 -248.429C 328.3846148463047 -248.77333176515359 329.39119415449784 -249.11890416637576 330.4401683672371 -249.46401922951037 C 333.20776892890586 -250.37455457692303 336.269856387494 -251.281774279774 339.63202519210506 -252.1491096300865 A 423 423 0 0 1 342.53 -248.198C 340.6930139561355 -245.25133361827326 338.90782686822644 -242.60321461519843 337.20794303115133 -240.23697658230986 C 336.5636498125317 -239.34012790263475 335.9316560805499 -238.4838533491738 335.31373601202705 -237.66720470020505 A 2.25 2.25 0 0 0 335.379 -234.971A 409.5 409.5 0 0 1 335.801 -234.367A 2.25 2.25 0 0 0 338.311 -233.38C 339.2905944054004 -233.68037661156137 340.3117610330227 -233.98011133894445 341.37525859410096 -234.27747348074297 C 344.18117683768327 -235.0620181245774 347.28113134296655 -235.82994341941898 350.6790584003876 -236.5444652126818 A 423 423 0 0 1 353.396 -232.466C 351.4272709701403 -229.60579177916375 349.5242458404594 -227.04104568079717 347.7191742892535 -224.75403798888527 C 347.0350129557559 -223.88721933683567 346.3649719837756 -223.06037758411827 345.71078089020784 -222.27248530719055 A 2.25 2.25 0 0 0 345.654 -219.576A 409.5 409.5 0 0 1 346.049 -218.954A 2.25 2.25 0 0 0 348.512 -217.854C 349.5034227214968 -218.110025838451 350.5370904836411 -218.36331055112174 351.6129387284795 -218.61231227776733 C 354.4514423237829 -219.26926343827063 357.58293084633465 -219.89632549772764 361.0096743862888 -220.4565740068593 A 423 423 0 0 1 363.539 -216.26C 361.4435822063564 -213.49117846387472 359.4266068062002 -211.01504489953527 357.52003519861177 -208.81193977426892 C 356.79740345263815 -207.9769220106822 356.0906840959717 -207.18120224903112 355.401558452278 -206.42367596291987 A 2.25 2.25 0 0 0 355.223 -203.732A 409.5 409.5 0 0 1 355.589 -203.093A 2.25 2.25 0 0 0 358 -201.884C 359.00223557153987 -202.09408878027 360.0462927441973 -202.30040603207365 361.13229377647775 -202.50053864730663 C 363.9975838233035 -203.02855421090123 367.15420891150666 -203.5134719831169 370.60276829329433 -203.9183026525155 A 423 423 0 0 1 372.94 -199.611C 370.72148491486337 -196.94041490404115 368.5946798094016 -194.55795247271817 366.59050316197835 -192.44325073163023 C 365.83087729877883 -191.6417397499508 365.0889233445769 -190.87876758924426 364.36627099496036 -190.15315487674582 A 2.25 2.25 0 0 0 364.066 -187.473A 409.5 409.5 0 0 1 364.403 -186.817A 2.25 2.25 0 0 0 366.757 -185.5C 367.76762742515945 -185.66528507871408 368.8199410593507 -185.82421337532716 369.91387624119227 -185.97506801968214 C 372.80009911615605 -186.373069280827 375.9754119658301 -186.71485210657843 379.43874198023707 -186.96343789038326 A 423 423 0 0 1 381.579 -182.555C 379.2420248720521 -179.9873133612559 377.00973500224916 -177.70338929718133 374.9120477330423 -175.68141115475632 C 374.1169796247288 -174.9150443959932 373.3413068424058 -174.18637854463714 372.58660412420863 -173.4941617909454 A 2.25 2.25 0 0 0 372.166 -170.83A 409.5 409.5 0 0 1 372.473 -170.16A 2.25 2.25 0 0 0 374.765 -168.738C 375.7816910890561 -168.85717783837404 376.8401113683242 -168.96839249839326 377.93974585283297 -169.06966098447586 C 380.8410051679819 -169.33683484939988 384.02851879692065 -169.53478448595828 387.49954405917634 -169.62661753765695 A 423 423 0 0 1 389.439 -165.126C 386.9877951030176 -162.6665080505572 384.6545809091671 -160.48578827972503 382.46766847307003 -158.56066452144844 C 381.63878239823043 -157.83100762897686 380.8309754428346 -157.1381367095531 380.0457641704656 -156.4807300738318 A 2.25 2.25 0 0 0 379.505 -153.838A 409.5 409.5 0 0 1 379.781 -153.155A 2.25 2.25 0 0 0 382.007 -151.631C 383.02805429037073 -151.70410505923647 384.09041892273274 -151.7673788774839 385.1935062196659 -151.8188543195797 C 388.1038748684615 -151.95465496738598 391.2970773689657 -152.00836701498645 394.76870677334944 -151.94325972491635 A 423 423 0 0 1 396.502 -147.36C 393.94297144301095 -145.01338438471174 391.51359954801774 -142.94032399265836 389.2419296818272 -141.11598753605864 C 388.38091900721713 -140.42453115710055 387.54262818207087 -139.76887066519586 386.7285124971668 -139.1476171915324 A 2.25 2.25 0 0 0 386.069 -136.532A 409.5 409.5 0 0 1 386.314 -135.837A 2.25 2.25 0 0 0 388.468 -134.214C 389.4919131243002 -134.24110948611695 390.55605175968566 -134.25631319780757 391.66033832490257 -134.25789043453798 C 394.5738705909597 -134.2620404322844 397.76623843329145 -134.17140516029127 401.2313796398546 -133.94949053891548 A 423 423 0 0 1 402.756 -129.292C 400.09334486530173 -127.06400668384371 397.572778336744 -125.10284081416363 395.22099193182976 -123.38301867408703 C 394.3296156529215 -122.73117541440416 393.46255353814655 -122.11406482683412 392.6211966324028 -121.5302337004773 A 2.25 2.25 0 0 0 391.844 -118.947A 409.5 409.5 0 0 1 392.057 -118.242A 2.25 2.25 0 0 0 394.136 -116.523C 395.1600622976262 -116.50386701834078 396.22380096177824 -116.47096956316277 397.32703080110184 -116.42264537232352 C 400.2377745049464 -116.29513624180245 403.4227858645269 -116.0603388128831 406.87435978833713 -115.68207021905727 A 423 423 0 0 1 408.187 -110.961C 405.42635050940476 -108.8550444980957 402.81973872027186 -107.00977970028569 400.39264034150165 -105.3979853748185 C 399.47271948895707 -104.78708691283971 398.5786574427712 -104.20978695117428 397.7117781601364 -103.66457090566168 A 2.25 2.25 0 0 0 396.819 -101.119A 409.5 409.5 0 0 1 397 -100.405A 2.25 2.25 0 0 0 398.999 -98.5943C 400.02092210637295 -98.5286138259246 401.082087642153 -98.44768241149384 402.1820069202367 -98.34955551663779 C 405.0840155792676 -98.09064775169665 408.2551636603904 -97.71216784354444 411.68611893369683 -97.17831805833096 A 423 423 0 0 1 412.784 -92.4025C 409.9310933503708 -90.42369769383849 407.2437614591889 -88.69810373814676 404.7463095294776 -87.19763003073999 C 403.79972344888705 -86.62892439701858 402.88048798882073 -86.0926144520001 401.98985731399716 -85.5871273324718 A 2.25 2.25 0 0 0 400.983 -83.0849A 409.5 409.5 0 0 1 401.132 -82.3634A 2.25 2.25 0 0 0 403.047 -80.4639C 404.0645620924787 -80.35207232115738 405.120986599502 -80.2232722857162 406.21534824428613 -80.07554315446689 C 409.1026932210982 -79.68576568883401 412.25349954994056 -79.16437651421434 415.6568269277138 -78.4760361621348 A 423 423 0 0 1 416.538 -73.6555C 413.5983704566978 -71.80762045647596 410.8358085285362 -70.2052226324773 408.27310519907223 -68.81913492493797 C 407.30178771155886 -68.2937839524968 406.35925678298474 -67.79955967461234 405.44669422340786 -67.33483416228907 A 2.25 2.25 0 0 0 404.328 -64.8806A 409.5 409.5 0 0 1 404.444 -64.1532A 2.25 2.25 0 0 0 406.271 -62.1691C 407.28272133115263 -62.01137613681649 408.3322465946846 -61.83497061145705 409.41881488803574 -61.63794104596473 C 412.2855975022864 -61.11809017266812 415.4096251620599 -60.45485689978913 418.778371841478 -59.61343222074087 A 423 423 0 0 1 419.441 -54.758C 416.42068979139265 -53.0448443651017 413.5885415819757 -51.5689162797331 410.965822308818 -50.30004626982477 C 409.9717577603522 -49.819123220597874 409.0078568999504 -49.367994281728095 408.0752267686394 -48.94497978420276 A 2.25 2.25 0 0 0 406.846 -46.5439A 409.5 409.5 0 0 1 406.929 -45.8119A 2.25 2.25 0 0 0 408.665 -43.7473C 409.66882530747085 -43.543994264283576 410.7093072075359 -43.320343635386145 411.7858623526913 -43.074416155763295 C 414.6262259317665 -42.42555390034963 417.7170927129692 -41.6218314767845 421.04437653759544 -40.62904145317314 A 423 423 0 0 1 421.487 -35.7486C 418.3922855177737 -34.173700696162236 415.4963369436109 -32.82725758593132 412.8189597919527 -31.67819750237792 C 411.80417899944706 -31.24268487459795 410.82087740144374 -30.835572905315242 409.8700850083173 -30.455133616967522 A 2.25 2.25 0 0 0 408.534 -28.112A 409.5 409.5 0 0 1 408.584 -27.377A 2.25 2.25 0 0 0 410.225 -25.2361C 411.2179993477337 -24.987654506542164 412.2473122394297 -24.717215679526376 413.31165489591444 -24.422892701522223 C 416.11979673977504 -23.646344652399456 419.1711881786797 -22.703775037006185 422.450211698314 -21.56164788196303 A 423 423 0 0 1 422.672 -16.6662C 419.5091297787444 -15.23274211485558 416.55529709683486 -14.018534685885278 413.82873179478304 -12.991631992596297 C 412.7953078972496 -12.602419513606911 411.7946143904663 -12.240156220336976 410.82760214990293 -11.903069356833775 A 2.25 2.25 0 0 0 409.387 -9.62272A 409.5 409.5 0 0 1 409.404 -8.88624A 2.25 2.25 0 0 0 410.946 -6.67331" stroke="#191919" stroke-width="0.35 px" style="stroke-width:0.35;stroke-miterlimit:4;stroke-dasharray:none;fill:none;fill-rule: evenodd "/>
<title>b'InvoluteGear'</title>
</g>
</svg>