<?xml version="1.0"?>
<!DOCTYPE svg PUBLIC "-//W3C//DTD SVG 1.1//EN" "http://www.w3.org/Graphics/SVG/1.1/DTD/svg11.dtd">
<svg width="134.5864064853433mm" height="134.5864064853433mm" viewBox="0 0 134.5864064853433 134.5864064853433" xmlns="http://www.w3.org/2000/svg" version="1.1">
<g id="InvoluteGear" transform="translate(67.293203,67.293203) scale(1,-1)">
<path id="InvoluteGear_w0000"  d="M 54.46508972301036 -5.104312046146015 L 56.243127003175054 -5.266422792940123 C 56.526530443922034 -5.275479911233632 57.37957853299548 -5.268119431031767 58.80285669225111 -4.959960337444196 C 60.50540631715006 -4.585666184435707 62.955494262017396 -3.784410479970694 65.97372866928592 -2.081804955026537 A 66 66 0 0 1 65.9737 2.0818C 62.955494262017396 3.7844104799706937 60.50540631715006 4.5856661844357065 58.80285669225111 4.959960337444195 C 57.37957853299548 5.268119431031767 56.526530443922034 5.275479911233632 56.243127003175054 5.266422792940123 L 54.46508972301036 5.10431204614601 A 2.25 2.25 0 0 0 52.0257 7.04086A 52.5 52.5 0 0 1 51.6552 9.38058A 2.25 2.25 0 0 0 53.3767 11.9761L 55.117806575767624 12.371416345978574 C 55.39013806830326 12.450378994061822 56.199160498660554 12.720985583263637 57.457552069631454 13.453879436208387 C 58.96110973053267 14.335971097298755 61.043680206475386 15.855129368926065 63.388057665289935 18.407089172957505 A 66 66 0 0 1 62.1014 22.3669C 58.704785902472196 23.05350586354966 56.12701216749036 23.05842650982258 54.39212799823954 22.888284635192008 C 52.943283633489166 22.741544210271396 52.12971217619359 22.48493808638767 51.86297829060347 22.388747775560624 L 50.22205932481732 21.68512755725751 A 2.25 2.25 0 0 0 47.3037 22.7731A 52.5 52.5 0 0 1 46.2282 24.8838A 2.25 2.25 0 0 0 47.0634 27.8843L 48.59717121238427 28.798255056226722 C 48.8317730527741 28.957508056527224 49.51757707214115 29.464871896350946 50.48790192013105 30.550759751954914 C 51.6452889172833 31.85430364344564 53.15648541599442 33.94265868601029 54.59752192644799 37.094169162960945 A 66 66 0 0 1 52.1502 40.4626C 48.70764407849871 40.06596346998418 46.25451500698809 39.274067390923655 44.657118843520465 38.57614416079102 C 43.32453125438937 37.9888681925541 42.63007447159743 37.49341385987052 42.406119912329984 37.31950613433099 L 41.06294384224823 36.14325169389671 A 2.25 2.25 0 0 0 37.9512 36.2761A 52.5 52.5 0 0 1 36.2761 37.9512A 2.25 2.25 0 0 0 36.1433 41.0629L 37.319506134331 42.40611991232998 C 37.49341385987053 42.630074471597425 37.98886819255411 43.32453125438936 38.57614416079102 44.65711884352045 C 39.27406739092366 46.25451500698809 40.06596346998418 48.7076440784987 40.46260033814184 52.15021342502 A 66 66 0 0 1 37.0942 54.5975C 33.942658686010304 53.15648541599441 31.854303643445647 51.6452889172833 30.550759751954914 50.48790192013105 C 29.464871896350953 49.517577072141144 28.95750805652723 48.831773052774096 28.79825505622673 48.59717121238426 L 27.88430131404695 47.06342252989512 A 2.25 2.25 0 0 0 24.8838 46.2282A 52.5 52.5 0 0 1 22.7731 47.3037A 2.25 2.25 0 0 0 21.6851 50.2221L 22.388747775560628 51.86297829060347 C 22.484938086387675 52.12971217619359 22.7415442102714 52.943283633489166 22.888284635192015 54.39212799823954 C 23.05842650982258 56.12701216749036 23.053505863549663 58.704785902472196 22.36691750922456 62.10143144513559 A 66 66 0 0 1 18.4071 63.3881C 15.855129368926068 61.043680206475386 14.335971097298758 58.96110973053267 13.45387943620839 57.457552069631454 C 12.72098558326364 56.199160498660554 12.450378994061825 55.39013806830326 12.371416345978577 55.117806575767624 L 11.976149091875488 53.37669765852108 A 2.25 2.25 0 0 0 9.38058 51.6552A 52.5 52.5 0 0 1 7.04086 52.0257A 2.25 2.25 0 0 0 5.10431 54.4651L 5.266422792940126 56.243127003175054 C 5.275479911233636 56.526530443922034 5.268119431031771 57.37957853299548 4.959960337444199 58.80285669225111 C 4.585666184435711 60.50540631715006 3.784410479970698 62.955494262017396 2.081804955026541 65.97372866928592 A 66 66 0 0 1 -2.0818 65.9737C -3.78441047997069 62.955494262017396 -4.585666184435704 60.50540631715006 -4.959960337444192 58.80285669225111 C -5.268119431031764 57.37957853299548 -5.275479911233629 56.526530443922034 -5.266422792940119 56.243127003175054 L -5.104312046146006 54.46508972301036 A 2.25 2.25 0 0 0 -7.04086 52.0257A 52.5 52.5 0 0 1 -9.38058 51.6552A 2.25 2.25 0 0 0 -11.9761 53.3767L -12.37141634597857 55.11780657576763 C -12.450378994061818 55.390138068303266 -12.720985583263634 56.19916049866056 -13.453879436208384 57.45755206963146 C -14.33597109729875 58.96110973053267 -15.85512936892606 61.04368020647539 -18.4070891729575 63.38805766528994 A 66 66 0 0 1 -22.3669 62.1014C -23.053505863549656 58.7047859024722 -23.058426509822578 56.12701216749036 -22.888284635192008 54.392127998239545 C -22.741544210271393 52.94328363348917 -22.484938086387668 52.1297121761936 -22.38874777556062 51.86297829060348 L -21.685127557257502 50.22205932481733 A 2.25 2.25 0 0 0 -22.7731 47.3037A 52.5 52.5 0 0 1 -24.8838 46.2282A 2.25 2.25 0 0 0 -27.8843 47.0634L -28.798255056226715 48.59717121238427 C -28.957508056527224 48.8317730527741 -29.46487189635094 49.51757707214115 -30.550759751954907 50.48790192013105 C -31.854303643445633 51.6452889172833 -33.94265868601029 53.15648541599442 -37.09416916296094 54.59752192644799 A 66 66 0 0 1 -40.4626 52.1502C -40.06596346998418 48.70764407849871 -39.27406739092365 46.25451500698809 -38.57614416079101 44.657118843520465 C -37.988868192554094 43.32453125438937 -37.49341385987052 42.63007447159743 -37.319506134330986 42.406119912329984 L -36.14325169389671 41.06294384224824 A 2.25 2.25 0 0 0 -36.2761 37.9512A 52.5 52.5 0 0 1 -37.9512 36.2761A 2.25 2.25 0 0 0 -41.0629 36.1433L -42.40611991232998 37.319506134331 C -42.630074471597425 37.49341385987053 -43.32453125438936 37.98886819255411 -44.65711884352045 38.57614416079102 C -46.25451500698809 39.27406739092366 -48.7076440784987 40.06596346998418 -52.15021342502 40.46260033814184 A 66 66 0 0 1 -54.5975 37.0942C -53.15648541599441 33.942658686010304 -51.6452889172833 31.854303643445647 -50.48790192013105 30.550759751954914 C -49.517577072141144 29.464871896350953 -48.831773052774096 28.95750805652723 -48.59717121238426 28.79825505622673 L -47.06342252989512 27.88430131404695 A 2.25 2.25 0 0 0 -46.2282 24.8838A 52.5 52.5 0 0 1 -47.3037 22.7731A 2.25 2.25 0 0 0 -50.2221 21.6851L -51.86297829060347 22.388747775560628 C -52.12971217619359 22.48493808638768 -52.943283633489166 22.741544210271403 -54.39212799823954 22.888284635192015 C -56.12701216749036 23.05842650982259 -58.704785902472196 23.053505863549667 -62.10143144513559 22.366917509224564 A 66 66 0 0 1 -63.3881 18.4071C -61.043680206475386 15.855129368926072 -58.96110973053267 14.335971097298762 -57.457552069631454 13.453879436208394 C -56.199160498660554 12.720985583263644 -55.39013806830326 12.450378994061829 -55.117806575767624 12.371416345978577 L -53.37669765852108 11.976149091875492 A 2.25 2.25 0 0 0 -51.6552 9.38058A 52.5 52.5 0 0 1 -52.0257 7.04086A 2.25 2.25 0 0 0 -54.4651 5.10431L -56.243127003175054 5.26642279294013 C -56.526530443922034 5.2754799112336395 -57.37957853299548 5.268119431031774 -58.80285669225111 4.959960337444203 C -60.50540631715006 4.5856661844357145 -62.955494262017396 3.7844104799707017 -65.97372866928592 2.081804955026545 A 66 66 0 0 1 -65.9737 -2.0818C -62.955494262017396 -3.7844104799706866 -60.50540631715006 -4.5856661844357 -58.80285669225111 -4.959960337444189 C -57.37957853299548 -5.26811943103176 -56.526530443922034 -5.275479911233625 -56.243127003175054 -5.266422792940116 L -54.46508972301036 -5.104312046146003 A 2.25 2.25 0 0 0 -52.0257 -7.04086A 52.5 52.5 0 0 1 -51.6552 -9.38058A 2.25 2.25 0 0 0 -53.3767 -11.9761L -55.117806575767624 -12.371416345978567 C -55.390138068303266 -12.450378994061818 -56.19916049866056 -12.72098558326363 -57.45755206963146 -13.45387943620838 C -58.96110973053267 -14.335971097298746 -61.04368020647539 -15.855129368926056 -63.38805766528994 -18.407089172957498 A 66 66 0 0 1 -62.1014 -22.3669C -58.7047859024722 -23.053505863549653 -56.12701216749036 -23.058426509822574 -54.392127998239545 -22.888284635192 C -52.94328363348917 -22.74154421027139 -52.1297121761936 -22.484938086387668 -51.862978290603486 -22.388747775560617 L -50.22205932481733 -21.685127557257502 A 2.25 2.25 0 0 0 -47.3037 -22.7731A 52.5 52.5 0 0 1 -46.2282 -24.8838A 2.25 2.25 0 0 0 -47.0634 -27.8843L -48.59717121238427 -28.798255056226715 C -48.8317730527741 -28.957508056527224 -49.51757707214115 -29.46487189635094 -50.48790192013105 -30.550759751954907 C -51.6452889172833 -31.854303643445633 -53.15648541599442 -33.94265868601029 -54.59752192644799 -37.09416916296094 A 66 66 0 0 1 -52.1502 -40.4626C -48.70764407849871 -40.06596346998418 -46.25451500698809 -39.27406739092365 -44.657118843520465 -38.57614416079101 C -43.32453125438937 -37.988868192554094 -42.63007447159743 -37.49341385987052 -42.406119912329984 -37.319506134330986 L -41.06294384224824 -36.14325169389671 A 2.25 2.25 0 0 0 -37.9512 -36.2761A 52.5 52.5 0 0 1 -36.2761 -37.9512A 2.25 2.25 0 0 0 -36.1433 -41.0629L -37.319506134331 -42.40611991232998 C -37.49341385987053 -42.630074471597425 -37.98886819255411 -43.32453125438936 -38.57614416079102 -44.65711884352045 C -39.27406739092366 -46.25451500698809 -40.06596346998418 -48.7076440784987 -40.46260033814184 -52.15021342502 A 66 66 0 0 1 -37.0942 -54.5975C -33.942658686010304 -53.15648541599441 -31.854303643445647 -51.6452889172833 -30.550759751954914 -50.48790192013105 C -29.464871896350953 -49.517577072141144 -28.95750805652723 -48.831773052774096 -28.79825505622673 -48.59717121238426 L -27.88430131404695 -47.06342252989512 A 2.25 2.25 0 0 0 -24.8838 -46.2282A 52.5 52.5 0 0 1 -22.7731 -47.3037A 2.25 2.25 0 0 0 -21.6851 -50.2221L -22.38874777556063 -51.86297829060347 C -22.484938086387682 -52.12971217619359 -22.741544210271407 -52.943283633489166 -22.888284635192022 -54.39212799823954 C -23.05842650982259 -56.12701216749036 -23.05350586354967 -58.704785902472196 -22.36691750922457 -62.10143144513559 A 66 66 0 0 1 -18.4071 -63.3881C -15.855129368926075 -61.043680206475386 -14.335971097298765 -58.96110973053267 -13.453879436208398 -57.457552069631454 C -12.720985583263648 -56.199160498660554 -12.450378994061833 -55.39013806830326 -12.37141634597858 -55.117806575767624 L -11.976149091875495 -53.37669765852108 A 2.25 2.25 0 0 0 -9.38058 -51.6552A 52.5 52.5 0 0 1 -7.04086 -52.0257A 2.25 2.25 0 0 0 -5.10431 -54.4651L -5.2664227929401335 -56.243127003175054 C -5.275479911233643 -56.526530443922034 -5.268119431031778 -57.37957853299548 -4.9599603374442065 -58.80285669225111 C -4.585666184435719 -60.50540631715006 -3.7844104799707057 -62.955494262017396 -2.081804955026549 -65.97372866928592 A 66 66 0 0 1 2.0818 -65.9737C 3.7844104799706826 -62.955494262017396 4.585666184435696 -60.50540631715006 4.959960337444185 -58.80285669225111 C 5.2681194310317565 -57.37957853299548 5.275479911233622 -56.526530443922034 5.266422792940112 -56.243127003175054 L 5.104312046146 -54.46508972301036 A 2.25 2.25 0 0 0 7.04086 -52.0257A 52.5 52.5 0 0 1 9.38058 -51.6552A 2.25 2.25 0 0 0 11.9761 -53.3767L 12.371416345978563 -55.117806575767624 C 12.450378994061815 -55.390138068303266 12.720985583263626 -56.19916049866056 13.45387943620838 -57.457552069631454 C 14.335971097298742 -58.96110973053267 15.855129368926052 -61.04368020647539 18.407089172957495 -63.38805766528994 A 66 66 0 0 1 22.3669 -62.1014C 23.05350586354965 -58.7047859024722 23.05842650982257 -56.12701216749036 22.888284635192 -54.39212799823955 C 22.741544210271385 -52.94328363348917 22.484938086387665 -52.1297121761936 22.388747775560613 -51.862978290603486 L 21.685127557257502 -50.22205932481733 A 2.25 2.25 0 0 0 22.7731 -47.3037A 52.5 52.5 0 0 1 24.8838 -46.2282A 2.25 2.25 0 0 0 27.8843 -47.0634L 28.798255056226708 -48.597171212384275 C 28.957508056527217 -48.83177305277411 29.46487189635093 -49.51757707214115 30.550759751954896 -50.48790192013106 C 31.854303643445622 -51.64528891728331 33.94265868601028 -53.156485415994425 37.09416916296093 -54.597521926447996 A 66 66 0 0 1 40.4626 -52.1502C 40.065963469984176 -48.70764407849872 39.27406739092364 -46.2545150069881 38.576144160791 -44.65711884352047 C 37.988868192554094 -43.324531254389385 37.493413859870515 -42.63007447159744 37.31950613433098 -42.40611991232999 L 36.1432516938967 -41.062943842248245 A 2.25 2.25 0 0 0 36.2761 -37.9512A 52.5 52.5 0 0 1 37.9512 -36.2761A 2.25 2.25 0 0 0 41.0629 -36.1433L 42.40611991232998 -37.319506134331 C 42.630074471597425 -37.49341385987053 43.32453125438936 -37.98886819255411 44.65711884352045 -38.57614416079102 C 46.25451500698809 -39.27406739092366 48.7076440784987 -40.06596346998418 52.15021342502 -40.46260033814184 A 66 66 0 0 1 54.5975 -37.0942C 53.15648541599441 -33.942658686010304 51.6452889172833 -31.854303643445647 50.48790192013105 -30.550759751954914 C 49.517577072141144 -29.464871896350953 48.831773052774096 -28.95750805652723 48.59717121238426 -28.79825505622673 L 47.06342252989512 -27.88430131404695 A 2.25 2.25 0 0 0 46.2282 -24.8838A 52.5 52.5 0 0 1 47.3037 -22.7731A 2.25 2.25 0 0 0 50.2221 -21.6851L 51.86297829060347 -22.388747775560635 C 52.12971217619359 -22.484938086387686 52.943283633489166 -22.74154421027141 54.39212799823954 -22.888284635192022 C 56.12701216749036 -23.058426509822596 58.704785902472196 -23.053505863549674 62.10143144513559 -22.366917509224574 A 66 66 0 0 1 63.3881 -18.4071C 61.043680206475386 -15.855129368926079 58.96110973053267 -14.335971097298769 57.457552069631454 -13.453879436208402 C 56.199160498660554 -12.720985583263651 55.39013806830326 -12.450378994061836 55.117806575767624 -12.371416345978584 L 53.37669765852108 -11.976149091875495 A 2.25 2.25 0 0 0 51.6552 -9.38058A 52.5 52.5 0 0 1 52.0257 -7.04086A 2.25 2.25 0 0 0 54.4651 -5.10431" stroke="#191919" stroke-width="0.35 px" style="stroke-width:0.35;stroke-miterlimit:4;stroke-dasharray:none;fill:none;fill-rule: evenodd "/>
<title>b'InvoluteGear'</title>
</g>
</svg>