<?xml version="1.0"?>
<!DOCTYPE svg PUBLIC "-//W3C//DTD SVG 1.1//EN" "http://www.w3.org/Graphics/SVG/1.1/DTD/svg11.dtd">
<svg width="783.3444292179272mm" height="783.2275127396933mm" viewBox="0 0 783.3444292179272 783.2275127396933" xmlns="http://www.w3.org/2000/svg" version="1.1">
<g id="InvoluteGear" transform="translate(391.672215,391.613756) scale(1,-1)">
<path id="InvoluteGear_w0000"  d="M 371.9405623168476 -6.649669422401273 C 372.91870914670955 -6.364402905161891 373.9363743381256 -6.052935472713689 374.99248554989856 -5.712970423278309 C 377.73987819621317 -4.828561322226218 380.7466646573674 -3.7516481590411956 383.9923672636898 -2.442511456063606 A 384 384 0 0 1 383.992 2.44251C 380.7466646573674 3.7516481590411956 377.73987819621317 4.828561322226218 374.99248554989856 5.712970423278309 C 373.9363743381256 6.052935472713689 372.91870914670955 6.364402905161891 371.9405653400991 6.649668189862741 A 2.25 2.25 0 0 0 370.394 8.85876A 370.5 370.5 0 0 1 370.375 9.61488A 2.25 2.25 0 0 0 371.81 11.8983C 372.77238111181174 12.23197188590541 373.7732558951972 12.593778562569536 374.8111084185496 12.98596380737267 C 377.51100168443395 14.006219737950689 380.4603707827405 15.231670147382317 383.6367836466124 16.70096441130628 A 384 384 0 0 1 383.393 21.5799C 380.086362332391 22.72563927702356 377.02963385328724 23.651337818157543 374.24157227754625 24.397701309309085 C 373.16982803622824 24.684600956698187 372.1379025127931 24.94495478781792 371.1467553152293 25.18110902095236 A 2.25 2.25 0 0 0 369.492 27.3104A 370.5 370.5 0 0 1 369.436 28.0646A 2.25 2.25 0 0 0 370.754 30.4167C 371.6992822026501 30.797936067568497 372.6808782455936 31.209182480043317 373.69789181562606 31.652612885902073 C 376.3435733410202 32.80617912900888 379.22819248019164 34.17712012188466 382.3274185387511 35.802919049709715 A 384 384 0 0 1 381.841 40.6637C 378.4811054234299 41.643130875062546 375.3820344350003 42.41531336171717 372.5602354902032 43.021775665730516 C 371.47552274439056 43.2548966333454 370.4319024183799 43.463489582490595 369.4302159779632 43.64994564742608 A 2.25 2.25 0 0 0 367.671 45.6941A 370.5 370.5 0 0 1 367.577 46.4446A 2.25 2.25 0 0 0 368.777 48.8595C 369.7020803121927 49.28733172757842 370.66195721226904 49.746995452485656 371.6556033730036 50.240568581543215 C 374.2404955767761 51.52457718974007 377.05319313912565 53.03760039074329 380.06752722807033 54.815861990170475 A 384 384 0 0 1 379.339 59.6463C 375.93488485208735 60.45709108836466 372.8011761331056 61.073837753211365 369.95265525603793 61.53889110924324 C 368.85767077252626 61.71765382162739 367.80495024850563 61.873967293860105 366.7952149155548 62.010261631440784 A 2.25 2.25 0 0 0 364.937 63.9642A 370.5 370.5 0 0 1 364.805 64.709A 2.25 2.25 0 0 0 365.884 67.1808C 366.7857407990227 67.65419131509537 367.721512151018 68.16112955598929 368.68932054153805 68.70361830767837 C 371.2069969743891 70.11487703325412 373.9407801506021 71.7662208283119 376.8627281604419 73.69252406081831 A 384 384 0 0 1 375.895 78.4807C 372.4540309238919 79.12074544747153 369.2934753679873 79.58052296112558 366.42531443036836 79.90301117325808 C 365.3227805131119 80.02697119814225 364.26357702017293 80.13061657354143 363.2483031558218 80.21641033456925 A 2.25 2.25 0 0 0 361.295 82.0753A 370.5 370.5 0 0 1 361.126 82.8127A 2.25 2.25 0 0 0 362.08 85.335C 362.9575141426744 85.8528519232628 363.8668534715655 86.40580435180226 364.8064179677222 86.99586001361048 C 367.2506192893493 88.53086024501238 369.898691463709 90.31641913326092 372.7209889713029 92.38597490549805 A 384 384 0 0 1 371.516 97.1199C 368.0471975901598 97.58769316696083 364.8676528364282 97.88935845007973 361.9869825382627 98.06847976180553 C 360.87964026029726 98.13732891503648 359.8165871452138 98.1880485148683 358.7982988802579 98.2231284025355 A 2.25 2.25 0 0 0 356.755 99.9823A 370.5 370.5 0 0 1 356.55 100.71A 2.25 2.25 0 0 0 357.376 103.277C 358.22691791779926 103.83806881438862 359.107564462737 104.43566070371189 360.01654915915316 105.07181630429353 C 362.381198699957 106.72674178908838 364.93697634780193 108.64207658979498 367.65260667685897 110.84973966002939 A 384 384 0 0 1 366.213 115.518C 362.72534093290886 115.81202250510978 359.53471183058394 115.95482557026867 356.64869397211766 115.99013465778411 C 355.53929636082165 116.00370176951886 354.4750365411347 116.00136949686664 353.4562655006443 115.98564829704522 A 2.25 2.25 0 0 0 351.327 117.641A 370.5 370.5 0 0 1 351.086 118.358A 2.25 2.25 0 0 0 351.784 120.963C 352.6057131319752 121.56512790549196 353.4554774668923 122.20587354800432 354.331622484391 122.88654750430231 C 356.61084135303395 124.65728383698128 359.06797040843776 126.69763272604708 361.6701820740792 129.03791449604202 A 384 384 0 0 1 359.999 133.628C 356.5016919263122 133.74842490771917 353.3079108820648 133.73201072399772 350.4237205584211 133.62341980334787 C 349.3150257510552 133.58167114360896 348.25220514436364 133.52629279687002 347.23548415366514 133.45980959493977 A 2.25 2.25 0 0 0 345.027 135.007A 370.5 370.5 0 0 1 344.75 135.711A 2.25 2.25 0 0 0 345.317 138.347C 346.10787498598893 138.98995693455865 346.92464446285805 139.67226333563556 347.7657715668785 140.39576338494606 C 349.9538932661345 142.27790823598508 352.3062649191148 144.43819858459014 354.78858841312984 146.90528074512554 A 384 384 0 0 1 352.891 151.407C 349.3917235424118 151.35230765231788 346.20273079913693 151.17671702796304 343.32753856189964 150.92449607328643 C 342.22230294844326 150.82753543582 341.1635638942356 150.71924869428986 340.1514206819087 150.60216877796606 A 2.25 2.25 0 0 0 337.868 152.037A 370.5 370.5 0 0 1 337.557 152.727A 2.25 2.25 0 0 0 337.992 155.388C 338.7495581292847 156.0692350311289 339.53130213049457 156.7914058695516 340.3353201465264 157.5559332767558 C 342.4269046610858 159.54480733750037 344.6686705450686 161.81966832345802 347.02493442013093 164.40741731956405 A 384 384 0 0 1 344.905 168.809C 341.413112282872 168.5799047126971 338.23683617899394 168.24557419366752 335.3777902090864 167.85035026599792 C 334.2787615794179 167.6984187102261 333.22673626980014 167.53749279180605 332.22168718334615 167.370107240208 A 2.25 2.25 0 0 0 329.87 168.689A 370.5 370.5 0 0 1 329.525 169.362A 2.25 2.25 0 0 0 329.826 172.042C 330.54905649696065 172.76050041880669 331.2938314837508 173.52074026408408 332.05874149632336 174.32439429358712 C 334.0485888175285 176.41505290975095 336.17417554930876 178.79882887021813 338.39852176216687 181.50081115015908 A 384 384 0 0 1 336.062 185.791C 332.58569423241113 185.3883855681475 329.43003149078515 184.89614635279122 326.5942398269658 184.35890204108526 C 325.50415053942396 184.15237729279423 324.4614544750752 183.93921228467335 323.46599822488065 183.721937244656 A 2.25 2.25 0 0 0 321.051 184.922A 370.5 370.5 0 0 1 320.673 185.577A 2.25 2.25 0 0 0 320.841 188.269C 321.5267578281634 189.02225598192655 322.23271217256837 189.81867475801823 322.9566124948695 190.6594573992773 C 324.8397755487552 192.8467028641319 326.84389858480563 195.333467356478 328.9307970603016 198.14296536657588 A 384 384 0 0 1 326.384 202.311C 322.93141574316974 201.73596168688184 319.8042118385844 201.0870375594466 316.9987247057431 200.40910853771243 C 315.9202848940535 200.14850404996707 314.88951038167903 199.88362991394223 313.9061218288283 199.61700556548936 A 2.25 2.25 0 0 0 311.435 200.696A 370.5 370.5 0 0 1 311.024 201.331A 2.25 2.25 0 0 0 311.058 204.027C 311.7050929789564 204.8140724339213 312.37047156724435 205.64469011826446 313.0515624690135 206.5205110531578 C 314.8233594155126 208.79890552985051 316.70103619019176 211.3824760657276 318.64529856989924 214.29250495125868 A 384 384 0 0 1 315.893 218.329C 312.47427887262097 217.5819904189097 309.38330852671214 216.77799470702212 306.61510080789975 215.96106641362383 C 305.55099164335553 215.64703009024197 304.5347013508042 215.33110534514952 303.5658253541844 215.0157945584013 A 2.25 2.25 0 0 0 301.044 215.97A 370.5 370.5 0 0 1 300.602 216.584A 2.25 2.25 0 0 0 300.501 219.279C 301.1084801556774 220.09668883089861 301.73162875183937 220.95944037705604 302.3682169337806 221.86812217674336 C 304.024242806516 224.23200121761633 305.7708051195111 226.90595463359924 307.567597660812 229.9092796042437 A 384 384 0 0 1 304.618 233.803C 301.240281710674 232.88707604006876 298.1932295627415 231.93000760374795 295.46918345851174 230.97611105113984 C 294.4220504841593 230.60942363590172 293.42277106922734 230.2432337204357 292.4708164072243 229.88002040768902 A 2.25 2.25 0 0 0 289.904 230.707A 370.5 370.5 0 0 1 289.433 231.299A 2.25 2.25 0 0 0 289.197 233.985C 289.7632642074303 234.83211018053368 290.3426335658716 235.7248506522247 290.93313636946243 236.664134190578 C 292.4692740271874 239.10762081987778 294.08037964939626 241.8653092464605 295.7252352429265 244.95446356313093 A 384 384 0 0 1 292.585 248.697C 289.2573537443262 247.6131676960026 286.26179524611 246.505405958179 283.5886831642845 245.41691268348887 C 282.5611297176866 244.9984858190848 281.5813455464481 244.58294113907277 280.6486789283436 244.1727283058518 A 2.25 2.25 0 0 0 278.044 244.871A 370.5 370.5 0 0 1 277.544 245.438A 2.25 2.25 0 0 0 277.175 248.109C 277.6976511286391 248.98370190360657 278.2318008458479 249.90421180735635 278.7747501880777 250.87176187750387 C 280.187180550538 253.38878120246892 281.65882401953456 256.2233485917157 283.14765329512153 259.39065213004704 A 384 384 0 0 1 279.825 262.972C 276.555286420558 261.72365400257985 273.6186690024712 260.467953033475 271.00313672086673 259.24756920248905 C 269.99771746179516 258.7784431640322 269.0398644320768 258.31457682902277 268.1288046140363 257.8583843290649 A 2.25 2.25 0 0 0 265.493 258.426A 370.5 370.5 0 0 1 264.964 258.967A 2.25 2.25 0 0 0 264.463 261.617C 264.9416379345018 262.5162809133383 265.42924003011933 263.46227171648866 265.923286053375 264.4556828365067 C 267.208497596144 267.0399771505082 268.537020174389 269.94437632126875 269.86612166787046 273.18195466561764 A 384 384 0 0 1 266.369 276.593C 263.16565908010136 275.18345406756356 260.2952836357452 273.7829357376377 257.74383377972265 272.4336954168461 C 256.7630483388715 271.91503652558447 255.82950782422648 271.4040017803743 254.94231984450624 270.9029637801131 A 2.25 2.25 0 0 0 252.281 271.338A 370.5 370.5 0 0 1 251.727 271.853A 2.25 2.25 0 0 0 251.094 274.474C 251.52693808368375 275.3962030860886 251.96678030207275 276.36532290645044 252.41069473009756 277.3821252997707 C 253.56549221477925 280.02726963995707 254.7475909858183 282.99427979826953 255.91366034146532 286.294083818752 A 384 384 0 0 1 252.251 289.526C 249.1217604462231 287.9591047072373 246.32476318121476 286.41725092572716 243.84373905712815 284.9425085391566 C 242.8900258216381 284.3756062628151 241.9831187508765 283.8186736203004 241.1220082985814 283.2740357791492 A 2.25 2.25 0 0 0 238.442 283.576A 370.5 370.5 0 0 1 237.863 284.062A 2.25 2.25 0 0 0 237.1 286.649C 237.4869026336632 287.59144690594735 237.8778914577662 288.5812863589509 238.27057064934797 289.6189520946138 C 239.29208306744303 292.31837021538075 240.32481914747729 295.34061490650305 241.32495733314337 298.6944407703999 A 384 384 0 0 1 237.506 301.74C 234.45850586371404 300.0188436411516 231.7418405539552 298.3394876994959 229.3374103786926 296.742909689083 C 228.41314042993608 296.1291734360428 227.53512151693008 295.52772751852444 226.70222944832287 294.94084389197064 A 2.25 2.25 0 0 0 224.011 295.109A 370.5 370.5 0 0 1 223.408 295.566A 2.25 2.25 0 0 0 222.517 298.111C 222.85643732474708 299.0716930752699 223.1976006947424 300.07979126407355 223.5380683875394 301.13574054156356 C 224.42375609822477 303.88272126413665 225.30456194263917 306.95268671157527 226.13628245721083 310.35219627935294 A 384 384 0 0 1 222.17 313.204C 219.21235049384023 311.33268845815843 216.58277119733464 309.5200054998311 214.2609127631589 307.80556121007 C 213.36838398185853 307.14651682535776 212.5214361199684 306.50205292215185 211.71883313596393 305.8743825953617 A 2.25 2.25 0 0 0 209.022 305.908A 370.5 370.5 0 0 1 208.398 306.334A 2.25 2.25 0 0 0 207.381 308.832C 207.67191579890115 309.80839989322675 207.96240552889643 310.83225052689505 208.24981526657967 311.9038580899306 C 208.99747631065568 314.69157198741334 209.72416209733933 317.80162577335557 210.38539715256962 321.23836732859445 A 384 384 0 0 1 206.282 323.889C 203.4211986810684 321.8725111574089 200.8852429462693 319.9310077978545 198.65172875908485 318.1029596073811 C 197.7931601124197 317.4002455791777 196.97938894747702 316.71436592909066 196.20907044555338 316.0474693893936 A 2.25 2.25 0 0 0 193.514 315.947A 370.5 370.5 0 0 1 192.869 316.341A 2.25 2.25 0 0 0 191.729 318.785C 191.97108916914442 319.7748742149698 192.21018305590079 320.8119318395074 192.4438202925774 321.89653350284203 C 193.05159586688544 324.71804987924713 193.62235494047445 327.8604599199542 194.1114606018305 331.32588918164765 A 384 384 0 0 1 189.881 333.768C 187.12430971689287 331.61210807899545 184.68828232932768 329.5466112014733 182.5486652573211 327.60950392612034 C 181.72619128222473 326.86486731222107 180.94761997756507 326.13927712013174 180.21150109089112 325.4348123774031 A 2.25 2.25 0 0 0 177.525 325.2A 370.5 370.5 0 0 1 176.861 325.562A 2.25 2.25 0 0 0 175.601 327.946C 175.7929921643347 328.9463378149961 175.98009578277748 329.9940241417473 176.15937965946478 331.08892341475376 C 176.62575873816465 333.93722753580516 177.03917210167205 337.1041813047912 177.35493237541513 340.589682669774 A 384 384 0 0 1 173.008 342.818C 170.36220023505163 340.5272650503792 168.03215754263155 338.3429098055709 165.99175701096658 336.3015593992397 C 165.20742250733184 335.51685148359326 164.46598671389194 334.7533546810447 163.7658975500044 334.01307314563195 A 2.25 2.25 0 0 0 161.095 333.645A 370.5 370.5 0 0 1 160.413 333.973A 2.25 2.25 0 0 0 159.036 336.291C 159.17784608268173 337.2999889897203 159.31249426373506 338.35569930540106 159.43697905246714 339.458174095972 C 159.76080214368554 342.32618462883994 160.01584198635138 345.50980858004306 160.15747184268912 349.00671654273884 A 384 384 0 0 1 155.705 351.016C 153.17654348079063 348.5958175866378 150.95827833677558 346.29803462585386 149.02216710266381 344.15751620729407 C 148.27792204964817 343.334687897419 147.57546509363274 342.5351826577605 146.91314618450065 341.760924786201 A 2.25 2.25 0 0 0 144.263 341.26A 370.5 370.5 0 0 1 143.567 341.554A 2.25 2.25 0 0 0 142.075 343.8C 142.16695879526267 344.81505924610286 142.24881678233302 345.87616888852847 142.31819299431106 346.9834782706263 C 142.49865502282094 349.864064889236 142.59468727541167 353.05644403189496 142.56183460020574 356.556064728128 A 384 384 0 0 1 138.014 358.341C 135.61006570461007 355.7977059948677 133.50909306566265 353.3922079685921 131.68208460668995 351.15784320385706 C 130.97977931476007 350.29894018057826 130.31804761484247 349.4654141998075 129.69514558963021 348.6591049191637 A 2.25 2.25 0 0 0 127.074 348.027A 370.5 370.5 0 0 1 126.363 348.285A 2.25 2.25 0 0 0 124.762 350.455C 124.80262204814622 351.47286493539576 124.83148632937993 352.5367358188044 124.84558148440989 353.64612684683505 C 124.88223379317438 356.5321279589813 124.81901970437907 359.7253255355492 124.61176617455632 363.21895835686104 A 384 384 0 0 1 119.981 364.775C 117.70643993807361 362.11502524574104 115.72798315320807 359.6077926010827 114.01461970027084 357.28513647302873 C 113.35600021103916 356.39229410459274 112.73663893648921 355.52681965963 112.15470242777734 354.6904635818174 A 2.25 2.25 0 0 0 109.568 353.928A 370.5 370.5 0 0 1 108.845 354.151A 2.25 2.25 0 0 0 107.138 356.238C 107.1280063184479 357.2568537036371 107.10380513269396 358.32084087738673 107.06258418799959 359.42955543045656 C 106.95533565360408 362.31379598265005 106.7330323836076 365.4998732008245 106.3518932640985 368.9788324255569 A 384 384 0 0 1 101.649 370.302C 99.51017741577073 367.5320694882296 97.65915524028414 364.92933560058793 96.06369648488763 362.5241625983122 C 95.4504002301779 361.5996006315251 94.87494921071205 360.70432942820656 94.33542500435236 359.8400058662127 A 2.25 2.25 0 0 0 91.7901 358.95A 370.5 370.5 0 0 1 91.0571 359.136A 2.25 2.25 0 0 0 89.2475 361.136C 89.18705348572242 362.15264564341135 89.10984700094177 363.2141038677441 89.01341243828641 364.31938550678257 C 88.76252969748572 367.19469482256335 88.38168992724387 370.3657305923748 87.82761278995264 373.8213669797429 A 384 384 0 0 1 83.0651 374.908C 81.06651691337423 372.03537109682543 79.3475312800459 369.3436067727376 77.87394378403995 366.86189653528794 C 77.30749551497367 365.90791357687516 76.77738541249558 364.9850714004732 76.28161485067368 364.0949291988578 A 2.25 2.25 0 0 0 73.7838 363.079A 370.5 370.5 0 0 1 73.0424 363.229A 2.25 2.25 0 0 0 71.1354 365.135C 71.02436758552693 366.14806904456475 70.89434774920561 367.2043593670891 70.74293932010644 368.30346018779113 C 70.34904610692385 371.1626897951603 69.81061666411136 374.3108004220497 69.0849790321029 377.7345227155169 A 384 384 0 0 1 64.2742 378.583C 62.42131227691587 375.61373415417967 60.838636854877336 372.8396315438755 59.49058418895862 370.2875539939259 C 58.972392185183494 369.3065217958336 58.48894093693323 368.35840297740367 58.03815658338051 367.4446551699328 A 2.25 2.25 0 0 0 55.5941 366.305A 370.5 370.5 0 0 1 54.8462 366.418A 2.25 2.25 0 0 0 52.8465 368.227C 52.685103916761506 369.23319065499436 52.50259397869876 370.2816869715372 52.29658810836681 371.3718744360859 C 51.76066370339293 374.207915839733 51.065983208440755 377.3252746246589 50.17058913120124 380.7085709111546 A 384 384 0 0 1 45.3235 381.316C 43.62091842290069 378.25826228591706 42.178487992620894 375.4087182455794 40.95932162811898 372.79261825002976 C 40.49067419660383 371.78697581287605 40.05508373855817 370.8159375251885 39.65040631420409 369.88085583288347 A 2.25 2.25 0 0 0 37.2662 368.621A 370.5 370.5 0 0 1 36.5136 368.696A 2.25 2.25 0 0 0 34.4262 370.404C 34.21485677848047 371.4003403762784 33.980310487139015 372.43843595979354 33.720219338626634 373.5169996903796 C 33.04359613437364 376.32280204452246 32.19439167244758 379.4016587423677 31.131467240733258 382.7361176142442 A 384 384 0 0 1 26.2601 383.101C 24.712076092680253 379.9623807784247 23.413476763481306 377.044479723518 22.326227740072824 374.3708613191557 C 21.90829001217351 373.3431088284905 21.52164329084372 372.35156522572726 21.164078887527086 371.3974744090088 A 2.25 2.25 0 0 0 18.8456 370.02A 370.5 370.5 0 0 1 18.0902 370.058A 2.25 2.25 0 0 0 15.9203 371.659C 15.659546115281561 372.64413033274894 15.37354658969728 373.66924431405107 15.060016790580194 374.7335028312995 C 14.24437697894407 377.50209046919747 13.24275980613897 380.53479055709994 12.014947617563742 383.8121220242172 A 384 384 0 0 1 7.13144 383.934C 5.741795647605447 380.72185292462547 4.590255942029854 377.7428492169231 3.6376273320962955 375.01835944036253 C 3.271438366855537 373.97105205081243 2.93469664691174 372.96146826659987 2.625134226077809 371.9907403455668 A 2.25 2.25 0 0 0 0.378178 370.5A 370.5 370.5 0 0 1 -0.378178 370.5A 2.25 2.25 0 0 0 -2.62513 371.991C -2.9346966469117755 372.96146826659987 -3.271438366855574 373.97105205081243 -3.637627332096331 375.01835944036253 C -4.590255942029891 377.7428492169231 -5.7417956476054846 380.72185292462547 -7.13144305848408 383.93390902457287 A 384 384 0 0 1 -12.0149 383.812C -13.242759806139006 380.53479055709994 -14.244376978944107 377.50209046919747 -15.06001679058023 374.7335028312995 C -15.37354658969732 373.66924431405107 -15.659546115281596 372.64413033274894 -15.920336932679309 371.6591786899629 A 2.25 2.25 0 0 0 -18.0902 370.058A 370.5 370.5 0 0 1 -18.8456 370.02A 2.25 2.25 0 0 0 -21.1641 371.397C -21.521643290843762 372.35156522572726 -21.90829001217355 373.3431088284905 -22.326227740072866 374.3708613191557 C -23.41347676348135 377.044479723518 -24.712076092680295 379.9623807784247 -26.260103843442977 383.10117583363933 A 384 384 0 0 1 -31.1315 382.736C -32.19439167244762 379.4016587423677 -33.04359613437368 376.32280204452246 -33.72021933862667 373.5169996903796 C -33.98031048713905 372.43843595979354 -34.21485677848051 371.4003403762784 -34.42622762537919 370.4036137567146 A 2.25 2.25 0 0 0 -36.5136 368.696A 370.5 370.5 0 0 1 -37.2662 368.621A 2.25 2.25 0 0 0 -39.6504 369.881C -40.05508373855821 370.8159375251885 -40.49067419660387 371.78697581287605 -40.959321628119014 372.79261825002976 C -42.17848799262093 375.4087182455794 -43.62091842290073 378.25826228591706 -45.32347787264851 381.31599275733635 A 384 384 0 0 1 -50.1706 380.709C -51.0659832084408 377.3252746246589 -51.760663703392964 374.207915839733 -52.29658810836685 371.3718744360859 C -52.502593978698805 370.2816869715372 -52.685103916761534 369.23319065499436 -52.846529291931745 368.2271670780753 A 2.25 2.25 0 0 0 -54.8462 366.418A 370.5 370.5 0 0 1 -55.5941 366.305A 2.25 2.25 0 0 0 -58.0382 367.445C -58.488940936933275 368.3584029774036 -58.97239218518354 369.3065217958336 -59.490584188958664 370.2875539939259 C -60.83863685487738 372.83963154387544 -62.42131227691591 375.6137341541796 -64.27417059459778 378.58279804206893 A 384 384 0 0 1 -69.085 377.735C -69.81061666411141 374.3108004220496 -70.3490461069239 371.16268979516025 -70.74293932010649 368.30346018779113 C -70.89434774920565 367.2043593670891 -71.02436758552697 366.1480690445647 -71.13544616005152 365.13524964341394 A 2.25 2.25 0 0 0 -73.0424 363.229A 370.5 370.5 0 0 1 -73.7838 363.079A 2.25 2.25 0 0 0 -76.2816 364.095C -76.77738541249553 364.9850714004732 -77.30749551497362 365.90791357687516 -77.87394378403991 366.86189653528794 C -79.34753128004586 369.3436067727376 -81.06651691337419 372.03537109682543 -83.06506760127205 374.9083868405474 A 384 384 0 0 1 -87.8276 373.821C -88.38168992724383 370.3657305923748 -88.76252969748568 367.19469482256335 -89.01341243828637 364.31938550678257 C -89.10984700094173 363.2141038677441 -89.18705348572237 362.15264564341135 -89.24750910076318 361.13554844664213 A 2.25 2.25 0 0 0 -91.0571 359.136A 370.5 370.5 0 0 1 -91.7901 358.95A 2.25 2.25 0 0 0 -94.3354 359.84C -94.87494921071209 360.70432942820656 -95.45040023017795 361.5996006315251 -96.06369648488769 362.5241625983122 C -97.65915524028418 364.92933560058793 -99.51017741577077 367.5320694882296 -101.64945176197853 370.3018943179668 A 384 384 0 0 1 -106.352 368.979C -106.73303238360764 365.4998732008245 -106.95533565360412 362.31379598265005 -107.06258418799962 359.42955543045656 C -107.103805132694 358.32084087738673 -107.12800631844794 357.2568537036371 -107.13768867182054 356.23800737513653 A 2.25 2.25 0 0 0 -108.845 354.151A 370.5 370.5 0 0 1 -109.568 353.928A 2.25 2.25 0 0 0 -112.155 354.69C -112.73663893648927 355.52681965962995 -113.3560002110392 356.3922941045927 -114.01461970027088 357.2851364730287 C -115.72798315320811 359.6077926010826 -117.70643993807366 362.11502524574104 -119.98111936949799 364.7747729405471 A 384 384 0 0 1 -124.612 363.219C -124.81901970437912 359.7253255355492 -124.88223379317442 356.5321279589812 -124.84558148440993 353.646126846835 C -124.83148632937997 352.53673581880435 -124.80262204814625 351.4728649353957 -124.76150706799456 350.45480248766825 A 2.25 2.25 0 0 0 -126.363 348.285A 370.5 370.5 0 0 1 -127.074 348.027A 2.25 2.25 0 0 0 -129.695 348.659C -130.31804761484253 349.4654141998075 -130.9797793147601 350.29894018057826 -131.68208460668998 351.15784320385706 C -133.50909306566268 353.3922079685921 -135.61006570461012 355.7977059948677 -138.0144950097811 358.34076400289786 A 384 384 0 0 1 -142.562 356.556C -142.59468727541173 353.05644403189496 -142.49865502282097 349.864064889236 -142.3181929943111 346.9834782706263 C -142.24881678233305 345.87616888852847 -142.16695879526273 344.81505924610286 -142.07514869990558 343.80031174280157 A 2.25 2.25 0 0 0 -143.567 341.554A 370.5 370.5 0 0 1 -144.263 341.26A 2.25 2.25 0 0 0 -146.913 341.761C -147.57546509363277 342.5351826577605 -148.27792204964817 343.334687897419 -149.02216710266384 344.15751620729407 C -150.9582783367756 346.29803462585386 -153.17654348079066 348.5958175866378 -155.70474486960856 351.0158634649943 A 384 384 0 0 1 -160.157 349.007C -160.0158419863514 345.50980858004306 -159.76080214368557 342.32618462883994 -159.43697905246717 339.458174095972 C -159.31249426373506 338.35569930540106 -159.17784608268175 337.2999889897203 -159.03556912648196 336.2910792530242 A 2.25 2.25 0 0 0 -160.413 333.973A 370.5 370.5 0 0 1 -161.095 333.645A 2.25 2.25 0 0 0 -163.766 334.013C -164.465986713892 334.75335468104464 -165.2074225073319 335.5168514835932 -165.9917570109666 336.3015593992397 C -168.03215754263158 338.3429098055709 -170.3622002350517 340.5272650503791 -173.00788820051505 342.81828218370083 A 384 384 0 0 1 -177.355 340.59C -177.0391721016721 337.10418130479115 -176.62575873816468 333.93722753580516 -176.1593796594648 331.08892341475376 C -175.98009578277754 329.9940241417472 -175.79299216433475 328.94633781499607 -175.60060207022295 327.94577415347646 A 2.25 2.25 0 0 0 -176.861 325.562A 370.5 370.5 0 0 1 -177.525 325.2A 2.25 2.25 0 0 0 -180.211 325.435C -180.94761997756513 326.1392771201317 -181.7261912822248 326.864867312221 -182.54866525732115 327.6095039261203 C -184.68828232932773 329.54661120147324 -187.12430971689292 331.61210807899545 -189.8809066618593 333.7684006377112 A 384 384 0 0 1 -194.111 331.326C -193.6223549404745 327.8604599199542 -193.0515958668855 324.7180498792471 -192.44382029257747 321.896533502842 C -192.21018305590084 320.81193183950734 -191.97108916914448 319.77487421496977 -191.729064249208 318.78514418754037 A 2.25 2.25 0 0 0 -192.869 316.341A 370.5 370.5 0 0 1 -193.514 315.947A 2.25 2.25 0 0 0 -196.209 316.047C -196.97938894747696 316.7143659290907 -197.79316011241968 317.40024557917775 -198.6517287590848 318.10295960738114 C -200.88524294626927 319.93100779785453 -203.42119868106835 321.87251115740895 -206.28185127119724 323.88871825846775 A 384 384 0 0 1 -210.385 321.238C -209.72416209733927 317.8016257733556 -208.99747631065566 314.6915719874134 -208.24981526657962 311.9038580899307 C -207.9624055288964 310.8322505268951 -207.6719157989011 309.8083998932268 -207.38085776522487 308.8319641246796 A 2.25 2.25 0 0 0 -208.398 306.334A 370.5 370.5 0 0 1 -209.022 305.908A 2.25 2.25 0 0 0 -211.719 305.874C -212.52143611996846 306.50205292215185 -213.36838398185859 307.1465168253577 -214.26091276315896 307.8055612100699 C -216.58277119733467 309.52000549983103 -219.2123504938403 311.3326884581584 -222.169946696062 313.20379749302907 A 384 384 0 0 1 -226.136 310.352C -225.30456194263922 306.9526867115752 -224.4237560982248 303.8827212641366 -223.53806838753945 301.1357405415635 C -223.1976006947424 300.0797912640735 -222.85643732474713 299.0716930752699 -222.5170697934626 298.1109791387749 A 2.25 2.25 0 0 0 -223.408 295.566A 370.5 370.5 0 0 1 -224.011 295.109A 2.25 2.25 0 0 0 -226.702 294.941C -227.53512151693 295.52772751852456 -228.413140429936 296.12917343604283 -229.3374103786925 296.7429096890831 C -231.74184055395511 298.339487699496 -234.45850586371395 300.01884364115165 -237.50569262786456 301.7402027379576 A 384 384 0 0 1 -241.325 298.694C -240.3248191474772 295.3406149065031 -239.29208306744295 292.3183702153808 -238.2705706493479 289.6189520946139 C -237.8778914577661 288.58128635895093 -237.4869026336631 287.59144690594746 -237.10006932592455 286.64884328772297 A 2.25 2.25 0 0 0 -237.863 284.062A 370.5 370.5 0 0 1 -238.442 283.576A 2.25 2.25 0 0 0 -241.122 283.274C -241.9831187508765 283.8186736203004 -242.8900258216381 284.3756062628151 -243.84373905712815 284.9425085391566 C -246.32476318121476 286.41725092572716 -249.1217604462231 287.9591047072373 -252.25096198588565 289.52643429604274 A 384 384 0 0 1 -255.914 286.294C -254.7475909858183 282.99427979826953 -253.56549221477925 280.02726963995707 -252.41069473009756 277.3821252997707 C -251.96678030207275 276.36532290645044 -251.52693808368375 275.3962030860886 -251.0936007280445 274.47405324724815 A 2.25 2.25 0 0 0 -251.727 271.853A 370.5 370.5 0 0 1 -252.281 271.338A 2.25 2.25 0 0 0 -254.942 270.903C -255.82950782422643 271.40400178037436 -256.76304833887144 271.9150365255845 -257.7438337797226 272.4336954168461 C -260.29528363574514 273.78293573763773 -263.16565908010136 275.1834540675636 -266.3690957072044 276.59285752005894 A 384 384 0 0 1 -269.866 273.182C -268.537020174389 269.9443763212688 -267.20849759614396 267.03997715050826 -265.92328605337497 264.4556828365067 C -265.4292400301193 263.4622717164887 -264.9416379345017 262.51628091333833 -264.4628738759055 261.61687746367727 A 2.25 2.25 0 0 0 -264.964 258.967A 370.5 370.5 0 0 1 -265.493 258.426A 2.25 2.25 0 0 0 -268.129 257.858C -269.03986443207685 258.3145768290227 -269.9977174617952 258.7784431640321 -271.0031367208668 259.247569202489 C -273.6186690024713 260.46795303347494 -276.55528642055805 261.7236540025798 -279.8249938869063 262.9716273197135 A 384 384 0 0 1 -283.148 259.391C -281.6588240195346 256.22334859171565 -280.1871805505381 253.38878120246886 -278.77475018807775 250.87176187750381 C -278.23180084584794 249.9042118073563 -277.69765112863917 248.98370190360652 -277.1746506499706 248.10928090181258 A 2.25 2.25 0 0 0 -277.544 245.438A 370.5 370.5 0 0 1 -278.044 244.871A 2.25 2.25 0 0 0 -280.649 244.173C -281.58134554644823 244.5829411390727 -282.5611297176867 244.99848581908472 -283.58868316428453 245.4169126834888 C -286.26179524611007 246.50540595817893 -289.25735374432634 247.6131676960025 -292.5852030419763 248.6966082194748 A 384 384 0 0 1 -295.725 244.954C -294.0803796493964 241.8653092464604 -292.46927402718745 239.1076208198777 -290.9331363694625 236.66413419057793 C -290.3426335658717 235.7248506522246 -289.76326420743044 234.8321101805336 -289.19732757028464 233.98484557499296 A 2.25 2.25 0 0 0 -289.433 231.299A 370.5 370.5 0 0 1 -289.904 230.707A 2.25 2.25 0 0 0 -292.471 229.88C -293.42277106922734 230.2432337204357 -294.4220504841593 230.60942363590172 -295.46918345851174 230.97611105113984 C -298.1932295627415 231.93000760374795 -301.240281710674 232.88707604006876 -304.61799928192863 233.80329016602906 A 384 384 0 0 1 -307.568 229.909C -305.7708051195111 226.90595463359924 -304.024242806516 224.23200121761633 -302.3682169337806 221.86812217674336 C -301.73162875183937 220.95944037705604 -301.1084801556774 220.09668883089861 -300.5010143677046 219.27868705491744 A 2.25 2.25 0 0 0 -300.602 216.584A 370.5 370.5 0 0 1 -301.044 215.97A 2.25 2.25 0 0 0 -303.566 215.016C -304.53470135080426 215.33110534514944 -305.55099164335553 215.64703009024188 -306.6151008078998 215.96106641362374 C -309.3833085267122 216.77799470702206 -312.474278872621 217.5819904189096 -315.89346717939765 218.32870029468012 A 384 384 0 0 1 -318.645 214.293C -316.7010361901918 211.3824760657275 -314.82335941551264 208.79890552985046 -313.05156246901356 206.52051105315772 C -312.37047156724435 205.64469011826438 -311.70509297895643 204.8140724339212 -311.057608295819 204.0273671688007 A 2.25 2.25 0 0 0 -311.024 201.331A 370.5 370.5 0 0 1 -311.435 200.696A 2.25 2.25 0 0 0 -313.906 199.617C -314.88951038167903 199.88362991394223 -315.9202848940535 200.14850404996707 -316.9987247057431 200.40910853771243 C -319.8042118385844 201.0870375594466 -322.93141574316974 201.73596168688184 -326.3835741446031 202.31131087405817 A 384 384 0 0 1 -328.931 198.143C -326.84389858480563 195.333467356478 -324.8397755487552 192.8467028641319 -322.9566124948695 190.6594573992773 C -322.23271217256837 189.81867475801823 -321.5267578281634 189.02225598192655 -320.8408639988028 188.26880310091082 A 2.25 2.25 0 0 0 -320.673 185.577A 370.5 370.5 0 0 1 -321.051 184.922A 2.25 2.25 0 0 0 -323.466 183.722C -324.4614544750752 183.9392122846733 -325.504150539424 184.15237729279417 -326.59423982696586 184.35890204108517 C -329.43003149078515 184.89614635279116 -332.5856942324112 185.3883855681474 -336.0622401187858 185.79094365799702 A 384 384 0 0 1 -338.399 181.501C -336.1741755493088 178.79882887021805 -334.0485888175285 176.4150529097509 -332.0587414963234 174.32439429358703 C -331.29383148375086 173.52074026408403 -330.54905649696065 172.76050041880663 -329.8264587615077 172.04217312447352 A 2.25 2.25 0 0 0 -329.525 169.362A 370.5 370.5 0 0 1 -329.87 168.689A 2.25 2.25 0 0 0 -332.222 167.37C -333.2267362698001 167.53749279180607 -334.27876157941785 167.69841871022612 -335.37779020908636 167.85035026599797 C -338.2368361789939 168.24557419366755 -341.41311228287196 168.57990471269716 -344.90540241334213 168.8086708823807 A 384 384 0 0 1 -347.025 164.407C -344.66867054506855 161.81966832345807 -342.42690466108576 159.5448073375004 -340.3353201465263 157.55593327675587 C -339.5313021304945 156.79140586955162 -338.74955812928465 156.06923503112893 -337.99205297956354 155.38781919831334 A 2.25 2.25 0 0 0 -337.557 152.727A 370.5 370.5 0 0 1 -337.868 152.037A 2.25 2.25 0 0 0 -340.151 150.602C -341.1635638942356 150.71924869428983 -342.2223029484433 150.82753543581998 -343.3275385618997 150.9244960732864 C -346.20273079913693 151.176717027963 -349.39172354241185 151.35230765231785 -352.8910755334606 151.40671315309262 A 384 384 0 0 1 -354.789 146.905C -352.3062649191149 144.4381985845901 -349.9538932661345 142.27790823598505 -347.7657715668786 140.39576338494604 C -346.9246444628581 139.67226333563553 -346.10787498598893 138.98995693455862 -345.3173456991561 138.34714667038628 A 2.25 2.25 0 0 0 -344.75 135.711A 370.5 370.5 0 0 1 -345.027 135.007A 2.25 2.25 0 0 0 -347.235 133.46C -348.25220514436364 133.52629279686988 -349.3150257510552 133.58167114360882 -350.4237205584211 133.62341980334773 C -353.3079108820648 133.73201072399758 -356.5016919263122 133.74842490771906 -359.99940583752425 133.62833447893792 A 384 384 0 0 1 -361.67 129.038C -359.06797040843776 126.69763272604696 -356.61084135303395 124.65728383698114 -354.331622484391 122.88654750430217 C -353.4554774668923 122.20587354800419 -352.6057131319752 121.56512790549183 -351.7841250883951 120.96252133756204 A 2.25 2.25 0 0 0 -351.086 118.358A 370.5 370.5 0 0 1 -351.327 117.641A 2.25 2.25 0 0 0 -353.456 115.986C -354.4750365411347 116.00136949686662 -355.53929636082165 116.00370176951883 -356.64869397211766 115.9901346577841 C -359.53471183058394 115.95482557026865 -362.72534093290886 115.81202250510975 -366.2127208963936 115.51773471050033 A 384 384 0 0 1 -367.653 110.85C -364.93697634780193 108.64207658979495 -362.381198699957 106.72674178908836 -360.01654915915316 105.07181630429352 C -359.107564462737 104.43566070371186 -358.22691791779926 103.83806881438859 -357.37631371479955 103.27716411757721 A 2.25 2.25 0 0 0 -356.55 100.71A 370.5 370.5 0 0 1 -356.755 99.9823A 2.25 2.25 0 0 0 -358.798 98.2231C -359.8165871452138 98.18804851486821 -360.87964026029726 98.13732891503638 -361.9869825382627 98.06847976180545 C -364.8676528364282 97.88935845007964 -368.0471975901598 97.58769316696073 -371.515573429849 97.11993965234906 A 384 384 0 0 1 -372.721 92.386C -369.898691463709 90.31641913326082 -367.2506192893493 88.53086024501229 -364.8064179677222 86.9958600136104 C -363.8668534715655 86.40580435180216 -362.9575141426744 85.85285192326272 -362.08000851632676 85.33504359502338 A 2.25 2.25 0 0 0 -361.126 82.8127A 370.5 370.5 0 0 1 -361.295 82.0753A 2.25 2.25 0 0 0 -363.248 80.2164C -364.26357702017293 80.13061657354143 -365.3227805131119 80.02697119814225 -366.42531443036836 79.90301117325808 C -369.2934753679873 79.58052296112558 -372.4540309238919 79.12074544747153 -375.8947797109632 78.48068912179518 A 384 384 0 0 1 -376.863 73.6925C -373.9407801506021 71.7662208283119 -371.2069969743891 70.11487703325412 -368.68932054153805 68.70361830767837 C -367.721512151018 68.16112955598929 -366.7857407990227 67.65419131509537 -365.88351536657586 67.18076670851909 A 2.25 2.25 0 0 0 -364.805 64.709A 370.5 370.5 0 0 1 -364.937 63.9642A 2.25 2.25 0 0 0 -366.795 62.0103C -367.80495024850563 61.873967293860034 -368.85767077252626 61.71765382162731 -369.95265525603793 61.53889110924317 C -372.8011761331056 61.07383775321129 -375.93488485208735 60.45709108836459 -379.3394523429244 59.64632323249783 A 384 384 0 0 1 -380.068 54.8159C -377.05319313912565 53.03760039074322 -374.2404955767761 51.524577189739986 -371.6556033730036 50.240568581543144 C -370.66195721226904 49.74699545248558 -369.7020803121927 49.28733172757835 -368.77737814822837 48.85946785083085 A 2.25 2.25 0 0 0 -367.577 46.4446A 370.5 370.5 0 0 1 -367.671 45.6941A 2.25 2.25 0 0 0 -369.43 43.6499C -370.4319024183799 43.463489582490624 -371.47552274439056 43.25489663334543 -372.5602354902032 43.021775665730544 C -375.3820344350003 42.415313361717196 -378.4811054234299 41.643130875062575 -381.84102732681936 40.66366718564143 A 384 384 0 0 1 -382.327 35.8029C -379.22819248019164 34.17712012188469 -376.3435733410202 32.80617912900891 -373.69789181562606 31.6526128859021 C -372.6808782455936 31.209182480043346 -371.6992822026501 30.797936067568525 -370.7544022624459 30.41669665766257 A 2.25 2.25 0 0 0 -369.436 28.0646A 370.5 370.5 0 0 1 -369.492 27.3104A 2.25 2.25 0 0 0 -371.147 25.1811C -372.1379025127931 24.944954787817874 -373.1698280362283 24.684600956698137 -374.24157227754625 24.39770130930904 C -377.02963385328724 23.651337818157494 -380.086362332391 22.725639277023514 -383.39328535308465 21.579914855106303 A 384 384 0 0 1 -383.637 16.701C -380.4603707827405 15.231670147382271 -377.51100168443395 14.006219737950643 -374.8111084185496 12.985963807372624 C -373.77325589519717 12.593778562569486 -372.77238111181174 12.231971885905363 -371.8096725157763 11.89830476408288 A 2.25 2.25 0 0 0 -370.375 9.61488A 370.5 370.5 0 0 1 -370.394 8.85876A 2.25 2.25 0 0 0 -371.941 6.64967C -372.91870914670955 6.364402905161937 -373.9363743381256 6.052935472713735 -374.99248554989856 5.712970423278355 C -377.73987819621317 4.828561322226264 -380.7466646573674 3.7516481590412423 -383.9923672636898 2.442511456063653 A 384 384 0 0 1 -383.992 -2.44251C -380.7466646573674 -3.751648159041149 -377.73987819621317 -4.828561322226172 -374.99248554989856 -5.7129704232782625 C -373.9363743381256 -6.052935472713643 -372.91870914670955 -6.364402905161846 -371.9405653400991 -6.6496681898626955 A 2.25 2.25 0 0 0 -370.394 -8.85876A 370.5 370.5 0 0 1 -370.375 -9.61488A 2.25 2.25 0 0 0 -371.81 -11.8983C -372.77238111181174 -12.231971885905434 -373.7732558951972 -12.593778562569561 -374.8111084185496 -12.985963807372695 C -377.51100168443395 -14.006219737950714 -380.4603707827405 -15.231670147382346 -383.6367836466124 -16.70096441130631 A 384 384 0 0 1 -383.393 -21.5799C -380.086362332391 -22.72563927702359 -377.02963385328724 -23.651337818157565 -374.24157227754625 -24.39770130930911 C -373.16982803622824 -24.684600956698212 -372.1379025127931 -24.944954787817945 -371.1467553152293 -25.181109020952384 A 2.25 2.25 0 0 0 -369.492 -27.3104A 370.5 370.5 0 0 1 -369.436 -28.0646A 2.25 2.25 0 0 0 -370.754 -30.4167C -371.6992822026501 -30.797936067568596 -372.6808782455936 -31.209182480043417 -373.69789181562606 -31.652612885902172 C -376.3435733410202 -32.80617912900898 -379.22819248019164 -34.17712012188476 -382.3274185387511 -35.802919049709814 A 384 384 0 0 1 -381.841 -40.6637C -378.4811054234299 -41.643130875062646 -375.3820344350003 -42.41531336171727 -372.5602354902032 -43.021775665730615 C -371.47552274439056 -43.2548966333455 -370.4319024183799 -43.463489582490695 -369.4302159779632 -43.64994564742618 A 2.25 2.25 0 0 0 -367.671 -45.6941A 370.5 370.5 0 0 1 -367.577 -46.4446A 2.25 2.25 0 0 0 -368.777 -48.8595C -369.7020803121927 -49.28733172757843 -370.66195721226904 -49.74699545248566 -371.6556033730036 -50.24056858154323 C -374.2404955767761 -51.52457718974007 -377.05319313912565 -53.03760039074331 -380.06752722807033 -54.81586199017048 A 384 384 0 0 1 -379.339 -59.6463C -375.93488485208735 -60.45709108836468 -372.8011761331056 -61.07383775321138 -369.95265525603793 -61.53889110924325 C -368.85767077252626 -61.717653821627394 -367.80495024850563 -61.87396729386012 -366.7952149155548 -62.01026163144079 A 2.25 2.25 0 0 0 -364.937 -63.9642A 370.5 370.5 0 0 1 -364.805 -64.709A 2.25 2.25 0 0 0 -365.884 -67.1808C -366.7857407990227 -67.65419131509546 -367.721512151018 -68.16112955598938 -368.68932054153805 -68.70361830767845 C -371.2069969743891 -70.1148770332542 -373.9407801506021 -71.76622082831199 -376.8627281604419 -73.6925240608184 A 384 384 0 0 1 -375.895 -78.4807C -372.4540309238919 -79.12074544747162 -369.2934753679873 -79.58052296112567 -366.42531443036836 -79.90301117325816 C -365.3227805131119 -80.02697119814233 -364.26357702017293 -80.13061657354152 -363.2483031558218 -80.21641033456933 A 2.25 2.25 0 0 0 -361.295 -82.0753A 370.5 370.5 0 0 1 -361.126 -82.8127A 2.25 2.25 0 0 0 -362.08 -85.335C -362.9575141426744 -85.85285192326279 -363.8668534715655 -86.40580435180225 -364.8064179677222 -86.99586001361048 C -367.2506192893493 -88.53086024501236 -369.898691463709 -90.31641913326091 -372.7209889713029 -92.38597490549803 A 384 384 0 0 1 -371.516 -97.1199C -368.0471975901598 -97.58769316696082 -364.8676528364282 -97.88935845007971 -361.9869825382627 -98.06847976180553 C -360.87964026029726 -98.13732891503646 -359.8165871452138 -98.18804851486829 -358.7982988802579 -98.2231284025355 A 2.25 2.25 0 0 0 -356.755 -99.9823A 370.5 370.5 0 0 1 -356.55 -100.71A 2.25 2.25 0 0 0 -357.376 -103.277C -358.22691791779926 -103.83806881438868 -359.10756446273695 -104.43566070371195 -360.01654915915316 -105.0718163042936 C -362.381198699957 -106.72674178908845 -364.9369763478019 -108.64207658979504 -367.65260667685897 -110.84973966002944 A 384 384 0 0 1 -366.213 -115.518C -362.7253409329088 -115.81202250510984 -359.53471183058394 -115.95482557026874 -356.64869397211766 -115.99013465778418 C -355.5392963608216 -116.00370176951891 -354.4750365411347 -116.0013694968667 -353.4562655006443 -115.98564829704527 A 2.25 2.25 0 0 0 -351.327 -117.641A 370.5 370.5 0 0 1 -351.086 -118.358A 2.25 2.25 0 0 0 -351.784 -120.963C -352.6057131319752 -121.56512790549192 -353.4554774668923 -122.20587354800428 -354.331622484391 -122.88654750430226 C -356.61084135303395 -124.65728383698122 -359.06797040843776 -126.69763272604705 -361.6701820740792 -129.03791449604196 A 384 384 0 0 1 -359.999 -133.628C -356.5016919263122 -133.74842490771914 -353.3079108820648 -133.73201072399766 -350.4237205584211 -133.62341980334782 C -349.3150257510552 -133.5816711436089 -348.25220514436364 -133.52629279686997 -347.23548415366514 -133.45980959493974 A 2.25 2.25 0 0 0 -345.027 -135.007A 370.5 370.5 0 0 1 -344.75 -135.711A 2.25 2.25 0 0 0 -345.317 -138.347C -346.10787498598893 -138.9899569345587 -346.92464446285805 -139.67226333563562 -347.7657715668785 -140.39576338494612 C -349.9538932661345 -142.27790823598514 -352.3062649191148 -144.4381985845902 -354.78858841312984 -146.9052807451256 A 384 384 0 0 1 -352.891 -151.407C -349.3917235424118 -151.35230765231793 -346.20273079913693 -151.1767170279631 -343.32753856189964 -150.9244960732865 C -342.22230294844326 -150.82753543582007 -341.1635638942356 -150.71924869428992 -340.1514206819087 -150.6021687779661 A 2.25 2.25 0 0 0 -337.868 -152.037A 370.5 370.5 0 0 1 -337.557 -152.727A 2.25 2.25 0 0 0 -337.992 -155.388C -338.7495581292847 -156.06923503112884 -339.53130213049457 -156.79140586955154 -340.3353201465264 -157.55593327675578 C -342.4269046610858 -159.54480733750032 -344.6686705450686 -161.819668323458 -347.02493442013093 -164.407417319564 A 384 384 0 0 1 -344.905 -168.809C -341.413112282872 -168.57990471269707 -338.23683617899394 -168.24557419366747 -335.3777902090864 -167.8503502659979 C -334.2787615794179 -167.69841871022604 -333.22673626980014 -167.537492791806 -332.22168718334615 -167.37010724020797 A 2.25 2.25 0 0 0 -329.87 -168.689A 370.5 370.5 0 0 1 -329.525 -169.362A 2.25 2.25 0 0 0 -329.826 -172.042C -330.54905649696065 -172.7605004188067 -331.2938314837508 -173.5207402640841 -332.05874149632336 -174.32439429358712 C -334.0485888175285 -176.41505290975098 -336.17417554930876 -178.79882887021813 -338.39852176216687 -181.5008111501591 A 384 384 0 0 1 -336.062 -185.791C -332.58569423241113 -185.3883855681475 -329.43003149078515 -184.89614635279125 -326.5942398269658 -184.35890204108526 C -325.50415053942396 -184.15237729279426 -324.4614544750752 -183.93921228467337 -323.46599822488065 -183.721937244656 A 2.25 2.25 0 0 0 -321.051 -184.922A 370.5 370.5 0 0 1 -320.673 -185.577A 2.25 2.25 0 0 0 -320.841 -188.269C -321.52675782816334 -189.02225598192663 -322.2327121725683 -189.81867475801832 -322.9566124948695 -190.6594573992774 C -324.83977554875514 -192.846702864132 -326.84389858480563 -195.33346735647808 -328.9307970603016 -198.14296536657596 A 384 384 0 0 1 -326.384 -202.311C -322.93141574316974 -201.73596168688192 -319.80421183858437 -201.08703755944669 -316.9987247057431 -200.4091085377125 C -315.92028489405345 -200.14850404996716 -314.889510381679 -199.88362991394231 -313.90612182882825 -199.61700556548945 A 2.25 2.25 0 0 0 -311.435 -200.696A 370.5 370.5 0 0 1 -311.024 -201.331A 2.25 2.25 0 0 0 -311.058 -204.027C -311.7050929789564 -204.8140724339213 -312.37047156724435 -205.64469011826446 -313.0515624690135 -206.5205110531578 C -314.8233594155126 -208.79890552985051 -316.70103619019176 -211.3824760657276 -318.64529856989924 -214.29250495125868 A 384 384 0 0 1 -315.893 -218.329C -312.47427887262097 -217.5819904189097 -309.38330852671214 -216.77799470702212 -306.61510080789975 -215.96106641362383 C -305.55099164335553 -215.64703009024197 -304.5347013508042 -215.33110534514952 -303.5658253541844 -215.0157945584013 A 2.25 2.25 0 0 0 -301.044 -215.97A 370.5 370.5 0 0 1 -300.602 -216.584A 2.25 2.25 0 0 0 -300.501 -219.279C -301.10848015567734 -220.09668883089867 -301.7316287518393 -220.9594403770561 -302.36821693378056 -221.8681221767434 C -304.02424280651593 -224.23200121761639 -305.770805119511 -226.90595463359926 -307.56759766081194 -229.90927960424372 A 384 384 0 0 1 -304.618 -233.803C -301.2402817106739 -232.8870760400688 -298.19322956274146 -231.930007603748 -295.4691834585117 -230.9761110511399 C -294.42205048415923 -230.60942363590178 -293.4227710692273 -230.24323372043577 -292.47081640722416 -229.88002040768907 A 2.25 2.25 0 0 0 -289.904 -230.707A 370.5 370.5 0 0 1 -289.433 -231.299A 2.25 2.25 0 0 0 -289.197 -233.985C -289.7632642074304 -234.83211018053365 -290.34263356587167 -235.72485065222463 -290.9331363694625 -236.66413419057798 C -292.46927402718745 -239.10762081987772 -294.0803796493963 -241.86530924646047 -295.7252352429265 -244.9544635631309 A 384 384 0 0 1 -292.585 -248.697C -289.2573537443263 -247.61316769600256 -286.26179524611007 -246.50540595817895 -283.58868316428453 -245.41691268348885 C -282.56112971768664 -244.99848581908475 -281.5813455464482 -244.58294113907274 -280.64867892834366 -244.17272830585176 A 2.25 2.25 0 0 0 -278.044 -244.871A 370.5 370.5 0 0 1 -277.544 -245.438A 2.25 2.25 0 0 0 -277.175 -248.109C -277.6976511286391 -248.98370190360657 -278.2318008458479 -249.90421180735635 -278.7747501880777 -250.87176187750387 C -280.187180550538 -253.38878120246892 -281.65882401953456 -256.2233485917157 -283.14765329512153 -259.39065213004704 A 384 384 0 0 1 -279.825 -262.972C -276.555286420558 -261.72365400257985 -273.6186690024712 -260.467953033475 -271.00313672086673 -259.24756920248905 C -269.99771746179516 -258.7784431640322 -269.0398644320768 -258.31457682902277 -268.1288046140363 -257.8583843290649 A 2.25 2.25 0 0 0 -265.493 -258.426A 370.5 370.5 0 0 1 -264.964 -258.967A 2.25 2.25 0 0 0 -264.463 -261.617C -264.94163793450184 -262.5162809133383 -265.4292400301194 -263.46227171648866 -265.9232860533751 -264.4556828365067 C -267.20849759614407 -267.0399771505082 -268.53702017438906 -269.94437632126875 -269.8661216678705 -273.18195466561764 A 384 384 0 0 1 -266.369 -276.593C -263.1656590801014 -275.18345406756356 -260.29528363574525 -273.7829357376377 -257.7438337797227 -272.4336954168461 C -256.76304833887156 -271.91503652558447 -255.82950782422654 -271.4040017803743 -254.9423198445063 -270.9029637801131 A 2.25 2.25 0 0 0 -252.281 -271.338A 370.5 370.5 0 0 1 -251.727 -271.853A 2.25 2.25 0 0 0 -251.094 -274.474C -251.52693808368372 -275.3962030860886 -251.96678030207272 -276.36532290645044 -252.41069473009753 -277.3821252997707 C -253.5654922147792 -280.02726963995707 -254.74759098581828 -282.99427979826953 -255.91366034146526 -286.294083818752 A 384 384 0 0 1 -252.251 -289.526C -249.12176044622308 -287.9591047072373 -246.3247631812147 -286.41725092572716 -243.84373905712812 -284.9425085391566 C -242.89002582163806 -284.3756062628151 -241.98311875087649 -283.8186736203004 -241.12200829858133 -283.2740357791492 A 2.25 2.25 0 0 0 -238.442 -283.576A 370.5 370.5 0 0 1 -237.863 -284.062A 2.25 2.25 0 0 0 -237.1 -286.649C -237.48690263366325 -287.59144690594735 -237.87789145776625 -288.5812863589509 -238.270570649348 -289.6189520946138 C -239.29208306744306 -292.31837021538075 -240.32481914747734 -295.34061490650305 -241.32495733314343 -298.6944407703999 A 384 384 0 0 1 -237.506 -301.74C -234.4585058637141 -300.0188436411516 -231.74184055395523 -298.3394876994959 -229.33741037869262 -296.742909689083 C -228.41314042993613 -296.1291734360428 -227.53512151693013 -295.52772751852444 -226.7022294483229 -294.94084389197064 A 2.25 2.25 0 0 0 -224.011 -295.109A 370.5 370.5 0 0 1 -223.408 -295.566A 2.25 2.25 0 0 0 -222.517 -298.111C -222.85643732474708 -299.0716930752699 -223.1976006947424 -300.07979126407355 -223.5380683875394 -301.13574054156356 C -224.42375609822477 -303.88272126413665 -225.30456194263917 -306.95268671157527 -226.13628245721083 -310.35219627935294 A 384 384 0 0 1 -222.17 -313.204C -219.21235049384023 -311.33268845815843 -216.58277119733464 -309.5200054998311 -214.2609127631589 -307.80556121007 C -213.36838398185853 -307.14651682535776 -212.5214361199684 -306.50205292215185 -211.71883313596393 -305.8743825953617 A 2.25 2.25 0 0 0 -209.022 -305.908A 370.5 370.5 0 0 1 -208.398 -306.334A 2.25 2.25 0 0 0 -207.381 -308.832C -207.67191579890107 -309.8083998932268 -207.96240552889634 -310.8322505268951 -208.2498152665796 -311.9038580899307 C -208.9974763106556 -314.6915719874134 -209.72416209733925 -317.8016257733556 -210.38539715256954 -321.23836732859445 A 384 384 0 0 1 -206.282 -323.889C -203.42119868106832 -321.87251115740895 -200.88524294626922 -319.93100779785453 -198.65172875908476 -318.10295960738114 C -197.79316011241963 -317.40024557917775 -196.97938894747693 -316.7143659290907 -196.2090704455533 -316.0474693893936 A 2.25 2.25 0 0 0 -193.514 -315.947A 370.5 370.5 0 0 1 -192.869 -316.341A 2.25 2.25 0 0 0 -191.729 -318.785C -191.97108916914434 -319.7748742149699 -192.2101830559007 -320.81193183950745 -192.44382029257733 -321.8965335028421 C -193.05159586688535 -324.7180498792472 -193.62235494047437 -327.8604599199543 -194.1114606018304 -331.3258891816477 A 384 384 0 0 1 -189.881 -333.768C -187.12430971689278 -331.6121080789955 -184.6882823293276 -329.54661120147335 -182.548665257321 -327.6095039261204 C -181.72619128222465 -326.8648673122211 -180.94761997756498 -326.1392771201318 -180.21150109089103 -325.43481237740315 A 2.25 2.25 0 0 0 -177.525 -325.2A 370.5 370.5 0 0 1 -176.861 -325.562A 2.25 2.25 0 0 0 -175.601 -327.946C -175.7929921643348 -328.94633781499607 -175.9800957827776 -329.9940241417472 -176.15937965946486 -331.08892341475376 C -176.62575873816476 -333.93722753580516 -177.03917210167216 -337.10418130479115 -177.35493237541525 -340.589682669774 A 384 384 0 0 1 -173.008 -342.818C -170.36220023505174 -340.5272650503791 -168.03215754263167 -338.3429098055709 -165.99175701096667 -336.3015593992397 C -165.20742250733196 -335.5168514835932 -164.46598671389205 -334.75335468104464 -163.7658975500045 -334.0130731456319 A 2.25 2.25 0 0 0 -161.095 -333.645A 370.5 370.5 0 0 1 -160.413 -333.973A 2.25 2.25 0 0 0 -159.036 -336.291C -159.17784608268175 -337.2999889897203 -159.31249426373506 -338.35569930540106 -159.43697905246717 -339.458174095972 C -159.76080214368557 -342.32618462883994 -160.0158419863514 -345.50980858004306 -160.15747184268915 -349.00671654273884 A 384 384 0 0 1 -155.705 -351.016C -153.17654348079066 -348.5958175866378 -150.9582783367756 -346.29803462585386 -149.02216710266384 -344.15751620729407 C -148.27792204964817 -343.334687897419 -147.57546509363277 -342.5351826577605 -146.91314618450065 -341.760924786201 A 2.25 2.25 0 0 0 -144.263 -341.26A 370.5 370.5 0 0 1 -143.567 -341.554A 2.25 2.25 0 0 0 -142.075 -343.8C -142.16695879526264 -344.81505924610286 -142.24881678233297 -345.87616888852847 -142.31819299431103 -346.9834782706263 C -142.49865502282088 -349.864064889236 -142.59468727541164 -353.05644403189496 -142.5618346002057 -356.556064728128 A 384 384 0 0 1 -138.014 -358.341C -135.61006570461004 -355.7977059948677 -133.5090930656626 -353.3922079685921 -131.68208460668993 -351.15784320385706 C -130.97977931476 -350.29894018057826 -130.31804761484244 -349.4654141998075 -129.6951455896302 -348.6591049191637 A 2.25 2.25 0 0 0 -127.074 -348.027A 370.5 370.5 0 0 1 -126.363 -348.285A 2.25 2.25 0 0 0 -124.762 -350.455C -124.80262204814608 -351.47286493539576 -124.8314863293798 -352.5367358188044 -124.84558148440978 -353.64612684683505 C -124.88223379317425 -356.53212795898133 -124.81901970437895 -359.7253255355492 -124.6117661745562 -363.21895835686104 A 384 384 0 0 1 -119.981 -364.775C -117.70643993807349 -362.11502524574104 -115.72798315320794 -359.6077926010826 -114.01461970027073 -357.28513647302873 C -113.35600021103903 -356.39229410459274 -112.7366389364891 -355.52681965963 -112.15470242777721 -354.6904635818174 A 2.25 2.25 0 0 0 -109.568 -353.928A 370.5 370.5 0 0 1 -108.845 -354.151A 2.25 2.25 0 0 0 -107.138 -356.238C -107.12800631844773 -357.2568537036372 -107.10380513269378 -358.32084087738684 -107.06258418799939 -359.4295554304566 C -106.95533565360388 -362.3137959826501 -106.7330323836074 -365.49987320082454 -106.35189326409832 -368.978832425557 A 384 384 0 0 1 -101.649 -370.302C -99.51017741577053 -367.53206948822964 -97.65915524028394 -364.929335600588 -96.06369648488743 -362.5241625983123 C -95.45040023017772 -361.5996006315252 -94.87494921071185 -360.7043294282067 -94.33542500435217 -359.84000586621283 A 2.25 2.25 0 0 0 -91.7901 -358.95A 370.5 370.5 0 0 1 -91.0571 -359.136A 2.25 2.25 0 0 0 -89.2475 -361.136C -89.18705348572246 -362.1526456434113 -89.10984700094183 -363.21410386774403 -89.01341243828645 -364.31938550678257 C -88.76252969748577 -367.1946948225633 -88.38168992724393 -370.36573059237475 -87.82761278995268 -373.82136697974283 A 384 384 0 0 1 -83.0651 -374.908C -81.06651691337429 -372.0353710968254 -79.34753128004596 -369.34360677273753 -77.87394378404 -366.86189653528794 C -77.30749551497372 -365.9079135768751 -76.77738541249562 -364.98507140047315 -76.28161485067373 -364.09492919885776 A 2.25 2.25 0 0 0 -73.7838 -363.079A 370.5 370.5 0 0 1 -73.0424 -363.229A 2.25 2.25 0 0 0 -71.1354 -365.135C -71.02436758552699 -366.1480690445647 -70.89434774920565 -367.2043593670891 -70.7429393201065 -368.30346018779113 C -70.34904610692391 -371.16268979516025 -69.81061666411142 -374.3108004220496 -69.08497903210295 -377.73452271551685 A 384 384 0 0 1 -64.2742 -378.583C -62.42131227691593 -375.6137341541796 -60.83863685487739 -372.83963154387544 -59.49058418895868 -370.2875539939259 C -58.97239218518354 -369.3065217958336 -58.48894093693329 -368.3584029774036 -58.038156583380555 -367.4446551699328 A 2.25 2.25 0 0 0 -55.5941 -366.305A 370.5 370.5 0 0 1 -54.8462 -366.418A 2.25 2.25 0 0 0 -52.8465 -368.227C -52.68510391676146 -369.23319065499436 -52.50259397869873 -370.2816869715372 -52.29658810836677 -371.3718744360859 C -51.760663703392886 -374.207915839733 -51.06598320844072 -377.3252746246589 -50.170589131201204 -380.7085709111546 A 384 384 0 0 1 -45.3235 -381.316C -43.62091842290065 -378.25826228591706 -42.17848799262085 -375.4087182455794 -40.959321628118936 -372.79261825002976 C -40.49067419660379 -371.78697581287605 -40.05508373855814 -370.8159375251885 -39.650406314204055 -369.88085583288347 A 2.25 2.25 0 0 0 -37.2662 -368.621A 370.5 370.5 0 0 1 -36.5136 -368.696A 2.25 2.25 0 0 0 -34.4262 -370.404C -34.214856778480346 -371.4003403762784 -33.980310487138894 -372.43843595979354 -33.720219338626514 -373.5169996903796 C -33.043596134373516 -376.32280204452246 -32.19439167244746 -379.4016587423677 -31.131467240733134 -382.7361176142442 A 384 384 0 0 1 -26.2601 -383.101C -24.71207609268013 -379.9623807784247 -23.413476763481185 -377.044479723518 -22.326227740072703 -374.3708613191557 C -21.90829001217339 -373.3431088284905 -21.521643290843603 -372.35156522572726 -21.16407888752697 -371.3974744090088 A 2.25 2.25 0 0 0 -18.8456 -370.02A 370.5 370.5 0 0 1 -18.0902 -370.058A 2.25 2.25 0 0 0 -15.9203 -371.659C -15.659546115281689 -372.64413033274894 -15.373546589697412 -373.66924431405107 -15.060016790580322 -374.7335028312995 C -14.2443769789442 -377.50209046919747 -13.242759806139102 -380.53479055709994 -12.014947617563873 -383.8121220242172 A 384 384 0 0 1 -7.13144 -383.934C -5.741795647605579 -380.72185292462547 -4.590255942029984 -377.7428492169231 -3.6376273320964234 -375.01835944036253 C -3.2714383668556666 -373.97105205081243 -2.934696646911868 -372.96146826659987 -2.625134226077937 -371.9907403455668 A 2.25 2.25 0 0 0 -0.378178 -370.5A 370.5 370.5 0 0 1 0.378178 -370.5A 2.25 2.25 0 0 0 2.62513 -371.991C 2.934696646911731 -372.96146826659987 3.271438366855528 -373.97105205081243 3.6376273320962866 -375.01835944036253 C 4.590255942029845 -377.7428492169231 5.741795647605438 -380.72185292462547 7.131443058484034 -383.93390902457287 A 384 384 0 0 1 12.0149 -383.812C 13.24275980613896 -380.53479055709994 14.24437697894406 -377.50209046919747 15.060016790580185 -374.7335028312995 C 15.373546589697273 -373.66924431405107 15.65954611528155 -372.64413033274894 15.920336932679263 -371.6591786899629 A 2.25 2.25 0 0 0 18.0902 -370.058A 370.5 370.5 0 0 1 18.8456 -370.02A 2.25 2.25 0 0 0 21.1641 -371.397C 21.521643290843798 -372.35156522572726 21.908290012173588 -373.3431088284905 22.326227740072902 -374.3708613191557 C 23.413476763481384 -377.044479723518 24.712076092680334 -379.9623807784247 26.260103843443012 -383.10117583363933 A 384 384 0 0 1 31.1315 -382.736C 32.194391672447665 -379.4016587423677 33.043596134373715 -376.32280204452246 33.72021933862671 -373.5169996903796 C 33.98031048713909 -372.43843595979354 34.214856778480545 -371.4003403762784 34.42622762537923 -370.4036137567146 A 2.25 2.25 0 0 0 36.5136 -368.696A 370.5 370.5 0 0 1 37.2662 -368.621A 2.25 2.25 0 0 0 39.6504 -369.881C 40.055083738558324 -370.8159375251885 40.49067419660399 -371.78697581287605 40.959321628119135 -372.79261825002976 C 42.17848799262105 -375.4087182455794 43.62091842290085 -378.25826228591706 45.32347787264863 -381.31599275733635 A 384 384 0 0 1 50.1706 -380.709C 51.06598320844092 -377.3252746246589 51.760663703393085 -374.207915839733 52.29658810836697 -371.3718744360859 C 52.502593978698926 -370.2816869715372 52.68510391676166 -369.23319065499436 52.846529291931866 -368.2271670780753 A 2.25 2.25 0 0 0 54.8462 -366.418A 370.5 370.5 0 0 1 55.5941 -366.305A 2.25 2.25 0 0 0 58.0382 -367.445C 58.488940936933474 -368.3584029774036 58.97239218518372 -369.3065217958336 59.49058418895886 -370.2875539939259 C 60.83863685487758 -372.83963154387544 62.42131227691611 -375.6137341541796 64.27417059459798 -378.58279804206893 A 384 384 0 0 1 69.085 -377.735C 69.8106166641116 -374.3108004220496 70.34904610692409 -371.16268979516025 70.74293932010669 -368.30346018779113 C 70.89434774920583 -367.2043593670891 71.02436758552717 -366.1480690445647 71.1354461600517 -365.13524964341394 A 2.25 2.25 0 0 0 73.0424 -363.229A 370.5 370.5 0 0 1 73.7838 -363.079A 2.25 2.25 0 0 0 76.2816 -364.095C 76.77738541249548 -364.9850714004732 77.30749551497357 -365.90791357687516 77.87394378403985 -366.86189653528794 C 79.34753128004581 -369.3436067727376 81.06651691337413 -372.03537109682543 83.06506760127199 -374.9083868405474 A 384 384 0 0 1 87.8276 -373.821C 88.38168992724377 -370.3657305923748 88.76252969748563 -367.19469482256335 89.01341243828631 -364.31938550678257 C 89.10984700094167 -363.2141038677441 89.18705348572232 -362.15264564341135 89.24750910076314 -361.13554844664213 A 2.25 2.25 0 0 0 91.0571 -359.136A 370.5 370.5 0 0 1 91.7901 -358.95A 2.25 2.25 0 0 0 94.3354 -359.84C 94.87494921071205 -360.70432942820656 95.4504002301779 -361.5996006315251 96.06369648488763 -362.5241625983122 C 97.65915524028414 -364.92933560058793 99.51017741577073 -367.5320694882296 101.64945176197848 -370.3018943179668 A 384 384 0 0 1 106.352 -368.979C 106.7330323836076 -365.4998732008245 106.95533565360408 -362.31379598265005 107.06258418799959 -359.42955543045656 C 107.10380513269396 -358.32084087738673 107.1280063184479 -357.2568537036371 107.1376886718205 -356.23800737513653 A 2.25 2.25 0 0 0 108.845 -354.151A 370.5 370.5 0 0 1 109.568 -353.928A 2.25 2.25 0 0 0 112.155 -354.69C 112.7366389364893 -355.52681965962995 113.35600021103924 -356.3922941045927 114.01461970027093 -357.2851364730287 C 115.72798315320816 -359.6077926010826 117.7064399380737 -362.11502524574104 119.98111936949803 -364.7747729405471 A 384 384 0 0 1 124.612 -363.219C 124.81901970437916 -359.7253255355492 124.88223379317446 -356.5321279589812 124.84558148440998 -353.646126846835 C 124.83148632938001 -352.53673581880435 124.8026220481463 -351.4728649353957 124.7615070679946 -350.45480248766825 A 2.25 2.25 0 0 0 126.363 -348.285A 370.5 370.5 0 0 1 127.074 -348.027A 2.25 2.25 0 0 0 129.695 -348.659C 130.3180476148426 -349.4654141998075 130.9797793147602 -350.2989401805782 131.6820846066901 -351.15784320385706 C 133.5090930656628 -353.3922079685921 135.6100657046102 -355.79770599486767 138.01449500978117 -358.34076400289786 A 384 384 0 0 1 142.562 -356.556C 142.59468727541181 -353.0564440318949 142.49865502282108 -349.864064889236 142.3181929943112 -346.98347827062616 C 142.24881678233317 -345.8761688885284 142.16695879526281 -344.81505924610286 142.07514869990567 -343.8003117428015 A 2.25 2.25 0 0 0 143.567 -341.554A 370.5 370.5 0 0 1 144.263 -341.26A 2.25 2.25 0 0 0 146.913 -341.761C 147.5754650936327 -342.5351826577606 148.27792204964808 -343.33468789741903 149.02216710266373 -344.1575162072941 C 150.9582783367755 -346.29803462585386 153.17654348079054 -348.59581758663785 155.70474486960845 -351.01586346499437 A 384 384 0 0 1 160.157 -349.007C 160.0158419863513 -345.5098085800431 159.76080214368545 -342.32618462883994 159.43697905246705 -339.4581740959721 C 159.31249426373498 -338.3556993054011 159.17784608268167 -337.29998898972036 159.03556912648187 -336.29107925302424 A 2.25 2.25 0 0 0 160.413 -333.973A 370.5 370.5 0 0 1 161.095 -333.645A 2.25 2.25 0 0 0 163.766 -334.013C 164.46598671389194 -334.7533546810447 165.20742250733184 -335.51685148359326 165.99175701096658 -336.3015593992397 C 168.03215754263155 -338.3429098055709 170.36220023505163 -340.5272650503792 173.007888200515 -342.81828218370083 A 384 384 0 0 1 177.355 -340.59C 177.03917210167205 -337.1041813047912 176.62575873816465 -333.93722753580516 176.15937965946478 -331.08892341475376 C 175.98009578277748 -329.9940241417473 175.7929921643347 -328.9463378149961 175.60060207022292 -327.9457741534765 A 2.25 2.25 0 0 0 176.861 -325.562A 370.5 370.5 0 0 1 177.525 -325.2A 2.25 2.25 0 0 0 180.211 -325.435C 180.9476199775651 -326.1392771201317 181.72619128222476 -326.864867312221 182.54866525732112 -327.6095039261203 C 184.6882823293277 -329.54661120147324 187.1243097168929 -331.61210807899545 189.88090666185929 -333.7684006377112 A 384 384 0 0 1 194.111 -331.326C 193.62235494047448 -327.8604599199542 193.05159586688546 -324.7180498792471 192.44382029257744 -321.896533502842 C 192.2101830559008 -320.81193183950734 191.97108916914445 -319.77487421496977 191.72906424920797 -318.78514418754037 A 2.25 2.25 0 0 0 192.869 -316.341A 370.5 370.5 0 0 1 193.514 -315.947A 2.25 2.25 0 0 0 196.209 -316.047C 196.97938894747708 -316.7143659290906 197.7931601124198 -317.40024557917764 198.6517287590849 -318.102959607381 C 200.8852429462694 -319.9310077978544 203.4211986810685 -321.87251115740884 206.28185127119738 -323.8887182584677 A 384 384 0 0 1 210.385 -321.238C 209.72416209733942 -317.8016257733555 208.99747631065577 -314.6915719874133 208.24981526657973 -311.90385808993057 C 207.9624055288965 -310.832250526895 207.6719157989012 -309.8083998932267 207.380857765225 -308.83196412467953 A 2.25 2.25 0 0 0 208.398 -306.334A 370.5 370.5 0 0 1 209.022 -305.908A 2.25 2.25 0 0 0 211.719 -305.874C 212.52143611996854 -306.5020529221518 213.36838398185867 -307.1465168253577 214.26091276315904 -307.8055612100699 C 216.58277119733475 -309.52000549983103 219.21235049384038 -311.3326884581584 222.16994669606208 -313.20379749302907 A 384 384 0 0 1 226.136 -310.352C 225.3045619426393 -306.9526867115752 224.42375609822489 -303.8827212641366 223.53806838753954 -301.1357405415635 C 223.19760069474248 -300.0797912640735 222.85643732474722 -299.0716930752698 222.5170697934627 -298.11097913877484 A 2.25 2.25 0 0 0 223.408 -295.566A 370.5 370.5 0 0 1 224.011 -295.109A 2.25 2.25 0 0 0 226.702 -294.941C 227.53512151693 -295.52772751852456 228.413140429936 -296.12917343604283 229.3374103786925 -296.7429096890831 C 231.74184055395511 -298.339487699496 234.45850586371395 -300.01884364115165 237.50569262786456 -301.7402027379576 A 384 384 0 0 1 241.325 -298.694C 240.3248191474772 -295.3406149065031 239.29208306744295 -292.3183702153808 238.2705706493479 -289.6189520946139 C 237.8778914577661 -288.58128635895093 237.4869026336631 -287.59144690594746 237.10006932592455 -286.64884328772297 A 2.25 2.25 0 0 0 237.863 -284.062A 370.5 370.5 0 0 1 238.442 -283.576A 2.25 2.25 0 0 0 241.122 -283.274C 241.98311875087649 -283.8186736203004 242.89002582163806 -284.3756062628151 243.84373905712812 -284.9425085391566 C 246.3247631812147 -286.41725092572716 249.12176044622308 -287.9591047072373 252.2509619858856 -289.52643429604274 A 384 384 0 0 1 255.914 -286.294C 254.74759098581828 -282.99427979826953 253.5654922147792 -280.02726963995707 252.41069473009753 -277.3821252997707 C 251.96678030207272 -276.36532290645044 251.52693808368372 -275.3962030860886 251.09360072804444 -274.47405324724815 A 2.25 2.25 0 0 0 251.727 -271.853A 370.5 370.5 0 0 1 252.281 -271.338A 2.25 2.25 0 0 0 254.942 -270.903C 255.82950782422654 -271.4040017803743 256.76304833887156 -271.91503652558447 257.7438337797227 -272.4336954168461 C 260.29528363574525 -273.7829357376377 263.1656590801014 -275.18345406756356 266.36909570720445 -276.5928575200589 A 384 384 0 0 1 269.866 -273.182C 268.53702017438906 -269.94437632126875 267.20849759614407 -267.0399771505082 265.9232860533751 -264.4556828365067 C 265.4292400301194 -263.46227171648866 264.94163793450184 -262.5162809133383 264.46287387590553 -261.6168774636772 A 2.25 2.25 0 0 0 264.964 -258.967A 370.5 370.5 0 0 1 265.493 -258.426A 2.25 2.25 0 0 0 268.129 -257.858C 269.03986443207697 -258.31457682902266 269.99771746179533 -258.77844316403207 271.0031367208669 -259.24756920248893 C 273.6186690024714 -260.4679530334749 276.55528642055816 -261.7236540025797 279.82499388690644 -262.9716273197134 A 384 384 0 0 1 283.148 -259.391C 281.65882401953473 -256.22334859171553 280.1871805505382 -253.3887812024688 278.77475018807786 -250.87176187750373 C 278.23180084584806 -249.9042118073562 277.6976511286393 -248.98370190360643 277.1746506499707 -248.1092809018125 A 2.25 2.25 0 0 0 277.544 -245.438A 370.5 370.5 0 0 1 278.044 -244.871A 2.25 2.25 0 0 0 280.649 -244.173C 281.5813455464483 -244.5829411390726 282.5611297176867 -244.99848581908464 283.5886831642846 -245.4169126834887 C 286.2617952461101 -246.50540595817884 289.25735374432634 -247.61316769600242 292.58520304197634 -248.6966082194747 A 384 384 0 0 1 295.725 -244.954C 294.0803796493964 -241.86530924646033 292.4692740271875 -239.1076208198776 290.93313636946255 -236.66413419057784 C 290.3426335658717 -235.72485065222452 289.7632642074305 -234.8321101805335 289.1973275702847 -233.98484557499285 A 2.25 2.25 0 0 0 289.433 -231.299A 370.5 370.5 0 0 1 289.904 -230.707A 2.25 2.25 0 0 0 292.471 -229.88C 293.42277106922734 -230.24323372043577 294.42205048415923 -230.60942363590178 295.4691834585117 -230.9761110511399 C 298.19322956274146 -231.930007603748 301.24028171067397 -232.8870760400688 304.6179992819286 -233.8032901660291 A 384 384 0 0 1 307.568 -229.909C 305.77080511951107 -226.90595463359926 304.02424280651593 -224.23200121761639 302.36821693378056 -221.8681221767434 C 301.7316287518393 -220.9594403770561 301.1084801556774 -220.09668883089867 300.50101436770456 -219.2786870549175 A 2.25 2.25 0 0 0 300.602 -216.584A 370.5 370.5 0 0 1 301.044 -215.97A 2.25 2.25 0 0 0 303.566 -215.016C 304.5347013508042 -215.3311053451495 305.55099164335553 -215.6470300902419 306.61510080789975 -215.9610664136238 C 309.38330852671214 -216.7779947070221 312.47427887262097 -217.58199041890964 315.89346717939765 -218.32870029468015 A 384 384 0 0 1 318.645 -214.293C 316.70103619019176 -211.38247606572753 314.8233594155126 -208.7989055298505 313.0515624690135 -206.52051105315778 C 312.37047156724435 -205.6446901182644 311.7050929789564 -204.81407243392127 311.057608295819 -204.02736716880077 A 2.25 2.25 0 0 0 311.024 -201.331A 370.5 370.5 0 0 1 311.435 -200.696A 2.25 2.25 0 0 0 313.906 -199.617C 314.8895103816791 -199.88362991394212 315.92028489405357 -200.14850404996693 316.9987247057432 -200.40910853771234 C 319.8042118385845 -201.0870375594465 322.93141574316985 -201.73596168688172 326.3835741446032 -202.31131087405805 A 384 384 0 0 1 328.931 -198.143C 326.84389858480574 -195.33346735647788 324.83977554875526 -192.8467028641318 322.9566124948696 -190.65945739927716 C 322.2327121725684 -189.8186747580181 321.52675782816345 -189.02225598192643 320.8408639988029 -188.2688031009107 A 2.25 2.25 0 0 0 320.673 -185.577A 370.5 370.5 0 0 1 321.051 -184.922A 2.25 2.25 0 0 0 323.466 -183.722C 324.46145447507524 -183.93921228467318 325.5041505394241 -184.15237729279406 326.5942398269659 -184.3589020410851 C 329.4300314907852 -184.89614635279105 332.58569423241124 -185.38838556814733 336.06224011878584 -185.7909436579969 A 384 384 0 0 1 338.399 -181.501C 336.17417554930887 -178.79882887021796 334.0485888175286 -176.41505290975078 332.0587414963235 -174.32439429358695 C 331.2938314837509 -173.5207402640839 330.5490564969607 -172.76050041880652 329.8264587615077 -172.0421731244734 A 2.25 2.25 0 0 0 329.525 -169.362A 370.5 370.5 0 0 1 329.87 -168.689A 2.25 2.25 0 0 0 332.222 -167.37C 333.2267362698001 -167.5374927918061 334.27876157941785 -167.69841871022615 335.37779020908636 -167.85035026599797 C 338.2368361789939 -168.24557419366758 341.41311228287196 -168.57990471269719 344.90540241334213 -168.80867088238074 A 384 384 0 0 1 347.025 -164.407C 344.66867054506855 -161.8196683234581 342.42690466108576 -159.54480733750043 340.3353201465263 -157.55593327675587 C 339.5313021304945 -156.79140586955165 338.74955812928465 -156.06923503112895 337.99205297956354 -155.38781919831334 A 2.25 2.25 0 0 0 337.557 -152.727A 370.5 370.5 0 0 1 337.868 -152.037A 2.25 2.25 0 0 0 340.151 -150.602C 341.1635638942356 -150.71924869428986 342.22230294844326 -150.82753543582 343.32753856189964 -150.92449607328643 C 346.20273079913693 -151.17671702796304 349.3917235424118 -151.35230765231788 352.89107553346054 -151.40671315309265 A 384 384 0 0 1 354.789 -146.905C 352.3062649191148 -144.43819858459014 349.9538932661345 -142.27790823598508 347.7657715668785 -140.39576338494606 C 346.92464446285805 -139.67226333563556 346.10787498598893 -138.98995693455865 345.317345699156 -138.3471466703863 A 2.25 2.25 0 0 0 344.75 -135.711A 370.5 370.5 0 0 1 345.027 -135.007A 2.25 2.25 0 0 0 347.235 -133.46C 348.25220514436364 -133.52629279686994 349.3150257510552 -133.58167114360887 350.4237205584211 -133.6234198033478 C 353.3079108820648 -133.73201072399763 356.5016919263122 -133.74842490771908 359.99940583752425 -133.62833447893797 A 384 384 0 0 1 361.67 -129.038C 359.06797040843776 -126.69763272604699 356.61084135303395 -124.6572838369812 354.331622484391 -122.88654750430223 C 353.4554774668923 -122.20587354800423 352.6057131319752 -121.56512790549188 351.7841250883951 -120.96252133756208 A 2.25 2.25 0 0 0 351.086 -118.358A 370.5 370.5 0 0 1 351.327 -117.641A 2.25 2.25 0 0 0 353.456 -115.986C 354.4750365411348 -116.00136949686652 355.53929636082165 -116.00370176951873 356.6486939721177 -115.99013465778398 C 359.534711830584 -115.95482557026854 362.7253409329089 -115.81202250510965 366.21272089639365 -115.51773471050024 A 384 384 0 0 1 367.653 -110.85C 364.936976347802 -108.64207658979485 362.38119869995705 -106.72674178908825 360.0165491591532 -105.0718163042934 C 359.107564462737 -104.43566070371176 358.2269179177993 -103.83806881438849 357.3763137147996 -103.27716411757712 A 2.25 2.25 0 0 0 356.55 -100.71A 370.5 370.5 0 0 1 356.755 -99.9823A 2.25 2.25 0 0 0 358.798 -98.2231C 359.8165871452139 -98.1880485148681 360.87964026029726 -98.13732891503628 361.9869825382627 -98.06847976180534 C 364.8676528364282 -97.88935845007953 368.0471975901598 -97.58769316696063 371.51557342984904 -97.11993965234895 A 384 384 0 0 1 372.721 -92.386C 369.898691463709 -90.31641913326072 367.2506192893493 -88.53086024501218 364.8064179677222 -86.99586001361028 C 363.8668534715655 -86.40580435180206 362.9575141426745 -85.8528519232626 362.08000851632676 -85.33504359502328 A 2.25 2.25 0 0 0 361.126 -82.8127A 370.5 370.5 0 0 1 361.295 -82.0753A 2.25 2.25 0 0 0 363.248 -80.2164C 364.26357702017293 -80.13061657354149 365.3227805131119 -80.0269711981423 366.42531443036836 -79.90301117325814 C 369.2934753679873 -79.58052296112564 372.4540309238919 -79.12074544747159 375.8947797109632 -78.48068912179524 A 384 384 0 0 1 376.863 -73.6925C 373.9407801506021 -71.76622082831196 371.2069969743891 -70.11487703325417 368.68932054153805 -68.70361830767843 C 367.721512151018 -68.16112955598935 366.7857407990227 -67.65419131509543 365.88351536657586 -67.18076670851914 A 2.25 2.25 0 0 0 364.805 -64.709A 370.5 370.5 0 0 1 364.937 -63.9642A 2.25 2.25 0 0 0 366.795 -62.0103C 367.80495024850563 -61.87396729386008 368.85767077252626 -61.717653821627366 369.95265525603793 -61.538891109243224 C 372.8011761331056 -61.07383775321135 375.93488485208735 -60.45709108836464 379.3394523429244 -59.646323232497885 A 384 384 0 0 1 380.068 -54.8159C 377.05319313912565 -53.03760039074327 374.2404955767761 -51.52457718974004 371.6556033730036 -50.2405685815432 C 370.66195721226904 -49.746995452485635 369.7020803121927 -49.2873317275784 368.77737814822837 -48.8594678508309 A 2.25 2.25 0 0 0 367.577 -46.4446A 370.5 370.5 0 0 1 367.671 -45.6941A 2.25 2.25 0 0 0 369.43 -43.6499C 370.4319024183799 -43.4634895824905 371.47552274439056 -43.25489663334531 372.56023549020324 -43.021775665730424 C 375.3820344350004 -42.415313361717075 378.4811054234299 -41.643130875062454 381.84102732681936 -40.6636671856413 A 384 384 0 0 1 382.327 -35.8029C 379.22819248019164 -34.17712012188457 376.34357334102015 -32.80617912900879 373.697891815626 -31.65261288590198 C 372.6808782455936 -31.209182480043225 371.6992822026501 -30.797936067568404 370.7544022624459 -30.41669665766245 A 2.25 2.25 0 0 0 369.436 -28.0646A 370.5 370.5 0 0 1 369.492 -27.3104A 2.25 2.25 0 0 0 371.147 -25.1811C 372.1379025127931 -24.944954787817753 373.1698280362283 -24.684600956698016 374.24157227754625 -24.397701309308914 C 377.02963385328724 -23.651337818157373 380.086362332391 -22.72563927702339 383.39328535308465 -21.579914855106175 A 384 384 0 0 1 383.637 -16.701C 380.4603707827405 -15.231670147382147 377.51100168443395 -14.006219737950518 374.8111084185496 -12.9859638073725 C 373.77325589519717 -12.593778562569366 372.77238111181174 -12.231971885905242 371.8096725157763 -11.89830476408276 A 2.25 2.25 0 0 0 370.375 -9.61488A 370.5 370.5 0 0 1 370.394 -8.85876A 2.25 2.25 0 0 0 371.941 -6.64967" stroke="#191919" stroke-width="0.35 px" style="stroke-width:0.35;stroke-miterlimit:4;stroke-dasharray:none;fill:none;fill-rule: evenodd "/>
<title>b'InvoluteGear'</title>
</g>
</svg>