<?xml version="1.0"?>
<!DOCTYPE svg PUBLIC "-//W3C//DTD SVG 1.1//EN" "http://www.w3.org/Graphics/SVG/1.1/DTD/svg11.dtd">
<svg width="697.6627439821335mm" height="697.6627439821335mm" viewBox="0 0 697.6627439821335 697.6627439821335" xmlns="http://www.w3.org/2000/svg" version="1.1">
<g id="InvoluteGear" transform="translate(348.831372,348.831372) scale(1,-1)">
<path id="InvoluteGear_w0000"  d="M 329.93363578650616 -6.617852876661225 C 330.90718439753965 -6.3431377256771935 331.92701220641896 -6.038747650654699 332.99173356056605 -5.701616021807597 C 335.70886832643595 -4.841244196199847 338.7172483983465 -3.7681347117966286 341.99154116771246 -2.432329557350446 A 342 342 0 0 1 341.992 2.43233C 338.7172483983465 3.7681347117966286 335.70886832643595 4.841244196199847 332.99173356056605 5.701616021807597 C 331.92701220641896 6.038747650654699 330.90718439753965 6.3431377256771935 329.9336403973884 6.617851056341199 A 2.25 2.25 0 0 0 328.382 8.82181A 328.5 328.5 0 0 1 328.36 9.60457A 2.25 2.25 0 0 0 329.786 11.8921C 330.74226875371465 12.220955026502704 331.74342489715957 12.582048440979236 332.78756812645486 12.978349101920834 C 335.4521869036644 13.98971836501949 338.39566450850015 15.229820865789085 341.5899070172225 16.74711561159102 A 342 342 0 0 1 341.317 21.6041C 337.9731025114193 22.754234343503455 334.9092854491336 23.656974412090094 332.1481838058198 24.363641752136658 C 331.06623433411005 24.640543608058223 330.030943615383 24.88727261983718 329.0435278807199 25.106966728121414 A 2.25 2.25 0 0 0 327.37 27.2204A 328.5 328.5 0 0 1 327.304 28.0007A 2.25 2.25 0 0 0 328.6 30.3646C 329.53671556953645 30.74659613285133 330.5160500399275 31.163256753308268 331.53632988347584 31.61747953784791 C 334.14004879553795 32.77666409656518 337.00936266377227 34.179857792439996 340.1135046431627 35.8738681589824 A 342 342 0 0 1 339.569 40.7079C 336.1655682059863 41.668740735709726 333.05595405530653 42.39827103424235 330.25957298182806 42.9490104518342 C 329.16379960587625 43.16481129914768 328.1163033849233 43.353102946931095 327.1181226909583 43.517086593891904 A 2.25 2.25 0 0 0 325.329 45.5334A 328.5 328.5 0 0 1 325.22 46.3088A 2.25 2.25 0 0 0 326.381 48.7416C 327.2943179613341 49.17549707262104 328.2487494101087 49.646413930596836 329.241955690055 50.157129685808115 C 331.77658247398915 51.46048231666529 334.5627046826487 53.022352241146436 337.56697935361814 54.8877482450927 A 342 342 0 0 1 336.752 59.6837C 333.3003326536956 60.45214185361216 330.15470541118634 61.006167009871376 327.33184335696154 61.399245675046814 C 326.2256937852057 61.553266524447935 325.16928787267415 61.68252837305069 324.1634828651617 61.79028560546662 A 2.25 2.25 0 0 0 322.264 63.7031A 328.5 328.5 0 0 1 322.111 64.4711A 2.25 2.25 0 0 0 323.134 66.9652C 324.0221313415903 67.44967370541863 324.94865677430494 67.97336512225564 325.91166449624166 68.53896694742605 C 328.3692242784639 69.98238682085241 331.06338865631426 71.69801875332125 333.9583434592733 73.7289311687129 A 342 342 0 0 1 332.876 78.4716C 329.3864109456299 79.04533816810475 326.214667918366 79.42211501397938 323.3742066517758 79.65629615583268 C 322.2611612400045 79.74805240074699 321.1991694797278 79.81787774457109 320.1889047933336 79.86906951832265 A 2.25 2.25 0 0 0 318.185 81.6724A 328.5 328.5 0 0 1 317.99 82.4306A 2.25 2.25 0 0 0 318.871 84.9781C 319.7304512200031 85.51162871076316 320.62615544486505 86.08644695951683 321.55593463022046 86.70515526205185 C 323.92869501844643 88.2841008451117 326.5224247276101 90.148096772786 329.2989510637184 92.338135597799 A 342 342 0 0 1 327.952 97.0127C 324.4361177274942 97.38982860476199 321.2482383924713 97.58817166090093 318.39911505553005 97.66271845892109 C 317.2826758563958 97.6919214002556 316.2184396673509 97.70209054293649 315.2068939685402 97.69655578976428 A 2.25 2.25 0 0 0 313.105 99.3847A 328.5 328.5 0 0 1 312.868 100.131A 2.25 2.25 0 0 0 313.605 102.724C 314.4327808100039 103.30453249592806 315.2948456101431 103.92866898572555 316.18847082961486 104.59853708040536 C 318.46896624182637 106.30804042614078 320.95410044905077 108.31453552822002 323.6034623392392 110.65681009047454 A 342 342 0 0 1 321.997 115.248C 318.465028453185 115.42789460986235 315.27104305819284 115.44717981563112 312.4222220469925 115.36185771801196 C 311.3059017912587 115.32841547250914 310.24276965422575 115.27889641816172 309.2331256400029 115.21665255244692 A 2.25 2.25 0 0 0 307.04 116.784A 328.5 328.5 0 0 1 306.761 117.516A 2.25 2.25 0 0 0 307.351 120.146C 308.14578854265176 120.77240200286481 308.97150154327363 121.44389296940096 309.8261611213118 122.16281320337242 C 312.0072162752401 123.99749558180238 314.37593582889815 126.14017668236373 316.8897974004906 128.6273173195288 A 342 342 0 0 1 315.028 133.122C 311.4919303786494 133.10278175431216 308.30188838340143 132.94294843131857 305.46233314280556 132.69802589294534 C 304.34964418699536 132.60204368228196 303.29096110899843 132.49299223617152 302.28639549296463 132.37423510014366 A 2.25 2.25 0 0 0 300.009 133.816A 328.5 328.5 0 0 1 299.689 134.531A 2.25 2.25 0 0 0 300.131 137.19C 300.88925562158283 137.86027685161528 301.6760188241032 138.57700953588164 302.48902368548164 139.34271992011378 C 304.5637761746997 141.29680874170867 306.8086282067337 143.56893417329408 309.1790799211869 146.19311542077176 A 342 342 0 0 1 307.068 150.576C 303.53876345022775 150.3588783040765 300.36270190704295 150.02042934708732 297.54134672837273 149.61667698487832 C 296.4357900035963 149.45845680459917 295.3848869932739 149.2902160829203 294.38856051051044 149.11531933046524 A 2.25 2.25 0 0 0 292.034 150.428A 328.5 328.5 0 0 1 291.674 151.123A 2.25 2.25 0 0 0 291.967 153.803C 292.6860137840254 154.51439226600053 293.4313517403347 155.27411156180688 294.2001438709768 156.0842028881453 C 296.16206575656895 158.15154986652914 298.275987131971 160.54597068192544 300.49557067120844 163.2989358946576 A 342 342 0 0 1 298.142 167.557C 294.6305512734653 167.141890195269 291.478463246988 166.62589048991697 288.6841851574364 166.06457865817774 C 287.5892391541666 165.84461832750577 286.54942274118577 165.61771767781192 285.56447020341284 165.3872315988185 A 2.25 2.25 0 0 0 283.14 166.565A 328.5 328.5 0 0 1 282.742 167.24A 2.25 2.25 0 0 0 282.884 169.932C 283.56187346370774 170.68234823749768 284.2634410648469 171.48266378687026 284.98560156028384 172.33458720829745 C 286.828519910157 174.50868770503152 288.8048594502044 177.01787017050304 290.86659118324485 179.89095750143142 A 342 342 0 0 1 288.278 184.01C 284.7953223795911 183.39901186336363 281.6771255049129 182.70708493562333 278.918716337133 181.98997972904183 C 277.83782616058704 181.70897132455485 276.8123679920781 181.42412466023515 275.8418884243769 181.13877444917944 A 2.25 2.25 0 0 0 273.355 182.179A 328.5 328.5 0 0 1 272.92 182.83A 2.25 2.25 0 0 0 272.911 185.526C 273.54554258168423 186.3132743950527 274.2011324364251 187.151668109185 274.87438911256464 188.04274315943582 C 276.59250542377583 190.3167566500177 278.4250448331005 192.93280594921998 280.3224377891446 195.91697560266152 A 342 342 0 0 1 277.507 199.884C 274.0640220373896 199.07909238903682 270.9895273155 198.21341529701115 268.27566604524674 197.3427729938707 C 267.2122325758109 197.00160067197228 266.20435912255493 196.65970422601583 265.2514060126883 196.32038770023124 A 2.25 2.25 0 0 0 262.71 197.22A 328.5 328.5 0 0 1 262.239 197.845A 2.25 2.25 0 0 0 262.079 200.536C 262.6685362205953 201.3579900620883 263.27608560070996 202.23182404417986 263.898320142968 203.1592470714802 C 265.4862285859604 205.5260186681645 267.16920201760627 208.24070374215728 268.8962862964465 211.32656641634583 A 342 342 0 0 1 265.863 215.13C 262.47041488793604 214.13279643788366 259.4492958166837 213.09609292197388 256.78852125554516 212.07465288506683 C 255.74589044834678 211.67439010010327 254.758772853105 211.27651960521845 253.82634454411522 210.88430438003016 A 2.25 2.25 0 0 0 251.239 211.64A 328.5 328.5 0 0 1 250.733 212.238A 2.25 2.25 0 0 0 250.422 214.916C 250.9650774665576 215.76915899710727 251.52267479692463 216.675683842163 252.09192942522654 217.63653683055549 C 253.54463385256904 220.08861979427797 255.0727460494799 222.89339923948162 256.62408760501535 226.07124566878494 A 342 342 0 0 1 253.383 229.699C 250.0509787085442 228.5127594876325 247.0927408462335 227.308291400643 244.49342477537093 226.1392674582218 C 243.47487713266568 225.6811735849976 242.5116212325911 225.22858088895933 241.60265148890352 224.7847010185714 A 2.25 2.25 0 0 0 238.977 225.394A 328.5 328.5 0 0 1 238.439 225.963A 2.25 2.25 0 0 0 237.978 228.619C 238.47198973067418 229.50143833102103 238.97788060380105 230.43780177649649 239.49236423248234 231.42906152699828 C 240.8052938985976 233.95874069757167 242.1737368544549 236.84478964018322 243.5444545922108 240.1046211440448 A 342 342 0 0 1 240.105 243.544C 236.84478964018325 242.17373685445486 233.95874069757173 240.80529389859754 231.4290615269983 239.49236423248232 C 230.43780177649654 238.97788060380105 229.50143833102106 238.47198973067415 228.61878710773576 237.97784182537856 A 2.25 2.25 0 0 0 225.963 238.439A 328.5 328.5 0 0 1 225.394 238.977A 2.25 2.25 0 0 0 224.785 241.603C 225.22858088895936 242.51162123259104 225.68117358499765 243.47487713266565 226.13926745822184 244.4934247753709 C 227.30829140064301 247.09274084623348 228.51275948763254 250.05097870854416 229.69854062248922 253.38253865103135 A 342 342 0 0 1 226.071 256.624C 222.89339923948165 255.07274604947986 220.088619794278 253.544633852569 217.6365368305555 252.0919294252265 C 216.67568384216307 251.5226747969246 215.7691589971073 250.96507746655755 214.91560344152222 250.42221629848152 A 2.25 2.25 0 0 0 212.238 250.733A 328.5 328.5 0 0 1 211.64 251.239A 2.25 2.25 0 0 0 210.884 253.826C 211.27651960521848 254.75877285310494 211.67439010010332 255.74589044834673 212.07465288506685 256.7885212555451 C 213.0960929219739 259.4492958166836 214.13279643788368 262.470414887936 215.12991006369407 265.86322094891125 A 342 342 0 0 1 211.327 268.896C 208.2407037421573 267.1692020176062 205.52601866816454 265.48622858596036 203.15924707148022 263.8983201429679 C 202.23182404417992 263.2760856007099 201.35799006208833 262.66853622059523 200.5362157757665 262.07866983181276 A 2.25 2.25 0 0 0 197.845 262.239A 328.5 328.5 0 0 1 197.22 262.71A 2.25 2.25 0 0 0 196.32 265.251C 196.65970422601586 266.20435912255493 197.00160067197234 267.2122325758109 197.34277299387077 268.27566604524674 C 198.21341529701118 270.9895273155 199.07909238903684 274.0640220373896 199.8844012174376 277.5073991937677 A 342 342 0 0 1 195.917 280.322C 192.93280594922 278.4250448331005 190.31675665001774 276.59250542377583 188.04274315943587 274.87438911256464 C 187.15166810918507 274.2011324364251 186.31327439505273 273.54554258168423 185.5258669839261 272.910526910084 A 2.25 2.25 0 0 0 182.83 272.92A 328.5 328.5 0 0 1 182.179 273.355A 2.25 2.25 0 0 0 181.139 275.842C 181.42412466023518 276.8123679920781 181.70897132455488 277.83782616058704 181.98997972904186 278.918716337133 C 182.70708493562336 281.6771255049129 183.39901186336368 284.7953223795911 184.00998209484516 288.2784364929113 A 342 342 0 0 1 179.891 290.867C 177.0178701705031 288.8048594502044 174.50868770503155 286.828519910157 172.33458720829748 284.98560156028384 C 171.4826637868703 284.2634410648469 170.6823482374977 283.56187346370774 169.93178517659436 282.88370650352573 A 2.25 2.25 0 0 0 167.24 282.742A 328.5 328.5 0 0 1 166.565 283.14A 2.25 2.25 0 0 0 165.387 285.564C 165.61771767781198 286.54942274118577 165.8446183275058 287.5892391541666 166.06457865817777 288.6841851574364 C 166.62589048991703 291.478463246988 167.14189019526904 294.63055127346524 167.55659949144575 298.142443178099 A 342 342 0 0 1 163.299 300.496C 160.54597068192547 298.2759871319711 158.1515498665292 296.16206575656895 156.08420288814534 294.2001438709768 C 155.2741115618069 293.4313517403347 154.51439226600058 292.6860137840254 153.8030351043917 291.9668292994161 A 2.25 2.25 0 0 0 151.123 291.674A 328.5 328.5 0 0 1 150.428 292.034A 2.25 2.25 0 0 0 149.115 294.389C 149.29021608292032 295.3848869932739 149.4584568045992 296.4357900035963 149.61667698487835 297.54134672837273 C 150.02042934708734 300.36270190704295 150.35887830407654 303.53876345022775 150.57602183607503 307.0683834349681 A 342 342 0 0 1 146.193 309.179C 143.5689341732941 306.8086282067337 141.2968087417087 304.5637761746997 139.3427199201138 302.48902368548164 C 138.57700953588167 301.6760188241032 137.8602768516153 300.88925562158283 137.19036378210816 300.13131643300727 A 2.25 2.25 0 0 0 134.531 299.689A 328.5 328.5 0 0 1 133.816 300.009A 2.25 2.25 0 0 0 132.374 302.286C 132.49299223617152 303.29096110899843 132.60204368228196 304.34964418699536 132.69802589294537 305.46233314280556 C 132.9429484313186 308.30188838340143 133.10278175431216 311.4919303786494 133.12167630824544 315.02817295319073 A 342 342 0 0 1 128.627 316.89C 126.14017668236373 314.37593582889815 123.99749558180241 312.0072162752401 122.16281320337242 309.8261611213118 C 121.44389296940098 308.97150154327363 120.77240200286482 308.14578854265176 120.14604081982002 307.35147940720776 A 2.25 2.25 0 0 0 117.516 306.761A 328.5 328.5 0 0 1 116.784 307.04A 2.25 2.25 0 0 0 115.217 309.233C 115.27889641816174 310.24276965422575 115.32841547250915 311.3059017912587 115.36185771801199 312.4222220469925 C 115.44717981563115 315.27104305819284 115.42789460986238 318.465028453185 115.24848073647341 321.9967672901041 A 342 342 0 0 1 110.657 323.603C 108.31453552822005 320.95410044905077 106.3080404261408 318.46896624182637 104.59853708040539 316.18847082961486 C 103.92866898572557 315.2948456101431 103.30453249592807 314.4327808100039 102.72369396335878 313.6046009180977 A 2.25 2.25 0 0 0 100.131 312.868A 328.5 328.5 0 0 1 99.3847 313.105A 2.25 2.25 0 0 0 97.6966 315.207C 97.7020905429365 316.2184396673509 97.69192140025561 317.2826758563958 97.66271845892112 318.39911505553005 C 97.58817166090094 321.2482383924713 97.389828604762 324.4361177274942 97.01267080647322 327.95224066979256 A 342 342 0 0 1 92.3381 329.299C 90.14809677278602 326.5224247276101 88.28410084511171 323.92869501844643 86.70515526205187 321.55593463022046 C 86.08644695951685 320.62615544486505 85.51162871076318 319.7304512200031 84.97814036158245 318.8710063319716 A 2.25 2.25 0 0 0 82.4306 317.99A 328.5 328.5 0 0 1 81.6724 318.185A 2.25 2.25 0 0 0 79.8691 320.189C 79.81787774457112 321.1991694797278 79.74805240074701 322.2611612400045 79.65629615583269 323.3742066517758 C 79.4221150139794 326.214667918366 79.04533816810476 329.3864109456299 78.47162312288455 332.8758549696909 A 342 342 0 0 1 73.7289 333.958C 71.69801875332126 331.06338865631426 69.98238682085243 328.3692242784639 68.53896694742606 325.91166449624166 C 67.97336512225564 324.94865677430494 67.44967370541866 324.0221313415903 66.96521409134466 323.13412558901524 A 2.25 2.25 0 0 0 64.4711 322.111A 328.5 328.5 0 0 1 63.7031 322.264A 2.25 2.25 0 0 0 61.7903 324.163C 61.68252837305071 325.16928787267415 61.55326652444795 326.2256937852057 61.399245675046835 327.33184335696154 C 61.00616700987139 330.15470541118634 60.45214185361218 333.3003326536956 59.68367468124691 336.75211867764966 A 342 342 0 0 1 54.8877 337.567C 53.02235224114646 334.5627046826487 51.460482316665306 331.77658247398915 50.15712968580814 329.241955690055 C 49.64641393059685 328.2487494101087 49.17549707262106 327.2943179613341 48.74159048283248 326.38054533884366 A 2.25 2.25 0 0 0 46.3088 325.22A 328.5 328.5 0 0 1 45.5334 325.329A 2.25 2.25 0 0 0 43.5171 327.118C 43.353102946931116 328.1163033849233 43.16481129914769 329.16379960587625 42.94901045183421 330.25957298182806 C 42.39827103424236 333.05595405530653 41.66874073570974 336.1655682059863 40.70793931822915 339.56883563396406 A 342 342 0 0 1 35.8739 340.114C 34.17985779244001 337.00936266377227 32.77666409656519 334.14004879553795 31.617479537847924 331.53632988347584 C 31.163256753308282 330.5160500399275 30.74659613285135 329.53671556953645 30.364607798009636 328.60005114386416 A 2.25 2.25 0 0 0 28.0007 327.304A 328.5 328.5 0 0 1 27.2204 327.37A 2.25 2.25 0 0 0 25.107 329.044C 24.887272619837198 330.030943615383 24.64054360805824 331.06623433411005 24.363641752136676 332.1481838058198 C 23.656974412090115 334.9092854491336 22.754234343503477 337.9731025114193 21.604121717629248 341.31714340500474 A 342 342 0 0 1 16.7471 341.59C 15.229820865789106 338.39566450850015 13.989718365019508 335.4521869036644 12.978349101920852 332.78756812645486 C 12.582048440979253 331.74342489715957 12.220955026502722 330.74226875371465 11.892086823231356 329.7856596176763 A 2.25 2.25 0 0 0 9.60457 328.36A 328.5 328.5 0 0 1 8.82181 328.382A 2.25 2.25 0 0 0 6.61785 329.934C 6.343137725677214 330.90718439753965 6.038747650654719 331.92701220641896 5.7016160218076175 332.99173356056605 C 4.841244196199868 335.70886832643595 3.7681347117966495 338.7172483983465 2.432329557350467 341.99154116771246 A 342 342 0 0 1 -2.43233 341.992C -3.7681347117966077 338.7172483983465 -4.841244196199827 335.70886832643595 -5.701616021807577 332.99173356056605 C -6.0387476506546784 331.92701220641896 -6.343137725677173 330.90718439753965 -6.617851056341179 329.9336403973884 A 2.25 2.25 0 0 0 -8.82181 328.382A 328.5 328.5 0 0 1 -9.60457 328.36A 2.25 2.25 0 0 0 -11.8921 329.786C -12.220955026502683 330.74226875371465 -12.582048440979214 331.74342489715957 -12.978349101920813 332.78756812645486 C -13.989718365019469 335.4521869036644 -15.229820865789064 338.39566450850015 -16.747115611591 341.5899070172225 A 342 342 0 0 1 -21.6041 341.317C -22.754234343503434 337.9731025114193 -23.656974412090072 334.9092854491336 -24.363641752136637 332.1481838058198 C -24.640543608058202 331.06623433411005 -24.88727261983716 330.030943615383 -25.106966728121392 329.0435278807199 A 2.25 2.25 0 0 0 -27.2204 327.37A 328.5 328.5 0 0 1 -28.0007 327.304A 2.25 2.25 0 0 0 -30.3646 328.6C -30.746596132851316 329.53671556953645 -31.163256753308247 330.5160500399275 -31.61747953784789 331.53632988347584 C -32.776664096565156 334.14004879553795 -34.179857792439975 337.00936266377227 -35.87386815898238 340.1135046431627 A 342 342 0 0 1 -40.7079 339.569C -41.668740735709704 336.1655682059863 -42.39827103424233 333.05595405530653 -42.949010451834184 330.25957298182806 C -43.16481129914766 329.16379960587625 -43.35310294693108 328.1163033849233 -43.51708659389188 327.1181226909583 A 2.25 2.25 0 0 0 -45.5334 325.329A 328.5 328.5 0 0 1 -46.3088 325.22A 2.25 2.25 0 0 0 -48.7416 326.381C -49.17549707262103 327.2943179613341 -49.646413930596815 328.2487494101087 -50.1571296858081 329.241955690055 C -51.46048231666527 331.77658247398915 -53.02235224114642 334.5627046826487 -54.88774824509269 337.56697935361814 A 342 342 0 0 1 -59.6837 336.752C -60.45214185361215 333.3003326536956 -61.006167009871355 330.15470541118634 -61.3992456750468 327.33184335696154 C -61.55326652444791 326.2256937852057 -61.68252837305067 325.16928787267415 -61.7902856054666 324.1634828651617 A 2.25 2.25 0 0 0 -63.7031 322.264A 328.5 328.5 0 0 1 -64.4711 322.111A 2.25 2.25 0 0 0 -66.9652 323.134C -67.44967370541862 324.0221313415903 -67.97336512225561 324.94865677430494 -68.53896694742602 325.91166449624166 C -69.9823868208524 328.3692242784639 -71.69801875332124 331.06338865631426 -73.72893116871289 333.9583434592733 A 342 342 0 0 1 -78.4716 332.876C -79.04533816810473 329.3864109456299 -79.42211501397937 326.214667918366 -79.65629615583265 323.3742066517758 C -79.74805240074699 322.2611612400045 -79.81787774457108 321.1991694797278 -79.86906951832262 320.1889047933336 A 2.25 2.25 0 0 0 -81.6724 318.185A 328.5 328.5 0 0 1 -82.4306 317.99A 2.25 2.25 0 0 0 -84.9781 318.871C -85.51162871076313 319.73045122000315 -86.0864469595168 320.6261554448651 -86.70515526205183 321.55593463022046 C -88.28410084511167 323.9286950184465 -90.14809677278598 326.52242472761014 -92.33813559779898 329.29895106371845 A 342 342 0 0 1 -97.0127 327.952C -97.38982860476196 324.43611772749426 -97.5881716609009 321.24823839247136 -97.66271845892108 318.39911505553005 C -97.69192140025557 317.2826758563959 -97.70209054293646 316.21843966735094 -97.69655578976426 315.20689396854027 A 2.25 2.25 0 0 0 -99.3847 313.105A 328.5 328.5 0 0 1 -100.131 312.868A 2.25 2.25 0 0 0 -102.724 313.605C -103.30453249592806 314.4327808100039 -103.92866898572555 315.2948456101431 -104.59853708040536 316.18847082961486 C -106.30804042614078 318.46896624182637 -108.31453552822002 320.95410044905077 -110.65681009047454 323.6034623392392 A 342 342 0 0 1 -115.248 321.997C -115.42789460986235 318.465028453185 -115.44717981563112 315.27104305819284 -115.36185771801196 312.4222220469925 C -115.32841547250914 311.3059017912587 -115.27889641816172 310.24276965422575 -115.21665255244692 309.2331256400029 A 2.25 2.25 0 0 0 -116.784 307.04A 328.5 328.5 0 0 1 -117.516 306.761A 2.25 2.25 0 0 0 -120.146 307.351C -120.7724020028648 308.14578854265176 -121.44389296940095 308.97150154327363 -122.1628132033724 309.8261611213118 C -123.99749558180238 312.0072162752401 -126.1401766823637 314.37593582889815 -128.62731731952877 316.8897974004906 A 342 342 0 0 1 -133.122 315.028C -133.10278175431213 311.4919303786494 -132.94294843131857 308.30188838340143 -132.6980258929453 305.46233314280556 C -132.60204368228193 304.34964418699536 -132.4929922361715 303.29096110899843 -132.37423510014366 302.28639549296463 A 2.25 2.25 0 0 0 -133.816 300.009A 328.5 328.5 0 0 1 -134.531 299.689A 2.25 2.25 0 0 0 -137.19 300.131C -137.86027685161528 300.88925562158283 -138.57700953588164 301.6760188241032 -139.34271992011378 302.48902368548164 C -141.29680874170867 304.5637761746997 -143.56893417329408 306.8086282067337 -146.19311542077176 309.1790799211869 A 342 342 0 0 1 -150.576 307.068C -150.3588783040765 303.53876345022775 -150.02042934708732 300.36270190704295 -149.61667698487832 297.54134672837273 C -149.45845680459917 296.4357900035963 -149.2902160829203 295.3848869932739 -149.11531933046524 294.38856051051044 A 2.25 2.25 0 0 0 -150.428 292.034A 328.5 328.5 0 0 1 -151.123 291.674A 2.25 2.25 0 0 0 -153.803 291.967C -154.51439226600053 292.6860137840255 -155.27411156180685 293.4313517403348 -156.08420288814528 294.20014387097683 C -158.15154986652914 296.162065756569 -160.54597068192538 298.275987131971 -163.29893589465757 300.4955706712085 A 342 342 0 0 1 -167.557 298.142C -167.141890195269 294.6305512734653 -166.62589048991697 291.47846324698804 -166.0645786581777 288.68418515743645 C -165.84461832750574 287.58923915416665 -165.61771767781192 286.5494227411858 -165.38723159881846 285.5644702034129 A 2.25 2.25 0 0 0 -166.565 283.14A 328.5 328.5 0 0 1 -167.24 282.742A 2.25 2.25 0 0 0 -169.932 282.884C -170.68234823749762 283.56187346370774 -171.4826637868702 284.263441064847 -172.33458720829742 284.9856015602839 C -174.5086877050315 286.82851991015707 -177.01787017050302 288.80485945020445 -179.8909575014314 290.8665911832449 A 342 342 0 0 1 -184.01 288.278C -183.3990118633636 284.79532237959114 -182.7070849356233 281.67712550491296 -181.9899797290418 278.91871633713305 C -181.7089713245548 277.8378261605871 -181.4241246602351 276.8123679920781 -181.1387744491794 275.841888424377 A 2.25 2.25 0 0 0 -182.179 273.355A 328.5 328.5 0 0 1 -182.83 272.92A 2.25 2.25 0 0 0 -185.526 272.911C -186.31327439505264 273.5455425816843 -187.15166810918498 274.20113243642515 -188.0427431594358 274.87438911256464 C -190.31675665001765 276.5925054237759 -192.93280594921993 278.42504483310057 -195.9169756026615 280.32243778914466 A 342 342 0 0 1 -199.884 277.507C -199.07909238903676 274.06402203738963 -198.2134152970111 270.9895273155001 -197.34277299387068 268.27566604524674 C -197.00160067197226 267.21223257581096 -196.65970422601578 266.204359122555 -196.32038770023118 265.25140601268834 A 2.25 2.25 0 0 0 -197.22 262.71A 328.5 328.5 0 0 1 -197.845 262.239A 2.25 2.25 0 0 0 -200.536 262.079C -201.35799006208828 262.66853622059534 -202.23182404417983 263.27608560070996 -203.15924707148014 263.898320142968 C -205.52601866816448 265.4862285859604 -208.24070374215725 267.16920201760627 -211.3265664163458 268.8962862964465 A 342 342 0 0 1 -215.13 265.863C -214.13279643788363 262.47041488793604 -213.09609292197385 259.4492958166837 -212.07465288506677 256.78852125554516 C -211.67439010010324 255.74589044834678 -211.27651960521843 254.75877285310506 -210.88430438003013 253.82634454411527 A 2.25 2.25 0 0 0 -211.64 251.239A 328.5 328.5 0 0 1 -212.238 250.733A 2.25 2.25 0 0 0 -214.916 250.422C -215.7691589971072 250.96507746655763 -216.67568384216298 251.52267479692466 -217.63653683055546 252.09192942522657 C -220.08861979427792 253.5446338525691 -222.8933992394816 255.07274604947992 -226.0712456687849 256.62408760501535 A 342 342 0 0 1 -229.699 253.383C -228.51275948763248 250.05097870854422 -227.30829140064293 247.09274084623357 -226.13926745822178 244.49342477537095 C -225.68117358499757 243.47487713266577 -225.22858088895927 242.51162123259112 -224.78470101857135 241.60265148890355 A 2.25 2.25 0 0 0 -225.394 238.977A 328.5 328.5 0 0 1 -225.963 238.439A 2.25 2.25 0 0 0 -228.619 237.978C -229.50143833102103 238.47198973067418 -230.43780177649649 238.97788060380105 -231.42906152699828 239.49236423248234 C -233.95874069757167 240.8052938985976 -236.84478964018322 242.1737368544549 -240.1046211440448 243.5444545922108 A 342 342 0 0 1 -243.544 240.105C -242.17373685445486 236.84478964018325 -240.80529389859754 233.95874069757173 -239.49236423248232 231.4290615269983 C -238.97788060380105 230.43780177649654 -238.47198973067415 229.50143833102106 -237.97784182537856 228.61878710773576 A 2.25 2.25 0 0 0 -238.439 225.963A 328.5 328.5 0 0 1 -238.977 225.394A 2.25 2.25 0 0 0 -241.603 224.785C -242.51162123259104 225.22858088895936 -243.47487713266565 225.68117358499765 -244.4934247753709 226.13926745822184 C -247.09274084623348 227.30829140064301 -250.05097870854416 228.51275948763254 -253.38253865103135 229.69854062248922 A 342 342 0 0 1 -256.624 226.071C -255.07274604947986 222.89339923948165 -253.544633852569 220.088619794278 -252.0919294252265 217.6365368305555 C -251.5226747969246 216.67568384216307 -250.96507746655755 215.7691589971073 -250.42221629848152 214.91560344152222 A 2.25 2.25 0 0 0 -250.733 212.238A 328.5 328.5 0 0 1 -251.239 211.64A 2.25 2.25 0 0 0 -253.826 210.884C -254.75877285310494 211.27651960521848 -255.74589044834673 211.67439010010332 -256.7885212555451 212.07465288506685 C -259.4492958166836 213.0960929219739 -262.470414887936 214.13279643788368 -265.86322094891125 215.12991006369407 A 342 342 0 0 1 -268.896 211.327C -267.1692020176062 208.2407037421573 -265.48622858596036 205.52601866816454 -263.8983201429679 203.15924707148022 C -263.2760856007099 202.23182404417992 -262.66853622059523 201.35799006208833 -262.07866983181276 200.5362157757665 A 2.25 2.25 0 0 0 -262.239 197.845A 328.5 328.5 0 0 1 -262.71 197.22A 2.25 2.25 0 0 0 -265.251 196.32C -266.20435912255493 196.65970422601586 -267.2122325758109 197.00160067197234 -268.27566604524674 197.34277299387077 C -270.9895273155 198.21341529701118 -274.0640220373896 199.07909238903684 -277.5073991937677 199.8844012174376 A 342 342 0 0 1 -280.322 195.917C -278.4250448331005 192.93280594922 -276.59250542377583 190.31675665001774 -274.87438911256464 188.04274315943587 C -274.2011324364251 187.15166810918507 -273.54554258168423 186.31327439505273 -272.910526910084 185.5258669839261 A 2.25 2.25 0 0 0 -272.92 182.83A 328.5 328.5 0 0 1 -273.355 182.179A 2.25 2.25 0 0 0 -275.842 181.139C -276.8123679920781 181.42412466023518 -277.83782616058704 181.70897132455488 -278.918716337133 181.98997972904186 C -281.6771255049129 182.70708493562336 -284.7953223795911 183.39901186336368 -288.2784364929113 184.00998209484516 A 342 342 0 0 1 -290.867 179.891C -288.8048594502044 177.0178701705031 -286.828519910157 174.50868770503155 -284.98560156028384 172.33458720829748 C -284.2634410648469 171.4826637868703 -283.56187346370774 170.6823482374977 -282.88370650352573 169.93178517659436 A 2.25 2.25 0 0 0 -282.742 167.24A 328.5 328.5 0 0 1 -283.14 166.565A 2.25 2.25 0 0 0 -285.564 165.387C -286.54942274118577 165.61771767781198 -287.5892391541666 165.8446183275058 -288.6841851574364 166.06457865817777 C -291.478463246988 166.62589048991703 -294.63055127346524 167.14189019526904 -298.142443178099 167.55659949144575 A 342 342 0 0 1 -300.496 163.299C -298.2759871319711 160.54597068192547 -296.16206575656895 158.1515498665292 -294.2001438709768 156.08420288814534 C -293.4313517403347 155.2741115618069 -292.6860137840254 154.51439226600058 -291.9668292994161 153.8030351043917 A 2.25 2.25 0 0 0 -291.674 151.123A 328.5 328.5 0 0 1 -292.034 150.428A 2.25 2.25 0 0 0 -294.389 149.115C -295.3848869932738 149.29021608292032 -296.43579000359625 149.45845680459922 -297.5413467283727 149.61667698487838 C -300.3627019070429 150.02042934708737 -303.5387634502277 150.35887830407657 -307.06838343496804 150.57602183607506 A 342 342 0 0 1 -309.179 146.193C -306.80862820673366 143.56893417329414 -304.5637761746996 141.29680874170873 -302.4890236854816 139.34271992011384 C -301.67601882410315 138.5770095358817 -300.8892556215828 137.8602768516153 -300.13131643300727 137.1903637821082 A 2.25 2.25 0 0 0 -299.689 134.531A 328.5 328.5 0 0 1 -300.009 133.816A 2.25 2.25 0 0 0 -302.286 132.374C -303.29096110899843 132.49299223617152 -304.34964418699536 132.60204368228196 -305.46233314280556 132.69802589294537 C -308.30188838340143 132.9429484313186 -311.4919303786494 133.10278175431216 -315.02817295319073 133.12167630824544 A 342 342 0 0 1 -316.89 128.627C -314.37593582889815 126.14017668236373 -312.0072162752401 123.99749558180241 -309.8261611213118 122.16281320337242 C -308.97150154327363 121.44389296940098 -308.14578854265176 120.77240200286482 -307.35147940720776 120.14604081982002 A 2.25 2.25 0 0 0 -306.761 117.516A 328.5 328.5 0 0 1 -307.04 116.784A 2.25 2.25 0 0 0 -309.233 115.217C -310.24276965422575 115.27889641816175 -311.3059017912587 115.32841547250916 -312.4222220469925 115.361857718012 C -315.27104305819284 115.44717981563116 -318.465028453185 115.42789460986239 -321.9967672901041 115.24848073647343 A 342 342 0 0 1 -323.603 110.657C -320.95410044905077 108.31453552822006 -318.46896624182637 106.30804042614082 -316.18847082961486 104.5985370804054 C -315.2948456101431 103.92866898572558 -314.4327808100039 103.30453249592809 -313.6046009180977 102.72369396335881 A 2.25 2.25 0 0 0 -312.868 100.131A 328.5 328.5 0 0 1 -313.105 99.3847A 2.25 2.25 0 0 0 -315.207 97.6966C -316.2184396673509 97.70209054293652 -317.2826758563958 97.69192140025562 -318.39911505553005 97.66271845892113 C -321.2482383924713 97.58817166090095 -324.4361177274942 97.38982860476202 -327.95224066979256 97.01267080647324 A 342 342 0 0 1 -329.299 92.3381C -326.5224247276101 90.14809677278603 -323.92869501844643 88.28410084511172 -321.55593463022046 86.70515526205189 C -320.62615544486505 86.08644695951686 -319.7304512200031 85.51162871076319 -318.8710063319716 84.97814036158246 A 2.25 2.25 0 0 0 -317.99 82.4306A 328.5 328.5 0 0 1 -318.185 81.6724A 2.25 2.25 0 0 0 -320.189 79.8691C -321.1991694797278 79.81787774457113 -322.2611612400045 79.74805240074704 -323.3742066517758 79.6562961558327 C -326.214667918366 79.42211501397942 -329.3864109456299 79.04533816810479 -332.8758549696909 78.47162312288457 A 342 342 0 0 1 -333.958 73.7289C -331.06338865631426 71.69801875332129 -328.3692242784639 69.98238682085245 -325.91166449624166 68.53896694742608 C -324.94865677430494 67.97336512225567 -324.0221313415903 67.44967370541868 -323.13412558901524 66.96521409134468 A 2.25 2.25 0 0 0 -322.111 64.4711A 328.5 328.5 0 0 1 -322.264 63.7031A 2.25 2.25 0 0 0 -324.163 61.7903C -325.16928787267415 61.68252837305072 -326.2256937852057 61.55326652444797 -327.33184335696154 61.39924567504685 C -330.15470541118634 61.00616700987141 -333.3003326536956 60.452141853612204 -336.75211867764966 59.683674681246934 A 342 342 0 0 1 -337.567 54.8877C -334.5627046826487 53.02235224114648 -331.77658247398915 51.46048231666533 -329.241955690055 50.15712968580815 C -328.2487494101087 49.64641393059687 -327.2943179613341 49.17549707262108 -326.38054533884366 48.7415904828325 A 2.25 2.25 0 0 0 -325.22 46.3088A 328.5 328.5 0 0 1 -325.329 45.5334A 2.25 2.25 0 0 0 -327.118 43.5171C -328.1163033849233 43.35310294693114 -329.16379960587625 43.164811299147715 -330.25957298182806 42.94901045183424 C -333.05595405530653 42.39827103424239 -336.1655682059863 41.66874073570976 -339.56883563396406 40.70793931822917 A 342 342 0 0 1 -340.114 35.8739C -337.00936266377227 34.17985779244003 -334.14004879553795 32.77666409656522 -331.53632988347584 31.617479537847952 C -330.5160500399275 31.163256753308303 -329.53671556953645 30.746596132851373 -328.60005114386416 30.364607798009658 A 2.25 2.25 0 0 0 -327.304 28.0007A 328.5 328.5 0 0 1 -327.37 27.2204A 2.25 2.25 0 0 0 -329.044 25.107C -330.030943615383 24.88727261983722 -331.06623433411005 24.640543608058262 -332.1481838058198 24.363641752136697 C -334.9092854491336 23.656974412090136 -337.9731025114193 22.754234343503498 -341.31714340500474 21.60412171762927 A 342 342 0 0 1 -341.59 16.7471C -338.39566450850015 15.229820865789128 -335.4521869036644 13.98971836501953 -332.78756812645486 12.978349101920873 C -331.74342489715957 12.582048440979275 -330.74226875371465 12.220955026502743 -329.7856596176763 11.892086823231377 A 2.25 2.25 0 0 0 -328.36 9.60457A 328.5 328.5 0 0 1 -328.382 8.82181A 2.25 2.25 0 0 0 -329.934 6.61785C -330.90718439753965 6.343137725677234 -331.92701220641896 6.03874765065474 -332.99173356056605 5.701616021807638 C -335.70886832643595 4.841244196199888 -338.7172483983465 3.76813471179667 -341.99154116771246 2.4323295573504877 A 342 342 0 0 1 -341.992 -2.43233C -338.7172483983465 -3.7681347117965878 -335.70886832643595 -4.841244196199807 -332.99173356056605 -5.701616021807557 C -331.92701220641896 -6.038747650654658 -330.90718439753965 -6.343137725677153 -329.9336403973884 -6.617851056341159 A 2.25 2.25 0 0 0 -328.382 -8.82181A 328.5 328.5 0 0 1 -328.36 -9.60457A 2.25 2.25 0 0 0 -329.786 -11.8921C -330.74226875371465 -12.220955026502661 -331.74342489715957 -12.582048440979193 -332.78756812645486 -12.978349101920791 C -335.4521869036644 -13.989718365019447 -338.39566450850015 -15.229820865789046 -341.5899070172225 -16.747115611590978 A 342 342 0 0 1 -341.317 -21.6041C -337.9731025114193 -22.75423434350342 -334.9092854491336 -23.65697441209005 -332.1481838058198 -24.363641752136616 C -331.06623433411005 -24.64054360805818 -330.030943615383 -24.887272619837137 -329.0435278807199 -25.10696672812137 A 2.25 2.25 0 0 0 -327.37 -27.2204A 328.5 328.5 0 0 1 -327.304 -28.0007A 2.25 2.25 0 0 0 -328.6 -30.3646C -329.53671556953645 -30.746596132851288 -330.5160500399275 -31.163256753308225 -331.53632988347584 -31.617479537847867 C -334.14004879553795 -32.776664096565135 -337.00936266377227 -34.179857792439954 -340.1135046431627 -35.873868158982354 A 342 342 0 0 1 -339.569 -40.7079C -336.1655682059863 -41.66874073570968 -333.05595405530653 -42.398271034242306 -330.25957298182806 -42.949010451834155 C -329.16379960587625 -43.16481129914764 -328.1163033849233 -43.35310294693105 -327.1181226909583 -43.51708659389186 A 2.25 2.25 0 0 0 -325.329 -45.5334A 328.5 328.5 0 0 1 -325.22 -46.3088A 2.25 2.25 0 0 0 -326.381 -48.7416C -327.2943179613341 -49.175497072621006 -328.2487494101087 -49.6464139305968 -329.241955690055 -50.15712968580808 C -331.77658247398915 -51.46048231666526 -334.5627046826487 -53.0223522411464 -337.56697935361814 -54.887748245092666 A 342 342 0 0 1 -336.752 -59.6837C -333.3003326536956 -60.452141853612126 -330.15470541118634 -61.00616700987134 -327.33184335696154 -61.39924567504678 C -326.2256937852057 -61.5532665244479 -325.16928787267415 -61.68252837305065 -324.1634828651617 -61.790285605466586 A 2.25 2.25 0 0 0 -322.264 -63.7031A 328.5 328.5 0 0 1 -322.111 -64.4711A 2.25 2.25 0 0 0 -323.134 -66.9652C -324.0221313415903 -67.4496737054186 -324.94865677430494 -67.97336512225561 -325.91166449624166 -68.538966947426 C -328.3692242784639 -69.98238682085238 -331.06338865631426 -71.69801875332121 -333.9583434592733 -73.72893116871288 A 342 342 0 0 1 -332.876 -78.4716C -329.3864109456299 -79.0453381681047 -326.214667918366 -79.42211501397935 -323.3742066517758 -79.65629615583264 C -322.2611612400045 -79.74805240074696 -321.1991694797278 -79.81787774457106 -320.1889047933336 -79.8690695183226 A 2.25 2.25 0 0 0 -318.185 -81.6724A 328.5 328.5 0 0 1 -317.99 -82.4306A 2.25 2.25 0 0 0 -318.871 -84.9781C -319.73045122000315 -85.51162871076312 -320.6261554448651 -86.08644695951679 -321.55593463022046 -86.70515526205182 C -323.9286950184465 -88.28410084511165 -326.52242472761014 -90.14809677278596 -329.29895106371845 -92.33813559779897 A 342 342 0 0 1 -327.952 -97.0127C -324.43611772749426 -97.38982860476195 -321.24823839247136 -97.58817166090088 -318.39911505553005 -97.66271845892106 C -317.2826758563959 -97.69192140025555 -316.21843966735094 -97.70209054293645 -315.20689396854027 -97.69655578976425 A 2.25 2.25 0 0 0 -313.105 -99.3847A 328.5 328.5 0 0 1 -312.868 -100.131A 2.25 2.25 0 0 0 -313.605 -102.724C -314.4327808100039 -103.30453249592803 -315.2948456101431 -103.92866898572552 -316.18847082961486 -104.59853708040535 C -318.46896624182637 -106.30804042614076 -320.95410044905077 -108.31453552822 -323.6034623392392 -110.65681009047452 A 342 342 0 0 1 -321.997 -115.248C -318.465028453185 -115.42789460986234 -315.27104305819284 -115.4471798156311 -312.4222220469925 -115.36185771801195 C -311.3059017912587 -115.3284154725091 -310.24276965422575 -115.2788964181617 -309.2331256400029 -115.2166525524469 A 2.25 2.25 0 0 0 -307.04 -116.784A 328.5 328.5 0 0 1 -306.761 -117.516A 2.25 2.25 0 0 0 -307.351 -120.146C -308.14578854265176 -120.77240200286478 -308.97150154327363 -121.44389296940093 -309.8261611213118 -122.16281320337237 C -312.0072162752401 -123.99749558180235 -314.37593582889815 -126.14017668236367 -316.8897974004906 -128.62731731952877 A 342 342 0 0 1 -315.028 -133.122C -311.4919303786494 -133.1027817543121 -308.30188838340143 -132.94294843131854 -305.46233314280556 -132.6980258929453 C -304.34964418699536 -132.60204368228193 -303.29096110899843 -132.4929922361715 -302.28639549296463 -132.37423510014364 A 2.25 2.25 0 0 0 -300.009 -133.816A 328.5 328.5 0 0 1 -299.689 -134.531A 2.25 2.25 0 0 0 -300.131 -137.19C -300.88925562158283 -137.86027685161525 -301.6760188241032 -138.57700953588161 -302.48902368548164 -139.34271992011375 C -304.5637761746997 -141.29680874170865 -306.8086282067337 -143.56893417329405 -309.1790799211869 -146.19311542077173 A 342 342 0 0 1 -307.068 -150.576C -303.53876345022775 -150.35887830407648 -300.36270190704295 -150.0204293470873 -297.54134672837273 -149.6166769848783 C -296.4357900035963 -149.45845680459914 -295.3848869932739 -149.29021608292027 -294.38856051051044 -149.1153193304652 A 2.25 2.25 0 0 0 -292.034 -150.428A 328.5 328.5 0 0 1 -291.674 -151.123A 2.25 2.25 0 0 0 -291.967 -153.803C -292.6860137840255 -154.51439226600053 -293.4313517403348 -155.27411156180685 -294.20014387097683 -156.08420288814528 C -296.162065756569 -158.15154986652914 -298.275987131971 -160.54597068192538 -300.4955706712085 -163.29893589465757 A 342 342 0 0 1 -298.142 -167.557C -294.6305512734653 -167.141890195269 -291.47846324698804 -166.62589048991697 -288.68418515743645 -166.0645786581777 C -287.58923915416665 -165.84461832750574 -286.5494227411858 -165.61771767781192 -285.5644702034129 -165.38723159881846 A 2.25 2.25 0 0 0 -283.14 -166.565A 328.5 328.5 0 0 1 -282.742 -167.24A 2.25 2.25 0 0 0 -282.884 -169.932C -283.56187346370774 -170.68234823749762 -284.263441064847 -171.4826637868702 -284.9856015602839 -172.33458720829742 C -286.82851991015707 -174.5086877050315 -288.80485945020445 -177.01787017050302 -290.8665911832449 -179.8909575014314 A 342 342 0 0 1 -288.278 -184.01C -284.79532237959114 -183.3990118633636 -281.67712550491296 -182.7070849356233 -278.91871633713305 -181.9899797290418 C -277.8378261605871 -181.7089713245548 -276.8123679920781 -181.4241246602351 -275.841888424377 -181.1387744491794 A 2.25 2.25 0 0 0 -273.355 -182.179A 328.5 328.5 0 0 1 -272.92 -182.83A 2.25 2.25 0 0 0 -272.911 -185.526C -273.5455425816843 -186.31327439505264 -274.20113243642515 -187.15166810918498 -274.87438911256464 -188.0427431594358 C -276.5925054237759 -190.31675665001765 -278.42504483310057 -192.93280594921993 -280.32243778914466 -195.9169756026615 A 342 342 0 0 1 -277.507 -199.884C -274.06402203738963 -199.07909238903676 -270.9895273155001 -198.2134152970111 -268.27566604524674 -197.34277299387068 C -267.21223257581096 -197.00160067197226 -266.204359122555 -196.65970422601578 -265.25140601268834 -196.32038770023118 A 2.25 2.25 0 0 0 -262.71 -197.22A 328.5 328.5 0 0 1 -262.239 -197.845A 2.25 2.25 0 0 0 -262.079 -200.536C -262.66853622059534 -201.35799006208828 -263.27608560070996 -202.23182404417983 -263.898320142968 -203.15924707148014 C -265.4862285859604 -205.52601866816448 -267.16920201760627 -208.24070374215725 -268.8962862964465 -211.3265664163458 A 342 342 0 0 1 -265.863 -215.13C -262.47041488793604 -214.13279643788363 -259.4492958166837 -213.09609292197385 -256.78852125554516 -212.07465288506677 C -255.74589044834678 -211.67439010010324 -254.75877285310506 -211.27651960521843 -253.82634454411527 -210.88430438003013 A 2.25 2.25 0 0 0 -251.239 -211.64A 328.5 328.5 0 0 1 -250.733 -212.238A 2.25 2.25 0 0 0 -250.422 -214.916C -250.96507746655763 -215.7691589971072 -251.52267479692466 -216.67568384216298 -252.09192942522657 -217.63653683055546 C -253.5446338525691 -220.08861979427792 -255.07274604947992 -222.8933992394816 -256.62408760501535 -226.0712456687849 A 342 342 0 0 1 -253.383 -229.699C -250.05097870854422 -228.51275948763248 -247.09274084623357 -227.30829140064293 -244.49342477537095 -226.13926745822178 C -243.47487713266577 -225.68117358499757 -242.51162123259112 -225.22858088895927 -241.60265148890355 -224.78470101857135 A 2.25 2.25 0 0 0 -238.977 -225.394A 328.5 328.5 0 0 1 -238.439 -225.963A 2.25 2.25 0 0 0 -237.978 -228.619C -238.4719897306742 -229.50143833102103 -238.97788060380108 -230.43780177649649 -239.49236423248237 -231.42906152699828 C -240.80529389859763 -233.95874069757167 -242.17373685445494 -236.84478964018322 -243.54445459221083 -240.1046211440448 A 342 342 0 0 1 -240.105 -243.544C -236.8447896401833 -242.17373685445486 -233.95874069757176 -240.80529389859754 -231.42906152699834 -239.49236423248232 C -230.43780177649657 -238.97788060380105 -229.5014383310211 -238.47198973067415 -228.6187871077358 -237.97784182537856 A 2.25 2.25 0 0 0 -225.963 -238.439A 328.5 328.5 0 0 1 -225.394 -238.977A 2.25 2.25 0 0 0 -224.785 -241.603C -225.22858088895939 -242.51162123259104 -225.68117358499768 -243.47487713266565 -226.13926745822187 -244.4934247753709 C -227.30829140064304 -247.09274084623348 -228.5127594876326 -250.05097870854416 -229.69854062248925 -253.38253865103135 A 342 342 0 0 1 -226.071 -256.624C -222.8933992394817 -255.07274604947986 -220.08861979427803 -253.544633852569 -217.63653683055554 -252.0919294252265 C -216.6756838421631 -251.5226747969246 -215.76915899710733 -250.96507746655755 -214.91560344152225 -250.42221629848152 A 2.25 2.25 0 0 0 -212.238 -250.733A 328.5 328.5 0 0 1 -211.64 -251.239A 2.25 2.25 0 0 0 -210.884 -253.826C -211.27651960521854 -254.75877285310494 -211.67439010010335 -255.74589044834673 -212.07465288506688 -256.7885212555451 C -213.09609292197396 -259.4492958166836 -214.13279643788374 -262.470414887936 -215.1299100636941 -265.86322094891125 A 342 342 0 0 1 -211.327 -268.896C -208.24070374215736 -267.1692020176062 -205.5260186681646 -265.48622858596036 -203.15924707148025 -263.8983201429679 C -202.23182404417994 -263.2760856007099 -201.3579900620884 -262.66853622059523 -200.53621577576655 -262.07866983181276 A 2.25 2.25 0 0 0 -197.845 -262.239A 328.5 328.5 0 0 1 -197.22 -262.71A 2.25 2.25 0 0 0 -196.32 -265.251C -196.659704226016 -266.20435912255476 -197.00160067197248 -267.2122325758108 -197.3427729938709 -268.27566604524657 C -198.21341529701132 -270.9895273154999 -199.079092389037 -274.0640220373894 -199.88440121743778 -277.5073991937676 A 342 342 0 0 1 -195.917 -280.322C -192.93280594922015 -278.42504483310034 -190.31675665001788 -276.5925054237757 -188.04274315943601 -274.8743891125645 C -187.1516681091852 -274.201132436425 -186.31327439505287 -273.54554258168406 -185.52586698392625 -272.91052691008383 A 2.25 2.25 0 0 0 -182.83 -272.92A 328.5 328.5 0 0 1 -182.179 -273.355A 2.25 2.25 0 0 0 -181.139 -275.842C -181.4241246602352 -276.81236799207807 -181.7089713245549 -277.83782616058704 -181.98997972904192 -278.918716337133 C -182.70708493562339 -281.67712550491285 -183.3990118633637 -284.795322379591 -184.0099820948452 -288.2784364929113 A 342 342 0 0 1 -179.891 -290.867C -177.01787017050313 -288.80485945020433 -174.50868770503158 -286.82851991015696 -172.33458720829753 -284.98560156028384 C -171.48266378687032 -284.2634410648469 -170.68234823749773 -283.5618734637077 -169.9317851765944 -282.88370650352573 A 2.25 2.25 0 0 0 -167.24 -282.742A 328.5 328.5 0 0 1 -166.565 -283.14A 2.25 2.25 0 0 0 -165.387 -285.564C -165.61771767781187 -286.5494227411858 -165.8446183275057 -287.58923915416665 -166.06457865817768 -288.68418515743645 C -166.6258904899169 -291.47846324698804 -167.14189019526896 -294.6305512734653 -167.55659949144567 -298.14244317809903 A 342 342 0 0 1 -163.299 -300.496C -160.54597068192538 -298.275987131971 -158.15154986652908 -296.162065756569 -156.08420288814526 -294.20014387097683 C -155.27411156180682 -293.4313517403348 -154.51439226600047 -292.6860137840255 -153.80303510439163 -291.96682929941613 A 2.25 2.25 0 0 0 -151.123 -291.674A 328.5 328.5 0 0 1 -150.428 -292.034A 2.25 2.25 0 0 0 -149.115 -294.389C -149.29021608292035 -295.3848869932738 -149.45845680459922 -296.43579000359625 -149.61667698487838 -297.5413467283727 C -150.02042934708737 -300.3627019070429 -150.35887830407657 -303.5387634502277 -150.57602183607506 -307.06838343496804 A 342 342 0 0 1 -146.193 -309.179C -143.56893417329414 -306.80862820673366 -141.29680874170873 -304.5637761746996 -139.34271992011384 -302.4890236854816 C -138.5770095358817 -301.67601882410315 -137.86027685161534 -300.8892556215828 -137.1903637821082 -300.13131643300727 A 2.25 2.25 0 0 0 -134.531 -299.689A 328.5 328.5 0 0 1 -133.816 -300.009A 2.25 2.25 0 0 0 -132.374 -302.286C -132.4929922361717 -303.2909611089984 -132.60204368228213 -304.34964418699525 -132.69802589294554 -305.4623331428055 C -132.94294843131877 -308.3018883834013 -133.10278175431233 -311.4919303786493 -133.1216763082456 -315.0281729531907 A 342 342 0 0 1 -128.627 -316.89C -126.1401766823639 -314.37593582889804 -123.99749558180258 -312.00721627524 -122.16281320337261 -309.82616112131177 C -121.44389296940115 -308.97150154327363 -120.772402002865 -308.1457885426517 -120.14604081982019 -307.35147940720765 A 2.25 2.25 0 0 0 -117.516 -306.761A 328.5 328.5 0 0 1 -116.784 -307.04A 2.25 2.25 0 0 0 -115.217 -309.233C -115.27889641816176 -310.2427696542257 -115.32841547250918 -311.30590179125863 -115.36185771801202 -312.4222220469925 C -115.44717981563117 -315.27104305819284 -115.4278946098624 -318.46502845318497 -115.24848073647344 -321.99676729010406 A 342 342 0 0 1 -110.657 -323.603C -108.31453552822008 -320.9541004490507 -106.30804042614083 -318.46896624182637 -104.59853708040542 -316.18847082961486 C -103.9286689857256 -315.29484561014306 -103.3045324959281 -314.43278081000386 -102.72369396335883 -313.6046009180977 A 2.25 2.25 0 0 0 -100.131 -312.868A 328.5 328.5 0 0 1 -99.3847 -313.105A 2.25 2.25 0 0 0 -97.6966 -315.207C -97.70209054293642 -316.21843966735094 -97.69192140025551 -317.2826758563959 -97.66271845892102 -318.39911505553005 C -97.58817166090085 -321.24823839247136 -97.3898286047619 -324.43611772749426 -97.01267080647312 -327.9522406697927 A 342 342 0 0 1 -92.3381 -329.299C -90.14809677278592 -326.52242472761014 -88.28410084511162 -323.9286950184465 -86.70515526205178 -321.55593463022046 C -86.08644695951675 -320.6261554448651 -85.51162871076309 -319.73045122000315 -84.97814036158235 -318.87100633197167 A 2.25 2.25 0 0 0 -82.4306 -317.99A 328.5 328.5 0 0 1 -81.6724 -318.185A 2.25 2.25 0 0 0 -79.8691 -320.189C -79.81787774457116 -321.19916947972774 -79.74805240074706 -322.26116124000447 -79.65629615583273 -323.3742066517758 C -79.42211501397945 -326.21466791836593 -79.04533816810482 -329.3864109456299 -78.4716231228846 -332.87585496969086 A 342 342 0 0 1 -73.7289 -333.958C -71.69801875332132 -331.06338865631426 -69.98238682085248 -328.36922427846383 -68.5389669474261 -325.91166449624166 C -67.97336512225571 -324.9486567743049 -67.4496737054187 -324.02213134159024 -66.9652140913447 -323.13412558901524 A 2.25 2.25 0 0 0 -64.4711 -322.111A 328.5 328.5 0 0 1 -63.7031 -322.264A 2.25 2.25 0 0 0 -61.7903 -324.163C -61.68252837305089 -325.1692878726741 -61.553266524448134 -326.22569378520564 -61.39924567504702 -327.33184335696143 C -61.00616700987158 -330.1547054111863 -60.45214185361237 -333.3003326536956 -59.683674681247105 -336.7521186776496 A 342 342 0 0 1 -54.8877 -337.567C -53.02235224114664 -334.5627046826487 -51.4604823166655 -331.7765824739891 -50.15712968580832 -329.241955690055 C -49.646413930597035 -328.24874941010864 -49.17549707262125 -327.29431796133406 -48.74159048283266 -326.3805453388436 A 2.25 2.25 0 0 0 -46.3088 -325.22A 328.5 328.5 0 0 1 -45.5334 -325.329A 2.25 2.25 0 0 0 -43.5171 -327.118C -43.35310294693116 -328.1163033849233 -43.164811299147736 -329.16379960587625 -42.949010451834255 -330.25957298182806 C -42.398271034242406 -333.05595405530653 -41.66874073570978 -336.1655682059863 -40.707939318229194 -339.56883563396406 A 342 342 0 0 1 -35.8739 -340.114C -34.17985779244005 -337.00936266377227 -32.776664096565234 -334.14004879553795 -31.617479537847966 -331.53632988347584 C -31.163256753308325 -330.5160500399275 -30.746596132851394 -329.53671556953645 -30.364607798009672 -328.60005114386416 A 2.25 2.25 0 0 0 -28.0007 -327.304A 328.5 328.5 0 0 1 -27.2204 -327.37A 2.25 2.25 0 0 0 -25.107 -329.044C -24.88727261983709 -330.030943615383 -24.640543608058135 -331.06623433411005 -24.36364175213657 -332.1481838058198 C -23.65697441209001 -334.9092854491336 -22.75423434350337 -337.9731025114193 -21.604121717629138 -341.31714340500474 A 342 342 0 0 1 -16.7471 -341.59C -15.229820865788996 -338.39566450850015 -13.989718365019401 -335.4521869036644 -12.978349101920745 -332.78756812645486 C -12.582048440979147 -331.74342489715957 -12.220955026502615 -330.74226875371465 -11.89208682323125 -329.7856596176763 A 2.25 2.25 0 0 0 -9.60457 -328.36A 328.5 328.5 0 0 1 -8.82181 -328.382A 2.25 2.25 0 0 0 -6.61785 -329.934C -6.343137725677254 -330.90718439753965 -6.03874765065476 -331.92701220641896 -5.701616021807658 -332.99173356056605 C -4.841244196199908 -335.70886832643595 -3.768134711796691 -338.7172483983465 -2.4323295573505086 -341.99154116771246 A 342 342 0 0 1 2.43233 -341.992C 3.7681347117965664 -338.7172483983465 4.841244196199786 -335.70886832643595 5.701616021807536 -332.99173356056605 C 6.038747650654638 -331.92701220641896 6.343137725677133 -330.90718439753965 6.617851056341139 -329.9336403973884 A 2.25 2.25 0 0 0 8.82181 -328.382A 328.5 328.5 0 0 1 9.60457 -328.36A 2.25 2.25 0 0 0 11.8921 -329.786C 12.220955026502498 -330.74226875371465 12.58204844097903 -331.74342489715957 12.978349101920625 -332.7875681264548 C 13.98971836501928 -335.4521869036644 15.229820865788875 -338.39566450850015 16.747115611590807 -341.5899070172225 A 342 342 0 0 1 21.6041 -341.317C 22.75423434350325 -337.9731025114193 23.656974412089887 -334.9092854491336 24.36364175213645 -332.1481838058199 C 24.640543608058017 -331.06623433411005 24.887272619836974 -330.030943615383 25.106966728121208 -329.0435278807199 A 2.25 2.25 0 0 0 27.2204 -327.37A 328.5 328.5 0 0 1 28.0007 -327.304A 2.25 2.25 0 0 0 30.3646 -328.6C 30.746596132851273 -329.53671556953645 31.163256753308204 -330.5160500399275 31.617479537847846 -331.53632988347584 C 32.77666409656511 -334.14004879553795 34.17985779243993 -337.00936266377227 35.87386815898234 -340.1135046431627 A 342 342 0 0 1 40.7079 -339.569C 41.66874073570966 -336.1655682059863 42.398271034242285 -333.05595405530653 42.94901045183414 -330.25957298182806 C 43.164811299147615 -329.16379960587625 43.35310294693104 -328.1163033849233 43.51708659389185 -327.1181226909583 A 2.25 2.25 0 0 0 45.5334 -325.329A 328.5 328.5 0 0 1 46.3088 -325.22A 2.25 2.25 0 0 0 48.7416 -326.381C 49.17549707262113 -327.2943179613341 49.646413930596914 -328.2487494101087 50.1571296858082 -329.241955690055 C 51.46048231666538 -331.77658247398915 53.02235224114652 -334.5627046826487 54.88774824509279 -337.56697935361814 A 342 342 0 0 1 59.6837 -336.752C 60.45214185361225 -333.3003326536956 61.00616700987146 -330.15470541118634 61.3992456750469 -327.33184335696154 C 61.55326652444801 -326.2256937852057 61.68252837305077 -325.16928787267415 61.7902856054667 -324.1634828651617 A 2.25 2.25 0 0 0 63.7031 -322.264A 328.5 328.5 0 0 1 64.4711 -322.111A 2.25 2.25 0 0 0 66.9652 -323.134C 67.44967370541858 -324.0221313415903 67.97336512225559 -324.94865677430494 68.53896694742598 -325.91166449624166 C 69.98238682085235 -328.3692242784639 71.69801875332118 -331.06338865631426 73.72893116871285 -333.9583434592733 A 342 342 0 0 1 78.4716 -332.876C 79.04533816810468 -329.3864109456299 79.42211501397932 -326.214667918366 79.6562961558326 -323.3742066517758 C 79.74805240074693 -322.2611612400045 79.81787774457104 -321.1991694797278 79.86906951832258 -320.1889047933336 A 2.25 2.25 0 0 0 81.6724 -318.185A 328.5 328.5 0 0 1 82.4306 -317.99A 2.25 2.25 0 0 0 84.9781 -318.871C 85.51162871076298 -319.7304512200032 86.08644695951665 -320.62615544486516 86.70515526205165 -321.5559346302205 C 88.28410084511151 -323.9286950184465 90.1480967727858 -326.5224247276102 92.33813559779881 -329.29895106371845 A 342 342 0 0 1 97.0127 -327.952C 97.38982860476179 -324.4361177274943 97.58817166090074 -321.24823839247136 97.66271845892092 -318.3991150555301 C 97.69192140025541 -317.28267585639594 97.7020905429363 -316.218439667351 97.69655578976409 -315.2068939685403 A 2.25 2.25 0 0 0 99.3847 -313.105A 328.5 328.5 0 0 1 100.131 -312.868A 2.25 2.25 0 0 0 102.724 -313.605C 103.30453249592802 -314.4327808100039 103.92866898572551 -315.2948456101431 104.59853708040534 -316.18847082961486 C 106.30804042614075 -318.46896624182637 108.31453552821999 -320.95410044905077 110.6568100904745 -323.6034623392392 A 342 342 0 0 1 115.248 -321.997C 115.42789460986232 -318.465028453185 115.44717981563109 -315.27104305819284 115.36185771801193 -312.4222220469925 C 115.32841547250909 -311.3059017912587 115.27889641816168 -310.24276965422575 115.21665255244687 -309.2331256400029 A 2.25 2.25 0 0 0 116.784 -307.04A 328.5 328.5 0 0 1 117.516 -306.761A 2.25 2.25 0 0 0 120.146 -307.351C 120.77240200286488 -308.1457885426517 121.44389296940103 -308.9715015432737 122.16281320337248 -309.8261611213118 C 123.99749558180247 -312.00721627524007 126.14017668236379 -314.3759358288981 128.62731731952888 -316.8897974004905 A 342 342 0 0 1 133.122 -315.028C 133.10278175431222 -311.49193037864933 132.94294843131865 -308.3018883834014 132.69802589294542 -305.46233314280556 C 132.60204368228202 -304.3496441869953 132.49299223617157 -303.2909611089984 132.37423510014372 -302.2863954929646 A 2.25 2.25 0 0 0 133.816 -300.009A 328.5 328.5 0 0 1 134.531 -299.689A 2.25 2.25 0 0 0 137.19 -300.131C 137.86027685161523 -300.8892556215829 138.5770095358816 -301.67601882410327 139.34271992011372 -302.4890236854817 C 141.29680874170862 -304.5637761746997 143.56893417329402 -306.8086282067338 146.1931154207717 -309.1790799211869 A 342 342 0 0 1 150.576 -307.068C 150.35887830407646 -303.5387634502278 150.02042934708726 -300.36270190704295 149.61667698487827 -297.5413467283728 C 149.4584568045991 -296.43579000359637 149.29021608292024 -295.38488699327394 149.11531933046518 -294.3885605105105 A 2.25 2.25 0 0 0 150.428 -292.034A 328.5 328.5 0 0 1 151.123 -291.674A 2.25 2.25 0 0 0 153.803 -291.967C 154.51439226600036 -292.68601378402553 155.27411156180668 -293.43135174033483 156.08420288814511 -294.2001438709769 C 158.15154986652897 -296.16206575656906 160.5459706819252 -298.27598713197114 163.2989358946574 -300.49557067120855 A 342 342 0 0 1 167.557 -298.142C 167.14189019526884 -294.6305512734654 166.6258904899168 -291.4784632469881 166.06457865817754 -288.6841851574365 C 165.84461832750557 -287.5892391541667 165.61771767781175 -286.5494227411859 165.3872315988183 -285.56447020341295 A 2.25 2.25 0 0 0 166.565 -283.14A 328.5 328.5 0 0 1 167.24 -282.742A 2.25 2.25 0 0 0 169.932 -282.884C 170.6823482374976 -283.5618734637078 171.48266378687018 -284.263441064847 172.33458720829736 -284.98560156028395 C 174.50868770503143 -286.82851991015707 177.017870170503 -288.80485945020445 179.89095750143133 -290.86659118324496 A 342 342 0 0 1 184.01 -288.278C 183.39901186336357 -284.79532237959114 182.70708493562324 -281.67712550491296 181.98997972904175 -278.9187163371331 C 181.70897132455477 -277.8378261605871 181.42412466023507 -276.8123679920782 181.13877444917938 -275.84188842437703 A 2.25 2.25 0 0 0 182.179 -273.355A 328.5 328.5 0 0 1 182.83 -272.92A 2.25 2.25 0 0 0 185.526 -272.911C 186.31327439505276 -273.5455425816842 187.1516681091851 -274.20113243642504 188.0427431594359 -274.8743891125646 C 190.31675665001777 -276.59250542377583 192.93280594922004 -278.42504483310046 195.9169756026616 -280.3224377891446 A 342 342 0 0 1 199.884 -277.507C 199.07909238903687 -274.0640220373895 198.2134152970112 -270.9895273155 197.3427729938708 -268.2756660452467 C 197.00160067197237 -267.21223257581084 196.6597042260159 -266.2043591225549 196.3203877002313 -265.2514060126882 A 2.25 2.25 0 0 0 197.22 -262.71A 328.5 328.5 0 0 1 197.845 -262.239A 2.25 2.25 0 0 0 200.536 -262.079C 201.35799006208828 -262.66853622059534 202.23182404417983 -263.27608560070996 203.15924707148014 -263.898320142968 C 205.52601866816448 -265.4862285859604 208.24070374215725 -267.16920201760627 211.3265664163458 -268.8962862964465 A 342 342 0 0 1 215.13 -265.863C 214.13279643788363 -262.47041488793604 213.09609292197385 -259.4492958166837 212.07465288506677 -256.78852125554516 C 211.67439010010324 -255.74589044834678 211.27651960521843 -254.75877285310506 210.88430438003013 -253.82634454411527 A 2.25 2.25 0 0 0 211.64 -251.239A 328.5 328.5 0 0 1 212.238 -250.733A 2.25 2.25 0 0 0 214.916 -250.422C 215.76915899710713 -250.96507746655774 216.67568384216287 -251.52267479692478 217.63653683055534 -252.09192942522668 C 220.0886197942778 -253.54463385256918 222.89339923948148 -255.07274604948003 226.0712456687848 -256.62408760501546 A 342 342 0 0 1 229.699 -253.383C 228.51275948763237 -250.05097870854433 227.30829140064282 -247.09274084623365 226.13926745822167 -244.49342477537107 C 225.68117358499745 -243.47487713266588 225.2285808889592 -242.51162123259124 224.78470101857124 -241.60265148890366 A 2.25 2.25 0 0 0 225.394 -238.977A 328.5 328.5 0 0 1 225.963 -238.439A 2.25 2.25 0 0 0 228.619 -237.978C 229.50143833102103 -238.4719897306742 230.43780177649649 -238.97788060380108 231.42906152699828 -239.49236423248237 C 233.95874069757167 -240.80529389859763 236.84478964018322 -242.17373685445494 240.1046211440448 -243.54445459221083 A 342 342 0 0 1 243.544 -240.105C 242.17373685445486 -236.8447896401833 240.80529389859754 -233.95874069757176 239.49236423248232 -231.42906152699834 C 238.97788060380105 -230.43780177649657 238.47198973067415 -229.5014383310211 237.97784182537856 -228.6187871077358 A 2.25 2.25 0 0 0 238.439 -225.963A 328.5 328.5 0 0 1 238.977 -225.394A 2.25 2.25 0 0 0 241.603 -224.785C 242.51162123259112 -225.22858088895927 243.47487713266577 -225.68117358499757 244.49342477537095 -226.13926745822178 C 247.09274084623357 -227.30829140064293 250.05097870854422 -228.51275948763248 253.3825386510314 -229.69854062248913 A 342 342 0 0 1 256.624 -226.071C 255.07274604947992 -222.8933992394816 253.5446338525691 -220.08861979427792 252.09192942522657 -217.63653683055546 C 251.52267479692466 -216.67568384216298 250.96507746655763 -215.7691589971072 250.42221629848157 -214.91560344152214 A 2.25 2.25 0 0 0 250.733 -212.238A 328.5 328.5 0 0 1 251.239 -211.64A 2.25 2.25 0 0 0 253.826 -210.884C 254.75877285310494 -211.27651960521854 255.74589044834673 -211.67439010010335 256.7885212555451 -212.07465288506688 C 259.4492958166836 -213.09609292197396 262.470414887936 -214.13279643788374 265.86322094891125 -215.1299100636941 A 342 342 0 0 1 268.896 -211.327C 267.1692020176062 -208.24070374215736 265.48622858596036 -205.5260186681646 263.8983201429679 -203.15924707148025 C 263.2760856007099 -202.23182404417994 262.66853622059523 -201.3579900620884 262.07866983181276 -200.53621577576655 A 2.25 2.25 0 0 0 262.239 -197.845A 328.5 328.5 0 0 1 262.71 -197.22A 2.25 2.25 0 0 0 265.251 -196.32C 266.20435912255476 -196.659704226016 267.2122325758108 -197.00160067197248 268.27566604524657 -197.3427729938709 C 270.9895273154999 -198.21341529701132 274.0640220373894 -199.079092389037 277.5073991937676 -199.88440121743778 A 342 342 0 0 1 280.322 -195.917C 278.42504483310034 -192.93280594922015 276.5925054237757 -190.31675665001788 274.8743891125645 -188.04274315943601 C 274.201132436425 -187.1516681091852 273.54554258168406 -186.31327439505287 272.91052691008383 -185.52586698392625 A 2.25 2.25 0 0 0 272.92 -182.83A 328.5 328.5 0 0 1 273.355 -182.179A 2.25 2.25 0 0 0 275.842 -181.139C 276.81236799207807 -181.4241246602352 277.83782616058704 -181.7089713245549 278.918716337133 -181.98997972904192 C 281.67712550491285 -182.70708493562339 284.795322379591 -183.3990118633637 288.2784364929113 -184.0099820948452 A 342 342 0 0 1 290.867 -179.891C 288.80485945020433 -177.01787017050313 286.82851991015696 -174.50868770503158 284.98560156028384 -172.33458720829753 C 284.2634410648469 -171.48266378687032 283.5618734637077 -170.68234823749773 282.88370650352573 -169.9317851765944 A 2.25 2.25 0 0 0 282.742 -167.24A 328.5 328.5 0 0 1 283.14 -166.565A 2.25 2.25 0 0 0 285.564 -165.387C 286.5494227411858 -165.61771767781187 287.58923915416665 -165.8446183275057 288.68418515743645 -166.06457865817768 C 291.47846324698804 -166.6258904899169 294.6305512734653 -167.14189019526896 298.14244317809903 -167.55659949144567 A 342 342 0 0 1 300.496 -163.299C 298.275987131971 -160.54597068192538 296.162065756569 -158.15154986652908 294.20014387097683 -156.08420288814526 C 293.4313517403348 -155.27411156180682 292.6860137840255 -154.51439226600047 291.96682929941613 -153.80303510439163 A 2.25 2.25 0 0 0 291.674 -151.123A 328.5 328.5 0 0 1 292.034 -150.428A 2.25 2.25 0 0 0 294.389 -149.115C 295.3848869932738 -149.29021608292035 296.43579000359625 -149.45845680459922 297.5413467283727 -149.61667698487838 C 300.3627019070429 -150.02042934708737 303.5387634502277 -150.35887830407657 307.06838343496804 -150.57602183607506 A 342 342 0 0 1 309.179 -146.193C 306.80862820673366 -143.56893417329414 304.5637761746996 -141.29680874170873 302.4890236854816 -139.34271992011384 C 301.67601882410315 -138.5770095358817 300.8892556215828 -137.86027685161534 300.13131643300727 -137.1903637821082 A 2.25 2.25 0 0 0 299.689 -134.531A 328.5 328.5 0 0 1 300.009 -133.816A 2.25 2.25 0 0 0 302.286 -132.374C 303.2909611089984 -132.49299223617172 304.34964418699525 -132.60204368228216 305.4623331428055 -132.69802589294554 C 308.3018883834013 -132.94294843131877 311.4919303786493 -133.10278175431236 315.0281729531907 -133.1216763082456 A 342 342 0 0 1 316.89 -128.627C 314.37593582889804 -126.14017668236393 312.00721627524 -123.99749558180258 309.82616112131177 -122.16281320337262 C 308.97150154327363 -121.44389296940116 308.1457885426517 -120.77240200286501 307.35147940720765 -120.1460408198202 A 2.25 2.25 0 0 0 306.761 -117.516A 328.5 328.5 0 0 1 307.04 -116.784A 2.25 2.25 0 0 0 309.233 -115.217C 310.2427696542257 -115.27889641816179 311.30590179125863 -115.3284154725092 312.4222220469925 -115.36185771801205 C 315.27104305819284 -115.4471798156312 318.46502845318497 -115.42789460986242 321.99676729010406 -115.24848073647347 A 342 342 0 0 1 323.603 -110.657C 320.9541004490507 -108.31453552822009 318.46896624182637 -106.30804042614086 316.18847082961486 -104.59853708040545 C 315.29484561014306 -103.92866898572562 314.43278081000386 -103.30453249592813 313.6046009180977 -102.72369396335884 A 2.25 2.25 0 0 0 312.868 -100.131A 328.5 328.5 0 0 1 313.105 -99.3847A 2.25 2.25 0 0 0 315.207 -97.6966C 316.21843966735094 -97.70209054293643 317.2826758563959 -97.69192140025554 318.39911505553005 -97.66271845892105 C 321.24823839247136 -97.58817166090087 324.43611772749426 -97.38982860476193 327.9522406697926 -97.01267080647314 A 342 342 0 0 1 329.299 -92.3381C 326.52242472761014 -90.14809677278595 323.9286950184465 -88.28410084511164 321.55593463022046 -86.7051552620518 C 320.6261554448651 -86.08644695951678 319.73045122000315 -85.5116287107631 318.87100633197167 -84.97814036158236 A 2.25 2.25 0 0 0 317.99 -82.4306A 328.5 328.5 0 0 1 318.185 -81.6724A 2.25 2.25 0 0 0 320.189 -79.8691C 321.19916947972774 -79.81787774457118 322.26116124000447 -79.74805240074707 323.3742066517758 -79.65629615583275 C 326.21466791836593 -79.42211501397946 329.3864109456299 -79.04533816810483 332.87585496969086 -78.47162312288461 A 342 342 0 0 1 333.958 -73.7289C 331.06338865631426 -71.69801875332134 328.36922427846383 -69.9823868208525 325.91166449624166 -68.53896694742612 C 324.9486567743049 -67.97336512225573 324.02213134159024 -67.44967370541872 323.13412558901524 -66.96521409134473 A 2.25 2.25 0 0 0 322.111 -64.4711A 328.5 328.5 0 0 1 322.264 -63.7031A 2.25 2.25 0 0 0 324.163 -61.7903C 325.1692878726741 -61.68252837305091 326.22569378520564 -61.553266524448155 327.33184335696143 -61.399245675047034 C 330.1547054111863 -61.0061670098716 333.3003326536956 -60.45214185361239 336.7521186776496 -59.68367468124712 A 342 342 0 0 1 337.567 -54.8877C 334.5627046826487 -53.02235224114666 331.7765824739891 -51.46048231666551 329.241955690055 -50.157129685808336 C 328.24874941010864 -49.646413930597056 327.29431796133406 -49.17549707262126 326.3805453388436 -48.741590482832684 A 2.25 2.25 0 0 0 325.22 -46.3088A 328.5 328.5 0 0 1 325.329 -45.5334A 2.25 2.25 0 0 0 327.118 -43.5171C 328.1163033849233 -43.35310294693118 329.16379960587625 -43.16481129914776 330.25957298182806 -42.94901045183428 C 333.05595405530653 -42.398271034242434 336.1655682059863 -41.668740735709804 339.56883563396406 -40.707939318229215 A 342 342 0 0 1 340.114 -35.8739C 337.00936266377227 -34.179857792440075 334.14004879553795 -32.77666409656526 331.53632988347584 -31.617479537847988 C 330.5160500399275 -31.163256753308346 329.53671556953645 -30.746596132851415 328.60005114386416 -30.3646077980097 A 2.25 2.25 0 0 0 327.304 -28.0007A 328.5 328.5 0 0 1 327.37 -27.2204A 2.25 2.25 0 0 0 329.044 -25.107C 330.030943615383 -24.887272619837113 331.06623433411005 -24.640543608058156 332.1481838058198 -24.36364175213659 C 334.9092854491336 -23.65697441209003 337.9731025114193 -22.75423434350339 341.31714340500474 -21.60412171762916 A 342 342 0 0 1 341.59 -16.7471C 338.39566450850015 -15.229820865789018 335.4521869036644 -13.989718365019423 332.78756812645486 -12.978349101920767 C 331.74342489715957 -12.582048440979168 330.74226875371465 -12.220955026502637 329.7856596176763 -11.89208682323127 A 2.25 2.25 0 0 0 328.36 -9.60457A 328.5 328.5 0 0 1 328.382 -8.82181A 2.25 2.25 0 0 0 329.934 -6.61785" stroke="#191919" stroke-width="0.35 px" style="stroke-width:0.35;stroke-miterlimit:4;stroke-dasharray:none;fill:none;fill-rule: evenodd "/>
<title>b'InvoluteGear'</title>
</g>
</svg>