<?xml version="1.0"?>
<!DOCTYPE svg PUBLIC "-//W3C//DTD SVG 1.1//EN" "http://www.w3.org/Graphics/SVG/1.1/DTD/svg11.dtd">
<svg width="52.966693816293954mm" height="54.302122466169294mm" viewBox="0 0 52.966693816293954 54.302122466169294" xmlns="http://www.w3.org/2000/svg" version="1.1">
<g id="InvoluteGear" transform="translate(25.478391,27.151061) scale(1,-1)">
<path id="InvoluteGear_w0000"  d="M 15.144236337159239 -3.6948756087675916 L 19.26223859924922 -4.693253713995432 C 19.493539786445005 -4.726698578240313 20.18538409829112 -4.78342582169772 21.372919781352273 -4.5089729663799725 C 22.773258400203254 -4.168754352831578 24.733323778833373 -3.3658516332438806 26.969021895960807 -1.52312730545962 A 27 27 0 0 1 26.969 1.52313C 24.733323778833373 3.3658516332438806 22.773258400203254 4.168754352831578 21.372919781352273 4.5089729663799725 C 20.18538409829112 4.78342582169772 19.493539786445005 4.726698578240313 19.26223859924922 4.693253713995432 L 15.14423633715924 3.69487560876759 A 2.25 2.25 0 0 0 12.531 5.02248A 13.5 13.5 0 0 1 11.7397 6.66563A 2.25 2.25 0 0 0 12.331 9.53652L 15.679142836413181 12.133628731492145 C 15.849505015581089 12.293614749792807 16.325214033339744 12.799151555977279 16.85105453833106 13.89872289593029 C 17.45815776333983 15.205674550213729 18.052503914359225 17.238717028469942 18.00573899745148 20.135576027745145 A 27 27 0 0 1 15.6241 22.0349C 12.789446369986221 21.43586536426419 10.939630971901103 20.404026201103115 9.800540500904813 19.52132021871956 C 8.84554823043218 18.7639859915298 8.458541502370784 18.18771146977883 8.340475818789912 17.986020387915698 L 6.553506838419521 14.143958007530584 A 2.25 2.25 0 0 0 3.88619 12.9286A 13.5 13.5 0 0 1 2.10816 13.3344A 2.25 2.25 0 0 0 0.232328 15.5867L 0.2893327215308519 19.82364126124638 C 0.2704696970023077 20.056585427192157 0.17182482760570572 20.74370675689007 -0.3599984709227826 21.840396935326012 C -1.0032917508367287 23.129920377713866 -2.2222196015976827 24.862180162002886 -4.516232616278616 26.631779921160195 A 27 27 0 0 1 -7.48611 25.9539C -8.785145012622158 23.364235264027258 -9.131761706046689 21.2746501536608 -9.151845671317004 19.833715184000724 C -9.155165871243058 18.614881994180216 -8.945911055790937 17.953006662872124 -8.861835367919461 17.73494686178197 L -6.972146976827158 13.942351542459395 A 2.25 2.25 0 0 0 -7.68495 11.0992A 13.5 13.5 0 0 1 -9.11082 9.96207A 2.25 2.25 0 0 0 -12.0413 9.89981L -15.31835083397614 12.586047592694097 C -15.512234819995566 12.716538198132795 -16.110951977903156 13.067827675360846 -17.299965288941245 13.335806619514726 C -18.709242113211218 13.636864396404478 -20.82356643253269 13.763914537496687 -23.63738895559449 13.07371034463399 A 27 27 0 0 1 -24.9591 10.3291C -23.74434301642628 7.698859466434191 -22.32675156534954 6.12502861673658 -21.212705389407105 5.2109180816707745 C -20.261853340522528 4.448392180820459 -19.613910125612673 4.199321664226498 -19.39100377408755 4.129096621739521 L -15.247631912643385 3.241869993775048 A 2.25 2.25 0 0 0 -13.4692 0.911879A 13.5 13.5 0 0 1 -13.4692 -0.911879A 2.25 2.25 0 0 0 -15.2476 -3.24187L -19.391003774087554 -4.1290966217395155 C -19.613910125612676 -4.199321664226493 -20.261853340522528 -4.448392180820455 -21.21270538940711 -5.210918081670768 C -22.326751565349543 -6.125028616736577 -23.744343016426285 -7.698859466434186 -24.959109296484232 -10.329129776491552 A 27 27 0 0 1 -23.6374 -13.0737C -20.823566432532694 -13.763914537496682 -18.70924211321122 -13.636864396404475 -17.299965288941248 -13.33580661951472 C -16.110951977903163 -13.067827675360842 -15.51223481999557 -12.716538198132792 -15.318350833976144 -12.586047592694092 L -12.041339023230694 -9.89980578231824 A 2.25 2.25 0 0 0 -9.11082 -9.96207A 13.5 13.5 0 0 1 -7.68495 -11.0992A 2.25 2.25 0 0 0 -6.97215 -13.9424L -8.861835367919465 -17.73494686178197 C -8.94591105579094 -17.953006662872117 -9.155165871243064 -18.614881994180216 -9.151845671317009 -19.833715184000724 C -9.131761706046694 -21.274650153660797 -8.785145012622163 -23.364235264027254 -7.486111264076371 -25.953924500069714 A 27 27 0 0 1 -4.51623 -26.6318C -2.222219601597689 -24.862180162002883 -1.0032917508367358 -23.12992037771387 -0.3599984709227879 -21.840396935326012 C 0.17182482760570128 -20.74370675689007 0.2704696970023024 -20.056585427192157 0.28933272153084655 -19.82364126124638 L 0.2323277492275 -15.586725885090134 A 2.25 2.25 0 0 0 2.10816 -13.3344A 13.5 13.5 0 0 1 3.88619 -12.9286A 2.25 2.25 0 0 0 6.55351 -14.144L 8.340475818789905 -17.9860203879157 C 8.45854150237078 -18.18771146977883 8.845548230432176 -18.763985991529804 9.800540500904809 -19.521320218719563 C 10.939630971901096 -20.404026201103118 12.789446369986216 -21.435865364264195 15.624081239021413 -22.034884711518444 A 27 27 0 0 1 18.0057 -20.1356C 18.05250391435922 -17.23871702846995 17.458157763339827 -15.205674550213732 16.851054538331056 -13.898722895930295 C 16.32521403333974 -12.799151555977282 15.849505015581085 -12.29361474979281 15.679142836413178 -12.133628731492148 L 12.331046987894975 -9.536523485124244 A 2.25 2.25 0 0 0 11.7397 -6.66563A 13.5 13.5 0 0 1 12.531 -5.02248A 2.25 2.25 0 0 0 15.1442 -3.69488" stroke="#191919" stroke-width="0.35 px" style="stroke-width:0.35;stroke-miterlimit:4;stroke-dasharray:none;fill:none;fill-rule: evenodd "/>
<title>b'InvoluteGear'</title>
</g>
</svg>