<?xml version="1.0"?>
<!DOCTYPE svg PUBLIC "-//W3C//DTD SVG 1.1//EN" "http://www.w3.org/Graphics/SVG/1.1/DTD/svg11.dtd">
<svg width="409.89072840626415mm" height="410.008098285787mm" viewBox="0 0 409.89072840626415 410.008098285787" xmlns="http://www.w3.org/2000/svg" version="1.1">
<g id="InvoluteGear" transform="translate(204.885229,205.004049) scale(1,-1)">
<path id="InvoluteGear_w0000"  d="M 188.8914812594162 -6.403772920990814 C 189.81873222627476 -6.202614105501273 190.8524326589148 -5.948536224763898 191.98786405366323 -5.628049028584267 C 194.51239063066376 -4.915354575701004 197.53371784500686 -3.876667064812608 200.9869632324047 -2.368619609898059 A 201 201 0 0 1 200.987 2.36862C 197.53371784500686 3.876667064812608 194.51239063066376 4.915354575701004 191.98786405366323 5.628049028584267 C 190.8524326589148 5.948536224763898 189.81873222627476 6.202614105501273 188.89152046913046 6.40376089206576 A 2.25 2.25 0 0 0 187.304 8.57439A 187.5 187.5 0 0 1 187.257 9.54307A 2.25 2.25 0 0 0 188.628 11.8568C 189.5312276540513 12.146492073028874 190.53558034299164 12.499150307213924 191.6347796533301 12.927726287930078 C 194.07873588204242 13.880745581171798 196.9857106330307 15.206184255167134 200.27728743675158 17.040477845916747 A 201 201 0 0 1 199.82 21.7556C 196.2374059560202 22.923322988919136 193.1299355964704 23.665561391270504 190.54840949563453 24.131276767713786 C 189.38734723348364 24.340682876756723 188.33395043956807 24.493808147331528 187.3916537805495 24.60452706502093 A 2.25 2.25 0 0 0 185.602 26.6118A 187.5 187.5 0 0 1 185.462 27.5714A 2.25 2.25 0 0 0 186.603 30.0066C 187.4741210756246 30.382189727766857 188.43974865041665 30.830135640485565 189.49245294854765 31.362798907279796 C 191.83302026815232 32.54724495651602 194.59850091577735 34.147059529839154 197.697676570072 36.29047295139045 A 201 201 0 0 1 196.788 40.9395C 193.108878280906 41.75595002263047 189.9442783896344 42.194809236467286 187.32985577861243 42.409197277480885 C 186.15400317456962 42.5055671309684 185.09074530142104 42.55631010198664 184.1421617105455 42.575567398098066 A 2.25 2.25 0 0 0 182.167 44.4007A 187.5 187.5 0 0 1 181.935 45.3424A 2.25 2.25 0 0 0 182.836 47.8763C 183.6666191408603 48.33421706305099 184.5845057970124 48.873268304008754 185.58088626654003 49.505045523477285 C 187.79621143060535 50.909859475077845 190.39437742717843 52.76911291010419 193.27221576398986 55.20163368885137 A 201 201 0 0 1 191.918 59.7411C 188.177345039631 60.19871300150731 184.98516263316748 60.330095516594135 182.36225367146082 60.29115453880282 C 181.18258934447385 60.27358835737834 180.11939774437462 60.221475255391546 179.17338389104822 60.14909112973981 A 2.25 2.25 0 0 0 177.031 61.7751A 187.5 187.5 0 0 1 176.709 62.6899A 2.25 2.25 0 0 0 177.361 65.299C 178.14427146944794 65.83496083656156 179.00584714656267 66.460084429561 179.93660085150293 67.18507686802872 C 182.00599996585882 68.79714235263401 184.41259293550755 70.89847530098923 187.04222435367632 73.59739164582808 A 201 201 0 0 1 185.256 77.9849C 181.48885062933985 78.07941681674721 178.29889025472696 77.90209594993976 175.69198433660677 77.6101895347611 C 174.5195224946535 77.47885132912762 173.46632390111247 77.32436872012796 172.53171246179414 77.16101900379142 A 2.25 2.25 0 0 0 170.243 78.5727A 187.5 187.5 0 0 1 169.834 79.4522A 2.25 2.25 0 0 0 170.231 82.112C 170.9586387336801 82.72102131900341 171.75585913179913 83.42638065348702 172.61229587558694 84.23781925189455 C 174.51644751827183 86.04208484842212 176.70899775085965 88.36587773054069 179.0658700903498 91.3059905867428 A 201 201 0 0 1 176.864 95.5006C 173.105843720225 95.23111415452001 169.94788917799258 94.74674550297519 167.3813262816239 94.20459910195781 C 166.22701388502003 93.96071514155419 165.19364172953615 93.70530538803881 164.27915891941757 93.45251523330673 A 2.25 2.25 0 0 0 161.865 94.6367A 187.5 187.5 0 0 1 161.373 95.4726A 2.25 2.25 0 0 0 161.511 98.1583C 162.17681125034753 98.8347379133527 162.90223293741292 99.61374723926312 163.6763564009258 100.5040558140473 C 165.3974820210976 102.48367558075525 167.3555182658533 105.00823176860862 169.4176260446556 108.16209009460582 A 201 201 0 0 1 166.822 112.125C 163.10659418911885 111.49366423805563 160.01013044996327 110.70677022136688 157.50787388158685 109.91944570938371 C 156.38248843416704 109.56529307303731 155.37859103412913 109.21134086705835 154.4927751328144 108.87147050749489 A 2.25 2.25 0 0 0 151.975 109.817A 187.5 187.5 0 0 1 151.405 110.602A 2.25 2.25 0 0 0 151.284 113.288C 151.8807825765278 114.02566118937197 152.52763248570167 114.8710471065258 153.212214886737 115.83191308640443 C 154.73424479821216 117.9684038469104 156.43948539828253 120.67015223957718 158.18757527167094 124.00830930994036 A 201 201 0 0 1 155.221 127.702C 151.5844623347426 126.71522801892907 148.5784002462998 125.63315565451319 146.1638129012983 124.6080040683996 C 145.07786182376648 124.14688938385473 144.11281229871332 123.69769948179224 143.26393393060292 123.27392219537155 A 2.25 2.25 0 0 0 140.667 123.972A 187.5 187.5 0 0 1 140.024 124.698A 2.25 2.25 0 0 0 139.644 127.36C 140.16668395783483 128.15195758940405 140.72892262579938 129.05582695726957 141.31757220292937 130.07827899547976 C 142.62629562251303 132.351692911199 144.0628192058672 135.20540801188318 145.48056972969096 138.6966963534637 A 201 201 0 0 1 142.172 142.087C 138.6470271977515 140.7536858573449 135.759433551802 139.38653816331998 133.45505978164064 138.13313106722347 C 132.4186823066142 137.5693596380492 131.5014910639428 137.0291260049911 130.69747597764203 136.52539848605593 A 2.25 2.25 0 0 0 128.045 136.97A 187.5 187.5 0 0 1 127.335 137.63A 2.25 2.25 0 0 0 126.7 140.243C 127.14388677687974 141.0817336900846 127.61626473267914 142.03564732390845 128.10348542340506 143.11013906125402 C 129.18668315314486 145.49924987899337 130.34107728613523 148.4782873186915 131.41525130574547 152.09010971292037 A 201 201 0 0 1 127.795 155.145C 124.41508212421803 153.4779644549219 121.67291760461437 151.83850612094918 119.50027272630558 150.3685462392139 C 118.52314523103213 149.7073818473445 117.66237583825163 149.08114849916467 116.9107309059912 148.50217391583732 A 2.25 2.25 0 0 0 114.228 148.688A 187.5 187.5 0 0 1 113.457 149.277A 2.25 2.25 0 0 0 112.573 151.817C 112.93398138213983 152.6942676556997 113.31208816007609 153.68931912090082 113.69333091608311 154.80581831753625 C 114.54088943062817 157.28831955330128 115.40237584626954 160.3648648620967 116.12294408826556 164.0634986964314 A 201 201 0 0 1 112.224 166.755C 109.02150695070534 164.76926065076427 106.4503744087312 162.8727988575801 104.42974382211648 161.20001080956274 C 103.52098948274678 160.44762656878405 102.72467871175591 159.74124047752505 102.03242183974866 159.09242455949394 A 2.25 2.25 0 0 0 99.3441 159.019A 187.5 187.5 0 0 1 98.5203 159.531A 2.25 2.25 0 0 0 97.3948 161.973C 97.66964183163574 162.8811363854389 97.94994715059856 163.90803515458873 98.2216524109941 165.05611735833932 C 98.82565828485627 167.6088305669651 99.38619351660064 170.7541588702395 99.74642822945343 174.5050709971114 A 201 201 0 0 1 95.6062 176.807C 92.61002734103606 174.52215065456517 90.23393274848195 172.38639215495877 88.38418253691935 170.52639431195556 C 87.5522861478696 169.68981503120483 86.82786893778288 168.9098715334754 86.2014635419243 168.1972721001532 A 2.25 2.25 0 0 0 83.5328 167.865A 187.5 187.5 0 0 1 82.6635 168.294A 2.25 2.25 0 0 0 81.3075 170.617C 81.49338715099861 171.54722783067473 81.67327387574899 172.59638602664842 81.83290480172373 173.76533190331162 C 82.18771859479928 176.36442308936032 82.44206907621583 179.54916730420848 82.43860684547143 183.31733646771704 A 201 201 0 0 1 78.0955 185.209C 75.33387285849375 182.64557436013195 73.17500117036663 180.29046015576543 71.51340195319348 178.26061881648735 C 70.76613070690597 177.347655411105 70.1203707460304 176.5014366291992 69.56566540472592 175.7317070294954 A 2.25 2.25 0 0 0 66.9416 175.143A 187.5 187.5 0 0 1 66.0348 175.487A 2.25 2.25 0 0 0 64.461 177.668C 64.55625067172762 178.6116290305338 64.6340392483844 179.67325094593588 64.6801054089927 180.85214636281654 C 64.78241432049504 183.47334851217087 64.72820524966978 186.66777353994127 64.3610784012438 190.41801735988466 A 201 201 0 0 1 59.8557 191.882C 57.354346302676106 189.06368554906277 55.432854322251764 186.51120470671142 53.974920003665346 184.33047195283245 C 53.319250970425436 183.34964851614995 52.758177545525186 182.44505536683315 52.28035139308935 181.6253823586279 A 2.25 2.25 0 0 0 49.7253 180.786A 187.5 187.5 0 0 1 48.7896 181.041A 2.25 2.25 0 0 0 47.0127 183.06C 47.016369873667344 184.00838157441217 46.99133401124925 185.07255513145688 46.92340529916139 186.25039305968363 C 46.77225409834945 188.86923271411948 46.40999161077084 192.0435130690187 45.682627909130105 195.74081652929814 A 201 201 0 0 1 41.057 196.763C 38.83931766871577 193.71656004645232 37.173145848897676 190.9905443920127 35.932488768811666 188.67928113768943 C 35.37454375372232 187.63975535386666 34.9033954561927 186.6852337796447 34.50690982666758 185.82327042896677 A 2.25 2.25 0 0 0 32.0448 184.741A 187.5 187.5 0 0 1 31.0889 184.905A 2.25 2.25 0 0 0 29.1254 186.742C 29.037509897966178 187.68709743788324 28.90988334957508 188.74388673479442 28.728593996873403 189.90967001898252 C 28.32539394178371 192.5016957782543 27.65846038469196 195.62619405987178 26.577651028741244 199.23603643426264 A 201 201 0 0 1 21.875 199.807C 19.961656790365698 196.5607552167671 18.56636172850999 193.6866568239199 17.554565567804335 191.26644271142203 C 17.099553953141363 190.17792035261758 16.722729767692424 189.18238246424718 16.41128654057367 188.2861766906585 A 2.25 2.25 0 0 0 14.0651 186.972A 187.5 187.5 0 0 1 13.0978 187.042A 2.25 2.25 0 0 0 10.9662 188.682C 10.787534516077812 189.61342944210568 10.558508896408942 190.65296752195437 10.26555155293388 191.79581155768255 C 9.61406721384447 194.3368223756591 8.648689566166713 197.38236598538955 7.2245257816543305 200.87104314826118 A 201 201 0 0 1 2.48867 200.986C 0.8976193009389071 197.56971557602841 -0.21377150890361074 194.57436912708408 -0.9872598820899945 192.06780104348888 C -1.3350897754766686 190.94044534968057 -1.614071542955128 189.91318621619243 -1.8375645061697048 188.9911056515315 A 2.25 2.25 0 0 0 -4.04592 187.456A 187.5 187.5 0 0 1 -5.01545 187.433A 2.25 2.25 0 0 0 -7.29537 188.859C -7.563161169044604 189.76939194417793 -7.891447509487989 190.78197292000084 -8.293337579953453 191.89120728043 C -9.18702346930138 194.3574784237419 -10.44183173657559 197.29563194147818 -12.19605291611364 200.63057105413358 A 201 201 0 0 1 -16.9208 200.287C -18.17479901805043 196.73402073321142 -18.991908819336167 193.6453929709117 -19.519867552467908 191.0758740670578 C -19.75726813058139 189.9202108546093 -19.935802702493955 188.8708217177529 -20.069258708223717 187.93147557981092 A 2.25 2.25 0 0 0 -22.1192 186.191A 187.5 187.5 0 0 1 -23.0819 186.074A 2.25 2.25 0 0 0 -25.4888 187.273C -25.843241656114227 188.1535287642399 -26.267723596223327 189.12969844029087 -26.77479405437463 190.19496650306456 C -27.902337389622758 192.56347106254722 -29.43486046979152 195.3668017405365 -31.502760353851 198.5168653750311 A 201 201 0 0 1 -36.1724 197.719C -37.0775241355406 194.06147334589778 -37.59272379421317 190.90840195547392 -37.870223478849745 188.29992313704753 C -37.99497819645628 187.126742521997 -38.07139864360852 186.0650212454007 -38.11357164908572 185.11717995597462 A 2.25 2.25 0 0 0 -39.9859 183.187A 187.5 187.5 0 0 1 -40.9329 182.977A 2.25 2.25 0 0 0 -43.4443 183.939C -43.88203075892218 184.78092678143207 -44.39874502519262 185.71157092446037 -45.00626149078468 186.72292656869732 C -46.35713470361176 188.97155045543758 -48.153063841591354 191.6138843504557 -50.51533500612001 194.5496612113726 A 201 201 0 0 1 -55.0862 193.305C -55.63406640017093 189.57702626896423 -55.84254563583029 186.3889506284399 -55.866995332184445 183.76586655935236 C -55.87793938809907 182.58612221300626 -55.85153219336629 181.52198180216448 -55.802028440601696 180.5744950999918 A 2.25 2.25 0 0 0 -57.4793 178.472A 187.5 187.5 0 0 1 -58.4017 178.173A 2.25 2.25 0 0 0 -60.9942 178.887C -61.51110516390209 179.68307507177002 -62.115227334450765 180.55950450816053 -62.81751758993074 181.5075049787054 C -64.37910794112153 183.6152533973314 -66.42167503043734 186.0719197497386 -69.0562615860512 188.7659992795293 A 201 201 0 0 1 -73.4857 187.086C -73.6711683766041 183.32254957649982 -73.57098067479856 180.1292358891505 -73.34215210264306 177.51603759860348 C -73.23918331516441 176.34074447605886 -73.11019503540881 175.2841205232706 -72.9694767276039 174.3458348364031 A 2.25 2.25 0 0 0 -74.4361 172.092A 187.5 187.5 0 0 1 -75.3252 171.704A 2.25 2.25 0 0 0 -77.9746 172.166C -78.56586695322957 172.90757090312556 -79.2517565021219 173.72160264737175 -80.04226345259616 174.59739671925584 C -81.79999079378916 176.5445901906847 -84.07012493586792 178.7926517686612 -86.95242845774784 181.21988007263613 A 201 201 0 0 1 -91.199 179.12C -91.0204225035181 175.35643963220525 -90.61250328982533 172.18770300753823 -90.13253295988386 169.60878922388272 C -89.91661272083721 168.44892072035935 -89.68624768487285 167.40967863878004 -89.45562867095316 166.48935448786875 A 2.25 2.25 0 0 0 -90.6978 164.104A 187.5 187.5 0 0 1 -91.5454 163.633A 2.25 2.25 0 0 0 -94.2269 163.836C -94.88708041123242 164.5176753323614 -95.64833337255325 165.2617089893961 -96.51967626761568 166.0571196093401 C -98.45712917221996 167.82557771277172 -100.93363473623133 169.8440449710711 -104.03674393298783 171.9817596725371 A 201 201 0 0 1 -108.061 169.482C -107.51984346963128 165.75307385827924 -106.80800137584166 162.6384999363896 -106.081370641764 160.11794928277314 C -105.75451494024477 158.98433477797894 -105.42492400434399 157.97217769091574 -105.10655751190555 157.0784078945899 A 2.25 2.25 0 0 0 -106.113 154.584A 187.5 187.5 0 0 1 -106.911 154.034A 2.25 2.25 0 0 0 -109.6 153.977C -110.32235876536438 154.5917225538877 -111.15186752532229 155.25881128192418 -112.09591087113222 155.9664119152813 C -114.19499986339571 157.53962303388903 -116.85475438414653 159.30965008756684 -120.14969636129663 161.13789192033207 A 201 201 0 0 1 -123.914 158.262C -123.0153806269096 154.60211629346716 -122.00626193085748 151.57078501188744 -121.0397551480277 149.13213119063755 C -120.60501574765452 148.03535493776798 -120.1792762135824 147.05973308323198 -119.77613474478595 146.20086252926677 A 2.25 2.25 0 0 0 -120.537 143.621A 187.5 187.5 0 0 1 -121.278 142.996A 2.25 2.25 0 0 0 -123.949 142.68C -124.7275869804416 143.2223885143951 -125.61760663924379 143.80630388571691 -126.62553615743998 144.41948785602614 C -128.86666260901055 145.78276334147407 -131.68483267517237 147.28782392483788 -135.14084344724907 148.78952308750272 A 201 201 0 0 1 -138.61 145.563C -137.36235631996 142.00768042409015 -136.06538289101823 139.08789450624883 -134.86802407285657 136.7539065710351 C -134.32946001827662 135.70420887445297 -133.81154690135352 134.77423137083304 -133.32739447947267 133.95827910218077 A 2.25 2.25 0 0 0 -133.836 131.317A 187.5 187.5 0 0 1 -134.513 130.623A 2.25 2.25 0 0 0 -137.141 130.052C -137.96826732189692 130.51582562251045 -138.91048800579185 131.0111157766229 -139.97289293003473 131.52415795036686 C -142.33513204707268 132.66476926676194 -145.28540516405215 133.89081103466137 -148.8702168896479 135.05194656675474 A 201 201 0 0 1 -152.012 131.506C -150.4268167023183 128.08735710447505 -148.85409803194247 125.30637780479354 -147.43706659512338 123.09884757210837 C -146.79970631380607 122.10602917638106 -146.19445522926065 121.23037897305967 -145.63381225501075 120.46496331620642 A 2.25 2.25 0 0 0 -145.885 117.787A 187.5 187.5 0 0 1 -146.492 117.031A 2.25 2.25 0 0 0 -149.052 116.208C -149.92077512488885 116.59067163235864 -150.90639957321852 116.9927121785415 -152.0133605149798 117.40082241917558 C -154.4746567073199 118.30811998597758 -157.52948696993155 119.24369571676462 -161.20962922783926 120.05342640867433 A 201 201 0 0 1 -163.994 116.221C -162.08678242742116 112.97111664283054 -160.25300256609066 110.35490921573603 -158.62952895134146 108.29444780057541 C -157.89932330450605 107.36777838356352 -157.21238531863867 106.55463119055804 -156.5804863644133 105.84689862526184 A 2.25 2.25 0 0 0 -156.572 103.158A 187.5 187.5 0 0 1 -157.103 102.346A 2.25 2.25 0 0 0 -159.572 101.28C -160.47351304448824 101.5769419548178 -161.49333874734066 101.88197914881525 -162.63452031056144 102.18134704098199 C -165.17189311881586 102.84685966526766 -168.3027583999768 103.48323414042112 -172.04387069349463 103.93399975484678 A 201 201 0 0 1 -174.445 99.8506C -172.23338753689953 96.80009530349837 -170.15566799309457 94.37308657283901 -168.34091013613502 92.47893194827526 C -167.52467685716294 91.62706357264796 -166.76246572486235 90.88401152620894 -166.0652106609412 90.24056996074384 A 2.25 2.25 0 0 0 -165.797 87.5647A 187.5 187.5 0 0 1 -166.248 86.7059A 2.25 2.25 0 0 0 -168.602 85.4065C -169.52795301001998 85.61481573865836 -170.5724581295846 85.82000153037785 -171.73720540948372 86.00783195672837 C -174.32696406739964 86.42534592643734 -177.50463232154524 86.75657748894446 -181.2717848931763 86.84416934879636 A 201 201 0 0 1 -183.268 82.5481C -180.77189591269988 79.72527755567987 -178.46963579398997 77.51012784805205 -176.48053759997075 75.7999652254626 C -175.58589763906562 75.03085155671971 -174.75552992030748 74.36483233360028 -173.99942882935727 73.79168940849715 A 2.25 2.25 0 0 0 -173.474 71.1542A 187.5 187.5 0 0 1 -173.84 70.2559A 2.25 2.25 0 0 0 -176.058 68.7353C -176.99955615511158 68.85332705560036 -178.05898842851357 68.9567456805889 -179.23642649356265 69.03128491904047 C -181.85439112232345 69.19690201873058 -185.04919331714078 69.2198980487377 -188.8072132783276 68.94349833242073 A 201 201 0 0 1 -190.38 64.4748C -187.62258580269284 61.9060863721278 -185.1172806914963 59.92347794351207 -182.97241383432163 58.41327465052587 C -182.0077202037509 57.734096695766084 -181.11694881819489 57.15132873800344 -180.30906121238152 56.653835734329036 A 2.25 2.25 0 0 0 -179.532 54.0793A 187.5 187.5 0 0 1 -179.809 53.15A 2.25 2.25 0 0 0 -181.87 51.4224C -182.8185621343109 51.44897340934092 -183.88302992786197 51.44965927576161 -185.062165356091 51.41021137352834 C -187.68389272533005 51.322385280962884 -190.8659998535186 51.03693107073376 -194.57979958442678 50.39912044792735 A 201 201 0 0 1 -195.713 45.7995C -192.72149416119322 43.50889473980402 -190.0365354163156 41.7773386709137 -187.75592593992815 40.48119506877528 C -186.7301857241979 39.89829412956768 -185.78732756426572 39.404218584565186 -184.9351964724912 38.98702046045263 A 2.25 2.25 0 0 0 -183.913 36.4995A 187.5 187.5 0 0 1 -184.099 35.5478A 2.25 2.25 0 0 0 -185.984 33.6293C -186.9306404566358 33.56425456052784 -187.99020512135277 33.46220126463071 -189.16002864296905 33.30913453614709 C -191.7610403906257 32.96868525988888 -194.90074197530151 32.37744601847299 -198.53564672847236 31.38417955511358 A 201 201 0 0 1 -199.22 26.6967C -196.02101385468364 24.705472280126592 -193.18147021250323 23.241135643434582 -190.7864115531073 22.17115347573028 C -189.70920181224122 21.689971941090157 -188.72306009053287 21.289201859090113 -187.83464163120695 20.95619388101635 A 2.25 2.25 0 0 0 -186.577 18.5789A 187.5 187.5 0 0 1 -186.671 17.6137A 2.25 2.25 0 0 0 -188.362 15.5223C -189.29739775472976 15.366155310278097 -190.34216642082225 15.162315696190166 -191.49175570879626 14.897059284258471 C -194.04776688898696 14.307165507470893 -197.11574838240037 13.415661476364612 -200.63782003152517 12.076213033799549 A 201 201 0 0 1 -200.867 7.34451C -197.490338156793 5.67138148229598 -194.52272167122354 4.487936394435094 -192.03557584620856 3.654105796373801 C -190.91695419731877 3.279136328642796 -189.89673625338847 2.975413591919226 -188.98032535029452 2.7297049656514263 A 2.25 2.25 0 0 0 -187.499 0.484904A 187.5 187.5 0 0 1 -187.499 -0.484904A 2.25 2.25 0 0 0 -188.98 -2.72969C -189.8967362533885 -2.975413591919094 -190.91695419731877 -3.279136328642662 -192.0355758462086 -3.654105796373667 C -194.52272167122356 -4.487936394434959 -197.49033815679303 -5.671381482295843 -200.8666920678543 -7.344505834853021 A 201 201 0 0 1 -200.638 -12.0762C -197.1157483824004 -13.415661476364477 -194.04776688898698 -14.307165507470758 -191.4917557087963 -14.89705928425834 C -190.3421664208223 -15.162315696190035 -189.2973977547298 -15.366155310277968 -188.36155068955662 -15.522270469498915 A 2.25 2.25 0 0 0 -186.671 -17.6137A 187.5 187.5 0 0 1 -186.577 -18.5789A 2.25 2.25 0 0 0 -187.835 -20.9562C -188.72306009053287 -21.28920185909007 -189.70920181224122 -21.689971941090114 -190.7864115531073 -22.171153475730236 C -193.18147021250323 -23.24113564343454 -196.02101385468364 -24.70547228012655 -199.22012592092275 -26.696651031394776 A 201 201 0 0 1 -198.536 -31.3842C -194.90074197530151 -32.377446018472945 -191.7610403906257 -32.96868525988884 -189.16002864296905 -33.30913453614705 C -187.99020512135277 -33.462201264630664 -186.9306404566358 -33.5642545605278 -185.98409498128066 -33.62931864752319 A 2.25 2.25 0 0 0 -184.099 -35.5478A 187.5 187.5 0 0 1 -183.913 -36.4995A 2.25 2.25 0 0 0 -184.935 -38.987C -185.78732756426575 -39.40421858456506 -186.73018572419792 -39.89829412956756 -187.75592593992818 -40.48119506877515 C -190.03653541631564 -41.77733867091357 -192.72149416119328 -43.508894739803885 -195.7134951352014 -45.79953679027641 A 201 201 0 0 1 -194.58 -50.3991C -190.86599985351864 -51.03693107073364 -187.6838927253301 -51.322385280962756 -185.06216535609101 -51.41021137352823 C -183.883029927862 -51.44965927576149 -182.81856213431092 -51.44897340934081 -181.87015588884444 -51.42237893826091 A 2.25 2.25 0 0 0 -179.809 -53.15A 187.5 187.5 0 0 1 -179.532 -54.0793A 2.25 2.25 0 0 0 -180.309 -56.6538C -181.1169488181949 -57.1513287380034 -182.0077202037509 -57.73409669576604 -182.97241383432163 -58.41327465052583 C -185.1172806914963 -59.923477943512026 -187.62258580269287 -61.90608637212776 -190.37954017752642 -64.47480461415913 A 201 201 0 0 1 -188.807 -68.9435C -185.0491933171408 -69.21989804873766 -181.85439112232345 -69.19690201873054 -179.23642649356265 -69.03128491904044 C -178.05898842851357 -68.95674568058885 -176.9995561551116 -68.85332705560032 -176.05814415311357 -68.73532233185614 A 2.25 2.25 0 0 0 -173.84 -70.2559A 187.5 187.5 0 0 1 -173.474 -71.1542A 2.25 2.25 0 0 0 -173.999 -73.7917C -174.7555299203075 -74.36483233360018 -175.58589763906565 -75.03085155671961 -176.48053759997077 -75.79996522546247 C -178.46963579399 -77.51012784805194 -180.7718959126999 -79.72527755567977 -183.26806274818185 -82.54808855914752 A 201 201 0 0 1 -181.272 -86.8442C -177.50463232154527 -86.75657748894436 -174.32696406739967 -86.42534592643723 -171.73720540948375 -86.00783195672827 C -170.57245812958462 -85.82000153037775 -169.52795301002 -85.61481573865827 -168.60232496170352 -85.40650254056075 A 2.25 2.25 0 0 0 -166.248 -86.7059A 187.5 187.5 0 0 1 -165.797 -87.5647A 2.25 2.25 0 0 0 -166.065 -90.2405C -166.76246572486238 -90.88401152620882 -167.524676857163 -91.62706357264786 -168.3409101361351 -92.47893194827516 C -170.15566799309462 -94.37308657283891 -172.23338753689958 -96.80009530349824 -174.4454607958425 -99.85064324262791 A 201 201 0 0 1 -172.044 -103.934C -168.30275839997685 -103.48323414042102 -165.17189311881592 -102.84685966526756 -162.63452031056153 -102.18134704098189 C -161.49333874734072 -101.88197914881515 -160.47351304448833 -101.57694195481768 -159.57231128954356 -101.28026524657054 A 2.25 2.25 0 0 0 -157.103 -102.346A 187.5 187.5 0 0 1 -156.572 -103.158A 2.25 2.25 0 0 0 -156.58 -105.847C -157.2123853186387 -106.554631190558 -157.89932330450608 -107.36777838356348 -158.62952895134146 -108.29444780057537 C -160.25300256609066 -110.35490921573599 -162.08678242742118 -112.9711166428305 -163.99410857781695 -116.2209193734397 A 201 201 0 0 1 -161.21 -120.053C -157.52948696993158 -119.24369571676458 -154.4746567073199 -118.30811998597754 -152.0133605149798 -117.40082241917554 C -150.90639957321855 -116.99271217854145 -149.92077512488888 -116.59067163235859 -149.05241394128626 -116.20840140445155 A 2.25 2.25 0 0 0 -146.492 -117.031A 187.5 187.5 0 0 1 -145.885 -117.787A 2.25 2.25 0 0 0 -145.634 -120.465C -146.19445522926074 -121.23037897305959 -146.79970631380615 -122.10602917638097 -147.43706659512347 -123.09884757210828 C -148.85409803194256 -125.30637780479346 -150.42681670231838 -128.08735710447496 -152.01158755380172 -131.5060720940796 A 201 201 0 0 1 -148.87 -135.052C -145.28540516405224 -133.89081103466128 -142.33513204707276 -132.66476926676188 -139.97289293003482 -131.52415795036677 C -138.91048800579193 -131.01111577662283 -137.968267321897 -130.51582562251036 -137.14085436404065 -130.0515310290643 A 2.25 2.25 0 0 0 -134.513 -130.623A 187.5 187.5 0 0 1 -133.836 -131.317A 2.25 2.25 0 0 0 -133.327 -133.958C -133.8115469013536 -134.7742313708329 -134.32946001827673 -135.70420887445286 -134.86802407285668 -136.75390657103497 C -136.06538289101834 -139.0878945062487 -137.3623563199601 -142.00768042409004 -138.60977529408396 -145.56338805195466 A 201 201 0 0 1 -135.141 -148.79C -131.68483267517246 -147.28782392483777 -128.86666260901066 -145.78276334147398 -126.62553615744011 -144.41948785602602 C -125.6176066392439 -143.8063038857168 -124.72758698044169 -143.22238851439502 -123.94884758018486 -142.68040454893162 A 2.25 2.25 0 0 0 -121.278 -142.996A 187.5 187.5 0 0 1 -120.537 -143.621A 2.25 2.25 0 0 0 -119.776 -146.201C -120.17927621358244 -147.05973308323195 -120.60501574765456 -148.03535493776795 -121.03975514802774 -149.13213119063752 C -122.00626193085752 -151.57078501188738 -123.01538062690965 -154.6021162934671 -123.91380090881127 -158.26161787550345 A 201 201 0 0 1 -120.15 -161.138C -116.85475438414657 -159.30965008756678 -114.19499986339575 -157.53962303388897 -112.09591087113226 -155.96641191528127 C -111.15186752532233 -155.25881128192415 -110.32235876536443 -154.59172255388768 -109.5995638026674 -153.97710957466282 A 2.25 2.25 0 0 0 -106.911 -154.034A 187.5 187.5 0 0 1 -106.113 -154.584A 2.25 2.25 0 0 0 -105.107 -157.078C -105.42492400434405 -157.97217769091571 -105.75451494024483 -158.98433477797894 -106.08137064176405 -160.1179492827731 C -106.80800137584174 -162.6384999363896 -107.51984346963135 -165.7530738582792 -108.06087675120479 -169.48220161421472 A 201 201 0 0 1 -104.037 -171.982C -100.9336347362314 -169.84404497107107 -98.45712917222002 -167.82557771277172 -96.51967626761574 -166.05711960934008 C -95.64833337255331 -165.2617089893961 -94.88708041123247 -164.51767533236136 -94.22697842791551 -163.83617181516368 A 2.25 2.25 0 0 0 -91.5454 -163.633A 187.5 187.5 0 0 1 -90.6978 -164.104A 2.25 2.25 0 0 0 -89.4556 -166.489C -89.68624768487297 -167.40967863877998 -89.91661272083732 -168.4489207203593 -90.13253295988399 -169.60878922388264 C -90.61250328982543 -172.18770300753818 -91.02042250351822 -175.3564396322052 -91.19901730278688 -179.12037570094134 A 201 201 0 0 1 -86.9524 -181.22C -84.07012493586804 -178.79265176866113 -81.79999079378929 -176.54459019068463 -80.04226345259629 -174.5973967192558 C -79.25175650212202 -173.7216026473717 -78.56586695322969 -172.9075709031255 -77.97462114365624 -172.1655398626739 A 2.25 2.25 0 0 0 -75.3252 -171.704A 187.5 187.5 0 0 1 -74.4361 -172.092A 2.25 2.25 0 0 0 -72.9695 -174.346C -73.11019503540889 -175.28412052327056 -73.2391833151645 -176.34074447605883 -73.34215210264314 -177.51603759860342 C -73.57098067479866 -180.12923588915044 -73.6711683766042 -183.32254957649977 -73.48565720204707 -187.0861511011 A 201 201 0 0 1 -69.0563 -188.766C -66.42167503043744 -186.07191974973856 -64.37910794112163 -183.61525339733134 -62.81751758993082 -181.50750497870536 C -62.11522733445085 -180.5595045081605 -61.51110516390218 -179.68307507177 -60.99423583089373 -178.88744465195987 A 2.25 2.25 0 0 0 -58.4017 -178.173A 187.5 187.5 0 0 1 -57.4793 -178.472A 2.25 2.25 0 0 0 -55.802 -180.574C -55.85153219336632 -181.52198180216445 -55.8779393880991 -182.58612221300626 -55.86699533218448 -183.76586655935236 C -55.84254563583032 -186.3889506284399 -55.634066400170965 -189.57702626896423 -55.086181319641604 -193.30515351604043 A 201 201 0 0 1 -50.5153 -194.55C -48.15306384159139 -191.6138843504557 -46.35713470361179 -188.97155045543758 -45.006261490784716 -186.72292656869732 C -44.398745025192646 -185.71157092446037 -43.882030758922205 -184.7809267814321 -43.44436377217823 -183.93912556912227 A 2.25 2.25 0 0 0 -40.9329 -182.977A 187.5 187.5 0 0 1 -39.9859 -183.187A 2.25 2.25 0 0 0 -38.1136 -185.117C -38.07139864360865 -186.06502124540066 -37.994978196456415 -187.12674252199696 -37.87022347884988 -188.2999231370475 C -37.592723794213306 -190.9084019554739 -37.07752413554074 -194.06147334589775 -36.17238060441648 -197.71931779583306 A 201 201 0 0 1 -31.5028 -198.517C -29.434860469791662 -195.36680174053646 -27.902337389622893 -192.5634710625472 -26.77479405437477 -190.19496650306453 C -26.267723596223462 -189.12969844029084 -25.84324165611436 -188.15352876423987 -25.488863394367144 -187.27341643053873 A 2.25 2.25 0 0 0 -23.0819 -186.074A 187.5 187.5 0 0 1 -22.1192 -186.191A 2.25 2.25 0 0 0 -20.0693 -187.931C -19.935802702494044 -188.87082171775288 -19.757268130581476 -189.92021085460928 -19.519867552467996 -191.0758740670578 C -18.991908819336256 -193.6453929709117 -18.174799018050518 -196.7340207332114 -16.92084811760385 -200.28743007792917 A 201 201 0 0 1 -12.1961 -200.631C -10.441831736575683 -197.29563194147815 -9.187023469301469 -194.3574784237419 -8.293337579953544 -191.89120728043 C -7.891447509488077 -190.7819729200008 -7.563161169044692 -189.7693919441779 -7.2953803666421635 -188.8591858608119 A 2.25 2.25 0 0 0 -5.01545 -187.433A 187.5 187.5 0 0 1 -4.04592 -187.456A 2.25 2.25 0 0 0 -1.83758 -188.991C -1.6140715429551742 -189.91318621619243 -1.3350897754767157 -190.94044534968057 -0.9872598820900409 -192.06780104348888 C -0.21377150890365826 -194.57436912708408 0.8976193009388584 -197.56971557602841 2.488669769009101 -200.98551258989093 A 201 201 0 0 1 7.22453 -200.871C 8.648689566166665 -197.38236598538955 9.614067213844422 -194.3368223756591 10.265551552933832 -191.79581155768255 C 10.558508896408894 -190.65296752195437 10.787534516077766 -189.61342944210568 10.966217661933179 -188.68162795803354 A 2.25 2.25 0 0 0 13.0978 -187.042A 187.5 187.5 0 0 1 14.0651 -186.972A 2.25 2.25 0 0 0 16.4113 -188.286C 16.72272976769225 -189.1823824642472 17.099553953141193 -190.17792035261758 17.55456556780416 -191.26644271142206 C 18.56636172850981 -193.68665682391992 19.96165679036552 -196.56075521676712 21.874951616524115 -199.8070475233922 A 201 201 0 0 1 26.5777 -199.236C 27.658460384691782 -195.6261940598718 28.32539394178353 -192.50169577825432 28.72859399687323 -189.90967001898255 C 28.90988334957491 -188.74388673479442 29.037509897966004 -187.68709743788327 29.125427070885003 -186.74240053250156 A 2.25 2.25 0 0 0 31.0889 -184.905A 187.5 187.5 0 0 1 32.0448 -184.741A 2.25 2.25 0 0 0 34.5069 -185.823C 34.90339545619257 -186.68523377964473 35.37454375372219 -187.63975535386666 35.93248876881154 -188.6792811376895 C 37.17314584889755 -190.99054439201274 38.83931766871564 -193.71656004645237 41.05699293467991 -196.76303788923883 A 201 201 0 0 1 45.6826 -195.741C 46.4099916107707 -192.04351306901876 46.77225409834932 -188.86923271411956 46.92340529916126 -186.2503930596837 C 46.99133401124912 -185.07255513145694 47.016369873667216 -184.0083815744122 47.012700214694235 -183.05960962819182 A 2.25 2.25 0 0 0 48.7896 -181.041A 187.5 187.5 0 0 1 49.7253 -180.786A 2.25 2.25 0 0 0 52.2803 -181.625C 52.75817754552514 -182.44505536683312 53.319250970425394 -183.34964851614995 53.974920003665304 -184.33047195283245 C 55.43285432225172 -186.51120470671142 57.354346302676056 -189.0636855490628 59.8556961720077 -191.8819047852212 A 201 201 0 0 1 64.3611 -190.418C 64.72820524966973 -186.6677735399413 64.78241432049501 -183.47334851217087 64.68010540899266 -180.85214636281654 C 64.63403924838435 -179.67325094593588 64.55625067172758 -178.61162903053383 64.46102844347972 -177.66764047150394 A 2.25 2.25 0 0 0 66.0348 -175.487A 187.5 187.5 0 0 1 66.9416 -175.143A 2.25 2.25 0 0 0 69.5656 -175.732C 70.12037074603023 -176.50143662919925 70.76613070690581 -177.34765541110508 71.51340195319332 -178.2606188164874 C 73.17500117036646 -180.2904601557655 75.33387285849358 -182.645574360132 78.09554290141456 -185.20922203598207 A 201 201 0 0 1 82.4386 -183.317C 82.44206907621566 -179.54916730420854 82.18771859479914 -176.36442308936037 81.83290480172357 -173.76533190331168 C 81.67327387574883 -172.5963860266485 81.49338715099847 -171.54722783067479 81.30750141776466 -170.6168364256672 A 2.25 2.25 0 0 0 82.6635 -168.294A 187.5 187.5 0 0 1 83.5328 -167.865A 2.25 2.25 0 0 0 86.2014 -168.197C 86.82786893778274 -168.90987153347547 87.55228614786947 -169.6898150312049 88.38418253691921 -170.5263943119556 C 90.23393274848182 -172.38639215495883 92.61002734103593 -174.52215065456522 95.60623258844691 -176.8072906824947 A 201 201 0 0 1 99.7464 -174.505C 99.38619351660051 -170.75415887023956 98.82565828485615 -167.60883056696517 98.22165241099398 -165.05611735833938 C 97.94994715059843 -163.9080351545888 97.66964183163563 -162.88113638543896 97.39482815842287 -161.973028948322 A 2.25 2.25 0 0 0 98.5203 -159.531A 187.5 187.5 0 0 1 99.3441 -159.019A 2.25 2.25 0 0 0 102.032 -159.092C 102.72467871175586 -159.7412404775251 103.52098948274671 -160.44762656878407 104.42974382211642 -161.2000108095628 C 106.45037440873112 -162.87279885758014 109.02150695070527 -164.7692606507643 112.22427264149462 -166.7545572940298 A 201 201 0 0 1 116.123 -164.063C 115.40237584626946 -160.36486486209674 114.5408894306281 -157.2883195533013 113.69333091608306 -154.8058183175363 C 113.31208816007602 -153.68931912090085 112.93398138213978 -152.69426765569975 112.57280563017036 -151.81692294093753 A 2.25 2.25 0 0 0 113.457 -149.277A 187.5 187.5 0 0 1 114.228 -148.688A 2.25 2.25 0 0 0 116.911 -148.502C 117.66237583825149 -149.08114849916478 118.52314523103199 -149.7073818473446 119.50027272630543 -150.36854623921403 C 121.67291760461421 -151.83850612094932 124.41508212421786 -153.47796445492204 127.79450489806881 -155.14488153367438 A 201 201 0 0 1 131.415 -152.09C 130.3410772861351 -148.47828731869166 129.1866831531447 -145.4992498789935 128.10348542340492 -143.1101390612542 C 127.616264732679 -142.03564732390856 127.1438867768796 -141.08173369008472 126.6997211468362 -140.2433432288914 A 2.25 2.25 0 0 0 127.335 -137.63A 187.5 187.5 0 0 1 128.045 -136.97A 2.25 2.25 0 0 0 130.697 -136.525C 131.50149106394272 -137.02912600499118 132.4186823066141 -137.56935963804926 133.45505978164056 -138.13313106722356 C 135.75943355180192 -139.38653816332007 138.6470271977514 -140.753685857345 142.17155429476028 -142.08665981594618 A 201 201 0 0 1 145.481 -138.697C 144.06281920586713 -135.2054080118833 142.62629562251294 -132.35169291119908 141.31757220292928 -130.07827899547985 C 140.7289226257993 -129.0558269572697 140.16668395783475 -128.15195758940413 139.64367550453113 -127.36034920762381 A 2.25 2.25 0 0 0 140.024 -124.698A 187.5 187.5 0 0 1 140.667 -123.972A 2.25 2.25 0 0 0 143.264 -123.274C 144.11281229871327 -123.69769948179231 145.07786182376643 -124.14688938385478 146.16381290129823 -124.60800406839965 C 148.57840024629974 -125.63315565451325 151.58446233474254 -126.71522801892912 155.22118619503655 -127.70181323867791 A 201 201 0 0 1 158.188 -124.008C 156.43948539828247 -120.67015223957726 154.7342447982121 -117.96840384691049 153.21221488673694 -115.83191308640448 C 152.52763248570162 -114.87104710652585 151.88078257652774 -114.02566118937204 151.28381448897554 -113.28822592117822 A 2.25 2.25 0 0 0 151.405 -110.602A 187.5 187.5 0 0 1 151.975 -109.817A 2.25 2.25 0 0 0 154.493 -108.871C 155.37859103412913 -109.21134086705835 156.38248843416704 -109.56529307303731 157.50787388158685 -109.91944570938371 C 160.01013044996327 -110.70677022136688 163.10659418911885 -111.49366423805563 166.82155970187625 -112.12464923857613 A 201 201 0 0 1 169.418 -108.162C 167.3555182658533 -105.00823176860862 165.3974820210976 -102.48367558075525 163.6763564009258 -100.5040558140473 C 162.90223293741292 -99.61374723926312 162.17681125034753 -98.8347379133527 161.51145725873587 -98.15836099315341 A 2.25 2.25 0 0 0 161.373 -95.4726A 187.5 187.5 0 0 1 161.865 -94.6367A 2.25 2.25 0 0 0 164.279 -93.4525C 165.1936417295361 -93.70530538803894 166.22701388501997 -93.96071514155432 167.38132628162379 -94.20459910195794 C 169.9478891779925 -94.74674550297532 173.10584372022493 -95.23111415452014 176.8643652533959 -95.50060759887211 A 201 201 0 0 1 179.066 -91.306C 176.70899775085957 -88.36587773054082 174.51644751827175 -86.04208484842225 172.61229587558688 -84.23781925189468 C 171.75585913179907 -83.42638065348714 170.95863873368003 -82.72102131900354 170.23111106895877 -82.11201789586286 A 2.25 2.25 0 0 0 169.834 -79.4522A 187.5 187.5 0 0 1 170.243 -78.5727A 2.25 2.25 0 0 0 172.532 -77.161C 173.46632390111245 -77.32436872012804 174.51952249465347 -77.4788513291277 175.69198433660674 -77.61018953476119 C 178.29889025472693 -77.90209594993983 181.48885062933982 -78.07941681674728 185.25583588004756 -77.98490251725184 A 201 201 0 0 1 187.042 -73.5974C 184.41259293550752 -70.8984753009893 182.0059999658588 -68.79714235263408 179.9366008515029 -67.1850768680288 C 179.00584714656264 -66.46008442956108 178.14427146944792 -65.83496083656163 177.36136286140092 -65.29901701135441 A 2.25 2.25 0 0 0 176.709 -62.6899A 187.5 187.5 0 0 1 177.031 -61.7751A 2.25 2.25 0 0 0 179.173 -60.1491C 180.11939774437462 -60.22147525539158 181.18258934447385 -60.27358835737837 182.36225367146082 -60.29115453880286 C 184.98516263316748 -60.33009551659417 188.177345039631 -60.19871300150734 191.9176226815484 -59.7410734127134 A 201 201 0 0 1 193.272 -55.2016C 190.39437742717843 -52.769112910104226 187.79621143060535 -50.90985947507788 185.58088626654003 -49.50504552347732 C 184.5845057970124 -48.87326830400879 183.6666191408603 -48.33421706305103 182.8356393962177 -47.87633679887102 A 2.25 2.25 0 0 0 181.935 -45.3424A 187.5 187.5 0 0 1 182.167 -44.4007A 2.25 2.25 0 0 0 184.142 -42.5756C 185.090745301421 -42.55631010198678 186.1540031745696 -42.50556713096855 187.32985577861237 -42.409197277481034 C 189.94427838963438 -42.194809236467435 193.108878280906 -41.75595002263063 196.7875263494533 -40.939458002074495 A 201 201 0 0 1 197.698 -36.2905C 194.59850091577735 -34.14705952983931 191.8330202681523 -32.54724495651617 189.49245294854765 -31.362798907279945 C 188.43974865041662 -30.830135640485715 187.47412107562457 -30.382189727767003 186.60282882836677 -30.006648129271774 A 2.25 2.25 0 0 0 185.462 -27.5714A 187.5 187.5 0 0 1 185.602 -26.6118A 2.25 2.25 0 0 0 187.392 -24.6045C 188.33395043956807 -24.49380814733163 189.38734723348364 -24.340682876756823 190.54840949563453 -24.131276767713885 C 193.1299355964704 -23.665561391270607 196.2374059560202 -22.92332298891924 199.82007790533902 -21.75560190260508 A 201 201 0 0 1 200.277 -17.0405C 196.9857106330307 -15.206184255167237 194.07873588204242 -13.880745581171901 191.6347796533301 -12.927726287930177 C 190.53558034299164 -12.499150307214023 189.5312276540513 -12.146492073028977 188.6277579251341 -11.856795470939506 A 2.25 2.25 0 0 0 187.257 -9.54307A 187.5 187.5 0 0 1 187.304 -8.57439A 2.25 2.25 0 0 0 188.891 -6.40377" stroke="#191919" stroke-width="0.35 px" style="stroke-width:0.35;stroke-miterlimit:4;stroke-dasharray:none;fill:none;fill-rule: evenodd "/>
<title>b'InvoluteGear'</title>
</g>
</svg>