<?xml version="1.0"?>
<!DOCTYPE svg PUBLIC "-//W3C//DTD SVG 1.1//EN" "http://www.w3.org/Graphics/SVG/1.1/DTD/svg11.dtd">
<svg width="78.40250373743075mm" height="79.1929259992751mm" viewBox="0 0 78.40250373743075 79.1929259992751" xmlns="http://www.w3.org/2000/svg" version="1.1">
<g id="InvoluteGear" transform="translate(38.667321,39.596463) scale(1,-1)">
<path id="InvoluteGear_w0000"  d="M 27.315402666933178 -4.343820569878535 L 30.719188050624464 -4.880003199396167 C 30.963392811740928 -4.89962212538701 31.696179488679377 -4.921228295544574 32.93075837580625 -4.638402208278709 C 34.39861856742687 -4.292550836326139 36.483950842922916 -3.518442652938901 38.966530911874315 -1.8122016864266435 A 39 39 0 0 1 38.9665 1.8122C 36.483950842922916 3.5184426529389006 34.39861856742687 4.292550836326138 32.93075837580625 4.638402208278708 C 31.696179488679377 4.921228295544574 30.963392811740928 4.89962212538701 30.719188050624464 4.880003199396167 L 27.315402666933178 4.343820569878538 A 2.25 2.25 0 0 0 24.7775 6.02694A 25.5 25.5 0 0 1 24.1026 8.32556A 2.25 2.25 0 0 0 25.3276 11.1136L 28.48095439220071 12.50272700754234 C 28.69699930240942 12.618249578418746 29.325139860691586 12.996247699483318 30.21082638402867 13.90163988332224 C 31.258687587481194 14.986173705720155 32.59446625030358 16.764810695878918 33.76048199293381 19.542376054695502 A 39 39 0 0 1 31.801 22.5914C 28.79003882619253 22.684615319576448 26.617231201239047 22.208420817553765 25.195407260885368 21.70578437213507 C 24.00390608351391 21.276249078474606 23.39912788022389 20.86189842345803 23.20429655438576 20.713366870981325 L 20.630732290484232 18.422076027374636 A 2.25 2.25 0 0 0 17.5858 18.4659A 25.5 25.5 0 0 1 15.7753 20.0348A 2.25 2.25 0 0 0 15.2985 23.0425L 17.200218951060723 25.9159297296338 C 17.319511277870806 26.129916197367677 17.643575528471196 26.78750687702348 17.8991704748209 28.028009536262076 C 18.19434416184262 29.506893983443806 18.356468924706267 31.725355103247125 17.835718581403768 34.69238747828278 A 39 39 0 0 1 14.5388 36.198C 11.955492902839751 34.64858290408114 10.385060997026514 33.07327410641117 9.460692362874168 31.881733363582235 C 8.690562100328542 30.876211109781277 8.405805177072942 30.200669375211625 8.322204855854388 29.970382914686613 L 7.395950181595195 26.651452510348513 A 2.25 2.25 0 0 0 4.81066 25.0421A 25.5 25.5 0 0 1 2.43938 25.3831A 2.25 2.25 0 0 0 0.41222 27.6556L 0.4585355238986297 31.101007875775807 C 0.4432007964271847 31.345519048817778 0.36030062950875674 32.073921892587805 -0.09534559064735681 33.25568419789078 C -0.6465749800882312 34.6593839071743 -1.7095775838736973 36.61332342598186 -3.7517594585564753 38.82781100221175 A 39 39 0 0 1 -7.33927 38.312C -8.674837543688412 35.611870231728204 -9.144292696407316 33.43759655107108 -9.277725514291626 31.935457277655512 C -9.381973945133595 30.673194274615128 -9.256301277217396 29.950941188068455 -9.202128082521128 29.71201414358545 L -8.18699385266348 26.419181131451644 A 2.25 2.25 0 0 0 -9.4918 23.6676A 25.5 25.5 0 0 1 -11.671 22.6724A 2.25 2.25 0 0 0 -14.6049 23.4882L -16.428729692244094 26.41173577057977 C -16.573822806374885 26.609141079122406 -17.03736717356012 27.17709333075824 -18.059590104764833 27.924914100125328 C -19.282211134321575 28.80776433188133 -21.232845288871758 29.876820258348644 -24.148080379090644 30.635678877141302 A 39 39 0 0 1 -26.8872 28.2622C -26.550968363568643 25.268640382252713 -25.770398069216565 23.185718349533367 -25.070531093945807 21.849899151231675 C -24.475799552876012 20.73165498369299 -23.979597477890763 20.192000796951415 -23.804850373826238 20.020290816955946 L -21.17062518523583 17.799006412332638 A 2.25 2.25 0 0 0 -20.7807 14.7788A 25.5 25.5 0 0 1 -22.0759 12.7634A 2.25 2.25 0 0 0 -24.9851 11.8635L -28.099989310956364 13.33692417463201 C -28.328774773188933 13.424548828012279 -29.02579127930765 13.651729660578386 -30.29004236358556 13.728181083584609 C -31.79588149500129 13.809883127152212 -34.01483463876884 13.65463775821413 -36.877556401446185 12.716935169941662 A 39 39 0 0 1 -37.8987 9.23935C -35.99735432819367 6.902795751093278 -34.21458413998125 5.572538394476282 -32.903620191180146 4.8271524283018294 C -31.798731740315976 4.20796171832265 -31.08954091107318 4.0222428226623475 -30.84970086847684 3.972266612558233 L -27.43273260598536 3.5277729190677123 A 2.25 2.25 0 0 0 -25.4719 1.19783A 25.5 25.5 0 0 1 -25.4719 -1.19783A 2.25 2.25 0 0 0 -27.4327 -3.52777L -30.849700868476845 -3.9722666125582284 C -31.08954091107318 -4.022242822662343 -31.79873174031598 -4.207961718322645 -32.90362019118015 -4.827152428301823 C -34.214584139981255 -5.572538394476276 -35.99735432819368 -6.902795751093271 -37.89866883070485 -9.23934560014424 A 39 39 0 0 1 -36.8776 -12.7169C -34.014834638768846 -13.654637758214125 -31.795881495001296 -13.809883127152208 -30.290042363585563 -13.728181083584605 C -29.025791279307654 -13.65172966057838 -28.32877477318894 -13.424548828012277 -28.099989310956367 -13.336924174632006 L -24.985141254760812 -11.863503549948863 A 2.25 2.25 0 0 0 -22.0759 -12.7634A 25.5 25.5 0 0 1 -20.7807 -14.7788A 2.25 2.25 0 0 0 -21.1706 -17.799L -23.804850373826245 -20.02029081695594 C -23.97959747789077 -20.192000796951408 -24.475799552876015 -20.731654983692984 -25.070531093945814 -21.849899151231668 C -25.770398069216572 -23.18571834953336 -26.55096836356865 -25.268640382252705 -26.887221685412662 -28.26219942428082 A 39 39 0 0 1 -24.1481 -30.6357C -21.232845288871765 -29.876820258348637 -19.28221113432158 -28.807764331881323 -18.05959010476484 -27.92491410012532 C -17.03736717356013 -27.177093330758233 -16.573822806374892 -26.6091410791224 -16.4287296922441 -26.411735770579764 L -14.604944091721887 -23.488201465367204 A 2.25 2.25 0 0 0 -11.671 -22.6724A 25.5 25.5 0 0 1 -9.4918 -23.6676A 2.25 2.25 0 0 0 -8.18699 -26.4192L -9.202128082521135 -29.712014143585446 C -9.256301277217403 -29.95094118806845 -9.381973945133602 -30.67319427461512 -9.277725514291635 -31.93545727765551 C -9.144292696407327 -33.43759655107108 -8.674837543688422 -35.611870231728204 -7.339271631032242 -38.31200462236699 A 39 39 0 0 1 -3.75176 -38.8278C -1.709577583873707 -36.61332342598186 -0.6465749800882401 -34.6593839071743 -0.09534559064736658 -33.25568419789078 C 0.36030062950874786 -32.073921892587805 0.4432007964271776 -31.345519048817774 0.45853552389862084 -31.101007875775803 L 0.41221962683496916 -27.655561375232505 A 2.25 2.25 0 0 0 2.43938 -25.3831A 25.5 25.5 0 0 1 4.81066 -25.0421A 2.25 2.25 0 0 0 7.39595 -26.6515L 8.322204855854375 -29.970382914686617 C 8.405805177072931 -30.200669375211632 8.69056210032853 -30.876211109781284 9.460692362874152 -31.88173336358224 C 10.3850609970265 -33.073274106411176 11.955492902839737 -34.648582904081145 14.538845309385572 -36.19801905254073 A 39 39 0 0 1 17.8357 -34.6924C 18.356468924706252 -31.725355103247136 18.194344161842608 -29.506893983443817 17.899170474820888 -28.028009536262086 C 17.64357552847118 -26.787506877023485 17.319511277870795 -26.129916197367685 17.200218951060712 -25.91592972963381 L 15.298506526476416 -23.04247595332061 A 2.25 2.25 0 0 0 15.7753 -20.0348A 25.5 25.5 0 0 1 17.5858 -18.4659A 2.25 2.25 0 0 0 20.6307 -18.4221L 23.20429655438576 -20.713366870981325 C 23.39912788022389 -20.86189842345803 24.003906083513915 -21.276249078474606 25.195407260885368 -21.705784372135067 C 26.617231201239047 -22.208420817553762 28.79003882619253 -22.684615319576444 31.800981590645584 -22.591418196513576 A 39 39 0 0 1 33.7605 -19.5424C 32.59446625030358 -16.764810695878914 31.258687587481194 -14.986173705720152 30.21082638402867 -13.901639883322236 C 29.325139860691582 -12.996247699483314 28.69699930240942 -12.618249578418743 28.48095439220071 -12.50272700754234 L 25.327625698043377 -11.113567226584486 A 2.25 2.25 0 0 0 24.1026 -8.32556A 25.5 25.5 0 0 1 24.7775 -6.02694A 2.25 2.25 0 0 0 27.3154 -4.34382" stroke="#191919" stroke-width="0.35 px" style="stroke-width:0.35;stroke-miterlimit:4;stroke-dasharray:none;fill:none;fill-rule: evenodd "/>
<title>b'InvoluteGear'</title>
</g>
</svg>