<?xml version="1.0"?>
<!DOCTYPE svg PUBLIC "-//W3C//DTD SVG 1.1//EN" "http://www.w3.org/Graphics/SVG/1.1/DTD/svg11.dtd">
<svg width="35.64926420917738mm" height="35.68889588737181mm" viewBox="0 0 35.64926420917738 35.68889588737181" xmlns="http://www.w3.org/2000/svg" version="1.1">
<g id="InvoluteGear" transform="translate(17.802721,17.844448) scale(1,-1)">
<path id="InvoluteGear_w0000"  d="M 15.46973227936385 -0.9681855218955469 L 15.496374862296562 -0.9690759483929772 C 15.554050428508676 -0.9696387571294433 15.727953884181664 -0.9652567424510643 16.017284338975497 -0.9060904867064635 C 16.364349028777685 -0.834383054748374 16.867150860656903 -0.6844845790997753 17.497040710229744 -0.37247040790761066 A 17.5 17.5 0 0 1 17.497 0.37247C 16.867150860656903 0.6844845790997753 16.364349028777685 0.834383054748374 16.017284338975497 0.9060904867064635 C 15.727953884181664 0.9652567424510643 15.554050428508676 0.9696387571294433 15.496374862296562 0.9690759483929772 L 15.46973227936385 0.9681855218955437 A 0.375 0.375 0 0 0 15.193 1.31748A 15.25 15.25 0 0 1 15.1678 1.58162A 0.375 0.375 0 0 0 15.3734 1.97698L 15.399734009942536 1.9811447422108661 C 15.456473815790797 1.9915072768362938 15.626405307738569 2.028721548185509 15.899309896768893 2.141574741211813 C 16.226531954764283 2.2776687508770985 16.69187902947852 2.520014238142228 17.25133687873238 2.945597344630105 A 17.5 17.5 0 0 1 17.1104 3.67708C 16.43279991279823 3.864244340245937 15.910715891995544 3.9162780828113952 15.556352392544236 3.9210072436394325 C 15.261053228466288 3.9243481394635444 15.08946313305714 3.8957395200433824 15.032936351716303 3.8842717093191426 L 15.006943749288123 3.8783552320155184 A 0.375 0.375 0 0 0 14.6691 4.16896A 15.25 15.25 0 0 1 14.5943 4.42356A 0.375 0.375 0 0 0 14.7214 4.85069L 14.74650664685358 4.859761700008932 C 14.800259967920514 4.8806750489955695 14.960077729271893 4.949376556288222 15.206692969645177 5.111837878164132 C 15.50224573808906 5.307399673437826 15.913319199908166 5.633433174984716 16.382124784517806 6.157203534453866 A 17.5 17.5 0 0 1 16.1053 6.84878C 15.40452476084847 6.904340242745186 14.882028027910769 6.856628617198594 14.533173338965605 6.794208582702546 C 14.24257834678779 6.741603369926466 14.0795033247642 6.681038106452639 14.026168353451391 6.6590797702992885 L 14.00176517190256 6.648351079094457 A 0.375 0.375 0 0 0 13.615 6.86976A 15.25 15.25 0 0 1 13.4934 7.10562A 0.375 0.375 0 0 0 13.5374 7.54908L 13.56030211189903 7.562734207983066 C 13.609126163108362 7.593442508409337 13.753053963566995 7.691148200171841 13.96446653794641 7.897345875435917 C 14.217667969731997 8.14530734350554 14.55961055270437 8.543245159116285 14.920820017380962 9.14627234610513 A 17.5 17.5 0 0 1 14.5181 9.77296C 13.819489947943865 9.694895299788584 13.315464896151477 9.549162728588623 12.984727535102966 9.42184952144899 C 12.709339574980454 9.315199489523991 12.56067358252618 9.224866568419698 12.512458086067554 9.193211338317706 L 12.49052631996112 9.178058196065145 A 0.375 0.375 0 0 0 12.0689 9.32228A 15.25 15.25 0 0 1 11.9048 9.53086A 0.375 0.375 0 0 0 11.8641 9.97463L 11.883992927597907 9.992369797168909 C 11.926123080529113 10.031763171047713 12.048958994386194 10.154941709010071 12.217527901503578 10.397423216435465 C 12.419226637176239 10.688822383787677 12.679679645430554 11.14428200398924 12.920237938998602 11.804771044787994 A 17.5 17.5 0 0 1 12.4062 12.3439C 11.734982761990707 12.135051580894299 11.267646169939875 11.896565218866648 10.966979846744094 11.70896027010078 C 10.716752157072044 11.552120029054581 10.587868370499852 11.43528431744866 10.546514982561677 11.39507629589081 L 10.52784730306738 11.376046376632651 A 0.375 0.375 0 0 0 10.0865 11.4379A 15.25 15.25 0 0 1 9.88598 11.6116A 0.375 0.375 0 0 0 9.76199 12.0397L 9.778165275451839 12.060855107019503 C 9.812078836608935 12.107509775180423 9.909383253891821 12.251709166042126 10.02901597424195 12.521710592171083 C 10.171922095973548 12.84601553366465 10.341472079187792 13.342535461094476 10.452684798149228 14.036614560881262 A 17.5 17.5 0 0 1 9.84587 14.4687C 9.226342723819847 14.136615480297992 8.812585353580898 13.813994845936486 8.55285693253661 13.57287868719271 C 8.33683339398166 13.37151685197998 8.232390009141694 13.232401096902349 8.199393348909256 13.185093506548718 L 8.18466445460219 13.162874601148925 A 0.375 0.375 0 0 0 7.73961 13.1401A 15.25 15.25 0 0 1 7.50981 13.2727A 0.375 0.375 0 0 0 7.30705 13.6696L 7.3189292534898085 13.693429689050937 C 7.343400498411659 13.745659430229088 7.41165658395556 13.905667932296547 7.478029279324964 14.193430722106907 C 7.556977787537852 14.53892021218797 7.629496767560494 15.058554922998695 7.607344394490136 15.76113825470176 A 17.5 17.5 0 0 1 6.92972 16.0706C 6.384238620608641 15.627245263651343 6.039014741576327 15.232150707261669 5.829611484535871 14.94623790473901 C 5.655599750625232 14.70763221672748 5.579371623570198 14.551264424029208 5.555924276316257 14.498567084453907 L 5.545666507812436 14.473962242044415 A 0.375 0.375 0 0 0 5.11298 14.3673A 15.25 15.25 0 0 1 4.86222 14.4541A 0.375 0.375 0 0 0 4.58802 14.8054L 4.595168059022488 14.831088044237012 C 4.609312533158411 14.88700513950295 4.646053334192273 15.057039628613362 4.656767122437933 15.352163285122746 C 4.668904612346962 15.706350433455686 4.641771564293624 16.23031897530358 4.487054743671682 16.916013346752163 A 17.5 17.5 0 0 1 3.76311 17.0916C 3.3113914996771596 16.55306568678594 3.0471784023117525 16.09977695504485 2.895668688579434 15.779401142365014 C 2.7699579967597896 15.51217543280048 2.7247002106119025 15.344207141921991 2.711649624557683 15.288024672278846 L 2.706233724337192 15.261923175971631 A 0.375 0.375 0 0 0 2.30154 15.0753A 15.25 15.25 0 0 1 2.03889 15.1131A 0.375 0.375 0 0 0 1.70317 15.4061L 1.7053255183084959 15.432712235481372 C 1.70863200351015 15.490295695321615 1.712529611757387 15.664210682017988 1.6671972686576013 15.956028667342958 C 1.612085059753539 16.306112227561414 1.4862806426753346 16.815477012157366 1.2045912435098303 17.459499642208055 A 17.5 17.5 0 0 1 0.460494 17.4949C 0.1188620622009472 16.880615187408118 -0.0547909037582579 16.385515316113 -0.1429311183734424 16.042255709877278 C -0.21579725616371825 15.756068212153199 -0.22844896709506157 15.582570234763958 -0.2306311097665903 15.524933215887867 L -0.231009396958792 15.498278441766258 A 0.375 0.375 0 0 0 -0.593072 15.2385A 15.25 15.25 0 0 1 -0.858122 15.2258A 0.375 0.375 0 0 0 -1.24324 15.4501L -1.2461519298194652 15.476557996995902 C -1.2538029385422305 15.533726605139583 -1.2828893927987937 15.705236348671633 -1.3826294382521307 15.983201600498202 C -1.5029994471460317 16.316528640602055 -1.722928333835684 16.792879897493773 -2.121409322724339 17.37195413031194 A 17.5 17.5 0 0 1 -2.85877 17.2659C -3.07796335989529 16.59805527314349 -3.1547799238101377 16.079038461613084 -3.1763650223049065 15.725301358345018 C -3.193753033995203 15.430495634283393 -3.173341403913233 15.257738639330812 -3.1645762348804034 15.200730223255748 L -3.1599032367595736 15.174485544304835 A 0.375 0.375 0 0 0 -3.46625 14.8508A 15.25 15.25 0 0 1 -3.72412 14.7883A 0.375 0.375 0 0 0 -4.14472 14.9356L -4.152590200386566 14.96104062872045 C -4.170922175644002 15.015728162717902 -4.231941432163515 15.178633854090103 -4.3824843148575665 15.432699983985856 C -4.563761637998882 15.737223196270623 -4.869866191315892 16.163344349912943 -5.3707366287571725 16.656540933961345 A 17.5 17.5 0 0 1 -6.07471 16.4129C -6.163543166609599 15.715598395496253 -6.140746977716601 15.191423263584383 -6.094996818391928 14.839993643849109 C -6.056278255935734 14.547224740426346 -6.003541014333596 14.381452615821978 -5.984145329642681 14.327133235238872 L -5.9745899405362835 14.302247202535783 A 0.375 0.375 0 0 0 -6.21415 13.9265A 15.25 15.25 0 0 1 -6.45552 13.8162A 0.375 0.375 0 0 0 -6.89639 13.8813L -6.908943041643462 13.904792271511896 C -6.937293418086266 13.95502218139747 -7.028040081953994 14.10343598447699 -7.223944789872541 14.324420380544655 C -7.4595775924894845 14.58913350269087 -7.840794396329343 14.949623424343326 -8.425951519708924 15.339116950063282 A 17.5 17.5 0 0 1 -9.07109 14.9666C -9.026356464327552 14.265138845243552 -8.904771436288193 13.754750447942499 -8.79333954910295 13.418329893838191 C -8.699913802227664 13.138179242025926 -8.616757010422402 12.98538342426803 -8.587431820653094 12.93571632311892 L -8.573339397219756 12.913088382725475 A 0.375 0.375 0 0 0 -8.73746 12.4988A 15.25 15.25 0 0 1 -8.95361 12.3449A 0.375 0.375 0 0 0 -9.39881 12.3253L -9.41558868029985 12.345988493028004 C -9.452932801457198 12.389945338985683 -9.57012705180283 12.518503192240836 -9.804313078376959 12.698418902637295 C -10.085784977047677 12.913754512707285 -10.528335862868916 13.195584157354025 -11.176630569135845 13.467297313910537 A 17.5 17.5 0 0 1 -11.7396 12.9795C -11.562933721482333 12.29910000966701 -11.346954253996657 11.820945113459228 -11.173868077686665 11.511692740346424 C -11.02911179630277 11.254285714626558 -10.918540957413136 11.119988642674521 -10.880346151329734 11.076768919401308 L -10.86222603046979 11.057216904039846 A 0.375 0.375 0 0 0 -10.945 10.6193A 15.25 15.25 0 0 1 -11.1281 10.4273A 0.375 0.375 0 0 0 -11.5615 10.3238L -11.581930411973174 10.340968523246818 C -11.626918564007278 10.377063590335245 -11.766324695276685 10.48111907799517 -12.030327947340266 10.613463480180886 C -12.347465814278918 10.771638788175261 -12.835355840012872 10.964622098158776 -13.523357069367282 11.108734464132166 A 17.5 17.5 0 0 1 -13.9838 10.5232C -13.68159642701278 9.88853965474859 -13.37902858076473 9.459900023403462 -13.15054390071347 9.18899301779566 C -12.959688953988993 8.96363297874517 -12.825700386221966 8.852688498686947 -12.780016423631922 8.817478226696615 L -12.758523513724764 8.801708797144581 A 0.375 0.375 0 0 0 -12.7569 8.35607A 15.25 15.25 0 0 1 -12.9004 8.13285A 0.375 0.375 0 0 0 -13.3064 7.9492L -13.329671002132436 7.962199007904801 C -13.380677196013297 7.989127726354621 -13.537256707403273 8.06492001198136 -13.821535419572964 8.144909834441364 C -14.162877065973735 8.240207972607463 -14.678472614905315 8.337370028291836 -15.381314210348618 8.34867300729472 A 17.5 17.5 0 0 1 -15.7227 7.68654C -15.305770590619195 7.120581712368786 -14.927549955905011 6.756949498972791 -14.651924803760561 6.53417914589397 C -14.421869186737837 6.3490111924939985 -14.269305586036326 6.265429126901919 -14.217783604376049 6.2395008971636665 L -14.19369471518495 6.228084001691916 A 0.375 0.375 0 0 0 -14.1078 5.79081A 15.25 15.25 0 0 1 -14.2064 5.54447A 0.375 0.375 0 0 0 -14.5703 5.28729L -14.595642552155587 5.295654875109941 C -14.65082329114101 5.312443970874285 -14.81891699114598 5.357233723790416 -15.113196590083009 5.3819779259295535 C -15.466405039487988 5.410954571257175 -15.991071145107709 5.408783682796708 -16.68335058014467 5.286868755718295 A 17.5 17.5 0 0 1 -16.8932 4.5721C -16.376754326284328 4.0952673944092854 -15.936550782286833 3.809785214589045 -15.623746969182024 3.64320301502197 C -15.362805491264314 3.5049195995587867 -15.197180903658259 3.4517208220542956 -15.14168304158416 3.436011748346207 L -15.115868808327482 3.4293600233035217 A 0.375 0.375 0 0 0 -14.9487 3.01625A 15.25 15.25 0 0 1 -14.999 2.75569A 0.375 0.375 0 0 0 -15.3077 2.43429L -15.334089551768093 2.437711977434405 C -15.391450460179131 2.4437546488487882 -15.564983004517051 2.455923050685357 -15.858627458777818 2.42452731256793 C -16.210936837549877 2.3861351735970215 -16.725710699796434 2.28470980255687 -17.38240719192834 2.0339832925080197 A 17.5 17.5 0 0 1 -17.4532 1.29242C -16.85583949138034 0.9219394427007062 -16.36956314111875 0.7249253662514874 -16.030886211861574 0.6205520349141999 C -15.748489977937217 0.5341510803165698 -15.575790507553352 0.5132583333267419 -15.518322602399062 0.5083361825022207 L -15.491716018725024 0.5066900385625437 A 0.375 0.375 0 0 0 -15.2494 0.132675A 15.25 15.25 0 0 1 -15.2494 -0.132675A 0.375 0.375 0 0 0 -15.4917 -0.50669L -15.518322602399062 -0.5083361825022169 C -15.575790507553352 -0.5132583333267379 -15.748489977937217 -0.534151080316566 -16.030886211861574 -0.6205520349141959 C -16.36956314111875 -0.7249253662514834 -16.85583949138034 -0.9219394427007019 -17.453218318375523 -1.2924156263852746 A 17.5 17.5 0 0 1 -17.3824 -2.03398C -16.725710699796434 -2.2847098025568657 -16.210936837549877 -2.386135173597018 -15.858627458777818 -2.424527312567926 C -15.564983004517051 -2.4559230506853535 -15.391450460179131 -2.4437546488487842 -15.334089551768093 -2.4377119774344016 L -15.307652248933453 -2.4342930443401043 A 0.375 0.375 0 0 0 -14.999 -2.75569A 15.25 15.25 0 0 1 -14.9487 -3.01625A 0.375 0.375 0 0 0 -15.1159 -3.42936L -15.141683041584164 -3.436011748346198 C -15.197180903658262 -3.4517208220542854 -15.362805491264318 -3.504919599558777 -15.623746969182028 -3.64320301502196 C -15.936550782286837 -3.8097852145890347 -16.37675432628433 -4.095267394409276 -16.893224660879838 -4.572103277184928 A 17.5 17.5 0 0 1 -16.6834 -5.28687C -15.991071145107714 -5.408783682796698 -15.466405039487992 -5.410954571257165 -15.113196590083012 -5.381977925929544 C -14.818916991145983 -5.357233723790406 -14.650823291141014 -5.312443970874275 -14.59564255215559 -5.295654875109932 L -14.570330043166514 -5.287294434131631 A 0.375 0.375 0 0 0 -14.2064 -5.54447A 15.25 15.25 0 0 1 -14.1078 -5.79081A 0.375 0.375 0 0 0 -14.1937 -6.22808L -14.217783604376049 -6.239500897163663 C -14.269305586036328 -6.265429126901916 -14.421869186737839 -6.349011192493995 -14.651924803760563 -6.534179145893966 C -14.927549955905013 -6.756949498972786 -15.305770590619197 -7.120581712368782 -15.72266584927241 -7.686543203048229 A 17.5 17.5 0 0 1 -15.3813 -8.34867C -14.678472614905317 -8.337370028291833 -14.162877065973737 -8.24020797260746 -13.821535419572966 -8.14490983444136 C -13.537256707403275 -8.064920011981359 -13.380677196013298 -7.989127726354617 -13.32967100213244 -7.962199007904798 L -13.306398147014887 -7.949199227162366 A 0.375 0.375 0 0 0 -12.9004 -8.13285A 15.25 15.25 0 0 1 -12.7569 -8.35607A 0.375 0.375 0 0 0 -12.7585 -8.80171L -12.780016423631928 -8.817478226696608 C -12.825700386221973 -8.85268849868694 -12.959688953989 -8.963632978745162 -13.150543900713478 -9.188993017795651 C -13.379028580764738 -9.459900023403454 -13.681596427012789 -9.888539654748582 -13.983848928865978 -10.523171430460385 A 17.5 17.5 0 0 1 -13.5234 -11.1087C -12.83535584001288 -10.964622098158769 -12.347465814278925 -10.771638788175254 -12.030327947340274 -10.613463480180881 C -11.766324695276692 -10.481119077995166 -11.626918564007285 -10.377063590335238 -11.581930411973179 -10.340968523246811 L -11.561538352347936 -10.32379924868688 A 0.375 0.375 0 0 0 -11.1281 -10.4273A 15.25 15.25 0 0 1 -10.945 -10.6193A 0.375 0.375 0 0 0 -10.8622 -11.0572L -10.880346151329737 -11.076768919401305 C -10.918540957413137 -11.119988642674517 -11.029111796302773 -11.254285714626555 -11.173868077686668 -11.51169274034642 C -11.34695425399666 -11.820945113459224 -11.562933721482336 -12.299100009667006 -11.73961927360732 -12.979464824519978 A 17.5 17.5 0 0 1 -11.1766 -13.4673C -10.52833586286892 -13.195584157354022 -10.08578497704768 -12.913754512707282 -9.804313078376962 -12.698418902637291 C -9.570127051802833 -12.518503192240832 -9.4529328014572 -12.38994533898568 -9.415588680299853 -12.345988493028 L -9.398814438332769 -12.325270266967271 A 0.375 0.375 0 0 0 -8.95361 -12.3449A 15.25 15.25 0 0 1 -8.73746 -12.4988A 0.375 0.375 0 0 0 -8.57334 -12.9131L -8.587431820653103 -12.935716323118912 C -8.616757010422411 -12.98538342426802 -8.699913802227673 -13.13817924202592 -8.793339549102958 -13.418329893838184 C -8.904771436288204 -13.754750447942488 -9.026356464327563 -14.265138845243543 -9.071089190520821 -14.966646542155665 A 17.5 17.5 0 0 1 -8.42595 -15.3391C -7.840794396329354 -14.94962342434332 -7.459577592489496 -14.589133502690864 -7.223944789872552 -14.324420380544648 C -7.028040081954004 -14.103435984476985 -6.937293418086278 -13.955022181397466 -6.9089430416434725 -13.904792271511889 L -6.896392882144097 -13.881273904621011 A 0.375 0.375 0 0 0 -6.45552 -13.8162A 15.25 15.25 0 0 1 -6.21415 -13.9265A 0.375 0.375 0 0 0 -5.97459 -14.3022L -5.984145329642688 -14.327133235238868 C -6.003541014333603 -14.381452615821972 -6.056278255935741 -14.547224740426342 -6.094996818391935 -14.839993643849104 C -6.140746977716608 -15.19142326358438 -6.163543166609605 -15.715598395496249 -6.074706309596538 -16.41289465854064 A 17.5 17.5 0 0 1 -5.37074 -16.6565C -4.8698661913159 -16.16334434991294 -4.563761637998889 -15.73722319627062 -4.382484314857574 -15.432699983985854 C -4.231941432163522 -15.1786338540901 -4.170922175644009 -15.0157281627179 -4.152590200386573 -14.961040628720447 L -4.1447177188183355 -14.935572136055361 A 0.375 0.375 0 0 0 -3.72412 -14.7883A 15.25 15.25 0 0 1 -3.46625 -14.8508A 0.375 0.375 0 0 0 -3.1599 -15.1745L -3.1645762348804074 -15.200730223255746 C -3.173341403913236 -15.25773863933081 -3.1937530339952067 -15.430495634283389 -3.1763650223049105 -15.725301358345016 C -3.1547799238101417 -16.079038461613084 -3.0779633598952945 -16.59805527314349 -2.8587677151505244 -17.265937998586026 A 17.5 17.5 0 0 1 -2.12141 -17.372C -1.7229283338356884 -16.792879897493773 -1.502999447146036 -16.316528640602055 -1.3826294382521347 -15.9832016004982 C -1.2828893927987979 -15.705236348671633 -1.2538029385422342 -15.53372660513958 -1.2461519298194692 -15.4765579969959 L -1.2432416581777963 -15.450059876239035 A 0.375 0.375 0 0 0 -0.858122 -15.2258A 15.25 15.25 0 0 1 -0.593072 -15.2385A 0.375 0.375 0 0 0 -0.231009 -15.4983L -0.23063110976659063 -15.524933215887867 C -0.2284489670950619 -15.582570234763958 -0.2157972561637186 -15.756068212153199 -0.14293111837344274 -16.042255709877278 C -0.054790903758258236 -16.385515316113 0.11886206220094686 -16.880615187408118 0.4604941929676606 -17.494945353399846 A 17.5 17.5 0 0 1 1.20459 -17.4595C 1.4862806426753343 -16.815477012157366 1.6120850597535386 -16.306112227561414 1.667197268657601 -15.956028667342958 C 1.7125296117573865 -15.664210682017988 1.7086320035101497 -15.490295695321615 1.7053255183084954 -15.432712235481372 L 1.7031683952238346 -15.406142197757058 A 0.375 0.375 0 0 0 2.03889 -15.1131A 15.25 15.25 0 0 1 2.30154 -15.0753A 0.375 0.375 0 0 0 2.70623 -15.2619L 2.7116496245576722 -15.28802467227885 C 2.7247002106118923 -15.344207141921995 2.769957996759779 -15.512175432800484 2.8956686885794234 -15.779401142365018 C 3.047178402311741 -16.099776955044852 3.3113914996771485 -16.553065686785942 3.763112641146062 -17.091639800506286 A 17.5 17.5 0 0 1 4.48705 -16.916C 4.641771564293613 -16.230318975303582 4.668904612346951 -15.706350433455691 4.656767122437922 -15.35216328512275 C 4.6460533341922625 -15.057039628613365 4.6093125331584 -14.887005139502953 4.595168059022478 -14.831088044237015 L 4.588021505260093 -14.805406399936171 A 0.375 0.375 0 0 0 4.86222 -14.4541A 15.25 15.25 0 0 1 5.11298 -14.3673A 0.375 0.375 0 0 0 5.54567 -14.474L 5.55592427631625 -14.498567084453908 C 5.579371623570192 -14.551264424029211 5.655599750625226 -14.707632216727484 5.829611484535864 -14.946237904739013 C 6.039014741576321 -15.232150707261672 6.384238620608634 -15.627245263651346 6.929722393779107 -16.07059785338928 A 17.5 17.5 0 0 1 7.60734 -15.7611C 7.629496767560487 -15.058554922998699 7.556977787537845 -14.538920212187973 7.478029279324959 -14.193430722106912 C 7.411656583955554 -13.90566793229655 7.343400498411653 -13.745659430229091 7.318929253489803 -13.693429689050943 L 7.30705156412283 -13.669564639711467 A 0.375 0.375 0 0 0 7.50981 -13.2727A 15.25 15.25 0 0 1 7.73961 -13.1401A 0.375 0.375 0 0 0 8.18466 -13.1629L 8.19939334890925 -13.185093506548723 C 8.232390009141689 -13.232401096902354 8.336833393981653 -13.371516851979985 8.552856932536605 -13.572878687192715 C 8.812585353580893 -13.813994845936492 9.226342723819842 -14.136615480297998 9.845873923885383 -14.468722628316492 A 17.5 17.5 0 0 1 10.4527 -14.0366C 10.341472079187787 -13.342535461094482 10.171922095973542 -12.846015533664655 10.029015974241945 -12.521710592171088 C 9.909383253891818 -12.251709166042131 9.81207883660893 -12.107509775180429 9.778165275451833 -12.060855107019508 L 9.761985741121013 -12.039669197704315 A 0.375 0.375 0 0 0 9.88598 -11.6116A 15.25 15.25 0 0 1 10.0865 -11.4379A 0.375 0.375 0 0 0 10.5278 -11.376L 10.546514982561675 -11.395076295890812 C 10.58786837049985 -11.435284317448662 10.716752157072044 -11.552120029054583 10.966979846744092 -11.708960270100782 C 11.267646169939873 -11.896565218866648 11.734982761990706 -12.1350515808943 12.406169917208153 -12.343910069567231 A 17.5 17.5 0 0 1 12.9202 -11.8048C 12.679679645430552 -11.144282003989241 12.419226637176237 -10.68882238378768 12.217527901503576 -10.397423216435467 C 12.04895899438619 -10.154941709010073 11.926123080529111 -10.031763171047714 11.883992927597905 -9.99236979716891 L 11.864096318829318 -9.974628741839998 A 0.375 0.375 0 0 0 11.9048 -9.53086A 15.25 15.25 0 0 1 12.0689 -9.32228A 0.375 0.375 0 0 0 12.4905 -9.17806L 12.512458086067547 -9.193211338317717 C 12.56067358252617 -9.224866568419708 12.709339574980445 -9.315199489524 12.984727535102959 -9.421849521449001 C 13.31546489615147 -9.549162728588634 13.819489947943858 -9.694895299788595 14.518074605762575 -9.772956439159838 A 17.5 17.5 0 0 1 14.9208 -9.14627C 14.559610552704363 -8.543245159116296 14.21766796973199 -8.14530734350555 13.964466537946404 -7.897345875435928 C 13.75305396356699 -7.691148200171851 13.609126163108357 -7.593442508409349 13.560302111899023 -7.562734207983078 L 13.537407543973675 -7.549079214603899 A 0.375 0.375 0 0 0 13.4934 -7.10562A 15.25 15.25 0 0 1 13.615 -6.86976A 0.375 0.375 0 0 0 14.0018 -6.64835L 14.026168353451387 -6.6590797702992965 C 14.079503324764197 -6.681038106452648 14.242578346787786 -6.741603369926475 14.533173338965602 -6.794208582702554 C 14.882028027910764 -6.856628617198603 15.404524760848465 -6.904340242745196 16.10525825159031 -6.848782699851559 A 17.5 17.5 0 0 1 16.3821 -6.1572C 15.913319199908164 -5.6334331749847255 15.502245738089059 -5.307399673437835 15.206692969645173 -5.111837878164142 C 14.96007772927189 -4.949376556288231 14.80025996792051 -4.880675048995578 14.746506646853577 -4.85976170000894 L 14.721441589107505 -4.85068629561796 A 0.375 0.375 0 0 0 14.5943 -4.42356A 15.25 15.25 0 0 1 14.6691 -4.16896A 0.375 0.375 0 0 0 15.0069 -3.87836L 15.032936351716302 -3.8842717093191492 C 15.089463133057139 -3.8957395200433895 15.261053228466288 -3.924348139463551 15.556352392544234 -3.9210072436394396 C 15.91071589199554 -3.9162780828114023 16.432799912798227 -3.8642443402459445 17.11035590236449 -3.677076109441371 A 17.5 17.5 0 0 1 17.2513 -2.9456C 16.691879029478518 -2.5200142381422355 16.22653195476428 -2.2776687508771056 15.89930989676889 -2.1415747412118202 C 15.626405307738569 -2.0287215481855165 15.456473815790796 -1.991507276836301 15.399734009942534 -1.9811447422108734 L 15.37340437886905 -1.9769769355685147 A 0.375 0.375 0 0 0 15.1678 -1.58162A 15.25 15.25 0 0 1 15.193 -1.31748A 0.375 0.375 0 0 0 15.4697 -0.968186" stroke="#191919" stroke-width="0.35 px" style="stroke-width:0.35;stroke-miterlimit:4;stroke-dasharray:none;fill:none;fill-rule: evenodd "/>
<title>b'InvoluteGear'</title>
</g>
</svg>