<?xml version="1.0"?>
<!DOCTYPE svg PUBLIC "-//W3C//DTD SVG 1.1//EN" "http://www.w3.org/Graphics/SVG/1.1/DTD/svg11.dtd">
<svg width="105.04425752793077mm" height="105.05671365202542mm" viewBox="0 0 105.04425752793077 105.05671365202542" xmlns="http://www.w3.org/2000/svg" version="1.1">
<g id="InvoluteGear" transform="translate(52.515952,52.528357) scale(1,-1)">
<path id="InvoluteGear_w0000"  d="M 49.48782654240904 -1.0977359010417809 C 49.64924500209298 -1.0537032675910338 49.8195681605888 -1.0041512842097355 49.99850615040912 -0.9484165912381745 C 50.446453139371194 -0.8088871876606504 50.94813030971804 -0.6307223874575711 51.49846028589589 -0.4037429210648795 A 51.5 51.5 0 0 1 51.4985 0.403743C 50.94813030971804 0.6307223874575711 50.446453139371194 0.8088871876606504 49.99850615040912 0.9484165912381745 C 49.8195681605888 1.0041512842097355 49.64924500209298 1.0537032675910338 49.487827665657555 1.0977354719407777 A 0.375 0.375 0 0 0 49.2282 1.46422A 49.25 49.25 0 0 1 49.224 1.59911A 0.375 0.375 0 0 0 49.4603 1.98103C 49.61871171035256 2.0350105795570026 49.78562476640154 2.0950556384494816 49.960751612407044 2.1618070280210477 C 50.39915759899823 2.3289152274126392 50.88878788255707 2.5379244729036268 51.4239420677215 2.7986786846525655 A 51.5 51.5 0 0 1 51.3737 3.6046C 50.81036431826075 3.796929105430361 50.29858115263856 3.9435601753451204 49.842826181184485 4.054970970952121 C 49.660769323870184 4.099473340623993 49.48769501013956 4.138340541496731 49.32385245368268 4.172252312542822 A 0.375 0.375 0 0 0 49.042 4.52189A 49.25 49.25 0 0 1 49.0294 4.65626A 0.375 0.375 0 0 0 49.2415 5.05213C 49.39621326229241 5.115851366108517 49.55907046170643 5.186157197844107 49.72970863215133 5.263667035857029 C 50.15687750877739 5.457707521902883 50.63256662110024 5.696752596514614 51.15047460767176 5.990272746230531 A 51.5 51.5 0 0 1 51.0503 6.79152C 50.47602289804276 6.9484462423129845 49.95611372679033 7.062976294815529 49.49431400029057 7.145837455727264 C 49.309842618095566 7.178935331076536 49.134686740027284 7.206967379791163 48.96905283857067 7.230627519479365 A 0.375 0.375 0 0 0 48.666 7.56207A 49.25 49.25 0 0 1 48.6451 7.69539A 0.375 0.375 0 0 0 48.8322 8.10368C 48.98261046118394 8.176899917566622 49.140781741096276 8.257194522540454 49.30627107004851 8.34516293848908 C 49.7205502033107 8.565385006244382 50.18045779563275 8.833541091021797 50.67911589822384 9.158691606266775 A 51.5 51.5 0 0 1 50.5293 9.95216C 49.94639955106729 10.073081190539217 49.420375801766916 10.155067131105847 48.95431793365077 10.209058083587953 C 48.76814571051604 10.23062341536473 48.591585912175304 10.247711861370473 48.42480147110645 10.261028833216724 A 0.375 0.375 0 0 0 48.1017 10.573A 49.25 49.25 0 0 1 48.0726 10.7047A 0.375 0.375 0 0 0 48.2339 11.1239C 48.37950345591517 11.206313631747017 48.532376882371345 11.296286365731055 48.692077123766346 11.394373026903455 C 49.091863748178895 11.639924679969985 49.53421052737042 11.936154331115011 50.01168953465506 12.291677267711645 A 51.5 51.5 0 0 1 49.8128 13.0743C 49.223543287175374 13.158745344508416 48.693440043523935 13.207869985462255 48.2249271211434 13.232781849008251 C 48.037774321233094 13.242731205133326 47.86049367817992 13.248809936552314 47.69320395410057 13.25173221977959 A 0.375 0.375 0 0 0 47.3513 13.543A 49.25 49.25 0 0 1 47.3141 13.6727A 0.375 0.375 0 0 0 47.449 14.101C 47.5892255503256 14.19237229550523 47.73620968573693 14.29167507147044 47.88950299036525 14.39950049962956 C 48.27325040914375 14.669431746364229 48.69632502144952 14.992588908904285 49.150777659907035 15.377108817677323 A 51.5 51.5 0 0 1 48.9036 16.1458C 48.31025069682476 16.193500869052176 47.77811882529027 16.209574156700683 47.30896343412534 16.205310552150067 C 47.121554115264665 16.203605440497423 46.9442384918672 16.198650939898695 46.77709069622092 16.191167228760893 A 0.375 0.375 0 0 0 46.4178 16.4606A 49.25 49.25 0 0 1 46.3725 16.5877A 0.375 0.375 0 0 0 46.4806 17.0237C 46.61483417610687 17.123523427964404 46.75536036740765 17.23177206276184 46.901653673253556 17.34891910227308 C 47.26787724218426 17.642185631121055 47.67004289411879 17.99102007277311 48.099710974776215 18.40304932089511 A 51.5 51.5 0 0 1 47.8053 19.1549C 47.210055131624706 19.165606884599462 46.67795334704238 19.148566634515237 46.209970558159974 19.115144056925736 C 46.02302977059611 19.101791074241113 45.84636516655469 19.085822509624986 45.6800059616915 19.067961757146662 A 0.375 0.375 0 0 0 45.3046 19.3146A 49.25 49.25 0 0 1 45.2515 19.4386A 0.375 0.375 0 0 0 45.3323 19.8804C 45.46009906419358 19.988426974819532 45.59362364284929 20.105202675510334 45.73235096953245 20.23121810723564 C 46.0796338407724 20.546685326968877 46.45933463155593 20.919847475045266 46.86255585207962 21.357792001399005 A 51.5 51.5 0 0 1 46.5219 22.0899C 45.92721303448508 22.063564890358805 45.397199935289564 22.013477027959055 44.93220028318615 21.951024782790455 C 44.74645126450974 21.926075589169812 44.57112116085725 21.89915473981062 44.40619415822263 21.870986045773353 A 0.375 0.375 0 0 0 44.0162 22.0938A 49.25 49.25 0 0 1 43.9555 22.2143A 0.375 0.375 0 0 0 44.0087 22.6602C 44.12948766040656 22.775999180804604 44.25549404576183 22.900850164888478 44.38611868420547 23.035246459603176 C 44.71311728779151 23.371693888833455 45.06888422882791 23.76774005147643 45.44409860464832 24.2299055337677 A 51.5 51.5 0 0 1 45.0586 24.9394C 44.466687472265605 24.87616324978407 43.940813576173504 24.793221555278002 43.48059605416891 24.701981258134435 C 43.29675743124826 24.665532377161075 43.12344014609486 24.627763394595156 42.9605834162221 24.58939573820392 A 0.375 0.375 0 0 0 42.5575 24.7875A 49.25 49.25 0 0 1 42.4894 24.904A 0.375 0.375 0 0 0 42.5148 25.3524C 42.628147841772936 25.47545547058847 42.74614853960173 25.607898713862447 42.86816512845579 25.75015591841107 C 43.17361437031575 26.106281907395402 43.50407106842399 26.52367985894047 43.849826968012906 27.008278268701876 A 51.5 51.5 0 0 1 43.421 27.6925C 42.834128934634286 27.59252056621822 42.31442874558955 27.477045924909024 41.86077384587126 27.357370566775142 C 41.67955685462464 27.309563012088738 41.50892291887671 27.26109201717236 41.348766522815964 27.212673835436156 A 0.375 0.375 0 0 0 40.9342 27.3853A 49.25 49.25 0 0 1 40.859 27.4974A 0.375 0.375 0 0 0 40.8564 27.9465C 40.96188800038994 28.07635217220175 41.071426488916025 28.21587527748698 41.18436296970206 28.365443026381044 C 41.467081126057934 28.739869792851632 41.770949108469935 29.17700470171099 42.08590886942086 29.682161221836743 A 51.5 51.5 0 0 1 41.6154 30.3384C 41.03585347342069 30.202127780903076 40.524337610494044 30.05456694174504 40.079000435738784 29.906919523332476 C 39.901106169500814 29.847938253074666 39.73381573270719 29.788952770670832 39.5769792844417 29.73067138412874 A 0.375 0.375 0 0 0 39.1524 29.8772A 49.25 49.25 0 0 1 39.0704 29.9844A 0.375 0.375 0 0 0 39.0399 30.4325C 39.13715457188425 30.568626921574783 39.237807067975254 30.714690101081676 39.341226511388946 30.870989745756813 C 39.60011980061667 31.262268705293025 39.87622346114005 31.717449381425265 40.15916856532422 32.24120965947433 A 51.5 51.5 0 0 1 39.6487 32.8669C 39.07881826703831 32.69488883048607 38.57746568573266 32.51581267769967 38.14216915895518 32.340764418187206 C 37.9682858560829 32.27083761943449 37.80498613244451 32.201565852915685 37.65207640172442 32.13364674093007 A 0.375 0.375 0 0 0 37.2193 32.2535A 49.25 49.25 0 0 1 37.1307 32.3554A 0.375 0.375 0 0 0 37.0724 32.8007C 37.16100709540493 32.94263759186946 37.25238419410695 33.094675755531796 37.345886490412745 33.25710260302664 C 37.57995330467075 33.663719973346694 37.82722445188084 34.13518541114254 38.07706023965712 34.67552312034857 A 51.5 51.5 0 0 1 37.5287 35.2683C 36.97059470451292 35.061159706728056 36.48134504056898 34.8512610511598 36.05777323946753 34.649489178257355 C 35.88857362067996 34.56888738420963 35.729896385103764 34.48959733258328 35.5815049499719 34.41230326100396 A 0.375 0.375 0 0 0 35.1421 34.505A 49.25 49.25 0 0 1 35.0474 34.6012A 0.375 0.375 0 0 0 34.9615 35.042C 35.04109090163788 35.18919959699478 35.12283908270761 35.34662453869336 35.206062489685515 35.514550191089185 C 35.414397269940956 35.93493284857972 35.63187925980586 36.4208590398506 35.84763916504624 36.97568371858658 A 51.5 51.5 0 0 1 35.2635 37.5332C 34.719339093249275 37.29178576729764 34.244085158571686 37.051876666069504 33.83387680015863 36.824161795955675 C 33.670015465910915 36.73319683929583 33.51657460979559 36.64419526036822 33.37327556788687 36.55782526494243 A 0.375 0.375 0 0 0 32.9289 36.6231A 49.25 49.25 0 0 1 32.8284 36.7132A 0.375 0.375 0 0 0 32.7153 37.1478C 32.78560753450661 37.29962142498621 32.857410530112475 37.46182409820412 32.93003307256848 37.63459888377423 C 33.11182981202915 38.06712044959998 33.29868124897969 38.565627440311374 33.47953053852587 39.13279257967951 A 51.5 51.5 0 0 1 32.8619 39.6529C 32.333761103862244 39.378137153303925 31.87434156359803 39.10914576812209 31.479083664322047 38.856368885391845 C 31.321194562283505 38.75539269186568 31.173583718492832 38.657023915455596 31.03593146596212 38.56191214491678 A 0.375 0.375 0 0 0 30.5884 38.5994A 49.25 49.25 0 0 1 30.4825 38.6831A 0.375 0.375 0 0 0 30.3426 39.1098C 30.403283020992127 39.26573826377697 30.46486303929311 39.432091137882175 30.526603754718625 39.60904662454568 C 30.681159117116696 40.05203375679321 30.836657109242427 40.56119292024162 30.98189611232623 41.138504268499254 A 51.5 51.5 0 0 1 30.3331 41.6192C 29.82309007415324 41.312142176544086 29.381282333253548 41.01510918282162 29.002504069141292 40.738248232127965 C 28.851198041575035 40.62765145901188 28.709988287787695 40.52029605480543 28.578515374458707 40.41681047811672 A 0.375 0.375 0 0 0 28.1295 40.4264A 49.25 49.25 0 0 1 28.0186 40.5033A 0.375 0.375 0 0 0 27.8524 40.9206C 27.903334111829757 41.079943589269746 27.954452911698016 41.249803077309245 28.005072937259257 41.430254658664886 C 28.13178897792265 41.88199352617739 28.255331933700187 42.39983502447235 28.364398748833853 42.98505907616573 A 51.5 51.5 0 0 1 27.687 43.4245C 27.197039302595204 43.08631854729691 26.774552629380825 42.76239310798277 26.41371941995196 42.462519210558945 C 26.26958184048485 42.342729735282795 26.135319489805823 42.22680304048322 26.01053455883936 42.115344023236965 A 0.375 0.375 0 0 0 25.5618 42.097A 49.25 49.25 0 0 1 25.4463 42.1669A 0.375 0.375 0 0 0 25.2545 42.573C 25.295432623690985 42.73521859350081 25.335892436420536 42.9079275421135 25.37519593307242 43.09117708604883 C 25.47358241225657 43.54991999890595 25.564692367990354 44.074440403890165 25.637165036854235 44.665313040853135 A 51.5 51.5 0 0 1 24.9337 45.0618C 24.46576846946779 44.693802321848224 24.064237382802084 44.344237641539024 23.722745221645837 44.0225109512385 C 23.58633373057163 43.893992216010986 23.459538217952932 43.7699427284797 23.34192403800528 43.6509414839608 A 0.375 0.375 0 0 0 22.8952 43.6047A 49.25 49.25 0 0 1 22.7756 43.6673A 0.375 0.375 0 0 0 22.5589 44.0607C 22.589668020803735 44.225159339044374 22.61931231523915 44.400049570859764 22.647147225388498 44.58538812048867 C 22.716823504918718 45.04936029147925 22.775147973889688 45.578530335602956 22.810746113807014 46.172765586390256 A 51.5 51.5 0 0 1 22.084 46.5247C 21.639844331028073 46.12837445775563 21.260822276681036 45.75452293429054 20.939992330628197 45.41218814917717 C 20.811834677505587 45.275437368017876 20.692996550153325 45.14374501112341 20.58300814763813 45.017661932028865 A 0.375 0.375 0 0 0 20.14 44.9438A 49.25 49.25 0 0 1 20.0168 44.9988A 0.375 0.375 0 0 0 19.7761 45.3779C 19.79650838077529 45.54400153460256 19.815222468900306 45.72039643328918 19.831481104687175 45.907106949768355 C 19.872177620573762 46.37451336069741 19.897490956742008 46.90628578786024 19.896076845424982 47.501584671727 A 51.5 51.5 0 0 1 19.1489 47.8077C 18.730199838783317 47.384484874115614 18.375153179451676 46.98779286641182 18.076226677236793 46.626174413264785 C 17.956818679128876 46.48172064837985 17.846397698671428 46.34289491426752 17.744460597350884 46.21021779153654 A 0.375 0.375 0 0 0 17.3069 46.1089A 49.25 49.25 0 0 1 17.1805 46.1562A 0.375 0.375 0 0 0 16.9167 46.5196C 16.92675989563367 46.68664283592851 16.934471376276864 46.86385996389108 16.939090836197906 47.05122010050398 C 16.950650141526907 47.520252446769355 16.942854412512332 48.052569932756576 16.904433520882936 48.646629353968144 A 51.5 51.5 0 0 1 16.1396 48.9057C 15.748091842025593 48.457273923748296 15.41839418426038 48.03927615611939 15.142527614448909 47.6597730664833 C 15.032331237703314 47.50817518142643 14.930754601462898 47.362753159892236 14.837263176178979 47.223995295537854 A 0.375 0.375 0 0 0 14.4069 47.0957A 49.25 49.25 0 0 1 14.2778 47.135A 0.375 0.375 0 0 0 13.9918 47.4813C 13.991525064769887 47.6486625858051 13.98820410371074 47.826016324403014 13.981166515972932 48.01330122117903 C 13.963543890037613 48.482144907750616 13.922669256001331 49.01294801962075 13.847390227025352 49.60346967768272 A 51.5 51.5 0 0 1 13.068 49.8145C 12.705057537268583 49.34259119422839 12.401984417258255 48.90490481883406 12.15024505401698 48.50898531643772 C 12.049686627007791 48.35082981397572 11.957347315257012 48.19937411457023 11.872663266171825 48.05507233581355 A 0.375 0.375 0 0 0 11.4511 47.9003A 49.25 49.25 0 0 1 11.3198 47.9315A 0.375 0.375 0 0 0 11.0129 48.2594C 11.002159741524764 48.42633891670894 10.98781918691646 48.60314311878157 10.969151778579587 48.78962820683838 C 10.922415399896195 49.25646936857377 10.848619996856687 49.783704532204624 10.736774070472991 50.36840381354093 A 51.5 51.5 0 0 1 9.94574 50.5306C 9.61286983307571 50.03701156502447 9.337593781844422 49.581329905423026 9.110955555865019 49.17052572590705 C 9.020424119611137 49.00642447895451 8.93767937520866 48.84952105435586 8.862130328456784 48.70023363674578 A 0.375 0.375 0 0 0 8.45098 48.5195A 49.25 49.25 0 0 1 8.318 48.5425A 0.375 0.375 0 0 0 7.99131 48.8507C 7.970229199598308 49.01666314999275 7.944924532260727 49.192233794429534 7.91469952390118 49.37719759918937 C 7.839030206439499 49.84023011832574 7.732599534475102 50.36185756329373 7.584619420844873 50.93847237997277 A 51.5 51.5 0 0 1 6.78503 51.0511C 6.483491802963848 50.53784845862506 6.237077810076714 50.065934458633485 6.036417540627126 49.64183492356264 C 5.956263343668128 49.47242280796453 5.883433289955458 49.31067868704132 5.8173115301220735 49.15698319459492 A 0.375 0.375 0 0 0 5.41819 48.9511A 49.25 49.25 0 0 1 5.28404 48.9657A 0.375 0.375 0 0 0 4.93882 49.253C 4.907463389252629 49.417351435878594 4.871292508027833 49.59100927396381 4.829626834331227 49.773736206398475 C 4.72531732798045 50.2311687000713 4.586663146685005 50.74517035112693 4.4031213521201975 51.31146989244032 A 51.5 51.5 0 0 1 3.59808 51.3742C 3.3290304025960458 50.84316423438496 3.11243179592139 50.35684363759183 2.938525798602414 49.92108950567869 C 2.869058941955001 49.74702194399904 2.8064253442614637 49.58106288333354 2.7499866835900786 49.423553934053096 A 0.375 0.375 0 0 0 2.36444 49.1932A 49.25 49.25 0 0 1 2.22964 49.1995A 0.375 0.375 0 0 0 1.86723 49.4648C 1.8257115564130593 49.62685358922896 1.7788143994136913 49.79792677252309 1.725869256777286 49.97770989762882 C 1.5933231147535696 50.42777264838422 1.4229818502185512 50.93215993299321 1.204588462266187 51.48595329602902 A 51.5 51.5 0 0 1 0.3972 51.4985C 0.16168963032198844 50.951777684880604 -0.02425561220896616 50.45293197119878 -0.17073452887793414 50.00720909052698 C -0.22924529144052186 49.829159516346316 -0.281440115893104 49.65962757930383 -0.32797732718853323 49.498914544715305 A 0.375 0.375 0 0 0 -0.698459 49.245A 49.25 49.25 0 0 1 -0.833393 49.2429A 0.375 0.375 0 0 0 -1.21159 49.4852C -1.2631035997624331 49.64435908691192 -1.3205455965465205 49.81218576650271 -1.3845653736513697 49.98832953829444 C -1.544835356073902 50.429281340782154 -1.7462046865877268 50.922102882526254 -1.9986047463363286 51.461247548346776 A 51.5 51.5 0 0 1 -2.80521 51.4236C -3.0062766877208063 50.86326860577204 -3.1608491800877676 50.35382771235841 -3.2793343176341816 49.89986049816393 C -3.326662619338311 49.71851775069557 -3.368216738913873 49.54606882340603 -3.404672457403497 49.38277347101898 A 0.375 0.375 0 0 0 -3.75866 49.1064A 49.25 49.25 0 0 1 -3.8932 49.0959A 0.375 0.375 0 0 0 -4.28572 49.3141C -4.347032053490019 49.469800203557696 -4.414796658132364 49.63373109062502 -4.489643389624979 49.80555404306864 C -4.677017159019535 50.23568894042732 -4.908635496691861 50.715038108500586 -5.194065741438583 51.237448231131886 A 51.5 51.5 0 0 1 -5.99677 51.1497C -6.162612305279719 50.57797942149197 -6.285214036538083 50.059914276195485 -6.37524699898255 49.59945903943911 C -6.411209735823265 49.41552469854406 -6.441962385705771 49.240825952405984 -6.468195571296902 49.07558004021586 A 0.375 0.375 0 0 0 -6.80431 48.7777A 49.25 49.25 0 0 1 -6.93794 48.7589A 0.375 0.375 0 0 0 -7.34327 48.9523C -7.41414268468836 49.10385227357492 -7.49196772909804 49.2632531513631 -7.577351847514541 49.43009053483518 C -7.791104491167907 49.84774441870804 -8.052075749646123 50.311766704301 -8.369431905223774 50.81542118046576 A 51.5 51.5 0 0 1 -9.16513 50.678C -9.295105973022883 50.09701386047201 -9.385262620891904 49.572328756696756 -9.446495088193178 49.10716690923817 C -9.470953127328022 48.92135258114895 -9.490785331489306 48.74507989167291 -9.50669449308314 48.57852272401211 A 0.375 0.375 0 0 0 -9.82364 48.2603A 49.25 49.25 0 0 1 -9.95584 48.2332A 0.375 0.375 0 0 0 -10.3724 48.4011C -10.452569438164284 48.54793107841302 -10.540153832363332 48.70218525589226 -10.635745003136899 48.86339160896717 C -10.875049553595906 49.266948657613945 -11.164364085779113 49.713848848647956 -11.512418362873646 50.19679913702143 A 51.5 51.5 0 0 1 -12.298 50.0101C -12.391638681490516 49.42223268503193 -12.449001447414068 48.89295752751533 -12.48119652305162 48.42488869017665 C -12.494055241078572 48.23791325443101 -12.502890272573483 48.060748586408586 -12.508413860714443 47.8935245406022 A 0.375 0.375 0 0 0 -12.805 47.5562A 49.25 49.25 0 0 1 -12.9352 47.521A 0.375 0.375 0 0 0 -13.3614 47.6626C -13.450557231075244 47.80418736917883 -13.547562128057276 47.95269806690299 -13.652990527518416 48.10764971351777 C -13.916921161966357 48.49554864311516 -14.233459666133863 48.923597769569135 -14.610865510362725 49.383975429307014 A 51.5 51.5 0 0 1 -15.3834 49.1488C -15.440230547188284 48.556246492451656 -15.464577505768712 48.024428943957346 -15.467610633249347 47.55526398413983 C -15.46882028228639 47.36785081237546 -15.466623960094427 47.190479581489946 -15.461740605093048 47.02323561488507 A 0.375 0.375 0 0 0 -15.7367 46.6682A 49.25 49.25 0 0 1 -15.8646 46.6249A 0.375 0.375 0 0 0 -16.2987 46.7397C -16.3965074310611 46.87549854579837 -16.502557537724563 47.01769120472871 -16.617415283877033 47.16578866706465 C -16.9049509059623 47.53652877201005 -17.247488756134516 47.94407079496967 -17.652786057603965 48.38009471434269 A 51.5 51.5 0 0 1 -18.4092 48.0974C -18.429087160429148 47.5024056150776 -18.42032411801352 46.97010317438599 -18.39418356275625 46.501657200175806 C -18.383739462906256 46.31453135754605 -18.37052028417131 46.13763977863234 -18.355248878779413 45.971022925645734 A 0.375 0.375 0 0 0 -18.6076 45.5995A 49.25 49.25 0 0 1 -18.7325 45.5484A 0.375 0.375 0 0 0 -19.173 45.636C -19.279022729099598 45.76545752491553 -19.393707758183865 45.90078202927803 -19.517550488720897 46.04145234702382 C -19.82757867898037 46.39359930587385 -20.194790662758855 46.7790575244243 -20.62641140494547 47.18904081159354 A 51.5 51.5 0 0 1 -21.3637 46.8598C -21.34664521561328 46.26478715853759 -21.30480607471033 45.73405920038283 -21.249592969445192 45.26814453825051 C -21.227535526901534 45.0820299782881 -21.20334463405808 44.90630241050077 -21.177744260376397 44.74095727936845 A 0.375 0.375 0 0 0 -21.4066 44.3545A 49.25 49.25 0 0 1 -21.528 44.2957A 0.375 0.375 0 0 0 -21.9731 44.3558C -22.086951233480743 44.478358839595586 -22.209827490887825 44.60629164517196 -22.342176082343553 44.73899059219587 C -22.673497401937425 45.071182016777335 -23.063962847494178 45.43306516795294 -23.520237173596183 45.81542167722666 A 51.5 51.5 0 0 1 -24.2357 45.441C -24.181617247410944 44.84817922821134 -24.106863875528852 44.3210790359605 -24.02279182903403 43.85949821922191 C -23.989206379756872 43.675114983003375 -23.954137362669815 43.50123128216411 -23.918307063570808 43.337797561077295 A 0.375 0.375 0 0 0 -24.1227 42.9379A 49.25 49.25 0 0 1 -24.2402 42.8716A 0.375 0.375 0 0 0 -24.6882 42.9039C -24.809429614309494 43.019182024610956 -24.940021715670305 43.139228184229566 -25.080364137055373 43.263442374084626 C -25.431696768163 43.57439308030971 -25.843905040543785 43.911301108500595 -26.323067713832625 44.264551576823735 A 51.5 51.5 0 0 1 -27.0138 43.8464C -26.923035299773193 43.25806240498083 -26.815656903185648 42.73662922687945 -26.703051173876585 42.28116802204455 C -26.658067653444625 42.0992294524912 -26.612256187328327 41.92786234085864 -26.566334583278554 41.76697232313441 A 0.375 0.375 0 0 0 -26.7454 41.3551A 49.25 49.25 0 0 1 -26.8586 41.2817A 0.375 0.375 0 0 0 -27.3077 41.286C -27.435925131618603 41.393572351588666 -27.57372784146275 41.505267429979 -27.721521135212743 41.62051630209538 C -28.091505840136765 41.90902328208924 -28.523862185614284 42.21965275558449 -29.02405941879259 42.54243052552009 A 51.5 51.5 0 0 1 -29.6875 42.0821C -29.56029335882298 41.50058854192764 -29.420705363686277 40.98683970164444 -29.280001601254074 40.53926019963356 C -29.223794042169047 40.36047018172631 -29.167417362686237 40.19228264536435 -29.11158211545071 40.034558783225634 A 0.375 0.375 0 0 0 -29.2647 39.6124A 49.25 49.25 0 0 1 -29.3731 39.532A 0.375 0.375 0 0 0 -29.8216 39.5085C -29.95627638449353 39.60781898855101 -30.100756570907162 39.71073085915346 -30.255428953479953 39.81656853803403 C -30.642634333272916 40.08151561433848 -31.09346604913917 40.36466476805029 -31.61276267628368 40.65572107511157 A 51.5 51.5 0 0 1 -32.2463 40.1551C -32.083188385462584 39.58255696400839 -31.911930830612533 39.07848005600189 -31.74367339057991 38.640513854958286 C -31.67645924896863 38.46556409254339 -31.609735466540098 38.3012068163569 -31.54420259184341 38.147259312785735 A 0.375 0.375 0 0 0 -31.6708 37.7164A 49.25 49.25 0 0 1 -31.774 37.6294A 0.375 0.375 0 0 0 -32.2202 37.578C -32.36073262355844 37.6688306683463 -32.511331320768086 37.762561185125904 -32.67228439476327 37.85857820535186 C -33.075212427032056 38.09894034919921 -33.54277533296016 38.35351373405844 -34.079162296302755 38.6117225379361 A 51.5 51.5 0 0 1 -34.6804 38.0727C -34.481959788949624 37.511388162787455 -34.279695236596226 37.01893336268911 -34.08453507431177 36.59227486876219 C -34.00657438863063 36.421842208483426 -33.92976164460834 36.261951058844744 -33.85478467641181 36.112375506825494 A 0.375 0.375 0 0 0 -33.9543 35.6744A 49.25 49.25 0 0 1 -34.052 35.5813A 0.375 0.375 0 0 0 -34.4941 35.5022C -34.63999147473138 35.58410896010358 -34.796126045633926 35.66829549789967 -34.96273711487611 35.75412038827272 C -35.37982894933956 35.96896768522291 -35.862314135278616 36.193980406258795 -36.413716257860514 36.41834274725212 A 51.5 51.5 0 0 1 -36.9802 35.8429C -36.747327188726636 35.29509508799661 -36.51483816112958 34.81616760776019 -36.293530313347965 34.402467479777194 C -36.20512469834465 34.23721129248771 -36.11852016631304 34.08240485719318 -36.03438917594105 33.937779935479 A 0.375 0.375 0 0 0 -36.1065 33.4945A 49.25 49.25 0 0 1 -36.1982 33.3954A 0.375 0.375 0 0 0 -36.6345 33.2891C -36.78523492830233 33.36171924711905 -36.94630131857476 33.43603610457158 -37.11792579720412 33.511336825263825 C -37.54756778658196 33.699838072862725 -38.0431086110786 33.89441959957018 -38.60739262520687 34.08406746336811 A 51.5 51.5 0 0 1 -39.137 33.4746C -38.87052631841039 32.94225214698921 -38.60871227045245 32.47870486399588 -38.36211293424388 32.07956362738361 C -38.263604414068546 31.92012325716816 -38.16754315013762 31.77100045224214 -38.07458362404803 31.631885686559247 A 0.375 0.375 0 0 0 -38.119 31.185A 49.25 49.25 0 0 1 -38.2043 31.0804A 0.375 0.375 0 0 0 -38.6332 30.9471C -38.788163454099845 31.010259523454813 -38.95353852916813 31.074419183079634 -39.12951243541785 31.138904410231174 C -39.57004237831851 31.30033033377144 -40.076721690190105 31.463727868024424 -40.651704490635936 31.617927543884278 A 51.5 51.5 0 0 1 -41.1424 30.9767C -40.84334293303609 30.461962032023823 -40.55321677240695 30.015588320659447 -40.282279992697056 29.632550175322297 C -40.174049677677274 29.479542465999238 -40.068903324215626 29.336680218604307 -39.967474904755896 29.203613816955702 A 0.375 0.375 0 0 0 -39.984 28.7548A 49.25 49.25 0 0 1 -40.0627 28.6451A 0.375 0.375 0 0 0 -40.4825 28.4855C -40.64102811076094 28.538827129970255 -40.81007206658658 28.59258137050839 -40.98971459159934 28.64600162330274 C -41.43942816325425 28.779727697245956 -41.955285718674304 28.911309085727225 -42.5387428086831 29.029464005059044 A 51.5 51.5 0 0 1 -42.9887 28.3589C -42.65814458837529 27.863820503716248 -42.340828756828415 27.436347297154324 -42.04660273538377 27.070894143264876 C -41.92906934758276 26.924911051937187 -41.815244695405454 26.78886206835507 -41.70573978942626 26.662358838798298 A 0.375 0.375 0 0 0 -41.6944 26.2134A 49.25 49.25 0 0 1 -41.766 26.099A 0.375 0.375 0 0 0 -42.1751 25.9136C -42.33666052487976 25.95698355847757 -42.50871936323736 26.000124415215065 -42.691335504982526 26.042273021071967 C -43.148492850947555 26.14778188521663 -43.67153289724837 26.247038065096103 -44.26120699468541 26.32869110947061 A 51.5 51.5 0 0 1 -44.6686 25.6315C -44.30791016937988 25.157879266905883 -43.96463230022348 24.750960375938575 -43.64825534036259 24.404506080753674 C -43.521873593624875 24.26611238764198 -43.39981100819878 24.137403014960302 -43.28265326890815 24.01795237391509 A 0.375 0.375 0 0 0 -43.2434 23.5706A 49.25 49.25 0 0 1 -43.3078 23.452A 0.375 0.375 0 0 0 -43.7045 23.2414C -43.86850062405183 23.274717460187368 -44.04290868272118 23.30707802953036 -44.22779193482267 23.33779192368184 C -44.69062440213695 23.414675384729488 -45.21882339898889 23.481222353129425 -45.81243316932555 23.526057622780453 A 51.5 51.5 0 0 1 -46.1757 22.8049C -45.78625705351229 22.354607082562346 -45.41834522213449 21.969816797327827 -45.081041324853395 21.643701725210832 C -44.94630016560527 21.513432848628426 -44.81647188336066 21.392561038406086 -44.69211457129199 21.280625117197296 A 0.375 0.375 0 0 0 -44.6251 20.8365A 49.25 49.25 0 0 1 -44.682 20.7142A 0.375 0.375 0 0 0 -45.0649 20.4794C -45.230622016519746 20.502406001557624 -45.40670454460361 20.523861086749918 -45.59313962967579 20.543021443106213 C -46.05985660943644 20.590982053881984 -46.59117105753242 20.624562353509543 -47.186419939886164 20.63240638948882 A 51.5 51.5 0 0 1 -47.5041 19.89C -47.08746580387209 19.46484926618304 -46.69634338967532 19.103676265542756 -46.33941751822552 18.799162092354237 C -46.19683823383633 18.677522017277646 -46.05974653517582 18.564955399066967 -45.92867076461096 18.46096725602828 A 0.375 0.375 0 0 0 -45.8342 18.0219A 49.25 49.25 0 0 1 -45.8834 17.8962A 0.375 0.375 0 0 0 -46.2509 17.6381C -46.417754919231534 17.650774717052613 -46.59483068763581 17.661241312537616 -46.782096324552754 17.668774003402213 C -47.25089217943288 17.687626213620188 -47.78326652639019 17.688109928819657 -48.37785161847252 17.65893238407583 A 51.5 51.5 0 0 1 -48.6488 16.8983C -48.20650229658632 16.499785729374402 -47.79368247620884 16.163627321503764 -47.41851550744799 15.881892153422669 C -47.26864970947057 15.769351481671693 -47.124824975543866 15.66552555385053 -46.98753785317542 15.56988749890588 A 0.375 0.375 0 0 0 -46.866 15.1375A 49.25 49.25 0 0 1 -46.9073 15.0091A 0.375 0.375 0 0 0 -47.258 14.7286C -47.42530654560756 14.730856014133725 -47.60269048258431 14.730293626686828 -47.79006217697636 14.72616950954212 C -48.25912322688508 14.715840383663332 -48.79049781977821 14.683225643034575 -49.38211878737622 14.617139399820013 A 51.5 51.5 0 0 1 -49.6052 13.8411C -49.13903719685675 13.470887726945822 -48.70611708998625 13.161044443420332 -48.31416047203385 12.90317825908007 C -48.157587962126556 12.800172388650752 -48.00758662288879 12.705488833563876 -47.864619285922814 12.618570871768508 A 0.375 0.375 0 0 0 -47.7164 12.1946A 49.25 49.25 0 0 1 -47.7496 12.0638A 0.375 0.375 0 0 0 -48.0823 11.7621C -48.24937887413961 11.753946491018139 -48.42638471569655 11.742357296407118 -48.61313756287827 11.72659232666116 C -49.080649101736654 11.687121826067028 -49.608968155494345 11.621534809705564 -50.195336132016955 11.518795542856875 A 51.5 51.5 0 0 1 -50.3698 10.7304C -49.881462708315134 10.389873476853177 -49.430117198742934 10.107544041144411 -49.02288733560953 9.874544474717256 C -48.8602138623963 9.781471915311627 -48.70461624388865 9.696297045239762 -48.556521805177994 9.61843544530255 A 0.375 0.375 0 0 0 -48.3822 9.20452A 49.25 49.25 0 0 1 -48.4073 9.07192A 0.375 0.375 0 0 0 -48.7205 8.75006C -48.88678372907879 8.731563232334924 -49.06272667400137 8.70899206690233 -49.24813816348697 8.681647236160453 C -49.71229147997333 8.613188064549949 -50.23551103081165 8.514882515880673 -50.814357472469744 8.375887703662428 A 51.5 51.5 0 0 1 -50.9394 7.57815C -50.430906530886574 7.268662824690077 -49.962881786707584 7.014939514537447 -49.54195417162225 6.807707996081735 C -49.37380908716882 6.7249288273511905 -49.21321716634977 6.649592167319961 -49.060568574507926 6.58108816064511 A 0.375 0.375 0 0 0 -48.8609 6.17881A 49.25 49.25 0 0 1 -48.8776 6.0449A 0.375 0.375 0 0 0 -49.1702 5.7042C -49.33505511486823 5.6753992517620695 -49.50925447408246 5.641933438962122 -49.692607284838495 5.603114539062264 C -50.15160665994111 5.505931551670978 -50.667702473062256 5.375287795764152 -51.23678793542393 5.200575182102691 A 51.5 51.5 0 0 1 -51.312 4.3966C -50.78524297316046 4.119331128120965 -50.302349691188056 3.895195549721338 -49.869352811321114 3.714533817723688 C -49.69638663629417 3.6423682961907704 -49.53142171210764 3.5771613091023955 -49.374809534881834 3.518279924383651 A 0.375 0.375 0 0 0 -49.1505 3.1292A 49.25 49.25 0 0 1 -49.1589 2.99451A 0.375 0.375 0 0 0 -49.4297 2.63627C -49.59245875660069 2.5972782540280046 -49.76424058662702 2.5530472665891186 -49.94482536224809 2.502904480313752 C -50.39689501655321 2.377373659240435 -50.9038704175167 2.2148971314078674 -51.46099321948271 2.005142645464519 A 51.5 51.5 0 0 1 -51.4861 1.19805C -50.943101176277565 0.9540625396680307 -50.44720757680937 0.7603818300320453 -50.00381661297197 0.6069888296369115 C -49.82669851990102 0.5457161496850378 -49.657998809591405 0.49089110870498454 -49.49802894907071 0.4418601465811016 A 0.375 0.375 0 0 0 -49.25 0.0674747A 49.25 49.25 0 0 1 -49.25 -0.0674747A 0.375 0.375 0 0 0 -49.498 -0.44186C -49.657998809591405 -0.49089110870495034 -49.82669851990102 -0.5457161496850036 -50.00381661297196 -0.6069888296368771 C -50.44720757680937 -0.7603818300320107 -50.943101176277565 -0.9540625396679956 -51.486105917957794 -1.1980473985355315 A 51.5 51.5 0 0 1 -51.461 -2.00514C -50.9038704175167 -2.2148971314078323 -50.39689501655321 -2.3773736592404004 -49.944825362248096 -2.5029044803137177 C -49.76424058662702 -2.5530472665890844 -49.59245875660069 -2.5972782540279704 -49.42975010509856 -2.636269102289642 A 0.375 0.375 0 0 0 -49.1589 -2.99451A 49.25 49.25 0 0 1 -49.1505 -3.1292A 0.375 0.375 0 0 0 -49.3748 -3.51828C -49.53142171210764 -3.577161309102384 -49.69638663629417 -3.642368296190759 -49.869352811321114 -3.7145338177236766 C -50.302349691188056 -3.8951955497213255 -50.78524297316046 -4.119331128120953 -51.31202887469735 -4.396602429891971 A 51.5 51.5 0 0 1 -51.2368 -5.20058C -50.667702473062256 -5.375287795764139 -50.15160665994111 -5.505931551670965 -49.692607284838495 -5.603114539062252 C -49.50925447408246 -5.641933438962111 -49.33505511486823 -5.675399251762058 -49.17023716054838 -5.7041991381442365 A 0.375 0.375 0 0 0 -48.8776 -6.0449A 49.25 49.25 0 0 1 -48.8609 -6.17881A 0.375 0.375 0 0 0 -49.0606 -6.58109C -49.21321716634978 -6.649592167319949 -49.37380908716883 -6.72492882735118 -49.54195417162226 -6.8077079960817235 C -49.96288178670759 -7.014939514537436 -50.43090653088658 -7.2686628246900655 -50.939435559964295 -7.578147860562729 A 51.5 51.5 0 0 1 -50.8144 -8.37589C -50.23551103081166 -8.514882515880663 -49.71229147997334 -8.613188064549936 -49.24813816348698 -8.681647236160442 C -49.062726674001375 -8.708992066902319 -48.8867837290788 -8.731563232334913 -48.72049412058778 -8.750060735672058 A 0.375 0.375 0 0 0 -48.4073 -9.07192A 49.25 49.25 0 0 1 -48.3822 -9.20452A 0.375 0.375 0 0 0 -48.5565 -9.61843C -48.70461624388865 -9.69629704523973 -48.86021386239631 -9.781471915311595 -49.02288733560954 -9.874544474717224 C -49.430117198742934 -10.10754404114438 -49.88146270831514 -10.389873476853145 -50.36976746491068 -10.730374909346452 A 51.5 51.5 0 0 1 -50.1953 -11.5188C -49.60896815549435 -11.621534809705532 -49.08064910173667 -11.687121826066996 -48.61313756287828 -11.726592326661128 C -48.42638471569656 -11.742357296407086 -48.24937887413961 -11.753946491018107 -48.08226095366805 -11.762070048063267 A 0.375 0.375 0 0 0 -47.7496 -12.0638A 49.25 49.25 0 0 1 -47.7164 -12.1946A 0.375 0.375 0 0 0 -47.8646 -12.6186C -48.007586622888795 -12.705488833563846 -48.15758796212656 -12.800172388650722 -48.314160472033855 -12.90317825908004 C -48.70611708998625 -13.161044443420302 -49.13903719685675 -13.470887726945792 -49.605228524728446 -13.841088222165679 A 51.5 51.5 0 0 1 -49.3821 -14.6171C -48.79049781977821 -14.683225643034545 -48.25912322688508 -14.715840383663302 -47.79006217697637 -14.726169509542089 C -47.602690482584315 -14.730293626686798 -47.42530654560757 -14.730856014133694 -47.258006859924244 -14.7285741964228 A 0.375 0.375 0 0 0 -46.9073 -15.0091A 49.25 49.25 0 0 1 -46.866 -15.1375A 0.375 0.375 0 0 0 -46.9875 -15.5699C -47.12482497554387 -15.66552555385052 -47.26864970947057 -15.769351481671682 -47.418515507448 -15.881892153422658 C -47.79368247620885 -16.16362732150375 -48.20650229658633 -16.49978572937439 -48.64877659205232 -16.898253053522662 A 51.5 51.5 0 0 1 -48.3779 -17.6589C -47.7832665263902 -17.688109928819646 -47.25089217943289 -17.687626213620174 -46.78209632455276 -17.668774003402202 C -46.59483068763581 -17.661241312537605 -46.41775491923154 -17.650774717052602 -46.25092071831952 -17.638096352495094 A 0.375 0.375 0 0 0 -45.8834 -17.8962A 49.25 49.25 0 0 1 -45.8342 -18.0219A 0.375 0.375 0 0 0 -45.9287 -18.461C -46.05974653517583 -18.56495539906694 -46.19683823383634 -18.677522017277617 -46.339417518225524 -18.79916209235421 C -46.69634338967533 -19.103676265542727 -47.08746580387211 -19.46484926618301 -47.50411199360262 -19.89004182659167 A 51.5 51.5 0 0 1 -47.1864 -20.6324C -46.591171057532435 -20.62456235350951 -46.059856609436444 -20.590982053881955 -45.5931396296758 -20.543021443106184 C -45.40670454460362 -20.52386108674989 -45.23062201651976 -20.502406001557596 -45.06489874949196 -20.47938014028296 A 0.375 0.375 0 0 0 -44.682 -20.7142A 49.25 49.25 0 0 1 -44.6251 -20.8365A 0.375 0.375 0 0 0 -44.6921 -21.2806C -44.81647188336068 -21.392561038406054 -44.94630016560529 -21.513432848628394 -45.081041324853416 -21.6437017252108 C -45.41834522213451 -21.969816797327795 -45.7862570535123 -22.354607082562314 -46.175663214339956 -22.804879891816093 A 51.5 51.5 0 0 1 -45.8124 -23.5261C -45.2188233989889 -23.481222353129393 -44.69062440213697 -23.414675384729456 -44.22779193482269 -23.33779192368181 C -44.0429086827212 -23.307078029530327 -43.86850062405185 -23.274717460187336 -43.70452944203382 -23.241433184779673 A 0.375 0.375 0 0 0 -43.3078 -23.452A 49.25 49.25 0 0 1 -43.2434 -23.5706A 0.375 0.375 0 0 0 -43.2827 -24.018C -43.39981100819879 -24.137403014960295 -43.521873593624875 -24.266112387641975 -43.648255340362596 -24.40450608075367 C -43.964632300223485 -24.750960375938572 -44.30791016937989 -25.157879266905876 -44.66856976451728 -25.63149030697901 A 51.5 51.5 0 0 1 -44.2612 -26.3287C -43.671532897248376 -26.247038065096095 -43.14849285094756 -26.147781885216627 -42.69133550498253 -26.042273021071964 C -42.50871936323736 -26.000124415215062 -42.33666052487977 -25.956983558477564 -42.17507580052049 -25.913569639332383 A 0.375 0.375 0 0 0 -41.766 -26.099A 49.25 49.25 0 0 1 -41.6944 -26.2134A 0.375 0.375 0 0 0 -41.7057 -26.6624C -41.81524469540546 -26.78886206835506 -41.92906934758277 -26.924911051937176 -42.04660273538377 -27.070894143264866 C -42.34082875682842 -27.43634729715431 -42.65814458837529 -27.863820503716237 -42.98866229591316 -28.358937465501768 A 51.5 51.5 0 0 1 -42.5387 -29.0295C -41.95528571867432 -28.911309085727215 -41.439428163254256 -28.779727697245942 -40.98971459159934 -28.64600162330273 C -40.810072066586585 -28.59258137050838 -40.64102811076095 -28.538827129970244 -40.482454983968374 -28.485451527106818 A 0.375 0.375 0 0 0 -40.0627 -28.6451A 49.25 49.25 0 0 1 -39.984 -28.7548A 0.375 0.375 0 0 0 -39.9675 -29.2036C -40.06890332421565 -29.336680218604275 -40.17404967767728 -29.479542465999213 -40.28227999269707 -29.632550175322272 C -40.55321677240696 -30.01558832065942 -40.843342933036105 -30.461962032023795 -41.14244004417273 -30.976669404181557 A 51.5 51.5 0 0 1 -40.6517 -31.6179C -40.07672169019012 -31.463727868024396 -39.570042378318526 -31.300330333771413 -39.129512435417865 -31.13890441023115 C -38.95353852916815 -31.07441918307961 -38.788163454099866 -31.01025952345479 -38.63321541349601 -30.947128736711466 A 0.375 0.375 0 0 0 -38.2043 -31.0804A 49.25 49.25 0 0 1 -38.119 -31.185A 0.375 0.375 0 0 0 -38.0746 -31.6319C -38.16754315013764 -31.77100045224211 -38.26360441406857 -31.920123257168132 -38.3621129342439 -32.07956362738358 C -38.60871227045247 -32.47870486399585 -38.87052631841042 -32.94225214698918 -39.13704568452756 -33.47455862668705 A 51.5 51.5 0 0 1 -38.6074 -34.0841C -38.04310861107863 -33.89441959957015 -37.54756778658198 -33.6998380728627 -37.117925797204144 -33.5113368252638 C -36.94630131857478 -33.436036104571556 -36.78523492830235 -33.36171924711902 -36.63451143775497 -33.289077517245474 A 0.375 0.375 0 0 0 -36.1982 -33.3954A 49.25 49.25 0 0 1 -36.1065 -33.4945A 0.375 0.375 0 0 0 -36.0344 -33.9378C -36.11852016631305 -34.082404857193175 -36.205124698344655 -34.2372112924877 -36.293530313347965 -34.40246747977718 C -36.51483816112959 -34.816167607760185 -36.74732718872664 -35.29509508799659 -36.98023769817278 -35.8429412848743 A 51.5 51.5 0 0 1 -36.4137 -36.4183C -35.86231413527862 -36.19398040625878 -35.37982894933957 -35.9689676852229 -34.96273711487611 -35.7541203882727 C -34.79612604563393 -35.66829549789966 -34.63999147473139 -35.58410896010357 -34.4940756541448 -35.502237323840774 A 0.375 0.375 0 0 0 -34.052 -35.5813A 49.25 49.25 0 0 1 -33.9543 -35.6744A 0.375 0.375 0 0 0 -33.8548 -36.1124C -33.92976164460838 -36.26195105884472 -34.00657438863067 -36.421842208483405 -34.08453507431181 -36.59227486876217 C -34.279695236596254 -37.01893336268909 -34.48195978894966 -37.51138816278743 -34.680360356210606 -38.072654566337796 A 51.5 51.5 0 0 1 -34.0792 -38.6117C -33.5427753329602 -38.35351373405842 -33.075212427032085 -38.09894034919919 -32.6722843947633 -37.85857820535184 C -32.51133132076812 -37.76256118512588 -32.36073262355848 -37.66883066834628 -32.220188992895864 -37.57804587114997 A 0.375 0.375 0 0 0 -31.774 -37.6294A 49.25 49.25 0 0 1 -31.6708 -37.7164A 0.375 0.375 0 0 0 -31.5442 -38.1473C -31.60973546654011 -38.301206816356896 -31.67645924896864 -38.46556409254338 -31.74367339057992 -38.64051385495828 C -31.911930830612544 -39.07848005600187 -32.08318838546259 -39.582556964008376 -32.24631143728633 -40.15507214355171 A 51.5 51.5 0 0 1 -31.6128 -40.6557C -31.09346604913918 -40.364664768050275 -30.642634333272927 -40.081515614338464 -30.255428953479964 -39.816568538034026 C -30.100756570907173 -39.71073085915345 -29.956276384493542 -39.607818988551 -29.821648679758926 -39.50847225916501 A 0.375 0.375 0 0 0 -29.3731 -39.532A 49.25 49.25 0 0 1 -29.2647 -39.6124A 0.375 0.375 0 0 0 -29.1116 -40.0346C -29.16741736268627 -40.19228264536433 -29.22379404216908 -40.36047018172629 -29.280001601254106 -40.53926019963353 C -29.420705363686313 -40.98683970164441 -29.560293358823017 -41.50058854192762 -29.687507803811506 -42.082137547455176 A 51.5 51.5 0 0 1 -29.0241 -42.5424C -28.52386218561432 -42.21965275558447 -28.0915058401368 -41.90902328208921 -27.721521135212775 -41.62051630209537 C -27.57372784146278 -41.50526742997898 -27.435925131618635 -41.393572351588645 -27.307734201247886 -41.286048043209156 A 0.375 0.375 0 0 0 -26.8586 -41.2817A 49.25 49.25 0 0 1 -26.7454 -41.3551A 0.375 0.375 0 0 0 -26.5663 -41.767C -26.612256187328338 -41.92786234085863 -26.65806765344464 -42.0992294524912 -26.703051173876595 -42.28116802204454 C -26.81565690318566 -42.736629226879444 -26.923035299773208 -43.258062404980826 -27.013848969952377 -43.84639533636612 A 51.5 51.5 0 0 1 -26.3231 -44.2646C -25.8439050405438 -43.91130110850059 -25.43169676816301 -43.574393080309704 -25.080364137055383 -43.26344237408462 C -24.94002171567032 -43.139228184229566 -24.809429614309504 -43.01918202461095 -24.68817140410893 -42.90389612789865 A 0.375 0.375 0 0 0 -24.2402 -42.8716A 49.25 49.25 0 0 1 -24.1227 -42.9379A 0.375 0.375 0 0 0 -23.9183 -43.3378C -23.954137362669826 -43.5012312821641 -23.989206379756883 -43.67511498300336 -24.02279182903404 -43.859498219221905 C -24.106863875528862 -44.32107903596049 -24.181617247410955 -44.848179228211336 -24.235678802333 -45.44101993963662 A 51.5 51.5 0 0 1 -23.5202 -45.8154C -23.06396284749419 -45.43306516795293 -22.673497401937436 -45.07118201677732 -22.342176082343563 -44.73899059219586 C -22.209827490887836 -44.60629164517194 -22.086951233480754 -44.47835883959557 -21.973094867909136 -44.355757373288576 A 0.375 0.375 0 0 0 -21.528 -44.2957A 49.25 49.25 0 0 1 -21.4066 -44.3545A 0.375 0.375 0 0 0 -21.1777 -44.741C -21.20334463405811 -44.906302410500764 -21.227535526901566 -45.082029978288084 -21.249592969445224 -45.268144538250496 C -21.30480607471036 -45.734059200382816 -21.34664521561331 -46.26478715853757 -21.363745501624617 -46.85984206445985 A 51.5 51.5 0 0 1 -20.6264 -47.189C -20.194790662758887 -46.77905752442429 -19.827578678980398 -46.393599305873835 -19.51755048872093 -46.04145234702381 C -19.393707758183897 -45.90078202927801 -19.279022729099626 -45.765457524915526 -19.173008696316803 -45.636014810269515 A 0.375 0.375 0 0 0 -18.7325 -45.5484A 49.25 49.25 0 0 1 -18.6076 -45.5995A 0.375 0.375 0 0 0 -18.3552 -45.971C -18.370520284171334 -46.13763977863233 -18.383739462906277 -46.314531357546045 -18.39418356275627 -46.50165720017579 C -18.420324118013543 -46.97010317438598 -18.429087160429173 -47.502405615077585 -18.409160019845192 -48.09737256366546 A 51.5 51.5 0 0 1 -17.6528 -48.3801C -17.24748875613454 -47.944070794969655 -16.90495090596232 -47.536528772010044 -16.617415283877055 -47.16578866706464 C -16.502557537724584 -47.017691204728706 -16.396507431061124 -46.87549854579836 -16.298745878764883 -46.73971537152984 A 0.375 0.375 0 0 0 -15.8646 -46.6249A 49.25 49.25 0 0 1 -15.7367 -46.6682A 0.375 0.375 0 0 0 -15.4617 -47.0232C -15.46662396009447 -47.19047958148994 -15.46882028228643 -47.36785081237545 -15.467610633249388 -47.555263984139806 C -15.464577505768753 -48.02442894395733 -15.440230547188326 -48.55624649245165 -15.38335307424479 -49.1488236721636 A 51.5 51.5 0 0 1 -14.6109 -49.384C -14.233459666133905 -48.92359776956913 -13.916921161966398 -48.49554864311514 -13.652990527518456 -48.107649713517766 C -13.547562128057319 -47.95269806690298 -13.450557231075287 -47.80418736917882 -13.361426379719601 -47.66258905401081 A 0.375 0.375 0 0 0 -12.9352 -47.521A 49.25 49.25 0 0 1 -12.805 -47.5562A 0.375 0.375 0 0 0 -12.5084 -47.8935C -12.502890272573516 -48.06074858640858 -12.494055241078605 -48.237913254431 -12.481196523051654 -48.424888690176644 C -12.449001447414101 -48.89295752751532 -12.39163868149055 -49.42223268503192 -12.298030924080846 -50.01012752987796 A 51.5 51.5 0 0 1 -11.5124 -50.1968C -11.16436408577915 -49.71384884864795 -10.87504955359594 -49.26694865761394 -10.635745003136932 -48.86339160896716 C -10.540153832363366 -48.70218525589227 -10.452569438164318 -48.547931078413015 -10.372414117697884 -48.40106543871901 A 0.375 0.375 0 0 0 -9.95584 -48.2332A 49.25 49.25 0 0 1 -9.82364 -48.2603A 0.375 0.375 0 0 0 -9.50669 -48.5785C -9.49078533148932 -48.74507989167291 -9.470953127328034 -48.92135258114895 -9.446495088193192 -49.10716690923817 C -9.385262620891917 -49.572328756696756 -9.295105973022897 -50.09701386047201 -9.165130081375528 -50.6779519195061 A 51.5 51.5 0 0 1 -8.36943 -50.8154C -8.052075749646137 -50.311766704301 -7.7911044911679195 -49.84774441870804 -7.577351847514554 -49.43009053483518 C -7.491967729098053 -49.2632531513631 -7.414142684688373 -49.10385227357492 -7.343273000474525 -48.95228750398372 A 0.375 0.375 0 0 0 -6.93794 -48.7589A 49.25 49.25 0 0 1 -6.80431 -48.7777A 0.375 0.375 0 0 0 -6.4682 -49.0756C -6.441962385705815 -49.240825952405984 -6.41120973582331 -49.415524698544054 -6.375246998982595 -49.59945903943911 C -6.285214036538128 -50.05991427619547 -6.162612305279765 -50.57797942149196 -5.996771130869466 -51.149713158220905 A 51.5 51.5 0 0 1 -5.19407 -51.2374C -4.9086354966919075 -50.71503810850058 -4.67701715901958 -50.23568894042732 -4.489643389625025 -49.80555404306864 C -4.414796658132409 -49.63373109062501 -4.3470320534900635 -49.469800203557696 -4.285722186569373 -49.314122678718775 A 0.375 0.375 0 0 0 -3.8932 -49.0959A 49.25 49.25 0 0 1 -3.75866 -49.1064A 0.375 0.375 0 0 0 -3.40467 -49.3828C -3.368216738913896 -49.54606882340603 -3.326662619338335 -49.71851775069557 -3.2793343176342047 -49.89986049816393 C -3.1608491800877907 -50.35382771235841 -3.00627668772083 -50.86326860577204 -2.8052118378338946 -51.423586093437535 A 51.5 51.5 0 0 1 -1.9986 -51.4612C -1.7462046865877503 -50.922102882526254 -1.5448353560739256 -50.429281340782154 -1.3845653736513928 -49.98832953829444 C -1.320545596546544 -49.81218576650271 -1.2631035997624562 -49.64435908691192 -1.2115907460995416 -49.48517109292585 A 0.375 0.375 0 0 0 -0.833393 -49.2429A 49.25 49.25 0 0 1 -0.698459 -49.245A 0.375 0.375 0 0 0 -0.327978 -49.4989C -0.2814401158931161 -49.65962757930383 -0.22924529144053407 -49.82915951634631 -0.17073452887794627 -50.00720909052698 C -0.024255612208978428 -50.45293197119878 0.16168963032197603 -50.951777684880604 0.39720027484163806 -51.498511163974165 A 51.5 51.5 0 0 1 1.20459 -51.486C 1.4229818502185387 -50.93215993299321 1.5933231147535571 -50.42777264838422 1.7258692567772738 -49.97770989762882 C 1.7788143994136791 -49.7979267725231 1.825711556413047 -49.62685358922896 1.8672281035946208 -49.464770993519465 A 0.375 0.375 0 0 0 2.22964 -49.1995A 49.25 49.25 0 0 1 2.36444 -49.1932A 0.375 0.375 0 0 0 2.74999 -49.4236C 2.806425344261431 -49.58106288333353 2.869058941954968 -49.74702194399904 2.9385257986023805 -49.92108950567869 C 3.1124317959213568 -50.35684363759184 3.329030402596011 -50.84316423438496 3.5980756968167444 -51.37419849928836 A 51.5 51.5 0 0 1 4.40312 -51.3115C 4.586663146684971 -50.74517035112693 4.725317327980417 -50.23116870007131 4.829626834331194 -49.773736206398475 C 4.8712925080278 -49.59100927396383 4.907463389252596 -49.4173514358786 4.938823010497087 -49.25300130452116 A 0.375 0.375 0 0 0 5.28404 -48.9657A 49.25 49.25 0 0 1 5.41819 -48.9511A 0.375 0.375 0 0 0 5.81731 -49.157C 5.883433289955435 -49.31067868704132 5.956263343668104 -49.47242280796453 6.036417540627103 -49.64183492356264 C 6.23707781007669 -50.065934458633485 6.483491802963824 -50.53784845862506 6.785030862908961 -51.05112904092993 A 51.5 51.5 0 0 1 7.58462 -50.9385C 7.732599534475078 -50.36185756329373 7.8390302064394755 -49.84023011832574 7.914699523901157 -49.37719759918937 C 7.944924532260703 -49.192233794429534 7.970229199598285 -49.01666314999275 7.991310570623242 -48.85068132171775 A 0.375 0.375 0 0 0 8.318 -48.5425A 49.25 49.25 0 0 1 8.45098 -48.5195A 0.375 0.375 0 0 0 8.86213 -48.7002C 8.93767937520865 -48.84952105435586 9.020424119611125 -49.00642447895451 9.110955555865006 -49.17052572590705 C 9.33759378184441 -49.581329905423026 9.612869833075695 -50.03701156502447 9.945736062701457 -50.53055268187144 A 51.5 51.5 0 0 1 10.7368 -50.3684C 10.848619996856677 -49.783704532204624 10.922415399896183 -49.25646936857377 10.969151778579574 -48.78962820683838 C 10.987819186916447 -48.60314311878157 11.00215974152475 -48.42633891670894 11.012881302601098 -48.25936754296514 A 0.375 0.375 0 0 0 11.3198 -47.9315A 49.25 49.25 0 0 1 11.4511 -47.9003A 0.375 0.375 0 0 0 11.8727 -48.0551C 11.957347315256982 -48.19937411457024 12.04968662700776 -48.35082981397573 12.150245054016947 -48.50898531643773 C 12.401984417258225 -48.90490481883406 12.705057537268555 -49.3425911942284 13.067963141797497 -49.81448343091523 A 51.5 51.5 0 0 1 13.8474 -49.6035C 13.9226692560013 -49.01294801962076 13.963543890037583 -48.482144907750616 13.9811665159729 -48.013301221179034 C 13.988204103710709 -47.82601632440302 13.991525064769856 -47.648662585805106 13.991845336260639 -47.48134764640047 A 0.375 0.375 0 0 0 14.2778 -47.135A 49.25 49.25 0 0 1 14.4069 -47.0957A 0.375 0.375 0 0 0 14.8373 -47.224C 14.930754601462874 -47.362753159892236 15.032331237703293 -47.50817518142644 15.142527614448888 -47.659773066483304 C 15.418394184260356 -48.0392761561194 15.748091842025572 -48.4572739237483 16.13963281017443 -48.90569162088444 A 51.5 51.5 0 0 1 16.9044 -48.6466C 16.94285441251231 -48.05256993275658 16.950650141526882 -47.52025244676936 16.939090836197884 -47.05122010050399 C 16.934471376276843 -46.86385996389109 16.926759895633648 -46.68664283592851 16.91667763847068 -46.519631639859796 A 0.375 0.375 0 0 0 17.1805 -46.1562A 49.25 49.25 0 0 1 17.3069 -46.1089A 0.375 0.375 0 0 0 17.7445 -46.2102C 17.846397698671428 -46.34289491426752 17.956818679128876 -46.48172064837985 18.076226677236793 -46.626174413264785 C 18.375153179451676 -46.98779286641182 18.730199838783317 -47.384484874115614 19.14886137460989 -47.80769319074368 A 51.5 51.5 0 0 1 19.8961 -47.5016C 19.897490956742008 -46.90628578786024 19.872177620573762 -46.37451336069741 19.831481104687175 -45.907106949768355 C 19.815222468900306 -45.72039643328918 19.79650838077529 -45.54400153460256 19.776062601252892 -45.37794021574255 A 0.375 0.375 0 0 0 20.0168 -44.9988A 49.25 49.25 0 0 1 20.14 -44.9438A 0.375 0.375 0 0 0 20.583 -45.0177C 20.692996550153296 -45.14374501112342 20.81183467750556 -45.27543736801788 20.93999233062817 -45.412188149177176 C 21.260822276681008 -45.75452293429055 21.639844331028044 -46.12837445775564 22.08400671438241 -46.52473608311409 A 51.5 51.5 0 0 1 22.8107 -46.1728C 22.77514797388966 -45.57853033560296 22.71682350491869 -45.04936029147926 22.647147225388476 -44.58538812048868 C 22.61931231523912 -44.40004957085977 22.589668020803707 -44.22515933904439 22.558937819670902 -44.06069035637549 A 0.375 0.375 0 0 0 22.7756 -43.6673A 49.25 49.25 0 0 1 22.8952 -43.6047A 0.375 0.375 0 0 0 23.3419 -43.6509C 23.459538217952918 -43.769942728479705 23.586333730571617 -43.89399221601098 23.722745221645823 -44.02251095123851 C 24.06423738280207 -44.344237641539024 24.465768469467776 -44.69380232184823 24.93371332237492 -45.06178380980861 A 51.5 51.5 0 0 1 25.6372 -44.6653C 25.56469236799034 -44.07444040389017 25.473582412256555 -43.54991999890595 25.375195933072405 -43.09117708604884 C 25.335892436420522 -42.907927542113505 25.29543262369097 -42.73521859350082 25.25453689012607 -42.57297824556604 A 0.375 0.375 0 0 0 25.4463 -42.1669A 49.25 49.25 0 0 1 25.5618 -42.097A 0.375 0.375 0 0 0 26.0105 -42.1153C 26.13531948980578 -42.22680304048325 26.269581840484804 -42.34272973528282 26.41371941995191 -42.46251921055897 C 26.77455262938078 -42.76239310798279 27.197039302595158 -43.08631854729694 27.686956237325518 -43.42449624896905 A 51.5 51.5 0 0 1 28.3644 -42.9851C 28.25533193370014 -42.39983502447238 28.131788977922604 -41.881993526177425 28.005072937259214 -41.430254658664914 C 27.954452911697977 -41.249803077309274 27.903334111829714 -41.079943589269774 27.852431063481184 -40.92055955245733 A 0.375 0.375 0 0 0 28.0186 -40.5033A 49.25 49.25 0 0 1 28.1295 -40.4264A 0.375 0.375 0 0 0 28.5785 -40.4168C 28.70998828778767 -40.52029605480545 28.851198041575007 -40.6276514590119 29.002504069141263 -40.73824823212799 C 29.381282333253516 -41.01510918282163 29.82309007415321 -41.3121421765441 30.333083697261088 -41.61920774809702 A 51.5 51.5 0 0 1 30.9819 -41.1385C 30.8366571092424 -40.56119292024164 30.68115911711667 -40.05203375679322 30.526603754718597 -39.6090466245457 C 30.464863039293082 -39.432091137882196 30.403283020992102 -39.26573826377699 30.342569591865214 -39.10982716396219 A 0.375 0.375 0 0 0 30.4825 -38.6831A 49.25 49.25 0 0 1 30.5884 -38.5994A 0.375 0.375 0 0 0 31.0359 -38.5619C 31.17358371849282 -38.6570239154556 31.32119456228349 -38.755392691865694 31.47908366432204 -38.85636888539185 C 31.874341563598023 -39.1091457681221 32.33376110386224 -39.37813715330394 32.86185834909486 -39.65290261769408 A 51.5 51.5 0 0 1 33.4795 -39.1328C 33.29868124897968 -38.56562744031139 33.11182981202914 -38.06712044959999 32.93003307256847 -37.63459888377424 C 32.85741053011247 -37.46182409820413 32.785607534506596 -37.29962142498622 32.71531861306401 -37.14778645192586 A 0.375 0.375 0 0 0 32.8284 -36.7132A 49.25 49.25 0 0 1 32.9289 -36.6231A 0.375 0.375 0 0 0 33.3733 -36.5578C 33.51657460979556 -36.64419526036825 33.670015465910886 -36.733196839295864 33.8338768001586 -36.82416179595571 C 34.24408515857166 -37.05187666606953 34.719339093249246 -37.29178576729767 35.26349685495678 -37.53318811032124 A 51.5 51.5 0 0 1 35.8476 -36.9757C 35.63187925980583 -36.42085903985064 35.41439726994093 -35.93493284857975 35.206062489685486 -35.51455019108922 C 35.12283908270758 -35.3466245386934 35.04109090163785 -35.18919959699481 34.9614984220618 -35.04202817070309 A 0.375 0.375 0 0 0 35.0474 -34.6012A 49.25 49.25 0 0 1 35.1421 -34.505A 0.375 0.375 0 0 0 35.5815 -34.4123C 35.72989638510376 -34.489597332583294 35.88857362067995 -34.568887384209646 36.057773239467515 -34.649489178257376 C 36.48134504056897 -34.85126105115982 36.97059470451291 -35.06115970672808 37.52870774202731 -35.268264989616455 A 51.5 51.5 0 0 1 38.0771 -34.6755C 37.82722445188083 -34.13518541114256 37.57995330467074 -33.66371997334671 37.34588649041273 -33.25710260302666 C 37.25238419410694 -33.09467575553181 37.161007095404926 -32.94263759186948 37.07241898553668 -32.80069909000414 A 0.375 0.375 0 0 0 37.1307 -32.3554A 49.25 49.25 0 0 1 37.2193 -32.2535A 0.375 0.375 0 0 0 37.6521 -32.1336C 37.804986132444505 -32.201565852915685 37.96828585608289 -32.270837619434495 38.14216915895516 -32.34076441818721 C 38.57746568573265 -32.51581267769968 39.0788182670383 -32.69488883048607 39.64872734944047 -32.866895803133545 A 51.5 51.5 0 0 1 40.1592 -32.2412C 39.87622346114004 -31.717449381425272 39.60011980061665 -31.26226870529303 39.34122651138893 -30.87098974575682 C 39.23780706797525 -30.714690101081683 39.137154571884246 -30.568626921574786 39.03991356191111 -30.43247047662556 A 0.375 0.375 0 0 0 39.0704 -29.9844A 49.25 49.25 0 0 1 39.1524 -29.8772A 0.375 0.375 0 0 0 39.577 -29.7307C 39.733815732707164 -29.78895277067086 39.901106169500785 -29.847938253074695 40.079000435738756 -29.9069195233325 C 40.524337610494015 -30.05456694174507 41.03585347342066 -30.202127780903105 41.615353733185415 -30.338370981747786 A 51.5 51.5 0 0 1 42.0859 -29.6822C 41.77094910846991 -29.17700470171102 41.467081126057906 -28.73986979285166 41.18436296970203 -28.36544302638107 C 41.071426488915996 -28.215875277487008 40.96188800038991 -28.07635217220178 40.85637029688876 -27.94650454700344 A 0.375 0.375 0 0 0 40.859 -27.4974A 49.25 49.25 0 0 1 40.9342 -27.3853A 0.375 0.375 0 0 0 41.3488 -27.2127C 41.5089229188767 -27.26109201717238 41.67955685462463 -27.309563012088763 41.86077384587125 -27.357370566775167 C 42.314428745589545 -27.477045924909046 42.83412893463428 -27.59252056621824 43.420978397834475 -27.692472896783663 A 51.5 51.5 0 0 1 43.8498 -27.0083C 43.50407106842398 -26.52367985894049 43.17361437031574 -26.106281907395424 42.868165128455786 -25.750155918411096 C 42.74614853960173 -25.607898713862472 42.62814784177292 -25.475455470588493 42.51476167223996 -25.352419020377802 A 0.375 0.375 0 0 0 42.4894 -24.904A 49.25 49.25 0 0 1 42.5575 -24.7875A 0.375 0.375 0 0 0 42.9606 -24.5894C 43.12344014609486 -24.62776339459516 43.29675743124826 -24.66553237716108 43.48059605416891 -24.70198125813444 C 43.940813576173504 -24.79322155527801 44.466687472265605 -24.876163249784074 45.05861573233372 -24.93943801392073 A 51.5 51.5 0 0 1 45.4441 -24.2299C 45.06888422882791 -23.767740051476434 44.71311728779151 -23.371693888833462 44.38611868420547 -23.03524645960318 C 44.25549404576183 -22.900850164888485 44.12948766040656 -22.775999180804607 44.008671693904496 -22.66024990970549 A 0.375 0.375 0 0 0 43.9555 -22.2143A 49.25 49.25 0 0 1 44.0162 -22.0938A 0.375 0.375 0 0 0 44.4062 -21.871C 44.57112116085724 -21.89915473981065 44.74645126450972 -21.92607558916984 44.932200283186134 -21.951024782790483 C 45.39719993528954 -22.013477027959087 45.927213034485064 -22.063564890358833 46.521930035975146 -22.089917290296487 A 51.5 51.5 0 0 1 46.8626 -21.3578C 46.45933463155592 -20.919847475045295 46.07963384077238 -20.54668532696891 45.73235096953243 -20.23121810723567 C 45.59362364284927 -20.105202675510363 45.460099064193564 -19.988426974819564 45.33232071422622 -19.88041269427561 A 0.375 0.375 0 0 0 45.2515 -19.4386A 49.25 49.25 0 0 1 45.3046 -19.3146A 0.375 0.375 0 0 0 45.68 -19.068C 45.84636516655468 -19.085822509625 46.02302977059611 -19.101791074241127 46.20997055815997 -19.11514405692575 C 46.677953347042376 -19.14856663451525 47.21005513162469 -19.165606884599477 47.80526002999196 -19.15493496802218 A 51.5 51.5 0 0 1 48.0997 -18.403C 47.67004289411879 -17.991020072773125 47.267877242184255 -17.64218563112107 46.90165367325355 -17.348919102273094 C 46.75536036740765 -17.231772062761856 46.61483417610686 -17.123523427964418 46.480587792287125 -17.02366202424342 A 0.375 0.375 0 0 0 46.3725 -16.5877A 49.25 49.25 0 0 1 46.4178 -16.4606A 0.375 0.375 0 0 0 46.7771 -16.1912C 46.944238491867196 -16.198650939898698 47.12155411526466 -16.203605440497427 47.30896343412534 -16.20531055215007 C 47.778118825290264 -16.209574156700686 48.31025069682475 -16.19350086905218 48.90364075994621 -16.14584592353196 A 51.5 51.5 0 0 1 49.1508 -15.3771C 48.69632502144951 -14.99258890890429 48.27325040914374 -14.669431746364232 47.88950299036525 -14.399500499629562 C 47.736209685736924 -14.291675071470442 47.589225550325594 -14.192372295505233 47.44903050583278 -14.101050112978402 A 0.375 0.375 0 0 0 47.3141 -13.6727A 49.25 49.25 0 0 1 47.3513 -13.543A 0.375 0.375 0 0 0 47.6932 -13.2517C 47.86049367817991 -13.248809936552345 48.03777432123309 -13.242731205133357 48.224927121143395 -13.232781849008283 C 48.69344004352393 -13.207869985462287 49.22354328717537 -13.158745344508446 49.812822804173024 -13.074291737771738 A 51.5 51.5 0 0 1 50.0117 -12.2917C 49.53421052737041 -11.936154331115041 49.09186374817889 -11.639924679970017 48.69207712376634 -11.394373026903487 C 48.53237688237134 -11.296286365731085 48.37950345591517 -11.206313631747047 48.23390213814113 -11.12388397819767 A 0.375 0.375 0 0 0 48.0726 -10.7047A 49.25 49.25 0 0 1 48.1017 -10.573A 0.375 0.375 0 0 0 48.4248 -10.261C 48.591585912175304 -10.247711861370487 48.76814571051604 -10.230623415364745 48.95431793365077 -10.209058083587967 C 49.420375801766916 -10.155067131105861 49.94639955106729 -10.073081190539233 50.529288713967546 -9.952155657183932 A 51.5 51.5 0 0 1 50.6791 -9.15869C 50.18045779563275 -8.833541091021813 49.7205502033107 -8.565385006244396 49.30627107004851 -8.345162938489095 C 49.140781741096276 -8.257194522540468 48.98261046118394 -8.176899917566637 48.83216617334159 -8.10368169731092 A 0.375 0.375 0 0 0 48.6451 -7.69539A 49.25 49.25 0 0 1 48.666 -7.56207A 0.375 0.375 0 0 0 48.9691 -7.23063C 49.13468674002728 -7.206967379791205 49.309842618095566 -7.1789353310765796 49.494314000290565 -7.1458374557273086 C 49.95611372679032 -7.062976294815573 50.47602289804275 -6.948446242313029 51.05026662191058 -6.791516619735824 A 51.5 51.5 0 0 1 51.1505 -5.99027C 50.63256662110023 -5.696752596514658 50.156877508777384 -5.457707521902926 49.72970863215132 -5.263667035857074 C 49.55907046170643 -5.1861571978441505 49.396213262292406 -5.115851366108561 49.24150804410502 -5.052127846216775 A 0.375 0.375 0 0 0 49.0294 -4.65626A 49.25 49.25 0 0 1 49.042 -4.52189A 0.375 0.375 0 0 0 49.3239 -4.17225C 49.48769501013956 -4.13834054149676 49.660769323870184 -4.09947334062402 49.842826181184485 -4.054970970952149 C 50.29858115263856 -3.943560175345149 50.81036431826075 -3.7969291054303898 51.37374096568524 -3.604602523854756 A 51.5 51.5 0 0 1 51.4239 -2.79868C 50.88878788255707 -2.5379244729036556 50.39915759899823 -2.3289152274126668 49.960751612407044 -2.1618070280210757 C 49.78562476640154 -2.0950556384495096 49.61871171035256 -2.0350105795570306 49.460344086255155 -1.981028293948249 A 0.375 0.375 0 0 0 49.224 -1.59911A 49.25 49.25 0 0 1 49.2282 -1.46422A 0.375 0.375 0 0 0 49.4878 -1.09774" stroke="#191919" stroke-width="0.35 px" style="stroke-width:0.35;stroke-miterlimit:4;stroke-dasharray:none;fill:none;fill-rule: evenodd "/>
<title>b'InvoluteGear'</title>
</g>
</svg>