<?xml version="1.0"?>
<!DOCTYPE svg PUBLIC "-//W3C//DTD SVG 1.1//EN" "http://www.w3.org/Graphics/SVG/1.1/DTD/svg11.dtd">
<svg width="41.7775316949935mm" height="41.81077596458039mm" viewBox="0 0 41.7775316949935 41.81077596458039" xmlns="http://www.w3.org/2000/svg" version="1.1">
<g id="InvoluteGear" transform="translate(20.870787,20.905388) scale(1,-1)">
<path id="InvoluteGear_w0000"  d="M 18.47273559563771 -1.004011759721703 C 18.59058228107311 -0.994110849479481 18.766350569000316 -0.9711113471385275 18.997631296537833 -0.9187044568665375 C 19.368419301912063 -0.8345136284092778 19.87613349194392 -0.6760431732345287 20.497160916528422 -0.3791456658569794 A 20.5 20.5 0 0 1 20.4972 0.379146C 19.87613349194392 0.6760431732345287 19.368419301912063 0.8345136284092778 18.997631296537833 0.9187044568665375 C 18.766350569000316 0.9711113471385275 18.59058228107311 0.994110849479481 18.47284227179521 1.0039978077733462 A 0.375 0.375 0 0 0 18.1995 1.35708A 18.25 18.25 0 0 1 18.1815 1.5799A 0.375 0.375 0 0 0 18.3946 1.97223C 18.509305717804544 2.000901740528599 18.679108472936907 2.051798621555357 18.898987519401594 2.1406268941043693 C 19.251468758859914 2.2832060523135853 19.727187734783158 2.5210674402468416 20.292547307882728 2.9137400075057895 A 20.5 20.5 0 0 1 20.1709 3.66221C 19.510297832115768 3.8556446236382604 18.983737958807133 3.9306198445061753 18.604246402090205 3.954241844977843 C 18.36755404283691 3.9688700420428393 18.190372528445344 3.9633764906684403 18.072571241720894 3.954248589752617 A 0.375 0.375 0 0 0 17.7461 4.2589A 18.25 18.25 0 0 1 17.6926 4.47595A 0.375 0.375 0 0 0 17.84 4.89738C 17.948647858935683 4.944092026482303 18.10808727910855 5.021568083711173 18.310869892694132 5.144517132937532 C 18.635915287284437 5.34179189559447 19.067318177506337 5.6528837312816 19.56236738314741 6.131161345191346 A 20.5 20.5 0 0 1 19.3222 6.85043C 18.63915570672362 6.935386903566675 18.107387774267732 6.924925071289948 17.729021298189334 6.887366446371873 C 17.493047514996146 6.863837087609729 17.31904168229379 6.829992762614945 17.204230109570787 6.802086410328488 A 0.375 0.375 0 0 0 16.8331 7.05043A 18.25 18.25 0 0 1 16.7455 7.25609A 0.375 0.375 0 0 0 16.8234 7.6957C 16.92312944851121 7.759232925962136 17.068076136491786 7.861281570207192 17.24851035402319 8.015167080318097 C 17.53770139876409 8.262028134693606 17.913615095033407 8.638293302999335 18.325532418827265 9.189788824587284 A 20.5 20.5 0 0 1 17.9731 9.86122C 17.285269239225237 9.835506305683795 16.76206575774786 9.739878376223045 16.394623855291663 9.642111874571967 C 16.16548024519196 9.581034358015222 15.999156753844751 9.519715809639811 15.890308454548979 9.473753765848405 A 0.375 0.375 0 0 0 15.4842 9.65935A 18.25 18.25 0 0 1 15.3647 9.84829A 0.375 0.375 0 0 0 15.371 10.2947C 15.459310874681098 10.373413768397032 15.586010787387673 10.497391993376011 15.73942345740857 10.678228410491931 C 15.98527025614633 10.96828218494783 16.29595879118807 11.399975615656032 16.61407579081866 12.010405600600325 A 20.5 20.5 0 0 1 16.1585 12.6166C 15.483703377964991 12.4808912608374 14.98261504281025 12.30257394733462 14.635614266241518 12.147131669988925 C 14.419235528373287 12.050087871233854 14.264902069441408 11.962883217671589 14.164836157349246 11.900055875166682 A 0.375 0.375 0 0 0 13.7342 12.0181A 18.25 18.25 0 0 1 13.5859 12.1854A 0.375 0.375 0 0 0 13.5206 12.6271C 13.595104269599027 12.718928643133925 13.700275945844904 12.861625477942638 13.822693760785722 13.064729233849265 C 14.01882901057042 13.390463487985384 14.256245714524171 13.866404547998844 14.472323326800234 14.519959180333537 A 20.5 20.5 0 0 1 13.9254 15.0452C 13.281117732430532 14.803027688245777 12.815122468269346 14.54663931545492 12.497549955430088 14.337547135747785 C 12.299540185445593 14.207050438207382 12.161193914447747 14.09621823417903 12.072502044120176 14.018152788129818 A 0.375 0.375 0 0 0 11.6285 14.0656A 18.25 18.25 0 0 1 11.4553 14.207A 0.375 0.375 0 0 0 11.32 14.6324C 11.378791605113962 14.7350299469594 11.45971115372851 14.8927496185315 11.5479635564854 15.112860432636346 C 11.689307457372717 15.465838820370887 11.847303362315337 15.973700886235587 11.955745290579268 16.653453444279663 A 20.5 20.5 0 0 1 11.3317 17.0842C 10.7345581138762 16.741773474201185 10.315724953274298 16.413954366302917 10.035805665433891 16.156627661857694 C 9.861293212365986 15.996057861451497 9.742517225051062 15.864468602823912 9.667496469341872 15.773186907277175 A 0.375 0.375 0 0 0 9.22163 15.7488A 18.25 18.25 0 0 1 9.02803 15.8606A 0.375 0.375 0 0 0 8.8262 16.2588C 8.8677742150606 16.369501715113646 8.922345862239787 16.538159366801743 8.974147161938198 16.769576484638385 C 9.057038981139685 17.14065705114004 9.13152207612459 17.66728676211775 9.129519731396275 18.355632011675446 A 20.5 20.5 0 0 1 8.44444 18.6807C 7.909979078776356 18.246916121223666 7.549155580590388 17.856156620917098 7.314139280269061 17.557260018211423 C 7.167643924985033 17.370775788426513 7.071514457034334 17.221837567877497 7.012107814109803 17.119703770799827 A 0.375 0.375 0 0 0 6.57593 17.0241A 18.25 18.25 0 0 1 6.36691 17.1034A 0.375 0.375 0 0 0 6.10381 17.4641C 6.127086130864594 17.58001198734998 6.153896499611644 17.75523947456714 6.16790506979936 17.991969314341425 C 6.190197952738771 18.37154126785745 6.179239164730016 18.903299191059705 6.066844406686137 19.582409351738605 A 20.5 20.5 0 0 1 5.33849 19.7934C 4.880535740456996 19.279473225370392 4.587067043758122 18.83589379845694 4.403040529685816 18.503168562497727 C 4.288356424937051 18.29559974692988 4.217363179076013 18.133169986138004 4.175109249783015 18.0228292992253 A 0.375 0.375 0 0 0 3.75991 17.8585A 18.25 18.25 0 0 1 3.54089 17.9032A 0.375 0.375 0 0 0 3.22333 18.217C 3.227709734289423 18.335209183469264 3.2260644501366262 18.512468206339328 3.201917476204147 18.748379589549565 C 3.1630340489232607 19.12661221586386 3.06691720477389 19.64972610039931 2.8470409986095335 20.30201257575797 A 20.5 20.5 0 0 1 2.09428 20.3934C 1.724689090087241 19.812702100021237 1.506175879967949 19.32779122065642 1.3779053421944578 18.969854760282487 C 1.2980027460531622 18.74657728222403 1.2539844100585515 18.574862826673378 1.229977548970805 18.459173015757383 A 0.375 0.375 0 0 0 0.846522 18.2304A 18.25 18.25 0 0 1 0.623158 18.2394A 0.375 0.375 0 0 0 0.259375 18.4982C 0.24473735103405103 18.615534092778837 0.21467902597673771 18.790233735719347 0.1530019018650931 19.019216681458936 C 0.053949224705961196 19.386313954226427 -0.12483629980841193 19.88723542526467 -0.4464992758492453 20.49580433822163 A 20.5 20.5 0 0 1 -1.20418 20.4653C -1.4758261017782872 19.83279239741499 -1.6137244479556145 19.31910900266239 -1.68291686987937 18.945231684182055 C -1.7259685221440397 18.71202831303244 -1.7418718964917304 18.535476476924316 -1.7470099242822759 18.417433847338692 A 0.375 0.375 0 0 0 -2.0888 18.1301A 18.25 18.25 0 0 1 -2.31071 18.1031A 0.375 0.375 0 0 0 -2.7113 18.3002C -2.7445736010584927 18.413726447375478 -2.80226647219025 18.58134208139977 -2.899876341364071 18.797466051653267 C -3.0565328560930034 19.143920344336593 -3.313356609799171 19.609675798899683 -3.7284754535988087 20.15876553427589 A 20.5 20.5 0 0 1 -4.47144 20.0071C -4.638118172823536 19.339223789402094 -4.691830160327574 18.810072009360333 -4.700152419018875 18.42993705893352 C -4.7052381122272555 18.192847639509427 -4.69261463588608 18.016031022660624 -4.67875075815853 17.8986928165067 A 0.375 0.375 0 0 0 -4.97001 17.5602A 18.25 18.25 0 0 1 -5.18473 17.498A 0.375 0.375 0 0 0 -5.61176 17.6283C -5.662801538541781 17.735012959270463 -5.74663474069034 17.891203427501758 -5.87764931058684 18.088870924964283 C -6.087852341441975 18.40570925336701 -6.416062724022256 18.82423586983185 -6.913886075578181 19.299625291904622 A 20.5 20.5 0 0 1 -7.6229 19.0307C -7.6802854194840044 18.344779443670436 -7.648419936052006 17.813864031491956 -7.595656489382229 17.43731674465902 C -7.562644506751616 17.202481768386193 -7.521821121128002 17.029979828295602 -7.4893144050331415 16.91638504347784 A 0.375 0.375 0 0 0 -7.72251 16.5356A 18.25 18.25 0 0 1 -7.92447 16.4397A 0.375 0.375 0 0 0 -8.36687 16.4999C -8.434365890709593 16.596971951293916 -8.54216818797486 16.737692002648096 -8.703194250052507 16.911783542965335 C -8.961499648949266 17.19079996080935 -9.35259618389581 17.551258119651404 -9.920230679897296 17.940634892099634 A 20.5 20.5 0 0 1 -10.5769 17.5615C -10.523537308048104 16.87521494641688 -10.40691965296279 16.356286332400074 -10.294437046485319 15.993079086098799 C -10.224182381025448 15.76658065550957 -10.156216390363511 15.602861101814435 -10.105908742773204 15.495951783591023 A 0.375 0.375 0 0 0 -10.275 15.0827A 18.25 18.25 0 0 1 -10.459 14.9557A 0.375 0.375 0 0 0 -10.9053 14.9441C -10.987484596676536 15.029078087767001 -11.116463966185284 15.150683146830835 -11.303331030019361 15.29668985055465 C -11.603048822807901 15.53065797917837 -12.04690231529915 15.823712003423593 -12.669646520464438 16.11699147237107 A 20.5 20.5 0 0 1 -13.257 15.6374C -13.094235108093507 14.968591246193588 -12.895885617365154 14.475089408860837 -12.726597091503361 14.134629079986443 C -12.620919302146566 13.922333385458918 -12.527570989903557 13.771636468602022 -12.460765352465003 13.674181512158064 A 0.375 0.375 0 0 0 -12.5614 13.2391A 18.25 18.25 0 0 1 -12.7226 13.0843A 0.375 0.375 0 0 0 -13.1613 13.0012C -13.256033223049597 13.071938996178327 -13.40284916688129 13.171279555798257 -13.61071747367525 13.285419925995992 C -13.944085126956857 13.468280113765866 -14.429200004682796 13.6863400581205 -15.090925171210579 13.875926439374103 A 20.5 20.5 0 0 1 -15.5938 13.3083C -15.325799096924444 12.674288895333014 -15.050854918174721 12.21899527304665 -14.829144956825258 11.910099605281399 C -14.69078104280589 11.717504993790048 -14.574468081235294 11.583733684760537 -14.492894684866762 11.4982571222772 A 0.375 0.375 0 0 0 -14.5224 11.0527A 18.25 18.25 0 0 1 -14.6567 10.874A 0.375 0.375 0 0 0 -15.0764 10.7216C -15.181257552019474 10.77624355096218 -15.342107614347741 10.85074674282525 -15.565593484143815 10.93006460386396 C -15.923976950808463 11.057080867968782 -16.43778899325511 11.194499094415656 -17.121356786920554 11.275482200286064 A 20.5 20.5 0 0 1 -17.5266 10.6346C -17.160432939416815 10.051729119580878 -16.81601498245381 9.64643557800338 -16.547625757156748 9.37710480688697 C -16.38015927116869 9.209199377704126 -16.243894104878795 9.095818283139026 -16.1496656576977 9.024533912685857 A 0.375 0.375 0 0 0 -16.1073 8.58001A 18.25 18.25 0 0 1 -16.2112 8.38207A 0.375 0.375 0 0 0 -16.601 8.16437C -16.713295284739647 8.201449058276344 -16.884013533440832 8.24918528884802 -17.117328799603023 8.291626349790558 C -17.491446136114277 8.359509035708589 -18.020647881275305 8.412726484365203 -18.708354255284114 8.383008894948835 A 20.5 20.5 0 0 1 -19.0056 7.6854C -18.550620582738876 7.168834839561908 -18.14564909173351 6.8240382685292404 -17.837531742445663 6.601247919560639 C -17.645299978509907 6.462380335105472 -17.492611803730828 6.3723259657976765 -17.38816877302323 6.3170800151254545 A 0.375 0.375 0 0 0 -17.2751 5.8851A 18.25 18.25 0 0 1 -17.3459 5.67306A 0.375 0.375 0 0 0 -17.6957 5.39565C -17.812467448675033 5.4142413430040826 -17.98863237078195 5.433974268987249 -18.22573429047153 5.438439328648466 C -18.605896054328532 5.445430310471561 -19.136781454981158 5.41306867737155 -19.810815175482034 5.273420062624359 A 20.5 20.5 0 0 1 -19.9923 4.53716C -19.46035689716054 4.100271502813932 -19.005320421008108 3.8249019524025347 -18.66545502522944 3.6544221785936455 C -18.453436685057234 3.5481890363597612 -18.288280045312337 3.4837937531709553 -18.17632745071217 3.44601706338273 A 0.375 0.375 0 0 0 -17.9954 3.03778A 18.25 18.25 0 0 1 -18.0313 2.81713A 0.375 0.375 0 0 0 -18.332 2.48719C -18.45030606214829 2.4868076209181 -18.62735507871354 2.4780261698950206 -18.862102836754456 2.444399585575079 C -19.2384630379631 2.3903178005462147 -19.75728244109169 2.2732152349880845 -20.400186388777275 2.027252420677982 A 20.5 20.5 0 0 1 -20.4612 1.27142C -19.866080190000787 0.9255132879165682 -19.37276393441398 0.726702684837127 -19.009952827372086 0.6129488227806965 C -18.78363907460577 0.5421015053502506 -18.610291440111656 0.5050331122897396 -18.493728795013073 0.48570407980784314 A 0.375 0.375 0 0 0 -18.2497 0.111773A 18.25 18.25 0 0 1 -18.2497 -0.111773A 0.375 0.375 0 0 0 -18.4936 -0.485682C -18.61029144011166 -0.5050331122897266 -18.783639074605773 -0.5421015053502374 -19.00995282737209 -0.6129488227806831 C -19.372763934413985 -0.7267026848371133 -19.866080190000787 -0.9255132879165543 -20.46120349032794 -1.2714199940972568 A 20.5 20.5 0 0 1 -20.4002 -2.02725C -19.75728244109169 -2.2732152349880708 -19.238463037963104 -2.390317800546202 -18.86210283675446 -2.444399585575066 C -18.627355078713542 -2.4780261698950077 -18.450306062148293 -2.4868076209180874 -18.3321522778318 -2.4871883843054476 A 0.375 0.375 0 0 0 -18.0313 -2.81713A 18.25 18.25 0 0 1 -17.9954 -3.03778A 0.375 0.375 0 0 0 -18.1762 -3.44598C -18.288280045312337 -3.483793753170943 -18.453436685057238 -3.548189036359749 -18.665455025229445 -3.654422178593633 C -19.005320421008115 -3.824901952402522 -19.460356897160544 -4.10027150281392 -19.992286169254662 -4.537163298871573 A 20.5 20.5 0 0 1 -19.8108 -5.27342C -19.13678145498117 -5.4130686773715375 -18.60589605432854 -5.445430310471549 -18.225734290471532 -5.438439328648453 C -17.988632370781954 -5.433974268987236 -17.81246744867504 -5.41424134300407 -17.69578264609111 -5.395663975725167 A 0.375 0.375 0 0 0 -17.3459 -5.67306A 18.25 18.25 0 0 1 -17.2751 -5.8851A 0.375 0.375 0 0 0 -17.3881 -6.31703C -17.492611803730828 -6.372325965797672 -17.645299978509907 -6.462380335105468 -17.83753174244566 -6.601247919560635 C -18.14564909173351 -6.824038268529236 -18.550620582738876 -7.168834839561903 -19.005579137862313 -7.685396457467313 A 20.5 20.5 0 0 1 -18.7084 -8.38301C -18.020647881275305 -8.4127264843652 -17.491446136114277 -8.359509035708584 -17.117328799603026 -8.291626349790553 C -16.884013533440832 -8.249185288848016 -16.713295284739647 -8.20144905827634 -16.6011015389835 -8.164394704385455 A 0.375 0.375 0 0 0 -16.2112 -8.38207A 18.25 18.25 0 0 1 -16.1073 -8.58001A 0.375 0.375 0 0 0 -16.1496 -9.02447C -16.243894104878805 -9.095818283139018 -16.380159271168697 -9.209199377704115 -16.547625757156755 -9.37710480688696 C -16.816014982453822 -9.64643557800337 -17.160432939416825 -10.051729119580866 -17.526637589970615 -10.634581884767611 A 20.5 20.5 0 0 1 -17.1214 -11.2755C -16.437788993255122 -11.194499094415647 -15.923976950808475 -11.057080867968772 -15.565593484143822 -10.930064603863949 C -15.34210761434775 -10.850746742825239 -15.181257552019483 -10.776243550962171 -15.076460622173544 -10.721671898761322 A 0.375 0.375 0 0 0 -14.6567 -10.874A 18.25 18.25 0 0 1 -14.5224 -11.0527A 0.375 0.375 0 0 0 -14.4928 -11.4982C -14.574468081235302 -11.583733684760528 -14.690781042805899 -11.71750499379004 -14.829144956825267 -11.910099605281392 C -15.050854918174728 -12.218995273046641 -15.325799096924452 -12.674288895333005 -15.593765334817704 -13.30833722734122 A 20.5 20.5 0 0 1 -15.0909 -13.8759C -14.429200004682805 -13.686340058120491 -13.944085126956868 -13.468280113765857 -13.610717473675258 -13.285419925995985 C -13.4028491668813 -13.17127955579825 -13.256033223049606 -13.071938996178318 -13.161347294549586 -13.001263422794338 A 0.375 0.375 0 0 0 -12.7226 -13.0843A 18.25 18.25 0 0 1 -12.5614 -13.2391A 0.375 0.375 0 0 0 -12.4607 -13.6741C -12.527570989903568 -13.77163646860201 -12.620919302146577 -13.922333385458906 -12.726597091503372 -14.13462907998643 C -12.895885617365165 -14.475089408860827 -13.09423510809352 -14.968591246193578 -13.25702274852098 -15.637413626274506 A 20.5 20.5 0 0 1 -12.6696 -16.117C -12.046902315299162 -15.823712003423582 -11.603048822807912 -15.53065797917836 -11.303331030019372 -15.29668985055464 C -11.116463966185295 -15.150683146830826 -10.987484596676547 -15.029078087766992 -10.90536198533437 -14.944129053426352 A 0.375 0.375 0 0 0 -10.459 -14.9557A 18.25 18.25 0 0 1 -10.275 -15.0827A 0.375 0.375 0 0 0 -10.1059 -15.4959C -10.156216390363523 -15.602861101814426 -10.22418238102546 -15.766580655509559 -10.294437046485331 -15.99307908609879 C -10.406919652962802 -16.356286332400067 -10.523537308048116 -16.875214946416868 -10.57693023663113 -17.561489226242646 A 20.5 20.5 0 0 1 -9.92023 -17.9406C -9.352596183895823 -17.5512581196514 -8.961499648949278 -17.190799960809343 -8.703194250052519 -16.911783542965328 C -8.542168187974873 -16.73769200264809 -8.434365890709605 -16.59697195129391 -8.36693352902201 -16.49994959136436 A 0.375 0.375 0 0 0 -7.92447 -16.4397A 18.25 18.25 0 0 1 -7.72251 -16.5356A 0.375 0.375 0 0 0 -7.48929 -16.9163C -7.521821121128011 -17.029979828295595 -7.562644506751624 -17.20248176838619 -7.595656489382238 -17.437316744659014 C -7.648419936052014 -17.813864031491953 -7.680285419484013 -18.34477944367043 -7.6229007874182955 -19.030731479876856 A 20.5 20.5 0 0 1 -6.91389 -19.2996C -6.4160627240222645 -18.824235869831842 -6.087852341441983 -18.405709253367007 -5.877649310586849 -18.088870924964283 C -5.746634740690348 -17.891203427501754 -5.66280153854179 -17.735012959270456 -5.611805889255895 -17.628430101910677 A 0.375 0.375 0 0 0 -5.18473 -17.498A 18.25 18.25 0 0 1 -4.97001 -17.5602A 0.375 0.375 0 0 0 -4.67874 -17.8986C -4.692614635886084 -18.016031022660624 -4.70523811222726 -18.192847639509427 -4.700152419018879 -18.42993705893352 C -4.691830160327578 -18.810072009360333 -4.638118172823542 -19.339223789402094 -4.471442211936833 -20.007087784565446 A 20.5 20.5 0 0 1 -3.72848 -20.1588C -3.3133566097991762 -19.609675798899683 -3.0565328560930087 -19.143920344336593 -2.8998763413640756 -18.797466051653267 C -2.802266472190255 -18.58134208139977 -2.744573601058497 -18.413726447375478 -2.711335424704026 -18.300343532605684 A 0.375 0.375 0 0 0 -2.31071 -18.1031A 18.25 18.25 0 0 1 -2.0888 -18.1301A 0.375 0.375 0 0 0 -1.74702 -18.4173C -1.7418718964917348 -18.535476476924313 -1.7259685221440442 -18.712028313032437 -1.6829168698793744 -18.945231684182055 C -1.613724447955619 -19.319109002662387 -1.4758261017782919 -19.832792397414988 -1.204175631906706 -20.465271024873342 A 20.5 20.5 0 0 1 -0.446499 -20.4958C -0.1248362998084167 -19.887235425264667 0.05394922470595653 -19.386313954226424 0.15300190186508844 -19.019216681458936 C 0.21467902597673327 -18.790233735719344 0.24473735103404648 -18.615534092778834 0.2593572031487239 -18.49828767853426 A 0.375 0.375 0 0 0 0.623158 -18.2394A 18.25 18.25 0 0 1 0.846522 -18.2304A 0.375 0.375 0 0 0 1.22995 -18.4591C 1.2539844100585347 -18.574862826673375 1.2980027460531451 -18.74657728222403 1.3779053421944405 -18.969854760282487 C 1.5061758799679315 -19.327791220656422 1.724689090087223 -19.812702100021237 2.094278464465437 -20.393414495549163 A 20.5 20.5 0 0 1 2.84704 -20.302C 3.0669172047738726 -19.64972610039931 3.163034048923244 -19.126612215863865 3.20191747620413 -18.748379589549565 C 3.22606445013661 -18.512468206339328 3.227709734289406 -18.335209183469267 3.223332615673974 -18.21713589029214 A 0.375 0.375 0 0 0 3.54089 -17.9032A 18.25 18.25 0 0 1 3.75991 -17.8585A 0.375 0.375 0 0 0 4.17507 -18.0227C 4.217363179076001 -18.133169986138007 4.288356424937039 -18.295599746929884 4.403040529685803 -18.50316856249773 C 4.5870670437581085 -18.835893798456944 4.880535740456983 -19.279473225370392 5.338491848681793 -19.793379242957894 A 20.5 20.5 0 0 1 6.06684 -19.5824C 6.179239164730003 -18.903299191059713 6.190197952738758 -18.371541267857452 6.167905069799347 -17.99196931434143 C 6.153896499611632 -17.755239474567144 6.127086130864582 -17.580011987349984 6.103825406591986 -17.464169851512548 A 0.375 0.375 0 0 0 6.36691 -17.1034A 18.25 18.25 0 0 1 6.57593 -17.0241A 0.375 0.375 0 0 0 7.01205 -17.1196C 7.071514457034325 -17.221837567877504 7.167643924985025 -17.370775788426517 7.3141392802690515 -17.557260018211426 C 7.549155580590379 -17.8561566209171 7.909979078776347 -18.246916121223673 8.444441098198004 -18.680705864957645 A 20.5 20.5 0 0 1 9.12952 -18.3556C 9.13152207612458 -17.667286762117758 9.057038981139678 -17.140657051140042 8.97414716193819 -16.76957648463839 C 8.922345862239778 -16.538159366801747 8.867774215060592 -16.369501715113653 8.826232325671196 -16.258890987085017 A 0.375 0.375 0 0 0 9.02803 -15.8606A 18.25 18.25 0 0 1 9.22163 -15.7488A 0.375 0.375 0 0 0 9.66742 -15.7731C 9.742517225051055 -15.864468602823917 9.86129321236598 -15.9960578614515 10.035805665433884 -16.156627661857698 C 10.315724953274291 -16.41395436630292 10.734558113876195 -16.741773474201192 11.331683758931659 -17.084212017578185 A 20.5 20.5 0 0 1 11.9557 -16.6535C 11.847303362315332 -15.973700886235594 11.68930745737271 -15.465838820370891 11.547963556485392 -15.112860432636351 C 11.459711153728504 -14.892749618531504 11.378791605113955 -14.735029946959406 11.320044463721993 -14.632515386494378 A 0.375 0.375 0 0 0 11.4553 -14.207A 18.25 18.25 0 0 1 11.6285 -14.0656A 0.375 0.375 0 0 0 12.0724 -14.0181C 12.161193914447741 -14.096218234179036 12.29954018544559 -14.207050438207387 12.497549955430083 -14.33754713574779 C 12.81512246826934 -14.546639315454922 13.281117732430525 -14.803027688245782 13.925441762568523 -15.045246052867025 A 20.5 20.5 0 0 1 14.4723 -14.52C 14.256245714524168 -13.86640454799885 14.018829010570414 -13.39046348798539 13.822693760785716 -13.06472923384927 C 13.7002759458449 -12.861625477942644 13.595104269599021 -12.71892864313393 13.520673396308094 -12.62716532350013 A 0.375 0.375 0 0 0 13.5859 -12.1854A 18.25 18.25 0 0 1 13.7342 -12.0181A 0.375 0.375 0 0 0 14.1647 -11.9C 14.264902069441398 -11.962883217671603 14.419235528373276 -12.050087871233867 14.635614266241506 -12.147131669988939 C 14.982615042810238 -12.302573947334636 15.48370337796498 -12.480891260837415 16.158538139252773 -12.61661611829067 A 20.5 20.5 0 0 1 16.6141 -12.0104C 16.29595879118806 -11.399975615656048 15.985270256146322 -10.968282184947846 15.739423457408561 -10.678228410491945 C 15.586010787387663 -10.497391993376027 15.459310874681087 -10.373413768397047 15.37112399001269 -10.294778311371935 A 0.375 0.375 0 0 0 15.3647 -9.84829A 18.25 18.25 0 0 1 15.4842 -9.65935A 0.375 0.375 0 0 0 15.8902 -9.47372C 15.999156753844744 -9.519715809639823 16.16548024519195 -9.581034358015234 16.394623855291652 -9.64211187457198 C 16.762065757747852 -9.739878376223059 17.28526923922523 -9.835506305683808 17.973136865819853 -9.86122245345402 A 20.5 20.5 0 0 1 18.3255 -9.18979C 17.9136150950334 -8.638293302999347 17.53770139876408 -8.26202813469362 17.248510354023185 -8.01516708031811 C 17.068076136491783 -7.861281570207204 16.923129448511204 -7.759232925962149 16.823470546455813 -7.695761948577374 A 0.375 0.375 0 0 0 16.7455 -7.25609A 18.25 18.25 0 0 1 16.8331 -7.05043A 0.375 0.375 0 0 0 17.2041 -6.80207C 17.319041682293786 -6.829992762614954 17.493047514996142 -6.863837087609739 17.72902129818933 -6.887366446371882 C 18.10738777426773 -6.924925071289958 18.63915570672362 -6.935386903566685 19.322240788416504 -6.850428306934677 A 20.5 20.5 0 0 1 19.5624 -6.13116C 19.067318177506337 -5.65288373128161 18.635915287284433 -5.34179189559448 18.31086989269413 -5.1445171329375405 C 18.108087279108553 -5.021568083711183 17.94864785893568 -4.944092026482312 17.84009805270811 -4.897429393712369 A 0.375 0.375 0 0 0 17.6926 -4.47595A 18.25 18.25 0 0 1 17.7461 -4.2589A 0.375 0.375 0 0 0 18.0725 -3.95425C 18.190372528445344 -3.9633764906684474 18.36755404283691 -3.968870042042847 18.604246402090205 -3.9542418449778505 C 18.983737958807133 -3.9306198445061833 19.510297832115768 -3.8556446236382684 20.170908824099158 -3.6622116656301125 A 20.5 20.5 0 0 1 20.2925 -2.91374C 19.727187734783158 -2.5210674402468496 19.251468758859914 -2.2832060523135924 18.898987519401594 -2.140626894104377 C 18.679108472936907 -2.0517986215553647 18.509305717804544 -2.0009017405286063 18.394676390367508 -1.972255990051484 A 0.375 0.375 0 0 0 18.1815 -1.5799A 18.25 18.25 0 0 1 18.1995 -1.35708A 0.375 0.375 0 0 0 18.4727 -1.00401" stroke="#191919" stroke-width="0.35 px" style="stroke-width:0.35;stroke-miterlimit:4;stroke-dasharray:none;fill:none;fill-rule: evenodd "/>
<title>b'InvoluteGear'</title>
</g>
</svg>