<?xml version="1.0"?>
<!DOCTYPE svg PUBLIC "-//W3C//DTD SVG 1.1//EN" "http://www.w3.org/Graphics/SVG/1.1/DTD/svg11.dtd">
<svg width="145.84883462712313mm" height="145.85770816450878mm" viewBox="0 0 145.84883462712313 145.85770816450878" xmlns="http://www.w3.org/2000/svg" version="1.1">
<g id="InvoluteGear" transform="translate(72.920095,72.928854) scale(1,-1)">
<path id="InvoluteGear_w0000"  d="M 69.49109128323595 -1.1127588530176893 C 69.65470223425902 -1.0637407114628978 69.82400512670021 -1.0108432476707339 69.99885972097019 -0.9537740723319673 C 70.4610809257864 -0.8029120558613623 70.9620037074606 -0.6229408032600023 71.49884905164043 -0.40854466598961703 A 71.5 71.5 0 0 1 71.4988 0.408545C 70.9620037074606 0.6229408032600023 70.4610809257864 0.8029120558613623 69.99885972097019 0.9537740723319673 C 69.82400512670021 1.0108432476707339 69.65470223425902 1.0637407114628978 69.4910916228967 1.1127587108450805 A 0.375 0.375 0 0 0 69.2341 1.48167A 69.25 69.25 0 0 1 69.2314 1.60397A 0.375 0.375 0 0 0 69.4717 1.98396C 69.63294205185349 2.040212941759946 69.79972046122181 2.1005998048443306 69.97185922460926 2.1654015490384686 C 70.42690115287847 2.3367043035766852 70.9193095139884 2.5388114307942566 71.44607125691877 2.77690950602583 A 71.5 71.5 0 0 1 71.4097 3.59319C 70.86380941112702 3.783456246011531 70.35536674470397 3.940934307733571 69.88688396075767 4.071056063567314 C 69.70966069321678 4.120279364485648 69.53816945292422 4.165582405967654 69.37253766088678 4.207263407398106 A 0.375 0.375 0 0 0 69.0994 4.56436A 69.25 69.25 0 0 1 69.0912 4.68642A 0.375 0.375 0 0 0 69.3143 5.07673C 69.47293210853562 5.140115941038014 69.63685491173699 5.20787231088764 69.80593607866115 5.2802779660723855 C 70.25289528675543 5.471681352915616 70.73581159607963 5.695523089756233 71.25144390107934 5.956850381260028 A 71.5 71.5 0 0 1 71.1787 6.7707C 70.62492158067374 6.936459986599966 70.10996849535232 7.071132199327999 69.63615426147862 7.180255349823315 C 69.45691418105999 7.2215350480135685 69.28357507289968 7.259153722190002 69.11625094677859 7.293414971898561 A 0.375 0.375 0 0 0 68.8275 7.63799A 69.25 69.25 0 0 1 68.8139 7.75956A 0.375 0.375 0 0 0 69.0194 8.15943C 69.1749900892366 8.229813715906907 69.33573183271871 8.304805068521263 69.50141970817353 8.384670879970436 C 69.93940879995775 8.595794885411243 70.41187427186486 8.840926814826183 70.91535339872154 9.124964481454523 A 71.5 71.5 0 0 1 70.8064 9.93476C 70.24581450577563 10.075692027954272 69.72537339324042 10.18729101247578 69.24716842374238 10.27519890371828 C 69.06626739503436 10.308453042160727 68.89142456776055 10.338312660636163 68.72274031411996 10.365086136082903 A 0.375 0.375 0 0 0 68.4189 10.6965A 69.25 69.25 0 0 1 68.3999 10.8173A 0.375 0.375 0 0 0 68.5874 11.2259C 68.73970753025696 11.303171957430648 68.89694907616708 11.385249404420652 69.05891470221263 11.472416805958348 C 69.48706409088723 11.702842262826493 69.9481406889163 11.968777698060396 70.43846702642782 12.274961809317968 A 71.5 71.5 0 0 1 70.2936 13.0791C 69.72724086843805 13.194919715437479 69.20234501634368 13.283223902298786 68.72069874292345 13.349742001307549 C 68.53849592817359 13.374904556988461 68.3624965160356 13.396945836254352 68.19278704184696 13.416178381182046 A 0.375 0.375 0 0 0 67.8745 13.7337A 69.25 69.25 0 0 1 67.8501 13.8536A 0.375 0.375 0 0 0 68.0192 14.2701C 68.16794864482587 14.354088797304254 68.32137780462955 14.443089381496353 68.47929961350759 14.537385310315418 C 68.89675924809276 14.786654730195487 69.34553154733769 15.07286568105785 69.82173159794766 15.4005883367335 A 71.5 71.5 0 0 1 69.6412 16.1975C 69.0702302486165 16.287950111205525 68.54192178909062 16.352784180617444 68.0577904758408 16.397780421864095 C 67.8746476218723 16.414801436858326 67.69784105541162 16.428980615994927 67.52744330312687 16.44063404596587 A 0.375 0.375 0 0 0 67.1953 16.7436A 69.25 69.25 0 0 1 67.1657 16.8623A 0.375 0.375 0 0 0 67.316 17.286C 67.46084860728583 17.376506922548444 67.61016076158836 17.472253941521018 67.7637252141653 17.573491181783226 C 68.16966626719847 17.84110966331552 68.60524327179944 18.147027884456353 69.06637158438654 18.495638421552687 A 71.5 71.5 0 0 1 68.8505 19.2837C 68.27608708008084 19.34864228971212 67.74541492066729 19.389877519631163 67.259759765497 19.413262567243756 C 67.07604048549388 19.422108247901576 66.89877779778224 19.4283971754612 66.7280300763658 19.432448353668875 A 0.375 0.375 0 0 0 66.3828 19.7204A 69.25 69.25 0 0 1 66.3478 19.8376A 0.375 0.375 0 0 0 66.4791 20.2676C 66.61981129930908 20.364425601743882 66.7647100026491 20.46672895865352 66.91361221091894 20.574706513189295 C 67.30722872401502 20.86014272465068 67.72874563614829 21.185160843759043 68.17388668313198 21.553967128323585 A 71.5 71.5 0 0 1 67.9231 22.3316C 67.3463880605828 22.37091952994799 66.81440580173275 22.388474051642064 66.32819102799819 22.39020147677319 C 66.14426007958504 22.390854260814443 65.9668932092807 22.38924045071355 65.79613452252825 22.385681333918622 A 0.375 0.375 0 0 0 65.4384 22.6579A 69.25 69.25 0 0 1 65.3982 22.7735A 0.375 0.375 0 0 0 65.5103 23.2089C 65.64650652262051 23.311912598927922 65.786704092035 23.420569179929124 65.93064842444626 23.535072669298824 C 66.31115890845335 23.837759903512666 66.71777884530738 24.181232627198174 67.14604884034307 24.569502428491255 A 71.5 71.5 0 0 1 66.8609 25.3352C 66.28297902146858 25.34878138020792 65.75074286471433 25.342620340799126 65.26493380684259 25.322686713806082 C 65.08115636789202 25.31514530518848 64.9040374604981 25.30563196149765 64.73360683397603 25.29446961599707 A 0.375 0.375 0 0 0 64.3641 25.5505A 69.25 69.25 0 0 1 64.3188 25.6642A 0.375 0.375 0 0 0 64.4114 26.1041C 64.54286668376085 26.21311595150002 64.67808476995303 26.327910029008947 64.81678543835785 26.44871211713336 C 65.18343442493168 26.768049416614204 65.57435008026036 27.129294811577328 65.98489873291545 27.536257255848437 A 71.5 71.5 0 0 1 65.6659 28.2885C 65.08797126295147 28.276315571432217 64.55653791391617 28.246451203094004 64.07209910082302 28.204896100348044 C 63.88884004442885 28.189175471840336 63.71232075314105 28.171781482422862 63.5425565610825 28.153038070020383 A 0.375 0.375 0 0 0 63.162 28.3924A 69.25 69.25 0 0 1 63.1117 28.5039A 0.375 0.375 0 0 0 63.1846 28.9475C 63.311082957472415 29.062275588751803 63.44105309744852 29.182979249753405 63.574234724508514 29.309840095268537 C 63.9262942660249 29.64519344536752 64.30072951297943 30.02349429231503 64.6927417169063 30.448341393301302 A 71.5 71.5 0 0 1 64.3406 31.1856C 63.763737362320896 31.147709755469663 63.23416193272723 31.094201351140992 62.752055172834275 31.031107276452094 C 62.569678342889674 31.007238639907005 62.39410913042148 30.981998538918816 62.22534842391566 30.955711272924788 A 0.375 0.375 0 0 0 61.8345 31.1778A 69.25 69.25 0 0 1 61.7793 31.287A 0.375 0.375 0 0 0 61.8323 31.7335C 61.953600936324385 31.853734767954258 62.07806508640212 31.980108366502478 62.20546325232464 32.11277609894236 C 62.54223436715207 32.463479686624645 62.899445799209026 32.85808490424211 63.27214325046312 33.29997316735026 A 71.5 71.5 0 0 1 62.8875 34.0208C 62.3129064634096 33.957263044956726 61.7862403762532 33.88021684062142 61.30742284790629 33.79570906143461 C 61.12629033672552 33.76373980582062 60.9520197794968 33.73070370514589 60.78459761730525 33.69692477649368 A 0.375 0.375 0 0 0 60.3842 33.9014A 69.25 69.25 0 0 1 60.3243 34.008A 0.375 0.375 0 0 0 60.3573 34.4564C 60.47311577521528 34.581951305296826 60.5918268233456 34.71374393830944 60.713188590864746 34.851955158171634 C 61.03400265112775 35.21731269392654 61.37328105805384 35.62743883008078 61.72592380034421 36.085490927067525 A 71.5 71.5 0 0 1 61.3095 36.7885C 60.73835905667209 36.69939733190175 60.21564795871846 36.59896629566678 59.74107030979867 36.49321259435523 C 59.56154173921627 36.45320619167014 59.388915835287165 36.41243968142879 59.22316461861559 36.371236155054525 A 0.375 0.375 0 0 0 58.8141 36.5577A 69.25 69.25 0 0 1 58.7494 36.6615A 0.375 0.375 0 0 0 58.7625 37.1109C 58.87256684039224 37.24150857938035 58.985289096777514 37.37845858478382 59.10037351333765 37.52193888648471 C 59.404593572415536 37.901224986744104 59.72526534833891 38.326057773954865 60.05715324214291 38.799364284780964 A 71.5 71.5 0 0 1 59.6098 39.4831C 59.0432212602374 39.36866836250203 58.5255029459871 39.2450518908935 58.056107406487364 39.11826223164213 C 57.87853921386225 39.0702981108953 57.707900695986 39.02188212921989 57.544149508532435 38.973335810911195 A 0.375 0.375 0 0 0 57.1272 39.1414A 69.25 69.25 0 0 1 57.0579 39.2422A 0.375 0.375 0 0 0 57.051 39.6918C 57.1551318736115 39.827126285417464 57.26164153864573 39.96896176165276 57.3702201147905 40.11742627833449 C 57.65724217191592 40.50988790565469 57.958670652708264 40.94858387774736 58.26914476533376 41.43620509614689 A 71.5 71.5 0 0 1 57.7918 42.0994C 57.230858613290934 41.95977654620578 56.719160964534616 41.81322006828559 56.255879475849284 41.66564618022663 C 56.080624206391434 41.60981956974005 55.91231186155023 41.5538502420806 55.75088581613983 41.4980575160588 A 0.375 0.375 0 0 0 55.3268 41.6474A 69.25 69.25 0 0 1 55.2532 41.745A 0.375 0.375 0 0 0 55.2262 42.1938C 55.324220683026276 42.33367091878899 55.42430629162855 42.48011026464696 55.52616345464553 42.63326423375419 C 55.79541765409208 43.03812219190213 56.07700438140633 43.48981035863175 56.36544829524155 43.99077815781195 A 71.5 71.5 0 0 1 55.8591 44.632C 55.304869394107946 44.46757747755864 54.80020833916224 44.29837196764778 54.34396070380373 44.13030684507589 C 54.17136631062825 44.06672858341711 54.00571430740303 44.00331703169292 53.846933900506656 43.940388669251135 A 0.375 0.375 0 0 0 53.4167 44.0707A 69.25 69.25 0 0 1 53.3387 44.165A 0.375 0.375 0 0 0 53.2918 44.6121C 53.38346837332826 44.756165967142145 53.476931214787065 44.90691844085666 53.57186473670742 45.06445778936033 C 53.82281649918546 45.48090827033556 54.08400240863945 45.94469184665732 54.34984344499311 46.4580116014247 A 71.5 71.5 0 0 1 53.8154 47.0761C 53.26907747600508 46.88709214994448 52.77245497268091 46.69557354992048 52.32414702809695 46.50735087057967 C 52.1545561813954 46.43614718650214 51.99189340650509 46.36541930847951 51.83607388192323 46.29548024805643 A 0.375 0.375 0 0 0 51.4004 46.4065A 69.25 69.25 0 0 1 51.3184 46.4972A 0.375 0.375 0 0 0 51.2515 46.9418C 51.336728128583815 47.089801790795256 51.42338264107875 47.244568087284065 51.511204040182186 47.406180035390264 C 51.74335512419651 47.833396215311275 51.983621655343526 48.30835440186425 52.226332011445365 48.83300696336085 A 71.5 71.5 0 0 1 51.6649 49.4266C 51.12752473539388 49.21351684094223 50.63992678170206 49.00006539325762 50.20044860181924 48.79205885585502 C 50.03419800851966 48.71337111768253 49.874847413847036 48.63546733701639 49.72229813682239 48.55865643614262 A 0.375 0.375 0 0 0 49.2821 48.6501A 69.25 69.25 0 0 1 49.1961 48.7371A 0.375 0.375 0 0 0 49.1096 49.1783C 49.18806356209355 49.32994517183206 49.267737701111194 49.488418016939335 49.34827261613892 49.653781699084604 C 49.56116210720115 50.090915379771175 49.78003223308373 50.57610519104019 49.999130029988045 51.11104891016932 A 71.5 71.5 0 0 1 49.4118 51.6791C 48.88446302700926 51.442232649672015 48.40685770355261 51.20727214241818 47.97708183161708 50.97989472467978 C 47.814501566883585 50.8938791596328 47.65877952828417 50.80895414706854 47.509803371285635 50.72542390667782 A 0.375 0.375 0 0 0 47.066 50.7972A 69.25 69.25 0 0 1 46.9762 50.8803A 0.375 0.375 0 0 0 46.8701 51.3171C 46.9417406484644 51.47214851292703 47.01427622837674 51.63401327348775 47.08736476470962 51.80280037538799 C 47.28056999044124 52.24898366838015 47.477609164684026 52.74344180490621 47.67265940399572 53.28761460043029 A 71.5 71.5 0 0 1 47.0606 53.8289C 46.54434574224558 53.56881466719534 46.07768129018458 53.312811592710446 45.6584610064081 53.06651473145213 C 45.499873858307176 52.97334211547309 45.34808954747429 52.88156448176212 45.202982288871716 52.7914807434148 A 0.375 0.375 0 0 0 44.7564 52.8434A 69.25 69.25 0 0 1 44.663 52.9224A 0.375 0.375 0 0 0 44.5375 53.3541C 44.60221925391187 53.5121586676382 44.66747226203916 53.67709397615319 44.73296930915373 53.84896938664125 C 44.90610667846297 54.303316436311434 45.08092369802432 54.80606119723371 45.25153912554795 55.358382664438246 A 71.5 71.5 0 0 1 44.616 55.8719C 44.11181896736018 55.58904076176221 43.65702190576787 55.312503390453884 43.24918953321901 55.04777608529535 C 43.094910361853685 54.947631403988794 42.94736513248667 54.84918336512751 42.80641486931024 54.75272498174755 A 0.375 0.375 0 0 0 42.358 54.7847A 69.25 69.25 0 0 1 42.2611 54.8594A 0.375 0.375 0 0 0 42.1166 55.2851C 42.174144281608406 55.44592538463569 42.23198516414315 55.613603777317046 42.28976068371504 55.788226253674935 C 42.442486448381494 56.2498349960124 42.5947342302509 56.75986822814434 42.740576104848024 57.3192417838815 A 71.5 71.5 0 0 1 42.0828 57.8039C 41.59171225909919 57.49889996146288 41.149685545443354 57.20237733268433 40.75405079754706 56.91974517518564 C 40.60438590993132 56.81282725654648 40.46137269942564 56.70790427200327 40.3248592753759 56.60526275278224 A 0.375 0.375 0 0 0 39.8754 56.6172A 69.25 69.25 0 0 1 39.7754 56.6876A 0.375 0.375 0 0 0 39.612 57.1064C 39.66233644965823 57.26960934910089 39.71265036888214 57.43969791602097 39.762589652965204 57.616720761485716 C 39.8946005901201 58.084674715061084 40.02397686041938 58.60098379463122 40.14475562654776 59.16629885448416 A 71.5 71.5 0 0 1 39.466 59.6212C 38.98902905605969 59.29460041764132 38.56065029346437 58.97868124962454 38.17799866639088 58.678705379772744 C 38.033245208305445 58.56522649943164 37.895047956152624 58.45403688408017 37.76324240599676 58.345416014253544 A 0.375 0.375 0 0 0 37.3137 58.3374A 69.25 69.25 0 0 1 37.2106 58.4032A 0.375 0.375 0 0 0 37.0287 58.8143C 37.07178272000767 58.979589805330555 37.11446978229142 59.1517508513839 37.15647368105971 59.33082260348184 C 37.26750769520684 59.804192689036164 37.373755589326954 60.325752532158845 37.469231451926255 60.89588671540429 A 71.5 71.5 0 0 1 36.7709 61.3201C 36.30893674482552 60.97257693325972 35.895056439671215 60.63788845426996 35.52614765280617 60.32116444638755 C 35.386593018843044 60.20134990615731 35.2534861028951 60.08411441668665 35.12665011435244 59.96972985293705 A 0.375 0.375 0 0 0 34.678 59.9417A 69.25 69.25 0 0 1 34.572 60.0028A 0.375 0.375 0 0 0 34.372 60.4054C 34.40762639729393 60.57247174541216 34.44260185142665 60.74636346077781 34.47658697002722 60.92712858912083 C 34.56642361340929 61.40497497416646 34.64933218599124 61.93075007205103 34.71931558657394 62.504571430042276 A 71.5 71.5 0 0 1 34.0028 62.8972C 33.55675640059951 62.529498041267225 33.15819627392151 62.176704744299265 32.80376276151342 61.84386142458652 C 32.66968402448055 61.717949105146225 32.54193171619813 61.594900501768905 32.42031711038342 61.47497934405969 A 0.375 0.375 0 0 0 31.9733 61.4269A 69.25 69.25 0 0 1 31.8648 61.4833A 0.375 0.375 0 0 0 31.647 61.8766C 31.675156917289694 62.04509264969783 31.70235132274469 62.2203697884711 31.72825018687038 62.40246940062929 C 31.796711097147632 62.88384336540029 31.856115740894936 63.412789840257965 31.90046773389714 63.98915910380414 A 71.5 71.5 0 0 1 31.1671 64.3495C 30.737952222701175 63.962272618919336 30.355503578738517 63.59207494240821 30.016249035718335 63.24377314046699 C 29.88791239653719 63.112013029071875 29.765768336303065 62.98339561339997 29.649616567758972 62.85817595408937 A 0.375 0.375 0 0 0 29.2052 62.7903A 69.25 69.25 0 0 1 29.0942 62.8418A 0.375 0.375 0 0 0 28.8592 63.225C 28.87979934521812 63.394528765694375 28.89915871002059 63.57084333134067 28.91691989987399 63.75391588539003 C 28.963869154246108 64.23786170643741 28.999651926737364 64.76892938400398 29.018284455382386 65.34670222528361 A 71.5 71.5 0 0 1 28.2696 65.674C 27.858120685904808 65.26805602491605 27.492542841038958 64.88118896208134 27.169140825898957 64.51812019889906 C 27.04680108508722 64.380773893054 26.9305077786268 64.24684302306093 26.82004945593825 64.11657347419161 A 0.375 0.375 0 0 0 26.3791 64.0289A 69.25 69.25 0 0 1 26.266 64.0754A 0.375 0.375 0 0 0 26.014 64.4478C 26.027103604787936 64.61810091290323 26.03858949271105 64.79510284917292 26.04817774509376 64.97878487150338 C 26.073522130162022 65.46434171919564 26.085611988014655 65.99647621375526 26.07848805914158 66.57450551827316 A 71.5 71.5 0 0 1 25.316 66.8682C 24.922979429156825 66.44425574717384 24.57499820435927 66.04148738675867 24.268090801864993 65.66437250175737 C 24.151990853653746 65.52171268983928 24.041779190562384 65.38273427287018 23.93723361850457 65.24767347257311 A 0.375 0.375 0 0 0 23.5006 65.1405A 69.25 69.25 0 0 1 23.3855 65.1819A 0.375 0.375 0 0 0 23.1173 65.5427C 23.122733459333727 65.71337980208537 23.126323066210205 65.89071768801803 23.127719344534647 66.0746444949767 C 23.131408541368483 66.56084834113801 23.119781481288822 67.09299314890842 23.086915238799005 67.67013129298542 A 71.5 71.5 0 0 1 22.3121 67.9295C 21.938355903732937 67.48853655001835 21.60866218351484 67.07066655132036 21.318858729905244 66.68025427119679 C 21.209229079994934 66.53256419105698 21.105317875328023 66.3888141558943 21.006892619457062 66.24923025488664 A 0.375 0.375 0 0 0 20.5755 66.1227A 69.25 69.25 0 0 1 20.4587 66.1589A 0.375 0.375 0 0 0 20.1746 66.5074C 20.172455266937988 66.67819085839011 20.16814146593564 66.85551260602843 20.16134299802045 67.03931902796513 C 20.143369682061042 67.52520455986411 20.108048788500614 68.05630315658718 20.049505485276278 68.63140428586064 A 71.5 71.5 0 0 1 19.2639 68.856C 18.91017580337297 68.3988251105788 18.59942416409792 67.96668311580049 18.32730003730466 67.56374856799856 C 18.224358345217382 67.4113214446203 18.126953905053313 67.26308519365273 18.03484437960406 67.11925532284941 A 0.375 0.375 0 0 0 17.6095 66.9736A 69.25 69.25 0 0 1 17.4912 67.0046A 0.375 0.375 0 0 0 17.1919 67.3401C 17.182126531860977 67.51061853877233 17.169917887632394 67.68757209220006 17.154938171206318 67.87089319847799 C 17.115338026808807 68.35549573536673 17.056393426132328 68.88449367393947 16.972289294482994 69.45641597835113 A 71.5 71.5 0 0 1 16.1775 69.6458C 15.84445129936449 69.1733141351785 15.55325870964773 68.72775812224953 15.299354186935552 68.31310129601651 C 15.203304833872208 68.15623975934396 15.11260054571074 68.00381160192636 15.026989625619919 67.85602132222238 A 0.375 0.375 0 0 0 14.6086 67.6916A 69.25 69.25 0 0 1 14.489 67.7173A 0.375 0.375 0 0 0 14.175 68.0391C 14.157684275008224 68.20901013512582 14.137605026686437 68.38524416944222 14.11447380258985 68.56771599297385 C 14.053325452175377 69.05007340137234 13.970874173431314 69.5759204053541 13.861376194325327 70.14352838610819 A 71.5 71.5 0 0 1 13.0589 70.2974C 12.747269103933286 69.81046594754919 12.476213699707634 69.35238052669061 12.24103288500386 68.92682468477254 C 12.152066568064207 68.76584016886696 12.068242516873495 68.6095227369965 11.989300174698418 68.45806547231204 A 0.375 0.375 0 0 0 11.5786 68.2752A 69.25 69.25 0 0 1 11.458 68.2955A 0.375 0.375 0 0 0 11.13 68.603C 11.105133246525014 68.77197905558221 11.07722325959894 68.94714367442512 11.04598645273616 69.12840393429524 C 10.96341130069431 69.60755853821823 10.857617043264558 70.12921058705729 10.722942614803818 70.69137731104831 A 71.5 71.5 0 0 1 9.91441 70.8093C 9.624778385639559 70.30901554174503 9.374398322320017 69.83931019915755 9.158408145362872 69.40370024328722 C 9.07670149893408 69.2389123680035 8.999924109608642 69.07901601547171 8.927807078062447 68.9241924701863 A 0.375 0.375 0 0 0 8.52568 68.7232A 69.25 69.25 0 0 1 8.40427 68.7381A 0.375 0.375 0 0 0 8.06293 69.0307C 8.030534003920836 69.19840757746078 7.994848691086048 69.37215500769352 7.955568319245683 69.5518438284344 C 7.8517303108973175 70.02684431076845 7.722803119487221 70.54326571260829 7.563219625283375 71.09887504984239 A 71.5 71.5 0 0 1 6.75023 71.1807C 6.483178560772991 70.66797309369464 6.253970944799003 70.187580385858 6.057600234091832 69.74278117928081 C 5.983315479157259 69.57451711569183 5.913737186096746 69.41135930190597 5.8485886468701 69.25347686383759 A 0.375 0.375 0 0 0 5.45581 69.0347A 69.25 69.25 0 0 1 5.33386 69.0443A 0.375 0.375 0 0 0 4.97982 69.3214C 4.939990879393448 69.48744906640351 4.896601090535387 69.65943434858617 4.849355141259764 69.83719497467702 C 4.724460437358755 70.30709826593258 4.57265628497279 70.81726371388206 4.388480563281832 71.36521255344981 A 71.5 71.5 0 0 1 3.57266 71.4107C 3.328706984985552 70.88662592640537 3.121126886862168 70.39649962857368 2.9447655182741426 69.94339427894174 C 2.878050140338587 69.7719880997705 2.8158090848033996 69.60589275946722 2.7577583842905 69.44526488958238 A 0.375 0.375 0 0 0 2.37512 69.2093A 69.25 69.25 0 0 1 2.25286 69.2133A 0.375 0.375 0 0 0 1.88683 69.4744C 1.8396398602423063 69.638529657289 1.7886317417704007 69.80841133056353 1.7335140175185124 69.98389083473555 C 1.5878105849386528 70.44776398542416 1.4134308646697207 70.95066059320953 1.2050285793389528 71.48986103341052 A 71.5 71.5 0 0 1 0.38799 71.499C 0.16762656959917732 70.96453992491729 -0.01791387960330626 70.46565313748667 -0.17391575689963845 70.00514124353023 C -0.23292930062875428 69.83093325987937 -0.28770954478415767 69.66223015998234 -0.3385471522908704 69.49917577004824 A 0.375 0.375 0 0 0 -0.710295 69.2464A 69.25 69.25 0 0 1 -0.832618 69.245A 0.375 0.375 0 0 0 -1.20991 69.4895C -1.2643635935661677 69.65134939358876 -1.322888769754228 69.81879017361786 -1.3857688378428188 69.99164015755866 C -1.5519917184230927 70.44856219047777 -1.7486007917817523 70.94319150343462 -1.980815877305439 71.47257301170559 A 71.5 71.5 0 0 1 -2.79745 71.4453C -2.9937866528248676 70.90156039819847 -3.1569190797189997 70.3949036147062 -3.2922517384364873 69.92789948016369 C -3.3434462820306425 69.7512355658593 -3.3906569537021922 69.58025965075743 -3.4341805348387666 69.4151024701723 A 0.375 0.375 0 0 0 -3.7943 69.146A 69.25 69.25 0 0 1 -3.91644 69.1392A 0.375 0.375 0 0 0 -4.30424 69.3666C -4.365856770494677 69.525882822903 -4.431782808078919 69.69055027151698 -4.502300377449476 69.86042755758324 C -4.688712685887095 70.30949129633117 -4.907160763219329 70.7948712737437 -5.162727607378478 71.31338281210186 A 71.5 71.5 0 0 1 -5.97733 71.2497C -6.1492559889677985 70.6978123862695 -6.289656509220237 70.18439152686082 -6.4040512588919825 69.71182234521343 C -6.447325160323664 69.53305325010457 -6.486872527092784 69.36014397665103 -6.522995669817606 69.19321190970922 A 0.375 0.375 0 0 0 -6.87077 68.9083A 69.25 69.25 0 0 1 -6.99248 68.8961A 0.375 0.375 0 0 0 -7.39003 69.106C -7.458681942928301 69.26237904749408 -7.531877951863503 69.42394623271606 -7.609893016409462 69.59051354528086 C -7.816124648321166 70.03082741537169 -8.055978021189947 70.5059943802236 -8.334389219671872 71.01260649200528 A 71.5 71.5 0 0 1 -9.14535 70.9127C -9.29251654654685 70.35370041194827 -9.40990640792072 69.83453482621503 -9.503136128360133 69.35733883982985 C -9.53840347130367 69.1768194934072 -9.570209015534317 69.0023201569592 -9.598860000691227 68.83394463182765 A 0.375 0.375 0 0 0 -9.93359 68.5338A 69.25 69.25 0 0 1 -10.0546 68.5162A 0.375 0.375 0 0 0 -10.4611 68.7082C -10.536698592772655 68.86136122971703 -10.617019249158423 69.01950737485613 -10.702376917190541 69.18243400993855 C -10.928018418760878 69.61312380894059 -11.18880088049626 70.07713436120676 -11.489503673637339 70.57084121495824 A 71.5 71.5 0 0 1 -12.2952 70.4349C -12.417327672678944 69.86990767770729 -12.511473808470615 69.34602812086372 -12.583353400697515 68.86515275820035 C -12.610544165107994 68.68324156491654 -12.634544739836162 68.50749861775418 -12.655666683546189 68.33801392845248 A 0.375 0.375 0 0 0 -12.9767 68.0233A 69.25 69.25 0 0 1 -13.0968 68.0003A 0.375 0.375 0 0 0 -13.5115 68.174C -13.593795602884256 68.32362555332904 -13.68108143749217 68.47803667385278 -13.773612239261654 68.6369991557001 C -14.018215620175624 69.05720978888397 -14.299409411339001 69.50914267856372 -14.62180678157783 69.98896406502654 A 71.5 71.5 0 0 1 -15.4207 69.8173C -15.517485344119438 69.24739470923838 -15.588200835890877 68.719841295652 -15.638587589628388 68.23624129023108 C -15.657647790759968 68.05329941792189 -15.67379574506613 67.8766617813992 -15.68734671166518 67.7064044240897 A 0.375 0.375 0 0 0 -15.994 67.3777A 69.25 69.25 0 0 1 -16.113 67.3493A 0.375 0.375 0 0 0 -16.535 67.5044C -16.623903390127882 67.65023964274042 -16.71798110501289 67.80060916966197 -16.817501329177883 67.95529189298077 C -17.08058095206425 68.36418907103081 -17.381627788411805 68.80314702720457 -17.72507964561229 69.26813030543032 A 71.5 71.5 0 0 1 -18.5155 69.0611C -18.586834484775927 68.48739744841794 -18.633978933463954 67.95721758655876 -18.66277281047655 67.47185308142687 C -18.673664606064186 67.28824374424589 -18.681927879679794 67.11106211603982 -18.68788096497802 66.94037012094569 A 0.375 0.375 0 0 0 -18.9796 66.5983A 69.25 69.25 0 0 1 -19.0972 66.5647A 0.375 0.375 0 0 0 -19.5257 66.7008C -19.621005955972077 66.84254044334506 -19.72168876853952 66.9885698318876 -19.828000826906973 67.1386656884488 C -20.1090343715263 67.53543758386735 -20.42933655243068 67.96054909614502 -20.79316100472177 68.40977108487566 A 71.5 71.5 0 0 1 -21.5736 68.1677C -21.619281186042098 67.59142479945858 -21.642760990707743 67.05967111236654 -21.649904823417906 66.57350575382118 C -21.652606588809643 66.38959349111165 -21.652968775769818 66.21221964894431 -21.651312160467402 66.04143190922183 A 0.375 0.375 0 0 0 -21.9275 65.6867A 69.25 69.25 0 0 1 -22.0435 65.6479A 0.375 0.375 0 0 0 -22.4776 65.7648C -22.57915283069737 65.9021315671392 -22.68624084454254 66.04353088946887 -22.799133664361275 66.18874187784283 C -23.097563164624425 66.57260073675846 -23.43648475975403 66.98302178558261 -23.819959467362892 67.4155905961415 A 71.5 71.5 0 0 1 -24.5888 67.139C -24.608804805689218 66.56125563311967 -24.608573349353712 66.02898386851902 -24.59405295434286 65.54298289287797 C -24.5885593254336 65.35913284541381 -24.58101970664966 65.18191894863033 -24.571756679802945 65.0113745475278 A 0.375 0.375 0 0 0 -24.8319 64.6447A 69.25 69.25 0 0 1 -24.9461 64.6007A 0.375 0.375 0 0 0 -25.3849 64.6982C -25.492470887503064 64.83088010889811 -25.60575148928701 64.96736862974902 -25.725000932313137 65.10740644695966 C -26.040233884071284 65.47759015313967 -26.397101995971056 65.87250588550825 -26.79946560536184 66.28756269256247 A 71.5 71.5 0 0 1 -27.5552 65.977C -27.549469921293912 65.398935254924 -27.525527663492383 64.86720218913395 -27.489371869660737 64.38233050634793 C -27.475693753542174 64.19890769138041 -27.460267298229308 64.02220558176914 -27.443416250720674 63.85224311940863 A 0.375 0.375 0 0 0 -27.687 63.4744A 69.25 69.25 0 0 1 -27.7991 63.4254A 0.375 0.375 0 0 0 -28.2418 63.5031C -28.35517600305693 63.63091293923243 -28.474424284630558 63.762219673280356 -28.5997935921332 63.89680628720415 C -28.931204129539978 64.25257987516578 -29.305310229607024 64.63120622244728 -29.725763885077832 65.02792696912593 A 71.5 71.5 0 0 1 -30.4669 64.684C -30.435438114470067 64.10677134439294 -30.38783259033918 63.57663268419608 -30.330113181668654 63.09385296210943 C -30.308277734974226 62.91122154865923 -30.284995070931526 62.73538205190246 -30.26058945895599 62.566338973020535 A 0.375 0.375 0 0 0 -30.4871 62.178A 69.25 69.25 0 0 1 -30.5969 62.124A 0.375 0.375 0 0 0 -31.0427 62.182C -31.161584541336623 62.304612481883254 -31.286563746275025 62.4304767317621 -31.417804009098866 62.55934493313502 C -31.764734147209072 62.9000020473513 -32.15533548241062 63.26158728198054 -32.59304441214755 63.639184315963305 A 71.5 71.5 0 0 1 -33.3182 63.2626C -33.260979562508055 62.687329373362516 -33.1898052884094 62.15983765999666 -33.11063686144315 61.68010841305937 C -33.08068743643109 61.498630998892736 -33.049594789232856 61.32400322803481 -33.017683067873904 61.15621515201721 A 0.375 0.375 0 0 0 -33.2266 60.7582A 69.25 69.25 0 0 1 -33.3339 60.6994A 0.375 0.375 0 0 0 -33.7819 60.7374C -33.90612463796289 60.85461198364047 -34.03658663162327 60.97478385753265 -34.17343728437466 61.09767779046948 C -34.53519822551246 61.42254208777287 -34.94151929305324 61.76636831573641 -35.39561446649257 62.12409195306436 A 71.5 71.5 0 0 1 -36.1032 61.7155C -36.02048441440733 61.1434275124764 -35.92588270027392 60.61963003191151 -35.8254224365955 60.143903718137516 C -35.78741849507691 59.963940609861915 -35.7485775962961 59.79087127217757 -35.7092231233226 59.62467132671801 A 0.375 0.375 0 0 0 -35.9002 59.2177A 69.25 69.25 0 0 1 -36.0048 59.1542A 0.375 0.375 0 0 0 -36.454 59.1723C -36.58334726262064 59.28379028627487 -36.719033024790726 59.39803119404841 -36.86122236316612 59.51470686402091 C -37.23709586446906 59.82313335641999 -37.65832995148034 60.14851794256826 -38.12790980468825 60.485657956071954 A 71.5 71.5 0 0 1 -38.8166 60.046C -38.7084739287164 59.478131035969014 -38.590632597494896 58.95906773961774 -38.4690799516588 58.48828886956771 C -38.42309694694176 58.31019736727645 -38.37658491158761 58.139030075915606 -38.32986582166282 57.974748235621604 A 0.375 0.375 0 0 0 -38.5026 57.5597A 69.25 69.25 0 0 1 -38.6042 57.4916A 0.375 0.375 0 0 0 -39.0537 57.4896C -39.18793703760409 57.59526611086444 -39.32857717676277 57.70334923777158 -39.47582289699249 57.81357499603704 C -39.865062696416246 58.10495133128045 -40.30037348160955 58.41124825463671 -40.78450570725387 58.727135284026495 A 71.5 71.5 0 0 1 -41.453 58.2572C -41.319611351066705 57.69474623584731 -41.17876436581234 57.18144767583777 -41.036360669345434 56.71655093738084 C -40.98248989642942 56.540684625266785 -40.928399069842754 56.371759217042424 -40.87440811939522 56.20972164830124 A 0.375 0.375 0 0 0 -41.0284 55.7874A 69.25 69.25 0 0 1 -41.1269 55.7148A 0.375 0.375 0 0 0 -41.576 55.6928C -41.71472279100728 55.79239186586223 -41.860038079176526 55.89410262285916 -42.01204783851277 55.99765962637751 C -42.41388113646535 56.27140730372271 -42.862404350570934 56.558008440097815 -43.36012774893107 56.85201532091673 A 71.5 71.5 0 0 1 -44.007 56.3528C -43.84871250980455 55.79681385755398 -43.68513950916912 55.290299140663905 -43.522167491429215 54.83220754324138 C -43.460515905747336 54.65891558758829 -43.39895368025747 54.49256744826195 -43.33779806332165 54.33309586166741 A 0.375 0.375 0 0 0 -43.4729 53.9043A 69.25 69.25 0 0 1 -43.568 53.8274A 0.375 0.375 0 0 0 -44.0156 53.7855C -44.158687823607295 53.878746991199684 -44.30838975073346 53.97388344099318 -44.46486174786976 54.070566086919634 C -44.87849074153352 54.32614160569254 -45.33933588322709 54.59247793505927 -45.84966227056705 54.864020943860034 A 71.5 71.5 0 0 1 -46.4736 54.3365C -46.29075610868401 53.788102070145136 -46.104781851719245 53.289376834459674 -45.92156507856217 52.838999876535276 C -45.85225508363106 52.668626332480414 -45.783343685338224 52.50518573088484 -45.71514482073071 52.34859674251072 A 0.375 0.375 0 0 0 -45.831 51.9142A 69.25 69.25 0 0 1 -45.9226 51.8332A 0.375 0.375 0 0 0 -46.3679 51.7713C -46.51497986905601 51.858130851640084 -46.668771215819866 51.946504109615326 -46.82939479008965 52.036120443505766 C -47.253998257384985 52.273016382171065 -47.726250361295556 52.51855911840074 -48.24816653181135 52.76709913167457 A 71.5 71.5 0 0 1 -48.848 52.2123C -48.640893696185785 51.672598984939505 -48.432887417564295 51.182653403249915 -48.22978964893379 50.74088526658471 C -48.15295885333274 50.57376839502928 -48.07683509943951 50.41355982735014 -48.0017283896932 50.26016433013831 A 0.375 0.375 0 0 0 -48.0981 49.821A 69.25 69.25 0 0 1 -48.186 49.736A 0.375 0.375 0 0 0 -48.6281 49.6544C -48.778920727606014 49.734555193491374 -48.93649615552416 49.81598980272487 -49.10095240368873 49.89836189964364 C -49.5356873337345 50.116107923243234 -50.01840878702348 50.34036956396157 -50.550878524469404 50.565413128518095 A 71.5 71.5 0 0 1 -51.1254 49.9844C -50.894459291669015 49.45450473749244 -50.66483396860302 48.97431155139965 -50.44225843631909 48.542029325737 C -50.35805938048096 48.378500921760406 -50.274874407654345 48.22184246727922 -50.193008970189226 48.071945013790426 A 0.375 0.375 0 0 0 -50.2697 47.629A 69.25 69.25 0 0 1 -50.3538 47.5401A 0.375 0.375 0 0 0 -50.7918 47.4388C -50.94601555424295 47.51223617965531 -51.10706221188913 47.58657045926838 -51.275024621290555 47.66153477704177 C -51.71902788812413 47.859698571001324 -52.211260292028854 48.06223386547934 -52.75322642702894 48.26333417815214 A 71.5 71.5 0 0 1 -53.3013 47.6573C -53.0469786492438 47.13822314861572 -52.79619018155712 46.66873573724191 -52.554578788736535 46.24679767892692 C -52.46317864209287 46.08718241303834 -52.37309760639644 45.93438510261549 -52.28463597746077 45.788283300368455 A 0.375 0.375 0 0 0 -52.3415 45.3423A 69.25 69.25 0 0 1 -52.4215 45.2498A 0.375 0.375 0 0 0 -52.8546 45.1291C -53.01196178278434 45.195586018826276 -53.176159926926985 45.26267238498743 -53.34729502374874 45.330080088901546 C -53.799685099982725 45.50826821735107 -54.300451172628414 45.688675050509126 -54.850837681588395 45.865432845242125 A 71.5 71.5 0 0 1 -55.3714 45.2356C -55.09417814097229 44.72835298099884 -54.82272444595344 44.270503468141484 -54.56255688965203 43.85974729613249 C -54.46413711873359 43.70436206966766 -54.36733886772544 43.555729268219395 -54.27245667969507 43.41371318881867 A 0.375 0.375 0 0 0 -54.3094 42.9657A 69.25 69.25 0 0 1 -54.3852 42.8697A 0.375 0.375 0 0 0 -54.8125 42.7298C -54.97265766822654 42.78920420545918 -55.13968129864936 42.84890946439825 -55.313649309997714 42.9086267226965 C -55.77352801701096 43.06648540960084 -56.2818335337135 43.22440560037095 -56.839547675166045 43.37646994092418 A 71.5 71.5 0 0 1 -57.3315 42.7241C -57.03199324176153 42.229678808791384 -56.74041326559502 41.784376212277685 -56.462206084413566 41.38561744493281 C -56.35696209256535 41.23477076087573 -56.253638810212756 41.09059756507123 -56.15252444288933 40.95294916829682 A 0.375 0.375 0 0 0 -56.1695 40.5037A 69.25 69.25 0 0 1 -56.241 40.4044A 0.375 0.375 0 0 0 -56.6616 40.2457C -56.824210430379615 40.29786838789922 -56.993727937124845 40.35007400035116 -57.170183465616525 40.401982249944886 C -57.636637756804646 40.53919808149328 -58.15147352401163 40.67431809395447 -58.71540800815335 40.801387070655515 A 71.5 71.5 0 0 1 -59.1778 40.1277C -58.856576599101565 39.64716151827402 -58.545449246840136 39.21528994519018 -58.249754795384796 38.829320281131125 C -58.13789553481075 38.68331163160997 -58.02825235992679 38.54388428398418 -57.92110656652702 38.410876857986544 A 0.375 0.375 0 0 0 -57.9181 37.9613A 69.25 69.25 0 0 1 -57.985 37.8589A 0.375 0.375 0 0 0 -58.3982 37.6816C -58.562943982622194 37.72652488280319 -58.73461880437147 37.771127199356826 -58.91321151388814 37.81512338122133 C -59.385315287433066 37.93142392808155 -59.90565914638416 38.043475493956365 -60.474694333497034 38.145296823114045 A 71.5 71.5 0 0 1 -60.9067 37.4517C -60.56430567162784 36.9859284584779 -60.2342486578301 36.568345349856365 -59.92165401006346 36.19593109612406 C -59.80340156697128 36.05505036779725 -59.68765618593063 35.920645688442875 -59.574691694509426 35.79254330715458 A 0.375 0.375 0 0 0 -59.5516 35.3436A 69.25 69.25 0 0 1 -59.614 35.2383A 0.375 0.375 0 0 0 -60.0188 35.0428C -60.18540623043113 35.0802788546855 -60.35889752271685 35.11718932156993 -60.53927283396511 35.1531860853586 C -61.016088771524444 35.24834044356014 -61.54090762765302 35.33710109483653 -62.11391375104545 35.41347261962682 A 71.5 71.5 0 0 1 -62.5146 34.7013C -62.15178992134181 34.251263261307784 -61.80345854365712 33.848797689757376 -61.47458432731718 33.49067824038032 C -61.35017348098666 33.35520513889339 -61.228555695529465 33.226089975860205 -61.10999678662806 33.10314697470159 A 0.375 0.375 0 0 0 -61.0669 32.6556A 69.25 69.25 0 0 1 -61.1245 32.5477A 0.375 0.375 0 0 0 -61.5202 32.3343C -61.68837592519563 32.36438418008685 -61.86333923711608 32.39352951498667 -62.045139031611775 32.421455392457005 C -62.52572045927769 32.49527464182956 -63.053972333324445 32.56056815245049 -63.629811742378415 32.61133824428023 A 71.5 71.5 0 0 1 -63.9983 31.8821C -63.615877545210175 31.448595351380018 -63.24996338334584 31.062046375039067 -62.90546254774711 30.718932743034877 C -62.775140304397624 30.589136237690855 -62.64789157537943 30.465566937183596 -62.523973636737104 30.348027408103295 A 0.375 0.375 0 0 0 -62.461 29.9029A 69.25 69.25 0 0 1 -62.5138 29.7925A 0.375 0.375 0 0 0 -62.8996 29.5617C -63.068869059708234 29.584233016488515 -63.24495701780298 29.605555354039087 -63.42782034888232 29.625354900946334 C -63.911213116714904 29.67769248020331 -64.44184921348123 29.719389215947295 -65.01937863235231 29.744457075498644 A 71.5 71.5 0 0 1 -65.355 28.9995C -64.95366173277814 28.583489166402515 -64.57089127543192 28.213624242482876 -64.21144779509495 27.88619764820779 C -64.07547289747748 27.7623354379535 -63.94284586547106 27.644557335380203 -63.8138149246846 27.532654642233236 A 0.375 0.375 0 0 0 -63.7311 27.0908A 69.25 69.25 0 0 1 -63.7789 26.9781A 0.375 0.375 0 0 0 -64.154 26.7304C -64.32414479263491 26.74534509668273 -64.50100779056264 26.758802103356544 -64.6845716000084 26.77043600953304 C -65.1698159764121 26.80118800725542 -65.70178276704588 26.819205183113276 -66.27985556453153 26.818521040471488 A 71.5 71.5 0 0 1 -66.582 26.0593C -66.1624864373725 25.661633109498652 -65.76361963985654 25.309186570570446 -65.38994715653989 24.998097089219346 C -65.2485895702272 24.88041509100801 -65.11084755392804 24.76866202388928 -64.97695978998671 24.66261833911469 A 0.375 0.375 0 0 0 -64.8746 24.2248A 69.25 69.25 0 0 1 -64.9173 24.1102A 0.375 0.375 0 0 0 -65.2811 23.846C -65.45171089020175 23.85335676985436 -65.62899778285127 23.85892172801031 -65.81289762171127 23.862366895412222 C -66.29903019889308 23.871472256355073 -66.83127151257273 23.865774100891883 -67.4087399786425 23.83933931435885 A 71.5 71.5 0 0 1 -67.6768 23.0675C -67.23995164943639 22.688828255409618 -66.82578042485629 22.354499851451873 -66.4386208306868 22.060365122394174 C -66.29216120808182 21.949096982940084 -66.1495776815133 21.84359082664633 -66.01109891617918 21.743616690164355 A 0.375 0.375 0 0 0 -65.8894 21.3108A 69.25 69.25 0 0 1 -65.9269 21.1944A 0.375 0.375 0 0 0 -66.2785 20.9143C -66.44932867429455 20.914009811131113 -66.62668747495097 20.91167167205989 -66.81055822711774 20.906921260626252 C -67.29661383384425 20.89436190693825 -67.82807295470802 20.86495973331424 -68.40379057917558 20.8128267867117 A 71.5 71.5 0 0 1 -68.6372 20.0298C -68.18391816152622 19.670976832997244 -67.75526480851087 19.355430342109116 -67.35538677302556 19.078834342622958 C -67.20411589615206 18.97420097451753 -67.05697394570802 18.87515120175595 -66.91417911575144 18.78144510296054 A 0.375 0.375 0 0 0 -66.7733 18.3545A 69.25 69.25 0 0 1 -66.8056 18.2365A 0.375 0.375 0 0 0 -67.1444 17.941C -67.31501746714686 17.933140021820662 -67.49209604632858 17.92290342768096 -67.67557265344357 17.90996686891395 C -68.16058627129905 17.875767736029296 -68.6902080364567 17.822719919538606 -69.2630317852696 17.74499231800638 A 71.5 71.5 0 0 1 -69.4613 16.9523C -68.99251181550987 16.614070506915148 -68.55022738561365 16.317932417445924 -68.13842482963753 16.059424303285336 C -67.98264303281923 15.961633446395618 -67.83123479522216 15.869236711321555 -67.6844074065603 15.781984694998014 A 0.375 0.375 0 0 0 -67.5247 15.3618A 69.25 69.25 0 0 1 -67.5517 15.2424A 0.375 0.375 0 0 0 -67.877 14.9321C -68.04705852379243 14.916665642967283 -68.22350530837166 14.89855091756923 -68.40622349461486 14.877453895808818 C -68.88923217395607 14.821682882940225 -69.41596506841697 14.745094745112153 -69.98475765304504 14.641926809608279 A 71.5 71.5 0 0 1 -70.1475 13.8412C -69.6641272235344 13.524178481713088 -69.20908983155304 13.24803674842756 -68.78618035094274 13.00812976352457 C -68.62619692451737 12.917375572544964 -68.47082300680802 12.831815320323257 -68.32025457163007 12.751190617273565 A 0.375 0.375 0 0 0 -68.1419 12.3385A 69.25 69.25 0 0 1 -68.1636 12.2181A 0.375 0.375 0 0 0 -68.4748 11.8936C -68.64399844447425 11.870575605231986 -68.81946311569291 11.844618713686081 -69.00106011101872 11.815403115116135 C -69.48110488282224 11.73817095044725 -70.00390312718115 11.63819454994012 -70.56753526259757 11.509791110850859 A 71.5 71.5 0 0 1 -70.6945 10.7026C -70.19743095537483 10.407435451993042 -69.7305440359299 10.151838328741759 -69.29736727831278 9.931008786208038 C -69.13349985456475 9.847471445184127 -68.9744687372746 9.768917547775727 -68.82045819527136 9.695080230884816 A 0.375 0.375 0 0 0 -68.6239 9.29074A 69.25 69.25 0 0 1 -68.6402 9.1695A 0.375 0.375 0 0 0 -68.9366 8.83144C -69.1046520602352 8.800917638425261 -69.27878624923035 8.767170115736981 -69.45890150961397 8.72989394522414 C -69.93502928942044 8.63135396606896 -70.45285491615569 8.508187796771725 -71.01020756292786 8.354803787239803 A 71.5 71.5 0 0 1 -71.101 7.54278C -70.59136418583653 7.270029422541132 -70.11355469968944 7.035484373753111 -69.67097069742103 6.834170710204408 C -69.50354461995188 6.75801607479421 -69.34117204464374 6.686624493691128 -69.18402516949044 6.619721160116975 A 0.375 0.375 0 0 0 -68.9697 6.22453A 69.25 69.25 0 0 1 -68.9806 6.10269A 0.375 0.375 0 0 0 -69.2616 5.75177C -69.42810478596128 5.713786264299081 -69.60056276541933 5.672315113050907 -69.77883868868352 5.627052378981274 C -70.25010416885861 5.507400227347123 -70.76192908312053 5.361288824288117 -71.3118956691593 5.183228774066561 A 71.5 71.5 0 0 1 -71.3665 4.36796C -70.84514479695461 4.118189422616652 -70.35736139061198 3.905162115775742 -69.90624885326125 3.723764020856553 C -69.73559653105012 3.6551432890394686 -69.57020487344231 3.591055765617666 -69.41023366571336 3.5312192457362155 A 0.375 0.375 0 0 0 -69.1785 3.14597A 69.25 69.25 0 0 1 -69.184 3.02376A 0.375 0.375 0 0 0 -69.4491 2.66067C -69.6137144362058 2.61531069643834 -69.78415380677197 2.5661982537623214 -69.96023644257312 2.513038821104677 C -70.42570396912834 2.3725120552630905 -70.93051198992647 2.2037455091083737 -71.47200060748257 2.001362939944877 A 71.5 71.5 0 0 1 -71.4902 1.18448C -70.95826893081677 0.9581731387913055 -70.46148005308049 0.7670865198964936 -70.0027346228334 0.6059641427332756 C -69.8291948702697 0.5450135546204893 -69.66111250018902 0.4883573287254961 -69.49863456790973 0.4357064224082412 A 0.375 0.375 0 0 0 -69.25 0.0611652A 69.25 69.25 0 0 1 -69.25 -0.0611652A 0.375 0.375 0 0 0 -69.4986 -0.435706C -69.66111250018902 -0.4883573287254792 -69.8291948702697 -0.5450135546204724 -70.0027346228334 -0.6059641427332585 C -70.46148005308049 -0.7670865198964765 -70.95826893081677 -0.9581731387912884 -71.49020450436261 -1.1844764150390734 A 71.5 71.5 0 0 1 -71.472 -2.00136C -70.93051198992647 -2.203745509108357 -70.42570396912834 -2.3725120552630736 -69.96023644257312 -2.5130388211046597 C -69.78415380677197 -2.5661982537623045 -69.6137144362058 -2.615310696438323 -69.44905236427104 -2.6606714556904896 A 0.375 0.375 0 0 0 -69.184 -3.02376A 69.25 69.25 0 0 1 -69.1785 -3.14597A 0.375 0.375 0 0 0 -69.4102 -3.53122C -69.57020487344231 -3.5910557656176483 -69.73559653105012 -3.655143289039451 -69.90624885326125 -3.723764020856536 C -70.35736139061198 -3.9051621157757244 -70.84514479695461 -4.118189422616634 -71.36647121764724 -4.367964101741346 A 71.5 71.5 0 0 1 -71.3119 -5.18323C -70.76192908312053 -5.361288824288099 -70.25010416885861 -5.507400227347105 -69.77883868868352 -5.627052378981257 C -69.60056276541933 -5.672315113050889 -69.42810478596128 -5.713786264299063 -69.26158549567303 -5.751766816897437 A 0.375 0.375 0 0 0 -68.9806 -6.10269A 69.25 69.25 0 0 1 -68.9697 -6.22453A 0.375 0.375 0 0 0 -69.184 -6.61972C -69.34117204464374 -6.686624493691111 -69.50354461995188 -6.758016074794193 -69.67097069742103 -6.83417071020439 C -70.11355469968944 -7.035484373753094 -70.59136418583653 -7.270029422541114 -71.1010464083239 -7.5427796000375915 A 71.5 71.5 0 0 1 -71.0102 -8.3548C -70.45285491615569 -8.508187796771708 -69.93502928942044 -8.631353966068943 -69.45890150961397 -8.729893945224122 C -69.27878624923035 -8.767170115736963 -69.1046520602352 -8.800917638425243 -68.93660616023055 -8.831442577498287 A 0.375 0.375 0 0 0 -68.6402 -9.1695A 69.25 69.25 0 0 1 -68.6239 -9.29074A 0.375 0.375 0 0 0 -68.8205 -9.69508C -68.9744687372746 -9.768917547775713 -69.13349985456475 -9.847471445184112 -69.29736727831278 -9.931008786208023 C -69.7305440359299 -10.151838328741743 -70.19743095537483 -10.407435451993027 -70.69445705278264 -10.70261960763081 A 71.5 71.5 0 0 1 -70.5675 -11.5098C -70.00390312718115 -11.638194549940106 -69.48110488282224 -11.738170950447234 -69.00106011101872 -11.815403115116121 C -68.81946311569291 -11.844618713686067 -68.64399844447425 -11.870575605231972 -68.47475957433261 -11.89358432633868 A 0.375 0.375 0 0 0 -68.1636 -12.2181A 69.25 69.25 0 0 1 -68.1419 -12.3385A 0.375 0.375 0 0 0 -68.3203 -12.7512C -68.47082300680802 -12.83181532032324 -68.62619692451739 -12.917375572544948 -68.78618035094274 -13.008129763524554 C -69.20908983155306 -13.248036748427547 -69.6641272235344 -13.524178481713074 -70.14751039655317 -13.841210554674687 A 71.5 71.5 0 0 1 -69.9848 -14.6419C -69.41596506841697 -14.745094745112139 -68.88923217395609 -14.82168288294021 -68.40622349461486 -14.877453895808802 C -68.22350530837167 -14.898550917569214 -68.04705852379243 -14.916665642967267 -67.87696269162498 -14.93211246442167 A 0.375 0.375 0 0 0 -67.5517 -15.2424A 69.25 69.25 0 0 1 -67.5247 -15.3618A 0.375 0.375 0 0 0 -67.6844 -15.782C -67.83123479522214 -15.86923671132157 -67.98264303281921 -15.961633446395632 -68.13842482963753 -16.05942430328535 C -68.55022738561365 -16.317932417445938 -68.99251181550987 -16.614070506915162 -69.46129235159364 -16.952321059365627 A 71.5 71.5 0 0 1 -69.263 -17.745C -68.6902080364567 -17.82271991953862 -68.16058627129905 -17.87576773602931 -67.67557265344357 -17.909966868913965 C -67.49209604632857 -17.922903427680975 -67.31501746714684 -17.933140021820677 -67.14440238248352 -17.9409942753886 A 0.375 0.375 0 0 0 -66.8056 -18.2365A 69.25 69.25 0 0 1 -66.7733 -18.3545A 0.375 0.375 0 0 0 -66.9142 -18.7814C -67.05697394570802 -18.875151201755937 -67.20411589615206 -18.974200974517515 -67.35538677302556 -19.078834342622944 C -67.75526480851087 -19.3554303421091 -68.18391816152622 -19.67097683299723 -68.63716534031299 -20.029774299774612 A 71.5 71.5 0 0 1 -68.4038 -20.8128C -67.82807295470802 -20.864959733314226 -67.29661383384425 -20.894361906938233 -66.81055822711774 -20.906921260626238 C -66.62668747495097 -20.911671672059875 -66.44932867429455 -20.9140098111311 -66.27853307759307 -20.914255902919113 A 0.375 0.375 0 0 0 -65.9269 -21.1944A 69.25 69.25 0 0 1 -65.8894 -21.3108A 0.375 0.375 0 0 0 -66.0111 -21.7436C -66.14957768151332 -21.84359082664632 -66.29216120808184 -21.949096982940073 -66.4386208306868 -22.060365122394163 C -66.8257804248563 -22.354499851451862 -67.23995164943639 -22.688828255409607 -67.67676559060723 -23.067460277355494 A 71.5 71.5 0 0 1 -67.4087 -23.8393C -66.83127151257273 -23.865774100891873 -66.29903019889309 -23.871472256355062 -65.81289762171127 -23.86236689541221 C -65.62899778285129 -23.858921728010298 -65.45171089020177 -23.85335676985435 -65.28107388030978 -23.84599421126999 A 0.375 0.375 0 0 0 -64.9173 -24.1102A 69.25 69.25 0 0 1 -64.8746 -24.2248A 0.375 0.375 0 0 0 -64.977 -24.6626C -65.11084755392804 -24.768662023889267 -65.2485895702272 -24.880415091007993 -65.38994715653989 -24.99809708921933 C -65.76361963985654 -25.30918657057043 -66.1624864373725 -25.661633109498638 -66.58199988728065 -26.059347947781305 A 71.5 71.5 0 0 1 -66.2799 -26.8185C -65.70178276704588 -26.81920518311326 -65.1698159764121 -26.8011880072554 -64.6845716000084 -26.77043600953302 C -64.50100779056264 -26.758802103356526 -64.32414479263491 -26.745345096682716 -64.15400515354067 -26.730388505404527 A 0.375 0.375 0 0 0 -63.7789 -26.9781A 69.25 69.25 0 0 1 -63.7311 -27.0908A 0.375 0.375 0 0 0 -63.8138 -27.5327C -63.942845865471064 -27.64455733538019 -64.07547289747748 -27.76233543795348 -64.21144779509497 -27.886197648207773 C -64.57089127543193 -28.21362424248286 -64.95366173277816 -28.5834891664025 -65.35504178630079 -28.99949719502477 A 71.5 71.5 0 0 1 -65.0194 -29.7445C -64.44184921348125 -29.71938921594728 -63.91121311671492 -29.677692480203294 -63.42782034888233 -29.625354900946316 C -63.24495701780299 -29.60555535403907 -63.06886905970824 -29.5842330164885 -62.89956458791628 -29.561712087444032 A 0.375 0.375 0 0 0 -62.5138 -29.7925A 69.25 69.25 0 0 1 -62.461 -29.9029A 0.375 0.375 0 0 0 -62.524 -30.348C -62.64789157537943 -30.465566937183613 -62.775140304397624 -30.58913623769087 -62.90546254774711 -30.718932743034895 C -63.24996338334584 -31.062046375039085 -63.615877545210175 -31.448595351380032 -63.99832729940457 -31.88207062490861 A 71.5 71.5 0 0 1 -63.6298 -32.6113C -63.053972333324445 -32.56056815245051 -62.52572045927769 -32.49527464182958 -62.045139031611775 -32.42145539245703 C -61.86333923711608 -32.39352951498668 -61.68837592519563 -32.364384180086866 -61.520242759063116 -32.33434362649609 A 0.375 0.375 0 0 0 -61.1245 -32.5477A 69.25 69.25 0 0 1 -61.0669 -32.6556A 0.375 0.375 0 0 0 -61.11 -33.1031C -61.22855569552947 -33.2260899758602 -61.35017348098667 -33.355205138893375 -61.474584327317196 -33.490678240380305 C -61.80345854365713 -33.84879768975736 -62.151789921341816 -34.25126326130777 -62.51455005762225 -34.70134515471145 A 71.5 71.5 0 0 1 -62.1139 -35.4135C -61.54090762765303 -35.33710109483651 -61.01608877152445 -35.248340443560124 -60.53927283396512 -35.153186085358584 C -60.35889752271686 -35.11718932156992 -60.185406230431134 -35.080278854685496 -60.01877818279629 -35.04277831928689 A 0.375 0.375 0 0 0 -59.614 -35.2383A 69.25 69.25 0 0 1 -59.5516 -35.3436A 0.375 0.375 0 0 0 -59.5747 -35.7925C -59.687656185930635 -35.92064568844287 -59.80340156697129 -36.05505036779724 -59.92165401006347 -36.195931096124056 C -60.23424865783011 -36.56834534985636 -60.56430567162785 -36.98592845847789 -60.9066559633224 -37.45172337581887 A 71.5 71.5 0 0 1 -60.4747 -38.1453C -59.90565914638417 -38.04347549395636 -59.38531528743307 -37.93142392808154 -58.91321151388815 -37.815123381221326 C -58.73461880437148 -37.77112719935682 -58.5629439826222 -37.72652488280318 -58.39815187804977 -37.68163881943856 A 0.375 0.375 0 0 0 -57.985 -37.8589A 69.25 69.25 0 0 1 -57.9181 -37.9613A 0.375 0.375 0 0 0 -57.9211 -38.4109C -58.0282523599268 -38.543884283984156 -58.13789553481077 -38.68331163160995 -58.24975479538481 -38.82932028113111 C -58.54544924684015 -39.215289945190165 -58.85657659910158 -39.647161518274 -59.17783734139553 -40.127744666859925 A 71.5 71.5 0 0 1 -58.7154 -40.8014C -58.15147352401164 -40.67431809395445 -57.63663775680466 -40.53919808149327 -57.17018346561654 -40.40198224994487 C -56.99372793712486 -40.35007400035114 -56.82421043037963 -40.297868387899214 -56.66158144833937 -40.24568591369253 A 0.375 0.375 0 0 0 -56.241 -40.4044A 69.25 69.25 0 0 1 -56.1695 -40.5037A 0.375 0.375 0 0 0 -56.1525 -40.9529C -56.25363881021276 -41.09059756507122 -56.356962092565354 -41.234770760875726 -56.46220608441357 -41.3856174449328 C -56.74041326559503 -41.78437621227768 -57.03199324176154 -42.22967880879138 -57.33152660118839 -42.72409603526564 A 71.5 71.5 0 0 1 -56.8395 -43.3765C -56.28183353371351 -43.22440560037094 -55.77352801701097 -43.06648540960083 -55.31364930999772 -42.90862672269649 C -55.139681298649364 -42.84890946439824 -54.972657668226546 -42.78920420545917 -54.81251469350864 -42.729828923882735 A 0.375 0.375 0 0 0 -54.3852 -42.8697A 69.25 69.25 0 0 1 -54.3094 -42.9657A 0.375 0.375 0 0 0 -54.2725 -43.4137C -54.36733886772545 -43.55572926821937 -54.4641371187336 -43.704362069667646 -54.56255688965204 -43.859747296132475 C -54.822724445953455 -44.27050346814147 -55.09417814097231 -44.72835298099883 -55.37138942177304 -45.23562266572368 A 71.5 71.5 0 0 1 -54.8508 -45.8654C -54.300451172628435 -45.68867505050911 -53.79968509998274 -45.50826821735106 -53.34729502374876 -45.33008008890153 C -53.176159926927 -45.26267238498742 -53.011961782784354 -45.195586018826255 -52.854622764441565 -45.12913581400559 A 0.375 0.375 0 0 0 -52.4215 -45.2498A 69.25 69.25 0 0 1 -52.3415 -45.3423A 0.375 0.375 0 0 0 -52.2846 -45.7883C -52.37309760639645 -45.93438510261547 -52.46317864209288 -46.08718241303833 -52.55457878873654 -46.2467976789269 C -52.79619018155713 -46.668735737241896 -53.046978649243805 -47.13822314861571 -53.30131747408028 -47.657338154587244 A 71.5 71.5 0 0 1 -52.7532 -48.2633C -52.21126029202886 -48.06223386547933 -51.71902788812414 -47.85969857100131 -51.27502462129056 -47.66153477704176 C -51.10706221188914 -47.586570459268366 -50.946015554242955 -47.5122361796553 -50.7917928743322 -47.43884298232117 A 0.375 0.375 0 0 0 -50.3538 -47.5401A 69.25 69.25 0 0 1 -50.2697 -47.629A 0.375 0.375 0 0 0 -50.193 -48.0719C -50.27487440765436 -48.2218424672792 -50.358059380480974 -48.378500921760384 -50.4422584363191 -48.542029325736976 C -50.664833968603034 -48.97431155139963 -50.89445929166903 -49.45450473749243 -51.12542069434725 -49.984434409917874 A 71.5 71.5 0 0 1 -50.5509 -50.5654C -50.018408787023496 -50.34036956396156 -49.535687333734515 -50.11610792324321 -49.100952403688744 -49.89836189964363 C -48.936496155524175 -49.81598980272485 -48.77892072760603 -49.73455519349136 -48.62812058098275 -49.65436471904345 A 0.375 0.375 0 0 0 -48.186 -49.736A 69.25 69.25 0 0 1 -48.0981 -49.821A 0.375 0.375 0 0 0 -48.0017 -50.2602C -48.076835099439535 -50.41355982735013 -48.15295885333276 -50.57376839502927 -48.22978964893382 -50.7408852665847 C -48.43288741756432 -51.1826534032499 -48.640893696185806 -51.672598984939484 -48.84801912421957 -52.21229119750686 A 71.5 71.5 0 0 1 -48.2482 -52.7671C -47.72625036129558 -52.51855911840072 -47.25399825738501 -52.27301638217105 -46.82939479008968 -52.03612044350575 C -46.66877121581989 -51.94650410961531 -46.514979869056035 -51.85813085164007 -46.367901655452634 -51.77130231084263 A 0.375 0.375 0 0 0 -45.9226 -51.8332A 69.25 69.25 0 0 1 -45.831 -51.9142A 0.375 0.375 0 0 0 -45.7151 -52.3486C -45.783343685338245 -52.50518573088482 -45.85225508363108 -52.6686263324804 -45.921565078562196 -52.838999876535254 C -46.10478185171927 -53.28937683445966 -46.29075610868403 -53.78810207014512 -46.47363433370842 -54.336485313922644 A 71.5 71.5 0 0 1 -45.8497 -54.864C -45.339335883227115 -54.59247793505926 -44.87849074153354 -54.32614160569253 -44.46486174786979 -54.07056608691961 C -44.30838975073348 -53.97388344099316 -44.158687823607316 -53.87874699119966 -44.01562355320269 -53.78545277408321 A 0.375 0.375 0 0 0 -43.568 -53.8274A 69.25 69.25 0 0 1 -43.4729 -53.9043A 0.375 0.375 0 0 0 -43.3378 -54.3331C -43.39895368025751 -54.49256744826192 -43.46051590574738 -54.658915587588254 -43.52216749142926 -54.832207543241346 C -43.685139509169154 -55.29029914066387 -43.84871250980459 -55.79681385755394 -44.00698044403182 -56.352799368371876 A 71.5 71.5 0 0 1 -43.3601 -56.852C -42.862404350570976 -56.55800844009778 -42.413881136465385 -56.271407303722675 -42.012047838512814 -55.99765962637748 C -41.86003807917657 -55.89410262285912 -41.714722791007325 -55.7923918658622 -41.575956504667694 -55.69281719945909 A 0.375 0.375 0 0 0 -41.1269 -55.7148A 69.25 69.25 0 0 1 -41.0284 -55.7874A 0.375 0.375 0 0 0 -40.8744 -56.2097C -40.92839906984275 -56.371759217042424 -40.98248989642941 -56.540684625266785 -41.03636066934543 -56.71655093738084 C -41.178764365812334 -57.18144767583777 -41.3196113510667 -57.69474623584731 -41.452954768163345 -58.25723015593838 A 71.5 71.5 0 0 1 -40.7845 -58.7271C -40.30037348160954 -58.41124825463671 -39.86506269641624 -58.10495133128045 -39.47582289699248 -57.81357499603704 C -39.328577176762764 -57.70334923777158 -39.18793703760408 -57.59526611086444 -39.053744242946166 -57.48960869145776 A 0.375 0.375 0 0 0 -38.6042 -57.4916A 69.25 69.25 0 0 1 -38.5026 -57.5597A 0.375 0.375 0 0 0 -38.3299 -57.9747C -38.37658491158762 -58.139030075915585 -38.423096946941776 -58.31019736727644 -38.46907995165881 -58.4882888695677 C -38.59063259749491 -58.95906773961772 -38.708473928716415 -59.478131035969 -38.81662808767068 -60.04599660557586 A 71.5 71.5 0 0 1 -38.1279 -60.4857C -37.658329951480354 -60.14851794256825 -37.237095864469076 -59.82313335641997 -36.861222363166135 -59.514706864020894 C -36.71903302479074 -59.39803119404839 -36.583347262620656 -59.283790286274865 -36.45399438701677 -59.172259886890714 A 0.375 0.375 0 0 0 -36.0048 -59.1542A 69.25 69.25 0 0 1 -35.9002 -59.2177A 0.375 0.375 0 0 0 -35.7092 -59.6247C -35.74857759629614 -59.79087127217754 -35.787418495076956 -59.96394060986188 -35.825422436595545 -60.14390371813748 C -35.92588270027396 -60.61963003191148 -36.02048441440737 -61.14342751247637 -36.10323458514788 -61.715547287074706 A 71.5 71.5 0 0 1 -35.3956 -62.1241C -34.94151929305328 -61.76636831573638 -34.5351982255125 -61.42254208777285 -34.1734372843747 -61.09767779046945 C -34.036586631623315 -60.974783857532614 -33.90612463796294 -60.85461198364044 -33.78186849957412 -60.737430037563065 A 0.375 0.375 0 0 0 -33.3339 -60.6994A 69.25 69.25 0 0 1 -33.2266 -60.7582A 0.375 0.375 0 0 0 -33.0177 -61.1562C -33.04959478923285 -61.32400322803482 -33.08068743643108 -61.49863099889274 -33.11063686144313 -61.68010841305938 C -33.189805288409396 -62.15983765999667 -33.260979562508055 -62.68732937336252 -33.31816145223051 -63.262567462097785 A 71.5 71.5 0 0 1 -32.593 -63.6392C -32.15533548241061 -63.261587281980546 -31.764734147209065 -62.90000204735131 -31.41780400909885 -62.55934493313503 C -31.28656374627501 -62.430476731762106 -31.161584541336616 -62.30461248188326 -31.042671839223942 -62.18201164301971 A 0.375 0.375 0 0 0 -30.5969 -62.124A 69.25 69.25 0 0 1 -30.4871 -62.178A 0.375 0.375 0 0 0 -30.2606 -62.5663C -30.284995070931537 -62.735382051902455 -30.308277734974236 -62.91122154865922 -30.330113181668665 -63.09385296210942 C -30.38783259033919 -63.57663268419607 -30.435438114470074 -64.10677134439294 -30.466938193825467 -64.68398566528651 A 71.5 71.5 0 0 1 -29.7258 -65.0279C -29.305310229607038 -64.63120622244728 -28.93120412953999 -64.25257987516576 -28.59979359213321 -63.89680628720414 C -28.47442428463057 -63.76221967328035 -28.35517600305694 -63.630912939232424 -28.241842827383376 -63.5031366201998 A 0.375 0.375 0 0 0 -27.7991 -63.4254A 69.25 69.25 0 0 1 -27.687 -63.4744A 0.375 0.375 0 0 0 -27.4434 -63.8522C -27.460267298229336 -64.02220558176911 -27.4756937535422 -64.1989076913804 -27.489371869660765 -64.38233050634791 C -27.52552766349241 -64.86720218913393 -27.549469921293937 -65.39893525492398 -27.55522564979048 -65.97697980237123 A 71.5 71.5 0 0 1 -26.7995 -66.2876C -26.397101995971088 -65.87250588550823 -26.040233884071313 -65.47759015313966 -25.725000932313165 -65.10740644695964 C -25.605751489287034 -64.967368629749 -25.492470887503092 -64.83088010889809 -25.384942250798318 -64.6981819977503 A 0.375 0.375 0 0 0 -24.9461 -64.6007A 69.25 69.25 0 0 1 -24.8319 -64.6447A 0.375 0.375 0 0 0 -24.5718 -65.0114C -24.581019706649645 -65.18191894863033 -24.588559325433586 -65.35913284541382 -24.594052954342846 -65.54298289287797 C -24.608573349353698 -66.02898386851903 -24.608804805689203 -66.56125563311967 -24.588804755860735 -67.138982753178 A 71.5 71.5 0 0 1 -23.82 -67.4156C -23.436484759754016 -66.98302178558261 -23.09756316462441 -66.57260073675847 -22.79913366436126 -66.18874187784283 C -22.686240844542525 -66.04353088946888 -22.579152830697357 -65.9021315671392 -22.477642221116227 -65.76477512369277 A 0.375 0.375 0 0 0 -22.0435 -65.6479A 69.25 69.25 0 0 1 -21.9275 -65.6867A 0.375 0.375 0 0 0 -21.6513 -66.0414C -21.652968775769832 -66.21221964894431 -21.652606588809657 -66.38959349111165 -21.64990482341792 -66.57350575382118 C -21.642760990707757 -67.05967111236654 -21.619281186042116 -67.59142479945858 -21.573565066136283 -68.16768746840806 A 71.5 71.5 0 0 1 -20.7932 -68.4098C -20.429336552430698 -67.96054909614502 -20.109034371526313 -67.53543758386735 -19.828000826906987 -67.1386656884488 C -19.721688768539533 -66.9885698318876 -19.62100595597209 -66.84254044334506 -19.52571491343366 -66.70079837610417 A 0.375 0.375 0 0 0 -19.0972 -66.5647A 69.25 69.25 0 0 1 -18.9796 -66.5983A 0.375 0.375 0 0 0 -18.6879 -66.9404C -18.681927879679826 -67.1110621160398 -18.673664606064218 -67.28824374424586 -18.662772810476582 -67.47185308142686 C -18.633978933463986 -67.95721758655874 -18.586834484775956 -68.48739744841791 -18.51549305991715 -69.06105155007077 A 71.5 71.5 0 0 1 -17.7251 -69.2681C -17.381627788411834 -68.80314702720455 -17.08058095206428 -68.3641890710308 -16.817501329177915 -67.95529189298075 C -16.71798110501292 -67.80060916966197 -16.623903390127914 -67.6502396427404 -16.53502110617658 -67.50439336745929 A 0.375 0.375 0 0 0 -16.113 -67.3493A 69.25 69.25 0 0 1 -15.994 -67.3777A 0.375 0.375 0 0 0 -15.6873 -67.7064C -15.67379574506612 -67.8766617813992 -15.657647790759956 -68.05329941792189 -15.638587589628374 -68.23624129023108 C -15.588200835890863 -68.719841295652 -15.517485344119425 -69.24739470923838 -15.420660256103021 -69.81730130647573 A 71.5 71.5 0 0 1 -14.6218 -69.989C -14.299409411338988 -69.50914267856372 -14.01821562017561 -69.05720978888397 -13.77361223926164 -68.6369991557001 C -13.681081437492157 -68.47803667385278 -13.593795602884242 -68.32362555332904 -13.51149854506746 -68.17396463428707 A 0.375 0.375 0 0 0 -13.0968 -68.0003A 69.25 69.25 0 0 1 -12.9767 -68.0233A 0.375 0.375 0 0 0 -12.6557 -68.338C -12.634544739836164 -68.50749861775418 -12.610544165107996 -68.68324156491654 -12.583353400697517 -68.86515275820035 C -12.511473808470619 -69.34602812086372 -12.417327672678946 -69.86990767770729 -12.295211158754647 -70.43493527373336 A 71.5 71.5 0 0 1 -11.4895 -70.5708C -11.188800880496261 -70.07713436120676 -10.928018418760878 -69.61312380894059 -10.702376917190543 -69.18243400993855 C -10.617019249158425 -69.01950737485613 -10.536698592772657 -68.86136122971703 -10.46115015428094 -68.70818280481572 A 0.375 0.375 0 0 0 -10.0546 -68.5162A 69.25 69.25 0 0 1 -9.93359 -68.5338A 0.375 0.375 0 0 0 -9.59886 -68.8339C -9.570209015534335 -69.0023201569592 -9.538403471303688 -69.1768194934072 -9.50313612836015 -69.35733883982985 C -9.409906407920738 -69.83453482621503 -9.292516546546866 -70.35370041194827 -9.145351057749426 -70.91272719677262 A 71.5 71.5 0 0 1 -8.33439 -71.0126C -8.055978021189963 -70.5059943802236 -7.816124648321184 -70.03082741537169 -7.60989301640948 -69.59051354528086 C -7.531877951863521 -69.42394623271606 -7.458681942928319 -69.26237904749408 -7.390032118193197 -69.1059872383172 A 0.375 0.375 0 0 0 -6.99248 -68.8961A 69.25 69.25 0 0 1 -6.87077 -68.9083A 0.375 0.375 0 0 0 -6.523 -69.1932C -6.486872527092831 -69.36014397665103 -6.447325160323711 -69.53305325010456 -6.40405125889203 -69.71182234521342 C -6.2896565092202845 -70.18439152686081 -6.149255988967847 -70.69781238626949 -5.9773337087529885 -71.24972846395681 A 71.5 71.5 0 0 1 -5.16273 -71.3134C -4.907160763219378 -70.79487127374368 -4.688712685887143 -70.30949129633116 -4.502300377449524 -69.86042755758322 C -4.431782808078966 -69.69055027151697 -4.365856770494724 -69.525882822903 -4.304241857388681 -69.36658813091134 A 0.375 0.375 0 0 0 -3.91644 -69.1392A 69.25 69.25 0 0 1 -3.7943 -69.146A 0.375 0.375 0 0 0 -3.43418 -69.4151C -3.390656953702194 -69.58025965075743 -3.3434462820306443 -69.7512355658593 -3.2922517384364887 -69.92789948016369 C -3.1569190797190014 -70.3949036147062 -2.993786652824869 -70.90156039819847 -2.7974489169660752 -71.4452699904643 A 71.5 71.5 0 0 1 -1.98082 -71.4726C -1.7486007917817536 -70.94319150343462 -1.5519917184230945 -70.44856219047777 -1.3857688378428201 -69.99164015755866 C -1.3228887697542293 -69.81879017361786 -1.2643635935661695 -69.65134939358876 -1.2099059227958289 -69.48946808364825 A 0.375 0.375 0 0 0 -0.832618 -69.245A 69.25 69.25 0 0 1 -0.710295 -69.2464A 0.375 0.375 0 0 0 -0.338547 -69.4992C -0.28770954478417465 -69.66223015998234 -0.23292930062877126 -69.83093325987937 -0.17391575689965555 -70.00514124353023 C -0.017913879603323468 -70.46565313748667 0.1676265695991599 -70.96453992491729 0.3879899507012261 -71.49896354669436 A 71.5 71.5 0 0 1 1.20503 -71.4899C 1.4134308646697034 -70.95066059320953 1.5878105849386355 -70.44776398542416 1.7335140175184955 -69.98389083473555 C 1.7886317417703839 -69.80841133056353 1.8396398602422894 -69.638529657289 1.886832168012455 -69.4743831297561 A 0.375 0.375 0 0 0 2.25286 -69.2133A 69.25 69.25 0 0 1 2.37512 -69.2093A 0.375 0.375 0 0 0 2.75776 -69.4453C 2.815809084803352 -69.60589275946722 2.878050140338539 -69.7719880997705 2.9447655182740946 -69.94339427894174 C 3.1211268868621196 -70.39649962857368 3.3287069849855033 -70.88662592640537 3.572658500235468 -71.4107025290612 A 71.5 71.5 0 0 1 4.38848 -71.3652C 4.572656284972741 -70.81726371388206 4.724460437358706 -70.30709826593258 4.849355141259716 -69.83719497467702 C 4.896601090535339 -69.65943434858617 4.939990879393401 -69.48744906640351 4.9798241282046405 -69.3213632190145 A 0.375 0.375 0 0 0 5.33386 -69.0443A 69.25 69.25 0 0 1 5.45581 -69.0347A 0.375 0.375 0 0 0 5.84859 -69.2535C 5.913737186096745 -69.41135930190597 5.983315479157258 -69.57451711569183 6.057600234091831 -69.74278117928081 C 6.253970944799002 -70.187580385858 6.48317856077299 -70.66797309369464 6.750233867018551 -71.18066217164552 A 71.5 71.5 0 0 1 7.56322 -71.0989C 7.72280311948722 -70.54326571260829 7.851730310897317 -70.02684431076845 7.955568319245682 -69.5518438284344 C 7.994848691086047 -69.37215500769352 8.030534003920835 -69.19840757746078 8.062929108544775 -69.03071215829203 A 0.375 0.375 0 0 0 8.40427 -68.7381A 69.25 69.25 0 0 1 8.52568 -68.7232A 0.375 0.375 0 0 0 8.92781 -68.9242C 8.999924109608624 -69.07901601547171 9.076701498934064 -69.2389123680035 9.158408145362854 -69.40370024328722 C 9.374398322320001 -69.83931019915755 9.62477838563954 -70.30901554174503 9.914407269289962 -70.80929919828344 A 71.5 71.5 0 0 1 10.7229 -70.6914C 10.85761704326454 -70.12921058705729 10.963411300694293 -69.60755853821823 11.045986452736143 -69.12840393429524 C 11.077223259598924 -68.94714367442512 11.105133246524996 -68.77197905558221 11.130025889480041 -68.60300700836582 A 0.375 0.375 0 0 0 11.458 -68.2955A 69.25 69.25 0 0 1 11.5786 -68.2752A 0.375 0.375 0 0 0 11.9893 -68.4581C 12.068242516873463 -68.6095227369965 12.152066568064175 -68.76584016886696 12.241032885003825 -68.92682468477254 C 12.4762136997076 -69.35238052669061 12.747269103933254 -69.81046594754919 13.058896533649369 -70.29735091578354 A 71.5 71.5 0 0 1 13.8614 -70.1435C 13.970874173431282 -69.5759204053541 14.053325452175343 -69.05007340137234 14.114473802589817 -68.56771599297385 C 14.137605026686405 -68.38524416944222 14.157684275008192 -68.20901013512582 14.175025034255926 -68.03909693822077 A 0.375 0.375 0 0 0 14.489 -67.7173A 69.25 69.25 0 0 1 14.6086 -67.6916A 0.375 0.375 0 0 0 15.027 -67.856C 15.112600545710754 -68.00381160192636 15.203304833872222 -68.15623975934396 15.299354186935567 -68.31310129601651 C 15.553258709647745 -68.72775812224953 15.844451299364504 -69.1733141351785 16.177458567730223 -69.64583375007255 A 71.5 71.5 0 0 1 16.9723 -69.4564C 17.05639342613234 -68.88449367393947 17.11533802680882 -68.35549573536673 17.154938171206332 -67.87089319847799 C 17.16991788763241 -67.68757209220006 17.18212653186099 -67.51061853877233 17.191880978929063 -67.34010153910316 A 0.375 0.375 0 0 0 17.4912 -67.0046A 69.25 69.25 0 0 1 17.6095 -66.9736A 0.375 0.375 0 0 0 18.0348 -67.1193C 18.126953905053302 -67.26308519365273 18.22435834521737 -67.4113214446203 18.32730003730465 -67.56374856799856 C 18.599424164097904 -67.96668311580049 18.910175803372955 -68.3988251105788 19.26390175528155 -68.85604122817571 A 71.5 71.5 0 0 1 20.0495 -68.6314C 20.1080487885006 -68.05630315658718 20.143369682061028 -67.52520455986411 20.16134299802044 -67.03931902796513 C 20.16814146593563 -66.85551260602843 20.172455266937977 -66.67819085839011 20.17460403527465 -66.50740860167583 A 0.375 0.375 0 0 0 20.4587 -66.1589A 69.25 69.25 0 0 1 20.5755 -66.1227A 0.375 0.375 0 0 0 21.0069 -66.2492C 21.105317875327994 -66.3888141558943 21.209229079994905 -66.53256419105698 21.318858729905212 -66.6802542711968 C 21.60866218351481 -67.07066655132036 21.938355903732905 -67.48853655001837 22.3120982490493 -67.92954141003855 A 71.5 71.5 0 0 1 23.0869 -67.6701C 23.11978148128879 -67.09299314890843 23.13140854136845 -66.56084834113801 23.127719344534615 -66.07464449497671 C 23.126323066210176 -65.89071768801806 23.1227334593337 -65.71337980208537 23.117272282758336 -65.54267136068836 A 0.375 0.375 0 0 0 23.3855 -65.1819A 69.25 69.25 0 0 1 23.5006 -65.1405A 0.375 0.375 0 0 0 23.9372 -65.2477C 24.0417791905624 -65.38273427287018 24.151990853653764 -65.52171268983928 24.26809080186501 -65.66437250175737 C 24.574998204359286 -66.04148738675867 24.92297942915684 -66.44425574717384 25.31599613704964 -66.86817377528911 A 71.5 71.5 0 0 1 26.0785 -66.5745C 26.08561198801467 -65.99647621375526 26.073522130162036 -65.46434171919564 26.048177745093778 -64.97878487150338 C 26.03858949271107 -64.79510284917292 26.027103604787953 -64.61810091290323 26.01404332596114 -64.44780521263236 A 0.375 0.375 0 0 0 26.266 -64.0754A 69.25 69.25 0 0 1 26.3791 -64.0289A 0.375 0.375 0 0 0 26.82 -64.1166C 26.930507778626787 -64.24684302306095 27.046801085087207 -64.38077389305401 27.169140825898943 -64.51812019889906 C 27.492542841038944 -64.88118896208135 27.85812068590479 -65.26805602491606 28.269631458079836 -65.67404557112128 A 71.5 71.5 0 0 1 29.0183 -65.3467C 28.999651926737346 -64.768929384004 28.963869154246094 -64.23786170643743 28.916919899873974 -63.75391588539003 C 28.899158710020576 -63.570843331340676 28.879799345218107 -63.39452876569438 28.859165894114536 -63.224983912899205 A 0.375 0.375 0 0 0 29.0942 -62.8418A 69.25 69.25 0 0 1 29.2052 -62.7903A 0.375 0.375 0 0 0 29.6496 -62.8582C 29.765768336303037 -62.983395613399985 29.88791239653716 -63.112013029071896 30.016249035718307 -63.243773140467006 C 30.35550357873849 -63.592074942408225 30.737952222701146 -63.96227261891935 31.167140042611525 -64.34952762855073 A 71.5 71.5 0 0 1 31.9005 -63.9892C 31.856115740894907 -63.41278984025798 31.796711097147604 -62.8838433654003 31.72825018687035 -62.40246940062931 C 31.70235132274466 -62.220369788471125 31.675156917289666 -62.04509264969784 31.646991259716582 -61.87663525998977 A 0.375 0.375 0 0 0 31.8648 -61.4833A 69.25 69.25 0 0 1 31.9733 -61.4269A 0.375 0.375 0 0 0 32.4203 -61.475C 32.541931716198135 -61.59490050176889 32.66968402448056 -61.71794910514622 32.803762761513426 -61.843861424586514 C 33.15819627392152 -62.17670474429926 33.55675640059952 -62.52949804126722 34.002769155556315 -62.897249655349164 A 71.5 71.5 0 0 1 34.7193 -62.5046C 34.64933218599125 -61.930750072051026 34.5664236134093 -61.40497497416645 34.47658697002723 -60.92712858912082 C 34.44260185142666 -60.7463634607778 34.40762639729394 -60.572471745412145 34.37198445355731 -60.40543627534529 A 0.375 0.375 0 0 0 34.572 -60.0028A 69.25 69.25 0 0 1 34.678 -59.9417A 0.375 0.375 0 0 0 35.1266 -59.9697C 35.2534861028951 -60.08411441668667 35.386593018843044 -60.20134990615732 35.52614765280617 -60.321164446387556 C 35.895056439671215 -60.63788845426997 36.30893674482552 -60.97257693325973 36.770888917788675 -61.32009501500318 A 71.5 71.5 0 0 1 37.4692 -60.8959C 37.373755589326954 -60.32575253215886 37.26750769520684 -59.80419268903617 37.15647368105971 -59.33082260348185 C 37.11446978229142 -59.15175085138391 37.07178272000767 -58.97958980533057 37.02873525388761 -58.81430788836919 A 0.375 0.375 0 0 0 37.2106 -58.4032A 69.25 69.25 0 0 1 37.3137 -58.3374A 0.375 0.375 0 0 0 37.7632 -58.3454C 37.8950479561526 -58.45403688408019 38.03324520830542 -58.56522649943167 38.177998666390856 -58.678705379772765 C 38.56065029346435 -58.97868124962457 38.98902905605967 -59.29460041764134 39.466003483750086 -59.621195002062805 A 71.5 71.5 0 0 1 40.1448 -59.1663C 40.02397686041936 -58.60098379463124 39.89460059012008 -58.08467471506111 39.76258965296518 -57.61672076148574 C 39.712650368882116 -57.439697916021 39.662336449658206 -57.26960934910091 39.61196892791404 -57.10640913719194 A 0.375 0.375 0 0 0 39.7754 -56.6876A 69.25 69.25 0 0 1 39.8754 -56.6172A 0.375 0.375 0 0 0 40.3249 -56.6053C 40.461372699425645 -56.70790427200326 40.604385909931324 -56.81282725654647 40.754050797547066 -56.91974517518563 C 41.14968554544336 -57.20237733268432 41.5917122590992 -57.498899961462875 42.08276195294154 -57.80392262524602 A 71.5 71.5 0 0 1 42.7406 -57.3192C 42.59473423025091 -56.759868228144335 42.4424864483815 -56.249834996012396 42.289760683715045 -55.78822625367493 C 42.231985164143154 -55.61360377731704 42.17414428160841 -55.445925384635686 42.11655670429232 -55.285130896693325 A 0.375 0.375 0 0 0 42.2611 -54.8594A 69.25 69.25 0 0 1 42.358 -54.7847A 0.375 0.375 0 0 0 42.8064 -54.7527C 42.94736513248666 -54.849183365127516 43.09491036185368 -54.9476314039888 43.249189533219 -55.047776085295354 C 43.65702190576786 -55.31250339045389 44.111818967360165 -55.58904076176223 44.61596899364105 -55.871885910642334 A 71.5 71.5 0 0 1 45.2515 -55.3584C 45.08092369802431 -54.806061197233724 44.90610667846296 -54.30331643631144 44.732969309153724 -53.84896938664126 C 44.667472262039155 -53.677093976153195 44.60221925391186 -53.512158667638204 44.537525955828045 -53.35408914623442 A 0.375 0.375 0 0 0 44.663 -52.9224A 69.25 69.25 0 0 1 44.7564 -52.8434A 0.375 0.375 0 0 0 45.203 -52.7915C 45.348089547474274 -52.88156448176213 45.499873858307154 -52.9733421154731 45.65846100640809 -53.066514731452145 C 46.077681290184564 -53.31281159271046 46.54434574224557 -53.56881466719536 47.06059515775415 -53.82892073831073 A 71.5 71.5 0 0 1 47.6727 -53.2876C 47.47760916468401 -52.74344180490623 47.28056999044123 -52.24898366838016 47.087364764709605 -51.802800375388 C 47.014276228376715 -51.63401327348777 46.94174064846439 -51.47214851292704 46.8700700721679 -51.31711779046498 A 0.375 0.375 0 0 0 46.9762 -50.8803A 69.25 69.25 0 0 1 47.066 -50.7972A 0.375 0.375 0 0 0 47.5098 -50.7254C 47.65877952828414 -50.80895414706857 47.81450156688356 -50.89387915963283 47.97708183161705 -50.97989472467981 C 48.40685770355258 -51.20727214241821 48.88446302700923 -51.44223264967204 49.41178686631734 -51.679083226495045 A 71.5 71.5 0 0 1 49.9991 -51.111C 49.7800322330837 -50.57610519104022 49.56116210720112 -50.09091537977121 49.34827261613889 -49.65378169908463 C 49.267737701111166 -49.48841801693936 49.18806356209352 -49.32994517183209 49.109558002879446 -49.17826104746085 A 0.375 0.375 0 0 0 49.1961 -48.7371A 69.25 69.25 0 0 1 49.2821 -48.6501A 0.375 0.375 0 0 0 49.7223 -48.5587C 49.874847413847036 -48.63546733701639 50.03419800851966 -48.71337111768253 50.20044860181924 -48.79205885585502 C 50.63992678170206 -49.00006539325762 51.12752473539388 -49.21351684094223 51.664876045829985 -49.42664167857651 A 71.5 71.5 0 0 1 52.2263 -48.833C 51.983621655343526 -48.30835440186425 51.74335512419651 -47.833396215311275 51.511204040182186 -47.406180035390264 C 51.42338264107875 -47.244568087284065 51.336728128583815 -47.089801790795256 51.25154345197315 -46.941765419303245 A 0.375 0.375 0 0 0 51.3184 -46.4972A 69.25 69.25 0 0 1 51.4004 -46.4065A 0.375 0.375 0 0 0 51.8361 -46.2955C 51.99189340650509 -46.365419308479524 52.1545561813954 -46.436147186502154 52.32414702809695 -46.507350870579685 C 52.77245497268091 -46.695573549920496 53.26907747600508 -46.8870921499445 53.8153893962819 -47.07606810875271 A 71.5 71.5 0 0 1 54.3498 -46.458C 54.08400240863945 -45.94469184665734 53.82281649918546 -45.480908270335576 53.57186473670742 -45.06445778936035 C 53.476931214787065 -44.90691844085667 53.38346837332826 -44.75616596714216 53.29177370561136 -44.61207126104208 A 0.375 0.375 0 0 0 53.3387 -44.165A 69.25 69.25 0 0 1 53.4167 -44.0707A 0.375 0.375 0 0 0 53.8469 -43.9404C 54.00571430740301 -44.003317031692944 54.17136631062823 -44.06672858341713 54.3439607038037 -44.130306845075914 C 54.80020833916221 -44.29837196764781 55.304869394107925 -44.46757747755866 55.8590572724768 -44.63202936326702 A 71.5 71.5 0 0 1 56.3654 -43.9908C 56.07700438140631 -43.48981035863177 55.79541765409205 -43.03812219190216 55.5261634546455 -42.63326423375421 C 55.424306291628525 -42.48011026464698 55.324220683026255 -42.33367091878901 55.2261980754782 -42.19380396478177 A 0.375 0.375 0 0 0 55.2532 -41.745A 69.25 69.25 0 0 1 55.3268 -41.6474A 0.375 0.375 0 0 0 55.7509 -41.4981C 55.912311861550236 -41.55385024208059 56.08062420639145 -41.60981956974004 56.2558794758493 -41.665646180226624 C 56.71916096453462 -41.81322006828558 57.23085861329094 -41.959776546205774 57.79182216101743 -42.09937785481761 A 71.5 71.5 0 0 1 58.2691 -41.4362C 57.95867065270827 -40.94858387774735 57.657242171915925 -40.509887905654686 57.37022011479051 -40.117426278334484 C 57.26164153864575 -39.96896176165275 57.15513187361151 -39.82712628541746 57.05097594104619 -39.69176477639354 A 0.375 0.375 0 0 0 57.0579 -39.2422A 69.25 69.25 0 0 1 57.1272 -39.1414A 0.375 0.375 0 0 0 57.5441 -38.9733C 57.70790069598599 -39.02188212921991 57.87853921386224 -39.070298110895315 58.05610740648736 -39.11826223164214 C 58.52550294598709 -39.245051890893514 59.043221260237395 -39.36866836250204 59.60984673612275 -39.483141928541215 A 71.5 71.5 0 0 1 60.0572 -38.7994C 59.7252653483389 -38.32605777395488 59.40459357241553 -37.90122498674412 59.100373513337644 -37.521938886484726 C 58.98528909677751 -37.378458584783836 58.87256684039223 -37.24150857938037 58.762484374772626 -37.11092126308628 A 0.375 0.375 0 0 0 58.7494 -36.6615A 69.25 69.25 0 0 1 58.8141 -36.5577A 0.375 0.375 0 0 0 59.2232 -36.3712C 59.38891583528714 -36.412439681428815 59.561541739216246 -36.45320619167016 59.74107030979866 -36.49321259435525 C 60.21564795871845 -36.598966295666806 60.73835905667207 -36.69939733190178 61.309521478283266 -36.788515878699094 A 71.5 71.5 0 0 1 61.7259 -36.0855C 61.37328105805382 -35.627438830080806 61.034002651127736 -35.217312693926566 60.71318859086473 -34.851955158171656 C 60.59182682334559 -34.71374393830946 60.47311577521527 -34.58195130529685 60.357325335087125 -34.45639745076137 A 0.375 0.375 0 0 0 60.3243 -34.008A 69.25 69.25 0 0 1 60.3842 -33.9014A 0.375 0.375 0 0 0 60.7846 -33.6969C 60.95201977949681 -33.730703705145885 61.126290336725525 -33.76373980582061 61.307422847906295 -33.7957090614346 C 61.786240376253204 -33.880216840621415 62.312906463409604 -33.95726304495672 62.887471840627846 -34.02084963588671 A 71.5 71.5 0 0 1 63.2721 -33.3C 62.89944579920903 -32.858084904242105 62.542234367152076 -32.46347968662464 62.20546325232465 -32.112776098942355 C 62.07806508640213 -31.98010836650247 61.95360093632439 -31.85373476795425 61.83233241288855 -31.733463650733736 A 0.375 0.375 0 0 0 61.7793 -31.287A 69.25 69.25 0 0 1 61.8345 -31.1778A 0.375 0.375 0 0 0 62.2253 -30.9557C 62.39410913042146 -30.98199853891882 62.56967834288967 -31.00723863990701 62.75205517283427 -31.031107276452097 C 63.234161932727226 -31.094201351140995 63.763737362320896 -31.147709755469666 64.34056494877399 -31.185638145241914 A 71.5 71.5 0 0 1 64.6927 -30.4483C 64.30072951297943 -30.023494292315032 63.92629426602489 -29.645193445367525 63.57423472450851 -29.30984009526854 C 63.44105309744851 -29.18297924975341 63.3110829574724 -29.062275588751806 63.18457711815696 -28.947525996016672 A 0.375 0.375 0 0 0 63.1117 -28.5039A 69.25 69.25 0 0 1 63.162 -28.3924A 0.375 0.375 0 0 0 63.5426 -28.153C 63.71232075314105 -28.171781482422887 63.88884004442883 -28.18917547184036 64.07209910082301 -28.20489610034807 C 64.55653791391617 -28.24645120309403 65.08797126295147 -28.276315571432242 65.66591582086025 -28.28851045673966 A 71.5 71.5 0 0 1 65.9849 -27.5363C 65.57435008026036 -27.129294811577353 65.18343442493168 -26.76804941661423 64.81678543835784 -26.448712117133386 C 64.67808476995302 -26.327910029008972 64.54286668376085 -26.213115951500043 64.41137469419985 -26.104115707944942 A 0.375 0.375 0 0 0 64.3188 -25.6642A 69.25 69.25 0 0 1 64.3641 -25.5505A 0.375 0.375 0 0 0 64.7336 -25.2945C 64.9040374604981 -25.30563196149763 65.08115636789202 -25.315145305188466 65.26493380684259 -25.322686713806064 C 65.75074286471433 -25.34262034079911 66.28297902146858 -25.348781380207907 66.86089309541038 -25.33521854923453 A 71.5 71.5 0 0 1 67.146 -24.5695C 66.71777884530738 -24.18123262719816 66.31115890845335 -23.83775990351265 65.93064842444626 -23.535072669298806 C 65.786704092035 -23.42056917992911 65.64650652262051 -23.311912598927904 65.51028944798774 -23.20887811444687 A 0.375 0.375 0 0 0 65.3982 -22.7735A 69.25 69.25 0 0 1 65.4384 -22.6579A 0.375 0.375 0 0 0 65.7961 -22.3857C 65.9668932092807 -22.389240450713555 66.14426007958504 -22.390854260814447 66.32819102799819 -22.390201476773196 C 66.81440580173275 -22.388474051642067 67.3463880605828 -22.370919529947994 67.9231242556581 -22.33162591043929 A 71.5 71.5 0 0 1 68.1739 -21.554C 67.72874563614829 -21.185160843759046 67.30722872401502 -20.860142724650682 66.91361221091894 -20.5747065131893 C 66.7647100026491 -20.466728958653523 66.61981129930908 -20.364425601743886 66.47913958599737 -20.267561441768528 A 0.375 0.375 0 0 0 66.3478 -19.8376A 69.25 69.25 0 0 1 66.3828 -19.7204A 0.375 0.375 0 0 0 66.728 -19.4324C 66.89877779778224 -19.428397175461225 67.07604048549386 -19.422108247901598 67.25975976549698 -19.41326256724378 C 67.74541492066729 -19.389877519631188 68.27608708008083 -19.348642289712146 68.85050033995954 -19.283695895512455 A 71.5 71.5 0 0 1 69.0664 -18.4956C 68.60524327179942 -18.147027884456378 68.16966626719847 -17.841109663315546 67.76372521416529 -17.57349118178325 C 67.61016076158835 -17.47225394152104 67.46084860728583 -17.37650692254847 67.31600154596076 -17.286005401902248 A 0.375 0.375 0 0 0 67.1657 -16.8623A 69.25 69.25 0 0 1 67.1953 -16.7436A 0.375 0.375 0 0 0 67.5274 -16.4406C 67.6978410554116 -16.428980615994973 67.87464762187228 -16.41480143685837 68.05779047584079 -16.397780421864137 C 68.54192178909061 -16.352784180617487 69.07023024861648 -16.287950111205568 69.64118012894133 -16.19747988736885 A 71.5 71.5 0 0 1 69.8217 -15.4006C 69.34553154733767 -15.072865681057896 68.89675924809275 -14.786654730195531 68.47929961350758 -14.537385310315463 C 68.32137780462953 -14.443089381496398 68.16794864482586 -14.354088797304298 68.01921381592004 -14.270129598379233 A 0.375 0.375 0 0 0 67.8501 -13.8536A 69.25 69.25 0 0 1 67.8745 -13.7337A 0.375 0.375 0 0 0 68.1928 -13.4162C 68.3624965160356 -13.396945836254353 68.53849592817359 -13.374904556988463 68.72069874292345 -13.34974200130755 C 69.20234501634368 -13.283223902298788 69.72724086843805 -13.19491971543748 70.2935938010713 -13.079105282218839 A 71.5 71.5 0 0 1 70.4385 -12.275C 69.9481406889163 -11.968777698060398 69.48706409088723 -11.702842262826495 69.05891470221263 -11.47241680595835 C 68.89694907616708 -11.385249404420653 68.73970753025696 -11.30317195743065 68.58738023300562 -11.225921773444577 A 0.375 0.375 0 0 0 68.3999 -10.8173A 69.25 69.25 0 0 1 68.4189 -10.6965A 0.375 0.375 0 0 0 68.7227 -10.3651C 68.89142456776055 -10.338312660636184 69.06626739503436 -10.308453042160748 69.24716842374237 -10.275198903718302 C 69.7253733932404 -10.187291012475802 70.24581450577561 -10.075692027954295 70.80644604939363 -9.934763324190593 A 71.5 71.5 0 0 1 70.9154 -9.12496C 70.41187427186485 -8.840926814826206 69.93940879995773 -8.595794885411264 69.50141970817351 -8.384670879970457 C 69.33573183271871 -8.304805068521285 69.1749900892366 -8.229813715906928 69.01937275538833 -8.159425919949536 A 0.375 0.375 0 0 0 68.8139 -7.75956A 69.25 69.25 0 0 1 68.8275 -7.63799A 0.375 0.375 0 0 0 69.1163 -7.29342C 69.28357507289968 -7.259153722190043 69.45691418105997 -7.221535048013609 69.63615426147862 -7.180255349823355 C 70.10996849535232 -7.07113219932804 70.62492158067373 -6.936459986600007 71.17871865324118 -6.7706968131875875 A 71.5 71.5 0 0 1 71.2514 -5.95685C 70.73581159607961 -5.695523089756274 70.25289528675543 -5.471681352915657 69.80593607866115 -5.280277966072427 C 69.636854911737 -5.207872310887681 69.47293210853562 -5.140115941038055 69.31433370190216 -5.076730281562813 A 0.375 0.375 0 0 0 69.0912 -4.68642A 69.25 69.25 0 0 1 69.0994 -4.56436A 0.375 0.375 0 0 0 69.3725 -4.20726C 69.53816945292422 -4.165582405967651 69.70966069321678 -4.120279364485645 69.88688396075767 -4.071056063567312 C 70.35536674470397 -3.9409343077335683 70.86380941112702 -3.783456246011528 71.40967249981821 -3.593187710387431 A 71.5 71.5 0 0 1 71.4461 -2.77691C 70.9193095139884 -2.538811430794254 70.42690115287847 -2.3367043035766826 69.97185922460926 -2.165401549038466 C 69.79972046122181 -2.1005998048443284 69.63294205185349 -2.0402129417599433 69.47167745489067 -1.9839552651264818 A 0.375 0.375 0 0 0 69.2314 -1.60397A 69.25 69.25 0 0 1 69.2341 -1.48167A 0.375 0.375 0 0 0 69.4911 -1.11276" stroke="#191919" stroke-width="0.35 px" style="stroke-width:0.35;stroke-miterlimit:4;stroke-dasharray:none;fill:none;fill-rule: evenodd "/>
<title>b'InvoluteGear'</title>
</g>
</svg>