<?xml version="1.0"?>
<!DOCTYPE svg PUBLIC "-//W3C//DTD SVG 1.1//EN" "http://www.w3.org/Graphics/SVG/1.1/DTD/svg11.dtd">
<svg width="170.33049552827475mm" height="170.3380629947981mm" viewBox="0 0 170.33049552827475 170.3380629947981" xmlns="http://www.w3.org/2000/svg" version="1.1">
<g id="InvoluteGear" transform="translate(85.161587,85.169031) scale(1,-1)">
<path id="InvoluteGear_w0000"  d="M 81.49232872122894 -1.1181947912430255 C 81.65658094846108 -1.0674034545002538 81.82550597351415 -1.013321454746499 81.9990035385378 -0.9557462890837205 C 82.46654768482298 -0.8005905702388854 82.96723997786508 -0.6200940459665938 83.49900196619367 -0.4103474941391525 A 83.5 83.5 0 0 1 83.499 0.410347C 82.96723997786508 0.6200940459665938 82.46654768482298 0.8005905702388854 81.9990035385378 0.9557462890837205 C 81.82550597351415 1.013321454746499 81.65658094846108 1.0674034545002538 81.49232891929847 1.118194705722254 A 0.375 0.375 0 0 0 81.2364 1.48799A 81.25 81.25 0 0 1 81.2341 1.60581A 0.375 0.375 0 0 0 81.4758 1.98509C 81.6380206362322 2.042094249877872 81.80476425867073 2.1025681381489303 81.97594411890597 2.1667067397868878 C 82.43724242989444 2.33954971504187 82.9307001144021 2.5389770982831594 83.45409140088054 2.7688161495192714 A 83.5 83.5 0 0 1 83.4228 3.58892C 82.88348527510689 3.7782661131312736 82.37628432948861 3.9395700757300114 81.90317224222116 4.076813577205408 C 81.72760852729186 4.127741828407037 81.5567470247612 4.175353525914136 81.39068041155033 4.2198547647890905 A 0.375 0.375 0 0 0 81.1208 4.57964A 81.25 81.25 0 0 1 81.1141 4.69729A 0.375 0.375 0 0 0 81.3412 5.08549C 81.50109299875285 5.148631112819819 81.66541345626516 5.2154092082515495 81.83402741727963 5.286018251024022 C 82.28841105452098 5.476297876898984 82.7739186640267 5.694366968469018 83.2881803813263 5.9439652744623395 A 83.5 83.5 0 0 1 83.2257 6.76228C 82.67955744243949 6.930960055637732 82.16658323712728 7.072837581237959 81.68858917617413 7.191969875387387 C 81.51121386194177 7.236177371032412 81.33866361477766 7.277249733883194 81.17102319823157 7.3153964378690945 A 0.375 0.375 0 0 0 80.8877 7.66465A 81.25 81.25 0 0 1 80.8765 7.78196A 0.375 0.375 0 0 0 81.0886 8.17852C 81.245996568007 8.24770295286219 81.40765561163889 8.320688433600264 81.57345919930876 8.397665541145523 C 82.02026934996852 8.605105930373858 82.49712294485347 8.841500550937472 83.00150946264807 9.110496218006146 A 83.5 83.5 0 0 1 82.908 9.92584C 82.35575215572455 10.073604768669863 81.8377484542753 10.195850148423085 81.35556546532814 10.296698504809187 C 81.17663572904112 10.334121148255203 81.00264691860596 10.368594625450088 80.83367576130206 10.400331485473018 A 0.375 0.375 0 0 0 80.5372 10.7385A 81.25 81.25 0 0 1 80.5216 10.8553A 0.375 0.375 0 0 0 80.7185 11.2597C 80.87310120943175 11.33481641211112 81.03186444902471 11.41390345618595 81.19461726399884 11.49713701905714 C 81.63320609607402 11.721437402905964 82.10071428421331 11.97581480286289 82.59449429027191 12.263817813005911 A 83.5 83.5 0 0 1 82.47 13.075C 81.91253890167171 13.201643717833575 81.39025675993088 13.304079707625926 80.90458396222654 13.386497905773139 C 80.72435923489661 13.417081437764788 80.54918412833206 13.444906046057543 80.37912722229466 13.470187046704542 A 0.375 0.375 0 0 0 80.07 13.7969A 81.25 81.25 0 0 1 80.0499 13.913A 0.375 0.375 0 0 0 80.2313 14.3245C 80.38294758564793 14.405495471181677 80.53858482968245 14.49056940994015 80.69805089593844 14.579938747428315 C 81.12778249755203 14.820773911784377 81.58526743676707 15.092765268223399 82.06772499728676 15.399358044609414 A 83.5 83.5 0 0 1 81.9124 16.2052C 81.35056029712776 16.310541545696076 80.8247569742702 16.39301962313533 80.33629854693457 16.456888164535602 C 80.1550401371867 16.48058824187531 79.97893272165037 16.50172363824397 79.80803663313559 16.520512124480987 A 0.375 0.375 0 0 0 79.4867 16.8352A 81.25 81.25 0 0 1 79.4622 16.9505A 0.375 0.375 0 0 0 79.6278 17.3686C 79.7762463725508 17.455287938998033 79.92853196190214 17.5462254233621 80.08448006888902 17.64160095847167 C 80.50473137030144 17.898621715370727 80.95152975116636 18.18783266682764 81.42196534880776 18.512570679241453 A 83.5 83.5 0 0 1 81.2361 19.3119C 80.67063115734356 19.395790647620537 80.14206901792014 19.45819122737939 79.65153317897575 19.503417508753586 C 79.46950389417563 19.52019976859496 79.292719508584 19.534615308735354 79.12123202058237 19.546884039053538 A 0.375 0.375 0 0 0 78.7882 19.8491A 81.25 81.25 0 0 1 78.7593 19.9633A 0.375 0.375 0 0 0 78.9088 20.3875C 79.05387722889822 20.4797719080449 79.20259036402042 20.576441087355942 79.35479440189188 20.677684534679006 C 79.7649560788925 20.950518228594976 80.20042008646938 21.256529446839004 80.65815163459 21.59894185620788 A 83.5 83.5 0 0 1 80.442 22.3907C 79.87373731457 22.452917707361905 79.3431827231518 22.49515031456526 78.85128070266946 22.521668762129057 C 78.66874446787783 22.531508871799733 78.49153943268928 22.539183654556798 78.31970918566404 22.544914840470096 A 0.375 0.375 0 0 0 77.9754 22.8342A 81.25 81.25 0 0 1 77.9422 22.9473A 0.375 0.375 0 0 0 78.0754 23.3768C 78.21688752088924 23.47456216571069 78.36181258195352 23.57682287890037 78.51005186940547 23.68378744511728 C 78.9095292267745 23.972038493277147 79.33302747988314 24.294406291296806 79.77739131149777 24.6539966323621 A 83.5 83.5 0 0 1 79.5312 25.4369C 78.96103418869522 25.477490182947793 78.4292563987183 25.49949358435269 77.9367014076014 25.507265748892312 C 77.7539228829081 25.510149441173983 77.57655412848267 25.511072338846436 77.40463025986485 25.510257670683178 A 0.375 0.375 0 0 0 77.0495 25.7863A 81.25 81.25 0 0 1 77.0121 25.898A 0.375 0.375 0 0 0 77.1289 26.3323C 77.26649080358352 26.435316552426574 77.4074176631063 26.543020531236987 77.55147726734377 26.655551127952638 C 77.93969110110339 26.958801593893646 78.35060956776364 27.29705856920047 78.78096139779804 27.673305470344825 A 83.5 83.5 0 0 1 78.5052 28.4463C 77.93384511199649 28.465122733440598 77.40161515041785 28.466865026218542 76.90912134631479 28.45587963883843 C 76.72636554310684 28.451802732652975 76.5490902371818 28.445972407127417 76.37732202014485 28.43861306607856 A 0.375 0.375 0 0 0 76.012 28.7009A 81.25 81.25 0 0 1 75.9703 28.8111A 0.375 0.375 0 0 0 76.0705 29.2495C 76.20406506136231 29.357742257382746 76.34078938887001 29.470733341341223 76.48046043723906 29.588666809948414 C 76.85684787444397 29.906477009485975 77.25459076216336 30.26013272180345 77.67030662160602 30.652490660989766 A 83.5 83.5 0 0 1 77.3653 31.4144C 76.79365941043477 31.411483577262615 76.26174895981701 31.392962235255638 75.77003041166085 31.363235223717282 C 75.58756230838125 31.352203630188917 75.41063748320255 31.339628534879978 75.23927396523992 31.32573519128648 A 0.375 0.375 0 0 0 74.8642 31.5739A 81.25 81.25 0 0 1 74.8183 31.6825A 0.375 0.375 0 0 0 74.9018 32.1244C 75.03115070998291 32.23760204269367 75.16347426827163 32.35571640553052 75.29855425110483 32.47888175377432 C 75.66256956595409 32.81079089250207 76.04656018556999 33.17933257485716 76.44703732616756 33.58723267058341 A 83.5 83.5 0 0 1 76.1132 34.337C 75.5421302442745 34.312300772865164 75.01131052391987 34.27354265024853 74.52108017659671 34.22511711587673 C 74.33916433455109 34.207146829761435 74.16284651420102 34.187845197355124 73.99213615603128 34.16743799523698 A 0.375 0.375 0 0 0 73.6079 34.4012A 81.25 81.25 0 0 1 73.5579 34.5079A 0.375 0.375 0 0 0 73.6245 34.9527C 73.7494483631231 35.070720386987986 73.87717929568359 35.19378677416894 74.0074723599196 35.32200542406912 C 74.35858776500686 35.66753226546672 74.72826936683072 36.05042556765296 75.11292713501531 36.47327640377596 A 83.5 83.5 0 0 1 74.7508 37.2098C 74.18107221115923 37.16336841263553 73.65211285891539 37.10442970498171 73.16408149956231 37.03737586017178 C 72.98298167933032 37.01249293666645 72.80752650779226 36.9864927526845 72.63771682311467 36.959601280533825 A 0.375 0.375 0 0 0 72.2449 37.1785A 81.25 81.25 0 0 1 72.1909 37.2833A 0.375 0.375 0 0 0 72.2404 37.7303C 72.36081636665389 37.85298953951526 72.48376947584512 37.980829516544176 72.60908670899694 38.1139155633162 C 72.9467931205518 38.47255912649632 73.30162970160288 38.86924888983048 73.66991038038428 39.306437373062806 A 83.5 83.5 0 0 1 73.28 40.0286C 72.71245871511854 39.960552721060786 72.18612667147721 39.88151888386129 71.70100189890907 39.795933950277785 C 71.52098067791673 39.76417446724267 71.3466425484157 39.73151342946621 71.1779797450391 39.69817667734679 A 0.375 0.375 0 0 0 70.7771 39.902A 81.25 81.25 0 0 1 70.7191 40.0046A 0.375 0.375 0 0 0 70.7516 40.4532C 70.86726810421561 40.580375475991865 70.98526511978369 40.712803687123674 71.1054248238437 40.850564168722876 C 71.42923259985446 41.22180445480558 71.76870968101292 41.63171551705475 72.12007929861491 42.082607765891346 A 83.5 83.5 0 0 1 71.703 42.7894C 71.13841910532085 42.699798048307194 70.61547750142748 42.60078367307024 70.13396270018607 42.49679174068486 C 69.95528109199361 42.45820174633412 69.78231277815055 42.418927210145505 69.61504140101547 42.37919351316088 A 0.375 0.375 0 0 0 69.2067 42.5676A 81.25 81.25 0 0 1 69.1449 42.6679A 0.375 0.375 0 0 0 69.1603 43.1174C 69.27096907800416 43.24892374755063 69.38383891555713 43.38574818453945 69.49866687044182 43.52798336143755 C 69.80810652058959 43.91128210749893 70.13173189254213 44.333820136810736 70.46568099661042 44.79776240059651 A 83.5 83.5 0 0 1 70.022 45.4882C 69.46123558872067 45.37713275052469 68.94244263990721 45.258281398628505 68.46523596042108 45.136033245801485 C 68.28815303627826 45.090668691937694 68.11680532561226 45.044837601659715 67.95116790222427 44.99876456987193 A 0.375 0.375 0 0 0 67.5359 45.1715A 81.25 81.25 0 0 1 67.4703 45.2694A 0.375 0.375 0 0 0 67.4686 45.7191C 67.57423376899986 45.85476521431351 67.68181277806376 45.99578749480626 67.7911424942162 46.14229113959456 C 68.08576536059098 46.53709259909655 68.39306979748714 46.97164495572353 68.7091141937467 47.44796456252932 A 83.5 83.5 0 0 1 68.2395 48.121C 67.68333992107678 47.988674948350784 67.16944782752188 47.85015894289333 66.69724117385486 47.70983181775922 C 66.5220136870724 47.657758478648596 66.35253501738295 47.60543728498066 66.18877170617085 47.553091719881174 A 0.375 0.375 0 0 0 65.7672 47.7099A 81.25 81.25 0 0 1 65.698 47.8052A 0.375 0.375 0 0 0 65.6791 48.2545C 65.77952228119125 48.394121655274624 65.88165448248758 48.539137310446435 65.98532744227138 48.6896970068459 C 66.26470634988317 49.09542875541561 66.55524428966805 49.54136537998427 66.85292574395842 50.029371711916816 A 83.5 83.5 0 0 1 66.358 50.684C 65.8073098811387 50.530638155264555 65.29906373724947 50.37265833121147 64.83254176390601 50.21445569468633 C 64.6594237775878 50.1557490716923 64.49205987674361 50.09701363536326 64.33040811885276 50.0384714330172 A 0.375 0.375 0 0 0 63.9032 50.1791A 81.25 81.25 0 0 1 63.8304 50.2717A 0.375 0.375 0 0 0 63.7944 50.72C 63.88943677465955 50.86331124635946 63.98597408626037 51.012110017373985 64.0838399737951 51.16650746821847 C 64.34756984993672 51.58258123360882 64.62092004037332 52.0392555606455 64.89980694304444 52.53824105517736 A 83.5 83.5 0 0 1 64.3803 53.1736C 63.83586553311416 52.99933676763007 63.3340022472104 52.82212218062321 62.87384136645188 52.64627341140566 C 62.70308388512785 52.58101862351917 62.538077414785015 52.51595410529656 62.37877158981027 52.45130014630062 A 0.375 0.375 0 0 0 61.9465 52.5756A 81.25 81.25 0 0 1 61.8702 52.6653A 0.375 0.375 0 0 0 61.8172 53.1119C 61.90671769269526 53.2587538987178 61.9975201447278 53.41112004158235 62.089437063832584 53.569131385328674 C 62.337135525396484 53.99494390035691 62.592901634841226 54.461693795745894 62.85258962654604 54.97093497161348 A 83.5 83.5 0 0 1 62.3093 55.586C 61.77186528283579 55.39119140846929 61.277112508703475 55.19499900271794 60.82397990981517 55.00175906471205 C 60.65583051550868 54.93005072513711 60.493420719274404 54.8587514623521 60.336691805432196 54.78807948876586 A 0.375 0.375 0 0 0 59.9 54.8958A 81.25 81.25 0 0 1 59.8204 54.9826A 0.375 0.375 0 0 0 59.7504 55.4269C 59.834239788417406 55.57697644951031 59.919175726007026 55.7326890478841 60.005010405936495 55.89408518318987 C 60.236318313833614 56.32901906041726 60.47412950587928 56.805167781431976 60.714242063856254 57.32392628761423 A 83.5 83.5 0 0 1 60.1479 57.9179C 59.61830173334614 57.70273411721661 59.13137681520892 57.487848352952916 58.68592949713932 57.27749742559486 C 58.520631990396865 57.19943950456848 58.36105434694916 57.12200887433585 58.20712958618113 57.04542135376469 A 0.375 0.375 0 0 0 57.7667 57.1364A 81.25 81.25 0 0 1 57.6838 57.2202A 0.375 0.375 0 0 0 57.597 57.6614C 57.67500795665635 57.81461769766262 57.75395423081349 57.97345098316428 57.83358221948764 58.13799790106292 C 58.04816419936478 58.58142252794758 58.267675670517875 59.06627970446282 58.48786465451292 59.59380339071957 A 83.5 83.5 0 0 1 57.8993 60.1658C 57.378297345909246 59.93061337792998 56.89990627834794 59.69734581896887 56.46279009712306 59.47018889099357 C 56.30058414352682 59.38589456503882 56.14407002519291 59.30244483436996 55.99317259368683 59.22005281139687 A 0.375 0.375 0 0 0 55.5496 59.2942A 81.25 81.25 0 0 1 55.4635 59.3747A 0.375 0.375 0 0 0 55.36 59.8124C 55.43215287714352 59.96843327728553 55.504995023317996 60.13015695683568 55.57830086776576 60.29761608002708 C 55.77584579626633 60.74888853325185 55.97673927587919 61.24175116871448 56.176685432915804 61.77727517613242 A 83.5 83.5 0 0 1 55.5668 62.3264C 55.05509991274035 62.07159897866877 54.58593631706828 61.82028784067011 54.15778504936219 61.57665426790672 C 53.99890583203783 61.48624575573761 53.84568216932641 61.39689791876411 53.698030853932 61.30882085394566 A 0.375 0.375 0 0 0 53.252 61.3661A 81.25 81.25 0 0 1 53.1629 61.4432A 0.375 0.375 0 0 0 53.0428 61.8766C 53.10892647532515 62.03530036169539 53.175558879368786 62.19967995141963 53.24243629312382 62.36980848018442 C 53.422657748986985 62.82827445783419 53.604641960719775 63.32842794854091 53.78405538798528 63.8711758185059 A 83.5 83.5 0 0 1 53.1537 64.3967C 52.65207784801768 64.12258669499214 52.19282196659609 63.85359635508045 51.774256390815275 63.59383938291788 C 51.61893426943892 63.49744776823392 51.46922322201259 63.40233137077766 51.32503210302159 63.30869696743758 A 0.375 0.375 0 0 0 50.8771 63.3489A 81.25 81.25 0 0 1 50.7852 63.4226A 0.375 0.375 0 0 0 50.6486 63.8511C 50.70869720738123 64.01222219121428 50.76902325867828 64.17901935642234 50.82937527588418 64.35157062065825 C 50.99201195522828 64.8165653908952 51.15482303937184 65.32328456209966 51.31344360454882 65.87246936208744 A 83.5 83.5 0 0 1 50.6635 66.3736C 50.172715304003894 66.08060279078778 49.72403301395555 65.79432325924022 49.31566001016963 65.51881951045509 C 49.164120186968326 65.41658455188244 49.018138821533334 65.31583750362651 48.87761696228346 65.21678152269808 A 0.375 0.375 0 0 0 48.4285 65.2399A 81.25 81.25 0 0 1 48.3338 65.3101A 0.375 0.375 0 0 0 48.181 65.7331C 48.23494517628608 65.89633241818495 48.2888774078294 66.06530531893328 48.34261652383094 66.24002913580324 C 48.48743261901914 66.71087850066448 48.630834515066375 67.22342865801124 48.76843223349958 67.77825412256442 A 83.5 83.5 0 0 1 48.0999 68.2543C 47.620607119358404 67.942808329905 47.18314896710941 67.6396546846737 46.785560637133045 67.34880361336332 C 46.638022830363084 67.24087354181817 46.49598280594336 67.13464191635103 46.35933394969651 67.03030797953679 A 0.375 0.375 0 0 0 45.9096 67.0363A 81.25 81.25 0 0 1 45.8124 67.1028A 0.375 0.375 0 0 0 45.6436 67.5197C 45.691257085991765 67.68489926290107 45.73871730120159 67.85580290463751 45.785765599418056 68.03244594131083 C 45.9125511409569 68.50846721423095 46.03633592986789 69.02610520899215 46.152711298020066 69.58576689422897 A 83.5 83.5 0 0 1 45.4666 70.036C 44.99945360696499 69.70650329234068 44.573853865014705 69.38691507722946 44.187626673916526 69.0811383896416 C 44.04430479929297 68.96766969340946 43.90641206034476 68.85610751643219 43.77383433487873 68.74664689796607 A 0.375 0.375 0 0 0 43.3242 68.7355A 81.25 81.25 0 0 1 43.2245 68.7983A 0.375 0.375 0 0 0 43.04 69.2084C 43.08132104105021 69.37532947442642 43.122240427151716 69.54791606320904 43.16252969204858 69.72622220416976 C 43.27110085302364 70.20672519981113 43.3750890586884 70.72870050638103 43.47007334340134 71.2923869563621 A 83.5 83.5 0 0 1 42.7673 71.7162C 42.313055188831854 71.3691304890102 41.899930936118366 71.03357107637802 41.52562487640178 70.71331211947715 C 41.386726736941135 70.59446931731983 41.25318121475323 70.47773834332361 41.12486684509539 70.36330975063787 A 0.375 0.375 0 0 0 40.676 70.3351A 81.25 81.25 0 0 1 40.574 70.394A 0.375 0.375 0 0 0 40.374 70.7968C 40.408921199214234 70.96517209056108 40.44324042700952 71.13919139233558 40.47671224300436 71.31890211072556 C 40.56691160561173 71.803190145681 40.65095245507344 72.32874594976644 40.72440793821487 72.89563987302823 A 83.5 83.5 0 0 1 40.006 73.2924C 39.56530688584307 72.92827926942712 39.16525711303775 72.57723518834253 38.803414892705334 72.24295830699907 C 38.66914187743101 72.11891370961824 38.54013720024352 71.99718318735574 38.41627222996289 71.87795253097028 A 0.375 0.375 0 0 0 37.9688 71.8327A 81.25 81.25 0 0 1 37.8646 71.8877A 0.375 0.375 0 0 0 37.6494 72.2826C 37.677932284770534 72.45212199150211 37.70560159466023 72.6273216949173 37.7322074308198 72.80817642737539 C 37.803904214606845 73.29554733029264 37.86787585666815 73.82392162622129 37.919696034809945 74.39320108077068 A 83.5 83.5 0 0 1 37.1867 74.7623C 36.76019267035062 74.38168901691596 36.37379741137889 74.01566924773635 36.02494366705767 73.66785911147109 C 35.895490459005195 73.53879257167415 35.77121367126706 73.41223899876513 35.65197769272895 73.28837915173314 A 0.375 0.375 0 0 0 35.2066 73.2261A 81.25 81.25 0 0 1 35.1003 73.2771A 0.375 0.375 0 0 0 34.8703 73.6635C 34.892313970559925 73.83402324204692 34.91329324468992 74.01014932428214 34.93299452509531 74.19188584873613 C 34.98608477657984 74.6816329783991 35.029894458475496 75.21205967395498 35.06000419731341 75.78289925900648 A 83.5 83.5 0 0 1 34.3135 76.1238C 33.901779689795404 75.72725242629018 33.529599180843014 75.34678766268904 33.194239717111515 74.98594856294856 C 33.06979401105672 74.85204721487935 32.95042530222918 74.72085408190588 32.83599119620339 74.59254462916445 A 0.375 0.375 0 0 0 32.3933 74.5133A 81.25 81.25 0 0 1 32.2852 74.5602A 0.375 0.375 0 0 0 32.0406 74.9376C 32.05610513683027 75.10887221749333 32.07036395725871 75.28566931256714 32.08313211693681 75.46802412843077 C 32.117538860329624 75.95943739832171 32.14112306220915 76.49114742550555 32.14947870550038 77.0627194782337 A 83.5 83.5 0 0 1 31.3905 77.375C 30.994212369732228 76.96301855924332 30.636786236956365 76.5686604387551 30.3154072929763 76.19531555773749 C 30.19614952329583 76.05677354554959 30.081861966594936 75.9211310700123 29.97239565159519 75.78855804800138 A 0.375 0.375 0 0 0 29.533 75.6926A 81.25 81.25 0 0 1 29.4232 75.7353A 0.375 0.375 0 0 0 29.1644 76.1031C 29.173418015246224 76.27482050870367 29.18093570804664 76.45203227773018 29.186752234386567 76.63474098795378 C 29.202425583199073 77.12710789581091 29.205750110224404 77.65933032591528 29.192339543084984 78.23080612148642 A 83.5 83.5 0 0 1 28.422 78.5139C 28.041706404809002 78.08719567302305 27.699552881931908 77.67951597722141 27.39262042644792 77.294206629312 C 27.27872350550666 77.15122482567836 27.169682806963618 77.01132967619921 27.065342998681594 76.87468530312661 A 0.375 0.375 0 0 0 26.6299 76.762A 81.25 81.25 0 0 1 26.5186 76.8006A 0.375 0.375 0 0 0 26.246 77.1583C 26.248432226546463 77.3301776021215 26.249197891782995 77.50754710497723 26.24805435137762 77.69034479939806 C 26.244971580752424 78.18295146027576 26.228031612677206 78.71491462165795 26.192874279147425 79.28546557480215 A 83.5 83.5 0 0 1 25.4123 79.5391C 25.048542646412493 79.09815381828676 24.722157823332136 78.67774364375605 24.43011687906165 78.28102849067339 C 24.321745946506308 78.13381420554005 24.218110204709618 77.9898692167117 24.119048185892332 77.84935161385506 A 0.375 0.375 0 0 0 23.6883 77.7202A 81.25 81.25 0 0 1 23.5755 77.7545A 0.375 0.375 0 0 0 23.2895 78.1015C 23.285388720493195 78.27341333085447 23.279401248024445 78.45068339871698 23.271299298898025 78.6333050381538 C 23.249464878557827 79.12543721948742 23.212284976716283 79.65636981641963 23.155431851568693 80.22516868280003 A 83.5 83.5 0 0 1 22.3658 80.4489C 22.019060895843083 79.99442720237236 21.708917999350238 79.56189610367406 21.43219199774305 79.15435034446378 C 21.32950418106547 79.00311702447037 21.231423657933057 78.85533090276535 21.137783059037375 78.71114380721518 A 0.375 0.375 0 0 0 20.7122 78.5657A 81.25 81.25 0 0 1 20.5982 78.5956A 0.375 0.375 0 0 0 20.2992 78.9316C 20.288583626900422 79.10316009327013 20.27585169798907 79.28007370148822 20.26080308719329 79.4622545020226 C 20.22024867496018 79.95319865919754 20.162882746655555 80.4823308901719 20.0844162614864 81.04855296580996 A 83.5 83.5 0 0 1 19.2869 81.242C 18.957653612017786 80.77471631455752 18.6642023196624 80.33069142043436 18.40319248696558 79.91290595748552 C 18.306336673682893 79.75787287648802 18.213953576596705 79.60645989765428 18.1258701675389 79.45881236691471 A 0.375 0.375 0 0 0 17.7062 79.2973A 81.25 81.25 0 0 1 17.5911 79.3229A 0.375 0.375 0 0 0 17.2795 79.6471C 17.262362026656458 79.81821483588759 17.242904101382234 79.99451547664243 17.22093064796409 80.17599129353029 C 17.16171504385877 80.66503560445338 17.084246264202864 81.19160027832046 16.98428018791417 81.7544245953379 A 83.5 83.5 0 0 1 16.1799 81.9174C 15.868759542824696 81.43788981022598 15.592425330926476 80.98301491432522 15.34751010644464 80.55559549661844 C 15.256626728226596 80.39698743776295 15.170075003845506 80.24216713614457 15.087676497147847 80.09127324501995 A 0.375 0.375 0 0 0 14.6744 79.9139A 81.25 81.25 0 0 1 14.5585 79.9351A 0.375 0.375 0 0 0 14.2348 80.2473C 14.211111651772 80.41754079768995 14.184955942266356 80.59297285190696 14.156089505632615 80.77348056256305 C 14.078298566619972 81.25991595973653 13.980839257937202 81.78314960805935 13.85951853178274 82.34176012500299 A 83.5 83.5 0 0 1 13.0495 82.474C 12.756857289362955 81.98298615120899 12.498040816111336 81.51792077864323 12.269575303505857 81.08148712347248 C 12.184796132562337 80.91953405328125 12.104201272612265 80.76153090351463 12.02760713823209 80.60760943372148 A 0.375 0.375 0 0 0 11.6214 80.4146A 81.25 81.25 0 0 1 11.5048 80.4314A 0.375 0.375 0 0 0 11.1694 80.731C 11.139256523588205 80.90026901332872 11.106440953129418 81.07457812130076 11.070723386853539 81.25385600680134 C 10.974469902358255 81.73697720540301 10.857161371329004 82.25612118941312 10.71466189876332 82.80970797443709 A 83.5 83.5 0 0 1 9.90024 82.911C 9.626458812399276 82.40921499992386 9.385535336937373 81.93463345102265 9.173850789360008 81.48981834546443 C 9.09529874738391 81.32475508040639 9.02077760670684 81.16379817195345 8.950098898816531 81.00707229490791 A 0.375 0.375 0 0 0 8.55153 80.7987A 81.25 81.25 0 0 1 8.43434 80.811A 0.375 0.375 0 0 0 8.0878 81.0977C 8.051250538368683 81.2656995730405 8.011822686396712 81.43863300322512 7.969305777535167 81.61642112777537 C 7.854729305907835 82.09552764825408 7.717741638687289 82.60982925880532 7.554270030322518 83.15758966399478 A 83.5 83.5 0 0 1 6.73659 83.2278C 6.482102890456198 82.71595836528786 6.259421728790919 82.23254873792662 6.064825068598413 81.77999712135929 C 5.992614048540953 81.61206298738857 5.924274675666576 81.44838569237889 5.85961387163562 81.28908264561959 A 0.375 0.375 0 0 0 5.46927 81.0657A 81.25 81.25 0 0 1 5.35169 81.0736A 0.375 0.375 0 0 0 4.99449 81.3468C 4.951571009575702 81.51330263744923 4.905588042706572 81.68460965290527 4.856333436712551 81.86065024072128 C 4.723600102883409 82.3350474244254 4.567131918492889 82.8437609733502 4.3829251925331185 83.38490079848401 A 83.5 83.5 0 0 1 3.56316 83.424C 3.328348539017134 82.90277149874616 3.1242325575443637 82.41123469067017 2.9470059312903714 81.95160271967335 C 2.881240632227191 81.78104120522954 2.8191821127128636 81.61488084009322 2.760632964525474 81.45323159780838 A 0.375 0.375 0 0 0 2.37908 81.2152A 81.25 81.25 0 0 1 2.26128 81.2185A 0.375 0.375 0 0 0 1.89394 81.478C 1.8447121761937153 81.64271920578258 1.792240765333369 81.81215142771474 1.736319876676777 81.98618923677384 C 1.5856221312904455 82.45518925313979 1.409900293638811 82.9575771544257 1.2052255322263465 83.49131179849093 A 83.5 83.5 0 0 1 0.384568 83.4991C 0.1697684003897684 82.96938353911474 -0.015486452231039338 82.47043223170434 -0.1750860828814831 82.00438632869472 C -0.2343103075539672 81.83144473166793 -0.28999799478780175 81.66304221304932 -0.34235059646410837 81.49928115118645 A 0.375 0.375 0 0 0 -0.714567 81.2469A 81.25 81.25 0 0 1 -0.832406 81.2457A 0.375 0.375 0 0 0 -1.20936 81.491C -1.2648213134875215 81.65376163638882 -1.3237050898096523 81.82107340427319 -1.3862111811863538 81.99285609639041 C -1.5546548408059109 82.45577894023134 -1.7493755518532397 82.95111277945026 -1.9742215898814515 83.47666837823853 A 83.5 83.5 0 0 1 -2.79458 83.4532C -2.9890578861881427 82.91569790530326 -3.155183008131227 82.41005553025394 -3.2969242389715547 81.93827141723649 C -3.3495215197894597 81.76320048640903 -3.3987576329201072 81.59279998186068 -3.444837781817859 81.42716453830377 A 0.375 0.375 0 0 0 -3.80717 81.1608A 81.25 81.25 0 0 1 -3.92489 81.1551A 0.375 0.375 0 0 0 -4.3109 81.3859C -4.372520933182317 81.54641391879927 -4.437731699119911 81.71136264656755 -4.506732365359866 81.88064115326192 C -4.692677712009575 82.3368156307101 -4.906114970037064 82.82437722114953 -5.150806279421376 83.34099176928623 A 83.5 83.5 0 0 1 -5.96968 83.2863C -6.143550324587847 82.74179243634835 -6.290304850308109 82.23019212676405 -6.413982170104198 81.75335384559962 C -6.4598762460386885 81.57640741708423 -6.502589397409128 81.4042559910473 -6.542330281717729 81.2369863213546 A 0.375 0.375 0 0 0 -6.89426 80.957A 81.25 81.25 0 0 1 -7.01167 80.9469A 0.375 0.375 0 0 0 -7.4062 81.1628C -7.47388081554114 81.32083169694185 -7.545324021717799 81.48317822470807 -7.620719218451488 81.64970710832806 C -7.823896649155259 82.0984718100019 -8.05574099054357 82.57755423396708 -8.319922792278097 83.0844786897462 A 83.5 83.5 0 0 1 -9.13612 82.9987C -9.289135202346126 82.44791927855445 -9.416306351811144 81.93110280597462 -9.521740440272959 81.44990172658468 C -9.560864769301448 81.27133635578647 -9.59699302892561 81.09768361137087 -9.630337028162078 80.9290222405723 A 0.375 0.375 0 0 0 -9.97135 80.6358A 81.25 81.25 0 0 1 -10.0883 80.6213A 0.375 0.375 0 0 0 -10.4908 80.822C -10.564404285227514 80.9773420434724 -10.641976345824318 81.13685098429175 -10.723656757224335 81.30038879387644 C -10.943771684131598 81.74109305386085 -11.193686956750259 82.21100168763775 -11.476976212478515 82.70750105906093 A 83.5 83.5 0 0 1 -12.2893 82.5907C -12.42125172211113 82.03450451990582 -12.52865510931186 81.51322121880753 -12.615693097090732 81.02835503675396 C -12.647990952676448 80.84842962638956 -12.677481938031775 80.67352734347331 -12.704380706584935 80.50371881443235 A 0.375 0.375 0 0 0 -13.034 80.1977A 81.25 81.25 0 0 1 -13.1503 80.1788A 0.375 0.375 0 0 0 -13.5601 80.364C -13.639610378667363 80.51644298555051 -13.723198821612412 80.67288306670802 -13.811046018890945 80.83319268806788 C -14.047779296400885 81.26519752731761 -14.315403146996735 81.72525104831097 -14.617389114380636 82.21060545875542 A 83.5 83.5 0 0 1 -15.4247 82.063C -15.535358614362499 81.50214757227964 -15.622838514655369 80.97715325361432 -15.691354204989931 80.48932497850741 C -15.716778758329982 80.30830040322083 -15.739589710307072 80.13240217339334 -15.760004247534072 79.96169269224323 A 0.375 0.375 0 0 0 -16.0777 79.6434A 81.25 81.25 0 0 1 -16.1932 79.62A 0.375 0.375 0 0 0 -16.6098 79.7895C -16.695040341017815 79.93880278274777 -16.78452397105997 80.0919471810816 -16.878410584179246 80.2487961805914 C -17.131418971671394 80.67147523338963 -17.416363371246163 81.12100660797554 -17.73660819950315 81.59451233994649 A 83.5 83.5 0 0 1 -18.5377 81.4162C -18.626940721818045 80.85162030235617 -18.694370297710783 80.32367615769593 -18.744264349400215 79.83359309389775 C -18.76277873732287 79.65173182201701 -18.77887658222211 79.47509268089549 -18.792777288995616 79.3037297600639 A 0.375 0.375 0 0 0 -19.0981 78.9736A 81.25 81.25 0 0 1 -19.2127 78.9458A 0.375 0.375 0 0 0 -19.6354 79.0993C -19.72626409093548 79.24525895813532 -19.8215131653659 79.3948856289086 -19.92130306771254 79.54804659051398 C -20.190219727212877 79.96078701264267 -20.49207153362814 80.39914446330361 -20.83011089837294 80.86011497875728 A 83.5 83.5 0 0 1 -21.6238 80.6515C -21.691515545980142 80.08386591248576 -21.738797031034046 79.55373741036837 -21.769997102473315 79.06211013146903 C -21.78157448088608 78.87967584445225 -21.79093587837133 78.70255190190447 -21.79830259999544 78.53078400124419 A 0.375 0.375 0 0 0 -22.0909 78.1892A 81.25 81.25 0 0 1 -22.2043 78.1571A 0.375 0.375 0 0 0 -22.6325 78.2944C -22.7288866437708 78.43681708395538 -22.82976306053746 78.58270908279995 -22.935311566293073 78.7319599377489 C -23.21974659435401 79.13416329505434 -23.538068151347776 79.56071124539426 -23.893411927818406 80.00847818115244 A 83.5 83.5 0 0 1 -24.6786 79.7698C -24.72463974632998 79.19999757313568 -24.751704586911874 78.66845334920843 -24.76416544098015 78.17599466776228 C -24.76878902379113 77.99325187788476 -24.771400400730997 77.81589994669419 -24.772222456163632 77.64397611323997 A 0.375 0.375 0 0 0 -25.0516 77.2915A 81.25 81.25 0 0 1 -25.1637 77.2551A 0.375 0.375 0 0 0 -25.5968 77.376C -25.69855448387574 77.51464932363771 -25.804911981818215 77.65659512110265 -25.916066055739993 77.80171946992402 C -26.215607048763097 78.19280260598913 -26.549936820509572 78.60692260225844 -26.922069794201338 79.04083673907124 A 83.5 83.5 0 0 1 -27.6976 78.7724C -27.721915582746618 78.20129680889931 -27.72872453742508 77.6691075514708 -27.722428107075235 77.17653148548644 C -27.720091190531377 76.99374515232309 -27.71594876067895 76.81642237583495 -27.71022495801831 76.64459188270921 A 0.375 0.375 0 0 0 -27.976 76.2818A 81.25 81.25 0 0 1 -28.0866 76.2411A 0.375 0.375 0 0 0 -28.524 76.3455C -28.63096187678521 76.48009273227464 -28.742646247699362 76.61788652052381 -28.859244727006548 76.75867394678583 C -29.173457379188346 77.13806982845124 -29.523310619480736 77.53916143624558 -29.91169323315806 77.95859364009722 A 83.5 83.5 0 0 1 -30.6765 77.6608C -30.67899729180966 77.0892116404081 -30.66554048825135 76.55714897302379 -30.640495902705446 76.06516971070612 C -30.631201875112325 75.8826048569655 -30.620311644594867 75.70556833625346 -30.608050282807618 75.5340803212441 A 0.375 0.375 0 0 0 -30.8598 75.1614A 81.25 81.25 0 0 1 -30.9688 75.1166A 0.375 0.375 0 0 0 -31.4099 75.2042C -31.52185711212041 75.3346473180191 -31.638706424345543 75.46808930923272 -31.760580252390074 75.60433568462673 C -32.08900898542392 75.97149422413463 -32.45387844051011 76.35897589896743 -32.8579475765129 76.76331803326048 A 83.5 83.5 0 0 1 -33.6108 76.4367C -33.59159738774078 75.86535448483994 -33.55789433702437 75.33418984750182 -33.514137908537165 74.84352071174757 C -33.49790024534627 74.66144203901423 -33.48027800395692 74.48494846010847 -33.46149686084545 74.31405156444282 A 0.375 0.375 0 0 0 -33.6989 73.9321A 81.25 81.25 0 0 1 -33.8061 73.8831A 0.375 0.375 0 0 0 -34.2502 73.9539C -34.36704866816242 74.07997386721605 -34.488893501366704 74.20887058326407 -34.61586597274917 74.34037836357103 C -34.95803459637027 74.69476721613984 -35.33739124042224 75.06807714662622 -35.75656103713269 75.45674295392139 A 83.5 83.5 0 0 1 -36.4965 75.1017C -36.45549287884817 74.53149981806851 -36.40159244717516 74.0020033487209 -36.339187618384805 73.51335576286843 C -36.31602986265544 73.33202726781094 -36.2917011609595 73.15633252952794 -36.26642746738583 72.98627453736681 A 0.375 0.375 0 0 0 -36.4891 72.5955A 81.25 81.25 0 0 1 -36.5943 72.5425A 0.375 0.375 0 0 0 -37.0408 72.5963C -37.16241128915803 72.71789153642118 -37.28907497998181 72.84205608938798 -37.420961996757384 72.96863460089871 C -37.776374399173136 73.3097399365721 -38.16966820132387 73.66833685900164 -38.60333090260977 74.04076281103521 A 83.5 83.5 0 0 1 -39.3292 73.6578C -39.266531390460926 73.08958160184284 -39.19251172830431 72.5625210197459 -39.11154898024658 72.07660347607957 C -39.08150470851064 71.8962880676806 -39.05050482079973 71.72164691059425 -39.01877522120335 71.55267438976857 A 0.375 0.375 0 0 0 -39.2264 71.1537A 81.25 81.25 0 0 1 -39.3295 71.0968A 0.375 0.375 0 0 0 -39.7778 71.1335C -39.903891966546034 71.25037521479786 -40.03519086474678 71.36962757795185 -40.17180120334967 71.49109329392569 C -40.539942070554325 71.81842054257694 -40.946602792389974 72.16178452569433 -41.394129628793024 72.51743064044011 A 83.5 83.5 0 0 1 -42.1049 72.1071C -42.02063718547506 71.54169047972773 -41.92660561426862 71.01782997233806 -41.82720233518809 70.53534700484197 C -41.79031510876733 70.35630612320536 -41.75268898191501 70.18297176029759 -41.714549481181955 70.01532970480864 A 0.375 0.375 0 0 0 -41.9068 69.6088A 81.25 81.25 0 0 1 -42.0077 69.5479A 0.375 0.375 0 0 0 -42.457 69.5676C -42.58751581543245 69.67955266071638 -42.72325955016008 69.79371992953166 -42.86439513865938 69.90989673629268 C -43.24473070159011 70.22297130470405 -43.66416872394115 70.55060450355968 -44.12491082433256 70.88895512815138 A 83.5 83.5 0 0 1 -44.8195 70.4518C -44.71381707378301 69.89007074587037 -44.59990993031547 69.3701698608421 -44.48221024546377 68.89182102369331 C -44.438533547310044 68.71431426098094 -44.39433573560316 68.54253801050706 -44.349841632363315 68.37646948530853 A 0.375 0.375 0 0 0 -44.5265 67.9629A 81.25 81.25 0 0 1 -44.625 67.8982A 0.375 0.375 0 0 0 -45.0748 67.9008C -45.20939183779331 68.00770141670812 -45.349383593609694 68.11661805955941 -45.49483979889479 68.22733751184442 C -45.88681860734578 68.52570547182191 -46.318425785178476 68.8371328495995 -46.79171511756006 69.1576974079781 A 83.5 83.5 0 0 1 -47.4692 68.6945C -47.34216620201721 68.13711709098848 -47.20854864075698 67.62192963490187 -47.07272320342493 67.14840848818365 C -47.02232036057503 66.97269321223166 -46.9716149466152 66.80272413333286 -46.92083075306459 66.63846992190999 A 0.375 0.375 0 0 0 -47.0816 66.2185A 81.25 81.25 0 0 1 -47.1776 66.1501A 0.375 0.375 0 0 0 -47.6271 66.1355C -47.765718564050076 66.23724550724629 -47.909755366292615 66.34075360541397 -48.05932129077159 66.44585517060204 C -48.46237501294413 66.72908391712797 -48.90552555711269 67.02385393390247 -49.39067589719941 67.32616763810464 A 83.5 83.5 0 0 1 -50.05 66.8375C -49.90187371521443 66.28537113029759 -49.748739468851376 65.77564407571155 -49.59498521293807 65.30763717981756 C -49.53792930469557 65.13396816097753 -49.48078980648555 64.96605269256901 -49.42378915484981 64.80385094782552 A 0.375 0.375 0 0 0 -49.5685 64.378A 81.25 81.25 0 0 1 -49.6618 64.3061A 0.375 0.375 0 0 0 -50.1104 64.2744C -50.25278956483688 64.37075192414237 -50.40066257391238 64.46870140077958 -50.55412136129338 64.568032691649 C -50.967665607822646 64.83571157011782 -51.421716992403624 65.11339683754522 -51.91802491858318 65.3970213616013 A 83.5 83.5 0 0 1 -52.5583 64.8836C -52.38922828219096 64.33751771841202 -52.21679938074252 63.83399012082533 -52.045339235219984 63.37217604101271 C -51.981712987197234 63.20080508275904 -51.918222251546844 63.035186686217116 -51.85508778732153 62.87527258517623 A 0.375 0.375 0 0 0 -51.9834 62.4442A 81.25 81.25 0 0 1 -52.074 62.3688A 0.375 0.375 0 0 0 -52.5211 62.3201C -52.66699882496897 62.41092690465328 -52.81849363915108 62.50317574238294 -52.975622788863205 62.59659273805812 C -53.39905796012695 62.84833363968643 -53.86335185402046 63.108531540675926 -54.37009776724739 63.37305565614083 A 83.5 83.5 0 0 1 -54.9903 62.8356C -54.80062347661818 62.29638105656235 -54.6091499255071 61.79978298285381 -54.42023249119457 61.344831305388425 C -54.35012815536849 61.17600687922735 -54.28037823777463 61.01292568539374 -54.21120149989715 60.85553108821403 A 0.375 0.375 0 0 0 -54.3231 60.4199A 81.25 81.25 0 0 1 -54.4106 60.3411A 0.375 0.375 0 0 0 -54.8555 60.2754C -55.00484597181979 60.360612007696176 -55.15974293811099 60.44702645452267 -55.32031462790886 60.53439370929063 C -55.75302678338956 60.769831633837725 -56.22689000483637 61.012164906308044 -56.743339171981894 61.2572050785031 A 83.5 83.5 0 0 1 -57.3427 60.6965C -57.132563005995785 60.16492059777373 -56.9223224235661 59.67597206767495 -56.71622161268267 59.22854242899532 C -56.63974083363815 59.062509314205 -56.56383286481319 58.902201775220036 -56.488714152940105 58.74755488902035 A 0.375 0.375 0 0 0 -56.5839 58.308A 81.25 81.25 0 0 1 -56.6684 58.2259A 0.375 0.375 0 0 0 -57.1105 58.1433C -57.26294135052688 58.222779993859575 -57.42101588313434 58.303234757096305 -57.58479729941856 58.384425596790024 C -58.02615904785844 58.603219181773405 -58.50890454048925 58.82733646564676 -59.03430815963403 59.052537409748346 A 83.5 83.5 0 0 1 -59.6119 58.4695C -59.38166578094185 57.946226755941716 -59.15296299593891 57.4656366980774 -58.92997763495692 57.02637782838491 C -58.847231302511936 56.86337675710887 -58.7652753417538 56.70607530357853 -58.68432357083591 56.55440035155946 A 0.375 0.375 0 0 0 -58.7627 56.1115A 81.25 81.25 0 0 1 -58.844 56.0263A 0.375 0.375 0 0 0 -59.2827 55.9269C -59.43801093866712 56.0005305151848 -59.59903384463063 56.07490894311664 -59.76578752000523 56.14980564878047 C -60.215158929063676 56.35163766441878 -60.70608675806508 56.55721401105938 -61.23968304419044 56.76224920722798 A 83.5 83.5 0 0 1 -61.7946 56.1576C -61.544670817449024 55.64351642502776 -61.29783742704687 55.171981649036944 -61.058290823422126 54.74153043169909 C -60.96939891184811 54.581797739907614 -60.881513787464826 54.42773044390136 -60.79484632983088 54.27924734024307 A 0.375 0.375 0 0 0 -60.8563 53.8337A 81.25 81.25 0 0 1 -60.9343 53.7454A 0.375 0.375 0 0 0 -61.3689 53.6294C -61.526901093276436 53.69708562096675 -61.69063890477631 53.765279871983836 -61.86012306235381 53.83377385055478 C -62.31685258644801 54.018351659720665 -62.815250953401126 54.20508900307917 -63.3562662429045 54.38966116988191 A 83.5 83.5 0 0 1 -63.8878 53.7643C -63.61844196499974 53.260128314870364 -63.35383585401695 52.79833250109907 -63.09807532742383 52.37731304922944 C -63.003166721494395 52.221080334055046 -62.909479858514416 52.07047057842309 -62.81722237369251 51.92539460943075 A 0.375 0.375 0 0 0 -62.8617 51.4779A 81.25 81.25 0 0 1 -62.9363 51.3866A 0.375 0.375 0 0 0 -63.3661 51.2542C -63.526583123330525 51.31578508609054 -63.69279843619357 51.37769628504832 -63.864767340148326 51.43968822680553 C -64.32819276513213 51.606744209321526 -64.83333904005222 51.77437179810235 -65.38098891248542 51.93821332354262 A 83.5 83.5 0 0 1 -65.8883 51.2931C -65.59997245368452 50.79951811037512 -65.31797727568541 50.34813081860519 -65.04637365443652 49.93715357015914 C -64.94558596255693 49.78464735410282 -64.84623319797502 49.63771350859241 -64.74851945049825 49.49625502055166 A 0.375 0.375 0 0 0 -64.7759 49.0474A 81.25 81.25 0 0 1 -64.847 48.9534A 0.375 0.375 0 0 0 -65.2714 48.8046C -65.43415768105729 48.860081568677195 -65.60260949897018 48.91561995025596 -65.77681381083187 48.97101997281037 C -66.24626321414293 49.12031191347254 -66.75742498322384 49.26858670369729 -67.31091539862766 49.41146003322662 A 83.5 83.5 0 0 1 -67.7933 48.7475C -67.48638925373092 48.2652534611019 -67.1874138747646 47.82492915975336 -66.9003609581452 47.42458999245133 C -66.79384031283327 47.27603139494663 -66.68896569865987 47.13298649958673 -66.58593736412051 46.99535059378167 A 0.375 0.375 0 0 0 -66.5962 46.5457A 81.25 81.25 0 0 1 -66.6637 46.4491A 0.375 0.375 0 0 0 -67.0821 46.2843C -67.24685896571397 46.33353560405929 -67.4173030496449 46.38262064291527 -67.5934901898154 46.43134842153049 C -68.06828291469876 46.56265986129731 -68.58471904224287 46.691366868695376 -69.14324749242918 46.81306484964477 A 83.5 83.5 0 0 1 -69.6 46.1312C -69.27495724112215 45.66100880851399 -68.9594351469058 45.23238592572837 -68.65734913420245 44.84326529309014 C -68.54524998021041 44.6988697099011 -68.43500557460995 44.55992116611476 -68.3268120342435 44.42630740145067 A 0.375 0.375 0 0 0 -68.32 43.9766A 81.25 81.25 0 0 1 -68.3837 43.8775A 0.375 0.375 0 0 0 -68.7956 43.6969C -68.96205873373377 43.73981044234544 -69.13424795605565 43.782370969864864 -69.31216247002538 43.82435585392031 C -69.79161011242057 43.937496403757635 -70.31257181541471 44.046449015472795 -70.8753284875266 44.146795197404316 A 83.5 83.5 0 0 1 -71.3058 43.4481C -70.96308316326528 42.99056005838947 -70.63147183067129 42.57426005637005 -70.3147907177227 42.19692214611264 C -70.19727558810706 42.05689893703053 -70.08182123492817 41.922248206922625 -69.96861935902479 41.79285031058469 A 0.375 0.375 0 0 0 -69.9447 41.3438A 81.25 81.25 0 0 1 -70.0046 41.2423A 0.375 0.375 0 0 0 -70.4093 41.0461C -70.5772701094278 41.08266673705745 -70.75095481222972 41.11864104454425 -70.93033874096221 41.15382215997184 C -71.4137461476234 41.248627776898736 -71.93847808140269 41.33766802205999 -72.50464703206568 41.41651691260302 A 83.5 83.5 0 0 1 -72.9082 40.7019C -72.54831939895966 40.257779106118505 -72.20109963271791 39.854405580069546 -71.87028257686285 39.48939749608897 C -71.74752185732699 39.35394968138061 -71.62702495434426 39.22379199563706 -71.50897887480176 39.098797582204384 A 0.375 0.375 0 0 0 -71.4679 38.6509A 81.25 81.25 0 0 1 -71.5239 38.5472A 0.375 0.375 0 0 0 -71.9209 38.3358C -72.09015119071701 38.36595709254261 -72.26507954778431 38.39529302069011 -72.44567280173219 38.42361935823581 C -72.93233907813395 38.49995258317126 -73.46008043155925 38.56895136193544 -74.02884076992115 38.62618863773674 A 83.5 83.5 0 0 1 -74.4049 37.8967C -74.02836750721355 37.46662822282551 -73.6660427427906 37.07676602579689 -73.32156939713362 36.7246169949198 C -73.19374107898481 36.59394096096758 -73.06837633518795 36.468465035789514 -72.94565720753636 36.348055335212 A 0.375 0.375 0 0 0 -72.8876 35.9021A 81.25 81.25 0 0 1 -72.9396 35.7963A 0.375 0.375 0 0 0 -73.3282 35.57C -73.49850844466641 35.59362047806538 -73.6744268266047 35.61627549258231 -73.85596756281461 35.63770598176472 C -74.3451870893819 35.695456138830075 -74.87517268794335 35.74431340956433 -75.44569976588754 35.77985608204591 A 83.5 83.5 0 0 1 -75.7937 35.0366C -75.40108155976407 34.62115431045453 -75.02417713342972 34.245368705360754 -74.66654695139005 33.90658931001614 C -74.53383637346911 33.780874524576525 -74.40378555575163 33.66026228805983 -74.27657131099397 33.54461188289205 A 0.375 0.375 0 0 0 -74.2016 33.1012A 81.25 81.25 0 0 1 -74.2495 32.9935A 0.375 0.375 0 0 0 -74.6292 32.7525C -74.80029988789808 32.76967651667883 -74.97695322987148 32.78561776995997 -75.1591782316314 32.80012133861854 C -75.65024168682054 32.83920469560703 -76.18170310206732 32.867849619939605 -76.75316970987375 32.88164615562428 A 83.5 83.5 0 0 1 -77.0726 32.1257C -76.66447125246772 31.72548303414857 -76.27353363960772 31.364318874191547 -75.90326515075954 31.039400312115024 C -75.76586473071721 30.91882904960847 -75.63131640033181 30.803255377965456 -75.4997914869612 30.692531950238596 A 0.375 0.375 0 0 0 -75.408 30.2523A 81.25 81.25 0 0 1 -75.4518 30.1429A 0.375 0.375 0 0 0 -75.822 29.8876C -75.9936380472718 29.898219657155167 -76.1707702188227 29.907424035907265 -76.35341527730094 29.914979655254005 C -76.84561066604806 29.935339545034402 -77.37777732973628 29.94373059056348 -77.94935489545635 29.935760985793483 A 83.5 83.5 0 0 1 -78.2398 29.1682C -77.81670479105135 28.78381284042928 -77.41230081383037 28.43779377911332 -77.02993087208449 28.12720715115739 C -76.88803982739421 28.01195422838779 -76.74918906655701 27.901586692393387 -76.61354418312392 27.79595078049239 A 0.375 0.375 0 0 0 -76.505 27.3595A 81.25 81.25 0 0 1 -76.5446 27.2485A 0.375 0.375 0 0 0 -76.9049 26.9793C -77.07679269654076 26.983413237426774 -77.25414687295438 26.985867396180588 -77.43694717027721 26.986464111289763 C -77.92956085632295 26.988071013968316 -78.4616611776659 26.976196014480077 -79.0325209684727 26.946471824420417 A 83.5 83.5 0 0 1 -79.2935 26.1684C -78.85611154703865 25.80040886985117 -78.43882755256223 25.470036601735437 -78.04491055777923 25.174232228818248 C -77.89873461689089 25.064464751505334 -77.75578274593084 24.959463373535492 -77.61621456454847 24.85906813943372 A 0.375 0.375 0 0 0 -77.4912 24.4271A 81.25 81.25 0 0 1 -77.5265 24.3146A 0.375 0.375 0 0 0 -77.8763 24.0319C -78.0481933650141 24.029483448143946 -78.2255123996899 24.025183828603904 -78.40820289290207 24.01882077429565 C -78.900520633496 24.00167236001709 -79.43178311789706 23.969548533125536 -80.00109744166863 23.918112855010136 A 83.5 83.5 0 0 1 -80.2323 23.1307C -79.78118448000168 22.77959677295527 -79.35162549016908 22.465350306244623 -78.94673258433261 22.184757076427733 C -78.79648368838593 22.08063419691973 -78.64963797384956 21.981151218934276 -78.50634885503807 21.886142226123305 A 0.375 0.375 0 0 0 -78.3649 21.4592A 81.25 81.25 0 0 1 -78.396 21.3455A 0.375 0.375 0 0 0 -78.7347 21.0497C -78.9064316145894 21.040713205102723 -79.08345841187895 21.029666041306108 -79.26577421723069 21.01635244340086 C -79.757082198715 20.980473575726492 -80.28673656636094 20.928147497909542 -80.85367997175483 20.855074908554368 A 83.5 83.5 0 0 1 -81.0548 20.0594C -80.59058232262551 19.725756438489654 -80.14937115690576 19.42809140051856 -79.73408939602108 19.16311614716022 C -79.57998539155125 19.064788833678172 -79.4294587456861 18.97096849648452 -79.28265644496916 18.881483498920964 A 0.375 0.375 0 0 0 -79.1251 18.4602A 81.25 81.25 0 0 1 -79.1518 18.3455A 0.375 0.375 0 0 0 -79.479 18.037C -79.65026308185314 18.021435939426173 -79.8267409698243 18.003657248704368 -80.00841774682739 17.983412410646302 C -80.49800361959846 17.928855110504195 -81.02528192229167 17.856402649572264 -81.58903239557036 17.761799097246076 A 83.5 83.5 0 0 1 -81.7597 16.959C -81.28313152541756 16.643315642989183 -80.8309078978207 16.36266361960564 -80.4058394007398 16.113690531491343 C -80.2481037238208 16.02130134923961 -80.09411439587286 15.933279683357373 -79.94401176255211 15.849448425732861 A 0.375 0.375 0 0 0 -79.7705 15.4345A 81.25 81.25 0 0 1 -79.7928 15.3188A 0.375 0.375 0 0 0 -80.1081 14.9981C -80.27860928228876 14.976029314503837 -80.45428238487543 14.951544874258731 -80.63505671957174 14.924398149127601 C -81.12221063091887 14.851241519387234 -81.64634836552875 14.758767724482148 -82.20608852240109 14.642770375291628 A 83.5 83.5 0 0 1 -82.346 13.8341C -81.85782795824207 13.536743630923151 -81.39524754979514 13.273511540730478 -80.96100862520183 13.040901605035916 C -80.79986997748554 12.954584509496277 -80.6426412372588 12.872489137926031 -80.48945590580257 12.794433167549762 A 0.375 0.375 0 0 0 -80.3003 12.3864A 81.25 81.25 0 0 1 -80.3182 12.2699A 0.375 0.375 0 0 0 -80.621 11.9374C -80.79055917397615 11.90890887879802 -80.9651727819741 11.877754189127234 -81.14478256886048 11.843744937079226 C -81.62879819218463 11.752095047859878 -82.14903540910407 11.63973399714367 -82.70395367985425 11.502511036155687 A 83.5 83.5 0 0 1 -82.813 10.6891C -82.31383836621305 10.410544634717757 -81.84157187428517 10.165114139081489 -81.39879212710645 9.949204617975695 C -81.23448414422703 9.869084760684682 -81.0742439583636 9.79303471386681 -80.91819803285787 9.720867204433608 A 0.375 0.375 0 0 0 -80.7137 9.32034A 81.25 81.25 0 0 1 -80.7271 9.20326A 0.375 0.375 0 0 0 -81.017 8.85947C -81.18537047851525 8.824521663720951 -81.3586714188861 8.78674189594609 -81.53685624094244 8.745919427145356 C -82.01703179986215 8.635909162024582 -82.53261420486177 8.503823768278963 -83.08190601104793 8.345574155668308 A 83.5 83.5 0 0 1 -83.1599 7.5286C -82.6505015778339 7.269251344049988 -82.16923374368925 7.0419782937254105 -81.71855516222836 6.843082235372832 C -81.551316075053 6.769275782463985 -81.38829677650328 6.699381325695912 -81.22961650862187 6.633206913195174 A 0.375 0.375 0 0 0 -81.01 6.24075A 81.25 81.25 0 0 1 -81.0189 6.12325A 0.375 0.375 0 0 0 -81.2956 5.76867C -81.46247075725881 5.727339735864079 -81.63420776020678 5.682989667036631 -81.81070926647573 5.635413170160271 C -82.28634855233577 5.507202033505407 -82.7965286002185 5.355583807923822 -83.33939752123449 5.176536990499963 A 83.5 83.5 0 0 1 -83.3863 4.35718C -82.86732946363313 4.1174183338806225 -82.37775807962154 3.9086322530631867 -81.91983410473631 3.7270380377337844 C -81.74990639395318 3.6596520015078506 -81.58434434511528 3.596014475069919 -81.42325980607664 3.535929106073433 A 0.375 0.375 0 0 0 -81.1888 3.15212A 81.25 81.25 0 0 1 -81.1933 3.03436A 0.375 0.375 0 0 0 -81.4563 2.66951C -81.62145824129372 2.621853712929342 -81.79138230458273 2.570997646409203 -81.9659445847539 2.5167361028293254 C -82.43635796606138 2.370509988531415 -82.94039594453147 2.1995787630461123 -83.47605487234061 1.9999943415772712 A 83.5 83.5 0 0 1 -83.4917 1.17945C -82.96400764390529 0.9596154607562578 -82.46684254173009 0.7696190693030023 -82.00233711940614 0.6055899912484242 C -81.82996716395064 0.5447220750157651 -81.66210241396747 0.487433747237499 -81.49884716095339 0.43352453978609207 A 0.375 0.375 0 0 0 -81.25 0.0589221A 81.25 81.25 0 0 1 -81.25 -0.0589221A 0.375 0.375 0 0 0 -81.4988 -0.433524C -81.66210241396747 -0.48743374723747923 -81.82996716395064 -0.5447220750157451 -82.00233711940614 -0.6055899912484042 C -82.46684254173009 -0.7696190693029823 -82.96400764390529 -0.9596154607562376 -83.49167992427174 -1.1794481079393915 A 83.5 83.5 0 0 1 -83.4761 -1.99999C -82.94039594453147 -2.1995787630460923 -82.43635796606138 -2.3705099885313956 -81.9659445847539 -2.516736102829305 C -81.79138230458273 -2.5709976464091833 -81.62145824129372 -2.6218537129293225 -81.4562689788137 -2.669508595638617 A 0.375 0.375 0 0 0 -81.1933 -3.03436A 81.25 81.25 0 0 1 -81.1888 -3.15212A 0.375 0.375 0 0 0 -81.4233 -3.53593C -81.58434434511528 -3.5960144750698984 -81.74990639395318 -3.65965200150783 -81.91983410473631 -3.727038037733764 C -82.37775807962154 -3.9086322530631663 -82.86732946363313 -4.117418333880601 -83.38625002219634 -4.357180470455861 A 83.5 83.5 0 0 1 -83.3394 -5.17654C -82.7965286002185 -5.355583807923801 -82.28634855233577 -5.507202033505386 -81.81070926647573 -5.635413170160251 C -81.63420776020678 -5.682989667036612 -81.46247075725881 -5.727339735864058 -81.2955869939512 -5.768671198807164 A 0.375 0.375 0 0 0 -81.0189 -6.12325A 81.25 81.25 0 0 1 -81.01 -6.24075A 0.375 0.375 0 0 0 -81.2296 -6.63321C -81.38829677650328 -6.699381325695891 -81.551316075053 -6.769275782463963 -81.71855516222836 -6.843082235372812 C -82.16923374368925 -7.041978293725391 -82.6505015778339 -7.269251344049968 -83.15991802939324 -7.5285953378407875 A 83.5 83.5 0 0 1 -83.0819 -8.34557C -82.53261420486177 -8.503823768278943 -82.01703179986215 -8.63590916202456 -81.53685624094244 -8.745919427145337 C -81.3586714188861 -8.786741895946069 -81.18537047851525 -8.82452166372093 -81.0170341798826 -8.859469780227908 A 0.375 0.375 0 0 0 -80.7271 -9.20326A 81.25 81.25 0 0 1 -80.7137 -9.32034A 0.375 0.375 0 0 0 -80.9182 -9.72087C -81.0742439583636 -9.793034713866792 -81.23448414422703 -9.869084760684665 -81.39879212710643 -9.949204617975678 C -81.84157187428517 -10.16511413908147 -82.31383836621305 -10.410544634717738 -82.81301210561445 -10.689094461726652 A 83.5 83.5 0 0 1 -82.704 -11.5025C -82.14903540910407 -11.63973399714365 -81.62879819218463 -11.75209504785986 -81.14478256886049 -11.843744937079208 C -80.9651727819741 -11.877754189127216 -80.79055917397615 -11.908908878798002 -80.62101441155835 -11.937422977440987 A 0.375 0.375 0 0 0 -80.3182 -12.2699A 81.25 81.25 0 0 1 -80.3003 -12.3864A 0.375 0.375 0 0 0 -80.4895 -12.7944C -80.6426412372588 -12.872489137926012 -80.79986997748554 -12.954584509496259 -80.96100862520183 -13.040901605035899 C -81.39524754979514 -13.273511540730459 -81.85782795824207 -13.536743630923132 -82.34603523128492 -13.834095420530604 A 83.5 83.5 0 0 1 -82.2061 -14.6428C -81.64634836552875 -14.758767724482128 -81.12221063091887 -14.851241519387214 -80.63505671957174 -14.924398149127583 C -80.45428238487543 -14.951544874258714 -80.27860928228876 -14.976029314503817 -80.10810187978268 -14.998068052565754 A 0.375 0.375 0 0 0 -79.7928 -15.3188A 81.25 81.25 0 0 1 -79.7705 -15.4345A 0.375 0.375 0 0 0 -79.944 -15.8494C -80.09411439587286 -15.933279683357355 -80.2481037238208 -16.021301349239593 -80.4058394007398 -16.113690531491326 C -80.8309078978207 -16.362663619605627 -81.28313152541756 -16.64331564298916 -81.75966447822897 -16.959038263527372 A 83.5 83.5 0 0 1 -81.589 -17.7618C -81.02528192229167 -17.856402649572242 -80.49800361959846 -17.928855110504173 -80.00841774682739 -17.983412410646284 C -79.8267409698243 -18.00365724870435 -79.65026308185314 -18.021435939426155 -79.47904025869174 -18.036967362843775 A 0.375 0.375 0 0 0 -79.1518 -18.3455A 81.25 81.25 0 0 1 -79.1251 -18.4602A 0.375 0.375 0 0 0 -79.2827 -18.8815C -79.42945874568609 -18.970968496484502 -79.57998539155125 -19.06478883367815 -79.73408939602108 -19.163116147160203 C -80.14937115690576 -19.42809140051854 -80.59058232262551 -19.725756438489633 -81.05475002798094 -20.05939212234219 A 83.5 83.5 0 0 1 -80.8537 -20.8551C -80.28673656636094 -20.92814749790952 -79.757082198715 -20.98047357572647 -79.26577421723069 -21.01635244340084 C -79.08345841187895 -21.029666041306086 -78.90643161458941 -21.040713205102705 -78.73474162749723 -21.049714794796873 A 0.375 0.375 0 0 0 -78.396 -21.3455A 81.25 81.25 0 0 1 -78.3649 -21.4592A 0.375 0.375 0 0 0 -78.5063 -21.8861C -78.64963797384958 -21.98115121893426 -78.79648368838593 -22.080634196919714 -78.94673258433261 -22.18475707642772 C -79.3516254901691 -22.46535030624461 -79.7811844800017 -22.77959677295526 -80.23231393910324 -23.130661780276455 A 83.5 83.5 0 0 1 -80.0011 -23.9181C -79.43178311789707 -23.969548533125526 -78.90052063349601 -24.001672360017075 -78.40820289290207 -24.018820774295637 C -78.2255123996899 -24.02518382860389 -78.04819336501411 -24.02948344814393 -77.87628514805871 -24.031942152670155 A 0.375 0.375 0 0 0 -77.5265 -24.3146A 81.25 81.25 0 0 1 -77.4912 -24.4271A 0.375 0.375 0 0 0 -77.6162 -24.8591C -77.75578274593084 -24.959463373535478 -77.8987346168909 -25.064464751505316 -78.04491055777925 -25.174232228818234 C -78.43882755256223 -25.470036601735423 -78.85611154703865 -25.800408869851157 -79.29354866529903 -26.16839418994253 A 83.5 83.5 0 0 1 -79.0325 -26.9465C -78.4616611776659 -26.976196014480063 -77.92956085632295 -26.9880710139683 -77.43694717027722 -26.98646411128975 C -77.2541468729544 -26.985867396180577 -77.07679269654076 -26.98341323742676 -76.90491550020214 -26.97932549189853 A 0.375 0.375 0 0 0 -76.5446 -27.2485A 81.25 81.25 0 0 1 -76.505 -27.3595A 0.375 0.375 0 0 0 -76.6135 -27.796C -76.74918906655701 -27.90158669239337 -76.88803982739421 -28.011954228387772 -77.02993087208449 -28.12720715115737 C -77.41230081383037 -28.437793779113303 -77.81670479105135 -28.783812840429263 -78.23981532646847 -29.16818492975642 A 83.5 83.5 0 0 1 -77.9494 -29.9358C -77.37777732973628 -29.94373059056346 -76.84561066604806 -29.935339545034385 -76.35341527730094 -29.914979655253987 C -76.1707702188227 -29.907424035907248 -75.9936380472718 -29.89821965715515 -75.82204107705302 -29.88759138841268 A 0.375 0.375 0 0 0 -75.4518 -30.1429A 81.25 81.25 0 0 1 -75.408 -30.2523A 0.375 0.375 0 0 0 -75.4998 -30.6925C -75.63131640033181 -30.80325537796544 -75.76586473071721 -30.918829049608448 -75.90326515075954 -31.039400312115006 C -76.27353363960772 -31.364318874191525 -76.66447125246772 -31.72548303414855 -77.07264173521499 -32.125684589928305 A 83.5 83.5 0 0 1 -76.7532 -32.8816C -76.18170310206732 -32.867849619939584 -75.65024168682054 -32.83920469560701 -75.1591782316314 -32.800121338618524 C -74.97695322987148 -32.78561776995995 -74.80029988789808 -32.76967651667881 -74.6292319430011 -32.752523134695714 A 0.375 0.375 0 0 0 -74.2495 -32.9935A 81.25 81.25 0 0 1 -74.2016 -33.1012A 0.375 0.375 0 0 0 -74.2766 -33.5446C -74.40378555575164 -33.66026228805982 -74.53383637346913 -33.780874524576504 -74.66654695139005 -33.906589310016116 C -75.02417713342973 -34.24536870536073 -75.40108155976407 -34.621154310454514 -75.79372018166302 -35.036605078690634 A 83.5 83.5 0 0 1 -75.4457 -35.7799C -74.87517268794335 -35.74431340956431 -74.34518708938191 -35.69545613883005 -73.85596756281461 -35.6377059817647 C -73.67442682660472 -35.61627549258229 -73.49850844466643 -35.59362047806537 -73.32821755725713 -35.56996685360564 A 0.375 0.375 0 0 0 -72.9396 -35.7963A 81.25 81.25 0 0 1 -72.8876 -35.9021A 0.375 0.375 0 0 0 -72.9457 -36.3481C -73.06837633518795 -36.46846503578949 -73.19374107898483 -36.59394096096756 -73.32156939713363 -36.724616994919785 C -73.6660427427906 -37.07676602579687 -74.02836750721356 -37.46662822282549 -74.40490497979903 -37.896725839621524 A 83.5 83.5 0 0 1 -74.0288 -38.6262C -73.46008043155926 -38.56895136193542 -72.93233907813395 -38.499952583171236 -72.4456728017322 -38.4236193582358 C -72.26507954778432 -38.39529302069009 -72.09015119071701 -38.36595709254259 -71.92088426630214 -38.335837521100395 A 0.375 0.375 0 0 0 -71.5239 -38.5472A 81.25 81.25 0 0 1 -71.4679 -38.6509A 0.375 0.375 0 0 0 -71.509 -39.0988C -71.62702495434425 -39.22379199563707 -71.74752185732697 -39.35394968138063 -71.87028257686283 -39.48939749608898 C -72.20109963271791 -39.85440558006956 -72.54831939895965 -40.25777910611852 -72.90820977889373 -40.701899971047844 A 83.5 83.5 0 0 1 -72.5046 -41.4165C -71.93847808140268 -41.33766802206 -71.4137461476234 -41.24862777689875 -70.9303387409622 -41.15382215997185 C -70.75095481222971 -41.11864104454426 -70.57727010942779 -41.082666737057465 -70.40927256886567 -41.04612488913192 A 0.375 0.375 0 0 0 -70.0046 -41.2423A 81.25 81.25 0 0 1 -69.9447 -41.3438A 0.375 0.375 0 0 0 -69.9686 -41.7929C -70.08182123492819 -41.92224820692261 -70.19727558810708 -42.05689893703052 -70.3147907177227 -42.19692214611262 C -70.63147183067129 -42.574260056370036 -70.9630831632653 -42.990560058389455 -71.30580464390297 -43.448060238656296 A 83.5 83.5 0 0 1 -70.8753 -44.1468C -70.31257181541473 -44.04644901547278 -69.79161011242057 -43.93749640375762 -69.31216247002538 -43.82435585392029 C -69.13424795605566 -43.78237096986485 -68.96205873373378 -43.73981044234542 -68.79557415739752 -43.69689930012259 A 0.375 0.375 0 0 0 -68.3837 -43.8775A 81.25 81.25 0 0 1 -68.32 -43.9766A 0.375 0.375 0 0 0 -68.3268 -44.4263C -68.43500557460995 -44.559921166114776 -68.5452499802104 -44.69886970990112 -68.65734913420245 -44.843265293090155 C -68.95943514690579 -45.232385925728394 -69.27495724112215 -45.66100880851401 -69.60001290908099 -46.13122497259445 A 83.5 83.5 0 0 1 -69.1432 -46.8131C -68.58471904224287 -46.6913668686954 -68.06828291469874 -46.562659861297334 -67.5934901898154 -46.4313484215305 C -67.41730304964489 -46.382620642915285 -67.24685896571397 -46.33353560405931 -67.08212874032317 -46.28431738459307 A 0.375 0.375 0 0 0 -66.6637 -46.4491A 81.25 81.25 0 0 1 -66.5962 -46.5457A 0.375 0.375 0 0 0 -66.5859 -46.9954C -66.68896569865987 -47.132986499586714 -66.79384031283327 -47.276031394946614 -66.9003609581452 -47.42458999245132 C -67.18741387476462 -47.824929159753346 -67.48638925373092 -48.265253461101885 -67.793307809368 -48.7475038405111 A 83.5 83.5 0 0 1 -67.3109 -49.4115C -66.75742498322384 -49.268586703697274 -66.24626321414294 -49.12031191347253 -65.77681381083187 -48.97101997281035 C -65.60260949897018 -48.915619950255945 -65.43415768105729 -48.86008156867718 -65.2714206496904 -48.80462763368044 A 0.375 0.375 0 0 0 -64.847 -48.9534A 81.25 81.25 0 0 1 -64.7759 -49.0474A 0.375 0.375 0 0 0 -64.7485 -49.4963C -64.84623319797502 -49.63771350859243 -64.94558596255692 -49.784647354102844 -65.04637365443651 -49.93715357015916 C -65.3179772756854 -50.34813081860521 -65.5999724536845 -50.79951811037513 -65.88830889443585 -51.29310348816658 A 83.5 83.5 0 0 1 -65.381 -51.9382C -64.83333904005221 -51.774371798102365 -64.32819276513212 -51.60674420932155 -63.86476734014831 -51.43968822680555 C -63.692798436193556 -51.377696285048344 -63.526583123330525 -51.31578508609056 -63.3660752391252 -51.25417583846764 A 0.375 0.375 0 0 0 -62.9363 -51.3866A 81.25 81.25 0 0 1 -62.8617 -51.4779A 0.375 0.375 0 0 0 -62.8172 -51.9254C -62.90947985851444 -52.070470578423084 -63.003166721494416 -52.22108033405503 -63.09807532742385 -52.37731304922943 C -63.35383585401697 -52.79833250109906 -63.618441964999754 -53.26012831487036 -63.887778230591536 -53.76433303943347 A 83.5 83.5 0 0 1 -63.3563 -54.3897C -62.81525095340114 -54.205089003079166 -62.31685258644803 -54.01835165972066 -61.86012306235383 -53.83377385055476 C -61.69063890477633 -53.76527987198382 -61.52690109327646 -53.697085620966746 -61.368855077320106 -53.62941038823678 A 0.375 0.375 0 0 0 -60.9343 -53.7454A 81.25 81.25 0 0 1 -60.8563 -53.8337A 0.375 0.375 0 0 0 -60.7948 -54.2792C -60.88151378746483 -54.42773044390135 -60.96939891184812 -54.58179773990761 -61.05829082342213 -54.74153043169908 C -61.29783742704688 -55.17198164903694 -61.54467081744904 -55.643516425027755 -61.79461639604493 -56.15760944771436 A 83.5 83.5 0 0 1 -61.2397 -56.7622C -60.70608675806509 -56.55721401105937 -60.21515892906368 -56.351637664418774 -59.76578752000524 -56.149805648780465 C -59.59903384463064 -56.07490894311663 -59.43801093866713 -56.00053051518479 -59.28265594257353 -55.926887419965425 A 0.375 0.375 0 0 0 -58.844 -56.0263A 81.25 81.25 0 0 1 -58.7627 -56.1115A 0.375 0.375 0 0 0 -58.6843 -56.5544C -58.76527534175382 -56.70607530357851 -58.84723130251196 -56.86337675710885 -58.929977634956934 -57.02637782838489 C -59.15296299593893 -57.465636698077375 -59.381665780941866 -57.946226755941694 -59.61185827534795 -58.46946269101668 A 83.5 83.5 0 0 1 -59.0343 -59.0525C -58.50890454048926 -58.82733646564674 -58.026159047858464 -58.60321918177338 -57.584797299418575 -58.38442559679 C -57.42101588313436 -58.30323475709629 -57.2629413505269 -58.222779993859554 -57.11050262418831 -58.1432758115985 A 0.375 0.375 0 0 0 -56.6684 -58.2259A 81.25 81.25 0 0 1 -56.5839 -58.308A 0.375 0.375 0 0 0 -56.4887 -58.7476C -56.56383286481322 -58.90220177522003 -56.63974083363818 -59.062509314204995 -56.7162216126827 -59.22854242899531 C -56.92232242356613 -59.67597206767494 -57.13256300599581 -60.16492059777372 -57.3426686591018 -60.69654080315308 A 83.5 83.5 0 0 1 -56.7433 -61.2572C -56.2268900048364 -61.01216490630804 -55.753026783389586 -60.76983163383772 -55.320314627908886 -60.534393709290626 C -55.159742938111016 -60.447026454522664 -55.00484597181982 -60.36061200769617 -54.85554453681614 -60.27536201185703 A 0.375 0.375 0 0 0 -54.4106 -60.3411A 81.25 81.25 0 0 1 -54.3231 -60.4199A 0.375 0.375 0 0 0 -54.2112 -60.8555C -54.28037823777465 -61.01292568539372 -54.3501281553685 -61.17600687922734 -54.42023249119459 -61.34483130538841 C -54.60914992550711 -61.7997829828538 -54.80062347661819 -62.29638105656234 -54.990337655313404 -62.83561473377166 A 83.5 83.5 0 0 1 -54.3701 -63.3731C -53.86335185402047 -63.10853154067591 -53.39905796012697 -62.848333639686416 -52.97562278886323 -62.596592738058106 C -52.81849363915109 -62.50317574238293 -52.66699882496899 -62.41092690465326 -52.52105115410761 -62.320054699580034 A 0.375 0.375 0 0 0 -52.074 -62.3688A 81.25 81.25 0 0 1 -51.9834 -62.4442A 0.375 0.375 0 0 0 -51.8551 -62.8753C -51.91822225154689 -63.03518668621708 -51.981712987197284 -63.200805082759004 -52.04533923522003 -63.37217604101267 C -52.21679938074257 -63.833990120825284 -52.389228282191 -64.33751771841197 -52.55827591905317 -64.88358303017056 A 83.5 83.5 0 0 1 -51.918 -65.397C -51.421716992403674 -65.11339683754518 -50.967665607822696 -64.83571157011778 -50.554121361293426 -64.56803269164897 C -50.40066257391243 -64.46870140077954 -50.252789564836924 -64.37075192414234 -50.11040726828787 -64.2743892658449 A 0.375 0.375 0 0 0 -49.6618 -64.3061A 81.25 81.25 0 0 1 -49.5685 -64.378A 0.375 0.375 0 0 0 -49.4238 -64.8039C -49.48078980648557 -64.966052692569 -49.53792930469559 -65.13396816097752 -49.594985212938084 -65.30763717981753 C -49.7487394688514 -65.77564407571154 -49.90187371521445 -66.28537113029755 -50.050009707331235 -66.83747633410772 A 83.5 83.5 0 0 1 -49.3907 -67.3262C -48.90552555711271 -67.02385393390246 -48.46237501294415 -66.72908391712795 -48.05932129077161 -66.44585517060202 C -47.909755366292636 -66.34075360541395 -47.7657185640501 -66.23724550724627 -47.62710808253148 -66.1355321123668 A 0.375 0.375 0 0 0 -47.1776 -66.1501A 81.25 81.25 0 0 1 -47.0816 -66.2185A 0.375 0.375 0 0 0 -46.9208 -66.6385C -46.97161494661522 -66.80272413333284 -47.022320360575044 -66.97269321223163 -47.07272320342494 -67.14840848818362 C -47.208548640756995 -67.62192963490186 -47.342166202017225 -68.13711709098847 -47.469175766362014 -68.69446168708646 A 83.5 83.5 0 0 1 -46.7917 -69.1577C -46.31842578517849 -68.83713284959948 -45.886818607345795 -68.5257054718219 -45.4948397988948 -68.2273375118444 C -45.34938359360971 -68.11661805955939 -45.20939183779333 -68.0077014167081 -45.07475414325205 -67.90078475994528 A 0.375 0.375 0 0 0 -44.625 -67.8982A 81.25 81.25 0 0 1 -44.5265 -67.9629A 0.375 0.375 0 0 0 -44.3498 -68.3765C -44.39433573560316 -68.54253801050706 -44.438533547310044 -68.71431426098094 -44.48221024546377 -68.89182102369331 C -44.59990993031547 -69.3701698608421 -44.71381707378301 -69.89007074587037 -44.81951605862973 -70.45184663787454 A 83.5 83.5 0 0 1 -44.1249 -70.889C -43.66416872394115 -70.55060450355968 -43.24473070159011 -70.22297130470405 -42.86439513865938 -69.90989673629268 C -42.72325955016008 -69.79371992953166 -42.58751581543245 -69.67955266071638 -42.4570461196541 -69.56758776100118 A 0.375 0.375 0 0 0 -42.0077 -69.5479A 81.25 81.25 0 0 1 -41.9068 -69.6088A 0.375 0.375 0 0 0 -41.7145 -70.0153C -41.752688981915064 -70.18297176029756 -41.79031510876738 -70.35630612320533 -41.82720233518815 -70.53534700484194 C -41.926605614268674 -71.01782997233802 -42.02063718547512 -71.5416904797277 -42.104872337400664 -72.10708314630091 A 83.5 83.5 0 0 1 -41.3941 -72.5174C -40.94660279239003 -72.1617845256943 -40.53994207055438 -71.8184205425769 -40.17180120334973 -71.49109329392566 C -40.035190864746845 -71.36962757795182 -39.90389196654609 -71.25037521479783 -39.77777943811653 -71.13352441053085 A 0.375 0.375 0 0 0 -39.3295 -71.0968A 81.25 81.25 0 0 1 -39.2264 -71.1537A 0.375 0.375 0 0 0 -39.0188 -71.5527C -39.050504820799745 -71.72164691059425 -39.08150470851066 -71.89628806768059 -39.111548980246596 -72.07660347607955 C -39.192511728304325 -72.5625210197459 -39.26653139046094 -73.08958160184284 -39.329180576547984 -73.65777127767063 A 83.5 83.5 0 0 1 -38.6033 -74.0408C -38.16966820132389 -73.66833685900164 -37.77637439917315 -73.3097399365721 -37.4209619967574 -72.9686346008987 C -37.28907497998183 -72.84205608938797 -37.162411289158044 -72.71789153642118 -37.04083877918702 -72.59632425009761 A 0.375 0.375 0 0 0 -36.5943 -72.5425A 81.25 81.25 0 0 1 -36.4891 -72.5955A 0.375 0.375 0 0 0 -36.2664 -72.9863C -36.29170116095952 -73.15633252952793 -36.31602986265546 -73.33202726781094 -36.33918761838483 -73.51335576286841 C -36.40159244717518 -74.00200334872089 -36.45549287884819 -74.5314998180685 -36.49646526376622 -75.10166268244045 A 83.5 83.5 0 0 1 -35.7566 -75.4567C -35.337391240422264 -75.06807714662621 -34.95803459637029 -74.69476721613982 -34.61586597274919 -74.34037836357102 C -34.488893501366725 -74.20887058326407 -34.36704866816244 -74.07997386721604 -34.25019244516696 -73.95386635977908 A 0.375 0.375 0 0 0 -33.8061 -73.8831A 81.25 81.25 0 0 1 -33.6989 -73.9321A 0.375 0.375 0 0 0 -33.4615 -74.3141C -33.480278003956904 -74.48494846010847 -33.49790024534625 -74.66144203901423 -33.514137908537144 -74.84352071174757 C -33.55789433702435 -75.33418984750182 -33.59159738774076 -75.86535448483994 -33.610833565448644 -76.43666385611078 A 83.5 83.5 0 0 1 -32.8579 -76.7633C -32.453878440510096 -76.35897589896743 -32.0890089854239 -75.97149422413463 -31.760580252390053 -75.60433568462673 C -31.63870642434552 -75.46808930923272 -31.521857112120397 -75.3346473180191 -31.409886606452243 -75.20418243329854 A 0.375 0.375 0 0 0 -30.9688 -75.1166A 81.25 81.25 0 0 1 -30.8598 -75.1614A 0.375 0.375 0 0 0 -30.6081 -75.5341C -30.6203116445949 -75.70556833625346 -30.631201875112357 -75.88260485696549 -30.640495902705478 -76.0651697107061 C -30.66554048825138 -76.55714897302377 -30.678997291809694 -77.08921164040808 -30.676469371688757 -77.66083917460719 A 83.5 83.5 0 0 1 -29.9117 -77.9586C -29.523310619480768 -77.53916143624556 -29.173457379188378 -77.13806982845122 -28.85924472700658 -76.75867394678582 C -28.742646247699394 -76.6178865205238 -28.630961876785243 -76.48009273227464 -28.524039434973144 -76.34545963188074 A 0.375 0.375 0 0 0 -28.0866 -76.2411A 81.25 81.25 0 0 1 -27.976 -76.2818A 0.375 0.375 0 0 0 -27.7102 -76.6446C -27.715948760678966 -76.81642237583493 -27.720091190531395 -76.99374515232307 -27.722428107075253 -77.17653148548642 C -27.728724537425098 -77.66910755147079 -27.721915582746636 -78.2012968088993 -27.697627230039384 -78.77241370075022 A 83.5 83.5 0 0 1 -26.9221 -79.0408C -26.54993682050959 -78.60692260225842 -26.215607048763115 -78.19280260598912 -25.91606605574001 -77.80171946992401 C -25.804911981818233 -77.65659512110264 -25.698554483875757 -77.5146493236377 -25.596835133238454 -77.37604321269501 A 0.375 0.375 0 0 0 -25.1637 -77.2551A 81.25 81.25 0 0 1 -25.0516 -77.2915A 0.375 0.375 0 0 0 -24.7722 -77.644C -24.771400400730997 -77.81589994669419 -24.76878902379113 -77.99325187788476 -24.76416544098015 -78.17599466776228 C -24.751704586911874 -78.66845334920843 -24.72463974632998 -79.19999757313568 -24.678626176825844 -79.76977575774453 A 83.5 83.5 0 0 1 -23.8934 -80.0085C -23.538068151347776 -79.56071124539426 -23.21974659435401 -79.13416329505434 -22.935311566293073 -78.7319599377489 C -22.82976306053746 -78.58270908279995 -22.7288866437708 -78.43681708395538 -22.63251786764225 -78.29443892807387 A 0.375 0.375 0 0 0 -22.2043 -78.1571A 81.25 81.25 0 0 1 -22.0909 -78.1892A 0.375 0.375 0 0 0 -21.7983 -78.5308C -21.79093587837131 -78.70255190190447 -21.781574480886057 -78.87967584445225 -21.769997102473297 -79.06211013146903 C -21.738797031034025 -79.55373741036837 -21.69151554598012 -80.08386591248576 -21.623843474955944 -80.65147926595623 A 83.5 83.5 0 0 1 -20.8301 -80.8601C -20.492071533628117 -80.39914446330361 -20.190219727212856 -79.96078701264267 -19.921303067712522 -79.54804659051398 C -19.82151316536588 -79.3948856289086 -19.726264090935462 -79.24525895813532 -19.63538561482811 -79.09931519202955 A 0.375 0.375 0 0 0 -19.2127 -78.9458A 81.25 81.25 0 0 1 -19.0981 -78.9736A 0.375 0.375 0 0 0 -18.7928 -79.3037C -18.77887658222216 -79.47509268089547 -18.762778737322925 -79.65173182201697 -18.744264349400268 -79.83359309389772 C -18.694370297710837 -80.3236761576959 -18.626940721818098 -80.85162030235615 -18.537708267307348 -81.41624583959006 A 83.5 83.5 0 0 1 -17.7366 -81.5945C -17.416363371246216 -81.12100660797553 -17.131418971671447 -80.6714752333896 -16.8784105841793 -80.24879618059137 C -16.784523971060025 -80.09194718108158 -16.695040341017872 -79.93880278274776 -16.609783930034 -79.78950501092622 A 0.375 0.375 0 0 0 -16.1932 -79.62A 81.25 81.25 0 0 1 -16.0777 -79.6434A 0.375 0.375 0 0 0 -15.76 -79.9617C -15.73958971030711 -80.13240217339333 -15.716778758330017 -80.30830040322081 -15.691354204989967 -80.4893249785074 C -15.622838514655404 -80.97715325361432 -15.535358614362536 -81.50214757227964 -15.42469515489355 -82.06296664022673 A 83.5 83.5 0 0 1 -14.6174 -82.2106C -14.315403146996772 -81.72525104831097 -14.04777929640092 -81.26519752731761 -13.81104601889098 -80.83319268806787 C -13.723198821612447 -80.67288306670801 -13.6396103786674 -80.5164429855505 -13.560099646452343 -80.3640076755093 A 0.375 0.375 0 0 0 -13.1503 -80.1788A 81.25 81.25 0 0 1 -13.034 -80.1977A 0.375 0.375 0 0 0 -12.7044 -80.5037C -12.677481938031793 -80.6735273434733 -12.647990952676466 -80.84842962638956 -12.615693097090752 -81.02835503675395 C -12.528655109311881 -81.51322121880752 -12.421251722111151 -82.03450451990581 -12.289317709120624 -82.59070398453238 A 83.5 83.5 0 0 1 -11.477 -82.7075C -11.19368695675028 -82.21100168763773 -10.943771684131619 -81.74109305386084 -10.723656757224354 -81.30038879387642 C -10.64197634582434 -81.13685098429175 -10.564404285227535 -80.97734204347239 -10.490754514741703 -80.82199021183816 A 0.375 0.375 0 0 0 -10.0883 -80.6213A 81.25 81.25 0 0 1 -9.97135 -80.6358A 0.375 0.375 0 0 0 -9.63034 -80.929C -9.596993028925612 -81.09768361137087 -9.560864769301448 -81.27133635578647 -9.52174044027296 -81.44990172658468 C -9.416306351811144 -81.93110280597462 -9.289135202346127 -82.44791927855445 -9.136121927539882 -82.99869270381002 A 83.5 83.5 0 0 1 -8.31992 -83.0845C -8.055740990543573 -82.57755423396708 -7.823896649155259 -82.0984718100019 -7.62071921845149 -81.64970710832806 C -7.545324021717799 -81.48317822470807 -7.473880815541142 -81.32083169694185 -7.406198791910749 -81.16278858901865 A 0.375 0.375 0 0 0 -7.01167 -80.9469A 81.25 81.25 0 0 1 -6.89426 -80.957A 0.375 0.375 0 0 0 -6.54233 -81.237C -6.502589397409184 -81.4042559910473 -6.459876246038744 -81.57640741708423 -6.413982170104254 -81.75335384559962 C -6.290304850308164 -82.23019212676405 -6.1435503245879035 -82.74179243634835 -5.9696796425861915 -83.28634125342074 A 83.5 83.5 0 0 1 -5.15081 -83.341C -4.9061149700371205 -82.82437722114953 -4.6926777120096315 -82.3368156307101 -4.506732365359922 -81.88064115326192 C -4.437731699119967 -81.71136264656755 -4.372520933182373 -81.54641391879927 -4.3109047888712215 -81.38590868198452 A 0.375 0.375 0 0 0 -3.92489 -81.1551A 81.25 81.25 0 0 1 -3.80717 -81.1608A 0.375 0.375 0 0 0 -3.44484 -81.4272C -3.3987576329201454 -81.59279998186068 -3.3495215197894987 -81.76320048640903 -3.296924238971593 -81.93827141723649 C -3.1551830081312655 -82.41005553025394 -2.989057886188182 -82.91569790530326 -2.7945818928577064 -83.45323257046711 A 83.5 83.5 0 0 1 -1.97422 -83.4767C -1.7493755518532788 -82.95111277945026 -1.5546548408059495 -82.45577894023134 -1.386211181186392 -81.99285609639041 C -1.323705089809691 -81.82107340427319 -1.2648213134875597 -81.65376163638882 -1.2093603860143374 -81.49102698793146 A 0.375 0.375 0 0 0 -0.832406 -81.2457A 81.25 81.25 0 0 1 -0.714567 -81.2469A 0.375 0.375 0 0 0 -0.342351 -81.4993C -0.28999799478782173 -81.66304221304932 -0.2343103075539873 -81.83144473166793 -0.17508608288150318 -82.00438632869472 C -0.0154864522310596 -82.47043223170434 0.16976840038974805 -82.96938353911474 0.3845677334507471 -83.49912467849438 A 83.5 83.5 0 0 1 1.20523 -83.4913C 1.4099002936387905 -82.9575771544257 1.5856221312904253 -82.45518925313979 1.736319876676757 -81.98618923677384 C 1.7922407653333488 -81.81215142771474 1.8447121761936953 -81.64271920578258 1.8939374737862686 -81.47799109536528 A 0.375 0.375 0 0 0 2.26128 -81.2185A 81.25 81.25 0 0 1 2.37908 -81.2152A 0.375 0.375 0 0 0 2.76063 -81.4532C 2.819182112712862 -81.61488084009322 2.8812406322271897 -81.78104120522954 2.9470059312903696 -81.95160271967335 C 3.124232557544362 -82.41123469067017 3.328348539017133 -82.90277149874616 3.5631597733107365 -83.42395103833323 A 83.5 83.5 0 0 1 4.38293 -83.3849C 4.567131918492888 -82.8437609733502 4.723600102883407 -82.3350474244254 4.856333436712549 -81.86065024072128 C 4.905588042706571 -81.68460965290527 4.951571009575701 -81.51330263744923 4.994489305312102 -81.34681990508392 A 0.375 0.375 0 0 0 5.35169 -81.0736A 81.25 81.25 0 0 1 5.46927 -81.0657A 0.375 0.375 0 0 0 5.85961 -81.2891C 5.924274675666519 -81.4483856923789 5.992614048540898 -81.61206298738858 6.064825068598358 -81.77999712135929 C 6.259421728790863 -82.23254873792663 6.482102890456141 -82.71595836528788 6.736585572140801 -83.22782064457525 A 83.5 83.5 0 0 1 7.55427 -83.1576C 7.717741638687232 -82.60982925880533 7.854729305907779 -82.09552764825409 7.969305777535112 -81.61642112777537 C 8.011822686396657 -81.43863300322514 8.051250538368627 -81.26569957304051 8.087799604823067 -81.09770360277325 A 0.375 0.375 0 0 0 8.43434 -80.811A 81.25 81.25 0 0 1 8.55153 -80.7987A 0.375 0.375 0 0 0 8.9501 -81.0071C 9.020777606706803 -81.16379817195345 9.095298747383874 -81.32475508040639 9.173850789359971 -81.48981834546443 C 9.385535336937336 -81.93463345102265 9.626458812399237 -82.40921499992386 9.900243965915296 -82.91101786754109 A 83.5 83.5 0 0 1 10.7147 -82.8097C 10.857161371328965 -82.25612118941312 10.974469902358218 -81.73697720540301 11.070723386853501 -81.25385600680134 C 11.10644095312938 -81.07457812130076 11.139256523588168 -80.90026901332872 11.169383368108415 -80.7310033832558 A 0.375 0.375 0 0 0 11.5048 -80.4314A 81.25 81.25 0 0 1 11.6214 -80.4146A 0.375 0.375 0 0 0 12.0276 -80.6076C 12.104201272612244 -80.76153090351463 12.184796132562317 -80.91953405328125 12.269575303505835 -81.08148712347247 C 12.498040816111317 -81.51792077864323 12.756857289362934 -81.98298615120899 13.049547952411913 -82.47400204097084 A 83.5 83.5 0 0 1 13.8595 -82.3418C 13.98083925793718 -81.78314960805935 14.078298566619953 -81.25991595973653 14.156089505632593 -80.77348056256307 C 14.184955942266336 -80.59297285190696 14.21111165177198 -80.41754079768995 14.234772593313632 -80.24725092679301 A 0.375 0.375 0 0 0 14.5585 -79.9351A 81.25 81.25 0 0 1 14.6744 -79.9139A 0.375 0.375 0 0 0 15.0877 -80.0913C 15.170075003845502 -80.24216713614457 15.256626728226593 -80.39698743776295 15.347510106444636 -80.55559549661844 C 15.592425330926472 -80.98301491432522 15.868759542824696 -81.43788981022598 16.17993134192668 -81.9174067960339 A 83.5 83.5 0 0 1 16.9843 -81.7544C 17.084246264202864 -81.19160027832046 17.161715043858766 -80.66503560445338 17.220930647964085 -80.17599129353029 C 17.24290410138223 -79.99451547664243 17.262362026656454 -79.81821483588759 17.279522759116286 -79.64714762819958 A 0.375 0.375 0 0 0 17.5911 -79.3229A 81.25 81.25 0 0 1 17.7062 -79.2973A 0.375 0.375 0 0 0 18.1259 -79.4588C 18.213953576596722 -79.60645989765428 18.306336673682907 -79.75787287648802 18.403192486965597 -79.91290595748552 C 18.66420231966242 -80.33069142043436 18.9576536120178 -80.77471631455752 19.286855377812408 -81.24203914262438 A 83.5 83.5 0 0 1 20.0844 -81.0486C 20.16288274665557 -80.4823308901719 20.2202486749602 -79.95319865919754 20.260803087193306 -79.4622545020226 C 20.275851697989083 -79.28007370148822 20.28858362690044 -79.10316009327013 20.299219268856966 -78.931563579888 A 0.375 0.375 0 0 0 20.5982 -78.5956A 81.25 81.25 0 0 1 20.7122 -78.5657A 0.375 0.375 0 0 0 21.1378 -78.7111C 21.231423657933025 -78.85533090276535 21.329504181065438 -79.00311702447038 21.43219199774302 -79.15435034446378 C 21.708917999350206 -79.56189610367407 22.01906089584305 -79.99442720237238 22.365815317241882 -80.44887829927396 A 83.5 83.5 0 0 1 23.1554 -80.2252C 23.21228497671625 -79.65636981641964 23.249464878557795 -79.12543721948744 23.271299298897993 -78.6333050381538 C 23.279401248024413 -78.45068339871699 23.285388720493163 -78.27341333085447 23.289483851282323 -78.10153631031784 A 0.375 0.375 0 0 0 23.5755 -77.7545A 81.25 81.25 0 0 1 23.6883 -77.7202A 0.375 0.375 0 0 0 24.119 -77.8494C 24.2181102047096 -77.98986921671171 24.32174594650629 -78.13381420554006 24.430116879061632 -78.2810284906734 C 24.722157823332118 -78.67774364375606 25.04854264641247 -79.09815381828676 25.41234696265455 -79.53907427337852 A 83.5 83.5 0 0 1 26.1929 -79.2855C 26.228031612677185 -78.71491462165795 26.244971580752406 -78.18295146027577 26.2480543513776 -77.69034479939808 C 26.249197891782977 -77.50754710497725 26.248432226546445 -77.33017760212151 26.245980908620094 -77.15826927967854 A 0.375 0.375 0 0 0 26.5186 -76.8006A 81.25 81.25 0 0 1 26.6299 -76.762A 0.375 0.375 0 0 0 27.0653 -76.8747C 27.169682806963618 -77.01132967619921 27.27872350550666 -77.15122482567836 27.39262042644792 -77.294206629312 C 27.699552881931908 -77.67951597722141 28.041706404809002 -78.08719567302305 28.422033134415813 -78.51394619379751 A 83.5 83.5 0 0 1 29.1923 -78.2308C 29.205750110224404 -77.65933032591528 29.202425583199073 -77.12710789581091 29.186752234386567 -76.63474098795378 C 29.18093570804664 -76.45203227773018 29.173418015246224 -76.27482050870367 29.16442380278101 -76.10313013498732 A 0.375 0.375 0 0 0 29.4232 -75.7353A 81.25 81.25 0 0 1 29.533 -75.6926A 0.375 0.375 0 0 0 29.9724 -75.7886C 30.081861966594953 -75.92113107001228 30.196149523295848 -76.05677354554958 30.315407292976317 -76.19531555773749 C 30.636786236956382 -76.56866043875509 30.994212369732246 -76.96301855924332 31.390510075305453 -77.37498039824312 A 83.5 83.5 0 0 1 32.1495 -77.0627C 32.14112306220917 -76.49114742550555 32.117538860329645 -75.9594373983217 32.08313211693683 -75.46802412843077 C 32.07036395725872 -75.28566931256712 32.05610513683029 -75.10887221749331 32.040581070574426 -74.93764872713169 A 0.375 0.375 0 0 0 32.2852 -74.5602A 81.25 81.25 0 0 1 32.3933 -74.5133A 0.375 0.375 0 0 0 32.836 -74.5925C 32.95042530222915 -74.7208540819059 33.069794011056686 -74.85204721487936 33.194239717111486 -74.9859485629486 C 33.529599180842986 -75.34678766268905 33.901779689795376 -75.72725242629019 34.31347377754833 -76.12382827823274 A 83.5 83.5 0 0 1 35.06 -75.7829C 35.02989445847547 -75.212059673955 34.98608477657981 -74.68163297839911 34.93299452509528 -74.19188584873616 C 34.91329324468988 -74.01014932428215 34.8923139705599 -73.83402324204694 34.87028255892534 -73.66351489273195 A 0.375 0.375 0 0 0 35.1003 -73.2771A 81.25 81.25 0 0 1 35.2066 -73.2261A 0.375 0.375 0 0 0 35.652 -73.2884C 35.77121367126705 -73.41223899876515 35.89549045900518 -73.53879257167416 36.024943667057656 -73.6678591114711 C 36.373797411378874 -74.01566924773637 36.760192670350605 -74.38168901691597 37.18668622321442 -74.76230388472894 A 83.5 83.5 0 0 1 37.9197 -74.3932C 37.867875856668135 -73.8239216262213 37.80390421460683 -73.29554733029265 37.732207430819784 -72.8081764273754 C 37.705601594660216 -72.62732169491731 37.67793228477052 -72.45212199150212 37.649425471197915 -72.28257600403951 A 0.375 0.375 0 0 0 37.8646 -71.8877A 81.25 81.25 0 0 1 37.9688 -71.8327A 0.375 0.375 0 0 0 38.4163 -71.878C 38.540137200243514 -71.99718318735576 38.669141877431 -72.11891370961825 38.80341489270533 -72.24295830699909 C 39.16525711303774 -72.57723518834254 39.56530688584306 -72.92827926942714 40.005981528939266 -73.29238129793936 A 83.5 83.5 0 0 1 40.7244 -72.8956C 40.65095245507342 -72.32874594976646 40.56691160561172 -71.80319014568101 40.47671224300435 -71.31890211072557 C 40.44324042700951 -71.13919139233559 40.40892119921423 -70.9651720905611 40.373980315857985 -70.79683429042394 A 0.375 0.375 0 0 0 40.574 -70.394A 81.25 81.25 0 0 1 40.676 -70.3351A 0.375 0.375 0 0 0 41.1249 -70.3633C 41.25318121475324 -70.47773834332361 41.38672673694114 -70.59446931731983 41.52562487640179 -70.71331211947715 C 41.89993093611837 -71.03357107637802 42.31305518883187 -71.3691304890102 42.76727198605688 -71.71619176508884 A 83.5 83.5 0 0 1 43.4701 -71.2924C 43.37508905868842 -70.72870050638103 43.27110085302365 -70.20672519981113 43.162529692048594 -69.72622220416976 C 43.12224042715172 -69.54791606320904 43.08132104105022 -69.37532947442642 43.039996748850825 -69.20844393533166 A 0.375 0.375 0 0 0 43.2245 -68.7983A 81.25 81.25 0 0 1 43.3242 -68.7355A 0.375 0.375 0 0 0 43.7738 -68.7466C 43.90641206034472 -68.8561075164322 44.044304799292924 -68.96766969340948 44.187626673916476 -69.08113838964161 C 44.573853865014655 -69.38691507722947 44.99945360696494 -69.7065032923407 45.46655398738636 -70.03602061031482 A 83.5 83.5 0 0 1 46.1527 -69.5858C 46.03633592986784 -69.02610520899216 45.91255114095685 -68.50846721423096 45.78576559941802 -68.03244594131084 C 45.73871730120154 -67.85580290463753 45.69125708599172 -67.68489926290108 45.64360930122221 -67.51970795292598 A 0.375 0.375 0 0 0 45.8124 -67.1028A 81.25 81.25 0 0 1 45.9096 -67.0363A 0.375 0.375 0 0 0 46.3593 -67.0303C 46.495982805943335 -67.13464191635104 46.638022830363056 -67.24087354181819 46.78556063713302 -67.34880361336334 C 47.18314896710938 -67.63965468467372 47.620607119358375 -67.94280832990502 48.09991383207981 -68.25430392116573 A 83.5 83.5 0 0 1 48.7684 -67.7783C 48.63083451506635 -67.22342865801126 48.48743261901911 -66.71087850066449 48.34261652383091 -66.24002913580327 C 48.288877407829375 -66.0653053189333 48.234945176286054 -65.89633241818497 48.181042983679184 -65.73307484893655 A 0.375 0.375 0 0 0 48.3338 -65.3101A 81.25 81.25 0 0 1 48.4285 -65.2399A 0.375 0.375 0 0 0 48.8776 -65.2168C 49.01813882153333 -65.31583750362651 49.16412018696831 -65.41658455188244 49.31566001016962 -65.51881951045509 C 49.724033013955534 -65.79432325924022 50.17271530400389 -66.08060279078778 50.66353340011407 -66.37362501650703 A 83.5 83.5 0 0 1 51.3134 -65.8725C 51.154823039371834 -65.32328456209966 50.992011955228264 -64.8165653908952 50.829375275884175 -64.35157062065825 C 50.76902325867827 -64.17901935642234 50.70869720738122 -64.01222219121428 50.648618759963156 -63.85113507056035 A 0.375 0.375 0 0 0 50.7852 -63.4226A 81.25 81.25 0 0 1 50.8771 -63.3489A 0.375 0.375 0 0 0 51.325 -63.3087C 51.46922322201259 -63.40233137077766 51.61893426943892 -63.49744776823392 51.774256390815275 -63.59383938291788 C 52.19282196659609 -63.85359635508045 52.65207784801768 -64.12258669499214 53.15369568819994 -64.39671070095582 A 83.5 83.5 0 0 1 53.7841 -63.8712C 53.604641960719775 -63.32842794854091 53.422657748986985 -62.82827445783419 53.24243629312382 -62.36980848018442 C 53.175558879368786 -62.19967995141963 53.10892647532515 -62.03530036169539 53.0427588811011 -61.87661725056086 A 0.375 0.375 0 0 0 53.1629 -61.4432A 81.25 81.25 0 0 1 53.252 -61.3661A 0.375 0.375 0 0 0 53.698 -61.3088C 53.845682169326366 -61.396897918764154 53.998905832037785 -61.48624575573766 54.15778504936214 -61.57665426790677 C 54.58593631706824 -61.820287840670154 55.05509991274031 -62.07159897866881 55.56679019908151 -62.3264273112748 A 83.5 83.5 0 0 1 56.1767 -61.7773C 55.97673927587915 -61.24175116871452 55.77584579626629 -60.74888853325189 55.57830086776571 -60.29761608002713 C 55.50499502331795 -60.13015695683573 55.43215287714348 -59.96843327728557 55.35999207279938 -59.81238425101131 A 0.375 0.375 0 0 0 55.4635 -59.3747A 81.25 81.25 0 0 1 55.5496 -59.2942A 0.375 0.375 0 0 0 55.9932 -59.2201C 56.14407002519288 -59.302444834369986 56.30058414352679 -59.385894565038846 56.46279009712303 -59.4701888909936 C 56.89990627834791 -59.6973458189689 57.37829734590922 -59.93061337793001 57.89931817641224 -60.16577656045787 A 83.5 83.5 0 0 1 58.4879 -59.5938C 58.267675670517846 -59.06627970446285 58.04816419936475 -58.58142252794761 57.83358221948761 -58.137997901062946 C 57.75395423081346 -57.973450983164305 57.67500795665632 -57.81461769766265 57.59695856845983 -57.661429012418324 A 0.375 0.375 0 0 0 57.6838 -57.2202A 81.25 81.25 0 0 1 57.7667 -57.1364A 0.375 0.375 0 0 0 58.2071 -57.0454C 58.361054346949146 -57.122008874335855 58.52063199039685 -57.19943950456849 58.68592949713931 -57.277497425594866 C 59.13137681520891 -57.48784835295293 59.61830173334612 -57.702734117216615 60.147897677616825 -57.917891185533485 A 83.5 83.5 0 0 1 60.7142 -57.3239C 60.47412950587927 -56.80516778143198 60.23631831383361 -56.329019060417274 60.00501040593649 -55.89408518318988 C 59.91917572600701 -55.73268904788411 59.834239788417406 -55.57697644951032 59.75041498051981 -55.426870214244545 A 0.375 0.375 0 0 0 59.8204 -54.9826A 81.25 81.25 0 0 1 59.9 -54.8958A 0.375 0.375 0 0 0 60.3367 -54.7881C 60.493420719274404 -54.8587514623521 60.65583051550868 -54.93005072513711 60.82397990981517 -55.00175906471205 C 61.277112508703475 -55.19499900271794 61.77186528283579 -55.39119140846929 62.309268477384855 -55.58603040539534 A 83.5 83.5 0 0 1 62.8526 -54.9709C 62.592901634841226 -54.461693795745894 62.337135525396484 -53.99494390035691 62.089437063832584 -53.569131385328674 C 61.9975201447278 -53.41112004158235 61.90671769269526 -53.2587538987178 61.8172390030543 -53.11194775312141 A 0.375 0.375 0 0 0 61.8702 -52.6653A 81.25 81.25 0 0 1 61.9465 -52.5756A 0.375 0.375 0 0 0 62.3788 -52.4513C 62.538077414784986 -52.51595410529659 62.703083885127825 -52.581018623519206 62.87384136645184 -52.646273411405694 C 63.33400224721037 -52.822122180623246 63.83586553311413 -52.999336767630105 64.3802967946857 -53.173575195246585 A 83.5 83.5 0 0 1 64.8998 -52.5382C 64.62092004037329 -52.039255560645536 64.34756984993669 -51.582581233608856 64.08383997379507 -51.166507468218505 C 63.98597408626034 -51.01211001737402 63.88943677465952 -50.863311246359494 63.7944339388209 -50.72001804530882 A 0.375 0.375 0 0 0 63.8304 -50.2717A 81.25 81.25 0 0 1 63.9032 -50.1791A 0.375 0.375 0 0 0 64.3304 -50.0385C 64.4920598767436 -50.09701363536329 64.65942377758779 -50.15574907169233 64.832541763906 -50.21445569468636 C 65.29906373724945 -50.3726583312115 65.80730988113869 -50.53063815526458 66.35797983645166 -50.68402338450881 A 83.5 83.5 0 0 1 66.8529 -50.0294C 66.55524428966804 -49.5413653799843 66.26470634988316 -49.09542875541564 65.98532744227137 -48.689697006845925 C 65.88165448248756 -48.53913731044646 65.77952228119123 -48.39412165527465 65.67913304418457 -48.25454916021222 A 0.375 0.375 0 0 0 65.698 -47.8052A 81.25 81.25 0 0 1 65.7672 -47.7099A 0.375 0.375 0 0 0 66.1888 -47.5531C 66.35253501738293 -47.60543728498067 66.52201368707239 -47.6577584786486 66.69724117385486 -47.70983181775923 C 67.16944782752186 -47.85015894289334 67.68333992107677 -47.9886749483508 68.23945015134048 -48.120984585304136 A 83.5 83.5 0 0 1 68.7091 -47.448C 68.39306979748713 -46.97164495572354 68.08576536059097 -46.53709259909656 67.7911424942162 -46.14229113959457 C 67.68181277806374 -45.995787494806265 67.57423376899985 -45.85476521431352 67.46860368562149 -45.71911579201392 A 0.375 0.375 0 0 0 67.4703 -45.2694A 81.25 81.25 0 0 1 67.5359 -45.1715A 0.375 0.375 0 0 0 67.9512 -44.9988C 68.11680532561226 -45.04483760165971 68.28815303627826 -45.09066869193769 68.46523596042108 -45.13603324580148 C 68.94244263990721 -45.25828139862849 69.46123558872067 -45.37713275052467 70.02197978726593 -45.48817495886247 A 83.5 83.5 0 0 1 70.4657 -44.7978C 70.13173189254213 -44.33382013681072 69.80810652058959 -43.91128210749891 69.49866687044182 -43.52798336143754 C 69.38383891555713 -43.385748184539445 69.27096907800416 -43.24892374755062 69.16025130177668 -43.11739407670798 A 0.375 0.375 0 0 0 69.1449 -42.6679A 81.25 81.25 0 0 1 69.2067 -42.5676A 0.375 0.375 0 0 0 69.615 -42.3792C 69.78231277815053 -42.418927210145554 69.95528109199358 -42.45820174633417 70.13396270018605 -42.496791740684905 C 70.61547750142745 -42.60078367307028 71.13841910532082 -42.69979804830724 71.70298424666737 -42.78941182744313 A 83.5 83.5 0 0 1 72.1201 -42.0826C 71.7687096810129 -41.63171551705479 71.42923259985443 -41.22180445480562 71.10542482384368 -40.85056416872292 C 70.98526511978366 -40.712803687123724 70.86726810421558 -40.580375475991914 70.75162316532979 -40.453156262054584 A 0.375 0.375 0 0 0 70.7191 -40.0046A 81.25 81.25 0 0 1 70.7771 -39.902A 0.375 0.375 0 0 0 71.178 -39.6982C 71.3466425484157 -39.73151342946623 71.52098067791671 -39.76417446724269 71.70100189890906 -39.795933950277806 C 72.1861266714772 -39.88151888386131 72.71245871511853 -39.96055272106081 73.28002623378443 -40.02860813958224 A 83.5 83.5 0 0 1 73.6699 -39.3064C 73.30162970160286 -38.8692488898305 72.94679312055179 -38.47255912649634 72.60908670899693 -38.11391556331622 C 72.48376947584511 -37.9808295165442 72.36081636665389 -37.85298953951528 72.24041193921538 -37.730265238181204 A 0.375 0.375 0 0 0 72.1909 -37.2833A 81.25 81.25 0 0 1 72.2449 -37.1785A 0.375 0.375 0 0 0 72.6377 -36.9596C 72.80752650779226 -36.986492752684505 72.98298167933032 -37.01249293666646 73.16408149956231 -37.037375860171785 C 73.65211285891539 -37.104429704981726 74.18107221115923 -37.163368412635535 74.75081918850238 -37.209766796691795 A 83.5 83.5 0 0 1 75.1129 -36.4733C 74.72826936683072 -36.050425567652965 74.35858776500686 -35.66753226546673 74.0074723599196 -35.322005424069125 C 73.87717929568359 -35.193786774168956 73.7494483631231 -35.07072038698799 73.62445902204091 -34.95266893676155 A 0.375 0.375 0 0 0 73.5579 -34.5079A 81.25 81.25 0 0 1 73.6079 -34.4012A 0.375 0.375 0 0 0 73.9921 -34.1674C 74.16284651420104 -34.187845197355124 74.3391643345511 -34.207146829761435 74.52108017659671 -34.22511711587673 C 75.01131052391989 -34.27354265024853 75.5421302442745 -34.312300772865164 76.11323060164611 -34.3369748492351 A 83.5 83.5 0 0 1 76.447 -33.5872C 76.04656018556999 -33.17933257485716 75.6625695659541 -32.81079089250207 75.29855425110483 -32.47888175377432 C 75.16347426827164 -32.35571640553052 75.03115070998292 -32.23760204269367 74.90175767785249 -32.12439460689184 A 0.375 0.375 0 0 0 74.8183 -31.6825A 81.25 81.25 0 0 1 74.8642 -31.5739A 0.375 0.375 0 0 0 75.2393 -31.3257C 75.41063748320252 -31.339628534880024 75.58756230838124 -31.35220363018896 75.77003041166084 -31.363235223717325 C 76.261748959817 -31.392962235255684 76.79365941043476 -31.411483577262658 77.36528510691436 -31.414397570894394 A 83.5 83.5 0 0 1 77.6703 -30.6525C 77.25459076216335 -30.2601327218035 76.85684787444396 -29.90647700948602 76.48046043723905 -29.588666809948457 C 76.34078938887 -29.470733341341266 76.20406506136229 -29.357742257382792 76.07045594571014 -29.249542975964754 A 0.375 0.375 0 0 0 75.9703 -28.8111A 81.25 81.25 0 0 1 76.012 -28.7009A 0.375 0.375 0 0 0 76.3773 -28.4386C 76.5490902371818 -28.44597240712745 76.72636554310682 -28.451802732653007 76.90912134631478 -28.45587963883846 C 77.40161515041784 -28.466865026218574 77.93384511199649 -28.46512273344063 78.50516734497216 -28.446272419321986 A 83.5 83.5 0 0 1 78.781 -27.6733C 78.35060956776364 -27.2970585692005 77.93969110110338 -26.95880159389368 77.55147726734376 -26.65555112795267 C 77.40741766310629 -26.54302053123702 77.26649080358352 -26.435316552426606 77.12885932485416 -26.332282304006466 A 0.375 0.375 0 0 0 77.0121 -25.898A 81.25 81.25 0 0 1 77.0495 -25.7863A 0.375 0.375 0 0 0 77.4046 -25.5103C 77.57655412848267 -25.511072338846446 77.7539228829081 -25.510149441173997 77.9367014076014 -25.507265748892326 C 78.4292563987183 -25.499493584352706 78.96103418869522 -25.477490182947804 79.5312245955481 -25.436902892232148 A 83.5 83.5 0 0 1 79.7774 -24.654C 79.33302747988314 -24.294406291296816 78.9095292267745 -23.97203849327716 78.51005186940547 -23.683787445117293 C 78.36181258195352 -23.576822878900384 78.21688752088924 -23.4745621657107 78.07543323156916 -23.3768423400985 A 0.375 0.375 0 0 0 77.9422 -22.9473A 81.25 81.25 0 0 1 77.9754 -22.8342A 0.375 0.375 0 0 0 78.3197 -22.5449C 78.49153943268928 -22.53918365455679 78.66874446787783 -22.531508871799726 78.85128070266946 -22.521668762129053 C 79.3431827231518 -22.495150314565258 79.87373731457 -22.4529177073619 80.44196917372086 -22.390652287740576 A 83.5 83.5 0 0 1 80.6582 -21.5989C 80.20042008646938 -21.256529446839 79.7649560788925 -20.950518228594973 79.35479440189188 -20.677684534679003 C 79.20259036402042 -20.576441087355935 79.05387722889822 -20.479771908044892 78.90880522418374 -20.387508189645654 A 0.375 0.375 0 0 0 78.7593 -19.9633A 81.25 81.25 0 0 1 78.7882 -19.8491A 0.375 0.375 0 0 0 79.1212 -19.5469C 79.292719508584 -19.534615308735404 79.46950389417562 -19.520199768595013 79.65153317897575 -19.50341750875364 C 80.14206901792012 -19.458191227379444 80.67063115734356 -19.39579064762059 81.23608058692018 -19.31193737799942 A 83.5 83.5 0 0 1 81.422 -18.5126C 80.95152975116636 -18.187832666827692 80.50473137030143 -17.89862171537078 80.08448006888902 -17.641600958471724 C 79.92853196190212 -17.546225423362152 79.7762463725508 -17.455287938998083 79.62776699297974 -17.368614101382992 A 0.375 0.375 0 0 0 79.4622 -16.9505A 81.25 81.25 0 0 1 79.4867 -16.8352A 0.375 0.375 0 0 0 79.808 -16.5205C 79.97893272165035 -16.50172363824401 80.1550401371867 -16.48058824187535 80.33629854693456 -16.456888164535638 C 80.82475697427019 -16.393019623135366 81.35056029712774 -16.31054154569611 81.91240744951472 -16.2052220052996 A 83.5 83.5 0 0 1 82.0677 -15.3994C 81.58526743676705 -15.092765268223435 81.12778249755202 -14.820773911784414 80.69805089593842 -14.57993874742835 C 80.53858482968245 -14.490569409940187 80.38294758564791 -14.405495471181714 80.2312761121259 -14.324537183129204 A 0.375 0.375 0 0 0 80.0499 -13.913A 81.25 81.25 0 0 1 80.07 -13.7969A 0.375 0.375 0 0 0 80.3791 -13.4702C 80.54918412833206 -13.444906046057561 80.72435923489661 -13.417081437764805 80.90458396222654 -13.386497905773156 C 81.39025675993088 -13.304079707625943 81.91253890167171 -13.201643717833594 82.4699691522112 -13.075010609926665 A 83.5 83.5 0 0 1 82.5945 -12.2638C 82.10071428421331 -11.97581480286291 81.63320609607402 -11.721437402905982 81.19461726399884 -11.497137019057158 C 81.03186444902471 -11.413903456185968 80.87310120943175 -11.334816412111138 80.71845755109545 -11.259691055399202 A 0.375 0.375 0 0 0 80.5216 -10.8553A 81.25 81.25 0 0 1 80.5372 -10.7385A 0.375 0.375 0 0 0 80.8337 -10.4003C 81.00264691860596 -10.368594625450088 81.17663572904112 -10.334121148255203 81.35556546532814 -10.296698504809187 C 81.8377484542753 -10.195850148423085 82.35575215572455 -10.073604768669863 82.90795728384413 -9.925841699152736 A 83.5 83.5 0 0 1 83.0015 -9.1105C 82.49712294485347 -8.841500550937472 82.02026934996852 -8.605105930373858 81.57345919930876 -8.397665541145523 C 81.40765561163889 -8.320688433600264 81.245996568007 -8.24770295286219 81.08860494337691 -8.178519452076003 A 0.375 0.375 0 0 0 80.8765 -7.78196A 81.25 81.25 0 0 1 80.8877 -7.66465A 0.375 0.375 0 0 0 81.171 -7.3154C 81.33866361477766 -7.277249733883177 81.51121386194177 -7.2361773710323956 81.68858917617413 -7.19196987538737 C 82.16658323712728 -7.072837581237943 82.67955744243949 -6.9309600556377156 83.22573680349473 -6.7622812668349015 A 83.5 83.5 0 0 1 83.2882 -5.94397C 82.7739186640267 -5.6943669684690015 82.28841105452098 -5.4762978768989665 81.83402741727963 -5.2860182510240055 C 81.66541345626516 -5.215409208251533 81.50109299875285 -5.148631112819802 81.34118161063789 -5.085489777421499 A 0.375 0.375 0 0 0 81.1141 -4.69729A 81.25 81.25 0 0 1 81.1208 -4.57964A 0.375 0.375 0 0 0 81.3907 -4.21985C 81.55674702476118 -4.175353525914173 81.72760852729185 -4.127741828407074 81.90317224222116 -4.076813577205446 C 82.3762843294886 -3.9395700757300487 82.88348527510688 -3.7782661131313118 83.4228469612395 -3.5889161731607224 A 83.5 83.5 0 0 1 83.4541 -2.76882C 82.93070011440209 -2.5389770982831976 82.43724242989443 -2.3395497150419082 81.97594411890597 -2.1667067397869255 C 81.80476425867072 -2.1025681381489676 81.63802063623218 -2.042094249877909 81.47582134085745 -1.9850866287674438 A 0.375 0.375 0 0 0 81.2341 -1.60581A 81.25 81.25 0 0 1 81.2364 -1.48799A 0.375 0.375 0 0 0 81.4923 -1.11819" stroke="#191919" stroke-width="0.35 px" style="stroke-width:0.35;stroke-miterlimit:4;stroke-dasharray:none;fill:none;fill-rule: evenodd "/>
<title>b'InvoluteGear'</title>
</g>
</svg>