<?xml version="1.0"?>
<!DOCTYPE svg PUBLIC "-//W3C//DTD SVG 1.1//EN" "http://www.w3.org/Graphics/SVG/1.1/DTD/svg11.dtd">
<svg width="13.067083956238466mm" height="13.19882099987919mm" viewBox="0 0 13.067083956238466 13.19882099987919" xmlns="http://www.w3.org/2000/svg" version="1.1">
<g id="InvoluteGear" transform="translate(6.444553,6.599410) scale(1,-1)">
<path id="InvoluteGear_w0000"  d="M 4.552567111155529 -0.7239700949797567 L 5.119864675104077 -0.8133338665660284 C 5.1605654686234885 -0.8166036875645025 5.282696581446563 -0.8202047159240967 5.488459729301045 -0.7730670347131198 C 5.733103094571149 -0.715425139387691 6.080658473820488 -0.5864071088231515 6.494421818645723 -0.30203361440444165 A 6.5 6.5 0 0 1 6.49442 0.302034C 6.080658473820488 0.5864071088231515 5.733103094571149 0.715425139387691 5.488459729301045 0.7730670347131198 C 5.282696581446563 0.8202047159240967 5.1605654686234885 0.8166036875645025 5.119864675104077 0.8133338665660284 L 4.552567111155529 0.7239700949797571 A 0.375 0.375 0 0 0 4.12959 1.00449A 4.25 4.25 0 0 1 4.0171 1.38759A 0.375 0.375 0 0 0 4.22127 1.85226L 4.746825732033452 2.0837878345903897 C 4.782833217068238 2.103041596403124 4.887523310115266 2.1660412832472193 5.035137730671448 2.316939980553707 C 5.209781264580203 2.4976956176200265 5.432411041717266 2.7941351159798202 5.626746998822305 3.257062675782585 A 6.5 6.5 0 0 1 5.30016 3.76524C 4.798339804365423 3.78076921992941 4.43620520020651 3.7014034695922975 4.199234543480897 3.617630728689182 C 4.0006510139189855 3.5460415130791025 3.899854646703982 3.4769830705763396 3.8673827590642933 3.4522278118302214 L 3.4384553817473713 3.07034600456244 A 0.375 0.375 0 0 0 2.93096 3.07765A 4.25 4.25 0 0 1 2.62921 3.33913A 0.375 0.375 0 0 0 2.54975 3.84041L 2.8667031585101217 4.319321621605634 C 2.886585212978469 4.354986032894613 2.940595921411867 4.464584479503913 2.9831950791368196 4.671334922710348 C 3.032390693640439 4.917815663907303 3.0594114874510465 5.287559183874523 2.9726197635672973 5.782064579713801 A 6.5 6.5 0 0 1 2.42314 6.033C 1.9925821504732915 5.774763817346859 1.7308434995044193 5.512212351068532 1.5767820604790281 5.31362222726371 C 1.448427016721423 5.146035184963547 1.4009675295121564 5.033444895868604 1.3870341426423975 4.995063819114436 L 1.2326583635991981 4.4419087517247515 A 0.375 0.375 0 0 0 0.801777 4.17369A 4.25 4.25 0 0 1 0.406563 4.23051A 0.375 0.375 0 0 0 0.0687033 4.60926L 0.0764225873164388 5.183501312629302 C 0.07386679940453167 5.224253174802963 0.06005010491812701 5.345653648764635 -0.01589093177455847 5.5426140329818 C -0.10776249668137117 5.776563984529054 -0.28492959731228196 6.1022205709969795 -0.6252932430927454 6.471301833701963 A 6.5 6.5 0 0 1 -1.22321 6.38533C -1.4458062572814039 5.935311705288037 -1.5240487827345546 5.572932758511851 -1.5462875857152731 5.322576212942589 C -1.5636623241889336 5.112199045769188 -1.5427168795362336 4.991823531344743 -1.533688013753522 4.9520023572642415 L -1.3644989754439143 4.40319685524194 A 0.375 0.375 0 0 0 -1.58197 3.9446A 4.25 4.25 0 0 1 -1.94516 3.77874A 0.375 0.375 0 0 0 -2.43416 3.9147L -2.738121615374015 4.401955961763296 C -2.762303801062481 4.434856846520401 -2.8395611955933533 4.529515555126374 -3.0099316841274733 4.654152350020891 C -3.2137018557202635 4.801294055313559 -3.5388075481452934 4.97947004305811 -4.024680063181776 5.105946479523554 A 6.5 6.5 0 0 1 -4.4812 4.71037C -4.42516139392811 4.211440063708786 -4.29506634486943 3.8642863915888963 -4.178421848990971 3.641649858538614 C -4.0792999254793365 3.4552758306154985 -3.996599579648462 3.3653334661585688 -3.967475062304373 3.3367151361593237 L -3.528437530872639 2.9665010687221054 A 0.375 0.375 0 0 0 -3.46345 2.46313A 4.25 4.25 0 0 1 -3.67931 2.12724A 0.375 0.375 0 0 0 -4.16419 1.97725L -4.68333155182606 2.2228206957720023 C -4.721462462198156 2.237424804668714 -4.837631879884609 2.2752882767630656 -5.04834039393093 2.288030180597437 C -5.2993135825002184 2.301647187858704 -5.669139106461475 2.275772959702357 -6.146259400241035 2.1194891949902788 A 6.5 6.5 0 0 1 -6.31644 1.53989C -5.999559054698948 1.1504659585155457 -5.702430689996879 0.9287563990793805 -5.483936698530028 0.8045254047169709 C -5.299788623385997 0.7013269530537741 -5.18159015184553 0.6703738037770574 -5.141616811412807 0.6620444354263716 L -4.572122100997561 0.5879621531779509 A 0.375 0.375 0 0 0 -4.24531 0.199639A 4.25 4.25 0 0 1 -4.24531 -0.199639A 0.375 0.375 0 0 0 -4.57212 -0.587962L -5.141616811412807 -0.6620444354263706 C -5.181590151845531 -0.6703738037770564 -5.299788623385997 -0.7013269530537731 -5.483936698530028 -0.8045254047169699 C -5.70243068999688 -0.9287563990793792 -5.999559054698949 -1.1504659585155446 -6.316444805117479 -1.5398909333573734 A 6.5 6.5 0 0 1 -6.14626 -2.11949C -5.669139106461476 -2.2757729597023566 -5.299313582500219 -2.3016471878587033 -5.04834039393093 -2.2880301805974366 C -4.837631879884609 -2.2752882767630647 -4.721462462198157 -2.2374248046687137 -4.68333155182606 -2.2228206957720014 L -4.164190209126802 -1.9772505916581442 A 0.375 0.375 0 0 0 -3.67931 -2.12724A 4.25 4.25 0 0 1 -3.46345 -2.46313A 0.375 0.375 0 0 0 -3.52844 -2.9665L -3.9674750623043744 -3.336715136159323 C -3.996599579648463 -3.365333466158568 -4.0792999254793365 -3.4552758306154967 -4.178421848990973 -3.6416498585386132 C -4.295066344869432 -3.8642863915888945 -4.425161393928111 -4.211440063708785 -4.481203614235446 -4.7103665707134725 A 6.5 6.5 0 0 1 -4.02468 -5.10595C -3.5388075481452947 -4.979470043058109 -3.213701855720265 -4.801294055313557 -3.009931684127475 -4.654152350020891 C -2.839561195593354 -4.529515555126373 -2.762303801062482 -4.4348568465204 -2.738121615374016 -4.401955961763295 L -2.4341573486203134 -3.914700244227867 A 0.375 0.375 0 0 0 -1.94516 -3.77874A 4.25 4.25 0 0 1 -1.58197 -3.9446A 0.375 0.375 0 0 0 -1.3645 -4.4032L -1.5336880137535234 -4.952002357264241 C -1.542716879536235 -4.991823531344742 -1.5636623241889347 -5.112199045769188 -1.5462875857152745 -5.322576212942589 C -1.524048782734556 -5.57293275851185 -1.4458062572814052 -5.9353117052880355 -1.2232119385053752 -6.385334103727835 A 6.5 6.5 0 0 1 -0.625293 -6.4713C -0.2849295973122835 -6.1022205709969795 -0.10776249668137272 -5.776563984529053 -0.015890931774559913 -5.5426140329818 C 0.06005010491812568 -5.345653648764635 0.07386679940453023 -5.224253174802963 0.07642258731643736 -5.183501312629301 L 0.06870327113916222 -4.609260229205417 A 0.375 0.375 0 0 0 0.406563 -4.23051A 4.25 4.25 0 0 1 0.801777 -4.17369A 0.375 0.375 0 0 0 1.23266 -4.44191L 1.387034142642395 -4.995063819114437 C 1.4009675295121546 -5.033444895868606 1.448427016721421 -5.146035184963548 1.5767820604790257 -5.313622227263711 C 1.7308434995044168 -5.512212351068533 1.992582150473289 -5.7747638173468605 2.4231408848975957 -6.033003175423458 A 6.5 6.5 0 0 1 2.97262 -5.78206C 3.0594114874510443 -5.287559183874524 3.032390693640437 -4.917815663907306 2.9831950791368174 -4.671334922710351 C 2.940595921411865 -4.464584479503914 2.886585212978467 -4.354986032894614 2.8667031585101195 -4.319321621605635 L 2.5497510877460696 -3.8404126588867675 A 0.375 0.375 0 0 0 2.62921 -3.33913A 4.25 4.25 0 0 1 2.93096 -3.07765A 0.375 0.375 0 0 0 3.43846 -3.07035L 3.8673827590642933 -3.452227811830221 C 3.899854646703982 -3.476983070576339 4.0006510139189855 -3.5460415130791016 4.199234543480897 -3.6176307286891816 C 4.43620520020651 -3.7014034695922966 4.798339804365423 -3.780769219929409 5.300163598440933 -3.765236366085599 A 6.5 6.5 0 0 1 5.62675 -3.25706C 5.432411041717266 -2.7941351159798193 5.209781264580203 -2.4976956176200265 5.035137730671448 -2.3169399805537068 C 4.887523310115266 -2.1660412832472185 4.782833217068237 -2.1030415964031235 4.746825732033452 -2.0837878345903893 L 4.221270949673896 -1.8522612044307465 A 0.375 0.375 0 0 0 4.0171 -1.38759A 4.25 4.25 0 0 1 4.12959 -1.00449A 0.375 0.375 0 0 0 4.55257 -0.72397" stroke="#191919" stroke-width="0.35 px" style="stroke-width:0.35;stroke-miterlimit:4;stroke-dasharray:none;fill:none;fill-rule: evenodd "/>
<title>b'InvoluteGear'</title>
</g>
</svg>