<?xml version="1.0"?>
<!DOCTYPE svg PUBLIC "-//W3C//DTD SVG 1.1//EN" "http://www.w3.org/Graphics/SVG/1.1/DTD/svg11.dtd">
<svg width="139.7283248902417mm" height="139.73759854666338mm" viewBox="0 0 139.7283248902417 139.73759854666338" xmlns="http://www.w3.org/2000/svg" version="1.1">
<g id="InvoluteGear" transform="translate(69.859636,69.868799) scale(1,-1)">
<path id="InvoluteGear_w0000"  d="M 66.49071724802383 -1.1110894848509545 C 66.65411599623259 -1.0626191226067085 66.82353399902327 -1.0100880259719305 66.99881727184048 -0.9531719416313214 C 67.45942132331685 -0.8036074154107757 67.96041987579548 -0.6238116670097975 68.49880338902459 -0.4079981488868669 A 68.5 68.5 0 0 1 68.4988 0.407998C 67.96041987579548 0.6238116670097975 67.45942132331685 0.8036074154107757 66.99881727184048 0.9531719416313214 C 66.82353399902327 1.0100880259719305 66.65411599623259 1.0626191226067085 66.49071764326743 1.1110893210155646 A 0.375 0.375 0 0 0 66.2335 1.47973A 66.25 66.25 0 0 1 66.2306 1.60341A 0.375 0.375 0 0 0 66.4704 1.98362C 66.63137569620618 2.0396351315821697 66.79816621249155 2.099991568359782 66.97061163444708 2.1650011279088663 C 67.42375836674253 2.3358334396942944 67.9158493402431 2.5387436033826347 68.44360905276305 2.7793718805289007 A 68.5 68.5 0 0 1 68.4056 3.59448C 67.85780327512263 3.785015900240028 67.34898219496972 3.9413078357989937 66.88191839012201 4.069280652995451 C 66.70417689098046 4.117979994562809 66.53249832335304 4.162571980396911 66.36702182149834 4.203387531593189 A 0.375 0.375 0 0 0 66.0929 4.55966A 66.25 66.25 0 0 1 66.0843 4.68307A 0.375 0.375 0 0 0 66.3061 5.07402C 66.46432667369989 5.137471990255973 66.62812847236212 5.205523048574353 66.79736256507161 5.278485287102066 C 67.24207056326942 5.470215399705483 67.72418819832066 5.695800520450074 68.2401811001141 5.960722409353772 A 68.5 68.5 0 0 1 68.1643 6.77319C 67.60822178293128 6.9380226318665095 67.09268016826091 7.070472261053669 66.62016816623876 7.176576208600601 C 66.44035338928104 7.216953335465098 66.26678607436547 7.25350963418682 66.09958980887646 7.286582140775314 A 0.375 0.375 0 0 0 65.8092 7.62971A 66.25 66.25 0 0 1 65.7948 7.75259A 0.375 0.375 0 0 0 65.9983 8.15344C 66.1533307196985 8.224182228595984 66.31378904251659 8.299780525016223 66.47944528261979 8.38053742256093 C 66.91475140822212 8.592750091252332 67.38585154538305 8.840521601914272 67.88896011072447 9.129163340756058 A 68.5 68.5 0 0 1 67.7754 9.93722C 67.2122159371574 10.076003151410774 66.69107033630766 10.1843236178228 66.21413349288989 10.268328898196732 C 66.0326348768823 10.30029636249264 65.85755472283323 10.3287378012992 65.68900080359015 10.353995635595128 A 0.375 0.375 0 0 0 65.383 10.6832A 66.25 66.25 0 0 1 65.3629 10.8053A 0.375 0.375 0 0 0 65.5475 11.2152C 65.69906138218671 11.293080719565488 65.8558287121638 11.376062525011543 66.01754832513252 11.46443918011587 C 66.44250980200395 11.696674799509765 66.9015721432807 11.966096082169985 67.3907067510483 12.27783253721742 A 68.5 68.5 0 0 1 67.2397 13.0797C 66.67064339828156 13.192161291823732 66.14502249657671 13.276117997450857 65.66469375076325 13.33784267392055 C 65.48190438129248 13.361331241238622 65.30569057273725 13.381596222306818 65.13614404999612 13.39898468146544 A 0.375 0.375 0 0 0 64.8151 13.7136A 66.25 66.25 0 0 1 64.7894 13.8346A 0.375 0.375 0 0 0 64.9547 14.2527C 65.10250250739422 14.337520912406298 65.25523932140209 14.42770650676572 65.41267205856585 14.523511515274164 C 65.82636851477668 14.775267114732484 66.27239883336065 15.065754662886679 66.74650012691308 15.399910682394687 A 68.5 68.5 0 0 1 66.5583 16.1939C 65.98467709182714 16.279748148470144 65.45571926709661 16.339159261783216 64.97303890399272 16.3784696524441 C 64.78935466213002 16.393428451777893 64.6123888389392 16.40547308567128 64.44221691271413 16.41495451016206 A 0.375 0.375 0 0 0 64.1069 16.7143A 66.25 66.25 0 0 1 64.0756 16.834A 0.375 0.375 0 0 0 64.2212 17.2593C 64.36494610900387 17.350909227587685 64.51332161311433 17.44810328894535 64.66612651022112 17.55112915854306 C 65.06766197136791 17.821859491497577 65.49969426490976 18.13278417380135 65.95773544641663 18.488636050240554 A 68.5 68.5 0 0 1 65.7328 19.273C 65.15580266806502 19.332076695753248 64.62465352517039 19.36681354551032 64.14066692296069 19.38362451280975 C 63.9564856278717 19.390021146730884 63.77915105861208 19.39381934745451 63.60872228340192 19.395373202623308 A 0.375 0.375 0 0 0 63.2598 19.6788A 66.25 66.25 0 0 1 63.223 19.7969A 0.375 0.375 0 0 0 63.3487 20.2285C 63.48798956993766 20.32671933703138 63.631682415848665 20.430711364693277 63.77952853151748 20.5407349642882 C 64.16803336120408 20.82985368912316 64.58513194395972 21.16054211195044 65.02612099821717 21.537319149396513 A 68.5 68.5 0 0 1 64.765 22.3104C 64.18581528442574 22.34253626972314 63.653625174135776 22.352523623642735 63.16938054002798 22.346798758768955 C 62.9851010873849 22.344619373592746 62.80778183924516 22.340162915089618 62.63746532582642 22.33378583563214 A 0.375 0.375 0 0 0 62.2758 22.6007A 66.25 66.25 0 0 1 62.2335 22.717A 0.375 0.375 0 0 0 62.339 23.1539C 62.47353218278114 23.258506298684953 62.61223116378552 23.3690710690758 62.754798296251764 23.48585411205094 C 63.12943107952822 23.79273506198846 63.53069260884565 24.142471027852128 63.95367445176028 24.53935721114156 A 68.5 68.5 0 0 1 63.6568 25.2994C 63.076815717588325 25.304606885302864 62.54473724517541 25.289823113000345 62.06128334521681 25.261574814735877 C 61.87730484327926 25.250824130525316 61.70038495026594 25.2381226644922 61.53054956628112 25.223828461742517 A 0.375 0.375 0 0 0 61.1568 25.4736A 66.25 66.25 0 0 1 61.1091 25.5878A 0.375 0.375 0 0 0 61.1942 26.0292C 61.32377103633851 26.139920514831115 61.45717576132849 26.25681856927849 61.59415514192967 26.38010812956767 C 61.954104507609514 26.704086668805527 62.338659940367975 27.072112727481688 62.742718487456386 27.48824848951892 A 68.5 68.5 0 0 1 62.4108 28.2337C 61.831205813665804 28.211873357124205 61.30039134261952 28.172350476958375 60.81877523030334 28.12163992482701 C 60.63549613553872 28.102341225170168 60.4593587667441 28.081422260154167 60.29037233781646 28.059241892172448 A 0.375 0.375 0 0 0 59.9054 28.2914A 66.25 66.25 0 0 1 59.8525 28.4032A 0.375 0.375 0 0 0 59.9169 28.8481C 60.04119625722755 28.96472148390252 60.169017801274975 29.087699647250993 60.300112763174866 29.21722870712038 C 60.6445991410845 29.557603170285173 61.01161561584831 29.943122259281694 61.39587576627208 30.37760634267004 A 68.5 68.5 0 0 1 61.0297 31.1068C 60.45168328634134 31.05803919339072 59.92328244260577 30.993862803119182 59.44454719118643 30.920799824884764 C 59.26236444530197 30.892994906467713 59.0873910750451 30.86390374828888 58.91961958815029 30.833885252813115 A 0.375 0.375 0 0 0 58.5243 31.0479A 66.25 66.25 0 0 1 58.4662 31.1571A 0.375 0.375 0 0 0 58.5099 31.6045C 58.62858561681983 31.726791316018492 58.750547146923225 31.855583244950672 58.87547376762619 31.99107127329974 C 59.203751076980275 32.34710448509783 59.552433717791224 32.749281655914196 59.916063249630454 33.201173064878674 A 68.5 68.5 0 0 1 59.5163 33.9125C 58.9412358742211 33.836940232676874 58.416393056361024 33.74824932407034 57.94157549978975 33.65299215787427 C 57.76088367004512 33.61674123995879 57.58745325168342 33.579540893587804 57.42126006250321 33.54174928399477 A 0.375 0.375 0 0 0 57.0164 33.7371A 66.25 66.25 0 0 1 56.9533 33.8435A 0.375 0.375 0 0 0 56.9761 34.2925C 57.088998515206505 34.42014798297223 57.204835889849704 34.55447474284907 57.32332360611359 34.69562830277848 C 57.63468087135988 35.06654917455354 57.96427450926161 35.48451340099339 58.30648588192228 35.952833439368014 A 68.5 68.5 0 0 1 57.8741 36.6448C 57.30313487005777 36.54255799412904 56.78298677074623 36.42954465194613 56.31311525811958 36.31229960359881 C 56.13430568278207 36.267681197600865 55.96279382798274 36.2224522307043 55.79853887395749 36.17696935520504 A 0.375 0.375 0 0 0 55.385 36.3533A 66.25 66.25 0 0 1 55.3171 36.4566A 0.375 0.375 0 0 0 55.3189 36.9062C 55.425769355218975 37.03895827397185 55.53523169644281 37.17852894294292 55.647023890258694 37.325042327273536 C 55.94078678089279 37.71004752701286 56.25057758945854 38.14289359163277 56.57062964931008 38.626627982498555 A 68.5 68.5 0 0 1 56.1065 39.2978C 55.54092803585886 39.169032712154916 55.02660118005393 39.031941698129316 54.56269334843866 38.89296269429768 C 54.38615328923166 38.840073433749154 54.216931454480445 38.786913802197866 54.054970475264746 38.73383816657272 A 0.375 0.375 0 0 0 53.6337 38.8907A 66.25 66.25 0 0 1 53.561 38.9908A 0.375 0.375 0 0 0 53.542 39.4399C 53.64250032085481 39.57755042907596 53.74535055760294 39.722062728151464 53.85020511197258 39.873618621517984 C 54.12573740298761 40.27187431369078 54.41505444430932 40.718664768299654 54.71225402985836 41.21676585068253 A 68.5 68.5 0 0 1 54.2174 41.8656C 53.658431919224256 41.71067602737087 53.15104022436681 41.54980425011194 52.69410079482456 41.389392288370864 C 52.5202125982049 41.32834671963288 52.353647280314064 41.26737155535137 52.194331047323914 41.20681810960838 A 0.375 0.375 0 0 0 51.7662 41.3439A 66.25 66.25 0 0 1 51.6889 41.4405A 0.375 0.375 0 0 0 51.649 41.8883C 51.74305357574934 42.03042642296283 51.839068957311376 42.17956737068254 51.93675878061869 42.33583753676796 C 52.19346373042704 42.746481188227364 52.46168040821748 43.20624838419051 52.73538385134123 43.71763738206172 A 68.5 68.5 0 0 1 52.2109 44.3427C 51.65972358755388 44.161983306321794 51.1603659510705 43.97767917827662 50.711384552655744 43.79618167521516 C 50.54052482173639 43.72711200939617 50.376976764094195 43.6584533710125 50.22065032081417 43.590553260431285 A 0.375 0.375 0 0 0 49.7866 43.7076A 66.25 66.25 0 0 1 49.7049 43.8005A 0.375 0.375 0 0 0 49.6442 44.2459C 49.73154289858926 44.392273872428895 49.820515477029154 44.545720462710314 49.910828994870144 44.706366455132674 C 50.14815063771284 45.12850870317054 50.394686054373615 45.600256887121105 50.64430057436175 46.12382624578584 A 68.5 68.5 0 0 1 50.0913 46.7238C 49.54913179802765 46.51764556329135 49.05888971736348 46.310308246160986 48.618838743807316 46.108118284955445 C 48.45137752271891 46.03117411157138 48.29120093399981 45.95498069840759 48.13820284869576 45.87988097950787 A 0.375 0.375 0 0 0 47.6992 45.9766A 66.25 66.25 0 0 1 47.6133 46.0656A 0.375 0.375 0 0 0 47.5319 46.5077C 47.612324773584085 46.65797754182783 47.69406185410907 46.81539744352545 47.77680346751485 46.98007133883733 C 47.99422781755956 47.412797917345806 48.21854803227597 47.895505387764835 48.443533019661615 48.43012117257912 A 68.5 68.5 0 0 1 47.8632 49.0038C 47.33122762248137 48.77256095838286 46.85116285281745 48.54263949862695 46.420995356539365 48.32019497771024 C 46.257295328996996 48.23554294070694 46.100837116024515 48.15197977072941 45.95149874848005 48.069843092779344 A 0.375 0.375 0 0 0 45.5085 48.146A 66.25 66.25 0 0 1 45.4185 48.2309A 0.375 0.375 0 0 0 45.3167 48.6688C 45.389988955291294 48.82263042153191 45.464313513585935 48.983682698192446 45.539304022646526 49.152027849405705 C 45.736360187166476 49.594401568974014 45.93797937230439 50.08702288896847 46.13784755970387 50.631527241189055 A 68.5 68.5 0 0 1 45.5314 51.1775C 45.01081454748287 50.92184584696846 44.541966802210915 50.669838203270594 44.12261443021941 50.427620887941735 C 43.963030134030504 50.335444324781285 43.81062915045428 50.24469237720861 43.66527393431926 50.15569662996268 A 0.375 0.375 0 0 0 43.2192 50.2112A 66.25 66.25 0 0 1 43.1254 50.2918A 0.375 0.375 0 0 0 43.0033 50.7244C 43.06934852823014 50.88154435542223 43.13609959385154 51.04588020367708 43.20317658582298 51.21753201268078 C 43.37943778504571 51.66859479033882 43.55791927834609 52.170063051825046 43.732237795771546 52.72327669627365 A 68.5 68.5 0 0 1 43.1011 53.2405C 42.592918071049894 52.960845356575895 42.13630276998451 52.687297321376 41.72867374613717 52.425831800403756 C 41.573550805351516 52.32633034499636 41.425537117765785 52.22858616833859 41.28447986007109 52.13292409676801 A 0.375 0.375 0 0 0 40.8363 52.1676A 66.25 66.25 0 0 1 40.7388 52.2438A 0.375 0.375 0 0 0 40.5967 52.6702C 40.65542948281226 52.830260194390846 40.714462487816235 52.99752369938651 40.77348068887041 53.17211040658529 C 40.92856518028771 53.630885340797974 41.08352243057981 54.14011447518706 41.23191374293924 54.700839274297785 A 68.5 68.5 0 0 1 40.5774 55.1881C 40.08277481854032 54.88514346830574 39.63938088874587 54.590647485735204 39.244358046738725 54.310500035215625 C 39.09403242310374 54.20388918555701 38.95072659619655 54.09936447193539 38.814272795552135 53.99724325878545 A 0.375 0.375 0 0 0 38.365 54.011A 66.25 66.25 0 0 1 38.264 54.0826A 0.375 0.375 0 0 0 38.1023 54.502C 38.153459830165694 54.66455745386485 38.20464692220868 54.834386360095266 38.255478512064116 55.01152984955776 C 38.38905041720135 55.47702333597624 38.52014782158645 55.992910466356754 38.64229054634061 56.55993201507526 A 68.5 68.5 0 0 1 37.9658 57.0162C 37.48582120128782 56.69057258094502 37.05660893528258 56.37576646372459 36.675047806628896 56.07754382065309 C 36.52984507197131 55.964054472103825 36.39155747425283 55.85297559877282 36.26000265920576 55.74461641585114 A 0.375 0.375 0 0 0 35.8105 55.7375A 66.25 66.25 0 0 1 35.7064 55.8043A 0.375 0.375 0 0 0 35.5253 56.2157C 35.56885827942683 56.38046345443613 35.61208859866566 56.5524899503074 35.654623487417744 56.73180656868123 C 35.76639351927177 57.203010452068625 35.873347149964374 57.72443828179238 35.96897675316984 58.29652853770685 A 68.5 68.5 0 0 1 35.272 58.7209C 34.80768164254536 58.37322253706339 34.393580618521796 58.038788085142855 34.02630757966133 57.72313613335701 C 33.88654221077109 57.60301407857457 33.753572342384494 57.48562161763909 33.62720143136993 57.371259146806786 A 0.375 0.375 0 0 0 33.1786 57.3432A 66.25 66.25 0 0 1 33.0714 57.4051A 0.375 0.375 0 0 0 32.8714 57.8076C 32.90722250202312 57.974261925800334 32.94240242121271 58.14811344022874 32.97654848776397 58.32921482764821 C 33.066274577334426 58.80510858531941 33.148852796586546 59.33094781781724 33.2177621658173 59.90686776082471 A 68.5 68.5 0 0 1 32.5018 60.2983C 32.05415639623698 59.929449091543425 31.65606346480232 59.57611061547478 31.30387394735396 59.2437129868137 C 31.169848644897552 59.11721838342032 31.042484488968434 58.99376658081016 30.921571173239727 58.87364850571314 A 0.375 0.375 0 0 0 30.4747 58.8248A 66.25 66.25 0 0 1 30.3648 58.8816A 0.375 0.375 0 0 0 30.1463 59.2744C 30.17431700836322 59.44250105537082 30.201370335632383 59.617801064688855 30.227053627206207 59.80029499587593 C 30.294541447763013 60.27984794792243 30.352565409540038 60.80895973250907 30.39460530244685 61.38746204825715 A 68.5 68.5 0 0 1 29.6612 61.7452C 29.231208984899308 61.355881804204046 28.849986326696882 60.98440455644609 28.513643094730906 60.63598115015611 C 28.385648127669086 60.50338795729531 28.264165526598116 60.37414418212503 28.148971677472513 60.24853065176644 A 0.375 0.375 0 0 0 27.7049 60.1789A 66.25 66.25 0 0 1 27.5924 60.2306A 0.375 0.375 0 0 0 27.3558 60.6128C 27.376060663191097 60.78200096413608 27.39492880705711 60.95836980755886 27.412093699363027 61.141861041295805 C 27.45719708731485 61.6240345828089 27.49054112463617 62.155272981179984 27.505620492172323 62.735104762471956 A 68.5 68.5 0 0 1 26.7564 63.0583C 26.344953284019713 62.64943133942345 25.98142654243765 62.26061985697537 25.66165804049858 61.896925280568645 C 25.539970617428455 61.75852066557069 25.424632675478165 61.623764831077686 25.315407777181846 61.49292789639301 A 0.375 0.375 0 0 0 24.875 61.4027A 66.25 66.25 0 0 1 24.7603 61.4491A 0.375 0.375 0 0 0 24.5062 61.8199C 24.51851386664288 61.98986059356965 24.529155962907645 62.1669162954556 24.53776528061114 62.351007430589426 C 24.56038655206317 62.834757281047196 24.568978449168906 63.36697174912644 24.557064632782144 63.946877209439265 A 68.5 68.5 0 0 1 23.7936 64.2349C 23.40164028074337 63.807296156952184 23.05659677375487 63.40199251890555 22.7540955492128 63.02381445384814 C 22.638979217995754 62.879898170289586 22.530035731465293 62.73992212760434 22.42701634080609 62.60414515225974 A 0.375 0.375 0 0 0 21.9913 62.4936A 66.25 66.25 0 0 1 21.8746 62.5345A 0.375 0.375 0 0 0 21.6035 62.8931C 21.60786542876985 63.063463988676766 21.610258429022597 63.24082308580185 21.610293526258634 63.425115421926726 C 21.61038368857414 63.90939388687306 21.59420483732837 64.44143176663458 21.55532363969206 65.02015495987283 A 68.5 68.5 0 0 1 20.7793 65.2723C 20.40764453562715 64.82696857942535 20.081831550635087 64.40605058320838 19.797252753782292 64.01420807897762 C 19.68895683075797 63.86509181748178 19.586643746979952 63.7201987235433 19.49005298101798 63.579775770232956 A 0.375 0.375 0 0 0 19.06 63.449A 66.25 66.25 0 0 1 18.9414 63.4845A 0.375 0.375 0 0 0 18.654 63.8301C 18.650419165953814 64.00048596357047 18.644557887488862 64.17776433562413 18.63601868824464 64.36185873657767 C 18.613577546152122 64.8456169766952 18.572662986343992 65.37632599256403 18.506898615474256 65.95261353315954 A 68.5 68.5 0 0 1 17.7199 66.1684C 17.369450376760824 65.70624022343355 17.063573552139616 65.27061948369726 16.79753351728091 64.86596118390297 C 16.696292547303575 64.71196789708752 16.600831453634683 64.5624715580729 16.510878506460468 64.4177067516447 A 0.375 0.375 0 0 0 16.0873 64.2671A 66.25 66.25 0 0 1 15.9673 64.297A 0.375 0.375 0 0 0 15.664 64.6288C 15.652580248244611 64.79889713730645 15.638477385285949 64.97571083881061 15.621382383565544 65.15920859711397 C 15.576458539581646 65.64139889977645 15.510896883036967 66.16962965420095 15.418391769916898 66.74223343166679 A 68.5 68.5 0 0 1 14.6223 66.9212C 14.293637856156376 66.4432067823895 14.008359652996406 65.99382675665339 13.761434563606285 65.57722906106483 C 13.667467812072857 65.41869226409821 13.579065455984992 65.26491645578835 13.495945145651653 65.11612332457723 A 0.375 0.375 0 0 0 13.0799 64.946A 66.25 66.25 0 0 1 12.9586 64.9703A 0.375 0.375 0 0 0 12.6402 65.2876C 12.620841327188101 65.45696832907021 12.598527423396511 65.63293442091978 12.572913643166986 65.8154381212892 C 12.505604392334272 66.29501616967379 12.41553763100204 66.81962463246472 12.296492121107892 67.38730451452464 A 68.5 68.5 0 0 1 11.4929 67.529C 11.186868498820603 67.03627215083196 10.922806766185003 66.57410609616521 10.695531407022537 66.14647126262427 C 10.609042384992605 65.98373431090621 10.52789022630387 65.82601207745958 10.45178257289461 65.67351287425493 A 0.375 0.375 0 0 0 10.0441 65.4842A 66.25 66.25 0 0 1 9.92177 65.5028A 0.375 0.375 0 0 0 9.58899 65.805C 9.561768474188595 65.97327430319774 9.531291856510894 66.1480116820214 9.497214771516626 66.32912606208129 C 9.407665890684171 66.80505319692617 9.293289089113635 67.32490318297143 9.147961008511132 67.88642970141014 A 68.5 68.5 0 0 1 8.33864 67.9906C 8.055870875375238 67.48415188123501 7.813597512176411 67.01020074639823 7.6064641110605375 66.57245493672988 C 7.527640134496696 66.40587028226003 7.453913930712089 66.24454321491314 7.384983766456762 66.088668219031 A 0.375 0.375 0 0 0 6.98653 65.8806A 66.25 66.25 0 0 1 6.86349 65.8935A 0.375 0.375 0 0 0 6.517 66.1799C 6.4819869598603965 66.3466968559186 6.443413633864032 66.5198270794638 6.400947047482933 66.69915988579693 C 6.289352479586142 67.17040535490614 6.150913352460412 67.68437098489458 5.979617449410914 68.23852799831222 A 68.5 68.5 0 0 1 5.16633 68.3049C 4.907426029471379 67.7858759658351 4.687465745865294 67.30116622344829 4.500922907618977 66.85425749760036 C 4.429934691702173 66.68418592564569 4.363794117361959 66.5196034229026 4.302190729647177 66.36069022487429 A 0.375 0.375 0 0 0 3.91385 66.1343A 66.25 66.25 0 0 1 3.79034 66.1415A 0.375 0.375 0 0 0 3.43091 66.4114C 3.3881669051668686 66.5764272371362 3.341580412086555 66.74757534389087 3.2908162974883926 66.92473818157207 C 3.1574177315117806 67.390281372195 2.9952161071529955 67.89724951102045 2.7983233704388395 68.44283683872402 A 68.5 68.5 0 0 1 1.98282 68.4713C 1.748352791558831 67.94079093745202 1.5511819725396743 67.44637236088349 1.3856337074117455 66.99126862363981 C 1.322634996810208 66.81807847135417 1.2642232976704195 66.65059698226706 1.2100801057163115 66.48898975269319 A 0.375 0.375 0 0 0 0.83269 66.2448A 66.25 66.25 0 0 1 0.708982 66.2462A 0.375 0.375 0 0 0 0.337377 66.4991C 0.287008835423742 66.66196790200053 0.23251007122974832 66.8307632232762 0.17355837218273928 67.00537239704909 C 0.01864471971541204 67.4642050463007 -0.16696810927664596 67.9630777138646 -0.38903125383123033 68.49891373519206 A 68.5 68.5 0 0 1 -1.20497 68.4894C -1.4145069891822084 67.94856128475325 -1.5884613155258582 67.44550467454415 -1.7326564668569295 66.98319157925846 C -1.7875292309644046 66.80725793794622 -1.8380855481703757 66.63724019012616 -1.8846512822664832 66.47328893427976 A 0.375 0.375 0 0 0 -2.25027 66.2118A 66.25 66.25 0 0 1 -2.37391 66.2075A 0.375 0.375 0 0 0 -2.75688 66.4428C -2.8147708315466162 66.6031335884794 -2.87706383466667 66.76921055119705 -2.9440754419095807 66.94088789647273 C -3.1201686723920936 67.3920162750062 -3.328790709961545 67.88171302419812 -3.575543323033818 68.40663723764565 A 68.5 68.5 0 0 1 -4.39016 68.3592C -4.574303262762906 67.80917017889684 -4.724664350095825 67.29856504364571 -4.847194093041207 66.83004385753588 C -4.893822068466468 66.65174776028773 -4.936413510013285 66.47956197431746 -4.97530093524046 66.31362177411052 A 0.375 0.375 0 0 0 -5.32836 66.0354A 66.25 66.25 0 0 1 -5.45166 66.0253A 0.375 0.375 0 0 0 -5.84517 66.2426C -5.9104543316807225 66.40005171859488 -5.9804066609533 66.56305063703478 -6.055333044172771 66.73142433891196 C -6.252224473945166 67.17387140311536 -6.483403891213975 67.65333165982076 -6.754311561590166 68.16620719643063 A 68.5 68.5 0 0 1 -7.56584 68.0809C -7.724192614068826 67.52291950997883 -7.850634813757814 67.0058717067086 -7.951233776178849 66.53215714233484 C -7.989515977110105 66.35188473879496 -8.024050299419514 66.17790383074507 -8.055175194274051 66.01033407570016 A 0.375 0.375 0 0 0 -8.3949 65.716A 66.25 66.25 0 0 1 -8.51761 65.7002A 0.375 0.375 0 0 0 -8.9208 65.8989C -8.993337103854923 66.05316212245546 -9.070797258111599 66.21272997725639 -9.153476143445964 66.37743537578979 C -9.370739349514555 66.81024288384482 -9.623975463343267 67.2784282439125 -9.918451465334261 67.778144329478 A 68.5 68.5 0 0 1 -10.7251 67.6552C -10.857353084173077 67.09042923320668 -10.959602550569382 66.56805857232455 -11.038052857514547 66.0901765899479 C -11.067906373229148 65.90831830999987 -11.094308782649026 65.73291908377564 -11.117603737539472 65.56408269266824 A 0.375 0.375 0 0 0 -11.4433 65.2542A 66.25 66.25 0 0 1 -11.5651 65.2327A 0.375 0.375 0 0 0 -11.9771 65.4125C -12.05674231047194 65.56321608568203 -12.141542528267193 65.71900728840258 -12.231794851661505 65.87968766837508 C -12.468959290301479 66.30191825559561 -12.743703647657412 66.75781473378977 -13.061110211815945 67.24328909454488 A 68.5 68.5 0 0 1 -13.8612 67.0829C -13.966998945180354 66.5126360262142 -14.044834228708373 65.98607384625168 -14.100965974281905 65.50505943183265 C -14.122326148712505 65.32200914001514 -14.140539463503263 65.14557147128318 -14.155954026744574 64.97583410614044 A 0.375 0.375 0 0 0 -14.4668 64.6512A 66.25 66.25 0 0 1 -14.5876 64.624A 0.375 0.375 0 0 0 -15.0075 64.7845C -15.094035298004288 64.93127472229048 -15.185991920949437 65.08295186387669 -15.283622215968347 65.2392592273651 C -15.540174241816686 65.64999843632029 -15.835831807601071 66.09261866238684 -16.17548150198833 66.56279986897016 A 68.5 68.5 0 0 1 -16.9672 66.3654C -17.046395396602495 65.79079126042645 -17.099647923370235 65.26117797781203 -17.133339538710477 64.77807290146137 C -17.14616011047568 64.59422704394537 -17.156144884653166 64.41713305740754 -17.163645671733832 64.24686233156575 A 0.375 0.375 0 0 0 -17.4591 63.9081A 66.25 66.25 0 0 1 -17.5784 63.8754A 0.375 0.375 0 0 0 -18.0053 64.0161C -18.098637966176383 64.15870667655511 -18.197551836702754 64.30594125809331 -18.302348657867277 64.45753707815439 C -18.577732636364242 64.85589533917982 -18.893663082125745 65.28428069627047 -19.254820301135883 65.73815044088711 A 68.5 68.5 0 0 1 -20.0365 65.5041C -20.088873151436598 64.92645829086787 -20.117427588329203 64.39494093003898 -20.128606104899674 63.91079148977565 C -20.13285930749588 63.726548235750286 -20.13459391626261 63.54918147754666 -20.134164682148068 63.3787461594826 A 0.375 0.375 0 0 0 -20.4135 63.0266A 66.25 66.25 0 0 1 -20.5312 62.9884A 0.375 0.375 0 0 0 -20.9642 63.109C -21.064043014665035 63.2471851588298 -21.16969990735492 63.389658303002136 -21.28143628808626 63.536214256846534 C -21.57505579885612 63.92132881465406 -21.910574889599676 64.33455151547696 -22.29245744711774 64.77112681732645 A 68.5 68.5 0 0 1 -23.0624 64.501C -23.08784288035569 63.921509070283406 -23.09163738482126 63.38923877948689 -23.080278592444266 62.90509353518952 C -23.075955214381754 62.72085191451626 -23.06943590096139 62.54359652154961 -23.061077575277153 62.37336573621019 A 0.375 0.375 0 0 0 -23.3238 62.0086A 66.25 66.25 0 0 1 -23.4395 61.9649A 0.375 0.375 0 0 0 -23.8777 62.0653C -23.983828036462878 62.198684321747 -24.095999122014074 62.33608746344871 -24.214433066192697 62.477286143515045 C -24.525652194757445 62.848322925728645 -24.880033270844912 63.24548802192901 -25.281814094287796 63.66382335612285 A 68.5 68.5 0 0 1 -26.0384 63.3581C -26.036809482728664 62.778120094905724 -26.01583583671548 62.246249653067046 -25.981964336005973 61.76315715552677 C -25.969073740758898 61.57931619452962 -25.95431462453261 61.40255606251039 -25.938045309550898 61.23289849187015 A 0.375 0.375 0 0 0 -26.1835 60.8563A 66.25 66.25 0 0 1 -26.2971 60.8073A 0.375 0.375 0 0 0 -26.7394 60.8872C -26.851669427381776 61.015474984642786 -26.97011176820091 61.14751053926547 -27.09498677427624 61.28304614065442 C -27.42313148930477 61.63920156422518 -27.795607040237865 62.01944888464419 -28.216415961809364 62.41863823000219 A 68.5 68.5 0 0 1 -28.958 62.0781C -28.929386153561932 61.498767690649004 -28.883689781316907 60.968449010709854 -28.827378930403018 60.48745553070272 C -28.80594903613025 60.30441338796604 -28.782982082057263 60.128531339979766 -28.75883701349153 59.95981442455788 A 0.375 0.375 0 0 0 -28.9865 59.5722A 66.25 66.25 0 0 1 -29.0977 59.518A 0.375 0.375 0 0 0 -29.5433 59.5772C -29.661356081571476 59.70011971546775 -29.78581315792272 59.82650172340138 -29.916858774438406 59.95608070618101 C -30.261218387548254 60.29658341776912 -30.65098171422542 60.65908943138311 -31.089907355505893 61.03826823267352 A 68.5 68.5 0 0 1 -31.8148 60.6636C -31.759308215896933 60.08622264993845 -31.688988085586814 59.55860428406978 -31.610359841232484 59.08075154636728 C -31.58043706031307 58.898904650412945 -31.5493120097017 58.72428160781067 -31.5173434803939 58.55687075087654 A 0.375 0.375 0 0 0 -31.7267 58.1591A 66.25 66.25 0 0 1 -31.8353 58.0997A 0.375 0.375 0 0 0 -32.2831 58.1382C -32.40680284339174 58.255467280835504 -32.53700510896145 58.37592202679326 -32.67393752029297 58.49926375174115 C -33.03376622524312 58.82337629829544 -33.439973187090125 59.16735589780068 -33.89606493287923 59.525702938174334 A 68.5 68.5 0 0 1 -34.6027 59.1177C -34.52044668870533 58.54354423079088 -34.4256550980737 58.01976888288466 -34.324879751547485 57.54609181010982 C -34.28652889006179 57.36583400082134 -34.247313152840825 57.1928481582288 -34.207590399506785 57.02710593442 A 0.375 0.375 0 0 0 -34.3982 56.62A 66.25 66.25 0 0 1 -34.5039 56.5557A 0.375 0.375 0 0 0 -34.9531 56.5733C -35.08206368650446 56.6846464762285 -35.21772915217847 56.798913082053154 -35.36025179321458 56.91575041845841 C -35.73477028115572 57.22277084437548 -36.156541124346155 57.547479046555814 -36.62881118148368 57.88421822611892 A 68.5 68.5 0 0 1 -37.3157 57.4438C -37.20682156089722 56.874073531143075 -37.08776380742145 56.355275581970126 -36.96505961568359 55.88680005318556 C -36.918363733057724 55.70852172883857 -36.871142241781534 55.53754773507084 -36.82375129505964 55.37383310513715 A 0.375 0.375 0 0 0 -36.9952 54.9583A 66.25 66.25 0 0 1 -37.0978 54.8891A 0.375 0.375 0 0 0 -37.5473 54.8858C -37.68134459164261 54.9910593497238 -37.82217943623186 55.09889033939168 -37.969983634668594 55.20897024360066 C -38.358380781952505 55.49823361100437 -38.79480204475872 55.80296717019893 -39.282227581464596 56.117369186872644 A 68.5 68.5 0 0 1 -39.9479 55.6455C -39.812614742693405 55.08142625277768 -39.66954867895613 54.568729303171516 -39.525181391962505 54.10646993205383 C -39.470241621080135 53.93055720380037 -39.41511664698369 53.76196535045597 -39.36016014511165 53.60063288383034 A 0.375 0.375 0 0 0 -39.5121 53.1776A 66.25 66.25 0 0 1 -39.6114 53.1037A 0.375 0.375 0 0 0 -40.0602 53.0795C -40.19901609516588 53.178373833914414 -40.34471530175768 53.27953566951339 -40.49748094661382 53.382619732965836 C -40.89891557150662 53.65349956181472 -41.34904206265437 53.937598492991455 -41.85056742375458 54.22898242201777 A 68.5 68.5 0 0 1 -42.4936 53.7266C -42.332182666312484 53.16948487051823 -42.165418141550205 52.66399930790585 -41.999700426697174 52.20895724531832 C -41.93663575486821 52.035791100956075 -41.87372668637034 51.869946520447805 -41.81132365289365 51.71134562732791 A 0.375 0.375 0 0 0 -41.9434 51.2817A 66.25 66.25 0 0 1 -42.0391 51.2033A 0.375 0.375 0 0 0 -42.4864 51.1582C -42.6296254812253 51.250515801984136 -42.779873497782035 51.344789389504726 -42.937269732688236 51.440654355073654 C -43.35087241718268 51.69256397997713 -43.81372926292499 51.95541298811344 -44.32826825616557 52.223147756786595 A 68.5 68.5 0 0 1 -44.9472 51.6914C -44.76006850868185 51.14239022365324 -44.56996669772058 50.645210817203214 -44.38325746267698 50.19837158292599 C -44.31220447393754 50.02832706176352 -44.241647558072195 49.86558893652298 -44.17193314406566 49.71006311112654 A 0.375 0.375 0 0 0 -44.2839 49.2747A 66.25 66.25 0 0 1 -44.3759 49.1919A 0.375 0.375 0 0 0 -44.8205 49.1261C -44.9679085911316 49.21166056514038 -45.12238001390618 49.29884172898458 -45.284065953666165 49.3872799745015 C -45.70894092644747 49.61967381530651 -46.18352568192404 49.8607036279812 -46.70996393042167 50.10420938241066 A 68.5 68.5 0 0 1 -47.3035 49.5442C -47.09101400970138 49.004532547800345 -46.87798663073235 48.516736077396615 -46.670690246125424 48.0790674257103 C -46.59180282542725 47.912512806315426 -46.51375087276279 47.75323359088385 -46.43687606412335 47.60111966751663 A 0.375 0.375 0 0 0 -46.5285 47.161A 66.25 66.25 0 0 1 -46.6165 47.0741A 0.375 0.375 0 0 0 -47.0576 46.9876C -47.20880122435071 47.066223829819855 -47.367161502638666 47.146123755000005 -47.53278697151066 47.2269437429183 C -47.96801404799768 47.439318486314455 -48.45329886830729 47.65800708662508 -48.990496224041436 47.87675644756987 A 68.5 68.5 0 0 1 -49.5573 47.2898C -49.31997086046396 46.76054196663358 -49.08447928335371 46.283184890809956 -48.85704470699237 45.85563471455534 C -48.77049370692228 45.692930717145785 -48.6851157606078 45.537455374835965 -48.6012470510527 45.389082798383704 A 0.375 0.375 0 0 0 -48.6723 44.9452A 66.25 66.25 0 0 1 -48.7561 44.8542A 0.375 0.375 0 0 0 -49.1927 44.7473C -49.347450106434394 44.81885213425179 -49.50935626713615 44.89129777532185 -49.678562557235566 44.96432446754444 C -50.123199132495714 45.156220157128516 -50.618132998779366 45.35209391426373 -51.16492601189903 45.545613119318524 A 68.5 68.5 0 0 1 -51.7038 44.9329C -51.442111636768324 44.41527846406662 -51.1846658838343 43.94939463195287 -50.93758568836647 43.53288890960611 C -50.8435585591177 43.37438791480981 -50.751039528773205 43.2230531705924 -50.66035855925171 43.07874328301653 A 0.375 0.375 0 0 0 -50.7107 42.632A 66.25 66.25 0 0 1 -50.7902 42.5373A 0.375 0.375 0 0 0 -51.2214 42.4102C -51.37922340013211 42.47441278509069 -51.544324790556374 42.53924724092407 -51.71674543873721 42.60432247789697 C -52.16982852895884 42.775323510336094 -52.67333952467257 42.947958205354546 -53.22854396326959 43.11582813501346 A 68.5 68.5 0 0 1 -53.7384 42.4787C -53.45284025424506 41.973821358609634 -53.173997895660854 41.520419770844484 -52.907807201770844 41.11586056105391 C -52.806507585167665 40.96190584673107 -52.70704784641102 40.815039457963266 -52.609751011710536 40.67510480234577 A 0.375 0.375 0 0 0 -52.6392 40.2266A 66.25 66.25 0 0 1 -52.7142 40.1282A 0.375 0.375 0 0 0 -53.139 39.9812C -53.299720736919 40.037983315913976 -53.46765978421839 40.09506616951649 -53.642921365750816 40.15204901276717 C -54.1034696938517 40.30178503790309 -54.61446732629915 40.450806782497146 -55.1768807411908 40.592663867873334 A 68.5 68.5 0 0 1 -55.6565 39.9325C -55.347801922451836 39.44145830269657 -55.04816686867435 39.001520926157 -54.76344218613057 38.60978441408496 C -54.65508947458543 38.46070941186462 -54.54890443506338 38.318629458440725 -54.445202458462106 38.18337310208544 A 0.375 0.375 0 0 0 -54.4538 37.7339A 66.25 66.25 0 0 1 -54.5241 37.6322A 0.375 0.375 0 0 0 -54.9416 37.4655C -55.104782747214244 37.51484049041496 -55.2751957328085 37.564048113036755 -55.45291867013364 37.612815150415514 C -55.91993479098866 37.74096187336055 -56.43731235308538 37.866047919615156 -57.00571668205157 37.98158492985 A 68.5 68.5 0 0 1 -57.4541 37.2998C -57.122892576379776 36.82367383080741 -56.803113770213656 36.39815347188704 -56.50047174927683 36.02008807158798 C -56.385300610635284 35.87621564472935 -56.272620243498466 35.73922984019054 -56.162737720385664 35.60894471824683 A 0.375 0.375 0 0 0 -56.1504 35.1596A 66.25 66.25 0 0 1 -56.2159 35.0547A 0.375 0.375 0 0 0 -56.6252 34.8688C -56.79050006864944 34.91044887410769 -56.96301791595881 34.95167469299556 -57.14281730076925 34.99212030595874 C -57.615289761454406 35.09840018944633 -58.13792672860901 35.19927962883908 -58.711090934443796 35.28824633649586 A 68.5 68.5 0 0 1 -59.1273 34.5864C -58.77426776494445 34.126137481187754 -58.43503777607643 33.71595572223038 -58.11513387197249 33.35238023917484 C -57.99339374127485 33.21402198331743 -57.874462087107155 33.08242700841273 -57.75863699855957 32.957395289443234 A 0.375 0.375 0 0 0 -57.7254 32.5091A 66.25 66.25 0 0 1 -57.786 32.4013A 0.375 0.375 0 0 0 -58.1862 32.1965C -58.353221812876924 32.23044899929481 -58.527470886659906 32.263603728505096 -58.70895731352533 32.295640320861324 C -59.18586284389956 32.37982318632993 -59.71262730082044 32.45627753645863 -60.2893100374845 32.5184812594594 A 68.5 68.5 0 0 1 -60.6724 31.798C -60.29835097721075 31.354691516891396 -59.940404502258005 30.96073672024887 -59.60393155560797 30.612438577973233 C -59.47588609486862 30.479894146290015 -59.350960733149606 30.35397500643189 -59.229443930517455 30.234467481298203 A 0.375 0.375 0 0 0 -59.1754 29.7882A 66.25 66.25 0 0 1 -59.2309 29.6777A 0.375 0.375 0 0 0 -59.6211 29.4545C -59.78956347258094 29.48064514893075 -59.96516638814499 29.505656982702785 -60.14794679787769 29.529215170326825 C -60.62825252675809 29.591118696435434 -61.15800361892992 29.642982374202337 -61.73695592002966 29.678288393134423 A 68.5 68.5 0 0 1 -62.0861 28.9408C -61.69184138831928 28.515338272739665 -61.31595365964007 28.138463656776818 -60.963640395921594 27.806197191499248 C -60.8295669230957 27.679753645714644 -60.69891841434085 27.559783053720732 -60.571973075959626 27.446058549110703 A 0.375 0.375 0 0 0 -60.4972 27.0028A 66.25 66.25 0 0 1 -60.5475 26.8898A 0.375 0.375 0 0 0 -60.927 26.6488C -61.09641425156689 26.666992785837184 -61.27299069209964 26.68380755410857 -61.45666922303311 26.698836315211903 C -61.93933491516402 26.738326432707453 -62.470925319684554 26.76548711293537 -63.050893303455176 26.7738189628236 A 68.5 68.5 0 0 1 -63.3654 26.0208C -62.951721008337884 25.614227155600563 -62.558706115050974 25.25524894681424 -62.19131556634118 24.93973377371042 C -62.0515044547158 24.819664962388522 -61.915415754502654 24.705902747846384 -61.783316815707465 24.598207565713164 A 0.375 0.375 0 0 0 -61.688 24.1589A 66.25 66.25 0 0 1 -61.733 24.0437A 0.375 0.375 0 0 0 -62.1008 23.7852C -62.270943802053196 23.795585654496747 -62.44811134230396 23.804166940223674 -62.63229018764121 23.81063372585631 C -63.116270496612024 23.827624907937853 -63.64854890703807 23.830023766641467 -64.22827649197228 23.811363402554303 A 68.5 68.5 0 0 1 -64.5074 23.0446C -64.0752612185559 22.657641326142944 -63.66597034340476 22.31733699139717 -63.28429819582271 22.01925644607405 C -63.13905224513289 21.905822411523616 -62.997818091282284 21.79851495805771 -62.86085164895916 21.697082342184554 A 0.375 0.375 0 0 0 -62.7452 21.2627A 66.25 66.25 0 0 1 -62.7848 21.1455A 0.375 0.375 0 0 0 -63.1402 20.8702C -63.310608354574256 20.872642583359468 -63.48798328910201 20.872971801387905 -63.67226355847643 20.870862605932167 C -64.15651029070925 20.86531805348286 -64.68832391053 20.842949895268397 -65.26655553577085 20.797337731399207 A 68.5 68.5 0 0 1 -65.5097 20.0184C -65.06002868106462 19.651984090909608 -64.63534825694514 19.331090653615476 -64.24022112737286 19.051090312158536 C -64.08985490800485 18.944536727239246 -63.94378118224442 18.84391643889887 -63.80224387520818 18.748966069745048 A 0.375 0.375 0 0 0 -63.6665 18.3204A 66.25 66.25 0 0 1 -63.7006 18.2015A 0.375 0.375 0 0 0 -64.0428 17.91C -64.21315622721878 17.904494016245064 -64.39035440141264 17.89657045356207 -64.57433698479576 17.88588984506565 C -65.05780136969918 17.85782156635145 -65.58799840903679 17.81073483566872 -66.16348175364294 17.738269657807667 A 68.5 68.5 0 0 1 -66.3701 16.9489C -65.90389060882536 16.60376503418116 -65.46474039896958 16.302977478068247 -65.05701404478401 16.04166375886743 C -64.90185321648586 15.942221394917176 -64.75125628197833 15.848506192841054 -64.60545464851887 15.760243711762882 A 0.375 0.375 0 0 0 -64.4499 15.3385A 66.25 66.25 0 0 1 -64.4785 15.2181A 0.375 0.375 0 0 0 -64.8067 14.911C -64.97663270227125 14.897568302011388 -65.1532703443439 14.88140911928934 -65.33655677642881 14.862180229571909 C -65.81819173780156 14.811649014234355 -66.34562390793153 14.739945690456883 -66.91711260312549 14.640784442042884 A 68.5 68.5 0 0 1 -67.0868 13.8426C -66.60501938481124 13.519585919666104 -66.15235049078504 13.239555683602465 -65.73290795647804 12.997494533984987 C -65.5732885630531 12.905378761020561 -65.41849457922413 12.81877161146816 -65.26874439321286 12.737388175345624 A 0.375 0.375 0 0 0 -65.0938 12.3233A 66.25 66.25 0 0 1 -65.1167 12.2017A 0.375 0.375 0 0 0 -65.4303 11.8797C -65.59938425969544 11.858377772182104 -65.7750788118473 11.834017966612503 -65.95727213503577 11.806282441167355 C -66.43603455880057 11.733397728566725 -66.95955955908946 11.637233105127128 -67.52581588761485 11.511590547343316 A 68.5 68.5 0 0 1 -67.6582 10.7064C -67.16189652021879 10.406126392550549 -66.69668932204769 10.147459959671192 -66.26643902674832 9.925175630185667 C -66.10270676825917 9.840585950459236 -65.94405098440866 9.761274425231063 -65.79067657140254 9.68694629246458 A 0.375 0.375 0 0 0 -65.5966 9.28147A 66.25 66.25 0 0 1 -65.6138 9.15896A 0.375 0.375 0 0 0 -65.9121 8.82268C -66.08006215829043 8.793504636686844 -66.25443310524469 8.76099696618418 -66.43513872936897 8.72481487398337 C -66.90999172272537 8.629734516177402 -67.42847571459951 8.509316864236398 -67.98827329134105 8.357465110885215 A 68.5 68.5 0 0 1 -68.083 7.54699C -67.5733159431765 7.270129512874249 -67.09657797606071 7.03338709707371 -66.65645174610175 6.831361006080185 C -66.48896123016084 6.754480622001858 -66.32678725938764 6.682636492200702 -66.1701207942123 6.615524640974675 A 0.375 0.375 0 0 0 -65.9574 6.21952A 66.25 66.25 0 0 1 -65.9689 6.09634A 0.375 0.375 0 0 0 -66.2512 5.74654C -66.4176253567638 5.709586728260184 -66.59029504987775 5.669001597200055 -66.76912160679501 5.624451300598365 C -67.23903674389823 5.507381220469855 -67.75135680648575 5.3629713378473 -68.30348323454626 5.185239266012604 A 68.5 68.5 0 0 1 -68.3604 4.37123C -67.83838661082785 4.118387151564047 -67.35115038304559 3.9040814841978504 -66.9021014338351 3.722751175222842 C -66.7312154076037 3.653746592585036 -66.56587448261604 3.589525456598007 -66.40625526994901 3.5297752362379233 A 0.375 0.375 0 0 0 -66.1754 3.14409A 66.25 66.25 0 0 1 -66.1811 3.02051A 0.375 0.375 0 0 0 -66.4469 2.65796C -66.61134276839525 2.6133031263740065 -66.7819372435632 2.5647284331129105 -66.9584974347717 2.511906418132453 C -67.42245698407409 2.373100163406138 -67.92750354620134 2.2050108097510255 -68.47076304268354 2.001783347523557 A 68.5 68.5 0 0 1 -68.4898 1.18601C -67.9565344391319 0.9577252807538256 -67.4598551958562 0.7663205001765315 -67.0028560674253 0.6060786942911826 C -66.82894463198379 0.545099361654154 -66.6607948444076 0.4886403081612263 -66.49856858391998 0.4363811243393836 A 0.375 0.375 0 0 0 -66.25 0.0618582A 66.25 66.25 0 0 1 -66.25 -0.0618582A 0.375 0.375 0 0 0 -66.4986 -0.436381C -66.6607948444076 -0.4886403081612396 -66.82894463198379 -0.5450993616541673 -67.0028560674253 -0.6060786942911961 C -67.4598551958562 -0.7663205001765451 -67.9565344391319 -0.9577252807538393 -68.48975042493784 -1.1860079879449859 A 68.5 68.5 0 0 1 -68.4708 -2.00178C -67.92750354620134 -2.2050108097510392 -67.42245698407409 -2.3731001634061517 -66.9584974347717 -2.511906418132466 C -66.7819372435632 -2.564728433112924 -66.61134276839525 -2.61330312637402 -66.4468608060432 -2.657958091902384 A 0.375 0.375 0 0 0 -66.1811 -3.02051A 66.25 66.25 0 0 1 -66.1754 -3.14409A 0.375 0.375 0 0 0 -66.4063 -3.52978C -66.56587448261604 -3.58952545659799 -66.7312154076037 -3.653746592585019 -66.9021014338351 -3.722751175222826 C -67.35115038304559 -3.9040814841978335 -67.83838661082785 -4.11838715156403 -68.36040425886722 -4.371230694208399 A 68.5 68.5 0 0 1 -68.3035 -5.18524C -67.75135680648575 -5.362971337847283 -67.23903674389823 -5.5073812204698385 -66.76912160679501 -5.624451300598349 C -66.59029504987775 -5.6690015972000385 -66.4176253567638 -5.709586728260168 -66.2512439238514 -5.746540762783356 A 0.375 0.375 0 0 0 -65.9689 -6.09634A 66.25 66.25 0 0 1 -65.9574 -6.21952A 0.375 0.375 0 0 0 -66.1701 -6.61552C -66.32678725938764 -6.682636492200686 -66.48896123016084 -6.754480622001842 -66.65645174610175 -6.8313610060801695 C -67.09657797606071 -7.033387097073694 -67.5733159431765 -7.270129512874233 -68.083004679465 -7.546986288160909 A 68.5 68.5 0 0 1 -67.9883 -8.35747C -67.42847571459951 -8.509316864236382 -66.90999172272537 -8.629734516177386 -66.43513872936897 -8.724814873983355 C -66.25443310524469 -8.760996966184164 -66.08006215829043 -8.79350463668683 -65.91214159995207 -8.822677705994879 A 0.375 0.375 0 0 0 -65.6138 -9.15896A 66.25 66.25 0 0 1 -65.5966 -9.28147A 0.375 0.375 0 0 0 -65.7907 -9.68695C -65.94405098440866 -9.761274425231049 -66.10270676825917 -9.840585950459221 -66.26643902674832 -9.925175630185652 C -66.69668932204769 -10.147459959671176 -67.16189652021879 -10.406126392550535 -67.65815247244963 -10.706396790353898 A 68.5 68.5 0 0 1 -67.5258 -11.5116C -66.95955955908946 -11.637233105127114 -66.43603455880057 -11.73339772856671 -65.95727213503577 -11.80628244116734 C -65.7750788118473 -11.834017966612489 -65.59938425969544 -11.85837777218209 -65.4302882544684 -11.879706693903053 A 0.375 0.375 0 0 0 -65.1167 -12.2017A 66.25 66.25 0 0 1 -65.0938 -12.3233A 0.375 0.375 0 0 0 -65.2687 -12.7374C -65.41849457922412 -12.818771611468174 -65.5732885630531 -12.905378761020577 -65.73290795647803 -12.997494533985003 C -66.15235049078504 -13.23955568360248 -66.60501938481124 -13.519585919666119 -67.08676777309665 -13.842619621167856 A 68.5 68.5 0 0 1 -66.9171 -14.6408C -66.34562390793153 -14.739945690456898 -65.81819173780156 -14.811649014234371 -65.3365567764288 -14.862180229571925 C -65.1532703443439 -14.881409119289357 -64.97663270227123 -14.897568302011402 -64.80672747444906 -14.911006882450293 A 0.375 0.375 0 0 0 -64.4785 -15.2181A 66.25 66.25 0 0 1 -64.4499 -15.3385A 0.375 0.375 0 0 0 -64.6055 -15.7602C -64.75125628197831 -15.848506192841064 -64.90185321648586 -15.942221394917187 -65.057014044784 -16.04166375886744 C -65.46474039896957 -16.302977478068257 -65.90389060882535 -16.60376503418117 -66.37008807343064 -16.94886242031602 A 68.5 68.5 0 0 1 -66.1635 -17.7383C -65.58799840903677 -17.81073483566873 -65.05780136969916 -17.85782156635146 -64.57433698479575 -17.88588984506566 C -64.39035440141264 -17.89657045356208 -64.21315622721876 -17.904494016245074 -64.04280975369089 -17.910013150429126 A 0.375 0.375 0 0 0 -63.7006 -18.2015A 66.25 66.25 0 0 1 -63.6665 -18.3204A 0.375 0.375 0 0 0 -63.8022 -18.749C -63.94378118224442 -18.843916438898855 -64.08985490800485 -18.94453672723923 -64.24022112737286 -19.05109031215852 C -64.63534825694514 -19.331090653615462 -65.06002868106462 -19.651984090909593 -65.50966554209295 -20.01839775758445 A 68.5 68.5 0 0 1 -65.2666 -20.7973C -64.68832391053 -20.842949895268383 -64.15651029070925 -20.865318053482845 -63.67226355847643 -20.870862605932153 C -63.48798328910201 -20.87297180138789 -63.310608354574256 -20.872642583359454 -63.140189567870124 -20.87023031807301 A 0.375 0.375 0 0 0 -62.7848 -21.1455A 66.25 66.25 0 0 1 -62.7452 -21.2627A 0.375 0.375 0 0 0 -62.8609 -21.6971C -62.99781809128229 -21.798514958057694 -63.139052245132895 -21.9058224115236 -63.284298195822714 -22.019256446074035 C -63.665970343404766 -22.317336991397156 -64.07526121855591 -22.65764132614293 -64.50736366269007 -23.044577702947688 A 68.5 68.5 0 0 1 -64.2283 -23.8114C -63.648548907038084 -23.830023766641453 -63.11627049661203 -23.82762490793784 -62.63229018764122 -23.810633725856295 C -62.44811134230397 -23.80416694022366 -62.2709438020532 -23.795585654496733 -62.10082179131645 -23.785247214169242 A 0.375 0.375 0 0 0 -61.733 -24.0437A 66.25 66.25 0 0 1 -61.688 -24.1589A 0.375 0.375 0 0 0 -61.7833 -24.5982C -61.91541575450266 -24.705902747846366 -62.051504454715804 -24.819664962388508 -62.19131556634119 -24.939733773710405 C -62.55870611505098 -25.255248946814227 -62.95172100833789 -25.61422715560055 -63.365353197903204 -26.020848224504906 A 68.5 68.5 0 0 1 -63.0509 -26.7738C -62.47092531968456 -26.765487112935357 -61.939334915164025 -26.73832643270744 -61.45666922303312 -26.69883631521189 C -61.27299069209965 -26.683807554108554 -61.0964142515669 -26.666992785837166 -60.92695746319051 -26.64875056122825 A 0.375 0.375 0 0 0 -60.5475 -26.8898A 66.25 66.25 0 0 1 -60.4972 -27.0028A 0.375 0.375 0 0 0 -60.572 -27.4461C -60.69891841434085 -27.55978305372072 -60.8295669230957 -27.679753645714634 -60.963640395921594 -27.806197191499237 C -61.31595365964007 -28.138463656776803 -61.69184138831928 -28.515338272739655 -62.08610748809953 -28.94076338305354 A 68.5 68.5 0 0 1 -61.737 -29.6783C -61.15800361892992 -29.642982374202326 -60.62825252675809 -29.59111869643542 -60.14794679787769 -29.529215170326815 C -59.96516638814499 -29.505656982702774 -59.78956347258094 -29.48064514893074 -59.62113891223441 -29.454538648636774 A 0.375 0.375 0 0 0 -59.2309 -29.6777A 66.25 66.25 0 0 1 -59.1754 -29.7882A 0.375 0.375 0 0 0 -59.2294 -30.2345C -59.3509607331496 -30.353975006431902 -59.47588609486861 -30.479894146290025 -59.603931555607964 -30.612438577973244 C -59.940404502258 -30.96073672024888 -60.298350977210745 -31.35469151689141 -60.67239709462783 -31.79799929255829 A 68.5 68.5 0 0 1 -60.2893 -32.5185C -59.71262730082043 -32.45627753645864 -59.18586284389955 -32.379823186329936 -58.708957313525325 -32.29564032086133 C -58.5274708866599 -32.26360372850511 -58.35322181287692 -32.23044899929482 -58.18619425065367 -32.19653476418212 A 0.375 0.375 0 0 0 -57.786 -32.4013A 66.25 66.25 0 0 1 -57.7254 -32.5091A 0.375 0.375 0 0 0 -57.7586 -32.9574C -57.87446208710716 -33.082427008412715 -57.99339374127486 -33.214021983317416 -58.115133871972496 -33.35238023917482 C -58.435037776076435 -33.71595572223037 -58.774267764944454 -34.12613748118774 -59.12728379939952 -34.58636781627999 A 68.5 68.5 0 0 1 -58.7111 -35.2882C -58.13792672860902 -35.199279628839065 -57.61528976145441 -35.098400189446316 -57.14281730076926 -34.99212030595872 C -56.963017915958815 -34.951674692995546 -56.79050006864945 -34.91044887410768 -56.62523124905605 -34.86880035485758 A 0.375 0.375 0 0 0 -56.2159 -35.0547A 66.25 66.25 0 0 1 -56.1504 -35.1596A 0.375 0.375 0 0 0 -56.1627 -35.6089C -56.27262024349848 -35.739229840190525 -56.3853006106353 -35.876215644729335 -56.50047174927684 -36.020088071587956 C -56.80311377021367 -36.39815347188703 -57.12289257637979 -36.823673830807394 -57.45411397375079 -37.299829968901946 A 68.5 68.5 0 0 1 -57.0057 -37.9816C -56.437312353085396 -37.86604791961514 -55.91993479098868 -37.74096187336053 -55.452918670133656 -37.61281515041551 C -55.27519573280851 -37.56404811303674 -55.10478274721426 -37.51484049041495 -54.941630605712376 -37.46554788844598 A 0.375 0.375 0 0 0 -54.5241 -37.6322A 66.25 66.25 0 0 1 -54.4538 -37.7339A 0.375 0.375 0 0 0 -54.4452 -38.1834C -54.548904435063385 -38.31862945844071 -54.65508947458544 -38.460709411864606 -54.76344218613057 -38.60978441408495 C -55.04816686867436 -39.001520926156985 -55.34780192245184 -39.44145830269655 -55.65651133094746 -39.93250899562732 A 68.5 68.5 0 0 1 -55.1769 -40.5927C -54.614467326299156 -40.45080678249713 -54.10346969385171 -40.30178503790307 -53.64292136575083 -40.15204901276716 C -53.4676597842184 -40.09506616951648 -53.29972073691901 -40.03798331591396 -53.139038624716896 -39.981153388025646 A 0.375 0.375 0 0 0 -52.7142 -40.1282A 66.25 66.25 0 0 1 -52.6392 -40.2266A 0.375 0.375 0 0 0 -52.6098 -40.6751C -52.70704784641102 -40.81503945796325 -52.80650758516767 -40.96190584673106 -52.90780720177085 -41.11586056105389 C -53.17399789566086 -41.52041977084447 -53.45284025424507 -41.97382135860962 -53.73836907802902 -42.47870309992145 A 68.5 68.5 0 0 1 -53.2285 -43.1158C -52.67333952467258 -42.94795820535453 -52.169828528958845 -42.77532351033608 -51.71674543873722 -42.60432247789696 C -51.54432479055638 -42.539247240924055 -51.379223400132126 -42.47441278509068 -51.221359318904604 -42.41016861225211 A 0.375 0.375 0 0 0 -50.7902 -42.5373A 66.25 66.25 0 0 1 -50.7107 -42.632A 0.375 0.375 0 0 0 -50.6604 -43.0787C -50.7510395287732 -43.223053170592415 -50.843558559117696 -43.37438791480982 -50.93758568836646 -43.53288890960612 C -51.18466588383429 -43.949394631952885 -51.44211163676832 -44.41527846406664 -51.70384148398899 -44.932897792333414 A 68.5 68.5 0 0 1 -51.1649 -45.5456C -50.61813299877936 -45.352093914263754 -50.12319913249571 -45.15622015712853 -49.67856255723556 -44.96432446754445 C -49.50935626713614 -44.89129777532187 -49.34745010643439 -44.818852134251806 -49.19274595462868 -44.74733285503566 A 0.375 0.375 0 0 0 -48.7561 -44.8542A 66.25 66.25 0 0 1 -48.6723 -44.9452A 0.375 0.375 0 0 0 -48.6012 -45.3891C -48.685115760607786 -45.53745537483598 -48.77049370692227 -45.6929307171458 -48.857044706992355 -45.85563471455536 C -49.084479283353694 -46.28318489080997 -49.31997086046395 -46.760541966633596 -49.557334882553505 -47.289777833652245 A 68.5 68.5 0 0 1 -48.9905 -47.8768C -48.45329886830728 -47.65800708662509 -47.96801404799766 -47.43931848631447 -47.532786971510646 -47.226943742918316 C -47.36716150263865 -47.14612375500002 -47.208801224350694 -47.06622382981987 -47.057592056710554 -46.987584339059204 A 0.375 0.375 0 0 0 -46.6165 -47.0741A 66.25 66.25 0 0 1 -46.5285 -47.161A 0.375 0.375 0 0 0 -46.4369 -47.6011C -46.513750872762806 -47.75323359088383 -46.591802825427266 -47.912512806315405 -46.67069024612544 -48.07906742571028 C -46.877986630732366 -48.516736077396594 -47.0910140097014 -49.00453254780032 -47.3034981290435 -49.54423874653156 A 68.5 68.5 0 0 1 -46.71 -50.1042C -46.18352568192405 -49.86070362798118 -45.70894092644748 -49.61967381530649 -45.28406595366618 -49.38727997450148 C -45.122380013906195 -49.298841728984556 -44.96790859113161 -49.211660565140356 -44.82052189304333 -49.12607117846097 A 0.375 0.375 0 0 0 -44.3759 -49.1919A 66.25 66.25 0 0 1 -44.2839 -49.2747A 0.375 0.375 0 0 0 -44.1719 -49.7101C -44.24164755807221 -49.86558893652296 -44.31220447393756 -50.0283270617635 -44.383257462677 -50.19837158292597 C -44.5699666977206 -50.645210817203186 -44.76006850868187 -51.14239022365321 -44.94721253198936 -51.691397870650775 A 68.5 68.5 0 0 1 -44.3283 -52.2231C -43.81372926292501 -51.95541298811341 -43.3508724171827 -51.6925639799771 -42.93726973268826 -51.44065435507363 C -42.779873497782056 -51.344789389504705 -42.629625481225325 -51.250515801984115 -42.48638045945733 -51.15816188693874 A 0.375 0.375 0 0 0 -42.0391 -51.2033A 66.25 66.25 0 0 1 -41.9434 -51.2817A 0.375 0.375 0 0 0 -41.8113 -51.7113C -41.87372668637034 -51.869946520447805 -41.93663575486821 -52.035791100956075 -41.999700426697174 -52.20895724531832 C -42.165418141550205 -52.66399930790585 -42.332182666312484 -53.16948487051823 -42.49358128130356 -53.72660493747012 A 68.5 68.5 0 0 1 -41.8506 -54.229C -41.34904206265437 -53.937598492991455 -40.89891557150662 -53.65349956181472 -40.49748094661382 -53.382619732965836 C -40.34471530175768 -53.27953566951339 -40.19901609516588 -53.178373833914414 -40.06022298653794 -53.079455408517966 A 0.375 0.375 0 0 0 -39.6114 -53.1037A 66.25 66.25 0 0 1 -39.5121 -53.1776A 0.375 0.375 0 0 0 -39.3602 -53.6006C -39.415116646983705 -53.76196535045595 -39.47024162108015 -53.930557203800355 -39.52518139196252 -54.10646993205381 C -39.66954867895615 -54.5687293031715 -39.81261474269342 -55.08142625277767 -39.94791839590778 -55.64545214167672 A 68.5 68.5 0 0 1 -39.2822 -56.1174C -38.79480204475873 -55.80296717019892 -38.35838078195252 -55.49823361100436 -37.96998363466861 -55.208970243600646 C -37.82217943623188 -55.098890339391666 -37.68134459164263 -54.991059349723784 -37.54730399112199 -54.885790649258794 A 0.375 0.375 0 0 0 -37.0978 -54.8891A 66.25 66.25 0 0 1 -36.9952 -54.9583A 0.375 0.375 0 0 0 -36.8238 -55.3738C -36.871142241781534 -55.53754773507084 -36.918363733057724 -55.70852172883857 -36.96505961568359 -55.88680005318556 C -37.08776380742145 -56.355275581970126 -37.20682156089722 -56.874073531143075 -37.315737214751 -57.44378368750955 A 68.5 68.5 0 0 1 -36.6288 -57.8842C -36.156541124346155 -57.547479046555814 -35.73477028115572 -57.22277084437548 -35.36025179321458 -56.91575041845841 C -35.21772915217847 -56.798913082053154 -35.08206368650446 -56.6846464762285 -34.953065896184086 -56.57325548925925 A 0.375 0.375 0 0 0 -34.5039 -56.5557A 66.25 66.25 0 0 1 -34.3982 -56.62A 0.375 0.375 0 0 0 -34.2076 -57.0271C -34.24731315284087 -57.19284815822877 -34.28652889006183 -57.36583400082131 -34.32487975154753 -57.54609181010979 C -34.42565509807374 -58.019768882884634 -34.52044668870537 -58.54354423079085 -34.602738456145374 -59.117704789287444 A 68.5 68.5 0 0 1 -33.8961 -59.5257C -33.43997318709017 -59.167355897800654 -33.03376622524316 -58.823376298295415 -32.67393752029301 -58.49926375174112 C -32.537005108961495 -58.37592202679323 -32.40680284339178 -58.255467280835475 -32.28312724376066 -58.13819525543554 A 0.375 0.375 0 0 0 -31.8353 -58.0997A 66.25 66.25 0 0 1 -31.7267 -58.1591A 0.375 0.375 0 0 0 -31.5173 -58.5569C -31.54931200970172 -58.72428160781066 -31.580437060313084 -58.89890465041293 -31.610359841232498 -59.080751546367274 C -31.68898808558683 -59.55860428406977 -31.759308215896947 -60.08622264993844 -31.81479787127937 -60.66359010664782 A 68.5 68.5 0 0 1 -31.0899 -61.0383C -30.650981714225434 -60.6590894313831 -30.26121838754827 -60.296583417769114 -29.91685877443842 -59.956080706181005 C -29.785813157922735 -59.826501723401364 -29.661356081571494 -59.70011971546774 -29.543270526438707 -59.57722063673034 A 0.375 0.375 0 0 0 -29.0977 -59.518A 66.25 66.25 0 0 1 -28.9865 -59.5722A 0.375 0.375 0 0 0 -28.7588 -59.9598C -28.782982082057252 -60.12853133997977 -28.80594903613024 -60.304413387966044 -28.827378930403007 -60.487455530702725 C -28.883689781316896 -60.96844901070986 -28.92938615356192 -61.49876769064901 -28.95795351864948 -62.07809159622642 A 68.5 68.5 0 0 1 -28.2164 -62.4186C -27.795607040237854 -62.0194488846442 -27.423131489304758 -61.63920156422519 -27.09498677427623 -61.28304614065443 C -26.970111768200898 -61.147510539265475 -26.851669427381765 -61.01547498464279 -26.73942966376479 -60.88721502460566 A 0.375 0.375 0 0 0 -26.2971 -60.8073A 66.25 66.25 0 0 1 -26.1835 -60.8563A 0.375 0.375 0 0 0 -25.938 -61.2329C -25.954314624532625 -61.402556062510385 -25.969073740758912 -61.57931619452961 -25.981964336005987 -61.76315715552676 C -26.015835836715496 -62.24624965306704 -26.03680948272868 -62.77812009490572 -26.038392686969885 -63.35814576277382 A 68.5 68.5 0 0 1 -25.2818 -63.6638C -24.880033270844926 -63.245488021929006 -24.525652194757463 -62.84832292572864 -24.21443306619271 -62.47728614351504 C -24.09599912201409 -62.336087463448706 -23.983828036462892 -62.198684321746995 -23.877677150696503 -62.06534126292303 A 0.375 0.375 0 0 0 -23.4395 -61.9649A 66.25 66.25 0 0 1 -23.3238 -62.0086A 0.375 0.375 0 0 0 -23.0611 -62.3734C -23.06943590096139 -62.54359652154961 -23.075955214381754 -62.72085191451626 -23.080278592444266 -62.90509353518952 C -23.09163738482126 -63.38923877948689 -23.08784288035569 -63.921509070283406 -23.062438494882706 -64.50098029400401 A 68.5 68.5 0 0 1 -22.2925 -64.7711C -21.910574889599676 -64.33455151547696 -21.57505579885612 -63.92132881465406 -21.28143628808626 -63.536214256846534 C -21.16969990735492 -63.389658303002136 -21.064043014665035 -63.2471851588298 -20.964210905930436 -63.109047792591966 A 0.375 0.375 0 0 0 -20.5312 -62.9884A 66.25 66.25 0 0 1 -20.4135 -63.0266A 0.375 0.375 0 0 0 -20.1342 -63.3787C -20.134593916262638 -63.54918147754665 -20.132859307495913 -63.72654823575027 -20.128606104899703 -63.91079148977563 C -20.11742758832923 -64.39494093003897 -20.08887315143663 -64.92645829086786 -20.036536196491415 -65.50412006480532 A 68.5 68.5 0 0 1 -19.2548 -65.7382C -18.893663082125776 -65.28428069627046 -18.57773263636427 -64.85589533917981 -18.302348657867306 -64.45753707815437 C -18.197551836702786 -64.3059412580933 -18.098637966176412 -64.1587066765551 -18.0053408485908 -64.01607417767866 A 0.375 0.375 0 0 0 -17.5784 -63.8754A 66.25 66.25 0 0 1 -17.4591 -63.9081A 0.375 0.375 0 0 0 -17.1636 -64.2469C -17.15614488465317 -64.41713305740754 -17.14616011047568 -64.59422704394537 -17.133339538710477 -64.77807290146137 C -17.099647923370238 -65.26117797781203 -17.046395396602495 -65.79079126042645 -16.967239222375223 -66.36539249781043 A 68.5 68.5 0 0 1 -16.1755 -66.5628C -15.835831807601071 -66.09261866238684 -15.54017424181669 -65.64999843632029 -15.283622215968347 -65.2392592273651 C -15.185991920949437 -65.08295186387669 -15.094035298004291 -64.93127472229048 -15.007475232349233 -64.78445600100702 A 0.375 0.375 0 0 0 -14.5876 -64.624A 66.25 66.25 0 0 1 -14.4668 -64.6512A 0.375 0.375 0 0 0 -14.156 -64.9758C -14.140539463503249 -65.14557147128318 -14.12232614871249 -65.32200914001514 -14.100965974281891 -65.50505943183265 C -14.044834228708359 -65.98607384625168 -13.96699894518034 -66.5126360262142 -13.861194986318122 -67.08293226871504 A 68.5 68.5 0 0 1 -13.0611 -67.2433C -12.743703647657398 -66.75781473378977 -12.468959290301465 -66.30191825559561 -12.23179485166149 -65.87968766837508 C -12.141542528267179 -65.71900728840258 -12.056742310471925 -65.56321608568203 -11.97710676657469 -65.41252911864868 A 0.375 0.375 0 0 0 -11.5651 -65.2327A 66.25 66.25 0 0 1 -11.4433 -65.2542A 0.375 0.375 0 0 0 -11.1176 -65.5641C -11.094308782649042 -65.73291908377564 -11.067906373229164 -65.90831830999986 -11.038052857514563 -66.0901765899479 C -10.9596025505694 -66.56805857232455 -10.857353084173093 -67.09042923320666 -10.725130488490713 -67.65518534615501 A 68.5 68.5 0 0 1 -9.91845 -67.7781C -9.623975463343283 -67.27842824391249 -9.370739349514572 -66.81024288384482 -9.15347614344598 -66.37743537578979 C -9.070797258111615 -66.21272997725637 -8.99333710385494 -66.05316212245546 -8.920798554570599 -65.89893326408827 A 0.375 0.375 0 0 0 -8.51761 -65.7002A 66.25 66.25 0 0 1 -8.3949 -65.716A 0.375 0.375 0 0 0 -8.05518 -66.0103C -8.0240502994195 -66.17790383074508 -7.9895159771100905 -66.35188473879498 -7.951233776178835 -66.53215714233484 C -7.8506348137578 -67.00587170670862 -7.724192614068812 -67.52291950997883 -7.565837746265579 -68.08091235739226 A 68.5 68.5 0 0 1 -6.75431 -68.1662C -6.48340389121396 -67.65333165982076 -6.252224473945152 -67.17387140311537 -6.055333044172757 -66.73142433891196 C -5.980406660953286 -66.56305063703479 -5.910454331680708 -66.4000517185949 -5.8451698793543425 -66.24261499425788 A 0.375 0.375 0 0 0 -5.45166 -66.0253A 66.25 66.25 0 0 1 -5.32836 -66.0354A 0.375 0.375 0 0 0 -4.9753 -66.3136C -4.936413510013315 -66.47956197431746 -4.893822068466498 -66.65174776028773 -4.847194093041239 -66.83004385753588 C -4.724664350095856 -67.29856504364571 -4.574303262762938 -67.80917017889684 -4.390159084220519 -68.35919127252002 A 68.5 68.5 0 0 1 -3.57554 -68.4066C -3.3287907099615768 -67.88171302419812 -3.1201686723921247 -67.3920162750062 -2.9440754419096122 -66.94088789647273 C -2.8770638346667012 -66.76921055119705 -2.8147708315466473 -66.6031335884794 -2.7568818677646463 -66.44282997105992 A 0.375 0.375 0 0 0 -2.37391 -66.2075A 66.25 66.25 0 0 1 -2.25027 -66.2118A 0.375 0.375 0 0 0 -1.88465 -66.4733C -1.838085548170377 -66.63724019012616 -1.787529230964406 -66.80725793794622 -1.7326564668569313 -66.98319157925846 C -1.5884613155258598 -67.44550467454415 -1.41450698918221 -67.94856128475325 -1.2049723151866467 -68.48941940137452 A 68.5 68.5 0 0 1 -0.389031 -68.4989C -0.16696810927664754 -67.9630777138646 0.01864471971541054 -67.4642050463007 0.17355837218273765 -67.00537239704909 C 0.23251007122974687 -66.8307632232762 0.28700883542374056 -66.66196790200053 0.3373769360563683 -66.49914457343797 A 0.375 0.375 0 0 0 0.708982 -66.2462A 66.25 66.25 0 0 1 0.83269 -66.2448A 0.375 0.375 0 0 0 1.21008 -66.489C 1.2642232976704328 -66.65059698226706 1.3226349968102213 -66.81807847135417 1.3856337074117593 -66.99126862363981 C 1.5511819725396876 -67.44637236088349 1.7483527915588448 -67.94079093745202 1.982824155562241 -68.47131469882743 A 68.5 68.5 0 0 1 2.79832 -68.4428C 2.9952161071530092 -67.89724951102045 3.157417731511794 -67.390281372195 3.2908162974884063 -66.92473818157207 C 3.3415804120865684 -66.74757534389087 3.388166905166882 -66.5764272371362 3.430905056559986 -66.41143683650324 A 0.375 0.375 0 0 0 3.79034 -66.1415A 66.25 66.25 0 0 1 3.91385 -66.1343A 0.375 0.375 0 0 0 4.30219 -66.3607C 4.363794117361943 -66.5196034229026 4.429934691702157 -66.68418592564569 4.500922907618962 -66.85425749760036 C 4.687465745865278 -67.30116622344829 4.907426029471363 -67.7858759658351 5.166326270719552 -68.30491637563297 A 68.5 68.5 0 0 1 5.97962 -68.2385C 6.150913352460396 -67.68437098489458 6.289352479586126 -67.17040535490614 6.4009470474829175 -66.69915988579693 C 6.443413633864016 -66.5198270794638 6.4819869598603805 -66.3466968559186 6.517002600694849 -66.17989671568343 A 0.375 0.375 0 0 0 6.86349 -65.8935A 66.25 66.25 0 0 1 6.98653 -65.8806A 0.375 0.375 0 0 0 7.38498 -66.0887C 7.453913930712101 -66.24454321491314 7.527640134496709 -66.40587028226003 7.60646411106055 -66.57245493672988 C 7.813597512176424 -67.01020074639823 8.055870875375252 -67.48415188123501 8.338639273596833 -67.99058481350612 A 68.5 68.5 0 0 1 9.14796 -67.8864C 9.29328908911365 -67.32490318297143 9.407665890684184 -66.80505319692617 9.497214771516639 -66.32912606208129 C 9.531291856510906 -66.1480116820214 9.561768474188607 -65.97327430319774 9.588985768383575 -65.80502567532153 A 0.375 0.375 0 0 0 9.92177 -65.5028A 66.25 66.25 0 0 1 10.0441 -65.4842A 0.375 0.375 0 0 0 10.4518 -65.6735C 10.527890226303839 -65.82601207745958 10.609042384992575 -65.98373431090621 10.695531407022507 -66.14647126262427 C 10.922806766184973 -66.57410609616521 11.186868498820573 -67.03627215083198 11.492892640631032 -67.52900078461602 A 68.5 68.5 0 0 1 12.2965 -67.3873C 12.41553763100201 -66.81962463246474 12.505604392334241 -66.29501616967379 12.572913643166956 -65.8154381212892 C 12.598527423396481 -65.63293442091978 12.620841327188074 -65.45696832907021 12.640201328144975 -65.28763560261584 A 0.375 0.375 0 0 0 12.9586 -64.9703A 66.25 66.25 0 0 1 13.0799 -64.946A 0.375 0.375 0 0 0 13.4959 -65.1161C 13.579065455984988 -65.26491645578835 13.667467812072855 -65.41869226409821 13.761434563606283 -65.57722906106483 C 14.008359652996404 -65.99382675665339 14.293637856156375 -66.4432067823895 14.622254961409098 -66.92116397718505 A 68.5 68.5 0 0 1 15.4184 -66.7422C 15.510896883036965 -66.16962965420095 15.576458539581644 -65.64139889977645 15.621382383565543 -65.15920859711397 C 15.638477385285947 -64.97571083881061 15.652580248244607 -64.79889713730645 15.664041026512404 -64.62884704925291 A 0.375 0.375 0 0 0 15.9673 -64.297A 66.25 66.25 0 0 1 16.0873 -64.2671A 0.375 0.375 0 0 0 16.5109 -64.4177C 16.600831453634697 -64.5624715580729 16.69629254730359 -64.7119678970875 16.797533517280925 -64.86596118390297 C 17.06357355213963 -65.27061948369725 17.369450376760838 -65.70624022343354 17.71994873398134 -66.16839083038678 A 68.5 68.5 0 0 1 18.5069 -65.9526C 18.572662986344007 -65.37632599256402 18.613577546152136 -64.84561697669518 18.636018688244654 -64.36185873657767 C 18.644557887488876 -64.17776433562412 18.650419165953828 -64.00048596357047 18.65395590003884 -63.83008680454222 A 0.375 0.375 0 0 0 18.9414 -63.4845A 66.25 66.25 0 0 1 19.06 -63.449A 0.375 0.375 0 0 0 19.4901 -63.5798C 19.586643746979938 -63.720198723543305 19.688956830757956 -63.86509181748179 19.797252753782278 -64.01420807897762 C 20.081831550635073 -64.40605058320838 20.407644535627135 -64.82696857942535 20.77926504342161 -65.27231168323195 A 68.5 68.5 0 0 1 21.5553 -65.0202C 21.594204837328355 -64.44143176663458 21.610383688574125 -63.90939388687306 21.61029352625862 -63.42511542192673 C 21.610258429022583 -63.24082308580186 21.607865428769834 -63.06346398867677 21.603470458893586 -62.8930848053083 A 0.375 0.375 0 0 0 21.8746 -62.5345A 66.25 66.25 0 0 1 21.9913 -62.4936A 0.375 0.375 0 0 0 22.427 -62.6041C 22.530035731465308 -62.73992212760433 22.638979217995768 -62.87989817028958 22.754095549212817 -63.02381445384813 C 23.056596773754883 -63.401992518905544 23.401640280743383 -63.80729615695218 23.793578091843315 -64.23486724361696 A 68.5 68.5 0 0 1 24.5571 -63.9469C 24.56897844916892 -63.366971749126435 24.560386552063186 -62.83475728104719 24.537765280611158 -62.35100743058942 C 24.52915596290766 -62.16691629545559 24.518513866642895 -61.989860593569645 24.506196711331476 -61.819870389232584 A 0.375 0.375 0 0 0 24.7603 -61.4491A 66.25 66.25 0 0 1 24.875 -61.4027A 0.375 0.375 0 0 0 25.3154 -61.4929C 25.424632675478136 -61.623764831077686 25.53997061742843 -61.7585206655707 25.66165804049855 -61.89692528056865 C 25.98142654243762 -62.260619856975374 26.344953284019688 -62.64943133942346 26.756359548401782 -63.05830438518301 A 68.5 68.5 0 0 1 27.5056 -62.7351C 27.490541124636145 -62.15527298117999 27.45719708731482 -61.62403458280891 27.412093699362998 -61.14186104129581 C 27.394928807057084 -60.95836980755887 27.37606066319107 -60.782000964136095 27.35584799866014 -60.61276789976012 A 0.375 0.375 0 0 0 27.5924 -60.2306A 66.25 66.25 0 0 1 27.7049 -60.1789A 0.375 0.375 0 0 0 28.149 -60.2485C 28.264165526598116 -60.37414418212503 28.385648127669086 -60.50338795729531 28.513643094730906 -60.63598115015611 C 28.849986326696882 -60.98440455644609 29.231208984899308 -61.355881804204046 29.661192688205652 -61.74517128108786 A 68.5 68.5 0 0 1 30.3946 -61.3875C 30.352565409540038 -60.80895973250907 30.294541447763013 -60.27984794792243 30.227053627206207 -59.80029499587593 C 30.201370335632383 -59.617801064688855 30.17431700836322 -59.44250105537082 30.146252610743257 -59.27439165208906 A 0.375 0.375 0 0 0 30.3648 -58.8816A 66.25 66.25 0 0 1 30.4747 -58.8248A 0.375 0.375 0 0 0 30.9216 -58.8736C 31.042484488968398 -58.99376658081017 31.169848644897517 -59.11721838342034 31.30387394735393 -59.24371298681371 C 31.656063464802283 -59.576110615474796 32.05415639623695 -59.92944909154344 32.501786289513674 -60.29831188523043 A 68.5 68.5 0 0 1 33.2178 -59.9069C 33.14885279658651 -59.330947817817254 33.06627457733439 -58.805108585319424 32.97654848776394 -58.32921482764822 C 32.94240242121268 -58.148113440228755 32.90722250202308 -57.974261925800356 32.87136715255003 -57.80764027114621 A 0.375 0.375 0 0 0 33.0714 -57.4051A 66.25 66.25 0 0 1 33.1786 -57.3432A 0.375 0.375 0 0 0 33.6272 -57.3713C 33.75357234238447 -57.485621617639104 33.88654221077107 -57.60301407857458 34.02630757966131 -57.72313613335702 C 34.393580618521774 -58.03878808514287 34.80768164254534 -58.373222537063405 35.271988259120526 -58.720859772879734 A 68.5 68.5 0 0 1 35.969 -58.2965C 35.87334714996435 -57.724438281792395 35.76639351927175 -57.20301045206864 35.65462348741772 -56.73180656868124 C 35.612088598665636 -56.55248995030741 35.568858279426806 -56.380463454436146 35.525289632803464 -56.215690413810776 A 0.375 0.375 0 0 0 35.7064 -55.8043A 66.25 66.25 0 0 1 35.8105 -55.7375A 0.375 0.375 0 0 0 36.26 -55.7446C 36.391557474252835 -55.85297559877282 36.529845071971316 -55.964054472103825 36.6750478066289 -56.07754382065309 C 37.05660893528259 -56.37576646372459 37.48582120128783 -56.69057258094502 37.965798956420386 -57.01623135404874 A 68.5 68.5 0 0 1 38.6423 -56.5599C 38.520147821586455 -55.992910466356754 38.389050417201354 -55.47702333597624 38.25547851206412 -55.01152984955776 C 38.20464692220869 -54.834386360095266 38.1534598301657 -54.66455745386485 38.10227224637892 -54.501989888983076 A 0.375 0.375 0 0 0 38.264 -54.0826A 66.25 66.25 0 0 1 38.365 -54.011A 0.375 0.375 0 0 0 38.8143 -53.9972C 38.95072659619653 -54.0993644719354 39.09403242310372 -54.20388918555702 39.244358046738704 -54.31050003521564 C 39.63938088874585 -54.59064748573522 40.0827748185403 -54.885143468305756 40.57738418729266 -55.188118474311054 A 68.5 68.5 0 0 1 41.2319 -54.7008C 41.08352243057979 -54.140114475187076 40.92856518028769 -53.63088534079799 40.773480688870386 -53.172110406585304 C 40.71446248781621 -52.997523699386534 40.65542948281224 -52.83026019439086 40.59673382277019 -52.67025019039814 A 0.375 0.375 0 0 0 40.7388 -52.2438A 66.25 66.25 0 0 1 40.8363 -52.1676A 0.375 0.375 0 0 0 41.2845 -52.1329C 41.42553711776578 -52.228586168338595 41.57355080535151 -52.326330344996364 41.72867374613716 -52.42583180040376 C 42.136302769984496 -52.68729732137601 42.59291807104989 -52.9608453565759 43.10108783966747 -53.240480419085344 A 68.5 68.5 0 0 1 43.7322 -52.7233C 43.557919278346084 -52.17006305182505 43.379437785045695 -51.66859479033883 43.20317658582297 -51.217532012680785 C 43.13609959385153 -51.045880203677086 43.06934852823013 -50.881544355422236 43.003271913662296 -50.724438458356666 A 0.375 0.375 0 0 0 43.1254 -50.2918A 66.25 66.25 0 0 1 43.2192 -50.2112A 0.375 0.375 0 0 0 43.6653 -50.1557C 43.81062915045425 -50.24469237720863 43.963030134030475 -50.335444324781314 44.12261443021938 -50.427620887941764 C 44.54196680221088 -50.66983820327062 45.010814547482845 -50.921845846968495 45.53144413340457 -51.17753533870501 A 68.5 68.5 0 0 1 46.1378 -50.6315C 45.93797937230436 -50.087022888968505 45.73636018716644 -49.59440156897404 45.5393040226465 -49.152027849405734 C 45.46431351358591 -48.983682698192474 45.38998895529126 -48.82263042153195 45.31667449343105 -48.66876888778271 A 0.375 0.375 0 0 0 45.4185 -48.2309A 66.25 66.25 0 0 1 45.5085 -48.146A 0.375 0.375 0 0 0 45.9515 -48.0698C 46.10083711602451 -48.15197977072942 46.25729532899699 -48.23554294070695 46.42099535653936 -48.320194977710244 C 46.851162852817446 -48.542639498626954 47.33122762248136 -48.77256095838287 47.86318945795639 -49.00375111284354 A 68.5 68.5 0 0 1 48.4435 -48.4301C 48.218548032275955 -47.89550538776484 47.994227817559555 -47.41279791734581 47.776803467514846 -46.980071338837334 C 47.694061854109066 -46.815397443525455 47.61232477358408 -46.65797754182784 47.531931247230425 -46.50769360121559 A 0.375 0.375 0 0 0 47.6133 -46.0656A 66.25 66.25 0 0 1 47.6992 -45.9766A 0.375 0.375 0 0 0 48.1382 -45.8799C 48.291200933999825 -45.95498069840758 48.45137752271892 -46.031174111571374 48.61883874380734 -46.10811828495544 C 49.05888971736349 -46.31030824616098 49.549131798027666 -46.517645563291346 50.09127377217605 -46.72383567408234 A 68.5 68.5 0 0 1 50.6443 -46.1238C 50.39468605437363 -45.6002568871211 50.14815063771285 -45.12850870317053 49.910828994870165 -44.70636645513267 C 49.82051547702917 -44.54572046271031 49.731542898589275 -44.39227387242889 49.644244422218485 -44.24589300650422 A 0.375 0.375 0 0 0 49.7049 -43.8005A 66.25 66.25 0 0 1 49.7866 -43.7076A 0.375 0.375 0 0 0 50.2206 -43.5906C 50.37697676409418 -43.65845337101252 50.540524821736376 -43.727112009396194 50.71138455265572 -43.79618167521519 C 51.16036595107049 -43.97767917827664 51.65972358755386 -44.161983306321815 52.21087154158217 -44.342726811576966 A 68.5 68.5 0 0 1 52.7354 -43.7176C 52.46168040821747 -43.20624838419053 52.19346373042703 -42.746481188227385 51.93675878061867 -42.33583753676799 C 51.83906895731136 -42.17956737068256 51.74305357574933 -42.030426422962854 51.649039218421834 -41.88826566008568 A 0.375 0.375 0 0 0 51.6889 -41.4405A 66.25 66.25 0 0 1 51.7662 -41.3439A 0.375 0.375 0 0 0 52.1943 -41.2068C 52.353647280314064 -41.26737155535137 52.5202125982049 -41.32834671963288 52.69410079482456 -41.389392288370864 C 53.15104022436681 -41.54980425011194 53.658431919224256 -41.71067602737087 54.21739218939206 -41.86558147690523 A 68.5 68.5 0 0 1 54.7123 -41.2168C 54.41505444430932 -40.718664768299654 54.12573740298761 -40.27187431369078 53.85020511197258 -39.873618621517984 C 53.74535055760294 -39.722062728151464 53.64250032085481 -39.57755042907596 53.54197369673375 -39.43991765780275 A 0.375 0.375 0 0 0 53.561 -38.9908A 66.25 66.25 0 0 1 53.6337 -38.8907A 0.375 0.375 0 0 0 54.055 -38.7338C 54.21693145448043 -38.78691380219789 54.38615328923164 -38.840073433749176 54.56269334843864 -38.8929626942977 C 55.02660118005391 -39.031941698129344 55.54092803585885 -39.16903271215494 56.10649003868859 -39.2977646152587 A 68.5 68.5 0 0 1 56.5706 -38.6266C 56.25057758945852 -38.14289359163279 55.94078678089277 -37.71004752701289 55.64702389025868 -37.32504232727356 C 55.53523169644279 -37.17852894294294 55.42576935521896 -37.03895827397187 55.318948182587214 -36.90615157623754 A 0.375 0.375 0 0 0 55.3171 -36.4566A 66.25 66.25 0 0 1 55.385 -36.3533A 0.375 0.375 0 0 0 55.7985 -36.177C 55.962793827982736 -36.222452230704306 56.13430568278206 -36.26768119760087 56.31311525811957 -36.31229960359882 C 56.78298677074622 -36.42954465194614 57.30313487005776 -36.54255799412905 57.87407372418899 -36.64483754616573 A 68.5 68.5 0 0 1 58.3065 -35.9528C 57.9642745092616 -35.4845134009934 57.634680871359876 -35.06654917455355 57.32332360611358 -34.69562830277849 C 57.2048358898497 -34.554474742849074 57.0889985152065 -34.42014798297224 56.976114144937355 -34.29245498851107 A 0.375 0.375 0 0 0 56.9533 -33.8435A 66.25 66.25 0 0 1 57.0164 -33.7371A 0.375 0.375 0 0 0 57.4213 -33.5417C 57.58745325168343 -33.5795408935878 57.760883670045125 -33.616741239958785 57.94157549978976 -33.65299215787426 C 58.41639305636104 -33.74824932407033 58.94123587422111 -33.83694023267686 59.51631505323076 -33.91254591891206 A 68.5 68.5 0 0 1 59.9161 -33.2012C 59.55243371779123 -32.74928165591418 59.203751076980275 -32.347104485097816 58.8754737676262 -31.991071273299728 C 58.75054714692323 -31.855583244950665 58.628585616819834 -31.726791316018485 58.50988253132254 -31.604488579422185 A 0.375 0.375 0 0 0 58.4662 -31.1571A 66.25 66.25 0 0 1 58.5243 -31.0479A 0.375 0.375 0 0 0 58.9196 -30.8339C 59.08739107504509 -30.863903748288894 59.26236444530196 -30.89299490646773 59.44454719118642 -30.920799824884778 C 59.92328244260576 -30.993862803119196 60.45168328634133 -31.058039193390734 61.029657296784606 -31.106807268743726 A 68.5 68.5 0 0 1 61.3959 -30.3776C 61.01161561584829 -29.943122259281708 60.64459914108449 -29.557603170285187 60.30011276317486 -29.217228707120395 C 60.16901780127497 -29.08769964725101 60.04119625722754 -28.964721483902533 59.91693154095283 -28.848073885664558 A 0.375 0.375 0 0 0 59.8525 -28.4032A 66.25 66.25 0 0 1 59.9054 -28.2914A 0.375 0.375 0 0 0 60.2904 -28.0592C 60.45935876674411 -28.081422260154163 60.63549613553873 -28.102341225170164 60.818775230303345 -28.121639924827008 C 61.30039134261953 -28.17235047695837 61.83120581366581 -28.211873357124198 62.41082289253763 -28.23369820080329 A 68.5 68.5 0 0 1 62.7427 -27.4882C 62.33865994036798 -27.07211272748168 61.95410450760952 -26.704086668805523 61.594155141929676 -26.380108129567667 C 61.4571757613285 -26.256818569278487 61.32377103633852 -26.13992051483111 61.194213818990946 -26.029180687674504 A 0.375 0.375 0 0 0 61.1091 -25.5878A 66.25 66.25 0 0 1 61.1568 -25.4736A 0.375 0.375 0 0 0 61.5305 -25.2238C 61.700384950265935 -25.238122664492224 61.877304843279255 -25.25082413052534 62.0612833452168 -25.2615748147359 C 62.544737245175405 -25.289823113000374 63.07681571758832 -25.30460688530289 63.65682054336326 -25.299441229556564 A 68.5 68.5 0 0 1 63.9537 -24.5394C 63.53069260884564 -24.142471027852153 63.12943107952821 -23.792735061988488 62.75479829625176 -23.485854112050966 C 62.612231163785516 -23.369071069075826 62.473532182781135 -23.258506298684978 62.33896305644406 -23.153914080416136 A 0.375 0.375 0 0 0 62.2335 -22.717A 66.25 66.25 0 0 1 62.2758 -22.6007A 0.375 0.375 0 0 0 62.6375 -22.3338C 62.80778183924516 -22.340162915089625 62.9851010873849 -22.344619373592757 63.16938054002798 -22.346798758768962 C 63.653625174135776 -22.352523623642742 64.18581528442574 -22.34253626972315 64.76495169580495 -22.31039130221148 A 68.5 68.5 0 0 1 65.0261 -21.5373C 64.58513194395972 -21.160542111950452 64.16803336120408 -20.829853689123166 63.77952853151748 -20.540734964288205 C 63.631682415848665 -20.430711364693288 63.48798956993766 -20.32671933703139 63.348699981373265 -20.2285012511048 A 0.375 0.375 0 0 0 63.223 -19.7969A 66.25 66.25 0 0 1 63.2598 -19.6788A 0.375 0.375 0 0 0 63.6087 -19.3954C 63.77915105861208 -19.393819347454496 63.9564856278717 -19.39002114673087 64.14066692296069 -19.383624512809735 C 64.62465352517039 -19.3668135455103 65.15580266806502 -19.332076695753234 65.73281638454183 -19.273022035317908 A 68.5 68.5 0 0 1 65.9577 -18.4886C 65.49969426490976 -18.132784173801337 65.06766197136791 -17.82185949149756 64.66612651022112 -17.551129158543045 C 64.51332161311433 -17.448103288945337 64.36494610900387 -17.35090922758767 64.2212377284444 -17.259277992506536 A 0.375 0.375 0 0 0 64.0756 -16.834A 66.25 66.25 0 0 1 64.1069 -16.7143A 0.375 0.375 0 0 0 64.4422 -16.415C 64.6123888389392 -16.4054730856713 64.78935466213002 -16.39342845177791 64.97303890399272 -16.378469652444117 C 65.45571926709661 -16.339159261783234 65.98467709182714 -16.279748148470162 66.55831843017938 -16.193911694355563 A 68.5 68.5 0 0 1 66.7465 -15.3999C 66.27239883336065 -15.065754662886699 65.82636851477668 -14.775267114732504 65.41267205856585 -14.523511515274182 C 65.25523932140209 -14.427706506765738 65.10250250739422 -14.337520912406317 64.95468657519139 -14.252674981021652 A 0.375 0.375 0 0 0 64.7894 -13.8346A 66.25 66.25 0 0 1 64.8151 -13.7136A 0.375 0.375 0 0 0 65.1361 -13.399C 65.30569057273725 -13.381596222306815 65.48190438129248 -13.361331241238616 65.66469375076325 -13.337842673920544 C 66.14502249657671 -13.276117997450852 66.67064339828156 -13.192161291823727 67.2396699791071 -13.07972894667566 A 68.5 68.5 0 0 1 67.3907 -12.2778C 66.9015721432807 -11.96609608216998 66.44250980200395 -11.69667479950976 66.01754832513252 -11.464439180115864 C 65.8558287121638 -11.376062525011537 65.69906138218671 -11.29308071956548 65.54745803473449 -11.215203849271422 A 0.375 0.375 0 0 0 65.3629 -10.8053A 66.25 66.25 0 0 1 65.383 -10.6832A 0.375 0.375 0 0 0 65.689 -10.354C 65.85755472283321 -10.328737801299226 66.03263487688228 -10.300296362492668 66.21413349288989 -10.268328898196764 C 66.69107033630765 -10.18432361782283 67.2122159371574 -10.076003151410806 67.77539537559134 -9.937218418652757 A 68.5 68.5 0 0 1 67.889 -9.12916C 67.38585154538305 -8.8405216019143 66.9147514082221 -8.592750091252363 66.47944528261979 -8.380537422560959 C 66.31378904251658 -8.299780525016251 66.15333071969849 -8.224182228596014 65.99826829608884 -8.153443083352226 A 0.375 0.375 0 0 0 65.7948 -7.75259A 66.25 66.25 0 0 1 65.8092 -7.62971A 0.375 0.375 0 0 0 66.0996 -7.28658C 66.26678607436547 -7.253509634186825 66.44035338928104 -7.216953335465103 66.62016816623876 -7.176576208600606 C 67.09268016826091 -7.070472261053674 67.60822178293128 -6.938022631866516 68.16433435771712 -6.773186088325464 A 68.5 68.5 0 0 1 68.2402 -5.96072C 67.72418819832066 -5.695800520450081 67.24207056326942 -5.470215399705489 66.79736256507161 -5.278485287102072 C 66.62812847236212 -5.205523048574358 66.46432667369989 -5.137471990255978 66.30614100461352 -5.074023775299077 A 0.375 0.375 0 0 0 66.0843 -4.68307A 66.25 66.25 0 0 1 66.0929 -4.55966A 0.375 0.375 0 0 0 66.367 -4.20339C 66.53249832335304 -4.162571980396892 66.70417689098046 -4.1179799945627895 66.88191839012201 -4.069280652995432 C 67.34898219496972 -3.941307835798974 67.85780327512263 -3.785015900240009 68.40564457025691 -3.5944845451639504 A 68.5 68.5 0 0 1 68.4436 -2.77937C 67.9158493402431 -2.5387436033826156 67.42375836674253 -2.335833439694275 66.97061163444708 -2.1650011279088477 C 66.79816621249155 -2.099991568359763 66.63137569620618 -2.0396351315821506 66.47040937657799 -1.9836152616172693 A 0.375 0.375 0 0 0 66.2306 -1.60341A 66.25 66.25 0 0 1 66.2335 -1.47973A 0.375 0.375 0 0 0 66.4907 -1.11109" stroke="#191919" stroke-width="0.35 px" style="stroke-width:0.35;stroke-miterlimit:4;stroke-dasharray:none;fill:none;fill-rule: evenodd "/>
<title>b'InvoluteGear'</title>
</g>
</svg>