<?xml version="1.0"?>
<!DOCTYPE svg PUBLIC "-//W3C//DTD SVG 1.1//EN" "http://www.w3.org/Graphics/SVG/1.1/DTD/svg11.dtd">
<svg width="79.55604893451073mm" height="79.55604893451073mm" viewBox="0 0 79.55604893451073 79.55604893451073" xmlns="http://www.w3.org/2000/svg" version="1.1">
<g id="InvoluteGear" transform="translate(39.778024,39.778024) scale(1,-1)">
<path id="InvoluteGear_w0000"  d="M 36.98423870792629 -1.0798551732184931 C 37.142082803676786 -1.0419261038950272 37.313574828632525 -0.9965237926424974 37.498166086300955 -0.9422267204901627 C 37.92987849355003 -0.8152272957557919 38.43261875682629 -0.6398241349392881 38.99806320319153 -0.398354148741368 A 39 39 0 0 1 38.9981 0.398354C 38.43261875682629 0.6398241349392881 37.92987849355003 0.8152272957557919 37.498166086300955 0.9422267204901627 C 37.313574828632525 0.9965237926424974 37.142082803676786 1.0419261038950272 36.9842420918402 1.0798540290713032 A 0.375 0.375 0 0 0 36.7216 1.44354A 36.75 36.75 0 0 1 36.7154 1.59384A 0.375 0.375 0 0 0 36.9471 1.97797C 37.10126533580417 2.0288014894061583 37.26842233540321 2.088210427921662 37.44789930366076 2.1575654732825162 C 37.86764966479384 2.319781658616471 38.35418813697104 2.5361016905944958 38.89776087046395 2.8234409666476843 A 39 39 0 0 1 38.832 3.61743C 38.24851562040967 3.811379312858299 37.73300779180445 3.94466742106844 37.29228237193152 4.035582550356568 C 37.10383777031516 4.074450745241076 36.929182184423794 4.105536285407439 36.76874851540614 4.130300284817681 A 0.375 0.375 0 0 0 36.477 4.47106A 36.75 36.75 0 0 1 36.4584 4.62033A 0.375 0.375 0 0 0 36.6576 5.02228C 36.80700860549988 5.0856703113570525 36.968688727939984 5.158680053845598 37.14182539710621 5.2426193071300675 C 37.546746391535486 5.438944152032727 38.01375952150515 5.694703370008236 38.53174738918045 6.025949117303057 A 39 39 0 0 1 38.4006 6.81179C 37.803136338821034 6.956898905382706 37.27838238607429 7.047161468055046 36.83165455508493 7.101371259377166 C 36.64064387723 7.124545067810954 36.46401780515307 7.141101491131492 36.30208710359134 7.152532401549362 A 0.375 0.375 0 0 0 35.9832 7.46803A 36.75 36.75 0 0 1 35.9523 7.61526A 0.375 0.375 0 0 0 36.1176 8.03228C 36.261322684604295 8.107798848279526 36.41642149070771 8.193910664169008 36.58203516177393 8.291860735163876 C 36.969360768522975 8.520953141873784 37.41365838306231 8.814404451051567 37.902523002551014 9.187293925255227 A 39 39 0 0 1 37.7069 9.95962C 37.09952330416229 10.054895824180663 36.5691078288648 10.101516256487114 36.119429190820725 10.11865040200049 C 35.92715723333924 10.125971523374021 35.74976721024552 10.127885732689464 35.587445627026945 10.125905469406018 A 0.375 0.375 0 0 0 35.2436 10.414A 36.75 36.75 0 0 1 35.2007 10.5582A 0.375 0.375 0 0 0 35.331 10.9874C 35.46793516127537 11.074542897868369 35.61539316892831 11.173168556140036 35.77235253259108 11.284460346540342 C 36.139436925022785 11.544755381623023 36.55798402091264 11.873894212005684 37.01438595116143 12.285880199904422 A 39 39 0 0 1 36.7557 13.0394C 36.14248290691438 13.08420760896923 35.610029184596634 13.086867446084643 35.16047150056382 13.066808902201622 C 34.96825167588659 13.0582273258324 34.79130945550494 13.045486245152137 34.62970581163482 13.030108335373562 A 0.375 0.375 0 0 0 34.2632 13.2888A 36.75 36.75 0 0 1 34.2086 13.429A 0.375 0.375 0 0 0 34.303 13.8675C 34.43226567678182 13.965636590026008 34.571075598271534 14.076102377428759 34.71830846292235 14.199975651457677 C 35.06264408241774 14.489695235887822 35.45258155859202 14.852273235521467 35.87340311163182 15.300541455069636 A 39 39 0 0 1 35.5534 16.0301C 34.93855270341671 16.02414098857656 34.40769793290311 15.982822061116398 33.96133213770901 15.9257078480308 C 33.7704775021469 15.901282194787028 33.59519177925956 15.873972858611392 33.435409991489486 15.84530234905447 A 0.375 0.375 0 0 0 33.0488 16.0729A 36.75 36.75 0 0 1 32.9828 16.208A 0.375 0.375 0 0 0 33.0406 16.6528C 33.16138890385777 16.761330823304565 33.29060252666908 16.882882146499604 33.427103142550216 17.01849072408967 C 33.74633782767641 17.335655779333827 34.105002015781444 17.7291961728317 34.48736855369756 18.210684497551792 A 39 39 0 0 1 34.1082 18.9114C 33.49595675772833 18.854613236966706 32.97032721538115 18.769597795102364 32.53020244001589 18.675818060802616 C 32.34201672425386 18.635715182663233 32.169584878085544 18.594024141449605 32.012716418042565 18.552256880766127 A 0.375 0.375 0 0 0 31.6087 18.7471A 36.75 36.75 0 0 1 31.5317 18.8763A 0.375 0.375 0 0 0 31.5526 19.3244C 31.663986219514378 19.442528171294082 31.782720883582613 19.57433471149257 31.907556813077782 19.720752248553556 C 32.199509867235655 20.063196215683273 32.52445072718598 20.485010723113078 32.86575029880987 20.996430099524513 A 39 39 0 0 1 32.43 21.6634C 31.824549462931344 21.55628935862206 31.307735731506142 21.428158144025996 30.876858474466125 21.29835349918876 C 30.692627177760635 21.242847339475247 30.524227092664255 21.18705938530928 30.371343530993002 21.132480686241152 A 0.375 0.375 0 0 0 29.9526 21.2933A 36.75 36.75 0 0 1 29.8652 21.4157A 0.375 0.375 0 0 0 29.849 21.864C 29.950286402432074 21.99091333740946 30.05773102960627 22.13207472229176 30.170049516735062 22.288301038580112 C 30.432726604528213 22.65368467806628 30.721724460764673 23.100891878627984 31.019625643948938 23.638748793817456 A 39 39 0 0 1 30.5303 24.2675C 29.935748225633912 24.11071416616818 29.431280666958557 23.940342444959423 29.01259425681316 23.775399586929115 C 28.83357586572878 23.704869308994816 28.67035788504099 23.635365530171704 28.52250357148957 23.56834822057564 A 0.375 0.375 0 0 0 28.0919 23.6941A 36.75 36.75 0 0 1 27.9947 23.8088A 0.375 0.375 0 0 0 27.9416 24.2543C 28.03199576003027 24.389078266937553 28.127416394559404 24.538630221109166 28.226450190165288 24.70359813247323 C 28.458056960733025 25.089425503564023 28.70913766485755 25.558970518615652 28.961605492453216 26.11959086447267 A 39 39 0 0 1 28.422 26.7057C 27.84245547350603 26.50043834801683 27.353780112529655 26.288989931805887 26.950144602002595 26.090035587552716 C 26.7775619936727 26.004962984712684 26.62064106170245 25.922218162517687 26.478825991154718 25.84322003857289 A 0.375 0.375 0 0 0 26.0393 25.9329A 36.75 36.75 0 0 1 25.9329 26.0393A 0.375 0.375 0 0 0 25.8432 26.4788C 25.922218162517694 26.620641061702447 26.004962984712687 26.77756199367269 26.09003558755272 26.95014460200259 C 26.288989931805894 27.353780112529652 26.500438348016832 27.842455473506025 26.705748208762408 28.422009644606835 A 39 39 0 0 1 26.1196 28.9616C 25.558970518615656 28.709137664857547 25.08942550356403 28.45805696073302 24.703598132473232 28.226450190165284 C 24.53863022110917 28.127416394559404 24.38907826693756 28.031995760030266 24.254271180123943 27.941556459026316 A 0.375 0.375 0 0 0 23.8088 27.9947A 36.75 36.75 0 0 1 23.6941 28.0919A 0.375 0.375 0 0 0 23.5683 28.5225C 23.635365530171704 28.670357885040985 23.704869308994816 28.833575865728776 23.775399586929115 29.012594256813156 C 23.940342444959423 29.431280666958553 24.11071416616818 29.935748225633905 24.267463585533314 30.530277279329695 A 39 39 0 0 1 23.6387 31.0196C 23.100891878627984 30.721724460764666 22.65368467806628 30.43272660452821 22.288301038580112 30.17004951673506 C 22.13207472229176 30.057731029606266 21.99091333740946 29.95028640243207 21.86403510342549 29.84902371649907 A 0.375 0.375 0 0 0 21.4157 29.8652A 36.75 36.75 0 0 1 21.2933 29.9526A 0.375 0.375 0 0 0 21.1325 30.3713C 21.187059385309286 30.524227092664255 21.242847339475254 30.692627177760635 21.298353499188767 30.876858474466125 C 21.428158144026007 31.307735731506142 21.556289358622074 31.824549462931344 21.663407579130684 32.429992162940835 A 39 39 0 0 1 20.9964 32.8658C 20.485010723113085 32.52445072718598 20.063196215683284 32.199509867235655 19.720752248553563 31.907556813077782 C 19.574334711492575 31.782720883582613 19.44252817129409 31.663986219514378 19.32444549713071 31.552591875476267 A 0.375 0.375 0 0 0 18.8763 31.5317A 36.75 36.75 0 0 1 18.7471 31.6087A 0.375 0.375 0 0 0 18.5523 32.0127C 18.59402414144961 32.169584878085544 18.635715182663237 32.34201672425386 18.67581806080262 32.53020244001589 C 18.76959779510237 32.97032721538115 18.854613236966713 33.49595675772833 18.911368532556274 34.10817731649964 A 39 39 0 0 1 18.2107 34.4874C 17.729196172831706 34.105002015781444 17.335655779333834 33.74633782767641 17.018490724089673 33.427103142550216 C 16.882882146499608 33.29060252666908 16.76133082330457 33.16138890385777 16.65285033336057 33.0406238380367 A 0.375 0.375 0 0 0 16.208 32.9828A 36.75 36.75 0 0 1 16.0729 33.0488A 0.375 0.375 0 0 0 15.8453 33.4354C 15.873972858611396 33.59519177925956 15.901282194787031 33.7704775021469 15.925707848030804 33.96133213770901 C 15.982822061116403 34.40769793290311 16.024140988576562 34.93855270341671 16.030145663029092 35.55336903374995 A 39 39 0 0 1 15.3005 35.8734C 14.852273235521471 35.45258155859202 14.489695235887828 35.06264408241774 14.199975651457681 34.71830846292235 C 14.076102377428763 34.571075598271534 13.965636590026012 34.43226567678182 13.867499316045485 34.302954837031514 A 0.375 0.375 0 0 0 13.429 34.2086A 36.75 36.75 0 0 1 13.2888 34.2632A 0.375 0.375 0 0 0 13.0301 34.6297C 13.04548624515214 34.79130945550494 13.058227325832405 34.96825167588659 13.066808902201627 35.16047150056382 C 13.086867446084646 35.610029184596634 13.084207608969233 36.14248290691438 13.039420644269555 36.75569518985782 A 39 39 0 0 1 12.2859 37.0144C 11.873894212005688 36.55798402091264 11.544755381623027 36.139436925022785 11.284460346540348 35.77235253259108 C 11.173168556140041 35.61539316892831 11.074542897868373 35.46793516127537 10.987419216942492 35.3309618717508 A 0.375 0.375 0 0 0 10.5582 35.2007A 36.75 36.75 0 0 1 10.414 35.2436A 0.375 0.375 0 0 0 10.1259 35.5874C 10.127885732689467 35.74976721024552 10.125971523374027 35.92715723333924 10.118650402000494 36.119429190820725 C 10.101516256487118 36.5691078288648 10.054895824180667 37.09952330416229 9.959623160711068 37.706942678034345 A 39 39 0 0 1 9.18729 37.9025C 8.81440445105157 37.41365838306231 8.520953141873788 36.969360768522975 8.29186073516388 36.58203516177393 C 8.193910664169014 36.41642149070771 8.10779884827953 36.261322684604295 8.032283903491265 36.117622611761995 A 0.375 0.375 0 0 0 7.61526 35.9523A 36.75 36.75 0 0 1 7.46803 35.9832A 0.375 0.375 0 0 0 7.15253 36.3021C 7.141101491131495 36.46401780515307 7.124545067810957 36.64064387723 7.101371259377169 36.83165455508493 C 7.04716146805505 37.27838238607429 6.95689890538271 37.803136338821034 6.811791352039895 38.40061351338302 A 39 39 0 0 1 6.02595 38.5317C 5.694703370008238 38.01375952150515 5.438944152032731 37.546746391535486 5.24261930713007 37.14182539710621 C 5.158680053845601 36.968688727939984 5.085670311357056 36.80700860549988 5.022279946350462 36.65756336654732 A 0.375 0.375 0 0 0 4.62033 36.4584A 36.75 36.75 0 0 1 4.47106 36.477A 0.375 0.375 0 0 0 4.1303 36.7687C 4.105536285407442 36.929182184423794 4.074450745241078 37.10383777031516 4.035582550356571 37.29228237193152 C 3.9446674210684427 37.73300779180445 3.8113793128583016 38.24851562040967 3.6174281013687266 38.83196922072545 A 39 39 0 0 1 2.82344 38.8978C 2.5361016905944984 38.35418813697104 2.3197816586164737 37.86764966479384 2.157565473282519 37.44789930366076 C 2.0882104279216644 37.26842233540321 2.028801489406161 37.10126533580417 1.9779687246512148 36.947095793258875 A 0.375 0.375 0 0 0 1.59384 36.7154A 36.75 36.75 0 0 1 1.44354 36.7216A 0.375 0.375 0 0 0 1.07986 36.9842C 1.0419261038950294 37.142082803676786 0.9965237926424997 37.313574828632525 0.942226720490165 37.498166086300955 C 0.8152272957557942 37.92987849355003 0.6398241349392905 38.43261875682629 0.3983541487413704 38.99806320319153 A 39 39 0 0 1 -0.398354 38.9981C -0.6398241349392858 38.43261875682629 -0.8152272957557896 37.92987849355003 -0.9422267204901603 37.498166086300955 C -0.996523792642495 37.313574828632525 -1.041926103895025 37.142082803676786 -1.079854029071301 36.9842420918402 A 0.375 0.375 0 0 0 -1.44354 36.7216A 36.75 36.75 0 0 1 -1.59384 36.7154A 0.375 0.375 0 0 0 -1.97797 36.9471C -2.028801489406157 37.10126533580417 -2.0882104279216605 37.26842233540321 -2.157565473282515 37.44789930366076 C -2.3197816586164697 37.86764966479384 -2.536101690594494 38.35418813697104 -2.823440966647683 38.89776087046395 A 39 39 0 0 1 -3.61743 38.832C -3.811379312858297 38.24851562040967 -3.9446674210684387 37.73300779180445 -4.035582550356567 37.29228237193152 C -4.074450745241075 37.10383777031516 -4.105536285407438 36.929182184423794 -4.13030028481768 36.76874851540614 A 0.375 0.375 0 0 0 -4.47106 36.477A 36.75 36.75 0 0 1 -4.62033 36.4584A 0.375 0.375 0 0 0 -5.02228 36.6576C -5.085670311357052 36.80700860549988 -5.158680053845597 36.968688727939984 -5.242619307130066 37.14182539710621 C -5.438944152032726 37.54674639153549 -5.694703370008234 38.01375952150515 -6.025949117303056 38.53174738918046 A 39 39 0 0 1 -6.81179 38.4006C -6.956898905382706 37.803136338821034 -7.047161468055045 37.2783823860743 -7.1013712593771645 36.83165455508493 C -7.124545067810953 36.64064387723 -7.141101491131491 36.46401780515307 -7.152532401549362 36.30208710359134 A 0.375 0.375 0 0 0 -7.46803 35.9832A 36.75 36.75 0 0 1 -7.61526 35.9523A 0.375 0.375 0 0 0 -8.03228 36.1176C -8.107798848279526 36.261322684604295 -8.193910664169008 36.41642149070771 -8.291860735163876 36.58203516177393 C -8.520953141873784 36.969360768522975 -8.814404451051567 37.41365838306231 -9.187293925255227 37.902523002551014 A 39 39 0 0 1 -9.95962 37.7069C -10.054895824180663 37.09952330416229 -10.101516256487114 36.5691078288648 -10.11865040200049 36.119429190820725 C -10.125971523374021 35.92715723333924 -10.127885732689464 35.74976721024552 -10.125905469406018 35.587445627026945 A 0.375 0.375 0 0 0 -10.414 35.2436A 36.75 36.75 0 0 1 -10.5582 35.2007A 0.375 0.375 0 0 0 -10.9874 35.331C -11.074542897868369 35.46793516127537 -11.173168556140036 35.61539316892831 -11.284460346540342 35.77235253259108 C -11.544755381623023 36.139436925022785 -11.873894212005684 36.55798402091264 -12.285880199904422 37.01438595116143 A 39 39 0 0 1 -13.0394 36.7557C -13.08420760896923 36.14248290691438 -13.086867446084643 35.610029184596634 -13.066808902201622 35.16047150056382 C -13.0582273258324 34.96825167588659 -13.045486245152137 34.79130945550494 -13.030108335373562 34.62970581163482 A 0.375 0.375 0 0 0 -13.2888 34.2632A 36.75 36.75 0 0 1 -13.429 34.2086A 0.375 0.375 0 0 0 -13.8675 34.303C -13.965636590026001 34.432265676781824 -14.076102377428752 34.57107559827154 -14.19997565145767 34.71830846292236 C -14.489695235887817 35.06264408241775 -14.85227323552146 35.45258155859202 -15.300541455069629 35.87340311163183 A 39 39 0 0 1 -16.0301 35.5534C -16.024140988576555 34.93855270341671 -15.982822061116392 34.40769793290312 -15.925707848030793 33.961332137709014 C -15.90128219478702 33.77047750214691 -15.873972858611385 33.595191779259565 -15.845302349054464 33.43540999148949 A 0.375 0.375 0 0 0 -16.0729 33.0488A 36.75 36.75 0 0 1 -16.208 32.9828A 0.375 0.375 0 0 0 -16.6528 33.0406C -16.761330823304565 33.16138890385777 -16.882882146499604 33.29060252666908 -17.01849072408967 33.427103142550216 C -17.33565577933383 33.74633782767641 -17.729196172831703 34.105002015781444 -18.210684497551796 34.48736855369756 A 39 39 0 0 1 -18.9114 34.1082C -18.85461323696671 33.49595675772833 -18.769597795102367 32.97032721538115 -18.675818060802616 32.53020244001589 C -18.635715182663233 32.34201672425386 -18.594024141449605 32.169584878085544 -18.55225688076613 32.012716418042565 A 0.375 0.375 0 0 0 -18.7471 31.6087A 36.75 36.75 0 0 1 -18.8763 31.5317A 0.375 0.375 0 0 0 -19.3244 31.5526C -19.44252817129408 31.66398621951439 -19.574334711492565 31.78272088358262 -19.720752248553552 31.90755681307779 C -20.06319621568327 32.19950986723566 -20.48501072311307 32.524450727185986 -20.99643009952451 32.86575029880988 A 39 39 0 0 1 -21.6634 32.43C -21.55628935862206 31.82454946293135 -21.428158144025993 31.30773573150615 -21.298353499188757 30.876858474466133 C -21.242847339475244 30.69262717776064 -21.187059385309276 30.524227092664265 -21.13248068624115 30.371343530993013 A 0.375 0.375 0 0 0 -21.2933 29.9526A 36.75 36.75 0 0 1 -21.4157 29.8652A 0.375 0.375 0 0 0 -21.864 29.849C -21.99091333740946 29.950286402432074 -22.13207472229176 30.05773102960627 -22.288301038580112 30.170049516735062 C -22.65368467806628 30.432726604528213 -23.100891878627984 30.721724460764673 -23.638748793817456 31.019625643948938 A 39 39 0 0 1 -24.2675 30.5303C -24.11071416616818 29.935748225633912 -23.940342444959423 29.431280666958557 -23.775399586929115 29.01259425681316 C -23.704869308994816 28.83357586572878 -23.635365530171704 28.67035788504099 -23.56834822057564 28.52250357148957 A 0.375 0.375 0 0 0 -23.6941 28.0919A 36.75 36.75 0 0 1 -23.8088 27.9947A 0.375 0.375 0 0 0 -24.2543 27.9416C -24.389078266937545 28.03199576003027 -24.538630221109162 28.127416394559404 -24.703598132473225 28.226450190165288 C -25.08942550356402 28.458056960733025 -25.558970518615645 28.70913766485755 -26.119590864472666 28.961605492453216 A 39 39 0 0 1 -26.7057 28.422C -26.50043834801682 27.84245547350603 -26.288989931805883 27.353780112529655 -26.090035587552713 26.950144602002595 C -26.00496298471268 26.7775619936727 -25.922218162517687 26.62064106170245 -25.843220038572884 26.478825991154718 A 0.375 0.375 0 0 0 -25.9329 26.0393A 36.75 36.75 0 0 1 -26.0393 25.9329A 0.375 0.375 0 0 0 -26.4788 25.8432C -26.62064106170245 25.922218162517687 -26.7775619936727 26.004962984712684 -26.950144602002595 26.090035587552716 C -27.353780112529655 26.288989931805887 -27.84245547350603 26.50043834801683 -28.422009644606838 26.7057482087624 A 39 39 0 0 1 -28.9616 26.1196C -28.70913766485755 25.558970518615652 -28.458056960733025 25.089425503564023 -28.226450190165288 24.70359813247323 C -28.127416394559404 24.538630221109166 -28.03199576003027 24.389078266937553 -27.94155645902632 24.25427118012394 A 0.375 0.375 0 0 0 -27.9947 23.8088A 36.75 36.75 0 0 1 -28.0919 23.6941A 0.375 0.375 0 0 0 -28.5225 23.5683C -28.670357885040982 23.635365530171708 -28.833575865728772 23.704869308994823 -29.01259425681315 23.77539958692912 C -29.43128066695855 23.94034244495943 -29.9357482256339 24.110714166168183 -30.53027727932969 24.267463585533317 A 39 39 0 0 1 -31.0196 23.6387C -30.721724460764662 23.100891878627987 -30.432726604528206 22.653684678066288 -30.17004951673505 22.288301038580116 C -30.057731029606263 22.13207472229177 -29.950286402432067 21.990913337409463 -29.849023716499065 21.864035103425493 A 0.375 0.375 0 0 0 -29.8652 21.4157A 36.75 36.75 0 0 1 -29.9526 21.2933A 0.375 0.375 0 0 0 -30.3713 21.1325C -30.524227092664255 21.18705938530928 -30.692627177760635 21.242847339475247 -30.876858474466125 21.29835349918876 C -31.307735731506142 21.428158144025996 -31.824549462931344 21.55628935862206 -32.429992162940835 21.663407579130673 A 39 39 0 0 1 -32.8658 20.9964C -32.52445072718598 20.485010723113078 -32.199509867235655 20.063196215683273 -31.907556813077782 19.720752248553556 C -31.782720883582613 19.57433471149257 -31.663986219514378 19.442528171294082 -31.552591875476267 19.324445497130704 A 0.375 0.375 0 0 0 -31.5317 18.8763A 36.75 36.75 0 0 1 -31.6087 18.7471A 0.375 0.375 0 0 0 -32.0127 18.5523C -32.16958487808554 18.594024141449612 -32.34201672425386 18.635715182663237 -32.530202440015884 18.67581806080262 C -32.97032721538114 18.76959779510237 -33.49595675772832 18.854613236966713 -34.10817731649964 18.911368532556278 A 39 39 0 0 1 -34.4874 18.2107C -34.10500201578144 17.729196172831706 -33.746337827676406 17.335655779333834 -33.42710314255021 17.018490724089673 C -33.29060252666908 16.882882146499608 -33.16138890385776 16.761330823304572 -33.040623838036694 16.652850333360572 A 0.375 0.375 0 0 0 -32.9828 16.208A 36.75 36.75 0 0 1 -33.0488 16.0729A 0.375 0.375 0 0 0 -33.4354 15.8453C -33.59519177925956 15.873972858611406 -33.7704775021469 15.901282194787042 -33.961332137709 15.925707848030815 C -34.407697932903105 15.982822061116414 -34.938552703416704 16.024140988576573 -35.55336903374995 16.030145663029103 A 39 39 0 0 1 -35.8734 15.3005C -35.452581558592016 14.852273235521482 -35.062644082417734 14.489695235887838 -34.718308462922344 14.199975651457692 C -34.571075598271534 14.076102377428773 -34.43226567678182 13.965636590026023 -34.30295483703151 13.867499316045496 A 0.375 0.375 0 0 0 -34.2086 13.429A 36.75 36.75 0 0 1 -34.2632 13.2888A 0.375 0.375 0 0 0 -34.6297 13.0301C -34.79130945550494 13.045486245152144 -34.96825167588659 13.058227325832407 -35.16047150056382 13.066808902201629 C -35.610029184596634 13.086867446084648 -36.14248290691438 13.084207608969235 -36.75569518985782 13.039420644269557 A 39 39 0 0 1 -37.0144 12.2859C -36.55798402091264 11.87389421200569 -36.139436925022785 11.544755381623029 -35.77235253259108 11.28446034654035 C -35.61539316892831 11.173168556140043 -35.46793516127537 11.074542897868376 -35.3309618717508 10.987419216942493 A 0.375 0.375 0 0 0 -35.2007 10.5582A 36.75 36.75 0 0 1 -35.2436 10.414A 0.375 0.375 0 0 0 -35.5874 10.1259C -35.74976721024552 10.127885732689476 -35.92715723333924 10.125971523374035 -36.119429190820725 10.118650402000503 C -36.5691078288648 10.101516256487127 -37.09952330416229 10.054895824180676 -37.706942678034345 9.959623160711077 A 39 39 0 0 1 -37.9025 9.18729C -37.41365838306231 8.81440445105158 -36.969360768522975 8.520953141873797 -36.58203516177393 8.291860735163889 C -36.41642149070771 8.193910664169023 -36.261322684604295 8.107798848279538 -36.117622611761995 8.032283903491273 A 0.375 0.375 0 0 0 -35.9523 7.61526A 36.75 36.75 0 0 1 -35.9832 7.46803A 0.375 0.375 0 0 0 -36.3021 7.15253C -36.46401780515307 7.141101491131497 -36.64064387723 7.124545067810959 -36.83165455508493 7.101371259377171 C -37.27838238607429 7.047161468055052 -37.803136338821034 6.956898905382712 -38.40061351338302 6.811791352039897 A 39 39 0 0 1 -38.5317 6.02595C -38.01375952150515 5.6947033700082414 -37.546746391535486 5.438944152032732 -37.14182539710621 5.242619307130072 C -36.968688727939984 5.158680053845603 -36.80700860549988 5.085670311357058 -36.65756336654732 5.022279946350464 A 0.375 0.375 0 0 0 -36.4584 4.62033A 36.75 36.75 0 0 1 -36.477 4.47106A 0.375 0.375 0 0 0 -36.7687 4.1303C -36.929182184423794 4.105536285407453 -37.10383777031516 4.074450745241089 -37.29228237193152 4.035582550356581 C -37.73300779180445 3.944667421068454 -38.24851562040967 3.8113793128583127 -38.83196922072545 3.6174281013687377 A 39 39 0 0 1 -38.8978 2.82344C -38.35418813697104 2.5361016905945095 -37.86764966479384 2.3197816586164848 -37.44789930366076 2.15756547328253 C -37.26842233540321 2.088210427921675 -37.10126533580417 2.0288014894061717 -36.947095793258875 1.9779687246512254 A 0.375 0.375 0 0 0 -36.7154 1.59384A 36.75 36.75 0 0 1 -36.7216 1.44354A 0.375 0.375 0 0 0 -36.9842 1.07986C -37.142082803676786 1.0419261038950316 -37.313574828632525 0.9965237926425019 -37.498166086300955 0.9422267204901672 C -37.92987849355003 0.8152272957557966 -38.43261875682629 0.6398241349392928 -38.99806320319153 0.39835414874137276 A 39 39 0 0 1 -38.9981 -0.398354C -38.43261875682629 -0.6398241349392835 -37.92987849355003 -0.8152272957557872 -37.498166086300955 -0.9422267204901581 C -37.313574828632525 -0.9965237926424928 -37.142082803676786 -1.0419261038950227 -36.9842420918402 -1.0798540290712988 A 0.375 0.375 0 0 0 -36.7216 -1.44354A 36.75 36.75 0 0 1 -36.7154 -1.59384A 0.375 0.375 0 0 0 -36.9471 -1.97797C -37.10126533580417 -2.028801489406146 -37.26842233540321 -2.0882104279216493 -37.44789930366076 -2.157565473282504 C -37.86764966479384 -2.3197816586164586 -38.35418813697104 -2.536101690594483 -38.89776087046395 -2.8234409666476714 A 39 39 0 0 1 -38.832 -3.61743C -38.24851562040967 -3.811379312858286 -37.73300779180445 -3.9446674210684276 -37.29228237193152 -4.035582550356556 C -37.10383777031516 -4.074450745241063 -36.929182184423794 -4.105536285407426 -36.76874851540614 -4.130300284817669 A 0.375 0.375 0 0 0 -36.477 -4.47106A 36.75 36.75 0 0 1 -36.4584 -4.62033A 0.375 0.375 0 0 0 -36.6576 -5.02228C -36.80700860549988 -5.08567031135705 -36.968688727939984 -5.158680053845595 -37.14182539710621 -5.242619307130064 C -37.54674639153549 -5.438944152032724 -38.01375952150515 -5.694703370008233 -38.53174738918046 -6.025949117303053 A 39 39 0 0 1 -38.4006 -6.81179C -37.803136338821034 -6.956898905382703 -37.2783823860743 -7.047161468055044 -36.83165455508493 -7.101371259377163 C -36.64064387723 -7.124545067810951 -36.46401780515307 -7.141101491131489 -36.30208710359134 -7.15253240154936 A 0.375 0.375 0 0 0 -35.9832 -7.46803A 36.75 36.75 0 0 1 -35.9523 -7.61526A 0.375 0.375 0 0 0 -36.1176 -8.03228C -36.261322684604295 -8.107798848279515 -36.41642149070771 -8.193910664169 -36.58203516177393 -8.291860735163866 C -36.969360768522975 -8.520953141873772 -37.41365838306231 -8.814404451051557 -37.90252300255102 -9.187293925255217 A 39 39 0 0 1 -37.7069 -9.95962C -37.09952330416229 -10.054895824180653 -36.5691078288648 -10.101516256487105 -36.119429190820725 -10.11865040200048 C -35.92715723333924 -10.125971523374012 -35.74976721024552 -10.127885732689453 -35.587445627026945 -10.125905469406009 A 0.375 0.375 0 0 0 -35.2436 -10.414A 36.75 36.75 0 0 1 -35.2007 -10.5582A 0.375 0.375 0 0 0 -35.331 -10.9874C -35.46793516127537 -11.074542897868367 -35.61539316892831 -11.173168556140034 -35.772352532591086 -11.284460346540339 C -36.13943692502279 -11.54475538162302 -36.55798402091265 -11.873894212005682 -37.01438595116144 -12.28588019990442 A 39 39 0 0 1 -36.7557 -13.0394C -36.14248290691439 -13.084207608969228 -35.61002918459664 -13.086867446084643 -35.16047150056383 -13.066808902201622 C -34.96825167588659 -13.058227325832398 -34.79130945550494 -13.045486245152135 -34.62970581163482 -13.03010833537356 A 0.375 0.375 0 0 0 -34.2632 -13.2888A 36.75 36.75 0 0 1 -34.2086 -13.429A 0.375 0.375 0 0 0 -34.303 -13.8675C -34.43226567678183 -13.965636590026 -34.57107559827154 -14.07610237742875 -34.71830846292236 -14.199975651457668 C -35.06264408241775 -14.489695235887815 -35.45258155859203 -14.852273235521459 -35.87340311163183 -15.300541455069627 A 39 39 0 0 1 -35.5534 -16.0301C -34.93855270341672 -16.02414098857655 -34.40769793290312 -15.98282206111639 -33.961332137709014 -15.925707848030791 C -33.77047750214691 -15.901282194787019 -33.59519177925957 -15.873972858611383 -33.43540999148949 -15.845302349054462 A 0.375 0.375 0 0 0 -33.0488 -16.0729A 36.75 36.75 0 0 1 -32.9828 -16.208A 0.375 0.375 0 0 0 -33.0406 -16.6528C -33.16138890385777 -16.761330823304565 -33.29060252666908 -16.882882146499604 -33.427103142550216 -17.01849072408967 C -33.74633782767641 -17.335655779333827 -34.105002015781444 -17.7291961728317 -34.48736855369756 -18.210684497551792 A 39 39 0 0 1 -34.1082 -18.9114C -33.49595675772833 -18.854613236966706 -32.97032721538115 -18.769597795102364 -32.53020244001589 -18.675818060802616 C -32.34201672425386 -18.635715182663233 -32.169584878085544 -18.594024141449605 -32.012716418042565 -18.552256880766127 A 0.375 0.375 0 0 0 -31.6087 -18.7471A 36.75 36.75 0 0 1 -31.5317 -18.8763A 0.375 0.375 0 0 0 -31.5526 -19.3244C -31.66398621951439 -19.44252817129408 -31.78272088358262 -19.574334711492565 -31.90755681307779 -19.720752248553552 C -32.19950986723566 -20.06319621568327 -32.524450727185986 -20.48501072311307 -32.86575029880988 -20.99643009952451 A 39 39 0 0 1 -32.43 -21.6634C -31.82454946293135 -21.55628935862206 -31.30773573150615 -21.428158144025993 -30.876858474466133 -21.298353499188757 C -30.69262717776064 -21.242847339475244 -30.524227092664265 -21.187059385309276 -30.371343530993013 -21.13248068624115 A 0.375 0.375 0 0 0 -29.9526 -21.2933A 36.75 36.75 0 0 1 -29.8652 -21.4157A 0.375 0.375 0 0 0 -29.849 -21.864C -29.950286402432074 -21.99091333740946 -30.05773102960627 -22.13207472229176 -30.170049516735062 -22.288301038580112 C -30.432726604528213 -22.65368467806628 -30.721724460764673 -23.100891878627984 -31.019625643948938 -23.638748793817456 A 39 39 0 0 1 -30.5303 -24.2675C -29.935748225633912 -24.11071416616818 -29.431280666958557 -23.940342444959423 -29.01259425681316 -23.775399586929115 C -28.83357586572878 -23.704869308994816 -28.67035788504099 -23.635365530171704 -28.52250357148957 -23.56834822057564 A 0.375 0.375 0 0 0 -28.0919 -23.6941A 36.75 36.75 0 0 1 -27.9947 -23.8088A 0.375 0.375 0 0 0 -27.9416 -24.2543C -28.03199576003027 -24.389078266937545 -28.127416394559404 -24.538630221109162 -28.226450190165288 -24.703598132473225 C -28.458056960733025 -25.08942550356402 -28.70913766485755 -25.558970518615645 -28.961605492453216 -26.119590864472666 A 39 39 0 0 1 -28.422 -26.7057C -27.84245547350603 -26.50043834801682 -27.353780112529655 -26.288989931805883 -26.950144602002595 -26.090035587552713 C -26.7775619936727 -26.00496298471268 -26.62064106170245 -25.922218162517687 -26.478825991154718 -25.843220038572884 A 0.375 0.375 0 0 0 -26.0393 -25.9329A 36.75 36.75 0 0 1 -25.9329 -26.0393A 0.375 0.375 0 0 0 -25.8432 -26.4788C -25.922218162517705 -26.620641061702432 -26.0049629847127 -26.777561993672677 -26.09003558755273 -26.950144602002577 C -26.288989931805904 -27.353780112529638 -26.50043834801684 -27.84245547350601 -26.70574820876242 -28.42200964460682 A 39 39 0 0 1 -26.1196 -28.9616C -25.55897051861567 -28.709137664857533 -25.08942550356404 -28.458056960733007 -24.70359813247325 -28.22645019016527 C -24.538630221109184 -28.12741639455939 -24.38907826693757 -28.031995760030252 -24.254271180123954 -27.9415564590263 A 0.375 0.375 0 0 0 -23.8088 -27.9947A 36.75 36.75 0 0 1 -23.6941 -28.0919A 0.375 0.375 0 0 0 -23.5683 -28.5225C -23.63536553017171 -28.670357885040982 -23.704869308994827 -28.833575865728772 -23.775399586929122 -29.01259425681315 C -23.940342444959434 -29.43128066695855 -24.11071416616819 -29.9357482256339 -24.26746358553332 -30.53027727932969 A 39 39 0 0 1 -23.6387 -31.0196C -23.100891878627994 -30.721724460764662 -22.65368467806629 -30.432726604528206 -22.28830103858012 -30.17004951673505 C -22.132074722291772 -30.057731029606263 -21.990913337409467 -29.950286402432067 -21.864035103425497 -29.849023716499065 A 0.375 0.375 0 0 0 -21.4157 -29.8652A 36.75 36.75 0 0 1 -21.2933 -29.9526A 0.375 0.375 0 0 0 -21.1325 -30.3713C -21.187059385309283 -30.524227092664255 -21.24284733947525 -30.692627177760635 -21.298353499188764 -30.876858474466125 C -21.428158144026003 -31.307735731506142 -21.556289358622067 -31.824549462931344 -21.663407579130677 -32.429992162940835 A 39 39 0 0 1 -20.9964 -32.8658C -20.485010723113085 -32.52445072718598 -20.06319621568328 -32.199509867235655 -19.72075224855356 -31.907556813077782 C -19.574334711492572 -31.782720883582613 -19.442528171294086 -31.663986219514378 -19.324445497130707 -31.552591875476267 A 0.375 0.375 0 0 0 -18.8763 -31.5317A 36.75 36.75 0 0 1 -18.7471 -31.6087A 0.375 0.375 0 0 0 -18.5523 -32.0127C -18.594024141449626 -32.16958487808553 -18.635715182663255 -32.34201672425385 -18.675818060802634 -32.53020244001588 C -18.76959779510239 -32.97032721538113 -18.85461323696673 -33.495956757728315 -18.911368532556295 -34.108177316499635 A 39 39 0 0 1 -18.2107 -34.4874C -17.729196172831724 -34.10500201578143 -17.33565577933385 -33.7463378276764 -17.018490724089695 -33.4271031425502 C -16.882882146499625 -33.290602526669076 -16.761330823304586 -33.161388903857755 -16.652850333360586 -33.04062383803669 A 0.375 0.375 0 0 0 -16.208 -32.9828A 36.75 36.75 0 0 1 -16.0729 -33.0488A 0.375 0.375 0 0 0 -15.8453 -33.4354C -15.873972858611408 -33.59519177925956 -15.901282194787044 -33.7704775021469 -15.925707848030816 -33.961332137709 C -15.982822061116416 -34.407697932903105 -16.024140988576576 -34.938552703416704 -16.030145663029106 -35.55336903374995 A 39 39 0 0 1 -15.3005 -35.8734C -14.852273235521483 -35.452581558592016 -14.48969523588784 -35.062644082417734 -14.199975651457693 -34.718308462922344 C -14.076102377428775 -34.571075598271534 -13.965636590026024 -34.43226567678182 -13.867499316045498 -34.302954837031514 A 0.375 0.375 0 0 0 -13.429 -34.2086A 36.75 36.75 0 0 1 -13.2888 -34.2632A 0.375 0.375 0 0 0 -13.0301 -34.6297C -13.045486245152146 -34.79130945550494 -13.058227325832409 -34.96825167588659 -13.06680890220163 -35.16047150056382 C -13.08686744608465 -35.610029184596634 -13.084207608969239 -36.14248290691438 -13.03942064426956 -36.75569518985782 A 39 39 0 0 1 -12.2859 -37.0144C -11.873894212005693 -36.55798402091264 -11.54475538162303 -36.139436925022785 -11.284460346540351 -35.77235253259108 C -11.173168556140045 -35.61539316892831 -11.074542897868378 -35.46793516127537 -10.987419216942497 -35.3309618717508 A 0.375 0.375 0 0 0 -10.5582 -35.2007A 36.75 36.75 0 0 1 -10.414 -35.2436A 0.375 0.375 0 0 0 -10.1259 -35.5874C -10.127885732689464 -35.74976721024552 -10.125971523374023 -35.92715723333924 -10.11865040200049 -36.119429190820725 C -10.101516256487114 -36.5691078288648 -10.054895824180663 -37.09952330416229 -9.959623160711065 -37.706942678034345 A 39 39 0 0 1 -9.18729 -37.9025C -8.814404451051567 -37.41365838306231 -8.520953141873784 -36.969360768522975 -8.291860735163876 -36.58203516177393 C -8.19391066416901 -36.41642149070771 -8.107798848279526 -36.261322684604295 -8.032283903491262 -36.117622611761995 A 0.375 0.375 0 0 0 -7.61526 -35.9523A 36.75 36.75 0 0 1 -7.46803 -35.9832A 0.375 0.375 0 0 0 -7.15253 -36.3021C -7.141101491131515 -36.46401780515306 -7.124545067810978 -36.64064387722999 -7.101371259377189 -36.831654555084924 C -7.047161468055071 -37.27838238607429 -6.95689890538273 -37.80313633882103 -6.811791352039917 -38.40061351338302 A 39 39 0 0 1 -6.02595 -38.5317C -5.69470337000826 -38.01375952150514 -5.438944152032752 -37.546746391535486 -5.242619307130091 -37.1418253971062 C -5.158680053845622 -36.96868872793998 -5.085670311357077 -36.807008605499874 -5.022279946350483 -36.657563366547315 A 0.375 0.375 0 0 0 -4.62033 -36.4584A 36.75 36.75 0 0 1 -4.47106 -36.477A 0.375 0.375 0 0 0 -4.1303 -36.7687C -4.105536285407455 -36.929182184423794 -4.074450745241092 -37.10383777031516 -4.035582550356583 -37.29228237193152 C -3.944667421068456 -37.73300779180445 -3.811379312858315 -38.24851562040967 -3.61742810136874 -38.83196922072545 A 39 39 0 0 1 -2.82344 -38.8978C -2.5361016905945117 -38.35418813697104 -2.319781658616487 -37.86764966479384 -2.157565473282532 -37.44789930366076 C -2.0882104279216773 -37.26842233540321 -2.028801489406174 -37.10126533580417 -1.9779687246512276 -36.947095793258875 A 0.375 0.375 0 0 0 -1.59384 -36.7154A 36.75 36.75 0 0 1 -1.44354 -36.7216A 0.375 0.375 0 0 0 -1.07986 -36.9842C -1.041926103895034 -37.142082803676786 -0.9965237926425042 -37.313574828632525 -0.9422267204901695 -37.498166086300955 C -0.8152272957557989 -37.92987849355003 -0.6398241349392952 -38.43261875682629 -0.39835414874137515 -38.99806320319153 A 39 39 0 0 1 0.398354 -38.9981C 0.639824134939281 -38.43261875682629 0.8152272957557849 -37.92987849355003 0.9422267204901558 -37.498166086300955 C 0.9965237926424905 -37.313574828632525 1.0419261038950203 -37.142082803676786 1.0798540290712964 -36.9842420918402 A 0.375 0.375 0 0 0 1.44354 -36.7216A 36.75 36.75 0 0 1 1.59384 -36.7154A 0.375 0.375 0 0 0 1.97797 -36.9471C 2.0288014894061606 -37.10126533580417 2.088210427921664 -37.26842233540321 2.1575654732825185 -37.44789930366076 C 2.3197816586164732 -37.86764966479384 2.5361016905944975 -38.35418813697104 2.8234409666476865 -38.89776087046395 A 39 39 0 0 1 3.61743 -38.832C 3.8113793128583007 -38.24851562040967 3.9446674210684423 -37.73300779180445 4.035582550356571 -37.29228237193152 C 4.074450745241078 -37.10383777031516 4.1055362854074415 -36.929182184423794 4.130300284817683 -36.76874851540614 A 0.375 0.375 0 0 0 4.47106 -36.477A 36.75 36.75 0 0 1 4.62033 -36.4584A 0.375 0.375 0 0 0 5.02228 -36.6576C 5.08567031135703 -36.80700860549988 5.1586800538455755 -36.968688727939984 5.242619307130044 -37.14182539710621 C 5.438944152032704 -37.54674639153549 5.694703370008211 -38.01375952150515 6.025949117303033 -38.53174738918046 A 39 39 0 0 1 6.81179 -38.4006C 6.956898905382683 -37.803136338821034 7.047161468055023 -37.2783823860743 7.101371259377143 -36.83165455508493 C 7.124545067810931 -36.64064387723 7.14110149113147 -36.46401780515307 7.15253240154934 -36.30208710359134 A 0.375 0.375 0 0 0 7.46803 -35.9832A 36.75 36.75 0 0 1 7.61526 -35.9523A 0.375 0.375 0 0 0 8.03228 -36.1176C 8.107798848279511 -36.261322684604295 8.193910664168996 -36.41642149070771 8.291860735163862 -36.58203516177393 C 8.520953141873768 -36.969360768522975 8.814404451051553 -37.41365838306231 9.187293925255213 -37.90252300255102 A 39 39 0 0 1 9.95962 -37.7069C 10.05489582418065 -37.09952330416229 10.101516256487102 -36.5691078288648 10.118650402000476 -36.119429190820725 C 10.125971523374009 -35.92715723333924 10.12788573268945 -35.74976721024552 10.125905469406005 -35.587445627026945 A 0.375 0.375 0 0 0 10.414 -35.2436A 36.75 36.75 0 0 1 10.5582 -35.2007A 0.375 0.375 0 0 0 10.9874 -35.331C 11.074542897868366 -35.46793516127537 11.173168556140032 -35.61539316892831 11.284460346540339 -35.772352532591086 C 11.544755381623016 -36.13943692502279 11.873894212005679 -36.55798402091265 12.285880199904417 -37.01438595116144 A 39 39 0 0 1 13.0394 -36.7557C 13.084207608969225 -36.14248290691439 13.08686744608464 -35.61002918459664 13.066808902201618 -35.16047150056383 C 13.058227325832396 -34.96825167588659 13.045486245152134 -34.79130945550494 13.030108335373559 -34.62970581163482 A 0.375 0.375 0 0 0 13.2888 -34.2632A 36.75 36.75 0 0 1 13.429 -34.2086A 0.375 0.375 0 0 0 13.8675 -34.303C 13.965636590026012 -34.43226567678182 14.076102377428763 -34.571075598271534 14.199975651457681 -34.71830846292235 C 14.489695235887828 -35.06264408241774 14.852273235521471 -35.45258155859202 15.300541455069641 -35.87340311163182 A 39 39 0 0 1 16.0301 -35.5534C 16.024140988576562 -34.93855270341671 15.982822061116403 -34.40769793290311 15.925707848030804 -33.96133213770901 C 15.901282194787031 -33.7704775021469 15.873972858611396 -33.59519177925956 15.845302349054474 -33.435409991489486 A 0.375 0.375 0 0 0 16.0729 -33.0488A 36.75 36.75 0 0 1 16.208 -32.9828A 0.375 0.375 0 0 0 16.6528 -33.0406C 16.761330823304544 -33.16138890385778 16.882882146499586 -33.2906025266691 17.018490724089652 -33.42710314255022 C 17.335655779333813 -33.74633782767642 17.729196172831685 -34.10500201578145 18.210684497551775 -34.48736855369757 A 39 39 0 0 1 18.9114 -34.1082C 18.854613236966692 -33.49595675772834 18.76959779510235 -32.970327215381154 18.675818060802598 -32.5302024400159 C 18.635715182663215 -32.342016724253874 18.59402414144959 -32.16958487808555 18.55225688076611 -32.01271641804257 A 0.375 0.375 0 0 0 18.7471 -31.6087A 36.75 36.75 0 0 1 18.8763 -31.5317A 0.375 0.375 0 0 0 19.3244 -31.5526C 19.442528171294075 -31.66398621951439 19.57433471149256 -31.78272088358262 19.720752248553545 -31.90755681307779 C 20.063196215683266 -32.19950986723566 20.485010723113067 -32.524450727185986 20.996430099524506 -32.86575029880988 A 39 39 0 0 1 21.6634 -32.43C 21.556289358622056 -31.82454946293135 21.42815814402599 -31.30773573150615 21.29835349918875 -30.876858474466133 C 21.24284733947524 -30.69262717776064 21.187059385309272 -30.524227092664265 21.132480686241145 -30.371343530993013 A 0.375 0.375 0 0 0 21.2933 -29.9526A 36.75 36.75 0 0 1 21.4157 -29.8652A 0.375 0.375 0 0 0 21.864 -29.849C 21.990913337409456 -29.950286402432074 22.132074722291758 -30.05773102960627 22.28830103858011 -30.170049516735062 C 22.653684678066277 -30.432726604528213 23.10089187862798 -30.721724460764673 23.638748793817452 -31.019625643948938 A 39 39 0 0 1 24.2675 -30.5303C 24.110714166168176 -29.935748225633912 23.94034244495942 -29.431280666958557 23.77539958692911 -29.01259425681316 C 23.704869308994812 -28.83357586572878 23.6353655301717 -28.67035788504099 23.568348220575636 -28.52250357148957 A 0.375 0.375 0 0 0 23.6941 -28.0919A 36.75 36.75 0 0 1 23.8088 -27.9947A 0.375 0.375 0 0 0 24.2543 -27.9416C 24.389078266937535 -28.031995760030288 24.538630221109152 -28.12741639455942 24.70359813247321 -28.226450190165302 C 25.08942550356401 -28.458056960733042 25.558970518615634 -28.70913766485757 26.119590864472652 -28.961605492453234 A 39 39 0 0 1 26.7057 -28.422C 26.50043834801681 -27.842455473506046 26.288989931805872 -27.353780112529673 26.0900355875527 -26.95014460200261 C 26.00496298471267 -26.777561993672716 25.922218162517677 -26.620641061702468 25.843220038572873 -26.478825991154732 A 0.375 0.375 0 0 0 25.9329 -26.0393A 36.75 36.75 0 0 1 26.0393 -25.9329A 0.375 0.375 0 0 0 26.4788 -25.8432C 26.620641061702432 -25.922218162517705 26.777561993672677 -26.0049629847127 26.950144602002577 -26.09003558755273 C 27.353780112529638 -26.288989931805904 27.84245547350601 -26.50043834801684 28.42200964460682 -26.70574820876242 A 39 39 0 0 1 28.9616 -26.1196C 28.709137664857533 -25.55897051861567 28.458056960733007 -25.08942550356404 28.22645019016527 -24.70359813247325 C 28.12741639455939 -24.538630221109184 28.031995760030252 -24.38907826693757 27.9415564590263 -24.254271180123954 A 0.375 0.375 0 0 0 27.9947 -23.8088A 36.75 36.75 0 0 1 28.0919 -23.6941A 0.375 0.375 0 0 0 28.5225 -23.5683C 28.670357885040982 -23.63536553017171 28.833575865728772 -23.704869308994827 29.01259425681315 -23.775399586929122 C 29.43128066695855 -23.940342444959434 29.9357482256339 -24.11071416616819 30.53027727932969 -24.26746358553332 A 39 39 0 0 1 31.0196 -23.6387C 30.721724460764662 -23.100891878627994 30.432726604528206 -22.65368467806629 30.17004951673505 -22.28830103858012 C 30.057731029606263 -22.132074722291772 29.950286402432067 -21.990913337409467 29.849023716499065 -21.864035103425497 A 0.375 0.375 0 0 0 29.8652 -21.4157A 36.75 36.75 0 0 1 29.9526 -21.2933A 0.375 0.375 0 0 0 30.3713 -21.1325C 30.524227092664255 -21.187059385309283 30.692627177760635 -21.24284733947525 30.876858474466125 -21.298353499188764 C 31.307735731506142 -21.428158144026003 31.824549462931344 -21.556289358622067 32.429992162940835 -21.663407579130677 A 39 39 0 0 1 32.8658 -20.9964C 32.52445072718598 -20.485010723113085 32.199509867235655 -20.06319621568328 31.907556813077782 -19.72075224855356 C 31.782720883582613 -19.574334711492572 31.663986219514378 -19.442528171294086 31.552591875476267 -19.324445497130707 A 0.375 0.375 0 0 0 31.5317 -18.8763A 36.75 36.75 0 0 1 31.6087 -18.7471A 0.375 0.375 0 0 0 32.0127 -18.5523C 32.16958487808553 -18.59402414144963 32.34201672425385 -18.635715182663258 32.53020244001588 -18.675818060802637 C 32.97032721538113 -18.769597795102392 33.495956757728315 -18.854613236966735 34.108177316499635 -18.911368532556295 A 39 39 0 0 1 34.4874 -18.2107C 34.10500201578143 -17.729196172831728 33.7463378276764 -17.335655779333855 33.4271031425502 -17.0184907240897 C 33.290602526669076 -16.88288214649963 33.161388903857755 -16.76133082330459 33.04062383803669 -16.65285033336059 A 0.375 0.375 0 0 0 32.9828 -16.208A 36.75 36.75 0 0 1 33.0488 -16.0729A 0.375 0.375 0 0 0 33.4354 -15.8453C 33.59519177925956 -15.87397285861141 33.7704775021469 -15.901282194787045 33.961332137709 -15.925707848030818 C 34.407697932903105 -15.982822061116417 34.938552703416704 -16.024140988576576 35.55336903374995 -16.030145663029106 A 39 39 0 0 1 35.8734 -15.3005C 35.452581558592016 -14.852273235521485 35.062644082417734 -14.489695235887842 34.718308462922344 -14.199975651457695 C 34.571075598271534 -14.076102377428777 34.43226567678182 -13.965636590026026 34.302954837031514 -13.8674993160455 A 0.375 0.375 0 0 0 34.2086 -13.429A 36.75 36.75 0 0 1 34.2632 -13.2888A 0.375 0.375 0 0 0 34.6297 -13.0301C 34.79130945550494 -13.045486245152148 34.96825167588659 -13.05822732583241 35.16047150056382 -13.066808902201632 C 35.610029184596634 -13.086867446084653 36.14248290691438 -13.08420760896924 36.75569518985782 -13.039420644269562 A 39 39 0 0 1 37.0144 -12.2859C 36.55798402091264 -11.873894212005695 36.139436925022785 -11.544755381623034 35.77235253259108 -11.284460346540353 C 35.61539316892831 -11.173168556140046 35.46793516127537 -11.07454289786838 35.3309618717508 -10.987419216942499 A 0.375 0.375 0 0 0 35.2007 -10.5582A 36.75 36.75 0 0 1 35.2436 -10.414A 0.375 0.375 0 0 0 35.5874 -10.1259C 35.74976721024552 -10.127885732689466 35.92715723333924 -10.125971523374025 36.119429190820725 -10.118650402000494 C 36.5691078288648 -10.101516256487116 37.09952330416229 -10.054895824180665 37.706942678034345 -9.959623160711066 A 39 39 0 0 1 37.9025 -9.18729C 37.41365838306231 -8.814404451051569 36.969360768522975 -8.520953141873786 36.58203516177393 -8.29186073516388 C 36.41642149070771 -8.193910664169012 36.261322684604295 -8.107798848279527 36.117622611761995 -8.032283903491265 A 0.375 0.375 0 0 0 35.9523 -7.61526A 36.75 36.75 0 0 1 35.9832 -7.46803A 0.375 0.375 0 0 0 36.3021 -7.15253C 36.46401780515306 -7.141101491131517 36.64064387722999 -7.124545067810979 36.831654555084924 -7.101371259377192 C 37.27838238607429 -7.047161468055073 37.80313633882103 -6.956898905382733 38.40061351338302 -6.8117913520399185 A 39 39 0 0 1 38.5317 -6.02595C 38.01375952150514 -5.694703370008263 37.546746391535486 -5.438944152032754 37.1418253971062 -5.242619307130093 C 36.96868872793998 -5.1586800538456234 36.807008605499874 -5.085670311357079 36.657563366547315 -5.022279946350484 A 0.375 0.375 0 0 0 36.4584 -4.62033A 36.75 36.75 0 0 1 36.477 -4.47106A 0.375 0.375 0 0 0 36.7687 -4.1303C 36.929182184423794 -4.1055362854074575 37.10383777031516 -4.074450745241094 37.29228237193152 -4.035582550356587 C 37.73300779180445 -3.9446674210684587 38.24851562040967 -3.8113793128583175 38.83196922072545 -3.6174281013687426 A 39 39 0 0 1 38.8978 -2.82344C 38.35418813697104 -2.5361016905945144 37.86764966479384 -2.3197816586164897 37.44789930366076 -2.1575654732825345 C 37.26842233540321 -2.08821042792168 37.10126533580417 -2.0288014894061766 36.947095793258875 -1.9779687246512303 A 0.375 0.375 0 0 0 36.7154 -1.59384A 36.75 36.75 0 0 1 36.7216 -1.44354A 0.375 0.375 0 0 0 36.9842 -1.07986" stroke="#191919" stroke-width="0.35 px" style="stroke-width:0.35;stroke-miterlimit:4;stroke-dasharray:none;fill:none;fill-rule: evenodd "/>
<title>b'InvoluteGear'</title>
</g>
</svg>