<?xml version="1.0"?>
<!DOCTYPE svg PUBLIC "-//W3C//DTD SVG 1.1//EN" "http://www.w3.org/Graphics/SVG/1.1/DTD/svg11.dtd">
<svg width="104.03683258191265mm" height="104.03683258191265mm" viewBox="0 0 104.03683258191265 104.03683258191265" xmlns="http://www.w3.org/2000/svg" version="1.1">
<g id="InvoluteGear" transform="translate(52.018416,52.018416) scale(1,-1)">
<path id="InvoluteGear_w0000"  d="M 48.9877142979757 -1.0972000090713627 C 49.14904201998962 -1.0533475769587455 49.319400926312554 -1.0039170911633395 49.498494703078684 -0.9482280685349643 C 49.945943662239536 -0.8090889672997135 50.44765044272804 -0.6309976911729831 50.99844734407482 -0.4035763715664815 A 51 51 0 0 1 50.9984 0.403576C 50.44765044272804 0.6309976911729831 49.945943662239536 0.8090889672997135 49.498494703078684 0.9482280685349643 C 49.319400926312554 1.0039170911633395 49.14904201998962 1.0533475769587455 48.98771546361018 1.0971995653026785 A 0.375 0.375 0 0 0 48.728 1.4636A 48.75 48.75 0 0 1 48.7238 1.59894A 0.375 0.375 0 0 0 48.9599 1.98093C 49.118197854196076 2.034824846673218 49.28511683024849 2.09485471693069 49.460360463693334 2.1616792412814676 C 49.89818986808987 2.328639335892295 50.38772420109946 2.5378816189649243 50.923154327768884 2.7994389981373415 A 51 51 0 0 1 50.8725 3.605C 50.30848285539837 3.7973867416992544 49.79658363488551 3.943624165975379 49.34128099758216 4.054393155369086 C 49.15904387881148 4.098726897144639 48.98591737099171 4.137362918933186 48.822155666589225 4.170998597106216 A 0.375 0.375 0 0 0 48.54 4.52037A 48.75 48.75 0 0 1 48.5272 4.65518A 0.375 0.375 0 0 0 48.7389 5.05124C 48.89350660144209 5.114966746258409 49.05632689428353 5.185359090505079 49.227028777847096 5.263055390709868 C 49.65351071484539 5.457177563479655 50.12894063201063 5.696745069800602 50.646890885907496 5.9914062610575405 A 51 51 0 0 1 50.5457 6.79219C 49.970770669998 6.94878924161702 49.45069924181964 7.062595681738444 48.989339797875246 7.144557404695009 C 48.80467854375159 7.177360900593111 48.62946768566736 7.205049979647919 48.46391712587351 7.228336602994976 A 0.375 0.375 0 0 0 48.1604 7.5593A 48.75 48.75 0 0 1 48.1392 7.69304A 0.375 0.375 0 0 0 48.3256 8.10162C 48.47585501545062 8.174922208902142 48.633934047770765 8.255399220714471 48.79942049910489 8.343660664972425 C 49.21287183934068 8.564178804371236 49.67232103598179 8.833126070441033 50.170747304082916 9.159728180678497 A 51 51 0 0 1 50.0195 9.95258C 49.43584668223669 10.072768044997954 48.90965553072182 10.153694358938735 48.44406005508656 10.206525349982396 C 48.25770343921624 10.22766913959123 48.081099708078185 10.244301999767206 47.91441364531961 10.257147666624586 A 0.375 0.375 0 0 0 47.5907 10.5684A 48.75 48.75 0 0 1 47.5611 10.7005A 0.375 0.375 0 0 0 47.7215 11.12C 47.866891376224714 11.202614988354041 48.01960528230243 11.292859061732855 48.17922320198726 11.39133732244631 C 48.57801224190858 11.637381144123088 49.01966748194881 11.934646757952878 49.4966027034833 12.29190083785207 A 51 51 0 0 1 49.2959 13.0737C 48.70582199271062 13.156994234715269 48.17558775394039 13.204721043286002 47.70759373924624 13.228212802631292 C 47.52027722605387 13.237613441072952 47.34297759610622 13.243124440069812 47.17581386412102 13.245478454459056 A 0.375 0.375 0 0 0 46.8332 13.5358A 48.75 48.75 0 0 1 46.7954 13.6658A 0.375 0.375 0 0 0 46.9291 14.0945C 47.06901898503937 14.18609616443486 47.21576507285572 14.285751147251132 47.36888452188476 14.394057575715484 C 47.75143742334042 14.664656057112806 48.173555695320395 14.989066847132541 48.62711762485984 15.375562978053964 A 51 51 0 0 1 48.3777 16.1432C 47.78357767535278 16.189295779047065 47.25139294162665 16.203634726338624 46.78284734644348 16.197694542743776 C 46.59531018862985 16.19531492999307 46.418014380511515 16.18968231841551 46.25103269817998 16.181535390117272 A 0.375 0.375 0 0 0 45.8908 16.4498A 48.75 48.75 0 0 1 45.845 16.5772A 0.375 0.375 0 0 0 45.9515 17.0134C 46.08538667970938 17.113591299965513 46.22558580949766 17.222263899530095 46.37160249535921 17.3399710597527 C 46.73640949681897 17.634056272289172 47.13732489276668 17.98433193731984 47.56572352858793 18.398544795608032 A 51 51 0 0 1 47.2686 19.149C 46.672753407150445 19.157705569124676 46.14071846848034 19.13860006586294 45.67347042821423 19.103251382518785 C 45.48645274926365 19.089100909820107 45.30986046853052 19.07234691701273 45.14371983626615 19.05373119823102 A 0.375 0.375 0 0 0 44.7674 19.2988A 48.75 48.75 0 0 1 44.7136 19.4231A 0.375 0.375 0 0 0 44.7926 19.8652C 44.91987640756503 19.973546909091368 45.05297527741085 20.090808244301567 45.191312938954496 20.21745159989631 C 45.53693431384806 20.53386292359281 45.91506460385653 20.908621085610257 46.3166092522607 21.34891596234941 A 51 51 0 0 1 45.9729 22.0792C 45.377733104002864 22.050508647644087 44.847947659228076 21.99803409452196 44.38384118842863 21.933416416532385 C 44.19808106167966 21.907550929336733 44.022889237386465 21.879741675654977 43.85824533636236 21.85073063412712 A 0.375 0.375 0 0 0 43.4673 22.0717A 48.75 48.75 0 0 1 43.4058 22.1923A 0.375 0.375 0 0 0 43.4568 22.6385C 43.57708790517947 22.754676053612627 43.70256123465065 22.880063347549974 43.83267391632674 23.01514309505017 C 44.157745654986776 23.352631798966648 44.511598531552636 23.75039345871612 44.88470447926078 24.215032711179337 A 51 51 0 0 1 44.4959 24.9223C 43.90362761940807 24.8562884424504 43.37818248964317 24.770651932555708 42.91904920452056 24.677020276374733 C 42.73527974032776 24.639541853943253 42.56217977456744 24.60078708980656 42.399682379042304 24.56149521885958 A 0.375 0.375 0 0 0 41.9956 24.7575A 48.75 48.75 0 0 1 41.9267 24.874A 0.375 0.375 0 0 0 41.9496 25.3225C 42.0623205453099 25.446002887372916 42.179673148498324 25.579021293672255 42.30104735499512 25.722004335026586 C 42.6042865477803 26.079238505432606 42.93246551525974 26.498433879363084 43.27566028355216 26.985583788694377 A 51 51 0 0 1 42.8432 27.6671C 42.25625457425901 27.563971822532373 41.73722345137815 27.445511324046073 41.2848753412507 27.323235211044402 C 41.10382179373295 27.274291763588174 40.93349683298851 27.224744436345222 40.77378724594448 27.175326803043 A 0.375 0.375 0 0 0 40.3582 27.3455A 48.75 48.75 0 0 1 40.2821 27.4575A 0.375 0.375 0 0 0 40.2768 27.9066C 40.38155242269436 28.036905972909665 40.49032116248855 28.177030528691652 40.6024778852636 28.32735257515863 C 40.8826877856168 28.70292237198837 41.183897671555904 29.141897087471097 41.49582682747292 29.649635095535963 A 51 51 0 0 1 41.0214 30.3026C 40.44211539735175 30.16287279861169 39.93154666007417 30.01205582100186 39.48776893627434 29.861617819134867 C 39.31014584106821 29.801402504080862 39.14326808014564 29.741258154396263 38.98697660235842 29.68190978756067 A 0.375 0.375 0 0 0 38.5615 29.8257A 48.75 48.75 0 0 1 38.4785 29.9327A 0.375 0.375 0 0 0 38.4451 30.3805C 38.541416761242886 30.517160199415283 38.64117237711858 30.66383789707507 38.743668984826634 30.820905696212904 C 38.99974373228689 31.213328917059794 39.27279579887555 31.670350541441227 39.55222830054563 32.19667283828526 A 51 51 0 0 1 39.0377 32.8186C 38.468369667216166 32.64273469586069 37.96827829709123 32.46015644483623 37.53482234755213 32.2821502641687 C 37.36133070186611 32.21090072385567 37.198558731048564 32.14039671400029 37.04630217357819 32.071351834521536 A 0.375 0.375 0 0 0 36.6127 32.1881A 48.75 48.75 0 0 1 36.5231 32.2897A 0.375 0.375 0 0 0 36.4616 32.7346C 36.54917573573322 32.87697713657813 36.639524537848565 33.02962910625371 36.73195652320524 33.192822783216656 C 36.96288550773375 33.60055071290913 37.20670214321078 34.07381559063116 37.452535198210384 34.616645022602505 A 51 51 0 0 1 36.9 35.205C 36.34280685653047 34.99377063231206 35.85516648572605 34.78015166081769 35.43374296305332 34.575279810421435 C 35.26506745915214 34.493277234234185 35.107043665045005 34.4126918113247 34.95942291496441 34.33422290779848 A 0.375 0.375 0 0 0 34.5193 34.4235A 48.75 48.75 0 0 1 34.4235 34.5193A 0.375 0.375 0 0 0 34.3342 34.9594C 34.4126918113247 35.107043665045005 34.493277234234185 35.26506745915214 34.575279810421435 35.43374296305332 C 34.78015166081769 35.85516648572605 34.99377063231206 36.34280685653047 35.20503404988357 36.90000112385631 A 51 51 0 0 1 34.6166 37.4525C 34.07381559063116 37.20670214321078 33.60055071290913 36.96288550773375 33.192822783216656 36.73195652320524 C 33.02962910625371 36.639524537848565 32.87697713657813 36.54917573573322 32.73457478554636 36.46159248907273 A 0.375 0.375 0 0 0 32.2897 36.5231A 48.75 48.75 0 0 1 32.1881 36.6127A 0.375 0.375 0 0 0 32.0714 37.0463C 32.14039671400028 37.19855873104857 32.21090072385567 37.361330701866116 32.28215026416869 37.53482234755213 C 32.46015644483622 37.96827829709124 32.64273469586069 38.46836966721617 32.81859471581202 39.03772977868122 A 51 51 0 0 1 32.1967 39.5522C 31.670350541441227 39.272795798875556 31.213328917059787 38.999743732286895 30.820905696212897 38.743668984826634 C 30.663837897075066 38.641172377118586 30.517160199415276 38.54141676124289 30.380538244454424 38.445064822509714 A 0.375 0.375 0 0 0 29.9327 38.4785A 48.75 48.75 0 0 1 29.8257 38.5615A 0.375 0.375 0 0 0 29.6819 38.987C 29.741258154396263 39.14326808014564 29.801402504080862 39.31014584106821 29.861617819134867 39.48776893627434 C 30.01205582100186 39.93154666007417 30.16287279861169 40.44211539735175 30.302635381786885 41.021394348711944 A 51 51 0 0 1 29.6496 41.4958C 29.141897087471097 41.183897671555904 28.70292237198837 40.8826877856168 28.32735257515863 40.6024778852636 C 28.177030528691652 40.49032116248855 28.036905972909665 40.38155242269436 27.906603598459327 40.27681204897167 A 0.375 0.375 0 0 0 27.4575 40.2821A 48.75 48.75 0 0 1 27.3455 40.3582A 0.375 0.375 0 0 0 27.1753 40.7738C 27.224744436345222 40.93349683298851 27.274291763588174 41.10382179373295 27.323235211044402 41.2848753412507 C 27.445511324046073 41.73722345137815 27.563971822532373 42.25625457425901 27.66708538986709 42.84316621614072 A 51 51 0 0 1 26.9856 43.2757C 26.498433879363084 42.93246551525974 26.079238505432606 42.6042865477803 25.722004335026586 42.30104735499512 C 25.579021293672255 42.179673148498324 25.446002887372916 42.0623205453099 25.32253433737555 41.94960509900145 A 0.375 0.375 0 0 0 24.874 41.9267A 48.75 48.75 0 0 1 24.7575 41.9956A 0.375 0.375 0 0 0 24.5615 42.3997C 24.600787089806552 42.56217977456745 24.63954185394325 42.73527974032776 24.677020276374726 42.91904920452056 C 24.770651932555705 43.37818248964318 24.856288442450396 43.90362761940808 24.922346051802478 44.49585567969521 A 51 51 0 0 1 24.215 44.8847C 23.750393458716115 44.51159853155264 23.352631798966645 44.15774565498678 23.015143095050163 43.83267391632674 C 22.88006334754997 43.70256123465065 22.75467605361262 43.577087905179475 22.63852860202765 43.45684222265705 A 0.375 0.375 0 0 0 22.1923 43.4058A 48.75 48.75 0 0 1 22.0717 43.4673A 0.375 0.375 0 0 0 21.8507 43.8582C 21.879741675654973 44.02288923738647 21.90755092933673 44.198081061679666 21.93341641653238 44.38384118842864 C 21.998034094521955 44.84794765922808 22.050508647644083 45.37773310400287 22.079249599808268 45.972940329104745 A 51 51 0 0 1 21.3489 46.3166C 20.908621085610253 45.915064603856536 20.533862923592807 45.536934313848064 20.217451599896307 45.1913129389545 C 20.090808244301563 45.05297527741086 19.973546909091365 44.919876407565035 19.865178936847478 44.79257504360253 A 0.375 0.375 0 0 0 19.4231 44.7136A 48.75 48.75 0 0 1 19.2988 44.7674A 0.375 0.375 0 0 0 19.0537 45.1437C 19.072346917012723 45.30986046853053 19.089100909820104 45.486452749263655 19.10325138251878 45.67347042821424 C 19.138600065862935 46.140718468480344 19.15770556912467 46.67275340715045 19.149016436693255 47.2685907860739 A 51 51 0 0 1 18.3985 47.5657C 17.984331937319833 47.137324892766685 17.63405627228917 46.73640949681898 17.339971059752695 46.37160249535922 C 17.22226389953009 46.225585809497666 17.113591299965506 46.08538667970939 17.013430485940532 45.951532034631896 A 0.375 0.375 0 0 0 16.5772 45.845A 48.75 48.75 0 0 1 16.4498 45.8908A 0.375 0.375 0 0 0 16.1815 46.251C 16.189682318415514 46.418014380511515 16.195314929993074 46.59531018862985 16.19769454274378 46.78284734644348 C 16.203634726338628 47.25139294162665 16.189295779047068 47.78357767535278 16.14321085405608 48.3776937101754 A 51 51 0 0 1 15.3756 48.6271C 14.989066847132545 48.173555695320395 14.66465605711281 47.75143742334042 14.394057575715488 47.36888452188476 C 14.285751147251133 47.21576507285572 14.186096164434863 47.06901898503937 14.09453779760263 46.92913932197865 A 0.375 0.375 0 0 0 13.6658 46.7954A 48.75 48.75 0 0 1 13.5358 46.8332A 0.375 0.375 0 0 0 13.2455 47.1758C 13.243124440069808 47.34297759610622 13.237613441072948 47.52027722605387 13.228212802631289 47.70759373924624 C 13.204721043285998 48.17558775394039 13.156994234715265 48.70582199271062 13.073695393309437 49.29587197886875 A 51 51 0 0 1 12.2919 49.4966C 11.934646757952875 49.01966748194881 11.637381144123085 48.57801224190858 11.391337322446306 48.17922320198726 C 11.292859061732855 48.01960528230243 11.202614988354037 47.866891376224714 11.120020407759398 47.721538736305924 A 0.375 0.375 0 0 0 10.7005 47.5611A 48.75 48.75 0 0 1 10.5684 47.5907A 0.375 0.375 0 0 0 10.2571 47.9144C 10.2443019997672 48.081099708078185 10.227669139591224 48.25770343921624 10.20652534998239 48.44406005508656 C 10.15369435893873 48.90965553072182 10.072768044997947 49.43584668223669 9.95258402964869 50.01950196200318 A 51 51 0 0 1 9.15973 50.1707C 8.833126070441029 49.67232103598179 8.564178804371231 49.21287183934068 8.34366066497242 48.79942049910489 C 8.255399220714466 48.633934047770765 8.174922208902137 48.47585501545062 8.101617377620821 48.325603039138215 A 0.375 0.375 0 0 0 7.69304 48.1392A 48.75 48.75 0 0 1 7.5593 48.1604A 0.375 0.375 0 0 0 7.22834 48.4639C 7.205049979647919 48.62946768566736 7.177360900593111 48.80467854375159 7.144557404695009 48.989339797875246 C 7.062595681738444 49.45069924181964 6.94878924161702 49.970770669998 6.792194363726062 50.54572782263034 A 51 51 0 0 1 5.99141 50.6469C 5.696745069800602 50.12894063201063 5.457177563479655 49.65351071484539 5.263055390709868 49.227028777847096 C 5.185359090505079 49.05632689428353 5.114966746258409 48.89350660144209 5.0512409649696925 48.73894826464297 A 0.375 0.375 0 0 0 4.65518 48.5272A 48.75 48.75 0 0 1 4.52037 48.54A 0.375 0.375 0 0 0 4.171 48.8222C 4.1373629189331815 48.98591737099171 4.098726897144635 49.15904387881148 4.054393155369082 49.34128099758216 C 3.943624165975375 49.79658363488551 3.7973867416992504 50.30848285539837 3.6049990097082336 50.872472787688054 A 51 51 0 0 1 2.79944 50.9232C 2.5378816189649203 50.38772420109946 2.328639335892291 49.89818986808987 2.161679241281463 49.460360463693334 C 2.0948547169306857 49.28511683024849 2.0348248466732146 49.118197854196076 1.9809296119223037 48.959943128054604 A 0.375 0.375 0 0 0 1.59894 48.7238A 48.75 48.75 0 0 1 1.4636 48.728A 0.375 0.375 0 0 0 1.0972 48.9877C 1.0533475769587375 49.14904201998962 1.0039170911633315 49.319400926312554 0.9482280685349563 49.498494703078684 C 0.8090889672997055 49.945943662239536 0.630997691172975 50.44765044272804 0.4035763715664733 50.99844734407482 A 51 51 0 0 1 -0.403576 50.9984C -0.6309976911729912 50.44765044272804 -0.8090889672997215 49.945943662239536 -0.9482280685349723 49.498494703078684 C -1.0039170911633475 49.319400926312554 -1.0533475769587535 49.14904201998962 -1.0971995653026863 48.98771546361018 A 0.375 0.375 0 0 0 -1.4636 48.728A 48.75 48.75 0 0 1 -1.59894 48.7238A 0.375 0.375 0 0 0 -1.98093 48.9599C -2.03482484667322 49.118197854196076 -2.0948547169306915 49.28511683024849 -2.161679241281469 49.460360463693334 C -2.3286393358922965 49.89818986808987 -2.537881618964926 50.38772420109946 -2.799438998137343 50.923154327768884 A 51 51 0 0 1 -3.605 50.8725C -3.797386741699256 50.30848285539837 -3.9436241659753803 49.79658363488551 -4.0543931553690875 49.34128099758216 C -4.0987268971446404 49.15904387881148 -4.137362918933187 48.98591737099171 -4.170998597106217 48.822155666589225 A 0.375 0.375 0 0 0 -4.52037 48.54A 48.75 48.75 0 0 1 -4.65518 48.5272A 0.375 0.375 0 0 0 -5.05124 48.7389C -5.114966746258414 48.89350660144209 -5.185359090505084 49.05632689428352 -5.263055390709873 49.227028777847096 C -5.457177563479661 49.65351071484538 -5.696745069800607 50.12894063201063 -5.991406261057547 50.64689088590749 A 51 51 0 0 1 -6.79219 50.5457C -6.948789241617026 49.970770669998 -7.0625956817384505 49.450699241819635 -7.144557404695014 48.989339797875246 C -7.177360900593117 48.804678543751585 -7.205049979647924 48.62946768566736 -7.228336602994982 48.46391712587351 A 0.375 0.375 0 0 0 -7.5593 48.1604A 48.75 48.75 0 0 1 -7.69304 48.1392A 0.375 0.375 0 0 0 -8.10162 48.3256C -8.174922208902151 48.47585501545061 -8.255399220714482 48.63393404777076 -8.343660664972436 48.79942049910488 C -8.564178804371247 49.21287183934067 -8.833126070441043 49.67232103598179 -9.159728180678506 50.17074730408291 A 51 51 0 0 1 -9.95258 50.0195C -10.072768044997964 49.43584668223669 -10.153694358938745 48.909655530721814 -10.206525349982407 48.44406005508655 C -10.22766913959124 48.257703439216236 -10.244301999767215 48.08109970807818 -10.257147666624595 47.914413645319605 A 0.375 0.375 0 0 0 -10.5684 47.5907A 48.75 48.75 0 0 1 -10.7005 47.5611A 0.375 0.375 0 0 0 -11.12 47.7215C -11.202614988354043 47.866891376224714 -11.292859061732859 48.01960528230243 -11.391337322446311 48.17922320198726 C -11.63738114412309 48.57801224190858 -11.934646757952882 49.01966748194881 -12.291900837852072 49.4966027034833 A 51 51 0 0 1 -13.0737 49.2959C -13.156994234715272 48.70582199271062 -13.204721043286003 48.17558775394039 -13.228212802631294 47.70759373924624 C -13.237613441072956 47.52027722605387 -13.243124440069813 47.34297759610622 -13.24547845445906 47.17581386412102 A 0.375 0.375 0 0 0 -13.5358 46.8332A 48.75 48.75 0 0 1 -13.6658 46.7954A 0.375 0.375 0 0 0 -14.0945 46.9291C -14.186096164434868 47.06901898503937 -14.285751147251139 47.21576507285572 -14.394057575715493 47.36888452188476 C -14.664656057112815 47.75143742334042 -14.98906684713255 48.173555695320395 -15.375562978053972 48.62711762485984 A 51 51 0 0 1 -16.1432 48.3777C -16.189295779047075 47.78357767535278 -16.20363472633863 47.25139294162665 -16.197694542743783 46.78284734644348 C -16.195314929993078 46.59531018862985 -16.18968231841552 46.418014380511515 -16.18153539011728 46.25103269817998 A 0.375 0.375 0 0 0 -16.4498 45.8908A 48.75 48.75 0 0 1 -16.5772 45.845A 0.375 0.375 0 0 0 -17.0134 45.9515C -17.113591299965513 46.08538667970938 -17.222263899530095 46.22558580949766 -17.3399710597527 46.37160249535921 C -17.634056272289172 46.73640949681897 -17.98433193731984 47.13732489276668 -18.398544795608032 47.56572352858793 A 51 51 0 0 1 -19.149 47.2686C -19.157705569124676 46.672753407150445 -19.13860006586294 46.14071846848034 -19.103251382518785 45.67347042821423 C -19.089100909820107 45.48645274926365 -19.07234691701273 45.30986046853052 -19.05373119823102 45.14371983626615 A 0.375 0.375 0 0 0 -19.2988 44.7674A 48.75 48.75 0 0 1 -19.4231 44.7136A 0.375 0.375 0 0 0 -19.8652 44.7926C -19.97354690909137 44.91987640756503 -20.09080824430157 45.05297527741085 -20.21745159989631 45.191312938954496 C -20.53386292359281 45.53693431384806 -20.90862108561026 45.91506460385653 -21.348915962349412 46.3166092522607 A 51 51 0 0 1 -22.0792 45.9729C -22.05050864764409 45.377733104002864 -21.99803409452196 44.847947659228076 -21.933416416532385 44.38384118842863 C -21.907550929336736 44.19808106167966 -21.87974167565498 44.022889237386465 -21.85073063412712 43.85824533636236 A 0.375 0.375 0 0 0 -22.0717 43.4673A 48.75 48.75 0 0 1 -22.1923 43.4058A 0.375 0.375 0 0 0 -22.6385 43.4568C -22.75467605361263 43.57708790517946 -22.880063347549978 43.702561234650645 -23.015143095050174 43.83267391632673 C -23.35263179896665 44.157745654986776 -23.750393458716122 44.51159853155263 -24.21503271117934 44.88470447926078 A 51 51 0 0 1 -24.9223 44.4959C -24.856288442450403 43.90362761940806 -24.77065193255571 43.37818248964317 -24.67702027637473 42.919049204520554 C -24.639541853943257 42.735279740327755 -24.600787089806563 42.56217977456743 -24.56149521885958 42.3996823790423 A 0.375 0.375 0 0 0 -24.7575 41.9956A 48.75 48.75 0 0 1 -24.874 41.9267A 0.375 0.375 0 0 0 -25.3225 41.9496C -25.446002887372924 42.062320545309895 -25.579021293672263 42.179673148498324 -25.722004335026593 42.30104735499511 C -26.079238505432613 42.60428654778029 -26.498433879363088 42.932465515259736 -26.985583788694385 43.275660283552156 A 51 51 0 0 1 -27.6671 42.8432C -27.563971822532377 42.256254574259 -27.44551132404608 41.73722345137814 -27.32323521104441 41.28487534125069 C -27.27429176358818 41.10382179373295 -27.22474443634523 40.9334968329885 -27.175326803043006 40.773787245944476 A 0.375 0.375 0 0 0 -27.3455 40.3582A 48.75 48.75 0 0 1 -27.4575 40.2821A 0.375 0.375 0 0 0 -27.9066 40.2768C -28.036905972909658 40.38155242269436 -28.17703052869165 40.49032116248855 -28.327352575158628 40.6024778852636 C -28.702922371988365 40.8826877856168 -29.141897087471094 41.183897671555904 -29.649635095535956 41.49582682747292 A 51 51 0 0 1 -30.3026 41.0214C -30.162872798611687 40.44211539735175 -30.01205582100185 39.93154666007417 -29.861617819134864 39.48776893627434 C -29.80140250408086 39.31014584106821 -29.741258154396256 39.14326808014564 -29.681909787560663 38.98697660235842 A 0.375 0.375 0 0 0 -29.8257 38.5615A 48.75 48.75 0 0 1 -29.9327 38.4785A 0.375 0.375 0 0 0 -30.3805 38.4451C -30.517160199415276 38.54141676124289 -30.663837897075066 38.641172377118586 -30.820905696212897 38.743668984826634 C -31.213328917059787 38.999743732286895 -31.670350541441227 39.272795798875556 -32.19667283828526 39.55222830054563 A 51 51 0 0 1 -32.8186 39.0377C -32.64273469586069 38.46836966721617 -32.46015644483622 37.96827829709124 -32.28215026416869 37.53482234755213 C -32.21090072385567 37.361330701866116 -32.14039671400028 37.19855873104857 -32.07135183452153 37.04630217357819 A 0.375 0.375 0 0 0 -32.1881 36.6127A 48.75 48.75 0 0 1 -32.2897 36.5231A 0.375 0.375 0 0 0 -32.7346 36.4616C -32.87697713657813 36.54917573573322 -33.02962910625371 36.639524537848565 -33.192822783216656 36.73195652320524 C -33.60055071290913 36.96288550773375 -34.07381559063116 37.20670214321078 -34.616645022602505 37.452535198210384 A 51 51 0 0 1 -35.205 36.9C -34.99377063231206 36.34280685653047 -34.78015166081769 35.85516648572605 -34.575279810421435 35.43374296305332 C -34.493277234234185 35.26506745915214 -34.4126918113247 35.107043665045005 -34.33422290779848 34.95942291496441 A 0.375 0.375 0 0 0 -34.4235 34.5193A 48.75 48.75 0 0 1 -34.5193 34.4235A 0.375 0.375 0 0 0 -34.9594 34.3342C -35.10704366504501 34.412691811324684 -35.26506745915215 34.49327723423418 -35.43374296305333 34.57527981042142 C -35.85516648572606 34.78015166081767 -36.34280685653048 34.99377063231205 -36.90000112385632 35.205034049883565 A 51 51 0 0 1 -37.4525 34.6166C -37.206702143210784 34.073815590631156 -36.96288550773376 33.60055071290912 -36.73195652320525 33.19282278321664 C -36.63952453784857 33.0296291062537 -36.54917573573323 32.87697713657811 -36.461592489072736 32.73457478554635 A 0.375 0.375 0 0 0 -36.5231 32.2897A 48.75 48.75 0 0 1 -36.6127 32.1881A 0.375 0.375 0 0 0 -37.0463 32.0714C -37.19855873104858 32.14039671400028 -37.36133070186612 32.210900723855666 -37.534822347552144 32.28215026416869 C -37.968278297091246 32.460156444836215 -38.46836966721618 32.64273469586068 -39.03772977868123 32.81859471581201 A 51 51 0 0 1 -39.5522 32.1967C -39.27279579887556 31.67035054144122 -38.9997437322869 31.213328917059783 -38.74366898482665 30.820905696212893 C -38.64117237711859 30.66383789707506 -38.5414167612429 30.517160199415272 -38.44506482250973 30.38053824445442 A 0.375 0.375 0 0 0 -38.4785 29.9327A 48.75 48.75 0 0 1 -38.5615 29.8257A 0.375 0.375 0 0 0 -38.987 29.6819C -39.14326808014563 29.741258154396267 -39.310145841068206 29.80140250408087 -39.487768936274335 29.861617819134874 C -39.93154666007416 30.012055821001866 -40.44211539735174 30.162872798611698 -41.02139434871194 30.302635381786892 A 51 51 0 0 1 -41.4958 29.6496C -41.1838976715559 29.141897087471104 -40.882687785616795 28.70292237198838 -40.602477885263596 28.32735257515864 C -40.49032116248854 28.17703052869166 -40.381552422694355 28.03690597290967 -40.276812048971664 27.90660359845933 A 0.375 0.375 0 0 0 -40.2821 27.4575A 48.75 48.75 0 0 1 -40.3582 27.3455A 0.375 0.375 0 0 0 -40.7738 27.1753C -40.93349683298851 27.224744436345222 -41.10382179373295 27.274291763588174 -41.2848753412507 27.323235211044402 C -41.73722345137815 27.445511324046073 -42.25625457425901 27.563971822532373 -42.84316621614072 27.66708538986709 A 51 51 0 0 1 -43.2757 26.9856C -42.93246551525974 26.498433879363084 -42.6042865477803 26.079238505432606 -42.30104735499512 25.722004335026586 C -42.179673148498324 25.579021293672255 -42.0623205453099 25.446002887372916 -41.94960509900145 25.32253433737555 A 0.375 0.375 0 0 0 -41.9267 24.874A 48.75 48.75 0 0 1 -41.9956 24.7575A 0.375 0.375 0 0 0 -42.3997 24.5615C -42.56217977456745 24.600787089806552 -42.73527974032776 24.63954185394325 -42.91904920452056 24.677020276374726 C -43.37818248964318 24.770651932555705 -43.90362761940808 24.856288442450396 -44.49585567969521 24.922346051802478 A 51 51 0 0 1 -44.8847 24.215C -44.51159853155264 23.750393458716115 -44.15774565498678 23.352631798966645 -43.83267391632674 23.015143095050163 C -43.70256123465065 22.88006334754997 -43.577087905179475 22.75467605361262 -43.45684222265705 22.63852860202765 A 0.375 0.375 0 0 0 -43.4058 22.1923A 48.75 48.75 0 0 1 -43.4673 22.0717A 0.375 0.375 0 0 0 -43.8582 21.8507C -44.02288923738647 21.879741675654966 -44.198081061679666 21.907550929336722 -44.38384118842864 21.933416416532374 C -44.84794765922808 21.998034094521945 -45.37773310400287 22.050508647644076 -45.972940329104745 22.07924959980826 A 51 51 0 0 1 -46.3166 21.3489C -45.915064603856536 20.908621085610246 -45.536934313848064 20.533862923592796 -45.1913129389545 20.2174515998963 C -45.05297527741086 20.090808244301556 -44.919876407565035 19.973546909091358 -44.79257504360253 19.86517893684747 A 0.375 0.375 0 0 0 -44.7136 19.4231A 48.75 48.75 0 0 1 -44.7674 19.2988A 0.375 0.375 0 0 0 -45.1437 19.0537C -45.30986046853053 19.072346917012716 -45.486452749263655 19.089100909820093 -45.67347042821424 19.10325138251877 C -46.140718468480344 19.138600065862924 -46.67275340715045 19.157705569124662 -47.2685907860739 19.149016436693245 A 51 51 0 0 1 -47.5657 18.3985C -47.137324892766685 17.984331937319826 -46.73640949681898 17.634056272289158 -46.37160249535922 17.339971059752685 C -46.225585809497666 17.22226389953008 -46.08538667970939 17.1135912999655 -45.951532034631896 17.013430485940525 A 0.375 0.375 0 0 0 -45.845 16.5772A 48.75 48.75 0 0 1 -45.8908 16.4498A 0.375 0.375 0 0 0 -46.251 16.1815C -46.41801438051152 16.1896823184155 -46.59531018862986 16.195314929993057 -46.78284734644349 16.19769454274376 C -47.251392941626655 16.20363472633861 -47.78357767535279 16.18929577904705 -48.37769371017541 16.14321085405606 A 51 51 0 0 1 -48.6271 15.3756C -48.1735556953204 14.989066847132527 -47.75143742334043 14.66465605711279 -47.368884521884766 14.39405757571547 C -47.215765072855724 14.285751147251117 -47.06901898503938 14.186096164434847 -46.92913932197866 14.094537797602614 A 0.375 0.375 0 0 0 -46.7954 13.6658A 48.75 48.75 0 0 1 -46.8332 13.5358A 0.375 0.375 0 0 0 -47.1758 13.2455C -47.34297759610622 13.243124440069812 -47.52027722605387 13.237613441072952 -47.70759373924624 13.228212802631292 C -48.17558775394039 13.204721043286002 -48.70582199271062 13.156994234715269 -49.29587197886875 13.07369539330944 A 51 51 0 0 1 -49.4966 12.2919C -49.01966748194881 11.934646757952878 -48.57801224190858 11.637381144123088 -48.17922320198726 11.39133732244631 C -48.01960528230243 11.292859061732855 -47.866891376224714 11.202614988354041 -47.721538736305924 11.1200204077594 A 0.375 0.375 0 0 0 -47.5611 10.7005A 48.75 48.75 0 0 1 -47.5907 10.5684A 0.375 0.375 0 0 0 -47.9144 10.2571C -48.081099708078185 10.244301999767202 -48.25770343921624 10.227669139591226 -48.44406005508656 10.206525349982392 C -48.90965553072182 10.153694358938731 -49.43584668223669 10.07276804499795 -50.01950196200318 9.95258402964869 A 51 51 0 0 1 -50.1707 9.15973C -49.67232103598179 8.833126070441029 -49.21287183934068 8.564178804371233 -48.79942049910489 8.343660664972422 C -48.633934047770765 8.255399220714468 -48.47585501545062 8.174922208902139 -48.325603039138215 8.101617377620823 A 0.375 0.375 0 0 0 -48.1392 7.69304A 48.75 48.75 0 0 1 -48.1604 7.5593A 0.375 0.375 0 0 0 -48.4639 7.22834C -48.62946768566736 7.20504997964791 -48.80467854375159 7.177360900593103 -48.989339797875246 7.144557404695 C -49.45069924181964 7.062595681738436 -49.970770669998 6.948789241617011 -50.54572782263034 6.792194363726054 A 51 51 0 0 1 -50.6469 5.99141C -50.12894063201063 5.696745069800593 -49.65351071484539 5.457177563479647 -49.227028777847096 5.263055390709859 C -49.05632689428353 5.185359090505071 -48.89350660144209 5.114966746258402 -48.73894826464297 5.051240964969684 A 0.375 0.375 0 0 0 -48.5272 4.65518A 48.75 48.75 0 0 1 -48.54 4.52037A 0.375 0.375 0 0 0 -48.8222 4.171C -48.98591737099171 4.137362918933174 -49.15904387881148 4.098726897144628 -49.34128099758216 4.054393155369074 C -49.79658363488551 3.943624165975367 -50.30848285539837 3.797386741699243 -50.872472787688054 3.6049990097082256 A 51 51 0 0 1 -50.9232 2.79944C -50.38772420109946 2.5378816189649127 -49.89818986808987 2.3286393358922832 -49.460360463693334 2.1616792412814556 C -49.28511683024849 2.0948547169306786 -49.118197854196076 2.0348248466732066 -48.959943128054604 1.980929611922296 A 0.375 0.375 0 0 0 -48.7238 1.59894A 48.75 48.75 0 0 1 -48.728 1.4636A 0.375 0.375 0 0 0 -48.9877 1.0972C -49.14904201998962 1.0533475769587297 -49.319400926312554 1.0039170911633237 -49.498494703078684 0.9482280685349485 C -49.945943662239536 0.8090889672996974 -50.44765044272804 0.6309976911729669 -50.99844734407482 0.40357637156646514 A 51 51 0 0 1 -50.9984 -0.403576C -50.44765044272804 -0.6309976911729993 -49.945943662239536 -0.8090889672997296 -49.498494703078684 -0.9482280685349802 C -49.319400926312554 -1.0039170911633553 -49.14904201998962 -1.0533475769587612 -48.98771546361018 -1.0971995653026942 A 0.375 0.375 0 0 0 -48.728 -1.4636A 48.75 48.75 0 0 1 -48.7238 -1.59894A 0.375 0.375 0 0 0 -48.9599 -1.98093C -49.118197854196076 -2.0348248466732164 -49.28511683024849 -2.094854716930688 -49.460360463693334 -2.1616792412814654 C -49.89818986808987 -2.328639335892293 -50.38772420109946 -2.5378816189649225 -50.923154327768884 -2.7994389981373393 A 51 51 0 0 1 -50.8725 -3.605C -50.30848285539837 -3.7973867416992526 -49.79658363488551 -3.943624165975377 -49.34128099758216 -4.054393155369084 C -49.15904387881148 -4.098726897144637 -48.98591737099171 -4.137362918933183 -48.822155666589225 -4.170998597106214 A 0.375 0.375 0 0 0 -48.54 -4.52037A 48.75 48.75 0 0 1 -48.5272 -4.65518A 0.375 0.375 0 0 0 -48.7389 -5.05124C -48.89350660144209 -5.114966746258412 -49.05632689428353 -5.185359090505082 -49.227028777847096 -5.26305539070987 C -49.65351071484539 -5.457177563479657 -50.12894063201063 -5.696745069800604 -50.646890885907496 -5.991406261057543 A 51 51 0 0 1 -50.5457 -6.79219C -49.970770669998 -6.948789241617023 -49.45069924181964 -7.062595681738447 -48.989339797875246 -7.1445574046950115 C -48.80467854375159 -7.177360900593114 -48.62946768566736 -7.205049979647921 -48.46391712587351 -7.228336602994979 A 0.375 0.375 0 0 0 -48.1604 -7.5593A 48.75 48.75 0 0 1 -48.1392 -7.69304A 0.375 0.375 0 0 0 -48.3256 -8.10162C -48.47585501545061 -8.17492220890215 -48.63393404777076 -8.255399220714478 -48.79942049910488 -8.343660664972433 C -49.21287183934067 -8.564178804371243 -49.67232103598179 -8.83312607044104 -50.17074730408291 -9.159728180678504 A 51 51 0 0 1 -50.0195 -9.95258C -49.43584668223669 -10.07276804499796 -48.909655530721814 -10.153694358938742 -48.44406005508655 -10.206525349982403 C -48.257703439216236 -10.227669139591237 -48.08109970807818 -10.244301999767213 -47.914413645319605 -10.257147666624594 A 0.375 0.375 0 0 0 -47.5907 -10.5684A 48.75 48.75 0 0 1 -47.5611 -10.7005A 0.375 0.375 0 0 0 -47.7215 -11.12C -47.866891376224714 -11.202614988354052 -48.01960528230243 -11.292859061732866 -48.17922320198726 -11.39133732244632 C -48.57801224190858 -11.637381144123099 -49.01966748194881 -11.934646757952889 -49.4966027034833 -12.291900837852081 A 51 51 0 0 1 -49.2959 -13.0737C -48.70582199271062 -13.15699423471528 -48.17558775394039 -13.204721043286012 -47.70759373924624 -13.228212802631303 C -47.52027722605387 -13.237613441072963 -47.34297759610622 -13.243124440069822 -47.17581386412102 -13.245478454459066 A 0.375 0.375 0 0 0 -46.8332 -13.5358A 48.75 48.75 0 0 1 -46.7954 -13.6658A 0.375 0.375 0 0 0 -46.9291 -14.0945C -47.06901898503937 -14.186096164434876 -47.21576507285571 -14.285751147251148 -47.36888452188476 -14.3940575757155 C -47.75143742334041 -14.664656057112822 -48.17355569532039 -14.989066847132559 -48.627117624859835 -15.37556297805398 A 51 51 0 0 1 -48.3777 -16.1432C -47.783577675352774 -16.189295779047082 -47.25139294162664 -16.203634726338638 -46.78284734644348 -16.19769454274379 C -46.595310188629846 -16.19531492999309 -46.418014380511515 -16.189682318415528 -46.251032698179976 -16.18153539011729 A 0.375 0.375 0 0 0 -45.8908 -16.4498A 48.75 48.75 0 0 1 -45.845 -16.5772A 0.375 0.375 0 0 0 -45.9515 -17.0134C -46.08538667970937 -17.113591299965535 -46.22558580949765 -17.222263899530112 -46.371602495359205 -17.33997105975272 C -46.736409496818965 -17.634056272289193 -47.13732489276668 -17.98433193731986 -47.565723528587924 -18.398544795608053 A 51 51 0 0 1 -47.2686 -19.149C -46.672753407150445 -19.157705569124694 -46.14071846848033 -19.13860006586296 -45.67347042821422 -19.103251382518806 C -45.48645274926364 -19.089100909820125 -45.309860468530516 -19.072346917012744 -45.14371983626615 -19.053731198231038 A 0.375 0.375 0 0 0 -44.7674 -19.2988A 48.75 48.75 0 0 1 -44.7136 -19.4231A 0.375 0.375 0 0 0 -44.7926 -19.8652C -44.91987640756503 -19.973546909091368 -45.05297527741085 -20.090808244301567 -45.191312938954496 -20.21745159989631 C -45.53693431384806 -20.53386292359281 -45.91506460385653 -20.908621085610257 -46.3166092522607 -21.34891596234941 A 51 51 0 0 1 -45.9729 -22.0792C -45.377733104002864 -22.050508647644087 -44.847947659228076 -21.99803409452196 -44.38384118842863 -21.933416416532385 C -44.19808106167966 -21.907550929336733 -44.022889237386465 -21.879741675654977 -43.85824533636236 -21.85073063412712 A 0.375 0.375 0 0 0 -43.4673 -22.0717A 48.75 48.75 0 0 1 -43.4058 -22.1923A 0.375 0.375 0 0 0 -43.4568 -22.6385C -43.57708790517946 -22.75467605361263 -43.702561234650645 -22.880063347549978 -43.83267391632673 -23.015143095050174 C -44.157745654986776 -23.35263179896665 -44.51159853155263 -23.750393458716122 -44.88470447926078 -24.21503271117934 A 51 51 0 0 1 -44.4959 -24.9223C -43.90362761940806 -24.856288442450403 -43.37818248964317 -24.77065193255571 -42.919049204520554 -24.67702027637473 C -42.735279740327755 -24.639541853943257 -42.56217977456743 -24.600787089806563 -42.3996823790423 -24.56149521885958 A 0.375 0.375 0 0 0 -41.9956 -24.7575A 48.75 48.75 0 0 1 -41.9267 -24.874A 0.375 0.375 0 0 0 -41.9496 -25.3225C -42.062320545309895 -25.446002887372924 -42.179673148498324 -25.579021293672263 -42.30104735499511 -25.722004335026593 C -42.60428654778029 -26.079238505432613 -42.932465515259736 -26.498433879363088 -43.275660283552156 -26.985583788694385 A 51 51 0 0 1 -42.8432 -27.6671C -42.256254574259 -27.563971822532377 -41.73722345137814 -27.44551132404608 -41.28487534125069 -27.32323521104441 C -41.10382179373295 -27.27429176358818 -40.9334968329885 -27.22474443634523 -40.773787245944476 -27.175326803043006 A 0.375 0.375 0 0 0 -40.3582 -27.3455A 48.75 48.75 0 0 1 -40.2821 -27.4575A 0.375 0.375 0 0 0 -40.2768 -27.9066C -40.38155242269435 -28.036905972909675 -40.49032116248854 -28.177030528691663 -40.602477885263596 -28.327352575158642 C -40.88268778561679 -28.702922371988382 -41.18389767155589 -29.14189708747111 -41.49582682747291 -29.649635095535974 A 51 51 0 0 1 -41.0214 -30.3026C -40.442115397351735 -30.162872798611705 -39.931546660074154 -30.01205582100187 -39.487768936274335 -29.861617819134878 C -39.310145841068206 -29.801402504080873 -39.143268080145624 -29.741258154396274 -38.9869766023584 -29.68190978756068 A 0.375 0.375 0 0 0 -38.5615 -29.8257A 48.75 48.75 0 0 1 -38.4785 -29.9327A 0.375 0.375 0 0 0 -38.4451 -30.3805C -38.54141676124288 -30.517160199415294 -38.64117237711857 -30.663837897075084 -38.74366898482663 -30.820905696212915 C -38.99974373228688 -31.213328917059805 -39.27279579887554 -31.67035054144124 -39.55222830054562 -32.196672838285274 A 51 51 0 0 1 -39.0377 -32.8186C -38.46836966721616 -32.6427346958607 -37.968278297091224 -32.46015644483624 -37.53482234755212 -32.28215026416871 C -37.3613307018661 -32.21090072385569 -37.19855873104856 -32.1403967140003 -37.046302173578184 -32.07135183452155 A 0.375 0.375 0 0 0 -36.6127 -32.1881A 48.75 48.75 0 0 1 -36.5231 -32.2897A 0.375 0.375 0 0 0 -36.4616 -32.7346C -36.54917573573322 -32.87697713657813 -36.639524537848565 -33.02962910625371 -36.73195652320524 -33.192822783216656 C -36.96288550773375 -33.60055071290913 -37.20670214321078 -34.07381559063116 -37.452535198210384 -34.616645022602505 A 51 51 0 0 1 -36.9 -35.205C -36.34280685653047 -34.99377063231206 -35.85516648572605 -34.78015166081769 -35.43374296305332 -34.575279810421435 C -35.26506745915214 -34.493277234234185 -35.107043665045005 -34.4126918113247 -34.95942291496441 -34.33422290779848 A 0.375 0.375 0 0 0 -34.5193 -34.4235A 48.75 48.75 0 0 1 -34.4235 -34.5193A 0.375 0.375 0 0 0 -34.3342 -34.9594C -34.41269181132469 -35.107043665045005 -34.493277234234185 -35.26506745915214 -34.57527981042143 -35.43374296305332 C -34.78015166081768 -35.85516648572605 -34.99377063231206 -36.34280685653047 -35.205034049883565 -36.90000112385631 A 51 51 0 0 1 -34.6166 -37.4525C -34.07381559063116 -37.20670214321078 -33.600550712909126 -36.96288550773375 -33.19282278321665 -36.73195652320524 C -33.02962910625371 -36.639524537848565 -32.87697713657812 -36.54917573573322 -32.73457478554636 -36.46159248907273 A 0.375 0.375 0 0 0 -32.2897 -36.5231A 48.75 48.75 0 0 1 -32.1881 -36.6127A 0.375 0.375 0 0 0 -32.0714 -37.0463C -32.14039671400028 -37.19855873104858 -32.21090072385567 -37.36133070186612 -32.28215026416869 -37.53482234755214 C -32.46015644483622 -37.96827829709124 -32.64273469586069 -38.46836966721618 -32.81859471581202 -39.037729778681225 A 51 51 0 0 1 -32.1967 -39.5522C -31.670350541441227 -39.27279579887556 -31.213328917059787 -38.999743732286895 -30.820905696212897 -38.74366898482664 C -30.663837897075066 -38.64117237711859 -30.517160199415276 -38.5414167612429 -30.380538244454424 -38.44506482250972 A 0.375 0.375 0 0 0 -29.9327 -38.4785A 48.75 48.75 0 0 1 -29.8257 -38.5615A 0.375 0.375 0 0 0 -29.6819 -38.987C -29.741258154396267 -39.14326808014563 -29.80140250408087 -39.310145841068206 -29.861617819134874 -39.487768936274335 C -30.012055821001866 -39.93154666007416 -30.162872798611698 -40.44211539735174 -30.302635381786892 -41.02139434871194 A 51 51 0 0 1 -29.6496 -41.4958C -29.141897087471104 -41.1838976715559 -28.70292237198838 -40.882687785616795 -28.32735257515864 -40.602477885263596 C -28.17703052869166 -40.49032116248854 -28.03690597290967 -40.381552422694355 -27.90660359845933 -40.276812048971664 A 0.375 0.375 0 0 0 -27.4575 -40.2821A 48.75 48.75 0 0 1 -27.3455 -40.3582A 0.375 0.375 0 0 0 -27.1753 -40.7738C -27.22474443634521 -40.933496832988524 -27.274291763588156 -41.10382179373296 -27.323235211044384 -41.284875341250704 C -27.44551132404606 -41.73722345137816 -27.563971822532356 -42.256254574259025 -27.667085389867072 -42.84316621614073 A 51 51 0 0 1 -26.9856 -43.2757C -26.498433879363066 -42.93246551525976 -26.079238505432592 -42.60428654778031 -25.72200433502657 -42.30104735499513 C -25.579021293672238 -42.17967314849834 -25.446002887372902 -42.062320545309916 -25.322534337375536 -41.94960509900146 A 0.375 0.375 0 0 0 -24.874 -41.9267A 48.75 48.75 0 0 1 -24.7575 -41.9956A 0.375 0.375 0 0 0 -24.5615 -42.3997C -24.60078708980656 -42.56217977456744 -24.639541853943253 -42.73527974032776 -24.677020276374733 -42.91904920452056 C -24.770651932555708 -43.37818248964317 -24.8562884424504 -43.90362761940807 -24.92234605180248 -44.495855679695204 A 51 51 0 0 1 -24.215 -44.8847C -23.75039345871612 -44.511598531552636 -23.352631798966648 -44.157745654986776 -23.01514309505017 -43.83267391632674 C -22.880063347549974 -43.70256123465065 -22.754676053612627 -43.57708790517947 -22.63852860202766 -43.456842222657045 A 0.375 0.375 0 0 0 -22.1923 -43.4058A 48.75 48.75 0 0 1 -22.0717 -43.4673A 0.375 0.375 0 0 0 -21.8507 -43.8582C -21.879741675654948 -44.02288923738648 -21.907550929336708 -44.19808106167968 -21.93341641653236 -44.38384118842865 C -21.99803409452193 -44.84794765922809 -22.050508647644058 -45.37773310400288 -22.079249599808243 -45.97294032910475 A 51 51 0 0 1 -21.3489 -46.3166C -20.90862108561023 -45.91506460385654 -20.533862923592782 -45.53693431384807 -20.21745159989628 -45.19131293895451 C -20.090808244301535 -45.05297527741087 -19.97354690909134 -44.91987640756504 -19.865178936847453 -44.79257504360253 A 0.375 0.375 0 0 0 -19.4231 -44.7136A 48.75 48.75 0 0 1 -19.2988 -44.7674A 0.375 0.375 0 0 0 -19.0537 -45.1437C -19.07234691701272 -45.30986046853053 -19.089100909820097 -45.486452749263655 -19.103251382518774 -45.67347042821424 C -19.138600065862928 -46.140718468480344 -19.157705569124662 -46.67275340715045 -19.14901643669325 -47.2685907860739 A 51 51 0 0 1 -18.3985 -47.5657C -17.984331937319826 -47.137324892766685 -17.63405627228916 -46.73640949681898 -17.33997105975269 -46.37160249535922 C -17.222263899530084 -46.225585809497666 -17.113591299965503 -46.08538667970939 -17.01343048594053 -45.951532034631896 A 0.375 0.375 0 0 0 -16.5772 -45.845A 48.75 48.75 0 0 1 -16.4498 -45.8908A 0.375 0.375 0 0 0 -16.1815 -46.251C -16.18968231841552 -46.418014380511515 -16.195314929993078 -46.59531018862985 -16.197694542743783 -46.78284734644348 C -16.20363472633863 -47.25139294162665 -16.189295779047075 -47.78357767535278 -16.143210854056086 -48.3776937101754 A 51 51 0 0 1 -15.3756 -48.6271C -14.98906684713255 -48.173555695320395 -14.664656057112815 -47.75143742334042 -14.394057575715493 -47.36888452188476 C -14.285751147251139 -47.21576507285572 -14.186096164434868 -47.06901898503937 -14.094537797602635 -46.92913932197865 A 0.375 0.375 0 0 0 -13.6658 -46.7954A 48.75 48.75 0 0 1 -13.5358 -46.8332A 0.375 0.375 0 0 0 -13.2455 -47.1758C -13.243124440069794 -47.34297759610623 -13.237613441072934 -47.52027722605388 -13.228212802631276 -47.70759373924625 C -13.204721043285984 -48.1755877539404 -13.15699423471525 -48.70582199271062 -13.073695393309423 -49.29587197886876 A 51 51 0 0 1 -12.2919 -49.4966C -11.93464675795286 -49.01966748194881 -11.63738114412307 -48.57801224190859 -11.39133732244629 -48.17922320198727 C -11.292859061732837 -48.019605282302436 -11.202614988354023 -47.86689137622472 -11.120020407759382 -47.72153873630593 A 0.375 0.375 0 0 0 -10.7005 -47.5611A 48.75 48.75 0 0 1 -10.5684 -47.5907A 0.375 0.375 0 0 0 -10.2571 -47.9144C -10.244301999767206 -48.081099708078185 -10.22766913959123 -48.25770343921624 -10.206525349982396 -48.44406005508656 C -10.153694358938735 -48.90965553072182 -10.072768044997954 -49.43584668223669 -9.952584029648696 -50.01950196200318 A 51 51 0 0 1 -9.15973 -50.1707C -8.833126070441033 -49.67232103598179 -8.564178804371236 -49.21287183934068 -8.343660664972425 -48.79942049910489 C -8.255399220714471 -48.633934047770765 -8.174922208902142 -48.47585501545062 -8.101617377620826 -48.325603039138215 A 0.375 0.375 0 0 0 -7.69304 -48.1392A 48.75 48.75 0 0 1 -7.5593 -48.1604A 0.375 0.375 0 0 0 -7.22834 -48.4639C -7.205049979647892 -48.62946768566736 -7.177360900593086 -48.80467854375159 -7.144557404694982 -48.98933979787525 C -7.062595681738419 -49.45069924181964 -6.948789241616994 -49.970770669998 -6.792194363726035 -50.54572782263034 A 51 51 0 0 1 -5.99141 -50.6469C -5.696745069800575 -50.12894063201063 -5.457177563479629 -49.65351071484539 -5.263055390709841 -49.22702877784709 C -5.185359090505053 -49.05632689428353 -5.114966746258384 -48.89350660144209 -5.051240964969667 -48.73894826464297 A 0.375 0.375 0 0 0 -4.65518 -48.5272A 48.75 48.75 0 0 1 -4.52037 -48.54A 0.375 0.375 0 0 0 -4.171 -48.8222C -4.137362918933177 -48.98591737099171 -4.09872689714463 -49.15904387881148 -4.054393155369077 -49.34128099758216 C -3.94362416597537 -49.79658363488551 -3.7973867416992455 -50.30848285539837 -3.6049990097082287 -50.872472787688054 A 51 51 0 0 1 -2.79944 -50.9232C -2.5378816189649154 -50.38772420109946 -2.3286393358922863 -49.89818986808987 -2.1616792412814583 -49.460360463693334 C -2.0948547169306813 -49.28511683024849 -2.0348248466732093 -49.118197854196076 -1.9809296119222988 -48.959943128054604 A 0.375 0.375 0 0 0 -1.59894 -48.7238A 48.75 48.75 0 0 1 -1.4636 -48.728A 0.375 0.375 0 0 0 -1.0972 -48.9877C -1.0533475769587546 -49.14904201998962 -1.0039170911633486 -49.319400926312554 -0.9482280685349734 -49.498494703078684 C -0.8090889672997227 -49.945943662239536 -0.6309976911729923 -50.44765044272804 -0.4035763715664909 -50.99844734407482 A 51 51 0 0 1 0.403576 -50.9984C 0.6309976911729739 -50.44765044272804 0.8090889672997043 -49.945943662239536 0.9482280685349552 -49.498494703078684 C 1.0039170911633304 -49.319400926312554 1.0533475769587364 -49.14904201998962 1.0971995653026694 -48.98771546361018 A 0.375 0.375 0 0 0 1.4636 -48.728A 48.75 48.75 0 0 1 1.59894 -48.7238A 0.375 0.375 0 0 0 1.98093 -48.9599C 2.034824846673235 -49.118197854196076 2.094854716930707 -49.28511683024849 2.1616792412814845 -49.460360463693334 C 2.3286393358923125 -49.89818986808987 2.537881618964942 -50.38772420109946 2.7994389981373593 -50.923154327768884 A 51 51 0 0 1 3.605 -50.8725C 3.797386741699272 -50.30848285539837 3.9436241659753963 -49.79658363488551 4.0543931553691035 -49.34128099758216 C 4.098726897144656 -49.15904387881148 4.137362918933203 -48.98591737099171 4.170998597106233 -48.822155666589225 A 0.375 0.375 0 0 0 4.52037 -48.54A 48.75 48.75 0 0 1 4.65518 -48.5272A 0.375 0.375 0 0 0 5.05124 -48.7389C 5.114966746258407 -48.89350660144209 5.185359090505077 -49.05632689428353 5.263055390709866 -49.227028777847096 C 5.457177563479654 -49.65351071484539 5.6967450698006 -50.12894063201063 5.99140626105754 -50.646890885907496 A 51 51 0 0 1 6.79219 -50.5457C 6.9487892416170185 -49.970770669998 7.062595681738443 -49.45069924181964 7.144557404695007 -48.989339797875246 C 7.17736090059311 -48.80467854375159 7.205049979647917 -48.62946768566736 7.2283366029949745 -48.46391712587351 A 0.375 0.375 0 0 0 7.5593 -48.1604A 48.75 48.75 0 0 1 7.69304 -48.1392A 0.375 0.375 0 0 0 8.10162 -48.3256C 8.174922208902167 -48.47585501545061 8.255399220714496 -48.63393404777076 8.34366066497245 -48.79942049910488 C 8.564178804371261 -49.21287183934067 8.833126070441057 -49.672321035981795 9.159728180678522 -50.17074730408291 A 51 51 0 0 1 9.95258 -50.0195C 10.072768044997979 -49.435846682236686 10.15369435893876 -48.909655530721814 10.206525349982421 -48.44406005508655 C 10.227669139591255 -48.257703439216236 10.24430199976723 -48.08109970807818 10.257147666624611 -47.914413645319605 A 0.375 0.375 0 0 0 10.5684 -47.5907A 48.75 48.75 0 0 1 10.7005 -47.5611A 0.375 0.375 0 0 0 11.12 -47.7215C 11.20261498835405 -47.866891376224714 11.292859061732866 -48.01960528230243 11.391337322446319 -48.17922320198726 C 11.637381144123097 -48.57801224190858 11.934646757952887 -49.01966748194881 12.29190083785208 -49.4966027034833 A 51 51 0 0 1 13.0737 -49.2959C 13.156994234715278 -48.70582199271062 13.20472104328601 -48.17558775394039 13.228212802631301 -47.70759373924624 C 13.23761344107296 -47.52027722605387 13.24312444006982 -47.34297759610622 13.245478454459064 -47.17581386412102 A 0.375 0.375 0 0 0 13.5358 -46.8332A 48.75 48.75 0 0 1 13.6658 -46.7954A 0.375 0.375 0 0 0 14.0945 -46.9291C 14.186096164434852 -47.06901898503938 14.285751147251123 -47.215765072855724 14.394057575715475 -47.368884521884766 C 14.664656057112797 -47.75143742334043 14.989066847132534 -48.1735556953204 15.375562978053955 -48.62711762485985 A 51 51 0 0 1 16.1432 -48.3777C 16.189295779047058 -47.78357767535279 16.203634726338613 -47.251392941626655 16.197694542743765 -46.78284734644349 C 16.195314929993064 -46.59531018862986 16.189682318415503 -46.41801438051152 16.181535390117265 -46.25103269817999 A 0.375 0.375 0 0 0 16.4498 -45.8908A 48.75 48.75 0 0 1 16.5772 -45.845A 0.375 0.375 0 0 0 17.0134 -45.9515C 17.113591299965528 -46.08538667970937 17.222263899530112 -46.22558580949765 17.339971059752717 -46.371602495359205 C 17.63405627228919 -46.736409496818965 17.984331937319855 -47.13732489276668 18.39854479560805 -47.565723528587924 A 51 51 0 0 1 19.149 -47.2686C 19.15770556912469 -46.672753407150445 19.138600065862956 -46.14071846848033 19.103251382518803 -45.67347042821422 C 19.089100909820125 -45.48645274926364 19.072346917012744 -45.309860468530516 19.053731198231038 -45.14371983626615 A 0.375 0.375 0 0 0 19.2988 -44.7674A 48.75 48.75 0 0 1 19.4231 -44.7136A 0.375 0.375 0 0 0 19.8652 -44.7926C 19.973546909091365 -44.919876407565035 20.090808244301563 -45.05297527741086 20.217451599896307 -45.1913129389545 C 20.533862923592807 -45.536934313848064 20.908621085610253 -45.915064603856536 21.348915962349405 -46.316609252260704 A 51 51 0 0 1 22.0792 -45.9729C 22.050508647644083 -45.37773310400287 21.998034094521955 -44.84794765922808 21.93341641653238 -44.38384118842864 C 21.90755092933673 -44.198081061679666 21.879741675654973 -44.02288923738647 21.850730634127117 -43.858245336362366 A 0.375 0.375 0 0 0 22.0717 -43.4673A 48.75 48.75 0 0 1 22.1923 -43.4058A 0.375 0.375 0 0 0 22.6385 -43.4568C 22.754676053612645 -43.577087905179454 22.880063347549996 -43.70256123465064 23.015143095050192 -43.832673916326726 C 23.35263179896667 -44.15774565498677 23.75039345871614 -44.51159853155263 24.215032711179358 -44.884704479260776 A 51 51 0 0 1 24.9223 -44.4959C 24.85628844245042 -43.90362761940806 24.77065193255573 -43.378182489643166 24.677020276374748 -42.91904920452055 C 24.639541853943275 -42.73527974032775 24.600787089806577 -42.562179774567426 24.561495218859598 -42.39968237904229 A 0.375 0.375 0 0 0 24.7575 -41.9956A 48.75 48.75 0 0 1 24.874 -41.9267A 0.375 0.375 0 0 0 25.3225 -41.9496C 25.446002887372916 -42.0623205453099 25.579021293672255 -42.179673148498324 25.722004335026586 -42.30104735499512 C 26.079238505432606 -42.6042865477803 26.498433879363084 -42.93246551525974 26.985583788694377 -43.27566028355216 A 51 51 0 0 1 27.6671 -42.8432C 27.563971822532373 -42.25625457425901 27.445511324046073 -41.73722345137815 27.323235211044402 -41.2848753412507 C 27.274291763588174 -41.10382179373295 27.224744436345222 -40.93349683298851 27.175326803043 -40.77378724594448 A 0.375 0.375 0 0 0 27.3455 -40.3582A 48.75 48.75 0 0 1 27.4575 -40.2821A 0.375 0.375 0 0 0 27.9066 -40.2768C 28.036905972909693 -40.38155242269434 28.17703052869168 -40.49032116248853 28.32735257515866 -40.60247788526358 C 28.7029223719884 -40.88268778561678 29.141897087471126 -41.18389767155588 29.64963509553599 -41.4958268274729 A 51 51 0 0 1 30.3026 -41.0214C 30.16287279861172 -40.44211539735173 30.012055821001887 -39.93154666007415 29.861617819134896 -39.48776893627432 C 29.80140250408089 -39.31014584106819 29.74125815439629 -39.14326808014562 29.681909787560695 -38.986976602358396 A 0.375 0.375 0 0 0 29.8257 -38.5615A 48.75 48.75 0 0 1 29.9327 -38.4785A 0.375 0.375 0 0 0 30.3805 -38.4451C 30.517160199415294 -38.54141676124288 30.663837897075084 -38.64117237711857 30.820905696212915 -38.74366898482663 C 31.213328917059805 -38.99974373228688 31.67035054144124 -39.27279579887554 32.196672838285274 -39.55222830054562 A 51 51 0 0 1 32.8186 -39.0377C 32.6427346958607 -38.46836966721616 32.46015644483624 -37.968278297091224 32.28215026416871 -37.53482234755212 C 32.21090072385569 -37.3613307018661 32.1403967140003 -37.19855873104856 32.07135183452155 -37.046302173578184 A 0.375 0.375 0 0 0 32.1881 -36.6127A 48.75 48.75 0 0 1 32.2897 -36.5231A 0.375 0.375 0 0 0 32.7346 -36.4616C 32.87697713657812 -36.54917573573322 33.02962910625371 -36.639524537848565 33.19282278321665 -36.73195652320524 C 33.600550712909126 -36.96288550773375 34.07381559063116 -37.20670214321078 34.6166450226025 -37.452535198210384 A 51 51 0 0 1 35.205 -36.9C 34.99377063231206 -36.34280685653047 34.78015166081768 -35.85516648572605 34.57527981042143 -35.43374296305332 C 34.493277234234185 -35.26506745915214 34.41269181132469 -35.107043665045005 34.33422290779848 -34.95942291496441 A 0.375 0.375 0 0 0 34.4235 -34.5193A 48.75 48.75 0 0 1 34.5193 -34.4235A 0.375 0.375 0 0 0 34.9594 -34.3342C 35.107043665045026 -34.41269181132467 35.265067459152164 -34.493277234234164 35.433742963053334 -34.57527981042141 C 35.85516648572607 -34.78015166081766 36.34280685653049 -34.993770632312035 36.900001123856335 -35.20503404988355 A 51 51 0 0 1 37.4525 -34.6166C 37.20670214321079 -34.07381559063114 36.96288550773377 -33.600550712909104 36.731956523205255 -33.19282278321663 C 36.63952453784859 -33.02962910625369 36.54917573573324 -32.8769771365781 36.46159248907275 -32.734574785546336 A 0.375 0.375 0 0 0 36.5231 -32.2897A 48.75 48.75 0 0 1 36.6127 -32.1881A 0.375 0.375 0 0 0 37.0463 -32.0714C 37.19855873104858 -32.14039671400028 37.36133070186612 -32.21090072385567 37.53482234755214 -32.28215026416869 C 37.96827829709124 -32.46015644483622 38.46836966721618 -32.64273469586069 39.037729778681225 -32.81859471581202 A 51 51 0 0 1 39.5522 -32.1967C 39.27279579887556 -31.670350541441227 38.999743732286895 -31.213328917059787 38.74366898482664 -30.820905696212897 C 38.64117237711859 -30.663837897075066 38.5414167612429 -30.517160199415276 38.44506482250972 -30.380538244454424 A 0.375 0.375 0 0 0 38.4785 -29.9327A 48.75 48.75 0 0 1 38.5615 -29.8257A 0.375 0.375 0 0 0 38.987 -29.6819C 39.14326808014566 -29.741258154396235 39.310145841068234 -29.801402504080833 39.487768936274364 -29.86161781913484 C 39.93154666007419 -30.01205582100183 40.44211539735177 -30.162872798611666 41.021394348711965 -30.302635381786857 A 51 51 0 0 1 41.4958 -29.6496C 41.183897671555926 -29.141897087471072 40.882687785616824 -28.702922371988343 40.602477885263625 -28.327352575158603 C 40.49032116248857 -28.177030528691624 40.381552422694384 -28.036905972909636 40.27681204897169 -27.9066035984593 A 0.375 0.375 0 0 0 40.2821 -27.4575A 48.75 48.75 0 0 1 40.3582 -27.3455A 0.375 0.375 0 0 0 40.7738 -27.1753C 40.933496832988524 -27.22474443634521 41.10382179373296 -27.274291763588156 41.284875341250704 -27.323235211044384 C 41.73722345137816 -27.44551132404606 42.256254574259025 -27.563971822532356 42.84316621614073 -27.667085389867072 A 51 51 0 0 1 43.2757 -26.9856C 42.93246551525976 -26.498433879363066 42.60428654778031 -26.079238505432592 42.30104735499513 -25.72200433502657 C 42.17967314849834 -25.579021293672238 42.062320545309916 -25.446002887372902 41.94960509900146 -25.322534337375536 A 0.375 0.375 0 0 0 41.9267 -24.874A 48.75 48.75 0 0 1 41.9956 -24.7575A 0.375 0.375 0 0 0 42.3997 -24.5615C 42.56217977456744 -24.60078708980656 42.73527974032776 -24.639541853943253 42.91904920452056 -24.677020276374733 C 43.37818248964317 -24.770651932555708 43.90362761940807 -24.8562884424504 44.495855679695204 -24.92234605180248 A 51 51 0 0 1 44.8847 -24.215C 44.511598531552636 -23.75039345871612 44.157745654986776 -23.352631798966648 43.83267391632674 -23.01514309505017 C 43.70256123465065 -22.880063347549974 43.57708790517947 -22.754676053612627 43.456842222657045 -22.63852860202766 A 0.375 0.375 0 0 0 43.4058 -22.1923A 48.75 48.75 0 0 1 43.4673 -22.0717A 0.375 0.375 0 0 0 43.8582 -21.8507C 44.02288923738648 -21.87974167565495 44.19808106167968 -21.90755092933671 44.38384118842865 -21.93341641653236 C 44.84794765922809 -21.998034094521934 45.37773310400288 -22.05050864764406 45.97294032910475 -22.079249599808247 A 51 51 0 0 1 46.3166 -21.3489C 45.91506460385654 -20.908621085610232 45.53693431384807 -20.533862923592785 45.19131293895451 -20.217451599896286 C 45.05297527741087 -20.090808244301538 44.91987640756504 -19.973546909091343 44.79257504360253 -19.865178936847457 A 0.375 0.375 0 0 0 44.7136 -19.4231A 48.75 48.75 0 0 1 44.7674 -19.2988A 0.375 0.375 0 0 0 45.1437 -19.0537C 45.30986046853053 -19.072346917012723 45.486452749263655 -19.0891009098201 45.67347042821424 -19.103251382518778 C 46.140718468480344 -19.13860006586293 46.67275340715045 -19.157705569124666 47.2685907860739 -19.149016436693252 A 51 51 0 0 1 47.5657 -18.3985C 47.137324892766685 -17.98433193731983 46.73640949681898 -17.634056272289165 46.37160249535922 -17.339971059752692 C 46.225585809497666 -17.222263899530088 46.08538667970939 -17.113591299965506 45.951532034631896 -17.013430485940532 A 0.375 0.375 0 0 0 45.845 -16.5772A 48.75 48.75 0 0 1 45.8908 -16.4498A 0.375 0.375 0 0 0 46.251 -16.1815C 46.41801438051153 -16.189682318415482 46.59531018862987 -16.195314929993042 46.782847346443496 -16.197694542743744 C 47.25139294162666 -16.203634726338592 47.783577675352795 -16.189295779047036 48.377693710175414 -16.143210854056044 A 51 51 0 0 1 48.6271 -15.3756C 48.17355569532041 -14.98906684713251 47.751437423340434 -14.664656057112776 47.36888452188477 -14.394057575715454 C 47.21576507285573 -14.285751147251101 47.069018985039385 -14.18609616443483 46.92913932197867 -14.094537797602598 A 0.375 0.375 0 0 0 46.7954 -13.6658A 48.75 48.75 0 0 1 46.8332 -13.5358A 0.375 0.375 0 0 0 47.1758 -13.2455C 47.34297759610623 -13.243124440069796 47.52027722605388 -13.237613441072938 47.70759373924625 -13.228212802631276 C 48.1755877539404 -13.204721043285986 48.70582199271062 -13.156994234715253 49.29587197886876 -13.073695393309425 A 51 51 0 0 1 49.4966 -12.2919C 49.01966748194881 -11.934646757952862 48.57801224190859 -11.637381144123072 48.17922320198727 -11.391337322446294 C 48.019605282302436 -11.292859061732841 47.86689137622472 -11.202614988354025 47.72153873630593 -11.120020407759386 A 0.375 0.375 0 0 0 47.5611 -10.7005A 48.75 48.75 0 0 1 47.5907 -10.5684A 0.375 0.375 0 0 0 47.9144 -10.2571C 48.081099708078185 -10.244301999767208 48.25770343921624 -10.227669139591233 48.44406005508656 -10.2065253499824 C 48.90965553072182 -10.153694358938738 49.43584668223669 -10.072768044997957 50.01950196200318 -9.952584029648698 A 51 51 0 0 1 50.1707 -9.15973C 49.67232103598179 -8.833126070441036 49.21287183934068 -8.56417880437124 48.79942049910489 -8.343660664972429 C 48.633934047770765 -8.255399220714475 48.47585501545062 -8.174922208902144 48.325603039138215 -8.101617377620828 A 0.375 0.375 0 0 0 48.1392 -7.69304A 48.75 48.75 0 0 1 48.1604 -7.5593A 0.375 0.375 0 0 0 48.4639 -7.22834C 48.62946768566736 -7.205049979647896 48.80467854375159 -7.177360900593088 48.989339797875246 -7.144557404694985 C 49.45069924181964 -7.062595681738421 49.970770669998 -6.948789241616996 50.54572782263034 -6.792194363726038 A 51 51 0 0 1 50.6469 -5.99141C 50.12894063201063 -5.696745069800578 49.65351071484539 -5.457177563479632 49.227028777847096 -5.263055390709844 C 49.05632689428353 -5.185359090505056 48.89350660144209 -5.114966746258386 48.73894826464297 -5.0512409649696695 A 0.375 0.375 0 0 0 48.5272 -4.65518A 48.75 48.75 0 0 1 48.54 -4.52037A 0.375 0.375 0 0 0 48.8222 -4.171C 48.98591737099171 -4.137362918933181 49.15904387881148 -4.098726897144633 49.34128099758216 -4.05439315536908 C 49.79658363488551 -3.9436241659753737 50.30848285539837 -3.797386741699249 50.872472787688054 -3.604999009708232 A 51 51 0 0 1 50.9232 -2.79944C 50.38772420109946 -2.537881618964919 49.89818986808987 -2.32863933589229 49.460360463693334 -2.161679241281462 C 49.28511683024849 -2.0948547169306844 49.118197854196076 -2.034824846673213 48.959943128054604 -1.9809296119223023 A 0.375 0.375 0 0 0 48.7238 -1.59894A 48.75 48.75 0 0 1 48.728 -1.4636A 0.375 0.375 0 0 0 48.9877 -1.0972" stroke="#191919" stroke-width="0.35 px" style="stroke-width:0.35;stroke-miterlimit:4;stroke-dasharray:none;fill:none;fill-rule: evenodd "/>
<title>b'InvoluteGear'</title>
</g>
</svg>