<?xml version="1.0"?>
<!DOCTYPE svg PUBLIC "-//W3C//DTD SVG 1.1//EN" "http://www.w3.org/Graphics/SVG/1.1/DTD/svg11.dtd">
<svg width="1117.8265991219337mm" height="1117.900788373307mm" viewBox="0 0 1117.8265991219337 1117.900788373307" xmlns="http://www.w3.org/2000/svg" version="1.1">
<g id="InvoluteGear" transform="translate(558.877088,558.950394) scale(1,-1)">
<path id="InvoluteGear_w0000"  d="M 531.9257379841906 -8.888715878807636 C 533.2329279698607 -8.500952980853668 534.5882719921862 -8.080704207775444 535.9905381747238 -7.625375533050571 C 539.6753705865348 -6.428859323286206 543.6833590063638 -4.99049333607838 547.9904271121967 -3.2639851910949353 A 548 548 0 0 1 547.99 3.26399C 543.6833590063638 4.99049333607838 539.6753705865348 6.428859323286206 535.9905381747238 7.625375533050571 C 534.5882719921862 8.080704207775444 533.2329279698607 8.500952980853668 531.9257411461394 8.888714568124517 A 3 3 0 0 0 529.868 11.8378A 530 530 0 0 1 529.845 12.8273A 3 3 0 0 0 531.763 15.8689C 533.0510055696494 16.317081052657358 534.3853296999324 16.799932546878257 535.7648930755767 17.32000902327093 C 539.3900669339403 18.686667517554355 543.3267947219448 20.309948827061078 547.5488724221044 22.234975044231206 A 548 548 0 0 1 547.245 28.7559C 542.8624262009811 30.280127201920223 538.7918575597578 31.53046268639195 535.0553471209761 32.554245223963605 C 533.6334151278437 32.94383995650247 532.2599865868243 33.30057584317529 530.9361745719867 33.627100252745514 A 3 3 0 0 0 528.743 36.4773A 530 530 0 0 1 528.674 37.4646A 3 3 0 0 0 530.449 40.5922C 531.7146133895991 41.09977592204778 533.025027778897 41.64418438859482 534.3789005205729 42.22788229681653 C 537.9365645061554 43.76172319764387 541.7935055865653 45.566404163600595 545.9214488009128 47.685779274830175 A 548 548 0 0 1 545.315 54.1855C 540.8657742634502 55.504181054932076 536.7414413460873 56.56377808842935 532.96134532991 57.412609668804805 C 531.5228271142483 57.73562668372078 530.1342885949238 58.02807707349456 528.7967184710117 58.29265712620251 A 3 3 0 0 0 526.474 61.0377A 530 530 0 0 1 526.359 62.0207A 3 3 0 0 0 527.986 65.2275C 529.226645757588 65.79345782876787 530.5103123401327 66.39824420012978 531.8355622609583 67.04429938048744 C 535.3180112657769 68.74200073001866 539.0868123630644 70.72417281531418 543.1116808857957 73.03330672604847 A 548 548 0 0 1 542.203 79.4977C 537.6977274972592 80.60802521128619 533.5285626904613 81.4745889425824 529.7130679431191 82.14663118557385 C 528.2610790150584 82.40237089994112 526.8604377826658 82.6299024103936 525.5120064287212 82.83196508476102 A 3 3 0 0 0 523.064 85.4659A 530 530 0 0 1 522.903 86.4426A 3 3 0 0 0 524.38 89.7216C 525.5924910574937 90.3446457565239 526.8466296973104 91.00850020009234 528.1403866010602 91.71551344092696 C 531.5400784160316 93.57339839607812 535.2125771462456 95.72876865735988 539.1256540083864 98.22266029773937 A 548 548 0 0 1 537.917 104.638C 533.3651471862524 105.53729033458985 529.1601799726137 106.20894397960686 525.317550006106 106.7027413913644 C 523.8552350503398 106.89064992990897 522.445524581898 107.05276977845455 521.089152399969 107.19187745172351 A 3 3 0 0 0 518.521 109.709A 530 530 0 0 1 518.315 110.677A 3 3 0 0 0 519.637 114.021C 520.8200200591538 114.70016729925038 522.0419145712167 115.42165205412576 523.3013764685268 116.18809212219331 C 526.6109481182134 118.20213691785987 530.1791906668852 120.52603730309343 533.9720010153046 123.1992854591575 A 548 548 0 0 1 532.467 129.551C 527.8774167346171 130.23798518776115 523.6457541367729 130.71327409426573 519.7843112319417 131.0277572195528 C 518.3148372970402 131.14742761422315 516.8991107115136 131.24378468537023 515.537735301713 131.3196360812965 A 3 3 0 0 0 512.855 133.715A 530 530 0 0 1 512.605 134.672A 3 3 0 0 0 513.77 138.074C 514.9195688720309 138.80727382070148 516.1065729049146 139.5848263115628 517.329012081769 140.40903326834447 C 520.5412957709433 142.5748759319806 523.9975541192781 145.0622733904108 527.6618835713331 147.90908840192444 A 548 548 0 0 1 525.863 154.184C 521.2464213445202 154.65661356602598 516.9972282013631 154.93450836408255 513.1253353836855 155.068996102478 C 511.6518850229736 155.12016917384707 510.23320846889663 155.15055477963608 508.86977826721534 155.16298562098646 A 3 3 0 0 0 506.079 157.431A 530 530 0 0 1 505.784 158.375A 3 3 0 0 0 506.79 161.828C 507.9039165595013 162.61375469625105 509.0534593267893 163.44569091754622 510.2362282521398 164.3258797143056 C 513.3442668896326 166.63882951298527 516.6810555516778 169.28433689560353 520.2089679857373 172.2985531951721 A 548 548 0 0 1 518.12 178.483C 513.486522275406 178.74029015778513 509.2290013930862 178.82018898914188 505.35504432022384 178.77439007015164 C 503.8808086990792 178.75695498874197 502.4622547139613 178.72130332071694 501.09972260661135 178.6702866850571 A 3 3 0 0 0 498.206 180.806A 530 530 0 0 1 497.868 181.736A 3 3 0 0 0 498.712 185.231C 499.78825746224913 186.06805038947962 500.8978493102842 186.9525685526064 502.0383863700141 187.88683289640753 C 505.03544863622574 190.34188049590767 508.2455408707652 193.13976822281703 511.6293956140822 196.31485768913248 A 548 548 0 0 1 509.255 202.396C 504.6145257407066 202.4368550824229 500.3578979614033 202.31858490400276 496.49026676173446 202.092598517887 C 495.0184387462341 202.00659304420253 493.60307960212754 201.9049813159376 492.24439653024893 201.79062769394014 A 3 3 0 0 0 489.255 203.789A 530 530 0 0 1 488.873 204.702A 3 3 0 0 0 489.554 208.233C 490.5901682907081 209.11936411864892 491.65740609062794 210.05454855422792 492.75324113543735 211.04086503654136 C 495.6328360608761 213.6326933504442 498.7092795229438 216.5769018198535 501.9417478996511 219.90598791615136 A 548 548 0 0 1 499.287 225.87C 494.64964650932643 225.69498685699364 490.40313074095616 225.378803815667 486.5502018424267 224.9731193986161 C 485.0839690843098 224.81872980136134 483.6748701339528 224.65137808123333 482.32297870253166 224.47393513737958 A 3 3 0 0 0 479.243 226.331A 530 530 0 0 1 478.82 227.226A 3 3 0 0 0 479.335 230.785C 480.3295700578204 231.71777187122015 481.3521424101998 232.70159717800794 482.4009021053989 233.73782965696304 C 485.156793128676 236.46082536228138 488.09292492678645 239.54497807425355 491.1670061301766 243.0208507413603 A 548 548 0 0 1 488.237 248.854C 483.61346629073074 248.46431354712576 479.38625954084614 247.95090242495345 475.55637752949144 247.3663985990781 C 474.09891556241575 247.1439592517417 472.6991286003608 246.91122998631104 471.3569567052023 246.67108202250492 A 3 3 0 0 0 468.194 248.383A 530 530 0 0 1 467.73 249.257A 3 3 0 0 0 468.079 252.836C 469.0286849345586 253.81433052814793 470.0043771753858 254.84466595960538 471.0037901410095 255.92857018639793 C 473.6300086158422 258.77683588078264 476.4194697423298 261.99425324731357 479.32850599704364 265.6093845190294 A 548 548 0 0 1 476.131 271.3C 471.5298869937688 270.695521861415 467.3311444508882 269.98599459256275 463.532603998318 269.2239372629942 C 462.08706936036094 268.93392991967033 460.69962601346737 268.63632714870243 459.37008050002567 268.33399427195815 A 3 3 0 0 0 456.131 269.897A 530 530 0 0 1 455.626 270.748A 3 3 0 0 0 455.809 274.34C 456.71198812165204 275.36118386377785 457.63868711879763 276.43579794279253 458.5865888489087 277.56502642222785 C 461.07744697087907 280.53239339642835 463.71419607409285 283.87610720794714 466.4518870553782 287.6226675149441 A 548 548 0 0 1 462.993 293.159C 458.42507896046214 292.3404639530323 454.2638941659698 291.43635721556905 450.50492206495665 290.4983968287905 C 449.07444546225656 290.1414495808069 447.70235062386195 289.7796178456344 446.3883109916599 289.4157548416403 A 3 3 0 0 0 443.08 290.826A 530 530 0 0 1 442.536 291.653A 3 3 0 0 0 442.552 295.249C 443.4061548417518 296.3116661917748 444.28185357154246 297.42823154354335 445.17619112206955 298.6003386181883 C 447.52629424714235 301.6803802161029 450.0046207156683 305.14314873306216 452.5650371944806 309.01302385998844 A 548 548 0 0 1 448.852 314.382C 444.3274242868709 313.3522616972393 440.21280944043144 312.2555335850345 436.50154678750926 311.14370155438144 C 435.08922631385326 310.72058746999323 433.73545163584356 310.2953104175829 432.43976380211797 309.87070533258174 A 3 3 0 0 0 429.07 311.126A 530 530 0 0 1 428.488 311.926A 3 3 0 0 0 428.336 315.519C 429.14000256683846 316.6204034326077 429.9628044608235 317.7765018252117 430.8016408957806 318.9889489721439 C 433.0058992239009 322.17499450952624 435.32043555447456 325.74931814639723 437.69803223886686 329.7341268054602 A 548 548 0 0 1 433.739 334.925C 429.26745535379405 333.685408218967 425.2083217949345 332.3984340008955 421.55280635859646 331.1151383069669 C 420.1617007856392 330.62677375706306 418.8291782425125 330.13897244281094 417.5546483785913 329.654544876867 A 3 3 0 0 0 414.13 330.751A 530 530 0 0 1 413.511 331.524A 3 3 0 0 0 413.192 335.106C 413.94442860599474 336.24341138370266 414.712551658491 337.43653896546033 415.4940702449495 338.6867002941437 C 417.5477098434163 341.9718495058189 419.69344326573986 345.6499870735241 421.88307081072986 349.74109905649374 A 548 548 0 0 1 417.687 354.742C 413.277788700431 353.29586645057435 409.282927608564 351.82143342621293 405.69107642124595 350.3694534017213 C 404.3241985738911 349.8168960751694 403.01581411275356 349.2676269681 401.7652025665134 348.7244260834503 A 3 3 0 0 0 398.293 349.661A 530 530 0 0 1 397.639 350.404A 3 3 0 0 0 397.154 353.967C 397.8523431887141 355.13819097943116 398.56412381623323 356.3657637016825 399.28663195896115 357.6509316410614 C 401.1852051017027 361.0280696253643 403.1574884349889 364.80205509696884 405.154404594894 368.99060996628674 A 548 548 0 0 1 400.73 373.791C 396.3930543842212 372.1411645063308 392.4711177389078 370.4824659692879 388.95070995045853 368.86494627964356 C 387.61102018175126 368.24939289257105 386.3296074719985 367.6398455872607 385.1056227895661 367.03904783606293 A 3 3 0 0 0 381.594 367.813A 530 530 0 0 1 380.906 368.525A 3 3 0 0 0 380.255 372.062C 380.8985981886727 373.26382033462266 381.5524948328726 374.5231795482036 382.2144277401188 375.8405707106986 C 383.9538225404765 379.30238333876645 385.74838425820775 383.1640431021187 387.5482641572929 387.44096938063296 A 548 548 0 0 1 382.906 392.03C 378.649820979851 390.1804876670629 374.8093028225396 388.3411159890156 371.3679628523149 386.5615598216819 C 370.05836263197597 385.88434352565554 368.8066969281961 385.2158381658353 367.6119899878404 384.55874474223475 A 3 3 0 0 0 364.068 385.168A 530 530 0 0 1 363.348 385.847A 3 3 0 0 0 362.533 389.35C 363.11991164233035 390.5810433722553 363.7145081086875 391.86946158553957 364.3144321811722 393.21622279524564 C 365.8908814973318 396.7552125517921 367.5038349784351 400.69618311174776 369.102780477631 405.05221792951244 A 548 548 0 0 1 364.252 409.42C 360.086516379863 407.3747667757477 356.3357344176873 405.35870562616475 352.98091544175526 403.4209671035339 C 351.70424107224403 402.6835545982503 350.48503320363426 401.95753901766886 349.3221914745541 401.2455730397014 A 3 3 0 0 0 345.754 401.69A 530 530 0 0 1 345.003 402.335A 3 3 0 0 0 344.026 405.796C 344.5547882258411 407.0523548433778 345.0887967508123 408.36704162941663 345.62541268658384 409.7402561014462 C 347.0355022803657 413.3487583227106 348.46335422676873 417.36050441460037 349.85790236617237 421.7862135701892 A 548 548 0 0 1 344.809 425.924C 340.74334456839915 423.68676285260716 337.0904221598761 421.498378571008 333.82938996909735 419.40665440323005 C 332.58840644281213 418.61064275997086 331.4042969421263 417.8286893467087 330.2758388805687 417.06339277414406 A 3 3 0 0 0 326.69 417.341A 530 530 0 0 1 325.91 417.95A 3 3 0 0 0 324.774 421.362C 325.2434358624981 422.64208155512677 325.7156999025299 423.9801895950921 326.18784551096326 425.3768832526823 C 327.4285214423017 429.0470827263838 328.6681794446385 433.1209158014965 329.85530994351393 437.6067141943823 A 548 548 0 0 1 324.619 441.505C 320.6621985483226 439.08114774644594 317.11504710996695 436.72517988588163 313.9548643739098 434.484000281725 C 312.7522593848299 433.6311134844561 311.6058127695724 432.7949157754831 310.5141823644171 431.9779460702836 A 3 3 0 0 0 306.92 432.088A 530 530 0 0 1 306.112 432.661A 3 3 0 0 0 304.818 436.016C 305.22767864132555 437.3164596309188 305.63717537766945 438.6750908807621 306.0438280965129 440.0922387964621 C 307.1124033376108 443.81618668780993 308.1611825726916 447.94328373085403 309.1383243707249 452.4794561206021 A 548 548 0 0 1 303.726 456.13C 299.88656961030256 453.5245806475602 296.45287148226066 451.0061317097967 293.40038245303117 448.6203505652247 C 292.23876057577047 447.7124357768306 291.1324597940226 446.8238047901826 290.0800212736461 445.9569313268091 A 3 3 0 0 0 286.484 445.9A 530 530 0 0 1 285.651 446.434A 3 3 0 0 0 284.202 449.726C 284.5508662354146 451.04370763548906 284.89670878932526 452.4199196024592 285.23698789934195 453.85445254944983 C 286.1311481541742 457.624083616549 286.986777199715 461.79550625433905 287.7518140253587 466.3722283016548 A 548 548 0 0 1 282.176 469.767C 278.4614531403629 466.98578029650713 275.14864494817436 464.31030468114284 272.2104606372906 461.7850890668561 C 271.0923376861687 460.82411262859654 270.02857873907595 459.8849729411127 269.01761145095946 458.9700731744543 A 3 3 0 0 0 265.428 458.746A 530 530 0 0 1 264.571 459.241A 3 3 0 0 0 262.971 462.461C 263.25778001618494 463.7940954064027 263.5392193697017 465.1849075218299 263.81238790211177 466.63371862118566 C 264.5301966186754 470.4408686825553 265.19082237269237 474.6475825425379 265.7420973265384 479.2549420865977 A 548 548 0 0 1 260.014 482.386C 256.43325116989587 479.4355927323474 253.24850771841855 476.60888492379826 250.43099157883168 473.9497038945096 C 249.35878915918042 472.9377470673626 248.33987591174747 471.9501326464813 247.3725693859178 470.98918804570513 A 3 3 0 0 0 243.798 470.598A 530 530 0 0 1 242.919 471.053A 3 3 0 0 0 241.17 474.195C 241.39453606690577 475.54000844296655 241.61096268505906 476.94240851751084 241.81642901764965 478.40235996700744 C 242.3563315821041 482.2387835833794 242.8205232763203 486.47167786007253 243.1568424195748 491.0996963860572 A 548 548 0 0 1 237.29 493.961C 233.84967187919446 490.84705443363237 230.79989061357506 487.8752364515687 228.10914475784725 485.0878492012489 C 227.0851850213527 484.0271036583625 226.11332421278493 482.99315345700023 225.1917734197801 481.9882452141315 A 3 3 0 0 0 221.639 481.431A 530 530 0 0 1 220.74 481.844A 3 3 0 0 0 218.847 484.902C 219.00848530552878 486.25600771308865 219.15943045645687 487.6669584604709 219.2967495949042 489.13488833036644 C 219.6575766985188 492.9922766624712 219.92432899708936 497.24218384943987 220.04496393737858 501.88083809977564 A 548 548 0 0 1 214.051 504.466C 210.7596262721577 501.1954507153876 207.8514123395012 498.08495885580294 205.29326432398864 495.17540224454916 C 204.31976493942764 494.06816532456554 203.39706140382532 492.9901186486215 202.52326221745477 491.9434231711441 A 3 3 0 0 0 199 491.222A 530 530 0 0 1 198.083 491.593A 3 3 0 0 0 196.05 494.559C 196.14811093314304 495.9188847485572 196.23324770326116 497.3353303636448 196.30212224488912 498.8080594447154 C 196.48309241650537 502.67805824837757 196.55182759335125 506.93577399301154 196.45651706225715 511.5750176755141 A 548 548 0 0 1 190.349 513.879C 187.21312224594695 510.45836925561747 184.45277419003895 507.2159401512444 182.0327643937024 504.1905156307851 C 181.11183374396603 503.0391853623167 180.24028585172235 501.9193770208347 179.41613072644873 500.8331612180779 A 3 3 0 0 0 175.93 499.948A 530 530 0 0 1 174.997 500.276A 3 3 0 0 0 172.828 503.145C 172.8629234301588 504.5077119094141 172.88206743218078 505.9265846864148 172.88234821006907 507.4009233754138 C 172.8830695085931 511.2751510949845 172.75363869862696 515.5314541330766 172.44258911753647 520.1612396789826 A 548 548 0 0 1 166.234 522.178C 163.2611562850172 518.6157486354028 160.6546524050807 515.2484046656671 158.37802203025834 512.1136646318209 C 157.51165464606376 510.92073453985427 156.69314997583962 509.7615897883464 155.92042384814383 508.63820616186365 A 3 3 0 0 0 152.48 507.592A 530 530 0 0 1 151.532 507.876A 3 3 0 0 0 149.232 510.641C 149.2033533276305 512.0038877085638 149.1564630999109 513.4221146849931 149.08814950595712 514.8948698926214 C 148.90862036921698 518.7649358135616 148.58130389075194 523.0106079405123 148.05518892379405 527.6209082652763 A 548 548 0 0 1 141.76 529.347C 138.9556030140866 525.6499217874684 136.50858841711693 522.1649558695781 134.3802681382473 518.9276894712237 C 133.5703403784286 517.6957431767001 132.80665162907746 516.4997724645832 132.08702805168375 515.3416540131576 A 3 3 0 0 0 128.699 514.137A 530 530 0 0 1 127.738 514.376A 3 3 0 0 0 125.312 517.031C 125.22064198595689 518.3911770984516 125.10781908228759 519.8056867104849 124.97105906852435 521.2736687769118 C 124.61166831665317 525.1311911982116 124.08717506429574 529.3570372336076 123.34713415933518 533.9378674533343 A 548 548 0 0 1 116.978 535.369C 114.34910284925101 531.545654259116 112.06687722397125 527.9506140532271 110.09147650885028 524.6178324885186 C 109.33974249658286 523.3495381127857 108.63252364787994 522.1193316463068 107.96756116521323 520.9289865966178 A 3 3 0 0 0 104.639 519.568A 530 530 0 0 1 103.669 519.762A 3 3 0 0 0 101.122 522.301C 100.96673061750481 523.6557466325617 100.78821938717209 525.0634753673583 100.58330914533589 526.5235049703136 C 100.04483513867417 530.3601293573903 99.32430104801632 534.5569970597178 98.37193696886314 539.0984361161971 A 548 548 0 0 1 91.9431 540.232C 89.49494799056482 536.2901772066557 87.38245412948002 532.5928487693217 85.5642512561803 529.1717701009942 C 84.87233907994084 527.8698744872497 84.22312181043095 526.6080966196766 83.61426058315688 525.3881029940394 A 3 3 0 0 0 80.3526 523.874A 530 530 0 0 1 79.3742 524.023A 3 3 0 0 0 76.7119 526.44C 76.49414779350876 527.7861944255819 76.25033485208715 529.1840934561712 75.97771817213301 530.6330084966503 C 75.26132712547337 534.4404255754093 74.34631271290908 538.5992254637714 73.18368806808905 543.0914376112811 A 548 548 0 0 1 66.7091 543.925C 64.4469670030019 539.8732150498801 62.50878009741129 536.0816059711858 60.8517128884843 532.5796394938391 C 60.22112107597357 531.2469622580802 59.63131144569671 529.9563457193051 59.0798701316541 528.709345752248 A 3 3 0 0 0 55.8922 527.045A 530 530 0 0 1 54.9079 527.148A 3 3 0 0 0 52.136 529.439C 51.85589567888317 530.7735748473488 51.547309070912256 532.1586166357104 51.20757637986346 533.5932790863754 C 50.31481983668914 537.3632428392491 49.207306819683296 541.4749678791567 47.83693959528731 545.9082239864978 A 548 548 0 0 1 41.3306 546.439C 39.25940823577103 542.2870077266808 37.499725966922355 538.4093297875863 36.00738326095182 534.8340599808029 C 35.439477533617385 533.4734874051655 34.91035293889567 532.1568273832208 34.417525837177415 530.8855217989943 A 3 3 0 0 0 31.3108 529.074A 530 530 0 0 1 30.3227 529.132A 3 3 0 0 0 27.4472 531.291C 27.10533524133495 532.6114178970896 26.73264329669244 533.980602751127 26.32653037990714 535.3979054525765 C 25.259341852094245 539.12225097756 23.961728857223964 543.1779960881636 22.386586963510716 547.5426947097922 A 548 548 0 0 1 15.8626 547.771C 13.986822332470648 543.5263274996162 12.409455780317394 539.5709788870679 11.085069659293964 535.9301489891185 C 10.581079974481664 534.5446277708334 10.113786381363356 533.2047758581365 9.680640845730492 531.9119180215455 A 3 3 0 0 0 6.66152 529.958A 530 530 0 0 1 5.67186 529.97A 3 3 0 0 0 2.69902 531.993C 2.296070683389936 533.2957432160042 1.8600805698379865 534.6461057862095 1.3884669774619143 536.0429791763927 C 0.1491577577232963 539.7136403704056 -1.3357448742131677 543.7046217109169 -3.1122500306498426 547.9913098815365 A 548 548 0 0 1 -9.63978 547.915C -11.316055913457667 543.588490278026 -12.707690524206866 539.5640373963532 -13.861251734855436 535.8655326340677 C -14.300233847715237 534.4580635035697 -14.704684385363006 533.0979215210093 -15.077210258131865 531.7863114742381 A 3 3 0 0 0 -18.0022 529.694A 530 530 0 0 1 -18.9913 529.66A 3 3 0 0 0 -22.0551 531.543C -22.51816665237293 532.8250687078352 -23.01651067733336 534.1536844095764 -23.552603535276646 535.5271031717818 C -24.96134937913675 539.1361302000496 -26.63032567969236 543.053704193585 -28.604346584270544 547.2530979011652 A 548 548 0 0 1 -35.1213 546.874C -36.59442610210325 542.4733614311747 -37.7973148007666 538.3885203491657 -38.777552744329654 534.6403508602871 C -39.150576547731745 533.2139820823019 -39.49130808010628 531.8364957945397 -39.80240748192368 530.5089741928841 A 3 3 0 0 0 -42.6269 528.283A 530 530 0 0 1 -43.6133 528.202A 3 3 0 0 0 -46.7614 529.941C -47.28363465344578 531.200413748759 -47.8432532876264 532.5044050962782 -48.44266435338217 533.8513947112957 C -50.017795791561326 537.3909712249229 -51.8672311297118 541.2266532785661 -54.03449249272133 545.3296575714451 A 548 548 0 0 1 -60.5267 544.647C -61.79354091255061 540.1833560798307 -62.805078510062515 536.0469736536688 -63.609870209430795 532.2572571386787 C -63.91612781688084 530.8150779103597 -64.19240239535611 529.4232306459605 -64.44140155419241 528.0826726056013 A 3 3 0 0 0 -67.1592 525.728A 530 530 0 0 1 -68.1409 525.601A 3 3 0 0 0 -71.3664 527.191C -71.94669683083939 528.4252969796437 -72.56637806489279 529.7018398180511 -73.22780914756771 531.0194830063183 C -74.96591479611644 534.4819430707586 -76.99180370674614 538.2274259513 -79.34761172267409 542.225154635824 A 548 548 0 0 1 -85.801 541.241C -86.85882467338462 536.7234338656534 -87.67682040455506 532.5444685785964 -88.30442286011638 528.7214127195832 C -88.54325098583318 527.266546479999 -88.75447026119221 525.8633526702051 -88.94082990031578 524.5126615413459 A 3 3 0 0 0 -91.5461 522.034A 530 530 0 0 1 -92.5208 521.862A 3 3 0 0 0 -95.8169 523.3C -96.45393848377552 524.5057286854562 -97.13234022613754 525.7520583072206 -97.85435881329204 527.0375013470007 C -99.75167432241183 530.4153460447649 -101.9496291812593 534.0625178703182 -104.48888169452756 537.946312756359 A 548 548 0 0 1 -110.89 536.663C -111.73599156144283 532.1010882097136 -112.35867382966698 527.8885907700135 -112.80772779425524 524.0404754546612 C -112.97860918970004 522.5760731201211 -113.1243157080261 521.1645717702654 -113.24763221395659 519.8066728491235 A 3 3 0 0 0 -115.735 517.209A 530 530 0 0 1 -116.7 516.992A 3 3 0 0 0 -120.06 518.276C -120.7522823840343 519.4501977783239 -121.4879353675955 520.6636149110135 -122.26897772774677 521.9140738189208 C -124.32139393453349 525.1999874905623 -126.68665446080857 528.7409492990947 -129.40385201590664 532.5023989517613 A 548 548 0 0 1 -135.738 530.923C -136.37116317281996 526.3263300834116 -136.79718338696188 522.0894238224962 -137.0667163096838 518.224583211691 C -137.16928088380544 516.7538163515629 -137.24915907722533 515.3370644592603 -137.30916537387066 513.974898652526 A 3 3 0 0 0 -139.673 511.265A 530 530 0 0 1 -140.627 511.003A 3 3 0 0 0 -144.043 512.129C -144.78910372941107 513.2696534124409 -145.58041469362203 514.4475300647465 -146.41878926293822 515.6602966252351 C -148.62186109091394 518.8471627134386 -151.14930465700596 522.2742455701638 -154.03856240908706 525.9052035270969 A 548 548 0 0 1 -160.292 524.033C -160.71098521149278 519.411666326943 -160.93942070663363 515.1595274403119 -161.0288488391974 511.2863319182052 C -161.06287445996705 509.8123858860023 -161.07675133010088 508.3934518203733 -161.07331745718454 507.0299692758608 A 3 3 0 0 0 -163.308 504.213A 530 530 0 0 1 -164.25 503.907A 3 3 0 0 0 -167.714 504.872C -168.51234411732028 505.9774812706384 -169.35759925883937 507.1172664240171 -170.2514903046901 508.2897140547723 C -172.60044639084896 511.3706305172325 -175.2845991167974 514.6764121238157 -178.33965957694193 518.1690145386116 A 548 548 0 0 1 -184.5 516.008C -184.70274304284553 511.37207256226725 -184.7330990785701 507.1139102358951 -184.64222873955413 503.2407482815162 C -184.60764171505403 501.7668153161301 -184.55548720769113 500.3487721723969 -184.48862060221722 498.9869258896815 A 3 3 0 0 0 -186.59 496.069A 530 530 0 0 1 -187.516 495.719A 3 3 0 0 0 -191.021 496.523C -191.87062429170302 497.589474573976 -192.7679929761126 498.6886997075897 -193.71546452954158 499.81828914812036 C -196.20521755805956 502.78658340582916 -199.0402661667593 505.9639041754321 -202.25451275430237 509.3105868489828 A 548 548 0 0 1 -208.307 506.865C -208.2944758618293 502.2249607592458 -208.12668669372383 497.96999722453637 -207.85571468804778 494.10525724421416 C -207.75258992607118 492.63452955623694 -207.63451699626088 491.22044850008314 -207.50436247640718 489.8631879349612 A 3 3 0 0 0 -209.468 486.85A 530 530 0 0 1 -210.377 486.458A 3 3 0 0 0 -213.915 487.098C -214.8133554190542 488.1237998771423 -215.76089414560727 489.18008431412375 -216.75989419420992 490.26436912523536 C -219.38505191443815 493.11361251380146 -222.36485632190292 496.15559107715353 -225.7313276944749 499.3491058400175 A 548 548 0 0 1 -231.664 496.625C -231.43508922849546 491.99014152519203 -231.06951825053525 487.74759208567883 -230.61903144322415 483.89964424562174 C -230.447592289042 482.4353071037283 -230.2638566564581 481.0282507198381 -230.07069610793224 479.678515396463 A 3 3 0 0 0 -231.892 476.578A 530 530 0 0 1 -232.781 476.144A 3 3 0 0 0 -236.346 476.618C -237.2908486525718 477.600957723742 -238.28650526338177 478.612013787211 -239.33487019550725 479.6486456494481 C -242.08974710038603 482.37266734215297 -245.20785371380336 485.27271545106487 -248.71925884404715 488.3061458613882 A 548 548 0 0 1 -254.518 485.309C -254.07446572717546 480.6897811995076 -253.5119046846945 476.46883427255824 -252.88287872985987 472.64601237093825 C -252.64349648250456 471.19123720330356 -252.3944960776136 469.79425286248534 -252.1387478431512 468.45496600701233 A 3 3 0 0 0 -253.814 465.273A 530 530 0 0 1 -254.682 464.798A 3 3 0 0 0 -258.265 465.106C -259.2544227471339 466.04373824668403 -260.2960408716916 467.0073762143461 -261.39150016234373 467.9941100139292 C -264.27012980194496 470.58701038636354 -267.519785496721 473.33884718240546 -271.1685194630338 476.20562350539467 A 548 548 0 0 1 -276.822 472.942C -276.1635735096426 468.34835384632703 -275.4052407845896 464.1581510630773 -274.5990380123799 460.3687344808786 C -274.2922311204943 458.9266720065707 -273.9785052227266 457.5427852658304 -273.6607231960543 456.21684747536 A 3 3 0 0 0 -275.186 452.96A 530 530 0 0 1 -276.031 452.445A 3 3 0 0 0 -279.625 452.586C -280.6565094920357 453.477171809828 -281.74183321742777 454.39130465642523 -282.88201434571664 455.32600334766727 C -285.87816224924575 457.78216675500386 -289.25232899476924 460.3798323724465 -293.0304894518694 463.07374580895134 A 548 548 0 0 1 -298.526 459.55C -297.65457248717775 454.9925882491446 -296.7021104593716 450.842204655761 -295.72047692546874 447.0944004254845 C -295.3469098644618 445.66817383070855 -294.9691379342523 444.3003818805667 -294.5900103604771 442.9906648410972 A 3 3 0 0 0 -295.962 439.666A 530 530 0 0 1 -296.782 439.113A 3 3 0 0 0 -300.378 439.086C -301.4507567331409 439.9284747977904 -302.5774354898549 440.79112271513344 -303.75986907734875 441.6717619488053 C -306.86704625562004 443.985868888035 -310.35841635806975 446.42373736159146 -314.25782065171677 448.93895349498115 A 548 548 0 0 1 -319.583 445.164C -318.50091794154724 440.65141002222146 -317.35638943164906 436.5498344253721 -316.20145113570004 432.8517594564306 C -315.7619329686411 431.44445763040295 -315.3209331758695 430.09572280364773 -314.8812811608932 428.80506307064275 A 3 3 0 0 0 -316.097 425.421A 530 530 0 0 1 -316.891 424.83A 3 3 0 0 0 -320.482 424.636C -321.59212876132705 425.4269906713153 -322.75772241406145 426.23628535610715 -323.97984757291056 427.0609578637267 C -327.19132457205296 429.22799649451775 -330.79233650123496 431.50078794393164 -334.80453939003667 433.8318593761422 A 548 548 0 0 1 -339.949 429.813C -338.65746133049987 425.35587896414586 -337.32334513240164 421.3119944632468 -335.9976034135774 417.67165796254653 C -335.4930860389457 416.2863288076486 -334.9898134909627 414.95957216358244 -334.4905892231492 413.69076501862327 A 3 3 0 0 0 -335.548 410.253A 530 530 0 0 1 -336.313 409.626A 3 3 0 0 0 -339.891 409.265C -341.0370038498024 410.0041264158731 -342.2389879822563 410.7583151160378 -343.4981578615059 411.52523484058923 C -346.8069793374614 413.54051183981704 -350.5098341033999 415.6433039049075 -354.6261460493246 417.78518205429276 A 548 548 0 0 1 -359.578 413.531C -358.0805480694548 409.1391217892259 -356.55973358176465 405.1616865376257 -355.06605970141584 401.58697266340795 C -354.49763579150033 400.22661649410816 -353.93318046457756 398.92471149218386 -353.3754651525253 397.6805048890123 A 3 3 0 0 0 -354.271 394.198A 530 530 0 0 1 -355.007 393.535A 3 3 0 0 0 -358.564 393.009C -359.7432687290528 393.693284521123 -360.97904011124945 394.3907338318766 -362.2725276293293 395.098239796012 C -365.67152741157975 396.9573905224521 -369.4682054553923 398.8856290238496 -373.6797114433734 400.83367505928527 A 548 548 0 0 1 -378.428 396.354C -376.72811207761106 392.03626038240276 -375.0238930458588 388.1338886191729 -373.3655219690034 384.6325394056824 C -372.734422603418 383.3001024505234 -372.11000698210233 382.0258687270708 -371.4950085129868 380.808957340133 A 3 3 0 0 0 -372.228 377.288A 530 530 0 0 1 -372.932 376.592A 3 3 0 0 0 -376.461 375.901C -377.67040979480566 376.52979063855884 -378.93729202110933 377.16899004000004 -380.2622957720853 377.8155499433464 C -383.7441123839814 379.51454789051564 -387.62639094645834 381.2640566930006 -391.9239697923315 383.01405158055894 A 548 548 0 0 1 -396.459 378.318C -394.5597668837117 374.08433573306866 -392.67583426682967 370.26547912647965 -390.85635765593895 366.84507771644274 C -390.16394965537825 365.5434457371663 -389.4809260848624 364.2996429986877 -388.8099764084216 363.11266238706963 A 3 3 0 0 0 -389.378 359.562A 530 530 0 0 1 -390.049 358.834A 3 3 0 0 0 -393.542 357.979C -394.77960085147515 358.55081707401433 -396.0748501370892 359.1303822025748 -397.4285004578845 359.7145957403555 C -400.9855930599657 361.2497612570281 -404.9450639902349 362.81675131410987 -409.3194080951922 364.3649049545482 A 548 548 0 0 1 -413.631 359.463C -411.5368930941466 355.32222771253294 -409.4773270706744 351.59515705562296 -407.50068550693175 348.26311127684886 C -406.7484684729416 346.99510331847847 -406.00831623018564 345.7844253647392 -405.2828684740137 344.62994626413223 A 3 3 0 0 0 -405.685 341.056A 530 530 0 0 1 -406.321 340.298A 3 3 0 0 0 -409.771 339.281C -411.0337872010569 339.79530228072554 -412.354598324451 340.31397792739256 -413.7339635098977 340.8345798231758 C -417.3586282316707 342.20258808268875 -421.38671619738057 343.58366564283637 -425.8283517061567 344.92662508010767 A 548 548 0 0 1 -429.907 339.83C -427.6227220339605 335.79057086887707 -425.39198316528683 332.16335816675587 -423.26245761416675 328.92688448843126 C -422.4520606813413 327.69524677384857 -421.6563827712882 326.5203156637061 -420.8780080936843 325.40083841876617 A 3 3 0 0 0 -421.114 321.812A 530 530 0 0 1 -421.714 321.025A 3 3 0 0 0 -425.112 319.849C -426.397765895352 320.3038665273118 -427.7412782737471 320.76052935613194 -429.1433709260065 321.2163921021374 C -432.8277575508136 322.4142803032247 -436.9157386103932 323.60645425997717 -441.4150459295264 324.7413109429867 A 548 548 0 0 1 -445.252 319.46C -442.7824153796147 315.53166642157254 -440.3853349493948 312.012167409256 -438.10753748904455 308.8782753126797 C -437.24071579668345 307.68567529491696 -436.391235480507 306.5490356675258 -435.56161966769685 305.4669848166835 A 3 3 0 0 0 -435.63 301.871A 530 530 0 0 1 -436.193 301.057A 3 3 0 0 0 -439.533 299.724C -440.83826197771396 300.1187239233197 -442.201565862468 300.51238490429404 -443.62334936106913 300.9025212033241 C -447.3594783279093 301.9276949868844 -451.49849882468305 302.92838335692124 -456.04573345641256 303.8526794388 A 548 548 0 0 1 -459.633 298.399C -456.9831406110382 294.58939064645926 -454.42491016170925 291.18522777509634 -452.0037739942146 288.1607045727038 C -451.08240488508227 287.0097251578348 -450.1809619479877 285.9138387215243 -449.3019017630853 284.87155774597466 A 3 3 0 0 0 -449.203 281.277A 530 530 0 0 1 -449.728 280.437A 3 3 0 0 0 -453.002 278.95C -454.32400054919555 279.28359099286155 -455.70414332767047 279.6133975439645 -457.142538406154 279.93696244766994 C -460.92231809163525 280.78720151557064 -465.1034138288721 281.59423703071263 -469.68872747555037 282.3059706919669 A 548 548 0 0 1 -473.018 276.691C -470.1941421195556 273.00909984950204 -467.4803022086114 269.72764577784307 -464.9210709757799 266.81904191339873 C -463.9471499301988 265.71217586653944 -462.99569669685724 264.65941606730183 -462.06909598847653 263.65916231554587 A 3 3 0 0 0 -461.803 260.073A 530 530 0 0 1 -462.288 259.21A 3 3 0 0 0 -465.49 257.572C -466.8257745030154 257.84359199435846 -468.21976709327924 258.10882982804077 -469.67165850820265 258.3651225668906 C -473.48690275119645 259.03858549063943 -477.7010184065635 259.65022029166903 -482.314480299876 260.1478500756752 A 548 548 0 0 1 -485.379 254.384C -482.386807817686 250.83753213513117 -479.52323601806404 247.68589376199097 -476.83145244486377 244.89950862378586 C -475.80708875894896 243.83915317032012 -474.80768586519685 242.83180005145513 -473.83555144413964 241.87573985038563 A 3 3 0 0 0 -473.403 238.306A 530 530 0 0 1 -473.847 237.421A 3 3 0 0 0 -476.969 235.636C -478.3165077806475 235.845161191446 -479.72133110515995 236.04525586162228 -481.1835743830215 236.2337213626146 C -485.0260202140647 236.72894957148347 -489.26402895143934 237.1438589936187 -493.89564736023726 237.42630714507538 A 548 548 0 0 1 -496.689 231.526C -493.53473110655426 228.12270618191732 -490.5276292771206 225.10770925421454 -487.70912316737275 222.44957753199398 C -486.6365353847656 221.43802916571715 -485.5913473147268 220.47826442976586 -484.575784607677 219.56846839288562 A 3 3 0 0 0 -483.978 216.022A 530 530 0 0 1 -484.38 215.118A 3 3 0 0 0 -487.416 213.19C -488.77131401253513 213.33594228669747 -490.1839255367971 213.47046043286855 -491.6533537842649 213.59069052169522 C -495.51467932131214 213.90661146165962 -499.76740255747643 214.12389690348297 -504.4071464276414 214.1905517025888 A 548 548 0 0 1 -506.923 208.167C -503.6137680667031 204.9138172448045 -500.4696489204078 202.04199157451393 -497.53052453072945 199.51787018968335 C -496.4120356377264 198.55731969910818 -495.32332603602123 197.64722198277107 -494.2665345256597 196.7856605257053 A 3 3 0 0 0 -493.504 193.271A 530 530 0 0 1 -493.864 192.349A 3 3 0 0 0 -496.807 190.282C -498.16755041642557 190.36468523597398 -499.5848907384317 190.4333355217894 -501.0583215011297 190.48506980685048 C -504.9301639728962 190.62099926350282 -509.18839125630456 190.64019013313174 -513.8262119357782 190.49090722043442 A 548 548 0 0 1 -516.059 184.357C -512.6020897484472 181.26113060914355 -509.32776274723807 178.53869593117736 -506.27438556658166 176.1540515685924 C -505.1124179610631 175.24657929218893 -503.98254473025827 174.38811966446167 -502.8868131916733 173.57665873747644 A 3 3 0 0 0 -501.962 170.102A 530 530 0 0 1 -502.278 169.164A 3 3 0 0 0 -505.122 166.962C -506.48486683659405 166.98114066687575 -507.9038663128161 166.98377441110324 -509.37810846781144 166.96690084745734 C -513.252082325674 166.92254442786287 -517.50659128424 166.74359916214718 -522.1324442861668 166.37870185119365 A 548 548 0 0 1 -524.077 160.147C -520.480229448517 157.21587272727686 -517.0827860555611 154.6487252289238 -513.9217690189829 152.4087224972683 C -512.7188392640388 151.55629381791397 -511.5502494579554 150.75133151119095 -510.4179510016654 149.99172855796039 A 3 3 0 0 0 -509.332 146.563A 530 530 0 0 1 -509.605 145.612A 3 3 0 0 0 -512.342 143.28C -513.7052498177502 143.2359521299605 -515.1228352113011 143.17256362849656 -516.5946958783661 143.0871187605252 C -520.4624109575934 142.8625725308116 -524.7039872722943 142.48587868534975 -529.3078540291435 141.90615726246133 A 548 548 0 0 1 -530.961 135.591C -527.2311248706029 132.83012027344927 -523.7179231917567 130.42381982454597 -520.4561123582721 128.33331007093943 C -519.2148257318869 127.53777115933741 -518.0100502558266 126.78804954272843 -516.843637188151 126.08194969410306 A 3 3 0 0 0 -515.599 122.708A 530 530 0 0 1 -515.828 121.745A 3 3 0 0 0 -518.454 119.288C -519.81306161817 119.1805464160911 -521.2261627547512 119.05127295431473 -522.6924542114305 118.89744183657527 C -526.5455339024124 118.49319211387484 -530.7649912634522 117.91956552365507 -535.3369008250039 117.12627553634307 A 548 548 0 0 1 -536.694 110.741C -532.8401550784899 108.15668735732883 -529.2188039262803 105.91644546881972 -525.8632636518244 103.9799562718799 C -524.5863085044248 103.24303008816449 -523.347956633793 102.55017289174528 -522.1499551457028 101.89910540276499 A 3 3 0 0 0 -520.75 98.5866A 530 530 0 0 1 -520.933 97.614A 3 3 0 0 0 -523.442 95.0377C -524.7950740775635 94.86702217745683 -526.2006304947784 94.67214373290003 -527.6581770802861 94.45025952933884 C -531.4882764704046 93.8671818285338 -535.6764764727156 93.09786484101703 -540.2065271009188 92.09272437874652 A 548 548 0 0 1 -541.265 85.6512C -537.2951721617503 83.24901114040439 -533.5735145763815 81.17967967736953 -530.1315122139865 79.40140504148533 C -528.8216541460733 78.72468760367389 -527.5524078752693 78.0901954018485 -526.3254125712203 77.49557033971664 A 3 3 0 0 0 -524.773 74.2518A 530 530 0 0 1 -524.911 73.2717A 3 3 0 0 0 -527.297 70.5814C -528.6404972663235 70.34803709349475 -530.0354648419575 70.08797572947344 -531.4811098349518 69.79851899186696 C -535.2799337818029 69.03787612941922 -539.4278057167961 68.07453491389118 -543.9061863307284 66.85972088708172 A 548 548 0 0 1 -544.664 60.3759C -540.586527545412 58.16103610299399 -536.7726238084857 56.26709677658968 -533.251613968814 54.65088804864148 C -531.9116898412867 54.035844976014864 -530.6142980751011 53.461091937605616 -529.3609663536984 52.9241971277974 A 3 3 0 0 0 -527.659 49.7561A 530 530 0 0 1 -527.751 48.7707A 3 3 0 0 0 -530.01 45.9723C -531.3410028541105 45.676693826081475 -532.722360399022 45.35201277760044 -534.1529728543601 44.99561040478692 C -537.9122939511858 44.05904976375884 -542.010854451886 42.9037707027784 -546.4278658763701 41.48191412810083 A 548 548 0 0 1 -546.883 34.9698C -542.7070928866228 32.947097212512375 -538.8092030643647 31.232651873582803 -535.2168114706808 29.782009401782737 C -533.8497232608296 29.22997274068029 -532.5269958609283 28.716203652784056 -531.2500421595921 28.238201889903387 A 3 3 0 0 0 -529.403 25.1527A 530 530 0 0 1 -529.449 24.1641A 3 3 0 0 0 -531.575 21.2637C -532.890742147162 20.906425010992052 -534.2554979485056 20.517827464903284 -535.6679794781736 20.095251345059623 C -539.3796558725927 18.984801307249104 -543.4200283696107 17.640086478008204 -547.7661043414683 16.014266780188457 A 548 548 0 0 1 -547.918 9.48806C -543.6522755130552 7.661802246030605 -539.6788415668497 6.130564001412252 -536.0228485394024 4.84862955432946 C -534.6315570558703 4.360794893233232 -533.2863587552608 3.9091224652898102 -531.9885486713598 3.4910489947150687 A 3 3 0 0 0 -530 0.494865A 530 530 0 0 1 -530 -0.494865A 3 3 0 0 0 -531.989 -3.49105C -533.2863587552608 -3.909122465289917 -534.6315570558703 -4.360794893233338 -536.0228485394024 -4.848629554329569 C -539.6788415668497 -6.130564001412361 -543.6522755130552 -7.661802246030715 -547.9180033995027 -9.488063903559887 A 548 548 0 0 1 -547.766 -16.0143C -543.4200283696107 -17.640086478008314 -539.3796558725927 -18.984801307249214 -535.6679794781736 -20.09525134505973 C -534.2554979485056 -20.51782746490339 -532.890742147162 -20.90642501099216 -531.5748864483456 -21.263664735219074 A 3 3 0 0 0 -529.449 -24.1641A 530 530 0 0 1 -529.403 -25.1527A 3 3 0 0 0 -531.25 -28.2382C -532.5269958609283 -28.71620365278392 -533.8497232608296 -29.229972740680154 -535.2168114706808 -29.78200940178261 C -538.8092030643647 -31.232651873582668 -542.7070928866228 -32.94709721251224 -546.8832340709378 -34.96984555366719 A 548 548 0 0 1 -546.428 -41.4819C -542.010854451886 -42.90377070277827 -537.9122939511858 -44.05904976375871 -534.1529728543601 -44.995610404786795 C -532.722360399022 -45.35201277760031 -531.3410028541105 -45.67669382608135 -530.0099513908112 -45.97232610226685 A 3 3 0 0 0 -527.751 -48.7707A 530 530 0 0 1 -527.659 -49.7561A 3 3 0 0 0 -529.361 -52.9242C -530.6142980751011 -53.46109193760549 -531.9116898412867 -54.03584497601474 -533.251613968814 -54.650888048641356 C -536.7726238084857 -56.267096776589554 -540.586527545412 -58.16103610299386 -544.66403743572 -60.37589030528727 A 548 548 0 0 1 -543.906 -66.8597C -539.4278057167961 -68.07453491389106 -535.2799337818029 -69.03787612941909 -531.4811098349518 -69.79851899186684 C -530.0354648419575 -70.08797572947331 -528.6404972663235 -70.34803709349464 -527.2971327996165 -70.58142164795903 A 3 3 0 0 0 -524.911 -73.2717A 530 530 0 0 1 -524.773 -74.2518A 3 3 0 0 0 -526.325 -77.4956C -527.5524078752693 -78.09019540184839 -528.8216541460733 -78.72468760367377 -530.1315122139865 -79.40140504148522 C -533.5735145763815 -81.1796796773694 -537.2951721617503 -83.24901114040428 -541.265219779597 -85.65117432283118 A 548 548 0 0 1 -540.207 -92.0927C -535.6764764727156 -93.09786484101691 -531.4882764704046 -93.86718182853367 -527.6581770802861 -94.45025952933872 C -526.2006304947784 -94.67214373289991 -524.7950740775635 -94.86702217745672 -523.4423060357472 -95.03765355122442 A 3 3 0 0 0 -520.933 -97.614A 530 530 0 0 1 -520.75 -98.5866A 3 3 0 0 0 -522.15 -101.899C -523.3479566337929 -102.55017289174539 -524.5863085044248 -103.24303008816462 -525.8632636518242 -103.97995627188003 C -529.2188039262803 -105.91644546881984 -532.8401550784899 -108.15668735732895 -536.6941421847732 -110.74095696934285 A 548 548 0 0 1 -535.337 -117.126C -530.7649912634522 -117.91956552365518 -526.5455339024124 -118.49319211387497 -522.6924542114303 -118.8974418365754 C -521.2261627547512 -119.05127295431485 -519.8130616181699 -119.18054641609122 -518.4538197955925 -119.28805505960234 A 3 3 0 0 0 -515.828 -121.745A 530 530 0 0 1 -515.599 -122.708A 3 3 0 0 0 -516.844 -126.082C -518.0100502558265 -126.78804954272852 -519.2148257318869 -127.5377711593375 -520.456112358272 -128.33331007093952 C -523.7179231917565 -130.42381982454606 -527.2311248706028 -132.83012027344935 -530.9607045874451 -135.59089936252815 A 548 548 0 0 1 -529.308 -141.906C -524.7039872722942 -142.48587868534983 -520.4624109575933 -142.8625725308117 -516.594695878366 -143.08711876052527 C -515.1228352113011 -143.17256362849665 -513.7052498177501 -143.2359521299606 -512.3424780295271 -143.280105203433 A 3 3 0 0 0 -509.605 -145.612A 530 530 0 0 1 -509.332 -146.563A 3 3 0 0 0 -510.418 -149.992C -511.5502494579554 -150.75133151119084 -512.7188392640388 -151.55629381791385 -513.9217690189829 -152.40872249726817 C -517.0827860555611 -154.6487252289237 -520.480229448517 -157.21587272727675 -524.0773243367436 -160.1471820606756 A 548 548 0 0 1 -522.132 -166.379C -517.50659128424 -166.74359916214706 -513.252082325674 -166.92254442786276 -509.37810846781144 -166.96690084745723 C -507.9038663128161 -166.98377441110313 -506.48486683659405 -166.98114066687563 -505.121516542961 -166.96184254458407 A 3 3 0 0 0 -502.278 -169.164A 530 530 0 0 1 -501.962 -170.102A 3 3 0 0 0 -502.887 -173.577C -503.9825447302583 -174.38811966446156 -505.11241796106316 -175.2465792921888 -506.2743855665817 -176.15405156859228 C -509.3277627472381 -178.53869593117724 -512.6020897484473 -181.26113060914344 -516.0589093015205 -184.3566216235815 A 548 548 0 0 1 -513.826 -190.491C -509.18839125630467 -190.64019013313163 -504.93016397289625 -190.6209992635027 -501.05832150112974 -190.48506980685036 C -499.58489073843174 -190.43333552178927 -498.1675504164256 -190.36468523597387 -496.8065743305316 -190.28197771335394 A 3 3 0 0 0 -493.864 -192.349A 530 530 0 0 1 -493.504 -193.271A 3 3 0 0 0 -494.267 -196.786C -495.3233260360213 -197.64722198277093 -496.41203563772643 -198.55731969910806 -497.5305245307295 -199.51787018968324 C -500.46964892040785 -202.04199157451382 -503.61376806670313 -204.9138172448044 -506.92282558322563 -208.16678579603925 A 548 548 0 0 1 -504.407 -214.191C -499.7674025574765 -214.12389690348286 -495.5146793213122 -213.9066114616595 -491.65335378426494 -213.5906905216951 C -490.1839255367972 -213.47046043286844 -488.7713140125352 -213.33594228669733 -487.4156597055241 -213.190004489826 A 3 3 0 0 0 -484.38 -215.118A 530 530 0 0 1 -483.978 -216.022A 3 3 0 0 0 -484.576 -219.568C -485.5913473147268 -220.47826442976577 -486.6365353847656 -221.43802916571707 -487.70912316737275 -222.4495775319939 C -490.5276292771206 -225.10770925421443 -493.53473110655426 -228.12270618191724 -496.68885990479623 -231.52610706442832 A 548 548 0 0 1 -493.896 -237.426C -489.26402895143934 -237.1438589936186 -485.0260202140647 -236.72894957148335 -481.1835743830215 -236.23372136261452 C -479.72133110515995 -236.0452558616222 -478.3165077806475 -235.84516119144592 -476.96911129787526 -235.6363091890942 A 3 3 0 0 0 -473.847 -237.421A 530 530 0 0 1 -473.403 -238.306A 3 3 0 0 0 -473.836 -241.876C -474.8076858651968 -242.83180005145522 -475.8070887589489 -243.8391531703202 -476.8314524448637 -244.89950862378595 C -479.523236018064 -247.68589376199105 -482.38680781768596 -250.83753213513128 -485.37917675702266 -254.38399434046633 A 548 548 0 0 1 -482.314 -260.148C -477.70101840656343 -259.65022029166914 -473.4869027511964 -259.0385854906395 -469.6716585082026 -258.36512256689065 C -468.2197670932792 -258.1088298280409 -466.82577450301534 -257.8435919943586 -465.48955400522937 -257.57227811345695 A 3 3 0 0 0 -462.288 -259.21A 530 530 0 0 1 -461.803 -260.073A 3 3 0 0 0 -462.069 -263.659C -462.9956966968573 -264.6594160673017 -463.94714993019886 -265.7121758665393 -464.92107097577997 -266.81904191339856 C -467.4803022086115 -269.72764577784295 -470.19414211955564 -273.0090998495019 -473.01827039519617 -276.6909425302399 A 548 548 0 0 1 -469.689 -282.306C -465.10341382887214 -281.5942370307125 -460.9223180916353 -280.78720151557053 -457.1425384061541 -279.93696244766977 C -455.7041433276705 -279.61339754396437 -454.3240005491956 -279.28359099286143 -453.0018499924484 -278.9504028388606 A 3 3 0 0 0 -449.728 -280.437A 530 530 0 0 1 -449.203 -281.277A 3 3 0 0 0 -449.302 -284.872C -450.18096194798784 -285.9138387215242 -451.0824048850824 -287.0097251578347 -452.0037739942147 -288.16070457270365 C -454.42491016170936 -291.1852277750962 -456.9831406110383 -294.58939064645915 -459.63291179000635 -298.39863975121557 A 548 548 0 0 1 -456.046 -303.853C -451.49849882468317 -302.92838335692113 -447.3594783279094 -301.92769498688426 -443.62334936106924 -300.90252120332406 C -442.2015658624681 -300.5123849042939 -440.83826197771407 -300.1187239233196 -439.533044845699 -299.72438310756786 A 3 3 0 0 0 -436.193 -301.057A 530 530 0 0 1 -435.63 -301.871A 3 3 0 0 0 -435.562 -305.467C -436.3912354805071 -306.5490356675257 -437.2407157966835 -307.68567529491685 -438.10753748904455 -308.8782753126796 C -440.38533494939486 -312.0121674092559 -442.78241537961475 -315.5316664215724 -445.2520906475797 -319.4600719650186 A 548 548 0 0 1 -441.415 -324.741C -436.91573861039325 -323.60645425997706 -432.82775755081366 -322.4142803032246 -429.14337092600664 -321.21639210213726 C -427.7412782737472 -320.7605293561318 -426.39776589535205 -320.3038665273117 -425.11230899773517 -319.84922710420517 A 3 3 0 0 0 -421.714 -321.025A 530 530 0 0 1 -421.114 -321.812A 3 3 0 0 0 -420.878 -325.401C -421.6563827712882 -326.520315663706 -422.4520606813414 -327.69524677384845 -423.2624576141668 -328.92688448843114 C -425.3919831652869 -332.16335816675576 -427.62272203396054 -335.79057086887696 -429.90695262423213 -339.8296247993716 A 548 548 0 0 1 -425.828 -344.927C -421.3867161973806 -343.58366564283625 -417.35862823167076 -342.20258808268864 -413.73396350989776 -340.83457982317566 C -412.35459832445105 -340.31397792739244 -411.033787201057 -339.7953022807254 -409.77087455123683 -339.28134889801686 A 3 3 0 0 0 -406.321 -340.298A 530 530 0 0 1 -405.685 -341.056A 3 3 0 0 0 -405.283 -344.63C -406.0083162301856 -345.7844253647393 -406.74846847294157 -346.9951033184786 -407.5006855069317 -348.263111276849 C -409.47732707067433 -351.5951570556231 -411.53689309414654 -355.3222277125331 -413.6307318719119 -359.4631823386673 A 548 548 0 0 1 -409.319 -364.365C -404.94506399023487 -362.81675131411004 -400.98559305996565 -361.24976125702824 -397.42850045788447 -359.7145957403556 C -396.07485013708913 -359.13038220257494 -394.7796008514751 -358.55081707401445 -393.5419676370294 -357.97866284028527 A 3 3 0 0 0 -390.049 -358.834A 530 530 0 0 1 -389.378 -359.562A 3 3 0 0 0 -388.81 -363.113C -389.4809260848623 -364.29964299868783 -390.16394965537813 -365.5434457371664 -390.85635765593884 -366.84507771644286 C -392.67583426682955 -370.26547912647976 -394.5597668837116 -374.08433573306877 -396.45867906042804 -378.31822266921796 A 548 548 0 0 1 -391.924 -383.014C -387.62639094645823 -381.2640566930007 -383.7441123839813 -379.51454789051576 -380.26229577208517 -377.8155499433465 C -378.9372920211092 -377.16899004000015 -377.67040979480555 -376.52979063855895 -376.46073645368443 -375.90067471247363 A 3 3 0 0 0 -372.932 -376.592A 530 530 0 0 1 -372.228 -377.288A 3 3 0 0 0 -371.495 -380.809C -372.11000698210245 -382.02586872707064 -372.7344226034181 -383.30010245052324 -373.3655219690035 -384.6325394056822 C -375.0238930458589 -388.13388861917275 -376.7281120776112 -392.0362603824026 -378.427985032348 -396.3539099722525 A 548 548 0 0 1 -373.68 -400.834C -369.4682054553924 -398.88562902384945 -365.67152741157986 -396.95739052245193 -362.27252762932943 -395.09823979601185 C -360.97904011124956 -394.39073383187645 -359.7432687290529 -393.69328452112285 -358.5641751443466 -393.00856942768775 A 3 3 0 0 0 -355.007 -393.535A 530 530 0 0 1 -354.271 -394.198A 3 3 0 0 0 -353.375 -397.681C -353.9331804645777 -398.9247114921837 -354.4976357915005 -400.226616494108 -355.066059701416 -401.5869726634078 C -356.5597335817648 -405.1616865376255 -358.08054806945495 -409.13912178922567 -359.57770025591486 -413.5311829652062 A 548 548 0 0 1 -354.626 -417.785C -350.50983410340007 -415.64330390490727 -346.8069793374616 -413.5405118398168 -343.49815786150606 -411.52523484058906 C -342.23898798225645 -410.75831511603764 -341.0370038498026 -410.0041264158729 -339.89104367565864 -409.26529509550994 A 3 3 0 0 0 -336.313 -409.626A 530 530 0 0 1 -335.548 -410.253A 3 3 0 0 0 -334.491 -413.691C -334.9898134909627 -414.95957216358244 -335.4930860389457 -416.2863288076486 -335.9976034135774 -417.67165796254653 C -337.32334513240164 -421.3119944632468 -338.65746133049987 -425.35587896414586 -339.9486502504285 -429.81283949976097 A 548 548 0 0 1 -334.805 -433.832C -330.79233650123496 -431.50078794393164 -327.19132457205296 -429.22799649451775 -323.97984757291056 -427.0609578637267 C -322.75772241406145 -426.23628535610715 -321.59212876132705 -425.4269906713153 -320.4817838923035 -424.6356432681437 A 3 3 0 0 0 -316.891 -424.83A 530 530 0 0 1 -316.097 -425.421A 3 3 0 0 0 -314.881 -428.805C -315.32093317586964 -430.0957228036476 -315.7619329686412 -431.44445763040284 -316.20145113570015 -432.8517594564305 C -317.3563894316492 -436.549834425372 -318.50091794154736 -440.65141002222134 -319.5833471672622 -445.16361713341377 A 548 548 0 0 1 -314.258 -448.939C -310.35841635806986 -446.42373736159135 -306.86704625562015 -443.9858688880349 -303.75986907734887 -441.67176194880517 C -302.577435489855 -440.7911227151333 -301.450756733141 -439.9284747977903 -300.37843192897594 -439.08632519407035 A 3 3 0 0 0 -296.782 -439.113A 530 530 0 0 1 -295.962 -439.666A 3 3 0 0 0 -294.59 -442.991C -294.9691379342523 -444.3003818805667 -295.3469098644618 -445.66817383070855 -295.72047692546874 -447.0944004254845 C -296.7021104593716 -450.842204655761 -297.65457248717775 -454.9925882491446 -298.525897718008 -459.5502695000764 A 548 548 0 0 1 -293.03 -463.074C -289.25232899476924 -460.3798323724465 -285.87816224924575 -457.78216675500386 -282.88201434571664 -455.32600334766727 C -281.74183321742777 -454.39130465642523 -280.6565094920357 -453.477171809828 -279.6245271694727 -452.586043914074 A 3 3 0 0 0 -276.031 -452.445A 530 530 0 0 1 -275.186 -452.96A 3 3 0 0 0 -273.661 -456.217C -273.97850522272694 -457.54278526583016 -274.29223112049465 -458.92667200657047 -274.5990380123802 -460.36873448087835 C -275.4052407845899 -464.15815106307707 -276.16357350964296 -468.3483538463268 -276.821907649163 -472.94163831429955 A 548 548 0 0 1 -271.169 -476.206C -267.51978549672134 -473.33884718240523 -264.2701298019453 -470.5870103863633 -261.3915001623441 -467.99411001392895 C -260.29604087169196 -467.00737621434587 -259.25442274713424 -466.0437382466838 -258.2650179500853 -465.1055620434843 A 3 3 0 0 0 -254.682 -464.798A 530 530 0 0 1 -253.814 -465.273A 3 3 0 0 0 -252.139 -468.455C -252.39449607761375 -469.7942528624853 -252.64349648250467 -471.19123720330344 -252.88287872985998 -472.6460123709382 C -253.51190468469463 -476.4688342725582 -254.07446572717558 -480.68978119950754 -254.51838297023497 -485.30872085318254 A 548 548 0 0 1 -248.719 -488.306C -245.20785371380347 -485.2727154510648 -242.08974710038615 -482.3726673421529 -239.33487019550736 -479.64864564944804 C -238.28650526338188 -478.6120137872109 -237.29084865257195 -477.60095772374194 -236.34616421150966 -476.6177650938427 A 3 3 0 0 0 -232.781 -476.144A 530 530 0 0 1 -231.892 -476.578A 3 3 0 0 0 -230.071 -479.679C -230.26385665645802 -481.0282507198382 -230.44759228904192 -482.43530710372835 -230.61903144322406 -483.8996442456218 C -231.06951825053517 -487.7475920856789 -231.43508922849537 -491.9901415251921 -231.66362814919583 -496.6247327698114 A 548 548 0 0 1 -225.731 -499.349C -222.36485632190283 -496.1555910771536 -219.38505191443807 -493.1136125138015 -216.75989419420983 -490.2643691252354 C -215.76089414560718 -489.1800843141238 -214.81335541905412 -488.12379987714235 -213.9154373101183 -487.0977201968453 A 3 3 0 0 0 -210.377 -486.458A 530 530 0 0 1 -209.468 -486.85A 3 3 0 0 0 -207.504 -489.863C -207.634516996261 -491.2204485000831 -207.7525899260713 -492.6345295562369 -207.8557146880479 -494.1052572442141 C -208.12668669372397 -497.9699972245363 -208.29447586182943 -502.22496075924573 -208.30714149575908 -506.8651661021906 A 548 548 0 0 1 -202.255 -509.311C -199.0402661667594 -505.96390417543205 -196.2052175580597 -502.7865834058291 -193.7154645295417 -499.8182891481203 C -192.7679929761127 -498.68869970758965 -191.87062429170314 -497.58947457397596 -191.02141720557202 -496.5227301033842 A 3 3 0 0 0 -187.516 -495.719A 530 530 0 0 1 -186.59 -496.069A 3 3 0 0 0 -184.489 -498.987C -184.55548720769113 -500.3487721723969 -184.60764171505403 -501.7668153161301 -184.64222873955413 -503.2407482815162 C -184.7330990785701 -507.1139102358951 -184.70274304284553 -511.37207256226725 -184.49950795906165 -516.0078423520321 A 548 548 0 0 1 -178.34 -518.169C -175.2845991167974 -514.6764121238157 -172.60044639084896 -511.3706305172325 -170.2514903046901 -508.2897140547723 C -169.35759925883937 -507.1172664240171 -168.51234411732028 -505.9774812706384 -167.7136872474435 -504.8723823407357 A 3 3 0 0 0 -164.25 -503.907A 530 530 0 0 1 -163.308 -504.213A 3 3 0 0 0 -161.073 -507.03C -161.0767513301011 -508.3934518203732 -161.0628744599673 -509.8123858860022 -161.02884883919762 -511.28633191820506 C -160.93942070663385 -515.1595274403118 -160.71098521149304 -519.4116663269428 -160.29228957193132 -524.0329605184426 A 548 548 0 0 1 -154.039 -525.905C -151.1493046570062 -522.2742455701637 -148.62186109091417 -518.8471627134385 -146.41878926293845 -515.660296625235 C -145.5804146936223 -514.4475300647464 -144.7891037294113 -513.2696534124408 -144.0427267887264 -512.1285934214293 A 3 3 0 0 0 -140.627 -511.003A 530 530 0 0 1 -139.673 -511.265A 3 3 0 0 0 -137.309 -513.975C -137.24915907722536 -515.3370644592603 -137.16928088380544 -516.7538163515629 -137.0667163096838 -518.224583211691 C -136.7971833869619 -522.0894238224962 -136.37116317281996 -526.3263300834116 -135.7379137790018 -530.9231399824835 A 548 548 0 0 1 -129.404 -532.502C -126.68665446080857 -528.7409492990947 -124.32139393453352 -525.1999874905623 -122.26897772774677 -521.9140738189208 C -121.4879353675955 -520.6636149110135 -120.75228238403433 -519.4501977783239 -120.05980185879386 -518.2756480080561 A 3 3 0 0 0 -116.7 -516.992A 530 530 0 0 1 -115.735 -517.209A 3 3 0 0 0 -113.248 -519.807C -113.12431570802599 -521.1645717702654 -112.97860918969992 -522.5760731201211 -112.80772779425513 -524.0404754546612 C -112.35867382966687 -527.8885907700135 -111.73599156144272 -532.1010882097136 -110.88955989054497 -536.6634581497203 A 548 548 0 0 1 -104.489 -537.946C -101.94962918125918 -534.0625178703182 -99.75167432241172 -530.4153460447649 -97.85435881329192 -527.0375013470007 C -97.13234022613743 -525.7520583072206 -96.4539384837754 -524.5057286854562 -95.81685413259753 -523.3002329491894 A 3 3 0 0 0 -92.5208 -521.862A 530 530 0 0 1 -91.5461 -522.034A 3 3 0 0 0 -88.9408 -524.513C -88.75447026119234 -525.8633526702051 -88.54325098583331 -527.2665464799989 -88.3044228601165 -528.7214127195832 C -87.6768204045552 -532.5444685785964 -86.85882467338475 -536.7234338656533 -85.8010439079257 -541.2414827692401 A 548 548 0 0 1 -79.3476 -542.225C -76.99180370674627 -538.2274259512999 -74.96591479611658 -534.4819430707586 -73.22780914756784 -531.0194830063183 C -72.56637806489292 -529.701839818051 -71.94669683083951 -528.4252969796437 -71.36638843656479 -527.1914661127062 A 3 3 0 0 0 -68.1409 -525.601A 530 530 0 0 1 -67.1592 -525.728A 3 3 0 0 0 -64.4414 -528.083C -64.192402395356 -529.4232306459606 -63.916127816880724 -530.8150779103598 -63.60987020943068 -532.2572571386787 C -62.8050785100624 -536.0469736536689 -61.7935409125505 -540.1833560798307 -60.526701970124634 -544.6472988591381 A 548 548 0 0 1 -54.0345 -545.33C -51.86723112971168 -541.2266532785661 -50.01779579156121 -537.390971224923 -48.44266435338206 -533.8513947112957 C -47.84325328762629 -532.5044050962783 -47.28363465344567 -531.2004137487592 -46.76135903483474 -529.940919954063 A 3 3 0 0 0 -43.6133 -528.202A 530 530 0 0 1 -42.6269 -528.283A 3 3 0 0 0 -39.8024 -530.509C -39.49130808010652 -531.8364957945397 -39.15057654773199 -533.2139820823019 -38.77755274432991 -534.6403508602871 C -37.79731480076685 -538.3885203491657 -36.594426102103505 -542.4733614311747 -35.12127267376415 -546.8735301801602 A 548 548 0 0 1 -28.6043 -547.253C -26.630325679692614 -543.053704193585 -24.961349379136998 -539.1361302000496 -23.552603535276898 -535.5271031717818 C -23.01651067733361 -534.1536844095764 -22.51816665237318 -532.8250687078352 -22.05505494211717 -531.5426397684794 A 3 3 0 0 0 -18.9913 -529.66A 530 530 0 0 1 -18.0022 -529.694A 3 3 0 0 0 -15.0772 -531.786C -14.704684385363016 -533.0979215210093 -14.300233847715248 -534.4580635035697 -13.86125173485545 -535.8655326340677 C -12.707690524206878 -539.5640373963532 -11.31605591345768 -543.588490278026 -9.639778521493174 -547.9153552109962 A 548 548 0 0 1 -3.11225 -547.991C -1.3357448742131803 -543.7046217109169 0.14915775772328432 -539.7136403704056 1.3884669774619012 -536.0429791763927 C 1.860080569837975 -534.6461057862095 2.2960706833899245 -533.2957432160042 2.6990154884509465 -531.9931565875038 A 3 3 0 0 0 5.67186 -529.97A 530 530 0 0 1 6.66152 -529.958A 3 3 0 0 0 9.68064 -531.912C 10.113786381363463 -533.2047758581365 10.58107997448177 -534.5446277708334 11.085069659294074 -535.9301489891185 C 12.4094557803175 -539.5709788870679 13.986822332470759 -543.5263274996162 15.862593244497928 -547.7705175906194 A 548 548 0 0 1 22.3866 -547.543C 23.961728857224074 -543.1779960881636 25.25934185209435 -539.12225097756 26.32653037990725 -535.3979054525765 C 26.732643296692547 -533.980602751127 27.105335241335055 -532.6114178970896 27.44724045247989 -531.2914946920259 A 3 3 0 0 0 30.3227 -529.132A 530 530 0 0 1 31.3108 -529.074A 3 3 0 0 0 34.4175 -530.886C 34.91035293889554 -532.1568273832208 35.43947753361726 -533.4734874051655 36.0073832609517 -534.8340599808029 C 37.49972596692223 -538.4093297875863 39.259408235770906 -542.2870077266808 41.33061016575642 -546.4393310050638 A 548 548 0 0 1 47.8369 -545.908C 49.20730681968317 -541.4749678791567 50.31481983668901 -537.3632428392491 51.20757637986334 -533.5932790863754 C 51.54730907091213 -532.1586166357104 51.855895678883044 -530.7735748473488 52.13602080555879 -529.4391737254674 A 3 3 0 0 0 54.9079 -527.148A 530 530 0 0 1 55.8922 -527.045A 3 3 0 0 0 59.0799 -528.709C 59.63131144569681 -529.9563457193051 60.22112107597367 -531.2469622580802 60.8517128884844 -532.5796394938391 C 62.50878009741139 -536.0816059711858 64.44696700300202 -539.8732150498801 66.70911418877466 -543.9246785080489 A 548 548 0 0 1 73.1837 -543.091C 74.3463127129092 -538.5992254637714 75.26132712547347 -534.4404255754093 75.97771817213311 -530.6330084966503 C 76.25033485208725 -529.1840934561712 76.49414779350886 -527.7861944255819 76.7118861470686 -526.4402054025722 A 3 3 0 0 0 79.3742 -524.023A 530 530 0 0 1 80.3526 -523.874A 3 3 0 0 0 83.6143 -525.388C 84.22312181043071 -526.6080966196766 84.8723390799406 -527.8698744872497 85.56425125618006 -529.1717701009942 C 87.38245412947978 -532.5928487693217 89.49494799056458 -536.2901772066558 91.94314112504826 -540.2320062769281 A 548 548 0 0 1 98.3719 -539.098C 99.32430104801608 -534.5569970597179 100.04483513867393 -530.3601293573903 100.58330914533565 -526.5235049703136 C 100.78821938717185 -525.0634753673583 100.9667306175046 -523.6557466325617 101.1216106251598 -522.3010848209267 A 3 3 0 0 0 103.669 -519.762A 530 530 0 0 1 104.639 -519.568A 3 3 0 0 0 107.968 -520.929C 108.6325236478799 -522.1193316463068 109.33974249658284 -523.3495381127857 110.09147650885026 -524.6178324885186 C 112.06687722397123 -527.9506140532271 114.349102849251 -531.545654259116 116.97803969127278 -535.3693118174804 A 548 548 0 0 1 123.347 -533.938C 124.08717506429572 -529.3570372336076 124.61166831665315 -525.1311911982116 124.97105906852434 -521.2736687769118 C 125.10781908228758 -519.8056867104849 125.22064198595686 -518.3911770984516 125.31232821209923 -517.0307763940233 A 3 3 0 0 0 127.738 -514.376A 530 530 0 0 1 128.699 -514.137A 3 3 0 0 0 132.087 -515.342C 132.80665162907758 -516.4997724645832 133.5703403784287 -517.6957431767 134.3802681382474 -518.9276894712237 C 136.50858841711704 -522.164955869578 138.9556030140867 -525.6499217874683 141.75958987185072 -529.3471266430943 A 548 548 0 0 1 148.055 -527.621C 148.58130389075205 -523.0106079405122 148.9086203692171 -518.7649358135615 149.08814950595723 -514.8948698926214 C 149.156463099911 -513.422114684993 149.20335332763062 -512.0038877085638 149.23164720031073 -510.64069443633775 A 3 3 0 0 0 151.532 -507.876A 530 530 0 0 1 152.48 -507.592A 3 3 0 0 0 155.92 -508.638C 156.6931499758395 -509.76158978834644 157.51165464606365 -510.9207345398543 158.37802203025822 -512.1136646318209 C 160.65465240508058 -515.2484046656671 163.26115628501708 -518.6157486354028 166.23412034737288 -522.1784934658556 A 548 548 0 0 1 172.443 -520.161C 172.75363869862684 -515.5314541330766 172.883069508593 -511.2751510949845 172.88234821006895 -507.40092337541387 C 172.88206743218066 -505.92658468641486 172.86292343015867 -504.5077119094142 172.8277636711487 -503.1446784424664 A 3 3 0 0 0 174.997 -500.276A 530 530 0 0 1 175.93 -499.948A 3 3 0 0 0 179.416 -500.833C 180.24028585172246 -501.91937702083465 181.11183374396614 -503.03918536231663 182.03276439370254 -504.19051563078506 C 184.45277419003907 -507.21594015124435 187.21312224594706 -510.4583692556174 190.34862473474652 -513.8789379489357 A 548 548 0 0 1 196.457 -511.575C 196.55182759335136 -506.9357739930115 196.48309241650549 -502.6780582483775 196.30212224488926 -498.80805944471535 C 196.23324770326127 -497.33533036364474 196.14811093314316 -495.91888474855716 196.0495736906518 -494.55896311386067 A 3 3 0 0 0 198.083 -491.593A 530 530 0 0 1 199 -491.222A 3 3 0 0 0 202.523 -491.943C 203.3970614038251 -492.9901186486215 204.31976493942744 -494.0681653245656 205.2932643239884 -495.1754022445492 C 207.85141233950097 -498.084958855803 210.7596262721575 -501.19545071538766 214.05087638721426 -504.46643508146406 A 548 548 0 0 1 220.045 -501.881C 219.92432899708916 -497.2421838494399 219.65757669851857 -492.9922766624713 219.29674959490399 -489.1348883303665 C 219.15943045645668 -487.66695846047094 219.00848530552855 -486.25600771308876 218.8467839892811 -484.902143198081 A 3 3 0 0 0 220.74 -481.844A 530 530 0 0 1 221.639 -481.431A 3 3 0 0 0 225.192 -481.988C 226.11332421278493 -482.99315345700023 227.0851850213527 -484.0271036583625 228.10914475784725 -485.0878492012489 C 230.79989061357506 -487.8752364515687 233.84967187919446 -490.84705443363237 237.28954150564522 -493.9613702487029 A 548 548 0 0 1 243.157 -491.1C 242.8205232763203 -486.47167786007253 242.3563315821041 -482.2387835833794 241.81642901764965 -478.40235996700744 C 241.61096268505906 -476.94240851751084 241.39453606690577 -475.54000844296655 241.17002088594606 -474.19513321671246 A 3 3 0 0 0 242.919 -471.053A 530 530 0 0 1 243.798 -470.598A 3 3 0 0 0 247.373 -470.989C 248.33987591174719 -471.95013264648134 249.35878915918013 -472.9377470673627 250.43099157883145 -473.9497038945097 C 253.24850771841827 -476.60888492379837 256.4332511698956 -479.4355927323475 260.0142903161094 -482.38649508184346 A 548 548 0 0 1 265.742 -479.255C 265.1908223726921 -474.64758254253803 264.5301966186751 -470.4408686825554 263.81238790211154 -466.6337186211858 C 263.5392193697014 -465.18490752183004 263.25778001618465 -463.79409540640285 262.97093722040023 -462.4611221691697 A 3 3 0 0 0 264.571 -459.241A 530 530 0 0 1 265.428 -458.746A 3 3 0 0 0 269.018 -458.97C 270.0285787390758 -459.88497294111284 271.09233768616855 -460.82411262859665 272.21046063729045 -461.7850890668562 C 275.1486449481742 -464.31030468114295 278.4614531403627 -466.98578029650724 282.1759060729642 -469.7668781830379 A 548 548 0 0 1 287.752 -466.372C 286.9867771997148 -461.79550625433916 286.131148154174 -457.6240836165491 285.2369878993418 -453.85445254944995 C 284.8967087893251 -452.4199196024593 284.55086623541445 -451.04370763548917 284.2023170624277 -449.7255233104862 A 3 3 0 0 0 285.651 -446.434A 530 530 0 0 1 286.484 -445.9A 3 3 0 0 0 290.08 -445.957C 291.1324597940227 -446.8238047901826 292.2387605757705 -447.7124357768306 293.4003824530312 -448.6203505652247 C 296.4528714822607 -451.0061317097967 299.8865696103026 -453.5245806475602 303.7263916513631 -456.12985083238993 A 548 548 0 0 1 309.138 -452.479C 308.16118257269164 -447.94328373085403 307.11240333761083 -443.81618668780993 306.043828096513 -440.0922387964621 C 305.6371753776695 -438.6750908807621 305.2276786413256 -437.3164596309188 304.81817797103133 -436.0159191118646 A 3 3 0 0 0 306.112 -432.661A 530 530 0 0 1 306.92 -432.088A 3 3 0 0 0 310.514 -431.978C 311.60581276957225 -432.7949157754832 312.75225938482976 -433.63111348445614 313.95486437390963 -434.4840002817251 C 317.1150471099668 -436.72517988588174 320.6621985483224 -439.08114774644605 324.61907349834127 -441.50494779448843 A 548 548 0 0 1 329.855 -437.607C 328.6681794446383 -433.1209158014966 327.42852144230153 -429.0470827263839 326.1878455109631 -425.37688325268243 C 325.7156999025297 -423.98018959509227 325.2434358624979 -422.6420815551269 324.7738705821615 -421.36200152318514 A 3 3 0 0 0 325.91 -417.95A 530 530 0 0 1 326.69 -417.341A 3 3 0 0 0 330.276 -417.063C 331.4042969421262 -417.82868934670876 332.5884064428121 -418.6106427599709 333.8293899690973 -419.4066544032301 C 337.09042215987597 -421.49837857100806 340.7433445683991 -423.6867628526072 344.80870271733977 -425.92384335268275 A 548 548 0 0 1 349.858 -421.786C 348.4633542267687 -417.3605044146004 347.03550228036556 -413.34875832271064 345.6254126865838 -409.7402561014463 C 345.08879675081226 -408.3670416294167 344.55478822584104 -407.0523548433779 344.02617530929837 -405.7955076668533 A 3 3 0 0 0 345.003 -402.335A 530 530 0 0 1 345.754 -401.69A 3 3 0 0 0 349.322 -401.246C 350.485033203634 -401.95753901766903 351.7042410722438 -402.6835545982505 352.98091544175503 -403.4209671035341 C 356.33573441768704 -405.358705626165 360.08651637986276 -407.37476677574796 364.25155306723656 -409.4202827096401 A 548 548 0 0 1 369.103 -405.052C 367.5038349784349 -400.69618311174804 365.8908814973315 -396.75521255179234 364.314432181172 -393.21622279524587 C 363.71450810868726 -391.8694615855398 363.11991164233007 -390.5810433722556 362.5333959474484 -389.3501511022617 A 3 3 0 0 0 363.348 -385.847A 530 530 0 0 1 364.068 -385.168A 3 3 0 0 0 367.612 -384.559C 368.80669692819606 -385.21583816583535 370.0583626319759 -385.8843435256556 371.36796285231486 -386.56155982168195 C 374.80930282253956 -388.34111598901563 378.64982097985086 -390.18048766706295 382.9055156636511 -392.0300089027483 A 548 548 0 0 1 387.548 -387.441C 385.74838425820764 -383.16404310211874 383.95382254047644 -379.3023833387665 382.21442774011877 -375.84057071069867 C 381.5524948328725 -374.52317954820364 380.8985981886726 -373.2638203346227 380.2554499778434 -372.06154880972474 A 3 3 0 0 0 380.906 -368.525A 530 530 0 0 1 381.594 -367.813A 3 3 0 0 0 385.106 -367.039C 386.3296074719986 -367.63984558726065 387.61102018175137 -368.249392892571 388.9507099504587 -368.8649462796435 C 392.47111773890794 -370.48246596928783 396.39305438422133 -372.14116450633077 400.7301901774084 -373.7906853926587 A 548 548 0 0 1 405.154 -368.991C 403.15748843498903 -364.8020550969688 401.1852051017028 -361.02806962536425 399.2866319589613 -357.65093164106133 C 398.56412381623335 -356.36576370168245 397.8523431887142 -355.1381909794311 397.1539553777479 -353.96714405203375 A 3 3 0 0 0 397.639 -350.404A 530 530 0 0 1 398.293 -349.661A 3 3 0 0 0 401.765 -348.724C 403.01581411275345 -349.26762696810016 404.324198573891 -349.81689607516955 405.6910764212458 -350.3694534017215 C 409.2829276085639 -351.8214334262131 413.2777887004309 -353.2958664505745 417.6869723326574 -354.74181449261573 A 548 548 0 0 1 421.883 -349.741C 419.69344326573975 -345.64998707352424 417.5477098434162 -341.9718495058191 415.49407024494934 -338.6867002941439 C 414.7125516584909 -337.4365389654605 413.94442860599463 -336.24341138370283 413.19231374737467 -335.10612528068543 A 3 3 0 0 0 413.511 -331.524A 530 530 0 0 1 414.13 -330.751A 3 3 0 0 0 417.555 -329.655C 418.8291782425125 -330.13897244281094 420.1617007856392 -330.62677375706306 421.55280635859646 -331.1151383069669 C 425.2083217949345 -332.3984340008955 429.26745535379405 -333.685408218967 433.73913751513646 -334.9246518152418 A 548 548 0 0 1 437.698 -329.734C 435.32043555447456 -325.74931814639723 433.0058992239009 -322.17499450952624 430.8016408957806 -318.9889489721439 C 429.9628044608235 -317.7765018252117 429.14000256683846 -316.6204034326077 428.33578957387 -315.519341262422 A 3 3 0 0 0 428.488 -311.926A 530 530 0 0 1 429.07 -311.126A 3 3 0 0 0 432.44 -309.871C 433.73545163584345 -310.2953104175831 435.08922631385315 -310.7205874699934 436.50154678750914 -311.1437015543816 C 440.2128094404313 -312.25553358503475 444.3274242868708 -313.3522616972395 448.8519203095087 -314.3821169220696 A 548 548 0 0 1 452.565 -309.013C 450.0046207156682 -305.14314873306233 447.5262942471422 -301.6803802161031 445.17619112206944 -298.60033861818846 C 444.28185357154234 -297.4282315435435 443.4061548417517 -296.311666191775 442.5515854606977 -295.2492126099003 A 3 3 0 0 0 442.536 -291.653A 530 530 0 0 1 443.08 -290.826A 3 3 0 0 0 446.388 -289.416C 447.7023506238619 -289.77961784563445 449.0744454622565 -290.141449580807 450.5049220649566 -290.49839682879053 C 454.26389416596976 -291.4363572155691 458.4250789604621 -292.3404639530324 462.9925897935119 -293.15870036932586 A 548 548 0 0 1 466.452 -287.623C 463.7141960740928 -283.8761072079472 461.077446970879 -280.5323933964284 458.58658884890866 -277.5650264222279 C 457.6386871187976 -276.4357979427926 456.711988121652 -275.3611838637779 455.80891315949884 -274.33963990808854 A 3 3 0 0 0 455.626 -270.748A 530 530 0 0 1 456.131 -269.897A 3 3 0 0 0 459.37 -268.334C 460.6996260134674 -268.6363271487024 462.087069360361 -268.9339299196703 463.53260399831805 -269.22393726299407 C 467.3311444508883 -269.98599459256263 471.52988699376886 -270.6955218614149 476.1305204258461 -271.3003673512965 A 548 548 0 0 1 479.329 -265.609C 476.41946974232985 -261.99425324731345 473.6300086158422 -258.7768358807825 471.0037901410096 -255.92857018639782 C 470.00437717538586 -254.84466595960532 469.02868493455867 -253.81433052814788 468.0790602505803 -252.83590863537748 A 3 3 0 0 0 467.73 -249.257A 530 530 0 0 1 468.194 -248.383A 3 3 0 0 0 471.357 -246.671C 472.6991286003607 -246.91122998631116 474.0989155624157 -247.14395925174185 475.5563775294914 -247.36639859907822 C 479.3862595408461 -247.95090242495357 483.6134662907306 -248.46431354712587 488.23725837427685 -248.8544581499498 A 548 548 0 0 1 491.167 -243.021C 488.09292492678634 -239.54497807425366 485.15679312867593 -236.4608253622815 482.40090210539887 -233.73782965696316 C 481.35214241019975 -232.7015971780081 480.3295700578203 -231.71777187122026 479.33545232762265 -230.78459108531646 A 3 3 0 0 0 478.82 -227.226A 530 530 0 0 1 479.243 -226.331A 3 3 0 0 0 482.323 -224.474C 483.6748701339529 -224.6513780812333 485.08396908430984 -224.81872980136131 486.55020184242676 -224.97311939861606 C 490.4031307409562 -225.37880381566697 494.6496465093265 -225.69498685699358 499.28658314030105 -225.8695856064263 A 548 548 0 0 1 501.942 -219.906C 498.70927952294386 -216.57690181985345 495.6328360608762 -213.63269335044419 492.7532411354374 -211.04086503654133 C 491.657406090628 -210.0545485542279 490.59016829070816 -209.1193641186489 489.55371055192757 -208.23344550139603 A 3 3 0 0 0 488.873 -204.702A 530 530 0 0 1 489.255 -203.789A 3 3 0 0 0 492.244 -201.791C 493.6030796021275 -201.9049813159378 495.01843874623404 -202.00659304420273 496.4902667617344 -202.0925985178872 C 500.35789796140324 -202.318584904003 504.61452574070654 -202.4368550824231 509.2545643469061 -202.3955298364525 A 548 548 0 0 1 511.629 -196.315C 508.2455408707651 -193.13976822281722 505.0354486362257 -190.3418804959079 502.03838637001405 -187.88683289640773 C 500.89784931028413 -186.9525685526066 499.7882574622491 -186.06805038947982 498.71170445155246 -185.2313126433291 A 3 3 0 0 0 497.868 -181.736A 530 530 0 0 1 498.206 -180.806A 3 3 0 0 0 501.1 -178.67C 502.4622547139613 -178.721303320717 503.8808086990792 -178.75695498874205 505.35504432022384 -178.7743900701517 C 509.2290013930862 -178.82018898914194 513.486522275406 -178.7402901577852 518.1196135664396 -178.48313041769185 A 548 548 0 0 1 520.209 -172.299C 516.6810555516778 -169.28433689560362 513.3442668896326 -166.63882951298532 510.2362282521398 -164.32587971430564 C 509.0534593267893 -163.4456909175463 507.9039165595013 -162.6137546962511 506.7895998509861 -161.8280100088384 A 3 3 0 0 0 505.784 -158.375A 530 530 0 0 1 506.079 -157.431A 3 3 0 0 0 508.87 -155.163C 510.23320846889663 -155.15055477963597 511.6518850229736 -155.12016917384696 513.1253353836855 -155.06899610247788 C 516.9972282013631 -154.9345083640824 521.2464213445202 -154.65661356602587 525.8625310763347 -154.18417628254326 A 548 548 0 0 1 527.662 -147.909C 523.9975541192781 -145.0622733904107 520.5412957709433 -142.57487593198047 517.329012081769 -140.40903326834436 C 516.1065729049146 -139.5848263115627 514.9195688720309 -138.80727382070137 513.7699018275551 -138.0742239400523 A 3 3 0 0 0 512.605 -134.672A 530 530 0 0 1 512.855 -133.715A 3 3 0 0 0 515.538 -131.32C 516.8991107115136 -131.2437846853704 518.3148372970402 -131.1474276142233 519.7843112319417 -131.02775721955294 C 523.6457541367729 -130.71327409426587 527.8774167346171 -130.2379851877613 532.4665474414351 -129.5512935548445 A 548 548 0 0 1 533.972 -123.199C 530.1791906668852 -120.52603730309359 526.6109481182134 -118.20213691786003 523.3013764685268 -116.18809212219345 C 522.0419145712167 -115.4216520541259 520.8200200591538 -114.70016729925054 519.6374926015311 -114.02139984817322 A 3 3 0 0 0 518.315 -110.677A 530 530 0 0 1 518.521 -109.709A 3 3 0 0 0 521.089 -107.192C 522.445524581898 -107.05276977845452 523.8552350503398 -106.89064992990893 525.317550006106 -106.70274139136436 C 529.1601799726137 -106.20894397960681 533.3651471862524 -105.53729033458981 537.9173598328568 -104.63783157340528 A 548 548 0 0 1 539.126 -98.2227C 535.2125771462456 -95.72876865735984 531.5400784160316 -93.57339839607808 528.1403866010602 -91.71551344092691 C 526.8466296973104 -91.0085002000923 525.5924910574937 -90.34464575652385 524.3796642778759 -89.72163079417138 A 3 3 0 0 0 522.903 -86.4426A 530 530 0 0 1 523.064 -85.4659A 3 3 0 0 0 525.512 -82.832C 526.8604377826657 -82.62990241039381 528.2610790150583 -82.40237089994135 529.7130679431191 -82.14663118557411 C 533.5285626904612 -81.47458894258264 537.6977274972592 -80.60802521128645 542.2031630047308 -79.49774734922205 A 548 548 0 0 1 543.112 -73.0333C 539.0868123630644 -70.7241728153144 535.3180112657768 -68.7420007300189 531.8355622609583 -67.04429938048767 C 530.5103123401326 -66.39824420013001 529.2266457575879 -65.79345782876811 527.9861463687107 -65.2275446668178 A 3 3 0 0 0 526.359 -62.0207A 530 530 0 0 1 526.474 -61.0377A 3 3 0 0 0 528.797 -58.2927C 530.1342885949238 -58.0280770734946 531.5228271142483 -57.735626683720824 532.96134532991 -57.41260966880485 C 536.7414413460873 -56.563778088429395 540.8657742634502 -55.504181054932126 545.314674861737 -54.185488706603714 A 548 548 0 0 1 545.921 -47.6858C 541.7935055865653 -45.566404163600644 537.9365645061554 -43.76172319764391 534.3789005205729 -42.227882296816574 C 533.025027778897 -41.644184388594866 531.7146133895991 -41.099775922047826 530.4491280369082 -40.592190202392615 A 3 3 0 0 0 528.674 -37.4646A 530 530 0 0 1 528.743 -36.4773A 3 3 0 0 0 530.936 -33.6271C 532.2599865868243 -33.30057584317514 533.6334151278437 -32.943839956502316 535.0553471209761 -32.554245223963456 C 538.7918575597578 -31.530462686391793 542.8624262009811 -30.28012720192007 547.2451565620553 -28.755876361311604 A 548 548 0 0 1 547.549 -22.235C 543.3267947219448 -20.309948827060925 539.3900669339403 -18.6866675175542 535.7648930755767 -17.32000902327078 C 534.3853296999324 -16.799932546878104 533.0510055696494 -16.317081052657205 531.7632750126239 -15.868922092938154 A 3 3 0 0 0 529.845 -12.8273A 530 530 0 0 1 529.868 -11.8378A 3 3 0 0 0 531.926 -8.88872" stroke="#191919" stroke-width="0.35 px" style="stroke-width:0.35;stroke-miterlimit:4;stroke-dasharray:none;fill:none;fill-rule: evenodd "/>
<title>b'InvoluteGear'</title>
</g>
</svg>