<?xml version="1.0"?>
<!DOCTYPE svg PUBLIC "-//W3C//DTD SVG 1.1//EN" "http://www.w3.org/Graphics/SVG/1.1/DTD/svg11.dtd">
<svg width="87.7528546379901mm" height="89.08004015795723mm" viewBox="0 0 87.7528546379901 89.08004015795723" xmlns="http://www.w3.org/2000/svg" version="1.1">
<g id="InvoluteGear" transform="translate(42.937392,44.540020) scale(1,-1)">
<path id="InvoluteGear_w0000"  d="M 28.32839376719116 -5.431584167714325 L 33.34657259453788 -6.386370764614524 C 33.66263358478869 -6.419559954093658 34.6097755318986 -6.466428922145848 36.21586121084334 -6.09496510755471 C 38.11943022486406 -5.638645047522481 40.807708997964 -4.595762373449552 43.95514099610532 -2.2593633992971975 A 44 44 0 0 1 43.9551 2.25936C 40.807708997964 4.595762373449552 38.11943022486406 5.638645047522481 36.21586121084334 6.09496510755471 C 34.6097755318986 6.466428922145848 33.66263358478869 6.419559954093658 33.34657259453788 6.386370764614524 L 28.32839376719116 5.43158416771432 A 3 3 0 0 0 24.8955 7.49749A 26 26 0 0 1 23.8904 10.2591A 3 3 0 0 0 25.1922 14.0483L 29.650036631467916 16.54251985335121 C 29.913486996508958 16.720255547617576 30.669166613880133 17.293162943303106 31.660727285942645 18.610092708811095 C 32.82562887058655 20.183244731478243 34.214617825023616 22.710131495508843 35.12388230542516 26.523047237303327 A 44 44 0 0 1 32.2193 29.9846C 28.30641960358967 29.751247951661473 25.576726526650916 28.82215014222813 23.825191180726737 27.948121012103798 C 22.356085833732063 27.200306828570444 21.66065980024637 26.55559200782271 21.439876634750785 26.327007525212117 L 18.209453623866743 22.369975384882437 A 3 3 0 0 0 14.2518 21.746A 26 26 0 0 1 11.7067 23.2154A 3 3 0 0 0 10.2682 26.9548L 12.079919005082392 31.730981582304654 C 12.167487391186295 32.03647765365707 12.378113787407315 32.9610916754826 12.291187194160184 34.60728131858221 C 12.172350951533382 36.56116998884108 11.612126718633753 39.38970244272123 9.85776872556657 42.89502930073395 A 44 44 0 0 1 5.40769 43.6797C 2.560241885883942 40.98579396500075 1.0663882329653207 38.51945086286697 0.286449409642652 36.72404048632302 C -0.35826488625589814 35.20685887216931 -0.4765774362499622 34.26596742856101 -0.4987758801233797 33.948944872666 L -0.42989224559944916 28.841206504880706 A 3 3 0 0 0 -3.06052 25.8192A 26 26 0 0 1 -5.95475 25.3089A 3 3 0 0 0 -9.46031 27.2489L -11.142526977126504 32.07216437831903 C -11.271814791031966 32.362475819761066 -11.70479604760456 33.2061592909742 -12.829535987099531 34.41133838229916 C -14.17650525835424 35.831717476281874 -16.42380753381801 37.63839384920442 -20.02090439788051 39.195950429202654 A 44 44 0 0 1 -23.9342 36.9366C -24.383901464145968 33.042631475754874 -23.942924966509807 30.193072428759397 -23.386325223743796 28.31637327474445 C -22.904979484294024 26.739730368828354 -22.390818793756715 25.942915865667413 -22.204045617411364 25.68579361370451 L -18.868086755629534 21.817316566939144 A 3 3 0 0 0 -18.9408 17.8114A 26 26 0 0 1 -20.8299 15.5601A 3 3 0 0 0 -24.7623 14.7929L -29.15126075134453 17.406425019314796 C -29.436909560258986 17.545711880943436 -30.310901727624223 17.913695928866215 -31.94717669558529 18.113947777511925 C -33.892017103551865 18.33620613138872 -36.774859710907556 18.275662469491913 -40.53157384599193 17.15665073738127 A 44 44 0 0 1 -42.0771 12.9104C -39.91854632222341 9.63845449105976 -37.74907747818429 7.7390198466129565 -36.116378374886914 6.659160306478421 C -34.73419962113937 5.760784846912158 -33.82814719143266 5.480885645834368 -33.51979563983317 5.40397405709254 L -28.477693777274133 4.584861734861988 A 3 3 0 0 0 -25.9584 1.46944A 26 26 0 0 1 -25.9584 -1.46944A 3 3 0 0 0 -28.4777 -4.58486L -33.51979563983318 -5.403974057092533 C -33.82814719143266 -5.480885645834361 -34.734199621139375 -5.760784846912151 -36.116378374886914 -6.659160306478413 C -37.74907747818429 -7.7390198466129485 -39.91854632222341 -9.63845449105975 -42.077069433296735 -12.910436509394573 A 44 44 0 0 1 -40.5316 -17.1567C -36.774859710907556 -18.275662469491902 -33.892017103551865 -18.336206131388717 -31.94717669558529 -18.113947777511918 C -30.310901727624234 -17.913695928866208 -29.43690956025899 -17.54571188094343 -29.151260751344534 -17.40642501931479 L -24.762271386219968 -14.792900858019415 A 3 3 0 0 0 -20.8299 -15.5601A 26 26 0 0 1 -18.9408 -17.8114A 3 3 0 0 0 -18.8681 -21.8173L -22.20404561741138 -25.68579361370449 C -22.390818793756733 -25.94291586566739 -22.904979484294042 -26.739730368828333 -23.38632522374382 -28.31637327474443 C -23.94292496650983 -30.19307242875938 -24.383901464145993 -33.04263147575485 -23.934236598224814 -36.93658702990543 A 44 44 0 0 1 -20.0209 -39.196C -16.423807533818042 -37.63839384920441 -14.176505258354268 -35.83171747628187 -12.829535987099558 -34.41133838229914 C -11.704796047604585 -33.206159290974185 -11.27181479103199 -32.36247581976105 -11.14252697712653 -32.07216437831902 L -9.460307011561635 -27.248900734653454 A 3 3 0 0 0 -5.95475 -25.3089A 26 26 0 0 1 -3.06052 -25.8192A 3 3 0 0 0 -0.429892 -28.8412L -0.4987758801233948 -33.948944872666004 C -0.47657743624997817 -34.265967428561005 -0.35826488625591413 -35.20685887216931 0.2864494096426373 -36.72404048632302 C 1.0663882329653047 -38.51945086286697 2.560241885883924 -40.98579396500075 5.4076915405667565 -43.67969797468459 A 44 44 0 0 1 9.85777 -42.895C 11.612126718633736 -39.38970244272123 12.172350951533364 -36.561169988841094 12.291187194160168 -34.607281318582224 C 12.378113787407301 -32.9610916754826 12.167487391186281 -32.03647765365708 12.07991900508238 -31.730981582304665 L 10.268240153407387 -26.954837119744425 A 3 3 0 0 0 11.7067 -23.2154A 26 26 0 0 1 14.2518 -21.746A 3 3 0 0 0 18.2095 -22.37L 21.439876634750775 -26.327007525212128 C 21.660659800246364 -26.55559200782272 22.356085833732052 -27.200306828570454 23.825191180726726 -27.94812101210381 C 25.576726526650905 -28.822150142228143 28.30641960358966 -29.751247951661487 32.219300707730156 -29.984592791339384 A 44 44 0 0 1 35.1239 -26.523C 34.21461782502361 -22.710131495508858 32.82562887058654 -20.183244731478258 31.660727285942635 -18.61009270881111 C 30.66916661388013 -17.293162943303116 29.91348699650895 -16.720255547617587 29.650036631467913 -16.54251985335122 L 25.19216363181942 -14.048305646861298 A 3 3 0 0 0 23.8904 -10.2591A 26 26 0 0 1 24.8955 -7.49749A 3 3 0 0 0 28.3284 -5.43158" stroke="#191919" stroke-width="0.35 px" style="stroke-width:0.35;stroke-miterlimit:4;stroke-dasharray:none;fill:none;fill-rule: evenodd "/>
<title>b'InvoluteGear'</title>
</g>
</svg>