<?xml version="1.0"?>
<!DOCTYPE svg PUBLIC "-//W3C//DTD SVG 1.1//EN" "http://www.w3.org/Graphics/SVG/1.1/DTD/svg11.dtd">
<svg width="799.653781357658mm" height="799.653781357658mm" viewBox="0 0 799.653781357658 799.653781357658" xmlns="http://www.w3.org/2000/svg" version="1.1">
<g id="InvoluteGear" transform="translate(399.826891,399.826891) scale(1,-1)">
<path id="InvoluteGear_w0000"  d="M 375.89795269326305 -8.75951830943438 C 377.1854303434097 -8.414793694167734 378.5495038752386 -8.023463638364255 379.9875783104927 -7.579479561807046 C 383.5504302875484 -6.479453968316522 387.56509766236707 -5.057256995080626 391.9871477243421 -3.2230193263409284 A 392 392 0 0 1 391.987 3.22302C 387.56509766236707 5.057256995080626 383.5504302875484 6.479453968316522 379.9875783104927 7.579479561807046 C 378.5495038752386 8.023463638364255 377.1854303434097 8.414793694167734 375.89796355974454 8.759514232442811 A 3 3 0 0 0 373.817 11.6879A 374 374 0 0 1 373.781 12.786A 3 3 0 0 0 375.666 15.8441C 376.9282012231887 16.272330469539945 378.2637599586664 16.752037335136528 379.6697174182309 17.289125375836484 C 383.1529959396667 18.619817398375083 387.0660514710331 20.30154114785276 391.3586687010953 22.421067484610557 A 392 392 0 0 1 390.937 28.8533C 386.4045306054345 30.394399187156857 382.30544280920554 31.55097931837193 378.6782740556747 32.41562800434404 C 377.2142407002398 32.76460690878102 375.8274935443394 33.06588441941435 374.52023752397275 33.325662528124184 A 3 3 0 0 0 372.253 36.1117A 374 374 0 0 1 372.145 37.2051A 3 3 0 0 0 373.825 40.3799C 375.05690767825985 40.88977401600342 376.35823254984234 41.45580351294869 377.7260525080288 42.08369562434586 C 381.1148416404532 43.63935584840048 384.9095290238389 45.573404974841736 389.05433177599457 47.969143842448034 A 392 392 0 0 1 388.213 54.36C 383.5893200265467 55.60138789568063 379.4233647321543 56.487398531191594 375.74741129560397 57.11296775122869 C 374.2636882355789 57.36544710230041 372.86020571982584 57.57538195121011 371.53875833373047 57.74910522061134 A 3 3 0 0 0 369.094 60.3808A 374 374 0 0 1 368.915 61.4648A 3 3 0 0 0 370.384 64.7428C 371.57956287486866 65.33212127261807 372.8410814096728 65.98204957570766 374.1649066514287 66.6980570273853 C 377.4446950795204 68.47202387704723 381.1047648809787 70.65011648517203 385.0840044735214 73.31180896199521 A 392 392 0 0 1 383.826 79.634C 379.1315210896015 80.57028292515473 374.91653755718534 81.18193003139751 371.20754043457345 81.56574100206025 C 369.71048119988643 81.7206396444241 368.2962732518797 81.83833285835733 366.96629314063523 81.92525737873991 A 3 3 0 0 0 364.354 84.3914A 374 374 0 0 1 364.105 85.4614A 3 3 0 0 0 365.357 88.8285C 366.511057337315 89.49470635597363 367.7273675193029 90.22575037243494 369.0015292217057 91.02680711056146 C 372.1582723878933 93.01148418743611 375.6680516266302 95.42429335030961 379.46468834472074 98.34054166053346 A 392 392 0 0 1 377.796 104.567C 373.0502227740206 105.19416363376847 368.80426021016245 105.52882804393235 365.0781018965838 105.66923722772063 C 363.5741171247105 105.72589186160953 362.1552395999966 105.75083946015566 360.82242194262153 105.75059300737838 A 3 3 0 0 0 358.055 108.041A 374 374 0 0 1 357.736 109.092A 3 3 0 0 0 358.765 112.534C 359.8730951844418 113.27406136723563 361.0389885866829 114.08309065435823 362.25803059371 114.96576643100055 C 365.2782108391238 117.15265504315154 368.6226701016079 119.78984874151712 372.2204461639492 122.94816506216668 A 392 392 0 0 1 370.148 129.052C 365.37146613280913 129.36758678400057 361.1127064010596 129.42383541370262 357.38534287846295 129.32024155693546 C 355.8808728630926 129.2784095785093 354.4634016130624 129.21050473222132 353.1334537393836 129.12308836163288 A 3 3 0 0 0 350.222 131.227A 374 374 0 0 1 349.835 132.256A 3 3 0 0 0 350.637 135.757C 351.69410118926606 136.56835945757288 352.80458527722067 137.4519096277449 353.96328746384734 138.41242468971654 C 356.83397191301003 140.79216024436946 359.9987897112287 143.64244560994135 363.382298888381 147.02930554565802 A 392 392 0 0 1 360.916 152.985C 356.1281327807691 152.9870380667504 351.87481254411614 152.7646300507228 348.1622049553406 152.41747675819886 C 346.6636920680493 152.27733729841145 345.2536969222096 152.1168707862661 343.9323138731994 151.9426588281857 A 3 3 0 0 0 340.889 153.852A 374 374 0 0 1 340.436 154.853A 3 3 0 0 0 341.007 158.399C 342.00909905973725 159.2778508663568 343.0594185700562 160.23213842210444 344.15281919563205 161.26637969644915 C 346.86171513701686 163.82877180061524 349.83333923528636 166.8799434738743 352.98809282150745 170.48084397045318 A 392 392 0 0 1 350.137 176.262C 345.35980409037614 175.95137536550098 341.1301367190548 175.45126308901303 337.4481830197654 174.86203692442686 C 335.96204412279235 174.6241900819596 334.56556289682413 174.3718490461972 333.2584030375608 174.11158750297486 A 3 3 0 0 0 330.097 175.818A 374 374 0 0 1 329.579 176.787A 3 3 0 0 0 329.917 180.363C 330.85956146184253 181.30529006495044 331.8452187651346 182.3262286004551 332.868635720319 183.4297673072565 C 335.4041432456276 186.16384340456017 338.16984869334715 189.40283579997714 341.0823375494543 193.20235724867158 A 392 392 0 0 1 337.859 198.785C 333.11259169826656 198.16226186238987 328.9246892773111 197.38658688298818 325.28915615851196 196.55781100323617 C 323.82175512677037 196.22327527478345 322.44476776767476 195.88014027845918 321.1574285573546 195.53494362997907 A 3 3 0 0 0 317.891 197.031A 374 374 0 0 1 317.311 197.964A 3 3 0 0 0 317.414 201.554C 318.2932324272842 202.55635217699148 319.21000678765586 203.63956987670682 320.15905764392886 204.807680493804 C 322.5103193206797 207.7017328506536 325.05826294252336 211.1146761055321 327.71601534410115 215.09654837218568 A 392 392 0 0 1 324.135 220.456C 319.43894004812944 219.52458713156017 315.3107358186449 218.47667100859027 311.737191191288 217.41189435922553 C 310.29481166127516 216.9821022781354 308.9432146403229 216.5496426779826 307.6812086630803 216.12098910928907 A 3 3 0 0 0 304.324 217.4A 374 374 0 0 1 303.684 218.293A 3 3 0 0 0 303.552 221.883C 304.3639229062062 222.9400368919937 305.2078885551005 224.0808952514309 306.07850933099473 225.3085757498299 C 308.23545669571564 228.3502115897304 310.5547278059273 231.92249095708848 312.94636284916663 236.06966305334714 A 392 392 0 0 1 309.022 241.184C 304.39740181554805 239.94687441660534 300.3465733818185 238.63120448778483 296.85031971261867 237.33498660588742 C 295.4391381749203 236.81177860783401 294.118719238056 236.29184626225288 292.8874505972322 235.78157133373514 A 3 3 0 0 0 289.454 236.838A 374 374 0 0 1 288.757 237.687A 3 3 0 0 0 288.391 241.261C 289.1312803404443 242.3690581426473 289.8988232873848 243.56267183116353 290.68728585107766 244.84466509449322 C 292.6406825240124 248.02085966581777 294.7213496476371 251.73717809697808 296.8366259841124 256.0318911952403 A 392 392 0 0 1 292.586 260.878C 288.0523871764532 259.34167234808433 284.0962808077263 257.76388251403375 280.69228959164974 256.2417740035729 C 279.31834894225875 255.62739054552821 278.03476232608443 255.0222118846441 276.83950350302734 254.4325006718849 A 3 3 0 0 0 273.344 255.262A 374 374 0 0 1 272.593 256.064A 3 3 0 0 0 271.994 259.606C 272.660533244023 260.7602178771593 273.3483667522755 262.0014756576934 274.0512947860223 263.332291993985 C 275.79277602272634 266.6294443439609 277.62592942371094 270.4738879928617 279.4557891154062 274.89775147230426 A 392 392 0 0 1 274.898 279.456C 270.47388799286176 277.6259294237109 266.6294443439609 275.79277602272634 263.33229199398505 274.05129478602225 C 262.0014756576934 273.3483667522755 260.76021787715933 272.66053324402293 259.60608715364873 271.9939109809694 A 3 3 0 0 0 256.064 272.593A 374 374 0 0 1 255.262 273.344A 3 3 0 0 0 254.432 276.839C 255.02221188464412 278.0347623260844 255.62739054552824 279.31834894225875 256.24177400357297 280.6922895916497 C 257.76388251403375 284.09628080772626 259.3416723480844 288.0523871764531 260.87827965487463 292.58645737449325 A 392 392 0 0 1 256.032 296.837C 251.7371780969781 294.72134964763706 248.0208596658178 292.64068252401233 244.84466509449325 290.6872858510776 C 243.56267183116356 289.8988232873848 242.36905814264733 289.1312803404442 241.2609976836266 288.3906016059686 A 3 3 0 0 0 237.687 288.757A 374 374 0 0 1 236.838 289.454A 3 3 0 0 0 235.782 292.887C 236.29184626225296 294.1187192380559 236.81177860783407 295.4391381749203 237.33498660588748 296.8503197126186 C 238.6312044877849 300.3465733818184 239.94687441660543 304.397401815548 241.18364935009882 309.0222631475146 A 392 392 0 0 1 236.07 312.946C 231.92249095708857 310.55472780592726 228.3502115897305 308.2354566957156 225.30857574982997 306.0785093309947 C 224.080895251431 305.2078885551005 222.9400368919938 304.36392290620614 221.882791582461 303.5523594003604 A 3 3 0 0 0 218.293 303.684A 374 374 0 0 1 217.4 304.324A 3 3 0 0 0 216.121 307.681C 216.5496426779827 308.9432146403228 216.98210227813547 310.2948116612751 217.4118943592256 311.73719119128793 C 218.47667100859036 315.31073581864484 219.52458713156025 319.43894004812944 220.45623363161835 324.1347881477773 A 392 392 0 0 1 215.097 327.716C 211.1146761055322 325.05826294252336 207.70173285065368 322.5103193206796 204.8076804938041 320.1590576439288 C 203.6395698767069 319.2100067876558 202.55635217699157 318.2932324272841 201.55444930367344 317.4142593895938 A 3 3 0 0 0 197.964 317.311A 374 374 0 0 1 197.031 317.891A 3 3 0 0 0 195.535 321.157C 195.88014027845924 322.4447677676747 196.2232752747835 323.8217551267703 196.55781100323622 325.2891561585119 C 197.38658688298824 328.924689277311 198.16226186238995 333.1125916982665 198.78479047567055 337.8593182231133 A 392 392 0 0 1 193.202 341.082C 189.40283579997723 338.1698486933471 186.16384340456023 335.40414324562755 183.42976730725655 332.86863572031893 C 182.32622860045515 331.8452187651345 181.3052900649505 330.8595614618425 180.36301992976547 329.91694278979736 A 3 3 0 0 0 176.787 329.579A 374 374 0 0 1 175.818 330.097A 3 3 0 0 0 174.112 333.258C 174.3718490461973 334.5655628968241 174.62419008195968 335.9620441227923 174.86203692442695 337.44818301976534 C 175.4512630890131 341.13013671905475 175.95137536550106 345.3598040903761 176.26212032890973 350.1370828287117 A 392 392 0 0 1 170.481 352.988C 166.8799434738744 349.8333392352863 163.82877180061533 346.8617151370168 161.26637969644923 344.152819195632 C 160.23213842210453 343.05941857005615 159.27785086635689 342.0090990597372 158.39924841468377 341.0068711912045 A 3 3 0 0 0 154.853 340.436A 374 374 0 0 1 153.852 340.889A 3 3 0 0 0 151.943 343.932C 152.11687078626613 345.2536969222096 152.27733729841145 346.6636920680493 152.4174767581989 348.1622049553406 C 152.76463005072281 351.87481254411614 152.98703806675042 356.1281327807691 152.98466872264746 360.9155066916147 A 392 392 0 0 1 147.029 363.382C 143.64244560994138 359.9987897112287 140.79216024436948 356.83397191301003 138.41242468971657 353.96328746384734 C 137.4519096277449 352.80458527722067 136.5683594575729 351.69410118926606 135.7571869999953 350.6365558178436 A 3 3 0 0 0 132.256 349.835A 374 374 0 0 1 131.227 350.222A 3 3 0 0 0 129.123 353.133C 129.21050473222138 354.46340161306233 129.27840957850935 355.8808728630925 129.3202415569355 357.38534287846295 C 129.4238354137027 361.1127064010596 129.36758678400065 365.3714661328091 129.0521132782812 370.14843494610756 A 392 392 0 0 1 122.948 372.22C 119.78984874151719 368.62267010160787 117.15265504315161 365.2782108391238 114.96576643100062 362.25803059371 C 114.08309065435829 361.0389885866828 113.27406136723569 359.87309518444175 112.53379246875036 358.7647608817672 A 3 3 0 0 0 109.092 357.736A 374 374 0 0 1 108.041 358.055A 3 3 0 0 0 105.751 360.822C 105.75083946015575 362.1552395999966 105.7258918616096 363.5741171247105 105.66923722772071 365.07810189658375 C 105.52882804393244 368.8042602101624 105.19416363376855 373.05022277402054 104.56693687241653 377.7963307759396 A 392 392 0 0 1 98.3405 379.465C 95.4242933503097 375.66805162663013 93.0114841874362 372.15827238789325 91.02680711056155 369.00152922170565 C 90.22575037243502 367.7273675193029 89.49470635597372 366.511057337315 88.82851096165213 365.3566801610271 A 3 3 0 0 0 85.4614 364.105A 374 374 0 0 1 84.3914 364.354A 3 3 0 0 0 81.9253 366.966C 81.83833285835736 368.2962732518797 81.72063964442412 369.71048119988643 81.56574100206026 371.20754043457345 C 81.18193003139753 374.91653755718534 80.57028292515476 379.1315210896015 79.63398878945587 383.82644471704134 A 392 392 0 0 1 73.3118 385.084C 70.65011648517206 381.1047648809787 68.47202387704725 377.4446950795204 66.69805702738532 374.1649066514287 C 65.98204957570769 372.8410814096728 65.3321212726181 371.57956287486866 64.74285213341491 370.38408604525944 A 3 3 0 0 0 61.4648 368.915A 374 374 0 0 1 60.3808 369.094A 3 3 0 0 0 57.7491 371.539C 57.57538195121016 372.86020571982584 57.365447102300465 374.2636882355789 57.112967751228744 375.74741129560397 C 56.487398531191644 379.4233647321543 55.60138789568069 383.5893200265467 54.36003574086648 388.21295489575675 A 392 392 0 0 1 47.9691 389.054C 45.57340497484179 384.9095290238389 43.63935584840053 381.1148416404532 42.083695624345914 377.7260525080288 C 41.45580351294875 376.35823254984234 40.88977401600347 375.05690767825985 40.379954472839025 373.8254504106467 A 3 3 0 0 0 37.2051 372.145A 374 374 0 0 1 36.1117 372.253A 3 3 0 0 0 33.3257 374.52C 33.06588441941443 375.8274935443394 32.7646069087811 377.2142407002398 32.41562800434412 378.6782740556747 C 31.550979318372008 382.30544280920554 30.39439918715694 386.4045306054345 28.85330467373017 390.93707760207144 A 392 392 0 0 1 22.4211 391.359C 20.30154114785284 387.0660514710331 18.61981739837516 383.1529959396667 17.289125375836562 379.6697174182309 C 16.752037335136606 378.2637599586664 16.272330469540023 376.9282012231887 15.844143647967051 375.66603680664826 A 3 3 0 0 0 12.786 373.781A 374 374 0 0 1 11.6879 373.817A 3 3 0 0 0 8.75952 375.898C 8.414793694167757 377.1854303434097 8.023463638364278 378.5495038752386 7.579479561807069 379.9875783104927 C 6.4794539683165455 383.5504302875484 5.05725699508065 387.56509766236707 3.2230193263409523 391.9871477243421 A 392 392 0 0 1 -3.22302 391.987C -5.057256995080602 387.56509766236707 -6.479453968316499 383.5504302875484 -7.579479561807023 379.9875783104927 C -8.023463638364232 378.5495038752386 -8.414793694167711 377.1854303434097 -8.759514232442788 375.89796355974454 A 3 3 0 0 0 -11.6879 373.817A 374 374 0 0 1 -12.786 373.781A 3 3 0 0 0 -15.8441 375.666C -16.272330469539895 376.9282012231887 -16.752037335136478 378.2637599586664 -17.289125375836434 379.6697174182309 C -18.619817398375034 383.1529959396667 -20.301541147852713 387.0660514710331 -22.42106748461051 391.3586687010953 A 392 392 0 0 1 -28.8533 390.937C -30.39439918715681 386.4045306054345 -31.55097931837188 382.30544280920554 -32.41562800434399 378.6782740556747 C -32.76460690878097 377.2142407002398 -33.0658844194143 375.8274935443394 -33.32566252812414 374.52023752397275 A 3 3 0 0 0 -36.1117 372.253A 374 374 0 0 1 -37.2051 372.145A 3 3 0 0 0 -40.3799 373.825C -40.889774016003344 375.05690767825985 -41.45580351294862 376.3582325498424 -42.083695624345786 377.72605250802883 C -43.6393558484004 381.1148416404533 -45.573404974841665 384.90952902383896 -47.969143842447956 389.0543317759946 A 392 392 0 0 1 -54.36 388.213C -55.60138789568056 383.5893200265468 -56.487398531191516 379.42336473215437 -57.11296775122862 375.747411295604 C -57.36544710230034 374.26368823557897 -57.57538195121003 372.86020571982584 -57.74910522061127 371.53875833373047 A 3 3 0 0 0 -60.3808 369.094A 374 374 0 0 1 -61.4648 368.915A 3 3 0 0 0 -64.7428 370.384C -65.33212127261798 371.5795628748687 -65.98204957570758 372.8410814096729 -66.6980570273852 374.16490665142874 C -68.47202387704714 377.44469507952044 -70.65011648517194 381.1047648809787 -73.31180896199511 385.0840044735215 A 392 392 0 0 1 -79.634 383.826C -80.57028292515463 379.1315210896015 -81.18193003139741 374.9165375571854 -81.56574100206015 371.2075404345735 C -81.72063964442401 369.7104811998865 -81.83833285835725 368.29627325187977 -81.92525737873981 366.9662931406353 A 3 3 0 0 0 -84.3914 364.354A 374 374 0 0 1 -85.4614 364.105A 3 3 0 0 0 -88.8285 365.357C -89.49470635597359 366.511057337315 -90.2257503724349 367.7273675193029 -91.02680711056142 369.0015292217057 C -93.01148418743607 372.1582723878933 -95.42429335030957 375.6680516266302 -98.34054166053342 379.46468834472074 A 392 392 0 0 1 -104.567 377.796C -105.19416363376843 373.0502227740206 -105.52882804393231 368.80426021016245 -105.66923722772059 365.0781018965838 C -105.72589186160948 363.5741171247105 -105.75083946015562 362.1552395999966 -105.75059300737834 360.82242194262153 A 3 3 0 0 0 -108.041 358.055A 374 374 0 0 1 -109.092 357.736A 3 3 0 0 0 -112.534 358.765C -113.27406136723557 359.8730951844418 -114.08309065435816 361.0389885866829 -114.96576643100049 362.25803059371 C -117.15265504315148 365.2782108391238 -119.78984874151706 368.6226701016079 -122.94816506216661 372.2204461639492 A 392 392 0 0 1 -129.052 370.148C -129.3675867840005 365.37146613280913 -129.42383541370256 361.1127064010596 -129.3202415569354 357.38534287846295 C -129.27840957850924 355.8808728630926 -129.21050473222127 354.4634016130624 -129.12308836163282 353.1334537393836 A 3 3 0 0 0 -131.227 350.222A 374 374 0 0 1 -132.256 349.835A 3 3 0 0 0 -135.757 350.637C -136.5683594575728 351.6941011892661 -137.45190962774478 352.8045852772207 -138.41242468971643 353.9632874638474 C -140.79216024436934 356.8339719130101 -143.64244560994123 359.9987897112287 -147.0293055456579 363.38229888838106 A 392 392 0 0 1 -152.985 360.916C -152.98703806675027 356.1281327807691 -152.76463005072267 351.8748125441162 -152.41747675819875 348.16220495534066 C -152.27733729841134 346.66369206804933 -152.11687078626602 345.25369692220966 -151.94265882818559 343.93231387319946 A 3 3 0 0 0 -153.852 340.889A 374 374 0 0 1 -154.853 340.436A 3 3 0 0 0 -158.399 341.007C -159.27785086635674 342.00909905973725 -160.23213842210438 343.0594185700562 -161.2663796964491 344.15281919563205 C -163.8287718006152 346.86171513701686 -166.87994347387425 349.83333923528636 -170.48084397045315 352.98809282150745 A 392 392 0 0 1 -176.262 350.137C -175.95137536550092 345.35980409037614 -175.45126308901297 341.1301367190548 -174.8620369244268 337.4481830197654 C -174.62419008195954 335.96204412279235 -174.37184904619716 334.56556289682413 -174.11158750297483 333.2584030375608 A 3 3 0 0 0 -175.818 330.097A 374 374 0 0 1 -176.787 329.579A 3 3 0 0 0 -180.363 329.917C -181.30529006495038 330.8595614618426 -182.32622860045504 331.8452187651346 -183.42976730725644 332.86863572031905 C -186.1638434045601 335.4041432456276 -189.40283579997708 338.1698486933472 -193.20235724867152 341.0823375494543 A 392 392 0 0 1 -198.785 337.859C -198.1622618623898 333.1125916982666 -197.38658688298813 328.9246892773111 -196.5578110032361 325.289156158512 C -196.2232752747834 323.82175512677037 -195.88014027845912 322.4447677676748 -195.534943629979 321.15742855735465 A 3 3 0 0 0 -197.031 317.891A 374 374 0 0 1 -197.964 317.311A 3 3 0 0 0 -201.554 317.414C -202.5563521769914 318.29323242728424 -203.63956987670673 319.2100067876559 -204.8076804938039 320.159057643929 C -207.7017328506535 322.51031932067974 -211.11467610553203 325.05826294252347 -215.0965483721856 327.7160153441012 A 392 392 0 0 1 -220.456 324.135C -219.52458713156008 319.43894004812955 -218.4766710085902 315.31073581864496 -217.41189435922547 311.7371911912881 C -216.9821022781353 310.2948116612752 -216.54964267798252 308.94321464032294 -216.12098910928898 307.6812086630804 A 3 3 0 0 0 -217.4 304.324A 374 374 0 0 1 -218.293 303.684A 3 3 0 0 0 -221.883 303.552C -222.9400368919936 304.36392290620626 -224.0808952514308 305.2078885551006 -225.3085757498298 306.07850933099485 C -228.35021158973032 308.23545669571575 -231.9224909570884 310.5547278059274 -236.06966305334706 312.94636284916675 A 392 392 0 0 1 -241.184 309.022C -239.94687441660525 304.39740181554816 -238.63120448778474 300.3465733818186 -237.33498660588737 296.8503197126188 C -236.81177860783393 295.4391381749204 -236.29184626225282 294.11871923805603 -235.7815713337351 292.8874505972323 A 3 3 0 0 0 -236.838 289.454A 374 374 0 0 1 -237.687 288.757A 3 3 0 0 0 -241.261 288.391C -242.36905814264716 289.1312803404444 -243.56267183116336 289.8988232873849 -244.84466509449308 290.6872858510778 C -248.02085966581762 292.6406825240125 -251.73717809697794 294.7213496476372 -256.0318911952401 296.8366259841125 A 392 392 0 0 1 -260.878 292.586C -259.3416723480842 288.0523871764533 -257.7638825140336 284.09628080772643 -256.2417740035728 280.69228959164985 C -255.6273905455281 279.31834894225887 -255.02221188464395 278.03476232608455 -254.43250067188478 276.83950350302746 A 3 3 0 0 0 -255.262 273.344A 374 374 0 0 1 -256.064 272.593A 3 3 0 0 0 -259.606 271.994C -260.7602178771593 272.660533244023 -262.0014756576934 273.3483667522755 -263.332291993985 274.0512947860223 C -266.6294443439609 275.79277602272634 -270.4738879928617 277.62592942371094 -274.89775147230426 279.4557891154062 A 392 392 0 0 1 -279.456 274.898C -277.6259294237109 270.47388799286176 -275.79277602272634 266.6294443439609 -274.05129478602225 263.33229199398505 C -273.3483667522755 262.0014756576934 -272.66053324402293 260.76021787715933 -271.9939109809694 259.60608715364873 A 3 3 0 0 0 -272.593 256.064A 374 374 0 0 1 -273.344 255.262A 3 3 0 0 0 -276.839 254.432C -278.0347623260844 255.02221188464412 -279.31834894225875 255.62739054552824 -280.6922895916497 256.24177400357297 C -284.09628080772626 257.76388251403375 -288.0523871764531 259.3416723480844 -292.58645737449325 260.87827965487463 A 392 392 0 0 1 -296.837 256.032C -294.72134964763706 251.7371780969781 -292.64068252401233 248.0208596658178 -290.6872858510776 244.84466509449325 C -289.8988232873848 243.56267183116356 -289.1312803404442 242.36905814264733 -288.3906016059686 241.2609976836266 A 3 3 0 0 0 -288.757 237.687A 374 374 0 0 1 -289.454 236.838A 3 3 0 0 0 -292.887 235.782C -294.11871923805586 236.29184626225302 -295.43913817492023 236.8117786078341 -296.8503197126186 237.33498660588754 C -300.3465733818184 238.63120448778497 -304.397401815548 239.94687441660548 -309.02226314751454 241.18364935009885 A 392 392 0 0 1 -312.946 236.07C -310.55472780592726 231.92249095708863 -308.2354566957156 228.35021158973055 -306.0785093309947 225.30857574983003 C -305.20788855510045 224.08089525143103 -304.3639229062061 222.94003689199386 -303.5523594003604 221.88279158246107 A 3 3 0 0 0 -303.684 218.293A 374 374 0 0 1 -304.324 217.4A 3 3 0 0 0 -307.681 216.121C -308.94321464032276 216.54964267798272 -310.29481166127505 216.98210227813553 -311.73719119128793 217.41189435922564 C -315.3107358186448 218.47667100859042 -319.4389400481294 219.5245871315603 -324.1347881477772 220.45623363161837 A 392 392 0 0 1 -327.716 215.097C -325.0582629425233 211.11467610553225 -322.51031932067957 207.70173285065374 -320.1590576439288 204.80768049380413 C -319.21000678765574 203.63956987670696 -318.29323242728407 202.5563521769916 -317.4142593895937 201.55444930367347 A 3 3 0 0 0 -317.311 197.964A 374 374 0 0 1 -317.891 197.031A 3 3 0 0 0 -321.157 195.535C -322.4447677676747 195.88014027845932 -323.82175512677026 196.2232752747836 -325.2891561585119 196.5578110032363 C -328.92468927731096 197.38658688298833 -333.1125916982665 198.16226186239004 -337.85931822311323 198.78479047567063 A 392 392 0 0 1 -341.082 193.202C -338.1698486933471 189.4028357999773 -335.4041432456275 186.1638434045603 -332.86863572031893 183.42976730725664 C -331.84521876513446 182.32622860045524 -330.8595614618425 181.30529006495058 -329.9169427897973 180.36301992976556 A 3 3 0 0 0 -329.579 176.787A 374 374 0 0 1 -330.097 175.818A 3 3 0 0 0 -333.258 174.112C -334.5655628968241 174.37184904619738 -335.9620441227923 174.62419008195977 -337.4481830197653 174.862036924427 C -341.1301367190547 175.4512630890132 -345.3598040903761 175.95137536550115 -350.13708282871164 176.26212032890982 A 392 392 0 0 1 -352.988 170.481C -349.8333392352863 166.87994347387448 -346.86171513701674 163.8287718006154 -344.15281919563193 161.2663796964493 C -343.05941857005615 160.2321384221046 -342.0090990597372 159.27785086635697 -341.0068711912044 158.39924841468385 A 3 3 0 0 0 -340.436 154.853A 374 374 0 0 1 -340.889 153.852A 3 3 0 0 0 -343.932 151.943C -345.2536969222096 152.11687078626613 -346.6636920680493 152.27733729841145 -348.1622049553406 152.4174767581989 C -351.87481254411614 152.76463005072281 -356.1281327807691 152.98703806675042 -360.9155066916147 152.98466872264746 A 392 392 0 0 1 -363.382 147.029C -359.9987897112287 143.64244560994138 -356.83397191301003 140.79216024436948 -353.96328746384734 138.41242468971657 C -352.80458527722067 137.4519096277449 -351.69410118926606 136.5683594575729 -350.6365558178436 135.7571869999953 A 3 3 0 0 0 -349.835 132.256A 374 374 0 0 1 -350.222 131.227A 3 3 0 0 0 -353.133 129.123C -354.46340161306233 129.2105047322214 -355.8808728630925 129.27840957850938 -357.38534287846295 129.32024155693554 C -361.1127064010596 129.4238354137027 -365.3714661328091 129.36758678400068 -370.14843494610756 129.05211327828124 A 392 392 0 0 1 -372.22 122.948C -368.62267010160787 119.78984874151722 -365.2782108391238 117.15265504315163 -362.25803059371 114.96576643100063 C -361.0389885866828 114.08309065435832 -359.87309518444175 113.27406136723572 -358.7647608817672 112.53379246875038 A 3 3 0 0 0 -357.736 109.092A 374 374 0 0 1 -358.055 108.041A 3 3 0 0 0 -360.822 105.751C -362.1552395999966 105.75083946015576 -363.5741171247105 105.72589186160963 -365.07810189658375 105.66923722772071 C -368.8042602101624 105.52882804393245 -373.05022277402054 105.19416363376857 -377.7963307759396 104.56693687241656 A 392 392 0 0 1 -379.465 98.3405C -375.66805162663013 95.42429335030971 -372.15827238789325 93.01148418743621 -369.00152922170565 91.02680711056158 C -367.7273675193029 90.22575037243504 -366.511057337315 89.49470635597373 -365.3566801610271 88.82851096165216 A 3 3 0 0 0 -364.105 85.4614A 374 374 0 0 1 -364.354 84.3914A 3 3 0 0 0 -366.966 81.9253C -368.2962732518797 81.83833285835746 -369.71048119988643 81.72063964442421 -371.20754043457345 81.56574100206038 C -374.91653755718534 81.18193003139764 -379.1315210896015 80.57028292515486 -383.82644471704134 79.63398878945598 A 392 392 0 0 1 -385.084 73.3118C -381.1047648809787 70.65011648517216 -377.4446950795204 68.47202387704736 -374.1649066514287 66.69805702738543 C -372.8410814096728 65.9820495757078 -371.57956287486866 65.3321212726182 -370.38408604525944 64.74285213341503 A 3 3 0 0 0 -368.915 61.4648A 374 374 0 0 1 -369.094 60.3808A 3 3 0 0 0 -371.539 57.7491C -372.86020571982584 57.57538195121027 -374.2636882355789 57.365447102300564 -375.74741129560397 57.112967751228844 C -379.4233647321543 56.48739853119175 -383.5893200265467 55.60138789568079 -388.21295489575675 54.360035740866586 A 392 392 0 0 1 -389.054 47.9691C -384.9095290238389 45.57340497484191 -381.1148416404532 43.63935584840063 -377.7260525080288 42.083695624346014 C -376.35823254984234 41.45580351294885 -375.05690767825985 40.88977401600358 -373.8254504106467 40.37995447283913 A 3 3 0 0 0 -372.145 37.2051A 374 374 0 0 1 -372.253 36.1117A 3 3 0 0 0 -374.52 33.3257C -375.8274935443394 33.065884419414544 -377.2142407002398 32.764606908781204 -378.6782740556747 32.415628004344235 C -382.30544280920554 31.55097931837212 -386.4045306054345 30.394399187157052 -390.93707760207144 28.853304673730285 A 392 392 0 0 1 -391.359 22.4211C -387.0660514710331 20.301541147852955 -383.1529959396667 18.619817398375275 -379.6697174182309 17.28912537583667 C -378.2637599586664 16.75203733513672 -376.9282012231887 16.27233046954013 -375.66603680664826 15.844143647967162 A 3 3 0 0 0 -373.781 12.786A 374 374 0 0 1 -373.817 11.6879A 3 3 0 0 0 -375.898 8.75952C -377.1854303434097 8.41479369416778 -378.5495038752386 8.023463638364301 -379.9875783104927 7.5794795618070925 C -383.5504302875484 6.4794539683165695 -387.56509766236707 5.057256995080673 -391.9871477243421 3.2230193263409763 A 392 392 0 0 1 -391.987 -3.22302C -387.56509766236707 -5.057256995080579 -383.5504302875484 -6.479453968316475 -379.9875783104927 -7.579479561807 C -378.5495038752386 -8.023463638364209 -377.1854303434097 -8.414793694167688 -375.89796355974454 -8.759514232442765 A 3 3 0 0 0 -373.817 -11.6879A 374 374 0 0 1 -373.781 -12.786A 3 3 0 0 0 -375.666 -15.8441C -376.9282012231887 -16.272330469539867 -378.2637599586664 -16.752037335136457 -379.6697174182309 -17.289125375836406 C -383.1529959396667 -18.619817398375012 -387.0660514710331 -20.301541147852685 -391.3586687010953 -22.421067484610482 A 392 392 0 0 1 -390.937 -28.8533C -386.4045306054345 -30.394399187156782 -382.30544280920554 -31.55097931837185 -378.6782740556747 -32.41562800434397 C -377.2142407002398 -32.76460690878094 -375.8274935443394 -33.06588441941428 -374.52023752397275 -33.32566252812411 A 3 3 0 0 0 -372.253 -36.1117A 374 374 0 0 1 -372.145 -37.2051A 3 3 0 0 0 -373.825 -40.3799C -375.05690767825985 -40.88977401600332 -376.3582325498424 -41.4558035129486 -377.72605250802883 -42.083695624345765 C -381.1148416404533 -43.63935584840038 -384.90952902383896 -45.57340497484164 -389.0543317759946 -47.969143842447934 A 392 392 0 0 1 -388.213 -54.36C -383.5893200265468 -55.60138789568053 -379.42336473215437 -56.487398531191495 -375.747411295604 -57.112967751228595 C -374.26368823557897 -57.365447102300315 -372.86020571982584 -57.57538195121001 -371.53875833373047 -57.74910522061125 A 3 3 0 0 0 -369.094 -60.3808A 374 374 0 0 1 -368.915 -61.4648A 3 3 0 0 0 -370.384 -64.7428C -371.5795628748687 -65.33212127261795 -372.8410814096729 -65.98204957570755 -374.16490665142874 -66.69805702738519 C -377.44469507952044 -68.4720238770471 -381.1047648809787 -70.65011648517192 -385.0840044735215 -73.31180896199508 A 392 392 0 0 1 -383.826 -79.634C -379.1315210896015 -80.57028292515461 -374.9165375571854 -81.18193003139739 -371.2075404345735 -81.56574100206014 C -369.7104811998865 -81.72063964442398 -368.29627325187977 -81.83833285835722 -366.9662931406353 -81.9252573787398 A 3 3 0 0 0 -364.354 -84.3914A 374 374 0 0 1 -364.105 -85.4614A 3 3 0 0 0 -365.357 -88.8285C -366.51105733731504 -89.49470635597348 -367.72736751930296 -90.22575037243479 -369.0015292217057 -91.02680711056132 C -372.15827238789336 -93.01148418743595 -375.6680516266302 -95.42429335030945 -379.4646883447208 -98.3405416605333 A 392 392 0 0 1 -377.796 -104.567C -373.0502227740206 -105.19416363376831 -368.8042602101625 -105.5288280439322 -365.0781018965838 -105.66923722772049 C -363.57411712471054 -105.72589186160937 -362.15523959999666 -105.7508394601555 -360.8224219426216 -105.75059300737826 A 3 3 0 0 0 -358.055 -108.041A 374 374 0 0 1 -357.736 -109.092A 3 3 0 0 0 -358.765 -112.534C -359.87309518444187 -113.27406136723546 -361.0389885866829 -114.08309065435806 -362.25803059371003 -114.96576643100039 C -365.27821083912386 -117.15265504315137 -368.622670101608 -119.78984874151695 -372.2204461639492 -122.94816506216651 A 392 392 0 0 1 -370.148 -129.052C -365.3714661328092 -129.3675867840004 -361.11270640105965 -129.42383541370245 -357.385342878463 -129.3202415569353 C -355.8808728630926 -129.27840957850913 -354.46340161306244 -129.21050473222115 -353.13345373938364 -129.1230883616327 A 3 3 0 0 0 -350.222 -131.227A 374 374 0 0 1 -349.835 -132.256A 3 3 0 0 0 -350.637 -135.757C -351.6941011892662 -136.56835945757268 -352.8045852772207 -137.45190962774467 -353.96328746384745 -138.41242468971632 C -356.83397191301015 -140.79216024436923 -359.99878971122877 -143.64244560994112 -363.3822988883811 -147.0293055456578 A 392 392 0 0 1 -360.916 -152.985C -356.12813278076914 -152.98703806675016 -351.87481254411625 -152.76463005072256 -348.1622049553407 -152.41747675819863 C -346.66369206804933 -152.27733729841123 -345.2536969222097 -152.1168707862659 -343.9323138731995 -151.94265882818553 A 3 3 0 0 0 -340.889 -153.852A 374 374 0 0 1 -340.436 -154.853A 3 3 0 0 0 -341.007 -158.399C -342.00909905973725 -159.27785086635672 -343.0594185700562 -160.23213842210438 -344.15281919563205 -161.26637969644906 C -346.86171513701686 -163.8287718006152 -349.83333923528636 -166.87994347387422 -352.98809282150745 -170.48084397045312 A 392 392 0 0 1 -350.137 -176.262C -345.35980409037614 -175.9513753655009 -341.1301367190548 -175.45126308901297 -337.4481830197654 -174.86203692442677 C -335.96204412279235 -174.62419008195954 -334.56556289682413 -174.37184904619713 -333.2584030375608 -174.1115875029748 A 3 3 0 0 0 -330.097 -175.818A 374 374 0 0 1 -329.579 -176.787A 3 3 0 0 0 -329.917 -180.363C -330.8595614618426 -181.30529006495038 -331.8452187651346 -182.32622860045504 -332.86863572031905 -183.42976730725644 C -335.4041432456276 -186.1638434045601 -338.1698486933472 -189.40283579997708 -341.0823375494543 -193.20235724867152 A 392 392 0 0 1 -337.859 -198.785C -333.1125916982666 -198.1622618623898 -328.9246892773111 -197.38658688298813 -325.289156158512 -196.5578110032361 C -323.82175512677037 -196.2232752747834 -322.4447677676748 -195.88014027845912 -321.15742855735465 -195.534943629979 A 3 3 0 0 0 -317.891 -197.031A 374 374 0 0 1 -317.311 -197.964A 3 3 0 0 0 -317.414 -201.554C -318.29323242728424 -202.5563521769914 -319.2100067876559 -203.63956987670673 -320.159057643929 -204.8076804938039 C -322.51031932067974 -207.7017328506535 -325.05826294252347 -211.11467610553203 -327.7160153441012 -215.0965483721856 A 392 392 0 0 1 -324.135 -220.456C -319.43894004812955 -219.52458713156008 -315.31073581864496 -218.4766710085902 -311.7371911912881 -217.41189435922547 C -310.2948116612752 -216.9821022781353 -308.94321464032294 -216.54964267798252 -307.6812086630804 -216.12098910928898 A 3 3 0 0 0 -304.324 -217.4A 374 374 0 0 1 -303.684 -218.293A 3 3 0 0 0 -303.552 -221.883C -304.36392290620626 -222.9400368919936 -305.2078885551006 -224.0808952514308 -306.07850933099485 -225.3085757498298 C -308.23545669571575 -228.35021158973032 -310.5547278059274 -231.9224909570884 -312.94636284916675 -236.06966305334706 A 392 392 0 0 1 -309.022 -241.184C -304.39740181554816 -239.94687441660525 -300.3465733818186 -238.63120448778474 -296.8503197126188 -237.33498660588737 C -295.4391381749204 -236.81177860783393 -294.11871923805603 -236.29184626225282 -292.8874505972323 -235.7815713337351 A 3 3 0 0 0 -289.454 -236.838A 374 374 0 0 1 -288.757 -237.687A 3 3 0 0 0 -288.391 -241.261C -289.1312803404444 -242.36905814264716 -289.8988232873849 -243.56267183116336 -290.6872858510778 -244.84466509449308 C -292.6406825240125 -248.02085966581762 -294.7213496476372 -251.73717809697794 -296.8366259841125 -256.0318911952401 A 392 392 0 0 1 -292.586 -260.878C -288.0523871764533 -259.3416723480842 -284.09628080772643 -257.7638825140336 -280.69228959164985 -256.2417740035728 C -279.31834894225887 -255.6273905455281 -278.03476232608455 -255.02221188464395 -276.83950350302746 -254.43250067188478 A 3 3 0 0 0 -273.344 -255.262A 374 374 0 0 1 -272.593 -256.064A 3 3 0 0 0 -271.994 -259.606C -272.6605332440231 -260.76021787715916 -273.3483667522757 -262.0014756576932 -274.05129478602237 -263.3322919939849 C -275.7927760227265 -266.62944434396076 -277.62592942371106 -270.4738879928616 -279.45578911540633 -274.89775147230415 A 392 392 0 0 1 -274.898 -279.456C -270.4738879928619 -277.6259294237108 -266.6294443439611 -275.7927760227262 -263.3322919939852 -274.05129478602214 C -262.00147565769356 -273.34836675227535 -260.76021787715945 -272.6605332440228 -259.60608715364884 -271.9939109809693 A 3 3 0 0 0 -256.064 -272.593A 374 374 0 0 1 -255.262 -273.344A 3 3 0 0 0 -254.432 -276.839C -255.02221188464418 -278.0347623260844 -255.6273905455283 -279.31834894225875 -256.241774003573 -280.6922895916497 C -257.7638825140338 -284.09628080772626 -259.34167234808444 -288.0523871764531 -260.8782796548747 -292.58645737449325 A 392 392 0 0 1 -256.032 -296.837C -251.73717809697817 -294.72134964763706 -248.02085966581785 -292.64068252401233 -244.8446650944933 -290.6872858510776 C -243.5626718311636 -289.8988232873848 -242.3690581426474 -289.1312803404442 -241.26099768362664 -288.3906016059686 A 3 3 0 0 0 -237.687 -288.757A 374 374 0 0 1 -236.838 -289.454A 3 3 0 0 0 -235.782 -292.887C -236.29184626225302 -294.11871923805586 -236.8117786078341 -295.43913817492023 -237.33498660588754 -296.8503197126186 C -238.63120448778497 -300.3465733818184 -239.94687441660548 -304.397401815548 -241.18364935009885 -309.02226314751454 A 392 392 0 0 1 -236.07 -312.946C -231.92249095708863 -310.55472780592726 -228.35021158973055 -308.2354566957156 -225.30857574983003 -306.0785093309947 C -224.08089525143103 -305.20788855510045 -222.94003689199386 -304.3639229062061 -221.88279158246107 -303.5523594003604 A 3 3 0 0 0 -218.293 -303.684A 374 374 0 0 1 -217.4 -304.324A 3 3 0 0 0 -216.121 -307.681C -216.54964267798286 -308.94321464032265 -216.9821022781357 -310.29481166127493 -217.4118943592258 -311.73719119128776 C -218.47667100859059 -315.3107358186447 -219.52458713156048 -319.43894004812927 -220.45623363161855 -324.1347881477771 A 392 392 0 0 1 -215.097 -327.716C -211.11467610553242 -325.0582629425232 -207.7017328506539 -322.51031932067946 -204.8076804938043 -320.15905764392863 C -203.63956987670713 -319.21000678765563 -202.5563521769918 -318.29323242728395 -201.55444930367364 -317.4142593895936 A 3 3 0 0 0 -197.964 -317.311A 374 374 0 0 1 -197.031 -317.891A 3 3 0 0 0 -195.535 -321.157C -195.88014027845938 -322.44476776767465 -196.22327527478365 -323.8217551267702 -196.55781100323637 -325.28915615851184 C -197.38658688298838 -328.9246892773109 -198.16226186239007 -333.11259169826644 -198.78479047567066 -337.8593182231132 A 392 392 0 0 1 -193.202 -341.082C -189.40283579997734 -338.16984869334703 -186.16384340456037 -335.40414324562744 -183.4297673072567 -332.8686357203189 C -182.3262286004553 -331.8452187651344 -181.30529006495064 -330.8595614618424 -180.3630199297656 -329.9169427897973 A 3 3 0 0 0 -176.787 -329.579A 374 374 0 0 1 -175.818 -330.097A 3 3 0 0 0 -174.112 -333.258C -174.37184904619724 -334.5655628968241 -174.62419008195963 -335.9620441227923 -174.8620369244269 -337.44818301976534 C -175.45126308901305 -341.13013671905475 -175.951375365501 -345.3598040903761 -176.2621203289097 -350.1370828287117 A 392 392 0 0 1 -170.481 -352.988C -166.87994347387433 -349.8333392352863 -163.82877180061527 -346.8617151370168 -161.26637969644918 -344.152819195632 C -160.23213842210447 -343.05941857005615 -159.27785086635683 -342.0090990597372 -158.39924841468374 -341.0068711912045 A 3 3 0 0 0 -154.853 -340.436A 374 374 0 0 1 -153.852 -340.889A 3 3 0 0 0 -151.943 -343.932C -152.11687078626633 -345.25369692220954 -152.27733729841165 -346.6636920680491 -152.41747675819906 -348.16220495534054 C -152.76463005072299 -351.8748125441161 -152.98703806675059 -356.12813278076896 -152.98466872264765 -360.9155066916146 A 392 392 0 0 1 -147.029 -363.382C -143.64244560994155 -359.9987897112286 -140.79216024436965 -356.83397191301 -138.41242468971674 -353.9632874638473 C -137.4519096277451 -352.8045852772206 -136.5683594575731 -351.694101189266 -135.75718699999547 -350.6365558178435 A 3 3 0 0 0 -132.256 -349.835A 374 374 0 0 1 -131.227 -350.222A 3 3 0 0 0 -129.123 -353.133C -129.21050473222144 -354.46340161306233 -129.2784095785094 -355.8808728630925 -129.32024155693557 -357.38534287846295 C -129.42383541370273 -361.1127064010596 -129.36758678400068 -365.3714661328091 -129.05211327828127 -370.14843494610756 A 392 392 0 0 1 -122.948 -372.22C -119.78984874151723 -368.62267010160787 -117.15265504315165 -365.2782108391238 -114.96576643100066 -362.25803059371 C -114.08309065435833 -361.0389885866828 -113.27406136723573 -359.87309518444175 -112.5337924687504 -358.7647608817672 A 3 3 0 0 0 -109.092 -357.736A 374 374 0 0 1 -108.041 -358.055A 3 3 0 0 0 -105.751 -360.822C -105.75083946015593 -362.15523959999655 -105.7258918616098 -363.57411712471037 -105.66923722772088 -365.0781018965837 C -105.52882804393262 -368.8042602101624 -105.19416363376874 -373.0502227740205 -104.56693687241673 -377.7963307759396 A 392 392 0 0 1 -98.3405 -379.465C -95.42429335030988 -375.6680516266301 -93.01148418743638 -372.15827238789325 -91.02680711056175 -369.0015292217056 C -90.22575037243521 -367.7273675193029 -89.4947063559739 -366.5110573373149 -88.82851096165231 -365.35668016102704 A 3 3 0 0 0 -85.4614 -364.105A 374 374 0 0 1 -84.3914 -364.354A 3 3 0 0 0 -81.9253 -366.966C -81.83833285835749 -368.2962732518797 -81.72063964442425 -369.71048119988643 -81.5657410020604 -371.20754043457345 C -81.18193003139767 -374.9165375571853 -80.5702829251549 -379.13152108960145 -79.63398878945601 -383.8264447170413 A 392 392 0 0 1 -73.3118 -385.084C -70.6501164851722 -381.1047648809786 -68.47202387704739 -377.44469507952033 -66.69805702738546 -374.1649066514287 C -65.98204957570785 -372.8410814096728 -65.33212127261822 -371.57956287486866 -64.74285213341506 -370.3840860452594 A 3 3 0 0 0 -61.4648 -368.915A 374 374 0 0 1 -60.3808 -369.094A 3 3 0 0 0 -57.7491 -371.539C -57.57538195121046 -372.8602057198258 -57.36544710230077 -374.26368823557885 -57.11296775122905 -375.7474112956039 C -56.48739853119196 -379.42336473215425 -55.60138789568099 -383.58932002654666 -54.36003574086679 -388.21295489575675 A 392 392 0 0 1 -47.9691 -389.054C -45.57340497484211 -384.90952902383884 -43.63935584840084 -381.11484164045316 -42.08369562434622 -377.7260525080287 C -41.45580351294905 -376.3582325498423 -40.889774016003784 -375.0569076782598 -40.37995447283933 -373.8254504106466 A 3 3 0 0 0 -37.2051 -372.145A 374 374 0 0 1 -36.1117 -372.253A 3 3 0 0 0 -33.3257 -374.52C -33.065884419414566 -375.8274935443394 -32.764606908781225 -377.2142407002398 -32.415628004344256 -378.6782740556747 C -31.550979318372143 -382.30544280920554 -30.394399187157074 -386.4045306054345 -28.85330467373031 -390.93707760207144 A 392 392 0 0 1 -22.4211 -391.359C -20.301541147852976 -387.0660514710331 -18.619817398375297 -383.1529959396667 -17.28912537583669 -379.6697174182309 C -16.75203733513674 -378.2637599586664 -16.27233046954015 -376.9282012231887 -15.844143647967183 -375.66603680664826 A 3 3 0 0 0 -12.786 -373.781A 374 374 0 0 1 -11.6879 -373.817A 3 3 0 0 0 -8.75952 -375.898C -8.414793694167804 -377.1854303434097 -8.023463638364325 -378.5495038752386 -7.5794795618071165 -379.9875783104927 C -6.479453968316593 -383.5504302875484 -5.057256995080697 -387.56509766236707 -3.2230193263410003 -391.9871477243421 A 392 392 0 0 1 3.22302 -391.987C 5.057256995080555 -387.56509766236707 6.479453968316452 -383.5504302875484 7.579479561806976 -379.9875783104927 C 8.023463638364186 -378.5495038752386 8.414793694167665 -377.1854303434097 8.759514232442742 -375.89796355974454 A 3 3 0 0 0 11.6879 -373.817A 374 374 0 0 1 12.786 -373.781A 3 3 0 0 0 15.8441 -375.666C 16.27233046953968 -376.92820122318875 16.752037335136265 -378.26375995866647 17.289125375836214 -379.6697174182309 C 18.619817398374817 -383.1529959396667 20.301541147852493 -387.0660514710332 22.421067484610283 -391.3586687010954 A 392 392 0 0 1 28.8533 -390.937C 30.39439918715659 -386.40453060543456 31.550979318371663 -382.30544280920554 32.41562800434378 -378.6782740556747 C 32.764606908780756 -377.2142407002399 33.06588441941409 -375.82749354433946 33.32566252812393 -374.52023752397275 A 3 3 0 0 0 36.1117 -372.253A 374 374 0 0 1 37.2051 -372.145A 3 3 0 0 0 40.3799 -373.825C 40.889774016003294 -375.05690767825985 41.45580351294857 -376.3582325498424 42.08369562434573 -377.72605250802883 C 43.63935584840035 -381.1148416404533 45.57340497484161 -384.90952902383896 47.969143842447906 -389.0543317759946 A 392 392 0 0 1 54.36 -388.213C 55.6013878956805 -383.5893200265468 56.48739853119147 -379.42336473215437 57.11296775122856 -375.747411295604 C 57.36544710230029 -374.26368823557897 57.575381951209984 -372.86020571982584 57.74910522061121 -371.53875833373047 A 3 3 0 0 0 60.3808 -369.094A 374 374 0 0 1 61.4648 -368.915A 3 3 0 0 0 64.7428 -370.384C 65.33212127261775 -371.57956287486877 65.98204957570735 -372.84108140967294 66.69805702738499 -374.1649066514288 C 68.4720238770469 -377.44469507952044 70.65011648517171 -381.10476488097873 73.31180896199488 -385.0840044735215 A 392 392 0 0 1 79.634 -383.826C 80.5702829251544 -379.13152108960156 81.1819300313972 -374.9165375571854 81.56574100205994 -371.20754043457356 C 81.72063964442378 -369.71048119988654 81.83833285835702 -368.2962732518798 81.9252573787396 -366.96629314063534 A 3 3 0 0 0 84.3914 -364.354A 374 374 0 0 1 85.4614 -364.105A 3 3 0 0 0 88.8285 -365.357C 89.49470635597346 -366.51105733731504 90.22575037243477 -367.72736751930296 91.0268071105613 -369.0015292217057 C 93.01148418743594 -372.15827238789336 95.42429335030944 -375.6680516266302 98.34054166053329 -379.4646883447208 A 392 392 0 0 1 104.567 -377.796C 105.1941636337683 -373.0502227740206 105.52882804393218 -368.8042602101625 105.66923722772046 -365.0781018965838 C 105.72589186160936 -363.57411712471054 105.75083946015549 -362.15523959999666 105.75059300737823 -360.82242194262165 A 3 3 0 0 0 108.041 -358.055A 374 374 0 0 1 109.092 -357.736A 3 3 0 0 0 112.534 -358.765C 113.27406136723562 -359.8730951844418 114.0830906543582 -361.0389885866829 114.96576643100053 -362.25803059371 C 117.15265504315153 -365.2782108391238 119.7898487415171 -368.6226701016079 122.94816506216665 -372.2204461639492 A 392 392 0 0 1 129.052 -370.148C 129.36758678400057 -365.37146613280913 129.42383541370262 -361.1127064010596 129.32024155693543 -357.38534287846295 C 129.27840957850927 -355.8808728630926 129.21050473222132 -354.4634016130624 129.12308836163285 -353.1334537393836 A 3 3 0 0 0 131.227 -350.222A 374 374 0 0 1 132.256 -349.835A 3 3 0 0 0 135.757 -350.637C 136.56835945757265 -351.6941011892662 137.45190962774464 -352.8045852772207 138.41242468971632 -353.96328746384745 C 140.79216024436923 -356.83397191301015 143.64244560994112 -359.99878971122877 147.0293055456578 -363.3822988883811 A 392 392 0 0 1 152.985 -360.916C 152.98703806675016 -356.12813278076914 152.76463005072256 -351.87481254411625 152.41747675819863 -348.1622049553407 C 152.2773372984112 -346.66369206804933 152.11687078626588 -345.2536969222097 151.94265882818547 -343.9323138731995 A 3 3 0 0 0 153.852 -340.889A 374 374 0 0 1 154.853 -340.436A 3 3 0 0 0 158.399 -341.007C 159.27785086635672 -342.0090990597373 160.23213842210438 -343.05941857005627 161.26637969644906 -344.1528191956321 C 163.8287718006152 -346.86171513701686 166.87994347387422 -349.8333392352864 170.48084397045312 -352.9880928215075 A 392 392 0 0 1 176.262 -350.137C 175.9513753655009 -345.3598040903762 175.45126308901297 -341.1301367190548 174.86203692442677 -337.44818301976545 C 174.62419008195954 -335.9620441227924 174.37184904619713 -334.5655628968242 174.1115875029748 -333.25840303756087 A 3 3 0 0 0 175.818 -330.097A 374 374 0 0 1 176.787 -329.579A 3 3 0 0 0 180.363 -329.917C 181.30529006495019 -330.85956146184265 182.32622860045484 -331.8452187651347 183.4297673072562 -332.8686357203191 C 186.1638434045599 -335.4041432456277 189.40283579997688 -338.16984869334726 193.20235724867132 -341.0823375494544 A 392 392 0 0 1 198.785 -337.859C 198.1622618623896 -333.11259169826667 197.38658688298793 -328.9246892773112 196.55781100323594 -325.28915615851207 C 196.2232752747832 -323.8217551267705 195.88014027845892 -322.4447677676749 195.5349436299788 -321.1574285573547 A 3 3 0 0 0 197.031 -317.891A 374 374 0 0 1 197.964 -317.311A 3 3 0 0 0 201.554 -317.414C 202.55635217699137 -318.2932324272843 203.6395698767067 -319.21000678765597 204.80768049380387 -320.159057643929 C 207.70173285065349 -322.5103193206798 211.114676105532 -325.0582629425235 215.09654837218554 -327.71601534410127 A 392 392 0 0 1 220.456 -324.135C 219.52458713156005 -319.4389400481296 218.47667100859016 -315.310735818645 217.41189435922544 -311.7371911912881 C 216.98210227813527 -310.2948116612753 216.5496426779825 -308.943214640323 216.12098910928893 -307.68120866308044 A 3 3 0 0 0 217.4 -304.324A 374 374 0 0 1 218.293 -303.684A 3 3 0 0 0 221.883 -303.552C 222.94003689199343 -304.3639229062064 224.08089525143063 -305.20788855510074 225.30857574982963 -306.07850933099496 C 228.35021158973015 -308.23545669571587 231.92249095708823 -310.55472780592754 236.0696630533469 -312.94636284916686 A 392 392 0 0 1 241.184 -309.022C 239.94687441660508 -304.3974018155483 238.63120448778457 -300.3465733818187 237.3349866058872 -296.8503197126189 C 236.81177860783376 -295.4391381749205 236.29184626225265 -294.1187192380562 235.78157133373492 -292.88745059723243 A 3 3 0 0 0 236.838 -289.454A 374 374 0 0 1 237.687 -288.757A 3 3 0 0 0 241.261 -288.391C 242.36905814264713 -289.13128034044445 243.56267183116333 -289.89882328738497 244.84466509449305 -290.68728585107783 C 248.02085966581757 -292.64068252401256 251.7371780969779 -294.7213496476373 256.03189119524006 -296.8366259841126 A 392 392 0 0 1 260.878 -292.586C 259.34167234808416 -288.05238717645335 257.7638825140336 -284.0962808077265 256.24177400357274 -280.6922895916499 C 255.62739054552807 -279.3183489422589 255.02221188464392 -278.0347623260846 254.43250067188475 -276.8395035030275 A 3 3 0 0 0 255.262 -273.344A 374 374 0 0 1 256.064 -272.593A 3 3 0 0 0 259.606 -271.994C 260.7602178771593 -272.66053324402304 262.0014756576934 -273.3483667522756 263.332291993985 -274.05129478602237 C 266.6294443439609 -275.7927760227264 270.4738879928617 -277.62592942371094 274.89775147230426 -279.4557891154063 A 392 392 0 0 1 279.456 -274.898C 277.6259294237109 -270.47388799286176 275.79277602272634 -266.629444343961 274.05129478602225 -263.3322919939851 C 273.3483667522755 -262.00147565769345 272.66053324402293 -260.7602178771594 271.9939109809694 -259.6060871536488 A 3 3 0 0 0 272.593 -256.064A 374 374 0 0 1 273.344 -255.262A 3 3 0 0 0 276.839 -254.432C 278.03476232608426 -255.02221188464426 279.3183489422586 -255.6273905455284 280.69228959164957 -256.24177400357314 C 284.09628080772615 -257.7638825140339 288.052387176453 -259.34167234808456 292.5864573744931 -260.8782796548748 A 392 392 0 0 1 296.837 -256.032C 294.72134964763694 -251.73717809697828 292.6406825240122 -248.02085966581797 290.6872858510775 -244.84466509449342 C 289.89882328738463 -243.56267183116373 289.1312803404441 -242.36905814264753 288.39060160596847 -241.26099768362678 A 3 3 0 0 0 288.757 -237.687A 374 374 0 0 1 289.454 -236.838A 3 3 0 0 0 292.887 -235.782C 294.11871923805586 -236.29184626225302 295.43913817492023 -236.8117786078341 296.8503197126186 -237.33498660588754 C 300.3465733818184 -238.63120448778497 304.397401815548 -239.94687441660548 309.02226314751454 -241.18364935009885 A 392 392 0 0 1 312.946 -236.07C 310.55472780592726 -231.92249095708863 308.2354566957156 -228.35021158973055 306.0785093309947 -225.30857574983003 C 305.20788855510045 -224.08089525143103 304.3639229062061 -222.94003689199386 303.5523594003604 -221.88279158246107 A 3 3 0 0 0 303.684 -218.293A 374 374 0 0 1 304.324 -217.4A 3 3 0 0 0 307.681 -216.121C 308.94321464032265 -216.54964267798286 310.29481166127493 -216.9821022781357 311.73719119128776 -217.4118943592258 C 315.3107358186447 -218.47667100859059 319.43894004812927 -219.52458713156048 324.1347881477771 -220.45623363161855 A 392 392 0 0 1 327.716 -215.097C 325.0582629425232 -211.11467610553242 322.51031932067946 -207.7017328506539 320.15905764392863 -204.8076804938043 C 319.21000678765563 -203.63956987670713 318.29323242728395 -202.5563521769918 317.4142593895936 -201.55444930367364 A 3 3 0 0 0 317.311 -197.964A 374 374 0 0 1 317.891 -197.031A 3 3 0 0 0 321.157 -195.535C 322.44476776767465 -195.88014027845938 323.8217551267702 -196.22327527478365 325.28915615851184 -196.55781100323637 C 328.9246892773109 -197.38658688298838 333.11259169826644 -198.16226186239007 337.8593182231132 -198.78479047567066 A 392 392 0 0 1 341.082 -193.202C 338.16984869334703 -189.40283579997734 335.40414324562744 -186.16384340456037 332.8686357203189 -183.4297673072567 C 331.8452187651344 -182.3262286004553 330.8595614618424 -181.30529006495064 329.9169427897973 -180.3630199297656 A 3 3 0 0 0 329.579 -176.787A 374 374 0 0 1 330.097 -175.818A 3 3 0 0 0 333.258 -174.112C 334.5655628968239 -174.37184904619753 335.9620441227921 -174.62419008195994 337.44818301976517 -174.8620369244272 C 341.1301367190546 -175.4512630890134 345.3598040903759 -175.95137536550132 350.1370828287115 -176.26212032891002 A 392 392 0 0 1 352.988 -170.481C 349.83333923528613 -166.87994347387465 346.86171513701663 -163.8287718006156 344.1528191956318 -161.2663796964495 C 343.059418570056 -160.23213842210478 342.009099059737 -159.27785086635717 341.0068711912043 -158.39924841468405 A 3 3 0 0 0 340.436 -154.853A 374 374 0 0 1 340.889 -153.852A 3 3 0 0 0 343.932 -151.943C 345.25369692220954 -152.11687078626633 346.6636920680491 -152.27733729841168 348.16220495534054 -152.4174767581991 C 351.8748125441161 -152.764630050723 356.12813278076896 -152.9870380667506 360.9155066916146 -152.98466872264765 A 392 392 0 0 1 363.382 -147.029C 359.9987897112286 -143.64244560994157 356.83397191301 -140.79216024436968 353.9632874638473 -138.41242468971677 C 352.8045852772206 -137.45190962774512 351.694101189266 -136.5683594575731 350.6365558178435 -135.7571869999955 A 3 3 0 0 0 349.835 -132.256A 374 374 0 0 1 350.222 -131.227A 3 3 0 0 0 353.133 -129.123C 354.46340161306233 -129.21050473222147 355.8808728630925 -129.27840957850944 357.38534287846295 -129.32024155693557 C 361.1127064010596 -129.42383541370276 365.3714661328091 -129.3675867840007 370.14843494610756 -129.0521132782813 A 392 392 0 0 1 372.22 -122.948C 368.62267010160787 -119.78984874151726 365.2782108391238 -117.15265504315167 362.25803059371 -114.96576643100067 C 361.0389885866828 -114.08309065435836 359.87309518444175 -113.27406136723576 358.7647608817672 -112.53379246875042 A 3 3 0 0 0 357.736 -109.092A 374 374 0 0 1 358.055 -108.041A 3 3 0 0 0 360.822 -105.751C 362.15523959999655 -105.75083946015594 363.57411712471037 -105.72589186160981 365.0781018965837 -105.66923722772091 C 368.8042602101624 -105.52882804393265 373.0502227740205 -105.19416363376877 377.7963307759396 -104.56693687241676 A 392 392 0 0 1 379.465 -98.3405C 375.6680516266301 -95.42429335030991 372.15827238789325 -93.01148418743641 369.0015292217056 -91.02680711056178 C 367.7273675193029 -90.22575037243523 366.5110573373149 -89.49470635597392 365.35668016102704 -88.82851096165234 A 3 3 0 0 0 364.105 -85.4614A 374 374 0 0 1 364.354 -84.3914A 3 3 0 0 0 366.966 -81.9253C 368.2962732518797 -81.83833285835752 369.71048119988643 -81.72063964442427 371.20754043457345 -81.56574100206043 C 374.9165375571853 -81.18193003139768 379.13152108960145 -80.57028292515491 383.8264447170413 -79.63398878945604 A 392 392 0 0 1 385.084 -73.3118C 381.1047648809786 -70.65011648517222 377.44469507952033 -68.4720238770474 374.1649066514287 -66.69805702738549 C 372.8410814096728 -65.98204957570786 371.57956287486866 -65.33212127261825 370.3840860452594 -64.74285213341507 A 3 3 0 0 0 368.915 -61.4648A 374 374 0 0 1 369.094 -60.3808A 3 3 0 0 0 371.539 -57.7491C 372.8602057198258 -57.57538195121049 374.26368823557885 -57.36544710230079 375.7474112956039 -57.11296775122907 C 379.42336473215425 -56.48739853119198 383.58932002654666 -55.601387895681015 388.21295489575675 -54.36003574086681 A 392 392 0 0 1 389.054 -47.9691C 384.90952902383884 -45.573404974842134 381.11484164045316 -43.63935584840086 377.7260525080287 -42.08369562434624 C 376.3582325498423 -41.455803512949075 375.0569076782598 -40.8897740160038 373.8254504106466 -40.37995447283935 A 3 3 0 0 0 372.145 -37.2051A 374 374 0 0 1 372.253 -36.1117A 3 3 0 0 0 374.52 -33.3257C 375.8274935443394 -33.06588441941459 377.2142407002398 -32.76460690878125 378.6782740556747 -32.41562800434428 C 382.30544280920554 -31.550979318372164 386.4045306054345 -30.394399187157102 390.93707760207144 -28.853304673730335 A 392 392 0 0 1 391.359 -22.4211C 387.0660514710331 -20.301541147853005 383.1529959396667 -18.619817398375325 379.6697174182309 -17.28912537583672 C 378.2637599586664 -16.752037335136762 376.9282012231887 -16.27233046954018 375.66603680664826 -15.844143647967208 A 3 3 0 0 0 373.781 -12.786A 374 374 0 0 1 373.817 -11.6879A 3 3 0 0 0 375.898 -8.75952" stroke="#191919" stroke-width="0.35 px" style="stroke-width:0.35;stroke-miterlimit:4;stroke-dasharray:none;fill:none;fill-rule: evenodd "/>
<title>b'InvoluteGear'</title>
</g>
</svg>