<?xml version="1.0"?>
<!DOCTYPE svg PUBLIC "-//W3C//DTD SVG 1.1//EN" "http://www.w3.org/Graphics/SVG/1.1/DTD/svg11.dtd">
<svg width="186.9885238225599mm" height="187.5025669142427mm" viewBox="0 0 186.9885238225599 187.5025669142427" xmlns="http://www.w3.org/2000/svg" version="1.1">
<g id="InvoluteGear" transform="translate(93.189257,93.751283) scale(1,-1)">
<path id="InvoluteGear_w0000"  d="M 76.6321754662527 -6.892726841349404 L 78.76244020817464 -7.0783188428250545 C 79.1465527053897 -7.089545330793044 80.30296663193202 -7.077159022522044 82.23160410869123 -6.661877078197465 C 84.53946104238949 -6.157620773091403 87.86325038557325 -5.081127546463479 91.96604581770771 -2.799040174265297 A 92 92 0 0 1 91.966 2.79904C 87.86325038557325 5.081127546463479 84.53946104238949 6.157620773091403 82.23160410869123 6.661877078197465 C 80.30296663193202 7.077159022522044 79.1465527053897 7.089545330793044 78.76244020817464 7.0783188428250545 L 76.63217546625269 6.8927268413494165 A 3 3 0 0 0 73.3885 9.49353A 74 74 0 0 1 72.9263 12.5599A 3 3 0 0 0 75.2593 16.0012L 77.34961708534148 16.45178780370168 C 77.71997360746181 16.554279223205018 78.82136037944332 16.906974231162053 80.54190740252533 17.872282239730183 C 82.59860057285303 19.034388625043377 85.45742133259435 21.042760385577235 88.70528401383243 24.432781202048822 A 92 92 0 0 1 87.0552 29.7822C 82.46204406027056 30.753534997839946 78.9686194029955 30.802498543263333 76.61466192234913 30.604099382561238 C 74.64930189540894 30.432455639454233 73.540613266518 30.103432670192905 73.1768748752357 29.979485797476176 L 71.19595602149428 29.17423257234803 A 3 3 0 0 0 67.3298 30.7034A 74 74 0 0 1 65.9843 33.4973A 3 3 0 0 0 67.1993 37.4734L 69.06394104127209 38.52008090638792 C 69.38763378602448 38.72718342096351 70.33613035539835 39.38884862937306 71.69570877130609 40.81841084943903 C 73.31849196443031 42.535109062804416 75.45832537049789 45.29690671272647 77.56266844860099 49.49364274706665 A 92 92 0 0 1 74.4092 54.119C 69.73372324149294 53.69335590499291 66.38106938156707 52.71043914332791 64.19017080630026 51.82701315290642 C 62.36271909241315 51.08369502218905 61.40026761125045 50.442497910107775 61.08922307820601 50.21684387621508 L 59.43366344591924 48.86347971028264 A 3 3 0 0 0 55.2885 49.1851A 74 74 0 0 1 53.1793 51.4583A 3 3 0 0 0 53.1683 55.6159L 54.64163075357246 57.16569577795079 C 54.889898200083465 57.459007420324205 55.601226484252194 58.37085097174912 56.479031784320625 60.13764452652961 C 57.52371359206553 62.25639839808363 58.75442605582605 65.52622409624895 59.52826941354721 70.15677693473386 A 92 92 0 0 1 55.1515 73.6471C 50.809255091304685 71.86228651057588 47.895270037061564 69.9348259095556 46.06210132018681 68.44486936551476 C 44.534935023771396 67.19592392509915 43.804238728087014 66.29952584745354 43.573525725037854 65.99221500356266 L 42.3904290528382 64.21099224210984 A 3 3 0 0 0 38.3346 63.2966A 74 74 0 0 1 35.6491 64.8471A 3 3 0 0 0 34.4131 68.8167L 35.36417178257092 70.73188771211886 C 35.51495427871428 71.08534645568827 35.925909638016726 72.16634704902492 36.24394496914968 74.11338457773188 C 36.61770082838654 76.44593352798877 36.82993814654217 79.93324891172162 36.20452240559221 84.58617361380544 A 92 92 0 0 1 30.9934 86.6314C 27.370161653510596 83.64593759724417 25.153765764832503 80.94519648979077 23.841211991572536 78.98109856963522 C 22.750026539924235 77.33750010280909 22.316011002197605 76.2655499625761 22.186129391931996 75.90388822577819 L 21.58061901107862 73.85307632792741 A 3 3 0 0 0 17.9746 71.7838A 74 74 0 0 1 14.9513 72.4738A 3 3 0 0 0 12.6002 75.9028L 12.944450955576269 78.01324102128854 C 12.984350814871553 78.39544050555965 13.058418062185808 79.54954649419714 12.788424589537055 81.50382516797147 C 12.458044651972086 83.84291198647843 11.632948607416584 87.23785378010267 9.663844700970696 91.4997175669815 A 92 92 0 0 1 4.08142 91.9181C 1.4991092408260327 87.99728005424622 0.1772390189151647 84.76323113976407 -0.49807364792850084 82.49951056300138 C -1.0563216388422552 80.60730000635529 -1.155092233438305 79.45504527767038 -1.1726018998722134 79.07116788040628 L -1.1467237348019366 76.93299048312136 A 3 3 0 0 0 -3.98266 73.8927A 74 74 0 0 1 -7.07497 73.661A 3 3 0 0 0 -10.3324 76.2446L -10.625441144608693 78.36277551024742 C -10.699969199757515 78.73975563378794 -10.969371264394088 79.8644196359251 -11.803403435932864 81.65229321839126 C -12.808563462998535 83.79007977641051 -14.597679465832062 86.79099250310595 -17.735508014416002 90.28311007443448 A 92 92 0 0 1 -23.1932 89.0374C -24.505145606638447 84.52967800872553 -24.81503619163339 81.0496807256563 -24.79310325805087 78.68747899970595 C -24.768811004406434 76.71478756502718 -24.52356045509443 75.58461113712055 -24.427142366994076 75.2126272707554 L -23.77217504453111 73.17707081902206 A 3 3 0 0 0 -25.586 69.436A 74 74 0 0 1 -28.4726 68.3031A 3 3 0 0 0 -32.3468 69.8118L -33.25121617011476 71.74943350574468 C -33.43354999494673 72.08769793022799 -34.022483815839685 73.08298861376825 -35.34644726773737 74.54559669117016 C -36.937074504826825 76.29213127149987 -39.531239657680366 78.63237066621105 -43.558983011726895 81.04445205087114 A 92 92 0 0 1 -48.4071 78.2454C -48.3320107278929 73.55124311974757 -47.60238653756268 70.13451049840847 -46.885156840953876 67.88371961297268 C -46.28048281609235 66.00582959124621 -45.71300271044298 64.99815259943495 -45.51122403805989 64.6711146629196 L -44.28536427908182 62.91904728036673 A 3 3 0 0 0 -44.9159 58.8095A 74 74 0 0 1 -47.3403 56.8761A 3 3 0 0 0 -51.4871 57.1758L -52.92247471834739 58.76083946705372 C -53.19641315236738 59.030331913915525 -54.05254937503687 59.80781333386511 -55.74880414447444 60.815196759975755 C -57.783564381219634 62.01529210061291 -60.95227572595588 63.486917623148294 -65.51205121299739 64.60463880486812 A 92 92 0 0 1 -69.3197 60.501C -67.86436459443847 56.037457505266 -66.16005593999697 52.98758123314717 -64.81125848641625 51.04819383583003 C -63.679930631014834 49.431963996470856 -62.84064406676047 48.63632296359503 -62.551433730627 48.38328971277125 L -60.86360455431596 47.070390275159696 A 3 3 0 0 0 -60.2548 42.9576A 74 74 0 0 1 -62.0017 40.3955A 3 3 0 0 0 -66.0526 39.4596L -67.89133914139988 40.551086974018375 C -68.23254155258618 40.727861856706866 -69.2798087165561 41.21845137698225 -71.19763512337758 41.68109971356236 C -73.49573098334547 42.22812207695968 -76.95743461132392 42.70037334151976 -81.64408616909162 42.42441988826489 A 92 92 0 0 1 -84.073 37.3807C -81.3666718489095 33.54449787510976 -78.83911403353916 31.132472843150524 -76.97859539583732 29.676812015065067 C -75.42113715459895 28.4658514720081 -74.38461842612202 27.952942595451887 -74.03367403378228 27.79639714507347 L -72.03384646936985 27.039322528999328 A 3 3 0 0 0 -70.2398 23.2887A 74 74 0 0 1 -71.1539 20.3255A 3 3 0 0 0 -74.7489 18.2372L -76.82776014550446 18.738192447827366 C -77.20590920228106 18.806542542251883 -78.35125302417643 18.966649131059945 -80.32024377589316 18.843454043105588 C -82.67747935689803 18.688798091707113 -86.12458770933664 18.119713500995196 -90.52168577989129 16.47460508808911 A 92 92 0 0 1 -91.356 10.9391C -87.63919323784684 8.07096240114571 -84.5129708654481 6.511107618433142 -82.30604628933649 5.6685152122170965 C -80.46084466178812 4.970423123925757 -79.31919300680129 4.785820608234708 -78.93769750760877 4.73967270855618 L -76.80356501029173 4.605692316024861 A 3 3 0 0 0 -73.9838 1.55049A 74 74 0 0 1 -73.9838 -1.55049A 3 3 0 0 0 -76.8036 -4.60569L -78.93769750760877 -4.739672708556197 C -79.31919300680129 -4.785820608234726 -80.46084466178812 -4.970423123925775 -82.30604628933649 -5.668515212217116 C -84.5129708654481 -6.51110761843316 -87.63919323784684 -8.070962401145731 -91.35603636127259 -10.939050671776968 A 92 92 0 0 1 -90.5217 -16.4746C -86.12458770933664 -18.119713500995214 -82.67747935689803 -18.688798091707135 -80.32024377589316 -18.843454043105606 C -78.35125302417643 -18.966649131059967 -77.20590920228106 -18.8065425422519 -76.82776014550446 -18.738192447827387 L -74.7489497531556 -18.237173870976207 A 3 3 0 0 0 -71.1539 -20.3255A 74 74 0 0 1 -70.2398 -23.2887A 3 3 0 0 0 -72.0338 -27.0393L -74.03367403378228 -27.796397145073456 C -74.38461842612202 -27.952942595451866 -75.42113715459895 -28.46585147200808 -76.97859539583732 -29.676812015065053 C -78.83911403353918 -31.1324728431505 -81.36667184890952 -33.54449787510975 -84.0730022025926 -37.38072377422248 A 92 92 0 0 1 -81.6441 -42.4244C -76.95743461132393 -42.70037334151974 -73.49573098334548 -42.22812207695966 -71.19763512337758 -41.68109971356235 C -69.2798087165561 -41.21845137698223 -68.23254155258618 -40.727861856706845 -67.89133914139988 -40.55108697401836 L -66.0525622800886 -39.45958712702171 A 3 3 0 0 0 -62.0017 -40.3955A 74 74 0 0 1 -60.2548 -42.9576A 3 3 0 0 0 -60.8636 -47.0704L -62.55143373062699 -48.38328971277126 C -62.84064406676046 -48.636322963595035 -63.67993063101483 -49.43196399647087 -64.81125848641624 -51.04819383583004 C -66.16005593999695 -52.98758123314717 -67.86436459443848 -56.037457505266005 -69.31971284991901 -60.50095552672401 A 92 92 0 0 1 -65.5121 -64.6046C -60.95227572595588 -63.4869176231483 -57.78356438121962 -62.015292100612925 -55.748804144474434 -60.81519675997577 C -54.05254937503686 -59.80781333386513 -53.19641315236737 -59.03033191391553 -52.92247471834738 -58.76083946705373 L -51.487114781540484 -57.175842901285456 A 3 3 0 0 0 -47.3403 -56.8761A 74 74 0 0 1 -44.9159 -58.8095A 3 3 0 0 0 -44.2854 -62.919L -45.51122403805986 -64.67111466291963 C -45.71300271044295 -64.99815259943496 -46.28048281609232 -66.00582959124623 -46.88515684095384 -67.88371961297271 C -47.602386537562644 -70.1345104984085 -48.332010727892865 -73.55124311974758 -48.40706280598079 -78.24541187660587 A 92 92 0 0 1 -43.559 -81.0445C -39.53123965768033 -78.63237066621106 -36.93707450482679 -76.2921312714999 -35.34644726773733 -74.54559669117016 C -34.02248381583965 -73.08298861376826 -33.43354999494669 -72.087697930228 -33.25121617011472 -71.74943350574468 L -32.34681118717085 -69.81177412171616 A 3 3 0 0 0 -28.4726 -68.3031A 74 74 0 0 1 -25.586 -69.436A 3 3 0 0 0 -23.7722 -73.1771L -24.427142366994097 -75.2126272707554 C -24.52356045509445 -75.58461113712053 -24.76881100440645 -76.71478756502717 -24.79310325805089 -78.68747899970595 C -24.81503619163341 -81.04968072565629 -24.50514560663847 -84.52967800872551 -23.19323280083505 -89.03742000691693 A 92 92 0 0 1 -17.7355 -90.2831C -14.597679465832087 -86.79099250310594 -12.808563462998556 -83.7900797764105 -11.803403435932887 -81.65229321839126 C -10.969371264394107 -79.86441963592509 -10.699969199757536 -78.73975563378792 -10.625441144608715 -78.36277551024742 L -10.332351467178327 -76.24462284750773 A 3 3 0 0 0 -7.07497 -73.661A 74 74 0 0 1 -3.98266 -73.8927A 3 3 0 0 0 -1.14672 -76.933L -1.1726018998721974 -79.07116788040628 C -1.155092233438288 -79.45504527767038 -1.0563216388422383 -80.6073000063553 -0.4980736479284831 -82.49951056300138 C 0.17723901891518246 -84.76323113976409 1.4991092408260505 -87.99728005424622 4.081417720490662 -91.91806263533152 A 92 92 0 0 1 9.66384 -91.4997C 11.632948607416601 -87.23785378010267 12.458044651972104 -83.84291198647841 12.788424589537073 -81.50382516797147 C 13.058418062185824 -79.54954649419713 12.984350814871569 -78.39544050555965 12.944450955576286 -78.01324102128854 L 12.600183023450635 -75.90280223928195 A 3 3 0 0 0 14.9513 -72.4738A 74 74 0 0 1 17.9746 -71.7838A 3 3 0 0 0 21.5806 -73.8531L 22.186129391932024 -75.90388822577818 C 22.316011002197637 -76.26554996257612 22.750026539924267 -77.33750010280909 23.841211991572568 -78.98109856963522 C 25.153765764832535 -80.94519648979076 27.37016165351063 -83.64593759724416 30.993416366344118 -86.63138202282299 A 92 92 0 0 1 36.2045 -84.5862C 36.8299381465422 -79.9332489117216 36.61770082838657 -76.44593352798876 36.24394496914971 -74.11338457773188 C 35.92590963801676 -72.16634704902492 35.514954278714306 -71.08534645568825 35.36417178257095 -70.73188771211885 L 34.41313595745356 -68.81668455813471 A 3 3 0 0 0 35.6491 -64.8471A 74 74 0 0 1 38.3346 -63.2966A 3 3 0 0 0 42.3904 -64.211L 43.57352572503784 -65.99221500356268 C 43.80423872808699 -66.29952584745355 44.53493502377137 -67.19592392509917 46.062101320186784 -68.44486936551478 C 47.89527003706155 -69.93482590955561 50.809255091304664 -71.8622865105759 55.151513955680365 -73.64712294202849 A 92 92 0 0 1 59.5283 -70.1568C 58.75442605582603 -65.52622409624897 57.52371359206552 -62.25639839808365 56.47903178432061 -60.13764452652963 C 55.60122648425218 -58.370850971749135 54.889898200083444 -57.45900742032423 54.64163075357244 -57.165695777950816 L 53.168330742076975 -55.61590245695121 A 3 3 0 0 0 53.1793 -51.4583A 74 74 0 0 1 55.2885 -49.1851A 3 3 0 0 0 59.4337 -48.8635L 61.08922307820601 -50.21684387621508 C 61.40026761125045 -50.44249791010777 62.36271909241315 -51.08369502218905 64.19017080630026 -51.82701315290641 C 66.38106938156707 -52.7104391433279 69.73372324149294 -53.6933559049929 74.4091575016219 -54.11899379275901 A 92 92 0 0 1 77.5627 -49.4936C 75.45832537049789 -45.296906712726454 73.31849196443031 -42.53510906280441 71.69570877130609 -40.818410849439026 C 70.33613035539835 -39.388848629373044 69.38763378602448 -38.727183420963506 69.06394104127209 -38.5200809063879 L 67.19928601489052 -37.47340335609964 A 3 3 0 0 0 65.9843 -33.4973A 74 74 0 0 1 67.3298 -30.7034A 3 3 0 0 0 71.196 -29.1742L 73.17687487523571 -29.97948579747615 C 73.54061326651801 -30.10343267019288 74.64930189540894 -30.43245563945421 76.61466192234913 -30.604099382561213 C 78.96861940299551 -30.802498543263304 82.46204406027056 -30.75353499783992 87.05522086433506 -29.782154547710434 A 92 92 0 0 1 88.7053 -24.4328C 85.45742133259435 -21.042760385577203 82.59860057285304 -19.03438862504335 80.54190740252533 -17.87228223973015 C 78.82136037944332 -16.906974231162025 77.71997360746182 -16.554279223204993 77.34961708534149 -16.451787803701656 L 75.25928982607162 -16.001227917736596 A 3 3 0 0 0 72.9263 -12.5599A 74 74 0 0 1 73.3885 -9.49353A 3 3 0 0 0 76.6322 -6.89273" stroke="#191919" stroke-width="0.35 px" style="stroke-width:0.35;stroke-miterlimit:4;stroke-dasharray:none;fill:none;fill-rule: evenodd "/>
<title>b'InvoluteGear'</title>
</g>
</svg>