<?xml version="1.0"?>
<!DOCTYPE svg PUBLIC "-//W3C//DTD SVG 1.1//EN" "http://www.w3.org/Graphics/SVG/1.1/DTD/svg11.dtd">
<svg width="505.88254724775123mm" height="505.88254724775123mm" viewBox="0 0 505.88254724775123 505.88254724775123" xmlns="http://www.w3.org/2000/svg" version="1.1">
<g id="InvoluteGear" transform="translate(252.941274,252.941274) scale(1,-1)">
<path id="InvoluteGear_w0000"  d="M 231.84499192784307 -8.47937014042757 C 233.0628033567661 -8.23220376874454 234.44469397655794 -7.908338651252467 235.98308101712973 -7.484672780325829 C 239.29894059268557 -6.571287784370274 243.3313207968292 -5.198073498446455 247.9816408077212 -3.14192298123176 A 248 248 0 0 1 247.982 3.14192C 243.3313207968292 5.198073498446455 239.29894059268557 6.571287784370274 235.98308101712973 7.484672780325829 C 234.44469397655794 7.908338651252467 233.0628033567661 8.23220376874454 231.84506667134622 8.4793486062904 A 3 3 0 0 0 229.719 11.3647A 230 230 0 0 1 229.649 12.7097A 3 3 0 0 0 231.461 15.8015C 232.64656054346725 16.174589784584406 233.9870278988168 16.641127637967116 235.47270235178934 17.223277856185767 C 238.67492257164722 18.478260939408614 242.54167299607283 20.265451119842403 246.95159181356271 22.796428633826572 A 248 248 0 0 1 246.295 29.0459C 241.454979726583 30.604646935719522 237.30114934406774 31.548840104053227 233.90797966421195 32.1106197755877 C 232.3337349263856 32.37115952728267 230.92556132496114 32.54880357488373 229.68866185844468 32.66730638275874 A 3 3 0 0 0 227.273 35.3146A 230 230 0 0 1 227.062 36.6449A 3 3 0 0 0 228.542 39.9092C 229.6813933284315 40.40417114748292 230.96575097848282 41.00827025040529 232.38243548365193 41.74252665630239 C 235.43593215297543 43.32535796951065 239.09468787086345 45.50694321484398 243.21588950155197 48.48501780631332 A 248 248 0 0 1 241.909 54.6315C 236.9332073707495 55.67590945673074 232.70343704477838 56.180736729536946 229.27013353770155 56.38475610100906 C 227.67727885740013 56.479315205431334 226.2582505189995 56.508791877781455 225.0157400007795 56.49735431442423 A 3 3 0 0 0 222.336 58.8777A 230 230 0 0 1 221.988 60.1786A 3 3 0 0 0 223.118 63.5797C 224.19978870416793 64.19107595617325 225.41396495773785 64.92611767244777 226.74613802320465 65.8044355991873 C 229.61745639349934 67.69777331128469 233.02813131156083 70.24985171704364 236.8154630079652 73.64239497757185 A 248 248 0 0 1 234.874 79.6187C 229.81554521350083 80.13717506280094 225.55617719290152 80.19710544683687 222.12035585029213 80.04112923931898 C 220.5263428767193 79.96867168713275 219.11200697276882 79.84965803164127 217.87749860809487 79.70840540938941 A 3 3 0 0 0 214.964 81.7956A 230 230 0 0 1 214.481 83.053A 3 3 0 0 0 215.25 86.5536C 216.2618042780395 87.27468990384149 217.39249636601116 88.13262096260733 218.6255624248953 89.14537737518405 C 221.28324373123428 91.32847768199048 224.40846978133726 94.2230881431048 227.82043674484163 97.9929306587942 A 248 248 0 0 1 225.265 103.734C 220.17997585089847 103.72044100910108 215.93767666303472 103.33481789453802 212.5369810625142 102.8205550159998 C 210.95927413537711 102.58187466730955 209.56512642600927 102.31567462249124 208.35214574686228 102.04615453463316 A 3 3 0 0 0 205.236 103.817A 230 230 0 0 1 204.625 105.017A 3 3 0 0 0 205.023 108.579C 205.95441026854886 109.40210408552026 206.98923009179398 110.37352481456395 208.1096794143186 111.50962374178879 C 210.52460554415407 113.95856813949976 213.33014209569802 117.16399669802131 216.32936210225026 121.26983528537974 A 248 248 0 0 1 213.187 126.712C 208.1320685972516 126.16732409880787 203.9533177597838 125.34037245318578 200.6250066339928 124.47345727534092 C 199.08089144054154 124.07116916199396 197.72220649980434 123.6606992712458 196.54404317633754 123.26586463626475 A 3 3 0 0 0 193.26 124.702A 230 230 0 0 1 192.527 125.831A 3 3 0 0 0 192.551 129.415C 193.39053664142486 130.330885920976 194.31814649741 131.40515323150726 195.31370320632843 132.65214733578952 C 197.45941572362614 135.34010467710917 199.91452473105608 138.82123198697175 202.46813769863724 143.21808221923416 A 248 248 0 0 1 198.775 148.302C 193.80382284561773 147.2318915834782 189.73440362718105 145.97267166207726 186.51494264930759 144.7626022890279 C 185.02133683872853 144.20111396377825 183.71300070315576 143.65087142111966 182.58256293928758 143.13504812990095 A 3 3 0 0 0 179.167 144.22A 230 230 0 0 1 178.319 145.266A 3 3 0 0 0 177.968 148.833C 178.70783582528588 149.8317352967902 179.51807262631402 150.99707929135 180.37782919398973 152.34130624433294 C 182.2308192233909 155.23882670613847 184.30860199865685 158.9575128080625 186.38863000921626 163.59720187398415 A 248 248 0 0 1 182.184 168.267C 177.35222185483008 166.68335565370583 173.4367196639624 165.00566373349363 170.36138192219562 163.4656979385142 C 168.9346497523065 162.75116118495228 167.69099682638648 162.0671745628262 166.6206699348172 161.43601408329147 A 3 3 0 0 0 163.11 162.158A 230 230 0 0 1 162.158 163.11A 3 3 0 0 0 161.436 166.621C 162.06717456282627 167.69099682638648 162.75116118495234 168.93464975230648 163.46569793851424 170.3613819221956 C 165.0056637334937 173.43671966396238 166.6833556537059 177.35222185483005 168.26700948508596 182.18391635008737 A 248 248 0 0 1 163.597 186.389C 158.95751280806255 184.30860199865683 155.23882670613852 182.23081922339088 152.34130624433297 180.3778291939897 C 150.99707929135005 179.518072626314 149.83173529679027 178.70783582528588 148.83324600292417 177.96825328372762 A 3 3 0 0 0 145.266 178.319A 230 230 0 0 1 144.22 179.167A 3 3 0 0 0 143.135 182.582C 143.6508714211197 183.71300070315576 144.20111396377828 185.02133683872847 144.76260228902794 186.51494264930756 C 145.9726716620773 189.73440362718102 147.23189158347822 193.8038228456177 148.30182039290156 198.77458571422355 A 248 248 0 0 1 143.218 202.468C 138.82123198697178 199.91452473105605 135.3401046771092 197.4594157236261 132.65214733578955 195.3137032063284 C 131.40515323150728 194.31814649741 130.33088592097602 193.39053664142486 129.41517388246407 192.55063505893602 A 3 3 0 0 0 125.831 192.527A 230 230 0 0 1 124.702 193.26A 3 3 0 0 0 123.266 196.544C 123.66069927124585 197.7222064998043 124.07116916199399 199.0808914405415 124.47345727534096 200.62500663399277 C 125.34037245318582 203.95331775978377 126.16732409880791 208.13206859725156 126.71180552234146 213.18743912101849 A 248 248 0 0 1 121.27 216.329C 117.16399669802135 213.330142095698 113.9585681394998 210.52460554415404 111.50962374178883 208.10967941431858 C 110.373524814564 206.98923009179396 109.4021040855203 205.95441026854886 108.57920203508148 205.0233917826279 A 3 3 0 0 0 105.017 204.625A 230 230 0 0 1 103.817 205.236A 3 3 0 0 0 102.046 208.352C 102.3156746224913 209.56512642600927 102.5818746673096 210.95927413537711 102.82055501599986 212.5369810625142 C 103.33481789453808 215.93767666303472 103.72044100910114 220.17997585089847 103.73350959432861 225.2645663324638 A 248 248 0 0 1 97.9929 227.82C 94.22308814310486 224.40846978133726 91.32847768199053 221.28324373123428 89.14537737518411 218.6255624248953 C 88.13262096260739 217.39249636601116 87.27468990384155 216.2618042780395 86.55361372854377 215.24986932204632 A 3 3 0 0 0 83.053 214.481A 230 230 0 0 1 81.7956 214.964A 3 3 0 0 0 79.7084 217.877C 79.8496580316413 219.11200697276882 79.96867168713277 220.5263428767193 80.04112923931899 222.12035585029213 C 80.19710544683689 225.55617719290152 80.13717506280095 229.81554521350083 79.61868762756778 234.87364781552958 A 248 248 0 0 1 73.6424 236.815C 70.24985171704365 233.02813131156083 67.6977733112847 229.61745639349934 65.80443559918731 226.74613802320465 C 64.92611767244779 225.41396495773785 64.19107595617325 224.19978870416793 63.57972591748799 223.1180242492414 A 3 3 0 0 0 60.1786 221.988A 230 230 0 0 1 58.8777 222.336A 3 3 0 0 0 56.4974 225.016C 56.50879187778149 226.2582505189995 56.47931520543137 227.6772788574001 56.38475610100909 229.2701335377015 C 56.18073672953698 232.70343704477835 55.67590945673078 236.93320737074947 54.631546657877855 241.9094044626578 A 248 248 0 0 1 48.485 243.216C 45.506943214844014 239.09468787086342 43.325357969510684 235.4359321529754 41.74252665630243 232.38243548365193 C 41.008270250405324 230.9657509784828 40.404171147482955 229.6813933284315 39.90924532436726 228.54165141231354 A 3 3 0 0 0 36.6449 227.062A 230 230 0 0 1 35.3146 227.273A 3 3 0 0 0 32.6673 229.689C 32.54880357488378 230.92556132496114 32.371159527282714 232.33373492638557 32.11061977558775 233.90797966421195 C 31.548840104053276 237.30114934406774 30.604646935719572 241.454979726583 29.045851030618117 246.29475105169573 A 248 248 0 0 1 22.7964 246.952C 20.265451119842453 242.54167299607283 18.478260939408663 238.67492257164722 17.223277856185817 235.47270235178934 C 16.641127637967163 233.98702789881682 16.174589784584448 232.64656054346725 15.801510687926271 231.4613284170972 A 3 3 0 0 0 12.7097 229.649A 230 230 0 0 1 11.3647 229.719A 3 3 0 0 0 8.47937 231.845C 8.232203768744554 233.0628033567661 7.908338651252481 234.44469397655794 7.484672780325843 235.98308101712973 C 6.571287784370289 239.29894059268557 5.19807349844647 243.3313207968292 3.141922981231775 247.9816408077212 A 248 248 0 0 1 -3.14192 247.982C -5.19807349844644 243.3313207968292 -6.57128778437026 239.29894059268557 -7.484672780325814 235.98308101712973 C -7.9083386512524525 234.44469397655794 -8.232203768744526 233.0628033567661 -8.479348606290387 231.84506667134622 A 3 3 0 0 0 -11.3647 229.719A 230 230 0 0 1 -12.7097 229.649A 3 3 0 0 0 -15.8015 231.461C -16.174589784584377 232.64656054346727 -16.641127637967084 233.98702789881682 -17.22327785618574 235.47270235178937 C -18.478260939408585 238.67492257164724 -20.26545111984237 242.54167299607286 -22.79642863382654 246.95159181356274 A 248 248 0 0 1 -29.0459 246.295C -30.60464693571949 241.45497972658302 -31.5488401040532 237.30114934406777 -32.11061977558767 233.90797966421198 C -32.37115952728264 232.33373492638563 -32.5488035748837 230.92556132496117 -32.66730638275871 229.68866185844468 A 3 3 0 0 0 -35.3146 227.273A 230 230 0 0 1 -36.6449 227.062A 3 3 0 0 0 -39.9092 228.542C -40.40417114748288 229.6813933284315 -41.008270250405246 230.96575097848282 -41.742526656302346 232.38243548365193 C -43.3253579695106 235.43593215297543 -45.50694321484393 239.09468787086345 -48.48501780631328 243.21588950155197 A 248 248 0 0 1 -54.6315 241.909C -55.67590945673069 236.9332073707495 -56.180736729536896 232.70343704477838 -56.38475610100902 229.27013353770155 C -56.47931520543129 227.67727885740013 -56.50879187778141 226.2582505189995 -56.49735431442418 225.0157400007795 A 3 3 0 0 0 -58.8777 222.336A 230 230 0 0 1 -60.1786 221.988A 3 3 0 0 0 -63.5797 223.118C -64.19107595617322 224.19978870416796 -64.92611767244776 225.41396495773787 -65.80443559918729 226.74613802320468 C -67.69777331128468 229.61745639349937 -70.24985171704363 233.02813131156086 -73.64239497757184 236.81546300796523 A 248 248 0 0 1 -79.6187 234.874C -80.13717506280092 229.81554521350085 -80.19710544683686 225.55617719290154 -80.04112923931896 222.12035585029216 C -79.96867168713274 220.52634287671933 -79.84965803164127 219.11200697276885 -79.7084054093894 217.8774986080949 A 3 3 0 0 0 -81.7956 214.964A 230 230 0 0 1 -83.053 214.481A 3 3 0 0 0 -86.5536 215.25C -87.27468990384148 216.2618042780395 -88.13262096260732 217.3924963660112 -89.14537737518404 218.62556242489532 C -91.32847768199046 221.2832437312343 -94.22308814310479 224.4084697813373 -97.99293065879418 227.82043674484166 A 248 248 0 0 1 -103.734 225.265C -103.72044100910107 220.1799758508985 -103.334817894538 215.93767666303475 -102.82055501599979 212.53698106251423 C -102.58187466730953 210.95927413537714 -102.31567462249123 209.56512642600927 -102.04615453463315 208.3521457468623 A 3 3 0 0 0 -103.817 205.236A 230 230 0 0 1 -105.017 204.625A 3 3 0 0 0 -108.579 205.023C -109.40210408552022 205.95441026854888 -110.37352481456391 206.989230091794 -111.50962374178874 208.10967941431863 C -113.9585681394997 210.5246055441541 -117.16399669802126 213.33014209569805 -121.2698352853797 216.3293621022503 A 248 248 0 0 1 -126.712 213.187C -126.16732409880782 208.13206859725162 -125.34037245318575 203.95331775978383 -124.47345727534088 200.62500663399283 C -124.07116916199392 199.08089144054156 -123.66069927124576 197.72220649980437 -123.26586463626471 196.54404317633757 A 3 3 0 0 0 -124.702 193.26A 230 230 0 0 1 -125.831 192.527A 3 3 0 0 0 -129.415 192.551C -130.33088592097596 193.39053664142486 -131.40515323150726 194.31814649741 -132.65214733578952 195.31370320632843 C -135.34010467710917 197.45941572362614 -138.82123198697172 199.91452473105608 -143.21808221923413 202.46813769863724 A 248 248 0 0 1 -148.302 198.775C -147.23189158347816 193.80382284561773 -145.97267166207726 189.73440362718105 -144.7626022890279 186.51494264930759 C -144.20111396377825 185.02133683872853 -143.65087142111963 183.71300070315576 -143.13504812990092 182.58256293928758 A 3 3 0 0 0 -144.22 179.167A 230 230 0 0 1 -145.266 178.319A 3 3 0 0 0 -148.833 177.968C -149.83173529679016 178.70783582528594 -150.99707929134996 179.51807262631405 -152.34130624433288 180.37782919398978 C -155.23882670613844 182.23081922339094 -158.95751280806243 184.3086019986569 -163.5972018739841 186.3886300092163 A 248 248 0 0 1 -168.267 182.184C -166.68335565370577 177.35222185483013 -165.0056637334936 173.4367196639625 -163.46569793851415 170.36138192219568 C -162.75116118495225 168.93464975230654 -162.06717456282615 167.69099682638654 -161.4360140832914 166.62066993481724 A 3 3 0 0 0 -162.158 163.11A 230 230 0 0 1 -163.11 162.158A 3 3 0 0 0 -166.621 161.436C -167.69099682638645 162.06717456282627 -168.93464975230646 162.75116118495234 -170.36138192219556 163.46569793851424 C -173.43671966396235 165.0056637334937 -177.35222185483002 166.6833556537059 -182.18391635008734 168.26700948508596 A 248 248 0 0 1 -186.389 163.597C -184.3086019986568 158.95751280806255 -182.23081922339085 155.23882670613852 -180.37782919398967 152.34130624433297 C -179.51807262631397 150.99707929135005 -178.70783582528585 149.83173529679027 -177.9682532837276 148.83324600292417 A 3 3 0 0 0 -178.319 145.266A 230 230 0 0 1 -179.167 144.22A 3 3 0 0 0 -182.582 143.135C -183.71300070315576 143.6508714211197 -185.02133683872847 144.20111396377828 -186.51494264930756 144.76260228902794 C -189.73440362718102 145.9726716620773 -193.8038228456177 147.23189158347822 -198.77458571422355 148.30182039290156 A 248 248 0 0 1 -202.468 143.218C -199.91452473105605 138.82123198697178 -197.4594157236261 135.3401046771092 -195.3137032063284 132.65214733578955 C -194.31814649741 131.40515323150728 -193.39053664142486 130.33088592097602 -192.55063505893602 129.41517388246407 A 3 3 0 0 0 -192.527 125.831A 230 230 0 0 1 -193.26 124.702A 3 3 0 0 0 -196.544 123.266C -197.72220649980426 123.66069927124589 -199.08089144054148 124.07116916199404 -200.62500663399274 124.47345727534102 C -203.95331775978374 125.34037245318588 -208.13206859725153 126.16732409880797 -213.18743912101846 126.71180552234152 A 248 248 0 0 1 -216.329 121.27C -213.33014209569797 117.1639966980214 -210.524605544154 113.95856813949986 -208.10967941431855 111.50962374178889 C -206.98923009179393 110.37352481456405 -205.95441026854883 109.40210408552035 -205.02339178262787 108.57920203508152 A 3 3 0 0 0 -204.625 105.017A 230 230 0 0 1 -205.236 103.817A 3 3 0 0 0 -208.352 102.046C -209.56512642600924 102.31567462249131 -210.9592741353771 102.58187466730962 -212.53698106251417 102.82055501599987 C -215.9376766630347 103.33481789453809 -220.17997585089844 103.72044100910115 -225.26456633246377 103.73350959432862 A 248 248 0 0 1 -227.82 97.9929C -224.40846978133723 94.22308814310487 -221.28324373123425 91.32847768199055 -218.62556242489526 89.14537737518413 C -217.39249636601113 88.1326209626074 -216.26180427803948 87.27468990384156 -215.2498693220463 86.55361372854378 A 3 3 0 0 0 -214.481 83.053A 230 230 0 0 1 -214.964 81.7956A 3 3 0 0 0 -217.877 79.7084C -219.11200697276882 79.8496580316413 -220.5263428767193 79.96867168713278 -222.12035585029213 80.041129239319 C -225.55617719290152 80.1971054468369 -229.81554521350083 80.13717506280096 -234.87364781552958 79.6186876275678 A 248 248 0 0 1 -236.815 73.6424C -233.02813131156083 70.24985171704367 -229.61745639349934 67.69777331128472 -226.74613802320465 65.80443559918733 C -225.41396495773785 64.9261176724478 -224.19978870416793 64.19107595617328 -223.1180242492414 63.579725917488005 A 3 3 0 0 0 -221.988 60.1786A 230 230 0 0 1 -222.336 58.8777A 3 3 0 0 0 -225.016 56.4974C -226.2582505189995 56.50879187778155 -227.6772788574001 56.47931520543143 -229.2701335377015 56.38475610100915 C -232.70343704477835 56.180736729537045 -236.93320737074947 55.675909456730835 -241.9094044626578 54.63154665787793 A 248 248 0 0 1 -243.216 48.485C -239.09468787086342 45.506943214844085 -235.4359321529754 43.32535796951075 -232.38243548365193 41.742526656302495 C -230.9657509784828 41.00827025040539 -229.6813933284315 40.40417114748303 -228.54165141231354 39.90924532436733 A 3 3 0 0 0 -227.062 36.6449A 230 230 0 0 1 -227.273 35.3146A 3 3 0 0 0 -229.689 32.6673C -230.92556132496114 32.54880357488379 -232.33373492638557 32.371159527282735 -233.90797966421195 32.110619775587764 C -237.30114934406774 31.548840104053294 -241.454979726583 30.60464693571959 -246.29475105169573 29.04585103061813 A 248 248 0 0 1 -246.952 22.7964C -242.54167299607283 20.26545111984247 -238.67492257164722 18.47826093940868 -235.47270235178934 17.223277856185835 C -233.98702789881682 16.64112763796718 -232.64656054346725 16.17458978458447 -231.4613284170972 15.801510687926289 A 3 3 0 0 0 -229.649 12.7097A 230 230 0 0 1 -229.719 11.3647A 3 3 0 0 0 -231.845 8.47937C -233.0628033567661 8.232203768744569 -234.44469397655794 7.908338651252495 -235.98308101712973 7.484672780325858 C -239.29894059268557 6.571287784370304 -243.3313207968292 5.198073498446485 -247.9816408077212 3.14192298123179 A 248 248 0 0 1 -247.982 -3.14192C -243.3313207968292 -5.1980734984464245 -239.29894059268557 -6.571287784370245 -235.98308101712973 -7.484672780325799 C -234.44469397655794 -7.908338651252438 -233.0628033567661 -8.232203768744512 -231.84506667134622 -8.479348606290372 A 3 3 0 0 0 -229.719 -11.3647A 230 230 0 0 1 -229.649 -12.7097A 3 3 0 0 0 -231.461 -15.8015C -232.64656054346727 -16.174589784584306 -233.98702789881682 -16.64112763796702 -235.47270235178937 -17.223277856185675 C -238.67492257164724 -18.478260939408518 -242.54167299607286 -20.265451119842304 -246.95159181356271 -22.79642863382647 A 248 248 0 0 1 -246.295 -29.0459C -241.45497972658302 -30.604646935719423 -237.30114934406777 -31.54884010405313 -233.90797966421198 -32.11061977558761 C -232.33373492638563 -32.37115952728258 -230.92556132496117 -32.548803574883635 -229.6886618584447 -32.66730638275864 A 3 3 0 0 0 -227.273 -35.3146A 230 230 0 0 1 -227.062 -36.6449A 3 3 0 0 0 -228.542 -39.9092C -229.6813933284315 -40.40417114748286 -230.96575097848282 -41.00827025040523 -232.38243548365193 -41.74252665630233 C -235.43593215297543 -43.325357969510584 -239.09468787086345 -45.506943214843915 -243.21588950155197 -48.485017806313266 A 248 248 0 0 1 -241.909 -54.6315C -236.9332073707495 -55.67590945673068 -232.70343704477838 -56.18073672953688 -229.27013353770155 -56.384756101009 C -227.67727885740013 -56.47931520543128 -226.2582505189995 -56.5087918777814 -225.0157400007795 -56.49735431442417 A 3 3 0 0 0 -222.336 -58.8777A 230 230 0 0 1 -221.988 -60.1786A 3 3 0 0 0 -223.118 -63.5797C -224.19978870416796 -64.19107595617321 -225.41396495773787 -64.92611767244776 -226.74613802320468 -65.80443559918727 C -229.61745639349937 -67.69777331128466 -233.02813131156086 -70.24985171704361 -236.81546300796523 -73.64239497757183 A 248 248 0 0 1 -234.874 -79.6187C -229.81554521350085 -80.1371750628009 -225.55617719290154 -80.19710544683684 -222.12035585029216 -80.04112923931895 C -220.52634287671933 -79.96867168713274 -219.11200697276885 -79.84965803164125 -217.8774986080949 -79.70840540938939 A 3 3 0 0 0 -214.964 -81.7956A 230 230 0 0 1 -214.481 -83.053A 3 3 0 0 0 -215.25 -86.5536C -216.2618042780395 -87.27468990384142 -217.39249636601122 -88.13262096260726 -218.62556242489535 -89.14537737518397 C -221.28324373123434 -91.3284776819904 -224.40846978133732 -94.22308814310473 -227.8204367448417 -97.99293065879411 A 248 248 0 0 1 -225.265 -103.734C -220.17997585089853 -103.72044100910101 -215.93767666303478 -103.33481789453795 -212.53698106251426 -102.82055501599972 C -210.95927413537717 -102.58187466730948 -209.56512642600933 -102.31567462249117 -208.3521457468623 -102.04615453463308 A 3 3 0 0 0 -205.236 -103.817A 230 230 0 0 1 -204.625 -105.017A 3 3 0 0 0 -205.023 -108.579C -205.95441026854888 -109.40210408552022 -206.989230091794 -110.37352481456391 -208.10967941431863 -111.50962374178874 C -210.5246055441541 -113.9585681394997 -213.33014209569805 -117.16399669802126 -216.3293621022503 -121.2698352853797 A 248 248 0 0 1 -213.187 -126.712C -208.13206859725162 -126.16732409880782 -203.95331775978383 -125.34037245318575 -200.62500663399283 -124.47345727534088 C -199.08089144054156 -124.07116916199392 -197.72220649980437 -123.66069927124576 -196.54404317633757 -123.26586463626471 A 3 3 0 0 0 -193.26 -124.702A 230 230 0 0 1 -192.527 -125.831A 3 3 0 0 0 -192.551 -129.415C -193.39053664142486 -130.33088592097596 -194.31814649741 -131.40515323150726 -195.31370320632843 -132.65214733578952 C -197.45941572362614 -135.34010467710917 -199.91452473105608 -138.82123198697172 -202.46813769863724 -143.21808221923413 A 248 248 0 0 1 -198.775 -148.302C -193.80382284561773 -147.23189158347816 -189.73440362718105 -145.97267166207726 -186.51494264930759 -144.7626022890279 C -185.02133683872853 -144.20111396377825 -183.71300070315576 -143.65087142111963 -182.58256293928758 -143.13504812990092 A 3 3 0 0 0 -179.167 -144.22A 230 230 0 0 1 -178.319 -145.266A 3 3 0 0 0 -177.968 -148.833C -178.70783582528594 -149.83173529679016 -179.51807262631405 -150.99707929134996 -180.37782919398978 -152.34130624433288 C -182.23081922339094 -155.23882670613844 -184.3086019986569 -158.95751280806243 -186.3886300092163 -163.5972018739841 A 248 248 0 0 1 -182.184 -168.267C -177.35222185483013 -166.68335565370577 -173.4367196639625 -165.0056637334936 -170.36138192219568 -163.46569793851415 C -168.93464975230654 -162.75116118495225 -167.69099682638654 -162.06717456282615 -166.62066993481724 -161.4360140832914 A 3 3 0 0 0 -163.11 -162.158A 230 230 0 0 1 -162.158 -163.11A 3 3 0 0 0 -161.436 -166.621C -162.0671745628263 -167.69099682638645 -162.75116118495237 -168.93464975230646 -163.46569793851427 -170.36138192219556 C -165.00566373349372 -173.43671966396235 -166.6833556537059 -177.35222185483002 -168.267009485086 -182.18391635008734 A 248 248 0 0 1 -163.597 -186.389C -158.95751280806255 -184.3086019986568 -155.23882670613855 -182.23081922339085 -152.341306244333 -180.37782919398967 C -150.99707929135008 -179.51807262631397 -149.8317352967903 -178.70783582528585 -148.83324600292417 -177.9682532837276 A 3 3 0 0 0 -145.266 -178.319A 230 230 0 0 1 -144.22 -179.167A 3 3 0 0 0 -143.135 -182.582C -143.6508714211197 -183.71300070315576 -144.20111396377828 -185.02133683872847 -144.76260228902794 -186.51494264930756 C -145.9726716620773 -189.73440362718102 -147.23189158347822 -193.8038228456177 -148.30182039290156 -198.77458571422355 A 248 248 0 0 1 -143.218 -202.468C -138.82123198697178 -199.91452473105605 -135.3401046771092 -197.4594157236261 -132.65214733578955 -195.3137032063284 C -131.40515323150728 -194.31814649741 -130.33088592097602 -193.39053664142486 -129.41517388246407 -192.55063505893602 A 3 3 0 0 0 -125.831 -192.527A 230 230 0 0 1 -124.702 -193.26A 3 3 0 0 0 -123.266 -196.544C -123.66069927124592 -197.72220649980423 -124.07116916199406 -199.08089144054145 -124.47345727534103 -200.6250066339927 C -125.34037245318589 -203.95331775978372 -126.167324098808 -208.1320685972515 -126.71180552234155 -213.18743912101843 A 248 248 0 0 1 -121.27 -216.329C -117.16399669802144 -213.33014209569794 -113.95856813949987 -210.52460554415399 -111.5096237417889 -208.10967941431852 C -110.37352481456408 -206.9892300917939 -109.40210408552038 -205.9544102685488 -108.57920203508155 -205.02339178262784 A 3 3 0 0 0 -105.017 -204.625A 230 230 0 0 1 -103.817 -205.236A 3 3 0 0 0 -102.046 -208.352C -102.31567462249141 -209.56512642600921 -102.58187466730972 -210.95927413537706 -102.82055501599997 -212.53698106251414 C -103.3348178945382 -215.93767666303467 -103.72044100910126 -220.17997585089842 -103.73350959432872 -225.26456633246374 A 248 248 0 0 1 -97.9929 -227.82C -94.22308814310499 -224.4084697813372 -91.32847768199066 -221.28324373123422 -89.14537737518422 -218.62556242489524 C -88.1326209626075 -217.3924963660111 -87.27468990384166 -216.26180427803945 -86.55361372854388 -215.24986932204627 A 3 3 0 0 0 -83.053 -214.481A 230 230 0 0 1 -81.7956 -214.964A 3 3 0 0 0 -79.7084 -217.877C -79.84965803164133 -219.11200697276882 -79.9686716871328 -220.5263428767193 -80.041129239319 -222.12035585029213 C -80.19710544683691 -225.55617719290152 -80.13717506280098 -229.81554521350083 -79.61868762756781 -234.87364781552958 A 248 248 0 0 1 -73.6424 -236.815C -70.24985171704368 -233.02813131156083 -67.69777331128473 -229.61745639349934 -65.80443559918733 -226.74613802320465 C -64.92611767244782 -225.41396495773785 -64.19107595617328 -224.19978870416793 -63.57972591748802 -223.1180242492414 A 3 3 0 0 0 -60.1786 -221.988A 230 230 0 0 1 -58.8777 -222.336A 3 3 0 0 0 -56.4974 -225.016C -56.508791877781576 -226.2582505189995 -56.479315205431455 -227.6772788574001 -56.384756101009174 -229.2701335377015 C -56.18073672953707 -232.70343704477835 -55.675909456730864 -236.93320737074947 -54.63154665787795 -241.9094044626578 A 248 248 0 0 1 -48.485 -243.216C -45.5069432148441 -239.09468787086342 -43.32535796951077 -235.4359321529754 -41.742526656302516 -232.38243548365193 C -41.00827025040541 -230.9657509784828 -40.40417114748304 -229.6813933284315 -39.90924532436735 -228.54165141231354 A 3 3 0 0 0 -36.6449 -227.062A 230 230 0 0 1 -35.3146 -227.273A 3 3 0 0 0 -32.6673 -229.689C -32.54880357488391 -230.92556132496114 -32.371159527282856 -232.33373492638557 -32.110619775587885 -233.90797966421195 C -31.54884010405341 -237.30114934406774 -30.60464693571971 -241.454979726583 -29.04585103061826 -246.29475105169573 A 248 248 0 0 1 -22.7964 -246.952C -20.26545111984259 -242.54167299607283 -18.4782609394088 -238.67492257164722 -17.223277856185952 -235.47270235178934 C -16.641127637967298 -233.98702789881682 -16.174589784584583 -232.64656054346725 -15.801510687926402 -231.4613284170972 A 3 3 0 0 0 -12.7097 -229.649A 230 230 0 0 1 -11.3647 -229.719A 3 3 0 0 0 -8.47937 -231.845C -8.232203768744583 -233.0628033567661 -7.908338651252509 -234.44469397655794 -7.484672780325872 -235.98308101712973 C -6.571287784370318 -239.29894059268557 -5.198073498446499 -243.3313207968292 -3.1419229812318057 -247.9816408077212 A 248 248 0 0 1 3.14192 -247.982C 5.19807349844641 -243.3313207968292 6.571287784370231 -239.29894059268557 7.484672780325785 -235.98308101712973 C 7.908338651252424 -234.44469397655794 8.232203768744498 -233.0628033567661 8.479348606290358 -231.84506667134622 A 3 3 0 0 0 11.3647 -229.719A 230 230 0 0 1 12.7097 -229.649A 3 3 0 0 0 15.8015 -231.461C 16.1745897845843 -232.64656054346727 16.641127637967006 -233.98702789881682 17.22327785618566 -235.47270235178937 C 18.478260939408504 -238.67492257164724 20.26545111984229 -242.54167299607286 22.79642863382646 -246.95159181356271 A 248 248 0 0 1 29.0459 -246.295C 30.60464693571941 -241.45497972658302 31.548840104053117 -237.30114934406777 32.110619775587594 -233.90797966421198 C 32.371159527282565 -232.33373492638563 32.54880357488362 -230.92556132496117 32.66730638275863 -229.6886618584447 A 3 3 0 0 0 35.3146 -227.273A 230 230 0 0 1 36.6449 -227.062A 3 3 0 0 0 39.9092 -228.542C 40.40417114748275 -229.68139332843154 41.00827025040512 -230.96575097848282 41.74252665630222 -232.38243548365196 C 43.32535796951047 -235.4359321529754 45.506943214843794 -239.09468787086348 48.48501780631313 -243.215889501552 A 248 248 0 0 1 54.6315 -241.909C 55.67590945673056 -236.93320737074953 56.18073672953677 -232.7034370447784 56.384756101008875 -229.27013353770158 C 56.47931520543116 -227.67727885740013 56.508791877781285 -226.25825051899952 56.49735431442405 -225.01574000077952 A 3 3 0 0 0 58.8777 -222.336A 230 230 0 0 1 60.1786 -221.988A 3 3 0 0 0 63.5797 -223.118C 64.1910759561732 -224.19978870416796 64.92611767244775 -225.41396495773787 65.80443559918726 -226.74613802320468 C 67.69777331128466 -229.61745639349937 70.2498517170436 -233.02813131156086 73.64239497757181 -236.81546300796523 A 248 248 0 0 1 79.6187 -234.874C 80.13717506280089 -229.81554521350085 80.19710544683684 -225.55617719290154 80.04112923931893 -222.12035585029216 C 79.96867168713273 -220.52634287671933 79.84965803164124 -219.11200697276885 79.70840540938937 -217.8774986080949 A 3 3 0 0 0 81.7956 -214.964A 230 230 0 0 1 83.053 -214.481A 3 3 0 0 0 86.5536 -215.25C 87.2746899038414 -216.2618042780395 88.13262096260725 -217.39249636601122 89.14537737518397 -218.62556242489535 C 91.32847768199039 -221.28324373123434 94.22308814310472 -224.40846978133732 97.9929306587941 -227.8204367448417 A 248 248 0 0 1 103.734 -225.265C 103.720441009101 -220.17997585089853 103.33481789453793 -215.93767666303478 102.82055501599972 -212.53698106251426 C 102.58187466730946 -210.95927413537717 102.31567462249116 -209.56512642600933 102.04615453463306 -208.3521457468623 A 3 3 0 0 0 103.817 -205.236A 230 230 0 0 1 105.017 -204.625A 3 3 0 0 0 108.579 -205.023C 109.40210408552011 -205.95441026854894 110.3735248145638 -206.98923009179407 111.50962374178862 -208.10967941431866 C 113.95856813949959 -210.52460554415416 117.16399669802115 -213.3301420956981 121.26983528537957 -216.32936210225034 A 248 248 0 0 1 126.712 -213.187C 126.16732409880771 -208.13206859725167 125.34037245318564 -203.95331775978389 124.47345727534078 -200.62500663399285 C 124.07116916199381 -199.08089144054162 123.66069927124565 -197.72220649980443 123.26586463626461 -196.5440431763376 A 3 3 0 0 0 124.702 -193.26A 230 230 0 0 1 125.831 -192.527A 3 3 0 0 0 129.415 -192.551C 130.33088592097593 -193.3905366414249 131.40515323150723 -194.31814649741003 132.6521473357895 -195.31370320632846 C 135.34010467710914 -197.45941572362614 138.8212319869717 -199.9145247310561 143.2180822192341 -202.46813769863726 A 248 248 0 0 1 148.302 -198.775C 147.23189158347813 -193.80382284561776 145.97267166207723 -189.7344036271811 144.76260228902788 -186.5149426493076 C 144.20111396377823 -185.02133683872856 143.6508714211196 -183.71300070315579 143.1350481299009 -182.5825629392876 A 3 3 0 0 0 144.22 -179.167A 230 230 0 0 1 145.266 -178.319A 3 3 0 0 0 148.833 -177.968C 149.8317352967901 -178.707835825286 150.99707929134993 -179.5180726263141 152.34130624433286 -180.3778291939898 C 155.2388267061384 -182.230819223391 158.9575128080624 -184.30860199865697 163.59720187398406 -186.38863000921637 A 248 248 0 0 1 168.267 -182.184C 166.68335565370575 -177.3522218548302 165.00566373349358 -173.4367196639625 163.46569793851413 -170.3613819221957 C 162.75116118495222 -168.9346497523066 162.06717456282615 -167.6909968263866 161.43601408329138 -166.6206699348173 A 3 3 0 0 0 162.158 -163.11A 230 230 0 0 1 163.11 -162.158A 3 3 0 0 0 166.621 -161.436C 167.69099682638634 -162.06717456282638 168.93464975230637 -162.75116118495245 170.36138192219545 -163.46569793851435 C 173.43671966396226 -165.0056637334938 177.35222185482993 -166.68335565370595 182.18391635008726 -168.26700948508608 A 248 248 0 0 1 186.389 -163.597C 184.3086019986567 -158.95751280806266 182.23081922339077 -155.23882670613864 180.3778291939896 -152.34130624433308 C 179.51807262631388 -150.99707929135016 178.7078358252858 -149.83173529679038 177.9682532837275 -148.83324600292428 A 3 3 0 0 0 178.319 -145.266A 230 230 0 0 1 179.167 -144.22A 3 3 0 0 0 182.582 -143.135C 183.71300070315576 -143.6508714211197 185.02133683872847 -144.20111396377828 186.51494264930756 -144.76260228902794 C 189.73440362718102 -145.9726716620773 193.8038228456177 -147.23189158347822 198.77458571422355 -148.30182039290156 A 248 248 0 0 1 202.468 -143.218C 199.91452473105605 -138.82123198697178 197.4594157236261 -135.3401046771092 195.3137032063284 -132.65214733578955 C 194.31814649741 -131.40515323150728 193.39053664142486 -130.33088592097602 192.55063505893602 -129.41517388246407 A 3 3 0 0 0 192.527 -125.831A 230 230 0 0 1 193.26 -124.702A 3 3 0 0 0 196.544 -123.266C 197.72220649980423 -123.66069927124592 199.08089144054145 -124.07116916199406 200.6250066339927 -124.47345727534103 C 203.95331775978372 -125.34037245318589 208.1320685972515 -126.167324098808 213.18743912101843 -126.71180552234155 A 248 248 0 0 1 216.329 -121.27C 213.33014209569794 -117.16399669802144 210.52460554415399 -113.95856813949987 208.10967941431852 -111.5096237417889 C 206.9892300917939 -110.37352481456408 205.9544102685488 -109.40210408552038 205.02339178262784 -108.57920203508155 A 3 3 0 0 0 204.625 -105.017A 230 230 0 0 1 205.236 -103.817A 3 3 0 0 0 208.352 -102.046C 209.5651264260092 -102.31567462249143 210.95927413537703 -102.58187466730973 212.53698106251412 -102.82055501599999 C 215.93767666303464 -103.3348178945382 220.1799758508984 -103.72044100910128 225.26456633246372 -103.73350959432874 A 248 248 0 0 1 227.82 -97.9929C 224.40846978133717 -94.223088143105 221.2832437312342 -91.32847768199066 218.6255624248952 -89.14537737518424 C 217.39249636601107 -88.13262096260752 216.26180427803942 -87.27468990384168 215.24986932204624 -86.5536137285439 A 3 3 0 0 0 214.481 -83.053A 230 230 0 0 1 214.964 -81.7956A 3 3 0 0 0 217.877 -79.7084C 219.11200697276882 -79.84965803164133 220.5263428767193 -79.96867168713281 222.12035585029213 -80.04112923931902 C 225.55617719290152 -80.19710544683693 229.81554521350083 -80.13717506280099 234.87364781552958 -79.61868762756782 A 248 248 0 0 1 236.815 -73.6424C 233.02813131156083 -70.2498517170437 229.61745639349934 -67.69777331128475 226.74613802320465 -65.80443559918734 C 225.41396495773785 -64.92611767244783 224.19978870416793 -64.19107595617331 223.1180242492414 -63.579725917488034 A 3 3 0 0 0 221.988 -60.1786A 230 230 0 0 1 222.336 -58.8777A 3 3 0 0 0 225.016 -56.4974C 226.2582505189995 -56.50879187778159 227.6772788574001 -56.47931520543147 229.2701335377015 -56.38475610100919 C 232.70343704477835 -56.18073672953708 236.93320737074947 -55.67590945673088 241.9094044626578 -54.63154665787796 A 248 248 0 0 1 243.216 -48.485C 239.09468787086342 -45.506943214844114 235.4359321529754 -43.32535796951078 232.38243548365193 -41.74252665630253 C 230.9657509784828 -41.008270250405424 229.6813933284315 -40.404171147483055 228.54165141231354 -39.90924532436736 A 3 3 0 0 0 227.062 -36.6449A 230 230 0 0 1 227.273 -35.3146A 3 3 0 0 0 229.689 -32.6673C 230.92556132496114 -32.54880357488393 232.33373492638557 -32.37115952728287 233.90797966421195 -32.11061977558791 C 237.30114934406774 -31.54884010405343 241.454979726583 -30.604646935719728 246.29475105169573 -29.045851030618273 A 248 248 0 0 1 246.952 -22.7964C 242.54167299607283 -20.26545111984261 238.67492257164722 -18.478260939408816 235.47270235178934 -17.22327785618597 C 233.98702789881682 -16.641127637967315 232.64656054346725 -16.174589784584597 231.4613284170972 -15.80151068792642 A 3 3 0 0 0 229.649 -12.7097A 230 230 0 0 1 229.719 -11.3647A 3 3 0 0 0 231.845 -8.47937" stroke="#191919" stroke-width="0.35 px" style="stroke-width:0.35;stroke-miterlimit:4;stroke-dasharray:none;fill:none;fill-rule: evenodd "/>
<title>b'InvoluteGear'</title>
</g>
</svg>